ply
format ascii 1.0
element vertex 114
property float x
property float y
property float z
property float nx
property float ny
property float nz
property float u
property float v
element face 38
property list uchar int vertex_indices
end_header
-0.917316 1.631714 -3.588931 0 1 0 0 0
-0.917316 1.716466 -3.588931 0 1 0 0 0
-0.917316 1.640933 -3.588931 0 1 0 0 0
-0.917316 1.631714 -3.588931 0 1 0 0 0
-0.917316 1.726837 -3.588931 0 1 0 0 0
-0.917316 1.716466 -3.588931 0 1 0 0 0
-0.917316 1.631714 -3.588931 0 1 0 0 0
-0.917316 1.807437 -3.588931 0 1 0 0 0
-0.917316 1.726837 -3.588931 0 1 0 0 0
-0.917316 1.631714 -3.588931 0 1 0 0 0
-0.917316 1.817808 -3.588931 0 1 0 0 0
-0.917316 1.807437 -3.588931 0 1 0 0 0
-0.917316 1.631714 -3.588931 0 1 0 0 0
-0.917316 1.900199 -3.588931 0 1 0 0 0
-0.917316 1.817808 -3.588931 0 1 0 0 0
-0.917316 1.631714 -3.588931 0 1 0 0 0
-0.917316 1.90965 -3.588931 0 1 0 0 0
-0.917316 1.900199 -3.588931 0 1 0 0 0
-0.917316 1.631714 -3.588931 -0.0978267619 0 0.995203459 0 0
-0.91285 1.90965 -3.588492 -0.0978267619 0 0.995203459 0 0
-0.917316 1.90965 -3.588931 -0.0978267619 0 0.995203459 0 0
-0.917316 1.631714 -3.588931 -0.0977415744 -1.38205072e-06 0.995211829 0 0
-0.894675 1.90965 -3.586707 -0.0977415744 -1.38205072e-06 0.995211829 0 0
-0.91285 1.90965 -3.588492 -0.0977415744 -1.38205072e-06 0.995211829 0 0
-0.917316 1.631714 -3.588931 -0.0727743132 -0.00205232498 0.997346323 0 0
-0.876393 1.90965 -3.585373 -0.0727743132 -0.00205232498 0.997346323 0 0
-0.894675 1.90965 -3.586707 -0.0727743132 -0.00205232498 0.997346323 0 0
-0.917316 1.631714 -3.588931 -0.0330901818 -0.0079219328 0.999420974 0 0
-0.857939 1.90965 -3.584762 -0.0330901818 -0.0079219328 0.999420974 0 0
-0.876393 1.90965 -3.585373 -0.0330901818 -0.0079219328 0.999420974 0 0
-0.917316 1.631714 -3.588931 -0.0328104291 -0.00798182911 0.99942972 0 0
-0.846303 1.90965 -3.58438 -0.0328104291 -0.00798182911 0.99942972 0 0
-0.857939 1.90965 -3.584762 -0.0328104291 -0.00798182911 0.99942972 0 0
-0.917316 1.631714 -3.588931 -0.0324982364 -0.00806175127 0.999439279 0 0
-0.827328 1.90965 -3.583763 -0.0324982364 -0.00806175127 0.999439279 0 0
-0.846303 1.90965 -3.58438 -0.0324982364 -0.00806175127 0.999439279 0 0
-0.917316 1.631714 -3.588931 -0.0208624619 -0.0118341705 0.999712314 0 0
-0.808352 1.90965 -3.583367 -0.0208624619 -0.0118341705 0.999712314 0 0
-0.827328 1.90965 -3.583763 -0.0208624619 -0.0118341705 0.999712314 0 0
-0.917316 1.631714 -3.588931 0.0322716058 -0.0326498805 0.998945709 0 0
-0.789377 1.90965 -3.58398 0.0322716058 -0.0326498805 0.998945709 0 0
-0.808352 1.90965 -3.583367 0.0322716058 -0.0326498805 0.998945709 0 0
-0.917316 1.631714 -3.588931 0.0325365809 -0.0327716292 0.998933127 0 0
-0.777741 1.90965 -3.584359 0.0325365809 -0.0327716292 0.998933127 0 0
-0.789377 1.90965 -3.58398 0.0325365809 -0.0327716292 0.998933127 0 0
-0.917316 1.631714 -3.588931 0.0328608063 -0.0329341875 0.998917167 0 0
-0.758286 1.90965 -3.584999 0.0328608063 -0.0329341875 0.998917167 0 0
-0.777741 1.90965 -3.584359 0.0328608063 -0.0329341875 0.998917167 0 0
-0.917316 1.631714 -3.588931 0.0395797092 -0.0367732807 0.99853952 0 0
-0.73886 1.90965 -3.585769 0.0395797092 -0.0367732807 0.99853952 0 0
-0.758286 1.90965 -3.584999 0.0395797092 -0.0367732807 0.99853952 0 0
-0.917316 1.631714 -3.588931 0.09450698 -0.0719768109 0.992918813 0 0
-0.719686 1.90965 -3.587594 0.09450698 -0.0719768109 0.992918813 0 0
-0.73886 1.90965 -3.585769 0.09450698 -0.0719768109 0.992918813 0 0
-0.917316 1.631714 -3.588931 0.0974425179 -0.0740620601 0.99248162 0 0
-0.71331 1.90965 -3.58822 0.0974425179 -0.0740620601 0.99248162 0 0
-0.719686 1.90965 -3.587594 0.0974425179 -0.0740620601 0.99248162 0 0
-0.917316 1.631714 -3.588931 -0.00348517045 0 0.999993927 0 0
-0.71331 1.900199 -3.58822 -0.00348517045 0 0.999993927 0 0
-0.71331 1.90965 -3.58822 -0.00348517045 0 0.999993927 0 0
-0.917316 1.631714 -3.588931 -0.00348517045 0 0.999993927 0 0
-0.71331 1.817808 -3.58822 -0.00348517045 0 0.999993927 0 0
-0.71331 1.900199 -3.58822 -0.00348517045 0 0.999993927 0 0
-0.917316 1.631714 -3.588931 -0.00348517045 0 0.999993927 0 0
-0.71331 1.807437 -3.58822 -0.00348517045 0 0.999993927 0 0
-0.71331 1.817808 -3.58822 -0.00348517045 0 0.999993927 0 0
-0.917316 1.631714 -3.588931 -0.00348517045 0 0.999993927 0 0
-0.71331 1.726837 -3.58822 -0.00348517045 0 0.999993927 0 0
-0.71331 1.807437 -3.58822 -0.00348517045 0 0.999993927 0 0
-0.917316 1.631714 -3.588931 -0.00348517045 0 0.999993927 0 0
-0.71331 1.716466 -3.58822 -0.00348517045 0 0.999993927 0 0
-0.71331 1.726837 -3.58822 -0.00348517045 0 0.999993927 0 0
-0.917316 1.631714 -3.588931 -0.00348517045 0 0.999993927 0 0
-0.71331 1.640933 -3.58822 -0.00348517045 0 0.999993927 0 0
-0.71331 1.716466 -3.58822 -0.00348517045 0 0.999993927 0 0
-0.917316 1.631714 -3.588931 -0.00348517045 0 0.999993927 0 0
-0.71331 1.631714 -3.58822 -0.00348517045 0 0.999993927 0 0
-0.71331 1.640933 -3.58822 -0.00348517045 0 0.999993927 0 0
-0.917316 1.631714 -3.588931 0 1 0 0 0
-0.719686 1.631714 -3.587594 0 1 0 0 0
-0.71331 1.631714 -3.58822 0 1 0 0 0
-0.917316 1.631714 -3.588931 0 1 0 0 0
-0.73886 1.631714 -3.585769 0 1 0 0 0
-0.719686 1.631714 -3.587594 0 1 0 0 0
-0.917316 1.631714 -3.588931 0 1 0 0 0
-0.758286 1.631714 -3.584999 0 1 0 0 0
-0.73886 1.631714 -3.585769 0 1 0 0 0
-0.917316 1.631714 -3.588931 0 1 0 0 0
-0.777741 1.631714 -3.584359 0 1 0 0 0
-0.758286 1.631714 -3.584999 0 1 0 0 0
-0.917316 1.631714 -3.588931 0 1 0 0 0
-0.789377 1.631714 -3.58398 0 1 0 0 0
-0.777741 1.631714 -3.584359 0 1 0 0 0
-0.917316 1.631714 -3.588931 0 1 0 0 0
-0.808352 1.631714 -3.583367 0 1 0 0 0
-0.789377 1.631714 -3.58398 0 1 0 0 0
-0.917316 1.631714 -3.588931 0 1 0 0 0
-0.827328 1.631714 -3.583763 0 1 0 0 0
-0.808352 1.631714 -3.583367 0 1 0 0 0
-0.917316 1.631714 -3.588931 0 1 0 0 0
-0.846303 1.631714 -3.58438 0 1 0 0 0
-0.827328 1.631714 -3.583763 0 1 0 0 0
-0.917316 1.631714 -3.588931 0 1 0 0 0
-0.857939 1.631714 -3.584762 0 1 0 0 0
-0.846303 1.631714 -3.58438 0 1 0 0 0
-0.917316 1.631714 -3.588931 0 1 0 0 0
-0.876393 1.631714 -3.585373 0 1 0 0 0
-0.857939 1.631714 -3.584762 0 1 0 0 0
-0.917316 1.631714 -3.588931 0 1 0 0 0
-0.894675 1.631714 -3.586707 0 1 0 0 0
-0.876393 1.631714 -3.585373 0 1 0 0 0
-0.917316 1.631714 -3.588931 0 1 0 0 0
-0.91285 1.631714 -3.588492 0 1 0 0 0
-0.894675 1.631714 -3.586707 0 1 0 0 0
3 0 1 2
3 3 4 5
3 6 7 8
3 9 10 11
3 12 13 14
3 15 16 17
3 18 19 20
3 21 22 23
3 24 25 26
3 27 28 29
3 30 31 32
3 33 34 35
3 36 37 38
3 39 40 41
3 42 43 44
3 45 46 47
3 48 49 50
3 51 52 53
3 54 55 56
3 57 58 59
3 60 61 62
3 63 64 65
3 66 67 68
3 69 70 71
3 72 73 74
3 75 76 77
3 78 79 80
3 81 82 83
3 84 85 86
3 87 88 89
3 90 91 92
3 93 94 95
3 96 97 98
3 99 100 101
3 102 103 104
3 105 106 107
3 108 109 110
3 111 112 113
