ply
format ascii 1.0
element vertex 354
property float x
property float y
property float z
property float nx
property float ny
property float nz
property float u
property float v
element face 118
property list uchar int vertex_indices
end_header
-0.917316 1.631714 -3.635379 0 1 0 0 0
-0.894675 1.631714 -3.635379 0 1 0 0 0
-0.91285 1.631714 -3.635379 0 1 0 0 0
-0.917316 1.631714 -3.635379 0 1 0 0 0
-0.876393 1.631714 -3.635379 0 1 0 0 0
-0.894675 1.631714 -3.635379 0 1 0 0 0
-0.917316 1.631714 -3.635379 0 1 0 0 0
-0.857939 1.631714 -3.635379 0 1 0 0 0
-0.876393 1.631714 -3.635379 0 1 0 0 0
-0.917316 1.631714 -3.635379 0 1 0 0 0
-0.846303 1.631714 -3.635379 0 1 0 0 0
-0.857939 1.631714 -3.635379 0 1 0 0 0
-0.917316 1.631714 -3.635379 0 1 0 0 0
-0.827328 1.631714 -3.635379 0 1 0 0 0
-0.846303 1.631714 -3.635379 0 1 0 0 0
-0.917316 1.631714 -3.635379 0 1 0 0 0
-0.808352 1.631714 -3.635379 0 1 0 0 0
-0.827328 1.631714 -3.635379 0 1 0 0 0
-0.917316 1.631714 -3.635379 0 1 0 0 0
-0.789377 1.631714 -3.635379 0 1 0 0 0
-0.808352 1.631714 -3.635379 0 1 0 0 0
-0.917316 1.631714 -3.635379 0 1 0 0 0
-0.777741 1.631714 -3.635379 0 1 0 0 0
-0.789377 1.631714 -3.635379 0 1 0 0 0
-0.917316 1.631714 -3.635379 0 1 0 0 0
-0.758286 1.631714 -3.635379 0 1 0 0 0
-0.777741 1.631714 -3.635379 0 1 0 0 0
-0.917316 1.631714 -3.635379 0 1 0 0 0
-0.73886 1.631714 -3.635379 0 1 0 0 0
-0.758286 1.631714 -3.635379 0 1 0 0 0
-0.917316 1.631714 -3.635379 0 1 0 0 0
-0.719686 1.631714 -3.635379 0 1 0 0 0
-0.73886 1.631714 -3.635379 0 1 0 0 0
-0.917316 1.631714 -3.635379 0 1 0 0 0
-0.71331 1.631714 -3.635379 0 1 0 0 0
-0.719686 1.631714 -3.635379 0 1 0 0 0
-0.917316 1.631714 -3.635379 0 0 -1 0 0
-0.71331 1.640933 -3.635379 0 0 -1 0 0
-0.71331 1.631714 -3.635379 0 0 -1 0 0
-0.917316 1.631714 -3.635379 0 0 -1 0 0
-0.71331 1.716466 -3.635379 0 0 -1 0 0
-0.71331 1.640933 -3.635379 0 0 -1 0 0
-0.917316 1.631714 -3.635379 0 0 -1 0 0
-0.71331 1.726837 -3.635379 0 0 -1 0 0
-0.71331 1.716466 -3.635379 0 0 -1 0 0
-0.917316 1.631714 -3.635379 0 0 -1 0 0
-0.71331 1.807437 -3.635379 0 0 -1 0 0
-0.71331 1.726837 -3.635379 0 0 -1 0 0
-0.917316 1.631714 -3.635379 0 0 -1 0 0
-0.71331 1.817808 -3.635379 0 0 -1 0 0
-0.71331 1.807437 -3.635379 0 0 -1 0 0
-0.917316 1.631714 -3.635379 0 0 -1 0 0
-0.71331 1.900199 -3.635379 0 0 -1 0 0
-0.71331 1.817808 -3.635379 0 0 -1 0 0
-0.917316 1.631714 -3.635379 0 0 -1 0 0
-0.71331 1.90965 -3.635379 0 0 -1 0 0
-0.71331 1.900199 -3.635379 0 0 -1 0 0
-0.917316 1.631714 -3.635379 0 0 -1 0 0
-0.719686 1.90965 -3.635379 0 0 -1 0 0
-0.71331 1.90965 -3.635379 0 0 -1 0 0
-0.917316 1.631714 -3.635379 0 0 -1 0 0
-0.73886 1.90965 -3.635379 0 0 -1 0 0
-0.719686 1.90965 -3.635379 0 0 -1 0 0
-0.917316 1.631714 -3.635379 0 0 -1 0 0
-0.758286 1.90965 -3.635379 0 0 -1 0 0
-0.73886 1.90965 -3.635379 0 0 -1 0 0
-0.917316 1.631714 -3.635379 0 0 -1 0 0
-0.777741 1.90965 -3.635379 0 0 -1 0 0
-0.758286 1.90965 -3.635379 0 0 -1 0 0
-0.917316 1.631714 -3.635379 0 0 -1 0 0
-0.789377 1.90965 -3.635379 0 0 -1 0 0
-0.777741 1.90965 -3.635379 0 0 -1 0 0
-0.917316 1.631714 -3.635379 0 0 -1 0 0
-0.808352 1.90965 -3.635379 0 0 -1 0 0
-0.789377 1.90965 -3.635379 0 0 -1 0 0
-0.917316 1.631714 -3.635379 0 0 -1 0 0
-0.827328 1.90965 -3.635379 0 0 -1 0 0
-0.808352 1.90965 -3.635379 0 0 -1 0 0
-0.917316 1.631714 -3.635379 0 0 -1 0 0
-0.846303 1.90965 -3.635379 0 0 -1 0 0
-0.827328 1.90965 -3.635379 0 0 -1 0 0
-0.917316 1.631714 -3.635379 0 0 -1 0 0
-0.857939 1.90965 -3.635379 0 0 -1 0 0
-0.846303 1.90965 -3.635379 0 0 -1 0 0
-0.917316 1.631714 -3.635379 0 0 -1 0 0
-0.876393 1.90965 -3.635379 0 0 -1 0 0
-0.857939 1.90965 -3.635379 0 0 -1 0 0
-0.917316 1.631714 -3.635379 0 0 -1 0 0
-0.894675 1.90965 -3.635379 0 0 -1 0 0
-0.876393 1.90965 -3.635379 0 0 -1 0 0
-0.917316 1.631714 -3.635379 0 0 -1 0 0
-0.91285 1.90965 -3.635379 0 0 -1 0 0
-0.894675 1.90965 -3.635379 0 0 -1 0 0
-0.917316 1.631714 -3.635379 0 0 -1 0 0
-0.917316 1.90965 -3.635379 0 0 -1 0 0
-0.91285 1.90965 -3.635379 0 0 -1 0 0
-0.917316 1.631714 -3.635379 0 1 0 0 0
-0.917316 1.900199 -3.635379 0 1 0 0 0
-0.917316 1.90965 -3.635379 0 1 0 0 0
-0.917316 1.631714 -3.635379 0 1 0 0 0
-0.917316 1.817808 -3.635379 0 1 0 0 0
-0.917316 1.900199 -3.635379 0 1 0 0 0
-0.917316 1.631714 -3.635379 0 1 0 0 0
-0.917316 1.807437 -3.635379 0 1 0 0 0
-0.917316 1.817808 -3.635379 0 1 0 0 0
-0.917316 1.631714 -3.635379 0 1 0 0 0
-0.917316 1.726837 -3.635379 0 1 0 0 0
-0.917316 1.807437 -3.635379 0 1 0 0 0
-0.917316 1.631714 -3.635379 0 1 0 0 0
-0.917316 1.716466 -3.635379 0 1 0 0 0
-0.917316 1.726837 -3.635379 0 1 0 0 0
-0.917316 1.631714 -3.635379 0 1 0 0 0
-0.917316 1.640933 -3.635379 0 1 0 0 0
-0.917316 1.716466 -3.635379 0 1 0 0 0
-0.846303 1.631714 -3.58438 0 -1 0 0 0
-0.827328 1.631714 -3.635379 0 -1 0 0 0
-0.827328 1.631714 -3.583763 0 -1 0 0 0
-0.846303 1.631714 -3.58438 0 -1 0 0 0
-0.846303 1.631714 -3.635379 0 -1 0 0 0
-0.827328 1.631714 -3.635379 0 -1 0 0 0
-0.917316 1.817808 -3.588931 -1 -0 0 0 0
-0.917316 1.807437 -3.635379 -1 -0 0 0 0
-0.917316 1.807437 -3.588931 -1 -0 0 0 0
-0.917316 1.817808 -3.588931 -1 0 -0 0 0
-0.917316 1.817808 -3.635379 -1 0 -0 0 0
-0.917316 1.807437 -3.635379 -1 0 -0 0 0
-0.894675 1.90965 -3.586707 0 1 0 0 0
-0.91285 1.90965 -3.635379 0 1 0 0 0
-0.91285 1.90965 -3.588492 0 1 0 0 0
-0.894675 1.90965 -3.586707 0 1 0 0 0
-0.894675 1.90965 -3.635379 0 1 0 0 0
-0.91285 1.90965 -3.635379 0 1 0 0 0
-0.876393 1.631714 -3.585373 0 -1 0 0 0
-0.857939 1.631714 -3.635379 0 -1 0 0 0
-0.857939 1.631714 -3.584762 0 -1 0 0 0
-0.876393 1.631714 -3.585373 0 -1 0 0 0
-0.876393 1.631714 -3.635379 0 -1 0 0 0
-0.857939 1.631714 -3.635379 0 -1 0 0 0
-0.71331 1.817808 -3.58822 1 -0 0 0 0
-0.71331 1.900199 -3.635379 1 -0 0 0 0
-0.71331 1.900199 -3.58822 1 -0 0 0 0
-0.71331 1.817808 -3.58822 1 0 0 0 0
-0.71331 1.817808 -3.635379 1 0 0 0 0
-0.71331 1.900199 -3.635379 1 0 0 0 0
-0.894675 1.631714 -3.586707 0 -1 0 0 0
-0.876393 1.631714 -3.635379 0 -1 0 0 0
-0.876393 1.631714 -3.585373 0 -1 0 0 0
-0.894675 1.631714 -3.586707 0 -1 0 0 0
-0.894675 1.631714 -3.635379 0 -1 0 0 0
-0.876393 1.631714 -3.635379 0 -1 0 0 0
-0.917316 1.716466 -3.588931 -1 -0 0 0 0
-0.917316 1.640933 -3.635379 -1 -0 0 0 0
-0.917316 1.640933 -3.588931 -1 -0 0 0 0
-0.917316 1.716466 -3.588931 -1 0 -0 0 0
-0.917316 1.716466 -3.635379 -1 0 -0 0 0
-0.917316 1.640933 -3.635379 -1 0 -0 0 0
-0.777741 1.90965 -3.584359 0 1 0 0 0
-0.789377 1.90965 -3.635379 0 1 0 0 0
-0.789377 1.90965 -3.58398 0 1 0 0 0
-0.777741 1.90965 -3.584359 0 1 0 0 0
-0.777741 1.90965 -3.635379 0 1 0 0 0
-0.789377 1.90965 -3.635379 0 1 0 0 0
-0.71331 1.716466 -3.58822 1 -0 0 0 0
-0.71331 1.726837 -3.635379 1 -0 0 0 0
-0.71331 1.726837 -3.58822 1 -0 0 0 0
-0.71331 1.716466 -3.58822 1 0 0 0 0
-0.71331 1.716466 -3.635379 1 0 0 0 0
-0.71331 1.726837 -3.635379 1 0 0 0 0
-0.73886 1.90965 -3.585769 0 1 0 0 0
-0.758286 1.90965 -3.635379 0 1 0 0 0
-0.758286 1.90965 -3.584999 0 1 0 0 0
-0.73886 1.90965 -3.585769 0 1 0 0 0
-0.73886 1.90965 -3.635379 0 1 0 0 0
-0.758286 1.90965 -3.635379 0 1 0 0 0
-0.857939 1.90965 -3.584762 0 1 0 0 0
-0.876393 1.90965 -3.635379 0 1 0 0 0
-0.876393 1.90965 -3.585373 0 1 0 0 0
-0.857939 1.90965 -3.584762 0 1 0 0 0
-0.857939 1.90965 -3.635379 0 1 0 0 0
-0.876393 1.90965 -3.635379 0 1 0 0 0
-0.73886 1.631714 -3.585769 0 -1 0 0 0
-0.719686 1.631714 -3.635379 0 -1 0 0 0
-0.719686 1.631714 -3.587594 0 -1 0 0 0
-0.73886 1.631714 -3.585769 0 -1 0 0 0
-0.73886 1.631714 -3.635379 0 -1 0 0 0
-0.719686 1.631714 -3.635379 0 -1 0 0 0
-0.777741 1.631714 -3.584359 0 -1 0 0 0
-0.758286 1.631714 -3.635379 0 -1 0 0 0
-0.758286 1.631714 -3.584999 0 -1 0 0 0
-0.777741 1.631714 -3.584359 0 -1 0 0 0
-0.777741 1.631714 -3.635379 0 -1 0 0 0
-0.758286 1.631714 -3.635379 0 -1 0 0 0
-0.917316 1.900199 -3.588931 -1 -0 0 0 0
-0.917316 1.817808 -3.635379 -1 -0 0 0 0
-0.917316 1.817808 -3.588931 -1 -0 0 0 0
-0.917316 1.900199 -3.588931 -1 0 -0 0 0
-0.917316 1.900199 -3.635379 -1 0 -0 0 0
-0.917316 1.817808 -3.635379 -1 0 -0 0 0
-0.876393 1.90965 -3.585373 0 1 0 0 0
-0.894675 1.90965 -3.635379 0 1 0 0 0
-0.894675 1.90965 -3.586707 0 1 0 0 0
-0.876393 1.90965 -3.585373 0 1 0 0 0
-0.876393 1.90965 -3.635379 0 1 0 0 0
-0.894675 1.90965 -3.635379 0 1 0 0 0
-0.917316 1.90965 -3.588931 -1 -0 0 0 0
-0.917316 1.900199 -3.635379 -1 -0 0 0 0
-0.917316 1.900199 -3.588931 -1 -0 0 0 0
-0.917316 1.90965 -3.588931 -1 0 -0 0 0
-0.917316 1.90965 -3.635379 -1 0 -0 0 0
-0.917316 1.900199 -3.635379 -1 0 -0 0 0
-0.857939 1.631714 -3.584762 0 -1 0 0 0
-0.846303 1.631714 -3.635379 0 -1 0 0 0
-0.846303 1.631714 -3.58438 0 -1 0 0 0
-0.857939 1.631714 -3.584762 0 -1 0 0 0
-0.857939 1.631714 -3.635379 0 -1 0 0 0
-0.846303 1.631714 -3.635379 0 -1 0 0 0
-0.758286 1.631714 -3.584999 0 -1 0 0 0
-0.73886 1.631714 -3.635379 0 -1 0 0 0
-0.73886 1.631714 -3.585769 0 -1 0 0 0
-0.758286 1.631714 -3.584999 0 -1 0 0 0
-0.758286 1.631714 -3.635379 0 -1 0 0 0
-0.73886 1.631714 -3.635379 0 -1 0 0 0
-0.917316 1.726837 -3.588931 -1 -0 0 0 0
-0.917316 1.716466 -3.635379 -1 -0 0 0 0
-0.917316 1.716466 -3.588931 -1 -0 0 0 0
-0.917316 1.726837 -3.588931 -1 0 -0 0 0
-0.917316 1.726837 -3.635379 -1 0 -0 0 0
-0.917316 1.716466 -3.635379 -1 0 -0 0 0
-0.719686 1.90965 -3.587594 0 1 0 0 0
-0.73886 1.90965 -3.635379 0 1 0 0 0
-0.73886 1.90965 -3.585769 0 1 0 0 0
-0.719686 1.90965 -3.587594 0 1 0 0 0
-0.719686 1.90965 -3.635379 0 1 0 0 0
-0.73886 1.90965 -3.635379 0 1 0 0 0
-0.758286 1.90965 -3.584999 0 1 0 0 0
-0.777741 1.90965 -3.635379 0 1 0 0 0
-0.777741 1.90965 -3.584359 0 1 0 0 0
-0.758286 1.90965 -3.584999 0 1 0 0 0
-0.758286 1.90965 -3.635379 0 1 0 0 0
-0.777741 1.90965 -3.635379 0 1 0 0 0
-0.71331 1.726837 -3.58822 1 -0 0 0 0
-0.71331 1.807437 -3.635379 1 -0 0 0 0
-0.71331 1.807437 -3.58822 1 -0 0 0 0
-0.71331 1.726837 -3.58822 1 0 0 0 0
-0.71331 1.726837 -3.635379 1 0 0 0 0
-0.71331 1.807437 -3.635379 1 0 0 0 0
-0.846303 1.90965 -3.58438 0 1 0 0 0
-0.857939 1.90965 -3.635379 0 1 0 0 0
-0.857939 1.90965 -3.584762 0 1 0 0 0
-0.846303 1.90965 -3.58438 0 1 0 0 0
-0.846303 1.90965 -3.635379 0 1 0 0 0
-0.857939 1.90965 -3.635379 0 1 0 0 0
-0.719686 1.631714 -3.587594 0 -1 0 0 0
-0.71331 1.631714 -3.635379 0 -1 0 0 0
-0.71331 1.631714 -3.58822 0 -1 0 0 0
-0.719686 1.631714 -3.587594 0 -1 0 0 0
-0.719686 1.631714 -3.635379 0 -1 0 0 0
-0.71331 1.631714 -3.635379 0 -1 0 0 0
-0.71331 1.631714 -3.58822 1 -0 0 0 0
-0.71331 1.640933 -3.635379 1 -0 0 0 0
-0.71331 1.640933 -3.58822 1 -0 0 0 0
-0.71331 1.631714 -3.58822 1 0 0 0 0
-0.71331 1.631714 -3.635379 1 0 0 0 0
-0.71331 1.640933 -3.635379 1 0 0 0 0
-0.808352 1.90965 -3.583367 0 1 0 0 0
-0.827328 1.90965 -3.635379 0 1 0 0 0
-0.827328 1.90965 -3.583763 0 1 0 0 0
-0.808352 1.90965 -3.583367 0 1 0 0 0
-0.808352 1.90965 -3.635379 0 1 0 0 0
-0.827328 1.90965 -3.635379 0 1 0 0 0
-0.71331 1.900199 -3.58822 1 -0 0 0 0
-0.71331 1.90965 -3.635379 1 -0 0 0 0
-0.71331 1.90965 -3.58822 1 -0 0 0 0
-0.71331 1.900199 -3.58822 1 0 0 0 0
-0.71331 1.900199 -3.635379 1 0 0 0 0
-0.71331 1.90965 -3.635379 1 0 0 0 0
-0.808352 1.631714 -3.583367 0 -1 0 0 0
-0.789377 1.631714 -3.635379 0 -1 0 0 0
-0.789377 1.631714 -3.58398 0 -1 0 0 0
-0.808352 1.631714 -3.583367 0 -1 0 0 0
-0.808352 1.631714 -3.635379 0 -1 0 0 0
-0.789377 1.631714 -3.635379 0 -1 0 0 0
-0.827328 1.631714 -3.583763 0 -1 0 0 0
-0.808352 1.631714 -3.635379 0 -1 0 0 0
-0.808352 1.631714 -3.583367 0 -1 0 0 0
-0.827328 1.631714 -3.583763 0 -1 0 0 0
-0.827328 1.631714 -3.635379 0 -1 0 0 0
-0.808352 1.631714 -3.635379 0 -1 0 0 0
-0.917316 1.807437 -3.588931 -1 -0 0 0 0
-0.917316 1.726837 -3.635379 -1 -0 0 0 0
-0.917316 1.726837 -3.588931 -1 -0 0 0 0
-0.917316 1.807437 -3.588931 -1 0 -0 0 0
-0.917316 1.807437 -3.635379 -1 0 -0 0 0
-0.917316 1.726837 -3.635379 -1 0 -0 0 0
-0.71331 1.90965 -3.58822 0 1 0 0 0
-0.719686 1.90965 -3.635379 0 1 0 0 0
-0.719686 1.90965 -3.587594 0 1 0 0 0
-0.71331 1.90965 -3.58822 0 1 0 0 0
-0.71331 1.90965 -3.635379 0 1 0 0 0
-0.719686 1.90965 -3.635379 0 1 0 0 0
-0.71331 1.807437 -3.58822 1 -0 0 0 0
-0.71331 1.817808 -3.635379 1 -0 0 0 0
-0.71331 1.817808 -3.58822 1 -0 0 0 0
-0.71331 1.807437 -3.58822 1 0 0 0 0
-0.71331 1.807437 -3.635379 1 0 0 0 0
-0.71331 1.817808 -3.635379 1 0 0 0 0
-0.917316 1.631714 -3.588931 0 -1 0 0 0
-0.91285 1.631714 -3.635379 0 -1 0 0 0
-0.91285 1.631714 -3.588492 0 -1 0 0 0
-0.917316 1.631714 -3.588931 0 -1 0 0 0
-0.917316 1.631714 -3.635379 0 -1 0 0 0
-0.91285 1.631714 -3.635379 0 -1 0 0 0
-0.91285 1.631714 -3.588492 0 -1 0 0 0
-0.894675 1.631714 -3.635379 0 -1 0 0 0
-0.894675 1.631714 -3.586707 0 -1 0 0 0
-0.91285 1.631714 -3.588492 0 -1 0 0 0
-0.91285 1.631714 -3.635379 0 -1 0 0 0
-0.894675 1.631714 -3.635379 0 -1 0 0 0
-0.789377 1.90965 -3.58398 0 1 0 0 0
-0.808352 1.90965 -3.635379 0 1 0 0 0
-0.808352 1.90965 -3.583367 0 1 0 0 0
-0.789377 1.90965 -3.58398 0 1 0 0 0
-0.789377 1.90965 -3.635379 0 1 0 0 0
-0.808352 1.90965 -3.635379 0 1 0 0 0
-0.917316 1.640933 -3.588931 -1 -0 0 0 0
-0.917316 1.631714 -3.635379 -1 -0 0 0 0
-0.917316 1.631714 -3.588931 -1 -0 0 0 0
-0.917316 1.640933 -3.588931 -1 0 -0 0 0
-0.917316 1.640933 -3.635379 -1 0 -0 0 0
-0.917316 1.631714 -3.635379 -1 0 -0 0 0
-0.827328 1.90965 -3.583763 0 1 0 0 0
-0.846303 1.90965 -3.635379 0 1 0 0 0
-0.846303 1.90965 -3.58438 0 1 0 0 0
-0.827328 1.90965 -3.583763 0 1 0 0 0
-0.827328 1.90965 -3.635379 0 1 0 0 0
-0.846303 1.90965 -3.635379 0 1 0 0 0
-0.71331 1.640933 -3.58822 1 -0 0 0 0
-0.71331 1.716466 -3.635379 1 -0 0 0 0
-0.71331 1.716466 -3.58822 1 -0 0 0 0
-0.71331 1.640933 -3.58822 1 0 0 0 0
-0.71331 1.640933 -3.635379 1 0 0 0 0
-0.71331 1.716466 -3.635379 1 0 0 0 0
-0.91285 1.90965 -3.588492 0 1 0 0 0
-0.917316 1.90965 -3.635379 0 1 0 0 0
-0.917316 1.90965 -3.588931 0 1 0 0 0
-0.91285 1.90965 -3.588492 0 1 0 0 0
-0.91285 1.90965 -3.635379 0 1 0 0 0
-0.917316 1.90965 -3.635379 0 1 0 0 0
-0.789377 1.631714 -3.58398 0 -1 0 0 0
-0.777741 1.631714 -3.635379 0 -1 0 0 0
-0.777741 1.631714 -3.584359 0 -1 0 0 0
-0.789377 1.631714 -3.58398 0 -1 0 0 0
-0.789377 1.631714 -3.635379 0 -1 0 0 0
-0.777741 1.631714 -3.635379 0 -1 0 0 0
3 0 1 2
3 3 4 5
3 6 7 8
3 9 10 11
3 12 13 14
3 15 16 17
3 18 19 20
3 21 22 23
3 24 25 26
3 27 28 29
3 30 31 32
3 33 34 35
3 36 37 38
3 39 40 41
3 42 43 44
3 45 46 47
3 48 49 50
3 51 52 53
3 54 55 56
3 57 58 59
3 60 61 62
3 63 64 65
3 66 67 68
3 69 70 71
3 72 73 74
3 75 76 77
3 78 79 80
3 81 82 83
3 84 85 86
3 87 88 89
3 90 91 92
3 93 94 95
3 96 97 98
3 99 100 101
3 102 103 104
3 105 106 107
3 108 109 110
3 111 112 113
3 114 115 116
3 117 118 119
3 120 121 122
3 123 124 125
3 126 127 128
3 129 130 131
3 132 133 134
3 135 136 137
3 138 139 140
3 141 142 143
3 144 145 146
3 147 148 149
3 150 151 152
3 153 154 155
3 156 157 158
3 159 160 161
3 162 163 164
3 165 166 167
3 168 169 170
3 171 172 173
3 174 175 176
3 177 178 179
3 180 181 182
3 183 184 185
3 186 187 188
3 189 190 191
3 192 193 194
3 195 196 197
3 198 199 200
3 201 202 203
3 204 205 206
3 207 208 209
3 210 211 212
3 213 214 215
3 216 217 218
3 219 220 221
3 222 223 224
3 225 226 227
3 228 229 230
3 231 232 233
3 234 235 236
3 237 238 239
3 240 241 242
3 243 244 245
3 246 247 248
3 249 250 251
3 252 253 254
3 255 256 257
3 258 259 260
3 261 262 263
3 264 265 266
3 267 268 269
3 270 271 272
3 273 274 275
3 276 277 278
3 279 280 281
3 282 283 284
3 285 286 287
3 288 289 290
3 291 292 293
3 294 295 296
3 297 298 299
3 300 301 302
3 303 304 305
3 306 307 308
3 309 310 311
3 312 313 314
3 315 316 317
3 318 319 320
3 321 322 323
3 324 325 326
3 327 328 329
3 330 331 332
3 333 334 335
3 336 337 338
3 339 340 341
3 342 343 344
3 345 346 347
3 348 349 350
3 351 352 353
