ply
format ascii 1.0
element vertex 888
property float x
property float y
property float z
property float nx
property float ny
property float nz
property float u
property float v
element face 1040
property list uchar int vertex_indices
end_header
-0.68763 1.952052 -3.58924 0 0.996199577 -0.087099963 0 0
-0.687104 1.952052 -3.583896 0.199098959 0.974294904 -0.105399449 0 0
-0.68763 1.952052 -3.58924 0.192900168 0.975300848 -0.107600094 0 0
-0.687104 1.952052 -3.583896 0 0.995960142 -0.0897964064 0 0
-0.917316 1.942601 -3.587426 0.0978005927 0 -0.995206031 0 0
-0.91285 1.952052 -3.586987 0.0978005927 0 -0.995206031 0 0
-0.91285 1.942601 -3.586987 0.0978005927 0 -0.995206031 0 0
-0.917316 1.952052 -3.587426 0.0978996353 0 -0.995196293 0 0
-0.876393 1.942601 -3.583868 0.0528999902 0 -0.998599815 0 0
-0.857939 1.952052 -3.583257 0.0329985275 0 -0.9994554 0 0
-0.857939 1.942601 -3.583257 0.0329985275 0 -0.9994554 0 0
-0.876393 1.952052 -3.583868 0.0528999902 0 -0.998599815 0 0
-0.846303 1.952052 -3.582875 0.0326988631 0 -0.999465249 0 0
-0.846303 1.942601 -3.582875 0.0326988631 0 -0.999465249 0 0
-0.808352 1.942601 -3.581862 -0.00569990741 0 -0.999983755 0 0
-0.789377 1.952052 -3.582474 -0.0323991899 0 -0.999475008 0 0
-0.789377 1.942601 -3.582474 -0.0323991899 0 -0.999475008 0 0
-0.808352 1.952052 -3.581862 -0.00569990741 0 -0.999983755 0 0
-0.777741 1.952052 -3.582854 -0.0326988631 0 -0.999465249 0 0
-0.777741 1.942601 -3.582854 -0.0326988631 0 -0.999465249 0 0
-0.73886 1.942601 -3.584263 -0.0672026502 0 -0.997739347 0 0
-0.719686 1.952052 -3.586089 -0.0962954333 0 -0.995352797 0 0
-0.719686 1.942601 -3.586089 -0.0963050186 0 -0.995351869 0 0
-0.73886 1.952052 -3.584263 -0.0672026502 0 -0.997739347 0 0
-0.917316 1.631714 -3.587426 0.0978005927 0 -0.995206031 0 0
-0.91285 1.640933 -3.586987 0.0978005927 0 -0.995206031 0 0
-0.91285 1.631714 -3.586987 0.0978005927 0 -0.995206031 0 0
-0.917316 1.640933 -3.587426 0.0978005927 0 -0.995206031 0 0
-0.91285 1.716466 -3.586987 0.0978005927 0 -0.995206031 0 0
-0.917316 1.716466 -3.587426 0.0978005927 0 -0.995206031 0 0
-0.91285 1.726837 -3.586987 0.0978005927 0 -0.995206031 0 0
-0.917316 1.726837 -3.587426 0.0978005927 0 -0.995206031 0 0
-0.91285 1.807437 -3.586987 0.0978005927 0 -0.995206031 0 0
-0.917316 1.807437 -3.587426 0.0978005927 0 -0.995206031 0 0
-0.91285 1.817808 -3.586987 0.0978005927 0 -0.995206031 0 0
-0.917316 1.817808 -3.587426 0.0978005927 0 -0.995206031 0 0
-0.91285 1.900199 -3.586987 0.0978005927 0 -0.995206031 0 0
-0.917316 1.900199 -3.587426 0.0978005927 0 -0.995206031 0 0
-0.876393 1.631714 -3.583868 0.0528999902 0 -0.998599815 0 0
-0.857939 1.640933 -3.583257 0.0328986403 0 -0.999458693 0 0
-0.857939 1.631714 -3.583257 0.0329985275 0 -0.9994554 0 0
-0.876393 1.640933 -3.583868 0.0528999902 0 -0.998599815 0 0
-0.70047 1.631714 -3.587977 -0.0978005927 0 -0.995206031 0 0
-0.68763 1.640933 -3.589241 -0.0978996353 0 -0.995196293 0 0
-0.68763 1.631714 -3.58924 -0.0978996353 0 -0.995196293 0 0
-0.70047 1.640933 -3.587977 -0.0978005927 0 -0.995206031 0 0
-0.876393 1.716466 -3.583868 0.0528999902 0 -0.998599815 0 0
-0.857939 1.726837 -3.583257 0.0328986403 0 -0.999458693 0 0
-0.857939 1.716466 -3.583257 0.0328986403 0 -0.999458693 0 0
-0.876393 1.726837 -3.583868 0.0528999902 0 -0.998599815 0 0
-0.827328 1.716466 -3.582258 0.0267011609 0 -0.99964346 0 0
-0.808352 1.726837 -3.581862 -0.00569990741 0 -0.999983755 0 0
-0.808352 1.716466 -3.581862 -0.00569990741 0 -0.999983755 0 0
-0.827328 1.726837 -3.582258 0.0267011609 0 -0.99964346 0 0
-0.876393 1.807437 -3.583868 0.0528999902 0 -0.998599815 0 0
-0.857939 1.817808 -3.583257 0.0328986403 0 -0.999458693 0 0
-0.857939 1.807437 -3.583257 0.0328986403 0 -0.999458693 0 0
-0.876393 1.817808 -3.583868 0.0528999902 0 -0.998599815 0 0
-0.846303 1.716466 -3.582875 0.0326988631 0 -0.999465249 0 0
-0.846303 1.726837 -3.582875 0.0326988631 0 -0.999465249 0 0
-0.846303 1.640933 -3.582875 0.0326988631 0 -0.999465249 0 0
-0.846303 1.631714 -3.582875 0.0326988631 0 -0.999465249 0 0
-0.846303 1.807437 -3.582875 0.0326988631 0 -0.999465249 0 0
-0.846303 1.817808 -3.582875 0.0326988631 0 -0.999465249 0 0
-0.846303 1.900199 -3.582875 0.0326988631 0 -0.999465249 0 0
-0.857939 1.900199 -3.583257 0.0328986403 0 -0.999458693 0 0
-0.808352 1.631714 -3.581862 -0.00569990741 0 -0.999983755 0 0
-0.789377 1.640933 -3.582474 -0.0324990819 0 -0.999471765 0 0
-0.789377 1.631714 -3.582474 -0.0323991899 0 -0.999475008 0 0
-0.808352 1.640933 -3.581862 -0.00569990741 0 -0.999983755 0 0
-0.758286 1.716466 -3.583493 -0.0362016123 0 -0.999344507 0 0
-0.73886 1.726837 -3.584263 -0.0672026502 0 -0.997739347 0 0
-0.73886 1.716466 -3.584263 -0.0672026502 0 -0.997739347 0 0
-0.758286 1.726837 -3.583493 -0.0362016123 0 -0.999344507 0 0
-0.789377 1.726837 -3.582474 -0.0324990819 0 -0.999471765 0 0
-0.789377 1.716466 -3.582474 -0.0324990819 0 -0.999471765 0 0
-0.777741 1.716466 -3.582854 -0.0326988631 0 -0.999465249 0 0
-0.777741 1.726837 -3.582854 -0.0326988631 0 -0.999465249 0 0
-0.808352 1.807437 -3.581862 -0.00569990741 0 -0.999983755 0 0
-0.789377 1.817808 -3.582474 -0.0324990819 0 -0.999471765 0 0
-0.789377 1.807437 -3.582474 -0.0324990819 0 -0.999471765 0 0
-0.808352 1.817808 -3.581862 -0.00569990741 0 -0.999983755 0 0
-0.70047 1.942601 -3.587977 -0.0978005927 0 -0.995206031 0 0
-0.68763 1.952052 -3.58924 -0.0978996353 0 -0.995196293 0 0
-0.68763 1.942601 -3.58924 -0.0978996353 0 -0.995196293 0 0
-0.70047 1.952052 -3.587977 -0.0978996353 0 -0.995196293 0 0
-0.777741 1.640933 -3.582854 -0.0326988631 0 -0.999465249 0 0
-0.777741 1.631714 -3.582854 -0.0326988631 0 -0.999465249 0 0
-0.777741 1.807437 -3.582854 -0.0326988631 0 -0.999465249 0 0
-0.777741 1.817808 -3.582854 -0.0326988631 0 -0.999465249 0 0
-0.777741 1.900199 -3.582854 -0.0326988631 0 -0.999465249 0 0
-0.789377 1.900199 -3.582474 -0.0324990819 0 -0.999471765 0 0
-0.73886 1.631714 -3.584263 -0.0672026502 0 -0.997739347 0 0
-0.719686 1.640933 -3.586089 -0.0968003712 0 -0.995303817 0 0
-0.719686 1.631714 -3.586089 -0.0963050186 0 -0.995351869 0 0
-0.73886 1.640933 -3.584263 -0.0672026502 0 -0.997739347 0 0
-0.951048 1.817808 -3.590744 0.0979986751 0 -0.995186545 0 0
-0.943951 1.900199 -3.590045 0.0979986751 0 -0.995186545 0 0
-0.943951 1.817808 -3.590045 0.0979986751 0 -0.995186545 0 0
-0.951048 1.900199 -3.590744 0.0979986751 0 -0.995186545 0 0
-0.719686 1.726837 -3.586089 -0.0968003712 0 -0.995303817 0 0
-0.719686 1.716466 -3.586089 -0.0968003712 0 -0.995303817 0 0
-0.951048 1.807437 -3.590744 0.0979986751 0 -0.995186545 0 0
-0.943951 1.807437 -3.590045 0.0979986751 0 -0.995186545 0 0
-0.73886 1.807437 -3.584263 -0.0672026502 0 -0.997739347 0 0
-0.719686 1.817808 -3.586089 -0.0968003712 0 -0.995303817 0 0
-0.719686 1.807437 -3.586089 -0.0968003712 0 -0.995303817 0 0
-0.73886 1.817808 -3.584263 -0.0672026502 0 -0.997739347 0 0
-0.951048 1.726837 -3.590744 0.0979986751 0 -0.995186545 0 0
-0.943951 1.726837 -3.590045 0.0979986751 0 -0.995186545 0 0
-0.681488 1.640933 -3.589845 -0.0978996353 0 -0.995196293 0 0
-0.681488 1.631714 -3.589845 -0.0978996353 0 -0.995196293 0 0
-0.681488 1.716466 -3.589845 -0.0978996353 0 -0.995196293 0 0
-0.68763 1.716466 -3.58924 -0.0978996353 0 -0.995196293 0 0
-0.681488 1.726837 -3.589845 -0.0979986751 0 -0.995186545 0 0
-0.68763 1.726837 -3.58924 -0.0978996353 0 -0.995196293 0 0
-0.681488 1.807437 -3.589845 -0.0979986751 0 -0.995186545 0 0
-0.68763 1.807437 -3.58924 -0.0978996353 0 -0.995196293 0 0
-0.681488 1.817808 -3.589845 -0.0979986751 0 -0.995186545 0 0
-0.68763 1.817808 -3.58924 -0.0978996353 0 -0.995196293 0 0
-0.681488 1.900199 -3.589845 -0.0979986751 0 -0.995186545 0 0
-0.68763 1.900199 -3.58924 -0.0978996353 0 -0.995196293 0 0
-0.930634 1.942601 -3.588735 0.0978996353 0 -0.995196293 0 0
-0.930634 1.952052 -3.588735 0.0978996353 0 -0.995196293 0 0
-0.930634 1.631714 -3.588735 0.0978996353 0 -0.995196293 0 0
-0.930634 1.640933 -3.588735 0.0978996353 0 -0.995196293 0 0
-0.930634 1.716466 -3.588735 0.0978996353 0 -0.995196293 0 0
-0.930634 1.726837 -3.588735 0.0978996353 0 -0.995196293 0 0
-0.930634 1.807437 -3.588735 0.0978996353 0 -0.995196293 0 0
-0.930634 1.817808 -3.588735 0.0978996353 0 -0.995196293 0 0
-0.930634 1.900199 -3.588735 0.0978996353 0 -0.995196293 0 0
-0.71331 1.952052 -3.586715 -0.0978005927 0 -0.995206031 0 0
-0.71331 1.942601 -3.586715 -0.0978005927 0 -0.995206031 0 0
-0.71331 1.640933 -3.586715 -0.0978005927 0 -0.995206031 0 0
-0.71331 1.631714 -3.586715 -0.0978005927 0 -0.995206031 0 0
-0.71331 1.716466 -3.586715 -0.0978005927 0 -0.995206031 0 0
-0.71331 1.726837 -3.586715 -0.0978005927 0 -0.995206031 0 0
-0.71331 1.807437 -3.586715 -0.0978005927 0 -0.995206031 0 0
-0.71331 1.817808 -3.586715 -0.0978005927 0 -0.995206031 0 0
-0.71331 1.900199 -3.586715 -0.0978005927 0 -0.995206031 0 0
-0.719686 1.900199 -3.586089 -0.0968003712 0 -0.995303817 0 0
-0.894675 1.952052 -3.585201 0.085196933 0 -0.996364132 0 0
-0.894675 1.942601 -3.585201 0.0852054222 0 -0.996363406 0 0
-0.894675 1.640933 -3.585201 0.0852962023 0 -0.996355638 0 0
-0.894675 1.631714 -3.585201 0.0852054222 0 -0.996363406 0 0
-0.951048 1.716466 -3.590744 0.0979986751 0 -0.995186545 0 0
-0.943951 1.716466 -3.590045 0.0979986751 0 -0.995186545 0 0
-0.758286 1.631714 -3.583493 -0.0362016123 0 -0.999344507 0 0
-0.758286 1.640933 -3.583493 -0.0362016123 0 -0.999344507 0 0
-0.894675 1.726837 -3.585201 0.085196933 0 -0.996364132 0 0
-0.894675 1.716466 -3.585201 0.085196933 0 -0.996364132 0 0
-0.827328 1.631714 -3.582258 0.0267011609 0 -0.99964346 0 0
-0.827328 1.640933 -3.582258 0.0267011609 0 -0.99964346 0 0
-0.894675 1.817808 -3.585201 0.085196933 0 -0.996364132 0 0
-0.894675 1.807437 -3.585201 0.085196933 0 -0.996364132 0 0
-0.827328 1.942601 -3.582258 0.0267011609 0 -0.99964346 0 0
-0.827328 1.952052 -3.582258 0.0267011609 0 -0.99964346 0 0
-0.827328 1.817808 -3.582258 0.0267011609 0 -0.99964346 0 0
-0.827328 1.807437 -3.582258 0.0267011609 0 -0.99964346 0 0
-0.758286 1.942601 -3.583493 -0.0362016123 0 -0.999344507 0 0
-0.758286 1.952052 -3.583493 -0.0362016123 0 -0.999344507 0 0
-0.951048 1.640933 -3.590744 0.0979986751 0 -0.995186545 0 0
-0.943951 1.640933 -3.590045 0.0979986751 0 -0.995186545 0 0
-0.758286 1.817808 -3.583493 -0.0362016123 0 -0.999344507 0 0
-0.758286 1.807437 -3.583493 -0.0362016123 0 -0.999344507 0 0
-0.951048 1.631714 -3.590744 0.0979986751 0 -0.995186545 0 0
-0.943951 1.631714 -3.590045 0.0979986751 0 -0.995186545 0 0
-0.951048 1.942601 -3.590744 0 0 1 0 0
-0.951574 1.942601 -3.5854 0 0 1 0 0
-0.951048 1.942601 -3.590744 0 0 1 0 0
-0.951574 1.942601 -3.5854 0 0 1 0 0
-0.70047 1.716466 -3.587977 -0.0978005927 0 -0.995206031 0 0
-0.70047 1.726837 -3.587977 -0.0978005927 0 -0.995206031 0 0
-0.70047 1.807437 -3.587977 -0.0978005927 0 -0.995206031 0 0
-0.70047 1.817808 -3.587977 -0.0978005927 0 -0.995206031 0 0
-0.70047 1.900199 -3.587977 -0.0978005927 0 -0.995206031 0 0
-0.681488 1.90965 -3.589845 -0.0979986751 0 -0.995186545 0 0
-0.68763 1.90965 -3.58924 -0.0978996353 0 -0.995196293 0 0
-0.681488 1.942601 -3.589845 -0.0979986751 0 -0.995186545 0 0
-0.91285 1.90965 -3.586987 0.0978005927 0 -0.995206031 0 0
-0.917316 1.90965 -3.587426 0.0978005927 0 -0.995206031 0 0
-0.876393 1.900199 -3.583868 0.0528999902 0 -0.998599815 0 0
-0.857939 1.90965 -3.583257 0.0328986403 0 -0.999458693 0 0
-0.876393 1.90965 -3.583868 0.0528999902 0 -0.998599815 0 0
-0.846303 1.90965 -3.582875 0.0326988631 0 -0.999465249 0 0
-0.808352 1.900199 -3.581862 -0.00569990741 0 -0.999983755 0 0
-0.789377 1.90965 -3.582474 -0.0323991899 0 -0.999475008 0 0
-0.808352 1.90965 -3.581862 -0.00569990741 0 -0.999983755 0 0
-0.777741 1.90965 -3.582854 -0.0326988631 0 -0.999465249 0 0
-0.73886 1.900199 -3.584263 -0.0672026502 0 -0.997739347 0 0
-0.719686 1.90965 -3.586089 -0.0963050186 0 -0.995351869 0 0
-0.73886 1.90965 -3.584263 -0.0672026502 0 -0.997739347 0 0
-0.70047 1.90965 -3.587977 -0.0978005927 0 -0.995206031 0 0
-0.930634 1.90965 -3.588735 0.0978996353 0 -0.995196293 0 0
-0.71331 1.90965 -3.586715 -0.0978005927 0 -0.995206031 0 0
-0.894675 1.90965 -3.585201 0.0852054222 0 -0.996363406 0 0
-0.894675 1.900199 -3.585201 0.085196933 0 -0.996364132 0 0
-0.827328 1.900199 -3.582258 0.0267011609 0 -0.99964346 0 0
-0.827328 1.90965 -3.582258 0.0267011609 0 -0.99964346 0 0
-0.758286 1.900199 -3.583493 -0.0362016123 0 -0.999344507 0 0
-0.758286 1.90965 -3.583493 -0.0362016123 0 -0.999344507 0 0
-0.943951 1.90965 -3.590045 0.0979986751 0 -0.995186545 0 0
-0.951048 1.90965 -3.590744 0.0979986751 0 -0.995186545 0 0
-0.943951 1.942601 -3.590045 0.0979986751 0 -0.995186545 0 0
-0.951048 1.942601 -3.590744 0.0979986751 0 -0.995186545 0 0
-0.917316 1.589079 -3.587426 0.0978005927 0 -0.995206031 0 0
-0.91285 1.598298 -3.586987 0.0978005927 0 -0.995206031 0 0
-0.91285 1.58908 -3.586987 0.0978005927 0 -0.995206031 0 0
-0.917316 1.598298 -3.587426 0.0978005927 0 -0.995206031 0 0
-0.876393 1.589079 -3.583868 0.0528999902 0 -0.998599815 0 0
-0.857939 1.598298 -3.583257 0.0329985275 0 -0.9994554 0 0
-0.857939 1.589079 -3.583257 0.0329985275 0 -0.9994554 0 0
-0.876393 1.598298 -3.583868 0.0528999902 0 -0.998599815 0 0
-0.70047 1.589079 -3.587977 -0.0978005927 0 -0.995206031 0 0
-0.68763 1.598298 -3.589241 -0.0978996353 0 -0.995196293 0 0
-0.68763 1.58908 -3.58924 -0.0978996353 0 -0.995196293 0 0
-0.70047 1.598298 -3.587977 -0.0978005927 0 -0.995206031 0 0
-0.846303 1.598298 -3.582875 0.0326988631 0 -0.999465249 0 0
-0.846303 1.589079 -3.582875 0.0326988631 0 -0.999465249 0 0
-0.808352 1.589079 -3.581862 -0.00569990741 0 -0.999983755 0 0
-0.789377 1.598298 -3.582474 -0.0323991899 0 -0.999475008 0 0
-0.789377 1.589079 -3.582474 -0.0323991899 0 -0.999475008 0 0
-0.808352 1.598298 -3.581862 -0.00569990741 0 -0.999983755 0 0
-0.777741 1.598298 -3.582854 -0.0326988631 0 -0.999465249 0 0
-0.777741 1.589079 -3.582854 -0.0326988631 0 -0.999465249 0 0
-0.73886 1.589079 -3.584263 -0.0672026502 0 -0.997739347 0 0
-0.719686 1.598298 -3.586089 -0.0963050186 0 -0.995351869 0 0
-0.719686 1.58908 -3.586089 -0.0962954333 0 -0.995352797 0 0
-0.73886 1.598298 -3.584263 -0.0672026502 0 -0.997739347 0 0
-0.681488 1.598298 -3.589845 0 0 1 0 0
-0.680962 1.598298 -3.5845 0 0 1 0 0
-0.681488 1.598298 -3.589845 0 0 1 0 0
-0.680962 1.598298 -3.5845 0 0 1 0 0
-0.681488 1.598298 -3.589845 -0.0978996353 0 -0.995196293 0 0
-0.930634 1.589079 -3.588735 0.0978996353 0 -0.995196293 0 0
-0.930634 1.598298 -3.588735 0.0978996353 0 -0.995196293 0 0
-0.71331 1.598298 -3.586715 -0.0978005927 0 -0.995206031 0 0
-0.71331 1.589079 -3.586715 -0.0978005927 0 -0.995206031 0 0
-0.894675 1.598298 -3.585201 0.0852054222 0 -0.996363406 0 0
-0.894675 1.589079 -3.585201 0.0852962023 0 -0.996355638 0 0
-0.758286 1.58908 -3.583493 -0.0362016123 0 -0.999344507 0 0
-0.758286 1.598298 -3.583493 -0.0362016123 0 -0.999344507 0 0
-0.827328 1.589079 -3.582258 0.0267011609 0 -0.99964346 0 0
-0.827328 1.598298 -3.582258 0.0267011609 0 -0.99964346 0 0
-0.943951 1.589079 -3.590045 0 -0.999764544 -0.0216992305 0 0
-0.944477 1.589079 -3.584701 -0.170406396 -0.984636959 -0.0381014302 0 0
-0.943951 1.589079 -3.590045 -0.165105354 -0.985531956 -0.0383012419 0 0
-0.944477 1.589079 -3.584701 0 -0.999749064 -0.0224010994 0 0
-0.951048 1.598298 -3.590744 0.0979986751 0 -0.995186545 0 0
-0.943951 1.598298 -3.590045 0.0979986751 0 -0.995186545 0 0
-0.943951 1.952052 -3.590045 0.0979986751 0 -0.995186545 0 0
-0.943951 1.589079 -3.590045 0.0979986751 0 -0.995186545 0 0
-0.917842 1.952052 -3.582081 -0.0978005927 0 0.995206031 0 0
-0.913376 1.942601 -3.581642 -0.0978005927 0 0.995206031 0 0
-0.913376 1.952052 -3.581642 -0.0978005927 0 0.995206031 0 0
-0.917842 1.942601 -3.582081 -0.0978005927 0 0.995206031 0 0
-0.876677 1.952052 -3.578505 -0.0528999902 0 0.998599815 0 0
-0.858116 1.942601 -3.577889 -0.0329985275 0 0.9994554 0 0
-0.858116 1.952052 -3.577889 -0.0329985275 0 0.9994554 0 0
-0.876677 1.942601 -3.578505 -0.0528999902 0 0.998599815 0 0
-0.846478 1.942601 -3.577507 -0.0326988631 0 0.999465249 0 0
-0.846478 1.952052 -3.577507 -0.0326988631 0 0.999465249 0 0
-0.808322 1.952052 -3.576492 0.00569990741 0 0.999983755 0 0
-0.789203 1.942601 -3.577107 0.0322992969 0 0.999478242 0 0
-0.789203 1.952052 -3.577107 0.0322992969 0 0.999478242 0 0
-0.808322 1.942601 -3.576492 0.00569990741 0 0.999983755 0 0
-0.777566 1.942601 -3.577486 0.0326988631 0 0.999465249 0 0
-0.777566 1.952052 -3.577486 0.0326988631 0 0.999465249 0 0
-0.738499 1.952052 -3.578905 0.0672026502 0 0.997739347 0 0
-0.719169 1.942601 -3.580744 0.0962059395 0 0.995361451 0 0
-0.719169 1.952052 -3.580744 0.0961963638 0 0.995362376 0 0
-0.738499 1.942601 -3.578905 0.0672026502 0 0.997739347 0 0
-0.917842 1.640933 -3.582081 -0.0978005927 0 0.995206031 0 0
-0.913376 1.631714 -3.581642 -0.0978005927 0 0.995206031 0 0
-0.913376 1.640933 -3.581642 -0.0978005927 0 0.995206031 0 0
-0.917842 1.631714 -3.582081 -0.0978005927 0 0.995206031 0 0
-0.917842 1.716466 -3.582081 -0.0978005927 0 0.995206031 0 0
-0.913376 1.716466 -3.581642 -0.0978005927 0 0.995206031 0 0
-0.917842 1.726837 -3.582081 -0.0978005927 0 0.995206031 0 0
-0.913376 1.726837 -3.581642 -0.0978005927 0 0.995206031 0 0
-0.917842 1.807437 -3.582081 -0.0978005927 0 0.995206031 0 0
-0.913376 1.807437 -3.581642 -0.0978005927 0 0.995206031 0 0
-0.917842 1.817808 -3.582081 -0.0978005927 0 0.995206031 0 0
-0.913376 1.817808 -3.581642 -0.0978005927 0 0.995206031 0 0
-0.917842 1.900199 -3.582081 -0.0978005927 0 0.995206031 0 0
-0.913376 1.900199 -3.581642 -0.0978005927 0 0.995206031 0 0
-0.876677 1.640933 -3.578505 -0.0528999902 0 0.998599815 0 0
-0.858116 1.631714 -3.577889 -0.0329985275 0 0.9994554 0 0
-0.858115 1.640933 -3.577889 -0.0328986403 0 0.999458693 0 0
-0.876677 1.631714 -3.578505 -0.0528999902 0 0.998599815 0 0
-0.699945 1.640933 -3.582633 0.0978005927 0 0.995206031 0 0
-0.687104 1.631714 -3.583896 0.0978996353 0 0.995196293 0 0
-0.687104 1.640933 -3.583896 0.0978996353 0 0.995196293 0 0
-0.699945 1.631714 -3.582633 0.0978005927 0 0.995206031 0 0
-0.876677 1.726837 -3.578505 -0.0528999902 0 0.998599815 0 0
-0.858115 1.716466 -3.577889 -0.0328986403 0 0.999458693 0 0
-0.858115 1.726837 -3.577889 -0.0328986403 0 0.999458693 0 0
-0.876677 1.716466 -3.578505 -0.0528999902 0 0.998599815 0 0
-0.827471 1.726837 -3.576889 -0.0266012274 0 0.999646125 0 0
-0.808322 1.716466 -3.576492 0.00569990741 0 0.999983755 0 0
-0.808322 1.726837 -3.576492 0.00569990741 0 0.999983755 0 0
-0.827471 1.716466 -3.576889 -0.0266012274 0 0.999646125 0 0
-0.876677 1.817808 -3.578505 -0.0528999902 0 0.998599815 0 0
-0.858115 1.807437 -3.577889 -0.0328986403 0 0.999458693 0 0
-0.858115 1.817808 -3.577889 -0.0328986403 0 0.999458693 0 0
-0.876677 1.807437 -3.578505 -0.0528999902 0 0.998599815 0 0
-0.846479 1.726837 -3.577507 -0.0326988631 0 0.999465249 0 0
-0.846479 1.716466 -3.577507 -0.0326988631 0 0.999465249 0 0
-0.846478 1.631714 -3.577507 -0.0326988631 0 0.999465249 0 0
-0.846479 1.640933 -3.577507 -0.0326988631 0 0.999465249 0 0
-0.846479 1.807437 -3.577507 -0.0326988631 0 0.999465249 0 0
-0.846479 1.817808 -3.577507 -0.0326988631 0 0.999465249 0 0
-0.858115 1.900199 -3.577889 -0.0328986403 0 0.999458693 0 0
-0.846479 1.900199 -3.577507 -0.0326988631 0 0.999465249 0 0
-0.808322 1.640933 -3.576492 0.00569990741 0 0.999983755 0 0
-0.789203 1.631714 -3.577107 0.0322992969 0 0.999478242 0 0
-0.789203 1.640933 -3.577107 0.0323991899 0 0.999475008 0 0
-0.808322 1.631714 -3.576492 0.00569990741 0 0.999983755 0 0
-0.758091 1.726837 -3.578127 0.0363014851 0 0.999340884 0 0
-0.738499 1.716466 -3.578905 0.0672026502 0 0.997739347 0 0
-0.738499 1.726837 -3.578905 0.0672026502 0 0.997739347 0 0
-0.758091 1.716466 -3.578127 0.0363014851 0 0.999340884 0 0
-0.789203 1.716466 -3.577107 0.0323991899 0 0.999475008 0 0
-0.789203 1.726837 -3.577107 0.0323991899 0 0.999475008 0 0
-0.777566 1.726837 -3.577486 0.0326988631 0 0.999465249 0 0
-0.777566 1.716466 -3.577486 0.0326988631 0 0.999465249 0 0
-0.808322 1.817808 -3.576492 0.00569990741 0 0.999983755 0 0
-0.789203 1.807437 -3.577107 0.0323991899 0 0.999475008 0 0
-0.789203 1.817808 -3.577107 0.0323991899 0 0.999475008 0 0
-0.808322 1.807437 -3.576492 0.00569990741 0 0.999983755 0 0
-0.699945 1.952052 -3.582633 0.0978996353 0 0.995196293 0 0
-0.687104 1.942601 -3.583896 0.0978996353 0 0.995196293 0 0
-0.687104 1.952052 -3.583896 0.0978996353 0 0.995196293 0 0
-0.699945 1.942601 -3.582633 0.0978005927 0 0.995206031 0 0
-0.777566 1.631714 -3.577486 0.0326988631 0 0.999465249 0 0
-0.777566 1.640933 -3.577486 0.0326988631 0 0.999465249 0 0
-0.777566 1.807437 -3.577486 0.0326988631 0 0.999465249 0 0
-0.777566 1.817808 -3.577486 0.0326988631 0 0.999465249 0 0
-0.789203 1.900199 -3.577107 0.0323991899 0 0.999475008 0 0
-0.777566 1.900199 -3.577486 0.0326988631 0 0.999465249 0 0
-0.738499 1.640933 -3.578905 0.0672026502 0 0.997739347 0 0
-0.719169 1.631714 -3.580744 0.0961963638 0 0.995362376 0 0
-0.719166 1.640933 -3.580744 0.0967013064 0 0.995313447 0 0
-0.738499 1.631714 -3.578905 0.0672026502 0 0.997739347 0 0
-0.951574 1.900199 -3.5854 -0.0979986751 0 0.995186545 0 0
-0.944477 1.817808 -3.584701 -0.0978996353 0 0.995196293 0 0
-0.944477 1.900199 -3.584701 -0.0978996353 0 0.995196293 0 0
-0.951574 1.817808 -3.5854 -0.0979986751 0 0.995186545 0 0
-0.719166 1.716466 -3.580744 0.0967013064 0 0.995313447 0 0
-0.719166 1.726837 -3.580744 0.0967013064 0 0.995313447 0 0
-0.944477 1.807437 -3.584701 -0.0978996353 0 0.995196293 0 0
-0.951574 1.807437 -3.5854 -0.0979986751 0 0.995186545 0 0
-0.738499 1.817808 -3.578905 0.0672026502 0 0.997739347 0 0
-0.719166 1.807437 -3.580744 0.0967013064 0 0.995313447 0 0
-0.719166 1.817808 -3.580744 0.0967013064 0 0.995313447 0 0
-0.738499 1.807437 -3.578905 0.0672026502 0 0.997739347 0 0
-0.944477 1.726837 -3.584701 -0.0978996353 0 0.995196293 0 0
-0.951574 1.726837 -3.5854 -0.0979986751 0 0.995186545 0 0
-0.680962 1.631714 -3.5845 0.0978996353 0 0.995196293 0 0
-0.680962 1.640933 -3.5845 0.0978996353 0 0.995196293 0 0
-0.687104 1.716466 -3.583896 0.0978996353 0 0.995196293 0 0
-0.680962 1.716466 -3.5845 0.0978996353 0 0.995196293 0 0
-0.687104 1.726837 -3.583896 0.0978996353 0 0.995196293 0 0
-0.680962 1.726837 -3.5845 0.0978996353 0 0.995196293 0 0
-0.687104 1.807437 -3.583896 0.0978996353 0 0.995196293 0 0
-0.680962 1.807437 -3.5845 0.0978996353 0 0.995196293 0 0
-0.687104 1.817808 -3.583896 0.0978996353 0 0.995196293 0 0
-0.680962 1.817808 -3.5845 0.0978996353 0 0.995196293 0 0
-0.687104 1.900199 -3.583896 0.0978996353 0 0.995196293 0 0
-0.680962 1.900199 -3.5845 0.0978996353 0 0.995196293 0 0
-0.931159 1.952052 -3.58339 -0.0978996353 0 0.995196293 0 0
-0.931159 1.942601 -3.58339 -0.0978996353 0 0.995196293 0 0
-0.931159 1.640933 -3.58339 -0.0978996353 0 0.995196293 0 0
-0.931159 1.631714 -3.58339 -0.0978996353 0 0.995196293 0 0
-0.931159 1.716466 -3.58339 -0.0978996353 0 0.995196293 0 0
-0.931159 1.726837 -3.58339 -0.0978996353 0 0.995196293 0 0
-0.931159 1.807437 -3.58339 -0.0978996353 0 0.995196293 0 0
-0.931159 1.817808 -3.58339 -0.0978996353 0 0.995196293 0 0
-0.931159 1.900199 -3.58339 -0.0978996353 0 0.995196293 0 0
-0.712785 1.942601 -3.581371 0.0978005927 0 0.995206031 0 0
-0.712785 1.952052 -3.581371 0.0978005927 0 0.995206031 0 0
-0.712785 1.631714 -3.581371 0.0978005927 0 0.995206031 0 0
-0.712785 1.640933 -3.581371 0.0978005927 0 0.995206031 0 0
-0.712785 1.716466 -3.581371 0.0978005927 0 0.995206031 0 0
-0.712785 1.726837 -3.581371 0.0978005927 0 0.995206031 0 0
-0.712785 1.807437 -3.581371 0.0978005927 0 0.995206031 0 0
-0.712785 1.817808 -3.581371 0.0978005927 0 0.995206031 0 0
-0.719166 1.900199 -3.580744 0.0967013064 0 0.995313447 0 0
-0.712785 1.900199 -3.581371 0.0978005927 0 0.995206031 0 0
-0.895133 1.942601 -3.57985 -0.0852054222 0 0.996363406 0 0
-0.895133 1.952052 -3.57985 -0.085196933 0 0.996364132 0 0
-0.895133 1.631714 -3.57985 -0.0852054222 0 0.996363406 0 0
-0.895133 1.640933 -3.57985 -0.085196933 0 0.996364132 0 0
-0.944477 1.716466 -3.584701 -0.0979986751 0 0.995186545 0 0
-0.951574 1.716466 -3.5854 -0.0979986751 0 0.995186545 0 0
-0.758091 1.640933 -3.578127 0.0363014851 0 0.999340884 0 0
-0.758091 1.631714 -3.578127 0.0363014851 0 0.999340884 0 0
-0.895133 1.716466 -3.57985 -0.085196933 0 0.996364132 0 0
-0.895133 1.726837 -3.57985 -0.085196933 0 0.996364132 0 0
-0.827471 1.640933 -3.576889 -0.0266012274 0 0.999646125 0 0
-0.827471 1.631714 -3.576889 -0.0266012274 0 0.999646125 0 0
-0.895133 1.807437 -3.57985 -0.085196933 0 0.996364132 0 0
-0.895133 1.817808 -3.57985 -0.085196933 0 0.996364132 0 0
-0.827471 1.952052 -3.576889 -0.0266012274 0 0.999646125 0 0
-0.827471 1.942601 -3.576889 -0.0266012274 0 0.999646125 0 0
-0.827471 1.807437 -3.576889 -0.0266012274 0 0.999646125 0 0
-0.827471 1.817808 -3.576889 -0.0266012274 0 0.999646125 0 0
-0.758091 1.952052 -3.578127 0.0363014851 0 0.999340884 0 0
-0.758091 1.942601 -3.578127 0.0363014851 0 0.999340884 0 0
-0.944477 1.640933 -3.584701 -0.0979986751 0 0.995186545 0 0
-0.951574 1.640933 -3.5854 -0.0979986751 0 0.995186545 0 0
-0.758091 1.807437 -3.578127 0.0363014851 0 0.999340884 0 0
-0.758091 1.817808 -3.578127 0.0363014851 0 0.999340884 0 0
-0.944477 1.631714 -3.584701 -0.0979986751 0 0.995186545 0 0
-0.951574 1.631714 -3.5854 -0.0979986751 0 0.995186545 0 0
-0.684033 1.950786 -3.584198 0.0978996353 0 0.995196293 0 0
-0.687104 1.952052 -3.583896 0.0978996353 0 0.995196293 0 0
-0.681785 1.947327 -3.584419 0.0978996353 0 0.995196293 0 0
-0.680962 1.942601 -3.5845 0.0978996353 0 0.995196293 0 0
-0.680962 1.942601 -3.5845 0.0978996353 0 0.995196293 0 0
-0.699945 1.716466 -3.582633 0.0978005927 0 0.995206031 0 0
-0.699945 1.726837 -3.582633 0.0978005927 0 0.995206031 0 0
-0.699945 1.807437 -3.582633 0.0978005927 0 0.995206031 0 0
-0.699945 1.817808 -3.582633 0.0978005927 0 0.995206031 0 0
-0.699945 1.900199 -3.582633 0.0978005927 0 0.995206031 0 0
-0.687104 1.90965 -3.583896 0.0978996353 0 0.995196293 0 0
-0.680962 1.90965 -3.5845 0.0978996353 0 0.995196293 0 0
-0.917842 1.90965 -3.582081 -0.0978005927 0 0.995206031 0 0
-0.913376 1.90965 -3.581642 -0.0978005927 0 0.995206031 0 0
-0.876677 1.90965 -3.578505 -0.0528999902 0 0.998599815 0 0
-0.858116 1.90965 -3.577889 -0.0329985275 0 0.9994554 0 0
-0.876677 1.900199 -3.578505 -0.0528999902 0 0.998599815 0 0
-0.846478 1.90965 -3.577507 -0.0326988631 0 0.999465249 0 0
-0.808322 1.90965 -3.576492 0.00569990741 0 0.999983755 0 0
-0.789203 1.90965 -3.577107 0.0322992969 0 0.999478242 0 0
-0.808322 1.900199 -3.576492 0.00569990741 0 0.999983755 0 0
-0.777566 1.90965 -3.577486 0.0326988631 0 0.999465249 0 0
-0.738499 1.90965 -3.578905 0.0672026502 0 0.997739347 0 0
-0.719169 1.90965 -3.580744 0.0962059395 0 0.995361451 0 0
-0.738499 1.900199 -3.578905 0.0672026502 0 0.997739347 0 0
-0.699945 1.90965 -3.582633 0.0978005927 0 0.995206031 0 0
-0.931159 1.90965 -3.58339 -0.0978996353 0 0.995196293 0 0
-0.712785 1.90965 -3.581371 0.0978005927 0 0.995206031 0 0
-0.895133 1.900199 -3.57985 -0.085196933 0 0.996364132 0 0
-0.895133 1.90965 -3.57985 -0.0852054222 0 0.996363406 0 0
-0.827471 1.90965 -3.576889 -0.0266012274 0 0.999646125 0 0
-0.827471 1.900199 -3.576889 -0.0266012274 0 0.999646125 0 0
-0.758091 1.90965 -3.578127 0.0363014851 0 0.999340884 0 0
-0.758091 1.900199 -3.578127 0.0363014851 0 0.999340884 0 0
-0.951574 1.90965 -3.5854 -0.0979986751 0 0.995186545 0 0
-0.944477 1.90965 -3.584701 -0.0978996353 0 0.995196293 0 0
-0.951574 1.942601 -3.5854 -0.0979986751 0 0.995186545 0 0
-0.944477 1.942601 -3.584701 -0.0978996353 0 0.995196293 0 0
-0.917842 1.598298 -3.582081 -0.0978005927 0 0.995206031 0 0
-0.913376 1.58908 -3.581642 -0.0977015471 0 0.995215759 0 0
-0.913376 1.598298 -3.581642 -0.0978005927 0 0.995206031 0 0
-0.917842 1.589079 -3.582081 -0.0978005927 0 0.995206031 0 0
-0.876677 1.598298 -3.578505 -0.0528999902 0 0.998599815 0 0
-0.858116 1.589079 -3.577889 -0.0329985275 0 0.9994554 0 0
-0.858116 1.598298 -3.577889 -0.0329985275 0 0.9994554 0 0
-0.876677 1.589079 -3.578505 -0.0528999902 0 0.998599815 0 0
-0.699945 1.598298 -3.582633 0.0978005927 0 0.995206031 0 0
-0.687104 1.58908 -3.583896 0.0978996353 0 0.995196293 0 0
-0.687104 1.598298 -3.583896 0.0978996353 0 0.995196293 0 0
-0.699945 1.589079 -3.582633 0.0978996353 0 0.995196293 0 0
-0.846478 1.589079 -3.577507 -0.0326988631 0 0.999465249 0 0
-0.846478 1.598298 -3.577507 -0.0326988631 0 0.999465249 0 0
-0.808322 1.598298 -3.576492 0.00569990741 0 0.999983755 0 0
-0.789203 1.589079 -3.577107 0.0323991899 0 0.999475008 0 0
-0.789203 1.598298 -3.577107 0.0322992969 0 0.999478242 0 0
-0.808322 1.589079 -3.576492 0.00569990741 0 0.999983755 0 0
-0.777566 1.589079 -3.577487 0.0326988631 0 0.999465249 0 0
-0.777566 1.598298 -3.577487 0.0326988631 0 0.999465249 0 0
-0.738499 1.598298 -3.578905 0.0672026502 0 0.997739347 0 0
-0.719169 1.58908 -3.580744 0.0961963638 0 0.995362376 0 0
-0.719169 1.598298 -3.580744 0.0962059395 0 0.995361451 0 0
-0.738499 1.589079 -3.578905 0.0672026502 0 0.997739347 0 0
-0.951574 1.942601 -3.5854 -0.0979986751 0 0.995186545 0 0
-0.948026 1.950786 -3.585051 -0.0979986751 0 0.995186545 0 0
-0.950623 1.947327 -3.585306 -0.0979986751 0 0.995186545 0 0
-0.944477 1.952052 -3.584701 -0.0979986751 0 0.995186545 0 0
-0.944477 1.952052 -3.584701 -0.0979986751 0 0.995186545 0 0
-0.680962 1.598298 -3.5845 0.0978996353 0 0.995196293 0 0
-0.931159 1.598298 -3.58339 -0.0978996353 0 0.995196293 0 0
-0.931159 1.589079 -3.58339 -0.0978996353 0 0.995196293 0 0
-0.712785 1.589079 -3.581371 0.0978005927 0 0.995206031 0 0
-0.712785 1.598298 -3.581371 0.0978005927 0 0.995206031 0 0
-0.895133 1.589079 -3.57985 -0.085196933 0 0.996364132 0 0
-0.895133 1.598298 -3.57985 -0.0852054222 0 0.996363406 0 0
-0.758091 1.598298 -3.578127 0.0363014851 0 0.999340884 0 0
-0.758091 1.58908 -3.578127 0.0363014851 0 0.999340884 0 0
-0.827471 1.598298 -3.576889 -0.0266012274 0 0.999646125 0 0
-0.827471 1.589079 -3.576889 -0.0266012274 0 0.999646125 0 0
-0.680962 1.598298 -3.5845 0.0978996353 0 0.995196293 0 0
-0.681785 1.593689 -3.584419 0.0978996353 0 0.995196293 0 0
-0.684033 1.590315 -3.584198 0.0978996353 0 0.995196293 0 0
-0.687104 1.58908 -3.583896 0.0978996353 0 0.995196293 0 0
-0.944477 1.598298 -3.584701 -0.0979986751 0 0.995186545 0 0
-0.951574 1.598298 -3.5854 -0.0979986751 0 0.995186545 0 0
-0.944477 1.589079 -3.584701 -0.0979986751 0 0.995186545 0 0
-0.951048 1.598298 -3.590744 0.0979986751 0 -0.995186545 0 0
-0.9475 1.590315 -3.590395 0.0979986751 0 -0.995186545 0 0
-0.950097 1.593689 -3.590651 0.0979986751 0 -0.995186545 0 0
-0.943951 1.589079 -3.590045 0.0979986751 0 -0.995186545 0 0
-0.684559 1.590315 -3.589543 -0.0979986751 0 -0.995186545 0 0
-0.68763 1.58908 -3.58924 -0.0979986751 0 -0.995186545 0 0
-0.682311 1.593689 -3.589764 -0.0979986751 0 -0.995186545 0 0
-0.681488 1.598298 -3.589845 -0.0979986751 0 -0.995186545 0 0
-0.681488 1.942601 -3.589845 -0.0979986751 0 -0.995186545 0 0
-0.682311 1.947327 -3.589764 -0.0979986751 0 -0.995186545 0 0
-0.684559 1.950786 -3.589543 -0.0979986751 0 -0.995186545 0 0
-0.68763 1.952052 -3.58924 -0.0979986751 0 -0.995186545 0 0
-0.943951 1.952052 -3.590045 0.0979986751 0 -0.995186545 0 0
-0.9475 1.950786 -3.590395 0.0979986751 0 -0.995186545 0 0
-0.950097 1.947327 -3.590651 0.0979986751 0 -0.995186545 0 0
-0.951048 1.942601 -3.590744 0.0979986751 0 -0.995186545 0 0
-0.681488 1.942601 -3.589845 0 0 1 0 0
-0.680962 1.942601 -3.5845 0 0 1 0 0
-0.681488 1.942601 -3.589845 0 0 1 0 0
-0.680962 1.942601 -3.5845 0 0 1 0 0
-0.951048 1.817808 -3.590744 -0.995186545 0 -0.0979986751 0 0
-0.951574 1.900199 -3.5854 -0.995186545 0 -0.0979986751 0 0
-0.951048 1.900199 -3.590744 -0.995186545 0 -0.0979986751 0 0
-0.951574 1.817808 -3.5854 -0.995186545 0 -0.0979986751 0 0
-0.951048 1.807437 -3.590744 -0.995186545 0 -0.0979986751 0 0
-0.951574 1.807437 -3.5854 -0.995186545 0 -0.0979986751 0 0
-0.951048 1.726837 -3.590744 -0.995186545 0 -0.0979986751 0 0
-0.951574 1.726837 -3.5854 -0.995186545 0 -0.0979986751 0 0
-0.951048 1.716466 -3.590744 -0.995186545 0 -0.0979986751 0 0
-0.951574 1.716466 -3.5854 -0.995186545 0 -0.0979986751 0 0
-0.951048 1.640933 -3.590744 -0.995186545 0 -0.0979986751 0 0
-0.951574 1.640933 -3.5854 -0.995186545 0 -0.0979986751 0 0
-0.68763 1.58908 -3.58924 0.189194481 -0.979871418 0.063698142 0 0
-0.687104 1.58908 -3.583896 0 -0.996532642 0.0832027253 0 0
-0.68763 1.58908 -3.58924 0 -0.996738186 0.0807030918 0 0
-0.687104 1.58908 -3.583896 0.195295357 -0.978876727 0.0604985617 0 0
-0.894675 1.589079 -3.585201 0 -1 0 0 0
-0.913376 1.58908 -3.581642 0 -1 0 0 0
-0.91285 1.58908 -3.586987 0 -1 0 0 0
-0.895133 1.589079 -3.57985 0 -1 0 0 0
-0.846303 1.589079 -3.582875 0 -1 0 0 0
-0.858116 1.589079 -3.577889 0 -1 0 0 0
-0.857939 1.589079 -3.583257 0 -1 0 0 0
-0.846478 1.589079 -3.577507 0 -1 0 0 0
-0.827328 1.589079 -3.582258 0 -1 0 0 0
-0.827471 1.589079 -3.576889 0 -1 0 0 0
-0.777741 1.589079 -3.582854 0 -1 0 0 0
-0.789203 1.589079 -3.577107 0 -1 0 0 0
-0.789377 1.589079 -3.582474 0 -1 0 0 0
-0.777566 1.589079 -3.577487 0 -1 0 0 0
-0.758286 1.58908 -3.583493 0 -1 0 0 0
-0.758091 1.58908 -3.578127 0 -1 0 0 0
-0.943951 1.952052 -3.590045 -0.169002355 0.983713708 -0.0612008528 0 0
-0.944477 1.952052 -3.584701 0 0.998973483 -0.0452987976 0 0
-0.943951 1.952052 -3.590045 0 0.99903147 -0.0440013861 0 0
-0.944477 1.952052 -3.584701 -0.174404596 0.982825903 -0.0603015893 0 0
-0.681488 1.716466 -3.589845 0.995196293 0 -0.0978996353 0 0
-0.680962 1.640933 -3.5845 0.995196293 0 -0.0978996353 0 0
-0.681488 1.640933 -3.589845 0.995196293 0 -0.0978996353 0 0
-0.680962 1.716466 -3.5845 0.995196293 0 -0.0978996353 0 0
-0.681488 1.726837 -3.589845 0.995196293 0 -0.0978996353 0 0
-0.680962 1.726837 -3.5845 0.995196293 0 -0.0978996353 0 0
-0.681488 1.807437 -3.589845 0.995196293 0 -0.0978996353 0 0
-0.680962 1.807437 -3.5845 0.995196293 0 -0.0978996353 0 0
-0.681488 1.817808 -3.589845 0.995196293 0 -0.0978996353 0 0
-0.680962 1.817808 -3.5845 0.995196293 0 -0.0978996353 0 0
-0.681488 1.900199 -3.589845 0.995196293 0 -0.0978996353 0 0
-0.680962 1.900199 -3.5845 0.995196293 0 -0.0978996353 0 0
-0.944477 1.589079 -3.584701 -0.0979986751 0 0.995186545 0 0
-0.948026 1.590315 -3.585051 -0.0979986751 0 0.995186545 0 0
-0.950623 1.593689 -3.585306 -0.0979986751 0 0.995186545 0 0
-0.951574 1.598298 -3.5854 -0.0979986751 0 0.995186545 0 0
-0.73886 1.952052 -3.584263 0 1 0 0 0
-0.719169 1.952052 -3.580744 0 1 0 0 0
-0.719686 1.952052 -3.586089 0 1 0 0 0
-0.738499 1.952052 -3.578905 0 1 0 0 0
-0.789377 1.952052 -3.582474 0 1 0 0 0
-0.777566 1.952052 -3.577486 0 1 0 0 0
-0.777741 1.952052 -3.582854 0 1 0 0 0
-0.789203 1.952052 -3.577107 0 1 0 0 0
-0.808352 1.952052 -3.581862 0 1 0 0 0
-0.808322 1.952052 -3.576492 0 1 0 0 0
-0.857939 1.952052 -3.583257 0 1 0 0 0
-0.846478 1.952052 -3.577507 0 1 0 0 0
-0.846303 1.952052 -3.582875 0 1 0 0 0
-0.858116 1.952052 -3.577889 0 1 0 0 0
-0.876393 1.952052 -3.583868 0 1 0 0 0
-0.876677 1.952052 -3.578505 0 1 0 0 0
-0.91285 1.716466 -3.586987 0.995206031 0 0.0978005927 0 0
-0.913376 1.640933 -3.581642 0.995206031 0 0.0978005927 0 0
-0.91285 1.640933 -3.586987 0.995206031 0 0.0978005927 0 0
-0.913376 1.716466 -3.581642 0.995206031 0 0.0978005927 0 0
-0.91285 1.807437 -3.586987 0.995206031 0 0.0978005927 0 0
-0.913376 1.726837 -3.581642 0.995206031 0 0.0978005927 0 0
-0.91285 1.726837 -3.586987 0.995206031 0 0.0978005927 0 0
-0.913376 1.807437 -3.581642 0.995206031 0 0.0978005927 0 0
-0.91285 1.900199 -3.586987 0.995206031 0 0.0978005927 0 0
-0.913376 1.817808 -3.581642 0.995206031 0 0.0978005927 0 0
-0.91285 1.817808 -3.586987 0.995206031 0 0.0978005927 0 0
-0.913376 1.900199 -3.581642 0.995206031 0 0.0978005927 0 0
-0.857939 1.640933 -3.583257 -0.999458693 0 -0.0328986403 0 0
-0.858115 1.716466 -3.577889 -0.999458693 0 -0.0328986403 0 0
-0.857939 1.716466 -3.583257 -0.999458693 0 -0.0328986403 0 0
-0.858115 1.640933 -3.577889 -0.999458693 0 -0.0328986403 0 0
-0.857939 1.726837 -3.583257 -0.999458693 0 -0.0328986403 0 0
-0.858115 1.807437 -3.577889 -0.999458693 0 -0.0328986403 0 0
-0.857939 1.807437 -3.583257 -0.999458693 0 -0.0328986403 0 0
-0.858115 1.726837 -3.577889 -0.999458693 0 -0.0328986403 0 0
-0.857939 1.817808 -3.583257 -0.999458693 0 -0.0328986403 0 0
-0.858115 1.900199 -3.577889 -0.999458693 0 -0.0328986403 0 0
-0.857939 1.900199 -3.583257 -0.999458693 0 -0.0328986403 0 0
-0.858115 1.817808 -3.577889 -0.999458693 0 -0.0328986403 0 0
-0.846303 1.716466 -3.582875 0.999465249 0 0.0326988631 0 0
-0.846479 1.640933 -3.577507 0.999465249 0 0.0326988631 0 0
-0.846303 1.640933 -3.582875 0.999465249 0 0.0326988631 0 0
-0.846479 1.716466 -3.577507 0.999465249 0 0.0326988631 0 0
-0.846303 1.807437 -3.582875 0.999465249 0 0.0326988631 0 0
-0.846479 1.726837 -3.577507 0.999465249 0 0.0326988631 0 0
-0.846303 1.726837 -3.582875 0.999465249 0 0.0326988631 0 0
-0.846479 1.807437 -3.577507 0.999465249 0 0.0326988631 0 0
-0.846303 1.900199 -3.582875 0.999465249 0 0.0326988631 0 0
-0.846479 1.817808 -3.577507 0.999465249 0 0.0326988631 0 0
-0.846303 1.817808 -3.582875 0.999465249 0 0.0326988631 0 0
-0.846479 1.900199 -3.577507 0.999465249 0 0.0326988631 0 0
-0.789377 1.640933 -3.582474 -0.999475008 0 0.0323991899 0 0
-0.789203 1.716466 -3.577107 -0.999475008 0 0.0323991899 0 0
-0.789377 1.716466 -3.582474 -0.999475008 0 0.0323991899 0 0
-0.789203 1.640933 -3.577107 -0.999475008 0 0.0323991899 0 0
-0.789377 1.726837 -3.582474 -0.999475008 0 0.0323991899 0 0
-0.789203 1.807437 -3.577107 -0.999475008 0 0.0323991899 0 0
-0.789377 1.807437 -3.582474 -0.999475008 0 0.0323991899 0 0
-0.789203 1.726837 -3.577107 -0.999475008 0 0.0323991899 0 0
-0.789377 1.817808 -3.582474 -0.999475008 0 0.0323991899 0 0
-0.789203 1.900199 -3.577107 -0.999475008 0 0.0323991899 0 0
-0.789377 1.900199 -3.582474 -0.999475008 0 0.0323991899 0 0
-0.789203 1.817808 -3.577107 -0.999475008 0 0.0323991899 0 0
-0.777741 1.716466 -3.582854 0.999465249 0 -0.0326988631 0 0
-0.777566 1.640933 -3.577486 0.999465249 0 -0.0326988631 0 0
-0.777741 1.640933 -3.582854 0.999465249 0 -0.0326988631 0 0
-0.777566 1.716466 -3.577486 0.999465249 0 -0.0326988631 0 0
-0.777741 1.807437 -3.582854 0.999465249 0 -0.0326988631 0 0
-0.777566 1.726837 -3.577486 0.999465249 0 -0.0326988631 0 0
-0.777741 1.726837 -3.582854 0.999465249 0 -0.0326988631 0 0
-0.777566 1.807437 -3.577486 0.999465249 0 -0.0326988631 0 0
-0.777741 1.900199 -3.582854 0.999465249 0 -0.0326988631 0 0
-0.777566 1.817808 -3.577486 0.999465249 0 -0.0326988631 0 0
-0.777741 1.817808 -3.582854 0.999465249 0 -0.0326988631 0 0
-0.777566 1.900199 -3.577486 0.999465249 0 -0.0326988631 0 0
-0.719686 1.640933 -3.586089 -0.995303817 0 0.0968003712 0 0
-0.719166 1.716466 -3.580744 -0.995303817 0 0.0968003712 0 0
-0.719686 1.716466 -3.586089 -0.995303817 0 0.0968003712 0 0
-0.719166 1.640933 -3.580744 -0.995303817 0 0.0968003712 0 0
-0.719686 1.726837 -3.586089 -0.995313447 0 0.0967013064 0 0
-0.719166 1.807437 -3.580744 -0.995313447 0 0.0967013064 0 0
-0.719686 1.807437 -3.586089 -0.995313447 0 0.0967013064 0 0
-0.719166 1.726837 -3.580744 -0.995313447 0 0.0967013064 0 0
-0.719686 1.817808 -3.586089 -0.995303817 0 0.0968003712 0 0
-0.719166 1.900199 -3.580744 -0.995303817 0 0.0968003712 0 0
-0.719686 1.900199 -3.586089 -0.995303817 0 0.0968003712 0 0
-0.719166 1.817808 -3.580744 -0.995303817 0 0.0968003712 0 0
-0.91285 1.640933 -3.586987 0 1 0 0 0
-0.895133 1.640933 -3.57985 0 1 0 0 0
-0.894675 1.640933 -3.585201 0 1 0 0 0
-0.913376 1.640933 -3.581642 0 1 0 0 0
-0.894675 1.716466 -3.585201 0 -1 0 0 0
-0.913376 1.716466 -3.581642 0 -1 0 0 0
-0.91285 1.716466 -3.586987 0 -1 0 0 0
-0.895133 1.716466 -3.57985 0 -1 0 0 0
-0.91285 1.726837 -3.586987 0 1 0 0 0
-0.895133 1.726837 -3.57985 0 1 0 0 0
-0.894675 1.726837 -3.585201 0 1 0 0 0
-0.913376 1.726837 -3.581642 0 1 0 0 0
-0.894675 1.807437 -3.585201 0 -1 0 0 0
-0.913376 1.807437 -3.581642 0 -1 0 0 0
-0.91285 1.807437 -3.586987 0 -1 0 0 0
-0.895133 1.807437 -3.57985 0 -1 0 0 0
-0.91285 1.817808 -3.586987 0 1 0 0 0
-0.895133 1.817808 -3.57985 0 1 0 0 0
-0.894675 1.817808 -3.585201 0 1 0 0 0
-0.913376 1.817808 -3.581642 0 1 0 0 0
-0.894675 1.900199 -3.585201 0 -1 0 0 0
-0.913376 1.900199 -3.581642 0 -1 0 0 0
-0.91285 1.900199 -3.586987 0 -1 0 0 0
-0.895133 1.900199 -3.57985 0 -1 0 0 0
-0.846303 1.640933 -3.582875 0 1 0 0 0
-0.827471 1.640933 -3.576889 0 1 0 0 0
-0.827328 1.640933 -3.582258 0 1 0 0 0
-0.846479 1.640933 -3.577507 0 1 0 0 0
-0.827328 1.716466 -3.582258 0 -1 0 0 0
-0.846479 1.716466 -3.577507 0 -1 0 0 0
-0.846303 1.716466 -3.582875 0 -1 0 0 0
-0.827471 1.716466 -3.576889 0 -1 0 0 0
-0.846303 1.726837 -3.582875 0 1 0 0 0
-0.827471 1.726837 -3.576889 0 1 0 0 0
-0.827328 1.726837 -3.582258 0 1 0 0 0
-0.846479 1.726837 -3.577507 0 1 0 0 0
-0.827328 1.807437 -3.582258 0 -1 0 0 0
-0.846479 1.807437 -3.577507 0 -1 0 0 0
-0.846303 1.807437 -3.582875 0 -1 0 0 0
-0.827471 1.807437 -3.576889 0 -1 0 0 0
-0.846303 1.817808 -3.582875 0 1 0 0 0
-0.827471 1.817808 -3.576889 0 1 0 0 0
-0.827328 1.817808 -3.582258 0 1 0 0 0
-0.846479 1.817808 -3.577507 0 1 0 0 0
-0.827328 1.900199 -3.582258 0 -1 0 0 0
-0.846479 1.900199 -3.577507 0 -1 0 0 0
-0.846303 1.900199 -3.582875 0 -1 0 0 0
-0.827471 1.900199 -3.576889 0 -1 0 0 0
-0.777741 1.640933 -3.582854 0 1 0 0 0
-0.758091 1.640933 -3.578127 0 1 0 0 0
-0.758286 1.640933 -3.583493 0 1 0 0 0
-0.777566 1.640933 -3.577486 0 1 0 0 0
-0.758286 1.716466 -3.583493 0 -1 0 0 0
-0.777566 1.716466 -3.577486 0 -1 0 0 0
-0.777741 1.716466 -3.582854 0 -1 0 0 0
-0.758091 1.716466 -3.578127 0 -1 0 0 0
-0.777741 1.726837 -3.582854 0 1 0 0 0
-0.758091 1.726837 -3.578127 0 1 0 0 0
-0.758286 1.726837 -3.583493 0 1 0 0 0
-0.777566 1.726837 -3.577486 0 1 0 0 0
-0.758286 1.807437 -3.583493 0 -1 0 0 0
-0.777566 1.807437 -3.577486 0 -1 0 0 0
-0.777741 1.807437 -3.582854 0 -1 0 0 0
-0.758091 1.807437 -3.578127 0 -1 0 0 0
-0.777741 1.817808 -3.582854 0 1 0 0 0
-0.758091 1.817808 -3.578127 0 1 0 0 0
-0.758286 1.817808 -3.583493 0 1 0 0 0
-0.777566 1.817808 -3.577486 0 1 0 0 0
-0.758286 1.900199 -3.583493 0 -1 0 0 0
-0.777566 1.900199 -3.577486 0 -1 0 0 0
-0.777741 1.900199 -3.582854 0 -1 0 0 0
-0.758091 1.900199 -3.578127 0 -1 0 0 0
-0.917316 1.952052 -3.587426 0 1 0 0 0
-0.913376 1.952052 -3.581642 0 1 0 0 0
-0.91285 1.952052 -3.586987 0 1 0 0 0
-0.917842 1.952052 -3.582081 0 1 0 0 0
-0.917842 1.589079 -3.582081 0 -1 0 0 0
-0.917316 1.589079 -3.587426 0 -1 0 0 0
-0.71331 1.589079 -3.586715 0 -1 0 0 0
-0.719169 1.58908 -3.580744 0 -1 0 0 0
-0.719686 1.58908 -3.586089 0 -1 0 0 0
-0.712785 1.589079 -3.581371 0 -1 0 0 0
-0.712785 1.952052 -3.581371 0 1 0 0 0
-0.71331 1.952052 -3.586715 0 1 0 0 0
-0.876677 1.589079 -3.578505 0 -1 0 0 0
-0.876393 1.589079 -3.583868 0 -1 0 0 0
-0.895133 1.952052 -3.57985 0 1 0 0 0
-0.894675 1.952052 -3.585201 0 1 0 0 0
-0.876393 1.640933 -3.583868 0 1 0 0 0
-0.858115 1.640933 -3.577889 0 1 0 0 0
-0.857939 1.640933 -3.583257 0 1 0 0 0
-0.876677 1.640933 -3.578505 0 1 0 0 0
-0.857939 1.716466 -3.583257 0 -1 0 0 0
-0.876677 1.716466 -3.578505 0 -1 0 0 0
-0.876393 1.716466 -3.583868 0 -1 0 0 0
-0.858115 1.716466 -3.577889 0 -1 0 0 0
-0.876393 1.726837 -3.583868 0 1 0 0 0
-0.858115 1.726837 -3.577889 0 1 0 0 0
-0.857939 1.726837 -3.583257 0 1 0 0 0
-0.876677 1.726837 -3.578505 0 1 0 0 0
-0.857939 1.807437 -3.583257 0 -1 0 0 0
-0.876677 1.807437 -3.578505 0 -1 0 0 0
-0.876393 1.807437 -3.583868 0 -1 0 0 0
-0.858115 1.807437 -3.577889 0 -1 0 0 0
-0.876393 1.817808 -3.583868 0 1 0 0 0
-0.858115 1.817808 -3.577889 0 1 0 0 0
-0.857939 1.817808 -3.583257 0 1 0 0 0
-0.876677 1.817808 -3.578505 0 1 0 0 0
-0.857939 1.900199 -3.583257 0 -1 0 0 0
-0.876677 1.900199 -3.578505 0 -1 0 0 0
-0.876393 1.900199 -3.583868 0 -1 0 0 0
-0.858115 1.900199 -3.577889 0 -1 0 0 0
-0.808322 1.640933 -3.576492 0 1 0 0 0
-0.808352 1.640933 -3.581862 0 1 0 0 0
-0.789203 1.640933 -3.577107 0 1 0 0 0
-0.789377 1.640933 -3.582474 0 1 0 0 0
-0.827328 1.952052 -3.582258 0 1 0 0 0
-0.827471 1.952052 -3.576889 0 1 0 0 0
-0.808352 1.589079 -3.581862 0 -1 0 0 0
-0.808322 1.589079 -3.576492 0 -1 0 0 0
-0.789377 1.716466 -3.582474 0 -1 0 0 0
-0.808322 1.716466 -3.576492 0 -1 0 0 0
-0.808352 1.716466 -3.581862 0 -1 0 0 0
-0.789203 1.716466 -3.577107 0 -1 0 0 0
-0.808352 1.726837 -3.581862 0 1 0 0 0
-0.789203 1.726837 -3.577107 0 1 0 0 0
-0.789377 1.726837 -3.582474 0 1 0 0 0
-0.808322 1.726837 -3.576492 0 1 0 0 0
-0.789377 1.807437 -3.582474 0 -1 0 0 0
-0.808322 1.807437 -3.576492 0 -1 0 0 0
-0.808352 1.807437 -3.581862 0 -1 0 0 0
-0.789203 1.807437 -3.577107 0 -1 0 0 0
-0.808352 1.817808 -3.581862 0 1 0 0 0
-0.789203 1.817808 -3.577107 0 1 0 0 0
-0.789377 1.817808 -3.582474 0 1 0 0 0
-0.808322 1.817808 -3.576492 0 1 0 0 0
-0.789377 1.900199 -3.582474 0 -1 0 0 0
-0.808322 1.900199 -3.576492 0 -1 0 0 0
-0.808352 1.900199 -3.581862 0 -1 0 0 0
-0.789203 1.900199 -3.577107 0 -1 0 0 0
-0.738499 1.640933 -3.578905 0 1 0 0 0
-0.73886 1.640933 -3.584263 0 1 0 0 0
-0.719166 1.640933 -3.580744 0 1 0 0 0
-0.719686 1.640933 -3.586089 0 1 0 0 0
-0.758286 1.952052 -3.583493 0 1 0 0 0
-0.758091 1.952052 -3.578127 0 1 0 0 0
-0.73886 1.589079 -3.584263 0 -1 0 0 0
-0.738499 1.589079 -3.578905 0 -1 0 0 0
-0.719686 1.716466 -3.586089 0 -1 0 0 0
-0.738499 1.716466 -3.578905 0 -1 0 0 0
-0.73886 1.716466 -3.584263 0 -1 0 0 0
-0.719166 1.716466 -3.580744 0 -1 0 0 0
-0.73886 1.726837 -3.584263 0 1 0 0 0
-0.719166 1.726837 -3.580744 0 1 0 0 0
-0.719686 1.726837 -3.586089 0 1 0 0 0
-0.738499 1.726837 -3.578905 0 1 0 0 0
-0.719686 1.807437 -3.586089 0 -1 0 0 0
-0.738499 1.807437 -3.578905 0 -1 0 0 0
-0.73886 1.807437 -3.584263 0 -1 0 0 0
-0.719166 1.807437 -3.580744 0 -1 0 0 0
-0.73886 1.817808 -3.584263 0 1 0 0 0
-0.719166 1.817808 -3.580744 0 1 0 0 0
-0.719686 1.817808 -3.586089 0 1 0 0 0
-0.738499 1.817808 -3.578905 0 1 0 0 0
-0.719686 1.900199 -3.586089 0 -1 0 0 0
-0.738499 1.900199 -3.578905 0 -1 0 0 0
-0.73886 1.900199 -3.584263 0 -1 0 0 0
-0.719166 1.900199 -3.580744 0 -1 0 0 0
-0.931159 1.589079 -3.58339 0 -1 0 0 0
-0.930634 1.589079 -3.588735 0 -1 0 0 0
-0.930634 1.952052 -3.588735 0 1 0 0 0
-0.931159 1.952052 -3.58339 0 1 0 0 0
-0.70047 1.589079 -3.587977 0 -1 0 0 0
-0.699945 1.589079 -3.582633 0 -1 0 0 0
-0.699945 1.952052 -3.582633 0 1 0 0 0
-0.70047 1.952052 -3.587977 0 1 0 0 0
-0.681488 1.90965 -3.589845 0.995196293 0 -0.0978996353 0 0
-0.680962 1.90965 -3.5845 0.995196293 0 -0.0978996353 0 0
-0.681488 1.942601 -3.589845 0.995196293 0 -0.0978996353 0 0
-0.680962 1.942601 -3.5845 0.995196293 0 -0.0978996353 0 0
-0.951574 1.90965 -3.5854 -0.995186545 0 -0.0979986751 0 0
-0.951048 1.90965 -3.590744 -0.995186545 0 -0.0979986751 0 0
-0.951574 1.942601 -3.5854 -0.995186545 0 -0.0979986751 0 0
-0.951048 1.942601 -3.590744 -0.995186545 0 -0.0979986751 0 0
-0.951048 1.631714 -3.590744 -0.995186545 0 -0.0979986751 0 0
-0.951574 1.631714 -3.5854 -0.995186545 0 -0.0979986751 0 0
-0.951048 1.598298 -3.590744 -0.995186545 0 -0.0979986751 0 0
-0.951574 1.598298 -3.5854 -0.995186545 0 -0.0979986751 0 0
-0.680962 1.631714 -3.5845 0.995196293 0 -0.0978996353 0 0
-0.681488 1.631714 -3.589845 0.995196293 0 -0.0978996353 0 0
-0.680962 1.598298 -3.5845 0.995196293 0 -0.0978996353 0 0
-0.681488 1.598298 -3.589845 0.995196293 0 -0.0978996353 0 0
-0.951048 1.598298 -3.590744 -0.974472686 -0.20299431 -0.095897312 0 0
-0.950623 1.593689 -3.585306 -0.904025037 -0.41811158 -0.089002465 0 0
-0.951574 1.598298 -3.5854 -0.974472686 -0.20299431 -0.095897312 0 0
-0.950097 1.593689 -3.590651 -0.904025037 -0.41811158 -0.089002465 0 0
-0.948026 1.590315 -3.585051 -0.7872042 -0.611803264 -0.0775004135 0 0
-0.9475 1.590315 -3.590395 -0.7872042 -0.611803264 -0.0775004135 0 0
-0.9475 1.590315 -3.590395 -0.325708646 -0.944925083 -0.0321008521 0 0
-0.948026 1.590315 -3.585051 -0.325708646 -0.944925083 -0.0321008521 0 0
-0.684033 1.590315 -3.584198 0.369799342 -0.928398347 -0.0363999352 0 0
-0.684559 1.590315 -3.589543 0.369799342 -0.928398347 -0.0363999352 0 0
-0.684559 1.590315 -3.589543 0.826989807 -0.556293144 -0.0813989968 0 0
-0.681785 1.593689 -3.584419 0.922809302 -0.374403774 -0.0908009153 0 0
-0.684033 1.590315 -3.584198 0.826989807 -0.556293144 -0.0813989968 0 0
-0.682311 1.593689 -3.589764 0.922809302 -0.374403774 -0.0908009153 0 0
-0.680962 1.598298 -3.5845 0.97955265 -0.176591464 -0.0963953404 0 0
-0.681488 1.598298 -3.589845 0.97955265 -0.176591464 -0.0963953404 0 0
-0.948026 1.950786 -3.585051 -0.333017629 0.942349885 -0.0328017364 0 0
-0.9475 1.950786 -3.590395 -0.333017629 0.942349885 -0.0328017364 0 0
-0.9475 1.950786 -3.590395 -0.79441911 0.602314489 -0.0782018812 0 0
-0.950623 1.947327 -3.585306 -0.90751865 0.410408434 -0.0893018352 0 0
-0.948026 1.950786 -3.585051 -0.79441911 0.602314489 -0.0782018812 0 0
-0.950097 1.947327 -3.590651 -0.90751865 0.410408434 -0.0893018352 0 0
-0.951574 1.942601 -3.5854 -0.975451477 0.198190141 -0.0959952248 0 0
-0.951048 1.942601 -3.590744 -0.975451477 0.198190141 -0.0959952248 0 0
-0.681488 1.942601 -3.589845 0.980289168 0.172398095 -0.0964989337 0 0
-0.681785 1.947327 -3.584419 0.92570828 0.367103284 -0.0911008149 0 0
-0.680962 1.942601 -3.5845 0.980289168 0.172398095 -0.0964989337 0 0
-0.682311 1.947327 -3.589764 0.92570828 0.367103284 -0.0911008149 0 0
-0.684033 1.950786 -3.584198 0.833257034 0.546771806 -0.081995772 0 0
-0.684559 1.950786 -3.589543 0.833257034 0.546771806 -0.081995772 0 0
-0.684559 1.950786 -3.589543 0.377813849 0.925133911 -0.0372013636 0 0
-0.684033 1.950786 -3.584198 0.377813849 0.925133911 -0.0372013636 0 0
-0.951048 1.598298 -3.590744 0 0 1 0 0
-0.951574 1.598298 -3.5854 0 0 1 0 0
-0.951048 1.598298 -3.590744 0 0 1 0 0
-0.951574 1.598298 -3.5854 0 0 1 0 0
3 0 1 2
3 0 3 1
3 4 5 6
3 4 7 5
3 8 9 10
3 8 11 9
3 10 12 13
3 10 9 12
3 14 15 16
3 14 17 15
3 16 18 19
3 16 15 18
3 20 21 22
3 20 23 21
3 24 25 26
3 24 27 25
3 27 28 25
3 27 29 28
3 29 30 28
3 29 31 30
3 31 32 30
3 31 33 32
3 33 34 32
3 33 35 34
3 35 36 34
3 35 37 36
3 38 39 40
3 38 41 39
3 42 43 44
3 42 45 43
3 46 47 48
3 46 49 47
3 50 51 52
3 50 53 51
3 54 55 56
3 54 57 55
3 58 53 50
3 58 59 53
3 40 60 61
3 40 39 60
3 39 58 60
3 39 48 58
3 48 59 58
3 48 47 59
3 47 62 59
3 47 56 62
3 56 63 62
3 56 55 63
3 55 64 63
3 55 65 64
3 66 67 68
3 66 69 67
3 70 71 72
3 70 73 71
3 52 74 75
3 52 51 74
3 76 73 70
3 76 77 73
3 78 79 80
3 78 81 79
3 82 83 84
3 82 85 83
3 68 86 87
3 68 67 86
3 67 76 86
3 67 75 76
3 75 77 76
3 75 74 77
3 74 88 77
3 74 80 88
3 80 89 88
3 80 79 89
3 79 90 89
3 79 91 90
3 92 93 94
3 92 95 93
3 96 97 98
3 96 99 97
3 72 100 101
3 72 71 100
3 102 98 103
3 102 96 98
3 104 105 106
3 104 107 105
3 108 103 109
3 108 102 103
3 44 110 111
3 44 43 110
3 43 112 110
3 43 113 112
3 113 114 112
3 113 115 114
3 115 116 114
3 115 117 116
3 117 118 116
3 117 119 118
3 119 120 118
3 119 121 120
3 122 7 4
3 122 123 7
3 124 27 24
3 124 125 27
3 125 29 27
3 125 126 29
3 126 31 29
3 126 127 31
3 127 33 31
3 127 128 33
3 128 35 33
3 128 129 35
3 129 37 35
3 129 130 37
3 22 131 132
3 22 21 131
3 94 133 134
3 94 93 133
3 93 135 133
3 93 101 135
3 101 136 135
3 101 100 136
3 100 137 136
3 100 106 137
3 106 138 137
3 106 105 138
3 105 139 138
3 105 140 139
3 6 141 142
3 6 5 141
3 142 11 8
3 142 141 11
3 26 143 144
3 26 25 143
3 144 41 38
3 144 143 41
3 145 109 146
3 145 108 109
3 147 95 92
3 147 148 95
3 28 149 150
3 28 30 149
3 150 49 46
3 150 149 49
3 151 69 66
3 151 152 69
3 61 152 151
3 61 60 152
3 32 153 154
3 32 34 153
3 154 57 54
3 154 153 57
3 155 17 14
3 155 156 17
3 13 156 155
3 13 12 156
3 87 148 147
3 87 86 148
3 62 157 158
3 62 63 157
3 158 81 78
3 158 157 81
3 159 23 20
3 159 160 23
3 19 160 159
3 19 18 160
3 161 146 162
3 161 145 146
3 88 163 164
3 88 89 163
3 164 107 104
3 164 163 107
3 165 162 166
3 165 161 162
3 167 168 169
3 167 170 168
3 45 113 43
3 45 171 113
3 171 115 113
3 171 172 115
3 172 117 115
3 172 173 117
3 173 119 117
3 173 174 119
3 174 121 119
3 174 175 121
3 121 176 120
3 121 177 176
3 177 178 176
3 177 84 178
3 37 179 36
3 37 180 179
3 180 6 179
3 180 4 6
3 181 182 65
3 181 183 182
3 183 10 182
3 183 8 10
3 65 184 64
3 65 182 184
3 182 13 184
3 182 10 13
3 185 186 91
3 185 187 186
3 187 16 186
3 187 14 16
3 91 188 90
3 91 186 188
3 186 19 188
3 186 16 19
3 189 190 140
3 189 191 190
3 191 22 190
3 191 20 22
3 175 177 121
3 175 192 177
3 192 84 177
3 192 82 84
3 130 180 37
3 130 193 180
3 193 4 180
3 193 122 4
3 140 194 139
3 140 190 194
3 190 132 194
3 190 22 132
3 36 195 196
3 36 179 195
3 179 142 195
3 179 6 142
3 196 183 181
3 196 195 183
3 195 8 183
3 195 142 8
3 197 187 185
3 197 198 187
3 198 14 187
3 198 155 14
3 64 198 197
3 64 184 198
3 184 155 198
3 184 13 155
3 199 191 189
3 199 200 191
3 200 20 191
3 200 159 20
3 90 200 199
3 90 188 200
3 188 159 200
3 188 19 159
3 99 201 97
3 99 202 201
3 202 203 201
3 202 204 203
3 205 206 207
3 205 208 206
3 208 26 206
3 208 24 26
3 209 210 211
3 209 212 210
3 212 40 210
3 212 38 40
3 213 214 215
3 213 216 214
3 216 44 214
3 216 42 44
3 211 217 218
3 211 210 217
3 210 61 217
3 210 40 61
3 219 220 221
3 219 222 220
3 222 68 220
3 222 66 68
3 221 223 224
3 221 220 223
3 220 87 223
3 220 68 87
3 225 226 227
3 225 228 226
3 228 94 226
3 228 92 94
3 229 230 231
3 229 232 230
3 214 111 233
3 214 44 111
3 234 208 205
3 234 235 208
3 235 24 208
3 235 124 24
3 227 236 237
3 227 226 236
3 226 134 236
3 226 94 134
3 207 238 239
3 207 206 238
3 206 144 238
3 206 26 144
3 239 212 209
3 239 238 212
3 238 38 212
3 238 144 38
3 240 228 225
3 240 241 228
3 241 92 228
3 241 147 92
3 242 222 219
3 242 243 222
3 243 66 222
3 243 151 66
3 218 243 242
3 218 217 243
3 217 151 243
3 217 61 151
3 224 241 240
3 224 223 241
3 223 147 241
3 223 87 147
3 244 245 246
3 244 247 245
3 248 166 249
3 248 165 166
3 203 123 122
3 203 250 123
3 166 125 124
3 166 162 125
3 162 126 125
3 162 146 126
3 146 127 126
3 146 109 127
3 109 128 127
3 109 103 128
3 103 129 128
3 103 98 129
3 98 130 129
3 98 97 130
3 97 193 130
3 97 201 193
3 201 122 193
3 201 203 122
3 251 235 234
3 251 249 235
3 249 124 235
3 249 166 124
3 134 45 42
3 134 133 45
3 132 85 82
3 132 131 85
3 133 171 45
3 133 135 171
3 135 172 171
3 135 136 172
3 136 173 172
3 136 137 173
3 137 174 173
3 137 138 174
3 138 175 174
3 138 139 175
3 139 192 175
3 139 194 192
3 194 82 192
3 194 132 82
3 237 216 213
3 237 236 216
3 236 42 216
3 236 134 42
3 252 253 254
3 252 255 253
3 256 257 258
3 256 259 257
3 258 260 261
3 258 257 260
3 262 263 264
3 262 265 263
3 264 266 267
3 264 263 266
3 268 269 270
3 268 271 269
3 272 273 274
3 272 275 273
3 276 274 277
3 276 272 274
3 278 277 279
3 278 276 277
3 280 279 281
3 280 278 279
3 282 281 283
3 282 280 281
3 284 283 285
3 284 282 283
3 286 287 288
3 286 289 287
3 290 291 292
3 290 293 291
3 294 295 296
3 294 297 295
3 298 299 300
3 298 301 299
3 302 303 304
3 302 305 303
3 306 301 298
3 306 307 301
3 288 308 309
3 288 287 308
3 295 309 307
3 295 288 309
3 296 307 306
3 296 295 307
3 303 306 310
3 303 296 306
3 304 310 311
3 304 303 310
3 312 311 313
3 312 304 311
3 314 315 316
3 314 317 315
3 318 319 320
3 318 321 319
3 300 322 323
3 300 299 322
3 324 321 318
3 324 325 321
3 326 327 328
3 326 329 327
3 330 331 332
3 330 333 331
3 316 334 335
3 316 315 334
3 322 335 325
3 322 316 335
3 323 325 324
3 323 322 325
3 327 324 336
3 327 323 324
3 328 336 337
3 328 327 336
3 338 337 339
3 338 328 337
3 340 341 342
3 340 343 341
3 344 345 346
3 344 347 345
3 320 348 349
3 320 319 348
3 347 350 345
3 347 351 350
3 352 353 354
3 352 355 353
3 351 356 350
3 351 357 356
3 292 358 359
3 292 291 358
3 360 359 361
3 360 292 359
3 362 361 363
3 362 360 361
3 364 363 365
3 364 362 363
3 366 365 367
3 366 364 365
3 368 367 369
3 368 366 367
3 370 255 252
3 370 371 255
3 372 275 272
3 372 373 275
3 374 272 276
3 374 372 272
3 375 276 278
3 375 374 276
3 376 278 280
3 376 375 278
3 377 280 282
3 377 376 280
3 378 282 284
3 378 377 282
3 270 379 380
3 270 269 379
3 342 381 382
3 342 341 381
3 348 382 383
3 348 342 382
3 349 383 384
3 349 348 383
3 353 384 385
3 353 349 384
3 354 385 386
3 354 353 385
3 387 386 388
3 387 354 386
3 254 389 390
3 254 253 389
3 390 259 256
3 390 389 259
3 274 391 392
3 274 273 391
3 392 289 286
3 392 391 289
3 357 393 356
3 357 394 393
3 395 343 340
3 395 396 343
3 279 397 398
3 279 277 397
3 398 297 294
3 398 397 297
3 399 317 314
3 399 400 317
3 309 400 399
3 309 308 400
3 283 401 402
3 283 281 401
3 402 305 302
3 402 401 305
3 403 265 262
3 403 404 265
3 261 404 403
3 261 260 404
3 335 396 395
3 335 334 396
3 311 405 406
3 311 310 405
3 406 329 326
3 406 405 329
3 407 271 268
3 407 408 271
3 267 408 407
3 267 266 408
3 394 409 393
3 394 410 409
3 337 411 412
3 337 336 411
3 412 355 352
3 412 411 355
3 410 413 409
3 410 414 413
3 332 415 416
3 332 417 415
3 332 418 417
3 332 419 418
3 332 331 419
3 420 292 360
3 420 290 292
3 421 360 362
3 421 420 360
3 422 362 364
3 422 421 362
3 423 364 366
3 423 422 364
3 424 366 368
3 424 423 366
3 425 369 426
3 425 368 369
3 331 426 419
3 331 425 426
3 427 285 428
3 427 284 285
3 255 428 253
3 255 427 428
3 429 312 430
3 429 431 312
3 259 430 257
3 259 429 430
3 430 313 432
3 430 312 313
3 257 432 260
3 257 430 432
3 433 338 434
3 433 435 338
3 265 434 263
3 265 433 434
3 434 339 436
3 434 338 339
3 263 436 266
3 263 434 436
3 437 387 438
3 437 439 387
3 271 438 269
3 271 437 438
3 440 368 425
3 440 424 368
3 333 425 331
3 333 440 425
3 441 284 427
3 441 378 284
3 371 427 255
3 371 441 427
3 438 388 442
3 438 387 388
3 269 442 379
3 269 438 442
3 428 443 444
3 428 285 443
3 253 444 389
3 253 428 444
3 444 431 429
3 444 443 431
3 389 429 259
3 389 444 429
3 445 435 433
3 445 446 435
3 404 433 265
3 404 445 433
3 432 446 445
3 432 313 446
3 260 445 404
3 260 432 445
3 447 439 437
3 447 448 439
3 408 437 271
3 408 447 437
3 436 448 447
3 436 339 448
3 266 447 408
3 266 436 447
3 449 346 450
3 449 344 346
3 451 450 452
3 451 449 450
3 453 454 455
3 453 456 454
3 275 455 273
3 275 453 455
3 457 458 459
3 457 460 458
3 289 459 287
3 289 457 459
3 461 462 463
3 461 464 462
3 293 463 291
3 293 461 463
3 459 465 466
3 459 458 465
3 287 466 308
3 287 459 466
3 467 468 469
3 467 470 468
3 317 469 315
3 317 467 469
3 469 471 472
3 469 468 471
3 315 472 334
3 315 469 472
3 473 474 475
3 473 476 474
3 343 475 341
3 343 473 475
3 477 478 479
3 477 480 478
3 477 481 480
3 477 452 481
3 477 451 452
3 291 482 358
3 291 463 482
3 483 456 453
3 483 484 456
3 373 453 275
3 373 483 453
3 475 485 486
3 475 474 485
3 341 486 381
3 341 475 486
3 455 487 488
3 455 454 487
3 273 488 391
3 273 455 488
3 488 460 457
3 488 487 460
3 391 457 289
3 391 488 457
3 489 476 473
3 489 490 476
3 396 473 343
3 396 489 473
3 491 470 467
3 491 492 470
3 400 467 317
3 400 491 467
3 466 492 491
3 466 465 492
3 308 491 400
3 308 466 491
3 472 490 489
3 472 471 490
3 334 489 396
3 334 472 489
3 463 493 482
3 463 494 493
3 463 495 494
3 463 496 495
3 463 462 496
3 414 497 413
3 414 498 497
3 481 371 370
3 481 452 371
3 409 373 372
3 409 413 373
3 393 372 374
3 393 409 372
3 356 374 375
3 356 393 374
3 350 375 376
3 350 356 375
3 345 376 377
3 345 350 376
3 346 377 378
3 346 345 377
3 450 378 441
3 450 346 378
3 452 441 371
3 452 450 441
3 497 484 483
3 497 499 484
3 413 483 373
3 413 497 483
3 382 293 290
3 382 381 293
3 380 333 330
3 380 379 333
3 383 290 420
3 383 382 290
3 384 420 421
3 384 383 420
3 385 421 422
3 385 384 421
3 386 422 423
3 386 385 422
3 388 423 424
3 388 386 423
3 442 424 440
3 442 388 424
3 379 440 333
3 379 442 440
3 486 464 461
3 486 485 464
3 381 461 293
3 381 486 461
3 500 501 502
3 500 503 501
3 500 251 503
3 500 249 251
3 500 248 249
3 215 504 505
3 215 506 504
3 215 507 506
3 215 233 507
3 215 214 233
3 84 508 178
3 84 509 508
3 84 510 509
3 84 511 510
3 84 83 511
3 204 250 203
3 204 512 250
3 204 513 512
3 204 514 513
3 204 515 514
3 516 517 518
3 516 519 517
3 520 521 522
3 520 523 521
3 524 523 520
3 524 525 523
3 526 525 524
3 526 527 525
3 528 527 526
3 528 529 527
3 530 529 528
3 530 531 529
3 532 533 534
3 532 535 533
3 536 537 538
3 536 539 537
3 540 541 542
3 540 543 541
3 544 543 540
3 544 545 543
3 546 547 548
3 546 549 547
3 550 549 546
3 550 551 549
3 552 553 554
3 552 555 553
3 556 557 558
3 556 559 557
3 560 559 556
3 560 561 559
3 562 561 560
3 562 563 561
3 564 563 562
3 564 565 563
3 566 565 564
3 566 567 565
3 498 499 497
3 498 568 499
3 498 569 568
3 498 570 569
3 498 571 570
3 572 573 574
3 572 575 573
3 576 577 578
3 576 579 577
3 580 579 576
3 580 581 579
3 582 583 584
3 582 585 583
3 586 585 582
3 586 587 585
3 588 589 590
3 588 591 589
3 592 593 594
3 592 595 593
3 596 597 598
3 596 599 597
3 600 601 602
3 600 603 601
3 604 605 606
3 604 607 605
3 608 609 610
3 608 611 609
3 612 613 614
3 612 615 613
3 616 617 618
3 616 619 617
3 620 621 622
3 620 623 621
3 624 625 626
3 624 627 625
3 628 629 630
3 628 631 629
3 632 633 634
3 632 635 633
3 636 637 638
3 636 639 637
3 640 641 642
3 640 643 641
3 644 645 646
3 644 647 645
3 648 649 650
3 648 651 649
3 652 653 654
3 652 655 653
3 656 657 658
3 656 659 657
3 660 661 662
3 660 663 661
3 664 665 666
3 664 667 665
3 668 669 670
3 668 671 669
3 672 673 674
3 672 675 673
3 676 677 678
3 676 679 677
3 680 681 682
3 680 683 681
3 684 685 686
3 684 687 685
3 688 689 690
3 688 691 689
3 692 693 694
3 692 695 693
3 696 697 698
3 696 699 697
3 700 701 702
3 700 703 701
3 704 705 706
3 704 707 705
3 708 709 710
3 708 711 709
3 712 713 714
3 712 715 713
3 716 717 718
3 716 719 717
3 720 721 722
3 720 723 721
3 724 725 726
3 724 727 725
3 728 729 730
3 728 731 729
3 732 733 734
3 732 735 733
3 538 736 737
3 538 537 736
3 738 739 740
3 738 741 739
3 574 742 743
3 574 573 742
3 542 744 745
3 542 541 744
3 745 539 536
3 745 744 539
3 734 746 747
3 734 733 746
3 747 587 586
3 747 746 587
3 748 749 750
3 748 751 749
3 662 751 748
3 662 661 751
3 752 753 754
3 752 755 753
3 754 667 664
3 754 753 667
3 756 757 758
3 756 759 757
3 670 759 756
3 670 669 759
3 760 761 762
3 760 763 761
3 762 675 672
3 762 761 675
3 764 765 766
3 764 767 765
3 678 767 764
3 678 677 767
3 768 769 770
3 768 771 769
3 770 683 680
3 770 769 683
3 686 772 773
3 686 685 772
3 773 774 775
3 773 772 774
3 776 581 580
3 776 777 581
3 584 777 776
3 584 583 777
3 778 545 544
3 778 779 545
3 548 779 778
3 548 547 779
3 780 781 782
3 780 783 781
3 782 691 688
3 782 781 691
3 784 785 786
3 784 787 785
3 694 787 784
3 694 693 787
3 788 789 790
3 788 791 789
3 790 699 696
3 790 789 699
3 792 793 794
3 792 795 793
3 702 795 792
3 702 701 795
3 796 797 798
3 796 799 797
3 798 707 704
3 798 797 707
3 710 800 801
3 710 709 800
3 801 802 803
3 801 800 802
3 804 575 572
3 804 805 575
3 578 805 804
3 578 577 805
3 806 551 550
3 806 807 551
3 740 807 806
3 740 739 807
3 808 809 810
3 808 811 809
3 810 715 712
3 810 809 715
3 812 813 814
3 812 815 813
3 718 815 812
3 718 717 815
3 816 817 818
3 816 819 817
3 818 723 720
3 818 817 723
3 820 821 822
3 820 823 821
3 726 823 820
3 726 725 823
3 824 825 826
3 824 827 825
3 826 731 728
3 826 825 731
3 737 828 829
3 737 736 828
3 830 735 732
3 830 831 735
3 832 741 738
3 832 833 741
3 743 834 835
3 743 742 834
3 836 567 566
3 836 837 567
3 838 837 836
3 838 839 837
3 522 840 841
3 522 521 840
3 841 842 843
3 841 840 842
3 844 531 530
3 844 845 531
3 846 845 844
3 846 847 845
3 558 848 849
3 558 557 848
3 849 850 851
3 849 848 850
3 829 247 244
3 829 828 247
3 554 831 830
3 554 553 831
3 534 833 832
3 534 533 833
3 835 3 0
3 835 834 3
3 852 853 854
3 852 855 853
3 855 856 853
3 855 857 856
3 858 245 859
3 858 246 245
3 532 860 535
3 532 861 860
3 862 863 864
3 862 865 863
3 865 866 863
3 865 867 866
3 552 868 555
3 552 869 868
3 870 871 872
3 870 873 871
3 873 874 871
3 873 875 874
3 876 877 878
3 876 879 877
3 879 880 877
3 879 881 880
3 882 1 883
3 882 2 1
3 884 885 886
3 884 887 885
