ply
format ascii 1.0
element vertex 361
property float x
property float y
property float z
property float nx
property float ny
property float nz
property float u
property float v
element face 684
property list uchar int vertex_indices
end_header
-2.965338 0.118358 0.217022 0.12820857 -0.136809145 0.982265657 0 0
-2.943725 0.02959 0.197843 0.295917167 -0.157409132 0.942154656 0 0
-2.939486 0.118358 0.211338 0.296912438 -0.136905735 0.945039589 0 0
-2.967169 0.02959 0.202999 0.12780583 -0.157307176 0.979244669 0 0
-2.991151 0.02959 0.204036 -0.044102165 -0.157407727 0.986548431 0 0
-2.991783 0.118358 0.218167 -0.0441999246 -0.136899767 0.989598313 0 0
-2.992249 0.207126 0.228583 -0.0446018457 0.0482019946 0.997841292 0 0
-2.963988 0.207126 0.22736 0.129304274 0.0482015933 0.990432739 0 0
-2.936361 0.207126 0.221285 0.299311652 0.0482018765 0.952937099 0 0
-2.903278 0.118358 -0.061524 0.533108567 -0.136802198 -0.834913417 0 0
-2.932163 0.02959 -0.060725 0.378884093 -0.157393392 -0.911961712 0 0
-2.926736 0.118358 -0.073787 0.379999877 -0.136899956 -0.914799703 0 0
-2.910889 0.02959 -0.049604 0.531510941 -0.157303238 -0.832317133 0 0
-2.891851 0.02959 -0.034984 0.667908038 -0.157401894 -0.727408754 0 0
-2.882284 0.118358 -0.045402 0.670014147 -0.136902891 -0.729615406 0 0
-2.875232 0.207126 -0.053082 0.675595578 0.0481996845 -0.735695185 0 0
-2.897667 0.207126 -0.070311 0.537609613 0.0482008618 -0.841815052 0 0
-2.922736 0.207126 -0.083415 0.383202445 0.0482003075 -0.922405885 0 0
-2.873155 0.118358 0.169158 0.729625391 -0.136804761 0.670023317 0 0
-2.868926 0.02959 0.140574 0.832304037 -0.157400763 0.531502578 0 0
-2.857005 0.118358 0.148186 0.834901991 -0.136900327 0.533101271 0 0
-2.883572 0.02959 0.159593 0.727420201 -0.157304368 0.667918548 0 0
-2.901276 0.02959 0.175803 0.60031571 -0.157404119 0.784120521 0 0
-2.892678 0.118358 0.187034 0.602209425 -0.136902143 0.786512309 0 0
-2.886339 0.207126 0.195312 0.607193111 0.0481994532 0.793091002 0 0
-2.865476 0.207126 0.17621 0.735695185 0.0481996845 0.675595578 0 0
-2.848217 0.207126 0.153798 0.841815052 0.0482008618 0.537609613 0 0
-3.004661 0.118358 -0.084112 -0.12820857 -0.136809145 -0.982265657 0 0
-3.026274 0.02959 -0.064933 -0.295917167 -0.157409132 -0.942154656 0 0
-3.030513 0.118358 -0.078427 -0.296912438 -0.136905735 -0.945039589 0 0
-3.002829 0.02959 -0.070088 -0.12780583 -0.157307176 -0.979244669 0 0
-2.978847 0.02959 -0.071126 0.044102165 -0.157407727 -0.986548431 0 0
-2.978215 0.118358 -0.085256 0.0441999246 -0.136899767 -0.989598313 0 0
-2.97775 0.207126 -0.095672 0.0446018457 0.0482019946 -0.997841292 0 0
-3.006011 0.207126 -0.094449 -0.129304274 0.0482015933 -0.990432739 0 0
-3.033638 0.207126 -0.088375 -0.299311652 0.0482018765 -0.952937099 0 0
-3.096843 0.118358 -0.036248 -0.729625391 -0.136804761 -0.670023317 0 0
-3.101072 0.02959 -0.007663 -0.832304037 -0.157400763 -0.531502578 0 0
-3.112993 0.118358 -0.015276 -0.834901991 -0.136900327 -0.533101271 0 0
-3.086426 0.02959 -0.026682 -0.727420201 -0.157304368 -0.667918548 0 0
-3.068722 0.02959 -0.042893 -0.60031571 -0.157404119 -0.784120521 0 0
-3.077321 0.118358 -0.054123 -0.602209425 -0.136902143 -0.786512309 0 0
-3.083659 0.207126 -0.062402 -0.607193111 0.0481994532 -0.793091002 0 0
-3.104522 0.207126 -0.043299 -0.735695185 0.0481996845 -0.675595578 0 0
-3.121781 0.207126 -0.020887 -0.841815052 0.0482008618 -0.537609613 0 0
-3.136693 0.118358 0.059672 -0.989611856 -0.136801639 -0.0442005295 0 0
-3.121558 0.02959 0.084287 -0.97922926 -0.157404703 0.127803819 0 0
-3.135584 0.118358 0.086119 -0.982252213 -0.136907277 0.128206815 0 0
-3.122564 0.02959 0.060304 -0.986563956 -0.157310198 -0.0441028591 0 0
-3.119422 0.02959 0.036506 -0.963912502 -0.157402042 -0.214702785 0 0
-3.133228 0.118358 0.03343 -0.966883379 -0.136897647 -0.215396297 0 0
-3.143405 0.207126 0.031163 -0.974934567 0.048201709 -0.217207701 0 0
-3.147108 0.207126 0.059206 -0.997841292 0.0482019946 -0.0446018457 0 0
-3.145923 0.207126 0.087469 -0.990432739 0.0482015933 0.129304274 0 0
-2.833305 0.118358 0.073238 0.989611856 -0.136801639 0.0442005295 0 0
-2.84844 0.02959 0.048623 0.97922926 -0.157404703 -0.127803819 0 0
-2.834414 0.118358 0.046792 0.982252213 -0.136907277 -0.128206815 0 0
-2.847434 0.02959 0.072607 0.986563956 -0.157310198 0.0441028591 0 0
-2.850576 0.02959 0.096404 0.963912502 -0.157402042 0.214702785 0 0
-2.836771 0.118358 0.09948 0.966883379 -0.136897647 0.215396297 0 0
-2.826593 0.207126 0.101748 0.974934567 0.048201709 0.217207701 0 0
-2.822891 0.207126 0.073704 0.997841292 0.0482019946 0.0446018457 0 0
-2.824076 0.207126 0.045442 0.990432739 0.0482015933 -0.129304274 0 0
-3.105563 0.118358 0.158766 -0.786523073 -0.136804013 0.602217666 0 0
-3.078147 0.02959 0.167894 -0.667908038 -0.157401894 0.727408754 0 0
-3.087714 0.118358 0.178312 -0.670014147 -0.136902891 0.729615406 0 0
-3.094334 0.02959 0.150168 -0.78413286 -0.157306592 0.600325157 0 0
-3.107224 0.02959 0.129918 -0.876414141 -0.15740254 0.455107343 0 0
-3.119777 0.118358 0.136436 -0.879121684 -0.136903377 0.45651126 0 0
-3.129031 0.207126 0.141241 -0.886483227 0.0482045257 0.46024321 0 0
-3.113841 0.207126 0.165104 -0.793091002 0.0481994532 0.607193111 0 0
-3.094766 0.207126 0.185992 -0.675595578 0.0481996845 0.735695185 0 0
-3.018021 0.118358 0.214667 -0.215399245 -0.136799521 0.966896611 0 0
-3.014945 0.02959 0.200862 -0.214801553 -0.157301137 0.963906969 0 0
-3.037836 0.02959 0.193635 -0.378884093 -0.157393392 0.911961712 0 0
-3.043262 0.118358 0.206697 -0.379999877 -0.136899956 0.914799703 0 0
-3.047263 0.207126 0.216326 -0.383202445 0.0482003075 0.922405885 0 0
-3.020288 0.207126 0.224842 -0.217207701 0.048201709 0.974934567 0 0
-2.864435 0.118358 -0.025856 0.786523073 -0.136804013 -0.602217666 0 0
-2.875664 0.02959 -0.017258 0.78413286 -0.157306592 -0.600325157 0 0
-2.862774 0.02959 0.002992 0.876414141 -0.15740254 -0.455107343 0 0
-2.850221 0.118358 -0.003526 0.879121684 -0.136903377 -0.45651126 0 0
-2.840968 0.207126 -0.00833 0.886442422 0.0482023068 -0.460322029 0 0
-2.856157 0.207126 -0.032193 0.793091002 0.0481994532 -0.607193111 0 0
-2.915027 0.118358 0.201217 0.456517508 -0.136805247 0.879133715 0 0
-2.921544 0.02959 0.188666 0.455114505 -0.157305013 0.876427932 0 0
-2.910223 0.207126 0.21047 0.46024321 0.0482045257 0.886483227 0 0
-2.951978 0.118358 -0.081756 0.215399245 -0.136799521 -0.966896611 0 0
-2.955053 0.02959 -0.067952 0.214706163 -0.157304515 -0.96392767 0 0
-2.949711 0.207126 -0.091932 0.217207701 0.048201709 -0.974934567 0 0
-3.054972 0.118358 -0.068307 -0.456517508 -0.136805247 -0.879133715 0 0
-3.048455 0.02959 -0.055755 -0.455114505 -0.157305013 -0.876427932 0 0
-3.059776 0.207126 -0.077559 -0.46024321 0.0482045257 -0.886483227 0 0
-3.125225 0.118358 0.008199 -0.914812222 -0.136801828 -0.380005077 0 0
-3.112164 0.02959 0.013625 -0.911976061 -0.157295871 -0.378890054 0 0
-3.134852 0.207126 0.004199 -0.922405885 0.0482003075 -0.383202445 0 0
-2.844774 0.118358 0.124712 0.914812222 -0.136801828 0.380005077 0 0
-2.857834 0.02959 0.119286 0.911976061 -0.157295871 0.378890054 0 0
-2.835146 0.207126 0.128711 0.922405885 0.0482003075 0.383202445 0 0
-3.129865 0.118358 0.111964 -0.945052523 -0.136807603 0.296916502 0 0
-3.116372 0.02959 0.107725 -0.942169483 -0.157311601 0.295921824 0 0
-3.139811 0.207126 0.115088 -0.952937099 0.0482018765 0.299311652 0 0
-3.06672 0.118358 0.194434 -0.533108567 -0.136802198 0.834913417 0 0
-3.059109 0.02959 0.182514 -0.531510941 -0.157303238 0.832317133 0 0
-3.072331 0.207126 0.203221 -0.537609613 0.0482008618 0.841815052 0 0
-2.840134 0.118358 0.020947 0.945052523 -0.136807603 -0.296916502 0 0
-2.853626 0.02959 0.025186 0.942169483 -0.157311601 -0.295921824 0 0
-2.830188 0.207126 0.017822 0.952937099 0.0482018765 -0.299311652 0 0
-2.841091 0.236716 0.126241 0.918132218 0.107503772 0.381413384 0 0
-2.832878 0.236716 0.100348 0.970412203 0.107501352 0.216202719 0 0
-2.853644 0.236716 0.150332 0.837914802 0.107501899 0.535109453 0 0
-2.953585 0.235156 -0.074543 -0.216908032 -0.0692025626 0.973736058 0 0
-2.978545 0.246234 -0.077873 -0.0329018159 0.676137317 0.736040623 0 0
-2.978545 0.235156 -0.077873 -0.0446002373 -0.0692003681 0.996605302 0 0
-2.953585 0.246234 -0.074543 -0.160304962 0.67582092 0.71942227 0 0
-3.113218 0.235156 0.13303 0.885358073 -0.0692045393 -0.459730155 0 0
-3.099696 0.246234 0.154274 0.585212205 0.675814094 -0.448109345 0 0
-3.099696 0.235156 0.154274 0.792078891 -0.0691981559 -0.606483837 0 0
-3.113218 0.246234 0.13303 0.653914167 0.676114648 -0.339507356 0 0
-3.133669 0.236716 0.113159 -0.948494072 0.107499328 0.297998138 0 0
-3.123317 0.236716 0.138274 -0.882359495 0.107507249 0.458130891 0 0
-3.139538 0.236716 0.086635 -0.985838655 0.107504215 0.128705047 0 0
-3.108729 0.236716 0.16119 -0.789396854 0.107499572 0.604397591 0 0
-3.123317 0.247794 0.138274 -0.60349576 0.733194849 0.313397798 0 0
-3.108729 0.247794 0.16119 -0.539691209 0.733488052 0.413193269 0 0
-3.079745 0.236716 -0.05729 -0.604397591 0.107499572 -0.789396854 0 0
-3.056809 0.247794 -0.071846 -0.31320521 0.733512202 -0.603210034 0 0
-3.056809 0.236716 -0.071846 -0.458130891 0.107507249 -0.882359495 0 0
-3.079745 0.247794 -0.05729 -0.413405414 0.733209601 -0.53990707 0 0
-3.068866 0.236716 0.197795 -0.535109453 0.107501899 0.837914802 0 0
-3.044792 0.236716 0.21038 -0.381413384 0.107503772 0.918132218 0 0
-3.090412 0.236716 0.18125 -0.672419736 0.107503155 0.732321494 0 0
-2.843984 0.235156 0.097873 -0.973736058 -0.0692025626 -0.216908032 0 0
-2.840688 0.246234 0.072908 -0.73632734 0.675825094 -0.0329012216 0 0
-2.840688 0.235156 0.072908 -0.996605302 -0.0692003681 -0.0446002373 0 0
-2.843984 0.246234 0.097873 -0.719191409 0.676091924 -0.160198086 0 0
-2.846682 0.236716 -0.005363 0.882359495 0.107507249 -0.458130891 0 0
-2.836329 0.247794 0.019752 0.648419939 0.733522556 -0.203706264 0 0
-2.836329 0.236716 0.019752 0.948494072 0.107499328 -0.297998138 0 0
-2.846682 0.247794 -0.005363 0.60349576 0.733194849 -0.313397798 0 0
-2.83046 0.236716 0.046275 0.985838655 0.107504215 -0.128705047 0 0
-3.118401 0.235156 0.011034 0.921265702 -0.0692049355 0.382727295 0 0
-3.126014 0.246234 0.035037 0.719191409 0.676091924 0.160198086 0 0
-3.126014 0.235156 0.035037 0.973736058 -0.0692025626 0.216908032 0 0
-3.118401 0.246234 0.011034 0.680688439 0.675788522 0.282795197 0 0
-2.9417 0.235156 0.204287 -0.299011582 -0.0692026806 -0.951736866 0 0
-2.918432 0.246234 0.194659 -0.339620274 0.675840345 -0.65413905 0 0
-2.918432 0.235156 0.194659 -0.459730155 -0.0692045393 -0.885358073 0 0
-2.9417 0.246234 0.204287 -0.220807479 0.676122901 -0.702923808 0 0
-2.964822 0.236716 0.220976 0.128705047 0.107504215 0.985838655 0 0
-2.93829 0.236716 0.215142 0.297998138 0.107499328 0.948494072 0 0
-2.991961 0.236716 0.222151 -0.0444005805 0.107501406 0.993212986 0 0
-3.140676 0.236716 0.059494 -0.993212986 0.107501406 -0.0444005805 0 0
-3.13712 0.247794 0.032563 -0.663715153 0.73321674 -0.147903377 0 0
-3.13712 0.236716 0.032563 -0.970412203 0.107501352 -0.216202719 0 0
-3.140676 0.247794 0.059494 -0.679006335 0.733506844 -0.0303002827 0 0
-2.890253 0.236716 0.1902 0.604397591 0.107499572 0.789396854 0 0
-2.913189 0.247794 0.204756 0.31320521 0.733512202 0.603210034 0 0
-2.913189 0.236716 0.204756 0.458130891 0.107507249 0.882359495 0 0
-2.890253 0.247794 0.1902 0.413405414 0.733209601 0.53990707 0 0
-2.901132 0.236716 -0.064885 0.535109453 0.107501899 -0.837914802 0 0
-2.925206 0.236716 -0.07747 0.381413384 0.107503772 -0.918132218 0 0
-2.879587 0.236716 -0.048339 0.672419736 0.107503155 -0.732321494 0 0
-2.929571 0.235156 -0.066962 -0.382727295 -0.0692049355 0.921265702 0 0
-2.929571 0.246234 -0.066962 -0.282703582 0.676108566 0.680408621 0 0
-3.133669 0.247794 0.113159 -0.648419939 0.733522556 0.203706264 0 0
-2.870218 0.236716 0.171855 0.732321494 0.107503155 0.672419736 0 0
-3.062743 0.235156 0.188206 0.536901372 -0.0692001768 -0.840802148 0 0
-3.040427 0.246234 0.199872 0.282703582 0.676108566 -0.680408621 0 0
-3.040427 0.235156 0.199872 0.382727295 -0.0692049355 -0.921265702 0 0
-3.062743 0.246234 0.188206 0.39670675 0.675811499 -0.62121057 0 0
-3.005177 0.236716 -0.088066 -0.128705047 0.107504215 -0.985838655 0 0
-2.978037 0.247794 -0.08924 0.0304006857 0.733216538 -0.679315322 0 0
-2.978037 0.236716 -0.08924 0.0444005805 0.107501406 -0.993212986 0 0
-3.005177 0.247794 -0.088066 -0.088004072 0.733533941 -0.673931184 0 0
-3.031708 0.236716 -0.082232 -0.297998138 0.107499328 -0.948494072 0 0
-2.847184 0.235156 0.023162 -0.951736866 -0.0692026806 0.299011582 0 0
-2.85678 0.246234 -0.00012 -0.653914167 0.676114648 0.339507356 0 0
-2.85678 0.235156 -0.00012 -0.885358073 -0.0692045393 0.459730155 0 0
-2.847184 0.246234 0.023162 -0.70320257 0.67580247 0.220900807 0 0
-3.018888 0.247794 0.218559 -0.147802465 0.733512231 0.663411062 0 0
-3.018888 0.236716 0.218559 -0.216202719 0.107501352 0.970412203 0 0
-2.991961 0.247794 0.222151 -0.0304006857 0.733216538 0.679315322 0 0
-3.09978 0.236716 -0.038945 -0.732321494 0.107503155 -0.672419736 0 0
-3.116354 0.236716 -0.017422 -0.837914802 0.107501899 -0.535109453 0 0
-3.106765 0.235156 -0.011298 0.840802148 -0.0692001768 0.536901372 0 0
-3.106765 0.246234 -0.011298 0.621011035 0.676112015 0.396507046 0 0
-2.878598 0.235156 0.16416 -0.734822129 -0.0692020841 -0.67472032 0 0
-2.863234 0.246234 0.144209 -0.621011035 0.676112015 -0.396507046 0 0
-2.863234 0.235156 0.144209 -0.840802148 -0.0692001768 -0.536901372 0 0
-2.878598 0.246234 0.16416 -0.542914035 0.67581747 -0.498512887 0 0
-2.879587 0.247794 -0.048339 0.459902056 0.733203277 -0.500902239 0 0
-2.901132 0.247794 -0.064885 0.365812487 0.733525039 -0.572819554 0 0
-3.003704 0.235156 -0.076784 0.129200134 -0.069200072 0.989201029 0 0
-3.028298 0.246234 -0.071376 0.220807479 0.676122901 0.702923808 0 0
-3.028298 0.235156 -0.071376 0.299011582 -0.0692026806 0.951736866 0 0
-3.003704 0.246234 -0.076784 0.0953989692 0.675792698 0.730892103 0 0
-2.829322 0.236716 0.073416 0.993212986 0.107501406 0.0444005805 0 0
-3.082716 0.235156 0.172869 0.67472032 -0.0692020841 -0.734822129 0 0
-3.082716 0.246234 0.172869 0.4983156 0.676121166 -0.54271699 0 0
-2.829322 0.247794 0.073416 0.679006335 0.733506844 0.0303002827 0 0
-2.83046 0.247794 0.046275 0.674297731 0.733197533 -0.0879997039 0 0
-3.031708 0.247794 -0.082232 -0.203807299 0.733226261 -0.648723234 0 0
-2.841743 0.235156 0.047749 -0.989201029 -0.069200072 0.129200134 0 0
-2.841743 0.246234 0.047749 -0.730604117 0.67610381 0.0954005376 0 0
-3.129311 0.235156 0.060002 0.996605302 -0.0692003681 0.0446002373 0 0
-3.128256 0.246234 0.085162 0.730604117 0.67610381 -0.0954005376 0 0
-3.128256 0.235156 0.085162 0.989201029 -0.069200072 -0.129200134 0 0
-3.129311 0.246234 0.060002 0.73632734 0.675825094 0.0329012216 0 0
-2.861269 0.236716 -0.02828 0.789396854 0.107499572 -0.604397591 0 0
-2.897171 0.235156 0.181166 -0.606483837 -0.0691981559 -0.792078891 0 0
-2.897171 0.246234 0.181166 -0.447911059 0.676116694 -0.585014444 0 0
-3.09978 0.247794 -0.038945 -0.500613342 0.733519549 -0.459712251 0 0
-3.116354 0.247794 -0.017422 -0.573105201 0.733206654 -0.366003321 0 0
-2.93829 0.247794 0.215142 0.203807299 0.733226261 0.648723234 0 0
-2.951111 0.236716 -0.085648 0.216202719 0.107501352 -0.970412203 0 0
-3.016414 0.235156 0.207454 0.216908032 -0.0692025626 -0.973736058 0 0
-2.991453 0.246234 0.210784 0.0329018159 0.676137317 -0.736040623 0 0
-2.991453 0.235156 0.210784 0.0446002373 -0.0692003681 -0.996605302 0 0
-3.016414 0.246234 0.207454 0.160304962 0.67582092 -0.71942227 0 0
-3.139538 0.247794 0.086635 -0.674297731 0.733197533 0.0879997039 0 0
-2.870218 0.247794 0.171855 0.500613342 0.733519549 0.459712251 0 0
-2.853644 0.247794 0.150332 0.573105201 0.733206654 0.366003321 0 0
-2.870302 0.235156 -0.021363 -0.792078891 -0.0691981559 0.606483837 0 0
-2.887283 0.246234 -0.039958 -0.4983156 0.676121166 0.54271699 0 0
-2.887283 0.235156 -0.039958 -0.67472032 -0.0692020841 0.734822129 0 0
-2.870302 0.246234 -0.021363 -0.585212205 0.675814094 0.448109345 0 0
-3.128907 0.236716 0.006669 -0.918132218 0.107503772 -0.381413384 0 0
-3.044792 0.247794 0.21038 -0.260895428 0.733187151 0.627988995 0 0
-3.016555 0.230477 0.208088 0.194504914 0.57191445 -0.796920134 0 0
-2.991482 0.230477 0.211433 0.0433009723 0.543612207 -0.838218822 0 0
-3.040676 0.230477 0.200473 0.314202627 0.581004857 -0.750806277 0 0
-2.869786 0.230477 -0.021758 -0.641127021 0.571924104 0.511721567 0 0
-2.886843 0.230477 -0.040437 -0.548918384 0.581019459 0.600920125 0 0
-2.856203 0.230477 -0.000419 -0.742219517 0.543614295 0.391910305 0 0
-2.918132 0.230477 0.195236 -0.39149569 0.531594147 -0.751091731 0 0
-2.896775 0.230477 0.181682 -0.515418584 0.5408195 -0.664723967 0 0
-2.941506 0.230477 0.204907 -0.253613244 0.530827721 -0.808642228 0 0
-2.953444 0.230477 -0.075178 -0.183298125 0.545394421 0.817891633 0 0
-2.978516 0.230477 -0.078523 -0.0397003688 0.542205037 0.839307797 0 0
-2.929322 0.230477 -0.067562 -0.324805319 0.556109106 0.765012527 0 0
-3.051866 0.230477 -0.062326 0.386500128 0.547500181 0.742200245 0 0
-3.072828 0.235156 -0.048255 0.606483837 -0.0691981559 0.792078891 0 0
-3.073223 0.230477 -0.048771 0.509520875 0.559022904 0.6541268 0 0
-3.051567 0.235156 -0.061749 0.459730155 -0.0692045393 0.885358073 0 0
-3.028493 0.230477 -0.071997 0.254298797 0.543597429 0.799896216 0 0
-3.119001 0.230477 0.010785 0.745106028 0.581504704 0.326602642 0 0
-3.126649 0.230477 0.034896 0.80778859 0.558992104 0.187097357 0 0
-3.107312 0.230477 -0.011648 0.682124195 0.587320833 0.435615452 0 0
-2.850997 0.230477 0.122126 -0.755175574 0.566581674 -0.329689336 0 0
-2.843349 0.230477 0.098015 -0.819897106 0.540798091 -0.187899337 0 0
-2.851598 0.235156 0.121877 -0.921265702 -0.0692049355 -0.382727295 0 0
-2.862686 0.230477 0.144558 -0.690215965 0.573913275 -0.440710194 0 0
-3.123435 0.230477 0.109944 0.803577074 0.53908462 -0.252292802 0 0
-3.113795 0.230477 0.13333 0.744715736 0.542211457 -0.389108222 0 0
-3.122815 0.235156 0.109749 0.951736866 -0.0692026806 -0.299011582 0 0
-3.1289 0.230477 0.085246 0.832643211 0.543628212 -0.105705486 0 0
-3.063093 0.230477 0.188754 0.427914059 0.576818952 -0.695822862 0 0
-3.083155 0.230477 0.173348 0.557327101 0.556127042 -0.616529979 0 0
-2.846564 0.230477 0.022967 -0.806650345 0.533133274 0.255115922 0 0
-2.841098 0.230477 0.047664 -0.840310613 0.530806704 0.110101391 0 0
-2.966211 0.230477 0.210339 -0.107903948 0.533119505 -0.8391307 0 0
-2.966295 0.235156 0.209695 -0.129200134 -0.069200072 -0.989201029 0 0
-2.906905 0.230477 -0.055844 -0.451221549 0.576827547 0.680932519 0 0
-2.907255 0.235156 -0.055296 -0.536901372 -0.0692001768 0.840802148 0 0
-2.878119 0.230477 0.1646 -0.616824214 0.566622243 -0.546321446 0 0
-3.003788 0.230477 -0.077429 0.109202978 0.539114702 0.835122774 0 0
-3.091879 0.230477 -0.031689 0.609805933 0.581505658 0.53850524 0 0
-3.0914 0.235156 -0.03125 0.734822129 -0.0692020841 0.67472032 0 0
-3.12996 0.230477 0.059973 0.835916877 0.547511054 0.0384007753 0 0
-2.840038 0.230477 0.072937 -0.846091366 0.531594575 -0.0391996 0 0
-3.100212 0.230477 0.154669 0.664823814 0.545419537 -0.510418284 0 0
-2.96778 0 0.198324 0.0866009803 -0.743408415 0.663207508 0 0
-2.990941 0 0.199326 -0.0299002411 -0.743105993 0.668505392 0 0
-2.945138 0 0.193345 0.20050477 -0.743117679 0.638415188 0 0
-2.949838 0 0.178383 0 -1 0 0 0
-2.972085 0 0.165357 0 -1 0 0 0
-2.99024 0 0.183659 0 -1 0 0 0
-2.913427 0 -0.045631 0.359999775 -0.743399535 -0.563699648 0 0
-2.89504 0 -0.031511 0.452601181 -0.74310194 -0.492901286 0 0
-2.933971 0 -0.056371 0.256713746 -0.743139792 -0.617933088 0 0
-2.939988 0 -0.041888 0 -1 0 0 0
-2.93132 0 -0.017609 0 -1 0 0 0
-2.905648 0 -0.019959 0 -1 0 0 0
-2.887045 0 0.156404 0.492684577 -0.743376729 0.452385838 0 0
-2.904143 0 0.17206 0.406807416 -0.743113547 0.531309686 0 0
-2.8729 0 0.138036 0.564009695 -0.743112774 0.36010619 0 0
-2.886118 0 0.129596 0 -1 0 0 0
-2.911533 0 0.133917 0 -1 0 0 0
-2.913677 0 0.159607 0 -1 0 0 0
-3.002219 0 -0.065413 -0.0866009803 -0.743408415 -0.663207508 0 0
-2.979058 0 -0.066416 0.0299002411 -0.743105993 -0.668505392 0 0
-3.024861 0 -0.060435 -0.20050477 -0.743117679 -0.638415188 0 0
-3.02016 0 -0.045473 0 -1 0 0 0
-2.997914 0 -0.032446 0 -1 0 0 0
-2.979758 0 -0.050748 0 -1 0 0 0
-3.082954 0 -0.023494 -0.492684577 -0.743376729 -0.452385838 0 0
-3.065856 0 -0.039149 -0.406807416 -0.743113547 -0.531309686 0 0
-3.097098 0 -0.005126 -0.564009695 -0.743112774 -0.36010619 0 0
-3.08388 0 0.003315 0 -1 0 0 0
-3.058465 0 -0.001006 0 -1 0 0 0
-3.056322 0 -0.026697 0 -1 0 0 0
-3.117855 0 0.060515 -0.668190375 -0.743389292 -0.0298995693 0 0
-3.11482 0 0.037531 -0.653130218 -0.743134382 -0.145506732 0 0
-3.116883 0 0.083677 -0.663523416 -0.743126225 0.0866030563 0 0
-3.101332 0 0.081646 0 -1 0 0 0
-3.084641 0 0.062 0 -1 0 0 0
-3.099512 0 0.040942 0 -1 0 0 0
-2.852144 0 0.072396 0.668192369 -0.743391511 0.0297996597 0 0
-2.855178 0 0.095379 0.653130218 -0.743134382 0.145506732 0 0
-2.853115 0 0.049234 0.663523416 -0.743126225 -0.0866030563 0 0
-2.868666 0 0.051264 0 -1 0 0 0
-2.885358 0 0.070911 0 -1 0 0 0
-2.870486 0 0.091969 0 -1 0 0 0
-3.090591 0 0.147302 -0.531130366 -0.743342498 0.406623247 0 0
-3.10304 0 0.127745 -0.593892464 -0.74309057 0.308396086 0 0
-3.074959 0 0.164421 -0.452601181 -0.74310194 0.492901286 0 0
-3.064351 0 0.15287 0 -1 0 0 0
-3.064193 0 0.12709 0 -1 0 0 0
-3.089121 0 0.120518 0 -1 0 0 0
-3.01392 0 0.196261 -0.145493291 -0.743365724 0.652869897 0 0
-3.036027 0 0.189281 -0.256713746 -0.743139792 0.617933088 0 0
-3.00669 0 0.163809 0 -1 0 0 0
-3.03001 0 0.174798 0 -1 0 0 0
-2.879407 0 -0.014392 0.531090884 -0.74338724 -0.406593021 0 0
-2.866959 0 0.005165 0.593892464 -0.74309057 -0.308396086 0 0
-2.905805 0 0.00582 0 -1 0 0 0
-2.880877 0 0.012392 0 -1 0 0 0
-2.923716 0 0.184482 0.30820127 -0.743403063 0.593602446 0 0
-2.939037 0 0.154975 0 -1 0 0 0
-2.956079 0 -0.06335 0.145493291 -0.743365724 -0.652869897 0 0
-2.963309 0 -0.030899 0 -1 0 0 0
-3.046282 0 -0.051571 -0.30820127 -0.743403063 -0.593602446 0 0
-3.030962 0 -0.022065 0 -1 0 0 0
-3.107811 0 0.015434 -0.61768752 -0.74338498 -0.256594816 0 0
-3.077108 0 0.028189 0 -1 0 0 0
-2.862188 0 0.117477 0.61768752 -0.74338498 0.256594816 0 0
-2.89289 0 0.104722 0 -1 0 0 0
-3.111874 0 0.106312 -0.638107871 -0.74340917 0.200402472 0 0
-3.080156 0 0.096348 0 -1 0 0 0
-3.056572 0 0.178541 -0.359999775 -0.743399535 0.563699648 0 0
-3.038679 0 0.15052 0 -1 0 0 0
-2.858124 0 0.026598 0.638107871 -0.74340917 -0.200402472 0 0
-2.889843 0 0.036563 0 -1 0 0 0
-2.984999 0 0.066455 0 -1 0 0 0
-2.841091 0.247794 0.126241 0.627685507 0.733483064 0.260793978 0 0
-2.851598 0.246234 0.121877 -0.680688439 0.675788522 -0.282795197 0 0
-2.832878 0.247794 0.100348 0.663715153 0.73321674 0.147903377 0 0
-3.122815 0.246234 0.109749 0.70320257 0.67580247 -0.220900807 0 0
-3.068866 0.247794 0.197795 -0.365812487 0.733525039 0.572819554 0 0
-3.090412 0.247794 0.18125 -0.459902056 0.733203277 0.500902239 0 0
-2.964822 0.247794 0.220976 0.088004072 0.733533941 0.673931184 0 0
-2.966295 0.246234 0.209695 -0.0953989692 0.675792698 -0.730892103 0 0
-2.907255 0.246234 -0.055296 -0.39670675 0.675811499 0.62121057 0 0
-2.925206 0.247794 -0.07747 0.260895428 0.733187151 -0.627988995 0 0
-3.072828 0.246234 -0.048255 0.447911059 0.676116694 0.585014444 0 0
-3.0914 0.246234 -0.03125 0.542914035 0.67581747 0.498512887 0 0
-2.861269 0.247794 -0.02828 0.539691209 0.733488052 -0.413193269 0 0
-2.951111 0.247794 -0.085648 0.147802465 0.733512231 -0.663411062 0 0
-3.051567 0.246234 -0.061749 0.339620274 0.675840345 0.65413905 0 0
-3.128907 0.247794 0.006669 -0.627685507 0.733483064 -0.260793978 0 0
3 0 1 2
3 0 3 1
3 0 4 3
3 0 5 4
3 0 6 5
3 0 7 6
3 0 8 7
3 0 2 8
3 9 10 11
3 9 12 10
3 9 13 12
3 9 14 13
3 9 15 14
3 9 16 15
3 9 17 16
3 9 11 17
3 18 19 20
3 18 21 19
3 18 22 21
3 18 23 22
3 18 24 23
3 18 25 24
3 18 26 25
3 18 20 26
3 27 28 29
3 27 30 28
3 27 31 30
3 27 32 31
3 27 33 32
3 27 34 33
3 27 35 34
3 27 29 35
3 36 37 38
3 36 39 37
3 36 40 39
3 36 41 40
3 36 42 41
3 36 43 42
3 36 44 43
3 36 38 44
3 45 46 47
3 45 48 46
3 45 49 48
3 45 50 49
3 45 51 50
3 45 52 51
3 45 53 52
3 45 47 53
3 54 55 56
3 54 57 55
3 54 58 57
3 54 59 58
3 54 60 59
3 54 61 60
3 54 62 61
3 54 56 62
3 63 64 65
3 63 66 64
3 63 67 66
3 63 68 67
3 63 69 68
3 63 70 69
3 63 71 70
3 63 65 71
3 72 4 5
3 72 73 4
3 72 74 73
3 72 75 74
3 72 76 75
3 72 77 76
3 72 6 77
3 72 5 6
3 78 13 14
3 78 79 13
3 78 80 79
3 78 81 80
3 78 82 81
3 78 83 82
3 78 15 83
3 78 14 15
3 84 22 23
3 84 85 22
3 84 1 85
3 84 2 1
3 84 8 2
3 84 86 8
3 84 24 86
3 84 23 24
3 87 31 32
3 87 88 31
3 87 10 88
3 87 11 10
3 87 17 11
3 87 89 17
3 87 33 89
3 87 32 33
3 90 40 41
3 90 91 40
3 90 28 91
3 90 29 28
3 90 35 29
3 90 92 35
3 90 42 92
3 90 41 42
3 93 49 50
3 93 94 49
3 93 37 94
3 93 38 37
3 93 44 38
3 93 95 44
3 93 51 95
3 93 50 51
3 96 58 59
3 96 97 58
3 96 19 97
3 96 20 19
3 96 26 20
3 96 98 26
3 96 60 98
3 96 59 60
3 99 67 68
3 99 100 67
3 99 46 100
3 99 47 46
3 99 53 47
3 99 101 53
3 99 69 101
3 99 68 69
3 102 74 75
3 102 103 74
3 102 64 103
3 102 65 64
3 102 71 65
3 102 104 71
3 102 76 104
3 102 75 76
3 105 80 81
3 105 106 80
3 105 55 106
3 105 56 55
3 105 62 56
3 105 107 62
3 105 82 107
3 105 81 82
3 108 60 109
3 108 98 60
3 108 26 98
3 108 110 26
3 111 112 113
3 111 114 112
3 115 116 117
3 115 118 116
3 119 69 120
3 119 101 69
3 119 53 101
3 119 121 53
3 122 123 120
3 122 124 123
3 125 126 127
3 125 128 126
3 129 76 130
3 129 104 76
3 129 71 104
3 129 131 71
3 132 133 134
3 132 135 133
3 136 137 138
3 136 139 137
3 138 82 136
3 138 107 82
3 138 62 107
3 138 140 62
3 141 142 143
3 141 144 142
3 145 146 147
3 145 148 146
3 149 8 150
3 149 7 8
3 149 6 7
3 149 151 6
3 152 153 154
3 152 155 153
3 156 157 158
3 156 159 157
3 160 17 161
3 160 16 17
3 160 15 16
3 160 162 15
3 163 114 111
3 163 164 114
3 120 165 119
3 120 123 165
3 166 26 110
3 166 25 26
3 166 24 25
3 166 156 24
3 167 168 169
3 167 170 168
3 171 172 173
3 171 174 172
3 171 35 175
3 171 34 35
3 171 33 34
3 171 173 33
3 176 177 178
3 176 179 177
3 151 180 181
3 151 182 180
3 183 44 184
3 183 43 44
3 183 42 43
3 183 125 42
3 185 144 141
3 185 186 144
3 187 188 189
3 187 190 188
3 152 53 121
3 152 52 53
3 152 51 52
3 152 154 51
3 160 191 162
3 160 192 191
3 193 194 195
3 193 196 194
3 197 62 140
3 197 61 62
3 197 60 61
3 197 109 60
3 198 170 167
3 198 199 170
3 140 200 197
3 140 201 200
3 122 71 131
3 122 70 71
3 122 69 70
3 122 120 69
3 127 202 175
3 127 126 202
3 203 179 176
3 203 204 179
3 181 6 151
3 181 77 6
3 181 76 77
3 181 130 76
3 205 206 207
3 205 208 206
3 138 201 140
3 138 137 201
3 209 15 162
3 209 83 15
3 209 82 83
3 209 136 82
3 210 190 187
3 210 211 190
3 184 212 183
3 184 213 212
3 158 24 156
3 158 86 24
3 158 8 86
3 158 150 8
3 158 214 150
3 158 157 214
3 113 196 193
3 113 112 196
3 215 33 173
3 215 89 33
3 215 17 89
3 215 161 17
3 216 217 218
3 216 219 217
3 119 220 121
3 119 165 220
3 127 42 125
3 127 92 42
3 127 35 92
3 127 175 35
3 110 221 166
3 110 222 221
3 223 224 225
3 223 226 224
3 227 51 154
3 227 95 51
3 227 44 95
3 227 184 44
3 143 208 205
3 143 142 208
3 181 228 130
3 181 180 228
3 229 218 230
3 229 216 218
3 229 169 216
3 229 231 169
3 232 225 233
3 232 223 225
3 232 178 223
3 232 234 178
3 235 210 236
3 235 147 210
3 235 145 147
3 235 237 145
3 238 113 239
3 238 111 113
3 238 163 111
3 238 240 163
3 241 242 243
3 241 244 242
3 241 195 244
3 241 245 195
3 246 143 247
3 246 141 143
3 246 185 141
3 246 248 185
3 249 132 250
3 249 251 132
3 249 189 251
3 249 252 189
3 253 115 254
3 253 255 115
3 253 207 255
3 253 256 207
3 257 169 231
3 257 167 169
3 257 198 167
3 257 258 198
3 259 178 234
3 259 176 178
3 259 203 176
3 259 260 203
3 261 145 237
3 261 262 145
3 261 218 262
3 261 230 218
3 263 163 240
3 263 264 163
3 263 225 264
3 263 233 225
3 265 189 252
3 265 187 189
3 265 210 187
3 265 236 210
3 266 195 245
3 266 193 195
3 266 113 193
3 266 239 113
3 267 185 248
3 267 268 185
3 267 242 268
3 267 243 242
3 269 207 256
3 269 205 207
3 269 143 205
3 269 247 143
3 270 203 260
3 270 134 203
3 270 132 134
3 270 250 132
3 271 198 258
3 271 117 198
3 271 115 117
3 271 254 115
3 272 4 273
3 272 3 4
3 272 1 3
3 272 274 1
3 272 275 274
3 272 276 275
3 272 277 276
3 272 273 277
3 278 13 279
3 278 12 13
3 278 10 12
3 278 280 10
3 278 281 280
3 278 282 281
3 278 283 282
3 278 279 283
3 284 22 285
3 284 21 22
3 284 19 21
3 284 286 19
3 284 287 286
3 284 288 287
3 284 289 288
3 284 285 289
3 290 31 291
3 290 30 31
3 290 28 30
3 290 292 28
3 290 293 292
3 290 294 293
3 290 295 294
3 290 291 295
3 296 40 297
3 296 39 40
3 296 37 39
3 296 298 37
3 296 299 298
3 296 300 299
3 296 301 300
3 296 297 301
3 302 49 303
3 302 48 49
3 302 46 48
3 302 304 46
3 302 305 304
3 302 306 305
3 302 307 306
3 302 303 307
3 308 58 309
3 308 57 58
3 308 55 57
3 308 310 55
3 308 311 310
3 308 312 311
3 308 313 312
3 308 309 313
3 314 67 315
3 314 66 67
3 314 64 66
3 314 316 64
3 314 317 316
3 314 318 317
3 314 319 318
3 314 315 319
3 320 74 321
3 320 73 74
3 320 4 73
3 320 273 4
3 320 277 273
3 320 322 277
3 320 323 322
3 320 321 323
3 324 80 325
3 324 79 80
3 324 13 79
3 324 279 13
3 324 283 279
3 324 326 283
3 324 327 326
3 324 325 327
3 328 1 274
3 328 85 1
3 328 22 85
3 328 285 22
3 328 289 285
3 328 329 289
3 328 275 329
3 328 274 275
3 330 10 280
3 330 88 10
3 330 31 88
3 330 291 31
3 330 295 291
3 330 331 295
3 330 281 331
3 330 280 281
3 332 28 292
3 332 91 28
3 332 40 91
3 332 297 40
3 332 301 297
3 332 333 301
3 332 293 333
3 332 292 293
3 334 37 298
3 334 94 37
3 334 49 94
3 334 303 49
3 334 307 303
3 334 335 307
3 334 299 335
3 334 298 299
3 336 19 286
3 336 97 19
3 336 58 97
3 336 309 58
3 336 313 309
3 336 337 313
3 336 287 337
3 336 286 287
3 338 46 304
3 338 100 46
3 338 67 100
3 338 315 67
3 338 319 315
3 338 339 319
3 338 305 339
3 338 304 305
3 340 64 316
3 340 103 64
3 340 74 103
3 340 321 74
3 340 323 321
3 340 341 323
3 340 317 341
3 340 316 317
3 342 55 310
3 342 106 55
3 342 80 106
3 342 325 80
3 342 327 325
3 342 343 327
3 342 311 343
3 342 310 311
3 344 289 329
3 344 288 289
3 344 287 288
3 344 337 287
3 344 313 337
3 344 312 313
3 344 311 312
3 344 343 311
3 344 327 343
3 344 326 327
3 344 283 326
3 344 282 283
3 344 281 282
3 344 331 281
3 344 295 331
3 344 294 295
3 344 293 294
3 344 333 293
3 344 301 333
3 344 300 301
3 344 299 300
3 344 335 299
3 344 307 335
3 344 306 307
3 344 305 306
3 344 339 305
3 344 319 339
3 344 318 319
3 344 317 318
3 344 341 317
3 344 323 341
3 344 322 323
3 344 277 322
3 344 276 277
3 344 275 276
3 344 329 275
3 345 188 222
3 345 346 188
3 345 135 346
3 345 347 135
3 165 206 220
3 165 348 206
3 165 118 348
3 165 123 118
3 349 199 350
3 349 170 199
3 349 168 170
3 349 228 168
3 137 204 201
3 137 179 204
3 137 177 179
3 137 139 177
3 351 217 182
3 351 352 217
3 351 148 352
3 351 214 148
3 192 224 191
3 192 353 224
3 192 164 353
3 192 354 164
3 221 211 159
3 221 190 211
3 221 188 190
3 221 222 188
3 174 112 172
3 174 196 112
3 174 194 196
3 174 202 194
3 212 355 128
3 212 356 355
3 212 186 356
3 212 213 186
3 155 142 153
3 155 208 142
3 155 206 208
3 155 220 206
3 200 135 347
3 200 133 135
3 200 204 133
3 200 201 204
3 124 118 123
3 124 116 118
3 124 199 116
3 124 350 199
3 180 168 228
3 180 219 168
3 180 217 219
3 180 182 217
3 357 177 139
3 357 226 177
3 357 224 226
3 357 191 224
3 157 148 214
3 157 146 148
3 157 211 146
3 157 159 211
3 358 164 354
3 358 114 164
3 358 112 114
3 358 172 112
3 126 194 202
3 126 359 194
3 126 355 359
3 126 128 355
3 360 186 213
3 360 144 186
3 360 142 144
3 360 153 142
3 161 192 160
3 161 354 192
3 108 222 110
3 108 345 222
3 147 211 210
3 147 146 211
3 242 356 268
3 242 355 356
3 209 139 136
3 209 357 139
3 134 204 203
3 134 133 204
3 175 174 171
3 175 202 174
3 129 350 131
3 129 349 350
3 117 199 198
3 117 116 199
3 225 353 264
3 225 224 353
3 215 354 161
3 215 358 354
3 121 155 152
3 121 220 155
3 218 352 262
3 218 217 352
3 268 186 185
3 268 356 186
3 149 182 151
3 149 351 182
3 189 346 251
3 189 188 346
3 227 213 184
3 227 360 213
3 131 124 122
3 131 350 124
3 207 348 255
3 207 206 348
3 264 164 163
3 264 353 164
3 166 159 156
3 166 221 159
3 109 345 108
3 109 347 345
3 262 148 145
3 262 352 148
3 195 359 244
3 195 194 359
3 162 357 209
3 162 191 357
3 251 135 132
3 251 346 135
3 183 128 125
3 183 212 128
3 130 349 129
3 130 228 349
3 255 118 115
3 255 348 118
3 178 226 223
3 178 177 226
3 173 358 215
3 173 172 358
3 197 347 109
3 197 200 347
3 169 219 216
3 169 168 219
3 244 355 242
3 244 359 355
3 150 351 149
3 150 214 351
3 154 360 227
3 154 153 360
