ply
format ascii 1.0
element vertex 81
property float x
property float y
property float z
property float nx
property float ny
property float nz
property float u
property float v
element face 124
property list uchar int vertex_indices
end_header
-3.016555 0.230477 0.208088 0.194504914 0.57191445 -0.796920134 0.078951 0.652909
-3.030886 0.227652 0.180379 0.0151996971 0.999080089 -0.0400992008 0.129356 0.565928
-3.040676 0.230477 0.200473 0.314202627 0.581004857 -0.750806277 0.057801 0.574187
-2.999099 0.226741 0.193881 0.028399909 0.997696802 -0.0615998026 0.147811 0.675679
-2.986659 0.22743 0.20076 0.00420023797 0.989156042 -0.146808318 0.150705 0.721398
-2.991482 0.230477 0.211433 0.0433009723 0.543612207 -0.838218822 0.113351 0.726808
-2.869786 0.230477 -0.021758 -0.641127021 0.571924104 0.511721567 0.957758 0.652909
-2.863857 0.22743 0.008447 -0.131408212 0.989161815 0.0655040935 0.886004 0.721398
-2.856203 0.230477 -0.000419 -0.742219517 0.543614295 0.391910305 0.923358 0.726808
-2.875331 0.226741 5.4e-05 -0.0438998817 0.997697311 0.0516998607 0.888898 0.675678
-2.900954 0.227652 -0.023102 -0.0299993505 0.99907837 0.0306993354 0.907353 0.565927
-2.886843 0.230477 -0.040437 -0.548918384 0.581019459 0.600920125 0.978908 0.574187
-2.918132 0.230477 0.195236 -0.39149569 0.531594147 -0.751091731 0.284553 0.897936
-2.944242 0.22743 0.195221 -0.046202102 0.988144957 -0.146406661 0.239311 0.826994
-2.941506 0.230477 0.204907 -0.253613244 0.530827721 -0.808642228 0.21775 0.851226
-2.928152 0.226741 0.184617 -0.0530005202 0.992909745 -0.106401044 0.296017 0.852304
-2.906279 0.22743 0.175509 -0.0884034222 0.988938283 -0.119104611 0.35869 0.895918
-2.896775 0.230477 0.181682 -0.515418584 0.5408195 -0.664723967 0.358406 0.932434
-2.953444 0.230477 -0.075178 -0.183298125 0.545394421 0.817891633 0.957757 0.33305
-2.938865 0.22737 -0.058171 -0.0518003779 0.990107223 0.130400951 0.936852 0.40214
-2.929322 0.230477 -0.067562 -0.324805319 0.556109106 0.765012527 0.978907 0.411771
-2.964773 0.226607 -0.060126 -0.0215017105 0.994479114 0.102708171 0.897228 0.328383
-2.980617 0.22737 -0.067474 -0.00580030856 0.988652593 0.150107985 0.889706 0.272606
-2.978516 0.230477 -0.078523 -0.0397003688 0.542205037 0.839307797 0.923358 0.25915
-3.051866 0.230477 -0.062326 0.386500128 0.547500181 0.742200245 0.752156 0.088023
-3.023033 0.22737 -0.061935 0.0434997927 0.988795288 0.14279932 0.8011 0.16701
-3.028493 0.230477 -0.071997 0.254298797 0.543597429 0.799896216 0.818959 0.134733
-3.03572 0.226607 -0.050862 0.0457004949 0.994810774 0.0909009845 0.749022 0.151758
-3.060997 0.22737 -0.042223 0.082201233 0.990414856 0.111001665 0.681721 0.098087
-3.073223 0.230477 -0.048771 0.509520875 0.559022904 0.6541268 0.678303 0.053525
-3.119001 0.230477 0.010785 0.745106028 0.581504704 0.326602642 0.437156 0.03248
-3.085768 0.227618 0.00211 0.0335003208 0.999209567 0.0214002049 0.518354 0.107697
-3.107312 0.230477 -0.011648 0.682124195 0.587320833 0.435615452 0.518354 0.025321
-3.104867 0.226607 0.034341 0.0411993421 0.998484054 0.0364994171 0.39769 0.11172
-3.115565 0.22737 0.043232 0.135301956 0.990414317 0.0278004019 0.354987 0.098087
-3.126649 0.230477 0.034896 0.80778859 0.558992104 0.187097357 0.358406 0.053525
-2.850997 0.230477 0.122126 -0.755175574 0.566581674 -0.329689336 0.599553 0.953479
-2.879278 0.227686 0.133963 -0.0376999416 0.998998452 -0.0240999626 0.518354 0.897198
-2.862686 0.230477 0.144558 -0.690215965 0.573913275 -0.440710194 0.518354 0.960637
-2.861787 0.226741 0.103772 -0.0554980693 0.997665292 -0.0397986154 0.630689 0.892342
-2.852947 0.22743 0.09199 -0.145304264 0.988929021 -0.0301008833 0.678019 0.895917
-2.843349 0.230477 0.098015 -0.819897106 0.540798091 -0.187899337 0.678303 0.932434
-3.123435 0.230477 0.109944 0.803577074 0.53908462 -0.252292802 0.16015 0.19241
-3.117476 0.22737 0.085966 0.1478007 0.988804682 -0.0205000971 0.235609 0.16701
-3.1289 0.230477 0.085246 0.832643211 0.543628212 -0.105705486 0.21775 0.134733
-3.108064 0.226607 0.105819 0.10880738 0.993467379 -0.0344023332 0.198012 0.227004
-3.104656 0.22737 0.126776 0.133707741 0.98865724 -0.0684039604 0.147003 0.272606
-3.113795 0.230477 0.13333 0.744715736 0.542211457 -0.389108222 0.113351 0.25915
-3.063093 0.230477 0.188754 0.427914059 0.576818952 -0.695822862 0.050751 0.492979
-3.078651 0.22737 0.16074 0.0965012787 0.990113119 -0.101801349 0.099857 0.40214
-3.083155 0.230477 0.173348 0.557327101 0.556127042 -0.616529979 0.057801 0.411771
-3.064567 0.226607 0.162628 0.0127000009 0.99840007 -0.0551000039 0.119153 0.443667
-2.846564 0.230477 0.022967 -0.806650345 0.533133274 0.255115922 0.876559 0.793549
-2.851037 0.22743 0.049257 -0.152305712 0.988137061 0.0197007389 0.797398 0.826994
-2.841098 0.230477 0.047664 -0.840310613 0.530806704 0.110101391 0.818959 0.851226
-2.858591 0.226741 0.032294 -0.112501142 0.99311008 0.0328003329 0.830367 0.777058
-2.966211 0.230477 0.210339 -0.107903948 0.533119505 -0.8391307 0.16015 0.793549
-2.962809 0.226741 0.195504 -0.0175001166 0.993106619 -0.115900772 0.206342 0.777058
-2.906905 0.230477 -0.055844 -0.451221549 0.576827547 0.680932519 0.985957 0.492979
-2.931226 0.226607 -0.046189 -0.0446000934 0.998402092 0.0347000727 0.917556 0.443667
-2.878119 0.230477 0.1646 -0.616824214 0.566622243 -0.546321446 0.437156 0.953479
-2.899309 0.226741 0.162533 -0.0594977837 0.997662838 -0.0335987485 0.40602 0.892342
-3.003788 0.230477 -0.077429 0.109202978 0.539114702 0.835122774 0.876559 0.19241
-3.001063 0.226607 -0.061749 0.0146009421 0.9934641 0.113207304 0.838697 0.227004
-3.091879 0.230477 -0.031689 0.609805933 0.581505658 0.53850524 0.599553 0.03248
-3.064563 0.226607 -0.028778 0.0504990784 0.998481778 0.0219995985 0.639019 0.11172
-3.12996 0.230477 0.059973 0.835916877 0.547511054 0.0384007753 0.284553 0.088023
-3.112767 0.226607 0.069798 0.101701008 0.994809864 0.00320003173 0.287687 0.151758
-2.840038 0.230477 0.072937 -0.846091366 0.531594575 -0.0391996 0.752156 0.897935
-2.853888 0.226741 0.068315 -0.118801461 0.992912208 -0.0034000418 0.740692 0.852304
-3.100212 0.230477 0.154669 0.664823814 0.545419537 -0.510418284 0.078951 0.33305
-3.091324 0.226607 0.138058 0.0841069198 0.994481819 -0.062705159 0.139481 0.328383
-2.878528 0.228014 0.055203 0.0572012662 0.998322098 -0.00900019922 0.733568 0.76264
-2.914789 0.231791 0.111288 0.0625029346 0.997246822 0.0399018734 0.518354 0.761423
-2.969706 0.236444 0.076221 0.00419994765 0.999987535 0.00269996635 0.518354 0.551453
-2.931837 0.231656 0.016436 0.037801186 0.997931311 -0.0520016316 0.746406 0.55062
-2.950414 0.228014 0.167779 0.0159003324 0.99832087 0.0557011644 0.303141 0.76264
-3.00801 0.231656 0.135727 -0.0313008993 0.997928671 0.0562016147 0.290303 0.55062
-2.995081 0.227474 -0.03149 -0.00650013969 0.999121471 -0.0414008897 0.766889 0.295731
-3.035399 0.231521 0.034273 -0.0468026489 0.998456509 -0.0299016923 0.518354 0.30028
-3.078096 0.227474 0.098516 -0.0403008635 0.999121406 0.0115002464 0.26982 0.295731
3 0 1 2
3 0 3 1
3 0 4 3
3 0 5 4
3 6 7 8
3 6 9 7
3 6 10 9
3 6 11 10
3 12 13 14
3 12 15 13
3 12 16 15
3 12 17 16
3 18 19 20
3 18 21 19
3 18 22 21
3 18 23 22
3 24 25 26
3 24 27 25
3 24 28 27
3 24 29 28
3 30 31 32
3 30 33 31
3 30 34 33
3 30 35 34
3 36 37 38
3 36 39 37
3 36 40 39
3 36 41 40
3 42 43 44
3 42 45 43
3 42 46 45
3 42 47 46
3 48 49 50
3 48 51 49
3 48 1 51
3 48 2 1
3 52 53 54
3 52 55 53
3 52 7 55
3 52 8 7
3 56 4 5
3 56 57 4
3 56 13 57
3 56 14 13
3 58 10 11
3 58 59 10
3 58 19 59
3 58 20 19
3 60 16 17
3 60 61 16
3 60 37 61
3 60 38 37
3 62 22 23
3 62 63 22
3 62 25 63
3 62 26 25
3 64 28 29
3 64 65 28
3 64 31 65
3 64 32 31
3 66 34 35
3 66 67 34
3 66 43 67
3 66 44 43
3 68 40 41
3 68 69 40
3 68 53 69
3 68 54 53
3 70 46 47
3 70 71 46
3 70 49 71
3 70 50 49
3 72 37 39
3 72 73 37
3 72 74 73
3 72 75 74
3 72 10 75
3 72 9 10
3 72 7 9
3 72 55 7
3 72 53 55
3 72 69 53
3 72 40 69
3 72 39 40
3 76 16 61
3 76 15 16
3 76 13 15
3 76 57 13
3 76 4 57
3 76 3 4
3 76 1 3
3 76 77 1
3 76 74 77
3 76 73 74
3 76 37 73
3 76 61 37
3 78 74 75
3 78 79 74
3 78 31 79
3 78 65 31
3 78 28 65
3 78 27 28
3 78 25 27
3 78 63 25
3 78 22 63
3 78 21 22
3 78 19 21
3 78 59 19
3 78 10 59
3 78 75 10
3 80 74 79
3 80 77 74
3 80 1 77
3 80 51 1
3 80 49 51
3 80 71 49
3 80 46 71
3 80 45 46
3 80 43 45
3 80 67 43
3 80 34 67
3 80 33 34
3 80 31 33
3 80 79 31
