ply
format ascii 1.0
element vertex 244
property float x
property float y
property float z
property float nx
property float ny
property float nz
property float u
property float v
element face 456
property list uchar int vertex_indices
end_header
-2.98609 0.265472 0.002078 0.809427294 0.306610339 -0.500816888 0 0
-2.968731 0.205753 0.005658 0.0793972092 -0.168694071 -0.982465467 0 0
-2.99369 0.260094 -0.005688 0.0751027135 -0.147305322 -0.986235633 0 0
-2.960088 0.211869 0.01449 0.822723357 0.285208097 -0.49171396 0 0
-2.958961 0.2156 0.027716 0.728581447 0.485587635 0.483087698 0 0
-2.985099 0.268754 0.013709 0.733591384 0.490194243 0.470694472 0 0
-3.009359 0.314041 0.003884 0.738125503 0.515517811 0.435215037 0 0
-3.010523 0.311445 -0.006457 0.749727898 0.398214818 -0.528519667 0 0
-3.017487 0.30691 -0.013281 0.0366993139 -0.0638988054 -0.997281356 0 0
-3.002746 0.257816 0.002047 -0.746508171 -0.442504843 -0.496905439 0 0
-2.982636 0.204716 0.027671 -0.844436472 -0.237510258 0.480120737 0 0
-3.005918 0.259183 0.013669 -0.83410676 -0.263302134 0.484703929 0 0
-2.979029 0.203162 0.014454 -0.75061034 -0.438006034 -0.494706815 0 0
-3.025373 0.304712 -0.006288 -0.736203309 -0.461602075 -0.494902225 0 0
-3.027923 0.305624 0.004096 -0.776622736 -0.375510993 0.505814808 0 0
-2.995872 0.264743 0.017564 -0.0860015721 0.199003638 0.976217845 0 0
-2.971212 0.211039 0.032101 -0.101295817 0.216291068 0.971059901 0 0
-3.018872 0.310417 0.007445 -0.0225002652 0.121701434 0.992311694 0 0
-3.031819 0.342157 -0.007241 0.675225105 0.484218004 -0.556420688 0 0
-3.038956 0.338672 -0.013367 -0.0867016413 0.0403007629 -0.995418843 0 0
-3.029866 0.343594 0.002426 0.766921405 0.474913255 0.431612046 0 0
-3.048534 0.374666 0.007982 0.834957861 0.31148428 0.453677103 0 0
-3.050968 0.37402 -0.001099 0.691618577 0.456612265 -0.559615031 0 0
-3.058147 0.371395 -0.006716 -0.164505042 0.141804346 -0.976129919 0 0
-3.045824 0.336093 -0.006476 -0.774318208 -0.422809942 -0.470811071 0 0
-3.047372 0.336015 0.003382 -0.721619307 -0.473312664 0.505213517 0 0
-3.064303 0.368755 -5e-05 -0.848819336 -0.282606438 -0.446810178 0 0
-3.065203 0.368085 0.009293 -0.743319434 -0.420911005 0.519913593 0 0
-3.038552 0.340031 0.006158 0.058997334 -0.034698432 0.997654917 0 0
-3.056613 0.371371 0.011708 0.0971055842 -0.144308299 0.98475663 0 0
-3.06896 0.423448 0.011142 0.764812451 0.380606196 -0.519808463 0 0
-3.075106 0.421092 0.005902 -0.0790037761 0.150507194 -0.985447101 0 0
-3.067278 0.424508 0.019201 0.830731427 0.258109764 0.493218659 0 0
-3.091254 0.481872 0.022732 0.732738649 0.427922571 0.52912791 0 0
-3.091837 0.480122 0.016102 0.802652636 0.369724245 -0.468030692 0 0
-3.096452 0.477859 0.011431 0.0711974106 -0.0198992763 -0.99726373 0 0
-3.081018 0.419491 0.011459 -0.854324357 -0.228506515 -0.466813309 0 0
-3.082351 0.419563 0.019597 -0.766296958 -0.338798655 0.545897833 0 0
-3.101979 0.477492 0.015498 -0.774639515 -0.413921115 -0.47812439 0 0
-3.103931 0.478585 0.021976 -0.782030328 -0.291211293 0.551021369 0 0
-3.074757 0.422224 0.022098 0.0584035706 -0.0981059979 0.993460737 0 0
-3.097821 0.480702 0.024539 -0.054302177 0.116204659 0.99173976 0 0
-3.125638 0.533725 0.000402 0.791931892 0.398416045 -0.462718634 0 0
-3.128802 0.531792 -0.003184 0.15140673 -0.233310371 -0.960542697 0 0
-3.125614 0.535512 0.005226 0.615902941 0.639003051 0.4608022 0 0
-3.164107 0.579944 -0.019661 0.500615467 0.769623778 0.396312244 0 0
-3.162145 0.577395 -0.021959 0.755511087 0.456806704 -0.469606892 0 0
-3.165845 0.577126 -0.024976 0.100999477 -0.354998161 -0.929395186 0 0
-3.133193 0.531945 -0.000488 -0.656638766 -0.617436451 -0.43312557 0 0
-3.135058 0.533287 0.004112 -0.803390323 -0.311796244 0.50729389 0 0
-3.167123 0.57617 -0.022754 -0.589296046 -0.714195208 -0.377697466 0 0
-3.170136 0.578463 -0.02062 -0.747807874 -0.446104698 0.491705178 0 0
-3.130643 0.534921 0.00624 -0.151603655 0.317907665 0.935922565 0 0
-3.165693 0.578505 -0.018367 -0.150705719 0.405615393 0.901534214 0 0
-3.193141 0.604267 -0.036982 0.67761878 0.552015299 -0.485913467 0 0
-3.20127 0.608094 -0.040978 0.00130005475 -0.137205778 -0.990541713 0 0
-3.200477 0.609684 -0.038272 0.249016878 0.926162773 0.283219196 0 0
-3.20405 0.610434 -0.040333 -0.946992235 0.300197538 -0.114399062 0 0
-3.19623 0.603488 -0.037554 -0.542616873 -0.771924003 -0.331210299 0 0
-3.203566 0.608905 -0.038845 -0.787298288 -0.315899313 0.529498848 0 0
-3.195437 0.605078 -0.034849 -0.127899884 0.426499612 0.895399185 0 0
-2.956034 0.265472 0.089534 -0.578595614 0.306597676 0.755794271 0 0
-2.973532 0.205753 0.092356 0.274888831 -0.168693146 0.946561542 0 0
-2.94617 0.260094 0.094093 0.280311545 -0.147306067 0.948539066 0 0
-2.98475 0.211869 0.087171 -0.594289443 0.285194934 0.751986641 0 0
-2.990503 0.2156 0.075209 -0.852683825 0.485590788 -0.192696345 0 0
-2.961094 0.268754 0.079015 -0.852949925 0.490228694 -0.179310495 0 0
-2.934925 0.314041 0.079577 -0.844600604 0.515500369 -0.144600103 0 0
-2.930163 0.311445 0.088831 -0.513015288 0.398211867 0.760422661 0 0
-2.921229 0.30691 0.092735 0.320018202 -0.0639036346 0.945253763 0 0
-2.940454 0.257816 0.083645 0.874355365 -0.442477412 0.199289827 0 0
-2.968356 0.204716 0.066839 0.618731748 -0.237512187 -0.748838424 0 0
-2.941619 0.259183 0.071654 0.607441912 -0.263318168 -0.74945171 0 0
-2.967032 0.203162 0.080475 0.87739456 -0.437997284 0.195798786 0 0
-2.916342 0.304712 0.083395 0.864012286 -0.461606564 0.201002858 0 0
-2.917649 0.305624 0.072783 0.546231032 -0.375521334 -0.748742537 0 0
-2.952393 0.264743 0.071583 -0.266491891 0.198993945 -0.943071303 0 0
-2.980609 0.211039 0.066757 -0.250393047 0.216293994 -0.943673794 0 0
-2.927299 0.310417 0.072869 -0.331611656 0.121704278 -0.935532885 0 0
-2.909978 0.342157 0.081996 -0.433424879 0.484227795 0.760043628 0 0
-2.90113 0.338672 0.085186 0.434728619 0.0403026532 0.899659227 0 0
-2.915239 0.343594 0.073654 -0.870237917 0.474920693 -0.130905704 0 0
-2.899763 0.374666 0.061827 -0.941659529 0.311519693 -0.127408054 0 0
-2.894262 0.37402 0.06945 -0.447626241 0.456626768 0.768845071 0 0
-2.885555 0.371395 0.07215 0.500711782 0.141803337 0.853920093 0 0
-2.897159 0.336093 0.076305 0.891095072 -0.422797662 0.164899088 0 0
-2.899214 0.336015 0.06654 0.495025779 -0.473324649 -0.728637945 0 0
-2.882169 0.368755 0.063732 0.952198286 -0.282599491 0.115999791 0 0
-2.884648 0.368085 0.054678 0.510097748 -0.420898142 -0.750096688 0 0
-2.908446 0.340031 0.067079 -0.4096851 -0.034698738 -0.911566847 0 0
-2.893535 0.371371 0.055473 -0.440692292 -0.144297476 -0.885984504 0 0
-2.881793 0.423448 0.051615 -0.530179406 0.380585216 0.757670569 0 0
-2.874186 0.421092 0.05433 0.423988582 0.150495947 0.89307595 0 0
-2.886229 0.424508 0.04468 -0.951811003 0.258002983 -0.165801917 0 0
-2.865072 0.481872 0.03286 -0.872942574 0.42792087 -0.234211423 0 0
-2.862172 0.480122 0.038849 -0.583925521 0.369716159 0.722731588 0 0
-2.856198 0.477859 0.041576 0.287795525 -0.0198996906 0.957485111 0 0
-2.870634 0.419491 0.047034 0.964453577 -0.228512694 0.132707372 0 0
-2.87228 0.419563 0.038953 0.522215395 -0.338809988 -0.782623072 0 0
-2.852477 0.477492 0.035811 0.893981812 -0.413937881 0.171615705 0 0
-2.852954 0.478585 0.029062 0.535148203 -0.291226232 -0.792971426 0 0
-2.880268 0.422224 0.039314 -0.407591078 -0.0980978527 -0.907880127 0 0
-2.859576 0.480702 0.028838 -0.301607738 0.116202981 -0.946324278 0 0
-2.824998 0.533725 0.041514 -0.575822627 0.398415656 0.713928054 0 0
-2.820766 0.531792 0.043742 0.199695819 -0.233295116 0.951680077 0 0
-2.826734 0.535512 0.037014 -0.739424043 0.639020778 -0.21190689 0 0
-2.78191 0.579944 0.046599 -0.60879502 0.769593705 -0.192598425 0 0
-2.782928 0.577395 0.049443 -0.539320093 0.456817019 0.707426356 0 0
-2.778397 0.577126 0.05095 0.235816884 -0.354925412 0.904664772 0 0
-2.817619 0.531945 0.039662 0.767716007 -0.617412873 0.171503576 0 0
-2.817511 0.533287 0.034699 0.570725715 -0.311814049 -0.759634226 0 0
-2.777992 0.57617 0.048418 0.685014957 -0.714215595 0.143703138 0 0
-2.775934 0.578463 0.045353 0.524201046 -0.44610089 -0.725401447 0 0
-2.822393 0.534921 0.034279 -0.190901249 0.317902081 -0.928706078 0 0
-2.780888 0.578505 0.044825 -0.179395568 0.40558998 -0.896277858 0 0
-2.748616 0.604267 0.052472 -0.460706107 0.552007317 0.695009212 0 0
-2.739597 0.608094 0.053319 0.350694513 -0.137197854 0.926385507 0 0
-2.7413 0.609684 0.051072 -0.333422805 0.926163347 -0.176212052 0 0
-2.737228 0.610434 0.051728 0.925848178 0.300215622 -0.229511943 0 0
-2.745525 0.603488 0.05191 0.624916089 -0.771919873 0.116703005 0 0
-2.738209 0.608905 0.050509 0.547806965 -0.315804015 -0.774709851 0 0
-2.747228 0.605078 0.049663 -0.198602585 0.426505551 -0.882411485 0 0
-3.018716 0.265472 0.064578 -0.101204151 0.306612578 -0.946438824 0 0
-3.007976 0.205753 0.050479 -0.851307824 -0.16870155 -0.496804566 0 0
-3.029007 0.260094 0.068068 -0.856603812 -0.147300655 -0.494502201 0 0
-2.996273 0.211869 0.04651 -0.0871994275 0.285198128 -0.954493734 0 0
-2.983862 0.2156 0.051218 0.75082129 0.48561377 -0.447712695 0 0
-3.007802 0.268754 0.068718 0.741814451 0.490209549 -0.457608914 0 0
-3.027159 0.314041 0.086337 0.711825452 0.515518433 -0.477017056 0 0
-3.036986 0.311445 0.08291 -0.151904708 0.398212343 -0.904628039 0 0
-3.046151 0.30691 0.086234 -0.883146406 -0.0639033579 -0.46472442 0 0
-3.025953 0.257816 0.079579 -0.771071521 -0.442483657 0.457883088 0 0
-2.99415 0.204716 0.072542 0.0673034817 -0.237512287 0.96905013 0 0
-3.016849 0.259183 0.087469 0.0759017234 -0.263305978 0.961721836 0 0
-3.004503 0.203162 0.063569 -0.770885716 -0.437991884 0.46249143 0 0
-3.04326 0.304712 0.096371 -0.764817606 -0.461610626 0.449410346 0 0
-3.035002 0.305624 0.103163 0.119805194 -0.375516281 0.919039846 0 0
-3.008989 0.264743 0.080099 0.842836732 0.199008673 0.500021791 0 0
-2.985212 0.211039 0.06416 0.831536381 0.216309464 0.511622384 0 0
-3.028067 0.310417 0.096453 0.884838925 0.121705354 0.449719784 0 0
-3.046909 0.342157 0.101768 -0.209405418 0.484212529 -0.849521982 0 0
-3.055521 0.338672 0.105551 -0.934905207 0.0403002245 -0.352601964 0 0
-3.037349 0.343594 0.104192 0.721002823 0.474901859 -0.504601976 0 0
-3.04042 0.374666 0.123426 0.770352374 0.311521179 -0.556337824 0 0
-3.04966 0.37402 0.121689 -0.20510143 0.456603183 -0.865706034 0 0
-3.057831 0.371395 0.12573 -0.951190731 0.141798618 -0.274097329 0 0
-3.052281 0.336093 0.114725 -0.759605454 -0.422803036 0.494203548 0 0
-3.044065 0.336015 0.120387 0.143100062 -0.473300204 0.869200374 0 0
-3.054486 0.368755 0.134165 -0.770149287 -0.282618087 0.571836596 0 0
-3.046453 0.368085 0.13902 0.147002218 -0.420906352 0.895113507 0 0
-3.037744 0.340031 0.113637 0.924908296 -0.0347003113 0.378603396 0 0
-3.040558 0.371371 0.132322 0.929799772 -0.144299965 0.338599917 0 0
-3.046412 0.423448 0.143207 -0.137605678 0.380615705 -0.91443773 0 0
-3.053796 0.421092 0.146479 -0.922548624 0.150507933 -0.355318728 0 0
-3.038419 0.424508 0.145179 0.804197423 0.258099173 -0.535398284 0 0
-3.045613 0.481872 0.168321 0.794111205 0.427906038 -0.43160609 0 0
-3.051842 0.480122 0.165977 -0.0745041146 0.369720418 -0.926151148 0 0
-3.05805 0.477859 0.168115 -0.868206559 -0.0199001503 -0.495803746 0 0
-3.051345 0.419491 0.154215 -0.790573848 -0.228392445 0.568181205 0 0
-3.044586 0.419563 0.158938 0.160495177 -0.33878982 0.927072142 0 0
-3.056776 0.477492 0.174858 -0.766298904 -0.413899408 0.491399297 0 0
-3.051781 0.478585 0.179422 0.158311091 -0.291220402 0.943466097 0 0
-3.039044 0.422224 0.153175 0.920868359 -0.0981072828 0.37732801 0 0
-3.046826 0.480702 0.175022 0.870532776 0.116104371 0.478218005 0 0
-3.080624 0.533725 0.189653 -0.0742998258 0.398399066 -0.914197856 0 0
-3.085227 0.531792 0.190953 -0.800366505 -0.233319387 -0.552245888 0 0
-3.076266 0.535512 0.191719 0.68193333 0.639031233 -0.355817391 0 0
-3.115361 0.579944 0.215648 0.573986167 0.769581453 -0.279793257 0 0
-3.116583 0.577395 0.212886 -0.0963035431 0.456816807 -0.884332535 0 0
-3.120905 0.577126 0.214915 -0.794142206 -0.354918863 -0.493326219 0 0
-3.084697 0.531945 0.196079 -0.674692207 -0.617392869 0.404495328 0 0
-3.081357 0.533287 0.199751 0.109600557 -0.311801584 0.943804795 0 0
-3.119455 0.57617 0.217029 -0.595592767 -0.714191326 0.367695534 0 0
-3.118834 0.578463 0.220669 0.119605922 -0.446122088 0.886943914 0 0
-3.077528 0.534921 0.196692 0.778123768 0.317909711 0.541716547 0 0
-3.11488 0.578505 0.217638 0.747481754 0.4055901 0.526087158 0 0
-3.143541 0.604267 0.234326 -0.144797069 0.551988828 -0.821183379 0 0
-3.150662 0.608094 0.239925 -0.892393035 -0.137198929 -0.429896645 0 0
-3.14788 0.609684 0.240381 0.36312062 0.926152593 -0.101905787 0 0
-3.151284 0.610434 0.24271 -0.512993157 0.300195995 0.804189272 0 0
-3.145395 0.603488 0.236863 -0.533420588 -0.771929793 0.345813347 0 0
-3.149734 0.608905 0.242918 0.136600985 -0.315902278 0.938906769 0 0
-3.142612 0.605078 0.237319 0.751794775 0.426497036 0.502896505 0 0
-3.032069 0.273744 0.036859 -0.163404551 -0.040501128 -0.985727453 0 0
-3.043754 0.200402 0.04923 -0.933777958 -0.041899011 -0.355391611 0 0
-3.044979 0.273755 0.043794 -0.932101114 -0.0208000249 -0.361600432 0 0
-3.029073 0.200389 0.041344 -0.157802464 -0.0667010415 -0.985215384 0 0
-3.012681 0.201363 0.044187 0.774401189 0.0109000167 -0.632600971 0 0
-3.017654 0.2746 0.039359 0.765578197 0.0143995899 -0.643181682 0 0
-3.020163 0.33776 0.0382 0.741494609 0.0394997128 -0.669795131 0 0
-3.032954 0.337498 0.036111 -0.177506018 0.0713024175 -0.98153328 0 0
-3.044319 0.337869 0.042405 -0.927827831 0.0714021417 -0.366110982 0 0
-3.03999 0.275142 0.057503 -0.779149201 0.0371023429 0.625739514 0 0
-3.023941 0.203349 0.073533 0.155403619 0.120102797 0.980522837 0 0
-3.027556 0.276347 0.065165 0.154806625 0.0921039417 0.983642096 0 0
-3.03808 0.201978 0.06482 -0.776890829 0.0425994971 0.628192584 0 0
-3.039763 0.338808 0.054559 -0.78022098 0.0153004114 0.625316815 0 0
-3.028674 0.339397 0.061261 0.156295041 -0.0355988705 0.987068681 0 0
-3.018131 0.275817 0.053956 0.935142297 0.0723032704 0.346815687 0 0
-3.013222 0.202747 0.060786 0.931502604 0.0954002666 0.351000981 0 0
-3.020438 0.33872 0.051196 0.943801316 -0.0271000378 0.32940046 0 0
-3.029617 0.382049 0.042836 -0.197298262 0.185198368 -0.962691519 0 0
-3.039888 0.383503 0.04911 -0.927459113 0.219914017 -0.302419275 0 0
-3.01774 0.380762 0.044378 0.733707609 -0.00890009229 -0.679407045 0 0
-3.0064 0.423092 0.051018 0.723826822 -0.186406907 -0.664324617 0 0
-3.017496 0.425383 0.049844 -0.203999648 0.153899735 -0.966798332 0 0
-3.02691 0.427676 0.055972 -0.900097993 0.342099237 -0.269799398 0 0
-3.035265 0.38348 0.060361 -0.756501774 0.0635001489 0.650901526 0 0
-3.024799 0.382551 0.066285 0.141307189 -0.146607459 0.97904981 0 0
-3.022337 0.427224 0.066429 -0.712632009 0.217009747 0.667129965 0 0
-3.012452 0.425394 0.071749 0.164597613 -0.0927986544 0.981985761 0 0
-3.017546 0.381287 0.056576 0.924010571 -0.202402315 0.324403711 0 0
-3.005929 0.423557 0.062466 0.889922235 -0.313907843 0.330908268 0 0
-2.992027 0.485482 0.049947 -0.170809291 0.0476025894 -0.984153535 0 0
-3.000605 0.487407 0.055056 -0.884117391 0.310806114 -0.348906863 0 0
-2.982158 0.484233 0.051243 0.743565421 -0.236688993 -0.625370918 0 0
-2.965447 0.557607 0.049857 0.801021508 -0.0479012862 -0.596716022 0 0
-2.973627 0.557255 0.048393 -0.1165008 0.0129000886 -0.993106818 0 0
-2.981062 0.55831 0.052144 -0.906037035 0.0936038261 -0.41271687 0 0
-2.996823 0.488105 0.064283 -0.716641133 0.269815487 0.643136914 0 0
-2.988153 0.487512 0.069163 0.206604242 -0.0143002936 0.978320085 0 0
-2.978384 0.560348 0.059737 -0.76072615 0.0724024889 0.645022173 0 0
-2.971394 0.561473 0.064037 0.221114809 0.0337022571 0.974665275 0 0
-2.982065 0.485566 0.061233 0.901477738 -0.256693661 0.348491394 0 0
-2.965892 0.559786 0.057908 0.933413194 -0.0169002389 0.358405066 0 0
-2.982711 0.635611 0.050433 -0.105997315 0.0420989336 -0.993474836 0 0
-2.98837 0.635999 0.053019 -0.913887165 -0.135198101 -0.382794624 0 0
-2.976703 0.636634 0.051662 0.769598861 0.200599703 -0.606199103 0 0
-3.000711 0.709606 0.058859 0.71871142 0.377806003 -0.583709275 0 0
-3.003558 0.706211 0.057071 -0.104598888 0.111098819 -0.988289495 0 0
-3.008164 0.708556 0.059658 -0.933707236 -0.222001721 -0.280902177 0 0
-2.986682 0.638181 0.058606 -0.748335255 -0.166707854 0.642030247 0 0
-2.981667 0.639847 0.061878 0.169306406 0.0322012184 0.98503727 0 0
-3.006425 0.707887 0.062389 -0.708214462 -0.290605934 0.643413139 0 0
-3.004177 0.711636 0.065302 0.130104539 -0.108603789 0.985534386 0 0
-2.977348 0.638689 0.05752 0.915882864 0.212496024 0.340593628 0 0
-3.000271 0.708764 0.06173 0.910011789 0.293503802 0.292803793 0 0
-3.020447 0.754718 0.069311 -0.112003225 0.232906707 -0.966027817 0 0
-3.026076 0.764059 0.074036 -0.95210159 0.0232000387 -0.304900509 0 0
-3.022256 0.76481 0.073648 0.595338764 0.648742241 -0.474030865 0 0
-3.025398 0.767987 0.076037 -0.261716968 0.722746857 0.639641469 0 0
-3.022322 0.755751 0.072586 -0.670104068 -0.369602243 0.643703907 0 0
-3.02413 0.765843 0.076923 0.192698949 0.0178999024 0.981094648 0 0
-3.018502 0.756501 0.072199 0.916313328 0.301904391 0.263103827 0 0
3 0 1 2
3 0 3 1
3 0 4 3
3 0 5 4
3 0 6 5
3 0 7 6
3 0 8 7
3 0 2 8
3 9 10 11
3 9 12 10
3 9 1 12
3 9 2 1
3 9 8 2
3 9 13 8
3 9 14 13
3 9 11 14
3 15 4 5
3 15 16 4
3 15 10 16
3 15 11 10
3 15 14 11
3 15 17 14
3 15 6 17
3 15 5 6
3 18 8 19
3 18 7 8
3 18 6 7
3 18 20 6
3 18 21 20
3 18 22 21
3 18 23 22
3 18 19 23
3 24 14 25
3 24 13 14
3 24 8 13
3 24 19 8
3 24 23 19
3 24 26 23
3 24 27 26
3 24 25 27
3 28 6 20
3 28 17 6
3 28 14 17
3 28 25 14
3 28 27 25
3 28 29 27
3 28 21 29
3 28 20 21
3 30 23 31
3 30 22 23
3 30 21 22
3 30 32 21
3 30 33 32
3 30 34 33
3 30 35 34
3 30 31 35
3 36 27 37
3 36 26 27
3 36 23 26
3 36 31 23
3 36 35 31
3 36 38 35
3 36 39 38
3 36 37 39
3 40 21 32
3 40 29 21
3 40 27 29
3 40 37 27
3 40 39 37
3 40 41 39
3 40 33 41
3 40 32 33
3 42 35 43
3 42 34 35
3 42 33 34
3 42 44 33
3 42 45 44
3 42 46 45
3 42 47 46
3 42 43 47
3 48 39 49
3 48 38 39
3 48 35 38
3 48 43 35
3 48 47 43
3 48 50 47
3 48 51 50
3 48 49 51
3 52 33 44
3 52 41 33
3 52 39 41
3 52 49 39
3 52 51 49
3 52 53 51
3 52 45 53
3 52 44 45
3 54 47 55
3 54 46 47
3 54 45 46
3 54 56 45
3 54 57 56
3 54 55 57
3 58 51 59
3 58 50 51
3 58 47 50
3 58 55 47
3 58 57 55
3 58 59 57
3 60 45 56
3 60 53 45
3 60 51 53
3 60 59 51
3 60 57 59
3 60 56 57
3 61 62 63
3 61 64 62
3 61 65 64
3 61 66 65
3 61 67 66
3 61 68 67
3 61 69 68
3 61 63 69
3 70 71 72
3 70 73 71
3 70 62 73
3 70 63 62
3 70 69 63
3 70 74 69
3 70 75 74
3 70 72 75
3 76 65 66
3 76 77 65
3 76 71 77
3 76 72 71
3 76 75 72
3 76 78 75
3 76 67 78
3 76 66 67
3 79 69 80
3 79 68 69
3 79 67 68
3 79 81 67
3 79 82 81
3 79 83 82
3 79 84 83
3 79 80 84
3 85 75 86
3 85 74 75
3 85 69 74
3 85 80 69
3 85 84 80
3 85 87 84
3 85 88 87
3 85 86 88
3 89 67 81
3 89 78 67
3 89 75 78
3 89 86 75
3 89 88 86
3 89 90 88
3 89 82 90
3 89 81 82
3 91 84 92
3 91 83 84
3 91 82 83
3 91 93 82
3 91 94 93
3 91 95 94
3 91 96 95
3 91 92 96
3 97 88 98
3 97 87 88
3 97 84 87
3 97 92 84
3 97 96 92
3 97 99 96
3 97 100 99
3 97 98 100
3 101 82 93
3 101 90 82
3 101 88 90
3 101 98 88
3 101 100 98
3 101 102 100
3 101 94 102
3 101 93 94
3 103 96 104
3 103 95 96
3 103 94 95
3 103 105 94
3 103 106 105
3 103 107 106
3 103 108 107
3 103 104 108
3 109 100 110
3 109 99 100
3 109 96 99
3 109 104 96
3 109 108 104
3 109 111 108
3 109 112 111
3 109 110 112
3 113 94 105
3 113 102 94
3 113 100 102
3 113 110 100
3 113 112 110
3 113 114 112
3 113 106 114
3 113 105 106
3 115 108 116
3 115 107 108
3 115 106 107
3 115 117 106
3 115 118 117
3 115 116 118
3 119 112 120
3 119 111 112
3 119 108 111
3 119 116 108
3 119 118 116
3 119 120 118
3 121 106 117
3 121 114 106
3 121 112 114
3 121 120 112
3 121 118 120
3 121 117 118
3 122 123 124
3 122 125 123
3 122 126 125
3 122 127 126
3 122 128 127
3 122 129 128
3 122 130 129
3 122 124 130
3 131 132 133
3 131 134 132
3 131 123 134
3 131 124 123
3 131 130 124
3 131 135 130
3 131 136 135
3 131 133 136
3 137 126 127
3 137 138 126
3 137 132 138
3 137 133 132
3 137 136 133
3 137 139 136
3 137 128 139
3 137 127 128
3 140 130 141
3 140 129 130
3 140 128 129
3 140 142 128
3 140 143 142
3 140 144 143
3 140 145 144
3 140 141 145
3 146 136 147
3 146 135 136
3 146 130 135
3 146 141 130
3 146 145 141
3 146 148 145
3 146 149 148
3 146 147 149
3 150 128 142
3 150 139 128
3 150 136 139
3 150 147 136
3 150 149 147
3 150 151 149
3 150 143 151
3 150 142 143
3 152 145 153
3 152 144 145
3 152 143 144
3 152 154 143
3 152 155 154
3 152 156 155
3 152 157 156
3 152 153 157
3 158 149 159
3 158 148 149
3 158 145 148
3 158 153 145
3 158 157 153
3 158 160 157
3 158 161 160
3 158 159 161
3 162 143 154
3 162 151 143
3 162 149 151
3 162 159 149
3 162 161 159
3 162 163 161
3 162 155 163
3 162 154 155
3 164 157 165
3 164 156 157
3 164 155 156
3 164 166 155
3 164 167 166
3 164 168 167
3 164 169 168
3 164 165 169
3 170 161 171
3 170 160 161
3 170 157 160
3 170 165 157
3 170 169 165
3 170 172 169
3 170 173 172
3 170 171 173
3 174 155 166
3 174 163 155
3 174 161 163
3 174 171 161
3 174 173 171
3 174 175 173
3 174 167 175
3 174 166 167
3 176 169 177
3 176 168 169
3 176 167 168
3 176 178 167
3 176 179 178
3 176 177 179
3 180 173 181
3 180 172 173
3 180 169 172
3 180 177 169
3 180 179 177
3 180 181 179
3 182 167 178
3 182 175 167
3 182 173 175
3 182 181 173
3 182 179 181
3 182 178 179
3 183 184 185
3 183 186 184
3 183 187 186
3 183 188 187
3 183 189 188
3 183 190 189
3 183 191 190
3 183 185 191
3 192 193 194
3 192 195 193
3 192 184 195
3 192 185 184
3 192 191 185
3 192 196 191
3 192 197 196
3 192 194 197
3 198 187 188
3 198 199 187
3 198 193 199
3 198 194 193
3 198 197 194
3 198 200 197
3 198 189 200
3 198 188 189
3 201 191 202
3 201 190 191
3 201 189 190
3 201 203 189
3 201 204 203
3 201 205 204
3 201 206 205
3 201 202 206
3 207 197 208
3 207 196 197
3 207 191 196
3 207 202 191
3 207 206 202
3 207 209 206
3 207 210 209
3 207 208 210
3 211 189 203
3 211 200 189
3 211 197 200
3 211 208 197
3 211 210 208
3 211 212 210
3 211 204 212
3 211 203 204
3 213 206 214
3 213 205 206
3 213 204 205
3 213 215 204
3 213 216 215
3 213 217 216
3 213 218 217
3 213 214 218
3 219 210 220
3 219 209 210
3 219 206 209
3 219 214 206
3 219 218 214
3 219 221 218
3 219 222 221
3 219 220 222
3 223 204 215
3 223 212 204
3 223 210 212
3 223 220 210
3 223 222 220
3 223 224 222
3 223 216 224
3 223 215 216
3 225 218 226
3 225 217 218
3 225 216 217
3 225 227 216
3 225 228 227
3 225 229 228
3 225 230 229
3 225 226 230
3 231 222 232
3 231 221 222
3 231 218 221
3 231 226 218
3 231 230 226
3 231 233 230
3 231 234 233
3 231 232 234
3 235 216 227
3 235 224 216
3 235 222 224
3 235 232 222
3 235 234 232
3 235 236 234
3 235 228 236
3 235 227 228
3 237 230 238
3 237 229 230
3 237 228 229
3 237 239 228
3 237 240 239
3 237 238 240
3 241 234 242
3 241 233 234
3 241 230 233
3 241 238 230
3 241 240 238
3 241 242 240
3 243 228 239
3 243 236 228
3 243 234 236
3 243 242 234
3 243 240 242
3 243 239 240
