ply
format ascii 1.0
element vertex 244
property float x
property float y
property float z
property float nx
property float ny
property float nz
property float u
property float v
element face 456
property list uchar int vertex_indices
end_header
-2.961318 0.265472 0.059692 0.509801519 0.306600914 0.803802395 0 0
-2.964705 0.205753 0.077089 0.983284843 -0.1686974 0.0684989441 0 0
-2.953636 0.260094 0.052005 0.987012288 -0.147301834 0.0641007981 0 0
-2.97344 0.211869 0.08583 0.500811138 0.285206343 0.817218175 0 0
-2.986653 0.2156 0.087104 -0.474990127 0.485589907 0.733884746 0 0
-2.972936 0.268754 0.060812 -0.462527757 0.49022942 0.738744333 0 0
-2.963382 0.314041 0.036444 -0.427006478 0.51550782 0.74291127 0 0
-2.953053 0.311445 0.035165 0.536811831 0.398208777 0.743816394 0 0
-2.946307 0.30691 0.028126 0.99762521 -0.0639016148 0.0257006495 0 0
-2.961471 0.257816 0.043037 0.488626919 -0.442524379 -0.751941426 0 0
-2.986871 0.204716 0.063429 -0.489398184 -0.237499119 -0.839096887 0 0
-2.973128 0.259183 0.039993 -0.493898076 -0.263298974 -0.828696772 0 0
-2.973614 0.203162 0.06689 0.486408522 -0.438007674 -0.756013245 0 0
-2.953387 0.304712 0.020318 0.48671898 -0.461618001 -0.74162892 0 0
-2.963799 0.305624 0.017884 -0.514387498 -0.375490874 -0.770981262 0 0
-2.976911 0.264743 0.050082 -0.977109551 0.199001945 -0.0752007351 0 0
-2.991173 0.211039 0.074902 -0.972122189 0.216304937 -0.0905020657 0 0
-2.967047 0.310417 0.026971 -0.992501439 0.121700176 -0.0114000165 0 0
-2.952506 0.342157 0.013862 0.563901734 0.484201489 0.669002057 0 0
-2.94646 0.338672 0.006657 0.994399632 0.0402999851 -0.0976999639 0 0
-2.962151 0.343594 0.015922 -0.423004251 0.474904773 0.771707756 0 0
-2.967914 0.374666 -0.002683 -0.444409862 0.311506912 0.839918638 0 0
-2.95886 0.37402 -0.005217 0.567207782 0.456606265 0.685409404 0 0
-2.953323 0.371395 -0.012458 0.974230182 0.141804393 -0.175405434 0 0
-2.953426 0.336093 -0.000134 0.462197936 -0.422798112 -0.77949652 0 0
-2.963301 0.336015 -0.001573 -0.513115265 -0.473314081 -0.716021302 0 0
-2.960057 0.368755 -0.018541 0.437322361 -0.28261445 -0.853743653 0 0
-2.96941 0.368085 -0.019337 -0.528112498 -0.420909961 -0.737517454 0 0
-2.965979 0.340031 0.007278 -0.996936035 -0.0347012543 0.0701025339 0 0
-2.97173 0.371371 -0.01072 -0.98362191 -0.144303214 0.108002406 0 0
-2.9713 0.423448 -0.023073 0.528289897 0.380592721 0.758985485 0 0
-2.966128 0.421092 -0.029276 0.984513532 0.150502069 -0.0899012357 0 0
-2.97934 0.424508 -0.021302 -0.483898727 0.258099321 0.836197801 0 0
-2.983137 0.481872 -0.045237 -0.520909069 0.42790745 0.738612859 0 0
-2.976514 0.480122 -0.045893 0.476909906 0.369707679 0.797416562 0 0
-2.971894 0.477859 -0.05056 0.997994002 -0.0198998804 0.0600996388 0 0
-2.971751 0.419491 -0.035127 0.457293118 -0.228396563 -0.859487065 0 0
-2.979903 0.419563 -0.036369 -0.554386462 -0.338791727 -0.760181437 0 0
-2.976022 0.477492 -0.056041 0.469502941 -0.413902593 -0.779904886 0 0
-2.982522 0.478585 -0.057921 -0.559651703 -0.291226905 -0.775871678 0 0
-2.98232 0.422224 -0.028747 -0.992752985 -0.098105236 0.0694037042 0 0
-2.985016 0.480702 -0.051783 -0.992281832 0.116197872 -0.0432992072 0 0
-2.96119 0.533725 -0.079866 0.471401235 0.398401044 0.786802061 0 0
-2.957639 0.531792 -0.08307 0.962152949 -0.23331284 0.140807749 0 0
-2.966013 0.535512 -0.079789 -0.453902903 0.639004086 0.621003971 0 0
-2.941555 0.579944 -0.118555 -0.390708664 0.769617066 0.505011199 0 0
-2.939235 0.577395 -0.11662 0.477934726 0.456833192 0.750254512 0 0
-2.936259 0.577126 -0.120353 0.930448547 -0.355018524 0.0907047326 0 0
-2.960383 0.531945 -0.087431 0.425813124 -0.617419029 -0.661420385 0 0
-2.965004 0.533287 -0.089245 -0.516198201 -0.311798913 -0.79769722 0 0
-2.938495 0.57617 -0.121606 0.371114769 -0.714228423 -0.593423616 0 0
-2.940663 0.578463 -0.124595 -0.499996375 -0.446096766 -0.742294618 0 0
-2.967083 0.534921 -0.084807 -0.937544956 0.317915244 -0.141206771 0 0
-2.942867 0.578505 -0.120127 -0.903146305 0.405620797 -0.140707214 0 0
-2.924557 0.604267 -0.14778 0.493433069 0.552036996 0.672145045 0 0
-2.920651 0.608094 -0.155953 0.990496905 -0.137199571 -0.00959997 0 0
-2.923348 0.609684 -0.15513 -0.280415394 0.926150842 0.252213846 0 0
-2.921327 0.610434 -0.158726 0.104008859 0.300225573 -0.948180765 0 0
-2.924019 0.603488 -0.150875 0.325105964 -0.771914161 -0.546310022 0 0
-2.922809 0.608905 -0.158226 -0.538135731 -0.31582097 -0.781451886 0 0
-2.926715 0.605078 -0.150052 -0.896765704 0.426483689 -0.117995487 0 0
-3.048434 0.265472 0.090716 -0.762127433 0.306611037 -0.570220525 0 0
-3.05145 0.205753 0.07325 -0.943450423 -0.168691136 0.285385003 0 0
-3.052884 0.260094 0.10063 -0.945407119 -0.147301109 0.290702189 0 0
-3.046391 0.211869 0.061976 -0.758522718 0.285208542 -0.585917548 0 0
-3.034493 0.2156 0.05609 0.183195178 0.48558722 -0.854777503 0 0
-3.037972 0.268754 0.08554 0.169801521 0.49020439 -0.854907656 0 0
-3.038244 0.314041 0.111713 0.135206456 0.515524617 -0.846140404 0 0
-3.047444 0.311445 0.116578 -0.766061483 0.398231961 -0.504540494 0 0
-3.051249 0.30691 0.125555 -0.941635774 -0.0639024277 0.330512556 0 0
-3.042373 0.257816 0.106229 -0.189502961 -0.442506914 0.876513696 0 0
-3.025877 0.204716 0.078143 0.755628046 -0.237508815 0.610422656 0 0
-3.030396 0.259183 0.104932 0.756124608 -0.26330857 0.599119499 0 0
-3.039498 0.203162 0.079618 -0.186003697 -0.438008706 0.87951748 0 0
-3.041856 0.304712 0.130338 -0.191415531 -0.461637456 0.86617028 0 0
-3.031259 0.305624 0.128913 0.75477747 -0.375488792 0.537883944 0 0
-3.030444 0.264743 0.094157 0.940058939 0.199012477 -0.276917362 0 0
-3.025932 0.211039 0.065889 0.940843764 0.216310062 -0.260812132 0 0
-3.031452 0.310417 0.119265 0.931787826 0.12169841 -0.341995532 0 0
-3.040386 0.342157 0.136685 -0.764834919 0.484222108 -0.4249194 0 0
-3.043478 0.338672 0.145568 -0.89475804 0.0403026143 0.444728848 0 0
-3.032102 0.343594 0.131333 0.121205696 0.474922319 -0.871640964 0 0
-3.020104 0.374666 0.146676 0.116903106 0.311508277 -0.943025057 0 0
-3.027667 0.37402 0.152262 -0.773777247 0.456586574 -0.439087089 0 0
-3.03027 0.371395 0.160998 -0.848333026 0.141805521 0.510119859 0 0
-3.034553 0.336093 0.149441 -0.155009558 -0.422826072 0.892855055 0 0
-3.024811 0.336015 0.147277 0.734104658 -0.473303003 0.486903089 0 0
-3.021814 0.368755 0.16429 -0.105402979 -0.282607987 0.953426944 0 0
-3.012789 0.368085 0.161711 0.755721844 -0.420912167 0.501714502 0 0
-3.025453 0.340031 0.138052 0.906943652 -0.0347016702 -0.419820206 0 0
-3.013682 0.371371 0.152833 0.881029189 -0.144304781 -0.450514926 0 0
-3.009694 0.423448 0.164532 -0.763515461 0.380607707 -0.521710565 0 0
-3.012324 0.421092 0.172168 -0.888301621 0.150500275 0.433900792 0 0
-3.002809 0.424508 0.16002 0.155195685 0.258092824 -0.953573486 0 0
-2.990755 0.481872 0.181043 0.224500122 0.427900233 -0.875500477 0 0
-2.996711 0.480122 0.18401 -0.729127084 0.369713733 -0.575921393 0 0
-2.999372 0.477859 0.190014 -0.954230436 -0.0199006347 0.298409518 0 0
-3.004989 0.419491 0.175639 -0.122008182 -0.228515324 0.965864768 0 0
-2.996928 0.419563 0.173903 0.788345497 -0.338819554 0.513529637 0 0
-2.993566 0.477492 0.193671 -0.161706651 -0.413917025 0.895836847 0 0
-2.986822 0.478585 0.193119 0.798851699 -0.291218847 0.526334063 0 0
-2.997377 0.422224 0.16592 0.903316142 -0.0981017531 -0.417607463 0 0
-2.986671 0.480702 0.186494 0.942914493 0.116201786 -0.312104797 0 0
-2.998964 0.533725 0.221211 -0.72027657 0.398387041 -0.567881527 0 0
-3.001145 0.531792 0.225468 -0.949392718 -0.233298211 0.210298387 0 0
-2.994483 0.535512 0.219425 0.203595806 0.638986837 -0.741784719 0 0
-3.00357 0.579944 0.264352 0.185799572 0.769598226 -0.610898592 0 0
-3.006426 0.577395 0.263367 -0.713321236 0.456913603 -0.53141582 0 0
-3.007881 0.577126 0.267914 -0.901988806 -0.354895596 0.245896948 0 0
-2.99703 0.531945 0.228569 -0.162997073 -0.617388912 0.769586178 0 0
-2.992066 0.533287 0.228622 0.765941787 -0.311817012 0.562230673 0 0
-3.005346 0.57617 0.268291 -0.136098339 -0.714191283 0.68659162 0 0
-3.002258 0.578463 0.270315 0.731076573 -0.446185702 0.516183459 0 0
-2.9917 0.534921 0.223735 0.926544535 0.317915281 -0.201109667 0 0
-3.001785 0.578505 0.265355 0.894263325 0.405528717 -0.189313406 0 0
-3.009073 0.604267 0.29771 -0.700081445 0.55198537 -0.452987994 0 0
-3.00982 0.608094 0.306737 -0.922448702 -0.137207244 0.360919055 0 0
-3.007592 0.609684 0.30501 0.17250771 0.92614139 -0.33541499 0 0
-3.008204 0.610434 0.309089 0.239700121 0.300100152 0.923300466 0 0
-3.008477 0.603488 0.300794 -0.109806212 -0.77194367 0.626135421 0 0
-3.006996 0.608905 0.308095 0.780691436 -0.315896535 0.539194085 0 0
-3.006249 0.605078 0.299067 0.880218533 0.426408978 -0.208304386 0 0
-3.024175 0.265472 0.027761 0.945265623 0.306621286 -0.111607748 0 0
-3.009958 0.205753 0.038344 0.487293368 -0.168697704 -0.856788339 0 0
-3.02778 0.260094 0.017509 0.485008175 -0.147302483 -0.862014529 0 0
-3.005859 0.211869 0.050002 0.953468474 0.28519057 -0.0977967664 0 0
-3.010429 0.2156 0.062465 0.456008892 0.485609469 0.745814544 0 0
-3.028194 0.268754 0.03872 0.46580173 0.490201821 0.736702737 0 0
-3.046026 0.314041 0.01956 0.484820959 0.515522287 0.706530544 0 0
-3.042709 0.311445 0.009696 0.902883906 0.398192902 -0.161997112 0 0
-3.046134 0.30691 0.000568 0.454919002 -0.0639026693 -0.888237102 0 0
-3.039256 0.257816 0.020691 -0.466378731 -0.442479821 -0.765965069 0 0
-3.031866 0.204716 0.052414 -0.968240134 -0.237509845 0.0781032374 0 0
-3.047045 0.259183 0.029882 -0.960817732 -0.263304859 0.0866015982 0 0
-3.023008 0.203162 0.041962 -0.471004359 -0.438004054 -0.765707087 0 0
-3.056238 0.304712 0.003571 -0.457924944 -0.461625145 -0.759741384 0 0
-3.062938 0.305624 0.011904 -0.917650468 -0.375520652 0.13000715 0 0
-3.039587 0.264743 0.037659 -0.49062398 0.199009727 0.848341464 0 0
-3.023385 0.211039 0.061259 -0.502301301 0.21630056 0.837202168 0 0
-3.056152 0.310417 0.018765 -0.439924419 0.121706756 0.889749387 0 0
-3.061676 0.342157 -1.8e-05 0.847141727 0.484223851 -0.218810778 0 0
-3.065554 0.338672 -0.008587 0.342220085 0.0403023654 -0.938755097 0 0
-3.063994 0.343594 0.009569 0.512540915 0.474937913 0.715357106 0 0
-3.08326 0.374666 0.006711 0.564833863 0.311518676 0.764145812 0 0
-3.081626 0.37402 -0.002547 0.863383073 0.456591049 -0.214695791 0 0
-3.085757 0.371395 -0.010673 0.26358816 0.141793631 -0.95415714 0 0
-3.074691 0.336093 -0.005246 -0.502629505 -0.422824821 -0.754044264 0 0
-3.080262 0.336015 0.003033 -0.867549265 -0.473326879 0.152708672 0 0
-3.094155 0.368755 -0.007235 -0.580343951 -0.282621404 -0.763757842 0 0
-3.098921 0.368085 0.000852 -0.893427706 -0.420913053 0.156904866 0 0
-3.073443 0.340031 0.009278 -0.368320262 -0.034701909 0.929051109 0 0
-3.092157 0.371371 0.006672 -0.328295793 -0.144298151 0.933488037 0 0
-3.103107 0.423448 0.000939 0.912856832 0.380623696 -0.147709196 0 0
-3.106461 0.421092 -0.006408 0.345018595 0.150508112 -0.926449932 0 0
-3.10499 0.424508 0.008953 0.544313681 0.258006485 0.798220064 0 0
-3.12821 0.481872 0.002017 0.440390078 0.42789036 0.789282218 0 0
-3.125936 0.480122 -0.004238 0.925277229 0.369690902 -0.0847979131 0 0
-3.128143 0.477859 -0.010422 0.486208895 -0.0199003641 -0.873615983 0 0
-3.114169 0.419491 -0.003872 -0.576901298 -0.228500514 -0.784201764 0 0
-3.118817 0.419563 0.00294 -0.925221687 -0.338807942 0.170804004 0 0
-3.134871 0.477492 -0.009073 -0.499817521 -0.41391451 -0.760826671 0 0
-3.139379 0.478585 -0.004028 -0.941662298 -0.291219266 0.168711161 0 0
-3.112992 0.422224 0.008417 -0.367097977 -0.0980994595 0.924994903 0 0
-3.134925 0.480702 0.000878 -0.468495238 0.116198819 0.875791098 0 0
-3.14993 0.533725 -0.032756 0.91330927 0.398404044 -0.0845008577 0 0
-3.15128 0.531792 -0.037344 0.543331313 -0.233313446 -0.806446477 0 0
-3.151947 0.535512 -0.028375 0.363412907 0.639022695 0.677924077 0 0
-3.176309 0.579944 -0.067202 0.286107151 0.769619237 0.570814268 0 0
-3.17356 0.577395 -0.068455 0.883215152 0.456807837 -0.10610182 0 0
-3.175637 0.577126 -0.072754 0.484469622 -0.354977742 -0.799549866 0 0
-3.1564 0.531945 -0.036757 -0.411897444 -0.617396169 -0.670195841 0 0
-3.160035 0.533287 -0.033377 -0.942535115 -0.311811617 0.120004471 0 0
-3.177735 0.57617 -0.07128 -0.374311961 -0.714222823 -0.591418899 0 0
-3.181367 0.578463 -0.07062 -0.885572185 -0.446085989 0.129495933 0 0
-3.156933 0.534921 -0.029582 -0.533081654 0.31788906 0.784073017 0 0
-3.178293 0.578505 -0.066699 -0.51772474 0.405519378 0.753335999 0 0
-3.195297 0.604267 -0.095173 0.819512514 0.552008429 -0.15390235 0 0
-3.200975 0.608094 -0.102232 0.419915063 -0.137204922 -0.897132181 0 0
-3.201401 0.609684 -0.099445 0.10589826 0.926184783 0.361894054 0 0
-3.203767 0.610434 -0.102823 -0.809711717 0.300404347 -0.504107294 0 0
-3.197855 0.603488 -0.096999 -0.351806491 -0.771914242 -0.52950977 0 0
-3.203958 0.608905 -0.10127 -0.93737474 -0.315825182 0.146911714 0 0
-3.19828 0.605078 -0.094211 -0.494515877 0.426513693 0.757324314 0 0
-2.996606 0.273744 0.014101 0.983860671 -0.0404983811 -0.174293033 0 0
-3.009106 0.200402 0.002554 0.34510977 -0.0419011862 -0.937626545 0 0
-3.003684 0.273755 0.001269 0.351222816 -0.0208013513 -0.936060808 0 0
-3.001057 0.200389 0.017147 0.983407798 -0.0667005289 -0.168701338 0 0
-3.003719 0.201363 0.033569 0.641198224 0.0108999698 0.767297875 0 0
-2.998947 0.2746 0.028543 0.651612876 0.0144002846 0.758414986 0 0
-2.997815 0.33776 0.026022 0.67800259 0.0394001505 0.734002804 0 0
-2.995868 0.337498 0.013208 0.979500735 0.0713000535 -0.188400141 0 0
-3.002287 0.337869 0.001914 0.355810169 0.0714020407 -0.931826632 0 0
-3.017337 0.275142 0.00641 -0.634347162 0.0371027585 -0.772157408 0 0
-3.033187 0.203349 0.022636 -0.978732597 0.120104 0.166305539 0 0
-3.02486 0.276347 0.018928 -0.981863754 0.0921059806 0.16571076 0 0
-3.024632 0.201978 0.0084 -0.636776118 0.0425984024 -0.769871127 0 0
-3.01439 0.338808 0.006604 -0.633931209 0.0153007533 -0.773238067 0 0
-3.020969 0.339397 0.017766 -0.985280644 -0.0355993007 0.167196715 0 0
-3.013547 0.275817 0.028229 -0.336323848 0.072305127 0.93896658 0 0
-3.020323 0.202747 0.033212 -0.34058592 0.0953960564 0.935361333 0 0
-3.010813 0.33872 0.02589 -0.318900258 -0.027100022 0.947400767 0 0
-3.002555 0.382049 0.016619 0.960433039 0.185206371 -0.208007156 0 0
-3.008943 0.383503 0.006418 0.292117395 0.219913095 -0.930755423 0 0
-3.003966 0.380762 0.028513 0.687514895 -0.00890019282 0.726115731 0 0
-3.010479 0.423092 0.039925 0.67231304 -0.186403615 0.716413895 0 0
-3.009429 0.425383 0.028818 0.964472984 0.153911647 -0.214716248 0 0
-3.015661 0.427676 0.019472 0.259808126 0.3421107 -0.903028243 0 0
-3.020142 0.38348 0.011166 -0.65924037 0.0635038888 -0.749245881 0 0
-3.02595 0.382551 0.021697 -0.977430922 -0.146604638 0.152104812 0 0
-3.026067 0.427224 0.024161 -0.674923805 0.217107658 -0.705224874 0 0
-3.031276 0.425394 0.034104 -0.980096031 -0.0927996242 0.175499289 0 0
-3.016161 0.381287 0.028842 -0.314118719 -0.202412062 0.927555275 0 0
-3.021921 0.423557 0.040523 -0.320895029 -0.313895138 0.893586158 0 0
-3.009249 0.485482 0.054286 0.982219075 0.0476009244 -0.181603527 0 0
-3.014453 0.487407 0.045765 0.339108162 0.310807481 -0.887921373 0 0
-3.010436 0.484233 0.064169 0.633582447 -0.236693442 0.736579593 0 0
-3.008864 0.557607 0.080863 0.605612639 -0.0479009997 0.794316578 0 0
-3.007491 0.557255 0.072668 0.991766421 0.012900864 -0.127408533 0 0
-3.011324 0.55831 0.065275 0.402591932 0.0935981243 -0.910581752 0 0
-3.023637 0.488105 0.049649 -0.651063053 0.26978469 -0.709459739 0 0
-3.028421 0.487512 0.058373 -0.975978895 -0.0142996908 0.217395299 0 0
-3.018887 0.560348 0.068037 -0.65342105 0.0724023325 -0.753524275 0 0
-3.023109 0.561473 0.075074 -0.972152639 0.0337018248 0.231912557 0 0
-3.020424 0.485566 0.064372 -0.3384038 -0.256702883 0.905310167 0 0
-3.016919 0.559786 0.080508 -0.348013764 -0.0169006684 0.937337072 0 0
-3.009632 0.635611 0.063607 0.992238574 0.0421016367 -0.117004549 0 0
-3.01228 0.635999 0.057976 0.372596757 -0.135198823 -0.918092008 0 0
-3.010794 0.636634 0.069628 0.614712205 0.200603983 0.762815146 0 0
-3.018256 0.709606 0.045702 0.591656266 0.377835932 0.712167727 0 0
-3.0165 0.706211 0.042835 0.987061412 0.111106913 -0.115607193 0 0
-3.019139 0.708556 0.038258 0.270493442 -0.221994618 -0.936777288 0 0
-3.017848 0.638181 0.059727 -0.650329854 -0.166707653 -0.741134023 0 0
-3.021064 0.639847 0.064778 -0.983102709 0.0322000887 0.180200496 0 0
-3.02185 0.707887 0.040027 -0.651229045 -0.290612962 -0.701031267 0 0
-3.024738 0.711636 0.042307 -0.984020089 -0.108602217 0.141102881 0 0
-3.016659 0.638689 0.069048 -0.330402549 0.212501639 0.919607095 0 0
-3.021123 0.708764 0.046173 -0.282700596 0.293500619 0.913201927 0 0
-3.028928 0.754718 0.026082 0.964727114 0.232906546 -0.122703449 0 0
-3.033714 0.764059 0.020506 0.294308846 0.0232006973 -0.955428716 0 0
-3.033284 0.76481 0.024322 0.480629721 0.64864011 0.590136492 0 0
-3.035708 0.767987 0.021207 -0.642583547 0.722681496 -0.254593481 0 0
-3.032223 0.755751 0.024244 -0.651109187 -0.369605215 -0.662909354 0 0
-3.03658 0.765843 0.022484 -0.978890906 0.0178998337 0.203598109 0 0
-3.031794 0.756501 0.02806 -0.252896123 0.301895372 0.919185909 0 0
3 0 1 2
3 0 3 1
3 0 4 3
3 0 5 4
3 0 6 5
3 0 7 6
3 0 8 7
3 0 2 8
3 9 10 11
3 9 12 10
3 9 1 12
3 9 2 1
3 9 8 2
3 9 13 8
3 9 14 13
3 9 11 14
3 15 4 5
3 15 16 4
3 15 10 16
3 15 11 10
3 15 14 11
3 15 17 14
3 15 6 17
3 15 5 6
3 18 8 19
3 18 7 8
3 18 6 7
3 18 20 6
3 18 21 20
3 18 22 21
3 18 23 22
3 18 19 23
3 24 14 25
3 24 13 14
3 24 8 13
3 24 19 8
3 24 23 19
3 24 26 23
3 24 27 26
3 24 25 27
3 28 6 20
3 28 17 6
3 28 14 17
3 28 25 14
3 28 27 25
3 28 29 27
3 28 21 29
3 28 20 21
3 30 23 31
3 30 22 23
3 30 21 22
3 30 32 21
3 30 33 32
3 30 34 33
3 30 35 34
3 30 31 35
3 36 27 37
3 36 26 27
3 36 23 26
3 36 31 23
3 36 35 31
3 36 38 35
3 36 39 38
3 36 37 39
3 40 21 32
3 40 29 21
3 40 27 29
3 40 37 27
3 40 39 37
3 40 41 39
3 40 33 41
3 40 32 33
3 42 35 43
3 42 34 35
3 42 33 34
3 42 44 33
3 42 45 44
3 42 46 45
3 42 47 46
3 42 43 47
3 48 39 49
3 48 38 39
3 48 35 38
3 48 43 35
3 48 47 43
3 48 50 47
3 48 51 50
3 48 49 51
3 52 33 44
3 52 41 33
3 52 39 41
3 52 49 39
3 52 51 49
3 52 53 51
3 52 45 53
3 52 44 45
3 54 47 55
3 54 46 47
3 54 45 46
3 54 56 45
3 54 57 56
3 54 55 57
3 58 51 59
3 58 50 51
3 58 47 50
3 58 55 47
3 58 57 55
3 58 59 57
3 60 45 56
3 60 53 45
3 60 51 53
3 60 59 51
3 60 57 59
3 60 56 57
3 61 62 63
3 61 64 62
3 61 65 64
3 61 66 65
3 61 67 66
3 61 68 67
3 61 69 68
3 61 63 69
3 70 71 72
3 70 73 71
3 70 62 73
3 70 63 62
3 70 69 63
3 70 74 69
3 70 75 74
3 70 72 75
3 76 65 66
3 76 77 65
3 76 71 77
3 76 72 71
3 76 75 72
3 76 78 75
3 76 67 78
3 76 66 67
3 79 69 80
3 79 68 69
3 79 67 68
3 79 81 67
3 79 82 81
3 79 83 82
3 79 84 83
3 79 80 84
3 85 75 86
3 85 74 75
3 85 69 74
3 85 80 69
3 85 84 80
3 85 87 84
3 85 88 87
3 85 86 88
3 89 67 81
3 89 78 67
3 89 75 78
3 89 86 75
3 89 88 86
3 89 90 88
3 89 82 90
3 89 81 82
3 91 84 92
3 91 83 84
3 91 82 83
3 91 93 82
3 91 94 93
3 91 95 94
3 91 96 95
3 91 92 96
3 97 88 98
3 97 87 88
3 97 84 87
3 97 92 84
3 97 96 92
3 97 99 96
3 97 100 99
3 97 98 100
3 101 82 93
3 101 90 82
3 101 88 90
3 101 98 88
3 101 100 98
3 101 102 100
3 101 94 102
3 101 93 94
3 103 96 104
3 103 95 96
3 103 94 95
3 103 105 94
3 103 106 105
3 103 107 106
3 103 108 107
3 103 104 108
3 109 100 110
3 109 99 100
3 109 96 99
3 109 104 96
3 109 108 104
3 109 111 108
3 109 112 111
3 109 110 112
3 113 94 105
3 113 102 94
3 113 100 102
3 113 110 100
3 113 112 110
3 113 114 112
3 113 106 114
3 113 105 106
3 115 108 116
3 115 107 108
3 115 106 107
3 115 117 106
3 115 118 117
3 115 116 118
3 119 112 120
3 119 111 112
3 119 108 111
3 119 116 108
3 119 118 116
3 119 120 118
3 121 106 117
3 121 114 106
3 121 112 114
3 121 120 112
3 121 118 120
3 121 117 118
3 122 123 124
3 122 125 123
3 122 126 125
3 122 127 126
3 122 128 127
3 122 129 128
3 122 130 129
3 122 124 130
3 131 132 133
3 131 134 132
3 131 123 134
3 131 124 123
3 131 130 124
3 131 135 130
3 131 136 135
3 131 133 136
3 137 126 127
3 137 138 126
3 137 132 138
3 137 133 132
3 137 136 133
3 137 139 136
3 137 128 139
3 137 127 128
3 140 130 141
3 140 129 130
3 140 128 129
3 140 142 128
3 140 143 142
3 140 144 143
3 140 145 144
3 140 141 145
3 146 136 147
3 146 135 136
3 146 130 135
3 146 141 130
3 146 145 141
3 146 148 145
3 146 149 148
3 146 147 149
3 150 128 142
3 150 139 128
3 150 136 139
3 150 147 136
3 150 149 147
3 150 151 149
3 150 143 151
3 150 142 143
3 152 145 153
3 152 144 145
3 152 143 144
3 152 154 143
3 152 155 154
3 152 156 155
3 152 157 156
3 152 153 157
3 158 149 159
3 158 148 149
3 158 145 148
3 158 153 145
3 158 157 153
3 158 160 157
3 158 161 160
3 158 159 161
3 162 143 154
3 162 151 143
3 162 149 151
3 162 159 149
3 162 161 159
3 162 163 161
3 162 155 163
3 162 154 155
3 164 157 165
3 164 156 157
3 164 155 156
3 164 166 155
3 164 167 166
3 164 168 167
3 164 169 168
3 164 165 169
3 170 161 171
3 170 160 161
3 170 157 160
3 170 165 157
3 170 169 165
3 170 172 169
3 170 173 172
3 170 171 173
3 174 155 166
3 174 163 155
3 174 161 163
3 174 171 161
3 174 173 171
3 174 175 173
3 174 167 175
3 174 166 167
3 176 169 177
3 176 168 169
3 176 167 168
3 176 178 167
3 176 179 178
3 176 177 179
3 180 173 181
3 180 172 173
3 180 169 172
3 180 177 169
3 180 179 177
3 180 181 179
3 182 167 178
3 182 175 167
3 182 173 175
3 182 181 173
3 182 179 181
3 182 178 179
3 183 184 185
3 183 186 184
3 183 187 186
3 183 188 187
3 183 189 188
3 183 190 189
3 183 191 190
3 183 185 191
3 192 193 194
3 192 195 193
3 192 184 195
3 192 185 184
3 192 191 185
3 192 196 191
3 192 197 196
3 192 194 197
3 198 187 188
3 198 199 187
3 198 193 199
3 198 194 193
3 198 197 194
3 198 200 197
3 198 189 200
3 198 188 189
3 201 191 202
3 201 190 191
3 201 189 190
3 201 203 189
3 201 204 203
3 201 205 204
3 201 206 205
3 201 202 206
3 207 197 208
3 207 196 197
3 207 191 196
3 207 202 191
3 207 206 202
3 207 209 206
3 207 210 209
3 207 208 210
3 211 189 203
3 211 200 189
3 211 197 200
3 211 208 197
3 211 210 208
3 211 212 210
3 211 204 212
3 211 203 204
3 213 206 214
3 213 205 206
3 213 204 205
3 213 215 204
3 213 216 215
3 213 217 216
3 213 218 217
3 213 214 218
3 219 210 220
3 219 209 210
3 219 206 209
3 219 214 206
3 219 218 214
3 219 221 218
3 219 222 221
3 219 220 222
3 223 204 215
3 223 212 204
3 223 210 212
3 223 220 210
3 223 222 220
3 223 224 222
3 223 216 224
3 223 215 216
3 225 218 226
3 225 217 218
3 225 216 217
3 225 227 216
3 225 228 227
3 225 229 228
3 225 230 229
3 225 226 230
3 231 222 232
3 231 221 222
3 231 218 221
3 231 226 218
3 231 230 226
3 231 233 230
3 231 234 233
3 231 232 234
3 235 216 227
3 235 224 216
3 235 222 224
3 235 232 222
3 235 234 232
3 235 236 234
3 235 228 236
3 235 227 228
3 237 230 238
3 237 229 230
3 237 228 229
3 237 239 228
3 237 240 239
3 237 238 240
3 241 234 242
3 241 233 234
3 241 230 233
3 241 238 230
3 241 240 238
3 241 242 240
3 243 228 239
3 243 236 228
3 243 234 236
3 243 242 234
3 243 240 242
3 243 239 240
