ply
format ascii 1.0
element vertex 748
property float x
property float y
property float z
property float nx
property float ny
property float nz
property float u
property float v
element face 816
property list uchar int vertex_indices
end_header
-2.820736 0.269877 -0.015811 0.786872668 0.613478691 -0.0668976763 0.534256 0.709559
-2.86265 0.30397 -0.089628 0.632509738 0.766411799 -0.112001724 0.150317 0.76837
-2.853222 0.306551 -0.013578 0.641912793 0.764715241 -0.0562011201 0.336506 0.483737
-2.811862 0.249099 -0.067505 0.789163711 0.605772144 -0.101295342 0.491257 0.965403
-2.78826 0.21863 -0.017679 0.841373745 0.535783281 -0.0708977877 0.819521 0.943554
-2.803629 0.249658 0.034388 0.794604033 0.606203076 -0.03350017 0.740853 0.599345
-2.8503 0.304809 0.063212 0.64161931 0.767023084 0.000500015048 0.541148 0.2429
-2.89872 0.334577 -0.009865 0.479092347 0.876685995 -0.0434993051 0.263333 0.369123
-2.963725 0.364204 -0.0043 0.411705346 0.910511823 -0.0383004973 0.148355 0.134475
-2.920606 0.346708 0.043307 0.468083369 0.883568607 -0.0142994919 0.395838 -0.020532
-2.928838 0.346148 -0.058586 0.463409977 0.883319018 -0.0707015222 -0.026908 0.466559
-3.106168 0.435719 0.131489 -0.332896556 0.941190263 0.0577994021 0.534256 0.709559
-3.017845 0.459125 0.135876 -0.166905206 0.982430642 -0.0835026045 0.150317 0.76837
-3.078796 0.44443 0.091737 -0.2139116 0.970352619 -0.112506101 0.336506 0.483737
-3.078758 0.439948 0.180616 -0.311090703 0.946571712 0.0849974599 0.491257 0.965403
-3.136912 0.41575 0.179867 -0.382178679 0.914248995 0.134492497 0.819521 0.943554
-3.158174 0.415514 0.121064 -0.36391212 0.930330985 0.0453015088 0.740853 0.599345
-3.13697 0.422473 0.046549 -0.254592101 0.955470357 -0.149195371 0.541148 0.2429
-3.04587 0.438616 0.049888 -0.093204315 0.958644381 -0.26891245 0.263333 0.369123
-3.001241 0.422268 -0.003734 -0.0460006705 0.944213762 -0.326104753 0.148355 0.134475
-3.067726 0.419859 -0.001337 -0.105898067 0.949082675 -0.296694584 0.395838 -0.020532
-2.98831 0.444294 0.058215 -0.0617997392 0.962595938 -0.263798887 -0.026908 0.466559
-3.028557 0.262036 -0.118315 -0.0187006425 0.446815351 -0.894430729 0.534256 0.709559
-3.076846 0.327582 -0.076603 0.0215988657 0.630166905 -0.776159237 0.150317 0.76837
-3.007798 0.300444 -0.095971 0.0704986105 0.606588044 -0.791884392 0.336506 0.483737
-3.084872 0.260411 -0.115375 -0.0532988075 0.451889889 -0.890480076 0.491257 0.965403
-3.053789 0.210178 -0.137251 -0.0591002311 0.367601437 -0.928103629 0.819521 0.943554
-2.992427 0.222175 -0.136404 0.00820037374 0.426519439 -0.904441221 0.740853 0.599345
-2.938178 0.270228 -0.108146 0.123701951 0.587909271 -0.799412607 0.541148 0.2429
-2.985894 0.332695 -0.059238 0.152210481 0.732850462 -0.663145662 0.263333 0.369123
-2.957797 0.369162 -0.004328 0.181897553 0.77368959 -0.606891834 0.148355 0.134475
-2.928432 0.328164 -0.047789 0.183694282 0.730377264 -0.657879521 0.395838 -0.020532
-3.020878 0.3664 -0.02676 0.132497797 0.751587505 -0.646189257 -0.026908 0.466559
-2.865207 0.33986 0.121242 0.384126371 0.865859443 0.320522005 0.534256 0.709559
-2.832695 0.34869 0.036195 0.312683531 0.941650405 0.124593438 0.150317 0.76837
-2.890622 0.360863 0.084934 0.272098523 0.948294851 0.163399113 0.336506 0.483737
-2.814457 0.320167 0.106434 0.414913846 0.856928596 0.305810205 0.491257 0.965403
-2.837751 0.305533 0.163102 0.429597929 0.815796068 0.387198134 0.819521 0.943554
-2.893992 0.332092 0.169539 0.362001575 0.864903762 0.347701513 0.740853 0.599345
-2.951998 0.366578 0.130853 0.224902751 0.954811677 0.194302376 0.541148 0.2429
-2.922936 0.368949 0.042985 0.15499635 0.987876736 0.00869979512 0.263333 0.369123
-2.967641 0.370983 -0.012976 0.108599115 0.992791914 -0.0506995871 0.148355 0.134475
-2.980586 0.375725 0.052153 0.123898798 0.992190371 0.0143998603 0.395838 -0.020532
-2.90105 0.3638 -0.010952 0.167898142 0.985589095 -0.0205997721 -0.026908 0.466559
-2.860844 0.485257 -0.001441 0.666706357 0.745207106 -0.013000124 0.534256 0.709559
-2.863791 0.481006 -0.057706 0.539300976 0.82330149 -0.17700032 0.150317 0.76837
-2.881088 0.500414 -0.018119 0.521224986 0.84384045 -0.127506112 0.336506 0.483737
-2.839775 0.464181 -0.019501 0.685684319 0.726983374 -0.0364991653 0.491257 0.965403
-2.839916 0.462121 0.019353 0.723260301 0.689462156 0.0391978485 0.819521 0.943554
-2.865171 0.487823 0.033254 0.658291037 0.752489755 0.0202997236 0.740853 0.599345
-2.901885 0.516469 0.021426 0.493890157 0.865582749 -0.0826983518 0.541148 0.2429
-2.908331 0.508867 -0.034882 0.362630141 0.903075062 -0.230119127 0.263333 0.369123
-2.946761 0.515243 -0.055889 0.298092785 0.916377819 -0.267193533 0.148355 0.134475
-2.936401 0.523238 -0.016908 0.338509961 0.916326963 -0.213906294 0.395838 -0.020532
-2.911005 0.499596 -0.069662 0.361218984 0.895147046 -0.261213728 -0.026908 0.466559
-3.104403 0.527672 -0.043181 -0.320914616 0.879140041 -0.352316047 0.534256 0.709559
-3.064362 0.550409 -0.010436 -0.104196422 0.924768244 -0.365987432 0.150317 0.76837
-3.075927 0.53206 -0.052538 -0.121806777 0.901850176 -0.414523063 0.336506 0.483737
-3.11062 0.537008 -0.01019 -0.321396352 0.891489882 -0.319296376 0.491257 0.965403
-3.137667 0.516909 -0.029642 -0.406816385 0.856034477 -0.318912844 0.819521 0.943554
-3.124797 0.509726 -0.065341 -0.33659909 0.862097668 -0.378798975 0.740853 0.599345
-3.085627 0.509487 -0.093163 -0.129598359 0.87598891 -0.464594118 0.541148 0.2429
-3.043721 0.528001 -0.058942 0.0709024838 0.886731063 -0.456816003 0.263333 0.369123
-3.001134 0.517649 -0.065104 0.144202926 0.871717687 -0.468309502 0.148355 0.134475
-3.033775 0.51022 -0.088983 0.0790997702 0.871597468 -0.483798595 0.395838 -0.020532
-3.019598 0.537501 -0.033831 0.0919016097 0.896015694 -0.434407609 -0.026908 0.466559
-2.947372 0.425133 -0.138327 0.402130551 0.522639706 -0.751757113 0.534256 0.709559
-2.996121 0.453697 -0.138696 0.312914577 0.69613243 -0.646130101 0.150317 0.76837
-2.952275 0.44967 -0.121252 0.365497301 0.687594922 -0.627395367 0.336506 0.483737
-2.974465 0.415179 -0.157849 0.372216054 0.518322356 -0.769933208 0.491257 0.965403
-2.9436 0.391682 -0.154833 0.412913798 0.440014703 -0.797426646 0.819521 0.943554
-2.917261 0.408327 -0.13201 0.433828755 0.511033872 -0.742049185 0.740853 0.599345
-2.910315 0.443419 -0.099937 0.415094351 0.683890692 -0.599991834 0.541148 0.2429
-2.96095 0.469758 -0.096435 0.316507478 0.815519267 -0.484511447 0.263333 0.369123
-2.97415 0.492088 -0.060575 0.294407558 0.856121977 -0.424710902 0.148355 0.134475
-2.937628 0.475264 -0.069171 0.337794168 0.820485834 -0.461192038 0.395838 -0.020532
-2.994832 0.482116 -0.095011 0.286505045 0.826714559 -0.484208527 -0.026908 0.466559
-2.98219 0.487089 0.08668 0.1247971 0.986177081 0.108997467 0.534256 0.709559
-2.933876 0.479645 0.058346 0.191100774 0.976203954 -0.102500415 0.150317 0.76837
-2.98042 0.488192 0.056459 0.135299267 0.985694662 -0.100499456 0.336506 0.483737
-2.952162 0.480054 0.102898 0.157897741 0.980185979 0.119598289 0.491257 0.965403
-2.985272 0.479821 0.123332 0.118197817 0.972082046 0.202696256 0.819521 0.943554
-3.014684 0.488309 0.099783 0.090599711 0.989096845 0.11609963 0.740853 0.599345
-3.02766 0.492028 0.053672 0.0792978154 0.990972699 -0.108097022 0.541148 0.2429
-2.980042 0.479872 0.024438 0.139510192 0.945469069 -0.294321501 0.263333 0.369123
-2.980437 0.463584 -0.016712 0.139703668 0.920224161 -0.365609599 0.148355 0.134475
-3.011461 0.477485 0.00642 0.111603112 0.944226325 -0.309808638 0.395838 -0.020532
-2.948938 0.46923 0.009536 0.167600468 0.936802618 -0.307100858 -0.026908 0.466559
-2.921032 0.569289 -0.048427 0.360205288 0.927213612 0.102601506 0.534256 0.709559
-2.902225 0.56221 -0.077011 0.333584675 0.935357031 -0.117594598 0.150317 0.76837
-2.927321 0.572332 -0.065809 0.286514439 0.95364806 -0.0920046367 0.336506 0.483737
-2.901359 0.560571 -0.047286 0.392791592 0.914380428 0.0980979002 0.491257 0.965403
-2.914686 0.562115 -0.027313 0.388595918 0.901690528 0.189598008 0.819521 0.943554
-2.935628 0.572268 -0.032677 0.333094302 0.934784011 0.123397889 0.740853 0.599345
-2.953629 0.579756 -0.055097 0.234498947 0.969195648 -0.0752996619 0.541148 0.2429
-2.936034 0.56998 -0.084171 0.205001533 0.940207033 -0.272002035 0.263333 0.369123
-2.948441 0.56367 -0.107736 0.171696547 0.925281393 -0.338193199 0.148355 0.134475
-2.958132 0.573305 -0.086292 0.173597843 0.945788249 -0.274496589 0.395838 -0.020532
-2.923862 0.561607 -0.100902 0.223296654 0.928786082 -0.295795568 -0.026908 0.466559
-3.009025 0.54532 -0.131452 -0.23400812 0.718824944 -0.654622716 0.534256 0.709559
-3.004861 0.567317 -0.104626 -0.067800618 0.828207549 -0.556305071 0.150317 0.76837
-2.992534 0.55302 -0.127017 -0.0477998303 0.798497165 -0.60009787 0.336506 0.483737
-3.025334 0.550655 -0.118417 -0.256696624 0.732090373 -0.630991703 0.491257 0.965403
-3.028478 0.533094 -0.134561 -0.315405986 0.672212759 -0.669812713 0.819521 0.943554
-3.008278 0.530204 -0.146974 -0.226890056 0.69656947 -0.680670167 0.740853 0.599345
-2.979277 0.536641 -0.147462 -0.018499535 0.769080669 -0.638883942 0.541148 0.2429
-2.974183 0.556558 -0.11869 0.130196887 0.841279885 -0.524687455 0.263333 0.369123
-2.950082 0.55838 -0.105848 0.197095713 0.848981535 -0.490289336 0.148355 0.134475
-2.956015 0.547061 -0.127832 0.155791182 0.828053129 -0.538569515 0.395838 -0.020532
-2.97307 0.567512 -0.099275 0.131103611 0.857723626 -0.497113693 -0.026908 0.466559
-2.901784 0.519157 -0.122406 0.641597511 0.582197741 -0.499398062 0.534256 0.709559
-2.928931 0.526661 -0.143085 0.471716716 0.725025692 -0.501817782 0.150317 0.76837
-2.913712 0.533177 -0.118926 0.503396886 0.73399546 -0.45589718 0.336506 0.483737
-2.906303 0.507546 -0.139987 0.630033314 0.568030035 -0.529528 0.491257 0.965403
-2.889397 0.499702 -0.12477 0.695089539 0.504692404 -0.511992295 0.819521 0.943554
-2.887356 0.515204 -0.106716 0.662960949 0.58146575 -0.471572223 0.740853 0.599345
-2.90051 0.538148 -0.093177 0.526512334 0.747117501 -0.405709504 0.541148 0.2429
-2.929674 0.544107 -0.112267 0.352821323 0.847751236 -0.396023934 0.263333 0.369123
-2.952149 0.55584 -0.101956 0.291406554 0.882519848 -0.369108301 0.148355 0.134475
-2.92919 0.552629 -0.091507 0.354397822 0.860194714 -0.366697747 0.395838 -0.020532
-2.948137 0.544971 -0.124778 0.326903853 0.849110007 -0.41490489 -0.026908 0.466559
-3.007612 0.556394 -0.014078 -0.0606024954 0.997541075 0.0352014494 0.534256 0.709559
-2.96862 0.555711 -0.013908 0.104000286 0.988102717 -0.113300312 0.150317 0.76837
-2.99613 0.556335 -0.031551 0.0542028292 0.988651604 -0.140107313 0.336506 0.483737
-2.994966 0.555455 0.006359 -0.0369011379 0.997430756 0.0614018934 0.491257 0.965403
-3.021621 0.552326 0.007295 -0.111900097 0.987100854 0.114500099 0.819521 0.943554
-3.031465 0.554078 -0.017416 -0.0937997106 0.99529693 0.0241999253 0.740853 0.599345
-3.023368 0.553646 -0.04957 0.0095003776 0.984539131 -0.174906952 0.541148 0.2429
-2.984103 0.549651 -0.049776 0.160106713 0.940339429 -0.300212588 0.263333 0.369123
-2.968728 0.537155 -0.073026 0.199109253 0.912042384 -0.358516661 0.148355 0.134475
-2.996202 0.543964 -0.070963 0.144198364 0.933889405 -0.327196288 0.395838 -0.020532
-2.959704 0.545341 -0.047189 0.191608538 0.935641693 -0.296413208 -0.026908 0.466559
-2.898034 0.609883 -0.092167 0.360205288 0.927213612 0.102601506 0.534256 0.709559
-2.879228 0.602804 -0.120751 0.333584675 0.935357031 -0.117594598 0.150317 0.76837
-2.904324 0.612926 -0.109549 0.286514439 0.95364806 -0.0920046367 0.336506 0.483737
-2.878361 0.601165 -0.091026 0.392791592 0.914380428 0.0980979002 0.491257 0.965403
-2.891688 0.602709 -0.071053 0.388595918 0.901690528 0.189598008 0.819521 0.943554
-2.912631 0.612863 -0.076417 0.333094302 0.934784011 0.123397889 0.740853 0.599345
-2.930631 0.620351 -0.098837 0.234498947 0.969195648 -0.0752996619 0.541148 0.2429
-2.913037 0.610574 -0.127911 0.205001533 0.940207033 -0.272002035 0.263333 0.369123
-2.925443 0.604264 -0.151476 0.171696547 0.925281393 -0.338193199 0.148355 0.134475
-2.935134 0.613899 -0.130032 0.173597843 0.945788249 -0.274496589 0.395838 -0.020532
-2.900865 0.602201 -0.144642 0.223296654 0.928786082 -0.295795568 -0.026908 0.466559
-2.972355 0.595637 -0.174702 -0.23400812 0.718824944 -0.654622716 0.534256 0.709559
-2.96892 0.613784 -0.152573 -0.067800618 0.828207549 -0.556305071 0.150317 0.76837
-2.958751 0.601989 -0.171044 -0.0477998303 0.798497165 -0.60009787 0.336506 0.483737
-2.985809 0.600038 -0.163949 -0.256696624 0.732090373 -0.630991703 0.491257 0.965403
-2.988402 0.585551 -0.177268 -0.315405986 0.672212759 -0.669812713 0.819521 0.943554
-2.971739 0.583167 -0.187508 -0.226890056 0.69656947 -0.680670167 0.740853 0.599345
-2.947815 0.588478 -0.18791 -0.018499535 0.769080669 -0.638883942 0.541148 0.2429
-2.943612 0.604908 -0.164175 0.130196887 0.841279885 -0.524687455 0.263333 0.369123
-2.923731 0.606411 -0.153581 0.197095713 0.848981535 -0.490289336 0.148355 0.134475
-2.928625 0.597074 -0.171716 0.155791182 0.828053129 -0.538569515 0.395838 -0.020532
-2.942694 0.613944 -0.148158 0.131103611 0.857723626 -0.497113693 -0.026908 0.466559
-2.878711 0.561691 -0.163325 0.641597511 0.582197741 -0.499398062 0.534256 0.709559
-2.905857 0.569194 -0.184004 0.471716716 0.725025692 -0.501817782 0.150317 0.76837
-2.890638 0.57571 -0.159845 0.503396886 0.73399546 -0.45589718 0.336506 0.483737
-2.883229 0.550079 -0.180907 0.630033314 0.568030035 -0.529528 0.491257 0.965403
-2.866324 0.542235 -0.165689 0.695089539 0.504692404 -0.511992295 0.819521 0.943554
-2.864282 0.557738 -0.147635 0.662960949 0.58146575 -0.471572223 0.740853 0.599345
-2.877436 0.580682 -0.134097 0.526512334 0.747117501 -0.405709504 0.541148 0.2429
-2.9066 0.586641 -0.153186 0.352821323 0.847751236 -0.396023934 0.263333 0.369123
-2.929075 0.598373 -0.142875 0.291406554 0.882519848 -0.369108301 0.148355 0.134475
-2.906117 0.595163 -0.132426 0.354397822 0.860194714 -0.366697747 0.395838 -0.020532
-2.925064 0.587505 -0.165698 0.326903853 0.849110007 -0.41490489 -0.026908 0.466559
-2.980958 0.595343 -0.070976 -0.184194419 0.980970277 -0.0613981397 0.534256 0.709559
-2.946401 0.599269 -0.067622 -0.00559979726 0.981164478 -0.193093009 0.150317 0.76837
-2.969214 0.595383 -0.085571 -0.0521025098 0.973146878 -0.2242108 0.336506 0.483737
-2.971514 0.597426 -0.051719 -0.163496419 0.985978402 -0.0333992684 0.491257 0.965403
-2.994843 0.591633 -0.052783 -0.241595784 0.970283069 0.0134997644 0.819521 0.943554
-3.001509 0.590292 -0.075679 -0.215691535 0.973561793 -0.0751970489 0.740853 0.599345
-2.991393 0.588568 -0.103561 -0.092296634 0.960564969 -0.262290434 0.541148 0.2429
-2.956201 0.589565 -0.100248 0.0744999248 0.926399064 -0.369099627 0.263333 0.369123
-2.93914 0.578632 -0.118646 0.122296873 0.898877016 -0.420789241 0.148355 0.134475
-2.964374 0.581625 -0.119587 0.0622961069 0.915842766 -0.396675211 0.395838 -0.020532
-2.934379 0.588759 -0.095627 0.105795552 0.926161065 -0.361984782 -0.026908 0.466559
-3.150498 0.290144 0.209197 -0.582409572 0.567609329 0.581909564 0.534256 0.709559
-3.076024 0.300634 0.261271 -0.404411154 0.699819301 0.58881624 0.150317 0.76837
-3.117563 0.325747 0.201915 -0.437518477 0.714830188 0.545523038 0.336506 0.483737
-3.138467 0.254947 0.251614 -0.570412504 0.550012056 0.610013372 0.491257 0.965403
-3.18562 0.240737 0.212336 -0.639921982 0.492316911 0.590020268 0.819521 0.943554
-3.190626 0.285815 0.169292 -0.605106835 0.570606445 0.555206271 0.740853 0.599345
-3.154263 0.346937 0.137788 -0.46200979 0.733915552 0.497910551 0.541148 0.2429
-3.074951 0.353503 0.185089 -0.283211656 0.825133959 0.488820118 0.263333 0.369123
-3.015639 0.383295 0.158091 -0.22100941 0.858836566 0.462119675 0.148355 0.134475
-3.077306 0.380854 0.133129 -0.285299302 0.840397945 0.460798873 0.395838 -0.020532
-3.025147 0.349986 0.215451 -0.256399383 0.82329802 0.506398782 -0.026908 0.466559
-2.938549 0.435719 -0.027866 0.290687546 0.941159677 -0.172392614 0.534256 0.709559
-3.022667 0.459125 -0.000583 0.185705205 0.982427538 0.0187005242 0.150317 0.76837
-2.950009 0.44443 0.019017 0.239914286 0.970357782 0.0291017329 0.336506 0.483737
-2.981627 0.439948 -0.064048 0.260591672 0.946569748 -0.189993928 0.491257 0.965403
-2.927002 0.41575 -0.084012 0.309391476 0.914274812 -0.261492796 0.819521 0.943554
-2.886233 0.415514 -0.036602 0.324013774 0.93033955 -0.171707299 0.740853 0.599345
-2.879575 0.422473 0.040585 0.290990943 0.955470261 0.0489984749 0.541148 0.2429
-2.965916 0.438616 0.069835 0.182708725 0.958645781 0.218210421 0.263333 0.369123
-2.988579 0.422268 0.135816 0.158802912 0.944217312 0.28850529 0.148355 0.134475
-2.927284 0.419859 0.10995 0.204397316 0.949087539 0.239696853 0.395838 -0.020532
-3.022679 0.444294 0.082505 0.15150029 0.962601843 0.22460043 -0.026908 0.466559
-2.916922 0.278907 0.249369 0.23420913 0.763829775 0.601423444 0.534256 0.709559
-2.895711 0.323641 0.172447 0.12939672 0.884777576 0.447688653 0.150317 0.76837
-2.949601 0.30494 0.223686 0.0925017377 0.868316311 0.487309154 0.336506 0.483737
-2.865049 0.27741 0.22724 0.264403128 0.767709082 0.583706905 0.491257 0.965403
-2.879023 0.239266 0.275383 0.295295507 0.705289269 0.644490194 0.819521 0.943554
-2.938475 0.24869 0.29231 0.215595833 0.748685528 0.626887882 0.740853 0.599345
-3.005851 0.28056 0.270052 0.0482976658 0.853058773 0.51957489 0.541148 0.2429
-2.987001 0.319615 0.188257 -0.0453005586 0.931811489 0.36010444 0.263333 0.369123
-3.036702 0.330858 0.137881 -0.0975997184 0.946497269 0.307599113 0.148355 0.134475
-3.043595 0.309752 0.200641 -0.076002374 0.92682895 0.367711486 0.395838 -0.020532
-2.970168 0.338472 0.135572 -0.0354018585 0.942749491 0.331617409 -0.026908 0.466559
-3.162598 0.324499 0.05909 -0.592014487 0.805919721 -0.00350008565 0.534256 0.709559
-3.161791 0.316651 0.150226 -0.463691373 0.870383807 0.165596919 0.150317 0.76837
-3.12861 0.345604 0.087458 -0.441905838 0.889411749 0.116901544 0.336506 0.483737
-3.200861 0.293653 0.086789 -0.613482421 0.789477378 0.0190994527 0.491257 0.965403
-3.198693 0.290682 0.023904 -0.651720018 0.756223228 -0.0582017877 0.819521 0.943554
-3.153211 0.328291 0.003243 -0.581694587 0.812592439 -0.0363996613 0.740853 0.599345
-3.090315 0.368608 0.024907 -0.411077023 0.908649213 0.0732959032 0.541148 0.2429
-3.084396 0.354813 0.116261 -0.282207466 0.932424668 0.225705971 0.263333 0.369123
-3.022737 0.358888 0.152537 -0.217990572 0.939259378 0.265088535 0.148355 0.134475
-3.035907 0.373762 0.088998 -0.256304945 0.943418203 0.21040406 0.395838 -0.020532
-3.083557 0.339124 0.172544 -0.28270568 0.924218568 0.256705157 -0.026908 0.466559
-3.097268 0.49775 0.201367 -0.618587687 0.745185167 0.249095042 0.534256 0.709559
-3.074521 0.493499 0.252913 -0.441199837 0.823299695 0.357099868 0.150317 0.76837
-3.072419 0.512907 0.209763 -0.441914714 0.843828096 0.304410136 0.336506 0.483737
-3.110545 0.476674 0.225735 -0.627973048 0.726968799 0.277788078 0.491257 0.965403
-3.124219 0.474613 0.189367 -0.68997019 0.689470212 0.220390478 0.819521 0.943554
-3.105552 0.500316 0.167399 -0.622503891 0.752504703 0.215001344 0.740853 0.599345
-3.067031 0.528962 0.165409 -0.432288222 0.865576418 0.252793113 0.541148 0.2429
-3.040997 0.52136 0.215751 -0.257213267 0.90304658 0.344017745 0.263333 0.369123
-2.997611 0.527736 0.221732 -0.183694752 0.91637382 0.355689838 0.148355 0.134475
-3.021146 0.535731 0.188976 -0.240408909 0.916333955 0.320211866 0.395838 -0.020532
-3.026139 0.512089 0.247312 -0.244813796 0.895150443 0.372520992 -0.026908 0.466559
-2.878133 0.527672 0.136032 0.425207241 0.879114971 0.215303667 0.534256 0.709559
-2.927196 0.550409 0.119651 0.227401046 0.924804254 0.305001403 0.150317 0.76837
-2.901426 0.53206 0.154896 0.261207533 0.901826009 0.344209927 0.336506 0.483737
-2.884044 0.537008 0.102984 0.413889249 0.891476844 0.184295213 0.491257 0.965403
-2.851851 0.516909 0.111556 0.493572751 0.856052739 0.153491526 0.819521 0.943554
-2.851195 0.509726 0.149499 0.449213385 0.862125687 0.234406984 0.740853 0.599345
-2.877923 0.509487 0.189423 0.286202049 0.876006272 0.38820278 0.541148 0.2429
-2.929253 0.528001 0.172326 0.0960029891 0.886727609 0.45221408 0.263333 0.369123
-2.966872 0.517649 0.193219 0.0317017597 0.871748388 0.488927139 0.148355 0.134475
-2.927876 0.51022 0.203941 0.0980010463 0.871609304 0.480305127 0.395838 -0.020532
-2.960725 0.537501 0.157426 0.0685011666 0.896015259 0.438707471 -0.026908 0.466559
-2.981182 0.408513 0.290135 -0.108800677 0.522603251 0.84560526 0.534256 0.709559
-2.935483 0.437077 0.273157 -0.0628041747 0.696146274 0.715147537 0.150317 0.76837
-2.982666 0.43305 0.272431 -0.118701832 0.68761061 0.716311053 0.336506 0.483737
-2.94892 0.398559 0.298755 -0.0744035767 0.518324916 0.851940954 0.491257 0.965403
-2.978843 0.375062 0.306903 -0.102601582 0.440006783 0.892113752 0.819521 0.943554
-3.011573 0.391707 0.294929 -0.141800491 0.511001768 0.847802933 0.740853 0.599345
-3.029462 0.426799 0.267417 -0.174900165 0.683900646 0.708300669 0.541148 0.2429
-2.983376 0.453138 0.246151 -0.123705812 0.815538319 0.565326562 0.263333 0.369123
-2.98378 0.475468 0.207941 -0.12430247 0.856117011 0.501609967 0.148355 0.134475
-3.014864 0.458644 0.228954 -0.15180192 0.82051038 0.551106972 0.395838 -0.020532
-2.952211 0.465496 0.23278 -0.0957023572 0.826720362 0.554413655 -0.026908 0.466559
-3.038514 0.487089 0.058072 -0.155396438 0.986177392 -0.0574986819 0.534256 0.709559
-3.073607 0.479645 0.101725 -0.14219874 0.976191351 0.163798549 0.150317 0.76837
-3.029429 0.488192 0.08695 -0.0907981141 0.985679528 0.142097049 0.336506 0.483737
-3.072346 0.480054 0.053582 -0.190096907 0.980184053 -0.0556990938 0.491257 0.965403
-3.048657 0.479821 0.022717 -0.182592932 0.972062372 -0.147494291 0.819521 0.943554
-3.012796 0.488309 0.034278 -0.125899586 0.989096746 -0.0763997486 0.740853 0.599345
-2.984282 0.492028 0.072768 -0.0356991409 0.990976152 0.129196891 0.541148 0.2429
-3.018406 0.479872 0.117015 -0.0258015883 0.945458199 0.324719989 0.263333 0.369123
-3.003414 0.463584 0.155339 -0.000700013129 0.920217259 0.391407341 0.148355 0.134475
-2.982634 0.477485 0.122693 0.00580004127 0.944206718 0.329302343 0.395838 -0.020532
-3.042184 0.46923 0.141997 -0.0475985509 0.93677148 0.346689445 -0.026908 0.466559
-3.063621 0.57287 0.19053 -0.373112339 0.927230664 0.0321010616 0.534256 0.709559
-3.071044 0.565791 0.223932 -0.269994638 0.935381424 0.228395464 0.150317 0.76837
-3.051566 0.575912 0.204543 -0.235112484 0.953650635 0.187809972 0.336506 0.483737
-3.082416 0.564152 0.196455 -0.40199482 0.914388218 0.0478993828 0.491257 0.965403
-3.077056 0.565696 0.173049 -0.430598265 0.901696366 -0.0390998424 0.819521 0.943554
-3.055574 0.575849 0.170621 -0.355195191 0.934787343 0.00299995938 0.740853 0.599345
-3.030782 0.583337 0.185182 -0.192400953 0.969204802 0.153700762 0.541148 0.2429
-3.036897 0.573561 0.21861 -0.0950002161 0.940202139 0.327100744 0.263333 0.369123
-3.016927 0.56725 0.236229 -0.0402998269 0.925296026 0.37709838 0.148355 0.134475
-3.015488 0.576885 0.212741 -0.0647983292 0.945775613 0.318291793 0.395838 -0.020532
-3.04233 0.565188 0.238575 -0.103600205 0.928801839 0.355800704 -0.026908 0.466559
-2.937413 0.552491 0.260116 0.451409234 0.718814704 0.528710815 0.534256 0.709559
-2.950838 0.574488 0.236521 0.261099313 0.828197822 0.495898696 0.150317 0.76837
-2.954404 0.56019 0.261831 0.257907496 0.798523209 0.543915809 0.336506 0.483737
-2.9268 0.557826 0.242136 0.464109008 0.73211421 0.498609678 0.491257 0.965403
-2.918124 0.540265 0.25611 0.532820066 0.672225316 0.514019358 0.819521 0.943554
-2.932595 0.537375 0.274891 0.453907233 0.696611101 0.555608854 0.740853 0.599345
-2.95953 0.543812 0.285652 0.244393337 0.769079031 0.590583898 0.541148 0.2429
-2.974516 0.563729 0.260568 0.064699396 0.841292147 0.53669499 0.263333 0.369123
-3.001607 0.56555 0.257128 -0.00999999055 0.848999198 0.528299501 0.148355 0.134475
-2.98825 0.554232 0.275569 0.0457976028 0.828056657 0.558770752 0.395838 -0.020532
-2.982455 0.574683 0.242815 0.0540998975 0.857698375 0.511299031 -0.026908 0.466559
-3.038989 0.508568 0.272471 -0.422291307 0.582188016 0.694785698 0.534256 0.709559
-3.006267 0.516072 0.282154 -0.262603854 0.72501064 0.636709344 0.150317 0.76837
-3.029077 0.522588 0.26498 -0.308507211 0.734017158 0.605014142 0.336506 0.483737
-3.028518 0.496957 0.287299 -0.400812409 0.568017586 0.718822255 0.491257 0.965403
-3.049728 0.489113 0.279082 -0.467787302 0.5046863 0.725580304 0.819521 0.943554
-3.058052 0.504615 0.262932 -0.45208788 0.581484411 0.676381866 0.740853 0.599345
-3.050566 0.527559 0.245603 -0.348007291 0.747115652 0.566311864 0.541148 0.2429
-3.016523 0.533518 0.253083 -0.189006081 0.847727276 0.495615947 0.263333 0.369123
-2.999178 0.545251 0.235459 -0.141207347 0.88254592 0.448523337 0.148355 0.134475
-3.024352 0.54204 0.23385 -0.200997515 0.860189364 0.468694205 0.395838 -0.020532
-2.994818 0.534382 0.258218 -0.158109358 0.849150258 0.503929826 -0.026908 0.466559
-2.978949 0.556394 0.143221 0.0441017352 0.997539249 -0.0545021444 0.534256 0.709559
-3.015455 0.555711 0.156917 -0.0570005002 0.988108671 0.142801253 0.150317 0.76837
-2.983471 0.556335 0.163634 -0.00090004914 0.988653977 0.150208201 0.336506 0.483737
-2.99803 0.555455 0.128611 0.0127003918 0.997430771 -0.070502175 0.491257 0.965403
-2.973448 0.552326 0.118265 0.0639000045 0.987100069 -0.14680001 0.819521 0.943554
-2.955466 0.554078 0.137865 0.0790994107 0.995292585 -0.0559995828 0.740853 0.599345
-2.951609 0.553646 0.170798 0.0533025751 0.984547565 0.166808059 0.541148 0.2429
-2.988238 0.549651 0.184943 -0.0430017343 0.940337925 0.337513612 0.263333 0.369123
-2.994348 0.537155 0.212139 -0.058701629 0.912025309 0.405911264 0.148355 0.134475
-2.9694 0.543964 0.200448 -0.0184997052 0.933885119 0.35709431 0.395838 -0.020532
-3.011964 0.545341 0.191194 -0.0738041402 0.935652487 0.34511936 -0.026908 0.466559
-3.036921 0.606598 0.258866 -0.374209825 0.927224345 -0.0149003912 0.534256 0.709559
-3.045437 0.601379 0.282611 -0.296491513 0.935373225 0.192794481 0.150317 0.76837
-3.029399 0.608841 0.270229 -0.256810682 0.953639667 0.156906527 0.336506 0.483737
-3.051215 0.600171 0.261462 -0.404800241 0.914400544 -0.00290000173 0.491257 0.965403
-3.045132 0.60131 0.244839 -0.422297462 0.901694581 -0.0927994423 0.819521 0.943554
-3.029196 0.608795 0.245048 -0.352791279 0.934776893 -0.0415989717 0.740853 0.599345
-3.012407 0.614315 0.257989 -0.210197978 0.969190676 0.128398765 0.541148 0.2429
-3.019969 0.607108 0.281874 -0.135201768 0.940212298 0.312604089 0.263333 0.369123
-3.006991 0.602456 0.296607 -0.0872984203 0.925283257 0.369093321 0.148355 0.134475
-3.003768 0.609559 0.27956 -0.104196115 0.945764738 0.307688528 0.395838 -0.020532
-3.025788 0.600935 0.295975 -0.14740028 0.928801765 0.340000646 -0.026908 0.466559
-2.961646 0.590963 0.297441 0.451409234 0.718814704 0.528710815 0.534256 0.709559
-2.971543 0.607181 0.280046 0.261099313 0.828197822 0.495898696 0.150317 0.76837
-2.974172 0.59664 0.298706 0.257907496 0.798523209 0.543915809 0.336506 0.483737
-2.953821 0.594897 0.284187 0.464109008 0.73211421 0.498609678 0.491257 0.965403
-2.947426 0.58195 0.294489 0.532820066 0.672225316 0.514019358 0.819521 0.943554
-2.958094 0.579819 0.308334 0.453907233 0.696611101 0.555608854 0.740853 0.599345
-2.977952 0.584565 0.316268 0.244393337 0.769079031 0.590583898 0.541148 0.2429
-2.989 0.599249 0.297775 0.064699396 0.841292147 0.53669499 0.263333 0.369123
-3.008972 0.600592 0.295239 -0.00999999055 0.848999198 0.528299501 0.148355 0.134475
-2.999125 0.592247 0.308834 0.0457976028 0.828056657 0.558770752 0.395838 -0.020532
-2.994853 0.607325 0.284687 0.0540998975 0.857698375 0.511299031 -0.026908 0.466559
-3.035975 0.571766 0.31749 -0.422291307 0.582188016 0.694785698 0.534256 0.709559
-3.01185 0.577298 0.324628 -0.262603854 0.72501064 0.636709344 0.150317 0.76837
-3.028667 0.582102 0.311967 -0.308507211 0.734017158 0.605014142 0.336506 0.483737
-3.028255 0.563206 0.328422 -0.400812409 0.568017586 0.718822255 0.491257 0.965403
-3.043892 0.557423 0.322363 -0.467787302 0.5046863 0.725580304 0.819521 0.943554
-3.050028 0.568852 0.310457 -0.45208788 0.581484411 0.676381866 0.740853 0.599345
-3.04451 0.585767 0.297681 -0.348007291 0.747115652 0.566311864 0.541148 0.2429
-3.019412 0.590161 0.303196 -0.189006081 0.847727276 0.495615947 0.263333 0.369123
-3.006624 0.59881 0.290203 -0.141207347 0.88254592 0.448523337 0.148355 0.134475
-3.025183 0.596443 0.289016 -0.200997515 0.860189364 0.468694205 0.395838 -0.020532
-3.00341 0.590797 0.306981 -0.158109358 0.849150258 0.503929826 -0.026908 0.466559
-2.986257 0.598807 0.20478 0.193994083 0.980970081 -0.00799975601 0.534256 0.709559
-3.01975 0.602733 0.213924 0.0737977075 0.98116952 0.178494455 0.150317 0.76837
-2.992048 0.598847 0.222595 0.128306177 0.973146853 0.191109201 0.336506 0.483737
-3.001926 0.60089 0.190135 0.164696237 0.985977471 -0.0268993854 0.491257 0.965403
-2.979742 0.595096 0.18284 0.2209972 0.970287707 -0.098498752 0.819521 0.943554
-2.965375 0.593755 0.201873 0.228293287 0.973571373 -0.00639981182 0.740853 0.599345
-2.964924 0.592031 0.231531 0.179492249 0.960558519 0.212390828 0.541148 0.2429
-2.998996 0.593029 0.240939 0.0614996476 0.926394692 0.371497871 0.263333 0.369123
-3.008406 0.582096 0.264198 0.035199041 0.89887551 0.4367881 0.148355 0.134475
-2.984485 0.585088 0.256111 0.0827958992 0.915854639 0.392880541 0.395838 -0.020532
-3.021036 0.592223 0.244373 0.0296984479 0.926151596 0.37598035 -0.026908 0.466559
-3.037476 0.303961 -0.133752 0.0214004631 0.567612283 -0.82301781 0.534256 0.709559
-3.127333 0.314451 -0.120197 -0.112501943 0.699812089 -0.705412186 0.150317 0.76837
-3.056334 0.339564 -0.105785 -0.0586028353 0.714834585 -0.696833714 0.336506 0.483737
-3.075416 0.268764 -0.156211 -0.0067002114 0.550017353 -0.835126349 0.491257 0.965403
-3.014178 0.254553 -0.16022 0.0574015413 0.492313219 -0.86852332 0.819521 0.943554
-2.980898 0.299632 -0.132467 0.0561004471 0.570604548 -0.81930653 0.740853 0.599345
-2.985555 0.360753 -0.084581 -0.00810005079 0.733904602 -0.679204259 0.541148 0.2429
-3.075632 0.36732 -0.064234 -0.131406812 0.825142772 -0.54942848 0.263333 0.369123
-3.100029 0.397112 -0.003806 -0.158108151 0.858844279 -0.48722512 0.148355 0.134475
-3.038131 0.394671 -0.028191 -0.110597739 0.840382823 -0.530589155 0.395838 -0.020532
-3.13265 0.363803 -0.051935 -0.162999871 0.82329935 -0.54369957 -0.026908 0.466559
-3.022144 0.435719 0.189416 -0.0918973309 0.941172664 0.325190555 0.534256 0.709559
-2.979962 0.459125 0.111694 -0.147505126 0.98243414 0.114303972 0.150317 0.76837
-3.046133 0.44443 0.147536 -0.194008563 0.970342827 0.144206365 0.336506 0.483737
-2.965993 0.439948 0.185969 -0.0579972495 0.946555111 0.317284953 0.491257 0.965403
-2.991837 0.41575 0.23807 -0.0440987522 0.914274131 0.402688606 0.819521 0.943554
-3.05405 0.415514 0.231787 -0.116607031 0.930356098 0.34762096 0.740853 0.599345
-3.112047 0.422473 0.180421 -0.244689804 0.955460187 0.164993125 0.541148 0.2429
-3.069608 0.438616 0.099741 -0.282809462 0.958632071 -0.0323010807 0.263333 0.369123
-3.098632 0.422268 0.0363 -0.31390205 0.944206166 -0.099700651 0.148355 0.134475
-3.125246 0.419859 0.097273 -0.313294251 0.949082584 -0.0329993945 0.395838 -0.020532
-3.037189 0.444294 0.051455 -0.264597026 0.962589181 -0.0583993436 -0.026908 0.466559
-3.231212 0.283324 0.01002 -0.814400126 0.446800069 -0.370300057 0.534256 0.709559
-3.214508 0.348869 0.071605 -0.690360871 0.630164283 -0.355379858 0.150317 0.76837
-3.202085 0.321732 0.000977 -0.683319769 0.60661755 -0.406311755 0.336506 0.483737
-3.252935 0.281698 0.06206 -0.825828682 0.451915695 -0.337311715 0.491257 0.965403
-3.259203 0.231466 0.02457 -0.862242613 0.367618168 -0.348417219 0.819521 0.943554
-3.231881 0.243463 -0.03038 -0.811815047 0.426507905 -0.398807392 0.740853 0.599345
-3.182927 0.291516 -0.067054 -0.667114987 0.587913208 -0.457510278 0.541148 0.2429
-3.15949 0.353983 -0.002872 -0.531937479 0.732851635 -0.42422989 0.263333 0.369123
-3.097828 0.390449 -0.004435 -0.46838053 0.773667839 -0.426682263 0.148355 0.134475
-3.124298 0.349452 -0.049717 -0.513589931 0.730385681 -0.450291172 0.395838 -0.020532
-3.145352 0.387687 0.042723 -0.525195166 0.751593082 -0.399096326 -0.026908 0.466559
-2.80382 0.353127 -0.046378 0.431595369 0.805891353 -0.405295651 0.534256 0.709559
-2.867185 0.345279 -0.111886 0.22200527 0.870420664 -0.439410432 0.150317 0.76837
-2.847999 0.374232 -0.043528 0.239798437 0.889394201 -0.389197462 0.336506 0.483737
-2.795164 0.322281 -0.092814 0.431573878 0.789452216 -0.436473581 0.491257 0.965403
-2.753417 0.319311 -0.045735 0.512504887 0.75620721 -0.406803879 0.819521 0.943554
-2.772154 0.35692 0.000573 0.446772221 0.812549477 -0.374376722 0.740853 0.599345
-2.83267 0.397237 0.028194 0.247488909 0.908659279 -0.33628493 0.541148 0.2429
-2.899891 0.383441 -0.03395 0.0491013609 0.932425843 -0.358009922 0.263333 0.369123
-2.969576 0.387516 -0.017772 -0.0244993382 0.939274626 -0.342290753 0.148355 0.134475
-2.91626 0.40239 0.019215 0.040900344 0.943407934 -0.329102768 0.395838 -0.020532
-2.93927 0.367752 -0.074172 0.0281007884 0.92422593 -0.380810684 -0.026908 0.466559
-3.0358 0.485257 -0.089273 0.276813171 0.745235459 -0.606628864 0.534256 0.709559
-3.087797 0.481006 -0.110969 0.073799514 0.823294579 -0.562796294 0.150317 0.76837
-3.059596 0.500414 -0.078242 0.110607975 0.843860845 -0.525037857 0.336506 0.483737
-3.042961 0.464181 -0.116083 0.263899813 0.726999484 -0.63389955 0.491257 0.965403
-3.007997 0.462121 -0.09914 0.348396898 0.68949386 -0.634994345 0.819521 0.943554
-3.006396 0.487823 -0.070356 0.303190816 0.752477208 -0.58468229 0.740853 0.599345
-3.032948 0.516469 -0.042379 0.13919993 0.865599567 -0.48099976 0.541148 0.2429
-3.086499 0.508867 -0.060938 -0.0505034975 0.903062539 -0.426529538 0.263333 0.369123
-3.12207 0.515243 -0.035386 -0.111797118 0.916376376 -0.384390091 0.148355 0.134475
-3.082444 0.523238 -0.027854 -0.0463001338 0.916302648 -0.39780115 0.395838 -0.020532
-3.11901 0.499596 -0.07358 -0.0791032231 0.895136473 -0.438717876 -0.026908 0.466559
-3.171438 0.520608 0.082048 -0.456517508 0.879133715 0.136805247 0.534256 0.709559
-3.124588 0.543345 0.060124 -0.374994863 0.92478733 -0.0643991177 0.150317 0.76837
-3.167547 0.524995 0.052328 -0.426420392 0.901843127 -0.0696033285 0.336506 0.483737
-3.144387 0.529943 0.101932 -0.426988578 0.891476153 0.151495948 0.491257 0.965403
-3.173628 0.509844 0.117895 -0.463529681 0.856054815 0.228714645 0.819521 0.943554
-3.200241 0.502662 0.090842 -0.487113866 0.862124541 0.139503971 0.740853 0.599345
-3.208369 0.502423 0.04349 -0.474897032 0.875994525 -0.0842994731 0.541148 0.2429
-3.159383 0.520937 0.020523 -0.381107434 0.886717295 -0.261705105 0.263333 0.369123
-3.146505 0.510585 -0.020535 -0.35981085 0.871726287 -0.33261003 0.148355 0.134475
-3.182158 0.503155 -0.001445 -0.401899465 0.871598841 -0.280699627 0.395838 -0.020532
-3.126304 0.530437 0.009645 -0.351815501 0.89603948 -0.270811932 -0.026908 0.466559
-3.204429 0.426051 -0.06274 -0.584326327 0.522623547 -0.620827972 0.534256 0.709559
-3.220318 0.454615 -0.016651 -0.512719804 0.696126888 -0.50251941 0.150317 0.76837
-3.189808 0.450588 -0.052649 -0.478117612 0.687625329 -0.546420128 0.336506 0.483737
-3.231569 0.416096 -0.043282 -0.611124036 0.518320386 -0.598223529 0.491257 0.965403
-3.218872 0.392599 -0.071576 -0.624192198 0.4399945 -0.64559193 0.819521 0.943554
-3.188843 0.409244 -0.089266 -0.565107262 0.511006566 -0.647708323 0.740853 0.599345
-3.156229 0.444337 -0.085626 -0.436310692 0.68391676 -0.584714329 0.541148 0.2429
-3.16905 0.470676 -0.036516 -0.358318185 0.81554139 -0.454423063 0.263333 0.369123
-3.139268 0.493005 -0.012573 -0.308710765 0.856129854 -0.414414451 0.148355 0.134475
-3.135774 0.476182 -0.049931 -0.329415315 0.820538148 -0.467121717 0.395838 -0.020532
-3.1785 0.483034 -0.003947 -0.367695038 0.826688844 -0.425894253 -0.026908 0.466559
-3.00888 0.487089 0.058258 0.152296206 0.986175435 -0.0652983734 0.534256 0.709559
-3.013512 0.479645 0.00244 -0.00970011597 0.976211671 -0.216602589 0.150317 0.76837
-3.035357 0.488192 0.043583 -0.0319997002 0.985690764 -0.165498449 0.336506 0.483737
-2.981262 0.480054 0.038207 0.176098978 0.98019431 -0.0905994741 0.491257 0.965403
-2.977172 0.479821 0.0769 0.233894757 0.972078211 -0.0188995764 0.819521 0.943554
-3.011131 0.488309 0.093222 0.143899138 0.989094075 -0.0313998119 0.740853 0.599345
-3.058315 0.492028 0.084963 -0.063098186 0.99097151 -0.118296599 0.541148 0.2429
-3.064059 0.479872 0.029382 -0.20500857 0.94543952 -0.253210584 0.263333 0.369123
-3.101327 0.463584 0.011929 -0.269106393 0.92022186 -0.284206751 0.148355 0.134475
-3.093901 0.477485 0.049908 -0.231004767 0.944219484 -0.234704843 0.395838 -0.020532
-3.064032 0.46923 -0.005106 -0.204295348 0.93677867 -0.284093531 -0.026908 0.466559
-3.081925 0.57287 -0.055056 0.248403665 0.927213681 -0.280304136 0.534256 0.709559
-3.099553 0.565791 -0.084381 0.0383986507 0.935367132 -0.351587645 0.150317 0.76837
-3.100316 0.575912 -0.056909 0.0410021 0.953648842 -0.298115268 0.336506 0.483737
-3.072382 0.564152 -0.072297 0.258400972 0.914403438 -0.311601172 0.491257 0.965403
-3.060144 0.565696 -0.051638 0.339093796 0.901683504 -0.268295092 0.819521 0.943554
-3.074043 0.575849 -0.035081 0.255401221 0.934804468 -0.24680118 0.740853 0.599345
-3.102046 0.583337 -0.028557 0.0335997715 0.969193409 -0.243998341 0.541148 0.2429
-3.12064 0.573561 -0.057001 -0.156404438 0.940226679 -0.302508584 0.263333 0.369123
-3.147254 0.56725 -0.056016 -0.230503279 0.925313163 -0.301104283 0.148355 0.134475
-3.132117 0.576885 -0.037999 -0.172298706 0.945792897 -0.275297933 0.395838 -0.020532
-3.130455 0.565188 -0.075216 -0.169999326 0.928796317 -0.329298694 -0.026908 0.466559
-3.21855 0.549 -0.013248 -0.691422579 0.718823474 -0.0723023611 0.534256 0.709559
-3.192564 0.570998 -0.005393 -0.530893043 0.828189147 -0.179597646 0.150317 0.76837
-3.207415 0.5567 -0.026196 -0.56161244 0.798517687 -0.2167048 0.336506 0.483737
-3.213858 0.554335 0.007095 -0.679909073 0.73210977 -0.0417005565 0.491257 0.965403
-3.229773 0.536774 0.002942 -0.740326956 0.672224476 -0.00550020027 0.819521 0.943554
-3.23222 0.533884 -0.02064 -0.711789747 0.696589966 -0.0900987021 0.740853 0.599345
-3.220108 0.540322 -0.046996 -0.583980481 0.769074294 -0.259791317 0.541148 0.2429
-3.191966 0.560238 -0.039135 -0.416595522 0.841290956 -0.344496297 0.263333 0.369123
-3.169958 0.56206 -0.055304 -0.356689674 0.848975423 -0.389888713 0.148355 0.134475
-3.192343 0.550742 -0.05947 -0.418087568 0.828075378 -0.373488894 0.395838 -0.020532
-3.173981 0.571193 -0.031735 -0.391400233 0.85770051 -0.333400198 -0.026908 0.466559
-3.159798 0.512842 -0.099831 -0.172504887 0.582216494 -0.794522509 0.534256 0.709559
-3.190189 0.520346 -0.084309 -0.248211666 0.725034077 -0.642430195 0.150317 0.76837
-3.161823 0.526862 -0.087573 -0.193102431 0.734009241 -0.651108198 0.336506 0.483737
-3.177603 0.501231 -0.103367 -0.204710799 0.568029964 -0.79714205 0.491257 0.965403
-3.156568 0.493386 -0.112021 -0.160700818 0.504702569 -0.848204317 0.819521 0.943554
-3.139409 0.508889 -0.106047 -0.138202461 0.581510357 -0.801714279 0.740853 0.599345
-3.132897 0.531833 -0.08833 -0.137806388 0.747134634 -0.650230142 0.541148 0.2429
-3.162728 0.537792 -0.070301 -0.204305718 0.847723724 -0.489513699 0.263333 0.369123
-3.163161 0.549524 -0.045577 -0.206609135 0.882539022 -0.422418678 0.148355 0.134475
-3.143804 0.546314 -0.061752 -0.177198306 0.860191777 -0.478195428 0.395838 -0.020532
-3.181998 0.538656 -0.059071 -0.232512475 0.849145558 -0.474225443 -0.026908 0.466559
-3.110714 0.556394 0.037566 0.00560021388 0.997538097 0.0699026696 0.534256 0.709559
-3.093685 0.555711 0.00249 -0.0571001753 0.988103034 -0.142800438 0.150317 0.76837
-3.121497 0.556335 0.019654 -0.102805755 0.988655341 -0.10950613 0.336506 0.483737
-3.086818 0.555455 0.035012 0.0394010416 0.997426367 0.0599015835 0.491257 0.965403
-3.09751 0.552326 0.059446 0.0548002847 0.987105128 0.150400781 0.819521 0.943554
-3.124047 0.554078 0.057625 -0.0187998163 0.995290276 0.0950990709 0.740853 0.599345
-3.149529 0.553646 0.036409 -0.153508279 0.984553098 -0.0842045413 0.541148 0.2429
-3.13272 0.549651 0.000924 -0.20140337 0.940315732 -0.274304589 0.263333 0.369123
-3.147026 0.537155 -0.023 -0.237007455 0.912028688 -0.334710528 0.148355 0.134475
-3.157057 0.543964 0.002661 -0.232595519 0.933882009 -0.271594768 0.395838 -0.020532
-3.119828 0.545341 -0.019952 -0.184307847 0.935639836 -0.301012816 -0.026908 0.466559
-3.13067 0.606425 -0.091655 0.248403665 0.927213681 -0.280304136 0.534256 0.709559
-3.148298 0.599345 -0.12098 0.0383986507 0.935367132 -0.351587645 0.150317 0.76837
-3.149061 0.609467 -0.093508 0.0410021 0.953648842 -0.298115268 0.336506 0.483737
-3.121126 0.597706 -0.108896 0.258400972 0.914403438 -0.311601172 0.491257 0.965403
-3.108889 0.599251 -0.088237 0.339093796 0.901683504 -0.268295092 0.819521 0.943554
-3.122788 0.609404 -0.07168 0.255401221 0.934804468 -0.24680118 0.740853 0.599345
-3.15079 0.616892 -0.065155 0.0335997715 0.969193409 -0.243998341 0.541148 0.2429
-3.169385 0.607116 -0.0936 -0.156404438 0.940226679 -0.302508584 0.263333 0.369123
-3.195999 0.600805 -0.092615 -0.230503279 0.925313163 -0.301104283 0.148355 0.134475
-3.180861 0.61044 -0.074598 -0.172298706 0.945792897 -0.275297933 0.395838 -0.020532
-3.1792 0.598743 -0.111815 -0.169999326 0.928796317 -0.329298694 -0.026908 0.466559
-3.247372 0.591684 -0.058559 -0.691422579 0.718823474 -0.0723023611 0.534256 0.709559
-3.221386 0.613682 -0.050703 -0.530893043 0.828189147 -0.179597646 0.150317 0.76837
-3.236237 0.599384 -0.071506 -0.56161244 0.798517687 -0.2167048 0.336506 0.483737
-3.24268 0.59702 -0.038215 -0.679909073 0.73210977 -0.0417005565 0.491257 0.965403
-3.258595 0.579458 -0.042369 -0.740326956 0.672224476 -0.00550020027 0.819521 0.943554
-3.261042 0.576569 -0.06595 -0.711789747 0.696589966 -0.0900987021 0.740853 0.599345
-3.24893 0.583006 -0.092306 -0.583980481 0.769074294 -0.259791317 0.541148 0.2429
-3.220787 0.602923 -0.084445 -0.416595522 0.841290956 -0.344496297 0.263333 0.369123
-3.19878 0.604744 -0.100614 -0.356689674 0.848975423 -0.389888713 0.148355 0.134475
-3.221165 0.593426 -0.10478 -0.418087568 0.828075378 -0.373488894 0.395838 -0.020532
-3.202803 0.613877 -0.077045 -0.391400233 0.85770051 -0.333400198 -0.026908 0.466559
-3.187438 0.558415 -0.13948 -0.172504887 0.582216494 -0.794522509 0.534256 0.709559
-3.217829 0.565919 -0.123957 -0.248211666 0.725034077 -0.642430195 0.150317 0.76837
-3.189463 0.572435 -0.127221 -0.193102431 0.734009241 -0.651108198 0.336506 0.483737
-3.205243 0.546804 -0.143015 -0.20469917 0.568097696 -0.797096768 0.491257 0.965403
-3.184207 0.53896 -0.151669 -0.160700818 0.504702569 -0.848204317 0.819521 0.943554
-3.167049 0.554462 -0.145696 -0.138191382 0.581463738 -0.80175 0.740853 0.599345
-3.160537 0.577406 -0.127978 -0.137806388 0.747134634 -0.650230142 0.541148 0.2429
-3.190368 0.583365 -0.109949 -0.204305718 0.847723724 -0.489513699 0.263333 0.369123
-3.190801 0.595098 -0.085226 -0.206609135 0.882539022 -0.422418678 0.148355 0.134475
-3.171444 0.591887 -0.1014 -0.177198306 0.860191777 -0.478195428 0.395838 -0.020532
-3.209639 0.584229 -0.09872 -0.232512475 0.849145558 -0.474225443 -0.026908 0.466559
-3.147822 0.598807 -0.012092 -0.135095052 0.980964068 0.13949489 0.534256 0.709559
-3.129841 0.602733 -0.041792 -0.176494005 0.98116667 -0.0784973335 0.150317 0.76837
-3.155896 0.598847 -0.028995 -0.224708572 0.973137121 -0.0501019112 0.336506 0.483737
-3.126375 0.60089 -0.01227 -0.100898021 0.985980665 0.132897394 0.491257 0.965403
-3.137431 0.595096 0.0083 -0.0923992234 0.970291845 0.223598121 0.819521 0.943554
-3.160956 0.593755 0.0044 -0.161095024 0.973569927 0.161894999 0.740853 0.599345
-3.181713 0.592031 -0.016788 -0.276390684 0.960567625 -0.0302989788 0.541148 0.2429
-3.163495 0.593029 -0.047079 -0.300499877 0.92639962 -0.226899907 0.263333 0.369123
-3.172696 0.582096 -0.070422 -0.326390873 0.898874863 -0.292391823 0.148355 0.134475
-3.184466 0.585088 -0.048081 -0.33058975 0.915871604 -0.227792937 0.395838 -0.020532
-3.149885 0.592223 -0.064751 -0.280495696 0.926185788 -0.251996133 -0.026908 0.466559
-3.018426 0.398555 -0.172701 0.201713375 0.757950258 -0.620341133 0.534256 0.709559
-3.111557 0.443759 -0.133882 0.139595968 0.883074493 -0.44798706 0.150317 0.76837
-3.019956 0.433191 -0.124621 0.195303513 0.873715714 -0.445508013 0.336506 0.483737
-3.079009 0.38716 -0.201839 0.168300868 0.756803901 -0.631603256 0.491257 0.965403
-3.018624 0.346836 -0.224733 0.201692115 0.694272858 -0.690872991 0.819521 0.943554
-2.958001 0.368576 -0.185188 0.234900447 0.746701423 -0.622301185 0.740853 0.599345
-2.930045 0.415883 -0.108905 0.250100618 0.866102139 -0.432801069 0.541148 0.2429
-3.024866 0.454348 -0.063632 0.181602941 0.947715348 -0.26240425 0.263333 0.369123
-3.033114 0.472369 0.020674 0.174491608 0.966253529 -0.189490887 0.148355 0.134475
-2.967661 0.452264 -0.021584 0.207895438 0.947179214 -0.244194641 0.395838 -0.020532
-3.088669 0.470848 -0.038235 0.152502163 0.955713557 -0.25170357 -0.026908 0.466559
-2.904554 0.387641 0.25715 0.303711473 0.746028182 0.592622387 0.534256 0.709559
-2.850326 0.424681 0.168205 0.260797452 0.871691484 0.414895946 0.150317 0.76837
-2.928952 0.424063 0.217254 0.214591916 0.868267293 0.447283151 0.336506 0.483737
-2.840496 0.368744 0.243409 0.336678941 0.740953655 0.581063656 0.491257 0.965403
-2.878251 0.333887 0.299587 0.33989691 0.679593823 0.650094091 0.819521 0.943554
-2.947569 0.363534 0.304842 0.277695061 0.738186871 0.614789066 0.740853 0.599345
-3.010935 0.416866 0.260355 0.163006063 0.866932246 0.47101752 0.541148 0.2429
-2.960064 0.447325 0.165462 0.121500908 0.948607091 0.292202184 0.263333 0.369123
-3.00315 0.468177 0.093288 0.0846001066 0.969601222 0.229600289 0.148355 0.134475
-3.030835 0.453061 0.167309 0.0897015312 0.951616244 0.293905017 0.395838 -0.020532
-2.923762 0.458271 0.105876 0.138703455 0.954023765 0.265706619 -0.026908 0.466559
-3.286623 0.357772 0.075284 -0.616580251 0.778475066 -0.117496237 0.534256 0.709559
-3.212442 0.414413 0.134553 -0.428394874 0.890389347 -0.153898159 0.150317 0.76837
-3.240366 0.385748 0.050966 -0.448399726 0.870499469 -0.202899876 0.336506 0.483737
-3.290085 0.361717 0.143267 -0.613793417 0.78509158 -0.0829991098 0.491257 0.965403
-3.336564 0.313976 0.106429 -0.684111456 0.725312145 -0.0769012877 0.819521 0.943554
-3.323114 0.31879 0.032217 -0.631908373 0.76151009 -0.144201911 0.740853 0.599345
-3.261986 0.350023 -0.032022 -0.458592321 0.851185747 -0.255295725 0.541148 0.2429
-3.181502 0.399604 0.027847 -0.271693933 0.92207941 -0.275593846 0.263333 0.369123
-3.100043 0.408099 -0.000302 -0.201101522 0.932307058 -0.300602276 0.148355 0.134475
-3.165433 0.381539 -0.038937 -0.265312816 0.914344168 -0.305914778 0.395838 -0.020532
-3.132404 0.424465 0.072113 -0.250102248 0.934008397 -0.255102293 -0.026908 0.466559
-2.909307 0.556862 -0.040599 0.526297124 0.748195911 -0.403997792 0.534256 0.709559
-2.96999 0.583928 -0.056362 0.373209625 0.875722585 -0.3063079 0.150317 0.76837
-2.927829 0.578899 -0.017975 0.416502064 0.8678043 -0.271001343 0.336506 0.483737
-2.928684 0.548514 -0.077048 0.506070077 0.746055887 -0.432774411 0.491257 0.965403
-2.890133 0.524198 -0.065474 0.568501362 0.683001636 -0.458601098 0.819521 0.943554
-2.874591 0.539079 -0.024049 0.554214083 0.737718746 -0.385509796 0.740853 0.599345
-2.88885 0.569775 0.023136 0.45318335 0.861768339 -0.227991624 0.541148 0.2429
-2.952716 0.592746 0.010096 0.296396746 0.945589617 -0.134198527 0.263333 0.369123
-2.987804 0.604937 0.048588 0.247205518 0.965621553 -0.0804017946 0.148355 0.134475
-2.939704 0.592905 0.051992 0.306702132 0.946106575 -0.104000723 0.395838 -0.020532
-2.993798 0.60234 -0.001007 0.266602478 0.953108859 -0.143201331 -0.026908 0.466559
-3.029621 0.590558 0.195404 -0.0626000106 0.886900151 0.457700078 0.534256 0.709559
-2.967847 0.602602 0.1689 0.0222000446 0.963301936 0.267500538 0.150317 0.76837
-3.024638 0.605308 0.162266 -0.0342017017 0.963747952 0.264613166 0.336506 0.483737
-2.994205 0.580551 0.215882 -0.0299999087 0.881997314 0.470298568 0.491257 0.965403
-3.035497 0.565907 0.23297 -0.0745043042 0.839048473 0.538931135 0.819521 0.943554
-3.069738 0.580844 0.20498 -0.0973009326 0.882308457 0.460504414 0.740853 0.599345
-3.081146 0.603042 0.152547 -0.0895031371 0.963733779 0.251408812 0.541148 0.2429
-3.019089 0.610115 0.122958 -0.0064001281 0.997419964 0.0715014311 0.263333 0.369123
-3.011798 0.609911 0.069965 0.00439993345 0.999984875 -0.00329995009 0.148355 0.134475
-3.053939 0.61018 0.09631 -0.0322996093 0.998087928 0.0526993626 0.395838 -0.020532
-2.978406 0.609887 0.107212 0.0237993415 0.997872389 0.0606983205 -0.026908 0.466559
-3.111305 0.5549 -0.003642 -0.280824596 0.865475802 -0.414836333 0.534256 0.709559
-3.119167 0.576954 0.060509 -0.154798414 0.954390222 -0.255297384 0.150317 0.76837
-3.08422 0.570179 0.015683 -0.123405494 0.945442087 -0.301513422 0.336506 0.483737
-3.147803 0.550966 0.017002 -0.30860472 0.866113247 -0.393206014 0.491257 0.965403
-3.142594 0.529721 -0.024627 -0.348412038 0.816528212 -0.460315904 0.819521 0.943554
-3.099838 0.53869 -0.041074 -0.265806288 0.85522023 -0.444910524 0.740853 0.599345
-3.04722 0.558541 -0.026604 -0.0839030587 0.936234131 -0.341212439 0.541148 0.2429
-3.05303 0.575731 0.040084 0.0304005136 0.982716603 -0.182603085 0.263333 0.369123
-3.011475 0.576591 0.073758 0.0890023475 0.986826028 -0.135103563 0.148355 0.134475
-3.012425 0.569937 0.024516 0.0597025917 0.979042501 -0.194708452 0.395838 -0.020532
-3.06039 0.582213 0.082592 0.0242010914 0.988144561 -0.151606837 -0.026908 0.466559
-2.871472 0.488145 0.122817 0.529809378 0.825014603 0.19660348 0.534256 0.709559
-2.882888 0.504592 0.057527 0.371310633 0.925226494 0.0780022336 0.150317 0.76837
-2.900975 0.506812 0.11179 0.356720023 0.924751908 0.132607443 0.336506 0.483737
-2.845244 0.47657 0.091965 0.548298605 0.819397915 0.167199574 0.491257 0.965403
-2.838954 0.459104 0.135172 0.600920909 0.76762671 0.222807753 0.819521 0.943554
-2.871687 0.476487 0.163553 0.524689176 0.819383096 0.230895237 0.740853 0.599345
-2.922552 0.504467 0.164909 0.332202315 0.925106448 0.183901282 0.541148 0.2429
-2.937456 0.516351 0.098477 0.178702264 0.981612437 0.0671008502 0.263333 0.369123
-2.987418 0.522569 0.080406 0.10870176 0.99321608 0.0413006687 0.148355 0.134475
-2.970663 0.518796 0.127042 0.155104074 0.983925843 0.0885023245 0.395838 -0.020532
-2.94422 0.51888 0.055455 0.174600496 0.984002795 0.0354001005 -0.026908 0.466559
-2.916545 0.655762 0.038126 0.585805653 0.809507812 -0.0391003773 0.534256 0.709559
-2.940896 0.667758 0.005776 0.393800985 0.916602291 -0.0690001725 0.150317 0.76837
-2.935538 0.667801 0.040766 0.405617237 0.913938839 -0.0138005865 0.336506 0.483737
-2.911009 0.649254 0.013524 0.588614433 0.805019739 -0.0740018145 0.491257 0.965403
-2.895712 0.637259 0.035153 0.659198438 0.750298222 -0.0500998813 0.819521 0.943554
-2.905415 0.647468 0.06035 0.596605948 0.802508001 -0.00650006481 0.740853 0.599345
-2.932506 0.665079 0.076016 0.407209747 0.912321837 0.0430010292 0.541148 0.2429
-2.959184 0.674311 0.043927 0.219108636 0.975638456 0.0110004336 0.263333 0.369123
-2.99165 0.678994 0.048204 0.145394623 0.989163421 0.0203992456 0.148355 0.134475
-2.969374 0.675291 0.069051 0.207898907 0.977294864 0.0408997851 0.395838 -0.020532
-2.974967 0.677077 0.022224 0.201090393 0.979453208 -0.0152992691 -0.026908 0.466559
-3.087372 0.673724 0.115985 -0.35000791 0.901820381 0.253405727 0.534256 0.709559
-3.04762 0.682308 0.127365 -0.163705902 0.973935111 0.15700566 0.150317 0.76837
-3.071958 0.682087 0.101663 -0.205201513 0.971507165 0.118600875 0.336506 0.483737
-3.078622 0.669167 0.140089 -0.332993432 0.899082266 0.284194394 0.491257 0.965403
-3.104905 0.659343 0.132448 -0.41080229 0.857004778 0.311101734 0.819521 0.943554
-3.110148 0.666777 0.105052 -0.378299041 0.895697729 0.233699408 0.740853 0.599345
-3.094909 0.678723 0.07481 -0.239107378 0.968229875 0.0732022587 0.541148 0.2429
-3.053771 0.684165 0.085038 -0.0603988083 0.998080308 -0.0136997297 0.263333 0.369123
-3.029302 0.682837 0.062818 -0.00420009127 0.997921685 -0.0643013973 0.148355 0.134475
-3.059746 0.682439 0.058632 -0.0680984137 0.996676783 -0.0446989587 0.395838 -0.020532
-3.02822 0.684829 0.093668 -0.0303011268 0.999537168 -0.00270010041 -0.026908 0.466559
-3.038624 0.640213 -0.037737 0.0421006124 0.8319121 -0.553308048 0.534256 0.709559
-3.067918 0.655307 -0.011328 0.0357009172 0.933723988 -0.356209151 0.150317 0.76837
-3.033522 0.650978 -0.018483 0.0894016159 0.924316707 -0.371006706 0.336506 0.483737
-3.064106 0.637239 -0.042226 0.00690031649 0.832138167 -0.554525434 0.491257 0.965403
-3.045005 0.623169 -0.059044 0.0198999593 0.777798409 -0.628198715 0.819521 0.943554
-3.018247 0.629552 -0.050294 0.0729004071 0.821104586 -0.566103162 0.740853 0.599345
-2.99913 0.643777 -0.02343 0.145400683 0.915304297 -0.375601763 0.541148 0.2429
-3.028426 0.655999 0.005188 0.130898713 0.974190424 -0.183898192 0.263333 0.369123
-3.022059 0.658687 0.037537 0.145400764 0.983205167 -0.11030058 0.148355 0.134475
-3.00295 0.653231 0.014094 0.161204108 0.971424752 -0.174204439 0.395838 -0.020532
-3.048809 0.660918 0.022162 0.106303386 0.980631234 -0.16450524 -0.026908 0.466559
-2.951881 0.614182 0.143775 0.405328167 0.843758635 0.351824449 0.534256 0.709559
-2.935048 0.619945 0.100129 0.335601876 0.92850519 0.158900888 0.150317 0.76837
-2.964719 0.626007 0.1255 0.29531139 0.93463605 0.198107641 0.336506 0.483737
-2.925992 0.603691 0.135735 0.435914634 0.834628019 0.336711304 0.491257 0.965403
-2.938159 0.595368 0.164652 0.449574878 0.790155847 0.416576722 0.819521 0.943554
-2.966793 0.609622 0.168515 0.383176819 0.842349039 0.378977073 0.740853 0.599345
-2.996249 0.628841 0.149299 0.248200829 0.941203144 0.229200766 0.541148 0.2429
-2.981274 0.631377 0.10408 0.179099404 0.982796727 0.0450998498 0.263333 0.369123
-3.004292 0.634055 0.075338 0.132805788 0.991043191 -0.0140006102 0.148355 0.134475
-3.010881 0.635413 0.108973 0.14809364 0.987657581 0.0509978097 0.395838 -0.020532
-2.970081 0.629483 0.076193 0.191897909 0.981289309 0.015699829 -0.026908 0.466559
-2.956407 0.720528 0.020828 0.585805653 0.809507812 -0.0391003773 0.534256 0.709559
-2.980758 0.732524 -0.011522 0.393800985 0.916602291 -0.0690001725 0.150317 0.76837
-2.9754 0.732567 0.023467 0.405617237 0.913938839 -0.0138005865 0.336506 0.483737
-2.950871 0.71402 -0.003775 0.588614433 0.805019739 -0.0740018145 0.491257 0.965403
-2.935574 0.702025 0.017854 0.659198438 0.750298222 -0.0500998813 0.819521 0.943554
-2.945277 0.712234 0.043052 0.596605948 0.802508001 -0.00650006481 0.740853 0.599345
-2.972368 0.729845 0.058718 0.407209747 0.912321837 0.0430010292 0.541148 0.2429
-2.999046 0.739077 0.026628 0.219108636 0.975638456 0.0110004336 0.263333 0.369123
-3.031512 0.743759 0.030905 0.145394623 0.989163421 0.0203992456 0.148355 0.134475
-3.009235 0.740057 0.051752 0.207898907 0.977294864 0.0408997851 0.395838 -0.020532
-3.014829 0.741843 0.004926 0.2010907 0.979454701 -0.015199297 -0.026908 0.466559
-3.089896 0.749813 0.077573 -0.35000791 0.901820381 0.253405727 0.534256 0.709559
-3.050144 0.758398 0.088953 -0.163705902 0.973935111 0.15700566 0.150317 0.76837
-3.074482 0.758176 0.063251 -0.205201513 0.971507165 0.118600875 0.336506 0.483737
-3.081146 0.745256 0.101676 -0.332993432 0.899082266 0.284194394 0.491257 0.965403
-3.107429 0.735433 0.094035 -0.41080229 0.857004778 0.311101734 0.819521 0.943554
-3.112672 0.742866 0.066639 -0.378299041 0.895697729 0.233699408 0.740853 0.599345
-3.097433 0.754812 0.036397 -0.239107378 0.968229875 0.0732022587 0.541148 0.2429
-3.056294 0.760255 0.046626 -0.0603988083 0.998080308 -0.0136997297 0.263333 0.369123
-3.031826 0.758926 0.024405 -0.00420009127 0.997921685 -0.0643013973 0.148355 0.134475
-3.06227 0.758528 0.020219 -0.0680984137 0.996676783 -0.0446989587 0.395838 -0.020532
-3.030744 0.760918 0.055256 -0.0303011184 0.999536894 -0.00280010335 -0.026908 0.466559
-3.044386 0.724474 -0.04593 0.0421006124 0.8319121 -0.553308048 0.534256 0.709559
-3.07368 0.739568 -0.019521 0.0357009172 0.933723988 -0.356209151 0.150317 0.76837
-3.039284 0.735238 -0.026676 0.0894016159 0.924316707 -0.371006706 0.336506 0.483737
-3.069868 0.7215 -0.050419 0.00690031649 0.832138167 -0.554525434 0.491257 0.965403
-3.050767 0.707429 -0.067237 0.0198999593 0.777798409 -0.628198715 0.819521 0.943554
-3.024009 0.713812 -0.058487 0.0729004071 0.821104586 -0.566103162 0.740853 0.599345
-3.004892 0.728037 -0.031623 0.145400683 0.915304297 -0.375601763 0.541148 0.2429
-3.034188 0.74026 -0.003005 0.130898713 0.974190424 -0.183898192 0.263333 0.369123
-3.027821 0.742948 0.029344 0.145400764 0.983205167 -0.11030058 0.148355 0.134475
-3.008712 0.737492 0.005901 0.161204108 0.971424752 -0.174204439 0.395838 -0.020532
-3.054571 0.745179 0.013969 0.106303386 0.980631234 -0.16450524 -0.026908 0.466559
-2.974957 0.694958 0.10936 0.272603853 0.857612123 0.436106164 0.534256 0.709559
-2.954591 0.70301 0.073253 0.226107003 0.944729259 0.237407353 0.150317 0.76837
-2.984699 0.705291 0.091726 0.179808913 0.945946892 0.26991338 0.336506 0.483737
-2.950211 0.687778 0.105572 0.305689932 0.851671951 0.42568598 0.491257 0.965403
-2.96425 0.67835 0.129229 0.31089815 0.80499521 0.505296993 0.819521 0.943554
-2.991138 0.688851 0.129044 0.246696282 0.853287141 0.459393077 0.740853 0.599345
-3.015982 0.704619 0.108461 0.128199135 0.947293611 0.29359802 0.541148 0.2429
-2.996791 0.709719 0.070615 0.0847034479 0.991140345 0.102304164 0.263333 0.369123
-3.013375 0.711564 0.042053 0.0473995497 0.998190517 0.0369996485 0.148355 0.134475
-3.023889 0.710993 0.070926 0.0528014169 0.993226654 0.103502778 0.395838 -0.020532
-2.982961 0.709921 0.047454 0.101795812 0.991959192 0.0751969065 -0.026908 0.466559
-2.934616 0.689607 0.003169 0.252098353 0.822094628 -0.510496664 0.534256 0.709559
-2.97103 0.683966 -0.017461 0.0382990575 0.874678474 -0.483188109 0.150317 0.76837
-2.954301 0.69825 0.010271 0.0685019746 0.895325808 -0.440112686 0.336506 0.483737
-2.936111 0.675294 -0.018538 0.244104393 0.80521449 -0.540409725 0.491257 0.965403
-2.911393 0.675284 -0.003218 0.332004275 0.776810001 -0.53510689 0.819521 0.943554
-2.914543 0.692462 0.019766 0.275100131 0.830000394 -0.48520023 0.740853 0.599345
-2.938678 0.709718 0.039996 0.0899027394 0.915727903 -0.391611933 0.541148 0.2429
-2.976198 0.701262 0.021359 -0.107404689 0.928440537 -0.355615527 0.263333 0.369123
-3.004953 0.701508 0.03771 -0.173796276 0.931480043 -0.319593153 0.148355 0.134475
-2.976916 0.709944 0.047051 -0.107606585 0.939357486 -0.325619927 0.395838 -0.020532
-2.998484 0.692776 0.008747 -0.13359635 0.918774895 -0.371489849 -0.026908 0.466559
-3.086272 0.724971 0.077336 -0.509631157 0.857152404 -0.0746045611 0.534256 0.709559
-3.050019 0.743646 0.088302 -0.325292912 0.929279751 -0.174996187 0.150317 0.76837
-3.070575 0.731263 0.062282 -0.36079255 0.907881252 -0.213495591 0.336506 0.483737
-3.080088 0.729575 0.102213 -0.49647679 0.866959471 -0.0434979665 0.491257 0.965403
-3.103427 0.71331 0.096177 -0.569922589 0.821632566 -0.0104004122 0.819521 0.943554
-3.10618 0.711039 0.067531 -0.533999375 0.840299017 -0.0934998906 0.740853 0.599345
-3.089157 0.715842 0.03628 -0.387809839 0.884922451 -0.257906543 0.541148 0.2429
-3.050929 0.73148 0.047266 -0.205798731 0.918994334 -0.336297927 0.263333 0.369123
-3.023903 0.727956 0.028519 -0.144305901 0.913737363 -0.379815531 0.148355 0.134475
-3.053164 0.720803 0.022426 -0.209306545 0.90692836 -0.365611433 0.395838 -0.020532
-3.027072 0.739339 0.057108 -0.178004306 0.929122476 -0.32410784 -0.026908 0.466559
-3.053274 0.671781 -0.047748 -0.0118000217 0.619001136 -0.785301441 0.534256 0.709559
-3.087612 0.688579 -0.0298 -0.0583992332 0.772689855 -0.632091701 0.150317 0.76837
-3.052327 0.688598 -0.032617 -0.00240003674 0.769111775 -0.639109785 0.336506 0.483737
-3.077247 0.663024 -0.052934 -0.0463004919 0.612506508 -0.789108384 0.491257 0.965403
-3.05428 0.648235 -0.062907 -0.0161002394 0.541708055 -0.840412497 0.819521 0.943554
-3.030105 0.661701 -0.054688 0.0215994426 0.610684241 -0.791579574 0.740853 0.599345
-3.016899 0.686595 -0.032431 0.054301183 0.769516764 -0.636313862 0.541148 0.2429
-3.051095 0.701373 -0.01148 0.00700030774 0.879838679 -0.475220891 0.263333 0.369123
-3.049376 0.714817 0.018695 0.0104998989 0.913191211 -0.407396079 0.148355 0.134475
-3.026836 0.706089 -0.000287 0.0358994667 0.885686843 -0.462893124 0.395838 -0.020532
-3.073978 0.707412 0.001467 -0.0206003076 0.887313248 -0.460706878 -0.026908 0.466559
-3.004622 0.696397 0.117578 0.163903749 0.795318189 0.583613347 0.534256 0.709559
-2.971747 0.708225 0.08594 0.174098515 0.903992289 0.390496669 0.150317 0.76837
-3.009583 0.710359 0.097109 0.120902018 0.904215096 0.409606838 0.336506 0.483737
-2.977052 0.68749 0.11994 0.198501729 0.788806871 0.581705067 0.491257 0.965403
-2.999436 0.675173 0.139958 0.181200764 0.734203095 0.654302758 0.819521 0.943554
-3.028042 0.688325 0.13312 0.132700465 0.789902769 0.598702098 0.740853 0.599345
-3.048232 0.709478 0.105711 0.0648005712 0.905807985 0.418703691 0.541148 0.2429
-3.016172 0.718289 0.071507 0.074998545 0.970581171 0.228795561 0.263333 0.369123
-3.025425 0.724431 0.036297 0.0566974118 0.985954992 0.157092829 0.148355 0.134475
-3.045368 0.721163 0.064013 0.0441007385 0.974116312 0.221703712 0.395838 -0.020532
-2.994378 0.720328 0.050833 0.0989042426 0.973241748 0.207408897 -0.026908 0.466559
-3.044384 0.476627 0.256978 -0.450682922 0.740271948 0.498881095 0.534256 0.709559
-3.00831 0.487875 0.266783 -0.28821554 0.864246597 0.412322231 0.150317 0.76837
-3.032908 0.489645 0.245277 -0.332706373 0.864216554 0.377407229 0.336506 0.483737
-3.03346 0.468555 0.276856 -0.430298582 0.733097584 0.526698265 0.491257 0.965403
-3.056757 0.457483 0.269283 -0.497699219 0.673198943 0.546899141 0.819521 0.943554
-3.065207 0.469384 0.246944 -0.479699439 0.734499141 0.479999438 0.740853 0.599345
-3.05593 0.489119 0.221915 -0.37039942 0.866398644 0.334899476 0.541148 0.2429
-3.018277 0.498068 0.229864 -0.208206374 0.946328972 0.247207568 0.263333 0.369123
-2.998016 0.505725 0.208278 -0.158297631 0.967985514 0.194797085 0.148355 0.134475
-3.026047 0.501545 0.206273 -0.218899464 0.95119767 0.217499467 0.395838 -0.020532
-2.9943 0.500716 0.236186 -0.177606975 0.950137313 0.256310065 -0.026908 0.466559
3 0 1 2
3 0 3 1
3 0 4 3
3 0 5 4
3 0 6 5
3 0 2 6
3 7 8 9
3 7 10 8
3 7 1 10
3 7 2 1
3 7 6 2
3 7 9 6
3 11 12 13
3 11 14 12
3 11 15 14
3 11 16 15
3 11 17 16
3 11 13 17
3 18 19 20
3 18 21 19
3 18 12 21
3 18 13 12
3 18 17 13
3 18 20 17
3 22 23 24
3 22 25 23
3 22 26 25
3 22 27 26
3 22 28 27
3 22 24 28
3 29 30 31
3 29 32 30
3 29 23 32
3 29 24 23
3 29 28 24
3 29 31 28
3 33 34 35
3 33 36 34
3 33 37 36
3 33 38 37
3 33 39 38
3 33 35 39
3 40 41 42
3 40 43 41
3 40 34 43
3 40 35 34
3 40 39 35
3 40 42 39
3 44 45 46
3 44 47 45
3 44 48 47
3 44 49 48
3 44 50 49
3 44 46 50
3 51 52 53
3 51 54 52
3 51 45 54
3 51 46 45
3 51 50 46
3 51 53 50
3 55 56 57
3 55 58 56
3 55 59 58
3 55 60 59
3 55 61 60
3 55 57 61
3 62 63 64
3 62 65 63
3 62 56 65
3 62 57 56
3 62 61 57
3 62 64 61
3 66 67 68
3 66 69 67
3 66 70 69
3 66 71 70
3 66 72 71
3 66 68 72
3 73 74 75
3 73 76 74
3 73 67 76
3 73 68 67
3 73 72 68
3 73 75 72
3 77 78 79
3 77 80 78
3 77 81 80
3 77 82 81
3 77 83 82
3 77 79 83
3 84 85 86
3 84 87 85
3 84 78 87
3 84 79 78
3 84 83 79
3 84 86 83
3 88 89 90
3 88 91 89
3 88 92 91
3 88 93 92
3 88 94 93
3 88 90 94
3 95 96 97
3 95 98 96
3 95 89 98
3 95 90 89
3 95 94 90
3 95 97 94
3 99 100 101
3 99 102 100
3 99 103 102
3 99 104 103
3 99 105 104
3 99 101 105
3 106 107 108
3 106 109 107
3 106 100 109
3 106 101 100
3 106 105 101
3 106 108 105
3 110 111 112
3 110 113 111
3 110 114 113
3 110 115 114
3 110 116 115
3 110 112 116
3 117 118 119
3 117 120 118
3 117 111 120
3 117 112 111
3 117 116 112
3 117 119 116
3 121 122 123
3 121 124 122
3 121 125 124
3 121 126 125
3 121 127 126
3 121 123 127
3 128 129 130
3 128 131 129
3 128 122 131
3 128 123 122
3 128 127 123
3 128 130 127
3 132 133 134
3 132 135 133
3 132 136 135
3 132 137 136
3 132 138 137
3 132 134 138
3 139 140 141
3 139 142 140
3 139 133 142
3 139 134 133
3 139 138 134
3 139 141 138
3 143 144 145
3 143 146 144
3 143 147 146
3 143 148 147
3 143 149 148
3 143 145 149
3 150 151 152
3 150 153 151
3 150 144 153
3 150 145 144
3 150 149 145
3 150 152 149
3 154 155 156
3 154 157 155
3 154 158 157
3 154 159 158
3 154 160 159
3 154 156 160
3 161 162 163
3 161 164 162
3 161 155 164
3 161 156 155
3 161 160 156
3 161 163 160
3 165 166 167
3 165 168 166
3 165 169 168
3 165 170 169
3 165 171 170
3 165 167 171
3 172 173 174
3 172 175 173
3 172 166 175
3 172 167 166
3 172 171 167
3 172 174 171
3 176 177 178
3 176 179 177
3 176 180 179
3 176 181 180
3 176 182 181
3 176 178 182
3 183 184 185
3 183 186 184
3 183 177 186
3 183 178 177
3 183 182 178
3 183 185 182
3 187 188 189
3 187 190 188
3 187 191 190
3 187 192 191
3 187 193 192
3 187 189 193
3 194 195 196
3 194 197 195
3 194 188 197
3 194 189 188
3 194 193 189
3 194 196 193
3 198 199 200
3 198 201 199
3 198 202 201
3 198 203 202
3 198 204 203
3 198 200 204
3 205 206 207
3 205 208 206
3 205 199 208
3 205 200 199
3 205 204 200
3 205 207 204
3 209 210 211
3 209 212 210
3 209 213 212
3 209 214 213
3 209 215 214
3 209 211 215
3 216 217 218
3 216 219 217
3 216 210 219
3 216 211 210
3 216 215 211
3 216 218 215
3 220 221 222
3 220 223 221
3 220 224 223
3 220 225 224
3 220 226 225
3 220 222 226
3 227 228 229
3 227 230 228
3 227 221 230
3 227 222 221
3 227 226 222
3 227 229 226
3 231 232 233
3 231 234 232
3 231 235 234
3 231 236 235
3 231 237 236
3 231 233 237
3 238 239 240
3 238 241 239
3 238 232 241
3 238 233 232
3 238 237 233
3 238 240 237
3 242 243 244
3 242 245 243
3 242 246 245
3 242 247 246
3 242 248 247
3 242 244 248
3 249 250 251
3 249 252 250
3 249 243 252
3 249 244 243
3 249 248 244
3 249 251 248
3 253 254 255
3 253 256 254
3 253 257 256
3 253 258 257
3 253 259 258
3 253 255 259
3 260 261 262
3 260 263 261
3 260 254 263
3 260 255 254
3 260 259 255
3 260 262 259
3 264 265 266
3 264 267 265
3 264 268 267
3 264 269 268
3 264 270 269
3 264 266 270
3 271 272 273
3 271 274 272
3 271 265 274
3 271 266 265
3 271 270 266
3 271 273 270
3 275 276 277
3 275 278 276
3 275 279 278
3 275 280 279
3 275 281 280
3 275 277 281
3 282 283 284
3 282 285 283
3 282 276 285
3 282 277 276
3 282 281 277
3 282 284 281
3 286 287 288
3 286 289 287
3 286 290 289
3 286 291 290
3 286 292 291
3 286 288 292
3 293 294 295
3 293 296 294
3 293 287 296
3 293 288 287
3 293 292 288
3 293 295 292
3 297 298 299
3 297 300 298
3 297 301 300
3 297 302 301
3 297 303 302
3 297 299 303
3 304 305 306
3 304 307 305
3 304 298 307
3 304 299 298
3 304 303 299
3 304 306 303
3 308 309 310
3 308 311 309
3 308 312 311
3 308 313 312
3 308 314 313
3 308 310 314
3 315 316 317
3 315 318 316
3 315 309 318
3 315 310 309
3 315 314 310
3 315 317 314
3 319 320 321
3 319 322 320
3 319 323 322
3 319 324 323
3 319 325 324
3 319 321 325
3 326 327 328
3 326 329 327
3 326 320 329
3 326 321 320
3 326 325 321
3 326 328 325
3 330 331 332
3 330 333 331
3 330 334 333
3 330 335 334
3 330 336 335
3 330 332 336
3 337 338 339
3 337 340 338
3 337 331 340
3 337 332 331
3 337 336 332
3 337 339 336
3 341 342 343
3 341 344 342
3 341 345 344
3 341 346 345
3 341 347 346
3 341 343 347
3 348 349 350
3 348 351 349
3 348 342 351
3 348 343 342
3 348 347 343
3 348 350 347
3 352 353 354
3 352 355 353
3 352 356 355
3 352 357 356
3 352 358 357
3 352 354 358
3 359 360 361
3 359 362 360
3 359 353 362
3 359 354 353
3 359 358 354
3 359 361 358
3 363 364 365
3 363 366 364
3 363 367 366
3 363 368 367
3 363 369 368
3 363 365 369
3 370 371 372
3 370 373 371
3 370 364 373
3 370 365 364
3 370 369 365
3 370 372 369
3 374 375 376
3 374 377 375
3 374 378 377
3 374 379 378
3 374 380 379
3 374 376 380
3 381 382 383
3 381 384 382
3 381 375 384
3 381 376 375
3 381 380 376
3 381 383 380
3 385 386 387
3 385 388 386
3 385 389 388
3 385 390 389
3 385 391 390
3 385 387 391
3 392 393 394
3 392 395 393
3 392 386 395
3 392 387 386
3 392 391 387
3 392 394 391
3 396 397 398
3 396 399 397
3 396 400 399
3 396 401 400
3 396 402 401
3 396 398 402
3 403 404 405
3 403 406 404
3 403 397 406
3 403 398 397
3 403 402 398
3 403 405 402
3 407 408 409
3 407 410 408
3 407 411 410
3 407 412 411
3 407 413 412
3 407 409 413
3 414 415 416
3 414 417 415
3 414 408 417
3 414 409 408
3 414 413 409
3 414 416 413
3 418 419 420
3 418 421 419
3 418 422 421
3 418 423 422
3 418 424 423
3 418 420 424
3 425 426 427
3 425 428 426
3 425 419 428
3 425 420 419
3 425 424 420
3 425 427 424
3 429 430 431
3 429 432 430
3 429 433 432
3 429 434 433
3 429 435 434
3 429 431 435
3 436 437 438
3 436 439 437
3 436 430 439
3 436 431 430
3 436 435 431
3 436 438 435
3 440 441 442
3 440 443 441
3 440 444 443
3 440 445 444
3 440 446 445
3 440 442 446
3 447 448 449
3 447 450 448
3 447 441 450
3 447 442 441
3 447 446 442
3 447 449 446
3 451 452 453
3 451 454 452
3 451 455 454
3 451 456 455
3 451 457 456
3 451 453 457
3 458 459 460
3 458 461 459
3 458 452 461
3 458 453 452
3 458 457 453
3 458 460 457
3 462 463 464
3 462 465 463
3 462 466 465
3 462 467 466
3 462 468 467
3 462 464 468
3 469 470 471
3 469 472 470
3 469 463 472
3 469 464 463
3 469 468 464
3 469 471 468
3 473 474 475
3 473 476 474
3 473 477 476
3 473 478 477
3 473 479 478
3 473 475 479
3 480 481 482
3 480 483 481
3 480 474 483
3 480 475 474
3 480 479 475
3 480 482 479
3 484 485 486
3 484 487 485
3 484 488 487
3 484 489 488
3 484 490 489
3 484 486 490
3 491 492 493
3 491 494 492
3 491 485 494
3 491 486 485
3 491 490 486
3 491 493 490
3 495 496 497
3 495 498 496
3 495 499 498
3 495 500 499
3 495 501 500
3 495 497 501
3 502 503 504
3 502 505 503
3 502 496 505
3 502 497 496
3 502 501 497
3 502 504 501
3 506 507 508
3 506 509 507
3 506 510 509
3 506 511 510
3 506 512 511
3 506 508 512
3 513 514 515
3 513 516 514
3 513 507 516
3 513 508 507
3 513 512 508
3 513 515 512
3 517 518 519
3 517 520 518
3 517 521 520
3 517 522 521
3 517 523 522
3 517 519 523
3 524 525 526
3 524 527 525
3 524 518 527
3 524 519 518
3 524 523 519
3 524 526 523
3 528 529 530
3 528 531 529
3 528 532 531
3 528 533 532
3 528 534 533
3 528 530 534
3 535 536 537
3 535 538 536
3 535 529 538
3 535 530 529
3 535 534 530
3 535 537 534
3 539 540 541
3 539 542 540
3 539 543 542
3 539 544 543
3 539 545 544
3 539 541 545
3 546 547 548
3 546 549 547
3 546 540 549
3 546 541 540
3 546 545 541
3 546 548 545
3 550 551 552
3 550 553 551
3 550 554 553
3 550 555 554
3 550 556 555
3 550 552 556
3 557 558 559
3 557 560 558
3 557 551 560
3 557 552 551
3 557 556 552
3 557 559 556
3 561 562 563
3 561 564 562
3 561 565 564
3 561 566 565
3 561 567 566
3 561 563 567
3 568 569 570
3 568 571 569
3 568 562 571
3 568 563 562
3 568 567 563
3 568 570 567
3 572 573 574
3 572 575 573
3 572 576 575
3 572 577 576
3 572 578 577
3 572 574 578
3 579 580 581
3 579 582 580
3 579 573 582
3 579 574 573
3 579 578 574
3 579 581 578
3 583 584 585
3 583 586 584
3 583 587 586
3 583 588 587
3 583 589 588
3 583 585 589
3 590 591 592
3 590 593 591
3 590 584 593
3 590 585 584
3 590 589 585
3 590 592 589
3 594 595 596
3 594 597 595
3 594 598 597
3 594 599 598
3 594 600 599
3 594 596 600
3 601 602 603
3 601 604 602
3 601 595 604
3 601 596 595
3 601 600 596
3 601 603 600
3 605 606 607
3 605 608 606
3 605 609 608
3 605 610 609
3 605 611 610
3 605 607 611
3 612 613 614
3 612 615 613
3 612 606 615
3 612 607 606
3 612 611 607
3 612 614 611
3 616 617 618
3 616 619 617
3 616 620 619
3 616 621 620
3 616 622 621
3 616 618 622
3 623 624 625
3 623 626 624
3 623 617 626
3 623 618 617
3 623 622 618
3 623 625 622
3 627 628 629
3 627 630 628
3 627 631 630
3 627 632 631
3 627 633 632
3 627 629 633
3 634 635 636
3 634 637 635
3 634 628 637
3 634 629 628
3 634 633 629
3 634 636 633
3 638 639 640
3 638 641 639
3 638 642 641
3 638 643 642
3 638 644 643
3 638 640 644
3 645 646 647
3 645 648 646
3 645 639 648
3 645 640 639
3 645 644 640
3 645 647 644
3 649 650 651
3 649 652 650
3 649 653 652
3 649 654 653
3 649 655 654
3 649 651 655
3 656 657 658
3 656 659 657
3 656 650 659
3 656 651 650
3 656 655 651
3 656 658 655
3 660 661 662
3 660 663 661
3 660 664 663
3 660 665 664
3 660 666 665
3 660 662 666
3 667 668 669
3 667 670 668
3 667 661 670
3 667 662 661
3 667 666 662
3 667 669 666
3 671 672 673
3 671 674 672
3 671 675 674
3 671 676 675
3 671 677 676
3 671 673 677
3 678 679 680
3 678 681 679
3 678 672 681
3 678 673 672
3 678 677 673
3 678 680 677
3 682 683 684
3 682 685 683
3 682 686 685
3 682 687 686
3 682 688 687
3 682 684 688
3 689 690 691
3 689 692 690
3 689 683 692
3 689 684 683
3 689 688 684
3 689 691 688
3 693 694 695
3 693 696 694
3 693 697 696
3 693 698 697
3 693 699 698
3 693 695 699
3 700 701 702
3 700 703 701
3 700 694 703
3 700 695 694
3 700 699 695
3 700 702 699
3 704 705 706
3 704 707 705
3 704 708 707
3 704 709 708
3 704 710 709
3 704 706 710
3 711 712 713
3 711 714 712
3 711 705 714
3 711 706 705
3 711 710 706
3 711 713 710
3 715 716 717
3 715 718 716
3 715 719 718
3 715 720 719
3 715 721 720
3 715 717 721
3 722 723 724
3 722 725 723
3 722 716 725
3 722 717 716
3 722 721 717
3 722 724 721
3 726 727 728
3 726 729 727
3 726 730 729
3 726 731 730
3 726 732 731
3 726 728 732
3 733 734 735
3 733 736 734
3 733 727 736
3 733 728 727
3 733 732 728
3 733 735 732
3 737 738 739
3 737 740 738
3 737 741 740
3 737 742 741
3 737 743 742
3 737 739 743
3 744 745 746
3 744 747 745
3 744 738 747
3 744 739 738
3 744 743 739
3 744 746 743
