ply
format ascii 1.0
element vertex 853
property float x
property float y
property float z
property float nx
property float ny
property float nz
property float u
property float v
element face 758
property list uchar int vertex_indices
end_header
-1.266853 2.4909 0.424113 1 0 0 0 0
-1.266853 2.415662 0.348875 1 0 0 0 0
-1.266853 2.4909 0.348875 1 0 0 0 0
-1.266853 2.415662 0.424113 1 0 0 0 0
-1.266853 2.4909 0.075237 1 0 0 0 0
-1.266853 2.415662 0.075237 1 0 0 0 0
-1.266853 2.038337 0 1 0 0 0 0
-1.266853 2.038337 0.075237 1 0 0 0 0
-1.266853 2.415662 0 1 0 0 0 0
-1.266853 2.038337 0.348875 1 0 0 0 0
-1.266853 2.038337 0.424113 1 0 0 0 0
-1.266853 1.221676 0.424113 1 0 0 0 0
-1.266853 1.146438 0.348875 1 0 0 0 0
-1.266853 1.221676 0.348875 1 0 0 0 0
-1.266853 1.146438 0.424113 1 0 0 0 0
-1.266853 1.146438 0.075237 1 0 0 0 0
-1.266853 0.685914 0 1 0 0 0 0
-1.266853 1.146438 0 1 0 0 0 0
-1.266853 0.685914 0.075237 1 0 0 0 0
-1.266853 1.221676 0 1 0 0 0 0
-1.266853 1.9631 0.075237 1 0 0 0 0
-1.266853 1.221676 0.075237 1 0 0 0 0
-1.266853 1.9631 0 1 0 0 0 0
-1.266853 0.685914 0.348875 1 0 0 0 0
-1.266853 0.685914 0.424113 1 0 0 0 0
-1.266853 2.4909 0 1 0 0 0 0
-1.266853 1.9631 0.424113 1 0 0 0 0
-1.266853 1.9631 0.348875 1 0 0 0 0
-1.266853 0.610676 0.348875 1 0 0 0 0
-1.266853 0.610676 0.424113 1 0 0 0 0
-1.266853 0.610676 0 1 0 0 0 0
-1.266853 0.610676 0.075237 1 0 0 0 0
-0.802389 2.500026 0.345048 -0.152304354 -0.976527914 -0.152304354 0 0
-1.191615 2.499265 0.348875 0.0984951448 -0.990251187 -0.0984951448 0 0
-1.187788 2.500026 0.345048 0.152304354 -0.976527914 -0.152304354 0 0
-0.798562 2.499265 0.348875 -0.0984951448 -0.990251187 -0.0984951448 0 0
-0.808562 2.509207 0.338875 0 -0.197904309 -0.980221345 0 0
-1.182376 2.505438 0.339636 0 -0.420782227 -0.907161682 0 0
-1.181615 2.509207 0.338875 0 -0.197904309 -0.980221345 0 0
-0.807801 2.505438 0.339636 0 -0.420782227 -0.907161682 0 0
-1.187788 2.500026 0.079064 0.152304354 -0.976527914 0.152304354 0 0
-0.798562 2.499265 0.075237 -0.0984951448 -0.990251187 0.0984951448 0 0
-0.802389 2.500026 0.079064 -0.152304354 -0.976527914 0.152304354 0 0
-1.191615 2.499265 0.075237 0.0984951448 -0.990251187 0.0984951448 0 0
-1.181615 2.509207 0.085237 0 -0.198000392 0.980201941 0 0
-0.807801 2.505438 0.084476 0 -0.420782227 0.907161682 0 0
-0.808562 2.509207 0.085237 0 -0.198000392 0.980201941 0 0
-1.182376 2.505438 0.084476 0 -0.420782227 0.907161682 0 0
-0.808562 2.509207 0.085237 -0.980201941 -0.198000392 0 0 0
-0.807801 2.505438 0.339636 -0.907161682 -0.420782227 0 0 0
-0.808562 2.509207 0.338875 -0.980201941 -0.198000392 0 0 0
-0.807801 2.505438 0.084476 -0.907161682 -0.420782227 0 0 0
-0.719498 2.500026 0.345048 0.152304354 -0.976527914 -0.152304354 0 0
-0.723324 2.499265 0.075237 0.0984951448 -0.990251187 0.0984951448 0 0
-0.719498 2.500026 0.079064 0.152304354 -0.976527914 0.152304354 0 0
-0.723324 2.499265 0.348875 0.0985048988 -0.990249246 -0.0985048988 0 0
-0.713324 2.509207 0.338875 0.980201941 -0.198000392 0 0 0
-0.714086 2.505438 0.084476 0.907161682 -0.420782227 0 0 0
-0.713324 2.509207 0.085238 0.980201941 -0.198000392 0 0 0
-0.714086 2.505438 0.339636 0.907161682 -0.420782227 0 0 0
-0.326211 2.500026 0.079064 -0.152304354 -0.976527914 0.152304354 0 0
-0.322384 2.499265 0.348875 -0.0985048988 -0.990249246 -0.0985048988 0 0
-0.326211 2.500026 0.345048 -0.152304354 -0.976527914 -0.152304354 0 0
-0.322384 2.499265 0.075237 -0.0984951448 -0.990251187 0.0984951448 0 0
-0.332384 2.509207 0.085238 -0.980201941 -0.198000392 0 0 0
-0.331623 2.505438 0.339636 -0.907161682 -0.420782227 0 0 0
-0.332384 2.509207 0.338875 -0.980201941 -0.198000392 0 0 0
-0.331623 2.505438 0.084476 -0.907161682 -0.420782227 0 0 0
-0.713324 2.509207 0.085238 0 -0.198000392 0.980201941 0 0
-0.331623 2.505438 0.084476 0 -0.420782227 0.907161682 0 0
-0.332384 2.509207 0.085238 0 -0.198000392 0.980201941 0 0
-0.714086 2.505438 0.084476 0 -0.420782227 0.907161682 0 0
-0.332384 2.509207 0.338875 0 -0.197904309 -0.980221345 0 0
-0.714086 2.505438 0.339636 0 -0.420782227 -0.907161682 0 0
-0.713324 2.509207 0.338875 0 -0.197904309 -0.980221345 0 0
-0.331623 2.505438 0.339636 0 -0.420782227 -0.907161682 0 0
-0.723324 2.4909 0.348875 1 0 0 0 0
-0.723324 2.499265 0.075237 1 0 0 0 0
-0.723324 2.499265 0.348875 1 0 0 0 0
-0.723324 2.4909 0.075237 1 0 0 0 0
-0.322384 2.499265 0.348875 -1 0 0 0 0
-0.322384 2.4909 0.075237 -1 0 0 0 0
-0.322384 2.4909 0.348875 -1 0 0 0 0
-0.322384 2.499265 0.075237 -1 0 0 0 0
-0.322384 2.499265 0.075237 0 0 1 0 0
-0.723324 2.4909 0.075237 0 0 1 0 0
-0.322384 2.4909 0.075237 0 0 1 0 0
-0.723324 2.499265 0.075237 0 0 1 0 0
-0.322384 2.4909 0.348875 0 0 -1 0 0
-0.723324 2.499265 0.348875 0 0 -1 0 0
-0.322384 2.499265 0.348875 0 0 -1 0 0
-0.723324 2.4909 0.348875 0 0 -1 0 0
-0.23802 2.042165 0.079064 -0.976527914 0.152304354 0.152304354 0 0
-0.238782 2.038337 0.348875 -0.990251187 0.0984951448 -0.0984951448 0 0
-0.23802 2.042164 0.345048 -0.976527914 0.152304354 -0.152304354 0 0
-0.238782 2.038338 0.075237 -0.990251187 0.0984951448 0.0984951448 0 0
-0.228839 2.048338 0.085237 -0.198000392 0.980201941 0 0 0
-0.232608 2.047576 0.339636 -0.420782227 0.907161682 0 0 0
-0.228839 2.048338 0.338875 -0.198000392 0.980201941 0 0 0
-0.232608 2.047576 0.084476 -0.420782227 0.907161682 0 0 0
-0.23802 2.411836 0.345048 -0.976527914 -0.152304354 -0.152304354 0 0
-0.238782 2.415663 0.075237 -0.990251187 -0.0984951448 0.0984951448 0 0
-0.23802 2.411836 0.079064 -0.976527914 -0.152304354 0.152304354 0 0
-0.238782 2.415663 0.348875 -0.990251187 -0.0984951448 -0.0984951448 0 0
-0.228839 2.405663 0.338875 -0.197904309 -0.980221345 0 0 0
-0.232608 2.406424 0.084476 -0.420782227 -0.907161682 0 0 0
-0.228839 2.405663 0.085237 -0.197904309 -0.980221345 0 0 0
-0.232608 2.406424 0.339636 -0.420782227 -0.907161682 0 0 0
-0.228839 2.048338 0.338875 -0.198000392 0 -0.980201941 0 0
-0.232608 2.406424 0.339636 -0.420782227 0 -0.907161682 0 0
-0.228839 2.405663 0.338875 -0.198000392 0 -0.980201941 0 0
-0.232608 2.047576 0.339636 -0.420782227 0 -0.907161682 0 0
-1.275051 1.281676 0.135237 0 -1 0 0 0
-1.269997 1.281676 0.288875 0 -1 0 0 0
-1.275051 1.281676 0.288875 0 -1 0 0 0
-1.269997 1.281676 0.135237 0 -1 0 0 0
-1.275051 0.745914 0.288875 0 0 1 0 0
-1.269997 1.086438 0.288875 0 0 1 0 0
-1.275051 1.086438 0.288875 0 0 1 0 0
-1.269997 0.745914 0.288875 0 0 1 0 0
-1.275051 1.9031 0.288875 0 1 0 0 0
-1.269997 1.9031 0.135237 0 1 0 0 0
-1.275051 1.9031 0.135237 0 1 0 0 0
-1.269997 1.9031 0.288875 0 1 0 0 0
-1.269997 2.355662 0.288875 1 0 0 0 0
-1.269997 2.098337 0.135237 1 0 0 0 0
-1.269997 2.355662 0.135237 1 0 0 0 0
-1.269997 2.098337 0.288875 1 0 0 0 0
-1.269997 1.086438 0.135237 1 0 0 0 0
-1.269997 0.745914 0.288875 1 0 0 0 0
-1.269997 0.745914 0.135237 1 0 0 0 0
-1.269997 1.086438 0.288875 1 0 0 0 0
-1.269997 1.281676 0.135237 1 0 0 0 0
-1.269997 1.9031 0.288875 1 0 0 0 0
-1.269997 1.281676 0.288875 1 0 0 0 0
-1.269997 1.9031 0.135237 1 0 0 0 0
-1.275051 0.745914 0.135237 0 -1 0 0 0
-1.269997 0.745914 0.288875 0 -1 0 0 0
-1.275051 0.745914 0.288875 0 -1 0 0 0
-1.269997 0.745914 0.135237 0 -1 0 0 0
-1.275051 1.281676 0.288875 0 0 1 0 0
-1.269997 1.9031 0.288875 0 0 1 0 0
-1.275051 1.9031 0.288875 0 0 1 0 0
-1.269997 1.281676 0.288875 0 0 1 0 0
-1.275051 1.9031 0.135237 0 0 -1 0 0
-1.269997 1.281676 0.135237 0 0 -1 0 0
-1.275051 1.281676 0.135237 0 0 -1 0 0
-1.269997 1.9031 0.135237 0 0 -1 0 0
-1.275051 2.098337 0.135237 0 -1 0 0 0
-1.269997 2.098337 0.288875 0 -1 0 0 0
-1.275051 2.098337 0.288875 0 -1 0 0 0
-1.269997 2.098337 0.135237 0 -1 0 0 0
-1.275051 1.086438 0.135237 0 0 -1 0 0
-1.269997 0.745914 0.135237 0 0 -1 0 0
-1.275051 0.745914 0.135237 0 0 -1 0 0
-1.269997 1.086438 0.135237 0 0 -1 0 0
-1.275051 2.355662 0.288875 0 1 0 0 0
-1.269997 2.355662 0.135237 0 1 0 0 0
-1.275051 2.355662 0.135237 0 1 0 0 0
-1.269997 2.355662 0.288875 0 1 0 0 0
-1.275051 1.086438 0.288875 0 1 0 0 0
-1.269997 1.086438 0.135237 0 1 0 0 0
-1.275051 1.086438 0.135237 0 1 0 0 0
-1.269997 1.086438 0.288875 0 1 0 0 0
-1.275051 2.355662 0.135237 0 0 -1 0 0
-1.269997 2.098337 0.135237 0 0 -1 0 0
-1.275051 2.098337 0.135237 0 0 -1 0 0
-1.269997 2.355662 0.135237 0 0 -1 0 0
-1.275051 2.098337 0.288875 0 0 1 0 0
-1.269997 2.355662 0.288875 0 0 1 0 0
-1.275051 2.355662 0.288875 0 0 1 0 0
-1.269997 2.098337 0.288875 0 0 1 0 0
-1.285218 1.136438 0.085237 0.195096815 -0.980783989 0 0 0
-1.281391 1.137199 0.339636 0.419603472 -0.907707511 0 0 0
-1.285218 1.136438 0.338875 0.195096815 -0.980783989 0 0 0
-1.281391 1.137199 0.084476 0.419521073 -0.907745597 0 0 0
-1.278147 1.139367 0.341804 0.755893613 -0.654694468 0 0 0
-1.278147 1.139367 0.082309 0.755893613 -0.654694468 0 0 0
-1.275979 1.142611 0.345048 0.976527914 -0.152304354 -0.152304354 0 0
-1.275979 1.142611 0.079064 0.976527914 -0.152304354 0.152304354 0 0
-1.275218 1.146438 0.348875 0.990251187 -0.0984951448 -0.0984951448 0 0
-1.275218 1.146438 0.075237 0.990251187 -0.0984951448 0.0984951448 0 0
-1.285218 0.695914 0.085237 0.195096815 0 0.980783989 0 0
-1.281391 1.137199 0.084476 0.419521073 0 0.907745597 0 0
-1.285218 1.136438 0.085237 0.195096815 0 0.980783989 0 0
-1.281391 0.695152 0.084476 0.419521073 0 0.907745597 0 0
-1.278147 1.139367 0.082309 0.755893613 0 0.654694468 0 0
-1.278147 0.692985 0.082309 0.755893613 0 0.654694468 0 0
-1.275979 0.68974 0.079064 0.976527914 0.152304354 0.152304354 0 0
-0.228839 2.405663 0.085237 -0.198000392 0 0.980201941 0 0
-0.232608 2.047576 0.084476 -0.420782227 0 0.907161682 0 0
-0.228839 2.048338 0.085237 -0.198000392 0 0.980201941 0 0
-0.232608 2.406424 0.084476 -0.420782227 0 0.907161682 0 0
-1.285218 0.695914 0.338875 0.195096815 0.980783989 0 0 0
-1.281391 0.695152 0.084476 0.419603472 0.907707511 0 0 0
-1.285218 0.695914 0.085237 0.195096815 0.980783989 0 0 0
-1.281391 0.695152 0.339636 0.419603472 0.907707511 0 0 0
-1.278147 0.692985 0.082309 0.755893613 0.654694468 0 0 0
-1.278147 0.692985 0.341804 0.755893613 0.654694468 0 0 0
-1.275979 0.68974 0.345048 0.976527914 0.152304354 -0.152304354 0 0
-0.23802 1.959273 0.345048 -0.976527914 -0.152304354 -0.152304354 0 0
-0.238782 1.9631 0.075237 -0.990251187 -0.0984951448 0.0984951448 0 0
-0.23802 1.959273 0.079064 -0.976527914 -0.152304354 0.152304354 0 0
-0.238782 1.9631 0.348875 -0.990251187 -0.0984951448 -0.0984951448 0 0
-1.285218 1.136438 0.338875 0.195096815 0 -0.980783989 0 0
-1.281391 0.695152 0.339636 0.419603472 0 -0.907707511 0 0
-1.285218 0.695914 0.338875 0.195096815 0 -0.980783989 0 0
-1.281391 1.137199 0.339636 0.419603472 0 -0.907707511 0 0
-1.278147 0.692985 0.341804 0.755893613 0 -0.654694468 0 0
-1.278147 1.139367 0.341804 0.755893613 0 -0.654694468 0 0
-1.275218 0.685914 0.348875 0.990249246 0.0985048988 -0.0985048988 0 0
-0.228839 1.9531 0.338875 -0.197904309 -0.980221345 0 0 0
-0.232608 1.953861 0.084476 -0.420782227 -0.907161682 0 0 0
-0.228839 1.9531 0.085237 -0.197904309 -0.980221345 0 0 0
-0.232608 1.953861 0.339636 -0.420782227 -0.907161682 0 0 0
-1.285218 1.231676 0.085237 0.195096815 0 0.980783989 0 0
-1.281391 1.953861 0.084476 0.419603472 0 0.907707511 0 0
-1.285218 1.9531 0.085237 0.195096815 0 0.980783989 0 0
-1.281391 1.230914 0.084476 0.419603472 0 0.907707511 0 0
-1.278147 1.956029 0.082309 0.755893613 0 0.654694468 0 0
-1.278147 1.228747 0.082309 0.755893613 0 0.654694468 0 0
-1.275979 1.959273 0.079064 0.976527914 -0.152304354 0.152304354 0 0
-1.275979 1.225502 0.079064 0.976527914 0.152304354 0.152304354 0 0
-0.23802 1.225502 0.079064 -0.976527914 0.152304354 0.152304354 0 0
-0.238782 1.221676 0.348875 -0.990251187 0.0984951448 -0.0984951448 0 0
-0.23802 1.225502 0.345048 -0.976527914 0.152304354 -0.152304354 0 0
-0.238782 1.221676 0.075237 -0.990251187 0.0984951448 0.0984951448 0 0
-1.285218 1.9531 0.338875 0.195096815 0 -0.980783989 0 0
-1.281391 1.230914 0.339636 0.419603472 0 -0.907707511 0 0
-1.285218 1.231676 0.338875 0.195096815 0 -0.980783989 0 0
-1.281391 1.953861 0.339636 0.419603472 0 -0.907707511 0 0
-1.278147 1.228747 0.341804 0.755893613 0 -0.654694468 0 0
-1.278147 1.956029 0.341804 0.755893613 0 -0.654694468 0 0
-1.275979 1.225502 0.345048 0.976527914 0.152304354 -0.152304354 0 0
-1.275979 1.959273 0.345048 0.976527914 -0.152304354 -0.152304354 0 0
-0.228839 1.231676 0.085237 -0.197904309 0.980221345 0 0 0
-0.232608 1.230914 0.339636 -0.420782227 0.907161682 0 0 0
-0.228839 1.231676 0.338875 -0.197904309 0.980221345 0 0 0
-0.232608 1.230914 0.084476 -0.420782227 0.907161682 0 0 0
-1.285218 1.231676 0.338875 0.195096815 0.980783989 0 0 0
-1.281391 1.230914 0.084476 0.419521073 0.907745597 0 0 0
-1.285218 1.231676 0.085237 0.195096815 0.980783989 0 0 0
-1.281391 1.230914 0.339636 0.419603472 0.907707511 0 0 0
-1.278147 1.228747 0.082309 0.755893613 0.654694468 0 0 0
-1.278147 1.228747 0.341804 0.755893613 0.654694468 0 0 0
-1.285218 1.9531 0.085237 0.195096815 -0.980783989 0 0 0
-1.281391 1.953861 0.339636 0.419521073 -0.907745597 0 0 0
-1.285218 1.9531 0.338875 0.195096815 -0.980783989 0 0 0
-1.281391 1.953861 0.084476 0.419521073 -0.907745597 0 0 0
-1.278147 1.956029 0.341804 0.755893613 -0.654694468 0 0 0
-1.278147 1.956029 0.082309 0.755893613 -0.654694468 0 0 0
-0.228839 1.9531 0.085237 -0.198000392 0 0.980201941 0 0
-0.232608 1.230914 0.084476 -0.420782227 0 0.907161682 0 0
-0.228839 1.231676 0.085237 -0.198000392 0 0.980201941 0 0
-0.232608 1.953861 0.084476 -0.420782227 0 0.907161682 0 0
-1.285218 2.405662 0.338875 0.195096815 0 -0.980783989 0 0
-1.281391 2.047576 0.339636 0.419603472 0 -0.907707511 0 0
-1.285218 2.048337 0.338875 0.195096815 0 -0.980783989 0 0
-1.281391 2.406424 0.339636 0.419603472 0 -0.907707511 0 0
-1.278147 2.045408 0.341804 0.755893613 0 -0.654694468 0 0
-1.278147 2.408591 0.341804 0.755893613 0 -0.654694468 0 0
-1.275979 2.042164 0.345048 0.976527914 0.152304354 -0.152304354 0 0
-1.275979 2.411835 0.345048 0.976527914 -0.152304354 -0.152304354 0 0
-1.275218 2.038337 0.348875 0.990251187 0.0984951448 -0.0984951448 0 0
-1.275218 2.415662 0.348875 0.990251187 -0.0984951448 -0.0984951448 0 0
-1.285218 2.048337 0.085237 0.195096815 0 0.980783989 0 0
-1.281391 2.406424 0.084476 0.419603472 0 0.907707511 0 0
-1.285218 2.405662 0.085237 0.195096815 0 0.980783989 0 0
-1.281391 2.047576 0.084476 0.419521073 0 0.907745597 0 0
-1.278147 2.408591 0.082309 0.755893613 0 0.654694468 0 0
-1.278147 2.045409 0.082309 0.755893613 0 0.654694468 0 0
-1.275979 2.411835 0.079064 0.976527914 -0.152304354 0.152304354 0 0
-1.275979 2.042164 0.079064 0.976527914 0.152304354 0.152304354 0 0
-0.228839 1.231676 0.338875 -0.198000392 0 -0.980201941 0 0
-0.232608 1.953861 0.339636 -0.420782227 0 -0.907161682 0 0
-0.228839 1.9531 0.338875 -0.198000392 0 -0.980201941 0 0
-0.232608 1.230914 0.339636 -0.420782227 0 -0.907161682 0 0
-1.285218 2.405662 0.085237 0.195096815 -0.980783989 0 0 0
-1.281391 2.406424 0.339636 0.419603472 -0.907707511 0 0 0
-1.285218 2.405662 0.338875 0.195096815 -0.980783989 0 0 0
-1.281391 2.406424 0.084476 0.419603472 -0.907707511 0 0 0
-1.278147 2.408591 0.341804 0.755893613 -0.654694468 0 0 0
-1.278147 2.408591 0.082309 0.755893613 -0.654694468 0 0 0
-0.23802 1.142611 0.079064 -0.976527914 -0.152304354 0.152304354 0 0
-0.238782 0.685914 0.075237 -0.990251187 0.0984951448 0.0984951448 0 0
-0.23802 0.689741 0.079064 -0.976527914 0.152304354 0.152304354 0 0
-0.238782 1.146438 0.075237 -0.990251187 -0.0984951448 0.0984951448 0 0
-1.285218 2.048337 0.338875 0.195096815 0.980783989 0 0 0
-1.281391 2.047576 0.084476 0.419603472 0.907707511 0 0 0
-1.285218 2.048337 0.085237 0.195096815 0.980783989 0 0 0
-1.281391 2.047576 0.339636 0.419603472 0.907707511 0 0 0
-1.278147 2.045409 0.082309 0.755893613 0.654694468 0 0 0
-1.278147 2.045408 0.341804 0.755893613 0.654694468 0 0 0
-1.275218 2.038337 0.075237 0.990251187 0.0984951448 0.0984951448 0 0
-0.228839 1.136438 0.085237 -0.198000392 0 0.980201941 0 0
-0.232608 0.695153 0.084476 -0.420782227 0 0.907161682 0 0
-0.228839 0.695914 0.085237 -0.198000392 0 0.980201941 0 0
-0.232608 1.137199 0.084476 -0.420782227 0 0.907161682 0 0
-0.247146 2.415663 0.348875 0 -1 0 0 0
-0.238782 2.415663 0.075237 0 -1 0 0 0
-0.238782 2.415663 0.348875 0 -1 0 0 0
-0.247147 2.415663 0.075237 0 -1 0 0 0
-0.247146 2.038338 0.424113 -1 0 0 0 0
-0.247146 2.415663 0.348875 -1 0 0 0 0
-0.247146 2.038338 0.348875 -1 0 0 0 0
-0.247146 2.415663 0.424113 -1 0 0 0 0
-0.247147 2.038338 0.075237 -1 0 0 0 0
-0.247147 2.415663 0 -1 0 0 0 0
-0.247147 2.038338 0 -1 0 0 0 0
-0.247147 2.415663 0.075237 -1 0 0 0 0
-0.247147 1.221676 0 -1 0 0 0 0
-0.247147 1.146438 0.075237 -1 0 0 0 0
-0.247147 1.221676 0.075237 -1 0 0 0 0
-0.247147 1.146438 0 -1 0 0 0 0
-0.247146 1.146438 0.348875 -1 0 0 0 0
-0.247146 0.685914 0.424113 -1 0 0 0 0
-0.247146 1.146438 0.424113 -1 0 0 0 0
-0.247146 0.685914 0.348875 -1 0 0 0 0
-0.247146 1.221676 0.424113 -1 0 0 0 0
-0.247146 1.9631 0.348875 -1 0 0 0 0
-0.247146 1.221676 0.348875 -1 0 0 0 0
-0.247146 1.9631 0.424113 -1 0 0 0 0
-0.247147 0.685914 0.075237 -1 0 0 0 0
-0.247147 0.685914 0 -1 0 0 0 0
-0.247146 1.221676 0.348875 0 0 -1 0 0
-0.238782 1.9631 0.348875 0 0 -1 0 0
-0.238782 1.221676 0.348875 0 0 -1 0 0
-0.247146 1.9631 0.348875 0 0 -1 0 0
-0.247147 1.9631 0 -1 0 0 0 0
-0.247147 1.9631 0.075237 -1 0 0 0 0
-0.247147 0.610676 0.075237 -1 0 0 0 0
-0.247147 0.610676 0 -1 0 0 0 0
-0.247146 0.610676 0.348875 -1 0 0 0 0
-0.247146 1.146438 0.348875 0 -1 0 0 0
-0.238782 1.146438 0.075237 0 -1 0 0 0
-0.238782 1.146438 0.348875 0 -1 0 0 0
-0.247147 1.146438 0.075237 0 -1 0 0 0
-0.247147 1.146438 0.075237 0 0 1 0 0
-0.238782 0.685914 0.075237 0 0 1 0 0
-0.238782 1.146438 0.075237 0 0 1 0 0
-0.247147 0.685914 0.075237 0 0 1 0 0
-0.247146 1.9631 0.348875 0 -1 0 0 0
-0.238782 1.9631 0.075237 0 -1 0 0 0
-0.238782 1.9631 0.348875 0 -1 0 0 0
-0.247147 1.9631 0.075237 0 -1 0 0 0
-0.238782 2.038338 0.075237 0 0 1 0 0
-0.247147 2.415663 0.075237 0 0 1 0 0
-0.247147 2.038338 0.075237 0 0 1 0 0
-0.238782 2.415663 0.075237 0 0 1 0 0
-0.228839 1.9531 0.085237 -0.989928693 0.100102902 -0.100102902 0 0
-0.238948 1.9031 0.288875 -0.989928693 0.100102902 0.100102902 0 0
-0.228839 1.9531 0.338875 -0.989928693 0.100102902 0.100102902 0 0
-0.238948 1.9031 0.135237 -0.989928693 0.100102902 -0.100102902 0 0
-0.228839 0.695914 0.085237 -0.989928693 -0.100102902 -0.100102902 0 0
-0.238948 1.086438 0.135237 -0.989928693 0.100102902 -0.100102902 0 0
-0.228839 1.136438 0.085237 -0.989928693 0.100102902 -0.100102902 0 0
-0.238948 0.745914 0.135237 -0.989928693 -0.100102902 -0.100102902 0 0
-0.228839 1.231676 0.338875 -0.989928693 -0.100102902 0.100102902 0 0
-0.238948 1.281676 0.135237 -0.989928693 -0.100102902 -0.100102902 0 0
-0.228839 1.231676 0.085237 -0.989928693 -0.100102902 -0.100102902 0 0
-0.238948 1.281676 0.288875 -0.989928693 -0.100102902 0.100102902 0 0
-0.228839 0.695914 0.338875 -0.989928693 -0.100102902 0.100102902 0 0
-0.238948 0.745914 0.288875 -0.989928693 -0.100102902 0.100102902 0 0
-0.228839 2.048338 0.338875 -0.989928693 -0.100102902 0.100102902 0 0
-0.238948 2.098338 0.135237 -0.989928693 -0.100102902 -0.100102902 0 0
-0.228839 2.048338 0.085237 -0.989928693 -0.100102902 -0.100102902 0 0
-0.238948 2.098338 0.288875 -0.989928693 -0.100102902 0.100102902 0 0
-0.228839 1.136438 0.338875 -0.989928693 0.100102902 0.100102902 0 0
-0.238948 1.086438 0.288875 -0.989928693 0.100102902 0.100102902 0 0
-0.228839 2.405663 0.085237 -0.989928693 0.100102902 -0.100102902 0 0
-0.238948 2.355663 0.288875 -0.989928693 0.100102902 0.100102902 0 0
-0.228839 2.405663 0.338875 -0.989928693 0.100102902 0.100102902 0 0
-0.238948 2.355663 0.135237 -0.989928693 0.100102902 -0.100102902 0 0
-0.238948 1.281676 0.288875 0 -1 0 0 0
-0.244003 1.281676 0.135237 0 -1 0 0 0
-0.238948 1.281676 0.135237 0 -1 0 0 0
-0.244003 1.281676 0.288875 0 -1 0 0 0
-0.238948 0.745914 0.135237 0 0 -1 0 0
-0.244003 1.086438 0.135237 0 0 -1 0 0
-0.238948 1.086438 0.135237 0 0 -1 0 0
-0.244003 0.745914 0.135237 0 0 -1 0 0
-0.238948 1.9031 0.135237 0 1 0 0 0
-0.244003 1.9031 0.288875 0 1 0 0 0
-0.238948 1.9031 0.288875 0 1 0 0 0
-0.244003 1.9031 0.135237 0 1 0 0 0
-0.244003 2.355663 0.135237 -1 0 0 0 0
-0.244003 2.098338 0.288875 -1 0 0 0 0
-0.244003 2.355663 0.288875 -1 0 0 0 0
-0.244003 2.098338 0.135237 -1 0 0 0 0
-0.244003 1.086438 0.288875 -1 0 0 0 0
-0.244003 0.745914 0.135237 -1 0 0 0 0
-0.244003 0.745914 0.288875 -1 0 0 0 0
-0.244003 1.086438 0.135237 -1 0 0 0 0
-0.244003 1.281676 0.288875 -1 0 0 0 0
-0.244003 1.9031 0.135237 -1 0 0 0 0
-0.244003 1.281676 0.135237 -1 0 0 0 0
-0.244003 1.9031 0.288875 -1 0 0 0 0
-0.238948 0.745914 0.288875 0 -1 0 0 0
-0.244003 0.745914 0.135237 0 -1 0 0 0
-0.238948 0.745914 0.135237 0 -1 0 0 0
-0.244003 0.745914 0.288875 0 -1 0 0 0
-0.238948 1.281676 0.135237 0 0 -1 0 0
-0.244003 1.9031 0.135237 0 0 -1 0 0
-0.238948 1.9031 0.135237 0 0 -1 0 0
-0.244003 1.281676 0.135237 0 0 -1 0 0
-0.238948 1.9031 0.288875 0 0 1 0 0
-0.244003 1.281676 0.288875 0 0 1 0 0
-0.238948 1.281676 0.288875 0 0 1 0 0
-0.244003 1.9031 0.288875 0 0 1 0 0
-0.238948 2.098338 0.288875 0 -1 0 0 0
-0.244003 2.098338 0.135237 0 -1 0 0 0
-0.238948 2.098338 0.135237 0 -1 0 0 0
-0.244003 2.098338 0.288875 0 -1 0 0 0
-0.238948 1.086438 0.288875 0 0 1 0 0
-0.244003 0.745914 0.288875 0 0 1 0 0
-0.238948 0.745914 0.288875 0 0 1 0 0
-0.244003 1.086438 0.288875 0 0 1 0 0
-0.238948 2.355663 0.135237 0 1 0 0 0
-0.244003 2.355663 0.288875 0 1 0 0 0
-0.238948 2.355663 0.288875 0 1 0 0 0
-0.244003 2.355663 0.135237 0 1 0 0 0
-0.238948 1.086438 0.135237 0 1 0 0 0
-0.244003 1.086438 0.288875 0 1 0 0 0
-0.238948 1.086438 0.288875 0 1 0 0 0
-0.244003 1.086438 0.135237 0 1 0 0 0
-0.238948 2.355663 0.288875 0 0 1 0 0
-0.244003 2.098338 0.288875 0 0 1 0 0
-0.238948 2.098338 0.288875 0 0 1 0 0
-0.244003 2.355663 0.288875 0 0 1 0 0
-0.238948 2.098338 0.135237 0 0 -1 0 0
-0.244003 2.355663 0.135237 0 0 -1 0 0
-0.238948 2.355663 0.135237 0 0 -1 0 0
-0.244003 2.098338 0.135237 0 0 -1 0 0
-0.232608 1.137199 0.339636 -0.420782227 -0.907161682 0 0 0
-0.235853 1.139367 0.082309 -0.755893613 -0.654694468 0 0 0
-0.232608 1.137199 0.084476 -0.420782227 -0.907161682 0 0 0
-0.235853 1.139367 0.341804 -0.755893613 -0.654694468 0 0 0
-0.23802 1.142611 0.345048 -0.976527914 -0.152304354 -0.152304354 0 0
-0.232608 0.695153 0.339636 -0.420782227 0 -0.907161682 0 0
-0.235853 1.139367 0.341804 -0.755893613 0 -0.654694468 0 0
-0.232608 1.137199 0.339636 -0.420782227 0 -0.907161682 0 0
-0.235853 0.692985 0.341804 -0.755893613 0 -0.654694468 0 0
-0.23802 0.689741 0.345048 -0.976527914 0.152304354 -0.152304354 0 0
-0.232608 0.695153 0.084476 -0.420782227 0.907161682 0 0 0
-0.235853 0.692985 0.341804 -0.755893613 0.654694468 0 0 0
-0.232608 0.695153 0.339636 -0.420782227 0.907161682 0 0 0
-0.235853 0.692985 0.082309 -0.755893613 0.654694468 0 0 0
-0.235853 0.692985 0.082309 -0.755893613 0 0.654694468 0 0
-0.235853 1.139367 0.082309 -0.755893613 0 0.654694468 0 0
-0.235853 1.956029 0.341804 -0.755893613 0 -0.654694468 0 0
-0.235853 1.228747 0.341804 -0.755893613 0 -0.654694468 0 0
-0.235853 1.228747 0.082309 -0.755893613 0 0.654694468 0 0
-0.235853 1.956029 0.082309 -0.755893613 0 0.654694468 0 0
-0.235853 1.228747 0.341804 -0.755893613 0.654694468 0 0 0
-0.235853 1.228747 0.082309 -0.755893613 0.654694468 0 0 0
-0.235853 1.956029 0.082309 -0.755893613 -0.654694468 0 0 0
-0.235853 1.956029 0.341804 -0.755893613 -0.654694468 0 0 0
-0.235853 2.045409 0.082309 -0.755893613 0 0.654694468 0 0
-0.235853 2.408592 0.082309 -0.755893613 0 0.654694468 0 0
-0.235853 2.408592 0.341804 -0.755893613 0 -0.654694468 0 0
-0.235853 2.045409 0.341804 -0.755893613 0 -0.654694468 0 0
-0.235853 2.408592 0.082309 -0.755893613 -0.654694468 0 0 0
-0.235853 2.408592 0.341804 -0.755893613 -0.654694468 0 0 0
-0.235853 2.045409 0.341804 -0.755893613 0.654694468 0 0 0
-0.235853 2.045409 0.082309 -0.755893613 0.654694468 0 0 0
-0.238782 0.685914 0.348875 -0.990251187 0.0984951448 -0.0984951448 0 0
-1.191615 2.4909 0.348875 1 0 0 0 0
-1.191615 2.499265 0.075237 1 0 0 0 0
-1.191615 2.499265 0.348875 1 0 0 0 0
-1.191615 2.4909 0.075237 1 0 0 0 0
-0.228839 0.695914 0.085237 -0.198000392 0.980201941 0 0 0
-0.228839 0.695914 0.338875 -0.198000392 0.980201941 0 0 0
-0.798562 2.4909 0.424113 0 -1 0 0 0
-1.191615 2.4909 0.348875 0 -1 0 0 0
-0.798562 2.4909 0.348875 0 -1 0 0 0
-1.191615 2.4909 0.424113 0 -1 0 0 0
-0.798562 2.4909 0.075237 0 -1 0 0 0
-1.191615 2.4909 0 0 -1 0 0 0
-0.798562 2.4909 0 0 -1 0 0 0
-1.191615 2.4909 0.075237 0 -1 0 0 0
-0.322384 2.4909 0 0 -1 0 0 0
-0.247147 2.4909 0.075237 0 -1 0 0 0
-0.322384 2.4909 0.075237 0 -1 0 0 0
-0.247147 2.4909 0 0 -1 0 0 0
-0.322384 2.4909 0.424113 0 -1 0 0 0
-0.723324 2.4909 0.348875 0 -1 0 0 0
-0.322384 2.4909 0.348875 0 -1 0 0 0
-0.723324 2.4909 0.424113 0 -1 0 0 0
-0.247146 2.4909 0.424113 0 -1 0 0 0
-0.247146 2.4909 0.348875 0 -1 0 0 0
-0.798562 2.4909 0.348875 0 0 -1 0 0
-1.191615 2.499265 0.348875 0 0 -1 0 0
-0.798562 2.499265 0.348875 0 0 -1 0 0
-1.191615 2.4909 0.348875 0 0 -1 0 0
-0.238782 1.146438 0.348875 -0.990251187 -0.0984951448 -0.0984951448 0 0
-0.723324 2.4909 0 0 -1 0 0 0
-0.723324 2.4909 0.075237 0 -1 0 0 0
-0.798562 2.499265 0.348875 -1 0 0 0 0
-0.798562 2.4909 0.075237 -1 0 0 0 0
-0.798562 2.4909 0.348875 -1 0 0 0 0
-0.798562 2.499265 0.075237 -1 0 0 0 0
-0.798562 2.499265 0.075237 0 0 1 0 0
-1.191615 2.4909 0.075237 0 0 1 0 0
-0.798562 2.4909 0.075237 0 0 1 0 0
-1.191615 2.499265 0.075237 0 0 1 0 0
-0.228839 0.695914 0.338875 -0.198000392 0 -0.980201941 0 0
-0.228839 1.136438 0.338875 -0.198000392 0 -0.980201941 0 0
-0.228839 1.136438 0.338875 -0.197904309 -0.980221345 0 0 0
-0.228839 1.136438 0.085237 -0.197904309 -0.980221345 0 0 0
-0.238782 2.038337 0.348875 0 1 0 0 0
-0.247147 2.038338 0.075237 0 1 0 0 0
-0.247146 2.038338 0.348875 0 1 0 0 0
-0.238782 2.038338 0.075237 0 1 0 0 0
-0.238782 1.221676 0.348875 0 1 0 0 0
-0.247147 1.221676 0.075237 0 1 0 0 0
-0.247146 1.221676 0.348875 0 1 0 0 0
-0.238782 1.221676 0.075237 0 1 0 0 0
-0.713324 2.509207 0.085238 -0.100102902 -0.989928693 -0.100102902 0 0
-0.663324 2.499098 0.288875 -0.100102902 -0.989928693 0.100102902 0 0
-0.713324 2.509207 0.338875 -0.100102902 -0.989928693 0.100102902 0 0
-0.663324 2.499098 0.135237 -0.100102902 -0.989928693 -0.100102902 0 0
-0.332384 2.509207 0.338875 0.100102902 -0.989928693 0.100102902 0 0
-0.382384 2.499098 0.135237 0.100102902 -0.989928693 -0.100102902 0 0
-0.332384 2.509207 0.085238 0.100102902 -0.989928693 -0.100102902 0 0
-0.382384 2.499098 0.288875 0.100102902 -0.989928693 0.100102902 0 0
-0.808562 2.509207 0.338875 0.100102902 -0.989928693 0.100102902 0 0
-0.858562 2.499098 0.135237 0.100102902 -0.989928693 -0.100102902 0 0
-0.808562 2.509207 0.085237 0.100102902 -0.989928693 -0.100102902 0 0
-0.858562 2.499098 0.288875 0.100102902 -0.989928693 0.100102902 0 0
-1.181615 2.509207 0.085237 -0.100102902 -0.989928693 -0.100102902 0 0
-1.131615 2.499098 0.288875 -0.100102902 -0.989928693 0.100102902 0 0
-1.181615 2.509207 0.338875 -0.100102902 -0.989928693 0.100102902 0 0
-1.131615 2.499098 0.135237 -0.100102902 -0.989928693 -0.100102902 0 0
-0.382384 2.499098 0.288875 1 0 0 0 0
-0.382384 2.494044 0.135237 1 0 0 0 0
-0.382384 2.499098 0.135237 1 0 0 0 0
-0.382384 2.494044 0.288875 1 0 0 0 0
-0.663324 2.499098 0.135237 -1 0 0 0 0
-0.663324 2.494044 0.288875 -1 0 0 0 0
-0.663324 2.499098 0.288875 -1 0 0 0 0
-0.663324 2.494044 0.135237 -1 0 0 0 0
-1.131615 2.494044 0.135237 0 -1 0 0 0
-0.858562 2.494044 0.288875 0 -1 0 0 0
-1.131615 2.494044 0.288875 0 -1 0 0 0
-0.858562 2.494044 0.135237 0 -1 0 0 0
-0.382384 2.494044 0.288875 0 -1 0 0 0
-0.663324 2.494044 0.135237 0 -1 0 0 0
-0.382384 2.494044 0.135237 0 -1 0 0 0
-0.663324 2.494044 0.288875 0 -1 0 0 0
-0.382384 2.499098 0.135237 0 0 -1 0 0
-0.663324 2.494044 0.135237 0 0 -1 0 0
-0.663324 2.499098 0.135237 0 0 -1 0 0
-0.382384 2.494044 0.135237 0 0 -1 0 0
-0.663324 2.499098 0.288875 0 0 1 0 0
-0.382384 2.494044 0.288875 0 0 1 0 0
-0.382384 2.499098 0.288875 0 0 1 0 0
-0.663324 2.494044 0.288875 0 0 1 0 0
-0.858562 2.499098 0.288875 1 0 0 0 0
-0.858562 2.494044 0.135237 1 0 0 0 0
-0.858562 2.499098 0.135237 1 0 0 0 0
-0.858562 2.494044 0.288875 1 0 0 0 0
-1.131615 2.499098 0.135237 -1 0 0 0 0
-1.131615 2.494044 0.288875 -1 0 0 0 0
-1.131615 2.499098 0.288875 -1 0 0 0 0
-1.131615 2.494044 0.135237 -1 0 0 0 0
-1.131615 2.499098 0.288875 0 0 1 0 0
-0.858562 2.494044 0.288875 0 0 1 0 0
-0.858562 2.499098 0.288875 0 0 1 0 0
-1.131615 2.494044 0.288875 0 0 1 0 0
-0.858562 2.499098 0.135237 0 0 -1 0 0
-1.131615 2.494044 0.135237 0 0 -1 0 0
-1.131615 2.499098 0.135237 0 0 -1 0 0
-0.858562 2.494044 0.135237 0 0 -1 0 0
-0.716253 2.502194 0.341804 0 -0.755943101 -0.654637325 0 0
-0.329455 2.502194 0.341804 0 -0.755943101 -0.654637325 0 0
-0.329455 2.502194 0.082309 0 -0.755893613 0.654694468 0 0
-0.716253 2.502194 0.082309 0 -0.755893613 0.654694468 0 0
-0.329455 2.502194 0.341804 -0.654694468 -0.755893613 0 0 0
-0.329455 2.502194 0.082309 -0.654694468 -0.755893613 0 0 0
-0.716253 2.502194 0.082309 0.654694468 -0.755893613 0 0 0
-0.716253 2.502194 0.341804 0.654694468 -0.755893613 0 0 0
-0.238782 0.685914 0.348875 0 1 0 0 0
-0.247147 0.685914 0.075237 0 1 0 0 0
-0.247146 0.685914 0.348875 0 1 0 0 0
-0.238782 0.685914 0.075237 0 1 0 0 0
-0.805633 2.502194 0.082309 0 -0.755893613 0.654694468 0 0
-1.184544 2.502194 0.082309 0 -0.755893613 0.654694468 0 0
-0.238782 1.221676 0.075237 0 0 1 0 0
-0.247147 1.9631 0.075237 0 0 1 0 0
-0.247147 1.221676 0.075237 0 0 1 0 0
-0.238782 1.9631 0.075237 0 0 1 0 0
-0.247146 2.4909 0.348875 -1 0 0 0 0
-0.247146 2.4909 0.424113 -1 0 0 0 0
-1.184544 2.502194 0.341804 0 -0.755893613 -0.654694468 0 0
-0.805633 2.502194 0.341804 0 -0.755893613 -0.654694468 0 0
-0.238782 1.146438 0.348875 0 0 -1 0 0
-0.247146 0.685914 0.348875 0 0 -1 0 0
-0.247146 1.146438 0.348875 0 0 -1 0 0
-0.238782 0.685914 0.348875 0 0 -1 0 0
-0.247146 2.038338 0.348875 0 0 -1 0 0
-0.238782 2.415663 0.348875 0 0 -1 0 0
-0.238782 2.038337 0.348875 0 0 -1 0 0
-0.247146 2.415663 0.348875 0 0 -1 0 0
-1.182376 2.505438 0.339636 0.907161682 -0.420782227 0 0 0
-1.184544 2.502194 0.082309 0.654694468 -0.755893613 0 0 0
-1.182376 2.505438 0.084476 0.907161682 -0.420782227 0 0 0
-1.184544 2.502194 0.341804 0.654694468 -0.755893613 0 0 0
-0.247147 2.4909 0.075237 -1 0 0 0 0
-0.805633 2.502194 0.341804 -0.654694468 -0.755893613 0 0 0
-0.805633 2.502194 0.082309 -0.654694468 -0.755893613 0 0 0
-0.247147 2.4909 0 -1 0 0 0 0
-0.754412 0.610676 0.554262 0 1 0 0 0
-0.265064 0.610676 0.348804 -0.0328014925 0.994645257 -0.0980044593 0 0
-0.754412 0.610676 0.348804 0 0.991447486 -0.130506251 0 0
-0.265064 0.610676 0.554262 0 1 0 0 0
-0.754412 0.575761 0.554262 0 -1 0 0 0
-1.259489 0.575761 0.348804 0.0328014925 -0.994645257 -0.0980044593 0 0
-0.754412 0.575761 0.348804 0 -0.991447486 -0.130506251 0 0
-1.259489 0.575761 0.554262 0 -1 0 0 0
-0.754412 0.600676 0.338804 0 0.130506251 -0.991447486 0 0
-1.259489 0.585761 0.338804 0 -0.130506251 -0.991447486 0 0
-1.259489 0.600676 0.338804 0 0.130506251 -0.991447486 0 0
-0.754412 0.585761 0.338804 0 -0.130506251 -0.991447486 0 0
-1.269489 0.575761 0.338804 0.0979054138 -0.994655001 -0.0328018138 0 0
-1.324585 0.575761 0.338804 0 -1 0 0 0
-1.324585 0.575761 0.554262 0 -1 0 0 0
-0.265064 0.600676 0.338804 -0.991462122 0.130395018 0 0 0
-0.265064 0.585761 0.008 -0.983058336 -0.129607691 -0.129607691 0 0
-0.265064 0.585761 0.338804 -0.991462122 -0.130395018 0 0 0
-0.265064 0.600676 0.008 -0.983058336 0.129607691 -0.129607691 0 0
-0.199969 0.585761 -0.002 0 -0.130395018 -0.991462122 0 0
-0.255064 0.600676 -0.002 -0.129607691 0.129607691 -0.983058336 0 0
-0.199969 0.600676 -0.002 0 0.130395018 -0.991462122 0 0
-0.255064 0.585761 -0.002 -0.129607691 -0.129607691 -0.983058336 0 0
-1.269489 0.575761 0.008 0.129607691 -0.983058336 -0.129607691 0 0
-1.324585 0.575761 0.008 0 -0.991462122 -0.130395018 0 0
-1.259489 0.585761 0.338804 0.991462122 -0.130395018 0 0 0
-1.259489 0.600676 0.008 0.983058336 0.129607691 -0.129607691 0 0
-1.259489 0.600676 0.338804 0.991462122 0.130395018 0 0 0
-1.259489 0.585761 0.008 0.983058336 -0.129607691 -0.129607691 0 0
-0.199969 0.610676 0.338804 0 1 0 0 0
-0.255064 0.610676 0.008 -0.129607691 0.983058336 -0.129607691 0 0
-0.255064 0.610676 0.338804 -0.0979054138 0.994655001 -0.0328018138 0 0
-0.199969 0.610676 0.008 0 0.991462122 -0.130395018 0 0
-0.255064 0.575761 0.338804 -0.0979054138 -0.994655001 -0.0328018138 0 0
-0.199969 0.575761 0.008 0 -0.991462122 -0.130395018 0 0
-0.199969 0.575761 0.338804 0 -1 0 0 0
-0.255064 0.575761 0.008 -0.129607691 -0.983058336 -0.129607691 0 0
-1.269489 0.610676 0.338804 0.0979054138 0.994655001 -0.0328018138 0 0
-1.324585 0.610676 0.008 0 0.991462122 -0.130395018 0 0
-1.324585 0.610676 0.338804 0 1 0 0 0
-1.269489 0.610676 0.008 0.129607691 0.983058336 -0.129607691 0 0
-0.199969 0.575761 0.491327 0 -1 0 0 0
-0.265064 0.575761 0.348804 -0.0328014925 -0.994645257 -0.0980044593 0 0
-0.265064 0.575761 0.554262 0 -1 0 0 0
-1.324585 0.610676 0.554262 0 1 0 0 0
-1.259489 0.610676 0.348804 0.0328014925 0.994645257 -0.0980044593 0 0
-1.259489 0.610676 0.554262 0 1 0 0 0
-1.324585 0.600676 -0.002 0 0.130395018 -0.991462122 0 0
-1.269489 0.585761 -0.002 0.129607691 -0.129607691 -0.983058336 0 0
-1.324585 0.585761 -0.002 0 -0.130395018 -0.991462122 0 0
-1.269489 0.600676 -0.002 0.129607691 0.129607691 -0.983058336 0 0
-0.263724 0.605676 0.338804 -0.638094248 0.430896115 -0.638094248 0 0
-0.265064 0.600676 0.338804 -0.694691118 0.186197619 -0.694791117 0 0
-0.265064 0.605676 0.340144 -0.638094248 0.430896115 -0.638094248 0 0
-0.265064 0.609337 0.343804 -0.577316933 0.577316933 -0.577416936 0 0
-0.260064 0.609337 0.338804 -0.577316933 0.577316933 -0.577416936 0 0
-0.260064 0.609337 0.338804 -0.25580665 0.954924824 -0.150603915 0 0
-0.265064 0.609337 0.343804 -0.110398708 0.910589342 -0.398295338 0 0
-1.264489 0.609337 0.338804 0.25580665 0.954924824 -0.150603915 0 0
-1.259489 0.609337 0.343804 0.110398708 0.910589342 -0.398295338 0 0
-1.259489 0.605676 0.340144 0.638066751 0.430977542 -0.638066751 0 0
-1.264489 0.609337 0.338804 0.5773836 0.5773836 -0.577283602 0 0
-1.259489 0.609337 0.343804 0.5773836 0.5773836 -0.577283602 0 0
-1.260829 0.605676 0.338804 0.638094248 0.430896115 -0.638094248 0 0
-1.259489 0.600676 0.338804 0.694791117 0.186197619 -0.694691118 0 0
-1.260829 0.580761 0.338804 0.638094248 -0.430896115 -0.638094248 0 0
-1.259489 0.585761 0.338804 0.694791117 -0.186197619 -0.694691118 0 0
-1.259489 0.580761 0.340144 0.638066751 -0.430977542 -0.638066751 0 0
-1.259489 0.577101 0.343804 0.5773836 -0.5773836 -0.577283602 0 0
-1.264489 0.577101 0.338804 0.5773836 -0.5773836 -0.577283602 0 0
-1.264489 0.577101 0.338804 0.25580665 -0.954924824 -0.150603915 0 0
-1.259489 0.577101 0.343804 0.150600062 -0.954900391 -0.255900105 0 0
-0.260064 0.577101 0.338804 -0.25580665 -0.954924824 -0.150603915 0 0
-0.265064 0.577101 0.343804 -0.150600062 -0.954900391 -0.255900105 0 0
-0.265064 0.580761 0.340144 -0.638094248 -0.430896115 -0.638094248 0 0
-0.260064 0.577101 0.338804 -0.5773836 -0.5773836 -0.577283602 0 0
-0.265064 0.577101 0.343804 -0.5773836 -0.5773836 -0.577283602 0 0
-0.263724 0.580761 0.338804 -0.638094248 -0.430896115 -0.638094248 0 0
-0.265064 0.585761 0.338804 -0.694691118 -0.186197619 -0.694791117 0 0
-0.259846 0.605458 0.000634 -0.447333565 0.447333565 -0.77445811 0 0
-0.255064 0.60567 -0.000664 -0.121598881 0.491595475 -0.862292063 0 0
-0.260058 0.600676 -0.000664 -0.491519637 0.121604858 -0.862334451 0 0
-0.259846 0.608043 0.003218 -0.447333565 0.77445811 -0.447333565 0 0
-0.255064 0.60934 0.003006 -0.121598881 0.862292063 -0.491595475 0 0
-0.260058 0.60934 0.008 -0.491595475 0.862292063 -0.121598881 0 0
-0.26243 0.605458 0.003218 -0.77445811 0.447333565 -0.447333565 0 0
-0.263728 0.60567 0.008 -0.862292063 0.491595475 -0.121598881 0 0
-0.263728 0.600676 0.003006 -0.862334451 0.121604858 -0.491519637 0 0
-1.262123 0.605458 0.003218 0.77445811 0.447333565 -0.447333565 0 0
-1.260825 0.60567 0.008 0.862292063 0.491595475 -0.121598881 0 0
-1.260825 0.600676 0.003007 0.862334451 0.121604858 -0.491519637 0 0
-1.264707 0.608043 0.003218 0.447333565 0.77445811 -0.447333565 0 0
-1.264496 0.60934 0.008 0.491595475 0.862292063 -0.121598881 0 0
-1.269489 0.60934 0.003007 0.121598881 0.862292063 -0.491595475 0 0
-1.264707 0.605458 0.000634 0.447333565 0.447333565 -0.77445811 0 0
-1.269489 0.60567 -0.000664 0.121598881 0.491595475 -0.862292063 0 0
-1.264496 0.600676 -0.000664 0.491519637 0.121604858 -0.862334451 0 0
-1.264707 0.580979 0.000634 0.447333565 -0.447333565 -0.77445811 0 0
-1.269489 0.580768 -0.000664 0.121598881 -0.491595475 -0.862292063 0 0
-1.264496 0.585761 -0.000664 0.491519637 -0.121604858 -0.862334451 0 0
-1.264707 0.578395 0.003218 0.447333565 -0.77445811 -0.447333565 0 0
-1.269489 0.577097 0.003007 0.121598881 -0.862292063 -0.491595475 0 0
-1.264496 0.577097 0.008 0.491595475 -0.862292063 -0.121598881 0 0
-1.262123 0.580979 0.003218 0.77445811 -0.447333565 -0.447333565 0 0
-1.260825 0.580768 0.008 0.862292063 -0.491595475 -0.121598881 0 0
-1.260825 0.585761 0.003007 0.862334451 -0.121604858 -0.491519637 0 0
-0.26243 0.580979 0.003218 -0.77445811 -0.447333565 -0.447333565 0 0
-0.263728 0.580768 0.008 -0.862292063 -0.491595475 -0.121598881 0 0
-0.263728 0.585761 0.003006 -0.862334451 -0.121604858 -0.491519637 0 0
-0.259846 0.578395 0.003218 -0.447333565 -0.77445811 -0.447333565 0 0
-0.260058 0.577097 0.008 -0.491595475 -0.862292063 -0.121598881 0 0
-0.255064 0.577097 0.003006 -0.121598881 -0.862292063 -0.491595475 0 0
-0.259846 0.580979 0.000634 -0.447333565 -0.447333565 -0.77445811 0 0
-0.255064 0.580768 -0.000664 -0.121598881 -0.491595475 -0.862292063 0 0
-0.260058 0.585761 -0.000664 -0.491519637 -0.121604858 -0.862334451 0 0
-0.265064 0.605676 0.340144 0 0.500011 -0.866019053 0 0
-0.265064 0.600676 0.338804 0 0.130506251 -0.991447486 0 0
-0.754412 0.605676 0.340144 0 0.500011 -0.866019053 0 0
-0.754412 0.609337 0.343804 0 0.866019053 -0.500011 0 0
-1.259489 0.580761 0.340144 0 -0.500011 -0.866019053 0 0
-0.754412 0.580761 0.340144 0 -0.500011 -0.866019053 0 0
-1.259489 0.577101 0.343804 0 -0.707106781 -0.707106781 0 0
-0.754412 0.577101 0.343804 0 -0.707106781 -0.707106781 0 0
-0.754412 0.577101 0.343804 0 -0.965928858 -0.258807732 0 0
-1.324585 0.609337 0.003 0 0.96598553 -0.258596126 0 0
-1.324585 0.605676 -0.00066 0 0.707106781 -0.707106781 0 0
-1.324585 0.609337 0.003 0 0.707106781 -0.707106781 0 0
-1.324585 0.605676 -0.00066 0 0.258596126 -0.96598553 0 0
-0.199969 0.577101 0.003 0 -0.96598553 -0.258596126 0 0
-0.199969 0.580761 -0.00066 0 -0.707106781 -0.707106781 0 0
-0.199969 0.577101 0.003 0 -0.707106781 -0.707106781 0 0
-0.199969 0.580761 -0.00066 0 -0.258596126 -0.96598553 0 0
-0.199969 0.605676 -0.00066 0 0.258596126 -0.96598553 0 0
-0.199969 0.609337 0.003 0 0.707106781 -0.707106781 0 0
-0.199969 0.605676 -0.00066 0 0.707106781 -0.707106781 0 0
-0.199969 0.609337 0.003 0 0.96598553 -0.258596126 0 0
-1.324585 0.580761 -0.00066 0 -0.258596126 -0.96598553 0 0
-1.324585 0.577101 0.003 0 -0.707106781 -0.707106781 0 0
-1.324585 0.580761 -0.00066 0 -0.707106781 -0.707106781 0 0
-1.324585 0.577101 0.003 0 -0.96598553 -0.258596126 0 0
-1.260829 0.580761 0.338804 0.707106781 -0.707106781 0 0 0
-1.264489 0.577101 0.338804 0.707106781 -0.707106781 0 0 0
-1.260829 0.580761 0.338804 0.96598553 -0.258596126 0 0 0
-1.264489 0.609337 0.338804 0.707106781 0.707106781 0 0 0
-1.260829 0.605676 0.338804 0.707106781 0.707106781 0 0 0
-1.260829 0.605676 0.338804 0.96598553 0.258596126 0 0 0
-0.263724 0.605676 0.338804 -0.707106781 0.707106781 0 0 0
-0.260064 0.609337 0.338804 -0.707106781 0.707106781 0 0 0
-0.263724 0.605676 0.338804 -0.96598553 0.258596126 0 0 0
-0.260064 0.577101 0.338804 -0.707106781 -0.707106781 0 0 0
-0.263724 0.580761 0.338804 -0.707106781 -0.707106781 0 0 0
-0.263724 0.580761 0.338804 -0.965960546 -0.258689434 0 0 0
-0.199969 0.610676 0.554262 0 1 0 0 0
-0.265064 0.585761 0.338804 0 -0.130506251 -0.991447486 0 0
-1.259489 0.605676 0.340144 0 0.500011 -0.866019053 0 0
-0.265064 0.580761 0.340144 0 -0.500011 -0.866019053 0 0
-0.265064 0.577101 0.343804 0 -0.707106781 -0.707106781 0 0
-1.266853 2.415662 0.075237 0 -1 0 0 0
-1.275218 2.415662 0.348875 0 -1 0 0 0
-1.275218 2.415662 0.075237 0 -1 0 0 0
-1.266853 2.415662 0.348875 0 -1 0 0 0
-1.266853 2.038337 0.075237 0 0 1 0 0
-1.275218 2.415662 0.075237 0 0 1 0 0
-1.275218 2.038337 0.075237 0 0 1 0 0
-1.266853 2.415662 0.075237 0 0 1 0 0
-1.275218 1.146438 0.075237 0 0 1 0 0
-1.266853 0.685914 0.075237 0 0 1 0 0
-1.266853 1.146438 0.075237 0 0 1 0 0
-1.275218 0.685914 0.075237 0 0 1 0 0
-1.266853 1.221676 0.075237 0 0 1 0 0
-1.275218 1.9631 0.075237 0 0 1 0 0
-1.275218 1.221676 0.075237 0 0 1 0 0
-1.266853 1.9631 0.075237 0 0 1 0 0
-1.275218 1.221676 0.348875 0 0 -1 0 0
-1.266853 1.9631 0.348875 0 0 -1 0 0
-1.266853 1.221676 0.348875 0 0 -1 0 0
-1.275218 1.9631 0.348875 0 0 -1 0 0
-1.275218 0.685914 0.075237 0 1 0 0 0
-1.266853 0.685914 0.348875 0 1 0 0 0
-1.266853 0.685914 0.075237 0 1 0 0 0
-1.275218 0.685914 0.348875 0 1 0 0 0
-1.266853 1.146438 0.075237 0 -1 0 0 0
-1.275218 1.146438 0.348875 0 -1 0 0 0
-1.275218 1.146438 0.075237 0 -1 0 0 0
-1.266853 1.146438 0.348875 0 -1 0 0 0
-1.275218 1.221676 0.075237 0 1 0 0 0
-1.266853 1.221676 0.348875 0 1 0 0 0
-1.266853 1.221676 0.075237 0 1 0 0 0
-1.275218 1.221676 0.348875 0 1 0 0 0
-1.266853 1.146438 0.348875 0 0 -1 0 0
-1.275218 0.685914 0.348875 0 0 -1 0 0
-1.275218 1.146438 0.348875 0 0 -1 0 0
-1.266853 0.685914 0.348875 0 0 -1 0 0
-1.266853 1.9631 0.075237 0 -1 0 0 0
-1.275218 1.9631 0.348875 0 -1 0 0 0
-1.275218 1.9631 0.075237 0 -1 0 0 0
-1.266853 1.9631 0.348875 0 -1 0 0 0
-1.275218 2.038337 0.075237 0 1 0 0 0
-1.266853 2.038337 0.348875 0 1 0 0 0
-1.266853 2.038337 0.075237 0 1 0 0 0
-1.275218 2.038337 0.348875 0 1 0 0 0
-1.275218 2.038337 0.348875 0 0 -1 0 0
-1.266853 2.415662 0.348875 0 0 -1 0 0
-1.266853 2.038337 0.348875 0 0 -1 0 0
-1.275218 2.415662 0.348875 0 0 -1 0 0
-1.285218 1.9531 0.338875 0.989827339 0.100602779 0.100602779 0 0
-1.275051 1.9031 0.135237 0.989827339 0.100602779 -0.100602779 0 0
-1.285218 1.9531 0.085237 0.989827339 0.100602779 -0.100602779 0 0
-1.275051 1.9031 0.288875 0.989827339 0.100602779 0.100602779 0 0
-1.285218 0.695914 0.338875 0.989827339 -0.100602779 0.100602779 0 0
-1.275051 1.086438 0.288875 0.989827339 0.100602779 0.100602779 0 0
-1.285218 1.136438 0.338875 0.989827339 0.100602779 0.100602779 0 0
-1.275051 0.745914 0.288875 0.989827339 -0.100602779 0.100602779 0 0
-1.285218 1.231676 0.085237 0.989827339 -0.100602779 -0.100602779 0 0
-1.275051 1.281676 0.288875 0.989827339 -0.100602779 0.100602779 0 0
-1.285218 1.231676 0.338875 0.989827339 -0.100602779 0.100602779 0 0
-1.275051 1.281676 0.135237 0.989827339 -0.100602779 -0.100602779 0 0
-1.285218 0.695914 0.085237 0.989827339 -0.100602779 -0.100602779 0 0
-1.275051 0.745914 0.135237 0.989827339 -0.100602779 -0.100602779 0 0
-1.285218 2.048337 0.085237 0.989827339 -0.100602779 -0.100602779 0 0
-1.275051 2.098337 0.288875 0.989827339 -0.100602779 0.100602779 0 0
-1.285218 2.048337 0.338875 0.989827339 -0.100602779 0.100602779 0 0
-1.275051 2.098337 0.135237 0.989827339 -0.100602779 -0.100602779 0 0
-1.285218 1.136438 0.085237 0.989827339 0.100602779 -0.100602779 0 0
-1.275051 1.086438 0.135237 0.989827339 0.100602779 -0.100602779 0 0
-1.285218 2.405662 0.338875 0.989827339 0.100602779 0.100602779 0 0
-1.275051 2.355662 0.135237 0.989827339 0.100602779 -0.100602779 0 0
-1.285218 2.405662 0.085237 0.989827339 0.100602779 -0.100602779 0 0
-1.275051 2.355662 0.288875 0.989827339 0.100602779 0.100602779 0 0
-1.275218 0.685914 0.075237 0.990251187 0.0984951448 0.0984951448 0 0
-1.275218 1.9631 0.075237 0.990251187 -0.0984951448 0.0984951448 0 0
-1.275218 1.221676 0.075237 0.990251187 0.0984951448 0.0984951448 0 0
-1.275218 1.221676 0.348875 0.990249246 0.0985048988 -0.0985048988 0 0
-1.275218 1.9631 0.348875 0.990251187 -0.0984951448 -0.0984951448 0 0
-1.275218 2.415662 0.075237 0.990251187 -0.0984951448 0.0984951448 0 0
-1.266853 2.4909 0 0 -1 0 0 0
-1.266853 2.4909 0.075237 0 -1 0 0 0
-1.266853 2.4909 0.348875 0 -1 0 0 0
-1.266853 2.4909 0.424113 0 -1 0 0 0
-1.181615 2.509207 0.338875 0.980201941 -0.198000392 0 0 0
-1.181615 2.509207 0.085237 0.980201941 -0.198000392 0 0 0
-0.247147 0.610676 0.424113 -1 0 0 0 0
3 0 1 2
3 0 3 1
3 4 1 5
3 4 2 1
3 6 5 7
3 6 8 5
3 9 3 10
3 9 1 3
3 11 12 13
3 11 14 12
3 15 16 17
3 15 18 16
3 19 20 21
3 19 22 20
3 21 17 19
3 21 15 17
3 14 23 12
3 14 24 23
3 4 8 25
3 4 5 8
3 13 26 11
3 13 27 26
3 24 28 23
3 24 29 28
3 18 30 16
3 18 31 30
3 18 28 31
3 18 23 28
3 21 12 15
3 21 13 12
3 10 27 9
3 10 26 27
3 7 22 6
3 7 20 22
3 7 27 20
3 7 9 27
3 32 33 34
3 32 35 33
3 36 37 38
3 36 39 37
3 40 41 42
3 40 43 41
3 44 45 46
3 44 47 45
3 42 35 32
3 42 41 35
3 48 49 50
3 48 51 49
3 52 53 54
3 52 55 53
3 56 57 58
3 56 59 57
3 60 61 62
3 60 63 61
3 64 65 66
3 64 67 65
3 54 63 60
3 54 53 63
3 68 69 70
3 68 71 69
3 62 55 52
3 62 61 55
3 72 73 74
3 72 75 73
3 76 77 78
3 76 79 77
3 80 81 82
3 80 83 81
3 84 85 86
3 84 87 85
3 88 89 90
3 88 91 89
3 92 93 94
3 92 95 93
3 96 97 98
3 96 99 97
3 100 101 102
3 100 103 101
3 104 105 106
3 104 107 105
3 94 103 100
3 94 93 103
3 108 109 110
3 108 111 109
3 102 95 92
3 102 101 95
3 112 113 114
3 112 115 113
3 116 117 118
3 116 119 117
3 120 121 122
3 120 123 121
3 124 125 126
3 124 127 125
3 128 129 130
3 128 131 129
3 132 133 134
3 132 135 133
3 136 137 138
3 136 139 137
3 140 141 142
3 140 143 141
3 144 145 146
3 144 147 145
3 148 149 150
3 148 151 149
3 152 153 154
3 152 155 153
3 156 157 158
3 156 159 157
3 160 161 162
3 160 163 161
3 164 165 166
3 164 167 165
3 168 169 170
3 168 171 169
3 172 173 174
3 172 175 173
3 175 176 173
3 175 177 176
3 177 178 176
3 177 179 178
3 179 180 178
3 179 181 180
3 182 183 184
3 182 185 183
3 185 186 183
3 185 187 186
3 187 179 186
3 187 188 179
3 189 190 191
3 189 192 190
3 193 194 195
3 193 196 194
3 196 197 194
3 196 198 197
3 198 188 197
3 198 199 188
3 200 201 202
3 200 203 201
3 204 205 206
3 204 207 205
3 207 208 205
3 207 209 208
3 209 199 208
3 209 178 199
3 178 210 199
3 178 180 210
3 211 212 213
3 211 214 212
3 215 216 217
3 215 218 216
3 218 219 216
3 218 220 219
3 220 221 219
3 220 222 221
3 223 224 225
3 223 226 224
3 227 228 229
3 227 230 228
3 230 231 228
3 230 232 231
3 232 233 231
3 232 234 233
3 235 236 237
3 235 238 236
3 239 240 241
3 239 242 240
3 242 243 240
3 242 244 243
3 244 222 243
3 244 233 222
3 202 226 223
3 202 201 226
3 245 246 247
3 245 248 246
3 248 249 246
3 248 250 249
3 250 234 249
3 250 221 234
3 251 252 253
3 251 254 252
3 225 203 200
3 225 224 203
3 255 256 257
3 255 258 256
3 258 259 256
3 258 260 259
3 260 261 259
3 260 262 261
3 262 263 261
3 262 264 263
3 265 266 267
3 265 268 266
3 268 269 266
3 268 270 269
3 270 271 269
3 270 272 271
3 273 274 275
3 273 276 274
3 277 278 279
3 277 280 278
3 280 281 278
3 280 282 281
3 282 262 281
3 282 271 262
3 283 284 285
3 283 286 284
3 287 288 289
3 287 290 288
3 290 291 288
3 290 292 291
3 292 272 291
3 292 261 272
3 261 293 272
3 261 263 293
3 294 295 296
3 294 297 295
3 298 299 300
3 298 301 299
3 302 303 304
3 302 305 303
3 306 307 308
3 306 309 307
3 310 311 312
3 310 313 311
3 314 315 316
3 314 317 315
3 318 319 320
3 318 321 319
3 320 316 318
3 320 314 316
3 313 322 311
3 313 323 322
3 324 325 326
3 324 327 325
3 312 328 310
3 312 329 328
3 323 330 322
3 323 331 330
3 317 330 332
3 317 322 330
3 333 334 335
3 333 336 334
3 320 311 314
3 320 312 311
3 337 338 339
3 337 340 338
3 308 329 306
3 308 328 329
3 341 342 343
3 341 344 342
3 304 321 302
3 304 319 321
3 304 329 319
3 304 306 329
3 345 346 347
3 345 348 346
3 349 350 351
3 349 352 350
3 353 354 355
3 353 356 354
3 357 358 359
3 357 360 358
3 361 356 353
3 361 362 356
3 359 352 349
3 359 358 352
3 351 360 357
3 351 350 360
3 363 364 365
3 363 366 364
3 367 362 361
3 367 368 362
3 369 370 371
3 369 372 370
3 355 368 367
3 355 354 368
3 371 366 363
3 371 370 366
3 365 372 369
3 365 364 372
3 373 374 375
3 373 376 374
3 377 378 379
3 377 380 378
3 381 382 383
3 381 384 382
3 385 386 387
3 385 388 386
3 389 390 391
3 389 392 390
3 393 394 395
3 393 396 394
3 397 398 399
3 397 400 398
3 401 402 403
3 401 404 402
3 405 406 407
3 405 408 406
3 409 410 411
3 409 412 410
3 413 414 415
3 413 416 414
3 417 418 419
3 417 420 418
3 421 422 423
3 421 424 422
3 425 426 427
3 425 428 426
3 429 430 431
3 429 432 430
3 433 434 435
3 433 436 434
3 436 283 434
3 436 437 283
3 438 439 440
3 438 441 439
3 441 437 439
3 441 442 437
3 443 444 445
3 443 446 444
3 446 442 444
3 446 285 442
3 297 447 295
3 297 448 447
3 448 285 447
3 448 283 285
3 276 449 274
3 276 450 449
3 450 200 449
3 450 225 200
3 254 451 252
3 254 452 451
3 452 223 451
3 452 202 223
3 238 453 236
3 238 454 453
3 454 225 453
3 454 223 225
3 214 455 212
3 214 456 455
3 456 202 455
3 456 200 202
3 192 457 190
3 192 458 457
3 458 92 457
3 458 102 92
3 111 459 109
3 111 460 459
3 460 100 459
3 460 94 100
3 107 461 105
3 107 462 461
3 462 102 461
3 462 100 102
3 99 463 97
3 99 464 463
3 464 94 463
3 464 92 94
3 285 465 442
3 285 284 465
3 466 467 468
3 466 469 467
3 470 445 471
3 470 443 445
3 472 473 474
3 472 475 473
3 476 477 478
3 476 479 477
3 480 481 482
3 480 483 481
3 484 485 486
3 484 487 485
3 486 488 484
3 486 489 488
3 490 491 492
3 490 493 491
3 442 494 437
3 442 465 494
3 482 495 480
3 482 496 495
3 486 481 489
3 486 482 481
3 478 496 476
3 478 495 496
3 474 487 472
3 474 485 487
3 474 496 485
3 474 476 496
3 497 498 499
3 497 500 498
3 501 502 503
3 501 504 502
3 505 440 506
3 505 438 440
3 437 286 283
3 437 494 286
3 507 435 508
3 507 433 435
3 509 510 511
3 509 512 510
3 513 514 515
3 513 516 514
3 517 518 519
3 517 520 518
3 521 522 523
3 521 524 522
3 523 520 517
3 523 522 520
3 519 524 521
3 519 518 524
3 525 526 527
3 525 528 526
3 529 530 531
3 529 532 530
3 531 528 525
3 531 530 528
3 527 532 529
3 527 526 532
3 533 534 535
3 533 536 534
3 537 538 539
3 537 540 538
3 541 542 543
3 541 544 542
3 545 546 547
3 545 548 546
3 549 550 551
3 549 552 550
3 553 554 555
3 553 556 554
3 557 558 559
3 557 560 558
3 561 562 563
3 561 564 562
3 565 566 567
3 565 568 566
3 569 570 571
3 569 572 570
3 75 573 73
3 75 574 573
3 574 52 573
3 574 62 52
3 71 575 69
3 71 576 575
3 576 60 575
3 576 54 60
3 67 577 65
3 67 578 577
3 578 62 577
3 578 60 62
3 59 579 57
3 59 580 579
3 580 54 579
3 580 52 54
3 581 582 583
3 581 584 582
3 47 585 45
3 47 586 585
3 586 42 585
3 586 40 42
3 587 588 589
3 587 590 588
3 591 305 592
3 591 303 305
3 39 593 37
3 39 594 593
3 594 34 593
3 594 32 34
3 595 596 597
3 595 598 596
3 599 600 601
3 599 602 600
3 603 604 605
3 603 606 604
3 606 40 604
3 606 34 40
3 591 309 303
3 591 607 309
3 51 608 49
3 51 609 608
3 609 32 608
3 609 42 32
3 610 309 607
3 610 307 309
3 611 612 613
3 611 614 612
3 615 616 617
3 615 618 616
3 619 620 621
3 619 622 620
3 618 623 616
3 618 624 623
3 618 625 624
3 626 627 628
3 626 629 627
3 630 631 632
3 630 633 631
3 624 634 623
3 624 635 634
3 636 637 638
3 636 639 637
3 640 641 642
3 640 643 641
3 644 645 646
3 644 647 645
3 648 649 650
3 648 651 649
3 652 644 646
3 652 653 644
3 652 654 653
3 655 648 650
3 655 656 648
3 655 657 656
3 658 659 660
3 658 661 659
3 662 663 664
3 665 662 664
3 665 666 662
3 612 667 668
3 612 642 667
3 669 656 670
3 669 648 656
3 671 672 673
3 671 674 672
3 675 674 671
3 676 677 678
3 679 676 678
3 679 680 676
3 616 681 682
3 616 623 681
3 683 653 684
3 683 644 653
3 685 686 687
3 685 688 686
3 689 688 685
3 631 690 691
3 631 692 690
3 691 693 694
3 691 690 693
3 641 693 695
3 641 694 693
3 695 696 697
3 695 693 696
3 629 696 698
3 629 697 696
3 698 690 692
3 698 696 690
3 690 696 693
3 637 699 700
3 637 701 699
3 700 702 703
3 700 699 702
3 651 702 704
3 651 703 702
3 704 705 706
3 704 702 705
3 661 705 707
3 661 706 705
3 707 699 701
3 707 705 699
3 699 705 702
3 659 708 709
3 659 710 708
3 709 711 712
3 709 708 711
3 634 711 713
3 634 712 711
3 713 714 715
3 713 711 714
3 639 714 716
3 639 715 714
3 716 708 710
3 716 714 708
3 708 714 711
3 627 717 718
3 627 719 717
3 718 720 721
3 718 717 720
3 647 720 722
3 647 721 720
3 722 723 724
3 722 720 723
3 633 723 725
3 633 724 723
3 725 717 719
3 725 723 717
3 717 723 720
3 619 726 727
3 619 728 726
3 728 668 726
3 728 729 668
3 729 612 668
3 729 613 612
3 622 730 620
3 622 731 730
3 731 732 730
3 731 733 732
3 734 616 682
3 734 617 616
3 651 735 649
3 651 704 735
3 704 736 737
3 704 706 736
3 706 658 738
3 706 661 658
3 647 739 645
3 647 722 739
3 722 740 741
3 722 724 740
3 724 630 742
3 724 633 630
3 631 743 632
3 631 691 743
3 691 744 745
3 691 694 744
3 694 643 746
3 694 641 643
3 659 747 660
3 659 709 747
3 709 748 749
3 709 712 748
3 712 635 750
3 712 634 635
3 629 719 627
3 629 698 719
3 698 725 719
3 698 692 725
3 692 633 725
3 692 631 633
3 661 710 659
3 661 707 710
3 707 716 710
3 707 701 716
3 701 639 716
3 701 637 639
3 634 681 623
3 634 713 681
3 713 751 752
3 713 715 751
3 715 636 753
3 715 639 636
3 648 703 651
3 648 669 703
3 754 700 703
3 754 755 700
3 756 637 700
3 756 638 637
3 641 667 642
3 641 695 667
3 695 757 758
3 695 697 757
3 697 626 759
3 697 629 626
3 644 721 647
3 644 683 721
3 760 718 721
3 760 761 718
3 762 627 718
3 762 628 627
3 614 642 612
3 614 640 642
3 614 763 640
3 657 613 656
3 657 611 613
3 654 617 653
3 654 615 617
3 727 622 619
3 727 764 622
3 621 728 619
3 621 765 728
3 765 729 728
3 765 670 729
3 670 613 729
3 670 656 613
3 764 731 622
3 764 766 731
3 766 733 731
3 766 767 733
3 684 617 734
3 684 653 617
3 768 769 770
3 768 771 769
3 772 773 774
3 772 775 773
3 776 777 778
3 776 779 777
3 780 781 782
3 780 783 781
3 784 785 786
3 784 787 785
3 788 789 790
3 788 791 789
3 792 793 794
3 792 795 793
3 796 797 798
3 796 799 797
3 800 801 802
3 800 803 801
3 804 805 806
3 804 807 805
3 808 809 810
3 808 811 809
3 812 813 814
3 812 815 813
3 816 817 818
3 816 819 817
3 820 821 822
3 820 823 821
3 824 825 826
3 824 827 825
3 828 823 820
3 828 829 823
3 826 819 816
3 826 825 819
3 818 827 824
3 818 817 827
3 830 831 832
3 830 833 831
3 834 829 828
3 834 835 829
3 836 837 838
3 836 839 837
3 822 835 834
3 822 821 835
3 838 833 830
3 838 837 833
3 832 839 836
3 832 831 839
3 188 181 179
3 188 840 181
3 199 840 188
3 199 210 840
3 222 841 221
3 222 842 841
3 234 843 233
3 234 844 843
3 233 842 222
3 233 843 842
3 221 844 234
3 221 841 844
3 272 845 271
3 272 293 845
3 271 264 262
3 271 845 264
3 846 479 847
3 846 477 479
3 848 479 473
3 848 847 479
3 848 475 849
3 848 473 475
3 850 605 851
3 850 603 605
3 34 43 40
3 34 33 43
3 317 852 315
3 317 332 852
