ply
format ascii 1.0
element vertex 340
property float x
property float y
property float z
property float nx
property float ny
property float nz
property float u
property float v
element face 672
property list uchar int vertex_indices
end_header
-0.517242 0.759179 0.399116 0.292923384 -0.886370757 0.358528621 0 0
-0.530095 0.759179 0.399116 -0.292907919 -0.886423965 0.35840969 0 0
-0.523668 0.757974 0.398676 0 -0.941429279 0.337210487 0 0
-0.52984 0.759179 0.399116 0 -0.34330832 0.939222762 0 0
-0.517497 0.759179 0.399116 0 -0.34330832 0.939222762 0 0
-0.473285 0.718009 0.440624 0.706801612 -0.00380000866 -0.707401613 0 0
-0.473285 0.715878 0.443386 0.577308377 -0.573508322 0.581208433 0 0
-0.473285 0.715859 0.440638 0.577308377 -0.581208433 -0.573508322 0 0
-0.473285 0.718027 0.443372 0.707401613 0.00380000866 0.706801612 0 0
-0.538568 0.767747 0.402249 0 -0.39458296 0.91886032 0 0
-0.535544 0.762611 0.400371 -0.538310241 -0.730913906 0.419507981 0 0
-0.535072 0.762611 0.400371 0 -0.343396532 0.939190514 0 0
-0.539185 0.767747 0.402249 -0.704517085 -0.528712821 0.47341148 0 0
-0.517242 0.760301 0.396608 0.280997947 -0.389997151 -0.876893594 0 0
-0.523668 0.759088 0.396164 0 -0.442206534 -0.896913252 0 0
-0.501955 0.759176 0.440397 0.465101753 0.444101674 -0.765802887 0 0
-0.496506 0.75549 0.44317 0.255911918 0.610128414 0.749834921 0 0
-0.496506 0.755472 0.440422 0.254812933 0.597330318 -0.760438597 0 0
-0.501955 0.759275 0.443143 0.478416381 0.46641597 0.744025476 0 0
-0.511793 0.762611 0.400371 0.538420608 -0.730827973 0.419516057 0 0
-0.508152 0.768921 0.399765 0.679930849 0.030701393 -0.73263324 0 0
-0.508152 0.767747 0.402249 0.704567446 -0.528675573 0.473378128 0 0
-0.511793 0.763754 0.397872 0.519819987 -0.242509325 -0.819131496 0 0
-0.506874 0.771456 0.43868 0.755534298 -0.253611513 -0.60402742 0 0
-0.505584 0.765114 0.443052 0.592612193 0.311506409 0.742815284 0 0
-0.505584 0.764766 0.440326 0.634294656 0.168998576 -0.754393644 0 0
-0.506874 0.772574 0.44119 0.623424959 0.42011682 0.659426401 0 0
-0.474563 0.743717 0.4405 0.69010688 0.278902781 -0.667806658 0 0
-0.473285 0.737249 0.443291 0.724037705 0.0744038747 0.685735711 0 0
-0.473285 0.73723 0.440543 0.724505343 0.0670004941 -0.686005059 0 0
-0.474563 0.743736 0.443248 0.690066995 0.287786236 0.664068238 0 0
-0.478204 0.749217 0.440464 0.529910741 0.520910559 -0.669213565 0 0
-0.478204 0.749235 0.443211 0.529902414 0.529802413 0.662203016 0 0
-0.490079 0.754182 0.440431 0.197808633 0.972842456 0.120205246 0 0
-0.483652 0.75291 0.443187 0.287707522 0.693118122 0.66091728 0 0
-0.483652 0.752891 0.440439 0.287708951 0.68432129 -0.670020845 0 0
-0.490079 0.7542 0.443178 0.0492003454 0.248401744 0.967406791 0 0
-0.490079 0.754182 0.440431 0.0929031797 0.46251583 0.881730178 0 0
-0.490079 0.7542 0.443178 0.0839983012 0.418591534 0.904281711 0 0
-0.506874 0.775254 0.402938 0.70311787 0.331608428 -0.629015987 0 0
-0.506874 0.773702 0.405205 0.74516807 -0.417338123 0.520147515 0 0
-0.506874 0.780551 0.429816 0.767267994 -0.547348505 -0.334229619 0 0
-0.506874 0.782995 0.431071 0.655302602 0.644102557 0.394601567 0 0
-0.574052 0.718009 0.440624 -0.706801612 -0.00380000866 -0.707401613 0 0
-0.574052 0.715878 0.443386 -0.577308377 -0.573508322 0.581208433 0 0
-0.574052 0.718027 0.443372 -0.707401613 0.00380000866 0.706801612 0 0
-0.574052 0.715859 0.440638 -0.577308377 -0.581208433 -0.573508322 0 0
-0.530095 0.760301 0.396608 -0.280986988 -0.390081936 -0.876859394 0 0
-0.545382 0.759176 0.440397 -0.465101753 0.444101674 -0.765802887 0 0
-0.550831 0.75549 0.44317 -0.255911918 0.610128414 0.749834921 0 0
-0.545382 0.759275 0.443143 -0.478416381 0.46641597 0.744025476 0 0
-0.550831 0.755472 0.440422 -0.254812933 0.597330318 -0.760438597 0 0
-0.539185 0.768921 0.399765 -0.679930849 0.030701393 -0.73263324 0 0
-0.535544 0.763754 0.397872 -0.519807379 -0.242603444 -0.819111627 0 0
-0.540463 0.771456 0.43868 -0.755534298 -0.253611513 -0.60402742 0 0
-0.541753 0.765114 0.443052 -0.592612193 0.311506409 0.742815284 0 0
-0.540463 0.772574 0.44119 -0.623424959 0.42011682 0.659426401 0 0
-0.541753 0.764766 0.440326 -0.634294656 0.168998576 -0.754393644 0 0
-0.572774 0.743717 0.4405 -0.69010688 0.278902781 -0.667806658 0 0
-0.574052 0.737249 0.443291 -0.724037705 0.0744038747 0.685735711 0 0
-0.572774 0.743736 0.443248 -0.690066995 0.287786236 0.664068238 0 0
-0.574052 0.73723 0.440543 -0.724505343 0.0670004941 -0.686005059 0 0
-0.569133 0.749217 0.440464 -0.529910741 0.520910559 -0.669213565 0 0
-0.569133 0.749235 0.443211 -0.529902414 0.529802413 0.662203016 0 0
-0.557258 0.754182 0.440431 -0.197808633 0.972842456 0.120205246 0 0
-0.563685 0.75291 0.443187 -0.287707522 0.693118122 0.66091728 0 0
-0.557258 0.7542 0.443178 -0.0492003454 0.248401744 0.967406791 0 0
-0.563685 0.752891 0.440439 -0.287708951 0.68432129 -0.670020845 0 0
-0.557258 0.754182 0.440431 -0.0929031797 0.46251583 0.881730178 0 0
-0.557258 0.7542 0.443178 -0.0839983012 0.418591534 0.904281711 0 0
-0.540463 0.775254 0.402938 -0.703141184 0.331519418 -0.629036844 0 0
-0.540463 0.773702 0.405205 -0.74516807 -0.417338123 0.520147515 0 0
-0.540463 0.780551 0.429816 -0.767242345 -0.547330208 -0.334318452 0 0
-0.540463 0.782995 0.431071 -0.655302602 0.644102557 0.394601567 0 0
-0.539795 0.773702 0.405205 0 -0.534530934 0.84514891 0 0
-0.539795 0.777652 0.408316 0 -0.729830289 0.683628371 0 0
-0.540463 0.777652 0.408316 -0.742535605 -0.48882344 0.457921958 0 0
-0.541034 0.764766 0.440326 0 -0.126606763 -0.991952987 0 0
-0.539795 0.771456 0.43868 0 -0.485515563 -0.874228024 0 0
-0.544519 0.759176 0.440397 0 -0.00970051366 -0.999952949 0 0
-0.549751 0.755472 0.440422 0 -0.00669984962 -0.999977556 0 0
-0.555922 0.754182 0.440431 0 -0.999994555 0.00329998203 0 0
-0.555922 0.754182 0.440431 0 -0.999994555 0.00329998203 0 0
-0.562093 0.752891 0.440439 0 -0.00659985626 -0.999978221 0 0
-0.567325 0.749217 0.440464 0 -0.00659985626 -0.999978221 0 0
-0.570821 0.743717 0.4405 0 -0.00659985626 -0.999978221 0 0
-0.572049 0.73723 0.440543 0 -0.00539992127 -0.99998542 0 0
-0.572049 0.718009 0.440624 0 -0.00539992127 -0.99998542 0 0
-0.52984 0.760301 0.396608 0 0.343781565 -0.939049645 0 0
-0.517497 0.760301 0.396608 0 0.343813849 -0.939037825 0 0
-0.512265 0.763754 0.397872 0 0.343902027 -0.939005535 0 0
-0.508769 0.768921 0.399765 0 0.396596914 -0.917992858 0 0
-0.507542 0.775254 0.402938 0 0.538207783 -0.842812187 0 0
-0.507542 0.77967 0.406451 0 0.732387341 -0.680888231 0 0
-0.506874 0.77967 0.406451 0.675012673 0.540410146 -0.502309431 0 0
-0.506303 0.765114 0.443052 0 0.129706853 0.991552385 0 0
-0.507542 0.772574 0.44119 0 0.486101356 0.873902438 0 0
-0.502818 0.759275 0.443143 0 0.0114003992 0.999935013 0 0
-0.497586 0.75549 0.44317 0 0.00689983575 0.999976196 0 0
-0.491415 0.7542 0.443178 0 0.00329998203 0.999994555 0 0
-0.491415 0.7542 0.443178 0 0.00329998203 0.999994555 0 0
-0.485243 0.75291 0.443187 0 0.00659985626 0.999978221 0 0
-0.480011 0.749235 0.443211 0 0.00659985626 0.999978221 0 0
-0.476516 0.743736 0.443248 0 0.00659985626 0.999978221 0 0
-0.475288 0.737249 0.443291 0 0.00539992127 0.99998542 0 0
-0.475288 0.718027 0.443372 0 0.00539992127 0.99998542 0 0
-0.572049 0.715878 0.443386 0 -0.70239122 0.711791103 0 0
-0.572049 0.715859 0.440638 0 -0.711791103 -0.70239122 0 0
-0.506874 0.777652 0.408316 0.742535605 -0.48882344 0.457921958 0 0
-0.506874 0.783717 0.412376 0.670216387 0.675916526 -0.306507494 0 0
-0.506874 0.781203 0.413486 0.748921292 -0.603717164 0.273207767 0 0
-0.506874 0.785178 0.418044 0.679115925 0.728517084 -0.0898021059 0 0
-0.506874 0.782459 0.418447 0.737117743 -0.670916149 0.0808019449 0 0
-0.540463 0.77967 0.406451 -0.675012673 0.540410146 -0.502309431 0 0
-0.540463 0.783717 0.412376 -0.670216387 0.675916526 -0.306507494 0 0
-0.540463 0.781203 0.413486 -0.748921292 -0.603717164 0.273207767 0 0
-0.540463 0.785178 0.418044 -0.679219277 0.728420673 -0.0898025486 0 0
-0.540463 0.782459 0.418447 -0.737117743 -0.670916149 0.0808019449 0 0
-0.539795 0.782414 0.423756 0 -0.988258133 -0.152793527 0 0
-0.539795 0.782459 0.418447 0 -0.992833712 0.119504058 0 0
-0.540463 0.782414 0.423756 -0.741104365 -0.663503908 -0.102600604 0 0
-0.539795 0.781203 0.413486 0 -0.911077518 0.412235074 0 0
-0.507542 0.785136 0.42413 0 0.988333515 0.152305165 0 0
-0.507542 0.785178 0.418044 0 0.992481138 -0.122397674 0 0
-0.506874 0.785136 0.42413 0.675735805 0.728538603 0.112305951 0 0
-0.507542 0.783717 0.412376 0 0.910763346 -0.41292872 0 0
-0.506874 0.782414 0.423756 0.741104365 -0.663503908 -0.102600604 0 0
-0.540463 0.785136 0.42413 -0.675735805 0.728538603 0.112305951 0 0
-0.539795 0.780551 0.429816 0 -0.853425176 -0.521215376 0 0
-0.507542 0.782995 0.431071 0 0.852700405 0.522400248 0 0
-0.475288 0.715878 0.443386 0 -0.70239122 0.711791103 0 0
-0.512265 0.762611 0.400371 0 -0.34330832 0.939222762 0 0
-0.508769 0.767747 0.402249 0 -0.394619218 0.918844749 0 0
-0.507542 0.773702 0.405205 0 -0.534530934 0.84514891 0 0
-0.507542 0.777652 0.408316 0 -0.729830289 0.683628371 0 0
-0.507542 0.771456 0.43868 0 -0.485515563 -0.874228024 0 0
-0.506303 0.764766 0.440326 0 -0.126606763 -0.991952987 0 0
-0.502818 0.759176 0.440397 0 -0.00970051366 -0.999952949 0 0
-0.497586 0.755472 0.440422 0 -0.00669984962 -0.999977556 0 0
-0.491415 0.754182 0.440431 0 -0.999994555 0.00329998203 0 0
-0.491415 0.754182 0.440431 0 -0.999994555 0.00329998203 0 0
-0.485243 0.752891 0.440439 0 -0.00659985626 -0.999978221 0 0
-0.480011 0.749217 0.440464 0 -0.00659985626 -0.999978221 0 0
-0.476515 0.743717 0.4405 0 -0.00659985626 -0.999978221 0 0
-0.475288 0.73723 0.440543 0 -0.00539992127 -0.99998542 0 0
-0.475288 0.718009 0.440624 0 -0.00539992127 -0.99998542 0 0
-0.535072 0.763754 0.397872 0 0.343813849 -0.939037825 0 0
-0.538568 0.768921 0.399765 0 0.396512639 -0.918029263 0 0
-0.539795 0.775254 0.402938 0 0.538207783 -0.842812187 0 0
-0.539795 0.77967 0.406451 0 0.732387341 -0.680888231 0 0
-0.539795 0.772574 0.44119 0 0.486101356 0.873902438 0 0
-0.541034 0.765114 0.443052 0 0.129706853 0.991552385 0 0
-0.544519 0.759275 0.443143 0 0.0114003992 0.999935013 0 0
-0.549751 0.75549 0.44317 0 0.00689983575 0.999976196 0 0
-0.555922 0.7542 0.443178 0 0.00329998203 0.999994555 0 0
-0.555922 0.7542 0.443178 0 0.00329998203 0.999994555 0 0
-0.562093 0.75291 0.443187 0 0.00659985626 0.999978221 0 0
-0.567325 0.749235 0.443211 0 0.00659985626 0.999978221 0 0
-0.570821 0.743736 0.443248 0 0.00659985626 0.999978221 0 0
-0.572049 0.737249 0.443291 0 0.00539992127 0.99998542 0 0
-0.572049 0.718027 0.443372 0 0.00539992127 0.99998542 0 0
-0.475288 0.715859 0.440638 0 -0.711791103 -0.70239122 0 0
-0.507542 0.782459 0.418447 0 -0.992833712 0.119504058 0 0
-0.507542 0.782414 0.423756 0 -0.988258133 -0.152793527 0 0
-0.507542 0.781203 0.413486 0 -0.911077518 0.412235074 0 0
-0.539795 0.785178 0.418044 0 0.992481138 -0.122397674 0 0
-0.539795 0.785136 0.42413 0 0.988333515 0.152305165 0 0
-0.539795 0.783717 0.412376 0 0.910725733 -0.41301167 0 0
-0.507542 0.780551 0.429816 0 -0.853425176 -0.521215376 0 0
-0.539795 0.782995 0.431071 0 0.852700405 0.522400248 0 0
-0.968689 0.759179 0.399116 0.29289742 -0.886392191 0.358496842 0 0
-0.981543 0.759179 0.399116 -0.292923384 -0.886370757 0.358528621 0 0
-0.975116 0.757974 0.398676 0 -0.941429279 0.337210487 0 0
-0.981288 0.759179 0.399116 0 -0.34330832 0.939222762 0 0
-0.968945 0.759179 0.399116 0 -0.34330832 0.939222762 0 0
-0.924732 0.718009 0.440624 0.706801612 -0.00380000866 -0.707401613 0 0
-0.924732 0.715878 0.443386 0.577308377 -0.573508322 0.581208433 0 0
-0.924732 0.715859 0.440638 0.577308377 -0.581208433 -0.573508322 0 0
-0.924732 0.718027 0.443372 0.707401613 0.00380000866 0.706801612 0 0
-0.990016 0.767747 0.402249 0 -0.39458296 0.91886032 0 0
-0.986992 0.762611 0.400371 -0.538420608 -0.730827973 0.419516057 0 0
-0.98652 0.762611 0.400371 0 -0.34330832 0.939222762 0 0
-0.990632 0.767747 0.402249 -0.704517085 -0.528712821 0.47341148 0 0
-0.968689 0.760301 0.396608 0.281011627 -0.390116141 -0.87683628 0 0
-0.975116 0.759088 0.396164 0 -0.442206534 -0.896913252 0 0
-0.953403 0.759176 0.440397 0.465101753 0.444101674 -0.765802887 0 0
-0.947954 0.75549 0.44317 0.255911918 0.610128414 0.749834921 0 0
-0.947954 0.755472 0.440422 0.254812933 0.597330318 -0.760438597 0 0
-0.953403 0.759275 0.443143 0.478416381 0.46641597 0.744025476 0 0
-0.963241 0.762611 0.400371 0.53834959 -0.730867323 0.419538645 0 0
-0.9596 0.768921 0.399765 0.679930849 0.030701393 -0.73263324 0 0
-0.9596 0.767747 0.402249 0.704517085 -0.528712821 0.47341148 0 0
-0.963241 0.763754 0.397872 0.519807379 -0.242603444 -0.819111627 0 0
-0.958322 0.771456 0.43868 0.755534298 -0.253611513 -0.60402742 0 0
-0.957032 0.765114 0.443052 0.592612193 0.311506409 0.742815284 0 0
-0.957032 0.764766 0.440326 0.634294656 0.168998576 -0.754393644 0 0
-0.958322 0.772574 0.44119 0.623424959 0.42011682 0.659426401 0 0
-0.926011 0.743717 0.4405 0.69010688 0.278902781 -0.667806658 0 0
-0.924732 0.737249 0.443291 0.724037705 0.0744038747 0.685735711 0 0
-0.924732 0.73723 0.440543 0.724505343 0.0670004941 -0.686005059 0 0
-0.926011 0.743736 0.443248 0.690066995 0.287786236 0.664068238 0 0
-0.929651 0.749217 0.440464 0.529910741 0.520910559 -0.669213565 0 0
-0.929651 0.749235 0.443211 0.529930488 0.529730476 0.6622381 0 0
-0.941527 0.754182 0.440431 0.197808633 0.972842456 0.120205246 0 0
-0.9351 0.75291 0.443187 0.287707522 0.693118122 0.66091728 0 0
-0.9351 0.752891 0.440439 0.287708951 0.68432129 -0.670020845 0 0
-0.941527 0.7542 0.443178 0.0492003454 0.248401744 0.967406791 0 0
-0.941527 0.754182 0.440431 0.0929031797 0.46251583 0.881730178 0 0
-0.941527 0.7542 0.443178 0.0839983012 0.418591534 0.904281711 0 0
-0.958322 0.775254 0.402938 0.703141184 0.331519418 -0.629036844 0 0
-0.958322 0.773702 0.405205 0.74516807 -0.417338123 0.520147515 0 0
-0.958322 0.780551 0.429816 0.767242345 -0.547330208 -0.334318452 0 0
-0.958322 0.782995 0.431071 0.655344811 0.644044038 0.394626984 0 0
-1.0255 0.718009 0.440624 -0.706801612 -0.00380000866 -0.707401613 0 0
-1.0255 0.715878 0.443386 -0.577308377 -0.573508322 0.581208433 0 0
-1.0255 0.718027 0.443372 -0.707401613 0.00380000866 0.706801612 0 0
-1.0255 0.715859 0.440638 -0.577308377 -0.581208433 -0.573508322 0 0
-0.981543 0.760301 0.396608 -0.281011627 -0.390116141 -0.87683628 0 0
-0.99683 0.759176 0.440397 -0.465101753 0.444101674 -0.765802887 0 0
-1.002278 0.75549 0.44317 -0.255911918 0.610128414 0.749834921 0 0
-0.99683 0.759275 0.443143 -0.478416381 0.46641597 0.744025476 0 0
-1.002278 0.755472 0.440422 -0.254812933 0.597330318 -0.760438597 0 0
-0.990632 0.768921 0.399765 -0.679930849 0.030701393 -0.73263324 0 0
-0.986992 0.763754 0.397872 -0.519807379 -0.242603444 -0.819111627 0 0
-0.991911 0.771456 0.43868 -0.755577212 -0.253592352 -0.603981784 0 0
-0.993201 0.765114 0.443052 -0.592612193 0.311506409 0.742815284 0 0
-0.991911 0.772574 0.44119 -0.623424959 0.42011682 0.659426401 0 0
-0.993201 0.764766 0.440326 -0.634234884 0.169009296 -0.754441495 0 0
-1.024222 0.743717 0.4405 -0.69010688 0.278902781 -0.667806658 0 0
-1.0255 0.737249 0.443291 -0.724037705 0.0744038747 0.685735711 0 0
-1.024222 0.743736 0.443248 -0.690066995 0.287786236 0.664068238 0 0
-1.0255 0.73723 0.440543 -0.724505343 0.0670004941 -0.686005059 0 0
-1.020581 0.749217 0.440464 -0.529910741 0.520910559 -0.669213565 0 0
-1.020581 0.749235 0.443211 -0.529930488 0.529730476 0.6622381 0 0
-1.008705 0.754182 0.440431 -0.197808633 0.972842456 0.120205246 0 0
-1.015133 0.75291 0.443187 -0.287707522 0.693118122 0.66091728 0 0
-1.008705 0.7542 0.443178 -0.0492003454 0.248401744 0.967406791 0 0
-1.015133 0.752891 0.440439 -0.287708951 0.68432129 -0.670020845 0 0
-1.008705 0.754182 0.440431 -0.0929031797 0.46251583 0.881730178 0 0
-1.008705 0.7542 0.443178 -0.0839983012 0.418591534 0.904281711 0 0
-0.991911 0.775254 0.402938 -0.70311787 0.331608428 -0.629015987 0 0
-0.991911 0.773702 0.405205 -0.745212542 -0.417307023 0.520108754 0 0
-0.991911 0.780551 0.429816 -0.767267994 -0.547348505 -0.334229619 0 0
-0.991911 0.782995 0.431071 -0.655328458 0.644127972 0.394517132 0 0
-0.991243 0.773702 0.405205 0 -0.534530934 0.84514891 0 0
-0.991243 0.777652 0.408316 0 -0.729830289 0.683628371 0 0
-0.991911 0.777652 0.408316 -0.742535605 -0.48882344 0.457921958 0 0
-0.992482 0.764766 0.440326 0 -0.126606763 -0.991952987 0 0
-0.991243 0.771456 0.43868 0 -0.485515563 -0.874228024 0 0
-0.995966 0.759176 0.440397 0 -0.00970051366 -0.999952949 0 0
-1.001198 0.755472 0.440422 0 -0.00669984962 -0.999977556 0 0
-1.00737 0.754182 0.440431 0 -0.999994555 0.00329998203 0 0
-1.00737 0.754182 0.440431 0 -0.999994555 0.00329998203 0 0
-1.013541 0.752891 0.440439 0 -0.00659985626 -0.999978221 0 0
-1.018773 0.749217 0.440464 0 -0.00659985626 -0.999978221 0 0
-1.022269 0.743717 0.4405 0 -0.00659985626 -0.999978221 0 0
-1.023497 0.73723 0.440543 0 -0.00539992127 -0.99998542 0 0
-1.023496 0.718009 0.440624 0 -0.00539992127 -0.99998542 0 0
-0.981288 0.760301 0.396608 0 0.343693384 -0.939081923 0 0
-0.968945 0.760301 0.396608 0 0.343693384 -0.939081923 0 0
-0.963713 0.763754 0.397872 0 0.343813849 -0.939037825 0 0
-0.960217 0.768921 0.399765 0 0.396512639 -0.918029263 0 0
-0.95899 0.775254 0.402938 0 0.538207783 -0.842812187 0 0
-0.95899 0.77967 0.406451 0 0.732437209 -0.680834587 0 0
-0.958322 0.77967 0.406451 0.675012673 0.540410146 -0.502309431 0 0
-0.957751 0.765114 0.443052 0 0.129706853 0.991552385 0 0
-0.95899 0.772574 0.44119 0 0.486101356 0.873902438 0 0
-0.954266 0.759275 0.443143 0 0.0114003992 0.999935013 0 0
-0.949034 0.75549 0.44317 0 0.00689983575 0.999976196 0 0
-0.942863 0.7542 0.443178 0 0.00329998203 0.999994555 0 0
-0.942863 0.7542 0.443178 0 0.00329998203 0.999994555 0 0
-0.936691 0.75291 0.443187 0 0.00659985626 0.999978221 0 0
-0.931459 0.749235 0.443211 0 0.00659985626 0.999978221 0 0
-0.927963 0.743736 0.443248 0 0.00659985626 0.999978221 0 0
-0.926736 0.737249 0.443291 0 0.00539992127 0.99998542 0 0
-0.926736 0.718027 0.443372 0 0.00539992127 0.99998542 0 0
-1.023496 0.715878 0.443386 0 -0.70239122 0.711791103 0 0
-1.023496 0.715859 0.440638 0 -0.711791103 -0.70239122 0 0
-0.958322 0.777652 0.408316 0.742569608 -0.488845824 0.457842918 0 0
-0.958322 0.783717 0.412376 0.670216387 0.675916526 -0.306507494 0 0
-0.958322 0.781203 0.413486 0.748921292 -0.603717164 0.273207767 0 0
-0.958322 0.785178 0.418044 0.679165403 0.728470151 -0.0898086486 0 0
-0.958322 0.782459 0.418447 0.737117743 -0.670916149 0.0808019449 0 0
-0.991911 0.77967 0.406451 -0.675012673 0.540410146 -0.502309431 0 0
-0.991911 0.783717 0.412376 -0.670216387 0.675916526 -0.306507494 0 0
-0.991911 0.781203 0.413486 -0.748921292 -0.603717164 0.273207767 0 0
-0.991911 0.785178 0.418044 -0.679165403 0.728470151 -0.0898086486 0 0
-0.991911 0.782459 0.418447 -0.737117743 -0.670916149 0.0808019449 0 0
-0.991243 0.782414 0.423756 0 -0.988258133 -0.152793527 0 0
-0.991243 0.782459 0.418447 0 -0.992833712 0.119504058 0 0
-0.991911 0.782414 0.423756 -0.741104365 -0.663503908 -0.102600604 0 0
-0.991243 0.781203 0.413486 0 -0.911039954 0.412318083 0 0
-0.95899 0.785136 0.42413 0 0.988333515 0.152305165 0 0
-0.95899 0.785178 0.418044 0 0.992481138 -0.122397674 0 0
-0.958322 0.785136 0.42413 0.675735805 0.728538603 0.112305951 0 0
-0.95899 0.783717 0.412376 0 0.910763346 -0.41292872 0 0
-0.958322 0.782414 0.423756 0.741104365 -0.663503908 -0.102600604 0 0
-0.991911 0.785136 0.42413 -0.675735805 0.728538603 0.112305951 0 0
-0.991243 0.780551 0.429816 0 -0.853425176 -0.521215376 0 0
-0.95899 0.782995 0.431071 0 0.852700405 0.522400248 0 0
-0.926736 0.715878 0.443386 0 -0.70239122 0.711791103 0 0
-0.963713 0.762611 0.400371 0 -0.343396532 0.939190514 0 0
-0.960217 0.767747 0.402249 0 -0.39458296 0.91886032 0 0
-0.95899 0.773702 0.405205 0 -0.534530934 0.84514891 0 0
-0.95899 0.777652 0.408316 0 -0.729830289 0.683628371 0 0
-0.95899 0.771456 0.43868 0 -0.485515563 -0.874228024 0 0
-0.957751 0.764766 0.440326 0 -0.126606763 -0.991952987 0 0
-0.954266 0.759176 0.440397 0 -0.00970051366 -0.999952949 0 0
-0.949034 0.755472 0.440422 0 -0.00669984962 -0.999977556 0 0
-0.942863 0.754182 0.440431 0 -0.999994555 0.00329998203 0 0
-0.942863 0.754182 0.440431 0 -0.999994555 0.00329998203 0 0
-0.936691 0.752891 0.440439 0 -0.00659985626 -0.999978221 0 0
-0.931459 0.749217 0.440464 0 -0.00659985626 -0.999978221 0 0
-0.927963 0.743717 0.4405 0 -0.00659985626 -0.999978221 0 0
-0.926736 0.73723 0.440543 0 -0.00539992127 -0.99998542 0 0
-0.926736 0.718009 0.440624 0 -0.00539992127 -0.99998542 0 0
-0.98652 0.763754 0.397872 0 0.343813849 -0.939037825 0 0
-0.990015 0.768921 0.399765 0 0.396512639 -0.918029263 0 0
-0.991243 0.775254 0.402938 0 0.538136743 -0.842857548 0 0
-0.991243 0.77967 0.406451 0 0.732387341 -0.680888231 0 0
-0.991243 0.772574 0.44119 0 0.486101356 0.873902438 0 0
-0.992482 0.765114 0.443052 0 0.129706853 0.991552385 0 0
-0.995966 0.759275 0.443143 0 0.0114003992 0.999935013 0 0
-1.001198 0.75549 0.44317 0 0.00689983575 0.999976196 0 0
-1.00737 0.7542 0.443178 0 0.00329998203 0.999994555 0 0
-1.00737 0.7542 0.443178 0 0.00329998203 0.999994555 0 0
-1.013541 0.75291 0.443187 0 0.00659985626 0.999978221 0 0
-1.018773 0.749235 0.443211 0 0.00659985626 0.999978221 0 0
-1.022269 0.743736 0.443248 0 0.00659985626 0.999978221 0 0
-1.023497 0.737249 0.443291 0 0.00539992127 0.99998542 0 0
-1.023496 0.718027 0.443372 0 0.00539992127 0.99998542 0 0
-0.926736 0.715859 0.440638 0 -0.711791103 -0.70239122 0 0
-0.95899 0.782459 0.418447 0 -0.992833712 0.119504058 0 0
-0.95899 0.782414 0.423756 0 -0.988258133 -0.152793527 0 0
-0.95899 0.781203 0.413486 0 -0.911039954 0.412318083 0 0
-0.991243 0.785178 0.418044 0 0.992481138 -0.122397674 0 0
-0.991243 0.785136 0.42413 0 0.988333515 0.152305165 0 0
-0.991243 0.783717 0.412376 0 0.910763346 -0.41292872 0 0
-0.95899 0.780551 0.429816 0 -0.853425176 -0.521215376 0 0
-0.991243 0.782995 0.431071 0 0.852700405 0.522400248 0 0
3 0 1 2
3 0 3 1
3 0 4 3
3 5 6 7
3 5 8 6
3 9 10 11
3 9 12 10
3 2 13 0
3 2 14 13
3 15 16 17
3 15 18 16
3 19 20 21
3 19 22 20
3 23 24 25
3 23 26 24
3 27 28 29
3 27 30 28
3 31 30 27
3 31 32 30
3 33 34 35
3 33 36 34
3 37 36 33
3 37 38 36
3 17 38 37
3 17 16 38
3 0 22 19
3 0 13 22
3 25 18 15
3 25 24 18
3 21 39 40
3 21 20 39
3 41 26 23
3 41 42 26
3 35 32 31
3 35 34 32
3 43 44 45
3 43 46 44
3 11 1 3
3 11 10 1
3 2 47 14
3 2 1 47
3 48 49 50
3 48 51 49
3 10 52 53
3 10 12 52
3 54 55 56
3 54 57 55
3 58 59 60
3 58 61 59
3 62 60 63
3 62 58 60
3 64 65 66
3 64 67 65
3 68 66 69
3 68 64 66
3 51 69 49
3 51 68 69
3 1 53 47
3 1 10 53
3 57 50 55
3 57 48 50
3 12 70 52
3 12 71 70
3 72 56 73
3 72 54 56
3 67 63 65
3 67 62 63
3 74 12 9
3 74 71 12
3 75 71 74
3 75 76 71
3 77 54 78
3 77 57 54
3 79 57 77
3 79 48 57
3 80 48 79
3 80 51 48
3 81 51 80
3 81 68 51
3 82 68 81
3 82 64 68
3 83 64 82
3 83 67 64
3 84 67 83
3 84 62 67
3 85 62 84
3 85 58 62
3 86 58 85
3 86 61 58
3 87 61 86
3 87 43 61
3 13 88 89
3 13 47 88
3 13 14 47
3 90 13 89
3 90 22 13
3 91 22 90
3 91 20 22
3 92 20 91
3 92 39 20
3 93 39 92
3 93 94 39
3 95 26 96
3 95 24 26
3 97 24 95
3 97 18 24
3 98 18 97
3 98 16 18
3 99 16 98
3 99 38 16
3 100 38 99
3 100 36 38
3 101 36 100
3 101 34 36
3 102 34 101
3 102 32 34
3 103 32 102
3 103 30 32
3 104 30 103
3 104 28 30
3 105 28 104
3 105 8 28
3 106 46 107
3 106 44 46
3 40 94 108
3 40 39 94
3 108 109 110
3 108 94 109
3 110 111 112
3 110 109 111
3 71 113 70
3 71 76 113
3 76 114 113
3 76 115 114
3 115 116 114
3 115 117 116
3 118 117 119
3 118 120 117
3 119 115 121
3 119 117 115
3 121 76 75
3 121 115 76
3 122 111 123
3 122 124 111
3 123 109 125
3 123 111 109
3 125 94 93
3 125 109 94
3 112 124 126
3 112 111 124
3 126 42 41
3 126 124 42
3 117 127 116
3 117 120 127
3 120 73 127
3 120 72 73
3 78 72 128
3 78 54 72
3 128 120 118
3 128 72 120
3 96 42 129
3 96 26 42
3 129 124 122
3 129 42 124
3 29 8 5
3 29 28 8
3 61 45 59
3 61 43 45
3 107 43 87
3 107 46 43
3 130 8 105
3 130 6 8
3 21 131 19
3 21 132 131
3 132 11 131
3 132 9 11
3 19 4 0
3 19 131 4
3 131 3 4
3 131 11 3
3 40 132 21
3 40 133 132
3 133 9 132
3 133 74 9
3 108 133 40
3 108 134 133
3 134 74 133
3 134 75 74
3 25 135 23
3 25 136 135
3 136 78 135
3 136 77 78
3 15 136 25
3 15 137 136
3 137 77 136
3 137 79 77
3 17 137 15
3 17 138 137
3 138 79 137
3 138 80 79
3 37 138 17
3 37 139 138
3 139 80 138
3 139 81 80
3 33 139 37
3 33 140 139
3 140 81 139
3 140 82 81
3 35 140 33
3 35 141 140
3 141 82 140
3 141 83 82
3 31 141 35
3 31 142 141
3 142 83 141
3 142 84 83
3 27 142 31
3 27 143 142
3 143 84 142
3 143 85 84
3 29 143 27
3 29 144 143
3 144 85 143
3 144 86 85
3 5 144 29
3 5 145 144
3 145 86 144
3 145 87 86
3 53 88 47
3 53 146 88
3 146 89 88
3 146 90 89
3 52 146 53
3 52 147 146
3 147 90 146
3 147 91 90
3 70 147 52
3 70 148 147
3 148 91 147
3 148 92 91
3 113 148 70
3 113 149 148
3 149 92 148
3 149 93 92
3 55 150 56
3 55 151 150
3 151 96 150
3 151 95 96
3 50 151 55
3 50 152 151
3 152 95 151
3 152 97 95
3 49 152 50
3 49 153 152
3 153 97 152
3 153 98 97
3 69 153 49
3 69 154 153
3 154 98 153
3 154 99 98
3 66 154 69
3 66 155 154
3 155 99 154
3 155 100 99
3 65 155 66
3 65 156 155
3 156 100 155
3 156 101 100
3 63 156 65
3 63 157 156
3 157 101 156
3 157 102 101
3 60 157 63
3 60 158 157
3 158 102 157
3 158 103 102
3 59 158 60
3 59 159 158
3 159 103 158
3 159 104 103
3 45 159 59
3 45 160 159
3 160 104 159
3 160 105 104
3 6 161 7
3 6 130 161
3 130 107 161
3 130 106 107
3 126 162 112
3 126 163 162
3 163 119 162
3 163 118 119
3 112 164 110
3 112 162 164
3 162 121 164
3 162 119 121
3 110 134 108
3 110 164 134
3 164 75 134
3 164 121 75
3 127 165 116
3 127 166 165
3 166 123 165
3 166 122 123
3 116 167 114
3 116 165 167
3 165 125 167
3 165 123 125
3 114 149 113
3 114 167 149
3 167 93 149
3 167 125 93
3 23 168 41
3 23 135 168
3 135 128 168
3 135 78 128
3 41 163 126
3 41 168 163
3 168 118 163
3 168 128 118
3 56 169 73
3 56 150 169
3 150 129 169
3 150 96 129
3 73 166 127
3 73 169 166
3 169 122 166
3 169 129 122
3 7 145 5
3 7 161 145
3 161 87 145
3 161 107 87
3 44 160 45
3 44 106 160
3 106 105 160
3 106 130 105
3 170 171 172
3 170 173 171
3 170 174 173
3 175 176 177
3 175 178 176
3 179 180 181
3 179 182 180
3 172 183 170
3 172 184 183
3 185 186 187
3 185 188 186
3 189 190 191
3 189 192 190
3 193 194 195
3 193 196 194
3 197 198 199
3 197 200 198
3 201 200 197
3 201 202 200
3 203 204 205
3 203 206 204
3 207 206 203
3 207 208 206
3 187 208 207
3 187 186 208
3 170 192 189
3 170 183 192
3 195 188 185
3 195 194 188
3 191 209 210
3 191 190 209
3 211 196 193
3 211 212 196
3 205 202 201
3 205 204 202
3 213 214 215
3 213 216 214
3 181 171 173
3 181 180 171
3 172 217 184
3 172 171 217
3 218 219 220
3 218 221 219
3 180 222 223
3 180 182 222
3 224 225 226
3 224 227 225
3 228 229 230
3 228 231 229
3 232 230 233
3 232 228 230
3 234 235 236
3 234 237 235
3 238 236 239
3 238 234 236
3 221 239 219
3 221 238 239
3 171 223 217
3 171 180 223
3 227 220 225
3 227 218 220
3 182 240 222
3 182 241 240
3 242 226 243
3 242 224 226
3 237 233 235
3 237 232 233
3 244 182 179
3 244 241 182
3 245 241 244
3 245 246 241
3 247 224 248
3 247 227 224
3 249 227 247
3 249 218 227
3 250 218 249
3 250 221 218
3 251 221 250
3 251 238 221
3 252 238 251
3 252 234 238
3 253 234 252
3 253 237 234
3 254 237 253
3 254 232 237
3 255 232 254
3 255 228 232
3 256 228 255
3 256 231 228
3 257 231 256
3 257 213 231
3 183 258 259
3 183 217 258
3 183 184 217
3 260 183 259
3 260 192 183
3 261 192 260
3 261 190 192
3 262 190 261
3 262 209 190
3 263 209 262
3 263 264 209
3 265 196 266
3 265 194 196
3 267 194 265
3 267 188 194
3 268 188 267
3 268 186 188
3 269 186 268
3 269 208 186
3 270 208 269
3 270 206 208
3 271 206 270
3 271 204 206
3 272 204 271
3 272 202 204
3 273 202 272
3 273 200 202
3 274 200 273
3 274 198 200
3 275 198 274
3 275 178 198
3 276 216 277
3 276 214 216
3 210 264 278
3 210 209 264
3 278 279 280
3 278 264 279
3 280 281 282
3 280 279 281
3 241 283 240
3 241 246 283
3 246 284 283
3 246 285 284
3 285 286 284
3 285 287 286
3 288 287 289
3 288 290 287
3 289 285 291
3 289 287 285
3 291 246 245
3 291 285 246
3 292 281 293
3 292 294 281
3 293 279 295
3 293 281 279
3 295 264 263
3 295 279 264
3 282 294 296
3 282 281 294
3 296 212 211
3 296 294 212
3 287 297 286
3 287 290 297
3 290 243 297
3 290 242 243
3 248 242 298
3 248 224 242
3 298 290 288
3 298 242 290
3 266 212 299
3 266 196 212
3 299 294 292
3 299 212 294
3 199 178 175
3 199 198 178
3 231 215 229
3 231 213 215
3 277 213 257
3 277 216 213
3 300 178 275
3 300 176 178
3 191 301 189
3 191 302 301
3 302 181 301
3 302 179 181
3 189 174 170
3 189 301 174
3 301 173 174
3 301 181 173
3 210 302 191
3 210 303 302
3 303 179 302
3 303 244 179
3 278 303 210
3 278 304 303
3 304 244 303
3 304 245 244
3 195 305 193
3 195 306 305
3 306 248 305
3 306 247 248
3 185 306 195
3 185 307 306
3 307 247 306
3 307 249 247
3 187 307 185
3 187 308 307
3 308 249 307
3 308 250 249
3 207 308 187
3 207 309 308
3 309 250 308
3 309 251 250
3 203 309 207
3 203 310 309
3 310 251 309
3 310 252 251
3 205 310 203
3 205 311 310
3 311 252 310
3 311 253 252
3 201 311 205
3 201 312 311
3 312 253 311
3 312 254 253
3 197 312 201
3 197 313 312
3 313 254 312
3 313 255 254
3 199 313 197
3 199 314 313
3 314 255 313
3 314 256 255
3 175 314 199
3 175 315 314
3 315 256 314
3 315 257 256
3 223 258 217
3 223 316 258
3 316 259 258
3 316 260 259
3 222 316 223
3 222 317 316
3 317 260 316
3 317 261 260
3 240 317 222
3 240 318 317
3 318 261 317
3 318 262 261
3 283 318 240
3 283 319 318
3 319 262 318
3 319 263 262
3 225 320 226
3 225 321 320
3 321 266 320
3 321 265 266
3 220 321 225
3 220 322 321
3 322 265 321
3 322 267 265
3 219 322 220
3 219 323 322
3 323 267 322
3 323 268 267
3 239 323 219
3 239 324 323
3 324 268 323
3 324 269 268
3 236 324 239
3 236 325 324
3 325 269 324
3 325 270 269
3 235 325 236
3 235 326 325
3 326 270 325
3 326 271 270
3 233 326 235
3 233 327 326
3 327 271 326
3 327 272 271
3 230 327 233
3 230 328 327
3 328 272 327
3 328 273 272
3 229 328 230
3 229 329 328
3 329 273 328
3 329 274 273
3 215 329 229
3 215 330 329
3 330 274 329
3 330 275 274
3 176 331 177
3 176 300 331
3 300 277 331
3 300 276 277
3 296 332 282
3 296 333 332
3 333 289 332
3 333 288 289
3 282 334 280
3 282 332 334
3 332 291 334
3 332 289 291
3 280 304 278
3 280 334 304
3 334 245 304
3 334 291 245
3 297 335 286
3 297 336 335
3 336 293 335
3 336 292 293
3 286 337 284
3 286 335 337
3 335 295 337
3 335 293 295
3 284 319 283
3 284 337 319
3 337 263 319
3 337 295 263
3 193 338 211
3 193 305 338
3 305 298 338
3 305 248 298
3 211 333 296
3 211 338 333
3 338 288 333
3 338 298 288
3 226 339 243
3 226 320 339
3 320 299 339
3 320 266 299
3 243 336 297
3 243 339 336
3 339 292 336
3 339 299 292
3 177 315 175
3 177 331 315
3 331 257 315
3 331 277 257
3 214 330 215
3 214 276 330
3 276 275 330
3 276 300 275
