ply
format ascii 1.0
element vertex 844
property float x
property float y
property float z
property float nx
property float ny
property float nz
property float u
property float v
element face 740
property list uchar int vertex_indices
end_header
-3.502188 2.4909 0.424113 1 0 0 0 0
-3.502188 2.415662 0.348875 1 0 0 0 0
-3.502188 2.4909 0.348875 1 0 0 0 0
-3.502188 2.415662 0.424113 1 0 0 0 0
-3.502188 2.4909 0.075237 1 0 0 0 0
-3.502188 2.415662 0.075237 1 0 0 0 0
-3.502188 2.038337 0 1 0 0 0 0
-3.502188 2.038337 0.075237 1 0 0 0 0
-3.502188 2.415662 0 1 0 0 0 0
-3.502188 2.038337 0.348875 1 0 0 0 0
-3.502188 2.038337 0.424113 1 0 0 0 0
-3.502188 1.221676 0.424113 1 0 0 0 0
-3.502188 1.146438 0.348875 1 0 0 0 0
-3.502188 1.221676 0.348875 1 0 0 0 0
-3.502188 1.146438 0.424113 1 0 0 0 0
-3.502188 1.146438 0.075237 1 0 0 0 0
-3.502188 0.685914 0 1 0 0 0 0
-3.502188 1.146438 0 1 0 0 0 0
-3.502188 0.685914 0.075237 1 0 0 0 0
-3.502188 1.221676 0 1 0 0 0 0
-3.502188 1.9631 0.075237 1 0 0 0 0
-3.502188 1.221676 0.075237 1 0 0 0 0
-3.502188 1.9631 0 1 0 0 0 0
-3.502188 0.685914 0.348875 1 0 0 0 0
-3.502188 0.685914 0.424113 1 0 0 0 0
-3.502188 2.4909 0 1 0 0 0 0
-3.502188 1.221676 0.075237 0 0 1 0 0
-3.510553 1.9631 0.075237 0 0 1 0 0
-3.510553 1.221676 0.075237 0 0 1 0 0
-3.502188 1.9631 0.075237 0 0 1 0 0
-3.510553 1.221676 0.348875 0 0 -1 0 0
-3.502188 1.9631 0.348875 0 0 -1 0 0
-3.502188 1.221676 0.348875 0 0 -1 0 0
-3.510553 1.9631 0.348875 0 0 -1 0 0
-3.502188 1.9631 0.424113 1 0 0 0 0
-3.502188 1.9631 0.348875 1 0 0 0 0
-3.502188 0.610676 0.348875 1 0 0 0 0
-3.502188 0.610676 0.424113 1 0 0 0 0
-3.502188 0.610676 0 1 0 0 0 0
-3.502188 0.610676 0.075237 1 0 0 0 0
-3.510553 1.221676 0.075237 0 1 0 0 0
-3.502188 1.221676 0.348875 0 1 0 0 0
-3.502188 1.221676 0.075237 0 1 0 0 0
-3.510553 1.221676 0.348875 0 1 0 0 0
-3.502188 1.9631 0.075237 0 -1 0 0 0
-3.510553 1.9631 0.348875 0 -1 0 0 0
-3.510553 1.9631 0.075237 0 -1 0 0 0
-3.502188 1.9631 0.348875 0 -1 0 0 0
-3.510386 1.281675 0.135237 0 -1 0 0 0
-3.505332 1.281675 0.288875 0 -1 0 0 0
-3.510386 1.281675 0.288875 0 -1 0 0 0
-3.505332 1.281675 0.135237 0 -1 0 0 0
-3.510386 0.745914 0.288875 0 0 1 0 0
-3.505332 1.086438 0.288875 0 0 1 0 0
-3.510386 1.086438 0.288875 0 0 1 0 0
-3.505332 0.745914 0.288875 0 0 1 0 0
-3.510386 1.9031 0.288875 0 1 0 0 0
-3.505332 1.9031 0.135237 0 1 0 0 0
-3.510386 1.9031 0.135237 0 1 0 0 0
-3.505332 1.9031 0.288875 0 1 0 0 0
-3.505332 2.355662 0.288875 1 0 0 0 0
-3.505332 2.098337 0.135237 1 0 0 0 0
-3.505332 2.355662 0.135237 1 0 0 0 0
-3.505332 2.098337 0.288875 1 0 0 0 0
-3.505332 1.086438 0.135237 1 0 0 0 0
-3.505332 0.745914 0.288875 1 0 0 0 0
-3.505332 0.745914 0.135237 1 0 0 0 0
-3.505332 1.086438 0.288875 1 0 0 0 0
-3.505332 1.281675 0.135237 1 0 0 0 0
-3.505332 1.9031 0.288875 1 0 0 0 0
-3.505332 1.281675 0.288875 1 0 0 0 0
-3.505332 1.9031 0.135237 1 0 0 0 0
-3.510386 0.745914 0.135237 0 -1 0 0 0
-3.505332 0.745914 0.288875 0 -1 0 0 0
-3.510386 0.745914 0.288875 0 -1 0 0 0
-3.505332 0.745914 0.135237 0 -1 0 0 0
-3.510386 1.281675 0.288875 0 0 1 0 0
-3.505332 1.9031 0.288875 0 0 1 0 0
-3.510386 1.9031 0.288875 0 0 1 0 0
-3.505332 1.281675 0.288875 0 0 1 0 0
-3.510386 1.9031 0.135237 0 0 -1 0 0
-3.505332 1.281675 0.135237 0 0 -1 0 0
-3.510386 1.281675 0.135237 0 0 -1 0 0
-3.505332 1.9031 0.135237 0 0 -1 0 0
-3.510386 2.098337 0.135237 0 -1 0 0 0
-3.505332 2.098337 0.288875 0 -1 0 0 0
-3.510386 2.098337 0.288875 0 -1 0 0 0
-3.505332 2.098337 0.135237 0 -1 0 0 0
-3.510386 1.086438 0.135237 0 0 -1 0 0
-3.505332 0.745914 0.135237 0 0 -1 0 0
-3.510386 0.745914 0.135237 0 0 -1 0 0
-3.505332 1.086438 0.135237 0 0 -1 0 0
-3.510386 2.355662 0.288875 0 1 0 0 0
-3.505332 2.355662 0.135237 0 1 0 0 0
-3.510386 2.355662 0.135237 0 1 0 0 0
-3.505332 2.355662 0.288875 0 1 0 0 0
-3.510386 1.086438 0.288875 0 1 0 0 0
-3.505332 1.086438 0.135237 0 1 0 0 0
-3.510386 1.086438 0.135237 0 1 0 0 0
-3.505332 1.086438 0.288875 0 1 0 0 0
-3.510386 2.355662 0.135237 0 0 -1 0 0
-3.505332 2.098337 0.135237 0 0 -1 0 0
-3.510386 2.098337 0.135237 0 0 -1 0 0
-3.505332 2.355662 0.135237 0 0 -1 0 0
-3.510386 2.098337 0.288875 0 0 1 0 0
-3.505332 2.355662 0.288875 0 0 1 0 0
-3.510386 2.355662 0.288875 0 0 1 0 0
-3.505332 2.098337 0.288875 0 0 1 0 0
-3.520553 1.136438 0.085237 0.195096815 -0.980783989 0 0 0
-3.516726 1.137199 0.339636 0.419603472 -0.907707511 0 0 0
-3.520553 1.136438 0.338875 0.195096815 -0.980783989 0 0 0
-3.516726 1.137199 0.084476 0.419603472 -0.907707511 0 0 0
-3.513482 1.139367 0.341804 0.755943101 -0.654637325 0 0 0
-3.513482 1.139367 0.082309 0.755943101 -0.654637325 0 0 0
-3.511314 1.142611 0.345048 0.976527914 -0.152304354 -0.152304354 0 0
-3.511314 1.142611 0.079064 0.976527914 -0.152304354 0.152304354 0 0
-3.510553 1.146438 0.348875 0.990251187 -0.0984951448 -0.0984951448 0 0
-3.510553 1.146438 0.075237 0.990251187 -0.0984951448 0.0984951448 0 0
-3.520553 0.695914 0.085237 0.195096815 0 0.980783989 0 0
-3.516726 1.137199 0.084476 0.419603472 0 0.907707511 0 0
-3.520553 1.136438 0.085237 0.195096815 0 0.980783989 0 0
-3.516726 0.695152 0.084476 0.419603472 0 0.907707511 0 0
-3.513482 1.139367 0.082309 0.755893613 0 0.654694468 0 0
-3.513482 0.692985 0.082309 0.755893613 0 0.654694468 0 0
-3.511314 0.68974 0.079064 0.976542783 0.152206668 0.152306673 0 0
-3.510553 0.685914 0.075237 0.990251187 0.0984951448 0.0984951448 0 0
-3.520553 0.695914 0.338875 0.195096815 0.980783989 0 0 0
-3.516726 0.695152 0.084476 0.419521073 0.907745597 0 0 0
-3.520553 0.695914 0.085237 0.195096815 0.980783989 0 0 0
-3.516726 0.695152 0.339636 0.419521073 0.907745597 0 0 0
-3.513482 0.692985 0.082309 0.755943101 0.654637325 0 0 0
-3.513482 0.692985 0.341804 0.755893613 0.654694468 0 0 0
-3.511314 0.68974 0.345048 0.976542783 0.152206668 -0.152306673 0 0
-3.510553 0.685914 0.348875 0.990251187 0.0984951448 -0.0984951448 0 0
-3.520553 1.136438 0.338875 0.195096815 0 -0.980783989 0 0
-3.516726 0.695152 0.339636 0.419521073 0 -0.907745597 0 0
-3.520553 0.695914 0.338875 0.195096815 0 -0.980783989 0 0
-3.516726 1.137199 0.339636 0.419521073 0 -0.907745597 0 0
-3.513482 0.692985 0.341804 0.755893613 0 -0.654694468 0 0
-3.513482 1.139367 0.341804 0.755893613 0 -0.654694468 0 0
-3.520553 1.231676 0.085237 0.195096815 0 0.980783989 0 0
-3.516726 1.953861 0.084476 0.419603472 0 0.907707511 0 0
-3.520553 1.9531 0.085237 0.195096815 0 0.980783989 0 0
-3.516726 1.230914 0.084476 0.419603472 0 0.907707511 0 0
-3.513482 1.956029 0.082309 0.755893613 0 0.654694468 0 0
-3.513482 1.228747 0.082309 0.755893613 0 0.654694468 0 0
-3.511314 1.959273 0.079064 0.976527914 -0.152304354 0.152304354 0 0
-3.511314 1.225502 0.079064 0.976542783 0.152206668 0.152306673 0 0
-3.520553 1.9531 0.338875 0.195096815 0 -0.980783989 0 0
-3.516726 1.230914 0.339636 0.419521073 0 -0.907745597 0 0
-3.520553 1.231676 0.338875 0.195096815 0 -0.980783989 0 0
-3.516726 1.953861 0.339636 0.419521073 0 -0.907745597 0 0
-3.513482 1.228747 0.341804 0.755893613 0 -0.654694468 0 0
-3.513482 1.956029 0.341804 0.755893613 0 -0.654694468 0 0
-3.511314 1.225502 0.345048 0.976542783 0.152206668 -0.152306673 0 0
-3.511314 1.959273 0.345048 0.976527914 -0.152304354 -0.152304354 0 0
-3.520553 1.231676 0.338875 0.195096815 0.980783989 0 0 0
-3.516726 1.230914 0.084476 0.419521073 0.907745597 0 0 0
-3.520553 1.231676 0.085237 0.195096815 0.980783989 0 0 0
-3.516726 1.230914 0.339636 0.419521073 0.907745597 0 0 0
-3.513482 1.228747 0.082309 0.755943101 0.654637325 0 0 0
-3.513482 1.228747 0.341804 0.755943101 0.654637325 0 0 0
-3.520553 1.9531 0.085237 0.195096815 -0.980783989 0 0 0
-3.516726 1.953861 0.339636 0.419603472 -0.907707511 0 0 0
-3.520553 1.9531 0.338875 0.195096815 -0.980783989 0 0 0
-3.516726 1.953861 0.084476 0.419603472 -0.907707511 0 0 0
-3.513482 1.956029 0.341804 0.755893613 -0.654694468 0 0 0
-3.513482 1.956029 0.082309 0.755893613 -0.654694468 0 0 0
-3.520553 2.405662 0.338875 0.195096815 0 -0.980783989 0 0
-3.516726 2.047576 0.339636 0.419603472 0 -0.907707511 0 0
-3.520553 2.048337 0.338875 0.195096815 0 -0.980783989 0 0
-3.516726 2.406424 0.339636 0.419603472 0 -0.907707511 0 0
-3.513482 2.045408 0.341804 0.755893613 0 -0.654694468 0 0
-3.513482 2.408591 0.341804 0.755893613 0 -0.654694468 0 0
-3.511314 2.042164 0.345048 0.976542783 0.152206668 -0.152306673 0 0
-3.511314 2.411835 0.345048 0.976527914 -0.152304354 -0.152304354 0 0
-3.510553 2.038337 0.348875 0.990251187 0.0984951448 -0.0984951448 0 0
-3.510553 2.415662 0.348875 0.990251187 -0.0984951448 -0.0984951448 0 0
-3.520553 2.048337 0.085237 0.195096815 0 0.980783989 0 0
-3.516726 2.406424 0.084476 0.419521073 0 0.907745597 0 0
-3.520553 2.405662 0.085237 0.195096815 0 0.980783989 0 0
-3.516726 2.047576 0.084476 0.419521073 0 0.907745597 0 0
-3.513482 2.408591 0.082309 0.755893613 0 0.654694468 0 0
-3.513482 2.045409 0.082309 0.755893613 0 0.654694468 0 0
-3.511314 2.411835 0.079064 0.976527914 -0.152304354 0.152304354 0 0
-3.511314 2.042164 0.079064 0.976542783 0.152206668 0.152306673 0 0
-3.520553 2.405662 0.085237 0.195096815 -0.980783989 0 0 0
-3.516726 2.406424 0.339636 0.419521073 -0.907745597 0 0 0
-3.520553 2.405662 0.338875 0.195096815 -0.980783989 0 0 0
-3.516726 2.406424 0.084476 0.419521073 -0.907745597 0 0 0
-3.513482 2.408591 0.341804 0.755893613 -0.654694468 0 0 0
-3.513482 2.408591 0.082309 0.755893613 -0.654694468 0 0 0
-3.520553 2.048337 0.338875 0.19500062 0.980803119 0 0 0
-3.516726 2.047576 0.084476 0.419521073 0.907745597 0 0 0
-3.520553 2.048337 0.085237 0.19500062 0.980803119 0 0 0
-3.516726 2.047576 0.339636 0.419521073 0.907745597 0 0 0
-3.513482 2.045409 0.082309 0.755893613 0.654694468 0 0 0
-3.513482 2.045408 0.341804 0.755893613 0.654694468 0 0 0
-3.510553 2.038337 0.075237 0.990251187 0.0984951448 0.0984951448 0 0
-2.49821 2.038338 0.424113 -1 0 0 0 0
-2.49821 2.415662 0.348875 -1 0 0 0 0
-2.49821 2.038338 0.348875 -1 0 0 0 0
-2.49821 2.415662 0.424113 -1 0 0 0 0
-2.49821 2.038338 0.075237 -1 0 0 0 0
-2.49821 2.415662 0 -1 0 0 0 0
-2.49821 2.038338 0 -1 0 0 0 0
-2.49821 2.415662 0.075237 -1 0 0 0 0
-2.49821 1.221676 0 -1 0 0 0 0
-2.49821 1.146438 0.075237 -1 0 0 0 0
-2.49821 1.221676 0.075237 -1 0 0 0 0
-2.49821 1.146438 0 -1 0 0 0 0
-2.49821 1.146438 0.348875 -1 0 0 0 0
-2.49821 0.685914 0.424113 -1 0 0 0 0
-2.49821 1.146438 0.424113 -1 0 0 0 0
-2.49821 0.685914 0.348875 -1 0 0 0 0
-2.49821 1.221676 0.424113 -1 0 0 0 0
-2.49821 1.9631 0.348875 -1 0 0 0 0
-2.49821 1.221676 0.348875 -1 0 0 0 0
-2.49821 1.9631 0.424113 -1 0 0 0 0
-2.49821 0.685914 0.075237 -1 0 0 0 0
-2.49821 0.685914 0 -1 0 0 0 0
-2.49821 1.221676 0.348875 0 0 -1 0 0
-2.489845 1.9631 0.348875 0 0 -1 0 0
-2.489845 1.221676 0.348875 0 0 -1 0 0
-2.49821 1.9631 0.348875 0 0 -1 0 0
-2.49821 1.9631 0 -1 0 0 0 0
-2.49821 1.9631 0.075237 -1 0 0 0 0
-2.49821 0.610676 0.075237 -1 0 0 0 0
-2.49821 0.610676 0 -1 0 0 0 0
-2.49821 0.610676 0.424113 -1 0 0 0 0
-2.49821 0.610676 0.348875 -1 0 0 0 0
-2.489845 0.685914 0.348875 0 1 0 0 0
-2.49821 0.685914 0.075237 0 1 0 0 0
-2.49821 0.685914 0.348875 0 1 0 0 0
-2.489845 0.685914 0.075237 0 1 0 0 0
-2.49821 1.9631 0.348875 0 -1 0 0 0
-2.489845 1.9631 0.075237 0 -1 0 0 0
-2.489845 1.9631 0.348875 0 -1 0 0 0
-2.49821 1.9631 0.075237 0 -1 0 0 0
-2.479903 1.9531 0.085237 -0.989928693 0.100102902 -0.100102902 0 0
-2.490012 1.9031 0.288875 -0.989928693 0.100102902 0.100102902 0 0
-2.479903 1.9531 0.338875 -0.989928693 0.100102902 0.100102902 0 0
-2.490012 1.9031 0.135237 -0.989928693 0.100102902 -0.100102902 0 0
-2.479903 0.695914 0.085237 -0.989928693 -0.100102902 -0.100102902 0 0
-2.490012 1.086438 0.135237 -0.989928693 0.100102902 -0.100102902 0 0
-2.479903 1.136438 0.085237 -0.989928693 0.100102902 -0.100102902 0 0
-2.490012 0.745914 0.135237 -0.989928693 -0.100102902 -0.100102902 0 0
-2.479903 1.231676 0.338875 -0.989928693 -0.100102902 0.100102902 0 0
-2.490012 1.281676 0.135237 -0.989928693 -0.100102902 -0.100102902 0 0
-2.479903 1.231676 0.085237 -0.989928693 -0.100102902 -0.100102902 0 0
-2.490012 1.281676 0.288875 -0.989928693 -0.100102902 0.100102902 0 0
-2.479903 0.695914 0.338875 -0.989928693 -0.100102902 0.100102902 0 0
-2.490012 0.745914 0.288875 -0.989928693 -0.100102902 0.100102902 0 0
-2.479903 2.048337 0.338875 -0.989928693 -0.100102902 0.100102902 0 0
-2.490012 2.098338 0.135237 -0.989928693 -0.100102902 -0.100102902 0 0
-2.479903 2.048337 0.085237 -0.989928693 -0.100102902 -0.100102902 0 0
-2.490012 2.098338 0.288875 -0.989928693 -0.100102902 0.100102902 0 0
-2.479903 1.136438 0.338875 -0.989928693 0.100102902 0.100102902 0 0
-2.490012 1.086438 0.288875 -0.989928693 0.100102902 0.100102902 0 0
-2.479903 2.405663 0.085237 -0.989928693 0.100102902 -0.100102902 0 0
-2.490012 2.355662 0.288875 -0.989928693 0.100102902 0.100102902 0 0
-2.479903 2.405663 0.338875 -0.989928693 0.100102902 0.100102902 0 0
-2.490012 2.355662 0.135237 -0.989928693 0.100102902 -0.100102902 0 0
-2.490012 1.281676 0.288875 0 -1 0 0 0
-2.495066 1.281676 0.135237 0 -1 0 0 0
-2.490012 1.281676 0.135237 0 -1 0 0 0
-2.495066 1.281676 0.288875 0 -1 0 0 0
-2.490012 0.745914 0.135237 0 0 -1 0 0
-2.495066 1.086438 0.135237 0 0 -1 0 0
-2.490012 1.086438 0.135237 0 0 -1 0 0
-2.495066 0.745914 0.135237 0 0 -1 0 0
-2.490012 1.9031 0.135237 0 1 0 0 0
-2.495066 1.9031 0.288875 0 1 0 0 0
-2.490012 1.9031 0.288875 0 1 0 0 0
-2.495066 1.9031 0.135237 0 1 0 0 0
-2.495066 2.355662 0.135237 -1 0 0 0 0
-2.495066 2.098338 0.288875 -1 0 0 0 0
-2.495066 2.355662 0.288875 -1 0 0 0 0
-2.495066 2.098338 0.135237 -1 0 0 0 0
-2.495066 1.086438 0.288875 -1 0 0 0 0
-2.495066 0.745914 0.135237 -1 0 0 0 0
-2.495066 0.745914 0.288875 -1 0 0 0 0
-2.495066 1.086438 0.135237 -1 0 0 0 0
-2.495066 1.281676 0.288875 -1 0 0 0 0
-2.495066 1.9031 0.135237 -1 0 0 0 0
-2.495066 1.281676 0.135237 -1 0 0 0 0
-2.495066 1.9031 0.288875 -1 0 0 0 0
-2.490012 0.745914 0.288875 0 -1 0 0 0
-2.495066 0.745914 0.135237 0 -1 0 0 0
-2.490012 0.745914 0.135237 0 -1 0 0 0
-2.495066 0.745914 0.288875 0 -1 0 0 0
-2.490012 1.281676 0.135237 0 0 -1 0 0
-2.495066 1.9031 0.135237 0 0 -1 0 0
-2.490012 1.9031 0.135237 0 0 -1 0 0
-2.495066 1.281676 0.135237 0 0 -1 0 0
-2.490012 1.9031 0.288875 0 0 1 0 0
-2.495066 1.281676 0.288875 0 0 1 0 0
-2.490012 1.281676 0.288875 0 0 1 0 0
-2.495066 1.9031 0.288875 0 0 1 0 0
-2.490012 2.098338 0.288875 0 -1 0 0 0
-2.495066 2.098338 0.135237 0 -1 0 0 0
-2.490012 2.098338 0.135237 0 -1 0 0 0
-2.495066 2.098338 0.288875 0 -1 0 0 0
-2.490012 1.086438 0.288875 0 0 1 0 0
-2.495066 0.745914 0.288875 0 0 1 0 0
-2.490012 0.745914 0.288875 0 0 1 0 0
-2.495066 1.086438 0.288875 0 0 1 0 0
-2.490012 2.355662 0.135237 0 1 0 0 0
-2.495066 2.355662 0.288875 0 1 0 0 0
-2.490012 2.355662 0.288875 0 1 0 0 0
-2.495066 2.355662 0.135237 0 1 0 0 0
-2.490012 1.086438 0.135237 0 1 0 0 0
-2.495066 1.086438 0.288875 0 1 0 0 0
-2.490012 1.086438 0.288875 0 1 0 0 0
-2.495066 1.086438 0.135237 0 1 0 0 0
-2.490012 2.355662 0.288875 0 0 1 0 0
-2.495066 2.098338 0.288875 0 0 1 0 0
-2.490012 2.098338 0.288875 0 0 1 0 0
-2.495066 2.355662 0.288875 0 0 1 0 0
-2.490012 2.098338 0.135237 0 0 -1 0 0
-2.495066 2.355662 0.135237 0 0 -1 0 0
-2.490012 2.355662 0.135237 0 0 -1 0 0
-2.495066 2.098338 0.135237 0 0 -1 0 0
-2.483672 1.137199 0.339636 -0.420782227 -0.907161682 0 0 0
-2.486916 1.139367 0.082308 -0.755893613 -0.654694468 0 0 0
-2.483672 1.137199 0.084476 -0.420782227 -0.907161682 0 0 0
-2.486916 1.139367 0.341804 -0.755893613 -0.654694468 0 0 0
-2.489084 1.142611 0.079064 -0.976527914 -0.152304354 0.152304354 0 0
-2.489084 1.142611 0.345048 -0.976527914 -0.152304354 -0.152304354 0 0
-2.489845 1.146438 0.075237 -0.990249246 -0.0985048988 0.0985048988 0 0
-2.489845 1.146438 0.348875 -0.990239487 -0.0986039319 -0.0985039279 0 0
-2.483672 0.695152 0.339636 -0.420782227 0 -0.907161682 0 0
-2.486916 1.139367 0.341804 -0.755893613 0 -0.654694468 0 0
-2.483672 1.137199 0.339636 -0.420782227 0 -0.907161682 0 0
-2.486916 0.692985 0.341804 -0.755893613 0 -0.654694468 0 0
-2.489084 0.689741 0.345048 -0.976527914 0.152304354 -0.152304354 0 0
-2.483672 0.695152 0.084476 -0.420782227 0.907161682 0 0 0
-2.486916 0.692985 0.341804 -0.755893613 0.654694468 0 0 0
-2.483672 0.695152 0.339636 -0.420782227 0.907161682 0 0 0
-2.486916 0.692985 0.082309 -0.755893613 0.654694468 0 0 0
-2.489084 0.689741 0.079064 -0.976527914 0.152304354 0.152304354 0 0
-2.483672 1.137199 0.084476 -0.420782227 0 0.907161682 0 0
-2.486916 0.692985 0.082309 -0.755893613 0 0.654694468 0 0
-2.483672 0.695152 0.084476 -0.420782227 0 0.907161682 0 0
-2.486916 1.139367 0.082308 -0.755893613 0 0.654694468 0 0
-2.483672 1.230914 0.339636 -0.420782227 0 -0.907161682 0 0
-2.486916 1.956029 0.341804 -0.755893613 0 -0.654694468 0 0
-2.483672 1.953861 0.339636 -0.420782227 0 -0.907161682 0 0
-2.486916 1.228747 0.341804 -0.755893613 0 -0.654694468 0 0
-2.489084 1.959273 0.345048 -0.976527914 -0.152304354 -0.152304354 0 0
-2.489084 1.225502 0.345048 -0.976527914 0.152304354 -0.152304354 0 0
-2.483672 1.953861 0.084476 -0.420782227 0 0.907161682 0 0
-2.486916 1.228747 0.082309 -0.755893613 0 0.654694468 0 0
-2.483672 1.230914 0.084476 -0.420782227 0 0.907161682 0 0
-2.486916 1.956029 0.082309 -0.755893613 0 0.654694468 0 0
-2.489084 1.225502 0.079064 -0.976527914 0.152304354 0.152304354 0 0
-2.489084 1.959273 0.079064 -0.976527914 -0.152304354 0.152304354 0 0
-2.483672 1.230914 0.084476 -0.420782227 0.907161682 0 0 0
-2.486916 1.228747 0.341804 -0.755893613 0.654694468 0 0 0
-2.483672 1.230914 0.339636 -0.420782227 0.907161682 0 0 0
-2.486916 1.228747 0.082309 -0.755893613 0.654694468 0 0 0
-2.483672 1.953861 0.339636 -0.420782227 -0.907161682 0 0 0
-2.486916 1.956029 0.082309 -0.755893613 -0.654694468 0 0 0
-2.483672 1.953861 0.084476 -0.420782227 -0.907161682 0 0 0
-2.486916 1.956029 0.341804 -0.755893613 -0.654694468 0 0 0
-2.483672 2.406424 0.084476 -0.420782227 0 0.907161682 0 0
-2.486916 2.045409 0.082308 -0.755893613 0 0.654694468 0 0
-2.483672 2.047576 0.084476 -0.420782227 0 0.907161682 0 0
-2.486916 2.408591 0.082308 -0.755893613 0 0.654694468 0 0
-2.489084 2.042164 0.079064 -0.976542783 0.152206668 0.152306673 0 0
-2.489084 2.411836 0.079064 -0.976527914 -0.152304354 0.152304354 0 0
-2.483672 2.047576 0.339636 -0.420782227 0 -0.907161682 0 0
-2.486916 2.408591 0.341804 -0.755893613 0 -0.654694468 0 0
-2.483672 2.406424 0.339636 -0.420782227 0 -0.907161682 0 0
-2.486916 2.045409 0.341804 -0.755893613 0 -0.654694468 0 0
-2.489084 2.411836 0.345048 -0.976527914 -0.152304354 -0.152304354 0 0
-2.489084 2.042164 0.345048 -0.976542783 0.152206668 -0.152306673 0 0
-2.483672 2.406424 0.339636 -0.420782227 -0.907161682 0 0 0
-2.486916 2.408591 0.082308 -0.755893613 -0.654694468 0 0 0
-2.483672 2.406424 0.084476 -0.420782227 -0.907161682 0 0 0
-2.486916 2.408591 0.341804 -0.755893613 -0.654694468 0 0 0
-2.483672 2.047576 0.084476 -0.420782227 0.907161682 0 0 0
-2.486916 2.045409 0.341804 -0.755893613 0.654694468 0 0 0
-2.483672 2.047576 0.339636 -0.420782227 0.907161682 0 0 0
-2.486916 2.045409 0.082308 -0.755893613 0.654694468 0 0 0
-3.049625 2.4909 0.424113 0 -1 0 0 0
-3.42695 2.4909 0.348875 0 -1 0 0 0
-3.049625 2.4909 0.348875 0 -1 0 0 0
-3.42695 2.4909 0.424113 0 -1 0 0 0
-3.049625 2.4909 0.075237 0 -1 0 0 0
-3.42695 2.4909 0 0 -1 0 0 0
-3.049625 2.4909 0 0 -1 0 0 0
-3.42695 2.4909 0.075237 0 -1 0 0 0
-2.573447 2.4909 0.424113 0 -1 0 0 0
-2.974388 2.4909 0.348875 0 -1 0 0 0
-2.573447 2.4909 0.348875 0 -1 0 0 0
-2.974388 2.4909 0.424113 0 -1 0 0 0
-2.49821 2.4909 0.424113 0 -1 0 0 0
-2.49821 2.4909 0.348875 0 -1 0 0 0
-3.049625 2.4909 0.348875 0 0 -1 0 0
-3.42695 2.499265 0.348875 0 0 -1 0 0
-3.049625 2.499265 0.348875 0 0 -1 0 0
-3.42695 2.4909 0.348875 0 0 -1 0 0
-2.573447 2.4909 0.075237 0 -1 0 0 0
-2.974388 2.4909 0 0 -1 0 0 0
-2.573447 2.4909 0 0 -1 0 0 0
-2.974388 2.4909 0.075237 0 -1 0 0 0
-3.049625 2.499265 0.348875 -1 0 0 0 0
-3.049625 2.4909 0.075237 -1 0 0 0 0
-3.049625 2.4909 0.348875 -1 0 0 0 0
-3.049625 2.499265 0.075237 -1 0 0 0 0
-2.964388 2.509207 0.085237 -0.100102902 -0.989928693 -0.100102902 0 0
-2.914388 2.499098 0.288875 -0.100102902 -0.989928693 0.100102902 0 0
-2.964388 2.509207 0.338875 -0.100102902 -0.989928693 0.100102902 0 0
-2.914388 2.499098 0.135237 -0.100102902 -0.989928693 -0.100102902 0 0
-2.583447 2.509207 0.338875 0.100102902 -0.989928693 0.100102902 0 0
-2.633448 2.499098 0.135237 0.100102902 -0.989928693 -0.100102902 0 0
-2.583447 2.509207 0.085237 0.100102902 -0.989928693 -0.100102902 0 0
-2.633448 2.499098 0.288875 0.100102902 -0.989928693 0.100102902 0 0
-3.059625 2.509207 0.338875 0.100102902 -0.989928693 0.100102902 0 0
-3.109625 2.499098 0.135237 0.100102902 -0.989928693 -0.100102902 0 0
-3.059625 2.509207 0.085237 0.100102902 -0.989928693 -0.100102902 0 0
-3.109625 2.499098 0.288875 0.100102902 -0.989928693 0.100102902 0 0
-3.41695 2.509207 0.085237 -0.100102902 -0.989928693 -0.100102902 0 0
-3.36695 2.499098 0.288875 -0.100102902 -0.989928693 0.100102902 0 0
-3.41695 2.509207 0.338875 -0.100102902 -0.989928693 0.100102902 0 0
-3.36695 2.499098 0.135237 -0.100102902 -0.989928693 -0.100102902 0 0
-2.633448 2.499098 0.288875 1 0 0 0 0
-2.633448 2.494044 0.135237 1 0 0 0 0
-2.633448 2.499098 0.135237 1 0 0 0 0
-2.633448 2.494044 0.288875 1 0 0 0 0
-2.914388 2.499098 0.135237 -1 0 0 0 0
-2.914388 2.494044 0.288875 -1 0 0 0 0
-2.914388 2.499098 0.288875 -1 0 0 0 0
-2.914388 2.494044 0.135237 -1 0 0 0 0
-3.36695 2.494044 0.135237 0 -1 0 0 0
-3.109625 2.494044 0.288875 0 -1 0 0 0
-3.36695 2.494044 0.288875 0 -1 0 0 0
-3.109625 2.494044 0.135237 0 -1 0 0 0
-2.633448 2.494044 0.288875 0 -1 0 0 0
-2.914388 2.494044 0.135237 0 -1 0 0 0
-2.633448 2.494044 0.135237 0 -1 0 0 0
-2.914388 2.494044 0.288875 0 -1 0 0 0
-2.633448 2.499098 0.135237 0 0 -1 0 0
-2.914388 2.494044 0.135237 0 0 -1 0 0
-2.914388 2.499098 0.135237 0 0 -1 0 0
-2.633448 2.494044 0.135237 0 0 -1 0 0
-2.914388 2.499098 0.288875 0 0 1 0 0
-2.633448 2.494044 0.288875 0 0 1 0 0
-2.633448 2.499098 0.288875 0 0 1 0 0
-2.914388 2.494044 0.288875 0 0 1 0 0
-3.109625 2.499098 0.288875 1 0 0 0 0
-3.109625 2.494044 0.135237 1 0 0 0 0
-3.109625 2.499098 0.135237 1 0 0 0 0
-3.109625 2.494044 0.288875 1 0 0 0 0
-3.36695 2.499098 0.135237 -1 0 0 0 0
-3.36695 2.494044 0.288875 -1 0 0 0 0
-3.36695 2.499098 0.288875 -1 0 0 0 0
-3.36695 2.494044 0.135237 -1 0 0 0 0
-3.36695 2.499098 0.288875 0 0 1 0 0
-3.109625 2.494044 0.288875 0 0 1 0 0
-3.109625 2.499098 0.288875 0 0 1 0 0
-3.36695 2.494044 0.288875 0 0 1 0 0
-3.109625 2.499098 0.135237 0 0 -1 0 0
-3.36695 2.494044 0.135237 0 0 -1 0 0
-3.36695 2.499098 0.135237 0 0 -1 0 0
-3.109625 2.494044 0.135237 0 0 -1 0 0
-2.582686 2.505438 0.339636 0 -0.420782227 -0.907161682 0 0
-2.967317 2.502194 0.341804 0 -0.755943101 -0.654637325 0 0
-2.965149 2.505438 0.339636 0 -0.420782227 -0.907161682 0 0
-2.580518 2.502194 0.341804 0 -0.755943101 -0.654637325 0 0
-2.970561 2.500026 0.345048 0.152304354 -0.976527914 -0.152304354 0 0
-2.577274 2.500026 0.345048 -0.152304354 -0.976527914 -0.152304354 0 0
-2.965149 2.505438 0.084476 0 -0.420782227 0.907161682 0 0
-2.580518 2.502194 0.082309 0 -0.755943101 0.654637325 0 0
-2.582686 2.505438 0.084476 0 -0.420782227 0.907161682 0 0
-2.967317 2.502194 0.082309 0 -0.755943101 0.654637325 0 0
-2.577274 2.500026 0.079064 -0.152304354 -0.976527914 0.152304354 0 0
-2.970561 2.500026 0.079064 0.152304354 -0.976527914 0.152304354 0 0
-2.582686 2.505438 0.084476 -0.907161682 -0.420782227 0 0 0
-2.580518 2.502194 0.341804 -0.654694468 -0.755893613 0 0 0
-2.582686 2.505438 0.339636 -0.907161682 -0.420782227 0 0 0
-2.580518 2.502194 0.082309 -0.654694468 -0.755893613 0 0 0
-2.965149 2.505438 0.339636 0.907143975 -0.4208204 0 0 0
-2.967317 2.502194 0.082309 0.654694468 -0.755893613 0 0 0
-2.965149 2.505438 0.084476 0.907143975 -0.4208204 0 0 0
-2.967317 2.502194 0.341804 0.654694468 -0.755893613 0 0 0
-3.417711 2.505438 0.084476 0 -0.420782227 0.907161682 0 0
-3.056696 2.502194 0.082308 0 -0.755893613 0.654694468 0 0
-3.058864 2.505438 0.084476 0 -0.420782227 0.907161682 0 0
-3.419879 2.502194 0.082308 0 -0.755893613 0.654694468 0 0
-3.053452 2.500026 0.079064 -0.152304354 -0.976527914 0.152304354 0 0
-3.423123 2.500026 0.079064 0.152304354 -0.976527914 0.152304354 0 0
-3.058864 2.505438 0.339636 0 -0.420782227 -0.907161682 0 0
-3.419879 2.502194 0.341804 0 -0.755943101 -0.654637325 0 0
-3.417711 2.505438 0.339636 0 -0.420782227 -0.907161682 0 0
-3.056697 2.502194 0.341804 0 -0.755943101 -0.654637325 0 0
-3.423123 2.500026 0.345048 0.152304354 -0.976527914 -0.152304354 0 0
-3.053452 2.500026 0.345048 -0.152304354 -0.976527914 -0.152304354 0 0
-3.417711 2.505438 0.339636 0.907161682 -0.420782227 0 0 0
-3.419879 2.502194 0.082308 0.654694468 -0.755893613 0 0 0
-3.417711 2.505438 0.084476 0.907161682 -0.420782227 0 0 0
-3.419879 2.502194 0.341804 0.654694468 -0.755893613 0 0 0
-3.058864 2.505438 0.084476 -0.907161682 -0.420782227 0 0 0
-3.056697 2.502194 0.341804 -0.654694468 -0.755893613 0 0 0
-3.058864 2.505438 0.339636 -0.907161682 -0.420782227 0 0 0
-3.056696 2.502194 0.082308 -0.654694468 -0.755893613 0 0 0
-3.487769 0.610676 0.554262 0 1 0 0 0
-2.509073 0.610676 0.348804 -0.0328014925 0.994645257 -0.0980044593 0 0
-3.487769 0.610676 0.348804 0.0328014925 0.994645257 -0.0980044593 0 0
-2.509073 0.610676 0.554262 0 1 0 0 0
-2.509073 0.575761 0.554262 0 -1 0 0 0
-3.487769 0.575761 0.348804 0.0328014925 -0.994645257 -0.0980044593 0 0
-2.509073 0.575761 0.348804 -0.0328014925 -0.994645257 -0.0980044593 0 0
-3.487769 0.575761 0.554262 0 -1 0 0 0
-2.509073 0.600676 0.338804 0 0.130506251 -0.991447486 0 0
-3.487769 0.585761 0.338804 0 -0.130506251 -0.991447486 0 0
-3.487769 0.600676 0.338804 0 0.130506251 -0.991447486 0 0
-2.509073 0.585761 0.338804 0 -0.130506251 -0.991447486 0 0
-3.497769 0.575761 0.338804 0.0979054138 -0.994655001 -0.0328018138 0 0
-3.552865 0.575761 0.338804 0 -1 0 0 0
-3.552865 0.575761 0.554262 0 -1 0 0 0
-2.509073 0.600676 0.338804 -0.991462122 0.130395018 0 0 0
-2.509073 0.585761 0.008 -0.983058336 -0.129607691 -0.129607691 0 0
-2.509073 0.585761 0.338804 -0.991462122 -0.130395018 0 0 0
-2.509073 0.600676 0.008 -0.983058336 0.129607691 -0.129607691 0 0
-2.443977 0.585761 -0.002 0 -0.130395018 -0.991462122 0 0
-2.499073 0.600676 -0.002 -0.129607691 0.129607691 -0.983058336 0 0
-2.443977 0.600676 -0.002 0 0.130395018 -0.991462122 0 0
-2.499073 0.585761 -0.002 -0.129607691 -0.129607691 -0.983058336 0 0
-3.497769 0.575761 0.008 0.129607691 -0.983058336 -0.129607691 0 0
-3.552865 0.575761 0.008 0 -0.991462122 -0.130395018 0 0
-3.487769 0.585761 0.338804 0.991462122 -0.130395018 0 0 0
-3.487769 0.600676 0.008 0.983058336 0.129607691 -0.129607691 0 0
-3.487769 0.600676 0.338804 0.991462122 0.130395018 0 0 0
-3.487769 0.585761 0.008 0.983058336 -0.129607691 -0.129607691 0 0
-2.443977 0.610676 0.338804 0 1 0 0 0
-2.499073 0.610676 0.008 -0.129607691 0.983058336 -0.129607691 0 0
-2.499073 0.610676 0.338804 -0.0979054138 0.994655001 -0.0328018138 0 0
-2.443977 0.610676 0.008 0 0.991462122 -0.130395018 0 0
-2.499073 0.575761 0.338804 -0.0979054138 -0.994655001 -0.0328018138 0 0
-2.443977 0.575761 0.008 0 -0.991462122 -0.130395018 0 0
-2.443977 0.575761 0.338804 0 -1 0 0 0
-2.499073 0.575761 0.008 -0.129607691 -0.983058336 -0.129607691 0 0
-3.497769 0.610676 0.338804 0.0979054138 0.994655001 -0.0328018138 0 0
-3.552865 0.610676 0.008 0 0.991462122 -0.130395018 0 0
-3.552865 0.610676 0.338804 0 1 0 0 0
-3.497769 0.610676 0.008 0.129607691 0.983058336 -0.129607691 0 0
-2.443977 0.575761 0.554262 0 -1 0 0 0
-3.552865 0.610676 0.554262 0 1 0 0 0
-3.552865 0.600676 -0.002 0 0.130395018 -0.991462122 0 0
-3.497769 0.585761 -0.002 0.129607691 -0.129607691 -0.983058336 0 0
-3.552865 0.585761 -0.002 0 -0.130395018 -0.991462122 0 0
-3.497769 0.600676 -0.002 0.129607691 0.129607691 -0.983058336 0 0
-2.507733 0.605676 0.338804 -0.638007462 0.431005041 -0.638107463 0 0
-2.509073 0.600676 0.338804 -0.694691118 0.186197619 -0.694791117 0 0
-2.509073 0.605676 0.340144 -0.638007462 0.431005041 -0.638107463 0 0
-2.509073 0.609336 0.343804 -0.577283602 0.5773836 -0.5773836 0 0
-2.504073 0.609336 0.338804 -0.577283602 0.5773836 -0.5773836 0 0
-2.504073 0.609336 0.338804 -0.25580665 0.954924824 -0.150603915 0 0
-2.509073 0.609336 0.343804 -0.150600062 0.954900391 -0.255900105 0 0
-3.492769 0.609337 0.338804 0.25580665 0.954924824 -0.150603915 0 0
-3.487769 0.609337 0.343804 0.150600062 0.954900391 -0.255900105 0 0
-3.487769 0.605676 0.340144 0.638007462 0.431005041 -0.638107463 0 0
-3.492769 0.609337 0.338804 0.577316933 0.577316933 -0.577416936 0 0
-3.487769 0.609337 0.343804 0.577316933 0.577316933 -0.577416936 0 0
-3.489109 0.605676 0.338804 0.638007462 0.431005041 -0.638107463 0 0
-3.487769 0.600676 0.338804 0.694691118 0.186197619 -0.694791117 0 0
-3.489109 0.580761 0.338804 0.638034959 -0.430923611 -0.638134964 0 0
-3.487769 0.585761 0.338804 0.694691118 -0.186197619 -0.694791117 0 0
-3.487769 0.580761 0.340144 0.638034959 -0.430923611 -0.638134964 0 0
-3.487769 0.577101 0.343804 0.5773836 -0.577283602 -0.5773836 0 0
-3.492769 0.577101 0.338804 0.5773836 -0.577283602 -0.5773836 0 0
-3.492769 0.577101 0.338804 0.25580665 -0.954924824 -0.150603915 0 0
-3.487769 0.577101 0.343804 0.150600062 -0.954900391 -0.255900105 0 0
-2.504073 0.577101 0.338804 -0.25580665 -0.954924824 -0.150603915 0 0
-2.509073 0.577101 0.343804 -0.150600062 -0.954900391 -0.255900105 0 0
-2.509073 0.580761 0.340144 -0.638007462 -0.431005041 -0.638107463 0 0
-2.504073 0.577101 0.338804 -0.577283602 -0.5773836 -0.5773836 0 0
-2.509073 0.577101 0.343804 -0.577283602 -0.5773836 -0.5773836 0 0
-2.507733 0.580761 0.338804 -0.638007462 -0.431005041 -0.638107463 0 0
-2.509073 0.585761 0.338804 -0.694691118 -0.186197619 -0.694791117 0 0
-2.503855 0.605458 0.000634 -0.447333565 0.447333565 -0.77445811 0 0
-2.499073 0.60567 -0.000664 -0.121598881 0.491595475 -0.862292063 0 0
-2.504066 0.600676 -0.000664 -0.491519637 0.121604858 -0.862334451 0 0
-2.503855 0.608043 0.003218 -0.447333565 0.77445811 -0.447333565 0 0
-2.499073 0.60934 0.003006 -0.121598881 0.862292063 -0.491595475 0 0
-2.504066 0.60934 0.008 -0.491595475 0.862292063 -0.121598881 0 0
-2.506439 0.605458 0.003218 -0.77445811 0.447333565 -0.447333565 0 0
-2.507737 0.60567 0.008 -0.862292063 0.491595475 -0.121598881 0 0
-2.507737 0.600676 0.003006 -0.862334451 0.121604858 -0.491519637 0 0
-3.490403 0.605458 0.003218 0.77445811 0.447333565 -0.447333565 0 0
-3.489105 0.60567 0.008 0.862292063 0.491595475 -0.121598881 0 0
-3.489105 0.600676 0.003006 0.862334451 0.121604858 -0.491519637 0 0
-3.492987 0.608043 0.003218 0.447333565 0.77445811 -0.447333565 0 0
-3.492776 0.60934 0.008 0.491595475 0.862292063 -0.121598881 0 0
-3.497769 0.60934 0.003006 0.121598881 0.862292063 -0.491595475 0 0
-3.492987 0.605458 0.000634 0.447333565 0.447333565 -0.77445811 0 0
-3.497769 0.60567 -0.000664 0.121598881 0.491595475 -0.862292063 0 0
-3.492776 0.600676 -0.000664 0.491519637 0.121604858 -0.862334451 0 0
-3.492987 0.580979 0.000634 0.447333565 -0.447333565 -0.77445811 0 0
-3.497769 0.580768 -0.000664 0.121598881 -0.491595475 -0.862292063 0 0
-3.492776 0.585761 -0.000664 0.491519637 -0.121604858 -0.862334451 0 0
-3.492987 0.578395 0.003218 0.447333565 -0.77445811 -0.447333565 0 0
-3.497769 0.577097 0.003006 0.121598881 -0.862292063 -0.491595475 0 0
-3.492776 0.577097 0.008 0.491595475 -0.862292063 -0.121598881 0 0
-3.490403 0.580979 0.003218 0.77445811 -0.447333565 -0.447333565 0 0
-3.489105 0.580768 0.008 0.862292063 -0.491595475 -0.121598881 0 0
-3.489105 0.585761 0.003006 0.862334451 -0.121604858 -0.491519637 0 0
-2.506439 0.580979 0.003218 -0.77445811 -0.447333565 -0.447333565 0 0
-2.507737 0.580768 0.008 -0.862292063 -0.491595475 -0.121598881 0 0
-2.507737 0.585761 0.003006 -0.862334451 -0.121604858 -0.491519637 0 0
-2.503855 0.578395 0.003218 -0.447333565 -0.77445811 -0.447333565 0 0
-2.504066 0.577097 0.008 -0.491595475 -0.862292063 -0.121598881 0 0
-2.499073 0.577097 0.003006 -0.121598881 -0.862292063 -0.491595475 0 0
-2.503855 0.580979 0.000634 -0.447333565 -0.447333565 -0.77445811 0 0
-2.499073 0.580768 -0.000664 -0.121598881 -0.491595475 -0.862292063 0 0
-2.504066 0.585761 -0.000664 -0.491519637 -0.121604858 -0.862334451 0 0
-2.509073 0.605676 0.340144 0 0.500011 -0.866019053 0 0
-3.487769 0.605676 0.340144 0 0.500011 -0.866019053 0 0
-2.509073 0.609336 0.343804 0 0.707106781 -0.707106781 0 0
-3.487769 0.609337 0.343804 0 0.707106781 -0.707106781 0 0
-3.487769 0.580761 0.340144 0 -0.500011 -0.866019053 0 0
-2.509073 0.580761 0.340144 0 -0.500011 -0.866019053 0 0
-3.487769 0.577101 0.343804 0 -0.707106781 -0.707106781 0 0
-2.509073 0.577101 0.343804 0 -0.707106781 -0.707106781 0 0
-3.552865 0.609337 0.003 0 0.96598553 -0.258596126 0 0
-3.552865 0.605676 -0.00066 0 0.707106781 -0.707106781 0 0
-3.552865 0.609337 0.003 0 0.707106781 -0.707106781 0 0
-3.552865 0.605676 -0.00066 0 0.258596126 -0.96598553 0 0
-2.443977 0.577101 0.003 0 -0.96598553 -0.258596126 0 0
-2.443977 0.580761 -0.00066 0 -0.707106781 -0.707106781 0 0
-2.443977 0.577101 0.003 0 -0.707106781 -0.707106781 0 0
-2.443977 0.580761 -0.00066 0 -0.258596126 -0.96598553 0 0
-2.443977 0.605676 -0.00066 0 0.258596126 -0.96598553 0 0
-2.443977 0.609336 0.003 0 0.707106781 -0.707106781 0 0
-2.443977 0.605676 -0.00066 0 0.707106781 -0.707106781 0 0
-2.443977 0.609336 0.003 0 0.96598553 -0.258596126 0 0
-3.552865 0.580761 -0.00066 0 -0.258596126 -0.96598553 0 0
-3.552865 0.577101 0.003 0 -0.707106781 -0.707106781 0 0
-3.552865 0.580761 -0.00066 0 -0.707106781 -0.707106781 0 0
-3.552865 0.577101 0.003 0 -0.96598553 -0.258596126 0 0
-3.489109 0.580761 0.338804 0.707106781 -0.707106781 0 0 0
-3.492769 0.577101 0.338804 0.707106781 -0.707106781 0 0 0
-3.489109 0.580761 0.338804 0.965960546 -0.258689434 0 0 0
-3.492769 0.609337 0.338804 0.707106781 0.707106781 0 0 0
-3.489109 0.605676 0.338804 0.707106781 0.707106781 0 0 0
-3.489109 0.605676 0.338804 0.965960546 0.258689434 0 0 0
-2.507733 0.605676 0.338804 -0.707106781 0.707106781 0 0 0
-2.504073 0.609336 0.338804 -0.707106781 0.707106781 0 0 0
-2.507733 0.605676 0.338804 -0.965960546 0.258689434 0 0 0
-2.504073 0.577101 0.338804 -0.707106781 -0.707106781 0 0 0
-2.507733 0.580761 0.338804 -0.707106781 -0.707106781 0 0 0
-2.507733 0.580761 0.338804 -0.965960546 -0.258689434 0 0 0
-2.443977 0.610676 0.554262 0 1 0 0 0
-3.502188 2.415662 0.075237 0 -1 0 0 0
-3.510553 2.415662 0.348875 0 -1 0 0 0
-3.510553 2.415662 0.075237 0 -1 0 0 0
-3.502188 2.415662 0.348875 0 -1 0 0 0
-3.502188 2.038337 0.075237 0 0 1 0 0
-3.510553 2.415662 0.075237 0 0 1 0 0
-3.510553 2.038337 0.075237 0 0 1 0 0
-3.502188 2.415662 0.075237 0 0 1 0 0
-3.510553 1.146438 0.075237 0 0 1 0 0
-3.502188 0.685914 0.075237 0 0 1 0 0
-3.502188 1.146438 0.075237 0 0 1 0 0
-3.510553 0.685914 0.075237 0 0 1 0 0
-3.510553 0.685914 0.075237 0 1 0 0 0
-3.502188 0.685914 0.348875 0 1 0 0 0
-3.502188 0.685914 0.075237 0 1 0 0 0
-3.510553 0.685914 0.348875 0 1 0 0 0
-3.502188 1.146438 0.075237 0 -1 0 0 0
-3.510553 1.146438 0.348875 0 -1 0 0 0
-3.510553 1.146438 0.075237 0 -1 0 0 0
-3.502188 1.146438 0.348875 0 -1 0 0 0
-3.502188 1.146438 0.348875 0 0 -1 0 0
-3.510553 0.685914 0.348875 0 0 -1 0 0
-3.510553 1.146438 0.348875 0 0 -1 0 0
-3.502188 0.685914 0.348875 0 0 -1 0 0
-3.510553 2.038337 0.075237 0 1 0 0 0
-3.502188 2.038337 0.348875 0 1 0 0 0
-3.502188 2.038337 0.075237 0 1 0 0 0
-3.510553 2.038337 0.348875 0 1 0 0 0
-3.510553 2.038337 0.348875 0 0 -1 0 0
-3.502188 2.415662 0.348875 0 0 -1 0 0
-3.502188 2.038337 0.348875 0 0 -1 0 0
-3.510553 2.415662 0.348875 0 0 -1 0 0
-3.520553 1.9531 0.338875 0.989827339 0.100602779 0.100602779 0 0
-3.510386 1.9031 0.135237 0.989827339 0.100602779 -0.100602779 0 0
-3.520553 1.9531 0.085237 0.989827339 0.100602779 -0.100602779 0 0
-3.510386 1.9031 0.288875 0.989827339 0.100602779 0.100602779 0 0
-3.520553 0.695914 0.338875 0.989827339 -0.100602779 0.100602779 0 0
-3.510386 1.086438 0.288875 0.989827339 0.100602779 0.100602779 0 0
-3.520553 1.136438 0.338875 0.989827339 0.100602779 0.100602779 0 0
-3.510386 0.745914 0.288875 0.989827339 -0.100602779 0.100602779 0 0
-3.520553 1.231676 0.085237 0.989827339 -0.100602779 -0.100602779 0 0
-3.510386 1.281675 0.288875 0.989827339 -0.100602779 0.100602779 0 0
-3.520553 1.231676 0.338875 0.989827339 -0.100602779 0.100602779 0 0
-3.510386 1.281675 0.135237 0.989827339 -0.100602779 -0.100602779 0 0
-3.520553 0.695914 0.085237 0.989827339 -0.100602779 -0.100602779 0 0
-3.510386 0.745914 0.135237 0.989827339 -0.100602779 -0.100602779 0 0
-3.520553 2.048337 0.085237 0.989827339 -0.100602779 -0.100602779 0 0
-3.510386 2.098337 0.288875 0.989827339 -0.100602779 0.100602779 0 0
-3.520553 2.048337 0.338875 0.989827339 -0.100602779 0.100602779 0 0
-3.510386 2.098337 0.135237 0.989827339 -0.100602779 -0.100602779 0 0
-3.520553 1.136438 0.085237 0.989827339 0.100602779 -0.100602779 0 0
-3.510386 1.086438 0.135237 0.989827339 0.100602779 -0.100602779 0 0
-3.520553 2.405662 0.338875 0.989827339 0.100602779 0.100602779 0 0
-3.510386 2.355662 0.135237 0.989827339 0.100602779 -0.100602779 0 0
-3.520553 2.405662 0.085237 0.989827339 0.100602779 -0.100602779 0 0
-3.510386 2.355662 0.288875 0.989827339 0.100602779 0.100602779 0 0
-3.510553 1.9631 0.075237 0.990251187 -0.0984951448 0.0984951448 0 0
-3.510553 1.221676 0.075237 0.990251187 0.0984951448 0.0984951448 0 0
-3.510553 1.221676 0.348875 0.990251187 0.0984951448 -0.0984951448 0 0
-3.510553 1.9631 0.348875 0.990251187 -0.0984951448 -0.0984951448 0 0
-3.510553 2.415662 0.075237 0.990251187 -0.0984951448 0.0984951448 0 0
-2.49821 2.4909 0 -1 0 0 0 0
-2.49821 2.4909 0.075237 -1 0 0 0 0
-2.49821 2.415662 0.348875 0 -1 0 0 0
-2.489845 2.415662 0.075237 0 -1 0 0 0
-2.489845 2.415662 0.348875 0 -1 0 0 0
-2.49821 2.415662 0.075237 0 -1 0 0 0
-2.49821 2.4909 0.348875 -1 0 0 0 0
-2.49821 2.038338 0.348875 0 0 -1 0 0
-2.489845 2.415662 0.348875 0 0 -1 0 0
-2.489845 2.038337 0.348875 0 0 -1 0 0
-2.49821 2.415662 0.348875 0 0 -1 0 0
-2.489845 1.146438 0.348875 0 0 -1 0 0
-2.49821 0.685914 0.348875 0 0 -1 0 0
-2.49821 1.146438 0.348875 0 0 -1 0 0
-2.489845 0.685914 0.348875 0 0 -1 0 0
-2.49821 2.4909 0.424113 -1 0 0 0 0
-2.489845 1.221676 0.075237 0 0 1 0 0
-2.49821 1.9631 0.075237 0 0 1 0 0
-2.49821 1.221676 0.075237 0 0 1 0 0
-2.489845 1.9631 0.075237 0 0 1 0 0
-2.49821 1.146438 0.348875 0 -1 0 0 0
-2.489845 1.146438 0.075237 0 -1 0 0 0
-2.489845 1.146438 0.348875 0 -1 0 0 0
-2.49821 1.146438 0.075237 0 -1 0 0 0
-2.489845 1.221676 0.348875 0 1 0 0 0
-2.49821 1.221676 0.075237 0 1 0 0 0
-2.49821 1.221676 0.348875 0 1 0 0 0
-2.489845 1.221676 0.075237 0 1 0 0 0
-2.49821 1.146438 0.075237 0 0 1 0 0
-2.489845 0.685914 0.075237 0 0 1 0 0
-2.489845 1.146438 0.075237 0 0 1 0 0
-2.49821 0.685914 0.075237 0 0 1 0 0
-2.489845 2.038337 0.348875 0 1 0 0 0
-2.49821 2.038338 0.075237 0 1 0 0 0
-2.49821 2.038338 0.348875 0 1 0 0 0
-2.489845 2.038338 0.075237 0 1 0 0 0
-2.489845 2.038338 0.075237 0 0 1 0 0
-2.49821 2.415662 0.075237 0 0 1 0 0
-2.49821 2.038338 0.075237 0 0 1 0 0
-2.489845 2.415662 0.075237 0 0 1 0 0
-2.479903 1.136438 0.338875 -0.198000392 -0.980201941 0 0 0
-2.479903 1.136438 0.085237 -0.198000392 -0.980201941 0 0 0
-2.479903 0.695914 0.338875 -0.197904309 0 -0.980221345 0 0
-2.479903 1.136438 0.338875 -0.197904309 0 -0.980221345 0 0
-2.489845 0.685914 0.348875 -0.990239487 0.0986039319 -0.0985039279 0 0
-2.479903 0.695914 0.085237 -0.198000392 0.980201941 0 0 0
-2.479903 0.695914 0.338875 -0.198000392 0.980201941 0 0 0
-2.489845 0.685914 0.075237 -0.990239487 0.0986039319 0.0985039279 0 0
-2.479903 1.136438 0.085237 -0.198000392 0 0.980201941 0 0
-2.479903 0.695914 0.085237 -0.198000392 0 0.980201941 0 0
-2.479903 1.231676 0.338875 -0.197904309 0 -0.980221345 0 0
-2.479903 1.9531 0.338875 -0.197904309 0 -0.980221345 0 0
-2.489845 1.9631 0.348875 -0.990249246 -0.0985048988 -0.0985048988 0 0
-2.489845 1.221676 0.348875 -0.990249246 0.0985048988 -0.0985048988 0 0
-2.479903 1.9531 0.085237 -0.198000392 0 0.980201941 0 0
-2.479903 1.231676 0.085237 -0.198000392 0 0.980201941 0 0
-2.489845 1.221676 0.075237 -0.990251187 0.0984951448 0.0984951448 0 0
-2.489845 1.9631 0.075237 -0.990249246 -0.0985048988 0.0985048988 0 0
-2.479903 1.231676 0.085237 -0.198000392 0.980201941 0 0 0
-2.479903 1.231676 0.338875 -0.198000392 0.980201941 0 0 0
-2.479903 1.9531 0.338875 -0.197904309 -0.980221345 0 0 0
-2.479903 1.9531 0.085237 -0.197904309 -0.980221345 0 0 0
-2.479903 2.405663 0.085237 -0.198000392 0 0.980201941 0 0
-2.479903 2.048337 0.085237 -0.198000392 0 0.980201941 0 0
-2.489845 2.038338 0.075237 -0.990251187 0.0984951448 0.0984951448 0 0
-2.489845 2.415662 0.075237 -0.990249246 -0.0985048988 0.0985048988 0 0
-2.479903 2.048337 0.338875 -0.197904309 0 -0.980221345 0 0
-2.479903 2.405663 0.338875 -0.197904309 0 -0.980221345 0 0
-2.489845 2.415662 0.348875 -0.990249246 -0.0985048988 -0.0985048988 0 0
-2.489845 2.038337 0.348875 -0.990251187 0.0984951448 -0.0984951448 0 0
-2.479903 2.405663 0.338875 -0.197904309 -0.980221345 0 0 0
-2.479903 2.405663 0.085237 -0.197904309 -0.980221345 0 0 0
-2.479903 2.048337 0.085237 -0.197904309 0.980221345 0 0 0
-2.479903 2.048337 0.338875 -0.197904309 0.980221345 0 0 0
-3.502188 2.4909 0 0 -1 0 0 0
-3.502188 2.4909 0.075237 0 -1 0 0 0
-3.42695 2.4909 0.348875 1 0 0 0 0
-3.42695 2.499265 0.075237 1 0 0 0 0
-3.42695 2.499265 0.348875 1 0 0 0 0
-3.42695 2.4909 0.075237 1 0 0 0 0
-3.502188 2.4909 0.348875 0 -1 0 0 0
-2.49821 2.4909 0.075237 0 -1 0 0 0
-2.49821 2.4909 0 0 -1 0 0 0
-3.502188 2.4909 0.424113 0 -1 0 0 0
-2.573447 2.4909 0.348875 0 0 -1 0 0
-2.974388 2.499265 0.348875 0 0 -1 0 0
-2.573447 2.499265 0.348875 0 0 -1 0 0
-2.974388 2.4909 0.348875 0 0 -1 0 0
-2.573447 2.499265 0.075237 0 0 1 0 0
-2.974388 2.4909 0.075237 0 0 1 0 0
-2.573447 2.4909 0.075237 0 0 1 0 0
-2.974388 2.499265 0.075237 0 0 1 0 0
-2.573447 2.499265 0.348875 -1 0 0 0 0
-2.573447 2.4909 0.075237 -1 0 0 0 0
-2.573447 2.4909 0.348875 -1 0 0 0 0
-2.573447 2.499265 0.075237 -1 0 0 0 0
-2.974388 2.4909 0.348875 0.999999995 9.99999995e-05 0 0 0
-2.974388 2.499265 0.075237 0.999999995 9.99999995e-05 0 0 0
-2.974388 2.499265 0.348875 0.999999995 9.99999995e-05 0 0 0
-2.974388 2.4909 0.075237 0.999999995 9.99999995e-05 0 0 0
-3.049625 2.499265 0.075237 0 0 1 0 0
-3.42695 2.4909 0.075237 0 0 1 0 0
-3.049625 2.4909 0.075237 0 0 1 0 0
-3.42695 2.499265 0.075237 0 0 1 0 0
-2.583447 2.509207 0.338875 0 -0.197904309 -0.980221345 0 0
-2.964388 2.509207 0.338875 0 -0.197904309 -0.980221345 0 0
-2.974388 2.499265 0.348875 0.0985048988 -0.990249246 -0.0985048988 0 0
-2.573447 2.499265 0.348875 -0.0985048988 -0.990249246 -0.0985048988 0 0
-2.964388 2.509207 0.085237 0 -0.197904309 0.980221345 0 0
-2.583447 2.509207 0.085237 0 -0.197904309 0.980221345 0 0
-2.573447 2.499265 0.075237 -0.0985048988 -0.990249246 0.0985048988 0 0
-2.974388 2.499265 0.075237 0.0985048988 -0.990249246 0.0985048988 0 0
-2.583447 2.509207 0.085237 -0.980221345 -0.197904309 0 0 0
-2.583447 2.509207 0.338875 -0.980221345 -0.197904309 0 0 0
-2.964388 2.509207 0.338875 0.980201941 -0.198000392 0 0 0
-2.964388 2.509207 0.085237 0.980201941 -0.198000392 0 0 0
-3.41695 2.509207 0.085237 0 -0.198000392 0.980201941 0 0
-3.059625 2.509207 0.085237 0 -0.198000392 0.980201941 0 0
-3.049625 2.499265 0.075237 -0.0984951448 -0.990251187 0.0984951448 0 0
-3.42695 2.499265 0.075237 0.0984951448 -0.990251187 0.0984951448 0 0
-3.059625 2.509207 0.338875 0 -0.197904309 -0.980221345 0 0
-3.41695 2.509207 0.338875 0 -0.197904309 -0.980221345 0 0
-3.42695 2.499265 0.348875 0.0984951448 -0.990251187 -0.0984951448 0 0
-3.049625 2.499265 0.348875 -0.0984951448 -0.990251187 -0.0984951448 0 0
-3.41695 2.509207 0.338875 0.980221345 -0.197904309 0 0 0
-3.41695 2.509207 0.085237 0.980221345 -0.197904309 0 0 0
-3.059625 2.509207 0.085237 -0.980201941 -0.198000392 0 0 0
-3.059625 2.509207 0.338875 -0.980201941 -0.198000392 0 0 0
3 0 1 2
3 0 3 1
3 4 1 5
3 4 2 1
3 6 5 7
3 6 8 5
3 9 3 10
3 9 1 3
3 11 12 13
3 11 14 12
3 15 16 17
3 15 18 16
3 19 20 21
3 19 22 20
3 21 17 19
3 21 15 17
3 14 23 12
3 14 24 23
3 4 8 25
3 4 5 8
3 26 27 28
3 26 29 27
3 30 31 32
3 30 33 31
3 13 34 11
3 13 35 34
3 24 36 23
3 24 37 36
3 18 38 16
3 18 39 38
3 18 36 39
3 18 23 36
3 21 12 15
3 21 13 12
3 40 41 42
3 40 43 41
3 10 35 9
3 10 34 35
3 44 45 46
3 44 47 45
3 7 22 6
3 7 20 22
3 7 35 20
3 7 9 35
3 48 49 50
3 48 51 49
3 52 53 54
3 52 55 53
3 56 57 58
3 56 59 57
3 60 61 62
3 60 63 61
3 64 65 66
3 64 67 65
3 68 69 70
3 68 71 69
3 72 73 74
3 72 75 73
3 76 77 78
3 76 79 77
3 80 81 82
3 80 83 81
3 84 85 86
3 84 87 85
3 88 89 90
3 88 91 89
3 92 93 94
3 92 95 93
3 96 97 98
3 96 99 97
3 100 101 102
3 100 103 101
3 104 105 106
3 104 107 105
3 108 109 110
3 108 111 109
3 111 112 109
3 111 113 112
3 113 114 112
3 113 115 114
3 115 116 114
3 115 117 116
3 118 119 120
3 118 121 119
3 121 122 119
3 121 123 122
3 123 115 122
3 123 124 115
3 124 117 115
3 124 125 117
3 126 127 128
3 126 129 127
3 129 130 127
3 129 131 130
3 131 124 130
3 131 132 124
3 132 125 124
3 132 133 125
3 134 135 136
3 134 137 135
3 137 138 135
3 137 139 138
3 139 132 138
3 139 114 132
3 114 133 132
3 114 116 133
3 140 141 142
3 140 143 141
3 143 144 141
3 143 145 144
3 145 146 144
3 145 147 146
3 148 149 150
3 148 151 149
3 151 152 149
3 151 153 152
3 153 154 152
3 153 155 154
3 156 157 158
3 156 159 157
3 159 160 157
3 159 161 160
3 161 147 160
3 161 154 147
3 162 163 164
3 162 165 163
3 165 166 163
3 165 167 166
3 167 155 166
3 167 146 155
3 168 169 170
3 168 171 169
3 171 172 169
3 171 173 172
3 173 174 172
3 173 175 174
3 175 176 174
3 175 177 176
3 178 179 180
3 178 181 179
3 181 182 179
3 181 183 182
3 183 184 182
3 183 185 184
3 186 187 188
3 186 189 187
3 189 190 187
3 189 191 190
3 191 175 190
3 191 184 175
3 192 193 194
3 192 195 193
3 195 196 193
3 195 197 196
3 197 185 196
3 197 174 185
3 174 198 185
3 174 176 198
3 199 200 201
3 199 202 200
3 203 204 205
3 203 206 204
3 207 208 209
3 207 210 208
3 211 212 213
3 211 214 212
3 215 216 217
3 215 218 216
3 217 213 215
3 217 211 213
3 210 219 208
3 210 220 219
3 221 222 223
3 221 224 222
3 209 225 207
3 209 226 225
3 220 227 219
3 220 228 227
3 214 229 212
3 214 230 229
3 214 227 230
3 214 219 227
3 231 232 233
3 231 234 232
3 217 208 211
3 217 209 208
3 205 226 203
3 205 225 226
3 235 236 237
3 235 238 236
3 201 218 199
3 201 216 218
3 201 226 216
3 201 203 226
3 239 240 241
3 239 242 240
3 243 244 245
3 243 246 244
3 247 248 249
3 247 250 248
3 251 246 243
3 251 252 246
3 249 242 239
3 249 248 242
3 241 250 247
3 241 240 250
3 253 254 255
3 253 256 254
3 257 252 251
3 257 258 252
3 259 260 261
3 259 262 260
3 245 258 257
3 245 244 258
3 261 256 253
3 261 260 256
3 255 262 259
3 255 254 262
3 263 264 265
3 263 266 264
3 267 268 269
3 267 270 268
3 271 272 273
3 271 274 272
3 275 276 277
3 275 278 276
3 279 280 281
3 279 282 280
3 283 284 285
3 283 286 284
3 287 288 289
3 287 290 288
3 291 292 293
3 291 294 292
3 295 296 297
3 295 298 296
3 299 300 301
3 299 302 300
3 303 304 305
3 303 306 304
3 307 308 309
3 307 310 308
3 311 312 313
3 311 314 312
3 315 316 317
3 315 318 316
3 319 320 321
3 319 322 320
3 323 324 325
3 323 326 324
3 326 327 324
3 326 328 327
3 328 329 327
3 328 330 329
3 331 332 333
3 331 334 332
3 334 328 332
3 334 335 328
3 336 337 338
3 336 339 337
3 339 335 337
3 339 340 335
3 341 342 343
3 341 344 342
3 344 340 342
3 344 327 340
3 345 346 347
3 345 348 346
3 348 349 346
3 348 350 349
3 351 352 353
3 351 354 352
3 354 355 352
3 354 356 355
3 357 358 359
3 357 360 358
3 360 350 358
3 360 355 350
3 361 362 363
3 361 364 362
3 364 356 362
3 364 349 356
3 365 366 367
3 365 368 366
3 368 369 366
3 368 370 369
3 371 372 373
3 371 374 372
3 374 375 372
3 374 376 375
3 377 378 379
3 377 380 378
3 380 370 378
3 380 375 370
3 381 382 383
3 381 384 382
3 384 376 382
3 384 369 376
3 385 386 387
3 385 388 386
3 389 390 391
3 389 392 390
3 393 394 395
3 393 396 394
3 395 397 393
3 395 398 397
3 399 400 401
3 399 402 400
3 403 404 405
3 403 406 404
3 391 406 389
3 391 404 406
3 387 396 385
3 387 394 396
3 387 406 394
3 387 389 406
3 407 408 409
3 407 410 408
3 411 412 413
3 411 414 412
3 415 416 417
3 415 418 416
3 417 414 411
3 417 416 414
3 413 418 415
3 413 412 418
3 419 420 421
3 419 422 420
3 423 424 425
3 423 426 424
3 425 422 419
3 425 424 422
3 421 426 423
3 421 420 426
3 427 428 429
3 427 430 428
3 431 432 433
3 431 434 432
3 435 436 437
3 435 438 436
3 439 440 441
3 439 442 440
3 443 444 445
3 443 446 444
3 447 448 449
3 447 450 448
3 451 452 453
3 451 454 452
3 455 456 457
3 455 458 456
3 459 460 461
3 459 462 460
3 463 464 465
3 463 466 464
3 467 468 469
3 467 470 468
3 470 471 468
3 470 472 471
3 473 474 475
3 473 476 474
3 476 477 474
3 476 478 477
3 479 480 481
3 479 482 480
3 482 472 480
3 482 477 472
3 483 484 485
3 483 486 484
3 486 478 484
3 486 471 478
3 487 488 489
3 487 490 488
3 490 491 488
3 490 492 491
3 493 494 495
3 493 496 494
3 496 497 494
3 496 498 497
3 499 500 501
3 499 502 500
3 502 492 500
3 502 497 492
3 503 504 505
3 503 506 504
3 506 498 504
3 506 491 498
3 507 508 509
3 507 510 508
3 511 512 513
3 511 514 512
3 515 516 517
3 515 518 516
3 514 519 512
3 514 520 519
3 514 521 520
3 522 523 524
3 522 525 523
3 526 527 528
3 526 529 527
3 520 530 519
3 520 531 530
3 532 533 534
3 532 535 533
3 536 537 538
3 536 539 537
3 540 541 542
3 540 543 541
3 544 545 546
3 544 547 545
3 548 540 542
3 548 513 540
3 548 511 513
3 549 544 546
3 549 509 544
3 549 507 509
3 550 551 552
3 550 553 551
3 554 555 556
3 557 554 556
3 557 558 554
3 508 559 560
3 508 538 559
3 561 509 562
3 561 544 509
3 563 564 565
3 563 566 564
3 567 566 563
3 568 569 570
3 571 568 570
3 571 572 568
3 512 573 574
3 512 519 573
3 575 513 576
3 575 540 513
3 577 578 579
3 577 580 578
3 581 580 577
3 527 582 583
3 527 584 582
3 583 585 586
3 583 582 585
3 537 585 587
3 537 586 585
3 587 588 589
3 587 585 588
3 525 588 590
3 525 589 588
3 590 582 584
3 590 588 582
3 582 588 585
3 533 591 592
3 533 593 591
3 592 594 595
3 592 591 594
3 547 594 596
3 547 595 594
3 596 597 598
3 596 594 597
3 553 597 599
3 553 598 597
3 599 591 593
3 599 597 591
3 591 597 594
3 551 600 601
3 551 602 600
3 601 603 604
3 601 600 603
3 530 603 605
3 530 604 603
3 605 606 607
3 605 603 606
3 535 606 608
3 535 607 606
3 608 600 602
3 608 606 600
3 600 606 603
3 523 609 610
3 523 611 609
3 610 612 613
3 610 609 612
3 543 612 614
3 543 613 612
3 614 615 616
3 614 612 615
3 529 615 617
3 529 616 615
3 617 609 611
3 617 615 609
3 609 615 612
3 517 618 515
3 517 619 618
3 619 620 618
3 619 621 620
3 562 508 560
3 562 509 508
3 518 622 516
3 518 623 622
3 623 624 622
3 623 625 624
3 576 512 574
3 576 513 512
3 547 626 545
3 547 596 626
3 596 627 628
3 596 598 627
3 598 550 629
3 598 553 550
3 543 630 541
3 543 614 630
3 614 631 632
3 614 616 631
3 616 526 633
3 616 529 526
3 527 634 528
3 527 583 634
3 583 635 636
3 583 586 635
3 586 539 637
3 586 537 539
3 551 638 552
3 551 601 638
3 601 639 640
3 601 604 639
3 604 531 641
3 604 530 531
3 525 611 523
3 525 590 611
3 590 617 611
3 590 584 617
3 584 529 617
3 584 527 529
3 553 602 551
3 553 599 602
3 599 608 602
3 599 593 608
3 593 535 608
3 593 533 535
3 530 573 519
3 530 605 573
3 605 642 643
3 605 607 642
3 607 532 644
3 607 535 532
3 544 595 547
3 544 561 595
3 645 592 595
3 645 646 592
3 647 533 592
3 647 534 533
3 537 559 538
3 537 587 559
3 587 648 649
3 587 589 648
3 589 522 650
3 589 525 522
3 540 613 543
3 540 575 613
3 651 610 613
3 651 652 610
3 653 523 610
3 653 524 523
3 510 538 508
3 510 536 538
3 510 654 536
3 655 656 657
3 655 658 656
3 659 660 661
3 659 662 660
3 663 664 665
3 663 666 664
3 667 668 669
3 667 670 668
3 671 672 673
3 671 674 672
3 675 676 677
3 675 678 676
3 679 680 681
3 679 682 680
3 683 684 685
3 683 686 684
3 687 688 689
3 687 690 688
3 691 692 693
3 691 694 692
3 695 696 697
3 695 698 696
3 699 694 691
3 699 700 694
3 697 690 687
3 697 696 690
3 689 698 695
3 689 688 698
3 701 702 703
3 701 704 702
3 705 700 699
3 705 706 700
3 707 708 709
3 707 710 708
3 693 706 705
3 693 692 706
3 709 704 701
3 709 708 704
3 703 710 707
3 703 702 710
3 147 711 146
3 147 712 711
3 155 713 154
3 155 714 713
3 154 712 147
3 154 713 712
3 146 714 155
3 146 711 714
3 185 715 184
3 185 198 715
3 184 177 175
3 184 715 177
3 716 206 717
3 716 204 206
3 718 719 720
3 718 721 719
3 722 206 200
3 722 717 206
3 723 724 725
3 723 726 724
3 727 728 729
3 727 730 728
3 722 202 731
3 722 200 202
3 732 733 734
3 732 735 733
3 736 737 738
3 736 739 737
3 740 741 742
3 740 743 741
3 744 745 746
3 744 747 745
3 748 749 750
3 748 751 749
3 752 753 754
3 752 755 753
3 756 325 757
3 756 323 325
3 758 333 759
3 758 331 333
3 335 330 328
3 335 760 330
3 761 338 762
3 761 336 338
3 340 760 335
3 340 763 760
3 764 343 765
3 764 341 343
3 327 763 340
3 327 329 763
3 766 347 767
3 766 345 347
3 350 768 349
3 350 769 768
3 770 353 771
3 770 351 353
3 356 772 355
3 356 773 772
3 774 359 775
3 774 357 359
3 355 769 350
3 355 772 769
3 776 363 777
3 776 361 363
3 349 773 356
3 349 768 773
3 778 367 779
3 778 365 367
3 370 780 369
3 370 781 780
3 782 373 783
3 782 371 373
3 376 784 375
3 376 785 784
3 786 379 787
3 786 377 379
3 375 781 370
3 375 784 781
3 788 383 789
3 788 381 383
3 369 785 376
3 369 780 785
3 790 392 791
3 790 390 392
3 792 793 794
3 792 795 793
3 796 392 386
3 796 791 392
3 405 797 403
3 405 798 797
3 796 388 799
3 796 386 388
3 800 801 802
3 800 803 801
3 804 805 806
3 804 807 805
3 395 797 398
3 395 403 797
3 808 809 810
3 808 811 809
3 812 813 814
3 812 815 813
3 816 817 818
3 816 819 817
3 820 469 821
3 820 467 469
3 472 822 471
3 472 823 822
3 824 475 825
3 824 473 475
3 478 826 477
3 478 827 826
3 828 481 829
3 828 479 481
3 477 823 472
3 477 826 823
3 830 485 831
3 830 483 485
3 471 827 478
3 471 822 827
3 832 489 833
3 832 487 489
3 492 834 491
3 492 835 834
3 836 495 837
3 836 493 495
3 498 838 497
3 498 839 838
3 840 501 841
3 840 499 501
3 497 835 492
3 497 838 835
3 842 505 843
3 842 503 505
3 491 839 498
3 491 834 839
