ply
format ascii 1.0
element vertex 576
property float x
property float y
property float z
property float nx
property float ny
property float nz
property float u
property float v
element face 672
property list uchar int vertex_indices
end_header
-2.773757 0.759179 0.399116 0 -0.34309964 0.939299014 0 0
-2.786611 0.759179 0.399117 0 -0.343484734 0.93915826 0 0
-2.780184 0.757974 0.398676 0 -0.34330832 0.939222762 0 0
-2.786355 0.759179 0.399117 0 -0.34330832 0.939222762 0 0
-2.774013 0.759179 0.399116 0 -0.34330832 0.939222762 0 0
-2.7298 0.718009 0.440624 1 0 0 0 0
-2.7298 0.715878 0.443386 1 0 0 0 0
-2.7298 0.71586 0.440638 1 0 0 0 0
-2.7298 0.718027 0.443372 1 0 0 0 0
-2.795083 0.767747 0.402249 0 -0.39458296 0.91886032 0 0
-2.792059 0.762611 0.400371 0 -0.343396532 0.939190514 0 0
-2.791587 0.762611 0.400371 0 -0.343396532 0.939190514 0 0
-2.7957 0.767747 0.402249 0 -0.408892237 0.912582675 0 0
-2.780184 0.757974 0.398676 0 -0.913477227 -0.406889856 0 0
-2.773757 0.760301 0.396608 0.387002815 -0.841306121 -0.377402746 0 0
-2.773757 0.759179 0.399116 0.380795261 -0.8436895 -0.378395291 0 0
-2.780184 0.759088 0.396164 0 -0.913477227 -0.406889856 0 0
-2.75847 0.759176 0.440397 0.718023946 0.695323189 -0.0311010372 0 0
-2.753022 0.75549 0.44317 0.389515902 0.920937598 -0.0123005022 0 0
-2.753022 0.755472 0.440422 0.389515902 0.920937598 -0.0123005022 0 0
-2.75847 0.759275 0.443143 0.721157521 0.692059235 -0.0313981505 0 0
-2.768308 0.762611 0.400371 0.70342646 -0.646424316 -0.295511116 0 0
-2.764668 0.768922 0.399765 0.927877392 -0.334591848 -0.16459599 0 0
-2.764668 0.767747 0.402249 0.925155816 -0.340783725 -0.167192015 0 0
-2.768308 0.763754 0.397872 0.713097593 -0.637497848 -0.291699016 0 0
-2.763389 0.771456 0.43868 0.996526882 0.0802021635 -0.0224006043 0 0
-2.762099 0.765114 0.443052 0.931840215 0.359915532 -0.0462019939 0 0
-2.762099 0.764767 0.440326 0.932727287 0.357610462 -0.0462013516 0 0
-2.763389 0.772574 0.44119 0.995613735 0.090101243 -0.0252003476 0 0
-2.731078 0.743717 0.4405 0.925020693 0.379908499 -0.00250005593 0 0
-2.7298 0.737249 0.443291 0.995265022 0.0971965841 -0.000599978914 0 0
-2.7298 0.737231 0.440543 0.99527469 0.0970975308 -0.000599984743 0 0
-2.731078 0.743736 0.443248 0.925020693 0.379908499 -0.00250005593 0 0
-2.734719 0.749217 0.440464 0.710142574 0.704042209 -0.00470028179 0 0
-2.734719 0.749235 0.443211 0.710142574 0.704042209 -0.00470028179 0 0
-2.746595 0.754182 0.440431 0.196900392 0.980401951 -0.00650001294 0 0
-2.740168 0.75291 0.443187 0.385495615 0.922689504 -0.00609993061 0 0
-2.740168 0.752891 0.440439 0.385495615 0.922689504 -0.00609993061 0 0
-2.746595 0.7542 0.443178 0.196900392 0.980401951 -0.00650001294 0 0
-2.746595 0.754182 0.440431 1 0 0 0 0
-2.746595 0.7542 0.443178 1 0 0 0 0
-2.746595 0.754182 0.440431 1 0 0 0 0
-2.746595 0.7542 0.443178 1 0 0 0 0
-2.746595 0.7542 0.443178 0.196804266 0.980421251 -0.00650014089 0 0
-2.746595 0.754182 0.440431 0.196804266 0.980421251 -0.00650014089 0 0
-2.763389 0.775254 0.402938 0.995925865 -0.0782020309 -0.0449011661 0 0
-2.763389 0.773702 0.405205 0.99557419 -0.0814978872 -0.0467987868 0 0
-2.763389 0.780551 0.429816 1 0 0 0 0
-2.763389 0.782995 0.431071 1 0 0 0 0
-2.830568 0.718009 0.440624 -1 0 0 0 0
-2.830568 0.715878 0.443386 -1 0 0 0 0
-2.830568 0.718027 0.443372 -1 0 0 0 0
-2.830568 0.71586 0.440638 -1 0 0 0 0
-2.786611 0.760301 0.396608 -0.387002815 -0.841306121 -0.377402746 0 0
-2.786611 0.759179 0.399117 -0.380880755 -0.843657371 -0.378380881 0 0
-2.801898 0.759176 0.440397 -0.718023946 0.695323189 -0.0311010372 0 0
-2.807346 0.75549 0.44317 -0.389515902 0.920937598 -0.0123005022 0 0
-2.801898 0.759275 0.443143 -0.721109526 0.692109143 -0.0314004148 0 0
-2.807346 0.755472 0.440422 -0.389515902 0.920937598 -0.0123005022 0 0
-2.792059 0.762611 0.400371 -0.70342646 -0.646424316 -0.295511116 0 0
-2.7957 0.768922 0.399765 -0.927877392 -0.334591848 -0.16459599 0 0
-2.792059 0.763754 0.397872 -0.713097593 -0.637497848 -0.291699016 0 0
-2.7957 0.767747 0.402249 -0.925155816 -0.340783725 -0.167192015 0 0
-2.796978 0.771456 0.43868 -0.996526882 0.0802021635 -0.0224006043 0 0
-2.798269 0.765114 0.443052 -0.931840215 0.359915532 -0.0462019939 0 0
-2.796978 0.772574 0.44119 -0.995613735 0.090101243 -0.0252003476 0 0
-2.798269 0.764767 0.440326 -0.932727287 0.357610462 -0.0462013516 0 0
-2.829289 0.743717 0.4405 -0.925020693 0.379908499 -0.00250005593 0 0
-2.830568 0.737249 0.443291 -0.995265022 0.0971965841 -0.000599978914 0 0
-2.829289 0.743736 0.443248 -0.925020693 0.379908499 -0.00250005593 0 0
-2.830568 0.737231 0.440543 -0.99527469 0.0970975308 -0.000599984743 0 0
-2.825649 0.749217 0.440464 -0.710092576 0.704092639 -0.00469995086 0 0
-2.825649 0.749235 0.443211 -0.710092576 0.704092639 -0.00469995086 0 0
-2.813773 0.754182 0.440431 -0.196804266 0.980421251 -0.00650014089 0 0
-2.8202 0.75291 0.443187 -0.385495615 0.922689504 -0.00609993061 0 0
-2.813773 0.7542 0.443178 -0.196804266 0.980421251 -0.00650014089 0 0
-2.8202 0.752891 0.440439 -0.385495615 0.922689504 -0.00609993061 0 0
-2.813773 0.754182 0.440431 -1 0 0 0 0
-2.813773 0.7542 0.443178 -1 0 0 0 0
-2.813773 0.7542 0.443178 -1 0 0 0 0
-2.813773 0.754182 0.440431 -1 0 0 0 0
-2.813773 0.7542 0.443178 -0.196804266 0.980421251 -0.00650014089 0 0
-2.813773 0.754182 0.440431 -0.196804266 0.980421251 -0.00650014089 0 0
-2.796978 0.775254 0.402938 -0.995925865 -0.0782020309 -0.0449011661 0 0
-2.796978 0.773702 0.405205 -0.99557419 -0.0814978872 -0.0467987868 0 0
-2.796978 0.780551 0.429816 -1 0 0 0 0
-2.796978 0.782995 0.431071 -1 0 0 0 0
-2.796311 0.773702 0.405205 0 -0.534530934 0.84514891 0 0
-2.796978 0.773702 0.405205 0 -0.54017121 0.841555146 0 0
-2.796311 0.777652 0.408316 0 -0.729830289 0.683628371 0 0
-2.796978 0.777652 0.408316 0 -0.729830289 0.683628371 0 0
-2.797549 0.764767 0.440326 0 -0.126606763 -0.991952987 0 0
-2.796978 0.771456 0.43868 0 -0.239004541 -0.97101845 0 0
-2.796311 0.771456 0.43868 0 -0.239004541 -0.97101845 0 0
-2.798269 0.764767 0.440326 0 -0.102097374 -0.99477441 0 0
-2.801034 0.759176 0.440397 0 -0.00970051366 -0.999952949 0 0
-2.801898 0.759176 0.440397 0 -0.00849969295 -0.999963877 0 0
-2.806266 0.755472 0.440422 0 -0.00669984962 -0.999977556 0 0
-2.807346 0.755472 0.440422 0 -0.00669984962 -0.999977556 0 0
-2.812438 0.754182 0.440431 0 -0.00329998203 -0.999994555 0 0
-2.813773 0.754182 0.440431 0 -0.000699999829 -0.999999755 0 0
-2.812438 0.754182 0.440431 0 -0.00329998203 -0.999994555 0 0
-2.813773 0.754182 0.440431 0 -0.00429996025 -0.999990755 0 0
-2.818609 0.752891 0.440439 0 -0.00659985626 -0.999978221 0 0
-2.8202 0.752891 0.440439 0 -0.00659985626 -0.999978221 0 0
-2.823841 0.749217 0.440464 0 -0.00659985626 -0.999978221 0 0
-2.825649 0.749217 0.440464 0 -0.00659985626 -0.999978221 0 0
-2.827337 0.743717 0.4405 0 -0.00659985626 -0.999978221 0 0
-2.829289 0.743717 0.4405 0 -0.00659985626 -0.999978221 0 0
-2.828564 0.737231 0.440543 0 -0.00539992127 -0.99998542 0 0
-2.830568 0.737231 0.440543 0 -0.00529992556 -0.999985955 0 0
-2.828564 0.718009 0.440624 0 -0.00539992127 -0.99998542 0 0
-2.830568 0.718009 0.440624 0 -0.00539992127 -0.99998542 0 0
-2.773757 0.760301 0.396608 0 0.343605194 -0.939114195 0 0
-2.786355 0.760301 0.396608 0 0.343693384 -0.939081923 0 0
-2.774013 0.760301 0.396608 0 0.343693384 -0.939081923 0 0
-2.786611 0.760301 0.396608 0 0.343693384 -0.939081923 0 0
-2.780184 0.759088 0.396164 0 0.343693384 -0.939081923 0 0
-2.768781 0.763754 0.397872 0 0.343693384 -0.939081923 0 0
-2.768308 0.763754 0.397872 0 0.343781565 -0.939049645 0 0
-2.765285 0.768922 0.399765 0 0.396512639 -0.918029263 0 0
-2.764668 0.768922 0.399765 0 0.411013243 -0.911629373 0 0
-2.764057 0.775254 0.402938 0 0.538136743 -0.842857548 0 0
-2.763389 0.775254 0.402938 0 0.543388097 -0.839481611 0 0
-2.764057 0.77967 0.406451 0 0.732387341 -0.680888231 0 0
-2.763389 0.77967 0.406451 0 0.732291106 -0.680991729 0 0
-2.762818 0.765114 0.443052 0 0.129706853 0.991552385 0 0
-2.763389 0.772574 0.44119 0 0.242112051 0.970248295 0 0
-2.764057 0.772574 0.44119 0 0.242112051 0.970248295 0 0
-2.762099 0.765114 0.443052 0 0.106303605 0.994333718 0 0
-2.759334 0.759275 0.443143 0 0.0114003992 0.999935013 0 0
-2.75847 0.759275 0.443143 0 0.00949957134 0.999954878 0 0
-2.754102 0.75549 0.44317 0 0.00689983575 0.999976196 0 0
-2.753022 0.75549 0.44317 0 0.00669984962 0.999977556 0 0
-2.74793 0.7542 0.443178 0 0.00439995741 0.99999032 0 0
-2.746595 0.7542 0.443178 0 0.00669984962 0.999977556 0 0
-2.74793 0.7542 0.443178 0 0 1 0 0
-2.746595 0.7542 0.443178 0 0 1 0 0
-2.74793 0.7542 0.443178 0 0 1 0 0
-2.746595 0.7542 0.443178 0 0 1 0 0
-2.741759 0.75291 0.443187 0 0.00659985626 0.999978221 0 0
-2.746595 0.7542 0.443178 0 0.00669984962 0.999977556 0 0
-2.74793 0.7542 0.443178 0 0.00439995741 0.99999032 0 0
-2.740168 0.75291 0.443187 0 0.00659985626 0.999978221 0 0
-2.736527 0.749235 0.443211 0 0.00659985626 0.999978221 0 0
-2.734719 0.749235 0.443211 0 0.00659985626 0.999978221 0 0
-2.733031 0.743736 0.443248 0 0.00659985626 0.999978221 0 0
-2.731078 0.743736 0.443248 0 0.00659985626 0.999978221 0 0
-2.731803 0.737249 0.443291 0 0.00539992127 0.99998542 0 0
-2.7298 0.737249 0.443291 0 0.00529992556 0.999985955 0 0
-2.731803 0.718027 0.443372 0 0.00539992127 0.99998542 0 0
-2.7298 0.718027 0.443372 0 0.00539992127 0.99998542 0 0
-2.828564 0.715878 0.443386 0 -0.999978221 0.00659985626 0 0
-2.830568 0.71586 0.440638 0 -0.999978221 0.00659985626 0 0
-2.828564 0.71586 0.440638 0 -0.999978221 0.00659985626 0 0
-2.830568 0.715878 0.443386 0 -0.999978221 0.00659985626 0 0
-2.763389 0.77967 0.406451 1 0 0 0 0
-2.763389 0.777652 0.408316 1 0 0 0 0
-2.763389 0.783717 0.412376 1 0 0 0 0
-2.763389 0.781203 0.413486 1 0 0 0 0
-2.763389 0.785178 0.418044 1 0 0 0 0
-2.763389 0.782459 0.418447 1 0 0 0 0
-2.796978 0.77967 0.406451 -1 0 0 0 0
-2.796978 0.777652 0.408316 -1 0 0 0 0
-2.796978 0.783717 0.412376 -1 0 0 0 0
-2.796978 0.781203 0.413486 -1 0 0 0 0
-2.796978 0.785178 0.418045 -1 0 0 0 0
-2.796978 0.782459 0.418447 -1 0 0 0 0
-2.796311 0.782414 0.423756 0 -0.988258133 -0.152793527 0 0
-2.796978 0.782459 0.418447 0 -0.992833712 0.119504058 0 0
-2.796311 0.782459 0.418447 0 -0.992833712 0.119504058 0 0
-2.796978 0.782414 0.423756 0 -0.988258133 -0.152793527 0 0
-2.796978 0.781203 0.413486 9.9999397e-05 -0.911094506 0.412197514 0 0
-2.796311 0.781203 0.413486 0 -0.911077518 0.412235074 0 0
-2.764057 0.785136 0.42413 0 0.988333515 0.152305165 0 0
-2.763389 0.785178 0.418044 0 0.992468986 -0.122496172 0 0
-2.764057 0.785178 0.418044 0 0.992481138 -0.122397674 0 0
-2.763389 0.785136 0.42413 0 0.988318457 0.152402846 0 0
-2.763389 0.783717 0.412376 0 0.910725733 -0.41301167 0 0
-2.764057 0.783717 0.412376 0 0.910725733 -0.41301167 0 0
-2.763389 0.785136 0.42413 1 0 0 0 0
-2.763389 0.782414 0.423756 1 0 0 0 0
-2.796978 0.785136 0.42413 -1 0 0 0 0
-2.796978 0.782414 0.423756 -1 0 0 0 0
-2.796311 0.771456 0.43868 0 -0.69789761 -0.716197547 0 0
-2.796978 0.780551 0.429816 0 -0.853425176 -0.521215376 0 0
-2.796311 0.780551 0.429816 0 -0.853425176 -0.521215376 0 0
-2.796978 0.771456 0.43868 0 -0.69789761 -0.716197547 0 0
-2.764057 0.772574 0.44119 0 0.696579866 0.717479262 0 0
-2.763389 0.782995 0.431071 0 0.852700405 0.522400248 0 0
-2.764057 0.782995 0.431071 0 0.852700405 0.522400248 0 0
-2.763389 0.772574 0.44119 0 0.696528384 0.71752924 0 0
-2.828564 0.71586 0.440638 0 -0.00659985626 -0.999978221 0 0
-2.830568 0.71586 0.440638 0 -0.00659985626 -0.999978221 0 0
-2.731803 0.715878 0.443386 0 0.00659985626 0.999978221 0 0
-2.7298 0.715878 0.443386 0 0.00659985626 0.999978221 0 0
-2.764668 0.767747 0.402249 0 -0.408892237 0.912582675 0 0
-2.768781 0.762611 0.400371 0 -0.3432201 0.939255004 0 0
-2.768308 0.762611 0.400371 0 -0.34330832 0.939222762 0 0
-2.765285 0.767747 0.402249 0 -0.39458296 0.91886032 0 0
-2.763389 0.773702 0.405205 0 -0.540100386 0.841600602 0 0
-2.764057 0.773702 0.405205 0 -0.534530934 0.84514891 0 0
-2.763389 0.777652 0.408316 0 -0.729780395 0.683681633 0 0
-2.764057 0.777652 0.408316 0 -0.729830289 0.683628371 0 0
-2.762099 0.764767 0.440326 0 -0.101998417 -0.994784561 0 0
-2.764057 0.771456 0.43868 0 -0.238910248 -0.971041654 0 0
-2.763389 0.771456 0.43868 0 -0.238910248 -0.971041654 0 0
-2.762818 0.764767 0.440326 0 -0.126606763 -0.991952987 0 0
-2.75847 0.759176 0.440397 0 -0.00849969295 -0.999963877 0 0
-2.759334 0.759176 0.440397 0 -0.00970051366 -0.999952949 0 0
-2.753022 0.755472 0.440422 0 -0.00669984962 -0.999977556 0 0
-2.754102 0.755472 0.440422 0 -0.00669984962 -0.999977556 0 0
-2.746595 0.754182 0.440431 0 -0.000699999829 -0.999999755 0 0
-2.74793 0.754182 0.440431 0 -0.00329998203 -0.999994555 0 0
-2.746595 0.754182 0.440431 0 -0.00429996025 -0.999990755 0 0
-2.74793 0.754182 0.440431 0 -0.00329998203 -0.999994555 0 0
-2.740168 0.752891 0.440439 0 -0.00659985626 -0.999978221 0 0
-2.741759 0.752891 0.440439 0 -0.00659985626 -0.999978221 0 0
-2.734719 0.749217 0.440464 0 -0.00659985626 -0.999978221 0 0
-2.736527 0.749217 0.440464 0 -0.00659985626 -0.999978221 0 0
-2.731078 0.743717 0.4405 0 -0.00659985626 -0.999978221 0 0
-2.733031 0.743717 0.4405 0 -0.00659985626 -0.999978221 0 0
-2.7298 0.737231 0.440543 0 -0.00529992556 -0.999985955 0 0
-2.731803 0.737231 0.440543 0 -0.00539992127 -0.99998542 0 0
-2.7298 0.718009 0.440624 0 -0.00539992127 -0.99998542 0 0
-2.731803 0.718009 0.440624 0 -0.00539992127 -0.99998542 0 0
-2.792059 0.763754 0.397872 0 0.343813849 -0.939037825 0 0
-2.791587 0.763754 0.397872 0 0.343813849 -0.939037825 0 0
-2.7957 0.768922 0.399765 0 0.411096347 -0.911591901 0 0
-2.795083 0.768922 0.399765 0 0.396512639 -0.918029263 0 0
-2.796978 0.775254 0.402938 0 0.543504182 -0.839406459 0 0
-2.796311 0.775254 0.402938 0 0.538207783 -0.842812187 0 0
-2.796978 0.77967 0.406451 0 0.732387341 -0.680888231 0 0
-2.796311 0.77967 0.406451 0 0.732387341 -0.680888231 0 0
-2.798269 0.765114 0.443052 0 0.106402477 0.994323143 0 0
-2.796311 0.772574 0.44119 0 0.242206191 0.970224799 0 0
-2.796978 0.772574 0.44119 0 0.242206191 0.970224799 0 0
-2.797549 0.765114 0.443052 0 0.129706853 0.991552385 0 0
-2.801898 0.759275 0.443143 0 0.00959955766 0.999953923 0 0
-2.801034 0.759275 0.443143 0 0.0114003992 0.999935013 0 0
-2.807346 0.75549 0.44317 0 0.00679984279 0.999976881 0 0
-2.806266 0.75549 0.44317 0 0.00689983575 0.999976196 0 0
-2.813773 0.7542 0.443178 0 0.000799999744 0.99999968 0 0
-2.812438 0.7542 0.443178 0 0.00329998203 0.999994555 0 0
-2.813773 0.7542 0.443178 0 0.00429996025 0.999990755 0 0
-2.812438 0.7542 0.443178 0 0.00329998203 0.999994555 0 0
-2.8202 0.75291 0.443187 0 0.00659985626 0.999978221 0 0
-2.818609 0.75291 0.443187 0 0.00659985626 0.999978221 0 0
-2.825649 0.749235 0.443211 0 0.00659985626 0.999978221 0 0
-2.823841 0.749235 0.443211 0 0.00659985626 0.999978221 0 0
-2.829289 0.743736 0.443248 0 0.00659985626 0.999978221 0 0
-2.827337 0.743736 0.443248 0 0.00659985626 0.999978221 0 0
-2.830568 0.737249 0.443291 0 0.00529992556 0.999985955 0 0
-2.828564 0.737249 0.443291 0 0.00539992127 0.99998542 0 0
-2.830568 0.718027 0.443372 0 0.00539992127 0.99998542 0 0
-2.828564 0.718027 0.443372 0 0.00539992127 0.99998542 0 0
-2.7298 0.715878 0.443386 0 -0.999978221 0.00659985626 0 0
-2.731803 0.71586 0.440638 0 -0.999978221 0.00659985626 0 0
-2.7298 0.71586 0.440638 0 -0.999978221 0.00659985626 0 0
-2.731803 0.715878 0.443386 0 -0.999978221 0.00659985626 0 0
-2.763389 0.782414 0.423756 0 -0.988258133 -0.152793527 0 0
-2.764057 0.782459 0.418447 0 -0.992833712 0.119504058 0 0
-2.763389 0.782459 0.418447 0 -0.992833712 0.119504058 0 0
-2.764057 0.782414 0.423756 0 -0.988273228 -0.152695864 0 0
-2.764057 0.781203 0.413486 0 -0.911077518 0.412235074 0 0
-2.763389 0.781203 0.413486 0 -0.911094511 0.412197517 0 0
-2.796978 0.785136 0.42413 0 0.988318457 0.152402846 0 0
-2.796311 0.785178 0.418045 0 0.992481138 -0.122397674 0 0
-2.796978 0.785178 0.418045 0 0.992468986 -0.122496172 0 0
-2.796311 0.785136 0.42413 0 0.988333515 0.152305165 0 0
-2.796311 0.783717 0.412376 0 0.910725733 -0.41301167 0 0
-2.796978 0.783717 0.412376 0 0.910725733 -0.41301167 0 0
-2.763389 0.771456 0.43868 0 -0.69789761 -0.716197547 0 0
-2.764057 0.780551 0.429816 0 -0.853425176 -0.521215376 0 0
-2.763389 0.780551 0.429816 0 -0.853425176 -0.521215376 0 0
-2.764057 0.771456 0.43868 0 -0.69789761 -0.716197547 0 0
-2.796978 0.772574 0.44119 0 0.696629844 0.717430735 0 0
-2.796311 0.782995 0.431071 0 0.852700405 0.522400248 0 0
-2.796978 0.782995 0.431071 0 0.852700405 0.522400248 0 0
-2.796311 0.772574 0.44119 0 0.696629844 0.717430735 0 0
-2.7298 0.71586 0.440638 0 -0.00659985626 -0.999978221 0 0
-2.731803 0.71586 0.440638 0 -0.00659985626 -0.999978221 0 0
-2.830568 0.715878 0.443386 0 0.00659985626 0.999978221 0 0
-2.828564 0.715878 0.443386 0 0.00659985626 0.999978221 0 0
-3.225205 0.759179 0.399117 0 -0.34330832 0.939222762 0 0
-3.238059 0.759179 0.399117 0 -0.343396532 0.939190514 0 0
-3.231632 0.757974 0.398676 0 -0.34330832 0.939222762 0 0
-3.237803 0.759179 0.399117 0 -0.34330832 0.939222762 0 0
-3.225461 0.759179 0.399117 0 -0.34330832 0.939222762 0 0
-3.181248 0.718009 0.440624 1 0 0 0 0
-3.181248 0.715878 0.443386 0.999999995 9.99999995e-05 0 0 0
-3.181248 0.71586 0.440638 0.999999995 9.99999995e-05 0 0 0
-3.181248 0.718027 0.443372 1 0 0 0 0
-3.246531 0.767747 0.402249 0 -0.394619218 0.918844749 0 0
-3.243507 0.762611 0.400371 0 -0.343396532 0.939190514 0 0
-3.243035 0.762611 0.400371 0 -0.343396532 0.939190514 0 0
-3.247148 0.767747 0.402249 0 -0.409012833 0.912528631 0 0
-3.231632 0.757974 0.398676 0 -0.913477227 -0.406889856 0 0
-3.225205 0.760301 0.396608 0.387002815 -0.841306121 -0.377402746 0 0
-3.225205 0.759179 0.399117 0.380880755 -0.843657371 -0.378380881 0 0
-3.231632 0.759088 0.396164 0 -0.913477227 -0.406889856 0 0
-3.209918 0.759176 0.440397 0.718023946 0.695323189 -0.0311010372 0 0
-3.20447 0.75549 0.44317 0.389515902 0.920937598 -0.0123005022 0 0
-3.20447 0.755472 0.440422 0.389515902 0.920937598 -0.0123005022 0 0
-3.209918 0.759275 0.443143 0.721157521 0.692059235 -0.0313981505 0 0
-3.219756 0.762611 0.400371 0.70342646 -0.646424316 -0.295511116 0 0
-3.216116 0.768922 0.399765 0.927877392 -0.334591848 -0.16459599 0 0
-3.216116 0.767747 0.402249 0.925155816 -0.340783725 -0.167192015 0 0
-3.219756 0.763754 0.397872 0.713097593 -0.637497848 -0.291699016 0 0
-3.214837 0.771456 0.43868 0.996526882 0.0802021635 -0.0224006043 0 0
-3.213547 0.765114 0.443052 0.93185338 0.359881996 -0.0461976888 0 0
-3.213547 0.764767 0.440326 0.932727287 0.357610462 -0.0462013516 0 0
-3.214837 0.772574 0.44119 0.995613735 0.090101243 -0.0252003476 0 0
-3.182526 0.743718 0.4405 0.925020693 0.379908499 -0.00250005593 0 0
-3.181248 0.737249 0.443291 0.995265022 0.0971965841 -0.000599978914 0 0
-3.181248 0.737231 0.440543 0.99527469 0.0970975308 -0.000599984743 0 0
-3.182526 0.743736 0.443248 0.925020693 0.379908499 -0.00250005593 0 0
-3.186167 0.749217 0.440464 0.710092576 0.704092639 -0.00469995086 0 0
-3.186167 0.749235 0.443211 0.710092576 0.704092639 -0.00469995086 0 0
-3.198043 0.754182 0.440431 0.196804266 0.980421251 -0.00650014089 0 0
-3.191616 0.75291 0.443187 0.385495615 0.922689504 -0.00609993061 0 0
-3.191616 0.752892 0.440439 0.385495615 0.922689504 -0.00609993061 0 0
-3.198043 0.7542 0.443178 0.196804266 0.980421251 -0.00650014089 0 0
-3.198043 0.754182 0.440431 0 0 1 0 0
-3.198043 0.7542 0.443178 0 0 1 0 0
-3.198043 0.754182 0.440431 0 0 1 0 0
-3.198043 0.7542 0.443178 0 0 1 0 0
-3.198043 0.7542 0.443178 0.196804266 0.980421251 -0.00650014089 0 0
-3.198043 0.754182 0.440431 0.196804266 0.980421251 -0.00650014089 0 0
-3.214837 0.775254 0.402938 0.995925865 -0.0782020309 -0.0449011661 0 0
-3.214837 0.773702 0.405205 0.99557419 -0.0814978872 -0.0467987868 0 0
-3.214837 0.780551 0.429816 1 0 0 0 0
-3.214837 0.782996 0.431072 1 0 0 0 0
-3.282016 0.718009 0.440624 -1 0 0 0 0
-3.282016 0.715878 0.443386 -1 0 0 0 0
-3.282016 0.718027 0.443372 -1 0 0 0 0
-3.282016 0.71586 0.440638 -1 0 0 0 0
-3.238059 0.760301 0.396608 -0.387002815 -0.841306121 -0.377402746 0 0
-3.238059 0.759179 0.399117 -0.380795261 -0.8436895 -0.378395291 0 0
-3.253345 0.759176 0.440397 -0.718023946 0.695323189 -0.0311010372 0 0
-3.258794 0.75549 0.44317 -0.389515902 0.920937598 -0.0123005022 0 0
-3.253345 0.759275 0.443143 -0.721157521 0.692059235 -0.0313981505 0 0
-3.258794 0.755472 0.440422 -0.389515902 0.920937598 -0.0123005022 0 0
-3.243507 0.762611 0.400371 -0.70342646 -0.646424316 -0.295511116 0 0
-3.247148 0.768922 0.399765 -0.927877392 -0.334591848 -0.16459599 0 0
-3.243507 0.763754 0.397872 -0.713097593 -0.637497848 -0.291699016 0 0
-3.247148 0.767747 0.402249 -0.925155816 -0.340783725 -0.167192015 0 0
-3.248426 0.771456 0.43868 -0.996526882 0.0802021635 -0.0224006043 0 0
-3.249717 0.765114 0.443052 -0.93185338 0.359881996 -0.0461976888 0 0
-3.248426 0.772574 0.44119 -0.995613735 0.090101243 -0.0252003476 0 0
-3.249717 0.764767 0.440326 -0.932727287 0.357610462 -0.0462013516 0 0
-3.280737 0.743718 0.4405 -0.925020693 0.379908499 -0.00250005593 0 0
-3.282016 0.737249 0.443291 -0.995265022 0.0971965841 -0.000599978914 0 0
-3.280737 0.743736 0.443248 -0.925020693 0.379908499 -0.00250005593 0 0
-3.282016 0.737231 0.440543 -0.99527469 0.0970975308 -0.000599984743 0 0
-3.277097 0.749217 0.440464 -0.710092576 0.704092639 -0.00469995086 0 0
-3.277097 0.749235 0.443211 -0.710092576 0.704092639 -0.00469995086 0 0
-3.265221 0.754182 0.440431 -0.196900392 0.980401951 -0.00650001294 0 0
-3.271648 0.75291 0.443187 -0.385495615 0.922689504 -0.00609993061 0 0
-3.265221 0.7542 0.443178 -0.196900392 0.980401951 -0.00650001294 0 0
-3.271648 0.752891 0.440439 -0.385495615 0.922689504 -0.00609993061 0 0
-3.265221 0.754182 0.440431 0 0 1 0 0
-3.265221 0.7542 0.443178 0 0 1 0 0
-3.265221 0.7542 0.443178 0 0 1 0 0
-3.265221 0.754182 0.440431 0 0 1 0 0
-3.265221 0.7542 0.443178 -0.196804266 0.980421251 -0.00650014089 0 0
-3.265221 0.754182 0.440431 -0.196804266 0.980421251 -0.00650014089 0 0
-3.248426 0.775254 0.402938 -0.995925865 -0.0782020309 -0.0449011661 0 0
-3.248426 0.773702 0.405205 -0.99557419 -0.0814978872 -0.0467987868 0 0
-3.248426 0.780551 0.429816 -1 0 0 0 0
-3.248426 0.782996 0.431072 -1 0 0 0 0
-3.247759 0.773702 0.405205 0 -0.53460236 0.845103731 0 0
-3.248426 0.773702 0.405205 0 -0.540216669 0.841525966 0 0
-3.247759 0.777652 0.408316 0 -0.72987702 0.683578478 0 0
-3.248426 0.777652 0.408316 0 -0.72987702 0.683578478 0 0
-3.248997 0.764767 0.440326 0 -0.126606763 -0.991952987 0 0
-3.248426 0.771456 0.43868 0 -0.239004541 -0.97101845 0 0
-3.247759 0.771456 0.43868 0 -0.239004541 -0.97101845 0 0
-3.249717 0.764767 0.440326 0 -0.102097374 -0.99477441 0 0
-3.252482 0.759176 0.440397 0 -0.00970051366 -0.999952949 0 0
-3.253345 0.759176 0.440397 0 -0.00849969295 -0.999963877 0 0
-3.257714 0.755472 0.440422 0 -0.00669984962 -0.999977556 0 0
-3.258794 0.755472 0.440422 0 -0.00669984962 -0.999977556 0 0
-3.263885 0.754182 0.440431 0 0.704702699 -0.709502717 0 0
-3.265221 0.754182 0.440431 0 0.992131029 -0.125203916 0 0
-3.263885 0.754182 0.440431 0 0.7047527 -0.709453051 0 0
-3.265221 0.754182 0.440431 0 0.466191485 -0.884683841 0 0
-3.270057 0.752892 0.440439 0 -0.00659985626 -0.999978221 0 0
-3.271648 0.752891 0.440439 0 -0.00659985626 -0.999978221 0 0
-3.275289 0.749217 0.440464 0 -0.00659985626 -0.999978221 0 0
-3.277097 0.749217 0.440464 0 -0.00659985626 -0.999978221 0 0
-3.278785 0.743718 0.4405 0 -0.00659985626 -0.999978221 0 0
-3.280737 0.743718 0.4405 0 -0.00659985626 -0.999978221 0 0
-3.280012 0.737231 0.440543 0 -0.00539992127 -0.99998542 0 0
-3.282016 0.737231 0.440543 0 -0.00529992556 -0.999985955 0 0
-3.280012 0.718009 0.440624 0 -0.00539992127 -0.99998542 0 0
-3.282016 0.718009 0.440624 0 -0.00539992127 -0.99998542 0 0
-3.225205 0.760301 0.396608 0 0.343990196 -0.93897324 0 0
-3.237803 0.760301 0.396608 0 0.343693384 -0.939081923 0 0
-3.225461 0.760301 0.396608 0 0.343693384 -0.939081923 0 0
-3.238059 0.760301 0.396608 0 0.343693384 -0.939081923 0 0
-3.231632 0.759088 0.396164 0 0.343693384 -0.939081923 0 0
-3.220228 0.763754 0.397872 0 0.343902027 -0.939005535 0 0
-3.219756 0.763754 0.397872 0 0.343902027 -0.939005535 0 0
-3.216733 0.768922 0.399765 0 0.396512639 -0.918029263 0 0
-3.216116 0.768922 0.399765 0 0.411013243 -0.911629373 0 0
-3.215505 0.775254 0.402938 0 0.538136743 -0.842857548 0 0
-3.214837 0.775254 0.402938 0 0.543388097 -0.839481611 0 0
-3.215505 0.77967 0.406451 0 0.732437209 -0.680834587 0 0
-3.214837 0.77967 0.406451 0 0.732437209 -0.680834587 0 0
-3.214266 0.765114 0.443052 0 0.129706853 0.991552385 0 0
-3.214837 0.772574 0.44119 0 0.242112051 0.970248295 0 0
-3.215505 0.772574 0.44119 0 0.242112051 0.970248295 0 0
-3.213547 0.765114 0.443052 0 0.106303605 0.994333718 0 0
-3.210782 0.759275 0.443143 0 0.0113004085 0.999936148 0 0
-3.209918 0.759275 0.443143 0 0.00949957134 0.999954878 0 0
-3.20555 0.75549 0.44317 0 0.00689983575 0.999976196 0 0
-3.20447 0.75549 0.44317 0 0.00669984962 0.999977556 0 0
-3.199378 0.7542 0.443178 0 0.00659985626 0.999978221 0 0
-3.198043 0.7542 0.443178 0 0.00659985626 0.999978221 0 0
-3.199378 0.7542 0.443178 0 0 1 0 0
-3.198043 0.7542 0.443178 0 0 1 0 0
-3.199378 0.7542 0.443178 0 0 1 0 0
-3.198043 0.7542 0.443178 0 0 1 0 0
-3.193207 0.75291 0.443187 0 0.00659985626 0.999978221 0 0
-3.198043 0.7542 0.443178 0 0.00669984962 0.999977556 0 0
-3.199378 0.7542 0.443178 0 0.00669984962 0.999977556 0 0
-3.191616 0.75291 0.443187 0 0.00659985626 0.999978221 0 0
-3.187975 0.749235 0.443211 0 0.00659985626 0.999978221 0 0
-3.186167 0.749235 0.443211 0 0.00659985626 0.999978221 0 0
-3.184479 0.743736 0.443248 0 0.00659985626 0.999978221 0 0
-3.182526 0.743736 0.443248 0 0.00659985626 0.999978221 0 0
-3.183251 0.737249 0.443291 0 0.00539992127 0.99998542 0 0
-3.181248 0.737249 0.443291 0 0.00529992556 0.999985955 0 0
-3.183251 0.718027 0.443372 0 0.00539992127 0.99998542 0 0
-3.181248 0.718027 0.443372 0 0.00539992127 0.99998542 0 0
-3.280012 0.715878 0.443386 0 -0.999978221 0.00659985626 0 0
-3.282016 0.71586 0.440638 0 -0.999978221 0.00659985626 0 0
-3.280012 0.71586 0.440638 0 -0.999978221 0.00659985626 0 0
-3.282016 0.715878 0.443386 0 -0.999978221 0.00659985626 0 0
-3.214837 0.77967 0.406451 1 0 0 0 0
-3.214837 0.777652 0.408316 1 0 0 0 0
-3.214837 0.783717 0.412376 1 0 0 0 0
-3.214837 0.781203 0.413486 1 0 0 0 0
-3.214837 0.785178 0.418045 0.999999995 9.99999995e-05 0 0 0
-3.214837 0.782459 0.418447 0.999999995 9.99999995e-05 0 0 0
-3.248426 0.77967 0.406451 -1 0 0 0 0
-3.248426 0.777652 0.408316 -1 0 0 0 0
-3.248426 0.783717 0.412376 -0.999999995 9.99999995e-05 0 0 0
-3.248426 0.781203 0.413486 -0.999999995 9.99999995e-05 0 0 0
-3.248426 0.785178 0.418045 -1 0 0 0 0
-3.248426 0.782459 0.418447 -1 0 0 0 0
-3.247759 0.782414 0.423756 0 -0.988273228 -0.152695864 0 0
-3.248426 0.782459 0.418447 0 -0.992833712 0.119504058 0 0
-3.247759 0.782459 0.418447 0 -0.992833712 0.119504058 0 0
-3.248426 0.782414 0.423756 0 -0.988258133 -0.152793527 0 0
-3.248426 0.781203 0.413486 0 -0.911094511 0.412197517 0 0
-3.247759 0.781203 0.413486 0 -0.911094511 0.412197517 0 0
-3.215505 0.785137 0.42413 0 0.988333515 0.152305165 0 0
-3.214837 0.785178 0.418045 0 0.992468986 -0.122496172 0 0
-3.215505 0.785178 0.418045 0 0.992468986 -0.122496172 0 0
-3.214837 0.785137 0.42413 0 0.988318457 0.152402846 0 0
-3.214837 0.783717 0.412376 0 0.910725733 -0.41301167 0 0
-3.215505 0.783717 0.412376 0 0.910763346 -0.41292872 0 0
-3.214837 0.785137 0.42413 0.999999995 9.99999995e-05 0 0 0
-3.214837 0.782414 0.423756 0.999999995 9.99999995e-05 0 0 0
-3.248426 0.785137 0.42413 -1 0 0 0 0
-3.248426 0.782414 0.423756 -1 0 0 0 0
-3.247759 0.771456 0.43868 0 -0.69789761 -0.716197547 0 0
-3.248426 0.780551 0.429816 0 -0.853425176 -0.521215376 0 0
-3.247759 0.780551 0.429816 0 -0.853425176 -0.521215376 0 0
-3.248426 0.771456 0.43868 0 -0.69789761 -0.716197547 0 0
-3.215505 0.772574 0.44119 0 0.696629844 0.717430735 0 0
-3.214837 0.782996 0.431072 0 0.852700405 0.522400248 0 0
-3.215505 0.782996 0.431072 0 0.852700405 0.522400248 0 0
-3.214837 0.772574 0.44119 0 0.696629844 0.717430735 0 0
-3.280012 0.71586 0.440638 0 -0.00659985626 -0.999978221 0 0
-3.282016 0.71586 0.440638 0 -0.00659985626 -0.999978221 0 0
-3.183251 0.715878 0.443386 0 0.00659985626 0.999978221 0 0
-3.181248 0.715878 0.443386 0 0.00659985626 0.999978221 0 0
-3.216116 0.767747 0.402249 0 -0.408808953 0.912619987 0 0
-3.220228 0.762611 0.400371 0 -0.34330832 0.939222762 0 0
-3.219756 0.762611 0.400371 0 -0.343396532 0.939190514 0 0
-3.216733 0.767747 0.402249 0 -0.394498529 0.918896572 0 0
-3.214837 0.773702 0.405205 0 -0.540100386 0.841600602 0 0
-3.215505 0.773702 0.405205 0 -0.534485759 0.845177481 0 0
-3.214837 0.777652 0.408316 0 -0.72987702 0.683578478 0 0
-3.215505 0.777652 0.408316 0 -0.72987702 0.683578478 0 0
-3.213547 0.764767 0.440326 0 -0.101998417 -0.994784561 0 0
-3.215505 0.771456 0.43868 0 -0.238910248 -0.971041654 0 0
-3.214837 0.771456 0.43868 0 -0.238910248 -0.971041654 0 0
-3.214266 0.764767 0.440326 0 -0.126606763 -0.991952987 0 0
-3.209918 0.759176 0.440397 0 -0.00849969295 -0.999963877 0 0
-3.210782 0.759176 0.440397 0 -0.00970051366 -0.999952949 0 0
-3.20447 0.755472 0.440422 0 -0.00669984962 -0.999977556 0 0
-3.20555 0.755472 0.440422 0 -0.00669984962 -0.999977556 0 0
-3.198043 0.754182 0.440431 0 -0.00659985626 -0.999978221 0 0
-3.199378 0.754182 0.440431 0 0.442487502 -0.896774671 0 0
-3.198043 0.754182 0.440431 0 0 1 0 0
-3.199378 0.754182 0.440431 0 0 1 0 0
-3.198043 0.754182 0.440431 0 0 1 0 0
-3.199378 0.754182 0.440431 0 0 1 0 0
-3.199378 0.754182 0.440431 0 0.442407079 -0.896814349 0 0
-3.191616 0.752892 0.440439 0 -0.00659985626 -0.999978221 0 0
-3.198043 0.754182 0.440431 0 -0.00669984962 -0.999977556 0 0
-3.193207 0.752892 0.440439 0 -0.00659985626 -0.999978221 0 0
-3.186167 0.749217 0.440464 0 -0.00659985626 -0.999978221 0 0
-3.187975 0.749217 0.440464 0 -0.00659985626 -0.999978221 0 0
-3.182526 0.743718 0.4405 0 -0.00659985626 -0.999978221 0 0
-3.184479 0.743718 0.4405 0 -0.00659985626 -0.999978221 0 0
-3.181248 0.737231 0.440543 0 -0.00529992556 -0.999985955 0 0
-3.183251 0.737231 0.440543 0 -0.00539992127 -0.99998542 0 0
-3.181248 0.718009 0.440624 0 -0.00539992127 -0.99998542 0 0
-3.183251 0.718009 0.440624 0 -0.00539992127 -0.99998542 0 0
-3.243507 0.763754 0.397872 0 0.343902027 -0.939005535 0 0
-3.243035 0.763754 0.397872 0 0.343813849 -0.939037825 0 0
-3.247148 0.768922 0.399765 0 0.411096347 -0.911591901 0 0
-3.246531 0.768922 0.399765 0 0.396596914 -0.917992858 0 0
-3.248426 0.775254 0.402938 0 0.543504182 -0.839406459 0 0
-3.247759 0.775254 0.402938 0 0.538207783 -0.842812187 0 0
-3.248426 0.77967 0.406451 0 0.732387341 -0.680888231 0 0
-3.247759 0.77967 0.406451 0 0.732387341 -0.680888231 0 0
-3.249717 0.765114 0.443052 0 0.106402477 0.994323143 0 0
-3.247759 0.772574 0.44119 0 0.242206191 0.970224799 0 0
-3.248426 0.772574 0.44119 0 0.242206191 0.970224799 0 0
-3.248997 0.765114 0.443052 0 0.129706853 0.991552385 0 0
-3.253345 0.759275 0.443143 0 0.00959955766 0.999953923 0 0
-3.252482 0.759275 0.443143 0 0.0114003992 0.999935013 0 0
-3.258794 0.75549 0.44317 0 0.00679984279 0.999976881 0 0
-3.257714 0.75549 0.44317 0 0.00689983575 0.999976196 0 0
-3.265221 0.7542 0.443178 0 0.00669984962 0.999977556 0 0
-3.263885 0.7542 0.443178 0 0.00669984962 0.999977556 0 0
-3.265221 0.7542 0.443178 0 0 1 0 0
-3.263885 0.7542 0.443178 0 0 1 0 0
-3.265221 0.7542 0.443178 0 0 1 0 0
-3.263885 0.7542 0.443178 0 0 1 0 0
-3.271648 0.75291 0.443187 0 0.00659985626 0.999978221 0 0
-3.263885 0.7542 0.443178 0 0.00669984962 0.999977556 0 0
-3.265221 0.7542 0.443178 0 0.00669984962 0.999977556 0 0
-3.270057 0.75291 0.443187 0 0.00659985626 0.999978221 0 0
-3.277097 0.749235 0.443211 0 0.00659985626 0.999978221 0 0
-3.275289 0.749235 0.443211 0 0.00659985626 0.999978221 0 0
-3.280737 0.743736 0.443248 0 0.00659985626 0.999978221 0 0
-3.278785 0.743736 0.443248 0 0.00659985626 0.999978221 0 0
-3.282016 0.737249 0.443291 0 0.00529992556 0.999985955 0 0
-3.280012 0.737249 0.443291 0 0.00539992127 0.99998542 0 0
-3.282016 0.718027 0.443372 0 0.00539992127 0.99998542 0 0
-3.280012 0.718027 0.443372 0 0.00539992127 0.99998542 0 0
-3.181248 0.715878 0.443386 0 -0.999978221 0.00659985626 0 0
-3.183251 0.71586 0.440638 0 -0.999978221 0.00659985626 0 0
-3.181248 0.71586 0.440638 0 -0.999978221 0.00659985626 0 0
-3.183251 0.715878 0.443386 0 -0.999978221 0.00659985626 0 0
-3.214837 0.782414 0.423756 0 -0.988258133 -0.152793527 0 0
-3.215505 0.782459 0.418447 0 -0.992833712 0.119504058 0 0
-3.214837 0.782459 0.418447 0 -0.992833712 0.119504058 0 0
-3.215505 0.782414 0.423756 0 -0.988273228 -0.152695864 0 0
-3.215505 0.781203 0.413486 0 -0.911077518 0.412235074 0 0
-3.214837 0.781203 0.413486 0 -0.911094511 0.412197517 0 0
-3.248426 0.785137 0.42413 0 0.988318457 0.152402846 0 0
-3.247759 0.785178 0.418045 0 0.992481138 -0.122397674 0 0
-3.248426 0.785178 0.418045 0 0.992468986 -0.122496172 0 0
-3.247759 0.785137 0.42413 0 0.988333515 0.152305165 0 0
-3.247759 0.783717 0.412376 0 0.910725733 -0.41301167 0 0
-3.248426 0.783717 0.412376 0 0.910725733 -0.41301167 0 0
-3.214837 0.771456 0.43868 0 -0.69789761 -0.716197547 0 0
-3.215505 0.780551 0.429816 0 -0.853425176 -0.521215376 0 0
-3.214837 0.780551 0.429816 0 -0.853425176 -0.521215376 0 0
-3.215505 0.771456 0.43868 0 -0.69789761 -0.716197547 0 0
-3.248426 0.772574 0.44119 0 0.696629844 0.717430735 0 0
-3.247759 0.782996 0.431072 0 0.852700405 0.522400248 0 0
-3.248426 0.782996 0.431072 0 0.852700405 0.522400248 0 0
-3.247759 0.772574 0.44119 0 0.696629844 0.717430735 0 0
-3.181248 0.71586 0.440638 0 -0.00659985626 -0.999978221 0 0
-3.183251 0.71586 0.440638 0 -0.00659985626 -0.999978221 0 0
-3.282016 0.715878 0.443386 0 0.00659985626 0.999978221 0 0
-3.280012 0.715878 0.443386 0 0.00659985626 0.999978221 0 0
3 0 1 2
3 0 3 1
3 0 4 3
3 5 6 7
3 5 8 6
3 9 10 11
3 9 12 10
3 13 14 15
3 13 16 14
3 17 18 19
3 17 20 18
3 21 22 23
3 21 24 22
3 25 26 27
3 25 28 26
3 29 30 31
3 29 32 30
3 33 32 29
3 33 34 32
3 35 36 37
3 35 38 36
3 39 40 41
3 39 42 40
3 19 43 44
3 19 18 43
3 15 24 21
3 15 14 24
3 27 20 17
3 27 26 20
3 23 45 46
3 23 22 45
3 47 28 25
3 47 48 28
3 37 34 33
3 37 36 34
3 49 50 51
3 49 52 50
3 11 1 3
3 11 10 1
3 13 53 16
3 13 54 53
3 55 56 57
3 55 58 56
3 59 60 61
3 59 62 60
3 63 64 65
3 63 66 64
3 67 68 69
3 67 70 68
3 71 69 72
3 71 67 69
3 73 74 75
3 73 76 74
3 77 78 79
3 77 80 78
3 58 81 56
3 58 82 81
3 54 61 53
3 54 59 61
3 66 57 64
3 66 55 57
3 62 83 60
3 62 84 83
3 85 65 86
3 85 63 65
3 76 72 74
3 76 71 72
3 87 12 9
3 87 88 12
3 89 88 87
3 89 90 88
3 91 92 93
3 91 94 92
3 95 94 91
3 95 96 94
3 97 96 95
3 97 98 96
3 99 98 97
3 99 100 98
3 101 100 99
3 101 102 100
3 103 102 101
3 103 104 102
3 105 104 103
3 105 106 104
3 107 106 105
3 107 108 106
3 109 108 107
3 109 110 108
3 111 110 109
3 111 112 110
3 113 114 115
3 113 116 114
3 113 117 116
3 118 113 115
3 118 119 113
3 120 119 118
3 120 121 119
3 122 121 120
3 122 123 121
3 124 123 122
3 124 125 123
3 126 127 128
3 126 129 127
3 130 129 126
3 130 131 129
3 132 131 130
3 132 133 131
3 134 133 132
3 134 135 133
3 136 137 138
3 136 139 137
3 140 141 142
3 140 143 141
3 144 143 140
3 144 145 143
3 146 145 144
3 146 147 145
3 148 147 146
3 148 149 147
3 150 149 148
3 150 151 149
3 152 153 154
3 152 155 153
3 46 156 157
3 46 45 156
3 157 158 159
3 157 156 158
3 159 160 161
3 159 158 160
3 84 162 83
3 84 163 162
3 163 164 162
3 163 165 164
3 165 166 164
3 165 167 166
3 168 169 170
3 168 171 169
3 170 172 173
3 170 169 172
3 173 90 89
3 173 172 90
3 174 175 176
3 174 177 175
3 176 178 179
3 176 175 178
3 179 125 124
3 179 178 125
3 161 180 181
3 161 160 180
3 181 48 47
3 181 180 48
3 167 182 166
3 167 183 182
3 183 86 182
3 183 85 86
3 184 185 186
3 184 187 185
3 186 171 168
3 186 185 171
3 188 189 190
3 188 191 189
3 190 177 174
3 190 189 177
3 31 8 5
3 31 30 8
3 70 51 68
3 70 49 51
3 192 112 111
3 192 193 112
3 194 151 150
3 194 195 151
3 196 197 198
3 196 199 197
3 199 11 197
3 199 9 11
3 198 4 0
3 198 197 4
3 197 3 4
3 197 11 3
3 200 199 196
3 200 201 199
3 201 9 199
3 201 87 9
3 202 201 200
3 202 203 201
3 203 87 201
3 203 89 87
3 204 205 206
3 204 207 205
3 207 93 205
3 207 91 93
3 208 207 204
3 208 209 207
3 209 91 207
3 209 95 91
3 210 209 208
3 210 211 209
3 211 95 209
3 211 97 95
3 212 211 210
3 212 213 211
3 213 97 211
3 213 99 97
3 214 213 212
3 214 215 213
3 215 99 213
3 215 101 99
3 216 215 214
3 216 217 215
3 217 101 215
3 217 103 101
3 218 217 216
3 218 219 217
3 219 103 217
3 219 105 103
3 220 219 218
3 220 221 219
3 221 105 219
3 221 107 105
3 222 221 220
3 222 223 221
3 223 107 221
3 223 109 107
3 224 223 222
3 224 225 223
3 225 109 223
3 225 111 109
3 226 114 116
3 226 227 114
3 227 115 114
3 227 118 115
3 228 227 226
3 228 229 227
3 229 118 227
3 229 120 118
3 230 229 228
3 230 231 229
3 231 120 229
3 231 122 120
3 232 231 230
3 232 233 231
3 233 122 231
3 233 124 122
3 234 235 236
3 234 237 235
3 237 128 235
3 237 126 128
3 238 237 234
3 238 239 237
3 239 126 237
3 239 130 126
3 240 239 238
3 240 241 239
3 241 130 239
3 241 132 130
3 242 241 240
3 242 243 241
3 243 132 241
3 243 134 132
3 244 243 242
3 244 245 243
3 245 134 243
3 245 142 134
3 246 245 244
3 246 247 245
3 247 142 245
3 247 140 142
3 248 247 246
3 248 249 247
3 249 140 247
3 249 144 140
3 250 249 248
3 250 251 249
3 251 144 249
3 251 146 144
3 252 251 250
3 252 253 251
3 253 146 251
3 253 148 146
3 254 253 252
3 254 255 253
3 255 148 253
3 255 150 148
3 256 257 258
3 256 259 257
3 259 154 257
3 259 152 154
3 260 261 262
3 260 263 261
3 263 170 261
3 263 168 170
3 262 264 265
3 262 261 264
3 261 173 264
3 261 170 173
3 265 203 202
3 265 264 203
3 264 89 203
3 264 173 89
3 266 267 268
3 266 269 267
3 269 176 267
3 269 174 176
3 268 270 271
3 268 267 270
3 267 179 270
3 267 176 179
3 271 233 232
3 271 270 233
3 270 124 233
3 270 179 124
3 272 273 274
3 272 275 273
3 275 186 273
3 275 184 186
3 274 263 260
3 274 273 263
3 273 168 263
3 273 186 168
3 276 277 278
3 276 279 277
3 279 190 277
3 279 188 190
3 278 269 266
3 278 277 269
3 277 174 269
3 277 190 174
3 280 225 224
3 280 281 225
3 281 111 225
3 281 192 111
3 282 255 254
3 282 283 255
3 283 150 255
3 283 194 150
3 284 285 286
3 284 287 285
3 284 288 287
3 289 290 291
3 289 292 290
3 293 294 295
3 293 296 294
3 297 298 299
3 297 300 298
3 301 302 303
3 301 304 302
3 305 306 307
3 305 308 306
3 309 310 311
3 309 312 310
3 313 314 315
3 313 316 314
3 317 316 313
3 317 318 316
3 319 320 321
3 319 322 320
3 323 324 325
3 323 326 324
3 303 327 328
3 303 302 327
3 299 308 305
3 299 298 308
3 311 304 301
3 311 310 304
3 307 329 330
3 307 306 329
3 331 312 309
3 331 332 312
3 321 318 317
3 321 320 318
3 333 334 335
3 333 336 334
3 295 285 287
3 295 294 285
3 297 337 300
3 297 338 337
3 339 340 341
3 339 342 340
3 343 344 345
3 343 346 344
3 347 348 349
3 347 350 348
3 351 352 353
3 351 354 352
3 355 353 356
3 355 351 353
3 357 358 359
3 357 360 358
3 361 362 363
3 361 364 362
3 342 365 340
3 342 366 365
3 338 345 337
3 338 343 345
3 350 341 348
3 350 339 341
3 346 367 344
3 346 368 367
3 369 349 370
3 369 347 349
3 360 356 358
3 360 355 356
3 371 296 293
3 371 372 296
3 373 372 371
3 373 374 372
3 375 376 377
3 375 378 376
3 379 378 375
3 379 380 378
3 381 380 379
3 381 382 380
3 383 382 381
3 383 384 382
3 385 384 383
3 385 386 384
3 387 386 385
3 387 388 386
3 389 388 387
3 389 390 388
3 391 390 389
3 391 392 390
3 393 392 391
3 393 394 392
3 395 394 393
3 395 396 394
3 397 398 399
3 397 400 398
3 397 401 400
3 402 397 399
3 402 403 397
3 404 403 402
3 404 405 403
3 406 405 404
3 406 407 405
3 408 407 406
3 408 409 407
3 410 411 412
3 410 413 411
3 414 413 410
3 414 415 413
3 416 415 414
3 416 417 415
3 418 417 416
3 418 419 417
3 420 421 422
3 420 423 421
3 424 425 426
3 424 427 425
3 428 427 424
3 428 429 427
3 430 429 428
3 430 431 429
3 432 431 430
3 432 433 431
3 434 433 432
3 434 435 433
3 436 437 438
3 436 439 437
3 330 440 441
3 330 329 440
3 441 442 443
3 441 440 442
3 443 444 445
3 443 442 444
3 368 446 367
3 368 447 446
3 447 448 446
3 447 449 448
3 449 450 448
3 449 451 450
3 452 453 454
3 452 455 453
3 454 456 457
3 454 453 456
3 457 374 373
3 457 456 374
3 458 459 460
3 458 461 459
3 460 462 463
3 460 459 462
3 463 409 408
3 463 462 409
3 445 464 465
3 445 444 464
3 465 332 331
3 465 464 332
3 451 466 450
3 451 467 466
3 467 370 466
3 467 369 370
3 468 469 470
3 468 471 469
3 470 455 452
3 470 469 455
3 472 473 474
3 472 475 473
3 474 461 458
3 474 473 461
3 315 292 289
3 315 314 292
3 354 335 352
3 354 333 335
3 476 396 395
3 476 477 396
3 478 435 434
3 478 479 435
3 480 481 482
3 480 483 481
3 483 295 481
3 483 293 295
3 482 288 284
3 482 481 288
3 481 287 288
3 481 295 287
3 484 483 480
3 484 485 483
3 485 293 483
3 485 371 293
3 486 485 484
3 486 487 485
3 487 371 485
3 487 373 371
3 488 489 490
3 488 491 489
3 491 377 489
3 491 375 377
3 492 491 488
3 492 493 491
3 493 375 491
3 493 379 375
3 494 493 492
3 494 495 493
3 495 379 493
3 495 381 379
3 496 495 494
3 496 497 495
3 497 381 495
3 497 383 381
3 498 499 500
3 498 501 499
3 502 383 497
3 502 385 383
3 503 502 504
3 503 505 502
3 505 385 502
3 505 387 385
3 506 505 503
3 506 507 505
3 507 387 505
3 507 389 387
3 508 507 506
3 508 509 507
3 509 389 507
3 509 391 389
3 510 509 508
3 510 511 509
3 511 391 509
3 511 393 391
3 512 511 510
3 512 513 511
3 513 393 511
3 513 395 393
3 514 398 400
3 514 515 398
3 515 399 398
3 515 402 399
3 516 515 514
3 516 517 515
3 517 402 515
3 517 404 402
3 518 517 516
3 518 519 517
3 519 404 517
3 519 406 404
3 520 519 518
3 520 521 519
3 521 406 519
3 521 408 406
3 522 523 524
3 522 525 523
3 525 412 523
3 525 410 412
3 526 525 522
3 526 527 525
3 527 410 525
3 527 414 410
3 528 527 526
3 528 529 527
3 529 414 527
3 529 416 414
3 530 529 528
3 530 531 529
3 531 416 529
3 531 418 416
3 532 533 534
3 532 535 533
3 535 422 533
3 535 420 422
3 536 537 538
3 536 539 537
3 539 426 537
3 539 424 426
3 540 539 536
3 540 541 539
3 541 424 539
3 541 428 424
3 542 541 540
3 542 543 541
3 543 428 541
3 543 430 428
3 544 543 542
3 544 545 543
3 545 430 543
3 545 432 430
3 546 545 544
3 546 547 545
3 547 432 545
3 547 434 432
3 548 549 550
3 548 551 549
3 551 438 549
3 551 436 438
3 552 553 554
3 552 555 553
3 555 454 553
3 555 452 454
3 554 556 557
3 554 553 556
3 553 457 556
3 553 454 457
3 557 487 486
3 557 556 487
3 556 373 487
3 556 457 373
3 558 559 560
3 558 561 559
3 561 460 559
3 561 458 460
3 560 562 563
3 560 559 562
3 559 463 562
3 559 460 463
3 563 521 520
3 563 562 521
3 562 408 521
3 562 463 408
3 564 565 566
3 564 567 565
3 567 470 565
3 567 468 470
3 566 555 552
3 566 565 555
3 565 452 555
3 565 470 452
3 568 569 570
3 568 571 569
3 571 474 569
3 571 472 474
3 570 561 558
3 570 569 561
3 569 458 561
3 569 474 458
3 572 513 512
3 572 573 513
3 573 395 513
3 573 476 395
3 574 547 546
3 574 575 547
3 575 434 547
3 575 478 434
