ply
format ascii 1.0
element vertex 580
property float x
property float y
property float z
property float nx
property float ny
property float nz
property float u
property float v
element face 454
property list uchar int vertex_indices
end_header
-3.379326 2.36699 0.521153 0 0 -1 0 0
-3.140164 2.36199 0.521153 0 0 -1 0 0
-3.374326 2.36199 0.521153 0 0 -1 0 0
-3.135164 2.36699 0.521153 0 0 -1 0 0
-2.883215 1.615016 0.544101 0 0.994270123 -0.106896788 0 0
-3.120233 1.610223 0.521153 0 0.978867962 -0.204493307 0 0
-3.117124 1.615016 0.544101 0 0.994270123 -0.106896788 0 0
-2.880106 1.610223 0.521153 0 0.978867962 -0.204493307 0 0
-3.379326 1.605223 0.572761 0.796167975 0 0.605075661 0 0
-3.368435 1.99966 0.558431 0.796167975 0 0.605075661 0 0
-3.379326 2.008199 0.572761 0.796167975 0 0.605075661 0 0
-3.368435 1.615016 0.558431 0.796167975 0 0.605075661 0 0
-3.425756 1.516551 0.572761 0 0 1 0 0
-3.401994 1.505431 0.572761 0 0 1 0 0
-3.392097 1.516551 0.572761 0 0 1 0 0
-3.425756 1.505431 0.572761 0 0 1 0 0
-3.392097 1.516551 0.515441 0 0 -1 0 0
-3.425756 1.505431 0.515441 0 0 -1 0 0
-3.425756 1.516551 0.515441 0 0 -1 0 0
-3.401994 1.505431 0.515441 0 0 -1 0 0
-3.374326 1.610223 0.521153 0.96860585 0 -0.248601502 0 0
-3.368435 1.99966 0.544101 0.991382671 0 -0.13099771 0 0
-3.368435 1.615016 0.544101 0.9911421 0 -0.132805641 0 0
-3.374326 2.003199 0.521153 0.96860585 0 -0.248601502 0 0
-3.135164 1.583272 0.572761 0 0 1 0 0
-3.379326 1.605223 0.572761 0 0 1 0 0
-3.379326 1.583272 0.572761 0 0 1 0 0
-3.135164 1.605223 0.572761 0 0 1 0 0
-3.125232 2.008198 0.521153 0 0 -1 0 0
-3.120233 1.610223 0.521153 0 0 -1 0 0
-3.125233 1.605223 0.521153 0 0 -1 0 0
-3.120233 2.003199 0.521153 0 0 -1 0 0
-3.143273 1.99966 0.544101 0 -0.996834646 -0.0795027632 0 0
-3.374326 2.003199 0.521153 0 -0.988318457 -0.152402846 0 0
-3.140164 2.003199 0.521153 0 -0.988318457 -0.152402846 0 0
-3.368435 1.99966 0.544101 0 -0.996632112 -0.0820026422 0 0
-3.143273 1.615016 0.558431 0 0.825626008 0.564217773 0 0
-3.379326 1.605223 0.572761 0 0.825626008 0.564217773 0 0
-3.135164 1.605223 0.572761 0 0.825626008 0.564217773 0 0
-3.368435 1.615016 0.558431 0 0.825626008 0.564217773 0 0
-3.125232 2.008199 0.572761 0 0 1 0 0
-3.135164 2.008199 0.572761 0 0 1 0 0
-3.125233 1.605223 0.572761 0 0 1 0 0
-3.135164 2.36699 0.515441 0 -1 0 0 0
-3.379326 2.36699 0.521153 0 -1 0 0 0
-3.379326 2.36699 0.515441 0 -1 0 0 0
-3.135164 2.36699 0.521153 0 -1 0 0 0
-3.379326 2.36699 0.572761 0 0 1 0 0
-3.425755 2.411435 0.572761 0 0 1 0 0
-3.425755 2.36699 0.572761 0 0 1 0 0
-3.379326 2.411435 0.572761 0 0 1 0 0
-2.883215 2.355426 0.544101 0 -0.989533279 -0.144304853 0 0
-3.120233 2.36199 0.521153 0 -0.961440881 -0.275011694 0 0
-2.880106 2.36199 0.521153 0 -0.961440881 -0.275011694 0 0
-3.117124 2.355426 0.544101 0 -0.989533279 -0.144304853 0 0
-3.143273 2.027043 0.558431 -0.957600302 0 0.288100091 0 0
-3.143273 2.355426 0.544101 -0.997354098 0 -0.0726966542 0 0
-3.143273 2.027043 0.544101 -0.997518749 0 -0.0704013232 0 0
-3.143273 2.355426 0.558431 -0.955217266 0 0.295905349 0 0
-3.143273 2.355426 0.558431 0 -1 0 0 0
-3.368435 2.355426 0.544101 0 -0.988868035 -0.14879519 0 0
-3.143273 2.355426 0.544101 0 -0.989533279 -0.144304853 0 0
-3.368435 2.355426 0.558431 0 -1 0 0 0
-3.368435 2.027043 0.558431 0.796167975 0 0.605075661 0 0
-3.379326 2.36699 0.572761 0.796167975 0 0.605075661 0 0
-3.379326 2.018505 0.572761 0.796167975 0 0.605075661 0 0
-3.368435 2.355426 0.558431 0.796167975 0 0.605075661 0 0
-3.117124 1.99966 0.544101 0.997518749 0 -0.0704013232 0 0
-3.120233 1.610223 0.521153 0.99095329 0 -0.134207217 0 0
-3.120233 2.003199 0.521153 0.99095329 0 -0.134207217 0 0
-3.117124 1.615016 0.544101 0.99744752 0 -0.0714034017 0 0
-3.125233 1.583272 0.515441 0 0 -1 0 0
-3.135164 1.605223 0.515441 0 0 -1 0 0
-3.125233 1.605223 0.515441 0 0 -1 0 0
-3.135164 1.583272 0.515441 0 0 -1 0 0
-3.135164 2.008198 0.521153 0 0 -1 0 0
-3.374326 2.003199 0.521153 0 0 -1 0 0
-3.379326 2.008199 0.521153 0 0 -1 0 0
-3.140164 2.003199 0.521153 0 0 -1 0 0
-2.880106 1.610223 0.521153 0 0 -1 0 0
-2.875106 1.605223 0.521153 0 0 -1 0 0
-3.368435 2.027043 0.558431 0 1 0 0 0
-3.143273 2.027043 0.544101 0 0.996834646 -0.0795027632 0 0
-3.368435 2.027043 0.544101 0 0.996632112 -0.0820026422 0 0
-3.143273 2.027043 0.558431 0 1 0 0 0
-3.143273 1.615016 0.558431 -0.956545421 0 0.291583363 0 0
-3.143273 1.99966 0.544101 -0.997518749 0 -0.0704013232 0 0
-3.143273 1.615016 0.544101 -0.99744752 0 -0.0714034017 0 0
-3.143273 1.99966 0.558431 -0.957600302 0 0.288100091 0 0
-3.368435 1.615016 0.544101 0 0.993909318 -0.110201033 0 0
-3.140165 1.610223 0.521153 0 0.978867962 -0.204493307 0 0
-3.374326 1.610223 0.521153 0 0.978867962 -0.204493307 0 0
-3.143273 1.615016 0.544101 0 0.994270123 -0.106896788 0 0
-3.135164 2.018504 0.51544 -1 0 0 0 0
-3.135164 2.36699 0.521153 -1 0 0 0 0
-3.135164 2.36699 0.515441 -1 0 0 0 0
-3.135164 2.018504 0.521153 -1 0 0 0 0
-3.392097 1.516551 0.515441 0.882294803 -0.470697228 0 0 0
-3.401994 1.505431 0.572761 0.747011937 -0.664810624 0 0 0
-3.401994 1.505431 0.515441 0.747011937 -0.664810624 0 0 0
-3.392097 1.516551 0.572761 0.882294803 -0.470697228 0 0 0
-3.379326 1.583272 0.515441 0 0 -1 0 0
-3.425756 1.572152 0.515441 0 0 -1 0 0
-3.425756 1.583272 0.515441 0 0 -1 0 0
-3.379326 1.572152 0.515441 0 0 -1 0 0
-3.425756 1.561032 0.515441 0 0 -1 0 0
-3.390181 1.561032 0.515441 0 0 -1 0 0
-3.425756 1.549911 0.515441 0 0 -1 0 0
-3.39497 1.549911 0.515441 0 0 -1 0 0
-3.425756 1.538791 0.515441 0 0 -1 0 0
-3.391139 1.538791 0.515441 0 0 -1 0 0
-3.425756 1.527671 0.515441 0 0 -1 0 0
-3.389223 1.527671 0.515441 0 0 -1 0 0
-3.379326 1.605223 0.521153 0 0 -1 0 0
-3.374326 1.610223 0.521153 0 0 -1 0 0
-3.379326 1.605223 0.515441 1 0 0 0 0
-3.379326 2.008199 0.521153 1 0 0 0 0
-3.379326 1.605223 0.521153 1 0 0 0 0
-3.379326 2.008199 0.515441 1 0 0 0 0
-2.875106 1.605223 0.515441 0 0 -1 0 0
-2.875106 1.583272 0.515441 0 0 -1 0 0
-3.140165 1.610223 0.521153 0 0 -1 0 0
-3.135164 1.605223 0.521153 0 0 -1 0 0
-2.883215 1.99966 0.558431 0 -1 0 0 0
-3.117124 1.99966 0.544101 0 -0.996834646 -0.0795027632 0 0
-2.883215 1.99966 0.544101 0 -0.996834646 -0.0795027632 0 0
-3.117124 1.99966 0.558431 0 -1 0 0 0
-3.135164 2.008198 0.51544 0 -1 0 0 0
-3.379326 2.008199 0.521153 0 -1 0 0 0
-3.379326 2.008199 0.515441 0 -1 0 0 0
-3.135164 2.008198 0.521153 0 -1 0 0 0
-2.875107 2.008198 0.515441 0 0 -1 0 0
-3.125232 2.018504 0.515441 0 0 -1 0 0
-2.875107 2.018504 0.515441 0 0 -1 0 0
-3.125232 2.008198 0.515441 0 0 -1 0 0
-3.120233 2.36199 0.521153 0 0 -1 0 0
-2.875106 2.36699 0.521153 0 0 -1 0 0
-2.880106 2.36199 0.521153 0 0 -1 0 0
-3.125233 2.36699 0.521153 0 0 -1 0 0
-3.379326 2.36699 0.515441 1 0 0 0 0
-3.379326 2.018505 0.521153 1 0 0 0 0
-3.379326 2.018505 0.515441 1 0 0 0 0
-3.379326 2.36699 0.521153 1 0 0 0 0
-3.125233 1.583272 0.572761 0 0 1 0 0
-2.875106 1.605223 0.572761 0 0 1 0 0
-2.875106 1.583272 0.572761 0 0 1 0 0
-3.125233 1.583272 0.572761 0 -1 0 0 0
-3.135164 1.583272 0.515441 0 -1 0 0 0
-3.125233 1.583272 0.515441 0 -1 0 0 0
-3.135164 1.583272 0.572761 0 -1 0 0 0
-3.125233 2.36699 0.515441 0 0 -1 0 0
-3.135164 2.411435 0.515441 0 0 -1 0 0
-3.125233 2.411435 0.515441 0 0 -1 0 0
-3.135164 2.36699 0.515441 0 0 -1 0 0
-3.117124 1.99966 0.558431 0 -0.859059445 0.511875835 0 0
-2.875107 2.008199 0.572761 0 -0.859059445 0.511875835 0 0
-3.125232 2.008199 0.572761 0 -0.859059445 0.511875835 0 0
-2.883215 1.99966 0.558431 0 -0.859059445 0.511875835 0 0
-3.135164 2.36699 0.572761 -0.870309426 0 0.492505334 0 0
-3.135164 2.018505 0.572761 -0.870309426 0 0.492505334 0 0
-2.875107 2.018504 0.515441 0 1 0 0 0
-3.125232 2.018504 0.521153 0 1 0 0 0
-2.875107 2.018504 0.521153 0 1 0 0 0
-3.125232 2.018504 0.515441 0 1 0 0 0
-3.125233 1.605223 0.515441 1 0 0 0 0
-3.125232 2.008198 0.521153 1 0 0 0 0
-3.125233 1.605223 0.521153 1 0 0 0 0
-3.125232 2.008198 0.515441 1 0 0 0 0
-3.379326 1.605223 0.515441 0 1 0 0 0
-3.135164 1.605223 0.521153 0 1 0 0 0
-3.135164 1.605223 0.515441 0 1 0 0 0
-3.379326 1.605223 0.521153 0 1 0 0 0
-3.379326 2.018505 0.515441 0 1 0 0 0
-3.135164 2.018504 0.521153 0 1 0 0 0
-3.135164 2.018504 0.51544 0 1 0 0 0
-3.379326 2.018505 0.521153 0 1 0 0 0
-3.135164 1.605223 0.515441 -1 0 0 0 0
-3.135164 2.008198 0.521153 -1 0 0 0 0
-3.135164 2.008198 0.51544 -1 0 0 0 0
-3.135164 1.605223 0.521153 -1 0 0 0 0
-3.425756 1.505431 0.515441 0 -1 0 0 0
-3.401994 1.505431 0.572761 0 -1 0 0 0
-3.425756 1.505431 0.572761 0 -1 0 0 0
-3.401994 1.505431 0.515441 0 -1 0 0 0
-3.425755 2.36699 0.515441 0 0 -1 0 0
-3.379326 2.411435 0.515441 0 0 -1 0 0
-3.379326 2.36699 0.515441 0 0 -1 0 0
-3.425755 2.411435 0.515441 0 0 -1 0 0
-3.117124 2.027043 0.558431 0.957600302 0 0.288100091 0 0
-3.125233 2.36699 0.572761 0.870309426 0 0.492505334 0 0
-3.125232 2.018505 0.572761 0.870309426 0 0.492505334 0 0
-3.117124 2.355426 0.558431 0.955217266 0 0.295905349 0 0
-3.368435 2.027043 0.558431 0 0.859059445 0.511875835 0 0
-3.135164 2.018505 0.572761 0 0.859059445 0.511875835 0 0
-3.143273 2.027043 0.558431 0 0.859059445 0.511875835 0 0
-3.379326 2.018505 0.572761 0 0.859059445 0.511875835 0 0
-3.425756 1.583272 0.572761 0 0 1 0 0
-3.379326 1.572152 0.572761 0 0 1 0 0
-3.425756 1.572152 0.572761 0 0 1 0 0
-3.390181 1.561032 0.572761 0 0 1 0 0
-3.425756 1.561032 0.572761 0 0 1 0 0
-3.39497 1.549911 0.572761 0 0 1 0 0
-3.425756 1.549911 0.572761 0 0 1 0 0
-3.391139 1.538791 0.572761 0 0 1 0 0
-3.425756 1.538791 0.572761 0 0 1 0 0
-3.389223 1.527671 0.572761 0 0 1 0 0
-3.425756 1.527671 0.572761 0 0 1 0 0
-3.425756 2.008199 0.515441 0 0 -1 0 0
-3.379326 2.018505 0.515441 0 0 -1 0 0
-3.379326 2.008199 0.515441 0 0 -1 0 0
-3.425756 2.018505 0.515441 0 0 -1 0 0
-3.379326 1.605223 0.515441 0 0 -1 0 0
-3.425756 1.605223 0.515441 0 0 -1 0 0
-3.374326 2.36199 0.521153 0 -0.961440881 -0.275011694 0 0
-3.140164 2.36199 0.521153 0 -0.961440881 -0.275011694 0 0
-2.875107 2.008198 0.521153 0 0 -1 0 0
-2.880106 2.003199 0.521153 0 0 -1 0 0
-2.880106 2.003199 0.521153 0 -0.988318457 -0.152402846 0 0
-3.120233 2.003199 0.521153 0 -0.988318457 -0.152402846 0 0
-3.374326 2.023504 0.521153 0 0 -1 0 0
-3.379326 2.018505 0.521153 0 0 -1 0 0
-2.875107 2.018504 0.521153 0 0 -1 0 0
-3.120233 2.023504 0.521153 0 0 -1 0 0
-2.880106 2.023504 0.521153 0 0 -1 0 0
-3.125232 2.018504 0.521153 0 0 -1 0 0
-3.140165 1.610223 0.521153 -0.99095329 0 -0.134207217 0 0
-3.140164 2.003199 0.521153 -0.99095329 0 -0.134207217 0 0
-3.140164 2.023504 0.521153 0 0 -1 0 0
-3.135164 2.018504 0.521153 0 0 -1 0 0
-2.883215 2.027043 0.544101 0 0.996834646 -0.0795027632 0 0
-3.120233 2.023504 0.521153 0 0.988318457 -0.152402846 0 0
-3.117124 2.027043 0.544101 0 0.996834646 -0.0795027632 0 0
-2.880106 2.023504 0.521153 0 0.988318457 -0.152402846 0 0
-3.374326 2.023504 0.521153 0 0.988318457 -0.152402846 0 0
-3.140164 2.023504 0.521153 0 0.988318457 -0.152402846 0 0
-3.135164 2.018504 0.51544 0 0 -1 0 0
-3.368435 2.355426 0.544101 0.990817993 0 -0.135202455 0 0
-3.374326 2.023504 0.521153 0.96860585 0 -0.248601502 0 0
-3.374326 2.36199 0.521153 0.96860585 0 -0.248601502 0 0
-3.368435 2.027043 0.544101 0.991382671 0 -0.13099771 0 0
-3.135164 2.008198 0.51544 0 0 -1 0 0
-3.125233 1.605223 0.515441 0 1 0 0 0
-2.875106 1.605223 0.521153 0 1 0 0 0
-2.875106 1.605223 0.515441 0 1 0 0 0
-3.125233 1.605223 0.521153 0 1 0 0 0
-3.389223 1.527671 0.515441 0.999155114 -0.0410981537 0 0 0
-3.389223 1.527671 0.572761 0.999155114 -0.0410981537 0 0 0
-3.391139 1.538791 0.515441 0.96860585 0.248601502 0 0 0
-3.391139 1.538791 0.572761 0.96860585 0.248601502 0 0 0
-3.39497 1.549911 0.515441 0.945434604 0.325811925 0 0 0
-3.39497 1.549911 0.572761 0.945434604 0.325811925 0 0 0
-3.390181 1.561032 0.515441 0.830910067 -0.556406741 0 0 0
-3.39497 1.549911 0.572761 0.918419324 -0.395608324 0 0 0
-3.39497 1.549911 0.515441 0.918419324 -0.395608324 0 0 0
-3.390181 1.561032 0.572761 0.830910067 -0.556406741 0 0 0
-3.379326 1.572152 0.515441 0.715605149 -0.698505026 0 0 0
-3.379326 1.572152 0.572761 0.715605149 -0.698505026 0 0 0
-3.379326 1.583272 0.515441 1 0 0 0 0
-3.379326 1.572152 0.572761 1 0 0 0 0
-3.379326 1.572152 0.515441 1 0 0 0 0
-3.379326 1.583272 0.572761 1 0 0 0 0
-3.379326 1.583272 0.515441 0 -1 0 0 0
-3.379326 1.583272 0.572761 0 -1 0 0 0
-3.140164 2.023504 0.521153 -0.99095329 0 -0.134207217 0 0
-3.140164 2.36199 0.521153 -0.99095329 0 -0.134207217 0 0
-3.117124 2.355426 0.544101 0.997354098 0 -0.0726966542 0 0
-3.120233 2.023504 0.521153 0.99095329 0 -0.134207217 0 0
-3.120233 2.36199 0.521153 0.99095329 0 -0.134207217 0 0
-3.117124 2.027043 0.544101 0.997518749 0 -0.0704013232 0 0
-3.125233 2.36699 0.515441 1 0 0 0 0
-3.125232 2.018504 0.521153 1 0 0 0 0
-3.125232 2.018504 0.515441 1 0 0 0 0
-3.125233 2.36699 0.521153 1 0 0 0 0
-3.125232 2.008198 0.521153 0 -1 0 0 0
-2.875107 2.008198 0.515441 0 -1 0 0 0
-2.875107 2.008198 0.521153 0 -1 0 0 0
-3.125232 2.008198 0.515441 0 -1 0 0 0
-3.117124 2.355426 0.558431 0 -1 0 0 0
-2.883215 2.355426 0.558431 0 -1 0 0 0
-2.621013 2.36699 0.521153 0 0 -1 0 0
-2.860175 2.36199 0.521153 0 0 -1 0 0
-2.865175 2.36699 0.521153 0 0 -1 0 0
-2.626013 2.36199 0.521153 0 0 -1 0 0
-2.883215 1.99966 0.558431 -0.957600302 0 0.288100091 0 0
-2.875106 1.605223 0.572761 -0.870309426 0 0.492505334 0 0
-2.875107 2.008199 0.572761 -0.870309426 0 0.492505334 0 0
-2.883215 1.615016 0.558431 -0.956545421 0 0.291583363 0 0
-2.574584 1.516551 0.572761 0 0 1 0 0
-2.598345 1.50543 0.572761 0 0 1 0 0
-2.574584 1.50543 0.572761 0 0 1 0 0
-2.608242 1.516551 0.572761 0 0 1 0 0
-2.608242 1.516551 0.515441 0 0 -1 0 0
-2.574584 1.50543 0.515441 0 0 -1 0 0
-2.598345 1.50543 0.515441 0 0 -1 0 0
-2.574584 1.516551 0.515441 0 0 -1 0 0
-2.626013 1.610223 0.521153 -0.96860585 0 -0.248601502 0 0
-2.631904 1.99966 0.544101 -0.991382671 0 -0.13099771 0 0
-2.626013 2.003199 0.521153 -0.96860585 0 -0.248601502 0 0
-2.631904 1.615016 0.544101 -0.9911421 0 -0.132805641 0 0
-2.857066 1.99966 0.544101 0 -0.996834646 -0.0795027632 0 0
-2.626013 2.003199 0.521153 0 -0.988318457 -0.152402846 0 0
-2.631904 1.99966 0.544101 0 -0.996632112 -0.0820026422 0 0
-2.860175 2.003199 0.521153 0 -0.988318457 -0.152402846 0 0
-2.865175 1.583272 0.572761 0 -1 0 0 0
-2.621013 1.583272 0.515441 0 -1 0 0 0
-2.621013 1.583272 0.572761 0 -1 0 0 0
-2.865175 1.583272 0.515441 0 -1 0 0 0
-2.865175 2.36699 0.515441 0 -1 0 0 0
-2.621013 2.36699 0.521153 0 -1 0 0 0
-2.865175 2.36699 0.521153 0 -1 0 0 0
-2.621013 2.36699 0.515441 0 -1 0 0 0
-2.621013 2.36699 0.572761 0 0 1 0 0
-2.574584 2.411435 0.572761 0 0 1 0 0
-2.621013 2.411435 0.572761 0 0 1 0 0
-2.574584 2.36699 0.572761 0 0 1 0 0
-2.857066 2.027043 0.558431 0.957600302 0 0.288100091 0 0
-2.857066 2.355426 0.544101 0.997354098 0 -0.0726966542 0 0
-2.857066 2.355426 0.558431 0.955217266 0 0.295905349 0 0
-2.857066 2.027043 0.544101 0.997518749 0 -0.0704013232 0 0
-2.875106 2.411435 0.515441 0 0 -1 0 0
-2.875106 2.36699 0.515441 0 0 -1 0 0
-2.857066 2.355426 0.558431 0 -1 0 0 0
-2.631904 2.355426 0.544101 0 -0.988868035 -0.14879519 0 0
-2.631904 2.355426 0.558431 0 -1 0 0 0
-2.857066 2.355426 0.544101 0 -0.989533279 -0.144304853 0 0
-2.621013 2.018504 0.572761 0 0 1 0 0
-2.865175 2.008199 0.572761 0 0 1 0 0
-2.621013 2.008198 0.572761 0 0 1 0 0
-2.865175 2.018504 0.572761 0 0 1 0 0
-2.631904 2.355426 0.558431 -0.796167975 0 0.605075661 0 0
-2.621013 2.018504 0.572761 -0.796167975 0 0.605075661 0 0
-2.621013 2.36699 0.572761 -0.796167975 0 0.605075661 0 0
-2.631904 2.027043 0.558431 -0.796167975 0 0.605075661 0 0
-2.574584 2.018504 0.572761 0 0 1 0 0
-2.883215 1.99966 0.544101 -0.997518749 0 -0.0704013232 0 0
-2.880106 1.610223 0.521153 -0.99095329 0 -0.134207217 0 0
-2.883215 1.615016 0.544101 -0.99744752 0 -0.0714034017 0 0
-2.880106 2.003199 0.521153 -0.99095329 0 -0.134207217 0 0
-2.865175 1.605223 0.515441 0 0 -1 0 0
-2.865175 1.583272 0.515441 0 0 -1 0 0
-2.865175 2.008198 0.521153 0 0 -1 0 0
-2.626013 2.003199 0.521153 0 0 -1 0 0
-2.860175 2.003199 0.521153 0 0 -1 0 0
-2.621013 2.008198 0.521153 0 0 -1 0 0
-2.875107 2.018504 0.572761 0 0.859059445 0.511875835 0 0
-3.117124 2.027043 0.558431 0 0.859059445 0.511875835 0 0
-3.125232 2.018505 0.572761 0 0.859059445 0.511875835 0 0
-2.883215 2.027043 0.558431 0 0.859059445 0.511875835 0 0
-2.631904 2.027043 0.558431 0 1 0 0 0
-2.857066 2.027043 0.544101 0 0.996834646 -0.0795027632 0 0
-2.857066 2.027043 0.558431 0 1 0 0 0
-2.631904 2.027043 0.544101 0 0.996632112 -0.0820026422 0 0
-2.857066 1.615016 0.558431 0.956545421 0 0.291583363 0 0
-2.857066 1.99966 0.544101 0.997518749 0 -0.0704013232 0 0
-2.857066 1.99966 0.558431 0.957600302 0 0.288100091 0 0
-2.857066 1.615016 0.544101 0.99744752 0 -0.0714034017 0 0
-2.631904 1.615016 0.544101 0 0.993909318 -0.110201033 0 0
-2.860175 1.610223 0.521153 0 0.978867962 -0.204493307 0 0
-2.857066 1.615016 0.544101 0 0.994270123 -0.106896788 0 0
-2.626013 1.610223 0.521153 0 0.978867962 -0.204493307 0 0
-2.865175 2.018504 0.51544 1 0 0 0 0
-2.865175 2.36699 0.521153 1 0 0 0 0
-2.865175 2.018504 0.521153 1 0 0 0 0
-2.865175 2.36699 0.515441 1 0 0 0 0
-2.608242 1.516551 0.515441 -0.882294803 -0.470697228 0 0 0
-2.598345 1.50543 0.572761 -0.747011937 -0.664810624 0 0 0
-2.608242 1.516551 0.572761 -0.882294803 -0.470697228 0 0 0
-2.598345 1.50543 0.515441 -0.747011937 -0.664810624 0 0 0
-2.621013 1.583272 0.515441 0 0 -1 0 0
-2.574584 1.572152 0.515441 0 0 -1 0 0
-2.621013 1.572152 0.515441 0 0 -1 0 0
-2.574584 1.583272 0.515441 0 0 -1 0 0
-2.574584 1.561032 0.515441 0 0 -1 0 0
-2.610158 1.561032 0.515441 0 0 -1 0 0
-2.574584 1.549911 0.515441 0 0 -1 0 0
-2.605369 1.549911 0.515441 0 0 -1 0 0
-2.574584 1.538791 0.515441 0 0 -1 0 0
-2.6092 1.538791 0.515441 0 0 -1 0 0
-2.574584 1.527671 0.515441 0 0 -1 0 0
-2.611116 1.527671 0.515441 0 0 -1 0 0
-2.621013 1.605223 0.521153 0 0 -1 0 0
-2.626013 1.610223 0.521153 0 0 -1 0 0
-2.621013 1.605223 0.515441 -1 0 0 0 0
-2.621013 2.008198 0.521153 -1 0 0 0 0
-2.621013 2.008198 0.515441 -1 0 0 0 0
-2.621013 1.605223 0.521153 -1 0 0 0 0
-2.860175 1.610223 0.521153 0 0 -1 0 0
-2.865175 1.605223 0.521153 0 0 -1 0 0
-2.865175 2.008198 0.515441 0 -1 0 0 0
-2.621013 2.008198 0.521153 0 -1 0 0 0
-2.865175 2.008198 0.521153 0 -1 0 0 0
-2.621013 2.008198 0.515441 0 -1 0 0 0
-3.125233 2.36699 0.521153 0 -1 0 0 0
-2.875106 2.36699 0.515441 0 -1 0 0 0
-2.875106 2.36699 0.521153 0 -1 0 0 0
-3.125233 2.36699 0.515441 0 -1 0 0 0
-2.621013 2.36699 0.515441 -1 0 0 0 0
-2.621013 2.018504 0.521153 -1 0 0 0 0
-2.621013 2.36699 0.521153 -1 0 0 0 0
-2.621013 2.018504 0.515441 -1 0 0 0 0
-2.883215 1.615016 0.558431 0 0.825626008 0.564217773 0 0
-3.125233 1.605223 0.572761 0 0.825626008 0.564217773 0 0
-2.875106 1.605223 0.572761 0 0.825626008 0.564217773 0 0
-3.117124 1.615016 0.558431 0 0.825626008 0.564217773 0 0
-2.875106 1.583272 0.572761 0 -1 0 0 0
-2.875106 1.583272 0.515441 0 -1 0 0 0
-2.865175 1.583272 0.572761 0 0 1 0 0
-2.865175 1.605223 0.572761 0 0 1 0 0
-2.865175 2.411435 0.515441 0 0 -1 0 0
-2.865175 2.36699 0.515441 0 0 -1 0 0
-3.135164 1.605223 0.572761 -0.870309426 0 0.492505334 0 0
-3.135164 2.008199 0.572761 -0.870309426 0 0.492505334 0 0
-2.865175 2.018504 0.572761 0.870309426 0 0.492505334 0 0
-2.865175 2.36699 0.572761 0.870309426 0 0.492505334 0 0
-2.875107 2.018504 0.572761 -0.870309426 0 0.492505334 0 0
-2.883215 2.355426 0.558431 -0.955217266 0 0.295905349 0 0
-2.883215 2.027043 0.558431 -0.957600302 0 0.288100091 0 0
-2.875106 2.36699 0.572761 -0.870309426 0 0.492505334 0 0
-3.125232 2.018505 0.572761 0 0 1 0 0
-2.875107 2.008199 0.572761 0 0 1 0 0
-2.875107 2.018504 0.572761 0 0 1 0 0
-2.875106 1.605223 0.515441 -1 0 0 0 0
-2.875107 2.008198 0.521153 -1 0 0 0 0
-2.875107 2.008198 0.515441 -1 0 0 0 0
-2.875106 1.605223 0.521153 -1 0 0 0 0
-2.621013 1.605223 0.515441 0 1 0 0 0
-2.865175 1.605223 0.521153 0 1 0 0 0
-2.621013 1.605223 0.521153 0 1 0 0 0
-2.865175 1.605223 0.515441 0 1 0 0 0
-2.621013 2.018504 0.515441 0 1 0 0 0
-2.865175 2.018504 0.521153 0 1 0 0 0
-2.621013 2.018504 0.521153 0 1 0 0 0
-2.865175 2.018504 0.51544 0 1 0 0 0
-2.865175 1.605223 0.515441 1 0 0 0 0
-2.865175 2.008198 0.521153 1 0 0 0 0
-2.865175 1.605223 0.521153 1 0 0 0 0
-2.865175 2.008198 0.515441 1 0 0 0 0
-2.631904 1.99966 0.558431 -0.796167975 0 0.605075661 0 0
-2.621013 1.605223 0.572761 -0.796167975 0 0.605075661 0 0
-2.621013 2.008198 0.572761 -0.796167975 0 0.605075661 0 0
-2.631904 1.615016 0.558431 -0.796167975 0 0.605075661 0 0
-2.574584 1.50543 0.515441 0 -1 0 0 0
-2.598345 1.50543 0.572761 0 -1 0 0 0
-2.598345 1.50543 0.515441 0 -1 0 0 0
-2.574584 1.50543 0.572761 0 -1 0 0 0
-2.574584 2.36699 0.515441 0 0 -1 0 0
-2.621013 2.411435 0.515441 0 0 -1 0 0
-2.574584 2.411435 0.515441 0 0 -1 0 0
-2.621013 2.36699 0.515441 0 0 -1 0 0
-2.865175 2.36699 0.572761 0 0 1 0 0
-2.875106 2.36699 0.572761 0 0 1 0 0
-2.574584 1.583272 0.572761 0 0 1 0 0
-2.621013 1.572152 0.572761 0 0 1 0 0
-2.574584 1.572152 0.572761 0 0 1 0 0
-2.621013 1.583272 0.572761 0 0 1 0 0
-2.610158 1.561032 0.572761 0 0 1 0 0
-2.574584 1.561032 0.572761 0 0 1 0 0
-2.605369 1.549911 0.572761 0 0 1 0 0
-2.574584 1.549911 0.572761 0 0 1 0 0
-2.6092 1.538791 0.572761 0 0 1 0 0
-2.574584 1.538791 0.572761 0 0 1 0 0
-2.611116 1.527671 0.572761 0 0 1 0 0
-2.574584 1.527671 0.572761 0 0 1 0 0
-2.574584 2.008198 0.515441 0 0 -1 0 0
-2.621013 2.018504 0.515441 0 0 -1 0 0
-2.574584 2.018504 0.515441 0 0 -1 0 0
-2.621013 2.008198 0.515441 0 0 -1 0 0
-2.621013 1.605223 0.515441 0 0 -1 0 0
-2.574584 1.605223 0.515441 0 0 -1 0 0
-2.626013 2.36199 0.521153 0 -0.961440881 -0.275011694 0 0
-2.860175 2.36199 0.521153 0 -0.961440881 -0.275011694 0 0
-2.626013 2.023504 0.521153 0 0 -1 0 0
-2.621013 2.018504 0.521153 0 0 -1 0 0
-2.860175 1.610223 0.521153 0.99095329 0 -0.134207217 0 0
-2.860175 2.003199 0.521153 0.99095329 0 -0.134207217 0 0
-2.860175 2.023504 0.521153 0 0 -1 0 0
-2.865175 2.018504 0.521153 0 0 -1 0 0
-2.626013 2.023504 0.521153 0 0.988318457 -0.152402846 0 0
-2.860175 2.023504 0.521153 0 0.988318457 -0.152402846 0 0
-2.865175 2.018504 0.51544 0 0 -1 0 0
-2.631904 2.355426 0.544101 -0.990817993 0 -0.135202455 0 0
-2.626013 2.023504 0.521153 -0.96860585 0 -0.248601502 0 0
-2.631904 2.027043 0.544101 -0.991382671 0 -0.13099771 0 0
-2.626013 2.36199 0.521153 -0.96860585 0 -0.248601502 0 0
-2.865175 2.008198 0.515441 0 0 -1 0 0
-2.611116 1.527671 0.515441 -0.999155114 -0.0410981537 0 0 0
-2.611116 1.527671 0.572761 -0.999155114 -0.0410981537 0 0 0
-2.6092 1.538791 0.515441 -0.96860585 0.248601502 0 0 0
-2.6092 1.538791 0.572761 -0.96860585 0.248601502 0 0 0
-2.605369 1.549911 0.515441 -0.945476014 0.325691737 0 0 0
-2.605369 1.549911 0.572761 -0.945476014 0.325691737 0 0 0
-2.610158 1.561032 0.515441 -0.830910067 -0.556406741 0 0 0
-2.605369 1.549911 0.572761 -0.918419324 -0.395608324 0 0 0
-2.610158 1.561032 0.572761 -0.830910067 -0.556406741 0 0 0
-2.605369 1.549911 0.515441 -0.918419324 -0.395608324 0 0 0
-2.621013 1.572152 0.515441 -0.715605149 -0.698505026 0 0 0
-2.621013 1.572152 0.572761 -0.715605149 -0.698505026 0 0 0
-2.621013 1.583272 0.515441 -1 0 0 0 0
-2.621013 1.572152 0.572761 -1 0 0 0 0
-2.621013 1.583272 0.572761 -1 0 0 0 0
-2.621013 1.572152 0.515441 -1 0 0 0 0
-2.865175 1.605223 0.572761 0 0.825626008 0.564217773 0 0
-2.631904 1.615016 0.558431 0 0.825626008 0.564217773 0 0
-2.857066 1.615016 0.558431 0 0.825626008 0.564217773 0 0
-2.621013 1.605223 0.572761 0 0.825626008 0.564217773 0 0
-2.860175 2.023504 0.521153 0.99095329 0 -0.134207217 0 0
-2.860175 2.36199 0.521153 0.99095329 0 -0.134207217 0 0
-2.883215 2.355426 0.544101 -0.997354098 0 -0.0726966542 0 0
-2.880106 2.023504 0.521153 -0.99095329 0 -0.134207217 0 0
-2.883215 2.027043 0.544101 -0.997518749 0 -0.0704013232 0 0
-2.880106 2.36199 0.521153 -0.99095329 0 -0.134207217 0 0
-2.875106 2.36699 0.515441 -1 0 0 0 0
-2.875107 2.018504 0.521153 -1 0 0 0 0
-2.875106 2.36699 0.521153 -1 0 0 0 0
-2.875107 2.018504 0.515441 -1 0 0 0 0
-3.425756 1.605223 0.572761 0 0 1 0 0
-3.379326 2.008199 0.572761 0 0 1 0 0
-3.425756 2.008199 0.572761 0 0 1 0 0
-3.117124 1.615016 0.558431 0 1 0 0 0
-2.883215 1.615016 0.558431 0 1 0 0 0
-3.125233 1.605223 0.572761 0.870309426 0 0.492505334 0 0
-3.117124 1.99966 0.558431 0.957600302 0 0.288100091 0 0
-3.125232 2.008199 0.572761 0.870309426 0 0.492505334 0 0
-3.117124 1.615016 0.558431 0.956545421 0 0.291583363 0 0
-2.574584 1.605223 0.572761 0 0 1 0 0
-2.621013 1.605223 0.572761 0 0 1 0 0
-2.574584 2.008198 0.572761 0 0 1 0 0
-3.368435 1.99966 0.558431 1 0 0 0 0
-3.368435 1.615016 0.558431 1 0 0 0 0
-3.368435 1.615016 0.558431 0 1 0 0 0
-3.143273 1.615016 0.558431 0 1 0 0 0
-3.143273 1.99966 0.558431 0 -1 0 0 0
-3.368435 1.99966 0.558431 0 -1 0 0 0
-3.117124 2.027043 0.558431 0 1 0 0 0
-2.883215 2.027043 0.558431 0 1 0 0 0
-2.631904 1.99966 0.558431 -1 0 0 0 0
-2.631904 1.615016 0.558431 -1 0 0 0 0
-2.631904 1.615016 0.558431 0 1 0 0 0
-2.857066 1.615016 0.558431 0 1 0 0 0
-2.857066 1.99966 0.558431 0 -1 0 0 0
-2.631904 1.99966 0.558431 0 -1 0 0 0
-3.368435 2.355426 0.558431 1 0 0 0 0
-3.368435 2.027043 0.558431 1 0 0 0 0
-3.135164 2.36699 0.572761 0 0 1 0 0
-3.135164 2.411435 0.572761 0 0 1 0 0
-2.631904 2.355426 0.558431 -1 0 0 0 0
-2.631904 2.027043 0.558431 -1 0 0 0 0
-3.135164 2.018505 0.572761 0 0 1 0 0
-3.379326 2.018505 0.572761 0 0 1 0 0
-3.425756 2.018505 0.572761 0 0 1 0 0
-2.865175 2.008199 0.572761 0.870309426 0 0.492505334 0 0
-2.865175 1.605223 0.572761 0.870309426 0 0.492505334 0 0
-2.621013 2.018504 0.572761 0 0.859059445 0.511875835 0 0
-2.857066 2.027043 0.558431 0 0.859059445 0.511875835 0 0
-2.865175 2.018504 0.572761 0 0.859059445 0.511875835 0 0
-2.631904 2.027043 0.558431 0 0.859059445 0.511875835 0 0
-3.135164 2.36699 0.572761 0 -0.778208078 0.628006519 0 0
-3.368435 2.355426 0.558431 0 -0.778208078 0.628006519 0 0
-3.143273 2.355426 0.558431 0 -0.778208078 0.628006519 0 0
-3.379326 2.36699 0.572761 0 -0.778208078 0.628006519 0 0
-3.125233 2.36699 0.572761 0 0 1 0 0
-3.125232 2.411435 0.572761 0 0 1 0 0
-3.368435 1.99966 0.558431 0 -0.859059445 0.511875835 0 0
-3.135164 2.008199 0.572761 0 -0.859059445 0.511875835 0 0
-3.379326 2.008199 0.572761 0 -0.859059445 0.511875835 0 0
-3.143273 1.99966 0.558431 0 -0.859059445 0.511875835 0 0
-2.621013 2.36699 0.572761 0 -0.778208078 0.628006519 0 0
-2.857066 2.355426 0.558431 0 -0.778208078 0.628006519 0 0
-2.631904 2.355426 0.558431 0 -0.778208078 0.628006519 0 0
-2.865175 2.36699 0.572761 0 -0.778208078 0.628006519 0 0
-2.865175 2.411435 0.572761 0 0 1 0 0
-2.875106 2.36699 0.572761 0 -0.778208078 0.628006519 0 0
-3.117124 2.355426 0.558431 0 -0.778208078 0.628006519 0 0
-2.883215 2.355426 0.558431 0 -0.778208078 0.628006519 0 0
-3.125233 2.36699 0.572761 0 -0.778208078 0.628006519 0 0
-2.875106 2.411435 0.572761 0 0 1 0 0
-2.621013 2.008198 0.572761 0 -0.859059445 0.511875835 0 0
-2.857066 1.99966 0.558431 0 -0.859059445 0.511875835 0 0
-2.631904 1.99966 0.558431 0 -0.859059445 0.511875835 0 0
-2.865175 2.008199 0.572761 0 -0.859059445 0.511875835 0 0
3 0 1 2
3 0 3 1
3 4 5 6
3 4 7 5
3 8 9 10
3 8 11 9
3 12 13 14
3 12 15 13
3 16 17 18
3 16 19 17
3 20 21 22
3 20 23 21
3 24 25 26
3 24 27 25
3 28 29 30
3 28 31 29
3 32 33 34
3 32 35 33
3 36 37 38
3 36 39 37
3 27 40 41
3 27 42 40
3 43 44 45
3 43 46 44
3 47 48 49
3 47 50 48
3 51 52 53
3 51 54 52
3 55 56 57
3 55 58 56
3 59 60 61
3 59 62 60
3 63 64 65
3 63 66 64
3 67 68 69
3 67 70 68
3 71 72 73
3 71 74 72
3 75 76 77
3 75 78 76
3 30 79 80
3 30 29 79
3 81 82 83
3 81 84 82
3 85 86 87
3 85 88 86
3 89 90 91
3 89 92 90
3 93 94 95
3 93 96 94
3 97 98 99
3 97 100 98
3 101 102 103
3 101 104 102
3 104 105 102
3 104 106 105
3 106 107 105
3 106 108 107
3 108 109 107
3 108 110 109
3 110 111 109
3 110 112 111
3 112 18 111
3 112 16 18
3 113 76 114
3 113 77 76
3 115 116 117
3 115 118 116
3 71 119 120
3 71 73 119
3 113 121 122
3 113 114 121
3 123 124 125
3 123 126 124
3 127 128 129
3 127 130 128
3 131 132 133
3 131 134 132
3 135 136 137
3 135 138 136
3 139 140 141
3 139 142 140
3 143 144 42
3 143 145 144
3 146 147 148
3 146 149 147
3 42 24 143
3 42 27 24
3 150 151 152
3 150 153 151
3 154 155 156
3 154 157 155
3 55 158 58
3 55 159 158
3 160 161 162
3 160 163 161
3 164 165 166
3 164 167 165
3 168 169 170
3 168 171 169
3 172 173 174
3 172 175 173
3 176 177 178
3 176 179 177
3 180 181 182
3 180 183 181
3 184 185 186
3 184 187 185
3 188 189 190
3 188 191 189
3 192 193 194
3 192 195 193
3 196 197 26
3 196 198 197
3 198 199 197
3 198 200 199
3 200 201 199
3 200 202 201
3 202 203 201
3 202 204 203
3 204 205 203
3 204 206 205
3 206 14 205
3 206 12 14
3 207 208 209
3 207 210 208
3 103 211 101
3 103 212 211
3 213 61 60
3 213 214 61
3 215 31 28
3 215 216 31
3 217 124 218
3 217 125 124
3 0 219 220
3 0 2 219
3 221 222 223
3 221 224 222
3 122 78 75
3 122 121 78
3 225 86 226
3 225 87 86
3 220 227 228
3 220 219 227
3 229 230 231
3 229 232 230
3 211 207 209
3 211 212 207
3 233 82 234
3 233 83 82
3 208 184 186
3 208 210 184
3 228 1 3
3 228 227 1
3 132 153 150
3 132 235 153
3 236 237 238
3 236 239 237
3 73 240 134
3 73 72 240
3 153 185 151
3 153 186 185
3 241 242 243
3 241 244 242
3 245 100 97
3 245 246 100
3 247 246 245
3 247 248 246
3 249 248 247
3 249 250 248
3 251 252 253
3 251 254 252
3 255 254 251
3 255 256 254
3 257 258 259
3 257 260 258
3 261 149 262
3 261 147 149
3 72 101 211
3 72 74 101
3 56 263 57
3 56 264 263
3 240 132 134
3 240 235 132
3 208 240 209
3 208 235 240
3 138 222 224
3 138 135 222
3 265 266 267
3 265 268 266
3 269 270 271
3 269 272 270
3 273 274 275
3 273 276 274
3 277 51 278
3 277 54 51
3 279 280 281
3 279 282 280
3 283 284 285
3 283 286 284
3 287 288 289
3 287 290 288
3 291 292 293
3 291 294 292
3 295 296 297
3 295 298 296
3 215 79 216
3 215 80 79
3 299 300 301
3 299 302 300
3 303 304 305
3 303 306 304
3 307 308 309
3 307 310 308
3 311 312 313
3 311 314 312
3 315 316 317
3 315 318 316
3 150 319 320
3 150 152 319
3 321 322 323
3 321 324 322
3 325 326 327
3 325 328 326
3 329 330 331
3 329 332 330
3 325 314 311
3 325 333 314
3 334 335 336
3 334 337 335
3 120 338 339
3 120 119 338
3 340 341 342
3 340 343 341
3 344 345 346
3 344 347 345
3 348 349 350
3 348 351 349
3 352 353 354
3 352 355 353
3 356 357 358
3 356 359 357
3 360 361 362
3 360 363 361
3 364 365 366
3 364 367 365
3 368 369 370
3 368 371 369
3 370 372 373
3 370 369 372
3 373 374 375
3 373 372 374
3 375 376 377
3 375 374 376
3 377 378 379
3 377 376 378
3 379 294 291
3 379 378 294
3 380 341 343
3 380 381 341
3 382 383 384
3 382 385 383
3 380 386 381
3 380 387 386
3 388 389 390
3 388 391 389
3 392 393 394
3 392 395 393
3 396 397 398
3 396 399 397
3 400 401 402
3 400 403 401
3 404 306 303
3 404 405 306
3 144 406 407
3 144 145 406
3 320 408 409
3 320 319 408
3 410 88 85
3 410 411 88
3 317 412 315
3 317 413 412
3 414 415 416
3 414 417 415
3 418 419 420
3 418 40 419
3 421 422 423
3 421 424 422
3 425 426 427
3 425 428 426
3 429 430 431
3 429 432 430
3 433 434 435
3 433 436 434
3 437 438 439
3 437 440 438
3 441 442 443
3 441 444 442
3 445 446 447
3 445 448 446
3 420 449 450
3 420 328 449
3 451 452 453
3 451 454 452
3 453 455 456
3 453 452 455
3 456 457 458
3 456 455 457
3 458 459 460
3 458 457 459
3 460 461 462
3 460 459 461
3 462 290 287
3 462 461 290
3 463 464 465
3 463 466 464
3 371 467 468
3 371 368 467
3 469 324 470
3 469 322 324
3 279 471 282
3 279 472 471
3 387 342 386
3 387 340 342
3 473 353 355
3 473 474 353
3 472 475 471
3 472 476 475
3 467 463 468
3 467 466 463
3 477 349 351
3 477 478 349
3 464 445 465
3 464 448 445
3 476 280 475
3 476 281 280
3 133 409 479
3 133 320 409
3 480 481 482
3 480 483 481
3 119 484 338
3 119 131 484
3 409 446 448
3 409 408 446
3 485 366 486
3 485 364 366
3 487 486 488
3 487 485 486
3 489 488 490
3 489 487 488
3 491 492 493
3 491 494 492
3 495 493 496
3 495 491 493
3 497 498 499
3 497 500 498
3 501 502 503
3 501 504 502
3 338 368 339
3 338 467 368
3 316 505 506
3 316 318 505
3 484 133 479
3 484 131 133
3 464 484 479
3 464 466 484
3 136 223 137
3 136 221 223
3 507 508 509
3 507 510 508
3 511 512 513
3 511 514 512
3 26 515 196
3 26 25 515
3 515 516 517
3 515 25 516
3 4 518 519
3 4 6 518
3 520 521 522
3 520 523 521
3 454 524 525
3 454 451 524
3 525 526 327
3 525 524 526
3 22 527 528
3 22 21 527
3 92 529 530
3 92 89 529
3 35 531 532
3 35 32 531
3 70 521 523
3 70 67 521
3 229 533 534
3 229 231 533
3 336 283 334
3 336 286 283
3 298 535 296
3 298 536 535
3 358 537 356
3 358 538 537
3 301 539 299
3 301 540 539
3 239 541 542
3 239 236 541
3 543 50 47
3 543 544 50
3 268 191 188
3 268 265 191
3 509 415 507
3 509 416 415
3 482 545 480
3 482 546 545
3 547 516 41
3 547 548 516
3 516 549 517
3 516 548 549
3 148 404 146
3 148 405 404
3 352 550 551
3 352 354 550
3 40 547 41
3 40 418 547
3 327 333 325
3 327 526 333
3 552 553 554
3 552 555 553
3 407 454 525
3 407 406 454
3 419 328 420
3 419 326 328
3 549 47 49
3 549 548 47
3 556 557 558
3 556 559 557
3 547 560 543
3 547 418 560
3 561 543 560
3 561 544 543
3 562 563 564
3 562 565 563
3 566 567 568
3 566 569 567
3 313 449 311
3 313 570 449
3 571 572 573
3 571 574 572
3 575 449 570
3 575 450 449
3 576 577 578
3 576 579 577
3 450 561 560
3 450 575 561
3 407 419 144
3 407 326 419
