ply
format ascii 1.0
element vertex 18
property float x
property float y
property float z
property float nx
property float ny
property float nz
property float u
property float v
element face 12
property list uchar int vertex_indices
end_header
-1.619572 0.718558 0.271907 0 0 -1 0 0
-2.145627 0 0.271907 0 0 -1 0 0
-2.145627 0.718558 0.271907 0 0 -1 0 0
-1.619572 0 0.271907 0 0 -1 0 0
-1.619572 0.718558 0.271907 -0.918081377 0 -0.396391959 0 0
-1.486917 0 -0.035369 -0.95696888 0 -0.290190563 0 0
-1.619572 0 0.271907 -0.918081377 0 -0.396391959 0 0
-1.486917 0.718558 -0.035369 -0.945300695 0 -0.32620024 0 0
-2.145627 0 0.271907 0.918081377 0 -0.396391959 0 0
-2.278282 0.718558 -0.035369 0.945300695 0 -0.32620024 0 0
-2.145627 0.718558 0.271907 0.918081377 0 -0.396391959 0 0
-2.278282 0 -0.035369 0.95696888 0 -0.290190563 0 0
-2.145627 0.825304 0.271907 0.918081377 0 -0.396391959 0 0
-2.278282 0.825304 -0.035369 0.918081377 0 -0.396391959 0 0
-1.486917 0.825304 -0.035369 -0.918081377 0 -0.396391959 0 0
-1.619572 0.825304 0.271907 -0.918081377 0 -0.396391959 0 0
-1.619572 0.825304 0.271907 0 0 -1 0 0
-2.145627 0.825304 0.271907 0 0 -1 0 0
3 0 1 2
3 0 3 1
3 4 5 6
3 4 7 5
3 8 9 10
3 8 11 9
3 9 12 10
3 9 13 12
3 4 14 7
3 4 15 14
3 2 16 0
3 2 17 16
