ply
format ascii 1.0
element vertex 30
property float x
property float y
property float z
property float nx
property float ny
property float nz
property float u
property float v
element face 10
property list uchar int vertex_indices
end_header
-2.242764 0.94999 -0.019778 0 -0.100119403 -0.994975429 0 0
-1.553164 0.98999 -0.023803 0 -0.100119403 -0.994975429 0 0
-1.513164 0.94999 -0.019778 0 -0.100119403 -0.994975429 0 0
-2.242764 0.94999 -0.019778 0 -0.100119403 -0.994975429 0 0
-2.202764 0.98999 -0.023803 0 -0.100119403 -0.994975429 0 0
-1.553164 0.98999 -0.023803 0 -0.100119403 -0.994975429 0 0
-2.242764 2.277397 -0.019778 -0.100119403 -0 -0.994975429 0 0
-2.202764 0.98999 -0.023803 -0.100119403 -0 -0.994975429 0 0
-2.242764 0.94999 -0.019778 -0.100119403 -0 -0.994975429 0 0
-2.242764 2.277397 -0.019778 -0.100119403 0 -0.994975429 0 0
-2.202764 2.237397 -0.023803 -0.100119403 0 -0.994975429 0 0
-2.202764 0.98999 -0.023803 -0.100119403 0 -0.994975429 0 0
-1.513164 2.277397 -0.019778 0 0.100119403 -0.994975429 0 0
-2.202764 2.237397 -0.023803 0 0.100119403 -0.994975429 0 0
-2.242764 2.277397 -0.019778 0 0.100119403 -0.994975429 0 0
-1.513164 2.277397 -0.019778 0 0.100119403 -0.994975429 0 0
-1.553164 2.237397 -0.023803 0 0.100119403 -0.994975429 0 0
-2.202764 2.237397 -0.023803 0 0.100119403 -0.994975429 0 0
-1.513164 0.94999 -0.019778 0.100119403 0 -0.994975429 0 0
-1.553164 2.237397 -0.023803 0.100119403 0 -0.994975429 0 0
-1.513164 2.277397 -0.019778 0.100119403 0 -0.994975429 0 0
-1.513164 0.94999 -0.019778 0.100119403 0 -0.994975429 0 0
-1.553164 0.98999 -0.023803 0.100119403 0 -0.994975429 0 0
-1.553164 2.237397 -0.023803 0.100119403 0 -0.994975429 0 0
-1.553164 2.237397 -0.023803 -0 0 -1 0 0
-2.202764 0.98999 -0.023803 -0 0 -1 0 0
-2.202764 2.237397 -0.023803 -0 0 -1 0 0
-1.553164 2.237397 -0.023803 0 -0 -1 0 0
-1.553164 0.98999 -0.023803 0 -0 -1 0 0
-2.202764 0.98999 -0.023803 0 -0 -1 0 0
3 0 1 2
3 3 4 5
3 6 7 8
3 9 10 11
3 12 13 14
3 15 16 17
3 18 19 20
3 21 22 23
3 24 25 26
3 27 28 29
