ply
format ascii 1.0
element vertex 264
property float x
property float y
property float z
property float nx
property float ny
property float nz
property float u
property float v
element face 88
property list uchar int vertex_indices
end_header
-1.438164 0.87499 0 0 -1 -0 0 0
-2.317764 0.87499 -0.0289 0 -1 -0 0 0
-1.438164 0.87499 -0.0289 0 -1 -0 0 0
-1.438164 0.87499 0 -0 -1 0 0 0
-2.317764 0.87499 0 -0 -1 0 0 0
-2.317764 0.87499 -0.0289 -0 -1 0 0 0
-2.242764 2.277397 -0.0239 1 0 0 0 0
-2.242764 0.94999 -0.019778 1 0 0 0 0
-2.242764 0.94999 -0.0239 1 0 0 0 0
-2.242764 2.277397 -0.0239 1 0 -0 0 0
-2.242764 2.277397 -0.019778 1 0 -0 0 0
-2.242764 0.94999 -0.019778 1 0 -0 0 0
-2.242764 0.94999 -0.0239 0 1 0 0 0
-1.513164 0.94999 -0.019778 0 1 0 0 0
-1.513164 0.94999 -0.0239 0 1 0 0 0
-2.242764 0.94999 -0.0239 0 1 0 0 0
-2.242764 0.94999 -0.019778 0 1 0 0 0
-1.513164 0.94999 -0.019778 0 1 0 0 0
-2.317764 2.352397 -0.0289 -1 0 0 0 0
-2.317764 0.87499 0 -1 0 0 0 0
-2.317764 2.352397 0 -1 0 0 0 0
-2.317764 2.352397 -0.0289 -1 0 0 0 0
-2.317764 0.87499 -0.0289 -1 0 0 0 0
-2.317764 0.87499 0 -1 0 0 0 0
-2.317764 2.352397 0 0 1 0 0 0
-1.438164 2.352397 -0.0289 0 1 0 0 0
-2.317764 2.352397 -0.0289 0 1 0 0 0
-2.317764 2.352397 0 -0 1 0 0 0
-1.438164 2.352397 0 -0 1 0 0 0
-1.438164 2.352397 -0.0289 -0 1 0 0 0
-1.438164 2.352397 0 1 0 0 0 0
-1.438164 0.87499 -0.0289 1 0 0 0 0
-1.438164 2.352397 -0.0289 1 0 0 0 0
-1.438164 2.352397 0 1 0 0 0 0
-1.438164 0.87499 0 1 0 0 0 0
-1.438164 0.87499 -0.0289 1 0 0 0 0
-1.448164 2.342397 -0.0389 0 0 -1 0 0
-1.498164 0.93499 -0.0389 0 0 -1 0 0
-1.498164 2.292397 -0.0389 0 0 -1 0 0
-1.448164 2.342397 -0.0389 0 -0 -1 0 0
-1.448164 0.88499 -0.0389 0 -0 -1 0 0
-1.498164 0.93499 -0.0389 0 -0 -1 0 0
-1.513164 2.277397 -0.0239 0 -1 0 0 0
-2.242764 2.277397 -0.019778 0 -1 0 0 0
-2.242764 2.277397 -0.0239 0 -1 0 0 0
-1.513164 2.277397 -0.0239 0 -1 0 0 0
-1.513164 2.277397 -0.019778 0 -1 0 0 0
-2.242764 2.277397 -0.019778 0 -1 0 0 0
-1.448164 2.342397 -0.0389 -0 0 -1 0 0
-2.257764 2.292397 -0.0389 -0 0 -1 0 0
-2.307764 2.342397 -0.0389 -0 0 -1 0 0
-1.448164 2.342397 -0.0389 0 0 -1 0 0
-1.498164 2.292397 -0.0389 0 0 -1 0 0
-2.257764 2.292397 -0.0389 0 0 -1 0 0
-2.307764 0.88499 -0.0389 0 0 -1 0 0
-1.498164 0.93499 -0.0389 0 0 -1 0 0
-1.448164 0.88499 -0.0389 0 0 -1 0 0
-2.307764 0.88499 -0.0389 0 0 -1 0 0
-2.257764 0.93499 -0.0389 0 0 -1 0 0
-1.498164 0.93499 -0.0389 0 0 -1 0 0
-1.448164 2.342397 -0.0389 0.195080775 0 -0.980787179 0 0
-1.444338 0.881163 -0.038139 0.195080775 0 -0.980787179 0 0
-1.448164 0.88499 -0.0389 0.195080775 0 -0.980787179 0 0
-1.448164 2.342397 -0.0389 0.195080775 0 -0.980787179 0 0
-1.444338 2.346224 -0.038139 0.195080775 0 -0.980787179 0 0
-1.444338 0.881163 -0.038139 0.195080775 0 -0.980787179 0 0
-1.444338 2.346224 -0.038139 0.555527773 0 -0.831497982 0 0
-1.441093 0.877918 -0.035971 0.555527773 0 -0.831497982 0 0
-1.444338 0.881163 -0.038139 0.555527773 0 -0.831497982 0 0
-1.444338 2.346224 -0.038139 0.555527773 0 -0.831497982 0 0
-1.441093 2.349468 -0.035971 0.555527773 0 -0.831497982 0 0
-1.441093 0.877918 -0.035971 0.555527773 0 -0.831497982 0 0
-1.441093 2.349468 -0.035971 0.831537277 0 -0.555468952 0 0
-1.438926 0.875751 -0.032727 0.831537277 0 -0.555468952 0 0
-1.441093 0.877918 -0.035971 0.831537277 0 -0.555468952 0 0
-1.441093 2.349468 -0.035971 0.831537277 0 -0.555468952 0 0
-1.438926 2.351636 -0.032727 0.831537277 0 -0.555468952 0 0
-1.438926 0.875751 -0.032727 0.831537277 0 -0.555468952 0 0
-1.438926 2.351636 -0.032727 0.980747879 0 -0.195278256 0 0
-1.438164 0.87499 -0.0289 0.980747879 0 -0.195278256 0 0
-1.438926 0.875751 -0.032727 0.980747879 0 -0.195278256 0 0
-1.438926 2.351636 -0.032727 0.980747879 0 -0.195278256 0 0
-1.438164 2.352397 -0.0289 0.980747879 0 -0.195278256 0 0
-1.438164 0.87499 -0.0289 0.980747879 0 -0.195278256 0 0
-1.438164 2.352397 -0.0289 0 0.980796931 -0.195031739 0 0
-2.317003 2.351636 -0.032727 0 0.980796931 -0.195031739 0 0
-2.317764 2.352397 -0.0289 0 0.980796931 -0.195031739 0 0
-1.438164 2.352397 -0.0289 0 0.980796931 -0.195031739 0 0
-1.438926 2.351636 -0.032727 0 0.980796931 -0.195031739 0 0
-2.317003 2.351636 -0.032727 0 0.980796931 -0.195031739 0 0
-1.438926 2.351636 -0.032727 0 0.831418878 -0.555646155 0 0
-2.314836 2.349468 -0.035971 0 0.831418878 -0.555646155 0 0
-2.317003 2.351636 -0.032727 0 0.831418878 -0.555646155 0 0
-1.438926 2.351636 -0.032727 0 0.831418878 -0.555646155 0 0
-1.441093 2.349468 -0.035971 0 0.831418878 -0.555646155 0 0
-2.314836 2.349468 -0.035971 0 0.831418878 -0.555646155 0 0
-1.441093 2.349468 -0.035971 0 0.555646155 -0.831418878 0 0
-2.311591 2.346224 -0.038139 0 0.555646155 -0.831418878 0 0
-2.314836 2.349468 -0.035971 0 0.555646155 -0.831418878 0 0
-1.441093 2.349468 -0.035971 0 0.555646155 -0.831418878 0 0
-1.444338 2.346224 -0.038139 0 0.555646155 -0.831418878 0 0
-2.311591 2.346224 -0.038139 0 0.555646155 -0.831418878 0 0
-1.444338 2.346224 -0.038139 0 0.195031739 -0.980796931 0 0
-2.307764 2.342397 -0.0389 0 0.195031739 -0.980796931 0 0
-2.311591 2.346224 -0.038139 0 0.195031739 -0.980796931 0 0
-1.444338 2.346224 -0.038139 0 0.195031739 -0.980796931 0 0
-1.448164 2.342397 -0.0389 0 0.195031739 -0.980796931 0 0
-2.307764 2.342397 -0.0389 0 0.195031739 -0.980796931 0 0
-2.317764 2.352397 -0.0289 -0.980796931 -0 -0.195031739 0 0
-2.317003 0.875751 -0.032727 -0.980796931 -0 -0.195031739 0 0
-2.317764 0.87499 -0.0289 -0.980796931 -0 -0.195031739 0 0
-2.317764 2.352397 -0.0289 -0.980796931 0 -0.195031739 0 0
-2.317003 2.351636 -0.032727 -0.980796931 0 -0.195031739 0 0
-2.317003 0.875751 -0.032727 -0.980796931 0 -0.195031739 0 0
-2.317003 2.351636 -0.032727 -0.831537277 -0 -0.555468952 0 0
-2.314836 0.877918 -0.035971 -0.831537277 -0 -0.555468952 0 0
-2.317003 0.875751 -0.032727 -0.831537277 -0 -0.555468952 0 0
-2.317003 2.351636 -0.032727 -0.831537277 0 -0.555468952 0 0
-2.314836 2.349468 -0.035971 -0.831537277 0 -0.555468952 0 0
-2.314836 0.877918 -0.035971 -0.831537277 0 -0.555468952 0 0
-2.314836 2.349468 -0.035971 -0.555527773 -0 -0.831497982 0 0
-2.311591 0.881163 -0.038139 -0.555527773 -0 -0.831497982 0 0
-2.314836 0.877918 -0.035971 -0.555527773 -0 -0.831497982 0 0
-2.314836 2.349468 -0.035971 -0.555527773 0 -0.831497982 0 0
-2.311591 2.346224 -0.038139 -0.555527773 0 -0.831497982 0 0
-2.311591 0.881163 -0.038139 -0.555527773 0 -0.831497982 0 0
-2.311591 2.346224 -0.038139 -0.195031739 -0 -0.980796931 0 0
-2.307764 0.88499 -0.0389 -0.195031739 -0 -0.980796931 0 0
-2.311591 0.881163 -0.038139 -0.195031739 -0 -0.980796931 0 0
-2.311591 2.346224 -0.038139 -0.195031739 0 -0.980796931 0 0
-2.307764 2.342397 -0.0389 -0.195031739 0 -0.980796931 0 0
-2.307764 0.88499 -0.0389 -0.195031739 0 -0.980796931 0 0
-2.317764 0.87499 -0.0289 0 -0.980796931 -0.195031739 0 0
-1.438926 0.875751 -0.032727 0 -0.980796931 -0.195031739 0 0
-1.438164 0.87499 -0.0289 0 -0.980796931 -0.195031739 0 0
-2.317764 0.87499 -0.0289 0 -0.980796931 -0.195031739 0 0
-2.317003 0.875751 -0.032727 0 -0.980796931 -0.195031739 0 0
-1.438926 0.875751 -0.032727 0 -0.980796931 -0.195031739 0 0
-2.317003 0.875751 -0.032727 0 -0.831537277 -0.555468952 0 0
-1.441093 0.877918 -0.035971 0 -0.831537277 -0.555468952 0 0
-1.438926 0.875751 -0.032727 0 -0.831537277 -0.555468952 0 0
-2.317003 0.875751 -0.032727 0 -0.831537277 -0.555468952 0 0
-2.314836 0.877918 -0.035971 0 -0.831537277 -0.555468952 0 0
-1.441093 0.877918 -0.035971 0 -0.831537277 -0.555468952 0 0
-2.314836 0.877918 -0.035971 0 -0.555527773 -0.831497982 0 0
-1.444338 0.881163 -0.038139 0 -0.555527773 -0.831497982 0 0
-1.441093 0.877918 -0.035971 0 -0.555527773 -0.831497982 0 0
-2.314836 0.877918 -0.035971 0 -0.555527773 -0.831497982 0 0
-2.311591 0.881163 -0.038139 0 -0.555527773 -0.831497982 0 0
-1.444338 0.881163 -0.038139 0 -0.555527773 -0.831497982 0 0
-2.311591 0.881163 -0.038139 0 -0.195031739 -0.980796931 0 0
-1.448164 0.88499 -0.0389 0 -0.195031739 -0.980796931 0 0
-1.444338 0.881163 -0.038139 0 -0.195031739 -0.980796931 0 0
-2.311591 0.881163 -0.038139 0 -0.195031739 -0.980796931 0 0
-2.307764 0.88499 -0.0389 0 -0.195031739 -0.980796931 0 0
-1.448164 0.88499 -0.0389 0 -0.195031739 -0.980796931 0 0
-2.307764 2.342397 -0.0389 0 0 -1 0 0
-2.257764 0.93499 -0.0389 0 0 -1 0 0
-2.307764 0.88499 -0.0389 0 0 -1 0 0
-2.307764 2.342397 -0.0389 0 0 -1 0 0
-2.257764 2.292397 -0.0389 0 0 -1 0 0
-2.257764 0.93499 -0.0389 0 0 -1 0 0
-1.513164 2.277397 -0.0239 -0.247035735 -0 -0.96900637 0 0
-1.507594 0.944419 -0.02532 -0.247035735 -0 -0.96900637 0 0
-1.513164 0.94999 -0.0239 -0.247035735 -0 -0.96900637 0 0
-1.513164 2.277397 -0.0239 -0.247035735 0 -0.96900637 0 0
-1.507594 2.282967 -0.02532 -0.247035735 0 -0.96900637 0 0
-1.507594 0.944419 -0.02532 -0.247035735 0 -0.96900637 0 0
-1.507594 2.282967 -0.02532 -0.574803906 -0 -0.818291189 0 0
-1.502889 0.939714 -0.028625 -0.574803906 -0 -0.818291189 0 0
-1.507594 0.944419 -0.02532 -0.574803906 -0 -0.818291189 0 0
-1.507594 2.282967 -0.02532 -0.574803906 0 -0.818291189 0 0
-1.502889 2.287672 -0.028625 -0.574803906 0 -0.818291189 0 0
-1.502889 0.939714 -0.028625 -0.574803906 0 -0.818291189 0 0
-1.502889 2.287672 -0.028625 -0.818372993 -0 -0.574687432 0 0
-1.499585 0.93641 -0.03333 -0.818372993 -0 -0.574687432 0 0
-1.502889 0.939714 -0.028625 -0.818372993 -0 -0.574687432 0 0
-1.502889 2.287672 -0.028625 -0.818372993 0 -0.574687432 0 0
-1.499585 2.290977 -0.03333 -0.818372993 0 -0.574687432 0 0
-1.499585 0.93641 -0.03333 -0.818372993 0 -0.574687432 0 0
-1.499585 2.290977 -0.03333 -0.968964714 -0 -0.247199077 0 0
-1.498164 0.93499 -0.0389 -0.968964714 -0 -0.247199077 0 0
-1.499585 0.93641 -0.03333 -0.968964714 -0 -0.247199077 0 0
-1.499585 2.290977 -0.03333 -0.968964714 0 -0.247199077 0 0
-1.498164 2.292397 -0.0389 -0.968964714 0 -0.247199077 0 0
-1.498164 0.93499 -0.0389 -0.968964714 0 -0.247199077 0 0
-1.498164 2.292397 -0.0389 -0 -0.96900637 -0.247035735 0 0
-2.256344 2.290977 -0.03333 -0 -0.96900637 -0.247035735 0 0
-2.257764 2.292397 -0.0389 -0 -0.96900637 -0.247035735 0 0
-1.498164 2.292397 -0.0389 0 -0.96900637 -0.247035735 0 0
-1.499585 2.290977 -0.03333 0 -0.96900637 -0.247035735 0 0
-2.256344 2.290977 -0.03333 0 -0.96900637 -0.247035735 0 0
-1.499585 2.290977 -0.03333 -0 -0.818291189 -0.574803906 0 0
-2.25304 2.287672 -0.028625 -0 -0.818291189 -0.574803906 0 0
-2.256344 2.290977 -0.03333 -0 -0.818291189 -0.574803906 0 0
-1.499585 2.290977 -0.03333 0 -0.818291189 -0.574803906 0 0
-1.502889 2.287672 -0.028625 0 -0.818291189 -0.574803906 0 0
-2.25304 2.287672 -0.028625 0 -0.818291189 -0.574803906 0 0
-1.502889 2.287672 -0.028625 -0 -0.574803906 -0.818291189 0 0
-2.248335 2.282967 -0.02532 -0 -0.574803906 -0.818291189 0 0
-2.25304 2.287672 -0.028625 -0 -0.574803906 -0.818291189 0 0
-1.502889 2.287672 -0.028625 0 -0.574803906 -0.818291189 0 0
-1.507594 2.282967 -0.02532 0 -0.574803906 -0.818291189 0 0
-2.248335 2.282967 -0.02532 0 -0.574803906 -0.818291189 0 0
-1.507594 2.282967 -0.02532 -0 -0.247035735 -0.96900637 0 0
-2.242764 2.277397 -0.0239 -0 -0.247035735 -0.96900637 0 0
-2.248335 2.282967 -0.02532 -0 -0.247035735 -0.96900637 0 0
-1.507594 2.282967 -0.02532 0 -0.247035735 -0.96900637 0 0
-1.513164 2.277397 -0.0239 0 -0.247035735 -0.96900637 0 0
-2.242764 2.277397 -0.0239 0 -0.247035735 -0.96900637 0 0
-2.257764 2.292397 -0.0389 0.96900637 0 -0.247035735 0 0
-2.256344 0.93641 -0.03333 0.96900637 0 -0.247035735 0 0
-2.257764 0.93499 -0.0389 0.96900637 0 -0.247035735 0 0
-2.257764 2.292397 -0.0389 0.96900637 0 -0.247035735 0 0
-2.256344 2.290977 -0.03333 0.96900637 0 -0.247035735 0 0
-2.256344 0.93641 -0.03333 0.96900637 0 -0.247035735 0 0
-2.256344 2.290977 -0.03333 0.818372993 0 -0.574687432 0 0
-2.25304 0.939714 -0.028625 0.818372993 0 -0.574687432 0 0
-2.256344 0.93641 -0.03333 0.818372993 0 -0.574687432 0 0
-2.256344 2.290977 -0.03333 0.818372993 0 -0.574687432 0 0
-2.25304 2.287672 -0.028625 0.818372993 0 -0.574687432 0 0
-2.25304 0.939714 -0.028625 0.818372993 0 -0.574687432 0 0
-2.25304 2.287672 -0.028625 0.574803906 0 -0.818291189 0 0
-2.248335 0.944419 -0.02532 0.574803906 0 -0.818291189 0 0
-2.25304 0.939714 -0.028625 0.574803906 0 -0.818291189 0 0
-2.25304 2.287672 -0.028625 0.574803906 0 -0.818291189 0 0
-2.248335 2.282967 -0.02532 0.574803906 0 -0.818291189 0 0
-2.248335 0.944419 -0.02532 0.574803906 0 -0.818291189 0 0
-2.248335 2.282967 -0.02532 0.246994098 0 -0.969016984 0 0
-2.242764 0.94999 -0.0239 0.246994098 0 -0.969016984 0 0
-2.248335 0.944419 -0.02532 0.246994098 0 -0.969016984 0 0
-2.248335 2.282967 -0.02532 0.246994098 0 -0.969016984 0 0
-2.242764 2.277397 -0.0239 0.246994098 0 -0.969016984 0 0
-2.242764 0.94999 -0.0239 0.246994098 0 -0.969016984 0 0
-2.257764 0.93499 -0.0389 0 0.96900637 -0.247035735 0 0
-1.499585 0.93641 -0.03333 0 0.96900637 -0.247035735 0 0
-1.498164 0.93499 -0.0389 0 0.96900637 -0.247035735 0 0
-2.257764 0.93499 -0.0389 0 0.96900637 -0.247035735 0 0
-2.256344 0.93641 -0.03333 0 0.96900637 -0.247035735 0 0
-1.499585 0.93641 -0.03333 0 0.96900637 -0.247035735 0 0
-2.256344 0.93641 -0.03333 0 0.818372993 -0.574687432 0 0
-1.502889 0.939714 -0.028625 0 0.818372993 -0.574687432 0 0
-1.499585 0.93641 -0.03333 0 0.818372993 -0.574687432 0 0
-2.256344 0.93641 -0.03333 0 0.818372993 -0.574687432 0 0
-2.25304 0.939714 -0.028625 0 0.818372993 -0.574687432 0 0
-1.502889 0.939714 -0.028625 0 0.818372993 -0.574687432 0 0
-2.25304 0.939714 -0.028625 0 0.574803906 -0.818291189 0 0
-1.507594 0.944419 -0.02532 0 0.574803906 -0.818291189 0 0
-1.502889 0.939714 -0.028625 0 0.574803906 -0.818291189 0 0
-2.25304 0.939714 -0.028625 0 0.574803906 -0.818291189 0 0
-2.248335 0.944419 -0.02532 0 0.574803906 -0.818291189 0 0
-1.507594 0.944419 -0.02532 0 0.574803906 -0.818291189 0 0
-2.248335 0.944419 -0.02532 0 0.246994098 -0.969016984 0 0
-1.513164 0.94999 -0.0239 0 0.246994098 -0.969016984 0 0
-1.507594 0.944419 -0.02532 0 0.246994098 -0.969016984 0 0
-2.248335 0.944419 -0.02532 0 0.246994098 -0.969016984 0 0
-2.242764 0.94999 -0.0239 0 0.246994098 -0.969016984 0 0
-1.513164 0.94999 -0.0239 0 0.246994098 -0.969016984 0 0
-1.513164 0.94999 -0.0239 -1 0 0 0 0
-1.513164 2.277397 -0.019778 -1 0 0 0 0
-1.513164 2.277397 -0.0239 -1 0 0 0 0
-1.513164 0.94999 -0.0239 -1 0 0 0 0
-1.513164 0.94999 -0.019778 -1 0 0 0 0
-1.513164 2.277397 -0.019778 -1 0 0 0 0
3 0 1 2
3 3 4 5
3 6 7 8
3 9 10 11
3 12 13 14
3 15 16 17
3 18 19 20
3 21 22 23
3 24 25 26
3 27 28 29
3 30 31 32
3 33 34 35
3 36 37 38
3 39 40 41
3 42 43 44
3 45 46 47
3 48 49 50
3 51 52 53
3 54 55 56
3 57 58 59
3 60 61 62
3 63 64 65
3 66 67 68
3 69 70 71
3 72 73 74
3 75 76 77
3 78 79 80
3 81 82 83
3 84 85 86
3 87 88 89
3 90 91 92
3 93 94 95
3 96 97 98
3 99 100 101
3 102 103 104
3 105 106 107
3 108 109 110
3 111 112 113
3 114 115 116
3 117 118 119
3 120 121 122
3 123 124 125
3 126 127 128
3 129 130 131
3 132 133 134
3 135 136 137
3 138 139 140
3 141 142 143
3 144 145 146
3 147 148 149
3 150 151 152
3 153 154 155
3 156 157 158
3 159 160 161
3 162 163 164
3 165 166 167
3 168 169 170
3 171 172 173
3 174 175 176
3 177 178 179
3 180 181 182
3 183 184 185
3 186 187 188
3 189 190 191
3 192 193 194
3 195 196 197
3 198 199 200
3 201 202 203
3 204 205 206
3 207 208 209
3 210 211 212
3 213 214 215
3 216 217 218
3 219 220 221
3 222 223 224
3 225 226 227
3 228 229 230
3 231 232 233
3 234 235 236
3 237 238 239
3 240 241 242
3 243 244 245
3 246 247 248
3 249 250 251
3 252 253 254
3 255 256 257
3 258 259 260
3 261 262 263
