ply
format ascii 1.0
element vertex 64
property float x
property float y
property float z
property float nx
property float ny
property float nz
property float u
property float v
element face 98
property list uchar int vertex_indices
end_header
-0.25461 2.879001 -3.022501 0 -1 0 0 0
0 2.879001 -3.632799 0 -1 0 0 0
0 2.879001 -3.022501 0 -1 0 0 0
-0.25461 2.879001 -3.632799 0 -1 0 0 0
-1.269489 2.879001 -3.022501 0 -1 0 0 0
-1.269489 2.879001 -3.632799 0 -1 0 0 0
-1.4428 2.879001 -3.022501 0 -1 0 0 0
-1.4428 2.879001 -3.632799 0 -1 0 0 0
-3.502188 2.879001 -3.022501 0 -1 0 0 0
-2.49821 2.879001 -3.632799 0 -1 0 0 0
-2.49821 2.879001 -3.022501 0 -1 0 0 0
-3.502188 2.879001 -3.632799 0 -1 0 0 0
-5.122005 2.879001 -3.022501 0 -1 0 0 0
-5.122005 2.879001 -3.632799 0 -1 0 0 0
-0.25461 2.879001 0 0 -1 0 0 0
0 2.879001 -0.0986 0 -1 0 0 0
0 2.879001 0 0 -1 0 0 0
-0.25461 2.879001 -0.0986 0 -1 0 0 0
-1.269489 2.879001 0 0 -1 0 0 0
-1.269489 2.879001 -0.0986 0 -1 0 0 0
-1.4428 2.879001 0 0 -1 0 0 0
-1.4428 2.879001 -0.0986 0 -1 0 0 0
-3.502188 2.879001 0 0 -1 0 0 0
-2.49821 2.879001 -0.0986 0 -1 0 0 0
-2.49821 2.879001 0 0 -1 0 0 0
-3.502188 2.879001 -0.0986 0 -1 0 0 0
-0.25461 2.879001 -0.587801 0 -1 0 0 0
0 2.879001 -1.077001 0 -1 0 0 0
0 2.879001 -0.587801 0 -1 0 0 0
-0.25461 2.879001 -1.077001 0 -1 0 0 0
-1.269489 2.879001 -0.587801 0 -1 0 0 0
-1.269489 2.879001 -1.077001 0 -1 0 0 0
-1.4428 2.879001 -0.587801 0 -1 0 0 0
-1.4428 2.879001 -1.077001 0 -1 0 0 0
-3.502188 2.879001 -0.587801 0 -1 0 0 0
-2.49821 2.879001 -1.077001 0 -1 0 0 0
-2.49821 2.879001 -0.587801 0 -1 0 0 0
-3.502188 2.879001 -1.077001 0 -1 0 0 0
0 2.879001 -2.0441 0 -1 0 0 0
-0.25461 2.879001 -2.0441 0 -1 0 0 0
-1.269489 2.879001 -2.0441 0 -1 0 0 0
-1.4428 2.879001 -2.0441 0 -1 0 0 0
-2.49821 2.879001 -2.0441 0 -1 0 0 0
-3.502188 2.879001 -2.0441 0 -1 0 0 0
-5.122005 2.879001 -1.077001 0 -1 0 0 0
-5.122005 2.879001 -2.0441 0 -1 0 0 0
-0.25461 2.879001 -2.539413 0 -1 0 0 0
0 2.879001 -2.539413 0 -1 0 0 0
-1.269489 2.879001 -2.539413 0 -1 0 0 0
-1.4428 2.879001 -2.539413 0 -1 0 0 0
-3.502188 2.879001 -2.539413 0 -1 0 0 0
-2.49821 2.879001 -2.539413 0 -1 0 0 0
-5.122005 2.879001 -2.539413 0 -1 0 0 0
-5.122005 2.879001 0 0 -1 0 0 0
-5.122005 2.879001 -0.0986 0 -1 0 0 0
-5.122005 2.879001 -0.587801 0 -1 0 0 0
-2.3224 2.879001 -3.632799 0 -1 0 0 0
-2.3224 2.879001 -3.022501 0 -1 0 0 0
-2.3224 2.879001 -0.0986 0 -1 0 0 0
-2.3224 2.879001 0 0 -1 0 0 0
-2.3224 2.879001 -1.077001 0 -1 0 0 0
-2.3224 2.879001 -0.587801 0 -1 0 0 0
-2.3224 2.879001 -2.0441 0 -1 0 0 0
-2.3224 2.879001 -2.539413 0 -1 0 0 0
3 0 1 2
3 0 3 1
3 4 3 0
3 4 5 3
3 6 5 4
3 6 7 5
3 8 9 10
3 8 11 9
3 12 11 8
3 12 13 11
3 14 15 16
3 14 17 15
3 18 17 14
3 18 19 17
3 20 19 18
3 20 21 19
3 22 23 24
3 22 25 23
3 26 27 28
3 26 29 27
3 30 29 26
3 30 31 29
3 32 31 30
3 32 33 31
3 34 35 36
3 34 37 35
3 29 38 27
3 29 39 38
3 31 39 29
3 31 40 39
3 33 40 31
3 33 41 40
3 37 42 35
3 37 43 42
3 44 43 37
3 44 45 43
3 46 2 47
3 46 0 2
3 48 0 46
3 48 4 0
3 49 4 48
3 49 6 4
3 50 10 51
3 50 8 10
3 52 8 50
3 52 12 8
3 19 26 17
3 19 30 26
3 25 36 23
3 25 34 36
3 21 30 19
3 21 32 30
3 53 25 22
3 53 54 25
3 55 37 34
3 55 44 37
3 39 47 38
3 39 46 47
3 40 46 39
3 40 48 46
3 41 48 40
3 41 49 48
3 43 51 42
3 43 50 51
3 45 50 43
3 45 52 50
3 17 28 15
3 17 26 28
3 54 34 25
3 54 55 34
3 10 56 57
3 10 9 56
3 24 58 59
3 24 23 58
3 36 60 61
3 36 35 60
3 35 62 60
3 35 42 62
3 51 57 63
3 51 10 57
3 23 61 58
3 23 36 61
3 42 63 62
3 42 51 63
3 57 7 6
3 57 56 7
3 59 21 20
3 59 58 21
3 61 33 32
3 61 60 33
3 60 41 33
3 60 62 41
3 63 6 49
3 63 57 6
3 58 32 21
3 58 61 32
3 62 49 41
3 62 63 49
