ply
format ascii 1.0
element vertex 75
property float x
property float y
property float z
property float nx
property float ny
property float nz
property float u
property float v
element face 111
property list uchar int vertex_indices
end_header
-3.502188 0 -3.022501 0 1 0 1.133561 1.318985
-5.122005 0 -3.632799 0 1 0 2.074868 1.692231
-5.122005 0 -3.022501 0 1 0 2.074868 1.318985
-3.502188 0 -3.632799 0 1 0 1.133561 1.692231
0 0 -3.022501 0 1 0 -0.90408 1.318985
-0.25461 0 -3.632799 0 1 0 -0.747209 1.692231
-0.25461 0 -3.022501 0 1 0 -0.747209 1.318985
0 0 -3.632799 0 1 0 -0.90408 1.692231
-1.269489 0 -3.632799 0 1 0 -0.164974 1.692231
-1.269489 0 -3.022501 0 1 0 -0.164974 1.318985
-2.3224 0 -3.022501 0 1 0 0.196344 1.318985
-2.49821 0 -3.632799 0 1 0 0.557662 1.692231
-2.49821 0 -3.022501 0 1 0 0.557662 1.318985
-2.3224 0 -3.632799 0 1 0 0.196344 1.692231
-2.49821 0 0 0 1 0 0.557662 -0.608115
-3.502188 0 0.424113 0 1 0 1.133561 -0.76278
-2.49821 0 0.424113 0 1 0 0.557662 -0.76278
-3.502188 0 0 0 1 0 1.133561 -0.608115
-0.25461 0 0 0 1 0 -0.747209 -0.608115
-0.76205 0 0.424113 0 1 0 -0.456092 -0.76278
-0.25461 0 0.424113 0 1 0 -0.747209 -0.76278
-1.269489 0 0.424113 0 1 0 -0.164974 -0.76278
-1.269489 0 0 0 1 0 -0.164974 -0.608115
-5.122005 0 -0.0986 0 1 0 2.074868 -0.495542
-5.122005 0 0 0 1 0 2.074868 -0.608115
-3.502188 0 -0.0986 0 1 0 1.133561 -0.495542
0 0 0 0 1 0 -0.90408 -0.608115
-0.25461 0 -0.0986 0 1 0 -0.747209 -0.495542
0 0 -0.0986 0 1 0 -0.90408 -0.495542
-1.269489 0 -0.0986 0 1 0 -0.164974 -0.495542
-2.3224 0 0 0 1 0 0.196344 -0.608115
-2.49821 0 -0.0986 0 1 0 0.557662 -0.495542
-2.3224 0 -0.0986 0 1 0 0.196344 -0.495542
0 0 -2.539413 0 1 0 -0.90408 1.019188
0.384443 0 -2.0441 0 1 0 -1.120765 0.711803
0.384443 0 -2.539413 0 1 0 -1.120765 1.019188
0 0 -2.0441 0 1 0 -0.90408 0.711803
-3.502188 0 -0.587801 0 1 0 1.133561 -0.190056
-5.122005 0 -1.077001 0 1 0 2.074868 0.111636
-5.122005 0 -0.587801 0 1 0 2.074868 -0.190056
-3.502188 0 -1.077001 0 1 0 1.133561 0.111636
-0.25461 0 -0.587801 0 1 0 -0.747209 -0.190056
-1.269489 0 -1.077001 0 1 0 -0.164974 0.111636
-1.269489 0 -0.587801 0 1 0 -0.164974 -0.190056
-0.25461 0 -1.077001 0 1 0 -0.747209 0.111636
-2.3224 0 -0.587801 0 1 0 0.196344 -0.190056
-2.49821 0 -1.077001 0 1 0 0.557662 0.111636
-2.49821 0 -0.587801 0 1 0 0.557662 -0.190056
-2.3224 0 -1.077001 0 1 0 0.196344 0.111636
-5.122005 0 -2.0441 0 1 0 2.074868 0.711803
-3.502188 0 -2.0441 0 1 0 1.133561 0.711803
-1.269489 0 -2.0441 0 1 0 -0.164974 0.711803
-0.25461 0 -2.0441 0 1 0 -0.747209 0.711803
-2.49821 0 -2.0441 0 1 0 0.557662 0.711803
-2.3224 0 -2.0441 0 1 0 0.196344 0.711803
-3.502188 0 -2.539413 0 1 0 1.133561 1.019188
-5.122005 0 -2.539413 0 1 0 2.074868 1.019188
-0.25461 0 -2.539413 0 1 0 -0.747209 1.019188
-1.269489 0 -2.539413 0 1 0 -0.164974 1.019188
-2.3224 0 -2.539413 0 1 0 0.196344 1.019188
-2.49821 0 -2.539413 0 1 0 0.557662 1.019188
0.384443 0 -3.022501 0 1 0 -1.120765 1.318985
0 0 -0.587801 0 1 0 -0.90408 -0.190056
0.384443 0 -0.593914 0 1 0 -1.120765 -0.190056
0 0 -1.077001 0 1 0 -0.90408 0.111636
0.384443 0 -1.077001 0 1 0 -1.120765 0.111636
0.384443 0 -0.0986 0 1 0 -1.120765 -0.495542
-1.4428 0 -3.022501 0 1 0 0.015685 1.318985
-1.4428 0 -3.632799 0 1 0 0.015685 1.692231
-1.4428 0 0 0 1 0 0.015685 -0.608115
-1.4428 0 -0.0986 0 1 0 0.015685 -0.495542
-1.4428 0 -0.587801 0 1 0 0.015685 -0.190056
-1.4428 0 -1.077001 0 1 0 0.015685 0.111636
-1.4428 0 -2.0441 0 1 0 0.015685 0.711803
-1.4428 0 -2.539413 0 1 0 0.015685 1.019188
3 0 1 2
3 0 3 1
3 4 5 6
3 4 7 5
3 6 8 9
3 6 5 8
3 10 11 12
3 10 13 11
3 12 3 0
3 12 11 3
3 14 15 16
3 14 17 15
3 18 19 20
3 18 21 19
3 18 22 21
3 17 23 24
3 17 25 23
3 26 27 18
3 26 28 27
3 18 29 22
3 18 27 29
3 30 31 14
3 30 32 31
3 14 25 17
3 14 31 25
3 33 34 35
3 33 36 34
3 37 38 39
3 37 40 38
3 41 42 43
3 41 44 42
3 45 46 47
3 45 48 46
3 47 40 37
3 47 46 40
3 40 49 38
3 40 50 49
3 44 51 42
3 44 52 51
3 48 53 46
3 48 54 53
3 46 50 40
3 46 53 50
3 55 2 56
3 55 0 2
3 33 6 57
3 33 4 6
3 57 9 58
3 57 6 9
3 59 12 60
3 59 10 12
3 60 0 55
3 60 12 0
3 25 39 23
3 25 37 39
3 4 35 61
3 4 33 35
3 50 56 49
3 50 55 56
3 36 57 52
3 36 33 57
3 52 58 51
3 52 57 58
3 54 60 53
3 54 59 60
3 53 55 50
3 53 60 55
3 32 47 31
3 32 45 47
3 28 41 27
3 28 62 41
3 27 43 29
3 27 41 43
3 31 37 25
3 31 47 37
3 63 64 62
3 63 65 64
3 62 44 41
3 62 64 44
3 64 52 44
3 64 36 52
3 28 63 62
3 28 66 63
3 67 13 10
3 67 68 13
3 69 32 30
3 69 70 32
3 71 48 45
3 71 72 48
3 72 54 48
3 72 73 54
3 74 10 59
3 74 67 10
3 73 59 54
3 73 74 59
3 70 45 32
3 70 71 45
3 9 68 67
3 9 8 68
3 22 70 69
3 22 29 70
3 43 72 71
3 43 42 72
3 42 73 72
3 42 51 73
3 58 67 74
3 58 9 67
3 51 74 73
3 51 58 74
3 29 71 70
3 29 43 71
