ply
format ascii 1.0
element vertex 182
property float x
property float y
property float z
property float nx
property float ny
property float nz
property float u
property float v
element face 216
property list uchar int vertex_indices
end_header
0 0.591434 -3.022501 -1 0 0 0 0
0 0 -3.632799 -1 0 0 0 0
0 0 -3.022501 -1 0 0 0 0
0 0.591434 -3.632799 -1 0 0 0 0
-3.502188 0.591434 -3.632799 0 0 1 0 0
-5.122005 0 -3.632799 0 0 1 0 0
-3.502188 0 -3.632799 0 0 1 0 0
-5.122005 0.591434 -3.632799 0 0 1 0 0
0 0.591434 -3.632799 0 0 1 0 0
-0.25461 0 -3.632799 0 0 1 0 0
0 0 -3.632799 0 0 1 0 0
-0.25461 0.591434 -3.632799 0 0 1 0 0
-0.25461 0.591434 0 0 0 -1 0 0
0 0 0 0 0 -1 0 0
-0.25461 0 0 0 0 -1 0 0
0 0.591434 0 0 0 -1 0 0
-1.269489 0 -3.632799 0 0 1 0 0
-1.269489 0.591434 -3.632799 0 0 1 0 0
-1.4428 0.591434 0 0 0 -1 0 0
-1.269489 0 0 0 0 -1 0 0
-1.4428 0 0 0 0 -1 0 0
-1.269489 0.591434 0 0 0 -1 0 0
-2.3224 0.591434 -3.632799 0 0 1 0 0
-2.49821 0 -3.632799 0 0 1 0 0
-2.3224 0 -3.632799 0 0 1 0 0
-2.49821 0.591434 -3.632799 0 0 1 0 0
-5.122005 0.591434 0 0 0 -1 0 0
-3.502188 0 0 0 0 -1 0 0
-5.122005 0 0 0 0 -1 0 0
-3.502188 0.591434 0 0 0 -1 0 0
0 2.879001 -3.022501 -1 0 0 0 0
0 2.4909 -3.632799 -1 0 0 0 0
0 2.4909 -3.022501 -1 0 0 0 0
0 2.879001 -3.632799 -1 0 0 0 0
-3.502188 2.879001 -3.632799 0 0 1 0 0
-5.122005 2.4909 -3.632799 0 0 1 0 0
-3.502188 2.4909 -3.632799 0 0 1 0 0
-5.122005 2.879001 -3.632799 0 0 1 0 0
0 2.879001 -3.632799 0 0 1 0 0
-0.25461 2.4909 -3.632799 0 0 1 0 0
0 2.4909 -3.632799 0 0 1 0 0
-0.25461 2.879001 -3.632799 0 0 1 0 0
-0.25461 2.879001 0 0 0 -1 0 0
0 2.4909 0 0 0 -1 0 0
-0.25461 2.4909 0 0 0 -1 0 0
0 2.879001 0 0 0 -1 0 0
-1.269489 2.879001 0 0 0 -1 0 0
-1.269489 2.4909 0 0 0 -1 0 0
-1.269489 2.4909 -3.632799 0 0 1 0 0
-1.269489 2.879001 -3.632799 0 0 1 0 0
-1.4428 2.879001 0 0 0 -1 0 0
-1.4428 2.4909 0 0 0 -1 0 0
-2.3224 2.879001 -3.632799 0 0 1 0 0
-2.49821 2.4909 -3.632799 0 0 1 0 0
-2.3224 2.4909 -3.632799 0 0 1 0 0
-2.49821 2.879001 -3.632799 0 0 1 0 0
-3.502188 2.879001 0 0 0 -1 0 0
-2.49821 2.4909 0 0 0 -1 0 0
-3.502188 2.4909 0 0 0 -1 0 0
-2.49821 2.879001 0 0 0 -1 0 0
-5.122005 2.879001 0 0 0 -1 0 0
-5.122005 2.4909 0 0 0 -1 0 0
-3.502188 1.995582 -3.632799 0 0 1 0 0
-5.122005 1.995582 -3.632799 0 0 1 0 0
0 1.995582 -3.632799 0 0 1 0 0
-0.25461 1.995582 -3.632799 0 0 1 0 0
-0.25461 1.995582 0 0 0 -1 0 0
0 1.995582 0 0 0 -1 0 0
-1.269489 1.995582 -3.632799 0 0 1 0 0
-1.4428 0.788015 0 0 0 -1 0 0
-1.269489 0.788014 0 0 0 -1 0 0
-2.3224 1.995582 -3.632799 0 0 1 0 0
-2.49821 1.995582 -3.632799 0 0 1 0 0
-5.122005 1.995582 0 0 0 -1 0 0
-3.502188 1.995582 0 0 0 -1 0 0
0 0.591434 0 -1 0 0 0 0
0 0 -0.0986 -1 0 0 0 0
0 0 0 -1 0 0 0 0
0 0.591434 -0.0986 -1 0 0 0 0
0 2.879001 0 -1 0 0 0 0
0 2.4909 -0.0986 -1 0 0 0 0
0 2.4909 0 -1 0 0 0 0
0 2.879001 -0.0986 -1 0 0 0 0
0 1.995582 0 -1 0 0 0 0
0 1.995582 -0.0986 -1 0 0 0 0
0 2.092213 -0.108117 -1 0 0 0 0
0 2.879001 -1.077001 -1 0 0 0 0
0 2.4909 -2.0441 -1 0 0 0 0
0 2.4909 -1.077001 -1 0 0 0 0
0 2.879001 -2.0441 -1 0 0 0 0
-5.122005 1.995582 -0.0986 1 0 0 0 0
-5.122005 0.591434 -0.587801 1 0 0 0 0
-5.122005 1.995582 -0.587801 1 0 0 0 0
-5.122005 0.591434 -0.0986 1 0 0 0 0
0 2.345822 -0.944153 -1 0 0 0 0
0 2.40742 -0.869095 -1 0 0 0 0
-5.122005 1.995582 0 1 0 0 0 0
-5.122005 0.591434 0 1 0 0 0 0
-5.122005 0.591434 -1.077001 1 0 0 0 0
-5.122005 1.995582 -1.077001 1 0 0 0 0
-5.122005 0.591434 -2.0441 1 0 0 0 0
-5.122005 1.995582 -2.0441 1 0 0 0 0
-5.122005 0 0 1 0 0 0 0
-5.122005 0 -0.0986 1 0 0 0 0
-5.122005 0 -0.587801 1 0 0 0 0
-5.122005 0 -1.077001 1 0 0 0 0
-5.122005 0 -2.0441 1 0 0 0 0
-5.122005 0.591434 -2.539413 1 0 0 0 0
-5.122005 0 -2.539413 1 0 0 0 0
-5.122005 2.879001 0 1 0 0 0 0
-5.122005 2.4909 -0.0986 1 0 0 0 0
-5.122005 2.879001 -0.0986 1 0 0 0 0
-5.122005 2.4909 0 1 0 0 0 0
-5.122005 2.879001 -0.587801 1 0 0 0 0
-5.122005 2.4909 -1.077001 1 0 0 0 0
-5.122005 2.879001 -1.077001 1 0 0 0 0
-5.122005 2.4909 -0.587801 1 0 0 0 0
-5.122005 2.4909 -2.0441 1 0 0 0 0
-5.122005 2.879001 -2.0441 1 0 0 0 0
-5.122005 2.879001 -2.539413 1 0 0 0 0
-5.122005 2.4909 -3.022501 1 0 0 0 0
-5.122005 2.879001 -3.022501 1 0 0 0 0
-5.122005 2.4909 -2.539413 1 0 0 0 0
-5.122005 2.4909 -3.632799 1 0 0 0 0
-5.122005 2.879001 -3.632799 1 0 0 0 0
-5.122005 1.995582 -2.539413 1 0 0 0 0
-5.122005 0.591434 -3.022501 1 0 0 0 0
-5.122005 1.995582 -3.022501 1 0 0 0 0
-5.122005 0.591434 -3.632799 1 0 0 0 0
-5.122005 1.995582 -3.632799 1 0 0 0 0
-5.122005 0 -3.022501 1 0 0 0 0
-5.122005 0 -3.632799 1 0 0 0 0
0 2.40742 -2.264232 -1 0 0 0 0
0 2.345822 -2.189174 -1 0 0 0 0
0 2.453192 -2.349865 -1 0 0 0 0
0 2.481379 -2.442783 -1 0 0 0 0
0 2.270763 -2.127575 -1 0 0 0 0
0 2.18513 -2.081803 -1 0 0 0 0
-2.3224 0.788015 0 0 0 -1 0 0
-2.3224 2.4909 0 0 0 -1 0 0
0 2.092213 -2.053617 -1 0 0 0 0
0 1.995582 -2.0441 -1 0 0 0 0
0 1.995582 -3.022501 -1 0 0 0 0
0 1.995582 -3.632799 -1 0 0 0 0
0 2.879001 -2.539413 -1 0 0 0 0
0 2.490896 -2.539413 -1 0 0 0 0
0 2.092213 -3.019454 -0.999999995 0 -9.99999995e-05 0 0
0 2.18513 -2.997024 -1 0 0 0 0
0 2.270763 -2.951252 -1 0 0 0 0
0 2.481379 -2.636045 -1 0 0 0 0
0 2.453192 -2.728962 -1 0 0 0 0
0 2.40742 -2.814595 -1 0 0 0 0
0 2.345822 -2.889653 -1 0 0 0 0
0 0.591434 -1.077001 -1 0 0 0 0
0 0 -2.0441 -1 0 0 0 0
0 0 -1.077001 -1 0 0 0 0
0 0.591434 -2.0441 -1 0 0 0 0
0 1.995582 -1.077001 -1 0 0 0 0
0 2.092213 -1.073954 -0.999999995 0 -9.99999995e-05 0 0
0 2.18513 -1.051524 -1 0 0 0 0
0 2.270763 -1.005752 -1 0 0 0 0
0 2.453192 -0.783462 -1 0 0 0 0
0 2.481379 -0.690545 -1 0 0 0 0
0 2.481379 -0.497283 -1 0 0 0 0
0 2.453192 -0.404365 -1 0 0 0 0
0 2.490896 -0.587801 -1 0 0 0 0
0 2.879001 -0.587801 -1 0 0 0 0
0 2.18513 -0.136303 -1 0 0 0 0
0 2.270763 -0.182075 -1 0 0 0 0
0 2.40742 -0.318732 -1 0 0 0 0
0 2.345822 -0.243674 -1 0 0 0 0
-2.49821 0.591434 0 0 0 -1 0 0
-2.3224 0 0 0 0 -1 0 0
-2.49821 0 0 0 0 -1 0 0
-2.3224 0.591434 0 0 0 -1 0 0
-1.4428 0.591434 -3.632799 0 0 1 0 0
-1.4428 0 -3.632799 0 0 1 0 0
-2.3224 2.879001 0 0 0 -1 0 0
-1.4428 2.879001 -3.632799 0 0 1 0 0
-1.4428 2.4909 -3.632799 0 0 1 0 0
-2.49821 0.788014 0 0 0 -1 0 0
-1.4428 1.995582 -3.632799 0 0 1 0 0
3 0 1 2
3 0 3 1
3 4 5 6
3 4 7 5
3 8 9 10
3 8 11 9
3 12 13 14
3 12 15 13
3 11 16 9
3 11 17 16
3 18 19 20
3 18 21 19
3 22 23 24
3 22 25 23
3 25 6 23
3 25 4 6
3 26 27 28
3 26 29 27
3 30 31 32
3 30 33 31
3 34 35 36
3 34 37 35
3 38 39 40
3 38 41 39
3 42 43 44
3 42 45 43
3 46 44 47
3 46 42 44
3 41 48 39
3 41 49 48
3 50 47 51
3 50 46 47
3 52 53 54
3 52 55 53
3 56 57 58
3 56 59 57
3 55 36 53
3 55 34 36
3 60 58 61
3 60 56 58
3 62 7 4
3 62 63 7
3 64 11 8
3 64 65 11
3 66 15 12
3 66 67 15
3 65 17 11
3 65 68 17
3 69 21 18
3 69 70 21
3 71 25 22
3 71 72 25
3 72 4 25
3 72 62 4
3 73 29 26
3 73 74 29
3 75 76 77
3 75 78 76
3 79 80 81
3 79 82 80
3 83 78 75
3 83 84 78
3 80 85 84
3 86 87 88
3 86 89 87
3 90 91 92
3 90 93 91
3 94 95 88
3 96 93 90
3 96 97 93
3 92 98 99
3 92 91 98
3 99 100 101
3 99 98 100
3 93 102 103
3 93 97 102
3 91 103 104
3 91 93 103
3 100 105 106
3 100 98 105
3 107 106 108
3 107 100 106
3 109 110 111
3 109 112 110
3 113 114 115
3 113 116 114
3 115 117 118
3 115 114 117
3 119 120 121
3 119 122 120
3 121 123 124
3 121 120 123
3 125 126 127
3 125 107 126
3 127 128 129
3 127 126 128
3 128 130 131
3 128 126 130
3 132 133 87
3 126 108 130
3 126 107 108
3 118 122 119
3 118 117 122
3 101 107 125
3 101 100 107
3 134 132 87
3 134 87 135
3 133 136 87
3 36 63 62
3 36 35 63
3 40 65 64
3 40 39 65
3 39 68 65
3 39 48 68
3 54 72 71
3 54 53 72
3 53 62 72
3 53 36 62
3 61 74 73
3 61 58 74
3 112 90 110
3 112 96 90
3 116 99 114
3 116 92 99
3 114 101 117
3 114 99 101
3 122 127 120
3 122 125 127
3 120 129 123
3 120 127 129
3 117 125 122
3 117 101 125
3 136 137 87
3 138 51 69
3 138 139 51
3 44 67 66
3 44 43 67
3 81 84 83
3 81 80 84
3 87 137 140
3 140 141 87
3 142 3 0
3 142 143 3
3 144 32 145
3 144 30 32
3 89 145 87
3 89 144 145
3 145 135 87
3 32 143 142
3 32 31 143
3 142 146 32
3 146 147 32
3 147 148 32
3 149 145 32
3 150 149 32
3 151 150 32
3 152 151 32
3 148 152 32
3 98 104 105
3 98 91 104
3 111 116 113
3 111 110 116
3 110 92 116
3 110 90 92
3 153 154 155
3 153 156 154
3 157 156 153
3 157 141 156
3 88 141 157
3 88 87 141
3 157 158 88
3 158 159 88
3 159 160 88
3 160 94 88
3 95 161 88
3 161 162 88
3 163 164 80
3 165 88 162
3 166 88 165
3 166 86 88
3 82 165 80
3 82 166 165
3 165 163 80
3 167 85 80
3 80 168 167
3 164 169 80
3 169 170 80
3 80 170 168
3 171 172 173
3 171 174 172
3 175 24 176
3 175 22 24
3 59 139 57
3 59 177 139
3 178 54 179
3 178 52 54
3 180 174 171
3 180 138 174
3 181 22 175
3 181 71 22
3 179 71 181
3 179 54 71
3 69 47 70
3 69 51 47
3 177 51 139
3 177 50 51
3 17 176 16
3 17 175 176
3 49 179 48
3 49 178 179
3 68 175 17
3 68 181 175
3 48 181 68
3 48 179 181
3 57 138 180
3 57 139 138
