ply
format ascii 1.0
element vertex 54
property float x
property float y
property float z
property float nx
property float ny
property float nz
property float u
property float v
element face 30
property list uchar int vertex_indices
end_header
-0.76205 0.591434 0.424113 0 0 -1 0 0
-0.25461 0 0.424113 0 0 -1 0 0
-0.76205 0 0.424113 0 0 -1 0 0
-0.25461 0.591434 0.424113 0 0 -1 0 0
-3.502188 0.591434 0.424113 0 0 -1 0 0
-2.49821 0 0.424113 0 0 -1 0 0
-3.502188 0 0.424113 0 0 -1 0 0
-2.49821 0.591434 0.424113 0 0 -1 0 0
-2.49821 0.591434 0 -1 0 0 0 0
-2.49821 0 0.424113 -1 0 0 0 0
-2.49821 0.591434 0.424113 -1 0 0 0 0
-2.49821 0 0 -1 0 0 0 0
-0.25461 0.591434 0 -1 0 0 0 0
-0.25461 0 0.424113 -1 0 0 0 0
-0.25461 0.591434 0.424113 -1 0 0 0 0
-0.25461 0 0 -1 0 0 0 0
-3.502188 0 0 1 0 0 0 0
-3.502188 0.591434 0.424113 1 0 0 0 0
-3.502188 0 0.424113 1 0 0 0 0
-3.502188 0.591434 0 1 0 0 0 0
-1.269489 0 0 1 0 0 0 0
-1.269489 0.591434 0.424113 1 0 0 0 0
-1.269489 0 0.424113 1 0 0 0 0
-1.269489 0.591434 0 1 0 0 0 0
0 0.591434 -3.022501 0 0 1 0 0
0.384443 0 -3.022501 0 0 1 0 0
0.384443 0.591434 -3.022501 0 0 1 0 0
0 0 -3.022501 0 0 1 0 0
0.384443 0.591434 -2.539413 -1 0 0 0 0
0.384443 0 -3.022501 -1 0 0 0 0
0.384443 0 -2.539413 -1 0 0 0 0
0.384443 0.591434 -3.022501 -1 0 0 0 0
0 0 -2.0441 0 0 -1 0 0
0.384443 0.591434 -2.0441 0 0 -1 0 0
0.384443 0 -2.0441 0 0 -1 0 0
0 0.591434 -2.0441 0 0 -1 0 0
0.384443 0.591434 -2.0441 -1 0 0 0 0
0.384443 0 -2.0441 -1 0 0 0 0
0 0.591434 -1.077001 0 0 1 0 0
0.384443 0 -1.077001 0 0 1 0 0
0.384443 0.591434 -1.077001 0 0 1 0 0
0 0 -1.077001 0 0 1 0 0
0.384443 0 -1.077001 -1 0 0 0 0
0.384443 0.591434 -0.593914 -1 0 0 0 0
0.384443 0.591434 -1.077001 -1 0 0 0 0
0.384443 0 -0.593914 -1 0 0 0 0
0 0 -0.0986 0 0 -1 0 0
0.384443 0.591434 -0.0986 0 0 -1 0 0
0.384443 0 -0.0986 0 0 -1 0 0
0 0.591434 -0.0986 0 0 -1 0 0
0.384443 0.591434 -0.0986 -1 0 0 0 0
0.384443 0 -0.0986 -1 0 0 0 0
-1.269489 0.591434 0.424113 0 0 -1 0 0
-1.269489 0 0.424113 0 0 -1 0 0
3 0 1 2
3 0 3 1
3 4 5 6
3 4 7 5
3 8 9 10
3 8 11 9
3 12 13 14
3 12 15 13
3 16 17 18
3 16 19 17
3 20 21 22
3 20 23 21
3 24 25 26
3 24 27 25
3 28 29 30
3 28 31 29
3 32 33 34
3 32 35 33
3 36 30 37
3 36 28 30
3 38 39 40
3 38 41 39
3 42 43 44
3 42 45 43
3 46 47 48
3 46 49 47
3 50 45 51
3 50 43 45
3 52 2 53
3 52 0 2
