ply
format ascii 1.0
element vertex 128
property float x
property float y
property float z
property float nx
property float ny
property float nz
property float u
property float v
element face 96
property list uchar int vertex_indices
end_header
-2.84784 0.10249 -2.986472 0.195404529 0 -0.980722728 0 0
-2.86877 -0.002471 -2.986472 -0.195404529 0 -0.980722728 0 0
-2.86877 0.10249 -2.986472 -0.195404529 0 -0.980722728 0 0
-2.84784 -0.002471 -2.986472 0.195404529 0 -0.980722728 0 0
-2.847289 0.10249 -2.964991 0.980783989 0 0.195096815 0 0
-2.847289 -0.002471 -2.985921 0.980783989 0 -0.195096815 0 0
-2.847289 0.10249 -2.985921 0.980783989 0 -0.195096815 0 0
-2.847289 -0.002471 -2.964991 0.980783989 0 0.195096815 0 0
-2.86877 0.10249 -2.96444 -0.195096815 0 0.980783989 0 0
-2.84784 -0.002471 -2.96444 0.195096815 0 0.980783989 0 0
-2.84784 0.10249 -2.96444 0.195096815 0 0.980783989 0 0
-2.86877 -0.002471 -2.96444 -0.195096815 0 0.980783989 0 0
-2.869159 0.10249 -2.98631 -0.383308462 0 -0.923620389 0 0
-2.869159 -0.002471 -2.98631 -0.383308462 0 -0.923620389 0 0
-2.869159 -0.002471 -2.98631 -0.923620389 0 -0.383308462 0 0
-2.869321 0.10249 -2.985921 -0.980722728 0 -0.195404529 0 0
-2.869159 0.10249 -2.98631 -0.923620389 0 -0.383308462 0 0
-2.869321 -0.002471 -2.985921 -0.980722728 0 -0.195404529 0 0
-2.869159 -0.002471 -2.964601 -0.382690337 0 0.923876672 0 0
-2.869159 0.10249 -2.964601 -0.382690337 0 0.923876672 0 0
-2.869159 0.10249 -2.964601 -0.923620389 0 0.383308462 0 0
-2.869321 -0.002471 -2.964991 -0.980722728 0 0.195404529 0 0
-2.869159 -0.002471 -2.964601 -0.923620389 0 0.383308462 0 0
-2.869321 0.10249 -2.964991 -0.980722728 0 0.195404529 0 0
-2.84745 -0.002471 -2.964601 0.923826662 0 0.382811048 0 0
-2.84745 0.10249 -2.964601 0.923826662 0 0.382811048 0 0
-2.84745 0.10249 -2.964601 0.382690337 0 0.923876672 0 0
-2.84745 -0.002471 -2.964601 0.382690337 0 0.923876672 0 0
-2.84745 -0.002471 -2.98631 0.383308462 0 -0.923620389 0 0
-2.84745 0.10249 -2.98631 0.383308462 0 -0.923620389 0 0
-2.84745 0.10249 -2.98631 0.923826662 0 -0.382811048 0 0
-2.84745 -0.002471 -2.98631 0.923826662 0 -0.382811048 0 0
-0.945362 0.10249 -2.986472 0.19500062 0 -0.980803119 0 0
-0.966293 -0.002471 -2.986472 -0.19500062 0 -0.980803119 0 0
-0.966293 0.10249 -2.986472 -0.19500062 0 -0.980803119 0 0
-0.945362 -0.002471 -2.986472 0.19500062 0 -0.980803119 0 0
-0.944811 0.10249 -2.964991 0.980783989 0 0.195096815 0 0
-0.944811 -0.002471 -2.985921 0.980741888 0 -0.195308342 0 0
-0.944811 0.10249 -2.985921 0.980741888 0 -0.195308342 0 0
-0.944811 -0.002471 -2.964991 0.980783989 0 0.195096815 0 0
-0.966293 0.10249 -2.96444 -0.19500062 0 0.980803119 0 0
-0.945362 -0.002471 -2.96444 0.194692904 0 0.980864248 0 0
-0.945362 0.10249 -2.96444 0.194692904 0 0.980864248 0 0
-0.966293 -0.002471 -2.96444 -0.19500062 0 0.980803119 0 0
-0.966682 0.10249 -2.98631 -0.38260498 0 -0.923912025 0 0
-0.966682 -0.002471 -2.98631 -0.38260498 0 -0.923912025 0 0
-0.966682 -0.002471 -2.98631 -0.923741251 0 -0.383017104 0 0
-0.966843 0.10249 -2.985921 -0.980741888 0 -0.195308342 0 0
-0.966682 0.10249 -2.98631 -0.923741251 0 -0.383017104 0 0
-0.966843 -0.002471 -2.985921 -0.980741888 0 -0.195308342 0 0
-0.966682 -0.002471 -2.964601 -0.38260498 0 0.923912025 0 0
-0.966682 0.10249 -2.964601 -0.38260498 0 0.923912025 0 0
-0.966682 0.10249 -2.964601 -0.923826662 0 0.382811048 0 0
-0.966843 -0.002471 -2.964991 -0.980783989 0 0.195096815 0 0
-0.966682 -0.002471 -2.964601 -0.923826662 0 0.382811048 0 0
-0.966843 0.10249 -2.964991 -0.980783989 0 0.195096815 0 0
-0.944973 -0.002471 -2.964601 0.923826662 0 0.382811048 0 0
-0.944973 0.10249 -2.964601 0.923826662 0 0.382811048 0 0
-0.944973 0.10249 -2.964601 0.381986699 0 0.924167821 0 0
-0.944973 -0.002471 -2.964601 0.381986699 0 0.924167821 0 0
-0.944973 -0.002471 -2.98631 0.38260498 0 -0.923912025 0 0
-0.944973 0.10249 -2.98631 0.38260498 0 -0.923912025 0 0
-0.944973 0.10249 -2.98631 0.923741251 0 -0.383017104 0 0
-0.944973 -0.002471 -2.98631 0.923741251 0 -0.383017104 0 0
-0.945362 0.10249 -3.551544 0.195404529 0 -0.980722728 0 0
-0.966293 -0.002471 -3.551544 -0.195404529 0 -0.980722728 0 0
-0.966293 0.10249 -3.551544 -0.195404529 0 -0.980722728 0 0
-0.945362 -0.002471 -3.551544 0.195404529 0 -0.980722728 0 0
-0.944812 0.10249 -3.530063 0.980803119 0 0.19500062 0 0
-0.944812 -0.002471 -3.550993 0.980783989 0 -0.195096815 0 0
-0.944812 0.10249 -3.550993 0.980783989 0 -0.195096815 0 0
-0.944812 -0.002471 -3.530063 0.980803119 0 0.19500062 0 0
-0.966293 0.10249 -3.529512 -0.19500062 0 0.980803119 0 0
-0.945362 -0.002471 -3.529512 0.19500062 0 0.980803119 0 0
-0.945362 0.10249 -3.529512 0.19500062 0 0.980803119 0 0
-0.966293 -0.002471 -3.529512 -0.19500062 0 0.980803119 0 0
-0.966682 0.10249 -3.551383 -0.383187752 0 -0.923670475 0 0
-0.966682 -0.002471 -3.551383 -0.383187752 0 -0.923670475 0 0
-0.966682 -0.002471 -3.551383 -0.923826662 0 -0.382811048 0 0
-0.966843 0.10249 -3.550993 -0.980783989 0 -0.195096815 0 0
-0.966682 0.10249 -3.551383 -0.923826662 0 -0.382811048 0 0
-0.966843 -0.002471 -3.550993 -0.980783989 0 -0.195096815 0 0
-0.966682 -0.002471 -3.529674 -0.38260498 0 0.923912025 0 0
-0.966682 0.10249 -3.529674 -0.38260498 0 0.923912025 0 0
-0.966682 0.10249 -3.529674 -0.923947372 0 0.382519612 0 0
-0.966843 -0.002471 -3.530063 -0.980803119 0 0.19500062 0 0
-0.966682 -0.002471 -3.529674 -0.923947372 0 0.382519612 0 0
-0.966843 0.10249 -3.530063 -0.980803119 0 0.19500062 0 0
-0.944973 -0.002471 -3.529674 0.923947372 0 0.382519612 0 0
-0.944973 0.10249 -3.529674 0.923947372 0 0.382519612 0 0
-0.944973 0.10249 -3.529674 0.38260498 0 0.923912025 0 0
-0.944973 -0.002471 -3.529674 0.38260498 0 0.923912025 0 0
-0.944973 -0.002471 -3.551383 0.383187752 0 -0.923670475 0 0
-0.944973 0.10249 -3.551383 0.383187752 0 -0.923670475 0 0
-0.944973 0.10249 -3.551383 0.923826662 0 -0.382811048 0 0
-0.944973 -0.002471 -3.551383 0.923826662 0 -0.382811048 0 0
-2.84784 0.10249 -3.551544 0.195096815 0 -0.980783989 0 0
-2.86877 -0.002471 -3.551544 -0.195096815 0 -0.980783989 0 0
-2.86877 0.10249 -3.551544 -0.195096815 0 -0.980783989 0 0
-2.84784 -0.002471 -3.551544 0.195096815 0 -0.980783989 0 0
-2.847289 0.10249 -3.530063 0.980741888 0 0.195308342 0 0
-2.847289 -0.002471 -3.550993 0.980783989 0 -0.195096815 0 0
-2.847289 0.10249 -3.550993 0.980783989 0 -0.195096815 0 0
-2.847289 -0.002471 -3.530063 0.980741888 0 0.195308342 0 0
-2.86877 0.10249 -3.529512 -0.195404529 0 0.980722728 0 0
-2.84784 -0.002471 -3.529512 0.195404529 0 0.980722728 0 0
-2.84784 0.10249 -3.529512 0.195404529 0 0.980722728 0 0
-2.86877 -0.002471 -3.529512 -0.195404529 0 0.980722728 0 0
-2.869159 0.10249 -3.551383 -0.382690337 0 -0.923876672 0 0
-2.869159 -0.002471 -3.551383 -0.382690337 0 -0.923876672 0 0
-2.869159 -0.002471 -3.551383 -0.923620389 0 -0.383308462 0 0
-2.869321 0.10249 -3.550993 -0.980722728 0 -0.195404529 0 0
-2.869159 0.10249 -3.551383 -0.923620389 0 -0.383308462 0 0
-2.869321 -0.002471 -3.550993 -0.980722728 0 -0.195404529 0 0
-2.869159 -0.002471 -3.529673 -0.383308462 0 0.923620389 0 0
-2.869159 0.10249 -3.529673 -0.383308462 0 0.923620389 0 0
-2.869159 0.10249 -3.529673 -0.923534864 0 0.383514478 0 0
-2.869321 -0.002471 -3.530063 -0.98070356 0 0.19550071 0 0
-2.869159 -0.002471 -3.529673 -0.923534864 0 0.383514478 0 0
-2.869321 0.10249 -3.530063 -0.98070356 0 0.19550071 0 0
-2.84745 -0.002471 -3.529673 0.923741251 0 0.383017104 0 0
-2.84745 0.10249 -3.529673 0.923741251 0 0.383017104 0 0
-2.84745 0.10249 -3.529673 0.383308462 0 0.923620389 0 0
-2.84745 -0.002471 -3.529673 0.383308462 0 0.923620389 0 0
-2.84745 -0.002471 -3.551383 0.382690337 0 -0.923876672 0 0
-2.84745 0.10249 -3.551383 0.382690337 0 -0.923876672 0 0
-2.84745 0.10249 -3.551383 0.923826662 0 -0.382811048 0 0
-2.84745 -0.002471 -3.551383 0.923826662 0 -0.382811048 0 0
3 0 1 2
3 0 3 1
3 4 5 6
3 4 7 5
3 8 9 10
3 8 11 9
3 1 12 2
3 1 13 12
3 14 15 16
3 14 17 15
3 8 18 11
3 8 19 18
3 20 21 22
3 20 23 21
3 4 24 7
3 4 25 24
3 26 9 27
3 26 10 9
3 0 28 3
3 0 29 28
3 30 5 31
3 30 6 5
3 15 21 23
3 15 17 21
3 32 33 34
3 32 35 33
3 36 37 38
3 36 39 37
3 40 41 42
3 40 43 41
3 33 44 34
3 33 45 44
3 46 47 48
3 46 49 47
3 40 50 43
3 40 51 50
3 52 53 54
3 52 55 53
3 36 56 39
3 36 57 56
3 58 41 59
3 58 42 41
3 32 60 35
3 32 61 60
3 62 37 63
3 62 38 37
3 47 53 55
3 47 49 53
3 64 65 66
3 64 67 65
3 68 69 70
3 68 71 69
3 72 73 74
3 72 75 73
3 65 76 66
3 65 77 76
3 78 79 80
3 78 81 79
3 72 82 75
3 72 83 82
3 84 85 86
3 84 87 85
3 68 88 71
3 68 89 88
3 90 73 91
3 90 74 73
3 64 92 67
3 64 93 92
3 94 69 95
3 94 70 69
3 79 85 87
3 79 81 85
3 96 97 98
3 96 99 97
3 100 101 102
3 100 103 101
3 104 105 106
3 104 107 105
3 97 108 98
3 97 109 108
3 110 111 112
3 110 113 111
3 104 114 107
3 104 115 114
3 116 117 118
3 116 119 117
3 100 120 103
3 100 121 120
3 122 105 123
3 122 106 105
3 96 124 99
3 96 125 124
3 126 101 127
3 126 102 101
3 111 117 119
3 111 113 117
