ply
format ascii 1.0
element vertex 133
property float x
property float y
property float z
property float nx
property float ny
property float nz
property float u
property float v
element face 240
property list uchar int vertex_indices
end_header
-1.728766 1.110418 -0.108683 -0.234210089 -0.565024339 -0.791134079 0 0
-1.729873 1.111333 -0.108761 -0.445006466 -0.378705503 -0.811511791 0 0
-1.728727 1.111076 -0.10907 -0.221206174 -0.410711463 -0.884524687 0 0
-1.729451 1.110315 -0.10833 -0.374622469 -0.590835436 -0.714542856 0 0
-1.729039 1.109313 -0.107513 -0.231299007 -0.733696849 -0.638897256 0 0
-1.728108 1.110049 -0.108537 -0.121203682 -0.642519517 -0.756622983 0 0
-1.727374 1.110958 -0.109212 0 -0.426008927 -0.904718959 0 0
-1.726025 1.108955 -0.10653 0.325606639 -0.924518851 -0.198104039 0 0
-1.727255 1.108643 -0.106327 0.118398458 -0.95818752 -0.260496607 0 0
-1.72665 1.108892 -0.106945 0.179700711 -0.926003662 -0.332001313 0 0
-1.726124 1.10883 -0.105902 0.328813533 -0.935638507 -0.128305281 0 0
-1.724966 1.109363 -0.105623 0.548416285 -0.832624725 -0.0773022955 0 0
-1.725351 1.109277 -0.106693 0.452203464 -0.862806609 -0.226001731 0 0
-1.725904 1.109413 -0.107708 0.292618904 -0.799851672 -0.524033854 0 0
-1.728766 1.111836 -0.109334 -0.21790047 -0.261800564 -0.940202026 0 0
-1.729451 1.112307 -0.109245 -0.344486624 -0.184592832 -0.920464259 0 0
-1.728108 1.112176 -0.109515 -0.103305336 -0.200410352 -0.974250326 0 0
-1.728844 1.113459 -0.109567 -0.239404811 0.000800016076 -0.970919511 0 0
-1.7238 1.111836 -0.108156 0.69586438 -0.307384265 -0.649066775 0 0
-1.724875 1.111333 -0.108761 0.445006466 -0.378705503 -0.811511791 0 0
-1.724126 1.112307 -0.108612 0.597680343 -0.198493472 -0.776774452 0 0
-1.724126 1.111076 -0.108047 0.633519782 -0.462714448 -0.620119364 0 0
-1.723526 1.110958 -0.107134 0.789127596 -0.513517958 -0.337011786 0 0
-1.723366 1.112176 -0.107747 0.812292417 -0.246297701 -0.528695065 0 0
-1.723526 1.113459 -0.108283 0.724633486 -0.00190008781 -0.689131846 0 0
-1.730115 1.112713 -0.109009 -0.474797016 -0.109199314 -0.873294511 0 0
-1.730622 1.112307 -0.108612 -0.597680343 -0.198493472 -0.776774452 0 0
-1.730132 1.113491 -0.109026 -0.479014993 0.0258008076 -0.877427464 0 0
-1.731221 1.113459 -0.108283 -0.724680832 -0.0019999471 -0.689081774 0 0
-1.72294 1.112713 -0.105133 0.933360022 -0.113507299 0.340521898 0 0
-1.723364 1.111249 -0.105085 0.888786473 -0.414393693 0.19579702 0 0
-1.722843 1.112307 -0.105676 0.961048126 -0.223411188 0.162708148 0 0
-1.723223 1.11234 -0.104598 0.911233402 -0.167006122 0.376513801 0 0
-1.723301 1.113508 -0.104315 0.898998791 0.0412999445 0.435999414 0 0
-1.722912 1.113491 -0.105127 0.937480791 0.034799287 0.346292905 0 0
-1.722618 1.113459 -0.106205 1 0 0 0 0
-1.724633 1.112713 -0.109009 0.474791829 -0.109298119 -0.873284971 0 0
-1.725297 1.112307 -0.109245 0.344486624 -0.184592832 -0.920464259 0 0
-1.724616 1.113491 -0.109026 0.478939164 0.0257021017 -0.877471754 0 0
-1.725904 1.113459 -0.109567 0.239404811 0.000800016076 -0.970919511 0 0
-1.730459 1.116499 -0.107601 -0.575018789 0.600719629 -0.555418149 0 0
-1.731503 1.115668 -0.107051 -0.767363072 0.382981569 -0.514275251 0 0
-1.730752 1.116704 -0.10702 -0.602419962 0.620620565 -0.501916631 0 0
-1.730734 1.115841 -0.107931 -0.633373193 0.452480849 -0.62777343 0 0
-1.729752 1.115959 -0.108638 -0.42939056 0.45439001 -0.780482841 0 0
-1.729813 1.116868 -0.107771 -0.447421609 0.674432573 -0.587328366 0 0
-1.729782 1.117554 -0.106786 -0.402376983 0.782255252 -0.475572796 0 0
-1.723773 1.116499 -0.106423 0.773730246 0.628224558 -0.0817031938 0 0
-1.723331 1.115584 -0.107181 0.8278012 0.43450063 -0.354900515 0 0
-1.724013 1.116602 -0.107016 0.686314777 0.656314131 -0.313406748 0 0
-1.72329 1.115841 -0.106276 0.868773998 0.494885188 -0.0178994643 0 0
-1.723521 1.115963 -0.105274 0.870375482 0.453287231 0.192294583 0 0
-1.7241 1.116901 -0.106018 0.729973309 0.680775108 -0.0606977806 0 0
-1.724993 1.117604 -0.106535 0.488708978 0.790614524 -0.368906777 0 0
-1.72654 1.116499 -0.108818 0.155702178 0.551207711 -0.819711468 0 0
-1.727374 1.115584 -0.109365 0 0.352503897 -0.935810345 0 0
-1.727374 1.116602 -0.108831 0 0.567419769 -0.823428689 0 0
-1.726203 1.115841 -0.109114 0.212009361 0.411218158 -0.886539146 0 0
-1.724996 1.115959 -0.108638 0.42939056 0.45439001 -0.780482841 0 0
-1.726124 1.116868 -0.108413 0.245015862 0.648341972 -0.720846666 0 0
-1.727374 1.117504 -0.108063 0 0.775296647 -0.631597268 0 0
-1.730115 1.110418 -0.107954 -0.534804393 -0.574304718 -0.619805092 0 0
-1.73017 1.110016 -0.107484 -0.532925898 -0.622230238 -0.573427866 0 0
-1.730622 1.111076 -0.108047 -0.632535319 -0.450225139 -0.63023519 0 0
-1.731227 1.110954 -0.107135 -0.755579037 -0.418688384 -0.503786023 0 0
-1.725982 1.110418 -0.108683 0.233899276 -0.560698265 -0.794297542 0 0
-1.726021 1.111076 -0.10907 0.221206174 -0.410711463 -0.884524687 0 0
-1.72664 1.110049 -0.108537 0.117398724 -0.637693068 -0.761291725 0 0
-1.725297 1.110315 -0.10833 0.385699009 -0.600098458 -0.700798199 0 0
-1.727374 1.109745 -0.108313 -0.00490004787 -0.699406833 -0.714706983 0 0
-1.727374 1.109277 -0.107786 0.00190006976 -0.80102941 -0.598621979 0 0
-1.727374 1.108955 -0.107259 0.0274021818 -0.89107095 -0.453036072 0 0
-1.728147 1.10883 -0.106995 -0.0470006869 -0.872912758 -0.485607097 0 0
-1.724633 1.110418 -0.107954 0.538510224 -0.599311378 -0.592311245 0 0
-1.724616 1.110049 -0.107445 0.564035456 -0.707244459 -0.426226793 0 0
-1.724676 1.109745 -0.106856 0.56620173 -0.783602394 -0.255700781 0 0
-1.724162 1.110049 -0.106406 0.671330113 -0.728832693 -0.134606038 0 0
-1.723773 1.110418 -0.105986 0.767922262 -0.640518569 0.00560016235 0 0
-1.723996 1.110213 -0.105389 0.738002244 -0.671602042 0.0656001994 0 0
-1.72329 1.111076 -0.106133 0.867643362 -0.497024839 -0.0127006347 0 0
-1.727374 1.114204 -0.109671 0 0.102701264 -0.994712245 0 0
-1.728098 1.11461 -0.109572 -0.123208366 0.17701202 -0.976466304 0 0
-1.727374 1.113426 -0.109692 0 -0.0236005068 -0.999721469 0 0
-1.72665 1.11461 -0.109572 0.123208366 0.17701202 -0.976466304 0 0
-1.727374 1.112582 -0.109616 0 -0.141505359 -0.98993749 0 0
-1.72664 1.112176 -0.109515 0.103305336 -0.200410352 -0.974250326 0 0
-1.725982 1.111836 -0.109334 0.21790047 -0.261800564 -0.940202026 0 0
-1.731808 1.114204 -0.107276 -0.885839434 0.111804977 -0.450320046 0 0
-1.732163 1.113409 -0.106455 -0.930803681 -0.0411001626 -0.363201436 0 0
-1.732002 1.114577 -0.106718 -0.896926415 0.161804765 -0.411512119 0 0
-1.731836 1.113426 -0.107282 -0.893560541 -0.0343023241 -0.447630328 0 0
-1.731458 1.11461 -0.107757 -0.791224524 0.20840646 -0.57491782 0 0
-1.731739 1.112582 -0.107259 -0.88070332 -0.172600651 -0.441101663 0 0
-1.731898 1.112144 -0.106693 -0.885909448 -0.229502448 -0.403104299 0 0
-1.731382 1.112176 -0.107747 -0.80437693 -0.243223262 -0.542051842 0 0
-1.730948 1.111836 -0.108156 -0.695098658 -0.306299409 -0.650398745 0 0
-1.72294 1.114204 -0.107276 0.910726616 0.123503609 -0.394111518 0 0
-1.72329 1.11461 -0.107757 0.802638636 0.216910441 -0.555626746 0 0
-1.722912 1.113426 -0.107282 0.917944453 -0.0307014868 -0.395519153 0 0
-1.722843 1.11461 -0.106733 0.955476346 0.230018379 -0.184814767 0 0
-1.723009 1.112582 -0.107259 0.903349284 -0.174009493 -0.392021387 0 0
-1.722912 1.112176 -0.106708 0.941060766 -0.258516693 -0.218114084 0 0
-1.72294 1.111836 -0.106188 0.939770868 -0.340989429 -0.0235992684 0 0
-1.730975 1.115081 -0.108129 -0.67313703 0.301116565 -0.675437157 0 0
-1.730585 1.114741 -0.108562 -0.572889771 0.223096017 -0.788685918 0 0
-1.730072 1.114335 -0.108965 -0.471285119 0.151495217 -0.868872566 0 0
-1.729397 1.114741 -0.109203 -0.361099065 0.209899456 -0.908597647 0 0
-1.728723 1.115081 -0.109345 -0.241005941 0.263306491 -0.934123026 0 0
-1.728545 1.115841 -0.109114 -0.212009361 0.411218158 -0.886539146 0 0
-1.72294 1.115081 -0.106221 0.939396891 0.342498866 0.01509995 0 0
-1.722912 1.114741 -0.105701 0.944825676 0.257006984 0.203105519 0 0
-1.723009 1.114335 -0.10515 0.922436156 0.175206867 0.344113488 0 0
-1.723327 1.114773 -0.104623 0.897186255 0.234596406 0.374194267 0 0
-1.726025 1.115081 -0.109345 0.241005941 0.263306491 -0.934123026 0 0
-1.725351 1.114741 -0.109203 0.361099065 0.209899456 -0.908597647 0 0
-1.724676 1.114335 -0.108965 0.471277978 0.151592916 -0.868859399 0 0
-1.724162 1.114741 -0.108562 0.572889771 0.223096017 -0.788685918 0 0
-1.723773 1.115081 -0.108129 0.676726498 0.303811896 -0.670626259 0 0
-1.724013 1.115841 -0.107931 0.643927145 0.462819511 -0.609225682 0 0
-1.728208 1.117962 -0.107057 -0.16420119 0.901906539 -0.399502896 0 0
-1.728624 1.118087 -0.106507 -0.223897311 0.904089142 -0.363995628 0 0
-1.728624 1.11764 -0.107484 -0.253214459 0.821046883 -0.511629215 0 0
-1.727374 1.118025 -0.10712 0 0.914659089 -0.404226114 0 0
-1.727374 1.118274 -0.106356 0 0.953087181 -0.302695929 0 0
-1.729041 1.117172 -0.10791 -0.325613904 0.723230883 -0.609026006 0 0
-1.728624 1.116868 -0.108413 -0.245015862 0.648341972 -0.720846666 0 0
-1.728208 1.116499 -0.108818 -0.155693596 0.551277324 -0.819666284 0 0
-1.72654 1.117962 -0.107057 0.175198531 0.900192452 -0.398696657 0 0
-1.726124 1.11764 -0.107484 0.27181321 0.821639933 -0.50102435 0 0
-1.726124 1.118087 -0.106507 0.253112136 0.896542986 -0.363517429 0 0
-1.725707 1.117172 -0.10791 0.336128354 0.73286182 -0.591549899 0 0
-1.724935 1.116868 -0.107771 0.463589892 0.690784938 -0.554887901 0 0
-1.724288 1.116499 -0.107601 0.593829205 0.621630573 -0.510825123 0 0
3 0 1 2
3 0 3 1
3 0 4 3
3 0 5 4
3 0 6 5
3 0 2 6
3 7 8 9
3 7 10 8
3 7 11 10
3 7 12 11
3 7 13 12
3 7 9 13
3 14 1 15
3 14 2 1
3 14 6 2
3 14 16 6
3 14 17 16
3 14 15 17
3 18 19 20
3 18 21 19
3 18 22 21
3 18 23 22
3 18 24 23
3 18 20 24
3 25 1 26
3 25 15 1
3 25 17 15
3 25 27 17
3 25 28 27
3 25 26 28
3 29 30 31
3 29 32 30
3 29 33 32
3 29 34 33
3 29 35 34
3 29 31 35
3 36 19 37
3 36 20 19
3 36 24 20
3 36 38 24
3 36 39 38
3 36 37 39
3 40 41 42
3 40 43 41
3 40 44 43
3 40 45 44
3 40 46 45
3 40 42 46
3 47 48 49
3 47 50 48
3 47 51 50
3 47 52 51
3 47 53 52
3 47 49 53
3 54 55 56
3 54 57 55
3 54 58 57
3 54 59 58
3 54 60 59
3 54 56 60
3 61 4 62
3 61 3 4
3 61 1 3
3 61 63 1
3 61 64 63
3 61 62 64
3 65 6 66
3 65 67 6
3 65 13 67
3 65 68 13
3 65 19 68
3 65 66 19
3 69 6 67
3 69 5 6
3 69 4 5
3 69 70 4
3 69 13 70
3 69 67 13
3 71 4 70
3 71 72 4
3 71 8 72
3 71 9 8
3 71 13 9
3 71 70 13
3 73 13 68
3 73 74 13
3 73 22 74
3 73 21 22
3 73 19 21
3 73 68 19
3 75 13 74
3 75 12 13
3 75 11 12
3 75 76 11
3 75 22 76
3 75 74 22
3 77 11 76
3 77 78 11
3 77 30 78
3 77 79 30
3 77 22 79
3 77 76 22
3 80 17 81
3 80 82 17
3 80 39 82
3 80 83 39
3 80 55 83
3 80 81 55
3 84 17 82
3 84 16 17
3 84 6 16
3 84 85 6
3 84 39 85
3 84 82 39
3 86 6 85
3 86 66 6
3 86 19 66
3 86 37 19
3 86 39 37
3 86 85 39
3 87 88 89
3 87 90 88
3 87 28 90
3 87 91 28
3 87 41 91
3 87 89 41
3 92 88 90
3 92 93 88
3 92 64 93
3 92 94 64
3 92 28 94
3 92 90 28
3 95 64 94
3 95 63 64
3 95 1 63
3 95 26 1
3 95 28 26
3 95 94 28
3 96 24 97
3 96 98 24
3 96 35 98
3 96 99 35
3 96 48 99
3 96 97 48
3 100 24 98
3 100 23 24
3 100 22 23
3 100 101 22
3 100 35 101
3 100 98 35
3 102 22 101
3 102 79 22
3 102 30 79
3 102 31 30
3 102 35 31
3 102 101 35
3 103 28 91
3 103 104 28
3 103 44 104
3 103 43 44
3 103 41 43
3 103 91 41
3 105 28 104
3 105 27 28
3 105 17 27
3 105 106 17
3 105 44 106
3 105 104 44
3 107 17 106
3 107 81 17
3 107 55 81
3 107 108 55
3 107 44 108
3 107 106 44
3 109 35 99
3 109 110 35
3 109 51 110
3 109 50 51
3 109 48 50
3 109 99 48
3 111 35 110
3 111 34 35
3 111 33 34
3 111 112 33
3 111 51 112
3 111 110 51
3 113 39 83
3 113 114 39
3 113 58 114
3 113 57 58
3 113 55 57
3 113 83 55
3 115 39 114
3 115 38 39
3 115 24 38
3 115 116 24
3 115 58 116
3 115 114 58
3 117 24 116
3 117 97 24
3 117 48 97
3 117 118 48
3 117 58 118
3 117 116 58
3 119 46 120
3 119 121 46
3 119 60 121
3 119 122 60
3 119 123 122
3 119 120 123
3 124 46 121
3 124 45 46
3 124 44 45
3 124 125 44
3 124 60 125
3 124 121 60
3 126 44 125
3 126 108 44
3 126 55 108
3 126 56 55
3 126 60 56
3 126 125 60
3 127 60 122
3 127 128 60
3 127 53 128
3 127 129 53
3 127 123 129
3 127 122 123
3 130 60 128
3 130 59 60
3 130 58 59
3 130 131 58
3 130 53 131
3 130 128 53
3 132 58 131
3 132 118 58
3 132 48 118
3 132 49 48
3 132 53 49
3 132 131 53
