ply
format ascii 1.0
element vertex 361
property float x
property float y
property float z
property float nx
property float ny
property float nz
property float u
property float v
element face 684
property list uchar int vertex_indices
end_header
-0.631293 0.118358 -0.049536 0.758846075 -0.136808307 -0.636738661 0 0
-0.659089 0.02959 -0.057431 0.634787923 -0.157397006 -0.756485608 0 0
-0.649997 0.118358 -0.068266 0.636729946 -0.136906439 -0.758835689 0 0
-0.642127 0.02959 -0.040445 0.756497511 -0.157299482 -0.634797912 0 0
-0.628345 0.02959 -0.020791 0.85520845 -0.157401555 -0.493804879 0 0
-0.616096 0.118358 -0.027864 0.857849525 -0.136907904 -0.495328596 0 0
-0.607066 0.207126 -0.033077 0.865022231 0.0482012388 -0.499412835 0 0
-0.623306 0.207126 -0.056238 0.765151554 0.0482032478 -0.642043259 0 0
-0.643295 0.207126 -0.076253 0.642043259 0.0482032478 -0.765151554 0 0
-0.899458 0.118358 0.048068 -0.990598712 -0.136799822 0 0 0
-0.883239 0.02959 0.071983 -0.972527591 -0.157404466 0.171504866 0 0
-0.897169 0.118358 0.074439 -0.975536164 -0.136905075 0.172006376 0 0
-0.885315 0.02959 0.048068 -0.987549606 -0.157307902 0 0 0
-0.883239 0.02959 0.024154 -0.972527591 -0.157404466 -0.171504866 0 0
-0.897169 0.118358 0.021697 -0.975536164 -0.136905075 -0.172006376 0 0
-0.907437 0.207126 0.019887 -0.983668977 0.0482033801 -0.17341216 0 0
-0.909884 0.207126 0.048068 -0.998837617 0.0482018153 0 0 0
-0.907437 0.207126 0.076249 -0.983668977 0.0482033801 0.17341216 0 0
-0.721245 0.118358 -0.10147 0.172008731 -0.136806944 -0.975549515 0 0
-0.747613 0.02959 -0.089651 0 -0.15740543 -0.987534066 0 0
-0.747613 0.118358 -0.103795 0 -0.136897949 -0.990585156 0 0
-0.723701 0.02959 -0.087542 0.171507565 -0.157306938 -0.972542895 0 0
-0.70051 0.02959 -0.081345 0.337699992 -0.157399996 -0.927999977 0 0
-0.695673 0.118358 -0.094637 0.338814283 -0.136905771 -0.93083924 0 0
-0.692107 0.207126 -0.104434 0.341602774 0.0482003914 -0.938607622 0 0
-0.719435 0.207126 -0.111737 0.17341216 0.0482033801 -0.983668977 0 0
-0.747613 0.207126 -0.114222 0 0.0482018153 -0.998837617 0 0
-0.863933 0.118358 0.145672 -0.758846075 -0.136808307 0.636738661 0 0
-0.836137 0.02959 0.153567 -0.634787923 -0.157397006 0.756485608 0 0
-0.845229 0.118358 0.164402 -0.636729946 -0.136906439 0.758835689 0 0
-0.853099 0.02959 0.136582 -0.756497511 -0.157299482 0.634797912 0 0
-0.866881 0.02959 0.116927 -0.85520845 -0.157401555 0.493804879 0 0
-0.87913 0.118358 0.124 -0.857849525 -0.136907904 0.495328596 0 0
-0.88816 0.207126 0.129213 -0.865022231 0.0482012388 0.499412835 0 0
-0.87192 0.207126 0.152374 -0.765151554 0.0482032478 0.642043259 0 0
-0.851931 0.207126 0.172389 -0.642043259 0.0482032478 0.765151554 0 0
-0.773981 0.118358 0.197607 -0.172008731 -0.136806944 0.975549515 0 0
-0.747613 0.02959 0.185787 0 -0.15740543 0.987534066 0 0
-0.747613 0.118358 0.199931 0 -0.136897949 0.990585156 0 0
-0.771525 0.02959 0.183679 -0.171507565 -0.157306938 0.972542895 0 0
-0.794715 0.02959 0.177481 -0.337699992 -0.157399996 0.927999977 0 0
-0.799553 0.118358 0.190773 -0.338814283 -0.136905771 0.93083924 0 0
-0.803119 0.207126 0.200571 -0.341602774 0.0482003914 0.938607622 0 0
-0.775791 0.207126 0.207874 -0.17341216 0.0482033801 0.983668977 0 0
-0.747613 0.207126 0.210358 0 0.0482018153 0.998837617 0 0
-0.67169 0.118358 0.17957 0.495292883 -0.136798034 0.857887672 0 0
-0.659089 0.02959 0.153567 0.634787923 -0.157397006 0.756485608 0 0
-0.649997 0.118358 0.164402 0.636729946 -0.136906439 0.758835689 0 0
-0.678762 0.02959 0.167322 0.493812649 -0.157304029 0.855221907 0 0
-0.70051 0.02959 0.177481 0.337699992 -0.157399996 0.927999977 0 0
-0.695673 0.118358 0.190773 0.338814283 -0.136905771 0.93083924 0 0
-0.692107 0.207126 0.200571 0.341602774 0.0482003914 0.938607622 0 0
-0.666478 0.207126 0.188599 0.499412835 0.0482012388 0.865022231 0 0
-0.643295 0.207126 0.172389 0.642043259 0.0482032478 0.765151554 0 0
-0.823536 0.118358 -0.083434 -0.495292883 -0.136798034 -0.857887672 0 0
-0.836137 0.02959 -0.057431 -0.634787923 -0.157397006 -0.756485608 0 0
-0.845229 0.118358 -0.068266 -0.636729946 -0.136906439 -0.758835689 0 0
-0.816464 0.02959 -0.071186 -0.493812649 -0.157304029 -0.855221907 0 0
-0.794716 0.02959 -0.081345 -0.337699992 -0.157399996 -0.927999977 0 0
-0.799553 0.118358 -0.094637 -0.338814283 -0.136905771 -0.93083924 0 0
-0.803119 0.207126 -0.104434 -0.341602774 0.0482003914 -0.938607622 0 0
-0.828748 0.207126 -0.092462 -0.499412835 0.0482012388 -0.865022231 0 0
-0.851931 0.207126 -0.076253 -0.642043259 0.0482032478 -0.765151554 0 0
-0.604925 0.118358 0.100002 0.93085198 -0.13680764 0.33881892 0 0
-0.611987 0.02959 0.071983 0.972527591 -0.157404466 0.171504866 0 0
-0.598057 0.118358 0.074439 0.975536164 -0.136905075 0.172006376 0 0
-0.618215 0.02959 0.095165 0.928014579 -0.157302471 0.337705305 0 0
-0.628345 0.02959 0.116927 0.85520845 -0.157401555 0.493804879 0 0
-0.616096 0.118358 0.124 0.857849525 -0.136907904 0.495328596 0 0
-0.607066 0.207126 0.129213 0.865022231 0.0482012388 0.499412835 0 0
-0.595128 0.207126 0.103568 0.938607622 0.0482003914 0.341602774 0 0
-0.587789 0.207126 0.076249 0.983668977 0.0482033801 0.17341216 0 0
-0.604925 0.118358 -0.003866 0.93085198 -0.13680764 -0.33881892 0 0
-0.618215 0.02959 0.000971 0.928014579 -0.157302471 -0.337705305 0 0
-0.611987 0.02959 0.024153 0.972527591 -0.157404466 -0.171504866 0 0
-0.598057 0.118358 0.021697 0.975536164 -0.136905075 -0.172006376 0 0
-0.587789 0.207126 0.019887 0.983668977 0.0482033801 -0.17341216 0 0
-0.595128 0.207126 -0.007432 0.938607622 0.0482003914 -0.341602774 0 0
-0.890301 0.118358 -0.003866 -0.93085198 -0.13680764 -0.33881892 0 0
-0.877011 0.02959 0.000971 -0.928014579 -0.157302471 -0.337705305 0 0
-0.866881 0.02959 -0.020791 -0.85520845 -0.157401555 -0.493804879 0 0
-0.87913 0.118358 -0.027863 -0.857849525 -0.136907904 -0.495328596 0 0
-0.88816 0.207126 -0.033077 -0.865022231 0.0482012388 -0.499412835 0 0
-0.900098 0.207126 -0.007432 -0.938607622 0.0482003914 -0.341602774 0 0
-0.67169 0.118358 -0.083434 0.495292883 -0.136798034 -0.857887672 0 0
-0.678762 0.02959 -0.071186 0.493812649 -0.157304029 -0.855221907 0 0
-0.666478 0.207126 -0.092463 0.499412835 0.0482012388 -0.865022231 0 0
-0.890301 0.118358 0.100002 -0.93085198 -0.13680764 0.33881892 0 0
-0.877011 0.02959 0.095165 -0.928014579 -0.157302471 0.337705305 0 0
-0.900098 0.207126 0.103568 -0.938607622 0.0482003914 0.341602774 0 0
-0.823536 0.118358 0.17957 -0.495292883 -0.136798034 0.857887672 0 0
-0.816464 0.02959 0.167322 -0.493812649 -0.157304029 0.855221907 0 0
-0.828748 0.207126 0.188599 -0.499412835 0.0482012388 0.865022231 0 0
-0.721245 0.118358 0.197607 0.172008731 -0.136806944 0.975549515 0 0
-0.723701 0.02959 0.183679 0.171507565 -0.157306938 0.972542895 0 0
-0.719435 0.207126 0.207874 0.17341216 0.0482033801 0.983668977 0 0
-0.773981 0.118358 -0.10147 -0.172008731 -0.136806944 -0.975549515 0 0
-0.771525 0.02959 -0.087542 -0.171507565 -0.157306938 -0.972542895 0 0
-0.775791 0.207126 -0.111737 -0.17341216 0.0482033801 -0.983668977 0 0
-0.631293 0.118358 0.145672 0.758846075 -0.136808307 0.636738661 0 0
-0.642127 0.02959 0.136582 0.756497511 -0.157299482 0.634797912 0 0
-0.623306 0.207126 0.152374 0.765151554 0.0482032478 0.642043259 0 0
-0.595768 0.118358 0.048068 0.990598712 -0.136799822 0 0 0
-0.60991 0.02959 0.048068 0.987549606 -0.157307902 0 0 0
-0.585342 0.207126 0.048068 0.998837617 0.0482018153 0 0 0
-0.863933 0.118358 -0.049536 -0.758846075 -0.136808307 -0.636738661 0 0
-0.853099 0.02959 -0.040445 -0.756497511 -0.157299482 -0.634797912 0 0
-0.87192 0.207126 -0.056237 -0.765151554 0.0482032478 -0.642043259 0 0
-0.774673 0.236716 -0.105397 -0.172601396 0.10750087 -0.979107921 0 0
-0.800917 0.236716 -0.098384 -0.3400194 0.107506134 -0.934253305 0 0
-0.747613 0.236716 -0.107783 0 0.107500543 -0.994205026 0 0
-0.883357 0.235156 0.097475 0.937435229 -0.0692026007 -0.341212823 0 0
-0.87273 0.246234 0.120304 0.63809956 0.676099533 -0.368399746 0 0
-0.87273 0.235156 0.120304 0.863937457 -0.0692030004 -0.498821627 0 0
-0.883357 0.246234 0.097475 0.69261565 0.67581527 -0.252105696 0 0
-0.622496 0.235156 0.120304 -0.863937457 -0.0692030004 -0.498821627 0 0
-0.611869 0.246234 0.097475 -0.69261565 0.67581527 -0.252105696 0 0
-0.611869 0.235156 0.097475 -0.937435229 -0.0692026007 -0.341212823 0 0
-0.622496 0.246234 0.120304 -0.63809956 0.676099533 -0.368399746 0 0
-0.628238 0.236716 0.148235 0.761584913 0.10749787 0.63908734 0 0
-0.612642 0.236716 0.125994 0.861006173 0.107500771 0.497103564 0 0
-0.647434 0.236716 0.167457 0.63908734 0.10749787 0.761584913 0 0
-0.601178 0.236716 0.101366 0.934253305 0.107506134 0.3400194 0 0
-0.612642 0.247794 0.125994 0.588904284 0.733205334 0.340002474 0 0
-0.601178 0.247794 0.101366 0.63869483 0.733494062 0.232498118 0 0
-0.800917 0.236716 0.19452 -0.3400194 0.107506134 0.934253305 0 0
-0.825529 0.247794 0.183023 -0.339810832 0.733523381 0.588618763 0 0
-0.825529 0.236716 0.183023 -0.497103564 0.107500771 0.861006173 0 0
-0.800917 0.247794 0.19452 -0.232599302 0.7331978 0.638998083 0 0
-0.59178 0.236716 0.048068 0.994205026 0.107500543 0 0 0
-0.59413 0.236716 0.021005 0.979107921 0.10750087 -0.172601396 0 0
-0.59413 0.236716 0.075131 0.979107921 0.10750087 0.172601396 0 0
-0.797026 0.235156 -0.087692 0.341212823 -0.0692026007 0.937435229 0 0
-0.819841 0.246234 -0.077034 0.36851386 0.675825418 0.638324008 0 0
-0.819841 0.235156 -0.077034 0.498821627 -0.0692030004 0.863937457 0 0
-0.797026 0.246234 -0.087692 0.252013294 0.676135667 0.692336522 0 0
-0.882584 0.236716 -0.029857 -0.861006173 0.107500771 -0.497103564 0 0
-0.866988 0.247794 -0.052099 -0.520618685 0.733526327 -0.436915681 0 0
-0.866988 0.236716 -0.052099 -0.761584913 0.10749787 -0.63908734 0 0
-0.882584 0.247794 -0.029857 -0.588904284 0.733205334 -0.340002474 0 0
-0.847792 0.236716 -0.071321 -0.63908734 0.10749787 -0.761584913 0 0
-0.722528 0.235156 0.190329 -0.173208952 -0.0692035765 -0.982450774 0 0
-0.6982 0.246234 0.183828 -0.252013294 0.676135667 -0.692336522 0 0
-0.6982 0.235156 0.183828 -0.341212823 -0.0692026007 -0.937435229 0 0
-0.722528 0.246234 0.190329 -0.127998691 0.67579309 -0.725892578 0 0
-0.654748 0.235156 -0.062604 -0.641223174 -0.069202501 0.76422762 0 0
-0.675385 0.246234 -0.077034 -0.36851386 0.675825418 0.638324008 0 0
-0.675385 0.235156 -0.077034 -0.498821627 -0.0692030004 0.863937457 0 0
-0.654748 0.246234 -0.062604 -0.473610531 0.676115034 0.56441255 0 0
-0.628238 0.236716 -0.052099 0.761584913 0.10749787 -0.63908734 0 0
-0.647434 0.236716 -0.071321 0.63908734 0.10749787 -0.761584913 0 0
-0.612642 0.236716 -0.029857 0.861006173 0.107500771 -0.497103564 0 0
-0.669697 0.236716 0.183023 0.497103564 0.107500771 0.861006173 0 0
-0.694309 0.247794 0.19452 0.232599302 0.7331978 0.638998083 0 0
-0.694309 0.236716 0.19452 0.3400194 0.107506134 0.934253305 0 0
-0.669697 0.247794 0.183023 0.339810832 0.733523381 0.588618763 0 0
-0.694309 0.236716 -0.098384 0.3400194 0.107506134 -0.934253305 0 0
-0.669697 0.247794 -0.086887 0.339810832 0.733523381 -0.588618763 0 0
-0.669697 0.236716 -0.086887 0.497103564 0.107500771 -0.861006173 0 0
-0.694309 0.247794 -0.098384 0.232599302 0.7331978 -0.638998083 0 0
-0.903446 0.236716 0.048068 -0.994205026 0.107500543 0 0 0
-0.901096 0.236716 0.075131 -0.979107921 0.10750087 0.172601396 0 0
-0.901096 0.236716 0.021005 -0.979107921 0.10750087 -0.172601396 0 0
-0.889891 0.235156 0.073156 0.982450774 -0.0692035765 -0.173208952 0 0
-0.889891 0.246234 0.073156 0.725612706 0.676111839 -0.12790224 0 0
-0.628238 0.247794 0.148235 0.520618685 0.733526327 0.436915681 0 0
-0.720553 0.236716 -0.105397 0.172601396 0.10750087 -0.979107921 0 0
-0.603157 0.235156 0.048068 -0.997602793 -0.0692001938 0 0 0
-0.605335 0.246234 0.022981 -0.725612706 0.676111839 0.12790224 0 0
-0.605335 0.235156 0.022981 -0.982450774 -0.0692035765 0.173208952 0 0
-0.603157 0.246234 0.048068 -0.737091874 0.675792549 0 0 0
-0.866988 0.236716 0.148235 -0.761584913 0.10749787 0.63908734 0 0
-0.882584 0.247794 0.125994 -0.588904284 0.733205334 0.340002474 0 0
-0.882584 0.236716 0.125994 -0.861006173 0.107500771 0.497103564 0 0
-0.866988 0.247794 0.148235 -0.520618685 0.733526327 0.436915681 0 0
-0.847792 0.236716 0.167457 -0.63908734 0.10749787 0.761584913 0 0
-0.858273 0.235156 -0.044786 0.76422762 -0.069202501 0.641223174 0 0
-0.87273 0.246234 -0.024168 0.63809956 0.676099533 0.368399746 0 0
-0.87273 0.235156 -0.024168 0.863937457 -0.0692030004 0.498821627 0 0
-0.858273 0.246234 -0.044786 0.564609813 0.675811746 0.473808235 0 0
-0.601178 0.247794 -0.00523 0.63869483 0.733494062 -0.232498118 0 0
-0.601178 0.236716 -0.00523 0.934253305 0.107506134 -0.3400194 0 0
-0.612642 0.247794 -0.029857 0.588904284 0.733205334 -0.340002474 0 0
-0.774673 0.236716 0.201533 -0.172601396 0.10750087 0.979107921 0 0
-0.747613 0.236716 0.203919 0 0.107500543 0.994205026 0 0
-0.747613 0.235156 0.192541 0 -0.0692001938 -0.997602793 0 0
-0.747613 0.246234 0.192541 0 0.676104919 -0.73680536 0 0
-0.722528 0.235156 -0.094193 -0.173208952 -0.0692035765 0.982450774 0 0
-0.747613 0.246234 -0.096405 0 0.676104919 0.73680536 0 0
-0.747613 0.235156 -0.096405 0 -0.0692001938 0.997602793 0 0
-0.722528 0.246234 -0.094193 -0.127998691 0.67579309 0.725892578 0 0
-0.901096 0.247794 0.021005 -0.669690644 0.733189757 -0.11809835 0 0
-0.903446 0.247794 0.048068 -0.679695127 0.733494741 0 0 0
-0.858272 0.235156 0.140922 0.76422762 -0.069202501 -0.641223174 0 0
-0.840478 0.246234 0.158741 0.473610531 0.676115034 -0.56441255 0 0
-0.840478 0.235156 0.158741 0.641223174 -0.069202501 -0.76422762 0 0
-0.858272 0.246234 0.140922 0.564609813 0.675811746 -0.473808235 0 0
-0.825529 0.236716 -0.086887 -0.497103564 0.107500771 -0.861006173 0 0
-0.605335 0.235156 0.073155 -0.982450774 -0.0692035765 -0.173208952 0 0
-0.605335 0.246234 0.073155 -0.725612706 0.676111839 -0.12790224 0 0
-0.825529 0.247794 -0.086887 -0.339810832 0.733523381 -0.588618763 0 0
-0.847792 0.247794 -0.071321 -0.437105363 0.733208997 -0.520906392 0 0
-0.847792 0.247794 0.167457 -0.437105363 0.733208997 0.520906392 0 0
-0.840478 0.235156 -0.062604 0.641223174 -0.069202501 0.76422762 0 0
-0.840478 0.246234 -0.062604 0.473610531 0.676115034 0.56441255 0 0
-0.675385 0.235156 0.17317 -0.498821627 -0.0692030004 -0.863937457 0 0
-0.654748 0.246234 0.158741 -0.473610531 0.676115034 -0.56441255 0 0
-0.654748 0.235156 0.158741 -0.641223174 -0.069202501 -0.76422762 0 0
-0.675385 0.246234 0.17317 -0.36851386 0.675825418 -0.638324008 0 0
-0.894048 0.236716 -0.00523 -0.934253305 0.107506134 -0.3400194 0 0
-0.6982 0.235156 -0.087692 -0.341212823 -0.0692026007 0.937435229 0 0
-0.6982 0.246234 -0.087692 -0.252013294 0.676135667 0.692336522 0 0
-0.774673 0.247794 0.201533 -0.117997486 0.733484373 0.669385739 0 0
-0.747613 0.247794 0.203919 0 0.733206511 0.680006038 0 0
-0.647434 0.247794 -0.071321 0.437105363 0.733208997 -0.520906392 0 0
-0.894048 0.236716 0.101366 -0.934253305 0.107506134 0.3400194 0 0
-0.611869 0.235156 -0.001339 -0.937435229 -0.0692026007 0.341212823 0 0
-0.622496 0.246234 -0.024168 -0.63809956 0.676099533 0.368399746 0 0
-0.622496 0.235156 -0.024168 -0.863937457 -0.0692030004 0.498821627 0 0
-0.611869 0.246234 -0.001339 -0.69261565 0.67581527 0.252105696 0 0
-0.647434 0.247794 0.167457 0.437105363 0.733208997 0.520906392 0 0
-0.720553 0.247794 -0.105397 0.118005385 0.733533472 -0.669330542 0 0
-0.747613 0.247794 -0.107783 0 0.733206511 -0.680006038 0 0
-0.883357 0.235156 -0.001339 0.937435229 -0.0692026007 0.341212823 0 0
-0.889891 0.246234 0.022981 0.725612706 0.676111839 0.12790224 0 0
-0.889891 0.235156 0.022981 0.982450774 -0.0692035765 0.173208952 0 0
-0.883357 0.246234 -0.001339 0.69261565 0.67581527 0.252105696 0 0
-0.720553 0.236716 0.201533 0.172601396 0.10750087 0.979107921 0 0
-0.59413 0.247794 0.021005 0.669690644 0.733189757 -0.11809835 0 0
-0.611258 0.230477 -0.001561 -0.776408851 0.571806519 0.265003021 0 0
-0.621933 0.230477 -0.024493 -0.729799212 0.543599413 0.414599552 0 0
-0.604695 0.230477 0.022868 -0.801907518 0.581005447 0.139201305 0 0
-0.883968 0.230477 -0.001561 0.776408851 0.571806519 0.265003021 0 0
-0.890531 0.230477 0.022868 0.801907518 0.581005447 0.139201305 0 0
-0.873293 0.230477 -0.024493 0.729799212 0.543599413 0.414599552 0 0
-0.67506 0.230477 -0.077597 -0.422303064 0.531603857 0.734205327 0 0
-0.697978 0.230477 -0.088303 -0.282796985 0.540794235 0.792191555 0 0
-0.65433 0.230477 -0.063102 -0.545042283 0.530841182 0.648950344 0 0
-0.883968 0.230477 0.097697 0.787988318 0.545391915 -0.285695765 0 0
-0.873293 0.230477 0.120629 0.728792158 0.542194166 -0.4181955 0 0
-0.890531 0.230477 0.073268 0.819563982 0.556143417 -0.137910766 0 0
-0.820166 0.230477 0.173733 0.417504689 0.547506149 -0.725208144 0 0
-0.797026 0.235156 0.183828 0.341212823 -0.0692026007 -0.937435229 0 0
-0.797248 0.230477 0.184439 0.277006614 0.559013347 -0.781518659 0 0
-0.819841 0.235156 0.17317 0.498821627 -0.0692030004 -0.863937457 0 0
-0.840896 0.230477 0.159239 0.537205155 0.543605216 -0.644906188 0 0
-0.722416 0.230477 0.190969 -0.125697663 0.58148919 -0.803785058 0 0
-0.697978 0.230477 0.184439 -0.277006614 0.559013347 -0.781518659 0 0
-0.747613 0.230477 0.193191 0 0.587285421 -0.809379907 0 0
-0.77281 0.230477 -0.094833 0.128501219 0.566605377 0.813907724 0 0
-0.797248 0.230477 -0.088303 0.282796985 0.540794235 0.792191555 0 0
-0.772698 0.235156 -0.094193 0.173208952 -0.0692035765 0.982450774 0 0
-0.747613 0.230477 -0.097055 0 0.573911932 0.818917025 0 0
-0.636456 0.230477 0.14134 -0.645098365 0.539098633 -0.541498627 0 0
-0.621933 0.230477 0.120629 -0.728792158 0.542194166 -0.4181955 0 0
-0.636953 0.235156 0.140922 -0.76422762 -0.069202501 -0.641223174 0 0
-0.65433 0.230477 0.159239 -0.537205155 0.543605216 -0.644906188 0 0
-0.602507 0.230477 0.048068 -0.816745915 0.576832428 0.0138007758 0 0
-0.604695 0.230477 0.073268 -0.819563982 0.556143417 -0.137910766 0 0
-0.85877 0.230477 -0.045204 0.649119091 0.533115679 0.542615959 0 0
-0.840896 0.230477 -0.063102 0.545042283 0.530841182 0.648950344 0 0
-0.636456 0.230477 -0.045204 -0.649119091 0.533115679 0.542615959 0 0
-0.636953 0.235156 -0.044786 -0.76422762 -0.069202501 0.641223174 0 0
-0.892719 0.230477 0.048068 0.816745915 0.576832428 0.0138007758 0 0
-0.892069 0.235156 0.048068 0.997602793 -0.0692001938 0 0 0
-0.722416 0.230477 -0.094833 -0.128501219 0.566605377 0.813907724 0 0
-0.85877 0.230477 0.14134 0.645098365 0.539098633 -0.541498627 0 0
-0.77281 0.230477 0.190969 0.125697663 0.58148919 -0.803785058 0 0
-0.772697 0.235156 0.190329 0.173208952 -0.0692035765 -0.982450774 0 0
-0.67506 0.230477 0.173733 -0.417504689 0.547506149 -0.725208144 0 0
-0.820166 0.230477 -0.077597 0.422303064 0.531603857 0.734205327 0 0
-0.611258 0.230477 0.097697 -0.787988318 0.545391915 -0.285695765 0 0
-0.645738 0 -0.037415 0.512397097 -0.743395789 -0.429897565 0 0
-0.632428 0 -0.018434 0.579507238 -0.743109281 -0.334604179 0 0
-0.66212 0 -0.053819 0.430112392 -0.74312141 -0.512614769 0 0
-0.672201 0 -0.041805 0 -1 0 0 0
-0.671207 0 -0.016044 0 -1 0 0 0
-0.64601 0 -0.010592 0 -1 0 0 0
-0.880601 0 0.048068 -0.668876332 -0.743373696 0 0 0
-0.878596 0 0.024972 -0.659006244 -0.743107041 -0.116201101 0 0
-0.878596 0 0.071164 -0.659006244 -0.743107041 0.116201101 0 0
-0.863151 0 0.068441 0 -1 0 0 0
-0.847354 0 0.048068 0 -1 0 0 0
-0.863151 0 0.027696 0 -1 0 0 0
-0.72452 0 -0.0829 0.116099509 -0.743396855 -0.658697214 0 0
-0.702123 0 -0.076915 0.22890203 -0.743106591 -0.628805578 0 0
-0.747613 0 -0.084936 0 -0.743139975 -0.669135994 0 0
-0.747613 0 -0.069253 0 -1 0 0 0
-0.730293 0 -0.050158 0 -1 0 0 0
-0.707487 0 -0.062177 0 -1 0 0 0
-0.849488 0 0.133551 -0.512397097 -0.743395789 0.429897565 0 0
-0.862798 0 0.11457 -0.579507238 -0.743109281 0.334604179 0 0
-0.833106 0 0.149955 -0.430112392 -0.74312141 0.512614769 0 0
-0.823025 0 0.137941 0 -1 0 0 0
-0.824019 0 0.11218 0 -1 0 0 0
-0.849216 0 0.106728 0 -1 0 0 0
-0.770706 0 0.179036 -0.116099509 -0.743396855 0.658697214 0 0
-0.793103 0 0.173051 -0.22890203 -0.743106591 0.628805578 0 0
-0.747613 0 0.181072 0 -0.743139975 0.669135994 0 0
-0.747613 0 0.165389 0 -1 0 0 0
-0.764933 0 0.146294 0 -1 0 0 0
-0.787739 0 0.158314 0 -1 0 0 0
-0.681119 0 0.163239 0.334410106 -0.743422467 0.579217504 0 0
-0.702123 0 0.173051 0.22890203 -0.743106591 0.628805578 0 0
-0.66212 0 0.149955 0.430112392 -0.74312141 0.512614769 0 0
-0.672201 0 0.137941 0 -1 0 0 0
-0.697742 0 0.134446 0 -1 0 0 0
-0.707487 0 0.158314 0 -1 0 0 0
-0.814107 0 -0.067103 -0.334410106 -0.743422467 -0.579217504 0 0
-0.793103 0 -0.076915 -0.22890203 -0.743106591 -0.628805578 0 0
-0.833106 0 -0.053819 -0.430112392 -0.74312141 -0.512614769 0 0
-0.823025 0 -0.041805 0 -1 0 0 0
-0.797484 0 -0.03831 0 -1 0 0 0
-0.787739 0 -0.062177 0 -1 0 0 0
-0.622645 0 0.093553 0.62849835 -0.743398049 0.228799399 0 0
-0.632428 0 0.11457 0.579507238 -0.743109281 0.334604179 0 0
-0.61663 0 0.071164 0.659006244 -0.743107041 0.116201101 0 0
-0.632075 0 0.068441 0 -1 0 0 0
-0.653887 0 0.082182 0 -1 0 0 0
-0.64601 0 0.106728 0 -1 0 0 0
-0.622645 0 0.002583 0.62849835 -0.743398049 -0.228799399 0 0
-0.61663 0 0.024972 0.659006244 -0.743107041 -0.116201101 0 0
-0.653887 0 0.013955 0 -1 0 0 0
-0.632075 0 0.027696 0 -1 0 0 0
-0.872581 0 0.002583 -0.62849835 -0.743398049 -0.228799399 0 0
-0.862798 0 -0.018434 -0.579507238 -0.743109281 -0.334604179 0 0
-0.841339 0 0.013955 0 -1 0 0 0
-0.849216 0 -0.010592 0 -1 0 0 0
-0.681119 0 -0.067103 0.334410106 -0.743422467 -0.579217504 0 0
-0.697742 0 -0.03831 0 -1 0 0 0
-0.872581 0 0.093553 -0.62849835 -0.743398049 0.228799399 0 0
-0.841339 0 0.082182 0 -1 0 0 0
-0.814107 0 0.163239 -0.334410106 -0.743422467 0.579217504 0 0
-0.797484 0 0.134447 0 -1 0 0 0
-0.72452 0 0.179036 0.116099509 -0.743396855 0.658697214 0 0
-0.730293 0 0.146294 0 -1 0 0 0
-0.770706 0 -0.0829 -0.116099509 -0.743396855 -0.658697214 0 0
-0.764933 0 -0.050158 0 -1 0 0 0
-0.645738 0 0.133551 0.512397097 -0.743395789 0.429897565 0 0
-0.671207 0 0.11218 0 -1 0 0 0
-0.614625 0 0.048068 0.668876332 -0.743373696 0 0 0
-0.647872 0 0.048068 0 -1 0 0 0
-0.849488 0 -0.037415 -0.512397097 -0.743395789 -0.429897565 0 0
-0.824019 0 -0.016044 0 -1 0 0 0
-0.747613 0 0.048068 0 -1 0 0 0
-0.774673 0.247794 -0.105397 -0.117997486 0.733484373 -0.669385739 0 0
-0.772698 0.246234 -0.094193 0.127998691 0.67579309 0.725892578 0 0
-0.800917 0.247794 -0.098384 -0.232599302 0.7331978 -0.638998083 0 0
-0.636953 0.246234 0.140922 -0.564609813 0.675811746 -0.473808235 0 0
-0.59178 0.247794 0.048068 0.679695127 0.733494741 0 0 0
-0.59413 0.247794 0.075131 0.669690644 0.733189757 0.11809835 0 0
-0.628238 0.247794 -0.052099 0.520618685 0.733526327 -0.436915681 0 0
-0.636953 0.246234 -0.044786 -0.564609813 0.675811746 0.473808235 0 0
-0.892069 0.246234 0.048068 0.737091874 0.675792549 0 0 0
-0.901096 0.247794 0.075131 -0.669690644 0.733189757 0.11809835 0 0
-0.797026 0.246234 0.183828 0.252013294 0.676135667 -0.692336522 0 0
-0.772697 0.246234 0.190329 0.127998691 0.67579309 -0.725892578 0 0
-0.894048 0.247794 -0.00523 -0.63869483 0.733494062 -0.232498118 0 0
-0.894048 0.247794 0.101366 -0.63869483 0.733494062 0.232498118 0 0
-0.819841 0.246234 0.17317 0.36851386 0.675825418 -0.638324008 0 0
-0.720553 0.247794 0.201533 0.117997486 0.733484373 0.669385739 0 0
3 0 1 2
3 0 3 1
3 0 4 3
3 0 5 4
3 0 6 5
3 0 7 6
3 0 8 7
3 0 2 8
3 9 10 11
3 9 12 10
3 9 13 12
3 9 14 13
3 9 15 14
3 9 16 15
3 9 17 16
3 9 11 17
3 18 19 20
3 18 21 19
3 18 22 21
3 18 23 22
3 18 24 23
3 18 25 24
3 18 26 25
3 18 20 26
3 27 28 29
3 27 30 28
3 27 31 30
3 27 32 31
3 27 33 32
3 27 34 33
3 27 35 34
3 27 29 35
3 36 37 38
3 36 39 37
3 36 40 39
3 36 41 40
3 36 42 41
3 36 43 42
3 36 44 43
3 36 38 44
3 45 46 47
3 45 48 46
3 45 49 48
3 45 50 49
3 45 51 50
3 45 52 51
3 45 53 52
3 45 47 53
3 54 55 56
3 54 57 55
3 54 58 57
3 54 59 58
3 54 60 59
3 54 61 60
3 54 62 61
3 54 56 62
3 63 64 65
3 63 66 64
3 63 67 66
3 63 68 67
3 63 69 68
3 63 70 69
3 63 71 70
3 63 65 71
3 72 4 5
3 72 73 4
3 72 74 73
3 72 75 74
3 72 76 75
3 72 77 76
3 72 6 77
3 72 5 6
3 78 13 14
3 78 79 13
3 78 80 79
3 78 81 80
3 78 82 81
3 78 83 82
3 78 15 83
3 78 14 15
3 84 22 23
3 84 85 22
3 84 1 85
3 84 2 1
3 84 8 2
3 84 86 8
3 84 24 86
3 84 23 24
3 87 31 32
3 87 88 31
3 87 10 88
3 87 11 10
3 87 17 11
3 87 89 17
3 87 33 89
3 87 32 33
3 90 40 41
3 90 91 40
3 90 28 91
3 90 29 28
3 90 35 29
3 90 92 35
3 90 42 92
3 90 41 42
3 93 49 50
3 93 94 49
3 93 37 94
3 93 38 37
3 93 44 38
3 93 95 44
3 93 51 95
3 93 50 51
3 96 58 59
3 96 97 58
3 96 19 97
3 96 20 19
3 96 26 20
3 96 98 26
3 96 60 98
3 96 59 60
3 99 67 68
3 99 100 67
3 99 46 100
3 99 47 46
3 99 53 47
3 99 101 53
3 99 69 101
3 99 68 69
3 102 74 75
3 102 103 74
3 102 64 103
3 102 65 64
3 102 71 65
3 102 104 71
3 102 76 104
3 102 75 76
3 105 80 81
3 105 106 80
3 105 55 106
3 105 56 55
3 105 62 56
3 105 107 62
3 105 82 107
3 105 81 82
3 108 60 109
3 108 98 60
3 108 26 98
3 108 110 26
3 111 112 113
3 111 114 112
3 115 116 117
3 115 118 116
3 119 69 120
3 119 101 69
3 119 53 101
3 119 121 53
3 122 123 120
3 122 124 123
3 125 126 127
3 125 128 126
3 129 76 130
3 129 104 76
3 129 71 104
3 129 131 71
3 132 133 134
3 132 135 133
3 136 137 138
3 136 139 137
3 138 82 136
3 138 107 82
3 138 62 107
3 138 140 62
3 141 142 143
3 141 144 142
3 145 146 147
3 145 148 146
3 149 8 150
3 149 7 8
3 149 6 7
3 149 151 6
3 152 153 154
3 152 155 153
3 156 157 158
3 156 159 157
3 160 17 161
3 160 16 17
3 160 15 16
3 160 162 15
3 163 114 111
3 163 164 114
3 120 165 119
3 120 123 165
3 166 26 110
3 166 25 26
3 166 24 25
3 166 156 24
3 167 168 169
3 167 170 168
3 171 172 173
3 171 174 172
3 171 35 175
3 171 34 35
3 171 33 34
3 171 173 33
3 176 177 178
3 176 179 177
3 151 180 181
3 151 182 180
3 183 44 184
3 183 43 44
3 183 42 43
3 183 125 42
3 185 144 141
3 185 186 144
3 187 188 189
3 187 190 188
3 152 53 121
3 152 52 53
3 152 51 52
3 152 154 51
3 160 191 162
3 160 192 191
3 193 194 195
3 193 196 194
3 197 62 140
3 197 61 62
3 197 60 61
3 197 109 60
3 198 170 167
3 198 199 170
3 140 200 197
3 140 201 200
3 122 71 131
3 122 70 71
3 122 69 70
3 122 120 69
3 127 202 175
3 127 126 202
3 203 179 176
3 203 204 179
3 181 6 151
3 181 77 6
3 181 76 77
3 181 130 76
3 205 206 207
3 205 208 206
3 138 201 140
3 138 137 201
3 209 15 162
3 209 83 15
3 209 82 83
3 209 136 82
3 210 190 187
3 210 211 190
3 184 212 183
3 184 213 212
3 158 24 156
3 158 86 24
3 158 8 86
3 158 150 8
3 158 214 150
3 158 157 214
3 113 196 193
3 113 112 196
3 215 33 173
3 215 89 33
3 215 17 89
3 215 161 17
3 216 217 218
3 216 219 217
3 119 220 121
3 119 165 220
3 127 42 125
3 127 92 42
3 127 35 92
3 127 175 35
3 110 221 166
3 110 222 221
3 223 224 225
3 223 226 224
3 227 51 154
3 227 95 51
3 227 44 95
3 227 184 44
3 143 208 205
3 143 142 208
3 181 228 130
3 181 180 228
3 229 218 230
3 229 216 218
3 229 169 216
3 229 231 169
3 232 225 233
3 232 223 225
3 232 178 223
3 232 234 178
3 235 210 236
3 235 147 210
3 235 145 147
3 235 237 145
3 238 113 239
3 238 111 113
3 238 163 111
3 238 240 163
3 241 242 243
3 241 244 242
3 241 195 244
3 241 245 195
3 246 143 247
3 246 141 143
3 246 185 141
3 246 248 185
3 249 132 250
3 249 251 132
3 249 189 251
3 249 252 189
3 253 115 254
3 253 255 115
3 253 207 255
3 253 256 207
3 257 169 231
3 257 167 169
3 257 198 167
3 257 258 198
3 259 178 234
3 259 176 178
3 259 203 176
3 259 260 203
3 261 145 237
3 261 262 145
3 261 218 262
3 261 230 218
3 263 163 240
3 263 264 163
3 263 225 264
3 263 233 225
3 265 189 252
3 265 187 189
3 265 210 187
3 265 236 210
3 266 195 245
3 266 193 195
3 266 113 193
3 266 239 113
3 267 185 248
3 267 268 185
3 267 242 268
3 267 243 242
3 269 207 256
3 269 205 207
3 269 143 205
3 269 247 143
3 270 203 260
3 270 134 203
3 270 132 134
3 270 250 132
3 271 198 258
3 271 117 198
3 271 115 117
3 271 254 115
3 272 4 273
3 272 3 4
3 272 1 3
3 272 274 1
3 272 275 274
3 272 276 275
3 272 277 276
3 272 273 277
3 278 13 279
3 278 12 13
3 278 10 12
3 278 280 10
3 278 281 280
3 278 282 281
3 278 283 282
3 278 279 283
3 284 22 285
3 284 21 22
3 284 19 21
3 284 286 19
3 284 287 286
3 284 288 287
3 284 289 288
3 284 285 289
3 290 31 291
3 290 30 31
3 290 28 30
3 290 292 28
3 290 293 292
3 290 294 293
3 290 295 294
3 290 291 295
3 296 40 297
3 296 39 40
3 296 37 39
3 296 298 37
3 296 299 298
3 296 300 299
3 296 301 300
3 296 297 301
3 302 49 303
3 302 48 49
3 302 46 48
3 302 304 46
3 302 305 304
3 302 306 305
3 302 307 306
3 302 303 307
3 308 58 309
3 308 57 58
3 308 55 57
3 308 310 55
3 308 311 310
3 308 312 311
3 308 313 312
3 308 309 313
3 314 67 315
3 314 66 67
3 314 64 66
3 314 316 64
3 314 317 316
3 314 318 317
3 314 319 318
3 314 315 319
3 320 74 321
3 320 73 74
3 320 4 73
3 320 273 4
3 320 277 273
3 320 322 277
3 320 323 322
3 320 321 323
3 324 80 325
3 324 79 80
3 324 13 79
3 324 279 13
3 324 283 279
3 324 326 283
3 324 327 326
3 324 325 327
3 328 1 274
3 328 85 1
3 328 22 85
3 328 285 22
3 328 289 285
3 328 329 289
3 328 275 329
3 328 274 275
3 330 10 280
3 330 88 10
3 330 31 88
3 330 291 31
3 330 295 291
3 330 331 295
3 330 281 331
3 330 280 281
3 332 28 292
3 332 91 28
3 332 40 91
3 332 297 40
3 332 301 297
3 332 333 301
3 332 293 333
3 332 292 293
3 334 37 298
3 334 94 37
3 334 49 94
3 334 303 49
3 334 307 303
3 334 335 307
3 334 299 335
3 334 298 299
3 336 19 286
3 336 97 19
3 336 58 97
3 336 309 58
3 336 313 309
3 336 337 313
3 336 287 337
3 336 286 287
3 338 46 304
3 338 100 46
3 338 67 100
3 338 315 67
3 338 319 315
3 338 339 319
3 338 305 339
3 338 304 305
3 340 64 316
3 340 103 64
3 340 74 103
3 340 321 74
3 340 323 321
3 340 341 323
3 340 317 341
3 340 316 317
3 342 55 310
3 342 106 55
3 342 80 106
3 342 325 80
3 342 327 325
3 342 343 327
3 342 311 343
3 342 310 311
3 344 289 329
3 344 288 289
3 344 287 288
3 344 337 287
3 344 313 337
3 344 312 313
3 344 311 312
3 344 343 311
3 344 327 343
3 344 326 327
3 344 283 326
3 344 282 283
3 344 281 282
3 344 331 281
3 344 295 331
3 344 294 295
3 344 293 294
3 344 333 293
3 344 301 333
3 344 300 301
3 344 299 300
3 344 335 299
3 344 307 335
3 344 306 307
3 344 305 306
3 344 339 305
3 344 319 339
3 344 318 319
3 344 317 318
3 344 341 317
3 344 323 341
3 344 322 323
3 344 277 322
3 344 276 277
3 344 275 276
3 344 329 275
3 345 188 222
3 345 346 188
3 345 135 346
3 345 347 135
3 165 206 220
3 165 348 206
3 165 118 348
3 165 123 118
3 349 199 350
3 349 170 199
3 349 168 170
3 349 228 168
3 137 204 201
3 137 179 204
3 137 177 179
3 137 139 177
3 351 217 182
3 351 352 217
3 351 148 352
3 351 214 148
3 192 224 191
3 192 353 224
3 192 164 353
3 192 354 164
3 221 211 159
3 221 190 211
3 221 188 190
3 221 222 188
3 174 112 172
3 174 196 112
3 174 194 196
3 174 202 194
3 212 355 128
3 212 356 355
3 212 186 356
3 212 213 186
3 155 142 153
3 155 208 142
3 155 206 208
3 155 220 206
3 200 135 347
3 200 133 135
3 200 204 133
3 200 201 204
3 124 118 123
3 124 116 118
3 124 199 116
3 124 350 199
3 180 168 228
3 180 219 168
3 180 217 219
3 180 182 217
3 357 177 139
3 357 226 177
3 357 224 226
3 357 191 224
3 157 148 214
3 157 146 148
3 157 211 146
3 157 159 211
3 358 164 354
3 358 114 164
3 358 112 114
3 358 172 112
3 126 194 202
3 126 359 194
3 126 355 359
3 126 128 355
3 360 186 213
3 360 144 186
3 360 142 144
3 360 153 142
3 161 192 160
3 161 354 192
3 108 222 110
3 108 345 222
3 147 211 210
3 147 146 211
3 242 356 268
3 242 355 356
3 209 139 136
3 209 357 139
3 134 204 203
3 134 133 204
3 175 174 171
3 175 202 174
3 129 350 131
3 129 349 350
3 117 199 198
3 117 116 199
3 225 353 264
3 225 224 353
3 215 354 161
3 215 358 354
3 121 155 152
3 121 220 155
3 218 352 262
3 218 217 352
3 268 186 185
3 268 356 186
3 149 182 151
3 149 351 182
3 189 346 251
3 189 188 346
3 227 213 184
3 227 360 213
3 131 124 122
3 131 350 124
3 207 348 255
3 207 206 348
3 264 164 163
3 264 353 164
3 166 159 156
3 166 221 159
3 109 345 108
3 109 347 345
3 262 148 145
3 262 352 148
3 195 359 244
3 195 194 359
3 162 357 209
3 162 191 357
3 251 135 132
3 251 346 135
3 183 128 125
3 183 212 128
3 130 349 129
3 130 228 349
3 255 118 115
3 255 348 118
3 178 226 223
3 178 177 226
3 173 358 215
3 173 172 358
3 197 347 109
3 197 200 347
3 169 219 216
3 169 168 219
3 244 355 242
3 244 359 355
3 150 351 149
3 150 214 351
3 154 360 227
3 154 153 360
