ply
format ascii 1.0
element vertex 81
property float x
property float y
property float z
property float nx
property float ny
property float nz
property float u
property float v
element face 124
property list uchar int vertex_indices
end_header
-0.611258 0.230477 -0.001561 -0.776408851 0.571806519 0.265003021 0.078951 0.652909
-0.6269 0.227652 0.025431 -0.0419991495 0.999079769 0.00869982383 0.129356 0.565928
-0.604695 0.230477 0.022868 -0.801907518 0.581005447 0.139201305 0.057801 0.574187
-0.632627 0.226741 -0.008627 -0.0671998061 0.997697122 0.00919997346 0.147811 0.675679
-0.633525 0.22743 -0.022814 -0.125908192 0.989164362 0.0755049129 0.150705 0.721398
-0.621933 0.230477 -0.024493 -0.729799212 0.543599413 0.414599552 0.113351 0.726808
-0.883968 0.230477 -0.001561 0.776408851 0.571806519 0.265003021 0.957758 0.652909
-0.861701 0.22743 -0.022814 0.125908192 0.989164362 0.0755049129 0.886004 0.721398
-0.873293 0.230477 -0.024493 0.729799212 0.543599413 0.414599552 0.923358 0.726808
-0.862599 0.226741 -0.008627 0.0671998061 0.997697122 0.00919997346 0.888898 0.675678
-0.868326 0.227652 0.025431 0.0419991495 0.999079769 0.00869982383 0.907353 0.565927
-0.890531 0.230477 0.022868 0.801907518 0.581005447 0.139201305 0.978908 0.574187
-0.67506 0.230477 -0.077597 -0.422303064 0.531603857 0.734205327 0.284553 0.897936
-0.661021 0.22743 -0.055583 -0.0985050658 0.988150817 0.117706053 0.239311 0.826994
-0.65433 0.230477 -0.063102 -0.545042283 0.530841182 0.648950344 0.21775 0.851226
-0.678618 0.226741 -0.063437 -0.0611010011 0.992916269 0.10190167 0.296017 0.852304
-0.698066 0.22743 -0.076971 -0.0528013533 0.988925346 0.138703555 0.35869 0.895918
-0.697978 0.230477 -0.088303 -0.282796985 0.540794235 0.792191555 0.358406 0.932434
-0.883968 0.230477 0.097697 0.787988318 0.545391915 -0.285695765 0.957757 0.33305
-0.87748 0.22737 0.076257 0.137800751 0.990105396 -0.0265001444 0.936852 0.40214
-0.890531 0.230477 0.073268 0.819563982 0.556143417 -0.137910766 0.978907 0.411771
-0.865184 0.226607 0.099145 0.0982073162 0.994474086 -0.0371027641 0.897228 0.328383
-0.86285 0.22737 0.116454 0.129607328 0.988655895 -0.0759042914 0.889706 0.272606
-0.873293 0.230477 0.120629 0.728792158 0.542194166 -0.4181955 0.923358 0.25915
-0.820166 0.230477 0.173733 0.417504689 0.547506149 -0.725208144 0.752156 0.088023
-0.835354 0.22737 0.149222 0.0968990305 0.988790107 -0.113598863 0.8011 0.16701
-0.840896 0.230477 0.159239 0.537205155 0.543605216 -0.644906188 0.818959 0.134733
-0.819193 0.226607 0.153955 0.0519010533 0.99482019 -0.0874017738 0.749022 0.151758
-0.798309 0.22737 0.17061 0.0493008961 0.990418001 -0.129002345 0.681721 0.098087
-0.797248 0.230477 0.184439 0.277006614 0.559013347 -0.781518659 0.678303 0.053525
-0.722416 0.230477 0.190969 -0.125697663 0.58148919 -0.803785058 0.437156 0.03248
-0.747613 0.227618 0.167628 0 0.999207654 -0.0398003049 0.518354 0.107697
-0.747613 0.230477 0.193191 0 0.587285421 -0.809379907 0.518354 0.025321
-0.710168 0.226607 0.16638 0.00859984705 0.998482242 -0.0543990325 0.39769 0.11172
-0.696917 0.22737 0.17061 -0.0493008961 0.990418001 -0.129002345 0.354987 0.098087
-0.697978 0.230477 0.184439 -0.277006614 0.559013347 -0.781518659 0.358406 0.053525
-0.77281 0.230477 -0.094833 0.128501219 0.566605377 0.813907724 0.599553 0.953479
-0.747613 0.227686 -0.077368 0 0.998995984 0.0447998199 0.518354 0.897198
-0.747613 0.230477 -0.097055 0 0.573911932 0.818917025 0.518354 0.960637
-0.782472 0.226741 -0.075861 -0.0036998701 0.997664973 0.0681976056 0.630689 0.892342
-0.79716 0.22743 -0.076971 0.0528013533 0.988925346 0.138703555 0.678019 0.895917
-0.797248 0.230477 -0.088303 0.282796985 0.540794235 0.792191555 0.678303 0.932434
-0.636456 0.230477 0.14134 -0.645098365 0.539098633 -0.541498627 0.16015 0.19241
-0.659872 0.22737 0.149222 -0.0968990305 0.988790107 -0.113598863 0.235609 0.16701
-0.65433 0.230477 0.159239 -0.537205155 0.543605216 -0.644906188 0.21775 0.134733
-0.648205 0.226607 0.130605 -0.087506211 0.993470514 -0.0732051959 0.198012 0.227004
-0.632376 0.22737 0.116454 -0.129607328 0.988655895 -0.0759042914 0.147003 0.272606
-0.621933 0.230477 0.120629 -0.728792158 0.542194166 -0.4181955 0.113351 0.25915
-0.602507 0.230477 0.048068 -0.816745915 0.576832428 0.0138007758 0.050751 0.492979
-0.617746 0.22737 0.076257 -0.137800751 0.990105396 -0.0265001444 0.099857 0.40214
-0.604695 0.230477 0.073268 -0.819563982 0.556143417 -0.137910766 0.057801 0.411771
-0.623734 0.226607 0.063371 -0.0532999824 0.998399671 0.0188999938 0.119153 0.443667
-0.85877 0.230477 -0.045204 0.649119091 0.533115679 0.542615959 0.876559 0.793549
-0.834205 0.22743 -0.055583 0.0985050658 0.988150817 0.117706053 0.797398 0.826994
-0.840896 0.230477 -0.063102 0.545042283 0.530841182 0.648950344 0.818959 0.851226
-0.844436 0.226741 -0.040087 0.0882012675 0.993114271 0.077101108 0.830367 0.777058
-0.636456 0.230477 -0.045204 -0.649119091 0.533115679 0.542615959 0.16015 0.793549
-0.65079 0.226741 -0.040087 -0.0882012675 0.993114271 0.077101108 0.206342 0.777058
-0.892719 0.230477 0.048068 0.816745915 0.576832428 0.0138007758 0.985957 0.492979
-0.871492 0.226607 0.063371 0.0532999824 0.998399671 0.0188999938 0.917556 0.443667
-0.722416 0.230477 -0.094833 -0.128501219 0.566605377 0.813907724 0.437156 0.953479
-0.712753 0.226741 -0.075861 0.0036998701 0.997664973 0.0681976056 0.40602 0.892342
-0.85877 0.230477 0.14134 0.645098365 0.539098633 -0.541498627 0.876559 0.19241
-0.847021 0.226607 0.130605 0.087506211 0.993470514 -0.0732051959 0.838697 0.227004
-0.77281 0.230477 0.190969 0.125697663 0.58148919 -0.803785058 0.599553 0.03248
-0.785057 0.226607 0.16638 -0.00859984705 0.998482242 -0.0543990325 0.639019 0.11172
-0.67506 0.230477 0.173733 -0.417504689 0.547506149 -0.725208144 0.284553 0.088023
-0.676033 0.226607 0.153955 -0.0519010533 0.99482019 -0.0874017738 0.287687 0.151758
-0.820166 0.230477 -0.077597 0.422303064 0.531603857 0.734205327 0.752156 0.897935
-0.816608 0.226741 -0.063437 0.0611010011 0.992916269 0.10190167 0.740692 0.852304
-0.611258 0.230477 0.097697 -0.787988318 0.545391915 -0.285695765 0.078951 0.33305
-0.630042 0.226607 0.099145 -0.0982073162 0.994474086 -0.0371027641 0.139481 0.328383
-0.814398 0.228014 -0.035613 -0.0384007486 0.998319462 -0.0434008461 0.733568 0.76264
-0.747613 0.231791 -0.035235 0 0.997243142 -0.0742032101 0.518354 0.761423
-0.747613 0.236444 0.029923 0 0.999987995 -0.00489994118 0.518354 0.551453
-0.818381 0.231656 0.030181 -0.0642018856 0.99792931 -0.00390011455 0.746406 0.55062
-0.680828 0.228014 -0.035613 0.0384007486 0.998319462 -0.0434008461 0.303141 0.76264
-0.676844 0.231656 0.030181 0.0642018856 0.99792931 -0.00390011455 0.290303 0.55062
-0.824738 0.227474 0.109278 -0.0314006341 0.999120177 0.0278005614 0.766889 0.295731
-0.747613 0.231521 0.107866 0 0.998452959 0.0556029493 0.518354 0.30028
-0.670488 0.227474 0.109278 0.0314006341 0.999120177 0.0278005614 0.26982 0.295731
3 0 1 2
3 0 3 1
3 0 4 3
3 0 5 4
3 6 7 8
3 6 9 7
3 6 10 9
3 6 11 10
3 12 13 14
3 12 15 13
3 12 16 15
3 12 17 16
3 18 19 20
3 18 21 19
3 18 22 21
3 18 23 22
3 24 25 26
3 24 27 25
3 24 28 27
3 24 29 28
3 30 31 32
3 30 33 31
3 30 34 33
3 30 35 34
3 36 37 38
3 36 39 37
3 36 40 39
3 36 41 40
3 42 43 44
3 42 45 43
3 42 46 45
3 42 47 46
3 48 49 50
3 48 51 49
3 48 1 51
3 48 2 1
3 52 53 54
3 52 55 53
3 52 7 55
3 52 8 7
3 56 4 5
3 56 57 4
3 56 13 57
3 56 14 13
3 58 10 11
3 58 59 10
3 58 19 59
3 58 20 19
3 60 16 17
3 60 61 16
3 60 37 61
3 60 38 37
3 62 22 23
3 62 63 22
3 62 25 63
3 62 26 25
3 64 28 29
3 64 65 28
3 64 31 65
3 64 32 31
3 66 34 35
3 66 67 34
3 66 43 67
3 66 44 43
3 68 40 41
3 68 69 40
3 68 53 69
3 68 54 53
3 70 46 47
3 70 71 46
3 70 49 71
3 70 50 49
3 72 37 39
3 72 73 37
3 72 74 73
3 72 75 74
3 72 10 75
3 72 9 10
3 72 7 9
3 72 55 7
3 72 53 55
3 72 69 53
3 72 40 69
3 72 39 40
3 76 16 61
3 76 15 16
3 76 13 15
3 76 57 13
3 76 4 57
3 76 3 4
3 76 1 3
3 76 77 1
3 76 74 77
3 76 73 74
3 76 37 73
3 76 61 37
3 78 74 75
3 78 79 74
3 78 31 79
3 78 65 31
3 78 28 65
3 78 27 28
3 78 25 27
3 78 63 25
3 78 22 63
3 78 21 22
3 78 19 21
3 78 59 19
3 78 10 59
3 78 75 10
3 80 74 79
3 80 77 74
3 80 1 77
3 80 51 1
3 80 49 51
3 80 71 49
3 80 46 71
3 80 45 46
3 80 43 45
3 80 67 43
3 80 34 67
3 80 33 34
3 80 31 33
3 80 79 31
