ply
format ascii 1.0
element vertex 244
property float x
property float y
property float z
property float nx
property float ny
property float nz
property float u
property float v
element face 456
property list uchar int vertex_indices
end_header
-0.801284 0.265472 0.083634 -0.857746487 0.306616618 -0.412622363 0 0
-0.807609 0.205753 0.067077 -0.870794962 -0.168699024 0.461797329 0 0
-0.80374 0.260094 0.09422 -0.871626106 -0.147304412 0.467514002 0 0
-0.804817 0.211869 0.055039 -0.857236618 0.285212183 -0.428718313 0 0
-0.794277 0.2156 0.046971 0.0149993763 0.485579808 -0.874063653 0 0
-0.792016 0.268754 0.076539 0.0019000131 0.49020338 -0.87160601 0 0
-0.787239 0.314041 0.102274 -0.0304013058 0.515522142 -0.85633678 0 0
-0.795329 0.311445 0.108821 -0.848920926 0.398209816 -0.347508566 0 0
-0.797333 0.30691 0.118362 -0.860285831 -0.0638989476 0.50579167 0 0
-0.792347 0.257816 0.097689 -0.0171000836 -0.442502164 0.896604384 0 0
-0.781573 0.204716 0.06695 0.859125796 -0.237507131 0.453313611 0 0
-0.780844 0.259183 0.094108 0.857398933 -0.263299672 0.442199449 0 0
-0.794654 0.203162 0.071022 -0.0129997776 -0.437992508 0.898884625 0 0
-0.787194 0.304712 0.121246 -0.0209007774 -0.46161717 0.886832986 0 0
-0.77707 0.305624 0.117806 0.844301676 -0.375500745 0.382300759 0 0
-0.782968 0.264743 0.083544 0.869051967 0.1990119 -0.452927084 0 0
-0.783988 0.211039 0.054937 0.872950659 0.216312553 -0.437225373 0 0
-0.779119 0.310417 0.108376 0.848433319 0.121704779 -0.515120229 0 0
-0.784528 0.342157 0.127191 -0.832390195 0.484194296 -0.269596824 0 0
-0.78585 0.338672 0.136504 -0.792299675 0.0402999835 0.60879975 0 0
-0.777431 0.343594 0.120343 -0.0490032106 0.474931116 -0.878657567 0 0
-0.762702 0.374666 0.133086 -0.0669988054 0.311494446 -0.947883099 0 0
-0.769046 0.37402 0.140025 -0.843897612 0.456598708 -0.281699203 0 0
-0.769917 0.371395 0.149098 -0.734134487 0.141806662 0.664031194 0 0
-0.776347 0.336093 0.138584 0.0199000811 -0.422801723 0.906003692 0 0
-0.767204 0.336015 0.134583 0.81415317 -0.473330912 0.336321964 0 0
-0.760985 0.368755 0.1507 0.0803054413 -0.28261915 0.955864767 0 0
-0.752626 0.368085 0.14643 0.838256165 -0.420877991 0.346681871 0 0
-0.769611 0.340031 0.125655 0.809039652 -0.0347017008 -0.586728756 0 0
-0.755213 0.371371 0.13789 0.777723713 -0.1443044 -0.611818655 0 0
-0.749045 0.423448 0.148601 -0.849731657 0.38061418 -0.364813591 0 0
-0.750155 0.421092 0.156601 -0.788045763 0.15050874 0.596934665 0 0
-0.743159 0.424508 0.142847 -0.0314010469 0.258008602 -0.965632195 0 0
-0.727279 0.481872 0.161153 0.0515026795 0.427922263 -0.902346946 0 0
-0.732553 0.480122 0.165213 -0.826441236 0.369718448 -0.424621187 0 0
-0.734007 0.477859 0.171616 -0.878831489 -0.0199007131 0.476717081 0 0
-0.742289 0.419491 0.158594 0.0663985094 -0.22849487 0.971278195 0 0
-0.734713 0.419563 0.155337 0.872523694 -0.3388092 0.352009559 0 0
-0.727604 0.477492 0.174086 0.0139002053 -0.413906113 0.910213444 0 0
-0.721093 0.478585 0.172245 0.885317804 -0.291205856 0.36250729 0 0
-0.736692 0.422224 0.14759 0.805884837 -0.0980981543 -0.583889014 0 0
-0.722222 0.480702 0.165716 0.865122987 0.116203088 -0.487912964 0 0
-0.727594 0.533725 0.202151 -0.816214872 0.398407259 -0.418407623 0 0
-0.728914 0.531792 0.206748 -0.891060425 -0.233315822 0.389326401 0 0
-0.723541 0.535512 0.199535 0.056899971 0.638999674 -0.767099609 0 0
-0.723801 0.579944 0.245371 0.0646020557 0.76962449 -0.635220213 0 0
-0.726793 0.577395 0.244954 -0.802412839 0.456807309 -0.384006144 0 0
-0.727345 0.577126 0.249697 -0.837668881 -0.354986812 0.41508458 0 0
-0.724279 0.531945 0.208998 -0.0116996536 -0.617381723 0.786576714 0 0
-0.719397 0.533287 0.208094 0.859924052 -0.311808721 0.404111303 0 0
-0.724784 0.57617 0.249578 -0.00120003415 -0.714220323 0.699919917 0 0
-0.721364 0.578463 0.250969 0.816902377 -0.446101298 0.365601064 0 0
-0.71998 0.534921 0.203228 0.870418549 0.317906775 -0.375908011 0 0
-0.721856 0.578505 0.246011 0.840988239 0.405594328 -0.358094992 0 0
-0.722773 0.604267 0.279163 -0.774246499 0.552033153 -0.309518589 0 0
-0.721766 0.608094 0.288166 -0.835613031 -0.13720214 0.531908295 0 0
-0.719912 0.609684 0.286041 0.104607131 0.926163139 -0.362324701 0 0
-0.719726 0.610434 0.290161 0.413117395 0.300312645 0.8597362 0 0
-0.721593 0.603488 0.282075 0.0129009272 -0.771955479 0.635545675 0 0
-0.718733 0.608905 0.288953 0.870014094 -0.315805116 0.378606133 0 0
-0.71974 0.605078 0.279951 0.823528618 0.426514822 -0.374012997 0 0
-0.74375 0.265472 0.011235 0.948394817 0.306598324 0.0808995579 0 0
-0.731955 0.205753 0.024464 0.649880858 -0.168695031 -0.741078172 0 0
-0.745217 0.260094 0.000467 0.648619413 -0.147304409 -0.74672235 0 0
-0.730287 0.211869 0.036709 0.953625538 0.285207638 0.0962025763 0 0
-0.737273 0.2156 0.047996 0.296490902 0.4855851 0.822374766 0 0
-0.749893 0.268754 0.02116 0.307903755 0.490205978 0.815409944 0 0
-0.763503 0.314041 -0.001198 0.332717019 0.51552637 0.789640391 0 0
-0.758267 0.311445 -0.010192 0.917006488 0.398202817 0.0231001634 0 0
-0.759784 0.30691 -0.019823 0.624442111 -0.0639043095 -0.778452497 0 0
-0.757098 0.257816 0.001273 -0.302592942 -0.442489679 -0.84418031 0 0
-0.756247 0.204716 0.033835 -0.964130221 -0.237507445 -0.118503715 0 0
-0.766578 0.259183 0.008708 -0.958583316 -0.263295417 -0.10859811 0 0
-0.745466 0.203162 0.02538 -0.307214919 -0.438021271 -0.844841026 0 0
-0.770286 0.304712 -0.018915 -0.295505944 -0.461609285 -0.836416825 0 0
-0.778527 0.305624 -0.012102 -0.925036998 -0.375515019 -0.0574022959 0 0
-0.760839 0.264743 0.017828 -0.651434732 0.199010611 0.732139035 0 0
-0.749721 0.211039 0.044206 -0.660601566 0.216300513 0.718901704 0 0
-0.773261 0.310417 -0.004016 -0.610000034 0.121700007 0.783000043 0 0
-0.77489 0.342157 -0.023525 0.873849911 0.484227657 -0.0437024961 0 0
-0.776963 0.338672 -0.0327 0.524218324 0.0403014088 -0.850629734 0 0
-0.77909 0.343594 -0.014602 0.35800909 0.474912058 0.803920412 0 0
-0.797387 0.374666 -0.02128 0.399411693 0.31150912 0.862225242 0 0
-0.793922 0.37402 -0.03002 0.888918214 0.456609356 -0.0365007479 0 0
-0.796333 0.371395 -0.038811 0.450278412 0.141793202 -0.881557735 0 0
-0.786586 0.336093 -0.031267 -0.340506107 -0.422807583 -0.839815062 0 0
-0.79371 0.336015 -0.024279 -0.880533835 -0.473318188 -0.0251009645 0 0
-0.80525 0.368755 -0.037134 -0.414686761 -0.282590978 -0.864972386 0 0
-0.811547 0.368085 -0.030173 -0.906723512 -0.420910914 -0.0262006794 0 0
-0.788288 0.340031 -0.016789 -0.547795141 -0.0346996922 0.835892586 0 0
-0.806094 0.371371 -0.023109 -0.509493471 -0.144298151 0.848289129 0 0
-0.815665 0.423448 -0.03093 0.923910911 0.380604495 0.0391004618 0 0
-0.817471 0.421092 -0.038802 0.524501442 0.150500414 -0.838002305 0 0
-0.819123 0.424508 -0.023459 0.372515979 0.258011068 0.891438239 0 0
-0.840471 0.481872 -0.034929 0.27240008 0.427900126 0.861800254 0 0
-0.836984 0.480122 -0.040597 0.923401898 0.36970076 0.103200212 0 0
-0.837901 0.477859 -0.047099 0.652086036 -0.0198995739 -0.75788377 0 0
-0.825532 0.419491 -0.037869 -0.407197846 -0.228498791 -0.884295322 0 0
-0.831456 0.419563 -0.032133 -0.940658887 -0.338821211 -0.0190011895 0 0
-0.844763 0.477492 -0.047133 -0.336424255 -0.413929843 -0.845860985 0 0
-0.850194 0.478585 -0.043098 -0.956348957 -0.291214908 -0.024301244 0 0
-0.826853 0.422224 -0.025595 -0.54582411 -0.0981043334 0.832136756 0 0
-0.846819 0.480702 -0.037396 -0.635287047 0.116197631 0.763484433 0 0
-0.854745 0.533725 -0.073362 0.911618994 0.398408301 0.101102106 0 0
-0.855144 0.531792 -0.078128 0.694607537 -0.233302531 -0.680507384 0 0
-0.857603 0.535512 -0.069477 0.219408645 0.639025178 0.737229047 0 0
-0.873648 0.579944 -0.112414 0.165306022 0.769628038 0.616722468 0 0
-0.870703 0.577395 -0.113088 0.886480833 0.456841657 0.07380673 0 0
-0.871872 0.577126 -0.117717 0.635521414 -0.355011962 -0.685623102 0 0
-0.860277 0.531945 -0.078584 -0.268614343 -0.617432969 -0.739339478 0 0
-0.864518 0.533287 -0.076005 -0.947407385 -0.311802431 -0.072100562 0 0
-0.874224 0.57617 -0.116696 -0.247597587 -0.71419304 -0.65469362 0 0
-0.877915 0.578463 -0.11678 -0.89350013 -0.446100065 -0.0515000075 0 0
-0.862244 0.534921 -0.071663 -0.680005134 0.3179024 0.660704988 0 0
-0.875693 0.578505 -0.112321 -0.658807326 0.40560451 0.633607046 0 0
-0.886616 0.604267 -0.143636 0.83371612 0.552010673 0.0142002746 0 0
-0.890757 0.608094 -0.151693 0.592034739 -0.137208051 -0.794146598 0 0
-0.891734 0.609684 -0.149048 0.0309024466 0.926173328 0.375829756 0 0
-0.893372 0.610434 -0.152833 -0.691663345 0.300227496 -0.656860158 0 0
-0.888754 0.603488 -0.145938 -0.237907581 -0.771924598 -0.589518785 0 0
-0.893872 0.608905 -0.151351 -0.947760673 -0.315820218 -0.0448028681 0 0
-0.889731 0.605078 -0.143294 -0.6368518 0.426534694 0.64225224 0 0
-0.731049 0.265472 0.077496 -0.743237549 0.306615491 0.594630041 0 0
-0.748712 0.205753 0.076032 0.0393992108 -0.168696621 0.984880273 0 0
-0.722569 0.260094 0.084291 0.0442001649 -0.147300549 0.988103686 0 0
-0.758356 0.211869 0.068304 -0.757519268 0.285207254 0.587214936 0 0
-0.761068 0.2156 0.05531 -0.781408232 0.485605116 -0.391904129 0 0
-0.733434 0.268754 0.066069 -0.784927763 0.490217339 -0.378913402 0 0
-0.708166 0.314041 0.072902 -0.785135921 0.515523586 -0.343215702 0 0
-0.705766 0.311445 0.083028 -0.680693962 0.398196468 0.614894546 0 0
-0.698032 0.30691 0.088964 0.0836040327 -0.0639030824 0.994447968 0 0
-0.714511 0.257816 0.075522 0.80087625 -0.442486878 0.403488035 0 0
-0.737559 0.204716 0.052505 0.780493214 -0.237497935 -0.578294972 0 0
-0.712761 0.259183 0.063602 0.769690941 -0.263296901 -0.581593155 0 0
-0.739549 0.203162 0.06606 0.804689245 -0.437994146 0.400794643 0 0
-0.691044 0.304712 0.081072 0.790410271 -0.461605999 0.402705233 0 0
-0.689764 0.305624 0.070456 0.710106526 -0.375503451 -0.595605474 0 0
-0.723203 0.264743 0.060945 -0.0320991709 0.19899486 -0.9794747 0 0
-0.749433 0.211039 0.049483 -0.0162998548 0.216298073 -0.976191302 0 0
-0.699152 0.310417 0.068222 -0.0971005758 0.121700722 -0.987805858 0 0
-0.684531 0.342157 0.081242 -0.60330114 0.484200915 0.633701198 0 0
-0.676708 0.338672 0.086465 0.205908629 0.0403016889 0.977740973 0 0
-0.687633 0.343594 0.07188 -0.813320289 0.474911847 -0.336108384 0 0
-0.66977 0.374666 0.064117 -0.883515665 0.311505523 -0.349806202 0 0
-0.666261 0.37402 0.072839 -0.619213115 0.456609671 0.63881353 0 0
-0.658458 0.371395 0.077552 0.280901027 0.141800518 0.949203469 0 0
-0.67072 0.336093 0.078797 0.825338969 -0.422819964 0.374217669 0 0
-0.670369 0.336015 0.068824 0.655530253 -0.473321844 -0.588427157 0 0
-0.653149 0.368755 0.070193 0.896453157 -0.282616758 0.341320239 0 0
-0.65338 0.368085 0.060809 0.675320847 -0.420912994 -0.605618696 0 0
-0.67946 0.340031 0.06713 -0.178698511 -0.0346997108 -0.983291804 0 0
-0.662198 0.371371 0.059446 -0.214998893 -0.144299257 -0.965895026 0 0
-0.649873 0.423448 0.058521 -0.696637086 0.380620263 0.608132375 0 0
-0.643141 0.421092 0.062984 0.197015866 0.150512121 0.968778019 0 0
-0.652513 0.424508 0.050724 -0.884106644 0.258001939 -0.389602928 0 0
-0.629137 0.481872 0.044332 -0.791136939 0.42791998 -0.437020405 0 0
-0.62776 0.480122 0.050843 -0.740468241 0.369734074 0.561251725 0 0
-0.622616 0.477859 0.054925 0.0492992985 -0.0198997168 0.99858579 0 0
-0.63794 0.419491 0.056755 0.904331204 -0.228507885 0.36051244 0 0
-0.637597 0.419563 0.048516 0.694941319 -0.338820145 -0.63423771 0 0
-0.617619 0.477492 0.050222 0.826549008 -0.413924542 0.381422615 0 0
-0.616461 0.478585 0.043556 0.709987618 -0.291194922 -0.641188818 0 0
-0.645438 0.422224 0.046947 -0.177600177 -0.0981000976 -0.979200974 0 0
-0.622835 0.480702 0.041748 -0.065398077 0.116196583 -0.991070858 0 0
-0.592314 0.533725 0.06236 -0.730483601 0.398391056 0.554687547 0 0
-0.588742 0.531792 0.06554 -0.0346995104 -0.233296708 0.971786288 0 0
-0.592919 0.535512 0.057574 -0.666901501 0.639001438 -0.383300862 0 0
-0.55171 0.579944 0.077646 -0.544698777 0.769598272 -0.333199252 0 0
-0.553381 0.577395 0.080163 -0.693458874 0.456838785 0.557147301 0 0
-0.549344 0.577126 0.082714 0.0116003503 -0.354910717 0.934828228 0 0
-0.584707 0.531945 0.062335 0.704024793 -0.617421743 0.350912358 0 0
-0.583409 0.533287 0.057543 0.736449974 -0.311821159 -0.600340738 0 0
-0.548343 0.57617 0.080354 0.630491208 -0.714190041 0.303995761 0 0
-0.545609 0.578463 0.077872 0.683118424 -0.446112032 -0.578215595 0 0
-0.588048 0.534921 0.055962 0.0377989415 0.317891098 -0.947373469 0 0
-0.550292 0.578505 0.07617 0.0411009827 0.405609698 -0.913121833 0 0
-0.520802 0.604267 0.091346 -0.614187213 0.551988508 0.563988258 0 0
-0.512251 0.608094 0.094334 0.117900206 -0.13720024 0.983501721 0 0
-0.513364 0.609684 0.091744 -0.28132221 0.92617312 -0.251119825 0 0
-0.509569 0.610434 0.093359 0.95384072 0.300312821 -0.000300012808 0 0
-0.517667 0.603488 0.091542 0.578537195 -0.77194963 0.263416936 0 0
-0.510228 0.608905 0.091941 0.717897771 -0.315799019 -0.620398074 0 0
-0.51878 0.605078 0.088952 0.019199718 0.426493735 -0.904286716 0 0
-0.747225 0.273744 0.103668 -0.742888151 -0.040499354 0.668189342 0 0
-0.73051 0.200402 0.106859 0.202996397 -0.0418992563 0.978282636 0 0
-0.734432 0.273755 0.110817 0.196900562 -0.0208000594 0.980202798 0 0
-0.745058 0.200389 0.098729 -0.745435674 -0.0667031922 0.66323174 0 0
-0.751483 0.201363 0.083383 -0.949958369 0.0108995223 -0.312186319 0 0
-0.752875 0.2746 0.090173 -0.954111936 0.0144001801 -0.299103742 0 0
-0.752502 0.33776 0.092911 -0.963581899 0.0393992599 -0.264495032 0 0
-0.747379 0.337498 0.104817 -0.731743386 0.0713042278 0.67784019 0 0
-0.735958 0.337869 0.111008 0.190709016 0.0714033757 0.979046286 0 0
-0.725563 0.275142 0.099234 0.946722102 0.0371008661 0.319907468 0 0
-0.72069 0.203349 0.07708 0.742777145 0.120096305 -0.658679733 0 0
-0.725797 0.276347 0.084631 0.745742158 0.0921052069 -0.659837302 0 0
-0.720423 0.201978 0.093686 0.947571853 0.0425987346 0.316690593 0 0
-0.728166 0.338808 0.100627 0.946919455 0.0153003143 0.321106597 0 0
-0.728486 0.339397 0.087674 0.747834173 -0.0356016269 -0.662930293 0 0
-0.740317 0.275817 0.082719 -0.211001759 0.0723006026 -0.974808125 0 0
-0.737202 0.202747 0.074906 -0.205499239 0.0953996465 -0.973996391 0 0
-0.741401 0.33872 0.08615 -0.230309467 -0.027101114 -0.972739985 0 0
-0.743507 0.382049 0.098385 -0.705196671 0.185199126 0.68439677 0 0
-0.732691 0.383503 0.103665 0.24421453 0.219913084 0.944456192 0 0
-0.748599 0.380762 0.087544 -0.967503507 -0.00890003226 -0.252700916 0 0
-0.749106 0.423092 0.074414 -0.949465719 -0.186412903 -0.252517479 0 0
-0.744124 0.425383 0.084397 -0.705003701 0.153900808 0.692303635 0 0
-0.733892 0.427676 0.089033 0.257008244 0.342110973 0.903828991 0 0
-0.725697 0.38348 0.093713 0.95573057 0.0635020311 0.28730919 0 0
-0.726336 0.382551 0.081704 0.749115593 -0.146603052 -0.646013447 0 0
-0.72754 0.427224 0.079551 0.945801324 0.217000304 0.241600338 0 0
-0.728377 0.425394 0.068357 0.739041136 -0.0928051657 -0.667237139 0 0
-0.738423 0.381287 0.080816 -0.223913675 -0.202412362 -0.953358223 0 0
-0.739711 0.423557 0.067856 -0.20010572 -0.313908973 -0.928126531 0 0
-0.757744 0.485482 0.062876 -0.737579171 0.0475986558 0.673580978 0 0
-0.748822 0.487407 0.067356 0.181707819 0.310813375 0.932940145 0 0
-0.761963 0.484233 0.05386 -0.927253439 -0.236713642 -0.29011672 0 0
-0.772125 0.557607 0.040522 -0.934048749 -0.0479025001 -0.353918471 0 0
-0.768957 0.557255 0.048204 -0.774342722 0.0129007118 0.632634903 0 0
-0.761794 0.55831 0.052452 0.139806327 0.0936042362 0.985744611 0 0
-0.74308 0.488105 0.059203 0.927731664 0.269809209 0.257908803 0 0
-0.743633 0.487512 0.049268 0.71335645 -0.0143011317 -0.700655445 0 0
-0.756836 0.560348 0.046108 0.953053963 0.0724040996 0.294016648 0 0
-0.756974 0.561473 0.037903 0.702442056 0.0337020178 -0.710942565 0 0
-0.753594 0.485566 0.048406 -0.191505321 -0.256707133 -0.947326322 0 0
-0.7651 0.559786 0.036564 -0.200297811 -0.0168998153 -0.979589293 0 0
-0.762349 0.635611 0.054762 -0.780293563 0.0420996527 0.623994852 0 0
-0.757123 0.635999 0.058141 0.169194132 -0.135195311 0.976266139 0 0
-0.764546 0.636634 0.049037 -0.92510364 0.200600789 -0.322401269 0 0
-0.74556 0.709606 0.065399 -0.87877963 0.377834237 -0.291526416 0 0
-0.745534 0.706211 0.06876 -0.776657952 0.111108291 0.620046266 0 0
-0.740875 0.708556 0.07125 0.265804618 -0.222003857 0.9381163 0 0
-0.753323 0.638181 0.053711 0.943853627 -0.166709472 0.285216205 0 0
-0.753264 0.639847 0.047723 0.739067376 0.0322029358 -0.672861341 0 0
-0.739509 0.707887 0.068315 0.923438656 -0.290612165 0.250610491 0 0
-0.738264 0.711636 0.064853 0.760586945 -0.108598136 -0.640089013 0 0
-0.759262 0.638689 0.046428 -0.205808548 0.212508827 -0.955239677 0 0
-0.743376 0.708764 0.063483 -0.242990717 0.293488787 -0.924564678 0 0
-0.726128 0.754718 0.076408 -0.753956828 0.232917556 0.614246297 0 0
-0.719117 0.764059 0.078609 0.255414093 0.0232012802 0.966553331 0 0
-0.721499 0.76481 0.075598 -0.719925705 0.648723163 -0.246708809 0 0
-0.717795 0.767987 0.07696 0.67995567 0.722759175 -0.12361012 0 0
-0.722359 0.755751 0.076225 0.903148622 -0.369619899 0.218411759 0 0
-0.71773 0.765843 0.075415 0.723203323 0.0179000823 -0.690403172 0 0
-0.724741 0.756501 0.073214 -0.271397994 0.301897769 -0.913893246 0 0
3 0 1 2
3 0 3 1
3 0 4 3
3 0 5 4
3 0 6 5
3 0 7 6
3 0 8 7
3 0 2 8
3 9 10 11
3 9 12 10
3 9 1 12
3 9 2 1
3 9 8 2
3 9 13 8
3 9 14 13
3 9 11 14
3 15 4 5
3 15 16 4
3 15 10 16
3 15 11 10
3 15 14 11
3 15 17 14
3 15 6 17
3 15 5 6
3 18 8 19
3 18 7 8
3 18 6 7
3 18 20 6
3 18 21 20
3 18 22 21
3 18 23 22
3 18 19 23
3 24 14 25
3 24 13 14
3 24 8 13
3 24 19 8
3 24 23 19
3 24 26 23
3 24 27 26
3 24 25 27
3 28 6 20
3 28 17 6
3 28 14 17
3 28 25 14
3 28 27 25
3 28 29 27
3 28 21 29
3 28 20 21
3 30 23 31
3 30 22 23
3 30 21 22
3 30 32 21
3 30 33 32
3 30 34 33
3 30 35 34
3 30 31 35
3 36 27 37
3 36 26 27
3 36 23 26
3 36 31 23
3 36 35 31
3 36 38 35
3 36 39 38
3 36 37 39
3 40 21 32
3 40 29 21
3 40 27 29
3 40 37 27
3 40 39 37
3 40 41 39
3 40 33 41
3 40 32 33
3 42 35 43
3 42 34 35
3 42 33 34
3 42 44 33
3 42 45 44
3 42 46 45
3 42 47 46
3 42 43 47
3 48 39 49
3 48 38 39
3 48 35 38
3 48 43 35
3 48 47 43
3 48 50 47
3 48 51 50
3 48 49 51
3 52 33 44
3 52 41 33
3 52 39 41
3 52 49 39
3 52 51 49
3 52 53 51
3 52 45 53
3 52 44 45
3 54 47 55
3 54 46 47
3 54 45 46
3 54 56 45
3 54 57 56
3 54 55 57
3 58 51 59
3 58 50 51
3 58 47 50
3 58 55 47
3 58 57 55
3 58 59 57
3 60 45 56
3 60 53 45
3 60 51 53
3 60 59 51
3 60 57 59
3 60 56 57
3 61 62 63
3 61 64 62
3 61 65 64
3 61 66 65
3 61 67 66
3 61 68 67
3 61 69 68
3 61 63 69
3 70 71 72
3 70 73 71
3 70 62 73
3 70 63 62
3 70 69 63
3 70 74 69
3 70 75 74
3 70 72 75
3 76 65 66
3 76 77 65
3 76 71 77
3 76 72 71
3 76 75 72
3 76 78 75
3 76 67 78
3 76 66 67
3 79 69 80
3 79 68 69
3 79 67 68
3 79 81 67
3 79 82 81
3 79 83 82
3 79 84 83
3 79 80 84
3 85 75 86
3 85 74 75
3 85 69 74
3 85 80 69
3 85 84 80
3 85 87 84
3 85 88 87
3 85 86 88
3 89 67 81
3 89 78 67
3 89 75 78
3 89 86 75
3 89 88 86
3 89 90 88
3 89 82 90
3 89 81 82
3 91 84 92
3 91 83 84
3 91 82 83
3 91 93 82
3 91 94 93
3 91 95 94
3 91 96 95
3 91 92 96
3 97 88 98
3 97 87 88
3 97 84 87
3 97 92 84
3 97 96 92
3 97 99 96
3 97 100 99
3 97 98 100
3 101 82 93
3 101 90 82
3 101 88 90
3 101 98 88
3 101 100 98
3 101 102 100
3 101 94 102
3 101 93 94
3 103 96 104
3 103 95 96
3 103 94 95
3 103 105 94
3 103 106 105
3 103 107 106
3 103 108 107
3 103 104 108
3 109 100 110
3 109 99 100
3 109 96 99
3 109 104 96
3 109 108 104
3 109 111 108
3 109 112 111
3 109 110 112
3 113 94 105
3 113 102 94
3 113 100 102
3 113 110 100
3 113 112 110
3 113 114 112
3 113 106 114
3 113 105 106
3 115 108 116
3 115 107 108
3 115 106 107
3 115 117 106
3 115 118 117
3 115 116 118
3 119 112 120
3 119 111 112
3 119 108 111
3 119 116 108
3 119 118 116
3 119 120 118
3 121 106 117
3 121 114 106
3 121 112 114
3 121 120 112
3 121 118 120
3 121 117 118
3 122 123 124
3 122 125 123
3 122 126 125
3 122 127 126
3 122 128 127
3 122 129 128
3 122 130 129
3 122 124 130
3 131 132 133
3 131 134 132
3 131 123 134
3 131 124 123
3 131 130 124
3 131 135 130
3 131 136 135
3 131 133 136
3 137 126 127
3 137 138 126
3 137 132 138
3 137 133 132
3 137 136 133
3 137 139 136
3 137 128 139
3 137 127 128
3 140 130 141
3 140 129 130
3 140 128 129
3 140 142 128
3 140 143 142
3 140 144 143
3 140 145 144
3 140 141 145
3 146 136 147
3 146 135 136
3 146 130 135
3 146 141 130
3 146 145 141
3 146 148 145
3 146 149 148
3 146 147 149
3 150 128 142
3 150 139 128
3 150 136 139
3 150 147 136
3 150 149 147
3 150 151 149
3 150 143 151
3 150 142 143
3 152 145 153
3 152 144 145
3 152 143 144
3 152 154 143
3 152 155 154
3 152 156 155
3 152 157 156
3 152 153 157
3 158 149 159
3 158 148 149
3 158 145 148
3 158 153 145
3 158 157 153
3 158 160 157
3 158 161 160
3 158 159 161
3 162 143 154
3 162 151 143
3 162 149 151
3 162 159 149
3 162 161 159
3 162 163 161
3 162 155 163
3 162 154 155
3 164 157 165
3 164 156 157
3 164 155 156
3 164 166 155
3 164 167 166
3 164 168 167
3 164 169 168
3 164 165 169
3 170 161 171
3 170 160 161
3 170 157 160
3 170 165 157
3 170 169 165
3 170 172 169
3 170 173 172
3 170 171 173
3 174 155 166
3 174 163 155
3 174 161 163
3 174 171 161
3 174 173 171
3 174 175 173
3 174 167 175
3 174 166 167
3 176 169 177
3 176 168 169
3 176 167 168
3 176 178 167
3 176 179 178
3 176 177 179
3 180 173 181
3 180 172 173
3 180 169 172
3 180 177 169
3 180 179 177
3 180 181 179
3 182 167 178
3 182 175 167
3 182 173 175
3 182 181 173
3 182 179 181
3 182 178 179
3 183 184 185
3 183 186 184
3 183 187 186
3 183 188 187
3 183 189 188
3 183 190 189
3 183 191 190
3 183 185 191
3 192 193 194
3 192 195 193
3 192 184 195
3 192 185 184
3 192 191 185
3 192 196 191
3 192 197 196
3 192 194 197
3 198 187 188
3 198 199 187
3 198 193 199
3 198 194 193
3 198 197 194
3 198 200 197
3 198 189 200
3 198 188 189
3 201 191 202
3 201 190 191
3 201 189 190
3 201 203 189
3 201 204 203
3 201 205 204
3 201 206 205
3 201 202 206
3 207 197 208
3 207 196 197
3 207 191 196
3 207 202 191
3 207 206 202
3 207 209 206
3 207 210 209
3 207 208 210
3 211 189 203
3 211 200 189
3 211 197 200
3 211 208 197
3 211 210 208
3 211 212 210
3 211 204 212
3 211 203 204
3 213 206 214
3 213 205 206
3 213 204 205
3 213 215 204
3 213 216 215
3 213 217 216
3 213 218 217
3 213 214 218
3 219 210 220
3 219 209 210
3 219 206 209
3 219 214 206
3 219 218 214
3 219 221 218
3 219 222 221
3 219 220 222
3 223 204 215
3 223 212 204
3 223 210 212
3 223 220 210
3 223 222 220
3 223 224 222
3 223 216 224
3 223 215 216
3 225 218 226
3 225 217 218
3 225 216 217
3 225 227 216
3 225 228 227
3 225 229 228
3 225 230 229
3 225 226 230
3 231 222 232
3 231 221 222
3 231 218 221
3 231 226 218
3 231 230 226
3 231 233 230
3 231 234 233
3 231 232 234
3 235 216 227
3 235 224 216
3 235 222 224
3 235 232 222
3 235 234 232
3 235 236 234
3 235 228 236
3 235 227 228
3 237 230 238
3 237 229 230
3 237 228 229
3 237 239 228
3 237 240 239
3 237 238 240
3 241 234 242
3 241 233 234
3 241 230 233
3 241 238 230
3 241 240 238
3 241 242 240
3 243 228 239
3 243 236 228
3 243 234 236
3 243 242 234
3 243 240 242
3 243 239 240
