ply
format ascii 1.0
element vertex 748
property float x
property float y
property float z
property float nx
property float ny
property float nz
property float u
property float v
element face 816
property list uchar int vertex_indices
end_header
-0.880676 0.269877 0.222057 -0.632416943 0.613516436 0.47291267 0.534256 0.709559
-0.806067 0.30397 0.262544 -0.477593581 0.7663897 0.429594226 0.150317 0.76837
-0.854285 0.306551 0.202983 -0.515021907 0.764732529 0.387216471 0.336506 0.483737
-0.860872 0.249099 0.270624 -0.616259877 0.60576056 0.503267233 0.491257 0.965403
-0.907253 0.21863 0.240815 -0.67660162 0.535801283 0.50510121 0.819521 0.943554
-0.921741 0.249658 0.188496 -0.656708114 0.60620749 0.448605543 0.740853 0.599345
-0.897371 0.304809 0.139353 -0.544813825 0.767019463 0.3389086 0.541148 0.2429
-0.817632 0.334577 0.175772 -0.383595025 0.876688629 0.290296235 0.263333 0.369123
-0.765402 0.364204 0.136674 -0.32920281 0.910507771 0.250202135 0.148355 0.134475
-0.827174 0.346708 0.119069 -0.389688477 0.883573873 0.259692321 0.395838 -0.020532
-0.766305 0.346148 0.201197 -0.35590539 0.883313378 0.305104621 -0.026908 0.466559
-0.71631 0.435719 -0.053901 0.251990364 0.941164011 -0.225191389 0.534256 0.709559
-0.793593 0.459125 -0.010919 0.185806117 0.982432342 -0.0174005728 0.150317 0.76837
-0.718521 0.44443 -0.005687 0.241014898 0.97035998 -0.0177010941 0.336506 0.483737
-0.765553 0.439948 -0.081102 0.219090879 0.946560596 -0.236690147 0.491257 0.965403
-0.715799 0.41575 -0.111219 0.253187288 0.914254096 -0.31628412 0.819521 0.943554
-0.666658 0.415514 -0.072554 0.284908418 0.930327487 -0.230906822 0.740853 0.599345
-0.645251 0.422473 0.001904 0.294989786 0.955466918 -0.00799972301 0.541148 0.2429
-0.724337 0.438616 0.047244 0.22140696 0.958630135 0.178905624 0.263333 0.369123
-0.73386 0.422268 0.116355 0.211499774 0.94419899 0.25249973 0.148355 0.134475
-0.678699 0.419859 0.079162 0.246696483 0.949086471 0.195897208 0.395838 -0.020532
-0.777594 0.444294 0.070614 0.191998061 0.962590278 0.191198069 -0.026908 0.466559
-0.650085 0.262036 0.19916 0.488798492 0.446798622 0.749297688 0.534256 0.709559
-0.631157 0.327582 0.138221 0.392087749 0.63018031 0.670179061 0.150317 0.76837
-0.679519 0.300444 0.191173 0.358896208 0.606593591 0.709392505 0.336506 0.483737
-0.603842 0.260411 0.166885 0.516179918 0.45188242 0.727571694 0.491257 0.965403
-0.618656 0.210178 0.201889 0.540901401 0.367600952 0.756501959 0.819521 0.943554
-0.671185 0.222175 0.233618 0.471297658 0.42649788 0.771996163 0.740853 0.599345
-0.732171 0.270228 0.238321 0.317798338 0.587896925 0.743896109 0.541148 0.2429
-0.717535 0.332695 0.171579 0.221416752 0.732855446 0.643348674 0.263333 0.369123
-0.770419 0.369162 0.139833 0.166498199 0.773691633 0.611293389 0.148355 0.134475
-0.77236 0.328164 0.192247 0.191997273 0.730389625 0.655490689 0.395838 -0.020532
-0.705017 0.3664 0.125514 0.229202584 0.751608474 0.618506974 -0.026908 0.466559
-0.915406 0.33986 0.082217 -0.495530451 0.865853208 -0.0689042343 0.534256 0.709559
-0.898027 0.34869 0.171593 -0.331281657 0.941647862 0.0595967002 0.150317 0.76837
-0.874635 0.360863 0.099594 -0.317393225 0.948279759 0.00519988901 0.336506 0.483737
-0.950649 0.320167 0.121622 -0.513831843 0.856953107 -0.0401024852 0.491257 0.965403
-0.960845 0.305533 0.061208 -0.569386264 0.81578032 -0.101497551 0.819521 0.943554
-0.916514 0.332092 0.026004 -0.491103705 0.864906526 -0.103700782 0.740853 0.599345
-0.846824 0.366578 0.028165 -0.293605872 0.954819097 -0.04600092 0.541148 0.2429
-0.825026 0.368949 0.11811 -0.136195777 0.987869372 0.0745976871 0.263333 0.369123
-0.757491 0.370983 0.141967 -0.0653990435 0.992785481 0.10049853 0.148355 0.134475
-0.780944 0.375725 0.079843 -0.112798558 0.992187315 0.0532993186 0.395838 -0.020532
-0.81508 0.3638 0.175462 -0.131598315 0.98558738 0.106298639 -0.026908 0.466559
-0.854233 0.485257 0.188651 -0.558997485 0.745196647 0.363598364 0.534256 0.709559
-0.82198 0.481006 0.234848 -0.364106397 0.823314466 0.43540765 0.150317 0.76837
-0.828233 0.500414 0.192101 -0.375013898 0.843831273 0.383814224 0.336506 0.483737
-0.862566 0.464181 0.215121 -0.562677142 0.726970467 0.393584011 0.491257 0.965403
-0.882992 0.462121 0.182069 -0.634578409 0.689476541 0.349188119 0.819521 0.943554
-0.868908 0.487823 0.156916 -0.569409276 0.752512259 0.33090539 0.740853 0.599345
-0.831493 0.516469 0.14754 -0.375483184 0.865561237 0.331385159 0.541148 0.2429
-0.796245 0.508867 0.191922 -0.186110365 0.903050292 0.387121559 0.263333 0.369123
-0.75252 0.515243 0.18943 -0.111698369 0.916386616 0.384394386 0.148355 0.134475
-0.781926 0.523238 0.161823 -0.174201421 0.916307472 0.360602941 0.395838 -0.020532
-0.775584 0.499596 0.220028 -0.16840978 0.895151983 0.412723968 -0.026908 0.466559
-0.625442 0.527672 0.095283 0.458713535 0.879125939 0.129303815 0.534256 0.709559
-0.676742 0.550409 0.088665 0.28199164 0.924772586 0.255492426 0.150317 0.76837
-0.644663 0.53206 0.118282 0.322614073 0.901839339 0.287412537 0.336506 0.483737
-0.637612 0.537008 0.063994 0.441679606 0.891458838 0.101095332 0.491257 0.965403
-0.604369 0.516909 0.066201 0.513879273 0.856065471 0.0554977615 0.819521 0.943554
-0.596415 0.509726 0.103307 0.485998868 0.862097991 0.143499666 0.740853 0.599345
-0.614947 0.509487 0.147634 0.355604801 0.876011826 0.325804398 0.541148 0.2429
-0.66861 0.528001 0.140749 0.181308919 0.88674362 0.425220917 0.263333 0.369123
-0.701498 0.517649 0.168499 0.125302965 0.871720629 0.473711211 0.148355 0.134475
-0.661167 0.51022 0.171505 0.188703773 0.871617428 0.452409046 0.395838 -0.020532
-0.702364 0.537501 0.132192 0.151702414 0.896014256 0.417306639 -0.026908 0.466559
-0.708408 0.425133 0.259076 0.0562011327 0.522610533 0.850717146 0.534256 0.709559
-0.666837 0.453697 0.233611 0.0761000141 0.696100129 0.713900132 0.150317 0.76837
-0.713276 0.44967 0.241991 0.0214995523 0.687585681 0.725784886 0.336506 0.483737
-0.675089 0.415179 0.261318 0.0912017137 0.518309739 0.850315978 0.491257 0.965403
-0.702881 0.391682 0.27508 0.0711981318 0.439988455 0.895176511 0.819521 0.943554
-0.737305 0.408327 0.269637 0.0242008316 0.511017559 0.859229524 0.740853 0.599345
-0.760161 0.443419 0.246089 -0.0351007914 0.683915419 0.728716429 0.541148 0.2429
-0.719036 0.469758 0.21634 -0.0124001738 0.815511429 0.578608109 0.263333 0.369123
-0.726795 0.492088 0.178923 -0.0252998768 0.856095831 0.516197486 0.148355 0.134475
-0.753248 0.475264 0.205533 -0.0428010253 0.820519656 0.570013655 0.395838 -0.020532
-0.691032 0.482116 0.197214 0.0128999642 0.826697706 0.562498439 -0.026908 0.466559
-0.79784 0.487089 0.04969 -0.163497961 0.986187702 -0.0264996696 0.534256 0.709559
-0.823863 0.479645 0.099288 -0.107999349 0.976194118 0.188098867 0.150317 0.76837
-0.783361 0.488192 0.076276 -0.0616991057 0.985685713 0.156897726 0.336506 0.483737
-0.831903 0.480054 0.051804 -0.197199617 0.980198098 -0.0179999651 0.491257 0.965403
-0.814606 0.479821 0.016953 -0.207497416 0.972087893 -0.109498636 0.819521 0.943554
-0.77719 0.488309 0.021387 -0.13829888 0.989091993 -0.0506995896 0.740853 0.599345
-0.741793 0.492028 0.053661 -0.0100997036 0.990970915 0.133696076 0.541148 0.2429
-0.766751 0.479872 0.103654 0.0372021957 0.945455802 0.323619101 0.263333 0.369123
-0.744654 0.463584 0.138371 0.0747015773 0.920219431 0.384208113 0.148355 0.134475
-0.730555 0.477485 0.102332 0.0691009519 0.944213007 0.322004436 0.395838 -0.020532
-0.785269 0.46923 0.13275 0.0200999122 0.936795906 0.349298474 -0.026908 0.466559
-0.778303 0.569289 0.196703 -0.360001548 0.927203987 0.103400445 0.534256 0.709559
-0.77915 0.56221 0.230908 -0.22089377 0.935373618 0.27619221 0.150317 0.76837
-0.763774 0.572332 0.208129 -0.194509787 0.953647984 0.229611553 0.336506 0.483737
-0.795604 0.560571 0.206137 -0.385203513 0.914408339 0.124401135 0.491257 0.965403
-0.794854 0.562115 0.182138 -0.430091815 0.901682841 0.0445991513 0.819521 0.943554
-0.774243 0.572268 0.175616 -0.347990778 0.934775229 0.071398108 0.740853 0.599345
-0.74711 0.579756 0.185126 -0.159200025 0.96920015 0.187900029 0.541148 0.2429
-0.746669 0.56998 0.219106 -0.0302008348 0.940225988 0.339209376 0.263333 0.369123
-0.723677 0.56367 0.232547 0.0330998587 0.925296049 0.377798387 0.148355 0.134475
-0.726792 0.573305 0.209222 -0.00219995873 0.945782257 0.324793907 0.395838 -0.020532
-0.748152 0.561607 0.239743 -0.0331000023 0.928800065 0.369100026 -0.026908 0.466559
-0.659716 0.54532 0.220638 0.5448186 0.718824541 0.431814742 0.534256 0.709559
-0.677436 0.567317 0.200072 0.351793638 0.828185022 0.43629211 0.150317 0.76837
-0.676058 0.55302 0.225595 0.35790883 0.7985197 0.484011941 0.336506 0.483737
-0.652766 0.550655 0.200951 0.551510286 0.732113654 0.399807456 0.491257 0.965403
-0.641561 0.533094 0.212991 0.621907668 0.672208288 0.401704953 0.819521 0.943554
-0.652141 0.530204 0.234208 0.552475512 0.696569125 0.457779709 0.740853 0.599345
-0.676498 0.536641 0.249958 0.353581611 0.769060002 0.532472307 0.541148 0.2429
-0.696036 0.556558 0.228232 0.166896417 0.841281938 0.51418896 0.263333 0.369123
-0.723282 0.55838 0.230077 0.0920010539 0.849009725 0.52030596 0.148355 0.134475
-0.706622 0.547061 0.245598 0.152592628 0.828059997 0.539473939 0.395838 -0.020532
-0.707247 0.567512 0.212341 0.151599428 0.857696766 0.491298148 -0.026908 0.466559
-0.755519 0.519157 0.26967 -0.280413655 0.582228352 0.763137162 0.534256 0.709559
-0.721544 0.526661 0.272866 -0.134998977 0.724994505 0.675394881 0.150317 0.76837
-0.747236 0.533177 0.260409 -0.186203161 0.73401246 0.653111087 0.336506 0.483737
-0.742387 0.507546 0.282202 -0.254705241 0.568011687 0.782616102 0.491257 0.965403
-0.764783 0.499702 0.278226 -0.319203968 0.504706274 0.80210997 0.819521 0.943554
-0.776062 0.515204 0.263983 -0.313300034 0.581500064 0.750800083 0.740853 0.599345
-0.772057 0.538148 0.245536 -0.232408894 0.747128593 0.622723832 0.541148 0.2429
-0.73721 0.544107 0.246316 -0.0900040242 0.847737903 0.522723371 0.263333 0.369123
-0.723587 0.55584 0.22568 -0.052102867 0.882548564 0.467325715 0.148355 0.134475
-0.748598 0.552629 0.228952 -0.106901411 0.860211351 0.498606579 0.395838 -0.020532
-0.714923 0.544971 0.247172 -0.0580011655 0.849117063 0.52501055 -0.026908 0.466559
-0.722983 0.556394 0.121765 0.0328012122 0.997536865 -0.0620022913 0.534256 0.709559
-0.756166 0.555711 0.14224 -0.0284002928 0.988110187 0.151101558 0.150317 0.76837
-0.723488 0.556335 0.142667 0.028001404 0.988649572 0.147607401 0.336506 0.483737
-0.744523 0.555455 0.111107 -0.00110003601 0.997432651 -0.0716023439 0.491257 0.965403
-0.722394 0.552326 0.096217 0.0343998154 0.987094704 -0.156399161 0.819521 0.943554
-0.700973 0.554078 0.111985 0.0667995868 0.995293844 -0.0701995658 0.740853 0.599345
-0.690842 0.553646 0.143557 0.0844044242 0.984551607 0.153408041 0.541148 0.2429
-0.724058 0.549651 0.164495 0.0229005868 0.940324096 0.3395087 0.263333 0.369123
-0.724813 0.537155 0.192359 0.0206006127 0.912027124 0.409612182 0.148355 0.134475
-0.702585 0.543964 0.17608 0.0505988471 0.933878722 0.353991934 0.395838 -0.020532
-0.746135 0.545341 0.175201 -0.0059002343 0.935637155 0.352914014 -0.026908 0.466559
-0.774692 0.609883 0.245988 -0.360001548 0.927203987 0.103400445 0.534256 0.709559
-0.775539 0.602804 0.280193 -0.22089377 0.935373618 0.27619221 0.150317 0.76837
-0.760163 0.612926 0.257414 -0.194509787 0.953647984 0.229611553 0.336506 0.483737
-0.791993 0.601165 0.255423 -0.385203513 0.914408339 0.124401135 0.491257 0.965403
-0.791244 0.602709 0.231423 -0.430091815 0.901682841 0.0445991513 0.819521 0.943554
-0.770633 0.612863 0.224901 -0.347990778 0.934775229 0.071398108 0.740853 0.599345
-0.743499 0.620351 0.234411 -0.159200025 0.96920015 0.187900029 0.541148 0.2429
-0.743058 0.610574 0.268392 -0.0302008348 0.940225988 0.339209376 0.263333 0.369123
-0.720066 0.604264 0.281832 0.0330998587 0.925296049 0.377798387 0.148355 0.134475
-0.723181 0.613899 0.258507 -0.00219995873 0.945782257 0.324793907 0.395838 -0.020532
-0.744541 0.602201 0.289029 -0.0331000023 0.928800065 0.369100026 -0.026908 0.466559
-0.667968 0.595637 0.276738 0.5448186 0.718824541 0.431814742 0.534256 0.709559
-0.682586 0.613784 0.259772 0.351793638 0.828185022 0.43629211 0.150317 0.76837
-0.681449 0.601989 0.280827 0.35790883 0.7985197 0.484011941 0.336506 0.483737
-0.662235 0.600038 0.260497 0.551510286 0.732113654 0.399807456 0.491257 0.965403
-0.652991 0.585551 0.270429 0.621907668 0.672208288 0.401704953 0.819521 0.943554
-0.661719 0.583167 0.287932 0.552475512 0.696569125 0.457779709 0.740853 0.599345
-0.681812 0.588478 0.300925 0.353581611 0.769060002 0.532472307 0.541148 0.2429
-0.69793 0.604908 0.283002 0.166896417 0.841281938 0.51418896 0.263333 0.369123
-0.720407 0.606411 0.284524 0.0920010539 0.849009725 0.52030596 0.148355 0.134475
-0.706663 0.597074 0.297329 0.152592628 0.828059997 0.539473939 0.395838 -0.020532
-0.707179 0.613944 0.269893 0.151599428 0.857696766 0.491298148 -0.026908 0.466559
-0.753464 0.561691 0.316601 -0.280413655 0.582228352 0.763137162 0.534256 0.709559
-0.719489 0.569194 0.319797 -0.134998977 0.724994505 0.675394881 0.150317 0.76837
-0.745182 0.57571 0.30734 -0.186203161 0.73401246 0.653111087 0.336506 0.483737
-0.740332 0.550079 0.329134 -0.254705241 0.568011687 0.782616102 0.491257 0.965403
-0.762728 0.542235 0.325158 -0.319203968 0.504706274 0.80210997 0.819521 0.943554
-0.774008 0.557738 0.310914 -0.313300034 0.581500064 0.750800083 0.740853 0.599345
-0.770002 0.580682 0.292467 -0.232408894 0.747128593 0.622723832 0.541148 0.2429
-0.735155 0.586641 0.293247 -0.0900040242 0.847737903 0.522723371 0.263333 0.369123
-0.721532 0.598373 0.272612 -0.052102867 0.882548564 0.467325715 0.148355 0.134475
-0.746543 0.595163 0.275883 -0.106901411 0.860211351 0.498606579 0.395838 -0.020532
-0.712868 0.587505 0.294103 -0.0580011655 0.849117063 0.52501055 -0.026908 0.466559
-0.715518 0.595343 0.184152 0.188794475 0.980971292 -0.0452986744 0.534256 0.709559
-0.746621 0.599269 0.199579 0.106797411 0.981176212 0.160896099 0.150317 0.76837
-0.717767 0.595383 0.202749 0.162805593 0.973133433 0.162805593 0.336506 0.483737
-0.733716 0.597426 0.172801 0.156397453 0.985983943 -0.0580990539 0.491257 0.965403
-0.713353 0.591633 0.161368 0.19789771 0.970288774 -0.139198389 0.819521 0.943554
-0.695588 0.590292 0.177275 0.222793668 0.973572332 -0.0501985734 0.740853 0.599345
-0.68943 0.588568 0.20629 0.2170901 0.960556195 0.173792074 0.541148 0.2429
-0.721051 0.589565 0.222088 0.131903869 0.926427177 0.352610344 0.263333 0.369123
-0.725802 0.578632 0.246724 0.118698449 0.898888252 0.421794487 0.148355 0.134475
-0.703887 0.581625 0.23418 0.156892581 0.91585669 0.369582523 0.395838 -0.020532
-0.742015 0.588759 0.229705 0.101595772 0.926161454 0.363184885 -0.026908 0.466559
-0.719778 0.290144 -0.143297 0.186693442 0.567580061 -0.801871831 0.534256 0.709559
-0.810523 0.300634 -0.148112 0.0319005964 0.699813083 -0.713613341 0.150317 0.76837
-0.74388 0.325747 -0.1197 0.0828998835 0.714798996 -0.694399024 0.336506 0.483737
-0.752419 0.254947 -0.172936 0.161597502 0.549991497 -0.819387332 0.491257 0.965403
-0.691628 0.240737 -0.164533 0.231097326 0.492294304 -0.839190291 0.819521 0.943554
-0.664617 0.285815 -0.130648 0.219906838 0.570617744 -0.791224604 0.740853 0.599345
-0.67882 0.346937 -0.08468 0.128802946 0.733916785 -0.666915253 0.541148 0.2429
-0.771149 0.353503 -0.082886 -0.0181009885 0.825145062 -0.564630835 0.263333 0.369123
-0.807213 0.383295 -0.028607 -0.0567018389 0.858827852 -0.509116511 0.148355 0.134475
-0.741673 0.380854 -0.04003 -0.00149997119 0.840383861 -0.541989591 0.395838 -0.020532
-0.829476 0.349986 -0.082319 -0.0501994957 0.82329173 -0.565394321 -0.026908 0.466559
-0.774308 0.435719 0.169989 -0.15549707 0.941182263 0.299994347 0.534256 0.709559
-0.717341 0.459125 0.102351 -0.167505084 0.982429817 0.0823024979 0.150317 0.76837
-0.789373 0.44443 0.124136 -0.219012273 0.970354375 0.102205727 0.336506 0.483737
-0.718613 0.439948 0.177917 -0.12069512 0.946561731 0.299087908 0.491257 0.965403
-0.754418 0.41575 0.223748 -0.124294883 0.914262361 0.385584126 0.819521 0.943554
-0.814091 0.415514 0.205068 -0.184211354 0.930357344 0.31701954 0.740853 0.599345
-0.860559 0.422473 0.143076 -0.272891002 0.955468494 0.112296297 0.541148 0.2429
-0.802745 0.438616 0.072593 -0.270508904 0.958631554 -0.0886029164 0.263333 0.369123
-0.818401 0.422268 0.004608 -0.287399826 0.944199429 -0.160899903 0.148355 0.134475
-0.856747 0.419859 0.058974 -0.300198197 0.949094301 -0.0953994271 0.395838 -0.020532
-0.761268 0.444294 0.031824 -0.247398049 0.96259241 -0.110499129 -0.026908 0.466559
-0.939267 0.278907 -0.053877 -0.51681751 0.763825879 -0.386613099 0.534256 0.709559
-0.916593 0.323641 0.022626 -0.346495175 0.884787679 -0.311595661 0.150317 0.76837
-0.897949 0.30494 -0.049359 -0.336203123 0.868308067 -0.364703388 0.336506 0.483737
-0.971592 0.27741 -0.007664 -0.533097265 0.767696062 -0.355598176 0.491257 0.965403
-0.98519 0.239266 -0.055915 -0.591463582 0.705256575 -0.390875933 0.819521 0.943554
-0.943681 0.24869 -0.10172 -0.514482109 0.748673965 -0.418085461 0.740853 0.599345
-0.874726 0.28056 -0.118457 -0.315699485 0.853098609 -0.415399323 0.541148 0.2429
-0.847471 0.319615 -0.039067 -0.152000654 0.931804007 -0.329601417 0.263333 0.369123
-0.778649 0.330858 -0.022592 -0.079799538 0.94649452 -0.312698189 0.148355 0.134475
-0.805987 0.309752 -0.079504 -0.130001721 0.926812266 -0.352304663 0.395838 -0.020532
-0.833898 0.338472 0.014551 -0.145404036 0.942726166 -0.300208332 -0.026908 0.466559
-0.630131 0.324499 -0.022293 0.504311269 0.805918008 -0.310106929 0.534256 0.709559
-0.679009 0.316651 -0.099218 0.306000513 0.870401458 -0.385700646 0.150317 0.76837
-0.673979 0.345604 -0.028397 0.313207985 0.889422676 -0.332908488 0.336506 0.483737
-0.612303 0.293653 -0.066036 0.510592094 0.789487775 -0.340594726 0.491257 0.965403
-0.580889 0.290682 -0.011516 0.583923156 0.756229989 -0.295211707 0.819521 0.943554
-0.608566 0.328291 0.030071 0.512987009 0.812579422 -0.276692993 0.740853 0.599345
-0.673404 0.368608 0.044943 0.310088549 0.908666444 -0.279589675 0.541148 0.2429
-0.726737 0.354813 -0.029463 0.120206354 0.932449286 -0.340718009 0.263333 0.369123
-0.798252 0.358888 -0.027647 0.0448976521 0.939250883 -0.340282205 0.148355 0.134475
-0.753474 0.373762 0.019317 0.106302017 0.943417897 -0.314105959 0.395838 -0.020532
-0.757211 0.339124 -0.07679 0.104204555 0.924240404 -0.367316058 -0.026908 0.466559
-0.760816 0.49775 -0.108503 0.393301931 0.745203659 -0.538502644 0.534256 0.709559
-0.80738 0.493499 -0.140224 0.185600445 0.823301972 -0.536401285 0.150317 0.76837
-0.786345 0.512907 -0.102489 0.214110572 0.843841666 -0.492024294 0.336506 0.483737
-0.762433 0.476674 -0.136206 0.386100183 0.727000345 -0.56780027 0.491257 0.965403
-0.731595 0.474613 -0.11257 0.46908624 0.689479774 -0.551883811 0.819521 0.943554
-0.735822 0.500316 -0.084053 0.414685646 0.752473954 -0.511682288 0.740853 0.599345
-0.767464 0.528962 -0.061995 0.233201958 0.865607267 -0.44310372 0.541148 0.2429
-0.816182 0.52136 -0.090956 0.0364030512 0.903075694 -0.427935869 0.263333 0.369123
-0.856168 0.527736 -0.073089 -0.0321995685 0.91638772 -0.398994654 0.148355 0.134475
-0.818871 0.535731 -0.057733 0.0347011974 0.916331619 -0.398913765 0.395838 -0.020532
-0.845482 0.512089 -0.109885 0.010800648 0.895153706 -0.445626736 -0.026908 0.466559
-0.912256 0.527672 0.062829 -0.474716779 0.879131073 0.0421014881 0.534256 0.709559
-0.861952 0.550409 0.050787 -0.354301153 0.92480301 -0.138600451 0.150317 0.76837
-0.902462 0.53206 0.034501 -0.403713539 0.901830243 -0.154005165 0.336506 0.483737
-0.889762 0.537008 0.087752 -0.448777575 0.891455455 0.0624968771 0.491257 0.965403
-0.921619 0.516909 0.097501 -0.50007757 0.856061602 0.130694138 0.819521 0.943554
-0.94224 0.509726 0.065644 -0.505216821 0.862128705 0.0386012853 0.740853 0.599345
-0.940668 0.509487 0.017625 -0.44820474 0.876009264 -0.178101883 0.541148 0.2429
-0.88806 0.528001 0.004992 -0.320614388 0.886739793 -0.333014944 0.263333 0.369123
-0.86718 0.517649 -0.032633 -0.285417512 0.871753488 -0.398224434 0.148355 0.134475
-0.905947 0.51022 -0.021113 -0.337190692 0.87157594 -0.355890176 0.395838 -0.020532
-0.853469 0.537501 0.000996 -0.290109107 0.896028127 -0.336110551 -0.026908 0.466559
-0.906283 0.408513 -0.122458 -0.354812624 0.522618595 -0.775227583 0.534256 0.709559
-0.936092 0.437077 -0.083882 -0.32481522 0.696132618 -0.640229999 0.150317 0.76837
-0.895662 0.43305 -0.108217 -0.277992995 0.687582673 -0.670783096 0.336506 0.483737
-0.938224 0.398559 -0.112714 -0.387406313 0.518308446 -0.762412424 0.491257 0.965403
-0.917136 0.375062 -0.135453 -0.384706915 0.440007909 -0.811414585 0.819521 0.943554
-0.883025 0.391707 -0.142597 -0.327921371 0.511033305 -0.794551783 0.740853 0.599345
-0.853293 0.426799 -0.128707 -0.226188087 0.683863982 -0.693663466 0.541148 0.2429
-0.881163 0.453138 -0.086287 -0.193911587 0.81554873 -0.545232579 0.263333 0.369123
-0.860614 0.475468 -0.054069 -0.159806615 0.85613544 -0.491420343 0.148355 0.134475
-0.845344 0.458644 -0.088342 -0.162505647 0.820528514 -0.548019044 0.395838 -0.020532
-0.900543 0.465496 -0.058458 -0.211997209 0.826689117 -0.521193139 -0.026908 0.466559
-0.734908 0.487089 0.044187 0.162296704 0.986179971 -0.0332993237 0.534256 0.709559
-0.728207 0.479645 -0.01142 0.0340998143 0.976194685 -0.214198834 0.150317 0.76837
-0.757889 0.488192 0.024481 0.00189996764 0.985683214 -0.168597129 0.336506 0.483737
-0.703819 0.480054 0.030107 0.190797432 0.980186807 -0.0531992839 0.491257 0.965403
-0.707603 0.479821 0.068831 0.232895484 0.972081152 0.0285994455 0.819521 0.943554
-0.744153 0.488309 0.077982 0.147298576 0.989090435 -0.00179998259 0.740853 0.599345
-0.788708 0.492028 0.060392 -0.0379988038 0.990968805 -0.128595952 0.541148 0.2429
-0.783144 0.479872 0.004793 -0.149810649 0.945467206 -0.289220559 0.263333 0.369123
-0.816134 0.463584 -0.019807 -0.206407715 0.920234394 -0.332512428 0.148355 0.134475
-0.816507 0.477485 0.01889 -0.179004332 0.94422285 -0.276406689 0.395838 -0.020532
-0.776173 0.46923 -0.028984 -0.142897784 0.936785475 -0.319395048 -0.026908 0.466559
-0.783643 0.57287 -0.081513 0.299705231 0.927216185 -0.22460392 0.534256 0.709559
-0.795005 0.565791 -0.113787 0.108395089 0.935357625 -0.336684747 0.150317 0.76837
-0.801284 0.575912 -0.087031 0.100203235 0.953630784 -0.283809162 0.336506 0.483737
-0.770824 0.564152 -0.09648 0.315895197 0.914386097 -0.25319615 0.491257 0.965403
-0.762996 0.565696 -0.07378 0.386191585 0.901680353 -0.194495762 0.819521 0.943554
-0.779944 0.575849 -0.06036 0.299899229 0.934797598 -0.190299511 0.740853 0.599345
-0.808687 0.583337 -0.059608 0.0820004313 0.969205098 -0.232201221 0.541148 0.2429
-0.821173 0.573561 -0.091214 -0.092302392 0.940224366 -0.327808495 0.263333 0.369123
-0.84744 0.56725 -0.095608 -0.165197928 0.925288392 -0.341395717 0.148355 0.134475
-0.836241 0.576885 -0.074912 -0.11329808 0.945783974 -0.304394842 0.395838 -0.020532
-0.82712 0.565188 -0.111031 -0.100199212 0.9287927 -0.356797196 -0.026908 0.466559
-0.927558 0.552491 -0.073834 -0.662718314 0.718819865 -0.210005804 0.534256 0.709559
-0.903687 0.574488 -0.060907 -0.483811244 0.828219248 -0.282806573 0.150317 0.76837
-0.914044 0.56019 -0.084274 -0.506508968 0.798514138 -0.32530576 0.336506 0.483737
-0.927059 0.557826 -0.052962 -0.657593092 0.732092309 -0.177798132 0.491257 0.965403
-0.941811 0.540265 -0.060235 -0.724036532 0.672233918 -0.154507796 0.819521 0.943554
-0.939461 0.537375 -0.083826 -0.679077275 0.696576689 -0.23159225 0.740853 0.599345
-0.92229 0.543812 -0.107203 -0.519684069 0.769076424 -0.372088594 0.541148 0.2429
-0.896306 0.563729 -0.093838 -0.338700496 0.841301233 -0.421300617 0.263333 0.369123
-0.871494 0.56555 -0.105244 -0.270895733 0.848986629 -0.453692854 0.148355 0.134475
-0.892582 0.554232 -0.113832 -0.334283936 0.828060209 -0.450078372 0.395838 -0.020532
-0.880181 0.574683 -0.082968 -0.316293019 0.857681071 -0.405391053 -0.026908 0.466559
-0.847879 0.508568 -0.138034 -0.00899996922 0.582198009 -0.81299722 0.534256 0.709559
-0.880773 0.516072 -0.128949 -0.113798638 0.724991326 -0.679291872 0.150317 0.76837
-0.852331 0.522588 -0.126435 -0.0579987562 0.73398426 -0.676685489 0.336506 0.483737
-0.864608 0.496957 -0.145083 -0.0400018401 0.56802613 -0.822037815 0.491257 0.965403
-0.842261 0.489113 -0.149324 0.0132999121 0.504696664 -0.863194294 0.819521 0.943554
-0.826656 0.504615 -0.140018 0.0260984642 0.581465782 -0.813152147 0.740853 0.599345
-0.823845 0.527559 -0.121352 -0.00409999731 0.747099511 -0.664699565 0.541148 0.2429
-0.856695 0.533518 -0.109699 -0.101602936 0.847724495 -0.520615043 0.263333 0.369123
-0.862097 0.545251 -0.085569 -0.117302657 0.882519989 -0.455410315 0.148355 0.134475
-0.83988 0.54204 -0.097514 -0.0772986032 0.860184457 -0.504090891 0.395838 -0.020532
-0.877832 0.534382 -0.102579 -0.132306497 0.849141698 -0.511325109 -0.026908 0.466559
-0.830491 0.556394 0.003416 -0.00860032523 0.997537723 0.0696026321 0.534256 0.709559
-0.806748 0.555711 -0.027514 -0.0271999536 0.988098315 -0.151399742 0.150317 0.76837
-0.837446 0.556335 -0.016301 -0.0787036342 0.988645652 -0.128005911 0.336506 0.483737
-0.80657 0.555455 0.005725 0.0265007345 0.997427644 0.0666018459 0.491257 0.965403
-0.821963 0.552326 0.027506 0.023399947 0.987097764 0.158399641 0.819521 0.943554
-0.847589 0.554078 0.020379 -0.0374999469 0.995298592 0.0892998736 0.740853 0.599345
-0.868278 0.553646 -0.005533 -0.133406979 0.984551508 -0.113405933 0.541148 0.2429
-0.844669 0.549651 -0.036907 -0.142004776 0.940331629 -0.3092104 0.263333 0.369123
-0.853865 0.537155 -0.063221 -0.164807969 0.912044103 -0.375518159 0.148355 0.134475
-0.868857 0.543964 -0.040106 -0.173096605 0.933881682 -0.312893863 0.395838 -0.020532
-0.827837 0.545341 -0.05476 -0.119903155 0.935624621 -0.332008737 -0.026908 0.466559
-0.84244 0.606598 -0.125394 0.325508279 0.927223584 -0.185204711 0.534256 0.709559
-0.847769 0.601379 -0.15005 0.14969705 0.935381568 -0.320393687 0.150317 0.76837
-0.854834 0.608841 -0.13106 0.13500412 0.953629105 -0.26900821 0.336506 0.483737
-0.831681 0.600171 -0.135156 0.345100702 0.914401861 -0.211600431 0.491257 0.965403
-0.828054 0.60131 -0.11783 0.407494234 0.901687241 -0.144597954 0.819521 0.943554
-0.84169 0.608795 -0.10958 0.321393461 0.934780982 -0.151296922 0.740853 0.599345
-0.862783 0.614315 -0.111686 0.11049984 0.969198595 -0.220099681 0.541148 0.2429
-0.868995 0.607108 -0.135958 -0.0505009966 0.940218555 -0.336806647 0.263333 0.369123
-0.887801 0.602456 -0.141599 -0.121099173 0.92529368 -0.359397545 0.148355 0.134475
-0.881522 0.609559 -0.125426 -0.0742984929 0.945780815 -0.316193586 0.395838 -0.020532
-0.871513 0.600935 -0.151002 -0.0547004436 0.928807533 -0.366502972 -0.026908 0.466559
-0.926729 0.590963 -0.118328 -0.662718314 0.718819865 -0.210005804 0.534256 0.709559
-0.90913 0.607181 -0.108798 -0.483811244 0.828219248 -0.282806573 0.150317 0.76837
-0.916766 0.59664 -0.126025 -0.506508968 0.798514138 -0.32530576 0.336506 0.483737
-0.92636 0.594897 -0.102941 -0.657593092 0.732092309 -0.177798132 0.491257 0.965403
-0.937236 0.58195 -0.108302 -0.724036532 0.672233918 -0.154507796 0.819521 0.943554
-0.935503 0.579819 -0.125695 -0.679077275 0.696576689 -0.23159225 0.740853 0.599345
-0.922845 0.584565 -0.14293 -0.519684069 0.769076424 -0.372088594 0.541148 0.2429
-0.903688 0.599249 -0.133076 -0.338700496 0.841301233 -0.421300617 0.263333 0.369123
-0.885396 0.600592 -0.141485 -0.270895733 0.848986629 -0.453692854 0.148355 0.134475
-0.900943 0.592247 -0.147817 -0.334283936 0.828060209 -0.450078372 0.395838 -0.020532
-0.8918 0.607325 -0.125062 -0.316293019 0.857681071 -0.405391053 -0.026908 0.466559
-0.874244 0.571766 -0.174649 -0.00899996922 0.582198009 -0.81299722 0.534256 0.709559
-0.898494 0.577298 -0.167951 -0.113798638 0.724991326 -0.679291872 0.150317 0.76837
-0.877526 0.582102 -0.166097 -0.0579987562 0.73398426 -0.676685489 0.336506 0.483737
-0.886577 0.563206 -0.179846 -0.0400018401 0.56802613 -0.822037815 0.491257 0.965403
-0.870101 0.557423 -0.182973 0.0132999121 0.504696664 -0.863194294 0.819521 0.943554
-0.858597 0.568852 -0.176112 0.0260984642 0.581465782 -0.813152147 0.740853 0.599345
-0.856525 0.585767 -0.16235 -0.00409999731 0.747099511 -0.664699565 0.541148 0.2429
-0.880743 0.590161 -0.153759 -0.101602936 0.847724495 -0.520615043 0.263333 0.369123
-0.884725 0.59881 -0.135969 -0.117302657 0.882519989 -0.455410315 0.148355 0.134475
-0.868346 0.596443 -0.144776 -0.0772986032 0.860184457 -0.504090891 0.395838 -0.020532
-0.896326 0.590797 -0.14851 -0.132306497 0.849141698 -0.511325109 -0.026908 0.466559
-0.85684 0.598807 -0.052697 -0.160395387 0.980971788 0.109396854 0.534256 0.709559
-0.833248 0.602733 -0.078169 -0.156995393 0.981171208 -0.112496699 0.150317 0.76837
-0.861346 0.598847 -0.07088 -0.21000881 0.973140824 -0.0943039561 0.336506 0.483737
-0.835797 0.60089 -0.048553 -0.1255969 0.985975661 0.109897287 0.491257 0.965403
-0.850768 0.595096 -0.030631 -0.135497115 0.970279338 0.20049573 0.819521 0.943554
-0.873026 0.593755 -0.039187 -0.190395209 0.9735755 0.126096827 0.740853 0.599345
-0.889093 0.592031 -0.06412 -0.26468523 0.960546398 -0.0853952347 0.541148 0.2429
-0.865149 0.593029 -0.090123 -0.248600651 0.926402427 -0.282800741 0.263333 0.369123
-0.869461 0.582096 -0.11484 -0.260798401 0.89889449 -0.352097842 0.148355 0.134475
-0.885489 0.585088 -0.095327 -0.277988478 0.915862038 -0.289687993 0.395838 -0.020532
-0.848259 0.592223 -0.104693 -0.224086689 0.926144984 -0.303381978 -0.026908 0.466559
-0.634352 0.303961 0.207545 0.417079109 0.567571571 0.709864444 0.534256 0.709559
-0.565254 0.314451 0.148524 0.468511964 0.69981787 0.539213769 0.150317 0.76837
-0.633135 0.339564 0.173836 0.418225421 0.71484345 0.560434064 0.336506 0.483737
-0.590274 0.268764 0.206545 0.447294324 0.549993021 0.70529105 0.491257 0.965403
-0.640129 0.254553 0.24233 0.410598378 0.492298055 0.767496968 0.819521 0.943554
-0.683052 0.299632 0.236374 0.385591955 0.570588095 0.725084871 0.740853 0.599345
-0.704421 0.360753 0.193268 0.366004017 0.733908055 0.57220628 0.541148 0.2429
-0.638729 0.36732 0.128366 0.402115148 0.825131083 0.396814948 0.263333 0.369123
-0.649976 0.397112 0.064176 0.391823767 0.858852095 0.329920012 0.148355 0.134475
-0.689617 0.394671 0.117604 0.374479775 0.840354614 0.391878835 0.395838 -0.020532
-0.596839 0.363803 0.087775 0.425804552 0.823308801 0.375304012 -0.026908 0.466559
-0.818257 0.435719 -0.058634 -0.093898131 0.941181266 -0.324593539 0.534256 0.709559
-0.812959 0.459125 0.029639 0.0647025607 0.982438881 -0.175006926 0.150317 0.76837
-0.77575 0.44443 -0.035774 0.0884034633 0.970338014 -0.225008815 0.336506 0.483737
-0.864092 0.439948 -0.026015 -0.118494442 0.946555603 -0.299985929 0.491257 0.965403
-0.869708 0.41575 -0.083902 -0.175489841 0.914247076 -0.36517886 0.819521 0.943554
-0.813583 0.415514 -0.111468 -0.084804918 0.930353953 -0.356720687 0.740853 0.599345
-0.737195 0.422473 -0.09854 0.120495369 0.955463282 -0.269389648 0.541148 0.2429
-0.730551 0.438616 -0.007622 0.257109927 0.958637014 -0.122104715 0.263333 0.369123
-0.67237 0.422268 0.030876 0.319105679 0.944216802 -0.0814014486 0.148355 0.134475
-0.682024 0.419859 -0.034949 0.283390413 0.949067894 -0.137695342 0.395838 -0.020532
-0.732533 0.444294 0.050503 0.255495772 0.962584069 -0.0902985056 -0.026908 0.466559
-0.545947 0.283324 -0.016928 0.887022974 0.446811573 -0.116403015 0.534256 0.709559
-0.59269 0.348869 -0.060365 0.77386409 0.630170758 -0.0633970581 0.150317 0.76837
-0.565886 0.321732 0.00615 0.794822712 0.606617334 -0.0165004715 0.336506 0.483737
-0.555028 0.281698 -0.072584 0.879299006 0.451899489 -0.15039983 0.491257 0.965403
-0.529884 0.231466 -0.044079 0.91608488 0.367593933 -0.160197356 0.819521 0.943554
-0.524015 0.243463 0.017007 0.899914894 0.426507059 -0.0908015028 0.740853 0.599345
-0.546171 0.291516 0.074022 0.80813545 0.58792579 0.0355015573 0.541148 0.2429
-0.600003 0.353983 0.03194 0.675830102 0.732832641 0.07880351 0.263333 0.369123
-0.651511 0.390449 0.065874 0.623168786 0.773661248 0.114494265 0.148355 0.134475
-0.6051 0.349452 0.090309 0.674002521 0.730402732 0.110600414 0.395838 -0.020532
-0.636113 0.387687 0.000718 0.656792772 0.751591729 0.0610993276 -0.026908 0.466559
-0.87887 0.353127 0.256945 -0.152000635 0.805903365 0.572202389 0.534256 0.709559
-0.790448 0.345279 0.279037 0.0438996591 0.870393241 0.490396192 0.150317 0.76837
-0.84288 0.374232 0.231164 0.00230002523 0.889409757 0.457105014 0.336506 0.483737
-0.861661 0.322281 0.300935 -0.1354924 0.789455717 0.598666419 0.491257 0.965403
-0.921989 0.319311 0.283053 -0.219897786 0.756192385 0.616293794 0.819521 0.943554
-0.930574 0.35692 0.233842 -0.181193821 0.812572292 0.55398111 0.740853 0.599345
-0.893818 0.397237 0.178397 -0.0321987407 0.908664463 0.416283719 0.541148 0.2429
-0.803902 0.383441 0.195594 0.147605642 0.932435638 0.329812606 0.263333 0.369123
-0.753312 0.387516 0.145014 0.201888911 0.939248408 0.277584753 0.148355 0.134475
-0.818123 0.40239 0.141815 0.139303562 0.943424124 0.300907694 0.395838 -0.020532
-0.749209 0.367752 0.208909 0.17750924 0.924248113 0.338017596 -0.026908 0.466559
-0.659295 0.485257 0.17068 0.0857998983 0.745199117 0.661299216 0.534256 0.709559
-0.60369 0.481006 0.161598 0.234902374 0.82330832 0.516705221 0.150317 0.76837
-0.644931 0.500414 0.148735 0.183712774 0.843858676 0.504135054 0.336506 0.483737
-0.639039 0.464181 0.189648 0.111296747 0.726978754 0.677580198 0.491257 0.965403
-0.677675 0.462121 0.193758 0.0400992682 0.689487417 0.723186802 0.819521 0.943554
-0.694255 0.487823 0.170174 0.0518980949 0.752472377 0.656575898 0.740853 0.599345
-0.686513 0.516469 0.132387 0.13619718 0.865582078 0.481890023 0.541148 0.2429
-0.631248 0.508867 0.119821 0.268416958 0.903057052 0.335321185 0.263333 0.369123
-0.61457 0.515243 0.079324 0.298191858 0.916374979 0.267092707 0.148355 0.134475
-0.652185 0.523238 0.093885 0.249607805 0.916328654 0.313109791 0.395838 -0.020532
-0.596969 0.499596 0.11336 0.299206747 0.895120185 0.330507453 -0.026908 0.466559
-0.634769 0.520608 -0.046453 0.315102745 0.879107657 -0.357603115 0.534256 0.709559
-0.662938 0.543345 -0.003071 0.352389118 0.924771444 -0.143595566 0.150317 0.76837
-0.622354 0.524995 -0.019171 0.398721155 0.901847849 -0.166408829 0.336506 0.483737
-0.668242 0.529943 -0.049025 0.28229084 0.891471072 -0.3543885 0.491257 0.965403
-0.651865 0.509844 -0.078036 0.272491812 0.856074275 -0.439186803 0.819521 0.943554
-0.614972 0.502662 -0.069148 0.339701953 0.862104957 -0.376002162 0.740853 0.599345
-0.583033 0.502423 -0.033256 0.447604942 0.876009671 -0.179601983 0.541148 0.2429
-0.612466 0.520937 0.012141 0.461819309 0.886737075 0.0205008572 0.263333 0.369123
-0.601683 0.510585 0.053799 0.481224846 0.871745009 0.0921047555 0.148355 0.134475
-0.581518 0.503155 0.018742 0.489510451 0.871618609 0.0257005487 0.395838 -0.020532
-0.634788 0.530437 0.038866 0.441817302 0.896035089 0.0438017153 -0.026908 0.466559
-0.530203 0.426051 0.058989 0.824242528 0.522626966 0.217911243 0.534256 0.709559
-0.541089 0.454615 0.011469 0.700912203 0.696112119 0.155402706 0.150317 0.76837
-0.547948 0.450588 0.058156 0.694793188 0.687593258 0.210897932 0.336506 0.483737
-0.517457 0.416096 0.028123 0.835026283 0.518316314 0.184605811 0.491257 0.965403
-0.513272 0.392599 0.058851 0.871188553 0.439994219 0.217797138 0.819521 0.943554
-0.529404 0.409244 0.089745 0.822112163 0.51100756 0.251003714 0.740853 0.599345
-0.559009 0.444337 0.103902 0.679523882 0.683924037 0.265509331 0.541148 0.2429
-0.574097 0.470676 0.05544 0.544425575 0.815538311 0.196209217 0.263333 0.369123
-0.612036 0.493005 0.050868 0.481201708 0.856103039 0.188500669 0.148355 0.134475
-0.595246 0.476182 0.084422 0.526614456 0.820522524 0.222306102 0.395838 -0.020532
-0.583299 0.483034 0.0228 0.537296459 0.826694552 0.166998899 -0.026908 0.466559
-0.760158 0.487089 0.0597 -0.0946987055 0.986186519 0.135898142 0.534256 0.709559
-0.72671 0.479645 0.104625 0.12280123 0.976209777 0.17870179 0.150317 0.76837
-0.729925 0.488192 0.058154 0.114699264 0.985693677 0.123499208 0.336506 0.483737
-0.772996 0.480054 0.091322 -0.101599258 0.980192845 0.169998759 0.491257 0.965403
-0.796927 0.479821 0.060645 -0.188593922 0.972068671 0.139695498 0.819521 0.943554
-0.776736 0.488309 0.028834 -0.105500193 0.989101805 0.102700187 0.740853 0.599345
-0.732322 0.492028 0.010893 0.116097143 0.990975617 0.0669983515 0.541148 0.2429
-0.698055 0.479872 0.055029 0.307820894 0.945464176 0.106507229 0.263333 0.369123
-0.657195 0.463584 0.050135 0.378707018 0.920217052 0.0989018327 0.148355 0.134475
-0.683581 0.477485 0.021827 0.320204694 0.944213842 0.0770011288 0.395838 -0.020532
-0.679841 0.46923 0.084315 0.323599968 0.936799906 0.132999987 -0.026908 0.466559
-0.638241 0.57287 0.117248 -0.0625999659 0.927199495 0.369299799 0.534256 0.709559
-0.607772 0.565791 0.132816 0.153296647 0.935379544 0.31869303 0.150317 0.76837
-0.621652 0.575912 0.109096 0.122806577 0.953651074 0.274714713 0.336506 0.483737
-0.637223 0.564152 0.136928 -0.0546002804 0.914404695 0.40110206 0.491257 0.965403
-0.658534 0.565696 0.125865 -0.145900095 0.901700586 0.407000265 0.819521 0.943554
-0.655493 0.575849 0.104462 -0.0862979336 0.934777617 0.344591749 0.740853 0.599345
-0.635176 0.583337 0.084117 0.100498548 0.969185995 0.22489675 0.541148 0.2429
-0.604352 0.573561 0.098426 0.29280236 0.940207578 0.174001402 0.263333 0.369123
-0.582285 0.56725 0.083517 0.354898263 0.925295471 0.133699346 0.148355 0.134475
-0.604661 0.576885 0.07623 0.291888615 0.945763111 0.142594438 0.395838 -0.020532
-0.586391 0.565188 0.108696 0.318400611 0.928801783 0.189600364 -0.026908 0.466559
-0.544389 0.549 0.009516 0.625051231 0.71885892 -0.304224935 0.534256 0.709559
-0.570598 0.570998 0.01659 0.545584863 0.828177023 -0.12829644 0.150317 0.76837
-0.546993 0.5567 0.026394 0.591226221 0.798535416 -0.113105016 0.336506 0.483737
-0.559129 0.554335 -0.005269 0.599120361 0.732124882 -0.324111015 0.491257 0.965403
-0.543425 0.536774 -0.010159 0.631297863 0.672197725 -0.386798691 0.819521 0.943554
-0.528878 0.533884 0.008561 0.651769107 0.696566984 -0.299985781 0.740853 0.599345
-0.525221 0.540322 0.037335 0.632999778 0.769099731 -0.0882999691 0.541148 0.2429
-0.553263 0.560238 0.045546 0.535786249 0.841278409 0.0719981522 0.263333 0.369123
-0.563392 0.56206 0.070906 0.508892494 0.848987478 0.142297901 0.148355 0.134475
-0.542189 0.550742 0.062605 0.552374542 0.828061835 0.0958955802 0.395838 -0.020532
-0.572441 0.571193 0.048775 0.508500625 0.857701055 0.0760000935 -0.026908 0.466559
-0.548469 0.512842 0.114071 0.566532662 0.582233567 0.583133619 0.534256 0.709559
-0.530883 0.520346 0.084826 0.550410689 0.72501408 0.41400804 0.150317 0.76837
-0.553233 0.526862 0.102596 0.508206736 0.734009729 0.450505971 0.336506 0.483737
-0.531487 0.501231 0.107657 0.595244071 0.568042057 0.568342079 0.491257 0.965403
-0.544765 0.493386 0.126126 0.584921025 0.504718142 0.634922823 0.819521 0.943554
-0.562487 0.508889 0.130129 0.541277619 0.581475956 0.607374886 0.740853 0.599345
-0.577383 0.531833 0.118534 0.460814735 0.74712389 0.479015317 0.541148 0.2429
-0.561598 0.537792 0.087458 0.432305763 0.8477113 0.307404098 0.263333 0.369123
-0.574304 0.549524 0.066245 0.398716262 0.882535995 0.249310168 0.148355 0.134475
-0.58218 0.546314 0.090209 0.403203403 0.86020726 0.312202635 0.395838 -0.020532
-0.55118 0.538656 0.067737 0.448125842 0.849148968 0.279516119 -0.026908 0.466559
-0.662785 0.556394 0.023412 -0.0417015409 0.99753686 -0.0564020841 0.534256 0.709559
-0.65869 0.555711 0.062187 0.124000086 0.988100687 0.0910000632 0.150317 0.76837
-0.644161 0.556335 0.032913 0.145207046 0.98864797 0.038601873 0.336506 0.483737
-0.681716 0.555455 0.038216 -0.0651017978 0.997427544 -0.0300008285 0.491257 0.965403
-0.685562 0.552326 0.011823 -0.126099413 0.987095405 -0.0986995406 0.819521 0.943554
-0.662076 0.554078 -0.000663 -0.034299881 0.995296546 -0.0905996856 0.740853 0.599345
-0.629229 0.553646 0.003869 0.174809669 0.984554457 -0.00970053655 0.541148 0.2429
-0.62473 0.549651 0.042875 0.316004459 0.940313268 0.126301782 0.263333 0.369123
-0.599938 0.537155 0.055615 0.37812093 0.912050483 0.158708785 0.148355 0.134475
-0.604993 0.543964 0.028531 0.340998899 0.933896983 0.107499653 0.395838 -0.020532
-0.624634 0.545341 0.06741 0.315608469 0.935625108 0.158104243 -0.026908 0.466559
-0.577515 0.606425 0.122535 -0.0625999659 0.927199495 0.369299799 0.534256 0.709559
-0.547046 0.599345 0.138102 0.153296647 0.935379544 0.31869303 0.150317 0.76837
-0.560926 0.609467 0.114382 0.122806577 0.953651074 0.274714713 0.336506 0.483737
-0.576498 0.597706 0.142214 -0.0546002804 0.914404695 0.40110206 0.491257 0.965403
-0.597809 0.599251 0.131152 -0.145900095 0.901700586 0.407000265 0.819521 0.943554
-0.594768 0.609404 0.109749 -0.0862979336 0.934777617 0.344591749 0.740853 0.599345
-0.574451 0.616892 0.089404 0.100498548 0.969185995 0.22489675 0.541148 0.2429
-0.543627 0.607116 0.103713 0.29280236 0.940207578 0.174001402 0.263333 0.369123
-0.52156 0.600805 0.088804 0.354898263 0.925295471 0.133699346 0.148355 0.134475
-0.543935 0.61044 0.081516 0.291888615 0.945763111 0.142594438 0.395838 -0.020532
-0.525665 0.598743 0.113982 0.318400611 0.928801783 0.189600364 -0.026908 0.466559
-0.495966 0.591684 0.032732 0.625051231 0.71885892 -0.304224935 0.534256 0.709559
-0.522176 0.613682 0.039805 0.545584863 0.828177023 -0.12829644 0.150317 0.76837
-0.498571 0.599384 0.04961 0.591226221 0.798535416 -0.113105016 0.336506 0.483737
-0.510707 0.59702 0.017947 0.599120361 0.732124882 -0.324111015 0.491257 0.965403
-0.495003 0.579458 0.013056 0.631297863 0.672197725 -0.386798691 0.819521 0.943554
-0.480455 0.576569 0.031777 0.651769107 0.696566984 -0.299985781 0.740853 0.599345
-0.476799 0.583006 0.060551 0.632999778 0.769099731 -0.0882999691 0.541148 0.2429
-0.504841 0.602923 0.068761 0.535786249 0.841278409 0.0719981522 0.263333 0.369123
-0.51497 0.604744 0.094122 0.508892494 0.848987478 0.142297901 0.148355 0.134475
-0.493767 0.593426 0.085821 0.552374542 0.828061835 0.0958955802 0.395838 -0.020532
-0.524018 0.613877 0.07199 0.508500625 0.857701055 0.0760000935 -0.026908 0.466559
-0.504044 0.558415 0.133106 0.566532662 0.582233567 0.583133619 0.534256 0.709559
-0.486458 0.565919 0.103861 0.550410689 0.72501408 0.41400804 0.150317 0.76837
-0.508807 0.572435 0.121631 0.508206736 0.734009729 0.450505971 0.336506 0.483737
-0.487062 0.546804 0.126692 0.595244071 0.568042057 0.568342079 0.491257 0.965403
-0.500339 0.53896 0.145161 0.584921025 0.504718142 0.634922823 0.819521 0.943554
-0.518062 0.554462 0.149164 0.541277619 0.581475956 0.607374886 0.740853 0.599345
-0.532958 0.577406 0.13757 0.460814735 0.74712389 0.479015317 0.541148 0.2429
-0.517172 0.583365 0.106493 0.432305763 0.8477113 0.307404098 0.263333 0.369123
-0.529879 0.595098 0.08528 0.398716262 0.882535995 0.249310168 0.148355 0.134475
-0.537755 0.591887 0.109244 0.403203403 0.86020726 0.312202635 0.395838 -0.020532
-0.506755 0.584229 0.086772 0.448125842 0.849148968 0.279516119 -0.026908 0.466559
-0.605031 0.598807 0.045936 0.040898817 0.980971626 -0.18979451 0.534256 0.709559
-0.604586 0.602733 0.080652 0.191294068 0.981169574 -0.0266991721 0.150317 0.76837
-0.589239 0.598847 0.056012 0.217208565 0.973138372 -0.0763030087 0.336506 0.483737
-0.62314 0.60089 0.057428 0.0152995982 0.985974104 -0.166195635 0.491257 0.965403
-0.624633 0.595096 0.034123 -0.0398989668 0.970274875 -0.238693819 0.819521 0.943554
-0.602604 0.593755 0.024993 0.0510984944 0.973571314 -0.222593441 0.740853 0.599345
-0.573782 0.592031 0.032 0.25068759 0.960552449 -0.12039404 0.541148 0.2429
-0.573227 0.593029 0.067343 0.375004191 0.926410353 0.0337003766 0.263333 0.369123
-0.553074 0.582096 0.082289 0.431599996 0.898899991 0.0754999992 0.148355 0.134475
-0.554898 0.585088 0.057104 0.401080694 0.915855916 0.0184991096 0.395838 -0.020532
-0.575433 0.592223 0.089539 0.371383704 0.926159361 0.0655971217 -0.026908 0.466559
-0.629924 0.398555 0.250677 0.156804634 0.757922401 0.633218715 0.534256 0.709559
-0.571407 0.443759 0.168481 0.118498586 0.883089465 0.453994584 0.150317 0.76837
-0.65405 0.433191 0.20906 0.0699005711 0.873707138 0.481403933 0.336506 0.483737
-0.563096 0.38716 0.243371 0.191098523 0.75679415 0.625095168 0.491257 0.965403
-0.602242 0.346836 0.294734 0.194198531 0.694294748 0.692994758 0.819521 0.943554
-0.674606 0.368576 0.293228 0.129699433 0.746696737 0.652397149 0.740853 0.599345
-0.738673 0.415883 0.243267 0.0165999591 0.866097865 0.499598768 0.541148 0.2429
-0.682135 0.454348 0.1547 -0.0154004455 0.947727418 0.31870922 0.263333 0.369123
-0.719715 0.472369 0.078784 -0.0478978516 0.96625666 0.253088648 0.148355 0.134475
-0.752922 0.452264 0.149262 -0.0472990311 0.947180597 0.317193502 0.395838 -0.020532
-0.641411 0.470848 0.099405 0.00370002096 0.955705414 0.294301667 -0.026908 0.466559
-0.953879 0.387641 -0.053941 -0.571193374 0.745991347 -0.342396028 0.534256 0.709559
-0.95287 0.424681 0.050226 -0.440789604 0.871679442 -0.214194948 0.150317 0.76837
-0.912073 0.424063 -0.032981 -0.418686646 0.868272307 -0.266091513 0.336506 0.483737
-1.000981 0.368744 -0.008404 -0.592975973 0.740969977 -0.315187229 0.491257 0.965403
-0.998644 0.333887 -0.07605 -0.632286264 0.679585236 -0.371991919 0.819521 0.943554
-0.94259 0.363534 -0.117165 -0.56078293 0.73817753 -0.374988586 0.740853 0.599345
-0.865283 0.416866 -0.112916 -0.387411752 0.866926299 -0.313609513 0.541148 0.2429
-0.85828 0.447325 -0.005475 -0.257607031 0.948625893 -0.183705014 0.263333 0.369123
-0.783546 0.468177 0.032998 -0.193198992 0.969594939 -0.150199216 0.148355 0.134475
-0.799191 0.453061 -0.044467 -0.231601723 0.95160708 -0.202001503 0.395838 -0.020532
-0.857582 0.458271 0.064295 -0.258210632 0.954039283 -0.152106263 -0.026908 0.466559
-0.533428 0.357772 -0.101622 0.585475355 0.778467231 -0.226290475 0.534256 0.709559
-0.627731 0.414413 -0.1127 0.444988172 0.890376334 -0.0959974484 0.150317 0.76837
-0.559829 0.385748 -0.056522 0.487893006 0.870487522 -0.0648990697 0.336506 0.483737
-0.56644 0.361717 -0.161153 0.564814725 0.785120468 -0.254106625 0.491257 0.965403
-0.507511 0.313976 -0.154466 0.621277693 0.725373956 -0.296389358 0.819521 0.943554
-0.479683 0.31879 -0.084366 0.61253132 0.761538938 -0.21181083 0.740853 0.599345
-0.497595 0.350023 0.002481 0.524274424 0.851158477 -0.0257987414 0.541148 0.2429
-0.597564 0.399604 -0.005773 0.376298845 0.922097169 0.0901997231 0.263333 0.369123
-0.651817 0.408099 0.061195 0.329606446 0.932318232 0.14880291 0.148355 0.134475
-0.575887 0.381539 0.059408 0.387005834 0.914313783 0.1194018 0.395838 -0.020532
-0.662644 0.424465 -0.017379 0.347198207 0.933995176 0.0842995646 -0.026908 0.466559
-0.792394 0.556862 0.196258 -0.233002134 0.748206854 0.62120569 0.534256 0.709559
-0.732554 0.583928 0.177548 -0.154707281 0.875741218 0.457321524 0.150317 0.76837
-0.788638 0.578899 0.167262 -0.210196745 0.867786562 0.450293027 0.336506 0.483737
-0.756673 0.548514 0.216948 -0.200695614 0.746083695 0.634886125 0.491257 0.965403
-0.795514 0.524198 0.22751 -0.239993879 0.682982581 0.689882405 0.819521 0.943554
-0.830611 0.539079 0.20057 -0.266500582 0.737701612 0.620301355 0.740853 0.599345
-0.843461 0.569775 0.152981 -0.264096876 0.861789805 0.433094877 0.541148 0.2429
-0.782358 0.592746 0.130277 -0.180595105 0.945574371 0.270692663 0.263333 0.369123
-0.772933 0.604937 0.079052 -0.167302204 0.965612722 0.199002622 0.148355 0.134475
-0.815557 0.592905 0.101598 -0.205395418 0.946078893 0.250494412 0.395838 -0.020532
-0.741619 0.60234 0.117976 -0.150503303 0.953120916 0.262505761 -0.026908 0.466559
-0.815077 0.590558 -0.067671 -0.188897981 0.886890519 -0.421595493 0.534256 0.709559
-0.853492 0.602602 -0.012509 -0.160300235 0.963301411 -0.215300315 0.150317 0.76837
-0.801783 0.605308 -0.03691 -0.110805672 0.963749336 -0.242712425 0.336506 0.483737
-0.855965 0.580551 -0.066322 -0.223203656 0.882014448 -0.415006798 0.491257 0.965403
-0.829956 0.565907 -0.102661 -0.221713067 0.839049451 -0.496829281 0.819521 0.943554
-0.786092 0.580844 -0.097011 -0.160902302 0.882312622 -0.442306327 0.740853 0.599345
-0.748683 0.603042 -0.058542 -0.0570019615 0.963733163 -0.260708971 0.541148 0.2429
-0.785707 0.610115 -0.000612 -0.0323006644 0.997420517 -0.0641013186 0.263333 0.369123
-0.763871 0.609911 0.04822 -0.00199996999 0.999984995 0.00509992348 0.148355 0.134475
-0.742036 0.61018 0.003576 -0.000499994225 0.998088472 -0.0617992862 0.395838 -0.020532
-0.811909 0.609887 0.034265 -0.0522986165 0.997873602 -0.0388989709 -0.026908 0.466559
-0.640493 0.5549 0.058074 0.457732177 0.86546084 0.203614314 0.534256 0.709559
-0.667743 0.576954 -0.000531 0.266397421 0.954390762 0.134798695 0.150317 0.76837
-0.6737 0.570179 0.055995 0.264211737 0.945441997 0.190608467 0.336506 0.483737
-0.620432 0.550966 0.021253 0.469898715 0.866097631 0.170499534 0.491257 0.965403
-0.602839 0.529721 0.059339 0.539115281 0.816523145 0.206505853 0.819521 0.943554
-0.630431 0.53869 0.095908 0.460908101 0.855215031 0.237004165 0.740853 0.599345
-0.682742 0.558541 0.111452 0.251606908 0.936225704 0.245306735 0.541148 0.2429
-0.713076 0.575731 0.051778 0.0707021642 0.982730082 0.171005235 0.263333 0.369123
-0.766152 0.576591 0.045172 -0.00410012723 0.986830622 0.161705018 0.148355 0.134475
-0.739306 0.569937 0.086463 0.0522027125 0.979050873 0.196810227 0.395838 -0.020532
-0.729307 0.582213 0.011808 0.0596025028 0.988141493 0.141505942 -0.026908 0.466559
-0.910921 0.488145 0.077567 -0.553687382 0.824981199 0.113297418 0.534256 0.709559
-0.866707 0.504592 0.126945 -0.356405695 0.925214785 0.130202081 0.150317 0.76837
-0.880049 0.506812 0.071325 -0.372915717 0.924738974 0.0761032074 0.336506 0.483737
-0.916868 0.47657 0.117623 -0.553787703 0.819381806 0.148096712 0.491257 0.965403
-0.945054 0.459104 0.084277 -0.627837496 0.767645845 0.128607681 0.819521 0.943554
-0.93228 0.476487 0.04288 -0.567399611 0.819399439 0.0814999442 0.740853 0.599345
-0.889826 0.504467 0.01483 -0.379202501 0.925106101 0.0196001293 0.541148 0.2429
-0.842046 0.516351 0.063333 -0.187201062 0.981605571 0.0375002128 0.263333 0.369123
-0.790085 0.522569 0.052251 -0.114101894 0.993216483 0.0224003717 0.148355 0.134475
-0.828968 0.518796 0.021529 -0.178502761 0.983915216 0.00690010671 0.395838 -0.020532
-0.813556 0.51888 0.096272 -0.166997805 0.983987066 0.0622991811 -0.026908 0.466559
-0.827881 0.655762 0.125613 -0.476518368 0.809531204 0.342913218 0.534256 0.709559
-0.790106 0.667758 0.140193 -0.297705494 0.916616916 0.266804924 0.150317 0.76837
-0.813157 0.667801 0.11333 -0.336920004 0.913954263 0.226213431 0.336506 0.483737
-0.81957 0.649254 0.149422 -0.460508922 0.805015598 0.374007246 0.491257 0.965403
-0.84399 0.637259 0.139154 -0.533000453 0.750300638 0.391100332 0.819521 0.943554
-0.849079 0.647468 0.112637 -0.502985854 0.802477431 0.320990972 0.740853 0.599345
-0.83437 0.665079 0.085014 -0.368317381 0.912343055 0.178808438 0.541148 0.2429
-0.794759 0.674311 0.098143 -0.191807207 0.97563666 0.106504002 0.263333 0.369123
-0.769465 0.678994 0.077345 -0.13409654 0.989174475 0.0595984621 0.148355 0.134475
-0.799396 0.675291 0.07143 -0.198098619 0.977293188 0.0751994759 0.395838 -0.020532
-0.769887 0.677077 0.108216 -0.162592562 0.979455191 0.119294542 -0.026908 0.466559
-0.724065 0.673724 -0.030802 0.163099601 0.901797795 -0.400199022 0.534256 0.709559
-0.763822 0.682308 -0.01944 0.0559022904 0.973939903 -0.219809006 0.150317 0.76837
-0.729574 0.682087 -0.010496 0.111400732 0.971506388 -0.209201376 0.336506 0.483737
-0.744237 0.669167 -0.046633 0.132298453 0.899089485 -0.41729512 0.491257 0.965403
-0.717889 0.659343 -0.054047 0.184100782 0.857003642 -0.481302046 0.819521 0.943554
-0.698952 0.666777 -0.033567 0.197595375 0.895679037 -0.398390676 0.740853 0.599345
-0.695894 0.678723 0.000159 0.164207789 0.96824593 -0.188508942 0.541148 0.2429
-0.736219 0.684165 0.013232 0.05849889 0.998081062 -0.0202996148 0.263333 0.369123
-0.745236 0.682837 0.045031 0.0376006781 0.997917998 0.0524009451 0.148355 0.134475
-0.717183 0.682439 0.032485 0.0814976875 0.99667172 0.00189994609 0.395838 -0.020532
-0.762468 0.684829 0.019418 0.0271010522 0.999538808 -0.0137005319 -0.026908 0.466559
-0.68415 0.640213 0.125446 0.256803921 0.831912704 0.491907511 0.534256 0.709559
-0.673253 0.655307 0.087541 0.158103104 0.933718329 0.321206305 0.150317 0.76837
-0.698662 0.650978 0.111802 0.120201961 0.92431508 0.362205909 0.336506 0.483737
-0.660149 0.637239 0.115782 0.287407234 0.832120945 0.474311939 0.491257 0.965403
-0.667468 0.623169 0.140157 0.315300533 0.777801314 0.543700919 0.819521 0.943554
-0.694805 0.629552 0.146879 0.237408907 0.821130805 0.519019471 0.740853 0.599345
-0.725237 0.643777 0.134188 0.0752026889 0.915332728 0.395614145 0.541148 0.2429
-0.715505 0.655999 0.094407 -0.0137998884 0.974192124 0.225298178 0.263333 0.369123
-0.738015 0.658687 0.070317 -0.0651003092 0.98320467 0.17050081 0.148355 0.134475
-0.741837 0.653231 0.10032 -0.0447010804 0.97142348 0.233105634 0.395838 -0.020532
-0.707181 0.660918 0.069222 -0.00320012122 0.980637147 0.195807417 -0.026908 0.466559
-0.853757 0.614182 0.017259 -0.530043418 0.843769116 -0.0843069059 0.534256 0.709559
-0.844964 0.619945 0.063205 -0.368897377 0.928493398 0.0425996971 0.150317 0.76837
-0.833197 0.626007 0.025981 -0.355325007 0.934665779 -0.0120008446 0.336506 0.483737
-0.871479 0.603691 0.037773 -0.548022127 0.834633699 -0.0553022329 0.491257 0.965403
-0.876444 0.595368 0.006797 -0.60186014 0.79014767 -0.115892325 0.819521 0.943554
-0.854184 0.609622 -0.011625 -0.525585778 0.842377206 -0.11899678 0.740853 0.599345
-0.819021 0.628841 -0.010891 -0.331896359 0.941189675 -0.0632993056 0.541148 0.2429
-0.807819 0.631377 0.035407 -0.175898451 0.982791347 0.0563995034 0.263333 0.369123
-0.773084 0.634055 0.04763 -0.105304765 0.991044846 0.0821037153 0.148355 0.134475
-0.785277 0.635413 0.015597 -0.152692856 0.987653789 0.0349983625 0.395838 -0.020532
-0.802572 0.629483 0.064995 -0.171198225 0.981289824 0.0880990864 -0.026908 0.466559
-0.784901 0.720528 0.119216 -0.476518368 0.809531204 0.342913218 0.534256 0.709559
-0.747126 0.732524 0.133796 -0.297705494 0.916616916 0.266804924 0.150317 0.76837
-0.770177 0.732567 0.106933 -0.336920004 0.913954263 0.226213431 0.336506 0.483737
-0.77659 0.71402 0.143025 -0.460508922 0.805015598 0.374007246 0.491257 0.965403
-0.80101 0.702025 0.132757 -0.533000453 0.750300638 0.391100332 0.819521 0.943554
-0.806099 0.712234 0.10624 -0.502985854 0.802477431 0.320990972 0.740853 0.599345
-0.79139 0.729845 0.078617 -0.368317381 0.912343055 0.178808438 0.541148 0.2429
-0.751779 0.739077 0.091746 -0.191807207 0.97563666 0.106504002 0.263333 0.369123
-0.726485 0.743759 0.070948 -0.13409654 0.989174475 0.0595984621 0.148355 0.134475
-0.756416 0.740057 0.065033 -0.198098619 0.977293188 0.0751994759 0.395838 -0.020532
-0.726907 0.741843 0.101819 -0.162592562 0.979455191 0.119294542 -0.026908 0.466559
-0.70161 0.749813 0.000465 0.163099601 0.901797795 -0.400199022 0.534256 0.709559
-0.741367 0.758398 0.011827 0.0559022904 0.973939903 -0.219809006 0.150317 0.76837
-0.707119 0.758176 0.020771 0.111400732 0.971506388 -0.209201376 0.336506 0.483737
-0.721782 0.745256 -0.015366 0.132298453 0.899089485 -0.41729512 0.491257 0.965403
-0.695434 0.735433 -0.022779 0.184100782 0.857003642 -0.481302046 0.819521 0.943554
-0.676497 0.742866 -0.002299 0.197595375 0.895679037 -0.398390676 0.740853 0.599345
-0.673439 0.754812 0.031427 0.164207789 0.96824593 -0.188508942 0.541148 0.2429
-0.713764 0.760255 0.0445 0.05849889 0.998081062 -0.0202996148 0.263333 0.369123
-0.722781 0.758926 0.076298 0.0376006781 0.997917998 0.0524009451 0.148355 0.134475
-0.694728 0.758528 0.063752 0.0814976875 0.99667172 0.00189994609 0.395838 -0.020532
-0.740014 0.760918 0.050686 0.0271010522 0.999538808 -0.0137005319 -0.026908 0.466559
-0.674927 0.724474 0.129353 0.256803921 0.831912704 0.491907511 0.534256 0.709559
-0.66403 0.739568 0.091448 0.158103104 0.933718329 0.321206305 0.150317 0.76837
-0.689439 0.735238 0.115709 0.120201961 0.92431508 0.362205909 0.336506 0.483737
-0.650926 0.7215 0.119688 0.287407234 0.832120945 0.474311939 0.491257 0.965403
-0.658244 0.707429 0.144063 0.315300533 0.777801314 0.543700919 0.819521 0.943554
-0.685582 0.713812 0.150786 0.237408907 0.821130805 0.519019471 0.740853 0.599345
-0.716014 0.728037 0.138094 0.0752026889 0.915332728 0.395614145 0.541148 0.2429
-0.706282 0.74026 0.098313 -0.0137998884 0.974192124 0.225298178 0.263333 0.369123
-0.728792 0.742948 0.074224 -0.0651003092 0.98320467 0.17050081 0.148355 0.134475
-0.732614 0.737492 0.104226 -0.0447010804 0.97142348 0.233105634 0.395838 -0.020532
-0.697958 0.745179 0.073129 -0.00320012122 0.980637147 0.195807417 -0.026908 0.466559
-0.815972 0.694958 0.034266 -0.462000517 0.857600961 -0.226000253 0.534256 0.709559
-0.814165 0.70301 0.075682 -0.317414528 0.944743242 -0.0819037488 0.150317 0.76837
-0.79838 0.705291 0.044081 -0.295408276 0.945926501 -0.134003754 0.336506 0.483737
-0.834973 0.687778 0.050567 -0.484582989 0.851670103 -0.199592993 0.491257 0.965403
-0.835567 0.67835 0.023064 -0.53108607 0.804978886 -0.264493062 0.819521 0.943554
-0.812648 0.688851 0.009003 -0.452371298 0.853245863 -0.259483536 0.740853 0.599345
-0.780677 0.704619 0.013334 -0.264002739 0.947309828 -0.181401882 0.541148 0.2429
-0.776953 0.709719 0.055604 -0.125906142 0.991148354 -0.042102054 0.263333 0.369123
-0.747773 0.711564 0.071076 -0.0596997905 0.998196496 -0.00629997789 0.148355 0.134475
-0.754119 0.710993 0.041011 -0.0995032588 0.993232529 -0.0599019618 0.395838 -0.020532
-0.776444 0.709921 0.082576 -0.126194294 0.991955145 -0.00999954783 -0.026908 0.466559
-0.794058 0.689607 0.145727 0.0558997546 0.822096391 0.566597513 0.534256 0.709559
-0.752242 0.683966 0.143981 0.222991833 0.874667966 0.430384237 0.150317 0.76837
-0.781106 0.69825 0.12929 0.174601459 0.89530748 0.409803424 0.336506 0.483737
-0.78131 0.675294 0.16336 0.0785039025 0.805240029 0.587729217 0.491257 0.965403
-0.81039 0.675284 0.163428 0.00120003494 0.776822617 0.629718335 0.819521 0.943554
-0.819872 0.692462 0.142255 0.0229998587 0.8299949 0.557296575 0.740853 0.599345
-0.810085 0.709718 0.112323 0.13080398 0.915727866 0.379911561 0.541148 0.2429
-0.768384 0.701262 0.1083 0.279206532 0.928421721 0.245105734 0.263333 0.369123
-0.752625 0.701508 0.079217 0.316492268 0.931477244 0.179395617 0.148355 0.134475
-0.781361 0.709944 0.086114 0.263513573 0.939348382 0.219511306 0.395838 -0.020532
-0.7428 0.692776 0.107219 0.309792632 0.918778147 0.24469418 -0.026908 0.466559
-0.70456 0.724971 0.002582 0.47202794 0.857150736 -0.2061122 0.534256 0.709559
-0.741129 0.743646 0.012446 0.36868333 0.929257985 -0.0234989375 0.150317 0.76837
-0.709923 0.731263 0.02366 0.419095939 0.907891203 -0.00959990698 0.336506 0.483737
-0.722964 0.729575 -0.015262 0.444383176 0.866967177 -0.225591459 0.491257 0.965403
-0.699963 0.71331 -0.02248 0.489210283 0.821617271 -0.292606151 0.819521 0.943554
-0.682478 0.711039 0.000376 0.502694878 0.840291437 -0.202997931 0.740853 0.599345
-0.680402 0.715842 0.035903 0.465515951 0.884930323 0.0139004763 0.541148 0.2429
-0.718657 0.73148 0.046794 0.352505376 0.919014015 0.176502692 0.263333 0.369123
-0.731681 0.727956 0.076996 0.32331038 0.913729336 0.246107901 0.148355 0.134475
-0.703624 0.720803 0.066694 0.371002096 0.906905124 0.199701128 0.395838 -0.020532
-0.744109 0.739339 0.051056 0.322411354 0.92913272 0.181006374 -0.026908 0.466559
-0.666423 0.671781 0.126196 0.425320176 0.619029364 0.660231319 0.534256 0.709559
-0.646769 0.688579 0.092805 0.38388544 0.772670693 0.505580824 0.150317 0.76837
-0.675228 0.688598 0.113855 0.340016318 0.769136912 0.541125969 0.336506 0.483737
-0.643333 0.663024 0.117921 0.456588152 0.612484106 0.645283255 0.491257 0.965403
-0.657553 0.648235 0.13853 0.458012383 0.541714645 0.704819055 0.819521 0.943554
-0.682417 0.661701 0.144338 0.400281293 0.610671461 0.683268068 0.740853 0.599345
-0.705395 0.686595 0.132431 0.290400603 0.769501597 0.56880118 0.541148 0.2429
-0.687451 0.701373 0.096566 0.245316053 0.879857575 0.407026635 0.263333 0.369123
-0.704867 0.714817 0.071864 0.206596954 0.913186535 0.35129482 0.148355 0.134475
-0.713959 0.706089 0.099894 0.214303405 0.885714074 0.411806544 0.395838 -0.020532
-0.674875 0.707412 0.073477 0.261106461 0.887321957 0.380109406 -0.026908 0.466559
-0.795141 0.696397 0.011604 -0.447706028 0.795310709 -0.408705503 0.534256 0.709559
-0.806313 0.708225 0.05584 -0.354298409 0.903995941 -0.239298926 0.150317 0.76837
-0.780106 0.710359 0.026354 -0.319207666 0.904221715 -0.283706813 0.336506 0.483737
-0.819789 0.68749 0.024178 -0.476089981 0.7887834 -0.388791818 0.491257 0.965403
-0.811376 0.675173 -0.004649 -0.499802517 0.734203697 -0.459502314 0.819521 0.943554
-0.783482 0.688325 -0.013972 -0.42920029 0.789900533 -0.438000296 0.740853 0.599345
-0.751851 0.709478 -0.001385 -0.276495701 0.905785915 -0.321095007 0.541148 0.2429
-0.760975 0.718289 0.044599 -0.184695503 0.970576367 -0.154496238 0.263333 0.369123
-0.734502 0.724431 0.06959 -0.131194731 0.9859604 -0.103295851 0.148355 0.134475
-0.732232 0.721163 0.03552 -0.154605333 0.974133603 -0.164805685 0.395838 -0.020532
-0.76854 0.720328 0.07367 -0.193607198 0.973236186 -0.123804603 -0.026908 0.466559
-0.835107 0.476627 -0.127737 0.118701147 0.740307155 -0.661706395 0.534256 0.709559
-0.870911 0.487875 -0.116983 0.0266005991 0.864219463 -0.502411314 0.150317 0.76837
-0.83866 0.489645 -0.111738 0.0827995376 0.864195173 -0.496297228 0.336506 0.483737
-0.854891 0.468555 -0.138832 0.0866983675 0.733086196 -0.674587298 0.491257 0.965403
-0.831114 0.457483 -0.144724 0.133196588 0.673182753 -0.727381365 0.819521 0.943554
-0.812129 0.469384 -0.130232 0.153296601 0.734483713 -0.661085341 0.740853 0.599345
-0.806767 0.489119 -0.104083 0.137300257 0.86640162 -0.480100898 0.541148 0.2429
-0.842928 0.498068 -0.090919 0.046001479 0.946330425 -0.319910285 0.263333 0.369123
-0.848709 0.505725 -0.061884 0.0312999266 0.96799773 -0.248999416 0.148355 0.134475
-0.823859 0.501545 -0.075005 0.0707987879 0.951183716 -0.300394857 0.395838 -0.020532
-0.866621 0.500716 -0.083605 0.0153008105 0.950150331 -0.311416496 -0.026908 0.466559
3 0 1 2
3 0 3 1
3 0 4 3
3 0 5 4
3 0 6 5
3 0 2 6
3 7 8 9
3 7 10 8
3 7 1 10
3 7 2 1
3 7 6 2
3 7 9 6
3 11 12 13
3 11 14 12
3 11 15 14
3 11 16 15
3 11 17 16
3 11 13 17
3 18 19 20
3 18 21 19
3 18 12 21
3 18 13 12
3 18 17 13
3 18 20 17
3 22 23 24
3 22 25 23
3 22 26 25
3 22 27 26
3 22 28 27
3 22 24 28
3 29 30 31
3 29 32 30
3 29 23 32
3 29 24 23
3 29 28 24
3 29 31 28
3 33 34 35
3 33 36 34
3 33 37 36
3 33 38 37
3 33 39 38
3 33 35 39
3 40 41 42
3 40 43 41
3 40 34 43
3 40 35 34
3 40 39 35
3 40 42 39
3 44 45 46
3 44 47 45
3 44 48 47
3 44 49 48
3 44 50 49
3 44 46 50
3 51 52 53
3 51 54 52
3 51 45 54
3 51 46 45
3 51 50 46
3 51 53 50
3 55 56 57
3 55 58 56
3 55 59 58
3 55 60 59
3 55 61 60
3 55 57 61
3 62 63 64
3 62 65 63
3 62 56 65
3 62 57 56
3 62 61 57
3 62 64 61
3 66 67 68
3 66 69 67
3 66 70 69
3 66 71 70
3 66 72 71
3 66 68 72
3 73 74 75
3 73 76 74
3 73 67 76
3 73 68 67
3 73 72 68
3 73 75 72
3 77 78 79
3 77 80 78
3 77 81 80
3 77 82 81
3 77 83 82
3 77 79 83
3 84 85 86
3 84 87 85
3 84 78 87
3 84 79 78
3 84 83 79
3 84 86 83
3 88 89 90
3 88 91 89
3 88 92 91
3 88 93 92
3 88 94 93
3 88 90 94
3 95 96 97
3 95 98 96
3 95 89 98
3 95 90 89
3 95 94 90
3 95 97 94
3 99 100 101
3 99 102 100
3 99 103 102
3 99 104 103
3 99 105 104
3 99 101 105
3 106 107 108
3 106 109 107
3 106 100 109
3 106 101 100
3 106 105 101
3 106 108 105
3 110 111 112
3 110 113 111
3 110 114 113
3 110 115 114
3 110 116 115
3 110 112 116
3 117 118 119
3 117 120 118
3 117 111 120
3 117 112 111
3 117 116 112
3 117 119 116
3 121 122 123
3 121 124 122
3 121 125 124
3 121 126 125
3 121 127 126
3 121 123 127
3 128 129 130
3 128 131 129
3 128 122 131
3 128 123 122
3 128 127 123
3 128 130 127
3 132 133 134
3 132 135 133
3 132 136 135
3 132 137 136
3 132 138 137
3 132 134 138
3 139 140 141
3 139 142 140
3 139 133 142
3 139 134 133
3 139 138 134
3 139 141 138
3 143 144 145
3 143 146 144
3 143 147 146
3 143 148 147
3 143 149 148
3 143 145 149
3 150 151 152
3 150 153 151
3 150 144 153
3 150 145 144
3 150 149 145
3 150 152 149
3 154 155 156
3 154 157 155
3 154 158 157
3 154 159 158
3 154 160 159
3 154 156 160
3 161 162 163
3 161 164 162
3 161 155 164
3 161 156 155
3 161 160 156
3 161 163 160
3 165 166 167
3 165 168 166
3 165 169 168
3 165 170 169
3 165 171 170
3 165 167 171
3 172 173 174
3 172 175 173
3 172 166 175
3 172 167 166
3 172 171 167
3 172 174 171
3 176 177 178
3 176 179 177
3 176 180 179
3 176 181 180
3 176 182 181
3 176 178 182
3 183 184 185
3 183 186 184
3 183 177 186
3 183 178 177
3 183 182 178
3 183 185 182
3 187 188 189
3 187 190 188
3 187 191 190
3 187 192 191
3 187 193 192
3 187 189 193
3 194 195 196
3 194 197 195
3 194 188 197
3 194 189 188
3 194 193 189
3 194 196 193
3 198 199 200
3 198 201 199
3 198 202 201
3 198 203 202
3 198 204 203
3 198 200 204
3 205 206 207
3 205 208 206
3 205 199 208
3 205 200 199
3 205 204 200
3 205 207 204
3 209 210 211
3 209 212 210
3 209 213 212
3 209 214 213
3 209 215 214
3 209 211 215
3 216 217 218
3 216 219 217
3 216 210 219
3 216 211 210
3 216 215 211
3 216 218 215
3 220 221 222
3 220 223 221
3 220 224 223
3 220 225 224
3 220 226 225
3 220 222 226
3 227 228 229
3 227 230 228
3 227 221 230
3 227 222 221
3 227 226 222
3 227 229 226
3 231 232 233
3 231 234 232
3 231 235 234
3 231 236 235
3 231 237 236
3 231 233 237
3 238 239 240
3 238 241 239
3 238 232 241
3 238 233 232
3 238 237 233
3 238 240 237
3 242 243 244
3 242 245 243
3 242 246 245
3 242 247 246
3 242 248 247
3 242 244 248
3 249 250 251
3 249 252 250
3 249 243 252
3 249 244 243
3 249 248 244
3 249 251 248
3 253 254 255
3 253 256 254
3 253 257 256
3 253 258 257
3 253 259 258
3 253 255 259
3 260 261 262
3 260 263 261
3 260 254 263
3 260 255 254
3 260 259 255
3 260 262 259
3 264 265 266
3 264 267 265
3 264 268 267
3 264 269 268
3 264 270 269
3 264 266 270
3 271 272 273
3 271 274 272
3 271 265 274
3 271 266 265
3 271 270 266
3 271 273 270
3 275 276 277
3 275 278 276
3 275 279 278
3 275 280 279
3 275 281 280
3 275 277 281
3 282 283 284
3 282 285 283
3 282 276 285
3 282 277 276
3 282 281 277
3 282 284 281
3 286 287 288
3 286 289 287
3 286 290 289
3 286 291 290
3 286 292 291
3 286 288 292
3 293 294 295
3 293 296 294
3 293 287 296
3 293 288 287
3 293 292 288
3 293 295 292
3 297 298 299
3 297 300 298
3 297 301 300
3 297 302 301
3 297 303 302
3 297 299 303
3 304 305 306
3 304 307 305
3 304 298 307
3 304 299 298
3 304 303 299
3 304 306 303
3 308 309 310
3 308 311 309
3 308 312 311
3 308 313 312
3 308 314 313
3 308 310 314
3 315 316 317
3 315 318 316
3 315 309 318
3 315 310 309
3 315 314 310
3 315 317 314
3 319 320 321
3 319 322 320
3 319 323 322
3 319 324 323
3 319 325 324
3 319 321 325
3 326 327 328
3 326 329 327
3 326 320 329
3 326 321 320
3 326 325 321
3 326 328 325
3 330 331 332
3 330 333 331
3 330 334 333
3 330 335 334
3 330 336 335
3 330 332 336
3 337 338 339
3 337 340 338
3 337 331 340
3 337 332 331
3 337 336 332
3 337 339 336
3 341 342 343
3 341 344 342
3 341 345 344
3 341 346 345
3 341 347 346
3 341 343 347
3 348 349 350
3 348 351 349
3 348 342 351
3 348 343 342
3 348 347 343
3 348 350 347
3 352 353 354
3 352 355 353
3 352 356 355
3 352 357 356
3 352 358 357
3 352 354 358
3 359 360 361
3 359 362 360
3 359 353 362
3 359 354 353
3 359 358 354
3 359 361 358
3 363 364 365
3 363 366 364
3 363 367 366
3 363 368 367
3 363 369 368
3 363 365 369
3 370 371 372
3 370 373 371
3 370 364 373
3 370 365 364
3 370 369 365
3 370 372 369
3 374 375 376
3 374 377 375
3 374 378 377
3 374 379 378
3 374 380 379
3 374 376 380
3 381 382 383
3 381 384 382
3 381 375 384
3 381 376 375
3 381 380 376
3 381 383 380
3 385 386 387
3 385 388 386
3 385 389 388
3 385 390 389
3 385 391 390
3 385 387 391
3 392 393 394
3 392 395 393
3 392 386 395
3 392 387 386
3 392 391 387
3 392 394 391
3 396 397 398
3 396 399 397
3 396 400 399
3 396 401 400
3 396 402 401
3 396 398 402
3 403 404 405
3 403 406 404
3 403 397 406
3 403 398 397
3 403 402 398
3 403 405 402
3 407 408 409
3 407 410 408
3 407 411 410
3 407 412 411
3 407 413 412
3 407 409 413
3 414 415 416
3 414 417 415
3 414 408 417
3 414 409 408
3 414 413 409
3 414 416 413
3 418 419 420
3 418 421 419
3 418 422 421
3 418 423 422
3 418 424 423
3 418 420 424
3 425 426 427
3 425 428 426
3 425 419 428
3 425 420 419
3 425 424 420
3 425 427 424
3 429 430 431
3 429 432 430
3 429 433 432
3 429 434 433
3 429 435 434
3 429 431 435
3 436 437 438
3 436 439 437
3 436 430 439
3 436 431 430
3 436 435 431
3 436 438 435
3 440 441 442
3 440 443 441
3 440 444 443
3 440 445 444
3 440 446 445
3 440 442 446
3 447 448 449
3 447 450 448
3 447 441 450
3 447 442 441
3 447 446 442
3 447 449 446
3 451 452 453
3 451 454 452
3 451 455 454
3 451 456 455
3 451 457 456
3 451 453 457
3 458 459 460
3 458 461 459
3 458 452 461
3 458 453 452
3 458 457 453
3 458 460 457
3 462 463 464
3 462 465 463
3 462 466 465
3 462 467 466
3 462 468 467
3 462 464 468
3 469 470 471
3 469 472 470
3 469 463 472
3 469 464 463
3 469 468 464
3 469 471 468
3 473 474 475
3 473 476 474
3 473 477 476
3 473 478 477
3 473 479 478
3 473 475 479
3 480 481 482
3 480 483 481
3 480 474 483
3 480 475 474
3 480 479 475
3 480 482 479
3 484 485 486
3 484 487 485
3 484 488 487
3 484 489 488
3 484 490 489
3 484 486 490
3 491 492 493
3 491 494 492
3 491 485 494
3 491 486 485
3 491 490 486
3 491 493 490
3 495 496 497
3 495 498 496
3 495 499 498
3 495 500 499
3 495 501 500
3 495 497 501
3 502 503 504
3 502 505 503
3 502 496 505
3 502 497 496
3 502 501 497
3 502 504 501
3 506 507 508
3 506 509 507
3 506 510 509
3 506 511 510
3 506 512 511
3 506 508 512
3 513 514 515
3 513 516 514
3 513 507 516
3 513 508 507
3 513 512 508
3 513 515 512
3 517 518 519
3 517 520 518
3 517 521 520
3 517 522 521
3 517 523 522
3 517 519 523
3 524 525 526
3 524 527 525
3 524 518 527
3 524 519 518
3 524 523 519
3 524 526 523
3 528 529 530
3 528 531 529
3 528 532 531
3 528 533 532
3 528 534 533
3 528 530 534
3 535 536 537
3 535 538 536
3 535 529 538
3 535 530 529
3 535 534 530
3 535 537 534
3 539 540 541
3 539 542 540
3 539 543 542
3 539 544 543
3 539 545 544
3 539 541 545
3 546 547 548
3 546 549 547
3 546 540 549
3 546 541 540
3 546 545 541
3 546 548 545
3 550 551 552
3 550 553 551
3 550 554 553
3 550 555 554
3 550 556 555
3 550 552 556
3 557 558 559
3 557 560 558
3 557 551 560
3 557 552 551
3 557 556 552
3 557 559 556
3 561 562 563
3 561 564 562
3 561 565 564
3 561 566 565
3 561 567 566
3 561 563 567
3 568 569 570
3 568 571 569
3 568 562 571
3 568 563 562
3 568 567 563
3 568 570 567
3 572 573 574
3 572 575 573
3 572 576 575
3 572 577 576
3 572 578 577
3 572 574 578
3 579 580 581
3 579 582 580
3 579 573 582
3 579 574 573
3 579 578 574
3 579 581 578
3 583 584 585
3 583 586 584
3 583 587 586
3 583 588 587
3 583 589 588
3 583 585 589
3 590 591 592
3 590 593 591
3 590 584 593
3 590 585 584
3 590 589 585
3 590 592 589
3 594 595 596
3 594 597 595
3 594 598 597
3 594 599 598
3 594 600 599
3 594 596 600
3 601 602 603
3 601 604 602
3 601 595 604
3 601 596 595
3 601 600 596
3 601 603 600
3 605 606 607
3 605 608 606
3 605 609 608
3 605 610 609
3 605 611 610
3 605 607 611
3 612 613 614
3 612 615 613
3 612 606 615
3 612 607 606
3 612 611 607
3 612 614 611
3 616 617 618
3 616 619 617
3 616 620 619
3 616 621 620
3 616 622 621
3 616 618 622
3 623 624 625
3 623 626 624
3 623 617 626
3 623 618 617
3 623 622 618
3 623 625 622
3 627 628 629
3 627 630 628
3 627 631 630
3 627 632 631
3 627 633 632
3 627 629 633
3 634 635 636
3 634 637 635
3 634 628 637
3 634 629 628
3 634 633 629
3 634 636 633
3 638 639 640
3 638 641 639
3 638 642 641
3 638 643 642
3 638 644 643
3 638 640 644
3 645 646 647
3 645 648 646
3 645 639 648
3 645 640 639
3 645 644 640
3 645 647 644
3 649 650 651
3 649 652 650
3 649 653 652
3 649 654 653
3 649 655 654
3 649 651 655
3 656 657 658
3 656 659 657
3 656 650 659
3 656 651 650
3 656 655 651
3 656 658 655
3 660 661 662
3 660 663 661
3 660 664 663
3 660 665 664
3 660 666 665
3 660 662 666
3 667 668 669
3 667 670 668
3 667 661 670
3 667 662 661
3 667 666 662
3 667 669 666
3 671 672 673
3 671 674 672
3 671 675 674
3 671 676 675
3 671 677 676
3 671 673 677
3 678 679 680
3 678 681 679
3 678 672 681
3 678 673 672
3 678 677 673
3 678 680 677
3 682 683 684
3 682 685 683
3 682 686 685
3 682 687 686
3 682 688 687
3 682 684 688
3 689 690 691
3 689 692 690
3 689 683 692
3 689 684 683
3 689 688 684
3 689 691 688
3 693 694 695
3 693 696 694
3 693 697 696
3 693 698 697
3 693 699 698
3 693 695 699
3 700 701 702
3 700 703 701
3 700 694 703
3 700 695 694
3 700 699 695
3 700 702 699
3 704 705 706
3 704 707 705
3 704 708 707
3 704 709 708
3 704 710 709
3 704 706 710
3 711 712 713
3 711 714 712
3 711 705 714
3 711 706 705
3 711 710 706
3 711 713 710
3 715 716 717
3 715 718 716
3 715 719 718
3 715 720 719
3 715 721 720
3 715 717 721
3 722 723 724
3 722 725 723
3 722 716 725
3 722 717 716
3 722 721 717
3 722 724 721
3 726 727 728
3 726 729 727
3 726 730 729
3 726 731 730
3 726 732 731
3 726 728 732
3 733 734 735
3 733 736 734
3 733 727 736
3 733 728 727
3 733 732 728
3 733 735 732
3 737 738 739
3 737 740 738
3 737 741 740
3 737 742 741
3 737 743 742
3 737 739 743
3 744 745 746
3 744 747 745
3 744 738 747
3 744 739 738
3 744 743 739
3 744 746 743
