ply
format ascii 1.0
element vertex 244
property float x
property float y
property float z
property float nx
property float ny
property float nz
property float u
property float v
element face 456
property list uchar int vertex_indices
end_header
-0.766059 0.265472 0.031749 0.403123783 0.306618089 -0.86225087 0 0
-0.749573 0.205753 0.02524 -0.471491678 -0.168697023 -0.865584723 0 0
-0.776671 0.260094 0.029411 -0.477106999 -0.147302161 -0.86641271 0 0
-0.737505 0.211869 0.027899 0.419212725 0.285208658 -0.861926164 0 0
-0.72932 0.2156 0.038349 0.874173299 0.485585168 0.00529983812 0 0
-0.758861 0.268754 0.040938 0.871557032 0.490232079 -0.00780051044 0 0
-0.784542 0.314041 0.046 0.855944052 0.515526532 -0.0399020536 0 0
-0.791178 0.311445 0.037983 0.338016136 0.398219009 -0.852740707 0 0
-0.800741 0.30691 0.036085 -0.51523725 -0.0639046202 -0.85466179 0 0
-0.780014 0.257816 0.040841 -0.896732485 -0.44251603 -0.00710025721 0 0
-0.749157 0.204716 0.051274 -0.443792567 -0.237496022 0.864085527 0 0
-0.776305 0.259183 0.052304 -0.432593308 -0.263295927 0.862286661 0 0
-0.753374 0.203162 0.038239 -0.898975454 -0.437988041 -0.00309991536 0 0
-0.803512 0.304712 0.046256 -0.887014738 -0.46160767 -0.0111001844 0 0
-0.79996 0.305624 0.056341 -0.372930354 -0.375530566 0.84846906 0 0
-0.765766 0.264743 0.050063 0.462499248 0.198999677 0.863998596 0 0
-0.737171 0.211039 0.048726 0.446915799 0.216307647 0.868030685 0 0
-0.790553 0.310417 0.054187 0.524529925 0.121706944 0.842648074 0 0
-0.809427 0.342157 0.048987 0.260402098 0.4842039 -0.835306728 0 0
-0.818754 0.338672 0.047768 -0.617518344 0.0403011972 -0.785523334 0 0
-0.8025 0.343594 0.056007 0.878061598 0.474933318 -0.0587041182 0 0
-0.81508 0.374666 0.070878 0.947082522 0.311494251 -0.0774985698 0 0
-0.822088 0.37402 0.064611 0.272410225 0.456617139 -0.84693179 0 0
-0.831171 0.371395 0.063841 -0.672127376 0.141805776 -0.7267296 0 0
-0.820728 0.336093 0.057295 -0.905724301 -0.422811344 0.0299008022 0 0
-0.816626 0.336015 0.066392 -0.32722134 -0.473330869 0.817853338 0 0
-0.832673 0.368755 0.07279 -0.954919299 -0.282605712 0.0909018371 0 0
-0.828311 0.368085 0.081101 -0.337406821 -0.420908509 0.842017022 0 0
-0.807725 0.340031 0.063886 0.59561498 -0.0347008727 0.802520184 0 0
-0.8198 0.371371 0.078419 0.620446135 -0.144310731 0.770857319 0 0
-0.830442 0.423448 0.084705 0.355405472 0.380605859 -0.853713143 0 0
-0.838454 0.421092 0.083685 -0.605603764 0.150500935 -0.781404856 0 0
-0.824623 0.424508 0.090528 0.965225362 0.258006779 -0.0421011062 0 0
-0.842752 0.481872 0.106609 0.902859365 0.427928137 0.0415027289 0 0
-0.84687 0.480122 0.101381 0.415407797 0.369706939 -0.8311156 0 0
-0.853289 0.477859 0.099999 -0.486404081 -0.019900167 -0.873507329 0 0
-0.840359 0.419491 0.091573 -0.970479455 -0.228495163 0.0771983657 0 0
-0.837019 0.419563 0.099112 -0.342294576 -0.338794632 0.876386114 0 0
-0.855688 0.477492 0.106428 -0.910004909 -0.413902233 0.0240001295 0 0
-0.853774 0.478585 0.112918 -0.352722686 -0.29121873 0.889257194 0 0
-0.829294 0.422224 0.097047 0.592824917 -0.0981041234 0.799333597 0 0
-0.847258 0.480702 0.111717 0.49751969 0.116204599 0.859634021 0 0
-0.88375 0.533725 0.10675 0.40930784 0.398407632 -0.820815723 0 0
-0.888362 0.531792 0.10548 -0.399194727 -0.233296918 -0.886688287 0 0
-0.88109 0.535512 0.110773 0.767693406 0.638994511 0.0482995851 0 0
-0.926926 0.579944 0.111022 0.635909307 0.769611263 0.057600843 0 0
-0.926543 0.577395 0.108026 0.375105662 0.456806896 -0.806612176 0 0
-0.931291 0.577126 0.107526 -0.42432684 -0.35492245 -0.833052692 0 0
-0.89056 0.531945 0.110141 -0.786627245 -0.617421385 -0.00290010045 0 0
-0.889602 0.533287 0.115012 -0.394526833 -0.311821208 0.864358787 0 0
-0.931144 0.57617 0.110085 -0.699905634 -0.714205749 0.00650005233 0 0
-0.932496 0.578463 0.113521 -0.356504586 -0.446105739 0.820910561 0 0
-0.884743 0.534921 0.114375 0.38559032 0.317892019 0.866178255 0 0
-0.927544 0.578505 0.112974 0.367419156 0.405621148 0.836943635 0 0
-0.960705 0.604267 0.112425 0.300914058 0.552025788 -0.777636328 0 0
-0.969696 0.608094 0.113532 -0.541211517 -0.13720292 -0.829617654 0 0
-0.967551 0.609684 0.115361 0.36342887 0.926173574 0.100607992 0 0
-0.971668 0.610434 0.115593 -0.855114169 0.300304976 0.422607003 0 0
-0.963603 0.603488 0.113637 -0.635411828 -0.771914369 0.0200003723 0 0
-0.970449 0.608905 0.116573 -0.368924413 -0.315820899 0.874157845 0 0
-0.961459 0.605078 0.115466 0.383200579 0.426500644 0.819301237 0 0
-0.693026 0.265472 0.088476 -0.0704020994 0.306609143 0.949228306 0 0
-0.706123 0.205753 0.100418 0.748276377 -0.168694674 0.641579746 0 0
-0.682275 0.260094 0.08689 0.753839269 -0.147307673 0.640333356 0 0
-0.718348 0.211869 0.102221 -0.0856031006 0.285210331 0.954634577 0 0
-0.729712 0.2156 0.095361 -0.819016495 0.48560978 0.305606155 0 0
-0.703019 0.268754 0.082444 -0.811913539 0.490208174 0.317005286 0 0
-0.680813 0.314041 0.068587 -0.785926321 0.515517265 0.341411434 0 0
-0.671761 0.311445 0.073723 -0.0129000936 0.398202889 0.917206654 0 0
-0.662148 0.30691 0.072099 0.785352703 -0.0639042884 0.615741321 0 0
-0.683212 0.257816 0.075018 0.840760111 -0.442479007 -0.311985198 0 0
-0.715763 0.204716 0.076231 0.107798693 -0.23749712 -0.965388295 0 0
-0.690752 0.259183 0.065622 0.0980022061 -0.263305927 -0.959721604 0 0
-0.707189 0.203162 0.086917 0.841385898 -0.437992659 -0.316594694 0 0
-0.663172 0.304712 0.061607 0.833055567 -0.461630792 -0.304820332 0 0
-0.670076 0.305624 0.053443 0.0471010829 -0.375508633 -0.92562128 0 0
-0.699807 0.264743 0.071461 -0.73934742 0.199012764 -0.643241256 0 0
-0.72606 0.211039 0.082872 -0.726185879 0.216295794 -0.652587311 0 0
-0.678103 0.310417 0.058798 -0.789700525 0.121700081 -0.6013004 0 0
-0.658613 0.342157 0.056952 0.0534012258 0.484211115 0.873320047 0 0
-0.649462 0.338672 0.054778 0.856345893 0.0403021599 0.51482759 0 0
-0.667582 0.343594 0.052852 -0.799905747 0.474903412 0.366902636 0 0
-0.661108 0.374666 0.034482 -0.857716065 0.311505835 0.409007661 0 0
-0.65233 0.37402 0.037849 0.0462986226 0.456586417 0.888473568 0 0
-0.643566 0.371395 0.035342 0.886525865 0.141804137 0.440412849 0 0
-0.651002 0.336093 0.045171 0.835993362 -0.422796643 -0.349797223 0 0
-0.658068 0.336015 0.038125 0.0153009221 -0.473328526 -0.88075308 0 0
-0.645342 0.368755 0.026443 0.860332482 -0.28261067 -0.424216017 0 0
-0.652373 0.368085 0.020224 0.0160994766 -0.420886317 -0.906970515 0 0
-0.665498 0.340031 0.043631 -0.841907598 -0.0347003132 -0.53850486 0 0
-0.659375 0.371371 0.025755 -0.853844 -0.144307436 -0.500125772 0 0
-0.651661 0.423448 0.016098 -0.0287997654 0.3805969 0.924292472 0 0
-0.64381 0.421092 0.014205 0.843737556 0.150506699 0.515222933 0 0
-0.65917 0.424508 0.012723 -0.887236555 0.25801063 0.382415756 0 0
-0.647938 0.481872 -0.008751 -0.858705109 0.427902546 0.282001678 0 0
-0.642231 0.480122 -0.005327 -0.0929987287 0.369694946 0.924487362 0 0
-0.63574 0.477859 -0.006316 0.765060454 -0.0199015726 0.64365086 0 0
-0.644832 0.419491 0.006155 0.879711727 -0.228503046 -0.417005559 0 0
-0.650633 0.419563 0.000294 0.00850016011 -0.338806381 -0.940817721 0 0
-0.635782 0.477492 -0.013178 0.842061115 -0.413930042 -0.345825099 0 0
-0.639877 0.478585 -0.018564 0.01370084 -0.291217855 -0.956558648 0 0
-0.65712 0.422224 0.00497 -0.838155542 -0.0981065012 -0.536535555 0 0
-0.645541 0.480702 -0.015126 -0.77048038 0.116197041 -0.626784039 0 0
-0.609665 0.533725 -0.02345 -0.0909988693 0.39839505 0.91268866 0 0
-0.604904 0.531792 -0.023902 0.688194106 -0.233298002 0.686994116 0 0
-0.613582 0.535512 -0.026265 -0.734796954 0.638997351 0.227499057 0 0
-0.570826 0.579944 -0.042786 -0.614888007 0.769584989 0.172196641 0 0
-0.570119 0.577395 -0.039849 -0.0640036458 0.456826022 0.887250539 0 0
-0.565503 0.577126 -0.041069 0.692632146 -0.354916472 0.627929143 0 0
-0.604505 0.531945 -0.02904 0.736322572 -0.617418927 -0.276808486 0 0
-0.607131 0.533287 -0.033252 0.061602852 -0.311814436 -0.948143895 0 0
-0.56655 0.57617 -0.043409 0.651907076 -0.714207753 -0.254802766 0 0
-0.566507 0.578463 -0.047101 0.0415007582 -0.44610815 -0.894016334 0 0
-0.611447 0.534921 -0.03093 -0.668219242 0.317909154 -0.672619368 0 0
-0.570941 0.578505 -0.04483 -0.640865583 0.405578219 -0.651764998 0 0
-0.53975 0.604267 -0.0561 -0.0050001214 0.552013403 0.833820245 0 0
-0.531739 0.608094 -0.060329 0.80067335 -0.137195434 0.583180589 0 0
-0.534394 0.609684 -0.061277 -0.375434095 0.926184111 0.0351031879 0 0
-0.530627 0.610434 -0.062957 0.649186403 0.300193713 -0.698885362 0 0
-0.537471 0.603488 -0.058262 0.586830748 -0.771940447 -0.244412806 0 0
-0.532115 0.608905 -0.06344 0.0343001823 -0.315801678 -0.94820504 0 0
-0.540126 0.605078 -0.059211 -0.649295185 0.426496838 -0.629695331 0 0
-0.759141 0.265472 0.101911 -0.602814781 0.306607518 -0.736618062 0 0
-0.757873 0.205753 0.084233 -0.984378733 -0.168696355 0.0503989111 0 0
-0.765842 0.260094 0.110467 -0.987554539 -0.147308135 0.0551030431 0 0
-0.750253 0.211869 0.074504 -0.595576356 0.285188678 -0.750970187 0 0
-0.73729 0.2156 0.071649 0.383204964 0.485606291 -0.785710179 0 0
-0.747742 0.268754 0.0994 0.370224976 0.490233072 -0.789053231 0 0
-0.754294 0.314041 0.124742 0.334527442 0.515542292 -0.788864713 0 0
-0.764393 0.311445 0.127254 -0.622415112 0.398209669 -0.67381636 0 0
-0.770243 0.30691 0.135054 -0.993461631 -0.0639039644 0.0946058691 0 0
-0.756984 0.257816 0.118427 -0.39451093 -0.44251226 0.805322312 0 0
-0.734224 0.204716 0.095125 0.58691941 -0.237507855 0.774025597 0 0
-0.745046 0.259183 0.120045 0.590094353 -0.26329748 0.763192696 0 0
-0.7478 0.203162 0.093285 -0.391801166 -0.438001303 0.809102407 0 0
-0.762274 0.304712 0.141954 -0.393912052 -0.461614123 0.794824318 0 0
-0.751644 0.305624 0.143116 0.603441225 -0.375525655 0.703448058 0 0
-0.742504 0.264743 0.109574 0.97905336 0.199010846 -0.0430023437 0 0
-0.731334 0.211039 0.083218 0.975945705 0.21631013 -0.0272012739 0 0
-0.749514 0.310417 0.133704 0.986661145 0.121707542 -0.1081067 0 0
-0.762371 0.342157 0.148468 -0.640335805 0.484227076 -0.596233339 0 0
-0.767507 0.338672 0.156349 -0.975405784 0.040300239 0.216701285 0 0
-0.753045 0.343594 0.145262 0.327097805 0.474896813 -0.816994518 0 0
-0.745084 0.374666 0.163038 0.340011299 0.311510352 -0.887329486 0 0
-0.753767 0.37402 0.166644 -0.645616357 0.456611568 -0.612115508 0 0
-0.758392 0.371395 0.174499 -0.946029706 0.141804453 0.29140915 0 0
-0.759773 0.336093 0.162251 -0.364989946 -0.422788354 0.829477153 0 0
-0.749797 0.336015 0.162491 0.595613923 -0.473311064 0.649015171 0 0
-0.750975 0.368755 0.179726 -0.331421754 -0.28261855 0.900159084 0 0
-0.741594 0.368085 0.179391 0.6130772 -0.420884348 0.668575136 0 0
-0.748204 0.340031 0.153382 0.981246272 -0.0347016364 -0.189608941 0 0
-0.740328 0.371371 0.170558 0.96344695 -0.144307032 -0.225710999 0 0
-0.739268 0.423448 0.182872 -0.615833859 0.380620927 -0.689837928 0 0
-0.743655 0.421092 0.189653 -0.966522549 0.150503511 0.207804848 0 0
-0.7315 0.424508 0.180146 0.379735511 0.258024129 -0.888383077 0 0
-0.724849 0.481872 0.20345 0.428219172 0.427919158 -0.795935635 0 0
-0.731345 0.480122 0.204899 -0.569415918 0.369710335 -0.734220525 0 0
-0.735369 0.477859 0.210087 -0.997975964 -0.0198995207 0.0603985453 0 0
-0.737369 0.419491 0.194784 -0.350399772 -0.228499851 0.90829941 0 0
-0.729126 0.419563 0.195036 0.641891187 -0.338795348 0.687890555 0 0
-0.730611 0.477492 0.215032 -0.372217022 -0.413918929 0.830737991 0 0
-0.723933 0.478585 0.216116 0.649023923 -0.291210734 0.702825907 0 0
-0.727645 0.422224 0.187179 0.977181429 -0.0980981357 -0.18839642 0 0
-0.722195 0.480702 0.209722 0.990283418 0.116198054 -0.0763987207 0 0
-0.742467 0.533725 0.24047 -0.562710033 0.398407104 -0.724312915 0 0
-0.745607 0.531792 0.244078 -0.972110445 -0.233302507 -0.0239002568 0 0
-0.737689 0.535512 0.239812 0.375814685 0.63902497 -0.671126225 0 0
-0.757302 0.579944 0.281241 0.327096544 0.769591869 -0.548394206 0 0
-0.759838 0.577395 0.279599 -0.564825666 0.456820758 -0.687231228 0 0
-0.762343 0.577126 0.283663 -0.934606467 -0.355002457 0.0220001522 0 0
-0.742358 0.531945 0.248077 -0.34312038 -0.617436674 0.707842044 0 0
-0.737552 0.533287 0.249321 0.608406741 -0.311803455 0.729808086 0 0
-0.759972 0.57617 0.284638 -0.297001028 -0.714202471 0.633802193 0 0
-0.75746 0.578463 0.287344 0.585708027 -0.446106114 0.676709274 0 0
-0.736023 0.534921 0.244665 0.947727963 0.31790938 0.0273008055 0 0
-0.755811 0.578505 0.282643 0.913520733 0.405609205 0.0310007036 0 0
-0.770658 0.604267 0.312299 -0.570783148 0.551983703 -0.607882053 0 0
-0.773551 0.608094 0.320883 -0.982132563 -0.137204549 0.128804271 0 0
-0.770973 0.609684 0.319742 0.248015127 0.926156488 -0.284117329 0 0
-0.772547 0.610434 0.323554 0.0108998183 0.300294994 0.953784101 0 0
-0.77082 0.603488 0.315437 -0.257012264 -0.771936834 0.581427743 0 0
-0.771135 0.608905 0.322879 0.628341051 -0.315820633 0.710946448 0 0
-0.768242 0.605078 0.314295 0.904433352 0.426515728 0.00920033927 0 0
-0.785491 0.273744 0.086027 -0.676410021 -0.0405006 -0.735410895 0 0
-0.788496 0.200402 0.102776 -0.97597948 -0.0418991191 0.213795505 0 0
-0.792498 0.273755 0.098898 -0.977968294 -0.0208014526 0.207714505 0 0
-0.780529 0.200389 0.088139 -0.671498274 -0.0666998286 -0.737998103 0 0
-0.765255 0.201363 0.081544 0.301592018 0.0108997115 -0.953374769 0 0
-0.77206 0.2746 0.080227 0.288492157 0.0143996086 -0.957373974 0 0
-0.774794 0.33776 0.080631 0.253813229 0.0394020537 -0.966450373 0 0
-0.786642 0.337498 0.085885 -0.685897208 0.0712997098 -0.724197053 0 0
-0.792706 0.337869 0.097374 -0.976859219 0.0714043287 0.201612222 0 0
-0.780817 0.275142 0.107639 -0.30940235 0.0371002818 0.950207217 0 0
-0.758611 0.203349 0.112265 0.666902408 0.120100434 0.735402655 0 0
-0.766217 0.276347 0.107242 0.668075088 0.0920965658 0.738372467 0 0
-0.775213 0.201978 0.112716 -0.30620395 0.0426005496 0.951012268 0 0
-0.782239 0.338808 0.105051 -0.310514827 0.0153007306 0.950445385 0 0
-0.769291 0.339397 0.104588 0.671210417 -0.0356005525 0.740411491 0 0
-0.764467 0.275817 0.092702 0.972407638 0.0723005679 -0.221801742 0 0
-0.75662 0.202747 0.09573 0.971657374 0.0953958151 -0.216290512 0 0
-0.76791 0.33872 0.091656 0.970143939 -0.0271012274 -0.241010916 0 0
-0.780168 0.382049 0.089686 -0.692218645 0.185204989 -0.697518788 0 0
-0.785328 0.383503 0.10056 -0.941675968 0.219917741 0.254720549 0 0
-0.769384 0.380762 0.084474 0.242008319 -0.00890030595 -0.970233352 0 0
-0.75626 0.423092 0.083822 0.24200075 -0.186400578 -0.952202952 0 0
-0.766187 0.425383 0.088914 -0.70008162 0.15389596 -0.697281693 0 0
-0.77071 0.427676 0.099196 -0.900926028 0.342109884 0.267007714 0 0
-0.775298 0.38348 0.107443 -0.276714863 0.0635034109 0.958851501 0 0
-0.763297 0.382551 0.106671 0.654294877 -0.146598852 0.741894191 0 0
-0.761158 0.427224 0.105443 -0.231104764 0.217004474 0.948419552 0 0
-0.749973 0.425394 0.104483 0.675394745 -0.092799278 0.731594308 0 0
-0.762543 0.381287 0.094575 0.950833394 -0.202407109 -0.234408233 0 0
-0.749598 0.423557 0.093143 0.925843048 -0.313914596 -0.210409783 0 0
-0.744819 0.485482 0.075056 -0.681740684 0.0476028408 -0.730043567 0 0
-0.749199 0.487407 0.084027 -0.930852274 0.310817454 0.192110788 0 0
-0.73585 0.484233 0.070737 0.279805723 -0.236704842 -0.930419032 0 0
-0.722626 0.557607 0.060428 0.343509778 -0.0479013635 -0.937926698 0 0
-0.730272 0.557255 0.063681 -0.641182964 0.0128996573 -0.767279614 0 0
-0.73444 0.55831 0.070891 -0.98413727 0.0936035448 0.150705707 0 0
-0.740983 0.488105 0.089678 -0.247608908 0.269809707 0.930533476 0 0
-0.731055 0.487512 0.089015 0.708532951 -0.0143006651 0.705532812 0 0
-0.728042 0.560348 0.075778 -0.283417606 0.0724044979 0.956259405 0 0
-0.719838 0.561473 0.075549 0.71870157 0.0337000736 0.694501517 0 0
-0.730304 0.485566 0.079046 0.945141162 -0.25671118 -0.202008798 0 0
-0.71859 0.559786 0.067408 0.977296902 -0.0168999464 -0.21119933 0 0
-0.736757 0.635611 0.070362 -0.632616429 0.0421010934 -0.773320083 0 0
-0.740077 0.635999 0.075625 -0.974329459 -0.135204088 0.180005443 0 0
-0.731056 0.636634 0.068101 0.312108625 0.200605544 -0.928625663 0 0
-0.747206 0.709606 0.087268 0.281815262 0.377820461 -0.881947763 0 0
-0.750567 0.706211 0.08733 -0.628625378 0.111104485 -0.769731075 0 0
-0.753005 0.708556 0.092017 -0.935108206 -0.222001948 0.276202424 0 0
-0.735605 0.638181 0.079375 -0.274692037 -0.166695168 0.946972548 0 0
-0.729617 0.639847 0.079367 0.681037427 0.0322017697 0.731540203 0 0
-0.750055 0.707887 0.09335 -0.240317585 -0.290621266 0.92616777 0 0
-0.746579 0.711636 0.094557 0.648513694 -0.108602293 0.753415909 0 0
-0.728389 0.638689 0.073356 0.952898275 0.212499615 -0.216399608 0 0
-0.745266 0.708764 0.08943 0.921814874 0.293504736 -0.253204085 0 0
-0.757999 0.754718 0.10682 -0.622622178 0.2330083 -0.74702661 0 0
-0.760122 0.764059 0.113856 -0.963635829 0.0232008626 0.266209898 0 0
-0.757138 0.76481 0.11144 0.238707145 0.648719416 -0.722621628 0 0
-0.758459 0.767987 0.115159 0.131208465 0.722746626 0.678543774 0 0
-0.757774 0.755751 0.110587 -0.208307989 -0.369614175 0.905534728 0 0
-0.756913 0.765843 0.115207 0.698441862 0.0179010729 0.715442881 0 0
-0.754789 0.756501 0.108171 0.910826187 0.30190868 -0.281508093 0 0
3 0 1 2
3 0 3 1
3 0 4 3
3 0 5 4
3 0 6 5
3 0 7 6
3 0 8 7
3 0 2 8
3 9 10 11
3 9 12 10
3 9 1 12
3 9 2 1
3 9 8 2
3 9 13 8
3 9 14 13
3 9 11 14
3 15 4 5
3 15 16 4
3 15 10 16
3 15 11 10
3 15 14 11
3 15 17 14
3 15 6 17
3 15 5 6
3 18 8 19
3 18 7 8
3 18 6 7
3 18 20 6
3 18 21 20
3 18 22 21
3 18 23 22
3 18 19 23
3 24 14 25
3 24 13 14
3 24 8 13
3 24 19 8
3 24 23 19
3 24 26 23
3 24 27 26
3 24 25 27
3 28 6 20
3 28 17 6
3 28 14 17
3 28 25 14
3 28 27 25
3 28 29 27
3 28 21 29
3 28 20 21
3 30 23 31
3 30 22 23
3 30 21 22
3 30 32 21
3 30 33 32
3 30 34 33
3 30 35 34
3 30 31 35
3 36 27 37
3 36 26 27
3 36 23 26
3 36 31 23
3 36 35 31
3 36 38 35
3 36 39 38
3 36 37 39
3 40 21 32
3 40 29 21
3 40 27 29
3 40 37 27
3 40 39 37
3 40 41 39
3 40 33 41
3 40 32 33
3 42 35 43
3 42 34 35
3 42 33 34
3 42 44 33
3 42 45 44
3 42 46 45
3 42 47 46
3 42 43 47
3 48 39 49
3 48 38 39
3 48 35 38
3 48 43 35
3 48 47 43
3 48 50 47
3 48 51 50
3 48 49 51
3 52 33 44
3 52 41 33
3 52 39 41
3 52 49 39
3 52 51 49
3 52 53 51
3 52 45 53
3 52 44 45
3 54 47 55
3 54 46 47
3 54 45 46
3 54 56 45
3 54 57 56
3 54 55 57
3 58 51 59
3 58 50 51
3 58 47 50
3 58 55 47
3 58 57 55
3 58 59 57
3 60 45 56
3 60 53 45
3 60 51 53
3 60 59 51
3 60 57 59
3 60 56 57
3 61 62 63
3 61 64 62
3 61 65 64
3 61 66 65
3 61 67 66
3 61 68 67
3 61 69 68
3 61 63 69
3 70 71 72
3 70 73 71
3 70 62 73
3 70 63 62
3 70 69 63
3 70 74 69
3 70 75 74
3 70 72 75
3 76 65 66
3 76 77 65
3 76 71 77
3 76 72 71
3 76 75 72
3 76 78 75
3 76 67 78
3 76 66 67
3 79 69 80
3 79 68 69
3 79 67 68
3 79 81 67
3 79 82 81
3 79 83 82
3 79 84 83
3 79 80 84
3 85 75 86
3 85 74 75
3 85 69 74
3 85 80 69
3 85 84 80
3 85 87 84
3 85 88 87
3 85 86 88
3 89 67 81
3 89 78 67
3 89 75 78
3 89 86 75
3 89 88 86
3 89 90 88
3 89 82 90
3 89 81 82
3 91 84 92
3 91 83 84
3 91 82 83
3 91 93 82
3 91 94 93
3 91 95 94
3 91 96 95
3 91 92 96
3 97 88 98
3 97 87 88
3 97 84 87
3 97 92 84
3 97 96 92
3 97 99 96
3 97 100 99
3 97 98 100
3 101 82 93
3 101 90 82
3 101 88 90
3 101 98 88
3 101 100 98
3 101 102 100
3 101 94 102
3 101 93 94
3 103 96 104
3 103 95 96
3 103 94 95
3 103 105 94
3 103 106 105
3 103 107 106
3 103 108 107
3 103 104 108
3 109 100 110
3 109 99 100
3 109 96 99
3 109 104 96
3 109 108 104
3 109 111 108
3 109 112 111
3 109 110 112
3 113 94 105
3 113 102 94
3 113 100 102
3 113 110 100
3 113 112 110
3 113 114 112
3 113 106 114
3 113 105 106
3 115 108 116
3 115 107 108
3 115 106 107
3 115 117 106
3 115 118 117
3 115 116 118
3 119 112 120
3 119 111 112
3 119 108 111
3 119 116 108
3 119 118 116
3 119 120 118
3 121 106 117
3 121 114 106
3 121 112 114
3 121 120 112
3 121 118 120
3 121 117 118
3 122 123 124
3 122 125 123
3 122 126 125
3 122 127 126
3 122 128 127
3 122 129 128
3 122 130 129
3 122 124 130
3 131 132 133
3 131 134 132
3 131 123 134
3 131 124 123
3 131 130 124
3 131 135 130
3 131 136 135
3 131 133 136
3 137 126 127
3 137 138 126
3 137 132 138
3 137 133 132
3 137 136 133
3 137 139 136
3 137 128 139
3 137 127 128
3 140 130 141
3 140 129 130
3 140 128 129
3 140 142 128
3 140 143 142
3 140 144 143
3 140 145 144
3 140 141 145
3 146 136 147
3 146 135 136
3 146 130 135
3 146 141 130
3 146 145 141
3 146 148 145
3 146 149 148
3 146 147 149
3 150 128 142
3 150 139 128
3 150 136 139
3 150 147 136
3 150 149 147
3 150 151 149
3 150 143 151
3 150 142 143
3 152 145 153
3 152 144 145
3 152 143 144
3 152 154 143
3 152 155 154
3 152 156 155
3 152 157 156
3 152 153 157
3 158 149 159
3 158 148 149
3 158 145 148
3 158 153 145
3 158 157 153
3 158 160 157
3 158 161 160
3 158 159 161
3 162 143 154
3 162 151 143
3 162 149 151
3 162 159 149
3 162 161 159
3 162 163 161
3 162 155 163
3 162 154 155
3 164 157 165
3 164 156 157
3 164 155 156
3 164 166 155
3 164 167 166
3 164 168 167
3 164 169 168
3 164 165 169
3 170 161 171
3 170 160 161
3 170 157 160
3 170 165 157
3 170 169 165
3 170 172 169
3 170 173 172
3 170 171 173
3 174 155 166
3 174 163 155
3 174 161 163
3 174 171 161
3 174 173 171
3 174 175 173
3 174 167 175
3 174 166 167
3 176 169 177
3 176 168 169
3 176 167 168
3 176 178 167
3 176 179 178
3 176 177 179
3 180 173 181
3 180 172 173
3 180 169 172
3 180 177 169
3 180 179 177
3 180 181 179
3 182 167 178
3 182 175 167
3 182 173 175
3 182 181 173
3 182 179 181
3 182 178 179
3 183 184 185
3 183 186 184
3 183 187 186
3 183 188 187
3 183 189 188
3 183 190 189
3 183 191 190
3 183 185 191
3 192 193 194
3 192 195 193
3 192 184 195
3 192 185 184
3 192 191 185
3 192 196 191
3 192 197 196
3 192 194 197
3 198 187 188
3 198 199 187
3 198 193 199
3 198 194 193
3 198 197 194
3 198 200 197
3 198 189 200
3 198 188 189
3 201 191 202
3 201 190 191
3 201 189 190
3 201 203 189
3 201 204 203
3 201 205 204
3 201 206 205
3 201 202 206
3 207 197 208
3 207 196 197
3 207 191 196
3 207 202 191
3 207 206 202
3 207 209 206
3 207 210 209
3 207 208 210
3 211 189 203
3 211 200 189
3 211 197 200
3 211 208 197
3 211 210 208
3 211 212 210
3 211 204 212
3 211 203 204
3 213 206 214
3 213 205 206
3 213 204 205
3 213 215 204
3 213 216 215
3 213 217 216
3 213 218 217
3 213 214 218
3 219 210 220
3 219 209 210
3 219 206 209
3 219 214 206
3 219 218 214
3 219 221 218
3 219 222 221
3 219 220 222
3 223 204 215
3 223 212 204
3 223 210 212
3 223 220 210
3 223 222 220
3 223 224 222
3 223 216 224
3 223 215 216
3 225 218 226
3 225 217 218
3 225 216 217
3 225 227 216
3 225 228 227
3 225 229 228
3 225 230 229
3 225 226 230
3 231 222 232
3 231 221 222
3 231 218 221
3 231 226 218
3 231 230 226
3 231 233 230
3 231 234 233
3 231 232 234
3 235 216 227
3 235 224 216
3 235 222 224
3 235 232 222
3 235 234 232
3 235 236 234
3 235 228 236
3 235 227 228
3 237 230 238
3 237 229 230
3 237 228 229
3 237 239 228
3 237 240 239
3 237 238 240
3 241 234 242
3 241 233 234
3 241 230 233
3 241 238 230
3 241 240 238
3 241 242 240
3 243 228 239
3 243 236 228
3 243 234 236
3 243 242 234
3 243 240 242
3 243 239 240
