ply
format ascii 1.0
element vertex 748
property float x
property float y
property float z
property float nx
property float ny
property float nz
property float u
property float v
element face 816
property list uchar int vertex_indices
end_header
-0.905354 0.269877 -0.046103 -0.47988414 0.613479725 -0.627179272 0.534256 0.709559
-0.945011 0.30397 0.028951 -0.434808731 0.76641539 -0.472809494 0.150317 0.76837
-0.885988 0.306551 -0.019924 -0.392909628 0.76471874 -0.510712515 0.336506 0.483737
-0.953698 0.249099 -0.025761 -0.510092856 0.605791516 -0.610591449 0.491257 0.965403
-0.924406 0.21863 -0.072469 -0.512579138 0.535778194 -0.670972692 0.819521 0.943554
-0.872251 0.249658 -0.087538 -0.455891762 0.606189046 -0.651688224 0.740853 0.599345
-0.82284 0.304809 -0.063714 -0.344894099 0.766986877 -0.541090742 0.541148 0.2429
-0.858372 0.334577 0.016425 -0.294494508 0.87668365 -0.380392906 0.263333 0.369123
-0.818697 0.364204 0.068217 -0.253804867 0.910517459 -0.326406259 0.148355 0.134475
-0.801778 0.346708 0.006253 -0.263992186 0.883573847 -0.386788551 0.395838 -0.020532
-0.883226 0.346148 0.06803 -0.309006777 0.883319371 -0.352507731 -0.026908 0.466559
-0.62759 0.435719 0.115192 0.227894747 0.941178306 0.249494249 0.534256 0.709559
-0.671426 0.459125 0.03839 0.0195006107 0.982430765 0.185605812 0.150317 0.76837
-0.675825 0.44443 0.113516 0.0204011946 0.970356821 0.240814101 0.336506 0.483737
-0.600936 0.439948 0.06565 0.239088928 0.946556166 0.216489975 0.491257 0.965403
-0.570269 0.41575 0.115067 0.318991135 0.914274593 0.249693061 0.819521 0.943554
-0.608387 0.415514 0.164634 0.234010837 0.930343085 0.282313074 0.740853 0.599345
-0.682602 0.422473 0.186866 0.0112995822 0.955464672 0.294889097 0.541148 0.2429
-0.728817 0.438616 0.108288 -0.176506257 0.958633984 0.223307916 0.263333 0.369123
-0.79803 0.422268 0.099532 -0.250101483 0.944205599 0.214301271 0.148355 0.134475
-0.760227 0.419859 0.154277 -0.193097139 0.949085939 0.248896313 0.395838 -0.020532
-0.752776 0.444294 0.055294 -0.189096939 0.962584416 0.194096858 -0.026908 0.466559
-0.8799 0.262036 0.184221 -0.74380852 0.446805118 0.497105694 0.534256 0.709559
-0.818755 0.327582 0.202471 -0.665786042 0.630186788 0.399491625 0.150317 0.76837
-0.87224 0.300444 0.1547 -0.705392378 0.606593446 0.366696038 0.336506 0.483737
-0.847114 0.260411 0.230103 -0.721801989 0.451901245 0.524201444 0.491257 0.965403
-0.88228 0.210178 0.215678 -0.750414855 0.367607277 0.549310874 0.819521 0.943554
-0.91459 0.222175 0.163505 -0.766686526 0.426492504 0.479891566 0.740853 0.599345
-0.91997 0.270228 0.102574 -0.740319804 0.587915727 0.326008721 0.541148 0.2429
-0.853069 0.332695 0.116469 -0.640838951 0.732844544 0.228613896 0.263333 0.369123
-0.821911 0.369162 0.063236 -0.609396057 0.773694994 0.173298879 0.148355 0.134475
-0.874344 0.328164 0.061877 -0.65329819 0.730397977 0.199299448 0.395838 -0.020532
-0.806868 0.3664 0.128475 -0.615906596 0.75160805 0.236102529 -0.026908 0.466559
-0.765908 0.33986 -0.082381 0.0634049572 0.865867696 -0.496238797 0.534256 0.709559
-0.855085 0.34869 -0.064012 -0.0632967675 0.941651911 -0.330583118 0.150317 0.76837
-0.782831 0.360863 -0.041421 -0.00869987877 0.948286786 -0.317295579 0.336506 0.483737
-0.805702 0.320167 -0.117185 0.0344005941 0.856914799 -0.514308882 0.491257 0.965403
-0.745404 0.305533 -0.128051 0.0951970047 0.815774332 -0.57048205 0.819521 0.943554
-0.70971 0.332092 -0.084113 0.098202156 0.864918989 -0.492210807 0.740853 0.599345
-0.711098 0.366578 -0.014404 0.0427008297 0.954818552 -0.294105715 0.541148 0.2429
-0.800796 0.368949 0.008391 -0.076097307 0.98786504 -0.135395208 0.263333 0.369123
-0.823902 0.370983 0.076187 -0.101198595 0.992786215 -0.0642991072 0.148355 0.134475
-0.762042 0.375725 0.052046 -0.0544994569 0.992190113 -0.112198882 0.395838 -0.020532
-0.858034 0.3638 0.018973 -0.107699418 0.985594673 -0.130399295 -0.026908 0.466559
-0.871656 0.485257 -0.020032 -0.369802017 0.745204065 -0.554903027 0.534256 0.709559
-0.917492 0.481006 0.012733 -0.439401815 0.8233034 -0.359301484 0.150317 0.76837
-0.874818 0.500414 0.006005 -0.388021963 0.843847763 -0.370620978 0.336506 0.483737
-0.898217 0.464181 -0.02807 -0.399786421 0.726975309 -0.558281038 0.491257 0.965403
-0.865394 0.462121 -0.048862 -0.356187324 0.689475462 -0.630677555 0.819521 0.943554
-0.840086 0.487823 -0.035058 -0.337203949 0.752508812 -0.565706624 0.740853 0.599345
-0.830296 0.516469 0.002251 -0.335490128 0.865574531 -0.37178906 0.541148 0.2429
-0.874284 0.508867 0.037989 -0.389134498 0.903080062 -0.18171611 0.263333 0.369123
-0.871307 0.515243 0.081684 -0.385593721 0.916385077 -0.107498249 0.148355 0.134475
-0.844028 0.523238 0.051973 -0.362503629 0.916309172 -0.170201704 0.395838 -0.020532
-0.902159 0.499596 0.058961 -0.414608213 0.895117733 -0.163903247 -0.026908 0.466559
-0.775756 0.527672 0.207709 -0.12420407 0.87912881 0.460115078 0.534256 0.709559
-0.769707 0.550409 0.156339 -0.252390934 0.924766783 0.284789771 0.150317 0.76837
-0.798967 0.53206 0.188745 -0.283809746 0.901830969 0.325811189 0.336506 0.483737
-0.744604 0.537008 0.195194 -0.0961952611 0.891456083 0.442778187 0.491257 0.965403
-0.746442 0.516909 0.228458 -0.0497975724 0.856058268 0.51447492 0.819521 0.943554
-0.783457 0.509726 0.236824 -0.138103848 0.862124023 0.487513585 0.740853 0.599345
-0.827987 0.509487 0.218784 -0.321807099 0.876019325 0.359207924 0.541148 0.2429
-0.821698 0.528001 0.165048 -0.423214574 0.886730535 0.186006405 0.263333 0.369123
-0.849811 0.517649 0.13247 -0.472309817 0.871718119 0.130502713 0.148355 0.134475
-0.85237 0.51022 0.172832 -0.450305327 0.871610311 0.193702292 0.395838 -0.020532
-0.813516 0.537501 0.131202 -0.415606432 0.896013866 0.156302419 -0.026908 0.466559
-0.94046 0.425133 0.126566 -0.850036501 0.522622442 0.065602817 0.534256 0.709559
-0.914534 0.453697 0.167852 -0.713001062 0.696101037 0.0841001253 0.150317 0.76837
-0.923429 0.44967 0.121509 -0.725492683 0.687593066 0.0295997015 0.336506 0.483737
-0.942332 0.415179 0.159908 -0.849244209 0.518326982 0.100605237 0.491257 0.965403
-0.956401 0.391682 0.13227 -0.894315235 0.440007496 0.0812013833 0.819521 0.943554
-0.95134 0.408327 0.097788 -0.858914645 0.511008713 0.0337005746 0.740853 0.599345
-0.928047 0.443419 0.074672 -0.729087234 0.683888025 -0.0269995272 0.541148 0.2429
-0.897844 0.469758 0.115464 -0.578708698 0.815512257 -0.00600009018 0.263333 0.369123
-0.860515 0.492088 0.10729 -0.516411253 0.856118655 -0.0195004249 0.148355 0.134475
-0.887417 0.475264 0.081135 -0.570426052 0.820537475 -0.0365016671 0.395838 -0.020532
-0.878408 0.482116 0.143254 -0.56230483 0.826707101 0.0192001649 -0.026908 0.466559
-0.732079 0.487089 0.034816 0.0246996175 0.986184729 -0.163797464 0.534256 0.709559
-0.781962 0.479645 0.009345 -0.18929851 0.976192317 -0.105899167 0.150317 0.76837
-0.758502 0.488192 0.049589 -0.157596671 0.985679178 -0.0599987325 0.336506 0.483737
-0.734571 0.480054 0.000778 0.0157999333 0.980195864 -0.197399167 0.491257 0.965403
-0.699529 0.479821 0.017688 0.107196372 0.972067101 -0.208792934 0.819521 0.943554
-0.703548 0.488309 0.055151 0.0491001213 0.989102443 -0.138800343 0.740853 0.599345
-0.735427 0.492028 0.090904 -0.133796044 0.990970702 -0.0086997428 0.541148 0.2429
-0.785694 0.479872 0.066503 -0.323215508 0.945445364 0.0408019577 0.263333 0.369123
-0.820164 0.463584 0.088983 -0.383313813 0.920233161 0.0790028469 0.148355 0.134475
-0.783971 0.477485 0.102681 -0.32120508 0.944214933 0.0727011498 0.395838 -0.020532
-0.814994 0.46923 0.048308 -0.349092835 0.936780773 0.0239995074 -0.026908 0.466559
-0.878865 0.569289 0.055983 -0.107401501 0.927212963 -0.358805016 0.534256 0.709559
-0.913078 0.56221 0.055516 -0.278590036 0.935366547 -0.217892207 0.150317 0.76837
-0.89013 0.572332 0.070638 -0.231810454 0.953643006 -0.191908654 0.336506 0.483737
-0.888491 0.560571 0.038788 -0.128700419 0.914402976 -0.383801249 0.491257 0.965403
-0.864485 0.562115 0.039271 -0.0493985326 0.901673216 -0.429587239 0.819521 0.943554
-0.857735 0.572268 0.059809 -0.0751979727 0.934774799 -0.34719064 0.740853 0.599345
-0.866943 0.579756 0.087046 -0.189698564 0.969192663 -0.157098811 0.541148 0.2429
-0.900917 0.56998 0.087864 -0.339511331 0.940231381 -0.0264008811 0.263333 0.369123
-0.914101 0.56367 0.111004 -0.377399596 0.92529901 0.0372999601 0.148355 0.134475
-0.890812 0.573305 0.10763 -0.324794375 0.945783619 0.00139997575 0.395838 -0.020532
-0.921569 0.561607 0.08661 -0.369406132 0.928815418 -0.0290004814 -0.026908 0.466559
-0.901483 0.54532 0.174829 -0.42573317 0.718856008 0.549542817 0.534256 0.709559
-0.881115 0.567317 0.156881 -0.432389502 0.828179892 0.356591342 0.150317 0.76837
-0.906621 0.55302 0.158543 -0.480020044 0.798533343 0.363215166 0.336506 0.483737
-0.88172 0.550655 0.181559 -0.393701002 0.732101863 0.555901415 0.491257 0.965403
-0.893635 0.533094 0.192897 -0.394805612 0.672209556 0.626308903 0.819521 0.943554
-0.914968 0.530204 0.182553 -0.45157474 0.696561035 0.55756881 0.740853 0.599345
-0.930987 0.536641 0.158373 -0.528482214 0.769074117 0.359487902 0.541148 0.2429
-0.909479 0.556558 0.138595 -0.512292895 0.841288331 0.172597606 0.263333 0.369123
-0.911627 0.55838 0.111371 -0.519290048 0.848983729 0.0977981257 0.148355 0.134475
-0.926962 0.547061 0.128202 -0.537764398 0.828045181 0.158589501 0.395838 -0.020532
-0.893714 0.567512 0.127208 -0.489598421 0.857697234 0.156999494 -0.026908 0.466559
-0.951575 0.519157 0.079575 -0.766198743 0.582199045 -0.271999554 0.534256 0.709559
-0.954394 0.526661 0.113584 -0.676820478 0.725021936 -0.127503858 0.150317 0.76837
-0.942223 0.533177 0.087755 -0.655127116 0.734030382 -0.178907405 0.336506 0.483737
-0.963961 0.507546 0.092846 -0.785402686 0.568001943 -0.246000841 0.491257 0.965403
-0.960234 0.499702 0.070407 -0.805600185 0.504700116 -0.310300071 0.819521 0.943554
-0.946116 0.515204 0.05897 -0.754248811 0.581460538 -0.304979302 0.740853 0.599345
-0.927626 0.538148 0.06277 -0.625311362 0.747113575 -0.225404096 0.541148 0.2429
-0.92802 0.544107 0.097624 -0.523713978 0.847722626 -0.0842022474 0.263333 0.369123
-0.907234 0.55584 0.111018 -0.467912713 0.882523979 -0.047001277 0.148355 0.134475
-0.910783 0.552629 0.086044 -0.499798558 0.860197518 -0.101299708 0.395838 -0.020532
-0.928628 0.544971 0.119919 -0.525612875 0.849120799 -0.0522012787 -0.026908 0.466559
-0.803319 0.556394 0.110468 0.062302556 0.997540925 0.032101317 0.534256 0.709559
-0.82416 0.555711 0.077514 -0.151499489 0.988096665 -0.0266999099 0.150317 0.76837
-0.824225 0.556335 0.110196 -0.147306678 0.988644816 0.0297013464 0.336506 0.483737
-0.7929 0.555455 0.088812 0.071602258 0.997431454 -0.00190005992 0.491257 0.965403
-0.777765 0.552326 0.110773 0.156701249 0.987107867 0.0326002598 0.819521 0.943554
-0.793295 0.554078 0.132369 0.0708998263 0.995297562 0.0659998383 0.740853 0.599345
-0.824753 0.553646 0.142849 -0.152506885 0.984544448 0.0861038872 0.541148 0.2429
-0.846058 0.549651 0.109867 -0.339212163 0.940333716 0.0266009538 0.263333 0.369123
-0.873928 0.537155 0.109421 -0.409320364 0.912045375 0.0251012488 0.148355 0.134475
-0.857403 0.543964 0.131467 -0.353392591 0.933880421 0.0545988553 0.395838 -0.020532
-0.857008 0.545341 0.087911 -0.352919452 0.93565157 -0.00200011024 -0.026908 0.466559
-0.928107 0.609883 0.060141 -0.107401501 0.927212963 -0.358805016 0.534256 0.709559
-0.96232 0.602804 0.059673 -0.278590036 0.935366547 -0.217892207 0.150317 0.76837
-0.939372 0.612926 0.074796 -0.231810454 0.953643006 -0.191908654 0.336506 0.483737
-0.937734 0.601165 0.042946 -0.128700419 0.914402976 -0.383801249 0.491257 0.965403
-0.913727 0.602709 0.043428 -0.0494006546 0.901711948 -0.429505691 0.819521 0.943554
-0.906977 0.612863 0.063966 -0.0751979727 0.934774799 -0.34719064 0.740853 0.599345
-0.916185 0.620351 0.091204 -0.189698564 0.969192663 -0.157098811 0.541148 0.2429
-0.950159 0.610574 0.092022 -0.339511331 0.940231381 -0.0264008811 0.263333 0.369123
-0.963343 0.604264 0.115161 -0.377399596 0.92529901 0.0372999601 0.148355 0.134475
-0.940054 0.613899 0.111787 -0.324794375 0.945783619 0.00139997575 0.395838 -0.020532
-0.970811 0.602201 0.090767 -0.369406132 0.928815418 -0.0290004814 -0.026908 0.466559
-0.957671 0.595637 0.167199 -0.42573317 0.718856008 0.549542817 0.534256 0.709559
-0.940869 0.613784 0.152394 -0.432389502 0.828179892 0.356591342 0.150317 0.76837
-0.96191 0.601989 0.153764 -0.480020044 0.798533343 0.363215166 0.336506 0.483737
-0.941368 0.600038 0.172752 -0.393701002 0.732101863 0.555901415 0.491257 0.965403
-0.951197 0.585551 0.182105 -0.394805612 0.672209556 0.626308903 0.819521 0.943554
-0.968796 0.583167 0.173572 -0.45157474 0.696561035 0.55756881 0.740853 0.599345
-0.982011 0.588478 0.153624 -0.528482214 0.769074117 0.359487902 0.541148 0.2429
-0.964268 0.604908 0.137308 -0.512292895 0.841288331 0.172597606 0.263333 0.369123
-0.966039 0.606411 0.11485 -0.519290048 0.848983729 0.0977981257 0.148355 0.134475
-0.97869 0.597074 0.128735 -0.537764398 0.828045181 0.158589501 0.395838 -0.020532
-0.951262 0.613944 0.127915 -0.489598421 0.857697234 0.156999494 -0.026908 0.466559
-0.998481 0.561691 0.082151 -0.766198743 0.582199045 -0.271999554 0.534256 0.709559
-1.0013 0.569194 0.116159 -0.676820478 0.725021936 -0.127503858 0.150317 0.76837
-0.989129 0.57571 0.09033 -0.655127116 0.734030382 -0.178907405 0.336506 0.483737
-1.010867 0.550079 0.095421 -0.785358075 0.568069674 -0.245986868 0.491257 0.965403
-1.00714 0.542235 0.072982 -0.805600185 0.504700116 -0.310300071 0.819521 0.943554
-0.993022 0.557738 0.061546 -0.754248811 0.581460538 -0.304979302 0.740853 0.599345
-0.974532 0.580682 0.065346 -0.625311362 0.747113575 -0.225404096 0.541148 0.2429
-0.974925 0.586641 0.1002 -0.523713978 0.847722626 -0.0842022474 0.263333 0.369123
-0.95414 0.598373 0.113593 -0.467912713 0.882523979 -0.047001277 0.148355 0.134475
-0.957689 0.595163 0.088619 -0.499798558 0.860197518 -0.101299708 0.395838 -0.020532
-0.975534 0.587505 0.122495 -0.525612875 0.849120799 -0.0522012787 -0.026908 0.466559
-0.865618 0.595343 0.118625 0.047298695 0.980972935 0.188294805 0.534256 0.709559
-0.88139 0.599269 0.087695 -0.159695889 0.98117474 0.108597204 0.150317 0.76837
-0.88424 0.595383 0.116583 -0.160907597 0.973145943 0.164607771 0.336506 0.483737
-0.85447 0.597426 0.100303 0.0597986342 0.98597748 0.155796442 0.491257 0.965403
-0.842812 0.591633 0.120537 0.141399311 0.970295275 0.196299044 0.819521 0.943554
-0.858521 0.590292 0.138478 0.0526987592 0.973577077 0.222194768 0.740853 0.599345
-0.887466 0.588568 0.144957 -0.171392174 0.960556142 0.218990001 0.541148 0.2429
-0.903614 0.589565 0.113514 -0.351112323 0.926432514 0.135804766 0.263333 0.369123
-0.928301 0.578632 0.109036 -0.420485489 0.898868981 0.123395742 0.148355 0.134475
-0.915514 0.581625 0.13081 -0.367787008 0.915867648 0.160994313 0.395838 -0.020532
-0.911463 0.588759 0.092635 -0.36198861 0.926170859 0.105696674 -0.026908 0.466559
-0.538237 0.290144 0.110733 0.803899092 0.567599359 0.177699799 0.534256 0.709559
-0.534429 0.300634 0.019939 0.713919826 0.699819434 0.0239006637 0.150317 0.76837
-0.5621 0.325747 0.086893 0.695240989 0.714842145 0.0751044279 0.336506 0.483737
-0.508962 0.254947 0.077765 0.821115823 0.550010599 0.152502939 0.491257 0.965403
-0.51669 0.240737 0.138645 0.841694352 0.492296697 0.221798512 0.819521 0.943554
-0.550274 0.285815 0.166031 0.793603666 0.570602636 0.211200976 0.740853 0.599345
-0.596396 0.346937 0.152338 0.668309336 0.733910253 0.121401696 0.541148 0.2429
-0.599214 0.353503 0.060035 0.564418985 0.825127754 -0.0244008207 0.263333 0.369123
-0.65389 0.383295 0.024575 0.508424974 0.858842187 -0.0624030653 0.148355 0.134475
-0.64174 0.380854 0.089984 0.541974959 0.840361172 -0.00749965349 0.395838 -0.020532
-0.600429 0.349986 0.001718 0.564799184 0.82329881 -0.0563999185 -0.026908 0.466559
-0.852109 0.435719 0.059681 -0.301693186 0.941178744 -0.152196563 0.534256 0.709559
-0.783843 0.459125 0.115894 -0.0842018962 0.982422124 -0.166603752 0.150317 0.76837
-0.806426 0.44443 0.044108 -0.104605039 0.970346743 -0.217910497 0.336506 0.483737
-0.859419 0.439948 0.115461 -0.300388814 0.946564751 -0.117395628 0.491257 0.965403
-0.905644 0.41575 0.080167 -0.386978042 0.914248122 -0.119993191 0.819521 0.943554
-0.887627 0.415514 0.02029 -0.319110309 0.930330055 -0.180705838 0.740853 0.599345
-0.826155 0.422473 -0.026863 -0.11529451 0.955454507 -0.271687064 0.541148 0.2429
-0.755034 0.438616 0.030166 0.0856019873 0.958622255 -0.271506303 0.263333 0.369123
-0.687227 0.422268 0.013756 0.157698457 0.944190761 -0.28919717 0.148355 0.134475
-0.742015 0.419859 -0.023984 0.0920974715 0.949073944 -0.301291728 0.395838 -0.020532
-0.713807 0.444294 0.071188 0.107798838 0.962589623 -0.24859732 -0.026908 0.466559
-0.630087 0.278907 -0.107751 0.380830452 0.763861081 -0.521041664 0.534256 0.709559
-0.706334 0.323641 -0.084229 0.307692257 0.884777735 -0.349991193 0.150317 0.76837
-0.634146 0.30494 -0.066386 0.360912679 0.868330505 -0.340211952 0.336506 0.483737
-0.676655 0.27741 -0.139561 0.349608312 0.767718253 -0.537012768 0.491257 0.965403
-0.628558 0.239266 -0.153694 0.384278439 0.705260429 -0.595766572 0.819521 0.943554
-0.582296 0.24869 -0.112695 0.41238139 0.748666213 -0.519076575 0.740853 0.599345
-0.564795 0.28056 -0.04393 0.41189314 0.853085792 -0.320294666 0.541148 0.2429
-0.643878 0.319615 -0.015797 0.327903113 0.931808848 -0.155601477 0.263333 0.369123
-0.659588 0.330858 0.053204 0.311799418 0.946498235 -0.0831998448 0.148355 0.134475
-0.602982 0.309752 0.025237 0.350809105 0.926824056 -0.133903476 0.395838 -0.020532
-0.697342 0.338472 -0.001629 0.29851534 0.942748444 -0.148707642 -0.026908 0.466559
-0.658239 0.324499 0.201716 0.315603317 0.80590847 0.500905265 0.534256 0.709559
-0.581861 0.316651 0.151988 0.389096525 0.870392227 0.301697306 0.150317 0.76837
-0.652622 0.345604 0.157803 0.336402091 0.889405528 0.309501924 0.336506 0.483737
-0.614301 0.293653 0.219058 0.346286118 0.789468351 0.506779684 0.491257 0.965403
-0.668469 0.290682 0.251075 0.301706383 0.756215998 0.580612283 0.819521 0.943554
-0.710361 0.328291 0.223861 0.282390606 0.81257297 0.509883039 0.740853 0.599345
-0.725951 0.368608 0.159192 0.282989573 0.908666521 0.306988689 0.541148 0.2429
-0.652142 0.354813 0.105037 0.34210836 0.932422784 0.116402844 0.263333 0.369123
-0.654751 0.358888 0.033546 0.34069145 0.939276429 0.0410989686 0.148355 0.134475
-0.701215 0.373762 0.078842 0.315302288 0.943406844 0.102800746 0.395838 -0.020532
-0.605156 0.339124 0.074039 0.368507757 0.924219455 0.100102107 -0.026908 0.466559
-0.573485 0.49775 0.070083 0.542811896 0.745216332 0.387308488 0.534256 0.709559
-0.542282 0.493499 0.02317 0.538402816 0.823304306 0.17970094 0.150317 0.76837
-0.579781 0.512907 0.044622 0.494413903 0.843823729 0.208605866 0.336506 0.483737
-0.545801 0.476674 0.068159 0.572078419 0.726972575 0.379785673 0.491257 0.965403
-0.569094 0.474613 0.099257 0.557086889 0.689483773 0.462889106 0.819521 0.943554
-0.597655 0.500316 0.095346 0.51620008 0.752500117 0.409000063 0.740853 0.599345
-0.620064 0.528962 0.063951 0.445692704 0.86558583 0.228296263 0.541148 0.2429
-0.591645 0.52136 0.014915 0.428332458 0.903068433 0.0316023948 0.263333 0.369123
-0.609954 0.527736 -0.024871 0.398597911 0.916395198 -0.0365998082 0.148355 0.134475
-0.624896 0.535731 0.012595 0.399307134 0.91631637 0.0303005413 0.395838 -0.020532
-0.573042 0.512089 -0.014593 0.445725115 0.895150439 0.00590033246 -0.026908 0.466559
-0.746486 0.527672 -0.079447 -0.0474016778 0.879131117 -0.474216785 0.534256 0.709559
-0.733887 0.550409 -0.029279 0.134695694 0.924770436 -0.355888622 0.150317 0.76837
-0.718051 0.53206 -0.069967 0.149504287 0.90182586 -0.405411625 0.336506 0.483737
-0.771158 0.537008 -0.056678 -0.0673993594 0.891491526 -0.447995742 0.491257 0.965403
-0.78126 0.516909 -0.088425 -0.136195941 0.856074485 -0.49858514 0.819521 0.943554
-0.749633 0.509726 -0.109398 -0.0442001527 0.862102979 -0.504801744 0.740853 0.599345
-0.7016 0.509487 -0.108359 0.173203096 0.876015659 -0.450108046 0.541148 0.2429
-0.688384 0.528001 -0.055895 0.329503686 0.886709918 -0.324303627 0.263333 0.369123
-0.650529 0.517649 -0.035433 0.395110087 0.871722255 -0.289807399 0.148355 0.134475
-0.66248 0.51022 -0.07407 0.352098208 0.871595564 -0.341098264 0.395838 -0.020532
-0.684004 0.537501 -0.02135 0.332907183 0.896019332 -0.293806339 -0.026908 0.466559
-0.561145 0.408513 -0.07553 0.771230942 0.522620968 -0.36341458 0.534256 0.709559
-0.600048 0.437077 -0.104909 0.636608792 0.696109613 -0.331904584 0.150317 0.76837
-0.575266 0.43305 -0.064752 0.667621137 0.68762177 -0.285409036 0.336506 0.483737
-0.571242 0.398559 -0.107361 0.758096915 0.518297891 -0.395798389 0.491257 0.965403
-0.548271 0.375062 -0.086527 0.807127697 0.440015099 -0.393613507 0.819521 0.943554
-0.540748 0.391707 -0.052497 0.790895769 0.510997266 -0.336698199 0.740853 0.599345
-0.554308 0.426799 -0.022613 0.691099703 0.683899706 -0.233799899 0.541148 0.2429
-0.597034 0.453138 -0.05001 0.543030071 0.815545162 -0.200011076 0.263333 0.369123
-0.629022 0.475468 -0.029105 0.489622912 0.856140064 -0.165207731 0.148355 0.134475
-0.594582 0.458644 -0.014216 0.546205285 0.820507938 -0.168601631 0.395838 -0.020532
-0.625076 0.465496 -0.06908 0.518805287 0.826708424 -0.217702218 -0.026908 0.466559
-0.725878 0.487089 0.097683 0.0350994023 0.986183205 0.161897243 0.534256 0.709559
-0.670199 0.479645 0.103767 0.214501976 0.976208991 0.031700292 0.150317 0.76837
-0.706428 0.488192 0.074485 0.168597432 0.985684988 9.9998477e-05 0.336506 0.483737
-0.711454 0.480054 0.128614 0.0553989685 0.980181749 0.190196459 0.491257 0.965403
-0.750217 0.479821 0.12526 -0.0259995236 0.972082187 0.233195727 0.819521 0.943554
-0.759773 0.488309 0.088814 0.00340000304 0.989100885 0.147200132 0.740853 0.599345
-0.742678 0.492028 0.044066 0.128097248 0.990978709 -0.0393991535 0.541148 0.2429
-0.687021 0.479872 0.049013 0.287522081 0.94547261 -0.153011751 0.263333 0.369123
-0.662789 0.463584 0.015752 0.330209561 0.920226646 -0.210106084 0.148355 0.134475
-0.701488 0.477485 0.015808 0.274404197 0.944214442 -0.182102785 0.395838 -0.020532
-0.653169 0.46923 0.055609 0.317791526 0.936775021 -0.146496094 -0.026908 0.466559
-0.600726 0.57287 0.047557 0.227903864 0.927215721 0.297205039 0.534256 0.709559
-0.56858 0.565791 0.035837 0.337796088 0.935389168 0.104598789 0.150317 0.76837
-0.595404 0.575912 0.029856 0.284909976 0.953633392 0.0970033966 0.336506 0.483737
-0.585618 0.564152 0.060209 0.256693087 0.914375376 0.313091569 0.491257 0.965403
-0.608229 0.565696 0.068288 0.198795991 0.901681818 0.383992257 0.819521 0.943554
-0.621836 0.575849 0.05149 0.193694618 0.934774028 0.297791726 0.740853 0.599345
-0.622908 0.583337 0.022758 0.233099476 0.969197819 0.0794998211 0.541148 0.2429
-0.591442 0.573561 0.009921 0.326801588 0.940204569 -0.0960004666 0.263333 0.369123
-0.58734 0.56725 -0.016393 0.339499773 0.92529938 -0.168999887 0.148355 0.134475
-0.607911 0.576885 -0.004965 0.303096039 0.945787639 -0.116698475 0.395838 -0.020532
-0.571692 0.565188 0.003755 0.355603833 0.928810013 -0.104201123 -0.026908 0.466559
-0.610002 0.552491 -0.096265 0.202605551 0.718819696 -0.665018222 0.534256 0.709559
-0.622663 0.574488 -0.072251 0.277500957 0.828202857 -0.48690168 0.150317 0.76837
-0.599412 0.56019 -0.082867 0.319698026 0.798495069 -0.51009685 0.336506 0.483737
-0.630867 0.557826 -0.095533 0.170501627 0.732106988 -0.659506295 0.491257 0.965403
-0.623758 0.540265 -0.110366 0.146405396 0.672224775 -0.725726747 0.819521 0.943554
-0.600142 0.537375 -0.108277 0.223999315 0.696597868 -0.681597914 0.740853 0.599345
-0.576576 0.543812 -0.091367 0.366289572 0.769078105 -0.523785088 0.541148 0.2429
-0.589652 0.563729 -0.065237 0.417496764 0.84129348 -0.343397339 0.263333 0.369123
-0.577971 0.56555 -0.040552 0.450688215 0.8489778 -0.275892785 0.148355 0.134475
-0.569617 0.554232 -0.061735 0.446287105 0.828076073 -0.339290196 0.395838 -0.020532
-0.600342 0.574683 -0.048991 0.40181185 0.857725295 -0.320709458 -0.026908 0.466559
-0.544921 0.508568 -0.017303 0.812830612 0.582221927 -0.0180006779 0.534256 0.709559
-0.55437 0.516072 -0.050094 0.677992308 0.724991775 -0.121298624 0.150317 0.76837
-0.556569 0.522588 -0.021625 0.67599248 0.733991834 -0.0654992713 0.336506 0.483737
-0.538059 0.496957 -0.034109 0.821542286 0.568029237 -0.0491025274 0.491257 0.965403
-0.533569 0.489113 -0.01181 0.863289891 0.50469409 0.0037999555 0.819521 0.943554
-0.542702 0.504615 0.003897 0.813379336 0.581485228 0.0169995681 0.740853 0.599345
-0.561335 0.527559 0.006915 0.664606138 0.7471069 -0.0114001053 0.541148 0.2429
-0.573353 0.533518 -0.025804 0.519424307 0.847739671 -0.107405026 0.263333 0.369123
-0.597541 0.545251 -0.030937 0.454021791 0.882542359 -0.122405875 0.148355 0.134475
-0.58535 0.54204 -0.008854 0.503193285 0.860188521 -0.0828988937 0.395838 -0.020532
-0.580706 0.534382 -0.04686 0.509822726 0.849137851 -0.138006152 -0.026908 0.466559
-0.686169 0.556394 0.001654 -0.0696030887 0.997544267 -0.00780034615 0.534256 0.709559
-0.654978 0.555711 0.025052 0.151099393 0.988096033 -0.028899884 0.150317 0.76837
-0.666531 0.556335 -0.00552 0.127106331 0.988649246 -0.0801039901 0.336506 0.483737
-0.688213 0.555455 0.025599 -0.0663019132 0.997428781 0.0272007849 0.491257 0.965403
-0.710163 0.552326 0.010449 -0.158100232 0.987101451 0.025200037 0.819521 0.943554
-0.703321 0.554078 -0.015255 -0.0896999807 0.995299786 -0.0364999922 0.740853 0.599345
-0.67764 0.553646 -0.03623 0.111905262 0.984546299 -0.134706335 0.541148 0.2429
-0.646006 0.549651 -0.012971 0.307611842 0.940336199 -0.145405597 0.263333 0.369123
-0.619796 0.537155 -0.022458 0.373714407 0.91203516 -0.168906511 0.148355 0.134475
-0.643076 0.543964 -0.037193 0.310897578 0.933892725 -0.176598624 0.395838 -0.020532
-0.627968 0.545341 0.003662 0.330617198 0.935648669 -0.123506424 -0.026908 0.466559
-0.5575 0.606598 -0.011724 0.18880634 0.927231137 0.32341086 0.534256 0.709559
-0.532905 0.601379 -0.017326 0.322084539 0.935355099 0.146192982 0.150317 0.76837
-0.551972 0.608841 -0.024179 0.270414451 0.953650964 0.132007055 0.336506 0.483737
-0.547619 0.600171 -0.001074 0.215396084 0.914383377 0.342793768 0.491257 0.965403
-0.564904 0.60131 0.002746 0.149096384 0.90167813 0.405890155 0.819521 0.943554
-0.573305 0.608795 -0.010798 0.154798284 0.934789638 0.319696456 0.740853 0.599345
-0.571433 0.614315 -0.031913 0.221301513 0.969206625 0.108000738 0.541148 0.2429
-0.547232 0.607108 -0.038394 0.336209394 0.94022627 -0.0542015144 0.263333 0.369123
-0.5418 0.602456 -0.057262 0.358001056 0.92530273 -0.125100369 0.148355 0.134475
-0.557902 0.609559 -0.050804 0.315389334 0.945768015 -0.0777973689 0.395838 -0.020532
-0.532216 0.600935 -0.041079 0.365898227 0.9287955 -0.0587997151 -0.026908 0.466559
-0.565501 0.590963 -0.095929 0.202605551 0.718819696 -0.665018222 0.534256 0.709559
-0.574835 0.607181 -0.078225 0.277500957 0.828202857 -0.48690168 0.150317 0.76837
-0.557693 0.59664 -0.086052 0.319698026 0.798495069 -0.51009685 0.336506 0.483737
-0.580883 0.594897 -0.09539 0.170501627 0.732106988 -0.659506295 0.491257 0.965403
-0.575642 0.58195 -0.106325 0.146405396 0.672224775 -0.725726747 0.819521 0.943554
-0.558231 0.579819 -0.104785 0.223999315 0.696597868 -0.681597914 0.740853 0.599345
-0.540857 0.584565 -0.092318 0.366289572 0.769078105 -0.523785088 0.541148 0.2429
-0.550498 0.599249 -0.073053 0.417496764 0.84129348 -0.343397339 0.263333 0.369123
-0.541886 0.600592 -0.054855 0.450688215 0.8489778 -0.275892785 0.148355 0.134475
-0.535728 0.592247 -0.070472 0.446287105 0.828076073 -0.339290196 0.395838 -0.020532
-0.558379 0.607325 -0.061077 0.40181185 0.857725295 -0.320709458 -0.026908 0.466559
-0.5086 0.571766 -0.044072 0.812830612 0.582221927 -0.0180006779 0.534256 0.709559
-0.515567 0.577298 -0.068247 0.677992308 0.724991775 -0.121298624 0.150317 0.76837
-0.517188 0.582102 -0.047259 0.67599248 0.733991834 -0.0654992713 0.336506 0.483737
-0.503541 0.563206 -0.056462 0.821542286 0.568029237 -0.0491025274 0.491257 0.965403
-0.500232 0.557423 -0.040022 0.863289891 0.50469409 0.0037999555 0.819521 0.943554
-0.506965 0.568852 -0.028442 0.813379336 0.581485228 0.0169995681 0.740853 0.599345
-0.520702 0.585767 -0.026217 0.664606138 0.7471069 -0.0114001053 0.541148 0.2429
-0.529562 0.590161 -0.050339 0.519424307 0.847739671 -0.107405026 0.263333 0.369123
-0.547394 0.59881 -0.054124 0.454021791 0.882542359 -0.122405875 0.148355 0.134475
-0.538406 0.596443 -0.037843 0.503193285 0.860188521 -0.0828988937 0.395838 -0.020532
-0.534983 0.590797 -0.065863 0.509822726 0.849137851 -0.138006152 -0.026908 0.466559
-0.630353 0.598807 -0.025317 -0.111196048 0.980965137 -0.159194342 0.534256 0.709559
-0.60462 0.602733 -0.002009 0.110696302 0.98116722 -0.158294711 0.150317 0.76837
-0.612221 0.598847 -0.030024 0.0920042042 0.973144469 -0.211009642 0.336506 0.483737
-0.634262 0.60089 -0.004228 -0.111298098 0.98598315 -0.124297876 0.491257 0.965403
-0.65235 0.595096 -0.019 -0.201898527 0.970292922 -0.133299028 0.819521 0.943554
-0.644041 0.593755 -0.041351 -0.12819659 0.973574103 -0.188994973 0.740853 0.599345
-0.619288 0.592031 -0.057693 0.0823964784 0.960558947 -0.265588649 0.541148 0.2429
-0.593021 0.593029 -0.034039 0.280004221 0.926413966 -0.251703794 0.263333 0.369123
-0.568353 0.582096 -0.038626 0.349195122 0.898887443 -0.264696302 0.148355 0.134475
-0.588043 0.585088 -0.054436 0.286587704 0.915860706 -0.281187936 0.395838 -0.020532
-0.578264 0.592223 -0.017313 0.300885255 0.926154615 -0.227388857 -0.026908 0.466559
-0.88811 0.303961 0.200045 -0.705194073 0.567595229 0.424896429 0.534256 0.709559
-0.828326 0.314451 0.268484 -0.534018317 0.699824004 0.474416273 0.150317 0.76837
-0.85439 0.339564 0.200888 -0.555739767 0.714851153 0.424430371 0.336506 0.483737
-0.886621 0.268764 0.24411 -0.70028736 0.549990073 0.455091786 0.491257 0.965403
-0.922957 0.254553 0.194655 -0.762892177 0.492294952 0.419095702 0.819521 0.943554
-0.917477 0.299632 0.151669 -0.720731061 0.570624592 0.393616963 0.740853 0.599345
-0.874611 0.360753 0.129822 -0.568091882 0.733889513 0.372394679 0.541148 0.2429
-0.808984 0.36732 0.194791 -0.392313427 0.82512824 0.406513913 0.263333 0.369123
-0.744923 0.397112 0.182832 -0.325604388 0.858811573 0.395505329 0.148355 0.134475
-0.798788 0.394671 0.143787 -0.387685871 0.840369373 0.378786195 0.395838 -0.020532
-0.767931 0.363803 0.236228 -0.370501271 0.823302824 0.430001475 -0.026908 0.466559
-0.623987 0.435719 0.013199 0.323586952 0.941162048 -0.0974960686 0.534256 0.709559
-0.712196 0.459125 0.019476 0.175803583 0.982420022 0.0628012799 0.150317 0.76837
-0.646375 0.44443 0.055956 0.225912232 0.970352541 0.0859046514 0.336506 0.483737
-0.657113 0.439948 -0.032272 0.29859272 0.946576923 -0.121797031 0.491257 0.965403
-0.599291 0.41575 -0.03853 0.363185658 0.914263896 -0.179492912 0.819521 0.943554
-0.571105 0.415514 0.017286 0.355811178 0.930329227 -0.0888027898 0.740853 0.599345
-0.583184 0.422473 0.093813 0.270691204 0.955468953 0.117496182 0.541148 0.2429
-0.674024 0.438616 0.101465 0.124906467 0.95864963 0.255713239 0.263333 0.369123
-0.711873 0.422268 0.16007 0.0849011508 0.944212799 0.318204313 0.148355 0.134475
-0.64616 0.419859 0.149686 0.140798121 0.949087335 0.281796239 0.395838 -0.020532
-0.732167 0.444294 0.100128 0.0930982954 0.962582375 0.25449534 -0.026908 0.466559
-0.66267 0.283324 0.285955 0.126198664 0.446795271 0.885690625 0.534256 0.709559
-0.619754 0.348869 0.238733 0.0719992926 0.630193808 0.773092404 0.150317 0.76837
-0.685967 0.321732 0.266273 0.025300091 0.606602181 0.794602857 0.336506 0.483737
-0.607118 0.281698 0.276257 0.160195241 0.451886577 0.877573932 0.491257 0.965403
-0.635342 0.231466 0.301716 0.170406172 0.367613315 0.914233114 0.819521 0.943554
-0.69636 0.243463 0.308262 0.100804822 0.426520403 0.898842997 0.740853 0.599345
-0.753616 0.291516 0.28674 -0.0264999879 0.587899733 0.808499632 0.541148 0.2429
-0.712135 0.353983 0.232444 -0.0713047387 0.732848703 0.676644968 0.263333 0.369123
-0.746638 0.390449 0.181316 -0.107596513 0.773674929 0.624379767 0.148355 0.134475
-0.770557 0.349452 0.227995 -0.103099546 0.730396783 0.675197026 0.395838 -0.020532
-0.681315 0.387687 0.19599 -0.0538007597 0.751610613 0.657409283 -0.026908 0.466559
-0.94022 0.353127 -0.043909 -0.573822778 0.805931992 -0.14560578 0.534256 0.709559
-0.961329 0.345279 0.044752 -0.489890562 0.870383232 0.0493990483 0.150317 0.76837
-0.914041 0.374232 -0.008208 -0.457093708 0.889387758 0.00739989814 0.336506 0.483737
-0.984016 0.322281 -0.026213 -0.600094089 0.789492224 -0.128798731 0.491257 0.965403
-0.966805 0.319311 -0.086736 -0.618687707 0.756184975 -0.213095766 0.819521 0.943554
-0.917691 0.35692 -0.095866 -0.555968097 0.812553373 -0.175089953 0.740853 0.599345
-0.861842 0.397237 -0.059728 -0.416588958 0.908675916 -0.0275992685 0.541148 0.2429
-0.878041 0.383441 0.030373 -0.328119555 0.932455571 0.151209012 0.263333 0.369123
-0.826902 0.387516 0.080399 -0.275291935 0.939272484 0.204893998 0.148355 0.134475
-0.824423 0.40239 0.015557 -0.299403192 0.943410057 0.14260152 0.395838 -0.020532
-0.890748 0.367752 0.08521 -0.336014898 0.924240977 0.181308038 -0.026908 0.466559
-0.851524 0.485257 0.174695 -0.660304378 0.745204941 0.0931006173 0.534256 0.709559
-0.841826 0.481006 0.230196 -0.514097414 0.823295859 0.24059879 0.150317 0.76837
-0.829421 0.500414 0.188814 -0.502115732 0.843826437 0.189305931 0.336506 0.483737
-0.870266 0.464181 0.19516 -0.676291841 0.726991229 0.118798567 0.491257 0.965403
-0.874804 0.462121 0.156572 -0.722689601 0.689490078 0.0481993064 0.819521 0.943554
-0.851406 0.487823 0.139732 -0.655915129 0.752517357 0.0591013632 0.740853 0.599345
-0.813535 0.516469 0.147054 -0.480383242 0.865569805 0.141495064 0.541148 0.2429
-0.800357 0.508867 0.202176 -0.332321485 0.903058385 0.272117593 0.263333 0.369123
-0.759678 0.515243 0.218404 -0.263794644 0.916381393 0.301093886 0.148355 0.134475
-0.774655 0.523238 0.180953 -0.310307542 0.916322271 0.253106152 0.395838 -0.020532
-0.793515 0.499596 0.236381 -0.327118604 0.895150909 0.302817222 -0.026908 0.466559
-0.634132 0.520608 0.196811 0.361014257 0.879134718 0.311112286 0.534256 0.709559
-0.677824 0.543345 0.169124 0.147499869 0.924799177 0.350699688 0.150317 0.76837
-0.661275 0.524995 0.209527 0.170908521 0.901844963 0.396819784 0.336506 0.483737
-0.631932 0.529943 0.163311 0.357494747 0.8914869 0.27829591 0.491257 0.965403
-0.60274 0.509844 0.179365 0.442187219 0.856075256 0.267592265 0.819521 0.943554
-0.611219 0.502662 0.216355 0.37970973 0.862122092 0.335508598 0.740853 0.599345
-0.646754 0.502423 0.24869 0.184598844 0.875994516 0.445597211 0.541148 0.2429
-0.692475 0.520937 0.219763 -0.0153999195 0.886695363 0.462097583 0.263333 0.369123
-0.734011 0.510585 0.231006 -0.0867045686 0.871745934 0.482225409 0.148355 0.134475
-0.698732 0.503155 0.250782 -0.0202999727 0.871598828 0.489799341 0.395838 -0.020532
-0.719446 0.530437 0.197738 -0.0389008072 0.896018593 0.442309178 -0.026908 0.466559
-0.738407 0.426051 0.30254 -0.208706886 0.522617244 0.826627275 0.534256 0.709559
-0.691011 0.454615 0.291127 -0.147600906 0.696104271 0.70260431 0.150317 0.76837
-0.737772 0.450588 0.284786 -0.203196707 0.687588858 0.697088704 0.336506 0.483737
-0.707402 0.416096 0.314943 -0.175305787 0.51831711 0.837027631 0.491257 0.965403
-0.738082 0.392599 0.319468 -0.208109588 0.440020272 0.873540245 0.819521 0.943554
-0.769152 0.409244 0.30368 -0.241814113 0.511029825 0.824848139 0.740853 0.599345
-0.783637 0.444337 0.274234 -0.25798846 0.683869411 0.682469474 0.541148 0.2429
-0.735346 0.470676 0.258609 -0.190201155 0.815504954 0.546603321 0.263333 0.369123
-0.731195 0.493005 0.220622 -0.183107777 0.856136361 0.483220523 0.148355 0.134475
-0.764561 0.476182 0.237783 -0.216400431 0.820501633 0.529101053 0.395838 -0.020532
-0.70281 0.483034 0.249045 -0.161098799 0.826693837 0.539095981 -0.026908 0.466559
-0.741669 0.487089 0.072607 -0.136996871 0.986177476 -0.0931978714 0.534256 0.709559
-0.786221 0.479645 0.106551 -0.177302059 0.976211339 0.12480145 0.150317 0.76837
-0.739788 0.488192 0.102821 -0.122297494 0.985679799 0.116097621 0.336506 0.483737
-0.773432 0.480054 0.060121 -0.171099372 0.980196403 -0.0996996341 0.491257 0.965403
-0.743023 0.479821 0.03585 -0.141796125 0.972073439 -0.18699489 0.819521 0.943554
-0.710989 0.488309 0.055687 -0.103899305 0.989093383 -0.104399302 0.740853 0.599345
-0.692556 0.492028 0.0999 -0.0656979273 0.990968735 0.116896312 0.541148 0.2429
-0.73631 0.479872 0.134654 -0.10310558 0.945451164 0.309016723 0.263333 0.369123
-0.730963 0.463584 0.175458 -0.0947007496 0.920207283 0.379803006 0.148355 0.134475
-0.702949 0.477485 0.148759 -0.0735015843 0.944220353 0.321006919 0.395838 -0.020532
-0.765392 0.46923 0.153193 -0.129398149 0.936786599 0.32509535 -0.026908 0.466559
-0.797861 0.57287 0.195155 -0.369911762 0.927229482 -0.0584018569 0.534256 0.709559
-0.81309 0.565791 0.225795 -0.316987357 0.935362694 0.156893742 0.150317 0.76837
-0.789525 0.575912 0.211653 -0.273314123 0.953649276 0.125906506 0.336506 0.483737
-0.817529 0.564152 0.196391 -0.401699948 0.914399881 -0.0500999935 0.491257 0.965403
-0.806703 0.565696 0.174959 -0.408597792 0.901695126 -0.141399236 0.819521 0.943554
-0.785267 0.575849 0.177762 -0.345495243 0.934787128 -0.082498864 0.740853 0.599345
-0.764698 0.583337 0.197852 -0.223700075 0.969200325 0.103000035 0.541148 0.2429
-0.778665 0.573561 0.228833 -0.170800276 0.940201518 0.294700476 0.263333 0.369123
-0.763512 0.56725 0.250733 -0.129698499 0.925289294 0.356395877 0.148355 0.134475
-0.756473 0.576885 0.228278 -0.139298211 0.945787851 0.293396231 0.395838 -0.020532
-0.788734 0.565188 0.246907 -0.186001331 0.928806646 0.320502293 -0.026908 0.466559
-0.689095 0.549 0.287806 0.311124392 0.718856357 0.621648736 0.534256 0.709559
-0.696459 0.570998 0.261677 0.134300232 0.828201433 0.544100941 0.150317 0.76837
-0.706001 0.5567 0.285389 0.119698184 0.798487887 0.58999105 0.336506 0.483737
-0.674474 0.554335 0.272903 0.330796808 0.732092935 0.595494254 0.491257 0.965403
-0.66941 0.536774 0.288552 0.393812821 0.672221885 0.62692041 0.819521 0.943554
-0.687968 0.533884 0.303306 0.307192941 0.696583993 0.6483851 0.740853 0.599345
-0.7167 0.540322 0.307281 0.0952990041 0.769091963 0.631993396 0.541148 0.2429
-0.725221 0.560238 0.279332 -0.0661004247 0.841305405 0.536503447 0.263333 0.369123
-0.750692 0.56206 0.269485 -0.136602136 0.849013279 0.510407983 0.148355 0.134475
-0.742156 0.550742 0.290594 -0.0897970722 0.828073001 0.553381957 0.395838 -0.020532
-0.728662 0.571193 0.260192 -0.0703007779 0.857709491 0.509305635 -0.026908 0.466559
-0.793689 0.512842 0.284886 -0.576804591 0.582204634 0.573004561 0.534256 0.709559
-0.76425 0.520346 0.302147 -0.40789339 0.724988252 0.554991006 0.150317 0.76837
-0.782267 0.526862 0.279995 -0.444908093 0.734013352 0.513109334 0.336506 0.483737
-0.787086 0.501231 0.301796 -0.561718779 0.568018989 0.601520109 0.491257 0.965403
-0.805701 0.493386 0.288724 -0.628414372 0.504711543 0.591913537 0.819521 0.943554
-0.809901 0.508889 0.271047 -0.601361451 0.581462727 0.547964874 0.740853 0.599345
-0.798473 0.531833 0.256023 -0.473902647 0.747104173 0.466102603 0.541148 0.2429
-0.767223 0.537792 0.271463 -0.302613707 0.847738399 0.435619732 0.263333 0.369123
-0.746153 0.549524 0.258522 -0.24480789 0.882528444 0.401512941 0.148355 0.134475
-0.770202 0.546314 0.250912 -0.307695658 0.860187863 0.406694262 0.395838 -0.020532
-0.747387 0.538656 0.281661 -0.274513383 0.849141397 0.451221998 -0.026908 0.466559
-0.704303 0.556394 0.169571 0.0559022264 0.997539728 -0.0423016847 0.534256 0.709559
-0.743031 0.555711 0.174096 -0.0896002343 0.988102584 0.125000327 0.150317 0.76837
-0.713597 0.556335 0.1883 -0.0370018812 0.988650264 0.145607403 0.336506 0.483737
-0.719317 0.555455 0.150806 0.0293008437 0.997428721 -0.0654018833 0.491257 0.965403
-0.692968 0.552326 0.146667 0.0972993413 0.987093317 -0.127199139 0.819521 0.943554
-0.680222 0.554078 0.170014 0.0901998097 0.9952979 -0.0352999255 0.740853 0.599345
-0.684389 0.553646 0.202909 0.0117006013 0.984550592 0.174708978 0.541148 0.2429
-0.723343 0.549651 0.20784 -0.122804715 0.9403361 0.317312182 0.263333 0.369123
-0.735807 0.537155 0.232772 -0.15450477 0.912028155 0.379911728 0.148355 0.134475
-0.708781 0.543964 0.227416 -0.103797691 0.933879226 0.342192388 0.395838 -0.020532
-0.747876 0.545341 0.208208 -0.154605581 0.935633772 0.317311454 -0.026908 0.466559
-0.802474 0.606425 0.255936 -0.369911762 0.927229482 -0.0584018569 0.534256 0.709559
-0.817703 0.599345 0.286576 -0.316987357 0.935362694 0.156893742 0.150317 0.76837
-0.794138 0.609467 0.272434 -0.273314123 0.953649276 0.125906506 0.336506 0.483737
-0.822141 0.597706 0.257171 -0.401699948 0.914399881 -0.0500999935 0.491257 0.965403
-0.811316 0.599251 0.235739 -0.408597792 0.901695126 -0.141399236 0.819521 0.943554
-0.78988 0.609404 0.238543 -0.345495243 0.934787128 -0.082498864 0.740853 0.599345
-0.769311 0.616892 0.258632 -0.223700075 0.969200325 0.103000035 0.541148 0.2429
-0.783278 0.607116 0.289613 -0.170800276 0.940201518 0.294700476 0.263333 0.369123
-0.768124 0.600805 0.311514 -0.129698499 0.925289294 0.356395877 0.148355 0.134475
-0.761086 0.61044 0.289059 -0.139298211 0.945787851 0.293396231 0.395838 -0.020532
-0.793347 0.598743 0.307688 -0.186001331 0.928806646 0.320502293 -0.026908 0.466559
-0.711772 0.591684 0.336483 0.311124392 0.718856357 0.621648736 0.534256 0.709559
-0.719136 0.613682 0.310354 0.134300232 0.828201433 0.544100941 0.150317 0.76837
-0.728678 0.599384 0.334066 0.119698184 0.798487887 0.58999105 0.336506 0.483737
-0.697151 0.59702 0.32158 0.330796808 0.732092935 0.595494254 0.491257 0.965403
-0.692087 0.579458 0.337229 0.393812821 0.672221885 0.62692041 0.819521 0.943554
-0.710645 0.576569 0.351983 0.307192941 0.696583993 0.6483851 0.740853 0.599345
-0.739377 0.583006 0.355958 0.0952990041 0.769091963 0.631993396 0.541148 0.2429
-0.747898 0.602923 0.328009 -0.0661004247 0.841305405 0.536503447 0.263333 0.369123
-0.773369 0.604744 0.318162 -0.136602136 0.849013279 0.510407983 0.148355 0.134475
-0.764833 0.593426 0.339272 -0.0897970722 0.828073001 0.553381957 0.395838 -0.020532
-0.751339 0.613877 0.308869 -0.0703007779 0.857709491 0.509305635 -0.026908 0.466559
-0.81223 0.558415 0.32952 -0.576804591 0.582204634 0.573004561 0.534256 0.709559
-0.782791 0.565919 0.346781 -0.40789339 0.724988252 0.554991006 0.150317 0.76837
-0.800808 0.572435 0.324629 -0.44482788 0.734046008 0.513132162 0.336506 0.483737
-0.805628 0.546804 0.34643 -0.561718779 0.568018989 0.601520109 0.491257 0.965403
-0.824242 0.53896 0.333358 -0.628414372 0.504711543 0.591913537 0.819521 0.943554
-0.828442 0.554462 0.315681 -0.601361451 0.581462727 0.547964874 0.740853 0.599345
-0.817014 0.577406 0.300657 -0.473902647 0.747104173 0.466102603 0.541148 0.2429
-0.785764 0.583365 0.316097 -0.302613707 0.847738399 0.435619732 0.263333 0.369123
-0.764694 0.595098 0.303156 -0.24480789 0.882528444 0.401512941 0.148355 0.134475
-0.788743 0.591887 0.295546 -0.307695658 0.860187863 0.406694262 0.395838 -0.020532
-0.765928 0.584229 0.326295 -0.274513383 0.849141397 0.451221998 -0.026908 0.466559
-0.726185 0.598807 0.227572 0.190292338 0.980960502 0.0387984378 0.534256 0.709559
-0.760895 0.602733 0.228402 0.0287990802 0.981168662 0.1909939 0.150317 0.76837
-0.736086 0.598847 0.243475 0.0787038176 0.973147204 0.216310492 0.336506 0.483737
-0.737878 0.60089 0.209592 0.166297178 0.985983268 0.0134997709 0.491257 0.965403
-0.714591 0.595096 0.20784 0.238196715 0.97028662 -0.0424994139 0.819521 0.943554
-0.705217 0.593755 0.229766 0.223095286 0.973579428 0.048698971 0.740853 0.599345
-0.711903 0.592031 0.258664 0.123195005 0.960561055 0.249289893 0.541148 0.2429
-0.747238 0.593029 0.259612 -0.0294998175 0.92639427 0.375397678 0.263333 0.369123
-0.76196 0.582096 0.279929 -0.0707998722 0.898898377 0.43239922 0.148355 0.134475
-0.736796 0.585088 0.277826 -0.0139992266 0.915849401 0.40127783 0.395838 -0.020532
-0.769457 0.592223 0.257651 -0.0613977035 0.926165358 0.372086082 -0.026908 0.466559
-0.93119 0.398555 0.204952 -0.631428791 0.757934559 0.163807469 0.534256 0.709559
-0.84835 0.443759 0.262554 -0.452687517 0.88307565 0.123496595 0.150317 0.76837
-0.889843 0.433191 0.180366 -0.480604064 0.873707387 0.0752006358 0.336506 0.483737
-0.923143 0.38716 0.271695 -0.622914125 0.756817161 0.19800449 0.491257 0.965403
-0.974937 0.346836 0.233121 -0.69080678 0.694306815 0.201801981 0.819521 0.943554
-0.974234 0.368576 0.160744 -0.650908686 0.746709965 0.136901827 0.740853 0.599345
-0.924987 0.415883 0.096128 -0.49939551 0.866092214 0.0220998013 0.541148 0.2429
-0.835798 0.454348 0.15168 -0.318904506 0.947713391 -0.0118001667 0.263333 0.369123
-0.760304 0.472369 0.113259 -0.253589519 0.966260065 -0.0450981361 0.148355 0.134475
-0.831146 0.452264 0.080836 -0.317693714 0.94718126 -0.0437991334 0.395838 -0.020532
-0.780055 0.470848 0.191787 -0.29420513 0.955716663 0.00700012205 -0.026908 0.466559
-0.630185 0.387641 -0.122363 0.336013103 0.746029092 -0.57492242 0.534256 0.709559
-0.734335 0.424681 -0.120198 0.209299478 0.871697825 -0.443098894 0.150317 0.76837
-0.65068 0.424063 -0.080327 0.261490364 0.868268005 -0.421584465 0.336506 0.483737
-0.676242 0.368744 -0.168957 0.308580373 0.740952873 -0.596462063 0.491257 0.965403
-0.608574 0.333887 -0.167371 0.364984284 0.679570738 -0.636372598 0.819521 0.943554
-0.566839 0.363534 -0.111776 0.36870167 0.738203344 -0.564902559 0.740853 0.599345
-0.570231 0.416866 -0.034427 0.309211896 0.866933351 -0.390915039 0.541148 0.2429
-0.677587 0.447325 -0.026232 0.180903715 0.94861948 -0.259605331 0.263333 0.369123
-0.715229 0.468177 0.048924 0.147998951 0.969593131 -0.194898619 0.148355 0.134475
-0.637943 0.453061 0.032421 0.199403454 0.951616482 -0.23380405 0.395838 -0.020532
-0.747345 0.458271 -0.02476 0.149205621 0.954035944 -0.259909792 -0.026908 0.466559
-0.577842 0.357772 0.297533 0.23279645 0.778488128 0.582891111 0.534256 0.709559
-0.567811 0.414413 0.203113 0.100897973 0.890382112 0.443891082 0.150317 0.76837
-0.623232 0.385748 0.271634 0.0703007469 0.870509249 0.487105176 0.336506 0.483737
-0.518681 0.361717 0.263863 0.260395551 0.785086587 0.561990398 0.491257 0.965403
-0.524714 0.313976 0.322862 0.303300537 0.725401284 0.617901094 0.819521 0.943554
-0.594501 0.31879 0.351466 0.218598661 0.761495336 0.610196263 0.740853 0.599345
-0.681541 0.350023 0.334519 0.0315981674 0.851150635 0.523969611 0.541148 0.2429
-0.674397 0.399604 0.234464 -0.0860984111 0.922082983 0.377293037 0.263333 0.369123
-0.741962 0.408099 0.180958 -0.145100218 0.932301403 0.331300499 0.148355 0.134475
-0.739333 0.381539 0.256863 -0.115101762 0.914313994 0.388305943 0.395838 -0.020532
-0.663513 0.424465 0.16926 -0.0804002504 0.934002909 0.348101084 -0.026908 0.466559
-0.878577 0.556862 0.041888 -0.623723035 0.748227633 -0.22610835 0.534256 0.709559
-0.859204 0.583928 0.101517 -0.459020278 0.875738687 -0.149606609 0.150317 0.76837
-0.849541 0.578899 0.045323 -0.452593066 0.867786706 -0.205196856 0.336506 0.483737
-0.898869 0.548514 0.077836 -0.637086437 0.746084116 -0.193595878 0.491257 0.965403
-0.909862 0.524198 0.039115 -0.692497043 0.682997084 -0.232299008 0.819521 0.943554
-0.883313 0.539079 0.003721 -0.623208822 0.737710442 -0.259603675 0.740853 0.599345
-0.83587 0.569775 -0.009655 -0.435993083 0.861786328 -0.259295886 0.541148 0.2429
-0.812488 0.592746 0.051191 -0.272690945 0.945568603 -0.177594103 0.263333 0.369123
-0.761162 0.604937 0.060048 -0.200899781 0.965598947 -0.16509982 0.148355 0.134475
-0.78418 0.592905 0.017676 -0.25269883 0.94609562 -0.202599062 0.395838 -0.020532
-0.799736 0.60234 0.091791 -0.264201716 0.95310619 -0.147600959 -0.026908 0.466559
-0.614916 0.590558 0.016278 0.41949704 0.886893743 -0.193498635 0.534256 0.709559
-0.670501 0.602602 -0.021522 0.213499954 0.963299793 -0.162699965 0.150317 0.76837
-0.645528 0.605308 0.029912 0.241415222 0.963760767 -0.113507157 0.336506 0.483737
-0.616718 0.580551 -0.024592 0.41250555 0.882011868 -0.227803065 0.491257 0.965403
-0.580093 0.565907 0.001013 0.494331309 0.839053143 -0.227214391 0.819521 0.943554
-0.585256 0.580844 0.044936 0.440503705 0.88230742 -0.165801394 0.740853 0.599345
-0.623307 0.603042 0.082769 0.26001226 0.963745442 -0.0599028245 0.541148 0.2429
-0.681645 0.610115 0.046391 0.0637012721 0.997419919 -0.033100661 0.263333 0.369123
-0.730232 0.609911 0.068766 -0.00509992447 0.99998519 -0.00189997186 0.148355 0.134475
-0.685348 0.61018 0.090105 0.0617992495 0.998087878 -0.00119998543 0.395838 -0.020532
-0.716811 0.609887 0.020577 0.0383989199 0.99787193 -0.0526985176 -0.026908 0.466559
-0.738717 0.5549 0.192247 -0.198517131 0.865474685 0.45993969 0.534256 0.709559
-0.680417 0.576954 0.164348 -0.131896875 0.954377391 0.267893654 0.150317 0.76837
-0.737005 0.570179 0.159019 -0.187706744 0.94543397 0.266309569 0.336506 0.483737
-0.701675 0.550966 0.211898 -0.165303786 0.866119839 0.471710805 0.491257 0.965403
-0.739563 0.529721 0.229912 -0.200501357 0.816505528 0.541403665 0.819521 0.943554
-0.776436 0.53869 0.202728 -0.231902678 0.855209878 0.463505354 0.740853 0.599345
-0.792559 0.558541 0.150593 -0.242506647 0.936225662 0.254306971 0.541148 0.2429
-0.733226 0.575731 0.119598 -0.170205269 0.982730421 0.0726022474 0.263333 0.369123
-0.727209 0.576591 0.066452 -0.161803336 0.986820343 -0.00230004742 0.148355 0.134475
-0.7682 0.569937 0.093755 -0.196306473 0.979032284 0.0544017939 0.395838 -0.020532
-0.693439 0.582213 0.102925 -0.140807079 0.988149675 0.0611030717 -0.026908 0.466559
-0.761209 0.488145 -0.077948 -0.119398381 0.824988813 -0.55239251 0.534256 0.709559
-0.810093 0.504592 -0.033189 -0.134104569 0.925231523 -0.354912092 0.150317 0.76837
-0.754624 0.506812 -0.047148 -0.0802045666 0.924752652 -0.372021182 0.336506 0.483737
-0.801327 0.47657 -0.08345 -0.154199352 0.819396554 -0.552097678 0.491257 0.965403
-0.768296 0.459104 -0.112004 -0.135601757 0.767609948 -0.626408118 0.819521 0.943554
-0.72676 0.476487 -0.099691 -0.087797917 0.81938056 -0.56648656 0.740853 0.599345
-0.698241 0.504467 -0.057551 -0.0237997923 0.925091929 -0.378996693 0.541148 0.2429
-0.746211 0.516351 -0.009236 -0.039599981 0.981599529 -0.18679991 0.263333 0.369123
-0.734553 0.522569 0.042599 -0.0237004933 0.993220674 -0.113802369 0.148355 0.134475
-0.704264 0.518796 0.003378 -0.00890015584 0.983917229 -0.178403124 0.395838 -0.020532
-0.778832 0.51888 0.019618 -0.0641004086 0.984006273 -0.16620106 -0.026908 0.466559
-0.80833 0.655762 0.00562 -0.348203694 0.809508589 -0.472705015 0.534256 0.709559
-0.82249 0.667758 0.043554 -0.270105718 0.916619405 -0.294706239 0.150317 0.76837
-0.795884 0.667801 0.020207 -0.229912579 0.913950003 -0.334418297 0.336506 0.483737
-0.832046 0.649254 0.014194 -0.379109194 0.805019522 -0.456311066 0.491257 0.965403
-0.822049 0.637259 -0.010339 -0.397004556 0.75030861 -0.528606066 0.819521 0.943554
-0.79559 0.647468 -0.015721 -0.326587889 0.802470241 -0.499381481 0.740853 0.599345
-0.767806 0.665079 -0.00132 -0.182907372 0.912336772 -0.366314765 0.541148 0.2429
-0.780494 0.674311 0.038435 -0.10860447 0.975640158 -0.190607846 0.263333 0.369123
-0.759417 0.678994 0.063496 -0.0610977975 0.989164341 -0.133495188 0.148355 0.134475
-0.753835 0.675291 0.033502 -0.0774002365 0.977302986 -0.197200602 0.395838 -0.020532
-0.790291 0.677077 0.063417 -0.121093755 0.979449486 -0.161291682 -0.026908 0.466559
-0.650772 0.673724 0.107694 0.401999759 0.901799459 0.158599905 0.534256 0.709559
-0.662575 0.682308 0.068066 0.220408858 0.973939143 0.0535021503 0.150317 0.76837
-0.671139 0.682087 0.102411 0.210401765 0.971508151 0.109100915 0.336506 0.483737
-0.635166 0.669167 0.087347 0.418700463 0.899100993 0.127700141 0.491257 0.965403
-0.627461 0.659343 0.113611 0.483300645 0.857001144 0.178800239 0.819521 0.943554
-0.647729 0.666777 0.132775 0.400590694 0.895679194 0.193095514 0.740853 0.599345
-0.681419 0.678723 0.136207 0.19040573 0.968229139 0.162104879 0.541148 0.2429
-0.694939 0.684165 0.096029 0.0208995892 0.998080383 0.0582988541 0.263333 0.369123
-0.726836 0.682837 0.087365 -0.0519013072 0.997925133 0.0381009596 0.148355 0.134475
-0.713979 0.682439 0.115277 -0.000999972931 0.99667302 0.0814977939 0.395838 -0.020532
-0.701416 0.684829 0.06985 0.0140005233 0.999537358 0.0270010092 -0.026908 0.466559
-0.806569 0.640213 0.149339 -0.489004915 0.831908361 0.262302636 0.534256 0.709559
-0.768545 0.655307 0.159816 -0.319406557 0.93371917 0.16170332 0.150317 0.76837
-0.793086 0.650978 0.134677 -0.360807646 0.924319586 0.124302634 0.336506 0.483737
-0.796638 0.637239 0.173232 -0.471114044 0.832124806 0.292608723 0.491257 0.965403
-0.821093 0.623169 0.166184 -0.54012308 0.777833238 0.32131373 0.819521 0.943554
-0.828119 0.629552 0.138923 -0.516321392 0.82113402 0.243210076 0.740853 0.599345
-0.815765 0.643777 0.108353 -0.394804483 0.915310393 0.0796009039 0.541148 0.2429
-0.775879 0.655999 0.117642 -0.225495087 0.974178773 -0.0112997538 0.263333 0.369123
-0.752041 0.658687 0.094866 -0.171201205 0.983206922 -0.0632004449 0.148355 0.134475
-0.782084 0.653231 0.091378 -0.23360475 0.971419754 -0.0421008561 0.395838 -0.020532
-0.750603 0.660918 0.125686 -0.195808322 0.980641678 -0.0010000425 -0.026908 0.466559
-0.70027 0.614182 -0.021457 0.0784024599 0.843726472 -0.531016661 0.534256 0.709559
-0.746115 0.619945 -0.012155 -0.0466997268 0.928494568 -0.368397845 0.150317 0.76837
-0.708763 0.626007 -0.000802 0.00800059879 0.934669953 -0.355426601 0.336506 0.483737
-0.720979 0.603691 -0.03895 0.049201482 0.834625139 -0.548616525 0.491257 0.965403
-0.69006 0.595368 -0.044258 0.109196162 0.79017223 -0.603078805 0.819521 0.943554
-0.671393 0.609622 -0.022204 0.113195721 0.842368155 -0.526880082 0.740853 0.599345
-0.671736 0.628841 0.012964 0.0595990357 0.941184772 -0.332594619 0.541148 0.2429
-0.717907 0.631377 0.024679 -0.0583989345 0.982782069 -0.175296802 0.263333 0.369123
-0.729743 0.634055 0.059548 -0.0833033634 0.991040014 -0.104404215 0.148355 0.134475
-0.697849 0.635413 0.047 -0.0366982849 0.987653843 -0.152292883 0.395838 -0.020532
-0.747435 0.629483 0.030254 -0.0899992022 0.981291301 -0.170198491 -0.026908 0.466559
-0.801457 0.720528 0.048526 -0.348203694 0.809508589 -0.472705015 0.534256 0.709559
-0.815617 0.732524 0.08646 -0.270105718 0.916619405 -0.294706239 0.150317 0.76837
-0.78901 0.732567 0.063113 -0.229912579 0.913950003 -0.334418297 0.336506 0.483737
-0.825172 0.71402 0.0571 -0.379109194 0.805019522 -0.456311066 0.491257 0.965403
-0.815175 0.702025 0.032568 -0.397004556 0.75030861 -0.528606066 0.819521 0.943554
-0.788716 0.712234 0.027185 -0.326587889 0.802470241 -0.499381481 0.740853 0.599345
-0.760932 0.729845 0.041587 -0.182907372 0.912336772 -0.366314765 0.541148 0.2429
-0.77362 0.739077 0.081341 -0.10860447 0.975640158 -0.190607846 0.263333 0.369123
-0.752543 0.743759 0.106402 -0.0610977975 0.989164341 -0.133495188 0.148355 0.134475
-0.746961 0.740057 0.076408 -0.0774002365 0.977302986 -0.197200602 0.395838 -0.020532
-0.783418 0.741843 0.106324 -0.121093755 0.979449486 -0.161291682 -0.026908 0.466559
-0.681789 0.749813 0.130494 0.401999759 0.901799459 0.158599905 0.534256 0.709559
-0.693591 0.758398 0.090866 0.220408858 0.973939143 0.0535021503 0.150317 0.76837
-0.702155 0.758176 0.125211 0.210401765 0.971508151 0.109100915 0.336506 0.483737
-0.666183 0.745256 0.110148 0.418700463 0.899100993 0.127700141 0.491257 0.965403
-0.658478 0.735433 0.136412 0.483300645 0.857001144 0.178800239 0.819521 0.943554
-0.678746 0.742866 0.155575 0.400590694 0.895679194 0.193095514 0.740853 0.599345
-0.712436 0.754812 0.159007 0.19030935 0.968247571 0.162107965 0.541148 0.2429
-0.725955 0.760255 0.118829 0.0208995892 0.998080383 0.0582988541 0.263333 0.369123
-0.757852 0.758926 0.110166 -0.0519013072 0.997925133 0.0381009596 0.148355 0.134475
-0.744996 0.758528 0.138078 -0.000999972931 0.99667302 0.0814977939 0.395838 -0.020532
-0.732433 0.760918 0.09265 0.0140005233 0.999537358 0.0270010092 -0.026908 0.466559
-0.810373 0.724474 0.158605 -0.489004915 0.831908361 0.262302636 0.534256 0.709559
-0.772349 0.739568 0.169081 -0.319406557 0.93371917 0.16170332 0.150317 0.76837
-0.796891 0.735238 0.143943 -0.360807646 0.924319586 0.124302634 0.336506 0.483737
-0.800442 0.7215 0.182498 -0.471114044 0.832124806 0.292608723 0.491257 0.965403
-0.824897 0.707429 0.17545 -0.54012308 0.777833238 0.32131373 0.819521 0.943554
-0.831923 0.713812 0.148189 -0.516321392 0.82113402 0.243210076 0.740853 0.599345
-0.81957 0.728037 0.117618 -0.394804483 0.915310393 0.0796009039 0.541148 0.2429
-0.779683 0.74026 0.126908 -0.225495087 0.974178773 -0.0112997538 0.263333 0.369123
-0.755845 0.742948 0.104132 -0.171201205 0.983206922 -0.0632004449 0.148355 0.134475
-0.785888 0.737492 0.100644 -0.23360475 0.971419754 -0.0421008561 0.395838 -0.020532
-0.754407 0.745179 0.134952 -0.195808322 0.980641678 -0.0010000425 -0.026908 0.466559
-0.716856 0.694958 0.016514 0.220811288 0.857643844 -0.464423742 0.534256 0.709559
-0.758249 0.70301 0.018781 0.0784031542 0.944738008 -0.318312806 0.150317 0.76837
-0.726476 0.705291 0.034214 0.130706566 0.945947516 -0.296814909 0.336506 0.483737
-0.733368 0.687778 -0.002305 0.194192158 0.851665606 -0.486780342 0.491257 0.965403
-0.705872 0.67835 -0.003204 0.258592894 0.80497788 -0.533985326 0.819521 0.943554
-0.691558 0.688851 0.019558 0.254393985 0.853279824 -0.455189237 0.740853 0.599345
-0.695535 0.704619 0.051575 0.178403581 0.947319018 -0.26600534 0.541148 0.2429
-0.737761 0.709719 0.055768 0.0407017775 0.991143284 -0.12640552 0.263333 0.369123
-0.752908 0.711564 0.085117 0.00569996646 0.998194126 -0.0597996481 0.148355 0.134475
-0.722915 0.710993 0.078439 0.0588016547 0.99322795 -0.10020282 0.395838 -0.020532
-0.764725 0.709921 0.056576 0.00859961453 0.991955537 -0.126294339 -0.026908 0.466559
-0.828068 0.689607 0.039664 -0.565911301 0.822116418 0.0622012422 0.534256 0.709559
-0.825857 0.683966 0.081457 -0.427880459 0.874660055 0.227789597 0.150317 0.76837
-0.811488 0.69825 0.052432 -0.407812288 0.895326976 0.179105397 0.336506 0.483737
-0.845558 0.675294 0.052606 -0.586827499 0.805237734 0.0850039834 0.491257 0.965403
-0.845949 0.675284 0.023529 -0.629637263 0.776845975 0.00820048532 0.819521 0.943554
-0.824882 0.692462 0.013813 -0.556999543 0.829999319 0.0291999761 0.740853 0.599345
-0.794843 0.709718 0.023267 -0.378415506 0.915737523 0.135005532 0.541148 0.2429
-0.790358 0.701262 0.064921 -0.241910913 0.928441883 0.281912717 0.263333 0.369123
-0.761102 0.701508 0.080356 -0.175893377 0.931464926 0.318488008 0.148355 0.134475
-0.768317 0.709944 0.051698 -0.216509447 0.939340984 0.266011606 0.395838 -0.020532
-0.788993 0.692776 0.090492 -0.241196728 0.918787537 0.312495761 -0.026908 0.466559
-0.683939 0.724971 0.127568 0.211312025 0.857148777 0.469726731 0.534256 0.709559
-0.694207 0.743646 0.09111 0.0275989125 0.929263383 0.368385484 0.150317 0.76837
-0.705075 0.731263 0.122439 0.0141996802 0.90787955 0.418990562 0.336506 0.483737
-0.6663 0.729575 0.108967 0.230499252 0.866997187 0.441798566 0.491257 0.965403
-0.658827 0.71331 0.131886 0.298010524 0.821629017 0.48591716 0.819521 0.943554
-0.681488 0.711039 0.149624 0.208598101 0.840292349 0.500395444 0.740853 0.599345
-0.716989 0.715842 0.152095 -0.00870040432 0.884941124 0.465621638 0.541148 0.2429
-0.728304 0.73148 0.113962 -0.172598101 0.918989887 0.354496099 0.263333 0.369123
-0.758649 0.727956 0.101274 -0.24241437 0.913754164 0.326019325 0.148355 0.134475
-0.748036 0.720803 0.129215 -0.195503314 0.906915372 0.373206326 0.395838 -0.020532
-0.732848 0.739339 0.088559 -0.177405949 0.929131159 0.324410879 -0.026908 0.466559
-0.807121 0.671781 0.167075 -0.655505241 0.619004949 0.432603459 0.534256 0.709559
-0.773514 0.688579 0.186356 -0.501300165 0.772700255 0.389400129 0.150317 0.76837
-0.794879 0.688598 0.158133 -0.537320929 0.769129958 0.346013477 0.336506 0.483737
-0.798591 0.663024 0.190071 -0.640190404 0.612490819 0.463693049 0.491257 0.965403
-0.819357 0.648235 0.176081 -0.699703981 0.541703082 0.46580265 0.819521 0.943554
-0.82544 0.661701 0.151283 -0.678791593 0.610692437 0.407794949 0.740853 0.599345
-0.813789 0.686595 0.128174 -0.56558176 0.769475185 0.296690432 0.541148 0.2429
-0.777727 0.701373 0.145719 -0.404235227 0.879876676 0.24982177 0.263333 0.369123
-0.75322 0.714817 0.12803 -0.348992062 0.91317923 0.210495212 0.148355 0.134475
-0.781349 0.706089 0.119249 -0.409402035 0.885704402 0.218901088 0.395838 -0.020532
-0.754499 0.707412 0.158037 -0.37720656 0.88731543 0.265304614 -0.026908 0.466559
-0.693965 0.696397 0.037092 0.403707949 0.79531566 -0.452208904 0.534256 0.709559
-0.738322 0.708225 0.026412 0.235399203 0.90399694 -0.356898792 0.150317 0.76837
-0.708547 0.710359 0.052291 0.280112474 0.904240267 -0.322314353 0.336506 0.483737
-0.706811 0.68749 0.012586 0.383488141 0.788775607 -0.480385144 0.491257 0.965403
-0.677893 0.675173 0.020678 0.45400257 0.734204156 -0.504802857 0.819521 0.943554
-0.668261 0.688325 0.048468 0.43320861 0.7899157 -0.434008626 0.740853 0.599345
-0.680496 0.709478 0.080236 0.318000375 0.905801069 -0.28000033 0.541148 0.2429
-0.726578 0.718289 0.071622 0.152400167 0.970601063 -0.186300204 0.263333 0.369123
-0.751274 0.724431 0.098371 0.10179547 0.985956126 -0.132394109 0.148355 0.134475
-0.717181 0.721163 0.100263 0.163102881 0.974117208 -0.156502765 0.395838 -0.020532
-0.755732 0.720328 0.064381 0.121604268 0.973234161 -0.195006845 -0.026908 0.466559
-0.555076 0.476627 -0.004417 0.662999741 0.740299711 0.111299957 0.534256 0.709559
-0.566226 0.487875 -0.040099 0.502627796 0.864247794 0.0210011614 0.150317 0.76837
-0.571113 0.489645 -0.007792 0.497118558 0.864232262 0.0773028858 0.336506 0.483737
-0.544201 0.468555 -0.024323 0.675497129 0.733096884 0.0791996634 0.491257 0.965403
-0.538045 0.457483 -0.000612 0.728800842 0.673200778 0.125100144 0.819521 0.943554
-0.552326 0.469384 0.018532 0.662763519 0.734459573 0.145991964 0.740853 0.599345
-0.578414 0.489119 0.024184 0.481603581 0.866406442 0.131900981 0.541148 0.2429
-0.591978 0.498068 -0.011829 0.320409995 0.946329521 0.0424013227 0.263333 0.369123
-0.621076 0.505725 -0.017288 0.249395435 0.967982281 0.0284994783 0.148355 0.134475
-0.60768 0.501545 0.007415 0.301102197 0.951206939 0.0674004917 0.395838 -0.020532
-0.599555 0.500716 -0.03544 0.311611871 0.950136196 0.0118004495 -0.026908 0.466559
3 0 1 2
3 0 3 1
3 0 4 3
3 0 5 4
3 0 6 5
3 0 2 6
3 7 8 9
3 7 10 8
3 7 1 10
3 7 2 1
3 7 6 2
3 7 9 6
3 11 12 13
3 11 14 12
3 11 15 14
3 11 16 15
3 11 17 16
3 11 13 17
3 18 19 20
3 18 21 19
3 18 12 21
3 18 13 12
3 18 17 13
3 18 20 17
3 22 23 24
3 22 25 23
3 22 26 25
3 22 27 26
3 22 28 27
3 22 24 28
3 29 30 31
3 29 32 30
3 29 23 32
3 29 24 23
3 29 28 24
3 29 31 28
3 33 34 35
3 33 36 34
3 33 37 36
3 33 38 37
3 33 39 38
3 33 35 39
3 40 41 42
3 40 43 41
3 40 34 43
3 40 35 34
3 40 39 35
3 40 42 39
3 44 45 46
3 44 47 45
3 44 48 47
3 44 49 48
3 44 50 49
3 44 46 50
3 51 52 53
3 51 54 52
3 51 45 54
3 51 46 45
3 51 50 46
3 51 53 50
3 55 56 57
3 55 58 56
3 55 59 58
3 55 60 59
3 55 61 60
3 55 57 61
3 62 63 64
3 62 65 63
3 62 56 65
3 62 57 56
3 62 61 57
3 62 64 61
3 66 67 68
3 66 69 67
3 66 70 69
3 66 71 70
3 66 72 71
3 66 68 72
3 73 74 75
3 73 76 74
3 73 67 76
3 73 68 67
3 73 72 68
3 73 75 72
3 77 78 79
3 77 80 78
3 77 81 80
3 77 82 81
3 77 83 82
3 77 79 83
3 84 85 86
3 84 87 85
3 84 78 87
3 84 79 78
3 84 83 79
3 84 86 83
3 88 89 90
3 88 91 89
3 88 92 91
3 88 93 92
3 88 94 93
3 88 90 94
3 95 96 97
3 95 98 96
3 95 89 98
3 95 90 89
3 95 94 90
3 95 97 94
3 99 100 101
3 99 102 100
3 99 103 102
3 99 104 103
3 99 105 104
3 99 101 105
3 106 107 108
3 106 109 107
3 106 100 109
3 106 101 100
3 106 105 101
3 106 108 105
3 110 111 112
3 110 113 111
3 110 114 113
3 110 115 114
3 110 116 115
3 110 112 116
3 117 118 119
3 117 120 118
3 117 111 120
3 117 112 111
3 117 116 112
3 117 119 116
3 121 122 123
3 121 124 122
3 121 125 124
3 121 126 125
3 121 127 126
3 121 123 127
3 128 129 130
3 128 131 129
3 128 122 131
3 128 123 122
3 128 127 123
3 128 130 127
3 132 133 134
3 132 135 133
3 132 136 135
3 132 137 136
3 132 138 137
3 132 134 138
3 139 140 141
3 139 142 140
3 139 133 142
3 139 134 133
3 139 138 134
3 139 141 138
3 143 144 145
3 143 146 144
3 143 147 146
3 143 148 147
3 143 149 148
3 143 145 149
3 150 151 152
3 150 153 151
3 150 144 153
3 150 145 144
3 150 149 145
3 150 152 149
3 154 155 156
3 154 157 155
3 154 158 157
3 154 159 158
3 154 160 159
3 154 156 160
3 161 162 163
3 161 164 162
3 161 155 164
3 161 156 155
3 161 160 156
3 161 163 160
3 165 166 167
3 165 168 166
3 165 169 168
3 165 170 169
3 165 171 170
3 165 167 171
3 172 173 174
3 172 175 173
3 172 166 175
3 172 167 166
3 172 171 167
3 172 174 171
3 176 177 178
3 176 179 177
3 176 180 179
3 176 181 180
3 176 182 181
3 176 178 182
3 183 184 185
3 183 186 184
3 183 177 186
3 183 178 177
3 183 182 178
3 183 185 182
3 187 188 189
3 187 190 188
3 187 191 190
3 187 192 191
3 187 193 192
3 187 189 193
3 194 195 196
3 194 197 195
3 194 188 197
3 194 189 188
3 194 193 189
3 194 196 193
3 198 199 200
3 198 201 199
3 198 202 201
3 198 203 202
3 198 204 203
3 198 200 204
3 205 206 207
3 205 208 206
3 205 199 208
3 205 200 199
3 205 204 200
3 205 207 204
3 209 210 211
3 209 212 210
3 209 213 212
3 209 214 213
3 209 215 214
3 209 211 215
3 216 217 218
3 216 219 217
3 216 210 219
3 216 211 210
3 216 215 211
3 216 218 215
3 220 221 222
3 220 223 221
3 220 224 223
3 220 225 224
3 220 226 225
3 220 222 226
3 227 228 229
3 227 230 228
3 227 221 230
3 227 222 221
3 227 226 222
3 227 229 226
3 231 232 233
3 231 234 232
3 231 235 234
3 231 236 235
3 231 237 236
3 231 233 237
3 238 239 240
3 238 241 239
3 238 232 241
3 238 233 232
3 238 237 233
3 238 240 237
3 242 243 244
3 242 245 243
3 242 246 245
3 242 247 246
3 242 248 247
3 242 244 248
3 249 250 251
3 249 252 250
3 249 243 252
3 249 244 243
3 249 248 244
3 249 251 248
3 253 254 255
3 253 256 254
3 253 257 256
3 253 258 257
3 253 259 258
3 253 255 259
3 260 261 262
3 260 263 261
3 260 254 263
3 260 255 254
3 260 259 255
3 260 262 259
3 264 265 266
3 264 267 265
3 264 268 267
3 264 269 268
3 264 270 269
3 264 266 270
3 271 272 273
3 271 274 272
3 271 265 274
3 271 266 265
3 271 270 266
3 271 273 270
3 275 276 277
3 275 278 276
3 275 279 278
3 275 280 279
3 275 281 280
3 275 277 281
3 282 283 284
3 282 285 283
3 282 276 285
3 282 277 276
3 282 281 277
3 282 284 281
3 286 287 288
3 286 289 287
3 286 290 289
3 286 291 290
3 286 292 291
3 286 288 292
3 293 294 295
3 293 296 294
3 293 287 296
3 293 288 287
3 293 292 288
3 293 295 292
3 297 298 299
3 297 300 298
3 297 301 300
3 297 302 301
3 297 303 302
3 297 299 303
3 304 305 306
3 304 307 305
3 304 298 307
3 304 299 298
3 304 303 299
3 304 306 303
3 308 309 310
3 308 311 309
3 308 312 311
3 308 313 312
3 308 314 313
3 308 310 314
3 315 316 317
3 315 318 316
3 315 309 318
3 315 310 309
3 315 314 310
3 315 317 314
3 319 320 321
3 319 322 320
3 319 323 322
3 319 324 323
3 319 325 324
3 319 321 325
3 326 327 328
3 326 329 327
3 326 320 329
3 326 321 320
3 326 325 321
3 326 328 325
3 330 331 332
3 330 333 331
3 330 334 333
3 330 335 334
3 330 336 335
3 330 332 336
3 337 338 339
3 337 340 338
3 337 331 340
3 337 332 331
3 337 336 332
3 337 339 336
3 341 342 343
3 341 344 342
3 341 345 344
3 341 346 345
3 341 347 346
3 341 343 347
3 348 349 350
3 348 351 349
3 348 342 351
3 348 343 342
3 348 347 343
3 348 350 347
3 352 353 354
3 352 355 353
3 352 356 355
3 352 357 356
3 352 358 357
3 352 354 358
3 359 360 361
3 359 362 360
3 359 353 362
3 359 354 353
3 359 358 354
3 359 361 358
3 363 364 365
3 363 366 364
3 363 367 366
3 363 368 367
3 363 369 368
3 363 365 369
3 370 371 372
3 370 373 371
3 370 364 373
3 370 365 364
3 370 369 365
3 370 372 369
3 374 375 376
3 374 377 375
3 374 378 377
3 374 379 378
3 374 380 379
3 374 376 380
3 381 382 383
3 381 384 382
3 381 375 384
3 381 376 375
3 381 380 376
3 381 383 380
3 385 386 387
3 385 388 386
3 385 389 388
3 385 390 389
3 385 391 390
3 385 387 391
3 392 393 394
3 392 395 393
3 392 386 395
3 392 387 386
3 392 391 387
3 392 394 391
3 396 397 398
3 396 399 397
3 396 400 399
3 396 401 400
3 396 402 401
3 396 398 402
3 403 404 405
3 403 406 404
3 403 397 406
3 403 398 397
3 403 402 398
3 403 405 402
3 407 408 409
3 407 410 408
3 407 411 410
3 407 412 411
3 407 413 412
3 407 409 413
3 414 415 416
3 414 417 415
3 414 408 417
3 414 409 408
3 414 413 409
3 414 416 413
3 418 419 420
3 418 421 419
3 418 422 421
3 418 423 422
3 418 424 423
3 418 420 424
3 425 426 427
3 425 428 426
3 425 419 428
3 425 420 419
3 425 424 420
3 425 427 424
3 429 430 431
3 429 432 430
3 429 433 432
3 429 434 433
3 429 435 434
3 429 431 435
3 436 437 438
3 436 439 437
3 436 430 439
3 436 431 430
3 436 435 431
3 436 438 435
3 440 441 442
3 440 443 441
3 440 444 443
3 440 445 444
3 440 446 445
3 440 442 446
3 447 448 449
3 447 450 448
3 447 441 450
3 447 442 441
3 447 446 442
3 447 449 446
3 451 452 453
3 451 454 452
3 451 455 454
3 451 456 455
3 451 457 456
3 451 453 457
3 458 459 460
3 458 461 459
3 458 452 461
3 458 453 452
3 458 457 453
3 458 460 457
3 462 463 464
3 462 465 463
3 462 466 465
3 462 467 466
3 462 468 467
3 462 464 468
3 469 470 471
3 469 472 470
3 469 463 472
3 469 464 463
3 469 468 464
3 469 471 468
3 473 474 475
3 473 476 474
3 473 477 476
3 473 478 477
3 473 479 478
3 473 475 479
3 480 481 482
3 480 483 481
3 480 474 483
3 480 475 474
3 480 479 475
3 480 482 479
3 484 485 486
3 484 487 485
3 484 488 487
3 484 489 488
3 484 490 489
3 484 486 490
3 491 492 493
3 491 494 492
3 491 485 494
3 491 486 485
3 491 490 486
3 491 493 490
3 495 496 497
3 495 498 496
3 495 499 498
3 495 500 499
3 495 501 500
3 495 497 501
3 502 503 504
3 502 505 503
3 502 496 505
3 502 497 496
3 502 501 497
3 502 504 501
3 506 507 508
3 506 509 507
3 506 510 509
3 506 511 510
3 506 512 511
3 506 508 512
3 513 514 515
3 513 516 514
3 513 507 516
3 513 508 507
3 513 512 508
3 513 515 512
3 517 518 519
3 517 520 518
3 517 521 520
3 517 522 521
3 517 523 522
3 517 519 523
3 524 525 526
3 524 527 525
3 524 518 527
3 524 519 518
3 524 523 519
3 524 526 523
3 528 529 530
3 528 531 529
3 528 532 531
3 528 533 532
3 528 534 533
3 528 530 534
3 535 536 537
3 535 538 536
3 535 529 538
3 535 530 529
3 535 534 530
3 535 537 534
3 539 540 541
3 539 542 540
3 539 543 542
3 539 544 543
3 539 545 544
3 539 541 545
3 546 547 548
3 546 549 547
3 546 540 549
3 546 541 540
3 546 545 541
3 546 548 545
3 550 551 552
3 550 553 551
3 550 554 553
3 550 555 554
3 550 556 555
3 550 552 556
3 557 558 559
3 557 560 558
3 557 551 560
3 557 552 551
3 557 556 552
3 557 559 556
3 561 562 563
3 561 564 562
3 561 565 564
3 561 566 565
3 561 567 566
3 561 563 567
3 568 569 570
3 568 571 569
3 568 562 571
3 568 563 562
3 568 567 563
3 568 570 567
3 572 573 574
3 572 575 573
3 572 576 575
3 572 577 576
3 572 578 577
3 572 574 578
3 579 580 581
3 579 582 580
3 579 573 582
3 579 574 573
3 579 578 574
3 579 581 578
3 583 584 585
3 583 586 584
3 583 587 586
3 583 588 587
3 583 589 588
3 583 585 589
3 590 591 592
3 590 593 591
3 590 584 593
3 590 585 584
3 590 589 585
3 590 592 589
3 594 595 596
3 594 597 595
3 594 598 597
3 594 599 598
3 594 600 599
3 594 596 600
3 601 602 603
3 601 604 602
3 601 595 604
3 601 596 595
3 601 600 596
3 601 603 600
3 605 606 607
3 605 608 606
3 605 609 608
3 605 610 609
3 605 611 610
3 605 607 611
3 612 613 614
3 612 615 613
3 612 606 615
3 612 607 606
3 612 611 607
3 612 614 611
3 616 617 618
3 616 619 617
3 616 620 619
3 616 621 620
3 616 622 621
3 616 618 622
3 623 624 625
3 623 626 624
3 623 617 626
3 623 618 617
3 623 622 618
3 623 625 622
3 627 628 629
3 627 630 628
3 627 631 630
3 627 632 631
3 627 633 632
3 627 629 633
3 634 635 636
3 634 637 635
3 634 628 637
3 634 629 628
3 634 633 629
3 634 636 633
3 638 639 640
3 638 641 639
3 638 642 641
3 638 643 642
3 638 644 643
3 638 640 644
3 645 646 647
3 645 648 646
3 645 639 648
3 645 640 639
3 645 644 640
3 645 647 644
3 649 650 651
3 649 652 650
3 649 653 652
3 649 654 653
3 649 655 654
3 649 651 655
3 656 657 658
3 656 659 657
3 656 650 659
3 656 651 650
3 656 655 651
3 656 658 655
3 660 661 662
3 660 663 661
3 660 664 663
3 660 665 664
3 660 666 665
3 660 662 666
3 667 668 669
3 667 670 668
3 667 661 670
3 667 662 661
3 667 666 662
3 667 669 666
3 671 672 673
3 671 674 672
3 671 675 674
3 671 676 675
3 671 677 676
3 671 673 677
3 678 679 680
3 678 681 679
3 678 672 681
3 678 673 672
3 678 677 673
3 678 680 677
3 682 683 684
3 682 685 683
3 682 686 685
3 682 687 686
3 682 688 687
3 682 684 688
3 689 690 691
3 689 692 690
3 689 683 692
3 689 684 683
3 689 688 684
3 689 691 688
3 693 694 695
3 693 696 694
3 693 697 696
3 693 698 697
3 693 699 698
3 693 695 699
3 700 701 702
3 700 703 701
3 700 694 703
3 700 695 694
3 700 699 695
3 700 702 699
3 704 705 706
3 704 707 705
3 704 708 707
3 704 709 708
3 704 710 709
3 704 706 710
3 711 712 713
3 711 714 712
3 711 705 714
3 711 706 705
3 711 710 706
3 711 713 710
3 715 716 717
3 715 718 716
3 715 719 718
3 715 720 719
3 715 721 720
3 715 717 721
3 722 723 724
3 722 725 723
3 722 716 725
3 722 717 716
3 722 721 717
3 722 724 721
3 726 727 728
3 726 729 727
3 726 730 729
3 726 731 730
3 726 732 731
3 726 728 732
3 733 734 735
3 733 736 734
3 733 727 736
3 733 728 727
3 733 732 728
3 733 735 732
3 737 738 739
3 737 740 738
3 737 741 740
3 737 742 741
3 737 743 742
3 737 739 743
3 744 745 746
3 744 747 745
3 744 738 747
3 744 739 738
3 744 743 739
3 744 746 743
