ply
format ascii 1.0
element vertex 6
property float x
property float y
property float z
property float nx
property float ny
property float nz
property float u
property float v
element face 2
property list uchar int vertex_indices
end_header
-2.221157 1.323463 -3.617182 0 -0.0215705359 0.999767329 0.999903 0.996547
-1.587157 1.769477 -3.607559 0 -0.0215705359 0.999767329 9.7e-05 9.7e-05
-2.221157 1.769477 -3.607559 0 -0.0215705359 0.999767329 9.7e-05 0.996547
-2.221157 1.323463 -3.617182 0 -0.0215705359 0.999767329 0.999903 0.996547
-1.587157 1.323463 -3.617182 0 -0.0215705359 0.999767329 0.999903 9.7e-05
-1.587157 1.769477 -3.607559 0 -0.0215705359 0.999767329 9.7e-05 9.7e-05
3 0 1 2
3 3 4 5
