ply
format ascii 1.0
element vertex 72
property float x
property float y
property float z
property float nx
property float ny
property float nz
property float u
property float v
element face 24
property list uchar int vertex_indices
end_header
-1.595984 1.772436 -3.601325 -0.352546688 -0.0201852287 0.935576501 9.7e-05 9.7e-05
-1.606174 1.330902 -3.614691 -0.352546688 -0.0201852287 0.935576501 0.999903 9.7e-05
-1.595984 1.323077 -3.61102 -0.352546688 -0.0201852287 0.935576501 0.999903 9.7e-05
-1.595984 1.772436 -3.601325 -0.35257003 -0.0201844242 0.935567722 9.7e-05 9.7e-05
-1.606173 1.764776 -3.60533 -0.35257003 -0.0201844242 0.935567722 9.7e-05 9.7e-05
-1.606174 1.330902 -3.614691 -0.35257003 -0.0201844242 0.935567722 0.999903 9.7e-05
-1.517346 1.848228 -3.59969 8.96328196e-06 -0.0215710692 0.999767317 9.7e-05 9.7e-05
-1.595984 1.323077 -3.61102 8.96328196e-06 -0.0215710692 0.999767317 0.999903 9.7e-05
-1.517346 1.247285 -3.612656 8.96328196e-06 -0.0215710692 0.999767317 0.999903 9.7e-05
-1.517346 1.848228 -3.59969 2.87099277e-06 -0.0215701573 0.999767337 9.7e-05 9.7e-05
-1.595984 1.772436 -3.601325 2.87099277e-06 -0.0215701573 0.999767337 9.7e-05 9.7e-05
-1.595984 1.323077 -3.61102 2.87099277e-06 -0.0215701573 0.999767337 0.999903 9.7e-05
-2.300511 1.247285 -3.612656 -3.75025751e-06 -0.0215710692 0.999767317 0.999903 0.996547
-2.221873 1.772436 -3.601325 -3.75025751e-06 -0.0215710692 0.999767317 9.7e-05 0.996547
-2.300511 1.848228 -3.59969 -3.75025751e-06 -0.0215710692 0.999767317 9.7e-05 0.996547
-2.300511 1.247285 -3.612656 -9.84254695e-06 -0.0215701573 0.999767337 0.999903 0.996547
-2.221873 1.323077 -3.61102 -9.84254695e-06 -0.0215701573 0.999767337 0.999903 0.996547
-2.221873 1.772436 -3.601325 -9.84254695e-06 -0.0215701573 0.999767337 9.7e-05 0.996547
-1.517346 1.247285 -3.612656 0 -0.0215803647 0.999767117 0.999903 9.7e-05
-2.221873 1.323077 -3.61102 0 -0.0215803647 0.999767117 0.999903 0.996547
-2.300511 1.247285 -3.612656 0 -0.0215803647 0.999767117 0.999903 0.996547
-1.517346 1.247285 -3.612656 0 -0.0215803647 0.999767117 0.999903 9.7e-05
-1.595984 1.323077 -3.61102 0 -0.0215803647 0.999767117 0.999903 9.7e-05
-2.221873 1.323077 -3.61102 0 -0.0215803647 0.999767117 0.999903 0.996547
-2.300511 1.848228 -3.59969 0 -0.0215671799 0.999767401 9.7e-05 0.996547
-1.595984 1.772436 -3.601325 0 -0.0215671799 0.999767401 9.7e-05 9.7e-05
-1.517346 1.848228 -3.59969 0 -0.0215671799 0.999767401 9.7e-05 9.7e-05
-2.300511 1.848228 -3.59969 0 -0.0215671799 0.999767401 9.7e-05 0.996547
-2.221873 1.772436 -3.601325 0 -0.0215671799 0.999767401 9.7e-05 0.996547
-1.595984 1.772436 -3.601325 0 -0.0215671799 0.999767401 9.7e-05 9.7e-05
-1.606173 1.764776 -3.60533 -1 2.30374686e-06 4.95819533e-08 9.7e-05 9.7e-05
-1.606174 1.330943 -3.616596 -1 2.30374686e-06 4.95819533e-08 0.999903 9.7e-05
-1.606174 1.330902 -3.614691 -1 2.30374686e-06 4.95819533e-08 0.999903 9.7e-05
-1.606173 1.764776 -3.60533 -1 2.30371547e-06 5.07905773e-08 9.7e-05 9.7e-05
-1.606173 1.764818 -3.607235 -1 2.30371547e-06 5.07905773e-08 9.7e-05 9.7e-05
-1.606174 1.330943 -3.616596 -1 2.30371547e-06 5.07905773e-08 0.999903 9.7e-05
-2.221873 1.323077 -3.61102 0.352571356 -0.0201850282 0.93556721 0.999903 0.996547
-2.211684 1.764777 -3.60533 0.352571356 -0.0201850282 0.93556721 9.7e-05 0.996547
-2.221873 1.772436 -3.601325 0.352571356 -0.0201850282 0.93556721 9.7e-05 0.996547
-2.221873 1.323077 -3.61102 0.352577088 -0.0201851326 0.935565047 0.999903 0.996547
-2.211684 1.330902 -3.614691 0.352577088 -0.0201851326 0.935565047 0.999903 0.996547
-2.211684 1.764777 -3.60533 0.352577088 -0.0201851326 0.935565047 9.7e-05 0.996547
-1.595984 1.323077 -3.61102 0 0.424721382 0.905324112 0.999903 9.7e-05
-2.211684 1.330902 -3.614691 0 0.424721382 0.905324112 0.999903 0.996547
-2.221873 1.323077 -3.61102 0 0.424721382 0.905324112 0.999903 0.996547
-1.595984 1.323077 -3.61102 0 0.424721382 0.905324112 0.999903 9.7e-05
-1.606174 1.330902 -3.614691 0 0.424721382 0.905324112 0.999903 9.7e-05
-2.211684 1.330902 -3.614691 0 0.424721382 0.905324112 0.999903 0.996547
-2.221873 1.772436 -3.601325 0 -0.463336809 0.886182262 9.7e-05 0.996547
-1.606173 1.764776 -3.60533 0 -0.463336809 0.886182262 9.7e-05 9.7e-05
-1.595984 1.772436 -3.601325 0 -0.463336809 0.886182262 9.7e-05 9.7e-05
-2.221873 1.772436 -3.601325 -7.65279434e-07 -0.463385115 0.886157004 9.7e-05 0.996547
-2.211684 1.764777 -3.60533 -7.65279434e-07 -0.463385115 0.886157004 9.7e-05 0.996547
-1.606173 1.764776 -3.60533 -7.65279434e-07 -0.463385115 0.886157004 9.7e-05 9.7e-05
-2.211684 1.330902 -3.614691 1 0 0 0.999903 0.996547
-2.211684 1.764818 -3.607235 1 0 0 9.7e-05 0.996547
-2.211684 1.764777 -3.60533 1 0 0 9.7e-05 0.996547
-2.211684 1.330902 -3.614691 1 -0 0 0.999903 0.996547
-2.211684 1.330943 -3.616596 1 -0 0 0.999903 0.996547
-2.211684 1.764818 -3.607235 1 -0 0 9.7e-05 0.996547
-1.606174 1.330902 -3.614691 0 0.999768476 0.0215173268 0.999903 9.7e-05
-2.211684 1.330943 -3.616596 0 0.999768476 0.0215173268 0.999903 0.996547
-2.211684 1.330902 -3.614691 0 0.999768476 0.0215173268 0.999903 0.996547
-1.606174 1.330902 -3.614691 0 0.999768476 0.0215173268 0.999903 9.7e-05
-1.606174 1.330943 -3.616596 0 0.999768476 0.0215173268 0.999903 9.7e-05
-2.211684 1.330943 -3.616596 0 0.999768476 0.0215173268 0.999903 0.996547
-2.211684 1.764777 -3.60533 -1.65109643e-06 -0.999757048 -0.0220418877 9.7e-05 0.996547
-1.606173 1.764818 -3.607235 -1.65109643e-06 -0.999757048 -0.0220418877 9.7e-05 9.7e-05
-1.606173 1.764776 -3.60533 -1.65109643e-06 -0.999757048 -0.0220418877 9.7e-05 9.7e-05
-2.211684 1.764777 -3.60533 0 -0.999768476 -0.0215173268 9.7e-05 0.996547
-2.211684 1.764818 -3.607235 0 -0.999768476 -0.0215173268 9.7e-05 0.996547
-1.606173 1.764818 -3.607235 0 -0.999768476 -0.0215173268 9.7e-05 9.7e-05
3 0 1 2
3 3 4 5
3 6 7 8
3 9 10 11
3 12 13 14
3 15 16 17
3 18 19 20
3 21 22 23
3 24 25 26
3 27 28 29
3 30 31 32
3 33 34 35
3 36 37 38
3 39 40 41
3 42 43 44
3 45 46 47
3 48 49 50
3 51 52 53
3 54 55 56
3 57 58 59
3 60 61 62
3 63 64 65
3 66 67 68
3 69 70 71
