ply
format ascii 1.0
element vertex 72
property float x
property float y
property float z
property float nx
property float ny
property float nz
property float u
property float v
element face 24
property list uchar int vertex_indices
end_header
-1.520688 1.847466 -3.593385 -0.311368448 -0.0204988975 0.950068148 9.7e-05 9.7e-05
-1.530878 1.257122 -3.609462 -0.311368448 -0.0204988975 0.950068148 0.999903 9.7e-05
-1.520688 1.249308 -3.606291 -0.311368448 -0.0204988975 0.950068148 0.999903 9.7e-05
-1.520688 1.847466 -3.593385 -0.311361069 -0.0204990906 0.950070562 9.7e-05 9.7e-05
-1.530878 1.839796 -3.59689 -0.311361069 -0.0204990906 0.950070562 9.7e-05 9.7e-05
-1.530878 1.257122 -3.609462 -0.311361069 -0.0204990906 0.950070562 0.999903 9.7e-05
-1.44205 1.923259 -3.591749 -4.36442625e-06 -0.0215717061 0.999767304 9.7e-05 9.7e-05
-1.520688 1.249308 -3.606291 -4.36442625e-06 -0.0215717061 0.999767304 0.999903 9.7e-05
-1.44205 1.173516 -3.607926 -4.36442625e-06 -0.0215717061 0.999767304 0.999903 9.7e-05
-1.44205 1.923259 -3.591749 -8.54494006e-06 -0.0215712186 0.999767314 9.7e-05 9.7e-05
-1.520688 1.847466 -3.593385 -8.54494006e-06 -0.0215712186 0.999767314 9.7e-05 9.7e-05
-1.520688 1.249308 -3.606291 -8.54494006e-06 -0.0215712186 0.999767314 0.999903 9.7e-05
-2.386555 1.173516 -3.607926 8.07470418e-06 -0.0215717061 0.999767304 0.999903 0.996547
-2.307917 1.847466 -3.593385 8.07470418e-06 -0.0215717061 0.999767304 9.7e-05 0.996547
-2.386556 1.923259 -3.591749 8.07470418e-06 -0.0215717061 0.999767304 9.7e-05 0.996547
-2.386555 1.173516 -3.607926 3.89428901e-06 -0.0215712186 0.999767314 0.999903 0.996547
-2.307917 1.249308 -3.606291 3.89428901e-06 -0.0215712186 0.999767314 0.999903 0.996547
-2.307917 1.847466 -3.593385 3.89428901e-06 -0.0215712186 0.999767314 9.7e-05 0.996547
-1.44205 1.173516 -3.607926 0 -0.0215671799 0.999767401 0.999903 9.7e-05
-2.307917 1.249308 -3.606291 0 -0.0215671799 0.999767401 0.999903 0.996547
-2.386555 1.173516 -3.607926 0 -0.0215671799 0.999767401 0.999903 0.996547
-1.44205 1.173516 -3.607926 0 -0.0215671799 0.999767401 0.999903 9.7e-05
-1.520688 1.249308 -3.606291 0 -0.0215671799 0.999767401 0.999903 9.7e-05
-2.307917 1.249308 -3.606291 0 -0.0215671799 0.999767401 0.999903 0.996547
-2.386556 1.923259 -3.591749 0 -0.0215800801 0.999767123 9.7e-05 0.996547
-1.520688 1.847466 -3.593385 0 -0.0215800801 0.999767123 9.7e-05 9.7e-05
-1.44205 1.923259 -3.591749 0 -0.0215800801 0.999767123 9.7e-05 9.7e-05
-2.386556 1.923259 -3.591749 0 -0.0215800801 0.999767123 9.7e-05 0.996547
-2.307917 1.847466 -3.593385 0 -0.0215800801 0.999767123 9.7e-05 0.996547
-1.520688 1.847466 -3.593385 0 -0.0215800801 0.999767123 9.7e-05 9.7e-05
-1.530878 1.839796 -3.59689 -1 0 0 9.7e-05 9.7e-05
-1.530878 1.257158 -3.611119 -1 0 0 0.999903 9.7e-05
-1.530878 1.257122 -3.609462 -1 0 0 0.999903 9.7e-05
-1.530878 1.839796 -3.59689 -1 0 -0 9.7e-05 9.7e-05
-1.530878 1.839832 -3.598547 -1 0 -0 9.7e-05 9.7e-05
-1.530878 1.257158 -3.611119 -1 0 -0 0.999903 9.7e-05
-2.307917 1.249308 -3.606291 0.311388761 -0.0204987539 0.950061493 0.999903 0.996547
-2.297728 1.839796 -3.59689 0.311388761 -0.0204987539 0.950061493 9.7e-05 0.996547
-2.307917 1.847466 -3.593385 0.311388761 -0.0204987539 0.950061493 9.7e-05 0.996547
-2.307917 1.249308 -3.606291 0.31139614 -0.0204988427 0.950059072 0.999903 0.996547
-2.297728 1.257122 -3.609462 0.31139614 -0.0204988427 0.950059072 0.999903 0.996547
-2.297728 1.839796 -3.59689 0.31139614 -0.0204988427 0.950059072 9.7e-05 0.996547
-1.520688 1.249308 -3.606291 0 0.376027135 0.926608652 0.999903 9.7e-05
-2.297728 1.257122 -3.609462 0 0.376027135 0.926608652 0.999903 0.996547
-2.307917 1.249308 -3.606291 0 0.376027135 0.926608652 0.999903 0.996547
-1.520688 1.249308 -3.606291 0 0.376027135 0.926608652 0.999903 9.7e-05
-1.530878 1.257122 -3.609462 0 0.376027135 0.926608652 0.999903 9.7e-05
-2.297728 1.257122 -3.609462 0 0.376027135 0.926608652 0.999903 0.996547
-2.307917 1.847466 -3.593385 0 -0.415633647 0.909532117 9.7e-05 0.996547
-1.530878 1.839796 -3.59689 0 -0.415633647 0.909532117 9.7e-05 9.7e-05
-1.520688 1.847466 -3.593385 0 -0.415633647 0.909532117 9.7e-05 9.7e-05
-2.307917 1.847466 -3.593385 0 -0.415633647 0.909532117 9.7e-05 0.996547
-2.297728 1.839796 -3.59689 0 -0.415633647 0.909532117 9.7e-05 0.996547
-1.530878 1.839796 -3.59689 0 -0.415633647 0.909532117 9.7e-05 9.7e-05
-2.297728 1.257122 -3.609462 1 0 0 0.999903 0.996547
-2.297728 1.839832 -3.598547 1 0 0 9.7e-05 0.996547
-2.297728 1.839796 -3.59689 1 0 0 9.7e-05 0.996547
-2.297728 1.257122 -3.609462 1 -0 0 0.999903 0.996547
-2.297728 1.257158 -3.611119 1 -0 0 0.999903 0.996547
-2.297728 1.839832 -3.598547 1 -0 0 9.7e-05 0.996547
-1.530878 1.257122 -3.609462 0 0.999764074 0.0217208851 0.999903 9.7e-05
-2.297728 1.257158 -3.611119 0 0.999764074 0.0217208851 0.999903 0.996547
-2.297728 1.257122 -3.609462 0 0.999764074 0.0217208851 0.999903 0.996547
-1.530878 1.257122 -3.609462 0 0.999764074 0.0217208851 0.999903 9.7e-05
-1.530878 1.257158 -3.611119 0 0.999764074 0.0217208851 0.999903 9.7e-05
-2.297728 1.257158 -3.611119 0 0.999764074 0.0217208851 0.999903 0.996547
-2.297728 1.839796 -3.59689 0 -0.999764074 -0.0217208851 9.7e-05 0.996547
-1.530878 1.839832 -3.598547 0 -0.999764074 -0.0217208851 9.7e-05 9.7e-05
-1.530878 1.839796 -3.59689 0 -0.999764074 -0.0217208851 9.7e-05 9.7e-05
-2.297728 1.839796 -3.59689 0 -0.999764074 -0.0217208851 9.7e-05 0.996547
-2.297728 1.839832 -3.598547 0 -0.999764074 -0.0217208851 9.7e-05 0.996547
-1.530878 1.839832 -3.598547 0 -0.999764074 -0.0217208851 9.7e-05 9.7e-05
3 0 1 2
3 3 4 5
3 6 7 8
3 9 10 11
3 12 13 14
3 15 16 17
3 18 19 20
3 21 22 23
3 24 25 26
3 27 28 29
3 30 31 32
3 33 34 35
3 36 37 38
3 39 40 41
3 42 43 44
3 45 46 47
3 48 49 50
3 51 52 53
3 54 55 56
3 57 58 59
3 60 61 62
3 63 64 65
3 66 67 68
3 69 70 71
