ply
format ascii 1.0
element vertex 24
property float x
property float y
property float z
property float nx
property float ny
property float nz
property float u
property float v
element face 8
property list uchar int vertex_indices
end_header
-1.42065 1.953084 -3.577554 -1 0 0 0 0
-1.42065 1.141837 -3.628965 -1 0 0 0 0
-1.42065 1.141106 -3.595073 -1 0 0 0 0
-1.42065 1.953084 -3.577554 -1 0 -0 0 0
-1.42065 1.953815 -3.611445 -1 0 -0 0 0
-1.42065 1.141837 -3.628965 -1 0 -0 0 0
-1.42065 1.141106 -3.595073 -2.15544331e-08 0.999767467 0.0215641326 0 0
-2.4211 1.141837 -3.628965 -2.15544331e-08 0.999767467 0.0215641326 0 0
-2.4211 1.141106 -3.595074 -2.15544331e-08 0.999767467 0.0215641326 0 0
-1.42065 1.141106 -3.595073 0 0.999767481 0.0215634966 0 0
-1.42065 1.141837 -3.628965 0 0.999767481 0.0215634966 0 0
-2.4211 1.141837 -3.628965 0 0.999767481 0.0215634966 0 0
-2.4211 1.141106 -3.595074 1 -0 0 0 0
-2.4211 1.953815 -3.611445 1 -0 0 0 0
-2.4211 1.953084 -3.577554 1 -0 0 0 0
-2.4211 1.141106 -3.595074 1 0 0 0 0
-2.4211 1.141837 -3.628965 1 0 0 0 0
-2.4211 1.953815 -3.611445 1 0 0 0 0
-2.4211 1.953084 -3.577554 0 -0.999767467 -0.0215641326 0.845919 2.024772
-1.42065 1.953815 -3.611445 0 -0.999767467 -0.0215641326 0.974653 -1.774848
-1.42065 1.953084 -3.577554 0 -0.999767467 -0.0215641326 0.845908 -1.774848
-2.4211 1.953084 -3.577554 0 -0.999767467 -0.0215641326 0.845919 2.024772
-2.4211 1.953815 -3.611445 0 -0.999767467 -0.0215641326 0.974666 2.024771
-1.42065 1.953815 -3.611445 0 -0.999767467 -0.0215641326 0.974653 -1.774848
3 0 1 2
3 3 4 5
3 6 7 8
3 9 10 11
3 12 13 14
3 15 16 17
3 18 19 20
3 21 22 23
