ply
format ascii 1.0
element vertex 90
property float x
property float y
property float z
property float nx
property float ny
property float nz
property float u
property float v
element face 112
property list uchar int vertex_indices
end_header
-1.422857 1.950832 -3.575489 -0.273405806 -0.253405381 -0.927919705 0 0
-1.42065 1.141106 -3.595073 -0.396595104 0.414294886 -0.819189887 0 0
-1.422856 1.143266 -3.592913 -0.273406424 0.293206889 -0.916121525 0 0
-1.42065 1.953084 -3.577554 -0.396594604 -0.378594849 -0.836288622 0 0
-1.425063 1.948633 -3.575862 0.143905562 0.165006378 -0.975737713 0 0
-1.425063 1.145479 -3.593191 0.143907907 -0.122706742 -0.981953955 0 0
-1.431678 1.94213 -3.581108 0.300807284 0.320207754 -0.898321753 0 0
-1.431678 1.152202 -3.598151 0.300796726 -0.281196939 -0.911290081 0 0
-1.437306 1.936554 -3.583569 0.14559976 0.166699726 -0.975198396 0 0
-1.437306 1.15788 -3.600369 0.145596953 -0.124497394 -0.981479458 0 0
-1.443116 1.930742 -3.583555 -0.0878019751 -0.0664014937 -0.993922359 0 0
-1.443116 1.163686 -3.600105 -0.0878030077 0.109203741 -0.990133918 0 0
-1.447068 1.926734 -3.580986 -0.248603911 -0.228303591 -0.941314807 0 0
-1.447068 1.167579 -3.597366 -0.248597761 0.26869758 -0.93059162 0 0
-1.449863 1.923928 -3.580509 -0.00260004186 0.0190003059 -0.999816097 0 0
-1.449863 1.170362 -3.596768 -0.00260000976 0.0242000909 -0.999703754 0 0
-1.452658 1.921168 -3.582178 0.335799246 0.354699204 -0.872598041 0 0
-1.452658 1.173191 -3.598317 0.335817987 -0.316816969 -0.887047512 0 0
-1.455138 1.918762 -3.585627 0.395607333 0.413407663 -0.820115201 0 0
-1.455138 1.175744 -3.601659 0.395588036 -0.377688577 -0.83717468 0 0
-1.457578 1.916338 -3.586387 -0.0251993849 -0.00369990969 -0.999675598 0 0
-1.457577 1.178198 -3.602313 -0.0251996568 0.0467993626 -0.998586399 0 0
-1.45907 1.914805 -3.584534 -0.368897016 -0.350397165 -0.860893035 0 0
-1.45907 1.17965 -3.600396 -0.368806956 0.387207303 -0.845015937 0 0
-1.461446 1.912421 -3.584132 0.0284012859 0.0500022639 -0.998345201 0 0
-1.461446 1.182015 -3.599891 0.0284020675 -0.00690050231 -0.999572762 0 0
-1.463929 1.909985 -3.586365 0.548325089 0.561825707 -0.619428343 0 0
-1.463929 1.184544 -3.602017 0.5482979 -0.534597952 -0.643097537 0 0
-1.464118 1.909903 -3.591328 0.706079672 0.707079643 -0.0385988888 0 0
-1.464118 1.18484 -3.606972 0.706066441 -0.704766503 -0.0690967159 0 0
-2.4211 1.141106 -3.595074 0.396510829 0.414311315 -0.819222373 0 0
-2.418894 1.143266 -3.592913 0.273321906 0.293123493 -0.91617343 0 0
-2.416688 1.145479 -3.593191 -0.143907907 -0.122706742 -0.981953955 0 0
-2.410073 1.152202 -3.598152 -0.300796726 -0.281196939 -0.911290081 0 0
-2.404444 1.15788 -3.600369 -0.145596953 -0.124497394 -0.981479458 0 0
-2.398634 1.163686 -3.600105 0.0878030077 0.109203741 -0.990133918 0 0
-2.394682 1.167579 -3.597366 0.248503939 0.268704259 -0.93061475 0 0
-2.391887 1.170362 -3.596768 0.00260000976 0.0242000909 -0.999703754 0 0
-2.389092 1.173191 -3.598317 -0.335788199 -0.316788867 -0.887068824 0 0
-2.386612 1.175744 -3.601659 -0.395588036 -0.377688577 -0.83717468 0 0
-2.384173 1.178198 -3.602313 0.0252995915 0.0467992444 -0.998583878 0 0
-2.38268 1.17965 -3.600396 0.368806956 0.387207303 -0.845015937 0 0
-2.380305 1.182015 -3.599892 -0.0284020869 -0.00680049969 -0.999573446 0 0
-2.377822 1.184544 -3.602017 -0.5482979 -0.534597952 -0.643097537 0 0
-2.377632 1.18484 -3.606972 -0.706066441 -0.704766503 -0.0690967159 0 0
-2.4211 1.953084 -3.577554 0.396510329 -0.378609863 -0.836321786 0 0
-2.418894 1.950832 -3.575489 0.273313275 -0.253412309 -0.927945071 0 0
-2.416687 1.948634 -3.575862 -0.143905562 0.165006378 -0.975737713 0 0
-2.410073 1.94213 -3.581108 -0.300807284 0.320207754 -0.898321753 0 0
-2.404444 1.936554 -3.583569 -0.14559976 0.166699726 -0.975198396 0 0
-2.398634 1.930742 -3.583555 0.0878019751 -0.0664014937 -0.993922359 0 0
-2.394682 1.926734 -3.580986 0.248510086 -0.228309266 -0.941338205 0 0
-2.391887 1.923928 -3.580509 0.00260004186 0.0190003059 -0.999816097 0 0
-2.389092 1.921168 -3.582178 -0.335799246 0.354699204 -0.872598041 0 0
-2.386612 1.918762 -3.585627 -0.395607333 0.413407663 -0.820115201 0 0
-2.384173 1.916338 -3.586387 0.0252993186 -0.00369990034 -0.999673074 0 0
-2.38268 1.914805 -3.584534 0.36881062 -0.35041009 -0.860924791 0 0
-2.380305 1.912421 -3.584132 -0.0284012859 0.0500022639 -0.998345201 0 0
-2.377822 1.909985 -3.586365 -0.548291123 0.561790905 -0.619489971 0 0
-2.377632 1.909903 -3.591328 -0.706079672 0.707079643 -0.0385988888 0 0
-2.418894 1.950832 -3.575489 0.273313275 -0.253412309 -0.927945071 0.780428 2.017129
-1.42065 1.953084 -3.577554 -0.396594604 -0.378594849 -0.836288622 0.845908 -1.774848
-1.422857 1.950832 -3.575489 -0.273405806 -0.253405381 -0.927919705 0.779741 -1.727065
-2.4211 1.953084 -3.577554 0.396510329 -0.378609863 -0.836321786 0.845919 2.024772
-2.416687 1.948634 -3.575862 -0.143905562 0.165006378 -0.975737713 0.716194 2.009467
-1.425063 1.948633 -3.575862 0.143905562 0.165006378 -0.975737713 0.714552 -1.662552
-2.410073 1.94213 -3.581108 -0.300807284 0.320207754 -0.898321753 0.652964 1.985572
-1.431678 1.94213 -3.581108 0.300807284 0.320207754 -0.898321753 0.650914 -1.612126
-2.404444 1.936554 -3.583569 -0.14559976 0.166699726 -0.975198396 0.591157 1.965646
-1.437306 1.936554 -3.583569 0.14559976 0.166699726 -0.975198396 0.588518 -1.554446
-2.398634 1.930742 -3.583555 0.0878019751 -0.0664014937 -0.993922359 0.530759 1.945245
-1.443116 1.930742 -3.583555 -0.0878019751 -0.0664014937 -0.993922359 0.527498 -1.493351
-2.394682 1.926734 -3.580986 0.248510086 -0.228309266 -0.941338205 0.471588 1.931708
-1.447068 1.926734 -3.580986 -0.248603911 -0.228303591 -0.941314807 0.467781 -1.443683
-2.391887 1.923928 -3.580509 0.00260004186 0.0190003059 -0.999816097 0.413663 1.922406
-1.449863 1.923928 -3.580509 -0.00260004186 0.0190003059 -0.999816097 0.409111 -1.385941
-2.389092 1.921168 -3.582178 -0.335799246 0.354699204 -0.872598041 0.356772 1.913321
-1.452658 1.921168 -3.582178 0.335799246 0.354699204 -0.872598041 0.351612 -1.335975
-2.386612 1.918762 -3.585627 -0.395607333 0.413407663 -0.820115201 0.300623 1.905335
-1.455138 1.918762 -3.585627 0.395607333 0.413407663 -0.820115201 0.295106 -1.302528
-2.384173 1.916338 -3.586387 0.0252993186 -0.00369990034 -0.999673074 0.24555 1.89761
-1.457578 1.916338 -3.586387 -0.0251993849 -0.00369990969 -0.999675598 0.23936 -1.248802
-2.38268 1.914805 -3.584534 0.36881062 -0.35041009 -0.860924791 0.191213 1.893197
-1.45907 1.914805 -3.584534 -0.368897016 -0.350397165 -0.860893035 0.184602 -1.214661
-2.380305 1.912421 -3.584132 -0.0284012859 0.0500022639 -0.998345201 0.137874 1.885889
-1.461446 1.912421 -3.584132 0.0284012859 0.0500022639 -0.998345201 0.130615 -1.161406
-2.377822 1.909985 -3.586365 -0.548291123 0.561790905 -0.619489971 0.085359 1.878276
-1.463929 1.909985 -3.586365 0.548325089 0.561825707 -0.619428343 0.077671 -1.121418
-2.377632 1.909903 -3.591328 -0.706079672 0.707079643 -0.0385988888 0.033034 1.878203
-1.464118 1.909903 -3.591328 0.706079672 0.707079643 -0.0385988888 0.025334 -1.119289
3 0 1 2
3 0 3 1
3 4 2 5
3 4 0 2
3 6 5 7
3 6 4 5
3 8 7 9
3 8 6 7
3 10 9 11
3 10 8 9
3 12 11 13
3 12 10 11
3 14 13 15
3 14 12 13
3 16 15 17
3 16 14 15
3 18 17 19
3 18 16 17
3 20 19 21
3 20 18 19
3 22 21 23
3 22 20 21
3 24 23 25
3 24 22 23
3 26 25 27
3 26 24 25
3 28 27 29
3 28 26 27
3 2 30 31
3 2 1 30
3 5 31 32
3 5 2 31
3 7 32 33
3 7 5 32
3 9 33 34
3 9 7 33
3 11 34 35
3 11 9 34
3 13 35 36
3 13 11 35
3 15 36 37
3 15 13 36
3 17 37 38
3 17 15 37
3 19 38 39
3 19 17 38
3 21 39 40
3 21 19 39
3 23 40 41
3 23 21 40
3 25 41 42
3 25 23 41
3 27 42 43
3 27 25 42
3 29 43 44
3 29 27 43
3 31 45 46
3 31 30 45
3 32 46 47
3 32 31 46
3 33 47 48
3 33 32 47
3 34 48 49
3 34 33 48
3 35 49 50
3 35 34 49
3 36 50 51
3 36 35 50
3 37 51 52
3 37 36 51
3 38 52 53
3 38 37 52
3 39 53 54
3 39 38 53
3 40 54 55
3 40 39 54
3 41 55 56
3 41 40 55
3 42 56 57
3 42 41 56
3 43 57 58
3 43 42 57
3 44 58 59
3 44 43 58
3 60 61 62
3 60 63 61
3 64 62 65
3 64 60 62
3 66 65 67
3 66 64 65
3 68 67 69
3 68 66 67
3 70 69 71
3 70 68 69
3 72 71 73
3 72 70 71
3 74 73 75
3 74 72 73
3 76 75 77
3 76 74 75
3 78 77 79
3 78 76 77
3 80 79 81
3 80 78 79
3 82 81 83
3 82 80 81
3 84 83 85
3 84 82 83
3 86 85 87
3 86 84 85
3 88 87 89
3 88 86 87
