ply
format ascii 1.0
element vertex 1152
property float x
property float y
property float z
property float nx
property float ny
property float nz
property float u
property float v
element face 384
property list uchar int vertex_indices
end_header
-1.017827 4.435868 -1.944653 -0.917082899 0.120682641 0.379992969 0 0
-1.012808 4.452578 -1.937847 -0.917082899 0.120682641 0.379992969 0 0
-1.015532 4.453308 -1.944653 -0.917082899 0.120682641 0.379992969 0 0
-1.017827 4.435868 -1.944653 -0.917126376 0.12074674 0.379867654 0 0
-1.015008 4.435868 -1.937847 -0.917126376 0.12074674 0.379867654 0 0
-1.012808 4.452578 -1.937847 -0.917126376 0.12074674 0.379867654 0 0
-1.015008 4.435868 -1.937847 -0.382183684 0.050317421 0.922715443 0 0
-1.006234 4.450816 -1.935028 -0.382183684 0.050317421 0.922715443 0 0
-1.012808 4.452578 -1.937847 -0.382183684 0.050317421 0.922715443 0 0
-1.015008 4.435868 -1.937847 -0.382182778 0.0503168121 0.922715852 0 0
-1.008202 4.435868 -1.935028 -0.382182778 0.0503168121 0.922715852 0 0
-1.006234 4.450816 -1.935028 -0.382182778 0.0503168121 0.922715852 0 0
-1.008202 4.435868 -1.935028 0.382190096 -0.0503177755 0.922712768 0 0
-0.99966 4.449055 -1.937847 0.382190096 -0.0503177755 0.922712768 0 0
-1.006234 4.450816 -1.935028 0.382190096 -0.0503177755 0.922712768 0 0
-1.008202 4.435868 -1.935028 0.382135616 -0.0502771892 0.922737544 0 0
-1.001395 4.435868 -1.937847 0.382135616 -0.0502771892 0.922737544 0 0
-0.99966 4.449055 -1.937847 0.382135616 -0.0502771892 0.922737544 0 0
-1.001395 4.435868 -1.937847 0.917086303 -0.1206601 0.379991913 0 0
-0.996936 4.448325 -1.944653 0.917086303 -0.1206601 0.379991913 0 0
-0.99966 4.449055 -1.937847 0.917086303 -0.1206601 0.379991913 0 0
-1.001395 4.435868 -1.937847 0.917126864 -0.120742398 0.379867856 0 0
-0.998576 4.435868 -1.944653 0.917126864 -0.120742398 0.379867856 0 0
-0.996936 4.448325 -1.944653 0.917126864 -0.120742398 0.379867856 0 0
-0.998576 4.435868 -1.944653 0.917094361 -0.120738119 -0.379947681 0 0
-0.99966 4.449055 -1.95146 0.917094361 -0.120738119 -0.379947681 0 0
-0.996936 4.448325 -1.944653 0.917094361 -0.120738119 -0.379947681 0 0
-0.998576 4.435868 -1.944653 0.917154826 -0.120669115 -0.379823631 0 0
-1.001395 4.435868 -1.95146 0.917154826 -0.120669115 -0.379823631 0 0
-0.99966 4.449055 -1.95146 0.917154826 -0.120669115 -0.379823631 0 0
-1.001395 4.435868 -1.95146 0.3821981 -0.0502854102 -0.922711217 0 0
-1.006234 4.450816 -1.954279 0.3821981 -0.0502854102 -0.922711217 0 0
-0.99966 4.449055 -1.95146 0.3821981 -0.0502854102 -0.922711217 0 0
-1.001395 4.435868 -1.95146 0.382134974 -0.0503105183 -0.922735993 0 0
-1.008202 4.435868 -1.954279 0.382134974 -0.0503105183 -0.922735993 0 0
-1.006234 4.450816 -1.954279 0.382134974 -0.0503105183 -0.922735993 0 0
-1.008202 4.435868 -1.954279 -0.382183801 0.0503169468 -0.92271542 0 0
-1.012808 4.452578 -1.95146 -0.382183801 0.0503169468 -0.92271542 0 0
-1.006234 4.450816 -1.954279 -0.382183801 0.0503169468 -0.92271542 0 0
-1.008202 4.435868 -1.954279 -0.382182768 0.0503173004 -0.922715829 0 0
-1.015008 4.435868 -1.95146 -0.382182768 0.0503173004 -0.922715829 0 0
-1.012808 4.452578 -1.95146 -0.382182768 0.0503173004 -0.922715829 0 0
-1.017827 4.435868 -1.944653 -0.917145817 0.1207493 -0.3798199 0 0
-1.012808 4.452578 -1.95146 -0.917145817 0.1207493 -0.3798199 0 0
-1.015008 4.435868 -1.95146 -0.917145817 0.1207493 -0.3798199 0 0
-1.017827 4.435868 -1.944653 -0.917102352 0.120685201 -0.379945204 0 0
-1.015532 4.453308 -1.944653 -0.917102352 0.120685201 -0.379945204 0 0
-1.012808 4.452578 -1.95146 -0.917102352 0.120685201 -0.379945204 0 0
-1.015532 4.453308 -1.944653 -0.854611027 0.354045627 0.379857457 0 0
-1.006359 4.468148 -1.937847 -0.854611027 0.354045627 0.379857457 0 0
-1.0088 4.469558 -1.944653 -0.854611027 0.354045627 0.379857457 0 0
-1.015532 4.453308 -1.944653 -0.854582283 0.353962822 0.379999265 0 0
-1.012808 4.452578 -1.937847 -0.854582283 0.353962822 0.379999265 0 0
-1.006359 4.468148 -1.937847 -0.854582283 0.353962822 0.379999265 0 0
-1.012808 4.452578 -1.937847 -0.356106315 0.147497086 0.922731219 0 0
-1.000464 4.464745 -1.935028 -0.356106315 0.147497086 0.922731219 0 0
-1.006359 4.468148 -1.937847 -0.356106315 0.147497086 0.922731219 0 0
-1.012808 4.452578 -1.937847 -0.356130487 0.147524798 0.922717459 0 0
-1.006234 4.450816 -1.935028 -0.356130487 0.147524798 0.922717459 0 0
-1.000464 4.464745 -1.935028 -0.356130487 0.147524798 0.922717459 0 0
-1.006234 4.450816 -1.935028 0.356139876 -0.147528687 0.922713214 0 0
-0.99457 4.461342 -1.937847 0.356139876 -0.147528687 0.922713214 0 0
-1.000464 4.464745 -1.935028 0.356139876 -0.147528687 0.922713214 0 0
-1.006234 4.450816 -1.935028 0.356146279 -0.147536792 0.922709447 0 0
-0.99966 4.449055 -1.937847 0.356146279 -0.147536792 0.922709447 0 0
-0.99457 4.461342 -1.937847 0.356146279 -0.147536792 0.922709447 0 0
-0.99966 4.449055 -1.937847 0.854575933 -0.354015748 0.379964242 0 0
-0.992128 4.459932 -1.944653 0.854575933 -0.354015748 0.379964242 0 0
-0.99457 4.461342 -1.937847 0.854575933 -0.354015748 0.379964242 0 0
-0.99966 4.449055 -1.937847 0.85457109 -0.353991367 0.379997847 0 0
-0.996936 4.448325 -1.944653 0.85457109 -0.353991367 0.379997847 0 0
-0.992128 4.459932 -1.944653 0.85457109 -0.353991367 0.379997847 0 0
-0.996936 4.448325 -1.944653 0.854602331 -0.354004309 -0.379915523 0 0
-0.99457 4.461342 -1.95146 0.854602331 -0.354004309 -0.379915523 0 0
-0.992128 4.459932 -1.944653 0.854602331 -0.354004309 -0.379915523 0 0
-0.996936 4.448325 -1.944653 0.854581669 -0.354018125 -0.379949126 0 0
-0.99966 4.449055 -1.95146 0.854581669 -0.354018125 -0.379949126 0 0
-0.99457 4.461342 -1.95146 0.854581669 -0.354018125 -0.379949126 0 0
-0.99966 4.449055 -1.95146 0.356137427 -0.147533125 -0.92271345 0 0
-1.000464 4.464745 -1.954279 0.356137427 -0.147533125 -0.92271345 0 0
-0.99457 4.461342 -1.95146 0.356137427 -0.147533125 -0.92271345 0 0
-0.99966 4.449055 -1.95146 0.356147685 -0.147531922 -0.922709683 0 0
-1.006234 4.450816 -1.954279 0.356147685 -0.147531922 -0.922709683 0 0
-1.000464 4.464745 -1.954279 0.356147685 -0.147531922 -0.922709683 0 0
-1.006234 4.450816 -1.954279 -0.356098364 0.147511491 -0.922731984 0 0
-1.006359 4.468148 -1.95146 -0.356098364 0.147511491 -0.922731984 0 0
-1.000464 4.464745 -1.954279 -0.356098364 0.147511491 -0.922731984 0 0
-1.006234 4.450816 -1.954279 -0.356135053 0.147508989 -0.922718225 0 0
-1.012808 4.452578 -1.95146 -0.356135053 0.147508989 -0.922718225 0 0
-1.006359 4.468148 -1.95146 -0.356135053 0.147508989 -0.922718225 0 0
-1.012808 4.452578 -1.95146 -0.854655361 0.353993091 -0.379806669 0 0
-1.0088 4.469558 -1.944653 -0.854655361 0.353993091 -0.379806669 0 0
-1.006359 4.468148 -1.95146 -0.854655361 0.353993091 -0.379806669 0 0
-1.012808 4.452578 -1.95146 -0.854576494 0.354031321 -0.37994847 0 0
-1.015532 4.453308 -1.944653 -0.854576494 0.354031321 -0.37994847 0 0
-1.0088 4.469558 -1.944653 -0.854576494 0.354031321 -0.37994847 0 0
-1.0088 4.469558 -1.944653 -0.733876068 0.563067793 0.379974443 0 0
-0.996099 4.481519 -1.937847 -0.733876068 0.563067793 0.379974443 0 0
-0.998093 4.483513 -1.944653 -0.733876068 0.563067793 0.379974443 0 0
-1.0088 4.469558 -1.944653 -0.733880597 0.563130276 0.379873086 0 0
-1.006359 4.468148 -1.937847 -0.733880597 0.563130276 0.379873086 0 0
-0.996099 4.481519 -1.937847 -0.733880597 0.563130276 0.379873086 0 0
-1.006359 4.468148 -1.937847 -0.30582162 0.234666803 0.922715898 0 0
-0.991286 4.476707 -1.935028 -0.30582162 0.234666803 0.922715898 0 0
-0.996099 4.481519 -1.937847 -0.30582162 0.234666803 0.922715898 0 0
-1.006359 4.468148 -1.937847 -0.305804987 0.234632852 0.922730044 0 0
-1.000464 4.464745 -1.935028 -0.305804987 0.234632852 0.922730044 0 0
-0.991286 4.476707 -1.935028 -0.305804987 0.234632852 0.922730044 0 0
-1.000464 4.464745 -1.935028 0.305786374 -0.234618571 0.922739844 0 0
-0.986473 4.471893 -1.937847 0.305786374 -0.234618571 0.922739844 0 0
-0.991286 4.476707 -1.935028 0.305786374 -0.234618571 0.922739844 0 0
-1.000464 4.464745 -1.935028 0.305816377 -0.234688201 0.922712193 0 0
-0.99457 4.461342 -1.937847 0.305816377 -0.234688201 0.922712193 0 0
-0.986473 4.471893 -1.937847 0.305816377 -0.234688201 0.922712193 0 0
-0.99457 4.461342 -1.937847 0.733869801 -0.563182995 0.379815783 0 0
-0.98448 4.4699 -1.944653 0.733869801 -0.563182995 0.379815783 0 0
-0.986473 4.471893 -1.937847 0.733869801 -0.563182995 0.379815783 0 0
-0.99457 4.461342 -1.937847 0.733877173 -0.563071089 0.379967425 0 0
-0.992128 4.459932 -1.944653 0.733877173 -0.563071089 0.379967425 0 0
-0.98448 4.4699 -1.944653 0.733877173 -0.563071089 0.379967425 0 0
-0.992128 4.459932 -1.944653 0.73394354 -0.56312201 -0.37976372 0 0
-0.986473 4.471893 -1.95146 0.73394354 -0.56312201 -0.37976372 0 0
-0.98448 4.4699 -1.944653 0.73394354 -0.56312201 -0.37976372 0 0
-0.992128 4.459932 -1.944653 0.733837366 -0.563158103 -0.379915348 0 0
-0.99457 4.461342 -1.95146 0.733837366 -0.563158103 -0.379915348 0 0
-0.986473 4.471893 -1.95146 0.733837366 -0.563158103 -0.379915348 0 0
-0.99457 4.461342 -1.95146 0.305760576 -0.234645378 -0.922741576 0 0
-0.991286 4.476707 -1.954279 0.305760576 -0.234645378 -0.922741576 0 0
-0.986473 4.471893 -1.95146 0.305760576 -0.234645378 -0.922741576 0 0
-0.99457 4.461342 -1.95146 0.3058356 -0.23465634 -0.922713925 0 0
-1.000464 4.464745 -1.954279 0.3058356 -0.23465634 -0.922713925 0 0
-0.991286 4.476707 -1.954279 0.3058356 -0.23465634 -0.922713925 0 0
-1.000464 4.464745 -1.954279 -0.305833348 0.234654612 -0.922715111 0 0
-0.996099 4.481519 -1.95146 -0.305833348 0.234654612 -0.922715111 0 0
-0.991286 4.476707 -1.954279 -0.305833348 0.234654612 -0.922715111 0 0
-1.000464 4.464745 -1.954279 -0.30579625 0.234647335 -0.922729257 0 0
-1.006359 4.468148 -1.95146 -0.30579625 0.234647335 -0.922729257 0 0
-0.996099 4.481519 -1.95146 -0.30579625 0.234647335 -0.922729257 0 0
-1.006359 4.468148 -1.95146 -0.733862429 0.563116335 -0.379928846 0 0
-0.998093 4.483513 -1.944653 -0.733862429 0.563116335 -0.379928846 0 0
-0.996099 4.481519 -1.95146 -0.733862429 0.563116335 -0.379928846 0 0
-1.006359 4.468148 -1.95146 -0.733923949 0.56310453 -0.379827493 0 0
-1.0088 4.469558 -1.944653 -0.733923949 0.56310453 -0.379827493 0 0
-0.998093 4.483513 -1.944653 -0.733923949 0.56310453 -0.379827493 0 0
-0.998093 4.483513 -1.944653 -0.563092594 0.733908391 0.379875248 0 0
-0.982728 4.491779 -1.937847 -0.563092594 0.733908391 0.379875248 0 0
-0.984138 4.49422 -1.944653 -0.563092594 0.733908391 0.379875248 0 0
-0.998093 4.483513 -1.944653 -0.563104392 0.733846864 0.37997661 0 0
-0.996099 4.481519 -1.937847 -0.563104392 0.733846864 0.37997661 0 0
-0.982728 4.491779 -1.937847 -0.563104392 0.733846864 0.37997661 0 0
-0.996099 4.481519 -1.937847 -0.234670825 0.305826861 0.922713138 0 0
-0.979325 4.485885 -1.935028 -0.234670825 0.305826861 0.922713138 0 0
-0.982728 4.491779 -1.937847 -0.234670825 0.305826861 0.922713138 0 0
-0.996099 4.481519 -1.937847 -0.234671365 0.305829613 0.922712088 0 0
-0.991286 4.476707 -1.935028 -0.234671365 0.305829613 0.922712088 0 0
-0.979325 4.485885 -1.935028 -0.234671365 0.305829613 0.922712088 0 0
-0.991286 4.476707 -1.935028 0.234646261 -0.305796898 0.922729315 0 0
-0.975922 4.47999 -1.937847 0.234646261 -0.305796898 0.922729315 0 0
-0.979325 4.485885 -1.935028 0.234646261 -0.305796898 0.922729315 0 0
-0.991286 4.476707 -1.935028 0.234639916 -0.305753459 0.922745324 0 0
-0.986473 4.471893 -1.937847 0.234639916 -0.305753459 0.922745324 0 0
-0.975922 4.47999 -1.937847 0.234639916 -0.305753459 0.922745324 0 0
-0.986473 4.471893 -1.937847 0.563169229 -0.733851863 0.379870851 0 0
-0.974512 4.477549 -1.944653 0.563169229 -0.733851863 0.379870851 0 0
-0.975922 4.47999 -1.937847 0.563169229 -0.733851863 0.379870851 0 0
-0.986473 4.471893 -1.937847 0.563155743 -0.733891548 0.379814171 0 0
-0.98448 4.4699 -1.944653 0.563155743 -0.733891548 0.379814171 0 0
-0.974512 4.477549 -1.944653 0.563155743 -0.733891548 0.379814171 0 0
-0.98448 4.4699 -1.944653 0.56315311 -0.733888116 -0.379824706 0 0
-0.975922 4.47999 -1.95146 0.56315311 -0.733888116 -0.379824706 0 0
-0.974512 4.477549 -1.944653 0.56315311 -0.733888116 -0.379824706 0 0
-0.98448 4.4699 -1.944653 0.56319493 -0.733885353 -0.379768034 0 0
-0.986473 4.471893 -1.95146 0.56319493 -0.733885353 -0.379768034 0 0
-0.975922 4.47999 -1.95146 0.56319493 -0.733885353 -0.379768034 0 0
-0.986473 4.471893 -1.95146 0.234664711 -0.305785768 -0.922728312 0 0
-0.979325 4.485885 -1.954279 0.234664711 -0.305785768 -0.922728312 0 0
-0.975922 4.47999 -1.95146 0.234664711 -0.305785768 -0.922728312 0 0
-0.986473 4.471893 -1.95146 0.23462439 -0.305768395 -0.922744322 0 0
-0.991286 4.476707 -1.954279 0.23462439 -0.305768395 -0.922744322 0 0
-0.979325 4.485885 -1.954279 0.23462439 -0.305768395 -0.922744322 0 0
-0.991286 4.476707 -1.954279 -0.23466975 0.305827509 -0.922713196 0 0
-0.982728 4.491779 -1.95146 -0.23466975 0.305827509 -0.922713196 0 0
-0.979325 4.485885 -1.954279 -0.23466975 0.305827509 -0.922713196 0 0
-0.991286 4.476707 -1.954279 -0.234672269 0.305828743 -0.922712147 0 0
-0.996099 4.481519 -1.95146 -0.234672269 0.305828743 -0.922712147 0 0
-0.982728 4.491779 -1.95146 -0.234672269 0.305828743 -0.922712147 0 0
-0.996099 4.481519 -1.95146 -0.563142214 0.733896154 -0.379825332 0 0
-0.984138 4.49422 -1.944653 -0.563142214 0.733896154 -0.379825332 0 0
-0.982728 4.491779 -1.95146 -0.563142214 0.733896154 -0.379825332 0 0
-0.996099 4.481519 -1.95146 -0.563079736 0.733891633 -0.37992668 0 0
-0.998093 4.483513 -1.944653 -0.563079736 0.733891633 -0.37992668 0 0
-0.984138 4.49422 -1.944653 -0.563079736 0.733891633 -0.37992668 0 0
-0.984138 4.49422 -1.944653 -0.354028955 0.854623373 0.379845218 0 0
-0.967158 4.498229 -1.937847 -0.354028955 0.854623373 0.379845218 0 0
-0.967887 4.500952 -1.944653 -0.354028955 0.854623373 0.379845218 0 0
-0.984138 4.49422 -1.944653 -0.354032069 0.854616948 0.379856771 0 0
-0.982728 4.491779 -1.937847 -0.354032069 0.854616948 0.379856771 0 0
-0.967158 4.498229 -1.937847 -0.354032069 0.854616948 0.379856771 0 0
-0.982728 4.491779 -1.937847 -0.147512223 0.356087644 0.922736004 0 0
-0.965396 4.491654 -1.935028 -0.147512223 0.356087644 0.922736004 0 0
-0.967158 4.498229 -1.937847 -0.147512223 0.356087644 0.922736004 0 0
-0.982728 4.491779 -1.937847 -0.147507876 0.356151362 0.922712108 0 0
-0.979325 4.485885 -1.935028 -0.147507876 0.356151362 0.922712108 0 0
-0.965396 4.491654 -1.935028 -0.147507876 0.356151362 0.922712108 0 0
-0.979325 4.485885 -1.935028 0.147501962 -0.356137082 0.922718565 0 0
-0.963634 4.48508 -1.937847 0.147501962 -0.356137082 0.922718565 0 0
-0.965396 4.491654 -1.935028 0.147501962 -0.356137082 0.922718565 0 0
-0.979325 4.485885 -1.935028 0.147506157 -0.356101308 0.922731701 0 0
-0.975922 4.47999 -1.937847 0.147506157 -0.356101308 0.922731701 0 0
-0.963634 4.48508 -1.937847 0.147506157 -0.356101308 0.922731701 0 0
-0.975922 4.47999 -1.937847 0.354009714 -0.854630917 0.379846175 0 0
-0.962905 4.482357 -1.944653 0.354009714 -0.854630917 0.379846175 0 0
-0.963634 4.48508 -1.937847 0.354009714 -0.854630917 0.379846175 0 0
-0.975922 4.47999 -1.937847 0.354013688 -0.854624975 0.379855842 0 0
-0.974512 4.477549 -1.944653 0.354013688 -0.854624975 0.379855842 0 0
-0.962905 4.482357 -1.944653 0.354013688 -0.854624975 0.379855842 0 0
-0.974512 4.477549 -1.944653 0.354022754 -0.854646861 -0.379798147 0 0
-0.963634 4.48508 -1.95146 0.354022754 -0.854646861 -0.379798147 0 0
-0.962905 4.482357 -1.944653 0.354022754 -0.854646861 -0.379798147 0 0
-0.974512 4.477549 -1.944653 0.354015742 -0.85464547 -0.379807814 0 0
-0.975922 4.47999 -1.95146 0.354015742 -0.85464547 -0.379807814 0 0
-0.963634 4.48508 -1.95146 0.354015742 -0.85464547 -0.379807814 0 0
-0.975922 4.47999 -1.95146 0.147518944 -0.356132178 -0.922717743 0 0
-0.965396 4.491654 -1.954279 0.147518944 -0.356132178 -0.922717743 0 0
-0.963634 4.48508 -1.95146 0.147518944 -0.356132178 -0.922717743 0 0
-0.975922 4.47999 -1.95146 0.147490682 -0.356109848 -0.922730879 0 0
-0.979325 4.485885 -1.954279 0.147490682 -0.356109848 -0.922730879 0 0
-0.965396 4.491654 -1.954279 0.147490682 -0.356109848 -0.922730879 0 0
-0.979325 4.485885 -1.954279 -0.147484769 0.356095571 -0.922737334 0 0
-0.967158 4.498229 -1.95146 -0.147484769 0.356095571 -0.922737334 0 0
-0.965396 4.491654 -1.954279 -0.147484769 0.356095571 -0.922737334 0 0
-0.979325 4.485885 -1.954279 -0.147532897 0.356137552 -0.922713438 0 0
-0.982728 4.491779 -1.95146 -0.147532897 0.356137552 -0.922713438 0 0
-0.967158 4.498229 -1.95146 -0.147532897 0.356137552 -0.922713438 0 0
-0.982728 4.491779 -1.95146 -0.354041427 0.854639539 -0.379797218 0 0
-0.967887 4.500952 -1.944653 -0.354041427 0.854639539 -0.379797218 0 0
-0.967158 4.498229 -1.95146 -0.354041427 0.854639539 -0.379797218 0 0
-0.982728 4.491779 -1.95146 -0.354034682 0.854637199 -0.379808771 0 0
-0.984138 4.49422 -1.944653 -0.354034682 0.854637199 -0.379808771 0 0
-0.967887 4.500952 -1.944653 -0.354034682 0.854637199 -0.379808771 0 0
-0.967887 4.500952 -1.944653 -0.120696032 0.917132073 0.379870014 0 0
-0.950448 4.500428 -1.937847 -0.120696032 0.917132073 0.379870014 0 0
-0.950448 4.503247 -1.944653 -0.120696032 0.917132073 0.379870014 0 0
-0.967887 4.500952 -1.944653 -0.120693058 0.917135512 0.379862656 0 0
-0.967158 4.498229 -1.937847 -0.120693058 0.917135512 0.379862656 0 0
-0.950448 4.500428 -1.937847 -0.120693058 0.917135512 0.379862656 0 0
-0.967158 4.498229 -1.937847 -0.0502944868 0.382183208 0.922716891 0 0
-0.950448 4.493622 -1.935028 -0.0502944868 0.382183208 0.922716891 0 0
-0.950448 4.500428 -1.937847 -0.0502944868 0.382183208 0.922716891 0 0
-0.967158 4.498229 -1.937847 -0.0503106531 0.382135997 0.922735562 0 0
-0.965396 4.491654 -1.935028 -0.0503106531 0.382135997 0.922735562 0 0
-0.950448 4.493622 -1.935028 -0.0503106531 0.382135997 0.922735562 0 0
-0.965396 4.491654 -1.935028 0.0503105183 -0.382134974 0.922735993 0 0
-0.950448 4.486815 -1.937847 0.0503105183 -0.382134974 0.922735993 0 0
-0.950448 4.493622 -1.935028 0.0503105183 -0.382134974 0.922735993 0 0
-0.965396 4.491654 -1.935028 0.0502882758 -0.382190896 0.922714045 0 0
-0.963634 4.48508 -1.937847 0.0502882758 -0.382190896 0.922714045 0 0
-0.950448 4.486815 -1.937847 0.0502882758 -0.382190896 0.922714045 0 0
-0.963634 4.48508 -1.937847 0.120675575 -0.917134371 0.379870966 0 0
-0.950448 4.483996 -1.944653 0.120675575 -0.917134371 0.379870966 0 0
-0.950448 4.486815 -1.937847 0.120675575 -0.917134371 0.379870966 0 0
-0.963634 4.48508 -1.937847 0.120670364 -0.917138938 0.379861596 0 0
-0.962905 4.482357 -1.944653 0.120670364 -0.917138938 0.379861596 0 0
-0.950448 4.483996 -1.944653 0.120670364 -0.917138938 0.379861596 0 0
-0.962905 4.482357 -1.944653 0.120672405 -0.917154456 -0.379823478 0 0
-0.950448 4.486815 -1.95146 0.120672405 -0.917154456 -0.379823478 0 0
-0.950448 4.483996 -1.944653 0.120672405 -0.917154456 -0.379823478 0 0
-0.962905 4.482357 -1.944653 0.120678621 -0.917157518 -0.379814109 0 0
-0.963634 4.48508 -1.95146 0.120678621 -0.917157518 -0.379814109 0 0
-0.950448 4.486815 -1.95146 0.120678621 -0.917157518 -0.379814109 0 0
-0.963634 4.48508 -1.95146 0.0502809924 -0.382135543 -0.922737367 0 0
-0.950448 4.493622 -1.954279 0.0502809924 -0.382135543 -0.922737367 0 0
-0.950448 4.486815 -1.95146 0.0502809924 -0.382135543 -0.922737367 0 0
-0.963634 4.48508 -1.95146 0.0503169468 -0.382183801 -0.92271542 0 0
-0.965396 4.491654 -1.954279 0.0503169468 -0.382183801 -0.92271542 0 0
-0.950448 4.493622 -1.954279 0.0503169468 -0.382183801 -0.92271542 0 0
-0.965396 4.491654 -1.954279 -0.0503320077 0.382298197 -0.922667209 0 0
-0.950448 4.500428 -1.951459 -0.0503320077 0.382298197 -0.922667209 0 0
-0.950448 4.493622 -1.954279 -0.0503320077 0.382298197 -0.922667209 0 0
-0.965396 4.491654 -1.954279 -0.0502355005 0.382154591 -0.922731956 0 0
-0.967158 4.498229 -1.95146 -0.0502355005 0.382154591 -0.922731956 0 0
-0.950448 4.500428 -1.951459 -0.0502355005 0.382154591 -0.922731956 0 0
-0.967158 4.498229 -1.95146 -0.120670253 0.917134969 -0.379871213 0 0
-0.950448 4.503247 -1.944653 -0.120670253 0.917134969 -0.379871213 0 0
-0.950448 4.500428 -1.951459 -0.120670253 0.917134969 -0.379871213 0 0
-0.967158 4.498229 -1.95146 -0.120698977 0.917154446 -0.37981506 0 0
-0.967887 4.500952 -1.944653 -0.120698977 0.917154446 -0.37981506 0 0
-0.950448 4.503247 -1.944653 -0.120698977 0.917154446 -0.37981506 0 0
-0.950448 4.503247 -1.944653 0.120695605 0.917128827 0.379877988 0 0
-0.933739 4.498229 -1.937847 0.120695605 0.917128827 0.379877988 0 0
-0.933009 4.500952 -1.944653 0.120695605 0.917128827 0.379877988 0 0
-0.950448 4.503247 -1.944653 0.120699773 0.917131653 0.37986984 0 0
-0.950448 4.500428 -1.937847 0.120699773 0.917131653 0.37986984 0 0
-0.933739 4.498229 -1.937847 0.120699773 0.917131653 0.37986984 0 0
-0.950448 4.500428 -1.937847 0.0502918944 0.382140638 0.922734663 0 0
-0.935501 4.491654 -1.935028 0.0502918944 0.382140638 0.922734663 0 0
-0.933739 4.498229 -1.937847 0.0502918944 0.382140638 0.922734663 0 0
-0.950448 4.500428 -1.937847 0.0503201699 0.382182713 0.922715695 0 0
-0.950448 4.493622 -1.935028 0.0503201699 0.382182713 0.922715695 0 0
-0.935501 4.491654 -1.935028 0.0503201699 0.382182713 0.922715695 0 0
-0.950448 4.493622 -1.935028 -0.0503210358 -0.382189289 0.922712924 0 0
-0.937262 4.48508 -1.937847 -0.0503210358 -0.382189289 0.922712924 0 0
-0.935501 4.491654 -1.935028 -0.0503210358 -0.382189289 0.922712924 0 0
-0.950448 4.493622 -1.935028 -0.0502809924 -0.382135543 0.922737367 0 0
-0.950448 4.486815 -1.937847 -0.0502809924 -0.382135543 0.922737367 0 0
-0.937262 4.48508 -1.937847 -0.0502809924 -0.382135543 0.922737367 0 0
-0.950448 4.486815 -1.937847 -0.12067525 -0.9171319 0.379877035 0 0
-0.937992 4.482357 -1.944653 -0.12067525 -0.9171319 0.379877035 0 0
-0.937262 4.48508 -1.937847 -0.12067525 -0.9171319 0.379877035 0 0
-0.950448 4.486815 -1.937847 -0.120679394 -0.917133942 0.379870788 0 0
-0.950448 4.483996 -1.944653 -0.120679394 -0.917133942 0.379870788 0 0
-0.937992 4.482357 -1.944653 -0.120679394 -0.917133942 0.379870788 0 0
-0.950448 4.483996 -1.944653 -0.120681608 -0.917150769 -0.379829458 0 0
-0.937262 4.48508 -1.95146 -0.120681608 -0.917150769 -0.379829458 0 0
-0.937992 4.482357 -1.944653 -0.120681608 -0.917150769 -0.379829458 0 0
-0.950448 4.483996 -1.944653 -0.120678133 -0.917153813 -0.379823211 0 0
-0.950448 4.486815 -1.95146 -0.120678133 -0.917153813 -0.379823211 0 0
-0.937262 4.48508 -1.95146 -0.120678133 -0.917153813 -0.379823211 0 0
-0.950448 4.486815 -1.95146 -0.0502891036 -0.382197187 -0.922711394 0 0
-0.935501 4.491654 -1.954279 -0.0502891036 -0.382197187 -0.922711394 0 0
-0.937262 4.48508 -1.95146 -0.0502891036 -0.382197187 -0.922711394 0 0
-0.950448 4.486815 -1.95146 -0.0503138757 -0.382134909 -0.922735837 0 0
-0.950448 4.493622 -1.954279 -0.0503138757 -0.382134909 -0.922735837 0 0
-0.935501 4.491654 -1.954279 -0.0503138757 -0.382134909 -0.922735837 0 0
-0.950448 4.493622 -1.954279 0.0503291082 0.3822506 -0.922687087 0 0
-0.933739 4.498229 -1.951459 0.0503291082 0.3822506 -0.922687087 0 0
-0.935501 4.491654 -1.954279 0.0503291082 0.3822506 -0.922687087 0 0
-0.950448 4.493622 -1.954279 0.0503126791 0.38229857 -0.922668108 0 0
-0.950448 4.500428 -1.951459 0.0503126791 0.38229857 -0.922668108 0 0
-0.933739 4.498229 -1.951459 0.0503126791 0.38229857 -0.922668108 0 0
-0.950448 4.500428 -1.951459 0.120699327 0.917128265 -0.379878162 0 0
-0.933009 4.500952 -1.944653 0.120699327 0.917128265 -0.379878162 0 0
-0.933739 4.498229 -1.951459 0.120699327 0.917128265 -0.379878162 0 0
-0.950448 4.500428 -1.951459 0.120696032 0.917132073 -0.379870014 0 0
-0.950448 4.503247 -1.944653 0.120696032 0.917132073 -0.379870014 0 0
-0.933009 4.500952 -1.944653 0.120696032 0.917132073 -0.379870014 0 0
-0.933009 4.500952 -1.944653 0.354052622 0.854627913 0.379812942 0 0
-0.918168 4.491779 -1.937847 0.354052622 0.854627913 0.379812942 0 0
-0.916759 4.49422 -1.944653 0.354052622 0.854627913 0.379812942 0 0
-0.933009 4.500952 -1.944653 0.354007369 0.854612208 0.379890453 0 0
-0.933739 4.498229 -1.937847 0.354007369 0.854612208 0.379890453 0 0
-0.918168 4.491779 -1.937847 0.354007369 0.854612208 0.379890453 0 0
-0.933739 4.498229 -1.937847 0.14750799 0.356100297 0.922731798 0 0
-0.921571 4.485884 -1.935028 0.14750799 0.356100297 0.922731798 0 0
-0.918168 4.491779 -1.937847 0.14750799 0.356100297 0.922731798 0 0
-0.933739 4.498229 -1.937847 0.147498145 0.356091709 0.922736686 0 0
-0.935501 4.491654 -1.935028 0.147498145 0.356091709 0.922736686 0 0
-0.921571 4.485884 -1.935028 0.147498145 0.356091709 0.922736686 0 0
-0.935501 4.491654 -1.935028 -0.147512944 -0.356127437 0.922720532 0 0
-0.924975 4.47999 -1.937847 -0.147512944 -0.356127437 0.922720532 0 0
-0.921571 4.485884 -1.935028 -0.147512944 -0.356127437 0.922720532 0 0
-0.935501 4.491654 -1.935028 -0.147536792 -0.356146279 0.922709447 0 0
-0.937262 4.48508 -1.937847 -0.147536792 -0.356146279 0.922709447 0 0
-0.924975 4.47999 -1.937847 -0.147536792 -0.356146279 0.922709447 0 0
-0.937262 4.48508 -1.937847 -0.354039631 -0.854633586 0.379812287 0 0
-0.926384 4.477549 -1.944653 -0.354039631 -0.854633586 0.379812287 0 0
-0.924975 4.47999 -1.937847 -0.354039631 -0.854633586 0.379812287 0 0
-0.937262 4.48508 -1.937847 -0.35398202 -0.854622149 0.379891711 0 0
-0.937992 4.482357 -1.944653 -0.35398202 -0.854622149 0.379891711 0 0
-0.926384 4.477549 -1.944653 -0.35398202 -0.854622149 0.379891711 0 0
-0.937992 4.482357 -1.944653 -0.354002357 -0.854671248 -0.37976228 0 0
-0.924975 4.47999 -1.95146 -0.354002357 -0.854671248 -0.37976228 0 0
-0.926384 4.477549 -1.944653 -0.354002357 -0.854671248 -0.37976228 0 0
-0.937992 4.482357 -1.944653 -0.35403501 -0.854622429 -0.379841697 0 0
-0.937262 4.48508 -1.95146 -0.35403501 -0.854622429 -0.379841697 0 0
-0.924975 4.47999 -1.95146 -0.35403501 -0.854622429 -0.379841697 0 0
-0.937262 4.48508 -1.95146 -0.147508806 -0.356078722 -0.922739994 0 0
-0.921571 4.485885 -1.954279 -0.147508806 -0.356078722 -0.922739994 0 0
-0.924975 4.47999 -1.95146 -0.147508806 -0.356078722 -0.922739994 0 0
-0.937262 4.48508 -1.95146 -0.147499625 -0.356157008 -0.922711248 0 0
-0.935501 4.491654 -1.954279 -0.147499625 -0.356157008 -0.922711248 0 0
-0.921571 4.485885 -1.954279 -0.147499625 -0.356157008 -0.922711248 0 0
-0.935501 4.491654 -1.954279 0.147543801 0.356263677 -0.922663004 0 0
-0.918168 4.491779 -1.951459 0.147543801 0.356263677 -0.922663004 0 0
-0.921571 4.485885 -1.954279 0.147543801 0.356263677 -0.922663004 0 0
-0.935501 4.491654 -1.954279 0.147548309 0.356197631 -0.922687782 0 0
-0.933739 4.498229 -1.951459 0.147548309 0.356197631 -0.922687782 0 0
-0.918168 4.491779 -1.951459 0.147548309 0.356197631 -0.922687782 0 0
-0.933739 4.498229 -1.951459 0.35401981 0.854642241 -0.379811287 0 0
-0.916759 4.49422 -1.944653 0.35401981 0.854642241 -0.379811287 0 0
-0.918168 4.491779 -1.951459 0.35401981 0.854642241 -0.379811287 0 0
-0.933739 4.498229 -1.951459 0.354040701 0.854599136 -0.379888798 0 0
-0.933009 4.500952 -1.944653 0.354040701 0.854599136 -0.379888798 0 0
-0.916759 4.49422 -1.944653 0.354040701 0.854599136 -0.379888798 0 0
-0.916759 4.49422 -1.944653 0.56312348 0.733880105 0.379884112 0 0
-0.904798 4.481519 -1.937847 0.56312348 0.733880105 0.379884112 0 0
-0.902804 4.483512 -1.944653 0.56312348 0.733880105 0.379884112 0 0
-0.916759 4.49422 -1.944653 0.563174871 0.733883823 0.379800735 0 0
-0.918168 4.491779 -1.937847 0.563174871 0.733883823 0.379800735 0 0
-0.904798 4.481519 -1.937847 0.563174871 0.733883823 0.379800735 0 0
-0.918168 4.491779 -1.937847 0.234700394 0.305842521 0.922700427 0 0
-0.90961 4.476707 -1.935028 0.234700394 0.305842521 0.922700427 0 0
-0.904798 4.481519 -1.937847 0.234700394 0.305842521 0.922700427 0 0
-0.918168 4.491779 -1.937847 0.234628784 0.305807441 0.922730265 0 0
-0.921571 4.485884 -1.935028 0.234628784 0.305807441 0.922730265 0 0
-0.90961 4.476707 -1.935028 0.234628784 0.305807441 0.922730265 0 0
-0.921571 4.485884 -1.935028 -0.234609682 -0.305782544 0.922743373 0 0
-0.914423 4.471893 -1.937847 -0.234609682 -0.305782544 0.922743373 0 0
-0.90961 4.476707 -1.935028 -0.234609682 -0.305782544 0.922743373 0 0
-0.921571 4.485884 -1.935028 -0.234654973 -0.30580206 0.922725389 0 0
-0.924975 4.47999 -1.937847 -0.234654973 -0.30580206 0.922725389 0 0
-0.914423 4.471893 -1.937847 -0.234654973 -0.30580206 0.922725389 0 0
-0.924975 4.47999 -1.937847 -0.563132193 -0.733873151 0.379884629 0 0
-0.916417 4.4699 -1.944653 -0.563132193 -0.733873151 0.379884629 0 0
-0.914423 4.471893 -1.937847 -0.563132193 -0.733873151 0.379884629 0 0
-0.924975 4.47999 -1.937847 -0.563194951 -0.733869012 0.37979958 0 0
-0.926384 4.477549 -1.944653 -0.563194951 -0.733869012 0.37979958 0 0
-0.916417 4.4699 -1.944653 -0.563194951 -0.733869012 0.37979958 0 0
-0.926384 4.477549 -1.944653 -0.563185022 -0.733856075 -0.379839297 0 0
-0.914423 4.471893 -1.95146 -0.563185022 -0.733856075 -0.379839297 0 0
-0.916417 4.4699 -1.944653 -0.563185022 -0.733856075 -0.379839297 0 0
-0.926384 4.477549 -1.944653 -0.563164781 -0.733915619 -0.379754253 0 0
-0.924975 4.47999 -1.95146 -0.563164781 -0.733915619 -0.379754253 0 0
-0.914423 4.471893 -1.95146 -0.563164781 -0.733915619 -0.379754253 0 0
-0.924975 4.47999 -1.95146 -0.234627123 -0.305765766 -0.922744498 0 0
-0.90961 4.476707 -1.954279 -0.234627123 -0.305765766 -0.922744498 0 0
-0.914423 4.471893 -1.95146 -0.234627123 -0.305765766 -0.922744498 0 0
-0.924975 4.47999 -1.95146 -0.23462824 -0.305773413 -0.922741681 0 0
-0.921571 4.485885 -1.954279 -0.23462824 -0.305773413 -0.922741681 0 0
-0.90961 4.476707 -1.954279 -0.23462824 -0.305773413 -0.922741681 0 0
-0.921571 4.485885 -1.954279 0.234689392 0.305853107 -0.922699716 0 0
-0.904798 4.481519 -1.95146 0.234689392 0.305853107 -0.922699716 0 0
-0.90961 4.476707 -1.954279 0.234689392 0.305853107 -0.922699716 0 0
-0.921571 4.485885 -1.954279 0.234706526 0.30594044 -0.922666404 0 0
-0.918168 4.491779 -1.951459 0.234706526 0.30594044 -0.922666404 0 0
-0.904798 4.481519 -1.95146 0.234706526 0.30594044 -0.922666404 0 0
-0.918168 4.491779 -1.951459 0.563147902 0.7338857 -0.379837097 0 0
-0.902804 4.483512 -1.944653 0.563147902 0.7338857 -0.379837097 0 0
-0.904798 4.481519 -1.95146 0.563147902 0.7338857 -0.379837097 0 0
-0.918168 4.491779 -1.951459 0.563143876 0.733906685 -0.379802518 0 0
-0.916759 4.49422 -1.944653 0.563143876 0.733906685 -0.379802518 0 0
-0.902804 4.483512 -1.944653 0.563143876 0.733906685 -0.379802518 0 0
-0.902804 4.483512 -1.944653 0.73383455 0.563128878 0.379964104 0 0
-0.894538 4.468148 -1.937847 0.73383455 0.563128878 0.379964104 0 0
-0.892096 4.469558 -1.944653 0.73383455 0.563128878 0.379964104 0 0
-0.902804 4.483512 -1.944653 0.733869933 0.563122094 0.379905815 0 0
-0.904798 4.481519 -1.937847 0.733869933 0.563122094 0.379905815 0 0
-0.894538 4.468148 -1.937847 0.733869933 0.563122094 0.379905815 0 0
-0.904798 4.481519 -1.937847 0.305826861 0.234670825 0.922713138 0 0
-0.900432 4.464745 -1.935028 0.305826861 0.234670825 0.922713138 0 0
-0.894538 4.468148 -1.937847 0.305826861 0.234670825 0.922713138 0 0
-0.904798 4.481519 -1.937847 0.305863967 0.234678104 0.922698987 0 0
-0.90961 4.476707 -1.935028 0.305863967 0.234678104 0.922698987 0 0
-0.900432 4.464745 -1.935028 0.305863967 0.234678104 0.922698987 0 0
-0.90961 4.476707 -1.935028 -0.305804987 -0.234632852 0.922730044 0 0
-0.906327 4.461342 -1.937847 -0.305804987 -0.234632852 0.922730044 0 0
-0.900432 4.464745 -1.935028 -0.305804987 -0.234632852 0.922730044 0 0
-0.90961 4.476707 -1.935028 -0.305776618 -0.234628708 0.922740499 0 0
-0.914423 4.471893 -1.937847 -0.305776618 -0.234628708 0.922740499 0 0
-0.906327 4.461342 -1.937847 -0.305776618 -0.234628708 0.922740499 0 0
-0.914423 4.471893 -1.937847 -0.733884625 -0.563124815 0.3798734 0 0
-0.908768 4.459932 -1.944653 -0.733884625 -0.563124815 0.3798734 0 0
-0.906327 4.461342 -1.937847 -0.733884625 -0.563124815 0.3798734 0 0
-0.914423 4.471893 -1.937847 -0.733861489 -0.563132677 0.37990644 0 0
-0.916417 4.4699 -1.944653 -0.733861489 -0.563132677 0.37990644 0 0
-0.908768 4.459932 -1.944653 -0.733861489 -0.563132677 0.37990644 0 0
-0.916417 4.4699 -1.944653 -0.733888116 -0.56315311 -0.379824706 0 0
-0.906327 4.461342 -1.95146 -0.733888116 -0.56315311 -0.379824706 0 0
-0.908768 4.459932 -1.944653 -0.733888116 -0.56315311 -0.379824706 0 0
-0.916417 4.4699 -1.944653 -0.733889725 -0.563128729 -0.379857745 0 0
-0.914423 4.471893 -1.95146 -0.733889725 -0.563128729 -0.379857745 0 0
-0.906327 4.461342 -1.95146 -0.733889725 -0.563128729 -0.379857745 0 0
-0.914423 4.471893 -1.95146 -0.305797719 -0.2346449 -0.922729389 0 0
-0.900432 4.464745 -1.954279 -0.305797719 -0.2346449 -0.922729389 0 0
-0.906327 4.461342 -1.95146 -0.305797719 -0.2346449 -0.922729389 0 0
-0.914423 4.471893 -1.95146 -0.305786374 -0.234618571 -0.922739844 0 0
-0.90961 4.476707 -1.954279 -0.305786374 -0.234618571 -0.922739844 0 0
-0.900432 4.464745 -1.954279 -0.305786374 -0.234618571 -0.922739844 0 0
-0.90961 4.476707 -1.954279 0.3058356 0.23465634 -0.922713925 0 0
-0.894538 4.468148 -1.95146 0.3058356 0.23465634 -0.922713925 0 0
-0.900432 4.464745 -1.954279 0.3058356 0.23465634 -0.922713925 0 0
-0.90961 4.476707 -1.954279 0.305852236 0.234690296 -0.922699775 0 0
-0.904798 4.481519 -1.95146 0.305852236 0.234690296 -0.922699775 0 0
-0.894538 4.468148 -1.95146 0.305852236 0.234690296 -0.922699775 0 0
-0.904798 4.481519 -1.95146 0.733866098 0.563119151 -0.379917587 0 0
-0.892096 4.469558 -1.944653 0.733866098 0.563119151 -0.379917587 0 0
-0.894538 4.468148 -1.95146 0.733866098 0.563119151 -0.379917587 0 0
-0.904798 4.481519 -1.95146 0.733868698 0.563155082 -0.379859301 0 0
-0.902804 4.483512 -1.944653 0.733868698 0.563155082 -0.379859301 0 0
-0.892096 4.469558 -1.944653 0.733868698 0.563155082 -0.379859301 0 0
-0.892096 4.469558 -1.944653 0.854641112 0.353983713 0.379847469 0 0
-0.888088 4.452578 -1.937847 0.854641112 0.353983713 0.379847469 0 0
-0.885365 4.453307 -1.944653 0.854641112 0.353983713 0.379847469 0 0
-0.892096 4.469558 -1.944653 0.85457618 0.354015181 0.379964214 0 0
-0.894538 4.468148 -1.937847 0.85457618 0.354015181 0.379964214 0 0
-0.888088 4.452578 -1.937847 0.85457618 0.354015181 0.379964214 0 0
-0.894538 4.468148 -1.937847 0.356087644 0.147512223 0.922736004 0 0
-0.894663 4.450816 -1.935028 0.356087644 0.147512223 0.922736004 0 0
-0.888088 4.452578 -1.937847 0.356087644 0.147512223 0.922736004 0 0
-0.894538 4.468148 -1.937847 0.356151362 0.147507876 0.922712108 0 0
-0.900432 4.464745 -1.935028 0.356151362 0.147507876 0.922712108 0 0
-0.894663 4.450816 -1.935028 0.356151362 0.147507876 0.922712108 0 0
-0.900432 4.464745 -1.935028 -0.356154277 -0.147509084 0.922710789 0 0
-0.901237 4.449055 -1.937847 -0.356154277 -0.147509084 0.922710789 0 0
-0.894663 4.450816 -1.935028 -0.356154277 -0.147509084 0.922710789 0 0
-0.900432 4.464745 -1.935028 -0.356095916 -0.147515928 0.92273222 0 0
-0.906327 4.461342 -1.937847 -0.356095916 -0.147515928 0.92273222 0 0
-0.901237 4.449055 -1.937847 -0.356095916 -0.147515928 0.92273222 0 0
-0.906327 4.461342 -1.937847 -0.854604312 -0.354027504 0.379889453 0 0
-0.90396 4.448325 -1.944653 -0.854604312 -0.354027504 0.379889453 0 0
-0.901237 4.449055 -1.937847 -0.854604312 -0.354027504 0.379889453 0 0
-0.906327 4.461342 -1.937847 -0.854624975 -0.354013688 0.379855842 0 0
-0.908768 4.459932 -1.944653 -0.854624975 -0.354013688 0.379855842 0 0
-0.90396 4.448325 -1.944653 -0.854624975 -0.354013688 0.379855842 0 0
-0.908768 4.459932 -1.944653 -0.854629979 -0.354015761 -0.379842653 0 0
-0.901237 4.449055 -1.95146 -0.854629979 -0.354015761 -0.379842653 0 0
-0.90396 4.448325 -1.944653 -0.854629979 -0.354015761 -0.379842653 0 0
-0.908768 4.459932 -1.944653 -0.854634815 -0.354040141 -0.379809047 0 0
-0.906327 4.461342 -1.95146 -0.854634815 -0.354040141 -0.379809047 0 0
-0.901237 4.449055 -1.95146 -0.854634815 -0.354040141 -0.379809047 0 0
-0.906327 4.461342 -1.95146 -0.356146279 -0.147536792 -0.922709447 0 0
-0.894663 4.450816 -1.954279 -0.356146279 -0.147536792 -0.922709447 0 0
-0.901237 4.449055 -1.95146 -0.356146279 -0.147536792 -0.922709447 0 0
-0.906327 4.461342 -1.95146 -0.356109848 -0.147490682 -0.922730879 0 0
-0.900432 4.464745 -1.954279 -0.356109848 -0.147490682 -0.922730879 0 0
-0.894663 4.450816 -1.954279 -0.356109848 -0.147490682 -0.922730879 0 0
-0.900432 4.464745 -1.954279 0.356095571 0.147484769 -0.922737334 0 0
-0.888088 4.452578 -1.95146 0.356095571 0.147484769 -0.922737334 0 0
-0.894663 4.450816 -1.954279 0.356095571 0.147484769 -0.922737334 0 0
-0.900432 4.464745 -1.954279 0.356137552 0.147532897 -0.922713438 0 0
-0.894538 4.468148 -1.95146 0.356137552 0.147532897 -0.922713438 0 0
-0.888088 4.452578 -1.95146 0.356137552 0.147532897 -0.922713438 0 0
-0.894538 4.468148 -1.95146 0.854639539 0.354041427 -0.379797218 0 0
-0.885365 4.453307 -1.944653 0.854639539 0.354041427 -0.379797218 0 0
-0.888088 4.452578 -1.95146 0.854639539 0.354041427 -0.379797218 0 0
-0.894538 4.468148 -1.95146 0.854615887 0.353973265 -0.379913956 0 0
-0.892096 4.469558 -1.944653 0.854615887 0.353973265 -0.379913956 0 0
-0.885365 4.453307 -1.944653 0.854615887 0.353973265 -0.379913956 0 0
-0.885365 4.453307 -1.944653 0.917126251 0.120747857 0.379867602 0 0
-0.885888 4.435868 -1.937847 0.917126251 0.120747857 0.379867602 0 0
-0.883069 4.435868 -1.944653 0.917126251 0.120747857 0.379867602 0 0
-0.885365 4.453307 -1.944653 0.917127388 0.120746873 0.37986517 0 0
-0.888088 4.452578 -1.937847 0.917127388 0.120746873 0.37986517 0 0
-0.885888 4.435868 -1.937847 0.917127388 0.120746873 0.37986517 0 0
-0.888088 4.452578 -1.937847 0.382134964 0.0503110067 0.922735971 0 0
-0.892695 4.435868 -1.935028 0.382134964 0.0503110067 0.922735971 0 0
-0.885888 4.435868 -1.937847 0.382134964 0.0503110067 0.922735971 0 0
-0.888088 4.452578 -1.937847 0.382135997 0.0503106531 0.922735562 0 0
-0.894663 4.450816 -1.935028 0.382135997 0.0503106531 0.922735562 0 0
-0.892695 4.435868 -1.935028 0.382135997 0.0503106531 0.922735562 0 0
-0.894663 4.450816 -1.935028 -0.382182778 -0.0503168121 0.922715852 0 0
-0.899501 4.435868 -1.937847 -0.382182778 -0.0503168121 0.922715852 0 0
-0.892695 4.435868 -1.935028 -0.382182778 -0.0503168121 0.922715852 0 0
-0.894663 4.450816 -1.935028 -0.382191158 -0.0503134793 0.922712562 0 0
-0.901237 4.449055 -1.937847 -0.382191158 -0.0503134793 0.922712562 0 0
-0.899501 4.435868 -1.937847 -0.382191158 -0.0503134793 0.922712562 0 0
-0.901237 4.449055 -1.937847 -0.917127685 -0.120735092 0.379868196 0 0
-0.90232 4.435868 -1.944653 -0.917127685 -0.120735092 0.379868196 0 0
-0.899501 4.435868 -1.937847 -0.917127685 -0.120735092 0.379868196 0 0
-0.901237 4.449055 -1.937847 -0.917121859 -0.12074174 0.379880149 0 0
-0.90396 4.448325 -1.944653 -0.917121859 -0.12074174 0.379880149 0 0
-0.90232 4.435868 -1.944653 -0.917121859 -0.12074174 0.379880149 0 0
-0.90396 4.448325 -1.944653 -0.917146305 -0.120744958 -0.379820102 0 0
-0.899501 4.435868 -1.95146 -0.917146305 -0.120744958 -0.379820102 0 0
-0.90232 4.435868 -1.944653 -0.917146305 -0.120744958 -0.379820102 0 0
-0.90396 4.448325 -1.944653 -0.9171424 -0.120737029 -0.379832053 0 0
-0.901237 4.449055 -1.95146 -0.9171424 -0.120737029 -0.379832053 0 0
-0.899501 4.435868 -1.95146 -0.9171424 -0.120737029 -0.379832053 0 0
-0.901237 4.449055 -1.95146 -0.382182863 -0.0503123872 -0.922716058 0 0
-0.892695 4.435868 -1.954279 -0.382182863 -0.0503123872 -0.922716058 0 0
-0.899501 4.435868 -1.95146 -0.382182863 -0.0503123872 -0.922716058 0 0
-0.901237 4.449055 -1.95146 -0.382190096 -0.0503177755 -0.922712768 0 0
-0.894663 4.450816 -1.954279 -0.382190096 -0.0503177755 -0.922712768 0 0
-0.892695 4.435868 -1.954279 -0.382190096 -0.0503177755 -0.922712768 0 0
-0.894663 4.450816 -1.954279 0.382134974 0.0503105183 -0.922735993 0 0
-0.885888 4.435868 -1.95146 0.382134974 0.0503105183 -0.922735993 0 0
-0.892695 4.435868 -1.954279 0.382134974 0.0503105183 -0.922735993 0 0
-0.894663 4.450816 -1.954279 0.38213588 0.0503111272 -0.922735585 0 0
-0.888088 4.452578 -1.95146 0.38213588 0.0503111272 -0.922735585 0 0
-0.885888 4.435868 -1.95146 0.38213588 0.0503111272 -0.922735585 0 0
-0.888088 4.452578 -1.95146 0.917145817 0.1207493 -0.3798199 0 0
-0.883069 4.435868 -1.944653 0.917145817 0.1207493 -0.3798199 0 0
-0.885888 4.435868 -1.95146 0.917145817 0.1207493 -0.3798199 0 0
-0.888088 4.452578 -1.95146 0.917146661 0.120750544 -0.379817468 0 0
-0.885365 4.453307 -1.944653 0.917146661 0.120750544 -0.379817468 0 0
-0.883069 4.435868 -1.944653 0.917146661 0.120750544 -0.379817468 0 0
-0.883069 4.435868 -1.944653 0.917121039 -0.12074717 0.379880403 0 0
-0.888088 4.419159 -1.937847 0.917121039 -0.12074717 0.379880403 0 0
-0.885365 4.418429 -1.944653 0.917121039 -0.12074717 0.379880403 0 0
-0.883069 4.435868 -1.944653 0.917125576 -0.120753861 0.379867323 0 0
-0.885888 4.435868 -1.937847 0.917125576 -0.120753861 0.379867323 0 0
-0.888088 4.419159 -1.937847 0.917125576 -0.120753861 0.379867323 0 0
-0.885888 4.435868 -1.937847 0.382141452 -0.0503148718 0.922733073 0 0
-0.894663 4.42092 -1.935028 0.382141452 -0.0503148718 0.922733073 0 0
-0.888088 4.419159 -1.937847 0.382141452 -0.0503148718 0.922733073 0 0
-0.885888 4.435868 -1.937847 0.382134974 -0.0503105183 0.922735993 0 0
-0.892695 4.435868 -1.935028 0.382134974 -0.0503105183 0.922735993 0 0
-0.894663 4.42092 -1.935028 0.382134974 -0.0503105183 0.922735993 0 0
-0.892695 4.435868 -1.935028 -0.382183801 0.0503169468 0.92271542 0 0
-0.901237 4.422682 -1.937847 -0.382183801 0.0503169468 0.92271542 0 0
-0.894663 4.42092 -1.935028 -0.382183801 0.0503169468 0.92271542 0 0
-0.892695 4.435868 -1.935028 -0.38218279 0.0503161932 0.92271588 0 0
-0.899501 4.435868 -1.937847 -0.38218279 0.0503161932 0.92271588 0 0
-0.901237 4.422682 -1.937847 -0.38218279 0.0503161932 0.92271588 0 0
-0.899501 4.435868 -1.937847 -0.917121601 0.120743448 0.379880229 0 0
-0.90396 4.423412 -1.944653 -0.917121601 0.120743448 0.379880229 0 0
-0.901237 4.422682 -1.937847 -0.917121601 0.120743448 0.379880229 0 0
-0.899501 4.435868 -1.937847 -0.917125791 0.120751951 0.379867412 0 0
-0.90232 4.435868 -1.944653 -0.917125791 0.120751951 0.379867412 0 0
-0.90396 4.423412 -1.944653 -0.917125791 0.120751951 0.379867412 0 0
-0.90232 4.435868 -1.944653 -0.917139866 0.120753804 -0.379832839 0 0
-0.901237 4.422682 -1.95146 -0.917139866 0.120753804 -0.379832839 0 0
-0.90396 4.423412 -1.944653 -0.917139866 0.120753804 -0.379832839 0 0
-0.90232 4.435868 -1.944653 -0.917146112 0.120746675 -0.379820022 0 0
-0.899501 4.435868 -1.95146 -0.917146112 0.120746675 -0.379820022 0 0
-0.901237 4.422682 -1.95146 -0.917146112 0.120746675 -0.379820022 0 0
-0.899501 4.435868 -1.95146 -0.38218395 0.0503163459 -0.922715392 0 0
-0.894663 4.42092 -1.954279 -0.38218395 0.0503163459 -0.922715392 0 0
-0.901237 4.422682 -1.95146 -0.38218395 0.0503163459 -0.922715392 0 0
-0.899501 4.435868 -1.95146 -0.382182778 0.0503168121 -0.922715852 0 0
-0.892695 4.435868 -1.954279 -0.382182778 0.0503168121 -0.922715852 0 0
-0.894663 4.42092 -1.954279 -0.382182778 0.0503168121 -0.922715852 0 0
-0.892695 4.435868 -1.954279 0.38214229 -0.0503114816 -0.922732911 0 0
-0.888088 4.419159 -1.95146 0.38214229 -0.0503114816 -0.922732911 0 0
-0.894663 4.42092 -1.954279 0.38214229 -0.0503114816 -0.922732911 0 0
-0.892695 4.435868 -1.954279 0.382134906 -0.0503140101 -0.922735831 0 0
-0.885888 4.435868 -1.95146 0.382134906 -0.0503140101 -0.922735831 0 0
-0.888088 4.419159 -1.95146 0.382134906 -0.0503140101 -0.922735831 0 0
-0.885888 4.435868 -1.95146 0.917139579 -0.120755705 -0.379832928 0 0
-0.885365 4.418429 -1.944653 0.917139579 -0.120755705 -0.379832928 0 0
-0.888088 4.419159 -1.95146 0.917139579 -0.120755705 -0.379832928 0 0
-0.885888 4.435868 -1.95146 0.917145692 -0.120750416 -0.379819848 0 0
-0.883069 4.435868 -1.944653 0.917145692 -0.120750416 -0.379819848 0 0
-0.885365 4.418429 -1.944653 0.917145692 -0.120750416 -0.379819848 0 0
-0.885365 4.418429 -1.944653 0.854606595 -0.3539912 0.379918147 0 0
-0.894538 4.403588 -1.937847 0.854606595 -0.3539912 0.379918147 0 0
-0.892096 4.402179 -1.944653 0.854606595 -0.3539912 0.379918147 0 0
-0.885365 4.418429 -1.944653 0.854612208 -0.354007369 0.379890453 0 0
-0.888088 4.419159 -1.937847 0.854612208 -0.354007369 0.379890453 0 0
-0.894538 4.403588 -1.937847 0.854612208 -0.354007369 0.379890453 0 0
-0.888088 4.419159 -1.937847 0.356141808 -0.147525186 0.922713028 0 0
-0.900432 4.406991 -1.935028 0.356141808 -0.147525186 0.922713028 0 0
-0.894538 4.403588 -1.937847 0.356141808 -0.147525186 0.922713028 0 0
-0.888088 4.419159 -1.937847 0.356112763 -0.147491889 0.922729561 0 0
-0.894663 4.42092 -1.935028 0.356112763 -0.147491889 0.922729561 0 0
-0.900432 4.406991 -1.935028 0.356112763 -0.147491889 0.922729561 0 0
-0.894663 4.42092 -1.935028 -0.356092657 0.147483562 0.922738651 0 0
-0.906327 4.410395 -1.937847 -0.356092657 0.147483562 0.922738651 0 0
-0.900432 4.406991 -1.935028 -0.356092657 0.147483562 0.922738651 0 0
-0.894663 4.42092 -1.935028 -0.356129081 0.147529667 0.922717224 0 0
-0.901237 4.422682 -1.937847 -0.356129081 0.147529667 0.922717224 0 0
-0.906327 4.410395 -1.937847 -0.356129081 0.147529667 0.922717224 0 0
-0.901237 4.422682 -1.937847 -0.854633586 0.354039631 0.379812287 0 0
-0.908768 4.411804 -1.944653 -0.854633586 0.354039631 0.379812287 0 0
-0.906327 4.410395 -1.937847 -0.854633586 0.354039631 0.379812287 0 0
-0.901237 4.422682 -1.937847 -0.854622149 0.35398202 0.379891711 0 0
-0.90396 4.423412 -1.944653 -0.854622149 0.35398202 0.379891711 0 0
-0.908768 4.411804 -1.944653 -0.854622149 0.35398202 0.379891711 0 0
-0.90396 4.423412 -1.944653 -0.854671248 0.354002357 -0.37976228 0 0
-0.906327 4.410395 -1.95146 -0.854671248 0.354002357 -0.37976228 0 0
-0.908768 4.411804 -1.944653 -0.854671248 0.354002357 -0.37976228 0 0
-0.90396 4.423412 -1.944653 -0.854622429 0.35403501 -0.379841697 0 0
-0.901237 4.422682 -1.95146 -0.854622429 0.35403501 -0.379841697 0 0
-0.906327 4.410395 -1.95146 -0.854622429 0.35403501 -0.379841697 0 0
-0.901237 4.422682 -1.95146 -0.356078722 0.147508806 -0.922739994 0 0
-0.900432 4.406991 -1.954279 -0.356078722 0.147508806 -0.922739994 0 0
-0.906327 4.410395 -1.95146 -0.356078722 0.147508806 -0.922739994 0 0
-0.901237 4.422682 -1.95146 -0.356137082 0.147501962 -0.922718565 0 0
-0.894663 4.42092 -1.954279 -0.356137082 0.147501962 -0.922718565 0 0
-0.900432 4.406991 -1.954279 -0.356137082 0.147501962 -0.922718565 0 0
-0.894663 4.42092 -1.954279 0.356151362 -0.147507876 -0.922712108 0 0
-0.894538 4.403588 -1.95146 0.356151362 -0.147507876 -0.922712108 0 0
-0.900432 4.406991 -1.954279 0.356151362 -0.147507876 -0.922712108 0 0
-0.894663 4.42092 -1.954279 0.356107281 -0.147510883 -0.92272864 0 0
-0.888088 4.419159 -1.95146 0.356107281 -0.147510883 -0.92272864 0 0
-0.894538 4.403588 -1.95146 0.356107281 -0.147510883 -0.92272864 0 0
-0.888088 4.419159 -1.95146 0.854619597 -0.35401043 -0.379870979 0 0
-0.892096 4.402179 -1.944653 0.854619597 -0.35401043 -0.379870979 0 0
-0.894538 4.403588 -1.95146 0.854619597 -0.35401043 -0.379870979 0 0
-0.888088 4.419159 -1.95146 0.854634997 -0.354002964 -0.379843288 0 0
-0.885365 4.418429 -1.944653 0.854634997 -0.354002964 -0.379843288 0 0
-0.892096 4.402179 -1.944653 0.854634997 -0.354002964 -0.379843288 0 0
-0.892096 4.402179 -1.944653 0.733850041 -0.563100411 0.379976374 0 0
-0.904798 4.390218 -1.937847 0.733850041 -0.563100411 0.379976374 0 0
-0.902804 4.388224 -1.944653 0.733850041 -0.563100411 0.379976374 0 0
-0.892096 4.402179 -1.944653 0.733853766 -0.563151805 0.379893005 0 0
-0.894538 4.403588 -1.937847 0.733853766 -0.563151805 0.379893005 0 0
-0.904798 4.390218 -1.937847 0.733853766 -0.563151805 0.379893005 0 0
-0.894538 4.403588 -1.937847 0.305842521 -0.234700394 0.922700427 0 0
-0.90961 4.39503 -1.935028 0.305842521 -0.234700394 0.922700427 0 0
-0.904798 4.390218 -1.937847 0.305842521 -0.234700394 0.922700427 0 0
-0.894538 4.403588 -1.937847 0.305827509 -0.23466975 0.922713196 0 0
-0.900432 4.406991 -1.935028 0.305827509 -0.23466975 0.922713196 0 0
-0.90961 4.39503 -1.935028 0.305827509 -0.23466975 0.922713196 0 0
-0.900432 4.406991 -1.935028 -0.305799001 0.234647875 0.922728208 0 0
-0.914423 4.399843 -1.937847 -0.305799001 0.234647875 0.922728208 0 0
-0.90961 4.39503 -1.935028 -0.305799001 0.234647875 0.922728208 0 0
-0.900432 4.406991 -1.935028 -0.305783405 0.23461168 0.92274258 0 0
-0.906327 4.410395 -1.937847 -0.305783405 0.23461168 0.92274258 0 0
-0.914423 4.399843 -1.937847 -0.305783405 0.23461168 0.92274258 0 0
-0.906327 4.410395 -1.937847 -0.733877508 0.563065988 0.379974336 0 0
-0.916417 4.401837 -1.944653 -0.733877508 0.563065988 0.379974336 0 0
-0.914423 4.399843 -1.937847 -0.733877508 0.563065988 0.379974336 0 0
-0.906327 4.410395 -1.937847 -0.733869012 0.563194951 0.37979958 0 0
-0.908768 4.411804 -1.944653 -0.733869012 0.563194951 0.37979958 0 0
-0.916417 4.401837 -1.944653 -0.733869012 0.563194951 0.37979958 0 0
-0.908768 4.411804 -1.944653 -0.733826021 0.563161958 -0.379931546 0 0
-0.914423 4.399843 -1.95146 -0.733826021 0.563161958 -0.379931546 0 0
-0.916417 4.401837 -1.944653 -0.733826021 0.563161958 -0.379931546 0 0
-0.908768 4.411804 -1.944653 -0.733948379 0.563120364 -0.379756807 0 0
-0.906327 4.410395 -1.95146 -0.733948379 0.563120364 -0.379756807 0 0
-0.914423 4.399843 -1.95146 -0.733948379 0.563120364 -0.379756807 0 0
-0.906327 4.410395 -1.95146 -0.305812413 0.234633936 -0.922727307 0 0
-0.90961 4.39503 -1.954279 -0.305812413 0.234633936 -0.922727307 0 0
-0.914423 4.399843 -1.95146 -0.305812413 0.234633936 -0.922727307 0 0
-0.906327 4.410395 -1.95146 -0.305773413 0.23462824 -0.922741681 0 0
-0.900432 4.406991 -1.954279 -0.305773413 0.23462824 -0.922741681 0 0
-0.90961 4.39503 -1.954279 -0.305773413 0.23462824 -0.922741681 0 0
-0.900432 4.406991 -1.954279 0.305853107 -0.234689392 -0.922699716 0 0
-0.904798 4.390218 -1.95146 0.305853107 -0.234689392 -0.922699716 0 0
-0.90961 4.39503 -1.954279 0.305853107 -0.234689392 -0.922699716 0 0
-0.900432 4.406991 -1.954279 0.305819623 -0.234682822 -0.922712486 0 0
-0.894538 4.403588 -1.95146 0.305819623 -0.234682822 -0.922712486 0 0
-0.904798 4.390218 -1.95146 0.305819623 -0.234682822 -0.922712486 0 0
-0.894538 4.403588 -1.95146 0.733841584 -0.563142457 -0.379930392 0 0
-0.902804 4.388224 -1.944653 0.733841584 -0.563142457 -0.379930392 0 0
-0.904798 4.390218 -1.95146 0.733841584 -0.563142457 -0.379930392 0 0
-0.894538 4.403588 -1.95146 0.733892184 -0.563132749 -0.379847034 0 0
-0.892096 4.402179 -1.944653 0.733892184 -0.563132749 -0.379847034 0 0
-0.902804 4.388224 -1.944653 0.733892184 -0.563132749 -0.379847034 0 0
-0.902804 4.388224 -1.944653 0.56312081 -0.733876626 0.37989479 0 0
-0.918168 4.379958 -1.937847 0.56312081 -0.733876626 0.37989479 0 0
-0.916759 4.377516 -1.944653 0.56312081 -0.733876626 0.37989479 0 0
-0.902804 4.388224 -1.944653 0.563130513 -0.733826019 0.379978155 0 0
-0.904798 4.390218 -1.937847 0.563130513 -0.733826019 0.379978155 0 0
-0.918168 4.379958 -1.937847 0.563130513 -0.733826019 0.379978155 0 0
-0.904798 4.390218 -1.937847 0.234682822 -0.305819623 0.922712486 0 0
-0.921571 4.385852 -1.935028 0.234682822 -0.305819623 0.922712486 0 0
-0.918168 4.379958 -1.937847 0.234682822 -0.305819623 0.922712486 0 0
-0.904798 4.390218 -1.937847 0.234689392 -0.305853107 0.922699716 0 0
-0.90961 4.39503 -1.935028 0.234689392 -0.305853107 0.922699716 0 0
-0.921571 4.385852 -1.935028 0.234689392 -0.305853107 0.922699716 0 0
-0.90961 4.39503 -1.935028 -0.23462824 0.305773413 0.922741681 0 0
-0.924975 4.391747 -1.937847 -0.23462824 0.305773413 0.922741681 0 0
-0.921571 4.385852 -1.935028 -0.23462824 0.305773413 0.922741681 0 0
-0.90961 4.39503 -1.935028 -0.234633936 0.305812413 0.922727307 0 0
-0.914423 4.399843 -1.937847 -0.234633936 0.305812413 0.922727307 0 0
-0.924975 4.391747 -1.937847 -0.234633936 0.305812413 0.922727307 0 0
-0.914423 4.399843 -1.937847 -0.563108431 0.733932827 0.379804556 0 0
-0.926384 4.394188 -1.944653 -0.563108431 0.733932827 0.379804556 0 0
-0.924975 4.391747 -1.937847 -0.563108431 0.733932827 0.379804556 0 0
-0.914423 4.399843 -1.937847 -0.563150014 0.733810457 0.379979309 0 0
-0.916417 4.401837 -1.944653 -0.563150014 0.733810457 0.379979309 0 0
-0.926384 4.394188 -1.944653 -0.563150014 0.733810457 0.379979309 0 0
-0.916417 4.401837 -1.944653 -0.563206885 0.733884563 -0.379751832 0 0
-0.924975 4.391747 -1.95146 -0.563206885 0.733884563 -0.379751832 0 0
-0.926384 4.394188 -1.944653 -0.563206885 0.733884563 -0.379751832 0 0
-0.916417 4.401837 -1.944653 -0.563077931 0.733893073 -0.379926573 0 0
-0.914423 4.399843 -1.95146 -0.563077931 0.733893073 -0.379926573 0 0
-0.924975 4.391747 -1.95146 -0.563077931 0.733893073 -0.379926573 0 0
-0.914423 4.399843 -1.95146 -0.23461168 0.305783405 -0.92274258 0 0
-0.921571 4.385852 -1.954279 -0.23461168 0.305783405 -0.92274258 0 0
-0.924975 4.391747 -1.95146 -0.23461168 0.305783405 -0.92274258 0 0
-0.914423 4.399843 -1.95146 -0.234647875 0.305799001 -0.922728208 0 0
-0.90961 4.39503 -1.954279 -0.234647875 0.305799001 -0.922728208 0 0
-0.921571 4.385852 -1.954279 -0.234647875 0.305799001 -0.922728208 0 0
-0.90961 4.39503 -1.954279 0.23466975 -0.305827509 -0.922713196 0 0
-0.918168 4.379958 -1.95146 0.23466975 -0.305827509 -0.922713196 0 0
-0.921571 4.385852 -1.954279 0.23466975 -0.305827509 -0.922713196 0 0
-0.90961 4.39503 -1.954279 0.234700394 -0.305842521 -0.922700427 0 0
-0.904798 4.390218 -1.95146 0.234700394 -0.305842521 -0.922700427 0 0
-0.918168 4.379958 -1.95146 0.234700394 -0.305842521 -0.922700427 0 0
-0.904798 4.390218 -1.95146 0.563163744 -0.733869324 -0.379845248 0 0
-0.916759 4.377516 -1.944653 0.563163744 -0.733869324 -0.379845248 0 0
-0.918168 4.379958 -1.95146 0.563163744 -0.733869324 -0.379845248 0 0
-0.904798 4.390218 -1.95146 0.563112354 -0.733865606 -0.379928611 0 0
-0.902804 4.388224 -1.944653 0.563112354 -0.733865606 -0.379928611 0 0
-0.916759 4.377516 -1.944653 0.563112354 -0.733865606 -0.379928611 0 0
-0.916759 4.377516 -1.944653 0.353995459 -0.854616879 0.379891044 0 0
-0.933739 4.373508 -1.937847 0.353995459 -0.854616879 0.379891044 0 0
-0.933009 4.370785 -1.944653 0.353995459 -0.854616879 0.379891044 0 0
-0.916759 4.377516 -1.944653 0.354002924 -0.854601476 0.379918737 0 0
-0.918168 4.379958 -1.937847 0.354002924 -0.854601476 0.379918737 0 0
-0.933739 4.373508 -1.937847 0.354002924 -0.854601476 0.379918737 0 0
-0.918168 4.379958 -1.937847 0.147503761 -0.356090087 0.922736414 0 0
-0.935501 4.380083 -1.935028 0.147503761 -0.356090087 0.922736414 0 0
-0.933739 4.373508 -1.937847 0.147503761 -0.356090087 0.922736414 0 0
-0.918168 4.379958 -1.937847 0.147499257 -0.356156119 0.922711649 0 0
-0.921571 4.385852 -1.935028 0.147499257 -0.356156119 0.922711649 0 0
-0.935501 4.380083 -1.935028 0.147499257 -0.356156119 0.922711649 0 0
-0.921571 4.385852 -1.935028 -0.147499625 0.356157008 0.922711248 0 0
-0.937262 4.386657 -1.937847 -0.147499625 0.356157008 0.922711248 0 0
-0.935501 4.380083 -1.935028 -0.147499625 0.356157008 0.922711248 0 0
-0.921571 4.385852 -1.935028 -0.147508806 0.356078722 0.922739994 0 0
-0.924975 4.391747 -1.937847 -0.147508806 0.356078722 0.922739994 0 0
-0.937262 4.386657 -1.937847 -0.147508806 0.356078722 0.922739994 0 0
-0.924975 4.391747 -1.937847 -0.354027504 0.854604312 0.379889453 0 0
-0.937992 4.38938 -1.944653 -0.354027504 0.854604312 0.379889453 0 0
-0.937262 4.386657 -1.937847 -0.354027504 0.854604312 0.379889453 0 0
-0.924975 4.391747 -1.937847 -0.353994855 0.854653137 0.379810029 0 0
-0.926384 4.394188 -1.944653 -0.353994855 0.854653137 0.379810029 0 0
-0.937992 4.38938 -1.944653 -0.353994855 0.854653137 0.379810029 0 0
-0.926384 4.394188 -1.944653 -0.353989525 0.854640267 -0.379843955 0 0
-0.937262 4.386657 -1.95146 -0.353989525 0.854640267 -0.379843955 0 0
-0.937992 4.38938 -1.944653 -0.353989525 0.854640267 -0.379843955 0 0
-0.926384 4.394188 -1.944653 -0.354047134 0.854651697 -0.379764537 0 0
-0.924975 4.391747 -1.95146 -0.354047134 0.854651697 -0.379764537 0 0
-0.937262 4.386657 -1.95146 -0.354047134 0.854651697 -0.379764537 0 0
-0.924975 4.391747 -1.95146 -0.147536792 0.356146279 -0.922709447 0 0
-0.935501 4.380083 -1.954279 -0.147536792 0.356146279 -0.922709447 0 0
-0.937262 4.386657 -1.95146 -0.147536792 0.356146279 -0.922709447 0 0
-0.924975 4.391747 -1.95146 -0.147474945 0.356097414 -0.922738193 0 0
-0.921571 4.385852 -1.954279 -0.147474945 0.356097414 -0.922738193 0 0
-0.935501 4.380083 -1.954279 -0.147474945 0.356097414 -0.922738193 0 0
-0.921571 4.385852 -1.954279 0.147475312 -0.356098302 -0.922737791 0 0
-0.933739 4.373508 -1.95146 0.147475312 -0.356098302 -0.922737791 0 0
-0.935501 4.380083 -1.954279 0.147475312 -0.356098302 -0.922737791 0 0
-0.921571 4.385852 -1.954279 0.147525186 -0.356141808 -0.922713028 0 0
-0.918168 4.379958 -1.95146 0.147525186 -0.356141808 -0.922713028 0 0
-0.933739 4.373508 -1.95146 0.147525186 -0.356141808 -0.922713028 0 0
-0.918168 4.379958 -1.95146 0.354014874 -0.854630326 -0.379842697 0 0
-0.933009 4.370785 -1.944653 0.354014874 -0.854630326 -0.379842697 0 0
-0.933739 4.373508 -1.95146 0.354014874 -0.854630326 -0.379842697 0 0
-0.918168 4.379958 -1.95146 0.353998705 -0.854624716 -0.379870388 0 0
-0.916759 4.377516 -1.944653 0.353998705 -0.854624716 -0.379870388 0 0
-0.933009 4.370785 -1.944653 0.353998705 -0.854624716 -0.379870388 0 0
-0.933009 4.370785 -1.944653 0.120747857 -0.917126251 0.379867602 0 0
-0.950448 4.371308 -1.937847 0.120747857 -0.917126251 0.379867602 0 0
-0.950448 4.368489 -1.944653 0.120747857 -0.917126251 0.379867602 0 0
-0.933009 4.370785 -1.944653 0.120753145 -0.917120136 0.379880683 0 0
-0.933739 4.373508 -1.937847 0.120753145 -0.917120136 0.379880683 0 0
-0.950448 4.371308 -1.937847 0.120753145 -0.917120136 0.379880683 0 0
-0.933739 4.373508 -1.937847 0.0503140101 -0.382134906 0.922735831 0 0
-0.950448 4.378115 -1.935028 0.0503140101 -0.382134906 0.922735831 0 0
-0.950448 4.371308 -1.937847 0.0503140101 -0.382134906 0.922735831 0 0
-0.933739 4.373508 -1.937847 0.0503139128 -0.38213519 0.922735719 0 0
-0.935501 4.380083 -1.935028 0.0503139128 -0.38213519 0.922735719 0 0
-0.950448 4.378115 -1.935028 0.0503139128 -0.38213519 0.922735719 0 0
-0.935501 4.380083 -1.935028 -0.0503201699 0.382182713 0.922715695 0 0
-0.950448 4.384921 -1.937847 -0.0503201699 0.382182713 0.922715695 0 0
-0.950448 4.378115 -1.935028 -0.0503201699 0.382182713 0.922715695 0 0
-0.935501 4.380083 -1.935028 -0.0503171746 0.382190244 0.922712739 0 0
-0.937262 4.386657 -1.937847 -0.0503171746 0.382190244 0.922712739 0 0
-0.950448 4.384921 -1.937847 -0.0503171746 0.382190244 0.922712739 0 0
-0.937262 4.386657 -1.937847 -0.120737934 0.91707972 0.379983075 0 0
-0.950448 4.387741 -1.944653 -0.120737934 0.91707972 0.379983075 0 0
-0.950448 4.384921 -1.937847 -0.120737934 0.91707972 0.379983075 0 0
-0.937262 4.386657 -1.937847 -0.12067905 0.917131327 0.379877213 0 0
-0.937992 4.38938 -1.944653 -0.12067905 0.917131327 0.379877213 0 0
-0.950448 4.387741 -1.944653 -0.12067905 0.917131327 0.379877213 0 0
-0.937992 4.38938 -1.944653 -0.120675776 0.917106443 -0.379938324 0 0
-0.950448 4.384921 -1.95146 -0.120675776 0.917106443 -0.379938324 0 0
-0.950448 4.387741 -1.944653 -0.120675776 0.917106443 -0.379938324 0 0
-0.937992 4.38938 -1.944653 -0.120746007 0.917141044 -0.379832473 0 0
-0.937262 4.386657 -1.95146 -0.120746007 0.917141044 -0.379832473 0 0
-0.950448 4.384921 -1.95146 -0.120746007 0.917141044 -0.379832473 0 0
-0.937262 4.386657 -1.95146 -0.0503161932 0.38218279 -0.92271588 0 0
-0.950448 4.378115 -1.954279 -0.0503161932 0.38218279 -0.92271588 0 0
-0.950448 4.384921 -1.95146 -0.0503161932 0.38218279 -0.92271588 0 0
-0.937262 4.386657 -1.95146 -0.0503210358 0.382189289 -0.922712924 0 0
-0.935501 4.380083 -1.954279 -0.0503210358 0.382189289 -0.922712924 0 0
-0.950448 4.378115 -1.954279 -0.0503210358 0.382189289 -0.922712924 0 0
-0.935501 4.380083 -1.954279 0.0503138757 -0.382134909 -0.922735837 0 0
-0.950448 4.371308 -1.95146 0.0503138757 -0.382134909 -0.922735837 0 0
-0.950448 4.378115 -1.954279 0.0503138757 -0.382134909 -0.922735837 0 0
-0.935501 4.380083 -1.954279 0.0503140432 -0.382135158 -0.922735725 0 0
-0.933739 4.373508 -1.95146 0.0503140432 -0.382135158 -0.922735725 0 0
-0.950448 4.371308 -1.95146 0.0503140432 -0.382135158 -0.922735725 0 0
-0.933739 4.373508 -1.95146 0.120756421 -0.917145017 -0.379819569 0 0
-0.950448 4.368489 -1.944653 0.120756421 -0.917145017 -0.379819569 0 0
-0.950448 4.371308 -1.95146 0.120756421 -0.917145017 -0.379819569 0 0
-0.933739 4.373508 -1.95146 0.12074973 -0.917140481 -0.379832648 0 0
-0.933009 4.370785 -1.944653 0.12074973 -0.917140481 -0.379832648 0 0
-0.950448 4.368489 -1.944653 0.12074973 -0.917140481 -0.379832648 0 0
-0.950448 4.368489 -1.944653 -0.120747984 -0.91712722 0.379865222 0 0
-0.967158 4.373508 -1.937847 -0.120747984 -0.91712722 0.379865222 0 0
-0.967887 4.370785 -1.944653 -0.120747984 -0.91712722 0.379865222 0 0
-0.950448 4.368489 -1.944653 -0.12074674 -0.917126376 0.379867654 0 0
-0.950448 4.371308 -1.937847 -0.12074674 -0.917126376 0.379867654 0 0
-0.967158 4.373508 -1.937847 -0.12074674 -0.917126376 0.379867654 0 0
-0.950448 4.371308 -1.937847 -0.0503111272 -0.38213588 0.922735585 0 0
-0.965396 4.380083 -1.935028 -0.0503111272 -0.38213588 0.922735585 0 0
-0.967158 4.373508 -1.937847 -0.0503111272 -0.38213588 0.922735585 0 0
-0.950448 4.371308 -1.937847 -0.0503105183 -0.382134974 0.922735993 0 0
-0.950448 4.378115 -1.935028 -0.0503105183 -0.382134974 0.922735993 0 0
-0.965396 4.380083 -1.935028 -0.0503105183 -0.382134974 0.922735993 0 0
-0.950448 4.378115 -1.935028 0.0503169468 0.382183801 0.92271542 0 0
-0.963634 4.386657 -1.937847 0.0503169468 0.382183801 0.92271542 0 0
-0.965396 4.380083 -1.935028 0.0503169468 0.382183801 0.92271542 0 0
-0.950448 4.378115 -1.935028 0.0503161932 0.38218279 0.92271588 0 0
-0.950448 4.384921 -1.937847 0.0503161932 0.38218279 0.92271588 0 0
-0.963634 4.386657 -1.937847 0.0503161932 0.38218279 0.92271588 0 0
-0.950448 4.384921 -1.937847 0.120744261 0.917127782 0.379865048 0 0
-0.962905 4.38938 -1.944653 0.120744261 0.917127782 0.379865048 0 0
-0.963634 4.386657 -1.937847 0.120744261 0.917127782 0.379865048 0 0
-0.950448 4.384921 -1.937847 0.12066367 0.917088062 0.379986532 0 0
-0.950448 4.387741 -1.944653 0.12066367 0.917088062 0.379986532 0 0
-0.962905 4.38938 -1.944653 0.12066367 0.917088062 0.379986532 0 0
-0.950448 4.387741 -1.944653 0.120672921 0.917158378 -0.379813842 0 0
-0.963634 4.386657 -1.95146 0.120672921 0.917158378 -0.379813842 0 0
-0.962905 4.38938 -1.944653 0.120672921 0.917158378 -0.379813842 0 0
-0.950448 4.387741 -1.944653 0.120740495 0.917099172 -0.379935312 0 0
-0.950448 4.384921 -1.95146 0.120740495 0.917099172 -0.379935312 0 0
-0.963634 4.386657 -1.95146 0.120740495 0.917099172 -0.379935312 0 0
-0.950448 4.384921 -1.95146 0.0503163459 0.38218395 -0.922715392 0 0
-0.965396 4.380083 -1.954279 0.0503163459 0.38218395 -0.922715392 0 0
-0.963634 4.386657 -1.95146 0.0503163459 0.38218395 -0.922715392 0 0
-0.950448 4.384921 -1.95146 0.0503168121 0.382182778 -0.922715852 0 0
-0.950448 4.378115 -1.954279 0.0503168121 0.382182778 -0.922715852 0 0
-0.965396 4.380083 -1.954279 0.0503168121 0.382182778 -0.922715852 0 0
-0.950448 4.378115 -1.954279 -0.0503106531 -0.382135997 -0.922735562 0 0
-0.967158 4.373508 -1.95146 -0.0503106531 -0.382135997 -0.922735562 0 0
-0.965396 4.380083 -1.954279 -0.0503106531 -0.382135997 -0.922735562 0 0
-0.950448 4.378115 -1.954279 -0.0503110067 -0.382134964 -0.922735971 0 0
-0.950448 4.371308 -1.95146 -0.0503110067 -0.382134964 -0.922735971 0 0
-0.967158 4.373508 -1.95146 -0.0503110067 -0.382134964 -0.922735971 0 0
-0.950448 4.371308 -1.95146 -0.120749433 -0.917146828 -0.379817416 0 0
-0.967887 4.370785 -1.944653 -0.120749433 -0.917146828 -0.379817416 0 0
-0.967158 4.373508 -1.95146 -0.120749433 -0.917146828 -0.379817416 0 0
-0.950448 4.371308 -1.95146 -0.120750416 -0.917145692 -0.379819848 0 0
-0.950448 4.368489 -1.944653 -0.120750416 -0.917145692 -0.379819848 0 0
-0.967887 4.370785 -1.944653 -0.120750416 -0.917145692 -0.379819848 0 0
-0.967887 4.370785 -1.944653 -0.353965758 -0.854597762 0.379961718 0 0
-0.982728 4.379958 -1.937847 -0.353965758 -0.854597762 0.379961718 0 0
-0.984138 4.377516 -1.944653 -0.353965758 -0.854597762 0.379961718 0 0
-0.967887 4.370785 -1.944653 -0.354033923 -0.854621425 0.379844971 0 0
-0.967158 4.373508 -1.937847 -0.354033923 -0.854621425 0.379844971 0 0
-0.982728 4.379958 -1.937847 -0.354033923 -0.854621425 0.379844971 0 0
-0.967158 4.373508 -1.937847 -0.147532897 -0.356137552 0.922713438 0 0
-0.979325 4.385852 -1.935028 -0.147532897 -0.356137552 0.922713438 0 0
-0.982728 4.379958 -1.937847 -0.147532897 -0.356137552 0.922713438 0 0
-0.967158 4.373508 -1.937847 -0.147484769 -0.356095571 0.922737334 0 0
-0.965396 4.380083 -1.935028 -0.147484769 -0.356095571 0.922737334 0 0
-0.979325 4.385852 -1.935028 -0.147484769 -0.356095571 0.922737334 0 0
-0.965396 4.380083 -1.935028 0.147490682 0.356109848 0.922730879 0 0
-0.975922 4.391747 -1.937847 0.147490682 0.356109848 0.922730879 0 0
-0.979325 4.385852 -1.935028 0.147490682 0.356109848 0.922730879 0 0
-0.965396 4.380083 -1.935028 0.147518944 0.356132178 0.922717743 0 0
-0.963634 4.386657 -1.937847 0.147518944 0.356132178 0.922717743 0 0
-0.975922 4.391747 -1.937847 0.147518944 0.356132178 0.922717743 0 0
-0.963634 4.386657 -1.937847 0.354008239 0.854627355 0.379855567 0 0
-0.974512 4.394188 -1.944653 0.354008239 0.854627355 0.379855567 0 0
-0.975922 4.391747 -1.937847 0.354008239 0.854627355 0.379855567 0 0
-0.963634 4.386657 -1.937847 0.354015251 0.854628747 0.3798459 0 0
-0.962905 4.38938 -1.944653 0.354015251 0.854628747 0.3798459 0 0
-0.974512 4.394188 -1.944653 0.354015251 0.854628747 0.3798459 0 0
-0.962905 4.38938 -1.944653 0.354021192 0.85464309 -0.379808089 0 0
-0.975922 4.391747 -1.95146 0.354021192 0.85464309 -0.379808089 0 0
-0.974512 4.394188 -1.944653 0.354021192 0.85464309 -0.379808089 0 0
-0.962905 4.38938 -1.944653 0.354017218 0.854649032 -0.379798423 0 0
-0.963634 4.386657 -1.95146 0.354017218 0.854649032 -0.379798423 0 0
-0.975922 4.391747 -1.95146 0.354017218 0.854649032 -0.379798423 0 0
-0.963634 4.386657 -1.95146 0.147506157 0.356101308 -0.922731701 0 0
-0.979325 4.385852 -1.954279 0.147506157 0.356101308 -0.922731701 0 0
-0.975922 4.391747 -1.95146 0.147506157 0.356101308 -0.922731701 0 0
-0.963634 4.386657 -1.95146 0.147501962 0.356137082 -0.922718565 0 0
-0.965396 4.380083 -1.954279 0.147501962 0.356137082 -0.922718565 0 0
-0.979325 4.385852 -1.954279 0.147501962 0.356137082 -0.922718565 0 0
-0.965396 4.380083 -1.954279 -0.147507876 -0.356151362 -0.922712108 0 0
-0.982728 4.379958 -1.95146 -0.147507876 -0.356151362 -0.922712108 0 0
-0.979325 4.385852 -1.954279 -0.147507876 -0.356151362 -0.922712108 0 0
-0.965396 4.380083 -1.954279 -0.147512223 -0.356087644 -0.922736004 0 0
-0.967158 4.373508 -1.95146 -0.147512223 -0.356087644 -0.922736004 0 0
-0.982728 4.379958 -1.95146 -0.147512223 -0.356087644 -0.922736004 0 0
-0.967158 4.373508 -1.95146 -0.354022689 -0.854594305 -0.379916451 0 0
-0.984138 4.377516 -1.944653 -0.354022689 -0.854594305 -0.379916451 0 0
-0.982728 4.379958 -1.95146 -0.354022689 -0.854594305 -0.379916451 0 0
-0.967158 4.373508 -1.95146 -0.353991216 -0.854659227 -0.379799717 0 0
-0.967887 4.370785 -1.944653 -0.353991216 -0.854659227 -0.379799717 0 0
-0.984138 4.377516 -1.944653 -0.353991216 -0.854659227 -0.379799717 0 0
-0.984138 4.377516 -1.944653 -0.563100411 -0.733850041 0.379976374 0 0
-0.996099 4.390218 -1.937847 -0.563100411 -0.733850041 0.379976374 0 0
-0.998093 4.388224 -1.944653 -0.563100411 -0.733850041 0.379976374 0 0
-0.984138 4.377516 -1.944653 -0.563107208 -0.733850534 0.379965349 0 0
-0.982728 4.379958 -1.937847 -0.563107208 -0.733850534 0.379965349 0 0
-0.996099 4.390218 -1.937847 -0.563107208 -0.733850534 0.379965349 0 0
-0.982728 4.379958 -1.937847 -0.234672269 -0.305828743 0.922712147 0 0
-0.991286 4.39503 -1.935028 -0.234672269 -0.305828743 0.922712147 0 0
-0.996099 4.390218 -1.937847 -0.234672269 -0.305828743 0.922712147 0 0
-0.982728 4.379958 -1.937847 -0.23466975 -0.305827509 0.922713196 0 0
-0.979325 4.385852 -1.935028 -0.23466975 -0.305827509 0.922713196 0 0
-0.991286 4.39503 -1.935028 -0.23466975 -0.305827509 0.922713196 0 0
-0.979325 4.385852 -1.935028 0.234647875 0.305799001 0.922728208 0 0
-0.986473 4.399843 -1.937847 0.234647875 0.305799001 0.922728208 0 0
-0.991286 4.39503 -1.935028 0.234647875 0.305799001 0.922728208 0 0
-0.979325 4.385852 -1.935028 0.2346449 0.305797719 0.922729389 0 0
-0.975922 4.391747 -1.937847 0.2346449 0.305797719 0.922729389 0 0
-0.986473 4.399843 -1.937847 0.2346449 0.305797719 0.922729389 0 0
-0.975922 4.391747 -1.937847 0.563116789 0.733874166 0.379905502 0 0
-0.98448 4.401837 -1.944653 0.563116789 0.733874166 0.379905502 0 0
-0.986473 4.399843 -1.937847 0.563116789 0.733874166 0.379905502 0 0
-0.975922 4.391747 -1.937847 0.563141172 0.733872559 0.379872461 0 0
-0.974512 4.394188 -1.944653 0.563141172 0.733872559 0.379872461 0 0
-0.98448 4.401837 -1.944653 0.563141172 0.733872559 0.379872461 0 0
-0.974512 4.394188 -1.944653 0.563144617 0.733877048 -0.379858683 0 0
-0.986473 4.399843 -1.95146 0.563144617 0.733877048 -0.379858683 0 0
-0.98448 4.401837 -1.944653 0.563144617 0.733877048 -0.379858683 0 0
-0.974512 4.394188 -1.944653 0.563136752 0.733900182 -0.379825645 0 0
-0.975922 4.391747 -1.95146 0.563136752 0.733900182 -0.379825645 0 0
-0.986473 4.399843 -1.95146 0.563136752 0.733900182 -0.379825645 0 0
-0.975922 4.391747 -1.95146 0.234646729 0.305800104 -0.922728134 0 0
-0.991286 4.39503 -1.954279 0.234646729 0.305800104 -0.922728134 0 0
-0.986473 4.399843 -1.95146 0.234646729 0.305800104 -0.922728134 0 0
-0.975922 4.391747 -1.95146 0.234646261 0.305796898 -0.922729315 0 0
-0.979325 4.385852 -1.954279 0.234646261 0.305796898 -0.922729315 0 0
-0.991286 4.39503 -1.954279 0.234646261 0.305796898 -0.922729315 0 0
-0.979325 4.385852 -1.954279 -0.234671365 -0.305829613 -0.922712088 0 0
-0.996099 4.390218 -1.95146 -0.234671365 -0.305829613 -0.922712088 0 0
-0.991286 4.39503 -1.954279 -0.234671365 -0.305829613 -0.922712088 0 0
-0.979325 4.385852 -1.954279 -0.234670825 -0.305826861 -0.922713138 0 0
-0.982728 4.379958 -1.95146 -0.234670825 -0.305826861 -0.922713138 0 0
-0.996099 4.390218 -1.95146 -0.234670825 -0.305826861 -0.922713138 0 0
-0.982728 4.379958 -1.95146 -0.563116335 -0.733862429 -0.379928846 0 0
-0.998093 4.388224 -1.944653 -0.563116335 -0.733862429 -0.379928846 0 0
-0.996099 4.390218 -1.95146 -0.563116335 -0.733862429 -0.379928846 0 0
-0.982728 4.379958 -1.95146 -0.563115052 -0.733869121 -0.379917822 0 0
-0.984138 4.377516 -1.944653 -0.563115052 -0.733869121 -0.379917822 0 0
-0.998093 4.388224 -1.944653 -0.563115052 -0.733869121 -0.379917822 0 0
-0.998093 4.388224 -1.944653 -0.733931456 -0.56311029 0.379804449 0 0
-1.006359 4.403588 -1.937847 -0.733931456 -0.56311029 0.379804449 0 0
-1.0088 4.402179 -1.944653 -0.733931456 -0.56311029 0.379804449 0 0
-0.998093 4.388224 -1.944653 -0.733826019 -0.563130513 0.379978155 0 0
-0.996099 4.390218 -1.937847 -0.733826019 -0.563130513 0.379978155 0 0
-1.006359 4.403588 -1.937847 -0.733826019 -0.563130513 0.379978155 0 0
-0.996099 4.390218 -1.937847 -0.305789013 -0.234659332 0.922728605 0 0
-1.000464 4.406991 -1.935028 -0.305789013 -0.234659332 0.922728605 0 0
-1.006359 4.403588 -1.937847 -0.305789013 -0.234659332 0.922728605 0 0
-0.996099 4.390218 -1.937847 -0.30582249 -0.234665899 0.922715839 0 0
-0.991286 4.39503 -1.935028 -0.30582249 -0.234665899 0.922715839 0 0
-1.000464 4.406991 -1.935028 -0.30582249 -0.234665899 0.922715839 0 0
-0.991286 4.39503 -1.935028 0.30580402 0.234651726 0.922725565 0 0
-0.99457 4.410395 -1.937847 0.30580402 0.234651726 0.922725565 0 0
-1.000464 4.406991 -1.935028 0.30580402 0.234651726 0.922725565 0 0
-0.991286 4.39503 -1.935028 0.305796372 0.234650608 0.922728384 0 0
-0.986473 4.399843 -1.937847 0.305796372 0.234650608 0.922728384 0 0
-0.99457 4.410395 -1.937847 0.305796372 0.234650608 0.922728384 0 0
-0.986473 4.399843 -1.937847 0.733870009 0.563129782 0.379894273 0 0
-0.992128 4.411804 -1.944653 0.733870009 0.563129782 0.379894273 0 0
-0.99457 4.410395 -1.937847 0.733870009 0.563129782 0.379894273 0 0
-0.986473 4.399843 -1.937847 0.73387696 0.56312742 0.379884346 0 0
-0.98448 4.401837 -1.944653 0.73387696 0.56312742 0.379884346 0 0
-0.992128 4.411804 -1.944653 0.73387696 0.56312742 0.379884346 0 0
-0.98448 4.401837 -1.944653 0.733889192 0.563136806 -0.3798468 0 0
-0.99457 4.410395 -1.95146 0.733889192 0.563136806 -0.3798468 0 0
-0.992128 4.411804 -1.944653 0.733889192 0.563136806 -0.3798468 0 0
-0.98448 4.401837 -1.944653 0.733888709 0.563144132 -0.379836873 0 0
-0.986473 4.399843 -1.95146 0.733888709 0.563144132 -0.379836873 0 0
-0.99457 4.410395 -1.95146 0.733888709 0.563144132 -0.379836873 0 0
-0.986473 4.399843 -1.95146 0.30580206 0.234654973 -0.922725389 0 0
-1.000464 4.406991 -1.954279 0.30580206 0.234654973 -0.922725389 0 0
-0.99457 4.410395 -1.95146 0.30580206 0.234654973 -0.922725389 0 0
-0.986473 4.399843 -1.95146 0.305799001 0.234647875 -0.922728208 0 0
-0.991286 4.39503 -1.954279 0.305799001 0.234647875 -0.922728208 0 0
-1.000464 4.406991 -1.954279 0.305799001 0.234647875 -0.922728208 0 0
-0.991286 4.39503 -1.954279 -0.305796898 -0.234646261 -0.922729315 0 0
-1.006359 4.403588 -1.95146 -0.305796898 -0.234646261 -0.922729315 0 0
-1.000464 4.406991 -1.954279 -0.305796898 -0.234646261 -0.922729315 0 0
-0.991286 4.39503 -1.954279 -0.305811907 -0.234676901 -0.922716549 0 0
-0.996099 4.390218 -1.95146 -0.305811907 -0.234676901 -0.922716549 0 0
-1.006359 4.403588 -1.95146 -0.305811907 -0.234676901 -0.922716549 0 0
-0.996099 4.390218 -1.95146 -0.733899374 -0.563186805 -0.379752987 0 0
-1.0088 4.402179 -1.944653 -0.733899374 -0.563186805 -0.379752987 0 0
-1.006359 4.403588 -1.95146 -0.733899374 -0.563186805 -0.379752987 0 0
-0.996099 4.390218 -1.95146 -0.733891633 -0.563079736 -0.37992668 0 0
-0.998093 4.388224 -1.944653 -0.733891633 -0.563079736 -0.37992668 0 0
-1.0088 4.402179 -1.944653 -0.733891633 -0.563079736 -0.37992668 0 0
-1.0088 4.402179 -1.944653 -0.854558367 -0.354023811 0.379996235 0 0
-1.012808 4.419159 -1.937847 -0.854558367 -0.354023811 0.379996235 0 0
-1.015532 4.418429 -1.944653 -0.854558367 -0.354023811 0.379996235 0 0
-1.0088 4.402179 -1.944653 -0.854662535 -0.353973328 0.379808943 0 0
-1.006359 4.403588 -1.937847 -0.854662535 -0.353973328 0.379808943 0 0
-1.012808 4.419159 -1.937847 -0.854662535 -0.353973328 0.379808943 0 0
-1.006359 4.403588 -1.937847 -0.356137496 -0.147500527 0.922718634 0 0
-1.006234 4.420921 -1.935028 -0.356137496 -0.147500527 0.922718634 0 0
-1.012808 4.419159 -1.937847 -0.356137496 -0.147500527 0.922718634 0 0
-1.006359 4.403588 -1.937847 -0.356103121 -0.147502872 0.922731526 0 0
-1.000464 4.406991 -1.935028 -0.356103121 -0.147502872 0.922731526 0 0
-1.006234 4.420921 -1.935028 -0.356103121 -0.147502872 0.922731526 0 0
-1.000464 4.406991 -1.935028 0.356150416 0.147522462 0.922710141 0 0
-0.99966 4.422682 -1.937847 0.356150416 0.147522462 0.922710141 0 0
-1.006234 4.420921 -1.935028 0.356150416 0.147522462 0.922710141 0 0
-1.000464 4.406991 -1.935028 0.356120229 0.147526 0.922721226 0 0
-0.99457 4.410395 -1.937847 0.356120229 0.147526 0.922721226 0 0
-0.99966 4.422682 -1.937847 0.356120229 0.147526 0.922721226 0 0
-0.99457 4.410395 -1.937847 0.854563542 0.354010615 0.379996891 0 0
-0.996936 4.423412 -1.944653 0.854563542 0.354010615 0.379996891 0 0
-0.99966 4.422682 -1.937847 0.854563542 0.354010615 0.379996891 0 0
-0.99457 4.410395 -1.937847 0.854612371 0.35397797 0.37991748 0 0
-0.992128 4.411804 -1.944653 0.854612371 0.35397797 0.37991748 0 0
-0.996936 4.423412 -1.944653 0.854612371 0.35397797 0.37991748 0 0
-0.992128 4.411804 -1.944653 0.854599505 0.353972641 -0.379951385 0 0
-0.99966 4.422682 -1.95146 0.854599505 0.353972641 -0.379951385 0 0
-0.996936 4.423412 -1.944653 0.854599505 0.353972641 -0.379951385 0 0
-0.992128 4.411804 -1.944653 0.854610942 0.354030251 -0.379871977 0 0
-0.99457 4.410395 -1.95146 0.854610942 0.354030251 -0.379871977 0 0
-0.99966 4.422682 -1.95146 0.854610942 0.354030251 -0.379871977 0 0
-0.99457 4.410395 -1.95146 0.356146279 0.147536792 -0.922709447 0 0
-1.006234 4.420921 -1.954279 0.356146279 0.147536792 -0.922709447 0 0
-0.99966 4.422682 -1.95146 0.356146279 0.147536792 -0.922709447 0 0
-0.99457 4.410395 -1.95146 0.356127437 0.147512944 -0.922720532 0 0
-1.000464 4.406991 -1.954279 0.356127437 0.147512944 -0.922720532 0 0
-1.006234 4.420921 -1.954279 0.356127437 0.147512944 -0.922720532 0 0
-1.000464 4.406991 -1.954279 -0.356133219 -0.147515339 -0.922717917 0 0
-1.012808 4.419159 -1.95146 -0.356133219 -0.147515339 -0.922717917 0 0
-1.006234 4.420921 -1.954279 -0.356133219 -0.147515339 -0.922717917 0 0
-1.000464 4.406991 -1.954279 -0.35611057 -0.147489375 -0.922730809 0 0
-1.006359 4.403588 -1.95146 -0.35611057 -0.147489375 -0.922730809 0 0
-1.012808 4.419159 -1.95146 -0.35611057 -0.147489375 -0.922730809 0 0
-1.006359 4.403588 -1.95146 -0.854608079 -0.353950774 -0.379952471 0 0
-1.015532 4.418429 -1.944653 -0.854608079 -0.353950774 -0.379952471 0 0
-1.012808 4.419159 -1.95146 -0.854608079 -0.353950774 -0.379952471 0 0
-1.006359 4.403588 -1.95146 -0.854646024 -0.354060125 -0.379765192 0 0
-1.0088 4.402179 -1.944653 -0.854646024 -0.354060125 -0.379765192 0 0
-1.015532 4.418429 -1.944653 -0.854646024 -0.354060125 -0.379765192 0 0
-1.015532 4.418429 -1.944653 -0.917132073 -0.120696032 0.379870014 0 0
-1.015008 4.435868 -1.937847 -0.917132073 -0.120696032 0.379870014 0 0
-1.017827 4.435868 -1.944653 -0.917132073 -0.120696032 0.379870014 0 0
-1.015532 4.418429 -1.944653 -0.917073185 -0.120746963 0.37999598 0 0
-1.012808 4.419159 -1.937847 -0.917073185 -0.120746963 0.37999598 0 0
-1.015008 4.435868 -1.937847 -0.917073185 -0.120746963 0.37999598 0 0
-1.012808 4.419159 -1.937847 -0.38218271 -0.0503203042 0.922715689 0 0
-1.008202 4.435868 -1.935028 -0.38218271 -0.0503203042 0.922715689 0 0
-1.015008 4.435868 -1.937847 -0.38218271 -0.0503203042 0.922715689 0 0
-1.012808 4.419159 -1.937847 -0.382182995 -0.0503202069 0.922715577 0 0
-1.006234 4.420921 -1.935028 -0.382182995 -0.0503202069 0.922715577 0 0
-1.008202 4.435868 -1.935028 -0.382182995 -0.0503202069 0.922715577 0 0
-1.006234 4.420921 -1.935028 0.382134909 0.0503138757 0.922735837 0 0
-1.001395 4.435868 -1.937847 0.382134909 0.0503138757 0.922735837 0 0
-1.008202 4.435868 -1.935028 0.382134909 0.0503138757 0.922735837 0 0
-1.006234 4.420921 -1.935028 0.382197187 0.0502891036 0.922711394 0 0
-0.99966 4.422682 -1.937847 0.382197187 0.0502891036 0.922711394 0 0
-1.001395 4.435868 -1.937847 0.382197187 0.0502891036 0.922711394 0 0
-0.99966 4.422682 -1.937847 0.917134371 0.120675575 0.379870966 0 0
-0.998576 4.435868 -1.944653 0.917134371 0.120675575 0.379870966 0 0
-1.001395 4.435868 -1.937847 0.917134371 0.120675575 0.379870966 0 0
-0.99966 4.422682 -1.937847 0.917073472 0.120745062 0.379995891 0 0
-0.996936 4.423412 -1.944653 0.917073472 0.120745062 0.379995891 0 0
-0.998576 4.435868 -1.944653 0.917073472 0.120745062 0.379995891 0 0
-0.996936 4.423412 -1.944653 0.917145232 0.12075451 -0.379819657 0 0
-1.001395 4.435868 -1.95146 0.917145232 0.12075451 -0.379819657 0 0
-0.998576 4.435868 -1.944653 0.917145232 0.12075451 -0.379819657 0 0
-0.996936 4.423412 -1.944653 0.917104401 0.120671632 -0.379944569 0 0
-0.99966 4.422682 -1.95146 0.917104401 0.120671632 -0.379944569 0 0
-1.001395 4.435868 -1.95146 0.917104401 0.120671632 -0.379944569 0 0
-0.99966 4.422682 -1.95146 0.382135543 0.0502809924 -0.922737367 0 0
-1.008202 4.435868 -1.954279 0.382135543 0.0502809924 -0.922737367 0 0
-1.001395 4.435868 -1.95146 0.382135543 0.0502809924 -0.922737367 0 0
-0.99966 4.422682 -1.95146 0.382189289 0.0503210358 -0.922712924 0 0
-1.006234 4.420921 -1.954279 0.382189289 0.0503210358 -0.922712924 0 0
-1.008202 4.435868 -1.954279 0.382189289 0.0503210358 -0.922712924 0 0
-1.006234 4.420921 -1.954279 -0.382182713 -0.0503201699 -0.922715695 0 0
-1.015008 4.435868 -1.95146 -0.382182713 -0.0503201699 -0.922715695 0 0
-1.008202 4.435868 -1.954279 -0.382182713 -0.0503201699 -0.922715695 0 0
-1.006234 4.420921 -1.954279 -0.382182962 -0.0503203374 -0.922715583 0 0
-1.012808 4.419159 -1.95146 -0.382182962 -0.0503203374 -0.922715583 0 0
-1.015008 4.435868 -1.95146 -0.382182962 -0.0503203374 -0.922715583 0 0
-1.012808 4.419159 -1.95146 -0.917145017 -0.120756421 -0.379819569 0 0
-1.017827 4.435868 -1.944653 -0.917145017 -0.120756421 -0.379819569 0 0
-1.015008 4.435868 -1.95146 -0.917145017 -0.120756421 -0.379819569 0 0
-1.012808 4.419159 -1.95146 -0.917101328 -0.120691986 -0.379945522 0 0
-1.015532 4.418429 -1.944653 -0.917101328 -0.120691986 -0.379945522 0 0
-1.017827 4.435868 -1.944653 -0.917101328 -0.120691986 -0.379945522 0 0
3 0 1 2
3 3 4 5
3 6 7 8
3 9 10 11
3 12 13 14
3 15 16 17
3 18 19 20
3 21 22 23
3 24 25 26
3 27 28 29
3 30 31 32
3 33 34 35
3 36 37 38
3 39 40 41
3 42 43 44
3 45 46 47
3 48 49 50
3 51 52 53
3 54 55 56
3 57 58 59
3 60 61 62
3 63 64 65
3 66 67 68
3 69 70 71
3 72 73 74
3 75 76 77
3 78 79 80
3 81 82 83
3 84 85 86
3 87 88 89
3 90 91 92
3 93 94 95
3 96 97 98
3 99 100 101
3 102 103 104
3 105 106 107
3 108 109 110
3 111 112 113
3 114 115 116
3 117 118 119
3 120 121 122
3 123 124 125
3 126 127 128
3 129 130 131
3 132 133 134
3 135 136 137
3 138 139 140
3 141 142 143
3 144 145 146
3 147 148 149
3 150 151 152
3 153 154 155
3 156 157 158
3 159 160 161
3 162 163 164
3 165 166 167
3 168 169 170
3 171 172 173
3 174 175 176
3 177 178 179
3 180 181 182
3 183 184 185
3 186 187 188
3 189 190 191
3 192 193 194
3 195 196 197
3 198 199 200
3 201 202 203
3 204 205 206
3 207 208 209
3 210 211 212
3 213 214 215
3 216 217 218
3 219 220 221
3 222 223 224
3 225 226 227
3 228 229 230
3 231 232 233
3 234 235 236
3 237 238 239
3 240 241 242
3 243 244 245
3 246 247 248
3 249 250 251
3 252 253 254
3 255 256 257
3 258 259 260
3 261 262 263
3 264 265 266
3 267 268 269
3 270 271 272
3 273 274 275
3 276 277 278
3 279 280 281
3 282 283 284
3 285 286 287
3 288 289 290
3 291 292 293
3 294 295 296
3 297 298 299
3 300 301 302
3 303 304 305
3 306 307 308
3 309 310 311
3 312 313 314
3 315 316 317
3 318 319 320
3 321 322 323
3 324 325 326
3 327 328 329
3 330 331 332
3 333 334 335
3 336 337 338
3 339 340 341
3 342 343 344
3 345 346 347
3 348 349 350
3 351 352 353
3 354 355 356
3 357 358 359
3 360 361 362
3 363 364 365
3 366 367 368
3 369 370 371
3 372 373 374
3 375 376 377
3 378 379 380
3 381 382 383
3 384 385 386
3 387 388 389
3 390 391 392
3 393 394 395
3 396 397 398
3 399 400 401
3 402 403 404
3 405 406 407
3 408 409 410
3 411 412 413
3 414 415 416
3 417 418 419
3 420 421 422
3 423 424 425
3 426 427 428
3 429 430 431
3 432 433 434
3 435 436 437
3 438 439 440
3 441 442 443
3 444 445 446
3 447 448 449
3 450 451 452
3 453 454 455
3 456 457 458
3 459 460 461
3 462 463 464
3 465 466 467
3 468 469 470
3 471 472 473
3 474 475 476
3 477 478 479
3 480 481 482
3 483 484 485
3 486 487 488
3 489 490 491
3 492 493 494
3 495 496 497
3 498 499 500
3 501 502 503
3 504 505 506
3 507 508 509
3 510 511 512
3 513 514 515
3 516 517 518
3 519 520 521
3 522 523 524
3 525 526 527
3 528 529 530
3 531 532 533
3 534 535 536
3 537 538 539
3 540 541 542
3 543 544 545
3 546 547 548
3 549 550 551
3 552 553 554
3 555 556 557
3 558 559 560
3 561 562 563
3 564 565 566
3 567 568 569
3 570 571 572
3 573 574 575
3 576 577 578
3 579 580 581
3 582 583 584
3 585 586 587
3 588 589 590
3 591 592 593
3 594 595 596
3 597 598 599
3 600 601 602
3 603 604 605
3 606 607 608
3 609 610 611
3 612 613 614
3 615 616 617
3 618 619 620
3 621 622 623
3 624 625 626
3 627 628 629
3 630 631 632
3 633 634 635
3 636 637 638
3 639 640 641
3 642 643 644
3 645 646 647
3 648 649 650
3 651 652 653
3 654 655 656
3 657 658 659
3 660 661 662
3 663 664 665
3 666 667 668
3 669 670 671
3 672 673 674
3 675 676 677
3 678 679 680
3 681 682 683
3 684 685 686
3 687 688 689
3 690 691 692
3 693 694 695
3 696 697 698
3 699 700 701
3 702 703 704
3 705 706 707
3 708 709 710
3 711 712 713
3 714 715 716
3 717 718 719
3 720 721 722
3 723 724 725
3 726 727 728
3 729 730 731
3 732 733 734
3 735 736 737
3 738 739 740
3 741 742 743
3 744 745 746
3 747 748 749
3 750 751 752
3 753 754 755
3 756 757 758
3 759 760 761
3 762 763 764
3 765 766 767
3 768 769 770
3 771 772 773
3 774 775 776
3 777 778 779
3 780 781 782
3 783 784 785
3 786 787 788
3 789 790 791
3 792 793 794
3 795 796 797
3 798 799 800
3 801 802 803
3 804 805 806
3 807 808 809
3 810 811 812
3 813 814 815
3 816 817 818
3 819 820 821
3 822 823 824
3 825 826 827
3 828 829 830
3 831 832 833
3 834 835 836
3 837 838 839
3 840 841 842
3 843 844 845
3 846 847 848
3 849 850 851
3 852 853 854
3 855 856 857
3 858 859 860
3 861 862 863
3 864 865 866
3 867 868 869
3 870 871 872
3 873 874 875
3 876 877 878
3 879 880 881
3 882 883 884
3 885 886 887
3 888 889 890
3 891 892 893
3 894 895 896
3 897 898 899
3 900 901 902
3 903 904 905
3 906 907 908
3 909 910 911
3 912 913 914
3 915 916 917
3 918 919 920
3 921 922 923
3 924 925 926
3 927 928 929
3 930 931 932
3 933 934 935
3 936 937 938
3 939 940 941
3 942 943 944
3 945 946 947
3 948 949 950
3 951 952 953
3 954 955 956
3 957 958 959
3 960 961 962
3 963 964 965
3 966 967 968
3 969 970 971
3 972 973 974
3 975 976 977
3 978 979 980
3 981 982 983
3 984 985 986
3 987 988 989
3 990 991 992
3 993 994 995
3 996 997 998
3 999 1000 1001
3 1002 1003 1004
3 1005 1006 1007
3 1008 1009 1010
3 1011 1012 1013
3 1014 1015 1016
3 1017 1018 1019
3 1020 1021 1022
3 1023 1024 1025
3 1026 1027 1028
3 1029 1030 1031
3 1032 1033 1034
3 1035 1036 1037
3 1038 1039 1040
3 1041 1042 1043
3 1044 1045 1046
3 1047 1048 1049
3 1050 1051 1052
3 1053 1054 1055
3 1056 1057 1058
3 1059 1060 1061
3 1062 1063 1064
3 1065 1066 1067
3 1068 1069 1070
3 1071 1072 1073
3 1074 1075 1076
3 1077 1078 1079
3 1080 1081 1082
3 1083 1084 1085
3 1086 1087 1088
3 1089 1090 1091
3 1092 1093 1094
3 1095 1096 1097
3 1098 1099 1100
3 1101 1102 1103
3 1104 1105 1106
3 1107 1108 1109
3 1110 1111 1112
3 1113 1114 1115
3 1116 1117 1118
3 1119 1120 1121
3 1122 1123 1124
3 1125 1126 1127
3 1128 1129 1130
3 1131 1132 1133
3 1134 1135 1136
3 1137 1138 1139
3 1140 1141 1142
3 1143 1144 1145
3 1146 1147 1148
3 1149 1150 1151
