ply
format ascii 1.0
element vertex 102
property float x
property float y
property float z
property float nx
property float ny
property float nz
property float u
property float v
element face 34
property list uchar int vertex_indices
end_header
-5.030633 1.96003 2.91364 0 1 0 0 0
-5.263287 1.96003 -4.14011 0 1 0 0 0
-5.263287 1.96003 2.91364 0 1 0 0 0
-5.030633 1.96003 2.91364 0 1 0 0 0
-5.030633 1.96003 -4.14011 0 1 0 0 0
-5.263287 1.96003 -4.14011 0 1 0 0 0
-5.030633 2.26003 2.91364 0 1 0 0 0
-5.263287 2.26003 -4.14011 0 1 0 0 0
-5.263287 2.26003 2.91364 0 1 0 0 0
-5.030633 2.26003 2.91364 0 1 0 0 0
-5.030633 2.26003 -4.14011 0 1 0 0 0
-5.263287 2.26003 -4.14011 0 1 0 0 0
-5.030633 2.56003 2.91364 0 1 0 0 0
-5.263287 2.56003 -4.14011 0 1 0 0 0
-5.263287 2.56003 2.91364 0 1 0 0 0
-5.030633 2.56003 2.91364 0 1 0 0 0
-5.030633 2.56003 -4.14011 0 1 0 0 0
-5.263287 2.56003 -4.14011 0 1 0 0 0
-5.030633 2.86003 2.91364 0 1 0 0 0
-5.263287 2.86003 -4.14011 0 1 0 0 0
-5.263287 2.86003 2.91364 0 1 0 0 0
-5.030633 2.86003 2.91364 0 1 0 0 0
-5.030633 2.86003 -4.14011 0 1 0 0 0
-5.263287 2.86003 -4.14011 0 1 0 0 0
-5.030633 3.16003 2.91364 0 1 0 0 0
-5.263287 3.16003 -4.14011 0 1 0 0 0
-5.263287 3.16003 2.91364 0 1 0 0 0
-5.030633 3.16003 2.91364 0 1 0 0 0
-5.030633 3.16003 -4.14011 0 1 0 0 0
-5.263287 3.16003 -4.14011 0 1 0 0 0
-5.030633 3.46003 2.91364 0 1 0 0 0
-5.263287 3.46003 -4.14011 0 1 0 0 0
-5.263287 3.46003 2.91364 0 1 0 0 0
-5.030633 3.46003 2.91364 0 1 0 0 0
-5.030633 3.46003 -4.14011 0 1 0 0 0
-5.263287 3.46003 -4.14011 0 1 0 0 0
-5.030633 3.76003 2.91364 0 1 0 0 0
-5.263287 3.76003 -4.14011 0 1 0 0 0
-5.263287 3.76003 2.91364 0 1 0 0 0
-5.030633 3.76003 2.91364 0 1 0 0 0
-5.030633 3.76003 -4.14011 0 1 0 0 0
-5.263287 3.76003 -4.14011 0 1 0 0 0
-5.030633 4.06003 2.91364 0 1 0 0 0
-5.263287 4.06003 -4.14011 0 1 0 0 0
-5.263287 4.06003 2.91364 0 1 0 0 0
-5.030633 4.06003 2.91364 0 1 0 0 0
-5.030633 4.06003 -4.14011 0 1 0 0 0
-5.263287 4.06003 -4.14011 0 1 0 0 0
-5.030633 4.36003 2.91364 0 1 0 0 0
-5.263287 4.36003 -4.14011 0 1 0 0 0
-5.263287 4.36003 2.91364 0 1 0 0 0
-5.030633 4.36003 2.91364 0 1 0 0 0
-5.030633 4.36003 -4.14011 0 1 0 0 0
-5.263287 4.36003 -4.14011 0 1 0 0 0
-5.030633 4.66003 2.91364 0 1 0 0 0
-5.263287 4.66003 -4.14011 0 1 0 0 0
-5.263287 4.66003 2.91364 0 1 0 0 0
-5.030633 4.66003 2.91364 0 1 0 0 0
-5.030633 4.66003 -4.14011 0 1 0 0 0
-5.263287 4.66003 -4.14011 0 1 0 0 0
-5.030633 4.96003 2.91364 0 1 0 0 0
-5.263287 4.96003 -4.14011 0 1 0 0 0
-5.263287 4.96003 2.91364 0 1 0 0 0
-5.030633 4.96003 2.91364 0 1 0 0 0
-5.030633 4.96003 -4.14011 0 1 0 0 0
-5.263287 4.96003 -4.14011 0 1 0 0 0
-5.030633 5.26003 2.91364 0 1 0 0 0
-5.263287 5.26003 -4.14011 0 1 0 0 0
-5.263287 5.26003 2.91364 0 1 0 0 0
-5.030633 5.26003 2.91364 0 1 0 0 0
-5.030633 5.26003 -4.14011 0 1 0 0 0
-5.263287 5.26003 -4.14011 0 1 0 0 0
-5.030633 5.56003 2.91364 0 1 0 0 0
-5.263287 5.56003 -4.14011 0 1 0 0 0
-5.263287 5.56003 2.91364 0 1 0 0 0
-5.030633 5.56003 2.91364 0 1 0 0 0
-5.030633 5.56003 -4.14011 0 1 0 0 0
-5.263287 5.56003 -4.14011 0 1 0 0 0
-5.030633 5.86003 2.91364 0 1 0 0 0
-5.263287 5.86003 -4.14011 0 1 0 0 0
-5.263287 5.86003 2.91364 0 1 0 0 0
-5.030633 5.86003 2.91364 0 1 0 0 0
-5.030633 5.86003 -4.14011 0 1 0 0 0
-5.263287 5.86003 -4.14011 0 1 0 0 0
-5.030633 6.16003 2.91364 0 1 0 0 0
-5.263287 6.16003 -4.14011 0 1 0 0 0
-5.263287 6.16003 2.91364 0 1 0 0 0
-5.030633 6.16003 2.91364 0 1 0 0 0
-5.030633 6.16003 -4.14011 0 1 0 0 0
-5.263287 6.16003 -4.14011 0 1 0 0 0
-5.030633 6.46003 2.91364 0 1 0 0 0
-5.263287 6.46003 -4.14011 0 1 0 0 0
-5.263287 6.46003 2.91364 0 1 0 0 0
-5.030633 6.46003 2.91364 0 1 0 0 0
-5.030633 6.46003 -4.14011 0 1 0 0 0
-5.263287 6.46003 -4.14011 0 1 0 0 0
-5.030633 6.76003 2.91364 0 1 0 0 0
-5.263287 6.76003 -4.14011 0 1 0 0 0
-5.263287 6.76003 2.91364 0 1 0 0 0
-5.030633 6.76003 2.91364 0 1 0 0 0
-5.030633 6.76003 -4.14011 0 1 0 0 0
-5.263287 6.76003 -4.14011 0 1 0 0 0
3 0 1 2
3 3 4 5
3 6 7 8
3 9 10 11
3 12 13 14
3 15 16 17
3 18 19 20
3 21 22 23
3 24 25 26
3 27 28 29
3 30 31 32
3 33 34 35
3 36 37 38
3 39 40 41
3 42 43 44
3 45 46 47
3 48 49 50
3 51 52 53
3 54 55 56
3 57 58 59
3 60 61 62
3 63 64 65
3 66 67 68
3 69 70 71
3 72 73 74
3 75 76 77
3 78 79 80
3 81 82 83
3 84 85 86
3 87 88 89
3 90 91 92
3 93 94 95
3 96 97 98
3 99 100 101
