ply
format ascii 1.0
element vertex 24
property float x
property float y
property float z
property float nx
property float ny
property float nz
property float u
property float v
element face 8
property list uchar int vertex_indices
end_header
3.317385 0.781486 -2.737213 0 1 0 0 0
3.434809 0.781486 -1.070682 0 1 0 0 0
3.434809 0.781486 -2.737213 0 1 0 0 0
3.317385 0.781486 -2.737213 0 1 0 0 0
3.317385 0.781486 -1.070682 0 1 0 0 0
3.434809 0.781486 -1.070682 0 1 0 0 0
3.095472 0.781486 -3.073124 0 1 -0 0 0
-1.810879 0.781486 -2.9557 0 1 -0 0 0
3.095472 0.781486 -2.9557 0 1 -0 0 0
3.095472 0.781486 -3.073124 0 1 0 0 0
-1.810879 0.781486 -3.073124 0 1 0 0 0
-1.810879 0.781486 -2.9557 0 1 0 0 0
-2.032793 0.781486 -2.737213 0 1 -0 0 0
-2.150217 0.781486 -1.070682 0 1 -0 0 0
-2.032793 0.781486 -1.070682 0 1 -0 0 0
-2.032793 0.781486 -2.737213 0 1 0 0 0
-2.150217 0.781486 -2.737213 0 1 0 0 0
-2.150217 0.781486 -1.070682 0 1 0 0 0
3.095472 0.781486 -0.734771 0 1 0 0 0
-1.810879 0.781486 -0.852195 0 1 0 0 0
-1.810879 0.781486 -0.734771 0 1 0 0 0
3.095472 0.781486 -0.734771 0 1 0 0 0
3.095472 0.781486 -0.852195 0 1 0 0 0
-1.810879 0.781486 -0.852195 0 1 0 0 0
3 0 1 2
3 3 4 5
3 6 7 8
3 9 10 11
3 12 13 14
3 15 16 17
3 18 19 20
3 21 22 23
