ply
format ascii 1.0
element vertex 144
property float x
property float y
property float z
property float nx
property float ny
property float nz
property float u
property float v
element face 160
property list uchar int vertex_indices
end_header
3.147315 0.941554 -2.094106 -0.23130313 0.961013003 0.15150205 0.062939 1.002131
3.134794 0.934277 -2.067069 -0.195204583 0.975422903 0.1022024 0.290147 0.930194
3.154147 0.941554 -2.083627 -0.246803055 0.959811883 0.133601654 0.02443 0.94176
3.127472 0.934277 -2.078193 -0.18059002 0.976346044 0.11889343 0.331905 1.001214
3.13991 0.934277 -2.054777 -0.216895265 0.973278754 0.0753983541 0.274472 0.856566
3.158803 0.941554 -2.072017 -0.276008167 0.955928286 0.100102962 0.011278 0.879103
3.175369 0.934277 -1.93295 -0.223495259 0.973279352 0.052698882 0.274754 0.151009
3.200563 0.941554 -1.928541 -0.286610128 0.955933778 0.0636022474 0.011532 0.128457
3.177648 0.934277 -1.919832 -0.21950794 0.975435282 0.0185006692 0.290459 0.077395
3.202864 0.941554 -1.916246 -0.279999422 0.959798018 0.0196999593 0.024739 0.065788
3.17744 0.934277 -1.906517 -0.216209114 0.976341159 -0.00340014334 0.332273 0.006391
3.202723 0.941554 -1.903738 -0.276501806 0.961006275 -0.00370002416 0.063309 0.005415
3.086645 0.924892 -2.025872 -0.133004458 0.988633135 0.0701023495 0.930481 0.885576
3.078105 0.924892 -2.038602 -0.122796487 0.989071708 0.0815976659 0.980366 0.99608
3.092906 0.924892 -2.011884 -0.15010578 0.987338018 0.0513019754 0.90807 0.770938
3.112688 0.924892 -1.943918 -0.154205955 0.987338127 0.0372014366 0.907867 0.236709
3.114912 0.924892 -1.928755 -0.149806079 0.98864012 0.0122004951 0.930388 0.122129
3.114537 0.924892 -1.91343 -0.147395978 0.989073014 -0.00299991815 0.980366 0.011683
2.916924 0.941554 -1.67454 0.0564005513 0.961009394 -0.270702646 0.062939 1.002131
2.90666 0.934277 -1.702512 0.0657030983 0.975445998 -0.210209913 0.290147 0.930194
2.904684 0.941554 -1.677119 0.0800009184 0.959811019 -0.269003088 0.02443 0.94176
2.919703 0.934277 -1.699823 0.0435983692 0.97636348 -0.211692082 0.331905 1.001214
2.894351 0.934277 -1.707586 0.0999981111 0.973281615 -0.206696096 0.274472 0.856566
2.893182 0.941554 -1.682036 0.124401482 0.95591139 -0.266003169 0.011278 0.879103
2.783132 0.934277 -1.768658 0.120797124 0.973276827 -0.19529535 0.274754 0.151009
2.7622 0.941554 -1.75396 0.157702414 0.95591463 -0.247703791 0.011532 0.128457
2.772245 0.934277 -1.776321 0.14210551 0.975437818 -0.168306525 0.290459 0.077395
2.751879 0.941554 -1.761027 0.184099037 0.95979498 -0.211898892 0.024739 0.065788
2.762977 0.934277 -1.785884 0.155290271 0.976338834 -0.150490572 0.332273 0.006391
2.743134 0.941554 -1.769971 0.198198548 0.960992961 -0.192898587 0.063309 0.005415
2.911575 0.924892 -1.765689 0.0445015315 0.988634024 -0.143604942 0.930481 0.885576
2.926616 0.924892 -1.762726 0.0290993326 0.989077316 -0.144496686 0.980366 0.99608
2.897258 0.924892 -1.771153 0.0698031032 0.987343893 -0.142406331 0.90807 0.770938
2.83521 0.924892 -1.805224 0.0827038595 0.987346076 -0.135306314 0.907867 0.236709
2.822916 0.924892 -1.814373 0.0973033857 0.9886344 -0.114603988 0.930388 0.122129
2.812344 0.924892 -1.825475 0.106297719 0.98907878 -0.10209781 0.980366 0.011683
2.743134 0.941554 -1.769971 0.23130313 0.961013003 -0.15150205 0.062939 1.002131
2.755655 0.934277 -1.797008 0.195204583 0.975422903 -0.1022024 0.290147 0.930194
2.736302 0.941554 -1.78045 0.246803055 0.959811883 -0.133601654 0.02443 0.94176
2.762977 0.934277 -1.785884 0.18059002 0.976346044 -0.11889343 0.331905 1.001214
2.750539 0.934277 -1.8093 0.216895265 0.973278754 -0.0753983541 0.274472 0.856566
2.731646 0.941554 -1.79206 0.276008167 0.955928286 -0.100102962 0.011278 0.879103
2.71508 0.934277 -1.931128 0.223495259 0.973279352 -0.052698882 0.274754 0.151009
2.689887 0.941554 -1.935536 0.286610128 0.955933778 -0.0636022474 0.011532 0.128457
2.712801 0.934277 -1.944245 0.21950794 0.975435282 -0.0185006692 0.290459 0.077395
2.687585 0.941554 -1.947831 0.279999422 0.959798018 -0.0196999593 0.024739 0.065788
2.713009 0.934277 -1.957561 0.216188006 0.976345834 0.00339981138 0.332273 0.006391
2.687726 0.941554 -1.960339 0.276501806 0.961006275 0.00370002416 0.063309 0.005415
2.803804 0.924892 -1.838205 0.133004458 0.988633135 -0.0701023495 0.930481 0.885576
2.812344 0.924892 -1.825475 0.122796487 0.989071708 -0.0815976659 0.980366 0.99608
2.797543 0.924892 -1.852193 0.15010578 0.987338018 -0.0513019754 0.90807 0.770938
2.777761 0.924892 -1.92016 0.154205955 0.987338127 -0.0372014366 0.907867 0.236709
2.775537 0.924892 -1.935322 0.149806079 0.98864012 -0.0122004951 0.930388 0.122129
2.775912 0.924892 -1.950647 0.147395978 0.989073014 0.00299991815 0.980366 0.011683
3.107292 0.941554 -1.729948 -0.15150205 0.961013003 -0.23130313 0.062939 1.002131
3.080255 0.934277 -1.742469 -0.1022024 0.975422903 -0.195204583 0.290147 0.930194
3.096813 0.941554 -1.723117 -0.133601654 0.959811883 -0.246803055 0.02443 0.94176
3.091379 0.934277 -1.749791 -0.11889343 0.976346044 -0.18059002 0.331905 1.001214
3.067963 0.934277 -1.737353 -0.0753983541 0.973278754 -0.216895265 0.274472 0.856566
3.085204 0.941554 -1.71846 -0.100102962 0.955928286 -0.276008167 0.011278 0.879103
2.946136 0.934277 -1.701895 -0.052698882 0.973279352 -0.223495259 0.274754 0.151009
2.941727 0.941554 -1.676701 -0.0636022474 0.955933778 -0.286610128 0.011532 0.128457
2.933018 0.934277 -1.699615 -0.0185006692 0.975435282 -0.21950794 0.290459 0.077395
2.929432 0.941554 -1.674399 -0.0196999593 0.959798018 -0.279999422 0.024739 0.065788
2.919703 0.934277 -1.699823 0.00339981138 0.976345834 -0.216188006 0.332273 0.006391
2.916924 0.941554 -1.67454 0.00370002416 0.961006275 -0.276501806 0.063309 0.005415
3.039058 0.924892 -1.790618 -0.0701023495 0.988633135 -0.133004458 0.930481 0.885576
3.051788 0.924892 -1.799158 -0.0815976659 0.989071708 -0.122796487 0.980366 0.99608
3.02507 0.924892 -1.784357 -0.0513019754 0.987338018 -0.15010578 0.90807 0.770938
2.957104 0.924892 -1.764575 -0.0372014366 0.987338127 -0.154205955 0.907867 0.236709
2.941941 0.924892 -1.762352 -0.0122004951 0.98864012 -0.149806079 0.930388 0.122129
2.926616 0.924892 -1.762726 0.00299991815 0.989073014 -0.147395978 0.980366 0.011683
3.202723 0.941554 -1.903738 -0.270702646 0.961009394 -0.0564005513 0.062939 1.002131
3.174751 0.934277 -1.893474 -0.210209913 0.975445998 -0.0657030983 0.290147 0.930194
3.200144 0.941554 -1.891498 -0.269003088 0.959811019 -0.0800009184 0.02443 0.94176
3.17744 0.934277 -1.906517 -0.211692082 0.97636348 -0.0435983692 0.331905 1.001214
3.169677 0.934277 -1.881165 -0.206696096 0.973281615 -0.0999981111 0.274472 0.856566
3.195227 0.941554 -1.879996 -0.266003169 0.95591139 -0.124401482 0.011278 0.879103
3.108605 0.934277 -1.769946 -0.19529535 0.973276827 -0.120797124 0.274754 0.151009
3.123303 0.941554 -1.749014 -0.247703791 0.95591463 -0.157702414 0.011532 0.128457
3.100942 0.934277 -1.759059 -0.168306525 0.975437818 -0.14210551 0.290459 0.077395
3.116236 0.941554 -1.738693 -0.211898892 0.95979498 -0.184099037 0.024739 0.065788
3.091379 0.934277 -1.749791 -0.150490572 0.976338834 -0.155290271 0.332273 0.006391
3.107292 0.941554 -1.729948 -0.192902409 0.961012003 -0.198102474 0.063309 0.005415
3.111574 0.924892 -1.898389 -0.143604942 0.988634024 -0.0445015315 0.930481 0.885576
3.114537 0.924892 -1.91343 -0.144496686 0.989077316 -0.0290993326 0.980366 0.99608
3.106111 0.924892 -1.884072 -0.142406331 0.987343893 -0.0698031032 0.90807 0.770938
3.072039 0.924892 -1.822024 -0.135306314 0.987346076 -0.0827038595 0.907867 0.236709
3.06289 0.924892 -1.80973 -0.114603988 0.9886344 -0.0973033857 0.930388 0.122129
3.051788 0.924892 -1.799158 -0.10209781 0.98907878 -0.106297719 0.980366 0.011683
2.973525 0.941554 -2.189537 -0.0564005513 0.961009394 0.270702646 0.062939 1.002131
2.98379 0.934277 -2.161565 -0.0657030983 0.975445998 0.210209913 0.290147 0.930194
2.985765 0.941554 -2.186958 -0.0800009184 0.959811019 0.269003088 0.02443 0.94176
2.970747 0.934277 -2.164254 -0.0436017029 0.976338132 0.211808272 0.331905 1.001214
2.996099 0.934277 -2.156491 -0.0999981111 0.973281615 0.206696096 0.274472 0.856566
2.997267 0.941554 -2.182041 -0.124401482 0.95591139 0.266003169 0.011278 0.879103
3.107317 0.934277 -2.095419 -0.120797124 0.973276827 0.19529535 0.274754 0.151009
3.128249 0.941554 -2.110117 -0.157702414 0.95591463 0.247703791 0.011532 0.128457
3.118204 0.934277 -2.087756 -0.14210551 0.975437818 0.168306525 0.290459 0.077395
3.138571 0.941554 -2.10305 -0.184099037 0.95979498 0.211898892 0.024739 0.065788
3.127472 0.934277 -2.078193 -0.155305433 0.976334158 0.150505266 0.332273 0.006391
3.147315 0.941554 -2.094106 -0.198102474 0.961012003 0.192902409 0.063309 0.005415
2.978874 0.924892 -2.098388 -0.0445015315 0.988634024 0.143604942 0.930481 0.885576
2.963833 0.924892 -2.101351 -0.0290993326 0.989077316 0.144496686 0.980366 0.99608
2.993191 0.924892 -2.092925 -0.0698031032 0.987343893 0.142406331 0.90807 0.770938
3.055239 0.924892 -2.058853 -0.0827038595 0.987346076 0.135306314 0.907867 0.236709
3.067533 0.924892 -2.049704 -0.0973033857 0.9886344 0.114603988 0.930388 0.122129
3.078105 0.924892 -2.038602 -0.106297719 0.98907878 0.10209781 0.980366 0.011683
2.783157 0.941554 -2.134129 0.15150205 0.961013003 0.23130313 0.062939 1.002131
2.810194 0.934277 -2.121608 0.1022024 0.975422903 0.195204583 0.290147 0.930194
2.793636 0.941554 -2.140961 0.133601654 0.959811883 0.246803055 0.02443 0.94176
2.79907 0.934277 -2.114286 0.11889343 0.976346044 0.18059002 0.331905 1.001214
2.822486 0.934277 -2.126724 0.0753983541 0.973278754 0.216895265 0.274472 0.856566
2.805246 0.941554 -2.145617 0.100102962 0.955928286 0.276008167 0.011278 0.879103
2.944314 0.934277 -2.162183 0.052698882 0.973279352 0.223495259 0.274754 0.151009
2.948722 0.941554 -2.187377 0.0636022474 0.955933778 0.286610128 0.011532 0.128457
2.957431 0.934277 -2.164462 0.0185006692 0.975435282 0.21950794 0.290459 0.077395
2.961017 0.941554 -2.189678 0.0196999593 0.959798018 0.279999422 0.024739 0.065788
2.970747 0.934277 -2.164254 -0.00339981138 0.976345834 0.216188006 0.332273 0.006391
2.973525 0.941554 -2.189537 -0.00370002416 0.961006275 0.276501806 0.063309 0.005415
2.851391 0.924892 -2.073459 0.0701023495 0.988633135 0.133004458 0.930481 0.885576
2.838661 0.924892 -2.064919 0.0815976659 0.989071708 0.122796487 0.980366 0.99608
2.865379 0.924892 -2.07972 0.0513019754 0.987338018 0.15010578 0.90807 0.770938
2.933346 0.924892 -2.099502 0.0372014366 0.987338127 0.154205955 0.907867 0.236709
2.948508 0.924892 -2.101726 0.0122004951 0.98864012 0.149806079 0.930388 0.122129
2.963833 0.924892 -2.101351 -0.00299991815 0.989073014 0.147395978 0.980366 0.011683
2.687726 0.941554 -1.960339 0.270702646 0.961009394 0.0564005513 0.062939 1.002131
2.715698 0.934277 -1.970604 0.210209913 0.975445998 0.0657030983 0.290147 0.930194
2.690305 0.941554 -1.972579 0.269003088 0.959811019 0.0800009184 0.02443 0.94176
2.713009 0.934277 -1.957561 0.211712752 0.976358808 0.0436026263 0.331905 1.001214
2.720772 0.934277 -1.982913 0.206696096 0.973281615 0.0999981111 0.274472 0.856566
2.695222 0.941554 -1.984081 0.266003169 0.95591139 0.124401482 0.011278 0.879103
2.781844 0.934277 -2.094131 0.19529535 0.973276827 0.120797124 0.274754 0.151009
2.767146 0.941554 -2.115063 0.247703791 0.95591463 0.157702414 0.011532 0.128457
2.789507 0.934277 -2.105018 0.168306525 0.975437818 0.14210551 0.290459 0.077395
2.774213 0.941554 -2.125385 0.211898892 0.95979498 0.184099037 0.024739 0.065788
2.79907 0.934277 -2.114286 0.150505266 0.976334158 0.155305433 0.332273 0.006391
2.783157 0.941554 -2.134129 0.192898587 0.960992961 0.198198548 0.063309 0.005415
2.778875 0.924892 -1.965688 0.143604942 0.988634024 0.0445015315 0.930481 0.885576
2.775912 0.924892 -1.950647 0.144496686 0.989077316 0.0290993326 0.980366 0.99608
2.784338 0.924892 -1.980006 0.142406331 0.987343893 0.0698031032 0.90807 0.770938
2.81841 0.924892 -2.042053 0.135306314 0.987346076 0.0827038595 0.907867 0.236709
2.827559 0.924892 -2.054347 0.114603988 0.9886344 0.0973033857 0.930388 0.122129
2.838661 0.924892 -2.064919 0.10209781 0.98907878 0.106297719 0.980366 0.011683
3 0 1 2
3 0 3 1
3 2 4 5
3 2 1 4
3 5 6 7
3 5 4 6
3 7 8 9
3 7 6 8
3 9 10 11
3 9 8 10
3 3 12 1
3 3 13 12
3 1 14 4
3 1 12 14
3 4 15 6
3 4 14 15
3 6 16 8
3 6 15 16
3 8 17 10
3 8 16 17
3 18 19 20
3 18 21 19
3 20 22 23
3 20 19 22
3 23 24 25
3 23 22 24
3 25 26 27
3 25 24 26
3 27 28 29
3 27 26 28
3 21 30 19
3 21 31 30
3 19 32 22
3 19 30 32
3 22 33 24
3 22 32 33
3 24 34 26
3 24 33 34
3 26 35 28
3 26 34 35
3 36 37 38
3 36 39 37
3 38 40 41
3 38 37 40
3 41 42 43
3 41 40 42
3 43 44 45
3 43 42 44
3 45 46 47
3 45 44 46
3 39 48 37
3 39 49 48
3 37 50 40
3 37 48 50
3 40 51 42
3 40 50 51
3 42 52 44
3 42 51 52
3 44 53 46
3 44 52 53
3 54 55 56
3 54 57 55
3 56 58 59
3 56 55 58
3 59 60 61
3 59 58 60
3 61 62 63
3 61 60 62
3 63 64 65
3 63 62 64
3 57 66 55
3 57 67 66
3 55 68 58
3 55 66 68
3 58 69 60
3 58 68 69
3 60 70 62
3 60 69 70
3 62 71 64
3 62 70 71
3 72 73 74
3 72 75 73
3 74 76 77
3 74 73 76
3 77 78 79
3 77 76 78
3 79 80 81
3 79 78 80
3 81 82 83
3 81 80 82
3 75 84 73
3 75 85 84
3 73 86 76
3 73 84 86
3 76 87 78
3 76 86 87
3 78 88 80
3 78 87 88
3 80 89 82
3 80 88 89
3 90 91 92
3 90 93 91
3 92 94 95
3 92 91 94
3 95 96 97
3 95 94 96
3 97 98 99
3 97 96 98
3 99 100 101
3 99 98 100
3 93 102 91
3 93 103 102
3 91 104 94
3 91 102 104
3 94 105 96
3 94 104 105
3 96 106 98
3 96 105 106
3 98 107 100
3 98 106 107
3 108 109 110
3 108 111 109
3 110 112 113
3 110 109 112
3 113 114 115
3 113 112 114
3 115 116 117
3 115 114 116
3 117 118 119
3 117 116 118
3 111 120 109
3 111 121 120
3 109 122 112
3 109 120 122
3 112 123 114
3 112 122 123
3 114 124 116
3 114 123 124
3 116 125 118
3 116 124 125
3 126 127 128
3 126 129 127
3 128 130 131
3 128 127 130
3 131 132 133
3 131 130 132
3 133 134 135
3 133 132 134
3 135 136 137
3 135 134 136
3 129 138 127
3 129 139 138
3 127 140 130
3 127 138 140
3 130 141 132
3 130 140 141
3 132 142 134
3 132 141 142
3 134 143 136
3 134 142 143
