ply
format ascii 1.0
element vertex 400
property float x
property float y
property float z
property float nx
property float ny
property float nz
property float u
property float v
element face 560
property list uchar int vertex_indices
end_header
3.204672 0.940541 -1.890778 0.694112456 0.685712305 0.219103932 0 0
3.202466 0.940541 -1.903766 -0.12970645 0.991449306 -0.0143007112 0 0
3.19989 0.940541 -1.891539 -0.127501793 0.99111394 -0.0379005331 0 0
3.207296 0.940541 -1.903236 0.723515559 0.685714746 0.0795017097 0 0
2.892258 0.940541 -1.677596 -0.314206718 0.696214885 0.645413799 0 0
2.762383 0.940541 -1.754138 0.0772991725 0.989589407 -0.1213987 0 0
2.75895 0.940541 -1.750798 -0.375999494 0.696199064 0.611499178 0 0
2.893234 0.940541 -1.682286 0.0609001504 0.989602444 -0.130300322 0 0
3.11017 0.940541 -1.726359 0.45540672 0.685710118 0.567808378 0 0
3.096662 0.940541 -1.723325 -0.0634003877 0.991106061 -0.117000715 0 0
3.099506 0.940541 -1.719406 0.335799367 0.685698707 0.645798783 0 0
3.10713 0.940541 -1.73015 -0.0816042533 0.991451676 -0.101805306 0 0
2.790943 0.940541 -2.144671 -0.335821053 0.685742991 -0.645740483 0 0
2.805385 0.940541 -2.145403 0.0490993848 0.989587601 0.135298305 0 0
2.80276 0.940541 -2.14941 -0.23421097 0.696232609 -0.67853178 0 0
2.793787 0.940541 -2.140752 0.0634003877 0.991106061 0.117000715 0 0
2.986485 0.940541 -2.191486 0.219103932 0.685712305 -0.694112456 0 0
2.973497 0.940541 -2.18928 -0.0143007112 0.991449306 0.12970645 0 0
2.985725 0.940541 -2.186704 -0.0379005331 0.99111394 0.127501793 0 0
2.974028 0.940541 -2.19411 0.0795017097 0.685714746 -0.723515559 0 0
2.903964 0.940541 -1.672592 -0.219103932 0.685712305 0.694112456 0 0
2.916952 0.940541 -1.674797 0.0143007112 0.991449306 -0.12970645 0 0
2.904725 0.940541 -1.677374 0.0379005331 0.99111394 -0.127501793 0 0
2.916421 0.940541 -1.669967 -0.0795017097 0.685714746 0.723515559 0 0
3.150904 0.940541 -2.096984 0.567808378 0.685710118 -0.45540672 0 0
3.153938 0.940541 -2.083476 -0.117000715 0.991106061 0.0634003877 0 0
3.157857 0.940541 -2.08632 0.645798783 0.685698707 -0.335799367 0 0
3.147113 0.940541 -2.093944 -0.101805306 0.991451676 0.0816042533 0 0
3.199667 0.940541 -1.879072 0.645413799 0.696214885 0.314206718 0 0
3.123125 0.940541 -1.749197 -0.1213987 0.989589407 -0.0772991725 0 0
3.126465 0.940541 -1.745764 0.611499178 0.696199064 0.375999494 0 0
3.194978 0.940541 -1.880048 -0.130300322 0.989602444 -0.0609001504 0 0
2.763984 0.940541 -2.118313 -0.611499178 0.696199064 -0.375999494 0 0
2.774384 0.940541 -2.125191 0.100499962 0.991099628 0.0872999673 0 0
2.771176 0.940541 -2.128818 -0.557400875 0.685701077 -0.468100735 0 0
2.767324 0.940541 -2.11488 0.1213987 0.989589407 0.0772991725 0 0
2.732592 0.940541 -1.777758 -0.645798783 0.685698707 0.335799367 0 0
2.73186 0.940541 -1.792199 0.135298305 0.989587601 -0.0490993848 0 0
2.727853 0.940541 -1.789574 -0.67853178 0.696232609 0.23421097 0 0
2.736511 0.940541 -1.780601 0.117000715 0.991106061 -0.0634003877 0 0
2.683153 0.940541 -1.960842 -0.723515559 0.685714746 -0.0795017097 0 0
2.687842 0.940541 -1.947815 0.132701659 0.991112394 -0.0093001163 0 0
2.687983 0.940541 -1.960311 0.12970645 0.991449306 0.0143007112 0 0
2.683009 0.940541 -1.948112 -0.725123164 0.685721906 0.0631020158 0 0
2.998191 0.940541 -2.186481 0.314206718 0.696214885 -0.645413799 0 0
3.128066 0.940541 -2.109939 -0.0772991725 0.989589407 0.1213987 0 0
3.131499 0.940541 -2.11328 0.375999494 0.696199064 -0.611499178 0 0
2.997215 0.940541 -2.181792 -0.0609001504 0.989602444 0.130300322 0 0
2.752072 0.940541 -1.761198 0.0872999673 0.991099628 -0.100499962 0 0
2.748445 0.940541 -1.75799 -0.468100735 0.685701077 0.557400875 0 0
3.202607 0.940541 -1.916262 -0.132701659 0.991112394 0.0093001163 0 0
3.20744 0.940541 -1.915966 0.725123164 0.685721906 -0.0631020158 0 0
3.085064 0.940541 -1.718674 -0.0490993848 0.989587601 -0.135298305 0 0
3.087689 0.940541 -1.714668 0.23421097 0.696232609 0.67853178 0 0
2.961001 0.940541 -2.189421 0.0093001163 0.991112394 0.132701659 0 0
2.961298 0.940541 -2.194254 -0.0631020158 0.685721906 -0.725123164 0 0
2.695472 0.940541 -1.984029 0.130300322 0.989602444 0.0609001504 0 0
2.690782 0.940541 -1.985005 -0.645413799 0.696214885 -0.314206718 0 0
2.929448 0.940541 -1.674656 -0.0093001163 0.991112394 -0.132701659 0 0
2.929152 0.940541 -1.669823 0.0631020158 0.685721906 0.725123164 0 0
3.158589 0.940541 -2.071878 -0.135298305 0.989587601 0.0490993848 0 0
3.162596 0.940541 -2.074504 0.67853178 0.696232609 -0.23421097 0 0
3.116066 0.940541 -1.738886 -0.100499962 0.991099628 -0.0872999673 0 0
3.119273 0.940541 -1.735259 0.557400875 0.685701077 0.468100735 0 0
2.783319 0.940541 -2.133927 0.0816042533 0.991451676 0.101805306 0 0
2.780279 0.940541 -2.137718 -0.45540672 0.685710118 -0.567808378 0 0
2.690141 0.940541 -1.935532 0.140498465 0.989589189 -0.0311996591 0 0
2.685352 0.940541 -1.935598 -0.698234937 0.696234837 0.166508331 0 0
3.138377 0.940541 -2.10288 -0.0872999673 0.991099628 0.100499962 0 0
3.142004 0.940541 -2.106087 0.468100735 0.685701077 -0.557400875 0 0
3.200308 0.940541 -1.928545 -0.140498465 0.989589189 0.0311996591 0 0
3.205097 0.940541 -1.928479 0.698234937 0.696234837 -0.166508331 0 0
2.743336 0.940541 -1.770133 0.101805306 0.991451676 -0.0816042533 0 0
2.739545 0.940541 -1.767093 -0.567808378 0.685710118 0.45540672 0 0
2.941731 0.940541 -1.676956 -0.0311996591 0.989589189 -0.140498465 0 0
2.941665 0.940541 -1.672166 0.166508331 0.696234837 0.698234937 0 0
2.690559 0.940541 -1.972539 0.127501793 0.99111394 0.0379005331 0 0
2.685777 0.940541 -1.973299 -0.694112456 0.685712305 -0.219103932 0 0
2.948718 0.940541 -2.187122 0.0311996591 0.989589189 0.140498465 0 0
2.948784 0.940541 -2.191911 -0.166508331 0.696234837 -0.698234937 0 0
2.929152 0.933943 -1.669823 0.0631020158 -0.685721906 0.725123164 0 0
2.917227 0.933943 -1.6773 -0.00859973543 -0.996869332 0.078597582 0 0
2.929601 0.933943 -1.67716 0.00629989309 -0.996783085 0.0798986441 0 0
2.916421 0.933943 -1.669967 -0.0795017097 -0.685714746 0.723515559 0 0
3.162596 0.933943 -2.074504 0.67853178 -0.696232609 -0.23421097 0 0
3.151907 0.933943 -2.082003 0.070798703 -0.996781739 -0.0375993112 0 0
3.157857 0.933943 -2.08632 0.645798783 -0.685698707 -0.335799367 0 0
3.156514 0.933943 -2.070518 0.0804046471 -0.996357586 -0.0284016415 0 0
3.119273 0.933943 -1.735259 0.557400875 -0.685701077 0.468100735 0 0
3.121394 0.933943 -1.750976 0.072304193 -0.99635778 0.0452026214 0 0
3.126465 0.933943 -1.745764 0.611499178 -0.696199064 0.375999494 0 0
3.114403 0.933943 -1.740765 0.0608989812 -0.996783324 0.0520991284 0 0
2.685352 0.933943 -1.935598 -0.698234937 -0.696234837 0.166508331 0 0
2.733935 0.933943 -1.79356 -0.0804046471 -0.996357586 0.0284016415 0 0
2.727853 0.933943 -1.789574 -0.67853178 -0.696232609 0.23421097 0 0
2.692623 0.933943 -1.935498 -0.0831046565 -0.996355827 0.0192010759 0 0
2.780279 0.933943 -2.137718 -0.45540672 -0.685710118 -0.567808378 0 0
2.776046 0.933943 -2.123312 -0.0608989812 -0.996783324 -0.0520991284 0 0
2.771176 0.933943 -2.128818 -0.557400875 -0.685701077 -0.468100735 0 0
2.784894 0.933943 -2.131963 -0.049498348 -0.99686673 -0.0616979409 0 0
2.690346 0.933943 -1.947662 -0.0798986441 -0.996783085 0.00629989309 0 0
2.683009 0.933943 -1.948112 -0.725123164 -0.685721906 0.0631020158 0 0
3.142004 0.933943 -2.106087 0.468100735 -0.685701077 -0.557400875 0 0
3.126287 0.933943 -2.108209 0.0452026214 -0.99635778 -0.072304193 0 0
3.131499 0.933943 -2.11328 0.375999494 -0.696199064 -0.611499178 0 0
3.136498 0.933943 -2.101218 0.0519994007 -0.996788512 -0.0608992981 0 0
2.739545 0.933943 -1.767093 -0.567808378 -0.685710118 0.45540672 0 0
2.753951 0.933943 -1.76286 -0.0519994007 -0.996788512 0.0608992981 0 0
2.748445 0.933943 -1.75799 -0.468100735 -0.685701077 0.557400875 0 0
2.7453 0.933943 -1.771708 -0.0616979409 -0.99686673 0.049498348 0 0
3.205097 0.933943 -1.928479 0.698234937 -0.696234837 -0.166508331 0 0
3.200103 0.933943 -1.916415 0.0798986441 -0.996783085 -0.00629989309 0 0
3.197826 0.933943 -1.928579 0.0831046565 -0.996355827 -0.0192010759 0 0
3.20744 0.933943 -1.915966 0.725123164 -0.685721906 -0.0631020158 0 0
2.948784 0.933943 -2.191911 -0.166508331 -0.696234837 -0.698234937 0 0
2.960848 0.933943 -2.186917 -0.00629989309 -0.996783085 -0.0798986441 0 0
2.948684 0.933943 -2.18464 -0.0192010759 -0.996355827 -0.0831046565 0 0
2.961298 0.933943 -2.194254 -0.0631020158 -0.685721906 -0.725123164 0 0
2.941665 0.933943 -1.672166 0.166508331 -0.696234837 0.698234937 0 0
3.083704 0.933943 -1.720749 0.0284016415 -0.996357586 0.0804046471 0 0
3.087689 0.933943 -1.714668 0.23421097 -0.696232609 0.67853178 0 0
2.941765 0.933943 -1.679437 0.0192010759 -0.996355827 0.0831046565 0 0
2.685777 0.933943 -1.973299 -0.694112456 -0.685712305 -0.219103932 0 0
2.697901 0.933943 -1.983523 -0.0769045552 -0.996359016 -0.0368021799 0 0
2.693037 0.933943 -1.972145 -0.0765988491 -0.996785023 -0.0234996469 0 0
2.690782 0.933943 -1.985005 -0.645413799 -0.696214885 -0.314206718 0 0
3.204672 0.933943 -1.890778 0.694112456 -0.685712305 0.219103932 0 0
3.192548 0.933943 -1.880554 0.0769045552 -0.996359016 0.0368021799 0 0
3.197412 0.933943 -1.891932 0.0765988491 -0.996785023 0.0234996469 0 0
3.199667 0.933943 -1.879072 0.645413799 -0.696214885 0.314206718 0 0
2.986485 0.933943 -2.191486 0.219103932 -0.685712305 -0.694112456 0 0
2.996709 0.933943 -2.179362 0.0368021799 -0.996359016 -0.0769045552 0 0
2.985331 0.933943 -2.184227 0.0234996469 -0.996785023 -0.0765988491 0 0
2.998191 0.933943 -2.186481 0.314206718 -0.696214885 -0.645413799 0 0
3.11017 0.933943 -1.726359 0.45540672 -0.685710118 0.567808378 0 0
3.105555 0.933943 -1.732114 0.049498348 -0.99686673 0.0616979409 0 0
2.790943 0.933943 -2.144671 -0.335799367 -0.685698707 -0.645798783 0 0
2.79526 0.933943 -2.138722 -0.0375993112 -0.996781739 -0.070798703 0 0
2.903964 0.933943 -1.672592 -0.219103932 -0.685712305 0.694112456 0 0
2.89374 0.933943 -1.684715 -0.0368021799 -0.996359016 0.0769045552 0 0
2.905118 0.933943 -1.679851 -0.0234996469 -0.996785023 0.0765988491 0 0
2.892258 0.933943 -1.677596 -0.314206718 -0.696214885 0.645413799 0 0
3.150904 0.933943 -2.096984 0.567808378 -0.685710118 -0.45540672 0 0
3.145149 0.933943 -2.092369 0.0616979409 -0.99686673 -0.049498348 0 0
2.732592 0.933943 -1.777758 -0.645798783 -0.685698707 0.335799367 0 0
2.738542 0.933943 -1.782074 -0.070798703 -0.996781739 0.0375993112 0 0
2.683153 0.933943 -1.960842 -0.723515559 -0.685714746 -0.0795017097 0 0
2.690486 0.933943 -1.960036 -0.078597582 -0.996869332 -0.00859973543 0 0
2.80276 0.933943 -2.14941 -0.23421097 -0.696232609 -0.67853178 0 0
2.806746 0.933943 -2.143328 -0.0284016415 -0.996357586 -0.0804046471 0 0
2.75895 0.933943 -1.750798 -0.375999494 -0.696199064 0.611499178 0 0
2.764162 0.933943 -1.755869 -0.0452026214 -0.99635778 0.072304193 0 0
3.207296 0.933943 -1.903236 0.723515559 -0.685714746 0.0795017097 0 0
3.199963 0.933943 -1.904042 0.078597582 -0.996869332 0.00859973543 0 0
2.974028 0.933943 -2.19411 0.0795017097 -0.685714746 -0.723515559 0 0
2.973222 0.933943 -2.186778 0.00859973543 -0.996869332 -0.078597582 0 0
3.099506 0.933943 -1.719406 0.335799367 -0.685698707 0.645798783 0 0
3.095189 0.933943 -1.725356 0.0375993112 -0.996781739 0.070798703 0 0
2.769055 0.933943 -2.113101 -0.072304193 -0.99635778 -0.0452026214 0 0
2.763984 0.933943 -2.118313 -0.611499178 -0.696199064 -0.375999494 0 0
2.940263 0.919923 -2.036175 0.0327013797 0.725230598 0.687729016 0 0
2.956614 0.916042 -2.03567 -0.0790983002 0.689885175 0.719584536 0 0
2.956614 0.919923 -2.03567 -0.0752009987 0.725209631 0.684409089 0 0
2.940263 0.916042 -2.036175 0.0344020468 0.689841043 0.723143025 0 0
2.996923 0.919923 -1.841505 -0.341407953 0.725216894 -0.597913929 0 0
2.982124 0.916042 -1.834532 -0.256209366 0.689825217 -0.677124753 0 0
2.982124 0.919923 -1.834532 -0.243710731 0.725231933 -0.643928353 0 0
2.996923 0.916042 -1.841505 -0.359005613 0.689810785 -0.62870983 0 0
2.850185 0.919923 -1.974895 0.627635839 0.725241412 0.283016161 0 0
2.858059 0.916042 -1.989234 0.605242695 0.689848664 0.397228021 0 0
2.858059 0.919923 -1.989234 0.575699188 0.725198977 0.377699467 0 0
2.850185 0.916042 -1.974895 0.659946921 0.689849047 0.29762116 0 0
3.049361 0.919923 -1.937001 -0.687729016 0.725230598 0.0327013797 0 0
3.048856 0.916042 -1.920649 -0.71963418 0.689832764 -0.0791037571 0 0
3.048856 0.919923 -1.920649 -0.684409089 0.725209631 -0.0752009987 0 0
3.049361 0.916042 -1.937001 -0.723140533 0.689838667 0.0345019339 0 0
2.988081 0.919923 -2.027078 -0.283016161 0.725241412 0.627635839 0 0
3.00242 0.916042 -2.019204 -0.39714379 0.689876066 0.605266737 0 0
3.00242 0.919923 -2.019204 -0.377699467 0.725198977 0.575699188 0 0
2.988081 0.916042 -2.027078 -0.29762116 0.689849047 0.659946921 0 0
2.863893 0.919923 -1.866814 0.537128485 0.72523846 -0.430722842 0 0
2.854691 0.916042 -1.88034 0.62870983 0.689810785 -0.359005613 0 0
2.854691 0.919923 -1.88034 0.597913929 0.725216894 -0.341407953 0 0
2.863893 0.916042 -1.866814 0.564748418 0.689859144 -0.452938832 0 0
2.950186 0.919923 -1.827902 -0.0327013797 0.725230598 -0.687729016 0 0
2.933835 0.916042 -1.828408 0.0790983002 0.689885175 -0.719584536 0 0
2.933835 0.919923 -1.828408 0.0752009987 0.725209631 -0.684409089 0 0
2.950186 0.916042 -1.827902 -0.0344995538 0.689891076 -0.723090647 0 0
3.040264 0.919923 -1.889183 -0.627635839 0.725241412 -0.283016161 0 0
3.03239 0.916042 -1.874843 -0.605242695 0.689848664 -0.397228021 0 0
3.03239 0.919923 -1.874843 -0.575632326 0.725240727 -0.377721212 0 0
3.040264 0.916042 -1.889183 -0.659946921 0.689849047 -0.29762116 0 0
2.88 0.919923 -2.013371 0.430722842 0.72523846 0.537128485 0 0
2.893526 0.916042 -2.022573 0.359005613 0.689810785 0.62870983 0 0
2.893526 0.919923 -2.022573 0.341407953 0.725216894 0.597913929 0 0
2.88 0.916042 -2.013371 0.452938832 0.689859144 0.564748418 0 0
2.843146 0.919923 -1.910847 0.67418898 0.725188147 -0.139897713 0 0
2.841088 0.916042 -1.927077 0.723143025 0.689841043 -0.0344020468 0 0
2.841088 0.919923 -1.927077 0.687729016 0.725230598 -0.0327013797 0 0
2.843146 0.916042 -1.910847 0.70884966 0.689848329 -0.147110306 0 0
3.026556 0.919923 -1.997263 -0.537128485 0.72523846 0.430722842 0 0
3.035758 0.916042 -1.983737 -0.62870983 0.689810785 0.359005613 0 0
3.035758 0.919923 -1.983737 -0.597913929 0.725216894 0.341407953 0 0
3.026556 0.916042 -1.997263 -0.564748418 0.689859144 0.452938832 0 0
2.902368 0.919923 -1.836999 0.283016161 0.725241412 -0.627635839 0 0
2.888029 0.916042 -1.844874 0.397116389 0.689928474 -0.605224978 0 0
2.888029 0.919923 -1.844874 0.377721212 0.725240727 -0.575632326 0 0
2.902368 0.916042 -1.836999 0.29762116 0.689849047 -0.659946921 0 0
3.010449 0.919923 -1.850707 -0.430722842 0.72523846 -0.537128485 0 0
3.010449 0.916042 -1.850707 -0.452938832 0.689859144 -0.564748418 0 0
2.924033 0.919923 -2.034117 0.139995753 0.725177998 0.674179546 0 0
2.924033 0.916042 -2.034117 0.147110306 0.689848329 0.70884966 0 0
3.047303 0.919923 -1.95323 -0.674179546 0.725177998 0.139995753 0 0
3.047303 0.916042 -1.95323 -0.70884966 0.689848329 0.147110306 0 0
2.844651 0.919923 -1.959499 0.664217811 0.725219447 0.181304862 0 0
2.844651 0.916042 -1.959499 0.698416382 0.68981618 0.190704473 0 0
2.972685 0.919923 -2.032612 -0.181304862 0.725219447 0.664217811 0 0
2.972685 0.916042 -2.032612 -0.190691318 0.689868591 0.698368204 0 0
2.966416 0.919923 -1.82996 -0.139897713 0.725188147 -0.67418898 0 0
2.966416 0.916042 -1.82996 -0.147110306 0.689848329 -0.70884966 0 0
3.045798 0.919923 -1.904578 -0.664217811 0.725219447 -0.181304862 0 0
3.045798 0.916042 -1.904578 -0.698416382 0.68981618 -0.190704473 0 0
2.86808 0.919923 -2.002166 0.509508432 0.725212003 0.463107664 0 0
2.86808 0.916042 -2.002166 0.535708697 0.689811199 0.487007907 0 0
3.015352 0.919923 -2.009183 -0.463107664 0.725212003 0.509508432 0 0
3.015352 0.916042 -2.009183 -0.486931617 0.689844793 0.535734786 0 0
2.847718 0.919923 -1.895139 0.643928353 0.725231933 -0.243710731 0 0
2.847718 0.916042 -1.895139 0.677124753 0.689825217 -0.256209366 0 0
2.917763 0.919923 -1.831465 0.181304862 0.725219447 -0.664217811 0 0
2.917763 0.916042 -1.831465 0.190704473 0.68981618 -0.698416382 0 0
3.022369 0.919923 -1.861911 -0.509508432 0.725212003 -0.463107664 0 0
3.022369 0.916042 -1.861911 -0.535708697 0.689811199 -0.487007907 0 0
2.908325 0.919923 -2.029545 0.243710731 0.725231933 0.643928353 0 0
2.908325 0.916042 -2.029545 0.256209366 0.689825217 0.677124753 0 0
2.841594 0.919923 -1.943428 0.684409089 0.725209631 0.0752009987 0 0
2.841594 0.916042 -1.943428 0.71963418 0.689832764 0.0791037571 0 0
3.042731 0.919923 -1.968938 -0.643928353 0.725231933 0.243710731 0 0
3.042731 0.916042 -1.968938 -0.677124753 0.689825217 0.256209366 0 0
2.875097 0.919923 -1.854894 0.463107664 0.725212003 -0.509508432 0 0
2.875097 0.916042 -1.854894 0.486974313 0.689863611 -0.535671744 0 0
2.8534 0.919923 -1.992292 0.0316002032 0.999306426 0.0197001267 0 0
2.863956 0.919923 -2.005915 0.0263994692 0.999379908 0.0232995316 0 0
3.054395 0.919923 -1.92004 -0.0343001494 0.999404352 -0.00380001655 0 0
3.051174 0.919923 -1.90311 -0.0337993436 0.999380592 -0.00979980969 0 0
2.957223 0.919923 -2.041209 -0.00380001655 0.999404352 0.0343001494 0 0
2.974153 0.919923 -2.037988 -0.00979980969 0.999380592 0.0337993436 0 0
2.984096 0.919923 -1.829319 -0.0124000852 0.999306865 -0.0351002411 0 0
2.967549 0.919923 -1.824503 -0.00840004729 0.999305626 -0.0363002044 0 0
2.871348 0.919923 -1.85077 0.0232995316 0.999379908 -0.0263994692 0 0
2.859545 0.919923 -1.863327 0.0269001274 0.999404732 -0.0216001023 0 0
2.836054 0.919923 -1.944037 0.0343001494 0.999404352 0.00380001655 0 0
2.839275 0.919923 -1.960967 0.0337993436 0.999380592 0.00979980969 0 0
3.047944 0.919923 -1.97091 -0.0351002411 0.999306865 0.0124000852 0 0
3.05276 0.919923 -1.954363 -0.0363002044 0.999305626 0.00840004729 0 0
2.906353 0.919923 -2.034758 0.0124000852 0.999306865 0.0351002411 0 0
2.9229 0.919923 -2.039574 0.00840004729 0.999305626 0.0363002044 0 0
3.026493 0.919923 -1.858163 -0.0263994692 0.999379908 -0.0232995316 0 0
3.013936 0.919923 -1.846359 -0.0216001023 0.999404732 -0.0269001274 0 0
2.916296 0.919923 -1.826089 0.00979980969 0.999380592 -0.0337993436 0 0
2.900077 0.919923 -1.831919 0.0161000913 0.999305666 -0.0336001905 0 0
2.842505 0.919923 -1.893167 0.0351002411 0.999306865 -0.0124000852 0 0
2.837689 0.919923 -1.909714 0.0363002044 0.999305626 -0.00840004729 0 0
3.019101 0.919923 -2.013307 -0.0232995316 0.999379908 0.0263994692 0 0
3.030904 0.919923 -2.00075 -0.0269001274 0.999404732 0.0216001023 0 0
3.045344 0.919923 -1.886892 -0.0336001905 0.999305666 -0.0161000913 0 0
2.876513 0.919923 -2.017718 0.0216001023 0.999404732 0.0269001274 0 0
2.990371 0.919923 -2.032159 -0.0161000913 0.999305666 0.0336001905 0 0
2.950452 0.919923 -1.822335 -0.00219995134 0.999377894 -0.0351992214 0 0
2.845104 0.919923 -1.977185 0.0336001905 0.999305666 0.0161000913 0 0
3.054928 0.919923 -1.937266 -0.0351992214 0.999377894 0.00219995134 0 0
2.939997 0.919923 -2.041743 0.00219995134 0.999377894 0.0351992214 0 0
2.999686 0.919923 -1.836665 -0.0169996246 0.999377929 -0.0308993176 0 0
2.884971 0.919923 -1.840214 0.0197001267 0.999306426 -0.0316002032 0 0
2.835521 0.919923 -1.926811 0.0351992214 0.999377894 -0.00219995134 0 0
3.040598 0.919923 -1.986501 -0.0308993176 0.999377929 0.0169996246 0 0
2.890762 0.919923 -2.027412 0.0169996246 0.999377929 0.0308993176 0 0
3.037049 0.919923 -1.871785 -0.0316002032 0.999306426 -0.0197001267 0 0
2.933226 0.919923 -1.822868 0.00380001655 0.999404352 -0.0343001494 0 0
3.005478 0.919923 -2.023863 -0.0197001267 0.999306426 0.0316002032 0 0
2.849851 0.919923 -1.877577 0.0308993176 0.999377929 -0.0169996246 0 0
2.888648 0.916042 -1.845818 0 1 0 0 0
2.902833 0.916042 -1.838029 0 1 0 0 0
3.034778 0.916042 -1.983177 0 1 0 0 0
3.025676 0.916042 -1.996557 0 1 0 0 0
2.842215 0.916042 -1.92713 0 1 0 0 0
2.844251 0.916042 -1.911077 0 1 0 0 0
2.894086 0.916042 -2.021592 0 1 0 0 0
2.880706 0.916042 -2.01249 0 1 0 0 0
3.031446 0.916042 -1.875462 0 1 0 0 0
3.039235 0.916042 -1.889647 0 1 0 0 0
3.001801 0.916042 -2.01826 0 1 0 0 0
2.987616 0.916042 -2.026049 0 1 0 0 0
2.933958 0.916042 -1.82953 0 1 0 0 0
2.950133 0.916042 -1.829029 0 1 0 0 0
2.855671 0.916042 -1.8809 0 1 0 0 0
2.864773 0.916042 -1.86752 0 1 0 0 0
2.859003 0.916042 -1.988615 0 1 0 0 0
2.851214 0.916042 -1.97443 0 1 0 0 0
3.047733 0.916042 -1.920772 0 1 0 0 0
3.048234 0.916042 -1.936947 0 1 0 0 0
2.956491 0.916042 -2.034547 0 1 0 0 0
2.940316 0.916042 -2.035048 0 1 0 0 0
2.981724 0.916042 -1.835588 0 1 0 0 0
2.996363 0.916042 -1.842485 0 1 0 0 0
3.041675 0.916042 -1.968538 0 1 0 0 0
2.875857 0.916042 -1.85573 0 1 0 0 0
2.842716 0.916042 -1.943305 0 1 0 0 0
3.021533 0.916042 -1.862671 0 1 0 0 0
2.908725 0.916042 -2.028489 0 1 0 0 0
3.014592 0.916042 -2.008348 0 1 0 0 0
2.918061 0.916042 -1.832554 0 1 0 0 0
2.848774 0.916042 -1.895539 0 1 0 0 0
2.868915 0.916042 -2.001406 0 1 0 0 0
3.044709 0.916042 -1.904875 0 1 0 0 0
2.972388 0.916042 -2.031523 0 1 0 0 0
2.966187 0.916042 -1.831065 0 1 0 0 0
3.046198 0.916042 -1.953001 0 1 0 0 0
2.84574 0.916042 -1.959202 0 1 0 0 0
2.924263 0.916042 -2.033012 0 1 0 0 0
3.009742 0.916042 -1.851587 0 1 0 0 0
2.957092 0.923896 -1.764742 -0.0260005313 0.993220297 -0.113302315 0 0
2.943075 0.923368 -1.770473 -0.0039002026 0.99775183 -0.0669034754 0 0
2.941945 0.923896 -1.762521 -0.00800026081 0.993832399 -0.110603606 0 0
2.958482 0.923368 -1.772687 -0.0149002853 0.997519103 -0.0688013176 0 0
2.927511 0.923368 -1.770868 0.00720023819 0.997833009 -0.0654021635 0 0
2.926635 0.923896 -1.762895 0.0117999029 0.994091819 -0.107899112 0 0
2.912232 0.923368 -1.773863 0.0183010291 0.997756105 -0.0644036215 0 0
2.911609 0.923896 -1.765855 0.031801143 0.993835719 -0.106203817 0 0
2.897674 0.923368 -1.77937 0.0295005943 0.997520095 -0.0639012873 0 0
2.897306 0.923896 -1.771313 0.050000719 0.993214283 -0.10500151 0 0
2.84192 0.923368 -1.809986 0.0381007144 0.997518704 -0.05920111 0 0
2.83532 0.923896 -1.805351 0.0617013766 0.993222159 -0.0985021976 0 0
2.82946 0.923368 -1.819314 0.0445023242 0.997752109 -0.0501026167 0 0
2.823038 0.923896 -1.814491 0.0725023962 0.993832847 -0.083902773 0 0
2.818734 0.923368 -1.830599 0.0513019049 0.99783705 -0.0411015261 0 0
2.812477 0.923896 -1.825581 0.0846991822 0.994090402 -0.0678993444 0 0
2.810048 0.923368 -1.84352 0.058503209 0.997754728 -0.0326017883 0 0
2.803945 0.923896 -1.838299 0.0976033693 0.993834308 -0.0526018158 0 0
2.803648 0.923368 -1.857709 0.0660013989 0.997521143 -0.0244005172 0 0
2.797691 0.923896 -1.852272 0.109601556 0.993214099 -0.0389005522 0 0
2.785873 0.923368 -1.918781 0.0688013176 0.997519103 -0.0149002853 0 0
2.777928 0.923896 -1.920171 0.113302315 0.993220297 -0.0260005313 0 0
2.783659 0.923368 -1.934188 0.0669034754 0.99775183 -0.0039002026 0 0
2.775707 0.923896 -1.935318 0.110603606 0.993832399 -0.00800026081 0 0
2.784054 0.923368 -1.949752 0.0654021635 0.997833009 0.00720023819 0 0
2.776081 0.923896 -1.950628 0.107899112 0.994091819 0.0117999029 0 0
2.787048 0.923368 -1.965031 0.0644036215 0.997756105 0.0183010291 0 0
2.779041 0.923896 -1.965654 0.106203817 0.993835719 0.031801143 0 0
2.792556 0.923368 -1.979589 0.0639012873 0.997520095 0.0295005943 0 0
2.784499 0.923896 -1.979957 0.10500151 0.993214283 0.050000719 0 0
2.823171 0.923368 -2.035343 0.05920111 0.997518704 0.0381007144 0 0
2.818537 0.923896 -2.041943 0.0985021976 0.993222159 0.0617013766 0 0
2.8325 0.923368 -2.047803 0.0501026167 0.997752109 0.0445023242 0 0
2.827677 0.923896 -2.054225 0.083902773 0.993832847 0.0725023962 0 0
2.843785 0.923368 -2.058529 0.0411015261 0.99783705 0.0513019049 0 0
2.838767 0.923896 -2.064786 0.0678993444 0.994090402 0.0846991822 0 0
2.856706 0.923368 -2.067215 0.0326017883 0.997754728 0.058503209 0 0
2.851485 0.923896 -2.073318 0.0526018158 0.993834308 0.0976033693 0 0
2.870895 0.923368 -2.073615 0.0244005172 0.997521143 0.0660013989 0 0
2.865458 0.923896 -2.079572 0.0389005522 0.993214099 0.109601556 0 0
2.931967 0.923368 -2.09139 0.0149002853 0.997519103 0.0688013176 0 0
2.933357 0.923896 -2.099335 0.0260005313 0.993220297 0.113302315 0 0
2.947373 0.923368 -2.093605 0.0039002026 0.99775183 0.0669034754 0 0
2.948504 0.923896 -2.101556 0.00800026081 0.993832399 0.110603606 0 0
2.962938 0.923368 -2.093209 -0.00720023819 0.997833009 0.0654021635 0 0
2.963814 0.923896 -2.101182 -0.0117999029 0.994091819 0.107899112 0 0
2.978217 0.923368 -2.090215 -0.0183010291 0.997756105 0.0644036215 0 0
2.97884 0.923896 -2.098222 -0.031801143 0.993835719 0.106203817 0 0
2.992775 0.923368 -2.084707 -0.0295005943 0.997520095 0.0639012873 0 0
2.993143 0.923896 -2.092764 -0.050000719 0.993214283 0.10500151 0 0
3.048529 0.923368 -2.054092 -0.0381007144 0.997518704 0.05920111 0 0
3.055129 0.923896 -2.058726 -0.0617013766 0.993222159 0.0985021976 0 0
3.060988 0.923368 -2.044764 -0.0445023242 0.997752109 0.0501026167 0 0
3.067411 0.923896 -2.049586 -0.0725023962 0.993832847 0.083902773 0 0
3.071715 0.923368 -2.033478 -0.0513019049 0.99783705 0.0411015261 0 0
3.077972 0.923896 -2.038496 -0.0846991822 0.994090402 0.0678993444 0 0
3.080401 0.923368 -2.020557 -0.058503209 0.997754728 0.0326017883 0 0
3.086504 0.923896 -2.025778 -0.0977024187 0.993824602 0.0526013022 0 0
3.086801 0.923368 -2.006368 -0.0660013989 0.997521143 0.0244005172 0 0
3.092758 0.923896 -2.011805 -0.109601556 0.993214099 0.0389005522 0 0
3.104576 0.923368 -1.945296 -0.0688013176 0.997519103 0.0149002853 0 0
3.112521 0.923896 -1.943906 -0.113302315 0.993220297 0.0260005313 0 0
3.106791 0.923368 -1.92989 -0.0669034754 0.99775183 0.0039002026 0 0
3.114742 0.923896 -1.928759 -0.110603606 0.993832399 0.00800026081 0 0
3.106395 0.923368 -1.914325 -0.0654021635 0.997833009 -0.00720023819 0 0
3.114368 0.923896 -1.913449 -0.107899112 0.994091819 -0.0117999029 0 0
3.103401 0.923368 -1.899046 -0.0644036215 0.997756105 -0.0183010291 0 0
3.111408 0.923896 -1.898423 -0.106203817 0.993835719 -0.031801143 0 0
3.097893 0.923368 -1.884488 -0.0639012873 0.997520095 -0.0295005943 0 0
3.10595 0.923896 -1.88412 -0.10500151 0.993214283 -0.050000719 0 0
3.067277 0.923368 -1.828734 -0.05920111 0.997518704 -0.0381007144 0 0
3.071912 0.923896 -1.822134 -0.0985021976 0.993222159 -0.0617013766 0 0
3.057949 0.923368 -1.816275 -0.0501026167 0.997752109 -0.0445023242 0 0
3.062772 0.923896 -1.809852 -0.083902773 0.993832847 -0.0725023962 0 0
3.046664 0.923368 -1.805548 -0.0411015261 0.99783705 -0.0513019049 0 0
3.051682 0.923896 -1.799291 -0.0678993444 0.994090402 -0.0846991822 0 0
3.024991 0.923896 -1.784505 -0.0389005522 0.993214099 -0.109601556 0 0
3.019554 0.923368 -1.790462 -0.0244005172 0.997521143 -0.0660013989 0 0
3.038964 0.923896 -1.790759 -0.0526013022 0.993824602 -0.0977024187 0 0
3.033743 0.923368 -1.796862 -0.0326017883 0.997754728 -0.058503209 0 0
3 0 1 2
3 0 3 1
3 4 5 6
3 4 7 5
3 8 9 10
3 8 11 9
3 12 13 14
3 12 15 13
3 16 17 18
3 16 19 17
3 20 21 22
3 20 23 21
3 24 25 26
3 24 27 25
3 28 29 30
3 28 31 29
3 32 33 34
3 32 35 33
3 36 37 38
3 36 39 37
3 40 41 42
3 40 43 41
3 44 45 46
3 44 47 45
3 6 48 49
3 6 5 48
3 3 50 1
3 3 51 50
3 10 52 53
3 10 9 52
3 19 54 17
3 19 55 54
3 32 56 35
3 32 57 56
3 23 58 21
3 23 59 58
3 26 60 61
3 26 25 60
3 30 62 63
3 30 29 62
3 34 64 65
3 34 33 64
3 38 66 67
3 38 37 66
3 43 66 41
3 43 67 66
3 46 68 69
3 46 45 68
3 51 70 50
3 51 71 70
3 49 72 73
3 49 48 72
3 53 74 75
3 53 52 74
3 57 76 56
3 57 77 76
3 55 78 54
3 55 79 78
3 59 74 58
3 59 75 74
3 28 2 31
3 28 0 2
3 63 11 8
3 63 62 11
3 44 18 47
3 44 16 18
3 65 15 12
3 65 64 15
3 4 22 7
3 4 20 22
3 69 27 24
3 69 68 27
3 73 39 36
3 73 72 39
3 71 60 70
3 71 61 60
3 79 13 78
3 79 14 13
3 77 42 76
3 77 40 42
3 80 81 82
3 80 83 81
3 84 85 86
3 84 87 85
3 88 89 90
3 88 91 89
3 92 93 94
3 92 95 93
3 96 97 98
3 96 99 97
3 92 100 95
3 92 101 100
3 102 103 104
3 102 105 103
3 106 107 108
3 106 109 107
3 110 111 112
3 110 113 111
3 114 115 116
3 114 117 115
3 118 119 120
3 118 121 119
3 122 123 124
3 122 125 123
3 118 82 121
3 118 80 82
3 126 127 128
3 126 129 127
3 130 131 132
3 130 133 131
3 134 91 88
3 134 135 91
3 136 99 96
3 136 137 99
3 138 139 140
3 138 141 139
3 142 105 102
3 142 143 105
3 84 112 87
3 84 110 112
3 144 109 106
3 144 145 109
3 146 124 147
3 146 122 124
3 148 116 149
3 148 114 116
3 150 139 141
3 150 151 139
3 152 128 153
3 152 126 128
3 154 132 155
3 154 130 132
3 156 135 134
3 156 157 135
3 148 137 136
3 148 149 137
3 83 140 81
3 83 138 140
3 86 143 142
3 86 85 143
3 94 145 144
3 94 93 145
3 90 127 129
3 90 89 127
3 98 158 159
3 98 97 158
3 104 131 133
3 104 103 131
3 101 147 100
3 101 146 147
3 113 153 111
3 113 152 153
3 108 151 150
3 108 107 151
3 117 155 115
3 117 154 155
3 120 157 156
3 120 119 157
3 125 158 123
3 125 159 158
3 12 96 65
3 12 136 96
3 16 133 130
3 16 44 133
3 8 88 63
3 8 134 88
3 0 129 126
3 0 28 129
3 75 80 118
3 75 59 80
3 79 117 114
3 79 55 117
3 77 125 122
3 77 57 125
3 75 120 53
3 75 118 120
3 71 113 110
3 71 51 113
3 73 108 49
3 73 106 108
3 69 104 46
3 69 102 104
3 67 101 92
3 67 43 101
3 67 94 38
3 67 92 94
3 65 98 34
3 65 96 98
3 63 90 30
3 63 88 90
3 59 83 80
3 59 23 83
3 61 86 26
3 61 84 86
3 55 154 117
3 55 19 154
3 57 159 125
3 57 32 159
3 53 156 10
3 53 120 156
3 51 152 113
3 51 3 152
3 49 150 6
3 49 108 150
3 46 133 44
3 46 104 133
3 43 146 101
3 43 40 146
3 34 159 32
3 34 98 159
3 38 144 36
3 38 94 144
3 30 129 28
3 30 90 129
3 26 142 24
3 26 86 142
3 23 138 83
3 23 20 138
3 19 130 154
3 19 16 130
3 14 136 12
3 14 148 136
3 10 134 8
3 10 156 134
3 6 141 4
3 6 150 141
3 3 126 152
3 3 0 126
3 14 114 148
3 14 79 114
3 40 122 146
3 40 77 122
3 61 110 84
3 61 71 110
3 36 106 73
3 36 144 106
3 20 141 138
3 20 4 141
3 24 102 69
3 24 142 102
3 160 161 162
3 160 163 161
3 164 165 166
3 164 167 165
3 168 169 170
3 168 171 169
3 172 173 174
3 172 175 173
3 176 177 178
3 176 179 177
3 180 181 182
3 180 183 181
3 184 185 186
3 184 187 185
3 188 189 190
3 188 191 189
3 192 193 194
3 192 195 193
3 196 197 198
3 196 199 197
3 200 201 202
3 200 203 201
3 204 205 206
3 204 207 205
3 208 167 164
3 208 209 167
3 210 163 160
3 210 211 163
3 212 175 172
3 212 213 175
3 214 171 168
3 214 215 171
3 216 179 176
3 216 217 179
3 218 187 184
3 218 219 187
3 220 191 188
3 220 221 191
3 222 195 192
3 222 223 195
3 224 203 200
3 224 225 203
3 226 199 196
3 226 227 199
3 228 207 204
3 228 229 207
3 230 209 208
3 230 231 209
3 232 211 210
3 232 233 211
3 234 215 214
3 234 235 215
3 236 213 212
3 236 237 213
3 238 183 180
3 238 239 183
3 166 219 218
3 166 165 219
3 162 217 216
3 162 161 217
3 174 221 220
3 174 173 221
3 170 223 222
3 170 169 223
3 178 225 224
3 178 177 225
3 182 227 226
3 182 181 227
3 186 229 228
3 186 185 229
3 190 231 230
3 190 189 231
3 194 233 232
3 194 193 233
3 202 237 236
3 202 201 237
3 198 235 234
3 198 197 235
3 206 239 238
3 206 205 239
3 240 222 241
3 240 170 222
3 242 220 243
3 242 174 220
3 244 216 245
3 244 162 216
3 246 218 247
3 246 166 218
3 248 180 249
3 248 238 180
3 250 214 251
3 250 234 214
3 252 212 253
3 252 236 212
3 254 210 255
3 254 232 210
3 256 208 257
3 256 230 208
3 258 204 259
3 258 228 204
3 260 196 261
3 260 226 196
3 262 200 263
3 262 224 200
3 243 188 264
3 243 220 188
3 241 192 265
3 241 222 192
3 245 176 266
3 245 216 176
3 247 184 267
3 247 218 184
3 251 168 268
3 251 214 168
3 253 172 269
3 253 212 172
3 255 160 270
3 255 210 160
3 257 164 271
3 257 208 164
3 259 206 272
3 259 204 206
3 261 198 273
3 261 196 198
3 263 202 274
3 263 200 202
3 265 194 275
3 265 192 194
3 264 190 276
3 264 188 190
3 267 186 277
3 267 184 186
3 266 178 278
3 266 176 178
3 249 182 279
3 249 180 182
3 269 174 242
3 269 172 174
3 268 170 240
3 268 168 170
3 270 162 244
3 270 160 162
3 271 166 246
3 271 164 166
3 272 238 248
3 272 206 238
3 273 234 250
3 273 198 234
3 274 236 252
3 274 202 236
3 276 230 256
3 276 190 230
3 275 232 254
3 275 194 232
3 277 228 258
3 277 186 228
3 279 226 260
3 279 182 226
3 278 224 262
3 278 178 224
3 207 280 205
3 207 281 280
3 203 282 201
3 203 283 282
3 199 284 197
3 199 285 284
3 195 286 193
3 195 287 286
3 191 288 189
3 191 289 288
3 179 290 177
3 179 291 290
3 187 292 185
3 187 293 292
3 183 294 181
3 183 295 294
3 171 296 169
3 171 297 296
3 175 298 173
3 175 299 298
3 163 300 161
3 163 301 300
3 167 302 165
3 167 303 302
3 201 304 237
3 201 282 304
3 205 305 239
3 205 280 305
3 197 306 235
3 197 284 306
3 189 307 231
3 189 288 307
3 193 308 233
3 193 286 308
3 177 309 225
3 177 290 309
3 185 310 229
3 185 292 310
3 181 311 227
3 181 294 311
3 169 312 223
3 169 296 312
3 173 313 221
3 173 298 313
3 161 314 217
3 161 300 314
3 165 315 219
3 165 302 315
3 239 295 183
3 239 305 295
3 237 316 213
3 237 304 316
3 235 317 215
3 235 306 317
3 233 318 211
3 233 308 318
3 231 319 209
3 231 307 319
3 225 283 203
3 225 309 283
3 229 281 207
3 229 310 281
3 227 285 199
3 227 311 285
3 221 289 191
3 221 313 289
3 223 287 195
3 223 312 287
3 217 291 179
3 217 314 291
3 219 293 187
3 219 315 293
3 215 297 171
3 215 317 297
3 213 299 175
3 213 316 299
3 209 303 167
3 209 319 303
3 211 301 163
3 211 318 301
3 320 321 322
3 320 323 321
3 322 324 325
3 322 321 324
3 325 326 327
3 325 324 326
3 327 328 329
3 327 326 328
3 329 330 331
3 329 328 330
3 331 332 333
3 331 330 332
3 333 334 335
3 333 332 334
3 335 336 337
3 335 334 336
3 337 338 339
3 337 336 338
3 339 340 341
3 339 338 340
3 341 342 343
3 341 340 342
3 343 344 345
3 343 342 344
3 345 346 347
3 345 344 346
3 347 348 349
3 347 346 348
3 349 350 351
3 349 348 350
3 351 352 353
3 351 350 352
3 353 354 355
3 353 352 354
3 355 356 357
3 355 354 356
3 357 358 359
3 357 356 358
3 359 360 361
3 359 358 360
3 361 362 363
3 361 360 362
3 363 364 365
3 363 362 364
3 365 366 367
3 365 364 366
3 367 368 369
3 367 366 368
3 369 370 371
3 369 368 370
3 371 372 373
3 371 370 372
3 373 374 375
3 373 372 374
3 375 376 377
3 375 374 376
3 377 378 379
3 377 376 378
3 379 380 381
3 379 378 380
3 381 382 383
3 381 380 382
3 383 384 385
3 383 382 384
3 385 386 387
3 385 384 386
3 387 388 389
3 387 386 388
3 389 390 391
3 389 388 390
3 391 392 393
3 391 390 392
3 393 394 395
3 393 392 394
3 396 323 320
3 396 397 323
3 398 397 396
3 398 399 397
3 395 399 398
3 395 394 399
