ply
format ascii 1.0
element vertex 482
property float x
property float y
property float z
property float nx
property float ny
property float nz
property float u
property float v
element face 720
property list uchar int vertex_indices
end_header
2.958482 0.923368 -1.772687 -0.0149002853 0.997519103 -0.0688013176 0 0
2.950452 0.919923 -1.822335 -0.00219995134 0.999377894 -0.0351992214 0 0
2.943075 0.923368 -1.770473 -0.0039002026 0.99775183 -0.0669034754 0 0
2.967549 0.919923 -1.824503 -0.00840004729 0.999305626 -0.0363002044 0 0
2.933226 0.919923 -1.822868 0.00380001655 0.999404352 -0.0343001494 0 0
2.927511 0.923368 -1.770868 0.00720023819 0.997833009 -0.0654021635 0 0
2.916296 0.919923 -1.826089 0.00979980969 0.999380592 -0.0337993436 0 0
2.912232 0.923368 -1.773863 0.0183010291 0.997756105 -0.0644036215 0 0
2.900077 0.919923 -1.831919 0.0161000913 0.999305666 -0.0336001905 0 0
2.897674 0.923368 -1.77937 0.0295005943 0.997520095 -0.0639012873 0 0
2.884971 0.919923 -1.840214 0.0197001267 0.999306426 -0.0316002032 0 0
2.84192 0.923368 -1.809986 0.0381007144 0.997518704 -0.05920111 0 0
2.871348 0.919923 -1.85077 0.0232995316 0.999379908 -0.0263994692 0 0
2.82946 0.923368 -1.819314 0.0445023242 0.997752109 -0.0501026167 0 0
2.859545 0.919923 -1.863327 0.0269001274 0.999404732 -0.0216001023 0 0
2.818734 0.923368 -1.830599 0.0513019049 0.99783705 -0.0411015261 0 0
2.849851 0.919923 -1.877577 0.0308993176 0.999377929 -0.0169996246 0 0
2.810048 0.923368 -1.84352 0.058503209 0.997754728 -0.0326017883 0 0
2.842505 0.919923 -1.893167 0.0351002411 0.999306865 -0.0124000852 0 0
2.803648 0.923368 -1.857709 0.0660013989 0.997521143 -0.0244005172 0 0
2.837689 0.919923 -1.909714 0.0363002044 0.999305626 -0.00840004729 0 0
2.785873 0.923368 -1.918781 0.0688013176 0.997519103 -0.0149002853 0 0
2.835521 0.919923 -1.926811 0.0351992214 0.999377894 -0.00219995134 0 0
2.783659 0.923368 -1.934188 0.0669034754 0.99775183 -0.0039002026 0 0
2.836054 0.919923 -1.944037 0.0343001494 0.999404352 0.00380001655 0 0
2.784054 0.923368 -1.949752 0.0654021635 0.997833009 0.00720023819 0 0
2.839275 0.919923 -1.960967 0.0337993436 0.999380592 0.00979980969 0 0
2.787048 0.923368 -1.965031 0.0644036215 0.997756105 0.0183010291 0 0
2.845104 0.919923 -1.977185 0.0336001905 0.999305666 0.0161000913 0 0
2.792556 0.923368 -1.979589 0.0639012873 0.997520095 0.0295005943 0 0
2.8534 0.919923 -1.992292 0.0316002032 0.999306426 0.0197001267 0 0
2.823171 0.923368 -2.035343 0.05920111 0.997518704 0.0381007144 0 0
2.863956 0.919923 -2.005915 0.0263994692 0.999379908 0.0232995316 0 0
2.8325 0.923368 -2.047803 0.0501026167 0.997752109 0.0445023242 0 0
2.876513 0.919923 -2.017718 0.0216001023 0.999404732 0.0269001274 0 0
2.843785 0.923368 -2.058529 0.0411015261 0.99783705 0.0513019049 0 0
2.890762 0.919923 -2.027412 0.0169996246 0.999377929 0.0308993176 0 0
2.856706 0.923368 -2.067215 0.0326017883 0.997754728 0.058503209 0 0
2.906353 0.919923 -2.034758 0.0124000852 0.999306865 0.0351002411 0 0
2.870895 0.923368 -2.073615 0.0244005172 0.997521143 0.0660013989 0 0
2.9229 0.919923 -2.039574 0.00840004729 0.999305626 0.0363002044 0 0
2.931967 0.923368 -2.09139 0.0149002853 0.997519103 0.0688013176 0 0
2.939997 0.919923 -2.041743 0.00219995134 0.999377894 0.0351992214 0 0
2.947373 0.923368 -2.093605 0.0039002026 0.99775183 0.0669034754 0 0
2.957223 0.919923 -2.041209 -0.00380001655 0.999404352 0.0343001494 0 0
2.962938 0.923368 -2.093209 -0.00720023819 0.997833009 0.0654021635 0 0
2.974153 0.919923 -2.037988 -0.00979980969 0.999380592 0.0337993436 0 0
2.978217 0.923368 -2.090215 -0.0183010291 0.997756105 0.0644036215 0 0
2.990371 0.919923 -2.032159 -0.0161000913 0.999305666 0.0336001905 0 0
2.992775 0.923368 -2.084707 -0.0295005943 0.997520095 0.0639012873 0 0
3.005478 0.919923 -2.023863 -0.0197001267 0.999306426 0.0316002032 0 0
3.048529 0.923368 -2.054092 -0.0381007144 0.997518704 0.05920111 0 0
3.019101 0.919923 -2.013307 -0.0232995316 0.999379908 0.0263994692 0 0
3.060988 0.923368 -2.044764 -0.0445023242 0.997752109 0.0501026167 0 0
3.030904 0.919923 -2.00075 -0.0269001274 0.999404732 0.0216001023 0 0
3.071715 0.923368 -2.033478 -0.0513019049 0.99783705 0.0411015261 0 0
3.040598 0.919923 -1.986501 -0.0308993176 0.999377929 0.0169996246 0 0
3.080401 0.923368 -2.020557 -0.058503209 0.997754728 0.0326017883 0 0
3.047944 0.919923 -1.97091 -0.0351002411 0.999306865 0.0124000852 0 0
3.086801 0.923368 -2.006368 -0.0660013989 0.997521143 0.0244005172 0 0
3.05276 0.919923 -1.954363 -0.0363002044 0.999305626 0.00840004729 0 0
3.104576 0.923368 -1.945296 -0.0688013176 0.997519103 0.0149002853 0 0
3.054928 0.919923 -1.937266 -0.0351992214 0.999377894 0.00219995134 0 0
3.106791 0.923368 -1.92989 -0.0669034754 0.99775183 0.0039002026 0 0
3.054395 0.919923 -1.92004 -0.0343001494 0.999404352 -0.00380001655 0 0
3.106395 0.923368 -1.914325 -0.0654021635 0.997833009 -0.00720023819 0 0
3.051174 0.919923 -1.90311 -0.0337993436 0.999380592 -0.00979980969 0 0
3.103401 0.923368 -1.899046 -0.0644036215 0.997756105 -0.0183010291 0 0
3.045344 0.919923 -1.886892 -0.0336001905 0.999305666 -0.0161000913 0 0
3.097893 0.923368 -1.884488 -0.0639012873 0.997520095 -0.0295005943 0 0
3.037049 0.919923 -1.871785 -0.0316002032 0.999306426 -0.0197001267 0 0
3.067277 0.923368 -1.828734 -0.05920111 0.997518704 -0.0381007144 0 0
3.026493 0.919923 -1.858163 -0.0263994692 0.999379908 -0.0232995316 0 0
3.057949 0.923368 -1.816275 -0.0501026167 0.997752109 -0.0445023242 0 0
3.013936 0.919923 -1.846359 -0.0216001023 0.999404732 -0.0269001274 0 0
3.046664 0.923368 -1.805548 -0.0411015261 0.99783705 -0.0513019049 0 0
3.019554 0.923368 -1.790462 -0.0244005172 0.997521143 -0.0660013989 0 0
2.984096 0.919923 -1.829319 -0.0124000852 0.999306865 -0.0351002411 0 0
3.033743 0.923368 -1.796862 -0.0326017883 0.997754728 -0.058503209 0 0
2.999686 0.919923 -1.836665 -0.0169996246 0.999377929 -0.0308993176 0 0
2.941731 0.940541 -1.676956 -0.0311996591 0.989589189 -0.140498465 0 0
2.933031 0.933272 -1.699847 -0.0185006692 0.975435282 -0.21950794 0 0
2.929448 0.940541 -1.674656 -0.0093001163 0.991112394 -0.132701659 0 0
2.946135 0.933272 -1.702124 -0.052698882 0.973279352 -0.223495259 0 0
2.919728 0.933272 -1.700055 0.0235011692 0.976548585 -0.214010647 0 0
2.916952 0.940541 -1.674797 0.0143007112 0.991449306 -0.12970645 0 0
2.906698 0.933272 -1.702742 0.0657030983 0.975445998 -0.210209913 0 0
2.904725 0.940541 -1.677374 0.0379005331 0.99111394 -0.127501793 0 0
2.894402 0.933272 -1.70781 0.0999981111 0.973281615 -0.206696096 0 0
2.893234 0.940541 -1.682286 0.0609001504 0.989602444 -0.130300322 0 0
2.783294 0.933272 -1.768821 0.120797124 0.973276827 -0.19529535 0 0
2.762383 0.940541 -1.754138 0.0772991725 0.989589407 -0.1213987 0 0
2.772418 0.933272 -1.776477 0.14210551 0.975437818 -0.168306525 0 0
2.752072 0.940541 -1.761198 0.0872999673 0.991099628 -0.100499962 0 0
2.763159 0.933272 -1.78603 0.167909508 0.976555299 -0.134707628 0 0
2.743336 0.940541 -1.770133 0.101805306 0.991451676 -0.0816042533 0 0
2.755845 0.933272 -1.797143 0.195204583 0.975422903 -0.1022024 0 0
2.736511 0.940541 -1.780601 0.117000715 0.991106061 -0.0634003877 0 0
2.750734 0.933272 -1.809422 0.216895265 0.973278754 -0.0753983541 0 0
2.73186 0.940541 -1.792199 0.135298305 0.989587601 -0.0490993848 0 0
2.71531 0.933272 -1.931128 0.223495259 0.973279352 -0.052698882 0 0
2.690141 0.940541 -1.935532 0.140498465 0.989589189 -0.0311996591 0 0
2.713033 0.933272 -1.944232 0.21950794 0.975435282 -0.0185006692 0 0
2.687842 0.940541 -1.947815 0.132701659 0.991112394 -0.0093001163 0 0
2.713241 0.933272 -1.957535 0.214010647 0.976548585 0.0235011692 0 0
2.687983 0.940541 -1.960311 0.12970645 0.991449306 0.0143007112 0 0
2.715927 0.933272 -1.970565 0.210209913 0.975445998 0.0657030983 0 0
2.690559 0.940541 -1.972539 0.127501793 0.99111394 0.0379005331 0 0
2.720996 0.933272 -1.982862 0.206696096 0.973281615 0.0999981111 0 0
2.695472 0.940541 -1.984029 0.130300322 0.989602444 0.0609001504 0 0
2.782007 0.933272 -2.093969 0.19529535 0.973276827 0.120797124 0 0
2.767324 0.940541 -2.11488 0.1213987 0.989589407 0.0772991725 0 0
2.789663 0.933272 -2.104845 0.168306525 0.975437818 0.14210551 0 0
2.774384 0.940541 -2.125191 0.100499962 0.991099628 0.0872999673 0 0
2.799216 0.933272 -2.114104 0.134707628 0.976555299 0.167909508 0 0
2.783319 0.940541 -2.133927 0.0816042533 0.991451676 0.101805306 0 0
2.810329 0.933272 -2.121418 0.1022024 0.975422903 0.195204583 0 0
2.793787 0.940541 -2.140752 0.0634003877 0.991106061 0.117000715 0 0
2.822608 0.933272 -2.126529 0.0753983541 0.973278754 0.216895265 0 0
2.805385 0.940541 -2.145403 0.0490993848 0.989587601 0.135298305 0 0
2.944314 0.933272 -2.161953 0.052698882 0.973279352 0.223495259 0 0
2.948718 0.940541 -2.187122 0.0311996591 0.989589189 0.140498465 0 0
2.957418 0.933272 -2.16423 0.0185006692 0.975435282 0.21950794 0 0
2.961001 0.940541 -2.189421 0.0093001163 0.991112394 0.132701659 0 0
2.970721 0.933272 -2.164022 -0.0235011692 0.976548585 0.214010647 0 0
2.973497 0.940541 -2.18928 -0.0143007112 0.991449306 0.12970645 0 0
2.983751 0.933272 -2.161336 -0.0657030983 0.975445998 0.210209913 0 0
2.985725 0.940541 -2.186704 -0.0379005331 0.99111394 0.127501793 0 0
2.996047 0.933272 -2.156267 -0.0999981111 0.973281615 0.206696096 0 0
2.997215 0.940541 -2.181792 -0.0609001504 0.989602444 0.130300322 0 0
3.107155 0.933272 -2.095256 -0.120797124 0.973276827 0.19529535 0 0
3.128066 0.940541 -2.109939 -0.0772991725 0.989589407 0.1213987 0 0
3.118031 0.933272 -2.0876 -0.14210551 0.975437818 0.168306525 0 0
3.138377 0.940541 -2.10288 -0.0872999673 0.991099628 0.100499962 0 0
3.12729 0.933272 -2.078047 -0.167909508 0.976555299 0.134707628 0 0
3.147113 0.940541 -2.093944 -0.101805306 0.991451676 0.0816042533 0 0
3.134604 0.933272 -2.066934 -0.195204583 0.975422903 0.1022024 0 0
3.153938 0.940541 -2.083476 -0.117000715 0.991106061 0.0634003877 0 0
3.139715 0.933272 -2.054655 -0.216895265 0.973278754 0.0753983541 0 0
3.158589 0.940541 -2.071878 -0.135298305 0.989587601 0.0490993848 0 0
3.175139 0.933272 -1.932949 -0.223495259 0.973279352 0.052698882 0 0
3.200308 0.940541 -1.928545 -0.140498465 0.989589189 0.0311996591 0 0
3.177416 0.933272 -1.919845 -0.21950794 0.975435282 0.0185006692 0 0
3.202607 0.940541 -1.916262 -0.132701659 0.991112394 0.0093001163 0 0
3.177208 0.933272 -1.906542 -0.214010647 0.976548585 -0.0235011692 0 0
3.202466 0.940541 -1.903766 -0.12970645 0.991449306 -0.0143007112 0 0
3.174522 0.933272 -1.893512 -0.210209913 0.975445998 -0.0657030983 0 0
3.19989 0.940541 -1.891539 -0.127501793 0.99111394 -0.0379005331 0 0
3.169453 0.933272 -1.881216 -0.206696096 0.973281615 -0.0999981111 0 0
3.194978 0.940541 -1.880048 -0.130300322 0.989602444 -0.0609001504 0 0
3.108442 0.933272 -1.770108 -0.19529535 0.973276827 -0.120797124 0 0
3.123125 0.940541 -1.749197 -0.1213987 0.989589407 -0.0772991725 0 0
3.100786 0.933272 -1.759232 -0.168306525 0.975437818 -0.14210551 0 0
3.116066 0.940541 -1.738886 -0.100499962 0.991099628 -0.0872999673 0 0
3.091233 0.933272 -1.749973 -0.134707628 0.976555299 -0.167909508 0 0
3.10713 0.940541 -1.73015 -0.0816042533 0.991451676 -0.101805306 0 0
3.085064 0.940541 -1.718674 -0.0490993848 0.989587601 -0.135298305 0 0
3.067841 0.933272 -1.737548 -0.0753983541 0.973278754 -0.216895265 0 0
3.096662 0.940541 -1.723325 -0.0634003877 0.991106061 -0.117000715 0 0
3.08012 0.933272 -1.742659 -0.1022024 0.975422903 -0.195204583 0 0
2.941945 0.923896 -1.762521 -0.00800026081 0.993832399 -0.110603606 0 0
2.957092 0.923896 -1.764742 -0.0260005313 0.993220297 -0.113302315 0 0
2.926635 0.923896 -1.762895 0.0117999029 0.994091819 -0.107899112 0 0
2.911609 0.923896 -1.765855 0.031801143 0.993835719 -0.106203817 0 0
2.897306 0.923896 -1.771313 0.050000719 0.993214283 -0.10500151 0 0
2.83532 0.923896 -1.805351 0.0617013766 0.993222159 -0.0985021976 0 0
2.823038 0.923896 -1.814491 0.0725023962 0.993832847 -0.083902773 0 0
2.812477 0.923896 -1.825581 0.0846991822 0.994090402 -0.0678993444 0 0
2.803945 0.923896 -1.838299 0.0976033693 0.993834308 -0.0526018158 0 0
2.797691 0.923896 -1.852272 0.109601556 0.993214099 -0.0389005522 0 0
2.777928 0.923896 -1.920171 0.113302315 0.993220297 -0.0260005313 0 0
2.775707 0.923896 -1.935318 0.110603606 0.993832399 -0.00800026081 0 0
2.776081 0.923896 -1.950628 0.107899112 0.994091819 0.0117999029 0 0
2.779041 0.923896 -1.965654 0.106203817 0.993835719 0.031801143 0 0
2.784499 0.923896 -1.979957 0.10500151 0.993214283 0.050000719 0 0
2.818537 0.923896 -2.041943 0.0985021976 0.993222159 0.0617013766 0 0
2.827677 0.923896 -2.054225 0.083902773 0.993832847 0.0725023962 0 0
2.838767 0.923896 -2.064786 0.0678993444 0.994090402 0.0846991822 0 0
2.851485 0.923896 -2.073318 0.0526018158 0.993834308 0.0976033693 0 0
2.865458 0.923896 -2.079572 0.0389005522 0.993214099 0.109601556 0 0
2.933357 0.923896 -2.099335 0.0260005313 0.993220297 0.113302315 0 0
2.948504 0.923896 -2.101556 0.00800026081 0.993832399 0.110603606 0 0
2.963814 0.923896 -2.101182 -0.0117999029 0.994091819 0.107899112 0 0
2.97884 0.923896 -2.098222 -0.031801143 0.993835719 0.106203817 0 0
2.993143 0.923896 -2.092764 -0.050000719 0.993214283 0.10500151 0 0
3.055129 0.923896 -2.058726 -0.0617013766 0.993222159 0.0985021976 0 0
3.067411 0.923896 -2.049586 -0.0725023962 0.993832847 0.083902773 0 0
3.077972 0.923896 -2.038496 -0.0846991822 0.994090402 0.0678993444 0 0
3.086504 0.923896 -2.025778 -0.0977024187 0.993824602 0.0526013022 0 0
3.092758 0.923896 -2.011805 -0.109601556 0.993214099 0.0389005522 0 0
3.112521 0.923896 -1.943906 -0.113302315 0.993220297 0.0260005313 0 0
3.114742 0.923896 -1.928759 -0.110603606 0.993832399 0.00800026081 0 0
3.114368 0.923896 -1.913449 -0.107899112 0.994091819 -0.0117999029 0 0
3.111408 0.923896 -1.898423 -0.106203817 0.993835719 -0.031801143 0 0
3.10595 0.923896 -1.88412 -0.10500151 0.993214283 -0.050000719 0 0
3.071912 0.923896 -1.822134 -0.0985021976 0.993222159 -0.0617013766 0 0
3.062772 0.923896 -1.809852 -0.083902773 0.993832847 -0.0725023962 0 0
3.051682 0.923896 -1.799291 -0.0678993444 0.994090402 -0.0846991822 0 0
3.024991 0.923896 -1.784505 -0.0389005522 0.993214099 -0.109601556 0 0
3.038964 0.923896 -1.790759 -0.0526013022 0.993824602 -0.0977024187 0 0
3.039235 0.916042 -1.889647 0 1 0 0 0
2.945225 0.916042 -1.932039 0 1 0 0 0
3.031446 0.916042 -1.875462 0 1 0 0 0
2.880706 0.916042 -2.01249 0 1 0 0 0
2.894086 0.916042 -2.021592 0 1 0 0 0
2.950133 0.916042 -1.829029 0 1 0 0 0
2.933958 0.916042 -1.82953 0 1 0 0 0
2.864773 0.916042 -1.86752 0 1 0 0 0
2.855671 0.916042 -1.8809 0 1 0 0 0
2.987616 0.916042 -2.026049 0 1 0 0 0
3.001801 0.916042 -2.01826 0 1 0 0 0
2.851214 0.916042 -1.97443 0 1 0 0 0
2.859003 0.916042 -1.988615 0 1 0 0 0
3.048234 0.916042 -1.936947 0 1 0 0 0
3.047733 0.916042 -1.920772 0 1 0 0 0
2.996363 0.916042 -1.842485 0 1 0 0 0
2.981724 0.916042 -1.835588 0 1 0 0 0
2.940316 0.916042 -2.035048 0 1 0 0 0
2.956491 0.916042 -2.034547 0 1 0 0 0
2.888648 0.916042 -1.845818 0 1 0 0 0
2.875857 0.916042 -1.85573 0 1 0 0 0
2.842215 0.916042 -1.92713 0 1 0 0 0
2.842716 0.916042 -1.943305 0 1 0 0 0
3.034778 0.916042 -1.983177 0 1 0 0 0
3.041675 0.916042 -1.968538 0 1 0 0 0
2.908725 0.916042 -2.028489 0 1 0 0 0
3.021533 0.916042 -1.862671 0 1 0 0 0
2.918061 0.916042 -1.832554 0 1 0 0 0
3.014592 0.916042 -2.008348 0 1 0 0 0
2.848774 0.916042 -1.895539 0 1 0 0 0
2.868915 0.916042 -2.001406 0 1 0 0 0
3.044709 0.916042 -1.904875 0 1 0 0 0
2.972388 0.916042 -2.031523 0 1 0 0 0
2.966187 0.916042 -1.831065 0 1 0 0 0
2.84574 0.916042 -1.959202 0 1 0 0 0
3.046198 0.916042 -1.953001 0 1 0 0 0
3.009742 0.916042 -1.851587 0 1 0 0 0
2.924263 0.916042 -2.033012 0 1 0 0 0
2.902833 0.916042 -1.838029 0 1 0 0 0
2.844251 0.916042 -1.911077 0 1 0 0 0
3.025676 0.916042 -1.996557 0 1 0 0 0
3.156514 0.933943 -2.070518 0.0804046471 -0.996357586 -0.0284016415 0 0
3.097224 0.922379 -2.042326 0.131694081 -0.988955552 -0.0679969439 0 0
3.151907 0.933943 -2.082003 0.070798703 -0.996781739 -0.0375993112 0 0
3.100611 0.922379 -2.033879 0.143698941 -0.988392716 -0.0492996367 0 0
2.917227 0.933943 -1.6773 -0.00859973543 -0.996869332 0.078597582 0 0
2.933735 0.922379 -1.744595 0.0132994438 -0.988958638 0.147593827 0 0
2.929601 0.933943 -1.67716 0.00629989309 -0.996783085 0.0798986441 0 0
2.924635 0.922379 -1.744698 -0.0158995998 -0.9892751 0.145196345 0 0
3.114403 0.933943 -1.740765 0.0608989812 -0.996783324 0.0520991284 0 0
3.074784 0.922379 -1.798881 0.129598755 -0.988390507 0.0792992383 0 0
3.121394 0.933943 -1.750976 0.072304193 -0.99635778 0.0452026214 0 0
3.069643 0.922379 -1.791372 0.113695811 -0.988963562 0.0949964999 0 0
2.784894 0.933943 -2.131963 -0.049498348 -0.99686673 -0.0616979409 0 0
2.820807 0.922379 -2.072706 -0.113695811 -0.988963562 -0.0949964999 0 0
2.776046 0.933943 -2.123312 -0.0608989812 -0.996783324 -0.0520991284 0 0
2.827314 0.922379 -2.079068 -0.0913980962 -0.989279393 -0.113897628 0 0
2.692623 0.933943 -1.935498 -0.0831046565 -0.996355827 0.0192010759 0 0
2.789838 0.922379 -1.830198 -0.143698941 -0.988392716 0.0492996367 0 0
2.733935 0.933943 -1.79356 -0.0804046471 -0.996357586 0.0284016415 0 0
2.759456 0.922379 -1.934583 -0.147699254 -0.988395009 0.0354998207 0 0
2.690346 0.933943 -1.947662 -0.0798986441 -0.996783085 0.00629989309 0 0
2.757781 0.922379 -1.943528 -0.147593827 -0.988958638 0.0132994438 0 0
3.136498 0.933943 -2.101218 0.0519994007 -0.996788512 -0.0608992981 0 0
3.078382 0.922379 -2.061598 0.0792992383 -0.988390507 -0.129598755 0 0
3.126287 0.933943 -2.108209 0.0452026214 -0.99635778 -0.072304193 0 0
3.085891 0.922379 -2.056457 0.0949954194 -0.988952314 -0.113794513 0 0
3.200103 0.933943 -1.916415 0.0798986441 -0.996783085 -0.00629989309 0 0
3.130993 0.922379 -1.929494 0.147699254 -0.988395009 -0.0354998207 0 0
3.197826 0.933943 -1.928579 0.0831046565 -0.996355827 -0.0192010759 0 0
3.132668 0.922379 -1.920549 0.147593827 -0.988958638 -0.0132994438 0 0
2.7453 0.933943 -1.771708 -0.0616979409 -0.99686673 0.049498348 0 0
2.804558 0.922379 -1.807621 -0.0949964999 -0.988963562 0.113695811 0 0
2.753951 0.933943 -1.76286 -0.0519994007 -0.996788512 0.0608992981 0 0
2.798195 0.922379 -1.814128 -0.113897628 -0.989279393 0.0913980962 0 0
2.941765 0.933943 -1.679437 0.0192010759 -0.996355827 0.0831046565 0 0
3.047065 0.922379 -1.776652 0.0492996367 -0.988392716 0.143698941 0 0
3.083704 0.933943 -1.720749 0.0284016415 -0.996357586 0.0804046471 0 0
2.94268 0.922379 -1.74627 0.0354998207 -0.988395009 0.147699254 0 0
2.697901 0.933943 -1.983523 -0.0769045552 -0.996359016 -0.0368021799 0 0
2.75976 0.922379 -1.961534 -0.14119411 -0.988958741 -0.0449981227 0 0
2.693037 0.933943 -1.972145 -0.0765988491 -0.996785023 -0.0234996469 0 0
2.763337 0.922379 -1.969902 -0.136498928 -0.988392241 -0.0666994764 0 0
2.960848 0.933943 -2.186917 -0.00629989309 -0.996783085 -0.0798986441 0 0
2.947769 0.922379 -2.117808 -0.0354998207 -0.988395009 -0.147699254 0 0
2.948684 0.933943 -2.18464 -0.0192010759 -0.996355827 -0.0831046565 0 0
2.956714 0.922379 -2.119482 -0.0132994438 -0.988958638 -0.147593827 0 0
3.192548 0.933943 -1.880554 0.0769045552 -0.996359016 0.0368021799 0 0
3.130689 0.922379 -1.902544 0.14119411 -0.988958741 0.0449981227 0 0
3.197412 0.933943 -1.891932 0.0765988491 -0.996785023 0.0234996469 0 0
3.127112 0.922379 -1.894176 0.136498928 -0.988392241 0.0666994764 0 0
3.105555 0.933943 -1.732114 0.049498348 -0.99686673 0.0616979409 0 0
3.063135 0.922379 -1.78501 0.0913980962 -0.989279393 0.113897628 0 0
2.996709 0.933943 -2.179362 0.0368021799 -0.996359016 -0.0769045552 0 0
2.97472 0.922379 -2.117503 0.0449981227 -0.988958741 -0.14119411 0 0
2.985331 0.933943 -2.184227 0.0234996469 -0.996785023 -0.0765988491 0 0
2.983088 0.922379 -2.113926 0.0666994764 -0.988392241 -0.136498928 0 0
2.79526 0.933943 -2.138722 -0.0375993112 -0.996781739 -0.070798703 0 0
2.834937 0.922379 -2.084038 -0.0679969439 -0.988955552 -0.131694081 0 0
2.89374 0.933943 -1.684715 -0.0368021799 -0.996359016 0.0769045552 0 0
2.91573 0.922379 -1.746574 -0.0449981227 -0.988958741 0.14119411 0 0
2.905118 0.933943 -1.679851 -0.0234996469 -0.996785023 0.0765988491 0 0
2.907362 0.922379 -1.750151 -0.0666994764 -0.988392241 0.136498928 0 0
3.145149 0.933943 -2.092369 0.0616979409 -0.99686673 -0.049498348 0 0
3.092254 0.922379 -2.049949 0.113897628 -0.989279393 -0.0913980962 0 0
2.738542 0.933943 -1.782074 -0.070798703 -0.996781739 0.0375993112 0 0
2.793225 0.922379 -1.821751 -0.131694081 -0.988955552 0.0679969439 0 0
2.757884 0.922379 -1.952628 -0.145196345 -0.9892751 -0.0158995998 0 0
2.690486 0.933943 -1.960036 -0.078597582 -0.996869332 -0.00859973543 0 0
2.843384 0.922379 -2.087425 -0.0492996367 -0.988392716 -0.143698941 0 0
2.806746 0.933943 -2.143328 -0.0284016415 -0.996357586 -0.0804046471 0 0
3.132565 0.922379 -1.911449 0.145196345 -0.9892751 0.0158995998 0 0
3.199963 0.933943 -1.904042 0.078597582 -0.996869332 0.00859973543 0 0
2.764162 0.933943 -1.755869 -0.0452026214 -0.99635778 0.072304193 0 0
2.812067 0.922379 -1.802479 -0.0792992383 -0.988390507 0.129598755 0 0
3.095189 0.933943 -1.725356 0.0375993112 -0.996781739 0.070798703 0 0
3.055512 0.922379 -1.780039 0.0679969439 -0.988955552 0.131694081 0 0
2.965814 0.922379 -2.119379 0.0158995998 -0.9892751 -0.145196345 0 0
2.973222 0.933943 -2.186778 0.00859973543 -0.996869332 -0.078597582 0 0
2.815665 0.922379 -2.065196 -0.129598755 -0.988390507 -0.0792992383 0 0
2.769055 0.933943 -2.113101 -0.072304193 -0.99635778 -0.0452026214 0 0
3.01976 0.913928 -1.839097 0.456303071 -0.684204605 0.568903829 0 0
3.014941 0.913928 -1.835955 0.336116341 -0.683433226 0.648031505 0 0
2.875509 0.913928 -2.028122 -0.336116341 -0.683433226 -0.648031505 0 0
2.880848 0.913928 -2.030264 -0.241206309 -0.671217556 -0.700918333 0 0
2.95824 0.913928 -2.050463 0.0797015247 -0.684213089 -0.724913868 0 0
2.963869 0.913928 -2.049277 0.220602567 -0.683407951 -0.695908097 0 0
2.932209 0.913928 -1.813615 -0.0797015247 -0.684213089 0.724913868 0 0
2.92658 0.913928 -1.814801 -0.220602567 -0.683407951 0.695908097 0 0
3.038166 0.913928 -2.006574 0.568903829 -0.684204605 -0.456303071 0 0
3.041308 0.913928 -2.001755 0.648031505 -0.683433226 -0.336116341 0 0
3.060201 0.913928 -1.908104 0.666192709 -0.671192654 0.325096442 0 0
3.027123 0.913928 -1.847866 0.63182703 -0.671228716 0.387616583 0 0
2.849141 0.913928 -1.862323 -0.648053285 -0.683456196 0.336027629 0 0
2.847 0.913928 -1.867662 -0.700918333 -0.671217556 0.241206309 0 0
2.863326 0.913928 -2.016212 -0.63182703 -0.671228716 -0.387616583 0 0
2.866576 0.913928 -2.020959 -0.559610868 -0.683413272 -0.468809104 0 0
2.969159 0.913928 -2.047015 0.325096442 -0.671192654 -0.666192709 0 0
3.029398 0.913928 -2.013937 0.387701557 -0.671202695 -0.631802537 0 0
2.826735 0.913928 -1.939302 -0.727208348 -0.683407846 0.064200737 0 0
2.826801 0.913928 -1.945054 -0.724913868 -0.684213089 -0.0797015247 0 0
2.861051 0.913928 -1.85014 -0.387616583 -0.671228716 0.63182703 0 0
2.856305 0.913928 -1.85339 -0.468809104 -0.683413272 0.559610868 0 0
3.063714 0.913928 -1.924776 0.727208348 -0.683407846 -0.064200737 0 0
3.063648 0.913928 -1.919023 0.724913868 -0.684213089 0.0797015247 0 0
3.009601 0.913928 -1.833814 0.241206309 -0.671217556 0.700918333 0 0
2.830248 0.913928 -1.955973 -0.666192709 -0.671192654 -0.325096442 0 0
2.952487 0.913928 -2.050528 -0.064200737 -0.683407846 -0.727208348 0 0
3.043449 0.913928 -1.996415 0.700918333 -0.671217556 -0.241206309 0 0
2.937962 0.913928 -1.81355 0.064200737 -0.683407846 0.727208348 0 0
3.023873 0.913928 -1.843119 0.559610868 -0.683413272 0.468809104 0 0
2.870689 0.913928 -2.02498 -0.456303071 -0.684204605 -0.568903829 0 0
2.827794 0.913928 -1.933647 -0.720901078 -0.671201003 0.172600258 0 0
3.034144 0.913928 -2.010687 0.468809104 -0.683413272 -0.559610868 0 0
2.852283 0.913928 -1.857504 -0.568903829 -0.684204605 0.456303071 0 0
3.062655 0.913928 -1.93043 0.720901078 -0.671201003 -0.172600258 0 0
2.943616 0.913928 -1.814608 0.172600258 -0.671201003 0.720901078 0 0
2.827986 0.913928 -1.950683 -0.695908097 -0.683407951 -0.220602567 0 0
2.946833 0.913928 -2.049469 -0.172600258 -0.671201003 -0.720901078 0 0
3.062463 0.913928 -1.913394 0.695908097 -0.683407951 0.220602567 0 0
2.92129 0.913928 -1.817062 -0.325096442 -0.671192654 0.666192709 0 0
3.029398 0.909036 -2.013937 0.375999494 -0.696199064 -0.611499178 0 0
3.034144 0.909036 -2.010687 0.468100735 -0.685701077 -0.557400875 0 0
2.827794 0.909036 -1.933647 -0.698234937 -0.696234837 0.166508331 0 0
2.826735 0.909036 -1.939302 -0.725123164 -0.685721906 0.0631020158 0 0
3.062655 0.909036 -1.93043 0.698234937 -0.696234837 -0.166508331 0 0
3.063714 0.909036 -1.924776 0.725123164 -0.685721906 -0.0631020158 0 0
2.856305 0.909036 -1.85339 -0.468100735 -0.685701077 0.557400875 0 0
2.852283 0.909036 -1.857504 -0.567808378 -0.685710118 0.45540672 0 0
3.009601 0.909036 -1.833814 0.23421097 -0.696232609 0.67853178 0 0
2.943616 0.909036 -1.814608 0.166508331 -0.696234837 0.698234937 0 0
2.827986 0.909036 -1.950683 -0.694112456 -0.685712305 -0.219103932 0 0
2.830248 0.909036 -1.955973 -0.645413799 -0.696214885 -0.314206718 0 0
2.946833 0.909036 -2.049469 -0.166508331 -0.696234837 -0.698234937 0 0
2.952487 0.909036 -2.050528 -0.0631020158 -0.685721906 -0.725123164 0 0
2.937962 0.909036 -1.81355 0.0631020158 -0.685721906 0.725123164 0 0
3.062463 0.909036 -1.913394 0.694112456 -0.685712305 0.219103932 0 0
3.060201 0.909036 -1.908104 0.645413799 -0.696214885 0.314206718 0 0
3.023873 0.909036 -1.843119 0.557400875 -0.685701077 0.468100735 0 0
3.01976 0.909036 -1.839097 0.45540672 -0.685710118 0.567808378 0 0
2.870689 0.909036 -2.02498 -0.45540672 -0.685710118 -0.567808378 0 0
2.875509 0.909036 -2.028122 -0.335909777 -0.685719958 -0.645718794 0 0
2.963869 0.909036 -2.049277 0.21919913 -0.685697278 -0.694097244 0 0
2.969159 0.909036 -2.047015 0.314206718 -0.696214885 -0.645413799 0 0
2.92658 0.909036 -1.814801 -0.219103932 -0.685712305 0.694112456 0 0
2.92129 0.909036 -1.817062 -0.314206718 -0.696214885 0.645413799 0 0
3.038166 0.909036 -2.006574 0.567808378 -0.685710118 -0.45540672 0 0
2.849141 0.909036 -1.862323 -0.645798783 -0.685698707 0.335799367 0 0
3.043449 0.909036 -1.996415 0.67853178 -0.696232609 -0.23421097 0 0
2.880848 0.909036 -2.030264 -0.23421097 -0.696232609 -0.67853178 0 0
2.826801 0.909036 -1.945054 -0.723515559 -0.685714746 -0.0795017097 0 0
2.861051 0.909036 -1.85014 -0.375999494 -0.696199064 0.611499178 0 0
3.063648 0.909036 -1.919023 0.723515559 -0.685714746 0.0795017097 0 0
3.014941 0.909036 -1.835955 0.335821053 -0.685742991 0.645740483 0 0
2.95824 0.909036 -2.050463 0.0795017097 -0.685714746 -0.723515559 0 0
2.932209 0.909036 -1.813615 -0.0795017097 -0.685714746 0.723515559 0 0
3.041308 0.909036 -2.001755 0.645798783 -0.685698707 -0.335799367 0 0
3.027123 0.909036 -1.847866 0.611522168 -0.696225239 0.375913627 0 0
2.863326 0.909036 -2.016212 -0.611522168 -0.696225239 -0.375913627 0 0
2.866576 0.909036 -2.020959 -0.557400875 -0.685701077 -0.468100735 0 0
2.847 0.909036 -1.867662 -0.67853178 -0.696232609 0.23421097 0 0
2.922787 0.909036 -1.824253 0.30451136 -0.718326798 -0.625523336 0 0
2.866316 0.909036 -1.855263 0.364415122 -0.718329808 -0.592624591 0 0
3.056242 0.909036 -1.919837 -0.679481535 -0.729880166 -0.0746979701 0 0
3.05513 0.909036 -1.91456 -0.651921093 -0.729823614 -0.205806659 0 0
3.015098 0.909036 -1.84491 -0.427711929 -0.729820355 -0.533314874 0 0
3.01058 0.909036 -1.841965 -0.315388422 -0.729873207 -0.606477737 0 0
2.957426 0.909036 -2.043056 -0.0747034222 -0.729833434 0.67953113 0 0
2.962703 0.909036 -2.041944 -0.205791639 -0.729870346 0.651873515 0 0
2.879869 0.909036 -2.022112 0.315411442 -0.729826475 0.606522002 0 0
2.884875 0.909036 -2.02412 0.227008893 -0.718328141 0.657625763 0 0
2.933023 0.909036 -1.821022 0.0746039746 -0.729838883 -0.679536203 0 0
2.927746 0.909036 -1.822134 0.205806659 -0.729823614 -0.651921093 0 0
3.032353 0.909036 -2.001912 -0.533314874 -0.729820355 0.427711929 0 0
3.035298 0.909036 -1.997394 -0.606522002 -0.729826475 0.315411442 0 0
3.05301 0.909036 -1.909601 -0.625523336 -0.718326798 -0.30451136 0 0
3.022001 0.909036 -1.85313 -0.592624591 -0.718329808 -0.364415122 0 0
2.868448 0.909036 -2.010947 0.592624591 -0.718329808 0.364415122 0 0
2.871495 0.909036 -2.015397 0.523523965 -0.729833409 0.439620124 0 0
2.855151 0.909036 -1.866683 0.606522002 -0.729826475 -0.315411442 0 0
2.853143 0.909036 -1.871689 0.657625763 -0.718328141 -0.227008893 0 0
2.834147 0.909036 -1.938847 0.68103898 -0.729841774 -0.0593033943 0 0
2.834208 0.909036 -1.94424 0.679481535 -0.729880166 0.0746979701 0 0
2.967662 0.909036 -2.039824 -0.30451136 -0.718326798 0.625523336 0 0
3.024133 0.909036 -2.008815 -0.364415122 -0.718329808 0.592624591 0 0
3.056302 0.909036 -1.92523 -0.68103898 -0.729841774 0.0593033943 0 0
2.861866 0.909036 -1.858309 0.439620124 -0.729833409 -0.523523965 0 0
3.005574 0.909036 -1.839957 -0.227008893 -0.718328141 -0.657625763 0 0
2.837439 0.909036 -1.954476 0.625523336 -0.718326798 0.30451136 0 0
2.952033 0.909036 -2.043117 0.059299066 -0.729888504 0.680989275 0 0
2.938416 0.909036 -1.820961 -0.0593033943 -0.729841774 -0.68103898 0 0
3.037306 0.909036 -1.992389 -0.657625763 -0.718328141 0.227008893 0 0
3.018954 0.909036 -1.84868 -0.523523965 -0.729833409 -0.439620124 0 0
2.835139 0.909036 -1.933546 0.67672445 -0.718325954 -0.161405832 0 0
2.875351 0.909036 -2.019167 0.427680714 -0.729867087 0.533275952 0 0
3.028583 0.909036 -2.005768 -0.439620124 -0.729833409 0.523523965 0 0
2.858096 0.909036 -1.862166 0.533314874 -0.729820355 -0.427711929 0 0
3.05531 0.909036 -1.930531 -0.67672445 -0.718325954 0.161405832 0 0
2.943717 0.909036 -1.821953 -0.161405832 -0.718325954 -0.67672445 0 0
2.946732 0.909036 -2.042124 0.161405832 -0.718325954 0.67672445 0 0
2.83532 0.909036 -1.949517 0.651921093 -0.729823614 0.205806659 0 0
3.022001 0.912149 -1.85313 -0.611499178 -0.696199064 -0.375999494 0 0
3.018954 0.912149 -1.84868 -0.557400875 -0.685701077 -0.468100735 0 0
2.871495 0.912149 -2.015397 0.557400875 -0.685701077 0.468100735 0 0
2.875351 0.912149 -2.019167 0.45540672 -0.685710118 0.567808378 0 0
2.853143 0.912149 -1.871689 0.67853178 -0.696232609 -0.23421097 0 0
2.835139 0.912149 -1.933546 0.698234937 -0.696234837 -0.166508331 0 0
2.834147 0.912149 -1.938847 0.725123164 -0.685721906 -0.0631020158 0 0
3.024133 0.912149 -2.008815 -0.375999494 -0.696199064 0.611499178 0 0
3.028583 0.912149 -2.005768 -0.468100735 -0.685701077 0.557400875 0 0
2.861866 0.912149 -1.858309 0.468100735 -0.685701077 -0.557400875 0 0
2.858096 0.912149 -1.862166 0.567808378 -0.685710118 -0.45540672 0 0
3.05531 0.912149 -1.930531 -0.698234937 -0.696234837 0.166508331 0 0
3.056302 0.912149 -1.92523 -0.725123164 -0.685721906 0.0631020158 0 0
3.005574 0.912149 -1.839957 -0.23421097 -0.696232609 -0.67853178 0 0
2.943717 0.912149 -1.821953 -0.166508331 -0.696234837 -0.698234937 0 0
2.83532 0.912149 -1.949517 0.694112456 -0.685712305 0.219103932 0 0
2.837439 0.912149 -1.954476 0.645413799 -0.696214885 0.314206718 0 0
2.946732 0.912149 -2.042124 0.166508331 -0.696234837 0.698234937 0 0
2.952033 0.912149 -2.043117 0.0631020158 -0.685721906 0.725123164 0 0
2.938416 0.912149 -1.820961 -0.0631020158 -0.685721906 -0.725123164 0 0
3.05513 0.912149 -1.91456 -0.694112456 -0.685712305 -0.219103932 0 0
3.05301 0.912149 -1.909601 -0.645413799 -0.696214885 -0.314206718 0 0
3.015098 0.912149 -1.84491 -0.45540672 -0.685710118 -0.567808378 0 0
2.962703 0.912149 -2.041944 -0.219103932 -0.685712305 0.694112456 0 0
2.967662 0.912149 -2.039824 -0.314206718 -0.696214885 0.645413799 0 0
2.879869 0.912149 -2.022112 0.335821053 -0.685742991 0.645740483 0 0
3.032353 0.912149 -2.001912 -0.567808378 -0.685710118 0.45540672 0 0
2.927746 0.912149 -1.822134 0.219103932 -0.685712305 -0.694112456 0 0
2.922787 0.912149 -1.824253 0.314206718 -0.696214885 -0.645413799 0 0
2.855151 0.912149 -1.866683 0.645798783 -0.685698707 -0.335799367 0 0
3.037306 0.912149 -1.992389 -0.67853178 -0.696232609 0.23421097 0 0
2.834208 0.912149 -1.94424 0.723515559 -0.685714746 0.0795017097 0 0
2.884875 0.912149 -2.02412 0.23421097 -0.696232609 0.67853178 0 0
3.056242 0.912149 -1.919837 -0.723515559 -0.685714746 -0.0795017097 0 0
2.866316 0.912149 -1.855263 0.375999494 -0.696199064 -0.611499178 0 0
3.01058 0.912149 -1.841965 -0.335888086 -0.68567568 -0.645777095 0 0
2.957426 0.912149 -2.043056 -0.0795017097 -0.685714746 0.723515559 0 0
2.933023 0.912149 -1.821022 0.0795017097 -0.685714746 -0.723515559 0 0
3.035298 0.912149 -1.997394 -0.645740483 -0.685742991 0.335821053 0 0
2.868448 0.912149 -2.010947 0.611499178 -0.696199064 0.375999494 0 0
2.945225 0.912149 -1.932039 0 -1 0 0 0
3 0 1 2
3 0 3 1
3 2 4 5
3 2 1 4
3 5 6 7
3 5 4 6
3 7 8 9
3 7 6 8
3 9 10 11
3 9 8 10
3 11 12 13
3 11 10 12
3 13 14 15
3 13 12 14
3 15 16 17
3 15 14 16
3 17 18 19
3 17 16 18
3 19 20 21
3 19 18 20
3 21 22 23
3 21 20 22
3 23 24 25
3 23 22 24
3 25 26 27
3 25 24 26
3 27 28 29
3 27 26 28
3 29 30 31
3 29 28 30
3 31 32 33
3 31 30 32
3 33 34 35
3 33 32 34
3 35 36 37
3 35 34 36
3 37 38 39
3 37 36 38
3 39 40 41
3 39 38 40
3 41 42 43
3 41 40 42
3 43 44 45
3 43 42 44
3 45 46 47
3 45 44 46
3 47 48 49
3 47 46 48
3 49 50 51
3 49 48 50
3 51 52 53
3 51 50 52
3 53 54 55
3 53 52 54
3 55 56 57
3 55 54 56
3 57 58 59
3 57 56 58
3 59 60 61
3 59 58 60
3 61 62 63
3 61 60 62
3 63 64 65
3 63 62 64
3 65 66 67
3 65 64 66
3 67 68 69
3 67 66 68
3 69 70 71
3 69 68 70
3 71 72 73
3 71 70 72
3 73 74 75
3 73 72 74
3 76 3 0
3 76 77 3
3 78 77 76
3 78 79 77
3 75 79 78
3 75 74 79
3 80 81 82
3 80 83 81
3 82 84 85
3 82 81 84
3 85 86 87
3 85 84 86
3 87 88 89
3 87 86 88
3 89 90 91
3 89 88 90
3 91 92 93
3 91 90 92
3 93 94 95
3 93 92 94
3 95 96 97
3 95 94 96
3 97 98 99
3 97 96 98
3 99 100 101
3 99 98 100
3 101 102 103
3 101 100 102
3 103 104 105
3 103 102 104
3 105 106 107
3 105 104 106
3 107 108 109
3 107 106 108
3 109 110 111
3 109 108 110
3 111 112 113
3 111 110 112
3 113 114 115
3 113 112 114
3 115 116 117
3 115 114 116
3 117 118 119
3 117 116 118
3 119 120 121
3 119 118 120
3 121 122 123
3 121 120 122
3 123 124 125
3 123 122 124
3 125 126 127
3 125 124 126
3 127 128 129
3 127 126 128
3 129 130 131
3 129 128 130
3 131 132 133
3 131 130 132
3 133 134 135
3 133 132 134
3 135 136 137
3 135 134 136
3 137 138 139
3 137 136 138
3 139 140 141
3 139 138 140
3 141 142 143
3 141 140 142
3 143 144 145
3 143 142 144
3 145 146 147
3 145 144 146
3 147 148 149
3 147 146 148
3 149 150 151
3 149 148 150
3 151 152 153
3 151 150 152
3 153 154 155
3 153 152 154
3 156 83 80
3 156 157 83
3 158 157 156
3 158 159 157
3 155 159 158
3 155 154 159
3 83 160 81
3 83 161 160
3 81 162 84
3 81 160 162
3 84 163 86
3 84 162 163
3 86 164 88
3 86 163 164
3 88 165 90
3 88 164 165
3 90 166 92
3 90 165 166
3 92 167 94
3 92 166 167
3 94 168 96
3 94 167 168
3 96 169 98
3 96 168 169
3 98 170 100
3 98 169 170
3 100 171 102
3 100 170 171
3 102 172 104
3 102 171 172
3 104 173 106
3 104 172 173
3 106 174 108
3 106 173 174
3 108 175 110
3 108 174 175
3 110 176 112
3 110 175 176
3 112 177 114
3 112 176 177
3 114 178 116
3 114 177 178
3 116 179 118
3 116 178 179
3 118 180 120
3 118 179 180
3 120 181 122
3 120 180 181
3 122 182 124
3 122 181 182
3 124 183 126
3 124 182 183
3 126 184 128
3 126 183 184
3 128 185 130
3 128 184 185
3 130 186 132
3 130 185 186
3 132 187 134
3 132 186 187
3 134 188 136
3 134 187 188
3 136 189 138
3 136 188 189
3 138 190 140
3 138 189 190
3 140 191 142
3 140 190 191
3 142 192 144
3 142 191 192
3 144 193 146
3 144 192 193
3 146 194 148
3 146 193 194
3 148 195 150
3 148 194 195
3 150 196 152
3 150 195 196
3 152 197 154
3 152 196 197
3 157 161 83
3 157 198 161
3 159 198 157
3 159 199 198
3 154 199 159
3 154 197 199
3 200 201 202
3 203 201 204
3 205 201 206
3 207 201 208
3 209 201 210
3 211 201 212
3 213 201 214
3 215 201 216
3 217 201 218
3 219 201 220
3 221 201 222
3 223 201 224
3 204 201 225
3 202 201 226
3 206 201 227
3 210 201 228
3 208 201 229
3 212 201 230
3 214 201 231
3 218 201 232
3 216 201 233
3 220 201 207
3 222 201 234
3 224 201 235
3 226 201 236
3 225 201 237
3 227 201 238
3 229 201 239
3 228 201 240
3 230 201 203
3 231 201 200
3 232 201 209
3 233 201 205
3 234 201 211
3 235 201 213
3 237 201 217
3 236 201 215
3 238 201 219
3 240 201 223
3 239 201 221
3 241 242 243
3 241 244 242
3 245 246 247
3 245 248 246
3 249 250 251
3 249 252 250
3 253 254 255
3 253 256 254
3 257 258 259
3 257 260 258
3 261 260 257
3 261 262 260
3 263 264 265
3 263 266 264
3 267 268 269
3 267 270 268
3 271 272 273
3 271 274 272
3 275 276 277
3 275 278 276
3 279 280 281
3 279 282 280
3 283 284 285
3 283 286 284
3 247 278 275
3 247 246 278
3 287 288 289
3 287 290 288
3 291 252 249
3 291 292 252
3 293 294 295
3 293 296 294
3 297 256 253
3 297 298 256
3 299 300 301
3 299 302 300
3 303 266 263
3 303 304 266
3 305 274 271
3 305 306 274
3 269 244 241
3 269 268 244
3 281 307 308
3 281 280 307
3 285 309 310
3 285 284 309
3 289 311 312
3 289 288 311
3 313 302 299
3 313 314 302
3 315 292 291
3 315 316 292
3 310 298 297
3 310 309 298
3 295 317 318
3 295 294 317
3 301 248 245
3 301 300 248
3 243 304 303
3 243 242 304
3 251 290 287
3 251 250 290
3 259 306 305
3 259 258 306
3 255 319 320
3 255 254 319
3 308 262 261
3 308 307 262
3 265 296 293
3 265 264 296
3 273 314 313
3 273 272 314
3 312 270 267
3 312 311 270
3 277 316 315
3 277 276 316
3 318 286 283
3 318 317 286
3 320 282 279
3 320 319 282
3 316 321 292
3 316 322 321
3 309 323 298
3 309 324 323
3 294 325 317
3 294 326 325
3 300 327 248
3 300 328 327
3 242 329 304
3 242 330 329
3 250 331 290
3 250 332 331
3 258 333 306
3 258 334 333
3 254 335 319
3 254 336 335
3 264 337 296
3 264 338 337
3 307 339 262
3 307 340 339
3 272 341 314
3 272 342 341
3 311 343 270
3 311 344 343
3 276 322 316
3 276 345 322
3 319 346 282
3 319 335 346
3 317 347 286
3 317 325 347
3 244 330 242
3 244 348 330
3 248 349 246
3 248 327 349
3 252 332 250
3 252 350 332
3 256 336 254
3 256 351 336
3 260 334 258
3 260 352 334
3 262 352 260
3 262 339 352
3 266 338 264
3 266 353 338
3 274 342 272
3 274 354 342
3 270 355 268
3 270 343 355
3 278 345 276
3 278 356 345
3 282 357 280
3 282 346 357
3 286 358 284
3 286 347 358
3 246 356 278
3 246 349 356
3 290 359 288
3 290 331 359
3 292 350 252
3 292 321 350
3 298 351 256
3 298 323 351
3 296 326 294
3 296 337 326
3 304 353 266
3 304 329 353
3 302 328 300
3 302 360 328
3 306 354 274
3 306 333 354
3 268 348 244
3 268 355 348
3 280 340 307
3 280 357 340
3 284 324 309
3 284 358 324
3 314 360 302
3 314 341 360
3 288 344 311
3 288 359 344
3 353 361 338
3 353 362 361
3 339 363 352
3 339 364 363
3 343 365 355
3 343 366 365
3 354 367 342
3 354 368 367
3 356 369 345
3 356 370 369
3 346 371 357
3 346 372 371
3 347 373 358
3 347 374 373
3 349 370 356
3 349 375 370
3 331 376 359
3 331 377 376
3 321 378 350
3 321 379 378
3 323 380 351
3 323 381 380
3 337 382 326
3 337 383 382
3 360 384 328
3 360 385 384
3 329 362 353
3 329 386 362
3 333 368 354
3 333 387 368
3 355 388 348
3 355 365 388
3 358 389 324
3 358 373 389
3 357 390 340
3 357 371 390
3 341 385 360
3 341 391 385
3 359 392 344
3 359 376 392
3 322 379 321
3 322 393 379
3 324 381 323
3 324 389 381
3 326 394 325
3 326 382 394
3 328 395 327
3 328 384 395
3 330 386 329
3 330 396 386
3 332 377 331
3 332 397 377
3 336 398 335
3 336 399 398
3 334 387 333
3 334 400 387
3 340 364 339
3 340 390 364
3 338 383 337
3 338 361 383
3 342 391 341
3 342 367 391
3 344 366 343
3 344 392 366
3 345 393 322
3 345 369 393
3 325 374 347
3 325 394 374
3 335 372 346
3 335 398 372
3 327 375 349
3 327 395 375
3 348 396 330
3 348 388 396
3 350 397 332
3 350 378 397
3 351 399 336
3 351 380 399
3 352 400 334
3 352 363 400
3 391 401 385
3 391 402 401
3 376 403 392
3 376 404 403
3 393 405 379
3 393 406 405
3 382 407 394
3 382 408 407
3 389 409 381
3 389 410 409
3 384 411 395
3 384 412 411
3 396 413 386
3 396 414 413
3 397 415 377
3 397 416 415
3 399 417 398
3 399 418 417
3 400 419 387
3 400 420 419
3 390 421 364
3 390 422 421
3 361 423 383
3 361 424 423
3 392 425 366
3 392 403 425
3 367 402 391
3 367 426 402
3 369 406 393
3 369 427 406
3 398 428 372
3 398 417 428
3 394 429 374
3 394 407 429
3 395 430 375
3 395 411 430
3 388 414 396
3 388 431 414
3 378 416 397
3 378 432 416
3 363 420 400
3 363 433 420
3 380 418 399
3 380 434 418
3 364 433 363
3 364 421 433
3 362 424 361
3 362 435 424
3 368 426 367
3 368 436 426
3 366 437 365
3 366 425 437
3 370 427 369
3 370 438 427
3 374 439 373
3 374 429 439
3 372 440 371
3 372 428 440
3 377 404 376
3 377 415 404
3 375 438 370
3 375 430 438
3 379 432 378
3 379 405 432
3 381 434 380
3 381 409 434
3 383 408 382
3 383 423 408
3 385 412 384
3 385 401 412
3 386 435 362
3 386 413 435
3 365 431 388
3 365 437 431
3 387 436 368
3 387 419 436
3 371 422 390
3 371 440 422
3 373 410 389
3 373 439 410
3 432 441 416
3 432 442 441
3 434 443 418
3 434 444 443
3 433 445 420
3 433 446 445
3 421 446 433
3 421 447 446
3 435 448 424
3 435 449 448
3 436 450 426
3 436 451 450
3 425 452 437
3 425 453 452
3 438 454 427
3 438 455 454
3 428 456 440
3 428 457 456
3 429 458 439
3 429 459 458
3 430 455 438
3 430 460 455
3 415 461 404
3 415 462 461
3 405 442 432
3 405 463 442
3 423 464 408
3 423 465 464
3 409 444 434
3 409 466 444
3 413 449 435
3 413 467 449
3 401 468 412
3 401 469 468
3 419 451 436
3 419 470 451
3 437 471 431
3 437 452 471
3 440 472 422
3 440 456 472
3 439 473 410
3 439 458 473
3 404 474 403
3 404 461 474
3 402 469 401
3 402 475 469
3 406 463 405
3 406 476 463
3 410 466 409
3 410 473 466
3 408 477 407
3 408 464 477
3 412 478 411
3 412 468 478
3 414 467 413
3 414 479 467
3 416 462 415
3 416 441 462
3 420 470 419
3 420 445 470
3 418 480 417
3 418 443 480
3 422 447 421
3 422 472 447
3 424 465 423
3 424 448 465
3 426 475 402
3 426 450 475
3 403 453 425
3 403 474 453
3 427 476 406
3 427 454 476
3 417 457 428
3 417 480 457
3 407 459 429
3 407 477 459
3 431 479 414
3 431 471 479
3 411 460 430
3 411 478 460
3 458 481 473
3 456 481 472
3 475 481 469
3 461 481 474
3 476 481 463
3 473 481 466
3 464 481 477
3 479 481 467
3 468 481 478
3 441 481 462
3 443 481 480
3 445 481 470
3 472 481 447
3 448 481 465
3 450 481 475
3 474 481 453
3 454 481 476
3 480 481 457
3 477 481 459
3 478 481 460
3 471 481 479
3 442 481 441
3 444 481 443
3 446 481 445
3 449 481 448
3 447 481 446
3 451 481 450
3 453 481 452
3 455 481 454
3 457 481 456
3 459 481 458
3 460 481 455
3 462 481 461
3 463 481 442
3 466 481 444
3 465 481 464
3 469 481 468
3 467 481 449
3 470 481 451
3 452 481 471
