ply
format ascii 1.0
element vertex 144
property float x
property float y
property float z
property float nx
property float ny
property float nz
property float u
property float v
element face 160
property list uchar int vertex_indices
end_header
1.243167 0.942048 -1.286036 -0.23130313 0.961013003 0.15150205 0.062939 1.002131
1.230646 0.934771 -1.258999 -0.195204583 0.975422903 0.1022024 0.290147 0.930194
1.249999 0.942048 -1.275557 -0.246803055 0.959811883 0.133601654 0.02443 0.94176
1.223324 0.934771 -1.270123 -0.18059002 0.976346044 0.11889343 0.331905 1.001214
1.235762 0.934771 -1.246707 -0.216895265 0.973278754 0.0753983541 0.274472 0.856566
1.254655 0.942048 -1.263947 -0.276008167 0.955928286 0.100102962 0.011278 0.879103
1.271221 0.934771 -1.124879 -0.223495259 0.973279352 0.052698882 0.274754 0.151009
1.296414 0.942048 -1.120471 -0.286610128 0.955933778 0.0636022474 0.011532 0.128457
1.2735 0.934771 -1.111762 -0.21950794 0.975435282 0.0185006692 0.290459 0.077395
1.298716 0.942048 -1.108176 -0.279999422 0.959798018 0.0196999593 0.024739 0.065788
1.273292 0.934771 -1.098446 -0.216188006 0.976345834 -0.00339981138 0.332273 0.006391
1.298575 0.942048 -1.095668 -0.276501806 0.961006275 -0.00370002416 0.063309 0.005415
1.182497 0.925386 -1.217802 -0.133004458 0.988633135 0.0701023495 0.930481 0.885576
1.173957 0.925386 -1.230532 -0.122796487 0.989071708 0.0815976659 0.980366 0.99608
1.188758 0.925386 -1.203814 -0.15010578 0.987338018 0.0513019754 0.90807 0.770938
1.20854 0.925386 -1.135847 -0.154205955 0.987338127 0.0372014366 0.907867 0.236709
1.210763 0.925386 -1.120685 -0.149806079 0.98864012 0.0122004951 0.930388 0.122129
1.210389 0.925386 -1.10536 -0.147395978 0.989073014 -0.00299991815 0.980366 0.011683
1.012776 0.942048 -0.86647 0.0564005513 0.961009394 -0.270702646 0.062939 1.002131
1.002511 0.934771 -0.894442 0.0657030983 0.975445998 -0.210209913 0.290147 0.930194
1.000536 0.942048 -0.869049 0.0800009184 0.959811019 -0.269003088 0.02443 0.94176
1.015554 0.934771 -0.891753 0.0435983692 0.97636348 -0.211692082 0.331905 1.001214
0.990202 0.934771 -0.899516 0.0999981111 0.973281615 -0.206696096 0.274472 0.856566
0.989034 0.942048 -0.873966 0.124401482 0.95591139 -0.266003169 0.011278 0.879103
0.878984 0.934771 -0.960588 0.120797124 0.973276827 -0.19529535 0.274754 0.151009
0.858052 0.942048 -0.94589 0.157702414 0.95591463 -0.247703791 0.011532 0.128457
0.868097 0.934771 -0.968251 0.14210551 0.975437818 -0.168306525 0.290459 0.077395
0.84773 0.942048 -0.952957 0.184099037 0.95979498 -0.211898892 0.024739 0.065788
0.858829 0.934771 -0.977814 0.155305433 0.976334158 -0.150505266 0.332273 0.006391
0.838986 0.942048 -0.961901 0.198198548 0.960992961 -0.192898587 0.063309 0.005415
1.007427 0.925386 -0.957619 0.0445015315 0.988634024 -0.143604942 0.930481 0.885576
1.022468 0.925386 -0.954656 0.0290993326 0.989077316 -0.144496686 0.980366 0.99608
0.99311 0.925386 -0.963083 0.0698031032 0.987343893 -0.142406331 0.90807 0.770938
0.931062 0.925386 -0.997154 0.0827038595 0.987346076 -0.135306314 0.907867 0.236709
0.918768 0.925386 -1.006303 0.0973033857 0.9886344 -0.114603988 0.930388 0.122129
0.908196 0.925386 -1.017405 0.106297719 0.98907878 -0.10209781 0.980366 0.011683
0.838986 0.942048 -0.961901 0.23130313 0.961013003 -0.15150205 0.062939 1.002131
0.851507 0.934771 -0.988938 0.195204583 0.975422903 -0.1022024 0.290147 0.930194
0.832154 0.942048 -0.97238 0.246803055 0.959811883 -0.133601654 0.02443 0.94176
0.858829 0.934771 -0.977814 0.18059002 0.976346044 -0.11889343 0.331905 1.001214
0.846391 0.934771 -1.00123 0.216895265 0.973278754 -0.0753983541 0.274472 0.856566
0.827498 0.942048 -0.983989 0.276008167 0.955928286 -0.100102962 0.011278 0.879103
0.810932 0.934771 -1.123057 0.223495259 0.973279352 -0.052698882 0.274754 0.151009
0.785738 0.942048 -1.127466 0.286610128 0.955933778 -0.0636022474 0.011532 0.128457
0.808653 0.934771 -1.136175 0.21950794 0.975435282 -0.0185006692 0.290459 0.077395
0.783437 0.942048 -1.139761 0.279999422 0.959798018 -0.0196999593 0.024739 0.065788
0.808861 0.934771 -1.14949 0.216188006 0.976345834 0.00339981138 0.332273 0.006391
0.783578 0.942048 -1.152269 0.276501806 0.961006275 0.00370002416 0.063309 0.005415
0.899656 0.925386 -1.030135 0.133004458 0.988633135 -0.0701023495 0.930481 0.885576
0.908196 0.925386 -1.017405 0.122796487 0.989071708 -0.0815976659 0.980366 0.99608
0.893395 0.925386 -1.044123 0.15010578 0.987338018 -0.0513019754 0.90807 0.770938
0.873613 0.925386 -1.112089 0.154205955 0.987338127 -0.0372014366 0.907867 0.236709
0.871389 0.925386 -1.127252 0.149806079 0.98864012 -0.0122004951 0.930388 0.122129
0.871764 0.925386 -1.142577 0.147395978 0.989073014 0.00299991815 0.980366 0.011683
1.203144 0.942048 -0.921878 -0.15150205 0.961013003 -0.23130313 0.062939 1.002131
1.176107 0.934771 -0.934399 -0.1022024 0.975422903 -0.195204583 0.290147 0.930194
1.192665 0.942048 -0.915046 -0.133601654 0.959811883 -0.246803055 0.02443 0.94176
1.187231 0.934771 -0.941721 -0.118905038 0.976341368 -0.180607653 0.331905 1.001214
1.163815 0.934771 -0.929283 -0.0753983541 0.973278754 -0.216895265 0.274472 0.856566
1.181055 0.942048 -0.91039 -0.100102962 0.955928286 -0.276008167 0.011278 0.879103
1.041987 0.934771 -0.893824 -0.052698882 0.973279352 -0.223495259 0.274754 0.151009
1.037579 0.942048 -0.86863 -0.0636022474 0.955933778 -0.286610128 0.011532 0.128457
1.02887 0.934771 -0.891545 -0.0185006692 0.975435282 -0.21950794 0.290459 0.077395
1.025284 0.942048 -0.866329 -0.0196999593 0.959798018 -0.279999422 0.024739 0.065788
1.015554 0.934771 -0.891753 0.00340014334 0.976341159 -0.216209114 0.332273 0.006391
1.012776 0.942048 -0.86647 0.00370002416 0.961006275 -0.276501806 0.063309 0.005415
1.13491 0.925386 -0.982548 -0.0701023495 0.988633135 -0.133004458 0.930481 0.885576
1.14764 0.925386 -0.991088 -0.0815976659 0.989071708 -0.122796487 0.980366 0.99608
1.120922 0.925386 -0.976287 -0.0513019754 0.987338018 -0.15010578 0.90807 0.770938
1.052955 0.925386 -0.956505 -0.0372014366 0.987338127 -0.154205955 0.907867 0.236709
1.037793 0.925386 -0.954281 -0.0122004951 0.98864012 -0.149806079 0.930388 0.122129
1.022468 0.925386 -0.954656 0.00299991815 0.989073014 -0.147395978 0.980366 0.011683
1.298575 0.942048 -1.095668 -0.270702646 0.961009394 -0.0564005513 0.062939 1.002131
1.270603 0.934771 -1.085404 -0.210209913 0.975445998 -0.0657030983 0.290147 0.930194
1.295996 0.942048 -1.083428 -0.269003088 0.959811019 -0.0800009184 0.02443 0.94176
1.273292 0.934771 -1.098447 -0.211692082 0.97636348 -0.0435983692 0.331905 1.001214
1.265529 0.934771 -1.073095 -0.206696096 0.973281615 -0.0999981111 0.274472 0.856566
1.291079 0.942048 -1.071926 -0.266006477 0.955923277 -0.124303027 0.011278 0.879103
1.204457 0.934771 -0.961876 -0.19529535 0.973276827 -0.120797124 0.274754 0.151009
1.219155 0.942048 -0.940944 -0.247703791 0.95591463 -0.157702414 0.011532 0.128457
1.196794 0.934771 -0.950989 -0.168306525 0.975437818 -0.14210551 0.290459 0.077395
1.212088 0.942048 -0.930623 -0.211898892 0.95979498 -0.184099037 0.024739 0.065788
1.187231 0.934771 -0.941721 -0.150505266 0.976334158 -0.155305433 0.332273 0.006391
1.203144 0.942048 -0.921878 -0.192902409 0.961012003 -0.198102474 0.063309 0.005415
1.207426 0.925386 -1.090319 -0.143604942 0.988634024 -0.0445015315 0.930481 0.885576
1.210389 0.925386 -1.10536 -0.144496686 0.989077316 -0.0290993326 0.980366 0.99608
1.201962 0.925386 -1.076002 -0.142406331 0.987343893 -0.0698031032 0.90807 0.770938
1.167891 0.925386 -1.013954 -0.135306314 0.987346076 -0.0827038595 0.907867 0.236709
1.158742 0.925386 -1.00166 -0.114603988 0.9886344 -0.0973033857 0.930388 0.122129
1.14764 0.925386 -0.991088 -0.10209781 0.98907878 -0.106297719 0.980366 0.011683
1.069377 0.942048 -1.381467 -0.0564005513 0.961009394 0.270702646 0.062939 1.002131
1.079641 0.934771 -1.353495 -0.0657030983 0.975445998 0.210209913 0.290147 0.930194
1.081617 0.942048 -1.378888 -0.0800009184 0.959811019 0.269003088 0.02443 0.94176
1.066598 0.934771 -1.356184 -0.0435983692 0.97636348 0.211692082 0.331905 1.001214
1.091951 0.934771 -1.348421 -0.0999981111 0.973281615 0.206696096 0.274472 0.856566
1.093119 0.942048 -1.373971 -0.124401482 0.95591139 0.266003169 0.011278 0.879103
1.203169 0.934771 -1.287349 -0.120797124 0.973276827 0.19529535 0.274754 0.151009
1.224101 0.942048 -1.302047 -0.157702414 0.95591463 0.247703791 0.011532 0.128457
1.214056 0.934771 -1.279686 -0.14210551 0.975437818 0.168306525 0.290459 0.077395
1.234422 0.942048 -1.29498 -0.184099037 0.95979498 0.211898892 0.024739 0.065788
1.223324 0.934771 -1.270123 -0.155305433 0.976334158 0.150505266 0.332273 0.006391
1.243167 0.942048 -1.286036 -0.198102474 0.961012003 0.192902409 0.063309 0.005415
1.074726 0.925386 -1.290318 -0.0445015315 0.988634024 0.143604942 0.930481 0.885576
1.059685 0.925386 -1.293281 -0.0290993326 0.989077316 0.144496686 0.980366 0.99608
1.089043 0.925386 -1.284854 -0.0698031032 0.987343893 0.142406331 0.90807 0.770938
1.151091 0.925386 -1.250783 -0.0827038595 0.987346076 0.135306314 0.907867 0.236709
1.163385 0.925386 -1.241634 -0.0973033857 0.9886344 0.114603988 0.930388 0.122129
1.173957 0.925386 -1.230532 -0.106297719 0.98907878 0.10209781 0.980366 0.011683
0.879009 0.942048 -1.326059 0.15150205 0.961013003 0.23130313 0.062939 1.002131
0.906046 0.934771 -1.313538 0.1022024 0.975422903 0.195204583 0.290147 0.930194
0.889488 0.942048 -1.332891 0.133601654 0.959811883 0.246803055 0.02443 0.94176
0.894922 0.934771 -1.306216 0.118905038 0.976341368 0.180607653 0.331905 1.001214
0.918338 0.934771 -1.318654 0.0753983541 0.973278754 0.216895265 0.274472 0.856566
0.901097 0.942048 -1.337547 0.100102962 0.955928286 0.276008167 0.011278 0.879103
1.040165 0.934771 -1.354113 0.052698882 0.973279352 0.223495259 0.274754 0.151009
1.044574 0.942048 -1.379307 0.0636022474 0.955933778 0.286610128 0.011532 0.128457
1.053283 0.934771 -1.356392 0.0185006692 0.975435282 0.21950794 0.290459 0.077395
1.056869 0.942048 -1.381608 0.0196999593 0.959798018 0.279999422 0.024739 0.065788
1.066598 0.934771 -1.356184 -0.00339981138 0.976345834 0.216188006 0.332273 0.006391
1.069377 0.942048 -1.381467 -0.00370002416 0.961006275 0.276501806 0.063309 0.005415
0.947243 0.925386 -1.265389 0.0701023495 0.988633135 0.133004458 0.930481 0.885576
0.934513 0.925386 -1.256849 0.0815976659 0.989071708 0.122796487 0.980366 0.99608
0.96123 0.925386 -1.27165 0.0513019754 0.987338018 0.15010578 0.90807 0.770938
1.029197 0.925386 -1.291432 0.0372014366 0.987338127 0.154205955 0.907867 0.236709
1.04436 0.925386 -1.293656 0.0122004951 0.98864012 0.149806079 0.930388 0.122129
1.059685 0.925386 -1.293281 -0.00299991815 0.989073014 0.147395978 0.980366 0.011683
0.783578 0.942048 -1.152269 0.270702646 0.961009394 0.0564005513 0.062939 1.002131
0.81155 0.934771 -1.162533 0.210209913 0.975445998 0.0657030983 0.290147 0.930194
0.786156 0.942048 -1.164509 0.269003088 0.959811019 0.0800009184 0.02443 0.94176
0.808861 0.934771 -1.14949 0.211692082 0.97636348 0.0435983692 0.331905 1.001214
0.816624 0.934771 -1.174843 0.206696096 0.973281615 0.0999981111 0.274472 0.856566
0.791074 0.942048 -1.176011 0.266006477 0.955923277 0.124303027 0.011278 0.879103
0.877696 0.934771 -1.286061 0.19529535 0.973276827 0.120797124 0.274754 0.151009
0.862998 0.942048 -1.306993 0.247703791 0.95591463 0.157702414 0.011532 0.128457
0.885359 0.934771 -1.296948 0.168306525 0.975437818 0.14210551 0.290459 0.077395
0.870065 0.942048 -1.317314 0.211898892 0.95979498 0.184099037 0.024739 0.065788
0.894922 0.934771 -1.306216 0.150490572 0.976338834 0.155290271 0.332273 0.006391
0.879009 0.942048 -1.326059 0.192902409 0.961012003 0.198102474 0.063309 0.005415
0.874727 0.925386 -1.157618 0.143604942 0.988634024 0.0445015315 0.930481 0.885576
0.871764 0.925386 -1.142577 0.144496686 0.989077316 0.0290993326 0.980366 0.99608
0.88019 0.925386 -1.171935 0.142406331 0.987343893 0.0698031032 0.90807 0.770938
0.914262 0.925386 -1.233983 0.135306314 0.987346076 0.0827038595 0.907867 0.236709
0.923411 0.925386 -1.246277 0.114603988 0.9886344 0.0973033857 0.930388 0.122129
0.934513 0.925386 -1.256849 0.10209781 0.98907878 0.106297719 0.980366 0.011683
3 0 1 2
3 0 3 1
3 2 4 5
3 2 1 4
3 5 6 7
3 5 4 6
3 7 8 9
3 7 6 8
3 9 10 11
3 9 8 10
3 3 12 1
3 3 13 12
3 1 14 4
3 1 12 14
3 4 15 6
3 4 14 15
3 6 16 8
3 6 15 16
3 8 17 10
3 8 16 17
3 18 19 20
3 18 21 19
3 20 22 23
3 20 19 22
3 23 24 25
3 23 22 24
3 25 26 27
3 25 24 26
3 27 28 29
3 27 26 28
3 21 30 19
3 21 31 30
3 19 32 22
3 19 30 32
3 22 33 24
3 22 32 33
3 24 34 26
3 24 33 34
3 26 35 28
3 26 34 35
3 36 37 38
3 36 39 37
3 38 40 41
3 38 37 40
3 41 42 43
3 41 40 42
3 43 44 45
3 43 42 44
3 45 46 47
3 45 44 46
3 39 48 37
3 39 49 48
3 37 50 40
3 37 48 50
3 40 51 42
3 40 50 51
3 42 52 44
3 42 51 52
3 44 53 46
3 44 52 53
3 54 55 56
3 54 57 55
3 56 58 59
3 56 55 58
3 59 60 61
3 59 58 60
3 61 62 63
3 61 60 62
3 63 64 65
3 63 62 64
3 57 66 55
3 57 67 66
3 55 68 58
3 55 66 68
3 58 69 60
3 58 68 69
3 60 70 62
3 60 69 70
3 62 71 64
3 62 70 71
3 72 73 74
3 72 75 73
3 74 76 77
3 74 73 76
3 77 78 79
3 77 76 78
3 79 80 81
3 79 78 80
3 81 82 83
3 81 80 82
3 75 84 73
3 75 85 84
3 73 86 76
3 73 84 86
3 76 87 78
3 76 86 87
3 78 88 80
3 78 87 88
3 80 89 82
3 80 88 89
3 90 91 92
3 90 93 91
3 92 94 95
3 92 91 94
3 95 96 97
3 95 94 96
3 97 98 99
3 97 96 98
3 99 100 101
3 99 98 100
3 93 102 91
3 93 103 102
3 91 104 94
3 91 102 104
3 94 105 96
3 94 104 105
3 96 106 98
3 96 105 106
3 98 107 100
3 98 106 107
3 108 109 110
3 108 111 109
3 110 112 113
3 110 109 112
3 113 114 115
3 113 112 114
3 115 116 117
3 115 114 116
3 117 118 119
3 117 116 118
3 111 120 109
3 111 121 120
3 109 122 112
3 109 120 122
3 112 123 114
3 112 122 123
3 114 124 116
3 114 123 124
3 116 125 118
3 116 124 125
3 126 127 128
3 126 129 127
3 128 130 131
3 128 127 130
3 131 132 133
3 131 130 132
3 133 134 135
3 133 132 134
3 135 136 137
3 135 134 136
3 129 138 127
3 129 139 138
3 127 140 130
3 127 138 140
3 130 141 132
3 130 140 141
3 132 142 134
3 132 141 142
3 134 143 136
3 134 142 143
