ply
format ascii 1.0
element vertex 400
property float x
property float y
property float z
property float nx
property float ny
property float nz
property float u
property float v
element face 560
property list uchar int vertex_indices
end_header
1.300523 0.941035 -1.082708 0.694112456 0.685712305 0.219103932 0 0
1.298318 0.941035 -1.095696 -0.12970645 0.991449306 -0.0143007112 0 0
1.295741 0.941035 -1.083468 -0.127501793 0.99111394 -0.0379005331 0 0
1.303148 0.941035 -1.095165 0.723515559 0.685714746 0.0795017097 0 0
0.98811 0.941035 -0.869526 -0.314206718 0.696214885 0.645413799 0 0
0.858235 0.941035 -0.946068 0.0772991725 0.989589407 -0.1213987 0 0
0.854802 0.941035 -0.942728 -0.375999494 0.696199064 0.611499178 0 0
0.989086 0.941035 -0.874215 0.0609001504 0.989602444 -0.130300322 0 0
1.206022 0.941035 -0.918289 0.45540672 0.685710118 0.567808378 0 0
1.192514 0.941035 -0.915255 -0.0634003877 0.991106061 -0.117000715 0 0
1.195357 0.941035 -0.911336 0.335799367 0.685698707 0.645798783 0 0
1.202982 0.941035 -0.92208 -0.0816042533 0.991451676 -0.101805306 0 0
0.886795 0.941035 -1.336601 -0.335799367 0.685698707 -0.645798783 0 0
0.901237 0.941035 -1.337333 0.0490993848 0.989587601 0.135298305 0 0
0.898611 0.941035 -1.34134 -0.23421097 0.696232609 -0.67853178 0 0
0.889639 0.941035 -1.332682 0.0634003877 0.991106061 0.117000715 0 0
1.082337 0.941035 -1.383415 0.219103932 0.685712305 -0.694112456 0 0
1.069349 0.941035 -1.38121 -0.0143007112 0.991449306 0.12970645 0 0
1.081576 0.941035 -1.378634 -0.0379005331 0.99111394 0.127501793 0 0
1.069879 0.941035 -1.38604 0.0795017097 0.685714746 -0.723515559 0 0
0.999816 0.941035 -0.864522 -0.219103932 0.685712305 0.694112456 0 0
1.012804 0.941035 -0.866727 0.0143007112 0.991449306 -0.12970645 0 0
1.000576 0.941035 -0.869303 0.0379005331 0.99111394 -0.127501793 0 0
1.012273 0.941035 -0.861897 -0.0795017097 0.685714746 0.723515559 0 0
1.246756 0.941035 -1.288914 0.567808378 0.685710118 -0.45540672 0 0
1.24979 0.941035 -1.275406 -0.117000715 0.991106061 0.0634003877 0 0
1.253709 0.941035 -1.27825 0.645777095 0.68567568 -0.335888086 0 0
1.242965 0.941035 -1.285874 -0.101805306 0.991451676 0.0816042533 0 0
1.295519 0.941035 -1.071002 0.645413799 0.696214885 0.314206718 0 0
1.218977 0.941035 -0.941127 -0.1213987 0.989589407 -0.0772991725 0 0
1.222317 0.941035 -0.937694 0.611499178 0.696199064 0.375999494 0 0
1.290829 0.941035 -1.071978 -0.130300322 0.989602444 -0.0609001504 0 0
0.859835 0.941035 -1.310243 -0.611499178 0.696199064 -0.375999494 0 0
0.870235 0.941035 -1.317121 0.100499962 0.991099628 0.0872999673 0 0
0.867027 0.941035 -1.320748 -0.557400875 0.685701077 -0.468100735 0 0
0.863176 0.941035 -1.30681 0.1213987 0.989589407 0.0772991725 0 0
0.828444 0.941035 -0.969687 -0.645798783 0.685698707 0.335799367 0 0
0.827711 0.941035 -0.984129 0.135298305 0.989587601 -0.0490993848 0 0
0.823705 0.941035 -0.981503 -0.67853178 0.696232609 0.23421097 0 0
0.832363 0.941035 -0.972531 0.117000715 0.991106061 -0.0634003877 0 0
0.779005 0.941035 -1.152772 -0.723515559 0.685714746 -0.0795017097 0 0
0.783694 0.941035 -1.139745 0.132701659 0.991112394 -0.0093001163 0 0
0.783835 0.941035 -1.152241 0.12970645 0.991449306 0.0143007112 0 0
0.778861 0.941035 -1.140041 -0.725123164 0.685721906 0.0631020158 0 0
1.094043 0.941035 -1.378411 0.314206718 0.696214885 -0.645413799 0 0
1.223918 0.941035 -1.301869 -0.0772991725 0.989589407 0.1213987 0 0
1.227351 0.941035 -1.305209 0.375999494 0.696199064 -0.611499178 0 0
1.093067 0.941035 -1.373721 -0.0609001504 0.989602444 0.130300322 0 0
0.847924 0.941035 -0.953128 0.0872999673 0.991099628 -0.100499962 0 0
0.844297 0.941035 -0.94992 -0.468100735 0.685701077 0.557400875 0 0
1.298459 0.941035 -1.108192 -0.132701659 0.991112394 0.0093001163 0 0
1.303292 0.941035 -1.107895 0.725123164 0.685721906 -0.0631020158 0 0
1.180916 0.941035 -0.910604 -0.0490993848 0.989587601 -0.135298305 0 0
1.183541 0.941035 -0.906597 0.23421097 0.696232609 0.67853178 0 0
1.056853 0.941035 -1.381351 0.00929999284 0.991099237 0.132799898 0 0
1.057149 0.941035 -1.386184 -0.0631020158 0.685721906 -0.725123164 0 0
0.791323 0.941035 -1.175959 0.130300322 0.989602444 0.0609001504 0 0
0.786634 0.941035 -1.176935 -0.645413799 0.696214885 -0.314206718 0 0
1.0253 0.941035 -0.866586 -0.00929999284 0.991099237 -0.132799898 0 0
1.025003 0.941035 -0.861753 0.0631020158 0.685721906 0.725123164 0 0
1.254441 0.941035 -1.263808 -0.135298305 0.989587601 0.0490993848 0 0
1.258448 0.941035 -1.266433 0.67853178 0.696232609 -0.23421097 0 0
1.211917 0.941035 -0.930816 -0.100499962 0.991099628 -0.0872999673 0 0
1.215125 0.941035 -0.927189 0.557400875 0.685701077 0.468100735 0 0
0.879171 0.941035 -1.325857 0.0816042533 0.991451676 0.101805306 0 0
0.876131 0.941035 -1.329648 -0.45540672 0.685710118 -0.567808378 0 0
0.785993 0.941035 -1.127462 0.140498465 0.989589189 -0.0311996591 0 0
0.781204 0.941035 -1.127528 -0.698234937 0.696234837 0.166508331 0 0
1.234229 0.941035 -1.294809 -0.0872999673 0.991099628 0.100499962 0 0
1.237856 0.941035 -1.298017 0.468100735 0.685701077 -0.557400875 0 0
1.296159 0.941035 -1.120475 -0.140498465 0.989589189 0.0311996591 0 0
1.300949 0.941035 -1.120409 0.698234937 0.696234837 -0.166508331 0 0
0.839188 0.941035 -0.962063 0.101805306 0.991451676 -0.0816042533 0 0
0.835397 0.941035 -0.959023 -0.567808378 0.685710118 0.45540672 0 0
1.037583 0.941035 -0.868886 -0.0311996591 0.989589189 -0.140498465 0 0
1.037517 0.941035 -0.864096 0.166508331 0.696234837 0.698234937 0 0
0.786411 0.941035 -1.164469 0.127501793 0.99111394 0.0379005331 0 0
0.781629 0.941035 -1.165229 -0.694112456 0.685712305 -0.219103932 0 0
1.04457 0.941035 -1.379051 0.0311996591 0.989589189 0.140498465 0 0
1.044636 0.941035 -1.383841 -0.166508331 0.696234837 -0.698234937 0 0
1.025003 0.934437 -0.861753 0.0631020158 -0.685721906 0.725123164 0 0
1.013079 0.934437 -0.86923 -0.00859973543 -0.996869332 0.078597582 0 0
1.025453 0.934437 -0.86909 0.00629989309 -0.996783085 0.0798986441 0 0
1.012273 0.934437 -0.861897 -0.0795017097 -0.685714746 0.723515559 0 0
1.258448 0.934437 -1.266433 0.67853178 -0.696232609 -0.23421097 0 0
1.247759 0.934437 -1.273933 0.070798703 -0.996781739 -0.0375993112 0 0
1.253709 0.934437 -1.27825 0.645798783 -0.685698707 -0.335799367 0 0
1.252366 0.934437 -1.262447 0.0804046471 -0.996357586 -0.0284016415 0 0
1.215125 0.934437 -0.927189 0.557400875 -0.685701077 0.468100735 0 0
1.217246 0.934437 -0.942906 0.072304193 -0.99635778 0.0452026214 0 0
1.222317 0.934437 -0.937694 0.611499178 -0.696199064 0.375999494 0 0
1.210255 0.934437 -0.932695 0.0608992981 -0.996788512 0.0519994007 0 0
0.781204 0.934437 -1.127528 -0.698234937 -0.696234837 0.166508331 0 0
0.829787 0.934437 -0.98549 -0.0804046471 -0.996357586 0.0284016415 0 0
0.823705 0.934437 -0.981503 -0.67853178 -0.696232609 0.23421097 0 0
0.788475 0.934437 -1.127428 -0.0831046565 -0.996355827 0.0192010759 0 0
0.876131 0.934437 -1.329648 -0.45540672 -0.685710118 -0.567808378 0 0
0.871897 0.934437 -1.315242 -0.0608992981 -0.996788512 -0.0519994007 0 0
0.867027 0.934437 -1.320748 -0.557400875 -0.685701077 -0.468100735 0 0
0.880746 0.934437 -1.323893 -0.049498348 -0.99686673 -0.0616979409 0 0
0.786198 0.934437 -1.139592 -0.0798986441 -0.996783085 0.00629989309 0 0
0.778861 0.934437 -1.140041 -0.725123164 -0.685721906 0.0631020158 0 0
1.237856 0.934437 -1.298017 0.468100735 -0.685701077 -0.557400875 0 0
1.222139 0.934437 -1.300138 0.0452026214 -0.99635778 -0.072304193 0 0
1.227351 0.934437 -1.305209 0.375999494 -0.696199064 -0.611499178 0 0
1.23235 0.934437 -1.293148 0.0519994007 -0.996788512 -0.0608992981 0 0
0.835397 0.934437 -0.959023 -0.567808378 -0.685710118 0.45540672 0 0
0.849803 0.934437 -0.954789 -0.0519994007 -0.996788512 0.0608992981 0 0
0.844297 0.934437 -0.94992 -0.468100735 -0.685701077 0.557400875 0 0
0.841152 0.934437 -0.963638 -0.0616979409 -0.99686673 0.049498348 0 0
1.300949 0.934437 -1.120409 0.698234937 -0.696234837 -0.166508331 0 0
1.295955 0.934437 -1.108345 0.0798986441 -0.996783085 -0.00629989309 0 0
1.293678 0.934437 -1.120509 0.0831046565 -0.996355827 -0.0192010759 0 0
1.303292 0.934437 -1.107895 0.725123164 -0.685721906 -0.0631020158 0 0
1.044636 0.934437 -1.383841 -0.166508331 -0.696234837 -0.698234937 0 0
1.0567 0.934437 -1.378847 -0.00629989309 -0.996783085 -0.0798986441 0 0
1.044536 0.934437 -1.37657 -0.0192010759 -0.996355827 -0.0831046565 0 0
1.057149 0.934437 -1.386184 -0.0631020158 -0.685721906 -0.725123164 0 0
1.037517 0.934437 -0.864096 0.166508331 -0.696234837 0.698234937 0 0
1.179555 0.934437 -0.912679 0.0284016415 -0.996357586 0.0804046471 0 0
1.183541 0.934437 -0.906597 0.23421097 -0.696232609 0.67853178 0 0
1.037616 0.934437 -0.871367 0.0192010759 -0.996355827 0.0831046565 0 0
0.781629 0.934437 -1.165229 -0.694112456 -0.685712305 -0.219103932 0 0
0.793753 0.934437 -1.175453 -0.0769045552 -0.996359016 -0.0368021799 0 0
0.788888 0.934437 -1.164075 -0.0765988491 -0.996785023 -0.0234996469 0 0
0.786634 0.934437 -1.176935 -0.645413799 -0.696214885 -0.314206718 0 0
1.300523 0.934437 -1.082708 0.694112456 -0.685712305 0.219103932 0 0
1.2884 0.934437 -1.072484 0.0769045552 -0.996359016 0.0368021799 0 0
1.293264 0.934437 -1.083862 0.0765988491 -0.996785023 0.0234996469 0 0
1.295519 0.934437 -1.071002 0.645413799 -0.696214885 0.314206718 0 0
1.082337 0.934437 -1.383415 0.219103932 -0.685712305 -0.694112456 0 0
1.092561 0.934437 -1.371292 0.0368021799 -0.996359016 -0.0769045552 0 0
1.081182 0.934437 -1.376156 0.0234996469 -0.996785023 -0.0765988491 0 0
1.094043 0.934437 -1.378411 0.314206718 -0.696214885 -0.645413799 0 0
1.206022 0.934437 -0.918289 0.45540672 -0.685710118 0.567808378 0 0
1.201407 0.934437 -0.924044 0.049498348 -0.99686673 0.0616979409 0 0
0.886795 0.934437 -1.336601 -0.335799367 -0.685698707 -0.645798783 0 0
0.891112 0.934437 -1.330652 -0.0375993112 -0.996781739 -0.070798703 0 0
0.999816 0.934437 -0.864522 -0.219103932 -0.685712305 0.694112456 0 0
0.989592 0.934437 -0.876645 -0.0368021799 -0.996359016 0.0769045552 0 0
1.00097 0.934437 -0.871781 -0.0234996469 -0.996785023 0.0765988491 0 0
0.98811 0.934437 -0.869526 -0.314206718 -0.696214885 0.645413799 0 0
1.246756 0.934437 -1.288914 0.567808378 -0.685710118 -0.45540672 0 0
1.241001 0.934437 -1.284299 0.0616979409 -0.99686673 -0.049498348 0 0
0.828444 0.934437 -0.969687 -0.645798783 -0.685698707 0.335799367 0 0
0.834393 0.934437 -0.974004 -0.070798703 -0.996781739 0.0375993112 0 0
0.779005 0.934437 -1.152772 -0.723515559 -0.685714746 -0.0795017097 0 0
0.786337 0.934437 -1.151966 -0.078597582 -0.996869332 -0.00859973543 0 0
0.898611 0.934437 -1.34134 -0.23421097 -0.696232609 -0.67853178 0 0
0.902597 0.934437 -1.335258 -0.0284016415 -0.996357586 -0.0804046471 0 0
0.854802 0.934437 -0.942728 -0.375999494 -0.696199064 0.611499178 0 0
0.860014 0.934437 -0.947799 -0.0452026214 -0.99635778 0.072304193 0 0
1.303148 0.934437 -1.095165 0.723515559 -0.685714746 0.0795017097 0 0
1.295815 0.934437 -1.095971 0.078597582 -0.996869332 0.00859973543 0 0
1.069879 0.934437 -1.38604 0.0795017097 -0.685714746 -0.723515559 0 0
1.069074 0.934437 -1.378707 0.00859973543 -0.996869332 -0.078597582 0 0
1.195357 0.934437 -0.911336 0.335799367 -0.685698707 0.645798783 0 0
1.191041 0.934437 -0.917286 0.0375993112 -0.996781739 0.070798703 0 0
0.864906 0.934437 -1.305031 -0.072304193 -0.99635778 -0.0452026214 0 0
0.859835 0.934437 -1.310243 -0.611499178 -0.696199064 -0.375999494 0 0
1.036114 0.920417 -1.228105 0.0327013797 0.725230598 0.687729016 0 0
1.052466 0.916536 -1.227599 -0.0790983002 0.689885175 0.719584536 0 0
1.052466 0.920417 -1.227599 -0.0752009987 0.725209631 0.684409089 0 0
1.036114 0.916536 -1.228105 0.0344020468 0.689841043 0.723143025 0 0
1.092775 0.920417 -1.033435 -0.341407953 0.725216894 -0.597913929 0 0
1.077975 0.916536 -1.026462 -0.256209366 0.689825217 -0.677124753 0 0
1.077975 0.920417 -1.026462 -0.243710731 0.725231933 -0.643928353 0 0
1.092775 0.916536 -1.033435 -0.359005613 0.689810785 -0.62870983 0 0
0.946037 0.920417 -1.166824 0.627696444 0.725195892 0.282998397 0 0
0.953911 0.916536 -1.181164 0.605266737 0.689876066 0.39714379 0 0
0.953911 0.920417 -1.181164 0.575632326 0.725240727 0.377721212 0 0
0.946037 0.916536 -1.166824 0.659946921 0.689849047 0.29762116 0 0
1.145213 0.920417 -1.12893 -0.687729016 0.725230598 0.0327013797 0 0
1.144707 0.916536 -1.112579 -0.71963418 0.689832764 -0.0791037571 0 0
1.144707 0.920417 -1.112579 -0.684409089 0.725209631 -0.0752009987 0 0
1.145213 0.916536 -1.12893 -0.723143025 0.689841043 0.0344020468 0 0
1.083932 0.920417 -1.219008 -0.282998397 0.725195892 0.627696444 0 0
1.098272 0.916536 -1.211133 -0.397116389 0.689928474 0.605224978 0 0
1.098272 0.920417 -1.211133 -0.377721212 0.725240727 0.575632326 0 0
1.083932 0.916536 -1.219008 -0.29762116 0.689849047 0.659946921 0 0
0.959744 0.920417 -1.058744 0.537128485 0.72523846 -0.430722842 0 0
0.950542 0.916536 -1.07227 0.62870983 0.689810785 -0.359005613 0 0
0.950542 0.920417 -1.07227 0.597913929 0.725216894 -0.341407953 0 0
0.959744 0.916536 -1.058744 0.564748418 0.689859144 -0.452938832 0 0
1.046038 0.920417 -1.019832 -0.0327013797 0.725230598 -0.687729016 0 0
1.029686 0.916536 -1.020337 0.0791037571 0.689832764 -0.71963418 0 0
1.029686 0.920417 -1.020337 0.0752009987 0.725209631 -0.684409089 0 0
1.046038 0.916536 -1.019832 -0.0344020468 0.689841043 -0.723143025 0 0
1.136116 0.920417 -1.081112 -0.627635839 0.725241412 -0.283016161 0 0
1.128241 0.916536 -1.066773 -0.605266737 0.689876066 -0.39714379 0 0
1.128241 0.920417 -1.066773 -0.575699188 0.725198977 -0.377699467 0 0
1.136116 0.916536 -1.081112 -0.659946921 0.689849047 -0.29762116 0 0
0.975852 0.920417 -1.2053 0.430722842 0.72523846 0.537128485 0 0
0.989378 0.916536 -1.214502 0.359003416 0.689906564 0.628605981 0 0
0.989378 0.920417 -1.214502 0.341407953 0.725216894 0.597913929 0 0
0.975852 0.916536 -1.2053 0.452938832 0.689859144 0.564748418 0 0
0.938998 0.920417 -1.102777 0.67418898 0.725188147 -0.139897713 0 0
0.936939 0.916536 -1.119006 0.723143025 0.689841043 -0.0344020468 0 0
0.936939 0.920417 -1.119006 0.687729016 0.725230598 -0.0327013797 0 0
0.938998 0.916536 -1.102777 0.70884966 0.689848329 -0.147110306 0 0
1.122408 0.920417 -1.189193 -0.537128485 0.72523846 0.430722842 0 0
1.13161 0.916536 -1.175667 -0.62870983 0.689810785 0.359005613 0 0
1.13161 0.920417 -1.175667 -0.597913929 0.725216894 0.341407953 0 0
1.122408 0.916536 -1.189193 -0.564748418 0.689859144 0.452938832 0 0
0.99822 0.920417 -1.028929 0.283016161 0.725241412 -0.627635839 0 0
0.98388 0.916536 -1.036803 0.39714379 0.689876066 -0.605266737 0 0
0.98388 0.920417 -1.036803 0.377721212 0.725240727 -0.575632326 0 0
0.99822 0.916536 -1.028929 0.29762116 0.689849047 -0.659946921 0 0
1.106301 0.920417 -1.042637 -0.430722842 0.72523846 -0.537128485 0 0
1.106301 0.916536 -1.042637 -0.452907584 0.689911553 -0.564709456 0 0
1.019885 0.920417 -1.226047 0.139897713 0.725188147 0.67418898 0 0
1.019885 0.916536 -1.226047 0.147110306 0.689848329 0.70884966 0 0
1.143155 0.920417 -1.14516 -0.674179546 0.725177998 0.139995753 0 0
1.143155 0.916536 -1.14516 -0.70884966 0.689848329 0.147110306 0 0
0.940503 0.920417 -1.151429 0.664217811 0.725219447 0.181304862 0 0
0.940503 0.916536 -1.151429 0.698416382 0.68981618 0.190704473 0 0
1.068537 0.920417 -1.224542 -0.181304862 0.725219447 0.664217811 0 0
1.068537 0.916536 -1.224542 -0.190704473 0.68981618 0.698416382 0 0
1.062268 0.920417 -1.02189 -0.139897713 0.725188147 -0.67418898 0 0
1.062268 0.916536 -1.02189 -0.147110306 0.689848329 -0.70884966 0 0
1.14165 0.920417 -1.096508 -0.664217811 0.725219447 -0.181304862 0 0
1.14165 0.916536 -1.096508 -0.698416382 0.68981618 -0.190704473 0 0
0.963932 0.920417 -1.194096 0.509508432 0.725212003 0.463107664 0 0
0.963932 0.916536 -1.194096 0.535708697 0.689811199 0.487007907 0 0
1.111203 0.920417 -1.201113 -0.463107664 0.725212003 0.509508432 0 0
1.111203 0.916536 -1.201113 -0.487007907 0.689811199 0.535708697 0 0
0.94357 0.920417 -1.087069 0.643928353 0.725231933 -0.243710731 0 0
0.94357 0.916536 -1.087069 0.677124753 0.689825217 -0.256209366 0 0
1.013615 0.920417 -1.023395 0.181304862 0.725219447 -0.664217811 0 0
1.013615 0.916536 -1.023395 0.190704473 0.68981618 -0.698416382 0 0
1.118221 0.920417 -1.053841 -0.509508432 0.725212003 -0.463107664 0 0
1.118221 0.916536 -1.053841 -0.535697828 0.689897202 -0.486898026 0 0
1.004177 0.920417 -1.221475 0.243710731 0.725231933 0.643928353 0 0
1.004177 0.916536 -1.221475 0.256191692 0.689877628 0.677078043 0 0
0.937445 0.920417 -1.135358 0.684409089 0.725209631 0.0752009987 0 0
0.937445 0.916536 -1.135358 0.71963418 0.689832764 0.0791037571 0 0
1.138583 0.920417 -1.160868 -0.643928353 0.725231933 0.243710731 0 0
1.138583 0.916536 -1.160868 -0.677124753 0.689825217 0.256209366 0 0
0.970949 0.920417 -1.046824 0.463107664 0.725212003 -0.509508432 0 0
0.970949 0.916536 -1.046824 0.486974313 0.689863611 -0.535671744 0 0
0.949251 0.920417 -1.184222 0.0316002032 0.999306426 0.0197001267 0 0
0.959808 0.920417 -1.197845 0.0263994692 0.999379908 0.0232995316 0 0
1.150247 0.920417 -1.11197 -0.0343001494 0.999404352 -0.00380001655 0 0
1.147026 0.920417 -1.095039 -0.0337993436 0.999380592 -0.00979980969 0 0
1.053075 0.920417 -1.233139 -0.00380001655 0.999404352 0.0343001494 0 0
1.070005 0.920417 -1.229918 -0.00979980969 0.999380592 0.0337993436 0 0
1.079948 0.920417 -1.021249 -0.0124000852 0.999306865 -0.0351002411 0 0
1.063401 0.920417 -1.016433 -0.00840004729 0.999305626 -0.0363002044 0 0
0.9672 0.920417 -1.0427 0.0232995316 0.999379908 -0.0263994692 0 0
0.955397 0.920417 -1.055257 0.0269001274 0.999404732 -0.0216001023 0 0
0.931905 0.920417 -1.135967 0.0343001494 0.999404352 0.00380001655 0 0
0.935126 0.920417 -1.152897 0.0337993436 0.999380592 0.00979980969 0 0
1.143795 0.920417 -1.16284 -0.0351002411 0.999306865 0.0124000852 0 0
1.148612 0.920417 -1.146293 -0.0363002044 0.999305626 0.00840004729 0 0
1.002204 0.920417 -1.226688 0.0124000852 0.999306865 0.0351002411 0 0
1.018752 0.920417 -1.231504 0.00840004729 0.999305626 0.0363002044 0 0
1.122345 0.920417 -1.050092 -0.0263994692 0.999379908 -0.0232995316 0 0
1.109787 0.920417 -1.038289 -0.0216001023 0.999404732 -0.0269001274 0 0
1.012147 0.920417 -1.018019 0.00979980969 0.999380592 -0.0337993436 0 0
0.995929 0.920417 -1.023849 0.0161000913 0.999305666 -0.0336001905 0 0
0.938357 0.920417 -1.085097 0.0351002411 0.999306865 -0.0124000852 0 0
0.933541 0.920417 -1.101644 0.0363002044 0.999305626 -0.00840004729 0 0
1.114952 0.920417 -1.205237 -0.0232995316 0.999379908 0.0263994692 0 0
1.126756 0.920417 -1.19268 -0.0269001274 0.999404732 0.0216001023 0 0
1.141196 0.920417 -1.078821 -0.0336001905 0.999305666 -0.0161000913 0 0
0.972365 0.920417 -1.209648 0.0216001023 0.999404732 0.0269001274 0 0
1.086223 0.920417 -1.224088 -0.0161000913 0.999305666 0.0336001905 0 0
1.046303 0.920417 -1.014265 -0.00219995134 0.999377894 -0.0351992214 0 0
0.940956 0.920417 -1.169115 0.0336001905 0.999305666 0.0161000913 0 0
1.15078 0.920417 -1.129196 -0.0351992214 0.999377894 0.00219995134 0 0
1.035849 0.920417 -1.233672 0.00219995134 0.999377894 0.0351992214 0 0
1.095538 0.920417 -1.028595 -0.0169996246 0.999377929 -0.0308993176 0 0
0.980823 0.920417 -1.032144 0.0197001267 0.999306426 -0.0316002032 0 0
0.931372 0.920417 -1.118741 0.0351992214 0.999377894 -0.00219995134 0 0
1.13645 0.920417 -1.17843 -0.0308993176 0.999377929 0.0169996246 0 0
0.986614 0.920417 -1.219342 0.0169996246 0.999377929 0.0308993176 0 0
1.132901 0.920417 -1.063715 -0.0316002032 0.999306426 -0.0197001267 0 0
1.029078 0.920417 -1.014798 0.00380001655 0.999404352 -0.0343001494 0 0
1.10133 0.920417 -1.215793 -0.0197001267 0.999306426 0.0316002032 0 0
0.945703 0.920417 -1.069506 0.0308993176 0.999377929 -0.0169996246 0 0
0.9845 0.916536 -1.037747 0 1 0 0 0
0.998684 0.916536 -1.029958 0 1 0 0 0
1.13063 0.916536 -1.175107 0 1 0 0 0
1.121527 0.916536 -1.188487 0 1 0 0 0
0.938067 0.916536 -1.11906 0 1 0 0 0
0.940103 0.916536 -1.103006 0 1 0 0 0
0.989938 0.916536 -1.213522 0 1 0 0 0
0.976558 0.916536 -1.20442 0 1 0 0 0
1.127297 0.916536 -1.067392 0 1 0 0 0
1.135086 0.916536 -1.081577 0 1 0 0 0
1.097653 0.916536 -1.21019 0 1 0 0 0
1.083468 0.916536 -1.217979 0 1 0 0 0
1.02981 0.916536 -1.02146 0 1 0 0 0
1.045984 0.916536 -1.020959 0 1 0 0 0
0.951523 0.916536 -1.07283 0 1 0 0 0
0.960625 0.916536 -1.05945 0 1 0 0 0
0.954855 0.916536 -1.180545 0 1 0 0 0
0.947066 0.916536 -1.16636 0 1 0 0 0
1.143585 0.916536 -1.112702 0 1 0 0 0
1.144085 0.916536 -1.128877 0 1 0 0 0
1.052343 0.916536 -1.226477 0 1 0 0 0
1.036168 0.916536 -1.226978 0 1 0 0 0
1.077576 0.916536 -1.027518 0 1 0 0 0
1.092215 0.916536 -1.034415 0 1 0 0 0
1.137527 0.916536 -1.160468 0 1 0 0 0
0.971708 0.916536 -1.047659 0 1 0 0 0
0.938567 0.916536 -1.135235 0 1 0 0 0
1.117385 0.916536 -1.054601 0 1 0 0 0
1.004577 0.916536 -1.220419 0 1 0 0 0
1.110444 0.916536 -1.200278 0 1 0 0 0
1.013913 0.916536 -1.024484 0 1 0 0 0
0.944625 0.916536 -1.087469 0 1 0 0 0
0.964767 0.916536 -1.193336 0 1 0 0 0
1.140561 0.916536 -1.096805 0 1 0 0 0
1.06824 0.916536 -1.223453 0 1 0 0 0
1.062038 0.916536 -1.022995 0 1 0 0 0
1.142049 0.916536 -1.14493 0 1 0 0 0
0.941592 0.916536 -1.151132 0 1 0 0 0
1.020114 0.916536 -1.224941 0 1 0 0 0
1.105594 0.916536 -1.043517 0 1 0 0 0
1.052944 0.92439 -0.956672 -0.0260005313 0.993220297 -0.113302315 0 0
1.038927 0.923862 -0.962402 -0.0039002026 0.99775183 -0.0669034754 0 0
1.037796 0.92439 -0.954451 -0.00800026081 0.993832399 -0.110603606 0 0
1.054334 0.923862 -0.964617 -0.0149002853 0.997519103 -0.0688013176 0 0
1.023363 0.923862 -0.962798 0.00720023819 0.997833009 -0.0654021635 0 0
1.022486 0.92439 -0.954825 0.0117999029 0.994091819 -0.107899112 0 0
1.008084 0.923862 -0.965792 0.0183010291 0.997756105 -0.0644036215 0 0
1.007461 0.92439 -0.957785 0.031801143 0.993835719 -0.106203817 0 0
0.993526 0.923862 -0.9713 0.0295005943 0.997520095 -0.0639012873 0 0
0.993157 0.92439 -0.963243 0.050000719 0.993214283 -0.10500151 0 0
0.937772 0.923862 -1.001915 0.0381007144 0.997518704 -0.05920111 0 0
0.931171 0.92439 -0.997281 0.0617013766 0.993222159 -0.0985021976 0 0
0.925312 0.923862 -1.011244 0.0445023242 0.997752109 -0.0501026167 0 0
0.91889 0.92439 -1.006421 0.0725023962 0.993832847 -0.083902773 0 0
0.914586 0.923862 -1.022529 0.0513019049 0.99783705 -0.0411015261 0 0
0.908329 0.92439 -1.017511 0.0846991822 0.994090402 -0.0678993444 0 0
0.9059 0.923862 -1.03545 0.058503209 0.997754728 -0.0326017883 0 0
0.899797 0.92439 -1.030229 0.0976033693 0.993834308 -0.0526018158 0 0
0.8995 0.923862 -1.049639 0.0660013989 0.997521143 -0.0244005172 0 0
0.893543 0.92439 -1.044202 0.109601556 0.993214099 -0.0389005522 0 0
0.881725 0.923862 -1.110711 0.0688013176 0.997519103 -0.0149002853 0 0
0.87378 0.92439 -1.112101 0.113302315 0.993220297 -0.0260005313 0 0
0.87951 0.923862 -1.126117 0.0669034754 0.99775183 -0.0039002026 0 0
0.871559 0.92439 -1.127248 0.110603606 0.993832399 -0.00800026081 0 0
0.879906 0.923862 -1.141682 0.0654021635 0.997833009 0.00720023819 0 0
0.871933 0.92439 -1.142558 0.107899112 0.994091819 0.0117999029 0 0
0.8829 0.923862 -1.156961 0.0644036215 0.997756105 0.0183010291 0 0
0.874893 0.92439 -1.157584 0.106203817 0.993835719 0.031801143 0 0
0.888408 0.923862 -1.171519 0.0639012873 0.997520095 0.0295005943 0 0
0.880351 0.92439 -1.171887 0.10500151 0.993214283 0.050000719 0 0
0.919023 0.923862 -1.227273 0.05920111 0.997518704 0.0381007144 0 0
0.914389 0.92439 -1.233873 0.0985021976 0.993222159 0.0617013766 0 0
0.928351 0.923862 -1.239732 0.0501026167 0.997752109 0.0445023242 0 0
0.923528 0.92439 -1.246155 0.083902773 0.993832847 0.0725023962 0 0
0.939637 0.923862 -1.250459 0.0411015261 0.99783705 0.0513019049 0 0
0.934619 0.92439 -1.256716 0.0678993444 0.994090402 0.0846991822 0 0
0.952558 0.923862 -1.259145 0.0326017883 0.997754728 0.058503209 0 0
0.947337 0.92439 -1.265248 0.0526018158 0.993834308 0.0976033693 0 0
0.966746 0.923862 -1.265545 0.0244005172 0.997521143 0.0660013989 0 0
0.96131 0.92439 -1.271502 0.0389005522 0.993214099 0.109601556 0 0
1.027819 0.923862 -1.28332 0.0149002853 0.997519103 0.0688013176 0 0
1.029209 0.92439 -1.291265 0.0260005313 0.993220297 0.113302315 0 0
1.043225 0.923862 -1.285534 0.0039002026 0.99775183 0.0669034754 0 0
1.044356 0.92439 -1.293486 0.00800026081 0.993832399 0.110603606 0 0
1.05879 0.923862 -1.285139 -0.00720023819 0.997833009 0.0654021635 0 0
1.059666 0.92439 -1.293112 -0.0117999029 0.994091819 0.107899112 0 0
1.074069 0.923862 -1.282145 -0.0183010291 0.997756105 0.0644036215 0 0
1.074692 0.92439 -1.290152 -0.031801143 0.993835719 0.106203817 0 0
1.088627 0.923862 -1.276637 -0.0295005943 0.997520095 0.0639012873 0 0
1.088995 0.92439 -1.284694 -0.050000719 0.993214283 0.10500151 0 0
1.14438 0.923862 -1.246022 -0.0381007144 0.997518704 0.05920111 0 0
1.150981 0.92439 -1.250656 -0.0617013766 0.993222159 0.0985021976 0 0
1.15684 0.923862 -1.236693 -0.0445023242 0.997752109 0.0501026167 0 0
1.163263 0.92439 -1.241516 -0.0725023962 0.993832847 0.083902773 0 0
1.167567 0.923862 -1.225408 -0.0513019049 0.99783705 0.0411015261 0 0
1.173824 0.92439 -1.230426 -0.0846991822 0.994090402 0.0678993444 0 0
1.176253 0.923862 -1.212487 -0.058503209 0.997754728 0.0326017883 0 0
1.182356 0.92439 -1.217708 -0.0976033693 0.993834308 0.0526018158 0 0
1.182652 0.923862 -1.198298 -0.0660013989 0.997521143 0.0244005172 0 0
1.18861 0.92439 -1.203735 -0.109601556 0.993214099 0.0389005522 0 0
1.200428 0.923862 -1.137226 -0.0688013176 0.997519103 0.0149002853 0 0
1.208372 0.92439 -1.135836 -0.113302315 0.993220297 0.0260005313 0 0
1.202642 0.923862 -1.121819 -0.0669034754 0.99775183 0.0039002026 0 0
1.210594 0.92439 -1.120689 -0.110603606 0.993832399 0.00800026081 0 0
1.202247 0.923862 -1.106255 -0.0654021635 0.997833009 -0.00720023819 0 0
1.21022 0.92439 -1.105379 -0.107899112 0.994091819 -0.0117999029 0 0
1.199252 0.923862 -1.090976 -0.0644036215 0.997756105 -0.0183010291 0 0
1.20726 0.92439 -1.090353 -0.106203817 0.993835719 -0.031801143 0 0
1.193745 0.923862 -1.076418 -0.0639012873 0.997520095 -0.0295005943 0 0
1.201802 0.92439 -1.07605 -0.10500151 0.993214283 -0.050000719 0 0
1.163129 0.923862 -1.020664 -0.05920111 0.997518704 -0.0381007144 0 0
1.167764 0.92439 -1.014064 -0.0985021976 0.993222159 -0.0617013766 0 0
1.153801 0.923862 -1.008204 -0.0501026167 0.997752109 -0.0445023242 0 0
1.158624 0.92439 -1.001782 -0.083902773 0.993832847 -0.0725023962 0 0
1.142516 0.923862 -0.997478 -0.0411015261 0.99783705 -0.0513019049 0 0
1.147534 0.92439 -0.991221 -0.0678993444 0.994090402 -0.0846991822 0 0
1.120842 0.92439 -0.976435 -0.0389005522 0.993214099 -0.109601556 0 0
1.115406 0.923862 -0.982392 -0.0244005172 0.997521143 -0.0660013989 0 0
1.134816 0.92439 -0.982689 -0.0526013022 0.993824602 -0.0977024187 0 0
1.129594 0.923862 -0.988792 -0.0326017883 0.997754728 -0.058503209 0 0
3 0 1 2
3 0 3 1
3 4 5 6
3 4 7 5
3 8 9 10
3 8 11 9
3 12 13 14
3 12 15 13
3 16 17 18
3 16 19 17
3 20 21 22
3 20 23 21
3 24 25 26
3 24 27 25
3 28 29 30
3 28 31 29
3 32 33 34
3 32 35 33
3 36 37 38
3 36 39 37
3 40 41 42
3 40 43 41
3 44 45 46
3 44 47 45
3 6 48 49
3 6 5 48
3 3 50 1
3 3 51 50
3 10 52 53
3 10 9 52
3 19 54 17
3 19 55 54
3 32 56 35
3 32 57 56
3 23 58 21
3 23 59 58
3 26 60 61
3 26 25 60
3 30 62 63
3 30 29 62
3 34 64 65
3 34 33 64
3 38 66 67
3 38 37 66
3 43 66 41
3 43 67 66
3 46 68 69
3 46 45 68
3 51 70 50
3 51 71 70
3 49 72 73
3 49 48 72
3 53 74 75
3 53 52 74
3 57 76 56
3 57 77 76
3 55 78 54
3 55 79 78
3 59 74 58
3 59 75 74
3 28 2 31
3 28 0 2
3 63 11 8
3 63 62 11
3 44 18 47
3 44 16 18
3 65 15 12
3 65 64 15
3 4 22 7
3 4 20 22
3 69 27 24
3 69 68 27
3 73 39 36
3 73 72 39
3 71 60 70
3 71 61 60
3 79 13 78
3 79 14 13
3 77 42 76
3 77 40 42
3 80 81 82
3 80 83 81
3 84 85 86
3 84 87 85
3 88 89 90
3 88 91 89
3 92 93 94
3 92 95 93
3 96 97 98
3 96 99 97
3 92 100 95
3 92 101 100
3 102 103 104
3 102 105 103
3 106 107 108
3 106 109 107
3 110 111 112
3 110 113 111
3 114 115 116
3 114 117 115
3 118 119 120
3 118 121 119
3 122 123 124
3 122 125 123
3 118 82 121
3 118 80 82
3 126 127 128
3 126 129 127
3 130 131 132
3 130 133 131
3 134 91 88
3 134 135 91
3 136 99 96
3 136 137 99
3 138 139 140
3 138 141 139
3 142 105 102
3 142 143 105
3 84 112 87
3 84 110 112
3 144 109 106
3 144 145 109
3 146 124 147
3 146 122 124
3 148 116 149
3 148 114 116
3 150 139 141
3 150 151 139
3 152 128 153
3 152 126 128
3 154 132 155
3 154 130 132
3 156 135 134
3 156 157 135
3 148 137 136
3 148 149 137
3 83 140 81
3 83 138 140
3 86 143 142
3 86 85 143
3 94 145 144
3 94 93 145
3 90 127 129
3 90 89 127
3 98 158 159
3 98 97 158
3 104 131 133
3 104 103 131
3 101 147 100
3 101 146 147
3 113 153 111
3 113 152 153
3 108 151 150
3 108 107 151
3 117 155 115
3 117 154 155
3 120 157 156
3 120 119 157
3 125 158 123
3 125 159 158
3 12 96 65
3 12 136 96
3 16 133 130
3 16 44 133
3 8 88 63
3 8 134 88
3 0 129 126
3 0 28 129
3 75 80 118
3 75 59 80
3 79 117 114
3 79 55 117
3 77 125 122
3 77 57 125
3 75 120 53
3 75 118 120
3 71 113 110
3 71 51 113
3 73 108 49
3 73 106 108
3 69 104 46
3 69 102 104
3 67 101 92
3 67 43 101
3 67 94 38
3 67 92 94
3 65 98 34
3 65 96 98
3 63 90 30
3 63 88 90
3 59 83 80
3 59 23 83
3 61 86 26
3 61 84 86
3 55 154 117
3 55 19 154
3 57 159 125
3 57 32 159
3 53 156 10
3 53 120 156
3 51 152 113
3 51 3 152
3 49 150 6
3 49 108 150
3 46 133 44
3 46 104 133
3 43 146 101
3 43 40 146
3 34 159 32
3 34 98 159
3 38 144 36
3 38 94 144
3 30 129 28
3 30 90 129
3 26 142 24
3 26 86 142
3 23 138 83
3 23 20 138
3 19 130 154
3 19 16 130
3 14 136 12
3 14 148 136
3 10 134 8
3 10 156 134
3 6 141 4
3 6 150 141
3 3 126 152
3 3 0 126
3 14 114 148
3 14 79 114
3 40 122 146
3 40 77 122
3 61 110 84
3 61 71 110
3 36 106 73
3 36 144 106
3 20 141 138
3 20 4 141
3 24 102 69
3 24 142 102
3 160 161 162
3 160 163 161
3 164 165 166
3 164 167 165
3 168 169 170
3 168 171 169
3 172 173 174
3 172 175 173
3 176 177 178
3 176 179 177
3 180 181 182
3 180 183 181
3 184 185 186
3 184 187 185
3 188 189 190
3 188 191 189
3 192 193 194
3 192 195 193
3 196 197 198
3 196 199 197
3 200 201 202
3 200 203 201
3 204 205 206
3 204 207 205
3 208 167 164
3 208 209 167
3 210 163 160
3 210 211 163
3 212 175 172
3 212 213 175
3 214 171 168
3 214 215 171
3 216 179 176
3 216 217 179
3 218 187 184
3 218 219 187
3 220 191 188
3 220 221 191
3 222 195 192
3 222 223 195
3 224 203 200
3 224 225 203
3 226 199 196
3 226 227 199
3 228 207 204
3 228 229 207
3 230 209 208
3 230 231 209
3 232 211 210
3 232 233 211
3 234 215 214
3 234 235 215
3 236 213 212
3 236 237 213
3 238 183 180
3 238 239 183
3 166 219 218
3 166 165 219
3 162 217 216
3 162 161 217
3 174 221 220
3 174 173 221
3 170 223 222
3 170 169 223
3 178 225 224
3 178 177 225
3 182 227 226
3 182 181 227
3 186 229 228
3 186 185 229
3 190 231 230
3 190 189 231
3 194 233 232
3 194 193 233
3 202 237 236
3 202 201 237
3 198 235 234
3 198 197 235
3 206 239 238
3 206 205 239
3 240 222 241
3 240 170 222
3 242 220 243
3 242 174 220
3 244 216 245
3 244 162 216
3 246 218 247
3 246 166 218
3 248 180 249
3 248 238 180
3 250 214 251
3 250 234 214
3 252 212 253
3 252 236 212
3 254 210 255
3 254 232 210
3 256 208 257
3 256 230 208
3 258 204 259
3 258 228 204
3 260 196 261
3 260 226 196
3 262 200 263
3 262 224 200
3 243 188 264
3 243 220 188
3 241 192 265
3 241 222 192
3 245 176 266
3 245 216 176
3 247 184 267
3 247 218 184
3 251 168 268
3 251 214 168
3 253 172 269
3 253 212 172
3 255 160 270
3 255 210 160
3 257 164 271
3 257 208 164
3 259 206 272
3 259 204 206
3 261 198 273
3 261 196 198
3 263 202 274
3 263 200 202
3 265 194 275
3 265 192 194
3 264 190 276
3 264 188 190
3 267 186 277
3 267 184 186
3 266 178 278
3 266 176 178
3 249 182 279
3 249 180 182
3 269 174 242
3 269 172 174
3 268 170 240
3 268 168 170
3 270 162 244
3 270 160 162
3 271 166 246
3 271 164 166
3 272 238 248
3 272 206 238
3 273 234 250
3 273 198 234
3 274 236 252
3 274 202 236
3 276 230 256
3 276 190 230
3 275 232 254
3 275 194 232
3 277 228 258
3 277 186 228
3 279 226 260
3 279 182 226
3 278 224 262
3 278 178 224
3 207 280 205
3 207 281 280
3 203 282 201
3 203 283 282
3 199 284 197
3 199 285 284
3 195 286 193
3 195 287 286
3 191 288 189
3 191 289 288
3 179 290 177
3 179 291 290
3 187 292 185
3 187 293 292
3 183 294 181
3 183 295 294
3 171 296 169
3 171 297 296
3 175 298 173
3 175 299 298
3 163 300 161
3 163 301 300
3 167 302 165
3 167 303 302
3 201 304 237
3 201 282 304
3 205 305 239
3 205 280 305
3 197 306 235
3 197 284 306
3 189 307 231
3 189 288 307
3 193 308 233
3 193 286 308
3 177 309 225
3 177 290 309
3 185 310 229
3 185 292 310
3 181 311 227
3 181 294 311
3 169 312 223
3 169 296 312
3 173 313 221
3 173 298 313
3 161 314 217
3 161 300 314
3 165 315 219
3 165 302 315
3 239 295 183
3 239 305 295
3 237 316 213
3 237 304 316
3 235 317 215
3 235 306 317
3 233 318 211
3 233 308 318
3 231 319 209
3 231 307 319
3 225 283 203
3 225 309 283
3 229 281 207
3 229 310 281
3 227 285 199
3 227 311 285
3 221 289 191
3 221 313 289
3 223 287 195
3 223 312 287
3 217 291 179
3 217 314 291
3 219 293 187
3 219 315 293
3 215 297 171
3 215 317 297
3 213 299 175
3 213 316 299
3 209 303 167
3 209 319 303
3 211 301 163
3 211 318 301
3 320 321 322
3 320 323 321
3 322 324 325
3 322 321 324
3 325 326 327
3 325 324 326
3 327 328 329
3 327 326 328
3 329 330 331
3 329 328 330
3 331 332 333
3 331 330 332
3 333 334 335
3 333 332 334
3 335 336 337
3 335 334 336
3 337 338 339
3 337 336 338
3 339 340 341
3 339 338 340
3 341 342 343
3 341 340 342
3 343 344 345
3 343 342 344
3 345 346 347
3 345 344 346
3 347 348 349
3 347 346 348
3 349 350 351
3 349 348 350
3 351 352 353
3 351 350 352
3 353 354 355
3 353 352 354
3 355 356 357
3 355 354 356
3 357 358 359
3 357 356 358
3 359 360 361
3 359 358 360
3 361 362 363
3 361 360 362
3 363 364 365
3 363 362 364
3 365 366 367
3 365 364 366
3 367 368 369
3 367 366 368
3 369 370 371
3 369 368 370
3 371 372 373
3 371 370 372
3 373 374 375
3 373 372 374
3 375 376 377
3 375 374 376
3 377 378 379
3 377 376 378
3 379 380 381
3 379 378 380
3 381 382 383
3 381 380 382
3 383 384 385
3 383 382 384
3 385 386 387
3 385 384 386
3 387 388 389
3 387 386 388
3 389 390 391
3 389 388 390
3 391 392 393
3 391 390 392
3 393 394 395
3 393 392 394
3 396 323 320
3 396 397 323
3 398 397 396
3 398 399 397
3 395 399 398
3 395 394 399
