ply
format ascii 1.0
element vertex 482
property float x
property float y
property float z
property float nx
property float ny
property float nz
property float u
property float v
element face 720
property list uchar int vertex_indices
end_header
1.054334 0.923862 -0.964617 -0.0149002853 0.997519103 -0.0688013176 0 0
1.046303 0.920417 -1.014265 -0.00219995134 0.999377894 -0.0351992214 0 0
1.038927 0.923862 -0.962402 -0.0039002026 0.99775183 -0.0669034754 0 0
1.063401 0.920417 -1.016433 -0.00840004729 0.999305626 -0.0363002044 0 0
1.029078 0.920417 -1.014798 0.00380001655 0.999404352 -0.0343001494 0 0
1.023363 0.923862 -0.962798 0.00720023819 0.997833009 -0.0654021635 0 0
1.012147 0.920417 -1.018019 0.00979980969 0.999380592 -0.0337993436 0 0
1.008084 0.923862 -0.965792 0.0183010291 0.997756105 -0.0644036215 0 0
0.995929 0.920417 -1.023849 0.0161000913 0.999305666 -0.0336001905 0 0
0.993526 0.923862 -0.9713 0.0295005943 0.997520095 -0.0639012873 0 0
0.980823 0.920417 -1.032144 0.0197001267 0.999306426 -0.0316002032 0 0
0.937772 0.923862 -1.001915 0.0381007144 0.997518704 -0.05920111 0 0
0.9672 0.920417 -1.0427 0.0232995316 0.999379908 -0.0263994692 0 0
0.925312 0.923862 -1.011244 0.0445023242 0.997752109 -0.0501026167 0 0
0.955397 0.920417 -1.055257 0.0269001274 0.999404732 -0.0216001023 0 0
0.914586 0.923862 -1.022529 0.0513019049 0.99783705 -0.0411015261 0 0
0.945703 0.920417 -1.069506 0.0308993176 0.999377929 -0.0169996246 0 0
0.9059 0.923862 -1.03545 0.058503209 0.997754728 -0.0326017883 0 0
0.938357 0.920417 -1.085097 0.0351002411 0.999306865 -0.0124000852 0 0
0.8995 0.923862 -1.049639 0.0660013989 0.997521143 -0.0244005172 0 0
0.933541 0.920417 -1.101644 0.0363002044 0.999305626 -0.00840004729 0 0
0.881725 0.923862 -1.110711 0.0688013176 0.997519103 -0.0149002853 0 0
0.931372 0.920417 -1.118741 0.0351992214 0.999377894 -0.00219995134 0 0
0.87951 0.923862 -1.126117 0.0669034754 0.99775183 -0.0039002026 0 0
0.931905 0.920417 -1.135967 0.0343001494 0.999404352 0.00380001655 0 0
0.879906 0.923862 -1.141682 0.0654021635 0.997833009 0.00720023819 0 0
0.935126 0.920417 -1.152897 0.0337993436 0.999380592 0.00979980969 0 0
0.8829 0.923862 -1.156961 0.0644036215 0.997756105 0.0183010291 0 0
0.940956 0.920417 -1.169115 0.0336001905 0.999305666 0.0161000913 0 0
0.888408 0.923862 -1.171519 0.0639012873 0.997520095 0.0295005943 0 0
0.949251 0.920417 -1.184222 0.0316002032 0.999306426 0.0197001267 0 0
0.919023 0.923862 -1.227273 0.05920111 0.997518704 0.0381007144 0 0
0.959808 0.920417 -1.197845 0.0263994692 0.999379908 0.0232995316 0 0
0.928351 0.923862 -1.239732 0.0501026167 0.997752109 0.0445023242 0 0
0.972365 0.920417 -1.209648 0.0216001023 0.999404732 0.0269001274 0 0
0.939637 0.923862 -1.250459 0.0411015261 0.99783705 0.0513019049 0 0
0.986614 0.920417 -1.219342 0.0169996246 0.999377929 0.0308993176 0 0
0.952558 0.923862 -1.259145 0.0326017883 0.997754728 0.058503209 0 0
1.002204 0.920417 -1.226688 0.0124000852 0.999306865 0.0351002411 0 0
0.966746 0.923862 -1.265545 0.0244005172 0.997521143 0.0660013989 0 0
1.018752 0.920417 -1.231504 0.00840004729 0.999305626 0.0363002044 0 0
1.027819 0.923862 -1.28332 0.0149002853 0.997519103 0.0688013176 0 0
1.035849 0.920417 -1.233672 0.00219995134 0.999377894 0.0351992214 0 0
1.043225 0.923862 -1.285534 0.0039002026 0.99775183 0.0669034754 0 0
1.053075 0.920417 -1.233139 -0.00380001655 0.999404352 0.0343001494 0 0
1.05879 0.923862 -1.285139 -0.00720023819 0.997833009 0.0654021635 0 0
1.070005 0.920417 -1.229918 -0.00979980969 0.999380592 0.0337993436 0 0
1.074069 0.923862 -1.282145 -0.0183010291 0.997756105 0.0644036215 0 0
1.086223 0.920417 -1.224088 -0.0161000913 0.999305666 0.0336001905 0 0
1.088627 0.923862 -1.276637 -0.0295005943 0.997520095 0.0639012873 0 0
1.10133 0.920417 -1.215793 -0.0197001267 0.999306426 0.0316002032 0 0
1.14438 0.923862 -1.246022 -0.0381007144 0.997518704 0.05920111 0 0
1.114952 0.920417 -1.205237 -0.0232995316 0.999379908 0.0263994692 0 0
1.15684 0.923862 -1.236693 -0.0445023242 0.997752109 0.0501026167 0 0
1.126756 0.920417 -1.19268 -0.0269001274 0.999404732 0.0216001023 0 0
1.167567 0.923862 -1.225408 -0.0513019049 0.99783705 0.0411015261 0 0
1.13645 0.920417 -1.17843 -0.0308993176 0.999377929 0.0169996246 0 0
1.176253 0.923862 -1.212487 -0.058503209 0.997754728 0.0326017883 0 0
1.143795 0.920417 -1.16284 -0.0351002411 0.999306865 0.0124000852 0 0
1.182652 0.923862 -1.198298 -0.0660013989 0.997521143 0.0244005172 0 0
1.148612 0.920417 -1.146293 -0.0363002044 0.999305626 0.00840004729 0 0
1.200428 0.923862 -1.137226 -0.0688013176 0.997519103 0.0149002853 0 0
1.15078 0.920417 -1.129196 -0.0351992214 0.999377894 0.00219995134 0 0
1.202642 0.923862 -1.121819 -0.0669034754 0.99775183 0.0039002026 0 0
1.150247 0.920417 -1.11197 -0.0343001494 0.999404352 -0.00380001655 0 0
1.202247 0.923862 -1.106255 -0.0654021635 0.997833009 -0.00720023819 0 0
1.147026 0.920417 -1.095039 -0.0337993436 0.999380592 -0.00979980969 0 0
1.199252 0.923862 -1.090976 -0.0644036215 0.997756105 -0.0183010291 0 0
1.141196 0.920417 -1.078821 -0.0336001905 0.999305666 -0.0161000913 0 0
1.193745 0.923862 -1.076418 -0.0639012873 0.997520095 -0.0295005943 0 0
1.132901 0.920417 -1.063715 -0.0316002032 0.999306426 -0.0197001267 0 0
1.163129 0.923862 -1.020664 -0.05920111 0.997518704 -0.0381007144 0 0
1.122345 0.920417 -1.050092 -0.0263994692 0.999379908 -0.0232995316 0 0
1.153801 0.923862 -1.008204 -0.0501026167 0.997752109 -0.0445023242 0 0
1.109787 0.920417 -1.038289 -0.0216001023 0.999404732 -0.0269001274 0 0
1.142516 0.923862 -0.997478 -0.0411015261 0.99783705 -0.0513019049 0 0
1.115406 0.923862 -0.982392 -0.0244005172 0.997521143 -0.0660013989 0 0
1.079948 0.920417 -1.021249 -0.0124000852 0.999306865 -0.0351002411 0 0
1.129594 0.923862 -0.988792 -0.0326017883 0.997754728 -0.058503209 0 0
1.095538 0.920417 -1.028595 -0.0169996246 0.999377929 -0.0308993176 0 0
1.037583 0.941035 -0.868886 -0.0311996591 0.989589189 -0.140498465 0 0
1.028883 0.933766 -0.891777 -0.0185006692 0.975435282 -0.21950794 0 0
1.0253 0.941035 -0.866586 -0.00929999284 0.991099237 -0.132799898 0 0
1.041987 0.933766 -0.894054 -0.052698882 0.973279352 -0.223495259 0 0
1.01558 0.933766 -0.891985 0.0235011692 0.976548585 -0.214010647 0 0
1.012804 0.941035 -0.866727 0.0143007112 0.991449306 -0.12970645 0 0
1.00255 0.933766 -0.894671 0.0657030983 0.975445998 -0.210209913 0 0
1.000576 0.941035 -0.869303 0.0379005331 0.99111394 -0.127501793 0 0
0.990253 0.933766 -0.89974 0.0999981111 0.973281615 -0.206696096 0 0
0.989086 0.941035 -0.874215 0.0609001504 0.989602444 -0.130300322 0 0
0.879146 0.933766 -0.960751 0.120797124 0.973276827 -0.19529535 0 0
0.858235 0.941035 -0.946068 0.0772991725 0.989589407 -0.1213987 0 0
0.86827 0.933766 -0.968407 0.14210551 0.975437818 -0.168306525 0 0
0.847924 0.941035 -0.953128 0.0872999673 0.991099628 -0.100499962 0 0
0.859011 0.933766 -0.97796 0.167909508 0.976555299 -0.134707628 0 0
0.839188 0.941035 -0.962063 0.101805306 0.991451676 -0.0816042533 0 0
0.851696 0.933766 -0.989073 0.195204583 0.975422903 -0.1022024 0 0
0.832363 0.941035 -0.972531 0.117000715 0.991106061 -0.0634003877 0 0
0.846585 0.933766 -1.001352 0.216895265 0.973278754 -0.0753983541 0 0
0.827711 0.941035 -0.984129 0.135298305 0.989587601 -0.0490993848 0 0
0.811162 0.933766 -1.123058 0.223495259 0.973279352 -0.052698882 0 0
0.785993 0.941035 -1.127462 0.140498465 0.989589189 -0.0311996591 0 0
0.808885 0.933766 -1.136162 0.21950794 0.975435282 -0.0185006692 0 0
0.783694 0.941035 -1.139745 0.132701659 0.991112394 -0.0093001163 0 0
0.809093 0.933766 -1.149465 0.214010647 0.976548585 0.0235011692 0 0
0.783835 0.941035 -1.152241 0.12970645 0.991449306 0.0143007112 0 0
0.811779 0.933766 -1.162495 0.210209913 0.975445998 0.0657030983 0 0
0.786411 0.941035 -1.164469 0.127501793 0.99111394 0.0379005331 0 0
0.816848 0.933766 -1.174792 0.206696096 0.973281615 0.0999981111 0 0
0.791323 0.941035 -1.175959 0.130300322 0.989602444 0.0609001504 0 0
0.877859 0.933766 -1.285899 0.19529535 0.973276827 0.120797124 0 0
0.863176 0.941035 -1.30681 0.1213987 0.989589407 0.0772991725 0 0
0.885515 0.933766 -1.296775 0.168306525 0.975437818 0.14210551 0 0
0.870235 0.941035 -1.317121 0.100499962 0.991099628 0.0872999673 0 0
0.895068 0.933766 -1.306034 0.134707628 0.976555299 0.167909508 0 0
0.879171 0.941035 -1.325857 0.0816042533 0.991451676 0.101805306 0 0
0.906181 0.933766 -1.313348 0.1022024 0.975422903 0.195204583 0 0
0.889639 0.941035 -1.332682 0.0634003877 0.991106061 0.117000715 0 0
0.91846 0.933766 -1.318459 0.0753983541 0.973278754 0.216895265 0 0
0.901237 0.941035 -1.337333 0.0490993848 0.989587601 0.135298305 0 0
1.040166 0.933766 -1.353883 0.052698882 0.973279352 0.223495259 0 0
1.04457 0.941035 -1.379051 0.0311996591 0.989589189 0.140498465 0 0
1.05327 0.933766 -1.35616 0.0185006692 0.975435282 0.21950794 0 0
1.056853 0.941035 -1.381351 0.00929999284 0.991099237 0.132799898 0 0
1.066573 0.933766 -1.355952 -0.0235011692 0.976548585 0.214010647 0 0
1.069349 0.941035 -1.38121 -0.0143007112 0.991449306 0.12970645 0 0
1.079603 0.933766 -1.353266 -0.0657030983 0.975445998 0.210209913 0 0
1.081576 0.941035 -1.378634 -0.0379005331 0.99111394 0.127501793 0 0
1.091899 0.933766 -1.348197 -0.0999981111 0.973281615 0.206696096 0 0
1.093067 0.941035 -1.373721 -0.0609001504 0.989602444 0.130300322 0 0
1.203007 0.933766 -1.287186 -0.120797124 0.973276827 0.19529535 0 0
1.223918 0.941035 -1.301869 -0.0772991725 0.989589407 0.1213987 0 0
1.213883 0.933766 -1.27953 -0.14210551 0.975437818 0.168306525 0 0
1.234229 0.941035 -1.294809 -0.0872999673 0.991099628 0.100499962 0 0
1.223142 0.933766 -1.269977 -0.167909508 0.976555299 0.134707628 0 0
1.242965 0.941035 -1.285874 -0.101805306 0.991451676 0.0816042533 0 0
1.230456 0.933766 -1.258864 -0.195204583 0.975422903 0.1022024 0 0
1.24979 0.941035 -1.275406 -0.117000715 0.991106061 0.0634003877 0 0
1.235567 0.933766 -1.246585 -0.216895265 0.973278754 0.0753983541 0 0
1.254441 0.941035 -1.263808 -0.135298305 0.989587601 0.0490993848 0 0
1.270991 0.933766 -1.124879 -0.223495259 0.973279352 0.052698882 0 0
1.296159 0.941035 -1.120475 -0.140498465 0.989589189 0.0311996591 0 0
1.273268 0.933766 -1.111775 -0.21950794 0.975435282 0.0185006692 0 0
1.298459 0.941035 -1.108192 -0.132701659 0.991112394 0.0093001163 0 0
1.27306 0.933766 -1.098472 -0.214010647 0.976548585 -0.0235011692 0 0
1.298318 0.941035 -1.095696 -0.12970645 0.991449306 -0.0143007112 0 0
1.270373 0.933766 -1.085442 -0.210209913 0.975445998 -0.0657030983 0 0
1.295741 0.941035 -1.083468 -0.127501793 0.99111394 -0.0379005331 0 0
1.265305 0.933766 -1.073145 -0.206696096 0.973281615 -0.0999981111 0 0
1.290829 0.941035 -1.071978 -0.130300322 0.989602444 -0.0609001504 0 0
1.204294 0.933766 -0.962038 -0.19529535 0.973276827 -0.120797124 0 0
1.218977 0.941035 -0.941127 -0.1213987 0.989589407 -0.0772991725 0 0
1.196638 0.933766 -0.951162 -0.168306525 0.975437818 -0.14210551 0 0
1.211917 0.941035 -0.930816 -0.100499962 0.991099628 -0.0872999673 0 0
1.187085 0.933766 -0.941903 -0.134707628 0.976555299 -0.167909508 0 0
1.202982 0.941035 -0.92208 -0.0816042533 0.991451676 -0.101805306 0 0
1.180916 0.941035 -0.910604 -0.0490993848 0.989587601 -0.135298305 0 0
1.163692 0.933766 -0.929478 -0.0753983541 0.973278754 -0.216895265 0 0
1.192514 0.941035 -0.915255 -0.0634003877 0.991106061 -0.117000715 0 0
1.175972 0.933766 -0.934589 -0.1022024 0.975422903 -0.195204583 0 0
1.037796 0.92439 -0.954451 -0.00800026081 0.993832399 -0.110603606 0 0
1.052944 0.92439 -0.956672 -0.0260005313 0.993220297 -0.113302315 0 0
1.022486 0.92439 -0.954825 0.0117999029 0.994091819 -0.107899112 0 0
1.007461 0.92439 -0.957785 0.031801143 0.993835719 -0.106203817 0 0
0.993157 0.92439 -0.963243 0.050000719 0.993214283 -0.10500151 0 0
0.931171 0.92439 -0.997281 0.0617013766 0.993222159 -0.0985021976 0 0
0.91889 0.92439 -1.006421 0.0725023962 0.993832847 -0.083902773 0 0
0.908329 0.92439 -1.017511 0.0846991822 0.994090402 -0.0678993444 0 0
0.899797 0.92439 -1.030229 0.0976033693 0.993834308 -0.0526018158 0 0
0.893543 0.92439 -1.044202 0.109601556 0.993214099 -0.0389005522 0 0
0.87378 0.92439 -1.112101 0.113302315 0.993220297 -0.0260005313 0 0
0.871559 0.92439 -1.127248 0.110603606 0.993832399 -0.00800026081 0 0
0.871933 0.92439 -1.142558 0.107899112 0.994091819 0.0117999029 0 0
0.874893 0.92439 -1.157584 0.106203817 0.993835719 0.031801143 0 0
0.880351 0.92439 -1.171887 0.10500151 0.993214283 0.050000719 0 0
0.914389 0.92439 -1.233873 0.0985021976 0.993222159 0.0617013766 0 0
0.923528 0.92439 -1.246155 0.083902773 0.993832847 0.0725023962 0 0
0.934619 0.92439 -1.256716 0.0678993444 0.994090402 0.0846991822 0 0
0.947337 0.92439 -1.265248 0.0526018158 0.993834308 0.0976033693 0 0
0.96131 0.92439 -1.271502 0.0389005522 0.993214099 0.109601556 0 0
1.029209 0.92439 -1.291265 0.0260005313 0.993220297 0.113302315 0 0
1.044356 0.92439 -1.293486 0.00800026081 0.993832399 0.110603606 0 0
1.059666 0.92439 -1.293112 -0.0117999029 0.994091819 0.107899112 0 0
1.074692 0.92439 -1.290152 -0.031801143 0.993835719 0.106203817 0 0
1.088995 0.92439 -1.284694 -0.050000719 0.993214283 0.10500151 0 0
1.150981 0.92439 -1.250656 -0.0617013766 0.993222159 0.0985021976 0 0
1.163263 0.92439 -1.241516 -0.0725023962 0.993832847 0.083902773 0 0
1.173824 0.92439 -1.230426 -0.0846991822 0.994090402 0.0678993444 0 0
1.182356 0.92439 -1.217708 -0.0976033693 0.993834308 0.0526018158 0 0
1.18861 0.92439 -1.203735 -0.109601556 0.993214099 0.0389005522 0 0
1.208372 0.92439 -1.135836 -0.113302315 0.993220297 0.0260005313 0 0
1.210594 0.92439 -1.120689 -0.110603606 0.993832399 0.00800026081 0 0
1.21022 0.92439 -1.105379 -0.107899112 0.994091819 -0.0117999029 0 0
1.20726 0.92439 -1.090353 -0.106203817 0.993835719 -0.031801143 0 0
1.201802 0.92439 -1.07605 -0.10500151 0.993214283 -0.050000719 0 0
1.167764 0.92439 -1.014064 -0.0985021976 0.993222159 -0.0617013766 0 0
1.158624 0.92439 -1.001782 -0.083902773 0.993832847 -0.0725023962 0 0
1.147534 0.92439 -0.991221 -0.0678993444 0.994090402 -0.0846991822 0 0
1.120842 0.92439 -0.976435 -0.0389005522 0.993214099 -0.109601556 0 0
1.134816 0.92439 -0.982689 -0.0526013022 0.993824602 -0.0977024187 0 0
1.135086 0.916536 -1.081577 0 1 0 0 0
1.041076 0.916536 -1.123968 0 1 0 0 0
1.127297 0.916536 -1.067392 0 1 0 0 0
0.976558 0.916536 -1.20442 0 1 0 0 0
0.989938 0.916536 -1.213522 0 1 0 0 0
1.045984 0.916536 -1.020959 0 1 0 0 0
1.02981 0.916536 -1.02146 0 1 0 0 0
0.960625 0.916536 -1.05945 0 1 0 0 0
0.951523 0.916536 -1.07283 0 1 0 0 0
1.083468 0.916536 -1.217979 0 1 0 0 0
1.097653 0.916536 -1.21019 0 1 0 0 0
0.947066 0.916536 -1.16636 0 1 0 0 0
0.954855 0.916536 -1.180545 0 1 0 0 0
1.144085 0.916536 -1.128877 0 1 0 0 0
1.143585 0.916536 -1.112702 0 1 0 0 0
1.092215 0.916536 -1.034415 0 1 0 0 0
1.077576 0.916536 -1.027518 0 1 0 0 0
1.036168 0.916536 -1.226978 0 1 0 0 0
1.052343 0.916536 -1.226477 0 1 0 0 0
0.9845 0.916536 -1.037747 0 1 0 0 0
0.971708 0.916536 -1.047659 0 1 0 0 0
0.938067 0.916536 -1.11906 0 1 0 0 0
0.938567 0.916536 -1.135235 0 1 0 0 0
1.13063 0.916536 -1.175107 0 1 0 0 0
1.137527 0.916536 -1.160468 0 1 0 0 0
1.004577 0.916536 -1.220419 0 1 0 0 0
1.117385 0.916536 -1.054601 0 1 0 0 0
1.013913 0.916536 -1.024484 0 1 0 0 0
1.110444 0.916536 -1.200278 0 1 0 0 0
0.944625 0.916536 -1.087469 0 1 0 0 0
0.964767 0.916536 -1.193336 0 1 0 0 0
1.140561 0.916536 -1.096805 0 1 0 0 0
1.06824 0.916536 -1.223453 0 1 0 0 0
1.062038 0.916536 -1.022995 0 1 0 0 0
0.941592 0.916536 -1.151132 0 1 0 0 0
1.142049 0.916536 -1.14493 0 1 0 0 0
1.105594 0.916536 -1.043517 0 1 0 0 0
1.020114 0.916536 -1.224941 0 1 0 0 0
0.998684 0.916536 -1.029958 0 1 0 0 0
0.940103 0.916536 -1.103006 0 1 0 0 0
1.121527 0.916536 -1.188487 0 1 0 0 0
1.252366 0.934437 -1.262447 0.0804046471 -0.996357586 -0.0284016415 0 0
1.193076 0.922873 -1.234256 0.131694081 -0.988955552 -0.0679969439 0 0
1.247759 0.934437 -1.273933 0.070798703 -0.996781739 -0.0375993112 0 0
1.196463 0.922873 -1.225809 0.143698941 -0.988392716 -0.0492996367 0 0
1.013079 0.934437 -0.86923 -0.00859973543 -0.996869332 0.078597582 0 0
1.029587 0.922873 -0.936525 0.0132994438 -0.988958638 0.147593827 0 0
1.025453 0.934437 -0.86909 0.00629989309 -0.996783085 0.0798986441 0 0
1.020487 0.922873 -0.936628 -0.0158995998 -0.9892751 0.145196345 0 0
1.210255 0.934437 -0.932695 0.0608992981 -0.996788512 0.0519994007 0 0
1.170636 0.922873 -0.990811 0.129598755 -0.988390507 0.0792992383 0 0
1.217246 0.934437 -0.942906 0.072304193 -0.99635778 0.0452026214 0 0
1.165494 0.922873 -0.983302 0.113695811 -0.988963562 0.0949964999 0 0
0.880746 0.934437 -1.323893 -0.049498348 -0.99686673 -0.0616979409 0 0
0.916658 0.922873 -1.264635 -0.113695811 -0.988963562 -0.0949964999 0 0
0.871897 0.934437 -1.315242 -0.0608992981 -0.996788512 -0.0519994007 0 0
0.923166 0.922873 -1.270998 -0.0913980962 -0.989279393 -0.113897628 0 0
0.788475 0.934437 -1.127428 -0.0831046565 -0.996355827 0.0192010759 0 0
0.885689 0.922873 -1.022128 -0.143698941 -0.988392716 0.0492996367 0 0
0.829787 0.934437 -0.98549 -0.0804046471 -0.996357586 0.0284016415 0 0
0.855307 0.922873 -1.126513 -0.147699254 -0.988395009 0.0354998207 0 0
0.786198 0.934437 -1.139592 -0.0798986441 -0.996783085 0.00629989309 0 0
0.853633 0.922873 -1.135458 -0.147593827 -0.988958638 0.0132994438 0 0
1.23235 0.934437 -1.293148 0.0519994007 -0.996788512 -0.0608992981 0 0
1.174234 0.922873 -1.253528 0.0792992383 -0.988390507 -0.129598755 0 0
1.222139 0.934437 -1.300138 0.0452026214 -0.99635778 -0.072304193 0 0
1.181743 0.922873 -1.248387 0.0949964999 -0.988963562 -0.113695811 0 0
1.295955 0.934437 -1.108345 0.0798986441 -0.996783085 -0.00629989309 0 0
1.226845 0.922873 -1.121424 0.147699254 -0.988395009 -0.0354998207 0 0
1.293678 0.934437 -1.120509 0.0831046565 -0.996355827 -0.0192010759 0 0
1.22852 0.922873 -1.112479 0.147593827 -0.988958638 -0.0132994438 0 0
0.841152 0.934437 -0.963638 -0.0616979409 -0.99686673 0.049498348 0 0
0.900409 0.922873 -0.99955 -0.0949964999 -0.988963562 0.113695811 0 0
0.849803 0.934437 -0.954789 -0.0519994007 -0.996788512 0.0608992981 0 0
0.894047 0.922873 -1.006058 -0.113898668 -0.98928843 0.0912989323 0 0
1.037616 0.934437 -0.871367 0.0192010759 -0.996355827 0.0831046565 0 0
1.142917 0.922873 -0.968582 0.0492996367 -0.988392716 0.143698941 0 0
1.179555 0.934437 -0.912679 0.0284016415 -0.996357586 0.0804046471 0 0
1.038532 0.922873 -0.9382 0.0354998207 -0.988395009 0.147699254 0 0
0.793753 0.934437 -1.175453 -0.0769045552 -0.996359016 -0.0368021799 0 0
0.855612 0.922873 -1.153463 -0.14119411 -0.988958741 -0.0449981227 0 0
0.788888 0.934437 -1.164075 -0.0765988491 -0.996785023 -0.0234996469 0 0
0.859189 0.922873 -1.161831 -0.136498928 -0.988392241 -0.0666994764 0 0
1.0567 0.934437 -1.378847 -0.00629989309 -0.996783085 -0.0798986441 0 0
1.043621 0.922873 -1.309737 -0.0354998207 -0.988395009 -0.147699254 0 0
1.044536 0.934437 -1.37657 -0.0192010759 -0.996355827 -0.0831046565 0 0
1.052566 0.922873 -1.311412 -0.0132994438 -0.988958638 -0.147593827 0 0
1.2884 0.934437 -1.072484 0.0769045552 -0.996359016 0.0368021799 0 0
1.226541 0.922873 -1.094473 0.14119411 -0.988958741 0.0449981227 0 0
1.293264 0.934437 -1.083862 0.0765988491 -0.996785023 0.0234996469 0 0
1.222964 0.922873 -1.086105 0.136498928 -0.988392241 0.0666994764 0 0
1.201407 0.934437 -0.924044 0.049498348 -0.99686673 0.0616979409 0 0
1.158987 0.922873 -0.976939 0.0913980962 -0.989279393 0.113897628 0 0
1.092561 0.934437 -1.371292 0.0368021799 -0.996359016 -0.0769045552 0 0
1.070571 0.922873 -1.309433 0.0449981227 -0.988958741 -0.14119411 0 0
1.081182 0.934437 -1.376156 0.0234996469 -0.996785023 -0.0765988491 0 0
1.078939 0.922873 -1.305856 0.0666994764 -0.988392241 -0.136498928 0 0
0.891112 0.934437 -1.330652 -0.0375993112 -0.996781739 -0.070798703 0 0
0.930789 0.922873 -1.275968 -0.0679969439 -0.988955552 -0.131694081 0 0
0.989592 0.934437 -0.876645 -0.0368021799 -0.996359016 0.0769045552 0 0
1.011581 0.922873 -0.938504 -0.0449981227 -0.988958741 0.14119411 0 0
1.00097 0.934437 -0.871781 -0.0234996469 -0.996785023 0.0765988491 0 0
1.003213 0.922873 -0.942081 -0.0666994764 -0.988392241 0.136498928 0 0
1.241001 0.934437 -1.284299 0.0616979409 -0.99686673 -0.049498348 0 0
1.188105 0.922873 -1.241879 0.113897628 -0.989279393 -0.0913980962 0 0
0.834393 0.934437 -0.974004 -0.070798703 -0.996781739 0.0375993112 0 0
0.889077 0.922873 -1.013681 -0.131694081 -0.988955552 0.0679969439 0 0
0.853736 0.922873 -1.144558 -0.145196345 -0.9892751 -0.0158995998 0 0
0.786337 0.934437 -1.151966 -0.078597582 -0.996869332 -0.00859973543 0 0
0.939236 0.922873 -1.279355 -0.0492996367 -0.988392716 -0.143698941 0 0
0.902597 0.934437 -1.335258 -0.0284016415 -0.996357586 -0.0804046471 0 0
1.228417 0.922873 -1.103379 0.145196345 -0.9892751 0.0158995998 0 0
1.295815 0.934437 -1.095971 0.078597582 -0.996869332 0.00859973543 0 0
0.860014 0.934437 -0.947799 -0.0452026214 -0.99635778 0.072304193 0 0
0.907919 0.922873 -0.994409 -0.0792992383 -0.988390507 0.129598755 0 0
1.191041 0.934437 -0.917286 0.0375993112 -0.996781739 0.070798703 0 0
1.151363 0.922873 -0.971969 0.0679969439 -0.988955552 0.131694081 0 0
1.061666 0.922873 -1.311309 0.0158995998 -0.9892751 -0.145196345 0 0
1.069074 0.934437 -1.378707 0.00859973543 -0.996869332 -0.078597582 0 0
0.911517 0.922873 -1.257126 -0.129598755 -0.988390507 -0.0792992383 0 0
0.864906 0.934437 -1.305031 -0.072304193 -0.99635778 -0.0452026214 0 0
1.115611 0.914422 -1.031027 0.456303071 -0.684204605 0.568903829 0 0
1.110792 0.914422 -1.027885 0.336116341 -0.683433226 0.648031505 0 0
0.97136 0.914422 -1.220052 -0.336116341 -0.683433226 -0.648031505 0 0
0.9767 0.914422 -1.222193 -0.241206309 -0.671217556 -0.700918333 0 0
1.054092 0.914422 -1.242392 0.0797015247 -0.684213089 -0.724913868 0 0
1.059721 0.914422 -1.241206 0.220602567 -0.683407951 -0.695908097 0 0
1.028061 0.914422 -1.005545 -0.0797015247 -0.684213089 0.724913868 0 0
1.022432 0.914422 -1.006731 -0.220602567 -0.683407951 0.695908097 0 0
1.134018 0.914422 -1.198503 0.568903829 -0.684204605 -0.456303071 0 0
1.13716 0.914422 -1.193684 0.648031505 -0.683433226 -0.336116341 0 0
1.156053 0.914422 -1.100034 0.666192709 -0.671192654 0.325096442 0 0
1.122975 0.914422 -1.039795 0.63182703 -0.671228716 0.387616583 0 0
0.944993 0.914422 -1.054253 -0.648031505 -0.683433226 0.336116341 0 0
0.942851 0.914422 -1.059592 -0.700918333 -0.671217556 0.241206309 0 0
0.959178 0.914422 -1.208142 -0.63182703 -0.671228716 -0.387616583 0 0
0.962428 0.914422 -1.212888 -0.559610868 -0.683413272 -0.468809104 0 0
1.065011 0.914422 -1.238945 0.325096442 -0.671192654 -0.666192709 0 0
1.125249 0.914422 -1.205867 0.387616583 -0.671228716 -0.63182703 0 0
0.922587 0.914422 -1.131231 -0.727208348 -0.683407846 0.064200737 0 0
0.922652 0.914422 -1.136984 -0.724913868 -0.684213089 -0.0797015247 0 0
0.956903 0.914422 -1.04207 -0.387616583 -0.671228716 0.63182703 0 0
0.952156 0.914422 -1.04532 -0.468809104 -0.683413272 0.559610868 0 0
1.159565 0.914422 -1.116705 0.727208348 -0.683407846 -0.064200737 0 0
1.1595 0.914422 -1.110953 0.724913868 -0.684213089 0.0797015247 0 0
1.105453 0.914422 -1.025744 0.241206309 -0.671217556 0.700918333 0 0
0.9261 0.914422 -1.147903 -0.666192709 -0.671192654 -0.325096442 0 0
1.048339 0.914422 -1.242457 -0.064200737 -0.683407846 -0.727208348 0 0
1.139301 0.914422 -1.188345 0.700918333 -0.671217556 -0.241206309 0 0
1.033813 0.914422 -1.00548 0.064200737 -0.683407846 0.727208348 0 0
1.119725 0.914422 -1.035048 0.559610868 -0.683413272 0.468809104 0 0
0.966541 0.914422 -1.21691 -0.456303071 -0.684204605 -0.568903829 0 0
0.923646 0.914422 -1.125577 -0.720901078 -0.671201003 0.172600258 0 0
1.129996 0.914422 -1.202617 0.468809104 -0.683413272 -0.559610868 0 0
0.948135 0.914422 -1.049433 -0.568903829 -0.684204605 0.456303071 0 0
1.158507 0.914422 -1.12236 0.720901078 -0.671201003 -0.172600258 0 0
1.039468 0.914422 -1.006538 0.172600258 -0.671201003 0.720901078 0 0
0.923838 0.914422 -1.142613 -0.695908097 -0.683407951 -0.220602567 0 0
1.042685 0.914422 -1.241399 -0.172600258 -0.671201003 -0.720901078 0 0
1.158314 0.914422 -1.105324 0.695908097 -0.683407951 0.220602567 0 0
1.017142 0.914422 -1.008992 -0.325096442 -0.671192654 0.666192709 0 0
1.125249 0.90953 -1.205867 0.375999494 -0.696199064 -0.611499178 0 0
1.129996 0.90953 -1.202617 0.468100735 -0.685701077 -0.557400875 0 0
0.923646 0.90953 -1.125577 -0.698234937 -0.696234837 0.166508331 0 0
0.922587 0.90953 -1.131231 -0.725123164 -0.685721906 0.0631020158 0 0
1.158507 0.90953 -1.12236 0.698234937 -0.696234837 -0.166508331 0 0
1.159565 0.90953 -1.116705 0.725123164 -0.685721906 -0.0631020158 0 0
0.952156 0.90953 -1.04532 -0.468100735 -0.685701077 0.557400875 0 0
0.948135 0.90953 -1.049433 -0.567808378 -0.685710118 0.45540672 0 0
1.105453 0.90953 -1.025744 0.23421097 -0.696232609 0.67853178 0 0
1.039468 0.90953 -1.006538 0.166508331 -0.696234837 0.698234937 0 0
0.923838 0.90953 -1.142613 -0.694112456 -0.685712305 -0.219103932 0 0
0.9261 0.90953 -1.147903 -0.645413799 -0.696214885 -0.314206718 0 0
1.042685 0.90953 -1.241399 -0.166508331 -0.696234837 -0.698234937 0 0
1.048339 0.90953 -1.242457 -0.0631020158 -0.685721906 -0.725123164 0 0
1.033813 0.90953 -1.00548 0.0631020158 -0.685721906 0.725123164 0 0
1.158314 0.90953 -1.105324 0.694112456 -0.685712305 0.219103932 0 0
1.156053 0.90953 -1.100034 0.645413799 -0.696214885 0.314206718 0 0
1.119725 0.90953 -1.035048 0.557400875 -0.685701077 0.468100735 0 0
1.115611 0.90953 -1.031027 0.45540672 -0.685710118 0.567808378 0 0
0.966541 0.90953 -1.21691 -0.45540672 -0.685710118 -0.567808378 0 0
0.97136 0.90953 -1.220052 -0.335821053 -0.685742991 -0.645740483 0 0
1.059721 0.90953 -1.241206 0.219103932 -0.685712305 -0.694112456 0 0
1.065011 0.90953 -1.238945 0.314206718 -0.696214885 -0.645413799 0 0
1.022432 0.90953 -1.006731 -0.219103932 -0.685712305 0.694112456 0 0
1.017142 0.90953 -1.008992 -0.314206718 -0.696214885 0.645413799 0 0
1.134018 0.90953 -1.198503 0.567808378 -0.685710118 -0.45540672 0 0
0.944993 0.90953 -1.054253 -0.645798783 -0.685698707 0.335799367 0 0
1.139301 0.90953 -1.188345 0.67853178 -0.696232609 -0.23421097 0 0
0.9767 0.90953 -1.222193 -0.23421097 -0.696232609 -0.67853178 0 0
0.922652 0.90953 -1.136984 -0.723515559 -0.685714746 -0.0795017097 0 0
0.956903 0.90953 -1.04207 -0.375999494 -0.696199064 0.611499178 0 0
1.1595 0.90953 -1.110953 0.723515559 -0.685714746 0.0795017097 0 0
1.110792 0.90953 -1.027885 0.335821053 -0.685742991 0.645740483 0 0
1.054092 0.90953 -1.242392 0.0795017097 -0.685714746 -0.723515559 0 0
1.028061 0.90953 -1.005545 -0.0795017097 -0.685714746 0.723515559 0 0
1.13716 0.90953 -1.193684 0.645798783 -0.685698707 -0.335799367 0 0
1.122975 0.90953 -1.039795 0.611499178 -0.696199064 0.375999494 0 0
0.959178 0.90953 -1.208142 -0.611499178 -0.696199064 -0.375999494 0 0
0.962428 0.90953 -1.212888 -0.557400875 -0.685701077 -0.468100735 0 0
0.942851 0.90953 -1.059592 -0.67853178 -0.696232609 0.23421097 0 0
1.018639 0.90953 -1.016183 0.30451136 -0.718326798 -0.625523336 0 0
0.962168 0.90953 -1.047192 0.364415122 -0.718329808 -0.592624591 0 0
1.152093 0.90953 -1.111767 -0.67953113 -0.729833434 -0.0747034222 0 0
1.150981 0.90953 -1.10649 -0.651921093 -0.729823614 -0.205806659 0 0
1.110949 0.90953 -1.03684 -0.427711929 -0.729820355 -0.533314874 0 0
1.106432 0.90953 -1.033895 -0.315411442 -0.729826475 -0.606522002 0 0
1.053278 0.90953 -1.234985 -0.0747034222 -0.729833434 0.67953113 0 0
1.058555 0.90953 -1.233874 -0.205791639 -0.729870346 0.651873515 0 0
0.975721 0.90953 -1.214042 0.315411442 -0.729826475 0.606522002 0 0
0.980726 0.90953 -1.21605 0.227008893 -0.718328141 0.657625763 0 0
1.028875 0.90953 -1.012952 0.0747034222 -0.729833434 -0.67953113 0 0
1.023598 0.90953 -1.014063 0.205806659 -0.729823614 -0.651921093 0 0
1.128205 0.90953 -1.193842 -0.533314874 -0.729820355 0.427711929 0 0
1.13115 0.90953 -1.189324 -0.606522002 -0.729826475 0.315411442 0 0
1.148862 0.90953 -1.101531 -0.625523336 -0.718326798 -0.30451136 0 0
1.117852 0.90953 -1.04506 -0.592624591 -0.718329808 -0.364415122 0 0
0.9643 0.90953 -1.202877 0.592624591 -0.718329808 0.364415122 0 0
0.967347 0.90953 -1.207327 0.523523965 -0.729833409 0.439620124 0 0
0.951002 0.90953 -1.058613 0.606522002 -0.729826475 -0.315411442 0 0
0.948995 0.90953 -1.063618 0.657625763 -0.718328141 -0.227008893 0 0
0.929999 0.90953 -1.130777 0.68103898 -0.729841774 -0.0593033943 0 0
0.930059 0.90953 -1.13617 0.67953113 -0.729833434 0.0747034222 0 0
1.063514 0.90953 -1.231754 -0.30451136 -0.718326798 0.625523336 0 0
1.119985 0.90953 -1.200745 -0.364415122 -0.718329808 0.592624591 0 0
1.152154 0.90953 -1.11716 -0.68103898 -0.729841774 0.0593033943 0 0
0.957718 0.90953 -1.050239 0.439620124 -0.729833409 -0.523523965 0 0
1.101426 0.90953 -1.031887 -0.22691404 -0.718344445 -0.657640689 0 0
0.933291 0.90953 -1.146406 0.625523336 -0.718326798 0.30451136 0 0
1.047885 0.90953 -1.235046 0.0593033943 -0.729841774 0.68103898 0 0
1.034268 0.90953 -1.012891 -0.0593033943 -0.729841774 -0.68103898 0 0
1.133157 0.90953 -1.184318 -0.657640689 -0.718344445 0.22691404 0 0
1.114806 0.90953 -1.04061 -0.523485756 -0.72988014 -0.439588039 0 0
0.930991 0.90953 -1.125476 0.67672445 -0.718325954 -0.161405832 0 0
0.971203 0.90953 -1.211097 0.427711929 -0.729820355 0.533314874 0 0
1.124435 0.90953 -1.197698 -0.439620124 -0.729833409 0.523523965 0 0
0.953948 0.90953 -1.054095 0.533314874 -0.729820355 -0.427711929 0 0
1.151162 0.90953 -1.122461 -0.67672445 -0.718325954 0.161405832 0 0
1.039569 0.90953 -1.013883 -0.161405832 -0.718325954 -0.67672445 0 0
1.042584 0.90953 -1.234054 0.161405832 -0.718325954 0.67672445 0 0
0.931171 0.90953 -1.141447 0.651921093 -0.729823614 0.205806659 0 0
1.117852 0.912643 -1.04506 -0.611499178 -0.696199064 -0.375999494 0 0
1.114806 0.912643 -1.04061 -0.557400875 -0.685701077 -0.468100735 0 0
0.967347 0.912643 -1.207327 0.557400875 -0.685701077 0.468100735 0 0
0.971203 0.912643 -1.211097 0.45540672 -0.685710118 0.567808378 0 0
0.948995 0.912643 -1.063618 0.67853178 -0.696232609 -0.23421097 0 0
0.930991 0.912643 -1.125476 0.698234937 -0.696234837 -0.166508331 0 0
0.929999 0.912643 -1.130777 0.725123164 -0.685721906 -0.0631020158 0 0
1.119985 0.912643 -1.200745 -0.375999494 -0.696199064 0.611499178 0 0
1.124435 0.912643 -1.197698 -0.468100735 -0.685701077 0.557400875 0 0
0.957718 0.912643 -1.050239 0.468100735 -0.685701077 -0.557400875 0 0
0.953948 0.912643 -1.054095 0.567808378 -0.685710118 -0.45540672 0 0
1.151162 0.912643 -1.122461 -0.698234937 -0.696234837 0.166508331 0 0
1.152154 0.912643 -1.11716 -0.725123164 -0.685721906 0.0631020158 0 0
1.101426 0.912643 -1.031887 -0.23421097 -0.696232609 -0.67853178 0 0
1.039569 0.912643 -1.013883 -0.166508331 -0.696234837 -0.698234937 0 0
0.931171 0.912643 -1.141447 0.694112456 -0.685712305 0.219103932 0 0
0.933291 0.912643 -1.146406 0.645413799 -0.696214885 0.314206718 0 0
1.042584 0.912643 -1.234054 0.166508331 -0.696234837 0.698234937 0 0
1.047885 0.912643 -1.235046 0.0631020158 -0.685721906 0.725123164 0 0
1.034268 0.912643 -1.012891 -0.0631020158 -0.685721906 -0.725123164 0 0
1.150981 0.912643 -1.10649 -0.694112456 -0.685712305 -0.219103932 0 0
1.148862 0.912643 -1.101531 -0.645413799 -0.696214885 -0.314206718 0 0
1.110949 0.912643 -1.03684 -0.45540672 -0.685710118 -0.567808378 0 0
1.058555 0.912643 -1.233874 -0.219103932 -0.685712305 0.694112456 0 0
1.063514 0.912643 -1.231754 -0.314206718 -0.696214885 0.645413799 0 0
0.975721 0.912643 -1.214042 0.335888086 -0.68567568 0.645777095 0 0
1.128205 0.912643 -1.193842 -0.567808378 -0.685710118 0.45540672 0 0
1.023598 0.912643 -1.014063 0.219103932 -0.685712305 -0.694112456 0 0
1.018639 0.912643 -1.016183 0.314206718 -0.696214885 -0.645413799 0 0
0.951002 0.912643 -1.058613 0.645777095 -0.68567568 -0.335888086 0 0
1.133157 0.912643 -1.184318 -0.67853178 -0.696232609 0.23421097 0 0
0.930059 0.912643 -1.13617 0.723515559 -0.685714746 0.0795017097 0 0
0.980726 0.912643 -1.21605 0.23421097 -0.696232609 0.67853178 0 0
1.152093 0.912643 -1.111767 -0.723515559 -0.685714746 -0.0795017097 0 0
0.962168 0.912643 -1.047192 0.375999494 -0.696199064 -0.611499178 0 0
1.106432 0.912643 -1.033895 -0.335888086 -0.68567568 -0.645777095 0 0
1.053278 0.912643 -1.234985 -0.0795017097 -0.685714746 0.723515559 0 0
1.028875 0.912643 -1.012952 0.0795017097 -0.685714746 -0.723515559 0 0
1.13115 0.912643 -1.189324 -0.645798783 -0.685698707 0.335799367 0 0
0.9643 0.912643 -1.202877 0.611499178 -0.696199064 0.375999494 0 0
1.041076 0.912643 -1.123968 0 -1 0 0 0
3 0 1 2
3 0 3 1
3 2 4 5
3 2 1 4
3 5 6 7
3 5 4 6
3 7 8 9
3 7 6 8
3 9 10 11
3 9 8 10
3 11 12 13
3 11 10 12
3 13 14 15
3 13 12 14
3 15 16 17
3 15 14 16
3 17 18 19
3 17 16 18
3 19 20 21
3 19 18 20
3 21 22 23
3 21 20 22
3 23 24 25
3 23 22 24
3 25 26 27
3 25 24 26
3 27 28 29
3 27 26 28
3 29 30 31
3 29 28 30
3 31 32 33
3 31 30 32
3 33 34 35
3 33 32 34
3 35 36 37
3 35 34 36
3 37 38 39
3 37 36 38
3 39 40 41
3 39 38 40
3 41 42 43
3 41 40 42
3 43 44 45
3 43 42 44
3 45 46 47
3 45 44 46
3 47 48 49
3 47 46 48
3 49 50 51
3 49 48 50
3 51 52 53
3 51 50 52
3 53 54 55
3 53 52 54
3 55 56 57
3 55 54 56
3 57 58 59
3 57 56 58
3 59 60 61
3 59 58 60
3 61 62 63
3 61 60 62
3 63 64 65
3 63 62 64
3 65 66 67
3 65 64 66
3 67 68 69
3 67 66 68
3 69 70 71
3 69 68 70
3 71 72 73
3 71 70 72
3 73 74 75
3 73 72 74
3 76 3 0
3 76 77 3
3 78 77 76
3 78 79 77
3 75 79 78
3 75 74 79
3 80 81 82
3 80 83 81
3 82 84 85
3 82 81 84
3 85 86 87
3 85 84 86
3 87 88 89
3 87 86 88
3 89 90 91
3 89 88 90
3 91 92 93
3 91 90 92
3 93 94 95
3 93 92 94
3 95 96 97
3 95 94 96
3 97 98 99
3 97 96 98
3 99 100 101
3 99 98 100
3 101 102 103
3 101 100 102
3 103 104 105
3 103 102 104
3 105 106 107
3 105 104 106
3 107 108 109
3 107 106 108
3 109 110 111
3 109 108 110
3 111 112 113
3 111 110 112
3 113 114 115
3 113 112 114
3 115 116 117
3 115 114 116
3 117 118 119
3 117 116 118
3 119 120 121
3 119 118 120
3 121 122 123
3 121 120 122
3 123 124 125
3 123 122 124
3 125 126 127
3 125 124 126
3 127 128 129
3 127 126 128
3 129 130 131
3 129 128 130
3 131 132 133
3 131 130 132
3 133 134 135
3 133 132 134
3 135 136 137
3 135 134 136
3 137 138 139
3 137 136 138
3 139 140 141
3 139 138 140
3 141 142 143
3 141 140 142
3 143 144 145
3 143 142 144
3 145 146 147
3 145 144 146
3 147 148 149
3 147 146 148
3 149 150 151
3 149 148 150
3 151 152 153
3 151 150 152
3 153 154 155
3 153 152 154
3 156 83 80
3 156 157 83
3 158 157 156
3 158 159 157
3 155 159 158
3 155 154 159
3 83 160 81
3 83 161 160
3 81 162 84
3 81 160 162
3 84 163 86
3 84 162 163
3 86 164 88
3 86 163 164
3 88 165 90
3 88 164 165
3 90 166 92
3 90 165 166
3 92 167 94
3 92 166 167
3 94 168 96
3 94 167 168
3 96 169 98
3 96 168 169
3 98 170 100
3 98 169 170
3 100 171 102
3 100 170 171
3 102 172 104
3 102 171 172
3 104 173 106
3 104 172 173
3 106 174 108
3 106 173 174
3 108 175 110
3 108 174 175
3 110 176 112
3 110 175 176
3 112 177 114
3 112 176 177
3 114 178 116
3 114 177 178
3 116 179 118
3 116 178 179
3 118 180 120
3 118 179 180
3 120 181 122
3 120 180 181
3 122 182 124
3 122 181 182
3 124 183 126
3 124 182 183
3 126 184 128
3 126 183 184
3 128 185 130
3 128 184 185
3 130 186 132
3 130 185 186
3 132 187 134
3 132 186 187
3 134 188 136
3 134 187 188
3 136 189 138
3 136 188 189
3 138 190 140
3 138 189 190
3 140 191 142
3 140 190 191
3 142 192 144
3 142 191 192
3 144 193 146
3 144 192 193
3 146 194 148
3 146 193 194
3 148 195 150
3 148 194 195
3 150 196 152
3 150 195 196
3 152 197 154
3 152 196 197
3 157 161 83
3 157 198 161
3 159 198 157
3 159 199 198
3 154 199 159
3 154 197 199
3 200 201 202
3 203 201 204
3 205 201 206
3 207 201 208
3 209 201 210
3 211 201 212
3 213 201 214
3 215 201 216
3 217 201 218
3 219 201 220
3 221 201 222
3 223 201 224
3 204 201 225
3 202 201 226
3 206 201 227
3 210 201 228
3 208 201 229
3 212 201 230
3 214 201 231
3 218 201 232
3 216 201 233
3 220 201 207
3 222 201 234
3 224 201 235
3 226 201 236
3 225 201 237
3 227 201 238
3 229 201 239
3 228 201 240
3 230 201 203
3 231 201 200
3 232 201 209
3 233 201 205
3 234 201 211
3 235 201 213
3 237 201 217
3 236 201 215
3 238 201 219
3 240 201 223
3 239 201 221
3 241 242 243
3 241 244 242
3 245 246 247
3 245 248 246
3 249 250 251
3 249 252 250
3 253 254 255
3 253 256 254
3 257 258 259
3 257 260 258
3 261 260 257
3 261 262 260
3 263 264 265
3 263 266 264
3 267 268 269
3 267 270 268
3 271 272 273
3 271 274 272
3 275 276 277
3 275 278 276
3 279 280 281
3 279 282 280
3 283 284 285
3 283 286 284
3 247 278 275
3 247 246 278
3 287 288 289
3 287 290 288
3 291 252 249
3 291 292 252
3 293 294 295
3 293 296 294
3 297 256 253
3 297 298 256
3 299 300 301
3 299 302 300
3 303 266 263
3 303 304 266
3 305 274 271
3 305 306 274
3 269 244 241
3 269 268 244
3 281 307 308
3 281 280 307
3 285 309 310
3 285 284 309
3 289 311 312
3 289 288 311
3 313 302 299
3 313 314 302
3 315 292 291
3 315 316 292
3 310 298 297
3 310 309 298
3 295 317 318
3 295 294 317
3 301 248 245
3 301 300 248
3 243 304 303
3 243 242 304
3 251 290 287
3 251 250 290
3 259 306 305
3 259 258 306
3 255 319 320
3 255 254 319
3 308 262 261
3 308 307 262
3 265 296 293
3 265 264 296
3 273 314 313
3 273 272 314
3 312 270 267
3 312 311 270
3 277 316 315
3 277 276 316
3 318 286 283
3 318 317 286
3 320 282 279
3 320 319 282
3 316 321 292
3 316 322 321
3 309 323 298
3 309 324 323
3 294 325 317
3 294 326 325
3 300 327 248
3 300 328 327
3 242 329 304
3 242 330 329
3 250 331 290
3 250 332 331
3 258 333 306
3 258 334 333
3 254 335 319
3 254 336 335
3 264 337 296
3 264 338 337
3 307 339 262
3 307 340 339
3 272 341 314
3 272 342 341
3 311 343 270
3 311 344 343
3 276 322 316
3 276 345 322
3 319 346 282
3 319 335 346
3 317 347 286
3 317 325 347
3 244 330 242
3 244 348 330
3 248 349 246
3 248 327 349
3 252 332 250
3 252 350 332
3 256 336 254
3 256 351 336
3 260 334 258
3 260 352 334
3 262 352 260
3 262 339 352
3 266 338 264
3 266 353 338
3 274 342 272
3 274 354 342
3 270 355 268
3 270 343 355
3 278 345 276
3 278 356 345
3 282 357 280
3 282 346 357
3 286 358 284
3 286 347 358
3 246 356 278
3 246 349 356
3 290 359 288
3 290 331 359
3 292 350 252
3 292 321 350
3 298 351 256
3 298 323 351
3 296 326 294
3 296 337 326
3 304 353 266
3 304 329 353
3 302 328 300
3 302 360 328
3 306 354 274
3 306 333 354
3 268 348 244
3 268 355 348
3 280 340 307
3 280 357 340
3 284 324 309
3 284 358 324
3 314 360 302
3 314 341 360
3 288 344 311
3 288 359 344
3 353 361 338
3 353 362 361
3 339 363 352
3 339 364 363
3 343 365 355
3 343 366 365
3 354 367 342
3 354 368 367
3 356 369 345
3 356 370 369
3 346 371 357
3 346 372 371
3 347 373 358
3 347 374 373
3 349 370 356
3 349 375 370
3 331 376 359
3 331 377 376
3 321 378 350
3 321 379 378
3 323 380 351
3 323 381 380
3 337 382 326
3 337 383 382
3 360 384 328
3 360 385 384
3 329 362 353
3 329 386 362
3 333 368 354
3 333 387 368
3 355 388 348
3 355 365 388
3 358 389 324
3 358 373 389
3 357 390 340
3 357 371 390
3 341 385 360
3 341 391 385
3 359 392 344
3 359 376 392
3 322 379 321
3 322 393 379
3 324 381 323
3 324 389 381
3 326 394 325
3 326 382 394
3 328 395 327
3 328 384 395
3 330 386 329
3 330 396 386
3 332 377 331
3 332 397 377
3 336 398 335
3 336 399 398
3 334 387 333
3 334 400 387
3 340 364 339
3 340 390 364
3 338 383 337
3 338 361 383
3 342 391 341
3 342 367 391
3 344 366 343
3 344 392 366
3 345 393 322
3 345 369 393
3 325 374 347
3 325 394 374
3 335 372 346
3 335 398 372
3 327 375 349
3 327 395 375
3 348 396 330
3 348 388 396
3 350 397 332
3 350 378 397
3 351 399 336
3 351 380 399
3 352 400 334
3 352 363 400
3 391 401 385
3 391 402 401
3 376 403 392
3 376 404 403
3 393 405 379
3 393 406 405
3 382 407 394
3 382 408 407
3 389 409 381
3 389 410 409
3 384 411 395
3 384 412 411
3 396 413 386
3 396 414 413
3 397 415 377
3 397 416 415
3 399 417 398
3 399 418 417
3 400 419 387
3 400 420 419
3 390 421 364
3 390 422 421
3 361 423 383
3 361 424 423
3 392 425 366
3 392 403 425
3 367 402 391
3 367 426 402
3 369 406 393
3 369 427 406
3 398 428 372
3 398 417 428
3 394 429 374
3 394 407 429
3 395 430 375
3 395 411 430
3 388 414 396
3 388 431 414
3 378 416 397
3 378 432 416
3 363 420 400
3 363 433 420
3 380 418 399
3 380 434 418
3 364 433 363
3 364 421 433
3 362 424 361
3 362 435 424
3 368 426 367
3 368 436 426
3 366 437 365
3 366 425 437
3 370 427 369
3 370 438 427
3 374 439 373
3 374 429 439
3 372 440 371
3 372 428 440
3 377 404 376
3 377 415 404
3 375 438 370
3 375 430 438
3 379 432 378
3 379 405 432
3 381 434 380
3 381 409 434
3 383 408 382
3 383 423 408
3 385 412 384
3 385 401 412
3 386 435 362
3 386 413 435
3 365 431 388
3 365 437 431
3 387 436 368
3 387 419 436
3 371 422 390
3 371 440 422
3 373 410 389
3 373 439 410
3 432 441 416
3 432 442 441
3 434 443 418
3 434 444 443
3 433 445 420
3 433 446 445
3 421 446 433
3 421 447 446
3 435 448 424
3 435 449 448
3 436 450 426
3 436 451 450
3 425 452 437
3 425 453 452
3 438 454 427
3 438 455 454
3 428 456 440
3 428 457 456
3 429 458 439
3 429 459 458
3 430 455 438
3 430 460 455
3 415 461 404
3 415 462 461
3 405 442 432
3 405 463 442
3 423 464 408
3 423 465 464
3 409 444 434
3 409 466 444
3 413 449 435
3 413 467 449
3 401 468 412
3 401 469 468
3 419 451 436
3 419 470 451
3 437 471 431
3 437 452 471
3 440 472 422
3 440 456 472
3 439 473 410
3 439 458 473
3 404 474 403
3 404 461 474
3 402 469 401
3 402 475 469
3 406 463 405
3 406 476 463
3 410 466 409
3 410 473 466
3 408 477 407
3 408 464 477
3 412 478 411
3 412 468 478
3 414 467 413
3 414 479 467
3 416 462 415
3 416 441 462
3 420 470 419
3 420 445 470
3 418 480 417
3 418 443 480
3 422 447 421
3 422 472 447
3 424 465 423
3 424 448 465
3 426 475 402
3 426 450 475
3 403 453 425
3 403 474 453
3 427 476 406
3 427 454 476
3 417 457 428
3 417 480 457
3 407 459 429
3 407 477 459
3 431 479 414
3 431 471 479
3 411 460 430
3 411 478 460
3 458 481 473
3 456 481 472
3 475 481 469
3 461 481 474
3 476 481 463
3 473 481 466
3 464 481 477
3 479 481 467
3 468 481 478
3 441 481 462
3 443 481 480
3 445 481 470
3 472 481 447
3 448 481 465
3 450 481 475
3 474 481 453
3 454 481 476
3 480 481 457
3 477 481 459
3 478 481 460
3 471 481 479
3 442 481 441
3 444 481 443
3 446 481 445
3 449 481 448
3 447 481 446
3 451 481 450
3 453 481 452
3 455 481 454
3 457 481 456
3 459 481 458
3 460 481 455
3 462 481 461
3 463 481 442
3 466 481 444
3 465 481 464
3 469 481 468
3 467 481 449
3 470 481 451
3 452 481 471
