ply
format ascii 1.0
element vertex 132
property float x
property float y
property float z
property float nx
property float ny
property float nz
property float u
property float v
element face 44
property list uchar int vertex_indices
end_header
3.587819 0.783907 -0.622151 0 -1 -0 0 0
-2.253364 0.783907 -3.207952 0 -1 -0 0 0
3.587819 0.783907 -3.207952 0 -1 -0 0 0
3.587819 0.783907 -0.622151 -0 -1 0 0 0
-2.253364 0.783907 -0.622151 -0 -1 0 0 0
-2.253364 0.783907 -3.207952 -0 -1 0 0 0
-2.259861 0.903786 -3.207952 -1 0 0 0 0
-2.259861 0.790404 -0.622151 -1 0 0 0 0
-2.259861 0.903786 -0.622151 -1 0 0 0 0
-2.259861 0.903786 -3.207952 -1 0 0 0 0
-2.259861 0.790404 -3.207952 -1 0 0 0 0
-2.259861 0.790404 -0.622151 -1 0 0 0 0
-2.253364 0.910283 -0.622151 0 1 0 0 0
3.587819 0.910283 -3.207952 0 1 0 0 0
-2.253364 0.910283 -3.207952 0 1 0 0 0
-2.253364 0.910283 -0.622151 -0 1 0 0 0
3.587819 0.910283 -0.622151 -0 1 0 0 0
3.587819 0.910283 -3.207952 -0 1 0 0 0
3.587819 0.903786 -3.21445 -0 0 -1 0 0
-2.253364 0.790404 -3.21445 -0 0 -1 0 0
-2.253364 0.903786 -3.21445 -0 0 -1 0 0
3.587819 0.903786 -3.21445 0 -0 -1 0 0
3.587819 0.790404 -3.21445 0 -0 -1 0 0
-2.253364 0.790404 -3.21445 0 -0 -1 0 0
-2.253364 0.903786 -0.615654 -0 0 1 0 0
3.587819 0.790404 -0.615654 -0 0 1 0 0
3.587819 0.903786 -0.615654 -0 0 1 0 0
-2.253364 0.903786 -0.615654 0 0 1 0 0
-2.253364 0.790404 -0.615654 0 0 1 0 0
3.587819 0.790404 -0.615654 0 0 1 0 0
3.587819 0.783907 -0.622151 0.577350269 -0.577350269 0.577350269 0 0
3.594316 0.790404 -0.622151 0.577350269 -0.577350269 0.577350269 0 0
3.587819 0.790404 -0.615654 0.577350269 -0.577350269 0.577350269 0 0
3.594316 0.790404 -3.207952 0.577379886 -0.577379886 -0.577291031 0 0
3.587819 0.783907 -3.207952 0.577379886 -0.577379886 -0.577291031 0 0
3.587819 0.790404 -3.21445 0.577379886 -0.577379886 -0.577291031 0 0
-2.253364 0.790404 -3.21445 -0.577379886 -0.577379886 -0.577291031 0 0
-2.253364 0.783907 -3.207952 -0.577379886 -0.577379886 -0.577291031 0 0
-2.259861 0.790404 -3.207952 -0.577379886 -0.577379886 -0.577291031 0 0
-2.259861 0.790404 -0.622151 -0.577350269 -0.577350269 0.577350269 0 0
-2.253364 0.783907 -0.622151 -0.577350269 -0.577350269 0.577350269 0 0
-2.253364 0.790404 -0.615654 -0.577350269 -0.577350269 0.577350269 0 0
3.594316 0.903786 -0.622151 0.577350269 0.577350269 0.577350269 0 0
3.587819 0.910283 -0.622151 0.577350269 0.577350269 0.577350269 0 0
3.587819 0.903786 -0.615654 0.577350269 0.577350269 0.577350269 0 0
3.594316 0.903786 -3.207952 0.577379886 0.577379886 -0.577291031 0 0
3.587819 0.903786 -3.21445 0.577379886 0.577379886 -0.577291031 0 0
3.587819 0.910283 -3.207952 0.577379886 0.577379886 -0.577291031 0 0
-2.253364 0.903786 -3.21445 -0.577379886 0.577379886 -0.577291031 0 0
-2.259861 0.903786 -3.207952 -0.577379886 0.577379886 -0.577291031 0 0
-2.253364 0.910283 -3.207952 -0.577379886 0.577379886 -0.577291031 0 0
-2.259861 0.903786 -0.622151 -0.577350269 0.577350269 0.577350269 0 0
-2.253364 0.903786 -0.615654 -0.577350269 0.577350269 0.577350269 0 0
-2.253364 0.910283 -0.622151 -0.577350269 0.577350269 0.577350269 0 0
3.587819 0.790404 -0.615654 0.707106781 -0 0.707106781 0 0
3.594316 0.903786 -0.622151 0.707106781 -0 0.707106781 0 0
3.587819 0.903786 -0.615654 0.707106781 -0 0.707106781 0 0
3.587819 0.790404 -0.615654 0.707106781 0 0.707106781 0 0
3.594316 0.790404 -0.622151 0.707106781 0 0.707106781 0 0
3.594316 0.903786 -0.622151 0.707106781 0 0.707106781 0 0
3.587819 0.910283 -0.622151 0.707106781 0.707106781 0 0 0
3.594316 0.903786 -3.207952 0.707106781 0.707106781 0 0 0
3.587819 0.910283 -3.207952 0.707106781 0.707106781 0 0 0
3.587819 0.910283 -0.622151 0.707106781 0.707106781 0 0 0
3.594316 0.903786 -0.622151 0.707106781 0.707106781 0 0 0
3.594316 0.903786 -3.207952 0.707106781 0.707106781 0 0 0
3.587819 0.903786 -3.21445 0.707161193 0 -0.707052365 0 0
3.594316 0.790404 -3.207952 0.707161193 0 -0.707052365 0 0
3.587819 0.790404 -3.21445 0.707161193 0 -0.707052365 0 0
3.587819 0.903786 -3.21445 0.707161193 0 -0.707052365 0 0
3.594316 0.903786 -3.207952 0.707161193 0 -0.707052365 0 0
3.594316 0.790404 -3.207952 0.707161193 0 -0.707052365 0 0
3.587819 0.783907 -3.207952 0.707106781 -0.707106781 0 0 0
3.594316 0.790404 -0.622151 0.707106781 -0.707106781 0 0 0
3.587819 0.783907 -0.622151 0.707106781 -0.707106781 0 0 0
3.587819 0.783907 -3.207952 0.707106781 -0.707106781 0 0 0
3.594316 0.790404 -3.207952 0.707106781 -0.707106781 0 0 0
3.594316 0.790404 -0.622151 0.707106781 -0.707106781 0 0 0
3.587819 0.910283 -3.207952 0 0.707161193 -0.707052365 0 0
-2.253364 0.903786 -3.21445 0 0.707161193 -0.707052365 0 0
-2.253364 0.910283 -3.207952 0 0.707161193 -0.707052365 0 0
3.587819 0.910283 -3.207952 0 0.707161193 -0.707052365 0 0
3.587819 0.903786 -3.21445 0 0.707161193 -0.707052365 0 0
-2.253364 0.903786 -3.21445 0 0.707161193 -0.707052365 0 0
-2.259861 0.903786 -3.207952 -0.707161193 -0 -0.707052365 0 0
-2.253364 0.790404 -3.21445 -0.707161193 -0 -0.707052365 0 0
-2.259861 0.790404 -3.207952 -0.707161193 -0 -0.707052365 0 0
-2.259861 0.903786 -3.207952 -0.707161193 0 -0.707052365 0 0
-2.253364 0.903786 -3.21445 -0.707161193 0 -0.707052365 0 0
-2.253364 0.790404 -3.21445 -0.707161193 0 -0.707052365 0 0
-2.253364 0.783907 -3.207952 0 -0.707161193 -0.707052365 0 0
3.587819 0.790404 -3.21445 0 -0.707161193 -0.707052365 0 0
3.587819 0.783907 -3.207952 0 -0.707161193 -0.707052365 0 0
-2.253364 0.783907 -3.207952 0 -0.707161193 -0.707052365 0 0
-2.253364 0.790404 -3.21445 0 -0.707161193 -0.707052365 0 0
3.587819 0.790404 -3.21445 0 -0.707161193 -0.707052365 0 0
-2.253364 0.910283 -3.207952 -0.707106781 0.707106781 0 0 0
-2.259861 0.903786 -0.622151 -0.707106781 0.707106781 0 0 0
-2.253364 0.910283 -0.622151 -0.707106781 0.707106781 0 0 0
-2.253364 0.910283 -3.207952 -0.707106781 0.707106781 0 0 0
-2.259861 0.903786 -3.207952 -0.707106781 0.707106781 0 0 0
-2.259861 0.903786 -0.622151 -0.707106781 0.707106781 0 0 0
-2.253364 0.903786 -0.615654 -0.707106781 0 0.707106781 0 0
-2.259861 0.790404 -0.622151 -0.707106781 0 0.707106781 0 0
-2.253364 0.790404 -0.615654 -0.707106781 0 0.707106781 0 0
-2.253364 0.903786 -0.615654 -0.707106781 0 0.707106781 0 0
-2.259861 0.903786 -0.622151 -0.707106781 0 0.707106781 0 0
-2.259861 0.790404 -0.622151 -0.707106781 0 0.707106781 0 0
-2.253364 0.783907 -0.622151 -0.707106781 -0.707106781 -0 0 0
-2.259861 0.790404 -3.207952 -0.707106781 -0.707106781 -0 0 0
-2.253364 0.783907 -3.207952 -0.707106781 -0.707106781 -0 0 0
-2.253364 0.783907 -0.622151 -0.707106781 -0.707106781 0 0 0
-2.259861 0.790404 -0.622151 -0.707106781 -0.707106781 0 0 0
-2.259861 0.790404 -3.207952 -0.707106781 -0.707106781 0 0 0
-2.253364 0.910283 -0.622151 -0 0.707106781 0.707106781 0 0
3.587819 0.903786 -0.615654 -0 0.707106781 0.707106781 0 0
3.587819 0.910283 -0.622151 -0 0.707106781 0.707106781 0 0
-2.253364 0.910283 -0.622151 0 0.707106781 0.707106781 0 0
-2.253364 0.903786 -0.615654 0 0.707106781 0.707106781 0 0
3.587819 0.903786 -0.615654 0 0.707106781 0.707106781 0 0
3.587819 0.783907 -0.622151 0 -0.707106781 0.707106781 0 0
-2.253364 0.790404 -0.615654 0 -0.707106781 0.707106781 0 0
-2.253364 0.783907 -0.622151 0 -0.707106781 0.707106781 0 0
3.587819 0.783907 -0.622151 0 -0.707106781 0.707106781 0 0
3.587819 0.790404 -0.615654 0 -0.707106781 0.707106781 0 0
-2.253364 0.790404 -0.615654 0 -0.707106781 0.707106781 0 0
3.594316 0.903786 -0.622151 1 0 0 0 0
3.594316 0.790404 -3.207952 1 0 0 0 0
3.594316 0.903786 -3.207952 1 0 0 0 0
3.594316 0.903786 -0.622151 1 0 0 0 0
3.594316 0.790404 -0.622151 1 0 0 0 0
3.594316 0.790404 -3.207952 1 0 0 0 0
3 0 1 2
3 3 4 5
3 6 7 8
3 9 10 11
3 12 13 14
3 15 16 17
3 18 19 20
3 21 22 23
3 24 25 26
3 27 28 29
3 30 31 32
3 33 34 35
3 36 37 38
3 39 40 41
3 42 43 44
3 45 46 47
3 48 49 50
3 51 52 53
3 54 55 56
3 57 58 59
3 60 61 62
3 63 64 65
3 66 67 68
3 69 70 71
3 72 73 74
3 75 76 77
3 78 79 80
3 81 82 83
3 84 85 86
3 87 88 89
3 90 91 92
3 93 94 95
3 96 97 98
3 99 100 101
3 102 103 104
3 105 106 107
3 108 109 110
3 111 112 113
3 114 115 116
3 117 118 119
3 120 121 122
3 123 124 125
3 126 127 128
3 129 130 131
