ply
format ascii 1.0
element vertex 12
property float x
property float y
property float z
property float nx
property float ny
property float nz
property float u
property float v
element face 4
property list uchar int vertex_indices
end_header
6.305749 -1.419958 9.94111877 0 1 0 -3.602685 0.047026
-5.133022 -1.419958 2.51525375 0 1 0 2.6111 -0.835244
-5.133022 -1.419958 9.94111877 0 1 0 -0.054661 -3.501002
6.305749 -1.419958 9.94111877 0 1 0 -3.602685 0.047026
6.305749 -1.419958 2.51525375 0 1 0 -0.936925 2.712785
-5.133022 -1.419958 2.51525375 0 1 0 2.6111 -0.835244
6.305749 -1.419958 2.51525375 0 1 0 -0.936925 2.712785
-5.133022 -1.419958 -4.71470526 0 1 0 4.399319 0.952974
-5.133022 -1.419958 2.51525375 0 1 0 2.6111 -0.835244
6.305749 -1.419958 2.51525375 0 1 0 -0.936925 2.712785
6.305749 -1.419958 -4.71470526 0 1 0 0.851294 4.501002
-5.133022 -1.419958 -4.71470526 0 1 0 4.399319 0.952974
3 0 1 2
3 3 4 5
3 6 7 8
3 9 10 11
