ply
format ascii 1.0
element vertex 90
property float x
property float y
property float z
property float nx
property float ny
property float nz
property float u
property float v
element face 30
property list uchar int vertex_indices
end_header
6.305749 -1.419958 -4.055528 0 1 0 -0.869661 2.381444
-5.133022 -1.419958 -4.542055 0 1 0 3.279252 -0.357881
-5.133022 -1.419958 -4.055528 0 1 0 2.574457 -1.062676
6.305749 -1.419958 -4.055528 0 1 0 -0.869661 2.381444
6.305749 -1.419958 -4.542055 0 1 0 -0.164865 3.086239
-5.133022 -1.419958 -4.542055 0 1 0 3.279252 -0.357881
6.305749 6.862088 -4.542055 0 0 1 0 0
-5.133022 7.903084 -4.542055 0 0 1 0 0
-5.133022 6.862088 -4.542055 0 0 1 0 0
6.305749 6.862088 -4.542055 0 -0 1 0 0
6.305749 7.903084 -4.542055 0 -0 1 0 0
-5.133022 7.903084 -4.542055 0 -0 1 0 0
-5.133022 1.872104 2.823203 1 0 0 0 0
-5.133022 -1.419958 9.888323 1 0 0 0 0
-5.133022 -1.419958 2.823203 1 0 0 0 0
-5.133022 1.872104 2.823203 1 0 -0 0 0
-5.133022 1.872104 9.888323 1 0 -0 0 0
-5.133022 -1.419958 9.888323 1 0 -0 0 0
-5.133022 1.872104 -4.542055 1 0 0 0 0
-5.133022 -1.419958 -4.055528 1 0 0 0 0
-5.133022 -1.419958 -4.542055 1 0 0 0 0
-5.133022 1.872104 -4.542055 1 0 -0 0 0
-5.133022 1.872104 -4.055528 1 0 -0 0 0
-5.133022 -1.419958 -4.055528 1 0 -0 0 0
-5.133022 1.872104 -4.055528 1 0 0 0 0
-5.133022 -1.419958 2.823203 1 0 0 0 0
-5.133022 -1.419958 -4.055528 1 0 0 0 0
-5.133022 1.872104 -4.055528 1 0 -0 0 0
-5.133022 1.872104 2.823203 1 0 -0 0 0
-5.133022 -1.419958 2.823203 1 0 -0 0 0
6.305749 -1.419958 -4.542055 0 0 1 0 0
-5.133022 1.872104 -4.542055 0 0 1 0 0
-5.133022 -1.419958 -4.542055 0 0 1 0 0
6.305749 -1.419958 -4.542055 0 -0 1 0 0
6.305749 1.872104 -4.542055 0 -0 1 0 0
-5.133022 1.872104 -4.542055 0 -0 1 0 0
6.305749 1.872104 -4.542055 0 0 1 0 0
-5.133022 6.862088 -4.542055 0 0 1 0 0
-5.133022 1.872104 -4.542055 0 0 1 0 0
6.305749 1.872104 -4.542055 0 -0 1 0 0
6.305749 6.862088 -4.542055 0 -0 1 0 0
-5.133022 6.862088 -4.542055 0 -0 1 0 0
-5.133022 7.903084 2.823203 1 0 0 0 0
-5.133022 6.862088 9.888323 1 0 0 0 0
-5.133022 6.862088 2.823203 1 0 0 0 0
-5.133022 7.903084 2.823203 1 0 -0 0 0
-5.133022 7.903084 9.888323 1 0 -0 0 0
-5.133022 6.862088 9.888323 1 0 -0 0 0
-5.133022 6.862088 2.823203 1 0 0 0 0
-5.133022 1.872104 9.888323 1 0 0 0 0
-5.133022 1.872104 2.823203 1 0 0 0 0
-5.133022 6.862088 2.823203 1 0 -0 0 0
-5.133022 6.862088 9.888323 1 0 -0 0 0
-5.133022 1.872104 9.888323 1 0 -0 0 0
-5.133022 7.903084 -4.542055 1 0 0 0 0
-5.133022 6.862088 -4.055528 1 0 0 0 0
-5.133022 6.862088 -4.542055 1 0 0 0 0
-5.133022 7.903084 -4.542055 1 0 -0 0 0
-5.133022 7.903084 -4.055528 1 0 -0 0 0
-5.133022 6.862088 -4.055528 1 0 -0 0 0
-5.133022 6.862088 -4.542055 1 0 0 0 0
-5.133022 1.872104 -4.055528 1 0 0 0 0
-5.133022 1.872104 -4.542055 1 0 0 0 0
-5.133022 6.862088 -4.542055 1 0 -0 0 0
-5.133022 6.862088 -4.055528 1 0 -0 0 0
-5.133022 1.872104 -4.055528 1 0 -0 0 0
-5.133022 7.903084 -4.055528 1 0 0 0 0
-5.133022 6.862088 2.823203 1 0 0 0 0
-5.133022 6.862088 -4.055528 1 0 0 0 0
-5.133022 7.903084 -4.055528 1 0 -0 0 0
-5.133022 7.903084 2.823203 1 0 -0 0 0
-5.133022 6.862088 2.823203 1 0 -0 0 0
6.305749 -1.419958 9.888323 0 0 -1 0 0
-5.133022 7.903084 9.888323 0 0 -1 0 0
6.305749 7.903084 9.888323 0 0 -1 0 0
6.305749 -1.419958 9.888323 0 0 -1 0 0
-5.133022 -1.419958 9.888323 0 0 -1 -2.279252 0.971854
-5.133022 7.903084 9.888323 0 0 -1 0 0
6.305749 7.903084 2.823203 0 -1 0 0 0
-5.133022 7.903084 9.888323 0 -1 0 0 0
-5.133022 7.903084 2.823203 0 -1 0 0 0
6.305749 7.903084 2.823203 0 -1 0 0 0
6.305749 7.903084 9.888323 0 -1 0 0 0
-5.133022 7.903084 9.888323 0 -1 0 0 0
6.305749 7.903084 -4.542055 0 -1 0 0 0
-5.133022 7.903084 2.823203 0 -1 0 0 0
-5.133022 7.903084 -4.542055 0 -1 0 0 0
6.305749 7.903084 -4.542055 0 -1 0 0 0
6.305749 7.903084 2.823203 0 -1 0 0 0
-5.133022 7.903084 2.823203 0 -1 0 0 0
3 0 1 2
3 3 4 5
3 6 7 8
3 9 10 11
3 12 13 14
3 15 16 17
3 18 19 20
3 21 22 23
3 24 25 26
3 27 28 29
3 30 31 32
3 33 34 35
3 36 37 38
3 39 40 41
3 42 43 44
3 45 46 47
3 48 49 50
3 51 52 53
3 54 55 56
3 57 58 59
3 60 61 62
3 63 64 65
3 66 67 68
3 69 70 71
3 72 73 74
3 75 76 77
3 78 79 80
3 81 82 83
3 84 85 86
3 87 88 89
