ply
format ascii 1.0
element vertex 400
property float x
property float y
property float z
property float nx
property float ny
property float nz
property float u
property float v
element face 560
property list uchar int vertex_indices
end_header
-1.818132 0.941035 -0.826277 -0.625103466 0.685703802 0.372902068 0 0
-1.806961 0.941035 -0.819292 0.0968056652 0.991458022 -0.0874051151 0 0
-1.814385 0.941035 -0.829344 0.113100858 0.991107518 -0.0701005317 0 0
-1.810569 0.941035 -0.816036 -0.540310841 0.685713759 0.487709786 0 0
-1.769753 0.941035 -1.201388 -0.273315713 0.696240028 -0.663738159 0 0
-1.626241 0.941035 -1.247546 0.0392998583 0.989596433 0.138399501 0 0
-1.626455 0.941035 -1.252331 -0.20691207 0.696240613 -0.687340094 0 0
-1.766898 0.941035 -1.197541 0.0568993568 0.989588813 0.132198506 0 0
-1.878161 0.941035 -1.006167 -0.726917468 0.685716478 -0.0372008939 0 0
-1.87145 0.941035 -1.018276 0.129501708 0.991113073 0.030400401 0 0
-1.876268 0.941035 -1.018756 -0.70570428 0.685704159 -0.178301081 0 0
-1.873308 0.941035 -1.005919 0.130306715 0.991451091 0.00670034528 0 0
-1.353445 0.941035 -0.96663 0.70570428 0.685704159 0.178301081 0 0
-1.362497 0.941035 -0.955353 -0.133699058 0.989593028 -0.0531996252 0 0
-1.357758 0.941035 -0.954652 0.662630084 0.69623161 0.276012531 0 0
-1.358263 0.941035 -0.96711 -0.129501708 0.991113073 -0.030400401 0 0
-1.44844 0.941035 -0.789418 0.372902068 0.685703802 0.625103466 0 0
-1.441455 0.941035 -0.800588 -0.0874051151 0.991458022 -0.0968056652 0 0
-1.451507 0.941035 -0.793164 -0.0701005317 0.991107518 -0.113100858 0 0
-1.438199 0.941035 -0.796981 0.487709786 0.685713759 0.540310841 0 0
-1.781273 0.941035 -1.195968 -0.372902068 0.685703802 -0.625103466 0 0
-1.788258 0.941035 -1.184798 0.0874051151 0.991458022 0.0968056652 0 0
-1.778205 0.941035 -1.192222 0.0701005317 0.991107518 0.113100858 0 0
-1.791514 0.941035 -1.188405 -0.487709786 0.685713759 -0.540310841 0 0
-1.62833 0.941035 -0.729388 -0.0372008939 0.685716478 0.726917468 0 0
-1.640439 0.941035 -0.7361 0.030400401 0.991113073 -0.129501708 0 0
-1.64092 0.941035 -0.731282 -0.178301081 0.685704159 0.70570428 0 0
-1.628082 0.941035 -0.734241 0.00670034528 0.991451091 -0.130306715 0 0
-1.823551 0.941035 -0.837797 -0.663738159 0.696240028 0.273315713 0 0
-1.869709 0.941035 -0.981308 0.138399501 0.989596433 -0.0392998583 0 0
-1.874495 0.941035 -0.981094 -0.687340094 0.696240613 0.20691207 0 0
-1.819705 0.941035 -0.840651 0.132198506 0.989588813 -0.0568993568 0 0
-1.355218 0.941035 -1.004292 0.687340094 0.696240613 -0.20691207 0 0
-1.356992 0.941035 -0.99195 -0.132000289 0.991102171 0.0171000374 0 0
-1.35215 0.941035 -0.991936 0.720214181 0.685713502 -0.105302073 0 0
-1.360004 0.941035 -1.004078 -0.138399501 0.989596433 0.0392998583 0 0
-1.588793 0.941035 -1.254104 0.178301081 0.685704159 -0.70570428 0 0
-1.577516 0.941035 -1.245052 -0.0531996252 0.989593028 0.133699058 0 0
-1.576815 0.941035 -1.249791 0.276012531 0.69623161 -0.662630084 0 0
-1.589274 0.941035 -1.249286 -0.030400401 0.991113073 0.129501708 0 0
-1.419144 0.941035 -1.16935 0.540310841 0.685713759 -0.487709786 0 0
-1.431993 0.941035 -1.174505 -0.0812007385 0.991109014 0.105400959 0 0
-1.422751 0.941035 -1.166094 -0.0968056652 0.991458022 0.0874051151 0 0
-1.42856 0.941035 -1.177919 0.434787398 0.685680126 -0.583783079 0 0
-1.45996 0.941035 -0.783998 0.273315713 0.696240028 0.663738159 0 0
-1.603471 0.941035 -0.73784 -0.0392998583 0.989596433 -0.138399501 0 0
-1.603258 0.941035 -0.733055 0.20691207 0.696240613 0.687340094 0 0
-1.462815 0.941035 -0.787845 -0.0568993568 0.989588813 -0.132198506 0 0
-1.614113 0.941035 -1.250557 0.0171000374 0.991102171 0.132000289 0 0
-1.614099 0.941035 -1.255399 -0.105302073 0.685713502 -0.720214181 0 0
-1.797719 0.941035 -0.810881 0.0812007385 0.991109014 -0.105400959 0 0
-1.801153 0.941035 -0.807467 -0.434812779 0.685720154 0.583717156 0 0
-1.867216 0.941035 -1.030033 0.133699058 0.989593028 0.0531996252 0 0
-1.871954 0.941035 -1.030734 -0.662630084 0.69623161 -0.276012531 0 0
-1.433044 0.941035 -0.80983 -0.105400959 0.991109014 -0.0812007385 0 0
-1.42963 0.941035 -0.806396 0.583783079 0.685680126 0.434787398 0 0
-1.410008 0.941035 -1.144735 -0.132198506 0.989588813 0.0568993568 0 0
-1.406162 0.941035 -1.14759 0.663738159 0.696240028 -0.273315713 0 0
-1.796669 0.941035 -1.175556 0.105400959 0.991109014 0.0812007385 0 0
-1.800083 0.941035 -1.17899 -0.583783079 0.685680126 -0.434787398 0 0
-1.652196 0.941035 -0.740334 0.0531996252 0.989593028 -0.133699058 0 0
-1.652897 0.941035 -0.735595 -0.276012531 0.69623161 0.662630084 0 0
-1.872721 0.941035 -0.993436 0.132000289 0.991102171 -0.0171000374 0 0
-1.877563 0.941035 -0.99345 -0.720214181 0.685713502 0.105302073 0 0
-1.356404 0.941035 -0.979468 -0.130306715 0.991451091 -0.00670034528 0 0
-1.351551 0.941035 -0.979219 0.726917468 0.685716478 0.0372008939 0 0
-1.442699 0.941035 -1.180952 -0.0700992058 0.989588788 0.125698576 0 0
-1.439466 0.941035 -1.184487 0.339629568 0.696260616 -0.632355052 0 0
-1.615599 0.941035 -0.734829 -0.0171000374 0.991102171 -0.132000289 0 0
-1.615613 0.941035 -0.729987 0.105302073 0.685713502 0.720214181 0 0
-1.787014 0.941035 -0.804435 0.0700992058 0.989588788 -0.125698576 0 0
-1.790247 0.941035 -0.8009 -0.339629568 0.696260616 0.632355052 0 0
-1.601631 0.941035 -1.251145 -0.00670034528 0.991451091 0.130306715 0 0
-1.601382 0.941035 -1.255998 0.0372008939 0.685716478 -0.726917468 0 0
-1.803115 0.941035 -1.164851 0.125698576 0.989588788 0.0700992058 0 0
-1.80665 0.941035 -1.168083 -0.632355052 0.696260616 -0.339629568 0 0
-1.415328 0.941035 -1.156042 -0.113100858 0.991107518 0.0701005317 0 0
-1.411581 0.941035 -1.159109 0.625103466 0.685703802 -0.372902068 0 0
-1.426598 0.941035 -0.820535 -0.125698576 0.989588788 -0.0700992058 0 0
-1.423063 0.941035 -0.817303 0.632355052 0.696260616 0.339629568 0 0
-1.800083 0.934437 -1.17899 -0.583783079 -0.685680126 -0.434787398 0 0
-1.786571 0.934437 -1.182929 -0.0529982961 -0.996867951 -0.0586981129 0 0
-1.7949 0.934437 -1.173777 -0.0638988495 -0.996782053 -0.0483991286 0 0
-1.791514 0.934437 -1.188405 -0.487709786 -0.685713759 -0.540310841 0 0
-1.652897 0.934437 -0.735595 -0.276012531 -0.69623161 0.662630084 0 0
-1.64019 0.934437 -0.738596 -0.0189996233 -0.996780239 0.0778984557 0 0
-1.64092 0.934437 -0.731282 -0.178301081 -0.685704159 0.70570428 0 0
-1.651833 0.934437 -0.742789 -0.0322017465 -0.996354039 0.0790042849 0 0
-1.877563 0.934437 -0.99345 -0.720214181 -0.685713502 0.105302073 0 0
-1.86723 0.934437 -0.981419 -0.0819042059 -0.996351164 0.0240012325 0 0
-1.874495 0.934437 -0.981094 -0.687340094 -0.696240613 0.20691207 0 0
-1.870212 0.934437 -0.993429 -0.0793986737 -0.996783349 0.0108998179 0 0
-1.439466 0.934437 -1.184487 0.339629568 -0.696260616 -0.632355052 0 0
-1.57788 0.934437 -1.242598 0.0322017465 -0.996354039 -0.0790042849 0 0
-1.576815 0.934437 -1.249791 0.276012531 -0.69623161 -0.662630084 0 0
-1.444373 0.934437 -1.17912 0.0409024227 -0.996359016 -0.0748044308 0 0
-1.351551 0.934437 -0.979219 0.726917468 -0.685716478 0.0372008939 0 0
-1.359501 0.934437 -0.991957 0.0793986737 -0.996783349 -0.0108998179 0 0
-1.35215 0.934437 -0.991936 0.720214181 -0.685713502 -0.105302073 0 0
-1.358918 0.934437 -0.979596 0.078997369 -0.9968668 0.00399986679 0 0
-1.433772 0.934437 -1.172737 0.0483991286 -0.996782053 -0.0638988495 0 0
-1.42856 0.934437 -1.177919 0.434787398 -0.685680126 -0.583783079 0 0
-1.615613 0.934437 -0.729987 0.105302073 -0.685713502 0.720214181 0 0
-1.603582 0.934437 -0.740319 0.0240012325 -0.996351164 0.0819042059 0 0
-1.603258 0.934437 -0.733055 0.20691207 -0.696240613 0.687340094 0 0
-1.615592 0.934437 -0.737337 0.0108998179 -0.996783349 0.0793986737 0 0
-1.601382 0.934437 -1.255998 0.0372008939 -0.685716478 -0.726917468 0 0
-1.61412 0.934437 -1.248049 -0.0108998179 -0.996783349 -0.0793986737 0 0
-1.614099 0.934437 -1.255399 -0.105302073 -0.685713502 -0.720214181 0 0
-1.60176 0.934437 -1.248631 0.00399986679 -0.9968668 -0.078997369 0 0
-1.790247 0.934437 -0.8009 -0.339629568 -0.696260616 0.632355052 0 0
-1.795941 0.934437 -0.812649 -0.0483991286 -0.996782053 0.0638988495 0 0
-1.785339 0.934437 -0.806266 -0.0409024227 -0.996359016 0.0748044308 0 0
-1.801153 0.934437 -0.807467 -0.434787398 -0.685680126 0.583783079 0 0
-1.423063 0.934437 -0.817303 0.632355052 -0.696260616 0.339629568 0 0
-1.434813 0.934437 -0.811609 0.0638988495 -0.996782053 0.0483991286 0 0
-1.428429 0.934437 -0.82221 0.0748044308 -0.996359016 0.0409024227 0 0
-1.42963 0.934437 -0.806396 0.583783079 -0.685680126 0.434787398 0 0
-1.80665 0.934437 -1.168083 -0.632355052 -0.696260616 -0.339629568 0 0
-1.864761 0.934437 -1.02967 -0.0790042849 -0.996354039 -0.0322017465 0 0
-1.871954 0.934437 -1.030734 -0.662630084 -0.69623161 -0.276012531 0 0
-1.801283 0.934437 -1.163176 -0.0748044308 -0.996359016 -0.0409024227 0 0
-1.411581 0.934437 -1.159109 0.625103466 -0.685703802 -0.372902068 0 0
-1.412001 0.934437 -1.143256 0.0786044311 -0.996356166 -0.033101866 0 0
-1.417269 0.934437 -1.154453 0.0684988681 -0.996783528 -0.0415993126 0 0
-1.406162 0.934437 -1.14759 0.663738159 -0.696240028 -0.273315713 0 0
-1.818132 0.934437 -0.826277 -0.625103466 -0.685703802 0.372902068 0 0
-1.817712 0.934437 -0.84213 -0.0786044311 -0.996356166 0.033101866 0 0
-1.812444 0.934437 -0.830933 -0.0684988681 -0.996783528 0.0415993126 0 0
-1.823551 0.934437 -0.837797 -0.663738159 -0.696240028 0.273315713 0 0
-1.44844 0.934437 -0.789418 0.372902068 -0.685703802 0.625103466 0 0
-1.464294 0.934437 -0.789837 0.033101866 -0.996356166 0.0786044311 0 0
-1.453096 0.934437 -0.795105 0.0415993126 -0.996783528 0.0684988681 0 0
-1.45996 0.934437 -0.783998 0.273315713 -0.696240028 0.663738159 0 0
-1.878161 0.934437 -1.006167 -0.726917468 -0.685716478 -0.0372008939 0 0
-1.870794 0.934437 -1.00579 -0.078997369 -0.9968668 -0.00399986679 0 0
-1.353445 0.934437 -0.96663 0.70570428 -0.685704159 0.178301081 0 0
-1.360759 0.934437 -0.967359 0.0778984557 -0.996780239 0.0189996233 0 0
-1.781273 0.934437 -1.195968 -0.372902068 -0.685703802 -0.625103466 0 0
-1.765419 0.934437 -1.195549 -0.033101866 -0.996356166 -0.0786044311 0 0
-1.776616 0.934437 -1.190281 -0.0415993126 -0.996783528 -0.0684988681 0 0
-1.769753 0.934437 -1.201388 -0.273315713 -0.696240028 -0.663738159 0 0
-1.62833 0.934437 -0.729388 -0.0372008939 -0.685716478 0.726917468 0 0
-1.627953 0.934437 -0.736755 -0.00399986679 -0.9968668 0.078997369 0 0
-1.588793 0.934437 -1.254104 0.178301081 -0.685704159 -0.70570428 0 0
-1.589522 0.934437 -1.24679 0.0189996233 -0.996780239 -0.0778984557 0 0
-1.419144 0.934437 -1.16935 0.540310841 -0.685713759 -0.487709786 0 0
-1.42462 0.934437 -1.164408 0.0586981129 -0.996867951 -0.0529982961 0 0
-1.357758 0.934437 -0.954652 0.662630084 -0.69623161 0.276012531 0 0
-1.364952 0.934437 -0.955716 0.0790042849 -0.996354039 0.0322017465 0 0
-1.626455 0.934437 -1.252331 -0.20691207 -0.696240613 -0.687340094 0 0
-1.626131 0.934437 -1.245067 -0.0240012325 -0.996351164 -0.0819042059 0 0
-1.810569 0.934437 -0.816036 -0.540310841 -0.685713759 0.487709786 0 0
-1.805093 0.934437 -0.820979 -0.0586981129 -0.996867951 0.0529982961 0 0
-1.438199 0.934437 -0.796981 0.487709786 -0.685713759 0.540310841 0 0
-1.443142 0.934437 -0.802457 0.0529982961 -0.996867951 0.0586981129 0 0
-1.876268 0.934437 -1.018756 -0.70570428 -0.685704159 -0.178301081 0 0
-1.868953 0.934437 -1.018027 -0.0778984557 -0.996780239 -0.0189996233 0 0
-1.362483 0.934437 -1.003967 0.0819042059 -0.996351164 -0.0240012325 0 0
-1.355218 0.934437 -1.004292 0.687340094 -0.696240613 -0.20691207 0 0
-1.533754 0.920417 -0.927183 -0.535620043 0.725227139 -0.432616189 0 0
-1.545001 0.916536 -0.915303 -0.485113387 0.689819036 -0.53741483 0 0
-1.545001 0.920417 -0.915303 -0.461314776 0.725223229 -0.511116371 0 0
-1.533754 0.916536 -0.927183 -0.563213436 0.689816456 -0.454910852 0 0
-1.71686 0.920417 -1.014243 0.673687867 0.72518694 0.142297437 0 0
-1.712233 0.916536 -1.029935 0.676218786 0.689819163 0.258607184 0 0
-1.712233 0.920417 -1.029935 0.643113036 0.7252147 0.245904985 0 0
-1.71686 0.916536 -1.014243 0.708337865 0.689836876 0.149607998 0 0
-1.519667 0.920417 -1.035215 -0.628691396 0.725190076 0.280796157 0 0
-1.514187 0.916536 -1.0198 -0.69905443 0.689853714 0.188214655 0 0
-1.514187 0.920417 -1.0198 -0.664828229 0.725230794 0.179007601 0 0
-1.519667 0.916536 -1.035215 -0.661017474 0.689818236 0.295307807 0 0
-1.680366 0.920417 -0.911591 0.432616189 0.725227139 -0.535620043 0 0
-1.692247 0.916536 -0.922838 0.53741483 0.689819036 -0.485113387 0 0
-1.692247 0.920417 -0.922838 0.511116371 0.725223229 -0.461314776 0 0
-1.680366 0.916536 -0.911591 0.454910852 0.689816456 -0.563213436 0 0
-1.572335 0.920417 -0.897504 -0.280796157 0.725190076 -0.628691396 0 0
-1.587749 0.916536 -0.892024 -0.188214655 0.689853714 -0.69905443 0 0
-1.587749 0.920417 -0.892024 -0.179007601 0.725230794 -0.664828229 0 0
-1.572335 0.916536 -0.897504 -0.295216521 0.689838604 -0.661036993 0 0
-1.609528 0.920417 -1.096812 -0.0352009181 0.725218914 0.687617933 0 0
-1.593306 0.916536 -1.094697 -0.149607998 0.689836876 0.708337865 0 0
-1.593306 0.920417 -1.094697 -0.142297437 0.72518694 0.673687867 0 0
-1.609528 0.916536 -1.096812 -0.0370014423 0.68982689 0.723028184 0 0
-1.695958 0.920417 -1.058203 0.535620043 0.725227139 0.432616189 0 0
-1.684712 0.916536 -1.070084 0.485113387 0.689819036 0.53741483 0 0
-1.684712 0.920417 -1.070084 0.461314776 0.725223229 0.511116371 0 0
-1.695958 0.916536 -1.058203 0.563213436 0.689816456 0.454910852 0 0
-1.710046 0.920417 -0.950172 0.628691396 0.725190076 -0.280796157 0 0
-1.715526 0.916536 -0.965586 0.69905443 0.689853714 -0.188214655 0 0
-1.715526 0.920417 -0.965586 0.664828229 0.725230794 -0.179007601 0 0
-1.710046 0.916536 -0.950172 0.661017474 0.689818236 -0.295307807 0 0
-1.510738 0.920417 -0.987365 -0.687617933 0.725218914 -0.0352009181 0 0
-1.512853 0.916536 -0.971143 -0.708337865 0.689836876 -0.149607998 0 0
-1.512853 0.920417 -0.971143 -0.673687867 0.72518694 -0.142297437 0 0
-1.510738 0.916536 -0.987365 -0.723028184 0.68982689 -0.0370014423 0 0
-1.56284 0.920417 -1.083045 -0.343507183 0.725215164 0.596712477 0 0
-1.549346 0.916536 -1.073795 -0.454910852 0.689816456 0.563213436 0 0
-1.549346 0.920417 -1.073795 -0.432616189 0.725227139 0.535620043 0 0
-1.56284 0.916536 -1.083045 -0.361214406 0.689827511 0.627425022 0 0
-1.620184 0.920417 -0.888574 0.0352009181 0.725218914 -0.687617933 0 0
-1.636407 0.916536 -0.89069 0.149607998 0.689836876 -0.708337865 0 0
-1.636407 0.920417 -0.89069 0.142307024 0.725235795 -0.673633248 0 0
-1.620184 0.916536 -0.888574 0.0370014423 0.68982689 -0.723028184 0 0
-1.657378 0.920417 -1.087883 0.280796157 0.725190076 0.628691396 0 0
-1.641963 0.916536 -1.093362 0.18820167 0.689906123 0.699006204 0 0
-1.641963 0.920417 -1.093362 0.179007601 0.725230794 0.664828229 0 0
-1.657378 0.916536 -1.087883 0.295216521 0.689838604 0.661036993 0 0
-1.718975 0.920417 -0.998021 0.687617933 0.725218914 0.0352009181 0 0
-1.718975 0.916536 -0.998021 0.723028184 0.68982689 0.0370014423 0 0
-1.524505 0.920417 -0.940677 -0.596712477 0.725215164 -0.343507183 0 0
-1.524505 0.916536 -0.940677 -0.627425022 0.689827511 -0.361214406 0 0
-1.666873 0.920417 -0.902341 0.343507183 0.725215164 -0.596712477 0 0
-1.666873 0.916536 -0.902341 0.361214406 0.689827511 -0.627425022 0 0
-1.527491 0.920417 -1.049582 -0.577001578 0.725201983 0.375701028 0 0
-1.527491 0.916536 -1.049582 -0.606656846 0.689864643 0.395037017 0 0
-1.557967 0.920417 -0.905328 -0.375701028 0.725201983 -0.577001578 0 0
-1.557967 0.916536 -0.905328 -0.395037017 0.689864643 -0.606656846 0 0
-1.705208 0.920417 -1.044709 0.596712477 0.725215164 0.343507183 0 0
-1.705208 0.916536 -1.044709 0.627425022 0.689827511 0.361214406 0 0
-1.702222 0.920417 -0.935804 0.577001578 0.725201983 -0.375701028 0 0
-1.702222 0.916536 -0.935804 0.606656846 0.689864643 -0.395037017 0 0
-1.511186 0.920417 -1.003718 -0.684690082 0.725189496 0.0727989455 0 0
-1.511186 0.916536 -1.003718 -0.71992437 0.689823351 0.0765025897 0 0
-1.603831 0.920417 -0.889023 -0.0727989455 0.725189496 -0.684690082 0 0
-1.603831 0.916536 -0.889023 -0.0765028192 0.689925424 -0.719826526 0 0
-1.577615 0.920417 -1.09007 -0.245904985 0.7252147 0.643113036 0 0
-1.577615 0.916536 -1.09007 -0.258607184 0.689819163 0.676218786 0 0
-1.671745 0.920417 -1.080059 0.375701028 0.725201983 0.577001578 0 0
-1.671745 0.916536 -1.080059 0.395037017 0.689864643 0.606656846 0 0
-1.718527 0.920417 -0.981668 0.684690082 0.725189496 -0.0727989455 0 0
-1.718527 0.916536 -0.981668 0.71992437 0.689823351 -0.0765025897 0 0
-1.51748 0.920417 -0.955451 -0.643113036 0.7252147 -0.245904985 0 0
-1.51748 0.916536 -0.955451 -0.676218786 0.689819163 -0.258607184 0 0
-1.537466 0.920417 -1.062549 -0.511116371 0.725223229 0.461314776 0 0
-1.537466 0.916536 -1.062549 -0.53741483 0.689819036 0.485113387 0 0
-1.652098 0.920417 -0.895317 0.245904985 0.7252147 -0.643113036 0 0
-1.652098 0.916536 -0.895317 0.258607184 0.689819163 -0.676218786 0 0
-1.625882 0.920417 -1.096364 0.0727989455 0.725189496 0.684690082 0 0
-1.625882 0.916536 -1.096364 0.0765025897 0.689823351 0.71992437 0 0
-1.508806 0.920417 -1.02125 -0.0357002636 0.99930738 0.0105000775 0 0
-1.505644 0.920417 -1.004308 -0.0349992327 0.999378089 0.00429990573 0 0
-1.696384 0.920417 -0.919103 0.0256001366 0.999405332 -0.0231001232 0 0
-1.706892 0.920417 -0.932763 0.0297994325 0.999380967 -0.0186996439 0 0
-1.541266 0.920417 -0.911165 -0.0231001232 0.999405332 -0.0256001366 0 0
-1.554926 0.920417 -0.900657 -0.0186996439 0.999380967 -0.0297994325 0 0
-1.717438 0.920417 -1.031926 0.0345001803 0.999305221 0.0141000737 0 0
-1.710038 0.920417 -1.04749 0.0327002188 0.999306685 0.0178001191 0 0
-1.626471 0.920417 -1.101906 0.00429990573 0.999378089 0.0349992327 0 0
-1.609244 0.920417 -1.102378 -0.00170000553 0.999403248 0.0345001121 0 0
-1.533329 0.920417 -1.066283 -0.0256001366 0.999405332 0.0231001232 0 0
-1.52282 0.920417 -1.052623 -0.0297994325 0.999380967 0.0186996439 0 0
-1.654089 0.920417 -0.890111 0.0141000737 0.999305221 -0.0345001803 0 0
-1.669653 0.920417 -0.897511 0.0178001191 0.999306685 -0.0327002188 0 0
-1.512274 0.920417 -0.953461 -0.0345001803 0.999305221 -0.0141000737 0 0
-1.519675 0.920417 -0.937896 -0.0327002188 0.999306685 -0.0178001191 0 0
-1.724069 0.920417 -0.981079 0.0349992327 0.999378089 -0.00429990573 0 0
-1.724541 0.920417 -0.998306 0.0345001121 0.999403248 0.00170000553 0 0
-1.674786 0.920417 -1.084729 0.0186996439 0.999380967 0.0297994325 0 0
-1.659651 0.920417 -1.092971 0.0144001128 0.999307825 0.0343002686 0 0
-1.575624 0.920417 -1.095275 -0.0141000737 0.999305221 0.0345001803 0 0
-1.560059 0.920417 -1.087875 -0.0178001191 0.999306685 0.0327002188 0 0
-1.603242 0.920417 -0.883481 -0.00429990573 0.999378089 -0.0349992327 0 0
-1.620469 0.920417 -0.883008 0.00170000553 0.999403248 -0.0345001121 0 0
-1.715134 0.920417 -0.947898 0.0343002686 0.999307825 -0.0144001128 0 0
-1.505172 0.920417 -0.98708 -0.0345001121 0.999403248 -0.00170000553 0 0
-1.570062 0.920417 -0.892415 -0.0144001128 0.999307825 -0.0343002686 0 0
-1.700294 0.920417 -1.061705 0.0276994662 0.999380742 0.0216995819 0 0
-1.514578 0.920417 -1.037488 -0.0343002686 0.999307825 0.0144001128 0 0
-1.683868 0.920417 -0.907255 0.0216995819 0.999380742 -0.0276994662 0 0
-1.529419 0.920417 -0.923681 -0.0276994662 0.999380742 -0.0216995819 0 0
-1.722313 0.920417 -1.015395 0.0342993536 0.999381167 0.00779985301 0 0
-1.643413 0.920417 -1.098744 0.0105000775 0.99930738 0.0357002636 0 0
-1.545844 0.920417 -1.078131 -0.0216995819 0.999380742 0.0276994662 0 0
-1.637559 0.920417 -0.885237 0.00779985301 0.999381167 -0.0342993536 0 0
-1.5074 0.920417 -0.969991 -0.0342993536 0.999381167 -0.00779985301 0 0
-1.720907 0.920417 -0.964137 0.0357002636 0.99930738 -0.0105000775 0 0
-1.688446 0.920417 -1.074221 0.0231001232 0.999405332 0.0256001366 0 0
-1.5863 0.920417 -0.886642 -0.0105000775 0.99930738 -0.0357002636 0 0
-1.592154 0.920417 -1.10015 -0.00779985301 0.999381167 0.0342993536 0 0
-1.64167 0.916536 -1.092272 0 1 0 0 0
-1.656917 0.916536 -1.086852 0 1 0 0 0
-1.636173 0.916536 -0.891794 0 1 0 0 0
-1.620127 0.916536 -0.889702 0 1 0 0 0
-1.550056 0.916536 -1.072917 0 1 0 0 0
-1.563403 0.916536 -1.082066 0 1 0 0 0
-1.513958 0.916536 -0.971376 0 1 0 0 0
-1.511865 0.916536 -0.987423 0 1 0 0 0
-1.714435 0.916536 -0.96588 0 1 0 0 0
-1.709015 0.916536 -0.950632 0 1 0 0 0
-1.588043 0.916536 -0.893114 0 1 0 0 0
-1.572795 0.916536 -0.898535 0 1 0 0 0
-1.683955 0.916536 -1.069246 0 1 0 0 0
-1.69508 0.916536 -1.057494 0 1 0 0 0
-1.59354 0.916536 -1.093592 0 1 0 0 0
-1.609586 0.916536 -1.095684 0 1 0 0 0
-1.515277 0.916536 -1.019507 0 1 0 0 0
-1.520698 0.916536 -1.034754 0 1 0 0 0
-1.691409 0.916536 -0.923594 0 1 0 0 0
-1.679657 0.916536 -0.912469 0 1 0 0 0
-1.545757 0.916536 -0.916141 0 1 0 0 0
-1.534632 0.916536 -0.927893 0 1 0 0 0
-1.711178 0.916536 -1.029532 0 1 0 0 0
-1.715755 0.916536 -1.01401 0 1 0 0 0
-1.651695 0.916536 -0.896371 0 1 0 0 0
-1.625762 0.916536 -1.095241 0 1 0 0 0
-1.538304 0.916536 -1.061792 0 1 0 0 0
-1.717404 0.916536 -0.981787 0 1 0 0 0
-1.518534 0.916536 -0.955855 0 1 0 0 0
-1.603951 0.916536 -0.890145 0 1 0 0 0
-1.671129 0.916536 -1.079113 0 1 0 0 0
-1.578018 0.916536 -1.089015 0 1 0 0 0
-1.512309 0.916536 -1.003599 0 1 0 0 0
-1.701276 0.916536 -0.93642 0 1 0 0 0
-1.558583 0.916536 -0.906274 0 1 0 0 0
-1.704229 0.916536 -1.044146 0 1 0 0 0
-1.666309 0.916536 -0.90332 0 1 0 0 0
-1.528437 0.916536 -1.048966 0 1 0 0 0
-1.525483 0.916536 -0.94124 0 1 0 0 0
-1.717848 0.916536 -0.997964 0 1 0 0 0
-1.747737 0.92439 -1.095024 0.102001272 0.99321239 0.0559006974 0 0
-1.734139 0.923862 -1.101688 0.0526027801 0.997752733 0.0415021934 0 0
-1.739328 0.92439 -1.107818 0.0880026978 0.993830466 0.0675020693 0 0
-1.742725 0.923862 -1.088705 0.0613011923 0.997519402 0.034600673 0 0
-1.723498 0.923862 -1.113054 0.0440017099 0.997838777 0.0488018965 0 0
-1.728873 0.92439 -1.119008 0.0726994017 0.994091819 0.0805993367 0 0
-1.711105 0.923862 -1.122479 0.0360019164 0.997753112 0.0565030077 0 0
-1.716674 0.92439 -1.128267 0.0582018322 0.993831286 0.0944029719 0 0
-1.697314 0.923862 -1.129694 0.0282005395 0.997519083 0.0645012339 0 0
-1.703089 0.92439 -1.135325 0.0452004267 0.993209376 0.107201012 0 0
-1.637382 0.923862 -1.151001 0.0189003752 0.997519801 0.0678013459 0 0
-1.636458 0.92439 -1.159013 0.032600594 0.993218097 0.111602033 0 0
-1.622131 0.923862 -1.15411 0.00780043535 0.997755686 0.0665037117 0 0
-1.621466 0.92439 -1.162114 0.0144003903 0.993826933 0.110002981 0 0
-1.60657 0.923862 -1.154622 -0.00340011409 0.997833483 0.0657022047 0 0
-1.60616 0.92439 -1.162633 -0.00549995705 0.994092236 0.108399153 0 0
-1.591143 0.923862 -1.152524 -0.014500778 0.997753531 0.065403509 0 0
-1.590987 0.92439 -1.160554 -0.0256008166 0.993831699 0.107903442 0 0
-1.576288 0.923862 -1.147874 -0.0257003842 0.997514913 0.0656009807 0 0
-1.57639 0.92439 -1.155939 -0.0438007891 0.993217893 0.10770194 0 0
-1.518844 0.923862 -1.120562 -0.034600673 0.997519402 0.0613011923 0 0
-1.512525 0.92439 -1.125573 -0.0559006974 0.99321239 0.102001272 0 0
-1.505862 0.923862 -1.111976 -0.0415021934 0.997752733 0.0526027801 0 0
-1.499732 0.92439 -1.117165 -0.0675020693 0.993830466 0.0880026978 0 0
-1.494496 0.923862 -1.101335 -0.0488018965 0.997838777 0.0440017099 0 0
-1.488542 0.92439 -1.106709 -0.0805993367 0.994091819 0.0726994017 0 0
-1.485071 0.923862 -1.088942 -0.0565030077 0.997753112 0.0360019164 0 0
-1.479283 0.92439 -1.094511 -0.0944029719 0.993831286 0.0582018322 0 0
-1.477855 0.923862 -1.075151 -0.0645012339 0.997519083 0.0282005395 0 0
-1.472225 0.92439 -1.080926 -0.107201012 0.993209376 0.0452004267 0 0
-1.456549 0.923862 -1.015219 -0.0678013459 0.997519801 0.0189003752 0 0
-1.448537 0.92439 -1.014295 -0.111602033 0.993218097 0.032600594 0 0
-1.45344 0.923862 -0.999968 -0.0665037117 0.997755686 0.00780043535 0 0
-1.445436 0.92439 -0.999303 -0.110002981 0.993826933 0.0144003903 0 0
-1.452927 0.923862 -0.984407 -0.0657022047 0.997833483 -0.00340011409 0 0
-1.444917 0.92439 -0.983997 -0.108399153 0.994092236 -0.00549995705 0 0
-1.455026 0.923862 -0.968979 -0.065403509 0.997753531 -0.014500778 0 0
-1.446996 0.92439 -0.968824 -0.107903442 0.993831699 -0.0256008166 0 0
-1.459675 0.923862 -0.954125 -0.0656009807 0.997514913 -0.0257003842 0 0
-1.451611 0.92439 -0.954227 -0.10770194 0.993217893 -0.0438007891 0 0
-1.486988 0.923862 -0.896681 -0.0613011923 0.997519402 -0.034600673 0 0
-1.481976 0.92439 -0.890362 -0.102001272 0.99321239 -0.0559006974 0 0
-1.495574 0.923862 -0.883699 -0.0526027801 0.997752733 -0.0415021934 0 0
-1.490384 0.92439 -0.877568 -0.0880026978 0.993830466 -0.0675020693 0 0
-1.506214 0.923862 -0.872333 -0.0440017099 0.997838777 -0.0488018965 0 0
-1.50084 0.92439 -0.866379 -0.0726994017 0.994091819 -0.0805993367 0 0
-1.518607 0.923862 -0.862908 -0.0360019164 0.997753112 -0.0565030077 0 0
-1.513039 0.92439 -0.85712 -0.0582018322 0.993831286 -0.0944029719 0 0
-1.532398 0.923862 -0.855692 -0.0282005395 0.997519083 -0.0645012339 0 0
-1.526624 0.92439 -0.850061 -0.0452004267 0.993209376 -0.107201012 0 0
-1.59233 0.923862 -0.834386 -0.0189003752 0.997519801 -0.0678013459 0 0
-1.593255 0.92439 -0.826374 -0.032600594 0.993218097 -0.111602033 0 0
-1.607581 0.923862 -0.831277 -0.00780043535 0.997755686 -0.0665037117 0 0
-1.608247 0.92439 -0.823273 -0.0144003903 0.993826933 -0.110002981 0 0
-1.623143 0.923862 -0.830764 0.00340011409 0.997833483 -0.0657022047 0 0
-1.623553 0.92439 -0.822754 0.00549995705 0.994092236 -0.108399153 0 0
-1.63857 0.923862 -0.832862 0.014500778 0.997753531 -0.065403509 0 0
-1.638725 0.92439 -0.824832 0.0256008166 0.993831699 -0.107903442 0 0
-1.653424 0.923862 -0.837512 0.0257003842 0.997514913 -0.0656009807 0 0
-1.653322 0.92439 -0.829447 0.0438007891 0.993217893 -0.10770194 0 0
-1.710868 0.923862 -0.864824 0.034600673 0.997519402 -0.0613011923 0 0
-1.717188 0.92439 -0.859813 0.0559006974 0.99321239 -0.102001272 0 0
-1.723851 0.923862 -0.87341 0.0415021934 0.997752733 -0.0526027801 0 0
-1.729981 0.92439 -0.868221 0.0675020693 0.993830466 -0.0880026978 0 0
-1.735217 0.923862 -0.884051 0.0488018965 0.997838777 -0.0440017099 0 0
-1.741171 0.92439 -0.878677 0.0805993367 0.994091819 -0.0726994017 0 0
-1.744642 0.923862 -0.896444 0.0565030077 0.997753112 -0.0360019164 0 0
-1.75043 0.92439 -0.890876 0.0944029719 0.993831286 -0.0582018322 0 0
-1.751858 0.923862 -0.910235 0.0645012339 0.997519083 -0.0282005395 0 0
-1.757488 0.92439 -0.904461 0.107201012 0.993209376 -0.0452004267 0 0
-1.773164 0.923862 -0.970167 0.0678013459 0.997519801 -0.0189003752 0 0
-1.781176 0.92439 -0.971092 0.111602033 0.993218097 -0.032600594 0 0
-1.776273 0.923862 -0.985418 0.0665037117 0.997755686 -0.00780043535 0 0
-1.784277 0.92439 -0.986084 0.110002981 0.993826933 -0.0144003903 0 0
-1.776786 0.923862 -1.000979 0.0657022047 0.997833483 0.00340011409 0 0
-1.784796 0.92439 -1.001389 0.108399153 0.994092236 0.00549995705 0 0
-1.778102 0.92439 -1.031159 0.10770194 0.993217893 0.0438007891 0 0
-1.770038 0.923862 -1.031261 0.0656009807 0.997514913 0.0257003842 0 0
-1.782717 0.92439 -1.016562 0.107903442 0.993831699 0.0256008166 0 0
-1.774687 0.923862 -1.016407 0.065403509 0.997753531 0.014500778 0 0
3 0 1 2
3 0 3 1
3 4 5 6
3 4 7 5
3 8 9 10
3 8 11 9
3 12 13 14
3 12 15 13
3 16 17 18
3 16 19 17
3 20 21 22
3 20 23 21
3 24 25 26
3 24 27 25
3 28 29 30
3 28 31 29
3 32 33 34
3 32 35 33
3 36 37 38
3 36 39 37
3 40 41 42
3 40 43 41
3 44 45 46
3 44 47 45
3 6 48 49
3 6 5 48
3 3 50 1
3 3 51 50
3 10 52 53
3 10 9 52
3 19 54 17
3 19 55 54
3 32 56 35
3 32 57 56
3 23 58 21
3 23 59 58
3 26 60 61
3 26 25 60
3 30 62 63
3 30 29 62
3 34 64 65
3 34 33 64
3 38 66 67
3 38 37 66
3 43 66 41
3 43 67 66
3 46 68 69
3 46 45 68
3 51 70 50
3 51 71 70
3 49 72 73
3 49 48 72
3 53 74 75
3 53 52 74
3 57 76 56
3 57 77 76
3 55 78 54
3 55 79 78
3 59 74 58
3 59 75 74
3 28 2 31
3 28 0 2
3 63 11 8
3 63 62 11
3 44 18 47
3 44 16 18
3 65 15 12
3 65 64 15
3 4 22 7
3 4 20 22
3 69 27 24
3 69 68 27
3 73 39 36
3 73 72 39
3 71 60 70
3 71 61 60
3 79 13 78
3 79 14 13
3 77 42 76
3 77 40 42
3 80 81 82
3 80 83 81
3 84 85 86
3 84 87 85
3 88 89 90
3 88 91 89
3 92 93 94
3 92 95 93
3 96 97 98
3 96 99 97
3 92 100 95
3 92 101 100
3 102 103 104
3 102 105 103
3 106 107 108
3 106 109 107
3 110 111 112
3 110 113 111
3 114 115 116
3 114 117 115
3 118 119 120
3 118 121 119
3 122 123 124
3 122 125 123
3 118 82 121
3 118 80 82
3 126 127 128
3 126 129 127
3 130 131 132
3 130 133 131
3 134 91 88
3 134 135 91
3 136 99 96
3 136 137 99
3 138 139 140
3 138 141 139
3 142 105 102
3 142 143 105
3 84 112 87
3 84 110 112
3 144 109 106
3 144 145 109
3 146 124 147
3 146 122 124
3 148 116 149
3 148 114 116
3 150 139 141
3 150 151 139
3 152 128 153
3 152 126 128
3 154 132 155
3 154 130 132
3 156 135 134
3 156 157 135
3 148 137 136
3 148 149 137
3 83 140 81
3 83 138 140
3 86 143 142
3 86 85 143
3 94 145 144
3 94 93 145
3 90 127 129
3 90 89 127
3 98 158 159
3 98 97 158
3 104 131 133
3 104 103 131
3 101 147 100
3 101 146 147
3 113 153 111
3 113 152 153
3 108 151 150
3 108 107 151
3 117 155 115
3 117 154 155
3 120 157 156
3 120 119 157
3 125 158 123
3 125 159 158
3 12 96 65
3 12 136 96
3 16 133 130
3 16 44 133
3 8 88 63
3 8 134 88
3 0 129 126
3 0 28 129
3 75 80 118
3 75 59 80
3 79 117 114
3 79 55 117
3 77 125 122
3 77 57 125
3 75 120 53
3 75 118 120
3 71 113 110
3 71 51 113
3 73 108 49
3 73 106 108
3 69 104 46
3 69 102 104
3 67 101 92
3 67 43 101
3 67 94 38
3 67 92 94
3 65 98 34
3 65 96 98
3 63 90 30
3 63 88 90
3 59 83 80
3 59 23 83
3 61 86 26
3 61 84 86
3 55 154 117
3 55 19 154
3 57 159 125
3 57 32 159
3 53 156 10
3 53 120 156
3 51 152 113
3 51 3 152
3 49 150 6
3 49 108 150
3 46 133 44
3 46 104 133
3 43 146 101
3 43 40 146
3 34 159 32
3 34 98 159
3 38 144 36
3 38 94 144
3 30 129 28
3 30 90 129
3 26 142 24
3 26 86 142
3 23 138 83
3 23 20 138
3 19 130 154
3 19 16 130
3 14 136 12
3 14 148 136
3 10 134 8
3 10 156 134
3 6 141 4
3 6 150 141
3 3 126 152
3 3 0 126
3 14 114 148
3 14 79 114
3 40 122 146
3 40 77 122
3 61 110 84
3 61 71 110
3 36 106 73
3 36 144 106
3 20 141 138
3 20 4 141
3 24 102 69
3 24 142 102
3 160 161 162
3 160 163 161
3 164 165 166
3 164 167 165
3 168 169 170
3 168 171 169
3 172 173 174
3 172 175 173
3 176 177 178
3 176 179 177
3 180 181 182
3 180 183 181
3 184 185 186
3 184 187 185
3 188 189 190
3 188 191 189
3 192 193 194
3 192 195 193
3 196 197 198
3 196 199 197
3 200 201 202
3 200 203 201
3 204 205 206
3 204 207 205
3 208 167 164
3 208 209 167
3 210 163 160
3 210 211 163
3 212 175 172
3 212 213 175
3 214 171 168
3 214 215 171
3 216 179 176
3 216 217 179
3 218 187 184
3 218 219 187
3 220 191 188
3 220 221 191
3 222 195 192
3 222 223 195
3 224 203 200
3 224 225 203
3 226 199 196
3 226 227 199
3 228 207 204
3 228 229 207
3 230 209 208
3 230 231 209
3 232 211 210
3 232 233 211
3 234 215 214
3 234 235 215
3 236 213 212
3 236 237 213
3 238 183 180
3 238 239 183
3 166 219 218
3 166 165 219
3 162 217 216
3 162 161 217
3 174 221 220
3 174 173 221
3 170 223 222
3 170 169 223
3 178 225 224
3 178 177 225
3 182 227 226
3 182 181 227
3 186 229 228
3 186 185 229
3 190 231 230
3 190 189 231
3 194 233 232
3 194 193 233
3 202 237 236
3 202 201 237
3 198 235 234
3 198 197 235
3 206 239 238
3 206 205 239
3 240 222 241
3 240 170 222
3 242 220 243
3 242 174 220
3 244 216 245
3 244 162 216
3 246 218 247
3 246 166 218
3 248 180 249
3 248 238 180
3 250 214 251
3 250 234 214
3 252 212 253
3 252 236 212
3 254 210 255
3 254 232 210
3 256 208 257
3 256 230 208
3 258 204 259
3 258 228 204
3 260 196 261
3 260 226 196
3 262 200 263
3 262 224 200
3 243 188 264
3 243 220 188
3 241 192 265
3 241 222 192
3 245 176 266
3 245 216 176
3 247 184 267
3 247 218 184
3 251 168 268
3 251 214 168
3 253 172 269
3 253 212 172
3 255 160 270
3 255 210 160
3 257 164 271
3 257 208 164
3 259 206 272
3 259 204 206
3 261 198 273
3 261 196 198
3 263 202 274
3 263 200 202
3 265 194 275
3 265 192 194
3 264 190 276
3 264 188 190
3 267 186 277
3 267 184 186
3 266 178 278
3 266 176 178
3 249 182 279
3 249 180 182
3 269 174 242
3 269 172 174
3 268 170 240
3 268 168 170
3 270 162 244
3 270 160 162
3 271 166 246
3 271 164 166
3 272 238 248
3 272 206 238
3 273 234 250
3 273 198 234
3 274 236 252
3 274 202 236
3 276 230 256
3 276 190 230
3 275 232 254
3 275 194 232
3 277 228 258
3 277 186 228
3 279 226 260
3 279 182 226
3 278 224 262
3 278 178 224
3 207 280 205
3 207 281 280
3 203 282 201
3 203 283 282
3 199 284 197
3 199 285 284
3 195 286 193
3 195 287 286
3 191 288 189
3 191 289 288
3 179 290 177
3 179 291 290
3 187 292 185
3 187 293 292
3 183 294 181
3 183 295 294
3 171 296 169
3 171 297 296
3 175 298 173
3 175 299 298
3 163 300 161
3 163 301 300
3 167 302 165
3 167 303 302
3 201 304 237
3 201 282 304
3 205 305 239
3 205 280 305
3 197 306 235
3 197 284 306
3 189 307 231
3 189 288 307
3 193 308 233
3 193 286 308
3 177 309 225
3 177 290 309
3 185 310 229
3 185 292 310
3 181 311 227
3 181 294 311
3 169 312 223
3 169 296 312
3 173 313 221
3 173 298 313
3 161 314 217
3 161 300 314
3 165 315 219
3 165 302 315
3 239 295 183
3 239 305 295
3 237 316 213
3 237 304 316
3 235 317 215
3 235 306 317
3 233 318 211
3 233 308 318
3 231 319 209
3 231 307 319
3 225 283 203
3 225 309 283
3 229 281 207
3 229 310 281
3 227 285 199
3 227 311 285
3 221 289 191
3 221 313 289
3 223 287 195
3 223 312 287
3 217 291 179
3 217 314 291
3 219 293 187
3 219 315 293
3 215 297 171
3 215 317 297
3 213 299 175
3 213 316 299
3 209 303 167
3 209 319 303
3 211 301 163
3 211 318 301
3 320 321 322
3 320 323 321
3 322 324 325
3 322 321 324
3 325 326 327
3 325 324 326
3 327 328 329
3 327 326 328
3 329 330 331
3 329 328 330
3 331 332 333
3 331 330 332
3 333 334 335
3 333 332 334
3 335 336 337
3 335 334 336
3 337 338 339
3 337 336 338
3 339 340 341
3 339 338 340
3 341 342 343
3 341 340 342
3 343 344 345
3 343 342 344
3 345 346 347
3 345 344 346
3 347 348 349
3 347 346 348
3 349 350 351
3 349 348 350
3 351 352 353
3 351 350 352
3 353 354 355
3 353 352 354
3 355 356 357
3 355 354 356
3 357 358 359
3 357 356 358
3 359 360 361
3 359 358 360
3 361 362 363
3 361 360 362
3 363 364 365
3 363 362 364
3 365 366 367
3 365 364 366
3 367 368 369
3 367 366 368
3 369 370 371
3 369 368 370
3 371 372 373
3 371 370 372
3 373 374 375
3 373 372 374
3 375 376 377
3 375 374 376
3 377 378 379
3 377 376 378
3 379 380 381
3 379 378 380
3 381 382 383
3 381 380 382
3 383 384 385
3 383 382 384
3 385 386 387
3 385 384 386
3 387 388 389
3 387 386 388
3 389 390 391
3 389 388 390
3 391 392 393
3 391 390 392
3 393 394 395
3 393 392 394
3 396 323 320
3 396 397 323
3 398 397 396
3 398 399 397
3 395 399 398
3 395 394 399
