ply
format ascii 1.0
element vertex 482
property float x
property float y
property float z
property float nx
property float ny
property float nz
property float u
property float v
element face 720
property list uchar int vertex_indices
end_header
-1.742725 0.923862 -1.088705 0.0613011923 0.997519402 0.034600673 0 0
-1.700294 0.920417 -1.061705 0.0276994662 0.999380742 0.0216995819 0 0
-1.734139 0.923862 -1.101688 0.0526027801 0.997752733 0.0415021934 0 0
-1.710038 0.920417 -1.04749 0.0327002188 0.999306685 0.0178001191 0 0
-1.688446 0.920417 -1.074221 0.0231001232 0.999405332 0.0256001366 0 0
-1.723498 0.923862 -1.113054 0.0440017099 0.997838777 0.0488018965 0 0
-1.674786 0.920417 -1.084729 0.0186996439 0.999380967 0.0297994325 0 0
-1.711105 0.923862 -1.122479 0.0360019164 0.997753112 0.0565030077 0 0
-1.659651 0.920417 -1.092971 0.0144001128 0.999307825 0.0343002686 0 0
-1.697314 0.923862 -1.129694 0.0282005395 0.997519083 0.0645012339 0 0
-1.643413 0.920417 -1.098744 0.0105000775 0.99930738 0.0357002636 0 0
-1.637382 0.923862 -1.151001 0.0189003752 0.997519801 0.0678013459 0 0
-1.626471 0.920417 -1.101906 0.00429990573 0.999378089 0.0349992327 0 0
-1.622131 0.923862 -1.15411 0.00780043535 0.997755686 0.0665037117 0 0
-1.609244 0.920417 -1.102378 -0.00170000553 0.999403248 0.0345001121 0 0
-1.60657 0.923862 -1.154622 -0.00340011409 0.997833483 0.0657022047 0 0
-1.592154 0.920417 -1.10015 -0.00779985301 0.999381167 0.0342993536 0 0
-1.591143 0.923862 -1.152524 -0.014500778 0.997753531 0.065403509 0 0
-1.575624 0.920417 -1.095275 -0.0141000737 0.999305221 0.0345001803 0 0
-1.576288 0.923862 -1.147874 -0.0257003842 0.997514913 0.0656009807 0 0
-1.560059 0.920417 -1.087875 -0.0178001191 0.999306685 0.0327002188 0 0
-1.518844 0.923862 -1.120562 -0.034600673 0.997519402 0.0613011923 0 0
-1.545844 0.920417 -1.078131 -0.0216995819 0.999380742 0.0276994662 0 0
-1.505862 0.923862 -1.111976 -0.0415021934 0.997752733 0.0526027801 0 0
-1.533329 0.920417 -1.066283 -0.0256001366 0.999405332 0.0231001232 0 0
-1.494496 0.923862 -1.101335 -0.0488018965 0.997838777 0.0440017099 0 0
-1.52282 0.920417 -1.052623 -0.0297994325 0.999380967 0.0186996439 0 0
-1.485071 0.923862 -1.088942 -0.0565030077 0.997753112 0.0360019164 0 0
-1.514578 0.920417 -1.037488 -0.0343002686 0.999307825 0.0144001128 0 0
-1.477855 0.923862 -1.075151 -0.0645012339 0.997519083 0.0282005395 0 0
-1.508806 0.920417 -1.02125 -0.0357002636 0.99930738 0.0105000775 0 0
-1.456549 0.923862 -1.015219 -0.0678013459 0.997519801 0.0189003752 0 0
-1.505644 0.920417 -1.004308 -0.0349992327 0.999378089 0.00429990573 0 0
-1.45344 0.923862 -0.999968 -0.0665037117 0.997755686 0.00780043535 0 0
-1.505172 0.920417 -0.98708 -0.0345001121 0.999403248 -0.00170000553 0 0
-1.452927 0.923862 -0.984407 -0.0657022047 0.997833483 -0.00340011409 0 0
-1.5074 0.920417 -0.969991 -0.0342993536 0.999381167 -0.00779985301 0 0
-1.455026 0.923862 -0.968979 -0.065403509 0.997753531 -0.014500778 0 0
-1.512274 0.920417 -0.953461 -0.0345001803 0.999305221 -0.0141000737 0 0
-1.459675 0.923862 -0.954125 -0.0656009807 0.997514913 -0.0257003842 0 0
-1.519675 0.920417 -0.937896 -0.0327002188 0.999306685 -0.0178001191 0 0
-1.486988 0.923862 -0.896681 -0.0613011923 0.997519402 -0.034600673 0 0
-1.529419 0.920417 -0.923681 -0.0276994662 0.999380742 -0.0216995819 0 0
-1.495574 0.923862 -0.883699 -0.0526027801 0.997752733 -0.0415021934 0 0
-1.541266 0.920417 -0.911165 -0.0231001232 0.999405332 -0.0256001366 0 0
-1.506214 0.923862 -0.872333 -0.0440017099 0.997838777 -0.0488018965 0 0
-1.554926 0.920417 -0.900657 -0.0186996439 0.999380967 -0.0297994325 0 0
-1.518607 0.923862 -0.862908 -0.0360019164 0.997753112 -0.0565030077 0 0
-1.570062 0.920417 -0.892415 -0.0144001128 0.999307825 -0.0343002686 0 0
-1.532398 0.923862 -0.855692 -0.0282005395 0.997519083 -0.0645012339 0 0
-1.5863 0.920417 -0.886642 -0.0105000775 0.99930738 -0.0357002636 0 0
-1.59233 0.923862 -0.834386 -0.0189003752 0.997519801 -0.0678013459 0 0
-1.603242 0.920417 -0.883481 -0.00429990573 0.999378089 -0.0349992327 0 0
-1.607581 0.923862 -0.831277 -0.00780043535 0.997755686 -0.0665037117 0 0
-1.620469 0.920417 -0.883008 0.00170000553 0.999403248 -0.0345001121 0 0
-1.623143 0.923862 -0.830764 0.00340011409 0.997833483 -0.0657022047 0 0
-1.637559 0.920417 -0.885237 0.00779985301 0.999381167 -0.0342993536 0 0
-1.63857 0.923862 -0.832862 0.014500778 0.997753531 -0.065403509 0 0
-1.654089 0.920417 -0.890111 0.0141000737 0.999305221 -0.0345001803 0 0
-1.653424 0.923862 -0.837512 0.0257003842 0.997514913 -0.0656009807 0 0
-1.669653 0.920417 -0.897511 0.0178001191 0.999306685 -0.0327002188 0 0
-1.710868 0.923862 -0.864824 0.034600673 0.997519402 -0.0613011923 0 0
-1.683868 0.920417 -0.907255 0.0216995819 0.999380742 -0.0276994662 0 0
-1.723851 0.923862 -0.87341 0.0415021934 0.997752733 -0.0526027801 0 0
-1.696384 0.920417 -0.919103 0.0256001366 0.999405332 -0.0231001232 0 0
-1.735217 0.923862 -0.884051 0.0488018965 0.997838777 -0.0440017099 0 0
-1.706892 0.920417 -0.932763 0.0297994325 0.999380967 -0.0186996439 0 0
-1.744642 0.923862 -0.896444 0.0565030077 0.997753112 -0.0360019164 0 0
-1.715134 0.920417 -0.947898 0.0343002686 0.999307825 -0.0144001128 0 0
-1.751858 0.923862 -0.910235 0.0645012339 0.997519083 -0.0282005395 0 0
-1.720907 0.920417 -0.964137 0.0357002636 0.99930738 -0.0105000775 0 0
-1.773164 0.923862 -0.970167 0.0678013459 0.997519801 -0.0189003752 0 0
-1.724069 0.920417 -0.981079 0.0349992327 0.999378089 -0.00429990573 0 0
-1.776273 0.923862 -0.985418 0.0665037117 0.997755686 -0.00780043535 0 0
-1.724541 0.920417 -0.998306 0.0345001121 0.999403248 0.00170000553 0 0
-1.776786 0.923862 -1.000979 0.0657022047 0.997833483 0.00340011409 0 0
-1.770038 0.923862 -1.031261 0.0656009807 0.997514913 0.0257003842 0 0
-1.717438 0.920417 -1.031926 0.0345001803 0.999305221 0.0141000737 0 0
-1.774687 0.923862 -1.016407 0.065403509 0.997753531 0.014500778 0 0
-1.722313 0.920417 -1.015395 0.0342993536 0.999381167 0.00779985301 0 0
-1.803115 0.941035 -1.164851 0.125698576 0.989588788 0.0700992058 0 0
-1.780229 0.933766 -1.156135 0.176305531 0.9754306 0.132104144 0 0
-1.796669 0.941035 -1.175556 0.105400959 0.991109014 0.0812007385 0 0
-1.787238 0.933766 -1.144831 0.201995806 0.97327979 0.109197733 0 0
-1.771232 0.933766 -1.165936 0.144208514 0.976557653 0.159809435 0 0
-1.788258 0.941035 -1.184798 0.0874051151 0.991458022 0.0968056652 0 0
-1.760564 0.933766 -1.173886 0.113405094 0.975443818 0.188808481 0 0
-1.778205 0.941035 -1.192222 0.0701005317 0.991107518 0.113100858 0 0
-1.748604 0.933766 -1.179704 0.0879980949 0.973278929 0.212095408 0 0
-1.766898 0.941035 -1.197541 0.0568993568 0.989588813 0.132198506 0 0
-1.62917 0.933766 -1.222163 0.065599467 0.973292092 0.219998213 0 0
-1.626241 0.941035 -1.247546 0.0392998583 0.989596433 0.138399501 0 0
-1.616221 0.933766 -1.2252 0.031300744 0.975423186 0.218105184 0 0
-1.614113 0.941035 -1.250557 0.0171000374 0.991102171 0.132000289 0 0
-1.602929 0.933766 -1.225768 -0.0110005597 0.976549683 0.215010939 0 0
-1.601631 0.941035 -1.251145 -0.00670034528 0.991451091 0.130306715 0 0
-1.589765 0.933766 -1.223846 -0.0534020184 0.975436867 0.213708077 0 0
-1.589274 0.941035 -1.249286 -0.030400401 0.991113073 0.129501708 0 0
-1.577193 0.933766 -1.219503 -0.0876985521 0.973283931 0.212196497 0 0
-1.577516 0.941035 -1.245052 -0.0531996252 0.989593028 0.133699058 0 0
-1.462718 0.933766 -1.165074 -0.109197733 0.97327979 0.201995806 0 0
-1.442699 0.941035 -1.180952 -0.0700992058 0.989588788 0.125698576 0 0
-1.451414 0.933766 -1.158066 -0.132104144 0.9754306 0.176305531 0 0
-1.431993 0.941035 -1.174505 -0.0812007385 0.991109014 0.105400959 0 0
-1.441614 0.933766 -1.149069 -0.159809435 0.976557653 0.144208514 0 0
-1.422751 0.941035 -1.166094 -0.0968056652 0.991458022 0.0874051151 0 0
-1.433664 0.933766 -1.138401 -0.188808481 0.975443818 0.113405094 0 0
-1.415328 0.941035 -1.156042 -0.113100858 0.991107518 0.0701005317 0 0
-1.427846 0.933766 -1.126441 -0.212095408 0.973278929 0.0879980949 0 0
-1.410008 0.941035 -1.144735 -0.132198506 0.989588813 0.0568993568 0 0
-1.385386 0.933766 -1.007007 -0.219998213 0.973292092 0.065599467 0 0
-1.360004 0.941035 -1.004078 -0.138399501 0.989596433 0.0392998583 0 0
-1.382349 0.933766 -0.994058 -0.218105184 0.975423186 0.031300744 0 0
-1.356992 0.941035 -0.99195 -0.132000289 0.991102171 0.0171000374 0 0
-1.381781 0.933766 -0.980766 -0.215010939 0.976549683 -0.0110005597 0 0
-1.356404 0.941035 -0.979468 -0.130306715 0.991451091 -0.00670034528 0 0
-1.383703 0.933766 -0.967602 -0.213708077 0.975436867 -0.0534020184 0 0
-1.358263 0.941035 -0.96711 -0.129501708 0.991113073 -0.030400401 0 0
-1.388046 0.933766 -0.95503 -0.212196497 0.973283931 -0.0876985521 0 0
-1.362497 0.941035 -0.955353 -0.133699058 0.989593028 -0.0531996252 0 0
-1.442475 0.933766 -0.840555 -0.201995806 0.97327979 -0.109197733 0 0
-1.426598 0.941035 -0.820535 -0.125698576 0.989588788 -0.0700992058 0 0
-1.449484 0.933766 -0.829251 -0.176305531 0.9754306 -0.132104144 0 0
-1.433044 0.941035 -0.80983 -0.105400959 0.991109014 -0.0812007385 0 0
-1.458481 0.933766 -0.81945 -0.144208514 0.976557653 -0.159809435 0 0
-1.441455 0.941035 -0.800588 -0.0874051151 0.991458022 -0.0968056652 0 0
-1.469149 0.933766 -0.811501 -0.113405094 0.975443818 -0.188808481 0 0
-1.451507 0.941035 -0.793164 -0.0701005317 0.991107518 -0.113100858 0 0
-1.481109 0.933766 -0.805682 -0.0879980949 0.973278929 -0.212095408 0 0
-1.462815 0.941035 -0.787845 -0.0568993568 0.989588813 -0.132198506 0 0
-1.600542 0.933766 -0.763223 -0.065599467 0.973292092 -0.219998213 0 0
-1.603471 0.941035 -0.73784 -0.0392998583 0.989596433 -0.138399501 0 0
-1.613491 0.933766 -0.760186 -0.031300744 0.975423186 -0.218105184 0 0
-1.615599 0.941035 -0.734829 -0.0171000374 0.991102171 -0.132000289 0 0
-1.626783 0.933766 -0.759618 0.0110005597 0.976549683 -0.215010939 0 0
-1.628082 0.941035 -0.734241 0.00670034528 0.991451091 -0.130306715 0 0
-1.639948 0.933766 -0.76154 0.0534020184 0.975436867 -0.213708077 0 0
-1.640439 0.941035 -0.7361 0.030400401 0.991113073 -0.129501708 0 0
-1.652519 0.933766 -0.765883 0.0876985521 0.973283931 -0.212196497 0 0
-1.652196 0.941035 -0.740334 0.0531996252 0.989593028 -0.133699058 0 0
-1.766995 0.933766 -0.820312 0.109197733 0.97327979 -0.201995806 0 0
-1.787014 0.941035 -0.804435 0.0700992058 0.989588788 -0.125698576 0 0
-1.778299 0.933766 -0.827321 0.132104144 0.9754306 -0.176305531 0 0
-1.797719 0.941035 -0.810881 0.0812007385 0.991109014 -0.105400959 0 0
-1.788099 0.933766 -0.836318 0.159809435 0.976557653 -0.144208514 0 0
-1.806961 0.941035 -0.819292 0.0968056652 0.991458022 -0.0874051151 0 0
-1.796049 0.933766 -0.846985 0.188808481 0.975443818 -0.113405094 0 0
-1.814385 0.941035 -0.829344 0.113100858 0.991107518 -0.0701005317 0 0
-1.801867 0.933766 -0.858946 0.212095408 0.973278929 -0.0879980949 0 0
-1.819705 0.941035 -0.840651 0.132198506 0.989588813 -0.0568993568 0 0
-1.844326 0.933766 -0.978379 0.219998213 0.973292092 -0.065599467 0 0
-1.869709 0.941035 -0.981308 0.138399501 0.989596433 -0.0392998583 0 0
-1.847364 0.933766 -0.991328 0.218105184 0.975423186 -0.031300744 0 0
-1.872721 0.941035 -0.993436 0.132000289 0.991102171 -0.0171000374 0 0
-1.847932 0.933766 -1.00462 0.215010939 0.976549683 0.0110005597 0 0
-1.873308 0.941035 -1.005919 0.130306715 0.991451091 0.00670034528 0 0
-1.867216 0.941035 -1.030033 0.133699058 0.989593028 0.0531996252 0 0
-1.841667 0.933766 -1.030356 0.212196497 0.973283931 0.0876985521 0 0
-1.87145 0.941035 -1.018276 0.129501708 0.991113073 0.030400401 0 0
-1.84601 0.933766 -1.017785 0.213708077 0.975436867 0.0534020184 0 0
-1.739328 0.92439 -1.107818 0.0880026978 0.993830466 0.0675020693 0 0
-1.747737 0.92439 -1.095024 0.102001272 0.99321239 0.0559006974 0 0
-1.728873 0.92439 -1.119008 0.0726994017 0.994091819 0.0805993367 0 0
-1.716674 0.92439 -1.128267 0.0582018322 0.993831286 0.0944029719 0 0
-1.703089 0.92439 -1.135325 0.0452004267 0.993209376 0.107201012 0 0
-1.636458 0.92439 -1.159013 0.032600594 0.993218097 0.111602033 0 0
-1.621466 0.92439 -1.162114 0.0144003903 0.993826933 0.110002981 0 0
-1.60616 0.92439 -1.162633 -0.00549995705 0.994092236 0.108399153 0 0
-1.590987 0.92439 -1.160554 -0.0256008166 0.993831699 0.107903442 0 0
-1.57639 0.92439 -1.155939 -0.0438007891 0.993217893 0.10770194 0 0
-1.512525 0.92439 -1.125573 -0.0559006974 0.99321239 0.102001272 0 0
-1.499732 0.92439 -1.117165 -0.0675020693 0.993830466 0.0880026978 0 0
-1.488542 0.92439 -1.106709 -0.0805993367 0.994091819 0.0726994017 0 0
-1.479283 0.92439 -1.094511 -0.0944029719 0.993831286 0.0582018322 0 0
-1.472225 0.92439 -1.080926 -0.107201012 0.993209376 0.0452004267 0 0
-1.448537 0.92439 -1.014295 -0.111602033 0.993218097 0.032600594 0 0
-1.445436 0.92439 -0.999303 -0.110002981 0.993826933 0.0144003903 0 0
-1.444917 0.92439 -0.983997 -0.108399153 0.994092236 -0.00549995705 0 0
-1.446996 0.92439 -0.968824 -0.107903442 0.993831699 -0.0256008166 0 0
-1.451611 0.92439 -0.954227 -0.10770194 0.993217893 -0.0438007891 0 0
-1.481976 0.92439 -0.890362 -0.102001272 0.99321239 -0.0559006974 0 0
-1.490384 0.92439 -0.877568 -0.0880026978 0.993830466 -0.0675020693 0 0
-1.50084 0.92439 -0.866379 -0.0726994017 0.994091819 -0.0805993367 0 0
-1.513039 0.92439 -0.85712 -0.0582018322 0.993831286 -0.0944029719 0 0
-1.526624 0.92439 -0.850061 -0.0452004267 0.993209376 -0.107201012 0 0
-1.593255 0.92439 -0.826374 -0.032600594 0.993218097 -0.111602033 0 0
-1.608247 0.92439 -0.823273 -0.0144003903 0.993826933 -0.110002981 0 0
-1.623553 0.92439 -0.822754 0.00549995705 0.994092236 -0.108399153 0 0
-1.638725 0.92439 -0.824832 0.0256008166 0.993831699 -0.107903442 0 0
-1.653322 0.92439 -0.829447 0.0438007891 0.993217893 -0.10770194 0 0
-1.717188 0.92439 -0.859813 0.0559006974 0.99321239 -0.102001272 0 0
-1.729981 0.92439 -0.868221 0.0675020693 0.993830466 -0.0880026978 0 0
-1.741171 0.92439 -0.878677 0.0805993367 0.994091819 -0.0726994017 0 0
-1.75043 0.92439 -0.890876 0.0944029719 0.993831286 -0.0582018322 0 0
-1.757488 0.92439 -0.904461 0.107201012 0.993209376 -0.0452004267 0 0
-1.781176 0.92439 -0.971092 0.111602033 0.993218097 -0.032600594 0 0
-1.784277 0.92439 -0.986084 0.110002981 0.993826933 -0.0144003903 0 0
-1.784796 0.92439 -1.001389 0.108399153 0.994092236 0.00549995705 0 0
-1.778102 0.92439 -1.031159 0.10770194 0.993217893 0.0438007891 0 0
-1.782717 0.92439 -1.016562 0.107903442 0.993831699 0.0256008166 0 0
-1.709015 0.916536 -0.950632 0 1 0 0 0
-1.614856 0.916536 -0.992693 0 1 0 0 0
-1.714435 0.916536 -0.96588 0 1 0 0 0
-1.511865 0.916536 -0.987423 0 1 0 0 0
-1.513958 0.916536 -0.971376 0 1 0 0 0
-1.69508 0.916536 -1.057494 0 1 0 0 0
-1.683955 0.916536 -1.069246 0 1 0 0 0
-1.609586 0.916536 -1.095684 0 1 0 0 0
-1.59354 0.916536 -1.093592 0 1 0 0 0
-1.572795 0.916536 -0.898535 0 1 0 0 0
-1.588043 0.916536 -0.893114 0 1 0 0 0
-1.520698 0.916536 -1.034754 0 1 0 0 0
-1.515277 0.916536 -1.019507 0 1 0 0 0
-1.679657 0.916536 -0.912469 0 1 0 0 0
-1.691409 0.916536 -0.923594 0 1 0 0 0
-1.715755 0.916536 -1.01401 0 1 0 0 0
-1.711178 0.916536 -1.029532 0 1 0 0 0
-1.534632 0.916536 -0.927893 0 1 0 0 0
-1.545757 0.916536 -0.916141 0 1 0 0 0
-1.64167 0.916536 -1.092272 0 1 0 0 0
-1.625762 0.916536 -1.095241 0 1 0 0 0
-1.550056 0.916536 -1.072917 0 1 0 0 0
-1.538304 0.916536 -1.061792 0 1 0 0 0
-1.636173 0.916536 -0.891794 0 1 0 0 0
-1.651695 0.916536 -0.896371 0 1 0 0 0
-1.518534 0.916536 -0.955855 0 1 0 0 0
-1.717404 0.916536 -0.981787 0 1 0 0 0
-1.671129 0.916536 -1.079113 0 1 0 0 0
-1.603951 0.916536 -0.890145 0 1 0 0 0
-1.578018 0.916536 -1.089015 0 1 0 0 0
-1.512309 0.916536 -1.003599 0 1 0 0 0
-1.701276 0.916536 -0.93642 0 1 0 0 0
-1.558583 0.916536 -0.906274 0 1 0 0 0
-1.704229 0.916536 -1.044146 0 1 0 0 0
-1.528437 0.916536 -1.048966 0 1 0 0 0
-1.666309 0.916536 -0.90332 0 1 0 0 0
-1.717848 0.916536 -0.997964 0 1 0 0 0
-1.525483 0.916536 -0.94124 0 1 0 0 0
-1.656917 0.916536 -1.086852 0 1 0 0 0
-1.563403 0.916536 -1.082066 0 1 0 0 0
-1.620127 0.916536 -0.889702 0 1 0 0 0
-1.651833 0.934437 -0.742789 -0.0322017465 -0.996354039 0.0790042849 0 0
-1.633488 0.922873 -0.805824 -0.0366983697 -0.988956067 0.143593621 0 0
-1.64019 0.934437 -0.738596 -0.0189996233 -0.996780239 0.0778984557 0 0
-1.64205 0.922873 -0.808908 -0.0586989349 -0.988382066 0.140197456 0 0
-1.786571 0.934437 -1.182929 -0.0529982961 -0.996867951 -0.0586981129 0 0
-1.747265 0.922873 -1.125866 -0.119094936 -0.988957945 -0.0881962495 0 0
-1.7949 0.934437 -1.173777 -0.0638988495 -0.996782053 -0.0483991286 0 0
-1.741139 0.922873 -1.132597 -0.0977985384 -0.989285215 -0.10839838 0 0
-1.870212 0.934437 -0.993429 -0.0793986737 -0.996783349 0.0108998179 0 0
-1.800458 0.922873 -0.984402 -0.145398507 -0.988389854 0.0440995473 0 0
-1.86723 0.934437 -0.981419 -0.0819042059 -0.996351164 0.0240012325 0 0
-1.802651 0.922873 -0.993234 -0.146593244 -0.988954425 0.0218989908 0 0
-1.358918 0.934437 -0.979596 0.078997369 -0.9968668 0.00399986679 0 0
-1.427062 0.922873 -0.992152 0.146593244 -0.988954425 -0.0218989908 0 0
-1.359501 0.934437 -0.991957 0.0793986737 -0.996783349 -0.0108998179 0 0
-1.426634 0.922873 -0.983061 0.14579804 -0.989286699 0.00739990051 0 0
-1.444373 0.934437 -1.17912 0.0409024227 -0.996359016 -0.0748044308 0 0
-1.587663 0.922873 -1.176479 0.0586989349 -0.988382066 -0.140197456 0 0
-1.57788 0.934437 -1.242598 0.0322017465 -0.996354039 -0.0790042849 0 0
-1.489479 0.922873 -1.129796 0.0716988725 -0.988384458 -0.133997893 0 0
-1.433772 0.934437 -1.172737 0.0483991286 -0.996782053 -0.0638988495 0 0
-1.481683 0.922873 -1.125101 0.0881962495 -0.988957945 -0.119094936 0 0
-1.615592 0.934437 -0.737337 0.0108998179 -0.996783349 0.0793986737 0 0
-1.606565 0.922873 -0.807092 0.0440995473 -0.988389854 0.145398507 0 0
-1.603582 0.934437 -0.740319 0.0240012325 -0.996351164 0.0819042059 0 0
-1.615398 0.922873 -0.804899 0.0218989908 -0.988954425 0.146593244 0 0
-1.795941 0.934437 -0.812649 -0.0483991286 -0.996782053 0.0638988495 0 0
-1.740233 0.922873 -0.85559 -0.0716988725 -0.988384458 0.133997893 0 0
-1.785339 0.934437 -0.806266 -0.0409024227 -0.996359016 0.0748044308 0 0
-1.74803 0.922873 -0.860285 -0.0881962495 -0.988957945 0.119094936 0 0
-1.60176 0.934437 -1.248631 0.00399986679 -0.9968668 -0.078997369 0 0
-1.614315 0.922873 -1.180488 -0.0218989908 -0.988954425 -0.146593244 0 0
-1.61412 0.934437 -1.248049 -0.0108998179 -0.996783349 -0.0793986737 0 0
-1.605225 0.922873 -1.180916 0.00739990051 -0.989286699 -0.14579804 0 0
-1.801283 0.934437 -1.163176 -0.0748044308 -0.996359016 -0.0409024227 0 0
-1.798642 0.922873 -1.019887 -0.140197456 -0.988382066 -0.0586989349 0 0
-1.864761 0.934437 -1.02967 -0.0790042849 -0.996354039 -0.0322017465 0 0
-1.751959 0.922873 -1.11807 -0.133997893 -0.988384458 -0.0716988725 0 0
-1.412001 0.934437 -1.143256 0.0786044311 -0.996356166 -0.033101866 0 0
-1.469546 0.922873 -1.111655 0.127494097 -0.988954207 -0.0755964996 0 0
-1.417269 0.934437 -1.154453 0.0684988681 -0.996783528 -0.0415993126 0 0
-1.465672 0.922873 -1.10342 0.140598546 -0.98838978 -0.0575994044 0 0
-1.434813 0.934437 -0.811609 0.0638988495 -0.996782053 0.0483991286 0 0
-1.477754 0.922873 -0.867316 0.133997893 -0.988384458 0.0716988725 0 0
-1.428429 0.934437 -0.82221 0.0748044308 -0.996359016 0.0409024227 0 0
-1.482448 0.922873 -0.85952 0.119094936 -0.988957945 0.0881962495 0 0
-1.817712 0.934437 -0.84213 -0.0786044311 -0.996356166 0.033101866 0 0
-1.760167 0.922873 -0.873731 -0.127494097 -0.988954207 0.0755964996 0 0
-1.812444 0.934437 -0.830933 -0.0684988681 -0.996783528 0.0415993126 0 0
-1.764041 0.922873 -0.881966 -0.140598546 -0.98838978 0.0575994044 0 0
-1.870794 0.934437 -1.00579 -0.078997369 -0.9968668 -0.00399986679 0 0
-1.803079 0.922873 -1.002325 -0.14579804 -0.989286699 -0.00739990051 0 0
-1.464294 0.934437 -0.789837 0.033101866 -0.996356166 0.0786044311 0 0
-1.495894 0.922873 -0.847383 0.0755964996 -0.988954207 0.127494097 0 0
-1.453096 0.934437 -0.795105 0.0415993126 -0.996783528 0.0684988681 0 0
-1.504129 0.922873 -0.843508 0.0575994044 -0.98838978 0.140598546 0 0
-1.360759 0.934437 -0.967359 0.0778984557 -0.996780239 0.0189996233 0 0
-1.427988 0.922873 -0.974062 0.143593621 -0.988956067 0.0366983697 0 0
-1.765419 0.934437 -1.195549 -0.033101866 -0.996356166 -0.0786044311 0 0
-1.733818 0.922873 -1.138003 -0.0755964996 -0.988954207 -0.127494097 0 0
-1.776616 0.934437 -1.190281 -0.0415993126 -0.996783528 -0.0684988681 0 0
-1.725584 0.922873 -1.141878 -0.0575994044 -0.98838978 -0.140598546 0 0
-1.627953 0.934437 -0.736755 -0.00399986679 -0.9968668 0.078997369 0 0
-1.624488 0.922873 -0.804471 -0.00739990051 -0.989286699 0.14579804 0 0
-1.589522 0.934437 -1.24679 0.0189996233 -0.996780239 -0.0778984557 0 0
-1.596225 0.922873 -1.179562 0.0366983697 -0.988956067 -0.143593621 0 0
-1.474952 0.922873 -1.118976 0.10839838 -0.989285215 -0.0977985384 0 0
-1.42462 0.934437 -1.164408 0.0586981129 -0.996867951 -0.0529982961 0 0
-1.431071 0.922873 -0.9655 0.140197456 -0.988382066 0.0586989349 0 0
-1.364952 0.934437 -0.955716 0.0790042849 -0.996354039 0.0322017465 0 0
-1.754761 0.922873 -0.86641 -0.10839838 -0.989285215 0.0977985384 0 0
-1.805093 0.934437 -0.820979 -0.0586981129 -0.996867951 0.0529982961 0 0
-1.626131 0.934437 -1.245067 -0.0240012325 -0.996351164 -0.0819042059 0 0
-1.623148 0.922873 -1.178294 -0.0440995473 -0.988389854 -0.145398507 0 0
-1.868953 0.934437 -1.018027 -0.0778984557 -0.996780239 -0.0189996233 0 0
-1.801725 0.922873 -1.011324 -0.143593621 -0.988956067 -0.0366983697 0 0
-1.488574 0.922873 -0.852789 0.0977985384 -0.989285215 0.10839838 0 0
-1.443142 0.934437 -0.802457 0.0529982961 -0.996867951 0.0586981129 0 0
-1.429255 0.922873 -1.000984 0.145398507 -0.988389854 -0.0440995473 0 0
-1.362483 0.934437 -1.003967 0.0819042059 -0.996351164 -0.0240012325 0 0
-1.733838 0.914422 -0.998782 -0.728321187 -0.684219904 -0.0373010851 0 0
-1.732982 0.914422 -1.00447 -0.707553787 -0.683451955 -0.179613654 0 0
-1.496731 0.914422 -0.980916 0.707553787 -0.683451955 0.179613654 0 0
-1.49868 0.914422 -0.975503 0.684003444 -0.67120338 0.285701439 0 0
-1.535029 0.914422 -0.904255 0.488682581 -0.684175613 0.541380703 0 0
-1.539657 0.914422 -0.900838 0.373319835 -0.683436312 0.627333331 0 0
-1.694684 0.914422 -1.081131 -0.488682581 -0.684175613 -0.541380703 0 0
-1.690056 0.914422 -1.084548 -0.373319835 -0.683436312 -0.627333331 0 0
-1.620945 0.914422 -0.873712 -0.0373010851 -0.684219904 0.728321187 0 0
-1.626634 0.914422 -0.874567 -0.179613654 -0.683451955 0.707553787 0 0
-1.709161 0.914422 -0.922699 -0.685702575 -0.67120252 0.281601057 0 0
-1.732181 0.914422 -0.987452 -0.709596821 -0.671196993 0.214399039 0 0
-1.603079 0.914422 -1.110819 0.179613654 -0.683451955 -0.707553787 0 0
-1.597667 0.914422 -1.10887 0.285701439 -0.67120338 -0.684003444 0 0
-1.497532 0.914422 -0.997934 0.709596821 -0.671196993 -0.214399039 0 0
-1.496146 0.914422 -0.992351 0.722217821 -0.683416864 -0.106502628 0 0
-1.544862 0.914422 -0.898389 0.281601057 -0.67120252 0.685702575 0 0
-1.609615 0.914422 -0.875369 0.214399039 -0.671196993 0.709596821 0 0
-1.530673 0.914422 -1.076392 0.435317925 -0.683428141 -0.58602413 0 0
-1.526419 0.914422 -1.07252 0.541380703 -0.684175613 -0.488682581 0 0
-1.620098 0.914422 -1.110017 -0.214399039 -0.671196993 -0.709596821 0 0
-1.614514 0.914422 -1.111404 -0.106502628 -0.683416864 -0.722217821 0 0
-1.699039 0.914422 -0.908994 -0.435317925 -0.683428141 0.58602413 0 0
-1.703294 0.914422 -0.912866 -0.541380703 -0.684175613 0.488682581 0 0
-1.731033 0.914422 -1.009883 -0.684003444 -0.67120338 -0.285701439 0 0
-1.520552 0.914422 -1.062687 0.685702575 -0.67120252 -0.281601057 0 0
-1.531157 0.914422 -0.90851 0.585998617 -0.683398387 0.435398972 0 0
-1.632046 0.914422 -0.876517 -0.285701439 -0.67120338 0.684003444 0 0
-1.698556 0.914422 -1.076876 -0.585998617 -0.683398387 -0.435398972 0 0
-1.733567 0.914422 -0.993035 -0.722217821 -0.683416864 0.106502628 0 0
-1.495875 0.914422 -0.986605 0.728321187 -0.684219904 0.0373010851 0 0
-1.535602 0.914422 -1.07936 0.350098073 -0.671196305 -0.653396403 0 0
-1.615198 0.914422 -0.873982 0.106502628 -0.683416864 0.722217821 0 0
-1.608768 0.914422 -1.111674 0.0373010851 -0.684219904 -0.728321187 0 0
-1.694111 0.914422 -0.906026 -0.350098073 -0.671196305 0.653396403 0 0
-1.701523 0.914422 -1.071948 -0.653373526 -0.671172805 -0.350185811 0 0
-1.523001 0.914422 -1.067893 0.627333331 -0.683436312 -0.373319835 0 0
-1.528189 0.914422 -0.913438 0.653373526 -0.671172805 0.350185811 0 0
-1.706712 0.914422 -0.917494 -0.627333331 -0.683436312 0.373319835 0 0
-1.68485 0.914422 -1.086997 -0.281601057 -0.67120252 -0.685702575 0 0
-1.609615 0.90953 -0.875369 0.20691207 -0.696240613 0.687340094 0 0
-1.615198 0.90953 -0.873982 0.105302073 -0.685713502 0.720214181 0 0
-1.535602 0.90953 -1.07936 0.33960809 -0.696216584 -0.632415064 0 0
-1.530673 0.90953 -1.076392 0.434787398 -0.685680126 -0.583783079 0 0
-1.694111 0.90953 -0.906026 -0.33960809 -0.696216584 0.632415064 0 0
-1.699039 0.90953 -0.908994 -0.434787398 -0.685680126 0.583783079 0 0
-1.614514 0.90953 -1.111404 -0.105302073 -0.685713502 -0.720214181 0 0
-1.608768 0.90953 -1.111674 0.0372008939 -0.685716478 -0.726917468 0 0
-1.731033 0.90953 -1.009883 -0.662630084 -0.69623161 -0.276012531 0 0
-1.701523 0.90953 -1.071948 -0.632333571 -0.696236964 -0.339718036 0 0
-1.523001 0.90953 -1.067893 0.625103466 -0.685703802 -0.372902068 0 0
-1.520552 0.90953 -1.062687 0.663738159 -0.696240028 -0.273315713 0 0
-1.528189 0.90953 -0.913438 0.632333571 -0.696236964 0.339718036 0 0
-1.531157 0.90953 -0.90851 0.583783079 -0.685680126 0.434787398 0 0
-1.698556 0.90953 -1.076876 -0.583783079 -0.685680126 -0.434787398 0 0
-1.706712 0.90953 -0.917494 -0.625103466 -0.685703802 0.372902068 0 0
-1.709161 0.90953 -0.922699 -0.663738159 -0.696240028 0.273315713 0 0
-1.733567 0.90953 -0.993035 -0.720214181 -0.685713502 0.105302073 0 0
-1.733838 0.90953 -0.998782 -0.726917468 -0.685716478 -0.0372008939 0 0
-1.495875 0.90953 -0.986605 0.726917468 -0.685716478 0.0372008939 0 0
-1.496731 0.90953 -0.980916 0.70570428 -0.685704159 0.178301081 0 0
-1.539657 0.90953 -0.900838 0.372902068 -0.685703802 0.625103466 0 0
-1.544862 0.90953 -0.898389 0.273315713 -0.696240028 0.663738159 0 0
-1.690056 0.90953 -1.084548 -0.372902068 -0.685703802 -0.625103466 0 0
-1.68485 0.90953 -1.086997 -0.273315713 -0.696240028 -0.663738159 0 0
-1.620945 0.90953 -0.873712 -0.0372008939 -0.685716478 0.726917468 0 0
-1.603079 0.90953 -1.110819 0.178301081 -0.685704159 -0.70570428 0 0
-1.632046 0.90953 -0.876517 -0.276012531 -0.69623161 0.662630084 0 0
-1.49868 0.90953 -0.975503 0.662630084 -0.69623161 0.276012531 0 0
-1.526419 0.90953 -1.07252 0.540310841 -0.685713759 -0.487709786 0 0
-1.620098 0.90953 -1.110017 -0.20691207 -0.696240613 -0.687340094 0 0
-1.703294 0.90953 -0.912866 -0.540310841 -0.685713759 0.487709786 0 0
-1.732982 0.90953 -1.00447 -0.70570428 -0.685704159 -0.178301081 0 0
-1.535029 0.90953 -0.904255 0.487709786 -0.685713759 0.540310841 0 0
-1.694684 0.90953 -1.081131 -0.487709786 -0.685713759 -0.540310841 0 0
-1.626634 0.90953 -0.874567 -0.178301081 -0.685704159 0.70570428 0 0
-1.732181 0.90953 -0.987452 -0.687340094 -0.696240613 0.20691207 0 0
-1.497532 0.90953 -0.997934 0.687340094 -0.696240613 -0.20691207 0 0
-1.496146 0.90953 -0.992351 0.720214181 -0.685713502 -0.105302073 0 0
-1.597667 0.90953 -1.10887 0.276012531 -0.69623161 -0.662630084 0 0
-1.680473 0.90953 -1.081099 0.264905061 -0.718313724 0.643312291 0 0
-1.61977 0.90953 -1.102679 0.200598226 -0.718293647 0.666194108 0 0
-1.697763 0.90953 -0.917859 0.507443947 -0.729863209 -0.458039668 0 0
-1.700966 0.90953 -0.922197 0.587119231 -0.729823906 -0.350211471 0 0
-1.726396 0.90953 -0.998401 0.682732314 -0.729834544 0.0349016519 0 0
-1.725594 0.90953 -1.003734 0.662773287 -0.729870583 0.167393253 0 0
-1.540022 0.90953 -0.909787 -0.458039668 -0.729863209 -0.507443947 0 0
-1.54436 0.90953 -0.906583 -0.350211471 -0.729823906 -0.587119231 0 0
-1.504119 0.90953 -0.981652 -0.66276219 -0.729858363 -0.167490445 0 0
-1.505946 0.90953 -0.976578 -0.642221842 -0.718324431 -0.267509098 0 0
-1.689691 0.90953 -1.075599 0.458006236 -0.729909938 0.507406908 0 0
-1.685352 0.90953 -1.078803 0.350211471 -0.729823906 0.587119231 0 0
-1.620564 0.90953 -0.881154 0.0349016519 -0.729834544 -0.682732314 0 0
-1.625897 0.90953 -0.881956 0.167502669 -0.72981163 -0.662810562 0 0
-1.703262 0.90953 -0.927077 0.643312291 -0.718313724 -0.264905061 0 0
-1.724842 0.90953 -0.98778 0.666194108 -0.718293647 -0.200598226 0 0
-1.50487 0.90953 -0.997606 -0.666194108 -0.718293647 0.200598226 0 0
-1.503571 0.90953 -0.992372 -0.676382353 -0.729880958 0.0988974198 0 0
-1.603816 0.90953 -1.10343 -0.167405471 -0.729823851 0.662821661 0 0
-1.598742 0.90953 -1.101603 -0.267509098 -0.718324431 0.642221842 0 0
-1.535939 0.90953 -1.071157 -0.40830283 -0.729905058 0.548203799 0 0
-1.53195 0.90953 -1.067527 -0.507443947 -0.729863209 0.458039668 0 0
-1.54924 0.90953 -0.904287 -0.264905061 -0.718313724 -0.643312291 0 0
-1.609943 0.90953 -0.882707 -0.200598226 -0.718293647 -0.666194108 0 0
-1.693774 0.90953 -0.914229 0.40830283 -0.729905058 -0.548203799 0 0
-1.614536 0.90953 -1.103979 0.0989046382 -0.729834226 0.676431722 0 0
-1.723766 0.90953 -1.008808 0.642221842 -0.718324431 0.267509098 0 0
-1.526451 0.90953 -1.058309 -0.643312291 -0.718313724 0.264905061 0 0
-1.536392 0.90953 -0.913775 -0.548243815 -0.729858329 -0.408332633 0 0
-1.693321 0.90953 -1.071611 0.548243815 -0.729858329 0.408332633 0 0
-1.630971 0.90953 -0.883783 0.267509098 -0.718324431 -0.642221842 0 0
-1.726142 0.90953 -0.993014 0.676382353 -0.729880958 -0.0988974198 0 0
-1.540559 0.90953 -1.073939 -0.32920429 -0.71830936 0.612907986 0 0
-1.503317 0.90953 -0.986985 -0.682732314 -0.729834544 -0.0349016519 0 0
-1.615177 0.90953 -0.881407 -0.0989046382 -0.729834226 -0.676431722 0 0
-1.609149 0.90953 -1.104233 -0.0348991047 -0.729881275 0.682682486 0 0
-1.689154 0.90953 -0.911447 0.32920429 -0.71830936 -0.612907986 0 0
-1.696102 0.90953 -1.066991 0.612907986 -0.71830936 0.32920429 0 0
-1.53361 0.90953 -0.918395 -0.612907986 -0.71830936 -0.32920429 0 0
-1.528746 0.90953 -1.063189 -0.587119231 -0.729823906 0.350211471 0 0
-1.724842 0.912643 -0.98778 0.687340094 -0.696240613 -0.20691207 0 0
-1.726142 0.912643 -0.993014 0.720214181 -0.685713502 -0.105302073 0 0
-1.503571 0.912643 -0.992372 -0.720214181 -0.685713502 0.105302073 0 0
-1.503317 0.912643 -0.986985 -0.726917468 -0.685716478 -0.0372008939 0 0
-1.598742 0.912643 -1.101603 -0.276012531 -0.69623161 0.662630084 0 0
-1.540559 0.912643 -1.073939 -0.33960809 -0.696216584 0.632415064 0 0
-1.535939 0.912643 -1.071157 -0.434787398 -0.685680126 0.583783079 0 0
-1.609943 0.912643 -0.882707 -0.20691207 -0.696240613 -0.687340094 0 0
-1.615177 0.912643 -0.881407 -0.105302073 -0.685713502 -0.720214181 0 0
-1.614536 0.912643 -1.103979 0.105302073 -0.685713502 0.720214181 0 0
-1.609149 0.912643 -1.104233 -0.0372008939 -0.685716478 0.726917468 0 0
-1.689154 0.912643 -0.911447 0.33960809 -0.696216584 -0.632415064 0 0
-1.693774 0.912643 -0.914229 0.434787398 -0.685680126 -0.583783079 0 0
-1.723766 0.912643 -1.008808 0.662630084 -0.69623161 0.276012531 0 0
-1.696102 0.912643 -1.066991 0.632333571 -0.696236964 0.339718036 0 0
-1.528746 0.912643 -1.063189 -0.625103466 -0.685703802 0.372902068 0 0
-1.526451 0.912643 -1.058309 -0.663738159 -0.696240028 0.273315713 0 0
-1.53361 0.912643 -0.918395 -0.632355052 -0.696260616 -0.339629568 0 0
-1.536392 0.912643 -0.913775 -0.583783079 -0.685680126 -0.434787398 0 0
-1.693321 0.912643 -1.071611 0.583783079 -0.685680126 0.434787398 0 0
-1.700966 0.912643 -0.922197 0.625103466 -0.685703802 -0.372902068 0 0
-1.703262 0.912643 -0.927077 0.663738159 -0.696240028 -0.273315713 0 0
-1.726396 0.912643 -0.998401 0.726917468 -0.685716478 0.0372008939 0 0
-1.54436 0.912643 -0.906583 -0.372902068 -0.685703802 -0.625103466 0 0
-1.54924 0.912643 -0.904287 -0.273315713 -0.696240028 -0.663738159 0 0
-1.504119 0.912643 -0.981652 -0.70570428 -0.685704159 -0.178301081 0 0
-1.620564 0.912643 -0.881154 0.0372008939 -0.685716478 -0.726917468 0 0
-1.685352 0.912643 -1.078803 0.372902068 -0.685703802 0.625103466 0 0
-1.680473 0.912643 -1.081099 0.273315713 -0.696240028 0.663738159 0 0
-1.603816 0.912643 -1.10343 -0.178301081 -0.685704159 0.70570428 0 0
-1.630971 0.912643 -0.883783 0.276012531 -0.69623161 -0.662630084 0 0
-1.53195 0.912643 -1.067527 -0.540310841 -0.685713759 0.487709786 0 0
-1.505946 0.912643 -0.976578 -0.662630084 -0.69623161 -0.276012531 0 0
-1.697763 0.912643 -0.917859 0.540310841 -0.685713759 -0.487709786 0 0
-1.61977 0.912643 -1.102679 0.20691207 -0.696240613 0.687340094 0 0
-1.725594 0.912643 -1.003734 0.70570428 -0.685704159 0.178301081 0 0
-1.540022 0.912643 -0.909787 -0.487709786 -0.685713759 -0.540310841 0 0
-1.689691 0.912643 -1.075599 0.487709786 -0.685713759 0.540310841 0 0
-1.625897 0.912643 -0.881956 0.178301081 -0.685704159 -0.70570428 0 0
-1.50487 0.912643 -0.997606 -0.687340094 -0.696240613 0.20691207 0 0
-1.614856 0.912643 -0.992693 0 -1 0 0 0
3 0 1 2
3 0 3 1
3 2 4 5
3 2 1 4
3 5 6 7
3 5 4 6
3 7 8 9
3 7 6 8
3 9 10 11
3 9 8 10
3 11 12 13
3 11 10 12
3 13 14 15
3 13 12 14
3 15 16 17
3 15 14 16
3 17 18 19
3 17 16 18
3 19 20 21
3 19 18 20
3 21 22 23
3 21 20 22
3 23 24 25
3 23 22 24
3 25 26 27
3 25 24 26
3 27 28 29
3 27 26 28
3 29 30 31
3 29 28 30
3 31 32 33
3 31 30 32
3 33 34 35
3 33 32 34
3 35 36 37
3 35 34 36
3 37 38 39
3 37 36 38
3 39 40 41
3 39 38 40
3 41 42 43
3 41 40 42
3 43 44 45
3 43 42 44
3 45 46 47
3 45 44 46
3 47 48 49
3 47 46 48
3 49 50 51
3 49 48 50
3 51 52 53
3 51 50 52
3 53 54 55
3 53 52 54
3 55 56 57
3 55 54 56
3 57 58 59
3 57 56 58
3 59 60 61
3 59 58 60
3 61 62 63
3 61 60 62
3 63 64 65
3 63 62 64
3 65 66 67
3 65 64 66
3 67 68 69
3 67 66 68
3 69 70 71
3 69 68 70
3 71 72 73
3 71 70 72
3 73 74 75
3 73 72 74
3 76 3 0
3 76 77 3
3 78 77 76
3 78 79 77
3 75 79 78
3 75 74 79
3 80 81 82
3 80 83 81
3 82 84 85
3 82 81 84
3 85 86 87
3 85 84 86
3 87 88 89
3 87 86 88
3 89 90 91
3 89 88 90
3 91 92 93
3 91 90 92
3 93 94 95
3 93 92 94
3 95 96 97
3 95 94 96
3 97 98 99
3 97 96 98
3 99 100 101
3 99 98 100
3 101 102 103
3 101 100 102
3 103 104 105
3 103 102 104
3 105 106 107
3 105 104 106
3 107 108 109
3 107 106 108
3 109 110 111
3 109 108 110
3 111 112 113
3 111 110 112
3 113 114 115
3 113 112 114
3 115 116 117
3 115 114 116
3 117 118 119
3 117 116 118
3 119 120 121
3 119 118 120
3 121 122 123
3 121 120 122
3 123 124 125
3 123 122 124
3 125 126 127
3 125 124 126
3 127 128 129
3 127 126 128
3 129 130 131
3 129 128 130
3 131 132 133
3 131 130 132
3 133 134 135
3 133 132 134
3 135 136 137
3 135 134 136
3 137 138 139
3 137 136 138
3 139 140 141
3 139 138 140
3 141 142 143
3 141 140 142
3 143 144 145
3 143 142 144
3 145 146 147
3 145 144 146
3 147 148 149
3 147 146 148
3 149 150 151
3 149 148 150
3 151 152 153
3 151 150 152
3 153 154 155
3 153 152 154
3 156 83 80
3 156 157 83
3 158 157 156
3 158 159 157
3 155 159 158
3 155 154 159
3 83 160 81
3 83 161 160
3 81 162 84
3 81 160 162
3 84 163 86
3 84 162 163
3 86 164 88
3 86 163 164
3 88 165 90
3 88 164 165
3 90 166 92
3 90 165 166
3 92 167 94
3 92 166 167
3 94 168 96
3 94 167 168
3 96 169 98
3 96 168 169
3 98 170 100
3 98 169 170
3 100 171 102
3 100 170 171
3 102 172 104
3 102 171 172
3 104 173 106
3 104 172 173
3 106 174 108
3 106 173 174
3 108 175 110
3 108 174 175
3 110 176 112
3 110 175 176
3 112 177 114
3 112 176 177
3 114 178 116
3 114 177 178
3 116 179 118
3 116 178 179
3 118 180 120
3 118 179 180
3 120 181 122
3 120 180 181
3 122 182 124
3 122 181 182
3 124 183 126
3 124 182 183
3 126 184 128
3 126 183 184
3 128 185 130
3 128 184 185
3 130 186 132
3 130 185 186
3 132 187 134
3 132 186 187
3 134 188 136
3 134 187 188
3 136 189 138
3 136 188 189
3 138 190 140
3 138 189 190
3 140 191 142
3 140 190 191
3 142 192 144
3 142 191 192
3 144 193 146
3 144 192 193
3 146 194 148
3 146 193 194
3 148 195 150
3 148 194 195
3 150 196 152
3 150 195 196
3 152 197 154
3 152 196 197
3 157 161 83
3 157 198 161
3 159 198 157
3 159 199 198
3 154 199 159
3 154 197 199
3 200 201 202
3 203 201 204
3 205 201 206
3 207 201 208
3 209 201 210
3 211 201 212
3 213 201 214
3 215 201 216
3 217 201 218
3 219 201 220
3 221 201 222
3 223 201 224
3 204 201 225
3 202 201 226
3 206 201 227
3 210 201 228
3 208 201 229
3 212 201 230
3 214 201 231
3 218 201 232
3 216 201 233
3 220 201 207
3 222 201 234
3 224 201 235
3 226 201 236
3 225 201 237
3 227 201 238
3 229 201 239
3 228 201 240
3 230 201 203
3 231 201 200
3 232 201 209
3 233 201 205
3 234 201 211
3 235 201 213
3 237 201 217
3 236 201 215
3 238 201 219
3 240 201 223
3 239 201 221
3 241 242 243
3 241 244 242
3 245 246 247
3 245 248 246
3 249 250 251
3 249 252 250
3 253 254 255
3 253 256 254
3 257 258 259
3 257 260 258
3 261 260 257
3 261 262 260
3 263 264 265
3 263 266 264
3 267 268 269
3 267 270 268
3 271 272 273
3 271 274 272
3 275 276 277
3 275 278 276
3 279 280 281
3 279 282 280
3 283 284 285
3 283 286 284
3 247 278 275
3 247 246 278
3 287 288 289
3 287 290 288
3 291 252 249
3 291 292 252
3 293 294 295
3 293 296 294
3 297 256 253
3 297 298 256
3 299 300 301
3 299 302 300
3 303 266 263
3 303 304 266
3 305 274 271
3 305 306 274
3 269 244 241
3 269 268 244
3 281 307 308
3 281 280 307
3 285 309 310
3 285 284 309
3 289 311 312
3 289 288 311
3 313 302 299
3 313 314 302
3 315 292 291
3 315 316 292
3 310 298 297
3 310 309 298
3 295 317 318
3 295 294 317
3 301 248 245
3 301 300 248
3 243 304 303
3 243 242 304
3 251 290 287
3 251 250 290
3 259 306 305
3 259 258 306
3 255 319 320
3 255 254 319
3 308 262 261
3 308 307 262
3 265 296 293
3 265 264 296
3 273 314 313
3 273 272 314
3 312 270 267
3 312 311 270
3 277 316 315
3 277 276 316
3 318 286 283
3 318 317 286
3 320 282 279
3 320 319 282
3 316 321 292
3 316 322 321
3 309 323 298
3 309 324 323
3 294 325 317
3 294 326 325
3 300 327 248
3 300 328 327
3 242 329 304
3 242 330 329
3 250 331 290
3 250 332 331
3 258 333 306
3 258 334 333
3 254 335 319
3 254 336 335
3 264 337 296
3 264 338 337
3 307 339 262
3 307 340 339
3 272 341 314
3 272 342 341
3 311 343 270
3 311 344 343
3 276 322 316
3 276 345 322
3 319 346 282
3 319 335 346
3 317 347 286
3 317 325 347
3 244 330 242
3 244 348 330
3 248 349 246
3 248 327 349
3 252 332 250
3 252 350 332
3 256 336 254
3 256 351 336
3 260 334 258
3 260 352 334
3 262 352 260
3 262 339 352
3 266 338 264
3 266 353 338
3 274 342 272
3 274 354 342
3 270 355 268
3 270 343 355
3 278 345 276
3 278 356 345
3 282 357 280
3 282 346 357
3 286 358 284
3 286 347 358
3 246 356 278
3 246 349 356
3 290 359 288
3 290 331 359
3 292 350 252
3 292 321 350
3 298 351 256
3 298 323 351
3 296 326 294
3 296 337 326
3 304 353 266
3 304 329 353
3 302 328 300
3 302 360 328
3 306 354 274
3 306 333 354
3 268 348 244
3 268 355 348
3 280 340 307
3 280 357 340
3 284 324 309
3 284 358 324
3 314 360 302
3 314 341 360
3 288 344 311
3 288 359 344
3 353 361 338
3 353 362 361
3 339 363 352
3 339 364 363
3 343 365 355
3 343 366 365
3 354 367 342
3 354 368 367
3 356 369 345
3 356 370 369
3 346 371 357
3 346 372 371
3 347 373 358
3 347 374 373
3 349 370 356
3 349 375 370
3 331 376 359
3 331 377 376
3 321 378 350
3 321 379 378
3 323 380 351
3 323 381 380
3 337 382 326
3 337 383 382
3 360 384 328
3 360 385 384
3 329 362 353
3 329 386 362
3 333 368 354
3 333 387 368
3 355 388 348
3 355 365 388
3 358 389 324
3 358 373 389
3 357 390 340
3 357 371 390
3 341 385 360
3 341 391 385
3 359 392 344
3 359 376 392
3 322 379 321
3 322 393 379
3 324 381 323
3 324 389 381
3 326 394 325
3 326 382 394
3 328 395 327
3 328 384 395
3 330 386 329
3 330 396 386
3 332 377 331
3 332 397 377
3 336 398 335
3 336 399 398
3 334 387 333
3 334 400 387
3 340 364 339
3 340 390 364
3 338 383 337
3 338 361 383
3 342 391 341
3 342 367 391
3 344 366 343
3 344 392 366
3 345 393 322
3 345 369 393
3 325 374 347
3 325 394 374
3 335 372 346
3 335 398 372
3 327 375 349
3 327 395 375
3 348 396 330
3 348 388 396
3 350 397 332
3 350 378 397
3 351 399 336
3 351 380 399
3 352 400 334
3 352 363 400
3 391 401 385
3 391 402 401
3 376 403 392
3 376 404 403
3 393 405 379
3 393 406 405
3 382 407 394
3 382 408 407
3 389 409 381
3 389 410 409
3 384 411 395
3 384 412 411
3 396 413 386
3 396 414 413
3 397 415 377
3 397 416 415
3 399 417 398
3 399 418 417
3 400 419 387
3 400 420 419
3 390 421 364
3 390 422 421
3 361 423 383
3 361 424 423
3 392 425 366
3 392 403 425
3 367 402 391
3 367 426 402
3 369 406 393
3 369 427 406
3 398 428 372
3 398 417 428
3 394 429 374
3 394 407 429
3 395 430 375
3 395 411 430
3 388 414 396
3 388 431 414
3 378 416 397
3 378 432 416
3 363 420 400
3 363 433 420
3 380 418 399
3 380 434 418
3 364 433 363
3 364 421 433
3 362 424 361
3 362 435 424
3 368 426 367
3 368 436 426
3 366 437 365
3 366 425 437
3 370 427 369
3 370 438 427
3 374 439 373
3 374 429 439
3 372 440 371
3 372 428 440
3 377 404 376
3 377 415 404
3 375 438 370
3 375 430 438
3 379 432 378
3 379 405 432
3 381 434 380
3 381 409 434
3 383 408 382
3 383 423 408
3 385 412 384
3 385 401 412
3 386 435 362
3 386 413 435
3 365 431 388
3 365 437 431
3 387 436 368
3 387 419 436
3 371 422 390
3 371 440 422
3 373 410 389
3 373 439 410
3 432 441 416
3 432 442 441
3 434 443 418
3 434 444 443
3 433 445 420
3 433 446 445
3 421 446 433
3 421 447 446
3 435 448 424
3 435 449 448
3 436 450 426
3 436 451 450
3 425 452 437
3 425 453 452
3 438 454 427
3 438 455 454
3 428 456 440
3 428 457 456
3 429 458 439
3 429 459 458
3 430 455 438
3 430 460 455
3 415 461 404
3 415 462 461
3 405 442 432
3 405 463 442
3 423 464 408
3 423 465 464
3 409 444 434
3 409 466 444
3 413 449 435
3 413 467 449
3 401 468 412
3 401 469 468
3 419 451 436
3 419 470 451
3 437 471 431
3 437 452 471
3 440 472 422
3 440 456 472
3 439 473 410
3 439 458 473
3 404 474 403
3 404 461 474
3 402 469 401
3 402 475 469
3 406 463 405
3 406 476 463
3 410 466 409
3 410 473 466
3 408 477 407
3 408 464 477
3 412 478 411
3 412 468 478
3 414 467 413
3 414 479 467
3 416 462 415
3 416 441 462
3 420 470 419
3 420 445 470
3 418 480 417
3 418 443 480
3 422 447 421
3 422 472 447
3 424 465 423
3 424 448 465
3 426 475 402
3 426 450 475
3 403 453 425
3 403 474 453
3 427 476 406
3 427 454 476
3 417 457 428
3 417 480 457
3 407 459 429
3 407 477 459
3 431 479 414
3 431 471 479
3 411 460 430
3 411 478 460
3 458 481 473
3 456 481 472
3 475 481 469
3 461 481 474
3 476 481 463
3 473 481 466
3 464 481 477
3 479 481 467
3 468 481 478
3 441 481 462
3 443 481 480
3 445 481 470
3 472 481 447
3 448 481 465
3 450 481 475
3 474 481 453
3 454 481 476
3 480 481 457
3 477 481 459
3 478 481 460
3 471 481 479
3 442 481 441
3 444 481 443
3 446 481 445
3 449 481 448
3 447 481 446
3 451 481 450
3 453 481 452
3 455 481 454
3 457 481 456
3 459 481 458
3 460 481 455
3 462 481 461
3 463 481 442
3 466 481 444
3 465 481 464
3 469 481 468
3 467 481 449
3 470 481 451
3 452 481 471
