ply
format ascii 1.0
element vertex 510
property float x
property float y
property float z
property float nx
property float ny
property float nz
property float u
property float v
element face 170
property list uchar int vertex_indices
end_header
1.697871 2.513987 -4.45836084 1 -0 1.10910241e-07 -0.002249 0.059678
1.69787102 5.532189 -4.63868684 1 -0 1.10910241e-07 -0.054889 0.995938
1.697871 5.532189 -4.45836084 1 -0 1.10910241e-07 -0.002249 0.995938
1.697871 2.513987 -4.45836084 1 -3.67469195e-14 1.10909626e-07 -0.002249 0.059678
1.69787102 2.513987 -4.63868784 1 -3.67469195e-14 1.10909626e-07 -0.054891 0.059678
1.69787102 5.532189 -4.63868684 1 -3.67469195e-14 1.10909626e-07 -0.054889 0.995938
1.686327 5.543733 -4.45836084 0 1 0 0.00643 1.002889
-0.443545975 5.543733 -4.63869216 0 1 0 0.98599 1.055529
-0.443546002 5.543733 -4.45836616 0 1 0 0.98599 1.002889
1.686327 5.543733 -4.45836084 0 1 0 0.00643 1.002889
1.68632702 5.543733 -4.63868684 0 1 0 0.00643 1.055529
-0.443545975 5.543733 -4.63869216 0 1 0 0.98599 1.055529
-0.443546002 2.502442 -4.45836616 0 -1 0 0.985989 0.052727
1.68632702 2.502442 -4.63868784 0 -1 0 0.00643 8.6e-05
1.686327 2.502442 -4.45836084 0 -1 0 0.00643 0.052727
-0.443546002 2.502442 -4.45836616 0 -1 0 0.985989 0.052727
-0.443545975 2.502442 -4.63869316 0 -1 0 0.985989 8.6e-05
1.68632702 2.502442 -4.63868784 0 -1 0 0.00643 8.6e-05
-0.455090002 5.532189 -4.45836616 -1 -0 -1.49727994e-07 0.994669 0.995938
-0.455089975 2.513987 -4.63869316 -1 -0 -1.49727994e-07 1.047309 0.059678
-0.455090002 2.513987 -4.45836616 -1 -0 -1.49727994e-07 0.994669 0.059678
-0.455090002 5.532189 -4.45836616 -1 4.96086162e-14 -1.49728825e-07 0.994669 0.995938
-0.455089975 5.532189 -4.63869216 -1 4.96086162e-14 -1.49728825e-07 1.047309 0.995938
-0.455089975 2.513987 -4.63869316 -1 4.96086162e-14 -1.49728825e-07 1.047309 0.059678
1.697871 2.513987 -4.45836084 0.956885408 -0.190423879 0.219337783 -0.002249 0.059678
1.695932 2.509459 -4.45383284 0.956885408 -0.190423879 0.219337783 -0.000927 0.058273
1.696992 2.50957 -4.45836084 0.956885408 -0.190423879 0.219337783 -0.002249 0.058307
1.697871 2.513987 -4.45836084 0.956886599 -0.219294935 0.190467237 -0.002249 0.059678
1.696992 2.513987 -4.45394484 0.956886599 -0.219294935 0.190467237 -0.00096 0.059678
1.695932 2.509459 -4.45383284 0.956886599 -0.219294935 0.190467237 -0.000927 0.058273
1.696992 2.50957 -4.45836084 0.816967481 -0.545808448 0.186164643 -0.002249 0.058307
1.693903 2.506412 -4.45406384 0.816967481 -0.545808448 0.186164643 -0.000994 0.057328
1.69449 2.505825 -4.45836084 0.816967481 -0.545808448 0.186164643 -0.002249 0.057146
1.696992 2.50957 -4.45836084 0.813010016 -0.554781998 0.176724783 -0.002249 0.058307
1.695932 2.509459 -4.45383284 0.813010016 -0.554781998 0.176724783 -0.000927 0.058273
1.693903 2.506412 -4.45406384 0.813010016 -0.554781998 0.176724783 -0.000994 0.057328
1.696992 2.513987 -4.45394484 0.813083543 -0.176621323 0.554707185 -0.00096 0.059678
1.693903 2.509688 -4.45078584 0.813083543 -0.176621323 0.554707185 0.001454 0.058344
1.695932 2.509459 -4.45383284 0.813083543 -0.176621323 0.554707185 -0.000927 0.058273
1.696992 2.513987 -4.45394484 0.817048648 -0.186076625 0.545716956 -0.00096 0.059678
1.69449 2.513987 -4.45019884 0.817048648 -0.186076625 0.545716956 0.001405 0.059678
1.693903 2.509688 -4.45078584 0.817048648 -0.186076625 0.545716956 0.001454 0.058344
1.695932 2.509459 -4.45383284 0.716425985 -0.512921222 0.472911861 -0.000927 0.058273
1.692992 2.507321 -4.45169784 0.716425985 -0.512921222 0.472911861 -0.000304 0.05761
1.693903 2.506412 -4.45406384 0.716425985 -0.512921222 0.472911861 -0.000994 0.057328
1.695932 2.509459 -4.45383284 0.716415193 -0.473245289 0.512628683 -0.000927 0.058273
1.693903 2.509688 -4.45078584 0.716415193 -0.473245289 0.512628683 0.001454 0.058344
1.692992 2.507321 -4.45169784 0.716415193 -0.473245289 0.512628683 -0.000304 0.05761
1.686327 2.502442 -4.45836084 0.219280778 -0.956848211 0.190676274 0.00643 0.052727
1.690855 2.504382 -4.45383284 0.219280778 -0.956848211 0.190676274 0.004347 0.054049
1.686327 2.503322 -4.45394484 0.219280778 -0.956848211 0.190676274 0.00643 0.054016
1.686327 2.502442 -4.45836084 0.190589484 -0.956845841 0.219366552 0.00643 0.052727
1.690745 2.503322 -4.45836084 0.190589484 -0.956845841 0.219366552 0.004398 0.052727
1.690855 2.504382 -4.45383284 0.190589484 -0.956845841 0.219366552 0.004347 0.054049
1.686327 2.503322 -4.45394484 0.186083223 -0.816946868 0.545867061 0.00643 0.054016
1.690626 2.506412 -4.45078584 0.186083223 -0.816946868 0.545867061 0.004453 0.054938
1.686327 2.505825 -4.45019884 0.186083223 -0.816946868 0.545867061 0.00643 0.056128
1.686327 2.503322 -4.45394484 0.176588845 -0.812964355 0.554892185 0.00643 0.054016
1.690855 2.504382 -4.45383284 0.176588845 -0.812964355 0.554892185 0.004347 0.054049
1.690626 2.506412 -4.45078584 0.176588845 -0.812964355 0.554892185 0.004453 0.054938
1.690745 2.503322 -4.45836084 0.554835153 -0.812950414 0.176832061 0.004398 0.052727
1.693903 2.506412 -4.45406384 0.554835153 -0.812950414 0.176832061 0.002946 0.053982
1.690855 2.504382 -4.45383284 0.554835153 -0.812950414 0.176832061 0.004347 0.054049
1.690745 2.503322 -4.45836084 0.545958553 -0.816865673 0.186171241 0.004398 0.052727
1.69449 2.505825 -4.45836084 0.545958553 -0.816865673 0.186171241 0.002676 0.052727
1.693903 2.506412 -4.45406384 0.545958553 -0.816865673 0.186171241 0.002946 0.053982
1.690855 2.504382 -4.45383284 0.472942415 -0.716447708 0.512862705 0.004347 0.054049
1.692992 2.507321 -4.45169784 0.472942415 -0.716447708 0.512862705 0.003365 0.054672
1.690626 2.506412 -4.45078584 0.472942415 -0.716447708 0.512862705 0.004453 0.054938
1.690855 2.504382 -4.45383284 0.512998561 -0.716456703 0.472781417 0.004347 0.054049
1.693903 2.506412 -4.45406384 0.512998561 -0.716456703 0.472781417 0.002946 0.053982
1.692992 2.507321 -4.45169784 0.512998561 -0.716456703 0.472781417 0.003365 0.054672
1.686327 2.513987 -4.44681884 0.190162749 -0.219595809 0.956878158 0.00643 0.059678
1.690855 2.509459 -4.44875784 0.190162749 -0.219595809 0.956878158 0.004347 0.058273
1.690745 2.513987 -4.44769684 0.190162749 -0.219595809 0.956878158 0.004398 0.059678
1.686327 2.513987 -4.44681884 0.219553034 -0.190206042 0.956879369 0.00643 0.059678
1.686327 2.50957 -4.44769684 0.219553034 -0.190206042 0.956879369 0.00643 0.058307
1.690855 2.509459 -4.44875784 0.219553034 -0.190206042 0.956879369 0.004347 0.058273
1.690745 2.513987 -4.44769684 0.545817246 -0.186081034 0.81698065 0.004398 0.059678
1.693903 2.509688 -4.45078584 0.545817246 -0.186081034 0.81698065 0.001454 0.058344
1.69449 2.513987 -4.45019884 0.545817246 -0.186081034 0.81698065 0.001405 0.059678
1.690745 2.513987 -4.44769684 0.554376392 -0.177083258 0.813208667 0.004398 0.059678
1.690855 2.509459 -4.44875784 0.554376392 -0.177083258 0.813208667 0.004347 0.058273
1.693903 2.509688 -4.45078584 0.554376392 -0.177083258 0.813208667 0.001454 0.058344
1.686327 2.50957 -4.44769684 0.17694365 -0.554508237 0.813149162 0.00643 0.058307
1.690626 2.506412 -4.45078584 0.17694365 -0.554508237 0.813149162 0.004453 0.057328
1.690855 2.509459 -4.44875784 0.17694365 -0.554508237 0.813149162 0.004347 0.058273
1.686327 2.50957 -4.44769684 0.186081034 -0.545817246 0.81698065 0.00643 0.058307
1.686327 2.505825 -4.45019884 0.186081034 -0.545817246 0.81698065 0.00643 0.056128
1.690626 2.506412 -4.45078584 0.186081034 -0.545817246 0.81698065 0.004453 0.057328
1.690855 2.509459 -4.44875784 0.512344641 -0.473289174 0.716589371 0.004347 0.058273
1.692992 2.507321 -4.45169784 0.512344641 -0.473289174 0.716589371 0.003365 0.05761
1.693903 2.509688 -4.45078584 0.512344641 -0.473289174 0.716589371 0.001454 0.058344
1.690855 2.509459 -4.44875784 0.473116944 -0.512501084 0.716591234 0.004347 0.058273
1.690626 2.506412 -4.45078584 0.473116944 -0.512501084 0.716591234 0.004453 0.057328
1.692992 2.507321 -4.45169784 0.473116944 -0.512501084 0.716591234 0.003365 0.05761
1.686327 5.543733 -4.45836084 0.190591509 0.956856007 0.219320446 0.00643 1.002889
1.690855 5.541793 -4.45383184 0.190591509 0.956856007 0.219320446 0.004348 1.001567
1.690745 5.542853 -4.45836084 0.190591509 0.956856007 0.219320446 0.004399 1.002889
1.686327 5.543733 -4.45836084 0.219283599 0.956855862 0.19063463 0.00643 1.002889
1.686327 5.542853 -4.45394384 0.219283599 0.956855862 0.19063463 0.00643 1.001599
1.690855 5.541793 -4.45383184 0.219283599 0.956855862 0.19063463 0.004348 1.001567
1.690745 5.542853 -4.45836084 0.545812848 0.816974068 0.186122829 0.004399 1.002889
1.693903 5.539764 -4.45406284 0.545812848 0.816974068 0.186122829 0.002946 1.001634
1.69449 5.540351 -4.45836084 0.545812848 0.816974068 0.186122829 0.002676 1.002889
1.690745 5.542853 -4.45836084 0.554651985 0.813076501 0.176826976 0.004399 1.002889
1.690855 5.541793 -4.45383184 0.554651985 0.813076501 0.176826976 0.004348 1.001567
1.693903 5.539764 -4.45406284 0.554651985 0.813076501 0.176826976 0.002946 1.001634
1.686327 5.542853 -4.45394384 0.176621323 0.813083543 0.554707185 0.00643 1.001599
1.690626 5.539764 -4.45078484 0.176621323 0.813083543 0.554707185 0.004453 0.999483
1.690855 5.541793 -4.45383184 0.176621323 0.813083543 0.554707185 0.004348 1.001567
1.686327 5.542853 -4.45394384 0.185958462 0.816999946 0.545830137 0.00643 1.001599
1.686327 5.540351 -4.45019884 0.185958462 0.816999946 0.545830137 0.00643 0.999488
1.690626 5.539764 -4.45078484 0.185958462 0.816999946 0.545830137 0.004453 0.999483
1.690855 5.541793 -4.45383184 0.512784509 0.716462895 0.473004194 0.004348 1.001567
1.692992 5.538854 -4.45169684 0.512784509 0.716462895 0.473004194 0.003365 1.000943
1.693903 5.539764 -4.45406284 0.512784509 0.716462895 0.473004194 0.002946 1.001634
1.690855 5.541793 -4.45383184 0.473165075 0.716453999 0.512648495 0.004348 1.001567
1.690626 5.539764 -4.45078484 0.473165075 0.716453999 0.512648495 0.004453 0.999483
1.692992 5.538854 -4.45169684 0.473165075 0.716453999 0.512648495 0.003365 1.000943
1.697871 5.532189 -4.45836084 0.956894233 0.219297751 0.190425635 -0.002249 0.995938
1.695932 5.536717 -4.45383184 0.956894233 0.219297751 0.190425635 -0.000927 0.997343
1.696992 5.532189 -4.45394384 0.956894233 0.219297751 0.190425635 -0.000959 0.995938
1.697871 5.532189 -4.45836084 0.956896758 0.19046926 0.219248842 -0.002249 0.995938
1.696992 5.536605 -4.45836084 0.956896758 0.19046926 0.219248842 -0.002249 0.997308
1.695932 5.536717 -4.45383184 0.956896758 0.19046926 0.219248842 -0.000927 0.997343
1.696992 5.532189 -4.45394384 0.816999946 0.185958462 0.545830137 -0.000959 0.995938
1.693903 5.536488 -4.45078484 0.816999946 0.185958462 0.545830137 -3.7e-05 0.997271
1.69449 5.532189 -4.45019884 0.816999946 0.185958462 0.545830137 0.001405 0.995938
1.696992 5.532189 -4.45394384 0.813083543 0.176621323 0.554707185 -0.000959 0.995938
1.695932 5.536717 -4.45383184 0.813083543 0.176621323 0.554707185 -0.000927 0.997343
1.693903 5.536488 -4.45078484 0.813083543 0.176621323 0.554707185 -3.7e-05 0.997271
1.696992 5.536605 -4.45836084 0.813038683 0.554789337 0.176569794 -0.002249 0.997308
1.693903 5.539764 -4.45406284 0.813038683 0.554789337 0.176569794 -0.000994 0.998288
1.695932 5.536717 -4.45383184 0.813038683 0.554789337 0.176569794 -0.000927 0.997343
1.696992 5.536605 -4.45836084 0.817042065 0.545712559 0.186118419 -0.002249 0.997308
1.69449 5.540351 -4.45836084 0.817042065 0.545712559 0.186118419 -0.002249 0.99847
1.693903 5.539764 -4.45406284 0.817042065 0.545712559 0.186118419 -0.000994 0.998288
1.695932 5.536717 -4.45383184 0.716339667 0.473401363 0.51259012 -0.000927 0.997343
1.692992 5.538854 -4.45169684 0.716339667 0.473401363 0.51259012 -0.000303 0.998005
1.693903 5.536488 -4.45078484 0.716339667 0.473401363 0.51259012 -3.7e-05 0.997271
1.695932 5.536717 -4.45383184 0.716344105 0.512879527 0.473081086 -0.000927 0.997343
1.693903 5.539764 -4.45406284 0.716344105 0.512879527 0.473081086 -0.000994 0.998288
1.692992 5.538854 -4.45169684 0.716344105 0.512879527 0.473081086 -0.000303 0.998005
1.686327 5.532189 -4.44681784 0.219294935 0.190467237 0.956886599 0.00643 0.995938
1.690855 5.536717 -4.44875684 0.219294935 0.190467237 0.956886599 0.004348 0.997343
1.686327 5.536605 -4.44769684 0.219294935 0.190467237 0.956886599 0.00643 0.997308
1.686327 5.532189 -4.44681784 0.190380539 0.219380611 0.956884213 0.00643 0.995938
1.690745 5.532189 -4.44769684 0.190380539 0.219380611 0.956884213 0.004399 0.995938
1.690855 5.536717 -4.44875684 0.190380539 0.219380611 0.956884213 0.004348 0.997343
1.686327 5.536605 -4.44769684 0.18589314 0.545736247 0.81707753 0.00643 0.997308
1.690626 5.539764 -4.45078484 0.18589314 0.545736247 0.81707753 0.004453 0.999483
1.686327 5.540351 -4.45019884 0.18589314 0.545736247 0.81707753 0.00643 0.999488
1.686327 5.536605 -4.44769684 0.176653801 0.554522103 0.813202725 0.00643 0.997308
1.690855 5.536717 -4.44875684 0.176653801 0.554522103 0.813202725 0.004348 0.997343
1.690626 5.539764 -4.45078484 0.176653801 0.554522103 0.813202725 0.004453 0.999483
1.690745 5.532189 -4.44769684 0.554384653 0.176910924 0.813240543 0.004399 0.995938
1.693903 5.536488 -4.45078484 0.554384653 0.176910924 0.813240543 0.002946 0.997271
1.690855 5.536717 -4.44875684 0.554384653 0.176910924 0.813240543 0.004348 0.997343
1.690745 5.532189 -4.44769684 0.545836539 0.185897565 0.817009528 0.004399 0.995938
1.69449 5.532189 -4.45019884 0.545836539 0.185897565 0.817009528 0.001405 0.995938
1.693903 5.536488 -4.45078484 0.545836539 0.185897565 0.817009528 0.002946 0.997271
1.690855 5.536717 -4.44875684 0.473285981 0.512459354 0.716509449 0.004348 0.997343
1.692992 5.538854 -4.45169684 0.473285981 0.512459354 0.716509449 0.003365 0.998005
1.690626 5.539764 -4.45078484 0.473285981 0.512459354 0.716509449 0.004453 0.999483
1.690855 5.536717 -4.44875684 0.512306099 0.47344525 0.716513821 0.004348 0.997343
1.693903 5.536488 -4.45078484 0.512306099 0.47344525 0.716513821 0.002946 0.997271
1.692992 5.538854 -4.45169684 0.512306099 0.47344525 0.716513821 0.003365 0.998005
-0.455090002 5.532189 -4.45836616 -0.956896803 0.190469268 0.219248641 0.994669 0.995938
-0.453151003 5.536717 -4.45383716 -0.956896803 0.190469268 0.219248641 0.993347 0.997343
-0.454211002 5.536605 -4.45836616 -0.956896803 0.190469268 0.219248641 0.994669 0.997308
-0.455090002 5.532189 -4.45836616 -0.95689188 0.219383421 0.190338766 0.994669 0.995938
-0.454211003 5.532189 -4.45394716 -0.95689188 0.219383421 0.190338766 0.993379 0.995938
-0.453151003 5.536717 -4.45383716 -0.95689188 0.219383421 0.190338766 0.993347 0.997343
-0.454211002 5.536605 -4.45836616 -0.817048677 0.545716975 0.186076441 0.994669 0.997308
-0.451122003 5.539764 -4.45406716 -0.817048677 0.545716975 0.186076441 0.993414 0.998288
-0.451709002 5.540351 -4.45836616 -0.817048677 0.545716975 0.186076441 0.994669 0.99847
-0.454211002 5.536605 -4.45836616 -0.813064599 0.554749165 0.176576674 0.994669 0.997308
-0.453151003 5.536717 -4.45383716 -0.813064599 0.554749165 0.176576674 0.993347 0.997343
-0.451122003 5.539764 -4.45406716 -0.813064599 0.554749165 0.176576674 0.993414 0.998288
-0.454211003 5.532189 -4.45394716 -0.813040229 0.176856473 0.554695748 0.993379 0.995938
-0.451122004 5.536488 -4.45079016 -0.813040229 0.176856473 0.554695748 0.990966 0.997271
-0.453151003 5.536717 -4.45383716 -0.813040229 0.176856473 0.554695748 0.993347 0.997343
-0.454211003 5.532189 -4.45394716 -0.816912717 0.186085436 0.545917415 0.993379 0.995938
-0.451709004 5.532189 -4.45020316 -0.816912717 0.186085436 0.545917415 0.991015 0.995938
-0.451122004 5.536488 -4.45079016 -0.816912717 0.186085436 0.545917415 0.990966 0.997271
-0.453151003 5.536717 -4.45383716 -0.716423698 0.512776592 0.473072142 0.993347 0.997343
-0.450211003 5.538854 -4.45170116 -0.716423698 0.512776592 0.473072142 0.992723 0.998005
-0.451122003 5.539764 -4.45406716 -0.716423698 0.512776592 0.473072142 0.993414 0.998288
-0.453151003 5.536717 -4.45383716 -0.716421484 0.473232522 0.512631678 0.993347 0.997343
-0.451122004 5.536488 -4.45079016 -0.716421484 0.473232522 0.512631678 0.990966 0.997271
-0.450211003 5.538854 -4.45170116 -0.716421484 0.473232522 0.512631678 0.992723 0.998005
-0.443546002 5.543733 -4.45836616 -0.219369356 0.956853495 0.190547829 0.98599 1.002889
-0.448074003 5.541793 -4.45383716 -0.219369356 0.956853495 0.190547829 0.988072 1.001567
-0.443546003 5.542853 -4.45394716 -0.219369356 0.956853495 0.190547829 0.98599 1.001599
-0.443546002 5.543733 -4.45836616 -0.190591511 0.956856016 0.219320406 0.98599 1.002889
-0.447964002 5.542853 -4.45836616 -0.190591511 0.956856016 0.219320406 0.988021 1.002889
-0.448074003 5.541793 -4.45383716 -0.190591511 0.956856016 0.219320406 0.988072 1.001567
-0.443546003 5.542853 -4.45394716 -0.186085441 0.816912638 0.545917531 0.98599 1.001599
-0.447845004 5.539764 -4.45079016 -0.186085441 0.816912638 0.545917531 0.987967 1.000677
-0.443546004 5.540351 -4.45020316 -0.186085441 0.816912638 0.545917531 0.98599 0.999488
-0.443546003 5.542853 -4.45394716 -0.176856448 0.813040136 0.554695893 0.98599 1.001599
-0.448074003 5.541793 -4.45383716 -0.176856448 0.813040136 0.554695893 0.988072 1.001567
-0.447845004 5.539764 -4.45079016 -0.176856448 0.813040136 0.554695893 0.987967 1.000677
-0.447964002 5.542853 -4.45836616 -0.554611758 0.813102435 0.1768339 0.988021 1.002889
-0.451122003 5.539764 -4.45406716 -0.554611758 0.813102435 0.1768339 0.989474 1.001634
-0.448074003 5.541793 -4.45383716 -0.554611758 0.813102435 0.1768339 0.988072 1.001567
-0.447964002 5.542853 -4.45836616 -0.545817259 0.816980669 0.186080911 0.988021 1.002889
-0.451709002 5.540351 -4.45836616 -0.545817259 0.816980669 0.186080911 0.989744 1.002889
-0.451122003 5.539764 -4.45406716 -0.545817259 0.816980669 0.186080911 0.989474 1.001634
-0.448074003 5.541793 -4.45383716 -0.472996087 0.716535799 0.512690111 0.988072 1.001567
-0.450211003 5.538854 -4.45170116 -0.472996087 0.716535799 0.512690111 0.989055 1.000943
-0.447845004 5.539764 -4.45079016 -0.472996087 0.716535799 0.512690111 0.987967 1.000677
-0.448074003 5.541793 -4.45383716 -0.512681617 0.716542473 0.472995183 0.988072 1.001567
-0.451122003 5.539764 -4.45406716 -0.512681617 0.716542473 0.472995183 0.989474 1.001634
-0.450211003 5.538854 -4.45170116 -0.512681617 0.716542473 0.472995183 0.989055 1.000943
-0.443546004 5.532189 -4.44682216 -0.190380539 0.219380611 0.956884213 0.98599 0.995938
-0.448074004 5.536717 -4.44876116 -0.190380539 0.219380611 0.956884213 0.988072 0.997343
-0.447964004 5.532189 -4.44770116 -0.190380539 0.219380611 0.956884213 0.988021 0.995938
-0.443546004 5.532189 -4.44682216 -0.219294935 0.190467237 0.956886599 0.98599 0.995938
-0.443546004 5.536605 -4.44770116 -0.219294935 0.190467237 0.956886599 0.98599 0.997308
-0.448074004 5.536717 -4.44876116 -0.219294935 0.190467237 0.956886599 0.988072 0.997343
-0.447964004 5.532189 -4.44770116 -0.545817246 0.186081034 0.81698065 0.988021 0.995938
-0.451122004 5.536488 -4.45079016 -0.545817246 0.186081034 0.81698065 0.990966 0.997271
-0.451709004 5.532189 -4.45020316 -0.545817246 0.186081034 0.81698065 0.991015 0.995938
-0.447964004 5.532189 -4.44770116 -0.554569719 0.176878537 0.813121399 0.988021 0.995938
-0.448074004 5.536717 -4.44876116 -0.554569719 0.176878537 0.813121399 0.988072 0.997343
-0.451122004 5.536488 -4.45079016 -0.554569719 0.176878537 0.813121399 0.990966 0.997271
-0.443546004 5.536605 -4.44770116 -0.176621323 0.554707185 0.813083543 0.98599 0.997308
-0.447845004 5.539764 -4.45079016 -0.176621323 0.554707185 0.813083543 0.987967 0.998288
-0.448074004 5.536717 -4.44876116 -0.176621323 0.554707185 0.813083543 0.988072 0.997343
-0.443546004 5.536605 -4.44770116 -0.186076625 0.545716956 0.817048648 0.98599 0.997308
-0.443546004 5.540351 -4.45020316 -0.186076625 0.545716956 0.817048648 0.98599 0.999488
-0.447845004 5.539764 -4.45079016 -0.186076625 0.545716956 0.817048648 0.987967 0.998288
-0.448074004 5.536717 -4.44876116 -0.512520328 0.473222726 0.716507617 0.988072 0.997343
-0.450211003 5.538854 -4.45170116 -0.512520328 0.473222726 0.716507617 0.989055 0.998005
-0.451122004 5.536488 -4.45079016 -0.512520328 0.473222726 0.716507617 0.990966 0.997271
-0.448074004 5.536717 -4.44876116 -0.473063346 0.512673614 0.716503201 0.988072 0.997343
-0.447845004 5.539764 -4.45079016 -0.473063346 0.512673614 0.716503201 0.987967 0.998288
-0.450211003 5.538854 -4.45170116 -0.473063346 0.512673614 0.716503201 0.989055 0.998005
-0.443546004 2.513987 -4.44682216 -0.219538929 -0.190415049 0.956841036 0.985989 0.059678
-0.448074004 2.509459 -4.44876216 -0.219538929 -0.190415049 0.956841036 0.988072 0.058273
-0.443546004 2.50957 -4.44770116 -0.219538929 -0.190415049 0.956841036 0.98599 0.058307
-0.443546004 2.513987 -4.44682216 -0.19037171 -0.219581752 0.956839833 0.985989 0.059678
-0.447964004 2.513987 -4.44770116 -0.19037171 -0.219581752 0.956839833 0.988021 0.059678
-0.448074004 2.509459 -4.44876216 -0.19037171 -0.219581752 0.956839833 0.988072 0.058273
-0.443546004 2.50957 -4.44770116 -0.186087629 -0.545967354 0.816878842 0.98599 0.058307
-0.447845004 2.506412 -4.45079116 -0.186087629 -0.545967354 0.816878842 0.987966 0.056133
-0.443546004 2.505825 -4.45020416 -0.186087629 -0.545967354 0.816878842 0.985989 0.056128
-0.443546004 2.50957 -4.44770116 -0.176911189 -0.554693309 0.81302999 0.98599 0.058307
-0.448074004 2.509459 -4.44876216 -0.176911189 -0.554693309 0.81302999 0.988072 0.058273
-0.447845004 2.506412 -4.45079116 -0.176911189 -0.554693309 0.81302999 0.987966 0.056133
-0.447964004 2.513987 -4.44770116 -0.554561454 -0.177050847 0.813089535 0.988021 0.059678
-0.451122004 2.509688 -4.45079116 -0.554561454 -0.177050847 0.813089535 0.989474 0.058344
-0.448074004 2.509459 -4.44876216 -0.554561454 -0.177050847 0.813089535 0.988072 0.058273
-0.447964004 2.513987 -4.44770116 -0.545967354 -0.186087629 0.816878842 0.988021 0.059678
-0.451709004 2.513987 -4.45020416 -0.545967354 -0.186087629 0.816878842 0.991015 0.059678
-0.451122004 2.509688 -4.45079116 -0.545967354 -0.186087629 0.816878842 0.989474 0.058344
-0.448074004 2.509459 -4.44876216 -0.472657691 -0.512773691 0.716699274 0.988072 0.058273
-0.450211003 2.507321 -4.45170116 -0.472657691 -0.512773691 0.716699274 0.989055 0.05761
-0.447845004 2.506412 -4.45079116 -0.472657691 -0.512773691 0.716699274 0.987966 0.056133
-0.448074004 2.509459 -4.44876216 -0.512617166 -0.472830319 0.716697377 0.988072 0.058273
-0.451122004 2.509688 -4.45079116 -0.512617166 -0.472830319 0.716697377 0.989474 0.058344
-0.450211003 2.507321 -4.45170116 -0.512617166 -0.472830319 0.716697377 0.989055 0.05761
-0.443546002 2.502442 -4.45836616 -0.190589486 -0.95684585 0.219366512 0.985989 0.052727
-0.448074003 2.504382 -4.45383816 -0.190589486 -0.95684585 0.219366512 0.988072 0.054049
-0.447964002 2.503322 -4.45836616 -0.190589486 -0.95684585 0.219366512 0.988021 0.052727
-0.443546002 2.502442 -4.45836616 -0.219323678 -0.956847037 0.190632822 0.985989 0.052727
-0.443546003 2.503322 -4.45394916 -0.219323678 -0.956847037 0.190632822 0.985989 0.054016
-0.448074003 2.504382 -4.45383816 -0.219323678 -0.956847037 0.190632822 0.988072 0.054049
-0.447964002 2.503322 -4.45836616 -0.545967367 -0.816878861 0.186087506 0.988021 0.052727
-0.451122003 2.506412 -4.45406716 -0.545967367 -0.816878861 0.186087506 0.989474 0.053982
-0.451709002 2.505825 -4.45836616 -0.545967367 -0.816878861 0.186087506 0.989744 0.052727
-0.447964002 2.503322 -4.45836616 -0.554754709 -0.813002272 0.176846033 0.988021 0.052727
-0.448074003 2.504382 -4.45383816 -0.554754709 -0.813002272 0.176846033 0.988072 0.054049
-0.451122003 2.506412 -4.45406716 -0.554754709 -0.813002272 0.176846033 0.989474 0.053982
-0.443546003 2.503322 -4.45394916 -0.176706454 -0.812942668 0.554886517 0.985989 0.054016
-0.447845004 2.506412 -4.45079116 -0.176706454 -0.812942668 0.554886517 0.987966 0.056133
-0.448074003 2.504382 -4.45383816 -0.176706454 -0.812942668 0.554886517 0.988072 0.054049
-0.443546003 2.503322 -4.45394916 -0.186087628 -0.816878865 0.54596732 0.985989 0.054016
-0.443546004 2.505825 -4.45020416 -0.186087628 -0.816878865 0.54596732 0.985989 0.056128
-0.447845004 2.506412 -4.45079116 -0.186087628 -0.816878865 0.54596732 0.987966 0.056133
-0.448074003 2.504382 -4.45383816 -0.512792939 -0.716615797 0.472763367 0.988072 0.054049
-0.450211003 2.507321 -4.45170116 -0.512792939 -0.716615797 0.472763367 0.989055 0.054672
-0.451122003 2.506412 -4.45406716 -0.512792939 -0.716615797 0.472763367 0.989474 0.053982
-0.448074003 2.504382 -4.45383816 -0.472604011 -0.716611293 0.512946101 0.988072 0.054049
-0.447845004 2.506412 -4.45079116 -0.472604011 -0.716611293 0.512946101 0.987966 0.056133
-0.450211003 2.507321 -4.45170116 -0.472604011 -0.716611293 0.512946101 0.989055 0.054672
-0.455090002 2.513987 -4.45836616 -0.956885446 -0.219337797 0.19042367 0.994669 0.059678
-0.453151003 2.509459 -4.45383816 -0.956885446 -0.219337797 0.19042367 0.993347 0.058273
-0.454211003 2.513987 -4.45394916 -0.956885446 -0.219337797 0.19042367 0.993379 0.059678
-0.455090002 2.513987 -4.45836616 -0.956885452 -0.190423888 0.219337582 0.994669 0.059678
-0.454211002 2.50957 -4.45836616 -0.956885452 -0.190423888 0.219337582 0.994668 0.058307
-0.453151003 2.509459 -4.45383816 -0.956885452 -0.190423888 0.219337582 0.993347 0.058273
-0.454211003 2.513987 -4.45394916 -0.816980752 -0.186081027 0.545817096 0.993379 0.059678
-0.451122004 2.509688 -4.45079116 -0.816980752 -0.186081027 0.545817096 0.992457 0.058344
-0.451709004 2.513987 -4.45020416 -0.816980752 -0.186081027 0.545817096 0.991015 0.059678
-0.454211003 2.513987 -4.45394916 -0.813061951 -0.176738917 0.554701378 0.993379 0.059678
-0.453151003 2.509459 -4.45383816 -0.813061951 -0.176738917 0.554701378 0.993347 0.058273
-0.451122004 2.509688 -4.45079116 -0.813061951 -0.176738917 0.554701378 0.992457 0.058344
-0.454211002 2.50957 -4.45836616 -0.813061864 -0.554701571 0.176738712 0.994668 0.058307
-0.451122003 2.506412 -4.45406716 -0.813061864 -0.554701571 0.176738712 0.993414 0.057328
-0.453151003 2.509459 -4.45383816 -0.813061864 -0.554701571 0.176738712 0.993347 0.058273
-0.454211002 2.50957 -4.45836616 -0.816980679 -0.545817265 0.186080851 0.994668 0.058307
-0.451709002 2.505825 -4.45836616 -0.816980679 -0.545817265 0.186080851 0.994668 0.057145
-0.451122003 2.506412 -4.45406716 -0.816980679 -0.545817265 0.186080851 0.993414 0.057328
-0.453151003 2.509459 -4.45383816 -0.716578718 -0.472907393 0.512711945 0.993347 0.058273
-0.450211003 2.507321 -4.45170116 -0.716578718 -0.472907393 0.512711945 0.992723 0.05761
-0.451122004 2.509688 -4.45079116 -0.716578718 -0.472907393 0.512711945 0.992457 0.058344
-0.453151003 2.509459 -4.45383816 -0.716585061 -0.5127154 0.472894036 0.993347 0.058273
-0.451122003 2.506412 -4.45406716 -0.716585061 -0.5127154 0.472894036 0.993414 0.057328
-0.450211003 2.507321 -4.45170116 -0.716585061 -0.5127154 0.472894036 0.992723 0.05761
1.686327 2.502442 -4.45836084 -4.88045936e-07 -0.980725583 0.1953902 0.00643 0.052727
-0.443546003 2.503322 -4.45394916 -4.88045936e-07 -0.980725583 0.1953902 0.985989 0.054016
-0.443546002 2.502442 -4.45836616 -4.88045936e-07 -0.980725583 0.1953902 0.985989 0.052727
1.686327 2.502442 -4.45836084 -3.96394295e-07 -0.980717104 0.195432756 0.00643 0.052727
1.686327 2.503322 -4.45394484 -3.96394295e-07 -0.980717104 0.195432756 0.00643 0.054016
-0.443546003 2.503322 -4.45394916 -3.96394295e-07 -0.980717104 0.195432756 0.985989 0.054016
1.686327 2.503322 -4.45394484 -1.12706639e-06 -0.831400793 0.555673214 0.00643 0.054016
-0.443546004 2.505825 -4.45020416 -1.12706639e-06 -0.831400793 0.555673214 0.985989 0.056128
-0.443546003 2.503322 -4.45394916 -1.12706639e-06 -0.831400793 0.555673214 0.985989 0.054016
1.686327 2.503322 -4.45394484 -1.38770525e-06 -0.831469323 0.555570666 0.00643 0.054016
1.686327 2.505825 -4.45019884 -1.38770525e-06 -0.831469323 0.555570666 0.00643 0.056128
-0.443546004 2.505825 -4.45020416 -1.38770525e-06 -0.831469323 0.555570666 0.985989 0.056128
1.686327 2.505825 -4.45019884 -2.07667416e-06 -0.555673214 0.831400793 0.00643 0.056128
-0.443546004 2.50957 -4.44770116 -2.07667416e-06 -0.555673214 0.831400793 0.98599 0.058307
-0.443546004 2.505825 -4.45020416 -2.07667416e-06 -0.555673214 0.831400793 0.985989 0.056128
1.686327 2.505825 -4.45019884 -1.68652989e-06 -0.555519731 0.831503354 0.00643 0.056128
1.686327 2.50957 -4.44769684 -1.68652989e-06 -0.555519731 0.831503354 0.00643 0.058307
-0.443546004 2.50957 -4.44770116 -1.68652989e-06 -0.555519731 0.831503354 0.98599 0.058307
1.686327 2.50957 -4.44769684 -1.98928209e-06 -0.195176628 0.980768109 0.00643 0.058307
-0.443546004 2.513987 -4.44682216 -1.98928209e-06 -0.195176628 0.980768109 0.985989 0.059678
-0.443546004 2.50957 -4.44770116 -1.98928209e-06 -0.195176628 0.980768109 0.98599 0.058307
1.686327 2.50957 -4.44769684 -1.52886635e-06 -0.194963029 0.980810592 0.00643 0.058307
1.686327 2.513987 -4.44681884 -1.52886635e-06 -0.194963029 0.980810592 0.00643 0.059678
-0.443546004 2.513987 -4.44682216 -1.52886635e-06 -0.194963029 0.980810592 0.985989 0.059678
1.686327 2.513987 -4.44681884 0.195134133 -3.24953918e-07 0.980776565 0.00643 0.059678
1.690745 5.532189 -4.44769684 0.195134133 -3.24953918e-07 0.980776565 0.004399 0.995938
1.686327 5.532189 -4.44681784 0.195134133 -3.24953918e-07 0.980776565 0.00643 0.995938
1.686327 2.513987 -4.44681884 0.194920577 0 0.98081903 0.00643 0.059678
1.690745 2.513987 -4.44769684 0.194920577 0 0.98081903 0.004398 0.059678
1.690745 5.532189 -4.44769684 0.194920577 0 0.98081903 0.004399 0.995938
1.690745 2.513987 -4.44769684 0.555519731 -0 0.831503354 0.004398 0.059678
1.69449 5.532189 -4.45019884 0.555519731 -0 0.831503354 0.001405 0.995938
1.690745 5.532189 -4.44769684 0.555519731 -0 0.831503354 0.004399 0.995938
1.690745 2.513987 -4.44769684 0.555519731 0 0.831503354 0.004398 0.059678
1.69449 2.513987 -4.45019884 0.555519731 0 0.831503354 0.001405 0.059678
1.69449 5.532189 -4.45019884 0.555519731 0 0.831503354 0.001405 0.995938
1.69449 2.513987 -4.45019884 0.831503354 -0 0.555519731 0.001405 0.059678
1.696992 5.532189 -4.45394384 0.831503354 -0 0.555519731 -0.000959 0.995938
1.69449 5.532189 -4.45019884 0.831503354 -0 0.555519731 0.001405 0.995938
1.69449 2.513987 -4.45019884 0.831571854 -1.84022536e-07 0.555417186 0.001405 0.059678
1.696992 2.513987 -4.45394484 0.831571854 -1.84022536e-07 0.555417186 -0.00096 0.059678
1.696992 5.532189 -4.45394384 0.831571854 -1.84022536e-07 0.555417186 -0.000959 0.995938
1.696992 2.513987 -4.45394484 0.980768109 -6.46665228e-08 0.195176628 -0.00096 0.059678
1.697871 5.532189 -4.45836084 0.980768109 -6.46665228e-08 0.195176628 -0.002249 0.995938
1.696992 5.532189 -4.45394384 0.980768109 -6.46665228e-08 0.195176628 -0.000959 0.995938
1.696992 2.513987 -4.45394484 0.980759648 0 0.195219142 -0.00096 0.059678
1.697871 2.513987 -4.45836084 0.980759648 0 0.195219142 -0.002249 0.059678
1.697871 5.532189 -4.45836084 0.980759648 0 0.195219142 -0.002249 0.995938
1.686327 5.532189 -4.44681784 -1.98926493e-06 0.195219142 0.980759648 0.00643 0.995938
-0.443546004 5.536605 -4.44770116 -1.98926493e-06 0.195219142 0.980759648 0.98599 0.997308
-0.443546004 5.532189 -4.44682216 -1.98926493e-06 0.195219142 0.980759648 0.98599 0.995938
1.686327 5.532189 -4.44681784 -1.98926493e-06 0.195219142 0.980759648 0.00643 0.995938
1.686327 5.536605 -4.44769684 -1.98926493e-06 0.195219142 0.980759648 0.00643 0.997308
-0.443546004 5.536605 -4.44770116 -1.98926493e-06 0.195219142 0.980759648 0.98599 0.997308
1.686327 5.536605 -4.44769684 -1.68666883e-06 0.555417186 0.831571854 0.00643 0.997308
-0.443546004 5.540351 -4.45020316 -1.68666883e-06 0.555417186 0.831571854 0.98599 0.999488
-0.443546004 5.536605 -4.44770116 -1.68666883e-06 0.555417186 0.831571854 0.98599 0.997308
1.686327 5.536605 -4.44769684 -1.68666883e-06 0.555417186 0.831571854 0.00643 0.997308
1.686327 5.540351 -4.45019884 -1.68666883e-06 0.555417186 0.831571854 0.00643 0.999488
-0.443546004 5.540351 -4.45020316 -1.68666883e-06 0.555417186 0.831571854 0.98599 0.999488
1.686327 5.540351 -4.45019884 -1.12696314e-06 0.831434816 0.555622305 0.00643 0.999488
-0.443546003 5.542853 -4.45394716 -1.12696314e-06 0.831434816 0.555622305 0.98599 1.001599
-0.443546004 5.540351 -4.45020316 -1.12696314e-06 0.831434816 0.555622305 0.98599 0.999488
1.686327 5.540351 -4.45019884 -8.65932149e-07 0.831503354 0.555519731 0.00643 0.999488
1.686327 5.542853 -4.45394384 -8.65932149e-07 0.831503354 0.555519731 0.00643 1.001599
-0.443546003 5.542853 -4.45394716 -8.65932149e-07 0.831503354 0.555519731 0.98599 1.001599
1.686327 5.542853 -4.45394384 -3.04437434e-07 0.980742526 0.195305142 0.00643 1.001599
-0.443546002 5.543733 -4.45836616 -3.04437434e-07 0.980742526 0.195305142 0.98599 1.002889
-0.443546003 5.542853 -4.45394716 -3.04437434e-07 0.980742526 0.195305142 0.98599 1.001599
1.686327 5.542853 -4.45394384 -4.88045936e-07 0.980725583 0.1953902 0.00643 1.001599
1.686327 5.543733 -4.45836084 -4.88045936e-07 0.980725583 0.1953902 0.00643 1.002889
-0.443546002 5.543733 -4.45836616 -4.88045936e-07 0.980725583 0.1953902 0.98599 1.002889
-0.443546004 5.532189 -4.44682216 -0.195134133 0 0.980776565 0.98599 0.995938
-0.447964004 2.513987 -4.44770116 -0.195134133 0 0.980776565 0.988021 0.059678
-0.443546004 2.513987 -4.44682216 -0.195134133 0 0.980776565 0.985989 0.059678
-0.443546004 5.532189 -4.44682216 -0.195134133 0 0.980776565 0.98599 0.995938
-0.447964004 5.532189 -4.44770116 -0.195134133 0 0.980776565 0.988021 0.995938
-0.447964004 2.513987 -4.44770116 -0.195134133 0 0.980776565 0.988021 0.059678
-0.447964004 5.532189 -4.44770116 -0.555673214 0 0.831400793 0.988021 0.995938
-0.451709004 2.513987 -4.45020416 -0.555673214 0 0.831400793 0.991015 0.059678
-0.447964004 2.513987 -4.44770116 -0.555673214 0 0.831400793 0.988021 0.059678
-0.447964004 5.532189 -4.44770116 -0.555519731 -2.75496257e-07 0.831503354 0.988021 0.995938
-0.451709004 5.532189 -4.45020316 -0.555519731 -2.75496257e-07 0.831503354 0.991015 0.995938
-0.451709004 2.513987 -4.45020416 -0.555519731 -2.75496257e-07 0.831503354 0.991015 0.059678
-0.451709004 5.532189 -4.45020316 -0.831503457 -1.84056461e-07 0.555519578 0.991015 0.995938
-0.454211003 2.513987 -4.45394916 -0.831503457 -1.84056461e-07 0.555519578 0.993379 0.059678
-0.451709004 2.513987 -4.45020416 -0.831503457 -1.84056461e-07 0.555519578 0.991015 0.059678
-0.451709004 5.532189 -4.45020316 -0.831434919 -3.68180891e-07 0.555622152 0.991015 0.995938
-0.454211003 5.532189 -4.45394716 -0.831434919 -3.68180891e-07 0.555622152 0.993379 0.995938
-0.454211003 2.513987 -4.45394916 -0.831434919 -3.68180891e-07 0.555622152 0.993379 0.059678
-0.454211003 5.532189 -4.45394716 -0.980768152 -1.29332904e-07 0.195176415 0.993379 0.995938
-0.455090002 2.513987 -4.45836616 -0.980768152 -1.29332904e-07 0.195176415 0.994669 0.059678
-0.454211003 2.513987 -4.45394916 -0.980768152 -1.29332904e-07 0.195176415 0.993379 0.059678
-0.454211003 5.532189 -4.45394716 -0.980785058 0 0.195091443 0.993379 0.995938
-0.455090002 5.532189 -4.45836616 -0.980785058 0 0.195091443 0.994669 0.995938
-0.455090002 2.513987 -4.45836616 -0.980785058 0 0.195091443 0.994669 0.059678
-0.443546002 2.502442 -4.45836616 -0.1953902 -0.980725583 -2.92553827e-08 0.985989 0.052727
-0.447962975 2.503322 -4.63869316 -0.1953902 -0.980725583 -2.92553827e-08 0.988021 8.6e-05
-0.443545975 2.502442 -4.63869316 -0.1953902 -0.980725583 -2.92553827e-08 0.985989 8.6e-05
-0.443546002 2.502442 -4.45836616 -0.195347662 -0.980734057 -1.11254581e-06 0.985989 0.052727
-0.447964002 2.503322 -4.45836616 -0.195347662 -0.980734057 -1.11254581e-06 0.988021 0.052727
-0.447962975 2.503322 -4.63869316 -0.195347662 -0.980734057 -1.11254581e-06 0.988021 8.6e-05
-0.447964002 2.503322 -4.45836616 -0.555673214 -0.831400793 -3.16467523e-06 0.988021 0.052727
-0.451707975 2.505825 -4.63869316 -0.555673214 -0.831400793 -3.16467523e-06 0.989744 8.6e-05
-0.447962975 2.503322 -4.63869316 -0.555673214 -0.831400793 -3.16467523e-06 0.988021 8.6e-05
-0.447964002 2.503322 -4.45836616 -0.555673214 -0.831400793 -3.16467523e-06 0.988021 0.052727
-0.451709002 2.505825 -4.45836616 -0.555673214 -0.831400793 -3.16467523e-06 0.989744 0.052727
-0.451707975 2.505825 -4.63869316 -0.555673214 -0.831400793 -3.16467523e-06 0.989744 8.6e-05
-0.451709002 2.505825 -4.45836616 -0.831400793 -0.555673214 -4.7350015e-06 0.994668 0.057145
-0.454210975 2.50957 -4.63869316 -0.831400793 -0.555673214 -4.7350015e-06 1.047309 0.058307
-0.451707975 2.505825 -4.63869316 -0.831400793 -0.555673214 -4.7350015e-06 1.047309 0.057145
-0.451709002 2.505825 -4.45836616 -0.831503354 -0.555519731 -1.24499329e-07 0.994668 0.057145
-0.454211002 2.50957 -4.45836616 -0.831503354 -0.555519731 -1.24499329e-07 0.994668 0.058307
-0.454210975 2.50957 -4.63869316 -0.831503354 -0.555519731 -1.24499329e-07 1.047309 0.058307
-0.454211002 2.50957 -4.45836616 -0.980768109 -0.195176628 -1.46848441e-07 0.994668 0.058307
-0.455089975 2.513987 -4.63869316 -0.980768109 -0.195176628 -1.46848441e-07 1.047309 0.059678
-0.454210975 2.50957 -4.63869316 -0.980768109 -0.195176628 -1.46848441e-07 1.047309 0.058307
-0.454211002 2.50957 -4.45836616 -0.980768109 -0.195176628 -1.46848442e-07 0.994668 0.058307
-0.455090002 2.513987 -4.45836616 -0.980768109 -0.195176628 -1.46848442e-07 0.994669 0.059678
-0.455089975 2.513987 -4.63869316 -0.980768109 -0.195176628 -1.46848442e-07 1.047309 0.059678
-0.443545975 5.543733 -4.63869216 -0.195347662 0.980734057 -2.92491758e-08 0.98599 1.055529
-0.447964002 5.542853 -4.45836616 -0.195347662 0.980734057 -2.92491758e-08 0.988021 1.002889
-0.443546002 5.543733 -4.45836616 -0.195347662 0.980734057 -2.92491758e-08 0.98599 1.002889
-0.443545975 5.543733 -4.63869216 -0.1953902 0.980725583 -1.11279425e-06 0.98599 1.055529
-0.447962975 5.542853 -4.63869216 -0.1953902 0.980725583 -1.11279425e-06 0.988021 1.055529
-0.447964002 5.542853 -4.45836616 -0.1953902 0.980725583 -1.11279425e-06 0.988021 1.002889
-0.447962975 5.542853 -4.63869216 -0.555519731 0.831503354 -3.16381866e-06 0.988021 1.055529
-0.451709002 5.540351 -4.45836616 -0.555519731 0.831503354 -3.16381866e-06 0.989744 1.002889
-0.447964002 5.542853 -4.45836616 -0.555519731 0.831503354 -3.16381866e-06 0.988021 1.002889
-0.447962975 5.542853 -4.63869216 -0.555519731 0.831503354 -3.16381866e-06 0.988021 1.055529
-0.451707975 5.540351 -4.63869216 -0.555519731 0.831503354 -3.16381866e-06 0.989744 1.055529
-0.451709002 5.540351 -4.45836616 -0.555519731 0.831503354 -3.16381866e-06 0.989744 1.002889
-0.451707975 5.540351 -4.63869216 -0.831571854 0.555417186 -4.73600199e-06 1.047309 0.99847
-0.454211002 5.536605 -4.45836616 -0.831571854 0.555417186 -4.73600199e-06 0.994669 0.997308
-0.451709002 5.540351 -4.45836616 -0.831571854 0.555417186 -4.73600199e-06 0.994669 0.99847
-0.451707975 5.540351 -4.63869216 -0.831469323 0.555570666 -1.24494924e-07 1.047309 0.99847
-0.454210975 5.536605 -4.63869216 -0.831469323 0.555570666 -1.24494924e-07 1.047309 0.997308
-0.454211002 5.536605 -4.45836616 -0.831469323 0.555570666 -1.24494924e-07 0.994669 0.997308
-0.454210975 5.536605 -4.63869216 -0.980759648 0.195219142 -1.46847989e-07 1.047309 0.997308
-0.455090002 5.532189 -4.45836616 -0.980759648 0.195219142 -1.46847989e-07 0.994669 0.995938
-0.454211002 5.536605 -4.45836616 -0.980759648 0.195219142 -1.46847989e-07 0.994669 0.997308
-0.454210975 5.536605 -4.63869216 -0.980759648 0.195219142 -1.46847989e-07 1.047309 0.997308
-0.455089975 5.532189 -4.63869216 -0.980759648 0.195219142 -1.46847989e-07 1.047309 0.995938
-0.455090002 5.532189 -4.45836616 -0.980759648 0.195219142 -1.46847989e-07 0.994669 0.995938
1.697871 2.513987 -4.45836084 0.980768109 -0.195176628 1.08776624e-07 -0.002249 0.059678
1.69699202 2.50957 -4.63868784 0.980768109 -0.195176628 1.08776624e-07 -0.054891 0.058307
1.69787102 2.513987 -4.63868784 0.980768109 -0.195176628 1.08776624e-07 -0.054891 0.059678
1.697871 2.513987 -4.45836084 0.980768109 -0.195176628 1.08776623e-07 -0.002249 0.059678
1.696992 2.50957 -4.45836084 0.980768109 -0.195176628 1.08776623e-07 -0.002249 0.058307
1.69699202 2.50957 -4.63868784 0.980768109 -0.195176628 1.08776623e-07 -0.054891 0.058307
1.696992 2.50957 -4.45836084 0.831503354 -0.555519731 9.22217249e-08 -0.002249 0.058307
1.69449002 2.505825 -4.63868784 0.831503354 -0.555519731 9.22217249e-08 -0.054891 0.057146
1.69699202 2.50957 -4.63868784 0.831503354 -0.555519731 9.22217249e-08 -0.054891 0.058307
1.696992 2.50957 -4.45836084 0.831503354 -0.555519731 9.22217249e-08 -0.002249 0.058307
1.69449 2.505825 -4.45836084 0.831503354 -0.555519731 9.22217249e-08 -0.002249 0.057146
1.69449002 2.505825 -4.63868784 0.831503354 -0.555519731 9.22217249e-08 -0.054891 0.057146
1.69449 2.505825 -4.45836084 0.555673214 -0.831400793 6.16295076e-08 0.002676 0.052727
1.69074502 2.503322 -4.63868784 0.555673214 -0.831400793 6.16295076e-08 0.004398 8.6e-05
1.69449002 2.505825 -4.63868784 0.555673214 -0.831400793 6.16295076e-08 0.002676 8.6e-05
1.69449 2.505825 -4.45836084 0.555673214 -0.831400793 6.16295082e-08 0.002676 0.052727
1.690745 2.503322 -4.45836084 0.555673214 -0.831400793 6.16295082e-08 0.004398 0.052727
1.69074502 2.503322 -4.63868784 0.555673214 -0.831400793 6.16295082e-08 0.004398 8.6e-05
1.690745 2.503322 -4.45836084 0.195347662 -0.980734057 2.16659361e-08 0.004398 0.052727
1.68632702 2.502442 -4.63868784 0.195347662 -0.980734057 2.16659361e-08 0.00643 8.6e-05
1.69074502 2.503322 -4.63868784 0.195347662 -0.980734057 2.16659361e-08 0.004398 8.6e-05
1.690745 2.503322 -4.45836084 0.195347662 -0.980734057 2.16659361e-08 0.004398 0.052727
1.686327 2.502442 -4.45836084 0.195347662 -0.980734057 2.16659361e-08 0.00643 0.052727
1.68632702 2.502442 -4.63868784 0.195347662 -0.980734057 2.16659361e-08 0.00643 8.6e-05
1.686327 5.543733 -4.45836084 0.195347662 0.980734057 2.16660562e-08 0.00643 1.002889
1.69074502 5.542853 -4.63868684 0.195347662 0.980734057 2.16660562e-08 0.004399 1.055529
1.68632702 5.543733 -4.63868684 0.195347662 0.980734057 2.16660562e-08 0.00643 1.055529
1.686327 5.543733 -4.45836084 0.195347662 0.980734057 2.16660562e-08 0.00643 1.002889
1.690745 5.542853 -4.45836084 0.195347662 0.980734057 2.16660562e-08 0.004399 1.002889
1.69074502 5.542853 -4.63868684 0.195347662 0.980734057 2.16660562e-08 0.004399 1.055529
1.690745 5.542853 -4.45836084 0.555519731 0.831503354 6.16128272e-08 0.004399 1.002889
1.69449002 5.540351 -4.63868684 0.555519731 0.831503354 6.16128272e-08 0.002676 1.055529
1.69074502 5.542853 -4.63868684 0.555519731 0.831503354 6.16128272e-08 0.004399 1.055529
1.690745 5.542853 -4.45836084 0.555519731 0.831503354 6.16128265e-08 0.004399 1.002889
1.69449 5.540351 -4.45836084 0.555519731 0.831503354 6.16128265e-08 0.002676 1.002889
1.69449002 5.540351 -4.63868684 0.555519731 0.831503354 6.16128265e-08 0.002676 1.055529
1.69449 5.540351 -4.45836084 0.831571854 0.555417186 9.22298337e-08 -0.002249 0.99847
1.69699202 5.536605 -4.63868684 0.831571854 0.555417186 9.22298337e-08 -0.054889 0.997308
1.69449002 5.540351 -4.63868684 0.831571854 0.555417186 9.22298337e-08 -0.054889 0.99847
1.69449 5.540351 -4.45836084 0.831571854 0.555417186 9.22298337e-08 -0.002249 0.99847
1.696992 5.536605 -4.45836084 0.831571854 0.555417186 9.22298337e-08 -0.002249 0.997308
1.69699202 5.536605 -4.63868684 0.831571854 0.555417186 9.22298337e-08 -0.054889 0.997308
1.696992 5.536605 -4.45836084 0.980759648 0.195219142 1.08776288e-07 -0.002249 0.997308
1.69787102 5.532189 -4.63868684 0.980759648 0.195219142 1.08776288e-07 -0.054889 0.995938
1.69699202 5.536605 -4.63868684 0.980759648 0.195219142 1.08776288e-07 -0.054889 0.997308
1.696992 5.536605 -4.45836084 0.980759648 0.195219142 1.08776289e-07 -0.002249 0.997308
1.697871 5.532189 -4.45836084 0.980759648 0.195219142 1.08776289e-07 -0.002249 0.995938
1.69787102 5.532189 -4.63868684 0.980759648 0.195219142 1.08776289e-07 -0.054889 0.995938
1.686327 2.513987 -4.44681884 -1.55877838e-06 0 1 0.00643 0.059678
-0.443546004 5.532189 -4.44682216 -1.55877838e-06 0 1 0.98599 0.995938
-0.443546004 2.513987 -4.44682216 -1.55877838e-06 0 1 0.985989 0.059678
1.686327 2.513987 -4.44681884 -2.02828995e-06 -3.31323086e-07 1 0.00643 0.059678
1.686327 5.532189 -4.44681784 -2.02828995e-06 -3.31323086e-07 1 0.00643 0.995938
-0.443546004 5.532189 -4.44682216 -2.02828995e-06 -3.31323086e-07 1 0.98599 0.995938
3 0 1 2
3 3 4 5
3 6 7 8
3 9 10 11
3 12 13 14
3 15 16 17
3 18 19 20
3 21 22 23
3 24 25 26
3 27 28 29
3 30 31 32
3 33 34 35
3 36 37 38
3 39 40 41
3 42 43 44
3 45 46 47
3 48 49 50
3 51 52 53
3 54 55 56
3 57 58 59
3 60 61 62
3 63 64 65
3 66 67 68
3 69 70 71
3 72 73 74
3 75 76 77
3 78 79 80
3 81 82 83
3 84 85 86
3 87 88 89
3 90 91 92
3 93 94 95
3 96 97 98
3 99 100 101
3 102 103 104
3 105 106 107
3 108 109 110
3 111 112 113
3 114 115 116
3 117 118 119
3 120 121 122
3 123 124 125
3 126 127 128
3 129 130 131
3 132 133 134
3 135 136 137
3 138 139 140
3 141 142 143
3 144 145 146
3 147 148 149
3 150 151 152
3 153 154 155
3 156 157 158
3 159 160 161
3 162 163 164
3 165 166 167
3 168 169 170
3 171 172 173
3 174 175 176
3 177 178 179
3 180 181 182
3 183 184 185
3 186 187 188
3 189 190 191
3 192 193 194
3 195 196 197
3 198 199 200
3 201 202 203
3 204 205 206
3 207 208 209
3 210 211 212
3 213 214 215
3 216 217 218
3 219 220 221
3 222 223 224
3 225 226 227
3 228 229 230
3 231 232 233
3 234 235 236
3 237 238 239
3 240 241 242
3 243 244 245
3 246 247 248
3 249 250 251
3 252 253 254
3 255 256 257
3 258 259 260
3 261 262 263
3 264 265 266
3 267 268 269
3 270 271 272
3 273 274 275
3 276 277 278
3 279 280 281
3 282 283 284
3 285 286 287
3 288 289 290
3 291 292 293
3 294 295 296
3 297 298 299
3 300 301 302
3 303 304 305
3 306 307 308
3 309 310 311
3 312 313 314
3 315 316 317
3 318 319 320
3 321 322 323
3 324 325 326
3 327 328 329
3 330 331 332
3 333 334 335
3 336 337 338
3 339 340 341
3 342 343 344
3 345 346 347
3 348 349 350
3 351 352 353
3 354 355 356
3 357 358 359
3 360 361 362
3 363 364 365
3 366 367 368
3 369 370 371
3 372 373 374
3 375 376 377
3 378 379 380
3 381 382 383
3 384 385 386
3 387 388 389
3 390 391 392
3 393 394 395
3 396 397 398
3 399 400 401
3 402 403 404
3 405 406 407
3 408 409 410
3 411 412 413
3 414 415 416
3 417 418 419
3 420 421 422
3 423 424 425
3 426 427 428
3 429 430 431
3 432 433 434
3 435 436 437
3 438 439 440
3 441 442 443
3 444 445 446
3 447 448 449
3 450 451 452
3 453 454 455
3 456 457 458
3 459 460 461
3 462 463 464
3 465 466 467
3 468 469 470
3 471 472 473
3 474 475 476
3 477 478 479
3 480 481 482
3 483 484 485
3 486 487 488
3 489 490 491
3 492 493 494
3 495 496 497
3 498 499 500
3 501 502 503
3 504 505 506
3 507 508 509
