ply
format ascii 1.0
element vertex 66
property float x
property float y
property float z
property float nx
property float ny
property float nz
property float u
property float v
element face 22
property list uchar int vertex_indices
end_header
6.35317 -1.418362 -4.500465 2.15210937e-06 0 1 0 0
-5.26334 -1.202138 -4.50044 2.15210937e-06 0 1 0 0
-5.26334 -1.418362 -4.50044 2.15210937e-06 0 1 0 0
6.35317 -1.418362 -4.500465 2.15210937e-06 -0 1 0 0
6.35317 -1.202138 -4.500465 2.15210937e-06 -0 1 0 0
-5.26334 -1.202138 -4.50044 2.15210937e-06 -0 1 0 0
6.353185 -1.418362 -4.532269 0 -1 0 0 0
-5.26334 -1.418362 -4.50044 0 -1 0 0 0
-5.263323 -1.418362 -4.532245 0 -1 0 0 0
6.353185 -1.418362 -4.532269 0 -1 0 0 0
6.35317 -1.418362 -4.500465 0 -1 0 0 0
-5.26334 -1.418362 -4.50044 0 -1 0 0 0
6.35317 -1.141166 -4.532269 -2.06602499e-06 -1.26706103e-10 -1 0 0
-5.263323 -1.418362 -4.532245 -2.06602499e-06 -1.26706103e-10 -1 0 0
-5.26334 -1.141166 -4.532245 -2.06602499e-06 -1.26706103e-10 -1 0 0
6.35317 -1.141166 -4.532269 -2.06602535e-06 -1.11799522e-10 -1 0 0
6.353185 -1.418362 -4.532269 -2.06602535e-06 -1.11799522e-10 -1 0 0
-5.263323 -1.418362 -4.532245 -2.06602535e-06 -1.11799522e-10 -1 0 0
6.35317 -1.141258 -4.519215 1.51657714e-08 0.99997517 0.00704693341 0 0
-5.26334 -1.141166 -4.532245 1.51657714e-08 0.99997517 0.00704693341 0 0
-5.26334 -1.141258 -4.51919 1.51657714e-08 0.99997517 0.00704693341 0 0
6.35317 -1.141258 -4.519215 1.45602558e-08 0.999975166 0.00704747321 0 0
6.35317 -1.141166 -4.532269 1.45602558e-08 0.999975166 0.00704747321 0 0
-5.26334 -1.141166 -4.532245 1.45602558e-08 0.999975166 0.00704747321 0 0
6.35317 -1.14692 -4.510457 1.21505618e-06 0.83981445 0.542873549 0 0
-5.26334 -1.141258 -4.51919 1.21505618e-06 0.83981445 0.542873549 0 0
-5.26334 -1.14692 -4.510431 1.21505618e-06 0.83981445 0.542873549 0 0
6.35317 -1.14692 -4.510457 1.16841733e-06 0.839786189 0.542917265 0 0
6.35317 -1.141258 -4.519215 1.16841733e-06 0.839786189 0.542917265 0 0
-5.26334 -1.141258 -4.51919 1.16841733e-06 0.839786189 0.542917265 0 0
6.35317 -1.156917 -4.503486 1.76538825e-06 0.571924866 0.820306009 0 0
-5.26334 -1.14692 -4.510431 1.76538825e-06 0.571924866 0.820306009 0 0
-5.26334 -1.156917 -4.503461 1.76538825e-06 0.571924866 0.820306009 0 0
6.35317 -1.156917 -4.503486 1.83591761e-06 0.571980077 0.820267512 0 0
6.35317 -1.14692 -4.510457 1.83591761e-06 0.571980077 0.820267512 0 0
-5.26334 -1.14692 -4.510431 1.83591761e-06 0.571980077 0.820267512 0 0
6.35317 -1.169973 -4.500468 2.09681763e-06 0.225219202 0.974308119 0 0
-5.26334 -1.156917 -4.503461 2.09681763e-06 0.225219202 0.974308119 0 0
-5.26334 -1.169973 -4.500443 2.09681763e-06 0.225219202 0.974308119 0 0
6.35317 -1.169973 -4.500468 2.09681763e-06 0.225219202 0.974308119 0 0
6.35317 -1.156917 -4.503486 2.09681763e-06 0.225219202 0.974308119 0 0
-5.26334 -1.156917 -4.503461 2.09681763e-06 0.225219202 0.974308119 0 0
6.35317 -1.182906 -4.502804 2.11783965e-06 -0.177747007 0.984076217 0 0
-5.26334 -1.169973 -4.500443 2.11783965e-06 -0.177747007 0.984076217 0 0
-5.26334 -1.182906 -4.502779 2.11783965e-06 -0.177747007 0.984076217 0 0
6.35317 -1.182906 -4.502804 2.11783965e-06 -0.177747007 0.984076217 0 0
6.35317 -1.169973 -4.500468 2.11783965e-06 -0.177747007 0.984076217 0 0
-5.26334 -1.169973 -4.500443 2.11783965e-06 -0.177747007 0.984076217 0 0
6.35317 -1.191636 -4.509495 1.70811662e-06 -0.608317018 0.793694151 0 0
-5.26334 -1.182906 -4.502779 1.70811662e-06 -0.608317018 0.793694151 0 0
-5.26334 -1.191636 -4.50947 1.70811662e-06 -0.608317018 0.793694151 0 0
6.35317 -1.191636 -4.509495 1.70811662e-06 -0.608317018 0.793694151 0 0
6.35317 -1.182906 -4.502804 1.70811662e-06 -0.608317018 0.793694151 0 0
-5.26334 -1.182906 -4.502779 1.70811662e-06 -0.608317018 0.793694151 0 0
6.35317 -1.197057 -4.510237 2.13222862e-06 -0.135610691 0.990762202 0 0
-5.26334 -1.191636 -4.50947 2.13222862e-06 -0.135610691 0.990762202 0 0
-5.26334 -1.197057 -4.510212 2.13222862e-06 -0.135610691 0.990762202 0 0
6.35317 -1.197057 -4.510237 2.13222862e-06 -0.135610691 0.990762202 0 0
6.35317 -1.191636 -4.509495 2.13222862e-06 -0.135610691 0.990762202 0 0
-5.26334 -1.191636 -4.50947 2.13222862e-06 -0.135610691 0.990762202 0 0
6.35317 -1.202138 -4.500465 9.92813871e-07 0.887233153 0.46132129 0 0
-5.26334 -1.197057 -4.510212 9.92813871e-07 0.887233153 0.46132129 0 0
-5.26334 -1.202138 -4.50044 9.92813871e-07 0.887233153 0.46132129 0 0
6.35317 -1.202138 -4.500465 9.92813871e-07 0.887233153 0.46132129 0 0
6.35317 -1.197057 -4.510237 9.92813871e-07 0.887233153 0.46132129 0 0
-5.26334 -1.197057 -4.510212 9.92813871e-07 0.887233153 0.46132129 0 0
3 0 1 2
3 3 4 5
3 6 7 8
3 9 10 11
3 12 13 14
3 15 16 17
3 18 19 20
3 21 22 23
3 24 25 26
3 27 28 29
3 30 31 32
3 33 34 35
3 36 37 38
3 39 40 41
3 42 43 44
3 45 46 47
3 48 49 50
3 51 52 53
3 54 55 56
3 57 58 59
3 60 61 62
3 63 64 65
