ply
format ascii 1.0
element vertex 464
property float x
property float y
property float z
property float nx
property float ny
property float nz
property float u
property float v
element face 896
property list uchar int vertex_indices
end_header
-2.724488 1.288269 1.677374 0.380495065 -0.105998625 -0.918688085 0 0
-2.720533 1.279601 1.679971 0.707106781 0 -0.707106781 0 0
-2.724488 1.279601 1.677374 0.382690337 0 -0.923876672 0 0
-2.720533 1.288269 1.679971 0.703085422 -0.106497792 -0.703085422 0 0
-2.720247 1.290165 1.679685 0.681619396 -0.265807564 -0.681719399 0 0
-2.724333 1.290165 1.677001 0.368993391 -0.264895256 -0.890884044 0 0
-2.729121 1.290165 1.676009 0 -0.265807225 -0.964026203 0 0
-2.729121 1.288269 1.676414 0 -0.106402477 -0.994323143 0 0
-2.729121 1.279601 1.676414 0 0 -1 0 0
-2.717936 1.288269 1.683926 0.918672482 -0.106008364 -0.380530023 0 0
-2.716976 1.279601 1.688559 1 0 0 0 0
-2.717936 1.279601 1.683926 0.923876672 0 -0.382690337 0 0
-2.716976 1.288269 1.688559 0.994323143 -0.106402477 0 0 0
-2.716571 1.290165 1.688559 0.964026203 -0.265807225 0 0 0
-2.717563 1.290165 1.683771 0.890884044 -0.264895256 -0.368993391 0 0
-2.717936 1.288269 1.693192 0.918672482 -0.106008364 0.380530023 0 0
-2.720533 1.279601 1.697147 0.707106781 0 0.707106781 0 0
-2.717936 1.279601 1.693192 0.923876672 0 0.382690337 0 0
-2.720533 1.288269 1.697147 0.703085422 -0.106497792 0.703085422 0 0
-2.720247 1.290165 1.697433 0.681619396 -0.265807564 0.681719399 0 0
-2.717563 1.290165 1.693347 0.890884044 -0.264895256 0.368993391 0 0
-2.724488 1.288269 1.699744 0.380495065 -0.105998625 0.918688085 0 0
-2.729121 1.279601 1.700704 0 0 1 0 0
-2.724488 1.279601 1.699744 0.382690337 0 0.923876672 0 0
-2.729121 1.288269 1.700704 0 -0.106402477 0.994323143 0 0
-2.729121 1.290165 1.701109 0 -0.265807225 0.964026203 0 0
-2.724333 1.290165 1.700117 0.368993391 -0.264895256 0.890884044 0 0
-2.733754 1.288269 1.699744 -0.380495065 -0.105998625 0.918688085 0 0
-2.737708 1.279601 1.697147 -0.707106781 0 0.707106781 0 0
-2.733754 1.279601 1.699744 -0.382690337 0 0.923876672 0 0
-2.737708 1.288269 1.697147 -0.703085422 -0.106497792 0.703085422 0 0
-2.737995 1.290165 1.697433 -0.681619396 -0.265807564 0.681719399 0 0
-2.733909 1.290165 1.700117 -0.368993391 -0.264895256 0.890884044 0 0
-2.740306 1.288269 1.693192 -0.918672482 -0.106008364 0.380530023 0 0
-2.740306 1.279601 1.693192 -0.923876672 0 0.382690337 0 0
-2.741266 1.279601 1.688559 -1 0 0 0 0
-2.741266 1.288269 1.688559 -0.994323143 -0.106402477 0 0 0
-2.741671 1.290165 1.688559 -0.964026203 -0.265807225 0 0 0
-2.740679 1.290165 1.693347 -0.890884044 -0.264895256 0.368993391 0 0
-2.740306 1.288269 1.683926 -0.918672482 -0.106008364 -0.380530023 0 0
-2.737708 1.279601 1.679971 -0.707106781 0 -0.707106781 0 0
-2.740306 1.279601 1.683926 -0.923876672 0 -0.382690337 0 0
-2.737708 1.288269 1.679971 -0.703085422 -0.106497792 -0.703085422 0 0
-2.737995 1.290165 1.679685 -0.681619396 -0.265807564 -0.681719399 0 0
-2.740679 1.290165 1.683771 -0.89086341 -0.264918856 -0.369026266 0 0
-2.733754 1.288269 1.677374 -0.380495065 -0.105998625 -0.918688085 0 0
-2.733754 1.279601 1.677374 -0.382690337 0 -0.923876672 0 0
-2.733909 1.290165 1.677001 -0.368993391 -0.264895256 -0.890884044 0 0
-2.734372 1.293787 1.675882 -0.372112864 -0.233908086 -0.898231052 0 0
-2.729121 1.293787 1.674794 0 -0.234409169 -0.972138026 0 0
-2.729121 1.301589 1.673579 0 -0.0904004986 -0.995905492 0 0
-2.734836 1.301589 1.674762 -0.381108144 -0.0902019276 -0.920119663 0 0
-2.739714 1.301589 1.677966 -0.704211465 -0.0904014717 -0.704211465 0 0
-2.738854 1.293787 1.678826 -0.687406572 -0.234402241 -0.687406572 0 0
-2.741798 1.293787 1.683308 -0.898250369 -0.233887077 -0.372079441 0 0
-2.742918 1.301589 1.682844 -0.920119663 -0.0902019276 -0.381108144 0 0
-2.744101 1.301589 1.688559 -0.995905492 -0.0904004986 0 0 0
-2.742886 1.293787 1.688559 -0.972138026 -0.234409169 0 0 0
-2.741798 1.293787 1.69381 -0.898250369 -0.233887077 0.372079441 0 0
-2.738854 1.293787 1.698292 -0.687406572 -0.234402241 0.687406572 0 0
-2.742918 1.301589 1.694274 -0.920119663 -0.0902019276 0.381108144 0 0
-2.739714 1.301589 1.699152 -0.704211465 -0.0904014717 0.704211465 0 0
-2.734372 1.293787 1.701237 -0.372112864 -0.233908086 0.898231052 0 0
-2.734836 1.301589 1.702356 -0.381108144 -0.0902019276 0.920119663 0 0
-2.729121 1.301589 1.703539 0 -0.0904004986 0.995905492 0 0
-2.729121 1.293787 1.702324 0 -0.234409169 0.972138026 0 0
-2.72387 1.293787 1.701237 0.372112864 -0.233908086 0.898231052 0 0
-2.723406 1.301589 1.702356 0.381108144 -0.0902019276 0.920119663 0 0
-2.718528 1.301589 1.699152 0.704211465 -0.0904014717 0.704211465 0 0
-2.719387 1.293787 1.698292 0.687406572 -0.234402241 0.687406572 0 0
-2.716443 1.293787 1.69381 0.898250369 -0.233887077 0.372079441 0 0
-2.715324 1.301589 1.694274 0.920119663 -0.0902019276 0.381108144 0 0
-2.714141 1.301589 1.688559 0.995905492 -0.0904004986 0 0 0
-2.715356 1.293787 1.688559 0.972138026 -0.234409169 0 0 0
-2.716443 1.293787 1.683308 0.898231052 -0.233908086 -0.372112864 0 0
-2.715324 1.301589 1.682844 0.920119663 -0.0902019276 -0.381108144 0 0
-2.718528 1.301589 1.677966 0.704211465 -0.0904014717 -0.704211465 0 0
-2.719387 1.293787 1.678826 0.687406572 -0.234402241 -0.687406572 0 0
-2.72387 1.293787 1.675882 0.372112864 -0.233908086 -0.898231052 0 0
-2.723406 1.301589 1.674762 0.381108144 -0.0902019276 -0.920119663 0 0
-2.723251 1.316031 1.674389 0.382686111 -0.00469982942 -0.923866469 0 0
-2.718242 1.316031 1.67768 0.707098971 -0.00469999316 -0.707098971 0 0
-2.71842 1.329567 1.677858 0.704713735 0.0822016021 -0.704713735 0 0
-2.723348 1.329567 1.674621 0.381423182 0.082004984 -0.920755961 0 0
-2.729121 1.329567 1.673425 0 0.0822012988 -0.996615747 0 0
-2.729121 1.316031 1.673174 0 -0.00469994809 -0.999988955 0 0
-2.714951 1.316031 1.68269 0.923866469 -0.00469982942 -0.382686111 0 0
-2.713735 1.316031 1.688559 0.999988955 -0.00469994809 0 0 0
-2.713987 1.329567 1.688559 0.996615747 0.0822012988 0 0 0
-2.715183 1.329567 1.682786 0.920755961 0.082004984 -0.381423182 0 0
-2.714951 1.316031 1.694428 0.923866469 -0.00469982942 0.382686111 0 0
-2.718242 1.316031 1.699438 0.707098971 -0.00469999316 0.707098971 0 0
-2.71842 1.329567 1.69926 0.704713735 0.0822016021 0.704713735 0 0
-2.715183 1.329567 1.694332 0.920755961 0.082004984 0.381423182 0 0
-2.723251 1.316031 1.702729 0.382686111 -0.00469982942 0.923866469 0 0
-2.729121 1.316031 1.703944 0 -0.00469994809 0.999988955 0 0
-2.729121 1.329567 1.703693 0 0.0822012988 0.996615747 0 0
-2.723348 1.329567 1.702497 0.381423182 0.082004984 0.920755961 0 0
-2.73499 1.316031 1.702729 -0.382686111 -0.00469982942 0.923866469 0 0
-2.74 1.316031 1.699438 -0.707098971 -0.00469999316 0.707098971 0 0
-2.739822 1.329567 1.69926 -0.704713735 0.0822016021 0.704713735 0 0
-2.734894 1.329567 1.702497 -0.381423182 0.082004984 0.920755961 0 0
-2.743291 1.316031 1.694428 -0.923866469 -0.00469982942 0.382686111 0 0
-2.744506 1.316031 1.688559 -0.999988955 -0.00469994809 0 0 0
-2.744254 1.329567 1.688559 -0.996615747 0.0822012988 0 0 0
-2.743059 1.329567 1.694332 -0.920755961 0.082004984 0.381423182 0 0
-2.743291 1.316031 1.68269 -0.923866469 -0.00469982942 -0.382686111 0 0
-2.74 1.316031 1.67768 -0.707098971 -0.00469999316 -0.707098971 0 0
-2.739822 1.329567 1.677858 -0.704713735 0.0822016021 -0.704713735 0 0
-2.743059 1.329567 1.682786 -0.920755961 0.082004984 -0.381423182 0 0
-2.73499 1.316031 1.674389 -0.382686111 -0.00469982942 -0.923866469 0 0
-2.734894 1.329567 1.674621 -0.381423182 0.082004984 -0.920755961 0 0
-2.734606 1.334654 1.675317 -0.321897434 0.540695691 -0.777193806 0 0
-2.729121 1.334654 1.674181 0 0.539680653 -0.84186982 0 0
-2.729121 1.3353 1.675314 0 0.936489352 -0.350696013 0 0
-2.734174 1.3353 1.676361 -0.133905111 0.936735756 -0.323412345 0 0
-2.738486 1.3353 1.679193 -0.247995009 0.936481154 -0.247995009 0 0
-2.739288 1.334654 1.678392 -0.59532014 0.539618256 -0.59532014 0 0
-2.742363 1.334654 1.683074 -0.777193806 0.540695691 -0.321897434 0 0
-2.741319 1.3353 1.683506 -0.323412345 0.936735756 -0.133905111 0 0
-2.742366 1.3353 1.688559 -0.350696013 0.936489352 0 0 0
-2.743499 1.334654 1.688559 -0.841915251 0.539609775 0 0 0
-2.742363 1.334654 1.694044 -0.777193806 0.540695691 0.321897434 0 0
-2.739288 1.334654 1.698726 -0.59532014 0.539618256 0.59532014 0 0
-2.741319 1.3353 1.693612 -0.323412345 0.936735756 0.133905111 0 0
-2.738486 1.3353 1.697925 -0.247995009 0.936481154 0.247995009 0 0
-2.734606 1.334654 1.701801 -0.321922453 0.540737715 0.777154205 0 0
-2.734174 1.3353 1.700758 -0.133905111 0.936735756 0.323412345 0 0
-2.729121 1.3353 1.701804 0 0.936489352 0.350696013 0 0
-2.729121 1.334654 1.702937 0 0.539609775 0.841915251 0 0
-2.723636 1.334654 1.701801 0.321897434 0.540695691 0.777193806 0 0
-2.724068 1.3353 1.700758 0.133905111 0.936735756 0.323412345 0 0
-2.719755 1.3353 1.697925 0.247995009 0.936481154 0.247995009 0 0
-2.718954 1.334654 1.698726 0.59532014 0.539618256 0.59532014 0 0
-2.715879 1.334654 1.694044 0.777112177 0.540808475 0.321905044 0 0
-2.716922 1.3353 1.693612 0.323412345 0.936735756 0.133905111 0 0
-2.715876 1.3353 1.688559 0.350696013 0.936489352 0 0 0
-2.714743 1.334654 1.688559 0.84186982 0.539680653 0 0 0
-2.715879 1.334654 1.683074 0.777112177 0.540808475 -0.321905044 0 0
-2.716922 1.3353 1.683506 0.323412345 0.936735756 -0.133905111 0 0
-2.719755 1.3353 1.679193 0.247995009 0.936481154 -0.247995009 0 0
-2.718954 1.334654 1.678392 0.59532014 0.539618256 -0.59532014 0 0
-2.723636 1.334654 1.675317 0.321922453 0.540737715 -0.777154205 0 0
-2.724068 1.3353 1.676361 0.133909442 0.936766049 -0.323322797 0 0
-2.724597 1.335516 1.677637 0.0331017534 0.996252773 -0.0799042326 0 0
-2.720735 1.335516 1.680174 0.0615006476 0.99621049 -0.0615006476 0 0
-2.721804 1.335516 1.681243 0 1 0 0 0
-2.725174 1.335516 1.67903 0 1 0 0 0
-2.729121 1.335516 1.678212 0 1 0 0 0
-2.729121 1.335516 1.6767 0 0.996208249 -0.0870007204 0 0
-2.718199 1.335516 1.684035 0.0799042326 0.996252773 -0.0331017534 0 0
-2.717262 1.335516 1.688559 0.0870007204 0.996208249 0 0 0
-2.718774 1.335516 1.688559 0 1 0 0 0
-2.719591 1.335516 1.684612 0 1 0 0 0
-2.718199 1.335516 1.693083 0.0799042326 0.996252773 0.0331017534 0 0
-2.720735 1.335516 1.696945 0.0615006476 0.99621049 0.0615006476 0 0
-2.721804 1.335516 1.695875 0 1 0 0 0
-2.719591 1.335516 1.692506 0 1 0 0 0
-2.724597 1.335516 1.699481 0.0331017534 0.996252773 0.0799042326 0 0
-2.729121 1.335516 1.700418 0 0.996208249 0.0870007204 0 0
-2.729121 1.335516 1.698906 0 1 0 0 0
-2.725174 1.335516 1.698088 0 1 0 0 0
-2.733645 1.335516 1.699481 -0.0331017534 0.996252773 0.0799042326 0 0
-2.737506 1.335516 1.696945 -0.0615006476 0.99621049 0.0615006476 0 0
-2.736437 1.335516 1.695875 0 1 0 0 0
-2.733068 1.335516 1.698088 0 1 0 0 0
-2.740043 1.335516 1.693083 -0.0799042326 0.996252773 0.0331017534 0 0
-2.74098 1.335516 1.688559 -0.0870007204 0.996208249 0 0 0
-2.739468 1.335516 1.688559 0 1 0 0 0
-2.73865 1.335516 1.692506 0 1 0 0 0
-2.740043 1.335516 1.684035 -0.0799042326 0.996252773 -0.0331017534 0 0
-2.737506 1.335516 1.680174 -0.0615006476 0.99621049 -0.0615006476 0 0
-2.736437 1.335516 1.681243 0 1 0 0 0
-2.73865 1.335516 1.684612 0 1 0 0 0
-2.733645 1.335516 1.677637 -0.0331017534 0.996252773 -0.0799042326 0 0
-2.733068 1.335516 1.67903 0 1 0 0 0
-2.720403 0.253011 1.667512 0.376020439 0.186010111 -0.907749342 0 0
-2.729121 0.201338 1.65528 0 0.224209429 -0.974540985 0 0
-2.729121 0.253011 1.665707 0 0.186606595 -0.98243472 0 0
-2.716425 0.201338 1.657909 0.37300345 0.223502067 -0.90050833 0 0
-2.705589 0.201338 1.665027 0.689105768 0.224201877 -0.689105768 0 0
-2.712962 0.253011 1.6724 0.694687586 0.186596666 -0.694687586 0 0
-2.71864 0.298239 1.678079 0.698292829 0.157398384 -0.698292829 0 0
-2.723466 0.298239 1.674909 0.377918938 0.156907863 -0.912445724 0 0
-2.729121 0.298239 1.673737 0 0.15740543 -0.987534066 0 0
-2.708074 0.253011 1.679841 0.907749342 0.186010111 -0.376020439 0 0
-2.698471 0.201338 1.675864 0.90050833 0.223502067 -0.37300345 0 0
-2.695842 0.201338 1.688559 0.974540985 0.224209429 0 0 0
-2.706268 0.253011 1.688559 0.98243472 0.186606595 0 0 0
-2.714299 0.298239 1.688559 0.987534066 0.15740543 0 0 0
-2.71547 0.298239 1.682905 0.912445724 0.156907863 -0.377918938 0 0
-2.708074 0.253011 1.697277 0.907749342 0.186010111 0.376020439 0 0
-2.698471 0.201338 1.701255 0.90050833 0.223502067 0.37300345 0 0
-2.705589 0.201338 1.712091 0.689105768 0.224201877 0.689105768 0 0
-2.712962 0.253011 1.704718 0.694687586 0.186596666 0.694687586 0 0
-2.71864 0.298239 1.69904 0.698292829 0.157398384 0.698292829 0 0
-2.71547 0.298239 1.694213 0.912445724 0.156907863 0.377918938 0 0
-2.720403 0.253011 1.709606 0.376020439 0.186010111 0.907749342 0 0
-2.716425 0.201338 1.719209 0.37300345 0.223502067 0.90050833 0 0
-2.729121 0.201338 1.721838 0 0.224209429 0.974540985 0 0
-2.729121 0.253011 1.711411 0 0.186606595 0.98243472 0 0
-2.729121 0.298239 1.703381 0 0.15740543 0.987534066 0 0
-2.723466 0.298239 1.70221 0.377918938 0.156907863 0.912445724 0 0
-2.737839 0.253011 1.709606 -0.376020439 0.186010111 0.907749342 0 0
-2.741816 0.201338 1.719209 -0.37300345 0.223502067 0.90050833 0 0
-2.752653 0.201338 1.712091 -0.689105768 0.224201877 0.689105768 0 0
-2.74528 0.253011 1.704718 -0.694687586 0.186596666 0.694687586 0 0
-2.739601 0.298239 1.69904 -0.698292829 0.157398384 0.698292829 0 0
-2.734775 0.298239 1.70221 -0.377918938 0.156907863 0.912445724 0 0
-2.750168 0.253011 1.697277 -0.907749342 0.186010111 0.376020439 0 0
-2.7624 0.201338 1.688559 -0.974540985 0.224209429 0 0 0
-2.75977 0.201338 1.701255 -0.90050833 0.223502067 0.37300345 0 0
-2.751973 0.253011 1.688559 -0.98243472 0.186606595 0 0 0
-2.743942 0.298239 1.688559 -0.987534066 0.15740543 0 0 0
-2.742771 0.298239 1.694213 -0.912445724 0.156907863 0.377918938 0 0
-2.750168 0.253011 1.679841 -0.907749342 0.186010111 -0.376020439 0 0
-2.75977 0.201338 1.675864 -0.90050833 0.223502067 -0.37300345 0 0
-2.752653 0.201338 1.665027 -0.689105768 0.224201877 -0.689105768 0 0
-2.74528 0.253011 1.6724 -0.694687586 0.186596666 -0.694687586 0 0
-2.739601 0.298239 1.678079 -0.698292829 0.157398384 -0.698292829 0 0
-2.742771 0.298239 1.682905 -0.912445724 0.156907863 -0.377918938 0 0
-2.737839 0.253011 1.667512 -0.376020439 0.186010111 -0.907749342 0 0
-2.741816 0.201338 1.657909 -0.37300345 0.223502067 -0.90050833 0 0
-2.734775 0.298239 1.674909 -0.377918938 0.156907863 -0.912445724 0 0
-2.712662 0.162966 1.648824 0.364121779 0.307418387 -0.879152584 0 0
-2.729121 0.132441 1.63355 0 0.438632478 -0.89866654 0 0
-2.729121 0.162966 1.645415 0 0.308416655 -0.951251369 0 0
-2.708136 0.132441 1.637896 0.344197885 0.437197313 -0.830894894 0 0
-2.690224 0.132441 1.649662 0.635471258 0.438580163 -0.635471258 0 0
-2.698613 0.162966 1.658051 0.672636296 0.308416643 -0.672636296 0 0
-2.689385 0.162966 1.6721 0.879152584 0.307418387 -0.364121779 0 0
-2.678458 0.132441 1.667574 0.830894894 0.437197313 -0.344197885 0 0
-2.674112 0.132441 1.688559 0.89866654 0.438632478 0 0 0
-2.685977 0.162966 1.688559 0.951251369 0.308416655 0 0 0
-2.689385 0.162966 1.705018 0.879152584 0.307418387 0.364121779 0 0
-2.678458 0.132441 1.709544 0.830894894 0.437197313 0.344197885 0 0
-2.690224 0.132441 1.727456 0.635471258 0.438580163 0.635471258 0 0
-2.698613 0.162966 1.719067 0.672636296 0.308416643 0.672636296 0 0
-2.712662 0.162966 1.728294 0.364121779 0.307418387 0.879152584 0 0
-2.708136 0.132441 1.739222 0.344197885 0.437197313 0.830894894 0 0
-2.729121 0.132441 1.743568 0 0.438632478 0.89866654 0 0
-2.729121 0.162966 1.731703 0 0.308416655 0.951251369 0 0
-2.74558 0.162966 1.728294 -0.364121779 0.307418387 0.879152584 0 0
-2.750106 0.132441 1.739222 -0.344197885 0.437197313 0.830894894 0 0
-2.768018 0.132441 1.727456 -0.635471258 0.438580163 0.635471258 0 0
-2.759628 0.162966 1.719067 -0.672636296 0.308416643 0.672636296 0 0
-2.768856 0.162966 1.705018 -0.879152584 0.307418387 0.364121779 0 0
-2.78413 0.132441 1.688559 -0.89866654 0.438632478 0 0 0
-2.779784 0.132441 1.709544 -0.830894894 0.437197313 0.344197885 0 0
-2.772265 0.162966 1.688559 -0.951251369 0.308416655 0 0 0
-2.768856 0.162966 1.6721 -0.879152584 0.307418387 -0.364121779 0 0
-2.779784 0.132441 1.667574 -0.830894894 0.437197313 -0.344197885 0 0
-2.768018 0.132441 1.649662 -0.635471258 0.438580163 -0.635471258 0 0
-2.759628 0.162966 1.658051 -0.672636296 0.308416643 -0.672636296 0 0
-2.74558 0.162966 1.648824 -0.364121779 0.307418387 -0.879152584 0 0
-2.750106 0.132441 1.637896 -0.344197885 0.437197313 -0.830894894 0 0
-2.701869 0.104306 1.622768 0.296885793 0.631069801 -0.716665705 0 0
-2.729121 0.07933 1.59044 0 0.831156849 -0.556038032 0 0
-2.729121 0.104306 1.617125 0 0.632976378 -0.774171108 0 0
-2.69169 0.07933 1.598192 0.213602826 0.829710977 -0.515706823 0 0
-2.65974 0.07933 1.619179 0.39314277 0.831190426 -0.39314277 0 0
-2.678609 0.104306 1.638047 0.547404784 0.633005532 -0.547404784 0 0
-2.66333 0.104306 1.661308 0.716686978 0.631088533 -0.296794607 0 0
-2.638754 0.07933 1.651128 0.515706823 0.829710977 -0.213602826 0 0
-2.631002 0.07933 1.688559 0.556038032 0.831156849 0 0 0
-2.657686 0.104306 1.688559 0.774171108 0.632976378 0 0 0
-2.66333 0.104306 1.71581 0.716686978 0.631088533 0.296794607 0 0
-2.638754 0.07933 1.72599 0.515706823 0.829710977 0.213602826 0 0
-2.65974 0.07933 1.75794 0.39314277 0.831190426 0.39314277 0 0
-2.678609 0.104306 1.739071 0.547404784 0.633005532 0.547404784 0 0
-2.701869 0.104306 1.75435 0.296885793 0.631069801 0.716665705 0 0
-2.69169 0.07933 1.778926 0.213602826 0.829710977 0.515706823 0 0
-2.729121 0.07933 1.786678 0 0.831156849 0.556038032 0 0
-2.729121 0.104306 1.759994 0 0.632976378 0.774171108 0 0
-2.756372 0.104306 1.75435 -0.296794607 0.631088533 0.716686978 0 0
-2.766552 0.07933 1.778926 -0.213602826 0.829710977 0.515706823 0 0
-2.798501 0.07933 1.75794 -0.39314277 0.831190426 0.39314277 0 0
-2.779633 0.104306 1.739071 -0.547404784 0.633005532 0.547404784 0 0
-2.794911 0.104306 1.71581 -0.716686978 0.631088533 0.296794607 0 0
-2.82724 0.07933 1.688559 -0.556038032 0.831156849 0 0 0
-2.819487 0.07933 1.72599 -0.515706823 0.829710977 0.213602826 0 0
-2.800555 0.104306 1.688559 -0.774171108 0.632976378 0 0 0
-2.794911 0.104306 1.661308 -0.716686978 0.631088533 -0.296794607 0 0
-2.819487 0.07933 1.651128 -0.515706823 0.829710977 -0.213602826 0 0
-2.798501 0.07933 1.619179 -0.39314277 0.831190426 -0.39314277 0 0
-2.779633 0.104306 1.638047 -0.547404784 0.633005532 -0.547404784 0 0
-2.756372 0.104306 1.622768 -0.296794607 0.631088533 -0.716686978 0 0
-2.766552 0.07933 1.598192 -0.213602826 0.829710977 -0.515706823 0 0
-2.655423 0.0346 1.510638 0.299094715 0.62368898 -0.722187239 0 0
-2.729121 0.030982 1.49402 0 0.304412845 -0.952540193 0 0
-2.729121 0.0346 1.495375 0 0.623010641 -0.78221336 0 0
-2.654907 0.030982 1.509391 0.364614787 0.303712317 -0.880235699 0 0
-2.591561 0.030982 1.551 0.67354585 0.304420723 -0.67354585 0 0
-2.592519 0.0346 1.551957 0.553108789 0.6230099 -0.553108789 0 0
-2.602424 0.042816 1.561863 0.317102654 0.893807481 -0.317102654 0 0
-2.660768 0.042816 1.52354 0.171800043 0.893500223 -0.414900104 0 0
-2.729121 0.042816 1.509383 0 0.893786285 -0.448493118 0 0
-2.675423 0.05828 1.55892 0.15520907 0.914053414 -0.374721898 0 0
-2.729121 0.05828 1.547799 0 0.914659089 -0.404226114 0 0
-2.629588 0.05828 1.589027 0.285820517 0.914665657 -0.285820517 0 0
-2.5512 0.0346 1.614862 0.722232281 0.623627874 -0.299113369 0 0
-2.549953 0.030982 1.614345 0.880235699 0.303712317 -0.364614787 0 0
-2.534582 0.030982 1.688559 0.952569188 0.304322104 0 0 0
-2.535936 0.0346 1.688559 0.78221336 0.623010641 0 0 0
-2.549945 0.042816 1.688559 0.448493118 0.893786285 0 0 0
-2.564102 0.042816 1.620206 0.414817313 0.893537292 -0.171807171 0 0
-2.599482 0.05828 1.634861 0.374721898 0.914053414 -0.15520907 0 0
-2.588361 0.05828 1.688559 0.404226114 0.914659089 0 0 0
-2.5512 0.0346 1.762257 0.722232281 0.623627874 0.299113369 0 0
-2.549953 0.030982 1.762773 0.880235699 0.303712317 0.364614787 0 0
-2.591561 0.030982 1.826119 0.67354585 0.304420723 0.67354585 0 0
-2.592519 0.0346 1.825161 0.553108789 0.6230099 0.553108789 0 0
-2.602424 0.042816 1.815255 0.317102654 0.893807481 0.317102654 0 0
-2.564102 0.042816 1.756912 0.414817313 0.893537292 0.171807171 0 0
-2.599482 0.05828 1.742257 0.374721898 0.914053414 0.15520907 0 0
-2.629588 0.05828 1.788091 0.285820517 0.914665657 0.285820517 0 0
-2.655423 0.0346 1.86648 0.299094715 0.62368898 0.722187239 0 0
-2.654907 0.030982 1.867727 0.364614787 0.303712317 0.880235699 0 0
-2.729121 0.030982 1.883098 0 0.304412845 0.952540193 0 0
-2.729121 0.0346 1.881744 0 0.623010641 0.78221336 0 0
-2.729121 0.042816 1.867735 0 0.893786285 0.448493118 0 0
-2.660768 0.042816 1.853578 0.171800043 0.893500223 0.414900104 0 0
-2.675423 0.05828 1.818198 0.15520907 0.914053414 0.374721898 0 0
-2.729121 0.05828 1.829319 0 0.914659089 0.404226114 0 0
-2.802818 0.0346 1.86648 -0.299094715 0.62368898 0.722187239 0 0
-2.803335 0.030982 1.867727 -0.364614787 0.303712317 0.880235699 0 0
-2.86668 0.030982 1.826119 -0.67354585 0.304420723 0.67354585 0 0
-2.865723 0.0346 1.825161 -0.553108789 0.6230099 0.553108789 0 0
-2.855817 0.042816 1.815255 -0.317102654 0.893807481 0.317102654 0 0
-2.797474 0.042816 1.853578 -0.171800043 0.893500223 0.414900104 0 0
-2.782819 0.05828 1.818198 -0.15520907 0.914053414 0.374721898 0 0
-2.828653 0.05828 1.788091 -0.285820517 0.914665657 0.285820517 0 0
-2.907042 0.0346 1.762257 -0.722232281 0.623627874 0.299113369 0 0
-2.923659 0.030982 1.688559 -0.952569188 0.304322104 0 0 0
-2.908289 0.030982 1.762773 -0.880235699 0.303712317 0.364614787 0 0
-2.922305 0.0346 1.688559 -0.78221336 0.623010641 0 0 0
-2.908296 0.042816 1.688559 -0.448493118 0.893786285 0 0 0
-2.89414 0.042816 1.756912 -0.414817313 0.893537292 0.171807171 0 0
-2.858759 0.05828 1.742257 -0.374721898 0.914053414 0.15520907 0 0
-2.869881 0.05828 1.688559 -0.404226114 0.914659089 0 0 0
-2.907042 0.0346 1.614862 -0.722232281 0.623627874 -0.299113369 0 0
-2.908289 0.030982 1.614345 -0.88026243 0.303621534 -0.36462586 0 0
-2.86668 0.030982 1.551 -0.67354585 0.304420723 -0.67354585 0 0
-2.865723 0.0346 1.551957 -0.553108789 0.6230099 -0.553108789 0 0
-2.855817 0.042816 1.561863 -0.317102654 0.893807481 -0.317102654 0 0
-2.89414 0.042816 1.620206 -0.414900104 0.893500223 -0.171800043 0 0
-2.858759 0.05828 1.634861 -0.374721898 0.914053414 -0.15520907 0 0
-2.828653 0.05828 1.589027 -0.285820517 0.914665657 -0.285820517 0 0
-2.802818 0.0346 1.510638 -0.299094715 0.62368898 -0.722187239 0 0
-2.803335 0.030982 1.509391 -0.364614787 0.303712317 -0.880235699 0 0
-2.797474 0.042816 1.52354 -0.171800043 0.893500223 -0.414900104 0 0
-2.782819 0.05828 1.55892 -0.15520907 0.914053414 -0.374721898 0 0
-2.654735 0.029313 1.508975 0.379418581 0.129306332 -0.916144865 0 0
-2.729121 0.029313 1.493569 0 0.129608528 -0.991565242 0 0
-2.729121 0.02862 1.493569 0 0 -1 0 0
-2.654735 0.02862 1.508975 0.382690337 0 -0.923876672 0 0
-2.591242 0.02862 1.55068 0.707106781 0 -0.707106781 0 0
-2.591242 0.029313 1.55068 0.701142568 0.129607869 -0.701142568 0 0
-2.549537 0.029313 1.614173 0.916144865 0.129306332 -0.379418581 0 0
-2.549537 0.02862 1.614173 0.923876672 0 -0.382690337 0 0
-2.534131 0.02862 1.688559 1 0 0 0 0
-2.534131 0.029313 1.688559 0.99157809 0.129510199 0 0 0
-2.549537 0.029313 1.762945 0.916133014 0.129404663 0.379413672 0 0
-2.549537 0.02862 1.762945 0.923876672 0 0.382690337 0 0
-2.591242 0.02862 1.826438 0.707106781 0 0.707106781 0 0
-2.591242 0.029313 1.826438 0.701142568 0.129607869 0.701142568 0 0
-2.654735 0.029313 1.868143 0.379418581 0.129306332 0.916144865 0 0
-2.654735 0.02862 1.868143 0.382690337 0 0.923876672 0 0
-2.729121 0.02862 1.883549 0 0 1 0 0
-2.729121 0.029313 1.883549 0 0.129608528 0.991565242 0 0
-2.803507 0.029313 1.868143 -0.379418581 0.129306332 0.916144865 0 0
-2.803507 0.02862 1.868143 -0.382690337 0 0.923876672 0 0
-2.866999 0.02862 1.826438 -0.707106781 0 0.707106781 0 0
-2.866999 0.029313 1.826438 -0.701142568 0.129607869 0.701142568 0 0
-2.908705 0.029313 1.762945 -0.916144865 0.129306332 0.379418581 0 0
-2.924111 0.029313 1.688559 -0.99157809 0.129510199 0 0 0
-2.908705 0.02862 1.762945 -0.923876672 0 0.382690337 0 0
-2.924111 0.02862 1.688559 -1 0 0 0 0
-2.908705 0.029313 1.614173 -0.916144865 0.129306332 -0.379418581 0 0
-2.908705 0.02862 1.614173 -0.923876672 0 -0.382690337 0 0
-2.866999 0.02862 1.55068 -0.707106781 0 -0.707106781 0 0
-2.866999 0.029313 1.55068 -0.701142568 0.129607869 -0.701142568 0 0
-2.803507 0.029313 1.508975 -0.379418581 0.129306332 -0.916144865 0 0
-2.803507 0.02862 1.508975 -0.382690337 0 -0.923876672 0 0
-2.733754 0.317279 1.677374 -0.381708501 0.0701015612 -0.921620525 0 0
-2.729121 0.317279 1.676414 0 0.0704013232 -0.997518749 0 0
-2.729121 0.434346 1.676414 0 0 -1 0 0
-2.733754 0.434346 1.677374 -0.382690337 0 -0.923876672 0 0
-2.737708 0.434346 1.679971 -0.707106781 0 -0.707106781 0 0
-2.737708 0.317279 1.679971 -0.705352078 0.0704051982 -0.705352078 0 0
-2.740306 0.317279 1.683926 -0.921620525 0.0701015612 -0.381708501 0 0
-2.740306 0.434346 1.683926 -0.923876672 0 -0.382690337 0 0
-2.741266 0.434346 1.688559 -1 0 0 0 0
-2.741266 0.317279 1.688559 -0.997518749 0.0704013232 0 0 0
-2.740306 0.317279 1.693192 -0.921620525 0.0701015612 0.381708501 0 0
-2.740306 0.434346 1.693192 -0.923876672 0 0.382690337 0 0
-2.737708 0.434346 1.697147 -0.707106781 0 0.707106781 0 0
-2.737708 0.317279 1.697147 -0.705352078 0.0704051982 0.705352078 0 0
-2.733754 0.317279 1.699744 -0.381708501 0.0701015612 0.921620525 0 0
-2.733754 0.434346 1.699744 -0.38260498 0 0.923912025 0 0
-2.729121 0.434346 1.700704 0 0 1 0 0
-2.729121 0.317279 1.700704 0 0.0704013232 0.997518749 0 0
-2.724488 0.317279 1.699744 0.381708501 0.0701015612 0.921620525 0 0
-2.724488 0.434346 1.699744 0.38260498 0 0.923912025 0 0
-2.720533 0.434346 1.697147 0.707106781 0 0.707106781 0 0
-2.720533 0.317279 1.697147 0.705352078 0.0704051982 0.705352078 0 0
-2.717936 0.317279 1.693192 0.921620525 0.0701015612 0.381708501 0 0
-2.717936 0.434346 1.693192 0.923876672 0 0.382690337 0 0
-2.716976 0.434346 1.688559 1 0 0 0 0
-2.716976 0.317279 1.688559 0.997518749 0.0704013232 0 0 0
-2.717936 0.317279 1.683926 0.921620525 0.0701015612 -0.381708501 0 0
-2.717936 0.434346 1.683926 0.923876672 0 -0.382690337 0 0
-2.720533 0.434346 1.679971 0.707106781 0 -0.707106781 0 0
-2.720533 0.317279 1.679971 0.705352078 0.0704051982 -0.705352078 0 0
-2.724488 0.317279 1.677374 0.381708501 0.0701015612 -0.921620525 0 0
-2.724488 0.434346 1.677374 0.382690337 0 -0.923876672 0 0
-2.733754 0.773661 1.677374 -0.38260498 0 -0.923912025 0 0
-2.729121 0.773661 1.676414 0 0 -1 0 0
-2.729121 1.119381 1.676414 0 0 -1 0 0
-2.733754 1.119381 1.677374 -0.38260498 0 -0.923912025 0 0
-2.737708 1.119381 1.679971 -0.707106781 0 -0.707106781 0 0
-2.737708 0.773661 1.679971 -0.707106781 0 -0.707106781 0 0
-2.733754 1.255666 1.677374 -0.38260498 0 -0.923912025 0 0
-2.729121 1.255666 1.676414 0 0 -1 0 0
-2.737708 1.255666 1.679971 -0.707106781 0 -0.707106781 0 0
-2.740306 0.773661 1.683926 -0.923876672 0 -0.382690337 0 0
-2.740306 1.119381 1.683926 -0.923876672 0 -0.382690337 0 0
-2.741266 1.119381 1.688559 -1 0 0 0 0
-2.741266 0.773661 1.688559 -1 0 0 0 0
-2.740306 1.255666 1.683926 -0.923876672 0 -0.382690337 0 0
-2.741266 1.255666 1.688559 -1 0 0 0 0
-2.740306 0.773661 1.693192 -0.923876672 0 0.382690337 0 0
-2.740306 1.119381 1.693192 -0.923876672 0 0.382690337 0 0
-2.737708 1.119381 1.697147 -0.707106781 0 0.707106781 0 0
-2.737708 0.773661 1.697147 -0.707106781 0 0.707106781 0 0
-2.740306 1.255666 1.693192 -0.923876672 0 0.382690337 0 0
-2.737708 1.255666 1.697147 -0.707106781 0 0.707106781 0 0
-2.733754 0.773661 1.699744 -0.382690337 0 0.923876672 0 0
-2.733754 1.119381 1.699744 -0.382690337 0 0.923876672 0 0
-2.729121 1.119381 1.700704 0 0 1 0 0
-2.729121 0.773661 1.700704 0 0 1 0 0
-2.733754 1.255666 1.699744 -0.382690337 0 0.923876672 0 0
-2.729121 1.255666 1.700704 0 0 1 0 0
-2.724488 0.773661 1.699744 0.382690337 0 0.923876672 0 0
-2.724488 1.119381 1.699744 0.382690337 0 0.923876672 0 0
-2.720533 1.119381 1.697147 0.707106781 0 0.707106781 0 0
-2.720533 0.773661 1.697147 0.707106781 0 0.707106781 0 0
-2.724488 1.255666 1.699744 0.382690337 0 0.923876672 0 0
-2.720533 1.255666 1.697147 0.707106781 0 0.707106781 0 0
-2.717936 0.773661 1.693192 0.923876672 0 0.382690337 0 0
-2.717936 1.119381 1.693192 0.923876672 0 0.382690337 0 0
-2.716976 1.119381 1.688559 1 0 0 0 0
-2.716976 0.773661 1.688559 1 0 0 0 0
-2.717936 1.255666 1.693192 0.923876672 0 0.382690337 0 0
-2.716976 1.255666 1.688559 1 0 0 0 0
-2.717936 0.773661 1.683926 0.923876672 0 -0.382690337 0 0
-2.717936 1.119381 1.683926 0.923876672 0 -0.382690337 0 0
-2.720533 1.119381 1.679971 0.707106781 0 -0.707106781 0 0
-2.720533 0.773661 1.679971 0.707106781 0 -0.707106781 0 0
-2.717936 1.255666 1.683926 0.923876672 0 -0.382690337 0 0
-2.720533 1.255666 1.679971 0.707106781 0 -0.707106781 0 0
-2.724488 0.773661 1.677374 0.38260498 0 -0.923912025 0 0
-2.724488 1.119381 1.677374 0.38260498 0 -0.923912025 0 0
-2.724488 1.255666 1.677374 0.38260498 0 -0.923912025 0 0
3 0 1 2
3 0 3 1
3 0 4 3
3 0 5 4
3 0 6 5
3 0 7 6
3 0 8 7
3 0 2 8
3 9 10 11
3 9 12 10
3 9 13 12
3 9 14 13
3 9 4 14
3 9 3 4
3 9 1 3
3 9 11 1
3 15 16 17
3 15 18 16
3 15 19 18
3 15 20 19
3 15 13 20
3 15 12 13
3 15 10 12
3 15 17 10
3 21 22 23
3 21 24 22
3 21 25 24
3 21 26 25
3 21 19 26
3 21 18 19
3 21 16 18
3 21 23 16
3 27 28 29
3 27 30 28
3 27 31 30
3 27 32 31
3 27 25 32
3 27 24 25
3 27 22 24
3 27 29 22
3 33 28 30
3 33 34 28
3 33 35 34
3 33 36 35
3 33 37 36
3 33 38 37
3 33 31 38
3 33 30 31
3 39 40 41
3 39 42 40
3 39 43 42
3 39 44 43
3 39 37 44
3 39 36 37
3 39 35 36
3 39 41 35
3 45 8 46
3 45 7 8
3 45 6 7
3 45 47 6
3 45 43 47
3 45 42 43
3 45 40 42
3 45 46 40
3 48 6 47
3 48 49 6
3 48 50 49
3 48 51 50
3 48 52 51
3 48 53 52
3 48 43 53
3 48 47 43
3 54 43 44
3 54 53 43
3 54 52 53
3 54 55 52
3 54 56 55
3 54 57 56
3 54 37 57
3 54 44 37
3 58 31 59
3 58 38 31
3 58 37 38
3 58 57 37
3 58 56 57
3 58 60 56
3 58 61 60
3 58 59 61
3 62 31 32
3 62 59 31
3 62 61 59
3 62 63 61
3 62 64 63
3 62 65 64
3 62 25 65
3 62 32 25
3 66 25 26
3 66 65 25
3 66 64 65
3 66 67 64
3 66 68 67
3 66 69 68
3 66 19 69
3 66 26 19
3 70 19 20
3 70 69 19
3 70 68 69
3 70 71 68
3 70 72 71
3 70 73 72
3 70 13 73
3 70 20 13
3 74 13 14
3 74 73 13
3 74 72 73
3 74 75 72
3 74 76 75
3 74 77 76
3 74 4 77
3 74 14 4
3 78 4 5
3 78 77 4
3 78 76 77
3 78 79 76
3 78 50 79
3 78 49 50
3 78 6 49
3 78 5 6
3 80 76 79
3 80 81 76
3 80 82 81
3 80 83 82
3 80 84 83
3 80 85 84
3 80 50 85
3 80 79 50
3 86 72 75
3 86 87 72
3 86 88 87
3 86 89 88
3 86 82 89
3 86 81 82
3 86 76 81
3 86 75 76
3 90 68 71
3 90 91 68
3 90 92 91
3 90 93 92
3 90 88 93
3 90 87 88
3 90 72 87
3 90 71 72
3 94 64 67
3 94 95 64
3 94 96 95
3 94 97 96
3 94 92 97
3 94 91 92
3 94 68 91
3 94 67 68
3 98 61 63
3 98 99 61
3 98 100 99
3 98 101 100
3 98 96 101
3 98 95 96
3 98 64 95
3 98 63 64
3 102 61 99
3 102 60 61
3 102 56 60
3 102 103 56
3 102 104 103
3 102 105 104
3 102 100 105
3 102 99 100
3 106 52 55
3 106 107 52
3 106 108 107
3 106 109 108
3 106 104 109
3 106 103 104
3 106 56 103
3 106 55 56
3 110 50 51
3 110 85 50
3 110 84 85
3 110 111 84
3 110 108 111
3 110 107 108
3 110 52 107
3 110 51 52
3 112 84 111
3 112 113 84
3 112 114 113
3 112 115 114
3 112 116 115
3 112 117 116
3 112 108 117
3 112 111 108
3 118 108 109
3 118 117 108
3 118 116 117
3 118 119 116
3 118 120 119
3 118 121 120
3 118 104 121
3 118 109 104
3 122 100 123
3 122 105 100
3 122 104 105
3 122 121 104
3 122 120 121
3 122 124 120
3 122 125 124
3 122 123 125
3 126 100 101
3 126 123 100
3 126 125 123
3 126 127 125
3 126 128 127
3 126 129 128
3 126 96 129
3 126 101 96
3 130 96 97
3 130 129 96
3 130 128 129
3 130 131 128
3 130 132 131
3 130 133 132
3 130 92 133
3 130 97 92
3 134 92 93
3 134 133 92
3 134 132 133
3 134 135 132
3 134 136 135
3 134 137 136
3 134 88 137
3 134 93 88
3 138 88 89
3 138 137 88
3 138 136 137
3 138 139 136
3 138 140 139
3 138 141 140
3 138 82 141
3 138 89 82
3 142 82 83
3 142 141 82
3 142 140 141
3 142 143 140
3 142 114 143
3 142 113 114
3 142 84 113
3 142 83 84
3 144 140 143
3 144 145 140
3 144 146 145
3 144 147 146
3 144 148 147
3 144 149 148
3 144 114 149
3 144 143 114
3 150 136 139
3 150 151 136
3 150 152 151
3 150 153 152
3 150 146 153
3 150 145 146
3 150 140 145
3 150 139 140
3 154 132 135
3 154 155 132
3 154 156 155
3 154 157 156
3 154 152 157
3 154 151 152
3 154 136 151
3 154 135 136
3 158 128 131
3 158 159 128
3 158 160 159
3 158 161 160
3 158 156 161
3 158 155 156
3 158 132 155
3 158 131 132
3 162 125 127
3 162 163 125
3 162 164 163
3 162 165 164
3 162 160 165
3 162 159 160
3 162 128 159
3 162 127 128
3 166 125 163
3 166 124 125
3 166 120 124
3 166 167 120
3 166 168 167
3 166 169 168
3 166 164 169
3 166 163 164
3 170 116 119
3 170 171 116
3 170 172 171
3 170 173 172
3 170 168 173
3 170 167 168
3 170 120 167
3 170 119 120
3 174 114 115
3 174 149 114
3 174 148 149
3 174 175 148
3 174 172 175
3 174 171 172
3 174 116 171
3 174 115 116
3 176 177 178
3 176 179 177
3 176 180 179
3 176 181 180
3 176 182 181
3 176 183 182
3 176 184 183
3 176 178 184
3 185 180 181
3 185 186 180
3 185 187 186
3 185 188 187
3 185 189 188
3 185 190 189
3 185 182 190
3 185 181 182
3 191 187 188
3 191 192 187
3 191 193 192
3 191 194 193
3 191 195 194
3 191 196 195
3 191 189 196
3 191 188 189
3 197 193 194
3 197 198 193
3 197 199 198
3 197 200 199
3 197 201 200
3 197 202 201
3 197 195 202
3 197 194 195
3 203 199 200
3 203 204 199
3 203 205 204
3 203 206 205
3 203 207 206
3 203 208 207
3 203 201 208
3 203 200 201
3 209 210 211
3 209 212 210
3 209 213 212
3 209 214 213
3 209 207 214
3 209 206 207
3 209 205 206
3 209 211 205
3 215 210 212
3 215 216 210
3 215 217 216
3 215 218 217
3 215 219 218
3 215 220 219
3 215 213 220
3 215 212 213
3 221 217 218
3 221 222 217
3 221 177 222
3 221 178 177
3 221 184 178
3 221 223 184
3 221 219 223
3 221 218 219
3 224 225 226
3 224 227 225
3 224 228 227
3 224 229 228
3 224 180 229
3 224 179 180
3 224 177 179
3 224 226 177
3 230 228 229
3 230 231 228
3 230 232 231
3 230 233 232
3 230 187 233
3 230 186 187
3 230 180 186
3 230 229 180
3 234 232 233
3 234 235 232
3 234 236 235
3 234 237 236
3 234 193 237
3 234 192 193
3 234 187 192
3 234 233 187
3 238 236 237
3 238 239 236
3 238 240 239
3 238 241 240
3 238 199 241
3 238 198 199
3 238 193 198
3 238 237 193
3 242 240 241
3 242 243 240
3 242 244 243
3 242 245 244
3 242 205 245
3 242 204 205
3 242 199 204
3 242 241 199
3 246 247 248
3 246 249 247
3 246 210 249
3 246 211 210
3 246 205 211
3 246 245 205
3 246 244 245
3 246 248 244
3 250 247 249
3 250 251 247
3 250 252 251
3 250 253 252
3 250 217 253
3 250 216 217
3 250 210 216
3 250 249 210
3 254 252 253
3 254 255 252
3 254 225 255
3 254 226 225
3 254 177 226
3 254 222 177
3 254 217 222
3 254 253 217
3 256 257 258
3 256 259 257
3 256 260 259
3 256 261 260
3 256 228 261
3 256 227 228
3 256 225 227
3 256 258 225
3 262 260 261
3 262 263 260
3 262 264 263
3 262 265 264
3 262 232 265
3 262 231 232
3 262 228 231
3 262 261 228
3 266 264 265
3 266 267 264
3 266 268 267
3 266 269 268
3 266 236 269
3 266 235 236
3 266 232 235
3 266 265 232
3 270 268 269
3 270 271 268
3 270 272 271
3 270 273 272
3 270 240 273
3 270 239 240
3 270 236 239
3 270 269 236
3 274 272 273
3 274 275 272
3 274 276 275
3 274 277 276
3 274 244 277
3 274 243 244
3 274 240 243
3 274 273 240
3 278 279 280
3 278 281 279
3 278 247 281
3 278 248 247
3 278 244 248
3 278 277 244
3 278 276 277
3 278 280 276
3 282 279 281
3 282 283 279
3 282 284 283
3 282 285 284
3 282 252 285
3 282 251 252
3 282 247 251
3 282 281 247
3 286 284 285
3 286 287 284
3 286 257 287
3 286 258 257
3 286 225 258
3 286 255 225
3 286 252 255
3 286 285 252
3 288 289 290
3 288 291 289
3 288 292 291
3 288 293 292
3 288 294 293
3 288 295 294
3 288 296 295
3 288 290 296
3 297 296 298
3 297 295 296
3 297 294 295
3 297 299 294
3 297 260 299
3 297 259 260
3 297 257 259
3 297 298 257
3 300 292 293
3 300 301 292
3 300 302 301
3 300 303 302
3 300 304 303
3 300 305 304
3 300 294 305
3 300 293 294
3 306 294 299
3 306 305 294
3 306 304 305
3 306 307 304
3 306 264 307
3 306 263 264
3 306 260 263
3 306 299 260
3 308 302 303
3 308 309 302
3 308 310 309
3 308 311 310
3 308 312 311
3 308 313 312
3 308 304 313
3 308 303 304
3 314 304 307
3 314 313 304
3 314 312 313
3 314 315 312
3 314 268 315
3 314 267 268
3 314 264 267
3 314 307 264
3 316 310 311
3 316 317 310
3 316 318 317
3 316 319 318
3 316 320 319
3 316 321 320
3 316 312 321
3 316 311 312
3 322 312 315
3 322 321 312
3 322 320 321
3 322 323 320
3 322 272 323
3 322 271 272
3 322 268 271
3 322 315 268
3 324 318 319
3 324 325 318
3 324 326 325
3 324 327 326
3 324 328 327
3 324 329 328
3 324 320 329
3 324 319 320
3 330 320 323
3 330 329 320
3 330 328 329
3 330 331 328
3 330 276 331
3 330 275 276
3 330 272 275
3 330 323 272
3 332 333 334
3 332 335 333
3 332 336 335
3 332 337 336
3 332 328 337
3 332 327 328
3 332 326 327
3 332 334 326
3 338 336 337
3 338 339 336
3 338 279 339
3 338 280 279
3 338 276 280
3 338 331 276
3 338 328 331
3 338 337 328
3 340 333 335
3 340 341 333
3 340 342 341
3 340 343 342
3 340 344 343
3 340 345 344
3 340 336 345
3 340 335 336
3 346 336 339
3 346 345 336
3 346 344 345
3 346 347 344
3 346 284 347
3 346 283 284
3 346 279 283
3 346 339 279
3 348 342 343
3 348 349 342
3 348 289 349
3 348 290 289
3 348 296 290
3 348 350 296
3 348 344 350
3 348 343 344
3 351 344 347
3 351 350 344
3 351 296 350
3 351 298 296
3 351 257 298
3 351 287 257
3 351 284 287
3 351 347 284
3 352 289 291
3 352 353 289
3 352 354 353
3 352 355 354
3 352 356 355
3 352 357 356
3 352 292 357
3 352 291 292
3 358 292 301
3 358 357 292
3 358 356 357
3 358 359 356
3 358 360 359
3 358 361 360
3 358 302 361
3 358 301 302
3 362 302 309
3 362 361 302
3 362 360 361
3 362 363 360
3 362 364 363
3 362 365 364
3 362 310 365
3 362 309 310
3 366 310 317
3 366 365 310
3 366 364 365
3 366 367 364
3 366 368 367
3 366 369 368
3 366 318 369
3 366 317 318
3 370 318 325
3 370 369 318
3 370 368 369
3 370 371 368
3 370 372 371
3 370 373 372
3 370 326 373
3 370 325 326
3 374 333 375
3 374 334 333
3 374 326 334
3 374 373 326
3 374 372 373
3 374 376 372
3 374 377 376
3 374 375 377
3 378 333 341
3 378 375 333
3 378 377 375
3 378 379 377
3 378 380 379
3 378 381 380
3 378 342 381
3 378 341 342
3 382 354 383
3 382 353 354
3 382 289 353
3 382 349 289
3 382 342 349
3 382 381 342
3 382 380 381
3 382 383 380
3 384 184 223
3 384 385 184
3 384 386 385
3 384 387 386
3 384 388 387
3 384 389 388
3 384 219 389
3 384 223 219
3 390 219 220
3 390 389 219
3 390 388 389
3 390 391 388
3 390 392 391
3 390 393 392
3 390 213 393
3 390 220 213
3 394 213 214
3 394 393 213
3 394 392 393
3 394 395 392
3 394 396 395
3 394 397 396
3 394 207 397
3 394 214 207
3 398 207 208
3 398 397 207
3 398 396 397
3 398 399 396
3 398 400 399
3 398 401 400
3 398 201 401
3 398 208 201
3 402 201 202
3 402 401 201
3 402 400 401
3 402 403 400
3 402 404 403
3 402 405 404
3 402 195 405
3 402 202 195
3 406 195 196
3 406 405 195
3 406 404 405
3 406 407 404
3 406 408 407
3 406 409 408
3 406 189 409
3 406 196 189
3 410 189 190
3 410 409 189
3 410 408 409
3 410 411 408
3 410 412 411
3 410 413 412
3 410 182 413
3 410 190 182
3 414 182 183
3 414 413 182
3 414 412 413
3 414 415 412
3 414 386 415
3 414 385 386
3 414 184 385
3 414 183 184
3 416 386 387
3 416 417 386
3 416 418 417
3 416 419 418
3 416 420 419
3 416 421 420
3 416 388 421
3 416 387 388
3 422 418 419
3 422 423 418
3 422 8 423
3 422 46 8
3 422 40 46
3 422 424 40
3 422 420 424
3 422 419 420
3 425 388 391
3 425 421 388
3 425 420 421
3 425 426 420
3 425 427 426
3 425 428 427
3 425 392 428
3 425 391 392
3 429 420 426
3 429 424 420
3 429 40 424
3 429 41 40
3 429 35 41
3 429 430 35
3 429 427 430
3 429 426 427
3 431 392 395
3 431 428 392
3 431 427 428
3 431 432 427
3 431 433 432
3 431 434 433
3 431 396 434
3 431 395 396
3 435 427 432
3 435 430 427
3 435 35 430
3 435 34 35
3 435 28 34
3 435 436 28
3 435 433 436
3 435 432 433
3 437 396 399
3 437 434 396
3 437 433 434
3 437 438 433
3 437 439 438
3 437 440 439
3 437 400 440
3 437 399 400
3 441 433 438
3 441 436 433
3 441 28 436
3 441 29 28
3 441 22 29
3 441 442 22
3 441 439 442
3 441 438 439
3 443 400 403
3 443 440 400
3 443 439 440
3 443 444 439
3 443 445 444
3 443 446 445
3 443 404 446
3 443 403 404
3 447 439 444
3 447 442 439
3 447 22 442
3 447 23 22
3 447 16 23
3 447 448 16
3 447 445 448
3 447 444 445
3 449 404 407
3 449 446 404
3 449 445 446
3 449 450 445
3 449 451 450
3 449 452 451
3 449 408 452
3 449 407 408
3 453 445 450
3 453 448 445
3 453 16 448
3 453 17 16
3 453 10 17
3 453 454 10
3 453 451 454
3 453 450 451
3 455 408 411
3 455 452 408
3 455 451 452
3 455 456 451
3 455 457 456
3 455 458 457
3 455 412 458
3 455 411 412
3 459 451 456
3 459 454 451
3 459 10 454
3 459 11 10
3 459 1 11
3 459 460 1
3 459 457 460
3 459 456 457
3 461 412 415
3 461 458 412
3 461 457 458
3 461 462 457
3 461 418 462
3 461 417 418
3 461 386 417
3 461 415 386
3 463 457 462
3 463 460 457
3 463 1 460
3 463 2 1
3 463 8 2
3 463 423 8
3 463 418 423
3 463 462 418
