ply
format ascii 1.0
element vertex 554
property float x
property float y
property float z
property float nx
property float ny
property float nz
property float u
property float v
element face 1104
property list uchar int vertex_indices
end_header
1.795149 1.333245 3.01718 -0.707075543 0.00939967487 0.707075543 0 0
1.7909 1.340168 3.013846 -0.499718482 0.0337012465 0.865532012 0 0
1.790877 1.333245 3.013886 -0.49998891 0.00939979151 0.865980793 0 0
1.795182 1.340168 3.017148 -0.706707512 0.0336003572 0.706707512 0 0
1.798484 1.340168 3.02143 -0.865532012 0.0337012465 0.499718482 0 0
1.798443 1.333245 3.021453 -0.865980793 0.00939979151 0.49998891 0 0
1.798369 1.326168 3.021496 -0.864841353 0.0522024961 0.499323876 0 0
1.795089 1.326168 3.017241 -0.706142631 0.0522031516 0.706142631 0 0
1.790834 1.326168 3.013961 -0.499323876 0.0522024961 0.864841353 0 0
1.800496 1.333245 3.026442 -0.965886183 0.00939986554 0.258796298 0 0
1.800542 1.340168 3.02643 -0.965399961 0.0335999987 0.25859999 0 0
1.80126 1.340168 3.031789 -0.999431957 0.0337010776 0 0 0
1.801213 1.333245 3.031789 -0.999955814 0.0094005247 0 0 0
1.801127 1.326168 3.031789 -0.998636551 0.0522019106 0 0 0
1.800414 1.326168 3.026464 -0.964599879 0.0521999935 0.258499968 0 0
1.800496 1.333245 3.037136 -0.965886183 0.00939986554 -0.258796298 0 0
1.800542 1.340168 3.037148 -0.965399961 0.0335999987 -0.25859999 0 0
1.798484 1.340168 3.042148 -0.865532012 0.0337012465 -0.499718482 0 0
1.798443 1.333245 3.042125 -0.865980793 0.00939979151 -0.49998891 0 0
1.798369 1.326168 3.042082 -0.864841353 0.0522024961 -0.499323876 0 0
1.800414 1.326168 3.037114 -0.964599879 0.0521999935 -0.258499968 0 0
1.795149 1.333245 3.046397 -0.707075543 0.00939967487 -0.707075543 0 0
1.795182 1.340168 3.04643 -0.706707512 0.0336003572 -0.706707512 0 0
1.7909 1.340168 3.049731 -0.499718482 0.0337012465 -0.865532012 0 0
1.790877 1.333245 3.049691 -0.49998891 0.00939979151 -0.865980793 0 0
1.790834 1.326168 3.049617 -0.499323876 0.0522024961 -0.864841353 0 0
1.795089 1.326168 3.046336 -0.706142631 0.0522031516 -0.706142631 0 0
1.785888 1.333245 3.051744 -0.258796298 0.00939986554 -0.965886183 0 0
1.7859 1.340168 3.051789 -0.258599119 0.0336998853 -0.965396713 0 0
1.780541 1.340168 3.052507 0 0.0337010776 -0.999431957 0 0
1.780541 1.333245 3.05246 0 0.0094005247 -0.999955814 0 0
1.780541 1.326168 3.052375 0 0.0522019106 -0.998636551 0 0
1.785866 1.326168 3.051661 -0.258501316 0.0521002652 -0.96460491 0 0
1.775194 1.333245 3.051744 0.258796298 0.00939986554 -0.965886183 0 0
1.775182 1.340168 3.051789 0.258599119 0.0336998853 -0.965396713 0 0
1.770182 1.340168 3.049731 0.499718482 0.0337012465 -0.865532012 0 0
1.770205 1.333245 3.049691 0.49998891 0.00939979151 -0.865980793 0 0
1.770248 1.326168 3.049617 0.499323876 0.0522024961 -0.864841353 0 0
1.775216 1.326168 3.051661 0.258501316 0.0521002652 -0.96460491 0 0
1.765933 1.333245 3.046397 0.707075543 0.00939967487 -0.707075543 0 0
1.7659 1.340168 3.04643 0.706707512 0.0336003572 -0.706707512 0 0
1.762599 1.340168 3.042148 0.865532012 0.0337012465 -0.499718482 0 0
1.762639 1.333245 3.042125 0.865980793 0.00939979151 -0.49998891 0 0
1.762713 1.326168 3.042082 0.864841353 0.0522024961 -0.499323876 0 0
1.765993 1.326168 3.046336 0.706146314 0.0521034173 -0.706146314 0 0
1.760586 1.333245 3.037136 0.965886183 0.00939986554 -0.258796298 0 0
1.760541 1.340168 3.037148 0.965396713 0.0336998853 -0.258599119 0 0
1.759823 1.340168 3.031789 0.999431957 0.0337010776 0 0 0
1.759869 1.333245 3.031789 0.999955814 0.0094005247 0 0 0
1.759955 1.326168 3.031789 0.998636551 0.0522019106 0 0 0
1.760669 1.326168 3.037114 0.964599879 0.0521999935 -0.258499968 0 0
1.760586 1.333245 3.026442 0.965886183 0.00939986554 0.258796298 0 0
1.760541 1.340168 3.02643 0.965399961 0.0335999987 0.25859999 0 0
1.762599 1.340168 3.02143 0.865532012 0.0337012465 0.499718482 0 0
1.762639 1.333245 3.021453 0.865980793 0.00939979151 0.49998891 0 0
1.762713 1.326168 3.021496 0.864841353 0.0522024961 0.499323876 0 0
1.760669 1.326168 3.026464 0.964599879 0.0521999935 0.258499968 0 0
1.765933 1.333245 3.01718 0.707075543 0.00939967487 0.707075543 0 0
1.7659 1.340168 3.017148 0.706707512 0.0336003572 0.706707512 0 0
1.770182 1.340168 3.013846 0.499718482 0.0337012465 0.865532012 0 0
1.770205 1.333245 3.013886 0.49998891 0.00939979151 0.865980793 0 0
1.770248 1.326168 3.013961 0.499323876 0.0522024961 0.864841353 0 0
1.765993 1.326168 3.017241 0.706142631 0.0522031516 0.706142631 0 0
1.775194 1.333245 3.011833 0.258821297 0.00940077353 0.965879476 0 0
1.775182 1.340168 3.011788 0.258693299 0.0335991296 0.965374992 0 0
1.780541 1.340168 3.01107 0 0.0337010776 0.999431957 0 0
1.780541 1.333245 3.011117 0 0.0094005247 0.999955814 0 0
1.780541 1.326168 3.011203 0 0.0522019106 0.998636551 0 0
1.775216 1.326168 3.011916 0.258499968 0.0521999935 0.964599879 0 0
1.785888 1.333245 3.011833 -0.258821297 0.00940077353 0.965879476 0 0
1.7859 1.340168 3.011788 -0.258693299 0.0335991296 0.965374992 0 0
1.785866 1.326168 3.011916 -0.258499968 0.0521999935 0.964599879 0 0
1.7858 1.323399 3.012165 -0.198707096 0.640822884 0.74152648 0 0
1.780541 1.323399 3.01146 0 0.639111626 0.76911399 0 0
1.790705 1.323399 3.014184 -0.384505212 0.639208665 0.666009028 0 0
1.789529 1.322937 3.016222 -0.0614015756 0.992425466 0.10640273 0 0
1.785302 1.322937 3.014021 -0.0338995691 0.9913874 0.126498392 0 0
1.780541 1.322937 3.013814 0 0.992418772 0.122902325 0 0
1.775283 1.323399 3.012165 0.198707096 0.640822884 0.74152648 0 0
1.770377 1.323399 3.014184 0.384505212 0.639208665 0.666009028 0 0
1.77578 1.322937 3.014021 0.0338995691 0.9913874 0.126498392 0 0
1.771554 1.322937 3.016222 0.0614015756 0.992425466 0.10640273 0 0
1.766175 1.323399 3.017423 0.542830312 0.640835785 0.542830312 0 0
1.762936 1.323399 3.021624 0.666009028 0.639208665 0.384505212 0 0
1.767534 1.322937 3.018782 0.0925989129 0.991388361 0.0925989129 0 0
1.764974 1.322937 3.022801 0.10640273 0.992425466 0.0614015756 0 0
1.760917 1.323399 3.026531 0.74152648 0.640822884 0.198707096 0 0
1.760213 1.323399 3.031789 0.769073138 0.639160784 0 0 0
1.762773 1.322937 3.027028 0.126498392 0.9913874 0.0338995691 0 0
1.762566 1.322937 3.031789 0.122902325 0.992418772 0 0 0
1.760917 1.323399 3.037047 0.74152648 0.640822884 -0.198707096 0 0
1.762936 1.323399 3.041953 0.666009028 0.639208665 -0.384505212 0 0
1.762773 1.322937 3.03655 0.126498392 0.9913874 -0.0338995691 0 0
1.764974 1.322937 3.040776 0.10640273 0.992425466 -0.0614015756 0 0
1.766175 1.323399 3.046155 0.542830312 0.640835785 -0.542830312 0 0
1.770377 1.323399 3.049394 0.384529791 0.639149517 -0.666051601 0 0
1.767534 1.322937 3.044796 0.0925989129 0.991388361 -0.0925989129 0 0
1.771554 1.322937 3.047356 0.0614015756 0.992425466 -0.10640273 0 0
1.775283 1.323399 3.051413 0.198707096 0.640822884 -0.74152648 0 0
1.780541 1.323399 3.052117 0 0.639111626 -0.76911399 0 0
1.77578 1.322937 3.049557 0.0338995691 0.9913874 -0.126498392 0 0
1.780541 1.322937 3.049764 0 0.992418772 -0.122902325 0 0
1.7858 1.323399 3.051413 -0.198707096 0.640822884 -0.74152648 0 0
1.790705 1.323399 3.049394 -0.384529791 0.639149517 -0.666051601 0 0
1.785302 1.322937 3.049557 -0.0338995691 0.9913874 -0.126498392 0 0
1.789529 1.322937 3.047356 -0.0614015756 0.992425466 -0.10640273 0 0
1.794907 1.323399 3.046155 -0.542830312 0.640835785 -0.542830312 0 0
1.798146 1.323399 3.041953 -0.666009028 0.639208665 -0.384505212 0 0
1.793548 1.322937 3.044796 -0.0925989129 0.991388361 -0.0925989129 0 0
1.796108 1.322937 3.040776 -0.10640273 0.992425466 -0.0614015756 0 0
1.800165 1.323399 3.037047 -0.74152648 0.640822884 -0.198707096 0 0
1.80087 1.323399 3.031789 -0.769073138 0.639160784 0 0 0
1.798309 1.322937 3.03655 -0.126498392 0.9913874 -0.0338995691 0 0
1.798516 1.322937 3.031789 -0.122902325 0.992418772 0 0 0
1.800165 1.323399 3.026531 -0.74152648 0.640822884 0.198707096 0 0
1.798146 1.323399 3.021624 -0.666051601 0.639149517 0.384529791 0 0
1.798309 1.322937 3.027028 -0.126498392 0.9913874 0.0338995691 0 0
1.796108 1.322937 3.022801 -0.10640273 0.992425466 0.0614015756 0 0
1.794907 1.323399 3.017423 -0.542830312 0.640835785 0.542830312 0 0
1.793548 1.322937 3.018782 -0.0925989129 0.991388361 0.0925989129 0 0
1.789957 1.322784 3.022373 -0.0127004914 0.999838685 0.0127004914 0 0
1.786341 1.322784 3.021742 -0.00540022773 0.999942168 0.00930039221 0 0
1.790588 1.322784 3.025989 -0.00930039718 0.999942703 0.00530022635 0 0
1.780541 1.322784 3.031789 0 1 0 0 0
1.793403 1.322784 3.028342 -0.0173006878 0.999839749 0.00460018288 0 0
1.792142 1.322784 3.031789 -0.0107004575 0.999942748 0 0 0
1.793403 1.322784 3.035235 -0.0173006878 0.999839749 -0.00460018288 0 0
1.790588 1.322784 3.037589 -0.00930039221 0.999942168 -0.00540022773 0 0
1.789957 1.322784 3.041204 -0.0127004914 0.999838685 -0.0127004914 0 0
1.786341 1.322784 3.041835 -0.00540022773 0.999942168 -0.00930039221 0 0
1.783988 1.322784 3.044651 -0.00460018288 0.999839749 -0.0173006878 0 0
1.780541 1.322784 3.043389 0 0.999942748 -0.0107004575 0 0
1.777095 1.322784 3.044651 0.00460018288 0.999839749 -0.0173006878 0 0
1.774741 1.322784 3.041835 0.00540022773 0.999942168 -0.00930039221 0 0
1.771126 1.322784 3.041204 0.0127004914 0.999838685 -0.0127004914 0 0
1.770495 1.322784 3.037589 0.00930039718 0.999942703 -0.00530022635 0 0
1.767679 1.322784 3.035235 0.0173006878 0.999839749 -0.00460018288 0 0
1.768941 1.322784 3.031789 0.0107004575 0.999942748 0 0 0
1.767679 1.322784 3.028342 0.0173006878 0.999839749 0.00460018288 0 0
1.770495 1.322784 3.025989 0.00930039221 0.999942168 0.00540022773 0 0
1.771126 1.322784 3.022373 0.0127004914 0.999838685 0.0127004914 0 0
1.774741 1.322784 3.021742 0.00540022773 0.999942168 0.00930039221 0 0
1.777095 1.322784 3.018927 0.00460018288 0.999839749 0.0173006878 0 0
1.780541 1.322784 3.020188 0 0.999942748 0.0107004575 0 0
1.783988 1.322784 3.018927 -0.00460018288 0.999839749 0.0173006878 0 0
1.786896 1.342476 3.008071 0.151902562 0.809513653 -0.567109564 0 0
1.793138 1.340981 3.009983 0.468708132 0.348006038 -0.811914087 0 0
1.787058 1.340981 3.007481 0.24270913 0.347213061 -0.905834073 0 0
1.792825 1.342476 3.010512 0.293711235 0.809030946 -0.509119474 0 0
1.792552 1.342476 3.010985 0 1 0 0 0
1.786755 1.342476 3.008599 0 1 0 0 0
1.780541 1.342476 3.007766 0 1 0 0 0
1.780541 1.342476 3.00722 0 0.808710137 -0.588207373 0 0
1.780541 1.340981 3.006608 0 0.347109155 -0.937824735 0 0
1.774186 1.342476 3.008071 -0.151804865 0.809525946 -0.567118176 0 0
1.774025 1.340981 3.007481 -0.24270913 0.347213061 -0.905834073 0 0
1.774328 1.342476 3.008599 0 1 0 0 0
1.76853 1.342476 3.010985 0 1 0 0 0
1.768257 1.342476 3.010512 -0.293726188 0.809072136 -0.509045386 0 0
1.767945 1.340981 3.009983 -0.468708132 0.348006038 -0.811914087 0 0
1.763179 1.342476 3.014426 -0.41442354 0.810046012 -0.414823563 0 0
1.762738 1.340981 3.013997 -0.662619461 0.348910248 -0.662719464 0 0
1.763565 1.342476 3.014813 0 1 0 0 0
1.759737 1.342476 3.019778 0 1 0 0 0
1.759264 1.342476 3.019504 -0.507915388 0.809824534 -0.293608895 0 0
1.758723 1.340981 3.019204 -0.811112872 0.350405561 -0.468307432 0 0
1.756824 1.342476 3.025434 -0.565116937 0.810924304 -0.15180455 0 0
1.756221 1.340981 3.025284 -0.904159071 0.351822985 -0.242315831 0 0
1.757351 1.342476 3.025575 0 1 0 0 0
1.756519 1.342476 3.031789 0 1 0 0 0
1.755973 1.342476 3.031789 -0.585307934 0.810810991 -0.000400005422 0 0
1.755348 1.340981 3.031801 -0.935351544 0.353719492 -0.000100005511 0 0
1.756824 1.342476 3.038144 -0.563821163 0.81203048 0.150705657 0 0
1.756221 1.340981 3.038317 -0.902908077 0.355303178 0.241902164 0 0
1.757351 1.342476 3.038002 0 1 0 0 0
1.759737 1.342476 3.0438 0 1 0 0 0
1.759264 1.342476 3.044073 -0.505788415 0.811881404 0.291593321 0 0
1.758723 1.340981 3.044397 -0.808992314 0.356996609 0.466995564 0 0
1.763179 1.342476 3.049151 -0.411890698 0.812981639 0.411590704 0 0
1.762738 1.340981 3.049604 -0.660231926 0.358217322 0.660131921 0 0
1.763565 1.342476 3.048765 0 1 0 0 0
1.76853 1.342476 3.052593 0 1 0 0 0
1.768257 1.342476 3.053066 -0.291512802 0.812635688 0.504622161 0 0
1.767945 1.340981 3.053619 -0.466621108 0.359416259 0.808136557 0 0
1.774186 1.342476 3.055506 -0.150602297 0.813512406 0.561708566 0 0
1.774025 1.340981 3.056121 -0.241404417 0.359906585 0.901216488 0 0
1.774328 1.342476 3.054979 0 1 0 0 0
1.780541 1.342476 3.055811 0 1 0 0 0
1.780541 1.342476 3.056357 0 0.812901557 0.582401115 0 0
1.780541 1.340981 3.056994 0 0.360312263 0.93283175 0 0
1.786896 1.342476 3.055506 0.150602297 0.813512406 0.561708566 0 0
1.787058 1.340981 3.056121 0.241404417 0.359906585 0.901216488 0 0
1.786755 1.342476 3.054979 0 1 0 0 0
1.792552 1.342476 3.052593 0 1 0 0 0
1.792825 1.342476 3.053066 0.291512802 0.812635688 0.504622161 0 0
1.793138 1.340981 3.053619 0.466621108 0.359416259 0.808136557 0 0
1.797903 1.342476 3.049151 0.412007216 0.812914238 0.411607209 0 0
1.798345 1.340981 3.049604 0.660231926 0.358217322 0.660131921 0 0
1.797517 1.342476 3.048765 0 1 0 0 0
1.801345 1.342476 3.0438 0 1 0 0 0
1.801818 1.342476 3.044073 0.505829481 0.811847316 0.291616996 0 0
1.802359 1.340981 3.044397 0.808992314 0.356996609 0.466995564 0 0
1.804258 1.342476 3.038144 0.563821163 0.81203048 0.150705657 0 0
1.804861 1.340981 3.038317 0.902908077 0.355303178 0.241902164 0 0
1.803731 1.342476 3.038002 0 1 0 0 0
1.804563 1.342476 3.031789 0 1 0 0 0
1.80511 1.342476 3.031789 0.585307934 0.810810991 -0.000400005422 0 0
1.805734 1.340981 3.031801 0.935351544 0.353719492 -0.000100005511 0 0
1.804258 1.342476 3.025434 0.565071111 0.810958541 -0.15179224 0 0
1.804861 1.340981 3.025284 0.904127255 0.351910609 -0.242307304 0 0
1.803731 1.342476 3.025575 0 1 0 0 0
1.801345 1.342476 3.019778 0 1 0 0 0
1.801818 1.342476 3.019504 0.507915388 0.809824534 -0.293608895 0 0
1.802359 1.340981 3.019204 0.811112872 0.350405561 -0.468307432 0 0
1.797903 1.342476 3.014426 0.414506365 0.810012438 -0.414806369 0 0
1.797517 1.342476 3.014813 0 1 0 0 0
1.798345 1.340981 3.013997 0.662619461 0.348910248 -0.662719464 0 0
1.786418 1.342476 3.009854 0 1 0 0 0
1.791902 1.342476 3.012111 0 1 0 0 0
1.79125 1.342476 3.013241 0 1 0 0 0
1.786081 1.342476 3.011114 0 1 0 0 0
1.780541 1.342476 3.010371 0 1 0 0 0
1.780541 1.342476 3.009067 0 1 0 0 0
1.785936 1.342476 3.011653 -0.169103702 0.757116573 0.631013813 0 0
1.79097 1.342476 3.013725 -0.326019937 0.758146362 0.564734535 0 0
1.780541 1.342476 3.010931 0 0.758118946 0.652116297 0 0
1.774664 1.342476 3.009854 0 1 0 0 0
1.775001 1.342476 3.011114 0 1 0 0 0
1.769833 1.342476 3.013241 0 1 0 0 0
1.76918 1.342476 3.012111 0 1 0 0 0
1.775146 1.342476 3.011653 0.169093031 0.757068798 0.631073991 0 0
1.770112 1.342476 3.013725 0.326019937 0.758146362 0.564734535 0 0
1.764484 1.342476 3.015732 0 1 0 0 0
1.765406 1.342476 3.016654 0 1 0 0 0
1.761993 1.342476 3.02108 0 1 0 0 0
1.760864 1.342476 3.020428 0 1 0 0 0
1.765801 1.342476 3.017049 0.462014554 0.757023847 0.462014554 0 0
1.762478 1.342476 3.02136 0.564734535 0.758146362 0.326019937 0 0
1.758607 1.342476 3.025911 0 1 0 0 0
1.759866 1.342476 3.026249 0 1 0 0 0
1.759124 1.342476 3.031789 0 1 0 0 0
1.757819 1.342476 3.031789 0 1 0 0 0
1.760406 1.342476 3.026393 0.631121768 0.75702611 0.169105833 0 0
1.759683 1.342476 3.031789 0.652116297 0.758118946 0 0 0
1.758607 1.342476 3.037666 0 1 0 0 0
1.759866 1.342476 3.037328 0 1 0 0 0
1.761993 1.342476 3.042497 0 1 0 0 0
1.760864 1.342476 3.04315 0 1 0 0 0
1.760406 1.342476 3.037184 0.631013813 0.757116573 -0.169103702 0 0
1.762478 1.342476 3.042218 0.564734535 0.758146362 -0.326019937 0 0
1.764484 1.342476 3.047846 0 1 0 0 0
1.765406 1.342476 3.046924 0 1 0 0 0
1.769833 1.342476 3.050337 0 1 0 0 0
1.76918 1.342476 3.051466 0 1 0 0 0
1.765801 1.342476 3.046529 0.461979579 0.757066535 -0.461979579 0 0
1.770112 1.342476 3.049852 0.326019937 0.758146362 -0.564734535 0 0
1.774664 1.342476 3.053723 0 1 0 0 0
1.775001 1.342476 3.052464 0 1 0 0 0
1.780541 1.342476 3.053206 0 1 0 0 0
1.780541 1.342476 3.054511 0 1 0 0 0
1.775146 1.342476 3.051924 0.169103702 0.757116573 -0.631013813 0 0
1.780541 1.342476 3.052647 0 0.758118946 -0.652116297 0 0
1.786418 1.342476 3.053723 0 1 0 0 0
1.786081 1.342476 3.052464 0 1 0 0 0
1.79125 1.342476 3.050337 0 1 0 0 0
1.791902 1.342476 3.051466 0 1 0 0 0
1.785936 1.342476 3.051924 -0.169103702 0.757116573 -0.631013813 0 0
1.79097 1.342476 3.049852 -0.326019937 0.758146362 -0.564734535 0 0
1.796598 1.342476 3.047846 0 1 0 0 0
1.795676 1.342476 3.046924 0 1 0 0 0
1.799089 1.342476 3.042497 0 1 0 0 0
1.800219 1.342476 3.04315 0 1 0 0 0
1.795281 1.342476 3.046529 -0.462014554 0.757023847 -0.462014554 0 0
1.798605 1.342476 3.042218 -0.564734535 0.758146362 -0.326019937 0 0
1.802476 1.342476 3.037666 0 1 0 0 0
1.801216 1.342476 3.037328 0 1 0 0 0
1.801958 1.342476 3.031789 0 1 0 0 0
1.803263 1.342476 3.031789 0 1 0 0 0
1.800676 1.342476 3.037184 -0.631084659 0.757081595 -0.168995892 0 0
1.801399 1.342476 3.031789 -0.652116297 0.758118946 0 0 0
1.802476 1.342476 3.025911 0 1 0 0 0
1.801216 1.342476 3.026249 0 1 0 0 0
1.799089 1.342476 3.02108 0 1 0 0 0
1.800219 1.342476 3.020428 0 1 0 0 0
1.800676 1.342476 3.026393 -0.631073991 0.757068798 0.169093031 0 0
1.798605 1.342476 3.02136 -0.564734535 0.758146362 0.326019937 0 0
1.796598 1.342476 3.015732 0 1 0 0 0
1.795676 1.342476 3.016654 0 1 0 0 0
1.795281 1.342476 3.017049 -0.462014554 0.757023847 0.462014554 0 0
1.782436 1.303064 3.024813 0.00290010552 -0.999936383 -0.0109003966 0 0
1.780541 1.303117 3.021974 0 -0.997404608 -0.0720003326 0 0
1.783166 1.303117 3.022089 0.0198010708 -0.997053917 -0.0741040073 0 0
1.780541 1.303063 3.025506 0 -0.999975501 -0.00699982851 0 0
1.780541 1.303061 3.031885 0 -1 0 0 0
1.783731 1.303063 3.026361 0.00339991915 -0.999976221 -0.00599985733 0 0
1.785497 1.303117 3.023302 0.0360002871 -0.997407954 -0.0623004968 0 0
1.786599 1.314326 3.009279 0.218308413 -0.537020694 -0.8148314 0 0
1.780541 1.319362 3.00586 0 -0.369096462 -0.929391092 0 0
1.787273 1.319362 3.006762 0.240494458 -0.368991497 -0.897779311 0 0
1.780541 1.314326 3.008467 0 -0.537224874 -0.843439052 0 0
1.780541 1.309958 3.011891 0 -0.6874922 -0.726191761 0 0
1.785713 1.309958 3.012584 0.187906819 -0.687424947 -0.701525459 0 0
1.790538 1.309958 3.01457 0.363097627 -0.687495507 -0.62889589 0 0
1.79225 1.314326 3.011605 0.421690516 -0.537187919 -0.730483572 0 0
1.793554 1.319362 3.009346 0.464689566 -0.369091712 -0.804881927 0 0
1.787686 1.32483 3.005219 0.255100462 -0.168600305 -0.952101723 0 0
1.780541 1.330589 3.003927 0 0.0690011468 -0.997616581 0 0
1.78777 1.330589 3.004896 0.258204259 0.0691011398 -0.963615895 0 0
1.780541 1.32483 3.004262 0 -0.168694587 -0.98566837 0 0
1.794353 1.32483 3.007963 0.492897701 -0.168599213 -0.853596018 0 0
1.794514 1.330589 3.007672 0.498811248 0.0695015673 -0.863919482 0 0
1.800062 1.32483 3.012364 0.697019904 -0.168304806 -0.697019904 0 0
1.80029 1.330589 3.012125 0.705417191 0.0701017084 -0.705317189 0 0
1.798933 1.319362 3.013494 0.657205034 -0.369002827 -0.657205034 0 0
1.80308 1.319362 3.018872 0.804881927 -0.369091712 -0.464689566 0 0
1.804464 1.32483 3.018074 0.853722722 -0.168204477 -0.492813116 0 0
1.804743 1.330589 3.0179 0.863920743 0.0709017024 -0.498611972 0 0
1.79709 1.314326 3.015336 0.596469906 -0.537072903 -0.596469906 0 0
1.794671 1.309958 3.017756 0.513529976 -0.687440127 -0.513529976 0 0
1.797856 1.309958 3.021888 0.62889589 -0.687495507 -0.363097627 0 0
1.800822 1.314326 3.020176 0.730483572 -0.537187919 -0.421690516 0 0
1.785718 1.303064 3.026708 0.00800028798 -0.999935993 -0.00800028798 0 0
1.787713 1.303117 3.024714 0.0542031363 -0.997057691 -0.0542031363 0 0
1.786065 1.303063 3.028696 0.00599985733 -0.999976221 -0.00339991915 0 0
1.789125 1.303117 3.026929 0.0623004968 -0.997407954 -0.0360002871 0 0
1.787613 1.303064 3.02999 0.0110003882 -0.999935288 -0.00290010235 0 0
1.790338 1.303117 3.02926 0.0740045499 -0.997061301 -0.0198012174 0 0
1.78692 1.303063 3.031885 0.00689983575 -0.999976196 0 0 0
1.790453 1.303117 3.031885 0.0720003326 -0.997404608 0 0 0
1.803147 1.314326 3.025828 0.81478764 -0.537091852 -0.218296688 0 0
1.805665 1.319362 3.025153 0.897779311 -0.368991497 -0.240494458 0 0
1.799842 1.309958 3.026714 0.701525459 -0.687424947 -0.187906819 0 0
1.800535 1.309958 3.031885 0.726191761 -0.6874922 0 0 0
1.803959 1.314326 3.031885 0.843467911 -0.537179563 0 0 0
1.806567 1.319362 3.031885 0.929391092 -0.369096462 0 0 0
1.807207 1.32483 3.02474 0.952247495 -0.167908375 -0.255012719 0 0
1.807518 1.330589 3.024645 0.9634611 0.07190456 -0.258016363 0 0
1.808164 1.32483 3.031885 0.985836999 -0.167706294 0.000100003753 0 0
1.808487 1.330589 3.031873 0.997339027 0.0729028527 0.000200007826 0 0
1.807207 1.32483 3.03903 0.952288054 -0.1673979 0.255196799 0 0
1.807518 1.330589 3.039102 0.963256501 0.073904335 0.258215146 0 0
1.805665 1.319362 3.038617 0.897779311 -0.368991497 0.240494458 0 0
1.80308 1.319362 3.044898 0.804881927 -0.369091712 0.464689566 0 0
1.804464 1.32483 3.045697 0.853808845 -0.167201732 0.493005108 0 0
1.804743 1.330589 3.045846 0.863530665 0.0748026563 0.49871771 0 0
1.803147 1.314326 3.037943 0.81478764 -0.537091852 0.218296688 0 0
1.799842 1.309958 3.037057 0.701525459 -0.687424947 0.187906819 0 0
1.797856 1.309958 3.041882 0.62889589 -0.687495507 0.363097627 0 0
1.800822 1.314326 3.043594 0.730483572 -0.537187919 0.421690516 0 0
1.787613 1.303064 3.03378 0.0110003882 -0.999935288 0.00290010235 0 0
1.790338 1.303117 3.03451 0.0740045499 -0.997061301 0.0198012174 0 0
1.786065 1.303063 3.035074 0.00599985526 -0.999975876 0.00349991557 0 0
1.789125 1.303117 3.036841 0.0623004968 -0.997407954 0.0360002871 0 0
1.785718 1.303064 3.037062 0.00800028798 -0.999935993 0.00800028798 0 0
1.787713 1.303117 3.039057 0.0542031363 -0.997057691 0.0542031363 0 0
1.783731 1.303063 3.037409 0.00339991915 -0.999976221 0.00599985733 0 0
1.785497 1.303117 3.040469 0.0360002871 -0.997407954 0.0623004968 0 0
1.79709 1.314326 3.048434 0.596469906 -0.537072903 0.596469906 0 0
1.798933 1.319362 3.050277 0.657205034 -0.369002827 0.657205034 0 0
1.79467 1.309958 3.046015 0.513529976 -0.687440127 0.513529976 0 0
1.790538 1.309958 3.049201 0.363097627 -0.687495507 0.62889589 0 0
1.79225 1.314326 3.052166 0.421690516 -0.537187919 0.730483572 0 0
1.793554 1.319362 3.054424 0.464689566 -0.369091712 0.804881927 0 0
1.800062 1.32483 3.051406 0.697137695 -0.166909025 0.697237701 0 0
1.80029 1.330589 3.051622 0.705033007 0.0756035395 0.705133012 0 0
1.794353 1.32483 3.055808 0.492920245 -0.166806851 0.853935072 0 0
1.794514 1.330589 3.056075 0.49851092 0.0763016714 0.863518916 0 0
1.787686 1.32483 3.058551 0.25520659 -0.166604302 0.952424592 0 0
1.78777 1.330589 3.05885 0.257998904 0.076699674 0.963095907 0 0
1.787273 1.319362 3.057009 0.24051605 -0.369024626 0.89775991 0 0
1.780541 1.319362 3.057911 0 -0.369096462 0.929391092 0 0
1.780541 1.32483 3.059509 0 -0.166604035 0.986023882 0 0
1.780541 1.330589 3.059819 0 0.0768035622 0.997046244 0 0
1.786599 1.314326 3.054492 0.218308413 -0.537020694 0.8148314 0 0
1.785713 1.309958 3.051186 0.188003289 -0.687412026 0.701512273 0 0
1.780541 1.309958 3.051879 0 -0.6874922 0.726191761 0 0
1.780541 1.314326 3.055303 0 -0.537224874 0.843439052 0 0
1.782436 1.303064 3.038958 0.00290010552 -0.999936383 0.0109003966 0 0
1.783166 1.303117 3.041682 0.0198010708 -0.997053917 0.0741040073 0 0
1.780541 1.303063 3.038264 0 -0.999976196 0.00689983575 0 0
1.780541 1.303117 3.041797 0 -0.997404608 0.0720003326 0 0
1.778646 1.303064 3.038958 -0.00290010552 -0.999936383 0.0109003966 0 0
1.777916 1.303117 3.041682 -0.0198010708 -0.997053917 0.0741040073 0 0
1.777352 1.303063 3.037409 -0.00339991915 -0.999976221 0.00599985733 0 0
1.775585 1.303117 3.040469 -0.0360000626 -0.997401735 0.0624001086 0 0
1.774484 1.314326 3.054492 -0.218308413 -0.537020694 0.8148314 0 0
1.773809 1.319362 3.057009 -0.24051605 -0.369024626 0.89775991 0 0
1.77537 1.309958 3.051186 -0.188003289 -0.687412026 0.701512273 0 0
1.770544 1.309958 3.049201 -0.363010807 -0.687520468 0.628918723 0 0
1.768832 1.314326 3.052166 -0.421690516 -0.537187919 0.730483572 0 0
1.767528 1.319362 3.054424 -0.464689566 -0.369091712 0.804881927 0 0
1.773396 1.32483 3.058551 -0.25520659 -0.166604302 0.952424592 0 0
1.773313 1.330589 3.05885 -0.257998904 0.076699674 0.963095907 0 0
1.76673 1.32483 3.055808 -0.492920245 -0.166806851 0.853935072 0 0
1.766568 1.330589 3.056075 -0.49851092 0.0763016714 0.863518916 0 0
1.76102 1.32483 3.051406 -0.697137695 -0.166909025 0.697237701 0 0
1.760792 1.330589 3.051622 -0.705033007 0.0756035395 0.705133012 0 0
1.762149 1.319362 3.050277 -0.657205034 -0.369002827 0.657205034 0 0
1.758003 1.319362 3.044898 -0.804881927 -0.369091712 0.464689566 0 0
1.756619 1.32483 3.045697 -0.853823118 -0.167104524 0.493013349 0 0
1.75634 1.330589 3.045846 -0.863530665 0.0748026563 0.49871771 0 0
1.763992 1.314326 3.048434 -0.596469906 -0.537072903 0.596469906 0 0
1.766412 1.309958 3.046015 -0.513529976 -0.687440127 0.513529976 0 0
1.763226 1.309958 3.041882 -0.62889589 -0.687495507 0.363097627 0 0
1.760261 1.314326 3.043594 -0.730483572 -0.537187919 0.421690516 0 0
1.775364 1.303064 3.037062 -0.00800028798 -0.999935993 0.00800028798 0 0
1.77337 1.303117 3.039057 -0.0542031363 -0.997057691 0.0542031363 0 0
1.775017 1.303063 3.035074 -0.00599985733 -0.999976221 0.00339991915 0 0
1.771958 1.303117 3.036841 -0.0623004968 -0.997407954 0.0360002871 0 0
1.773469 1.303064 3.03378 -0.0110003882 -0.999935288 0.00290010235 0 0
1.770744 1.303117 3.03451 -0.0740045499 -0.997061301 0.0198012174 0 0
1.774163 1.303063 3.031885 -0.00689983575 -0.999976196 0 0 0
1.77063 1.303117 3.031885 -0.0720003326 -0.997404608 0 0 0
1.757935 1.314326 3.037943 -0.8148314 -0.537020694 0.218308413 0 0
1.755418 1.319362 3.038617 -0.897779311 -0.368991497 0.240494458 0 0
1.76124 1.309958 3.037057 -0.701525459 -0.687424947 0.187906819 0 0
1.760547 1.309958 3.031885 -0.726191761 -0.6874922 0 0 0
1.757123 1.314326 3.031885 -0.843467911 -0.537179563 0 0 0
1.754516 1.319362 3.031885 -0.929391092 -0.369096462 0 0 0
1.753875 1.32483 3.03903 -0.952288054 -0.1673979 0.255196799 0 0
1.753564 1.330589 3.039102 -0.963256501 0.073904335 0.258215146 0 0
1.752918 1.32483 3.031885 -0.985836999 -0.167706294 0.000100003753 0 0
1.752596 1.330589 3.031873 -0.997339027 0.0729028527 0.000200007826 0 0
1.753875 1.32483 3.02474 -0.952247495 -0.167908375 -0.255012719 0 0
1.753564 1.330589 3.024645 -0.9634611 0.07190456 -0.258016363 0 0
1.755418 1.319362 3.025153 -0.89775991 -0.369024626 -0.24051605 0 0
1.758003 1.319362 3.018872 -0.804881927 -0.369091712 -0.464689566 0 0
1.756619 1.32483 3.018074 -0.853722722 -0.168204477 -0.492813116 0 0
1.75634 1.330589 3.0179 -0.863920743 0.0709017024 -0.498611972 0 0
1.757935 1.314326 3.025828 -0.81478764 -0.537091852 -0.218296688 0 0
1.76124 1.309958 3.026714 -0.701525459 -0.687424947 -0.187906819 0 0
1.763226 1.309958 3.021888 -0.62889589 -0.687495507 -0.363097627 0 0
1.760261 1.314326 3.020176 -0.730483572 -0.537187919 -0.421690516 0 0
1.773469 1.303064 3.02999 -0.0110003882 -0.999935288 -0.00290010235 0 0
1.770744 1.303117 3.02926 -0.0740045499 -0.997061301 -0.0198012174 0 0
1.775017 1.303063 3.028696 -0.00599985526 -0.999975876 -0.00349991557 0 0
1.771958 1.303117 3.026929 -0.0623004968 -0.997407954 -0.0360002871 0 0
1.775364 1.303064 3.026708 -0.00800028798 -0.999935993 -0.00800028798 0 0
1.77337 1.303117 3.024714 -0.0542031363 -0.997057691 -0.0542031363 0 0
1.777352 1.303063 3.026361 -0.00339991915 -0.999976221 -0.00599985733 0 0
1.775585 1.303117 3.023302 -0.0360002871 -0.997407954 -0.0623004968 0 0
1.763992 1.314326 3.015336 -0.596501939 -0.537001745 -0.596501939 0 0
1.762149 1.319362 3.013494 -0.657205034 -0.369002827 -0.657205034 0 0
1.766412 1.309958 3.017756 -0.513529976 -0.687440127 -0.513529976 0 0
1.770544 1.309958 3.01457 -0.363097627 -0.687495507 -0.62889589 0 0
1.768832 1.314326 3.011605 -0.421690516 -0.537187919 -0.730483572 0 0
1.767529 1.319362 3.009346 -0.464689566 -0.369091712 -0.804881927 0 0
1.76102 1.32483 3.012364 -0.697008169 -0.168401974 -0.697008169 0 0
1.760792 1.330589 3.012125 -0.705417191 0.0701017084 -0.705317189 0 0
1.76673 1.32483 3.007963 -0.492897701 -0.168599213 -0.853596018 0 0
1.766568 1.330589 3.007672 -0.498886363 0.0694981003 -0.863876386 0 0
1.773396 1.32483 3.005219 -0.255100462 -0.168600305 -0.952101723 0 0
1.773809 1.319362 3.006762 -0.240494458 -0.368991497 -0.897779311 0 0
1.773313 1.330589 3.004896 -0.258204259 0.0691011398 -0.963615895 0 0
1.774484 1.314326 3.009279 -0.218296688 -0.537091852 -0.81478764 0 0
1.77537 1.309958 3.012584 -0.187906819 -0.687424947 -0.701525459 0 0
1.778646 1.303064 3.024813 -0.00290010552 -0.999936383 -0.0109003966 0 0
1.777916 1.303117 3.022089 -0.0198010708 -0.997053917 -0.0741040073 0 0
1.784666 1.306493 3.016491 0.158704207 -0.789920937 -0.5923157 0 0
1.780541 1.306493 3.015938 0 -0.790003314 -0.613102572 0 0
1.780541 1.304182 3.019282 0 -0.822530459 -0.56872106 0 0
1.783801 1.304182 3.019719 0.147300788 -0.8224044 -0.54950294 0 0
1.786843 1.304182 3.02097 0.284315781 -0.822545657 -0.492527338 0 0
1.788515 1.306493 3.018075 0.306515777 -0.790040664 -0.530927328 0 0
1.783461 1.303273 3.020988 0.0965008362 -0.92790804 -0.36010312 0 0
1.780541 1.303273 3.020596 0 -0.927508028 -0.373803235 0 0
1.786186 1.303273 3.022109 0.186806335 -0.927531453 -0.323710977 0 0
1.791811 1.306493 3.020616 0.433608687 -0.789915826 -0.433608687 0 0
1.789448 1.304182 3.022979 0.402293495 -0.822386702 -0.402293495 0 0
1.791456 1.304182 3.025584 0.492527338 -0.822545657 -0.284315781 0 0
1.794352 1.306493 3.023912 0.530927328 -0.790040664 -0.306515777 0 0
1.788519 1.303273 3.023907 0.263604174 -0.927914694 -0.263604174 0 0
1.790318 1.303273 3.026241 0.323704928 -0.927514122 -0.186902846 0 0
1.795936 1.306493 3.02776 0.5923157 -0.789920937 -0.158704207 0 0
1.792708 1.304182 3.028625 0.54950294 -0.8224044 -0.147300788 0 0
1.793145 1.304182 3.031885 0.568674282 -0.8225628 0 0 0
1.796488 1.306493 3.031885 0.613040155 -0.79005175 0 0 0
1.791439 1.303273 3.028965 0.360016082 -0.927941452 -0.0965043109 0 0
1.79183 1.303273 3.031885 0.373717203 -0.927542696 0 0 0
1.795936 1.306493 3.03601 0.5923157 -0.789920937 0.158704207 0 0
1.792708 1.304182 3.035145 0.54950294 -0.8224044 0.147300788 0 0
1.791456 1.304182 3.038187 0.492527338 -0.822545657 0.284315781 0 0
1.794352 1.306493 3.039859 0.530927328 -0.790040664 0.306515777 0 0
1.791439 1.303273 3.034805 0.36010312 -0.92790804 0.0965008362 0 0
1.790318 1.303273 3.03753 0.323704928 -0.927514122 0.186902846 0 0
1.791811 1.306493 3.043155 0.433608687 -0.789915826 0.433608687 0 0
1.789448 1.304182 3.040792 0.402293495 -0.822386702 0.402293495 0 0
1.786843 1.304182 3.0428 0.284292395 -0.822577996 0.492486826 0 0
1.788515 1.306493 3.045696 0.306515777 -0.790040664 0.530927328 0 0
1.788519 1.303273 3.039863 0.263611122 -0.927939151 0.263511118 0 0
1.786186 1.303273 3.041662 0.186902846 -0.927514122 0.323704928 0 0
1.784666 1.306493 3.04728 0.158704207 -0.789920937 0.5923157 0 0
1.783801 1.304182 3.044052 0.147202955 -0.82241651 0.549511032 0 0
1.780541 1.304182 3.044489 0 -0.822530459 0.56872106 0 0
1.780541 1.306493 3.047832 0 -0.790003314 0.613102572 0 0
1.783461 1.303273 3.042783 0.0964017651 -0.92791699 0.360106594 0 0
1.780541 1.303273 3.043174 0 -0.927508028 0.373803235 0 0
1.776416 1.306493 3.04728 -0.158704207 -0.789920937 0.5923157 0 0
1.777281 1.304182 3.044052 -0.147202955 -0.82241651 0.549511032 0 0
1.774239 1.304182 3.0428 -0.284292395 -0.822577996 0.492486826 0 0
1.772568 1.306493 3.045696 -0.306515777 -0.790040664 0.530927328 0 0
1.777621 1.303273 3.042783 -0.0964017651 -0.92791699 0.360106594 0 0
1.774897 1.303273 3.041662 -0.186902846 -0.927514122 0.323704928 0 0
1.769272 1.306493 3.043155 -0.433608687 -0.789915826 0.433608687 0 0
1.771635 1.304182 3.040792 -0.402293495 -0.822386702 0.402293495 0 0
1.769626 1.304182 3.038187 -0.492527338 -0.822545657 0.284315781 0 0
1.766731 1.306493 3.039859 -0.530927328 -0.790040664 0.306515777 0 0
1.772563 1.303273 3.039863 -0.263604174 -0.927914694 0.263604174 0 0
1.770765 1.303273 3.03753 -0.323704928 -0.927514122 0.186902846 0 0
1.765147 1.306493 3.03601 -0.5923157 -0.789920937 0.158704207 0 0
1.768375 1.304182 3.035145 -0.549511032 -0.82241651 0.147202955 0 0
1.767938 1.304182 3.031885 -0.568674282 -0.8225628 0 0 0
1.764594 1.306493 3.031885 -0.613040155 -0.79005175 0 0 0
1.769643 1.303273 3.034805 -0.36010312 -0.92790804 0.0965008362 0 0
1.769252 1.303273 3.031885 -0.373717203 -0.927542696 0 0 0
1.765147 1.306493 3.02776 -0.5923157 -0.789920937 -0.158704207 0 0
1.768375 1.304182 3.028625 -0.54950294 -0.8224044 -0.147300788 0 0
1.769626 1.304182 3.025584 -0.492527338 -0.822545657 -0.284315781 0 0
1.766731 1.306493 3.023912 -0.530927328 -0.790040664 -0.306515777 0 0
1.769643 1.303273 3.028965 -0.36010312 -0.92790804 -0.0965008362 0 0
1.770765 1.303273 3.026241 -0.323704928 -0.927514122 -0.186902846 0 0
1.769272 1.306493 3.020616 -0.433608687 -0.789915826 -0.433608687 0 0
1.771635 1.304182 3.022979 -0.402293495 -0.822386702 -0.402293495 0 0
1.774239 1.304182 3.02097 -0.284292395 -0.822577996 -0.492486826 0 0
1.772568 1.306493 3.018075 -0.306515777 -0.790040664 -0.530927328 0 0
1.772563 1.303273 3.023907 -0.263604174 -0.927914694 -0.263604174 0 0
1.774897 1.303273 3.022109 -0.186806335 -0.927531453 -0.323710977 0 0
1.776416 1.306493 3.016491 -0.158704207 -0.789920937 -0.5923157 0 0
1.777281 1.304182 3.019719 -0.147300788 -0.8224044 -0.54950294 0 0
1.777621 1.303273 3.020988 -0.0965008362 -0.92790804 -0.36010312 0 0
1.75474 1.336496 3.03875 -0.931784355 0.263495576 0.249695808 0 0
1.757395 1.336496 3.045201 -0.835031974 0.265110151 0.482118461 0 0
1.753814 1.336496 3.031837 -0.965070078 0.261991877 0 0 0
1.75474 1.336496 3.024924 -0.932623848 0.260306656 -0.24990639 0 0
1.757395 1.336496 3.018473 -0.836519295 0.258905972 -0.482911138 0 0
1.761654 1.336496 3.012949 -0.683311145 0.2575042 -0.683211143 0 0
1.767178 1.336496 3.008691 -0.483302066 0.256601097 -0.837003578 0 0
1.773628 1.336496 3.006036 -0.250221349 0.255821826 -0.933779669 0 0
1.780541 1.336496 3.00511 0 0.255713888 -0.966752506 0 0
1.787454 1.336496 3.006036 0.250197983 0.255797938 -0.933792474 0 0
1.793905 1.336496 3.008691 0.483314466 0.256507677 -0.837025053 0 0
1.799429 1.336496 3.012949 0.683311145 0.2575042 -0.683211143 0 0
1.803688 1.336496 3.018473 0.836519295 0.258905972 -0.482911138 0 0
1.806342 1.336496 3.024924 0.932623848 0.260306656 -0.24990639 0 0
1.807268 1.336496 3.031837 0.965070078 0.261991877 0 0 0
1.806342 1.336496 3.03875 0.931784355 0.263495576 0.249695808 0 0
1.803688 1.336496 3.045201 0.835031974 0.265110151 0.482118461 0 0
1.799429 1.336496 3.050725 0.681568095 0.266326609 0.681568095 0 0
1.793905 1.336496 3.054983 0.481794158 0.267396758 0.834489882 0 0
1.787454 1.336496 3.057638 0.249307821 0.267908404 0.930629194 0 0
1.780541 1.336496 3.058564 0 0.268309152 0.96333286 0 0
1.773628 1.336496 3.057638 -0.249301141 0.268001226 0.930604258 0 0
1.767178 1.336496 3.054983 -0.481794158 0.267396758 0.834489882 0 0
1.761654 1.336496 3.050725 -0.681521639 0.266308455 0.681621642 0 0
3 0 1 2
3 0 3 1
3 0 4 3
3 0 5 4
3 0 6 5
3 0 7 6
3 0 8 7
3 0 2 8
3 9 4 5
3 9 10 4
3 9 11 10
3 9 12 11
3 9 13 12
3 9 14 13
3 9 6 14
3 9 5 6
3 15 11 12
3 15 16 11
3 15 17 16
3 15 18 17
3 15 19 18
3 15 20 19
3 15 13 20
3 15 12 13
3 21 17 18
3 21 22 17
3 21 23 22
3 21 24 23
3 21 25 24
3 21 26 25
3 21 19 26
3 21 18 19
3 27 23 24
3 27 28 23
3 27 29 28
3 27 30 29
3 27 31 30
3 27 32 31
3 27 25 32
3 27 24 25
3 33 29 30
3 33 34 29
3 33 35 34
3 33 36 35
3 33 37 36
3 33 38 37
3 33 31 38
3 33 30 31
3 39 35 36
3 39 40 35
3 39 41 40
3 39 42 41
3 39 43 42
3 39 44 43
3 39 37 44
3 39 36 37
3 45 41 42
3 45 46 41
3 45 47 46
3 45 48 47
3 45 49 48
3 45 50 49
3 45 43 50
3 45 42 43
3 51 47 48
3 51 52 47
3 51 53 52
3 51 54 53
3 51 55 54
3 51 56 55
3 51 49 56
3 51 48 49
3 57 53 54
3 57 58 53
3 57 59 58
3 57 60 59
3 57 61 60
3 57 62 61
3 57 55 62
3 57 54 55
3 63 59 60
3 63 64 59
3 63 65 64
3 63 66 65
3 63 67 66
3 63 68 67
3 63 61 68
3 63 60 61
3 69 65 66
3 69 70 65
3 69 1 70
3 69 2 1
3 69 8 2
3 69 71 8
3 69 67 71
3 69 66 67
3 72 67 73
3 72 71 67
3 72 8 71
3 72 74 8
3 72 75 74
3 72 76 75
3 72 77 76
3 72 73 77
3 78 61 79
3 78 68 61
3 78 67 68
3 78 73 67
3 78 77 73
3 78 80 77
3 78 81 80
3 78 79 81
3 82 55 83
3 82 62 55
3 82 61 62
3 82 79 61
3 82 81 79
3 82 84 81
3 82 85 84
3 82 83 85
3 86 49 87
3 86 56 49
3 86 55 56
3 86 83 55
3 86 85 83
3 86 88 85
3 86 89 88
3 86 87 89
3 90 43 91
3 90 50 43
3 90 49 50
3 90 87 49
3 90 89 87
3 90 92 89
3 90 93 92
3 90 91 93
3 94 37 95
3 94 44 37
3 94 43 44
3 94 91 43
3 94 93 91
3 94 96 93
3 94 97 96
3 94 95 97
3 98 31 99
3 98 38 31
3 98 37 38
3 98 95 37
3 98 97 95
3 98 100 97
3 98 101 100
3 98 99 101
3 102 25 103
3 102 32 25
3 102 31 32
3 102 99 31
3 102 101 99
3 102 104 101
3 102 105 104
3 102 103 105
3 106 19 107
3 106 26 19
3 106 25 26
3 106 103 25
3 106 105 103
3 106 108 105
3 106 109 108
3 106 107 109
3 110 13 111
3 110 20 13
3 110 19 20
3 110 107 19
3 110 109 107
3 110 112 109
3 110 113 112
3 110 111 113
3 114 6 115
3 114 14 6
3 114 13 14
3 114 111 13
3 114 113 111
3 114 116 113
3 114 117 116
3 114 115 117
3 118 8 74
3 118 7 8
3 118 6 7
3 118 115 6
3 118 117 115
3 118 119 117
3 118 75 119
3 118 74 75
3 120 75 121
3 120 119 75
3 120 117 119
3 120 122 117
3 120 123 122
3 120 121 123
3 124 117 122
3 124 116 117
3 124 113 116
3 124 125 113
3 124 123 125
3 124 122 123
3 126 113 125
3 126 112 113
3 126 109 112
3 126 127 109
3 126 123 127
3 126 125 123
3 128 109 127
3 128 108 109
3 128 105 108
3 128 129 105
3 128 123 129
3 128 127 123
3 130 105 129
3 130 104 105
3 130 101 104
3 130 131 101
3 130 123 131
3 130 129 123
3 132 101 131
3 132 100 101
3 132 97 100
3 132 133 97
3 132 123 133
3 132 131 123
3 134 97 133
3 134 96 97
3 134 93 96
3 134 135 93
3 134 123 135
3 134 133 123
3 136 93 135
3 136 92 93
3 136 89 92
3 136 137 89
3 136 123 137
3 136 135 123
3 138 89 137
3 138 88 89
3 138 85 88
3 138 139 85
3 138 123 139
3 138 137 123
3 140 85 139
3 140 84 85
3 140 81 84
3 140 141 81
3 140 123 141
3 140 139 123
3 142 81 141
3 142 80 81
3 142 77 80
3 142 143 77
3 142 123 143
3 142 141 123
3 144 77 143
3 144 76 77
3 144 75 76
3 144 121 75
3 144 123 121
3 144 143 123
3 145 146 147
3 145 148 146
3 145 149 148
3 145 150 149
3 145 151 150
3 145 152 151
3 145 153 152
3 145 147 153
3 154 153 155
3 154 152 153
3 154 151 152
3 154 156 151
3 154 157 156
3 154 158 157
3 154 159 158
3 154 155 159
3 160 159 161
3 160 158 159
3 160 157 158
3 160 162 157
3 160 163 162
3 160 164 163
3 160 165 164
3 160 161 165
3 166 165 167
3 166 164 165
3 166 163 164
3 166 168 163
3 166 169 168
3 166 170 169
3 166 171 170
3 166 167 171
3 172 171 173
3 172 170 171
3 172 169 170
3 172 174 169
3 172 175 174
3 172 176 175
3 172 177 176
3 172 173 177
3 178 177 179
3 178 176 177
3 178 175 176
3 178 180 175
3 178 181 180
3 178 182 181
3 178 183 182
3 178 179 183
3 184 183 185
3 184 182 183
3 184 181 182
3 184 186 181
3 184 187 186
3 184 188 187
3 184 189 188
3 184 185 189
3 190 189 191
3 190 188 189
3 190 187 188
3 190 192 187
3 190 193 192
3 190 194 193
3 190 195 194
3 190 191 195
3 196 195 197
3 196 194 195
3 196 193 194
3 196 198 193
3 196 199 198
3 196 200 199
3 196 201 200
3 196 197 201
3 202 201 203
3 202 200 201
3 202 199 200
3 202 204 199
3 202 205 204
3 202 206 205
3 202 207 206
3 202 203 207
3 208 207 209
3 208 206 207
3 208 205 206
3 208 210 205
3 208 211 210
3 208 212 211
3 208 213 212
3 208 209 213
3 214 149 215
3 214 148 149
3 214 146 148
3 214 216 146
3 214 213 216
3 214 212 213
3 214 211 212
3 214 215 211
3 217 149 150
3 217 218 149
3 217 219 218
3 217 220 219
3 217 221 220
3 217 222 221
3 217 151 222
3 217 150 151
3 223 219 220
3 223 224 219
3 223 1 224
3 223 70 1
3 223 65 70
3 223 225 65
3 223 221 225
3 223 220 221
3 226 151 156
3 226 222 151
3 226 221 222
3 226 227 221
3 226 228 227
3 226 229 228
3 226 157 229
3 226 156 157
3 230 221 227
3 230 225 221
3 230 65 225
3 230 64 65
3 230 59 64
3 230 231 59
3 230 228 231
3 230 227 228
3 232 157 162
3 232 229 157
3 232 228 229
3 232 233 228
3 232 234 233
3 232 235 234
3 232 163 235
3 232 162 163
3 236 228 233
3 236 231 228
3 236 59 231
3 236 58 59
3 236 53 58
3 236 237 53
3 236 234 237
3 236 233 234
3 238 163 168
3 238 235 163
3 238 234 235
3 238 239 234
3 238 240 239
3 238 241 240
3 238 169 241
3 238 168 169
3 242 234 239
3 242 237 234
3 242 53 237
3 242 52 53
3 242 47 52
3 242 243 47
3 242 240 243
3 242 239 240
3 244 169 174
3 244 241 169
3 244 240 241
3 244 245 240
3 244 246 245
3 244 247 246
3 244 175 247
3 244 174 175
3 248 240 245
3 248 243 240
3 248 47 243
3 248 46 47
3 248 41 46
3 248 249 41
3 248 246 249
3 248 245 246
3 250 175 180
3 250 247 175
3 250 246 247
3 250 251 246
3 250 252 251
3 250 253 252
3 250 181 253
3 250 180 181
3 254 246 251
3 254 249 246
3 254 41 249
3 254 40 41
3 254 35 40
3 254 255 35
3 254 252 255
3 254 251 252
3 256 181 186
3 256 253 181
3 256 252 253
3 256 257 252
3 256 258 257
3 256 259 258
3 256 187 259
3 256 186 187
3 260 252 257
3 260 255 252
3 260 35 255
3 260 34 35
3 260 29 34
3 260 261 29
3 260 258 261
3 260 257 258
3 262 187 192
3 262 259 187
3 262 258 259
3 262 263 258
3 262 264 263
3 262 265 264
3 262 193 265
3 262 192 193
3 266 258 263
3 266 261 258
3 266 29 261
3 266 28 29
3 266 23 28
3 266 267 23
3 266 264 267
3 266 263 264
3 268 193 198
3 268 265 193
3 268 264 265
3 268 269 264
3 268 270 269
3 268 271 270
3 268 199 271
3 268 198 199
3 272 264 269
3 272 267 264
3 272 23 267
3 272 22 23
3 272 17 22
3 272 273 17
3 272 270 273
3 272 269 270
3 274 199 204
3 274 271 199
3 274 270 271
3 274 275 270
3 274 276 275
3 274 277 276
3 274 205 277
3 274 204 205
3 278 270 275
3 278 273 270
3 278 17 273
3 278 16 17
3 278 11 16
3 278 279 11
3 278 276 279
3 278 275 276
3 280 205 210
3 280 277 205
3 280 276 277
3 280 281 276
3 280 282 281
3 280 283 282
3 280 211 283
3 280 210 211
3 284 276 281
3 284 279 276
3 284 11 279
3 284 10 11
3 284 4 10
3 284 285 4
3 284 282 285
3 284 281 282
3 286 211 215
3 286 283 211
3 286 282 283
3 286 287 282
3 286 219 287
3 286 218 219
3 286 149 218
3 286 215 149
3 288 282 287
3 288 285 282
3 288 4 285
3 288 3 4
3 288 1 3
3 288 224 1
3 288 219 224
3 288 287 219
3 289 290 291
3 289 292 290
3 289 293 292
3 289 294 293
3 289 295 294
3 289 291 295
3 296 297 298
3 296 299 297
3 296 300 299
3 296 301 300
3 296 302 301
3 296 303 302
3 296 304 303
3 296 298 304
3 305 306 307
3 305 308 306
3 305 297 308
3 305 298 297
3 305 304 298
3 305 309 304
3 305 310 309
3 305 307 310
3 311 310 312
3 311 309 310
3 311 304 309
3 311 313 304
3 311 314 313
3 311 315 314
3 311 316 315
3 311 312 316
3 317 304 313
3 317 303 304
3 317 302 303
3 317 318 302
3 317 319 318
3 317 320 319
3 317 314 320
3 317 313 314
3 321 295 322
3 321 294 295
3 321 293 294
3 321 323 293
3 321 324 323
3 321 322 324
3 325 324 326
3 325 323 324
3 325 293 323
3 325 327 293
3 325 328 327
3 325 326 328
3 329 314 330
3 329 320 314
3 329 319 320
3 329 331 319
3 329 332 331
3 329 333 332
3 329 334 333
3 329 330 334
3 335 316 336
3 335 315 316
3 335 314 315
3 335 330 314
3 335 334 330
3 335 337 334
3 335 338 337
3 335 336 338
3 339 338 340
3 339 337 338
3 339 334 337
3 339 341 334
3 339 342 341
3 339 343 342
3 339 344 343
3 339 340 344
3 345 334 341
3 345 333 334
3 345 332 333
3 345 346 332
3 345 347 346
3 345 348 347
3 345 342 348
3 345 341 342
3 349 328 350
3 349 327 328
3 349 293 327
3 349 351 293
3 349 352 351
3 349 350 352
3 353 352 354
3 353 351 352
3 353 293 351
3 353 355 293
3 353 356 355
3 353 354 356
3 357 342 358
3 357 348 342
3 357 347 348
3 357 359 347
3 357 360 359
3 357 361 360
3 357 362 361
3 357 358 362
3 363 344 364
3 363 343 344
3 363 342 343
3 363 358 342
3 363 362 358
3 363 365 362
3 363 366 365
3 363 364 366
3 367 366 368
3 367 365 366
3 367 362 365
3 367 369 362
3 367 370 369
3 367 371 370
3 367 372 371
3 367 368 372
3 373 362 369
3 373 361 362
3 373 360 361
3 373 374 360
3 373 375 374
3 373 376 375
3 373 370 376
3 373 369 370
3 377 356 378
3 377 355 356
3 377 293 355
3 377 379 293
3 377 380 379
3 377 378 380
3 381 380 382
3 381 379 380
3 381 293 379
3 381 383 293
3 381 384 383
3 381 382 384
3 385 370 386
3 385 376 370
3 385 375 376
3 385 387 375
3 385 388 387
3 385 389 388
3 385 390 389
3 385 386 390
3 391 372 392
3 391 371 372
3 391 370 371
3 391 386 370
3 391 390 386
3 391 393 390
3 391 394 393
3 391 392 394
3 395 394 396
3 395 393 394
3 395 390 393
3 395 397 390
3 395 398 397
3 395 399 398
3 395 400 399
3 395 396 400
3 401 390 397
3 401 389 390
3 401 388 389
3 401 402 388
3 401 403 402
3 401 404 403
3 401 398 404
3 401 397 398
3 405 384 406
3 405 383 384
3 405 293 383
3 405 407 293
3 405 408 407
3 405 406 408
3 409 408 410
3 409 407 408
3 409 293 407
3 409 411 293
3 409 412 411
3 409 410 412
3 413 398 414
3 413 404 398
3 413 403 404
3 413 415 403
3 413 416 415
3 413 417 416
3 413 418 417
3 413 414 418
3 419 400 420
3 419 399 400
3 419 398 399
3 419 414 398
3 419 418 414
3 419 421 418
3 419 422 421
3 419 420 422
3 423 422 424
3 423 421 422
3 423 418 421
3 423 425 418
3 423 426 425
3 423 427 426
3 423 428 427
3 423 424 428
3 429 418 425
3 429 417 418
3 429 416 417
3 429 430 416
3 429 431 430
3 429 432 431
3 429 426 432
3 429 425 426
3 433 412 434
3 433 411 412
3 433 293 411
3 433 435 293
3 433 436 435
3 433 434 436
3 437 436 438
3 437 435 436
3 437 293 435
3 437 439 293
3 437 440 439
3 437 438 440
3 441 426 442
3 441 432 426
3 441 431 432
3 441 443 431
3 441 444 443
3 441 445 444
3 441 446 445
3 441 442 446
3 447 428 448
3 447 427 428
3 447 426 427
3 447 442 426
3 447 446 442
3 447 449 446
3 447 450 449
3 447 448 450
3 451 297 452
3 451 308 297
3 451 306 308
3 451 453 306
3 451 450 453
3 451 449 450
3 451 446 449
3 451 452 446
3 454 446 452
3 454 445 446
3 454 444 445
3 454 455 444
3 454 300 455
3 454 299 300
3 454 297 299
3 454 452 297
3 456 440 457
3 456 439 440
3 456 293 439
3 456 292 293
3 456 290 292
3 456 457 290
3 458 300 301
3 458 459 300
3 458 460 459
3 458 461 460
3 458 462 461
3 458 463 462
3 458 302 463
3 458 301 302
3 464 460 461
3 464 465 460
3 464 290 465
3 464 291 290
3 464 295 291
3 464 466 295
3 464 462 466
3 464 461 462
3 467 302 318
3 467 463 302
3 467 462 463
3 467 468 462
3 467 469 468
3 467 470 469
3 467 319 470
3 467 318 319
3 471 462 468
3 471 466 462
3 471 295 466
3 471 322 295
3 471 324 322
3 471 472 324
3 471 469 472
3 471 468 469
3 473 319 331
3 473 470 319
3 473 469 470
3 473 474 469
3 473 475 474
3 473 476 475
3 473 332 476
3 473 331 332
3 477 469 474
3 477 472 469
3 477 324 472
3 477 326 324
3 477 328 326
3 477 478 328
3 477 475 478
3 477 474 475
3 479 332 346
3 479 476 332
3 479 475 476
3 479 480 475
3 479 481 480
3 479 482 481
3 479 347 482
3 479 346 347
3 483 475 480
3 483 478 475
3 483 328 478
3 483 350 328
3 483 352 350
3 483 484 352
3 483 481 484
3 483 480 481
3 485 347 359
3 485 482 347
3 485 481 482
3 485 486 481
3 485 487 486
3 485 488 487
3 485 360 488
3 485 359 360
3 489 481 486
3 489 484 481
3 489 352 484
3 489 354 352
3 489 356 354
3 489 490 356
3 489 487 490
3 489 486 487
3 491 360 374
3 491 488 360
3 491 487 488
3 491 492 487
3 491 493 492
3 491 494 493
3 491 375 494
3 491 374 375
3 495 487 492
3 495 490 487
3 495 356 490
3 495 378 356
3 495 380 378
3 495 496 380
3 495 493 496
3 495 492 493
3 497 375 387
3 497 494 375
3 497 493 494
3 497 498 493
3 497 499 498
3 497 500 499
3 497 388 500
3 497 387 388
3 501 493 498
3 501 496 493
3 501 380 496
3 501 382 380
3 501 384 382
3 501 502 384
3 501 499 502
3 501 498 499
3 503 388 402
3 503 500 388
3 503 499 500
3 503 504 499
3 503 505 504
3 503 506 505
3 503 403 506
3 503 402 403
3 507 499 504
3 507 502 499
3 507 384 502
3 507 406 384
3 507 408 406
3 507 508 408
3 507 505 508
3 507 504 505
3 509 403 415
3 509 506 403
3 509 505 506
3 509 510 505
3 509 511 510
3 509 512 511
3 509 416 512
3 509 415 416
3 513 505 510
3 513 508 505
3 513 408 508
3 513 410 408
3 513 412 410
3 513 514 412
3 513 511 514
3 513 510 511
3 515 416 430
3 515 512 416
3 515 511 512
3 515 516 511
3 515 517 516
3 515 518 517
3 515 431 518
3 515 430 431
3 519 511 516
3 519 514 511
3 519 412 514
3 519 434 412
3 519 436 434
3 519 520 436
3 519 517 520
3 519 516 517
3 521 431 443
3 521 518 431
3 521 517 518
3 521 522 517
3 521 523 522
3 521 524 523
3 521 444 524
3 521 443 444
3 525 517 522
3 525 520 517
3 525 436 520
3 525 438 436
3 525 440 438
3 525 526 440
3 525 523 526
3 525 522 523
3 527 444 455
3 527 524 444
3 527 523 524
3 527 528 523
3 527 460 528
3 527 459 460
3 527 300 459
3 527 455 300
3 529 523 528
3 529 526 523
3 529 440 526
3 529 457 440
3 529 290 457
3 529 465 290
3 529 460 465
3 529 528 460
3 530 177 173
3 530 531 177
3 530 400 531
3 530 420 400
3 530 422 420
3 530 532 422
3 530 171 532
3 530 173 171
3 533 171 167
3 533 532 171
3 533 422 532
3 533 424 422
3 533 428 424
3 533 534 428
3 533 165 534
3 533 167 165
3 535 165 161
3 535 534 165
3 535 428 534
3 535 448 428
3 535 450 448
3 535 536 450
3 535 159 536
3 535 161 159
3 537 159 155
3 537 536 159
3 537 450 536
3 537 453 450
3 537 306 453
3 537 538 306
3 537 153 538
3 537 155 153
3 539 146 540
3 539 147 146
3 539 153 147
3 539 538 153
3 539 306 538
3 539 307 306
3 539 310 307
3 539 540 310
3 541 146 216
3 541 540 146
3 541 310 540
3 541 312 310
3 541 316 312
3 541 542 316
3 541 213 542
3 541 216 213
3 543 213 209
3 543 542 213
3 543 316 542
3 543 336 316
3 543 338 336
3 543 544 338
3 543 207 544
3 543 209 207
3 545 207 203
3 545 544 207
3 545 338 544
3 545 340 338
3 545 344 340
3 545 546 344
3 545 201 546
3 545 203 201
3 547 201 197
3 547 546 201
3 547 344 546
3 547 364 344
3 547 366 364
3 547 548 366
3 547 195 548
3 547 197 195
3 549 195 191
3 549 548 195
3 549 366 548
3 549 368 366
3 549 372 368
3 549 550 372
3 549 189 550
3 549 191 189
3 551 189 185
3 551 550 189
3 551 372 550
3 551 392 372
3 551 394 392
3 551 552 394
3 551 183 552
3 551 185 183
3 553 183 179
3 553 552 183
3 553 394 552
3 553 396 394
3 553 400 396
3 553 531 400
3 553 177 531
3 553 179 177
