ply
format ascii 1.0
element vertex 602
property float x
property float y
property float z
property float nx
property float ny
property float nz
property float u
property float v
element face 1200
property list uchar int vertex_indices
end_header
1.795149 1.353639 3.117922 -0.707075543 0.00939967487 0.707075543 0 0
1.7909 1.360562 3.114588 -0.499718482 0.0337012465 0.865532012 0 0
1.790877 1.353639 3.114628 -0.49998891 0.00939979151 0.865980793 0 0
1.795182 1.360562 3.117889 -0.706707512 0.0336003572 0.706707512 0 0
1.798484 1.360562 3.122171 -0.865532012 0.0337012465 0.499718482 0 0
1.798443 1.353639 3.122194 -0.865980793 0.00939979151 0.49998891 0 0
1.798369 1.346562 3.122237 -0.864841353 0.0522024961 0.499323876 0 0
1.795089 1.346562 3.117982 -0.706142631 0.0522031516 0.706142631 0 0
1.790834 1.346562 3.114702 -0.499323876 0.0522024961 0.864841353 0 0
1.800497 1.353639 3.127183 -0.965886183 0.00939986554 0.258796298 0 0
1.800542 1.360562 3.127171 -0.965399961 0.0335999987 0.25859999 0 0
1.80126 1.360562 3.13253 -0.999431957 0.0337010776 0 0 0
1.801213 1.353639 3.13253 -0.999955814 0.0094005247 0 0 0
1.801127 1.346562 3.13253 -0.998636551 0.0522019106 0 0 0
1.800414 1.346562 3.127205 -0.964624811 0.0522013426 0.258406646 0 0
1.800496 1.353639 3.137877 -0.965886183 0.00939986554 -0.258796298 0 0
1.800542 1.360562 3.137889 -0.965399961 0.0335999987 -0.25859999 0 0
1.798484 1.360562 3.142889 -0.865532012 0.0337012465 -0.499718482 0 0
1.798443 1.353639 3.142866 -0.865980793 0.00939979151 -0.49998891 0 0
1.798369 1.346562 3.142823 -0.864841353 0.0522024961 -0.499323876 0 0
1.800414 1.346562 3.137855 -0.964624811 0.0522013426 -0.258406646 0 0
1.795149 1.353639 3.147139 -0.707075543 0.00939967487 -0.707075543 0 0
1.795182 1.360562 3.147171 -0.706707512 0.0336003572 -0.706707512 0 0
1.7909 1.360562 3.150473 -0.499718482 0.0337012465 -0.865532012 0 0
1.790877 1.353639 3.150432 -0.49998891 0.00939979151 -0.865980793 0 0
1.790834 1.346562 3.150358 -0.499323876 0.0522024961 -0.864841353 0 0
1.795089 1.346562 3.147078 -0.706142631 0.0522031516 -0.706142631 0 0
1.785888 1.353639 3.152486 -0.258796298 0.00939986554 -0.965886183 0 0
1.7859 1.360562 3.15253 -0.25859999 0.0335999987 -0.965399961 0 0
1.780541 1.360562 3.153249 0 0.0337010776 -0.999431957 0 0
1.780541 1.353639 3.153202 0 0.0094005247 -0.999955814 0 0
1.780541 1.346562 3.153116 0 0.0522019106 -0.998636551 0 0
1.785866 1.346562 3.152403 -0.258499968 0.0521999935 -0.964599879 0 0
1.775194 1.353639 3.152486 0.258796298 0.00939986554 -0.965886183 0 0
1.775182 1.360562 3.15253 0.25859999 0.0335999987 -0.965399961 0 0
1.770182 1.360562 3.150473 0.499718482 0.0337012465 -0.865532012 0 0
1.770205 1.353639 3.150432 0.49998891 0.00939979151 -0.865980793 0 0
1.770248 1.346562 3.150358 0.499323876 0.0522024961 -0.864841353 0 0
1.775216 1.346562 3.152403 0.258499968 0.0521999935 -0.964599879 0 0
1.765933 1.353639 3.147139 0.707075543 0.00939967487 -0.707075543 0 0
1.7659 1.360562 3.147171 0.706707512 0.0336003572 -0.706707512 0 0
1.762599 1.360562 3.142889 0.865532012 0.0337012465 -0.499718482 0 0
1.762639 1.353639 3.142866 0.865980793 0.00939979151 -0.49998891 0 0
1.762713 1.346562 3.142823 0.864841353 0.0522024961 -0.499323876 0 0
1.765993 1.346562 3.147078 0.706142631 0.0522031516 -0.706142631 0 0
1.760586 1.353639 3.137877 0.965886183 0.00939986554 -0.258796298 0 0
1.760541 1.360562 3.137889 0.965396713 0.0336998853 -0.258599119 0 0
1.759823 1.360562 3.13253 0.999431957 0.0337010776 0 0 0
1.759869 1.353639 3.13253 0.999955814 0.0094005247 0 0 0
1.759955 1.346562 3.13253 0.998636551 0.0522019106 0 0 0
1.760669 1.346562 3.137855 0.964624811 0.0522013426 -0.258406646 0 0
1.760586 1.353639 3.127183 0.965886183 0.00939986554 0.258796298 0 0
1.760541 1.360562 3.127171 0.965399961 0.0335999987 0.25859999 0 0
1.762599 1.360562 3.122171 0.865532012 0.0337012465 0.499718482 0 0
1.762639 1.353639 3.122194 0.865980793 0.00939979151 0.49998891 0 0
1.762713 1.346562 3.122237 0.864841353 0.0522024961 0.499323876 0 0
1.760669 1.346562 3.127205 0.964624811 0.0522013426 0.258406646 0 0
1.765933 1.353639 3.117922 0.707075543 0.00939967487 0.707075543 0 0
1.7659 1.360562 3.117889 0.706707512 0.0336003572 0.706707512 0 0
1.770182 1.360562 3.114588 0.499718482 0.0337012465 0.865532012 0 0
1.770205 1.353639 3.114628 0.49998891 0.00939979151 0.865980793 0 0
1.770248 1.346562 3.114702 0.499323876 0.0522024961 0.864841353 0 0
1.765993 1.346562 3.117982 0.706142631 0.0522031516 0.706142631 0 0
1.775194 1.353639 3.112575 0.258796298 0.00939986554 0.965886183 0 0
1.775182 1.360562 3.11253 0.258693299 0.0335991296 0.965374992 0 0
1.780541 1.360562 3.111812 0 0.0337010776 0.999431957 0 0
1.780541 1.353639 3.111858 0 0.0094005247 0.999955814 0 0
1.780541 1.346562 3.111944 0 0.0522019106 0.998636551 0 0
1.775216 1.346562 3.112658 0.258499968 0.0521999935 0.964599879 0 0
1.785888 1.353639 3.112575 -0.258796298 0.00939986554 0.965886183 0 0
1.7859 1.360562 3.11253 -0.258693299 0.0335991296 0.965374992 0 0
1.785866 1.346562 3.112658 -0.258499968 0.0521999935 0.964599879 0 0
1.7858 1.343792 3.112906 -0.198707096 0.640822884 0.74152648 0 0
1.780541 1.343792 3.112201 0 0.639219931 0.769023979 0 0
1.790705 1.343792 3.114925 -0.384505212 0.639208665 0.666009028 0 0
1.789529 1.343331 3.116963 -0.0614015756 0.992425466 0.10640273 0 0
1.785302 1.343331 3.114762 -0.0338995691 0.9913874 0.126498392 0 0
1.780541 1.343331 3.114555 0 0.992418772 0.122902325 0 0
1.775283 1.343792 3.112906 0.198707096 0.640822884 0.74152648 0 0
1.770377 1.343792 3.114925 0.384505212 0.639208665 0.666009028 0 0
1.77578 1.343331 3.114762 0.0338995691 0.9913874 0.126498392 0 0
1.771554 1.343331 3.116963 0.0614015756 0.992425466 0.10640273 0 0
1.766175 1.343792 3.118164 0.542830312 0.640835785 0.542830312 0 0
1.762936 1.343792 3.122366 0.666009028 0.639208665 0.384505212 0 0
1.767534 1.343331 3.119523 0.0925989129 0.991388361 0.0925989129 0 0
1.764974 1.343331 3.123543 0.10640273 0.992425466 0.0614015756 0 0
1.760917 1.343792 3.127272 0.74152648 0.640822884 0.198707096 0 0
1.760213 1.343792 3.13253 0.769073138 0.639160784 0 0 0
1.762773 1.343331 3.127769 0.126498392 0.9913874 0.0338995691 0 0
1.762566 1.343331 3.13253 0.122902325 0.992418772 0 0 0
1.760917 1.343792 3.137789 0.74152648 0.640822884 -0.198707096 0 0
1.762936 1.343792 3.142694 0.666009028 0.639208665 -0.384505212 0 0
1.762773 1.343331 3.137291 0.126498392 0.9913874 -0.0338995691 0 0
1.764974 1.343331 3.141518 0.10640273 0.992425466 -0.0614015756 0 0
1.766175 1.343792 3.146896 0.542830312 0.640835785 -0.542830312 0 0
1.770377 1.343792 3.150135 0.384529791 0.639149517 -0.666051601 0 0
1.767534 1.343331 3.145537 0.0925989129 0.991388361 -0.0925989129 0 0
1.771554 1.343331 3.148097 0.0614015756 0.992425466 -0.10640273 0 0
1.775283 1.343792 3.152154 0.198707096 0.640822884 -0.74152648 0 0
1.780541 1.343792 3.152859 0 0.639219931 -0.769023979 0 0
1.77578 1.343331 3.150298 0.0338995691 0.9913874 -0.126498392 0 0
1.780541 1.343331 3.150505 0 0.992418772 -0.122902325 0 0
1.7858 1.343792 3.152154 -0.198707096 0.640822884 -0.74152648 0 0
1.790705 1.343792 3.150135 -0.384505212 0.639208665 -0.666009028 0 0
1.785302 1.343331 3.150298 -0.0338995691 0.9913874 -0.126498392 0 0
1.789529 1.343331 3.148097 -0.0614015756 0.992425466 -0.10640273 0 0
1.794907 1.343792 3.146896 -0.542830312 0.640835785 -0.542830312 0 0
1.798146 1.343792 3.142694 -0.666009028 0.639208665 -0.384505212 0 0
1.793548 1.343331 3.145537 -0.0925989129 0.991388361 -0.0925989129 0 0
1.796108 1.343331 3.141518 -0.10640273 0.992425466 -0.0614015756 0 0
1.800165 1.343792 3.137789 -0.74152648 0.640822884 -0.198707096 0 0
1.80087 1.343792 3.13253 -0.769073138 0.639160784 0 0 0
1.798309 1.343331 3.137291 -0.126498392 0.9913874 -0.0338995691 0 0
1.798516 1.343331 3.13253 -0.122902325 0.992418772 0 0 0
1.800165 1.343792 3.127272 -0.74152648 0.640822884 0.198707096 0 0
1.798146 1.343792 3.122366 -0.666009028 0.639208665 0.384505212 0 0
1.798309 1.343331 3.127769 -0.126498392 0.9913874 0.0338995691 0 0
1.796108 1.343331 3.123543 -0.10640273 0.992425466 0.0614015756 0 0
1.794907 1.343792 3.118164 -0.542830312 0.640835785 0.542830312 0 0
1.793548 1.343331 3.119523 -0.0925989129 0.991388361 0.0925989129 0 0
1.789957 1.343177 3.123115 -0.0127004914 0.999838685 0.0127004914 0 0
1.786341 1.343177 3.122484 -0.00540022773 0.999942168 0.00930039221 0 0
1.790588 1.343177 3.12673 -0.00930039718 0.999942703 0.00530022635 0 0
1.780541 1.343177 3.13253 0 1 0 0 0
1.793403 1.343177 3.129084 -0.0173006878 0.999839749 0.00460018288 0 0
1.792142 1.343177 3.13253 -0.0107004575 0.999942748 0 0 0
1.793403 1.343177 3.135977 -0.0173006878 0.999839749 -0.00460018288 0 0
1.790588 1.343177 3.13833 -0.00930039718 0.999942703 -0.00530022635 0 0
1.789957 1.343177 3.141946 -0.0127004914 0.999838685 -0.0127004914 0 0
1.786341 1.343177 3.142576 -0.00540022773 0.999942168 -0.00930039221 0 0
1.783988 1.343177 3.145392 -0.00460018288 0.999839749 -0.0173006878 0 0
1.780541 1.343177 3.144131 0 0.999942748 -0.0107004575 0 0
1.777095 1.343177 3.145392 0.00460018288 0.999839749 -0.0173006878 0 0
1.774741 1.343177 3.142576 0.00540022773 0.999942168 -0.00930039221 0 0
1.771126 1.343177 3.141946 0.0127004914 0.999838685 -0.0127004914 0 0
1.770495 1.343177 3.13833 0.00930039718 0.999942703 -0.00530022635 0 0
1.767679 1.343177 3.135977 0.0173006878 0.999839749 -0.00460018288 0 0
1.768941 1.343177 3.13253 0.0107004575 0.999942748 0 0 0
1.767679 1.343177 3.129084 0.0173006878 0.999839749 0.00460018288 0 0
1.770495 1.343177 3.12673 0.00930039718 0.999942703 0.00530022635 0 0
1.771126 1.343177 3.123115 0.0127004914 0.999838685 0.0127004914 0 0
1.774741 1.343177 3.122484 0.00540022773 0.999942168 0.00930039221 0 0
1.777095 1.343177 3.119668 0.00460018288 0.999839749 0.0173006878 0 0
1.780541 1.343177 3.12093 0 0.999942748 0.0107004575 0 0
1.783988 1.343177 3.119668 -0.00460018288 0.999839749 0.0173006878 0 0
1.786896 1.36287 3.108813 0.125996199 0.873473648 -0.470285812 0 0
1.793378 1.361326 3.110301 0.414614516 0.558919568 -0.718125142 0 0
1.787182 1.361326 3.107751 0.214706465 0.558516817 -0.801224125 0 0
1.792825 1.36287 3.111253 0.243717551 0.873062872 -0.422330413 0 0
1.792552 1.36287 3.111726 0 1 0 0 0
1.786755 1.36287 3.10934 0 1 0 0 0
1.780541 1.36287 3.108508 0 0.999999995 -9.99999995e-05 0 0
1.780541 1.36287 3.107961 0 0.872966025 -0.487781016 0 0
1.780541 1.361326 3.106861 0 0.558732357 -0.829348029 0 0
1.774186 1.36287 3.108813 -0.125897787 0.873484649 -0.470291735 0 0
1.773901 1.361326 3.107751 -0.214694473 0.558585619 -0.801179374 0 0
1.774328 1.36287 3.10934 0 1 0 0 0
1.76853 1.36287 3.111726 0 1 0 0 0
1.768257 1.36287 3.111253 -0.243696273 0.873086646 -0.422293541 0 0
1.767705 1.361326 3.110301 -0.414614516 0.558919568 -0.718125142 0 0
1.763179 1.36287 3.115168 -0.344014144 0.87363592 -0.344114149 0 0
1.762398 1.361326 3.114392 -0.586306924 0.559006602 -0.586306924 0 0
1.763565 1.36287 3.115554 0 1 0 0 0
1.759737 1.36287 3.120519 0 1 0 0 0
1.759264 1.36287 3.120246 -0.4218911 0.873281578 -0.243694859 0 0
1.758308 1.361326 3.119698 -0.717749921 0.559538917 -0.414428825 0 0
1.756824 1.36287 3.126175 -0.469623151 0.873843077 -0.125906207 0 0
1.755758 1.361326 3.125894 -0.800434219 0.559723929 -0.21450917 0 0
1.757351 1.36287 3.126317 0 1 0 0 0
1.756519 1.36287 3.13253 0 1 0 0 0
1.755973 1.36287 3.13253 -0.48680572 0.873510264 -0.000100001175 0 0
1.754868 1.361326 3.132535 -0.828292968 0.560295243 0 0 0
1.756824 1.36287 3.138885 -0.46920591 0.874111009 0.125601582 0 0
1.755758 1.361326 3.139175 -0.799930098 0.56052109 0.214308063 0 0
1.757351 1.36287 3.138744 0 1 0 0 0
1.759737 1.36287 3.144541 0 1 0 0 0
1.759264 1.36287 3.144814 -0.42131201 0.873724906 0.24310693 0 0
1.758308 1.361326 3.145371 -0.71684807 0.561137628 0.41382775 0 0
1.763179 1.36287 3.149892 -0.343204638 0.874311817 0.343204638 0 0
1.762398 1.361326 3.150677 -0.585239938 0.5612383 0.585239938 0 0
1.763565 1.36287 3.149506 0 1 0 0 0
1.76853 1.36287 3.153334 0 1 0 0 0
1.768257 1.36287 3.153807 -0.243105393 0.873919388 0.420909338 0 0
1.767705 1.361326 3.154768 -0.41369445 0.561692465 0.716490388 0 0
1.774186 1.36287 3.156247 -0.125603977 0.874427685 0.468614837 0 0
1.773901 1.361326 3.157318 -0.214104923 0.561612914 0.799218378 0 0
1.774328 1.36287 3.15572 0 1 0 0 0
1.780541 1.36287 3.156552 0 0.999999995 9.99999995e-05 0 0
1.780541 1.36287 3.157099 0 0.873902438 0.486101356 0 0
1.780541 1.361326 3.158208 0 0.561902402 0.827203536 0 0
1.786896 1.36287 3.156247 0.125603977 0.874427685 0.468614837 0 0
1.787182 1.361326 3.157318 0.214104923 0.561612914 0.799218378 0 0
1.786755 1.36287 3.15572 0 1 0 0 0
1.792552 1.36287 3.153334 0 1 0 0 0
1.792825 1.36287 3.153807 0.243105393 0.873919388 0.420909338 0 0
1.793378 1.361326 3.154768 0.41369445 0.561692465 0.716490388 0 0
1.797903 1.36287 3.149892 0.343292856 0.874281806 0.343192858 0 0
1.798684 1.361326 3.150677 0.585305686 0.561205452 0.585205685 0 0
1.797517 1.36287 3.149506 0 1 0 0 0
1.801345 1.36287 3.144541 0 1 0 0 0
1.801818 1.36287 3.144814 0.42131201 0.873724906 0.24310693 0 0
1.802775 1.361326 3.145371 0.71684807 0.561137628 0.41382775 0 0
1.804258 1.36287 3.138885 0.46920591 0.874111009 0.125601582 0 0
1.805325 1.361326 3.139175 0.799930098 0.56052109 0.214308063 0 0
1.803731 1.36287 3.138744 0 1 0 0 0
1.804563 1.36287 3.13253 0 1 0 0 0
1.80511 1.36287 3.13253 0.48680572 0.873510264 -0.000100001175 0 0
1.806214 1.361326 3.132535 0.828292968 0.560295243 0 0 0
1.804258 1.36287 3.126175 0.469623151 0.873843077 -0.125906207 0 0
1.805325 1.361326 3.125894 0.800434219 0.559723929 -0.21450917 0 0
1.803731 1.36287 3.126317 0 1 0 0 0
1.801345 1.36287 3.120519 0 1 0 0 0
1.801818 1.36287 3.120246 0.4218911 0.873281578 -0.243694859 0 0
1.802775 1.361326 3.119698 0.717749921 0.559538917 -0.414428825 0 0
1.797903 1.36287 3.115168 0.344014144 0.87363592 -0.344114149 0 0
1.797517 1.36287 3.115554 0 1 0 0 0
1.798684 1.361326 3.114392 0.586306924 0.559006602 -0.586306924 0 0
1.786418 1.36287 3.110596 0 1 0 0 0
1.791902 1.36287 3.112853 0 1 0 0 0
1.79125 1.36287 3.113982 0 1 0 0 0
1.786081 1.36287 3.111855 0 1 0 0 0
1.780541 1.36287 3.111113 0 1 0 0 0
1.780541 1.36287 3.109808 0 1 0 0 0
1.785936 1.36287 3.112395 -0.169093031 0.757068798 0.631073991 0 0
1.79097 1.36287 3.114466 -0.326019937 0.758146362 0.564734535 0 0
1.780541 1.36287 3.111672 0 0.758118946 0.652116297 0 0
1.774664 1.36287 3.110596 0 1 0 0 0
1.775001 1.36287 3.111855 0 1 0 0 0
1.769833 1.36287 3.113982 0 1 0 0 0
1.76918 1.36287 3.112853 0 1 0 0 0
1.775146 1.36287 3.112395 0.169093031 0.757068798 0.631073991 0 0
1.770112 1.36287 3.114466 0.326019937 0.758146362 0.564734535 0 0
1.764484 1.36287 3.116473 0 1 0 0 0
1.765406 1.36287 3.117395 0 1 0 0 0
1.761993 1.36287 3.121822 0 1 0 0 0
1.760864 1.36287 3.121169 0 1 0 0 0
1.765801 1.36287 3.11779 0.462014554 0.757023847 0.462014554 0 0
1.762478 1.36287 3.122101 0.564734535 0.758146362 0.326019937 0 0
1.758607 1.36287 3.126653 0 1 0 0 0
1.759866 1.36287 3.12699 0 1 0 0 0
1.759124 1.36287 3.13253 0 1 0 0 0
1.757819 1.36287 3.13253 0 1 0 0 0
1.760406 1.36287 3.127135 0.631121768 0.75702611 0.169105833 0 0
1.759683 1.36287 3.13253 0.652116297 0.758118946 0 0 0
1.758607 1.36287 3.138407 0 1 0 0 0
1.759866 1.36287 3.13807 0 1 0 0 0
1.761993 1.36287 3.143239 0 1 0 0 0
1.760864 1.36287 3.143891 0 1 0 0 0
1.760406 1.36287 3.137925 0.631013813 0.757116573 -0.169103702 0 0
1.762478 1.36287 3.142959 0.564734535 0.758146362 -0.326019937 0 0
1.764484 1.36287 3.148587 0 1 0 0 0
1.765406 1.36287 3.147665 0 1 0 0 0
1.769833 1.36287 3.151078 0 1 0 0 0
1.76918 1.36287 3.152208 0 1 0 0 0
1.765801 1.36287 3.14727 0.462014554 0.757023847 -0.462014554 0 0
1.770112 1.36287 3.150594 0.326019937 0.758146362 -0.564734535 0 0
1.774664 1.36287 3.154464 0 1 0 0 0
1.775001 1.36287 3.153205 0 1 0 0 0
1.780541 1.36287 3.153947 0 1 0 0 0
1.780541 1.36287 3.155252 0 1 0 0 0
1.775146 1.36287 3.152665 0.169105833 0.75702611 -0.631121768 0 0
1.780541 1.36287 3.153388 0 0.758118946 -0.652116297 0 0
1.786418 1.36287 3.154464 0 1 0 0 0
1.786081 1.36287 3.153205 0 1 0 0 0
1.79125 1.36287 3.151078 0 1 0 0 0
1.791902 1.36287 3.152208 0 1 0 0 0
1.785936 1.36287 3.152665 -0.169093031 0.757068798 -0.631073991 0 0
1.79097 1.36287 3.150594 -0.326019937 0.758146362 -0.564734535 0 0
1.796598 1.36287 3.148587 0 1 0 0 0
1.795676 1.36287 3.147665 0 1 0 0 0
1.799089 1.36287 3.143239 0 1 0 0 0
1.800219 1.36287 3.143891 0 1 0 0 0
1.795281 1.36287 3.14727 -0.462014554 0.757023847 -0.462014554 0 0
1.798605 1.36287 3.142959 -0.564734535 0.758146362 -0.326019937 0 0
1.802476 1.36287 3.138407 0 1 0 0 0
1.801216 1.36287 3.13807 0 1 0 0 0
1.801958 1.36287 3.13253 0 1 0 0 0
1.803263 1.36287 3.13253 0 1 0 0 0
1.800676 1.36287 3.137925 -0.631073991 0.757068798 -0.169093031 0 0
1.801399 1.36287 3.13253 -0.652116297 0.758118946 0 0 0
1.802476 1.36287 3.126653 0 1 0 0 0
1.801216 1.36287 3.12699 0 1 0 0 0
1.799089 1.36287 3.121822 0 1 0 0 0
1.800219 1.36287 3.121169 0 1 0 0 0
1.800676 1.36287 3.127135 -0.631073991 0.757068798 0.169093031 0 0
1.798605 1.36287 3.122101 -0.564734535 0.758146362 0.326019937 0 0
1.796598 1.36287 3.116473 0 1 0 0 0
1.795676 1.36287 3.117395 0 1 0 0 0
1.795281 1.36287 3.11779 -0.462014554 0.757023847 0.462014554 0 0
1.782867 1.30288 3.123886 0.00290010235 -0.999935288 -0.0110003882 0 0
1.780541 1.302945 3.120402 0 -0.997404608 -0.0720003326 0 0
1.783762 1.302945 3.120543 0.0198012174 -0.997061301 -0.0740045499 0 0
1.780541 1.302879 3.124737 0 -0.999976196 -0.00689983575 0 0
1.780541 1.302876 3.132565 0 -1 0 0 0
1.784455 1.302879 3.125786 0.00339991915 -0.999976221 -0.00599985733 0 0
1.786623 1.302945 3.122031 0.0360002871 -0.997407954 -0.0623004968 0 0
1.787974 1.3167 3.104823 0.218308413 -0.537020694 -0.8148314 0 0
1.780541 1.32288 3.100627 0 -0.369096462 -0.929391092 0 0
1.788802 1.32288 3.101734 0.240494458 -0.368991497 -0.897779311 0 0
1.780541 1.3167 3.103827 0 -0.537179563 -0.843467911 0 0
1.780541 1.31134 3.108029 0 -0.6874922 -0.726191761 0 0
1.786888 1.31134 3.108879 0.188003289 -0.687412026 -0.701512273 0 0
1.792809 1.31134 3.111316 0.363097627 -0.687495507 -0.62889589 0 0
1.79491 1.3167 3.107677 0.421690516 -0.537187919 -0.730483572 0 0
1.79651 1.32288 3.104906 0.464689566 -0.369091712 -0.804881927 0 0
1.789309 1.329591 3.099841 0.254205359 -0.187403951 -0.948820001 0 0
1.780541 1.336567 3.097996 0 0 -1 0 0
1.789483 1.336567 3.099194 0.258807732 0 -0.965928858 0 0
1.780541 1.329591 3.098666 0 -0.187396997 -0.982284259 0 0
1.79749 1.329591 3.103208 0.491102834 -0.187401081 -0.850704909 0 0
1.797826 1.336567 3.102627 0.500011 0 -0.866019053 0 0
1.789309 1.343544 3.099841 0.254210122 0.187307458 -0.948837779 0 0
1.780541 1.35032 3.100645 0 0.366419582 -0.930449725 0 0
1.788796 1.35032 3.101751 0.240812608 0.366419184 -0.898747055 0 0
1.780541 1.343544 3.098666 0 0.187396997 -0.982284259 0 0
1.79749 1.343544 3.103208 0.491144615 0.187417025 -0.850677275 0 0
1.796499 1.35032 3.104921 0.465209516 0.366607499 -0.805716481 0 0
1.804496 1.343544 3.108609 0.694628421 0.187407668 -0.694528417 0 0
1.803095 1.35032 3.110007 0.657923419 0.36661305 -0.657823416 0 0
1.80497 1.336567 3.108135 0.707106781 0 -0.707106781 0 0
1.810479 1.336567 3.11528 0.866019053 0 -0.500011 0 0
1.809898 1.343544 3.115615 0.850661326 0.187513518 -0.491135407 0 0
1.80818 1.35032 3.116603 0.80563022 0.366913763 -0.465117447 0 0
1.804496 1.329591 3.108609 0.694580177 -0.187394652 -0.694580177 0 0
1.803111 1.32288 3.109995 0.657205034 -0.369002827 -0.657205034 0 0
1.8082 1.32288 3.116596 0.804881927 -0.369091712 -0.464689566 0 0
1.809898 1.329591 3.115615 0.850704909 -0.187401081 -0.491102834 0 0
1.800849 1.3167 3.112256 0.596469906 -0.537072903 -0.596469906 0 0
1.79788 1.31134 3.115226 0.513529976 -0.687440127 -0.513529976 0 0
1.80179 1.31134 3.120297 0.62889589 -0.687495507 -0.363097627 0 0
1.805429 1.3167 3.118196 0.730483572 -0.537187919 -0.421690516 0 0
1.786894 1.30288 3.126211 0.00800028798 -0.999935993 -0.00800028798 0 0
1.789342 1.302945 3.123764 0.0542031363 -0.997057691 -0.0542031363 0 0
1.78732 1.302879 3.128651 0.00599985733 -0.999976221 -0.00339991915 0 0
1.791075 1.302945 3.126483 0.0623004968 -0.997407954 -0.0360002871 0 0
1.78922 1.30288 3.130239 0.0110003882 -0.999935288 -0.00290010235 0 0
1.792563 1.302945 3.129343 0.0740045499 -0.997061301 -0.0198012174 0 0
1.788369 1.302879 3.132565 0.00689983575 -0.999976196 0 0 0
1.792704 1.302945 3.132565 0.0720003326 -0.997404608 0 0 0
1.808283 1.3167 3.125131 0.81478764 -0.537091852 -0.218296688 0 0
1.811372 1.32288 3.124304 0.897779311 -0.368991497 -0.240494458 0 0
1.804227 1.31134 3.126218 0.701525459 -0.687424947 -0.187906819 0 0
1.805077 1.31134 3.132565 0.726191761 -0.6874922 0 0 0
1.809279 1.3167 3.132565 0.843439052 -0.537224874 0 0 0
1.812479 1.32288 3.132565 0.929391092 -0.369096462 0 0 0
1.813265 1.329591 3.123796 0.948820001 -0.187403951 -0.254205359 0 0
1.813912 1.336567 3.123623 0.965928858 0 -0.258807732 0 0
1.814439 1.329591 3.132565 0.982284259 -0.187396997 0 0 0
1.81511 1.336567 3.132565 1 0 0 0 0
1.813265 1.343544 3.123796 0.948802215 0.187500438 -0.254200594 0 0
1.81135 1.35032 3.124305 0.898499483 0.367099789 -0.240699862 0 0
1.814439 1.343544 3.132565 0.982225474 0.187704868 0 0 0
1.812456 1.35032 3.13256 0.930054521 0.367421539 0 0 0
1.813265 1.343544 3.141333 0.948756633 0.187711205 0.254215175 0 0
1.81135 1.35032 3.140815 0.898295895 0.36759832 0.2406989 0 0
1.813912 1.336567 3.141506 0.965928858 0 0.258807732 0 0
1.810479 1.336567 3.149849 0.866019053 0 0.500011 0 0
1.809898 1.343544 3.149514 0.850613436 0.187802966 0.491107757 0 0
1.80818 1.35032 3.148518 0.805268668 0.367931375 0.464939647 0 0
1.813265 1.329591 3.141333 0.948820001 -0.187403951 0.254205359 0 0
1.811372 1.32288 3.140826 0.897779311 -0.368991497 0.240494458 0 0
1.8082 1.32288 3.148533 0.804881927 -0.369091712 0.464689566 0 0
1.809898 1.329591 3.149514 0.850704909 -0.187401081 0.491102834 0 0
1.808283 1.3167 3.139998 0.81478764 -0.537091852 0.218296688 0 0
1.804227 1.31134 3.138911 0.701525459 -0.687424947 0.187906819 0 0
1.80179 1.31134 3.144832 0.62889589 -0.687495507 0.363097627 0 0
1.805429 1.3167 3.146933 0.730483572 -0.537187919 0.421690516 0 0
1.78922 1.30288 3.13489 0.0110003882 -0.999935288 0.00290010235 0 0
1.792563 1.302945 3.135786 0.0740045499 -0.997061301 0.0198012174 0 0
1.78732 1.302879 3.136478 0.00599985733 -0.999976221 0.00339991915 0 0
1.791075 1.302945 3.138646 0.0623004968 -0.997407954 0.0360002871 0 0
1.786894 1.30288 3.138918 0.00800028798 -0.999935993 0.00800028798 0 0
1.789342 1.302945 3.141365 0.0542031363 -0.997057691 0.0542031363 0 0
1.784455 1.302879 3.139344 0.00339991915 -0.999976221 0.00599985733 0 0
1.786623 1.302945 3.143098 0.0360002871 -0.997407954 0.0623004968 0 0
1.800849 1.3167 3.152873 0.596469906 -0.537072903 0.596469906 0 0
1.803111 1.32288 3.155134 0.657205034 -0.369002827 0.657205034 0 0
1.79788 1.31134 3.149904 0.513529976 -0.687440127 0.513529976 0 0
1.792809 1.31134 3.153813 0.363097627 -0.687495507 0.62889589 0 0
1.79491 1.3167 3.157452 0.421690516 -0.537187919 0.730483572 0 0
1.79651 1.32288 3.160223 0.464689566 -0.369091712 0.804881927 0 0
1.804496 1.329591 3.15652 0.694580177 -0.187394652 0.694580177 0 0
1.80497 1.336567 3.156994 0.707106781 0 0.707106781 0 0
1.79749 1.329591 3.161921 0.491102834 -0.187401081 0.850704909 0 0
1.797826 1.336567 3.162502 0.500011 0 0.866019053 0 0
1.804496 1.343544 3.15652 0.694524538 0.187806635 0.694524538 0 0
1.803095 1.35032 3.155114 0.657431225 0.368017479 0.65753123 0 0
1.79749 1.343544 3.161921 0.491098532 0.187899438 0.850597457 0 0
1.796499 1.35032 3.160199 0.464830229 0.368323953 0.805152361 0 0
1.789309 1.343544 3.165288 0.254205626 0.187904158 0.948720995 0 0
1.788796 1.35032 3.163369 0.240607549 0.368311556 0.898028176 0 0
1.789483 1.336567 3.165935 0.258807732 0 0.965928858 0 0
1.780541 1.336567 3.167133 0 0 1 0 0
1.780541 1.343544 3.166463 0 0.187897816 0.982188582 0 0
1.780541 1.35032 3.164475 0 0.368423079 0.929658236 0 0
1.789309 1.329591 3.165288 0.254205359 -0.187403951 0.948820001 0 0
1.788802 1.32288 3.163395 0.240494458 -0.368991497 0.897779311 0 0
1.780541 1.32288 3.164502 0 -0.369096462 0.929391092 0 0
1.780541 1.329591 3.166463 0 -0.187396997 0.982284259 0 0
1.787974 1.3167 3.160306 0.218296688 -0.537091852 0.81478764 0 0
1.786888 1.31134 3.15625 0.187906819 -0.687424947 0.701525459 0 0
1.780541 1.31134 3.1571 0 -0.6874922 0.726191761 0 0
1.780541 1.3167 3.161302 0 -0.537179563 0.843467911 0 0
1.782867 1.30288 3.141243 0.00290010235 -0.999935288 0.0110003882 0 0
1.783762 1.302945 3.144587 0.0198012174 -0.997061301 0.0740045499 0 0
1.780541 1.302879 3.140392 0 -0.999976196 0.00689983575 0 0
1.780541 1.302945 3.144727 0 -0.997404608 0.0720003326 0 0
1.778216 1.30288 3.141243 -0.00290010235 -0.999935288 0.0110003882 0 0
1.77732 1.302945 3.144587 -0.0198012174 -0.997061301 0.0740045499 0 0
1.776627 1.302879 3.139344 -0.00339991915 -0.999976221 0.00599985733 0 0
1.77446 1.302945 3.143098 -0.0360002871 -0.997407954 0.0623004968 0 0
1.773108 1.3167 3.160306 -0.218308413 -0.537020694 0.8148314 0 0
1.77228 1.32288 3.163395 -0.240494458 -0.368991497 0.897779311 0 0
1.774195 1.31134 3.15625 -0.187906819 -0.687424947 0.701525459 0 0
1.768273 1.31134 3.153813 -0.363097627 -0.687495507 0.62889589 0 0
1.766172 1.3167 3.157452 -0.421690516 -0.537187919 0.730483572 0 0
1.764573 1.32288 3.160223 -0.464689566 -0.369091712 0.804881927 0 0
1.771773 1.329591 3.165288 -0.254205359 -0.187403951 0.948820001 0 0
1.7716 1.336567 3.165935 -0.258807732 0 0.965928858 0 0
1.763592 1.329591 3.161921 -0.491102834 -0.187401081 0.850704909 0 0
1.763257 1.336567 3.162502 -0.500011 0 0.866019053 0 0
1.771773 1.343544 3.165288 -0.254205626 0.187904158 0.948720995 0 0
1.772286 1.35032 3.163369 -0.240607549 0.368311556 0.898028176 0 0
1.763592 1.343544 3.161921 -0.491098532 0.187899438 0.850597457 0 0
1.764584 1.35032 3.160199 -0.464830229 0.368323953 0.805152361 0 0
1.756586 1.343544 3.15652 -0.694524538 0.187806635 0.694524538 0 0
1.757987 1.35032 3.155114 -0.657431225 0.368017479 0.65753123 0 0
1.756112 1.336567 3.156994 -0.707106781 0 0.707106781 0 0
1.750604 1.336567 3.149849 -0.866019053 0 0.500011 0 0
1.751184 1.343544 3.149514 -0.850613436 0.187802966 0.491107757 0 0
1.752902 1.35032 3.148518 -0.805268668 0.367931375 0.464939647 0 0
1.756586 1.329591 3.15652 -0.694580177 -0.187394652 0.694580177 0 0
1.757972 1.32288 3.155134 -0.657205034 -0.369002827 0.657205034 0 0
1.752883 1.32288 3.148533 -0.804881927 -0.369091712 0.464689566 0 0
1.751184 1.329591 3.149514 -0.850704909 -0.187401081 0.491102834 0 0
1.760233 1.3167 3.152873 -0.596501939 -0.537001745 0.596501939 0 0
1.763202 1.31134 3.149904 -0.513529976 -0.687440127 0.513529976 0 0
1.759293 1.31134 3.144832 -0.62889589 -0.687495507 0.363097627 0 0
1.755654 1.3167 3.146933 -0.730483572 -0.537187919 0.421690516 0 0
1.774188 1.30288 3.138918 -0.00800028798 -0.999935993 0.00800028798 0 0
1.77174 1.302945 3.141365 -0.0542031363 -0.997057691 0.0542031363 0 0
1.773762 1.302879 3.136478 -0.00599985733 -0.999976221 0.00339991915 0 0
1.770008 1.302945 3.138646 -0.0623004968 -0.997407954 0.0360002871 0 0
1.771862 1.30288 3.13489 -0.0110003882 -0.999935288 0.00290010235 0 0
1.768519 1.302945 3.135786 -0.0740045499 -0.997061301 0.0198012174 0 0
1.772714 1.302879 3.132565 -0.00689983575 -0.999976196 0 0 0
1.768378 1.302945 3.132565 -0.0720003326 -0.997404608 0 0 0
1.7528 1.3167 3.139998 -0.81478764 -0.537091852 0.218296688 0 0
1.749711 1.32288 3.140826 -0.897779311 -0.368991497 0.240494458 0 0
1.756856 1.31134 3.138911 -0.701512273 -0.687412026 0.188003289 0 0
1.756005 1.31134 3.132565 -0.726191761 -0.6874922 0 0 0
1.751804 1.3167 3.132565 -0.843439052 -0.537224874 0 0 0
1.748604 1.32288 3.132565 -0.929391092 -0.369096462 0 0 0
1.747818 1.329591 3.141333 -0.948820001 -0.187403951 0.254205359 0 0
1.74717 1.336567 3.141506 -0.965928858 0 0.258807732 0 0
1.746643 1.329591 3.132565 -0.982284259 -0.187396997 0 0 0
1.745972 1.336567 3.132565 -1 0 0 0 0
1.747818 1.343544 3.141333 -0.948756633 0.187711205 0.254215175 0 0
1.749732 1.35032 3.140815 -0.898295895 0.36759832 0.2406989 0 0
1.746643 1.343544 3.132565 -0.982225474 0.187704868 0 0 0
1.748626 1.35032 3.13256 -0.930054521 0.367421539 0 0 0
1.747818 1.343544 3.123796 -0.948802215 0.187500438 -0.254200594 0 0
1.749732 1.35032 3.124305 -0.898499483 0.367099789 -0.240699862 0 0
1.74717 1.336567 3.123623 -0.965928858 0 -0.258807732 0 0
1.750604 1.336567 3.11528 -0.866019053 0 -0.500011 0 0
1.751184 1.343544 3.115615 -0.850688962 0.187497567 -0.491093628 0 0
1.752902 1.35032 3.116603 -0.80563022 0.366913763 -0.465117447 0 0
1.747818 1.329591 3.123796 -0.948820001 -0.187403951 -0.254205359 0 0
1.749711 1.32288 3.124304 -0.897779311 -0.368991497 -0.240494458 0 0
1.752883 1.32288 3.116596 -0.804881927 -0.369091712 -0.464689566 0 0
1.751184 1.329591 3.115615 -0.850704909 -0.187401081 -0.491102834 0 0
1.7528 1.3167 3.125131 -0.81478764 -0.537091852 -0.218296688 0 0
1.756856 1.31134 3.126218 -0.701525459 -0.687424947 -0.187906819 0 0
1.759293 1.31134 3.120297 -0.62889589 -0.687495507 -0.363097627 0 0
1.755654 1.3167 3.118196 -0.730483572 -0.537187919 -0.421690516 0 0
1.771862 1.30288 3.130239 -0.0110003882 -0.999935288 -0.00290010235 0 0
1.768519 1.302945 3.129343 -0.0740045499 -0.997061301 -0.0198012174 0 0
1.773762 1.302879 3.128651 -0.00599985733 -0.999976221 -0.00339991915 0 0
1.770008 1.302945 3.126483 -0.0623004968 -0.997407954 -0.0360002871 0 0
1.774188 1.30288 3.126211 -0.00800028798 -0.999935993 -0.00800028798 0 0
1.77174 1.302945 3.123764 -0.0542031363 -0.997057691 -0.0542031363 0 0
1.776627 1.302879 3.125786 -0.00339991915 -0.999976221 -0.00599985733 0 0
1.77446 1.302945 3.122031 -0.0360002871 -0.997407954 -0.0623004968 0 0
1.760233 1.3167 3.112256 -0.596469906 -0.537072903 -0.596469906 0 0
1.757972 1.32288 3.109995 -0.657205034 -0.369002827 -0.657205034 0 0
1.763202 1.31134 3.115226 -0.513529976 -0.687440127 -0.513529976 0 0
1.768273 1.31134 3.111316 -0.363097627 -0.687495507 -0.62889589 0 0
1.766172 1.3167 3.107677 -0.421690516 -0.537187919 -0.730483572 0 0
1.764573 1.32288 3.104906 -0.464689566 -0.369091712 -0.804881927 0 0
1.756586 1.329591 3.108609 -0.694580177 -0.187394652 -0.694580177 0 0
1.756112 1.336567 3.108135 -0.707106781 0 -0.707106781 0 0
1.763592 1.329591 3.103208 -0.491102834 -0.187401081 -0.850704909 0 0
1.763257 1.336567 3.102627 -0.500011 0 -0.866019053 0 0
1.756586 1.343544 3.108609 -0.694628421 0.187407668 -0.694528417 0 0
1.757987 1.35032 3.110007 -0.657923419 0.36661305 -0.657823416 0 0
1.763592 1.343544 3.103208 -0.491102834 0.187401081 -0.850704909 0 0
1.764584 1.35032 3.104921 -0.465209516 0.366607499 -0.805716481 0 0
1.771773 1.343544 3.099841 -0.254210122 0.187307458 -0.948837779 0 0
1.772286 1.35032 3.101751 -0.240812608 0.366419184 -0.898747055 0 0
1.7716 1.336567 3.099194 -0.258807732 0 -0.965928858 0 0
1.771773 1.329591 3.099841 -0.254205359 -0.187403951 -0.948820001 0 0
1.77228 1.32288 3.101734 -0.240494458 -0.368991497 -0.897779311 0 0
1.773108 1.3167 3.104823 -0.218308413 -0.537020694 -0.8148314 0 0
1.774195 1.31134 3.108879 -0.188003289 -0.687412026 -0.701512273 0 0
1.778216 1.30288 3.123886 -0.00290010235 -0.999935288 -0.0110003882 0 0
1.77732 1.302945 3.120543 -0.0198012174 -0.997061301 -0.0740045499 0 0
1.785603 1.307088 3.113673 0.158704207 -0.789920937 -0.5923157 0 0
1.780541 1.307088 3.112995 0 -0.79005175 -0.613040155 0 0
1.780541 1.304251 3.117098 0 -0.8225628 -0.568674282 0 0
1.784542 1.304251 3.117634 0.147202955 -0.82241651 -0.549511032 0 0
1.788274 1.304251 3.11917 0.284306396 -0.822618505 -0.492411077 0 0
1.790326 1.307088 3.115617 0.306515777 -0.790040664 -0.530927328 0 0
1.784124 1.303136 3.119191 0.0964052364 -0.927950403 -0.360019555 0 0
1.780541 1.303136 3.118711 0 -0.927542696 -0.373717203 0 0
1.787468 1.303136 3.120567 0.186908895 -0.927544143 -0.323615401 0 0
1.794371 1.307088 3.118735 0.433608687 -0.789915826 -0.433608687 0 0
1.791471 1.304251 3.121635 0.402309678 -0.822419784 -0.402209675 0 0
1.793935 1.304251 3.124831 0.492411077 -0.822618505 -0.284306396 0 0
1.797489 1.307088 3.12278 0.530927328 -0.790040664 -0.306515777 0 0
1.790331 1.303136 3.122775 0.263611122 -0.927939151 -0.263511118 0 0
1.792539 1.303136 3.125638 0.323621449 -0.927561476 -0.186812381 0 0
1.799433 1.307088 3.127503 0.5923157 -0.789920937 -0.158704207 0 0
1.795472 1.304251 3.128564 0.549511032 -0.82241651 -0.147202955 0 0
1.796008 1.304251 3.132565 0.56872106 -0.822530459 0 0 0
1.800111 1.307088 3.132565 0.613040155 -0.79005175 0 0 0
1.793914 1.303136 3.128981 0.360019555 -0.927950403 -0.0964052364 0 0
1.794395 1.303136 3.132565 0.373717203 -0.927542696 0 0 0
1.799433 1.307088 3.137626 0.5923157 -0.789920937 0.158704207 0 0
1.795472 1.304251 3.136565 0.549511032 -0.82241651 0.147202955 0 0
1.793935 1.304251 3.140298 0.492411077 -0.822618505 0.284306396 0 0
1.797489 1.307088 3.142349 0.530927328 -0.790040664 0.306515777 0 0
1.793914 1.303136 3.136148 0.360019555 -0.927950403 0.0964052364 0 0
1.792539 1.303136 3.139491 0.323615401 -0.927544143 0.186908895 0 0
1.794371 1.307088 3.146394 0.433608687 -0.789915826 0.433608687 0 0
1.791471 1.304251 3.143494 0.402225856 -0.822452869 0.402225856 0 0
1.788274 1.304251 3.145959 0.284306396 -0.822618505 0.492411077 0 0
1.790326 1.307088 3.149512 0.306515777 -0.790040664 0.530927328 0 0
1.790331 1.303136 3.142354 0.263518063 -0.92796361 0.263518063 0 0
1.787468 1.303136 3.144562 0.186908895 -0.927544143 0.323615401 0 0
1.785603 1.307088 3.151456 0.158704207 -0.789920937 0.5923157 0 0
1.784542 1.304251 3.147495 0.147202955 -0.82241651 0.549511032 0 0
1.780541 1.304251 3.148031 0 -0.822609575 0.568606619 0 0
1.780541 1.307088 3.152134 0 -0.79005175 0.613040155 0 0
1.784124 1.303136 3.145938 0.0964052364 -0.927950403 0.360019555 0 0
1.780541 1.303136 3.146418 0 -0.927542696 0.373717203 0 0
1.775479 1.307088 3.151456 -0.158704207 -0.789920937 0.5923157 0 0
1.776541 1.304251 3.147495 -0.147202955 -0.82241651 0.549511032 0 0
1.772808 1.304251 3.145959 -0.284306396 -0.822618505 0.492411077 0 0
1.770756 1.307088 3.149512 -0.306515777 -0.790040664 0.530927328 0 0
1.776958 1.303136 3.145938 -0.0964052364 -0.927950403 0.360019555 0 0
1.773615 1.303136 3.144562 -0.186908895 -0.927544143 0.323615401 0 0
1.766712 1.307088 3.146394 -0.433608687 -0.789915826 0.433608687 0 0
1.769611 1.304251 3.143494 -0.402225856 -0.822452869 0.402225856 0 0
1.767147 1.304251 3.140298 -0.492411077 -0.822618505 0.284306396 0 0
1.763593 1.307088 3.142349 -0.530927328 -0.790040664 0.306515777 0 0
1.770751 1.303136 3.142354 -0.263518063 -0.92796361 0.263518063 0 0
1.768544 1.303136 3.139491 -0.323615401 -0.927544143 0.186908895 0 0
1.76165 1.307088 3.137626 -0.5923157 -0.789920937 0.158704207 0 0
1.765611 1.304251 3.136565 -0.549511032 -0.82241651 0.147202955 0 0
1.765075 1.304251 3.132565 -0.56872106 -0.822530459 0 0 0
1.760972 1.307088 3.132565 -0.613040155 -0.79005175 0 0 0
1.767168 1.303136 3.136148 -0.360019555 -0.927950403 0.0964052364 0 0
1.766688 1.303136 3.132565 -0.373717203 -0.927542696 0 0 0
1.76165 1.307088 3.127503 -0.5923157 -0.789920937 -0.158704207 0 0
1.765611 1.304251 3.128564 -0.549511032 -0.82241651 -0.147202955 0 0
1.767147 1.304251 3.124831 -0.492527338 -0.822545657 -0.284315781 0 0
1.763593 1.307088 3.12278 -0.530927328 -0.790040664 -0.306515777 0 0
1.767168 1.303136 3.128981 -0.360019555 -0.927950403 -0.0964052364 0 0
1.768544 1.303136 3.125638 -0.323615401 -0.927544143 -0.186908895 0 0
1.766712 1.307088 3.118735 -0.433608687 -0.789915826 -0.433608687 0 0
1.769611 1.304251 3.121635 -0.402293495 -0.822386702 -0.402293495 0 0
1.772808 1.304251 3.11917 -0.284306396 -0.822618505 -0.492411077 0 0
1.770756 1.307088 3.115617 -0.306515777 -0.790040664 -0.530927328 0 0
1.770751 1.303136 3.122775 -0.263518063 -0.92796361 -0.263518063 0 0
1.773615 1.303136 3.120567 -0.186908895 -0.927544143 -0.323615401 0 0
1.775479 1.307088 3.113673 -0.158704207 -0.789920937 -0.5923157 0 0
1.776541 1.304251 3.117634 -0.147202955 -0.82241651 -0.549511032 0 0
1.776958 1.303136 3.119191 -0.0964052364 -0.927950403 -0.360019555 0 0
1.752886 1.356695 3.125137 -0.838453675 0.496531786 -0.224614379 0 0
1.751894 1.356695 3.132547 -0.867694924 0.497097092 0 0 0
1.755732 1.356695 3.118224 -0.751815134 0.496309991 -0.434108739 0 0
1.760296 1.356695 3.112303 -0.614120742 0.495816746 -0.614020739 0 0
1.766217 1.356695 3.107738 -0.43422116 0.495724157 -0.752136653 0 0
1.773131 1.356695 3.104892 -0.224813804 0.49543042 -0.839051519 0 0
1.780541 1.356695 3.1039 0 0.495503417 -0.868605989 0 0
1.787951 1.356695 3.104892 0.224813804 0.49543042 -0.839051519 0 0
1.794865 1.356695 3.107738 0.43422116 0.495724157 -0.752136653 0 0
1.800786 1.356695 3.112303 0.614120742 0.495816746 -0.614020739 0 0
1.805351 1.356695 3.118224 0.751815134 0.496309991 -0.434108739 0 0
1.808196 1.356695 3.125137 0.838453675 0.496531786 -0.224614379 0 0
1.809189 1.356695 3.132547 0.867738056 0.497021797 0 0 0
1.808196 1.356695 3.139957 0.838020305 0.49731205 0.22450544 0 0
1.805351 1.356695 3.146871 0.751113141 0.497808709 0.433607586 0 0
1.800786 1.356695 3.152792 0.613190042 0.497991913 0.613190042 0 0
1.794865 1.356695 3.157357 0.433494484 0.498393658 0.750790446 0 0
1.787951 1.356695 3.160202 0.224400373 0.498400827 0.83740139 0 0
1.780541 1.356695 3.161195 0 0.498613912 0.866824185 0 0
1.773131 1.356695 3.160202 -0.224400373 0.498400827 0.83740139 0 0
1.766217 1.356695 3.157357 -0.433494484 0.498393658 0.750790446 0 0
1.760296 1.356695 3.152792 -0.613190042 0.497991913 0.613190042 0 0
1.755732 1.356695 3.146871 -0.751113141 0.497808709 0.433607586 0 0
1.752886 1.356695 3.139957 -0.838020305 0.49731205 0.22450544 0 0
3 0 1 2
3 0 3 1
3 0 4 3
3 0 5 4
3 0 6 5
3 0 7 6
3 0 8 7
3 0 2 8
3 9 4 5
3 9 10 4
3 9 11 10
3 9 12 11
3 9 13 12
3 9 14 13
3 9 6 14
3 9 5 6
3 15 11 12
3 15 16 11
3 15 17 16
3 15 18 17
3 15 19 18
3 15 20 19
3 15 13 20
3 15 12 13
3 21 17 18
3 21 22 17
3 21 23 22
3 21 24 23
3 21 25 24
3 21 26 25
3 21 19 26
3 21 18 19
3 27 23 24
3 27 28 23
3 27 29 28
3 27 30 29
3 27 31 30
3 27 32 31
3 27 25 32
3 27 24 25
3 33 29 30
3 33 34 29
3 33 35 34
3 33 36 35
3 33 37 36
3 33 38 37
3 33 31 38
3 33 30 31
3 39 35 36
3 39 40 35
3 39 41 40
3 39 42 41
3 39 43 42
3 39 44 43
3 39 37 44
3 39 36 37
3 45 41 42
3 45 46 41
3 45 47 46
3 45 48 47
3 45 49 48
3 45 50 49
3 45 43 50
3 45 42 43
3 51 47 48
3 51 52 47
3 51 53 52
3 51 54 53
3 51 55 54
3 51 56 55
3 51 49 56
3 51 48 49
3 57 53 54
3 57 58 53
3 57 59 58
3 57 60 59
3 57 61 60
3 57 62 61
3 57 55 62
3 57 54 55
3 63 59 60
3 63 64 59
3 63 65 64
3 63 66 65
3 63 67 66
3 63 68 67
3 63 61 68
3 63 60 61
3 69 65 66
3 69 70 65
3 69 1 70
3 69 2 1
3 69 8 2
3 69 71 8
3 69 67 71
3 69 66 67
3 72 67 73
3 72 71 67
3 72 8 71
3 72 74 8
3 72 75 74
3 72 76 75
3 72 77 76
3 72 73 77
3 78 61 79
3 78 68 61
3 78 67 68
3 78 73 67
3 78 77 73
3 78 80 77
3 78 81 80
3 78 79 81
3 82 55 83
3 82 62 55
3 82 61 62
3 82 79 61
3 82 81 79
3 82 84 81
3 82 85 84
3 82 83 85
3 86 49 87
3 86 56 49
3 86 55 56
3 86 83 55
3 86 85 83
3 86 88 85
3 86 89 88
3 86 87 89
3 90 43 91
3 90 50 43
3 90 49 50
3 90 87 49
3 90 89 87
3 90 92 89
3 90 93 92
3 90 91 93
3 94 37 95
3 94 44 37
3 94 43 44
3 94 91 43
3 94 93 91
3 94 96 93
3 94 97 96
3 94 95 97
3 98 31 99
3 98 38 31
3 98 37 38
3 98 95 37
3 98 97 95
3 98 100 97
3 98 101 100
3 98 99 101
3 102 25 103
3 102 32 25
3 102 31 32
3 102 99 31
3 102 101 99
3 102 104 101
3 102 105 104
3 102 103 105
3 106 19 107
3 106 26 19
3 106 25 26
3 106 103 25
3 106 105 103
3 106 108 105
3 106 109 108
3 106 107 109
3 110 13 111
3 110 20 13
3 110 19 20
3 110 107 19
3 110 109 107
3 110 112 109
3 110 113 112
3 110 111 113
3 114 6 115
3 114 14 6
3 114 13 14
3 114 111 13
3 114 113 111
3 114 116 113
3 114 117 116
3 114 115 117
3 118 8 74
3 118 7 8
3 118 6 7
3 118 115 6
3 118 117 115
3 118 119 117
3 118 75 119
3 118 74 75
3 120 75 121
3 120 119 75
3 120 117 119
3 120 122 117
3 120 123 122
3 120 121 123
3 124 117 122
3 124 116 117
3 124 113 116
3 124 125 113
3 124 123 125
3 124 122 123
3 126 113 125
3 126 112 113
3 126 109 112
3 126 127 109
3 126 123 127
3 126 125 123
3 128 109 127
3 128 108 109
3 128 105 108
3 128 129 105
3 128 123 129
3 128 127 123
3 130 105 129
3 130 104 105
3 130 101 104
3 130 131 101
3 130 123 131
3 130 129 123
3 132 101 131
3 132 100 101
3 132 97 100
3 132 133 97
3 132 123 133
3 132 131 123
3 134 97 133
3 134 96 97
3 134 93 96
3 134 135 93
3 134 123 135
3 134 133 123
3 136 93 135
3 136 92 93
3 136 89 92
3 136 137 89
3 136 123 137
3 136 135 123
3 138 89 137
3 138 88 89
3 138 85 88
3 138 139 85
3 138 123 139
3 138 137 123
3 140 85 139
3 140 84 85
3 140 81 84
3 140 141 81
3 140 123 141
3 140 139 123
3 142 81 141
3 142 80 81
3 142 77 80
3 142 143 77
3 142 123 143
3 142 141 123
3 144 77 143
3 144 76 77
3 144 75 76
3 144 121 75
3 144 123 121
3 144 143 123
3 145 146 147
3 145 148 146
3 145 149 148
3 145 150 149
3 145 151 150
3 145 152 151
3 145 153 152
3 145 147 153
3 154 153 155
3 154 152 153
3 154 151 152
3 154 156 151
3 154 157 156
3 154 158 157
3 154 159 158
3 154 155 159
3 160 159 161
3 160 158 159
3 160 157 158
3 160 162 157
3 160 163 162
3 160 164 163
3 160 165 164
3 160 161 165
3 166 165 167
3 166 164 165
3 166 163 164
3 166 168 163
3 166 169 168
3 166 170 169
3 166 171 170
3 166 167 171
3 172 171 173
3 172 170 171
3 172 169 170
3 172 174 169
3 172 175 174
3 172 176 175
3 172 177 176
3 172 173 177
3 178 177 179
3 178 176 177
3 178 175 176
3 178 180 175
3 178 181 180
3 178 182 181
3 178 183 182
3 178 179 183
3 184 183 185
3 184 182 183
3 184 181 182
3 184 186 181
3 184 187 186
3 184 188 187
3 184 189 188
3 184 185 189
3 190 189 191
3 190 188 189
3 190 187 188
3 190 192 187
3 190 193 192
3 190 194 193
3 190 195 194
3 190 191 195
3 196 195 197
3 196 194 195
3 196 193 194
3 196 198 193
3 196 199 198
3 196 200 199
3 196 201 200
3 196 197 201
3 202 201 203
3 202 200 201
3 202 199 200
3 202 204 199
3 202 205 204
3 202 206 205
3 202 207 206
3 202 203 207
3 208 207 209
3 208 206 207
3 208 205 206
3 208 210 205
3 208 211 210
3 208 212 211
3 208 213 212
3 208 209 213
3 214 149 215
3 214 148 149
3 214 146 148
3 214 216 146
3 214 213 216
3 214 212 213
3 214 211 212
3 214 215 211
3 217 149 150
3 217 218 149
3 217 219 218
3 217 220 219
3 217 221 220
3 217 222 221
3 217 151 222
3 217 150 151
3 223 219 220
3 223 224 219
3 223 1 224
3 223 70 1
3 223 65 70
3 223 225 65
3 223 221 225
3 223 220 221
3 226 151 156
3 226 222 151
3 226 221 222
3 226 227 221
3 226 228 227
3 226 229 228
3 226 157 229
3 226 156 157
3 230 221 227
3 230 225 221
3 230 65 225
3 230 64 65
3 230 59 64
3 230 231 59
3 230 228 231
3 230 227 228
3 232 157 162
3 232 229 157
3 232 228 229
3 232 233 228
3 232 234 233
3 232 235 234
3 232 163 235
3 232 162 163
3 236 228 233
3 236 231 228
3 236 59 231
3 236 58 59
3 236 53 58
3 236 237 53
3 236 234 237
3 236 233 234
3 238 163 168
3 238 235 163
3 238 234 235
3 238 239 234
3 238 240 239
3 238 241 240
3 238 169 241
3 238 168 169
3 242 234 239
3 242 237 234
3 242 53 237
3 242 52 53
3 242 47 52
3 242 243 47
3 242 240 243
3 242 239 240
3 244 169 174
3 244 241 169
3 244 240 241
3 244 245 240
3 244 246 245
3 244 247 246
3 244 175 247
3 244 174 175
3 248 240 245
3 248 243 240
3 248 47 243
3 248 46 47
3 248 41 46
3 248 249 41
3 248 246 249
3 248 245 246
3 250 175 180
3 250 247 175
3 250 246 247
3 250 251 246
3 250 252 251
3 250 253 252
3 250 181 253
3 250 180 181
3 254 246 251
3 254 249 246
3 254 41 249
3 254 40 41
3 254 35 40
3 254 255 35
3 254 252 255
3 254 251 252
3 256 181 186
3 256 253 181
3 256 252 253
3 256 257 252
3 256 258 257
3 256 259 258
3 256 187 259
3 256 186 187
3 260 252 257
3 260 255 252
3 260 35 255
3 260 34 35
3 260 29 34
3 260 261 29
3 260 258 261
3 260 257 258
3 262 187 192
3 262 259 187
3 262 258 259
3 262 263 258
3 262 264 263
3 262 265 264
3 262 193 265
3 262 192 193
3 266 258 263
3 266 261 258
3 266 29 261
3 266 28 29
3 266 23 28
3 266 267 23
3 266 264 267
3 266 263 264
3 268 193 198
3 268 265 193
3 268 264 265
3 268 269 264
3 268 270 269
3 268 271 270
3 268 199 271
3 268 198 199
3 272 264 269
3 272 267 264
3 272 23 267
3 272 22 23
3 272 17 22
3 272 273 17
3 272 270 273
3 272 269 270
3 274 199 204
3 274 271 199
3 274 270 271
3 274 275 270
3 274 276 275
3 274 277 276
3 274 205 277
3 274 204 205
3 278 270 275
3 278 273 270
3 278 17 273
3 278 16 17
3 278 11 16
3 278 279 11
3 278 276 279
3 278 275 276
3 280 205 210
3 280 277 205
3 280 276 277
3 280 281 276
3 280 282 281
3 280 283 282
3 280 211 283
3 280 210 211
3 284 276 281
3 284 279 276
3 284 11 279
3 284 10 11
3 284 4 10
3 284 285 4
3 284 282 285
3 284 281 282
3 286 211 215
3 286 283 211
3 286 282 283
3 286 287 282
3 286 219 287
3 286 218 219
3 286 149 218
3 286 215 149
3 288 282 287
3 288 285 282
3 288 4 285
3 288 3 4
3 288 1 3
3 288 224 1
3 288 219 224
3 288 287 219
3 289 290 291
3 289 292 290
3 289 293 292
3 289 294 293
3 289 295 294
3 289 291 295
3 296 297 298
3 296 299 297
3 296 300 299
3 296 301 300
3 296 302 301
3 296 303 302
3 296 304 303
3 296 298 304
3 305 306 307
3 305 308 306
3 305 297 308
3 305 298 297
3 305 304 298
3 305 309 304
3 305 310 309
3 305 307 310
3 311 312 313
3 311 314 312
3 311 306 314
3 311 307 306
3 311 310 307
3 311 315 310
3 311 316 315
3 311 313 316
3 317 316 318
3 317 315 316
3 317 310 315
3 317 319 310
3 317 320 319
3 317 321 320
3 317 322 321
3 317 318 322
3 323 310 319
3 323 309 310
3 323 304 309
3 323 324 304
3 323 325 324
3 323 326 325
3 323 320 326
3 323 319 320
3 327 304 324
3 327 303 304
3 327 302 303
3 327 328 302
3 327 329 328
3 327 330 329
3 327 325 330
3 327 324 325
3 331 295 332
3 331 294 295
3 331 293 294
3 331 333 293
3 331 334 333
3 331 332 334
3 335 334 336
3 335 333 334
3 335 293 333
3 335 337 293
3 335 338 337
3 335 336 338
3 339 325 340
3 339 330 325
3 339 329 330
3 339 341 329
3 339 342 341
3 339 343 342
3 339 344 343
3 339 340 344
3 345 320 346
3 345 326 320
3 345 325 326
3 345 340 325
3 345 344 340
3 345 347 344
3 345 348 347
3 345 346 348
3 349 322 350
3 349 321 322
3 349 320 321
3 349 346 320
3 349 348 346
3 349 351 348
3 349 352 351
3 349 350 352
3 353 352 354
3 353 351 352
3 353 348 351
3 353 355 348
3 353 356 355
3 353 357 356
3 353 358 357
3 353 354 358
3 359 348 355
3 359 347 348
3 359 344 347
3 359 360 344
3 359 361 360
3 359 362 361
3 359 356 362
3 359 355 356
3 363 344 360
3 363 343 344
3 363 342 343
3 363 364 342
3 363 365 364
3 363 366 365
3 363 361 366
3 363 360 361
3 367 338 368
3 367 337 338
3 367 293 337
3 367 369 293
3 367 370 369
3 367 368 370
3 371 370 372
3 371 369 370
3 371 293 369
3 371 373 293
3 371 374 373
3 371 372 374
3 375 361 376
3 375 366 361
3 375 365 366
3 375 377 365
3 375 378 377
3 375 379 378
3 375 380 379
3 375 376 380
3 381 356 382
3 381 362 356
3 381 361 362
3 381 376 361
3 381 380 376
3 381 383 380
3 381 384 383
3 381 382 384
3 385 358 386
3 385 357 358
3 385 356 357
3 385 382 356
3 385 384 382
3 385 387 384
3 385 388 387
3 385 386 388
3 389 388 390
3 389 387 388
3 389 384 387
3 389 391 384
3 389 392 391
3 389 393 392
3 389 394 393
3 389 390 394
3 395 384 391
3 395 383 384
3 395 380 383
3 395 396 380
3 395 397 396
3 395 398 397
3 395 392 398
3 395 391 392
3 399 380 396
3 399 379 380
3 399 378 379
3 399 400 378
3 399 401 400
3 399 402 401
3 399 397 402
3 399 396 397
3 403 374 404
3 403 373 374
3 403 293 373
3 403 405 293
3 403 406 405
3 403 404 406
3 407 406 408
3 407 405 406
3 407 293 405
3 407 409 293
3 407 410 409
3 407 408 410
3 411 397 412
3 411 402 397
3 411 401 402
3 411 413 401
3 411 414 413
3 411 415 414
3 411 416 415
3 411 412 416
3 417 392 418
3 417 398 392
3 417 397 398
3 417 412 397
3 417 416 412
3 417 419 416
3 417 420 419
3 417 418 420
3 421 394 422
3 421 393 394
3 421 392 393
3 421 418 392
3 421 420 418
3 421 423 420
3 421 424 423
3 421 422 424
3 425 424 426
3 425 423 424
3 425 420 423
3 425 427 420
3 425 428 427
3 425 429 428
3 425 430 429
3 425 426 430
3 431 420 427
3 431 419 420
3 431 416 419
3 431 432 416
3 431 433 432
3 431 434 433
3 431 428 434
3 431 427 428
3 435 416 432
3 435 415 416
3 435 414 415
3 435 436 414
3 435 437 436
3 435 438 437
3 435 433 438
3 435 432 433
3 439 410 440
3 439 409 410
3 439 293 409
3 439 441 293
3 439 442 441
3 439 440 442
3 443 442 444
3 443 441 442
3 443 293 441
3 443 445 293
3 443 446 445
3 443 444 446
3 447 433 448
3 447 438 433
3 447 437 438
3 447 449 437
3 447 450 449
3 447 451 450
3 447 452 451
3 447 448 452
3 453 428 454
3 453 434 428
3 453 433 434
3 453 448 433
3 453 452 448
3 453 455 452
3 453 456 455
3 453 454 456
3 457 430 458
3 457 429 430
3 457 428 429
3 457 454 428
3 457 456 454
3 457 459 456
3 457 460 459
3 457 458 460
3 461 460 462
3 461 459 460
3 461 456 459
3 461 463 456
3 461 464 463
3 461 465 464
3 461 466 465
3 461 462 466
3 467 456 463
3 467 455 456
3 467 452 455
3 467 468 452
3 467 469 468
3 467 470 469
3 467 464 470
3 467 463 464
3 471 452 468
3 471 451 452
3 471 450 451
3 471 472 450
3 471 473 472
3 471 474 473
3 471 469 474
3 471 468 469
3 475 446 476
3 475 445 446
3 475 293 445
3 475 477 293
3 475 478 477
3 475 476 478
3 479 478 480
3 479 477 478
3 479 293 477
3 479 481 293
3 479 482 481
3 479 480 482
3 483 469 484
3 483 474 469
3 483 473 474
3 483 485 473
3 483 486 485
3 483 487 486
3 483 488 487
3 483 484 488
3 489 464 490
3 489 470 464
3 489 469 470
3 489 484 469
3 489 488 484
3 489 491 488
3 489 492 491
3 489 490 492
3 493 466 494
3 493 465 466
3 493 464 465
3 493 490 464
3 493 492 490
3 493 495 492
3 493 496 495
3 493 494 496
3 497 496 498
3 497 495 496
3 497 492 495
3 497 499 492
3 497 306 499
3 497 314 306
3 497 312 314
3 497 498 312
3 500 492 499
3 500 491 492
3 500 488 491
3 500 501 488
3 500 297 501
3 500 308 297
3 500 306 308
3 500 499 306
3 502 488 501
3 502 487 488
3 502 486 487
3 502 503 486
3 502 300 503
3 502 299 300
3 502 297 299
3 502 501 297
3 504 482 505
3 504 481 482
3 504 293 481
3 504 292 293
3 504 290 292
3 504 505 290
3 506 300 301
3 506 507 300
3 506 508 507
3 506 509 508
3 506 510 509
3 506 511 510
3 506 302 511
3 506 301 302
3 512 508 509
3 512 513 508
3 512 290 513
3 512 291 290
3 512 295 291
3 512 514 295
3 512 510 514
3 512 509 510
3 515 302 328
3 515 511 302
3 515 510 511
3 515 516 510
3 515 517 516
3 515 518 517
3 515 329 518
3 515 328 329
3 519 510 516
3 519 514 510
3 519 295 514
3 519 332 295
3 519 334 332
3 519 520 334
3 519 517 520
3 519 516 517
3 521 329 341
3 521 518 329
3 521 517 518
3 521 522 517
3 521 523 522
3 521 524 523
3 521 342 524
3 521 341 342
3 525 517 522
3 525 520 517
3 525 334 520
3 525 336 334
3 525 338 336
3 525 526 338
3 525 523 526
3 525 522 523
3 527 342 364
3 527 524 342
3 527 523 524
3 527 528 523
3 527 529 528
3 527 530 529
3 527 365 530
3 527 364 365
3 531 523 528
3 531 526 523
3 531 338 526
3 531 368 338
3 531 370 368
3 531 532 370
3 531 529 532
3 531 528 529
3 533 365 377
3 533 530 365
3 533 529 530
3 533 534 529
3 533 535 534
3 533 536 535
3 533 378 536
3 533 377 378
3 537 529 534
3 537 532 529
3 537 370 532
3 537 372 370
3 537 374 372
3 537 538 374
3 537 535 538
3 537 534 535
3 539 378 400
3 539 536 378
3 539 535 536
3 539 540 535
3 539 541 540
3 539 542 541
3 539 401 542
3 539 400 401
3 543 535 540
3 543 538 535
3 543 374 538
3 543 404 374
3 543 406 404
3 543 544 406
3 543 541 544
3 543 540 541
3 545 401 413
3 545 542 401
3 545 541 542
3 545 546 541
3 545 547 546
3 545 548 547
3 545 414 548
3 545 413 414
3 549 541 546
3 549 544 541
3 549 406 544
3 549 408 406
3 549 410 408
3 549 550 410
3 549 547 550
3 549 546 547
3 551 414 436
3 551 548 414
3 551 547 548
3 551 552 547
3 551 553 552
3 551 554 553
3 551 437 554
3 551 436 437
3 555 547 552
3 555 550 547
3 555 410 550
3 555 440 410
3 555 442 440
3 555 556 442
3 555 553 556
3 555 552 553
3 557 437 449
3 557 554 437
3 557 553 554
3 557 558 553
3 557 559 558
3 557 560 559
3 557 450 560
3 557 449 450
3 561 553 558
3 561 556 553
3 561 442 556
3 561 444 442
3 561 446 444
3 561 562 446
3 561 559 562
3 561 558 559
3 563 450 472
3 563 560 450
3 563 559 560
3 563 564 559
3 563 565 564
3 563 566 565
3 563 473 566
3 563 472 473
3 567 559 564
3 567 562 559
3 567 446 562
3 567 476 446
3 567 478 476
3 567 568 478
3 567 565 568
3 567 564 565
3 569 473 485
3 569 566 473
3 569 565 566
3 569 570 565
3 569 571 570
3 569 572 571
3 569 486 572
3 569 485 486
3 573 565 570
3 573 568 565
3 573 478 568
3 573 480 478
3 573 482 480
3 573 574 482
3 573 571 574
3 573 570 571
3 575 486 503
3 575 572 486
3 575 571 572
3 575 576 571
3 575 508 576
3 575 507 508
3 575 300 507
3 575 503 300
3 577 571 576
3 577 574 571
3 577 482 574
3 577 505 482
3 577 290 505
3 577 513 290
3 577 508 513
3 577 576 508
3 578 171 167
3 578 579 171
3 578 460 579
3 578 462 460
3 578 466 462
3 578 580 466
3 578 165 580
3 578 167 165
3 581 165 161
3 581 580 165
3 581 466 580
3 581 494 466
3 581 496 494
3 581 582 496
3 581 159 582
3 581 161 159
3 583 159 155
3 583 582 159
3 583 496 582
3 583 498 496
3 583 312 498
3 583 584 312
3 583 153 584
3 583 155 153
3 585 146 586
3 585 147 146
3 585 153 147
3 585 584 153
3 585 312 584
3 585 313 312
3 585 316 313
3 585 586 316
3 587 146 216
3 587 586 146
3 587 316 586
3 587 318 316
3 587 322 318
3 587 588 322
3 587 213 588
3 587 216 213
3 589 213 209
3 589 588 213
3 589 322 588
3 589 350 322
3 589 352 350
3 589 590 352
3 589 207 590
3 589 209 207
3 591 207 203
3 591 590 207
3 591 352 590
3 591 354 352
3 591 358 354
3 591 592 358
3 591 201 592
3 591 203 201
3 593 201 197
3 593 592 201
3 593 358 592
3 593 386 358
3 593 388 386
3 593 594 388
3 593 195 594
3 593 197 195
3 595 195 191
3 595 594 195
3 595 388 594
3 595 390 388
3 595 394 390
3 595 596 394
3 595 189 596
3 595 191 189
3 597 189 185
3 597 596 189
3 597 394 596
3 597 422 394
3 597 424 422
3 597 598 424
3 597 183 598
3 597 185 183
3 599 183 179
3 599 598 183
3 599 424 598
3 599 426 424
3 599 430 426
3 599 600 430
3 599 177 600
3 599 179 177
3 601 177 173
3 601 600 177
3 601 430 600
3 601 458 430
3 601 460 458
3 601 579 460
3 601 171 579
3 601 173 171
