ply
format ascii 1.0
element vertex 650
property float x
property float y
property float z
property float nx
property float ny
property float nz
property float u
property float v
element face 1296
property list uchar int vertex_indices
end_header
1.783643 1.302801 3.24231 0.00290010235 -0.999935288 -0.0110003882 0 0
1.780541 1.302888 3.237664 0 -0.997404608 -0.0720003326 0 0
1.784837 1.302889 3.237852 0.0198012174 -0.997061301 -0.0740045499 0 0
1.780541 1.302801 3.243445 0 -0.999976196 -0.00689983575 0 0
1.780541 1.302797 3.253885 0 -1 0 0 0
1.785761 1.302801 3.244844 0.00339991915 -0.999976221 -0.00599985733 0 0
1.788652 1.302888 3.239837 0.0360002871 -0.997407954 -0.0623004968 0 0
1.790455 1.321233 3.216888 0.218296688 -0.537091852 -0.81478764 0 0
1.780541 1.329474 3.211292 0 -0.369096462 -0.929391092 0 0
1.791558 1.329474 3.212768 0.240494458 -0.368991497 -0.897779311 0 0
1.780541 1.321233 3.215559 0 -0.537179563 -0.843467911 0 0
1.780541 1.314084 3.221163 0 -0.6874922 -0.726191761 0 0
1.789005 1.314084 3.222297 0.187906819 -0.687424947 -0.701525459 0 0
1.796902 1.314084 3.225547 0.363097627 -0.687495507 -0.62889589 0 0
1.799704 1.321233 3.220694 0.421690516 -0.537187919 -0.730483572 0 0
1.801837 1.329474 3.216998 0.464689566 -0.369091712 -0.804881927 0 0
1.792235 1.338424 3.210244 0.254205359 -0.187403951 -0.948820001 0 0
1.780541 1.347728 3.207783 0 0 -1 0 0
1.792466 1.347728 3.20938 0.258807732 0 -0.965928858 0 0
1.780541 1.338424 3.208677 0 -0.187396997 -0.982284259 0 0
1.803145 1.338424 3.214734 0.491102834 -0.187401081 -0.850704909 0 0
1.803592 1.347728 3.213959 0.500011 0 -0.866019053 0 0
1.792235 1.357032 3.210244 0.254205359 0.187403951 -0.948820001 0 0
1.780541 1.365982 3.211292 0 0.369096462 -0.929391092 0 0
1.791558 1.365982 3.212768 0.240494458 0.368991497 -0.897779311 0 0
1.780541 1.357032 3.208677 0 0.187396997 -0.982284259 0 0
1.803145 1.357032 3.214734 0.491144615 0.187417025 -0.850677275 0 0
1.801837 1.365982 3.216998 0.464689566 0.369091712 -0.804881927 0 0
1.790455 1.374223 3.216888 0.220501485 0.523803528 -0.822805542 0 0
1.780541 1.380892 3.220442 0 0.656888961 -0.753987329 0 0
1.789192 1.380892 3.221601 0.19509836 0.65679448 -0.728393878 0 0
1.780541 1.374223 3.215559 0 0.523935603 -0.851757879 0 0
1.799704 1.374223 3.220694 0.425917936 0.523922063 -0.737631062 0 0
1.797263 1.380892 3.224922 0.377014135 0.656924629 -0.652924479 0 0
1.788038 1.385125 3.225904 0.164714552 0.771168132 -0.614954331 0 0
1.780541 1.387385 3.228127 0 0.831156849 -0.556038032 0 0
1.787204 1.387385 3.22902 0.143910646 0.83106148 -0.537239744 0 0
1.780541 1.385125 3.2249 0 0.77119653 -0.636597135 0 0
1.795033 1.385125 3.228783 0.31821076 0.771226079 -0.551318643 0 0
1.79342 1.387385 3.231578 0.277997263 0.831191817 -0.48149526 0 0
1.801024 1.385125 3.233402 0.450230333 0.771151954 -0.450130326 0 0
1.798743 1.387385 3.235682 0.393313613 0.831028762 -0.393313613 0 0
1.804175 1.380892 3.230251 0.533202474 0.656803048 -0.533202474 0 0
1.809504 1.380892 3.237163 0.652924479 0.656924629 -0.377014135 0 0
1.805643 1.385125 3.239392 0.551318643 0.771226079 -0.31821076 0 0
1.802848 1.387385 3.241006 0.48149526 0.831191817 -0.277997263 0 0
1.807625 1.374223 3.226801 0.602331015 0.523826973 -0.602331015 0 0
1.81064 1.365982 3.223785 0.657205034 0.369002827 -0.657205034 0 0
1.817427 1.365982 3.232588 0.804881927 0.369091712 -0.464689566 0 0
1.813732 1.374223 3.234722 0.737631062 0.523922063 -0.425917936 0 0
1.812488 1.357032 3.221937 0.694580177 0.187394652 -0.694580177 0 0
1.81312 1.347728 3.221305 0.707106781 0 -0.707106781 0 0
1.820466 1.347728 3.230834 0.866019053 0 -0.500011 0 0
1.819692 1.357032 3.231281 0.850704909 0.187401081 -0.491102834 0 0
1.812488 1.338424 3.221937 0.694580177 -0.187394652 -0.694580177 0 0
1.81064 1.329474 3.223785 0.657205034 -0.369002827 -0.657205034 0 0
1.817427 1.329474 3.232588 0.804881927 -0.369091712 -0.464689566 0 0
1.819692 1.338424 3.231281 0.850704909 -0.187401081 -0.491102834 0 0
1.807625 1.321233 3.226801 0.596469906 -0.537072903 -0.596469906 0 0
1.803665 1.314084 3.230761 0.513529976 -0.687440127 -0.513529976 0 0
1.808879 1.314084 3.237524 0.62889589 -0.687495507 -0.363097627 0 0
1.813732 1.321233 3.234722 0.730483572 -0.537187919 -0.421690516 0 0
1.789014 1.302801 3.245412 0.00800028798 -0.999935993 -0.00800028798 0 0
1.792278 1.302889 3.242148 0.0542031363 -0.997057691 -0.0542031363 0 0
1.789582 1.302801 3.248665 0.00599985733 -0.999976221 -0.00339991915 0 0
1.794589 1.302888 3.245774 0.0623004968 -0.997407954 -0.0360002871 0 0
1.792115 1.302801 3.250783 0.0110003882 -0.999935288 -0.00290010235 0 0
1.796574 1.302889 3.249588 0.0740045499 -0.997061301 -0.0198012174 0 0
1.79098 1.302801 3.253885 0.00689983575 -0.999976196 0 0 0
1.796762 1.302888 3.253885 0.0720003326 -0.997404608 0 0 0
1.817538 1.321233 3.243971 0.81478764 -0.537091852 -0.218296688 0 0
1.821658 1.329474 3.242867 0.897779311 -0.368991497 -0.240494458 0 0
1.812129 1.314084 3.245421 0.701525459 -0.687424947 -0.187906819 0 0
1.813263 1.314084 3.253885 0.726191761 -0.6874922 0 0 0
1.818866 1.321233 3.253885 0.843467911 -0.537179563 0 0 0
1.823134 1.329474 3.253885 0.929391092 -0.369096462 0 0 0
1.824182 1.338424 3.242191 0.948820001 -0.187403951 -0.254205359 0 0
1.825045 1.347728 3.24196 0.965928858 0 -0.258807732 0 0
1.825749 1.338424 3.253885 0.982284259 -0.187396997 0 0 0
1.826643 1.347728 3.253885 1 0 0 0 0
1.824182 1.357032 3.242191 0.948820001 0.187403951 -0.254205359 0 0
1.821658 1.365982 3.242867 0.897779311 0.368991497 -0.240494458 0 0
1.825749 1.357032 3.253885 0.982284259 0.187396997 0 0 0
1.823134 1.365982 3.253885 0.929391092 0.369096462 0 0 0
1.817538 1.374223 3.243971 0.822805542 0.523803528 -0.220501485 0 0
1.812825 1.380892 3.245234 0.728379664 0.656781663 -0.19519455 0 0
1.818866 1.374223 3.253885 0.851785328 0.523890976 0 0 0
1.813984 1.380892 3.253885 0.753987329 0.656888961 0 0 0
1.808521 1.385125 3.246387 0.614944198 0.771155425 -0.164811845 0 0
1.805406 1.387385 3.247222 0.537232009 0.831049515 -0.14400858 0 0
1.809526 1.385125 3.253885 0.636537655 0.771245624 0 0 0
1.806299 1.387385 3.253885 0.555991816 0.831187765 0 0 0
1.808521 1.385125 3.261382 0.614944198 0.771155425 0.164811845 0 0
1.805406 1.387385 3.260547 0.537232009 0.831049515 0.14400858 0 0
1.812825 1.380892 3.262535 0.728379664 0.656781663 0.19519455 0 0
1.809504 1.380892 3.270606 0.652981844 0.656881736 0.376989518 0 0
1.805643 1.385125 3.268377 0.551301097 0.771201535 0.318300633 0 0
1.802848 1.387385 3.266763 0.481535283 0.831160901 0.278020371 0 0
1.817538 1.374223 3.263798 0.822805542 0.523803528 0.220501485 0 0
1.821658 1.365982 3.264902 0.897779311 0.368991497 0.240494458 0 0
1.817427 1.365982 3.275181 0.804881927 0.369091712 0.464689566 0 0
1.813732 1.374223 3.273047 0.737631062 0.523922063 0.425917936 0 0
1.824182 1.357032 3.265578 0.948820001 0.187403951 0.254205359 0 0
1.825045 1.347728 3.265809 0.965928858 0 0.258807732 0 0
1.820466 1.347728 3.276935 0.866019053 0 0.500011 0 0
1.819692 1.357032 3.276488 0.850704909 0.187401081 0.491102834 0 0
1.824182 1.338424 3.265578 0.948820001 -0.187403951 0.254205359 0 0
1.821658 1.329474 3.264902 0.897779311 -0.368991497 0.240494458 0 0
1.817427 1.329474 3.275181 0.804881927 -0.369091712 0.464689566 0 0
1.819692 1.338424 3.276488 0.850704909 -0.187401081 0.491102834 0 0
1.817538 1.321233 3.263798 0.81478764 -0.537091852 0.218296688 0 0
1.812129 1.314084 3.262348 0.701525459 -0.687424947 0.187906819 0 0
1.808879 1.314084 3.270245 0.62889589 -0.687495507 0.363097627 0 0
1.813732 1.321233 3.273047 0.730483572 -0.537187919 0.421690516 0 0
1.792115 1.302801 3.256986 0.0110003882 -0.999935288 0.00290010235 0 0
1.796574 1.302889 3.258181 0.0740045499 -0.997061301 0.0198012174 0 0
1.789582 1.302801 3.259104 0.00599985526 -0.999975876 0.00349991557 0 0
1.794589 1.302888 3.261995 0.0623004968 -0.997407954 0.0360002871 0 0
1.789014 1.302801 3.262357 0.00800028798 -0.999935993 0.00800028798 0 0
1.792278 1.302889 3.265621 0.0542031363 -0.997057691 0.0542031363 0 0
1.785761 1.302801 3.262925 0.00339991915 -0.999976221 0.00599985733 0 0
1.788652 1.302888 3.267932 0.0360002871 -0.997407954 0.0623004968 0 0
1.807625 1.321233 3.280968 0.596469906 -0.537072903 0.596469906 0 0
1.81064 1.329474 3.283984 0.657205034 -0.369002827 0.657205034 0 0
1.803665 1.314084 3.277008 0.513529976 -0.687440127 0.513529976 0 0
1.796902 1.314084 3.282222 0.363097627 -0.687495507 0.62889589 0 0
1.799704 1.321233 3.287075 0.421690516 -0.537187919 0.730483572 0 0
1.801837 1.329474 3.290771 0.464689566 -0.369091712 0.804881927 0 0
1.812488 1.338424 3.285832 0.694580177 -0.187394652 0.694580177 0 0
1.81312 1.347728 3.286464 0.707106781 0 0.707106781 0 0
1.803145 1.338424 3.293035 0.491102834 -0.187401081 0.850704909 0 0
1.803592 1.347728 3.29381 0.500011 0 0.866019053 0 0
1.812488 1.357032 3.285832 0.694580177 0.187394652 0.694580177 0 0
1.81064 1.365982 3.283984 0.657205034 0.369002827 0.657205034 0 0
1.803145 1.357032 3.293035 0.491102834 0.187401081 0.850704909 0 0
1.801837 1.365982 3.290771 0.464689566 0.369091712 0.804881927 0 0
1.807625 1.374223 3.280968 0.602331015 0.523826973 0.602331015 0 0
1.804175 1.380892 3.277518 0.533202474 0.656803048 0.533202474 0 0
1.799704 1.374223 3.287075 0.425917936 0.523922063 0.737631062 0 0
1.797263 1.380892 3.282847 0.377014135 0.656924629 0.652924479 0 0
1.801024 1.385125 3.274368 0.450130326 0.771151954 0.450230333 0 0
1.798743 1.387385 3.272087 0.393313613 0.831028762 0.393313613 0 0
1.795033 1.385125 3.278986 0.31821076 0.771226079 0.551318643 0 0
1.79342 1.387385 3.276191 0.277997263 0.831191817 0.48149526 0 0
1.788038 1.385125 3.281865 0.164811845 0.771155425 0.614944198 0 0
1.787204 1.387385 3.278749 0.14400858 0.831049515 0.537232009 0 0
1.789192 1.380892 3.286169 0.19509836 0.65679448 0.728393878 0 0
1.780541 1.380892 3.287328 0 0.656888961 0.753987329 0 0
1.780541 1.385125 3.282869 0 0.77119653 0.636597135 0 0
1.780541 1.387385 3.279642 0 0.831156849 0.556038032 0 0
1.790454 1.374223 3.290881 0.220501485 0.523803528 0.822805542 0 0
1.791558 1.365982 3.295001 0.240494458 0.368991497 0.897779311 0 0
1.780541 1.365982 3.296477 0 0.369096462 0.929391092 0 0
1.780541 1.374223 3.29221 0 0.523935603 0.851757879 0 0
1.792235 1.357032 3.297525 0.254205359 0.187403951 0.948820001 0 0
1.792466 1.347728 3.298389 0.258807732 0 0.965928858 0 0
1.780541 1.347728 3.299986 0 0 1 0 0
1.780541 1.357032 3.299092 0 0.187396997 0.982284259 0 0
1.792235 1.338424 3.297525 0.254205359 -0.187403951 0.948820001 0 0
1.791558 1.329474 3.295001 0.240494458 -0.368991497 0.897779311 0 0
1.780541 1.329474 3.296477 0 -0.369096462 0.929391092 0 0
1.780541 1.338424 3.299092 0 -0.187396997 0.982284259 0 0
1.790454 1.321233 3.290881 0.218296688 -0.537091852 0.81478764 0 0
1.789005 1.314084 3.285472 0.187906819 -0.687424947 0.701525459 0 0
1.780541 1.314084 3.286606 0 -0.6874922 0.726191761 0 0
1.780541 1.321233 3.29221 0 -0.537179563 0.843467911 0 0
1.783643 1.302801 3.265459 0.00290010235 -0.999935288 0.0110003882 0 0
1.784837 1.302889 3.269917 0.0198012174 -0.997061301 0.0740045499 0 0
1.780541 1.302801 3.264324 0 -0.999976196 0.00689983575 0 0
1.780541 1.302888 3.270105 0 -0.997404608 0.0720003326 0 0
1.77744 1.302801 3.265459 -0.00290010235 -0.999935288 0.0110003882 0 0
1.776245 1.302889 3.269917 -0.0198012174 -0.997061301 0.0740045499 0 0
1.775322 1.302801 3.262925 -0.00339991915 -0.999976221 0.00599985733 0 0
1.772431 1.302888 3.267932 -0.0360002871 -0.997407954 0.0623004968 0 0
1.770628 1.321233 3.290881 -0.218296688 -0.537091852 0.81478764 0 0
1.769524 1.329474 3.295001 -0.240494458 -0.368991497 0.897779311 0 0
1.772077 1.314084 3.285472 -0.187906819 -0.687424947 0.701525459 0 0
1.76418 1.314084 3.282222 -0.363097627 -0.687495507 0.62889589 0 0
1.761379 1.321233 3.287075 -0.421690516 -0.537187919 0.730483572 0 0
1.759245 1.329474 3.290771 -0.464689566 -0.369091712 0.804881927 0 0
1.768848 1.338424 3.297525 -0.254205359 -0.187403951 0.948820001 0 0
1.768616 1.347728 3.298389 -0.258807732 0 0.965928858 0 0
1.757938 1.338424 3.293035 -0.491102834 -0.187401081 0.850704909 0 0
1.75749 1.347728 3.29381 -0.500011 0 0.866019053 0 0
1.768848 1.357032 3.297525 -0.254205359 0.187403951 0.948820001 0 0
1.769524 1.365982 3.295001 -0.240494458 0.368991497 0.897779311 0 0
1.757938 1.357032 3.293035 -0.491102834 0.187401081 0.850704909 0 0
1.759245 1.365982 3.290771 -0.464689566 0.369091712 0.804881927 0 0
1.770628 1.374223 3.290881 -0.220501485 0.523803528 0.822805542 0 0
1.771891 1.380892 3.286169 -0.19509836 0.65679448 0.728393878 0 0
1.761379 1.374223 3.287075 -0.425917936 0.523922063 0.737631062 0 0
1.76382 1.380892 3.282847 -0.377014135 0.656924629 0.652924479 0 0
1.773044 1.385125 3.281865 -0.164811845 0.771155425 0.614944198 0 0
1.773879 1.387385 3.278749 -0.14400858 0.831049515 0.537232009 0 0
1.766049 1.385125 3.278986 -0.31821076 0.771226079 0.551318643 0 0
1.767663 1.387385 3.276191 -0.277997263 0.831191817 0.48149526 0 0
1.760058 1.385125 3.274368 -0.450130326 0.771151954 0.450230333 0 0
1.762339 1.387385 3.272087 -0.393313613 0.831028762 0.393313613 0 0
1.756908 1.380892 3.277518 -0.533202474 0.656803048 0.533202474 0 0
1.751579 1.380892 3.270606 -0.652924479 0.656924629 0.377014135 0 0
1.75544 1.385125 3.268377 -0.551318643 0.771226079 0.31821076 0 0
1.758235 1.387385 3.266763 -0.48149526 0.831191817 0.277997263 0 0
1.753458 1.374223 3.280968 -0.602331015 0.523826973 0.602331015 0 0
1.750442 1.365982 3.283984 -0.657205034 0.369002827 0.657205034 0 0
1.743655 1.365982 3.275181 -0.804881927 0.369091712 0.464689566 0 0
1.747351 1.374223 3.273047 -0.737631062 0.523922063 0.425917936 0 0
1.748594 1.357032 3.285832 -0.694580177 0.187394652 0.694580177 0 0
1.747962 1.347728 3.286464 -0.707106781 0 0.707106781 0 0
1.740616 1.347728 3.276935 -0.866019053 0 0.500011 0 0
1.74139 1.357032 3.276488 -0.850704909 0.187401081 0.491102834 0 0
1.748594 1.338424 3.285832 -0.694580177 -0.187394652 0.694580177 0 0
1.750442 1.329474 3.283984 -0.657205034 -0.369002827 0.657205034 0 0
1.743655 1.329474 3.275181 -0.804881927 -0.369091712 0.464689566 0 0
1.74139 1.338424 3.276488 -0.850704909 -0.187401081 0.491102834 0 0
1.753458 1.321233 3.280968 -0.596469906 -0.537072903 0.596469906 0 0
1.757417 1.314084 3.277008 -0.513529976 -0.687440127 0.513529976 0 0
1.752204 1.314084 3.270245 -0.62889589 -0.687495507 0.363097627 0 0
1.747351 1.321233 3.273047 -0.730483572 -0.537187919 0.421690516 0 0
1.772068 1.302801 3.262357 -0.00800028798 -0.999935993 0.00800028798 0 0
1.768804 1.302889 3.265621 -0.0542031363 -0.997057691 0.0542031363 0 0
1.771501 1.302801 3.259104 -0.00599985733 -0.999976221 0.00339991915 0 0
1.766493 1.302888 3.261995 -0.0623004968 -0.997407954 0.0360002871 0 0
1.768967 1.302801 3.256986 -0.0110003882 -0.999935288 0.00290010235 0 0
1.764508 1.302889 3.258181 -0.0740045499 -0.997061301 0.0198012174 0 0
1.770102 1.302801 3.253885 -0.00689983575 -0.999976196 0 0 0
1.76432 1.302888 3.253885 -0.0720003326 -0.997404608 0 0 0
1.743544 1.321233 3.263798 -0.81478764 -0.537091852 0.218296688 0 0
1.739425 1.329474 3.264902 -0.897779311 -0.368991497 0.240494458 0 0
1.748954 1.314084 3.262348 -0.701525459 -0.687424947 0.187906819 0 0
1.74782 1.314084 3.253885 -0.726191761 -0.6874922 0 0 0
1.742216 1.321233 3.253885 -0.843467911 -0.537179563 0 0 0
1.737949 1.329474 3.253885 -0.929391092 -0.369096462 0 0 0
1.7369 1.338424 3.265578 -0.948820001 -0.187403951 0.254205359 0 0
1.736037 1.347728 3.265809 -0.965928858 0 0.258807732 0 0
1.735334 1.338424 3.253885 -0.982284259 -0.187396997 0 0 0
1.734439 1.347728 3.253885 -1 0 0 0 0
1.7369 1.357032 3.265578 -0.948820001 0.187403951 0.254205359 0 0
1.739425 1.365982 3.264902 -0.897779311 0.368991497 0.240494458 0 0
1.735334 1.357032 3.253885 -0.982284259 0.187396997 0 0 0
1.737949 1.365982 3.253885 -0.929391092 0.369096462 0 0 0
1.743544 1.374223 3.263798 -0.822805542 0.523803528 0.220501485 0 0
1.748257 1.380892 3.262535 -0.728379664 0.656781663 0.19519455 0 0
1.742216 1.374223 3.253885 -0.851785328 0.523890976 0 0 0
1.747098 1.380892 3.253885 -0.753987329 0.656888961 0 0 0
1.752561 1.385125 3.261382 -0.614944198 0.771155425 0.164811845 0 0
1.755676 1.387385 3.260547 -0.537232009 0.831049515 0.14400858 0 0
1.751557 1.385125 3.253885 -0.636597135 0.77119653 0 0 0
1.754784 1.387385 3.253885 -0.555991816 0.831187765 0 0 0
1.752561 1.385125 3.246387 -0.614944198 0.771155425 -0.164811845 0 0
1.755676 1.387385 3.247222 -0.537232009 0.831049515 -0.14400858 0 0
1.748257 1.380892 3.245234 -0.728379664 0.656781663 -0.19519455 0 0
1.751579 1.380892 3.237163 -0.652924479 0.656924629 -0.377014135 0 0
1.75544 1.385125 3.239392 -0.551318643 0.771226079 -0.31821076 0 0
1.758235 1.387385 3.241006 -0.48149526 0.831191817 -0.277997263 0 0
1.743544 1.374223 3.243971 -0.822805542 0.523803528 -0.220501485 0 0
1.739425 1.365982 3.242867 -0.897779311 0.368991497 -0.240494458 0 0
1.743655 1.365982 3.232588 -0.804881927 0.369091712 -0.464689566 0 0
1.747351 1.374223 3.234722 -0.737631062 0.523922063 -0.425917936 0 0
1.7369 1.357032 3.242191 -0.948820001 0.187403951 -0.254205359 0 0
1.736037 1.347728 3.24196 -0.965928858 0 -0.258807732 0 0
1.740616 1.347728 3.230834 -0.866019053 0 -0.500011 0 0
1.74139 1.357032 3.231281 -0.850704909 0.187401081 -0.491102834 0 0
1.7369 1.338424 3.242191 -0.948820001 -0.187403951 -0.254205359 0 0
1.739425 1.329474 3.242867 -0.897779311 -0.368991497 -0.240494458 0 0
1.743655 1.329474 3.232588 -0.804881927 -0.369091712 -0.464689566 0 0
1.74139 1.338424 3.231281 -0.850704909 -0.187401081 -0.491102834 0 0
1.743544 1.321233 3.243971 -0.81478764 -0.537091852 -0.218296688 0 0
1.748954 1.314084 3.245421 -0.701525459 -0.687424947 -0.187906819 0 0
1.752204 1.314084 3.237524 -0.62889589 -0.687495507 -0.363097627 0 0
1.747351 1.321233 3.234722 -0.730483572 -0.537187919 -0.421690516 0 0
1.768967 1.302801 3.250783 -0.0110003882 -0.999935288 -0.00290010235 0 0
1.764508 1.302889 3.249588 -0.0740045499 -0.997061301 -0.0198012174 0 0
1.771501 1.302801 3.248665 -0.00599985526 -0.999975876 -0.00349991557 0 0
1.766493 1.302888 3.245774 -0.0623004968 -0.997407954 -0.0360002871 0 0
1.772068 1.302801 3.245412 -0.00800028798 -0.999935993 -0.00800028798 0 0
1.768804 1.302889 3.242148 -0.0542031363 -0.997057691 -0.0542031363 0 0
1.775322 1.302801 3.244844 -0.00339991915 -0.999976221 -0.00599985733 0 0
1.772431 1.302888 3.239837 -0.0360002871 -0.997407954 -0.0623004968 0 0
1.753458 1.321233 3.226801 -0.596469906 -0.537072903 -0.596469906 0 0
1.750442 1.329474 3.223785 -0.657205034 -0.369002827 -0.657205034 0 0
1.757418 1.314084 3.230761 -0.513529976 -0.687440127 -0.513529976 0 0
1.76418 1.314084 3.225547 -0.363097627 -0.687495507 -0.62889589 0 0
1.761379 1.321233 3.220694 -0.421690516 -0.537187919 -0.730483572 0 0
1.759245 1.329474 3.216998 -0.464689566 -0.369091712 -0.804881927 0 0
1.748594 1.338424 3.221937 -0.694580177 -0.187394652 -0.694580177 0 0
1.747962 1.347728 3.221305 -0.707106781 0 -0.707106781 0 0
1.757938 1.338424 3.214734 -0.491102834 -0.187401081 -0.850704909 0 0
1.75749 1.347728 3.213959 -0.500011 0 -0.866019053 0 0
1.748594 1.357032 3.221937 -0.694580177 0.187394652 -0.694580177 0 0
1.750442 1.365982 3.223785 -0.657205034 0.369002827 -0.657205034 0 0
1.757938 1.357032 3.214734 -0.491144615 0.187417025 -0.850677275 0 0
1.759245 1.365982 3.216998 -0.464689566 0.369091712 -0.804881927 0 0
1.753458 1.374223 3.226801 -0.602331015 0.523826973 -0.602331015 0 0
1.756908 1.380892 3.230251 -0.533202474 0.656803048 -0.533202474 0 0
1.761379 1.374223 3.220694 -0.425917936 0.523922063 -0.737631062 0 0
1.76382 1.380892 3.224922 -0.377014135 0.656924629 -0.652924479 0 0
1.760058 1.385125 3.233402 -0.450130326 0.771151954 -0.450230333 0 0
1.762339 1.387385 3.235682 -0.393313613 0.831028762 -0.393313613 0 0
1.766049 1.385125 3.228783 -0.31821076 0.771226079 -0.551318643 0 0
1.767663 1.387385 3.231578 -0.277997263 0.831191817 -0.48149526 0 0
1.773044 1.385125 3.225904 -0.164714552 0.771168132 -0.614954331 0 0
1.771891 1.380892 3.221601 -0.19509836 0.65679448 -0.728393878 0 0
1.773879 1.387385 3.22902 -0.143910646 0.83106148 -0.537239744 0 0
1.770628 1.374223 3.216888 -0.220501485 0.523803528 -0.822805542 0 0
1.769524 1.365982 3.212768 -0.240494458 0.368991497 -0.897779311 0 0
1.768848 1.357032 3.210244 -0.254205359 0.187403951 -0.948820001 0 0
1.768616 1.347728 3.20938 -0.258807732 0 -0.965928858 0 0
1.768848 1.338424 3.210244 -0.254205359 -0.187403951 -0.948820001 0 0
1.769524 1.329474 3.212768 -0.240494458 -0.368991497 -0.897779311 0 0
1.770628 1.321233 3.216888 -0.218296688 -0.537091852 -0.81478764 0 0
1.772077 1.314084 3.222297 -0.187906819 -0.687424947 -0.701525459 0 0
1.77744 1.302801 3.24231 -0.00290010235 -0.999935288 -0.0110003882 0 0
1.776245 1.302889 3.237852 -0.0198012174 -0.997061301 -0.0740045499 0 0
1.795149 1.378907 3.239276 -0.707075543 0.00939967487 0.707075543 0 0
1.7909 1.385831 3.235942 -0.499720164 0.0336013558 0.865534925 0 0
1.790877 1.378907 3.235982 -0.49998891 0.00939979151 0.865980793 0 0
1.795182 1.385831 3.239243 -0.706707512 0.0336003572 0.706707512 0 0
1.798484 1.385831 3.243526 -0.865532012 0.0337012465 0.499718482 0 0
1.798443 1.378907 3.243549 -0.865980793 0.00939979151 0.49998891 0 0
1.798369 1.37183 3.243592 -0.864841353 0.0522024961 0.499323876 0 0
1.795089 1.37183 3.239337 -0.706142631 0.0522031516 0.706142631 0 0
1.790834 1.37183 3.236057 -0.499323876 0.0522024961 0.864841353 0 0
1.800496 1.378907 3.248538 -0.965886183 0.00939986554 0.258796298 0 0
1.800542 1.385831 3.248525 -0.965396713 0.0336998853 0.258599119 0 0
1.80126 1.385831 3.253885 -0.999431957 0.0337010776 0 0 0
1.801213 1.378907 3.253885 -0.999955814 0.0094005247 0 0 0
1.801127 1.37183 3.253885 -0.998636551 0.0522019106 0 0 0
1.800414 1.37183 3.24856 -0.964599879 0.0521999935 0.258499968 0 0
1.800496 1.378907 3.259232 -0.965886183 0.00939986554 -0.258796298 0 0
1.800542 1.385831 3.259244 -0.965399961 0.0335999987 -0.25859999 0 0
1.798484 1.385831 3.264244 -0.865532012 0.0337012465 -0.499718482 0 0
1.798443 1.378907 3.26422 -0.865980793 0.00939979151 -0.49998891 0 0
1.798369 1.37183 3.264178 -0.864841353 0.0522024961 -0.499323876 0 0
1.800414 1.37183 3.259209 -0.964624811 0.0522013426 -0.258406646 0 0
1.795149 1.378907 3.268493 -0.707075543 0.00939967487 -0.707075543 0 0
1.795182 1.385831 3.268526 -0.706707512 0.0336003572 -0.706707512 0 0
1.7909 1.385831 3.271827 -0.499720164 0.0336013558 -0.865534925 0 0
1.790877 1.378907 3.271787 -0.49998891 0.00939979151 -0.865980793 0 0
1.790834 1.37183 3.271713 -0.499323876 0.0522024961 -0.864841353 0 0
1.795089 1.37183 3.268432 -0.706142631 0.0522031516 -0.706142631 0 0
1.785888 1.378907 3.27384 -0.258796298 0.00939986554 -0.965886183 0 0
1.7859 1.385831 3.273885 -0.25859999 0.0335999987 -0.965399961 0 0
1.780541 1.385831 3.274603 0 0.0337010776 -0.999431957 0 0
1.780541 1.378907 3.274556 0 0.0094005247 -0.999955814 0 0
1.780541 1.37183 3.274471 0 0.0522019106 -0.998636551 0 0
1.785866 1.37183 3.273757 -0.258406646 0.0522013426 -0.964624811 0 0
1.775194 1.378907 3.27384 0.258796298 0.00939986554 -0.965886183 0 0
1.775182 1.385831 3.273885 0.25859999 0.0335999987 -0.965399961 0 0
1.770182 1.385831 3.271827 0.499720164 0.0336013558 -0.865534925 0 0
1.770205 1.378907 3.271787 0.49998891 0.00939979151 -0.865980793 0 0
1.770248 1.37183 3.271713 0.499323876 0.0522024961 -0.864841353 0 0
1.775216 1.37183 3.273757 0.258407994 0.0521016118 -0.964629841 0 0
1.765933 1.378907 3.268493 0.707075543 0.00939967487 -0.707075543 0 0
1.7659 1.385831 3.268526 0.706707512 0.0336003572 -0.706707512 0 0
1.762599 1.385831 3.264244 0.865532012 0.0337012465 -0.499718482 0 0
1.762639 1.378907 3.26422 0.865980793 0.00939979151 -0.49998891 0 0
1.762713 1.37183 3.264178 0.864841353 0.0522024961 -0.499323876 0 0
1.765993 1.37183 3.268432 0.706142631 0.0522031516 -0.706142631 0 0
1.760586 1.378907 3.259232 0.965886183 0.00939986554 -0.258796298 0 0
1.760541 1.385831 3.259244 0.965399961 0.0335999987 -0.25859999 0 0
1.759823 1.385831 3.253885 0.999431957 0.0337010776 0 0 0
1.759869 1.378907 3.253885 0.999955814 0.0094005247 0 0 0
1.759955 1.37183 3.253885 0.998636551 0.0522019106 0 0 0
1.760669 1.37183 3.259209 0.964624811 0.0522013426 -0.258406646 0 0
1.760586 1.378907 3.248538 0.965886183 0.00939986554 0.258796298 0 0
1.760541 1.385831 3.248525 0.965399961 0.0335999987 0.25859999 0 0
1.762599 1.385831 3.243526 0.865532012 0.0337012465 0.499718482 0 0
1.762639 1.378907 3.243549 0.865980793 0.00939979151 0.49998891 0 0
1.762713 1.37183 3.243592 0.864841353 0.0522024961 0.499323876 0 0
1.760669 1.37183 3.24856 0.964599879 0.0521999935 0.258499968 0 0
1.765933 1.378907 3.239276 0.707075543 0.00939967487 0.707075543 0 0
1.7659 1.385831 3.239243 0.706707512 0.0336003572 0.706707512 0 0
1.770182 1.385831 3.235942 0.499720164 0.0336013558 0.865534925 0 0
1.770205 1.378907 3.235982 0.49998891 0.00939979151 0.865980793 0 0
1.770248 1.37183 3.236057 0.499323876 0.0522024961 0.864841353 0 0
1.765993 1.37183 3.239337 0.706142631 0.0522031516 0.706142631 0 0
1.775194 1.378907 3.233929 0.258796298 0.00939986554 0.965886183 0 0
1.775182 1.385831 3.233884 0.25859999 0.0335999987 0.965399961 0 0
1.780541 1.385831 3.233166 0 0.0337010776 0.999431957 0 0
1.780541 1.378907 3.233213 0 0.0094005247 0.999955814 0 0
1.780541 1.37183 3.233299 0 0.0522019106 0.998636551 0 0
1.775216 1.37183 3.234012 0.258501316 0.0521002652 0.96460491 0 0
1.785888 1.378907 3.233929 -0.258796298 0.00939986554 0.965886183 0 0
1.7859 1.385831 3.233884 -0.25859999 0.0335999987 0.965399961 0 0
1.785866 1.37183 3.234012 -0.258501316 0.0521002652 0.96460491 0 0
1.7858 1.369061 3.23426 -0.198707096 0.640822884 0.74152648 0 0
1.780541 1.369061 3.233556 0 0.639219931 0.769023979 0 0
1.790705 1.369061 3.236279 -0.384529791 0.639149517 0.666051601 0 0
1.789529 1.3686 3.238318 -0.0614015756 0.992425466 0.10640273 0 0
1.785302 1.3686 3.236117 -0.0338995691 0.9913874 0.126498392 0 0
1.780541 1.3686 3.235909 0 0.992418772 0.122902325 0 0
1.775283 1.369061 3.23426 0.198707096 0.640822884 0.74152648 0 0
1.770377 1.369061 3.236279 0.384529791 0.639149517 0.666051601 0 0
1.77578 1.3686 3.236117 0.0338995691 0.9913874 0.126498392 0 0
1.771554 1.3686 3.238318 0.0614015756 0.992425466 0.10640273 0 0
1.766175 1.369061 3.239519 0.542830312 0.640835785 0.542830312 0 0
1.762936 1.369061 3.24372 0.666009028 0.639208665 0.384505212 0 0
1.767534 1.3686 3.240877 0.092598055 0.991379176 0.0926980529 0 0
1.764974 1.3686 3.244897 0.10640273 0.992425466 0.0614015756 0 0
1.760917 1.369061 3.248626 0.74152648 0.640822884 0.198707096 0 0
1.760213 1.369061 3.253885 0.769073138 0.639160784 0 0 0
1.762773 1.3686 3.249124 0.126498392 0.9913874 0.0338995691 0 0
1.762566 1.3686 3.253885 0.122902325 0.992418772 0 0 0
1.760917 1.369061 3.259143 0.74152648 0.640822884 -0.198707096 0 0
1.762936 1.369061 3.264049 0.666009028 0.639208665 -0.384505212 0 0
1.762773 1.3686 3.258646 0.126498392 0.9913874 -0.0338995691 0 0
1.764974 1.3686 3.262872 0.10640273 0.992425466 -0.0614015756 0 0
1.766175 1.369061 3.26825 0.542830312 0.640835785 -0.542830312 0 0
1.770377 1.369061 3.27149 0.384529791 0.639149517 -0.666051601 0 0
1.767534 1.3686 3.266892 0.0925989129 0.991388361 -0.0925989129 0 0
1.771554 1.3686 3.269451 0.0614015756 0.992425466 -0.10640273 0 0
1.775283 1.369061 3.273509 0.198707096 0.640822884 -0.74152648 0 0
1.780541 1.369061 3.274213 0 0.639219931 -0.769023979 0 0
1.77578 1.3686 3.271652 0.0338995691 0.9913874 -0.126498392 0 0
1.780541 1.3686 3.27186 0 0.992418772 -0.122902325 0 0
1.7858 1.369061 3.273509 -0.198707096 0.640822884 -0.74152648 0 0
1.790705 1.369061 3.27149 -0.384529791 0.639149517 -0.666051601 0 0
1.785302 1.3686 3.271652 -0.0338995691 0.9913874 -0.126498392 0 0
1.789529 1.3686 3.269451 -0.0614015756 0.992425466 -0.10640273 0 0
1.794907 1.369061 3.26825 -0.542830312 0.640835785 -0.542830312 0 0
1.798146 1.369061 3.264049 -0.666009028 0.639208665 -0.384505212 0 0
1.793548 1.3686 3.266892 -0.092598055 0.991379176 -0.0926980529 0 0
1.796108 1.3686 3.262872 -0.10640273 0.992425466 -0.0614015756 0 0
1.800165 1.369061 3.259143 -0.74152648 0.640822884 -0.198707096 0 0
1.80087 1.369061 3.253885 -0.76911399 0.639111626 0 0 0
1.798309 1.3686 3.258646 -0.126498392 0.9913874 -0.0338995691 0 0
1.798516 1.3686 3.253885 -0.122902325 0.992418772 0 0 0
1.800165 1.369061 3.248626 -0.74152648 0.640822884 0.198707096 0 0
1.798146 1.369061 3.24372 -0.666009028 0.639208665 0.384505212 0 0
1.798309 1.3686 3.249124 -0.126498392 0.9913874 0.0338995691 0 0
1.796108 1.3686 3.244897 -0.10640273 0.992425466 0.0614015756 0 0
1.794907 1.369061 3.239519 -0.542830312 0.640835785 0.542830312 0 0
1.793548 1.3686 3.240877 -0.0925989129 0.991388361 0.0925989129 0 0
1.789957 1.368446 3.244469 -0.0127004914 0.999838685 0.0127004914 0 0
1.786341 1.368446 3.243838 -0.00540022773 0.999942168 0.00930039221 0 0
1.790588 1.368446 3.248084 -0.00930039221 0.999942168 0.00540022773 0 0
1.780541 1.368446 3.253885 0 1 0 0 0
1.793403 1.368446 3.250438 -0.0173006878 0.999839749 0.00460018288 0 0
1.792142 1.368446 3.253885 -0.0107004575 0.999942748 0 0 0
1.793403 1.368446 3.257331 -0.0173006878 0.999839749 -0.00460018288 0 0
1.790588 1.368446 3.259685 -0.00930039221 0.999942168 -0.00540022773 0 0
1.789957 1.368446 3.2633 -0.0127004914 0.999838685 -0.0127004914 0 0
1.786341 1.368446 3.263931 -0.00540022773 0.999942168 -0.00930039221 0 0
1.783988 1.368446 3.266747 -0.00460018288 0.999839749 -0.0173006878 0 0
1.780541 1.368446 3.265485 0 0.999942748 -0.0107004575 0 0
1.777095 1.368446 3.266747 0.00460018288 0.999839749 -0.0173006878 0 0
1.774741 1.368446 3.263931 0.00540022773 0.999942168 -0.00930039221 0 0
1.771126 1.368446 3.2633 0.0127004914 0.999838685 -0.0127004914 0 0
1.770495 1.368446 3.259685 0.00930039221 0.999942168 -0.00540022773 0 0
1.767679 1.368446 3.257331 0.0173006878 0.999839749 -0.00460018288 0 0
1.768941 1.368446 3.253885 0.0107004575 0.999942748 0 0 0
1.767679 1.368446 3.250438 0.0173006878 0.999839749 0.00460018288 0 0
1.770495 1.368446 3.248084 0.00930039221 0.999942168 0.00540022773 0 0
1.771126 1.368446 3.244469 0.0127004914 0.999838685 0.0127004914 0 0
1.774741 1.368446 3.243838 0.00540022773 0.999942168 0.00930039221 0 0
1.777095 1.368446 3.241023 0.00460018288 0.999839749 0.0173006878 0 0
1.780541 1.368446 3.242284 0 0.999942748 0.0107004575 0 0
1.783988 1.368446 3.241023 -0.00460018288 0.999839749 0.0173006878 0 0
1.787292 1.308414 3.22869 0.158704207 -0.789920937 -0.5923157 0 0
1.780541 1.308414 3.227786 0 -0.79005175 -0.613040155 0 0
1.780541 1.304631 3.233258 0 -0.8225628 -0.568674282 0 0
1.785877 1.304631 3.233973 0.147202955 -0.82241651 -0.549511032 0 0
1.790854 1.304631 3.236022 0.284292395 -0.822577996 -0.492486826 0 0
1.79359 1.308414 3.231282 0.306515777 -0.790040664 -0.530927328 0 0
1.78532 1.303144 3.23605 0.0964052364 -0.927950403 -0.360019555 0 0
1.780541 1.303144 3.235409 0 -0.927542696 -0.373717203 0 0
1.789779 1.303144 3.237885 0.186908895 -0.927544143 -0.323615401 0 0
1.798985 1.308414 3.235441 0.433608687 -0.789915826 -0.433608687 0 0
1.795117 1.304631 3.239308 0.402309678 -0.822419784 -0.402209675 0 0
1.798404 1.304631 3.243571 0.492411077 -0.822618505 -0.284306396 0 0
1.803143 1.308414 3.240835 0.530927328 -0.790040664 -0.306515777 0 0
1.793597 1.303144 3.240829 0.263604174 -0.927914694 -0.263604174 0 0
1.796541 1.303144 3.244647 0.323615401 -0.927544143 -0.186908895 0 0
1.805735 1.308414 3.247134 0.5923157 -0.789920937 -0.158704207 0 0
1.800453 1.304631 3.248549 0.549511032 -0.82241651 -0.147202955 0 0
1.801167 1.304631 3.253885 0.568674282 -0.8225628 0 0 0
1.80664 1.308414 3.253885 0.613040155 -0.79005175 0 0 0
1.798376 1.303144 3.249106 0.360016082 -0.927941452 -0.0965043109 0 0
1.799016 1.303144 3.253885 0.373717203 -0.927542696 0 0 0
1.805735 1.308414 3.260635 0.5923157 -0.789920937 0.158704207 0 0
1.800453 1.304631 3.25922 0.549511032 -0.82241651 0.147202955 0 0
1.798404 1.304631 3.264198 0.492411077 -0.822618505 0.284306396 0 0
1.803143 1.308414 3.266934 0.530927328 -0.790040664 0.306515777 0 0
1.798376 1.303144 3.258663 0.360016082 -0.927941452 0.0965043109 0 0
1.796541 1.303144 3.263122 0.323615401 -0.927544143 0.186908895 0 0
1.798985 1.308414 3.272328 0.433608687 -0.789915826 0.433608687 0 0
1.795117 1.304631 3.268461 0.402293495 -0.822386702 0.402293495 0 0
1.790854 1.304631 3.271748 0.284292395 -0.822577996 0.492486826 0 0
1.79359 1.308414 3.276487 0.306515777 -0.790040664 0.530927328 0 0
1.793597 1.303144 3.266941 0.263604174 -0.927914694 0.263604174 0 0
1.789779 1.303144 3.269885 0.186812381 -0.927561476 0.323621449 0 0
1.787292 1.308414 3.279079 0.158704207 -0.789920937 0.5923157 0 0
1.785877 1.304631 3.273796 0.147202955 -0.82241651 0.549511032 0 0
1.780541 1.304631 3.274511 0 -0.8225628 0.568674282 0 0
1.780541 1.308414 3.279983 0 -0.79005175 0.613040155 0 0
1.78532 1.303144 3.271719 0.0964052364 -0.927950403 0.360019555 0 0
1.780541 1.303144 3.27236 0 -0.927542696 0.373717203 0 0
1.77379 1.308414 3.279079 -0.158704207 -0.789920937 0.5923157 0 0
1.775206 1.304631 3.273796 -0.147202955 -0.82241651 0.549511032 0 0
1.770228 1.304631 3.271748 -0.284292395 -0.822577996 0.492486826 0 0
1.767492 1.308414 3.276487 -0.306515777 -0.790040664 0.530927328 0 0
1.775762 1.303144 3.271719 -0.0964052364 -0.927950403 0.360019555 0 0
1.771304 1.303144 3.269885 -0.186908895 -0.927544143 0.323615401 0 0
1.762098 1.308414 3.272328 -0.433608687 -0.789915826 0.433608687 0 0
1.765965 1.304631 3.268461 -0.402309678 -0.822419784 0.402209675 0 0
1.762678 1.304631 3.264198 -0.492411077 -0.822618505 0.284306396 0 0
1.757939 1.308414 3.266934 -0.530927328 -0.790040664 0.306515777 0 0
1.767485 1.303144 3.266941 -0.263604174 -0.927914694 0.263604174 0 0
1.764541 1.303144 3.263122 -0.323621449 -0.927561476 0.186812381 0 0
1.755347 1.308414 3.260635 -0.5923157 -0.789920937 0.158704207 0 0
1.76063 1.304631 3.25922 -0.549511032 -0.82241651 0.147202955 0 0
1.759915 1.304631 3.253885 -0.568674282 -0.8225628 0 0 0
1.754443 1.308414 3.253885 -0.613040155 -0.79005175 0 0 0
1.762706 1.303144 3.258663 -0.360016082 -0.927941452 0.0965043109 0 0
1.762066 1.303144 3.253885 -0.373717203 -0.927542696 0 0 0
1.755347 1.308414 3.247134 -0.5923157 -0.789920937 -0.158704207 0 0
1.76063 1.304631 3.248549 -0.549511032 -0.82241651 -0.147202955 0 0
1.762678 1.304631 3.243571 -0.492411077 -0.822618505 -0.284306396 0 0
1.757939 1.308414 3.240835 -0.530927328 -0.790040664 -0.306515777 0 0
1.762706 1.303144 3.249106 -0.360016082 -0.927941452 -0.0965043109 0 0
1.764541 1.303144 3.244647 -0.323621449 -0.927561476 -0.186812381 0 0
1.762098 1.308414 3.235441 -0.433608687 -0.789915826 -0.433608687 0 0
1.765965 1.304631 3.239308 -0.402293495 -0.822386702 -0.402293495 0 0
1.770228 1.304631 3.236022 -0.284315781 -0.822545657 -0.492527338 0 0
1.767492 1.308414 3.231282 -0.306515777 -0.790040664 -0.530927328 0 0
1.767485 1.303144 3.240829 -0.263604174 -0.927914694 -0.263604174 0 0
1.771304 1.303144 3.237885 -0.186908895 -0.927544143 -0.323615401 0 0
1.77379 1.308414 3.22869 -0.158704207 -0.789920937 -0.5923157 0 0
1.775206 1.304631 3.233973 -0.147202955 -0.82241651 -0.549511032 0 0
1.775762 1.303144 3.23605 -0.0964052364 -0.927950403 -0.360019555 0 0
1.786896 1.388138 3.230167 0.0775048593 0.954059817 -0.289418146 0 0
1.792825 1.388138 3.232607 0.150095856 0.953873664 -0.259992822 0 0
1.792552 1.388138 3.233081 0 0.999999995 -9.99999995e-05 0 0
1.786755 1.388138 3.230695 0 1 0 0 0
1.780541 1.388138 3.229862 0 0.999999995 9.99999995e-05 0 0
1.780541 1.388138 3.229316 0 0.953907049 -0.300102218 0 0
1.774186 1.388138 3.230167 -0.0775048593 0.954059817 -0.289418146 0 0
1.774328 1.388138 3.230695 0 1 0 0 0
1.76853 1.388138 3.233081 0 1 0 0 0
1.768257 1.388138 3.232607 -0.150095856 0.953873664 -0.259992822 0 0
1.763179 1.388138 3.236522 -0.211908559 0.954038534 -0.211908559 0 0
1.763565 1.388138 3.236908 0 1 0 0 0
1.759737 1.388138 3.241874 0 1 0 0 0
1.759264 1.388138 3.2416 -0.259992822 0.953873664 -0.150095856 0 0
1.756824 1.388138 3.24753 -0.289418146 0.954059817 -0.0775048593 0 0
1.757351 1.388138 3.247671 0 1 0 0 0
1.756519 1.388138 3.253885 0 1 0 0 0
1.755973 1.388138 3.253885 -0.300193208 0.953878419 0 0 0
1.756824 1.388138 3.26024 -0.289418146 0.954059817 0.0775048593 0 0
1.757351 1.388138 3.260098 0 1 0 0 0
1.759737 1.388138 3.265896 0 1 0 0 0
1.759264 1.388138 3.266169 -0.259992822 0.953873664 0.150095856 0 0
1.763179 1.388138 3.271247 -0.211813043 0.954058748 0.211913049 0 0
1.763565 1.388138 3.270861 0 1 0 0 0
1.76853 1.388138 3.274688 0 0.999999995 9.99999995e-05 0 0
1.768257 1.388138 3.275162 -0.150095856 0.953873664 0.259992822 0 0
1.774186 1.388138 3.277602 -0.0775048593 0.954059817 0.289418146 0 0
1.774328 1.388138 3.277074 0 1 0 0 0
1.780541 1.388138 3.277907 0 0.999999995 -9.99999995e-05 0 0
1.780541 1.388138 3.278453 0 0.953907049 0.300102218 0 0
1.786896 1.388138 3.277602 0.0775048593 0.954059817 0.289418146 0 0
1.786755 1.388138 3.277074 0 1 0 0 0
1.792552 1.388138 3.274688 0 1 0 0 0
1.792825 1.388138 3.275162 0.150095856 0.953873664 0.259992822 0 0
1.797903 1.388138 3.271247 0.211908559 0.954038534 0.211908559 0 0
1.797517 1.388138 3.270861 0 1 0 0 0
1.801345 1.388138 3.265896 0 1 0 0 0
1.801818 1.388138 3.266169 0.259992822 0.953873664 0.150095856 0 0
1.804258 1.388138 3.26024 0.289418146 0.954059817 0.0775048593 0 0
1.803731 1.388138 3.260098 0 1 0 0 0
1.804563 1.388138 3.253885 0 1 0 0 0
1.80511 1.388138 3.253885 0.300193208 0.953878419 0 0 0
1.804258 1.388138 3.24753 0.289418146 0.954059817 -0.0775048593 0 0
1.803731 1.388138 3.247671 0 1 0 0 0
1.801345 1.388138 3.241874 0 1 0 0 0
1.801818 1.388138 3.2416 0.259992822 0.953873664 -0.150095856 0 0
1.797903 1.388138 3.236522 0.211908559 0.954038534 -0.211908559 0 0
1.797517 1.388138 3.236908 0 1 0 0 0
1.786418 1.388138 3.23195 0 1 0 0 0
1.791902 1.388138 3.234207 0 1 0 0 0
1.79125 1.388138 3.235337 0 1 0 0 0
1.786081 1.388138 3.23321 0 1 0 0 0
1.780541 1.388138 3.232467 0 1 0 0 0
1.780541 1.388138 3.231163 0 1 0 0 0
1.785936 1.388138 3.233749 -0.169105833 0.75702611 0.631121768 0 0
1.79097 1.388138 3.235821 -0.326019937 0.758146362 0.564734535 0 0
1.780541 1.388138 3.233027 0 0.758118946 0.652116297 0 0
1.774664 1.388138 3.23195 0 1 0 0 0
1.775001 1.388138 3.23321 0 1 0 0 0
1.769833 1.388138 3.235337 0 1 0 0 0
1.76918 1.388138 3.234207 0 1 0 0 0
1.775146 1.388138 3.233749 0.169105833 0.75702611 0.631121768 0 0
1.770112 1.388138 3.235821 0.326019937 0.758146362 0.564734535 0 0
1.764484 1.388138 3.237828 0 1 0 0 0
1.765406 1.388138 3.23875 0 1 0 0 0
1.761993 1.388138 3.243176 0 1 0 0 0
1.760864 1.388138 3.242524 0 1 0 0 0
1.765801 1.388138 3.239145 0.462014554 0.757023847 0.462014554 0 0
1.762478 1.388138 3.243455 0.56471612 0.758121641 0.326109309 0 0
1.758607 1.388138 3.248007 0 1 0 0 0
1.759866 1.388138 3.248345 0 1 0 0 0
1.759124 1.388138 3.253885 0 1 0 0 0
1.757819 1.388138 3.253885 0 1 0 0 0
1.760406 1.388138 3.248489 0.631073991 0.757068798 0.169093031 0 0
1.759683 1.388138 3.253885 0.652116297 0.758118946 0 0 0
1.758607 1.388138 3.259762 0 1 0 0 0
1.759866 1.388138 3.259424 0 1 0 0 0
1.761993 1.388138 3.264593 0 1 0 0 0
1.760864 1.388138 3.265245 0 1 0 0 0
1.760406 1.388138 3.25928 0.631121768 0.75702611 -0.169105833 0 0
1.762478 1.388138 3.264314 0.56471612 0.758121641 -0.326109309 0 0
1.764484 1.388138 3.269942 0 1 0 0 0
1.765406 1.388138 3.26902 0 1 0 0 0
1.769833 1.388138 3.272432 0 1 0 0 0
1.76918 1.388138 3.273562 0 1 0 0 0
1.765801 1.388138 3.268625 0.462014554 0.757023847 -0.462014554 0 0
1.770112 1.388138 3.271948 0.326019937 0.758146362 -0.564734535 0 0
1.774664 1.388138 3.275819 0 1 0 0 0
1.775001 1.388138 3.274559 0 1 0 0 0
1.780541 1.388138 3.275302 0 1 0 0 0
1.780541 1.388138 3.276606 0 1 0 0 0
1.775146 1.388138 3.27402 0.169105833 0.75702611 -0.631121768 0 0
1.780541 1.388138 3.274743 0 0.758118946 -0.652116297 0 0
1.786418 1.388138 3.275819 0 1 0 0 0
1.786081 1.388138 3.274559 0 1 0 0 0
1.79125 1.388138 3.272432 0 1 0 0 0
1.791902 1.388138 3.273562 0 1 0 0 0
1.785936 1.388138 3.27402 -0.169105833 0.75702611 -0.631121768 0 0
1.79097 1.388138 3.271948 -0.326019937 0.758146362 -0.564734535 0 0
1.796598 1.388138 3.269942 0 1 0 0 0
1.795676 1.388138 3.26902 0 1 0 0 0
1.799089 1.388138 3.264593 0 1 0 0 0
1.800219 1.388138 3.265245 0 1 0 0 0
1.795281 1.388138 3.268625 -0.462014554 0.757023847 -0.462014554 0 0
1.798605 1.388138 3.264314 -0.56471612 0.758121641 -0.326109309 0 0
1.802476 1.388138 3.259762 0 1 0 0 0
1.801216 1.388138 3.259424 0 1 0 0 0
1.801958 1.388138 3.253885 0 1 0 0 0
1.803263 1.388138 3.253885 0 1 0 0 0
1.800676 1.388138 3.25928 -0.631073991 0.757068798 -0.169093031 0 0
1.801399 1.388138 3.253885 -0.652116297 0.758118946 0 0 0
1.802476 1.388138 3.248007 0 1 0 0 0
1.801216 1.388138 3.248345 0 1 0 0 0
1.799089 1.388138 3.243176 0 1 0 0 0
1.800219 1.388138 3.242524 0 1 0 0 0
1.800676 1.388138 3.248489 -0.631073991 0.757068798 0.169093031 0 0
1.798605 1.388138 3.243455 -0.56471612 0.758121641 0.326109309 0 0
1.796598 1.388138 3.237828 0 1 0 0 0
1.795676 1.388138 3.23875 0 1 0 0 0
1.795281 1.388138 3.239145 -0.462014554 0.757023847 0.462014554 0 0
3 0 1 2
3 0 3 1
3 0 4 3
3 0 5 4
3 0 6 5
3 0 2 6
3 7 8 9
3 7 10 8
3 7 11 10
3 7 12 11
3 7 13 12
3 7 14 13
3 7 15 14
3 7 9 15
3 16 17 18
3 16 19 17
3 16 8 19
3 16 9 8
3 16 15 9
3 16 20 15
3 16 21 20
3 16 18 21
3 22 23 24
3 22 25 23
3 22 17 25
3 22 18 17
3 22 21 18
3 22 26 21
3 22 27 26
3 22 24 27
3 28 29 30
3 28 31 29
3 28 23 31
3 28 24 23
3 28 27 24
3 28 32 27
3 28 33 32
3 28 30 33
3 34 35 36
3 34 37 35
3 34 29 37
3 34 30 29
3 34 33 30
3 34 38 33
3 34 39 38
3 34 36 39
3 40 39 41
3 40 38 39
3 40 33 38
3 40 42 33
3 40 43 42
3 40 44 43
3 40 45 44
3 40 41 45
3 46 33 42
3 46 32 33
3 46 27 32
3 46 47 27
3 46 48 47
3 46 49 48
3 46 43 49
3 46 42 43
3 50 27 47
3 50 26 27
3 50 21 26
3 50 51 21
3 50 52 51
3 50 53 52
3 50 48 53
3 50 47 48
3 54 21 51
3 54 20 21
3 54 15 20
3 54 55 15
3 54 56 55
3 54 57 56
3 54 52 57
3 54 51 52
3 58 15 55
3 58 14 15
3 58 13 14
3 58 59 13
3 58 60 59
3 58 61 60
3 58 56 61
3 58 55 56
3 62 6 63
3 62 5 6
3 62 4 5
3 62 64 4
3 62 65 64
3 62 63 65
3 66 65 67
3 66 64 65
3 66 4 64
3 66 68 4
3 66 69 68
3 66 67 69
3 70 56 71
3 70 61 56
3 70 60 61
3 70 72 60
3 70 73 72
3 70 74 73
3 70 75 74
3 70 71 75
3 76 52 77
3 76 57 52
3 76 56 57
3 76 71 56
3 76 75 71
3 76 78 75
3 76 79 78
3 76 77 79
3 80 48 81
3 80 53 48
3 80 52 53
3 80 77 52
3 80 79 77
3 80 82 79
3 80 83 82
3 80 81 83
3 84 43 85
3 84 49 43
3 84 48 49
3 84 81 48
3 84 83 81
3 84 86 83
3 84 87 86
3 84 85 87
3 88 45 89
3 88 44 45
3 88 43 44
3 88 85 43
3 88 87 85
3 88 90 87
3 88 91 90
3 88 89 91
3 92 91 93
3 92 90 91
3 92 87 90
3 92 94 87
3 92 95 94
3 92 96 95
3 92 97 96
3 92 93 97
3 98 87 94
3 98 86 87
3 98 83 86
3 98 99 83
3 98 100 99
3 98 101 100
3 98 95 101
3 98 94 95
3 102 83 99
3 102 82 83
3 102 79 82
3 102 103 79
3 102 104 103
3 102 105 104
3 102 100 105
3 102 99 100
3 106 79 103
3 106 78 79
3 106 75 78
3 106 107 75
3 106 108 107
3 106 109 108
3 106 104 109
3 106 103 104
3 110 75 107
3 110 74 75
3 110 73 74
3 110 111 73
3 110 112 111
3 110 113 112
3 110 108 113
3 110 107 108
3 114 69 115
3 114 68 69
3 114 4 68
3 114 116 4
3 114 117 116
3 114 115 117
3 118 117 119
3 118 116 117
3 118 4 116
3 118 120 4
3 118 121 120
3 118 119 121
3 122 108 123
3 122 113 108
3 122 112 113
3 122 124 112
3 122 125 124
3 122 126 125
3 122 127 126
3 122 123 127
3 128 104 129
3 128 109 104
3 128 108 109
3 128 123 108
3 128 127 123
3 128 130 127
3 128 131 130
3 128 129 131
3 132 100 133
3 132 105 100
3 132 104 105
3 132 129 104
3 132 131 129
3 132 134 131
3 132 135 134
3 132 133 135
3 136 95 137
3 136 101 95
3 136 100 101
3 136 133 100
3 136 135 133
3 136 138 135
3 136 139 138
3 136 137 139
3 140 97 141
3 140 96 97
3 140 95 96
3 140 137 95
3 140 139 137
3 140 142 139
3 140 143 142
3 140 141 143
3 144 143 145
3 144 142 143
3 144 139 142
3 144 146 139
3 144 147 146
3 144 148 147
3 144 149 148
3 144 145 149
3 150 139 146
3 150 138 139
3 150 135 138
3 150 151 135
3 150 152 151
3 150 153 152
3 150 147 153
3 150 146 147
3 154 135 151
3 154 134 135
3 154 131 134
3 154 155 131
3 154 156 155
3 154 157 156
3 154 152 157
3 154 151 152
3 158 131 155
3 158 130 131
3 158 127 130
3 158 159 127
3 158 160 159
3 158 161 160
3 158 156 161
3 158 155 156
3 162 127 159
3 162 126 127
3 162 125 126
3 162 163 125
3 162 164 163
3 162 165 164
3 162 160 165
3 162 159 160
3 166 121 167
3 166 120 121
3 166 4 120
3 166 168 4
3 166 169 168
3 166 167 169
3 170 169 171
3 170 168 169
3 170 4 168
3 170 172 4
3 170 173 172
3 170 171 173
3 174 160 175
3 174 165 160
3 174 164 165
3 174 176 164
3 174 177 176
3 174 178 177
3 174 179 178
3 174 175 179
3 180 156 181
3 180 161 156
3 180 160 161
3 180 175 160
3 180 179 175
3 180 182 179
3 180 183 182
3 180 181 183
3 184 152 185
3 184 157 152
3 184 156 157
3 184 181 156
3 184 183 181
3 184 186 183
3 184 187 186
3 184 185 187
3 188 147 189
3 188 153 147
3 188 152 153
3 188 185 152
3 188 187 185
3 188 190 187
3 188 191 190
3 188 189 191
3 192 149 193
3 192 148 149
3 192 147 148
3 192 189 147
3 192 191 189
3 192 194 191
3 192 195 194
3 192 193 195
3 196 195 197
3 196 194 195
3 196 191 194
3 196 198 191
3 196 199 198
3 196 200 199
3 196 201 200
3 196 197 201
3 202 191 198
3 202 190 191
3 202 187 190
3 202 203 187
3 202 204 203
3 202 205 204
3 202 199 205
3 202 198 199
3 206 187 203
3 206 186 187
3 206 183 186
3 206 207 183
3 206 208 207
3 206 209 208
3 206 204 209
3 206 203 204
3 210 183 207
3 210 182 183
3 210 179 182
3 210 211 179
3 210 212 211
3 210 213 212
3 210 208 213
3 210 207 208
3 214 179 211
3 214 178 179
3 214 177 178
3 214 215 177
3 214 216 215
3 214 217 216
3 214 212 217
3 214 211 212
3 218 173 219
3 218 172 173
3 218 4 172
3 218 220 4
3 218 221 220
3 218 219 221
3 222 221 223
3 222 220 221
3 222 4 220
3 222 224 4
3 222 225 224
3 222 223 225
3 226 212 227
3 226 217 212
3 226 216 217
3 226 228 216
3 226 229 228
3 226 230 229
3 226 231 230
3 226 227 231
3 232 208 233
3 232 213 208
3 232 212 213
3 232 227 212
3 232 231 227
3 232 234 231
3 232 235 234
3 232 233 235
3 236 204 237
3 236 209 204
3 236 208 209
3 236 233 208
3 236 235 233
3 236 238 235
3 236 239 238
3 236 237 239
3 240 199 241
3 240 205 199
3 240 204 205
3 240 237 204
3 240 239 237
3 240 242 239
3 240 243 242
3 240 241 243
3 244 201 245
3 244 200 201
3 244 199 200
3 244 241 199
3 244 243 241
3 244 246 243
3 244 247 246
3 244 245 247
3 248 247 249
3 248 246 247
3 248 243 246
3 248 250 243
3 248 251 250
3 248 252 251
3 248 253 252
3 248 249 253
3 254 243 250
3 254 242 243
3 254 239 242
3 254 255 239
3 254 256 255
3 254 257 256
3 254 251 257
3 254 250 251
3 258 239 255
3 258 238 239
3 258 235 238
3 258 259 235
3 258 260 259
3 258 261 260
3 258 256 261
3 258 255 256
3 262 235 259
3 262 234 235
3 262 231 234
3 262 263 231
3 262 264 263
3 262 265 264
3 262 260 265
3 262 259 260
3 266 231 263
3 266 230 231
3 266 229 230
3 266 267 229
3 266 268 267
3 266 269 268
3 266 264 269
3 266 263 264
3 270 225 271
3 270 224 225
3 270 4 224
3 270 272 4
3 270 273 272
3 270 271 273
3 274 273 275
3 274 272 273
3 274 4 272
3 274 276 4
3 274 277 276
3 274 275 277
3 278 264 279
3 278 269 264
3 278 268 269
3 278 280 268
3 278 281 280
3 278 282 281
3 278 283 282
3 278 279 283
3 284 260 285
3 284 265 260
3 284 264 265
3 284 279 264
3 284 283 279
3 284 286 283
3 284 287 286
3 284 285 287
3 288 256 289
3 288 261 256
3 288 260 261
3 288 285 260
3 288 287 285
3 288 290 287
3 288 291 290
3 288 289 291
3 292 251 293
3 292 257 251
3 292 256 257
3 292 289 256
3 292 291 289
3 292 294 291
3 292 295 294
3 292 293 295
3 296 253 297
3 296 252 253
3 296 251 252
3 296 293 251
3 296 295 293
3 296 298 295
3 296 299 298
3 296 297 299
3 300 29 301
3 300 37 29
3 300 35 37
3 300 302 35
3 300 299 302
3 300 298 299
3 300 295 298
3 300 301 295
3 303 23 304
3 303 31 23
3 303 29 31
3 303 301 29
3 303 295 301
3 303 294 295
3 303 291 294
3 303 304 291
3 305 291 304
3 305 290 291
3 305 287 290
3 305 306 287
3 305 17 306
3 305 25 17
3 305 23 25
3 305 304 23
3 307 287 306
3 307 286 287
3 307 283 286
3 307 308 283
3 307 8 308
3 307 19 8
3 307 17 19
3 307 306 17
3 309 283 308
3 309 282 283
3 309 281 282
3 309 310 281
3 309 11 310
3 309 10 11
3 309 8 10
3 309 308 8
3 311 277 312
3 311 276 277
3 311 4 276
3 311 3 4
3 311 1 3
3 311 312 1
3 313 314 315
3 313 316 314
3 313 317 316
3 313 318 317
3 313 319 318
3 313 320 319
3 313 321 320
3 313 315 321
3 322 317 318
3 322 323 317
3 322 324 323
3 322 325 324
3 322 326 325
3 322 327 326
3 322 319 327
3 322 318 319
3 328 324 325
3 328 329 324
3 328 330 329
3 328 331 330
3 328 332 331
3 328 333 332
3 328 326 333
3 328 325 326
3 334 330 331
3 334 335 330
3 334 336 335
3 334 337 336
3 334 338 337
3 334 339 338
3 334 332 339
3 334 331 332
3 340 336 337
3 340 341 336
3 340 342 341
3 340 343 342
3 340 344 343
3 340 345 344
3 340 338 345
3 340 337 338
3 346 342 343
3 346 347 342
3 346 348 347
3 346 349 348
3 346 350 349
3 346 351 350
3 346 344 351
3 346 343 344
3 352 348 349
3 352 353 348
3 352 354 353
3 352 355 354
3 352 356 355
3 352 357 356
3 352 350 357
3 352 349 350
3 358 354 355
3 358 359 354
3 358 360 359
3 358 361 360
3 358 362 361
3 358 363 362
3 358 356 363
3 358 355 356
3 364 360 361
3 364 365 360
3 364 366 365
3 364 367 366
3 364 368 367
3 364 369 368
3 364 362 369
3 364 361 362
3 370 366 367
3 370 371 366
3 370 372 371
3 370 373 372
3 370 374 373
3 370 375 374
3 370 368 375
3 370 367 368
3 376 372 373
3 376 377 372
3 376 378 377
3 376 379 378
3 376 380 379
3 376 381 380
3 376 374 381
3 376 373 374
3 382 378 379
3 382 383 378
3 382 314 383
3 382 315 314
3 382 321 315
3 382 384 321
3 382 380 384
3 382 379 380
3 385 380 386
3 385 384 380
3 385 321 384
3 385 387 321
3 385 388 387
3 385 389 388
3 385 390 389
3 385 386 390
3 391 374 392
3 391 381 374
3 391 380 381
3 391 386 380
3 391 390 386
3 391 393 390
3 391 394 393
3 391 392 394
3 395 368 396
3 395 375 368
3 395 374 375
3 395 392 374
3 395 394 392
3 395 397 394
3 395 398 397
3 395 396 398
3 399 362 400
3 399 369 362
3 399 368 369
3 399 396 368
3 399 398 396
3 399 401 398
3 399 402 401
3 399 400 402
3 403 356 404
3 403 363 356
3 403 362 363
3 403 400 362
3 403 402 400
3 403 405 402
3 403 406 405
3 403 404 406
3 407 350 408
3 407 357 350
3 407 356 357
3 407 404 356
3 407 406 404
3 407 409 406
3 407 410 409
3 407 408 410
3 411 344 412
3 411 351 344
3 411 350 351
3 411 408 350
3 411 410 408
3 411 413 410
3 411 414 413
3 411 412 414
3 415 338 416
3 415 345 338
3 415 344 345
3 415 412 344
3 415 414 412
3 415 417 414
3 415 418 417
3 415 416 418
3 419 332 420
3 419 339 332
3 419 338 339
3 419 416 338
3 419 418 416
3 419 421 418
3 419 422 421
3 419 420 422
3 423 326 424
3 423 333 326
3 423 332 333
3 423 420 332
3 423 422 420
3 423 425 422
3 423 426 425
3 423 424 426
3 427 319 428
3 427 327 319
3 427 326 327
3 427 424 326
3 427 426 424
3 427 429 426
3 427 430 429
3 427 428 430
3 431 321 387
3 431 320 321
3 431 319 320
3 431 428 319
3 431 430 428
3 431 432 430
3 431 388 432
3 431 387 388
3 433 388 434
3 433 432 388
3 433 430 432
3 433 435 430
3 433 436 435
3 433 434 436
3 437 430 435
3 437 429 430
3 437 426 429
3 437 438 426
3 437 436 438
3 437 435 436
3 439 426 438
3 439 425 426
3 439 422 425
3 439 440 422
3 439 436 440
3 439 438 436
3 441 422 440
3 441 421 422
3 441 418 421
3 441 442 418
3 441 436 442
3 441 440 436
3 443 418 442
3 443 417 418
3 443 414 417
3 443 444 414
3 443 436 444
3 443 442 436
3 445 414 444
3 445 413 414
3 445 410 413
3 445 446 410
3 445 436 446
3 445 444 436
3 447 410 446
3 447 409 410
3 447 406 409
3 447 448 406
3 447 436 448
3 447 446 436
3 449 406 448
3 449 405 406
3 449 402 405
3 449 450 402
3 449 436 450
3 449 448 436
3 451 402 450
3 451 401 402
3 451 398 401
3 451 452 398
3 451 436 452
3 451 450 436
3 453 398 452
3 453 397 398
3 453 394 397
3 453 454 394
3 453 436 454
3 453 452 436
3 455 394 454
3 455 393 394
3 455 390 393
3 455 456 390
3 455 436 456
3 455 454 436
3 457 390 456
3 457 389 390
3 457 388 389
3 457 434 388
3 457 436 434
3 457 456 436
3 458 11 12
3 458 459 11
3 458 460 459
3 458 461 460
3 458 462 461
3 458 463 462
3 458 13 463
3 458 12 13
3 464 460 461
3 464 465 460
3 464 1 465
3 464 2 1
3 464 6 2
3 464 466 6
3 464 462 466
3 464 461 462
3 467 13 59
3 467 463 13
3 467 462 463
3 467 468 462
3 467 469 468
3 467 470 469
3 467 60 470
3 467 59 60
3 471 462 468
3 471 466 462
3 471 6 466
3 471 63 6
3 471 65 63
3 471 472 65
3 471 469 472
3 471 468 469
3 473 60 72
3 473 470 60
3 473 469 470
3 473 474 469
3 473 475 474
3 473 476 475
3 473 73 476
3 473 72 73
3 477 469 474
3 477 472 469
3 477 65 472
3 477 67 65
3 477 69 67
3 477 478 69
3 477 475 478
3 477 474 475
3 479 73 111
3 479 476 73
3 479 475 476
3 479 480 475
3 479 481 480
3 479 482 481
3 479 112 482
3 479 111 112
3 483 475 480
3 483 478 475
3 483 69 478
3 483 115 69
3 483 117 115
3 483 484 117
3 483 481 484
3 483 480 481
3 485 112 124
3 485 482 112
3 485 481 482
3 485 486 481
3 485 487 486
3 485 488 487
3 485 125 488
3 485 124 125
3 489 481 486
3 489 484 481
3 489 117 484
3 489 119 117
3 489 121 119
3 489 490 121
3 489 487 490
3 489 486 487
3 491 125 163
3 491 488 125
3 491 487 488
3 491 492 487
3 491 493 492
3 491 494 493
3 491 164 494
3 491 163 164
3 495 487 492
3 495 490 487
3 495 121 490
3 495 167 121
3 495 169 167
3 495 496 169
3 495 493 496
3 495 492 493
3 497 164 176
3 497 494 164
3 497 493 494
3 497 498 493
3 497 499 498
3 497 500 499
3 497 177 500
3 497 176 177
3 501 493 498
3 501 496 493
3 501 169 496
3 501 171 169
3 501 173 171
3 501 502 173
3 501 499 502
3 501 498 499
3 503 177 215
3 503 500 177
3 503 499 500
3 503 504 499
3 503 505 504
3 503 506 505
3 503 216 506
3 503 215 216
3 507 499 504
3 507 502 499
3 507 173 502
3 507 219 173
3 507 221 219
3 507 508 221
3 507 505 508
3 507 504 505
3 509 216 228
3 509 506 216
3 509 505 506
3 509 510 505
3 509 511 510
3 509 512 511
3 509 229 512
3 509 228 229
3 513 505 510
3 513 508 505
3 513 221 508
3 513 223 221
3 513 225 223
3 513 514 225
3 513 511 514
3 513 510 511
3 515 229 267
3 515 512 229
3 515 511 512
3 515 516 511
3 515 517 516
3 515 518 517
3 515 268 518
3 515 267 268
3 519 511 516
3 519 514 511
3 519 225 514
3 519 271 225
3 519 273 271
3 519 520 273
3 519 517 520
3 519 516 517
3 521 268 280
3 521 518 268
3 521 517 518
3 521 522 517
3 521 523 522
3 521 524 523
3 521 281 524
3 521 280 281
3 525 517 522
3 525 520 517
3 525 273 520
3 525 275 273
3 525 277 275
3 525 526 277
3 525 523 526
3 525 522 523
3 527 281 310
3 527 524 281
3 527 523 524
3 527 528 523
3 527 460 528
3 527 459 460
3 527 11 459
3 527 310 11
3 529 523 528
3 529 526 523
3 529 277 526
3 529 312 277
3 529 1 312
3 529 465 1
3 529 460 465
3 529 528 460
3 530 39 36
3 530 531 39
3 530 532 531
3 530 533 532
3 530 534 533
3 530 535 534
3 530 35 535
3 530 36 35
3 536 35 302
3 536 535 35
3 536 534 535
3 536 537 534
3 536 538 537
3 536 539 538
3 536 299 539
3 536 302 299
3 540 299 297
3 540 539 299
3 540 538 539
3 540 541 538
3 540 542 541
3 540 543 542
3 540 253 543
3 540 297 253
3 544 253 249
3 544 543 253
3 544 542 543
3 544 545 542
3 544 546 545
3 544 547 546
3 544 247 547
3 544 249 247
3 548 247 245
3 548 547 247
3 548 546 547
3 548 549 546
3 548 550 549
3 548 551 550
3 548 201 551
3 548 245 201
3 552 201 197
3 552 551 201
3 552 550 551
3 552 553 550
3 552 554 553
3 552 555 554
3 552 195 555
3 552 197 195
3 556 195 193
3 556 555 195
3 556 554 555
3 556 557 554
3 556 558 557
3 556 559 558
3 556 149 559
3 556 193 149
3 560 149 145
3 560 559 149
3 560 558 559
3 560 561 558
3 560 562 561
3 560 563 562
3 560 143 563
3 560 145 143
3 564 143 141
3 564 563 143
3 564 562 563
3 564 565 562
3 564 566 565
3 564 567 566
3 564 97 567
3 564 141 97
3 568 97 93
3 568 567 97
3 568 566 567
3 568 569 566
3 568 570 569
3 568 571 570
3 568 91 571
3 568 93 91
3 572 91 89
3 572 571 91
3 572 570 571
3 572 573 570
3 572 574 573
3 572 575 574
3 572 45 575
3 572 89 45
3 576 45 41
3 576 575 45
3 576 574 575
3 576 577 574
3 576 532 577
3 576 531 532
3 576 39 531
3 576 41 39
3 578 532 533
3 578 579 532
3 578 580 579
3 578 581 580
3 578 582 581
3 578 583 582
3 578 534 583
3 578 533 534
3 584 580 581
3 584 585 580
3 584 314 585
3 584 383 314
3 584 378 383
3 584 586 378
3 584 582 586
3 584 581 582
3 587 534 537
3 587 583 534
3 587 582 583
3 587 588 582
3 587 589 588
3 587 590 589
3 587 538 590
3 587 537 538
3 591 582 588
3 591 586 582
3 591 378 586
3 591 377 378
3 591 372 377
3 591 592 372
3 591 589 592
3 591 588 589
3 593 538 541
3 593 590 538
3 593 589 590
3 593 594 589
3 593 595 594
3 593 596 595
3 593 542 596
3 593 541 542
3 597 589 594
3 597 592 589
3 597 372 592
3 597 371 372
3 597 366 371
3 597 598 366
3 597 595 598
3 597 594 595
3 599 542 545
3 599 596 542
3 599 595 596
3 599 600 595
3 599 601 600
3 599 602 601
3 599 546 602
3 599 545 546
3 603 595 600
3 603 598 595
3 603 366 598
3 603 365 366
3 603 360 365
3 603 604 360
3 603 601 604
3 603 600 601
3 605 546 549
3 605 602 546
3 605 601 602
3 605 606 601
3 605 607 606
3 605 608 607
3 605 550 608
3 605 549 550
3 609 601 606
3 609 604 601
3 609 360 604
3 609 359 360
3 609 354 359
3 609 610 354
3 609 607 610
3 609 606 607
3 611 550 553
3 611 608 550
3 611 607 608
3 611 612 607
3 611 613 612
3 611 614 613
3 611 554 614
3 611 553 554
3 615 607 612
3 615 610 607
3 615 354 610
3 615 353 354
3 615 348 353
3 615 616 348
3 615 613 616
3 615 612 613
3 617 554 557
3 617 614 554
3 617 613 614
3 617 618 613
3 617 619 618
3 617 620 619
3 617 558 620
3 617 557 558
3 621 613 618
3 621 616 613
3 621 348 616
3 621 347 348
3 621 342 347
3 621 622 342
3 621 619 622
3 621 618 619
3 623 558 561
3 623 620 558
3 623 619 620
3 623 624 619
3 623 625 624
3 623 626 625
3 623 562 626
3 623 561 562
3 627 619 624
3 627 622 619
3 627 342 622
3 627 341 342
3 627 336 341
3 627 628 336
3 627 625 628
3 627 624 625
3 629 562 565
3 629 626 562
3 629 625 626
3 629 630 625
3 629 631 630
3 629 632 631
3 629 566 632
3 629 565 566
3 633 625 630
3 633 628 625
3 633 336 628
3 633 335 336
3 633 330 335
3 633 634 330
3 633 631 634
3 633 630 631
3 635 566 569
3 635 632 566
3 635 631 632
3 635 636 631
3 635 637 636
3 635 638 637
3 635 570 638
3 635 569 570
3 639 631 636
3 639 634 631
3 639 330 634
3 639 329 330
3 639 324 329
3 639 640 324
3 639 637 640
3 639 636 637
3 641 570 573
3 641 638 570
3 641 637 638
3 641 642 637
3 641 643 642
3 641 644 643
3 641 574 644
3 641 573 574
3 645 637 642
3 645 640 637
3 645 324 640
3 645 323 324
3 645 317 323
3 645 646 317
3 645 643 646
3 645 642 643
3 647 574 577
3 647 644 574
3 647 643 644
3 647 648 643
3 647 580 648
3 647 579 580
3 647 532 579
3 647 577 532
3 649 643 648
3 649 646 643
3 649 317 646
3 649 316 317
3 649 314 316
3 649 585 314
3 649 580 585
3 649 648 580
