ply
format ascii 1.0
element vertex 228
property float x
property float y
property float z
property float nx
property float ny
property float nz
property float u
property float v
element face 76
property list uchar int vertex_indices
end_header
-0.606696 0.466247 2.78482 0 1 0 0.959701 0.998867
-0.483808 0.466247 3.129804 0 1 0 0.0367 0.000501
-0.389668 0.466247 2.86076 0 1 0 0.036701 0.998867
-0.606696 0.466247 2.78482 0 1 -0 0.959701 0.998867
-0.700836 0.466247 3.053864 0 1 -0 0.9597 0.000501
-0.483808 0.466247 3.129804 0 1 -0 0.0367 0.000501
-0.389668 0.461937 2.86076 -0 -1 0 0.578149 0.723089
-0.700836 0.461937 3.053864 -0 -1 0 0.293447 0.356115
-0.606696 0.461937 2.78482 -0 -1 0 0.293447 0.723089
-0.389668 0.461937 2.86076 0 -1 0 0.578149 0.723089
-0.483808 0.461937 3.129804 0 -1 0 0.578149 0.356115
-0.700836 0.461937 3.053864 0 -1 0 0.293447 0.356115
-0.389382 0.466247 2.86086 0 1 -0 0.034069 0.998867
-0.478359 0.466247 3.131711 0 1 -0 0.000617 0.000501
-0.384218 0.466247 2.862667 0 1 -0 0.000618 0.998867
-0.389382 0.466247 2.86086 0 1 0 0.034069 0.998867
-0.483522 0.466247 3.129904 0 1 0 0.034068 0.000501
-0.478359 0.466247 3.131711 0 1 0 0.000617 0.000501
-0.384218 0.461937 2.862667 -0 -1 0 0.602929 0.723089
-0.483522 0.461937 3.129904 -0 -1 0 0.584805 0.356115
-0.389382 0.461937 2.86086 -0 -1 0 0.584805 0.723089
-0.384218 0.461937 2.862667 0 -1 0 0.602929 0.723089
-0.478359 0.461937 3.131711 0 -1 0 0.602929 0.356115
-0.483522 0.461937 3.129904 0 -1 0 0.584805 0.356115
-0.389668 0.466247 2.86076 -0.400568244 0.905483272 -0.140161068 0.036701 0.998867
-0.483665 0.466318 3.129854 -0.400568244 0.905483272 -0.140161068 0.035282 0.000501
-0.389525 0.466318 2.86081 -0.400568244 0.905483272 -0.140161068 0.035283 0.998867
-0.389668 0.466247 2.86076 -0.400568244 0.905483272 -0.140161068 0.036701 0.998867
-0.483808 0.466247 3.129804 -0.400568244 0.905483272 -0.140161068 0.0367 0.000501
-0.483665 0.466318 3.129854 -0.400568244 0.905483272 -0.140161068 0.035282 0.000501
-0.389525 0.466318 2.86081 0.400568244 0.905483272 0.140161068 0.035283 0.998867
-0.483522 0.466247 3.129904 0.400568244 0.905483272 0.140161068 0.034068 0.000501
-0.389382 0.466247 2.86086 0.400568244 0.905483272 0.140161068 0.034069 0.998867
-0.389525 0.466318 2.86081 0.400568244 0.905483272 0.140161068 0.035283 0.998867
-0.483665 0.466318 3.129854 0.400568244 0.905483272 0.140161068 0.035282 0.000501
-0.483522 0.466247 3.129904 0.400568244 0.905483272 0.140161068 0.034068 0.000501
-0.389382 0.461937 2.86086 -0 -1 0 0.584805 0.723089
-0.483665 0.461937 3.129854 -0 -1 0 0.581477 0.356115
-0.389525 0.461937 2.86081 -0 -1 0 0.581477 0.723089
-0.389382 0.461937 2.86086 0 -1 0 0.584805 0.723089
-0.483522 0.461937 3.129904 0 -1 0 0.584805 0.356115
-0.483665 0.461937 3.129854 0 -1 0 0.581477 0.356115
-0.389525 0.461937 2.86081 -0 -1 0 0.581477 0.723089
-0.483808 0.461937 3.129804 -0 -1 0 0.578149 0.356115
-0.389668 0.461937 2.86076 -0 -1 0 0.578149 0.723089
-0.389525 0.461937 2.86081 0 -1 0 0.581477 0.723089
-0.483665 0.461937 3.129854 0 -1 0 0.581477 0.356115
-0.483808 0.461937 3.129804 0 -1 0 0.578149 0.356115
-0.384218 0.466247 2.862667 0.763691903 0.587679442 0.267221913 0.997351 0.004102
-0.477966 0.465674 3.131849 0.763691903 0.587679442 0.267221913 0.998073 0.999592
-0.383825 0.465674 2.862804 0.763691903 0.587679442 0.267221913 0.998073 0.004102
-0.384218 0.466247 2.862667 0.763482293 0.587984609 0.267149561 0.997351 0.004102
-0.478359 0.466247 3.131711 0.763482293 0.587984609 0.267149561 0.997351 0.999592
-0.477966 0.465674 3.131849 0.763482293 0.587984609 0.267149561 0.998073 0.999592
-0.383825 0.465674 2.862804 0.943885427 0 0.33027307 0.998073 0.004102
-0.477966 0.462492 3.131849 0.943885427 0 0.33027307 0.998796 0.999592
-0.383825 0.462492 2.862804 0.943885427 0 0.33027307 0.998796 0.004102
-0.383825 0.465674 2.862804 0.943885427 0 0.33027307 0.998073 0.004102
-0.477966 0.465674 3.131849 0.943885427 0 0.33027307 0.998073 0.999592
-0.477966 0.462492 3.131849 0.943885427 0 0.33027307 0.998796 0.999592
-0.383825 0.462492 2.862804 0.755144357 -0.599948688 0.26423204 0.998796 0.004102
-0.478359 0.461937 3.131711 0.755144357 -0.599948688 0.26423204 0.999519 0.999592
-0.384218 0.461937 2.862667 0.755144357 -0.599948688 0.26423204 0.999519 0.004102
-0.383825 0.462492 2.862804 0.754928977 -0.600253287 0.264155695 0.998796 0.004102
-0.477966 0.462492 3.131849 0.754928977 -0.600253287 0.264155695 0.998796 0.999592
-0.478359 0.461937 3.131711 0.754928977 -0.600253287 0.264155695 0.999519 0.999592
-0.606696 0.465674 2.78482 -0.943886138 0 -0.330271038 0.984076 0.009363
-0.700836 0.466247 3.053864 -0.943886138 0 -0.330271038 0.99286 0.991839
-0.606696 0.466247 2.78482 -0.943886138 0 -0.330271038 0.99286 0.009363
-0.606696 0.465674 2.78482 -0.943886138 0 -0.330271038 0.984076 0.009363
-0.700836 0.465674 3.053864 -0.943886138 0 -0.330271038 0.984076 0.991839
-0.700836 0.466247 3.053864 -0.943886138 0 -0.330271038 0.99286 0.991839
-0.700836 0.465674 3.053864 -0.943886138 -0 -0.330271038 0.984076 0.991839
-0.606696 0.462492 2.78482 -0.943886138 -0 -0.330271038 0.975292 0.009363
-0.700836 0.462492 3.053864 -0.943886138 -0 -0.330271038 0.975292 0.991839
-0.700836 0.465674 3.053864 -0.943886138 0 -0.330271038 0.984076 0.991839
-0.606696 0.465674 2.78482 -0.943886138 0 -0.330271038 0.984076 0.009363
-0.606696 0.462492 2.78482 -0.943886138 0 -0.330271038 0.975292 0.009363
-0.700836 0.462492 3.053864 -0.943886138 -0 -0.330271038 0.975292 0.991839
-0.606696 0.461937 2.78482 -0.943886138 -0 -0.330271038 0.966509 0.009363
-0.700836 0.461937 3.053864 -0.943886138 -0 -0.330271038 0.966509 0.991839
-0.700836 0.462492 3.053864 -0.943886138 0 -0.330271038 0.975292 0.991839
-0.606696 0.462492 2.78482 -0.943886138 0 -0.330271038 0.975292 0.009363
-0.606696 0.461937 2.78482 -0.943886138 0 -0.330271038 0.966509 0.009363
-0.606696 0.466247 2.78482 0.330273708 0 -0.943885204 0.969884 0.011533
-0.389668 0.465674 2.86076 0.330273708 0 -0.943885204 0.97714 0.86185
-0.606696 0.465674 2.78482 0.330273708 0 -0.943885204 0.97714 0.011533
-0.606696 0.466247 2.78482 0.330273708 0 -0.943885204 0.969884 0.011533
-0.389668 0.466247 2.86076 0.330273708 0 -0.943885204 0.969884 0.86185
-0.389668 0.465674 2.86076 0.330273708 0 -0.943885204 0.97714 0.86185
-0.606696 0.465674 2.78482 0.330273708 0 -0.943885204 0.97714 0.011533
-0.389668 0.462492 2.86076 0.330273708 0 -0.943885204 0.984395 0.86185
-0.606696 0.462492 2.78482 0.330273708 0 -0.943885204 0.984396 0.011533
-0.606696 0.465674 2.78482 0.330273708 0 -0.943885204 0.97714 0.011533
-0.389668 0.465674 2.86076 0.330273708 0 -0.943885204 0.97714 0.86185
-0.389668 0.462492 2.86076 0.330273708 0 -0.943885204 0.984395 0.86185
-0.606696 0.462492 2.78482 0.330273708 0 -0.943885204 0.984396 0.011533
-0.389668 0.461937 2.86076 0.330273708 0 -0.943885204 0.991651 0.86185
-0.606696 0.461937 2.78482 0.330273708 0 -0.943885204 0.991651 0.011533
-0.606696 0.462492 2.78482 0.330273708 0 -0.943885204 0.984396 0.011533
-0.389668 0.462492 2.86076 0.330273708 0 -0.943885204 0.984395 0.86185
-0.389668 0.461937 2.86076 0.330273708 0 -0.943885204 0.991651 0.86185
-0.483808 0.466247 3.129804 -0.330273708 0 0.943885204 0.968809 0.052488
-0.700836 0.465674 3.053864 -0.330273708 0 0.943885204 0.976973 0.885159
-0.483808 0.465674 3.129804 -0.330273708 0 0.943885204 0.976974 0.052488
-0.483808 0.466247 3.129804 -0.330273708 0 0.943885204 0.968809 0.052488
-0.700836 0.466247 3.053864 -0.330273708 0 0.943885204 0.968809 0.885159
-0.700836 0.465674 3.053864 -0.330273708 0 0.943885204 0.976973 0.885159
-0.483808 0.465674 3.129804 -0.330273708 0 0.943885204 0.976974 0.052488
-0.700836 0.462492 3.053864 -0.330273708 0 0.943885204 0.985138 0.885159
-0.483808 0.462492 3.129804 -0.330273708 0 0.943885204 0.985138 0.052488
-0.483808 0.465674 3.129804 -0.330273708 0 0.943885204 0.976974 0.052488
-0.700836 0.465674 3.053864 -0.330273708 0 0.943885204 0.976973 0.885159
-0.700836 0.462492 3.053864 -0.330273708 0 0.943885204 0.985138 0.885159
-0.483808 0.462492 3.129804 -0.330273708 0 0.943885204 0.985138 0.052488
-0.700836 0.461937 3.053864 -0.330273708 0 0.943885204 0.993303 0.885159
-0.483808 0.461937 3.129804 -0.330273708 0 0.943885204 0.993303 0.052488
-0.483808 0.462492 3.129804 -0.330273708 0 0.943885204 0.985138 0.052488
-0.700836 0.462492 3.053864 -0.330273708 0 0.943885204 0.985138 0.885159
-0.700836 0.461937 3.053864 -0.330273708 0 0.943885204 0.993303 0.885159
-0.389382 0.466247 2.86086 0.330206665 0 -0.94390866 0.992959 0.96462
-0.383825 0.465674 2.862804 0.330206665 0 -0.94390866 0.984181 0.991961
-0.389382 0.465674 2.86086 0.330206665 0 -0.94390866 0.984181 0.96462
-0.389382 0.466247 2.86086 0.330285169 0.000855848653 -0.943880805 0.992959 0.96462
-0.384218 0.466247 2.862667 0.330285169 0.000855848653 -0.943880805 0.992959 0.991961
-0.383825 0.465674 2.862804 0.330285169 0.000855848653 -0.943880805 0.984181 0.991961
-0.389382 0.465674 2.86086 0.330206665 0 -0.94390866 0.984181 0.96462
-0.383825 0.462492 2.862804 0.330206665 0 -0.94390866 0.975402 0.991961
-0.389382 0.462492 2.86086 0.330206665 0 -0.94390866 0.975402 0.96462
-0.389382 0.465674 2.86086 0.330206665 0 -0.94390866 0.984181 0.96462
-0.383825 0.465674 2.862804 0.330206665 0 -0.94390866 0.984181 0.991961
-0.383825 0.462492 2.862804 0.330206665 0 -0.94390866 0.975402 0.991961
-0.389382 0.462492 2.86086 0.33028529 0 -0.943881151 0.975402 0.96462
-0.384218 0.461937 2.862667 0.33028529 0 -0.943881151 0.966623 0.991961
-0.389382 0.461937 2.86086 0.33028529 0 -0.943881151 0.966623 0.96462
-0.389382 0.462492 2.86086 0.330206553 -0.000821139827 -0.943908342 0.975402 0.96462
-0.383825 0.462492 2.862804 0.330206553 -0.000821139827 -0.943908342 0.975402 0.991961
-0.384218 0.461937 2.862667 0.330206553 -0.000821139827 -0.943908342 0.966623 0.991961
-0.478359 0.466247 3.131711 -0.33041088 0.000694628183 0.943836939 0.995264 0.057901
-0.483522 0.465674 3.129904 -0.33041088 0.000694628183 0.943836939 0.987849 0.03384
-0.477966 0.465674 3.131849 -0.33041088 0.000694628183 0.943836939 0.987849 0.057901
-0.478359 0.466247 3.131711 -0.330342282 0 0.943861206 0.995264 0.057901
-0.483522 0.466247 3.129904 -0.330342282 0 0.943861206 0.995264 0.03384
-0.483522 0.465674 3.129904 -0.330342282 0 0.943861206 0.987849 0.03384
-0.477966 0.465674 3.131849 -0.330410959 0 0.943837167 0.987849 0.057901
-0.483522 0.462492 3.129904 -0.330410959 0 0.943837167 0.980434 0.03384
-0.477966 0.462492 3.131849 -0.330410959 0 0.943837167 0.980434 0.057901
-0.477966 0.465674 3.131849 -0.330410959 0 0.943837167 0.987849 0.057901
-0.483522 0.465674 3.129904 -0.330410959 0 0.943837167 0.987849 0.03384
-0.483522 0.462492 3.129904 -0.330410959 0 0.943837167 0.980434 0.03384
-0.477966 0.462492 3.131849 -0.330342183 -0.000771765192 0.943860925 0.980434 0.057901
-0.483522 0.461937 3.129904 -0.330342183 -0.000771765192 0.943860925 0.97302 0.03384
-0.478359 0.461937 3.131711 -0.330342183 -0.000771765192 0.943860925 0.97302 0.057901
-0.477966 0.462492 3.131849 -0.330410959 0 0.943837167 0.980434 0.057901
-0.483522 0.462492 3.129904 -0.330410959 0 0.943837167 0.980434 0.03384
-0.483522 0.461937 3.129904 -0.330410959 0 0.943837167 0.97302 0.03384
-0.389525 0.466318 2.86081 0.330056372 0 -0.943961223 0.992959 0.95095
-0.389382 0.465674 2.86086 0.330056372 0 -0.943961223 0.984181 0.96462
-0.389525 0.465779 2.86081 0.330056372 0 -0.943961223 0.984181 0.95095
-0.389525 0.466318 2.86081 0.330056372 0 -0.943961223 0.992959 0.95095
-0.389382 0.466247 2.86086 0.330056372 0 -0.943961223 0.992959 0.96462
-0.389382 0.465674 2.86086 0.330056372 0 -0.943961223 0.984181 0.96462
-0.389525 0.465779 2.86081 0.330056372 0 -0.943961223 0.984181 0.95095
-0.389382 0.462492 2.86086 0.330056372 0 -0.943961223 0.975402 0.96462
-0.389525 0.462545 2.86081 0.330056372 0 -0.943961223 0.975402 0.95095
-0.389525 0.465779 2.86081 0.330056372 0 -0.943961223 0.984181 0.95095
-0.389382 0.465674 2.86086 0.330056372 0 -0.943961223 0.984181 0.96462
-0.389382 0.462492 2.86086 0.330056372 0 -0.943961223 0.975402 0.96462
-0.389525 0.462545 2.86081 0.330056372 0 -0.943961223 0.975402 0.95095
-0.389382 0.461937 2.86086 0.330056372 0 -0.943961223 0.966623 0.96462
-0.389525 0.461937 2.86081 0.330056372 0 -0.943961223 0.966623 0.95095
-0.389525 0.462545 2.86081 0.330056372 0 -0.943961223 0.975402 0.95095
-0.389382 0.462492 2.86086 0.330056372 0 -0.943961223 0.975402 0.96462
-0.389382 0.461937 2.86086 0.330056372 0 -0.943961223 0.966623 0.96462
-0.389668 0.466247 2.86076 0.330056372 0 -0.943961223 0.992959 0.93728
-0.389525 0.465779 2.86081 0.330056372 0 -0.943961223 0.984181 0.95095
-0.389668 0.465674 2.86076 0.330056372 0 -0.943961223 0.984181 0.937279
-0.389668 0.466247 2.86076 0.330056372 0 -0.943961223 0.992959 0.93728
-0.389525 0.466318 2.86081 0.330056372 0 -0.943961223 0.992959 0.95095
-0.389525 0.465779 2.86081 0.330056372 0 -0.943961223 0.984181 0.95095
-0.389668 0.465674 2.86076 0.330056372 0 -0.943961223 0.984181 0.937279
-0.389525 0.462545 2.86081 0.330056372 0 -0.943961223 0.975402 0.95095
-0.389668 0.462492 2.86076 0.330056372 0 -0.943961223 0.975402 0.93728
-0.389668 0.465674 2.86076 0.330056372 0 -0.943961223 0.984181 0.937279
-0.389525 0.465779 2.86081 0.330056372 0 -0.943961223 0.984181 0.95095
-0.389525 0.462545 2.86081 0.330056372 0 -0.943961223 0.975402 0.95095
-0.389668 0.462492 2.86076 0.330056372 0 -0.943961223 0.975402 0.93728
-0.389525 0.461937 2.86081 0.330056372 0 -0.943961223 0.966623 0.95095
-0.389668 0.461937 2.86076 0.330056372 0 -0.943961223 0.966623 0.93728
-0.389668 0.462492 2.86076 0.330056372 0 -0.943961223 0.975402 0.93728
-0.389525 0.462545 2.86081 0.330056372 0 -0.943961223 0.975402 0.95095
-0.389525 0.461937 2.86081 0.330056372 0 -0.943961223 0.966623 0.95095
-0.483665 0.466318 3.129854 -0.330056372 0 0.943961223 0.995264 0.021809
-0.483808 0.465674 3.129804 -0.330056372 0 0.943961223 0.987849 0.009779
-0.483665 0.465779 3.129854 -0.330056372 0 0.943961223 0.987849 0.021809
-0.483665 0.466318 3.129854 -0.330056372 0 0.943961223 0.995264 0.021809
-0.483808 0.466247 3.129804 -0.330056372 0 0.943961223 0.995264 0.009779
-0.483808 0.465674 3.129804 -0.330056372 0 0.943961223 0.987849 0.009779
-0.483665 0.465779 3.129854 -0.330056372 0 0.943961223 0.987849 0.021809
-0.483808 0.462492 3.129804 -0.330056372 0 0.943961223 0.980435 0.009779
-0.483665 0.462545 3.129854 -0.330056372 0 0.943961223 0.980435 0.021809
-0.483665 0.465779 3.129854 -0.330056372 0 0.943961223 0.987849 0.021809
-0.483808 0.465674 3.129804 -0.330056372 0 0.943961223 0.987849 0.009779
-0.483808 0.462492 3.129804 -0.330056372 0 0.943961223 0.980435 0.009779
-0.483665 0.462545 3.129854 -0.330056372 0 0.943961223 0.980435 0.021809
-0.483808 0.461937 3.129804 -0.330056372 0 0.943961223 0.97302 0.009779
-0.483665 0.461937 3.129854 -0.330056372 0 0.943961223 0.97302 0.021809
-0.483665 0.462545 3.129854 -0.330056372 0 0.943961223 0.980435 0.021809
-0.483808 0.462492 3.129804 -0.330056372 0 0.943961223 0.980435 0.009779
-0.483808 0.461937 3.129804 -0.330056372 0 0.943961223 0.97302 0.009779
-0.483522 0.466247 3.129904 -0.330056372 0 0.943961223 0.995264 0.03384
-0.483665 0.465779 3.129854 -0.330056372 0 0.943961223 0.987849 0.021809
-0.483522 0.465674 3.129904 -0.330056372 0 0.943961223 0.987849 0.03384
-0.483522 0.466247 3.129904 -0.330056372 0 0.943961223 0.995264 0.03384
-0.483665 0.466318 3.129854 -0.330056372 0 0.943961223 0.995264 0.021809
-0.483665 0.465779 3.129854 -0.330056372 0 0.943961223 0.987849 0.021809
-0.483522 0.465674 3.129904 -0.330056372 0 0.943961223 0.987849 0.03384
-0.483665 0.462545 3.129854 -0.330056372 0 0.943961223 0.980435 0.021809
-0.483522 0.462492 3.129904 -0.330056372 0 0.943961223 0.980434 0.03384
-0.483522 0.465674 3.129904 -0.330056372 0 0.943961223 0.987849 0.03384
-0.483665 0.465779 3.129854 -0.330056372 0 0.943961223 0.987849 0.021809
-0.483665 0.462545 3.129854 -0.330056372 0 0.943961223 0.980435 0.021809
-0.483522 0.462492 3.129904 -0.330056372 0 0.943961223 0.980434 0.03384
-0.483665 0.461937 3.129854 -0.330056372 0 0.943961223 0.97302 0.021809
-0.483522 0.461937 3.129904 -0.330056372 0 0.943961223 0.97302 0.03384
-0.483522 0.462492 3.129904 -0.330056372 0 0.943961223 0.980434 0.03384
-0.483665 0.462545 3.129854 -0.330056372 0 0.943961223 0.980435 0.021809
-0.483665 0.461937 3.129854 -0.330056372 0 0.943961223 0.97302 0.021809
3 0 1 2
3 3 4 5
3 6 7 8
3 9 10 11
3 12 13 14
3 15 16 17
3 18 19 20
3 21 22 23
3 24 25 26
3 27 28 29
3 30 31 32
3 33 34 35
3 36 37 38
3 39 40 41
3 42 43 44
3 45 46 47
3 48 49 50
3 51 52 53
3 54 55 56
3 57 58 59
3 60 61 62
3 63 64 65
3 66 67 68
3 69 70 71
3 72 73 74
3 75 76 77
3 78 79 80
3 81 82 83
3 84 85 86
3 87 88 89
3 90 91 92
3 93 94 95
3 96 97 98
3 99 100 101
3 102 103 104
3 105 106 107
3 108 109 110
3 111 112 113
3 114 115 116
3 117 118 119
3 120 121 122
3 123 124 125
3 126 127 128
3 129 130 131
3 132 133 134
3 135 136 137
3 138 139 140
3 141 142 143
3 144 145 146
3 147 148 149
3 150 151 152
3 153 154 155
3 156 157 158
3 159 160 161
3 162 163 164
3 165 166 167
3 168 169 170
3 171 172 173
3 174 175 176
3 177 178 179
3 180 181 182
3 183 184 185
3 186 187 188
3 189 190 191
3 192 193 194
3 195 196 197
3 198 199 200
3 201 202 203
3 204 205 206
3 207 208 209
3 210 211 212
3 213 214 215
3 216 217 218
3 219 220 221
3 222 223 224
3 225 226 227
