ply
format ascii 1.0
element vertex 429
property float x
property float y
property float z
property float nx
property float ny
property float nz
property float u
property float v
element face 768
property list uchar int vertex_indices
end_header
-2.813925 1.264172 1.481546 0.382690337 0 0.923876672 0.867571 0.283237
-2.771842 1.279988 1.468638 0.198999901 0 0.97999951 0.876392 0.281752
-2.813925 1.279988 1.481546 0.382690337 0 0.923876672 0.867994 0.282913
-2.771842 1.264172 1.468638 0.198999901 0 0.97999951 0.875998 0.282009
-2.72816 1.279988 1.464114 0 0 1 0.883424 0.280784
-2.72816 1.264172 1.464114 0 0 1 0.883026 0.280972
-2.771842 1.311358 1.468638 0.198999901 0 0.97999951 0.877755 0.279381
-2.813925 1.311358 1.481546 0.382690337 0 0.923876672 0.869573 0.280244
-2.72816 1.311358 1.464114 0 0 1 0.884643 0.278665
-2.771842 1.258724 1.468638 0.198999901 0 0.97999951 0.876249 0.280855
-2.813925 1.258724 1.481546 0.382690337 0 0.923876672 0.867919 0.282
-2.771842 1.258461 1.468638 0.199095937 0 0.979980004 0.876823 0.278996
-2.813925 1.258461 1.481546 0.382690337 0 0.923876672 0.868652 0.27998
-2.72816 1.258724 1.464114 0 0 1 0.883176 0.279873
-2.72816 1.258461 1.464114 0 0 1 0.8836 0.278131
-2.852809 1.258724 1.502175 0.552205376 0 0.833708116 0.857904 0.283154
-2.852809 1.264172 1.502175 0.552205376 0 0.833708116 0.857464 0.2845
-2.886895 1.258724 1.529865 0.707106781 0 0.707106781 0.84592 0.284164
-2.886895 1.264172 1.529865 0.707106781 0 0.707106781 0.845392 0.285638
-2.852809 1.258461 1.502175 0.552135862 0 0.833754154 0.858807 0.280935
-2.886895 1.258461 1.529865 0.707106781 0 0.707106781 0.847006 0.281713
-2.852809 1.279988 1.502175 0.552205376 0 0.833708116 0.85795 0.284101
-2.852809 1.311358 1.502175 0.552205376 0 0.833708116 0.859826 0.281085
-2.886895 1.279988 1.529865 0.707106781 0 0.707106781 0.845981 0.285155
-2.886895 1.311358 1.529865 0.707106781 0 0.707106781 0.848243 0.281738
-2.813925 1.425944 1.481546 0.382690337 0 0.923876672 0.876704 0.26704
-2.771842 1.488421 1.468638 0.198999901 0 0.97999951 0.887372 0.260726
-2.813925 1.488421 1.481546 0.382690337 0 0.923876672 0.880952 0.259525
-2.771842 1.425944 1.468638 0.198999901 0 0.97999951 0.883799 0.267523
-2.72816 1.488421 1.464114 0 0 1 0.892961 0.261716
-2.72816 1.425944 1.464114 0 0 1 0.889888 0.267918
-2.771842 1.540529 1.468638 0.198999901 0 0.97999951 0.890573 0.255144
-2.813925 1.540529 1.481546 0.382690337 0 0.923876672 0.884788 0.253415
-2.72816 1.540529 1.464114 0 0 1 0.895697 0.256579
-2.771842 1.363467 1.468638 0.198999901 0 0.97999951 0.880409 0.274189
-2.813925 1.363467 1.481546 0.382690337 0 0.923876672 0.872694 0.274449
-2.72816 1.363467 1.464114 0 0 1 0.886957 0.273972
-2.852809 1.363467 1.502175 0.552205376 0 0.833708116 0.863555 0.27458
-2.852809 1.425944 1.502175 0.552205376 0 0.833708116 0.86837 0.266297
-2.886895 1.363467 1.529865 0.707106781 0 0.707106781 0.852737 0.274409
-2.886895 1.425944 1.529865 0.707106781 0 0.707106781 0.858565 0.265124
-2.852809 1.488421 1.502175 0.552205376 0 0.833708116 0.873504 0.25795
-2.852809 1.540529 1.502175 0.552205376 0 0.833708116 0.878191 0.25125
-2.886895 1.488421 1.529865 0.707106781 0 0.707106781 0.864829 0.255839
-2.886895 1.540529 1.529865 0.707106781 0 0.707106781 0.870632 0.24851
-2.813925 1.587716 1.481546 0.382690337 0 0.923876672 0.889532 0.249211
-2.771842 1.593164 1.468638 0.198999901 0 0.97999951 0.895542 0.251195
-2.813925 1.593164 1.481546 0.382690335 -9.99974746e-05 0.923876668 0.890972 0.24966
-2.771842 1.587716 1.468638 0.198999901 0 0.97999951 0.894426 0.251018
-2.72816 1.593164 1.464114 0 0 1 0.899837 0.252564
-2.72816 1.587716 1.464114 0 0 1 0.898932 0.252573
-2.771842 1.593427 1.468638 0.199095937 0 0.979980004 0.896427 0.252012
-2.813925 1.593427 1.481546 0.382604972 -0.000200002599 0.923912006 0.892146 0.250837
-2.72816 1.593427 1.464114 0 0 1 0.900539 0.253125
-2.771842 1.5719 1.468638 0.198999901 0 0.97999951 0.892847 0.252121
-2.813925 1.5719 1.481546 0.382690337 0 0.923876672 0.887559 0.25022
-2.72816 1.5719 1.464114 0 0 1 0.897619 0.253722
-2.852809 1.5719 1.502175 0.552205376 0 0.833708116 0.881665 0.247912
-2.852809 1.587716 1.502175 0.552205376 0 0.833708116 0.884228 0.247094
-2.886895 1.5719 1.529865 0.707106781 0 0.707106781 0.875074 0.245093
-2.886895 1.587716 1.529865 0.707106781 0 0.707106781 0.878497 0.244611
-2.852809 1.593164 1.502175 0.552205373 -0.000100000973 0.833708112 0.886185 0.247957
-2.852809 1.593427 1.502175 0.552205365 -0.000200001943 0.8337081 0.887838 0.24966
-2.886895 1.593164 1.529865 0.707106781 0 0.707106781 0.881239 0.246086
-2.886895 1.593427 1.529865 0.707106781 0 0.707106781 0.883642 0.248538
-2.935214 1.264172 1.602835 0.923876672 0 0.382690337 0.814196 0.286804
-2.914584 1.279988 1.563951 0.833708116 0 0.552205376 0.831805 0.285911
-2.935214 1.279988 1.602835 0.923876672 0 0.382690337 0.815083 0.286102
-2.914584 1.264172 1.563951 0.833708116 0 0.552205376 0.831074 0.286493
-2.914584 1.311358 1.563951 0.833708116 0 0.552205376 0.834551 0.282035
-2.935214 1.311358 1.602835 0.923876672 0 0.382690337 0.818334 0.281704
-2.914584 1.258724 1.563951 0.833708116 0 0.552205376 0.831685 0.284878
-2.935214 1.258724 1.602835 0.923876672 0 0.382690337 0.814886 0.28504
-2.914584 1.258461 1.563951 0.833754154 0 0.552135862 0.832968 0.282166
-2.935214 1.258461 1.602835 0.923876672 0 0.382690337 0.816364 0.282044
-2.948122 1.258724 1.644917 0.97999951 0 0.198999901 0.795212 0.284393
-2.948122 1.264172 1.644917 0.97999951 0 0.198999901 0.79445 0.286308
-2.952645 1.258724 1.688599 1 0 0 0.772349 0.282682
-2.952645 1.264172 1.688599 1 0 0 0.771522 0.284746
-2.948122 1.258461 1.644917 0.979980004 0 0.199095937 0.796866 0.281097
-2.952645 1.258461 1.688599 1 0 0 0.774144 0.279075
-2.948122 1.279988 1.644917 0.97999951 0 0.198999901 0.795472 0.285462
-2.948122 1.311358 1.644917 0.97999951 0 0.198999901 0.799172 0.280472
-2.952645 1.279988 1.688599 1 0 0 0.772632 0.283723
-2.952645 1.311358 1.688599 1 0 0 0.776647 0.278069
-2.935214 1.425944 1.602835 0.923876672 0 0.382690337 0.8331 0.260685
-2.914584 1.488421 1.563951 0.833708116 0 0.552205376 0.854732 0.25303
-2.935214 1.488421 1.602835 0.923876672 0 0.382690337 0.842226 0.249201
-2.914584 1.425944 1.563951 0.833708116 0 0.552205376 0.847059 0.26335
-2.914584 1.540529 1.563951 0.833708116 0 0.552205376 0.861959 0.245052
-2.935214 1.540529 1.602835 0.923876672 0 0.382690337 0.85092 0.240491
-2.914584 1.363467 1.563951 0.833708116 0 0.552205376 0.839984 0.273767
-2.935214 1.363467 1.602835 0.923876672 0 0.382690337 0.824738 0.272375
-2.948122 1.363467 1.644917 0.97999951 0 0.198999901 0.806441 0.269959
-2.948122 1.425944 1.644917 0.97999951 0 0.198999901 0.815939 0.256839
-2.952645 1.363467 1.688599 1 0 0 0.784536 0.266241
-2.952645 1.425944 1.688599 1 0 0 0.794827 0.251521
-2.948122 1.488421 1.644917 0.97999951 0 0.198999901 0.826327 0.244028
-2.948122 1.540529 1.644917 0.97999951 0 0.198999901 0.836264 0.234444
-2.952645 1.488421 1.688599 1 0 0 0.806051 0.237189
-2.952645 1.540529 1.688599 1 0 0 0.816737 0.226526
-2.935214 1.587716 1.602835 0.923876672 0 0.382690337 0.863839 0.237763
-2.914584 1.593164 1.563951 0.833708116 0 0.552205376 0.876193 0.244045
-2.935214 1.593164 1.602835 0.923876672 0 0.382690337 0.868876 0.241073
-2.914584 1.587716 1.563951 0.833708116 0 0.552205376 0.872317 0.241705
-2.914584 1.593427 1.563951 0.833662078 0 0.552274878 0.879696 0.247531
-2.935214 1.593427 1.602835 0.923876672 0 0.382690337 0.873507 0.245719
-2.914584 1.5719 1.563951 0.833708116 0 0.552205376 0.867697 0.241659
-2.935214 1.5719 1.602835 0.923876672 0 0.382690337 0.857989 0.237124
-2.948122 1.5719 1.644917 0.97999951 0 0.198999901 0.84441 0.231004
-2.948122 1.587716 1.644917 0.97999951 0 0.198999901 0.851213 0.232171
-2.952645 1.5719 1.688599 1 0 0 0.825415 0.222815
-2.952645 1.587716 1.688599 1 0 0 0.832587 0.224317
-2.948122 1.593164 1.644917 0.97999951 0 0.198999901 0.85712 0.23641
-2.948122 1.593427 1.644917 0.979980004 0 0.199095937 0.86258 0.242185
-2.952645 1.593164 1.688599 1 0 0 0.838754 0.229294
-2.952645 1.593427 1.688599 1 0 0 0.84442 0.236009
-2.935214 1.264172 1.774364 0.923876672 0 -0.382690337 0.715676 0.277662
-2.948122 1.279988 1.732281 0.97999951 0 -0.198999901 0.746221 0.280618
-2.935214 1.279988 1.774364 0.923876672 0 -0.382690337 0.716742 0.276191
-2.948122 1.264172 1.732281 0.97999951 0 -0.198999901 0.745103 0.281855
-2.948122 1.311358 1.732281 0.97999951 0 -0.198999901 0.750341 0.274222
-2.935214 1.311358 1.774364 0.923876672 0 -0.382690337 0.720807 0.269019
-2.948122 1.258724 1.732281 0.97999951 0 -0.198999901 0.745986 0.279651
-2.935214 1.258724 1.774364 0.923876672 0 -0.382690337 0.716609 0.275333
-2.948122 1.258461 1.732281 0.979980004 0 -0.199095937 0.747871 0.275728
-2.935214 1.258461 1.774364 0.923876672 0 -0.382690337 0.718541 0.271103
-2.914584 1.258724 1.813248 0.833708116 0 -0.552205376 0.684702 0.26976
-2.914584 1.264172 1.813248 0.833708116 0 -0.552205376 0.683727 0.272197
-2.886895 1.258724 1.847334 0.707106781 0 -0.707106781 0.650751 0.262966
-2.886895 1.264172 1.847334 0.707106781 0 -0.707106781 0.649739 0.265486
-2.914584 1.258461 1.813248 0.833754154 0 -0.552135862 0.686652 0.265249
-2.886895 1.258461 1.847334 0.707106781 0 -0.707106781 0.652698 0.258212
-2.914584 1.279988 1.813248 0.833708116 0 -0.552205376 0.684701 0.270484
-2.914584 1.311358 1.813248 0.833708116 0 -0.552205376 0.688597 0.262547
-2.886895 1.279988 1.847334 0.707106781 0 -0.707106781 0.650599 0.26354
-2.886895 1.311358 1.847334 0.707106781 0 -0.707106781 0.654267 0.254894
-2.935214 1.425944 1.774364 0.923876672 0 -0.382690337 0.739273 0.235883
-2.948122 1.488421 1.732281 0.97999951 0 -0.198999901 0.780413 0.22836
-2.935214 1.488421 1.774364 0.923876672 0 -0.382690337 0.750368 0.217949
-2.948122 1.425944 1.732281 0.97999951 0 -0.198999901 0.769013 0.244441
-2.948122 1.540529 1.732281 0.97999951 0 -0.198999901 0.791089 0.216353
-2.935214 1.540529 1.774364 0.923876672 0 -0.382690337 0.760498 0.204455
-2.948122 1.363467 1.732281 0.97999951 0 -0.198999901 0.758464 0.260946
-2.935214 1.363467 1.774364 0.923876672 0 -0.382690337 0.728868 0.254245
-2.914584 1.363467 1.813248 0.833708116 0 -0.552205376 0.696392 0.246311
-2.914584 1.425944 1.813248 0.833708116 0 -0.552205376 0.706382 0.226131
-2.886895 1.363467 1.847334 0.707106781 0 -0.707106781 0.661678 0.237317
-2.886895 1.425944 1.847334 0.707106781 0 -0.707106781 0.671117 0.215469
-2.914584 1.488421 1.813248 0.833708116 0 -0.552205376 0.716867 0.206364
-2.914584 1.540529 1.813248 0.833708116 0 -0.552205376 0.726144 0.191363
-2.886895 1.488421 1.847334 0.707106781 0 -0.707106781 0.680865 0.194012
-2.886895 1.540529 1.847334 0.707106781 0 -0.707106781 0.689208 0.177608
-2.935214 1.587716 1.774364 0.923876672 0 -0.382690337 0.773558 0.200718
-2.948122 1.593164 1.732281 0.97999951 0 -0.198999901 0.811609 0.218964
-2.935214 1.593164 1.774364 0.923876672 0 -0.382690337 0.777797 0.206248
-2.948122 1.587716 1.732281 0.97999951 0 -0.198999901 0.806111 0.213587
-2.948122 1.593427 1.732281 0.979980004 0 -0.199095937 0.816531 0.226273
-2.935214 1.593427 1.774364 0.923876672 0 -0.382690337 0.781382 0.213892
-2.948122 1.5719 1.732281 0.97999951 0 -0.198999901 0.799463 0.212072
-2.935214 1.5719 1.774364 0.923876672 0 -0.382690337 0.76801 0.199416
-2.914584 1.5719 1.813248 0.833708116 0 -0.552205376 0.732513 0.185485
-2.914584 1.587716 1.813248 0.833708116 0 -0.552205376 0.736699 0.186449
-2.886895 1.5719 1.847334 0.707106781 0 -0.707106781 0.694429 0.170919
-2.886895 1.587716 1.847334 0.707106781 0 -0.707106781 0.697308 0.171516
-2.914584 1.593164 1.813248 0.833708116 0 -0.552205376 0.739432 0.191974
-2.914584 1.593427 1.813248 0.833662078 0 -0.552274878 0.741437 0.19978
-2.886895 1.593164 1.847334 0.707106781 0 -0.707106781 0.698625 0.176971
-2.886895 1.593427 1.847334 0.707106781 0 -0.707106781 0.699162 0.184853
-2.813925 1.264172 1.895653 0.382690337 0 -0.923876672 0.577548 0.248533
-2.852809 1.279988 1.875023 0.552205376 0 -0.833708116 0.614942 0.255401
-2.813925 1.279988 1.895653 0.382690337 0 -0.923876672 0.578162 0.246187
-2.852809 1.264172 1.875023 0.552205376 0 -0.833708116 0.614197 0.257557
-2.852809 1.311358 1.875023 0.552205376 0 -0.833708116 0.618368 0.246148
-2.813925 1.311358 1.895653 0.382690337 0 -0.923876672 0.581308 0.236426
-2.852809 1.258724 1.875023 0.55213586 0.000100006495 -0.83375415 0.61524 0.254982
-2.813925 1.258724 1.895653 0.382690335 9.99974746e-05 -0.923876668 0.578622 0.245936
-2.852809 1.258461 1.875023 0.552089817 0.000199996311 -0.833784621 0.617176 0.250042
-2.813925 1.258461 1.895653 0.382604972 0.000200002599 -0.923912006 0.58054 0.240867
-2.771842 1.258724 1.908561 0.199095937 0 -0.979980004 0.54135 0.235955
-2.771842 1.264172 1.908561 0.198999901 0 -0.97999951 0.540239 0.238538
-2.72816 1.258724 1.913084 0 0 -1 0.503875 0.225165
-2.72816 1.264172 1.913084 0 0 -1 0.502718 0.227694
-2.771842 1.258461 1.908561 0.199095937 0 -0.979980004 0.543242 0.23082
-2.72816 1.258461 1.913084 0 0 -1 0.505736 0.220031
-2.771842 1.279988 1.908561 0.198999901 0 -0.97999951 0.540693 0.236018
-2.771842 1.311358 1.908561 0.198999901 0 -0.97999951 0.543493 0.225845
-2.72816 1.279988 1.913084 0 0 -1 0.502968 0.225014
-2.72816 1.311358 1.913084 0 0 -1 0.505328 0.21452
-2.813925 1.425944 1.895653 0.382690337 0 -0.923876672 0.596091 0.192375
-2.852809 1.488421 1.875023 0.552205376 0 -0.833708116 0.643316 0.181302
-2.813925 1.488421 1.895653 0.382690337 0 -0.923876672 0.604454 0.168341
-2.852809 1.425944 1.875023 0.552205376 0 -0.833708116 0.634251 0.20418
-2.852809 1.540529 1.875023 0.552205376 0 -0.833708116 0.650869 0.163722
-2.813925 1.540529 1.895653 0.382690337 0 -0.923876672 0.611284 0.149805
-2.852809 1.363467 1.875023 0.552205376 0 -0.833708116 0.62537 0.227435
-2.813925 1.363467 1.895653 0.382690337 0 -0.923876672 0.58783 0.21678
-2.771842 1.363467 1.908561 0.198999901 0 -0.97999951 0.54942 0.205466
-2.771842 1.425944 1.908561 0.198999901 0 -0.97999951 0.55694 0.180168
-2.72816 1.363467 1.913084 0 0 -1 0.510504 0.193608
-2.72816 1.425944 1.913084 0 0 -1 0.517102 0.16767
-2.771842 1.488421 1.908561 0.198999901 0 -0.97999951 0.564515 0.155238
-2.771842 1.540529 1.908561 0.198999901 0 -0.97999951 0.570611 0.13596
-2.72816 1.488421 1.913084 0 0 -1 0.523734 0.142099
-2.72816 1.540529 1.913084 0 0 -1 0.529007 0.122289
-2.813925 1.587716 1.895653 0.382690337 0 -0.923876672 0.616227 0.141954
-2.852809 1.593164 1.875023 0.552205376 0 -0.833708116 0.657491 0.162065
-2.813925 1.593164 1.895653 0.382690337 0 -0.923876672 0.615924 0.147326
-2.852809 1.587716 1.875023 0.552205376 0 -0.833708116 0.657155 0.156657
-2.852809 1.593427 1.875023 0.552205376 0 -0.833708116 0.657025 0.170027
-2.813925 1.593427 1.895653 0.382690337 0 -0.923876672 0.614829 0.155355
-2.852809 1.5719 1.875023 0.552205376 0 -0.833708116 0.655215 0.156358
-2.813925 1.5719 1.895653 0.382690337 0 -0.923876672 0.614944 0.141895
-2.771842 1.5719 1.908561 0.198999901 0 -0.97999951 0.573692 0.127622
-2.771842 1.587716 1.908561 0.198999901 0 -0.97999951 0.57451 0.127488
-2.72816 1.5719 1.913084 0 0 -1 0.53153 0.113632
-2.72816 1.587716 1.913084 0 0 -1 0.531992 0.113341
-2.771842 1.593164 1.908561 0.198999901 0 -0.97999951 0.573821 0.132824
-2.771842 1.593427 1.908561 0.199095937 0 -0.979980004 0.572378 0.140894
-2.72816 1.593164 1.913084 0 0 -1 0.531079 0.118626
-2.72816 1.593427 1.913084 0 0 -1 0.529478 0.1267
-2.642395 1.264172 1.895653 -0.382690337 0 -0.923876672 0.428848 0.204054
-2.603511 1.258724 1.875023 -0.552205376 0 -0.833708116 0.394862 0.189569
-2.642395 1.258724 1.895653 -0.382690335 9.99974746e-05 -0.923876668 0.430154 0.201757
-2.603511 1.264172 1.875023 -0.552205376 0 -0.833708116 0.393442 0.191696
-2.569425 1.258724 1.847334 -0.707106781 0 -0.707106781 0.361253 0.177344
-2.569425 1.264172 1.847334 -0.707106781 0 -0.707106781 0.359684 0.179273
-2.603511 1.258461 1.875023 -0.552205376 0 -0.833708116 0.396595 0.184847
-2.642395 1.258461 1.895653 -0.38269033 0.000199994946 -0.923876654 0.431937 0.196832
-2.569425 1.258461 1.847334 -0.707206775 0 -0.707006773 0.362927 0.172888
-2.603511 1.279988 1.875023 -0.552205376 0 -0.833708116 0.392648 0.188632
-2.642395 1.279988 1.895653 -0.382690337 0 -0.923876672 0.428496 0.201092
-2.603511 1.311358 1.875023 -0.552205376 0 -0.833708116 0.392792 0.177784
-2.642395 1.311358 1.895653 -0.382690337 0 -0.923876672 0.429575 0.190243
-2.569425 1.279988 1.847334 -0.707106781 0 -0.707106781 0.358323 0.176148
-2.569425 1.311358 1.847334 -0.707106781 0 -0.707106781 0.357275 0.165442
-2.684478 1.279988 1.908561 -0.198999901 0 -0.97999951 0.465419 0.213296
-2.684478 1.264172 1.908561 -0.198999901 0 -0.97999951 0.46543 0.216126
-2.684478 1.311358 1.908561 -0.198999901 0 -0.97999951 0.467221 0.202571
-2.684478 1.258724 1.908561 -0.1989999 9.99999495e-05 -0.979999505 0.466651 0.213694
-2.684478 1.258461 1.908561 -0.199095934 0.000199995915 -0.979979984 0.468476 0.208631
-2.642395 1.425944 1.895653 -0.382690337 0 -0.923876672 0.436494 0.142433
-2.603511 1.363467 1.875023 -0.552205376 0 -0.833708116 0.394188 0.156555
-2.642395 1.363467 1.895653 -0.382690337 0 -0.923876672 0.432562 0.168878
-2.603511 1.425944 1.875023 -0.552205376 0 -0.833708116 0.396146 0.130292
-2.569425 1.363467 1.847334 -0.707106781 0 -0.707106781 0.356645 0.144628
-2.569425 1.425944 1.847334 -0.707106781 0 -0.707106781 0.356052 0.118866
-2.603511 1.488421 1.875023 -0.552205376 0 -0.833708116 0.397977 0.10434
-2.642395 1.488421 1.895653 -0.382690337 0 -0.923876672 0.440406 0.116346
-2.603511 1.540529 1.875023 -0.552205376 0 -0.833708116 0.39899 0.084044
-2.642395 1.540529 1.895653 -0.382690337 0 -0.923876672 0.443335 0.096053
-2.569425 1.488421 1.847334 -0.707106781 0 -0.707106781 0.355114 0.093319
-2.569425 1.540529 1.847334 -0.707106781 0 -0.707106781 0.353452 0.073146
-2.684478 1.488421 1.908561 -0.198999901 0 -0.97999951 0.482344 0.129034
-2.684478 1.425944 1.908561 -0.198999901 0 -0.97999951 0.476883 0.154992
-2.684478 1.540529 1.908561 -0.198999901 0 -0.97999951 0.486628 0.108894
-2.684478 1.363467 1.908561 -0.198999901 0 -0.97999951 0.471442 0.18132
-2.642395 1.587716 1.895653 -0.382690337 0 -0.923876672 0.44384 0.086351
-2.684478 1.593164 1.908561 -0.198999901 0 -0.97999951 0.487593 0.104803
-2.642395 1.593164 1.895653 -0.382690337 0 -0.923876672 0.442389 0.091327
-2.684478 1.587716 1.908561 -0.198999901 0 -0.97999951 0.488658 0.099595
-2.684478 1.593427 1.908561 -0.199095937 0 -0.979980004 0.485933 0.112828
-2.642395 1.593427 1.895653 -0.382690337 0 -0.923876672 0.440452 0.099111
-2.684478 1.5719 1.908561 -0.198999901 0 -0.97999951 0.488534 0.10002
-2.642395 1.5719 1.895653 -0.382690337 0 -0.923876672 0.444318 0.086991
-2.603511 1.5719 1.875023 -0.552205376 0 -0.833708116 0.398496 0.074752
-2.603511 1.587716 1.875023 -0.552205376 0 -0.833708116 0.396873 0.073711
-2.569425 1.5719 1.847334 -0.707106781 0 -0.707106781 0.350684 0.06351
-2.569425 1.587716 1.847334 -0.707106781 0 -0.707106781 0.347088 0.061776
-2.603511 1.593164 1.875023 -0.552205376 0 -0.833708116 0.394496 0.078171
-2.603511 1.593427 1.875023 -0.552205376 0 -0.833708116 0.391742 0.085382
-2.569425 1.593164 1.847334 -0.707106781 0 -0.707106781 0.342938 0.065309
-2.569425 1.593427 1.847334 -0.707106781 0 -0.707106781 0.338513 0.071477
-2.521106 1.264172 1.774364 -0.923876672 0 -0.382690337 0.299244 0.155182
-2.541736 1.279988 1.813248 -0.833708116 0 -0.552205376 0.325971 0.163868
-2.521106 1.279988 1.774364 -0.923876672 0 -0.382690337 0.296433 0.152134
-2.541736 1.264172 1.813248 -0.833708116 0 -0.552205376 0.328044 0.167005
-2.541736 1.311358 1.813248 -0.833708116 0 -0.552205376 0.323428 0.153464
-2.521106 1.311358 1.774364 -0.923876672 0 -0.382690337 0.292323 0.142243
-2.541736 1.258724 1.813248 -0.833708116 0 -0.552205376 0.329804 0.165297
-2.521106 1.258724 1.774364 -0.923876672 0 -0.382690337 0.301189 0.153668
-2.541736 1.258461 1.813248 -0.833754154 0 -0.552135862 0.331408 0.161167
-2.521106 1.258461 1.774364 -0.923876672 0 -0.382690337 0.302701 0.149873
-2.508198 1.258724 1.732281 -0.97999951 0 -0.198999901 0.27608 0.142694
-2.508198 1.264172 1.732281 -0.97999951 0 -0.198999901 0.274002 0.144091
-2.503675 1.258724 1.688599 -1 0 0 0.255152 0.132615
-2.503675 1.264172 1.688599 -1 0 0 0.25304 0.134024
-2.508198 1.258461 1.732281 -0.979980004 0 -0.199095937 0.277471 0.139194
-2.503675 1.258461 1.688599 -1 0 0 0.256381 0.129319
-2.508198 1.279988 1.732281 -0.97999951 0 -0.198999901 0.27055 0.141284
-2.508198 1.311358 1.732281 -0.97999951 0 -0.198999901 0.265035 0.132171
-2.503675 1.279988 1.688599 -1 0 0 0.249162 0.131661
-2.503675 1.311358 1.688599 -1 0 0 0.242635 0.12364
-2.521106 1.425944 1.774364 -0.923876672 0 -0.382690337 0.279222 0.099578
-2.541736 1.488421 1.813248 -0.833708116 0 -0.552205376 0.311877 0.083588
-2.521106 1.488421 1.774364 -0.923876672 0 -0.382690337 0.270853 0.075783
-2.541736 1.425944 1.813248 -0.833708116 0 -0.552205376 0.316422 0.108455
-2.541736 1.540529 1.813248 -0.833708116 0 -0.552205376 0.306582 0.063637
-2.521106 1.540529 1.774364 -0.923876672 0 -0.382690337 0.261688 0.056331
-2.541736 1.363467 1.813248 -0.833708116 0 -0.552205376 0.320259 0.13337
-2.521106 1.363467 1.774364 -0.923876672 0 -0.382690337 0.286483 0.123228
-2.508198 1.363467 1.732281 -0.97999951 0 -0.198999901 0.256771 0.114648
-2.508198 1.425944 1.732281 -0.97999951 0 -0.198999901 0.246417 0.092757
-2.503675 1.363467 1.688599 -1 0 0 0.232577 0.108075
-2.503675 1.425944 1.688599 -1 0 0 0.219972 0.088511
-2.508198 1.488421 1.732281 -0.97999951 0 -0.198999901 0.234633 0.070541
-2.508198 1.540529 1.732281 -0.97999951 0 -0.198999901 0.222077 0.05204
-2.503675 1.488421 1.688599 -1 0 0 0.205805 0.068498
-2.503675 1.540529 1.688599 -1 0 0 0.191059 0.051579
-2.521106 1.587716 1.774364 -0.923876672 0 -0.382690337 0.242022 0.041716
-2.541736 1.593164 1.813248 -0.833708116 0 -0.552205376 0.286744 0.052714
-2.521106 1.593164 1.774364 -0.923876672 0 -0.382690337 0.231764 0.042137
-2.541736 1.587716 1.813248 -0.833708116 0 -0.552205376 0.293818 0.050647
-2.541736 1.593427 1.813248 -0.833662078 0 -0.552274878 0.279473 0.057228
-2.521106 1.593427 1.774364 -0.923876672 0 -0.382690337 0.221386 0.044766
-2.541736 1.5719 1.813248 -0.833708116 0 -0.552205376 0.300496 0.053473
-2.521106 1.5719 1.774364 -0.923876672 0 -0.382690337 0.252037 0.045711
-2.508198 1.5719 1.732281 -0.97999951 0 -0.198999901 0.20941 0.041298
-2.508198 1.587716 1.732281 -0.97999951 0 -0.198999901 0.196658 0.036373
-2.503675 1.5719 1.688599 -1 0 0 0.17672 0.041304
-2.503675 1.587716 1.688599 -1 0 0 0.162686 0.03601
-2.508198 1.593164 1.732281 -0.97999951 0 -0.198999901 0.183851 0.035328
-2.508198 1.593427 1.732281 -0.979980004 0 -0.199095937 0.171015 0.036222
-2.503675 1.593164 1.688599 -1 0 0 0.148855 0.034038
-2.503675 1.593427 1.688599 -1 0 0 0.135125 0.033727
-2.521106 1.264172 1.602835 -0.923876672 0 0.382690337 0.224863 0.117497
-2.508198 1.279988 1.644917 -0.97999951 0 0.198999901 0.233111 0.123604
-2.521106 1.279988 1.602835 -0.923876672 0 0.382690337 0.221063 0.116722
-2.508198 1.264172 1.644917 -0.97999951 0 0.198999901 0.237077 0.125268
-2.508198 1.311358 1.644917 -0.97999951 0 0.198999901 0.226198 0.117044
-2.521106 1.311358 1.602835 -0.923876672 0 0.382690337 0.214233 0.111898
-2.508198 1.258724 1.644917 -0.97999951 0 0.198999901 0.239077 0.123669
-2.521106 1.258724 1.602835 -0.923876672 0 0.382690337 0.226642 0.115573
-2.508198 1.258461 1.644917 -0.979980004 0 0.199095937 0.240095 0.120437
-2.521106 1.258461 1.602835 -0.923876672 0 0.382690337 0.227411 0.112299
-2.541736 1.258724 1.563951 -0.833708116 0 0.552205376 0.216634 0.108043
-2.541736 1.264172 1.563951 -0.833708116 0 0.552205376 0.215149 0.110381
-2.569425 1.258724 1.529865 -0.707106781 0 0.707106781 0.207839 0.100797
-2.569425 1.264172 1.529865 -0.707106781 0 0.707106781 0.206684 0.103593
-2.541736 1.258461 1.563951 -0.833754154 0 0.552135862 0.217129 0.104657
-2.569425 1.258461 1.529865 -0.707206775 0 0.707006773 0.208048 0.097264
-2.541736 1.279988 1.563951 -0.833708116 0 0.552205376 0.211684 0.110622
-2.541736 1.311358 1.563951 -0.833708116 0 0.552205376 0.20525 0.107719
-2.569425 1.279988 1.529865 -0.707106781 0 0.707106781 0.203639 0.104915
-2.569425 1.311358 1.529865 -0.707106781 0 0.707106781 0.197756 0.104024
-2.521106 1.425944 1.602835 -0.923876672 0 0.382690337 0.189975 0.088535
-2.508198 1.488421 1.644917 -0.97999951 0 0.198999901 0.186957 0.07029
-2.521106 1.488421 1.602835 -0.923876672 0 0.382690337 0.175595 0.074959
-2.508198 1.425944 1.644917 -0.97999951 0 0.198999901 0.201852 0.087362
-2.508198 1.540529 1.644917 -0.97999951 0 0.198999901 0.17194 0.055761
-2.521106 1.540529 1.602835 -0.923876672 0 0.382690337 0.161747 0.063426
-2.508198 1.363467 1.644917 -0.97999951 0 0.198999901 0.215356 0.103955
-2.521106 1.363467 1.602835 -0.923876672 0 0.382690337 0.203363 0.101675
-2.541736 1.363467 1.563951 -0.833708116 0 0.552205376 0.194856 0.100622
-2.541736 1.425944 1.563951 -0.833708116 0 0.552205376 0.182261 0.091257
-2.569425 1.363467 1.529865 -0.707106781 0 0.707106781 0.188092 0.100183
-2.569425 1.425944 1.529865 -0.707106781 0 0.707106781 0.176628 0.094752
-2.541736 1.488421 1.563951 -0.833708116 0 0.552205376 0.169224 0.081545
-2.541736 1.540529 1.563951 -0.833708116 0 0.552205376 0.157503 0.073412
-2.569425 1.488421 1.529865 -0.707106781 0 0.707106781 0.165348 0.089091
-2.569425 1.540529 1.529865 -0.707106781 0 0.707106781 0.156234 0.084559
-2.521106 1.587716 1.602835 -0.923876672 0 0.382690337 0.139702 0.052804
-2.508198 1.593164 1.644917 -0.97999951 0 0.198999901 0.132628 0.040019
-2.521106 1.593164 1.602835 -0.923876672 0 0.382690337 0.130478 0.051452
-2.508198 1.587716 1.644917 -0.97999951 0 0.198999901 0.145063 0.042018
-2.508198 1.593427 1.644917 -0.979980004 0 0.199095937 0.12048 0.039412
-2.521106 1.593427 1.602835 -0.923876672 0 0.382690337 0.121768 0.051232
-2.508198 1.5719 1.644917 -0.97999951 0 0.198999901 0.158071 0.046802
-2.521106 1.5719 1.602835 -0.923876672 0 0.382690337 0.149954 0.056418
-2.541736 1.5719 1.563951 -0.833708116 0 0.552205376 0.148857 0.06878
-2.541736 1.587716 1.563951 -0.833708116 0 0.552205376 0.142516 0.066775
-2.569425 1.5719 1.529865 -0.707106781 0 0.707106781 0.15127 0.082515
-2.569425 1.587716 1.529865 -0.707106781 0 0.707106781 0.149417 0.082339
-2.541736 1.593164 1.563951 -0.833708116 0 0.552205376 0.137713 0.066521
-2.541736 1.593427 1.563951 -0.833662078 0 0.552274878 0.133678 0.067142
-2.569425 1.593164 1.529865 -0.707106781 0 0.707106781 0.14964 0.083406
-2.569425 1.593427 1.529865 -0.707106781 0 0.707106781 0.150899 0.085097
-2.642395 1.264172 1.481546 -0.382690337 0 0.923876672 0.894018 0.279862
-2.603511 1.279988 1.502175 -0.552205376 0 0.833708116 0.899086 0.279653
-2.642395 1.279988 1.481546 -0.382690337 0 0.923876672 0.894499 0.279823
-2.603511 1.264172 1.502175 -0.552205376 0 0.833708116 0.898538 0.279614
-2.569425 1.279988 1.529865 -0.707106781 0 0.707106781 0.903401 0.279572
-2.569425 1.264172 1.529865 -0.707106781 0 0.707106781 0.902779 0.279453
-2.603511 1.311358 1.502175 -0.552205376 0 0.833708116 0.900192 0.278088
-2.642395 1.311358 1.481546 -0.382690337 0 0.923876672 0.895605 0.278097
-2.569425 1.311358 1.529865 -0.707106781 0 0.707106781 0.904523 0.278158
-2.603511 1.258724 1.502175 -0.552205376 0 0.833708116 0.898362 0.278506
-2.642395 1.258724 1.481546 -0.382690337 0 0.923876672 0.893953 0.278777
-2.603511 1.258461 1.502175 -0.552205376 0 0.833708116 0.898371 0.276863
-2.642395 1.258461 1.481546 -0.382690337 0 0.923876672 0.894096 0.27713
-2.569425 1.258724 1.529865 -0.707106781 0 0.707106781 0.90249 0.278313
-2.569425 1.258461 1.529865 -0.707206775 0 0.707006773 0.902368 0.276662
-2.684478 1.258724 1.468638 -0.198999901 0 0.97999951 0.888984 0.279207
-2.684478 1.264172 1.468638 -0.198999901 0 0.97999951 0.88894 0.280286
-2.684478 1.258461 1.468638 -0.199095937 0 0.979980004 0.889265 0.277531
-2.684478 1.279988 1.468638 -0.198999901 0 0.97999951 0.889369 0.28017
-2.684478 1.311358 1.468638 -0.198999901 0 0.97999951 0.890508 0.278263
-2.642395 1.425944 1.481546 -0.382690337 0 0.923876672 0.899936 0.268933
-2.603511 1.488421 1.502175 -0.552205376 0 0.833708116 0.906558 0.264435
-2.642395 1.488421 1.481546 -0.382690337 0 0.923876672 0.902395 0.263558
-2.603511 1.425944 1.502175 -0.552205376 0 0.833708116 0.904281 0.269512
-2.569425 1.488421 1.529865 -0.707106781 0 0.707106781 0.910562 0.2653
-2.569425 1.425944 1.529865 -0.707106781 0 0.707106781 0.908433 0.270112
-2.603511 1.540529 1.502175 -0.552205376 0 0.833708116 0.908519 0.260123
-2.642395 1.540529 1.481546 -0.382690337 0 0.923876672 0.904542 0.259031
-2.569425 1.540529 1.529865 -0.707106781 0 0.707106781 0.912368 0.261177
-2.603511 1.363467 1.502175 -0.552205376 0 0.833708116 0.902041 0.274386
-2.642395 1.363467 1.481546 -0.382690337 0 0.923876672 0.897545 0.274123
-2.569425 1.363467 1.529865 -0.707106781 0 0.707106781 0.90631 0.274701
-2.684478 1.363467 1.468638 -0.198999901 0 0.97999951 0.892593 0.273967
-2.684478 1.425944 1.468638 -0.198999901 0 0.97999951 0.895203 0.268394
-2.684478 1.488421 1.468638 -0.198999901 0 0.97999951 0.897916 0.262655
-2.684478 1.540529 1.468638 -0.198999901 0 0.97999951 0.900311 0.257862
-2.642395 1.587716 1.481546 -0.382690337 0 0.923876672 0.906925 0.255146
-2.603511 1.593164 1.502175 -0.552205376 0 0.833708116 0.911053 0.255846
-2.642395 1.593164 1.481546 -0.382690337 0 0.923876672 0.907509 0.254848
-2.603511 1.587716 1.502175 -0.552205376 0 0.833708116 0.910599 0.256261
-2.569425 1.593164 1.529865 -0.707106781 0 0.707106781 0.914514 0.256802
-2.569425 1.587716 1.529865 -0.707106781 0 0.707106781 0.91418 0.257327
-2.603511 1.593427 1.502175 -0.552205376 0 0.833708116 0.91134 0.255863
-2.642395 1.593427 1.481546 -0.382690337 0 0.923876672 0.907919 0.255021
-2.569425 1.593427 1.529865 -0.707106781 0 0.707106781 0.914684 0.256676
-2.603511 1.5719 1.502175 -0.552205376 0 0.833708116 0.90981 0.257542
-2.642395 1.5719 1.481546 -0.382690337 0 0.923876672 0.905994 0.256383
-2.569425 1.5719 1.529865 -0.707106781 0 0.707106781 0.913519 0.258652
-2.684478 1.5719 1.468638 -0.198999901 0 0.97999951 0.901966 0.255126
-2.684478 1.587716 1.468638 -0.198999901 0 0.97999951 0.903067 0.253933
-2.684478 1.593164 1.468638 -0.198999901 0 0.97999951 0.903798 0.253768
-2.684478 1.593427 1.468638 -0.199095937 0 0.979980004 0.904344 0.254118
3 0 1 2
3 0 3 1
3 3 4 1
3 3 5 4
3 2 6 7
3 2 1 6
3 1 8 6
3 1 4 8
3 0 9 3
3 0 10 9
3 10 11 9
3 10 12 11
3 3 13 5
3 3 9 13
3 9 14 13
3 9 11 14
3 0 15 10
3 0 16 15
3 16 17 15
3 16 18 17
3 10 19 12
3 10 15 19
3 15 20 19
3 15 17 20
3 0 21 16
3 0 2 21
3 2 22 21
3 2 7 22
3 16 23 18
3 16 21 23
3 21 24 23
3 21 22 24
3 25 26 27
3 25 28 26
3 28 29 26
3 28 30 29
3 27 31 32
3 27 26 31
3 26 33 31
3 26 29 33
3 25 34 28
3 25 35 34
3 35 6 34
3 35 7 6
3 28 36 30
3 28 34 36
3 34 8 36
3 34 6 8
3 25 37 35
3 25 38 37
3 38 39 37
3 38 40 39
3 35 22 7
3 35 37 22
3 37 24 22
3 37 39 24
3 25 41 38
3 25 27 41
3 27 42 41
3 27 32 42
3 38 43 40
3 38 41 43
3 41 44 43
3 41 42 44
3 45 46 47
3 45 48 46
3 48 49 46
3 48 50 49
3 47 51 52
3 47 46 51
3 46 53 51
3 46 49 53
3 45 54 48
3 45 55 54
3 55 31 54
3 55 32 31
3 48 56 50
3 48 54 56
3 54 33 56
3 54 31 33
3 45 57 55
3 45 58 57
3 58 59 57
3 58 60 59
3 55 42 32
3 55 57 42
3 57 44 42
3 57 59 44
3 45 61 58
3 45 47 61
3 47 62 61
3 47 52 62
3 58 63 60
3 58 61 63
3 61 64 63
3 61 62 64
3 65 66 67
3 65 68 66
3 68 23 66
3 68 18 23
3 67 69 70
3 67 66 69
3 66 24 69
3 66 23 24
3 65 71 68
3 65 72 71
3 72 73 71
3 72 74 73
3 68 17 18
3 68 71 17
3 71 20 17
3 71 73 20
3 65 75 72
3 65 76 75
3 76 77 75
3 76 78 77
3 72 79 74
3 72 75 79
3 75 80 79
3 75 77 80
3 65 81 76
3 65 67 81
3 67 82 81
3 67 70 82
3 76 83 78
3 76 81 83
3 81 84 83
3 81 82 84
3 85 86 87
3 85 88 86
3 88 43 86
3 88 40 43
3 87 89 90
3 87 86 89
3 86 44 89
3 86 43 44
3 85 91 88
3 85 92 91
3 92 69 91
3 92 70 69
3 88 39 40
3 88 91 39
3 91 24 39
3 91 69 24
3 85 93 92
3 85 94 93
3 94 95 93
3 94 96 95
3 92 82 70
3 92 93 82
3 93 84 82
3 93 95 84
3 85 97 94
3 85 87 97
3 87 98 97
3 87 90 98
3 94 99 96
3 94 97 99
3 97 100 99
3 97 98 100
3 101 102 103
3 101 104 102
3 104 63 102
3 104 60 63
3 103 105 106
3 103 102 105
3 102 64 105
3 102 63 64
3 101 107 104
3 101 108 107
3 108 89 107
3 108 90 89
3 104 59 60
3 104 107 59
3 107 44 59
3 107 89 44
3 101 109 108
3 101 110 109
3 110 111 109
3 110 112 111
3 108 98 90
3 108 109 98
3 109 100 98
3 109 111 100
3 101 113 110
3 101 103 113
3 103 114 113
3 103 106 114
3 110 115 112
3 110 113 115
3 113 116 115
3 113 114 116
3 117 118 119
3 117 120 118
3 120 83 118
3 120 78 83
3 119 121 122
3 119 118 121
3 118 84 121
3 118 83 84
3 117 123 120
3 117 124 123
3 124 125 123
3 124 126 125
3 120 77 78
3 120 123 77
3 123 80 77
3 123 125 80
3 117 127 124
3 117 128 127
3 128 129 127
3 128 130 129
3 124 131 126
3 124 127 131
3 127 132 131
3 127 129 132
3 117 133 128
3 117 119 133
3 119 134 133
3 119 122 134
3 128 135 130
3 128 133 135
3 133 136 135
3 133 134 136
3 137 138 139
3 137 140 138
3 140 99 138
3 140 96 99
3 139 141 142
3 139 138 141
3 138 100 141
3 138 99 100
3 137 143 140
3 137 144 143
3 144 121 143
3 144 122 121
3 140 95 96
3 140 143 95
3 143 84 95
3 143 121 84
3 137 145 144
3 137 146 145
3 146 147 145
3 146 148 147
3 144 134 122
3 144 145 134
3 145 136 134
3 145 147 136
3 137 149 146
3 137 139 149
3 139 150 149
3 139 142 150
3 146 151 148
3 146 149 151
3 149 152 151
3 149 150 152
3 153 154 155
3 153 156 154
3 156 115 154
3 156 112 115
3 155 157 158
3 155 154 157
3 154 116 157
3 154 115 116
3 153 159 156
3 153 160 159
3 160 141 159
3 160 142 141
3 156 111 112
3 156 159 111
3 159 100 111
3 159 141 100
3 153 161 160
3 153 162 161
3 162 163 161
3 162 164 163
3 160 150 142
3 160 161 150
3 161 152 150
3 161 163 152
3 153 165 162
3 153 155 165
3 155 166 165
3 155 158 166
3 162 167 164
3 162 165 167
3 165 168 167
3 165 166 168
3 169 170 171
3 169 172 170
3 172 135 170
3 172 130 135
3 171 173 174
3 171 170 173
3 170 136 173
3 170 135 136
3 169 175 172
3 169 176 175
3 176 177 175
3 176 178 177
3 172 129 130
3 172 175 129
3 175 132 129
3 175 177 132
3 169 179 176
3 169 180 179
3 180 181 179
3 180 182 181
3 176 183 178
3 176 179 183
3 179 184 183
3 179 181 184
3 169 185 180
3 169 171 185
3 171 186 185
3 171 174 186
3 180 187 182
3 180 185 187
3 185 188 187
3 185 186 188
3 189 190 191
3 189 192 190
3 192 151 190
3 192 148 151
3 191 193 194
3 191 190 193
3 190 152 193
3 190 151 152
3 189 195 192
3 189 196 195
3 196 173 195
3 196 174 173
3 192 147 148
3 192 195 147
3 195 136 147
3 195 173 136
3 189 197 196
3 189 198 197
3 198 199 197
3 198 200 199
3 196 186 174
3 196 197 186
3 197 188 186
3 197 199 188
3 189 201 198
3 189 191 201
3 191 202 201
3 191 194 202
3 198 203 200
3 198 201 203
3 201 204 203
3 201 202 204
3 205 206 207
3 205 208 206
3 208 167 206
3 208 164 167
3 207 209 210
3 207 206 209
3 206 168 209
3 206 167 168
3 205 211 208
3 205 212 211
3 212 193 211
3 212 194 193
3 208 163 164
3 208 211 163
3 211 152 163
3 211 193 152
3 205 213 212
3 205 214 213
3 214 215 213
3 214 216 215
3 212 202 194
3 212 213 202
3 213 204 202
3 213 215 204
3 205 217 214
3 205 207 217
3 207 218 217
3 207 210 218
3 214 219 216
3 214 217 219
3 217 220 219
3 217 218 220
3 221 222 223
3 221 224 222
3 224 225 222
3 224 226 225
3 223 227 228
3 223 222 227
3 222 229 227
3 222 225 229
3 221 230 224
3 221 231 230
3 231 232 230
3 231 233 232
3 224 234 226
3 224 230 234
3 230 235 234
3 230 232 235
3 221 236 231
3 221 237 236
3 237 187 236
3 237 182 187
3 231 238 233
3 231 236 238
3 236 188 238
3 236 187 188
3 221 239 237
3 221 223 239
3 223 240 239
3 223 228 240
3 237 181 182
3 237 239 181
3 239 184 181
3 239 240 184
3 241 242 243
3 241 244 242
3 244 245 242
3 244 246 245
3 243 232 233
3 243 242 232
3 242 235 232
3 242 245 235
3 241 247 244
3 241 248 247
3 248 249 247
3 248 250 249
3 244 251 246
3 244 247 251
3 247 252 251
3 247 249 252
3 241 253 248
3 241 254 253
3 254 203 253
3 254 200 203
3 248 255 250
3 248 253 255
3 253 204 255
3 253 203 204
3 241 256 254
3 241 243 256
3 243 238 256
3 243 233 238
3 254 199 200
3 254 256 199
3 256 188 199
3 256 238 188
3 257 258 259
3 257 260 258
3 260 219 258
3 260 216 219
3 259 261 262
3 259 258 261
3 258 220 261
3 258 219 220
3 257 263 260
3 257 264 263
3 264 255 263
3 264 250 255
3 260 215 216
3 260 263 215
3 263 204 215
3 263 255 204
3 257 265 264
3 257 266 265
3 266 267 265
3 266 268 267
3 264 249 250
3 264 265 249
3 265 252 249
3 265 267 252
3 257 269 266
3 257 259 269
3 259 270 269
3 259 262 270
3 266 271 268
3 266 269 271
3 269 272 271
3 269 270 272
3 273 274 275
3 273 276 274
3 276 234 274
3 276 226 234
3 275 277 278
3 275 274 277
3 274 235 277
3 274 234 235
3 273 279 276
3 273 280 279
3 280 281 279
3 280 282 281
3 276 225 226
3 276 279 225
3 279 229 225
3 279 281 229
3 273 283 280
3 273 284 283
3 284 285 283
3 284 286 285
3 280 287 282
3 280 283 287
3 283 288 287
3 283 285 288
3 273 289 284
3 273 275 289
3 275 290 289
3 275 278 290
3 284 291 286
3 284 289 291
3 289 292 291
3 289 290 292
3 293 294 295
3 293 296 294
3 296 251 294
3 296 246 251
3 295 297 298
3 295 294 297
3 294 252 297
3 294 251 252
3 293 299 296
3 293 300 299
3 300 277 299
3 300 278 277
3 296 245 246
3 296 299 245
3 299 235 245
3 299 277 235
3 293 301 300
3 293 302 301
3 302 303 301
3 302 304 303
3 300 290 278
3 300 301 290
3 301 292 290
3 301 303 292
3 293 305 302
3 293 295 305
3 295 306 305
3 295 298 306
3 302 307 304
3 302 305 307
3 305 308 307
3 305 306 308
3 309 310 311
3 309 312 310
3 312 271 310
3 312 268 271
3 311 313 314
3 311 310 313
3 310 272 313
3 310 271 272
3 309 315 312
3 309 316 315
3 316 297 315
3 316 298 297
3 312 267 268
3 312 315 267
3 315 252 267
3 315 297 252
3 309 317 316
3 309 318 317
3 318 319 317
3 318 320 319
3 316 306 298
3 316 317 306
3 317 308 306
3 317 319 308
3 309 321 318
3 309 311 321
3 311 322 321
3 311 314 322
3 318 323 320
3 318 321 323
3 321 324 323
3 321 322 324
3 325 326 327
3 325 328 326
3 328 291 326
3 328 286 291
3 327 329 330
3 327 326 329
3 326 292 329
3 326 291 292
3 325 331 328
3 325 332 331
3 332 333 331
3 332 334 333
3 328 285 286
3 328 331 285
3 331 288 285
3 331 333 288
3 325 335 332
3 325 336 335
3 336 337 335
3 336 338 337
3 332 339 334
3 332 335 339
3 335 340 339
3 335 337 340
3 325 341 336
3 325 327 341
3 327 342 341
3 327 330 342
3 336 343 338
3 336 341 343
3 341 344 343
3 341 342 344
3 345 346 347
3 345 348 346
3 348 307 346
3 348 304 307
3 347 349 350
3 347 346 349
3 346 308 349
3 346 307 308
3 345 351 348
3 345 352 351
3 352 329 351
3 352 330 329
3 348 303 304
3 348 351 303
3 351 292 303
3 351 329 292
3 345 353 352
3 345 354 353
3 354 355 353
3 354 356 355
3 352 342 330
3 352 353 342
3 353 344 342
3 353 355 344
3 345 357 354
3 345 347 357
3 347 358 357
3 347 350 358
3 354 359 356
3 354 357 359
3 357 360 359
3 357 358 360
3 361 362 363
3 361 364 362
3 364 323 362
3 364 320 323
3 363 365 366
3 363 362 365
3 362 324 365
3 362 323 324
3 361 367 364
3 361 368 367
3 368 349 367
3 368 350 349
3 364 319 320
3 364 367 319
3 367 308 319
3 367 349 308
3 361 369 368
3 361 370 369
3 370 371 369
3 370 372 371
3 368 358 350
3 368 369 358
3 369 360 358
3 369 371 360
3 361 373 370
3 361 363 373
3 363 374 373
3 363 366 374
3 370 375 372
3 370 373 375
3 373 376 375
3 373 374 376
3 377 378 379
3 377 380 378
3 380 381 378
3 380 382 381
3 379 383 384
3 379 378 383
3 378 385 383
3 378 381 385
3 377 386 380
3 377 387 386
3 387 388 386
3 387 389 388
3 380 390 382
3 380 386 390
3 386 391 390
3 386 388 391
3 377 392 387
3 377 393 392
3 393 13 392
3 393 5 13
3 387 394 389
3 387 392 394
3 392 14 394
3 392 13 14
3 377 395 393
3 377 379 395
3 379 396 395
3 379 384 396
3 393 4 5
3 393 395 4
3 395 8 4
3 395 396 8
3 397 398 399
3 397 400 398
3 400 401 398
3 400 402 401
3 399 403 404
3 399 398 403
3 398 405 403
3 398 401 405
3 397 406 400
3 397 407 406
3 407 383 406
3 407 384 383
3 400 408 402
3 400 406 408
3 406 385 408
3 406 383 385
3 397 409 407
3 397 410 409
3 410 36 409
3 410 30 36
3 407 396 384
3 407 409 396
3 409 8 396
3 409 36 8
3 397 411 410
3 397 399 411
3 399 412 411
3 399 404 412
3 410 29 30
3 410 411 29
3 411 33 29
3 411 412 33
3 413 414 415
3 413 416 414
3 416 417 414
3 416 418 417
3 415 419 420
3 415 414 419
3 414 421 419
3 414 417 421
3 413 422 416
3 413 423 422
3 423 403 422
3 423 404 403
3 416 424 418
3 416 422 424
3 422 405 424
3 422 403 405
3 413 425 423
3 413 426 425
3 426 56 425
3 426 50 56
3 423 412 404
3 423 425 412
3 425 33 412
3 425 56 33
3 413 427 426
3 413 415 427
3 415 428 427
3 415 420 428
3 426 49 50
3 426 427 49
3 427 53 49
3 427 428 53
