ply
format ascii 1.0
element vertex 682
property float x
property float y
property float z
property float nx
property float ny
property float nz
property float u
property float v
element face 1248
property list uchar int vertex_indices
end_header
-0.189853 0.479964 2.948422 0.618388696 -0.771385899 -0.150197254 0.403492 0.546204
-0.186812 0.488127 2.936971 0.714723626 -0.530817546 -0.455415054 0.433635 0.513194
-0.185198 0.484172 2.949713 0.761688217 -0.638590121 -0.109698303 0.399463 0.519357
-0.19133 0.483584 2.936757 0.575635679 -0.673841766 -0.463228712 0.435953 0.537625
-0.196346 0.47999 2.937088 0.448107732 -0.768813266 -0.456207872 0.439153 0.561082
-0.195046 0.476804 2.947352 0.486420931 -0.855336806 -0.178307673 0.408968 0.571515
-0.19756 0.474998 2.957725 0.415218268 -0.90393977 0.102404505 0.376618 0.588584
-0.192709 0.477911 2.96021 0.538629957 -0.826045942 0.165909227 0.367763 0.560777
-0.188319 0.481929 2.962592 0.673841844 -0.698943402 0.239614879 0.361059 0.530544
-0.181196 0.489815 2.951313 0.870844763 -0.487025034 -0.0666034235 0.396406 0.488317
-0.184479 0.487455 2.964866 0.778619349 -0.550313675 0.301507493 0.356013 0.494949
-0.181397 0.494115 2.966905 0.846126015 -0.405312462 0.346110641 0.353454 0.456757
-0.178057 0.496516 2.953119 0.939551099 -0.341318563 -0.0273014848 0.394845 0.455258
-0.179785 0.500749 2.939478 0.889830718 -0.225607788 -0.396613691 0.43086 0.455328
-0.182894 0.493977 2.937904 0.821643778 -0.373219886 -0.430822955 0.431825 0.485204
-0.175995 0.503898 2.955026 0.981425434 -0.191504963 0.0114002954 0.395306 0.422355
-0.179279 0.501538 2.968579 0.889279532 -0.254322745 0.380133997 0.354217 0.418737
-0.178356 0.50891 2.969704 0.91058304 -0.0691987112 0.407492411 0.357649 0.383163
-0.175235 0.511153 2.956825 0.998362223 -0.00959963676 0.0563978659 0.397454 0.391399
-0.176849 0.515108 2.944083 0.951632827 0.0997034393 -0.290610025 0.432329 0.39669
-0.177693 0.50806 2.941616 0.932417259 -0.0769014235 -0.353106536 0.431077 0.425244
-0.176004 0.517468 2.958308 0.973481406 0.202616944 0.106208882 0.400952 0.364181
-0.17886 0.515416 2.970097 0.894582574 0.14939709 0.421191795 0.363101 0.352311
-0.180583 0.521348 2.969881 0.841030257 0.346312459 0.415614952 0.370853 0.322286
-0.178082 0.523146 2.959559 0.908269517 0.391329952 0.148011328 0.405938 0.337066
-0.179375 0.526315 2.949347 0.872260938 0.475033187 -0.116208119 0.437515 0.346047
-0.177481 0.521089 2.946644 0.931404746 0.300901533 -0.204801043 0.43447 0.371408
-0.19979 0.477874 2.97027 0.350815084 -0.827635585 0.438118837 0.327601 0.583332
-0.203791 0.474965 2.966578 0.24880707 -0.905325725 0.344209781 0.341544 0.61415
-0.212554 0.476581 2.972724 0.0092997663 -0.861078361 0.508387224 0.299997 0.658855
-0.209749 0.47971 2.977255 0.0814009345 -0.777808929 0.623207154 0.277167 0.623749
-0.206934 0.483895 2.981212 0.168798326 -0.645593596 0.744792612 0.258679 0.581011
-0.196054 0.481889 2.973581 0.466217966 -0.700727003 0.54002081 0.316667 0.548725
-0.19262 0.487412 2.976432 0.559576149 -0.552476451 0.617773668 0.308364 0.506817
-0.20407 0.489523 2.984462 0.246514193 -0.494228456 0.833647999 0.244394 0.526547
-0.201325 0.496219 2.986838 0.30651582 -0.348317977 0.88584572 0.237204 0.465791
-0.189678 0.494071 2.97867 0.623912669 -0.407708279 0.666713538 0.304055 0.460979
-0.18742 0.501495 2.980144 0.669703553 -0.257101364 0.696703696 0.305108 0.414583
-0.198869 0.503607 2.988174 0.356484409 -0.198091337 0.913060068 0.240004 0.404175
-0.196971 0.510876 2.988324 0.403312854 -0.0156004972 0.914929159 0.25002 0.347507
-0.186091 0.508869 2.980694 0.701506433 -0.0721006612 0.709006502 0.310381 0.37115
-0.185941 0.515378 2.980157 0.707223353 0.146604841 0.691622838 0.318734 0.334202
-0.1959 0.517215 2.987142 0.439684879 0.197493208 0.876169869 0.26448 0.301597
-0.195503 0.522923 2.984804 0.45454976 0.387142381 0.802187816 0.283833 0.26187
-0.186783 0.521316 2.978689 0.682025938 0.343713072 0.64552455 0.330577 0.299677
-0.221241 0.483278 2.979818 -0.226799808 -0.682099424 0.695199413 0.210621 0.69191
-0.232546 0.483812 2.973297 -0.531824853 -0.665331092 0.523924484 0.191357 0.82272
-0.222666 0.47972 2.974979 -0.264292539 -0.776078092 0.572583836 0.248232 0.733342
-0.232469 0.487927 2.977907 -0.528108083 -0.55730853 0.640709806 0.136018 0.773941
-0.231754 0.492872 2.981924 -0.504486513 -0.40208925 0.764079573 0.089697 0.698623
-0.219487 0.487792 2.984011 -0.171699991 -0.54009997 0.823899955 0.179489 0.634513
-0.217281 0.493625 2.987407 -0.112301361 -0.383204643 0.916811107 0.15504 0.556764
-0.230189 0.49897 2.985211 -0.462810737 -0.237605513 0.854019813 0.052994 0.592225
-0.227894 0.505829 2.9876 -0.412902009 -0.0881004286 0.90650441 0.036267 0.471557
-0.214763 0.500391 2.989835 -0.0575028105 -0.236011535 0.970047412 0.143459 0.469059
-0.21208 0.507708 2.99112 -0.00310015721 -0.0876044425 0.996150516 0.150931 0.381794
-0.224988 0.513054 2.988923 -0.353910934 0.0588018167 0.933428839 0.049874 0.353427
-0.221791 0.519853 2.989036 -0.273015495 0.229012998 0.934353031 0.082499 0.251516
-0.209525 0.514773 2.991123 0.0608028596 0.0893042001 0.994146756 0.170939 0.304382
-0.207392 0.520782 2.989704 0.132595791 0.291390751 0.947369931 0.196967 0.24624
-0.21862 0.525432 2.987793 -0.166697325 0.416793313 0.893585663 0.122824 0.179507
-0.215395 0.530118 2.985375 -0.0606030236 0.573528614 0.816940758 0.170974 0.129837
-0.205564 0.526047 2.987048 0.193601974 0.466804759 0.862908797 0.229341 0.201495
-0.241639 0.49301 2.971471 -0.776024767 -0.420113408 0.470415014 0.782472 0.69578
-0.232546 0.483812 2.973297 -0.531824853 -0.665331092 0.523924484 0.802766 0.828292
-0.232469 0.487927 2.977907 -0.528108083 -0.55730853 0.640709806 0.857877 0.777609
-0.240616 0.488284 2.967634 -0.752115682 -0.543311328 0.373007777 0.745116 0.738626
-0.245825 0.492455 2.95911 -0.891237696 -0.431418247 0.139905917 0.692637 0.663641
-0.247559 0.49775 2.961784 -0.932934305 -0.293810804 0.208107652 0.715278 0.627697
-0.248238 0.503602 2.96431 -0.95170029 -0.110900034 0.286300087 0.733447 0.584079
-0.241771 0.498424 2.974893 -0.778307106 -0.250602288 0.575705256 0.812813 0.63695
-0.231754 0.492872 2.981924 -0.504486513 -0.40208925 0.764079573 0.902875 0.700505
-0.240731 0.504813 2.977812 -0.751206952 -0.0783007247 0.655406066 0.836104 0.558568
-0.230189 0.49897 2.985211 -0.462810737 -0.237605513 0.854019813 0.937076 0.593326
-0.247537 0.510262 2.966675 -0.933982553 0.0689987111 0.350593451 0.747536 0.529305
-0.245541 0.517315 2.968745 -0.890804254 0.223001065 0.39590189 0.754613 0.468795
-0.238618 0.511773 2.980073 -0.705514862 0.0731015399 0.704914849 0.846506 0.471397
-0.227894 0.505829 2.9876 -0.412902009 -0.0881004286 0.90650441 0.951173 0.473648
-0.235531 0.518897 2.981524 -0.642928871 0.217709776 0.734332976 0.838185 0.386201
-0.224988 0.513054 2.988923 -0.353910934 0.0588018167 0.933428839 0.935857 0.359045
-0.242336 0.524346 2.970388 -0.825715775 0.365906991 0.429308202 0.751749 0.407967
-0.238275 0.530583 2.971423 -0.722280278 0.521385764 0.454387593 0.741968 0.352146
-0.231808 0.525405 2.982005 -0.548435759 0.380024778 0.744848566 0.818042 0.311328
-0.221791 0.519853 2.989036 -0.273015495 0.229012998 0.934353031 0.90282 0.261572
-0.22779 0.530515 2.981357 -0.413927049 0.552136081 0.723747295 0.792981 0.255127
-0.21862 0.525432 2.987793 -0.166697325 0.416793313 0.893585663 0.863753 0.193282
-0.23371 0.535254 2.97167 -0.569547599 0.679056751 0.463138706 0.728291 0.306655
-0.228607 0.538718 2.971258 -0.402829414 0.796258141 0.451332955 0.709758 0.267041
-0.223424 0.534568 2.97974 -0.270907963 0.688420236 0.672819778 0.762038 0.210664
-0.215395 0.530118 2.985375 -0.0606030236 0.573528614 0.816940758 0.817819 0.143991
-0.249036 0.50137 2.950119 -0.975219363 -0.195003872 -0.104502075 0.664507 0.587105
-0.244611 0.497447 2.938473 -0.858445203 -0.296215598 -0.418722048 0.615015 0.591533
-0.247125 0.495641 2.948846 -0.929066347 -0.343324518 -0.137709834 0.6505 0.618015
-0.24618 0.503423 2.938331 -0.895932088 -0.141605072 -0.421015079 0.624187 0.564109
-0.246732 0.509799 2.93869 -0.910824629 0.0572015468 -0.408811054 0.631141 0.534609
-0.249852 0.507557 2.951568 -0.998243984 -0.00200008813 -0.0592026085 0.675473 0.552574
-0.249235 0.514424 2.953265 -0.982927414 0.183505118 -0.0134003737 0.683778 0.511032
-0.245951 0.516784 2.939713 -0.890894592 0.246198506 -0.381697683 0.636091 0.499793
-0.243928 0.52395 2.941318 -0.847127358 0.402613003 -0.3468112 0.638755 0.461947
-0.247268 0.521549 2.955104 -0.940516224 0.338705843 0.0266004589 0.688267 0.465489
-0.244035 0.528508 2.956978 -0.874931857 0.479917474 0.0646023522 0.687788 0.418954
-0.240751 0.530868 2.943425 -0.782602794 0.54330194 -0.303901085 0.638852 0.423356
-0.236769 0.53678 2.945802 -0.681204779 0.690304843 -0.24380171 0.636523 0.386782
-0.239889 0.534537 2.95868 -0.76941198 0.629709805 0.107101668 0.683301 0.375087
-0.235187 0.538875 2.960006 -0.612034244 0.776143426 0.151708488 0.675767 0.337549
-0.232331 0.540928 2.948217 -0.532743343 0.830467565 -0.162813246 0.631911 0.354982
-0.227399 0.543685 2.950724 -0.371598733 0.924896846 -0.0804997255 0.624615 0.324534
-0.2299 0.541888 2.961046 -0.439309869 0.878719741 0.186704194 0.66448 0.302825
-0.239099 0.50346 2.928271 -0.707632803 -0.13870643 -0.692832117 0.588348 0.548814
-0.229616 0.495864 2.923474 -0.45252825 -0.33912117 -0.824751487 0.552221 0.563068
-0.23838 0.49748 2.92962 -0.691426658 -0.293311309 -0.660225455 0.582494 0.573978
-0.229139 0.501624 2.921286 -0.438715226 -0.189906591 -0.878330483 0.555757 0.539369
-0.228116 0.507834 2.920069 -0.40582003 0.00380018756 -0.913945109 0.558411 0.514757
-0.238996 0.50984 2.9277 -0.702721606 0.0601018479 -0.708921796 0.592705 0.522359
-0.237811 0.516827 2.928147 -0.671727746 0.248910281 -0.69772882 0.595738 0.491633
-0.226361 0.514716 2.920117 -0.358823705 0.190012553 -0.913860372 0.560334 0.486475
-0.224 0.521845 2.921386 -0.307518781 0.345621108 -0.886554143 0.561361 0.456374
-0.235647 0.523993 2.929554 -0.624830052 0.405119485 -0.667432101 0.597362 0.458637
-0.23261 0.53091 2.93186 -0.563221434 0.545420756 -0.620723622 0.59749 0.425371
-0.221161 0.528799 2.92383 -0.249812405 0.487124189 -0.836841554 0.56133 0.426301
-0.218153 0.534815 2.927182 -0.173906127 0.636722432 -0.751226466 0.560349 0.397859
-0.229033 0.536821 2.934812 -0.472507716 0.692211304 -0.545508908 0.596115 0.39386
-0.22525 0.540965 2.938157 -0.345803975 0.832109565 -0.433604984 0.593229 0.366129
-0.21529 0.539128 2.931173 -0.0779040897 0.782441075 -0.617832434 0.558531 0.372647
-0.21248 0.54211 2.935801 0.0147997465 0.884084856 -0.467091999 0.555682 0.347158
-0.221199 0.543718 2.941916 -0.213006904 0.926330023 -0.31071007 0.588573 0.338686
-0.217648 0.498056 2.918723 -0.130001323 -0.284202892 -0.949909665 0.525184 0.533923
-0.219505 0.492724 2.921219 -0.178300748 -0.422601773 -0.888603728 0.523483 0.55652
-0.209624 0.488633 2.922901 0.0886015466 -0.534809335 -0.840314668 0.495561 0.554063
-0.20642 0.493406 2.920634 0.170795009 -0.410388009 -0.895773826 0.495684 0.531982
-0.203297 0.498857 2.919358 0.267491811 -0.239692662 -0.933271428 0.495856 0.509458
-0.215563 0.503936 2.91727 -0.0649005124 -0.100600794 -0.992807838 0.526505 0.510735
-0.21315 0.510614 2.917171 0.000200003763 0.0797014996 -0.996818755 0.527493 0.484243
-0.200242 0.505269 2.919368 0.350497292 -0.0665994855 -0.934192783 0.495977 0.48377
-0.197431 0.512236 2.920624 0.411906877 0.0854014258 -0.907215146 0.496055 0.456199
-0.210562 0.517673 2.918389 0.0566017657 0.233407281 -0.970730282 0.528029 0.455973
-0.20795 0.524698 2.920884 0.109605646 0.375919364 -0.920147398 0.527996 0.427453
-0.195041 0.519352 2.923081 0.460625287 0.230112632 -0.85724706 0.496094 0.428023
-0.193334 0.525838 2.92647 0.502406901 0.392105386 -0.770610584 0.496126 0.401046
-0.2056 0.530917 2.924382 0.168103144 0.530709927 -0.830715539 0.527496 0.400315
-0.203799 0.535561 2.92861 0.228799647 0.687298938 -0.689398935 0.52663 0.376192
-0.192571 0.530911 2.930521 0.528605653 0.563106022 -0.635206794 0.496179 0.377072
-0.192587 0.534915 2.93523 0.530048626 0.697764012 -0.481844204 0.496186 0.353063
-0.202418 0.538986 2.933557 0.275396467 0.803289694 -0.528093225 0.525273 0.351823
-0.19725 0.488323 2.92707 0.419212086 -0.546315751 -0.725120906 0.466312 0.53305
-0.201555 0.48416 2.928564 0.309490652 -0.655380205 -0.68897919 0.467734 0.555424
-0.193279 0.493304 2.926388 0.541708654 -0.39000623 -0.744611895 0.465333 0.510086
-0.1897 0.499425 2.926767 0.639107347 -0.225202589 -0.735408454 0.464552 0.483889
-0.186707 0.506292 2.92815 0.704577803 -0.0756976152 -0.705577771 0.46413 0.455813
-0.184499 0.513509 2.93048 0.749415835 0.0707014939 -0.65831391 0.46423 0.42721
-0.183316 0.520285 2.933501 0.777454249 0.240016748 -0.581340564 0.464812 0.399872
-0.183401 0.525828 2.936957 0.775317778 0.426609782 -0.465710679 0.465836 0.375591
-0.184558 0.530465 2.940865 0.739803499 0.581702751 -0.338101599 0.467266 0.351259
-0.186594 0.534522 2.945242 0.676130545 0.708832022 -0.201009081 0.469067 0.323767
-0.193218 0.538193 2.940593 0.510524646 0.800238632 -0.314615188 0.49608 0.325985
-0.182319 0.531099 2.952239 0.780682884 0.62438631 -0.02599943 0.441483 0.317256
-0.186133 0.534826 2.955019 0.616727278 0.781734577 0.0924040871 0.446948 0.283992
-0.189409 0.537448 2.949659 0.553903005 0.832504516 -0.0113000613 0.471541 0.291586
-0.194483 0.540261 2.946097 0.45560387 0.886607532 -0.0797006771 0.495869 0.294205
-0.201328 0.541552 2.939213 0.309512854 0.883736702 -0.351014578 0.5233 0.323944
-0.200697 0.542834 2.94504 0.335814398 0.936540155 -0.100604314 0.520379 0.291398
-0.207056 0.544809 2.946458 0.21310454 0.974320758 -0.0727015489 0.545642 0.28425
-0.209628 0.544129 2.941064 0.103805183 0.947347302 -0.302915125 0.55161 0.317882
-0.216822 0.545455 2.946109 -0.0759032711 0.98084227 -0.179407732 0.581887 0.308038
-0.221936 0.545428 2.953376 -0.201209404 0.97954578 0.00220010282 0.61423 0.292011
-0.212568 0.545825 2.950323 0.106402357 0.994322024 0.00150003323 0.572227 0.27385
-0.216486 0.545804 2.95589 0.0312009309 0.993529642 0.109203258 0.59979 0.257442
-0.223999 0.543945 2.96189 -0.254518997 0.943270404 0.213215914 0.648735 0.267401
-0.222932 0.54133 2.970315 -0.225900134 0.878000522 0.422000251 0.685407 0.228851
-0.218067 0.544668 2.962414 0.000199994395 0.971972761 0.235093412 0.627987 0.232271
-0.21725 0.542665 2.968869 0.016399425 0.932967291 0.359587393 0.655647 0.19453
-0.218657 0.537907 2.977312 -0.12160455 0.793029672 0.596922334 0.724248 0.171006
-0.213974 0.540042 2.97423 0.0792995714 0.88259523 0.463397495 0.681599 0.140411
-0.208899 0.537229 2.977792 0.177503484 0.828116252 0.531710435 0.706698 0.078102
-0.212033 0.534236 2.981961 0.0442001649 0.702102619 0.710702651 0.764175 0.103513
-0.203923 0.530877 2.983341 0.245008303 0.618120948 0.746925314 0.268386 0.164276
-0.195623 0.528301 2.98149 0.450914247 0.555017536 0.699022086 0.308527 0.223751
-0.212033 0.534236 2.981961 0.0442001649 0.702102619 0.710702651 0.227072 0.094944
-0.208899 0.537229 2.977792 0.177503484 0.828116252 0.531710435 0.286459 0.075055
-0.202685 0.534656 2.978849 0.297402037 0.778505333 0.552703786 0.311892 0.136024
-0.196326 0.532682 2.977431 0.420102886 0.740405087 0.524703605 0.338298 0.189313
-0.188429 0.526974 2.976445 0.630518493 0.521015282 0.575316874 0.34632 0.263515
-0.190814 0.531666 2.973566 0.526808669 0.720711859 0.450607415 0.366653 0.227241
-0.186896 0.531686 2.967999 0.601922606 0.721227086 0.342812875 0.395065 0.253522
-0.183315 0.527001 2.969179 0.756024843 0.52281718 0.393812941 0.381186 0.289195
-0.181252 0.528484 2.960664 0.809122514 0.558515541 0.182705084 0.412548 0.306421
-0.185315 0.532822 2.961475 0.63300772 0.743109062 0.217002646 0.421643 0.271872
-0.190074 0.5355 2.961842 0.371618505 0.897144674 0.238811892 0.434082 0.233046
-0.190639 0.536883 2.957386 0.370892816 0.901182544 0.224295655 0.454484 0.245209
-0.191165 0.534715 2.966346 0.36920264 0.894106393 0.253501813 0.413453 0.215753
-0.195408 0.536073 2.964546 0.0772033129 0.988542419 0.129705566 0.434867 0.179494
-0.194748 0.536548 2.961821 0.0476009508 0.97021938 0.237504744 0.44924 0.193824
-0.195089 0.537385 2.959125 0.0646020928 0.936630343 0.344311154 0.46409 0.204524
-0.193871 0.534701 2.97019 0.359705169 0.894612856 0.26510381 0.39227 0.192382
-0.197676 0.535403 2.972858 0.348023867 0.89636147 0.274618833 0.372883 0.160627
-0.199347 0.536489 2.968487 0.233216567 0.972069053 -0.0263018684 0.408995 0.137995
-0.197045 0.536065 2.966872 0.139695579 0.989568686 0.0351988861 0.420742 0.161308
-0.202066 0.536766 2.973837 0.33381482 0.901140007 0.27661228 0.357644 0.118183
-0.206356 0.538542 2.973107 0.319793483 0.906581524 0.275394388 0.34448 0.070394
-0.2046 0.538389 2.968637 0.441130276 0.896861554 -0.032302217 0.396766 0.075367
-0.202004 0.537314 2.969079 0.338310593 0.939529417 -0.0532016658 0.401754 0.108281
-0.209859 0.540484 2.970648 0.309316614 0.91284903 0.266514315 0.636076 0.123139
-0.212121 0.542295 2.966947 0.301115047 0.918745911 0.255412763 0.620886 0.166525
-0.208088 0.54066 2.96491 0.579195445 0.806993653 0.115299093 0.584819 0.144122
-0.20672 0.539564 2.96715 0.527201002 0.849401614 0.0240000456 0.592174 0.11424
-0.2046 0.538389 2.968637 0.441130276 0.896861554 -0.032302217 0.597233 0.081132
-0.206356 0.538542 2.973107 0.319793483 0.906581524 0.275394388 0.649262 0.074015
-0.212685 0.543678 2.962491 0.300425115 0.922877151 0.240920141 0.601689 0.198431
-0.211594 0.544462 2.957987 0.302799217 0.925797607 0.226299415 0.580329 0.220853
-0.207769 0.541971 2.959488 0.566587088 0.755082792 0.329892482 0.55824 0.185023
-0.20843 0.541497 2.962214 0.595701972 0.772002555 0.221700734 0.572873 0.167551
-0.208888 0.544476 2.954144 0.312398113 0.925394411 0.214598704 0.558646 0.235787
-0.205084 0.543775 2.951475 0.323987208 0.923563534 0.205091902 0.537107 0.245691
-0.20383 0.541555 2.955548 0.410619829 0.771537258 0.485923466 0.527035 0.205382
-0.206132 0.54198 2.957163 0.503630085 0.752644961 0.424125336 0.542823 0.197034
-0.200693 0.542412 2.950496 0.338192105 0.918878549 0.203195256 0.516174 0.253026
-0.196404 0.540635 2.951226 0.352185404 0.913362146 0.204291533 0.495563 0.256092
-0.198578 0.539656 2.955397 0.202704684 0.846719564 0.491911366 0.495515 0.214624
-0.201173 0.540731 2.954956 0.304998698 0.802696572 0.512497812 0.511288 0.211862
-0.1929 0.538694 2.953685 0.36269685 0.907192121 0.213198148 0.474989 0.253188
-0.196458 0.538481 2.956885 0.116101736 0.892813352 0.435206509 0.479649 0.211817
-0.19947 0.537033 2.958822 -0.113105654 0.79793989 0.592029596 0.48576 0.170717
-0.200604 0.537662 2.958026 0.0509023187 0.70953232 0.702832015 0.496077 0.17278
-0.198737 0.536447 2.960021 -0.214195051 0.88207962 0.419590305 0.475766 0.165552
-0.201112 0.535364 2.96042 -0.0818998337 0.918098136 0.387799213 0.488477 0.127436
-0.201464 0.535645 2.959844 -0.000700023567 0.853728741 0.52071753 0.492595 0.129753
-0.20201 0.535948 2.959461 0.12480231 0.783514503 0.608711267 0.496942 0.130748
-0.201994 0.538238 2.957789 0.247607483 0.625818913 0.739622352 0.506322 0.170939
-0.202677 0.536224 2.959347 0.278809675 0.720424999 0.635022036 0.501316 0.130136
-0.203361 0.536436 2.9595 0.436004994 0.671007686 0.59970687 0.505619 0.128338
-0.203416 0.538679 2.958106 0.450108557 0.565110743 0.691413144 0.516454 0.166502
-0.204648 0.538906 2.958971 0.626889236 0.530290895 0.5707902 0.526432 0.16078
-0.205525 0.538902 2.960216 0.749515699 0.533511175 0.391908209 0.535916 0.152727
-0.203953 0.536546 2.959915 0.572593641 0.646392822 0.5042944 0.509758 0.125774
-0.204374 0.536543 2.960513 0.669309658 0.646409328 0.366305286 0.513476 0.122199
-0.205878 0.538648 2.961674 0.802645768 0.567232345 0.184410515 0.544568 0.141301
-0.205695 0.5382 2.963118 0.773716271 0.633213317 -0.0201004227 0.551141 0.12661
-0.204544 0.536421 2.961214 0.708797714 0.674997823 0.204899339 0.516518 0.117366
-0.204456 0.536206 2.961908 0.688261558 0.724059559 0.0450974812 0.518657 0.111542
-0.204963 0.537613 2.964317 0.671809788 0.715110419 -0.193102814 0.554388 0.108762
-0.204104 0.535924 2.962484 0.60742999 0.78953898 -0.0875043201 0.519662 0.104994
-0.203559 0.535622 2.962867 0.481599275 0.858598708 -0.175699736 0.5201 0.098084
-0.203828 0.536984 2.965113 0.508631025 0.805749148 -0.303418508 0.555974 0.089336
-0.202438 0.536409 2.96535 0.31110256 0.887207302 -0.340702804 0.440331 0.103845
-0.201016 0.535967 2.965033 0.109407441 0.950164623 -0.291919854 0.44335 0.121717
-0.203828 0.536984 2.965113 0.508631025 0.805749148 -0.303418508 0.43895 0.084375
-0.203559 0.535622 2.962867 0.481599275 0.858598708 -0.175699736 0.476083 0.095401
-0.202891 0.535345 2.962981 0.328015179 0.922842706 -0.201909344 0.476142 0.102143
-0.202208 0.535133 2.962828 0.170311961 0.971168208 -0.166811716 0.476827 0.108617
-0.199784 0.53574 2.964168 -0.0682034055 0.98274907 -0.171908584 0.449645 0.136391
-0.201615 0.535024 2.962413 0.0341994107 0.996882824 -0.071098775 0.478763 0.114551
-0.201194 0.535026 2.961814 -0.0628996978 0.995795215 0.06659968 0.481551 0.119767
-0.198908 0.535745 2.962923 -0.189913945 0.981772089 0.00750055075 0.457824 0.148351
-0.198554 0.535999 2.961464 -0.24389572 0.945783402 0.214496236 0.466492 0.158084
-0.201025 0.535148 2.961113 -0.102005586 0.968253023 0.228212497 0.484792 0.124085
-0.200667 0.474308 2.946418 0.3261119 -0.923033682 -0.204107448 0.416366 0.597949
-0.20278 0.472789 2.95514 0.267105207 -0.963218778 0.0294005732 0.38812 0.616905
-0.20176 0.476986 2.937788 0.294514299 -0.850841309 -0.435121126 0.443607 0.586154
-0.20735 0.475303 2.939065 0.0208995642 -0.928480641 -0.370792269 0.450496 0.614915
-0.206496 0.47321 2.945809 0.038801898 -0.971747534 -0.232811388 0.427201 0.627025
-0.208147 0.472023 2.952625 0.00460021132 -0.995645736 -0.0931042768 0.403975 0.646281
-0.208019 0.472762 2.962583 0.128499775 -0.964598312 0.230299597 0.358872 0.644692
-0.212242 0.472002 2.958442 -0.0790023824 -0.996530051 0.0262007901 0.381341 0.674075
-0.218 0.473063 2.96248 -0.197109574 -0.974347325 0.108605275 0.359853 0.716601
-0.215388 0.47412 2.967751 -0.0703039603 -0.92755225 0.367020675 0.327308 0.69042
-0.22389 0.47676 2.969647 -0.298013646 -0.857139249 0.420119238 0.292118 0.763198
-0.232197 0.4802 2.968233 -0.520311671 -0.764817155 0.379908521 0.255115 0.849501
-0.224644 0.475126 2.963962 -0.333287085 -0.932463868 0.139394599 0.340063 0.780056
-0.231136 0.477815 2.962857 -0.466044115 -0.877083024 0.11631101 0.321123 0.853974
-0.238982 0.483961 2.963471 -0.703536989 -0.663634892 0.254213366 0.700783 0.769058
-0.232197 0.4802 2.968233 -0.520311671 -0.764817155 0.379908521 0.738222 0.856204
-0.231136 0.477815 2.962857 -0.466044115 -0.877083024 0.11631101 0.67108 0.860731
-0.236438 0.480753 2.959136 -0.575092932 -0.817089958 0.0403995035 0.652171 0.785721
-0.23986 0.483494 2.953535 -0.644698395 -0.760798106 -0.0744998145 0.632322 0.721315
-0.243362 0.487467 2.956304 -0.819250414 -0.57023509 0.0605037232 0.665136 0.695395
-0.244455 0.490146 2.947674 -0.850630109 -0.497417606 -0.170306028 0.633071 0.648695
-0.242342 0.491665 2.938951 -0.791902368 -0.457901369 -0.404001208 0.603409 0.62012
-0.240714 0.485587 2.946791 -0.662735109 -0.718038039 -0.212611263 0.610591 0.678116
-0.239063 0.486774 2.939975 -0.628292014 -0.693691183 -0.352195524 0.587703 0.649906
-0.237103 0.491692 2.931509 -0.652987969 -0.4558916 -0.604788857 0.574969 0.600832
-0.229734 0.490334 2.926341 -0.454401779 -0.493501932 -0.741602903 0.547652 0.588612
-0.234969 0.486795 2.934159 -0.544941196 -0.693252408 -0.471635655 0.564386 0.630465
-0.229211 0.485733 2.93012 -0.426626712 -0.714944764 -0.553934683 0.541123 0.617881
-0.221232 0.487694 2.924445 -0.226500193 -0.563300479 -0.794600675 0.521356 0.581242
-0.222567 0.483671 2.928638 -0.290699881 -0.75729969 -0.58479976 0.518403 0.610243
-0.216075 0.480982 2.929743 -0.157705308 -0.812227336 -0.561618902 0.495912 0.607239
-0.212924 0.484254 2.925858 -0.00439995754 -0.656293667 -0.754492719 0.495585 0.578422
-0.20614 0.480493 2.93062 0.179006695 -0.756828306 -0.628623511 0.469841 0.579853
-0.210773 0.478044 2.933465 -0.048901937 -0.872634566 -0.485919248 0.473338 0.608558
-0.215225 0.477534 2.937321 -0.28279588 -0.913686688 -0.291895747 0.478929 0.643763
-0.212897 0.47567 2.941131 -0.268196664 -0.924988493 -0.269196651 0.461003 0.649436
-0.218831 0.479533 2.93479 -0.304212293 -0.901536432 -0.307712435 0.496693 0.642694
-0.22081 0.479346 2.939408 -0.398088117 -0.912772754 -0.0914972688 0.497386 0.675172
-0.218662 0.478155 2.940916 -0.446118242 -0.886536251 -0.122605013 0.484463 0.676001
-0.217275 0.477044 2.943185 -0.474699036 -0.862898248 -0.173399648 0.471457 0.680723
-0.223247 0.481361 2.934039 -0.331107871 -0.89062117 -0.311707409 0.514223 0.645677
-0.227766 0.482764 2.935046 -0.358407776 -0.881919133 -0.306206643 0.531712 0.652754
-0.226133 0.481271 2.939561 -0.28270331 -0.954511177 -0.0948011101 0.522309 0.684011
-0.223441 0.480435 2.938961 -0.341116215 -0.936644525 -0.0796037841 0.509973 0.67792
-0.231682 0.483487 2.937793 -0.381822358 -0.877851404 -0.28911693 0.549355 0.663966
-0.234467 0.483472 2.941749 -0.399109415 -0.877620703 -0.265506263 0.566233 0.680929
-0.230125 0.481692 2.943554 -0.196092268 -0.963662004 -0.181392848 0.545387 0.706747
-0.228466 0.481701 2.941197 -0.230596996 -0.964487438 -0.128798322 0.53448 0.693207
-0.23559 0.482665 2.946385 -0.405307561 -0.882816469 -0.237404429 0.581428 0.705253
-0.235009 0.481241 2.950972 -0.402425108 -0.891155601 -0.209513072 0.593742 0.739757
-0.230448 0.480363 2.949049 -0.189108501 -0.934842022 -0.300513508 0.55913 0.750575
-0.230794 0.481211 2.946316 -0.179505261 -0.953727954 -0.24120707 0.553931 0.725867
-0.232681 0.479377 2.954782 -0.387805848 -0.902613612 -0.186802817 0.601977 0.787259
-0.229075 0.477378 2.957313 -0.366403092 -0.914607719 -0.171001443 0.608173 0.841259
-0.226913 0.478062 2.952826 -0.265809648 -0.884932119 -0.38241388 0.558704 0.813975
-0.229061 0.479253 2.951318 -0.217600494 -0.910702067 -0.351100797 0.56 0.780876
-0.22466 0.47555 2.958064 -0.339602389 -0.925606512 -0.167101176 0.38985 0.782494
-0.229075 0.477378 2.957313 -0.366403092 -0.914607719 -0.171001443 0.383214 0.835829
-0.220141 0.474147 2.957057 -0.312116808 -0.934250311 -0.17250929 0.398382 0.735556
-0.22159 0.476137 2.952673 -0.381111384 -0.843225188 -0.379111324 0.433046 0.747108
-0.224283 0.476973 2.953273 -0.322597108 -0.860592285 -0.394096467 0.431652 0.777324
-0.226913 0.478062 2.952826 -0.265809648 -0.884932119 -0.38241388 0.432267 0.810341
-0.216224 0.473425 2.95431 -0.288802009 -0.938406527 -0.189701319 0.410708 0.701415
-0.21344 0.473439 2.950354 -0.271506959 -0.938524055 -0.213205465 0.425889 0.677256
-0.217598 0.475715 2.94868 -0.467694774 -0.834090679 -0.292496731 0.447209 0.703377
-0.219257 0.475707 2.951037 -0.433020939 -0.832740268 -0.345016684 0.438457 0.722495
-0.212316 0.474247 2.945718 -0.265314114 -0.933449656 -0.241412842 0.442988 0.660265
-0.216929 0.476196 2.945918 -0.48412389 -0.843541625 -0.232511474 0.458625 0.68965
-0.219136 0.477838 2.946186 -0.676046155 -0.70614821 -0.210514372 0.469005 0.707162
-0.219566 0.47753 2.947958 -0.639396608 -0.681496385 -0.355998111 0.461283 0.71819
-0.219358 0.478383 2.944431 -0.656424564 -0.751428119 -0.0668024998 0.478191 0.699778
-0.22037 0.479451 2.9452 -0.64548377 -0.760180885 -0.0739981393 0.483229 0.712747
-0.220146 0.479047 2.946419 -0.665443468 -0.715646748 -0.212213862 0.476447 0.71793
-0.220514 0.478857 2.947654 -0.629019761 -0.692921768 -0.352411071 0.471697 0.726798
-0.220631 0.477524 2.949472 -0.553006058 -0.680307453 -0.481005269 0.456075 0.733094
-0.221209 0.478824 2.948756 -0.546518858 -0.690723834 -0.473516339 0.467792 0.737559
-0.222297 0.479046 2.949438 -0.426814518 -0.714224295 -0.554718869 0.467527 0.750451
-0.222129 0.4778 2.950522 -0.42920241 -0.703703951 -0.566203179 0.453992 0.751082
-0.223857 0.478337 2.950907 -0.28739036 -0.747174936 -0.599279897 0.455644 0.771359
-0.225546 0.479036 2.95062 -0.149102874 -0.805015517 -0.574211068 0.459165 0.792781
-0.223504 0.479402 2.949778 -0.29000444 -0.755311564 -0.587708998 0.469089 0.76482
-0.224675 0.479906 2.949506 -0.157201967 -0.811710155 -0.562507037 0.473692 0.778161
-0.226925 0.479801 2.949652 -0.0349023633 -0.867658751 -0.495933581 0.536036 0.773777
-0.225546 0.479036 2.95062 -0.149102874 -0.805015517 -0.574211068 0.531875 0.795066
-0.224675 0.479906 2.949506 -0.157201967 -0.811710155 -0.562507037 0.517732 0.779455
-0.225687 0.480443 2.948885 -0.0460992507 -0.871685831 -0.487892069 0.522751 0.766307
-0.226254 0.480934 2.947819 0.0219015167 -0.928364292 -0.371025694 0.524736 0.752061
-0.227815 0.480513 2.948195 0.0369009598 -0.926124089 -0.375409765 0.53822 0.753619
-0.228038 0.481058 2.946441 0.0567031568 -0.971154066 -0.231612894 0.536449 0.735721
-0.227608 0.481367 2.944668 0.0198995855 -0.996079252 -0.0861982045 0.531554 0.720922
-0.226478 0.481338 2.9466 0.04240197 -0.971645144 -0.232610807 0.524784 0.739376
-0.22611 0.481527 2.945364 0.00559987921 -0.995678523 -0.0926980005 0.521191 0.728723
-0.226543 0.481372 2.943155 -0.0663027218 -0.997040929 0.0389015969 0.524365 0.710058
-0.225045 0.481096 2.942104 -0.190199195 -0.97389588 0.123899476 0.515809 0.702433
-0.225415 0.481561 2.944263 -0.0765043035 -0.996656063 0.0287016145 0.516868 0.719973
-0.224327 0.481339 2.943581 -0.196703586 -0.974317762 0.109601998 0.510505 0.714518
-0.223317 0.480559 2.941719 -0.331912608 -0.930135332 0.157105968 0.506812 0.69735
-0.22312 0.480983 2.943241 -0.333011088 -0.932031032 0.142904758 0.504189 0.709903
-0.221949 0.480479 2.943512 -0.466306244 -0.876811741 0.117301571 0.497159 0.708938
-0.221628 0.47986 2.942006 -0.470291335 -0.872583923 0.131997568 0.497448 0.695058
-0.220249 0.479096 2.942974 -0.584506985 -0.809609675 0.0537006417 0.48779 0.695805
-0.220937 0.479942 2.944134 -0.577002894 -0.81560409 0.0431002161 0.489979 0.708862
-0.22168 0.480278 2.945034 -0.427388202 -0.892575361 -0.143696033 0.492099 0.720859
-0.221533 0.480015 2.945824 -0.420790065 -0.884679113 -0.200695262 0.488595 0.725777
-0.222439 0.480605 2.944856 -0.374499816 -0.914799552 -0.151299926 0.496802 0.723394
-0.22322 0.48044 2.946575 -0.33631849 -0.910650064 -0.240013195 0.496124 0.752784
-0.223096 0.480953 2.944455 -0.340909237 -0.933825302 -0.108402937 0.501554 0.721513
-0.223802 0.481098 2.944895 -0.305009471 -0.939929185 -0.15330476 0.504694 0.726761
-0.224584 0.481328 2.945117 -0.249892792 -0.956772402 -0.148795708 0.509845 0.728406
-0.224825 0.481206 2.945918 -0.252903816 -0.945414266 -0.205503101 0.510753 0.735421
-0.225274 0.481183 2.946634 -0.207702498 -0.947911399 -0.241502904 0.51474 0.741394
-0.224908 0.480866 2.947326 -0.248598582 -0.928094705 -0.277198419 0.512404 0.749072
-0.224761 0.480603 2.948115 -0.239115953 -0.912460877 -0.332022152 0.512811 0.75881
-0.224002 0.480276 2.948294 -0.294812782 -0.898038935 -0.326514156 0.50632 0.762067
-0.223345 0.479928 2.948694 -0.325602025 -0.871205419 -0.367402285 0.479246 0.757928
-0.224002 0.480276 2.948294 -0.294812782 -0.898038935 -0.326514156 0.485629 0.761489
-0.222638 0.479783 2.948255 -0.364305619 -0.872913465 -0.324505006 0.47996 0.74819
-0.221857 0.479553 2.948032 -0.416497055 -0.848294003 -0.326997688 0.477842 0.740233
-0.221615 0.479675 2.947232 -0.416524305 -0.867350611 -0.272415896 0.482038 0.734303
-0.221167 0.479698 2.946516 -0.45879671 -0.857093855 -0.23429832 0.483263 0.727088
-0.20169 0.535293 2.961109 0.832629655 0.525118702 0.176006269 0.068707 0.884289
-0.201194 0.535026 2.961814 -0.0628996978 0.995795215 0.06659968 0.069636 0.879322
-0.201025 0.535148 2.961113 -0.102005586 0.968253023 0.228212497 0.067744 0.880142
-0.201799 0.535215 2.961558 0.77351508 0.4924096 0.399007779 0.070601 0.883481
-0.201435 0.536198 2.961817 0.846659383 -0.403928331 0.346424297 0.072076 0.889725
-0.201327 0.536277 2.961369 0.940065332 -0.339923624 -0.0270018766 0.070197 0.890541
-0.201383 0.536414 2.960925 0.89030077 -0.224300194 -0.396300343 0.068327 0.891373
-0.201746 0.535431 2.960666 0.79948455 0.599188421 -0.0423991806 0.066822 0.885094
-0.201112 0.535364 2.96042 -0.0818998337 0.918098136 0.387799213 0.065863 0.880959
-0.202068 0.535214 2.961941 0.643321426 0.485316164 0.592119721 0.072507 0.882674
-0.202208 0.535133 2.962828 0.170311961 0.971168208 -0.166811716 0.073449 0.877687
-0.201615 0.535024 2.962413 0.0341994107 0.996882824 -0.071098775 0.071539 0.878503
-0.202447 0.535283 2.962206 0.452994372 0.526293461 0.719591059 0.074419 0.881869
-0.202084 0.536267 2.962465 0.307190494 -0.346889266 0.886172578 0.075866 0.888152
-0.201705 0.536197 2.9622 0.624278996 -0.406386327 0.667177553 0.073965 0.888928
-0.202884 0.535419 2.962304 0.235102282 0.58830571 0.773707509 0.076337 0.881067
-0.203559 0.535622 2.962867 0.481599275 0.858598708 -0.175699736 0.07728 0.876064
-0.202891 0.535345 2.962981 0.328015179 0.922842706 -0.201909344 0.075363 0.876874
-0.203311 0.535596 2.962231 0.0255006035 0.680916114 0.731917321 0.078257 0.880266
-0.202948 0.53658 2.96249 -0.412387987 -0.0866974745 0.906873583 0.079696 0.886653
-0.202521 0.536403 2.962563 -0.0568003837 -0.234701585 0.970406555 0.077778 0.887397
-0.20366 0.535789 2.961986 -0.15350257 0.773512953 0.614910297 0.049916 0.891921
-0.204456 0.536206 2.961908 0.688261558 0.724059559 0.0450974812 0.050929 0.887044
-0.204104 0.535924 2.962484 0.60742999 0.78953898 -0.0875043201 0.049037 0.887762
-0.203885 0.53597 2.961618 -0.258516676 0.865755847 0.428527643 0.051818 0.891199
-0.203522 0.536953 2.961877 -0.89030077 0.224300194 0.396300343 0.053177 0.897712
-0.203297 0.536773 2.962245 -0.705046746 0.0744049332 0.705246759 0.051249 0.898395
-0.202948 0.53658 2.96249 -0.412387987 -0.0866974745 0.906873583 0.049321 0.899069
-0.203311 0.535596 2.962231 0.0255006035 0.680916114 0.731917321 0.04801 0.89264
-0.203559 0.535622 2.962867 0.481599275 0.858598708 -0.175699736 0.047141 0.88848
-0.203941 0.536107 2.961174 -0.29430407 0.9327129 0.208402882 0.053714 0.89047
-0.204374 0.536543 2.960513 0.669309658 0.646409328 0.366305286 0.054691 0.885594
-0.204544 0.536421 2.961214 0.708797714 0.674997823 0.204899339 0.052814 0.886322
-0.203832 0.536185 2.960726 -0.232597343 0.972488889 -0.0127998538 0.055602 0.889733
-0.203469 0.537169 2.960985 -0.846659383 0.403928331 -0.346424297 0.057028 0.89628
-0.203578 0.537091 2.961433 -0.940033372 0.340012071 0.0270009586 0.055105 0.89701
-0.203563 0.536187 2.960343 -0.105100888 0.972508218 -0.207801756 0.057479 0.888987
-0.203361 0.536436 2.9595 0.436004994 0.671007686 0.59970687 0.058418 0.884106
-0.203953 0.536546 2.959915 0.572593641 0.646392822 0.5042944 0.056558 0.884856
-0.203184 0.536117 2.960077 0.0880004145 0.938704421 -0.33330157 0.059349 0.88823
-0.202821 0.537101 2.960336 -0.306908126 0.347009187 -0.886223463 0.060836 0.89472
-0.2032 0.53717 2.960602 -0.624320647 0.40641344 -0.667122062 0.058938 0.895515
-0.202747 0.535981 2.95998 0.303419727 0.869556536 -0.389625332 0.061214 0.887462
-0.20201 0.535948 2.959461 0.12480231 0.783514503 0.608711267 0.062132 0.882561
-0.202677 0.536224 2.959347 0.278809675 0.720424999 0.635022036 0.060275 0.883341
-0.20232 0.535804 2.960052 0.515519768 0.784130068 -0.345513249 0.063079 0.886683
-0.201957 0.536788 2.960312 0.4125048 0.0868010099 -0.906810551 0.064595 0.893061
-0.202384 0.536965 2.960239 0.0571990822 0.234696234 -0.97038443 0.062721 0.893899
-0.201971 0.535611 2.960297 0.691753395 0.684352824 -0.230517793 0.064947 0.885893
-0.201464 0.535645 2.959844 -0.000700023567 0.853728741 0.52071753 0.063994 0.881766
-0.201608 0.536595 2.960557 0.704997021 -0.0743996857 -0.70529702 0.066461 0.892216
-0.201697 0.549379 2.960885 -0.120604633 0.976537514 -0.178406854 0.081386 0.960917
-0.201686 0.549234 2.960487 0.249901316 0.658903469 -0.709503736 0.080561 0.959413
-0.201945 0.549297 2.960759 -0.19580836 0.961641058 -0.192108202 0.08104 0.961571
-0.201414 0.549341 2.960759 0.405784806 0.782970682 -0.471482346 0.081218 0.959093
-0.201308 0.549406 2.961149 0.426495006 0.885389632 -0.184897835 0.081954 0.959167
-0.201696 0.549396 2.961189 -0.159012994 0.983980409 -0.080606587 0.081895 0.961375
-0.20232 0.549216 2.961335 -0.288414652 0.956048569 -0.0528026824 0.081931 0.965347
-0.202145 0.549226 2.960559 -0.243604169 0.92201578 -0.30090515 0.080494 0.961328
-0.20241 0.548999 2.960345 -0.318705064 0.37570597 -0.870213828 0.079321 0.960192
-0.202415 0.54915 2.960666 -0.320912649 0.916036106 -0.240609484 0.080309 0.962082
-0.202024 0.549116 2.960314 -0.00880024667 0.502514086 -0.864524233 0.079887 0.959619
-0.202696 0.549067 2.960688 -0.415811614 0.868724264 -0.269107516 0.07968 0.962083
-0.203055 0.548839 2.960806 -0.813113616 0.266904469 -0.517308662 0.078133 0.961597
-0.202829 0.549042 2.960965 -0.429121021 0.888943546 -0.160107843 0.079602 0.962943
-0.202781 0.548898 2.960491 -0.598722725 0.288410947 -0.747228362 0.07865 0.960701
-0.203027 0.548995 2.961195 -0.488814252 0.864025191 -0.120503513 0.078891 0.963382
-0.203244 0.548847 2.961601 -0.911598847 0.408599483 0.0450999429 0.077073 0.964123
-0.202945 0.549035 2.961481 -0.424095227 0.904889816 -0.0362995915 0.078955 0.964526
-0.203242 0.548813 2.961185 -0.922111088 0.302303635 -0.241502904 0.077485 0.962607
-0.202944 0.549053 2.961785 -0.433594411 0.900888388 0.0198997435 0.078237 0.965907
-0.202866 0.549019 2.962263 -0.59099386 0.686692865 0.423295602 0.076348 0.968288
-0.202695 0.549134 2.961911 -0.348222346 0.936960127 0.0291018675 0.078938 0.966941
-0.203138 0.548912 2.961991 -0.798903959 0.532202637 0.280201388 0.07652 0.966139
-0.202496 0.549206 2.962111 -0.318114751 0.945143827 0.0742034409 0.085294 0.963125
-0.202142 0.549254 2.962405 -0.154109587 0.881954868 0.445427711 0.085502 0.960837
-0.202226 0.549281 2.962003 -0.269509968 0.962335593 0.0357013204 0.084164 0.962483
-0.202528 0.549137 2.962436 -0.372192309 0.793983592 0.480690067 0.086734 0.962057
-0.202866 0.549019 2.962263 -0.59099386 0.686692865 0.423295602 0.087674 0.963648
-0.202695 0.549134 2.961911 -0.348222346 0.936960127 0.0291018675 0.085064 0.964498
-0.201945 0.549365 2.961982 -0.210295791 0.97628046 0.0514989693 0.083746 0.961456
-0.201497 0.549415 2.961943 0.212097762 0.946990009 0.241297454 0.083566 0.959524
-0.201812 0.549389 2.961705 -0.200306308 0.979730852 0.00220006928 0.082921 0.961586
-0.201771 0.549356 2.962259 0.0463010554 0.9256211 0.375608562 0.084544 0.959897
-0.201614 0.549437 2.961475 -0.129395256 0.991063663 -0.0323988121 0.082454 0.960899
-0.201309 0.54944 2.961565 0.362301438 0.930603695 0.0521002068 0.082744 0.959126
-0.201101 0.549231 2.961694 0.755723507 0.635319762 0.158904943 0.083018 0.957881
-0.201166 0.548976 2.962229 0.688147064 0.504434499 0.521535669 0.08426 0.957345
-0.20096 0.548947 2.961812 0.856714963 0.475308301 0.200303498 0.083225 0.956985
-0.201295 0.549235 2.962117 0.574136304 0.684843304 0.448728374 0.083997 0.958217
-0.201059 0.549172 2.961242 0.83359529 0.52029706 -0.185498952 0.08209 0.95771
-0.200904 0.548857 2.961363 0.907074419 0.390432032 -0.157412915 0.08221 0.956739
-0.201623 0.54918 2.962442 0.316119282 0.673441078 0.668240761 0.085052 0.958739
-0.201908 0.548841 2.962734 0.105902498 0.365108611 0.924921815 0.08662 0.958476
-0.201501 0.548937 2.96255 0.431331534 0.46793421 0.771356392 0.08536 0.95783
-0.202027 0.549078 2.962628 0.0099008272 0.592149473 0.805767321 0.08624 0.959539
-0.202449 0.548941 2.962635 -0.323603052 0.443704184 0.835707881 0.087619 0.960704
-0.202697 0.548534 2.962587 -0.585512715 -0.00860018676 0.810617603 0.089777 0.960261
-0.202328 0.548698 2.962743 -0.252998703 0.199398978 0.946695148 0.088135 0.959319
-0.202826 0.548793 2.962475 -0.642813817 0.228604914 0.731115716 0.089094 0.962052
-0.203095 0.548655 2.96216 -0.872322249 -0.00430010968 0.48891247 0.074992 0.965903
-0.20307 0.548232 2.961869 -0.910844683 -0.371718235 0.179408801 0.074478 0.963087
-0.202955 0.548371 2.962277 -0.818550412 -0.218313445 0.531332723 0.073746 0.965372
-0.203225 0.548547 2.961747 -0.965570267 -0.213515538 0.148610815 0.075588 0.963648
-0.202826 0.548793 2.962475 -0.642813817 0.228604914 0.731115716 0.074423 0.968397
-0.202697 0.548534 2.962587 -0.585512715 -0.00860018676 0.810617603 0.07303 0.967814
-0.203183 0.548489 2.961295 -0.91686559 -0.341324418 -0.207014809 0.076238 0.961874
-0.202806 0.548098 2.960984 -0.753338892 -0.398520574 -0.523127007 0.076078 0.959507
-0.203013 0.548136 2.961412 -0.883262056 -0.432530388 -0.181012717 0.075244 0.961119
-0.202989 0.548485 2.960872 -0.748713799 -0.386707127 -0.538409923 0.076951 0.960499
-0.202661 0.54854 2.960547 -0.486228479 -0.348920437 -0.801146925 0.07774 0.959445
-0.202063 0.54823 2.960475 -0.177607328 -0.163406742 -0.970440041 0.078028 0.957427
-0.20247 0.548134 2.96066 -0.508912201 -0.299007169 -0.807219353 0.077019 0.958288
-0.202257 0.548642 2.960361 -0.152307529 -0.239211825 -0.958947402 0.078576 0.958671
-0.201834 0.548778 2.960354 0.217894786 -0.0607985451 -0.974076691 0.079432 0.958137
-0.201274 0.54854 2.960627 0.564818001 0.152904873 -0.810925845 0.080123 0.956625
-0.201644 0.548373 2.960467 0.200497671 -0.00329996167 -0.979688621 0.079069 0.956887
-0.201457 0.548927 2.960514 0.54842369 0.148906432 -0.822835543 0.080304 0.957816
-0.201188 0.549065 2.960829 0.768009024 0.356704191 -0.53190625 0.081188 0.957681
-0.201019 0.548712 2.960947 0.813416574 0.278805681 -0.510510402 0.081173 0.956597
-0.200712 0.537942 2.961808 0.948356135 -0.316818753 -0.0157009294 0.072744 0.901002
-0.20082 0.537864 2.962256 0.856440249 -0.372317497 0.357616807 0.074568 0.900135
-0.200236 0.539775 2.962646 0.884009614 -0.255902783 0.391204254 0.077288 0.911748
-0.200126 0.539844 2.962198 0.973426629 -0.228306245 0.0178004869 0.075517 0.912639
-0.200183 0.539967 2.961754 0.91729157 -0.165498479 -0.362196671 0.07375 0.913638
-0.200768 0.53808 2.961364 0.896920244 -0.213004808 -0.387508746 0.070923 0.901939
-0.20109 0.537863 2.962639 0.635825596 -0.371714964 0.67642723 0.076405 0.899347
-0.201468 0.537933 2.962904 0.319903722 -0.31540367 0.893410395 0.078264 0.898637
-0.200888 0.539839 2.96329 0.353804831 -0.198502711 0.914012481 0.080903 0.910322
-0.200507 0.539776 2.963027 0.666820348 -0.245207483 0.703721474 0.079079 0.910976
-0.201906 0.538069 2.963002 -0.0451006707 -0.211603147 0.976314518 0.080154 0.898003
-0.202333 0.538245 2.962929 -0.404310961 -0.0752020388 0.911524712 0.082059 0.897408
-0.201757 0.540121 2.963308 -0.383991266 -0.0256994155 0.922979007 0.084662 0.909305
-0.201328 0.539962 2.963384 -0.0140997066 -0.12159747 0.992479347 0.082771 0.909784
-0.202681 0.538439 2.962684 -0.702834774 0.0736036416 0.707535006 0.053491 0.909501
-0.202907 0.538619 2.962316 -0.89369037 0.211897717 0.395495739 0.055477 0.908942
-0.202334 0.540455 2.962691 -0.908074007 0.165013448 0.384931371 0.058138 0.921138
-0.202108 0.540294 2.963061 -0.700484439 0.0752983273 0.709684235 0.056117 0.921632
-0.201757 0.540121 2.963308 -0.383991266 -0.0256994155 0.922979007 0.054112 0.92209
-0.202333 0.538245 2.962929 -0.404310961 -0.0752020388 0.911524712 0.051515 0.910034
-0.202963 0.538757 2.961872 -0.94769683 0.318398935 0.0221999257 0.05748 0.908332
-0.202854 0.538835 2.961424 -0.856497555 0.376098926 -0.353498991 0.059485 0.90764
-0.202281 0.540646 2.961798 -0.887032448 0.259009475 -0.382213982 0.062254 0.919897
-0.20239 0.540578 2.962246 -0.973262924 0.22969125 -0.0010999581 0.060192 0.920575
-0.202585 0.538836 2.961041 -0.634286192 0.376391806 -0.675285299 0.061475 0.906838
-0.202206 0.538766 2.960776 -0.315093315 0.318893235 -0.893881037 0.063438 0.905942
-0.201628 0.540582 2.961155 -0.343906842 0.202004019 -0.917018244 0.066313 0.918092
-0.20201 0.540646 2.961418 -0.665836788 0.249513786 -0.703138849 0.064303 0.919062
-0.201769 0.538631 2.960678 0.0520996403 0.212398533 -0.975793262 0.065363 0.904969
-0.201342 0.538454 2.960751 0.41192243 0.0735040024 -0.908249456 0.067249 0.903955
-0.200759 0.540301 2.961136 0.40698965 0.0254993516 -0.913076781 0.070146 0.915869
-0.201189 0.54046 2.96106 0.0319002147 0.123700833 -0.991806675 0.068261 0.917009
-0.200993 0.53826 2.960996 0.708409117 -0.0759009769 -0.701709031 0.069097 0.902933
-0.200409 0.540128 2.961384 0.718083463 -0.0760982475 -0.691784068 0.071967 0.91473
-0.199632 0.544686 2.962174 0.963883706 0.264195534 0.033599432 0.080999 0.938926
-0.199678 0.544309 2.962764 0.898784065 0.0848984948 0.430092375 0.082419 0.936516
-0.199544 0.544258 2.96224 0.9969767 0.0502038623 0.0593045625 0.080714 0.936849
-0.199759 0.544745 2.96267 0.87007777 0.3052922 0.386990113 0.082661 0.938704
-0.200005 0.545457 2.962538 0.848721486 0.336208511 0.408210334 0.082962 0.942024
-0.199875 0.545399 2.962085 0.950143427 0.306314 0.0583026648 0.081395 0.942132
-0.199919 0.545333 2.961621 0.920443791 0.2438116 -0.305514535 0.079842 0.94235
-0.199696 0.544629 2.961672 0.918589868 0.206297725 -0.337096282 0.079346 0.939251
-0.199612 0.544213 2.961711 0.944331891 0.00740024991 -0.328911108 0.079012 0.937256
-0.200074 0.544799 2.963081 0.655884816 0.32569246 0.680984235 0.084362 0.938556
-0.200474 0.544396 2.963484 0.350089664 0.120196451 0.928972572 0.085997 0.935965
-0.200009 0.544357 2.963197 0.67240902 0.109001462 0.732109821 0.084154 0.936229
-0.200516 0.544838 2.963354 0.347897888 0.324198032 0.87969466 0.08616 0.938454
-0.200712 0.54552 2.963154 0.318610959 0.293410092 0.901331002 0.086295 0.942061
-0.200302 0.545499 2.96291 0.631229769 0.331815649 0.701033061 0.084586 0.94201
-0.201026 0.544857 2.963434 -0.0221007345 0.297609891 0.954431721 0.088114 0.938369
-0.201533 0.544423 2.96345 -0.411610346 0.0994024985 0.905922771 0.090151 0.935443
-0.20101 0.544418 2.963567 -0.0283022868 0.117409486 0.992680207 0.088027 0.935703
-0.201523 0.544854 2.963323 -0.403501223 0.248800754 0.880502668 0.090145 0.938293
-0.201626 0.545489 2.963112 -0.443116116 0.124104514 0.887832291 0.09 0.942251
-0.201177 0.545516 2.96322 -0.0580021658 0.220608238 0.973636356 0.088119 0.942147
-0.201929 0.544827 2.963025 -0.732736092 0.181608945 0.655832304 0.063522 0.948564
-0.202235 0.544374 2.962683 -0.942753333 0.0241013635 0.332618817 0.064521 0.944817
-0.20196 0.544406 2.963135 -0.736275155 0.0667977459 0.673377277 0.06257 0.946202
-0.20219 0.544782 2.962596 -0.941935069 0.111304144 0.316811795 0.065376 0.947103
-0.202211 0.545379 2.962434 -0.953832288 -0.0655022173 0.293109922 0.066894 0.950149
-0.201987 0.545442 2.962833 -0.764406467 0.0206001743 0.644405452 0.065243 0.951717
-0.201626 0.545489 2.963112 -0.443116116 0.124104514 0.887832291 0.063599 0.953296
-0.201523 0.544854 2.963323 -0.403501223 0.248800754 0.880502668 0.061656 0.950053
-0.201533 0.544423 2.96345 -0.411610346 0.0994024985 0.905922771 0.060594 0.947622
-0.202254 0.544725 2.962094 -0.996455061 0.046202553 -0.0703038847 0.067205 0.945698
-0.202169 0.544277 2.961631 -0.901237362 -0.0637026408 -0.428617769 0.068287 0.942273
-0.202303 0.544328 2.962154 -0.998132909 -0.022200732 -0.0569018761 0.066422 0.943506
-0.202126 0.544666 2.961598 -0.898421324 -0.00460010918 -0.439110422 0.069005 0.944362
-0.202123 0.545242 2.961499 -0.881080216 -0.170696167 -0.441090095 0.070213 0.947146
-0.202254 0.545308 2.961962 -0.988160455 -0.127594894 -0.0851965905 0.068557 0.948604
-0.201811 0.544612 2.961187 -0.668980767 -0.0344990082 -0.742478654 0.070772 0.943109
-0.201373 0.544191 2.96091 -0.349710215 -0.107003126 -0.930727187 0.071946 0.94008
-0.201838 0.544229 2.961197 -0.674129659 -0.093804127 -0.732632233 0.070126 0.941123
-0.201369 0.544572 2.960914 -0.34090759 -0.0329007325 -0.939520919 0.072519 0.941992
-0.201415 0.545175 2.960879 -0.316408118 -0.155303984 -0.935824009 0.073457 0.944731
-0.201824 0.545197 2.961123 -0.646697041 -0.184499156 -0.740096614 0.071843 0.945841
-0.20086 0.544554 2.960835 0.0415015833 -0.000800030522 -0.999138118 0.074258 0.941063
-0.200314 0.544164 2.960944 0.415625136 -0.0760045965 -0.906354813 0.075534 0.938399
-0.200838 0.544168 2.960827 0.0310004159 -0.100901354 -0.99441334 0.073751 0.939171
-0.200363 0.544557 2.960945 0.422715791 0.0606022638 -0.904233778 0.075979 0.940307
-0.200501 0.545209 2.960924 0.461802702 0.0291001702 -0.886505186 0.076665 0.943185
-0.20095 0.545179 2.960813 0.0723040759 -0.0826046566 -0.993956031 0.075064 0.943855
-0.199957 0.544584 2.961243 0.731492008 0.134798527 -0.668392698 0.077674 0.939707
-0.199887 0.54418 2.961259 0.739508349 -0.0374004223 -0.672107588 0.077287 0.937767
-0.200142 0.545265 2.961214 0.758057 0.148111137 -0.635147759 0.078262 0.942692
-0.199853 0.541535 2.962312 0.99099391 -0.125199231 0.0474997081 0.07769 0.922417
-0.199965 0.541495 2.962758 0.899376999 -0.120510317 0.420235978 0.079448 0.921597
-0.19985 0.542869 2.962747 0.895719003 -0.10180216 0.432809182 0.081009 0.929106
-0.199732 0.542874 2.96229 0.991068356 -0.119296191 0.0595980971 0.079253 0.929786
-0.19979 0.542896 2.961828 0.933530275 -0.132004281 -0.333310809 0.077513 0.930507
-0.199909 0.541612 2.961866 0.932827342 -0.112503298 -0.342310033 0.075943 0.923315
-0.199603 0.543718 2.962272 0.989553229 -0.126906827 0.0684036795 0.080197 0.9342
-0.199731 0.543745 2.962769 0.891822519 -0.105502664 0.439911108 0.081935 0.933698
-0.199667 0.543699 2.96177 0.934801851 -0.152000301 -0.321000636 0.078469 0.934748
-0.200241 0.541499 2.963133 0.681385756 -0.0990979284 0.72518484 0.08124 0.92086
-0.200629 0.541545 2.963388 0.368823323 -0.064504079 0.927258637 0.083068 0.920207
-0.200545 0.542914 2.963382 0.354589027 -0.05719823 0.93327112 0.084656 0.927838
-0.200139 0.542884 2.963128 0.672480535 -0.0799976845 0.735778703 0.082809 0.928456
-0.200046 0.543777 2.963181 0.665612843 -0.0878016942 0.7411143 0.083708 0.933221
-0.200488 0.543809 2.963454 0.344699585 -0.0763999079 0.935598873 0.085564 0.932758
-0.201076 0.541629 2.963473 -0.00249991969 -0.0213993126 0.999767883 0.084934 0.919639
-0.201513 0.541734 2.963388 -0.383724385 0.023101468 0.923158664 0.086819 0.919113
-0.201469 0.543005 2.963361 -0.405822148 -0.0235012826 0.913649864 0.088481 0.926679
-0.201012 0.542957 2.963459 -0.0213001411 -0.0365002418 0.999106619 0.086555 0.92725
-0.200998 0.543836 2.963533 -0.0315018027 -0.0713040805 0.996957052 0.087547 0.932301
-0.201495 0.543853 2.963423 -0.411812311 -0.0756022602 0.908127149 0.089594 0.931847
-0.201868 0.541847 2.963132 -0.714569203 0.0601974055 0.696969961 0.058599 0.931182
-0.202098 0.54195 2.962756 -0.930981227 0.0821983425 0.355692828 0.060581 0.930551
-0.20208 0.543087 2.962697 -0.942980193 -0.0350992627 0.330993048 0.06253 0.937389
-0.201841 0.54305 2.963089 -0.734282689 -0.022099479 0.678484005 0.060593 0.938273
-0.201469 0.543005 2.963361 -0.405822148 -0.0235012826 0.913649864 0.058662 0.939158
-0.201513 0.541734 2.963388 -0.383724385 0.023101468 0.923158664 0.056632 0.931791
-0.201901 0.543859 2.963124 -0.733231511 -0.089003825 0.674128971 0.061755 0.943025
-0.202162 0.543852 2.962694 -0.936319537 -0.112302343 0.332706942 0.063708 0.941862
-0.201495 0.543853 2.963423 -0.411812311 -0.0756022602 0.908127149 0.05979 0.944213
-0.202154 0.542026 2.96231 -0.995443437 0.086603779 -0.0399017412 0.062594 0.929876
-0.202042 0.542067 2.961864 -0.905428155 0.0756023509 -0.417712989 0.064618 0.929132
-0.20202 0.543114 2.961778 -0.898470809 -0.0846972482 -0.430786004 0.066429 0.935633
-0.202138 0.543109 2.962235 -0.996407269 -0.0578004217 -0.0619004516 0.064477 0.936509
-0.202226 0.543833 2.962192 -0.98857149 -0.140595945 -0.0543984312 0.065633 0.940748
-0.202098 0.543806 2.961695 -0.891012554 -0.170102397 -0.420905931 0.06754 0.939689
-0.201766 0.542062 2.961489 -0.684707142 0.0541005643 -0.726807581 0.066636 0.928294
-0.201378 0.542016 2.961234 -0.366322577 0.0248015286 -0.930157327 0.068618 0.927367
-0.201325 0.543069 2.961143 -0.361814216 -0.125704939 -0.923736294 0.0703 0.93388
-0.201731 0.543099 2.961397 -0.67642881 -0.108104604 -0.728531029 0.068379 0.93476
-0.201783 0.543773 2.961283 -0.667698201 -0.193299479 -0.718898063 0.069435 0.938688
-0.201341 0.543741 2.96101 -0.350317506 -0.20711035 -0.913445646 0.071308 0.937747
-0.200931 0.541933 2.961149 0.0106999224 -0.0099999275 -0.999892751 0.070534 0.926355
-0.200495 0.541828 2.961235 0.396521076 -0.0484025727 -0.916748726 0.072388 0.925311
-0.200402 0.542978 2.961164 0.393590765 -0.139896717 -0.90857868 0.073987 0.932103
-0.200858 0.543026 2.961066 0.0105002258 -0.135502914 -0.990721306 0.072167 0.932982
-0.200832 0.543715 2.960931 0.0228997347 -0.207397597 -0.97798867 0.073147 0.936866
-0.200334 0.543697 2.961042 0.403495138 -0.19669763 -0.893589232 0.074953 0.936065
-0.200139 0.541715 2.96149 0.723109075 -0.0848010643 -0.685508603 0.074183 0.924289
-0.20003 0.542933 2.961435 0.722004704 -0.138400902 -0.677904417 0.075763 0.931278
-0.199929 0.543692 2.96134 0.727451356 -0.17621244 -0.663146817 0.076723 0.935364
-0.200284 0.546798 2.961988 0.949647745 0.284014279 0.132306652 0.08225 0.948165
-0.200445 0.546845 2.962418 0.825573165 0.297690324 0.479384418 0.083628 0.948236
-0.200869 0.548187 2.962326 0.789412236 0.299204638 0.536008308 0.084245 0.954155
-0.200673 0.548151 2.961907 0.934006029 0.29750192 0.197801277 0.083058 0.953912
-0.200627 0.548047 2.961441 0.952727334 0.256207351 -0.163304685 0.08186 0.953711
-0.200282 0.546712 2.961528 0.946051448 0.230012508 -0.228212411 0.080874 0.948168
-0.200858 0.548727 2.961865 0.898128979 0.382512342 0.216906999 0.08331 0.956257
-0.201067 0.548762 2.962281 0.742715738 0.385208163 0.547711606 0.084399 0.956591
-0.200798 0.548622 2.961407 0.930652127 0.335118771 -0.146908229 0.082219 0.955987
-0.200754 0.546852 2.962761 0.589821871 0.271210057 0.760628205 0.085078 0.948396
-0.201156 0.546823 2.962976 0.26300212 0.204801651 0.942807599 0.08664 0.948621
-0.201605 0.548082 2.962844 0.208106021 0.177705141 0.961827826 0.086927 0.954868
-0.201199 0.548161 2.962652 0.540608239 0.259003947 0.800412198 0.085512 0.954478
-0.201404 0.548726 2.962601 0.490804584 0.335203131 0.804207511 0.08556 0.957016
-0.201811 0.548632 2.962785 0.161711687 0.234916978 0.958469271 0.086884 0.957536
-0.201594 0.546759 2.963016 -0.118406687 0.103505845 0.987555769 0.088355 0.948887
-0.202002 0.546672 2.962889 -0.494119187 -0.0167006485 0.869233753 0.090145 0.949172
-0.202407 0.547812 2.962712 -0.536916618 -0.0700021666 0.840726021 0.090297 0.955788
-0.202028 0.547959 2.962861 -0.171506337 0.0619022873 0.983236331 0.088558 0.955314
-0.20223 0.548488 2.962794 -0.208298852 0.0912994969 0.973794634 0.088466 0.958157
-0.202598 0.54832 2.962639 -0.55718823 -0.0739984368 0.827082528 0.090176 0.958828
-0.202311 0.546574 2.962603 -0.791752614 -0.131408732 0.596539641 0.068365 0.957264
-0.202483 0.546468 2.962195 -0.947786399 -0.213496936 0.236896601 0.069698 0.955386
-0.202802 0.547517 2.961986 -0.946154902 -0.269515639 0.179310405 0.072427 0.960313
-0.202676 0.547663 2.962409 -0.815048069 -0.191211277 0.546932256 0.071403 0.9625
-0.202407 0.547812 2.962712 -0.536916618 -0.0700021666 0.840726021 0.070393 0.9647
-0.202002 0.546672 2.962889 -0.494119187 -0.0167006485 0.869233753 0.067046 0.95914
-0.202853 0.548151 2.962331 -0.81334905 -0.230113877 0.534332224 0.072873 0.96472
-0.202963 0.547997 2.961913 -0.928015846 -0.332305674 0.168402876 0.073723 0.962427
-0.202598 0.54832 2.962639 -0.55718823 -0.0739984368 0.827082528 0.072037 0.967087
-0.202477 0.546358 2.961706 -0.957839823 -0.260110814 -0.122005072 0.071055 0.953505
-0.202309 0.546278 2.961233 -0.839723252 -0.285807914 -0.461712785 0.072429 0.951815
-0.202544 0.547291 2.960992 -0.810818714 -0.276606384 -0.515811905 0.074564 0.956287
-0.202749 0.547378 2.961477 -0.939610261 -0.293403204 -0.176201924 0.073477 0.958149
-0.202898 0.547868 2.961426 -0.917839188 -0.34311465 -0.199608522 0.074598 0.960283
-0.202683 0.547799 2.960967 -0.791696481 -0.268398807 -0.548797561 0.075532 0.958477
-0.201997 0.546259 2.960875 -0.593396187 -0.278498211 -0.755195148 0.073807 0.950512
-0.201595 0.546287 2.960661 -0.255114325 -0.226312708 -0.940052785 0.075188 0.949543
-0.201805 0.547378 2.960453 -0.213599688 -0.142999791 -0.966398589 0.076864 0.954173
-0.202211 0.5473 2.960645 -0.554532779 -0.224713283 -0.801247363 0.0757 0.955004
-0.202344 0.547823 2.960633 -0.541190462 -0.154497277 -0.826585432 0.076555 0.957202
-0.201936 0.547918 2.960449 -0.210805762 -0.0313008556 -0.977026707 0.077634 0.956364
-0.201157 0.546352 2.960621 0.142098855 -0.129898954 -0.981292096 0.076567 0.948859
-0.200752 0.54645 2.960762 0.541190729 0.00489991607 -0.840885596 0.077971 0.94843
-0.201006 0.547666 2.960606 0.580606128 0.0843008898 -0.809808548 0.079255 0.953457
-0.201381 0.547502 2.960437 0.182999542 -0.0374999061 -0.982397539 0.078035 0.953666
-0.201518 0.548062 2.96044 0.169701801 0.0918009745 -0.981210416 0.078736 0.955869
-0.201152 0.548241 2.96061 0.554644224 0.199715924 -0.807764406 0.079873 0.95568
-0.200449 0.546583 2.961092 0.817746752 0.13660781 -0.559131966 0.079427 0.948228
-0.200746 0.547866 2.960974 0.844247456 0.186310473 -0.502528248 0.080561 0.953516
-0.200904 0.548444 2.96096 0.821137662 0.273512545 -0.500922975 0.081054 0.955757
3 0 1 2
3 0 3 1
3 0 4 3
3 0 5 4
3 0 6 5
3 0 7 6
3 0 8 7
3 0 2 8
3 9 8 2
3 9 10 8
3 9 11 10
3 9 12 11
3 9 13 12
3 9 14 13
3 9 1 14
3 9 2 1
3 15 11 12
3 15 16 11
3 15 17 16
3 15 18 17
3 15 19 18
3 15 20 19
3 15 13 20
3 15 12 13
3 21 17 18
3 21 22 17
3 21 23 22
3 21 24 23
3 21 25 24
3 21 26 25
3 21 19 26
3 21 18 19
3 27 6 7
3 27 28 6
3 27 29 28
3 27 30 29
3 27 31 30
3 27 32 31
3 27 8 32
3 27 7 8
3 33 8 10
3 33 32 8
3 33 31 32
3 33 34 31
3 33 35 34
3 33 36 35
3 33 11 36
3 33 10 11
3 37 11 16
3 37 36 11
3 37 35 36
3 37 38 35
3 37 39 38
3 37 40 39
3 37 17 40
3 37 16 17
3 41 17 22
3 41 40 17
3 41 39 40
3 41 42 39
3 41 43 42
3 41 44 43
3 41 23 44
3 41 22 23
3 45 46 47
3 45 48 46
3 45 49 48
3 45 50 49
3 45 31 50
3 45 30 31
3 45 29 30
3 45 47 29
3 51 49 50
3 51 52 49
3 51 53 52
3 51 54 53
3 51 35 54
3 51 34 35
3 51 31 34
3 51 50 31
3 55 53 54
3 55 56 53
3 55 57 56
3 55 58 57
3 55 39 58
3 55 38 39
3 55 35 38
3 55 54 35
3 59 57 58
3 59 60 57
3 59 61 60
3 59 62 61
3 59 43 62
3 59 42 43
3 59 39 42
3 59 58 39
3 63 64 65
3 63 66 64
3 63 67 66
3 63 68 67
3 63 69 68
3 63 70 69
3 63 71 70
3 63 65 71
3 72 71 73
3 72 70 71
3 72 69 70
3 72 74 69
3 72 75 74
3 72 76 75
3 72 77 76
3 72 73 77
3 78 77 79
3 78 76 77
3 78 75 76
3 78 80 75
3 78 81 80
3 78 82 81
3 78 83 82
3 78 79 83
3 84 83 85
3 84 82 83
3 84 81 82
3 84 86 81
3 84 87 86
3 84 88 87
3 84 89 88
3 84 85 89
3 90 91 92
3 90 93 91
3 90 94 93
3 90 95 94
3 90 69 95
3 90 68 69
3 90 67 68
3 90 92 67
3 96 94 95
3 96 97 94
3 96 98 97
3 96 99 98
3 96 75 99
3 96 74 75
3 96 69 74
3 96 95 69
3 100 98 99
3 100 101 98
3 100 102 101
3 100 103 102
3 100 81 103
3 100 80 81
3 100 75 80
3 100 99 75
3 104 102 103
3 104 105 102
3 104 106 105
3 104 107 106
3 104 87 107
3 104 86 87
3 104 81 86
3 104 103 81
3 108 109 110
3 108 111 109
3 108 112 111
3 108 113 112
3 108 94 113
3 108 93 94
3 108 91 93
3 108 110 91
3 114 112 113
3 114 115 112
3 114 116 115
3 114 117 116
3 114 98 117
3 114 97 98
3 114 94 97
3 114 113 94
3 118 116 117
3 118 119 116
3 118 120 119
3 118 121 120
3 118 102 121
3 118 101 102
3 118 98 101
3 118 117 98
3 122 120 121
3 122 123 120
3 122 124 123
3 122 125 124
3 122 106 125
3 122 105 106
3 122 102 105
3 122 121 102
3 126 109 111
3 126 127 109
3 126 128 127
3 126 129 128
3 126 130 129
3 126 131 130
3 126 112 131
3 126 111 112
3 132 112 115
3 132 131 112
3 132 130 131
3 132 133 130
3 132 134 133
3 132 135 134
3 132 116 135
3 132 115 116
3 136 116 119
3 136 135 116
3 136 134 135
3 136 137 134
3 136 138 137
3 136 139 138
3 136 120 139
3 136 119 120
3 140 120 123
3 140 139 120
3 140 138 139
3 140 141 138
3 140 142 141
3 140 143 142
3 140 124 143
3 140 123 124
3 144 4 145
3 144 3 4
3 144 1 3
3 144 146 1
3 144 130 146
3 144 129 130
3 144 128 129
3 144 145 128
3 147 1 146
3 147 14 1
3 147 13 14
3 147 148 13
3 147 134 148
3 147 133 134
3 147 130 133
3 147 146 130
3 149 13 148
3 149 20 13
3 149 19 20
3 149 150 19
3 149 138 150
3 149 137 138
3 149 134 137
3 149 148 134
3 151 19 150
3 151 26 19
3 151 25 26
3 151 152 25
3 151 142 152
3 151 141 142
3 151 138 141
3 151 150 138
3 153 142 154
3 153 152 142
3 153 25 152
3 153 155 25
3 153 156 155
3 153 157 156
3 153 158 157
3 153 154 158
3 159 142 143
3 159 154 142
3 159 158 154
3 159 160 158
3 159 161 160
3 159 162 161
3 159 124 162
3 159 143 124
3 163 106 164
3 163 125 106
3 163 124 125
3 163 162 124
3 163 161 162
3 163 165 161
3 163 166 165
3 163 164 166
3 167 87 168
3 167 107 87
3 167 106 107
3 167 164 106
3 167 166 164
3 167 169 166
3 167 170 169
3 167 168 170
3 171 87 88
3 171 168 87
3 171 170 168
3 171 172 170
3 171 173 172
3 171 174 173
3 171 89 174
3 171 88 89
3 175 43 176
3 175 62 43
3 175 61 62
3 175 177 61
3 175 178 177
3 175 179 178
3 175 180 179
3 175 176 180
3 181 43 44
3 181 176 43
3 181 180 176
3 181 182 180
3 181 183 182
3 181 184 183
3 181 23 184
3 181 44 23
3 185 25 155
3 185 24 25
3 185 23 24
3 185 184 23
3 185 183 184
3 185 186 183
3 185 156 186
3 185 155 156
3 187 156 188
3 187 186 156
3 187 183 186
3 187 189 183
3 187 190 189
3 187 191 190
3 187 192 191
3 187 188 192
3 193 180 182
3 193 194 180
3 193 195 194
3 193 196 195
3 193 190 196
3 193 189 190
3 193 183 189
3 193 182 183
3 197 180 194
3 197 179 180
3 197 178 179
3 197 198 178
3 197 199 198
3 197 200 199
3 197 195 200
3 197 194 195
3 201 170 172
3 201 202 170
3 201 203 202
3 201 204 203
3 201 205 204
3 201 206 205
3 201 173 206
3 201 172 173
3 207 170 202
3 207 169 170
3 207 166 169
3 207 208 166
3 207 209 208
3 207 210 209
3 207 203 210
3 207 202 203
3 211 166 208
3 211 165 166
3 211 161 165
3 211 212 161
3 211 213 212
3 211 214 213
3 211 209 214
3 211 208 209
3 215 158 160
3 215 216 158
3 215 217 216
3 215 218 217
3 215 213 218
3 215 212 213
3 215 161 212
3 215 160 161
3 219 158 216
3 219 157 158
3 219 156 157
3 219 188 156
3 219 192 188
3 219 220 192
3 219 217 220
3 219 216 217
3 221 217 222
3 221 220 217
3 221 192 220
3 221 223 192
3 221 224 223
3 221 225 224
3 221 226 225
3 221 222 226
3 227 217 218
3 227 222 217
3 227 226 222
3 227 228 226
3 227 229 228
3 227 230 229
3 227 213 230
3 227 218 213
3 231 209 232
3 231 214 209
3 231 213 214
3 231 230 213
3 231 229 230
3 231 233 229
3 231 234 233
3 231 232 234
3 235 203 236
3 235 210 203
3 235 209 210
3 235 232 209
3 235 234 232
3 235 237 234
3 235 238 237
3 235 236 238
3 239 203 204
3 239 236 203
3 239 238 236
3 239 240 238
3 239 241 240
3 239 242 241
3 239 205 242
3 239 204 205
3 243 195 244
3 243 200 195
3 243 199 200
3 243 245 199
3 243 246 245
3 243 247 246
3 243 248 247
3 243 244 248
3 249 195 196
3 249 244 195
3 249 248 244
3 249 250 248
3 249 251 250
3 249 252 251
3 249 190 252
3 249 196 190
3 253 192 223
3 253 191 192
3 253 190 191
3 253 252 190
3 253 251 252
3 253 254 251
3 253 224 254
3 253 223 224
3 255 6 256
3 255 5 6
3 255 4 5
3 255 257 4
3 255 258 257
3 255 259 258
3 255 260 259
3 255 256 260
3 261 6 28
3 261 256 6
3 261 260 256
3 261 262 260
3 261 263 262
3 261 264 263
3 261 29 264
3 261 28 29
3 265 46 266
3 265 47 46
3 265 29 47
3 265 264 29
3 265 263 264
3 265 267 263
3 265 268 267
3 265 266 268
3 269 64 66
3 269 270 64
3 269 271 270
3 269 272 271
3 269 273 272
3 269 274 273
3 269 67 274
3 269 66 67
3 275 91 276
3 275 92 91
3 275 67 92
3 275 274 67
3 275 273 274
3 275 277 273
3 275 278 277
3 275 276 278
3 279 109 280
3 279 110 109
3 279 91 110
3 279 276 91
3 279 278 276
3 279 281 278
3 279 282 281
3 279 280 282
3 283 109 127
3 283 280 109
3 283 282 280
3 283 284 282
3 283 285 284
3 283 286 285
3 283 128 286
3 283 127 128
3 287 4 257
3 287 145 4
3 287 128 145
3 287 286 128
3 287 285 286
3 287 288 285
3 287 258 288
3 287 257 258
3 289 258 290
3 289 288 258
3 289 285 288
3 289 291 285
3 289 292 291
3 289 293 292
3 289 294 293
3 289 290 294
3 295 282 284
3 295 296 282
3 295 297 296
3 295 298 297
3 295 292 298
3 295 291 292
3 295 285 291
3 295 284 285
3 299 282 296
3 299 281 282
3 299 278 281
3 299 300 278
3 299 301 300
3 299 302 301
3 299 297 302
3 299 296 297
3 303 278 300
3 303 277 278
3 303 273 277
3 303 304 273
3 303 305 304
3 303 306 305
3 303 301 306
3 303 300 301
3 307 271 272
3 307 308 271
3 307 309 308
3 307 310 309
3 307 305 310
3 307 304 305
3 307 273 304
3 307 272 273
3 311 268 312
3 311 267 268
3 311 263 267
3 311 313 263
3 311 314 313
3 311 315 314
3 311 316 315
3 311 312 316
3 317 260 262
3 317 318 260
3 317 319 318
3 317 320 319
3 317 314 320
3 317 313 314
3 317 263 313
3 317 262 263
3 321 260 318
3 321 259 260
3 321 258 259
3 321 290 258
3 321 294 290
3 321 322 294
3 321 319 322
3 321 318 319
3 323 319 324
3 323 322 319
3 323 294 322
3 323 325 294
3 323 326 325
3 323 327 326
3 323 328 327
3 323 324 328
3 329 319 320
3 329 324 319
3 329 328 324
3 329 330 328
3 329 331 330
3 329 332 331
3 329 314 332
3 329 320 314
3 333 316 334
3 333 315 316
3 333 314 315
3 333 332 314
3 333 331 332
3 333 335 331
3 333 336 335
3 333 334 336
3 337 309 310
3 337 338 309
3 337 339 338
3 337 340 339
3 337 341 340
3 337 342 341
3 337 305 342
3 337 310 305
3 343 301 344
3 343 306 301
3 343 305 306
3 343 342 305
3 343 341 342
3 343 345 341
3 343 346 345
3 343 344 346
3 347 297 348
3 347 302 297
3 347 301 302
3 347 344 301
3 347 346 344
3 347 349 346
3 347 350 349
3 347 348 350
3 351 297 298
3 351 348 297
3 351 350 348
3 351 352 350
3 351 353 352
3 351 354 353
3 351 292 354
3 351 298 292
3 355 294 325
3 355 293 294
3 355 292 293
3 355 354 292
3 355 353 354
3 355 356 353
3 355 326 356
3 355 325 326
3 357 326 358
3 357 356 326
3 357 353 356
3 357 359 353
3 357 360 359
3 357 358 360
3 361 353 359
3 361 352 353
3 361 350 352
3 361 362 350
3 361 360 362
3 361 359 360
3 363 350 362
3 363 349 350
3 363 346 349
3 363 364 346
3 363 360 364
3 363 362 360
3 365 346 364
3 365 345 346
3 365 341 345
3 365 366 341
3 365 360 366
3 365 364 360
3 367 341 366
3 367 340 341
3 367 339 340
3 367 368 339
3 367 360 368
3 367 366 360
3 369 336 370
3 369 335 336
3 369 331 335
3 369 371 331
3 369 360 371
3 369 370 360
3 372 331 371
3 372 330 331
3 372 328 330
3 372 373 328
3 372 360 373
3 372 371 360
3 374 328 373
3 374 327 328
3 374 326 327
3 374 358 326
3 374 360 358
3 374 373 360
3 375 376 377
3 375 378 376
3 375 379 378
3 375 380 379
3 375 381 380
3 375 382 381
3 375 383 382
3 375 377 383
3 384 385 386
3 384 387 385
3 384 388 387
3 384 389 388
3 384 379 389
3 384 378 379
3 384 376 378
3 384 386 376
3 390 391 392
3 390 393 391
3 390 394 393
3 390 395 394
3 390 388 395
3 390 387 388
3 390 385 387
3 390 392 385
3 396 397 398
3 396 399 397
3 396 400 399
3 396 401 400
3 396 402 401
3 396 403 402
3 396 404 403
3 396 398 404
3 405 406 407
3 405 408 406
3 405 409 408
3 405 410 409
3 405 400 410
3 405 399 400
3 405 397 399
3 405 407 397
3 411 412 413
3 411 414 412
3 411 415 414
3 411 416 415
3 411 409 416
3 411 408 409
3 411 406 408
3 411 413 406
3 417 418 419
3 417 420 418
3 417 421 420
3 417 422 421
3 417 415 422
3 417 414 415
3 417 412 414
3 417 419 412
3 423 383 424
3 423 382 383
3 423 381 382
3 423 425 381
3 423 421 425
3 423 420 421
3 423 418 420
3 423 424 418
3 426 427 428
3 426 429 427
3 426 430 429
3 426 431 430
3 426 432 431
3 426 428 432
3 433 434 435
3 433 436 434
3 433 427 436
3 433 428 427
3 433 432 428
3 433 435 432
3 437 438 439
3 437 440 438
3 437 434 440
3 437 435 434
3 437 432 435
3 437 439 432
3 441 442 443
3 441 444 442
3 441 438 444
3 441 439 438
3 441 432 439
3 441 443 432
3 445 446 447
3 445 448 446
3 445 442 448
3 445 443 442
3 445 432 443
3 445 447 432
3 449 450 451
3 449 452 450
3 449 453 452
3 449 454 453
3 449 432 454
3 449 451 432
3 455 456 457
3 455 458 456
3 455 450 458
3 455 451 450
3 455 432 451
3 455 457 432
3 459 430 431
3 459 460 430
3 459 456 460
3 459 457 456
3 459 432 457
3 459 431 432
3 461 462 463
3 461 464 462
3 461 456 464
3 461 460 456
3 461 430 460
3 461 465 430
3 461 466 465
3 461 463 466
3 467 468 469
3 467 470 468
3 467 450 470
3 467 458 450
3 467 456 458
3 467 464 456
3 467 462 464
3 467 469 462
3 471 472 473
3 471 474 472
3 471 453 474
3 471 452 453
3 471 450 452
3 471 470 450
3 471 468 470
3 471 473 468
3 475 476 477
3 475 478 476
3 475 442 478
3 475 448 442
3 475 446 448
3 475 479 446
3 475 480 479
3 475 477 480
3 481 482 483
3 481 484 482
3 481 438 484
3 481 444 438
3 481 442 444
3 481 478 442
3 481 476 478
3 481 483 476
3 485 486 487
3 485 488 486
3 485 434 488
3 485 440 434
3 485 438 440
3 485 484 438
3 485 482 484
3 485 487 482
3 489 490 491
3 489 492 490
3 489 427 492
3 489 436 427
3 489 434 436
3 489 488 434
3 489 486 488
3 489 491 486
3 493 466 494
3 493 465 466
3 493 430 465
3 493 429 430
3 493 427 429
3 493 492 427
3 493 490 492
3 493 494 490
3 495 379 380
3 495 496 379
3 495 497 496
3 495 498 497
3 495 499 498
3 495 500 499
3 495 381 500
3 495 380 381
3 501 388 389
3 501 502 388
3 501 503 502
3 501 504 503
3 501 497 504
3 501 496 497
3 501 379 496
3 501 389 379
3 505 394 395
3 505 506 394
3 505 507 506
3 505 508 507
3 505 503 508
3 505 502 503
3 505 388 502
3 505 395 388
3 509 400 401
3 509 510 400
3 509 511 510
3 509 512 511
3 509 513 512
3 509 514 513
3 509 402 514
3 509 401 402
3 515 409 410
3 515 516 409
3 515 517 516
3 515 518 517
3 515 511 518
3 515 510 511
3 515 400 510
3 515 410 400
3 519 415 416
3 519 520 415
3 519 521 520
3 519 522 521
3 519 517 522
3 519 516 517
3 519 409 516
3 519 416 409
3 523 421 422
3 523 524 421
3 523 525 524
3 523 526 525
3 523 521 526
3 523 520 521
3 523 415 520
3 523 422 415
3 527 381 425
3 527 500 381
3 527 499 500
3 527 528 499
3 527 525 528
3 527 524 525
3 527 421 524
3 527 425 421
3 529 530 531
3 529 532 530
3 529 533 532
3 529 534 533
3 529 535 534
3 529 536 535
3 529 537 536
3 529 531 537
3 538 539 540
3 538 541 539
3 538 542 541
3 538 543 542
3 538 533 543
3 538 532 533
3 538 530 532
3 538 540 530
3 544 545 546
3 544 547 545
3 544 548 547
3 544 549 548
3 544 542 549
3 544 541 542
3 544 539 541
3 544 546 539
3 550 551 552
3 550 553 551
3 550 554 553
3 550 555 554
3 550 556 555
3 550 557 556
3 550 558 557
3 550 552 558
3 559 560 561
3 559 562 560
3 559 563 562
3 559 564 563
3 559 554 564
3 559 553 554
3 559 551 553
3 559 561 551
3 565 566 567
3 565 568 566
3 565 569 568
3 565 570 569
3 565 563 570
3 565 562 563
3 565 560 562
3 565 567 560
3 571 572 573
3 571 574 572
3 571 575 574
3 571 576 575
3 571 569 576
3 571 568 569
3 571 566 568
3 571 573 566
3 577 537 578
3 577 536 537
3 577 535 536
3 577 579 535
3 577 575 579
3 577 574 575
3 577 572 574
3 577 578 572
3 580 497 498
3 580 581 497
3 580 582 581
3 580 583 582
3 580 584 583
3 580 585 584
3 580 499 585
3 580 498 499
3 586 582 583
3 586 587 582
3 586 530 587
3 586 531 530
3 586 537 531
3 586 588 537
3 586 584 588
3 586 583 584
3 589 503 504
3 589 590 503
3 589 591 590
3 589 592 591
3 589 582 592
3 589 581 582
3 589 497 581
3 589 504 497
3 593 591 592
3 593 594 591
3 593 539 594
3 593 540 539
3 593 530 540
3 593 587 530
3 593 582 587
3 593 592 582
3 595 507 508
3 595 596 507
3 595 597 596
3 595 598 597
3 595 591 598
3 595 590 591
3 595 503 590
3 595 508 503
3 599 597 598
3 599 600 597
3 599 545 600
3 599 546 545
3 599 539 546
3 599 594 539
3 599 591 594
3 599 598 591
3 601 511 512
3 601 602 511
3 601 603 602
3 601 604 603
3 601 605 604
3 601 606 605
3 601 513 606
3 601 512 513
3 607 603 604
3 607 608 603
3 607 551 608
3 607 552 551
3 607 558 552
3 607 609 558
3 607 605 609
3 607 604 605
3 610 517 518
3 610 611 517
3 610 612 611
3 610 613 612
3 610 603 613
3 610 602 603
3 610 511 602
3 610 518 511
3 614 612 613
3 614 615 612
3 614 560 615
3 614 561 560
3 614 551 561
3 614 608 551
3 614 603 608
3 614 613 603
3 616 521 522
3 616 617 521
3 616 618 617
3 616 619 618
3 616 612 619
3 616 611 612
3 616 517 611
3 616 522 517
3 620 618 619
3 620 621 618
3 620 566 621
3 620 567 566
3 620 560 567
3 620 615 560
3 620 612 615
3 620 619 612
3 622 525 526
3 622 623 525
3 622 624 623
3 622 625 624
3 622 618 625
3 622 617 618
3 622 521 617
3 622 526 521
3 626 624 625
3 626 627 624
3 626 572 627
3 626 573 572
3 626 566 573
3 626 621 566
3 626 618 621
3 626 625 618
3 628 499 528
3 628 585 499
3 628 584 585
3 628 629 584
3 628 624 629
3 628 623 624
3 628 525 623
3 628 528 525
3 630 584 629
3 630 588 584
3 630 537 588
3 630 578 537
3 630 572 578
3 630 627 572
3 630 624 627
3 630 629 624
3 631 533 534
3 631 632 533
3 631 633 632
3 631 634 633
3 631 635 634
3 631 636 635
3 631 535 636
3 631 534 535
3 637 633 634
3 637 638 633
3 637 462 638
3 637 463 462
3 637 466 463
3 637 639 466
3 637 635 639
3 637 634 635
3 640 542 543
3 640 641 542
3 640 642 641
3 640 643 642
3 640 633 643
3 640 632 633
3 640 533 632
3 640 543 533
3 644 642 643
3 644 645 642
3 644 468 645
3 644 469 468
3 644 462 469
3 644 638 462
3 644 633 638
3 644 643 633
3 646 548 549
3 646 647 548
3 646 648 647
3 646 649 648
3 646 642 649
3 646 641 642
3 646 542 641
3 646 549 542
3 650 648 649
3 650 651 648
3 650 472 651
3 650 473 472
3 650 468 473
3 650 645 468
3 650 642 645
3 650 649 642
3 652 554 555
3 652 653 554
3 652 654 653
3 652 655 654
3 652 656 655
3 652 657 656
3 652 556 657
3 652 555 556
3 658 654 655
3 658 659 654
3 658 476 659
3 658 477 476
3 658 480 477
3 658 660 480
3 658 656 660
3 658 655 656
3 661 563 564
3 661 662 563
3 661 663 662
3 661 664 663
3 661 654 664
3 661 653 654
3 661 554 653
3 661 564 554
3 665 663 664
3 665 666 663
3 665 482 666
3 665 483 482
3 665 476 483
3 665 659 476
3 665 654 659
3 665 664 654
3 667 569 570
3 667 668 569
3 667 669 668
3 667 670 669
3 667 663 670
3 667 662 663
3 667 563 662
3 667 570 563
3 671 669 670
3 671 672 669
3 671 486 672
3 671 487 486
3 671 482 487
3 671 666 482
3 671 663 666
3 671 670 663
3 673 575 576
3 673 674 575
3 673 675 674
3 673 676 675
3 673 669 676
3 673 668 669
3 673 569 668
3 673 576 569
3 677 675 676
3 677 678 675
3 677 490 678
3 677 491 490
3 677 486 491
3 677 672 486
3 677 669 672
3 677 676 669
3 679 535 579
3 679 636 535
3 679 635 636
3 679 680 635
3 679 675 680
3 679 674 675
3 679 575 674
3 679 579 575
3 681 635 680
3 681 639 635
3 681 466 639
3 681 494 466
3 681 490 494
3 681 678 490
3 681 675 678
3 681 680 675
