ply
format ascii 1.0
element vertex 682
property float x
property float y
property float z
property float nx
property float ny
property float nz
property float u
property float v
element face 1248
property list uchar int vertex_indices
end_header
-0.252289 0.498745 2.896478 0.959947855 -0.23651179 -0.150207488 0.403492 0.546204
-0.254837 0.507075 2.885027 0.890192518 0.0130998899 -0.455396172 0.433635 0.513194
-0.251151 0.504916 2.897769 0.992990522 -0.04399958 -0.109698953 0.399463 0.519357
-0.255662 0.500722 2.884813 0.86670644 -0.185101375 -0.463203442 0.435953 0.537625
-0.25746 0.494819 2.885144 0.823159249 -0.33802433 -0.456232839 0.439153 0.561082
-0.254492 0.493079 2.895408 0.906206846 -0.383402897 -0.178301347 0.408968 0.571515
-0.255389 0.490117 2.905781 0.879207697 -0.465304074 0.102400897 0.376618 0.588584
-0.253309 0.495379 2.908266 0.929817155 -0.328506061 0.165903061 0.367763 0.560777
-0.252266 0.501239 2.910648 0.959934433 -0.145305212 0.239608595 0.361059 0.530544
-0.251404 0.51183 2.899369 0.98752217 0.142703204 -0.0666014952 0.396406 0.488317
-0.252576 0.507959 2.912922 0.952777239 0.0362991328 0.301492797 0.356013 0.494949
-0.254178 0.515121 2.914961 0.918213218 0.192602773 0.346104982 0.353454 0.456757
-0.252985 0.519058 2.901175 0.953515471 0.300104869 -0.027300443 0.394845 0.455258
-0.256931 0.521369 2.887534 0.843691356 0.361796293 -0.396595937 0.43086 0.455328
-0.255282 0.514102 2.88596 0.879297037 0.203099316 -0.430798548 0.431825 0.485204
-0.255836 0.526173 2.903082 0.895705061 0.444502511 0.0114000644 0.395306 0.422355
-0.257009 0.522303 2.916635 0.860700779 0.338700307 0.380100344 0.354217 0.418737
-0.260758 0.528718 2.91776 0.765044676 0.498629118 0.407523798 0.357649 0.383163
-0.259643 0.532395 2.904881 0.798522479 0.599316871 0.0564015877 0.397454 0.391399
-0.263329 0.534554 2.892139 0.694933476 0.657731684 -0.290613999 0.432329 0.39669
-0.259715 0.528446 2.889672 0.787124201 0.505715548 -0.353110857 0.431077 0.425244
-0.264093 0.536943 2.906364 0.649717601 0.752720391 0.106202877 0.400952 0.364181
-0.265113 0.533576 2.918153 0.619408656 0.662509259 0.421205886 0.363101 0.352311
-0.270087 0.53724 2.917937 0.457230718 0.786252822 0.415627923 0.370853 0.322286
-0.269194 0.540187 2.907615 0.483245891 0.862881943 0.148014056 0.405938 0.337066
-0.272148 0.541918 2.897403 0.403813803 0.907431016 -0.116203972 0.437515 0.346047
-0.267467 0.538919 2.8947 0.556618756 0.805127129 -0.204806901 0.43447 0.371408
-0.258908 0.491045 2.918326 0.781686825 -0.443892518 0.438092616 0.327601 0.583332
-0.260317 0.486303 2.914634 0.747900819 -0.567600622 0.344200377 0.341544 0.61415
-0.268257 0.482258 2.92078 0.530924503 -0.678031292 0.50832346 0.299997 0.658855
-0.267932 0.486448 2.925311 0.537524595 -0.568025991 0.623228516 0.277167 0.623749
-0.268241 0.491482 2.929268 0.526513874 -0.409910801 0.744819626 0.258679 0.581011
-0.258383 0.496504 2.921637 0.796138132 -0.273013076 0.540025865 0.316667 0.548725
-0.259014 0.502977 2.924488 0.780164453 -0.0984955122 0.617771852 0.308364 0.506817
-0.269388 0.497692 2.932518 0.496222417 -0.242510956 0.83363766 0.244394 0.526547
-0.27128 0.504677 2.934894 0.455124193 -0.090204795 0.885847088 0.237204 0.465791
-0.260727 0.510053 2.926726 0.743231447 0.0555023484 0.66672821 0.304055 0.460979
-0.263447 0.51732 2.9282 0.688019303 0.203005695 0.696719547 0.305108 0.414583
-0.273821 0.512036 2.93623 0.403481396 0.0593972613 0.9130579 0.240004 0.404175
-0.276733 0.518961 2.93638 0.329709901 0.232806991 0.914927476 0.25002 0.347507
-0.266875 0.523983 2.92875 0.600857538 0.369235358 0.70896789 0.310381 0.37115
-0.270713 0.529242 2.928213 0.472394029 0.546393094 0.691591258 0.318734 0.334202
-0.279737 0.524646 2.935198 0.22911159 0.424121455 0.876144321 0.26448 0.301597
-0.282891 0.52942 2.93286 0.125609706 0.583745108 0.802161985 0.283833 0.26187
-0.27499 0.533445 2.926745 0.332519495 0.687540308 0.645537846 0.330577 0.299677
-0.279225 0.482295 2.927874 0.23459291 -0.679479463 0.695178989 0.210621 0.69191
-0.288527 0.475846 2.921353 -0.0177999056 -0.851595482 0.523897221 0.191357 0.82272
-0.278194 0.478604 2.923035 0.261915636 -0.776846375 0.572634184 0.248232 0.733342
-0.290967 0.479161 2.925963 -0.0804043058 -0.763540889 0.640734312 0.136018 0.773941
-0.293405 0.483521 2.92998 -0.156102589 -0.625910381 0.764112673 0.089697 0.698623
-0.280578 0.486945 2.932067 0.192002165 -0.533206012 0.82390929 0.179489 0.634513
-0.282371 0.492918 2.935463 0.143803097 -0.372508022 0.916819744 0.15504 0.556764
-0.29587 0.489315 2.933267 -0.223006133 -0.470012926 0.854023486 0.052994 0.592225
-0.298217 0.496155 2.935656 -0.274296744 -0.32099619 0.90648924 0.036267 0.471557
-0.284486 0.49982 2.937891 0.0978035895 -0.222408163 0.970035601 0.143459 0.469059
-0.286804 0.507262 2.939176 0.0508026974 -0.0714037913 0.996152892 0.150931 0.381794
-0.300303 0.503658 2.936979 -0.316716943 -0.168409009 0.933449936 0.049874 0.353427
-0.301897 0.511001 2.937092 -0.356017422 0.0158007732 0.934345723 0.082499 0.251516
-0.28907 0.514424 2.939179 -0.00600026036 0.107904682 0.994143137 0.170939 0.304382
-0.291029 0.520492 2.93776 -0.0718971109 0.311987463 0.947361931 0.196967 0.24624
-0.302771 0.517358 2.935849 -0.385784808 0.229590959 0.893564812 0.122824 0.179507
-0.303059 0.52304 2.933431 -0.39681625 0.418517139 0.816933454 0.170974 0.129837
-0.292779 0.525784 2.935104 -0.130102647 0.488309935 0.862917556 0.229341 0.201495
-0.301338 0.477622 2.919527 -0.360807056 -0.805315748 0.470409199 0.782472 0.69578
-0.288527 0.475846 2.921353 -0.0177999056 -0.851595482 0.523897221 0.802766 0.828292
-0.290967 0.479161 2.925963 -0.0804043058 -0.763540889 0.640734312 0.857877 0.777609
-0.297652 0.474492 2.91569 -0.266903394 -0.888611299 0.373004743 0.745116 0.738626
-0.304324 0.474636 2.907166 -0.445413438 -0.884326681 0.139904221 0.692637 0.663641
-0.30892 0.477786 2.90984 -0.562127494 -0.80043915 0.208110179 0.715278 0.627697
-0.313017 0.482019 2.912366 -0.68821979 -0.666619169 0.286308233 0.733447 0.584079
-0.304734 0.48184 2.922949 -0.465615771 -0.672122765 0.5757195 0.812813 0.63695
-0.293405 0.483521 2.92998 -0.156102589 -0.625910381 0.764112673 0.902875 0.700505
-0.307793 0.487545 2.925868 -0.548803345 -0.518903163 0.655403995 0.836104 0.558568
-0.29587 0.489315 2.933267 -0.223006133 -0.470012926 0.854023486 0.937076 0.593326
-0.316509 0.487734 2.914731 -0.78351504 -0.513009847 0.35060673 0.747536 0.529305
-0.319212 0.494548 2.916801 -0.842838392 -0.364516604 0.395918034 0.754613 0.468795
-0.310346 0.494355 2.928129 -0.604602424 -0.370901487 0.704902827 0.846506 0.471397
-0.298217 0.496155 2.935656 -0.274296744 -0.32099619 0.90648924 0.951173 0.473648
-0.312225 0.501889 2.92958 -0.642828179 -0.218009557 0.73433219 0.838185 0.386201
-0.300303 0.503658 2.936979 -0.316716943 -0.168409009 0.933449936 0.935857 0.359045
-0.320941 0.502078 2.918444 -0.878056 -0.211413483 0.429327381 0.751749 0.407967
-0.321509 0.509499 2.919479 -0.890434937 -0.0251009849 0.454417829 0.741968 0.352146
-0.313226 0.509319 2.930061 -0.66651738 -0.031600824 0.744819421 0.818042 0.311328
-0.301897 0.511001 2.937092 -0.356017422 0.0158007732 0.934345723 0.90282 0.261572
-0.313142 0.515819 2.929413 -0.664323112 0.186806499 0.723725179 0.792981 0.255127
-0.302771 0.517358 2.935849 -0.385784808 0.229590959 0.893564812 0.863753 0.193282
-0.320724 0.515984 2.919726 -0.865044542 0.192909933 0.463123847 0.728291 0.306655
-0.318778 0.521836 2.919314 -0.803928866 0.387313907 0.451316205 0.709758 0.267041
-0.31214 0.521692 2.927796 -0.633553949 0.381932523 0.672857296 0.762038 0.210664
-0.303059 0.52304 2.933431 -0.39681625 0.418517139 0.816933454 0.817819 0.143991
-0.312293 0.479762 2.898175 -0.655832907 -0.747637514 -0.104505244 0.664507 0.587105
-0.306395 0.479338 2.886528 -0.501422048 -0.757133292 -0.418718411 0.615015 0.591533
-0.307293 0.476375 2.896902 -0.528917121 -0.837427108 -0.137704458 0.6505 0.618015
-0.311273 0.483129 2.886387 -0.625232372 -0.657134024 -0.421021799 0.624187 0.564109
-0.315588 0.487856 2.886746 -0.757938375 -0.508325737 -0.408820699 0.631141 0.534609
-0.316702 0.484179 2.899624 -0.791326676 -0.608520514 -0.0592019957 0.675473 0.552574
-0.320387 0.490006 2.901321 -0.891974503 -0.451887083 -0.013399617 0.683778 0.511032
-0.319215 0.493876 2.887769 -0.857063095 -0.346125481 -0.381628095 0.636091 0.499793
-0.321964 0.500796 2.889374 -0.917383904 -0.195296574 -0.346793916 0.638755 0.461947
-0.323157 0.496859 2.90316 -0.952675188 -0.3028239 0.0266020995 0.688267 0.465489
-0.32482 0.50435 2.905034 -0.986435054 -0.150905363 0.0646022957 0.687788 0.418954
-0.323647 0.50822 2.891481 -0.951666495 -0.0443030956 -0.303921236 0.638852 0.423356
-0.32408 0.515335 2.893858 -0.960534628 0.133904827 -0.243808789 0.636523 0.386782
-0.325194 0.511658 2.906736 -0.993723159 0.0323007528 0.107102496 0.683301 0.375087
-0.324098 0.51796 2.908062 -0.957810277 0.244102619 0.151701628 0.675767 0.337549
-0.323078 0.521326 2.896273 -0.927857097 0.335520647 -0.162810019 0.631911 0.354982
-0.320839 0.526514 2.89878 -0.857336823 0.508421837 -0.0805034577 0.624615 0.324534
-0.321732 0.523567 2.909102 -0.883016667 0.430608128 0.186703524 0.66448 0.302825
-0.305674 0.487463 2.876327 -0.477523356 -0.540326428 -0.692833887 0.588348 0.548814
-0.293527 0.487196 2.87153 -0.153104512 -0.544416044 -0.824724305 0.552221 0.563068
-0.301468 0.483152 2.877676 -0.37062249 -0.65323964 -0.660240065 0.582494 0.573978
-0.29665 0.49206 2.869342 -0.232904711 -0.417508444 -0.878317764 0.555757 0.539369
-0.299613 0.497612 2.868125 -0.324523623 -0.243617734 -0.91396653 0.558411 0.514757
-0.309471 0.492591 2.875756 -0.594503059 -0.379501953 -0.708903647 0.592705 0.522359
-0.312777 0.498859 2.876203 -0.684663399 -0.210619503 -0.697764613 0.595738 0.491633
-0.302403 0.504144 2.868173 -0.400424048 -0.0673040421 -0.913854883 0.560334 0.486475
-0.304863 0.51124 2.869442 -0.454316585 0.0875031944 -0.886532363 0.561361 0.456374
-0.315416 0.505864 2.87761 -0.742411968 -0.0582009382 -0.667410759 0.597362 0.458637
-0.31721 0.513203 2.879916 -0.778790491 0.0906988926 -0.620692421 0.59749 0.425371
-0.306836 0.518487 2.871886 -0.494397286 0.23489871 -0.836895405 0.56133 0.426301
-0.308105 0.525092 2.875238 -0.525206166 0.399804694 -0.751208819 0.560349 0.397859
-0.317963 0.52007 2.882868 -0.796004959 0.262301634 -0.545503398 0.596115 0.39386
-0.317478 0.525661 2.886213 -0.780441645 0.450424035 -0.433623139 0.593229 0.366129
-0.308454 0.530257 2.879229 -0.53751497 0.573915984 -0.617817206 0.558531 0.372647
-0.308035 0.534333 2.883857 -0.525683205 0.710977285 -0.467085077 0.555682 0.347158
-0.315936 0.530309 2.889972 -0.732287632 0.605989765 -0.310694752 0.588573 0.338686
-0.285357 0.496213 2.866779 0.0695006133 -0.304702689 -0.949908383 0.525184 0.533923
-0.28359 0.490851 2.869275 0.115297691 -0.443991109 -0.888582206 0.523483 0.55652
-0.273258 0.493609 2.870957 0.395496642 -0.370796852 -0.840292866 0.495561 0.554063
-0.273615 0.499347 2.86869 0.385006422 -0.222003703 -0.895814942 0.495684 0.531982
-0.274449 0.505573 2.867414 0.358091717 -0.0275993616 -0.933278414 0.495856 0.509458
-0.287276 0.50215 2.865326 0.00960011285 -0.119301402 -0.992811671 0.526505 0.510735
-0.28942 0.508918 2.865227 -0.0482011318 0.0634014887 -0.996823406 0.527493 0.484243
-0.275921 0.512521 2.867424 0.318705837 0.160202934 -0.93421711 0.495977 0.48377
-0.277925 0.519762 2.86868 0.275200259 0.318200299 -0.907200853 0.496055 0.456199
-0.291657 0.516097 2.866445 -0.0970031245 0.219707077 -0.970731268 0.528029 0.455973
-0.293853 0.523262 2.86894 -0.141506773 0.365117477 -0.920144044 0.527996 0.427453
-0.280354 0.526865 2.871137 0.225814817 0.462730363 -0.857256251 0.496094 0.428023
-0.282941 0.533052 2.874526 0.160507745 0.616729758 -0.770637184 0.496126 0.401046
-0.295768 0.529629 2.872438 -0.189198478 0.523595788 -0.830693317 0.527496 0.400315
-0.297161 0.53441 2.876666 -0.236198366 0.684795261 -0.689395229 0.52663 0.376192
-0.285419 0.537544 2.878577 0.0774035467 0.768435211 -0.635229107 0.496179 0.377072
-0.287867 0.540714 2.883286 -0.00330021688 0.876257585 -0.481831665 0.496186 0.353063
-0.298147 0.53797 2.881613 -0.269703406 0.80521017 -0.52810667 0.525273 0.351823
-0.263244 0.500886 2.875126 0.664944144 -0.178911877 -0.725148141 0.466312 0.53305
-0.264132 0.494963 2.87662 0.644176978 -0.332188128 -0.688975376 0.467734 0.555424
-0.263119 0.507255 2.874444 0.667210288 0.0196003022 -0.744611482 0.465333 0.510086
-0.263998 0.514291 2.874823 0.644374045 0.20979155 -0.73537038 0.464552 0.483889
-0.265797 0.521562 2.876206 0.605500236 0.368100144 -0.705600275 0.46413 0.455813
-0.268431 0.528635 2.878536 0.552027663 0.511725643 -0.65833299 0.46423 0.42721
-0.271611 0.534734 2.881557 0.471331198 0.663243902 -0.58133848 0.464812 0.399872
-0.275048 0.539084 2.885013 0.35622584 0.81005876 -0.465733783 0.465836 0.375591
-0.278786 0.542061 2.888921 0.233801332 0.911605192 -0.338101925 0.467266 0.351259
-0.282869 0.544045 2.893298 0.106004058 0.973837279 -0.201007695 0.469067 0.323767
-0.29036 0.542933 2.888649 -0.0811041015 0.945747828 -0.314615911 0.49608 0.325985
-0.277393 0.543926 2.900295 0.240217521 0.970370777 -0.0260018965 0.441483 0.317256
-0.282687 0.544567 2.903075 0.0144002558 0.995617682 0.0924016411 0.446948 0.283992
-0.286883 0.544658 2.897715 -0.0662027998 0.997742195 -0.0113004779 0.471541 0.291586
-0.292622 0.543806 2.894153 -0.177207377 0.980940837 -0.0797033181 0.495869 0.294205
-0.298841 0.540669 2.887269 -0.291420546 0.889862738 -0.351024748 0.5233 0.323944
-0.29912 0.542071 2.893096 -0.302689029 0.947765649 -0.100596354 0.520379 0.291398
-0.305369 0.539773 2.894514 -0.423123588 0.903150347 -0.072704053 0.545642 0.28425
-0.306998 0.53767 2.88912 -0.493498828 0.815298064 -0.302899281 0.55161 0.317882
-0.313516 0.53435 2.894165 -0.656596494 0.732596088 -0.179399042 0.581887 0.308038
-0.317561 0.531219 2.901432 -0.755244923 0.655438987 0.00220013087 0.61423 0.292011
-0.310363 0.537229 2.898379 -0.519911464 0.854218836 0.00150003308 0.572227 0.27385
-0.313462 0.534831 2.903946 -0.579217921 0.807824994 0.109203379 0.59979 0.257442
-0.318297 0.528787 2.909946 -0.775527869 0.594221354 0.213207662 0.648735 0.267401
-0.31586 0.52736 2.918371 -0.713150029 0.559739267 0.422029606 0.685407 0.228851
-0.314027 0.532968 2.91047 -0.590737294 0.771848728 0.235114843 0.627987 0.232271
-0.312159 0.531874 2.916925 -0.554089026 0.750785131 0.359592878 0.655647 0.19453
-0.310384 0.527241 2.925368 -0.578704112 0.555703948 0.596904241 0.724248 0.171006
-0.307964 0.531783 2.922286 -0.473591116 0.748985949 0.463391307 0.681599 0.140411
-0.302225 0.532635 2.925848 -0.362422505 0.765447532 0.531733019 0.706698 0.078102
-0.302893 0.528353 2.930017 -0.391690846 0.584386343 0.710683392 0.764175 0.103513
-0.294412 0.530617 2.931397 -0.181208232 0.639729064 0.746933934 0.268386 0.164276
-0.286256 0.533616 2.929546 0.0206003667 0.714812724 0.699012443 0.308527 0.223751
-0.302893 0.528353 2.930017 -0.391690846 0.584386343 0.710683392 0.227072 0.094944
-0.302225 0.532635 2.925848 -0.362422505 0.765447532 0.531733019 0.286459 0.075055
-0.295727 0.534369 2.926905 -0.237107717 0.798926001 0.552717988 0.311892 0.136024
-0.289477 0.536668 2.925487 -0.116606303 0.843245583 0.524728365 0.338298 0.189313
-0.279738 0.536936 2.924501 0.183900156 0.797000677 0.575300489 0.34632 0.263515
-0.284483 0.539211 2.921622 -0.0198001124 0.892505065 0.450602557 0.366653 0.227241
-0.281384 0.54161 2.916054 0.0394991695 0.938580267 0.342792793 0.395065 0.253522
-0.275693 0.540067 2.917235 0.282410126 0.874731364 0.39381412 0.381186 0.289195
-0.274956 0.542499 2.90872 0.3027939 0.935381157 0.18269632 0.412548 0.306421
-0.28082 0.543473 2.909531 0.0509021672 0.974841505 0.217009239 0.421643 0.271872
-0.286226 0.542706 2.909898 -0.250313171 0.938249367 0.238812565 0.434082 0.233046
-0.287515 0.543461 2.905442 -0.253306031 0.941022406 0.224305341 0.454484 0.245209
-0.286616 0.54142 2.914402 -0.250398112 0.934392955 0.253398089 0.413453 0.215753
-0.29081 0.539919 2.912602 -0.539631977 0.831849293 0.129707686 0.434867 0.179494
-0.290575 0.540697 2.909877 -0.552002556 0.799303701 0.2375011 0.44924 0.193824
-0.291354 0.541154 2.907181 -0.518084691 0.782976863 0.344289826 0.46409 0.204524
-0.288756 0.539764 2.918246 -0.258295105 0.928982396 0.265094976 0.39227 0.192382
-0.292203 0.538008 2.920914 -0.268595433 0.9232843 0.274595331 0.372883 0.160627
-0.294191 0.537854 2.916543 -0.405793854 0.913586164 -0.0262996017 0.408995 0.137995
-0.292105 0.538917 2.914928 -0.490707388 0.870613107 0.0352005299 0.420742 0.161308
-0.296517 0.536421 2.921893 -0.282716199 0.918452624 0.276615849 0.357644 0.118183
-0.301003 0.535224 2.921163 -0.297209713 0.914229877 0.275409001 0.34448 0.070394
-0.299516 0.536169 2.916693 -0.194994503 0.980272367 -0.0322990895 0.396766 0.075367
-0.296802 0.536894 2.917135 -0.302609145 0.951628759 -0.0532016078 0.401754 0.108281
-0.304966 0.534635 2.918704 -0.309308368 0.912824697 0.266607213 0.636076 0.123139
-0.307862 0.534698 2.915003 -0.319505486 0.912515668 0.255404385 0.620886 0.166525
-0.303667 0.535852 2.912966 -0.0307017129 0.992855393 0.115306433 0.584819 0.144122
-0.301914 0.535814 2.915206 -0.0978016211 0.994916491 0.0240003978 0.592174 0.11424
-0.299516 0.536169 2.916693 -0.194994503 0.980272367 -0.0322990895 0.597233 0.081132
-0.301003 0.535224 2.921163 -0.297209713 0.914229877 0.275409001 0.649262 0.074015
-0.309151 0.535453 2.910547 -0.32250061 0.91540173 0.240900455 0.601689 0.198431
-0.308761 0.536739 2.906043 -0.322416402 0.919146758 0.226311513 0.580329 0.220853
-0.304211 0.537087 2.907544 -0.00910061873 0.943964177 0.329922431 0.55824 0.185023
-0.304446 0.536308 2.91027 0.00360002905 0.975107869 0.221701789 0.572873 0.167551
-0.306622 0.538395 2.9022 -0.314523815 0.924670014 0.21461625 0.558646 0.235787
-0.303174 0.540151 2.899531 -0.304218909 0.930257822 0.205112749 0.537107 0.245691
-0.30083 0.539151 2.903604 -0.14300453 0.862227311 0.485915392 0.527035 0.205382
-0.302916 0.538089 2.905219 -0.0575990493 0.903785083 0.424093 0.542823 0.197034
-0.29886 0.541738 2.898552 -0.290099034 0.935196886 0.203099324 0.516174 0.253026
-0.294374 0.542936 2.899282 -0.275602985 0.939310173 0.204302213 0.495563 0.256092
-0.295505 0.540836 2.903453 -0.353807023 0.795515791 0.491909765 0.495515 0.214624
-0.298219 0.540111 2.903012 -0.245811163 0.822737361 0.512523274 0.511288 0.211862
-0.290412 0.543524 2.901741 -0.263501169 0.940804172 0.213200946 0.474989 0.253188
-0.293107 0.541192 2.904941 -0.450506861 0.779511872 0.435206628 0.479649 0.211817
-0.294619 0.538212 2.906878 -0.57497469 0.564775139 0.591973942 0.48576 0.170717
-0.295902 0.538021 2.906082 -0.390915023 0.59432284 0.70282701 0.496077 0.17278
-0.29368 0.538191 2.908077 -0.706351583 0.570141636 0.419530637 0.475766 0.165552
-0.294908 0.535887 2.908476 -0.623113992 0.679215252 0.387808708 0.488477 0.127436
-0.295359 0.535897 2.9079 -0.519631366 0.677440892 0.520631426 0.492595 0.129753
-0.295976 0.535805 2.907517 -0.377223049 0.698042652 0.608637189 0.496942 0.130748
-0.297355 0.537633 2.905845 -0.183904218 0.647414849 0.739616963 0.506322 0.170939
-0.296674 0.535619 2.907403 -0.216604028 0.741513789 0.635011808 0.501316 0.130136
-0.297345 0.535372 2.907556 -0.0618017252 0.797822272 0.599716741 0.505619 0.128338
-0.298753 0.537119 2.906162 0.0137004183 0.722322053 0.691421109 0.516454 0.166502
-0.299869 0.536551 2.907027 0.175405068 0.802123178 0.570816494 0.526432 0.16078
-0.300562 0.536014 2.908272 0.270812066 0.879239175 0.391917462 0.535916 0.152727
-0.297882 0.535099 2.907971 0.0617011393 0.861315904 0.504309312 0.509758 0.125774
-0.298215 0.534841 2.908569 0.13850402 0.920126707 0.366310632 0.513476 0.122199
-0.300689 0.535598 2.90973 0.29241345 0.93834316 0.184408482 0.544568 0.141301
-0.300271 0.535353 2.911174 0.229405508 0.973123365 -0.0201004826 0.551141 0.12661
-0.298276 0.534641 2.90927 0.152406705 0.966842537 0.204909015 0.516518 0.117366
-0.298075 0.534523 2.909964 0.106301617 0.993315108 0.0450006845 0.518657 0.111542
-0.299333 0.535333 2.912373 0.0987002102 0.976202079 -0.193100411 0.554388 0.108762
-0.297624 0.534514 2.91054 0.00229991263 0.996162157 -0.0874966761 0.519662 0.104994
-0.297007 0.534605 2.910923 -0.139697427 0.974482055 -0.175696765 0.5201 0.098084
-0.298049 0.535523 2.913169 -0.0860060735 0.948967014 -0.303421427 0.555974 0.089336
-0.296596 0.535911 2.913406 -0.292294631 0.893583585 -0.340693742 0.440331 0.103845
-0.295199 0.536425 2.913089 -0.490732166 0.820953811 -0.291919134 0.44335 0.121717
-0.298049 0.535523 2.913169 -0.0860060735 0.948967014 -0.303421427 0.43895 0.084375
-0.297007 0.534605 2.910923 -0.139697427 0.974482055 -0.175696765 0.476083 0.095401
-0.296309 0.534791 2.911036 -0.300609863 0.932130584 -0.201906625 0.476142 0.102143
-0.295638 0.535038 2.910884 -0.455091276 0.874683232 -0.166796803 0.476827 0.108617
-0.294082 0.536994 2.912224 -0.651613811 0.738815659 -0.171903644 0.449645 0.136391
-0.295101 0.535312 2.910469 -0.578896611 0.812295244 -0.0710995837 0.478763 0.114551
-0.294768 0.535569 2.90987 -0.6553133 0.75241527 0.0666013517 0.481551 0.119767
-0.293389 0.53753 2.910979 -0.747653082 0.664047146 0.00750053252 0.457824 0.148351
-0.293263 0.537947 2.90952 -0.768598655 0.602698945 0.214499625 0.466492 0.158084
-0.294707 0.53577 2.909169 -0.669542943 0.706845335 0.228214637 0.484792 0.124085
-0.257437 0.48768 2.894474 0.820092627 -0.534595194 -0.204098165 0.416366 0.597949
-0.258191 0.48519 2.903196 0.797717973 -0.60231357 0.0294006624 0.38812 0.616905
-0.259933 0.489143 2.885844 0.751109212 -0.49650609 -0.435105337 0.443607 0.586154
-0.263348 0.484408 2.887121 0.581013395 -0.724516704 -0.370808549 0.450496 0.614915
-0.261398 0.483265 2.893865 0.62161964 -0.747923631 -0.232807356 0.427201 0.627025
-0.261987 0.481319 2.900681 0.608931023 -0.787740132 -0.0931047433 0.403975 0.646281
-0.262334 0.481983 2.910639 0.688446837 -0.687746789 0.230315669 0.358872 0.644692
-0.265225 0.478813 2.906498 0.54312697 -0.839241674 0.0262013011 0.381341 0.674075
-0.270442 0.476155 2.910536 0.435826333 -0.893453984 0.108606562 0.359853 0.716601
-0.269011 0.478582 2.915807 0.508023969 -0.779236765 0.367017316 0.327308 0.69042
-0.277366 0.475509 2.917703 0.284506949 -0.861721048 0.420110261 0.292118 0.763198
-0.286054 0.47319 2.916289 0.051798855 -0.923579584 0.379891603 0.255115 0.849501
-0.276972 0.473754 2.912018 0.302289926 -0.942968576 0.139395355 0.340063 0.780056
-0.283761 0.471942 2.910913 0.163104943 -0.979729691 0.116303525 0.321123 0.853974
-0.293727 0.472052 2.911527 -0.155202651 -0.954616305 0.254204342 0.700783 0.769058
-0.286054 0.47319 2.916289 0.051798855 -0.923579584 0.379891603 0.738222 0.856204
-0.283761 0.471942 2.910913 0.163104943 -0.979729691 0.116303525 0.67108 0.860731
-0.289757 0.471052 2.907192 0.0400991433 -0.99837867 0.0403991369 0.652171 0.785721
-0.29414 0.471147 2.901591 -0.0493000804 -0.996001623 -0.0745001214 0.632322 0.721315
-0.299336 0.472173 2.90436 -0.303803747 -0.950811728 0.0605007463 0.665136 0.695395
-0.301832 0.473636 2.89573 -0.373023298 -0.912056964 -0.170310637 0.633071 0.648695
-0.301078 0.476126 2.887007 -0.350396293 -0.84499106 -0.403995726 0.603409 0.62012
-0.296091 0.47229 2.894847 -0.0897011729 -0.973012722 -0.21260278 0.610591 0.678116
-0.295501 0.474236 2.888031 -0.0772025489 -0.932730795 -0.352211628 0.587703 0.649906
-0.296935 0.479333 2.879565 -0.241401664 -0.758905233 -0.60480417 0.574969 0.600832
-0.290258 0.482734 2.874397 -0.0606996158 -0.668095771 -0.741595306 0.547652 0.588612
-0.292264 0.476742 2.882215 -0.0113004004 -0.88173124 -0.47161671 0.564386 0.630465
-0.287046 0.4794 2.878176 0.0959033078 -0.827028525 -0.553919105 0.541123 0.617881
-0.281903 0.485807 2.872501 0.162605209 -0.584918738 -0.794625456 0.521356 0.581242
-0.280517 0.481801 2.876694 0.22960101 -0.778003423 -0.584802573 0.518403 0.610243
-0.273728 0.483613 2.877799 0.368532561 -0.74076545 -0.561649624 0.495912 0.607239
-0.273215 0.488126 2.873914 0.395488741 -0.523785088 -0.75447852 0.495585 0.578422
-0.265542 0.489264 2.878676 0.602246134 -0.492037692 -0.628648156 0.469841 0.579853
-0.267732 0.484503 2.881521 0.491695462 -0.72259333 -0.485895515 0.473338 0.608558
-0.270957 0.481392 2.885377 0.330895503 -0.897387805 -0.291896033 0.478929 0.643763
-0.267976 0.481327 2.889187 0.349421707 -0.897455752 -0.269216724 0.461003 0.649436
-0.275036 0.480786 2.882846 0.306518081 -0.900753132 -0.307718151 0.496693 0.642694
-0.276493 0.479434 2.887464 0.238811155 -0.966745158 -0.0915042743 0.497386 0.675172
-0.274063 0.479795 2.888972 0.184799833 -0.975099118 -0.122599889 0.484463 0.676001
-0.272287 0.479756 2.891241 0.14770188 -0.973712396 -0.173402207 0.471457 0.680723
-0.279653 0.479554 2.882095 0.278604819 -0.908415711 -0.311705391 0.514223 0.645677
-0.284094 0.477921 2.883102 0.251510274 -0.918137507 -0.306212509 0.531712 0.652754
-0.28189 0.477727 2.887617 0.35581374 -0.929735902 -0.0948036609 0.522309 0.684011
-0.279244 0.4787 2.887017 0.298615063 -0.951047972 -0.0796040153 0.509973 0.67792
-0.287643 0.476113 2.885849 0.230507391 -0.929129793 -0.28910927 0.549355 0.663966
-0.289845 0.474408 2.889805 0.216592846 -0.93946897 -0.265491231 0.566233 0.680929
-0.285316 0.475635 2.89161 0.430088102 -0.884375534 -0.181394982 0.545387 0.706747
-0.284004 0.47665 2.889253 0.403200871 -0.906001957 -0.128800278 0.53448 0.693207
-0.290246 0.473085 2.894441 0.214793067 -0.947369419 -0.237392337 0.581428 0.705253
-0.288919 0.472307 2.899028 0.222205785 -0.952224791 -0.209505455 0.593742 0.739757
-0.284764 0.474383 2.897105 0.418120969 -0.857242992 -0.300515071 0.55913 0.750575
-0.285554 0.474846 2.894372 0.437325274 -0.866350068 -0.24121394 0.553931 0.725867
-0.285938 0.472243 2.902838 0.240712458 -0.952449295 -0.186809669 0.601977 0.787259
-0.281859 0.472848 2.905369 0.26510925 -0.948933109 -0.171005967 0.608173 0.841259
-0.280558 0.474705 2.900882 0.326910623 -0.864228084 -0.382412427 0.558704 0.813975
-0.282988 0.474345 2.899374 0.380920168 -0.855345288 -0.35111859 0.56 0.780876
-0.277242 0.474081 2.90612 0.293118216 -0.941358503 -0.167110385 0.38985 0.782494
-0.281859 0.472848 2.905369 0.26510925 -0.948933109 -0.171005967 0.383214 0.835829
-0.272801 0.475714 2.905113 0.32010848 -0.931524676 -0.172604572 0.398382 0.735556
-0.275162 0.476413 2.900729 0.210002284 -0.901209801 -0.379104123 0.433046 0.747108
-0.277807 0.47544 2.901329 0.26700692 -0.879422791 -0.394110213 0.431652 0.777324
-0.280558 0.474705 2.900882 0.326910623 -0.864228084 -0.382412427 0.432267 0.810341
-0.269252 0.477521 2.902366 0.341095943 -0.920689048 -0.189697744 0.410708 0.701415
-0.26705 0.479226 2.89841 0.355010068 -0.910225814 -0.213206047 0.425889 0.677256
-0.271736 0.478505 2.896736 0.135698487 -0.946589446 -0.292496739 0.447209 0.703377
-0.273048 0.477489 2.899093 0.162504338 -0.924424678 -0.34500921 0.438457 0.722495
-0.266649 0.48055 2.893774 0.356816778 -0.902442434 -0.241411351 0.442988 0.660265
-0.271497 0.479293 2.893974 0.12839797 -0.964084758 -0.232496324 0.458625 0.68965
-0.274247 0.479255 2.894242 -0.107506824 -0.971661673 -0.210513362 0.469005 0.707162
-0.274401 0.478749 2.896014 -0.0934005791 -0.929805765 -0.356002207 0.461283 0.71819
-0.274755 0.479553 2.892487 -0.0642995107 -0.995692423 -0.0667994917 0.478191 0.699778
-0.276207 0.479786 2.893256 -0.0502994444 -0.995988999 -0.0739991827 0.483229 0.712747
-0.275784 0.479601 2.894475 -0.0932065074 -0.972767916 -0.212214816 0.476447 0.71793
-0.275961 0.479227 2.89571 -0.0782976742 -0.932572298 -0.352389532 0.471697 0.726798
-0.275243 0.478097 2.897528 -0.0255011101 -0.876338148 -0.481020939 0.456075 0.733094
-0.276492 0.478778 2.896812 -0.0141010053 -0.880662785 -0.473533759 0.467792 0.737559
-0.277492 0.478292 2.897494 0.0953058887 -0.82655107 -0.554734275 0.467527 0.750451
-0.2766 0.477406 2.898578 0.0869052923 -0.819649914 -0.566234482 0.453992 0.751082
-0.278299 0.476781 2.898963 0.225993165 -0.767976773 -0.599281875 0.455644 0.771359
-0.280065 0.47631 2.898676 0.370922165 -0.729843613 -0.574234314 0.459165 0.792781
-0.278666 0.477841 2.897834 0.228904292 -0.77601455 -0.58771102 0.469089 0.76482
-0.279902 0.47753 2.897562 0.368596274 -0.740092518 -0.562494313 0.473692 0.778161
-0.281625 0.476078 2.897708 0.499735255 -0.710150099 -0.495934987 0.536036 0.773777
-0.280065 0.47631 2.898676 0.370922165 -0.729843613 -0.574234314 0.531875 0.795066
-0.279902 0.47753 2.897562 0.368596274 -0.740092518 -0.562494313 0.517732 0.779455
-0.281032 0.477341 2.896941 0.493240285 -0.720158818 -0.487939852 0.522751 0.766307
-0.281781 0.477386 2.895875 0.581836677 -0.723745623 -0.371023388 0.524736 0.752061
-0.282765 0.476103 2.896251 0.592373542 -0.71286816 -0.375383234 0.53822 0.753619
-0.283272 0.4764 2.894497 0.635415479 -0.736617944 -0.231605642 0.536449 0.735721
-0.283119 0.476907 2.892724 0.621417993 -0.778722548 -0.086202496 0.531554 0.720922
-0.282204 0.47757 2.894656 0.624338951 -0.745746525 -0.232514506 0.524784 0.739376
-0.282027 0.477945 2.89342 0.60969658 -0.787195584 -0.09269948 0.521191 0.728723
-0.282277 0.477559 2.891211 0.553403107 -0.832004672 0.0389002184 0.524365 0.710058
-0.28092 0.47825 2.89016 0.440999954 -0.888899907 0.123999987 0.515809 0.702433
-0.281496 0.478394 2.892318 0.54520666 -0.837810234 0.0287003506 0.516868 0.719973
-0.280497 0.47888 2.891637 0.436099649 -0.893199281 0.109599912 0.510505 0.714518
-0.279221 0.478875 2.889775 0.301901795 -0.94030559 0.157100934 0.506812 0.69735
-0.279322 0.479331 2.891297 0.302192219 -0.942475732 0.14289632 0.504189 0.709903
-0.278086 0.479642 2.891568 0.162809827 -0.979659129 0.11730708 0.497159 0.708938
-0.277455 0.479346 2.890062 0.157005755 -0.978735876 0.132004839 0.497448 0.695058
-0.275895 0.479577 2.89103 0.0281017296 -0.998161434 0.0537033053 0.48779 0.695805
-0.276956 0.479831 2.89219 0.0377983178 -0.998355569 0.043098082 0.489979 0.708862
-0.277751 0.479646 2.89309 0.203302762 -0.968513157 -0.143701952 0.492099 0.720859
-0.277474 0.479527 2.89388 0.203807945 -0.958237353 -0.20060782 0.488595 0.725777
-0.278551 0.479445 2.892912 0.258708618 -0.954031779 -0.15130504 0.496802 0.723394
-0.279072 0.478839 2.894631 0.2866006 -0.927501943 -0.240000503 0.496124 0.752784
-0.279285 0.479322 2.892511 0.297004517 -0.94871443 -0.108301647 0.501554 0.721513
-0.279934 0.479007 2.892951 0.329210137 -0.931728688 -0.15330472 0.504694 0.726761
-0.280695 0.478714 2.893173 0.383200337 -0.911600802 -0.148800131 0.509845 0.728406
-0.280812 0.478471 2.893974 0.373905455 -0.904413196 -0.205502998 0.510753 0.735421
-0.281154 0.47818 2.89469 0.411309224 -0.87891971 -0.241505416 0.51474 0.741394
-0.280671 0.47815 2.895382 0.366694437 -0.888086528 -0.277195795 0.512404 0.749072
-0.280394 0.478031 2.896171 0.364782589 -0.869858483 -0.33208415 0.512811 0.75881
-0.279593 0.478233 2.89635 0.311824584 -0.892270345 -0.326525743 0.50632 0.762067
-0.27886 0.478356 2.89675 0.271118148 -0.889659551 -0.367424594 0.479246 0.757928
-0.279593 0.478233 2.89635 0.311824584 -0.892270345 -0.326525743 0.485629 0.761489
-0.27821 0.47867 2.896311 0.241319766 -0.914574911 -0.324526581 0.47996 0.74819
-0.27745 0.478963 2.896088 0.184899088 -0.926795431 -0.326898388 0.477842 0.740233
-0.277332 0.479206 2.895288 0.196597156 -0.941886376 -0.27239606 0.482038 0.734303
-0.27699 0.479497 2.894572 0.156805403 -0.959433058 -0.234308073 0.483263 0.727088
-0.295324 0.53548 2.909165 0.341990833 0.923075257 0.175995283 0.068707 0.884289
-0.294768 0.535569 2.90987 -0.6553133 0.75241527 0.0666013517 0.069636 0.879322
-0.294707 0.53577 2.909169 -0.669542943 0.706845335 0.228214637 0.067744 0.880142
-0.295362 0.535352 2.909614 0.314906079 0.861316628 0.398707697 0.070601 0.883481
-0.295672 0.536354 2.909873 0.917838307 0.194008097 0.346314454 0.072076 0.889725
-0.295633 0.536482 2.909425 0.953087863 0.30149616 -0.0268996574 0.070197 0.890541
-0.295761 0.536557 2.908981 0.843278838 0.363090888 -0.396290055 0.068327 0.891373
-0.295452 0.535555 2.908722 0.270708843 0.961731415 -0.0423013818 0.066822 0.885094
-0.294908 0.535887 2.908476 -0.623113992 0.679215252 0.387808708 0.065863 0.880959
-0.295575 0.535187 2.909997 0.215801522 0.776505478 0.592004177 0.072507 0.882674
-0.295638 0.535038 2.910884 -0.455091276 0.874683232 -0.166796803 0.073449 0.877687
-0.295101 0.535312 2.910469 -0.578896611 0.812295244 -0.0710995837 0.071539 0.878503
-0.295919 0.535012 2.910262 0.0394018113 0.693131864 0.719733087 0.074419 0.881869
-0.296228 0.536014 2.910521 0.454503777 -0.0888007379 0.886307365 0.075866 0.888152
-0.295885 0.536189 2.910256 0.742795595 0.0568996626 0.667096044 0.073965 0.888928
-0.296348 0.534854 2.91036 -0.171098318 0.609894005 0.773792394 0.076337 0.881067
-0.297007 0.534605 2.910923 -0.139697427 0.974482055 -0.175696765 0.07728 0.876064
-0.296309 0.534791 2.911036 -0.300609863 0.932130584 -0.201906625 0.075363 0.876874
-0.296795 0.534735 2.910287 -0.393714861 0.556120991 0.731927627 0.078257 0.880266
-0.297104 0.535737 2.910546 -0.274505213 -0.319606069 0.906917223 0.079696 0.886653
-0.296658 0.535856 2.910619 0.0973998091 -0.220999567 0.970398098 0.077778 0.887397
-0.297189 0.534677 2.910042 -0.592124556 0.520821599 0.614925501 0.049916 0.891921
-0.298075 0.534523 2.909964 0.106301617 0.993315108 0.0450006845 0.050929 0.887044
-0.297624 0.534514 2.91054 0.00229991263 0.996162157 -0.0874966761 0.049037 0.887762
-0.297478 0.534683 2.909674 -0.73161359 0.530209849 0.42850796 0.051818 0.891199
-0.297787 0.535685 2.909933 -0.843312253 -0.363105276 0.396205757 0.053177 0.897712
-0.297499 0.535678 2.910301 -0.604935586 -0.369521738 0.705341493 0.051249 0.898395
-0.297104 0.535737 2.910546 -0.274505213 -0.319606069 0.906917223 0.049321 0.899069
-0.296795 0.534735 2.910287 -0.393714861 0.556120991 0.731927627 0.04801 0.89264
-0.297007 0.534605 2.910923 -0.139697427 0.974482055 -0.175696765 0.047141 0.88848
-0.297606 0.534758 2.90923 -0.800693486 0.561695431 0.208298306 0.053714 0.89047
-0.298215 0.534841 2.908569 0.13850402 0.920126707 0.366310632 0.054691 0.885594
-0.298276 0.534641 2.90927 0.152406705 0.966842537 0.204909015 0.052814 0.886322
-0.297567 0.534886 2.908782 -0.775914719 0.630711965 -0.012600239 0.055602 0.889733
-0.297877 0.535888 2.909041 -0.917824318 -0.193905138 -0.346409178 0.057028 0.89628
-0.297916 0.53576 2.909489 -0.953116594 -0.301405248 0.0269004683 0.055105 0.89701
-0.297354 0.535051 2.908399 -0.674799987 0.708199986 -0.207599996 0.057479 0.888987
-0.297345 0.535372 2.907556 -0.0618017252 0.797822272 0.599716741 0.058418 0.884106
-0.297882 0.535099 2.907971 0.0617011393 0.861315904 0.504309312 0.056558 0.884856
-0.297011 0.535226 2.908133 -0.500450816 0.798981129 -0.333433857 0.059349 0.88823
-0.297321 0.536228 2.908392 -0.45442039 0.0889039892 -0.886339771 0.060836 0.89472
-0.297664 0.536053 2.908658 -0.742795595 -0.0568996626 -0.667096044 0.058938 0.895515
-0.296581 0.535384 2.908036 -0.287503975 0.874912096 -0.389705388 0.061214 0.887462
-0.295976 0.535805 2.907517 -0.377223049 0.698042652 0.608637189 0.062132 0.882561
-0.296674 0.535619 2.907403 -0.216604028 0.741513789 0.635011808 0.060275 0.883341
-0.296135 0.535503 2.908108 -0.0675008927 0.935912378 -0.345704572 0.063079 0.886683
-0.296444 0.536505 2.908368 0.274613801 0.319716068 -0.906845575 0.064595 0.893061
-0.296891 0.536386 2.908295 -0.0971026426 0.221006015 -0.97042641 0.062721 0.893899
-0.29574 0.535562 2.908353 0.132999022 0.963892916 -0.230698304 0.064947 0.885893
-0.295359 0.535897 2.9079 -0.519631366 0.677440892 0.520631426 0.063994 0.881766
-0.29605 0.536563 2.908612 0.604935586 0.369521738 -0.705341493 0.066461 0.892216
-0.303893 0.54666 2.908941 -0.689183291 0.702282973 -0.178395675 0.081386 0.960917
-0.303796 0.546552 2.908543 -0.202114183 0.67504737 -0.709549791 0.080561 0.959413
-0.30404 0.546444 2.908815 -0.74004342 0.644537816 -0.192111271 0.08104 0.961571
-0.303645 0.546802 2.908815 -0.153501674 0.868509471 -0.47130514 0.081218 0.959093
-0.3036 0.546918 2.909205 -0.199595064 0.962276203 -0.184895428 0.081954 0.959167
-0.303902 0.546674 2.909245 -0.724419918 0.684618824 -0.0807022189 0.081895 0.961375
-0.304288 0.546151 2.909391 -0.810186097 0.583789982 -0.052799094 0.081931 0.965347
-0.304155 0.546266 2.908615 -0.7540015 0.583901162 -0.300900599 0.080494 0.961328
-0.304228 0.545925 2.908401 -0.481286808 0.104797128 -0.870276146 0.079321 0.960192
-0.304323 0.546042 2.908722 -0.811629946 0.53231964 -0.240608877 0.080309 0.962082
-0.303992 0.546253 2.90837 -0.31249747 0.393696813 -0.864493002 0.079887 0.959619
-0.304496 0.545805 2.908744 -0.85805838 0.437329755 -0.269218317 0.07968 0.962083
-0.304642 0.545405 2.908862 -0.807879214 -0.282392734 -0.51728669 0.078133 0.961597
-0.304586 0.545704 2.909021 -0.881040961 0.445120694 -0.160107444 0.079602 0.962943
-0.304461 0.545619 2.908547 -0.650744766 -0.134709267 -0.747251405 0.07865 0.960701
-0.304715 0.545547 2.909251 -0.913406736 0.388802867 -0.120500889 0.078891 0.963382
-0.304798 0.545297 2.909657 -0.972170417 -0.229893004 0.0450986277 0.077073 0.964123
-0.304675 0.545628 2.909537 -0.886872658 0.4605858 -0.0362988809 0.078955 0.964526
-0.304776 0.545271 2.909241 -0.915909425 -0.320603299 -0.241502485 0.077485 0.962607
-0.304684 0.545643 2.909841 -0.891998854 0.45159942 0.0198999744 0.078237 0.965907
-0.304602 0.545664 2.910319 -0.886688433 0.185797576 0.423394477 0.076348 0.968288
-0.304537 0.545859 2.909967 -0.846110708 0.532206735 0.0292003695 0.078938 0.966941
-0.304753 0.545414 2.910047 -0.957839306 -0.0630025854 0.280311503 0.07652 0.966139
-0.304421 0.546037 2.910167 -0.827240085 0.556926987 0.0742035956 0.085294 0.963125
-0.30417 0.54629 2.910461 -0.658510875 0.606610018 0.445407356 0.085502 0.960837
-0.304253 0.54626 2.910059 -0.798946764 0.600335139 0.0358020956 0.084164 0.962483
-0.304405 0.545963 2.910492 -0.778322085 0.404011464 0.480613638 0.086734 0.962057
-0.304602 0.545664 2.910319 -0.886688433 0.185797576 0.423394477 0.087674 0.963648
-0.304537 0.545859 2.909967 -0.846110708 0.532206735 0.0292003695 0.085064 0.964498
-0.304081 0.546498 2.910038 -0.760309542 0.647508126 0.0516006476 0.083746 0.961456
-0.303755 0.54681 2.909999 -0.40730491 0.880810618 0.24140291 0.083566 0.959524
-0.30399 0.546598 2.909761 -0.754732858 0.656028561 0.00220009578 0.082921 0.961586
-0.303937 0.546597 2.910315 -0.525908472 0.763112294 0.375606051 0.084544 0.959897
-0.303862 0.546756 2.909531 -0.705534424 0.707934541 -0.0324015809 0.082454 0.960899
-0.303622 0.546944 2.909621 -0.278110175 0.959135091 0.0521019062 0.082744 0.959126
-0.303329 0.546905 2.90975 0.21390932 0.963841996 0.158906924 0.083018 0.957881
-0.303226 0.546663 2.910285 0.239698136 0.818893633 0.521495945 0.08426 0.957345
-0.303045 0.546765 2.909868 0.391215498 0.898235584 0.200307935 0.083225 0.956985
-0.303486 0.54679 2.910173 0.039398707 0.8927707 0.448785271 0.083997 0.958217
-0.30326 0.546884 2.909298 0.345412535 0.919933385 -0.185506732 0.08209 0.95771
-0.302946 0.546727 2.909419 0.482828835 0.861451447 -0.157409401 0.08221 0.956739
-0.303713 0.546547 2.910498 -0.158609244 0.726842362 0.668238946 0.085052 0.958739
-0.303733 0.546104 2.91079 -0.137799955 0.354099885 0.924999699 0.08662 0.958476
-0.303468 0.546428 2.910606 0.0581005305 0.633805787 0.771307042 0.08536 0.95783
-0.303972 0.54622 2.910684 -0.35259026 0.475986851 0.805677743 0.08624 0.959539
-0.304224 0.545855 2.910691 -0.526899966 0.15539999 0.835599946 0.087619 0.960704
-0.304173 0.545381 2.910643 -0.459790876 -0.362692802 0.810583914 0.089777 0.960261
-0.303979 0.545736 2.910799 -0.322098745 0.00429998325 0.946696313 0.088135 0.959319
-0.304433 0.545508 2.910531 -0.649704801 -0.209301547 0.730805401 0.089094 0.962052
-0.304563 0.545235 2.910216 -0.69022323 -0.533617959 0.488716448 0.074992 0.965903
-0.304285 0.544914 2.909925 -0.497227465 -0.848846887 0.179509916 0.074478 0.963087
-0.304278 0.545095 2.910333 -0.517505105 -0.670906619 0.531105239 0.073746 0.965372
-0.3046 0.545071 2.909803 -0.636933676 -0.756439994 0.148707862 0.075588 0.963648
-0.304433 0.545508 2.910531 -0.649704801 -0.209301547 0.730805401 0.074423 0.968397
-0.304173 0.545381 2.910643 -0.459790876 -0.362692802 0.810583914 0.07303 0.967814
-0.304531 0.54505 2.909351 -0.520212451 -0.828519831 -0.20720496 0.076238 0.961874
-0.303994 0.544969 2.90904 -0.355813768 -0.774429967 -0.523120243 0.076078 0.959507
-0.304182 0.544873 2.909468 -0.438178815 -0.880457431 -0.181091244 0.075244 0.961119
-0.304374 0.545165 2.908928 -0.359199912 -0.762299813 -0.538399868 0.076951 0.960499
-0.304147 0.545408 2.908603 -0.174011982 -0.572739437 -0.801055159 0.07774 0.959445
-0.303485 0.545526 2.908531 -0.0417007529 -0.237804294 -0.970417521 0.078028 0.957427
-0.303749 0.545202 2.908716 -0.222510358 -0.546825455 -0.807137573 0.077019 0.958288
-0.303889 0.545734 2.908417 0.0246994955 -0.282394232 -0.958980413 0.078576 0.958671
-0.303636 0.546099 2.90841 0.210205289 0.0842021186 -0.974024507 0.079432 0.958137
-0.303047 0.546251 2.908683 0.355113262 0.464717355 -0.811130292 0.080123 0.956625
-0.303238 0.545894 2.908523 0.160909195 0.119106807 -0.97975599 0.079069 0.956887
-0.303427 0.546447 2.90857 0.345034013 0.451644523 -0.82278111 0.080304 0.957816
-0.303298 0.546719 2.908885 0.393038539 0.750173558 -0.531752141 0.081188 0.957681
-0.302948 0.546542 2.909003 0.476405257 0.7159079 -0.510405632 0.081173 0.956597
-0.296157 0.538179 2.909864 0.945585414 0.324994987 -0.0156997578 0.072744 0.901002
-0.296196 0.53805 2.910312 0.906300458 0.225100114 0.357700181 0.074568 0.900135
-0.296894 0.539923 2.910702 0.857464115 0.334324998 0.391129246 0.077288 0.911748
-0.296849 0.540044 2.910254 0.911687442 0.410494345 0.0178997534 0.075517 0.912639
-0.296968 0.540107 2.90981 0.82906906 0.426035488 -0.362130165 0.07375 0.913638
-0.296286 0.538254 2.90942 0.841703729 0.376001666 -0.387501717 0.070923 0.901939
-0.296409 0.537886 2.910695 0.730868672 0.0913960824 0.676371008 0.076405 0.899347
-0.296753 0.537711 2.91096 0.445631436 -0.0560039507 0.893463027 0.078264 0.898637
-0.297451 0.539577 2.911346 0.40160305 0.0575004367 0.914006942 0.080903 0.910322
-0.297109 0.539758 2.911083 0.678618523 0.210705751 0.703619206 0.079079 0.910976
-0.297182 0.537553 2.911058 0.0926020049 -0.195504233 0.976321138 0.080154 0.898003
-0.297629 0.537434 2.910985 -0.275012552 -0.305413939 0.911641608 0.082059 0.897408
-0.298312 0.539273 2.911364 -0.28920288 -0.253802528 0.923009193 0.084662 0.909305
-0.297874 0.539407 2.91144 0.0625986839 -0.105197788 0.992479133 0.082771 0.909784
-0.298023 0.537375 2.91074 -0.602712509 -0.368807655 0.707614687 0.053491 0.909501
-0.298312 0.537381 2.910372 -0.838512855 -0.375005749 0.39530606 0.055477 0.908942
-0.298973 0.539187 2.910747 -0.821331745 -0.421016273 0.384914877 0.058138 0.921138
-0.298696 0.539197 2.911117 -0.602116899 -0.366110275 0.709519913 0.056117 0.921632
-0.298312 0.539273 2.911364 -0.28920288 -0.253802528 0.923009193 0.054112 0.92209
-0.297629 0.537434 2.910985 -0.275012552 -0.305413939 0.911641608 0.051515 0.910034
-0.29844 0.537456 2.909928 -0.946032293 -0.323311036 0.0222007578 0.05748 0.908332
-0.298401 0.537584 2.90948 -0.908696247 -0.221899084 -0.35359854 0.059485 0.90764
-0.299047 0.539371 2.909854 -0.861742041 -0.333516271 -0.382318652 0.062254 0.919897
-0.299092 0.53925 2.910302 -0.91239943 -0.409299744 -0.000999999375 0.060192 0.920575
-0.298188 0.537749 2.909097 -0.732415842 -0.0867018754 -0.675314607 0.061475 0.906838
-0.297845 0.537924 2.908832 -0.444288695 0.0613984377 -0.893777258 0.063438 0.905942
-0.29849 0.539717 2.909211 -0.395902421 -0.0486002972 -0.917005608 0.066313 0.918092
-0.298832 0.539536 2.909474 -0.680320213 -0.206506135 -0.703220893 0.064303 0.919062
-0.297415 0.538082 2.908734 -0.0879003476 0.200200792 -0.975803859 0.065363 0.904969
-0.296969 0.538201 2.908807 0.282501281 0.3088014 -0.908204119 0.067249 0.903955
-0.297629 0.540022 2.909192 0.307422115 0.267619252 -0.913165691 0.070146 0.915869
-0.298067 0.539887 2.909116 -0.050000075 0.117600176 -0.991801488 0.068261 0.917009
-0.296574 0.53826 2.909052 0.608713876 0.370408444 -0.701615994 0.069097 0.902933
-0.297245 0.540097 2.90944 0.616427062 0.376016507 -0.691830372 0.071967 0.91473
-0.299399 0.544189 2.91023 0.604611775 0.795815499 0.0335006524 0.080999 0.938926
-0.299207 0.543861 2.91082 0.662034943 0.613832399 0.430022697 0.082419 0.936516
-0.29907 0.543903 2.910296 0.761017698 0.646015023 0.0593013791 0.080714 0.936849
-0.299537 0.544159 2.910726 0.505299803 0.771299699 0.386999849 0.082661 0.938704
-0.300164 0.544574 2.910594 0.469617085 0.78282848 0.408214851 0.082962 0.942024
-0.300026 0.544608 2.910141 0.568328241 0.820740784 0.0582028922 0.081395 0.942132
-0.300021 0.544529 2.909677 0.582625455 0.753132905 -0.305513348 0.079842 0.94235
-0.299416 0.544105 2.909728 0.603821696 0.722325954 -0.337112113 0.079346 0.939251
-0.299096 0.543825 2.909767 0.745213399 0.580010429 -0.329005916 0.079012 0.937256
-0.29982 0.54401 2.911137 0.322888909 0.657277423 0.680976609 0.084362 0.938556
-0.299892 0.543447 2.91154 0.20471344 0.308120229 0.929060995 0.085997 0.935965
-0.299499 0.543698 2.911253 0.467803993 0.495304227 0.732006248 0.084154 0.936229
-0.300195 0.543773 2.91141 0.0791995272 0.468897201 0.879694748 0.08616 0.938454
-0.300764 0.544195 2.91121 0.074504489 0.426625705 0.901354308 0.086295 0.942061
-0.300426 0.544427 2.910966 0.299432974 0.647171267 0.701077203 0.084586 0.94201
-0.300611 0.543478 2.911489 -0.19841173 0.222813173 0.954456429 0.088114 0.938369
-0.300749 0.542824 2.911506 -0.387130021 -0.171313285 0.905970256 0.090151 0.935443
-0.300331 0.543139 2.911623 -0.0942059333 0.0758047743 0.99266252 0.088027 0.935703
-0.301003 0.543173 2.911379 -0.471489651 -0.047698953 0.880580671 0.090145 0.938293
-0.301472 0.543615 2.911168 -0.427109939 -0.170803975 0.887920662 0.09 0.942251
-0.301132 0.543909 2.911276 -0.179994267 0.139895544 0.973668989 0.088119 0.942147
-0.301309 0.542905 2.911081 -0.692103838 -0.301301671 0.655903637 0.063522 0.948564
-0.301277 0.542359 2.910739 -0.763178665 -0.55405711 0.332534276 0.064521 0.944817
-0.301078 0.542552 2.911191 -0.625044536 -0.394528111 0.673547992 0.06257 0.946202
-0.301489 0.54271 2.910652 -0.815494964 -0.484297009 0.316898043 0.065376 0.947103
-0.30187 0.543172 2.91049 -0.717405287 -0.631904657 0.293302162 0.066894 0.950149
-0.301729 0.543358 2.910889 -0.619436978 -0.448326764 0.644438471 0.065243 0.951717
-0.301472 0.543615 2.911168 -0.427109939 -0.170803975 0.887920662 0.063599 0.953296
-0.301003 0.543173 2.911379 -0.471489651 -0.047698953 0.880580671 0.061656 0.950053
-0.300749 0.542824 2.911506 -0.387130021 -0.171313285 0.905970256 0.060594 0.947622
-0.301506 0.542626 2.91015 -0.819323953 -0.569016635 -0.0702020524 0.067205 0.945698
-0.301166 0.542323 2.909687 -0.677032451 -0.598328679 -0.428520539 0.068287 0.942273
-0.301303 0.542281 2.91021 -0.779066574 -0.624353353 -0.0569048627 0.066422 0.943506
-0.301368 0.542656 2.909654 -0.710736323 -0.549728095 -0.438922432 0.069005 0.944362
-0.301715 0.543116 2.909555 -0.595913998 -0.671115765 -0.441010359 0.070213 0.947146
-0.30186 0.543088 2.910018 -0.706987479 -0.702087566 -0.0850984929 0.068557 0.948604
-0.301085 0.542805 2.909243 -0.510096743 -0.433997229 -0.742595259 0.070772 0.943109
-0.300481 0.542737 2.908966 -0.212814263 -0.297619947 -0.930662375 0.071946 0.94008
-0.300874 0.542485 2.909253 -0.478218055 -0.484318286 -0.732627661 0.070126 0.941123
-0.30071 0.543043 2.90897 -0.250607998 -0.233407449 -0.939529986 0.072519 0.941992
-0.301113 0.543494 2.908935 -0.156602144 -0.315504319 -0.935912813 0.073457 0.944731
-0.301451 0.543262 2.909179 -0.401224554 -0.539633024 -0.740145295 0.071843 0.945841
-0.300294 0.543338 2.90889 0.0333014177 0.0246010473 -0.999142534 0.074258 0.941063
-0.299624 0.54336 2.908999 0.376505939 0.192403035 -0.906214296 0.075534 0.938399
-0.300042 0.543045 2.908883 0.0857023221 -0.0614016637 -0.994426944 0.073751 0.939171
-0.299902 0.543643 2.909001 0.298799086 0.305199066 -0.904197233 0.075979 0.940307
-0.300408 0.544076 2.90898 0.348797307 0.303797655 -0.886593156 0.076665 0.943185
-0.300746 0.54378 2.908869 0.107496606 -0.021699315 -0.993968621 0.075064 0.943855
-0.299596 0.543911 2.909299 0.498822555 0.551824951 -0.668330219 0.077674 0.939707
-0.299295 0.543632 2.909315 0.609989746 0.420092938 -0.671888706 0.077287 0.937767
-0.300157 0.544339 2.90927 0.511885701 0.57848384 -0.635082259 0.078262 0.942692
-0.29766 0.541553 2.910368 0.862955589 0.503032404 0.0476030665 0.07769 0.922417
-0.297724 0.541453 2.910814 0.787410244 0.451105869 0.420105466 0.079448 0.921597
-0.298468 0.542614 2.910803 0.773126832 0.463716094 0.432715018 0.081009 0.929106
-0.298377 0.54269 2.910346 0.859413128 0.507807757 0.0595009089 0.079253 0.929786
-0.298437 0.542671 2.909884 0.821482572 0.462690184 -0.333292929 0.077513 0.930507
-0.297751 0.541579 2.909922 0.809096201 0.477697757 -0.342298393 0.075943 0.923315
-0.298788 0.543438 2.910328 0.862841831 0.500824281 0.0684033163 0.080197 0.9342
-0.298907 0.543382 2.910825 0.772333234 0.458419726 0.439718922 0.081935 0.933698
-0.298828 0.543384 2.909826 0.834623403 0.447612551 -0.321009001 0.078469 0.934748
-0.297947 0.541289 2.911189 0.601527184 0.335615167 0.72493276 0.08124 0.92086
-0.298282 0.541089 2.911444 0.332024431 0.173012731 0.927268231 0.083068 0.920207
-0.299048 0.542227 2.911438 0.31620548 0.170102948 0.933316175 0.084656 0.927838
-0.298707 0.54245 2.911184 0.582649154 0.345429142 0.735662063 0.082809 0.928456
-0.299176 0.543216 2.911237 0.581835359 0.334920354 0.741145041 0.083708 0.933221
-0.299547 0.542972 2.91151 0.31980832 0.148803871 0.935724343 0.085564 0.932758
-0.298688 0.540884 2.911529 0.0109996519 -0.0184994146 0.999768363 0.084934 0.919639
-0.299098 0.540702 2.911444 -0.318804455 -0.215003005 0.923112901 0.086819 0.919113
-0.299836 0.541737 2.911417 -0.308005218 -0.265404496 0.913615477 0.088481 0.926679
-0.299445 0.541977 2.911515 0.0051000448 -0.0419003681 0.999108777 0.086555 0.92725
-0.299967 0.542684 2.911589 0.0179009772 -0.0759041433 0.99695442 0.087547 0.932301
-0.300373 0.542396 2.911479 -0.281107181 -0.310307927 0.908123198 0.089594 0.931847
-0.29945 0.540575 2.911188 -0.60409881 -0.386699238 0.696798627 0.058599 0.931182
-0.299694 0.540518 2.910812 -0.789176475 -0.500685075 0.355689397 0.060581 0.930551
-0.300372 0.541432 2.910753 -0.727355463 -0.601145839 0.331025242 0.06253 0.937389
-0.300159 0.541548 2.911145 -0.569635908 -0.463929245 0.678442767 0.060593 0.938273
-0.299836 0.541737 2.911417 -0.308005218 -0.265404496 0.913615477 0.058662 0.939158
-0.299098 0.540702 2.911444 -0.318804455 -0.215003005 0.923112901 0.056632 0.931791
-0.300698 0.542153 2.91118 -0.528027635 -0.516327023 0.674235287 0.061755 0.943025
-0.300902 0.541989 2.91075 -0.675120301 -0.658419799 0.332710005 0.063708 0.941862
-0.300373 0.542396 2.911479 -0.281107181 -0.310307927 0.908123198 0.05979 0.944213
-0.299785 0.540544 2.910366 -0.843017704 -0.536411265 -0.0398008358 0.062594 0.929876
-0.299721 0.540644 2.90992 -0.764923181 -0.490314859 -0.417712659 0.064618 0.929132
-0.300341 0.541489 2.909834 -0.661731781 -0.613529465 -0.430920695 0.066429 0.935633
-0.300431 0.541413 2.910291 -0.756023513 -0.651620266 -0.0618019221 0.064477 0.936509
-0.300941 0.541935 2.910248 -0.69952943 -0.712529977 -0.0544022888 0.065633 0.940748
-0.300823 0.541991 2.909751 -0.603917118 -0.676719182 -0.421111937 0.06754 0.939689
-0.299499 0.540808 2.909545 -0.576475541 -0.37308417 -0.726969155 0.066636 0.928294
-0.299163 0.541008 2.90929 -0.30560347 -0.202802303 -0.930310564 0.068618 0.927367
-0.299761 0.541876 2.909199 -0.210495199 -0.31959271 -0.923878927 0.0703 0.93388
-0.300102 0.541653 2.909453 -0.471135688 -0.496937642 -0.728755202 0.068379 0.93476
-0.300553 0.542157 2.909339 -0.412490593 -0.559387243 -0.718983604 0.069435 0.938688
-0.300183 0.5424 2.909066 -0.152202234 -0.37750554 -0.913413404 0.071308 0.937747
-0.298758 0.541214 2.909205 0.0145998915 -0.00129999034 -0.999892571 0.070534 0.926355
-0.298347 0.541395 2.909291 0.344118444 0.202410849 -0.91684914 0.072388 0.925311
-0.298973 0.542365 2.90922 0.39730656 0.128002113 -0.908715003 0.073987 0.932103
-0.299364 0.542126 2.909122 0.0905037026 -0.10120414 -0.990740532 0.072167 0.932982
-0.299762 0.542689 2.908987 0.143998488 -0.150998415 -0.977989731 0.073147 0.936866
-0.299356 0.542977 2.909098 0.439910125 0.0890020484 -0.893620567 0.074953 0.936065
-0.297996 0.541522 2.909546 0.625698042 0.372098835 -0.685597854 0.074183 0.924289
-0.29865 0.542555 2.909491 0.657591514 0.328895756 -0.677791253 0.075763 0.931278
-0.299031 0.543219 2.909396 0.68481171 0.302405171 -0.663011338 0.076723 0.935364
-0.301201 0.54547 2.910044 0.581441708 0.802757584 0.132309491 0.08225 0.948165
-0.301357 0.545409 2.910474 0.474319948 0.738231047 0.479620171 0.083628 0.948236
-0.30251 0.546217 2.910382 0.444499069 0.717498497 0.536298876 0.084245 0.954155
-0.302333 0.546308 2.909963 0.560709841 0.804014111 0.197903473 0.083058 0.953912
-0.302233 0.546253 2.909497 0.600829703 0.782538686 -0.163208068 0.08186 0.953711
-0.301147 0.545403 2.909584 0.611448013 0.757659494 -0.22821792 0.080874 0.948168
-0.30283 0.546652 2.909921 0.480509769 0.849717275 0.217004412 0.08331 0.956257
-0.303017 0.546553 2.910337 0.355525096 0.75735346 0.547738663 0.084399 0.956591
-0.302718 0.546606 2.909463 0.535224115 0.831837479 -0.146906619 0.082219 0.955987
-0.301608 0.545227 2.910817 0.303201013 0.573801917 0.760802541 0.085078 0.948396
-0.30191 0.544959 2.911032 0.0843999388 0.322499766 0.942799316 0.08664 0.948621
-0.303031 0.545687 2.9109 0.0572998333 0.267699221 0.961797201 0.086927 0.954868
-0.302756 0.545996 2.910708 0.271608631 0.534216975 0.800525437 0.085512 0.954478
-0.303263 0.54632 2.910657 0.1861981 0.564594238 0.804091794 0.08556 0.957016
-0.303529 0.545997 2.910841 -0.0139007522 0.284915417 0.958451863 0.086884 0.957536
-0.302218 0.544642 2.911072 -0.156812193 0.0101007854 0.987576787 0.088355 0.948887
-0.302489 0.544325 2.910945 -0.382115908 -0.31371306 0.869236187 0.090145 0.949172
-0.303503 0.544984 2.910768 -0.383714163 -0.3820141 0.840731032 0.090297 0.955788
-0.303292 0.545331 2.910917 -0.173903525 -0.0551011169 0.98321993 0.088558 0.955314
-0.303774 0.545628 2.91085 -0.220402935 -0.054000719 0.973912968 0.088466 0.958157
-0.303964 0.545271 2.910695 -0.397393266 -0.397293268 0.827185983 0.090176 0.958828
-0.302675 0.544059 2.910659 -0.548617005 -0.585718155 0.596618492 0.068365 0.957264
-0.302747 0.54387 2.910251 -0.622609336 -0.745811184 0.236903552 0.069698 0.955386
-0.303638 0.54451 2.910042 -0.587316947 -0.789222773 0.179405177 0.072427 0.960313
-0.303627 0.544702 2.910465 -0.530740131 -0.647348948 0.547041363 0.071403 0.9625
-0.303503 0.544984 2.910768 -0.383714163 -0.3820141 0.840731032 0.070393 0.9647
-0.302489 0.544325 2.910945 -0.382115908 -0.31371306 0.869236187 0.067046 0.95914
-0.304064 0.544983 2.910387 -0.505829994 -0.677140152 0.53443169 0.072873 0.96472
-0.304057 0.544792 2.909969 -0.534616301 -0.82812525 0.168505138 0.073723 0.962427
-0.303964 0.545271 2.910695 -0.397393266 -0.397293268 0.827185983 0.072037 0.967087
-0.302675 0.543787 2.909762 -0.602343753 -0.788857301 -0.122008862 0.071055 0.953505
-0.302493 0.543825 2.909289 -0.493081939 -0.737372991 -0.461683089 0.072429 0.951815
-0.303296 0.544488 2.909048 -0.475623484 -0.712535182 -0.51582547 0.074564 0.956287
-0.303512 0.544432 2.909533 -0.56772653 -0.804137578 -0.176208234 0.073477 0.958149
-0.303928 0.54473 2.909482 -0.5201864 -0.83037829 -0.199694779 0.074598 0.960283
-0.303715 0.544806 2.909023 -0.465595975 -0.694293998 -0.548795256 0.075532 0.958477
-0.302234 0.544 2.908931 -0.301701174 -0.581802263 -0.755302938 0.073807 0.950512
-0.301932 0.544267 2.908717 -0.0649013896 -0.334607164 -0.940120128 0.075188 0.949543
-0.302762 0.545006 2.908509 -0.0827988259 -0.243396549 -0.966386297 0.076864 0.954173
-0.303036 0.544697 2.908701 -0.303600774 -0.515501315 -0.801302043 0.0757 0.955004
-0.30346 0.545031 2.908689 -0.33611125 -0.451715119 -0.826427661 0.076555 0.957202
-0.303194 0.545354 2.908505 -0.148708558 -0.153108811 -0.976956221 0.077634 0.956364
-0.301624 0.544584 2.908677 0.191798483 -0.0166998679 -0.981292238 0.076567 0.948859
-0.301362 0.544909 2.908818 0.42651299 0.332810136 -0.841025614 0.077971 0.94843
-0.302302 0.54572 2.908662 0.409927847 0.41982852 -0.809755009 0.079255 0.953457
-0.3025 0.545362 2.908493 0.168197733 0.0813989028 -0.982386757 0.078035 0.953666
-0.302949 0.545723 2.908496 0.0786050226 0.17591124 -0.9812627 0.078736 0.955869
-0.302768 0.546088 2.908666 0.318817094 0.495726579 -0.807843314 0.079873 0.95568
-0.301202 0.545199 2.909148 0.566323007 0.6055246 -0.559122715 0.079427 0.948228
-0.302218 0.546037 2.90903 0.55719128 0.661089654 -0.502492136 0.080561 0.953516
-0.302694 0.5464 2.909016 0.485716007 0.71642361 -0.500816505 0.081054 0.955757
3 0 1 2
3 0 3 1
3 0 4 3
3 0 5 4
3 0 6 5
3 0 7 6
3 0 8 7
3 0 2 8
3 9 8 2
3 9 10 8
3 9 11 10
3 9 12 11
3 9 13 12
3 9 14 13
3 9 1 14
3 9 2 1
3 15 11 12
3 15 16 11
3 15 17 16
3 15 18 17
3 15 19 18
3 15 20 19
3 15 13 20
3 15 12 13
3 21 17 18
3 21 22 17
3 21 23 22
3 21 24 23
3 21 25 24
3 21 26 25
3 21 19 26
3 21 18 19
3 27 6 7
3 27 28 6
3 27 29 28
3 27 30 29
3 27 31 30
3 27 32 31
3 27 8 32
3 27 7 8
3 33 8 10
3 33 32 8
3 33 31 32
3 33 34 31
3 33 35 34
3 33 36 35
3 33 11 36
3 33 10 11
3 37 11 16
3 37 36 11
3 37 35 36
3 37 38 35
3 37 39 38
3 37 40 39
3 37 17 40
3 37 16 17
3 41 17 22
3 41 40 17
3 41 39 40
3 41 42 39
3 41 43 42
3 41 44 43
3 41 23 44
3 41 22 23
3 45 46 47
3 45 48 46
3 45 49 48
3 45 50 49
3 45 31 50
3 45 30 31
3 45 29 30
3 45 47 29
3 51 49 50
3 51 52 49
3 51 53 52
3 51 54 53
3 51 35 54
3 51 34 35
3 51 31 34
3 51 50 31
3 55 53 54
3 55 56 53
3 55 57 56
3 55 58 57
3 55 39 58
3 55 38 39
3 55 35 38
3 55 54 35
3 59 57 58
3 59 60 57
3 59 61 60
3 59 62 61
3 59 43 62
3 59 42 43
3 59 39 42
3 59 58 39
3 63 64 65
3 63 66 64
3 63 67 66
3 63 68 67
3 63 69 68
3 63 70 69
3 63 71 70
3 63 65 71
3 72 71 73
3 72 70 71
3 72 69 70
3 72 74 69
3 72 75 74
3 72 76 75
3 72 77 76
3 72 73 77
3 78 77 79
3 78 76 77
3 78 75 76
3 78 80 75
3 78 81 80
3 78 82 81
3 78 83 82
3 78 79 83
3 84 83 85
3 84 82 83
3 84 81 82
3 84 86 81
3 84 87 86
3 84 88 87
3 84 89 88
3 84 85 89
3 90 91 92
3 90 93 91
3 90 94 93
3 90 95 94
3 90 69 95
3 90 68 69
3 90 67 68
3 90 92 67
3 96 94 95
3 96 97 94
3 96 98 97
3 96 99 98
3 96 75 99
3 96 74 75
3 96 69 74
3 96 95 69
3 100 98 99
3 100 101 98
3 100 102 101
3 100 103 102
3 100 81 103
3 100 80 81
3 100 75 80
3 100 99 75
3 104 102 103
3 104 105 102
3 104 106 105
3 104 107 106
3 104 87 107
3 104 86 87
3 104 81 86
3 104 103 81
3 108 109 110
3 108 111 109
3 108 112 111
3 108 113 112
3 108 94 113
3 108 93 94
3 108 91 93
3 108 110 91
3 114 112 113
3 114 115 112
3 114 116 115
3 114 117 116
3 114 98 117
3 114 97 98
3 114 94 97
3 114 113 94
3 118 116 117
3 118 119 116
3 118 120 119
3 118 121 120
3 118 102 121
3 118 101 102
3 118 98 101
3 118 117 98
3 122 120 121
3 122 123 120
3 122 124 123
3 122 125 124
3 122 106 125
3 122 105 106
3 122 102 105
3 122 121 102
3 126 109 111
3 126 127 109
3 126 128 127
3 126 129 128
3 126 130 129
3 126 131 130
3 126 112 131
3 126 111 112
3 132 112 115
3 132 131 112
3 132 130 131
3 132 133 130
3 132 134 133
3 132 135 134
3 132 116 135
3 132 115 116
3 136 116 119
3 136 135 116
3 136 134 135
3 136 137 134
3 136 138 137
3 136 139 138
3 136 120 139
3 136 119 120
3 140 120 123
3 140 139 120
3 140 138 139
3 140 141 138
3 140 142 141
3 140 143 142
3 140 124 143
3 140 123 124
3 144 4 145
3 144 3 4
3 144 1 3
3 144 146 1
3 144 130 146
3 144 129 130
3 144 128 129
3 144 145 128
3 147 1 146
3 147 14 1
3 147 13 14
3 147 148 13
3 147 134 148
3 147 133 134
3 147 130 133
3 147 146 130
3 149 13 148
3 149 20 13
3 149 19 20
3 149 150 19
3 149 138 150
3 149 137 138
3 149 134 137
3 149 148 134
3 151 19 150
3 151 26 19
3 151 25 26
3 151 152 25
3 151 142 152
3 151 141 142
3 151 138 141
3 151 150 138
3 153 142 154
3 153 152 142
3 153 25 152
3 153 155 25
3 153 156 155
3 153 157 156
3 153 158 157
3 153 154 158
3 159 142 143
3 159 154 142
3 159 158 154
3 159 160 158
3 159 161 160
3 159 162 161
3 159 124 162
3 159 143 124
3 163 106 164
3 163 125 106
3 163 124 125
3 163 162 124
3 163 161 162
3 163 165 161
3 163 166 165
3 163 164 166
3 167 87 168
3 167 107 87
3 167 106 107
3 167 164 106
3 167 166 164
3 167 169 166
3 167 170 169
3 167 168 170
3 171 87 88
3 171 168 87
3 171 170 168
3 171 172 170
3 171 173 172
3 171 174 173
3 171 89 174
3 171 88 89
3 175 43 176
3 175 62 43
3 175 61 62
3 175 177 61
3 175 178 177
3 175 179 178
3 175 180 179
3 175 176 180
3 181 43 44
3 181 176 43
3 181 180 176
3 181 182 180
3 181 183 182
3 181 184 183
3 181 23 184
3 181 44 23
3 185 25 155
3 185 24 25
3 185 23 24
3 185 184 23
3 185 183 184
3 185 186 183
3 185 156 186
3 185 155 156
3 187 156 188
3 187 186 156
3 187 183 186
3 187 189 183
3 187 190 189
3 187 191 190
3 187 192 191
3 187 188 192
3 193 180 182
3 193 194 180
3 193 195 194
3 193 196 195
3 193 190 196
3 193 189 190
3 193 183 189
3 193 182 183
3 197 180 194
3 197 179 180
3 197 178 179
3 197 198 178
3 197 199 198
3 197 200 199
3 197 195 200
3 197 194 195
3 201 170 172
3 201 202 170
3 201 203 202
3 201 204 203
3 201 205 204
3 201 206 205
3 201 173 206
3 201 172 173
3 207 170 202
3 207 169 170
3 207 166 169
3 207 208 166
3 207 209 208
3 207 210 209
3 207 203 210
3 207 202 203
3 211 166 208
3 211 165 166
3 211 161 165
3 211 212 161
3 211 213 212
3 211 214 213
3 211 209 214
3 211 208 209
3 215 158 160
3 215 216 158
3 215 217 216
3 215 218 217
3 215 213 218
3 215 212 213
3 215 161 212
3 215 160 161
3 219 158 216
3 219 157 158
3 219 156 157
3 219 188 156
3 219 192 188
3 219 220 192
3 219 217 220
3 219 216 217
3 221 217 222
3 221 220 217
3 221 192 220
3 221 223 192
3 221 224 223
3 221 225 224
3 221 226 225
3 221 222 226
3 227 217 218
3 227 222 217
3 227 226 222
3 227 228 226
3 227 229 228
3 227 230 229
3 227 213 230
3 227 218 213
3 231 209 232
3 231 214 209
3 231 213 214
3 231 230 213
3 231 229 230
3 231 233 229
3 231 234 233
3 231 232 234
3 235 203 236
3 235 210 203
3 235 209 210
3 235 232 209
3 235 234 232
3 235 237 234
3 235 238 237
3 235 236 238
3 239 203 204
3 239 236 203
3 239 238 236
3 239 240 238
3 239 241 240
3 239 242 241
3 239 205 242
3 239 204 205
3 243 195 244
3 243 200 195
3 243 199 200
3 243 245 199
3 243 246 245
3 243 247 246
3 243 248 247
3 243 244 248
3 249 195 196
3 249 244 195
3 249 248 244
3 249 250 248
3 249 251 250
3 249 252 251
3 249 190 252
3 249 196 190
3 253 192 223
3 253 191 192
3 253 190 191
3 253 252 190
3 253 251 252
3 253 254 251
3 253 224 254
3 253 223 224
3 255 6 256
3 255 5 6
3 255 4 5
3 255 257 4
3 255 258 257
3 255 259 258
3 255 260 259
3 255 256 260
3 261 6 28
3 261 256 6
3 261 260 256
3 261 262 260
3 261 263 262
3 261 264 263
3 261 29 264
3 261 28 29
3 265 46 266
3 265 47 46
3 265 29 47
3 265 264 29
3 265 263 264
3 265 267 263
3 265 268 267
3 265 266 268
3 269 64 66
3 269 270 64
3 269 271 270
3 269 272 271
3 269 273 272
3 269 274 273
3 269 67 274
3 269 66 67
3 275 91 276
3 275 92 91
3 275 67 92
3 275 274 67
3 275 273 274
3 275 277 273
3 275 278 277
3 275 276 278
3 279 109 280
3 279 110 109
3 279 91 110
3 279 276 91
3 279 278 276
3 279 281 278
3 279 282 281
3 279 280 282
3 283 109 127
3 283 280 109
3 283 282 280
3 283 284 282
3 283 285 284
3 283 286 285
3 283 128 286
3 283 127 128
3 287 4 257
3 287 145 4
3 287 128 145
3 287 286 128
3 287 285 286
3 287 288 285
3 287 258 288
3 287 257 258
3 289 258 290
3 289 288 258
3 289 285 288
3 289 291 285
3 289 292 291
3 289 293 292
3 289 294 293
3 289 290 294
3 295 282 284
3 295 296 282
3 295 297 296
3 295 298 297
3 295 292 298
3 295 291 292
3 295 285 291
3 295 284 285
3 299 282 296
3 299 281 282
3 299 278 281
3 299 300 278
3 299 301 300
3 299 302 301
3 299 297 302
3 299 296 297
3 303 278 300
3 303 277 278
3 303 273 277
3 303 304 273
3 303 305 304
3 303 306 305
3 303 301 306
3 303 300 301
3 307 271 272
3 307 308 271
3 307 309 308
3 307 310 309
3 307 305 310
3 307 304 305
3 307 273 304
3 307 272 273
3 311 268 312
3 311 267 268
3 311 263 267
3 311 313 263
3 311 314 313
3 311 315 314
3 311 316 315
3 311 312 316
3 317 260 262
3 317 318 260
3 317 319 318
3 317 320 319
3 317 314 320
3 317 313 314
3 317 263 313
3 317 262 263
3 321 260 318
3 321 259 260
3 321 258 259
3 321 290 258
3 321 294 290
3 321 322 294
3 321 319 322
3 321 318 319
3 323 319 324
3 323 322 319
3 323 294 322
3 323 325 294
3 323 326 325
3 323 327 326
3 323 328 327
3 323 324 328
3 329 319 320
3 329 324 319
3 329 328 324
3 329 330 328
3 329 331 330
3 329 332 331
3 329 314 332
3 329 320 314
3 333 316 334
3 333 315 316
3 333 314 315
3 333 332 314
3 333 331 332
3 333 335 331
3 333 336 335
3 333 334 336
3 337 309 310
3 337 338 309
3 337 339 338
3 337 340 339
3 337 341 340
3 337 342 341
3 337 305 342
3 337 310 305
3 343 301 344
3 343 306 301
3 343 305 306
3 343 342 305
3 343 341 342
3 343 345 341
3 343 346 345
3 343 344 346
3 347 297 348
3 347 302 297
3 347 301 302
3 347 344 301
3 347 346 344
3 347 349 346
3 347 350 349
3 347 348 350
3 351 297 298
3 351 348 297
3 351 350 348
3 351 352 350
3 351 353 352
3 351 354 353
3 351 292 354
3 351 298 292
3 355 294 325
3 355 293 294
3 355 292 293
3 355 354 292
3 355 353 354
3 355 356 353
3 355 326 356
3 355 325 326
3 357 326 358
3 357 356 326
3 357 353 356
3 357 359 353
3 357 360 359
3 357 358 360
3 361 353 359
3 361 352 353
3 361 350 352
3 361 362 350
3 361 360 362
3 361 359 360
3 363 350 362
3 363 349 350
3 363 346 349
3 363 364 346
3 363 360 364
3 363 362 360
3 365 346 364
3 365 345 346
3 365 341 345
3 365 366 341
3 365 360 366
3 365 364 360
3 367 341 366
3 367 340 341
3 367 339 340
3 367 368 339
3 367 360 368
3 367 366 360
3 369 336 370
3 369 335 336
3 369 331 335
3 369 371 331
3 369 360 371
3 369 370 360
3 372 331 371
3 372 330 331
3 372 328 330
3 372 373 328
3 372 360 373
3 372 371 360
3 374 328 373
3 374 327 328
3 374 326 327
3 374 358 326
3 374 360 358
3 374 373 360
3 375 376 377
3 375 378 376
3 375 379 378
3 375 380 379
3 375 381 380
3 375 382 381
3 375 383 382
3 375 377 383
3 384 385 386
3 384 387 385
3 384 388 387
3 384 389 388
3 384 379 389
3 384 378 379
3 384 376 378
3 384 386 376
3 390 391 392
3 390 393 391
3 390 394 393
3 390 395 394
3 390 388 395
3 390 387 388
3 390 385 387
3 390 392 385
3 396 397 398
3 396 399 397
3 396 400 399
3 396 401 400
3 396 402 401
3 396 403 402
3 396 404 403
3 396 398 404
3 405 406 407
3 405 408 406
3 405 409 408
3 405 410 409
3 405 400 410
3 405 399 400
3 405 397 399
3 405 407 397
3 411 412 413
3 411 414 412
3 411 415 414
3 411 416 415
3 411 409 416
3 411 408 409
3 411 406 408
3 411 413 406
3 417 418 419
3 417 420 418
3 417 421 420
3 417 422 421
3 417 415 422
3 417 414 415
3 417 412 414
3 417 419 412
3 423 383 424
3 423 382 383
3 423 381 382
3 423 425 381
3 423 421 425
3 423 420 421
3 423 418 420
3 423 424 418
3 426 427 428
3 426 429 427
3 426 430 429
3 426 431 430
3 426 432 431
3 426 428 432
3 433 434 435
3 433 436 434
3 433 427 436
3 433 428 427
3 433 432 428
3 433 435 432
3 437 438 439
3 437 440 438
3 437 434 440
3 437 435 434
3 437 432 435
3 437 439 432
3 441 442 443
3 441 444 442
3 441 438 444
3 441 439 438
3 441 432 439
3 441 443 432
3 445 446 447
3 445 448 446
3 445 442 448
3 445 443 442
3 445 432 443
3 445 447 432
3 449 450 451
3 449 452 450
3 449 453 452
3 449 454 453
3 449 432 454
3 449 451 432
3 455 456 457
3 455 458 456
3 455 450 458
3 455 451 450
3 455 432 451
3 455 457 432
3 459 430 431
3 459 460 430
3 459 456 460
3 459 457 456
3 459 432 457
3 459 431 432
3 461 462 463
3 461 464 462
3 461 456 464
3 461 460 456
3 461 430 460
3 461 465 430
3 461 466 465
3 461 463 466
3 467 468 469
3 467 470 468
3 467 450 470
3 467 458 450
3 467 456 458
3 467 464 456
3 467 462 464
3 467 469 462
3 471 472 473
3 471 474 472
3 471 453 474
3 471 452 453
3 471 450 452
3 471 470 450
3 471 468 470
3 471 473 468
3 475 476 477
3 475 478 476
3 475 442 478
3 475 448 442
3 475 446 448
3 475 479 446
3 475 480 479
3 475 477 480
3 481 482 483
3 481 484 482
3 481 438 484
3 481 444 438
3 481 442 444
3 481 478 442
3 481 476 478
3 481 483 476
3 485 486 487
3 485 488 486
3 485 434 488
3 485 440 434
3 485 438 440
3 485 484 438
3 485 482 484
3 485 487 482
3 489 490 491
3 489 492 490
3 489 427 492
3 489 436 427
3 489 434 436
3 489 488 434
3 489 486 488
3 489 491 486
3 493 466 494
3 493 465 466
3 493 430 465
3 493 429 430
3 493 427 429
3 493 492 427
3 493 490 492
3 493 494 490
3 495 379 380
3 495 496 379
3 495 497 496
3 495 498 497
3 495 499 498
3 495 500 499
3 495 381 500
3 495 380 381
3 501 388 389
3 501 502 388
3 501 503 502
3 501 504 503
3 501 497 504
3 501 496 497
3 501 379 496
3 501 389 379
3 505 394 395
3 505 506 394
3 505 507 506
3 505 508 507
3 505 503 508
3 505 502 503
3 505 388 502
3 505 395 388
3 509 400 401
3 509 510 400
3 509 511 510
3 509 512 511
3 509 513 512
3 509 514 513
3 509 402 514
3 509 401 402
3 515 409 410
3 515 516 409
3 515 517 516
3 515 518 517
3 515 511 518
3 515 510 511
3 515 400 510
3 515 410 400
3 519 415 416
3 519 520 415
3 519 521 520
3 519 522 521
3 519 517 522
3 519 516 517
3 519 409 516
3 519 416 409
3 523 421 422
3 523 524 421
3 523 525 524
3 523 526 525
3 523 521 526
3 523 520 521
3 523 415 520
3 523 422 415
3 527 381 425
3 527 500 381
3 527 499 500
3 527 528 499
3 527 525 528
3 527 524 525
3 527 421 524
3 527 425 421
3 529 530 531
3 529 532 530
3 529 533 532
3 529 534 533
3 529 535 534
3 529 536 535
3 529 537 536
3 529 531 537
3 538 539 540
3 538 541 539
3 538 542 541
3 538 543 542
3 538 533 543
3 538 532 533
3 538 530 532
3 538 540 530
3 544 545 546
3 544 547 545
3 544 548 547
3 544 549 548
3 544 542 549
3 544 541 542
3 544 539 541
3 544 546 539
3 550 551 552
3 550 553 551
3 550 554 553
3 550 555 554
3 550 556 555
3 550 557 556
3 550 558 557
3 550 552 558
3 559 560 561
3 559 562 560
3 559 563 562
3 559 564 563
3 559 554 564
3 559 553 554
3 559 551 553
3 559 561 551
3 565 566 567
3 565 568 566
3 565 569 568
3 565 570 569
3 565 563 570
3 565 562 563
3 565 560 562
3 565 567 560
3 571 572 573
3 571 574 572
3 571 575 574
3 571 576 575
3 571 569 576
3 571 568 569
3 571 566 568
3 571 573 566
3 577 537 578
3 577 536 537
3 577 535 536
3 577 579 535
3 577 575 579
3 577 574 575
3 577 572 574
3 577 578 572
3 580 497 498
3 580 581 497
3 580 582 581
3 580 583 582
3 580 584 583
3 580 585 584
3 580 499 585
3 580 498 499
3 586 582 583
3 586 587 582
3 586 530 587
3 586 531 530
3 586 537 531
3 586 588 537
3 586 584 588
3 586 583 584
3 589 503 504
3 589 590 503
3 589 591 590
3 589 592 591
3 589 582 592
3 589 581 582
3 589 497 581
3 589 504 497
3 593 591 592
3 593 594 591
3 593 539 594
3 593 540 539
3 593 530 540
3 593 587 530
3 593 582 587
3 593 592 582
3 595 507 508
3 595 596 507
3 595 597 596
3 595 598 597
3 595 591 598
3 595 590 591
3 595 503 590
3 595 508 503
3 599 597 598
3 599 600 597
3 599 545 600
3 599 546 545
3 599 539 546
3 599 594 539
3 599 591 594
3 599 598 591
3 601 511 512
3 601 602 511
3 601 603 602
3 601 604 603
3 601 605 604
3 601 606 605
3 601 513 606
3 601 512 513
3 607 603 604
3 607 608 603
3 607 551 608
3 607 552 551
3 607 558 552
3 607 609 558
3 607 605 609
3 607 604 605
3 610 517 518
3 610 611 517
3 610 612 611
3 610 613 612
3 610 603 613
3 610 602 603
3 610 511 602
3 610 518 511
3 614 612 613
3 614 615 612
3 614 560 615
3 614 561 560
3 614 551 561
3 614 608 551
3 614 603 608
3 614 613 603
3 616 521 522
3 616 617 521
3 616 618 617
3 616 619 618
3 616 612 619
3 616 611 612
3 616 517 611
3 616 522 517
3 620 618 619
3 620 621 618
3 620 566 621
3 620 567 566
3 620 560 567
3 620 615 560
3 620 612 615
3 620 619 612
3 622 525 526
3 622 623 525
3 622 624 623
3 622 625 624
3 622 618 625
3 622 617 618
3 622 521 617
3 622 526 521
3 626 624 625
3 626 627 624
3 626 572 627
3 626 573 572
3 626 566 573
3 626 621 566
3 626 618 621
3 626 625 618
3 628 499 528
3 628 585 499
3 628 584 585
3 628 629 584
3 628 624 629
3 628 623 624
3 628 525 623
3 628 528 525
3 630 584 629
3 630 588 584
3 630 537 588
3 630 578 537
3 630 572 578
3 630 627 572
3 630 624 627
3 630 629 624
3 631 533 534
3 631 632 533
3 631 633 632
3 631 634 633
3 631 635 634
3 631 636 635
3 631 535 636
3 631 534 535
3 637 633 634
3 637 638 633
3 637 462 638
3 637 463 462
3 637 466 463
3 637 639 466
3 637 635 639
3 637 634 635
3 640 542 543
3 640 641 542
3 640 642 641
3 640 643 642
3 640 633 643
3 640 632 633
3 640 533 632
3 640 543 533
3 644 642 643
3 644 645 642
3 644 468 645
3 644 469 468
3 644 462 469
3 644 638 462
3 644 633 638
3 644 643 633
3 646 548 549
3 646 647 548
3 646 648 647
3 646 649 648
3 646 642 649
3 646 641 642
3 646 542 641
3 646 549 542
3 650 648 649
3 650 651 648
3 650 472 651
3 650 473 472
3 650 468 473
3 650 645 468
3 650 642 645
3 650 649 642
3 652 554 555
3 652 653 554
3 652 654 653
3 652 655 654
3 652 656 655
3 652 657 656
3 652 556 657
3 652 555 556
3 658 654 655
3 658 659 654
3 658 476 659
3 658 477 476
3 658 480 477
3 658 660 480
3 658 656 660
3 658 655 656
3 661 563 564
3 661 662 563
3 661 663 662
3 661 664 663
3 661 654 664
3 661 653 654
3 661 554 653
3 661 564 554
3 665 663 664
3 665 666 663
3 665 482 666
3 665 483 482
3 665 476 483
3 665 659 476
3 665 654 659
3 665 664 654
3 667 569 570
3 667 668 569
3 667 669 668
3 667 670 669
3 667 663 670
3 667 662 663
3 667 563 662
3 667 570 563
3 671 669 670
3 671 672 669
3 671 486 672
3 671 487 486
3 671 482 487
3 671 666 482
3 671 663 666
3 671 670 663
3 673 575 576
3 673 674 575
3 673 675 674
3 673 676 675
3 673 669 676
3 673 668 669
3 673 569 668
3 673 576 569
3 677 675 676
3 677 678 675
3 677 490 678
3 677 491 490
3 677 486 491
3 677 672 486
3 677 669 672
3 677 676 669
3 679 535 579
3 679 636 535
3 679 635 636
3 679 680 635
3 679 675 680
3 679 674 675
3 679 575 674
3 679 579 575
3 681 635 680
3 681 639 635
3 681 466 639
3 681 494 466
3 681 490 494
3 681 678 490
3 681 675 678
3 681 680 675
