ply
format ascii 1.0
element vertex 682
property float x
property float y
property float z
property float nx
property float ny
property float nz
property float u
property float v
element face 1248
property list uchar int vertex_indices
end_header
-0.23905 0.476109 2.890338 -0.585210894 -0.771314358 0.250204658 0.403492 0.546204
-0.246554 0.481763 2.879441 -0.779323419 -0.623018722 -0.0671020164 0.433635 0.513194
-0.237238 0.473637 2.884712 -0.527415926 -0.846325555 0.0746022526 0.399463 0.519357
-0.247579 0.483547 2.885513 -0.813204847 -0.569003391 0.122200728 0.435953 0.537625
-0.247624 0.485924 2.891217 -0.817107865 -0.509504904 0.269702596 0.439153 0.561082
-0.24012 0.479378 2.895463 -0.614709009 -0.689410103 0.383205616 0.408968 0.571515
-0.231103 0.476465 2.900698 -0.369887733 -0.76557461 0.526382543 0.376618 0.588584
-0.228804 0.472797 2.896287 -0.309524921 -0.85736903 0.41123311 0.367763 0.560777
-0.226044 0.470019 2.891212 -0.222911167 -0.941647173 0.252212635 0.361059 0.530544
-0.234422 0.472185 2.878358 -0.452011325 -0.886722217 -0.0970024304 0.396406 0.488317
-0.222642 0.468378 2.885197 -0.131099178 -0.98729381 0.089799437 0.356013 0.494949
-0.218818 0.467931 2.878625 -0.047801103 -0.997423016 -0.0535012346 0.353454 0.456757
-0.230801 0.471804 2.871668 -0.373386556 -0.895367763 -0.242691262 0.394845 0.455258
-0.240774 0.480503 2.866025 -0.642304374 -0.657004474 -0.394702688 0.43086 0.455328
-0.244226 0.480736 2.87281 -0.717348746 -0.651644281 -0.246516751 0.431825 0.485204
-0.226571 0.472545 2.865038 -0.287611262 -0.88033447 -0.37721477 0.395306 0.422355
-0.214792 0.468739 2.871878 0.0341018705 -0.981053812 -0.190710461 0.354217 0.418737
-0.211004 0.470711 2.865695 0.128904227 -0.929630488 -0.345211321 0.357649 0.383163
-0.222197 0.474328 2.859195 -0.177605575 -0.833926177 -0.522516402 0.397454 0.391399
-0.231514 0.482454 2.853924 -0.430013982 -0.609619822 -0.665921653 0.432329 0.39669
-0.236375 0.481097 2.859491 -0.552912114 -0.64491413 -0.52761156 0.431077 0.425244
-0.218144 0.477069 2.854868 -0.0415016445 -0.742529423 -0.668526491 0.400952 0.364181
-0.207898 0.473758 2.860817 0.233496761 -0.828188513 -0.509492933 0.363101 0.352311
-0.205291 0.477789 2.856923 0.320604416 -0.698009615 -0.64030882 0.370853 0.322286
-0.214262 0.480688 2.851714 0.0869033923 -0.625424414 -0.77543027 0.405938 0.337066
-0.221729 0.487201 2.847489 -0.105098017 -0.454191429 -0.884683306 0.437515 0.346047
-0.226672 0.484508 2.850043 -0.267616645 -0.541233663 -0.79714958 0.43447 0.371408
-0.218323 0.474463 2.90251 -0.027099705 -0.815591122 0.577993709 0.327601 0.583332
-0.221881 0.47793 2.906174 -0.118901954 -0.728811974 0.674311079 0.341544 0.61415
-0.213817 0.48324 2.91107 0.0980014088 -0.582208369 0.807111602 0.299997 0.658855
-0.20916 0.480497 2.908075 0.217409331 -0.650827934 0.727431222 0.277167 0.623749
-0.204584 0.478431 2.904089 0.359307436 -0.713414764 0.60161245 0.258679 0.581011
-0.214595 0.471839 2.89801 0.088904187 -0.895242162 0.436620563 0.316667 0.548725
-0.210593 0.470293 2.892351 0.197110433 -0.938249663 0.284315049 0.308364 0.506817
-0.200058 0.47723 2.898749 0.482224235 -0.746837533 0.457923013 0.244394 0.526547
-0.195845 0.476936 2.89241 0.574298424 -0.753597931 0.319799122 0.237204 0.465791
-0.206562 0.469879 2.885902 0.285013288 -0.94764418 0.144006714 0.304055 0.460979
-0.202742 0.470654 2.879032 0.362524468 -0.9319629 0.00460031049 0.305108 0.414583
-0.192208 0.477591 2.885429 0.648316266 -0.740318575 0.177804461 0.240004 0.404175
-0.189544 0.479122 2.878572 0.713714153 -0.700413889 0.00570011303 0.25002 0.347507
-0.199555 0.47253 2.872493 0.441523788 -0.883047575 -0.159008567 0.310381 0.37115
-0.197417 0.475424 2.86704 0.513808283 -0.78661268 -0.34240552 0.318734 0.334202
-0.188253 0.481458 2.872604 0.757846378 -0.622638104 -0.194911928 0.26448 0.301597
-0.188091 0.484531 2.867243 0.766145549 -0.523331113 -0.373022177 0.283833 0.26187
-0.196114 0.479248 2.862371 0.558828755 -0.662934112 -0.498225637 0.330577 0.299677
-0.202866 0.490292 2.91205 0.389115135 -0.389415147 0.834832471 0.210621 0.69191
-0.205892 0.502281 2.916258 0.312611895 -0.0667025381 0.947536054 0.191357 0.82272
-0.208279 0.491859 2.914568 0.250700404 -0.350200564 0.902501453 0.248232 0.733342
-0.200153 0.502136 2.91397 0.459099481 -0.0702999206 0.885598999 0.136018 0.773941
-0.194745 0.50207 2.910529 0.626210477 -0.0721012063 0.776312988 0.089697 0.698623
-0.197708 0.489131 2.908431 0.548601564 -0.42450121 0.720302053 0.179489 0.634513
-0.192823 0.48849 2.903318 0.681336432 -0.442423657 0.583131181 0.15504 0.556764
-0.189704 0.502107 2.905526 0.763395038 -0.0711995372 0.641995827 0.052994 0.592225
-0.185312 0.502241 2.899304 0.85952261 -0.0683017967 0.506513324 0.036267 0.471557
-0.188485 0.48839 2.897058 0.776104948 -0.444802836 0.44700285 0.143459 0.469059
-0.184972 0.488851 2.889999 0.847354241 -0.435527879 0.303819448 0.150931 0.381794
-0.181853 0.502468 2.892206 0.929952028 -0.063703564 0.362120259 0.049874 0.353427
-0.179704 0.502761 2.885012 0.981837743 -0.0562021605 0.181206966 0.082499 0.251516
-0.182668 0.489822 2.882914 0.90321484 -0.410306741 0.125902069 0.170939 0.304382
-0.181959 0.491252 2.87658 0.927894706 -0.362597931 -0.0867995048 0.196967 0.24624
-0.179246 0.503097 2.8785 0.998282959 -0.0449992319 -0.0374993599 0.122824 0.179507
-0.180205 0.503477 2.872405 0.970398345 -0.0325999444 -0.239299592 0.170974 0.129837
-0.18258 0.493106 2.870724 0.910772072 -0.30252394 -0.281022238 0.229341 0.201495
-0.201733 0.514322 2.913369 0.419596207 0.257597671 0.870392132 0.782472 0.69578
-0.205892 0.502281 2.916258 0.312611895 -0.0667025381 0.947536054 0.802766 0.828292
-0.200153 0.502136 2.91397 0.459099481 -0.0702999206 0.885598999 0.857877 0.777609
-0.207282 0.513004 2.915729 0.277902132 0.224501722 0.934007164 0.745116 0.738626
-0.211969 0.522434 2.913222 0.148001861 0.47870602 0.865410883 0.692637 0.663641
-0.207059 0.525039 2.910519 0.273819134 0.544138023 0.793055417 0.715278 0.627697
-0.202289 0.52709 2.90676 0.421520695 0.606629783 0.674033092 0.733447 0.584079
-0.19647 0.515382 2.909872 0.582296058 0.289998037 0.759494858 0.812813 0.63695
-0.194745 0.50207 2.910529 0.626210477 -0.0721012063 0.776312988 0.902875 0.700505
-0.19152 0.516116 2.904835 0.716835255 0.310215257 0.62443071 0.836104 0.558568
-0.189704 0.502107 2.905526 0.763395038 -0.0711995372 0.641995827 0.937076 0.593326
-0.197644 0.528437 2.901559 0.547818374 0.643821594 0.534217918 0.747536 0.529305
-0.193389 0.529025 2.895269 0.640828809 0.656929533 0.397217857 0.754613 0.468795
-0.18716 0.516492 2.898601 0.81207737 0.318530348 0.488946584 0.846506 0.471397
-0.185312 0.502241 2.899304 0.85952261 -0.0683017967 0.506513324 0.951173 0.473648
-0.183669 0.516477 2.891515 0.882932364 0.318211664 0.345212654 0.838185 0.386201
-0.181853 0.502468 2.892206 0.929952028 -0.063703564 0.362120259 0.935857 0.359045
-0.189793 0.528798 2.888239 0.714032514 0.652329705 0.254211576 0.751749 0.407967
-0.187249 0.527781 2.881242 0.776239224 0.625531609 0.0785039669 0.741968 0.352146
-0.18143 0.516073 2.884355 0.937082781 0.30749435 0.165296963 0.818042 0.311328
-0.179704 0.502761 2.885012 0.981837743 -0.0562021605 0.181206966 0.90282 0.261572
-0.180826 0.515283 2.877898 0.958269058 0.28119092 -0.0514983371 0.792981 0.255127
-0.179246 0.503097 2.8785 0.998282959 -0.0449992319 -0.0374993599 0.863753 0.193282
-0.186153 0.526 2.875049 0.813930499 0.56632122 -0.129604856 0.728291 0.306655
-0.186252 0.523529 2.869384 0.813759268 0.48673545 -0.317623133 0.709758 0.267041
-0.181588 0.514146 2.871879 0.936576717 0.244593919 -0.25099376 0.762038 0.210664
-0.180205 0.503477 2.872405 0.970398345 -0.0325999444 -0.239299592 0.817819 0.143991
-0.215588 0.532478 2.905694 0.0465018092 0.746529044 0.663725823 0.664507 0.587105
-0.228489 0.531894 2.90374 -0.299113828 0.734833972 0.608728142 0.615015 0.591533
-0.219473 0.52898 2.908976 -0.0535000484 0.658700596 0.750500679 0.6505 0.618015
-0.225834 0.535789 2.899745 -0.229908477 0.832530696 0.504018584 0.624187 0.564109
-0.222799 0.538833 2.894989 -0.134801471 0.925210099 0.354703872 0.631141 0.534609
-0.211606 0.535216 2.901488 0.170298655 0.829893448 0.531295805 0.675473 0.552574
-0.207448 0.536988 2.896012 0.282814558 0.878945245 0.384019768 0.683778 0.511032
-0.219227 0.540795 2.889172 -0.0383996227 0.979490377 0.197798057 0.636091 0.499793
-0.215344 0.541596 2.882668 0.0463026166 0.997356362 0.0560031648 0.638755 0.461947
-0.203362 0.537724 2.889626 0.371900978 0.895302355 0.245200645 0.688267 0.465489
-0.199597 0.537349 2.882692 0.448321424 0.887742422 0.104504994 0.687788 0.418954
-0.211377 0.541156 2.875853 0.127007219 0.988456185 -0.0826046954 0.638852 0.423356
-0.207759 0.539524 2.869472 0.21729571 0.94558133 -0.242195218 0.636523 0.386782
-0.196566 0.535907 2.875971 0.523204842 0.849807865 -0.0639005914 0.683301 0.375087
-0.194681 0.533439 2.870224 0.587101004 0.767601313 -0.25710044 0.675767 0.337549
-0.204927 0.53675 2.864275 0.312796783 0.853291224 -0.417195709 0.631911 0.354982
-0.20269 0.532942 2.85995 0.388018264 0.730534387 -0.561926451 0.624615 0.324534
-0.193719 0.530042 2.865159 0.621089178 0.657988535 -0.425792581 0.66448 0.302825
-0.236315 0.534123 2.893522 -0.511618416 0.790828466 0.335912091 0.588348 0.548814
-0.245776 0.525118 2.893368 -0.767073778 0.551381151 0.327988788 0.552221 0.563068
-0.237712 0.530428 2.898265 -0.549221766 0.698127667 0.459318203 0.582494 0.573978
-0.245478 0.528089 2.887957 -0.756898146 0.625998466 0.18769954 0.555757 0.539369
-0.244259 0.530422 2.882112 -0.717026498 0.697025759 0.00530019587 0.558411 0.514757
-0.234249 0.537014 2.888191 -0.44610956 0.878818833 0.169303628 0.592705 0.522359
-0.231277 0.53888 2.882018 -0.366331663 0.930480425 0.00270023339 0.595738 0.491633
-0.241811 0.531943 2.875621 -0.6517739 0.739070405 -0.170193185 0.560334 0.486475
-0.238317 0.532591 2.868884 -0.575803691 0.75350483 -0.317302034 0.561361 0.456374
-0.227601 0.539648 2.875391 -0.286492801 0.947576188 -0.141496444 0.597362 0.458637
-0.223426 0.539241 2.868699 -0.201809786 0.93934555 -0.277313447 0.59749 0.425371
-0.233961 0.532304 2.862301 -0.487221843 0.747733522 -0.451120224 0.56133 0.426301
-0.229219 0.531113 2.856595 -0.367430119 0.716358722 -0.593148622 0.560349 0.397859
-0.219209 0.537705 2.862674 -0.0959053334 0.898949992 -0.42742377 0.596115 0.39386
-0.215408 0.535084 2.858052 0.0318001531 0.811703908 -0.583202808 0.593229 0.366129
-0.224572 0.52905 2.852487 -0.211603443 0.647710538 -0.731911908 0.558531 0.372647
-0.21989 0.5262 2.84963 -0.0575027688 0.555926769 -0.829239929 0.555682 0.347158
-0.211866 0.531483 2.854502 0.149196322 0.695482857 -0.702882674 0.588573 0.338686
-0.251772 0.518295 2.883982 -0.927806031 0.36460237 0.0790005135 0.525184 0.533923
-0.251314 0.5165 2.88987 -0.918962184 0.319521621 0.231115639 0.523483 0.55652
-0.253701 0.506077 2.888181 -0.98160451 0.0360001654 0.187500862 0.495561 0.554063
-0.254485 0.50645 2.882062 -0.998530171 0.0454013718 0.0296008944 0.495684 0.531982
-0.254099 0.506782 2.875672 -0.983989678 0.0556994157 -0.169298224 0.495856 0.509458
-0.251135 0.519722 2.877769 -0.905696789 0.408198553 -0.114399594 0.526505 0.510735
-0.249047 0.520683 2.871051 -0.850529625 0.434715141 -0.29601031 0.527493 0.484243
-0.252166 0.507066 2.868844 -0.932982717 0.0633988255 -0.354293437 0.495977 0.48377
-0.248851 0.507286 2.86199 -0.861005063 0.068200401 -0.504002964 0.496055 0.456199
-0.245678 0.521138 2.864235 -0.777560423 0.444734559 -0.444534544 0.528029 0.455973
-0.241196 0.521044 2.857731 -0.68662327 0.442915011 -0.576519539 0.527996 0.427453
-0.244315 0.507427 2.855524 -0.768811955 0.0711011056 -0.635509882 0.496094 0.428023
-0.239059 0.507474 2.850155 -0.635562091 0.0721070445 -0.768675096 0.496126 0.401046
-0.236095 0.520413 2.852252 -0.557533113 0.426125308 -0.712442313 0.527496 0.400315
-0.230866 0.519256 2.848512 -0.382305259 0.387605332 -0.838811538 0.52663 0.376192
-0.233579 0.507411 2.846592 -0.452023811 0.0701036928 -0.889246842 0.496179 0.377072
-0.227776 0.507254 2.844468 -0.261711209 0.0652027927 -0.962941244 0.496186 0.353063
-0.2254 0.517624 2.846149 -0.202799609 0.335099353 -0.920098224 0.525273 0.351823
-0.252905 0.494264 2.882663 -0.958309152 -0.282402697 0.0435004154 0.466312 0.53305
-0.252311 0.495354 2.88871 -0.946055251 -0.255214905 0.199611658 0.467734 0.555424
-0.252373 0.49347 2.876329 -0.939425233 -0.30640823 -0.153604126 0.465333 0.510086
-0.25035 0.493057 2.869535 -0.88601827 -0.318006557 -0.337406957 0.464552 0.483889
-0.247003 0.493036 2.862693 -0.813551593 -0.318620206 -0.486430848 0.46413 0.455813
-0.242499 0.493418 2.856215 -0.722188423 -0.310895016 -0.617890095 0.46423 0.42721
-0.237333 0.494162 2.850812 -0.591403619 -0.291601785 -0.751804601 0.464812 0.399872
-0.231999 0.495225 2.847193 -0.412625423 -0.25611578 -0.874153858 0.465836 0.375591
-0.226393 0.496585 2.844994 -0.228607501 -0.212106959 -0.950131174 0.467266 0.351259
-0.22041 0.498216 2.84385 -0.04119976 -0.160999062 -0.986094256 0.469067 0.323767
-0.221551 0.507018 2.843416 -0.0676024811 0.0578021214 -0.996036555 0.49608 0.325985
-0.216562 0.490476 2.845908 0.056098931 -0.352093291 -0.934282197 0.441483 0.317256
-0.21173 0.494044 2.845627 0.261608202 -0.199506255 -0.944329605 0.446948 0.283992
-0.214678 0.499975 2.84405 0.204392796 -0.0852969938 -0.975165631 0.471541 0.291586
-0.215552 0.506718 2.843717 0.187910465 0.0450025063 -0.981154642 0.495869 0.294205
-0.219591 0.515573 2.844803 -0.0208996094 0.270894937 -0.962382013 0.5233 0.323944
-0.214051 0.513273 2.844779 0.216513626 0.171710806 -0.961060481 0.520379 0.291398
-0.210567 0.518694 2.846979 0.284102834 0.276002753 -0.918209159 0.545642 0.28425
-0.215045 0.522648 2.847674 0.0937012659 0.445206015 -0.890512031 0.55161 0.317882
-0.208426 0.527006 2.851693 0.256915607 0.555333735 -0.790948048 0.581887 0.308038
-0.200856 0.528209 2.856188 0.445296003 0.583094767 -0.679493902 0.61423 0.292011
-0.205496 0.522033 2.850059 0.381825765 0.340923005 -0.859057967 0.572227 0.27385
-0.199696 0.522955 2.853503 0.493789275 0.35819222 -0.79238279 0.59979 0.257442
-0.193455 0.525818 2.860485 0.629425905 0.525721637 -0.57222355 0.648735 0.267401
-0.187296 0.520445 2.86397 0.781425834 0.390612914 -0.486616088 0.685407 0.228851
-0.194026 0.521122 2.856795 0.603427257 0.323314604 -0.728932927 0.627987 0.232271
-0.189307 0.517006 2.859465 0.694190295 0.243396597 -0.67739053 0.655647 0.19453
-0.183448 0.512704 2.866028 0.878436697 0.199508335 -0.43421814 0.724248 0.171006
-0.186359 0.511075 2.861042 0.751620504 0.129203525 -0.646817645 0.681599 0.140411
-0.185485 0.504331 2.861375 0.767884731 -0.000999980116 -0.640587262 0.706698 0.078102
-0.182307 0.503902 2.866462 0.905084822 -0.0192996763 -0.424792876 0.764175 0.103513
-0.184267 0.495347 2.865076 0.858092372 -0.232397934 -0.457895929 0.268386 0.164276
-0.188813 0.488272 2.862205 0.743812091 -0.406706611 -0.530408622 0.308527 0.223751
-0.182307 0.503902 2.866462 0.905084822 -0.0192996763 -0.424792876 0.227072 0.094944
-0.185485 0.504331 2.861375 0.767884731 -0.000999980116 -0.640587262 0.286459 0.075055
-0.186986 0.497776 2.860312 0.73951614 -0.127702787 -0.660914425 0.311892 0.136024
-0.190469 0.492356 2.858112 0.671782705 -0.231994027 -0.703481889 0.338298 0.189313
-0.195431 0.483914 2.858185 0.580211021 -0.516909819 -0.629411956 0.34632 0.263515
-0.19554 0.489017 2.855033 0.574219797 -0.29701024 -0.762926302 0.366653 0.227241
-0.20134 0.488095 2.851589 0.462100799 -0.314200544 -0.829301435 0.395065 0.253522
-0.203002 0.482711 2.853691 0.392098916 -0.544598494 -0.74139795 0.381186 0.289195
-0.210402 0.485103 2.849393 0.207713067 -0.487330656 -0.848153355 0.412548 0.306421
-0.20701 0.489928 2.848297 0.352509127 -0.279407234 -0.893123123 0.421643 0.271872
-0.20453 0.494779 2.848814 0.493103457 -0.0106000743 -0.869906098 0.434082 0.233046
-0.207788 0.497621 2.846971 0.482028689 -0.00240014285 -0.876152146 0.454484 0.245209
-0.200615 0.493514 2.851088 0.505417667 -0.0158005523 -0.862730157 0.413453 0.215753
-0.200707 0.498251 2.851884 0.499582962 0.310589408 -0.808672421 0.434867 0.179494
-0.203076 0.499016 2.850509 0.594232737 0.283315608 -0.75274147 0.44924 0.193824
-0.205047 0.500736 2.849393 0.671431289 0.212209889 -0.710033088 0.46409 0.204524
-0.196611 0.49415 2.853465 0.51811272 -0.0125003069 -0.855220996 0.39227 0.192382
-0.19311 0.496455 2.855591 0.529799976 -0.00619999972 -0.848099962 0.372883 0.160627
-0.196166 0.500031 2.854609 0.319817223 0.24011293 -0.916549358 0.408995 0.137995
-0.198284 0.498636 2.853323 0.402327218 0.298520196 -0.86545855 0.420742 0.161308
-0.190706 0.500197 2.85711 0.536605299 0.00650006419 -0.843808333 0.357644 0.118183
-0.189669 0.504723 2.857843 0.540986476 0.020599485 -0.840778981 0.34448 0.070394
-0.194083 0.505033 2.855972 0.237305464 0.0421009694 -0.970522347 0.396766 0.075367
-0.194711 0.502295 2.855528 0.259103725 0.152002185 -0.953813711 0.401754 0.108281
-0.190273 0.509378 2.857614 0.538000538 0.0354000354 -0.842200842 0.636076 0.123139
-0.192308 0.513472 2.856525 0.532430464 0.0491028095 -0.845048351 0.620886 0.166525
-0.19568 0.510328 2.855174 0.300607542 -0.167504203 -0.938923558 0.584819 0.144122
-0.194449 0.507851 2.855833 0.248608924 -0.0705025307 -0.966034676 0.592174 0.11424
-0.194083 0.505033 2.855972 0.237305464 0.0421009694 -0.970522347 0.597233 0.081132
-0.189669 0.504723 2.857843 0.540986476 0.020599485 -0.840778981 0.649262 0.074015
-0.195566 0.516314 2.854681 0.521396934 0.0571996637 -0.851394994 0.601689 0.198431
-0.199481 0.517579 2.852408 0.50911855 0.0624022737 -0.858431278 0.580329 0.220853
-0.20002 0.512813 2.852683 0.472407403 -0.265904167 -0.840313168 0.55824 0.185023
-0.197652 0.512048 2.854059 0.377008916 -0.238705645 -0.894921165 0.572873 0.167551
-0.203485 0.516943 2.850031 0.496431375 0.0592037418 -0.866054736 0.558646 0.235787
-0.206986 0.514638 2.847905 0.484691249 0.0528990449 -0.873084237 0.537107 0.245691
-0.204562 0.511033 2.849958 0.652214427 -0.195404322 -0.732416201 0.527035 0.205382
-0.202443 0.512428 2.851245 0.568914434 -0.253906442 -0.782219845 0.542823 0.197034
-0.20939 0.510896 2.846386 0.477822195 0.0401018628 -0.877540763 0.516174 0.253026
-0.210427 0.50637 2.845653 0.473504164 0.0260002287 -0.880407743 0.495563 0.256092
-0.206644 0.506031 2.848595 0.734597734 0.00259999198 -0.678497907 0.495515 0.214624
-0.206017 0.508769 2.849039 0.712016199 -0.107302441 -0.693915787 0.511288 0.211862
-0.209823 0.501715 2.845883 0.47650131 0.0112000308 -0.879102418 0.474989 0.253188
-0.206279 0.503214 2.848734 0.722511145 0.115101775 -0.681710515 0.479649 0.211817
-0.204477 0.504247 2.851991 0.87417704 0.196694834 -0.443988339 0.48576 0.170717
-0.204673 0.505755 2.851916 0.8996482 -0.0185009912 -0.436223371 0.496077 0.17278
-0.203818 0.502921 2.852343 0.778323218 0.383911452 -0.49681482 0.475766 0.165552
-0.203373 0.504215 2.854602 0.735180088 0.305191734 -0.605283606 0.488477 0.127436
-0.20369 0.504853 2.854433 0.808477064 0.158495504 -0.566783921 0.492595 0.129753
-0.203784 0.505577 2.854397 0.82979822 -0.00849998177 -0.557998803 0.496942 0.130748
-0.204337 0.507221 2.852154 0.854129323 -0.228207835 -0.467316043 0.506322 0.170939
-0.203623 0.506282 2.854511 0.792994972 -0.170798917 -0.584796292 0.501316 0.130136
-0.203248 0.506864 2.854748 0.706410794 -0.304804657 -0.638809761 0.505619 0.128338
-0.203558 0.508433 2.852646 0.741422258 -0.398611967 -0.539816206 0.516454 0.166502
-0.202424 0.50918 2.853334 0.580736559 -0.508131988 -0.63604004 0.526432 0.16078
-0.201127 0.509386 2.854105 0.396201971 -0.534002657 -0.746903716 0.535916 0.152727
-0.202703 0.507223 2.855078 0.581209459 -0.387606308 -0.715511645 0.509758 0.125774
-0.20208 0.507322 2.855448 0.437322431 -0.410321046 -0.800241045 0.513476 0.122199
-0.199859 0.508976 2.854841 0.214309973 -0.479022292 -0.851239613 0.544568 0.141301
-0.198804 0.508056 2.855438 0.0664008828 -0.345104588 -0.936212447 0.551141 0.12661
-0.201471 0.507125 2.855802 0.297316482 -0.365020235 -0.882248909 0.516518 0.117366
-0.200964 0.506683 2.856089 0.180295083 -0.263092826 -0.947774155 0.518657 0.111542
-0.198145 0.50673 2.855791 -0.0308017827 -0.158009145 -0.986957122 0.554388 0.108762
-0.200647 0.506045 2.856259 0.107496562 -0.116396277 -0.98736842 0.519662 0.104994
-0.200553 0.505321 2.856294 0.085504463 0.0506026413 -0.995051938 0.5201 0.098084
-0.197949 0.505222 2.855865 -0.0550022406 0.0573023343 -0.996840607 0.555974 0.089336
-0.198285 0.503756 2.855627 -0.0107003828 0.267009552 -0.963634475 0.440331 0.103845
-0.199064 0.502544 2.855135 0.103306024 0.437525513 -0.893252087 0.44335 0.121717
-0.197949 0.505222 2.855865 -0.0550022406 0.0573023343 -0.996840607 0.43895 0.084375
-0.200553 0.505321 2.856294 0.085504463 0.0506026413 -0.995051938 0.476083 0.095401
-0.200714 0.504616 2.85618 0.123002747 0.212804753 -0.96932165 0.476142 0.102143
-0.201089 0.504034 2.855944 0.209099278 0.346898801 -0.914296841 0.476827 0.108617
-0.200198 0.501797 2.854447 0.262609929 0.546920679 -0.794930057 0.449645 0.136391
-0.201634 0.503675 2.855613 0.334802831 0.429703633 -0.83860709 0.478763 0.114551
-0.202257 0.503576 2.855243 0.478034037 0.452432214 -0.752853605 0.481551 0.119767
-0.201495 0.501591 2.853677 0.448449094 0.572762704 -0.68617512 0.457824 0.148351
-0.202763 0.502001 2.85294 0.629213207 0.517710867 -0.579712168 0.466492 0.158084
-0.202866 0.503773 2.854889 0.618812658 0.407108327 -0.671813742 0.484792 0.124085
-0.240704 0.483224 2.900317 -0.629129642 -0.578627263 0.519024454 0.416366 0.597949
-0.233123 0.480774 2.904719 -0.425526481 -0.642039955 0.637739688 0.38812 0.616905
-0.247013 0.488728 2.896747 -0.797398381 -0.429099129 0.424299139 0.443607 0.586154
-0.245314 0.49201 2.901444 -0.710688995 -0.267195863 0.650789923 0.450496 0.614915
-0.240383 0.487709 2.904234 -0.610034623 -0.355720189 0.708040186 0.427201 0.627025
-0.234459 0.485794 2.907674 -0.488420587 -0.394516629 0.778332807 0.403975 0.646281
-0.225368 0.482006 2.909323 -0.217011101 -0.611331273 0.761038932 0.358872 0.644692
-0.228399 0.486757 2.911271 -0.364303667 -0.375303777 0.852308579 0.381341 0.674075
-0.223101 0.490246 2.914489 -0.255897939 -0.303297557 0.917892606 0.359853 0.716601
-0.218588 0.486471 2.91344 -0.0364013714 -0.489518443 0.871232824 0.327308 0.69042
-0.213931 0.493718 2.916381 0.0903019803 -0.296606505 0.950720849 0.292118 0.763198
-0.211924 0.502481 2.917802 0.141900822 -0.0609003526 0.988005721 0.255115 0.849501
-0.219462 0.495909 2.916787 -0.181101075 -0.187601113 0.96540573 0.340063 0.780056
-0.217894 0.502757 2.917897 -0.149309549 -0.047203019 0.987663168 0.321123 0.853974
-0.213093 0.511497 2.917357 0.112806154 0.181209886 0.976953299 0.700783 0.769058
-0.211924 0.502481 2.917802 0.141900822 -0.0609003526 0.988005721 0.738222 0.856204
-0.217894 0.502757 2.917897 -0.149309549 -0.047203019 0.987663168 0.67108 0.860731
-0.218807 0.509803 2.91755 -0.167705691 0.0972032986 0.981033292 0.652171 0.785721
-0.221887 0.515999 2.915902 -0.231008958 0.223908682 0.946836714 0.632322 0.721315
-0.217034 0.519426 2.915249 0.00520024834 0.392718755 0.919643919 0.665136 0.695395
-0.223344 0.52493 2.911679 -0.162608936 0.542229799 0.824345303 0.633071 0.648695
-0.230925 0.52738 2.907277 -0.366624682 0.605640773 0.706247546 0.603409 0.62012
-0.226818 0.5203 2.913112 -0.331924668 0.312423219 0.890066148 0.610591 0.678116
-0.232742 0.522214 2.909672 -0.453203587 0.35120278 0.819306485 0.587703 0.649906
-0.238679 0.526147 2.902673 -0.574806225 0.574906226 0.582306306 0.574969 0.600832
-0.245459 0.521683 2.898556 -0.755772381 0.453083442 0.472782722 0.547652 0.588612
-0.238801 0.521251 2.906075 -0.577600864 0.331900496 0.745801115 0.564386 0.630465
-0.2441 0.517763 2.902857 -0.685829584 0.260011216 0.679729321 0.541123 0.617881
-0.250116 0.514436 2.895615 -0.882092176 0.260197692 0.392696517 0.521356 0.581242
-0.247739 0.5121 2.900559 -0.760867762 0.144312852 0.632656344 0.518403 0.610243
-0.249307 0.505251 2.899449 -0.792394861 0.00389997471 0.609996044 0.495912 0.607239
-0.252123 0.505673 2.894194 -0.93415649 0.0245014816 0.356021529 0.495585 0.578422
-0.250954 0.496657 2.894639 -0.904645288 -0.217610894 0.366418343 0.469841 0.579853
-0.248394 0.498206 2.899796 -0.774311715 -0.140502126 0.617009335 0.473338 0.608558
-0.244188 0.500036 2.903527 -0.566806379 -0.047000529 0.822509257 0.478929 0.643763
-0.242093 0.495822 2.904648 -0.554612143 -0.072801594 0.828918149 0.461003 0.649436
-0.244809 0.504828 2.903291 -0.571023669 -0.0181007503 0.82073402 0.496693 0.642694
-0.240352 0.504492 2.905592 -0.363023196 -0.0340021726 0.931159498 0.497386 0.675172
-0.239982 0.501637 2.905733 -0.369203358 0.0286002601 0.928908448 0.484463 0.676001
-0.238734 0.499126 2.906401 -0.398199703 0.0822999387 0.913599319 0.471457 0.680723
-0.243742 0.509486 2.904046 -0.56412195 0.00990038523 0.825632126 0.514223 0.645677
-0.241267 0.513338 2.905609 -0.549510018 0.0335006107 0.834815219 0.531712 0.652754
-0.238242 0.509561 2.906974 -0.408802843 -0.143901001 0.901206268 0.522309 0.684011
-0.239716 0.507267 2.906042 -0.375011734 -0.0951029758 0.922128854 0.509973 0.67792
-0.237664 0.515711 2.907797 -0.527516675 0.0473014952 0.848226813 0.549355 0.663966
-0.233542 0.516366 2.910244 -0.502625941 0.0519026788 0.862944538 0.566233 0.680929
-0.23364 0.511365 2.909735 -0.508613059 -0.183004699 0.841321601 0.545387 0.706747
-0.236095 0.510975 2.908277 -0.454613091 -0.176505083 0.873025139 0.53448 0.693207
-0.229512 0.515064 2.912584 -0.478506027 0.0434005466 0.877011046 0.581428 0.705253
-0.226159 0.512139 2.914482 -0.4578269 0.0263015454 0.888652214 0.593742 0.739757
-0.229241 0.508847 2.912259 -0.60398728 -0.128397296 0.786583435 0.55913 0.750575
-0.231239 0.51059 2.911129 -0.561327677 -0.168108289 0.810339955 0.553931 0.725867
-0.224064 0.507924 2.915602 -0.445692918 0.000499992055 0.895185776 0.601977 0.787259
-0.223443 0.503132 2.915838 -0.441304003 -0.0284002576 0.896908135 0.608173 0.841259
-0.227623 0.503481 2.913068 -0.639005681 -0.0121001076 0.769106837 0.558704 0.813975
-0.227993 0.506336 2.912927 -0.632637782 -0.0746044555 0.770846036 0.56 0.780876
-0.22451 0.498474 2.915083 -0.448300838 -0.0564001055 0.892101668 0.38985 0.782494
-0.223443 0.503132 2.915838 -0.441304003 -0.0284002576 0.896908135 0.383214 0.835829
-0.226985 0.494622 2.91352 -0.462814882 -0.0801025757 0.882828388 0.398382 0.735556
-0.229733 0.498412 2.911686 -0.593308683 0.0978014313 0.799011694 0.433046 0.747108
-0.228259 0.500706 2.912618 -0.626818491 0.0490014456 0.77762294 0.431652 0.777324
-0.227623 0.503481 2.913068 -0.639005681 -0.0121001076 0.769106837 0.432267 0.810341
-0.230588 0.492249 2.911332 -0.484910498 -0.0938020308 0.869518825 0.410708 0.701415
-0.23471 0.491594 2.908885 -0.509697852 -0.0984995848 0.854696397 0.425889 0.677256
-0.234336 0.496608 2.908925 -0.49350171 0.136900474 0.858902976 0.447209 0.703377
-0.23188 0.496998 2.910383 -0.54722983 0.130507114 0.826745067 0.438457 0.722495
-0.238739 0.492897 2.906545 -0.533996129 -0.0898993482 0.840693905 0.442988 0.660265
-0.236736 0.497384 2.907531 -0.440590149 0.121997272 0.889380114 0.458625 0.68965
-0.235337 0.499767 2.907471 -0.322305271 0.327405355 0.888214527 0.469005 0.707162
-0.233796 0.499269 2.908366 -0.449323287 0.366919016 0.814542215 0.461283 0.71819
-0.23662 0.500885 2.906745 -0.217715617 0.234316808 0.947467964 0.478191 0.699778
-0.235278 0.501854 2.906614 -0.230215259 0.224614888 0.94686276 0.483229 0.712747
-0.234413 0.501009 2.907101 -0.330009364 0.31540895 0.889725246 0.476447 0.71793
-0.233313 0.500729 2.907741 -0.452996639 0.352197387 0.818993923 0.471697 0.726798
-0.23222 0.499519 2.909302 -0.578834578 0.347820778 0.737544059 0.456075 0.733094
-0.232195 0.500833 2.908403 -0.577915826 0.335109177 0.744120378 0.467792 0.737559
-0.231257 0.501534 2.908975 -0.686125161 0.260809564 0.679124904 0.467527 0.750451
-0.230842 0.500427 2.910139 -0.691425562 0.271910053 0.669324745 0.453992 0.751082
-0.229895 0.5019 2.910737 -0.77023557 0.151807011 0.619428606 0.455644 0.771359
-0.229487 0.503681 2.911026 -0.802562398 0.00510039655 0.59654638 0.459165 0.792781
-0.230542 0.502527 2.909424 -0.76270193 0.145800369 0.630101594 0.469089 0.76482
-0.230315 0.503799 2.909592 -0.793089837 0.00389995002 0.609092195 0.473692 0.778161
-0.229724 0.505514 2.910935 -0.784278252 -0.145595963 0.603083277 0.536036 0.773777
-0.229487 0.503681 2.911026 -0.802562398 0.00510039655 0.59654638 0.531875 0.795066
-0.230315 0.503799 2.909592 -0.793089837 0.00389995002 0.609092195 0.517732 0.779455
-0.23042 0.505098 2.909565 -0.776249224 -0.141508973 0.614338956 0.522751 0.766307
-0.231038 0.506196 2.909231 -0.711077377 -0.267891477 0.650079318 0.524736 0.752061
-0.230526 0.507126 2.910507 -0.717397539 -0.277299049 0.639097808 0.53822 0.753619
-0.231808 0.508245 2.909781 -0.612718057 -0.370410916 0.698120574 0.536449 0.735721
-0.233349 0.508743 2.908886 -0.485913015 -0.40991098 0.771920676 0.531554 0.720922
-0.231903 0.50704 2.908744 -0.610620136 -0.358711829 0.706023281 0.524784 0.739376
-0.233002 0.507321 2.908103 -0.488227366 -0.39552217 0.777943605 0.521191 0.728723
-0.234926 0.508492 2.90795 -0.356101195 -0.390801311 0.848802848 0.524365 0.710058
-0.236304 0.507585 2.907113 -0.243701098 -0.314901419 0.917304132 0.515809 0.702433
-0.23412 0.507216 2.907441 -0.362720904 -0.378321803 0.851649082 0.516868 0.719973
-0.235058 0.506515 2.906869 -0.255119281 -0.304022977 0.917869371 0.510505 0.714518
-0.237251 0.506112 2.906515 -0.164799861 -0.194799835 0.966899183 0.506812 0.69735
-0.235774 0.505523 2.906421 -0.177807972 -0.189008474 0.9657433 0.504189 0.709903
-0.236001 0.50425 2.906253 -0.148106643 -0.0472021173 0.987844311 0.497159 0.708938
-0.237659 0.50433 2.906227 -0.132501997 -0.0481007249 0.99001492 0.497448 0.695058
-0.237421 0.502497 2.906317 -0.150608332 0.102605676 0.983254395 0.48779 0.695805
-0.235895 0.502952 2.90628 -0.16430003 0.0983000182 0.981500182 0.489979 0.708862
-0.234795 0.503335 2.906622 -0.394617466 0.0194008587 0.91864066 0.492099 0.720859
-0.234236 0.502786 2.906937 -0.443406915 0.0403006285 0.895413964 0.488595 0.725777
-0.23465 0.504161 2.90673 -0.4221227 -0.0298016026 0.906048724 0.496802 0.723394
-0.23302 0.504031 2.907687 -0.50770822 -0.0233003772 0.861213943 0.496124 0.752784
-0.234716 0.505003 2.906714 -0.399300329 -0.0825000681 0.913100753 0.501554 0.721513
-0.23411 0.50546 2.907084 -0.449702228 -0.0960004757 0.8880044 0.504694 0.726761
-0.233644 0.506101 2.907376 -0.464834873 -0.149611224 0.87266547 0.509845 0.728406
-0.23293 0.505922 2.907791 -0.509816873 -0.119603958 0.851928195 0.510753 0.735421
-0.232205 0.505987 2.90822 -0.552924888 -0.142606419 0.820936951 0.51474 0.741394
-0.231803 0.505277 2.908438 -0.567201778 -0.0867002718 0.819002568 0.512404 0.749072
-0.231244 0.504727 2.908753 -0.611505812 -0.0657006245 0.788507495 0.512811 0.75881
-0.231389 0.503902 2.908645 -0.5883998 -0.0165999944 0.808399725 0.50632 0.762067
-0.231323 0.50306 2.908661 -0.606812158 0.0363007273 0.794015908 0.479246 0.757928
-0.231389 0.503902 2.908645 -0.5883998 -0.0165999944 0.808399725 0.485629 0.761489
-0.231929 0.502603 2.908291 -0.560829792 0.049602635 0.826443902 0.47996 0.74819
-0.232395 0.501961 2.907999 -0.541392182 0.103398507 0.834387952 0.477842 0.740233
-0.233109 0.50214 2.907584 -0.500708767 0.0732012818 0.862515103 0.482038 0.734303
-0.233834 0.502075 2.907155 -0.453391447 0.0963981815 0.886083284 0.483263 0.727088
-0.202662 0.504375 2.855134 0.183204902 -0.51801386 -0.835522355 0.068707 0.884289
-0.202257 0.503576 2.855243 0.478034037 0.452432214 -0.752853605 0.069636 0.879322
-0.202866 0.503773 2.854889 0.618812658 0.407108327 -0.671813742 0.067744 0.880142
-0.202272 0.504249 2.85536 0.380403726 -0.573905621 -0.725207103 0.070601 0.883481
-0.201724 0.504274 2.85443 -0.0469995582 -0.997390625 -0.0547994849 0.072076 0.889725
-0.202114 0.5044 2.854203 -0.372588985 -0.895373529 -0.243892789 0.070197 0.890541
-0.202438 0.504683 2.85402 -0.641529492 -0.657030204 -0.395918201 0.068327 0.891373
-0.202986 0.504658 2.85495 0.0270999327 -0.371599077 -0.927997694 0.066822 0.885094
-0.203373 0.504215 2.854602 0.735180088 0.305191734 -0.605283606 0.065863 0.880959
-0.201873 0.504312 2.855597 0.577656053 -0.549353306 -0.603758586 0.072507 0.882674
-0.201089 0.504034 2.855944 0.209099278 0.346898801 -0.914296841 0.073449 0.877687
-0.201634 0.503675 2.855613 0.334802831 0.429703633 -0.83860709 0.071539 0.878503
-0.201525 0.504542 2.855808 0.750055547 -0.429031773 -0.503337276 0.074419 0.881869
-0.200977 0.504567 2.854878 0.57500569 -0.753607457 0.318503152 0.075866 0.888152
-0.201325 0.504337 2.854666 0.285709494 -0.94763149 0.142704742 0.073965 0.888928
-0.201285 0.504914 2.855959 0.871951438 -0.248014631 -0.422124902 0.076337 0.881067
-0.200553 0.505321 2.856294 0.085504463 0.0506026413 -0.995051938 0.07728 0.876064
-0.200714 0.504616 2.85618 0.123002747 0.212804753 -0.96932165 0.075363 0.876874
-0.201182 0.505365 2.856033 0.919355361 -0.0218013128 -0.392823655 0.078257 0.880266
-0.200634 0.50539 2.855102 0.86029655 -0.0682997261 0.505197974 0.079696 0.886653
-0.200737 0.504939 2.855029 0.776798866 -0.444799351 0.445799349 0.077778 0.887397
-0.201242 0.505828 2.85601 0.893499848 0.209499964 -0.397199932 0.049916 0.891921
-0.200964 0.506683 2.856089 0.180295083 -0.263092826 -0.947774155 0.050929 0.887044
-0.200647 0.506045 2.856259 0.107496562 -0.116396277 -0.98736842 0.049037 0.887762
-0.201445 0.506236 2.855901 0.789576589 0.409039677 -0.457444372 0.051818 0.891199
-0.200897 0.506261 2.854971 0.641630485 0.656931212 0.395918811 0.053177 0.897712
-0.200694 0.505854 2.855079 0.812799557 0.318599826 0.487699734 0.051249 0.898395
-0.200634 0.50539 2.855102 0.86029655 -0.0682997261 0.505197974 0.049321 0.899069
-0.201182 0.505365 2.856033 0.919355361 -0.0218013128 -0.392823655 0.04801 0.89264
-0.200553 0.505321 2.856294 0.085504463 0.0506026413 -0.995051938 0.047141 0.88848
-0.201769 0.506519 2.855718 0.629716102 0.555414202 -0.543113888 0.053714 0.89047
-0.20208 0.507322 2.855448 0.437322431 -0.410321046 -0.800241045 0.054691 0.885594
-0.201471 0.507125 2.855802 0.297316482 -0.365020235 -0.882248909 0.052814 0.886322
-0.202159 0.506645 2.855491 0.436321891 0.611430676 -0.66013312 0.055602 0.889733
-0.201611 0.50667 2.854561 0.0469995582 0.997390625 0.0547994849 0.057028 0.89628
-0.201221 0.506544 2.854788 0.372622347 0.895353696 0.243914628 0.055105 0.89701
-0.202558 0.506582 2.855255 0.23510483 0.586712054 -0.774915921 0.057479 0.888987
-0.203248 0.506864 2.854748 0.706410794 -0.304804657 -0.638809761 0.058418 0.884106
-0.202703 0.507223 2.855078 0.581209459 -0.387606308 -0.715511645 0.056558 0.884856
-0.202906 0.506352 2.855043 0.0666006057 0.466504243 -0.882008022 0.059349 0.88823
-0.202358 0.506377 2.854113 -0.575115957 0.753520907 -0.318508837 0.060836 0.89472
-0.20201 0.506607 2.854325 -0.285709494 0.94763149 -0.142704742 0.058938 0.895515
-0.203146 0.505979 2.854892 -0.0593001144 0.285300551 -0.956601846 0.061214 0.887462
-0.203784 0.505577 2.854397 0.82979822 -0.00849998177 -0.557998803 0.062132 0.882561
-0.203623 0.506282 2.854511 0.792994972 -0.170798917 -0.584796292 0.060275 0.883341
-0.203249 0.505529 2.854819 -0.102803355 0.0593019351 -0.9929324 0.063079 0.886683
-0.202701 0.505554 2.853889 -0.860340011 0.0683031765 -0.505123491 0.064595 0.893061
-0.202598 0.506005 2.853962 -0.776798866 0.444799351 -0.445799349 0.062721 0.893899
-0.203189 0.505065 2.854842 -0.0809027289 -0.172205809 -0.981733114 0.064947 0.885893
-0.20369 0.504853 2.854433 0.808477064 0.158495504 -0.566783921 0.063994 0.881766
-0.202641 0.505091 2.853911 -0.812799557 -0.318599826 -0.487699734 0.066461 0.892216
-0.197131 0.510529 2.843732 0.266097736 0.589094987 -0.762993507 0.081386 0.960917
-0.197545 0.510617 2.84375 -0.416496147 0.36649661 -0.831992304 0.080561 0.959413
-0.19722 0.510745 2.843904 0.264710413 0.64902553 -0.713228055 0.08104 0.961571
-0.197322 0.510334 2.843579 -0.190213098 0.198013635 -0.961566211 0.081218 0.959093
-0.196973 0.51012 2.843559 0.100698388 0.110298234 -0.98878417 0.081954 0.959167
-0.196855 0.510413 2.843788 0.36440145 0.584202325 -0.725202886 0.081895 0.961375
-0.196659 0.510782 2.844307 0.406523719 0.665538832 -0.625936521 0.081931 0.965347
-0.197382 0.510956 2.844024 0.162900748 0.71450328 -0.680403123 0.080494 0.961328
-0.197604 0.511159 2.8443 -0.546735041 0.768749271 -0.331821267 0.079321 0.960192
-0.197257 0.511098 2.844256 0.231517779 0.749957591 -0.619647585 0.080309 0.962082
-0.19767 0.510909 2.843989 -0.559310476 0.570610688 -0.601311263 0.079887 0.959619
-0.197209 0.511281 2.844481 0.208292807 0.817671762 -0.536681466 0.07968 0.962083
-0.197116 0.511426 2.844888 -0.167700528 0.980003087 0.107100337 0.078133 0.961597
-0.196943 0.511266 2.844638 0.315606675 0.793516783 -0.520311005 0.079602 0.962943
-0.197433 0.511357 2.844618 -0.410500125 0.908300277 -0.0805000246 0.07865 0.960701
-0.196714 0.511314 2.844837 0.353605428 0.815312515 -0.458507038 0.078891 0.963382
-0.196367 0.511263 2.845169 0.410597027 0.894393525 0.177398716 0.077073 0.964123
-0.196463 0.51115 2.844826 0.430604666 0.746608089 -0.507105495 0.078955 0.964526
-0.196749 0.511414 2.845099 0.115303737 0.97253152 0.202206554 0.077485 0.962607
-0.196187 0.511034 2.844883 0.481508094 0.729812268 -0.485308158 0.078237 0.965907
-0.195795 0.510765 2.844978 0.786515675 0.603012018 -0.133302657 0.076348 0.968288
-0.196098 0.510818 2.844711 0.484921643 0.672730025 -0.558824941 0.078938 0.966941
-0.196018 0.511048 2.845149 0.643630264 0.762035832 0.0710033387 0.07652 0.966139
-0.195937 0.510607 2.844591 0.521308709 0.63391059 -0.571309544 0.085294 0.963125
-0.195736 0.510224 2.844428 0.787718263 0.324707528 -0.523512138 0.085502 0.960837
-0.196062 0.510465 2.844359 0.483475979 0.617369327 -0.620569168 0.084164 0.962483
-0.195669 0.510473 2.844739 0.831950605 0.449327331 -0.3255198 0.086734 0.962057
-0.195795 0.510765 2.844978 0.786515675 0.603012018 -0.133302657 0.087674 0.963648
-0.196098 0.510818 2.844711 0.484921643 0.672730025 -0.558824941 0.085064 0.964498
-0.196109 0.510282 2.844133 0.489822775 0.569126462 -0.660430707 0.083746 0.961456
-0.196224 0.509957 2.84384 0.551406021 0.138801516 -0.822608983 0.083566 0.959524
-0.196375 0.510297 2.843976 0.445109732 0.582512737 -0.680114871 0.082921 0.961586
-0.195907 0.510026 2.84411 0.698761709 0.209588515 -0.68396252 0.084544 0.959897
-0.196604 0.510249 2.843777 0.403302313 0.54400312 -0.73580422 0.082454 0.960899
-0.196591 0.509968 2.843629 0.343316888 0.0863042454 -0.935246006 0.082744 0.959126
-0.196608 0.509658 2.843715 0.22980312 -0.401605452 -0.886512034 0.083018 0.957881
-0.196223 0.509386 2.84408 0.512990251 -0.548989567 -0.659887459 0.08426 0.957345
-0.19665 0.509375 2.843894 0.178990236 -0.56866898 -0.802856205 0.083225 0.956985
-0.196188 0.509647 2.843915 0.54762854 -0.349918236 -0.760039611 0.083997 0.958217
-0.197042 0.509781 2.843634 -0.139606223 -0.375516739 -0.916240842 0.08209 0.95771
-0.197097 0.509471 2.843832 -0.184097955 -0.502094422 -0.844990612 0.08221 0.956739
-0.195849 0.509758 2.844214 0.794941135 -0.234512135 -0.559528954 0.085052 0.958739
-0.195664 0.509725 2.844711 0.944079051 -0.300093341 -0.136596969 0.08662 0.958476
-0.19588 0.509511 2.844369 0.776851565 -0.45753037 -0.432628717 0.08536 0.95783
-0.195635 0.509966 2.844559 0.952332408 -0.076902617 -0.295210046 0.08624 0.959539
-0.19559 0.510245 2.844901 0.993059079 0.116906955 0.0129007675 0.087619 0.960704
-0.195744 0.51029 2.845353 0.845648605 0.14370826 0.514029545 0.089777 0.960261
-0.195621 0.509999 2.845056 0.976232773 -0.0901030248 0.197106617 0.088135 0.959319
-0.195708 0.510551 2.845189 0.884446833 0.324317173 0.335517766 0.089094 0.962052
-0.195983 0.510835 2.845373 0.626402703 0.507102188 0.592002554 0.074992 0.965903
-0.196419 0.51075 2.845633 0.211702894 0.504406895 0.837111443 0.074478 0.963087
-0.196026 0.510552 2.845552 0.565088554 0.354292824 0.745084908 0.073746 0.965372
-0.196363 0.511059 2.845434 0.261202184 0.629005259 0.732206121 0.075588 0.963648
-0.195708 0.510551 2.845189 0.884446833 0.324317173 0.335517766 0.074423 0.968397
-0.195744 0.51029 2.845353 0.845648605 0.14370826 0.514029545 0.07303 0.967814
-0.196797 0.511182 2.845353 -0.116905681 0.677432921 0.726235292 0.076238 0.961874
-0.197315 0.510834 2.845391 -0.456710546 0.647814958 0.609714078 0.076078 0.959507
-0.196875 0.510846 2.845573 -0.138509417 0.600740843 0.78735353 0.075244 0.961119
-0.197217 0.511193 2.845153 -0.46668816 0.655183378 0.594084928 0.076951 0.960499
-0.197556 0.511082 2.844854 -0.742618246 0.56491388 0.359708838 0.07774 0.959445
-0.197879 0.510495 2.844761 -0.886239009 0.463220389 0.00270011885 0.078028 0.957427
-0.197663 0.510708 2.845103 -0.722529758 0.607325013 0.330313604 0.077019 0.958288
-0.197769 0.510875 2.844509 -0.912679178 0.405290753 0.0524988023 0.078576 0.958671
-0.197815 0.510595 2.844167 -0.936216997 0.189103433 -0.296205378 0.079432 0.958137
-0.197795 0.50993 2.844118 -0.782528602 -0.0649023722 -0.619222633 0.080123 0.956625
-0.197922 0.510221 2.844416 -0.914004529 0.230301141 -0.334001655 0.079069 0.956887
-0.197697 0.510289 2.84388 -0.791039949 -0.0486024545 -0.609830797 0.080304 0.957816
-0.197422 0.510005 2.843695 -0.498014858 -0.253707569 -0.829224741 0.081188 0.957681
-0.197499 0.509668 2.843915 -0.520922718 -0.332614506 -0.786134284 0.081173 0.956597
-0.201185 0.504443 2.852628 -0.355109265 -0.896623393 -0.264506901 0.072744 0.901002
-0.200795 0.504317 2.852854 -0.0264002137 -0.996208064 -0.0829006711 0.074568 0.900135
-0.199804 0.50451 2.851086 0.0443011939 -0.981926463 -0.184004959 0.077288 0.911748
-0.200197 0.504631 2.850867 -0.295093775 -0.892281178 -0.341692792 0.075517 0.912639
-0.200528 0.504907 2.850696 -0.593530244 -0.667234 -0.450022932 0.07375 0.913638
-0.201509 0.504726 2.852444 -0.630615192 -0.661115926 -0.406509793 0.070923 0.901939
-0.200397 0.50438 2.853091 0.30551358 -0.945742039 0.110604916 0.076405 0.899347
-0.200048 0.50461 2.853303 0.591387081 -0.753283545 0.287793713 0.078264 0.898637
-0.199061 0.504806 2.85154 0.6495929 -0.738691926 0.179898034 0.080903 0.910322
-0.199405 0.504576 2.851322 0.374095359 -0.927388496 -0.00179997767 0.079079 0.910976
-0.199809 0.504982 2.853454 0.788833629 -0.446719044 0.422117995 0.080154 0.898003
-0.199705 0.505433 2.853527 0.867328124 -0.0719023315 0.49251597 0.082059 0.897408
-0.198736 0.505622 2.85179 0.893043077 -0.0717034587 0.444221428 0.084662 0.909305
-0.198829 0.505176 2.851702 0.832776312 -0.439687493 0.336390432 0.082771 0.909784
-0.199766 0.505896 2.853504 0.814005071 0.315501966 0.487703038 0.053491 0.909501
-0.199968 0.506304 2.853396 0.636531159 0.65473205 0.407619953 0.055477 0.908942
-0.199018 0.50648 2.851691 0.611451811 0.650355107 0.450738193 0.058138 0.921138
-0.198806 0.506079 2.851784 0.816022192 0.313508526 0.485613206 0.056117 0.921632
-0.198736 0.505622 2.85179 0.893043077 -0.0717034587 0.444221428 0.054112 0.92209
-0.199705 0.505433 2.853527 0.867328124 -0.0719023315 0.49251597 0.051515 0.910034
-0.200293 0.506587 2.853212 0.361412265 0.894130343 0.264408973 0.05748 0.908332
-0.200682 0.506713 2.852986 0.0316009221 0.99622907 0.0808023578 0.059485 0.90764
-0.199742 0.506878 2.8513 -0.0345004715 0.982113421 0.185102529 0.062254 0.919897
-0.199349 0.506757 2.85152 0.310497266 0.885992199 0.344396968 0.060192 0.920575
-0.201081 0.506649 2.852749 -0.302913265 0.946041428 -0.115105041 0.061475 0.906838
-0.20143 0.50642 2.852537 -0.591410938 0.751213894 -0.293105421 0.063438 0.905942
-0.200485 0.506582 2.850847 -0.653067876 0.733363927 -0.188890709 0.066313 0.918092
-0.20014 0.506811 2.851064 -0.372217255 0.928143025 -0.00220010199 0.064303 0.919062
-0.201669 0.506047 2.852386 -0.789479276 0.441588408 -0.42628881 0.065363 0.904969
-0.201772 0.505597 2.852313 -0.866787393 0.0636990735 -0.494592806 0.067249 0.903955
-0.20081 0.505765 2.850597 -0.889491381 0.0491995233 -0.454295598 0.070146 0.915869
-0.200716 0.506211 2.850685 -0.835251578 0.426126314 -0.34752146 0.068261 0.917009
-0.201712 0.505133 2.852336 -0.810953805 -0.323521465 -0.487532346 0.069097 0.902933
-0.20074 0.505308 2.850603 -0.804550153 -0.335220897 -0.490230559 0.071967 0.91473
-0.198361 0.506323 2.84669 -0.0787008445 -0.679107287 -0.729807831 0.080999 0.938926
-0.197981 0.505961 2.847156 0.214116756 -0.862867526 -0.457835829 0.082419 0.936516
-0.198495 0.506041 2.847003 -0.150406777 -0.808236416 -0.569325652 0.080714 0.936849
-0.197868 0.506252 2.846827 0.272214869 -0.727639745 -0.629634392 0.082661 0.938704
-0.197641 0.50681 2.846356 0.308124501 -0.705656112 -0.638050737 0.082962 0.942024
-0.198094 0.506862 2.846226 -0.0367012262 -0.659822045 -0.750525075 0.081395 0.942132
-0.198522 0.507055 2.846196 -0.377524398 -0.516533382 -0.768549669 0.079842 0.94235
-0.198814 0.506552 2.846654 -0.420224229 -0.518429891 -0.744742939 0.079346 0.939251
-0.198967 0.506289 2.846953 -0.499725901 -0.628032552 -0.596530919 0.079012 0.937256
-0.197412 0.506364 2.847051 0.588728386 -0.663832007 -0.461222238 0.084362 0.938556
-0.19713 0.506352 2.847687 0.793399298 -0.604499465 -0.0713999368 0.085997 0.935965
-0.197504 0.506075 2.847398 0.542116898 -0.790924654 -0.283808846 0.084154 0.936229
-0.197055 0.506629 2.847323 0.83308276 -0.49528975 -0.246294903 0.08616 0.938454
-0.196911 0.507161 2.846833 0.846331273 -0.493518236 -0.200407405 0.086295 0.942061
-0.197227 0.506919 2.846571 0.614529271 -0.649330928 -0.44802134 0.084586 0.94201
-0.196863 0.507017 2.847604 0.971365691 -0.237516063 -0.00590039903 0.088114 0.938369
-0.196911 0.507233 2.848234 0.93494141 0.0115005094 0.354615706 0.090151 0.935443
-0.196926 0.506761 2.84798 0.93335513 -0.325319216 0.151708961 0.088027 0.935703
-0.196851 0.507462 2.847851 0.971425189 0.0793020563 0.223705801 0.090145 0.938293
-0.196756 0.507903 2.847346 0.936117758 0.0547010377 0.34740659 0.09 0.942251
-0.19675 0.507509 2.847105 0.96508341 -0.249395713 0.0800986231 0.088119 0.942147
-0.197035 0.507898 2.848025 0.818822493 0.406911178 0.404911123 0.063522 0.948564
-0.197454 0.508088 2.848477 0.51553952 0.638848973 0.571043775 0.064521 0.944817
-0.197101 0.507698 2.848406 0.788513917 0.353306236 0.503408885 0.06257 0.946202
-0.197374 0.508263 2.848103 0.53690076 0.682000965 0.496600703 0.065376 0.947103
-0.197271 0.508602 2.847595 0.446507077 0.625109908 0.640210147 0.066894 0.950149
-0.196941 0.508286 2.847516 0.750357191 0.367828035 0.549241862 0.065243 0.951717
-0.196756 0.507903 2.847346 0.936117758 0.0547010377 0.34740659 0.063599 0.953296
-0.196851 0.507462 2.847851 0.971425189 0.0793020563 0.223705801 0.061656 0.950053
-0.196911 0.507233 2.848234 0.93494141 0.0115005094 0.354615706 0.060594 0.947622
-0.197828 0.508492 2.848067 0.17981021 0.853648472 0.488827756 0.067205 0.945698
-0.198439 0.508416 2.848274 -0.203705038 0.8734216 0.442310938 0.068287 0.942273
-0.197926 0.508336 2.848428 0.163908585 0.820242961 0.548028704 0.066422 0.943506
-0.19832 0.508562 2.84793 -0.18970273 0.900712961 0.390805624 0.069005 0.944362
-0.198174 0.508847 2.847441 -0.262699095 0.816197188 0.514598227 0.070213 0.947146
-0.197708 0.508795 2.847567 0.0941015593 0.778212895 0.620910289 0.068557 0.948604
-0.198776 0.50845 2.847707 -0.521926426 0.824341737 0.219211099 0.070772 0.943109
-0.199291 0.508025 2.847744 -0.789400264 0.610900205 0.0604000202 0.071946 0.94008
-0.198917 0.508302 2.848032 -0.535998901 0.799098362 0.272299442 0.070126 0.941123
-0.199133 0.508185 2.847435 -0.769098727 0.639098942 -0.00629998957 0.072519 0.941992
-0.198909 0.508495 2.846965 -0.821208849 0.565006088 0.0799008609 0.073457 0.944731
-0.198592 0.508737 2.847227 -0.585887869 0.740784662 0.328593197 0.071843 0.945841
-0.199325 0.507797 2.847154 -0.894499092 0.367699627 -0.254299742 0.074258 0.941063
-0.19951 0.507144 2.847196 -0.926690446 -0.00469995154 -0.375796126 0.075534 0.938399
-0.199494 0.507616 2.84745 -0.928655962 0.331419972 -0.16661004 0.073751 0.939171
-0.199338 0.507352 2.846906 -0.870803496 0.0478001919 -0.489301965 0.075979 0.940307
-0.199059 0.507753 2.846451 -0.876706952 -0.00450003569 -0.481003814 0.076665 0.943185
-0.19907 0.508147 2.846693 -0.930170296 0.305423082 -0.203715395 0.075064 0.943855
-0.199153 0.506916 2.846733 -0.700841712 -0.264815761 -0.66233942 0.077674 0.939707
-0.199319 0.50668 2.847024 -0.775838836 -0.344117225 -0.528826471 0.077287 0.937767
-0.19886 0.50737 2.846278 -0.672015692 -0.293906863 -0.679715872 0.078262 0.942692
-0.19947 0.505091 2.849382 -0.230706453 -0.87412445 -0.427411955 0.07769 0.922417
-0.199066 0.504985 2.849579 0.121500357 -0.947802782 -0.294800865 0.079448 0.921597
-0.198543 0.505487 2.848406 0.141105542 -0.941836991 -0.30501198 0.081009 0.929106
-0.198972 0.505578 2.848232 -0.217706477 -0.876426074 -0.429512778 0.079253 0.929786
-0.199359 0.50582 2.848139 -0.558025932 -0.677531486 -0.479122265 0.077513 0.930507
-0.199821 0.505349 2.849247 -0.557843399 -0.664951732 -0.496638638 0.075943 0.923315
-0.198673 0.505844 2.847478 -0.212701538 -0.882006377 -0.42050304 0.080197 0.9342
-0.198193 0.505759 2.847641 0.146704299 -0.943127639 -0.298308742 0.081935 0.933698
-0.199111 0.506089 2.847411 -0.555535261 -0.692043925 -0.460929256 0.078469 0.934748
-0.19867 0.50506 2.849813 0.44919733 -0.884994739 -0.122499272 0.08124 0.92086
-0.198338 0.50529 2.850046 0.712443371 -0.698542525 0.0668040668 0.083068 0.920207
-0.197806 0.505813 2.848896 0.724014318 -0.68621357 0.0701013863 0.084656 0.927838
-0.198135 0.505574 2.84864 0.46832018 -0.873837655 -0.130705632 0.082809 0.928456
-0.197745 0.505862 2.847882 0.471524419 -0.873745248 -0.119306178 0.083708 0.933221
-0.197392 0.506124 2.84816 0.720489348 -0.687389837 0.0915986457 0.085564 0.932758
-0.198129 0.505653 2.850242 0.877408432 -0.40890393 0.250902411 0.084934 0.919639
-0.198065 0.506086 2.850375 0.912994212 -0.0507996779 0.404797434 0.086819 0.919113
-0.197581 0.506608 2.849321 0.890603001 -0.0493001661 0.452101524 0.088481 0.926679
-0.197616 0.506179 2.849134 0.874837934 -0.400017345 0.273211847 0.086555 0.92725
-0.197196 0.506515 2.848435 0.861087966 -0.40569433 0.306495717 0.087547 0.932301
-0.197176 0.506969 2.848665 0.865844155 -0.0646032945 0.496125301 0.089594 0.931847
-0.198165 0.506525 2.850419 0.801721607 0.323608721 0.502513543 0.058599 0.931182
-0.198405 0.506905 2.850373 0.556920821 0.645124118 0.523119557 0.060581 0.930551
-0.197999 0.507404 2.849432 0.489922143 0.614227761 0.61862796 0.06253 0.937389
-0.19772 0.507037 2.849423 0.756370085 0.311428857 0.575253303 0.060593 0.938273
-0.197581 0.506608 2.849321 0.890603001 -0.0493001661 0.452101524 0.058662 0.939158
-0.198065 0.506086 2.850375 0.912994212 -0.0507996779 0.404797434 0.056632 0.931791
-0.197347 0.50742 2.848812 0.725250276 0.283419647 0.627443496 0.061755 0.943025
-0.197672 0.5078 2.84886 0.458796857 0.574896062 0.677495359 0.063708 0.941862
-0.197176 0.506969 2.848665 0.865844155 -0.0646032945 0.496125301 0.05979 0.944213
-0.198756 0.507163 2.850238 0.222896406 0.857986165 0.462792538 0.062594 0.929876
-0.19916 0.507269 2.850041 -0.136408233 0.932356274 0.334820209 0.064618 0.929132
-0.198816 0.507737 2.849165 -0.214997222 0.86298885 0.457194093 0.066429 0.935633
-0.198386 0.507646 2.849339 0.144900622 0.805503456 0.574602465 0.064477 0.936509
-0.19811 0.508046 2.848794 0.115906789 0.760644552 0.638737412 0.065633 0.940748
-0.19859 0.50813 2.848631 -0.242601687 0.816305677 0.524203646 0.06754 0.939689
-0.199556 0.507195 2.849807 -0.468522094 0.868840971 0.160007545 0.066636 0.928294
-0.199888 0.506964 2.849574 -0.731953178 0.680349429 -0.0370026883 0.068618 0.927367
-0.199552 0.507411 2.848675 -0.78839197 0.609493792 0.0833991506 0.0703 0.93388
-0.199224 0.50765 2.848931 -0.537822027 0.793132483 0.285811706 0.068379 0.93476
-0.199038 0.508027 2.84839 -0.565725385 0.745633457 0.3521158 0.069435 0.938688
-0.199392 0.507766 2.848111 -0.814726503 0.56131826 0.14540473 0.071308 0.937747
-0.200096 0.506601 2.849378 -0.892100049 0.388800021 -0.230200013 0.070534 0.926355
-0.200161 0.506169 2.849245 -0.920495591 0.0272998692 -0.389798133 0.072388 0.925311
-0.199777 0.506617 2.84825 -0.949825983 -0.0130003556 -0.312508549 0.073987 0.932103
-0.199742 0.507045 2.848438 -0.934927015 0.331409576 -0.126803664 0.072167 0.932982
-0.199587 0.507375 2.847837 -0.955636616 0.28551094 -0.0724027742 0.073147 0.936866
-0.199608 0.506921 2.847606 -0.961827812 -0.0518014979 -0.26870777 0.074953 0.936065
-0.200061 0.50573 2.849202 -0.803674597 -0.345432063 -0.484544975 0.074183 0.924289
-0.199638 0.506187 2.848148 -0.818403192 -0.370801446 -0.439001712 0.075763 0.931278
-0.199436 0.50647 2.847459 -0.82173949 -0.397619108 -0.408219617 0.076723 0.935364
-0.19752 0.507833 2.845299 0.0199005726 -0.698820109 -0.715020575 0.08225 0.948165
-0.197085 0.50781 2.845449 0.361005953 -0.731912069 -0.57790953 0.083628 0.948236
-0.196525 0.508767 2.844577 0.420098206 -0.724696906 -0.546197668 0.084245 0.954155
-0.196954 0.508762 2.844402 0.0870026841 -0.706721803 -0.702121661 0.083058 0.953912
-0.19742 0.508868 2.844352 -0.253798263 -0.594495931 -0.762994777 0.08186 0.953711
-0.197963 0.507979 2.845261 -0.320518145 -0.574232508 -0.753342648 0.080874 0.948168
-0.196715 0.509176 2.844028 0.146502595 -0.648811491 -0.746713224 0.08331 0.956257
-0.196286 0.509192 2.844211 0.475600675 -0.65480093 -0.587400834 0.084399 0.956591
-0.197177 0.509266 2.843974 -0.202401716 -0.549204657 -0.810806876 0.082219 0.955987
-0.196707 0.507926 2.845691 0.652219733 -0.665620139 -0.362710974 0.085078 0.948396
-0.19644 0.508152 2.845983 0.859434924 -0.503420457 -0.0891036208 0.08664 0.948621
-0.195944 0.509109 2.845182 0.877519648 -0.478410712 -0.0329007367 0.086927 0.954868
-0.196172 0.508892 2.844853 0.693485125 -0.64708612 -0.316793205 0.085512 0.954478
-0.195942 0.509321 2.844497 0.738698711 -0.575798995 -0.350399389 0.08556 0.957016
-0.195726 0.509536 2.844838 0.908167311 -0.415030761 -0.0546040471 0.086884 0.957536
-0.196332 0.508463 2.846283 0.943314763 -0.256604016 0.210503294 0.088355 0.948887
-0.196388 0.508805 2.846545 0.873729554 0.0429014512 0.484516389 0.090145 0.949172
-0.195991 0.509694 2.845806 0.836484333 0.066098762 0.543989811 0.090297 0.955788
-0.195884 0.509392 2.845516 0.934452807 -0.229912993 0.271915366 0.088558 0.955314
-0.195683 0.509809 2.845184 0.946272133 -0.183894584 0.265992167 0.088466 0.958157
-0.195807 0.510097 2.845484 0.827317663 0.0860018362 0.555111852 0.090176 0.958828
-0.196613 0.509129 2.846727 0.652120549 0.343910837 0.675621289 0.068365 0.957264
-0.196978 0.509386 2.846811 0.335017547 0.579230338 0.743138923 0.069698 0.955386
-0.196665 0.510178 2.84609 0.261018818 0.576941593 0.773955796 0.072427 0.960313
-0.196259 0.509969 2.846002 0.589195799 0.356897455 0.724894832 0.071403 0.9625
-0.195991 0.509694 2.845806 0.836484333 0.066098762 0.543989811 0.070393 0.9647
-0.196388 0.508805 2.846545 0.873729554 0.0429014512 0.484516389 0.067046 0.95914
-0.196091 0.510354 2.845686 0.561779234 0.343787292 0.752472185 0.072873 0.96472
-0.196499 0.510545 2.845774 0.221796425 0.539591302 0.812186908 0.073723 0.962427
-0.195807 0.510097 2.845484 0.827317663 0.0860018362 0.555111852 0.072037 0.967087
-0.197457 0.50953 2.846782 0.00069999299 0.711492874 0.702692963 0.071055 0.953505
-0.197946 0.50955 2.846646 -0.337192902 0.741484392 0.580087789 0.072429 0.951815
-0.197695 0.510272 2.8459 -0.387807993 0.743715328 0.544511222 0.074564 0.956287
-0.197185 0.510281 2.846055 -0.0650009217 0.704209986 0.707010025 0.073477 0.958149
-0.196997 0.510633 2.845729 -0.110801058 0.674506442 0.729906971 0.074598 0.960283
-0.19748 0.510614 2.845561 -0.417990593 0.744983234 0.5198883 0.075532 0.958477
-0.198341 0.509433 2.846408 -0.649444096 0.663245033 0.371925253 0.073807 0.950512
-0.198609 0.509207 2.846116 -0.867541795 0.486623444 0.102804953 0.075188 0.949543
-0.198303 0.509929 2.845302 -0.866152707 0.49973041 0.00700042599 0.076864 0.954173
-0.198074 0.510146 2.845631 -0.676818677 0.673618589 0.296908193 0.0757 0.955004
-0.197842 0.510484 2.845279 -0.673564817 0.703367685 0.227121856 0.076555 0.957202
-0.198058 0.510269 2.844939 -0.830859076 0.549639081 -0.0870061864 0.077634 0.956364
-0.198717 0.508897 2.845817 -0.953796504 0.223499181 -0.200799264 0.076567 0.948859
-0.198643 0.508555 2.84555 -0.863923853 -0.0974026893 -0.494113643 0.077971 0.94843
-0.198229 0.509345 2.844671 -0.812855536 -0.107607352 -0.57243911 0.079255 0.953457
-0.198362 0.509646 2.844968 -0.926328244 0.230707034 -0.29780908 0.078035 0.953666
-0.198101 0.509996 2.844593 -0.869717247 0.296705884 -0.394407821 0.078736 0.955869
-0.197959 0.509709 2.844288 -0.75839625 -0.0377998131 -0.650696782 0.079873 0.95568
-0.198364 0.508234 2.845354 -0.622812257 -0.377607431 -0.685213485 0.079427 0.948228
-0.19788 0.509074 2.844454 -0.558240485 -0.40042904 -0.726652699 0.080561 0.953516
-0.197622 0.509455 2.844071 -0.516203446 -0.345002303 -0.783905233 0.081054 0.955757
3 0 1 2
3 0 3 1
3 0 4 3
3 0 5 4
3 0 6 5
3 0 7 6
3 0 8 7
3 0 2 8
3 9 8 2
3 9 10 8
3 9 11 10
3 9 12 11
3 9 13 12
3 9 14 13
3 9 1 14
3 9 2 1
3 15 11 12
3 15 16 11
3 15 17 16
3 15 18 17
3 15 19 18
3 15 20 19
3 15 13 20
3 15 12 13
3 21 17 18
3 21 22 17
3 21 23 22
3 21 24 23
3 21 25 24
3 21 26 25
3 21 19 26
3 21 18 19
3 27 6 7
3 27 28 6
3 27 29 28
3 27 30 29
3 27 31 30
3 27 32 31
3 27 8 32
3 27 7 8
3 33 8 10
3 33 32 8
3 33 31 32
3 33 34 31
3 33 35 34
3 33 36 35
3 33 11 36
3 33 10 11
3 37 11 16
3 37 36 11
3 37 35 36
3 37 38 35
3 37 39 38
3 37 40 39
3 37 17 40
3 37 16 17
3 41 17 22
3 41 40 17
3 41 39 40
3 41 42 39
3 41 43 42
3 41 44 43
3 41 23 44
3 41 22 23
3 45 46 47
3 45 48 46
3 45 49 48
3 45 50 49
3 45 31 50
3 45 30 31
3 45 29 30
3 45 47 29
3 51 49 50
3 51 52 49
3 51 53 52
3 51 54 53
3 51 35 54
3 51 34 35
3 51 31 34
3 51 50 31
3 55 53 54
3 55 56 53
3 55 57 56
3 55 58 57
3 55 39 58
3 55 38 39
3 55 35 38
3 55 54 35
3 59 57 58
3 59 60 57
3 59 61 60
3 59 62 61
3 59 43 62
3 59 42 43
3 59 39 42
3 59 58 39
3 63 64 65
3 63 66 64
3 63 67 66
3 63 68 67
3 63 69 68
3 63 70 69
3 63 71 70
3 63 65 71
3 72 71 73
3 72 70 71
3 72 69 70
3 72 74 69
3 72 75 74
3 72 76 75
3 72 77 76
3 72 73 77
3 78 77 79
3 78 76 77
3 78 75 76
3 78 80 75
3 78 81 80
3 78 82 81
3 78 83 82
3 78 79 83
3 84 83 85
3 84 82 83
3 84 81 82
3 84 86 81
3 84 87 86
3 84 88 87
3 84 89 88
3 84 85 89
3 90 91 92
3 90 93 91
3 90 94 93
3 90 95 94
3 90 69 95
3 90 68 69
3 90 67 68
3 90 92 67
3 96 94 95
3 96 97 94
3 96 98 97
3 96 99 98
3 96 75 99
3 96 74 75
3 96 69 74
3 96 95 69
3 100 98 99
3 100 101 98
3 100 102 101
3 100 103 102
3 100 81 103
3 100 80 81
3 100 75 80
3 100 99 75
3 104 102 103
3 104 105 102
3 104 106 105
3 104 107 106
3 104 87 107
3 104 86 87
3 104 81 86
3 104 103 81
3 108 109 110
3 108 111 109
3 108 112 111
3 108 113 112
3 108 94 113
3 108 93 94
3 108 91 93
3 108 110 91
3 114 112 113
3 114 115 112
3 114 116 115
3 114 117 116
3 114 98 117
3 114 97 98
3 114 94 97
3 114 113 94
3 118 116 117
3 118 119 116
3 118 120 119
3 118 121 120
3 118 102 121
3 118 101 102
3 118 98 101
3 118 117 98
3 122 120 121
3 122 123 120
3 122 124 123
3 122 125 124
3 122 106 125
3 122 105 106
3 122 102 105
3 122 121 102
3 126 109 111
3 126 127 109
3 126 128 127
3 126 129 128
3 126 130 129
3 126 131 130
3 126 112 131
3 126 111 112
3 132 112 115
3 132 131 112
3 132 130 131
3 132 133 130
3 132 134 133
3 132 135 134
3 132 116 135
3 132 115 116
3 136 116 119
3 136 135 116
3 136 134 135
3 136 137 134
3 136 138 137
3 136 139 138
3 136 120 139
3 136 119 120
3 140 120 123
3 140 139 120
3 140 138 139
3 140 141 138
3 140 142 141
3 140 143 142
3 140 124 143
3 140 123 124
3 144 4 145
3 144 3 4
3 144 1 3
3 144 146 1
3 144 130 146
3 144 129 130
3 144 128 129
3 144 145 128
3 147 1 146
3 147 14 1
3 147 13 14
3 147 148 13
3 147 134 148
3 147 133 134
3 147 130 133
3 147 146 130
3 149 13 148
3 149 20 13
3 149 19 20
3 149 150 19
3 149 138 150
3 149 137 138
3 149 134 137
3 149 148 134
3 151 19 150
3 151 26 19
3 151 25 26
3 151 152 25
3 151 142 152
3 151 141 142
3 151 138 141
3 151 150 138
3 153 142 154
3 153 152 142
3 153 25 152
3 153 155 25
3 153 156 155
3 153 157 156
3 153 158 157
3 153 154 158
3 159 142 143
3 159 154 142
3 159 158 154
3 159 160 158
3 159 161 160
3 159 162 161
3 159 124 162
3 159 143 124
3 163 106 164
3 163 125 106
3 163 124 125
3 163 162 124
3 163 161 162
3 163 165 161
3 163 166 165
3 163 164 166
3 167 87 168
3 167 107 87
3 167 106 107
3 167 164 106
3 167 166 164
3 167 169 166
3 167 170 169
3 167 168 170
3 171 87 88
3 171 168 87
3 171 170 168
3 171 172 170
3 171 173 172
3 171 174 173
3 171 89 174
3 171 88 89
3 175 43 176
3 175 62 43
3 175 61 62
3 175 177 61
3 175 178 177
3 175 179 178
3 175 180 179
3 175 176 180
3 181 43 44
3 181 176 43
3 181 180 176
3 181 182 180
3 181 183 182
3 181 184 183
3 181 23 184
3 181 44 23
3 185 25 155
3 185 24 25
3 185 23 24
3 185 184 23
3 185 183 184
3 185 186 183
3 185 156 186
3 185 155 156
3 187 156 188
3 187 186 156
3 187 183 186
3 187 189 183
3 187 190 189
3 187 191 190
3 187 192 191
3 187 188 192
3 193 180 182
3 193 194 180
3 193 195 194
3 193 196 195
3 193 190 196
3 193 189 190
3 193 183 189
3 193 182 183
3 197 180 194
3 197 179 180
3 197 178 179
3 197 198 178
3 197 199 198
3 197 200 199
3 197 195 200
3 197 194 195
3 201 170 172
3 201 202 170
3 201 203 202
3 201 204 203
3 201 205 204
3 201 206 205
3 201 173 206
3 201 172 173
3 207 170 202
3 207 169 170
3 207 166 169
3 207 208 166
3 207 209 208
3 207 210 209
3 207 203 210
3 207 202 203
3 211 166 208
3 211 165 166
3 211 161 165
3 211 212 161
3 211 213 212
3 211 214 213
3 211 209 214
3 211 208 209
3 215 158 160
3 215 216 158
3 215 217 216
3 215 218 217
3 215 213 218
3 215 212 213
3 215 161 212
3 215 160 161
3 219 158 216
3 219 157 158
3 219 156 157
3 219 188 156
3 219 192 188
3 219 220 192
3 219 217 220
3 219 216 217
3 221 217 222
3 221 220 217
3 221 192 220
3 221 223 192
3 221 224 223
3 221 225 224
3 221 226 225
3 221 222 226
3 227 217 218
3 227 222 217
3 227 226 222
3 227 228 226
3 227 229 228
3 227 230 229
3 227 213 230
3 227 218 213
3 231 209 232
3 231 214 209
3 231 213 214
3 231 230 213
3 231 229 230
3 231 233 229
3 231 234 233
3 231 232 234
3 235 203 236
3 235 210 203
3 235 209 210
3 235 232 209
3 235 234 232
3 235 237 234
3 235 238 237
3 235 236 238
3 239 203 204
3 239 236 203
3 239 238 236
3 239 240 238
3 239 241 240
3 239 242 241
3 239 205 242
3 239 204 205
3 243 195 244
3 243 200 195
3 243 199 200
3 243 245 199
3 243 246 245
3 243 247 246
3 243 248 247
3 243 244 248
3 249 195 196
3 249 244 195
3 249 248 244
3 249 250 248
3 249 251 250
3 249 252 251
3 249 190 252
3 249 196 190
3 253 192 223
3 253 191 192
3 253 190 191
3 253 252 190
3 253 251 252
3 253 254 251
3 253 224 254
3 253 223 224
3 255 6 256
3 255 5 6
3 255 4 5
3 255 257 4
3 255 258 257
3 255 259 258
3 255 260 259
3 255 256 260
3 261 6 28
3 261 256 6
3 261 260 256
3 261 262 260
3 261 263 262
3 261 264 263
3 261 29 264
3 261 28 29
3 265 46 266
3 265 47 46
3 265 29 47
3 265 264 29
3 265 263 264
3 265 267 263
3 265 268 267
3 265 266 268
3 269 64 66
3 269 270 64
3 269 271 270
3 269 272 271
3 269 273 272
3 269 274 273
3 269 67 274
3 269 66 67
3 275 91 276
3 275 92 91
3 275 67 92
3 275 274 67
3 275 273 274
3 275 277 273
3 275 278 277
3 275 276 278
3 279 109 280
3 279 110 109
3 279 91 110
3 279 276 91
3 279 278 276
3 279 281 278
3 279 282 281
3 279 280 282
3 283 109 127
3 283 280 109
3 283 282 280
3 283 284 282
3 283 285 284
3 283 286 285
3 283 128 286
3 283 127 128
3 287 4 257
3 287 145 4
3 287 128 145
3 287 286 128
3 287 285 286
3 287 288 285
3 287 258 288
3 287 257 258
3 289 258 290
3 289 288 258
3 289 285 288
3 289 291 285
3 289 292 291
3 289 293 292
3 289 294 293
3 289 290 294
3 295 282 284
3 295 296 282
3 295 297 296
3 295 298 297
3 295 292 298
3 295 291 292
3 295 285 291
3 295 284 285
3 299 282 296
3 299 281 282
3 299 278 281
3 299 300 278
3 299 301 300
3 299 302 301
3 299 297 302
3 299 296 297
3 303 278 300
3 303 277 278
3 303 273 277
3 303 304 273
3 303 305 304
3 303 306 305
3 303 301 306
3 303 300 301
3 307 271 272
3 307 308 271
3 307 309 308
3 307 310 309
3 307 305 310
3 307 304 305
3 307 273 304
3 307 272 273
3 311 268 312
3 311 267 268
3 311 263 267
3 311 313 263
3 311 314 313
3 311 315 314
3 311 316 315
3 311 312 316
3 317 260 262
3 317 318 260
3 317 319 318
3 317 320 319
3 317 314 320
3 317 313 314
3 317 263 313
3 317 262 263
3 321 260 318
3 321 259 260
3 321 258 259
3 321 290 258
3 321 294 290
3 321 322 294
3 321 319 322
3 321 318 319
3 323 319 324
3 323 322 319
3 323 294 322
3 323 325 294
3 323 326 325
3 323 327 326
3 323 328 327
3 323 324 328
3 329 319 320
3 329 324 319
3 329 328 324
3 329 330 328
3 329 331 330
3 329 332 331
3 329 314 332
3 329 320 314
3 333 316 334
3 333 315 316
3 333 314 315
3 333 332 314
3 333 331 332
3 333 335 331
3 333 336 335
3 333 334 336
3 337 309 310
3 337 338 309
3 337 339 338
3 337 340 339
3 337 341 340
3 337 342 341
3 337 305 342
3 337 310 305
3 343 301 344
3 343 306 301
3 343 305 306
3 343 342 305
3 343 341 342
3 343 345 341
3 343 346 345
3 343 344 346
3 347 297 348
3 347 302 297
3 347 301 302
3 347 344 301
3 347 346 344
3 347 349 346
3 347 350 349
3 347 348 350
3 351 297 298
3 351 348 297
3 351 350 348
3 351 352 350
3 351 353 352
3 351 354 353
3 351 292 354
3 351 298 292
3 355 294 325
3 355 293 294
3 355 292 293
3 355 354 292
3 355 353 354
3 355 356 353
3 355 326 356
3 355 325 326
3 357 326 358
3 357 356 326
3 357 353 356
3 357 359 353
3 357 360 359
3 357 358 360
3 361 353 359
3 361 352 353
3 361 350 352
3 361 362 350
3 361 360 362
3 361 359 360
3 363 350 362
3 363 349 350
3 363 346 349
3 363 364 346
3 363 360 364
3 363 362 360
3 365 346 364
3 365 345 346
3 365 341 345
3 365 366 341
3 365 360 366
3 365 364 360
3 367 341 366
3 367 340 341
3 367 339 340
3 367 368 339
3 367 360 368
3 367 366 360
3 369 336 370
3 369 335 336
3 369 331 335
3 369 371 331
3 369 360 371
3 369 370 360
3 372 331 371
3 372 330 331
3 372 328 330
3 372 373 328
3 372 360 373
3 372 371 360
3 374 328 373
3 374 327 328
3 374 326 327
3 374 358 326
3 374 360 358
3 374 373 360
3 375 376 377
3 375 378 376
3 375 379 378
3 375 380 379
3 375 381 380
3 375 382 381
3 375 383 382
3 375 377 383
3 384 385 386
3 384 387 385
3 384 388 387
3 384 389 388
3 384 379 389
3 384 378 379
3 384 376 378
3 384 386 376
3 390 391 392
3 390 393 391
3 390 394 393
3 390 395 394
3 390 388 395
3 390 387 388
3 390 385 387
3 390 392 385
3 396 397 398
3 396 399 397
3 396 400 399
3 396 401 400
3 396 402 401
3 396 403 402
3 396 404 403
3 396 398 404
3 405 406 407
3 405 408 406
3 405 409 408
3 405 410 409
3 405 400 410
3 405 399 400
3 405 397 399
3 405 407 397
3 411 412 413
3 411 414 412
3 411 415 414
3 411 416 415
3 411 409 416
3 411 408 409
3 411 406 408
3 411 413 406
3 417 418 419
3 417 420 418
3 417 421 420
3 417 422 421
3 417 415 422
3 417 414 415
3 417 412 414
3 417 419 412
3 423 383 424
3 423 382 383
3 423 381 382
3 423 425 381
3 423 421 425
3 423 420 421
3 423 418 420
3 423 424 418
3 426 427 428
3 426 429 427
3 426 430 429
3 426 431 430
3 426 432 431
3 426 428 432
3 433 434 435
3 433 436 434
3 433 427 436
3 433 428 427
3 433 432 428
3 433 435 432
3 437 438 439
3 437 440 438
3 437 434 440
3 437 435 434
3 437 432 435
3 437 439 432
3 441 442 443
3 441 444 442
3 441 438 444
3 441 439 438
3 441 432 439
3 441 443 432
3 445 446 447
3 445 448 446
3 445 442 448
3 445 443 442
3 445 432 443
3 445 447 432
3 449 450 451
3 449 452 450
3 449 453 452
3 449 454 453
3 449 432 454
3 449 451 432
3 455 456 457
3 455 458 456
3 455 450 458
3 455 451 450
3 455 432 451
3 455 457 432
3 459 430 431
3 459 460 430
3 459 456 460
3 459 457 456
3 459 432 457
3 459 431 432
3 461 462 463
3 461 464 462
3 461 456 464
3 461 460 456
3 461 430 460
3 461 465 430
3 461 466 465
3 461 463 466
3 467 468 469
3 467 470 468
3 467 450 470
3 467 458 450
3 467 456 458
3 467 464 456
3 467 462 464
3 467 469 462
3 471 472 473
3 471 474 472
3 471 453 474
3 471 452 453
3 471 450 452
3 471 470 450
3 471 468 470
3 471 473 468
3 475 476 477
3 475 478 476
3 475 442 478
3 475 448 442
3 475 446 448
3 475 479 446
3 475 480 479
3 475 477 480
3 481 482 483
3 481 484 482
3 481 438 484
3 481 444 438
3 481 442 444
3 481 478 442
3 481 476 478
3 481 483 476
3 485 486 487
3 485 488 486
3 485 434 488
3 485 440 434
3 485 438 440
3 485 484 438
3 485 482 484
3 485 487 482
3 489 490 491
3 489 492 490
3 489 427 492
3 489 436 427
3 489 434 436
3 489 488 434
3 489 486 488
3 489 491 486
3 493 466 494
3 493 465 466
3 493 430 465
3 493 429 430
3 493 427 429
3 493 492 427
3 493 490 492
3 493 494 490
3 495 379 380
3 495 496 379
3 495 497 496
3 495 498 497
3 495 499 498
3 495 500 499
3 495 381 500
3 495 380 381
3 501 388 389
3 501 502 388
3 501 503 502
3 501 504 503
3 501 497 504
3 501 496 497
3 501 379 496
3 501 389 379
3 505 394 395
3 505 506 394
3 505 507 506
3 505 508 507
3 505 503 508
3 505 502 503
3 505 388 502
3 505 395 388
3 509 400 401
3 509 510 400
3 509 511 510
3 509 512 511
3 509 513 512
3 509 514 513
3 509 402 514
3 509 401 402
3 515 409 410
3 515 516 409
3 515 517 516
3 515 518 517
3 515 511 518
3 515 510 511
3 515 400 510
3 515 410 400
3 519 415 416
3 519 520 415
3 519 521 520
3 519 522 521
3 519 517 522
3 519 516 517
3 519 409 516
3 519 416 409
3 523 421 422
3 523 524 421
3 523 525 524
3 523 526 525
3 523 521 526
3 523 520 521
3 523 415 520
3 523 422 415
3 527 381 425
3 527 500 381
3 527 499 500
3 527 528 499
3 527 525 528
3 527 524 525
3 527 421 524
3 527 425 421
3 529 530 531
3 529 532 530
3 529 533 532
3 529 534 533
3 529 535 534
3 529 536 535
3 529 537 536
3 529 531 537
3 538 539 540
3 538 541 539
3 538 542 541
3 538 543 542
3 538 533 543
3 538 532 533
3 538 530 532
3 538 540 530
3 544 545 546
3 544 547 545
3 544 548 547
3 544 549 548
3 544 542 549
3 544 541 542
3 544 539 541
3 544 546 539
3 550 551 552
3 550 553 551
3 550 554 553
3 550 555 554
3 550 556 555
3 550 557 556
3 550 558 557
3 550 552 558
3 559 560 561
3 559 562 560
3 559 563 562
3 559 564 563
3 559 554 564
3 559 553 554
3 559 551 553
3 559 561 551
3 565 566 567
3 565 568 566
3 565 569 568
3 565 570 569
3 565 563 570
3 565 562 563
3 565 560 562
3 565 567 560
3 571 572 573
3 571 574 572
3 571 575 574
3 571 576 575
3 571 569 576
3 571 568 569
3 571 566 568
3 571 573 566
3 577 537 578
3 577 536 537
3 577 535 536
3 577 579 535
3 577 575 579
3 577 574 575
3 577 572 574
3 577 578 572
3 580 497 498
3 580 581 497
3 580 582 581
3 580 583 582
3 580 584 583
3 580 585 584
3 580 499 585
3 580 498 499
3 586 582 583
3 586 587 582
3 586 530 587
3 586 531 530
3 586 537 531
3 586 588 537
3 586 584 588
3 586 583 584
3 589 503 504
3 589 590 503
3 589 591 590
3 589 592 591
3 589 582 592
3 589 581 582
3 589 497 581
3 589 504 497
3 593 591 592
3 593 594 591
3 593 539 594
3 593 540 539
3 593 530 540
3 593 587 530
3 593 582 587
3 593 592 582
3 595 507 508
3 595 596 507
3 595 597 596
3 595 598 597
3 595 591 598
3 595 590 591
3 595 503 590
3 595 508 503
3 599 597 598
3 599 600 597
3 599 545 600
3 599 546 545
3 599 539 546
3 599 594 539
3 599 591 594
3 599 598 591
3 601 511 512
3 601 602 511
3 601 603 602
3 601 604 603
3 601 605 604
3 601 606 605
3 601 513 606
3 601 512 513
3 607 603 604
3 607 608 603
3 607 551 608
3 607 552 551
3 607 558 552
3 607 609 558
3 607 605 609
3 607 604 605
3 610 517 518
3 610 611 517
3 610 612 611
3 610 613 612
3 610 603 613
3 610 602 603
3 610 511 602
3 610 518 511
3 614 612 613
3 614 615 612
3 614 560 615
3 614 561 560
3 614 551 561
3 614 608 551
3 614 603 608
3 614 613 603
3 616 521 522
3 616 617 521
3 616 618 617
3 616 619 618
3 616 612 619
3 616 611 612
3 616 517 611
3 616 522 517
3 620 618 619
3 620 621 618
3 620 566 621
3 620 567 566
3 620 560 567
3 620 615 560
3 620 612 615
3 620 619 612
3 622 525 526
3 622 623 525
3 622 624 623
3 622 625 624
3 622 618 625
3 622 617 618
3 622 521 617
3 622 526 521
3 626 624 625
3 626 627 624
3 626 572 627
3 626 573 572
3 626 566 573
3 626 621 566
3 626 618 621
3 626 625 618
3 628 499 528
3 628 585 499
3 628 584 585
3 628 629 584
3 628 624 629
3 628 623 624
3 628 525 623
3 628 528 525
3 630 584 629
3 630 588 584
3 630 537 588
3 630 578 537
3 630 572 578
3 630 627 572
3 630 624 627
3 630 629 624
3 631 533 534
3 631 632 533
3 631 633 632
3 631 634 633
3 631 635 634
3 631 636 635
3 631 535 636
3 631 534 535
3 637 633 634
3 637 638 633
3 637 462 638
3 637 463 462
3 637 466 463
3 637 639 466
3 637 635 639
3 637 634 635
3 640 542 543
3 640 641 542
3 640 642 641
3 640 643 642
3 640 633 643
3 640 632 633
3 640 533 632
3 640 543 533
3 644 642 643
3 644 645 642
3 644 468 645
3 644 469 468
3 644 462 469
3 644 638 462
3 644 633 638
3 644 643 633
3 646 548 549
3 646 647 548
3 646 648 647
3 646 649 648
3 646 642 649
3 646 641 642
3 646 542 641
3 646 549 542
3 650 648 649
3 650 651 648
3 650 472 651
3 650 473 472
3 650 468 473
3 650 645 468
3 650 642 645
3 650 649 642
3 652 554 555
3 652 653 554
3 652 654 653
3 652 655 654
3 652 656 655
3 652 657 656
3 652 556 657
3 652 555 556
3 658 654 655
3 658 659 654
3 658 476 659
3 658 477 476
3 658 480 477
3 658 660 480
3 658 656 660
3 658 655 656
3 661 563 564
3 661 662 563
3 661 663 662
3 661 664 663
3 661 654 664
3 661 653 654
3 661 554 653
3 661 564 554
3 665 663 664
3 665 666 663
3 665 482 666
3 665 483 482
3 665 476 483
3 665 659 476
3 665 654 659
3 665 664 654
3 667 569 570
3 667 668 569
3 667 669 668
3 667 670 669
3 667 663 670
3 667 662 663
3 667 563 662
3 667 570 563
3 671 669 670
3 671 672 669
3 671 486 672
3 671 487 486
3 671 482 487
3 671 666 482
3 671 663 666
3 671 670 663
3 673 575 576
3 673 674 575
3 673 675 674
3 673 676 675
3 673 669 676
3 673 668 669
3 673 569 668
3 673 576 569
3 677 675 676
3 677 678 675
3 677 490 678
3 677 491 490
3 677 486 491
3 677 672 486
3 677 669 672
3 677 676 669
3 679 535 579
3 679 636 535
3 679 635 636
3 679 680 635
3 679 675 680
3 679 674 675
3 679 575 674
3 679 579 575
3 681 635 680
3 681 639 635
3 681 466 639
3 681 494 466
3 681 490 494
3 681 678 490
3 681 675 678
3 681 680 675
