ply
format ascii 1.0
element vertex 682
property float x
property float y
property float z
property float nx
property float ny
property float nz
property float u
property float v
element face 1248
property list uchar int vertex_indices
end_header
-0.266392 0.537329 2.970707 0.596914547 0.788119207 -0.150203661 0.403492 0.546204
-0.27505 0.538283 2.959256 0.340118289 0.82274424 -0.455424489 0.433635 0.513194
-0.271609 0.540814 2.971998 0.433198811 0.894597544 -0.109699699 0.399463 0.519357
-0.269541 0.535012 2.959042 0.512847859 0.722767448 -0.46324323 0.435953 0.537625
-0.264831 0.531026 2.959373 0.636040794 0.622339915 -0.456229261 0.439153 0.561082
-0.262059 0.533064 2.969637 0.710565986 0.680667417 -0.178291465 0.408968 0.571515
-0.259693 0.531068 2.98001 0.775093016 0.623494382 0.102399077 0.376618 0.588584
-0.263703 0.53506 2.982495 0.669475273 0.724073257 0.165893873 0.367763 0.560777
-0.268672 0.538336 2.984877 0.513103743 0.824206013 0.239601748 0.361059 0.530544
-0.278059 0.543317 2.973598 0.259510981 0.963440769 -0.0666028184 0.396406 0.488317
-0.274968 0.540709 2.987151 0.343512562 0.889432527 0.301511026 0.356013 0.494949
-0.28218 0.542071 2.98919 0.186302501 0.919512345 0.346104646 0.353454 0.456757
-0.285324 0.544723 2.975404 0.101407169 0.994470307 -0.0273019302 0.394845 0.455258
-0.289007 0.542014 2.961763 0.00139998774 0.917991958 -0.396596526 0.43086 0.455328
-0.28168 0.540653 2.960189 0.161204797 0.887926421 -0.430812819 0.431825 0.485204
-0.292986 0.544919 2.977311 -0.0539986984 0.998475932 0.0113997252 0.395306 0.422355
-0.289896 0.542311 2.990864 0.029402121 0.924466689 0.380127421 0.354217 0.418737
-0.29727 0.541406 2.991989 -0.155398025 0.899888562 0.407494821 0.357649 0.383163
-0.300206 0.543884 2.97911 -0.234495139 0.970479882 0.0563988309 0.397454 0.391399
-0.303647 0.541353 2.966368 -0.329120121 0.898454929 -0.290617767 0.432329 0.39669
-0.296607 0.542256 2.963901 -0.15311044 0.922962934 -0.353124079 0.431077 0.425244
-0.306143 0.541596 2.980593 -0.434294532 0.894488738 0.106198663 0.400952 0.364181
-0.303455 0.539327 2.992382 -0.363481338 0.830957336 0.421178375 0.363101 0.352311
-0.308787 0.536208 2.992166 -0.541315195 0.730920517 0.415611666 0.370853 0.322286
-0.311141 0.538194 2.981844 -0.601345794 0.785159792 0.148011271 0.405938 0.337066
-0.313898 0.536165 2.971632 -0.673706006 0.729806506 -0.116201036 0.437515 0.346047
-0.309293 0.539279 2.968929 -0.519338513 0.829661526 -0.204815189 0.43447 0.371408
-0.261937 0.528203 2.992555 0.716824512 0.542418548 0.438114982 0.327601 0.583332
-0.258139 0.525034 2.988863 0.817124592 0.462413917 0.344210359 0.341544 0.61415
-0.257565 0.516141 2.995009 0.832701578 0.219400416 0.508400963 0.299997 0.658855
-0.261285 0.518097 2.99954 0.734323598 0.269008645 0.623220027 0.277167 0.623749
-0.266031 0.519804 3.003497 0.58479531 0.321397422 0.744794027 0.258679 0.581011
-0.266743 0.530845 2.995866 0.565633486 0.623236897 0.540031971 0.316667 0.548725
-0.272938 0.532826 2.998717 0.39899609 0.67759336 0.617793946 0.308364 0.506817
-0.272188 0.521207 3.006747 0.419019694 0.359816912 0.833639182 0.244394 0.526547
-0.279352 0.522233 3.009123 0.262911655 0.382316948 0.88583927 0.237204 0.465791
-0.280114 0.534051 3.000955 0.243000115 0.704600335 0.666700317 0.304055 0.460979
-0.287865 0.534428 3.002429 0.0857015332 0.712212742 0.696712464 0.305108 0.414583
-0.287115 0.522809 3.010459 0.104995201 0.394081987 0.913058265 0.240004 0.404175
-0.294628 0.522874 3.010609 -0.0833030444 0.394914432 0.914933437 0.25002 0.347507
-0.29534 0.533914 3.002979 -0.101504777 0.697932849 0.708933367 0.310381 0.37115
-0.301689 0.53247 3.002442 -0.314994399 0.649988443 0.691587704 0.318734 0.334202
-0.301037 0.522364 3.009427 -0.298922117 0.378127977 0.876164825 0.26448 0.301597
-0.306669 0.521355 3.007089 -0.486524059 0.346217121 0.802139667 0.283833 0.26187
-0.307241 0.530204 3.000974 -0.499938609 0.577344587 0.645549855 0.330577 0.299677
-0.261937 0.506082 3.002103 0.716819293 -0.0533014346 0.695218712 0.210621 0.69191
-0.259693 0.494988 2.995582 0.775099434 -0.353199742 0.523899618 0.191357 0.82272
-0.258139 0.505569 2.997264 0.817111415 -0.0667009318 0.572607999 0.248232 0.733342
-0.263703 0.494058 3.000192 0.669490778 -0.375894822 0.640691175 0.136018 0.773941
-0.268672 0.493544 3.004209 0.513099636 -0.390999722 0.764099457 0.089697 0.698623
-0.266743 0.506679 3.006296 0.565626919 -0.034501642 0.823939212 0.179489 0.634513
-0.272938 0.507394 3.009692 0.399008513 -0.0153003264 0.916819561 0.15504 0.556764
-0.274968 0.493571 3.007496 0.343507774 -0.390708842 0.854019327 0.052994 0.592225
-0.28218 0.494121 3.009885 0.186298589 -0.37889713 0.906493133 0.036267 0.471557
-0.280114 0.508182 3.01212 0.243005803 0.00180004299 0.970023164 0.143459 0.469059
-0.287865 0.508997 3.013405 0.0857043599 0.0184009361 0.996150675 0.150931 0.381794
-0.289896 0.495174 3.011208 0.0294013794 -0.357516773 0.933443794 0.049874 0.353427
-0.29727 0.496614 3.011321 -0.155406672 -0.320713769 0.934340112 0.082499 0.251516
-0.29534 0.509749 3.013408 -0.101504392 0.0371016052 0.994143013 0.170939 0.304382
-0.301689 0.510349 3.011989 -0.31498818 0.0572978499 0.947364451 0.196967 0.24624
-0.303455 0.498325 3.010078 -0.363484469 -0.263488741 0.893561819 0.122824 0.179507
-0.308787 0.500308 3.00766 -0.541329095 -0.198910691 0.816943908 0.170974 0.129837
-0.307241 0.510836 3.009333 -0.49991797 0.0737026493 0.862931019 0.229341 0.201495
-0.266392 0.483924 2.993756 0.596919167 -0.649920869 0.470415105 0.782472 0.69578
-0.259693 0.494988 2.995582 0.775099434 -0.353199742 0.523899618 0.802766 0.828292
-0.263703 0.494058 3.000192 0.669490778 -0.375894822 0.640691175 0.857877 0.777609
-0.262059 0.486071 2.989919 0.71059541 -0.596596146 0.37299759 0.745116 0.738626
-0.264831 0.480001 2.981395 0.636049153 -0.758858643 0.139910812 0.692637 0.663641
-0.269541 0.477026 2.984069 0.512802087 -0.83290339 0.208100847 0.715278 0.627697
-0.27505 0.474937 2.986595 0.340114593 -0.895738432 0.286312284 0.733447 0.584079
-0.271609 0.482473 2.997178 0.433222465 -0.693435959 0.575729855 0.812813 0.63695
-0.268672 0.493544 3.004209 0.513099636 -0.390999722 0.764099457 0.902875 0.700505
-0.278059 0.481921 3.000097 0.259500532 -0.709301454 0.655401344 0.836104 0.558568
-0.274968 0.493571 3.007496 0.343507774 -0.390708842 0.854019327 0.937076 0.593326
-0.28168 0.47399 2.98896 0.161207089 -0.92254057 0.350615419 0.747536 0.529305
-0.289007 0.474203 2.99103 0.00139999044 -0.918293728 0.395897296 0.754613 0.468795
-0.285324 0.48227 3.002358 0.101401523 -0.702010541 0.704910584 0.846506 0.471397
-0.28218 0.494121 3.009885 0.186298589 -0.37889713 0.906493133 0.951173 0.473648
-0.292986 0.483523 3.003809 -0.0540026989 -0.676633816 0.734336699 0.838185 0.386201
-0.289896 0.495174 3.011208 0.0294013794 -0.357516773 0.933443794 0.935857 0.359045
-0.296607 0.475593 2.992673 -0.153112395 -0.890072054 0.429334756 0.751749 0.407967
-0.303647 0.478007 2.993708 -0.329093581 -0.827783854 0.454391137 0.741968 0.352146
-0.300206 0.485543 3.00429 -0.234503825 -0.624710189 0.744812148 0.818042 0.311328
-0.29727 0.496614 3.011321 -0.155406672 -0.320713769 0.934340112 0.90282 0.261572
-0.306143 0.488191 3.003642 -0.434328532 -0.536235226 0.723747545 0.792981 0.255127
-0.303455 0.498325 3.010078 -0.363484469 -0.263488741 0.893561819 0.863753 0.193282
-0.309293 0.481293 2.993955 -0.519314193 -0.718219629 0.463112657 0.728291 0.306655
-0.313898 0.485395 2.993543 -0.673699185 -0.585199292 0.451299454 0.709758 0.267041
-0.311141 0.491435 3.002025 -0.601316615 -0.430811903 0.672918593 0.762038 0.210664
-0.308787 0.500308 3.00766 -0.541329095 -0.198910691 0.816943908 0.817819 0.143991
-0.272691 0.474709 2.972404 0.427319328 -0.898040619 -0.104504727 0.664507 0.587105
-0.269968 0.479958 2.960757 0.497020207 -0.7600309 -0.418717023 0.615015 0.591533
-0.267602 0.477962 2.971131 0.559917274 -0.817025206 -0.137704248 0.6505 0.618015
-0.275379 0.476977 2.960616 0.356198383 -0.834196213 -0.420998089 0.624187 0.564109
-0.281428 0.474884 2.960975 0.167099358 -0.89719655 -0.408798428 0.631141 0.534609
-0.278491 0.472406 2.973853 0.245896594 -0.9674866 -0.0591991801 0.675473 0.552574
-0.285301 0.471327 2.97555 0.0621983704 -0.997973853 -0.0133996489 0.683778 0.511032
-0.288392 0.473935 2.961998 -0.0211016906 -0.924074035 -0.381630576 0.636091 0.499793
-0.295834 0.474146 2.963603 -0.1834057 -0.919828589 -0.346810779 0.638755 0.461947
-0.29269 0.471493 2.977389 -0.0985972117 -0.994771868 0.0265992478 0.688267 0.465489
-0.300228 0.472929 2.979263 -0.251593432 -0.965674791 0.0645983137 0.687788 0.418954
-0.303319 0.475537 2.96571 -0.335699956 -0.891599884 -0.30389996 0.638852 0.423356
-0.310025 0.477954 2.968087 -0.502920245 -0.829233381 -0.243809815 0.636523 0.386782
-0.307088 0.475476 2.980965 -0.422707247 -0.899915429 0.107101836 0.683301 0.375087
-0.312443 0.478976 2.982291 -0.603039953 -0.783151886 0.151710051 0.675767 0.337549
-0.315131 0.481244 2.970502 -0.675167449 -0.719471875 -0.162816265 0.631911 0.354982
-0.31901 0.485353 2.973009 -0.806089864 -0.586292627 -0.0804989878 0.624615 0.324534
-0.316656 0.483367 2.983331 -0.744817768 -0.640615282 0.186704454 0.66448 0.302825
-0.277145 0.483835 2.950556 0.307405858 -0.65231243 -0.692813202 0.588348 0.548814
-0.272096 0.494885 2.945759 0.439392924 -0.355894268 -0.824786717 0.552221 0.563068
-0.271522 0.485992 2.951905 0.453427821 -0.598736737 -0.66024051 0.582494 0.573978
-0.277798 0.493941 2.943571 0.291302419 -0.379103148 -0.878307295 0.555757 0.539369
-0.28407 0.493416 2.942354 0.0954026417 -0.394510924 -0.913925307 0.558411 0.514757
-0.283357 0.482376 2.949985 0.113402609 -0.696116018 -0.708916312 0.592705 0.522359
-0.290422 0.481818 2.950432 -0.0773059145 -0.712154485 -0.697753384 0.595738 0.491633
-0.291172 0.493437 2.942402 -0.096604185 -0.394417087 -0.913839588 0.560334 0.486475
-0.298662 0.493984 2.943671 -0.26001755 -0.382625826 -0.88655984 0.561361 0.456374
-0.297899 0.482165 2.951839 -0.240199663 -0.70489901 -0.667399062 0.597362 0.458637
-0.305349 0.48342 2.954145 -0.391306155 -0.679410687 -0.620709764 0.59749 0.425371
-0.306099 0.495039 2.946115 -0.411292856 -0.361193726 -0.836885463 0.56133 0.426301
-0.312667 0.496486 2.949467 -0.574923834 -0.324213441 -0.751231143 0.560349 0.397859
-0.311954 0.485445 2.957097 -0.555733892 -0.627338259 -0.54553327 0.596115 0.39386
-0.316897 0.488102 2.960442 -0.722414203 -0.538610589 -0.433608525 0.593229 0.366129
-0.317549 0.498208 2.953458 -0.739733847 -0.266612199 -0.617828269 0.558531 0.372647
-0.321127 0.500205 2.958086 -0.860911287 -0.201602643 -0.467106124 0.555682 0.347158
-0.320556 0.491357 2.964201 -0.846240295 -0.432820609 -0.310714795 0.588573 0.338686
-0.277145 0.505956 2.941008 0.307396978 -0.0566994426 -0.949890663 0.525184 0.533923
-0.271522 0.505458 2.943504 0.453391021 -0.0696986196 -0.888582402 0.523483 0.55652
-0.269968 0.516038 2.945186 0.496992881 0.216596897 -0.840287963 0.495561 0.554063
-0.275379 0.51798 2.942919 0.356202543 0.265801898 -0.895806396 0.495684 0.531982
-0.281428 0.519676 2.941643 0.167097351 0.31789496 -0.933285203 0.495856 0.509458
-0.283357 0.506541 2.939555 0.113401231 -0.0383004158 -0.992810777 0.526505 0.510735
-0.290422 0.507249 2.939456 -0.0773017714 -0.01920044 -0.996822842 0.527493 0.484243
-0.288392 0.521072 2.941653 -0.0211001893 0.356103194 -0.93420838 0.495977 0.48377
-0.295834 0.522096 2.942909 -0.183497977 0.378595826 -0.907189998 0.496055 0.456199
-0.297899 0.508034 2.940674 -0.240204931 -0.00210004311 -0.970719929 0.528029 0.455973
-0.305349 0.508851 2.943169 -0.391318185 0.0144006692 -0.92014276 0.527996 0.427453
-0.303319 0.522675 2.945366 -0.33571704 0.390419816 -0.85724351 0.496094 0.428023
-0.310025 0.522746 2.948755 -0.502918425 0.39141434 -0.770628232 0.496126 0.401046
-0.311954 0.509611 2.946667 -0.555705407 0.033400325 -0.830708083 0.527496 0.400315
-0.316897 0.510223 2.950895 -0.722381897 0.0539986468 -0.689382724 0.52663 0.376192
-0.315131 0.522247 2.952806 -0.675145895 0.375025493 -0.635243182 0.496179 0.377072
-0.31901 0.521252 2.957515 -0.806131964 0.343513621 -0.481819105 0.496186 0.353063
-0.320556 0.510725 2.955842 -0.846218325 0.0708015332 -0.528111436 0.525273 0.351823
-0.272691 0.528114 2.949355 0.427278566 0.539972913 -0.725163623 0.466312 0.53305
-0.267602 0.524955 2.950849 0.559901946 0.460201599 -0.689002394 0.467734 0.555424
-0.278491 0.530747 2.948673 0.245895042 0.620587486 -0.744584986 0.465333 0.510086
-0.285301 0.532723 2.949052 0.0621988481 0.674787503 -0.735386381 0.464552 0.483889
-0.29269 0.533947 2.950435 -0.0986011729 0.701708347 -0.705608393 0.46413 0.455813
-0.300228 0.534325 2.952765 -0.251611347 0.709431993 -0.658329688 0.46423 0.42721
-0.307088 0.533817 2.955786 -0.422723669 0.695238928 -0.58133255 0.464812 0.399872
-0.312443 0.532381 2.959242 -0.603038822 0.647641693 -0.465729982 0.465836 0.375591
-0.316656 0.530125 2.96315 -0.744796745 0.575297486 -0.338098523 0.467266 0.351259
-0.320093 0.52716 2.967527 -0.852515559 0.482508806 -0.201003668 0.469067 0.323767
-0.322035 0.51984 2.962878 -0.900702788 0.299600927 -0.314600974 0.49608 0.325985
-0.317818 0.532142 2.974524 -0.796187783 0.604490724 -0.025999601 0.441483 0.317256
-0.3205 0.527533 2.977304 -0.908735237 0.407015782 0.092403583 0.446948 0.283992
-0.322243 0.523716 2.971944 -0.942578844 0.333792508 -0.0112997464 0.471541 0.291586
-0.323731 0.518108 2.968382 -0.971044606 0.225210345 -0.0797036613 0.495869 0.294205
-0.32331 0.511155 2.961498 -0.932576569 0.084297882 -0.350991181 0.5233 0.323944
-0.324708 0.511454 2.967325 -0.990197024 0.0968997088 -0.100599698 0.520379 0.291398
-0.325069 0.504805 2.968743 -0.996859698 -0.0313987306 -0.0726970609 0.545642 0.28425
-0.323781 0.502477 2.963349 -0.944015624 -0.130702163 -0.302905013 0.55161 0.317882
-0.32331 0.495177 2.968394 -0.93259004 -0.313196655 -0.179398084 0.581887 0.308038
-0.322035 0.490224 2.975661 -0.900714101 -0.434406801 0.00220003444 0.61423 0.292011
-0.324708 0.499212 2.972608 -0.99019288 -0.139698996 0.00149998922 0.572227 0.27385
-0.323731 0.495417 2.978175 -0.971058557 -0.212412809 0.109206585 0.59979 0.257442
-0.320093 0.488586 2.984175 -0.852529698 -0.477216624 0.213207427 0.648735 0.267401
-0.317818 0.490259 2.9926 -0.796223612 -0.433512856 0.422012515 0.685407 0.228851
-0.322243 0.494162 2.984699 -0.942585574 -0.23719637 0.235096402 0.627987 0.232271
-0.3205 0.495444 2.991154 -0.908722964 -0.211905355 0.359609087 0.655647 0.19453
-0.315543 0.495242 2.999597 -0.739250589 -0.311721332 0.59694085 0.724248 0.171006
-0.318757 0.499262 2.996515 -0.875220879 -0.138703309 0.463411055 0.681599 0.140411
-0.317269 0.50487 3.000077 -0.846398366 -0.0300999419 0.531698974 0.706698 0.078102
-0.313601 0.502562 3.004246 -0.691619708 -0.128603665 0.710720252 0.764175 0.103513
-0.312325 0.511247 3.005626 -0.659231707 0.0866041653 0.746935925 0.268386 0.164276
-0.311854 0.519925 3.003775 -0.648384941 0.301692993 0.698983766 0.308527 0.223751
-0.313601 0.502562 3.004246 -0.691619708 -0.128603665 0.710720252 0.227072 0.094944
-0.317269 0.50487 3.000077 -0.846398366 -0.0300999419 0.531698974 0.286459 0.075055
-0.316292 0.511524 3.001134 -0.827582501 0.0981979236 0.552688314 0.311892 0.136024
-0.315931 0.518173 2.999716 -0.820619937 0.226405501 0.524712748 0.338298 0.189313
-0.312325 0.527224 2.99873 -0.659243663 0.484132065 0.575338106 0.34632 0.263515
-0.316292 0.523765 2.995851 -0.827578003 0.334791101 0.450588024 0.366653 0.227241
-0.317269 0.52756 2.990283 -0.846416484 0.407507936 0.342806676 0.395065 0.253522
-0.313601 0.532177 2.991464 -0.691729254 0.6053256 0.393816655 0.381186 0.289195
-0.315543 0.533816 2.982949 -0.739308358 0.648107327 0.182702065 0.412548 0.306421
-0.318757 0.528816 2.98376 -0.875223049 0.432311385 0.217005715 0.421643 0.271872
-0.320191 0.523547 2.984127 -0.96075806 0.141108527 0.238814432 0.434082 0.233046
-0.321394 0.522661 2.979671 -0.964478078 0.139511294 0.224318159 0.454484 0.245209
-0.319164 0.52268 2.988631 -0.957232757 0.139604777 0.253408672 0.413453 0.215753
-0.319444 0.518234 2.986831 -0.977454539 -0.166609296 0.129707237 0.434867 0.179494
-0.320066 0.518759 2.984106 -0.952468026 -0.190793595 0.237492028 0.44924 0.193824
-0.320794 0.518223 2.98141 -0.924042645 -0.166107666 0.344315891 0.46409 0.204524
-0.318489 0.52006 2.992475 -0.955390824 0.130198749 0.265097454 0.39227 0.192382
-0.31824 0.516199 2.995143 -0.954226218 0.118503256 0.274607545 0.372883 0.160627
-0.318885 0.514313 2.990772 -0.9995891 -0.0113998757 -0.0262997132 0.408995 0.137995
-0.319036 0.516649 2.989157 -0.993710722 -0.106301147 0.0352003798 0.420742 0.161308
-0.318489 0.511609 2.996122 -0.955385822 0.103598463 0.276595895 0.357644 0.118183
-0.319164 0.507015 2.995392 -0.957226472 0.0887024531 0.275407617 0.34448 0.070394
-0.319444 0.508755 2.990922 -0.97746451 0.208613768 -0.0323021318 0.396766 0.075367
-0.319036 0.511535 2.991364 -0.993713823 0.0985013702 -0.05320074 0.401754 0.108281
-0.320191 0.503144 2.992933 -0.960757479 0.076904601 0.266515945 0.636076 0.123139
-0.321394 0.500508 2.989232 -0.964471002 0.0675049696 0.255418803 0.620886 0.166525
-0.320794 0.504818 2.987195 -0.924032185 0.364512696 0.115304016 0.584819 0.144122
-0.320066 0.506412 2.989435 -0.952468598 0.303689988 0.0239992088 0.592174 0.11424
-0.319444 0.508755 2.990922 -0.97746451 0.208613768 -0.0323021318 0.597233 0.081132
-0.319164 0.507015 2.995392 -0.957226472 0.0887024531 0.275407617 0.649262 0.074015
-0.322597 0.499623 2.984776 -0.968309436 0.0659006422 0.240902348 0.601689 0.198431
-0.323625 0.50049 2.980272 -0.971721699 0.0674015051 0.226305053 0.580329 0.220853
-0.322143 0.504806 2.981773 -0.870630307 0.364912703 0.329911484 0.55824 0.185023
-0.321522 0.504282 2.984499 -0.894150655 0.389022039 0.22171256 0.572873 0.167551
-0.324299 0.503109 2.976429 -0.973679022 0.0767983454 0.214595377 0.558646 0.235787
-0.324548 0.50697 2.97376 -0.974730047 0.0885027281 0.205106322 0.537107 0.245691
-0.322703 0.508728 2.977833 -0.848461321 0.209715157 0.48593512 0.527035 0.205382
-0.322552 0.506392 2.979448 -0.852891697 0.304497036 0.424095871 0.542823 0.197034
-0.324299 0.511561 2.972781 -0.97367393 0.103497229 0.203094562 0.516174 0.253026
-0.323625 0.516154 2.973511 -0.971720435 0.11840249 0.204304297 0.495563 0.256092
-0.322143 0.514285 2.977682 -0.870593009 -0.0102999173 0.49189605 0.495515 0.214624
-0.322552 0.511506 2.977241 -0.852885181 0.0996982678 0.512491096 0.511288 0.211862
-0.322597 0.520026 2.97597 -0.968307195 0.130100967 0.213201584 0.474989 0.253188
-0.321522 0.516628 2.97917 -0.894124991 -0.105502949 0.435212164 0.479649 0.211817
-0.319383 0.514061 2.981107 -0.746133439 -0.304613652 0.592026532 0.48576 0.170717
-0.319715 0.512807 2.980311 -0.70050725 -0.123901282 0.702807274 0.496077 0.17278
-0.318993 0.514915 2.982306 -0.803011483 -0.423206052 0.419606 0.475766 0.165552
-0.317362 0.512876 2.982705 -0.870280584 -0.303693225 0.387791348 0.488477 0.127436
-0.31755 0.512466 2.982129 -0.827708103 -0.209202048 0.520705098 0.492595 0.129753
-0.317709 0.511863 2.981746 -0.790244298 -0.0704039466 0.608734124 0.496942 0.130748
-0.319934 0.511319 2.980074 -0.667332937 0.0872043041 0.739636506 0.506322 0.170939
-0.317814 0.511148 2.981632 -0.766671867 0.09429654 0.635076696 0.501316 0.130136
-0.317853 0.510434 2.981785 -0.757211597 0.258803964 0.599709185 0.505619 0.128338
-0.320015 0.509832 2.980391 -0.657986669 0.298393955 0.691385993 0.516454 0.166502
-0.319934 0.508582 2.981256 -0.667310514 0.478407537 0.570808993 0.526432 0.16078
-0.319715 0.507733 2.982501 -0.700507418 0.596406316 0.39190415 0.535916 0.152727
-0.317814 0.509833 2.9822 -0.76667158 0.397385269 0.504281307 0.509758 0.125774
-0.317709 0.509425 2.982798 -0.790328061 0.491117437 0.366313006 0.513476 0.122199
-0.319383 0.507452 2.983959 -0.746143031 0.639736895 0.184410635 0.544568 0.141301
-0.318993 0.507739 2.985403 -0.803019124 0.595614185 -0.0201004787 0.551141 0.12661
-0.31755 0.50929 2.983499 -0.827711149 0.522407037 0.20490276 0.516518 0.117366
-0.317362 0.509428 2.984193 -0.870283752 0.490490843 0.0449991599 0.518657 0.111542
-0.318603 0.508593 2.986602 -0.857570002 0.476738915 -0.193115764 0.554388 0.108762
-0.317175 0.509838 2.984769 -0.914024012 0.396110406 -0.0875022987 0.519662 0.104994
-0.317015 0.510441 2.985152 -0.950246387 0.257212556 -0.175708577 0.5201 0.098084
-0.31827 0.509847 2.987398 -0.905619648 0.296306428 -0.303406582 0.555974 0.089336
-0.318052 0.511335 2.987635 -0.936287206 0.0849988385 -0.340795343 0.440331 0.103845
-0.317971 0.512822 2.987318 -0.948111747 -0.126001561 -0.291903617 0.44335 0.121717
-0.31827 0.509847 2.987398 -0.905619648 0.296306428 -0.303406582 0.43895 0.084375
-0.317015 0.510441 2.985152 -0.950246387 0.257212556 -0.175708577 0.476083 0.095401
-0.31691 0.511156 2.985265 -0.975017858 0.092601696 -0.201903698 0.476142 0.102143
-0.316871 0.51187 2.985113 -0.983356481 -0.0720041357 -0.166809581 0.476827 0.108617
-0.318052 0.514072 2.986453 -0.936316039 -0.306205245 -0.171902945 0.449645 0.136391
-0.31691 0.512471 2.984698 -0.975025171 -0.210405432 -0.0711018355 0.478763 0.114551
-0.317015 0.512879 2.984099 -0.950240818 -0.304313072 0.066602861 0.481551 0.119767
-0.31827 0.514921 2.985208 -0.905625534 -0.424011955 0.00750021147 0.457824 0.148351
-0.318603 0.515202 2.983749 -0.857572957 -0.467539775 0.214418241 0.466492 0.158084
-0.317175 0.513014 2.983398 -0.91401627 -0.33540597 0.228204062 0.484792 0.124085
-0.258265 0.528224 2.968703 0.815411065 0.541707351 -0.20410277 0.416366 0.597949
-0.256276 0.526546 2.977425 0.868771008 0.494340404 0.0294024032 0.38812 0.616905
-0.260596 0.52651 2.960073 0.753131941 0.493420926 -0.435118454 0.443607 0.586154
-0.257598 0.5215 2.96135 0.895229503 0.247108144 -0.37081222 0.450496 0.614915
-0.255777 0.522839 2.968094 0.932829534 0.275008707 -0.232807371 0.427201 0.627025
-0.254222 0.521528 2.97491 0.964349477 0.247712709 -0.0931047769 0.403975 0.646281
-0.25497 0.521472 2.984868 0.90396828 0.360287358 0.230291919 0.358872 0.644692
-0.253201 0.517563 2.980727 0.985641378 0.166807003 0.0262010999 0.381341 0.674075
-0.252824 0.51172 2.984765 0.992983517 0.0467992231 0.108598197 0.359853 0.716601
-0.254487 0.513995 2.990036 0.916629736 0.158405139 0.367011906 0.327308 0.69042
-0.25497 0.505105 2.991932 0.903990843 -0.0794991947 0.420095744 0.292118 0.763198
-0.256276 0.496209 2.990518 0.868744746 -0.317716364 0.379919568 0.255115 0.849501
-0.253201 0.504773 2.986247 0.985629136 -0.0954028201 0.139404121 0.340063 0.780056
-0.254222 0.497821 2.985142 0.96434751 -0.237711711 0.11630573 0.321123 0.853974
-0.258265 0.488711 2.985756 0.815400485 -0.520100309 0.254200151 0.700783 0.769058
-0.256276 0.496209 2.990518 0.868744746 -0.317716364 0.379919568 0.738222 0.856204
-0.254222 0.497821 2.985142 0.96434751 -0.237711711 0.11630573 0.67108 0.860731
-0.255777 0.491962 2.981421 0.932841046 -0.358015753 0.0404017777 0.652171 0.785721
-0.257598 0.487974 2.97582 0.895236804 -0.439318061 -0.0745030629 0.632322 0.721315
-0.260596 0.483608 2.978589 0.753109086 -0.655107904 0.0605007299 0.665136 0.695395
-0.262926 0.481893 2.969959 0.690144519 -0.703345371 -0.170310986 0.633071 0.648695
-0.264915 0.483572 2.961236 0.637513308 -0.656013694 -0.404008434 0.603409 0.62012
-0.259419 0.486634 2.969076 0.858141338 -0.467322511 -0.212610242 0.610591 0.678116
-0.260973 0.487946 2.96226 0.826100801 -0.439900427 -0.352200342 0.587703 0.649906
-0.266222 0.488645 2.953794 0.60157437 -0.521877766 -0.604774234 0.574969 0.600832
-0.266704 0.496122 2.948626 0.589600377 -0.320000205 -0.741600475 0.547652 0.588612
-0.261994 0.491911 2.956444 0.805353373 -0.3591238 -0.471631256 0.564386 0.630465
-0.262372 0.497754 2.952405 0.797507867 -0.239102359 -0.553905464 0.541123 0.617881
-0.266222 0.505012 2.94673 0.601589256 -0.0819985355 -0.794585809 0.521356 0.581242
-0.261994 0.5047 2.950923 0.805344803 -0.096905391 -0.584832535 0.518403 0.610243
-0.260973 0.511652 2.952028 0.826138821 0.0455021382 -0.561626391 0.495912 0.607239
-0.264915 0.513908 2.948143 0.637496016 0.155999025 -0.754495284 0.495585 0.578422
-0.262926 0.521406 2.952905 0.690135122 0.358518245 -0.628631992 0.469841 0.579853
-0.259419 0.517511 2.95575 0.858132584 0.165806296 -0.485918451 0.473338 0.608558
-0.257837 0.513318 2.959606 0.955089198 -0.0509994232 -0.291896699 0.478929 0.643763
-0.256599 0.516031 2.963416 0.962481857 -0.0340993572 -0.269194926 0.461003 0.649436
-0.258895 0.509333 2.957075 0.948541912 -0.0747033008 -0.307713597 0.496693 0.642694
-0.258229 0.50746 2.961693 0.982374945 -0.162995843 -0.0914976664 0.497386 0.675172
-0.2576 0.509834 2.963201 0.968667817 -0.215992824 -0.122595927 0.484463 0.676001
-0.256862 0.51145 2.96547 0.952721389 -0.249505601 -0.173403893 0.471457 0.680723
-0.259589 0.504605 2.956324 0.944523901 -0.103502619 -0.311707888 0.514223 0.645677
-0.259845 0.49988 2.957331 0.942750844 -0.132107125 -0.306216515 0.531712 0.652754
-0.258796 0.501828 2.961846 0.9946552 -0.0409022699 -0.0948052614 0.522309 0.684011
-0.258643 0.504643 2.961246 0.991604794 -0.101900493 -0.0796003849 0.509973 0.67792
-0.259589 0.495906 2.960078 0.944531784 -0.155805243 -0.289109729 0.549355 0.663966
-0.258895 0.493209 2.964034 0.948531653 -0.17260576 -0.26550886 0.566233 0.680929
-0.258229 0.497854 2.965839 0.982371138 0.0451986721 -0.181394671 0.545387 0.706747
-0.258643 0.499461 2.963482 0.991599202 0.0118999904 -0.128799896 0.53448 0.693207
-0.257837 0.492317 2.96867 0.955078258 -0.177395962 -0.237394596 0.581428 0.705253
-0.256599 0.493228 2.973257 0.962474615 -0.17249545 -0.209494475 0.593742 0.739757
-0.256862 0.497865 2.971334 0.952717844 0.0450008429 -0.300505629 0.55913 0.750575
-0.2576 0.497323 2.968601 0.968687243 0.0588992243 -0.241196823 0.553931 0.725867
-0.25536 0.495941 2.977067 0.969997284 -0.155599564 -0.186799477 0.601977 0.787259
-0.254303 0.499926 2.979598 0.976402163 -0.131900292 -0.171000379 0.608173 0.841259
-0.255494 0.501856 2.975111 0.923069715 -0.0414986385 -0.382387454 0.558704 0.813975
-0.256124 0.499482 2.973603 0.936259033 0.0115007251 -0.351122139 0.56 0.780876
-0.253608 0.504654 2.980349 0.980523092 -0.10320243 -0.167103935 0.38985 0.782494
-0.254303 0.499926 2.979598 0.976402163 -0.131900292 -0.171000379 0.383214 0.835829
-0.253352 0.509379 2.979342 0.982188538 -0.0744991306 -0.172497987 0.398382 0.735556
-0.254927 0.507487 2.974958 0.910817033 -0.163603059 -0.379007087 0.433046 0.747108
-0.25508 0.504673 2.975558 0.913328336 -0.10250318 -0.394112228 0.431652 0.777324
-0.255494 0.501856 2.975111 0.923069715 -0.0414986385 -0.382387454 0.432267 0.810341
-0.253608 0.513354 2.976595 0.980525994 -0.0508013468 -0.189705029 0.410708 0.701415
-0.254303 0.51605 2.972639 0.976419328 -0.0339006711 -0.21320422 0.425889 0.677256
-0.255494 0.511462 2.970965 0.923090792 -0.249697509 -0.292497082 0.447209 0.703377
-0.25508 0.509855 2.973322 0.913313312 -0.216403154 -0.345005028 0.438457 0.722495
-0.25536 0.516942 2.968003 0.969987099 -0.0291996116 -0.241396789 0.442988 0.660265
-0.256124 0.511993 2.968203 0.936243887 -0.263412348 -0.232510899 0.458625 0.68965
-0.257177 0.509452 2.968471 0.849930062 -0.483017085 -0.210507446 0.469005 0.707162
-0.256772 0.50911 2.970243 0.817046062 -0.453525568 -0.356020071 0.461283 0.71819
-0.257651 0.509103 2.966716 0.889003449 -0.453001758 -0.0668002592 0.478191 0.699778
-0.258439 0.507861 2.967485 0.894836206 -0.440217812 -0.0740029942 0.483229 0.712747
-0.258102 0.508177 2.968704 0.856570637 -0.470383876 -0.212192726 0.476447 0.71793
-0.257828 0.507866 2.969939 0.825560887 -0.440732505 -0.352425992 0.471697 0.726798
-0.256507 0.508079 2.971757 0.794746454 -0.370121634 -0.481028117 0.456075 0.733094
-0.257626 0.507201 2.971041 0.803252141 -0.361323454 -0.473530738 0.467792 0.737559
-0.257575 0.506091 2.971723 0.796841959 -0.239412607 -0.55472921 0.467527 0.750451
-0.256409 0.506559 2.972807 0.787264739 -0.244320091 -0.566146556 0.453992 0.751082
-0.256507 0.504752 2.973192 0.794714694 -0.0962017789 -0.599311081 0.455644 0.771359
-0.256772 0.502944 2.972905 0.817041409 0.0520026356 -0.574229103 0.459165 0.792781
-0.257626 0.504834 2.972063 0.803251241 -0.0967061691 -0.587737493 0.469089 0.76482
-0.257828 0.503575 2.971791 0.825515144 0.0459008421 -0.562510319 0.473692 0.778161
-0.257177 0.501419 2.971937 0.849914266 0.178102989 -0.495908324 0.536036 0.773777
-0.256772 0.502944 2.972905 0.817041409 0.0520026356 -0.574229103 0.531875 0.795066
-0.257828 0.503575 2.971791 0.825515144 0.0459008421 -0.562510319 0.517732 0.779455
-0.258102 0.502463 2.97117 0.856530022 0.168205896 -0.487917102 0.522751 0.766307
-0.258439 0.501793 2.970104 0.894881825 0.248094961 -0.370992465 0.524736 0.752061
-0.257651 0.500382 2.97048 0.889025529 0.262107527 -0.37541078 0.53822 0.753619
-0.258124 0.500033 2.968726 0.927891737 0.292197398 -0.231597938 0.536449 0.735721
-0.258529 0.500374 2.966953 0.961017909 0.262704896 -0.0862016064 0.531554 0.720922
-0.258776 0.501477 2.968885 0.931899804 0.278399942 -0.232499951 0.524784 0.739376
-0.25905 0.501788 2.967649 0.964155894 0.248614413 -0.0927053743 0.521191 0.728723
-0.258794 0.501406 2.96544 0.983041854 0.17920763 0.0389016563 0.524365 0.710058
-0.258892 0.502926 2.964389 0.990838203 0.0535020628 0.124004781 0.515809 0.702433
-0.259253 0.502454 2.966547 0.985145224 0.169307772 0.0287013176 0.516868 0.719973
-0.259303 0.503563 2.965866 0.992849003 0.0473023347 0.10960541 0.510505 0.714518
-0.258794 0.504733 2.964004 0.983040025 -0.0946038519 0.157106397 0.506812 0.69735
-0.259253 0.50482 2.965526 0.985146569 -0.0952045004 0.142906755 0.504189 0.709903
-0.25905 0.506079 2.965797 0.964152017 -0.238012841 0.117306329 0.497159 0.708938
-0.258529 0.506541 2.964291 0.961026232 -0.24290663 0.132003603 0.497448 0.695058
-0.258124 0.508066 2.965259 0.927880004 -0.368992048 0.0536988428 0.48779 0.695805
-0.258776 0.507191 2.966419 0.931881707 -0.360192929 0.043099154 0.489979 0.708862
-0.258921 0.506389 2.967319 0.969934598 -0.196407006 -0.143705126 0.492099 0.720859
-0.258702 0.506596 2.968109 0.960713407 -0.191802677 -0.200602799 0.488595 0.725777
-0.259053 0.505573 2.967141 0.978563594 -0.139709079 -0.151309833 0.496802 0.723394
-0.258702 0.504855 2.96886 0.965203856 -0.103600414 -0.240100959 0.496124 0.752784
-0.25923 0.504851 2.96674 0.988829621 -0.102403068 -0.108303244 0.501554 0.721513
-0.259198 0.50413 2.96718 0.985958104 -0.0662039015 -0.153309035 0.504694 0.726761
-0.25923 0.503316 2.967402 0.98882925 -0.0086002544 -0.148804402 0.509845 0.728406
-0.259053 0.503112 2.968203 0.978550402 -0.0143007366 -0.205510585 0.510753 0.735421
-0.258921 0.502683 2.968919 0.969931877 0.0301009893 -0.241507937 0.51474 0.741394
-0.258702 0.503115 2.969611 0.960703992 -0.0144000598 -0.277201152 0.512404 0.749072
-0.258484 0.503322 2.9704 0.943201108 -0.00900001058 -0.33210039 0.512811 0.75881
-0.258352 0.504137 2.970579 0.942818079 -0.0665012752 -0.326606263 0.50632 0.762067
-0.258175 0.50486 2.970979 0.924311485 -0.102901279 -0.367504566 0.479246 0.757928
-0.258352 0.504137 2.970579 0.942818079 -0.0665012752 -0.326606263 0.485629 0.761489
-0.258207 0.50558 2.97054 0.935415748 -0.140102359 -0.324605465 0.47996 0.74819
-0.258175 0.506395 2.970317 0.924304746 -0.196801011 -0.327001679 0.477842 0.740233
-0.258352 0.506599 2.969517 0.942829417 -0.192005991 -0.272408499 0.482038 0.734303
-0.258484 0.507028 2.968801 0.943230236 -0.235407546 -0.234307511 0.483263 0.727088
-0.317153 0.512333 2.983394 -0.712617256 0.679116445 0.176004262 0.068707 0.884289
-0.317015 0.512879 2.984099 -0.950240818 -0.304313072 0.066602861 0.069636 0.879322
-0.317175 0.513014 2.983398 -0.91401627 -0.33540597 0.228204062 0.067744 0.880142
-0.317051 0.512247 2.983843 -0.666447249 0.629844654 0.398928283 0.070601 0.883481
-0.318093 0.512359 2.984102 0.184914319 0.919671217 0.346426827 0.072076 0.889725
-0.318195 0.512445 2.983654 0.100002362 0.994623488 -0.0269006353 0.070197 0.890541
-0.318315 0.512357 2.98321 0 0.918117766 -0.396307669 0.068327 0.891373
-0.317273 0.512245 2.982951 -0.776317599 0.628914258 -0.0424009612 0.066822 0.885094
-0.317362 0.512876 2.982705 -0.870280584 -0.303693225 0.387791348 0.065863 0.880959
-0.316983 0.511986 2.984226 -0.627823566 0.505318968 0.592022222 0.072507 0.882674
-0.316871 0.51187 2.985113 -0.983356481 -0.0720041357 -0.166809581 0.073449 0.877687
-0.31691 0.512471 2.984698 -0.975025171 -0.210405432 -0.0711018355 0.071539 0.878503
-0.316959 0.511602 2.984491 -0.621038689 0.310519344 0.719644832 0.074419 0.881869
-0.318001 0.511714 2.98475 0.261411743 0.382417179 0.886239811 0.075866 0.888152
-0.318026 0.512098 2.984485 0.241617623 0.704651396 0.66714866 0.073965 0.888928
-0.316983 0.511145 2.984589 -0.627917924 0.0841024007 0.773722086 0.076337 0.881067
-0.317015 0.510441 2.985152 -0.950246387 0.257212556 -0.175708577 0.07728 0.876064
-0.31691 0.511156 2.985265 -0.975017858 0.092601696 -0.201903698 0.075363 0.876874
-0.317051 0.510687 2.984516 -0.666516523 -0.14160351 0.731918144 0.078257 0.880266
-0.318093 0.510799 2.984775 0.184700426 -0.378700873 0.90690209 0.079696 0.886653
-0.318026 0.511257 2.984848 0.241405538 0.00200004588 0.970422262 0.077778 0.887397
-0.317153 0.510302 2.984271 -0.712620645 -0.337709784 0.614917814 0.049916 0.891921
-0.317362 0.509428 2.984193 -0.870283752 0.490490843 0.0449991599 0.050929 0.887044
-0.317175 0.509838 2.984769 -0.914024012 0.396110406 -0.0875022987 0.049037 0.887762
-0.317273 0.51004 2.983903 -0.776418495 -0.46221101 0.428410205 0.051818 0.891199
-0.318315 0.510151 2.984162 0 -0.91815415 0.396223368 0.053177 0.897712
-0.318195 0.510414 2.98453 0.100001434 -0.701810061 0.705310111 0.051249 0.898395
-0.318093 0.510799 2.984775 0.184700426 -0.378700873 0.90690209 0.049321 0.899069
-0.317051 0.510687 2.984516 -0.666516523 -0.14160351 0.731918144 0.04801 0.89264
-0.317015 0.510441 2.985152 -0.950246387 0.257212556 -0.175708577 0.047141 0.88848
-0.317392 0.509951 2.983459 -0.832532457 -0.513320012 0.208308121 0.053714 0.89047
-0.317709 0.509425 2.982798 -0.790328061 0.491117437 0.366313006 0.054691 0.885594
-0.31755 0.50929 2.983499 -0.827711149 0.522407037 0.20490276 0.052814 0.886322
-0.317495 0.510038 2.983011 -0.886211813 -0.463106173 -0.0127001693 0.055602 0.889733
-0.318537 0.51015 2.98327 -0.184914319 -0.919671217 -0.346426827 0.057028 0.89628
-0.318435 0.510063 2.983718 -0.100002362 -0.994623488 0.0269006353 0.055105 0.89701
-0.317562 0.510299 2.982628 -0.917389771 -0.339496215 -0.207697684 0.057479 0.888987
-0.317853 0.510434 2.981785 -0.757211597 0.258803964 0.599709185 0.058418 0.884106
-0.317814 0.509833 2.9822 -0.76667158 0.397385269 0.504281307 0.056558 0.884856
-0.317587 0.510683 2.982362 -0.931733701 -0.143905205 -0.33341206 0.059349 0.88823
-0.318629 0.510795 2.982621 -0.26150491 -0.38240718 -0.886216639 0.060836 0.89472
-0.318604 0.51041 2.982887 -0.241600597 -0.704701741 -0.667101648 0.058938 0.895515
-0.317562 0.51114 2.982265 -0.917309049 0.081700806 -0.389703844 0.061214 0.887462
-0.317709 0.511863 2.981746 -0.790244298 -0.0704039466 0.608734124 0.062132 0.882561
-0.317814 0.511148 2.981632 -0.766671867 0.09429654 0.635076696 0.060275 0.883341
-0.317495 0.511597 2.982337 -0.886265609 0.308388033 -0.34558659 0.063079 0.886683
-0.318537 0.511709 2.982597 -0.184903357 0.378806877 -0.906816463 0.064595 0.893061
-0.318604 0.511252 2.982524 -0.241593873 -0.00199994928 -0.970375392 0.062721 0.893899
-0.317392 0.511983 2.982582 -0.832633356 0.503620175 -0.23040923 0.064947 0.885893
-0.31755 0.512466 2.982129 -0.827708103 -0.209202048 0.520705098 0.063994 0.881766
-0.318435 0.512095 2.982841 -0.100001468 0.701910301 -0.705210349 0.066461 0.892216
-0.33081 0.508885 2.98317 -0.917542988 -0.355416652 -0.178308354 0.081386 0.960917
-0.330673 0.508932 2.982772 -0.70014465 0.0814051914 -0.709345236 0.080561 0.959413
-0.33067 0.508664 2.983044 -0.884714779 -0.424707095 -0.192103209 0.08104 0.961571
-0.330843 0.509169 2.983044 -0.858469426 0.202292795 -0.471283216 0.081218 0.959093
-0.330932 0.509256 2.983434 -0.962744966 0.197309216 -0.184908636 0.081954 0.959167
-0.330827 0.508882 2.983474 -0.915301949 -0.394600841 -0.0807001719 0.081895 0.961375
-0.3305 0.508321 2.98362 -0.85663185 -0.513219082 -0.0528019632 0.081931 0.965347
-0.330552 0.508488 2.982844 -0.834605037 -0.461402785 -0.300901816 0.080494 0.961328
-0.330268 0.508287 2.98263 -0.286318591 -0.400626013 -0.870356514 0.079321 0.960192
-0.330413 0.508245 2.982951 -0.809942009 -0.534927745 -0.240512475 0.080309 0.962082
-0.330476 0.508633 2.982599 -0.485214486 -0.131003911 -0.864525811 0.079887 0.959619
-0.330263 0.507993 2.982973 -0.741032221 -0.615226751 -0.269011697 0.07968 0.962083
-0.329955 0.5077 2.983091 -0.0602988221 -0.853683323 -0.517289895 0.078133 0.961597
-0.330207 0.50787 2.98325 -0.757270641 -0.633175452 -0.160093793 0.079602 0.962943
-0.330079 0.507952 2.982776 -0.133397692 -0.651088733 -0.74718707 0.07865 0.960701
-0.330113 0.50769 2.98348 -0.718300614 -0.685200586 -0.120600103 0.078891 0.963382
-0.329917 0.507515 2.983886 -0.17340312 -0.983817704 0.0451008116 0.077073 0.964123
-0.330172 0.507759 2.983766 -0.773751684 -0.632442245 -0.0364024316 0.078955 0.964526
-0.329884 0.507525 2.98347 -0.0679014714 -0.968020977 -0.241505233 0.077485 0.962607
-0.330189 0.507756 2.98407 -0.767518137 -0.64071514 0.0200004726 0.078237 0.965907
-0.330176 0.50784 2.984548 -0.521200521 -0.741000741 0.423400423 0.076348 0.968288
-0.330329 0.507977 2.984196 -0.823404492 -0.566703091 0.0292001593 0.078938 0.966941
-0.330006 0.507602 2.984276 -0.320687234 -0.904763982 0.280288842 0.07652 0.966139
-0.330447 0.508153 2.984396 -0.838781782 -0.539388285 0.0741983884 0.085294 0.963125
-0.33058 0.508484 2.98469 -0.81772142 -0.364609551 0.445411668 0.085502 0.960837
-0.330586 0.508396 2.984288 -0.867455653 -0.496231837 0.0357022906 0.084164 0.962483
-0.330373 0.508139 2.984721 -0.679055936 -0.554945713 0.480539584 0.086734 0.962057
-0.330176 0.50784 2.984548 -0.521200521 -0.741000741 0.423400423 0.087674 0.963648
-0.330329 0.507977 2.984196 -0.823404492 -0.566703091 0.0292001593 0.085064 0.964498
-0.330736 0.508648 2.984267 -0.895469034 -0.442134085 0.0515039706 0.083746 0.961456
-0.330894 0.509071 2.984228 -0.970109609 -0.0257002546 0.24130239 0.083566 0.959524
-0.330792 0.508771 2.98399 -0.901141512 -0.433519971 0.00210009674 0.082921 0.961586
-0.33077 0.50882 2.984544 -0.908929282 -0.181005831 0.375612101 0.084544 0.959897
-0.330886 0.508952 2.98376 -0.92936899 -0.367727297 -0.0324024053 0.082454 0.960899
-0.330964 0.509246 2.98385 -0.990925551 0.123903195 0.0521013435 0.082744 0.959126
-0.330812 0.5095 2.983979 -0.800749668 0.577535823 0.158909857 0.083018 0.957881
-0.330549 0.509499 2.984514 -0.657192373 0.544093686 0.521593947 0.08426 0.957345
-0.330571 0.509705 2.984097 -0.670322647 0.714524141 0.200306767 0.083225 0.956985
-0.330769 0.50931 2.984402 -0.804319187 0.389409289 0.448810707 0.083997 0.958217
-0.330766 0.509554 2.983527 -0.708238313 0.681136847 -0.185610041 0.08209 0.95771
-0.330497 0.509781 2.983648 -0.600140688 0.78425317 -0.157410672 0.08221 0.956739
-0.330635 0.509005 2.984727 -0.730101102 0.142100215 0.668401009 0.085052 0.958739
-0.330237 0.508812 2.985019 -0.379413041 0.0133004571 0.925131797 0.08662 0.958476
-0.330429 0.509183 2.984835 -0.559012589 0.304006846 0.771417373 0.08536 0.95783
-0.330437 0.508639 2.984913 -0.576441306 -0.135309696 0.805857746 0.08624 0.959539
-0.330202 0.508263 2.98492 -0.351099154 -0.422498982 0.835597986 0.087619 0.960704
-0.329746 0.508122 2.984872 0.151603162 -0.565611799 0.81061691 0.089777 0.960261
-0.329996 0.50844 2.985028 -0.130904625 -0.294210395 0.946733449 0.088135 0.959319
-0.329966 0.507933 2.98476 -0.0644017218 -0.679418164 0.730919541 0.089094 0.962052
-0.329767 0.507706 2.984445 0.217604108 -0.84481595 0.488809229 0.074992 0.965903
-0.329362 0.507834 2.984154 0.582896205 -0.792494841 0.179398832 0.074478 0.963087
-0.329526 0.507912 2.984562 0.411697822 -0.740496083 0.53119719 0.073746 0.965372
-0.32963 0.507607 2.984032 0.442801512 -0.88420302 0.148700508 0.075588 0.963648
-0.329966 0.507933 2.98476 -0.0644017218 -0.679418164 0.730919541 0.074423 0.968397
-0.329746 0.508122 2.984872 0.151603162 -0.565611799 0.81061691 0.07303 0.967814
-0.329584 0.507662 2.98358 0.555025873 -0.805637556 -0.207109655 0.076238 0.961874
-0.329297 0.508123 2.983269 0.570425667 -0.633128488 -0.523223543 0.076078 0.959507
-0.329283 0.507913 2.983697 0.63520734 -0.750808676 -0.181102093 0.075244 0.961119
-0.329627 0.507851 2.983157 0.557922535 -0.631525508 -0.538421747 0.076951 0.960499
-0.329761 0.508156 2.982832 0.45731098 -0.386309275 -0.801019233 0.07774 0.959445
-0.329607 0.508811 2.98276 0.201593039 -0.132495425 -0.97046649 0.078028 0.957427
-0.329414 0.50844 2.982945 0.41430844 -0.420608568 -0.807116441 0.077019 0.958288
-0.329959 0.508523 2.982646 0.269192887 -0.0888976509 -0.958974659 0.078576 0.958671
-0.330194 0.508899 2.982639 0.00540022452 0.226309409 -0.974040497 0.079432 0.958137
-0.3301 0.5095 2.982912 -0.286315648 0.510127879 -0.811044325 0.080123 0.956625
-0.329848 0.509183 2.982752 -0.046100869 0.195003676 -0.979718468 0.079069 0.956887
-0.33043 0.509228 2.982799 -0.278617496 0.495431112 -0.822751666 0.080304 0.957816
-0.33063 0.509455 2.983114 -0.533634258 0.657642219 -0.531734136 0.081188 0.957681
-0.330329 0.509706 2.983232 -0.469028694 0.720744093 -0.510431227 0.081173 0.956597
-0.319961 0.512635 2.984093 0.0755016709 0.997022064 -0.0157003475 0.072744 0.901002
-0.319859 0.512549 2.984541 0.15180224 0.921413596 0.357705278 0.074568 0.900135
-0.321855 0.512648 2.984931 0.0322012499 0.9197357 0.391215185 0.077288 0.911748
-0.321948 0.512738 2.984483 -0.0164001157 0.999707053 0.0178001256 0.075517 0.912639
-0.322053 0.512653 2.984039 -0.0636016597 0.929924267 -0.362209452 0.07375 0.913638
-0.320081 0.512547 2.983649 -0.0124998266 0.921787215 -0.387494625 0.070923 0.901939
-0.319791 0.512288 2.984924 0.205114742 0.707350839 0.676448618 0.076405 0.899347
-0.319767 0.511903 2.985189 0.227802251 0.387203826 0.893408827 0.078264 0.898637
-0.321757 0.512 2.985575 0.1060998 0.391599262 0.913998277 0.080903 0.910322
-0.321788 0.512385 2.985312 0.0748025815 0.706524383 0.703724286 0.079079 0.910976
-0.319791 0.511446 2.985287 0.216299111 0.00779996794 0.976295987 0.080154 0.898003
-0.319859 0.510989 2.985214 0.171700197 -0.37350043 0.911601048 0.082059 0.897408
-0.321818 0.511089 2.985593 0.118800093 -0.366000285 0.92300072 0.084662 0.909305
-0.321769 0.511544 2.985669 0.121396952 0.0159995983 0.992475084 0.082771 0.909784
-0.319961 0.510603 2.984969 0.100297086 -0.69947968 0.707579445 0.053491 0.909501
-0.320081 0.510341 2.984601 0.0129002185 -0.918415554 0.395406696 0.055477 0.908942
-0.322001 0.510448 2.984976 0.0617992566 -0.920888922 0.38489537 0.058138 0.921138
-0.3219 0.510706 2.985346 0.0982019302 -0.697713714 0.709613948 0.056117 0.921632
-0.321818 0.511089 2.985593 0.118800093 -0.366000285 0.92300072 0.054112 0.92209
-0.319859 0.510989 2.985214 0.171700197 -0.37350043 0.911601048 0.051515 0.910034
-0.320201 0.510253 2.984157 -0.0771977424 -0.99677085 0.0220993537 0.05748 0.908332
-0.320303 0.510339 2.983709 -0.15560036 -0.922402135 -0.353500818 0.059485 0.90764
-0.322199 0.510453 2.984083 -0.0346010111 -0.923426983 -0.382211168 0.062254 0.919897
-0.322106 0.510363 2.984531 0.0150997809 -0.999885492 -0.00099998549 0.060192 0.920575
-0.32037 0.5106 2.983326 -0.210002196 -0.707007392 -0.67530706 0.061475 0.906838
-0.320395 0.510984 2.983061 -0.232197565 -0.383695977 -0.893790629 0.063438 0.905942
-0.322297 0.511101 2.98344 -0.112001745 -0.382805964 -0.917014287 0.066313 0.918092
-0.322266 0.510716 2.983703 -0.0794025072 -0.706522309 -0.703222205 0.064303 0.919062
-0.32037 0.511441 2.982963 -0.218698044 -0.00159998569 -0.975791272 0.065363 0.904969
-0.320303 0.511899 2.983036 -0.171906954 0.381515433 -0.908236739 0.067249 0.903955
-0.322236 0.512012 2.983421 -0.124104387 0.388313725 -0.913132275 0.070146 0.915869
-0.322285 0.511557 2.983345 -0.127799972 0.000599999868 -0.991799782 0.068261 0.917009
-0.320201 0.512284 2.983281 -0.099499295 0.705595001 -0.701595029 0.069097 0.902933
-0.322154 0.512395 2.983669 -0.101600416 0.714902928 -0.691802833 0.071967 0.91473
-0.326764 0.512035 2.984459 -0.491632739 0.870157946 0.033502231 0.080999 0.938926
-0.326387 0.512082 2.985049 -0.302096216 0.850789344 0.429994614 0.082419 0.936516
-0.32637 0.512224 2.984525 -0.292204737 0.954515473 0.0593009613 0.080714 0.936849
-0.32679 0.511896 2.984955 -0.50870455 0.76910688 0.386903461 0.082661 0.938704
-0.32742 0.511484 2.984823 -0.533308282 0.740911507 0.408206339 0.082962 0.942024
-0.327396 0.511625 2.98437 -0.529010633 0.846617017 0.0582011699 0.081395 0.942132
-0.327322 0.511598 2.983906 -0.461193034 0.833087416 -0.305395387 0.079842 0.94235
-0.326693 0.511986 2.983957 -0.424409227 0.840418271 -0.337007327 0.079346 0.939251
-0.32631 0.512169 2.983996 -0.237915721 0.913860385 -0.329021741 0.079012 0.937256
-0.326765 0.511578 2.985366 -0.476129288 0.556434227 0.680941886 0.084362 0.938556
-0.326277 0.511289 2.985769 -0.201915889 0.309924389 0.929073112 0.085997 0.935965
-0.326352 0.511749 2.985482 -0.270096184 0.625491162 0.731989657 0.084154 0.936229
-0.326696 0.511139 2.985639 -0.399304029 0.258202605 0.879708876 0.08616 0.938454
-0.327309 0.510783 2.985439 -0.362315531 0.237310173 0.901338637 0.086295 0.942061
-0.327388 0.511186 2.985195 -0.47590404 0.531004508 0.701105952 0.084586 0.94201
-0.326589 0.510641 2.985718 -0.283300983 -0.0941003265 0.954403312 0.088114 0.938369
-0.326044 0.510255 2.985735 0.00420012598 -0.4234127 0.905927174 0.090151 0.935443
-0.326168 0.510764 2.985852 -0.106698979 -0.0563994603 0.9926905 0.088027 0.935703
-0.326464 0.510159 2.985608 -0.142899667 -0.451998947 0.880497948 0.090145 0.938293
-0.327056 0.509904 2.985397 -0.0121009484 -0.459936047 0.887869585 0.09 0.942251
-0.327191 0.510333 2.985505 -0.199806093 -0.110103358 0.973629691 0.088119 0.942147
-0.326339 0.509773 2.98531 0.00280006232 -0.754916801 0.655814595 0.063522 0.948564
-0.325825 0.509587 2.984968 0.207001112 -0.920104941 0.332501786 0.064521 0.944817
-0.325924 0.509845 2.98542 0.115203995 -0.730225325 0.673423355 0.06257 0.946202
-0.326232 0.50953 2.984881 0.12220619 -0.94054764 0.316916052 0.065376 0.947103
-0.326806 0.509364 2.984719 0.296503306 -0.908910134 0.293203269 0.066894 0.950149
-0.326922 0.509566 2.985118 0.166699672 -0.74629853 0.644398731 0.065243 0.951717
-0.327056 0.509904 2.985397 -0.0121009484 -0.459936047 0.887869585 0.063599 0.953296
-0.326464 0.510159 2.985608 -0.142899667 -0.451998947 0.880497948 0.061656 0.950053
-0.326044 0.510255 2.985735 0.00420012598 -0.4234127 0.905927174 0.060594 0.947622
-0.326161 0.509482 2.984379 0.19861229 -0.977560488 -0.070204344 0.067205 0.945698
-0.325748 0.509674 2.983916 0.281909808 -0.858429865 -0.428514908 0.068287 0.942273
-0.325764 0.509532 2.984439 0.265296293 -0.962486549 -0.0568992048 0.066422 0.943506
-0.326135 0.50962 2.983883 0.224003247 -0.870112612 -0.439006363 0.069005 0.944362
-0.326694 0.509483 2.983784 0.380617726 -0.81273785 -0.441120543 0.070213 0.947146
-0.326726 0.50934 2.984247 0.365090064 -0.92707477 -0.0850976841 0.068557 0.948604
-0.32616 0.509939 2.983472 0.197002828 -0.64020919 -0.742510659 0.070772 0.943109
-0.325858 0.510467 2.983195 0.189311126 -0.313118403 -0.930654696 0.071946 0.94008
-0.325782 0.510007 2.983482 0.255903831 -0.630709442 -0.732610967 0.070126 0.941123
-0.326229 0.510377 2.983199 0.115302272 -0.322506355 -0.939518513 0.072519 0.941992
-0.326803 0.510186 2.983164 0.227900777 -0.268600916 -0.935903191 0.073457 0.944731
-0.326724 0.509784 2.983408 0.336899114 -0.58189847 -0.740198053 0.071843 0.945841
-0.326336 0.510876 2.983119 -0.00960039814 0.0403016713 -0.999141435 0.074258 0.941063
-0.326091 0.5115 2.983228 -0.0279015055 0.42182276 -0.906248898 0.075534 0.938399
-0.325967 0.510992 2.983112 0.0902033033 0.0544019922 -0.994436417 0.073751 0.939171
-0.32646 0.511357 2.98323 -0.162207179 0.395017484 -0.904240023 0.075979 0.940307
-0.327059 0.511064 2.983209 -0.141099364 0.440498013 -0.886596001 0.076665 0.943185
-0.32692 0.510636 2.983098 0.0623979471 0.0901970326 -0.993967299 0.075064 0.943855
-0.326586 0.511744 2.983528 -0.309308969 0.676419613 -0.668419381 0.077674 0.939707
-0.326211 0.51191 2.983544 -0.144403038 0.72641528 -0.671914134 0.077287 0.937767
-0.327201 0.511398 2.983499 -0.328812715 0.698927028 -0.635124561 0.078262 0.942692
-0.323655 0.51259 2.984597 -0.12060824 0.991567741 0.0474032385 0.07769 0.922417
-0.323588 0.512491 2.985043 -0.102803371 0.901629569 0.420113778 0.079448 0.921597
-0.324949 0.512267 2.985032 -0.120198823 0.893491253 0.432695764 0.081009 0.929106
-0.324982 0.51238 2.984575 -0.126399163 0.99019344 0.0594996058 0.079253 0.929786
-0.324989 0.512318 2.984113 -0.100006285 0.937458912 -0.333420953 0.077513 0.930507
-0.323715 0.512516 2.984151 -0.118801473 0.932011557 -0.342404246 0.075943 0.923315
-0.325832 0.512299 2.984557 -0.118697452 0.990578732 0.0682985336 0.080197 0.9342
-0.325827 0.512168 2.985054 -0.115607641 0.89065887 0.439729065 0.081935 0.933698
-0.325798 0.512241 2.984055 -0.0809980897 0.943577746 -0.321092427 0.078469 0.934748
-0.323525 0.512222 2.985418 -0.070302211 0.685021544 0.725122805 0.08124 0.92086
-0.323475 0.511835 2.985673 -0.0276004989 0.373506751 0.92721676 0.083068 0.920207
-0.324823 0.511582 2.985667 -0.0311993266 0.357792277 0.933279855 0.084656 0.927838
-0.324892 0.511983 2.985413 -0.086807705 0.671759625 0.735665297 0.082809 0.928456
-0.325782 0.511855 2.985466 -0.077500346 0.666902978 0.741103309 0.083708 0.933221
-0.325704 0.511418 2.985739 -0.010000424 0.35281496 0.935639672 0.085564 0.932758
-0.323446 0.511381 2.985758 0.0211993983 0.00269992336 0.999771622 0.084934 0.919639
-0.323442 0.510932 2.985673 0.0714019846 -0.377810501 0.923125659 0.086819 0.919113
-0.324685 0.510664 2.985646 0.122003794 -0.387812061 0.913628414 0.088481 0.926679
-0.32475 0.511118 2.985744 0.0405004465 -0.011700129 0.999111015 0.086555 0.92725
-0.325606 0.510918 2.985818 0.0770032535 -0.013300562 0.996942122 0.087547 0.932301
-0.325501 0.510431 2.985708 0.174103042 -0.380806653 0.908115865 0.089594 0.931847
-0.323464 0.510559 2.985417 0.116199341 -0.707695987 0.696896049 0.058599 0.931182
-0.323508 0.510312 2.985041 0.147609736 -0.922860869 0.355723463 0.060581 0.930551
-0.324616 0.510051 2.984982 0.264392468 -0.905874192 0.330890573 0.06253 0.937389
-0.324638 0.510292 2.985374 0.200803369 -0.706611854 0.678511382 0.060593 0.938273
-0.324685 0.510664 2.985646 0.122003794 -0.387812061 0.913628414 0.058662 0.939158
-0.323442 0.510932 2.985673 0.0714019846 -0.377810501 0.923125659 0.056632 0.931791
-0.325407 0.510036 2.985409 0.26551398 -0.689136284 0.674235499 0.061755 0.943025
-0.325337 0.509785 2.984979 0.337609571 -0.880524963 0.332709432 0.063708 0.941862
-0.325501 0.510431 2.985708 0.174103042 -0.380806653 0.908115865 0.05979 0.944213
-0.323568 0.510238 2.984595 0.159109403 -0.986458296 -0.0398023522 0.062594 0.929876
-0.323635 0.510337 2.984149 0.147797755 -0.896486382 -0.417693655 0.064618 0.929132
-0.324656 0.510102 2.984063 0.301718427 -0.850451939 -0.430926317 0.066429 0.935633
-0.324622 0.509989 2.98452 0.299405033 -0.952116005 -0.0619010406 0.064477 0.936509
-0.325303 0.509727 2.984477 0.377795714 -0.924289514 -0.0543993828 0.065633 0.940748
-0.325308 0.509858 2.98398 0.382707312 -0.82231571 -0.421108045 0.06754 0.939689
-0.323698 0.510606 2.983774 0.114600507 -0.677002992 -0.727003213 0.066636 0.928294
-0.323748 0.510993 2.983519 0.0653009472 -0.360905235 -0.930313494 0.068618 0.927367
-0.324782 0.510787 2.983428 0.21019503 -0.319792439 -0.923878155 0.0703 0.93388
-0.324712 0.510386 2.983682 0.270010506 -0.629324487 -0.728728355 0.068379 0.93476
-0.325353 0.510171 2.983568 0.350603925 -0.600206719 -0.718908048 0.069435 0.938688
-0.32543 0.510608 2.983295 0.286497357 -0.289197332 -0.913391574 0.071308 0.937747
-0.323777 0.511447 2.983434 0.0068999516 0.0128999095 -0.999892986 0.070534 0.926355
-0.323781 0.511896 2.98352 -0.0498025527 0.396120304 -0.916846994 0.072388 0.925311
-0.32492 0.511705 2.983449 0.0395994613 0.415594346 -0.908687637 0.073987 0.932103
-0.324855 0.511251 2.983351 0.128803724 0.0432012492 -0.990728647 0.072167 0.932982
-0.325529 0.511108 2.983216 0.195713929 0.0726051675 -0.977969605 0.073147 0.936866
-0.325633 0.511595 2.983327 0.0922988583 0.439294566 -0.893588946 0.074953 0.936065
-0.323759 0.512269 2.983775 -0.0943027183 0.72192081 -0.68551976 0.074183 0.924289
-0.324967 0.512077 2.98372 -0.0422010618 0.734018468 -0.677817054 0.075763 0.931278
-0.325727 0.511989 2.983625 -0.00689993593 0.748593049 -0.662993844 0.076723 0.935364
-0.328653 0.510886 2.984273 -0.507205658 0.8516095 0.132301476 0.08225 0.948165
-0.328658 0.510719 2.984703 -0.49042205 0.727632715 0.479621564 0.083628 0.948236
-0.329856 0.50998 2.984611 -0.483124529 0.692135141 0.536227225 0.084245 0.954155
-0.32987 0.510178 2.984192 -0.516618348 0.833029586 0.197907029 0.083058 0.953912
-0.32978 0.510248 2.983726 -0.480990897 0.861383698 -0.16329691 0.08186 0.953711
-0.32857 0.510909 2.983813 -0.45391404 0.861326641 -0.228207059 0.080874 0.948168
-0.330383 0.509858 2.98415 -0.590298244 0.777497687 0.216899355 0.08331 0.956257
-0.330366 0.509647 2.984566 -0.555034333 0.626038725 0.547733881 0.084399 0.956591
-0.330296 0.509942 2.983692 -0.552300204 0.820600304 -0.146900054 0.082219 0.955987
-0.32859 0.510417 2.985046 -0.407104843 0.505406012 0.76080905 0.085078 0.948396
-0.328464 0.510034 2.985261 -0.262799778 0.205099827 0.942799203 0.08664 0.948621
-0.329575 0.509292 2.985129 -0.223295045 0.158496483 0.961778658 0.086927 0.954868
-0.329751 0.509666 2.984937 -0.383525933 0.460631147 0.800454125 0.085512 0.954478
-0.330249 0.509329 2.984886 -0.445116287 0.394014417 0.804129424 0.08556 0.957016
-0.330058 0.508957 2.98507 -0.26719489 0.0995980952 0.958481669 0.086884 0.957536
-0.328295 0.509625 2.985301 -0.0713057068 -0.140011206 0.987579039 0.088355 0.948887
-0.328111 0.509251 2.985174 0.137000161 -0.475100558 0.869201021 0.090145 0.949172
-0.329117 0.50858 2.984997 0.198904907 -0.503612424 0.840720741 0.090297 0.955788
-0.329352 0.508911 2.985146 -0.0183010357 -0.181310261 0.983255644 0.088558 0.955314
-0.329816 0.508586 2.985079 -0.0374025958 -0.224015547 0.973867589 0.088466 0.958157
-0.329563 0.508271 2.984924 0.207807826 -0.52201966 0.827231154 0.090176 0.958828
-0.32794 0.508975 2.984888 0.32082691 -0.735661706 0.596550038 0.068365 0.957264
-0.327795 0.508834 2.98448 0.438598425 -0.866896888 0.23689915 0.069698 0.955386
-0.328735 0.508269 2.984271 0.492442152 -0.851672902 0.179315349 0.072427 0.960313
-0.328907 0.508355 2.984694 0.384587093 -0.743575046 0.546981644 0.071403 0.9625
-0.329117 0.50858 2.984997 0.198904907 -0.503612424 0.840720741 0.070393 0.9647
-0.328111 0.509251 2.985174 0.137000161 -0.475100558 0.869201021 0.067046 0.95914
-0.329337 0.508065 2.984616 0.421819328 -0.732433561 0.534424488 0.072873 0.96472
-0.32916 0.507995 2.984198 0.548991971 -0.818688027 0.168397537 0.073723 0.962427
-0.329563 0.508271 2.984924 0.207807826 -0.52201966 0.827231154 0.072037 0.967087
-0.327691 0.508867 2.983991 0.486119129 -0.865334052 -0.122004801 0.071055 0.953505
-0.327653 0.509049 2.983518 0.482208685 -0.744513409 -0.461708315 0.072429 0.951815
-0.328579 0.508574 2.983277 0.466330012 -0.71864625 -0.515833198 0.074564 0.956287
-0.328613 0.508354 2.983762 0.514116038 -0.839426186 -0.176205497 0.073477 0.958149
-0.329052 0.508089 2.983711 0.556906644 -0.806209618 -0.199702382 0.074598 0.960283
-0.329037 0.508315 2.983252 0.453627488 -0.702142548 -0.548833258 0.075532 0.958477
-0.327711 0.509356 2.98316 0.415206245 -0.507207628 -0.755211358 0.073807 0.950512
-0.327837 0.509739 2.982946 0.281801904 -0.191801296 -0.94010635 0.075188 0.949543
-0.328844 0.50927 2.982738 0.190897651 -0.172197881 -0.966388109 0.076864 0.954173
-0.328668 0.508895 2.98293 0.353416109 -0.482822008 -0.801236521 0.0757 0.955004
-0.329143 0.508638 2.982918 0.28210301 -0.4873052 -0.826408818 0.076555 0.957202
-0.329335 0.50901 2.982733 0.0818997453 -0.196899388 -0.976996961 0.077634 0.956364
-0.328006 0.510148 2.982906 0.0910994051 0.169598893 -0.981293592 0.076567 0.948859
-0.328201 0.510517 2.983047 -0.137196406 0.523386287 -0.840977967 0.077971 0.94843
-0.329318 0.509974 2.982891 -0.223597288 0.542293422 -0.809890176 0.079255 0.953457
-0.329067 0.50965 2.982722 -0.00839984372 0.186696527 -0.982381723 0.078035 0.953666
-0.329576 0.509381 2.982725 -0.130603565 0.141903873 -0.981226783 0.078736 0.955869
-0.32984 0.509692 2.982895 -0.329005491 0.48890816 -0.807913484 0.079873 0.95568
-0.328404 0.510778 2.983377 -0.332216324 0.759537321 -0.559227478 0.079427 0.948228
-0.329576 0.510177 2.983259 -0.38681845 0.773136876 -0.502623973 0.080561 0.953516
-0.330097 0.509883 2.983245 -0.465599923 0.72959988 -0.500899917 0.081054 0.955757
3 0 1 2
3 0 3 1
3 0 4 3
3 0 5 4
3 0 6 5
3 0 7 6
3 0 8 7
3 0 2 8
3 9 8 2
3 9 10 8
3 9 11 10
3 9 12 11
3 9 13 12
3 9 14 13
3 9 1 14
3 9 2 1
3 15 11 12
3 15 16 11
3 15 17 16
3 15 18 17
3 15 19 18
3 15 20 19
3 15 13 20
3 15 12 13
3 21 17 18
3 21 22 17
3 21 23 22
3 21 24 23
3 21 25 24
3 21 26 25
3 21 19 26
3 21 18 19
3 27 6 7
3 27 28 6
3 27 29 28
3 27 30 29
3 27 31 30
3 27 32 31
3 27 8 32
3 27 7 8
3 33 8 10
3 33 32 8
3 33 31 32
3 33 34 31
3 33 35 34
3 33 36 35
3 33 11 36
3 33 10 11
3 37 11 16
3 37 36 11
3 37 35 36
3 37 38 35
3 37 39 38
3 37 40 39
3 37 17 40
3 37 16 17
3 41 17 22
3 41 40 17
3 41 39 40
3 41 42 39
3 41 43 42
3 41 44 43
3 41 23 44
3 41 22 23
3 45 46 47
3 45 48 46
3 45 49 48
3 45 50 49
3 45 31 50
3 45 30 31
3 45 29 30
3 45 47 29
3 51 49 50
3 51 52 49
3 51 53 52
3 51 54 53
3 51 35 54
3 51 34 35
3 51 31 34
3 51 50 31
3 55 53 54
3 55 56 53
3 55 57 56
3 55 58 57
3 55 39 58
3 55 38 39
3 55 35 38
3 55 54 35
3 59 57 58
3 59 60 57
3 59 61 60
3 59 62 61
3 59 43 62
3 59 42 43
3 59 39 42
3 59 58 39
3 63 64 65
3 63 66 64
3 63 67 66
3 63 68 67
3 63 69 68
3 63 70 69
3 63 71 70
3 63 65 71
3 72 71 73
3 72 70 71
3 72 69 70
3 72 74 69
3 72 75 74
3 72 76 75
3 72 77 76
3 72 73 77
3 78 77 79
3 78 76 77
3 78 75 76
3 78 80 75
3 78 81 80
3 78 82 81
3 78 83 82
3 78 79 83
3 84 83 85
3 84 82 83
3 84 81 82
3 84 86 81
3 84 87 86
3 84 88 87
3 84 89 88
3 84 85 89
3 90 91 92
3 90 93 91
3 90 94 93
3 90 95 94
3 90 69 95
3 90 68 69
3 90 67 68
3 90 92 67
3 96 94 95
3 96 97 94
3 96 98 97
3 96 99 98
3 96 75 99
3 96 74 75
3 96 69 74
3 96 95 69
3 100 98 99
3 100 101 98
3 100 102 101
3 100 103 102
3 100 81 103
3 100 80 81
3 100 75 80
3 100 99 75
3 104 102 103
3 104 105 102
3 104 106 105
3 104 107 106
3 104 87 107
3 104 86 87
3 104 81 86
3 104 103 81
3 108 109 110
3 108 111 109
3 108 112 111
3 108 113 112
3 108 94 113
3 108 93 94
3 108 91 93
3 108 110 91
3 114 112 113
3 114 115 112
3 114 116 115
3 114 117 116
3 114 98 117
3 114 97 98
3 114 94 97
3 114 113 94
3 118 116 117
3 118 119 116
3 118 120 119
3 118 121 120
3 118 102 121
3 118 101 102
3 118 98 101
3 118 117 98
3 122 120 121
3 122 123 120
3 122 124 123
3 122 125 124
3 122 106 125
3 122 105 106
3 122 102 105
3 122 121 102
3 126 109 111
3 126 127 109
3 126 128 127
3 126 129 128
3 126 130 129
3 126 131 130
3 126 112 131
3 126 111 112
3 132 112 115
3 132 131 112
3 132 130 131
3 132 133 130
3 132 134 133
3 132 135 134
3 132 116 135
3 132 115 116
3 136 116 119
3 136 135 116
3 136 134 135
3 136 137 134
3 136 138 137
3 136 139 138
3 136 120 139
3 136 119 120
3 140 120 123
3 140 139 120
3 140 138 139
3 140 141 138
3 140 142 141
3 140 143 142
3 140 124 143
3 140 123 124
3 144 4 145
3 144 3 4
3 144 1 3
3 144 146 1
3 144 130 146
3 144 129 130
3 144 128 129
3 144 145 128
3 147 1 146
3 147 14 1
3 147 13 14
3 147 148 13
3 147 134 148
3 147 133 134
3 147 130 133
3 147 146 130
3 149 13 148
3 149 20 13
3 149 19 20
3 149 150 19
3 149 138 150
3 149 137 138
3 149 134 137
3 149 148 134
3 151 19 150
3 151 26 19
3 151 25 26
3 151 152 25
3 151 142 152
3 151 141 142
3 151 138 141
3 151 150 138
3 153 142 154
3 153 152 142
3 153 25 152
3 153 155 25
3 153 156 155
3 153 157 156
3 153 158 157
3 153 154 158
3 159 142 143
3 159 154 142
3 159 158 154
3 159 160 158
3 159 161 160
3 159 162 161
3 159 124 162
3 159 143 124
3 163 106 164
3 163 125 106
3 163 124 125
3 163 162 124
3 163 161 162
3 163 165 161
3 163 166 165
3 163 164 166
3 167 87 168
3 167 107 87
3 167 106 107
3 167 164 106
3 167 166 164
3 167 169 166
3 167 170 169
3 167 168 170
3 171 87 88
3 171 168 87
3 171 170 168
3 171 172 170
3 171 173 172
3 171 174 173
3 171 89 174
3 171 88 89
3 175 43 176
3 175 62 43
3 175 61 62
3 175 177 61
3 175 178 177
3 175 179 178
3 175 180 179
3 175 176 180
3 181 43 44
3 181 176 43
3 181 180 176
3 181 182 180
3 181 183 182
3 181 184 183
3 181 23 184
3 181 44 23
3 185 25 155
3 185 24 25
3 185 23 24
3 185 184 23
3 185 183 184
3 185 186 183
3 185 156 186
3 185 155 156
3 187 156 188
3 187 186 156
3 187 183 186
3 187 189 183
3 187 190 189
3 187 191 190
3 187 192 191
3 187 188 192
3 193 180 182
3 193 194 180
3 193 195 194
3 193 196 195
3 193 190 196
3 193 189 190
3 193 183 189
3 193 182 183
3 197 180 194
3 197 179 180
3 197 178 179
3 197 198 178
3 197 199 198
3 197 200 199
3 197 195 200
3 197 194 195
3 201 170 172
3 201 202 170
3 201 203 202
3 201 204 203
3 201 205 204
3 201 206 205
3 201 173 206
3 201 172 173
3 207 170 202
3 207 169 170
3 207 166 169
3 207 208 166
3 207 209 208
3 207 210 209
3 207 203 210
3 207 202 203
3 211 166 208
3 211 165 166
3 211 161 165
3 211 212 161
3 211 213 212
3 211 214 213
3 211 209 214
3 211 208 209
3 215 158 160
3 215 216 158
3 215 217 216
3 215 218 217
3 215 213 218
3 215 212 213
3 215 161 212
3 215 160 161
3 219 158 216
3 219 157 158
3 219 156 157
3 219 188 156
3 219 192 188
3 219 220 192
3 219 217 220
3 219 216 217
3 221 217 222
3 221 220 217
3 221 192 220
3 221 223 192
3 221 224 223
3 221 225 224
3 221 226 225
3 221 222 226
3 227 217 218
3 227 222 217
3 227 226 222
3 227 228 226
3 227 229 228
3 227 230 229
3 227 213 230
3 227 218 213
3 231 209 232
3 231 214 209
3 231 213 214
3 231 230 213
3 231 229 230
3 231 233 229
3 231 234 233
3 231 232 234
3 235 203 236
3 235 210 203
3 235 209 210
3 235 232 209
3 235 234 232
3 235 237 234
3 235 238 237
3 235 236 238
3 239 203 204
3 239 236 203
3 239 238 236
3 239 240 238
3 239 241 240
3 239 242 241
3 239 205 242
3 239 204 205
3 243 195 244
3 243 200 195
3 243 199 200
3 243 245 199
3 243 246 245
3 243 247 246
3 243 248 247
3 243 244 248
3 249 195 196
3 249 244 195
3 249 248 244
3 249 250 248
3 249 251 250
3 249 252 251
3 249 190 252
3 249 196 190
3 253 192 223
3 253 191 192
3 253 190 191
3 253 252 190
3 253 251 252
3 253 254 251
3 253 224 254
3 253 223 224
3 255 6 256
3 255 5 6
3 255 4 5
3 255 257 4
3 255 258 257
3 255 259 258
3 255 260 259
3 255 256 260
3 261 6 28
3 261 256 6
3 261 260 256
3 261 262 260
3 261 263 262
3 261 264 263
3 261 29 264
3 261 28 29
3 265 46 266
3 265 47 46
3 265 29 47
3 265 264 29
3 265 263 264
3 265 267 263
3 265 268 267
3 265 266 268
3 269 64 66
3 269 270 64
3 269 271 270
3 269 272 271
3 269 273 272
3 269 274 273
3 269 67 274
3 269 66 67
3 275 91 276
3 275 92 91
3 275 67 92
3 275 274 67
3 275 273 274
3 275 277 273
3 275 278 277
3 275 276 278
3 279 109 280
3 279 110 109
3 279 91 110
3 279 276 91
3 279 278 276
3 279 281 278
3 279 282 281
3 279 280 282
3 283 109 127
3 283 280 109
3 283 282 280
3 283 284 282
3 283 285 284
3 283 286 285
3 283 128 286
3 283 127 128
3 287 4 257
3 287 145 4
3 287 128 145
3 287 286 128
3 287 285 286
3 287 288 285
3 287 258 288
3 287 257 258
3 289 258 290
3 289 288 258
3 289 285 288
3 289 291 285
3 289 292 291
3 289 293 292
3 289 294 293
3 289 290 294
3 295 282 284
3 295 296 282
3 295 297 296
3 295 298 297
3 295 292 298
3 295 291 292
3 295 285 291
3 295 284 285
3 299 282 296
3 299 281 282
3 299 278 281
3 299 300 278
3 299 301 300
3 299 302 301
3 299 297 302
3 299 296 297
3 303 278 300
3 303 277 278
3 303 273 277
3 303 304 273
3 303 305 304
3 303 306 305
3 303 301 306
3 303 300 301
3 307 271 272
3 307 308 271
3 307 309 308
3 307 310 309
3 307 305 310
3 307 304 305
3 307 273 304
3 307 272 273
3 311 268 312
3 311 267 268
3 311 263 267
3 311 313 263
3 311 314 313
3 311 315 314
3 311 316 315
3 311 312 316
3 317 260 262
3 317 318 260
3 317 319 318
3 317 320 319
3 317 314 320
3 317 313 314
3 317 263 313
3 317 262 263
3 321 260 318
3 321 259 260
3 321 258 259
3 321 290 258
3 321 294 290
3 321 322 294
3 321 319 322
3 321 318 319
3 323 319 324
3 323 322 319
3 323 294 322
3 323 325 294
3 323 326 325
3 323 327 326
3 323 328 327
3 323 324 328
3 329 319 320
3 329 324 319
3 329 328 324
3 329 330 328
3 329 331 330
3 329 332 331
3 329 314 332
3 329 320 314
3 333 316 334
3 333 315 316
3 333 314 315
3 333 332 314
3 333 331 332
3 333 335 331
3 333 336 335
3 333 334 336
3 337 309 310
3 337 338 309
3 337 339 338
3 337 340 339
3 337 341 340
3 337 342 341
3 337 305 342
3 337 310 305
3 343 301 344
3 343 306 301
3 343 305 306
3 343 342 305
3 343 341 342
3 343 345 341
3 343 346 345
3 343 344 346
3 347 297 348
3 347 302 297
3 347 301 302
3 347 344 301
3 347 346 344
3 347 349 346
3 347 350 349
3 347 348 350
3 351 297 298
3 351 348 297
3 351 350 348
3 351 352 350
3 351 353 352
3 351 354 353
3 351 292 354
3 351 298 292
3 355 294 325
3 355 293 294
3 355 292 293
3 355 354 292
3 355 353 354
3 355 356 353
3 355 326 356
3 355 325 326
3 357 326 358
3 357 356 326
3 357 353 356
3 357 359 353
3 357 360 359
3 357 358 360
3 361 353 359
3 361 352 353
3 361 350 352
3 361 362 350
3 361 360 362
3 361 359 360
3 363 350 362
3 363 349 350
3 363 346 349
3 363 364 346
3 363 360 364
3 363 362 360
3 365 346 364
3 365 345 346
3 365 341 345
3 365 366 341
3 365 360 366
3 365 364 360
3 367 341 366
3 367 340 341
3 367 339 340
3 367 368 339
3 367 360 368
3 367 366 360
3 369 336 370
3 369 335 336
3 369 331 335
3 369 371 331
3 369 360 371
3 369 370 360
3 372 331 371
3 372 330 331
3 372 328 330
3 372 373 328
3 372 360 373
3 372 371 360
3 374 328 373
3 374 327 328
3 374 326 327
3 374 358 326
3 374 360 358
3 374 373 360
3 375 376 377
3 375 378 376
3 375 379 378
3 375 380 379
3 375 381 380
3 375 382 381
3 375 383 382
3 375 377 383
3 384 385 386
3 384 387 385
3 384 388 387
3 384 389 388
3 384 379 389
3 384 378 379
3 384 376 378
3 384 386 376
3 390 391 392
3 390 393 391
3 390 394 393
3 390 395 394
3 390 388 395
3 390 387 388
3 390 385 387
3 390 392 385
3 396 397 398
3 396 399 397
3 396 400 399
3 396 401 400
3 396 402 401
3 396 403 402
3 396 404 403
3 396 398 404
3 405 406 407
3 405 408 406
3 405 409 408
3 405 410 409
3 405 400 410
3 405 399 400
3 405 397 399
3 405 407 397
3 411 412 413
3 411 414 412
3 411 415 414
3 411 416 415
3 411 409 416
3 411 408 409
3 411 406 408
3 411 413 406
3 417 418 419
3 417 420 418
3 417 421 420
3 417 422 421
3 417 415 422
3 417 414 415
3 417 412 414
3 417 419 412
3 423 383 424
3 423 382 383
3 423 381 382
3 423 425 381
3 423 421 425
3 423 420 421
3 423 418 420
3 423 424 418
3 426 427 428
3 426 429 427
3 426 430 429
3 426 431 430
3 426 432 431
3 426 428 432
3 433 434 435
3 433 436 434
3 433 427 436
3 433 428 427
3 433 432 428
3 433 435 432
3 437 438 439
3 437 440 438
3 437 434 440
3 437 435 434
3 437 432 435
3 437 439 432
3 441 442 443
3 441 444 442
3 441 438 444
3 441 439 438
3 441 432 439
3 441 443 432
3 445 446 447
3 445 448 446
3 445 442 448
3 445 443 442
3 445 432 443
3 445 447 432
3 449 450 451
3 449 452 450
3 449 453 452
3 449 454 453
3 449 432 454
3 449 451 432
3 455 456 457
3 455 458 456
3 455 450 458
3 455 451 450
3 455 432 451
3 455 457 432
3 459 430 431
3 459 460 430
3 459 456 460
3 459 457 456
3 459 432 457
3 459 431 432
3 461 462 463
3 461 464 462
3 461 456 464
3 461 460 456
3 461 430 460
3 461 465 430
3 461 466 465
3 461 463 466
3 467 468 469
3 467 470 468
3 467 450 470
3 467 458 450
3 467 456 458
3 467 464 456
3 467 462 464
3 467 469 462
3 471 472 473
3 471 474 472
3 471 453 474
3 471 452 453
3 471 450 452
3 471 470 450
3 471 468 470
3 471 473 468
3 475 476 477
3 475 478 476
3 475 442 478
3 475 448 442
3 475 446 448
3 475 479 446
3 475 480 479
3 475 477 480
3 481 482 483
3 481 484 482
3 481 438 484
3 481 444 438
3 481 442 444
3 481 478 442
3 481 476 478
3 481 483 476
3 485 486 487
3 485 488 486
3 485 434 488
3 485 440 434
3 485 438 440
3 485 484 438
3 485 482 484
3 485 487 482
3 489 490 491
3 489 492 490
3 489 427 492
3 489 436 427
3 489 434 436
3 489 488 434
3 489 486 488
3 489 491 486
3 493 466 494
3 493 465 466
3 493 430 465
3 493 429 430
3 493 427 429
3 493 492 427
3 493 490 492
3 493 494 490
3 495 379 380
3 495 496 379
3 495 497 496
3 495 498 497
3 495 499 498
3 495 500 499
3 495 381 500
3 495 380 381
3 501 388 389
3 501 502 388
3 501 503 502
3 501 504 503
3 501 497 504
3 501 496 497
3 501 379 496
3 501 389 379
3 505 394 395
3 505 506 394
3 505 507 506
3 505 508 507
3 505 503 508
3 505 502 503
3 505 388 502
3 505 395 388
3 509 400 401
3 509 510 400
3 509 511 510
3 509 512 511
3 509 513 512
3 509 514 513
3 509 402 514
3 509 401 402
3 515 409 410
3 515 516 409
3 515 517 516
3 515 518 517
3 515 511 518
3 515 510 511
3 515 400 510
3 515 410 400
3 519 415 416
3 519 520 415
3 519 521 520
3 519 522 521
3 519 517 522
3 519 516 517
3 519 409 516
3 519 416 409
3 523 421 422
3 523 524 421
3 523 525 524
3 523 526 525
3 523 521 526
3 523 520 521
3 523 415 520
3 523 422 415
3 527 381 425
3 527 500 381
3 527 499 500
3 527 528 499
3 527 525 528
3 527 524 525
3 527 421 524
3 527 425 421
3 529 530 531
3 529 532 530
3 529 533 532
3 529 534 533
3 529 535 534
3 529 536 535
3 529 537 536
3 529 531 537
3 538 539 540
3 538 541 539
3 538 542 541
3 538 543 542
3 538 533 543
3 538 532 533
3 538 530 532
3 538 540 530
3 544 545 546
3 544 547 545
3 544 548 547
3 544 549 548
3 544 542 549
3 544 541 542
3 544 539 541
3 544 546 539
3 550 551 552
3 550 553 551
3 550 554 553
3 550 555 554
3 550 556 555
3 550 557 556
3 550 558 557
3 550 552 558
3 559 560 561
3 559 562 560
3 559 563 562
3 559 564 563
3 559 554 564
3 559 553 554
3 559 551 553
3 559 561 551
3 565 566 567
3 565 568 566
3 565 569 568
3 565 570 569
3 565 563 570
3 565 562 563
3 565 560 562
3 565 567 560
3 571 572 573
3 571 574 572
3 571 575 574
3 571 576 575
3 571 569 576
3 571 568 569
3 571 566 568
3 571 573 566
3 577 537 578
3 577 536 537
3 577 535 536
3 577 579 535
3 577 575 579
3 577 574 575
3 577 572 574
3 577 578 572
3 580 497 498
3 580 581 497
3 580 582 581
3 580 583 582
3 580 584 583
3 580 585 584
3 580 499 585
3 580 498 499
3 586 582 583
3 586 587 582
3 586 530 587
3 586 531 530
3 586 537 531
3 586 588 537
3 586 584 588
3 586 583 584
3 589 503 504
3 589 590 503
3 589 591 590
3 589 592 591
3 589 582 592
3 589 581 582
3 589 497 581
3 589 504 497
3 593 591 592
3 593 594 591
3 593 539 594
3 593 540 539
3 593 530 540
3 593 587 530
3 593 582 587
3 593 592 582
3 595 507 508
3 595 596 507
3 595 597 596
3 595 598 597
3 595 591 598
3 595 590 591
3 595 503 590
3 595 508 503
3 599 597 598
3 599 600 597
3 599 545 600
3 599 546 545
3 599 539 546
3 599 594 539
3 599 591 594
3 599 598 591
3 601 511 512
3 601 602 511
3 601 603 602
3 601 604 603
3 601 605 604
3 601 606 605
3 601 513 606
3 601 512 513
3 607 603 604
3 607 608 603
3 607 551 608
3 607 552 551
3 607 558 552
3 607 609 558
3 607 605 609
3 607 604 605
3 610 517 518
3 610 611 517
3 610 612 611
3 610 613 612
3 610 603 613
3 610 602 603
3 610 511 602
3 610 518 511
3 614 612 613
3 614 615 612
3 614 560 615
3 614 561 560
3 614 551 561
3 614 608 551
3 614 603 608
3 614 613 603
3 616 521 522
3 616 617 521
3 616 618 617
3 616 619 618
3 616 612 619
3 616 611 612
3 616 517 611
3 616 522 517
3 620 618 619
3 620 621 618
3 620 566 621
3 620 567 566
3 620 560 567
3 620 615 560
3 620 612 615
3 620 619 612
3 622 525 526
3 622 623 525
3 622 624 623
3 622 625 624
3 622 618 625
3 622 617 618
3 622 521 617
3 622 526 521
3 626 624 625
3 626 627 624
3 626 572 627
3 626 573 572
3 626 566 573
3 626 621 566
3 626 618 621
3 626 625 618
3 628 499 528
3 628 585 499
3 628 584 585
3 628 629 584
3 628 624 629
3 628 623 624
3 628 525 623
3 628 528 525
3 630 584 629
3 630 588 584
3 630 537 588
3 630 578 537
3 630 572 578
3 630 627 572
3 630 624 627
3 630 629 624
3 631 533 534
3 631 632 533
3 631 633 632
3 631 634 633
3 631 635 634
3 631 636 635
3 631 535 636
3 631 534 535
3 637 633 634
3 637 638 633
3 637 462 638
3 637 463 462
3 637 466 463
3 637 639 466
3 637 635 639
3 637 634 635
3 640 542 543
3 640 641 542
3 640 642 641
3 640 643 642
3 640 633 643
3 640 632 633
3 640 533 632
3 640 543 533
3 644 642 643
3 644 645 642
3 644 468 645
3 644 469 468
3 644 462 469
3 644 638 462
3 644 633 638
3 644 643 633
3 646 548 549
3 646 647 548
3 646 648 647
3 646 649 648
3 646 642 649
3 646 641 642
3 646 542 641
3 646 549 542
3 650 648 649
3 650 651 648
3 650 472 651
3 650 473 472
3 650 468 473
3 650 645 468
3 650 642 645
3 650 649 642
3 652 554 555
3 652 653 554
3 652 654 653
3 652 655 654
3 652 656 655
3 652 657 656
3 652 556 657
3 652 555 556
3 658 654 655
3 658 659 654
3 658 476 659
3 658 477 476
3 658 480 477
3 658 660 480
3 658 656 660
3 658 655 656
3 661 563 564
3 661 662 563
3 661 663 662
3 661 664 663
3 661 654 664
3 661 653 654
3 661 554 653
3 661 564 554
3 665 663 664
3 665 666 663
3 665 482 666
3 665 483 482
3 665 476 483
3 665 659 476
3 665 654 659
3 665 664 654
3 667 569 570
3 667 668 569
3 667 669 668
3 667 670 669
3 667 663 670
3 667 662 663
3 667 563 662
3 667 570 563
3 671 669 670
3 671 672 669
3 671 486 672
3 671 487 486
3 671 482 487
3 671 666 482
3 671 663 666
3 671 670 663
3 673 575 576
3 673 674 575
3 673 675 674
3 673 676 675
3 673 669 676
3 673 668 669
3 673 569 668
3 673 576 569
3 677 675 676
3 677 678 675
3 677 490 678
3 677 491 490
3 677 486 491
3 677 672 486
3 677 669 672
3 677 676 669
3 679 535 579
3 679 636 535
3 679 635 636
3 679 680 635
3 679 675 680
3 679 674 675
3 679 575 674
3 679 579 575
3 681 635 680
3 681 639 635
3 681 466 639
3 681 494 466
3 681 490 494
3 681 678 490
3 681 675 678
3 681 680 675
