ply
format ascii 1.0
element vertex 20
property float x
property float y
property float z
property float nx
property float ny
property float nz
property float u
property float v
element face 16
property list uchar int vertex_indices
end_header
2.22547 0.672476 4.008511 -0.923876672 0 -0.382690337 0 0
2.227622 0.738434 4.003316 -0.923876672 0 -0.382690337 0 0
2.227622 0.672476 4.003316 -0.923876672 0 -0.382690337 0 0
2.22547 0.738434 4.008511 -0.923876672 0 -0.382690337 0 0
2.22547 0.672476 4.008511 0.382690337 0 0.923876672 0 0
2.220275 0.738434 4.010663 0 0 1 0 0
2.220275 0.672476 4.010663 0 0 1 0 0
2.22547 0.738434 4.008511 0.382690337 0 0.923876672 0 0
2.21508 0.738434 4.008511 -0.707106781 0 0.707106781 0 0
2.21508 0.672476 4.008511 -0.707106781 0 0.707106781 0 0
2.212928 0.738434 4.003316 -1 0 0 0 0
2.212928 0.672476 4.003316 -1 0 0 0 0
2.21508 0.738434 3.998121 -0.707106781 0 -0.707106781 0 0
2.21508 0.672476 3.998121 -0.707106781 0 -0.707106781 0 0
2.220275 0.738434 3.995969 0 0 -1 0 0
2.220275 0.672476 3.995969 0 0 -1 0 0
2.22547 0.738434 3.998121 0.707106781 0 -0.707106781 0 0
2.22547 0.672476 3.998121 0.707106781 0 -0.707106781 0 0
2.227622 0.738434 4.003316 0.923876672 0 -0.382690337 0 0
2.227622 0.672476 4.003316 0.923876672 0 -0.382690337 0 0
3 0 1 2
3 0 3 1
3 4 5 6
3 4 7 5
3 6 8 9
3 6 5 8
3 9 10 11
3 9 8 10
3 11 12 13
3 11 10 12
3 13 14 15
3 13 12 14
3 15 16 17
3 15 14 16
3 17 18 19
3 17 16 18
