ply
format ascii 1.0
element vertex 132
property float x
property float y
property float z
property float nx
property float ny
property float nz
property float u
property float v
element face 44
property list uchar int vertex_indices
end_header
2.242364 0.671983 4.051014 1 0 0 0 0
2.242364 0.662713 3.955618 1 0 0 0 0
2.242364 0.671983 3.955618 1 0 0 0 0
2.242364 0.671983 4.051014 1 0 0 0 0
2.242364 0.662713 4.051014 1 0 0 0 0
2.242364 0.662713 3.955618 1 0 0 0 0
2.198349 0.662353 4.051014 0 -1 0 0 0
2.242201 0.662353 3.955618 0 -1 0 0 0
2.242201 0.662353 4.051014 0 -1 0 0 0
2.198349 0.662353 4.051014 0 -1 0 0 0
2.198349 0.662353 3.955618 0 -1 0 0 0
2.242201 0.662353 3.955618 0 -1 0 0 0
2.198185 0.671983 3.955618 -1 0 0 0 0
2.198185 0.662713 4.051014 -1 0 0 0 0
2.198185 0.671983 4.051014 -1 0 0 0 0
2.198185 0.671983 3.955618 -1 0 0 0 0
2.198185 0.662713 3.955618 -1 0 0 0 0
2.198185 0.662713 4.051014 -1 0 0 0 0
2.242201 0.672344 3.955618 0 1 -0 0 0
2.198349 0.672344 4.051014 0 1 -0 0 0
2.242201 0.672344 4.051014 0 1 -0 0 0
2.242201 0.672344 3.955618 0 1 0 0 0
2.198349 0.672344 3.955618 0 1 0 0 0
2.198349 0.672344 4.051014 0 1 0 0 0
2.198349 0.671983 4.051592 -0 0 1 0 0
2.242201 0.662713 4.051592 -0 0 1 0 0
2.242201 0.671983 4.051592 -0 0 1 0 0
2.198349 0.671983 4.051592 0 0 1 0 0
2.198349 0.662713 4.051592 0 0 1 0 0
2.242201 0.662713 4.051592 0 0 1 0 0
2.242201 0.672344 3.955618 0.882711415 0.398564988 -0.248930728 0 0
2.242364 0.671983 3.955618 0.882711415 0.398564988 -0.248930728 0 0
2.242201 0.671983 3.95504 0.882711415 0.398564988 -0.248930728 0 0
2.198349 0.672344 3.955618 -0.881514353 0.400466354 -0.250118259 0 0
2.198349 0.671983 3.95504 -0.881514353 0.400466354 -0.250118259 0 0
2.198185 0.671983 3.955618 -0.881514353 0.400466354 -0.250118259 0 0
2.198349 0.671983 4.051592 -0.881514353 0.400466354 0.250118259 0 0
2.198349 0.672344 4.051014 -0.881514353 0.400466354 0.250118259 0 0
2.198185 0.671983 4.051014 -0.881514353 0.400466354 0.250118259 0 0
2.242201 0.672344 4.051014 0.882711415 0.398564988 0.248930728 0 0
2.242201 0.671983 4.051592 0.882711415 0.398564988 0.248930728 0 0
2.242364 0.671983 4.051014 0.882711415 0.398564988 0.248930728 0 0
2.242201 0.662713 4.051592 0.882321626 -0.399495625 0.248820805 0 0
2.242201 0.662353 4.051014 0.882321626 -0.399495625 0.248820805 0 0
2.242364 0.662713 4.051014 0.882321626 -0.399495625 0.248820805 0 0
2.198349 0.662713 4.051592 -0.881121373 -0.401399736 0.250006756 0 0
2.198185 0.662713 4.051014 -0.881121373 -0.401399736 0.250006756 0 0
2.198349 0.662353 4.051014 -0.881121373 -0.401399736 0.250006756 0 0
2.198349 0.662713 3.95504 -0.881121373 -0.401399736 -0.250006756 0 0
2.198349 0.662353 3.955618 -0.881121373 -0.401399736 -0.250006756 0 0
2.198185 0.662713 3.955618 -0.881121373 -0.401399736 -0.250006756 0 0
2.242364 0.662713 3.955618 0.882321626 -0.399495625 -0.248820805 0 0
2.242201 0.662353 3.955618 0.882321626 -0.399495625 -0.248820805 0 0
2.242201 0.662713 3.95504 0.882321626 -0.399495625 -0.248820805 0 0
2.198349 0.672344 3.955618 -0.910452829 0.413612919 0 0 0
2.198185 0.671983 4.051014 -0.910452829 0.413612919 0 0 0
2.198349 0.672344 4.051014 -0.910452829 0.413612919 0 0 0
2.198349 0.672344 3.955618 -0.910452829 0.413612919 0 0 0
2.198185 0.671983 3.955618 -0.910452829 0.413612919 0 0 0
2.198185 0.671983 4.051014 -0.910452829 0.413612919 0 0 0
2.242201 0.672344 3.955618 0 0.848163141 -0.52973511 0 0
2.198349 0.671983 3.95504 0 0.848163141 -0.52973511 0 0
2.198349 0.672344 3.955618 0 0.848163141 -0.52973511 0 0
2.242201 0.672344 3.955618 0 0.848163141 -0.52973511 0 0
2.242201 0.671983 3.95504 0 0.848163141 -0.52973511 0 0
2.198349 0.671983 3.95504 0 0.848163141 -0.52973511 0 0
2.242364 0.671983 3.955618 0.911401146 0.411519077 -0 0 0
2.242201 0.672344 4.051014 0.911401146 0.411519077 -0 0 0
2.242364 0.671983 4.051014 0.911401146 0.411519077 -0 0 0
2.242364 0.671983 3.955618 0.911401146 0.411519077 0 0 0
2.242201 0.672344 3.955618 0.911401146 0.411519077 0 0 0
2.242201 0.672344 4.051014 0.911401146 0.411519077 0 0 0
2.198349 0.672344 4.051014 -0 0.848163141 0.52973511 0 0
2.242201 0.671983 4.051592 -0 0.848163141 0.52973511 0 0
2.242201 0.672344 4.051014 -0 0.848163141 0.52973511 0 0
2.198349 0.672344 4.051014 0 0.848163141 0.52973511 0 0
2.198349 0.671983 4.051592 0 0.848163141 0.52973511 0 0
2.242201 0.671983 4.051592 0 0.848163141 0.52973511 0 0
2.242364 0.671983 4.051014 0.96246083 0 0.271420615 0 0
2.242201 0.662713 4.051592 0.96246083 0 0.271420615 0 0
2.242364 0.662713 4.051014 0.96246083 0 0.271420615 0 0
2.242364 0.671983 4.051014 0.96246083 0 0.271420615 0 0
2.242201 0.671983 4.051592 0.96246083 0 0.271420615 0 0
2.242201 0.662713 4.051592 0.96246083 0 0.271420615 0 0
2.242201 0.662353 4.051014 0 -0.848822305 0.528678252 0 0
2.198349 0.662713 4.051592 0 -0.848822305 0.528678252 0 0
2.198349 0.662353 4.051014 0 -0.848822305 0.528678252 0 0
2.242201 0.662353 4.051014 0 -0.848822305 0.528678252 0 0
2.242201 0.662713 4.051592 0 -0.848822305 0.528678252 0 0
2.198349 0.662713 4.051592 0 -0.848822305 0.528678252 0 0
2.198349 0.671983 4.051592 -0.962024801 0 0.272962054 0 0
2.198185 0.662713 4.051014 -0.962024801 0 0.272962054 0 0
2.198349 0.662713 4.051592 -0.962024801 0 0.272962054 0 0
2.198349 0.671983 4.051592 -0.962024801 0 0.272962054 0 0
2.198185 0.671983 4.051014 -0.962024801 0 0.272962054 0 0
2.198185 0.662713 4.051014 -0.962024801 0 0.272962054 0 0
2.242201 0.671983 3.95504 0.96246083 0 -0.271420615 0 0
2.242364 0.662713 3.955618 0.96246083 0 -0.271420615 0 0
2.242201 0.662713 3.95504 0.96246083 0 -0.271420615 0 0
2.242201 0.671983 3.95504 0.96246083 0 -0.271420615 0 0
2.242364 0.671983 3.955618 0.96246083 0 -0.271420615 0 0
2.242364 0.662713 3.955618 0.96246083 0 -0.271420615 0 0
2.242364 0.662713 4.051014 0.910972121 -0.412467932 0 0 0
2.242201 0.662353 3.955618 0.910972121 -0.412467932 0 0 0
2.242364 0.662713 3.955618 0.910972121 -0.412467932 0 0 0
2.242364 0.662713 4.051014 0.910972121 -0.412467932 0 0 0
2.242201 0.662353 4.051014 0.910972121 -0.412467932 0 0 0
2.242201 0.662353 3.955618 0.910972121 -0.412467932 0 0 0
2.198185 0.671983 3.955618 -0.962024801 -0 -0.272962054 0 0
2.198349 0.662713 3.95504 -0.962024801 -0 -0.272962054 0 0
2.198185 0.662713 3.955618 -0.962024801 -0 -0.272962054 0 0
2.198185 0.671983 3.955618 -0.962024801 0 -0.272962054 0 0
2.198349 0.671983 3.95504 -0.962024801 0 -0.272962054 0 0
2.198349 0.662713 3.95504 -0.962024801 0 -0.272962054 0 0
2.198349 0.662353 3.955618 0 -0.848822305 -0.528678252 0 0
2.242201 0.662713 3.95504 0 -0.848822305 -0.528678252 0 0
2.242201 0.662353 3.955618 0 -0.848822305 -0.528678252 0 0
2.198349 0.662353 3.955618 0 -0.848822305 -0.528678252 0 0
2.198349 0.662713 3.95504 0 -0.848822305 -0.528678252 0 0
2.242201 0.662713 3.95504 0 -0.848822305 -0.528678252 0 0
2.198349 0.662353 4.051014 -0.91001988 -0.414564612 -0 0 0
2.198185 0.662713 3.955618 -0.91001988 -0.414564612 -0 0 0
2.198349 0.662353 3.955618 -0.91001988 -0.414564612 -0 0 0
2.198349 0.662353 4.051014 -0.91001988 -0.414564612 0 0 0
2.198185 0.662713 4.051014 -0.91001988 -0.414564612 0 0 0
2.198185 0.662713 3.955618 -0.91001988 -0.414564612 0 0 0
2.242201 0.671983 3.95504 -0 0 -1 0 0
2.198349 0.662713 3.95504 -0 0 -1 0 0
2.198349 0.671983 3.95504 -0 0 -1 0 0
2.242201 0.671983 3.95504 0 -0 -1 0 0
2.242201 0.662713 3.95504 0 -0 -1 0 0
2.198349 0.662713 3.95504 0 -0 -1 0 0
3 0 1 2
3 3 4 5
3 6 7 8
3 9 10 11
3 12 13 14
3 15 16 17
3 18 19 20
3 21 22 23
3 24 25 26
3 27 28 29
3 30 31 32
3 33 34 35
3 36 37 38
3 39 40 41
3 42 43 44
3 45 46 47
3 48 49 50
3 51 52 53
3 54 55 56
3 57 58 59
3 60 61 62
3 63 64 65
3 66 67 68
3 69 70 71
3 72 73 74
3 75 76 77
3 78 79 80
3 81 82 83
3 84 85 86
3 87 88 89
3 90 91 92
3 93 94 95
3 96 97 98
3 99 100 101
3 102 103 104
3 105 106 107
3 108 109 110
3 111 112 113
3 114 115 116
3 117 118 119
3 120 121 122
3 123 124 125
3 126 127 128
3 129 130 131
