ply
format ascii 1.0
element vertex 790
property float x
property float y
property float z
property float nx
property float ny
property float nz
property float u
property float v
element face 736
property list uchar int vertex_indices
end_header
2.207712 0.80245 3.935296 0 0.997739347 -0.0672026502 0 0
2.213523 0.802215 3.933242 0 0.980283409 -0.197596656 0 0
2.207712 0.802215 3.933242 0 0.980283409 -0.197596656 0 0
2.213523 0.80245 3.935296 0 0.997739347 -0.0672026502 0 0
2.207712 0.737105 3.932593 0 -0.971824427 -0.235705925 0 0
2.213523 0.736426 3.936334 0 -0.996440132 -0.0843033954 0 0
2.207712 0.736426 3.936334 0 -0.996440132 -0.0843033954 0 0
2.213523 0.737105 3.932593 0 -0.971824427 -0.235705925 0 0
2.207712 0.802312 3.937896 0 0.987663037 0.15659414 0 0
2.213523 0.802461 3.935834 0 0.999672284 0.0255992903 0 0
2.207712 0.802461 3.935834 0 0.999672284 0.0255992903 0 0
2.213523 0.802312 3.937896 0 0.987663037 0.15659414 0 0
2.207442 0.746155 3.930327 -1 0 0 0 0
2.207442 0.737585 3.932016 -1 0 0 0 0
2.207442 0.746275 3.931224 -1 0 0 0 0
2.207442 0.738731 3.929407 -1 0 0 0 0
2.207712 0.796981 3.933286 0 -0.693222624 0.720723521 0 0
2.213523 0.797603 3.934076 0 -0.847497928 0.530798702 0 0
2.207712 0.797603 3.934076 0 -0.847497928 0.530798702 0 0
2.213523 0.796981 3.933286 0 -0.693222624 0.720723521 0 0
2.207712 0.746477 3.929826 0 0.980642169 0.19580842 0 0
2.213523 0.74676 3.928936 0 0.93855807 0.345121353 0 0
2.207712 0.74676 3.928936 0 0.93855807 0.345121353 0 0
2.213523 0.746477 3.929826 0 0.980642169 0.19580842 0 0
2.207712 0.797669 3.937262 0 -0.868851685 -0.49507247 0 0
2.213523 0.797081 3.938076 0 -0.737714275 -0.675113064 0 0
2.207712 0.797081 3.938076 0 -0.737714275 -0.675113064 0 0
2.213523 0.797669 3.937262 0 -0.868851685 -0.49507247 0 0
2.207712 0.748476 3.935057 0 0.774892088 -0.632093546 0 0
2.213523 0.747375 3.933517 0 0.852888563 -0.522092999 0 0
2.207712 0.747375 3.933517 0 0.852888563 -0.522092999 0 0
2.213523 0.748476 3.935057 0 0.774892088 -0.632093546 0 0
2.207712 0.800187 3.929127 0 0.729297035 -0.684197219 0 0
2.213523 0.795765 3.925265 0 0.601087422 -0.799183277 0 0
2.207712 0.795765 3.925265 0 0.601087422 -0.799183277 0 0
2.213523 0.800187 3.929127 0 0.729297035 -0.684197219 0 0
2.207712 0.746154 3.923267 0 -0.483399826 -0.875399685 0 0
2.213523 0.741199 3.926303 0 -0.582401115 -0.812901557 0 0
2.207712 0.741199 3.926303 0 -0.582401115 -0.812901557 0 0
2.213523 0.746154 3.923267 0 -0.483399826 -0.875399685 0 0
2.207712 0.796199 3.94611 0 0.638835798 0.769343111 0 0
2.213523 0.800457 3.942092 0 0.755801255 0.654801087 0 0
2.207712 0.800457 3.942092 0 0.755801255 0.654801087 0 0
2.213523 0.796199 3.94611 0 0.638835798 0.769343111 0 0
2.207712 0.737751 3.942602 0 -0.802560547 0.596570673 0 0
2.213523 0.742811 3.947661 0 -0.639603886 0.76870467 0 0
2.207712 0.742811 3.947661 0 -0.639603886 0.76870467 0 0
2.213523 0.737751 3.942602 0 -0.802560547 0.596570673 0 0
2.207712 0.785522 3.930459 0 -0.107797064 0.994172919 0 0
2.213523 0.792222 3.93144 0 -0.195904587 0.980622962 0 0
2.207712 0.792222 3.93144 0 -0.195904587 0.980622962 0 0
2.213523 0.785522 3.930459 0 -0.107797064 0.994172919 0 0
2.207712 0.748733 3.92543 0 0.600623842 0.799531738 0 0
2.213523 0.756667 3.921117 0 0.477590515 0.878582552 0 0
2.207712 0.756667 3.921117 0 0.477590515 0.878582552 0 0
2.213523 0.748733 3.92543 0 0.600623842 0.799531738 0 0
2.207712 0.792633 3.94046 0 -0.273915326 -0.961753812 0 0
2.213523 0.785748 3.941921 0 -0.166506806 -0.986040305 0 0
2.207712 0.785748 3.941921 0 -0.166506806 -0.986040305 0 0
2.213523 0.792633 3.94046 0 -0.273915326 -0.961753812 0 0
2.207712 0.755206 3.939344 0 0.375008625 -0.927021322 0 0
2.213523 0.751519 3.937599 0 0.484181931 -0.874967347 0 0
2.207712 0.751519 3.937599 0 0.484181931 -0.874967347 0 0
2.213523 0.755206 3.939344 0 0.375008625 -0.927021322 0 0
2.207712 0.786429 3.92102 0 0.206297737 -0.978489266 0 0
2.213523 0.776382 3.919657 0 0.100899656 -0.994896607 0 0
2.207712 0.776382 3.919657 0 0.100899656 -0.994896607 0 0
2.213523 0.786429 3.92102 0 0.206297737 -0.978489266 0 0
2.207712 0.776398 3.953542 0 0.188495037 0.982074142 0 0
2.213523 0.787127 3.951088 0 0.290007395 0.957024404 0 0
2.207712 0.787127 3.951088 0 0.290007395 0.957024404 0 0
2.213523 0.776398 3.953542 0 0.188495037 0.982074142 0 0
2.207712 0.752286 3.951926 0 -0.22260214 0.974909374 0 0
2.213523 0.763849 3.95378 0 -0.123702413 0.99231936 0 0
2.207712 0.763849 3.95378 0 -0.123702413 0.99231936 0 0
2.213523 0.752286 3.951926 0 -0.22260214 0.974909374 0 0
2.207712 0.771296 3.941848 0 0.0644015531 -0.997924065 0 0
2.213523 0.764857 3.941432 0 0.100998636 -0.994886564 0 0
2.207712 0.764857 3.941432 0 0.100998636 -0.994886564 0 0
2.213523 0.771296 3.941848 0 0.0644015531 -0.997924065 0 0
2.207712 0.772051 3.953947 0 0.0583996073 0.998293286 0 0
2.213523 0.775865 3.953625 0 0.118999321 0.992894336 0 0
2.207712 0.775865 3.953625 0 0.118999321 0.992894336 0 0
2.213523 0.772051 3.953947 0 0.0583996073 0.998293286 0 0
2.207712 0.775844 3.919621 0 0.0335012964 -0.999438674 0 0
2.213523 0.771949 3.919622 0 -0.000199999996 -0.99999998 0 0
2.207712 0.771949 3.919622 0 -0.000199999996 -0.99999998 0 0
2.213523 0.775844 3.919621 0 0.0335012964 -0.999438674 0 0
2.207712 0.776198 3.942099 0 0.999975501 -0.00699982851 0 0
2.213523 0.776119 3.930724 0 0.999975501 -0.00699982851 0 0
2.207712 0.776119 3.930724 0 0.999975501 -0.00699982851 0 0
2.213523 0.776198 3.942099 0 0.999975501 -0.00699982851 0 0
2.207712 0.771678 3.919893 0 -0.999999955 0.000299999987 0 0
2.213523 0.771681 3.930185 0 -0.99999758 -0.00219999468 0 0
2.207712 0.771681 3.930185 0 -0.99999758 -0.00219999468 0 0
2.213523 0.771678 3.919893 0 -0.999999955 0.000299999987 0 0
2.207712 0.771678 3.930725 0 -0.999972621 -0.0073997974 0 0
2.213523 0.771568 3.941595 0 -0.999948989 -0.0101004948 0 0
2.207712 0.771568 3.941595 0 -0.999948989 -0.0101004948 0 0
2.213523 0.771678 3.930725 0 -0.999972621 -0.0073997974 0 0
2.207442 0.775849 3.930724 -1 0 0 0 0
2.207442 0.771839 3.941623 -0.984122069 -0.120302698 -0.130502927 0 0
2.207442 0.775928 3.942067 -1 0 0 0 0
2.207442 0.771949 3.930725 -1 0 0 0 0
2.213794 0.771951 3.930184 1 0 0 0 0
2.213794 0.775844 3.919892 0.99999998 0.000199999996 0 0 0
2.213794 0.775847 3.930183 0.999999995 9.99999995e-05 0 0 0
2.213794 0.771949 3.919893 1 0 0 0 0
2.207442 0.775844 3.919892 -1 0 0 0 0
2.207442 0.771951 3.930184 -1 0 0 0 0
2.207442 0.775847 3.930183 -1 0 0 0 0
2.207442 0.771949 3.919893 -1 0 0 0 0
2.207712 0.764386 3.953828 0 -0.0540022074 0.998540816 0 0
2.213523 0.771511 3.953964 0 0.00679984279 0.999976881 0 0
2.207712 0.771511 3.953964 0 0.00679984279 0.999976881 0 0
2.213523 0.764386 3.953828 0 -0.0540022074 0.998540816 0 0
2.207442 0.771842 3.942167 -0.992779762 -0.0812983428 -0.0881982021 0 0
2.207442 0.775866 3.953353 -1 0 0 0 0
2.207442 0.775928 3.942612 -1 0 0 0 0
2.207442 0.772047 3.953676 -0.999999995 9.99999995e-05 0 0 0
2.207712 0.764323 3.941358 0 0.173408792 -0.984849933 0 0
2.213523 0.755715 3.939516 0 0.26550278 -0.964110094 0 0
2.207712 0.755715 3.939516 0 0.26550278 -0.964110094 0 0
2.213523 0.764323 3.941358 0 0.173408792 -0.984849933 0 0
2.207712 0.785213 3.941989 0 -0.0836992492 -0.996491062 0 0
2.213523 0.776471 3.942358 0 -0.0422003872 -0.999109167 0 0
2.207712 0.776471 3.942358 0 -0.0422003872 -0.999109167 0 0
2.213523 0.785213 3.941989 0 -0.0836992492 -0.996491062 0 0
2.207712 0.756701 3.92081 0 0.660194966 -0.751094273 0 0
2.213523 0.755582 3.919826 0 0.660194966 -0.751094273 0 0
2.207712 0.755582 3.919826 0 0.660194966 -0.751094273 0 0
2.213523 0.756701 3.92081 0 0.660194966 -0.751094273 0 0
2.207712 0.776388 3.930453 0 0.00369997467 0.999993155 0 0
2.213523 0.784984 3.930421 0 -0.0335012964 0.999438674 0 0
2.207712 0.784984 3.930421 0 -0.0335012964 0.999438674 0 0
2.213523 0.776388 3.930453 0 0.00369997467 0.999993155 0 0
2.207442 0.75236 3.951663 -1 0 0 0 0
2.207442 0.764308 3.941632 -1 0 0 0 0
2.207442 0.755643 3.939778 -1 0 0 0 0
2.207442 0.763857 3.953508 -1 0 0 0 0
2.207442 0.764847 3.941702 -1 0 0 0 0
2.207442 0.771506 3.953694 -0.999999995 9.99999995e-05 0 0 0
2.207442 0.7713 3.942119 -0.984133904 -0.120204141 -0.130504496 0 0
2.207442 0.764397 3.953558 -1 0 0 0 0
2.207442 0.786388 3.921288 -1 0 0 0 0
2.207442 0.776388 3.930182 -1 0 0 0 0
2.207442 0.785022 3.930151 -1 0 0 0 0
2.207442 0.776385 3.919931 -1 0 0 0 0
2.207712 0.743249 3.947963 0 -0.489501407 0.872002507 0 0
2.213523 0.751772 3.951772 0 -0.347701904 0.937605133 0 0
2.207712 0.751772 3.951772 0 -0.347701904 0.937605133 0 0
2.213523 0.743249 3.947963 0 -0.489501407 0.872002507 0 0
2.207712 0.787628 3.950898 0 0.419603472 0.907707511 0 0
2.213523 0.795766 3.946426 0 0.536312418 0.844019544 0 0
2.207712 0.795766 3.946426 0 0.536312418 0.844019544 0 0
2.213523 0.787628 3.950898 0 0.419603472 0.907707511 0 0
2.207712 0.755127 3.919745 0 -0.360693908 -0.932684247 0 0
2.213523 0.746637 3.923028 0 -0.402507364 -0.915416748 0 0
2.207712 0.746637 3.923028 0 -0.402507364 -0.915416748 0 0
2.213523 0.755127 3.919745 0 -0.360693908 -0.932684247 0 0
2.207442 0.776469 3.942628 -1 0 0 0 0
2.207442 0.787071 3.950824 -0.99999998 0.000199999996 0 0 0
2.207442 0.785266 3.942257 -0.99999998 0.000199999996 0 0 0
2.207442 0.776407 3.953262 -1 0 0 0 0
2.207712 0.795315 3.924975 0 0.478887161 -0.877876464 0 0
2.213523 0.786943 3.921169 0 0.346395745 -0.938088476 0 0
2.207712 0.786943 3.921169 0 0.346395745 -0.938088476 0 0
2.213523 0.795315 3.924975 0 0.478887161 -0.877876464 0 0
2.207442 0.743431 3.947748 -1 0 0 0 0
2.207442 0.755129 3.939607 -1 0 0 0 0
2.207442 0.751352 3.937819 -1 0 0 0 0
2.207442 0.751842 3.951507 -1 0 0 0 0
2.207442 0.785803 3.942186 -0.99999998 0.000199999996 0 0 0
2.207442 0.79564 3.946186 -1 0 0 0 0
2.207442 0.792753 3.940711 -1 0 0 0 0
2.207442 0.78758 3.950615 -0.99999998 0.000199999996 0 0 0
2.207442 0.756435 3.920935 -1 0 0 0 0
2.207442 0.746841 3.923239 -1 0 0 0 0
2.207442 0.748557 3.925218 -1 0 0 0 0
2.207442 0.755323 3.919959 -1 0 0 0 0
2.207712 0.792743 3.931572 0 -0.29660051 0.955001643 0 0
2.213523 0.79656 3.93298 0 -0.471288762 0.881978969 0 0
2.207712 0.79656 3.93298 0 -0.471288762 0.881978969 0 0
2.213523 0.792743 3.931572 0 -0.29660051 0.955001643 0 0
2.207442 0.737988 3.942457 -0.999999995 -9.99999995e-05 0 0 0
2.207442 0.750898 3.937521 -1 0 0 0 0
2.207442 0.748612 3.935612 -1 0 0 0 0
2.207442 0.742979 3.947447 -1 0 0 0 0
2.207442 0.793263 3.940518 -1 0 0 0 0
2.207442 0.800262 3.941904 -0.999999995 9.99999995e-05 0 0 0
2.207442 0.796875 3.938626 -0.999999995 9.99999995e-05 0 0 0
2.207442 0.796076 3.945854 -1 0 0 0 0
2.207442 0.74817 3.925597 -1 0 0 0 0
2.207442 0.741579 3.926387 -1 0 0 0 0
2.207442 0.746714 3.92834 -1 0 0 0 0
2.207442 0.74633 3.923476 -1 0 0 0 0
2.207442 0.795198 3.925219 -0.999999995 9.99999995e-05 0 0 0
2.207442 0.785563 3.930192 -1 0 0 0 0
2.207442 0.792332 3.931183 -0.999999995 9.99999995e-05 0 0 0
2.207442 0.78691 3.921451 -1 0 0 0 0
2.207712 0.751067 3.93731 0 0.591099181 -0.806598883 0 0
2.213523 0.74884 3.93545 0 0.688518146 -0.725219113 0 0
2.207712 0.74884 3.93545 0 0.688518146 -0.725219113 0 0
2.213523 0.751067 3.93731 0 0.591099181 -0.806598883 0 0
2.207712 0.796683 3.938421 0 -0.563209594 -0.826314076 0 0
2.213523 0.793137 3.940279 0 -0.402507364 -0.915416748 0 0
2.207712 0.793137 3.940279 0 -0.402507364 -0.915416748 0 0
2.213523 0.796683 3.938421 0 -0.563209594 -0.826314076 0 0
2.207712 0.746968 3.928439 0 0.903629888 0.428314167 0 0
2.213523 0.748369 3.925798 0 0.805711369 0.592308358 0 0
2.207712 0.748369 3.925798 0 0.805711369 0.592308358 0 0
2.213523 0.746968 3.928439 0 0.903629888 0.428314167 0 0
2.207442 0.800001 3.929323 -0.999999995 9.99999995e-05 0 0 0
2.207442 0.792862 3.931328 -0.999999995 9.99999995e-05 0 0 0
2.207442 0.79674 3.932758 -1 0 0 0 0
2.207442 0.795651 3.925525 -0.999999995 9.99999995e-05 0 0 0
2.207712 0.736432 3.936865 0 -0.994429575 0.105403135 0 0
2.213523 0.737506 3.942146 0 -0.940466022 0.33988772 0 0
2.207712 0.737506 3.942146 0 -0.940466022 0.33988772 0 0
2.213523 0.736432 3.936865 0 -0.994429575 0.105403135 0 0
2.207712 0.800762 3.941658 0 0.87110243 0.49110137 0 0
2.213523 0.802184 3.938413 0 0.946776402 0.321891977 0 0
2.207712 0.802184 3.938413 0 0.946776402 0.321891977 0 0
2.213523 0.800762 3.941658 0 0.87110243 0.49110137 0 0
2.207712 0.740788 3.926645 0 -0.692968817 -0.720967557 0 0
2.213523 0.738746 3.928913 0 -0.794008571 -0.607906562 0 0
2.207712 0.738746 3.928913 0 -0.794008571 -0.607906562 0 0
2.213523 0.740788 3.926645 0 -0.692968817 -0.720967557 0 0
2.207712 0.802066 3.932731 0 0.932523565 -0.361109125 0 0
2.213523 0.80051 3.929548 0 0.850299243 -0.526299532 0 0
2.207712 0.80051 3.929548 0 0.850299243 -0.526299532 0 0
2.213523 0.802066 3.932731 0 0.932523565 -0.361109125 0 0
2.207442 0.736692 3.936787 -1 0 0 0 0
2.207442 0.748248 3.935203 -0.999999995 -9.99999995e-05 0 0 0
2.207442 0.74711 3.933613 -1 0 0 0 0
2.207442 0.737746 3.941969 -0.999999995 -9.99999995e-05 0 0 0
2.207442 0.797279 3.938264 -0.999999995 9.99999995e-05 0 0 0
2.207442 0.801917 3.93835 -1 0 0 0 0
2.207442 0.797939 3.937349 -1 0 0 0 0
2.207442 0.800562 3.941441 -0.999999995 9.99999995e-05 0 0 0
2.207442 0.746506 3.92884 -1 0 0 0 0
2.207442 0.739113 3.928909 -1 0 0 0 0
2.207442 0.746205 3.929788 -1 0 0 0 0
2.207442 0.741046 3.926763 -1 0 0 0 0
2.207712 0.738456 3.929361 0 -0.880541728 -0.473968634 0 0
2.213523 0.737262 3.932079 0 -0.93757253 -0.34778981 0 0
2.207712 0.737262 3.932079 0 -0.93757253 -0.34778981 0 0
2.213523 0.738456 3.929361 0 -0.880541728 -0.473968634 0 0
2.207442 0.74687 3.93312 -0.999999995 9.99999995e-05 0 0 0
2.207442 0.737383 3.932577 -1 0 0 0 0
2.207442 0.736723 3.936213 -0.999999995 9.99999995e-05 0 0 0
2.207442 0.746395 3.931756 -1 0 0 0 0
2.207712 0.798049 3.935924 0 -0.996208249 -0.0870007204 0 0
2.213523 0.79788 3.936777 0 -0.954531567 -0.298109859 0 0
2.207712 0.79788 3.936777 0 -0.954531567 -0.298109859 0 0
2.213523 0.798049 3.935924 0 -0.996208249 -0.0870007204 0 0
2.207442 0.802189 3.935841 -1 0 0 0 0
2.207442 0.798143 3.936843 -0.999999995 9.99999995e-05 0 0 0
2.207442 0.802046 3.937825 -0.999999995 9.99999995e-05 0 0 0
2.207442 0.798324 3.935925 -1 0 0 0 0
2.207442 0.801802 3.932806 -1 0 0 0 0
2.207442 0.797171 3.93309 -0.999999995 9.99999995e-05 0 0 0
2.207442 0.797869 3.933976 -1 0 0 0 0
2.207442 0.800319 3.929773 -0.999999995 9.99999995e-05 0 0 0
2.207712 0.797834 3.934551 0 -0.941290846 0.337596717 0 0
2.213523 0.798038 3.935396 0 -0.991709352 0.128501212 0 0
2.207712 0.798038 3.935396 0 -0.991709352 0.128501212 0 0
2.213523 0.797834 3.934551 0 -0.941290846 0.337596717 0 0
2.207712 0.747128 3.933042 0 0.918559561 -0.395282598 0 0
2.213523 0.74667 3.931723 0 0.959795906 -0.280698803 0 0
2.207712 0.74667 3.931723 0 0.959795906 -0.280698803 0 0
2.213523 0.747128 3.933042 0 0.918559561 -0.395282598 0 0
2.207712 0.746545 3.9312 0 0.983169753 -0.182694379 0 0
2.213523 0.746431 3.930352 0 0.999733142 -0.0231007658 0 0
2.207712 0.746431 3.930352 0 0.999733142 -0.0231007658 0 0
2.213523 0.746545 3.9312 0 0.983169753 -0.182694379 0 0
2.213794 0.798093 3.934474 0.999999995 9.99999995e-05 0 0 0
2.213794 0.802178 3.935301 1 0 0 0 0
2.213794 0.798313 3.935384 1 0 0 0 0
2.213794 0.801953 3.933325 0.999999995 9.99999995e-05 0 0 0
2.213794 0.737585 3.932016 1 0 0 0 0
2.213794 0.746155 3.930327 1 0 0 0 0
2.213794 0.746275 3.931224 1 0 0 0 0
2.213794 0.738731 3.929407 1 0 0 0 0
2.213794 0.798143 3.936843 1 0 0 0 0
2.213794 0.802189 3.935841 1 0 0 0 0
2.213794 0.802046 3.937825 1 0 0 0 0
2.213794 0.798324 3.935925 1 0 0 0 0
2.213794 0.737383 3.932577 1 0 0 0 0
2.213794 0.74687 3.93312 1 0 0 0 0
2.213794 0.736723 3.936213 1 0 0 0 0
2.213794 0.746395 3.931756 1 0 0 0 0
2.213794 0.797171 3.93309 0.999999995 9.99999995e-05 0 0 0
2.213794 0.801802 3.932806 0.999999995 9.99999995e-05 0 0 0
2.213794 0.797869 3.933976 0.999999995 9.99999995e-05 0 0 0
2.213794 0.800319 3.929773 0.999999995 9.99999995e-05 0 0 0
2.213794 0.739113 3.928909 1 0 0 0 0
2.213794 0.746506 3.92884 1 0 0 0 0
2.213794 0.746205 3.929788 1 0 0 0 0
2.213794 0.741046 3.926763 1 0 0 0 0
2.213794 0.801917 3.93835 1 0 0 0 0
2.213794 0.797279 3.938264 1 0 0 0 0
2.213794 0.797939 3.937349 1 0 0 0 0
2.213794 0.800562 3.941441 1 0 0 0 0
2.213794 0.748248 3.935203 1 0 0 0 0
2.213794 0.736692 3.936787 1 0 0 0 0
2.213794 0.74711 3.933613 1 0 0 0 0
2.213794 0.737746 3.941969 1 0 0 0 0
2.213794 0.792862 3.931328 1 0 0 0 0
2.213794 0.800001 3.929323 0.999999995 9.99999995e-05 0 0 0
2.213794 0.79674 3.932758 0.999999995 9.99999995e-05 0 0 0
2.213794 0.795651 3.925525 1 0 0 0 0
2.213794 0.741579 3.926387 1 0 0 0 0
2.213794 0.74817 3.925597 1 0 0 0 0
2.213794 0.746714 3.92834 1 0 0 0 0
2.213794 0.74633 3.923476 1 0 0 0 0
2.213794 0.800262 3.941904 1 0 0 0 0
2.213794 0.793263 3.940518 1 0 0 0 0
2.213794 0.796875 3.938626 1 0 0 0 0
2.213794 0.796076 3.945854 1 0 0 0 0
2.213794 0.750898 3.937521 1 0 0 0 0
2.213794 0.737988 3.942457 1 0 0 0 0
2.213794 0.748612 3.935612 1 0 0 0 0
2.213794 0.742979 3.947447 1 0 0 0 0
2.213794 0.785563 3.930192 1 0 0 0 0
2.213794 0.795198 3.925219 1 0 0 0 0
2.213794 0.792332 3.931183 1 0 0 0 0
2.213794 0.78691 3.921451 1 0 0 0 0
2.213794 0.746841 3.923239 1 0 0 0 0
2.213794 0.756435 3.920935 1 0 0 0 0
2.213794 0.748557 3.925218 1 0 0 0 0
2.213794 0.755323 3.919959 1 0 0 0 0
2.213794 0.79564 3.946186 1 0 0 0 0
2.213794 0.785803 3.942186 0.99999998 -0.000199999996 0 0 0
2.213794 0.792753 3.940711 1 0 0 0 0
2.213794 0.78758 3.950615 0.99999998 -0.000199999996 0 0 0
2.213794 0.764308 3.941632 1 0 0 0 0
2.213794 0.75236 3.951663 0.999999995 -9.99999995e-05 0 0 0
2.213794 0.755643 3.939778 0.999999995 -9.99999995e-05 0 0 0
2.213794 0.763857 3.953508 1 0 0 0 0
2.213794 0.776388 3.930182 0.99999998 0.000199999996 0 0 0
2.213794 0.786388 3.921288 1 0 0 0 0
2.213794 0.785022 3.930151 1 0 0 0 0
2.213794 0.776385 3.919931 0.99999998 0.000199999996 0 0 0
2.213794 0.755129 3.939607 0.999999995 -9.99999995e-05 0 0 0
2.213794 0.743431 3.947748 1 0 0 0 0
2.213794 0.751352 3.937819 1 0 0 0 0
2.213794 0.751842 3.951507 0.99999998 -0.000199999996 0 0 0
2.213794 0.787071 3.950824 0.99999998 -0.000199999996 0 0 0
2.213794 0.776469 3.942628 0.99999998 -0.000199999996 0 0 0
2.213794 0.785266 3.942257 0.99999998 -0.000199999996 0 0 0
2.213794 0.776407 3.953262 0.99999998 -0.000199999996 0 0 0
2.213794 0.771506 3.953694 0.99999998 -0.000199999996 0 0 0
2.213794 0.764847 3.941702 1 0 0 0 0
2.213794 0.7713 3.942119 0.984099346 -0.12059992 -0.130399913 0 0
2.213794 0.764397 3.953558 1 0 0 0 0
2.213794 0.771839 3.941623 0.984111209 -0.120501373 -0.130401485 0 0
2.213794 0.775849 3.930724 1 0 0 0 0
2.213794 0.775928 3.942067 1 0 0 0 0
2.213794 0.771949 3.930725 1 0 0 0 0
2.213794 0.775866 3.953353 0.999999995 -9.99999995e-05 0 0 0
2.213794 0.771842 3.942167 0.992762159 -0.0815051032 -0.0882055227 0 0
2.213794 0.775928 3.942612 0.999999995 -9.99999995e-05 0 0 0
2.213794 0.772047 3.953676 0.999999995 -9.99999995e-05 0 0 0
2.207712 0.802461 3.935834 -0.708100103 0.705900102 0.0173000025 0 0
2.207442 0.802178 3.935301 -0.708282074 0.704282175 -0.0481987801 0 0
2.207442 0.802189 3.935841 -0.708080932 0.705880991 0.0187994937 0 0
2.207712 0.80245 3.935296 -0.708282598 0.704382694 -0.0466988526 0 0
2.207442 0.737585 3.932016 -0.708717367 -0.654916049 -0.262306428 0 0
2.207712 0.737105 3.932593 -0.709211812 -0.684611402 -0.168302803 0 0
2.207442 0.737383 3.932577 -0.709733592 -0.680632215 -0.1817086 0 0
2.207712 0.737262 3.932079 -0.709589778 -0.660390487 -0.245696461 0 0
2.207442 0.798313 3.935384 -0.712701408 -0.696001375 0.0874001726 0 0
2.207712 0.798049 3.935924 -0.7125144 -0.698714121 -0.0642012975 0 0
2.207442 0.798324 3.935925 -0.712819981 -0.698919591 -0.0583016342 0 0
2.207712 0.798038 3.935396 -0.712471007 -0.695471698 0.0932962034 0 0
2.207712 0.74667 3.931723 -0.708397234 0.677297355 -0.198599224 0 0
2.207442 0.746275 3.931224 -0.708301038 0.694701018 -0.125300184 0 0
2.207442 0.746395 3.931756 -0.708475937 0.678776946 -0.193193438 0 0
2.207712 0.746545 3.9312 -0.708403765 0.694103689 -0.12800068 0 0
2.207442 0.798093 3.934474 -0.712225609 -0.663023839 0.230508288 0 0
2.207712 0.797603 3.934076 -0.712580796 -0.593284011 0.374489908 0 0
2.207712 0.797834 3.934551 -0.712380673 -0.661882043 0.233293671 0 0
2.207442 0.797869 3.933976 -0.713213804 -0.600411621 0.361707001 0 0
2.207712 0.746477 3.929826 -0.712608359 0.687308062 0.14070165 0 0
2.207442 0.746155 3.930327 -0.713136421 0.700935798 -0.011200572 0 0
2.207712 0.746431 3.930352 -0.712799497 0.701099506 -0.0193999863 0 0
2.207442 0.746205 3.929788 -0.712808147 0.687907863 0.136701563 0 0
2.207712 0.797669 3.937262 -0.712490392 -0.608391796 -0.349595286 0 0
2.207442 0.798143 3.936843 -0.712173262 -0.672074767 -0.202792386 0 0
2.207712 0.79788 3.936777 -0.712312134 -0.671011431 -0.205803506 0 0
2.207442 0.797939 3.937349 -0.713087104 -0.614988878 -0.336593913 0 0
2.207442 0.74687 3.93312 -0.709214206 0.650113022 -0.272705462 0 0
2.207712 0.747375 3.933517 -0.709389877 0.600691428 -0.368694739 0 0
2.207712 0.747128 3.933042 -0.709313381 0.648312231 -0.27670522 0 0
2.207442 0.74711 3.933613 -0.709590222 0.605591655 -0.360195037 0 0
2.207442 0.801953 3.933325 -0.711390937 0.689591215 -0.135598272 0 0
2.207712 0.802066 3.932731 -0.711716252 0.65601498 -0.251205736 0 0
2.207442 0.801802 3.932806 -0.711497293 0.65439751 -0.255999026 0 0
2.207712 0.802215 3.933242 -0.711624466 0.688223662 -0.141204855 0 0
2.207712 0.738746 3.928913 -0.710871473 -0.557577625 -0.428682797 0 0
2.207442 0.738731 3.929407 -0.711606031 -0.605705133 -0.356003017 0 0
2.207442 0.739113 3.928909 -0.709400692 -0.541200528 -0.45150044 0 0
2.207712 0.738456 3.929361 -0.710901489 -0.617401293 -0.336800706 0 0
2.207712 0.802184 3.938413 -0.711465715 0.666167898 0.223689221 0 0
2.207442 0.802046 3.937825 -0.711009382 0.695009171 0.106901411 0 0
2.207442 0.801917 3.93835 -0.711223037 0.664721531 0.228707408 0 0
2.207712 0.802312 3.937896 -0.71131338 0.693813051 0.112502116 0 0
2.207442 0.736723 3.936213 -0.71057615 -0.698576553 -0.0840971773 0 0
2.207712 0.736432 3.936865 -0.712614705 -0.698114406 0.0694014321 0 0
2.207442 0.736692 3.936787 -0.713187958 -0.698788201 0.0552990663 0 0
2.207712 0.736426 3.936334 -0.712328889 -0.699428366 -0.0582023604 0 0
2.207442 0.800319 3.929773 -0.712215989 0.605513594 -0.355107972 0 0
2.207712 0.800187 3.929127 -0.713192718 0.514294749 -0.476295137 0 0
2.207442 0.800001 3.929323 -0.713408832 0.517206403 -0.472805853 0 0
2.207712 0.80051 3.929548 -0.713380193 0.594583492 -0.370889702 0 0
2.207712 0.741199 3.926303 -0.710518779 -0.408010784 -0.573315153 0 0
2.207442 0.741046 3.926763 -0.711308258 -0.467005422 -0.525306099 0 0
2.207442 0.741579 3.926387 -0.709012769 -0.386706965 -0.589710621 0 0
2.207712 0.740788 3.926645 -0.710608382 -0.484905719 -0.509806013 0 0
2.207712 0.800457 3.942092 -0.713495626 0.532396736 0.455497208 0 0
2.207442 0.800562 3.941441 -0.712232375 0.619528161 0.330015001 0 0
2.207442 0.800262 3.941904 -0.713785924 0.53498945 0.451991087 0 0
2.207712 0.800762 3.941658 -0.713478122 0.60918132 0.346189384 0 0
2.207442 0.737746 3.941969 -0.718808705 -0.660307996 0.217502634 0 0
2.207712 0.737751 3.942602 -0.721409032 -0.561007024 0.406005083 0 0
2.207442 0.737988 3.942457 -0.720728419 -0.556821956 0.412916282 0 0
2.207712 0.737506 3.942146 -0.721463675 -0.64886733 0.241787826 0 0
2.207442 0.797171 3.93309 -0.715218621 -0.488312713 0.500013018 0 0
2.207712 0.79656 3.93298 -0.715310383 -0.325804729 0.618208973 0 0
2.207712 0.796981 3.933286 -0.715220266 -0.488513842 0.499814162 0 0
2.207442 0.79674 3.932758 -0.716216613 -0.3406079 0.609114129 0 0
2.207712 0.746968 3.928439 -0.708310249 0.637609226 0.302904383 0 0
2.207442 0.746506 3.92884 -0.708104157 0.662903891 0.243201428 0 0
2.207712 0.74676 3.928936 -0.708091641 0.662992173 0.242997131 0 0
2.207442 0.746714 3.92834 -0.708359692 0.638463669 0.300982873 0 0
2.207712 0.796683 3.938421 -0.712900852 -0.392400469 -0.581200695 0 0
2.207442 0.797279 3.938264 -0.712988318 -0.518891498 -0.471592273 0 0
2.207712 0.797081 3.938076 -0.712901191 -0.520000868 -0.470500786 0 0
2.207442 0.796875 3.938626 -0.713397114 -0.401698375 -0.574197677 0 0
2.207442 0.748248 3.935203 -0.708824916 0.550119337 -0.44151552 0 0
2.207712 0.74884 3.93545 -0.709223078 0.484815776 -0.511816655 0 0
2.207712 0.748476 3.935057 -0.708912541 0.547509686 -0.444607865 0 0
2.207442 0.748612 3.935612 -0.709375949 0.49078336 -0.505882848 0 0
2.207442 0.792862 3.931328 -0.708302599 -0.214900789 0.672402468 0 0
2.207712 0.792222 3.93144 -0.708789836 -0.137998021 0.69179008 0 0
2.207712 0.792743 3.931572 -0.708463267 -0.210689076 0.673565077 0 0
2.207442 0.792332 3.931183 -0.708900606 -0.145200124 0.69020059 0 0
2.207712 0.748733 3.92543 -0.716227701 0.414516032 0.561421713 0 0
2.207442 0.74817 3.925597 -0.717199351 0.555399497 0.420899619 0 0
2.207712 0.748369 3.925798 -0.716407003 0.565005523 0.409304001 0 0
2.207442 0.748557 3.925218 -0.716503432 0.418102003 0.558402675 0 0
2.207712 0.792633 3.94046 -0.709606039 -0.192101635 -0.677905769 0 0
2.207442 0.793263 3.940518 -0.709405955 -0.287702415 -0.643405401 0 0
2.207712 0.793137 3.940279 -0.70955652 -0.285182525 -0.644360515 0 0
2.207442 0.792753 3.940711 -0.709879233 -0.199494164 -0.675480239 0 0
2.207442 0.750898 3.937521 -0.709194809 0.418996933 -0.56699585 0 0
2.207712 0.751519 3.937599 -0.709208167 0.340703923 -0.617207107 0 0
2.207712 0.751067 3.93731 -0.709188692 0.417793338 -0.567890945 0 0
2.207442 0.751352 3.937819 -0.709376009 0.345788306 -0.614179229 0 0
2.207442 0.795651 3.925525 -0.709706093 0.430703698 -0.557504786 0 0
2.207712 0.795315 3.924975 -0.710736725 0.338917512 -0.616431852 0 0
2.207442 0.795198 3.925219 -0.71081872 0.341308988 -0.615016197 0 0
2.207712 0.795765 3.925265 -0.710209939 0.422105907 -0.563407885 0 0
2.207712 0.746637 3.923028 -0.708122735 -0.284309128 -0.64632075 0 0
2.207442 0.74633 3.923476 -0.708523534 -0.334411108 -0.621420641 0 0
2.207442 0.746841 3.923239 -0.707898846 -0.27589955 -0.65019894 0 0
2.207712 0.746154 3.923267 -0.708424958 -0.340311989 -0.618321784 0 0
2.207712 0.795766 3.946426 -0.70976864 0.379183246 0.593673769 0 0
2.207442 0.796076 3.945854 -0.709407984 0.45670514 0.536806042 0 0
2.207442 0.79564 3.946186 -0.709905839 0.382303144 0.591504865 0 0
2.207712 0.796199 3.94611 -0.709802562 0.449301622 0.542501958 0 0
2.207442 0.742979 3.947447 -0.712267172 -0.447479376 0.540775076 0 0
2.207712 0.743249 3.947963 -0.71221699 -0.345908252 0.610814571 0 0
2.207442 0.743431 3.947748 -0.711558603 -0.336580418 0.616764118 0 0
2.207712 0.742811 3.947661 -0.712340768 -0.446325544 0.541630998 0 0
2.207442 0.78691 3.921451 -0.710402653 0.252600943 -0.656902454 0 0
2.207712 0.786429 3.92102 -0.710728579 0.147505931 -0.687827658 0 0
2.207442 0.786388 3.921288 -0.710813076 0.150402767 -0.68711264 0 0
2.207712 0.786943 3.921169 -0.710719424 0.242606631 -0.660318047 0 0
2.207712 0.755127 3.919745 -0.668518084 -0.121403284 -0.733719847 0 0
2.207442 0.755323 3.919959 -0.693719525 0.126103549 -0.709119958 0 0
2.207712 0.755582 3.919826 -0.668898304 0.36689907 -0.646498361 0 0
2.207712 0.787127 3.951088 -0.710324045 0.206106977 0.673022782 0 0
2.207442 0.78758 3.950615 -0.709818026 0.304607736 0.635116129 0 0
2.207442 0.787071 3.950824 -0.710518264 0.210305406 0.671517262 0 0
2.207712 0.787628 3.950898 -0.710310321 0.294304276 0.639409291 0 0
2.207442 0.751842 3.951507 -0.709506194 -0.247502161 0.65980576 0 0
2.207712 0.752286 3.951926 -0.709804174 -0.15820093 0.686404036 0 0
2.207442 0.75236 3.951663 -0.709734018 -0.156207487 0.686932925 0 0
2.207712 0.751772 3.951772 -0.709705401 -0.243701855 0.66100503 0 0
2.207442 0.785563 3.930192 -0.707918346 -0.0776020111 0.702018193 0 0
2.207712 0.784984 3.930421 -0.707964001 -0.0232988153 0.705864108 0 0
2.207712 0.785522 3.930459 -0.707923227 -0.0766025134 0.702123037 0 0
2.207442 0.785022 3.930151 -0.707968691 -0.0258988546 0.705768788 0 0
2.207712 0.756701 3.92081 -0.678989119 0.729588308 0.0816986908 0 0
2.207442 0.756435 3.920935 -0.678989119 0.729588308 0.0816986908 0 0
2.207712 0.756667 3.921117 -0.678989119 0.729588308 0.0816986908 0 0
2.207712 0.785213 3.941989 -0.707427427 -0.0589022837 -0.704327307 0 0
2.207442 0.785803 3.942186 -0.707584964 -0.119297465 -0.6964852 0 0
2.207712 0.785748 3.941921 -0.707611364 -0.118401902 -0.696611188 0 0
2.207442 0.785266 3.942257 -0.707498635 -0.0618998805 -0.703998641 0 0
2.207442 0.755129 3.939607 -0.708881888 0.261693314 -0.654983265 0 0
2.207712 0.755715 3.939516 -0.708612922 0.186103394 -0.680612411 0 0
2.207712 0.755206 3.939344 -0.708827843 0.265210418 -0.653625675 0 0
2.207442 0.755643 3.939778 -0.708612922 0.186103394 -0.680612411 0 0
2.207442 0.764308 3.941632 -0.707484255 0.119897332 -0.6964845 0 0
2.207712 0.764857 3.941432 -0.707474072 0.0708974017 -0.703174229 0 0
2.207712 0.764323 3.941358 -0.707481574 0.122796802 -0.695981873 0 0
2.207442 0.764847 3.941702 -0.707493848 0.0694993957 -0.703293885 0 0
2.207442 0.776407 3.953262 -0.707701932 0.137500375 0.693001892 0 0
2.207712 0.775865 3.953625 -0.707509587 0.0847011477 0.701609507 0 0
2.207712 0.776398 3.953542 -0.707789992 0.132998119 0.69379019 0 0
2.207442 0.775866 3.953353 -0.707575062 0.0876969092 0.701175288 0 0
2.207442 0.763857 3.953508 -0.707991023 -0.0889988715 0.700591117 0 0
2.207712 0.764386 3.953828 -0.708078199 -0.0385988116 0.705078291 0 0
2.207442 0.764397 3.953558 -0.70806721 -0.038998194 0.705067349 0 0
2.207712 0.763849 3.95378 -0.708022569 -0.0869027701 0.700822339 0 0
2.207442 0.776385 3.919931 -0.70819824 0.0732998179 -0.702198255 0 0
2.207712 0.775844 3.919621 -0.707998839 0.0241999603 -0.705798842 0 0
2.207442 0.775844 3.919892 -0.707986672 0.0248995313 -0.705786714 0 0
2.207712 0.776382 3.919657 -0.708216289 0.0710016331 -0.702416156 0 0
2.207442 0.775849 3.930724 -0.855403879 0.367601667 0.364901655 0 0
2.207442 0.776388 3.930182 -0.855403879 0.367601667 0.364901655 0 0
2.207442 0.775847 3.930183 -0.855403879 0.367601667 0.364901655 0 0
2.207712 0.776388 3.930453 -0.855403879 0.367601667 0.364901655 0 0
2.207712 0.776119 3.930724 -0.855403879 0.367601667 0.364901655 0 0
2.207442 0.776469 3.942628 -0.849779023 0.374190763 -0.371290835 0 0
2.207442 0.775928 3.942067 -0.801672303 0.568580356 -0.184493626 0 0
2.207442 0.775928 3.942612 -0.849779023 0.374190763 -0.371290835 0 0
2.207712 0.776198 3.942099 -0.818582131 0.526288511 -0.230094977 0 0
2.207712 0.776471 3.942358 -0.849779023 0.374190763 -0.371290835 0 0
2.207712 0.771568 3.941595 -0.866925583 -0.337909972 -0.366410813 0 0
2.207712 0.771296 3.941848 -0.866925583 -0.337909972 -0.366410813 0 0
2.207442 0.772047 3.953676 -0.707537978 0.0418022438 0.705437865 0 0
2.207712 0.771511 3.953964 -0.707797593 0.004999983 0.706397598 0 0
2.207712 0.772051 3.953947 -0.707558531 0.0410975913 0.705458654 0 0
2.207442 0.771506 3.953694 -0.707798287 0.00479998838 0.706398291 0 0
2.207442 0.771951 3.930184 -0.707305849 -0.706905846 -0.00160001323 0 0
2.207712 0.771678 3.930725 -0.707246843 -0.706946823 -0.00530035105 0 0
2.207442 0.771949 3.930725 -0.707246843 -0.706946823 -0.00530035105 0 0
2.207712 0.771681 3.930185 -0.707305849 -0.706905846 -0.00160001323 0 0
2.207442 0.771949 3.919893 -0.577016734 -0.578016763 -0.577016734 0 0
2.207712 0.771949 3.919622 -0.577016734 -0.578016763 -0.577016734 0 0
2.207712 0.771678 3.919893 -0.577016734 -0.578016763 -0.577016734 0 0
2.213523 0.771949 3.919622 0.577350269 -0.577350269 -0.577350269 0 0
2.213794 0.771949 3.919893 0.577350269 -0.577350269 -0.577350269 0 0
2.213523 0.771678 3.919893 0.577350269 -0.577350269 -0.577350269 0 0
2.213523 0.771678 3.930725 0.707296821 -0.706896823 -0.00529997618 0 0
2.213794 0.771951 3.930184 0.70720587 -0.707005868 -0.00160001328 0 0
2.213794 0.771949 3.930725 0.707296821 -0.706896823 -0.00529997618 0 0
2.213523 0.771681 3.930185 0.70720587 -0.707005868 -0.00160001328 0 0
2.213523 0.771511 3.953964 0.707697686 0.00499998365 0.70649769 0 0
2.213794 0.772047 3.953676 0.707438114 0.0418022522 0.705538012 0 0
2.213523 0.772051 3.953947 0.707458679 0.0410975996 0.70555879 0 0
2.213794 0.771506 3.953694 0.707698379 0.00479998901 0.706498382 0 0
2.213523 0.771568 3.941595 0.866815247 -0.338305951 -0.366306443 0 0
2.213523 0.771296 3.941848 0.866815247 -0.338305951 -0.366306443 0 0
2.213523 0.776198 3.942099 0.818462961 0.526476175 -0.230089588 0 0
2.213794 0.775928 3.942612 0.849687348 0.374494424 -0.371194473 0 0
2.213794 0.775928 3.942067 0.801590982 0.568693602 -0.184497924 0 0
2.213794 0.776469 3.942628 0.849687348 0.374494424 -0.371194473 0 0
2.213523 0.776471 3.942358 0.849687348 0.374494424 -0.371194473 0 0
2.213523 0.776119 3.930724 0.855435091 0.36761508 0.364814965 0 0
2.213794 0.776388 3.930182 0.855435091 0.36761508 0.364814965 0 0
2.213523 0.776388 3.930453 0.855435091 0.36761508 0.364814965 0 0
2.213794 0.775847 3.930183 0.855435091 0.36761508 0.364814965 0 0
2.213794 0.775849 3.930724 0.855435091 0.36761508 0.364814965 0 0
2.213523 0.775844 3.919621 0.708000549 0.0241000187 -0.705800547 0 0
2.213794 0.776385 3.919931 0.70819824 0.0732998179 -0.702198255 0 0
2.213794 0.775844 3.919892 0.707986672 0.0248995313 -0.705786714 0 0
2.213523 0.776382 3.919657 0.708221314 0.0709021338 -0.70242114 0 0
2.213523 0.764386 3.953828 0.708177976 -0.0385987996 0.704978076 0 0
2.213794 0.763857 3.953508 0.708084185 -0.08909801 0.700484355 0 0
2.213794 0.764397 3.953558 0.708166986 -0.0389981819 0.704967135 0 0
2.213523 0.763849 3.95378 0.70816575 -0.0869957926 0.700666113 0 0
2.213523 0.775865 3.953625 0.707503591 0.0848004304 0.701603561 0 0
2.213794 0.776407 3.953262 0.707692198 0.137598483 0.69299236 0 0
2.213523 0.776398 3.953542 0.707681562 0.133096532 0.693881921 0 0
2.213794 0.775866 3.953353 0.707518916 0.0878023474 0.701218747 0 0
2.213523 0.764857 3.941432 0.707778098 0.0707978092 -0.70287825 0 0
2.213794 0.764308 3.941632 0.707790332 0.119798364 -0.69619049 0 0
2.213523 0.764323 3.941358 0.707688599 0.122698023 -0.695788791 0 0
2.213794 0.764847 3.941702 0.707797806 0.0693997849 -0.702997821 0 0
2.213523 0.755715 3.939516 0.70868454 0.186295936 -0.680485155 0 0
2.213794 0.755129 3.939607 0.708909762 0.261803605 -0.654909018 0 0
2.213523 0.755206 3.939344 0.708905122 0.265301917 -0.653504722 0 0
2.213794 0.755643 3.939778 0.70868454 0.186295936 -0.680485155 0 0
2.213523 0.785213 3.941989 0.707485698 -0.0586988134 -0.704285763 0 0
2.213794 0.785803 3.942186 0.707692608 -0.119198755 -0.696392726 0 0
2.213794 0.785266 3.942257 0.707607126 -0.0617006213 -0.703907088 0 0
2.213523 0.785748 3.941921 0.707727326 -0.118204564 -0.696526893 0 0
2.213523 0.756701 3.92081 0.678782226 0.729780891 0.0816978608 0 0
2.213523 0.756667 3.921117 0.678782226 0.729780891 0.0816978608 0 0
2.213794 0.756435 3.920935 0.678782226 0.729780891 0.0816978608 0 0
2.213523 0.784984 3.930421 0.707812599 -0.0234004165 0.706012567 0 0
2.213794 0.785563 3.930192 0.707818754 -0.0776020561 0.702118603 0 0
2.213523 0.785522 3.930459 0.707768498 -0.0766965863 0.702268743 0 0
2.213794 0.785022 3.930151 0.707817112 -0.0260006286 0.705917066 0 0
2.213523 0.752286 3.951926 0.709913733 -0.158103059 0.686313277 0 0
2.213794 0.751842 3.951507 0.709704961 -0.247201728 0.659704611 0 0
2.213794 0.75236 3.951663 0.709893093 -0.156098481 0.686793318 0 0
2.213523 0.751772 3.951772 0.709806885 -0.243402361 0.661006412 0 0
2.213523 0.787127 3.951088 0.710294751 0.206298475 0.672995027 0 0
2.213794 0.78758 3.950615 0.709819847 0.304808523 0.635017755 0 0
2.213523 0.787628 3.950898 0.710313912 0.294505768 0.639312521 0 0
2.213794 0.787071 3.950824 0.710503318 0.210400983 0.671503136 0 0
2.213523 0.755127 3.919745 0.668509964 -0.121501811 -0.733710936 0 0
2.213523 0.755582 3.919826 0.668898304 0.36689907 -0.646498361 0 0
2.213794 0.755323 3.919959 0.69372827 0.126005135 -0.709128898 0 0
2.213523 0.786429 3.92102 0.710799016 0.147299796 -0.687799047 0 0
2.213794 0.78691 3.921451 0.710459313 0.252285552 -0.656962377 0 0
2.213794 0.786388 3.921288 0.710883913 0.150196601 -0.687084451 0 0
2.213523 0.786943 3.921169 0.710837828 0.24221289 -0.660335141 0 0
2.213523 0.743249 3.947963 0.711987889 -0.345894116 0.611089605 0 0
2.213794 0.742979 3.947447 0.712059709 -0.447574675 0.54096939 0 0
2.213794 0.743431 3.947748 0.711396013 -0.336498114 0.616996542 0 0
2.213523 0.742811 3.947661 0.71210146 -0.446500915 0.541801111 0 0
2.213523 0.795766 3.946426 0.709719014 0.379210159 0.593715906 0 0
2.213794 0.796076 3.945854 0.709287822 0.456792157 0.536890782 0 0
2.213523 0.796199 3.94611 0.709714429 0.449309135 0.542611031 0 0
2.213794 0.79564 3.946186 0.709814235 0.382307667 0.591611865 0 0
2.213523 0.746637 3.923028 0.708076967 -0.284290752 -0.646378974 0 0
2.213794 0.74633 3.923476 0.708503192 -0.334301506 -0.6215028 0 0
2.213523 0.746154 3.923267 0.708429354 -0.340114093 -0.618425625 0 0
2.213794 0.746841 3.923239 0.707783392 -0.275993524 -0.650284741 0 0
2.213523 0.795315 3.924975 0.710619326 0.339009219 -0.616516766 0 0
2.213794 0.795651 3.925525 0.709536666 0.430822263 -0.557628816 0 0
2.213794 0.795198 3.925219 0.710701258 0.341400604 -0.615101089 0 0
2.213523 0.795765 3.925265 0.710010814 0.422306432 -0.563508582 0 0
2.213523 0.751519 3.937599 0.709375481 0.340588228 -0.617078671 0 0
2.213794 0.750898 3.937521 0.709344144 0.418826064 -0.566935281 0 0
2.213523 0.751067 3.93731 0.7093876 0.417592701 -0.567790075 0 0
2.213794 0.751352 3.937819 0.709537344 0.345718196 -0.614032317 0 0
2.213523 0.792633 3.94046 0.709606039 -0.192101635 -0.677905769 0 0
2.213794 0.793263 3.940518 0.709576144 -0.287790325 -0.643178377 0 0
2.213794 0.792753 3.940711 0.709865068 -0.199590178 -0.675466761 0 0
2.213523 0.793137 3.940279 0.709677354 -0.285290897 -0.644179445 0 0
2.213523 0.748733 3.92543 0.71600097 0.414800562 0.561500761 0 0
2.213794 0.74817 3.925597 0.717101287 0.555600997 0.420800755 0 0
2.213794 0.748557 3.925218 0.716276184 0.418386089 0.558481431 0 0
2.213523 0.748369 3.925798 0.71631784 0.565114074 0.409310194 0 0
2.213523 0.792222 3.93144 0.70876035 -0.137792291 0.691861295 0 0
2.213794 0.792862 3.931328 0.708495501 -0.214598637 0.672295731 0 0
2.213523 0.792743 3.931572 0.708620444 -0.210306067 0.673519431 0 0
2.213794 0.792332 3.931183 0.708882523 -0.144896428 0.690282981 0 0
2.213523 0.74884 3.93545 0.709389281 0.484492679 -0.511892265 0 0
2.213794 0.748248 3.935203 0.709010068 0.549807807 -0.441606271 0 0
2.213523 0.748476 3.935057 0.709178143 0.547183136 -0.444586298 0 0
2.213794 0.748612 3.935612 0.709614501 0.490410022 -0.505910338 0 0
2.213523 0.796683 3.938421 0.713068586 -0.392282718 -0.581074401 0 0
2.213794 0.797279 3.938264 0.712988318 -0.518891498 -0.471592273 0 0
2.213794 0.796875 3.938626 0.713564918 -0.401580257 -0.574071776 0 0
2.213523 0.797081 3.938076 0.712901191 -0.520000868 -0.470500786 0 0
2.213523 0.746968 3.928439 0.70819153 0.637792372 0.302796379 0 0
2.213794 0.746506 3.92884 0.708200949 0.662800888 0.243200326 0 0
2.213794 0.746714 3.92834 0.708214802 0.638613347 0.301006291 0 0
2.213523 0.74676 3.928936 0.708205644 0.662905283 0.242901936 0 0
2.213523 0.79656 3.93298 0.715543073 -0.325619601 0.618037204 0 0
2.213794 0.797171 3.93309 0.715183694 -0.488388865 0.4999886 0 0
2.213523 0.796981 3.933286 0.715185325 -0.488589974 0.499789744 0 0
2.213794 0.79674 3.932758 0.716406405 -0.340403043 0.609005445 0 0
2.213523 0.737751 3.942602 0.721497453 -0.56089802 0.405998567 0 0
2.213794 0.737746 3.941969 0.71877687 -0.660378749 0.217393004 0 0
2.213794 0.737988 3.942457 0.720776471 -0.556781824 0.412886522 0 0
2.213523 0.737506 3.942146 0.721433165 -0.648929832 0.241711112 0 0
2.213523 0.800457 3.942092 0.713615197 0.532311336 0.455409698 0 0
2.213794 0.800562 3.941441 0.712488992 0.619190434 0.3300949 0 0
2.213523 0.800762 3.941658 0.713799172 0.608799294 0.346199598 0 0
2.213794 0.800262 3.941904 0.713818185 0.53501363 0.451911513 0 0
2.213523 0.741199 3.926303 0.710416759 -0.407909623 -0.573513529 0 0
2.213794 0.741046 3.926763 0.71101881 -0.46721236 -0.525513903 0 0
2.213523 0.740788 3.926645 0.710320195 -0.485213795 -0.509914497 0 0
2.213794 0.741579 3.926387 0.708998369 -0.386599111 -0.589798643 0 0
2.213523 0.800187 3.929127 0.713315197 0.514110953 -0.476310148 0 0
2.213794 0.800319 3.929773 0.712190695 0.605492089 -0.355195359 0 0
2.213794 0.800001 3.929323 0.713580805 0.516986093 -0.472787282 0 0
2.213523 0.80051 3.929548 0.713471708 0.594476427 -0.370885293 0 0
2.213523 0.736432 3.936865 0.712614705 -0.698114406 0.0694014321 0 0
2.213794 0.736723 3.936213 0.710917172 -0.698216866 -0.0842020339 0 0
2.213794 0.736692 3.936787 0.713286922 -0.69868719 0.0552989861 0 0
2.213523 0.736426 3.936334 0.712675292 -0.699075763 -0.0581979823 0 0
2.213523 0.802184 3.938413 0.711706622 0.665906196 0.223702082 0 0
2.213794 0.802046 3.937825 0.711108238 0.694908051 0.106901238 0 0
2.213523 0.802312 3.937896 0.71141213 0.693711828 0.112501918 0 0
2.213794 0.801917 3.93835 0.711416398 0.664515317 0.228705272 0 0
2.213523 0.738746 3.928913 0.710871473 -0.557577625 -0.428682797 0 0
2.213794 0.738731 3.929407 0.711790928 -0.605492283 -0.355995463 0 0
2.213523 0.738456 3.929361 0.711088164 -0.617189727 -0.336794394 0 0
2.213794 0.739113 3.928909 0.709224522 -0.54141872 -0.451515611 0 0
2.213523 0.802066 3.932731 0.71186161 0.65586463 -0.251186454 0 0
2.213794 0.801953 3.933325 0.711528782 0.689427888 -0.135705489 0 0
2.213794 0.801802 3.932806 0.711575003 0.654277016 -0.256091004 0 0
2.213523 0.802215 3.933242 0.711821113 0.688020407 -0.141204188 0 0
2.213523 0.747375 3.933517 0.709482157 0.600584895 -0.368690728 0 0
2.213794 0.74687 3.93312 0.709386447 0.649887584 -0.272794788 0 0
2.213523 0.747128 3.933042 0.709485065 0.648086358 -0.276794174 0 0
2.213794 0.74711 3.933613 0.709708392 0.60550716 -0.360104258 0 0
2.213523 0.797669 3.937262 0.712330097 -0.608625715 -0.349514767 0 0
2.213794 0.798143 3.936843 0.712076114 -0.672177452 -0.202793197 0 0
2.213794 0.797939 3.937349 0.712881198 -0.615283772 -0.336491125 0 0
2.213523 0.79788 3.936777 0.712215067 -0.671114198 -0.205804354 0 0
2.213523 0.746477 3.929826 0.71270655 0.687206315 0.140701293 0 0
2.213794 0.746155 3.930327 0.713037279 0.701036651 -0.0112005856 0 0
2.213794 0.746205 3.929788 0.712906366 0.687806142 0.136701221 0 0
2.213523 0.746431 3.930352 0.712700324 0.701200319 -0.0194000088 0 0
2.213523 0.797603 3.934076 0.712424447 -0.593520367 0.374412848 0 0
2.213794 0.798093 3.934474 0.712225609 -0.663023839 0.230508288 0 0
2.213523 0.797834 3.934551 0.712364051 -0.6618666 0.233388222 0 0
2.213794 0.797869 3.933976 0.713029859 -0.600625152 0.361715147 0 0
2.213523 0.74667 3.931723 0.708495023 0.677195243 -0.198598605 0 0
2.213794 0.746275 3.931224 0.708400067 0.694600066 -0.125300012 0 0
2.213523 0.746545 3.9312 0.708403765 0.694103689 -0.12800068 0 0
2.213794 0.746395 3.931756 0.708621911 0.678620983 -0.193205974 0 0
2.213523 0.798049 3.935924 0.712563628 -0.698664338 -0.0641967232 0 0
2.213794 0.798313 3.935384 0.71280021 -0.695900205 0.0874000258 0 0
2.213794 0.798324 3.935925 0.712819981 -0.698919591 -0.0583016342 0 0
2.213523 0.798038 3.935396 0.712569784 -0.695370513 0.0932960439 0 0
2.213523 0.737105 3.932593 0.709310062 -0.68450971 -0.168302387 0 0
2.213794 0.737585 3.932016 0.708785722 -0.654886807 -0.262194718 0 0
2.213794 0.737383 3.932577 0.709733592 -0.680632215 -0.1817086 0 0
2.213523 0.737262 3.932079 0.709493263 -0.660493729 -0.245697667 0 0
2.213523 0.802461 3.935834 0.708299763 0.705699764 0.0172999942 0 0
2.213794 0.802178 3.935301 0.708381781 0.704181889 -0.0481987603 0 0
2.213523 0.80245 3.935296 0.708382312 0.704282414 -0.0466988339 0 0
2.213794 0.802189 3.935841 0.708280586 0.705680658 0.0187994847 0 0
2.207442 0.798313 3.935384 -1 0 0 0 0
2.207442 0.802178 3.935301 -1 0 0 0 0
2.207442 0.801953 3.933325 -1 0 0 0 0
2.207442 0.798093 3.934474 -1 0 0 0 0
2.207712 0.756667 3.921117 -0.70731571 0.337707501 0.621013793 0 0
2.207442 0.756435 3.920935 -0.70731571 0.337707501 0.621013793 0 0
2.207442 0.756435 3.920935 -0.707414329 0.466809455 -0.53071075 0 0
2.207712 0.756701 3.92081 -0.707414329 0.466809455 -0.53071075 0 0
2.207442 0.776388 3.930182 -0.70750428 0.00260001573 0.706704276 0 0
2.207712 0.776388 3.930453 -0.70750428 0.00260001573 0.706704276 0 0
2.207712 0.776471 3.942358 -0.706542645 -0.0298017987 -0.707042675 0 0
2.207442 0.776469 3.942628 -0.706542645 -0.0298017987 -0.707042675 0 0
2.207442 0.7713 3.942119 -0.707273906 0.0454983214 -0.705473972 0 0
2.207712 0.771296 3.941848 -0.707273906 0.0454983214 -0.705473972 0 0
2.207442 0.771949 3.919893 -0.707206761 -0.707006759 0.000200001912 0 0
2.207712 0.771678 3.919893 -0.707206761 -0.707006759 0.000200001912 0 0
2.207712 0.771949 3.919622 -0.707506658 -0.000200001882 -0.70670665 0 0
2.207442 0.771949 3.919893 -0.707506658 -0.000200001882 -0.70670665 0 0
2.207712 0.776119 3.930724 -0.707298264 0.706898265 -0.00489998797 0 0
2.207442 0.775849 3.930724 -0.707298264 0.706898265 -0.00489998797 0 0
2.207712 0.771568 3.941595 -0.70718895 -0.706988953 -0.00709988907 0 0
2.207442 0.771839 3.941623 -0.70718895 -0.706988953 -0.00709988907 0 0
2.207712 0.771296 3.941848 0 -0.680213251 -0.733014279 0 0
2.213523 0.771568 3.941595 0 -0.680213251 -0.733014279 0 0
2.213523 0.771296 3.941848 0 -0.680213251 -0.733014279 0 0
2.207712 0.771568 3.941595 0 -0.680213251 -0.733014279 0 0
2.213794 0.771839 3.941623 0.707388891 -0.7067889 -0.0070998885 0 0
2.213523 0.771568 3.941595 0.707388891 -0.7067889 -0.0070998885 0 0
2.207712 0.776388 3.930453 0 0.710697605 0.703497629 0 0
2.213523 0.776119 3.930724 0 0.710697605 0.703497629 0 0
2.213523 0.776388 3.930453 0 0.710697605 0.703497629 0 0
2.207712 0.776119 3.930724 0 0.710697605 0.703497629 0 0
2.213794 0.775849 3.930724 0.707348264 0.70684823 -0.00490033436 0 0
2.213523 0.776119 3.930724 0.707348264 0.70684823 -0.00490033436 0 0
2.207712 0.776198 3.942099 0 0.689595242 -0.724195003 0 0
2.213523 0.776471 3.942358 0 0.689595242 -0.724195003 0 0
2.213523 0.776198 3.942099 0 0.689595242 -0.724195003 0 0
2.207712 0.776471 3.942358 0 0.689595242 -0.724195003 0 0
2.207712 0.771678 3.919893 0 -0.707306755 -0.706906751 0 0
2.213523 0.771949 3.919622 0 -0.707306755 -0.706906751 0 0
2.213523 0.771678 3.919893 0 -0.707306755 -0.706906751 0 0
2.207712 0.771949 3.919622 0 -0.707306755 -0.706906751 0 0
2.213794 0.771949 3.919893 0.707506658 -0.000200001882 -0.70670665 0 0
2.213523 0.771949 3.919622 0.707506658 -0.000200001882 -0.70670665 0 0
2.213523 0.771678 3.919893 0.707206761 -0.707006759 0.000200001912 0 0
2.213794 0.771949 3.919893 0.707206761 -0.707006759 0.000200001912 0 0
2.213523 0.771296 3.941848 0.707270684 0.04559811 -0.705470759 0 0
2.213794 0.7713 3.942119 0.707270684 0.04559811 -0.705470759 0 0
2.213794 0.776469 3.942628 0.706542645 -0.0298017987 -0.707042675 0 0
2.213523 0.776471 3.942358 0.706542645 -0.0298017987 -0.707042675 0 0
2.213523 0.776388 3.930453 0.70750428 0.00260001573 0.706704276 0 0
2.213794 0.776388 3.930182 0.70750428 0.00260001573 0.706704276 0 0
2.207712 0.755127 3.919745 0 0.175205669 -0.984531855 0 0
2.213523 0.755582 3.919826 0 0.175205669 -0.984531855 0 0
2.213523 0.755127 3.919745 0 0.175205669 -0.984531855 0 0
2.207712 0.755582 3.919826 0 0.175205669 -0.984531855 0 0
2.213523 0.756701 3.92081 0.707414329 0.466809455 -0.53071075 0 0
2.213794 0.756435 3.920935 0.707414329 0.466809455 -0.53071075 0 0
2.207712 0.756701 3.92081 0 0.993787016 0.111298546 0 0
2.213523 0.756667 3.921117 0 0.993787016 0.111298546 0 0
2.213523 0.756701 3.92081 0 0.993787016 0.111298546 0 0
2.207712 0.756667 3.921117 0 0.993787016 0.111298546 0 0
2.213794 0.756435 3.920935 0.707103999 0.33780191 0.621203513 0 0
2.213523 0.756667 3.921117 0.707103999 0.33780191 0.621203513 0 0
3 0 1 2
3 0 3 1
3 4 5 6
3 4 7 5
3 8 9 10
3 8 11 9
3 12 13 14
3 12 15 13
3 16 17 18
3 16 19 17
3 20 21 22
3 20 23 21
3 24 25 26
3 24 27 25
3 28 29 30
3 28 31 29
3 32 33 34
3 32 35 33
3 36 37 38
3 36 39 37
3 40 41 42
3 40 43 41
3 44 45 46
3 44 47 45
3 48 49 50
3 48 51 49
3 52 53 54
3 52 55 53
3 56 57 58
3 56 59 57
3 60 61 62
3 60 63 61
3 64 65 66
3 64 67 65
3 68 69 70
3 68 71 69
3 72 73 74
3 72 75 73
3 76 77 78
3 76 79 77
3 80 81 82
3 80 83 81
3 84 85 86
3 84 87 85
3 88 89 90
3 88 91 89
3 92 93 94
3 92 95 93
3 96 97 98
3 96 99 97
3 100 101 102
3 100 103 101
3 104 105 106
3 104 107 105
3 108 109 110
3 108 111 109
3 112 113 114
3 112 115 113
3 116 117 118
3 116 119 117
3 120 121 122
3 120 123 121
3 124 125 126
3 124 127 125
3 128 129 130
3 128 131 129
3 132 133 134
3 132 135 133
3 136 137 138
3 136 139 137
3 140 141 142
3 140 143 141
3 144 145 146
3 144 147 145
3 148 149 150
3 148 151 149
3 152 153 154
3 152 155 153
3 156 157 158
3 156 159 157
3 160 161 162
3 160 163 161
3 164 165 166
3 164 167 165
3 168 169 170
3 168 171 169
3 172 173 174
3 172 175 173
3 176 177 178
3 176 179 177
3 180 181 182
3 180 183 181
3 184 185 186
3 184 187 185
3 188 189 190
3 188 191 189
3 192 193 194
3 192 195 193
3 196 197 198
3 196 199 197
3 200 201 202
3 200 203 201
3 204 205 206
3 204 207 205
3 208 209 210
3 208 211 209
3 212 213 214
3 212 215 213
3 216 217 218
3 216 219 217
3 220 221 222
3 220 223 221
3 224 225 226
3 224 227 225
3 228 229 230
3 228 231 229
3 232 233 234
3 232 235 233
3 236 237 238
3 236 239 237
3 240 241 242
3 240 243 241
3 244 245 246
3 244 247 245
3 248 249 250
3 248 251 249
3 252 253 254
3 252 255 253
3 256 257 258
3 256 259 257
3 260 261 262
3 260 263 261
3 264 265 266
3 264 267 265
3 268 269 270
3 268 271 269
3 272 273 274
3 272 275 273
3 276 277 278
3 276 279 277
3 280 281 282
3 280 283 281
3 284 285 286
3 284 287 285
3 288 289 290
3 288 291 289
3 292 293 294
3 292 295 293
3 296 297 298
3 296 299 297
3 300 301 302
3 300 303 301
3 304 305 306
3 304 307 305
3 308 309 310
3 308 311 309
3 312 313 314
3 312 315 313
3 316 317 318
3 316 319 317
3 320 321 322
3 320 323 321
3 324 325 326
3 324 327 325
3 328 329 330
3 328 331 329
3 332 333 334
3 332 335 333
3 336 337 338
3 336 339 337
3 340 341 342
3 340 343 341
3 344 345 346
3 344 347 345
3 348 349 350
3 348 351 349
3 352 353 354
3 352 355 353
3 356 357 358
3 356 359 357
3 360 361 362
3 360 363 361
3 364 365 366
3 364 367 365
3 368 369 370
3 368 371 369
3 372 373 374
3 372 375 373
3 376 377 378
3 376 379 377
3 380 381 382
3 380 383 381
3 384 385 386
3 384 387 385
3 388 389 390
3 388 391 389
3 392 393 394
3 392 395 393
3 396 397 398
3 396 399 397
3 400 401 402
3 400 403 401
3 404 405 406
3 404 407 405
3 408 409 410
3 408 411 409
3 412 413 414
3 412 415 413
3 416 417 418
3 416 419 417
3 420 421 422
3 420 423 421
3 424 425 426
3 424 427 425
3 428 429 430
3 428 431 429
3 432 433 434
3 432 435 433
3 436 437 438
3 436 439 437
3 440 441 442
3 440 443 441
3 444 445 446
3 444 447 445
3 448 449 450
3 448 451 449
3 452 453 454
3 452 455 453
3 456 457 458
3 456 459 457
3 460 461 462
3 460 463 461
3 464 465 466
3 464 467 465
3 468 469 470
3 468 471 469
3 472 473 474
3 472 475 473
3 476 477 478
3 476 479 477
3 480 481 482
3 483 484 485
3 483 486 484
3 487 488 489
3 487 490 488
3 491 492 493
3 491 494 492
3 495 496 497
3 498 499 500
3 498 501 499
3 502 503 504
3 502 505 503
3 506 507 508
3 506 509 507
3 510 511 512
3 510 513 511
3 514 515 516
3 514 517 515
3 518 519 520
3 518 521 519
3 522 523 524
3 522 525 523
3 522 526 525
3 527 528 529
3 527 530 528
3 527 531 530
3 142 532 533
3 142 101 532
3 142 116 101
3 534 535 536
3 534 537 535
3 538 539 540
3 538 541 539
3 542 543 544
3 545 546 547
3 548 549 550
3 548 551 549
3 552 553 554
3 552 555 553
3 556 354 557
3 556 361 354
3 556 356 361
3 558 559 560
3 558 561 559
3 558 562 561
3 563 564 565
3 563 566 564
3 563 567 566
3 568 569 570
3 568 571 569
3 572 573 574
3 572 575 573
3 576 577 578
3 576 579 577
3 580 581 582
3 580 583 581
3 584 585 586
3 584 587 585
3 588 589 590
3 588 591 589
3 592 593 594
3 595 596 597
3 595 598 596
3 599 600 601
3 599 602 600
3 603 604 605
3 603 606 604
3 607 608 609
3 610 611 612
3 610 613 611
3 614 615 616
3 614 617 615
3 618 619 620
3 618 621 619
3 622 623 624
3 622 625 623
3 626 627 628
3 626 629 627
3 630 631 632
3 630 633 631
3 634 635 636
3 634 637 635
3 638 639 640
3 638 641 639
3 642 643 644
3 642 645 643
3 646 647 648
3 646 649 647
3 650 651 652
3 650 653 651
3 654 655 656
3 654 657 655
3 658 659 660
3 658 661 659
3 662 663 664
3 662 665 663
3 666 667 668
3 666 669 667
3 670 671 672
3 670 673 671
3 674 675 676
3 674 677 675
3 678 679 680
3 678 681 679
3 682 683 684
3 682 685 683
3 686 687 688
3 686 689 687
3 690 691 692
3 690 693 691
3 694 695 696
3 694 697 695
3 698 699 700
3 698 701 699
3 702 703 704
3 702 705 703
3 706 707 708
3 706 709 707
3 710 711 712
3 710 713 711
3 714 715 716
3 714 717 715
3 718 719 720
3 718 721 719
3 722 723 724
3 722 725 723
3 256 726 259
3 256 727 726
3 13 251 14
3 13 249 251
3 375 380 382
3 375 372 380
3 377 386 385
3 377 379 386
3 374 390 389
3 374 373 390
3 376 392 394
3 376 378 392
3 262 728 260
3 262 729 728
3 12 241 15
3 12 242 241
3 257 237 258
3 257 238 237
3 234 250 232
3 234 248 250
3 365 399 396
3 365 367 399
3 371 401 403
3 371 368 401
3 364 405 407
3 364 366 405
3 370 411 408
3 370 369 411
3 381 428 430
3 381 383 428
3 387 434 433
3 387 384 434
3 391 438 437
3 391 388 438
3 393 440 442
3 393 395 440
3 263 214 261
3 263 212 214
3 193 240 194
3 193 243 240
3 189 236 190
3 189 239 236
3 235 186 233
3 235 184 186
3 398 415 412
3 398 397 415
3 400 417 419
3 400 402 417
3 404 421 423
3 404 406 421
3 410 427 424
3 410 409 427
3 429 444 446
3 429 431 444
3 435 450 449
3 435 432 450
3 439 454 453
3 439 436 454
3 441 456 458
3 441 443 456
3 198 215 196
3 198 213 215
3 192 177 195
3 192 178 177
3 188 173 191
3 188 174 173
3 170 187 168
3 170 185 187
3 414 463 460
3 414 413 463
3 416 465 467
3 416 418 465
3 420 469 471
3 420 422 469
3 426 475 472
3 426 425 475
3 445 491 493
3 445 447 491
3 451 730 731
3 451 448 730
3 455 500 499
3 455 452 500
3 457 502 504
3 457 459 502
3 199 146 197
3 199 144 146
3 482 732 733
3 482 481 732
3 161 172 162
3 161 175 172
3 171 138 169
3 171 136 138
3 462 479 476
3 462 461 479
3 464 481 480
3 464 466 481
3 468 484 486
3 468 470 484
3 474 490 487
3 474 473 490
3 503 506 508
3 503 505 506
3 140 139 143
3 140 137 139
3 483 510 512
3 483 485 510
3 489 517 514
3 489 488 517
3 147 110 145
3 147 108 110
3 478 521 518
3 478 477 521
3 492 734 735
3 492 494 734
3 117 160 118
3 117 163 160
3 501 736 737
3 501 498 736
3 507 738 739
3 507 509 738
3 118 101 116
3 118 102 101
3 511 534 536
3 511 513 534
3 516 535 537
3 516 515 535
3 116 141 119
3 116 142 141
3 100 109 103
3 100 110 109
3 541 740 741
3 541 538 740
3 520 742 743
3 520 519 742
3 744 528 530
3 744 745 528
3 746 540 539
3 746 747 540
3 748 749 750
3 748 751 749
3 548 752 753
3 548 550 752
3 96 93 99
3 96 94 93
3 754 755 756
3 754 757 755
3 558 758 759
3 558 560 758
3 760 761 762
3 760 763 761
3 764 765 766
3 764 767 765
3 768 568 570
3 768 769 568
3 84 65 87
3 84 66 65
3 770 549 551
3 770 771 549
3 80 113 83
3 80 114 113
3 555 572 574
3 555 552 572
3 112 73 115
3 112 74 73
3 68 81 71
3 68 82 81
3 554 579 576
3 554 553 579
3 120 77 123
3 120 78 77
3 772 583 580
3 772 773 583
3 774 588 590
3 774 775 588
3 124 57 127
3 124 58 57
3 48 133 51
3 48 134 133
3 776 598 595
3 776 777 598
3 569 610 612
3 569 571 610
3 64 165 67
3 64 166 165
3 573 599 601
3 573 575 599
3 72 149 75
3 72 150 149
3 152 69 155
3 152 70 69
3 578 606 603
3 578 577 606
3 60 121 63
3 60 122 121
3 582 587 584
3 582 581 587
3 600 614 616
3 600 602 614
3 148 45 151
3 148 46 45
3 40 153 43
3 40 154 153
3 605 621 618
3 605 604 621
3 36 157 39
3 36 158 157
3 607 625 622
3 607 609 625
3 778 779 780
3 778 781 779
3 611 626 628
3 611 613 626
3 164 33 167
3 164 34 33
3 782 609 608
3 782 783 609
3 784 785 786
3 784 787 785
3 200 61 203
3 200 62 61
3 586 633 630
3 586 585 633
3 589 634 636
3 589 591 634
3 56 205 59
3 56 206 205
3 788 638 640
3 788 789 638
3 52 209 55
3 52 210 209
3 180 49 183
3 180 50 49
3 597 645 642
3 597 596 645
3 615 662 664
3 615 617 662
3 44 217 47
3 44 218 217
3 220 41 223
3 220 42 41
3 620 669 666
3 620 619 669
3 224 37 227
3 224 38 37
3 624 673 670
3 624 623 673
3 627 674 676
3 627 629 674
3 32 229 35
3 32 230 229
3 28 201 31
3 28 202 201
3 632 649 646
3 632 631 649
3 635 650 652
3 635 637 650
3 204 25 207
3 204 26 25
3 639 654 656
3 639 641 654
3 208 21 211
3 208 22 21
3 16 181 19
3 16 182 181
3 644 661 658
3 644 643 661
3 663 678 680
3 663 665 678
3 216 5 219
3 216 6 5
3 8 221 11
3 8 222 221
3 668 685 682
3 668 667 685
3 244 225 247
3 244 226 225
3 672 689 686
3 672 671 689
3 675 690 692
3 675 677 690
3 228 1 231
3 228 2 1
3 268 29 271
3 268 30 29
3 648 697 694
3 648 647 697
3 651 698 700
3 651 653 698
3 24 253 27
3 24 254 253
3 655 702 704
3 655 657 702
3 20 273 23
3 20 274 273
3 264 17 267
3 264 18 17
3 660 709 706
3 660 659 709
3 679 718 720
3 679 681 718
3 4 245 7
3 4 246 245
3 0 9 3
3 0 10 9
3 684 725 722
3 684 683 725
3 688 719 721
3 688 687 719
3 691 724 723
3 691 693 724
3 272 269 275
3 272 270 269
3 696 713 710
3 696 695 713
3 699 714 716
3 699 701 714
3 252 265 255
3 252 266 265
3 703 712 711
3 703 705 712
3 708 715 717
3 708 707 715
3 287 277 285
3 287 278 277
3 293 276 294
3 293 279 276
3 282 288 280
3 282 291 288
3 283 298 281
3 283 296 298
3 286 302 284
3 286 300 302
3 305 289 306
3 305 290 289
3 292 309 295
3 292 310 309
3 314 299 312
3 314 297 299
3 318 303 316
3 318 301 303
3 304 321 307
3 304 322 321
3 325 308 326
3 325 311 308
3 315 330 313
3 315 328 330
3 319 334 317
3 319 332 334
3 345 320 346
3 345 323 320
3 324 341 327
3 324 342 341
3 350 335 348
3 350 333 335
3 344 337 347
3 344 338 337
3 340 105 343
3 340 106 105
3 362 351 360
3 362 349 351
3 355 336 353
3 355 339 336
3 363 354 361
3 363 352 354
3 361 358 362
3 361 356 358
3 359 106 357
3 359 104 106
3 727 729 726
3 727 728 729
