ply
format ascii 1.0
element vertex 810
property float x
property float y
property float z
property float nx
property float ny
property float nz
property float u
property float v
element face 684
property list uchar int vertex_indices
end_header
2.209215 0.795691 3.978137 0 -0.941365773 -0.337387733 0 0
2.215437 0.795017 3.9795 0 -0.822199392 -0.569199579 0 0
2.209215 0.795017 3.9795 0 -0.822199392 -0.569199579 0 0
2.215437 0.795691 3.978137 0 -0.941365773 -0.337387733 0 0
2.209215 0.795077 3.997499 0 -0.86307082 0.505082923 0 0
2.215437 0.795692 3.998831 0 -0.907894984 0.419197684 0 0
2.209215 0.795692 3.998831 0 -0.907894984 0.419197684 0 0
2.215437 0.795077 3.997499 0 -0.86307082 0.505082923 0 0
2.209215 0.798167 3.980418 0 1 0 0 0
2.215437 0.798167 3.979639 0 1 0 0 0
2.209215 0.798167 3.979639 0 1 0 0 0
2.215437 0.798167 3.980418 0 1 0 0 0
2.209141 0.798094 3.977999 -1 0 0 0 0
2.209141 0.795796 3.977107 -1 0 0 0 0
2.209141 0.795796 3.977999 -1 0 0 0 0
2.209141 0.798094 3.977107 -1 0 0 0 0
2.209215 0.793433 3.995932 0 -0.619780452 0.784775249 0 0
2.215437 0.794993 3.997382 0 -0.749078629 0.6624811 0 0
2.209215 0.794993 3.997382 0 -0.749078629 0.6624811 0 0
2.215437 0.793433 3.995932 0 -0.619780452 0.784775249 0 0
2.209215 0.798167 3.995809 0 1 0 0 0
2.215437 0.798167 3.980565 0 1 0 0 0
2.209215 0.798167 3.980565 0 1 0 0 0
2.215437 0.798167 3.995809 0 1 0 0 0
2.209215 0.790065 3.980722 0 0.1461935 -0.989256014 0 0
2.215437 0.783108 3.97916 0 0.231791762 -0.972765429 0 0
2.209215 0.783108 3.97916 0 0.231791762 -0.972765429 0 0
2.215437 0.790065 3.980722 0 0.1461935 -0.989256014 0 0
2.209215 0.793307 3.980497 0 -0.18620217 -0.982511451 0 0
2.215437 0.79021 3.980732 0 -0.00159999795 -0.99999872 0 0
2.209215 0.79021 3.980732 0 -0.00159999795 -0.99999872 0 0
2.215437 0.793307 3.980497 0 -0.18620217 -0.982511451 0 0
2.209215 0.734075 3.978116 0 -0.271510045 0.962435606 0 0
2.215437 0.758609 3.985036 0 -0.275104131 0.961414436 0 0
2.209215 0.758609 3.985036 0 -0.275104131 0.961414436 0 0
2.215437 0.734075 3.978116 0 -0.271510045 0.962435606 0 0
2.209215 0.798167 3.964529 0 1 0 0 0
2.215437 0.798167 3.958938 0 1 0 0 0
2.209215 0.798167 3.958938 0 1 0 0 0
2.215437 0.798167 3.964529 0 1 0 0 0
2.209215 0.798167 3.957867 0 1 0 0 0
2.215437 0.798167 3.956519 0 1 0 0 0
2.209215 0.798167 3.956519 0 1 0 0 0
2.215437 0.798167 3.957867 0 1 0 0 0
2.209215 0.798167 3.958792 0 1 0 0 0
2.215437 0.798167 3.958013 0 1 0 0 0
2.209215 0.798167 3.958013 0 1 0 0 0
2.215437 0.798167 3.958792 0 1 0 0 0
2.209215 0.795064 3.966224 0 -0.916906226 0.39910271 0 0
2.215437 0.795706 3.968837 0 -0.971168923 0.238392372 0 0
2.209215 0.795705 3.968837 0 -0.971168923 0.238392372 0 0
2.215437 0.795064 3.966224 0 -0.916906226 0.39910271 0 0
2.209215 0.795702 3.955477 0 -0.95885761 -0.28388745 0 0
2.215437 0.795436 3.956376 0 -0.93046315 -0.36638549 0 0
2.209215 0.795436 3.956376 0 -0.93046315 -0.36638549 0 0
2.215437 0.795702 3.955477 0 -0.95885761 -0.28388745 0 0
2.209141 0.798094 3.966079 -1 0 0 0 0
2.209141 0.793228 3.964676 -1 0 0 0 0
2.209141 0.795071 3.966079 -1 0 0 0 0
2.209141 0.798094 3.964676 -1 0 0 0 0
2.209215 0.758609 3.969023 0 -0.271999281 -0.962297455 0 0
2.215437 0.734075 3.976001 0 -0.273492635 -0.961874097 0 0
2.209215 0.734075 3.976001 0 -0.273492635 -0.961874097 0 0
2.215437 0.758609 3.969023 0 -0.271999281 -0.962297455 0 0
2.209215 0.789874 3.96443 0 -0.0168992766 0.999857197 0 0
2.215437 0.792938 3.964598 0 -0.202708116 0.979239205 0 0
2.209215 0.792938 3.964598 0 -0.202708116 0.979239205 0 0
2.215437 0.789874 3.96443 0 -0.0168992766 0.999857197 0 0
2.209215 0.789733 3.960331 0 -0.314907429 -0.94912239 0 0
2.215437 0.786666 3.961236 0 -0.27920884 -0.960230401 0 0
2.209215 0.786666 3.961236 0 -0.27920884 -0.960230401 0 0
2.215437 0.789733 3.960331 0 -0.314907429 -0.94912239 0 0
2.209215 0.75875 3.971931 0 0.250104846 0.968218759 0 0
2.215437 0.78652 3.964756 0 0.212703648 0.977116758 0 0
2.209215 0.78652 3.964756 0 0.212703648 0.977116758 0 0
2.215437 0.75875 3.971931 0 0.250104846 0.968218759 0 0
2.209141 0.786518 3.964681 -1 0 0 0 0
2.209141 0.758753 3.969059 -0.999999875 -0.000499999938 0 0 0
2.209141 0.758753 3.971854 -0.999999755 -0.000699999829 0 0 0
2.209141 0.786522 3.961352 -1 0 0 0 0
2.209141 0.782963 3.992205 -0.99999982 0.000599999892 0 0 0
2.209141 0.758753 3.972423 -1 0 0 0 0
2.209141 0.758753 3.985002 -1 0 0 0 0
2.209141 0.782963 3.979199 -0.99999992 0.000399999968 0 0 0
2.209215 0.798167 3.966079 0 1 0 0 0
2.215437 0.798167 3.964676 0 1 0 0 0
2.209215 0.798167 3.964676 0 1 0 0 0
2.215437 0.798167 3.966079 0 1 0 0 0
2.209215 0.734004 3.978023 0 0 1 0 0
2.215437 0.734004 3.978023 0 0 1 0 0
2.209215 0.734004 3.978023 0 0 1 0 0
2.215437 0.734004 3.978023 0 0 1 0 0
2.209215 0.794249 3.957982 0 -0.642708837 -0.766110534 0 0
2.215437 0.79307 3.958823 0 -0.539913255 -0.841720664 0 0
2.209215 0.79307 3.958823 0 -0.539913255 -0.841720664 0 0
2.215437 0.794249 3.957982 0 -0.642708837 -0.766110534 0 0
2.209215 0.75868 3.972254 0 1 0 0 0
2.215437 0.75868 3.972022 0 1 0 0 0
2.209215 0.75868 3.972022 0 1 0 0 0
2.215437 0.75868 3.972254 0 1 0 0 0
2.209141 0.789728 3.96436 -0.99999968 -0.000799999744 0 0 0
2.209141 0.786669 3.961311 -1 0 0 0 0
2.209141 0.786664 3.964657 -1 0 0 0 0
2.209141 0.78973 3.960408 -0.999999595 -0.000899999636 0 0 0
2.209215 0.734004 3.976094 0 -1 0 0 0
2.215437 0.734004 3.977499 0 -1 0 0 0
2.209215 0.734004 3.977499 0 -1 0 0 0
2.215437 0.734004 3.976094 0 -1 0 0 0
2.209141 0.79021 3.980805 -1 0 0 0 0
2.209141 0.793307 3.995769 -1 0 0 0 0
2.209141 0.793307 3.98057 -1 0 0 0 0
2.209141 0.79021 3.994359 -1 0 0 0 0
2.209141 0.790064 3.994308 -1 0 0 0 0
2.209141 0.78311 3.979235 -0.99999982 0.000599999892 0 0 0
2.209141 0.78311 3.992248 -0.99999992 0.000399999968 0 0 0
2.209141 0.790064 3.980796 -1 0 0 0 0
2.209141 0.793084 3.958938 -1 0 0 0 0
2.209141 0.798094 3.964529 -1 0 0 0 0
2.209141 0.798094 3.958938 -1 0 0 0 0
2.209141 0.793084 3.964529 -1 0 0 0 0
2.209215 0.734004 3.977645 0 -1 0 0 0
2.215437 0.734004 3.977876 0 -1 0 0 0
2.209215 0.734004 3.977876 0 -1 0 0 0
2.215437 0.734004 3.977645 0 -1 0 0 0
2.209215 0.782966 3.979124 0 0.257002832 -0.96641065 0 0
2.215437 0.75875 3.972347 0 0.269500101 -0.963000361 0 0
2.209215 0.75875 3.972347 0 0.269500101 -0.963000361 0 0
2.215437 0.782966 3.979124 0 0.257002832 -0.96641065 0 0
2.209215 0.786525 3.961276 0 -0.271391287 -0.9624691 0 0
2.215437 0.75875 3.968984 0 -0.268984502 -0.963144505 0 0
2.209215 0.75875 3.968984 0 -0.268984502 -0.963144505 0 0
2.215437 0.786525 3.961276 0 -0.271391287 -0.9624691 0 0
2.21551 0.734077 3.97804 1 0 0 0 0
2.21551 0.758606 3.972418 1 0 0 0 0
2.21551 0.758606 3.98496 1 0 0 0 0
2.21551 0.734077 3.978008 1 0 0 0 0
2.209215 0.786664 3.964731 0 0.135903037 0.990722143 0 0
2.215437 0.789728 3.964433 0 0.0589975254 0.998258129 0 0
2.209215 0.789728 3.964433 0 0.0589975254 0.998258129 0 0
2.215437 0.786664 3.964731 0 0.135903037 0.990722143 0 0
2.209141 0.758606 3.9691 -0.999999755 -0.000699999829 0 0 0
2.209141 0.734077 3.97748 -1 0 0 0 0
2.209141 0.758606 3.97189 -0.999999955 -0.000299999987 0 0 0
2.209141 0.734077 3.976076 -1 0 0 0 0
2.209141 0.758606 3.97204 -1 0 0 0 0
2.209141 0.734077 3.977858 -1 0 0 0 0
2.209141 0.758606 3.972268 -1 0 0 0 0
2.209141 0.734077 3.97763 -1 0 0 0 0
2.209215 0.798094 3.955407 0 0 -1 0 0
2.215437 0.795796 3.955407 0 0 -1 0 0
2.209215 0.795796 3.955407 0 0 -1 0 0
2.215437 0.798094 3.955407 0 0 -1 0 0
2.209141 0.798094 3.956373 -1 0 0 0 0
2.209141 0.795778 3.95548 -1 0 0 0 0
2.209141 0.795513 3.956373 -1 0 0 0 0
2.209141 0.798094 3.95548 -1 0 0 0 0
2.209215 0.798167 3.968835 0 1 0 0 0
2.215437 0.798167 3.966226 0 1 0 0 0
2.209215 0.798167 3.966226 0 1 0 0 0
2.215437 0.798167 3.968835 0 1 0 0 0
2.209141 0.79578 3.968835 -1 0 0 0 0
2.209141 0.798094 3.966226 -1 0 0 0 0
2.209141 0.79514 3.966226 -1 0 0 0 0
2.209141 0.798094 3.968835 -1 0 0 0 0
2.209215 0.792944 3.958895 0 -0.454917228 -0.890533725 0 0
2.215437 0.78987 3.96028 0 -0.378913192 -0.925432219 0 0
2.209215 0.78987 3.96028 0 -0.378913192 -0.925432219 0 0
2.215437 0.792944 3.958895 0 -0.454917228 -0.890533725 0 0
2.209215 0.798167 3.956373 0 1 0 0 0
2.215437 0.798167 3.95548 0 1 0 0 0
2.209215 0.798167 3.95548 0 1 0 0 0
2.215437 0.798167 3.956373 0 1 0 0 0
2.209215 0.795372 3.956505 0 -0.852512131 -0.522707438 0 0
2.215437 0.794352 3.957881 0 -0.754500023 -0.65630002 0 0
2.209215 0.794352 3.957881 0 -0.754500023 -0.65630002 0 0
2.215437 0.795372 3.956505 0 -0.852512131 -0.522707438 0 0
2.209215 0.795796 3.968909 0 0 1 0 0
2.215437 0.798094 3.968909 0 0 1 0 0
2.209215 0.798094 3.968909 0 0 1 0 0
2.215437 0.795796 3.968909 0 0 1 0 0
2.209141 0.792938 3.964525 -1 0 0 0 0
2.209141 0.789876 3.960358 -0.99999982 -0.000599999892 0 0 0
2.209141 0.789874 3.964357 -0.99999968 -0.000799999744 0 0 0
2.209141 0.792938 3.958978 -1 0 0 0 0
2.209215 0.793069 3.964647 0 -0.481204571 0.876608328 0 0
2.215437 0.794988 3.966108 0 -0.731567153 0.681769389 0 0
2.209215 0.794988 3.966108 0 -0.731567153 0.681769389 0 0
2.215437 0.793069 3.964647 0 -0.481204571 0.876608328 0 0
2.209141 0.798094 3.958013 -1 0 0 0 0
2.209141 0.793239 3.958792 -1 0 0 0 0
2.209141 0.798094 3.958792 -1 0 0 0 0
2.209141 0.794332 3.958013 -1 0 0 0 0
2.209141 0.794454 3.957867 -1 0 0 0 0
2.209141 0.798094 3.956519 -1 0 0 0 0
2.209141 0.795452 3.956519 -1 0 0 0 0
2.209141 0.798094 3.957867 -1 0 0 0 0
2.209141 0.758606 3.972418 -1 0 0 0 0
2.209141 0.734077 3.97804 -1 0 0 0 0
2.209141 0.758606 3.98496 -1 0 0 0 0
2.209141 0.734077 3.978008 -1 0 0 0 0
2.209215 0.75875 3.985077 0 -0.281911845 0.959440312 0 0
2.215437 0.782966 3.992282 0 -0.284401557 0.958705249 0 0
2.209215 0.782966 3.992282 0 -0.284401557 0.958705249 0 0
2.215437 0.75875 3.985077 0 -0.281911845 0.959440312 0 0
2.209215 0.783107 3.992323 0 -0.28388745 0.95885761 0 0
2.215437 0.790067 3.994386 0 -0.317007678 0.948422971 0 0
2.209215 0.790067 3.994386 0 -0.317007678 0.948422971 0 0
2.215437 0.783107 3.992323 0 -0.28388745 0.95885761 0 0
2.209215 0.798167 3.998824 0 1 0 0 0
2.215437 0.798167 3.997505 0 1 0 0 0
2.209215 0.798167 3.997505 0 1 0 0 0
2.215437 0.798167 3.998824 0 1 0 0 0
2.209215 0.798167 3.997359 0 1 0 0 0
2.215437 0.798167 3.995955 0 1 0 0 0
2.209215 0.798167 3.995955 0 1 0 0 0
2.215437 0.798167 3.997359 0 1 0 0 0
2.209141 0.798094 3.980565 -1 0 0 0 0
2.209141 0.793453 3.995809 -1 0 0 0 0
2.209141 0.798094 3.995809 -1 0 0 0 0
2.209141 0.793453 3.980565 -1 0 0 0 0
2.209215 0.798167 3.977999 0 1 0 0 0
2.215437 0.798167 3.977107 0 1 0 0 0
2.209215 0.798167 3.977107 0 1 0 0 0
2.215437 0.798167 3.977999 0 1 0 0 0
2.209215 0.795723 3.977107 0 -1 0 0 0
2.215437 0.795723 3.977999 0 -0.993422943 -0.114502644 0 0
2.209215 0.795723 3.977999 0 -0.993422943 -0.114502644 0 0
2.215437 0.795723 3.977107 0 -1 0 0 0
2.209141 0.795103 3.979493 -1 0 0 0 0
2.209141 0.798094 3.978145 -1 0 0 0 0
2.209141 0.795768 3.978145 -1 0 0 0 0
2.209141 0.798094 3.979493 -1 0 0 0 0
2.209215 0.798094 3.977033 0 0 -1 0 0
2.215437 0.795796 3.977033 0 0 -1 0 0
2.209215 0.795796 3.977033 0 0 -1 0 0
2.215437 0.798094 3.977033 0 0 -1 0 0
2.209215 0.798167 3.979493 0 1 0 0 0
2.215437 0.798167 3.978145 0 1 0 0 0
2.209215 0.798167 3.978145 0 1 0 0 0
2.215437 0.798167 3.979493 0 1 0 0 0
2.209215 0.790203 3.994437 0 -0.382192805 0.924082604 0 0
2.215437 0.793313 3.995852 0 -0.485982505 0.873968538 0 0
2.209215 0.793313 3.995852 0 -0.485982505 0.873968538 0 0
2.215437 0.790203 3.994437 0 -0.382192805 0.924082604 0 0
2.209215 0.795796 3.998897 0 0 1 0 0
2.215437 0.798094 3.998897 0 0 1 0 0
2.209215 0.798094 3.998897 0 0 1 0 0
2.215437 0.795796 3.998897 0 0 1 0 0
2.209141 0.798094 3.997359 -1 0 0 0 0
2.209141 0.793566 3.995955 -1 0 0 0 0
2.209141 0.795075 3.997359 -1 0 0 0 0
2.209141 0.798094 3.995955 -1 0 0 0 0
2.209141 0.79577 3.998824 -1 0 0 0 0
2.209141 0.798094 3.997505 -1 0 0 0 0
2.209141 0.795161 3.997505 -1 0 0 0 0
2.209141 0.798094 3.998824 -1 0 0 0 0
2.209215 0.794922 3.979603 0 -0.621568264 -0.783360003 0 0
2.215437 0.793443 3.980455 0 -0.399391493 -0.916780473 0 0
2.209215 0.793443 3.980455 0 -0.399391493 -0.916780473 0 0
2.215437 0.794922 3.979603 0 -0.621568264 -0.783360003 0 0
2.21551 0.795796 3.977107 1 0 0 0 0
2.21551 0.798094 3.977999 1 0 0 0 0
2.21551 0.795796 3.977999 1 0 0 0 0
2.21551 0.798094 3.977107 1 0 0 0 0
2.21551 0.798094 3.997505 1 0 0 0 0
2.21551 0.79577 3.998824 1 0 0 0 0
2.21551 0.795161 3.997505 1 0 0 0 0
2.21551 0.798094 3.998824 1 0 0 0 0
2.21551 0.793653 3.980418 1 0 0 0 0
2.21551 0.798094 3.979639 1 0 0 0 0
2.21551 0.798094 3.980418 1 0 0 0 0
2.21551 0.795004 3.979639 1 0 0 0 0
2.21551 0.798094 3.978145 1 0 0 0 0
2.21551 0.795103 3.979493 1 0 0 0 0
2.21551 0.795768 3.978145 1 0 0 0 0
2.21551 0.798094 3.979493 1 0 0 0 0
2.21551 0.793566 3.995955 1 0 0 0 0
2.21551 0.798094 3.997359 1 0 0 0 0
2.21551 0.795075 3.997359 1 0 0 0 0
2.21551 0.798094 3.995955 1 0 0 0 0
2.21551 0.793453 3.995809 1 0 0 0 0
2.21551 0.798094 3.980565 1 0 0 0 0
2.21551 0.798094 3.995809 1 0 0 0 0
2.21551 0.793453 3.980565 1 0 0 0 0
2.21551 0.793307 3.995769 1 0 0 0 0
2.21551 0.79021 3.980805 1 0 0 0 0
2.21551 0.793307 3.98057 1 0 0 0 0
2.21551 0.79021 3.994359 1 0 0 0 0
2.21551 0.786669 3.961311 1 0 0 0 0
2.21551 0.789728 3.96436 1 0 0 0 0
2.21551 0.786664 3.964657 1 0 0 0 0
2.21551 0.78973 3.960408 1 0 0 0 0
2.21551 0.78311 3.979235 0.99999982 0.000599999892 0 0 0
2.21551 0.790064 3.994308 1 0 0 0 0
2.21551 0.78311 3.992248 0.99999992 0.000399999968 0 0 0
2.21551 0.790064 3.980796 1 0 0 0 0
2.21551 0.795778 3.95548 1 0 0 0 0
2.21551 0.798094 3.956373 1 0 0 0 0
2.21551 0.795513 3.956373 1 0 0 0 0
2.21551 0.798094 3.95548 1 0 0 0 0
2.21551 0.798094 3.964529 1 0 0 0 0
2.21551 0.793084 3.958938 0.99999992 0.000399999968 0 0 0
2.21551 0.798094 3.958938 1 0 0 0 0
2.21551 0.793084 3.964529 0.999999875 0.000499999938 0 0 0
2.21551 0.793228 3.964676 1 0 0 0 0
2.21551 0.798094 3.966079 1 0 0 0 0
2.21551 0.795071 3.966079 1 0 0 0 0
2.21551 0.798094 3.964676 1 0 0 0 0
2.21551 0.798094 3.966226 1 0 0 0 0
2.21551 0.79578 3.968835 1 0 0 0 0
2.21551 0.79514 3.966226 1 0 0 0 0
2.21551 0.798094 3.968835 1 0 0 0 0
2.21551 0.798094 3.956519 1 0 0 0 0
2.21551 0.794454 3.957867 1 0 0 0 0
2.21551 0.795452 3.956519 1 0 0 0 0
2.21551 0.798094 3.957867 1 0 0 0 0
2.21551 0.793239 3.958792 1 0 0 0 0
2.21551 0.798094 3.958013 1 0 0 0 0
2.21551 0.798094 3.958792 1 0 0 0 0
2.21551 0.794332 3.958013 1 0 0 0 0
2.21551 0.758753 3.969059 1 0 0 0 0
2.21551 0.786518 3.964681 1 0 0 0 0
2.21551 0.758753 3.971854 1 0 0 0 0
2.21551 0.786522 3.961352 1 0 0 0 0
2.21551 0.789876 3.960358 1 0 0 0 0
2.21551 0.792938 3.964525 0.99999982 0.000599999892 0 0 0
2.21551 0.789874 3.964357 1 0 0 0 0
2.21551 0.792938 3.958978 0.999999755 0.000699999829 0 0 0
2.21551 0.758753 3.972423 1 0 0 0 0
2.21551 0.782963 3.992205 0.99999982 0.000599999892 0 0 0
2.21551 0.758753 3.985002 1 0 0 0 0
2.21551 0.782963 3.979199 0.99999992 0.000399999968 0 0 0
2.21551 0.734077 3.977858 1 0 0 0 0
2.21551 0.758606 3.97204 1 0 0 0 0
2.21551 0.758606 3.972268 1 0 0 0 0
2.21551 0.734077 3.97763 1 0 0 0 0
2.21551 0.734077 3.97748 1 0 0 0 0
2.21551 0.758606 3.9691 1 0 0 0 0
2.21551 0.758606 3.97189 1 0 0 0 0
2.21551 0.734077 3.976076 1 0 0 0 0
2.209215 0.798167 3.980565 -0.706806715 0.70740672 0 0 0
2.209141 0.798094 3.980418 -0.707506672 0.706706664 0 0 0
2.209141 0.798094 3.980565 -0.706806715 0.70740672 0 0 0
2.209215 0.798167 3.980418 -0.707506672 0.706706664 0 0 0
2.209215 0.790065 3.980722 -0.709075871 0.104296451 -0.697376269 0 0
2.209141 0.79021 3.980805 -0.709000833 -0.00310000364 -0.705200829 0 0
2.209215 0.79021 3.980732 -0.709000833 -0.00310000364 -0.705200829 0 0
2.209141 0.790064 3.980796 -0.709309441 0.0983013084 -0.698009291 0 0
2.209141 0.793307 3.98057 -0.753207735 -0.139101429 -0.642906603 0 0
2.209215 0.793443 3.980455 -0.781063736 -0.24618857 -0.573873356 0 0
2.209215 0.793307 3.980497 -0.757910076 -0.148601976 -0.635208445 0 0
2.209141 0.793653 3.980418 -0.722517626 -0.332008099 -0.606414794 0 0
2.209141 0.793453 3.980565 -0.792396034 -0.227498861 -0.565997167 0 0
2.209141 0.795796 3.977999 -0.711530105 -0.699229585 -0.0693029323 0 0
2.209215 0.795691 3.978137 -0.712991736 -0.659292359 -0.238697234 0 0
2.209141 0.795768 3.978145 -0.713622123 -0.665020616 -0.220206827 0 0
2.209215 0.795723 3.977999 -0.711878341 -0.698178758 -0.0759976878 0 0
2.209215 0.794993 3.997382 -0.710391347 -0.527793572 0.465594329 0 0
2.209141 0.795161 3.997505 -0.71051204 -0.622510549 0.32810556 0 0
2.209141 0.795075 3.997359 -0.71183351 -0.549425865 0.437520597 0 0
2.209215 0.795077 3.997499 -0.711499822 -0.608799848 0.350899912 0 0
2.209215 0.798167 3.978145 -0.70740672 0.706806715 0 0 0
2.209141 0.798094 3.977999 -0.706806715 0.70740672 0 0 0
2.209141 0.798094 3.978145 -0.70740672 0.706806715 0 0 0
2.209215 0.798167 3.977999 -0.706806715 0.70740672 0 0 0
2.209141 0.798094 3.997505 -0.707306755 0.706906751 0 0 0
2.209215 0.798167 3.997359 -0.707206775 0.707006773 0 0 0
2.209141 0.798094 3.997359 -0.707206775 0.707006773 0 0 0
2.209215 0.798167 3.997505 -0.707306755 0.706906751 0 0 0
2.209141 0.798094 3.977107 -0.577083487 0.577083487 -0.577883464 0 0
2.209215 0.798167 3.977107 -0.577083487 0.577083487 -0.577883464 0 0
2.209215 0.798094 3.977033 -0.577083487 0.577083487 -0.577883464 0 0
2.209215 0.798167 3.998824 -0.577083487 0.577083487 0.577883464 0 0
2.209141 0.798094 3.998824 -0.577083487 0.577083487 0.577883464 0 0
2.209215 0.798094 3.998897 -0.577083487 0.577083487 0.577883464 0 0
2.209141 0.795796 3.977107 -0.57761682 -0.57761682 -0.576816797 0 0
2.209215 0.795796 3.977033 -0.57761682 -0.57761682 -0.576816797 0 0
2.209215 0.795723 3.977107 -0.57761682 -0.57761682 -0.576816797 0 0
2.209215 0.795796 3.998897 -0.669634685 -0.159608267 0.72533757 0 0
2.209141 0.79577 3.998824 -0.69877613 -0.385186842 0.602779409 0 0
2.209215 0.795692 3.998831 -0.669916477 -0.590814531 0.449611058 0 0
2.209141 0.795004 3.979639 -0.719724086 -0.476715954 -0.504716891 0 0
2.209215 0.795017 3.9795 -0.71608033 -0.579784074 -0.388689323 0 0
2.209215 0.794922 3.979603 -0.717104263 -0.433302576 -0.545903245 0 0
2.209141 0.795103 3.979493 -0.712984493 -0.60508684 -0.354292294 0 0
2.209141 0.793566 3.995955 -0.731900417 -0.448500256 0.513000292 0 0
2.209215 0.793313 3.995852 -0.767642786 -0.327918277 0.55063069 0 0
2.209215 0.793433 3.995932 -0.779301831 -0.378400889 0.499501174 0 0
2.209141 0.793307 3.995769 -0.746374844 -0.315889353 0.585780257 0 0
2.209141 0.793453 3.995809 -0.798701206 -0.346000522 0.492300743 0 0
2.209215 0.798167 3.979493 -0.706906751 0.707306755 0 0 0
2.209141 0.798094 3.979639 -0.707006773 0.707206775 0 0 0
2.209215 0.798167 3.979639 -0.707006773 0.707206775 0 0 0
2.209141 0.798094 3.979493 -0.706906751 0.707306755 0 0 0
2.209215 0.798167 3.995809 -0.706806715 0.70740672 0 0 0
2.209141 0.798094 3.995955 -0.707206775 0.707006773 0 0 0
2.209215 0.798167 3.995955 -0.707206775 0.707006773 0 0 0
2.209141 0.798094 3.995809 -0.706806715 0.70740672 0 0 0
2.209141 0.79021 3.994359 -0.707382068 -0.262493346 0.656283363 0 0
2.209215 0.790067 3.994386 -0.707164098 -0.223288664 0.670865941 0 0
2.209215 0.790203 3.994437 -0.707097642 -0.270099099 0.653497821 0 0
2.209141 0.790064 3.994308 -0.706788854 -0.217096576 0.673289382 0 0
2.209141 0.758753 3.985002 -0.708201611 -0.198600452 0.677501541 0 0
2.209215 0.758609 3.985036 -0.708111893 -0.194403265 0.678811401 0 0
2.209215 0.75875 3.985077 -0.707969416 -0.199191395 0.67757073 0 0
2.209141 0.758606 3.98496 -0.707692619 -0.193897978 0.679392914 0 0
2.209141 0.78311 3.992248 -0.705515109 -0.201604317 0.67941455 0 0
2.209215 0.782966 3.992282 -0.70597725 -0.201793497 0.678878124 0 0
2.209215 0.783107 3.992323 -0.705529329 -0.201508377 0.679428244 0 0
2.209141 0.782963 3.992205 -0.706221314 -0.201806091 0.678620481 0 0
2.209215 0.783108 3.97916 -0.706091658 0.163898064 -0.688891861 0 0
2.209141 0.782963 3.979199 -0.706026826 0.180006839 -0.684926024 0 0
2.209141 0.78311 3.979235 -0.706005376 0.162101234 -0.68940525 0 0
2.209215 0.782966 3.979124 -0.706000081 0.182100021 -0.684400079 0 0
2.209141 0.798094 3.964676 -0.706856752 0.707356722 0 0 0
2.209215 0.798167 3.964529 -0.706906751 0.707306755 0 0 0
2.209141 0.798094 3.964529 -0.706906751 0.707306755 0 0 0
2.209215 0.798167 3.964676 -0.706856752 0.707356722 0 0 0
2.209215 0.798167 3.958013 -0.70740672 0.706806715 0 0 0
2.209141 0.798094 3.957867 -0.70740672 0.706806715 0 0 0
2.209141 0.798094 3.958013 -0.70740672 0.706806715 0 0 0
2.209215 0.798167 3.957867 -0.70740672 0.706806715 0 0 0
2.209141 0.792938 3.964525 -0.763595124 -0.145899068 0.628995984 0 0
2.209141 0.793228 3.964676 -0.729985072 -0.39169199 0.560088546 0 0
2.209141 0.793084 3.964529 -0.803300606 -0.254200192 0.538600407 0 0
2.209215 0.793069 3.964647 -0.787306621 -0.288302425 0.545004584 0 0
2.209215 0.792938 3.964598 -0.768506309 -0.157301291 0.620205092 0 0
2.209141 0.794454 3.957867 -0.708003894 -0.55460305 -0.437202405 0 0
2.209215 0.794249 3.957982 -0.709900217 -0.453700138 -0.538700164 0 0
2.209141 0.794332 3.958013 -0.710707612 -0.480305144 -0.514005505 0 0
2.209215 0.794352 3.957881 -0.709394077 -0.53529553 -0.458496172 0 0
2.209141 0.79578 3.968835 -0.548498382 -0.516698476 0.657398061 0 0
2.209215 0.795705 3.968837 -0.548498382 -0.516698476 0.657398061 0 0
2.209215 0.795796 3.968909 -0.548498382 -0.516698476 0.657398061 0 0
2.209215 0.795702 3.955477 -0.547012937 -0.500111828 -0.671315877 0 0
2.209141 0.795778 3.95548 -0.547012937 -0.500111828 -0.671315877 0 0
2.209215 0.795796 3.955407 -0.547012937 -0.500111828 -0.671315877 0 0
2.209141 0.798094 3.968835 -0.577083487 0.577083487 0.577883464 0 0
2.209215 0.798094 3.968909 -0.577083487 0.577083487 0.577883464 0 0
2.209215 0.798167 3.968835 -0.577083487 0.577083487 0.577883464 0 0
2.209215 0.798094 3.955407 -0.577083487 0.577083487 -0.577883464 0 0
2.209141 0.798094 3.95548 -0.577083487 0.577083487 -0.577883464 0 0
2.209215 0.798167 3.95548 -0.577083487 0.577083487 -0.577883464 0 0
2.209141 0.798094 3.966079 -0.706856752 0.707356722 0 0 0
2.209215 0.798167 3.966226 -0.706756716 0.707456673 0 0 0
2.209215 0.798167 3.966079 -0.706856752 0.707356722 0 0 0
2.209141 0.798094 3.966226 -0.706756716 0.707456673 0 0 0
2.209215 0.798167 3.956373 -0.706306321 0.707906336 0 0 0
2.209141 0.798094 3.956519 -0.706906751 0.707306755 0 0 0
2.209215 0.798167 3.956519 -0.706906751 0.707306755 0 0 0
2.209141 0.798094 3.956373 -0.706306321 0.707906336 0 0 0
2.209215 0.795064 3.966224 -0.7165012 -0.643801078 0.26860045 0 0
2.209141 0.795071 3.966079 -0.720434564 -0.54172599 0.433020775 0 0
2.209215 0.794988 3.966108 -0.717970661 -0.508179234 0.475680562 0 0
2.209141 0.79514 3.966226 -0.714400657 -0.657800605 0.23860022 0 0
2.209141 0.795452 3.956519 -0.711889311 -0.611090825 -0.346094803 0 0
2.209215 0.795436 3.956376 -0.710779 -0.655880622 -0.25419249 0 0
2.209215 0.795372 3.956505 -0.710929483 -0.59922485 -0.368115266 0 0
2.209141 0.795513 3.956373 -0.70974007 -0.663037433 -0.238013437 0 0
2.209215 0.792944 3.958895 -0.763021956 -0.306808829 -0.568916371 0 0
2.209141 0.793239 3.958792 -0.72619898 -0.391099451 -0.565399206 0 0
2.209215 0.79307 3.958823 -0.778113458 -0.33360577 -0.532209205 0 0
2.209141 0.793084 3.958938 -0.792699195 -0.31569968 -0.521499471 0 0
2.209141 0.792938 3.958978 -0.74421887 -0.301107635 -0.596215117 0 0
2.209141 0.798094 3.958792 -0.70740672 0.706806715 0 0 0
2.209215 0.798167 3.958938 -0.706906751 0.707306755 0 0 0
2.209215 0.798167 3.958792 -0.70740672 0.706806715 0 0 0
2.209141 0.798094 3.958938 -0.706906751 0.707306755 0 0 0
2.209141 0.758753 3.969059 -0.706825432 -0.190606858 -0.681224511 0 0
2.209215 0.758609 3.969023 -0.707705276 -0.192401434 -0.679805068 0 0
2.209141 0.758606 3.9691 -0.707726137 -0.192607113 -0.679725103 0 0
2.209215 0.75875 3.968984 -0.706607783 -0.190402097 -0.681507507 0 0
2.209141 0.758606 3.97189 -0.828487515 0.440493362 0.345794789 0 0
2.209215 0.75875 3.971931 -0.801086081 0.347293966 0.48749153 0 0
2.209141 0.758753 3.971854 -0.779640075 0.29901537 0.550228282 0 0
2.209215 0.75868 3.972022 -0.800875065 0.558482612 0.216093272 0 0
2.209141 0.758606 3.97204 -0.780986286 0.604389387 0.157397236 0 0
2.209141 0.786522 3.961352 -0.706112587 -0.191503414 -0.681712152 0 0
2.209215 0.786666 3.961236 -0.707624566 -0.197506857 -0.678423552 0 0
2.209215 0.786525 3.961276 -0.706262396 -0.192189767 -0.681363722 0 0
2.209141 0.786669 3.961311 -0.707430265 -0.19680842 -0.678829041 0 0
2.209215 0.786664 3.964731 -0.707784471 0.0951979114 0.699984643 0 0
2.209141 0.786518 3.964681 -0.708713515 0.145102767 0.690413166 0 0
2.209215 0.78652 3.964756 -0.708503394 0.149900718 0.689603303 0 0
2.209141 0.786664 3.964657 -0.70759925 0.0919999025 0.700599257 0 0
2.209215 0.789728 3.964433 -0.706079796 0.0420987954 0.706879773 0 0
2.209141 0.789874 3.964357 -0.708105941 -0.0119000998 0.706005923 0 0
2.209141 0.789728 3.96436 -0.706067928 0.0407981468 0.706967887 0 0
2.209215 0.789874 3.96443 -0.708102514 -0.0123000437 0.706002506 0 0
2.209215 0.789733 3.960331 -0.707632166 -0.222210101 -0.670730489 0 0
2.209141 0.789876 3.960358 -0.707638157 -0.260414042 -0.656835418 0 0
2.209215 0.78987 3.96028 -0.707784061 -0.267593974 -0.653785277 0 0
2.209141 0.78973 3.960408 -0.70787244 -0.216091587 -0.672473818 0 0
2.209141 0.758606 3.972418 -0.860237727 0.383516819 -0.336014736 0 0
2.209215 0.75868 3.972254 -0.812103431 0.554502343 -0.181700768 0 0
2.209141 0.758606 3.972268 -0.815326666 0.5473179 -0.188906178 0 0
2.209215 0.75875 3.972347 -0.819116215 0.317406283 -0.477809458 0 0
2.209141 0.758753 3.972423 -0.794598959 0.286099625 -0.535499298 0 0
2.209215 0.734004 3.977876 -0.706506521 -0.707706532 0 0 0
2.209141 0.734077 3.978008 -0.710199986 -0.703999986 0 0 0
2.209141 0.734077 3.977858 -0.706506521 -0.707706532 0 0 0
2.209215 0.734004 3.978023 -0.710697605 -0.703497629 0 0 0
2.209141 0.734077 3.97748 -0.705905753 -0.708305773 0 0 0
2.209215 0.734004 3.977645 -0.706306321 -0.707906336 0 0 0
2.209141 0.734077 3.97763 -0.706306321 -0.707906336 0 0 0
2.209215 0.734004 3.977499 -0.705955918 -0.708255774 0 0 0
2.209141 0.734077 3.976076 -0.542506399 -0.671007915 -0.505405961 0 0
2.209215 0.734075 3.976001 -0.542506399 -0.671007915 -0.505405961 0 0
2.209215 0.734004 3.976094 -0.542506399 -0.671007915 -0.505405961 0 0
2.209141 0.734077 3.97804 -0.542506399 -0.671007915 0.505405961 0 0
2.209215 0.734004 3.978023 -0.542506399 -0.671007915 0.505405961 0 0
2.209215 0.734075 3.978116 -0.542506399 -0.671007915 0.505405961 0 0
2.215437 0.734004 3.978023 0.541606689 -0.671508293 0.505706246 0 0
2.21551 0.734077 3.97804 0.541606689 -0.671508293 0.505706246 0 0
2.215437 0.734075 3.978116 0.541606689 -0.671508293 0.505706246 0 0
2.215437 0.734075 3.976001 0.542506399 -0.671007915 -0.505405961 0 0
2.21551 0.734077 3.976076 0.542506399 -0.671007915 -0.505405961 0 0
2.215437 0.734004 3.976094 0.542506399 -0.671007915 -0.505405961 0 0
2.215437 0.734004 3.977645 0.707206775 -0.707006773 0 0 0
2.21551 0.734077 3.97748 0.707006773 -0.707206775 0 0 0
2.21551 0.734077 3.97763 0.707106781 -0.707106781 0 0 0
2.215437 0.734004 3.977499 0.706906751 -0.707306755 0 0 0
2.215437 0.734004 3.977876 0.70740672 -0.706806715 0 0 0
2.21551 0.734077 3.978008 0.7104986 -0.703698614 0 0 0
2.215437 0.734004 3.978023 0.710996004 -0.703196048 0 0 0
2.21551 0.734077 3.977858 0.70740672 -0.706806715 0 0 0
2.215437 0.75868 3.972254 0.812479359 0.553985926 -0.181595387 0 0
2.21551 0.758606 3.972418 0.860020641 0.384009216 -0.336008064 0 0
2.21551 0.758606 3.972268 0.815621039 0.546914108 -0.18880487 0 0
2.21551 0.758753 3.972423 0.794576223 0.286191436 -0.535483976 0 0
2.215437 0.75875 3.972347 0.819031288 0.317612133 -0.477818253 0 0
2.215437 0.789733 3.960331 0.708215195 -0.221304748 -0.670414384 0 0
2.21551 0.789876 3.960358 0.708091977 -0.260297051 -0.656392563 0 0
2.21551 0.78973 3.960408 0.708335 -0.215010624 -0.672333221 0 0
2.215437 0.78987 3.96028 0.708099837 -0.267699938 -0.65339985 0 0
2.215437 0.789728 3.964433 0.705964787 0.0425978753 0.706964737 0 0
2.21551 0.789874 3.964357 0.708010206 -0.0114001643 0.706110179 0 0
2.215437 0.789874 3.96443 0.708006921 -0.0118001153 0.706106902 0 0
2.21551 0.789728 3.96436 0.706003286 0.0413001923 0.707003291 0 0
2.215437 0.786664 3.964731 0.707904095 0.094900549 0.699904049 0 0
2.21551 0.786518 3.964681 0.708801924 0.145200394 0.690301874 0 0
2.21551 0.786664 3.964657 0.707711755 0.0918015248 0.700511636 0 0
2.215437 0.78652 3.964756 0.70864028 0.150008527 0.689439189 0 0
2.215437 0.786666 3.961236 0.707375946 -0.196493318 -0.678976912 0 0
2.21551 0.786522 3.961352 0.705810061 -0.191202726 -0.682109724 0 0
2.215437 0.786525 3.961276 0.705777105 -0.191793778 -0.681977877 0 0
2.21551 0.786669 3.961311 0.707069077 -0.195891433 -0.679470284 0 0
2.215437 0.75875 3.971931 0.800903055 0.348401329 0.487001858 0 0
2.21551 0.758606 3.97189 0.828087223 0.441793183 0.345094675 0 0
2.21551 0.758753 3.971854 0.779496001 0.299998461 0.549897179 0 0
2.21551 0.758606 3.97204 0.781293945 0.604095318 0.156998783 0 0
2.215437 0.75868 3.972022 0.800872026 0.558680486 0.215592469 0 0
2.215437 0.758609 3.969023 0.707187734 -0.192596659 -0.680288201 0 0
2.21551 0.758753 3.969059 0.706280373 -0.190994692 -0.681681056 0 0
2.21551 0.758606 3.9691 0.70730667 -0.192801818 -0.680106413 0 0
2.215437 0.75875 3.968984 0.706110782 -0.190802914 -0.681910413 0 0
2.215437 0.798167 3.958938 0.707306755 0.706906751 0 0 0
2.21551 0.798094 3.958792 0.707006773 0.707206775 0 0 0
2.215437 0.798167 3.958792 0.707006773 0.707206775 0 0 0
2.21551 0.798094 3.958938 0.707306755 0.706906751 0 0 0
2.215437 0.792944 3.958895 0.76256739 -0.307086868 -0.569375651 0 0
2.21551 0.793084 3.958938 0.792103699 -0.315701474 -0.52240244 0 0
2.21551 0.792938 3.958978 0.743862172 -0.301484668 -0.596469667 0 0
2.21551 0.793239 3.958792 0.726110648 -0.391105736 -0.565508293 0 0
2.215437 0.79307 3.958823 0.777584557 -0.333593375 -0.532989415 0 0
2.215437 0.795436 3.956376 0.711518706 -0.654917218 -0.254606694 0 0
2.21551 0.795452 3.956519 0.712390878 -0.610392184 -0.346295566 0 0
2.215437 0.795372 3.956505 0.711195815 -0.598796476 -0.368297833 0 0
2.21551 0.795513 3.956373 0.710395894 -0.662196173 -0.238398622 0 0
2.215437 0.795064 3.966224 0.716615228 -0.643713679 0.268505706 0 0
2.21551 0.795071 3.966079 0.720616445 -0.541812364 0.432609872 0 0
2.21551 0.79514 3.966226 0.714688458 -0.657489382 0.238596147 0 0
2.215437 0.794988 3.966108 0.718405683 -0.508104019 0.475103758 0 0
2.215437 0.798167 3.956373 0.70740672 0.706806715 0 0 0
2.21551 0.798094 3.956519 0.70740672 0.706806715 0 0 0
2.21551 0.798094 3.956373 0.70740672 0.706806715 0 0 0
2.215437 0.798167 3.956519 0.70740672 0.706806715 0 0 0
2.215437 0.798167 3.966226 0.707206775 0.707006773 0 0 0
2.21551 0.798094 3.966079 0.706856752 0.707356722 0 0 0
2.215437 0.798167 3.966079 0.706856752 0.707356722 0 0 0
2.21551 0.798094 3.966226 0.707206775 0.707006773 0 0 0
2.215437 0.798094 3.955407 0.577083487 0.577083487 -0.577883464 0 0
2.215437 0.798167 3.95548 0.577083487 0.577083487 -0.577883464 0 0
2.21551 0.798094 3.95548 0.577083487 0.577083487 -0.577883464 0 0
2.215437 0.798094 3.968909 0.577083487 0.577083487 0.577883464 0 0
2.21551 0.798094 3.968835 0.577083487 0.577083487 0.577883464 0 0
2.215437 0.798167 3.968835 0.577083487 0.577083487 0.577883464 0 0
2.215437 0.795702 3.955477 0.546206707 -0.502206167 -0.670408233 0 0
2.215437 0.795796 3.955407 0.546206707 -0.502206167 -0.670408233 0 0
2.21551 0.795778 3.95548 0.546206707 -0.502206167 -0.670408233 0 0
2.215437 0.795706 3.968837 0.547704299 -0.517404062 0.657505161 0 0
2.21551 0.79578 3.968835 0.547704299 -0.517404062 0.657505161 0 0
2.215437 0.795796 3.968909 0.547704299 -0.517404062 0.657505161 0 0
2.215437 0.794249 3.957982 0.710096002 -0.453397447 -0.538696967 0 0
2.21551 0.794454 3.957867 0.708101324 -0.554401037 -0.437300818 0 0
2.21551 0.794332 3.958013 0.7109901 -0.479793319 -0.514092841 0 0
2.215437 0.794352 3.957881 0.709705724 -0.534704312 -0.458703699 0 0
2.215437 0.792938 3.964598 0.767978309 -0.157995537 0.620682469 0 0
2.21551 0.793228 3.964676 0.730480036 -0.391489301 0.559584707 0 0
2.215437 0.793069 3.964647 0.786681926 -0.289093358 0.545487468 0 0
2.21551 0.793084 3.964529 0.802432335 -0.255410292 0.539321732 0 0
2.21551 0.792938 3.964525 0.763127389 -0.146505258 0.62942259 0 0
2.215437 0.798167 3.958013 0.707506672 0.706706664 0 0 0
2.21551 0.798094 3.957867 0.707906336 0.706306321 0 0 0
2.215437 0.798167 3.957867 0.707906336 0.706306321 0 0 0
2.21551 0.798094 3.958013 0.707506672 0.706706664 0 0 0
2.215437 0.798167 3.964529 0.707306755 0.706906751 0 0 0
2.21551 0.798094 3.964676 0.706856752 0.707356722 0 0 0
2.21551 0.798094 3.964529 0.707306755 0.706906751 0 0 0
2.215437 0.798167 3.964676 0.706856752 0.707356722 0 0 0
2.215437 0.783108 3.97916 0.705889091 0.163097479 -0.689289347 0 0
2.21551 0.782963 3.979199 0.705884633 0.179196099 -0.685285082 0 0
2.215437 0.782966 3.979124 0.705894755 0.181398652 -0.684694913 0 0
2.21551 0.78311 3.979235 0.705877712 0.161494901 -0.689678224 0 0
2.215437 0.782966 3.992282 0.706233851 -0.20070962 0.678932542 0 0
2.21551 0.78311 3.992248 0.705729115 -0.200808285 0.67942803 0 0
2.215437 0.783107 3.992323 0.705686571 -0.201096173 0.679387071 0 0
2.21551 0.782963 3.992205 0.706387409 -0.200996417 0.678687902 0 0
2.215437 0.758609 3.985036 0.708118627 -0.194705122 0.678717854 0 0
2.21551 0.758753 3.985002 0.708221445 -0.19880602 0.677420513 0 0
2.215437 0.75875 3.985077 0.707989164 -0.199396948 0.677489631 0 0
2.21551 0.758606 3.98496 0.707713238 -0.194103631 0.679312707 0 0
2.215437 0.790067 3.994386 0.707601129 -0.223600357 0.670301069 0 0
2.21551 0.79021 3.994359 0.707795314 -0.262598262 0.655795659 0 0
2.215437 0.790203 3.994437 0.707367094 -0.270187431 0.653169615 0 0
2.21551 0.790064 3.994308 0.707067804 -0.217490097 0.672869362 0 0
2.215437 0.798167 3.995809 0.706806715 0.70740672 0 0 0
2.21551 0.798094 3.995955 0.707206775 0.707006773 0 0 0
2.21551 0.798094 3.995809 0.706806715 0.70740672 0 0 0
2.215437 0.798167 3.995955 0.707206775 0.707006773 0 0 0
2.215437 0.798167 3.979493 0.70740672 0.706806715 0 0 0
2.21551 0.798094 3.979639 0.707106781 0.707106781 0 0 0
2.21551 0.798094 3.979493 0.70740672 0.706806715 0 0 0
2.215437 0.798167 3.979639 0.707106781 0.707106781 0 0 0
2.215437 0.793313 3.995852 0.76867533 -0.327089502 0.549682358 0 0
2.21551 0.793566 3.995955 0.732888633 -0.446893069 0.512992044 0 0
2.215437 0.793433 3.995932 0.780720041 -0.376909675 0.498412794 0 0
2.21551 0.793453 3.995809 0.800293702 -0.344597288 0.490696138 0 0
2.21551 0.793307 3.995769 0.747064661 -0.315385081 0.585172319 0 0
2.215437 0.795017 3.9795 0.715885131 -0.57968796 -0.389191917 0 0
2.21551 0.795004 3.979639 0.719399781 -0.476799855 -0.505099846 0 0
2.215437 0.794922 3.979603 0.716818028 -0.433510903 -0.546113735 0 0
2.21551 0.795103 3.979493 0.712902648 -0.605002248 -0.354601317 0 0
2.215437 0.795796 3.998897 0.669607473 -0.159401779 0.725408096 0 0
2.215437 0.795692 3.998831 0.669099739 -0.591899769 0.449399825 0 0
2.21551 0.79577 3.998824 0.698487923 -0.385693331 0.602789578 0 0
2.215437 0.795796 3.977033 0.57761682 -0.57761682 -0.576816797 0 0
2.21551 0.795796 3.977107 0.57761682 -0.57761682 -0.576816797 0 0
2.215437 0.795723 3.977107 0.57761682 -0.57761682 -0.576816797 0 0
2.215437 0.798167 3.998824 0.577083487 0.577083487 0.577883464 0 0
2.215437 0.798094 3.998897 0.577083487 0.577083487 0.577883464 0 0
2.21551 0.798094 3.998824 0.577083487 0.577083487 0.577883464 0 0
2.215437 0.798167 3.977107 0.577083487 0.577083487 -0.577883464 0 0
2.21551 0.798094 3.977107 0.577083487 0.577083487 -0.577883464 0 0
2.215437 0.798094 3.977033 0.577083487 0.577083487 -0.577883464 0 0
2.215437 0.798167 3.997359 0.707206775 0.707006773 0 0 0
2.21551 0.798094 3.997505 0.706906751 0.707306755 0 0 0
2.21551 0.798094 3.997359 0.707206775 0.707006773 0 0 0
2.215437 0.798167 3.997505 0.706906751 0.707306755 0 0 0
2.215437 0.798167 3.978145 0.70740672 0.706806715 0 0 0
2.21551 0.798094 3.977999 0.70740672 0.706806715 0 0 0
2.215437 0.798167 3.977999 0.70740672 0.706806715 0 0 0
2.21551 0.798094 3.978145 0.70740672 0.706806715 0 0 0
2.215437 0.794993 3.997382 0.711005489 -0.526604065 0.466003598 0 0
2.21551 0.795161 3.997505 0.709742877 -0.623537669 0.327819804 0 0
2.215437 0.795077 3.997499 0.7112033 -0.609202827 0.350801628 0 0
2.21551 0.795075 3.997359 0.712387587 -0.548490443 0.437792372 0 0
2.215437 0.795691 3.978137 0.713184046 -0.659085256 -0.23869466 0 0
2.21551 0.795796 3.977999 0.712426613 -0.698326086 -0.0692025851 0 0
2.21551 0.795768 3.978145 0.713911658 -0.664710855 -0.220203596 0 0
2.215437 0.795723 3.977999 0.712725163 -0.697324619 -0.0759026798 0 0
2.215437 0.793443 3.980455 0.781822841 -0.245307167 -0.573216747 0 0
2.21551 0.793307 3.98057 0.75362669 -0.138604909 -0.642522755 0 0
2.215437 0.793307 3.980497 0.758371482 -0.148094431 -0.63477613 0 0
2.21551 0.793453 3.980565 0.793278019 -0.226193732 -0.565284336 0 0
2.21551 0.793653 3.980418 0.722533245 -0.33231529 -0.606227893 0 0
2.215437 0.790065 3.980722 0.708884897 0.10419778 -0.697585138 0 0
2.21551 0.79021 3.980805 0.70880112 -0.00320000506 -0.705401115 0 0
2.21551 0.790064 3.980796 0.709111013 0.0983015266 -0.698210843 0 0
2.215437 0.79021 3.980732 0.70880089 -0.00330000414 -0.705400885 0 0
2.215437 0.798167 3.980565 0.706806715 0.70740672 0 0 0
2.21551 0.798094 3.980418 0.707106781 0.707106781 0 0 0
2.215437 0.798167 3.980418 0.707106781 0.707106781 0 0 0
2.21551 0.798094 3.980565 0.706806715 0.70740672 0 0 0
2.209141 0.793653 3.980418 -1 0 0 0 0
2.209141 0.798094 3.980418 -1 0 0 0 0
2.209141 0.795796 3.977107 -0.706156202 -0.708056084 0 0 0
2.209215 0.795723 3.977107 -0.706156202 -0.708056084 0 0 0
2.209141 0.798094 3.977107 -0.707856337 0 -0.70635643 0 0
2.209215 0.795796 3.977033 -0.707856337 0 -0.70635643 0 0
2.209141 0.795796 3.977107 -0.707856337 0 -0.70635643 0 0
2.209215 0.798094 3.977033 -0.707856337 0 -0.70635643 0 0
2.209215 0.798094 3.998897 -0.707806441 0 0.706406428 0 0
2.209141 0.798094 3.998824 -0.707806441 0 0.706406428 0 0
2.209215 0.798167 3.977107 -0.706506521 0.707706532 0 0 0
2.209141 0.798094 3.977107 -0.706506521 0.707706532 0 0 0
2.209141 0.798094 3.998824 -0.707506672 0.706706664 0 0 0
2.209215 0.798167 3.998824 -0.707506672 0.706706664 0 0 0
2.209141 0.798094 3.979639 -1 0 0 0 0
2.209141 0.795004 3.979639 -1 0 0 0 0
2.209141 0.798094 3.968835 -0.706406428 0.707806441 0 0 0
2.209215 0.798167 3.968835 -0.706406428 0.707806441 0 0 0
2.209215 0.798167 3.95548 -0.706506521 0.707706532 0 0 0
2.209141 0.798094 3.95548 -0.706506521 0.707706532 0 0 0
2.209141 0.79578 3.968835 -0.7066066 0 0.707606609 0 0
2.209215 0.798094 3.968909 -0.7066066 0 0.707606609 0 0
2.209141 0.798094 3.968835 -0.7066066 0 0.707606609 0 0
2.209215 0.795796 3.968909 -0.7066066 0 0.707606609 0 0
2.209215 0.795796 3.955407 -0.706406428 0 -0.707806441 0 0
2.209141 0.798094 3.95548 -0.706406428 0 -0.707806441 0 0
2.209215 0.798094 3.955407 -0.706406428 0 -0.707806441 0 0
2.209141 0.795778 3.95548 -0.706406428 0 -0.707806441 0 0
2.209215 0.795705 3.968837 -0.706529749 -0.687328941 0.168507095 0 0
2.209141 0.79578 3.968835 -0.706529749 -0.687328941 0.168507095 0 0
2.209141 0.795778 3.95548 -0.706410367 -0.678809962 -0.200502942 0 0
2.209215 0.795702 3.955477 -0.706410367 -0.678809962 -0.200502942 0 0
2.209141 0.734077 3.976076 -0.705705385 -0.708505406 0 0 0
2.209215 0.734004 3.976094 -0.705705385 -0.708505406 0 0 0
2.209215 0.734075 3.976001 -0.707699367 -0.193499827 -0.679499392 0 0
2.209141 0.734077 3.976076 -0.707699367 -0.193499827 -0.679499392 0 0
2.209141 0.734077 3.97804 -0.706506959 -0.192201893 0.681106709 0 0
2.209215 0.734075 3.978116 -0.706506959 -0.192201893 0.681106709 0 0
2.209215 0.734004 3.978023 -0.714517717 -0.699617347 0 0 0
2.209141 0.734077 3.97804 -0.714517717 -0.699617347 0 0 0
2.209215 0.75875 3.971931 0 0.790309729 0.612707542 0 0
2.215437 0.75868 3.972022 0 0.790309729 0.612707542 0 0
2.215437 0.75875 3.971931 0 0.790309729 0.612707542 0 0
2.209215 0.75868 3.972022 0 0.790309729 0.612707542 0 0
2.209215 0.75868 3.972254 0 0.797461001 -0.603370493 0 0
2.215437 0.75875 3.972347 0 0.797461001 -0.603370493 0 0
2.215437 0.75868 3.972254 0 0.797461001 -0.603370493 0 0
2.209215 0.75875 3.972347 0 0.797461001 -0.603370493 0 0
2.209215 0.734004 3.978023 0 -1 0 0 0
2.215437 0.734004 3.978023 0 -1 0 0 0
2.209215 0.734075 3.978116 0 -0.797895113 0.602796308 0 0
2.215437 0.734004 3.978023 0 -0.797895113 0.602796308 0 0
2.215437 0.734075 3.978116 0 -0.797895113 0.602796308 0 0
2.209215 0.734004 3.978023 0 -0.797895113 0.602796308 0 0
2.21551 0.734077 3.97804 0.714517717 -0.699617347 0 0 0
2.215437 0.734004 3.978023 0.714517717 -0.699617347 0 0 0
2.215437 0.734075 3.978116 0.706506959 -0.192201893 0.681106709 0 0
2.21551 0.734077 3.97804 0.706506959 -0.192201893 0.681106709 0 0
2.209215 0.734004 3.976094 0 -0.798196408 -0.602397289 0 0
2.215437 0.734075 3.976001 0 -0.798196408 -0.602397289 0 0
2.215437 0.734004 3.976094 0 -0.798196408 -0.602397289 0 0
2.209215 0.734075 3.976001 0 -0.798196408 -0.602397289 0 0
2.21551 0.734077 3.976076 0.707705994 -0.193101636 -0.679605756 0 0
2.215437 0.734075 3.976001 0.707705994 -0.193101636 -0.679605756 0 0
2.215437 0.734004 3.976094 0.707306755 -0.706906751 0 0 0
2.21551 0.734077 3.976076 0.707306755 -0.706906751 0 0 0
2.215437 0.795702 3.955477 0.707023332 -0.678022375 -0.201006633 0 0
2.21551 0.795778 3.95548 0.707023332 -0.678022375 -0.201006633 0 0
2.209215 0.795702 3.955477 0 -0.598398803 -0.801198398 0 0
2.215437 0.795796 3.955407 0 -0.598398803 -0.801198398 0 0
2.215437 0.795702 3.955477 0 -0.598398803 -0.801198398 0 0
2.209215 0.795796 3.955407 0 -0.598398803 -0.801198398 0 0
2.209215 0.795796 3.968909 0 -0.617596291 0.786495277 0 0
2.215437 0.795706 3.968837 0 -0.617596291 0.786495277 0 0
2.215437 0.795796 3.968909 0 -0.617596291 0.786495277 0 0
2.209215 0.795705 3.968837 0 -0.617596291 0.786495277 0 0
2.21551 0.79578 3.968835 0.707393135 -0.686393339 0.168698363 0 0
2.215437 0.795706 3.968837 0.707393135 -0.686393339 0.168698363 0 0
2.215437 0.798094 3.955407 0.706406428 0 -0.707806441 0 0
2.21551 0.795778 3.95548 0.706406428 0 -0.707806441 0 0
2.215437 0.795796 3.955407 0.706406428 0 -0.707806441 0 0
2.21551 0.798094 3.95548 0.706406428 0 -0.707806441 0 0
2.209215 0.798094 3.955407 0 0.707106781 -0.707106781 0 0
2.215437 0.798167 3.95548 0 0.707106781 -0.707106781 0 0
2.215437 0.798094 3.955407 0 0.707106781 -0.707106781 0 0
2.209215 0.798167 3.95548 0 0.707106781 -0.707106781 0 0
2.209215 0.798167 3.968835 0 0.707106781 0.707106781 0 0
2.215437 0.798094 3.968909 0 0.707106781 0.707106781 0 0
2.215437 0.798167 3.968835 0 0.707106781 0.707106781 0 0
2.209215 0.798094 3.968909 0 0.707106781 0.707106781 0 0
2.21551 0.798094 3.968835 0.7066066 0 0.707606609 0 0
2.215437 0.795796 3.968909 0.7066066 0 0.707606609 0 0
2.21551 0.79578 3.968835 0.7066066 0 0.707606609 0 0
2.215437 0.798094 3.968909 0.7066066 0 0.707606609 0 0
2.21551 0.798094 3.95548 0.707706532 0.706506521 0 0 0
2.215437 0.798167 3.95548 0.707706532 0.706506521 0 0 0
2.215437 0.798167 3.968835 0.707306755 0.706906751 0 0 0
2.21551 0.798094 3.968835 0.707306755 0.706906751 0 0 0
2.215437 0.798167 3.998824 0.706706664 0.707506672 0 0 0
2.21551 0.798094 3.998824 0.706706664 0.707506672 0 0 0
2.209215 0.798167 3.998824 0 0.707106781 0.707106781 0 0
2.215437 0.798094 3.998897 0 0.707106781 0.707106781 0 0
2.215437 0.798167 3.998824 0 0.707106781 0.707106781 0 0
2.209215 0.798094 3.998897 0 0.707106781 0.707106781 0 0
2.209215 0.798094 3.977033 0 0.707106781 -0.707106781 0 0
2.215437 0.798167 3.977107 0 0.707106781 -0.707106781 0 0
2.215437 0.798094 3.977033 0 0.707106781 -0.707106781 0 0
2.209215 0.798167 3.977107 0 0.707106781 -0.707106781 0 0
2.21551 0.798094 3.977107 0.707706532 0.706506521 0 0 0
2.215437 0.798167 3.977107 0.707706532 0.706506521 0 0 0
2.21551 0.798094 3.998824 0.707806441 0 0.706406428 0 0
2.215437 0.798094 3.998897 0.707806441 0 0.706406428 0 0
2.209215 0.795796 3.998897 0 -0.538207783 0.842812187 0 0
2.215437 0.795692 3.998831 0 -0.538207783 0.842812187 0 0
2.215437 0.795796 3.998897 0 -0.538207783 0.842812187 0 0
2.209215 0.795692 3.998831 0 -0.538207783 0.842812187 0 0
2.209215 0.795723 3.977107 0 -0.707506672 -0.706706664 0 0
2.215437 0.795796 3.977033 0 -0.707506672 -0.706706664 0 0
2.215437 0.795723 3.977107 0 -0.707506672 -0.706706664 0 0
2.209215 0.795796 3.977033 0 -0.707506672 -0.706706664 0 0
2.21551 0.795796 3.977107 0.707856337 0 -0.70635643 0 0
2.215437 0.798094 3.977033 0.707856337 0 -0.70635643 0 0
2.21551 0.798094 3.977107 0.707856337 0 -0.70635643 0 0
2.215437 0.795796 3.977033 0.707856337 0 -0.70635643 0 0
2.215437 0.795723 3.977107 0.70740672 -0.706806715 0 0 0
2.21551 0.795796 3.977107 0.70740672 -0.706806715 0 0 0
3 0 1 2
3 0 3 1
3 4 5 6
3 4 7 5
3 8 9 10
3 8 11 9
3 12 13 14
3 12 15 13
3 16 17 18
3 16 19 17
3 20 21 22
3 20 23 21
3 24 25 26
3 24 27 25
3 28 29 30
3 28 31 29
3 32 33 34
3 32 35 33
3 36 37 38
3 36 39 37
3 40 41 42
3 40 43 41
3 44 45 46
3 44 47 45
3 48 49 50
3 48 51 49
3 52 53 54
3 52 55 53
3 56 57 58
3 56 59 57
3 60 61 62
3 60 63 61
3 64 65 66
3 64 67 65
3 68 69 70
3 68 71 69
3 72 73 74
3 72 75 73
3 76 77 78
3 76 79 77
3 80 81 82
3 80 83 81
3 84 85 86
3 84 87 85
3 88 89 90
3 88 91 89
3 92 93 94
3 92 95 93
3 96 97 98
3 96 99 97
3 100 101 102
3 100 103 101
3 104 105 106
3 104 107 105
3 108 109 110
3 108 111 109
3 112 113 114
3 112 115 113
3 116 117 118
3 116 119 117
3 120 121 122
3 120 123 121
3 124 125 126
3 124 127 125
3 128 129 130
3 128 131 129
3 132 133 134
3 132 135 133
3 136 137 138
3 136 139 137
3 140 141 142
3 140 143 141
3 144 145 146
3 144 147 145
3 148 149 150
3 148 151 149
3 152 153 154
3 152 155 153
3 156 157 158
3 156 159 157
3 160 161 162
3 160 163 161
3 164 165 166
3 164 167 165
3 168 169 170
3 168 171 169
3 172 173 174
3 172 175 173
3 176 177 178
3 176 179 177
3 180 181 182
3 180 183 181
3 184 185 186
3 184 187 185
3 188 189 190
3 188 191 189
3 192 193 194
3 192 195 193
3 196 197 198
3 196 199 197
3 200 201 202
3 200 203 201
3 204 205 206
3 204 207 205
3 208 209 210
3 208 211 209
3 212 213 214
3 212 215 213
3 216 217 218
3 216 219 217
3 220 221 222
3 220 223 221
3 224 225 226
3 224 227 225
3 228 229 230
3 228 231 229
3 232 233 234
3 232 235 233
3 236 237 238
3 236 239 237
3 240 241 242
3 240 243 241
3 244 245 246
3 244 247 245
3 248 249 250
3 248 251 249
3 252 253 254
3 252 255 253
3 256 257 258
3 256 259 257
3 260 261 262
3 260 263 261
3 264 265 266
3 264 267 265
3 268 269 270
3 268 271 269
3 272 273 274
3 272 275 273
3 276 277 278
3 276 279 277
3 280 281 282
3 280 283 281
3 284 285 286
3 284 287 285
3 288 289 290
3 288 291 289
3 292 293 294
3 292 295 293
3 296 297 298
3 296 299 297
3 300 301 302
3 300 303 301
3 304 305 306
3 304 307 305
3 308 309 310
3 308 311 309
3 312 313 314
3 312 315 313
3 316 317 318
3 316 319 317
3 320 321 322
3 320 323 321
3 324 325 326
3 324 327 325
3 328 329 330
3 328 331 329
3 332 333 334
3 332 335 333
3 336 337 338
3 336 339 337
3 340 341 342
3 340 343 341
3 344 345 346
3 344 347 345
3 348 349 350
3 348 351 349
3 348 352 351
3 353 354 355
3 353 356 354
3 357 358 359
3 357 360 358
3 361 362 363
3 361 364 362
3 365 366 367
3 365 368 366
3 369 370 371
3 372 373 374
3 375 376 377
3 378 379 380
3 381 382 383
3 381 384 382
3 385 386 387
3 385 388 386
3 385 389 388
3 390 391 392
3 390 393 391
3 394 395 396
3 394 397 395
3 398 399 400
3 398 401 399
3 402 403 404
3 402 405 403
3 406 407 408
3 406 409 407
3 410 411 412
3 410 413 411
3 414 415 416
3 414 417 415
3 418 419 420
3 418 421 419
3 422 423 424
3 422 425 423
3 422 426 425
3 427 428 429
3 427 430 428
3 431 432 433
3 434 435 436
3 437 438 439
3 440 441 442
3 443 444 445
3 443 446 444
3 447 448 449
3 447 450 448
3 451 452 453
3 451 454 452
3 455 456 457
3 455 458 456
3 459 460 461
3 459 462 460
3 459 463 462
3 464 465 466
3 464 467 465
3 468 469 470
3 468 471 469
3 472 473 474
3 472 475 473
3 472 476 475
3 477 478 479
3 477 480 478
3 481 482 483
3 481 484 482
3 485 486 487
3 485 488 486
3 489 490 491
3 489 492 490
3 493 494 495
3 493 496 494
3 493 497 496
3 498 499 500
3 498 501 499
3 502 503 504
3 502 505 503
3 506 507 508
3 509 510 511
3 512 513 514
3 515 516 517
3 518 519 520
3 518 521 519
3 522 523 524
3 522 525 523
3 526 527 528
3 526 529 527
3 526 530 529
3 531 532 533
3 531 534 532
3 535 536 537
3 535 538 536
3 539 540 541
3 539 542 540
3 543 544 545
3 543 546 544
3 547 548 549
3 547 550 548
3 547 551 550
3 552 553 554
3 552 555 553
3 556 557 558
3 556 559 557
3 560 561 562
3 560 563 561
3 560 564 563
3 565 566 567
3 565 568 566
3 569 570 571
3 569 572 570
3 573 574 575
3 573 576 574
3 577 578 579
3 577 580 578
3 581 582 583
3 584 585 586
3 587 588 589
3 590 591 592
3 593 594 595
3 593 596 594
3 597 598 599
3 597 600 598
3 597 601 600
3 602 603 604
3 602 605 603
3 606 607 608
3 606 609 607
3 610 611 612
3 610 613 611
3 614 615 616
3 614 617 615
3 618 619 620
3 618 621 619
3 622 623 624
3 622 625 623
3 626 627 628
3 626 629 627
3 630 631 632
3 630 633 631
3 634 635 636
3 634 637 635
3 634 638 637
3 639 640 641
3 639 642 640
3 643 644 645
3 646 647 648
3 649 650 651
3 652 653 654
3 655 656 657
3 655 658 656
3 659 660 661
3 659 662 660
3 663 664 665
3 663 666 664
3 667 668 669
3 667 670 668
3 671 672 673
3 671 674 672
3 671 675 674
3 676 677 678
3 676 679 677
3 680 681 682
3 680 683 681
3 346 348 350
3 346 345 348
3 216 684 219
3 216 685 684
3 14 229 12
3 14 230 229
3 250 253 248
3 250 254 253
3 356 686 687
3 356 353 686
3 358 380 379
3 358 360 380
3 688 689 690
3 688 691 689
3 692 379 378
3 692 693 379
3 362 694 695
3 362 364 694
3 368 696 697
3 368 365 696
3 349 381 383
3 349 351 381
3 355 382 384
3 355 354 382
3 357 385 387
3 357 359 385
3 341 392 391
3 341 343 392
3 361 393 390
3 361 363 393
3 367 396 395
3 367 366 396
3 228 698 231
3 228 699 698
3 217 251 218
3 217 249 251
3 386 398 400
3 386 388 398
3 399 406 408
3 399 401 406
3 402 407 409
3 402 404 407
3 80 113 83
3 80 114 113
3 59 119 57
3 59 117 119
3 188 192 191
3 188 195 192
3 417 443 445
3 417 414 443
3 419 449 448
3 419 421 449
3 418 464 466
3 418 420 464
3 423 453 452
3 423 425 453
3 430 455 457
3 430 427 455
3 429 461 460
3 429 428 461
3 700 444 446
3 700 701 444
3 702 450 447
3 702 703 450
3 704 705 706
3 704 707 705
3 708 709 710
3 708 711 709
3 712 454 451
3 712 713 454
3 714 456 458
3 714 715 456
3 161 58 162
3 161 56 58
3 193 154 194
3 193 152 154
3 189 118 190
3 189 116 118
3 77 142 78
3 77 140 142
3 471 477 479
3 471 468 477
3 463 491 490
3 463 459 491
3 478 492 489
3 478 480 492
3 100 181 103
3 100 182 181
3 144 141 147
3 144 142 141
3 196 145 199
3 196 146 145
3 505 716 717
3 505 502 716
3 470 718 719
3 470 469 718
3 403 720 721
3 403 405 720
3 499 722 723
3 499 501 722
3 411 496 497
3 411 413 496
3 347 410 412
3 347 344 410
3 198 81 196
3 198 82 81
3 108 112 111
3 108 115 112
3 340 397 394
3 340 342 397
3 219 109 217
3 219 110 109
3 498 504 503
3 498 500 504
3 475 495 494
3 475 476 495
3 474 483 482
3 474 473 483
3 426 486 488
3 426 422 486
3 484 485 487
3 484 481 485
3 101 76 102
3 101 79 76
3 416 465 467
3 416 415 465
3 180 116 183
3 180 119 116
3 44 37 47
3 44 38 37
3 559 606 608
3 559 556 606
3 36 85 39
3 36 86 85
3 64 137 67
3 64 138 137
3 538 539 541
3 538 535 539
3 136 73 139
3 136 74 73
3 184 65 187
3 184 66 65
3 537 601 597
3 537 536 601
3 540 547 549
3 540 542 547
3 724 725 726
3 724 727 725
3 526 550 551
3 526 528 550
3 728 729 730
3 728 731 729
3 732 121 733
3 732 122 121
3 518 525 522
3 518 520 525
3 120 105 123
3 120 106 105
3 8 21 11
3 8 22 21
3 626 683 680
3 626 628 683
3 20 213 23
3 20 214 213
3 124 25 127
3 124 26 25
3 613 676 678
3 613 610 676
3 24 29 27
3 24 30 29
3 529 612 611
3 529 530 612
3 734 735 736
3 734 737 735
3 738 524 523
3 738 739 524
3 200 33 203
3 200 34 33
3 740 621 618
3 740 741 621
3 742 743 744
3 742 745 743
3 746 552 554
3 746 747 552
3 60 129 63
3 60 130 129
3 748 519 521
3 748 749 519
3 128 69 131
3 128 70 69
3 531 546 543
3 531 533 546
3 68 165 71
3 68 166 165
3 532 560 562
3 532 534 560
3 164 93 167
3 164 94 93
3 545 553 555
3 545 544 553
3 172 53 175
3 172 54 53
3 568 750 751
3 568 565 750
3 752 753 754
3 752 755 753
3 756 757 758
3 756 759 757
3 569 760 761
3 569 571 760
3 48 185 51
3 48 186 185
3 762 763 764
3 762 765 763
3 766 767 768
3 766 769 767
3 770 771 772
3 770 773 771
3 774 775 776
3 774 777 775
3 573 778 779
3 573 575 778
3 168 41 171
3 168 42 41
3 84 157 87
3 84 158 157
3 580 780 781
3 580 577 780
3 563 593 595
3 563 564 593
3 92 173 95
3 92 174 173
3 567 594 596
3 567 566 594
3 570 599 598
3 570 572 599
3 40 45 43
3 40 46 45
3 558 605 602
3 558 557 605
3 574 604 603
3 574 576 604
3 579 607 609
3 579 578 607
3 204 201 207
3 204 202 201
3 617 620 619
3 617 614 620
3 240 205 243
3 240 206 205
3 616 625 622
3 616 615 625
3 16 241 19
3 16 242 241
3 624 638 634
3 624 623 638
3 627 655 657
3 627 629 655
3 212 209 215
3 212 210 209
3 220 237 223
3 220 238 237
3 630 662 659
3 630 632 662
3 236 9 239
3 236 10 9
3 631 682 681
3 631 633 682
3 4 17 7
3 4 18 17
3 636 666 663
3 636 635 666
3 256 1 259
3 256 2 1
3 642 667 669
3 642 639 667
3 0 225 3
3 0 226 225
3 28 257 31
3 28 258 257
3 641 675 671
3 641 640 675
3 782 656 658
3 782 783 656
3 784 785 786
3 784 787 785
3 788 789 790
3 788 791 789
3 792 661 660
3 792 793 661
3 643 794 795
3 643 645 794
3 796 797 798
3 796 799 797
3 800 801 802
3 800 803 801
3 804 805 806
3 804 807 805
3 645 665 664
3 645 644 665
3 808 668 670
3 808 809 668
3 673 677 679
3 673 672 677
3 261 274 262
3 261 272 274
3 277 266 278
3 277 264 266
3 283 270 281
3 283 268 270
3 275 271 273
3 275 269 271
3 282 276 280
3 282 279 276
3 280 286 283
3 280 284 286
3 287 295 285
3 287 293 295
3 331 294 329
3 331 292 294
3 133 330 134
3 133 328 330
3 310 305 308
3 310 306 305
3 304 300 307
3 304 303 300
3 314 297 312
3 314 298 297
3 319 315 317
3 319 313 315
3 318 301 316
3 318 302 301
3 327 303 325
3 327 301 303
3 322 337 320
3 322 338 337
3 290 323 288
3 290 321 323
3 291 326 289
3 291 324 326
3 135 334 133
3 135 332 334
3 335 338 333
3 335 336 338
3 698 684 685
3 698 699 684
