ply
format ascii 1.0
element vertex 704
property float x
property float y
property float z
property float nx
property float ny
property float nz
property float u
property float v
element face 704
property list uchar int vertex_indices
end_header
2.206863 0.80737 4.0173 0 0.999109167 -0.0422003872 0 0
2.212658 0.80717 4.014931 0 0.98677501 -0.162095895 0 0
2.206863 0.80717 4.014931 0 0.98677501 -0.162095895 0 0
2.212658 0.80737 4.0173 0 0.999109167 -0.0422003872 0 0
2.206863 0.741394 4.017839 0 -0.999109167 0.0422003872 0 0
2.212658 0.741594 4.020208 0 -0.986759011 0.162193263 0 0
2.206863 0.741594 4.020208 0 -0.986759011 0.162193263 0 0
2.212658 0.741394 4.017839 0 -0.999109167 0.0422003872 0 0
2.206863 0.80717 4.020208 0 0.98677501 0.162095895 0 0
2.212658 0.80737 4.017839 0 0.999109167 0.0422003872 0 0
2.206863 0.80737 4.017839 0 0.999109167 0.0422003872 0 0
2.212658 0.80717 4.020208 0 0.98677501 0.162095895 0 0
2.206592 0.745978 4.016217 -1 0 0 0 0
2.206592 0.741666 4.017299 -1 0 0 0 0
2.206592 0.745762 4.017299 -1 0 0 0 0
2.206592 0.741859 4.015014 -1 0 0 0 0
2.206863 0.801678 4.014868 0 -0.749408704 0.66210769 0 0
2.212658 0.802319 4.015804 0 -0.877704419 0.479202413 0 0
2.206863 0.802319 4.015804 0 -0.877704419 0.479202413 0 0
2.212658 0.801678 4.014868 0 -0.749408704 0.66210769 0 0
2.206863 0.746445 4.015804 0 0.877662358 0.479279444 0 0
2.212658 0.747086 4.014868 0 0.749408704 0.66210769 0 0
2.206863 0.747086 4.014868 0 0.749408704 0.66210769 0 0
2.212658 0.746445 4.015804 0 0.877662358 0.479279444 0 0
2.206863 0.802319 4.019335 0 -0.877704419 -0.479202413 0 0
2.212658 0.801678 4.020271 0 -0.749408704 -0.66210769 0 0
2.206863 0.801678 4.020271 0 -0.749408704 -0.66210769 0 0
2.212658 0.802319 4.019335 0 -0.877704419 -0.479202413 0 0
2.206863 0.747086 4.020271 0 0.749408704 -0.66210769 0 0
2.212658 0.746445 4.019335 0 0.877662358 -0.479279444 0 0
2.206863 0.746445 4.019335 0 0.877662358 -0.479279444 0 0
2.212658 0.747086 4.020271 0 0.749408704 -0.66210769 0 0
2.206863 0.805222 4.010308 0 0.803716601 -0.59501229 0 0
2.212658 0.801376 4.005896 0 0.690413905 -0.72341457 0 0
2.206863 0.801376 4.005896 0 0.690413905 -0.72341457 0 0
2.212658 0.805222 4.010308 0 0.803716601 -0.59501229 0 0
2.206863 0.747389 4.005896 0 -0.690413905 -0.72341457 0 0
2.212658 0.743542 4.010308 0 -0.803716601 -0.59501229 0 0
2.206863 0.743542 4.010308 0 -0.803716601 -0.59501229 0 0
2.212658 0.747389 4.005896 0 -0.690413905 -0.72341457 0 0
2.206863 0.801376 4.029243 0 0.690413905 0.72341457 0 0
2.212658 0.805222 4.024831 0 0.803716601 0.59501229 0 0
2.206863 0.805222 4.024831 0 0.803716601 0.59501229 0 0
2.212658 0.801376 4.029243 0 0.690413905 0.72341457 0 0
2.206863 0.743542 4.024831 0 -0.803716601 0.59501229 0 0
2.212658 0.747389 4.029243 0 -0.690413905 0.72341457 0 0
2.206863 0.747389 4.029243 0 -0.690413905 0.72341457 0 0
2.212658 0.743542 4.024831 0 -0.803716601 0.59501229 0 0
2.206863 0.790865 4.011472 0 -0.141295359 0.989967485 0 0
2.212658 0.797672 4.012728 0 -0.254094581 0.967179375 0 0
2.206863 0.797672 4.012728 0 -0.254094581 0.967179375 0 0
2.212658 0.790865 4.011472 0 -0.141295359 0.989967485 0 0
2.206863 0.751092 4.012728 0 0.254094581 0.967179375 0 0
2.212658 0.757899 4.011472 0 0.141295359 0.989967485 0 0
2.206863 0.757899 4.011472 0 0.141295359 0.989967485 0 0
2.212658 0.751092 4.012728 0 0.254094581 0.967179375 0 0
2.206863 0.797672 4.022411 0 -0.254094581 -0.967179375 0 0
2.212658 0.790865 4.023667 0 -0.141295359 -0.989967485 0 0
2.206863 0.790865 4.023667 0 -0.141295359 -0.989967485 0 0
2.212658 0.797672 4.022411 0 -0.254094581 -0.967179375 0 0
2.206863 0.757899 4.023667 0 0.141295359 -0.989967485 0 0
2.212658 0.751092 4.022411 0 0.254094581 -0.967179375 0 0
2.206863 0.751092 4.022411 0 0.254094581 -0.967179375 0 0
2.212658 0.757899 4.023667 0 0.141295359 -0.989967485 0 0
2.206863 0.792001 4.000919 0 0.267793427 -0.963476352 0 0
2.212658 0.780421 3.998575 0 0.149201038 -0.988806882 0 0
2.206863 0.780421 3.998575 0 0.149201038 -0.988806882 0 0
2.212658 0.792001 4.000919 0 0.267793427 -0.963476352 0 0
2.206863 0.768343 3.998575 0 -0.149201038 -0.988806882 0 0
2.212658 0.756764 4.000919 0 -0.267793427 -0.963476352 0 0
2.206863 0.756764 4.000919 0 -0.267793427 -0.963476352 0 0
2.212658 0.768343 3.998575 0 -0.149201038 -0.988806882 0 0
2.206863 0.780421 4.036564 0 0.149005481 0.98883637 0 0
2.212658 0.792001 4.03422 0 0.267793427 0.963476352 0 0
2.206863 0.792001 4.03422 0 0.267793427 0.963476352 0 0
2.212658 0.780421 4.036564 0 0.149005481 0.98883637 0 0
2.206863 0.756764 4.03422 0 -0.267793427 0.963476352 0 0
2.212658 0.768343 4.036564 0 -0.149005481 0.98883637 0 0
2.206863 0.768343 4.036564 0 -0.149005481 0.98883637 0 0
2.212658 0.756764 4.03422 0 -0.267793427 0.963476352 0 0
2.206863 0.768821 4.011222 0 0.0047999447 0.99998848 0 0
2.212658 0.779944 4.011222 0 -0.0047999447 0.99998848 0 0
2.206863 0.779944 4.011222 0 -0.0047999447 0.99998848 0 0
2.212658 0.768821 4.011222 0 0.0047999447 0.99998848 0 0
2.206863 0.779944 4.023917 0 -0.0047999447 -0.99998848 0 0
2.212658 0.768821 4.023917 0 0.0047999447 -0.99998848 0 0
2.206863 0.768821 4.023917 0 0.0047999447 -0.99998848 0 0
2.212658 0.779944 4.023917 0 -0.0047999447 -0.99998848 0 0
2.206863 0.76828 4.023912 0 0.0144999256 -0.999894871 0 0
2.212658 0.758435 4.023722 0 0.0600995417 -0.998192389 0 0
2.206863 0.758435 4.023722 0 0.0600995417 -0.998192389 0 0
2.212658 0.76828 4.023912 0 0.0144999256 -0.999894871 0 0
2.212928 0.779942 4.024188 1 0 0 0 0
2.212928 0.768878 4.036347 1 0 0 0 0
2.212928 0.768822 4.024188 1 0 0 0 0
2.212928 0.779886 4.036347 1 0 0 0 0
2.206863 0.758435 4.011417 0 0.0600995417 0.998192389 0 0
2.212658 0.76828 4.011227 0 0.0144999256 0.999894871 0 0
2.206863 0.76828 4.011227 0 0.0144999256 0.999894871 0 0
2.212658 0.758435 4.011417 0 0.0600995417 0.998192389 0 0
2.206592 0.768281 4.010957 -1 0 0 0 0
2.206592 0.756806 4.001186 -0.99999998 0.000199999996 0 0 0
2.206592 0.758395 4.011147 -0.99999998 0.000199999996 0 0 0
2.206592 0.768336 3.998853 -1 0 0 0 0
2.206863 0.768879 4.036617 0 -0.0496982226 0.99876428 0 0
2.212658 0.779885 4.036617 0 0.0496982226 0.99876428 0 0
2.206863 0.779885 4.036617 0 0.0496982226 0.99876428 0 0
2.212658 0.768879 4.036617 0 -0.0496982226 0.99876428 0 0
2.206863 0.779885 3.998522 0 0.0498977185 -0.998754333 0 0
2.212658 0.768879 3.998522 0 -0.0498977185 -0.998754333 0 0
2.206863 0.768879 3.998522 0 -0.0498977185 -0.998754333 0 0
2.212658 0.779885 3.998522 0 0.0498977185 -0.998754333 0 0
2.206592 0.768878 4.036347 -1 0 0 0 0
2.206592 0.779942 4.024188 -1 0 0 0 0
2.206592 0.768822 4.024188 -1 0 0 0 0
2.206592 0.779886 4.036347 -1 0 0 0 0
2.206863 0.780484 4.011227 0 -0.0144999256 0.999894871 0 0
2.212658 0.790329 4.011417 0 -0.0600995417 0.998192389 0 0
2.206863 0.790329 4.011417 0 -0.0600995417 0.998192389 0 0
2.212658 0.780484 4.011227 0 -0.0144999256 0.999894871 0 0
2.206592 0.756806 4.033953 -0.99999998 0.000199999996 0 0 0
2.206592 0.768281 4.024182 -1 0 0 0 0
2.206592 0.758395 4.023992 -0.99999998 0.000199999996 0 0 0
2.206592 0.768336 4.036286 -1 0 0 0 0
2.206592 0.780483 4.024182 -1 0 0 0 0
2.206592 0.791958 4.033953 -0.99999998 -0.000199999996 0 0 0
2.206592 0.79037 4.023992 -0.99999998 -0.000199999996 0 0 0
2.206592 0.780428 4.036286 -1 0 0 0 0
2.206592 0.779942 4.010952 -1 0 0 0 0
2.206592 0.768878 3.998792 -1 0 0 0 0
2.206592 0.768822 4.010952 -1 0 0 0 0
2.206592 0.779886 3.998792 -1 0 0 0 0
2.206863 0.790329 4.023722 0 -0.0600995417 -0.998192389 0 0
2.212658 0.780484 4.023912 0 -0.0144999256 -0.999894871 0 0
2.206863 0.780484 4.023912 0 -0.0144999256 -0.999894871 0 0
2.212658 0.790329 4.023722 0 -0.0600995417 -0.998192389 0 0
2.206592 0.791958 4.001186 -0.99999998 -0.000199999996 0 0 0
2.206592 0.780483 4.010957 -1 0 0 0 0
2.206592 0.79037 4.011147 -0.99999998 -0.000199999996 0 0 0
2.206592 0.780428 3.998853 -1 0 0 0 0
2.206863 0.747805 4.029573 0 -0.546527051 0.83744145 0 0
2.212658 0.756259 4.03404 0 -0.402507364 0.915416748 0 0
2.206863 0.756259 4.03404 0 -0.402507364 0.915416748 0 0
2.212658 0.747805 4.029573 0 -0.546527051 0.83744145 0 0
2.206863 0.792505 4.03404 0 0.402507364 0.915416748 0 0
2.212658 0.800959 4.029573 0 0.546527051 0.83744145 0 0
2.206863 0.800959 4.029573 0 0.546527051 0.83744145 0 0
2.212658 0.792505 4.03404 0 0.402507364 0.915416748 0 0
2.206863 0.756259 4.001099 0 -0.402507364 -0.915416748 0 0
2.212658 0.747805 4.005566 0 -0.546527051 -0.83744145 0 0
2.206863 0.747805 4.005566 0 -0.546527051 -0.83744145 0 0
2.212658 0.756259 4.001099 0 -0.402507364 -0.915416748 0 0
2.206863 0.800959 4.005566 0 0.546527051 -0.83744145 0 0
2.212658 0.792505 4.001099 0 0.402507364 -0.915416748 0 0
2.206863 0.792505 4.001099 0 0.402507364 -0.915416748 0 0
2.212658 0.800959 4.005566 0 0.546527051 -0.83744145 0 0
2.206592 0.747919 4.029327 -0.999999995 9.99999995e-05 0 0 0
2.206592 0.757856 4.023935 -0.99999998 0.000199999996 0 0 0
2.206592 0.750984 4.022666 -0.999999995 9.99999995e-05 0 0 0
2.206592 0.756291 4.033751 -0.99999998 0.000199999996 0 0 0
2.206592 0.790908 4.023935 -0.99999998 -0.000199999996 0 0 0
2.206592 0.800845 4.029327 -0.999999995 -9.99999995e-05 0 0 0
2.206592 0.79778 4.022666 -0.999999995 -9.99999995e-05 0 0 0
2.206592 0.792473 4.033751 -0.99999998 -0.000199999996 0 0 0
2.206592 0.757856 4.011204 -0.99999998 0.000199999996 0 0 0
2.206592 0.747919 4.005812 -0.999999995 9.99999995e-05 0 0 0
2.206592 0.750984 4.012473 -0.999999995 9.99999995e-05 0 0 0
2.206592 0.756291 4.001389 -0.99999998 0.000199999996 0 0 0
2.206863 0.798178 4.012902 0 -0.394788062 0.918772217 0 0
2.212658 0.801285 4.01452 0 -0.566528823 0.824041924 0 0
2.206863 0.801285 4.01452 0 -0.566528823 0.824041924 0 0
2.212658 0.798178 4.012902 0 -0.394788062 0.918772217 0 0
2.206592 0.743729 4.024633 -0.999999995 9.99999995e-05 0 0 0
2.206592 0.750473 4.022483 -0.999999995 9.99999995e-05 0 0 0
2.206592 0.747296 4.020829 -0.999999995 9.99999995e-05 0 0 0
2.206592 0.747495 4.028954 -0.999999995 9.99999995e-05 0 0 0
2.206592 0.798291 4.022483 -0.999999995 -9.99999995e-05 0 0 0
2.206592 0.805035 4.024633 -1 0 0 0 0
2.206592 0.801468 4.020829 -1 0 0 0 0
2.206592 0.801269 4.028954 -0.999999995 -9.99999995e-05 0 0 0
2.206592 0.750473 4.012656 -0.999999995 9.99999995e-05 0 0 0
2.206592 0.743729 4.010506 -1 0 0 0 0
2.206592 0.747296 4.01431 -1 0 0 0 0
2.206592 0.747495 4.006185 -0.999999995 9.99999995e-05 0 0 0
2.206592 0.800845 4.005812 -0.999999995 -9.99999995e-05 0 0 0
2.206592 0.790908 4.011204 -0.99999998 -0.000199999996 0 0 0
2.206592 0.79778 4.012473 -0.999999995 -9.99999995e-05 0 0 0
2.206592 0.792473 4.001389 -0.99999998 -0.000199999996 0 0 0
2.206863 0.750586 4.022237 0 0.394703645 -0.918808485 0 0
2.212658 0.747479 4.020619 0 0.566596725 -0.823995237 0 0
2.206863 0.747479 4.020619 0 0.566596725 -0.823995237 0 0
2.212658 0.750586 4.022237 0 0.394703645 -0.918808485 0 0
2.206863 0.801285 4.020619 0 -0.566528823 -0.824041924 0 0
2.212658 0.798178 4.022237 0 -0.394788062 -0.918772217 0 0
2.206863 0.798178 4.022237 0 -0.394788062 -0.918772217 0 0
2.212658 0.801285 4.020619 0 -0.566528823 -0.824041924 0 0
2.206863 0.747479 4.01452 0 0.566596725 0.823995237 0 0
2.212658 0.750586 4.012902 0 0.394703645 0.918808485 0 0
2.206863 0.750586 4.012902 0 0.394703645 0.918808485 0 0
2.212658 0.747479 4.01452 0 0.566596725 0.823995237 0 0
2.206592 0.805035 4.010506 -0.999999995 -9.99999995e-05 0 0 0
2.206592 0.798291 4.012656 -0.999999995 -9.99999995e-05 0 0 0
2.206592 0.801468 4.01431 -0.999999995 -9.99999995e-05 0 0 0
2.206592 0.801269 4.006185 -0.999999995 -9.99999995e-05 0 0 0
2.206863 0.741722 4.020727 0 -0.949251788 0.314517159 0 0
2.212658 0.743259 4.024377 0 -0.887914913 0.460007726 0 0
2.206863 0.743259 4.024377 0 -0.887914913 0.460007726 0 0
2.212658 0.741722 4.020727 0 -0.949251788 0.314517159 0 0
2.206863 0.805505 4.024377 0 0.887914913 0.460007726 0 0
2.212658 0.807042 4.020727 0 0.949261679 0.314487304 0 0
2.206863 0.807042 4.020727 0 0.949261679 0.314487304 0 0
2.212658 0.805505 4.024377 0 0.887914913 0.460007726 0 0
2.206863 0.743259 4.010762 0 -0.887914913 -0.460007726 0 0
2.212658 0.741722 4.014412 0 -0.949251788 -0.314517159 0 0
2.206863 0.741722 4.014412 0 -0.949251788 -0.314517159 0 0
2.212658 0.743259 4.010762 0 -0.887914913 -0.460007726 0 0
2.206863 0.807042 4.014412 0 0.949261679 -0.314487304 0 0
2.212658 0.805505 4.010762 0 0.887914913 -0.460007726 0 0
2.206863 0.805505 4.010762 0 0.887914913 -0.460007726 0 0
2.212658 0.807042 4.014412 0 0.949261679 -0.314487304 0 0
2.206592 0.741984 4.020652 -1 0 0 0 0
2.206592 0.746893 4.020468 -0.999999995 9.99999995e-05 0 0 0
2.206592 0.74618 4.019426 -1 0 0 0 0
2.206592 0.743452 4.024138 -0.99999998 0.000199999996 0 0 0
2.206592 0.801871 4.020468 -1 0 0 0 0
2.206592 0.80678 4.020652 -1 0 0 0 0
2.206592 0.802585 4.019426 -1 0 0 0 0
2.206592 0.805312 4.024138 -1 0 0 0 0
2.206592 0.746893 4.014671 -1 0 0 0 0
2.206592 0.741984 4.014487 -1 0 0 0 0
2.206592 0.74618 4.015713 -1 0 0 0 0
2.206592 0.743452 4.011001 -1 0 0 0 0
2.206863 0.741594 4.014931 0 -0.986759011 -0.162193263 0 0
2.212658 0.741394 4.0173 0 -0.999109167 -0.0422003872 0 0
2.206863 0.741394 4.0173 0 -0.999109167 -0.0422003872 0 0
2.212658 0.741594 4.014931 0 -0.986759011 -0.162193263 0 0
2.206592 0.745978 4.018922 -1 0 0 0 0
2.206592 0.741666 4.01784 -1 0 0 0 0
2.206592 0.741859 4.020125 -1 0 0 0 0
2.206592 0.745762 4.01784 -1 0 0 0 0
2.206863 0.802727 4.017835 0 -0.995167021 -0.0981967458 0 0
2.212658 0.802525 4.018847 0 -0.95599065 -0.293397131 0 0
2.206863 0.802525 4.018847 0 -0.95599065 -0.293397131 0 0
2.212658 0.802727 4.017835 0 -0.995167021 -0.0981967458 0 0
2.206592 0.807099 4.01784 -1 0 0 0 0
2.206592 0.802786 4.018922 -1 0 0 0 0
2.206592 0.806905 4.020125 -1 0 0 0 0
2.206592 0.803002 4.01784 -1 0 0 0 0
2.206592 0.80678 4.014487 -1 0 0 0 0
2.206592 0.801871 4.014671 -0.999999995 -9.99999995e-05 0 0 0
2.206592 0.802585 4.015713 -1 0 0 0 0
2.206592 0.805312 4.011001 -0.99999998 -0.000199999996 0 0 0
2.206863 0.802525 4.016292 0 -0.95599065 0.293397131 0 0
2.212658 0.802727 4.017304 0 -0.995167021 0.0981967458 0 0
2.206863 0.802727 4.017304 0 -0.995167021 0.0981967458 0 0
2.212658 0.802525 4.016292 0 -0.95599065 0.293397131 0 0
2.206863 0.746239 4.018847 0 0.95599065 -0.293397131 0 0
2.212658 0.746037 4.017835 0 0.995167021 -0.0981967458 0 0
2.206863 0.746037 4.017835 0 0.995167021 -0.0981967458 0 0
2.212658 0.746239 4.018847 0 0.95599065 -0.293397131 0 0
2.206863 0.746037 4.017304 0 0.995167021 0.0981967458 0 0
2.212658 0.746239 4.016292 0 0.95599065 0.293397131 0 0
2.206863 0.746239 4.016292 0 0.95599065 0.293397131 0 0
2.212658 0.746037 4.017304 0 0.995167021 0.0981967458 0 0
2.212928 0.802786 4.016217 1 0 0 0 0
2.212928 0.807099 4.017299 1 0 0 0 0
2.212928 0.803002 4.017299 1 0 0 0 0
2.212928 0.806905 4.015014 0.999999995 9.99999995e-05 0 0 0
2.212928 0.741666 4.017299 1 0 0 0 0
2.212928 0.745978 4.016217 1 0 0 0 0
2.212928 0.745762 4.017299 1 0 0 0 0
2.212928 0.741859 4.015014 1 0 0 0 0
2.212928 0.802786 4.018922 1 0 0 0 0
2.212928 0.807099 4.01784 1 0 0 0 0
2.212928 0.806905 4.020125 1 0 0 0 0
2.212928 0.803002 4.01784 1 0 0 0 0
2.212928 0.741666 4.01784 1 0 0 0 0
2.212928 0.745978 4.018922 1 0 0 0 0
2.212928 0.741859 4.020125 1 0 0 0 0
2.212928 0.745762 4.01784 1 0 0 0 0
2.212928 0.801871 4.014671 1 0 0 0 0
2.212928 0.80678 4.014487 0.999999995 9.99999995e-05 0 0 0
2.212928 0.802585 4.015713 0.999999995 9.99999995e-05 0 0 0
2.212928 0.805312 4.011001 1 0 0 0 0
2.212928 0.741984 4.014487 1 0 0 0 0
2.212928 0.746893 4.014671 1 0 0 0 0
2.212928 0.74618 4.015713 1 0 0 0 0
2.212928 0.743452 4.011001 1 0 0 0 0
2.212928 0.80678 4.020652 1 0 0 0 0
2.212928 0.801871 4.020468 1 0 0 0 0
2.212928 0.802585 4.019426 1 0 0 0 0
2.212928 0.805312 4.024138 1 0 0 0 0
2.212928 0.746893 4.020468 1 0 0 0 0
2.212928 0.741984 4.020652 0.999999995 -9.99999995e-05 0 0 0
2.212928 0.74618 4.019426 0.999999995 -9.99999995e-05 0 0 0
2.212928 0.743452 4.024138 1 0 0 0 0
2.212928 0.798291 4.012656 1 0 0 0 0
2.212928 0.805035 4.010506 1 0 0 0 0
2.212928 0.801468 4.01431 1 0 0 0 0
2.212928 0.801269 4.006185 1 0 0 0 0
2.212928 0.743729 4.010506 1 0 0 0 0
2.212928 0.750473 4.012656 1 0 0 0 0
2.212928 0.747296 4.01431 1 0 0 0 0
2.212928 0.747495 4.006185 1 0 0 0 0
2.212928 0.805035 4.024633 1 0 0 0 0
2.212928 0.798291 4.022483 1 0 0 0 0
2.212928 0.801468 4.020829 1 0 0 0 0
2.212928 0.801269 4.028954 1 0 0 0 0
2.212928 0.750473 4.022483 1 0 0 0 0
2.212928 0.743729 4.024633 1 0 0 0 0
2.212928 0.747296 4.020829 1 0 0 0 0
2.212928 0.747495 4.028954 1 0 0 0 0
2.212928 0.790908 4.011204 1 0 0 0 0
2.212928 0.800845 4.005812 1 0 0 0 0
2.212928 0.79778 4.012473 1 0 0 0 0
2.212928 0.792473 4.001389 1 0 0 0 0
2.212928 0.747919 4.005812 1 0 0 0 0
2.212928 0.757856 4.011204 1 0 0 0 0
2.212928 0.750984 4.012473 1 0 0 0 0
2.212928 0.756291 4.001389 1 0 0 0 0
2.212928 0.800845 4.029327 1 0 0 0 0
2.212928 0.790908 4.023935 1 0 0 0 0
2.212928 0.79778 4.022666 1 0 0 0 0
2.212928 0.792473 4.033751 1 0 0 0 0
2.212928 0.768878 3.998792 1 0 0 0 0
2.212928 0.779942 4.010952 1 0 0 0 0
2.212928 0.768822 4.010952 1 0 0 0 0
2.212928 0.779886 3.998792 1 0 0 0 0
2.212928 0.757856 4.023935 1 0 0 0 0
2.212928 0.747919 4.029327 1 0 0 0 0
2.212928 0.750984 4.022666 1 0 0 0 0
2.212928 0.756291 4.033751 1 0 0 0 0
2.212928 0.780483 4.010957 1 0 0 0 0
2.212928 0.791958 4.001186 1 0 0 0 0
2.212928 0.79037 4.011147 1 0 0 0 0
2.212928 0.780428 3.998853 1 0 0 0 0
2.212928 0.756806 4.001186 1 0 0 0 0
2.212928 0.768281 4.010957 1 0 0 0 0
2.212928 0.758395 4.011147 1 0 0 0 0
2.212928 0.768336 3.998853 1 0 0 0 0
2.212928 0.768281 4.024182 1 0 0 0 0
2.212928 0.756806 4.033953 1 0 0 0 0
2.212928 0.758395 4.023992 1 0 0 0 0
2.212928 0.768336 4.036286 1 0 0 0 0
2.212928 0.791958 4.033953 1 0 0 0 0
2.212928 0.780483 4.024182 1 0 0 0 0
2.212928 0.79037 4.023992 1 0 0 0 0
2.212928 0.780428 4.036286 1 0 0 0 0
2.206863 0.80737 4.017839 -0.708004248 0.705604234 0.0292001752 0 0
2.206592 0.807099 4.017299 -0.708028885 0.705528783 -0.0304012402 0 0
2.206592 0.807099 4.01784 -0.708028885 0.705528783 0.0304012402 0 0
2.206863 0.80737 4.0173 -0.708004248 0.705604234 -0.0292001752 0 0
2.206592 0.741666 4.017299 -0.70792905 -0.705628956 -0.0304012475 0 0
2.206863 0.741394 4.017839 -0.708004248 -0.705604234 0.0292001752 0 0
2.206592 0.741666 4.01784 -0.707978931 -0.705579002 0.0303990953 0 0
2.206863 0.741394 4.0173 -0.707954292 -0.705654441 -0.0291981149 0 0
2.206592 0.803002 4.017299 -0.712101243 -0.69890122 0.0667001164 0 0
2.206863 0.802727 4.017835 -0.71180647 -0.698706351 -0.0717006518 0 0
2.206592 0.803002 4.01784 -0.712002175 -0.699002135 -0.0667002038 0 0
2.206863 0.802727 4.017304 -0.711811571 -0.698711358 0.0716011639 0 0
2.206863 0.746037 4.017835 -0.71180647 0.698706351 -0.0717006518 0 0
2.206592 0.745762 4.017299 -0.712002175 0.699002135 0.0667002038 0 0
2.206592 0.745762 4.01784 -0.712002175 0.699002135 -0.0667002038 0 0
2.206863 0.746037 4.017304 -0.71180647 0.698706351 0.0717006518 0 0
2.206592 0.802786 4.016217 -0.711599943 -0.672799946 0.202399984 0 0
2.206863 0.802319 4.015804 -0.711736862 -0.615331869 0.338817548 0 0
2.206863 0.802525 4.016292 -0.711677447 -0.672478689 0.203193561 0 0
2.206592 0.802585 4.015713 -0.7121607 -0.620265772 0.328781857 0 0
2.206863 0.746445 4.015804 -0.711712743 0.615311017 0.338906068 0 0
2.206592 0.745978 4.016217 -0.711585537 0.672786326 0.202495884 0 0
2.206863 0.746239 4.016292 -0.711662984 0.672465023 0.203289426 0 0
2.206592 0.74618 4.015713 -0.7121607 0.620265772 0.328781857 0 0
2.206863 0.802319 4.019335 -0.711923117 -0.615119973 -0.338811001 0 0
2.206592 0.802786 4.018922 -0.711682767 -0.672683711 -0.202495097 0 0
2.206863 0.802525 4.018847 -0.711677447 -0.672478689 -0.203193561 0 0
2.206592 0.802585 4.019426 -0.71232173 -0.620118917 -0.328710027 0 0
2.206592 0.745978 4.018922 -0.711647821 0.672745207 -0.202413602 0 0
2.206863 0.746445 4.019335 -0.711879324 0.615182132 -0.33879016 0 0
2.206863 0.746239 4.018847 -0.711677447 0.672478689 -0.203193561 0 0
2.206592 0.74618 4.019426 -0.712277556 0.620180458 -0.328689643 0 0
2.206592 0.806905 4.015014 -0.710486526 0.695186816 -0.109197929 0 0
2.206863 0.807042 4.014412 -0.710655493 0.66855813 -0.219086279 0 0
2.206592 0.80678 4.014487 -0.710593832 0.667994202 -0.220998082 0 0
2.206863 0.80717 4.014931 -0.710773599 0.69377423 -0.116095688 0 0
2.206863 0.741722 4.014412 -0.710605994 -0.66860564 -0.219101848 0 0
2.206592 0.741859 4.015014 -0.710387607 -0.695287871 -0.109198095 0 0
2.206592 0.741984 4.014487 -0.710496853 -0.66809704 -0.220999021 0 0
2.206863 0.741594 4.014931 -0.710674803 -0.693875399 -0.116095884 0 0
2.206863 0.807042 4.020727 -0.710718571 0.668517469 0.219005723 0 0
2.206592 0.806905 4.020125 -0.710535918 0.69513514 0.10920552 0 0
2.206592 0.80678 4.020652 -0.7106413 0.667938818 0.221012845 0 0
2.206863 0.80717 4.020208 -0.71083116 0.69373041 0.116005085 0 0
2.206592 0.741859 4.020125 -0.71058543 -0.695085747 0.109197761 0 0
2.206863 0.741722 4.020727 -0.710703003 -0.668502824 0.219100926 0 0
2.206592 0.741984 4.020652 -0.7106413 -0.667938818 0.221012845 0 0
2.206863 0.741594 4.020208 -0.710921691 -0.693621163 0.116103542 0 0
2.206592 0.805312 4.011001 -0.709985797 0.633487327 -0.307593847 0 0
2.206863 0.805222 4.010308 -0.711106596 0.566805257 -0.416003858 0 0
2.206592 0.805035 4.010506 -0.711585053 0.572787969 -0.406891453 0 0
2.206863 0.805505 4.010762 -0.711092868 0.623893742 -0.324196748 0 0
2.206863 0.743542 4.010308 -0.711095865 -0.566896704 -0.415897582 0 0
2.206592 0.743452 4.011001 -0.709962653 -0.633566672 -0.307483825 0 0
2.206592 0.743729 4.010506 -0.711494924 -0.572895912 -0.406897097 0 0
2.206863 0.743259 4.010762 -0.710999061 -0.623999176 -0.324199572 0 0
2.206863 0.805222 4.024831 -0.711066289 0.566873125 0.415980279 0 0
2.206592 0.805312 4.024138 -0.709913055 0.633611652 0.307505655 0 0
2.206592 0.805035 4.024633 -0.711494924 0.572895912 0.406897097 0 0
2.206863 0.805505 4.024377 -0.710999061 0.623999176 0.324199572 0 0
2.206592 0.743452 4.024138 -0.709891222 -0.633592166 0.307596197 0 0
2.206863 0.743542 4.024831 -0.711275323 -0.566680339 0.415885571 0 0
2.206592 0.743729 4.024633 -0.711704121 -0.572703316 0.406802355 0 0
2.206863 0.743259 4.024377 -0.710999061 -0.623999176 0.324199572 0 0
2.206592 0.801871 4.014671 -0.713945405 -0.523833314 0.464629549 0 0
2.206863 0.801285 4.01452 -0.713806149 -0.393703392 0.57920499 0 0
2.206863 0.801678 4.014868 -0.713704518 -0.52770334 0.460602916 0 0
2.206592 0.801468 4.01431 -0.714182542 -0.4008902 0.573785974 0 0
2.206863 0.747479 4.01452 -0.713911387 0.393506276 0.579209238 0 0
2.206592 0.746893 4.014671 -0.714080841 0.52368595 0.464587535 0 0
2.206863 0.747086 4.014868 -0.713791235 0.527593521 0.460594344 0 0
2.206592 0.747296 4.01431 -0.714317397 0.400609757 0.573813975 0 0
2.206863 0.801285 4.020619 -0.713960416 -0.393478184 -0.579167889 0 0
2.206592 0.801871 4.020468 -0.714047666 -0.52366162 -0.464665944 0 0
2.206863 0.801678 4.020271 -0.713828893 -0.527521352 -0.460618644 0 0
2.206592 0.801468 4.020829 -0.714329763 -0.400716696 -0.573723905 0 0
2.206592 0.746893 4.020468 -0.713994431 0.523795914 -0.464596376 0 0
2.206863 0.747479 4.020619 -0.713687646 0.393793183 -0.579289973 0 0
2.206863 0.747086 4.020271 -0.71374218 0.527631181 -0.460627222 0 0
2.206592 0.747296 4.020829 -0.714133544 0.400918832 -0.573826953 0 0
2.206592 0.798291 4.012656 -0.709520371 -0.280808062 0.646318556 0 0
2.206863 0.797672 4.012728 -0.709601334 -0.177800334 0.681801282 0 0
2.206863 0.798178 4.012902 -0.709585422 -0.279794252 0.646686714 0 0
2.206592 0.79778 4.012473 -0.709792462 -0.18459804 0.679792781 0 0
2.206863 0.751092 4.012728 -0.709601334 0.177800334 0.681801282 0 0
2.206592 0.750473 4.012656 -0.709589945 0.280696023 0.646290842 0 0
2.206863 0.750586 4.012902 -0.709605272 0.279702078 0.646704805 0 0
2.206592 0.750984 4.012473 -0.709792462 0.18459804 0.679792781 0 0
2.206863 0.797672 4.022411 -0.70989535 -0.177798835 -0.681495536 0 0
2.206592 0.798291 4.022483 -0.710011694 -0.28050462 -0.645910638 0 0
2.206863 0.798178 4.022237 -0.710007153 -0.279602817 -0.646306512 0 0
2.206592 0.79778 4.022666 -0.710099109 -0.184499768 -0.679499147 0 0
2.206592 0.750473 4.022483 -0.709685445 0.280694243 -0.646186747 0 0
2.206863 0.751092 4.022411 -0.70979736 0.177799339 -0.681597464 0 0
2.206863 0.750586 4.022237 -0.709746692 0.279718402 -0.646542534 0 0
2.206592 0.750984 4.022666 -0.710001274 0.184500331 -0.67960122 0 0
2.206592 0.801269 4.006185 -0.711221248 0.500014938 -0.494114762 0 0
2.206863 0.800959 4.005566 -0.712631449 0.386717066 -0.585325831 0 0
2.206592 0.800845 4.005812 -0.713151128 0.395128328 -0.579041513 0 0
2.206863 0.801376 4.005896 -0.712701504 0.48320102 -0.508501073 0 0
2.206863 0.747805 4.005566 -0.712680662 -0.386689507 -0.585284119 0 0
2.206592 0.747495 4.006185 -0.71130622 -0.499904372 -0.494104321 0 0
2.206592 0.747919 4.005812 -0.713200267 -0.395100148 -0.579000217 0 0
2.206863 0.747389 4.005896 -0.712701504 -0.48320102 -0.508501073 0 0
2.206863 0.800959 4.029573 -0.712890027 0.386594592 0.585091815 0 0
2.206592 0.801269 4.028954 -0.711221248 0.500014938 0.494114762 0 0
2.206592 0.800845 4.029327 -0.713409274 0.395005135 0.578807525 0 0
2.206863 0.801376 4.029243 -0.712701504 0.48320102 0.508501073 0 0
2.206592 0.747495 4.028954 -0.711475707 -0.499782935 0.493983133 0 0
2.206863 0.747805 4.029573 -0.713008467 -0.38650459 0.585006947 0 0
2.206592 0.747919 4.029327 -0.713527846 -0.394915412 0.578722585 0 0
2.206863 0.747389 4.029243 -0.712906805 -0.483104611 0.508304852 0 0
2.206592 0.792473 4.001389 -0.70977618 0.294790107 -0.639778529 0 0
2.206863 0.792001 4.000919 -0.710553652 0.190887549 -0.677255824 0 0
2.206592 0.791958 4.001186 -0.710781037 0.196594755 -0.675381981 0 0
2.206863 0.792505 4.001099 -0.710385764 0.282594337 -0.644587083 0 0
2.206863 0.756764 4.000919 -0.710712956 -0.190803478 -0.677112344 0 0
2.206592 0.756291 4.001389 -0.709871201 -0.294788041 -0.639674049 0 0
2.206592 0.756806 4.001186 -0.710892482 -0.196497922 -0.675292859 0 0
2.206863 0.756259 4.001099 -0.710501155 -0.282500459 -0.644501047 0 0
2.206863 0.792001 4.03422 -0.710517699 0.190804753 0.677316872 0 0
2.206592 0.792473 4.033751 -0.710198026 0.294599181 0.639398222 0 0
2.206592 0.791958 4.033953 -0.710795007 0.19649862 0.675395255 0 0
2.206863 0.792505 4.03404 -0.710807094 0.282402818 0.644206429 0 0
2.206592 0.756291 4.033751 -0.710292989 -0.294597092 0.63929369 0 0
2.206863 0.756764 4.03422 -0.710615335 -0.190804118 0.677214614 0 0
2.206592 0.756806 4.033953 -0.710892482 -0.196497922 0.675292859 0 0
2.206863 0.756259 4.03404 -0.710902353 -0.282400935 0.644102132 0 0
2.206592 0.790908 4.011204 -0.707792172 -0.100798885 0.699192267 0 0
2.206863 0.790329 4.011417 -0.707678844 -0.0420987415 0.705278916 0 0
2.206863 0.790865 4.011472 -0.707813544 -0.100501923 0.69921338 0 0
2.206592 0.79037 4.011147 -0.707705113 -0.0445003215 0.705105094 0 0
2.206863 0.758435 4.011417 -0.707828576 0.0421016997 0.705128467 0 0
2.206592 0.757856 4.011204 -0.707891555 0.100798797 0.69909166 0 0
2.206863 0.757899 4.011472 -0.707920042 0.100402842 0.699119792 0 0
2.206592 0.758395 4.011147 -0.707804923 0.0445003095 0.705004903 0 0
2.206863 0.790329 4.023722 -0.708078039 -0.0420986943 -0.704878139 0 0
2.206592 0.790908 4.023935 -0.708189618 -0.100798522 -0.698789756 0 0
2.206863 0.790865 4.023667 -0.708218116 -0.100402568 -0.698817876 0 0
2.206592 0.79037 4.023992 -0.708107414 -0.0444004649 -0.704707378 0 0
2.206592 0.757856 4.023935 -0.708090278 0.100798616 -0.698890404 0 0
2.206863 0.758435 4.023722 -0.707978262 0.0420987074 -0.704978354 0 0
2.206863 0.757899 4.023667 -0.708118772 0.100402662 -0.698918529 0 0
2.206592 0.758395 4.023992 -0.708007647 0.0444004795 -0.704807612 0 0
2.206863 0.768821 4.011222 -0.70710245 0.00350001213 0.70710245 0 0
2.206592 0.768281 4.010957 -0.707319957 0.0102002878 0.706819943 0 0
2.206863 0.76828 4.011227 -0.707319232 0.0103002801 0.706819219 0 0
2.206592 0.768822 4.010952 -0.707102694 0.00340001295 0.707102694 0 0
2.206592 0.768281 4.024182 -0.707219258 0.0103002805 -0.70691925 0 0
2.206863 0.768821 4.023917 -0.707202443 0.00350001209 -0.707002443 0 0
2.206863 0.76828 4.023912 -0.707218526 0.0104002724 -0.706918518 0 0
2.206592 0.768822 4.024188 -0.707202443 0.00350001209 -0.707002443 0 0
2.206863 0.768879 3.998522 -0.708790031 -0.0361994909 -0.704490091 0 0
2.206592 0.768336 3.998853 -0.708897125 -0.109899554 -0.696697175 0 0
2.206592 0.768878 3.998792 -0.708839859 -0.0381021425 -0.704339606 0 0
2.206863 0.768343 3.998575 -0.709003928 -0.104600579 -0.697403864 0 0
2.206592 0.780428 4.036286 -0.708195043 0.10999923 0.697395118 0 0
2.206863 0.779885 4.036617 -0.708238979 0.0363019979 0.705038803 0 0
2.206863 0.780421 4.036564 -0.708252471 0.104692974 0.698153149 0 0
2.206592 0.779886 4.036347 -0.708288618 0.0381993861 0.704888673 0 0
2.206592 0.768336 4.036286 -0.708187249 -0.110098018 0.697387444 0 0
2.206863 0.768879 4.036617 -0.708288816 -0.0362994268 0.704988868 0 0
2.206592 0.768878 4.036347 -0.708285909 -0.038299238 0.704885976 0 0
2.206863 0.768343 4.036564 -0.708294497 -0.104799186 0.698094576 0 0
2.206863 0.780421 3.998575 -0.708989082 0.104798386 -0.69738926 0 0
2.206592 0.779886 3.998792 -0.708784517 0.0382991634 -0.704384613 0 0
2.206592 0.780428 3.998853 -0.70888153 0.110097131 -0.696681848 0 0
2.206863 0.779885 3.998522 -0.708784885 0.0363992238 -0.704484977 0 0
2.206863 0.780484 4.011227 -0.707319232 -0.0103002801 0.706819219 0 0
2.206592 0.779942 4.010952 -0.707102694 -0.00340001295 0.707102694 0 0
2.206863 0.779944 4.011222 -0.70710245 -0.00350001213 0.70710245 0 0
2.206592 0.780483 4.010957 -0.707319957 -0.0102002878 0.706819943 0 0
2.206592 0.779942 4.024188 -0.707302423 -0.00350001199 -0.706902421 0 0
2.206863 0.780484 4.023912 -0.7073185 -0.010400272 -0.706818487 0 0
2.206863 0.779944 4.023917 -0.707302423 -0.00350001199 -0.706902421 0 0
2.206592 0.780483 4.024182 -0.707369198 -0.0102995515 -0.706769224 0 0
2.212658 0.780484 4.023912 0.707319232 -0.0103002801 -0.706819219 0 0
2.212928 0.779942 4.024188 0.707302667 -0.00340001282 -0.706902665 0 0
2.212658 0.779944 4.023917 0.707302667 -0.00340001282 -0.706902665 0 0
2.212928 0.780483 4.024182 0.707319957 -0.0102002878 -0.706819943 0 0
2.212658 0.780484 4.011227 0.707219983 -0.0102002882 0.706919974 0 0
2.212928 0.779942 4.010952 0.707002687 -0.00340001292 0.707202687 0 0
2.212928 0.780483 4.010957 0.707219983 -0.0102002882 0.706919974 0 0
2.212658 0.779944 4.011222 0.707002687 -0.00340001292 0.707202687 0 0
2.212658 0.780421 3.998575 0.709088251 0.104798264 -0.697288446 0 0
2.212928 0.779886 3.998792 0.708884196 0.0382991461 -0.704284298 0 0
2.212658 0.779885 3.998522 0.708784885 0.0363992238 -0.704484977 0 0
2.212928 0.780428 3.998853 0.708930917 0.110104802 -0.696630381 0 0
2.212658 0.768879 4.036617 0.708388574 -0.0362994145 0.70488863 0 0
2.212928 0.768336 4.036286 0.708286475 -0.110097898 0.697286685 0 0
2.212928 0.768878 4.036347 0.708388368 -0.0381993728 0.704788427 0 0
2.212658 0.768343 4.036564 0.708401187 -0.104700175 0.698001169 0 0
2.212658 0.779885 4.036617 0.708288816 0.0362994268 0.704988868 0 0
2.212928 0.780428 4.036286 0.708187249 0.110098018 0.697387444 0 0
2.212658 0.780421 4.036564 0.708294497 0.104799186 0.698094576 0 0
2.212928 0.779886 4.036347 0.708288618 0.0381993861 0.704888673 0 0
2.212658 0.768879 3.998522 0.708787462 -0.0362993579 -0.704487538 0 0
2.212928 0.768336 3.998853 0.708889331 -0.109998345 -0.696689515 0 0
2.212658 0.768343 3.998575 0.709095678 -0.104699362 -0.69729575 0 0
2.212928 0.768878 3.998792 0.708886907 -0.0381992945 -0.704286992 0 0
2.212658 0.768821 4.023917 0.707302667 0.00340001282 -0.706902665 0 0
2.212928 0.768281 4.024182 0.707319957 0.0102002878 -0.706819943 0 0
2.212658 0.76828 4.023912 0.707319232 0.0103002801 -0.706819219 0 0
2.212928 0.768822 4.024188 0.707302667 0.00340001282 -0.706902665 0 0
2.212658 0.768821 4.011222 0.707202687 0.00340001292 0.707002687 0 0
2.212928 0.768281 4.010957 0.707419918 0.0102002872 0.706719898 0 0
2.212928 0.768822 4.010952 0.707202687 0.00340001292 0.707002687 0 0
2.212658 0.76828 4.011227 0.707369923 0.0101995663 0.706769949 0 0
2.212658 0.758435 4.023722 0.708083987 0.0418990525 -0.704884059 0 0
2.212928 0.757856 4.023935 0.708203881 0.100600551 -0.698803829 0 0
2.212658 0.757899 4.023667 0.708232324 0.100204573 -0.698831895 0 0
2.212928 0.758395 4.023992 0.708113688 0.0442008544 -0.704713622 0 0
2.212658 0.790329 4.023722 0.708186715 -0.0417992159 -0.704786778 0 0
2.212928 0.790908 4.023935 0.708310331 -0.100501466 -0.698710191 0 0
2.212928 0.79037 4.023992 0.708216569 -0.0441010318 -0.704616485 0 0
2.212658 0.790865 4.023667 0.708289255 -0.100098482 -0.698789399 0 0
2.212658 0.758435 4.011417 0.707884416 0.0418990776 0.705084478 0 0
2.212928 0.757856 4.011204 0.708012302 0.100501746 0.699012145 0 0
2.212928 0.758395 4.011147 0.707914137 0.0442008827 0.704914077 0 0
2.212658 0.757899 4.011472 0.707984124 0.100197753 0.699084323 0 0
2.212658 0.790329 4.011417 0.707784609 -0.0418990889 0.705184666 0 0
2.212928 0.790908 4.011204 0.707905812 -0.100600826 0.69910574 0 0
2.212658 0.790865 4.011472 0.707934244 -0.100204847 0.699133818 0 0
2.212928 0.79037 4.011147 0.70781434 -0.0442008955 0.705014284 0 0
2.212658 0.756764 4.03422 0.710490572 -0.190997465 0.677291012 0 0
2.212928 0.756291 4.033751 0.710222507 -0.294709339 0.63932026 0 0
2.212928 0.756806 4.033953 0.71076706 -0.196690885 0.675368701 0 0
2.212658 0.756259 4.03404 0.710787018 -0.28249484 0.644188234 0 0
2.212658 0.792001 4.03422 0.710601773 0.190900476 0.67720169 0 0
2.212928 0.792473 4.033751 0.710292989 0.294597092 0.63929369 0 0
2.212658 0.792505 4.03404 0.710902353 0.282400935 0.644102132 0 0
2.212928 0.791958 4.033953 0.710829042 0.196608033 0.675327591 0 0
2.212658 0.756764 4.000919 0.710538693 -0.191010402 -0.67723688 0 0
2.212928 0.756291 4.001389 0.709755255 -0.29488141 -0.639759668 0 0
2.212658 0.756259 4.001099 0.710316146 -0.282706426 -0.644614652 0 0
2.212928 0.756806 4.001186 0.710717576 -0.196704865 -0.675416703 0 0
2.212658 0.792001 4.000919 0.710636325 0.191009764 -0.677134613 0 0
2.212928 0.792473 4.001389 0.70980066 0.294900274 -0.639700595 0 0
2.212928 0.791958 4.001186 0.710864532 0.196690186 -0.675266308 0 0
2.212658 0.792505 4.001099 0.710461 0.282684482 -0.644464623 0 0
2.212658 0.747805 4.029573 0.712890027 -0.386594592 0.585091815 0 0
2.212928 0.747495 4.028954 0.711100249 -0.500300175 0.494000173 0 0
2.212928 0.747919 4.029327 0.713409274 -0.395005135 0.578807525 0 0
2.212658 0.747389 4.029243 0.712585189 -0.483489951 0.508389433 0 0
2.212658 0.800959 4.029573 0.712890027 0.386594592 0.585091815 0 0
2.212928 0.801269 4.028954 0.71122038 0.500214334 0.493914153 0 0
2.212658 0.801376 4.029243 0.712668853 0.483378874 0.508377782 0 0
2.212928 0.800845 4.029327 0.713409274 0.395005135 0.578807525 0 0
2.212658 0.747805 4.005566 0.712631449 -0.386717066 -0.585325831 0 0
2.212928 0.747495 4.006185 0.711100249 -0.500300175 -0.494000173 0 0
2.212658 0.747389 4.005896 0.712585189 -0.483489951 -0.508389433 0 0
2.212928 0.747919 4.005812 0.713151128 -0.395128328 -0.579041513 0 0
2.212658 0.800959 4.005566 0.712680662 0.386689507 -0.585284119 0 0
2.212928 0.801269 4.006185 0.711100249 0.500300175 -0.494000173 0 0
2.212928 0.800845 4.005812 0.713200267 0.395100148 -0.579000217 0 0
2.212658 0.801376 4.005896 0.71261964 0.483413323 -0.508414012 0 0
2.212658 0.751092 4.022411 0.709920581 0.177605149 -0.681519758 0 0
2.212928 0.750473 4.022483 0.710011694 0.28050462 -0.645910638 0 0
2.212658 0.750586 4.022237 0.710027003 0.27951063 -0.64632458 0 0
2.212928 0.750984 4.022666 0.710112207 0.18440317 -0.679511681 0 0
2.212658 0.797672 4.022411 0.709761596 -0.177690385 -0.681663116 0 0
2.212928 0.798291 4.022483 0.709705362 -0.28060212 -0.646204882 0 0
2.212928 0.79778 4.022666 0.709966118 -0.1843912 -0.679667564 0 0
2.212658 0.798178 4.022237 0.70972065 -0.279608135 -0.646618814 0 0
2.212658 0.751092 4.012728 0.709663588 0.177690883 0.68176502 0 0
2.212928 0.750473 4.012656 0.70960986 0.280603899 0.646308981 0 0
2.212928 0.750984 4.012473 0.709868266 0.184391757 0.679769612 0 0
2.212658 0.750586 4.012902 0.709605272 0.279702078 0.646704805 0 0
2.212658 0.797672 4.012728 0.709613948 -0.177703493 0.681813401 0 0
2.212928 0.798291 4.012656 0.70960986 -0.280603899 0.646308981 0 0
2.212658 0.798178 4.012902 0.709605272 -0.279702078 0.646704805 0 0
2.212928 0.79778 4.012473 0.709805561 -0.184501446 0.679805326 0 0
2.212658 0.747479 4.020619 0.713896534 0.393698089 -0.579097188 0 0
2.212928 0.746893 4.020468 0.714085054 0.523589041 -0.464690274 0 0
2.212658 0.747086 4.020271 0.71379601 0.527497051 -0.460697425 0 0
2.212928 0.747296 4.020829 0.714272505 0.400884568 -0.573677917 0 0
2.212658 0.801285 4.020619 0.713687646 -0.393793183 -0.579289973 0 0
2.212928 0.801871 4.020468 0.714085054 -0.523589041 -0.464690274 0 0
2.212928 0.801468 4.020829 0.714133544 -0.400918832 -0.573826953 0 0
2.212658 0.801678 4.020271 0.71379601 -0.527497051 -0.460697425 0 0
2.212658 0.747479 4.01452 0.713806149 0.393703392 0.57920499 0 0
2.212928 0.746893 4.014671 0.714036042 0.523626431 0.464723458 0 0
2.212928 0.747296 4.01431 0.714182542 0.4008902 0.573785974 0 0
2.212658 0.747086 4.014868 0.71379601 0.527497051 0.460697425 0 0
2.212658 0.801285 4.01452 0.713806149 -0.393703392 0.57920499 0 0
2.212928 0.801871 4.014671 0.714118235 -0.523613371 0.464611864 0 0
2.212658 0.801678 4.014868 0.713828893 -0.527521352 0.460618644 0 0
2.212928 0.801468 4.01431 0.714301136 -0.400800637 0.573700912 0 0
2.212658 0.743542 4.024831 0.710995361 -0.5670963 0.415797287 0 0
2.212928 0.743452 4.024138 0.709891222 -0.633592166 0.307596197 0 0
2.212928 0.743729 4.024633 0.711392954 -0.573094324 0.406795971 0 0
2.212658 0.743259 4.024377 0.710999061 -0.623999176 0.324199572 0 0
2.212658 0.805222 4.024831 0.711085121 0.566988136 0.4157913 0 0
2.212928 0.805312 4.024138 0.709985797 0.633487327 0.307593847 0 0
2.212658 0.805505 4.024377 0.711092868 0.623893742 0.324196748 0 0
2.212928 0.805035 4.024633 0.711483106 0.572986395 0.406790341 0 0
2.212658 0.743542 4.010308 0.710995361 -0.5670963 -0.415797287 0 0
2.212928 0.743452 4.011001 0.710007633 -0.63350681 -0.307503306 0 0
2.212658 0.743259 4.010762 0.711092868 -0.623893742 -0.324196748 0 0
2.212928 0.743729 4.010506 0.711392954 -0.573094324 -0.406795971 0 0
2.212658 0.805222 4.010308 0.710916341 0.567113035 -0.41590956 0 0
2.212928 0.805312 4.011001 0.709985797 0.633487327 -0.307593847 0 0
2.212928 0.805035 4.010506 0.711392954 0.573094324 -0.406795971 0 0
2.212658 0.805505 4.010762 0.711092868 0.623893742 -0.324196748 0 0
2.212658 0.741722 4.020727 0.710799996 -0.668399997 0.219099999 0 0
2.212928 0.741859 4.020125 0.710486526 -0.695186816 0.109197929 0 0
2.212928 0.741984 4.020652 0.710675088 -0.667876588 0.22109225 0 0
2.212658 0.741594 4.020208 0.71087238 -0.693673048 0.116095489 0 0
2.212658 0.807042 4.020727 0.710799996 0.668399997 0.219099999 0 0
2.212928 0.806905 4.020125 0.710486526 0.695186816 0.109197929 0 0
2.212658 0.80717 4.020208 0.710773599 0.69377423 0.116095688 0 0
2.212928 0.80678 4.020652 0.710690797 0.667891351 0.220997138 0 0
2.212658 0.741722 4.014412 0.710703003 -0.668502824 -0.219100926 0 0
2.212928 0.741859 4.015014 0.710387607 -0.695287871 -0.109198095 0 0
2.212658 0.741594 4.014931 0.710724115 -0.693823542 -0.116103939 0 0
2.212928 0.741984 4.014487 0.7106413 -0.667938818 -0.221012845 0 0
2.212658 0.807042 4.014412 0.710703003 0.668502824 -0.219100926 0 0
2.212928 0.806905 4.015014 0.710387607 0.695287871 -0.109198095 0 0
2.212928 0.80678 4.014487 0.71062559 0.667924052 -0.221107962 0 0
2.212658 0.80717 4.014931 0.710724115 0.693823542 -0.116103939 0 0
2.212658 0.746445 4.019335 0.711923117 0.615119973 -0.338811001 0 0
2.212928 0.745978 4.018922 0.711502697 0.67290255 -0.202400767 0 0
2.212658 0.746239 4.018847 0.711530863 0.672629176 -0.203208814 0 0
2.212928 0.74618 4.019426 0.71232173 0.620118917 -0.328710027 0 0
2.212658 0.802319 4.019335 0.711923117 -0.615119973 -0.338811001 0 0
2.212928 0.802786 4.018922 0.711502697 -0.67290255 -0.202400767 0 0
2.212928 0.802585 4.019426 0.71232173 -0.620118917 -0.328710027 0 0
2.212658 0.802525 4.018847 0.711483003 -0.67268393 -0.203195146 0 0
2.212658 0.746445 4.015804 0.711805876 0.615205079 0.338902798 0 0
2.212928 0.745978 4.016217 0.711599943 0.672799946 0.202399984 0 0
2.212928 0.74618 4.015713 0.712204871 0.620204242 0.328802249 0 0
2.212658 0.746239 4.016292 0.711580233 0.672581316 0.203194355 0 0
2.212658 0.802319 4.015804 0.711712743 -0.615311017 0.338906068 0 0
2.212928 0.802786 4.016217 0.711502697 -0.67290255 0.202400767 0 0
2.212658 0.802525 4.016292 0.711530863 -0.672629176 0.203208814 0 0
2.212928 0.802585 4.015713 0.712111415 -0.620309944 0.328805271 0 0
2.212658 0.746037 4.017835 0.71180647 0.698706351 -0.0717006518 0 0
2.212928 0.745762 4.017299 0.712101243 0.69890122 0.0667001164 0 0
2.212658 0.746037 4.017304 0.711905532 0.698605428 0.0717005571 0 0
2.212928 0.745762 4.01784 0.712002175 0.699002135 -0.0667002038 0 0
2.212658 0.802727 4.017835 0.711707395 -0.698807261 -0.071700745 0 0
2.212928 0.803002 4.017299 0.712002175 -0.699002135 0.0667002038 0 0
2.212928 0.803002 4.01784 0.711903093 -0.699103038 -0.0667002898 0 0
2.212658 0.802727 4.017304 0.711811571 -0.698711358 0.0716011639 0 0
2.212658 0.741394 4.017839 0.708004248 -0.705604234 0.0292001752 0 0
2.212928 0.741666 4.017299 0.707978931 -0.705579002 -0.0303990953 0 0
2.212928 0.741666 4.01784 0.707978931 -0.705579002 0.0303990953 0 0
2.212658 0.741394 4.0173 0.708004248 -0.705604234 -0.0292001752 0 0
2.212658 0.80737 4.017839 0.708004248 0.705604234 0.0292001752 0 0
2.212928 0.807099 4.017299 0.70792905 0.705628956 -0.0304012475 0 0
2.212658 0.80737 4.0173 0.708004248 0.705604234 -0.0292001752 0 0
2.212928 0.807099 4.01784 0.70792905 0.705628956 0.0304012475 0 0
2.206592 0.803002 4.017299 -1 0 0 0 0
2.206592 0.807099 4.017299 -1 0 0 0 0
2.206592 0.806905 4.015014 -1 0 0 0 0
2.206592 0.802786 4.016217 -1 0 0 0 0
3 0 1 2
3 0 3 1
3 4 5 6
3 4 7 5
3 8 9 10
3 8 11 9
3 12 13 14
3 12 15 13
3 16 17 18
3 16 19 17
3 20 21 22
3 20 23 21
3 24 25 26
3 24 27 25
3 28 29 30
3 28 31 29
3 32 33 34
3 32 35 33
3 36 37 38
3 36 39 37
3 40 41 42
3 40 43 41
3 44 45 46
3 44 47 45
3 48 49 50
3 48 51 49
3 52 53 54
3 52 55 53
3 56 57 58
3 56 59 57
3 60 61 62
3 60 63 61
3 64 65 66
3 64 67 65
3 68 69 70
3 68 71 69
3 72 73 74
3 72 75 73
3 76 77 78
3 76 79 77
3 80 81 82
3 80 83 81
3 84 85 86
3 84 87 85
3 88 89 90
3 88 91 89
3 92 93 94
3 92 95 93
3 96 97 98
3 96 99 97
3 100 101 102
3 100 103 101
3 104 105 106
3 104 107 105
3 108 109 110
3 108 111 109
3 112 113 114
3 112 115 113
3 116 117 118
3 116 119 117
3 120 121 122
3 120 123 121
3 124 125 126
3 124 127 125
3 128 129 130
3 128 131 129
3 132 133 134
3 132 135 133
3 136 137 138
3 136 139 137
3 140 141 142
3 140 143 141
3 144 145 146
3 144 147 145
3 148 149 150
3 148 151 149
3 152 153 154
3 152 155 153
3 156 157 158
3 156 159 157
3 160 161 162
3 160 163 161
3 164 165 166
3 164 167 165
3 168 169 170
3 168 171 169
3 172 173 174
3 172 175 173
3 176 177 178
3 176 179 177
3 180 181 182
3 180 183 181
3 184 185 186
3 184 187 185
3 188 189 190
3 188 191 189
3 192 193 194
3 192 195 193
3 196 197 198
3 196 199 197
3 200 201 202
3 200 203 201
3 204 205 206
3 204 207 205
3 208 209 210
3 208 211 209
3 212 213 214
3 212 215 213
3 216 217 218
3 216 219 217
3 220 221 222
3 220 223 221
3 224 225 226
3 224 227 225
3 228 229 230
3 228 231 229
3 232 233 234
3 232 235 233
3 236 237 238
3 236 239 237
3 240 241 242
3 240 243 241
3 244 245 246
3 244 247 245
3 248 249 250
3 248 251 249
3 252 253 254
3 252 255 253
3 256 257 258
3 256 259 257
3 260 261 262
3 260 263 261
3 264 265 266
3 264 267 265
3 268 269 270
3 268 271 269
3 272 273 274
3 272 275 273
3 276 277 278
3 276 279 277
3 280 281 282
3 280 283 281
3 284 285 286
3 284 287 285
3 288 289 290
3 288 291 289
3 292 293 294
3 292 295 293
3 296 297 298
3 296 299 297
3 300 301 302
3 300 303 301
3 304 305 306
3 304 307 305
3 308 309 310
3 308 311 309
3 312 313 314
3 312 315 313
3 316 317 318
3 316 319 317
3 320 321 322
3 320 323 321
3 324 325 326
3 324 327 325
3 328 329 330
3 328 331 329
3 332 333 334
3 332 335 333
3 336 337 338
3 336 339 337
3 340 341 342
3 340 343 341
3 344 345 346
3 344 347 345
3 348 349 350
3 348 351 349
3 352 353 354
3 352 355 353
3 356 357 358
3 356 359 357
3 360 361 362
3 360 363 361
3 364 365 366
3 364 367 365
3 368 369 370
3 368 371 369
3 372 373 374
3 372 375 373
3 376 377 378
3 376 379 377
3 380 381 382
3 380 383 381
3 384 385 386
3 384 387 385
3 388 389 390
3 388 391 389
3 392 393 394
3 392 395 393
3 396 397 398
3 396 399 397
3 400 401 402
3 400 403 401
3 404 405 406
3 404 407 405
3 408 409 410
3 408 411 409
3 412 413 414
3 412 415 413
3 416 417 418
3 416 419 417
3 420 421 422
3 420 423 421
3 424 425 426
3 424 427 425
3 428 429 430
3 428 431 429
3 432 433 434
3 432 435 433
3 436 437 438
3 436 439 437
3 440 441 442
3 440 443 441
3 444 445 446
3 444 447 445
3 448 449 450
3 448 451 449
3 452 453 454
3 452 455 453
3 456 457 458
3 456 459 457
3 460 461 462
3 460 463 461
3 464 465 466
3 464 467 465
3 468 469 470
3 468 471 469
3 472 473 474
3 472 475 473
3 476 477 478
3 476 479 477
3 480 481 482
3 480 483 481
3 484 485 486
3 484 487 485
3 488 489 490
3 488 491 489
3 492 493 494
3 492 495 493
3 496 497 498
3 496 499 497
3 500 501 502
3 500 503 501
3 504 505 506
3 504 507 505
3 508 509 510
3 508 511 509
3 512 513 514
3 512 515 513
3 516 517 518
3 516 519 517
3 520 521 522
3 520 523 521
3 524 525 526
3 524 527 525
3 528 529 530
3 528 531 529
3 532 533 534
3 532 535 533
3 536 537 538
3 536 539 537
3 540 541 542
3 540 543 541
3 544 545 546
3 544 547 545
3 548 549 550
3 548 551 549
3 552 553 554
3 552 555 553
3 556 557 558
3 556 559 557
3 560 561 562
3 560 563 561
3 564 565 566
3 564 567 565
3 568 569 570
3 568 571 569
3 572 573 574
3 572 575 573
3 576 577 578
3 576 579 577
3 580 581 582
3 580 583 581
3 584 585 586
3 584 587 585
3 588 589 590
3 588 591 589
3 592 593 594
3 592 595 593
3 596 597 598
3 596 599 597
3 600 601 602
3 600 603 601
3 604 605 606
3 604 607 605
3 608 609 610
3 608 611 609
3 612 613 614
3 612 615 613
3 616 617 618
3 616 619 617
3 620 621 622
3 620 623 621
3 624 625 626
3 624 627 625
3 628 629 630
3 628 631 629
3 632 633 634
3 632 635 633
3 636 637 638
3 636 639 637
3 640 641 642
3 640 643 641
3 644 645 646
3 644 647 645
3 648 649 650
3 648 651 649
3 652 653 654
3 652 655 653
3 656 657 658
3 656 659 657
3 660 661 662
3 660 663 661
3 664 665 666
3 664 667 665
3 668 669 670
3 668 671 669
3 672 673 674
3 672 675 673
3 676 677 678
3 676 679 677
3 680 681 682
3 680 683 681
3 684 685 686
3 684 687 685
3 688 689 690
3 688 691 689
3 692 693 694
3 692 695 693
3 696 697 698
3 696 699 697
3 244 700 247
3 244 701 700
3 13 239 14
3 13 237 239
3 359 364 366
3 359 356 364
3 361 370 369
3 361 363 370
3 358 374 373
3 358 357 374
3 360 376 378
3 360 362 376
3 250 702 248
3 250 703 702
3 12 229 15
3 12 230 229
3 245 225 246
3 245 226 225
3 222 238 220
3 222 236 238
3 349 383 380
3 349 351 383
3 355 385 387
3 355 352 385
3 348 389 391
3 348 350 389
3 354 395 392
3 354 353 395
3 365 412 414
3 365 367 412
3 371 418 417
3 371 368 418
3 375 422 421
3 375 372 422
3 377 424 426
3 377 379 424
3 251 202 249
3 251 200 202
3 181 228 182
3 181 231 228
3 177 224 178
3 177 227 224
3 223 174 221
3 223 172 174
3 382 399 396
3 382 381 399
3 384 401 403
3 384 386 401
3 388 405 407
3 388 390 405
3 394 411 408
3 394 393 411
3 413 428 430
3 413 415 428
3 419 434 433
3 419 416 434
3 423 438 437
3 423 420 438
3 425 440 442
3 425 427 440
3 186 203 184
3 186 201 203
3 180 165 183
3 180 166 165
3 176 161 179
3 176 162 161
3 158 175 156
3 158 173 175
3 398 447 444
3 398 397 447
3 400 449 451
3 400 402 449
3 404 453 455
3 404 406 453
3 410 459 456
3 410 409 459
3 429 476 478
3 429 431 476
3 435 482 481
3 435 432 482
3 439 486 485
3 439 436 486
3 441 488 490
3 441 443 488
3 187 138 185
3 187 136 138
3 101 164 102
3 101 167 164
3 125 160 126
3 125 163 160
3 159 122 157
3 159 120 122
3 446 463 460
3 446 445 463
3 448 465 467
3 448 450 465
3 452 469 471
3 452 454 469
3 458 475 472
3 458 457 475
3 483 494 493
3 483 480 494
3 489 496 498
3 489 491 496
3 100 129 103
3 100 130 129
3 114 123 112
3 114 121 123
3 464 501 503
3 464 466 501
3 468 504 506
3 468 470 504
3 474 511 508
3 474 473 511
3 495 518 517
3 495 492 518
3 497 520 522
3 497 499 520
3 139 128 137
3 139 131 128
3 500 513 515
3 500 502 513
3 462 512 514
3 462 461 512
3 477 519 516
3 477 479 519
3 505 510 509
3 505 507 510
3 115 124 113
3 115 127 124
3 487 521 523
3 487 484 521
3 84 133 87
3 84 134 133
3 527 560 562
3 527 524 560
3 132 57 135
3 132 58 57
3 72 105 75
3 72 106 105
3 536 543 540
3 536 538 543
3 104 77 107
3 104 78 77
3 48 117 51
3 48 118 117
3 528 571 568
3 528 530 571
3 116 81 119
3 116 82 81
3 108 65 111
3 108 66 65
3 535 584 586
3 535 532 584
3 64 153 67
3 64 154 153
3 68 109 71
3 68 110 109
3 534 547 544
3 534 533 547
3 88 85 91
3 88 86 85
3 526 551 548
3 526 525 551
3 529 552 554
3 529 531 552
3 80 97 83
3 80 98 97
3 537 572 574
3 537 539 572
3 76 141 79
3 76 142 141
3 144 73 147
3 144 74 73
3 542 579 576
3 542 541 579
3 148 69 151
3 148 70 69
3 546 583 580
3 546 545 583
3 60 89 63
3 60 90 89
3 550 559 556
3 550 549 559
3 553 564 566
3 553 555 564
3 96 53 99
3 96 54 53
3 573 588 590
3 573 575 588
3 140 45 143
3 140 46 45
3 40 145 43
3 40 146 145
3 578 595 592
3 578 577 595
3 36 149 39
3 36 150 149
3 582 599 596
3 582 581 599
3 585 600 602
3 585 587 600
3 152 33 155
3 152 34 33
3 188 61 191
3 188 62 61
3 558 607 604
3 558 557 607
3 561 608 610
3 561 563 608
3 56 193 59
3 56 194 193
3 565 612 614
3 565 567 612
3 52 197 55
3 52 198 197
3 168 49 171
3 168 50 49
3 570 619 616
3 570 569 619
3 589 636 638
3 589 591 636
3 44 205 47
3 44 206 205
3 208 41 211
3 208 42 41
3 594 643 640
3 594 593 643
3 212 37 215
3 212 38 37
3 598 647 644
3 598 597 647
3 601 648 650
3 601 603 648
3 32 217 35
3 32 218 217
3 28 189 31
3 28 190 189
3 606 623 620
3 606 605 623
3 609 624 626
3 609 611 624
3 192 25 195
3 192 26 25
3 613 628 630
3 613 615 628
3 196 21 199
3 196 22 21
3 16 169 19
3 16 170 169
3 618 635 632
3 618 617 635
3 637 652 654
3 637 639 652
3 204 5 207
3 204 6 5
3 8 209 11
3 8 210 209
3 642 659 656
3 642 641 659
3 232 213 235
3 232 214 213
3 646 663 660
3 646 645 663
3 649 664 666
3 649 651 664
3 216 1 219
3 216 2 1
3 256 29 259
3 256 30 29
3 622 671 668
3 622 621 671
3 625 672 674
3 625 627 672
3 24 241 27
3 24 242 241
3 629 676 678
3 629 631 676
3 20 261 23
3 20 262 261
3 252 17 255
3 252 18 17
3 634 683 680
3 634 633 683
3 653 692 694
3 653 655 692
3 4 233 7
3 4 234 233
3 0 9 3
3 0 10 9
3 658 699 696
3 658 657 699
3 662 693 695
3 662 661 693
3 665 698 697
3 665 667 698
3 260 257 263
3 260 258 257
3 670 687 684
3 670 669 687
3 673 688 690
3 673 675 688
3 240 253 243
3 240 254 253
3 677 686 685
3 677 679 686
3 682 689 691
3 682 681 689
3 275 265 273
3 275 266 265
3 281 264 282
3 281 267 264
3 270 276 268
3 270 279 276
3 271 286 269
3 271 284 286
3 274 290 272
3 274 288 290
3 293 277 294
3 293 278 277
3 280 297 283
3 280 298 297
3 302 287 300
3 302 285 287
3 306 291 304
3 306 289 291
3 292 309 295
3 292 310 309
3 313 296 314
3 313 299 296
3 303 318 301
3 303 316 318
3 307 322 305
3 307 320 322
3 329 308 330
3 329 311 308
3 312 333 315
3 312 334 333
3 338 319 336
3 338 317 319
3 346 323 344
3 346 321 323
3 328 341 331
3 328 342 341
3 332 327 335
3 332 325 327
3 339 326 337
3 339 324 326
3 92 347 95
3 92 345 347
3 93 340 94
3 93 343 340
3 701 703 700
3 701 702 703
