ply
format ascii 1.0
element vertex 6
property float x
property float y
property float z
property float nx
property float ny
property float nz
property float u
property float v
element face 2
property list uchar int vertex_indices
end_header
2.436209 1.662188 3.754145 -0.999944157 -0.010567974 0 0.984943 0.989385
2.4387 1.426489 3.914942 -0.999944157 -0.010567974 0 0.013892 0.011015
2.436209 1.662188 3.914942 -0.999944157 -0.010567974 0 0.013892 0.989385
2.436209 1.662188 3.754145 -0.999944157 -0.010567974 0 0.984943 0.989385
2.4387 1.426489 3.754145 -0.999944157 -0.010567974 0 0.984944 0.011015
2.4387 1.426489 3.914942 -0.999944157 -0.010567974 0 0.013892 0.011015
3 0 1 2
3 3 4 5
