ply
format ascii 1.0
element vertex 384
property float x
property float y
property float z
property float nx
property float ny
property float nz
property float u
property float v
element face 128
property list uchar int vertex_indices
end_header
2.433949 1.676112 3.927745 0 0 -1 0 0
2.440392 1.412907 3.927745 0 0 -1 0 0
2.436731 1.412869 3.927745 0 0 -1 0 0
2.433949 1.676112 3.927745 0 0 -1 0 0
2.43761 1.67615 3.927745 0 0 -1 0 0
2.440392 1.412907 3.927745 0 0 -1 0 0
2.436731 1.412869 3.741342 0 -0 1 0 0
2.43761 1.67615 3.741342 0 -0 1 0 0
2.433949 1.676111 3.741342 0 -0 1 0 0
2.436731 1.412869 3.741342 0 0 1 0 0
2.440392 1.412907 3.741342 0 0 1 0 0
2.43761 1.67615 3.741342 0 0 1 0 0
2.433944 1.676611 3.741842 0.0103791186 -0.999946135 5.39336545e-06 0 0
2.437605 1.67665 3.927245 0.0103791186 -0.999946135 5.39336545e-06 0 0
2.433944 1.676612 3.927245 0.0103791186 -0.999946135 5.39336545e-06 0 0
2.433944 1.676611 3.741842 0.0106522227 -0.999943263 0 0 0
2.437605 1.67665 3.741842 0.0106522227 -0.999943263 0 0 0
2.437605 1.67665 3.927245 0.0106522227 -0.999943263 0 0 0
2.436737 1.412369 3.927245 -0.0103791186 0.999946135 0 0 0
2.440398 1.412407 3.741842 -0.0103791186 0.999946135 0 0 0
2.436737 1.412369 3.741842 -0.0103791186 0.999946135 0 0 0
2.436737 1.412369 3.927245 -0.0103791186 0.999946135 0 0 0
2.440398 1.412407 3.927245 -0.0103791186 0.999946135 0 0 0
2.440398 1.412407 3.741842 -0.0103791186 0.999946135 0 0 0
2.43426 1.661955 3.75473 0 0 -1 0 0
2.440082 1.427064 3.75473 0 0 -1 0 0
2.436743 1.427029 3.75473 0 0 -1 0 0
2.43426 1.661955 3.75473 0 0 -1 0 0
2.437599 1.66199 3.75473 0 0 -1 0 0
2.440082 1.427064 3.75473 0 0 -1 0 0
2.440591 1.426768 3.75423 -0.999872267 -0.0105667928 -0.0119913562 0 0
2.438112 1.675399 3.741842 -0.999872267 -0.0105667928 -0.0119913562 0 0
2.440878 1.413669 3.741842 -0.999872267 -0.0105667928 -0.0119913562 0 0
2.440591 1.426768 3.75423 -0.999872378 -0.0105663521 -0.0119824886 0 0
2.438102 1.662297 3.75423 -0.999872378 -0.0105663521 -0.0119824886 0 0
2.438112 1.675399 3.741842 -0.999872378 -0.0105663521 -0.0119824886 0 0
2.436743 1.427029 3.914356 0 -0 1 0 0
2.437599 1.66199 3.914356 0 -0 1 0 0
2.43426 1.661955 3.914356 0 -0 1 0 0
2.436743 1.427029 3.914356 0 0 1 0 0
2.440082 1.427064 3.914356 0 0 1 0 0
2.437599 1.66199 3.914356 0 0 1 0 0
2.436748 1.426529 3.755231 0.0104816045 -0.999945066 0 0 0
2.440087 1.426564 3.913856 0.0104816045 -0.999945066 0 0 0
2.436748 1.426529 3.913856 0.0104816045 -0.999945066 0 0 0
2.436748 1.426529 3.755231 0.0104816045 -0.999945066 0 0 0
2.440087 1.426564 3.755231 0.0104816045 -0.999945066 0 0 0
2.440087 1.426564 3.913856 0.0104816045 -0.999945066 0 0 0
2.434255 1.662455 3.913856 -0.0104816045 0.999945066 0 0 0
2.437594 1.66249 3.75523 -0.0104816045 0.999945066 0 0 0
2.434255 1.662455 3.75523 -0.0104816045 0.999945066 0 0 0
2.434255 1.662455 3.913856 -0.0104816045 0.999945066 0 0 0
2.437594 1.66249 3.913856 -0.0104816045 0.999945066 0 0 0
2.437594 1.66249 3.75523 -0.0104816045 0.999945066 0 0 0
2.433455 1.676106 3.926584 0.999758809 0.021961865 0 0 0
2.433744 1.66295 3.754946 0.999758809 0.021961865 0 0 0
2.433455 1.676106 3.742503 0.999758809 0.021961865 0 0 0
2.433455 1.676106 3.926584 0.999758809 0.021961865 0 0 0
2.433744 1.66295 3.91414 0.999758809 0.021961865 0 0 0
2.433744 1.66295 3.754946 0.999758809 0.021961865 0 0 0
2.436237 1.412863 3.742503 0.999999651 -0.000835865969 0 0 0
2.436248 1.426023 3.914141 0.999999651 -0.000835865969 0 0 0
2.436237 1.412863 3.926584 0.999999651 -0.000835865969 0 0 0
2.436237 1.412863 3.742503 0.999999651 -0.000835865969 0 0 0
2.436248 1.426023 3.754946 0.999999651 -0.000835865969 0 0 0
2.436248 1.426023 3.914141 0.999999651 -0.000835865969 0 0 0
2.436229 1.41362 3.927245 0.999871308 0.0105667827 0.0120710832 0 0
2.433751 1.662251 3.914856 0.999871308 0.0105667827 0.0120710832 0 0
2.433463 1.67535 3.927245 0.999871308 0.0105667827 0.0120710832 0 0
2.436229 1.41362 3.927245 0.999871419 0.010566342 0.0120622164 0 0
2.43624 1.426722 3.914856 0.999871419 0.010566342 0.0120622164 0 0
2.433751 1.662251 3.914856 0.999871419 0.010566342 0.0120622164 0 0
2.440598 1.426069 3.914141 -0.999758809 -0.021961865 0 0 0
2.440887 1.412913 3.742503 -0.999758809 -0.021961865 0 0 0
2.440887 1.412913 3.926584 -0.999758809 -0.021961865 0 0 0
2.440598 1.426069 3.914141 -0.999758809 -0.021961865 -0 0 0
2.440598 1.426069 3.754946 -0.999758809 -0.021961865 -0 0 0
2.440887 1.412913 3.742503 -0.999758809 -0.021961865 -0 0 0
2.438094 1.662996 3.754946 -0.999999651 0.000835925196 -4.54107266e-09 0 0
2.438105 1.676156 3.926584 -0.999999651 0.000835925196 -4.54107266e-09 0 0
2.438105 1.676155 3.742503 -0.999999651 0.000835925196 -4.54107266e-09 0 0
2.438094 1.662996 3.754946 -0.999999651 0.000835865969 0 0 0
2.438094 1.662996 3.91414 -0.999999651 0.000835865969 0 0 0
2.438105 1.676156 3.926584 -0.999999651 0.000835865969 0 0 0
2.438102 1.662297 3.914856 -0.999872379 -0.010566794 0.0119819888 0 0
2.440878 1.413669 3.927245 -0.999872379 -0.010566794 0.0119819888 0 0
2.438112 1.675399 3.927245 -0.999872379 -0.010566794 0.0119819888 0 0
2.438102 1.662297 3.914856 -0.999872278 -0.0105663511 0.0119908557 0 0
2.440591 1.426768 3.914856 -0.999872278 -0.0105663511 0.0119908557 0 0
2.440878 1.413669 3.927245 -0.999872278 -0.0105663511 0.0119908557 0 0
2.433944 1.676611 3.741842 0.877487808 -0.334711844 0.343486722 0 0
2.433463 1.67535 3.741842 0.877487808 -0.334711844 0.343486722 0 0
2.433949 1.676111 3.741342 0.877487808 -0.334711844 0.343486722 0 0
2.433944 1.676611 3.741842 0.86177035 -0.328716525 0.3863901 0 0
2.433455 1.676106 3.742503 0.86177035 -0.328716525 0.3863901 0 0
2.433463 1.67535 3.741842 0.86177035 -0.328716525 0.3863901 0 0
2.436731 1.412869 3.741342 0.852374834 0.374847147 0.364618649 0 0
2.436237 1.412863 3.742503 0.852374834 0.374847147 0.364618649 0 0
2.436737 1.412369 3.741842 0.852374834 0.374847147 0.364618649 0 0
2.436731 1.412869 3.741342 0.867087805 0.332819179 0.370661749 0 0
2.436229 1.41362 3.741842 0.867087805 0.332819179 0.370661749 0 0
2.436237 1.412863 3.742503 0.867087805 0.332819179 0.370661749 0 0
2.436237 1.412863 3.926584 0.852374834 0.374847147 -0.364618649 0 0
2.436731 1.412869 3.927745 0.852374834 0.374847147 -0.364618649 0 0
2.436737 1.412369 3.927245 0.852374834 0.374847147 -0.364618649 0 0
2.436237 1.412863 3.926584 0.867087805 0.332819179 -0.370661749 0 0
2.436229 1.41362 3.927245 0.867087805 0.332819179 -0.370661749 0 0
2.436731 1.412869 3.927745 0.867087805 0.332819179 -0.370661749 0 0
2.433949 1.676112 3.927745 0.860631546 -0.35574983 -0.364356145 0 0
2.433455 1.676106 3.926584 0.860631546 -0.35574983 -0.364356145 0 0
2.433944 1.676612 3.927245 0.860631546 -0.35574983 -0.364356145 0 0
2.433949 1.676112 3.927745 0.874058757 -0.314503012 -0.370282522 0 0
2.433463 1.67535 3.927245 0.874058757 -0.314503012 -0.370282522 0 0
2.433455 1.676106 3.926584 0.874058757 -0.314503012 -0.370282522 0 0
2.433751 1.662251 3.914856 0.734846325 0.488887518 0.470095601 0 0
2.434255 1.662455 3.913856 0.734846325 0.488887518 0.470095601 0 0
2.433744 1.66295 3.91414 0.734846325 0.488887518 0.470095601 0 0
2.433751 1.662251 3.914856 0.74102208 0.478499182 0.471088961 0 0
2.43426 1.661955 3.914356 0.74102208 0.478499182 0.471088961 0 0
2.434255 1.662455 3.913856 0.74102208 0.478499182 0.471088961 0 0
2.43624 1.426722 3.914856 0.750783812 -0.46330897 0.470816808 0 0
2.436748 1.426529 3.913856 0.750783812 -0.46330897 0.470816808 0 0
2.436743 1.427029 3.914356 0.750783812 -0.46330897 0.470816808 0 0
2.43624 1.426722 3.914856 0.745753555 -0.47220003 0.469977412 0 0
2.436248 1.426023 3.914141 0.745753555 -0.47220003 0.469977412 0 0
2.436748 1.426529 3.913856 0.745753555 -0.47220003 0.469977412 0 0
2.43624 1.426722 3.75423 0.745817911 -0.472479341 -0.469594417 0 0
2.436748 1.426529 3.755231 0.745817911 -0.472479341 -0.469594417 0 0
2.436248 1.426023 3.754946 0.745817911 -0.472479341 -0.469594417 0 0
2.43624 1.426722 3.75423 0.750707391 -0.463844723 -0.470410975 0 0
2.436743 1.427029 3.75473 0.750707391 -0.463844723 -0.470410975 0 0
2.436748 1.426529 3.755231 0.750707391 -0.463844723 -0.470410975 0 0
2.433744 1.66295 3.754946 0.739942984 0.484930752 -0.466182953 0 0
2.43426 1.661955 3.75473 0.739942984 0.484930752 -0.466182953 0 0
2.433751 1.662251 3.75423 0.739942984 0.484930752 -0.466182953 0 0
2.433744 1.66295 3.754946 0.733809569 0.484031719 -0.476693623 0 0
2.434255 1.662455 3.75523 0.733809569 0.484031719 -0.476693623 0 0
2.43426 1.661955 3.75473 0.733809569 0.484031719 -0.476693623 0 0
2.437599 1.66199 3.75473 -0.749931946 0.469139527 -0.466379868 0 0
2.438094 1.662996 3.754946 -0.749931946 0.469139527 -0.466379868 0 0
2.438102 1.662297 3.75423 -0.749931946 0.469139527 -0.466379868 0 0
2.437599 1.66199 3.75473 -0.744371441 0.468445197 -0.475888911 0 0
2.437594 1.66249 3.75523 -0.744371441 0.468445197 -0.475888911 0 0
2.438094 1.662996 3.754946 -0.744371441 0.468445197 -0.475888911 0 0
2.440087 1.426564 3.755231 -0.735269872 -0.488560989 -0.469772685 0 0
2.440591 1.426768 3.75423 -0.735269872 -0.488560989 -0.469772685 0 0
2.440598 1.426069 3.754946 -0.735269872 -0.488560989 -0.469772685 0 0
2.440087 1.426564 3.755231 -0.740934444 -0.479033904 -0.470683193 0 0
2.440082 1.427064 3.75473 -0.740934444 -0.479033904 -0.470683193 0 0
2.440591 1.426768 3.75423 -0.740934444 -0.479033904 -0.470683193 0 0
2.440087 1.426564 3.913856 -0.74102208 -0.478499182 0.471088961 0 0
2.440591 1.426768 3.914856 -0.74102208 -0.478499182 0.471088961 0 0
2.440082 1.427064 3.914356 -0.74102208 -0.478499182 0.471088961 0 0
2.440087 1.426564 3.913856 -0.735211533 -0.488280198 0.470155773 0 0
2.440598 1.426069 3.914141 -0.735211533 -0.488280198 0.470155773 0 0
2.440591 1.426768 3.914856 -0.735211533 -0.488280198 0.470155773 0 0
2.437594 1.66249 3.913856 -0.745401736 0.472814899 0.469917358 0 0
2.438102 1.662297 3.914856 -0.745401736 0.472814899 0.469917358 0 0
2.438094 1.662996 3.91414 -0.745401736 0.472814899 0.469917358 0 0
2.437594 1.66249 3.913856 -0.750783812 0.46330897 0.470816808 0 0
2.437599 1.66199 3.914356 -0.750783812 0.46330897 0.470816808 0 0
2.438102 1.662297 3.914856 -0.750783812 0.46330897 0.470816808 0 0
2.43761 1.67615 3.927745 -0.866991266 -0.33228665 -0.371364683 0 0
2.438105 1.676156 3.926584 -0.866991266 -0.33228665 -0.371364683 0 0
2.438112 1.675399 3.927245 -0.866991266 -0.33228665 -0.371364683 0 0
2.43761 1.67615 3.927745 -0.852459327 -0.373908588 -0.365383995 0 0
2.437605 1.67665 3.927245 -0.852459327 -0.373908588 -0.365383995 0 0
2.438105 1.676156 3.926584 -0.852459327 -0.373908588 -0.365383995 0 0
2.440392 1.412907 3.927745 -0.860695372 0.354801201 -0.365129545 0 0
2.440887 1.412913 3.926584 -0.860695372 0.354801201 -0.365129545 0 0
2.440398 1.412407 3.927245 -0.860695372 0.354801201 -0.365129545 0 0
2.440392 1.412907 3.927745 -0.873950191 0.313968332 -0.370991847 0 0
2.440878 1.413669 3.927245 -0.873950191 0.313968332 -0.370991847 0 0
2.440887 1.412913 3.926584 -0.873950191 0.313968332 -0.370991847 0 0
2.440392 1.412907 3.741342 -0.873950191 0.313968332 0.370991847 0 0
2.440887 1.412913 3.742503 -0.873950191 0.313968332 0.370991847 0 0
2.440878 1.413669 3.741842 -0.873950191 0.313968332 0.370991847 0 0
2.440392 1.412907 3.741342 -0.860695372 0.354801201 0.365129545 0 0
2.440398 1.412407 3.741842 -0.860695372 0.354801201 0.365129545 0 0
2.440887 1.412913 3.742503 -0.860695372 0.354801201 0.365129545 0 0
2.437605 1.67665 3.741842 -0.854545911 -0.34632676 0.387051754 0 0
2.438112 1.675399 3.741842 -0.854545911 -0.34632676 0.387051754 0 0
2.438105 1.676155 3.742503 -0.854545911 -0.34632676 0.387051754 0 0
2.437605 1.67665 3.741842 -0.870226314 -0.352681648 0.343979385 0 0
2.43761 1.67615 3.741342 -0.870226314 -0.352681648 0.343979385 0 0
2.438112 1.675399 3.741842 -0.870226314 -0.352681648 0.343979385 0 0
2.436737 1.412369 3.741842 0.702825727 0.711362072 -0 0 0
2.436237 1.412863 3.926584 0.702825727 0.711362072 -0 0 0
2.436737 1.412369 3.927245 0.702825727 0.711362072 -0 0 0
2.436737 1.412369 3.741842 0.702825727 0.711362072 0 0 0
2.436237 1.412863 3.742503 0.702825727 0.711362072 0 0 0
2.436237 1.412863 3.926584 0.702825727 0.711362072 0 0 0
2.433949 1.676111 3.741342 0.711296975 0.00751714462 0.702851411 0 0
2.436229 1.41362 3.741842 0.711296975 0.00751714462 0.702851411 0 0
2.436731 1.412869 3.741342 0.711296975 0.00751714462 0.702851411 0 0
2.433949 1.676111 3.741342 0.711311845 0.00751724511 0.702836361 0 0
2.433463 1.67535 3.741842 0.711311845 0.00751724511 0.702836361 0 0
2.436229 1.41362 3.741842 0.711311845 0.00751724511 0.702836361 0 0
2.433455 1.676106 3.742503 0.719083056 -0.694924139 0 0 0
2.433944 1.676612 3.927245 0.719083056 -0.694924139 0 0 0
2.433455 1.676106 3.926584 0.719083056 -0.694924139 0 0 0
2.433455 1.676106 3.742503 0.718398174 -0.695632133 3.75200041e-06 0 0
2.433944 1.676611 3.741842 0.718398174 -0.695632133 3.75200041e-06 0 0
2.433944 1.676612 3.927245 0.718398174 -0.695632133 3.75200041e-06 0 0
2.436731 1.412869 3.927745 0.711304307 0.00751719356 -0.70284399 0 0
2.433463 1.67535 3.927245 0.711304307 0.00751719356 -0.70284399 0 0
2.433949 1.676112 3.927745 0.711304307 0.00751719356 -0.70284399 0 0
2.436731 1.412869 3.927745 0.711296932 0.00751708751 -0.702851455 0 0
2.436229 1.41362 3.927245 0.711296932 0.00751708751 -0.702851455 0 0
2.433463 1.67535 3.927245 0.711296932 0.00751708751 -0.702851455 0 0
2.433455 1.676106 3.926584 0.999849946 0.0162262411 0.00606591184 0 0
2.433751 1.662251 3.914856 0.999849946 0.0162262411 0.00606591184 0 0
2.433744 1.66295 3.91414 0.999849946 0.0162262411 0.00606591184 0 0
2.433455 1.676106 3.926584 0.999851436 0.0160579558 0.00626475507 0 0
2.433463 1.67535 3.927245 0.999851436 0.0160579558 0.00626475507 0 0
2.433751 1.662251 3.914856 0.999851436 0.0160579558 0.00626475507 0 0
2.43426 1.661955 3.914356 0.702685553 0.00742688433 0.711461773 0 0
2.43624 1.426722 3.914856 0.702685553 0.00742688433 0.711461773 0 0
2.436743 1.427029 3.914356 0.702685553 0.00742688433 0.711461773 0 0
2.43426 1.661955 3.914356 0.702947543 0.0074285393 0.711202903 0 0
2.433751 1.662251 3.914856 0.702947543 0.0074285393 0.711202903 0 0
2.43624 1.426722 3.914856 0.702947543 0.0074285393 0.711202903 0 0
2.436229 1.41362 3.927245 0.99996772 0.00506128574 0.00624042381 0 0
2.436248 1.426023 3.914141 0.99996772 0.00506128574 0.00624042381 0 0
2.43624 1.426722 3.914856 0.99996772 0.00506128574 0.00624042381 0 0
2.436229 1.41362 3.927245 0.999967374 0.00509269369 0.00627015109 0 0
2.436237 1.412863 3.926584 0.999967374 0.00509269369 0.00627015109 0 0
2.436248 1.426023 3.914141 0.999967374 0.00509269369 0.00627015109 0 0
2.433463 1.67535 3.741842 0.999849713 0.0162367457 -0.00607616933 0 0
2.433744 1.66295 3.754946 0.999849713 0.0162367457 -0.00607616933 0 0
2.433751 1.662251 3.75423 0.999849713 0.0162367457 -0.00607616933 0 0
2.433463 1.67535 3.741842 0.999851651 0.0160486941 -0.00625415961 0 0
2.433455 1.676106 3.742503 0.999851651 0.0160486941 -0.00625415961 0 0
2.433744 1.66295 3.754946 0.999851651 0.0160486941 -0.00625415961 0 0
2.433744 1.66295 3.91414 0.695772556 0.718262174 0 0 0
2.434255 1.662455 3.75523 0.695772556 0.718262174 0 0 0
2.433744 1.66295 3.754946 0.695772556 0.718262174 0 0 0
2.433744 1.66295 3.91414 0.695772556 0.718262174 0 0 0
2.434255 1.662455 3.913856 0.695772556 0.718262174 0 0 0
2.434255 1.662455 3.75523 0.695772556 0.718262174 0 0 0
2.436237 1.412863 3.742503 0.999967771 0.00505871677 -0.00623421669 0 0
2.43624 1.426722 3.75423 0.999967771 0.00505871677 -0.00623421669 0 0
2.436248 1.426023 3.754946 0.999967771 0.00505871677 -0.00623421669 0 0
2.436237 1.412863 3.742503 0.999967371 0.00509088042 -0.00627222767 0 0
2.436229 1.41362 3.741842 0.999967371 0.00509088042 -0.00627222767 0 0
2.43624 1.426722 3.75423 0.999967371 0.00509088042 -0.00627222767 0 0
2.436743 1.427029 3.75473 0.702947866 0.0074296568 -0.711202571 0 0
2.433751 1.662251 3.75423 0.702947866 0.0074296568 -0.711202571 0 0
2.43426 1.661955 3.75473 0.702947866 0.0074296568 -0.711202571 0 0
2.436743 1.427029 3.75473 0.702685901 0.00742577435 -0.711461442 0 0
2.43624 1.426722 3.75423 0.702685901 0.00742577435 -0.711461442 0 0
2.433751 1.662251 3.75423 0.702685901 0.00742577435 -0.711461442 0 0
2.436748 1.426529 3.913856 0.711311467 -0.702876943 0 0 0
2.436248 1.426023 3.754946 0.711311467 -0.702876943 0 0 0
2.436748 1.426529 3.755231 0.711311467 -0.702876943 0 0 0
2.436748 1.426529 3.913856 0.711311467 -0.702876943 0 0 0
2.436248 1.426023 3.914141 0.711311467 -0.702876943 0 0 0
2.436248 1.426023 3.754946 0.711311467 -0.702876943 0 0 0
2.436743 1.427029 3.914356 0.00741142875 -0.707050302 0.707124417 0 0
2.440087 1.426564 3.913856 0.00741142875 -0.707050302 0.707124417 0 0
2.440082 1.427064 3.914356 0.00741142875 -0.707050302 0.707124417 0 0
2.436743 1.427029 3.914356 0.00741142875 -0.707050302 0.707124417 0 0
2.436748 1.426529 3.913856 0.00741142875 -0.707050302 0.707124417 0 0
2.440087 1.426564 3.913856 0.00741142875 -0.707050302 0.707124417 0 0
2.440087 1.426564 3.755231 -0.695772556 -0.718262174 0 0 0
2.440598 1.426069 3.914141 -0.695772556 -0.718262174 0 0 0
2.440087 1.426564 3.913856 -0.695772556 -0.718262174 0 0 0
2.440087 1.426564 3.755231 -0.695772556 -0.718262174 0 0 0
2.440598 1.426069 3.754946 -0.695772556 -0.718262174 0 0 0
2.440598 1.426069 3.914141 -0.695772556 -0.718262174 0 0 0
2.436748 1.426529 3.755231 0.00741882944 -0.707756328 -0.706417681 0 0
2.440082 1.427064 3.75473 0.00741882944 -0.707756328 -0.706417681 0 0
2.440087 1.426564 3.755231 0.00741882944 -0.707756328 -0.706417681 0 0
2.436748 1.426529 3.755231 0.00741882944 -0.707756328 -0.706417681 0 0
2.436743 1.427029 3.75473 0.00741882944 -0.707756328 -0.706417681 0 0
2.440082 1.427064 3.75473 0.00741882944 -0.707756328 -0.706417681 0 0
2.437599 1.66199 3.75473 -0.702947866 -0.0074296568 -0.711202571 0 0
2.440591 1.426768 3.75423 -0.702947866 -0.0074296568 -0.711202571 0 0
2.440082 1.427064 3.75473 -0.702947866 -0.0074296568 -0.711202571 0 0
2.437599 1.66199 3.75473 -0.702685901 -0.00742577435 -0.711461442 0 0
2.438102 1.662297 3.75423 -0.702685901 -0.00742577435 -0.711461442 0 0
2.440591 1.426768 3.75423 -0.702685901 -0.00742577435 -0.711461442 0 0
2.43426 1.661955 3.75473 -0.00741142875 0.707050302 -0.707124417 0 0
2.437594 1.66249 3.75523 -0.00741142875 0.707050302 -0.707124417 0 0
2.437599 1.66199 3.75473 -0.00741142875 0.707050302 -0.707124417 0 0
2.43426 1.661955 3.75473 -0.00741142875 0.707050302 -0.707124417 0 0
2.434255 1.662455 3.75523 -0.00741142875 0.707050302 -0.707124417 0 0
2.437594 1.66249 3.75523 -0.00741142875 0.707050302 -0.707124417 0 0
2.438094 1.662996 3.754946 -0.711311467 0.702876943 0 0 0
2.437594 1.66249 3.913856 -0.711311467 0.702876943 0 0 0
2.438094 1.662996 3.91414 -0.711311467 0.702876943 0 0 0
2.438094 1.662996 3.754946 -0.711311467 0.702876943 0 0 0
2.437594 1.66249 3.75523 -0.711311467 0.702876943 0 0 0
2.437594 1.66249 3.913856 -0.711311467 0.702876943 0 0 0
2.434255 1.662455 3.913856 -0.00741142875 0.707050302 0.707124417 0 0
2.437599 1.66199 3.914356 -0.00741142875 0.707050302 0.707124417 0 0
2.437594 1.66249 3.913856 -0.00741142875 0.707050302 0.707124417 0 0
2.434255 1.662455 3.913856 -0.00741142875 0.707050302 0.707124417 0 0
2.43426 1.661955 3.914356 -0.00741142875 0.707050302 0.707124417 0 0
2.437599 1.66199 3.914356 -0.00741142875 0.707050302 0.707124417 0 0
2.440082 1.427064 3.914356 -0.702685553 -0.00742688433 0.711461773 0 0
2.438102 1.662297 3.914856 -0.702685553 -0.00742688433 0.711461773 0 0
2.437599 1.66199 3.914356 -0.702685553 -0.00742688433 0.711461773 0 0
2.440082 1.427064 3.914356 -0.702947543 -0.0074285393 0.711202903 0 0
2.440591 1.426768 3.914856 -0.702947543 -0.0074285393 0.711202903 0 0
2.438102 1.662297 3.914856 -0.702947543 -0.0074285393 0.711202903 0 0
2.436737 1.412369 3.927245 -0.00733888576 0.707043704 -0.707131771 0 0
2.440392 1.412907 3.927745 -0.00733888576 0.707043704 -0.707131771 0 0
2.440398 1.412407 3.927245 -0.00733888576 0.707043704 -0.707131771 0 0
2.436737 1.412369 3.927245 -0.00733888576 0.707043704 -0.707131771 0 0
2.436731 1.412869 3.927745 -0.00733888576 0.707043704 -0.707131771 0 0
2.440392 1.412907 3.927745 -0.00733888576 0.707043704 -0.707131771 0 0
2.43761 1.67615 3.927745 -0.711304307 -0.00751719356 -0.70284399 0 0
2.440878 1.413669 3.927245 -0.711304307 -0.00751719356 -0.70284399 0 0
2.440392 1.412907 3.927745 -0.711304307 -0.00751719356 -0.70284399 0 0
2.43761 1.67615 3.927745 -0.711296932 -0.00751708751 -0.702851455 0 0
2.438112 1.675399 3.927245 -0.711296932 -0.00751708751 -0.702851455 0 0
2.440878 1.413669 3.927245 -0.711296932 -0.00751708751 -0.702851455 0 0
2.433949 1.676112 3.927745 0.00733896193 -0.707051043 -0.707124432 0 0
2.437605 1.67665 3.927245 0.00733896193 -0.707051043 -0.707124432 0 0
2.43761 1.67615 3.927745 0.00733896193 -0.707051043 -0.707124432 0 0
2.433949 1.676112 3.927745 0.00733896193 -0.707051043 -0.707124432 0 0
2.433944 1.676612 3.927245 0.00733896193 -0.707051043 -0.707124432 0 0
2.437605 1.67665 3.927245 0.00733896193 -0.707051043 -0.707124432 0 0
2.438105 1.676156 3.926584 -0.703547175 -0.710648557 3.86052095e-06 0 0
2.437605 1.67665 3.741842 -0.703547175 -0.710648557 3.86052095e-06 0 0
2.438105 1.676155 3.742503 -0.703547175 -0.710648557 3.86052095e-06 0 0
2.438105 1.676156 3.926584 -0.702825727 -0.711362072 0 0 0
2.437605 1.67665 3.927245 -0.702825727 -0.711362072 0 0 0
2.437605 1.67665 3.741842 -0.702825727 -0.711362072 0 0 0
2.433944 1.676611 3.741842 0.0075320714 -0.707049062 0.707124382 0 0
2.43761 1.67615 3.741342 0.0075320714 -0.707049062 0.707124382 0 0
2.437605 1.67665 3.741842 0.0075320714 -0.707049062 0.707124382 0 0
2.433944 1.676611 3.741842 0.0075320714 -0.707049062 0.707124382 0 0
2.433949 1.676111 3.741342 0.0075320714 -0.707049062 0.707124382 0 0
2.43761 1.67615 3.741342 0.0075320714 -0.707049062 0.707124382 0 0
2.440392 1.412907 3.741342 -0.711296953 -0.00751711584 0.702851433 0 0
2.438112 1.675399 3.741842 -0.711296953 -0.00751711584 0.702851433 0 0
2.43761 1.67615 3.741342 -0.711296953 -0.00751711584 0.702851433 0 0
2.440392 1.412907 3.741342 -0.711304329 -0.00751716568 0.702843968 0 0
2.440878 1.413669 3.741842 -0.711304329 -0.00751716568 0.702843968 0 0
2.438112 1.675399 3.741842 -0.711304329 -0.00751716568 0.702843968 0 0
2.436731 1.412869 3.741342 -0.00733888576 0.707043704 0.707131771 0 0
2.440398 1.412407 3.741842 -0.00733888576 0.707043704 0.707131771 0 0
2.440392 1.412907 3.741342 -0.00733888576 0.707043704 0.707131771 0 0
2.436731 1.412869 3.741342 -0.00733888576 0.707043704 0.707131771 0 0
2.436737 1.412369 3.741842 -0.00733888576 0.707043704 0.707131771 0 0
2.440398 1.412407 3.741842 -0.00733888576 0.707043704 0.707131771 0 0
2.440398 1.412407 3.927245 -0.719083056 0.694924139 0 0 0
2.440887 1.412913 3.742503 -0.719083056 0.694924139 0 0 0
2.440398 1.412407 3.741842 -0.719083056 0.694924139 0 0 0
2.440398 1.412407 3.927245 -0.719083056 0.694924139 0 0 0
2.440887 1.412913 3.926584 -0.719083056 0.694924139 0 0 0
2.440887 1.412913 3.742503 -0.719083056 0.694924139 0 0 0
2.438094 1.662996 3.91414 -0.999974927 -0.00440618024 0.00554364 0 0
2.438112 1.675399 3.927245 -0.999974927 -0.00440618024 0.00554364 0 0
2.438105 1.676156 3.926584 -0.999974927 -0.00440618024 0.00554364 0 0
2.438094 1.662996 3.91414 -0.999967809 -0.00509668702 0.00619714839 0 0
2.438102 1.662297 3.914856 -0.999967809 -0.00509668702 0.00619714839 0 0
2.438112 1.675399 3.927245 -0.999967809 -0.00509668702 0.00619714839 0 0
2.440591 1.426768 3.914856 -0.999845298 -0.0167084257 0.00549616054 0 0
2.440887 1.412913 3.926584 -0.999845298 -0.0167084257 0.00549616054 0 0
2.440878 1.413669 3.927245 -0.999845298 -0.0167084257 0.00549616054 0 0
2.440591 1.426768 3.914856 -0.999849981 -0.0162223121 0.00607055425 0 0
2.440598 1.426069 3.914141 -0.999849981 -0.0162223121 0.00607055425 0 0
2.440887 1.412913 3.926584 -0.999849981 -0.0162223121 0.00607055425 0 0
2.438102 1.662297 3.75423 -0.999974961 -0.00444386471 -0.00550720576 0 0
2.438105 1.676155 3.742503 -0.999974961 -0.00444386471 -0.00550720576 0 0
2.438112 1.675399 3.741842 -0.999974961 -0.00444386471 -0.00550720576 0 0
2.438102 1.662297 3.75423 -0.999967772 -0.00505891667 -0.00623402154 0 0
2.438094 1.662996 3.754946 -0.999967772 -0.00505891667 -0.00623402154 0 0
2.438105 1.676155 3.742503 -0.999967772 -0.00505891667 -0.00623402154 0 0
2.440598 1.426069 3.754946 -0.999844667 -0.0167358189 -0.0055274994 0 0
2.440878 1.413669 3.741842 -0.999844667 -0.0167358189 -0.0055274994 0 0
2.440887 1.412913 3.742503 -0.999844667 -0.0167358189 -0.0055274994 0 0
2.440598 1.426069 3.754946 -0.999850591 -0.0161970721 -0.00603742914 0 0
2.440591 1.426768 3.75423 -0.999850591 -0.0161970721 -0.00603742914 0 0
2.440878 1.413669 3.741842 -0.999850591 -0.0161970721 -0.00603742914 0 0
2.433463 1.67535 3.741842 0.999871397 0.0105667837 -0.0120636571 0 0
2.43624 1.426722 3.75423 0.999871397 0.0105667837 -0.0120636571 0 0
2.436229 1.41362 3.741842 0.999871397 0.0105667837 -0.0120636571 0 0
2.433463 1.67535 3.741842 0.999871295 0.0105663407 -0.0120725247 0 0
2.433751 1.662251 3.75423 0.999871295 0.0105663407 -0.0120725247 0 0
2.43624 1.426722 3.75423 0.999871295 0.0105663407 -0.0120725247 0 0
3 0 1 2
3 3 4 5
3 6 7 8
3 9 10 11
3 12 13 14
3 15 16 17
3 18 19 20
3 21 22 23
3 24 25 26
3 27 28 29
3 30 31 32
3 33 34 35
3 36 37 38
3 39 40 41
3 42 43 44
3 45 46 47
3 48 49 50
3 51 52 53
3 54 55 56
3 57 58 59
3 60 61 62
3 63 64 65
3 66 67 68
3 69 70 71
3 72 73 74
3 75 76 77
3 78 79 80
3 81 82 83
3 84 85 86
3 87 88 89
3 90 91 92
3 93 94 95
3 96 97 98
3 99 100 101
3 102 103 104
3 105 106 107
3 108 109 110
3 111 112 113
3 114 115 116
3 117 118 119
3 120 121 122
3 123 124 125
3 126 127 128
3 129 130 131
3 132 133 134
3 135 136 137
3 138 139 140
3 141 142 143
3 144 145 146
3 147 148 149
3 150 151 152
3 153 154 155
3 156 157 158
3 159 160 161
3 162 163 164
3 165 166 167
3 168 169 170
3 171 172 173
3 174 175 176
3 177 178 179
3 180 181 182
3 183 184 185
3 186 187 188
3 189 190 191
3 192 193 194
3 195 196 197
3 198 199 200
3 201 202 203
3 204 205 206
3 207 208 209
3 210 211 212
3 213 214 215
3 216 217 218
3 219 220 221
3 222 223 224
3 225 226 227
3 228 229 230
3 231 232 233
3 234 235 236
3 237 238 239
3 240 241 242
3 243 244 245
3 246 247 248
3 249 250 251
3 252 253 254
3 255 256 257
3 258 259 260
3 261 262 263
3 264 265 266
3 267 268 269
3 270 271 272
3 273 274 275
3 276 277 278
3 279 280 281
3 282 283 284
3 285 286 287
3 288 289 290
3 291 292 293
3 294 295 296
3 297 298 299
3 300 301 302
3 303 304 305
3 306 307 308
3 309 310 311
3 312 313 314
3 315 316 317
3 318 319 320
3 321 322 323
3 324 325 326
3 327 328 329
3 330 331 332
3 333 334 335
3 336 337 338
3 339 340 341
3 342 343 344
3 345 346 347
3 348 349 350
3 351 352 353
3 354 355 356
3 357 358 359
3 360 361 362
3 363 364 365
3 366 367 368
3 369 370 371
3 372 373 374
3 375 376 377
3 378 379 380
3 381 382 383
