ply
format ascii 1.0
element vertex 6
property float x
property float y
property float z
property float nx
property float ny
property float nz
property float u
property float v
element face 2
property list uchar int vertex_indices
end_header
2.436209 1.662188 3.985563 -0.999944157 -0.010567974 0 0.983316 0.989385
2.4387 1.426489 4.14636 -0.999944157 -0.010567974 0 0.012264 0.011015
2.436209 1.662188 4.14636 -0.999944157 -0.010567974 0 0.012264 0.989385
2.436209 1.662188 3.985563 -0.999944157 -0.010567974 0 0.983316 0.989385
2.4387 1.426489 3.985563 -0.999944157 -0.010567974 0 0.983316 0.011015
2.4387 1.426489 4.14636 -0.999944157 -0.010567974 0 0.012264 0.011015
3 0 1 2
3 3 4 5
