ply
format ascii 1.0
element vertex 6
property float x
property float y
property float z
property float nx
property float ny
property float nz
property float u
property float v
element face 2
property list uchar int vertex_indices
end_header
2.43444 1.9698 3.985563 -0.999857152 -0.016901934 0 0.983316 0.987554
2.438424 1.734121 4.14636 -0.999857152 -0.016901934 0 0.012264 0.009184
2.43444 1.9698 4.14636 -0.999857152 -0.016901934 0 0.012264 0.987554
2.43444 1.9698 3.985563 -0.999857152 -0.016901934 0 0.983316 0.987554
2.438424 1.734121 3.985563 -0.999857152 -0.016901934 0 0.983316 0.009184
2.438424 1.734121 4.14636 -0.999857152 -0.016901934 0 0.012264 0.009184
3 0 1 2
3 3 4 5
