ply
format ascii 1.0
element vertex 384
property float x
property float y
property float z
property float nx
property float ny
property float nz
property float u
property float v
element face 128
property list uchar int vertex_indices
end_header
2.432091 1.983709 4.159163 0 0 -1 0 0
2.440202 1.720551 4.159163 0 0 -1 0 0
2.436541 1.720489 4.159163 0 0 -1 0 0
2.432091 1.983709 4.159163 0 0 -1 0 0
2.435752 1.983771 4.159163 0 0 -1 0 0
2.440202 1.720551 4.159163 0 0 -1 0 0
2.436541 1.720489 3.97276 0 0 1 0 0
2.435752 1.983771 3.97276 0 0 1 0 0
2.432091 1.983709 3.97276 0 0 1 0 0
2.436541 1.720489 3.97276 0 -0 1 0 0
2.440202 1.720551 3.97276 0 -0 1 0 0
2.435752 1.983771 3.97276 0 -0 1 0 0
2.432083 1.984209 3.97326 0.0169328356 -0.999856629 0 0 0
2.435744 1.984271 4.158663 0.0169328356 -0.999856629 0 0 0
2.432083 1.984209 4.158663 0.0169328356 -0.999856629 0 0 0
2.432083 1.984209 3.97326 0.0169328356 -0.999856629 0 0 0
2.435744 1.984271 3.97326 0.0169328356 -0.999856629 0 0 0
2.435744 1.984271 4.158663 0.0169328356 -0.999856629 0 0 0
2.436549 1.719989 4.158663 -0.0169328356 0.999856629 0 0 0
2.44021 1.720051 3.97326 -0.0169328356 0.999856629 0 0 0
2.436549 1.719989 3.97326 -0.0169328356 0.999856629 0 0 0
2.436549 1.719989 4.158663 -0.0169328356 0.999856629 0 0 0
2.44021 1.720051 4.158663 -0.0169328356 0.999856629 0 0 0
2.44021 1.720051 3.97326 -0.0169328356 0.999856629 0 0 0
2.432492 1.969555 3.986149 0 0 -1 0 0
2.439801 1.734705 3.986149 0 0 -1 0 0
2.436463 1.734649 3.986149 0 0 -1 0 0
2.432492 1.969555 3.986149 0 0 -1 0 0
2.43583 1.969611 3.986149 0 0 -1 0 0
2.439801 1.734705 3.986149 0 0 -1 0 0
2.440313 1.734413 3.985649 -0.999785253 -0.0169007705 -0.0119921827 0 0
2.436259 1.983023 3.97326 -0.999785253 -0.0169007705 -0.0119921827 0 0
2.440683 1.721316 3.97326 -0.999785253 -0.0169007705 -0.0119921827 0 0
2.440313 1.734413 3.985649 -0.99978429 -0.0169044833 -0.0120670006 0 0
2.436331 1.969921 3.985649 -0.99978429 -0.0169044833 -0.0120670006 0 0
2.436259 1.983023 3.97326 -0.99978429 -0.0169044833 -0.0120670006 0 0
2.436463 1.734649 4.145774 0 0 1 0 0
2.435831 1.969612 4.145774 0 0 1 0 0
2.432492 1.969555 4.145774 0 0 1 0 0
2.436463 1.734649 4.145774 0 -0 1 0 0
2.439801 1.734705 4.145774 0 -0 1 0 0
2.435831 1.969612 4.145774 0 -0 1 0 0
2.436471 1.734149 3.986649 0.0167691302 -0.999859388 0 0 0
2.43981 1.734205 4.145274 0.0167691302 -0.999859388 0 0 0
2.436471 1.734149 4.145274 0.0167691302 -0.999859388 0 0 0
2.436471 1.734149 3.986649 0.0167691302 -0.999859388 0 0 0
2.43981 1.734205 3.986649 0.0167691302 -0.999859388 0 0 0
2.43981 1.734205 4.145274 0.0167691302 -0.999859388 0 0 0
2.432483 1.970055 4.145274 -0.0167691302 0.999859388 0 0 0
2.435822 1.970111 3.986649 -0.0167691302 0.999859388 0 0 0
2.432483 1.970055 3.986649 -0.0167691302 0.999859388 0 0 0
2.432483 1.970055 4.145274 -0.0167691302 0.999859388 0 0 0
2.435822 1.970111 4.145274 -0.0167691302 0.999859388 0 0 0
2.435822 1.970111 3.986649 -0.0167691302 0.999859388 0 0 0
2.431597 1.983701 4.158002 0.999600411 0.0282669215 0 0 0
2.431969 1.970546 3.986364 0.999600411 0.0282669215 0 0 0
2.431597 1.983701 3.973921 0.999600411 0.0282669215 0 0 0
2.431597 1.983701 4.158002 0.999600411 0.0282669215 0 0 0
2.431969 1.970546 4.145559 0.999600411 0.0282669215 0 0 0
2.431969 1.970546 3.986364 0.999600411 0.0282669215 0 0 0
2.436047 1.720481 3.973921 0.999984615 0.00554702712 -0 0 0
2.435974 1.733641 4.145559 0.999984615 0.00554702712 -0 0 0
2.436047 1.720481 4.158002 0.999984615 0.00554702712 -0 0 0
2.436047 1.720481 3.973921 0.999984615 0.00554702712 0 0 0
2.435974 1.733641 3.986364 0.999984615 0.00554702712 0 0 0
2.435974 1.733641 4.145559 0.999984615 0.00554702712 0 0 0
2.436034 1.721237 4.158663 0.999784299 0.0169006898 0.0120715747 0 0
2.431981 1.969847 4.146274 0.999784299 0.0169006898 0.0120715747 0 0
2.43161 1.982945 4.158663 0.999784299 0.0169006898 0.0120715747 0 0
2.436034 1.721237 4.158663 0.999784416 0.0169002402 0.0120625126 0 0
2.435962 1.734339 4.146274 0.999784416 0.0169002402 0.0120625126 0 0
2.431981 1.969847 4.146274 0.999784416 0.0169002402 0.0120625126 0 0
2.440324 1.733714 4.145559 -0.999600354 -0.0282689236 1.53567851e-07 0 0
2.440696 1.720559 3.973921 -0.999600354 -0.0282689236 1.53567851e-07 0 0
2.440696 1.72056 4.158002 -0.999600354 -0.0282689236 1.53567851e-07 0 0
2.440324 1.733714 4.145559 -0.999600411 -0.0282669215 -0 0 0
2.440324 1.733714 3.986364 -0.999600411 -0.0282669215 -0 0 0
2.440696 1.720559 3.973921 -0.999600411 -0.0282669215 -0 0 0
2.436319 1.97062 3.986364 -0.999984613 -0.00554742015 3.01357563e-08 0 0
2.436246 1.98378 4.158002 -0.999984613 -0.00554742015 3.01357563e-08 0 0
2.436246 1.983779 3.973921 -0.999984613 -0.00554742015 3.01357563e-08 0 0
2.436319 1.97062 3.986364 -0.999984615 -0.00554702712 0 0 0
2.436319 1.97062 4.145559 -0.999984615 -0.00554702712 0 0 0
2.436246 1.98378 4.158002 -0.999984615 -0.00554702712 0 0 0
2.436331 1.969921 4.146274 -0.9997844 -0.0169007561 0.0120630584 0 0
2.440683 1.721316 4.158663 -0.9997844 -0.0169007561 0.0120630584 0 0
2.436259 1.983023 4.158663 -0.9997844 -0.0169007561 0.0120630584 0 0
2.436331 1.969921 4.146274 -0.999785237 -0.0169044993 0.0119882404 0 0
2.440313 1.734413 4.146274 -0.999785237 -0.0169044993 0.0119882404 0 0
2.440683 1.721316 4.158663 -0.999785237 -0.0169044993 0.0119882404 0 0
2.432083 1.984209 3.97326 0.879822588 -0.328977141 0.343054303 0 0
2.43161 1.982944 3.97326 0.879822588 -0.328977141 0.343054303 0 0
2.432091 1.983709 3.97276 0.879822588 -0.328977141 0.343054303 0 0
2.432083 1.984209 3.97326 0.86373559 -0.322962003 0.386854462 0 0
2.431597 1.983701 3.973921 0.86373559 -0.322962003 0.386854462 0 0
2.43161 1.982944 3.97326 0.86373559 -0.322962003 0.386854462 0 0
2.436541 1.720489 3.97276 0.850857485 0.378255964 0.364642244 0 0
2.436047 1.720481 3.973921 0.850857485 0.378255964 0.364642244 0 0
2.436549 1.719989 3.97326 0.850857485 0.378255964 0.364642244 0 0
2.436541 1.720489 3.97276 0.864938627 0.338694297 0.370361099 0 0
2.436034 1.721237 3.97326 0.864938627 0.338694297 0.370361099 0 0
2.436047 1.720481 3.973921 0.864938627 0.338694297 0.370361099 0 0
2.436047 1.720481 4.158002 0.850857485 0.378255964 -0.364642244 0 0
2.436541 1.720489 4.159163 0.850857485 0.378255964 -0.364642244 0 0
2.436549 1.719989 4.158663 0.850857485 0.378255964 -0.364642244 0 0
2.436047 1.720481 4.158002 0.864938627 0.338694297 -0.370361099 0 0
2.436034 1.721237 4.158663 0.864938627 0.338694297 -0.370361099 0 0
2.436541 1.720489 4.159163 0.864938627 0.338694297 -0.370361099 0 0
2.432091 1.983709 4.159163 0.86256 -0.350797028 -0.364597988 0 0
2.431597 1.983701 4.158002 0.86256 -0.350797028 -0.364597988 0 0
2.432083 1.984209 4.158663 0.86256 -0.350797028 -0.364597988 0 0
2.432091 1.983709 4.159163 0.875918186 -0.308941789 -0.370570241 0 0
2.43161 1.982945 4.158663 0.875918186 -0.308941789 -0.370570241 0 0
2.431597 1.983701 4.158002 0.875918186 -0.308941789 -0.370570241 0 0
2.431981 1.969847 4.146274 0.7318974 0.493353752 0.470030075 0 0
2.432483 1.970055 4.145274 0.7318974 0.493353752 0.470030075 0 0
2.431969 1.970546 4.145559 0.7318974 0.493353752 0.470030075 0 0
2.431981 1.969847 4.146274 0.737441358 0.484178669 0.470904725 0 0
2.432492 1.969555 4.145774 0.737441358 0.484178669 0.470904725 0 0
2.432483 1.970055 4.145274 0.737441358 0.484178669 0.470904725 0 0
2.435962 1.734339 4.146274 0.753645061 -0.458700019 0.47075834 0 0
2.436471 1.734149 4.145274 0.753645061 -0.458700019 0.47075834 0 0
2.436463 1.734649 4.145774 0.753645061 -0.458700019 0.47075834 0 0
2.435962 1.734339 4.146274 0.74821678 -0.468422436 0.469842604 0 0
2.435974 1.733641 4.145559 0.74821678 -0.468422436 0.469842604 0 0
2.436471 1.734149 4.145274 0.74821678 -0.468422436 0.469842604 0 0
2.435962 1.734339 3.985649 0.74821678 -0.468422436 -0.469842604 0 0
2.436471 1.734149 3.986649 0.74821678 -0.468422436 -0.469842604 0 0
2.435974 1.733641 3.986364 0.74821678 -0.468422436 -0.469842604 0 0
2.435962 1.734339 3.985649 0.753645061 -0.458700019 -0.47075834 0 0
2.436463 1.734649 3.986149 0.753645061 -0.458700019 -0.47075834 0 0
2.436471 1.734149 3.986649 0.753645061 -0.458700019 -0.47075834 0 0
2.431969 1.970546 3.986364 0.736441787 0.48987731 -0.466555158 0 0
2.432492 1.969555 3.986149 0.736441787 0.48987731 -0.466555158 0 0
2.431981 1.969847 3.985649 0.736441787 0.48987731 -0.466555158 0 0
2.431969 1.970546 3.986364 0.731015564 0.489036224 -0.475877944 0 0
2.432483 1.970055 3.986649 0.731015564 0.489036224 -0.475877944 0 0
2.432492 1.969555 3.986149 0.731015564 0.489036224 -0.475877944 0 0
2.43583 1.969611 3.986149 -0.752865786 0.464274924 -0.466521065 0 0
2.436319 1.97062 3.986364 -0.752865786 0.464274924 -0.466521065 0 0
2.436331 1.969921 3.985649 -0.752865786 0.464274924 -0.466521065 0 0
2.43583 1.969611 3.986149 -0.747559917 0.46363779 -0.475598749 0 0
2.435822 1.970111 3.986649 -0.747559917 0.46363779 -0.475598749 0 0
2.436319 1.97062 3.986364 -0.747559917 0.46363779 -0.475598749 0 0
2.43981 1.734205 3.986649 -0.731809422 -0.492915431 -0.470626549 0 0
2.440313 1.734413 3.985649 -0.731809422 -0.492915431 -0.470626549 0 0
2.440324 1.733714 3.986364 -0.731809422 -0.492915431 -0.470626549 0 0
2.43981 1.734205 3.986649 -0.736785794 -0.484678534 -0.47141639 0 0
2.439801 1.734705 3.986149 -0.736785794 -0.484678534 -0.47141639 0 0
2.440313 1.734413 3.985649 -0.736785794 -0.484678534 -0.47141639 0 0
2.43981 1.734205 4.145274 -0.736785794 -0.484678534 0.47141639 0 0
2.440313 1.734413 4.146274 -0.736785794 -0.484678534 0.47141639 0 0
2.439801 1.734705 4.145774 -0.736785794 -0.484678534 0.47141639 0 0
2.43981 1.734205 4.145274 -0.731809422 -0.492915431 0.470626549 0 0
2.440324 1.733714 4.145559 -0.731809422 -0.492915431 0.470626549 0 0
2.440313 1.734413 4.146274 -0.731809422 -0.492915431 0.470626549 0 0
2.435822 1.970111 4.145274 -0.748563838 0.467807537 0.469902425 0 0
2.436331 1.969921 4.146274 -0.748563838 0.467807537 0.469902425 0 0
2.436319 1.97062 4.145559 -0.748563838 0.467807537 0.469902425 0 0
2.435822 1.970111 4.145274 -0.753946627 0.45815321 0.470807943 0 0
2.435831 1.969612 4.145774 -0.753946627 0.45815321 0.470807943 0 0
2.436331 1.969921 4.146274 -0.753946627 0.45815321 0.470807943 0 0
2.435752 1.983771 4.159163 -0.864902439 -0.338486136 -0.370635814 0 0
2.436246 1.98378 4.158002 -0.864902439 -0.338486136 -0.370635814 0 0
2.436259 1.983023 4.158663 -0.864902439 -0.338486136 -0.370635814 0 0
2.435752 1.983771 4.159163 -0.850649921 -0.378491956 -0.364881558 0 0
2.435744 1.984271 4.158663 -0.850649921 -0.378491956 -0.364881558 0 0
2.436246 1.98378 4.158002 -0.850649921 -0.378491956 -0.364881558 0 0
2.440202 1.720551 4.159163 -0.862744996 0.350572373 -0.364376293 0 0
2.440696 1.72056 4.158002 -0.862744996 0.350572373 -0.364376293 0 0
2.44021 1.720051 4.158663 -0.862744996 0.350572373 -0.364376293 0 0
2.440202 1.720551 4.159163 -0.876066497 0.308762965 -0.370368633 0 0
2.440683 1.721316 4.158663 -0.876066497 0.308762965 -0.370368633 0 0
2.440696 1.72056 4.158002 -0.876066497 0.308762965 -0.370368633 0 0
2.440202 1.720551 3.97276 -0.876027004 0.308574447 0.370619074 0 0
2.440696 1.720559 3.973921 -0.876027004 0.308574447 0.370619074 0 0
2.440683 1.721316 3.97326 -0.876027004 0.308574447 0.370619074 0 0
2.440202 1.720551 3.97276 -0.86256 0.350797028 0.364597988 0 0
2.44021 1.720051 3.97326 -0.86256 0.350797028 0.364597988 0 0
2.440696 1.720559 3.973921 -0.86256 0.350797028 0.364597988 0 0
2.435744 1.984271 3.97326 -0.85284475 -0.351935133 0.385742782 0 0
2.436259 1.983023 3.97326 -0.85284475 -0.351935133 0.385742782 0 0
2.436246 1.983779 3.973921 -0.85284475 -0.351935133 0.385742782 0 0
2.435744 1.984271 3.97326 -0.867884283 -0.358141351 0.344255202 0 0
2.435752 1.983771 3.97276 -0.867884283 -0.358141351 0.344255202 0 0
2.436259 1.983023 3.97326 -0.867884283 -0.358141351 0.344255202 0 0
2.436549 1.719989 3.97326 0.69995761 0.714184391 -0 0 0
2.436047 1.720481 4.158002 0.69995761 0.714184391 -0 0 0
2.436549 1.719989 4.158663 0.69995761 0.714184391 -0 0 0
2.436549 1.719989 3.97326 0.69995761 0.714184391 0 0 0
2.436047 1.720481 3.973921 0.69995761 0.714184391 0 0 0
2.436047 1.720481 4.158002 0.69995761 0.714184391 0 0 0
2.432091 1.983709 3.97276 0.711058713 0.0120211658 0.70302987 0 0
2.436034 1.721237 3.97326 0.711058713 0.0120211658 0.70302987 0 0
2.436541 1.720489 3.97276 0.711058713 0.0120211658 0.70302987 0 0
2.432091 1.983709 3.97276 0.7113591 0.0120250993 0.702725856 0 0
2.43161 1.982944 3.97326 0.7113591 0.0120250993 0.702725856 0 0
2.436034 1.721237 3.97326 0.7113591 0.0120250993 0.702725856 0 0
2.431597 1.983701 3.973921 0.722580072 -0.691287234 0 0 0
2.432083 1.984209 4.158663 0.722580072 -0.691287234 0 0 0
2.431597 1.983701 4.158002 0.722580072 -0.691287234 0 0 0
2.431597 1.983701 3.973921 0.722580072 -0.691287234 0 0 0
2.432083 1.984209 3.97326 0.722580072 -0.691287234 0 0 0
2.432083 1.984209 4.158663 0.722580072 -0.691287234 0 0 0
2.436541 1.720489 4.159163 0.711370238 0.0120264325 -0.702714558 0 0
2.43161 1.982945 4.158663 0.711370238 0.0120264325 -0.702714558 0 0
2.432091 1.983709 4.159163 0.711370238 0.0120264325 -0.702714558 0 0
2.436541 1.720489 4.159163 0.711057833 0.0120199606 -0.703030781 0 0
2.436034 1.721237 4.158663 0.711057833 0.0120199606 -0.703030781 0 0
2.43161 1.982945 4.158663 0.711057833 0.0120199606 -0.703030781 0 0
2.431597 1.983701 4.158002 0.999721067 0.0229337185 0.00564198103 0 0
2.431981 1.969847 4.146274 0.999721067 0.0229337185 0.00564198103 0 0
2.431969 1.970546 4.145559 0.999721067 0.0229337185 0.00564198103 0 0
2.431597 1.983701 4.158002 0.999727356 0.022535527 0.0061125609 0 0
2.43161 1.982945 4.158663 0.999727356 0.022535527 0.0061125609 0 0
2.431981 1.969847 4.146274 0.999727356 0.022535527 0.0061125609 0 0
2.432492 1.969555 4.145774 0.702658404 0.0118781833 0.711428195 0 0
2.435962 1.734339 4.146274 0.702658404 0.0118781833 0.711428195 0 0
2.436463 1.734649 4.145774 0.702658404 0.0118781833 0.711428195 0 0
2.432492 1.969555 4.145774 0.702782321 0.0118797511 0.711305758 0 0
2.431981 1.969847 4.146274 0.702782321 0.0118797511 0.711305758 0 0
2.435962 1.734339 4.146274 0.702782321 0.0118797511 0.711305758 0 0
2.436034 1.721237 4.158663 0.999920668 0.0111089148 0.00593709856 0 0
2.435974 1.733641 4.145559 0.999920668 0.0111089148 0.00593709856 0 0
2.435962 1.734339 4.146274 0.999920668 0.0111089148 0.00593709856 0 0
2.436034 1.721237 4.158663 0.999912255 0.0115982229 0.00640030686 0 0
2.436047 1.720481 4.158002 0.999912255 0.0115982229 0.00640030686 0 0
2.435974 1.733641 4.145559 0.999912255 0.0115982229 0.00640030686 0 0
2.43161 1.982944 3.97326 0.99972035 0.0229588957 -0.00566660687 0 0
2.431969 1.970546 3.986364 0.99972035 0.0229588957 -0.00566660687 0 0
2.431981 1.969847 3.985649 0.99972035 0.0229588957 -0.00566660687 0 0
2.43161 1.982944 3.97326 0.999728267 0.0224976314 -0.00610323673 0 0
2.431597 1.983701 3.973921 0.999728267 0.0224976314 -0.00610323673 0 0
2.431969 1.970546 3.986364 0.999728267 0.0224976314 -0.00610323673 0 0
2.431969 1.970546 4.145559 0.690743373 0.723099988 0 0 0
2.432483 1.970055 3.986649 0.690743373 0.723099988 0 0 0
2.431969 1.970546 3.986364 0.690743373 0.723099988 0 0 0
2.431969 1.970546 4.145559 0.690743373 0.723099988 0 0 0
2.432483 1.970055 4.145274 0.690743373 0.723099988 0 0 0
2.432483 1.970055 3.986649 0.690743373 0.723099988 0 0 0
2.436047 1.720481 3.973921 0.999920526 0.0111356332 -0.00591101302 0 0
2.435962 1.734339 3.985649 0.999920526 0.0111356332 -0.00591101302 0 0
2.435974 1.733641 3.986364 0.999920526 0.0111356332 -0.00591101302 0 0
2.436047 1.720481 3.973921 0.99991236 0.0115735525 -0.00642852492 0 0
2.436034 1.721237 3.97326 0.99991236 0.0115735525 -0.00642852492 0 0
2.435962 1.734339 3.985649 0.99991236 0.0115735525 -0.00642852492 0 0
2.436463 1.734649 3.986149 0.702782471 0.0118802806 -0.711305601 0 0
2.431981 1.969847 3.985649 0.702782471 0.0118802806 -0.711305601 0 0
2.432492 1.969555 3.986149 0.702782471 0.0118802806 -0.711305601 0 0
2.436463 1.734649 3.986149 0.702658572 0.0118776592 -0.711428038 0 0
2.435962 1.734339 3.985649 0.702658572 0.0118776592 -0.711428038 0 0
2.431981 1.969847 3.985649 0.702658572 0.0118776592 -0.711428038 0 0
2.436471 1.734149 4.145274 0.714803443 -0.699325416 0 0 0
2.435974 1.733641 3.986364 0.714803443 -0.699325416 0 0 0
2.436471 1.734149 3.986649 0.714803443 -0.699325416 0 0 0
2.436471 1.734149 4.145274 0.714803443 -0.699325416 0 0 0
2.435974 1.733641 4.145559 0.714803443 -0.699325416 0 0 0
2.435974 1.733641 3.986364 0.714803443 -0.699325416 0 0 0
2.436463 1.734649 4.145774 0.0118601608 -0.706950298 0.707163781 0 0
2.43981 1.734205 4.145274 0.0118601608 -0.706950298 0.707163781 0 0
2.439801 1.734705 4.145774 0.0118601608 -0.706950298 0.707163781 0 0
2.436463 1.734649 4.145774 0.0118568086 -0.706962215 0.707151924 0 0
2.436471 1.734149 4.145274 0.0118568086 -0.706962215 0.707151924 0 0
2.43981 1.734205 4.145274 0.0118568086 -0.706962215 0.707151924 0 0
2.43981 1.734205 3.986649 -0.690743373 -0.723099988 0 0 0
2.440324 1.733714 4.145559 -0.690743373 -0.723099988 0 0 0
2.43981 1.734205 4.145274 -0.690743373 -0.723099988 0 0 0
2.43981 1.734205 3.986649 -0.690743373 -0.723099988 0 0 0
2.440324 1.733714 3.986364 -0.690743373 -0.723099988 0 0 0
2.440324 1.733714 4.145559 -0.690743373 -0.723099988 0 0 0
2.436471 1.734149 3.986649 0.0118566098 -0.70695036 -0.707163779 0 0
2.439801 1.734705 3.986149 0.0118566098 -0.70695036 -0.707163779 0 0
2.43981 1.734205 3.986649 0.0118566098 -0.70695036 -0.707163779 0 0
2.436471 1.734149 3.986649 0.0118603597 -0.706962156 -0.707151922 0 0
2.436463 1.734649 3.986149 0.0118603597 -0.706962156 -0.707151922 0 0
2.439801 1.734705 3.986149 0.0118603597 -0.706962156 -0.707151922 0 0
2.43583 1.969611 3.986149 -0.702080198 -0.0118684089 -0.711998972 0 0
2.440313 1.734413 3.985649 -0.702080198 -0.0118684089 -0.711998972 0 0
2.439801 1.734705 3.986149 -0.702080198 -0.0118684089 -0.711998972 0 0
2.43583 1.969611 3.986149 -0.702657622 -0.0118806268 -0.711428926 0 0
2.436331 1.969921 3.985649 -0.702657622 -0.0118806268 -0.711428926 0 0
2.440313 1.734413 3.985649 -0.702657622 -0.0118806268 -0.711428926 0 0
2.432492 1.969555 3.986149 -0.0118603597 0.706962156 -0.707151922 0 0
2.435822 1.970111 3.986649 -0.0118603597 0.706962156 -0.707151922 0 0
2.43583 1.969611 3.986149 -0.0118603597 0.706962156 -0.707151922 0 0
2.432492 1.969555 3.986149 -0.0118566098 0.70695036 -0.707163779 0 0
2.432483 1.970055 3.986649 -0.0118566098 0.70695036 -0.707163779 0 0
2.435822 1.970111 3.986649 -0.0118566098 0.70695036 -0.707163779 0 0
2.436319 1.97062 3.986364 -0.715490554 0.698622407 0 0 0
2.435822 1.970111 4.145274 -0.715490554 0.698622407 0 0 0
2.436319 1.97062 4.145559 -0.715490554 0.698622407 0 0 0
2.436319 1.97062 3.986364 -0.715490554 0.698622407 0 0 0
2.435822 1.970111 3.986649 -0.715490554 0.698622407 0 0 0
2.435822 1.970111 4.145274 -0.715490554 0.698622407 0 0 0
2.432483 1.970055 4.145274 -0.0118684707 0.707657564 0.706455881 0 0
2.435831 1.969612 4.145774 -0.0118684707 0.707657564 0.706455881 0 0
2.435822 1.970111 4.145274 -0.0118684707 0.707657564 0.706455881 0 0
2.432483 1.970055 4.145274 -0.0120682719 0.706946664 0.707163893 0 0
2.432492 1.969555 4.145774 -0.0120682719 0.706946664 0.707163893 0 0
2.435831 1.969612 4.145774 -0.0120682719 0.706946664 0.707163893 0 0
2.439801 1.734705 4.145774 -0.703374123 -0.0118872374 0.710720435 0 0
2.436331 1.969921 4.146274 -0.703374123 -0.0118872374 0.710720435 0 0
2.435831 1.969612 4.145774 -0.703374123 -0.0118872374 0.710720435 0 0
2.439801 1.734705 4.145774 -0.702080894 -0.0118708754 0.711998245 0 0
2.440313 1.734413 4.146274 -0.702080894 -0.0118708754 0.711998245 0 0
2.436331 1.969921 4.146274 -0.702080894 -0.0118708754 0.711998245 0 0
2.436549 1.719989 4.158663 -0.0119725593 0.706960313 -0.707151874 0 0
2.440202 1.720551 4.159163 -0.0119725593 0.706960313 -0.707151874 0 0
2.44021 1.720051 4.158663 -0.0119725593 0.706960313 -0.707151874 0 0
2.436549 1.719989 4.158663 -0.0119725593 0.706960313 -0.707151874 0 0
2.436541 1.720489 4.159163 -0.0119725593 0.706960313 -0.707151874 0 0
2.440202 1.720551 4.159163 -0.0119725593 0.706960313 -0.707151874 0 0
2.435752 1.983771 4.159163 -0.711358214 -0.0120262292 -0.702726733 0 0
2.440683 1.721316 4.158663 -0.711358214 -0.0120262292 -0.702726733 0 0
2.440202 1.720551 4.159163 -0.711358214 -0.0120262292 -0.702726733 0 0
2.435752 1.983771 4.159163 -0.711057867 -0.0120200071 -0.703030746 0 0
2.436259 1.983023 4.158663 -0.711057867 -0.0120200071 -0.703030746 0 0
2.440683 1.721316 4.158663 -0.711057867 -0.0120200071 -0.703030746 0 0
2.432091 1.983709 4.159163 0.0119725593 -0.706960313 -0.707151874 0 0
2.435744 1.984271 4.158663 0.0119725593 -0.706960313 -0.707151874 0 0
2.435752 1.983771 4.159163 0.0119725593 -0.706960313 -0.707151874 0 0
2.432091 1.983709 4.159163 0.0119725593 -0.706960313 -0.707151874 0 0
2.432083 1.984209 4.158663 0.0119725593 -0.706960313 -0.707151874 0 0
2.435744 1.984271 4.158663 0.0119725593 -0.706960313 -0.707151874 0 0
2.436246 1.98378 4.158002 -0.699960216 -0.714181837 3.87971511e-06 0 0
2.435744 1.984271 3.97326 -0.699960216 -0.714181837 3.87971511e-06 0 0
2.436246 1.983779 3.973921 -0.699960216 -0.714181837 3.87971511e-06 0 0
2.436246 1.98378 4.158002 -0.699230875 -0.714895925 0 0 0
2.435744 1.984271 4.158663 -0.699230875 -0.714895925 0 0 0
2.435744 1.984271 3.97326 -0.699230875 -0.714895925 0 0 0
2.432083 1.984209 3.97326 0.0119725593 -0.706960313 0.707151874 0 0
2.435752 1.983771 3.97276 0.0119725593 -0.706960313 0.707151874 0 0
2.435744 1.984271 3.97326 0.0119725593 -0.706960313 0.707151874 0 0
2.432083 1.984209 3.97326 0.0119725593 -0.706960313 0.707151874 0 0
2.432091 1.983709 3.97276 0.0119725593 -0.706960313 0.707151874 0 0
2.435752 1.983771 3.97276 0.0119725593 -0.706960313 0.707151874 0 0
2.440202 1.720551 3.97276 -0.711058713 -0.0120211658 0.70302987 0 0
2.436259 1.983023 3.97326 -0.711058713 -0.0120211658 0.70302987 0 0
2.435752 1.983771 3.97276 -0.711058713 -0.0120211658 0.70302987 0 0
2.440202 1.720551 3.97276 -0.7113591 -0.0120250993 0.702725856 0 0
2.440683 1.721316 3.97326 -0.7113591 -0.0120250993 0.702725856 0 0
2.436259 1.983023 3.97326 -0.7113591 -0.0120250993 0.702725856 0 0
2.436541 1.720489 3.97276 -0.0119725593 0.706960313 0.707151874 0 0
2.44021 1.720051 3.97326 -0.0119725593 0.706960313 0.707151874 0 0
2.440202 1.720551 3.97276 -0.0119725593 0.706960313 0.707151874 0 0
2.436541 1.720489 3.97276 -0.0119725593 0.706960313 0.707151874 0 0
2.436549 1.719989 3.97326 -0.0119725593 0.706960313 0.707151874 0 0
2.44021 1.720051 3.97326 -0.0119725593 0.706960313 0.707151874 0 0
2.44021 1.720051 4.158663 -0.722580072 0.691287234 0 0 0
2.440696 1.720559 3.973921 -0.722580072 0.691287234 0 0 0
2.44021 1.720051 3.97326 -0.722580072 0.691287234 0 0 0
2.44021 1.720051 4.158663 -0.723261193 0.690574577 -3.75147124e-06 0 0
2.440696 1.72056 4.158002 -0.723261193 0.690574577 -3.75147124e-06 0 0
2.440696 1.720559 3.973921 -0.723261193 0.690574577 -3.75147124e-06 0 0
2.436319 1.97062 4.145559 -0.999912401 -0.0115902592 0.00639188348 0 0
2.436259 1.983023 4.158663 -0.999912401 -0.0115902592 0.00639188348 0 0
2.436246 1.98378 4.158002 -0.999912401 -0.0115902592 0.00639188348 0 0
2.436319 1.97062 4.145559 -0.999920801 -0.0111012821 0.00592902577 0 0
2.436331 1.969921 4.146274 -0.999920801 -0.0111012821 0.00592902577 0 0
2.436259 1.983023 4.158663 -0.999920801 -0.0111012821 0.00592902577 0 0
2.440313 1.734413 4.146274 -0.999728413 -0.0224997123 0.00607157809 0 0
2.440696 1.72056 4.158002 -0.999728413 -0.0224997123 0.00607157809 0 0
2.440683 1.721316 4.158663 -0.999728413 -0.0224997123 0.00607157809 0 0
2.440313 1.734413 4.146274 -0.999732199 -0.0222477103 0.00636936406 0 0
2.440324 1.733714 4.145559 -0.999732199 -0.0222477103 0.00636936406 0 0
2.440696 1.72056 4.158002 -0.999732199 -0.0222477103 0.00636936406 0 0
2.436331 1.969921 3.985649 -0.99991236 -0.0115735525 -0.00642852492 0 0
2.436246 1.983779 3.973921 -0.99991236 -0.0115735525 -0.00642852492 0 0
2.436259 1.983023 3.97326 -0.99991236 -0.0115735525 -0.00642852492 0 0
2.436331 1.969921 3.985649 -0.999920656 -0.0111284218 -0.00590249094 0 0
2.436319 1.97062 3.986364 -0.999920656 -0.0111284218 -0.00590249094 0 0
2.436246 1.983779 3.973921 -0.999920656 -0.0111284218 -0.00590249094 0 0
2.440324 1.733714 3.986364 -0.999728267 -0.0224976314 -0.00610323673 0 0
2.440683 1.721316 3.97326 -0.999728267 -0.0224976314 -0.00610323673 0 0
2.440696 1.720559 3.973921 -0.999728267 -0.0224976314 -0.00610323673 0 0
2.440324 1.733714 3.986364 -0.999732637 -0.0222323524 -0.00635434309 0 0
2.440313 1.734413 3.985649 -0.999732637 -0.0222323524 -0.00635434309 0 0
2.440683 1.721316 3.97326 -0.999732637 -0.0222323524 -0.00635434309 0 0
2.43161 1.982944 3.97326 0.9997844 0.0169007561 -0.0120630584 0 0
2.435962 1.734339 3.985649 0.9997844 0.0169007561 -0.0120630584 0 0
2.436034 1.721237 3.97326 0.9997844 0.0169007561 -0.0120630584 0 0
2.43161 1.982944 3.97326 0.999784284 0.0169002379 -0.0120734162 0 0
2.431981 1.969847 3.985649 0.999784284 0.0169002379 -0.0120734162 0 0
2.435962 1.734339 3.985649 0.999784284 0.0169002379 -0.0120734162 0 0
3 0 1 2
3 3 4 5
3 6 7 8
3 9 10 11
3 12 13 14
3 15 16 17
3 18 19 20
3 21 22 23
3 24 25 26
3 27 28 29
3 30 31 32
3 33 34 35
3 36 37 38
3 39 40 41
3 42 43 44
3 45 46 47
3 48 49 50
3 51 52 53
3 54 55 56
3 57 58 59
3 60 61 62
3 63 64 65
3 66 67 68
3 69 70 71
3 72 73 74
3 75 76 77
3 78 79 80
3 81 82 83
3 84 85 86
3 87 88 89
3 90 91 92
3 93 94 95
3 96 97 98
3 99 100 101
3 102 103 104
3 105 106 107
3 108 109 110
3 111 112 113
3 114 115 116
3 117 118 119
3 120 121 122
3 123 124 125
3 126 127 128
3 129 130 131
3 132 133 134
3 135 136 137
3 138 139 140
3 141 142 143
3 144 145 146
3 147 148 149
3 150 151 152
3 153 154 155
3 156 157 158
3 159 160 161
3 162 163 164
3 165 166 167
3 168 169 170
3 171 172 173
3 174 175 176
3 177 178 179
3 180 181 182
3 183 184 185
3 186 187 188
3 189 190 191
3 192 193 194
3 195 196 197
3 198 199 200
3 201 202 203
3 204 205 206
3 207 208 209
3 210 211 212
3 213 214 215
3 216 217 218
3 219 220 221
3 222 223 224
3 225 226 227
3 228 229 230
3 231 232 233
3 234 235 236
3 237 238 239
3 240 241 242
3 243 244 245
3 246 247 248
3 249 250 251
3 252 253 254
3 255 256 257
3 258 259 260
3 261 262 263
3 264 265 266
3 267 268 269
3 270 271 272
3 273 274 275
3 276 277 278
3 279 280 281
3 282 283 284
3 285 286 287
3 288 289 290
3 291 292 293
3 294 295 296
3 297 298 299
3 300 301 302
3 303 304 305
3 306 307 308
3 309 310 311
3 312 313 314
3 315 316 317
3 318 319 320
3 321 322 323
3 324 325 326
3 327 328 329
3 330 331 332
3 333 334 335
3 336 337 338
3 339 340 341
3 342 343 344
3 345 346 347
3 348 349 350
3 351 352 353
3 354 355 356
3 357 358 359
3 360 361 362
3 363 364 365
3 366 367 368
3 369 370 371
3 372 373 374
3 375 376 377
3 378 379 380
3 381 382 383
