ply
format ascii 1.0
element vertex 898
property float x
property float y
property float z
property float nx
property float ny
property float nz
property float u
property float v
element face 1680
property list uchar int vertex_indices
end_header
-0.718492 0.472089 4.62162 0.804110401 0.148601922 -0.575607446 0.810818 0.900505
-0.730206 0.502891 4.614659 0.694716625 0.230305511 -0.681416306 0.758427 0.855425
-0.717113 0.494841 4.631099 0.838996371 0.18029922 -0.51339778 0.754756 0.897503
-0.732094 0.479646 4.6064 0.641611854 0.1407026 -0.754013931 0.81312 0.857375
-0.734584 0.460818 4.602733 0.54802077 0.0454017208 -0.835231656 0.857652 0.858516
-0.719911 0.453656 4.615753 0.722908162 0.123001389 -0.679907676 0.857684 0.90244
-0.709603 0.446897 4.627396 0.746329607 0.224908922 -0.626424851 0.858827 0.936663
-0.709165 0.465125 4.635227 0.81270206 0.204000517 -0.545801384 0.809786 0.934676
-0.708165 0.487558 4.645729 0.839525744 0.198106075 -0.505915514 0.752362 0.931297
-0.721556 0.433217 4.610861 0.592403258 0.119000655 -0.796804382 0.904 0.90294
-0.712612 0.415076 4.613239 0.538323649 0.253411133 -0.803735309 0.933415 0.928714
-0.722383 0.416451 4.607517 0.461396639 0.158098848 -0.87299364 0.939815 0.904202
-0.709654 0.426058 4.619079 0.634558722 0.247222878 -0.732267764 0.906919 0.936489
-0.737756 0.440601 4.601414 0.431101356 -0.00110000346 -0.902302838 0.901994 0.858793
-0.739948 0.424244 4.601241 0.338296269 0.029099679 -0.940589625 0.936683 0.860195
-0.749486 0.48519 4.596879 0.465406141 0.125101651 -0.876211562 0.814007 0.814354
-0.769216 0.515203 4.593118 0.525289983 0.217395854 -0.822684312 0.760991 0.761115
-0.747087 0.508883 4.60412 0.527515396 0.258307539 -0.80932362 0.760289 0.813895
-0.772201 0.491023 4.586926 0.461581606 0.0682972784 -0.884464755 0.813795 0.760415
-0.775796 0.471095 4.585655 0.400595249 -0.0643992362 -0.91398916 0.855863 0.758603
-0.752575 0.465866 4.594641 0.386808057 -0.00870018123 -0.922119208 0.857096 0.813824
-0.756068 0.445384 4.594971 0.323292343 -0.0767981811 -0.943177661 0.900459 0.812133
-0.779533 0.449864 4.586598 0.365015285 -0.121505088 -0.923038653 0.898951 0.755327
-0.782067 0.432806 4.588017 0.361313233 -0.0785028752 -0.92913403 0.93367 0.753416
-0.758449 0.428928 4.596092 0.29610689 -0.0465010821 -0.9540222 0.934833 0.811797
-0.712391 0.769337 4.771261 0.646760701 0.509047776 -0.567953305 0.117685 0.897042
-0.729726 0.784429 4.772447 0.479015602 0.686922373 -0.5465178 0.083759 0.852497
-0.712752 0.781984 4.782288 0.511343704 0.564748268 -0.647755363 0.082536 0.897948
-0.727459 0.774057 4.759038 0.582103941 0.648204388 -0.490903323 0.119409 0.851732
-0.72493 0.759881 4.744302 0.698018857 0.479412952 -0.53191437 0.164633 0.852422
-0.71169 0.752898 4.758881 0.764296935 0.362698546 -0.533197862 0.163473 0.897179
-0.701926 0.747808 4.771192 0.752797241 0.295498917 -0.588197844 0.161304 0.932544
-0.700634 0.766461 4.781852 0.652638386 0.384022587 -0.653138415 0.114746 0.932531
-0.702954 0.777587 4.786711 0.553711722 0.451909567 -0.699414807 0.089213 0.924253
-0.711938 0.73612 4.749822 0.808022423 0.240306669 -0.537914927 0.210631 0.896328
-0.72464 0.743798 4.734586 0.750357146 0.296422575 -0.590844998 0.209421 0.852594
-0.726276 0.721543 4.724303 0.757527309 0.23190836 -0.610221999 0.264407 0.850721
-0.713535 0.713971 4.739306 0.808101378 0.203700347 -0.552700942 0.267529 0.892823
-0.704101 0.70832 4.751539 0.787343896 0.223612467 -0.574532031 0.269415 0.926895
-0.702681 0.73039 4.762407 0.789030205 0.241209234 -0.565021629 0.210706 0.931193
-0.742834 0.77953 4.749295 0.504297148 0.738895822 -0.446897473 0.120108 0.806902
-0.766432 0.796202 4.756136 0.441315574 0.76422697 -0.470316598 0.08239 0.751989
-0.745246 0.788954 4.764957 0.462606703 0.748510846 -0.475106884 0.083009 0.807013
-0.764254 0.786435 4.739112 0.435897208 0.776395027 -0.455197084 0.121104 0.752496
-0.76167 0.773111 4.720238 0.475798694 0.664798175 -0.575898419 0.167859 0.754496
-0.740133 0.76638 4.732143 0.585999188 0.588899184 -0.556599229 0.165945 0.808389
-0.739577 0.750813 4.721248 0.644315573 0.383909279 -0.661415987 0.209388 0.809673
-0.760663 0.757892 4.70789 0.534242388 0.480838151 -0.695255164 0.210475 0.756427
-0.761115 0.736165 4.69646 0.588337805 0.362823314 -0.722646435 0.262853 0.75797
-0.740857 0.728638 4.710811 0.669909617 0.286804117 -0.684809831 0.262922 0.80983
-1.044663 0.55053 4.47466 -0.0767044601 0.343119951 -0.936154434 0.815264 0.125206
-1.063669 0.532244 4.469063 0.0496007728 0.389206064 -0.919814331 0.864124 0.088777
-1.062204 0.549377 4.476916 -0.0593051378 0.400034657 -0.914579233 0.815185 0.089759
-1.046816 0.53267 4.46882 0.0401018927 0.265612536 -0.963245461 0.86238 0.124232
-1.026401 0.531792 4.469941 0.181004109 0.107202434 -0.977622192 0.861762 0.169313
-1.023403 0.550561 4.473515 0.0932017205 0.252804667 -0.963017777 0.81672 0.1696
-1.021821 0.573706 4.481944 0.025700307 0.373904466 -0.927111074 0.76143 0.170499
-1.044102 0.573223 4.484092 -0.113805085 0.397217748 -0.910640688 0.758274 0.126355
-1.062397 0.571905 4.486906 -0.0827988267 0.401094317 -0.912287073 0.756493 0.090532
-1.004885 0.548313 4.477279 0.290418022 0.142308831 -0.946258722 0.817394 0.212864
-1.00858 0.528895 4.475206 0.337300444 -0.0192000252 -0.941201238 0.860792 0.213918
-0.986825 0.523567 4.485013 0.387200674 -0.10320018 -0.916201594 0.858956 0.268555
-0.982307 0.543586 4.485827 0.36720618 0.0477008028 -0.928915634 0.817023 0.26651
-0.978737 0.568212 4.490954 0.3335152 0.223610191 -0.915841741 0.763982 0.26555
-1.002254 0.572198 4.484106 0.219114084 0.304219554 -0.927059589 0.763247 0.212804
-1.050652 0.513964 4.463983 0.205700866 0.182200767 -0.961504048 0.907658 0.123548
-1.065568 0.503832 4.457312 0.332104791 0.284504104 -0.899312973 0.934353 0.095599
-1.066798 0.514695 4.460671 0.214899505 0.343599208 -0.914197893 0.909194 0.087907
-1.05468 0.499172 4.460236 0.35379271 0.160896685 -0.921381015 0.942259 0.12194
-1.035474 0.495993 4.46816 0.374690809 0.0115997155 -0.927077259 0.942084 0.168886
-1.030978 0.511848 4.468695 0.283396356 0.00539993056 -0.958987667 0.90679 0.169657
-1.013495 0.508464 4.47532 0.371498793 -0.105699656 -0.922397002 0.904737 0.216288
-1.018058 0.492291 4.475774 0.411391334 -0.0783983486 -0.908080871 0.939659 0.217378
-0.997581 0.485976 4.486584 0.449793424 -0.139397962 -0.882187103 0.936358 0.274746
-0.992519 0.502572 4.485806 0.409605288 -0.170902206 -0.896111569 0.901827 0.272295
-1.04343 0.847469 4.627031 0.34489832 0.500297564 -0.794196132 0.122987 0.116364
-1.056736 0.832101 4.613826 0.256002513 0.447404391 -0.856908411 0.168658 0.08304
-1.057808 0.852833 4.623614 0.356409693 0.428411651 -0.830322581 0.119855 0.082518
-1.042027 0.829302 4.61631 0.224903557 0.529408373 -0.818012937 0.169809 0.117448
-1.023116 0.826634 4.619494 0.209997157 0.625791527 -0.751189829 0.169737 0.161684
-1.025124 0.842059 4.631663 0.327907068 0.601812972 -0.728215697 0.125079 0.160937
-1.027053 0.854504 4.640788 0.420521037 0.560128021 -0.713735706 0.090198 0.159099
-1.045079 0.86244 4.635176 0.427600479 0.471600528 -0.771200864 0.086805 0.114498
-1.05545 0.863665 4.630348 0.411818991 0.424719586 -0.806237181 0.09306 0.089853
-1.007092 0.838412 4.636461 0.313685864 0.697968547 -0.643770989 0.126398 0.208164
-1.004152 0.824507 4.622502 0.232312269 0.697836854 -0.677535782 0.170073 0.206886
-0.980015 0.821259 4.628344 0.300208013 0.729719476 -0.614316396 0.1711 0.262755
-0.983904 0.83468 4.644164 0.32890581 0.757513382 -0.563909962 0.127607 0.265669
-0.987478 0.845189 4.656787 0.376502218 0.721904252 -0.58060342 0.092519 0.267306
-1.009779 0.849425 4.647181 0.393690219 0.654983727 -0.644983976 0.091801 0.208156
-1.040897 0.812899 4.605756 0.101000863 0.535604574 -0.83840716 0.217282 0.119688
-1.05753 0.792456 4.593309 0.0646026097 0.470118991 -0.880235558 0.276472 0.087792
-1.056418 0.814226 4.604819 0.144404256 0.467113766 -0.872325708 0.218382 0.08519
-1.040771 0.791829 4.592891 0.0136999407 0.50399782 -0.863596265 0.273997 0.122578
-1.019587 0.791402 4.592706 0.0335002958 0.542004786 -0.839707415 0.270116 0.16576
-1.021055 0.81175 4.60715 0.108497311 0.606584966 -0.78758048 0.214783 0.163269
-1.001456 0.8104 4.60898 0.179002305 0.651408387 -0.737309493 0.213545 0.206819
-0.999257 0.790528 4.593502 0.137099305 0.573297093 -0.807795904 0.267781 0.207987
-0.97466 0.78756 4.598465 0.299106033 0.573411566 -0.762715384 0.266554 0.261232
-0.977019 0.8073 4.614229 0.296798513 0.65669671 -0.693296527 0.21342 0.261336
-0.71688 0.681418 4.722557 0.805613965 0.217403769 -0.551109554 0.342538 0.884995
-0.729526 0.688853 4.707866 0.753195805 0.247898619 -0.609296606 0.340223 0.845272
-0.731838 0.650921 4.688221 0.742806522 0.294602587 -0.601205279 0.426429 0.841295
-0.719155 0.643512 4.703029 0.811812064 0.256003804 -0.524807799 0.427014 0.879346
-0.709646 0.637576 4.715515 0.795904055 0.258201316 -0.54760279 0.427125 0.911743
-0.70739 0.675714 4.734634 0.785431901 0.230509362 -0.574423331 0.34389 0.918064
-0.717542 0.605304 4.684182 0.82450639 0.279502166 -0.492003813 0.512313 0.882375
-0.73066 0.612942 4.668308 0.729243552 0.331419793 -0.598635752 0.512583 0.843838
-0.728744 0.574795 4.648647 0.720824624 0.320010932 -0.614821003 0.598402 0.848961
-0.715274 0.566856 4.66559 0.839400713 0.252500215 -0.481300409 0.597302 0.888914
-0.705764 0.559966 4.680671 0.833719768 0.246705849 -0.494011713 0.596795 0.922052
-0.70797 0.598907 4.698009 0.814577485 0.273392444 -0.51158586 0.512112 0.914971
-0.715586 0.528232 4.646826 0.846818656 0.209904624 -0.488710766 0.68085 0.893798
-0.728841 0.536359 4.629753 0.714356397 0.283122352 -0.639950523 0.683602 0.852722
-0.70643 0.52101 4.662061 0.844039257 0.210309782 -0.493322945 0.679122 0.927292
-0.743662 0.695666 4.695033 0.678228646 0.285012038 -0.677328608 0.339031 0.807934
-0.762909 0.703313 4.680336 0.63431326 0.325706809 -0.701114657 0.338895 0.758808
-0.764828 0.664901 4.66182 0.658598716 0.319499377 -0.681298671 0.426349 0.759337
-0.746024 0.657353 4.676273 0.665914054 0.318306718 -0.67471424 0.426153 0.806482
-0.745978 0.619152 4.65689 0.632538804 0.353521687 -0.689142277 0.512724 0.807971
-0.765658 0.626492 4.643214 0.651344277 0.325022094 -0.685646608 0.512964 0.759952
-0.766214 0.587963 4.624818 0.620014319 0.321007414 -0.715916534 0.599244 0.760556
-0.745273 0.580909 4.637521 0.594326172 0.356215686 -0.721031751 0.59895 0.810612
-0.745663 0.542471 4.618799 0.563728993 0.329616953 -0.757338951 0.685038 0.812617
-0.76731 0.549191 4.606934 0.576995947 0.297097913 -0.760794655 0.685697 0.761053
-0.997809 0.759326 4.573678 0.0878019927 0.512111623 -0.854419391 0.343747 0.210413
-1.019357 0.759583 4.574238 -0.0205004122 0.488509822 -0.872317538 0.345634 0.169221
-1.019905 0.721765 4.554317 -0.0496021099 0.455919393 -0.888637799 0.430892 0.172258
-0.997321 0.721974 4.552727 0.0478016824 0.466116405 -0.883431093 0.430028 0.212816
-0.971658 0.719893 4.55578 0.269601583 0.463102718 -0.844304956 0.429259 0.263576
-0.972684 0.756797 4.577695 0.289211752 0.514520908 -0.807232803 0.342486 0.26226
-0.998002 0.683651 4.533872 0.0383002319 0.429602601 -0.902205463 0.515211 0.213914
-1.020767 0.683423 4.535509 -0.0536993046 0.43549436 -0.898588363 0.515443 0.173477
-1.021458 0.64496 4.516945 -0.0415018423 0.433619249 -0.900139958 0.600095 0.17326
-0.999268 0.644842 4.516063 0.0680009734 0.413605921 -0.907912997 0.600489 0.214012
-0.973707 0.642655 4.519291 0.254611055 0.377216379 -0.890438664 0.600681 0.264756
-0.972148 0.681728 4.536582 0.25210407 0.413906683 -0.874714122 0.514915 0.264334
-1.000534 0.606033 4.498254 0.134995693 0.389987558 -0.910870939 0.687057 0.213414
-1.021491 0.60678 4.497755 -0.0178013183 0.42723164 -0.903966946 0.685656 0.171993
-0.975887 0.603025 4.503095 0.287091954 0.33079073 -0.898974807 0.687786 0.265063
-1.042381 0.759666 4.575236 -0.0252994787 0.473590242 -0.88038186 0.348545 0.125616
-1.060754 0.760035 4.576013 0.0321988401 0.4635833 -0.885468102 0.350376 0.089667
-1.064198 0.722062 4.556256 0.0269018372 0.449130672 -0.893060989 0.432711 0.090748
-1.044473 0.721749 4.555601 -0.0338008021 0.452110729 -0.891321151 0.432082 0.127958
-1.045795 0.68342 4.53679 -0.0371992471 0.435991176 -0.899181801 0.515764 0.128764
-1.065973 0.683635 4.537368 0.0223010868 0.432321068 -0.901443928 0.516097 0.090966
-1.06601 0.644808 4.519225 -0.00160003371 0.418708822 -0.908119134 0.599568 0.090812
-1.046075 0.644903 4.518318 -0.0558001437 0.430001107 -0.90110232 0.599543 0.128482
-1.045042 0.606426 4.499698 -0.0925030624 0.422713994 -0.901529846 0.683374 0.127563
-1.064242 0.60564 4.501707 -0.0479994538 0.407395364 -0.911989622 0.68216 0.090775
-0.948871 0.536178 4.499032 0.374408649 -0.0212004897 -0.927021414 0.815345 0.342049
-0.95461 0.515391 4.499756 0.373515221 -0.172007009 -0.911537146 0.855739 0.343733
-0.916892 0.505936 4.516904 0.357720466 -0.208511929 -0.910252077 0.852745 0.428851
-0.910316 0.527334 4.515188 0.388299499 -0.0611999211 -0.919498814 0.813395 0.428055
-0.905659 0.55266 4.518286 0.41350183 0.135900601 -0.900303984 0.763225 0.427402
-0.944605 0.56126 4.502863 0.377500585 0.169300262 -0.910401411 0.763889 0.341018
-0.872382 0.518299 4.532587 0.41822299 -0.0631034689 -0.906149812 0.812211 0.513103
-0.878628 0.496772 4.533925 0.366407555 -0.195804038 -0.909618757 0.85158 0.513311
-0.841243 0.487771 4.551409 0.407593436 -0.158597446 -0.899285517 0.85201 0.597821
-0.835917 0.50902 4.551053 0.464015136 -0.0376012266 -0.88502887 0.811957 0.598245
-0.831555 0.534304 4.554761 0.516436222 0.119408375 -0.847959474 0.761413 0.598513
-0.867701 0.543727 4.535673 0.457803905 0.117100999 -0.881307518 0.762247 0.512892
-0.801767 0.499447 4.570409 0.494212976 0.00560014703 -0.869322824 0.812798 0.684531
-0.806159 0.478804 4.569949 0.437626886 -0.115907121 -0.891654781 0.853803 0.683094
-0.798049 0.524236 4.575287 0.55628552 0.154095989 -0.816578745 0.76118 0.685287
-0.962368 0.492932 4.502102 0.392216583 -0.231609793 -0.89023764 0.898387 0.346532
-0.969193 0.474954 4.504096 0.436613044 -0.19380579 -0.878526246 0.933555 0.348319
-0.934397 0.462764 4.523427 0.371502879 -0.206801603 -0.905107015 0.931711 0.430542
-0.926228 0.482096 4.520428 0.348721072 -0.257515561 -0.901154454 0.895635 0.429969
-0.887286 0.472613 4.537002 0.332598061 -0.235098629 -0.913294676 0.894785 0.513577
-0.894697 0.452942 4.539692 0.330390734 -0.178694989 -0.926774009 0.931285 0.513857
-0.853692 0.444933 4.555377 0.362017607 -0.142306921 -0.921244806 0.931754 0.597189
-0.84809 0.464141 4.553441 0.370301381 -0.196900734 -0.907803386 0.895396 0.597215
-0.81119 0.456337 4.571364 0.404214115 -0.159605574 -0.900631451 0.897024 0.680743
-0.814982 0.438181 4.572965 0.399207775 -0.108502113 -0.910417731 0.932596 0.679461
-0.95013 0.829017 4.657511 0.351015991 0.782535649 -0.514223426 0.129369 0.341075
-0.945584 0.815226 4.640027 0.357605713 0.732711705 -0.57900925 0.173102 0.338991
-0.906589 0.807299 4.655607 0.400025072 0.723245331 -0.562935283 0.17481 0.42508
-0.911516 0.821936 4.674221 0.378598135 0.780996154 -0.496697554 0.130364 0.425489
-0.9161 0.83345 4.690077 0.383087816 0.76057581 -0.524183329 0.092913 0.425424
-0.95437 0.839779 4.67204 0.372721378 0.756043364 -0.53803086 0.093258 0.342188
-0.873807 0.813953 4.692012 0.40420521 0.76570987 -0.500306449 0.129275 0.51002
-0.868758 0.798366 4.673139 0.426409496 0.714315908 -0.554912358 0.174952 0.510503
-0.831423 0.789252 4.690713 0.421101362 0.711602302 -0.562401819 0.1736 0.595463
-0.836092 0.80511 4.709568 0.407530625 0.761157199 -0.504537915 0.126821 0.594425
-0.840067 0.817884 4.725562 0.417423126 0.738840933 -0.529029309 0.08697 0.594049
-0.878315 0.826456 4.708036 0.402496134 0.746392831 -0.529994909 0.090378 0.509631
-0.797457 0.795449 4.725569 0.405425709 0.77414909 -0.486130827 0.123719 0.67846
-0.793914 0.780784 4.70642 0.420022402 0.701837433 -0.575330686 0.170823 0.680157
-0.800406 0.806823 4.7423 0.425920875 0.752636888 -0.50212461 0.084009 0.677918
-0.942662 0.800901 4.625883 0.379198663 0.635997758 -0.672097631 0.214261 0.337823
-0.940673 0.780853 4.610783 0.400293537 0.548391146 -0.734188147 0.265995 0.33747
-0.902092 0.772208 4.626891 0.427224128 0.536130279 -0.728041117 0.265817 0.424667
-0.903755 0.792512 4.641473 0.420802117 0.619903118 -0.662303331 0.215218 0.424799
-0.865668 0.783441 4.658532 0.443326569 0.620637196 -0.64673876 0.215442 0.510784
-0.863708 0.763427 4.643226 0.442698614 0.541898304 -0.714397764 0.265734 0.510792
-0.826361 0.754404 4.660362 0.480444544 0.524148596 -0.703165193 0.265277 0.596628
-0.828365 0.774316 4.675944 0.44981692 0.613223067 -0.649324425 0.214666 0.596262
-0.791812 0.765763 4.692593 0.468221843 0.565526382 -0.678931673 0.212622 0.681716
-0.79089 0.745035 4.678874 0.530601411 0.454601209 -0.715401903 0.263977 0.682962
-0.938931 0.749896 4.590432 0.412920461 0.495724564 -0.764037859 0.341455 0.337832
-0.937852 0.713036 4.568422 0.410728986 0.451431859 -0.792155904 0.428355 0.338482
-0.899668 0.704131 4.584921 0.418808768 0.458509599 -0.783816409 0.427744 0.424944
-0.900678 0.741021 4.606936 0.424701414 0.493501643 -0.759002527 0.340838 0.424705
-0.862051 0.73257 4.622254 0.434604692 0.498905386 -0.749808094 0.340816 0.510458
-0.86087 0.695907 4.599546 0.432230313 0.457732102 -0.77695449 0.427856 0.510373
-0.82394 0.686904 4.616378 0.539037658 0.416229079 -0.732251157 0.427925 0.596308
-0.824853 0.72362 4.639067 0.511118038 0.468616538 -0.720525428 0.340687 0.59637
-0.790889 0.71325 4.660054 0.594682216 0.394388206 -0.700579049 0.339747 0.68372
-0.791363 0.67566 4.639495 0.6423895 0.350194276 -0.681688858 0.427181 0.684287
-0.937852 0.675278 4.548346 0.393402034 0.405102094 -0.825304267 0.514405 0.338993
-0.938976 0.636506 4.53025 0.375717062 0.356216176 -0.855538851 0.60063 0.339511
-0.899845 0.628277 4.545358 0.411234198 0.350929183 -0.841269959 0.600436 0.426034
-0.899215 0.666721 4.564162 0.412734518 0.413334569 -0.811667883 0.514001 0.425416
-0.860338 0.658478 4.579032 0.441113474 0.402112283 -0.802324507 0.514025 0.511128
-0.861084 0.61985 4.561032 0.455519677 0.329414229 -0.827035725 0.6002 0.512087
-0.824755 0.610304 4.57954 0.562517196 0.293008957 -0.773123635 0.599917 0.598344
-0.823721 0.649196 4.596614 0.558479702 0.356987026 -0.748772786 0.514021 0.597264
-0.791867 0.63752 4.620565 0.660121461 0.313910205 -0.682422186 0.513531 0.684961
-0.79292 0.598718 4.603147 0.646829299 0.280612711 -0.709132121 0.599583 0.685484
-0.941267 0.596601 4.514179 0.372521141 0.292416595 -0.880749984 0.688054 0.340179
-0.902081 0.588282 4.529204 0.415407151 0.270404655 -0.868514952 0.687874 0.426712
-0.863736 0.579588 4.545867 0.465496653 0.244198244 -0.850693884 0.687259 0.512614
-0.8276 0.570036 4.564923 0.548312822 0.224705255 -0.805518837 0.686557 0.598653
-0.79504 0.559141 4.587127 0.608923535 0.241009315 -0.755729209 0.68612 0.685599
-0.800723 0.811969 4.748877 0.454403433 0.61680466 -0.642704856 0.06439 0.679825
-0.84104 0.823573 4.731753 0.443327928 0.611438519 -0.655441291 0.066688 0.595237
-0.766223 0.800749 4.762931 0.463014469 0.62111941 -0.63231976 0.063898 0.75454
-0.765304 0.802091 4.764431 0.441518275 0.774432054 -0.453118755 0.055675 0.757539
-0.800107 0.813384 4.75024 0.426734136 0.783762696 -0.451236096 0.054894 0.682054
-0.840778 0.825071 4.732958 0.401220525 0.795540697 -0.454023226 0.056157 0.596528
-0.879781 0.832129 4.714096 0.430607275 0.61731043 -0.658411124 0.070226 0.509632
-0.917906 0.838868 4.69594 0.421310166 0.624215062 -0.657915876 0.07349 0.424278
-0.879873 0.833711 4.715143 0.37649459 0.800688494 -0.465993304 0.059377 0.509533
-0.918352 0.840535 4.696828 0.364320049 0.799644006 -0.477326268 0.063025 0.422745
-0.956375 0.845022 4.67732 0.419018659 0.618727553 -0.664529592 0.07497 0.340446
-0.989531 0.850411 4.661312 0.424900863 0.597201212 -0.680301381 0.07541 0.264889
-0.957174 0.846773 4.67805 0.362689074 0.79637601 -0.48398542 0.065574 0.337843
-0.990634 0.852235 4.661905 0.372112083 0.79242573 -0.483315694 0.067265 0.261399
-0.972134 0.467606 4.50376 0.514912912 0.00600015046 -0.857221495 0.951508 0.346968
-0.937471 0.454889 4.523568 0.44101426 0.0347011221 -0.896829 0.950619 0.429701
-1.000204 0.479153 4.485722 0.51442432 0.0225010638 -0.857240527 0.953274 0.272926
-1.001389 0.47759 4.484699 0.434899422 -0.201699732 -0.877598833 0.961363 0.270084
-0.973015 0.465971 4.502873 0.444826626 -0.21651296 -0.869052019 0.960865 0.344908
-0.937999 0.45317 4.522839 0.385790209 -0.182395371 -0.904377047 0.961006 0.428677
-0.897204 0.44488 4.53987 0.374689258 0.0634981795 -0.924973481 0.950534 0.514106
-0.855282 0.43695 4.555444 0.388514791 0.0780029696 -0.918134954 0.950723 0.598508
-0.897378 0.443076 4.5393 0.328410081 -0.153804721 -0.931928606 0.961235 0.514453
-0.855102 0.435062 4.555032 0.350094015 -0.155697338 -0.92368421 0.961052 0.600199
-0.815653 0.430474 4.573062 0.419820183 0.0909043703 -0.903043415 0.950654 0.681233
-0.782049 0.425401 4.588174 0.381923411 0.095405848 -0.919256348 0.95063 0.7557
-0.81512 0.428502 4.572809 0.381702645 -0.159001102 -0.91050631 0.95996 0.683883
-0.781212 0.423357 4.588057 0.333504794 -0.172602481 -0.926813323 0.958718 0.759124
-0.701906 0.517613 4.667502 0.705029506 0.288312066 -0.647927116 0.680757 0.944649
-0.701113 0.556997 4.686213 0.698839681 0.307017433 -0.646036683 0.598025 0.939953
-0.703717 0.483867 4.650838 0.702333312 0.284713504 -0.652430946 0.75433 0.947979
-0.702201 0.482335 4.651338 0.850781942 0.198495787 -0.486589672 0.757274 0.956094
-0.700382 0.516388 4.668148 0.854548753 0.201411491 -0.478727312 0.68302 0.953941
-0.699581 0.55613 4.68703 0.859033486 0.225008771 -0.459817924 0.599348 0.950279
-0.703291 0.59642 4.703283 0.689331482 0.319614597 -0.650129692 0.512178 0.933018
-0.70498 0.63556 4.720496 0.679384289 0.308492866 -0.665784604 0.425978 0.929596
-0.70175 0.595911 4.704271 0.853382467 0.242795012 -0.461290523 0.512096 0.943858
-0.703431 0.635409 4.721654 0.848696308 0.219899043 -0.480997908 0.424477 0.940244
-0.702723 0.674095 4.73963 0.67352482 0.291810753 -0.679125026 0.342193 0.935441
-0.699447 0.706991 4.756717 0.674321063 0.290209065 -0.67902121 0.267189 0.943697
-0.701165 0.674302 4.740959 0.854593479 0.181098618 -0.486696287 0.339701 0.945002
-0.697881 0.707505 4.758193 0.859885189 0.173797006 -0.479991732 0.263957 0.95191
-1.072145 0.605097 4.501407 0.163797251 0.401293264 -0.901184874 0.683967 0.072282
-1.070005 0.570911 4.486744 0.148202539 0.403906919 -0.902715464 0.758799 0.07319
-1.074151 0.644813 4.518709 0.183091884 0.408381897 -0.894260358 0.600905 0.071385
-1.075966 0.644743 4.518027 -0.0876058269 0.407127079 -0.90916047 0.60261 0.061024
-1.073969 0.604669 4.500554 -0.0772004501 0.392502288 -0.916505343 0.686651 0.06293
-1.071837 0.570176 4.485744 -0.0701982338 0.399189957 -0.914176999 0.762228 0.06507
-1.074187 0.68406 4.536894 0.192701371 0.419202983 -0.887206312 0.516367 0.071274
-1.072253 0.722839 4.555961 0.196315233 0.430733422 -0.880868349 0.431893 0.071458
-1.074051 0.723485 4.55562 -0.0862013206 0.454406962 -0.886613583 0.430861 0.061053
-1.075994 0.684348 4.536383 -0.0903967738 0.430884622 -0.897867956 0.516718 0.060554
-1.068351 0.761149 4.575909 0.200994061 0.438287049 -0.876074112 0.349021 0.071446
-1.064582 0.793928 4.593217 0.21699835 0.434996692 -0.873893354 0.274585 0.070753
-1.066364 0.795239 4.593194 -0.0686005512 0.462603717 -0.883907102 0.271642 0.062582
-1.07014 0.762152 4.575739 -0.0753023608 0.468914701 -0.880027589 0.346922 0.062055
-1.011717 0.854859 4.65099 0.440996141 0.562095082 -0.699693878 0.075558 0.204361
-1.028874 0.860446 4.644004 0.46213079 0.519734628 -0.718547875 0.074482 0.154244
-1.013024 0.85673 4.651493 0.404513274 0.788425873 -0.463415207 0.068337 0.199983
-1.030334 0.862355 4.644439 0.461887201 0.789078135 -0.404988778 0.068063 0.149204
-1.046943 0.869257 4.638005 0.463890033 0.490989451 -0.737384157 0.071252 0.109918
-1.060484 0.87124 4.631366 0.398298586 0.451398398 -0.798497165 0.080139 0.078591
-1.048556 0.871202 4.638371 0.438896675 0.812493845 -0.383697094 0.065717 0.104671
-1.062212 0.873173 4.631661 0.0814980103 0.756681526 -0.648684163 0.075337 0.073207
-1.020695 0.485653 4.474723 0.461510499 0.0800018201 -0.8835201 0.955989 0.214594
-1.038224 0.489492 4.466719 0.4320095 0.145103191 -0.890119574 0.957922 0.165256
-1.039766 0.488014 4.465537 0.386206817 -0.165102914 -0.907516018 0.964156 0.16136
-1.022083 0.484138 4.473609 0.394800906 -0.164600378 -0.903902074 0.963055 0.211146
-1.057411 0.493059 4.457663 0.423409061 0.219204691 -0.879018811 0.957345 0.118196
-1.071492 0.49999 4.453018 0.369406664 0.318405744 -0.873015749 0.945406 0.083857
-1.0733 0.498615 4.451734 0.0346012787 0.07820289 -0.99633682 0.950442 0.079258
-1.059106 0.491617 4.456412 0.338225666 -0.158212006 -0.927670394 0.962881 0.113991
-0.698081 0.729217 4.767789 0.674267103 0.29782964 -0.675767252 0.207337 0.947509
-0.697154 0.746987 4.776549 0.653720338 0.310009645 -0.690321476 0.156965 0.948402
-0.69651 0.729937 4.769363 0.85766036 0.188213246 -0.478533678 0.203432 0.954747
-0.695579 0.747862 4.778198 0.857190657 0.181398023 -0.481994746 0.152561 0.954824
-0.695194 0.766515 4.786702 0.598425613 0.347214861 -0.722030904 0.1104 0.9479
-0.698028 0.781935 4.792272 0.521332691 0.433327173 -0.735146099 0.077293 0.935807
-0.693615 0.767544 4.788424 0.862640523 0.220510359 -0.455221385 0.105776 0.953454
-0.696485 0.78309 4.794033 0.712724137 0.591320025 -0.377312778 0.072413 0.940711
-1.063052 0.816115 4.604362 0.252200958 0.421601602 -0.87100331 0.215422 0.068895
-1.063098 0.834617 4.612919 0.298225575 0.405934812 -0.863874085 0.164658 0.067318
-1.064871 0.836289 4.613069 -0.0939000183 0.40920008 -0.907600177 0.160476 0.060825
-1.064829 0.817631 4.604438 -0.0764010803 0.437406185 -0.89601267 0.211765 0.061656
-1.064055 0.856343 4.622462 0.340215887 0.404418885 -0.848939642 0.115419 0.067471
-1.065825 0.858169 4.622685 -0.100703403 0.449215179 -0.887729997 0.110962 0.061633
-0.704594 0.461357 4.639907 0.686426222 0.294211239 -0.665025404 0.812705 0.950818
-0.704709 0.44306 4.631356 0.650026047 0.311512483 -0.693127774 0.862714 0.95225
-0.703202 0.441167 4.631683 0.856801465 0.219700376 -0.466500798 0.866775 0.958642
-0.703083 0.45962 4.640309 0.852307117 0.208001737 -0.479904007 0.816273 0.957989
-0.704232 0.42195 4.621831 0.590742745 0.319623127 -0.740853606 0.911191 0.951355
-0.708123 0.407463 4.612939 0.512116793 0.279909178 -0.812026627 0.946042 0.939593
-0.706661 0.405309 4.61312 0.682917199 -0.117902969 -0.720918157 0.950751 0.944828
-0.702728 0.419903 4.622084 0.857394869 0.173598961 -0.4844971 0.915539 0.95707
-1.069565 0.548255 4.47648 0.157797557 0.416393554 -0.89538614 0.818643 0.073332
-1.070805 0.531227 4.467891 0.206915654 0.425332178 -0.881066655 0.868471 0.073049
-1.071402 0.547314 4.475383 -0.0766035024 0.429019615 -0.900041151 0.822726 0.06624
-1.072645 0.530132 4.466719 -0.0988995777 0.471697986 -0.876196259 0.873037 0.066867
-1.073702 0.513926 4.458249 0.285912965 0.400518162 -0.870539476 0.913253 0.072683
-1.075546 0.512676 4.457003 -0.119299705 0.435398925 -0.892297796 0.918051 0.067379
-0.744934 0.793343 4.771379 0.462123074 0.616230769 -0.637731843 0.065781 0.810525
-0.72923 0.789103 4.778179 0.445327072 0.590735912 -0.672840903 0.067695 0.856686
-0.727954 0.79036 4.779838 0.377198503 0.796296839 -0.472898123 0.06139 0.861261
-0.743812 0.794637 4.77297 0.433424314 0.772543337 -0.46402603 0.058593 0.814413
-0.711484 0.787382 4.787287 0.453904889 0.527805684 -0.717907732 0.067295 0.901924
-0.710055 0.788603 4.789015 0.377301543 0.815803337 -0.438301793 0.061807 0.906671
-0.7582 0.421681 4.596231 0.305611655 0.0874033332 -0.948136158 0.950953 0.815332
-0.7395 0.416998 4.601009 0.308210643 0.11670403 -0.944132601 0.952257 0.864712
-0.75716 0.419588 4.596204 0.242914348 -0.190511253 -0.951156182 0.958087 0.819544
-0.738307 0.414868 4.601051 0.214106785 -0.185005863 -0.959130395 0.958553 0.869529
-0.721344 0.409035 4.606288 0.403287922 0.199894013 -0.892973256 0.955175 0.908422
-0.719997 0.406869 4.606399 0.295199042 -0.200799348 -0.934096969 0.960598 0.913469
-0.719903 0.405853 4.607071 0.0855992121 -0.743893152 -0.662793899 0.9666 0.917211
-0.706528 0.404296 4.613815 0.699703572 -0.637703255 -0.322101644 0.955541 0.950086
-0.738263 0.413864 4.6017 -0.0623022868 -0.717926352 -0.693325449 0.965408 0.871832
-0.738795 0.413422 4.602654 -0.155296775 -0.860282132 -0.485589914 0.972543 0.872878
-0.720435 0.405411 4.608024 -0.0688010771 -0.88981393 -0.451107062 0.972892 0.920301
-0.70706 0.403854 4.614768 0.57871136 -0.813715973 -0.0544010679 0.960372 0.955355
-0.757168 0.418596 4.59683 0.0392019897 -0.742737699 -0.668433927 0.965506 0.821236
-0.781288 0.422381 4.588653 0.131404551 -0.755426165 -0.641922233 0.96682 0.760634
-0.78182 0.421939 4.589606 0.0218001964 -0.911508213 -0.4107037 0.974929 0.761186
-0.7577 0.418154 4.597784 -0.0462008406 -0.896116305 -0.441408031 0.973066 0.821669
-0.709933 0.788715 4.790226 0.185609465 0.966949311 0.174808915 0.055914 0.909887
-0.727884 0.790484 4.781026 0.0967998311 0.983798283 0.150899737 0.055015 0.863188
-0.696325 0.78318 4.795255 0.746082329 0.604585681 0.278993392 0.067259 0.945428
-0.696857 0.782738 4.796208 0.629196099 0.508996844 0.587396358 0.061969 0.950051
-0.710465 0.788273 4.791179 0.0339002424 0.89930643 0.436003117 0.049818 0.912337
-0.728416 0.790042 4.781979 -0.0252996214 0.912186349 0.408993879 0.048606 0.863791
-0.743792 0.794773 4.774135 0.217403169 0.959713988 0.178002594 0.051612 0.81565
-0.765352 0.802244 4.765566 0.244013738 0.951253557 0.188610619 0.047769 0.758378
-0.744324 0.794331 4.775088 0.0828996365 0.885596117 0.456997996 0.044734 0.815562
-0.765884 0.801802 4.766519 0.106498129 0.877984574 0.4666918 0.040021 0.758137
-1.076515 0.511964 4.457223 -0.709666282 0.277325902 -0.647660491 0.921804 0.0615
-1.074258 0.497862 4.451941 -0.468406089 -0.313004069 -0.826210741 0.95561 0.074646
-1.073613 0.529472 4.466963 -0.721265534 0.394335829 -0.56945174 0.875435 0.060053
-1.074145 0.52903 4.467916 -0.885990799 0.294596941 -0.358096281 0.876749 0.052922
-1.077047 0.511522 4.458176 -0.892082435 0.187596306 -0.411091906 0.925033 0.055333
-1.07479 0.497419 4.452894 -0.662186253 -0.46679031 -0.586187831 0.960843 0.070028
-1.072369 0.546706 4.475652 -0.712740107 0.322418143 -0.622935054 0.824521 0.058799
-1.072802 0.569636 4.486047 -0.705819463 0.263607269 -0.657518131 0.763815 0.056912
-1.073334 0.569194 4.487 -0.891299581 0.152499928 -0.426999799 0.764481 0.048735
-1.072901 0.546264 4.476605 -0.891751963 0.214088467 -0.398678524 0.825173 0.051184
-0.702582 0.418925 4.622804 0.982216673 -0.171502911 0.0764012969 0.918689 0.963168
-0.703054 0.440242 4.632428 0.985973872 -0.061398373 0.155195887 0.868438 0.96528
-0.703114 0.418483 4.623757 0.886108352 -0.293502766 0.358703381 0.921239 0.969456
-0.703586 0.4398 4.633381 0.89202975 -0.1829061 0.413313784 0.868903 0.972041
-0.702934 0.458746 4.641078 0.986901924 -0.0855001667 0.136800267 0.817186 0.965246
-0.70205 0.481529 4.652139 0.986751224 -0.105205461 0.123506411 0.757808 0.964191
-0.703466 0.458304 4.642031 0.891898992 -0.210799762 0.400099548 0.816773 0.972546
-0.702582 0.481087 4.653092 0.891142232 -0.232010995 0.389918479 0.757136 0.972278
-1.066769 0.858483 4.623395 -0.700191017 0.389894998 -0.598092327 0.107765 0.055414
-1.065817 0.836551 4.613754 -0.719846471 0.269117373 -0.639841306 0.158781 0.054099
-1.063143 0.873523 4.632395 -0.395028101 0.891263402 -0.222715843 0.070458 0.067807
-1.063675 0.873081 4.633348 -0.578107969 0.814111223 0.0549007568 0.06554 0.062399
-1.067301 0.858041 4.624348 -0.888329409 0.272909035 -0.369312226 0.1052 0.049005
-1.066349 0.836109 4.614707 -0.891918151 0.168803435 -0.419508537 0.15833 0.047258
-1.065776 0.817842 4.605098 -0.711516867 0.320507598 -0.625314823 0.210772 0.054331
-1.067313 0.795381 4.593822 -0.703220112 0.37341068 -0.605017304 0.270947 0.0544
-1.066308 0.8174 4.606051 -0.891687405 0.219996893 -0.395594412 0.21111 0.046963
-1.067845 0.794939 4.594775 -0.888519681 0.271206007 -0.370108198 0.271377 0.046214
-0.693444 0.767593 4.789633 0.987265255 -0.00740048915 0.158910504 0.102002 0.959496
-0.695409 0.747858 4.779382 0.982678607 -0.139496963 0.121997344 0.150198 0.961882
-0.695941 0.747416 4.780335 0.889563902 -0.257989531 0.376984702 0.148856 0.969258
-0.693976 0.767151 4.790586 0.891101733 -0.147100286 0.429300835 0.098654 0.965782
-0.696342 0.729882 4.770524 0.984871725 -0.117896615 0.126996354 0.2019 0.962379
-0.697714 0.707382 4.759321 0.983195556 -0.137399379 0.120199457 0.262821 0.960218
-0.698246 0.70694 4.760273 0.889271504 -0.261591617 0.375187977 0.262733 0.968571
-0.696873 0.72944 4.771476 0.890674576 -0.241193115 0.385388999 0.201555 0.970208
-1.060026 0.490842 4.45663 0.0283009146 -0.707822874 -0.705822809 0.968833 0.111
-1.040635 0.487227 4.465778 0.14440027 -0.757301416 -0.636901191 0.970638 0.159789
-1.060558 0.4904 4.457583 -0.107997865 -0.877482652 -0.467290762 0.974993 0.108615
-1.041166 0.486785 4.466731 0.009000371 -0.909037471 -0.416617173 0.977243 0.159381
-1.022901 0.483338 4.473874 0.125806323 -0.744437413 -0.655732955 0.970187 0.210244
-1.002139 0.476774 4.484993 0.116603103 -0.7439198 -0.658017513 0.969413 0.269468
-1.023432 0.482896 4.474826 -0.0265987874 -0.901058922 -0.432880265 0.977353 0.210615
-1.002671 0.476332 4.485946 -0.061000018 -0.892000263 -0.447900132 0.977442 0.269967
-1.049448 0.871556 4.639128 0.194507754 0.961138317 0.19590781 0.059591 0.100807
-1.031175 0.862696 4.645219 0.288604976 0.921015878 0.26160451 0.06107 0.146812
-1.031707 0.862254 4.646172 0.164196565 0.85658208 0.489189766 0.05379 0.145746
-1.04998 0.871114 4.64008 0.0858988606 0.884588266 0.458393919 0.053169 0.097635
-1.013813 0.85706 4.652296 0.182907965 0.96634208 0.180907878 0.060801 0.19822
-0.991356 0.852548 4.662739 0.11590609 0.983751693 0.137107204 0.059066 0.259813
-0.991888 0.852106 4.663692 -0.0270997575 0.912491833 0.408196347 0.050839 0.25918
-1.014346 0.856618 4.653248 0.0434000458 0.896800946 0.440300465 0.053109 0.197766
-1.071091 0.762192 4.576318 -0.703145266 0.38802498 -0.595838358 0.34652 0.052598
-1.075006 0.723405 4.556142 -0.709540569 0.360220596 -0.605634628 0.430848 0.050498
-1.071623 0.76175 4.577271 -0.88711493 0.285304802 -0.362806106 0.346966 0.043108
-1.075537 0.722964 4.557095 -0.889611454 0.257503315 -0.377204857 0.431345 0.039867
-1.07695 0.68415 4.536848 -0.713334548 0.316015305 -0.625530295 0.517293 0.049673
-1.076926 0.644425 4.518435 -0.711716224 0.272606214 -0.647414758 0.603738 0.050552
-1.077482 0.683708 4.5378 -0.891826149 0.212406228 -0.399411711 0.517981 0.038712
-1.077458 0.643983 4.519388 -0.891837288 0.16670697 -0.420517582 0.604579 0.040026
-1.074932 0.604232 4.500905 -0.706643368 0.247315178 -0.662940686 0.688066 0.053564
-1.075464 0.60379 4.501857 -0.890676518 0.137996362 -0.433188579 0.688848 0.044191
-0.701 0.674076 4.742038 0.983520413 -0.138002864 0.116802424 0.338672 0.954629
-0.703269 0.635064 4.722676 0.987480976 -0.0741985706 0.139197318 0.423526 0.951029
-0.703801 0.634622 4.723629 0.892056174 -0.196890327 0.406780015 0.42285 0.961883
-0.701532 0.673634 4.74299 0.88937058 -0.260391386 0.375787569 0.338375 0.964288
-0.701591 0.595447 4.705236 0.985994335 -0.0242998604 0.164999052 0.511454 0.954835
-0.699425 0.555546 4.687937 0.98647532 -0.0547041768 0.154511797 0.599117 0.96069
-0.699957 0.555104 4.68889 0.892001855 -0.174000362 0.417200868 0.598109 0.971144
-0.702123 0.595005 4.706189 0.890984363 -0.144897457 0.430292448 0.510531 0.965879
-0.700229 0.515685 4.668999 0.986657553 -0.099705816 0.128707508 0.683176 0.96324
-0.700761 0.515243 4.669952 0.891517608 -0.223504414 0.394007782 0.682279 0.972544
-0.815297 0.42755 4.573359 0.165900941 -0.753304271 -0.636403608 0.969276 0.685237
-0.855397 0.434138 4.55553 0.134495367 -0.74717426 -0.650877578 0.971493 0.601287
-0.855929 0.433696 4.556483 0.00830010911 -0.908911948 -0.41690548 0.981988 0.602074
-0.815829 0.427108 4.574312 0.0359983655 -0.914058498 -0.403981658 0.978597 0.685944
-0.897791 0.44218 4.539745 0.0945016089 -0.744312672 -0.661111256 0.97209 0.515024
-0.938529 0.452302 4.523232 0.0891038359 -0.750332303 -0.6550282 0.971522 0.428701
-0.939061 0.45186 4.524184 -0.0556998858 -0.893498168 -0.445599087 0.982102 0.429247
-0.898323 0.441738 4.540699 -0.0289011864 -0.900536968 -0.433817809 0.983022 0.515709
-0.973664 0.465131 4.503213 0.10429817 -0.750586827 -0.652488549 0.970244 0.344568
-0.974195 0.464689 4.504166 -0.0703991461 -0.889289213 -0.451894519 0.979634 0.345089
-0.957795 0.847062 4.678928 0.0975000497 0.986800503 0.129300066 0.056143 0.336376
-0.918855 0.840796 4.69776 0.101403354 0.985532597 0.135804492 0.052447 0.421517
-0.919387 0.840354 4.698712 -0.0384009197 0.914521903 0.402709645 0.041813 0.420441
-0.958327 0.84662 4.679882 -0.0446024644 0.915550586 0.399722085 0.046695 0.335477
-0.880258 0.833944 4.716126 0.125297039 0.980576829 0.150896434 0.048387 0.508843
-0.841046 0.825276 4.733995 0.172108918 0.970050264 0.171408882 0.045558 0.596462
-0.841578 0.824834 4.734948 0.036099526 0.898788199 0.436894264 0.034925 0.595716
-0.88079 0.833502 4.71708 -0.0119994653 0.909659462 0.415181498 0.037328 0.507859
-0.800257 0.813561 4.75133 0.217301979 0.958508727 0.18450168 0.045552 0.682478
-0.800789 0.813119 4.752283 0.0809987899 0.88618676 0.456193185 0.036287 0.681999
-0.816448 0.426593 4.575422 -0.0980015837 -0.986815947 -0.128802081 0.670064 0.959732
-0.857051 0.433443 4.558524 -0.341709918 -0.805523381 0.484114052 0.5864 0.950837
-0.856548 0.433182 4.557593 -0.114098725 -0.982489021 -0.147298354 0.586403 0.96132
-0.817069 0.426882 4.576301 -0.347297241 -0.796593671 0.494796069 0.669683 0.95042
-0.783161 0.421737 4.591549 -0.323498638 -0.780396715 0.535097747 0.743964 0.950502
-0.782439 0.421424 4.590715 -0.105498851 -0.987689239 -0.115498742 0.744613 0.958451
-0.781907 0.421866 4.589763 0.0198998637 -0.911193758 -0.411497181 0.74412 0.966394
-0.815916 0.427035 4.574469 0.036101147 -0.914129042 -0.403812829 0.669596 0.969073
-0.856016 0.433624 4.55664 0.00959979605 -0.909180685 -0.416291156 0.58589 0.971872
-0.898942 0.441223 4.541808 -0.151900265 -0.975701703 -0.157900276 0.50013 0.962106
-0.939948 0.45155 4.526331 -0.455218678 -0.766931468 0.452318559 0.414671 0.951095
-0.939681 0.451345 4.525294 -0.213808702 -0.962039156 -0.169606903 0.413575 0.961595
-0.899327 0.441456 4.542792 -0.360809453 -0.801420998 0.477012498 0.500691 0.951241
-0.89841 0.441665 4.540855 -0.0280990754 -0.900770361 -0.43338574 0.499461 0.973049
-0.939149 0.451787 4.524341 -0.0564998884 -0.893298236 -0.445899119 0.412785 0.972157
-0.974815 0.464174 4.505276 -0.257294982 -0.948381502 -0.185396384 0.329068 0.959295
-1.003338 0.47597 4.488191 -0.52131113 -0.728515554 0.444409488 0.254671 0.948247
-1.00329 0.475817 4.487056 -0.229602754 -0.955111457 -0.187202246 0.253069 0.956499
-0.974964 0.464351 4.506365 -0.542619206 -0.719825479 0.432915323 0.330455 0.949863
-0.974283 0.464616 4.504323 -0.0709028351 -0.889135553 -0.452118078 0.328338 0.968751
-1.002758 0.476259 4.486103 -0.0587999647 -0.892599464 -0.446999732 0.252385 0.964799
-0.958947 0.846105 4.680991 -0.182303685 0.754215247 0.630812752 0.33752 0.04219
-0.920301 0.838915 4.70032 -0.404593201 0.160597301 0.900284871 0.422339 0.049909
-0.920006 0.839839 4.699822 -0.174910192 0.75594405 0.63083676 0.422179 0.03926
-0.959124 0.845153 4.681542 -0.409326537 0.154810037 0.899158294 0.338026 0.051614
-0.992584 0.850615 4.665397 -0.402000764 0.149200283 0.903401716 0.26274 0.052157
-0.992508 0.851591 4.664801 -0.164799235 0.750496514 0.639997027 0.262011 0.044124
-0.991976 0.852033 4.663848 -0.0270997575 0.912491833 0.408196347 0.262434 0.036084
-0.958415 0.846547 4.680038 -0.0446024644 0.915550586 0.399722085 0.337836 0.032718
-0.919474 0.840281 4.698869 -0.0385007741 0.914518386 0.402708097 0.422477 0.028516
-0.88141 0.832988 4.718189 -0.148106404 0.753432575 0.640627698 0.509367 0.035995
-0.842728 0.823452 4.73645 -0.364405448 0.159302382 0.917513717 0.596215 0.044838
-0.842197 0.824319 4.736057 -0.101805222 0.742438084 0.662133965 0.597237 0.034117
-0.881822 0.832092 4.718634 -0.389525256 0.164210647 0.906258759 0.508942 0.047103
-0.880878 0.83343 4.717236 -0.0120994462 0.909658366 0.415180998 0.509823 0.024776
-0.841665 0.824761 4.735105 0.0359996571 0.898791439 0.436895839 0.597889 0.023331
-0.801408 0.812604 4.753393 -0.0615992112 0.726790694 0.68409124 0.683941 0.035344
-0.767253 0.800472 4.767922 -0.332696756 0.130998723 0.933890895 0.759152 0.047166
-0.766503 0.801288 4.767628 -0.0402989303 0.714981021 0.697981472 0.760854 0.03918
-0.802057 0.811764 4.753732 -0.343311723 0.143904914 0.928131691 0.68254 0.044757
-0.800876 0.813046 4.752439 0.0810024848 0.886227185 0.456113992 0.684691 0.026012
-0.765971 0.80173 4.766675 0.106601966 0.878016191 0.466608604 0.761674 0.031345
-0.702151 0.673119 4.7441 0.71426095 -0.361730868 0.599151128 0.949503 0.33329
-0.70538 0.63379 4.725146 0.0758019189 -0.422210688 0.903322868 0.935524 0.417998
-0.70442 0.634108 4.724738 0.711412322 -0.303605258 0.633810978 0.946245 0.418018
-0.703114 0.672682 4.744451 0.0885020294 -0.455510445 0.885820312 0.940142 0.333486
-0.699831 0.705885 4.761685 0.0989022743 -0.458410541 0.88322031 0.947071 0.258728
-0.698865 0.706425 4.761383 0.716316629 -0.359208339 0.598213888 0.954904 0.258322
-0.698333 0.706867 4.76043 0.889304865 -0.261601431 0.375102052 0.962712 0.25915
-0.701619 0.673561 4.743147 0.88937058 -0.260391386 0.375787569 0.958873 0.334062
-0.703888 0.63455 4.723785 0.892146299 -0.196810214 0.406621102 0.957038 0.418607
-0.702742 0.59449 4.707298 0.712409856 -0.251603481 0.655109063 0.950042 0.505682
-0.70153 0.55451 4.690522 0.0959983009 -0.409192757 0.90738394 0.944858 0.592769
-0.700576 0.55459 4.69 0.715400998 -0.27990039 0.640200893 0.955516 0.593552
-0.703699 0.594292 4.707763 0.0854057437 -0.395326587 0.914561506 0.938943 0.505302
-0.70221 0.594932 4.706346 0.891022699 -0.144903691 0.43021096 0.961246 0.506098
-0.700044 0.555032 4.689047 0.891964639 -0.173993102 0.417283457 0.966277 0.59386
-0.70138 0.514728 4.671062 0.711796993 -0.327998614 0.621097376 0.95729 0.678896
-0.70415 0.480715 4.65483 0.0800985638 -0.441692081 0.893583978 0.948394 0.754107
-0.703201 0.480573 4.654202 0.709909438 -0.335204457 0.619408235 0.956799 0.75559
-0.702332 0.514768 4.67164 0.0873041968 -0.436120965 0.895643055 0.947726 0.67777
-0.700848 0.515171 4.670108 0.891573244 -0.223493293 0.39388818 0.966909 0.679218
-0.702669 0.481015 4.653249 0.891294198 -0.231798491 0.389697463 0.96527 0.756073
-1.072242 0.761236 4.578381 -0.983434416 0.155105428 -0.0938032827 0.04435 0.326352
-1.068314 0.793619 4.596686 -0.843885878 -0.181496963 0.504891551 0.056229 0.250959
-1.068464 0.794424 4.595884 -0.985249224 0.139006945 -0.0998049864 0.04777 0.249289
-1.072089 0.760533 4.579231 -0.84721023 -0.172402082 0.502506068 0.053906 0.327769
-1.076001 0.721865 4.559112 -0.853595792 -0.183099097 0.487697596 0.052203 0.412605
-1.076157 0.722449 4.558204 -0.984935591 0.131404748 -0.112404062 0.041632 0.411513
-1.075625 0.722891 4.557251 -0.889611454 0.257503315 -0.377204857 0.030997 0.410718
-1.071711 0.761678 4.577428 -0.887082742 0.28529445 -0.36289294 0.034761 0.325586
-1.067932 0.794866 4.594931 -0.88849558 0.27129865 -0.370098159 0.039244 0.248554
-1.078102 0.683193 4.53891 -0.98674738 0.088804264 -0.135806521 0.041289 0.498431
-1.077943 0.682729 4.539875 -0.856206554 -0.205501573 0.474003629 0.052201 0.498944
-1.077915 0.643123 4.521519 -0.854756335 -0.230315179 0.465130655 0.053286 0.584843
-1.078077 0.643468 4.520498 -0.987088693 0.0436994994 -0.154098235 0.042768 0.584929
-1.077545 0.64391 4.519545 -0.891814644 0.166602736 -0.420606906 0.032175 0.584515
-1.07757 0.683635 4.537957 -0.891865548 0.212291799 -0.399384572 0.030294 0.497813
-1.076083 0.603275 4.502967 -0.986848061 0.0144007013 -0.161007841 0.045518 0.668829
-1.075918 0.603049 4.504045 -0.849109128 -0.248702674 0.46600501 0.054845 0.668357
-1.073786 0.568556 4.489236 -0.845501475 -0.244900427 0.474500828 0.05588 0.742727
-1.073953 0.56868 4.488109 -0.987914947 0.0293004433 -0.152202303 0.047939 0.743459
-1.073421 0.569122 4.487156 -0.891358187 0.152492847 -0.426879976 0.040002 0.743089
-1.075551 0.603717 4.502014 -0.890676518 0.137996362 -0.433188579 0.036162 0.668471
-1.024052 0.482382 4.475936 -0.166607626 -0.970744432 -0.172907914 0.192038 0.954501
-1.041715 0.486394 4.469028 -0.379089126 -0.800977024 0.463386708 0.143009 0.945099
-1.041786 0.48627 4.46784 -0.123403243 -0.97982575 -0.157204131 0.140435 0.951997
-1.024032 0.482518 4.477101 -0.430588553 -0.777479331 0.458387814 0.193946 0.946946
-1.02352 0.482824 4.474983 -0.0255004883 -0.90131726 -0.432408281 0.191192 0.962271
-1.041254 0.486712 4.466887 0.008999996 -0.908999595 -0.416699815 0.138798 0.95924
-1.061177 0.489885 4.458693 -0.259300637 -0.946802324 -0.190600468 0.092722 0.947682
-1.07525 0.496995 4.455226 -0.73456251 -0.561047744 0.381632476 0.063681 0.928098
-1.075409 0.496905 4.454004 -0.775156856 -0.567941657 -0.276720297 0.058521 0.932567
-1.061055 0.489997 4.459904 -0.424516569 -0.792030914 0.438717123 0.096588 0.941841
-1.060645 0.490327 4.457739 -0.107899032 -0.877492125 -0.467295806 0.089244 0.953778
-1.074877 0.497347 4.453051 -0.662060374 -0.466872056 -0.58626491 0.053215 0.936946
-1.014965 0.856103 4.654358 -0.0873066543 0.741856543 0.664850674 0.20227 0.044397
-1.014973 0.855111 4.654984 -0.366902821 0.147401134 0.918507063 0.203214 0.051477
-1.032283 0.860735 4.647931 -0.29041762 0.163909945 0.942757199 0.153834 0.049307
-1.032326 0.86174 4.647281 0.0496993912 0.72249115 0.689591553 0.152275 0.042838
-1.031794 0.862182 4.646328 0.164301901 0.856609911 0.489105659 0.152219 0.036305
-1.014433 0.856545 4.653405 0.0434000458 0.896800946 0.440300465 0.202809 0.037315
-1.050599 0.870599 4.64119 -0.0677010687 0.743311733 0.665510505 0.106 0.039277
-1.050505 0.869582 4.641862 -0.296299274 0.201499506 0.933597713 0.108981 0.045376
-1.064162 0.871553 4.635153 -0.68280732 0.121601304 0.720407723 0.076208 0.05341
-1.064294 0.872566 4.634458 -0.698916351 0.638814945 0.321607524 0.071515 0.047925
-1.063762 0.873008 4.633505 -0.578107969 0.814111223 0.0549007568 0.066979 0.042254
-1.050068 0.871041 4.640237 0.0858988606 0.884588266 0.458393919 0.103921 0.032945
-0.704085 0.457789 4.64314 0.713105027 -0.313002207 0.627304423 0.955479 0.817511
-0.705151 0.439548 4.635175 0.091401791 -0.416308158 0.904617726 0.945615 0.867601
-0.704205 0.439285 4.63449 0.717781808 -0.284292795 0.635583891 0.952764 0.870314
-0.705032 0.458 4.643801 0.0828000791 -0.431300412 0.898400858 0.94771 0.815581
-0.703553 0.458231 4.642187 0.891953474 -0.210712633 0.400023982 0.963485 0.818327
-0.703673 0.439727 4.633537 0.892160616 -0.182791931 0.413081765 0.960276 0.872059
-0.703733 0.417969 4.624866 0.695237123 -0.409921888 0.590431527 0.948086 0.91965
-0.70861 0.403689 4.616611 -0.0830033646 -0.754330577 0.651226398 0.92831 0.948998
-0.707679 0.403339 4.615878 0.394814995 -0.891033842 0.224008508 0.932875 0.954375
-0.704678 0.418283 4.625576 0.0941048079 -0.460523529 0.882645095 0.942053 0.915576
-0.703201 0.418411 4.623913 0.88619338 -0.293497808 0.358497322 0.954365 0.923348
-0.707147 0.403781 4.614924 0.5786009 -0.813801265 -0.0543000844 0.937288 0.959934
-1.07352 0.545749 4.477715 -0.986666839 0.0947968139 -0.132295554 0.048432 0.802145
-1.073351 0.545694 4.478875 -0.849106644 -0.212701664 0.483503783 0.055393 0.801193
-1.074594 0.528512 4.470211 -0.859342547 -0.160007922 0.485724049 0.054243 0.849849
-1.074765 0.528515 4.469026 -0.977037397 0.181806959 -0.111104253 0.047953 0.851382
-1.074233 0.528957 4.468073 -0.886127922 0.294409277 -0.357911278 0.041549 0.851645
-1.072988 0.546191 4.476762 -0.891842145 0.214010113 -0.398518832 0.041441 0.801777
-1.077666 0.511008 4.459285 -0.987641082 0.0464019301 -0.149706227 0.047457 0.897661
-1.077495 0.511056 4.460495 -0.870719378 -0.189004206 0.454010104 0.053286 0.894792
-1.077134 0.51145 4.458333 -0.892119105 0.187604018 -0.411008802 0.041395 0.899801
-0.697493 0.728925 4.772586 0.715636298 -0.341617327 0.609230901 0.95754 0.199938
-0.69846 0.728317 4.772855 0.0938044685 -0.446521271 0.889842389 0.950584 0.200688
-0.697529 0.746242 4.78169 0.0933008672 -0.453404214 0.886408239 0.951671 0.152003
-0.696561 0.746902 4.781445 0.717941649 -0.359420851 0.596134583 0.958103 0.150503
-0.696029 0.747344 4.780492 0.889486538 -0.258096094 0.377094293 0.964645 0.15022
-0.696961 0.729367 4.771633 0.890619571 -0.241205301 0.385508472 0.964517 0.200555
-0.694595 0.766636 4.791696 0.702917805 -0.243706173 0.668216926 0.957285 0.102384
-0.695565 0.765925 4.791915 0.102702119 -0.410808475 0.905918689 0.951326 0.105308
-0.698434 0.78147 4.797524 -0.054701318 -0.046401118 0.997424033 0.94002 0.070954
-0.697476 0.782223 4.797318 0.440405556 0.350604423 0.826510426 0.945262 0.066439
-0.696945 0.782665 4.796364 0.629390811 0.508992569 0.587191427 0.950571 0.061923
-0.694063 0.767078 4.790743 0.891198815 -0.147099804 0.429099429 0.96345 0.100086
-1.066928 0.816885 4.607161 -0.987034152 0.0916031695 -0.131804561 0.050221 0.186668
-1.06682 0.834669 4.61656 -0.85810792 -0.225702083 0.461204257 0.060157 0.135814
-1.066968 0.835594 4.615816 -0.985160525 0.048602986 -0.164610113 0.052871 0.133049
-1.066779 0.816012 4.60793 -0.848715604 -0.20450376 0.487708967 0.058096 0.188697
-1.066396 0.817327 4.606207 -0.891631631 0.220007805 -0.395714038 0.042099 0.185762
-1.066436 0.836037 4.614863 -0.891865673 0.168893499 -0.419583851 0.045209 0.131298
-1.06792 0.857526 4.625457 -0.983972763 0.154111396 -0.0897066336 0.056887 0.082991
-1.067774 0.856549 4.626177 -0.861146792 -0.182609922 0.474425779 0.063063 0.087137
-1.067388 0.857968 4.624505 -0.888329409 0.272909035 -0.369312226 0.050455 0.07925
-0.758319 0.417639 4.598893 -0.158605576 -0.975834306 -0.150305284 0.803553 0.958588
-0.759109 0.417968 4.599696 -0.312508221 -0.768520216 0.558314687 0.80267 0.951594
-0.740256 0.413249 4.604543 -0.397886221 -0.786172775 0.472883624 0.851379 0.953835
-0.739415 0.412907 4.603763 -0.264597486 -0.932191144 -0.246997654 0.852873 0.960199
-0.738883 0.413349 4.60281 -0.161905587 -0.857629597 -0.488116845 0.852928 0.966633
-0.757787 0.418081 4.59794 -0.0543015826 -0.893926054 -0.444912967 0.803002 0.96558
-0.721054 0.404896 4.609134 -0.173997253 -0.96738473 -0.184097094 0.898559 0.963343
-0.721946 0.40525 4.609891 -0.417608181 -0.814115949 0.403507905 0.895672 0.95736
-0.720522 0.405338 4.608181 -0.064300825 -0.891111433 -0.449205763 0.900583 0.969556
-0.744943 0.793816 4.776198 -0.0665999494 0.72359945 0.686999478 0.819352 0.045126
-0.729904 0.78874 4.78333 -0.392634269 0.15651366 0.906279099 0.864475 0.057405
-0.729035 0.789528 4.783089 -0.165997643 0.765389132 0.621791171 0.867212 0.050727
-0.745761 0.793017 4.776462 -0.344802634 0.125800961 0.930207107 0.81729 0.052373
-0.744412 0.794258 4.775245 0.0828996365 0.885596117 0.456997996 0.820283 0.037856
-0.728503 0.78997 4.782136 -0.0252996214 0.912186349 0.408993879 0.868835 0.043818
-0.711085 0.787759 4.792288 -0.0901985505 0.737688145 0.669089248 0.91221 0.053525
-0.712004 0.786983 4.792507 -0.373894446 0.191497155 0.907486519 0.908228 0.059293
-0.710553 0.788201 4.791336 0.0338987642 0.899267218 0.436084103 0.915649 0.047504
-0.713699 0.785542 4.791255 -0.442928751 -0.244915898 0.862455984 0.903161 0.064552
-0.705615 0.775376 4.791478 -0.391127368 -0.329423051 0.859360132 0.923628 0.087137
-0.700243 0.780095 4.79624 -0.388408877 -0.322207364 0.863319731 0.934913 0.075468
-0.71597 0.779309 4.788054 -0.397596406 -0.251597726 0.882392023 0.898824 0.079585
-0.733858 0.780922 4.77998 -0.352314773 -0.115404839 0.928738943 0.854853 0.079363
-0.731445 0.787262 4.782147 -0.430891738 -0.189496366 0.882283082 0.859513 0.063623
-0.747149 0.791502 4.775348 -0.399504193 -0.129001354 0.907609525 0.812965 0.059573
-0.750111 0.784612 4.774199 -0.300417027 0.0325018421 0.953254027 0.808942 0.076676
-0.771797 0.791297 4.766535 -0.305416988 0.137407643 0.942252409 0.752649 0.07409
-0.768438 0.798909 4.7669 -0.391125356 -0.0833054004 0.916559418 0.755683 0.055456
-0.723559 0.407195 4.610257 -0.428612856 -0.520315607 0.738622155 0.89106 0.95184
-0.744137 0.420529 4.609339 -0.323997816 -0.711795203 0.6231958 0.843084 0.931926
-0.741715 0.415157 4.604977 -0.372924545 -0.563637097 0.73704851 0.847009 0.947612
-0.725738 0.413581 4.61379 -0.36609465 -0.593091332 0.71708952 0.887408 0.936537
-0.715334 0.412778 4.618232 -0.344593396 -0.49989042 0.794584772 0.91275 0.931261
-0.710338 0.405622 4.616907 -0.383405197 -0.468706353 0.795810787 0.923438 0.943986
-0.760415 0.41984 4.600199 -0.333301065 -0.609401947 0.719402298 0.798915 0.944599
-0.786557 0.428382 4.597325 -0.321406555 -0.797416263 0.510710416 0.739142 0.92557
-0.784264 0.423561 4.592143 -0.368614247 -0.634324517 0.679526264 0.74103 0.942539
-0.76286 0.424734 4.605054 -0.288200591 -0.782101603 0.552501133 0.795874 0.928396
-1.06627 0.854502 4.626431 -0.598895335 -0.318897516 0.734594278 0.068728 0.092093
-1.058071 0.861487 4.635042 -0.543308424 -0.245903813 0.802712446 0.09226 0.071555
-1.062699 0.869399 4.635334 -0.51290932 -0.27790505 0.812214758 0.081213 0.058526
-1.060935 0.850234 4.629217 -0.65251875 -0.236806805 0.719820684 0.083829 0.097295
-1.060723 0.828788 4.620967 -0.780770281 -0.200492368 0.591777474 0.08249 0.145572
-1.065313 0.832777 4.616888 -0.668080566 -0.306391087 0.678080275 0.066689 0.140607
-1.065268 0.814274 4.608331 -0.712829469 -0.27721146 0.644226633 0.065473 0.192973
-1.061156 0.810288 4.613308 -0.856569715 -0.157712836 0.491339989 0.082081 0.196752
-1.06282 0.78806 4.602786 -0.883470433 -0.138211019 0.447635687 0.082128 0.256963
-1.066797 0.792087 4.597185 -0.730310947 -0.256303842 0.633209492 0.064552 0.254497
-0.697409 0.764674 4.79067 -0.325311534 -0.392213906 0.860430507 0.945776 0.109484
-0.706041 0.74439 4.778563 -0.162106007 -0.359813333 0.918834048 0.929996 0.159541
-0.699369 0.745147 4.780518 -0.26110521 -0.407208126 0.875217465 0.945457 0.155939
-0.703852 0.763786 4.787618 -0.314106705 -0.352507524 0.881518816 0.930918 0.113182
-0.700296 0.727377 4.771758 -0.183397583 -0.416194515 0.890588262 0.943667 0.204176
-0.709226 0.703952 4.760949 0.156497279 -0.423692632 0.892184485 0.922711 0.2636
-0.701662 0.705151 4.760685 -0.117006933 -0.436725877 0.89195285 0.939188 0.2616
-0.707477 0.726405 4.770998 0.0169006846 -0.376315243 0.926337522 0.927608 0.207031
-1.075917 0.512085 4.462217 -0.604029659 -0.338216607 0.721635433 0.058647 0.890466
-1.068316 0.528383 4.477387 -0.783782608 -0.298693372 0.544487918 0.075925 0.84217
-1.07302 0.529386 4.471859 -0.670325614 -0.299311437 0.679025946 0.060306 0.845779
-1.07032 0.511768 4.466981 -0.659703315 -0.382501922 0.646903251 0.073674 0.887073
-1.068365 0.501508 4.462321 -0.557613338 -0.454810879 0.694416611 0.080306 0.912721
-1.073707 0.49815 4.456986 -0.527718117 -0.427114663 0.734225206 0.068546 0.923447
-1.071781 0.546414 4.480449 -0.714321309 -0.295608818 0.634318922 0.062297 0.797598
-1.068193 0.567088 4.49729 -0.885615427 -0.226203941 0.405607066 0.08093 0.737883
-1.07222 0.56907 4.490713 -0.731437783 -0.302315617 0.611231574 0.06383 0.73979
-1.067609 0.544885 4.4866 -0.858917106 -0.247004919 0.448608934 0.078548 0.794724
-0.706447 0.420109 4.625799 -0.291413182 -0.424119185 0.857438787 0.93651 0.91075
-0.713009 0.423188 4.625351 -0.217412414 -0.494328224 0.841648055 0.921584 0.905763
-0.713957 0.443136 4.635655 -0.037400098 -0.485201271 0.873602289 0.923527 0.858161
-0.706924 0.441219 4.635324 -0.205107053 -0.421914508 0.883130367 0.939196 0.862954
-0.706809 0.459517 4.643876 -0.143195557 -0.430886632 0.890972358 0.940414 0.811421
-0.714234 0.460749 4.644834 0.096603004 -0.47081464 0.876927268 0.923951 0.807709
-0.713666 0.482824 4.656108 0.162009676 -0.453027056 0.876652355 0.922889 0.748116
-0.705932 0.482026 4.654807 -0.111500789 -0.435603082 0.893206319 0.94012 0.750624
-1.049159 0.867417 4.641973 -0.429216729 -0.205408006 0.879534281 0.113764 0.051005
-1.031039 0.851191 4.647929 -0.430316712 0.0390015147 0.901835023 0.162625 0.071476
-1.03109 0.858606 4.647973 -0.407124791 -0.126607709 0.90455508 0.158397 0.055644
-1.048206 0.859841 4.640779 -0.485026182 -0.134807277 0.864046643 0.117744 0.066498
-1.013933 0.853018 4.654958 -0.422532346 -0.0628048079 0.904169217 0.207124 0.058555
-0.9928 0.840767 4.666321 -0.392816112 0.230209442 0.890336518 0.267806 0.077275
-0.991747 0.84857 4.66528 -0.435731239 -0.0358025668 0.899364478 0.265774 0.060175
-1.014518 0.845488 4.65567 -0.405031987 0.17411375 0.897570884 0.210394 0.074881
-1.059626 0.491218 4.461631 -0.467100986 -0.522101102 0.713601506 0.10123 0.936512
-1.058202 0.496246 4.466546 -0.523510036 -0.568510898 0.634612166 0.105563 0.921598
-1.040057 0.492184 4.476371 -0.475923832 -0.704835296 0.526026341 0.151824 0.923238
-1.040439 0.487652 4.470687 -0.446413312 -0.595817768 0.667619909 0.147455 0.938893
-1.02291 0.483812 4.478692 -0.487399717 -0.611199646 0.623599638 0.197978 0.939823
-1.02321 0.48801 4.485003 -0.46631547 -0.773625665 0.429014233 0.201458 0.923359
-1.002975 0.481494 4.496246 -0.504937425 -0.767456882 0.395029279 0.260517 0.922706
-1.002419 0.477312 4.48969 -0.562226948 -0.57812771 0.591328343 0.258109 0.940089
-1.07436 0.603256 4.505375 -0.731396146 -0.304298396 0.610296784 0.064114 0.666224
-1.071704 0.640077 4.529425 -0.876005164 -0.211401246 0.433502556 0.083116 0.582845
-1.076366 0.642972 4.522678 -0.726134293 -0.296514003 0.620329296 0.063652 0.583757
-1.070059 0.600807 4.512128 -0.885215394 -0.220303831 0.409707125 0.082461 0.664792
-1.076402 0.68222 4.540862 -0.72393631 -0.282814185 0.62923156 0.062948 0.499245
-1.069824 0.717387 4.566335 -0.875007171 -0.169401388 0.453503716 0.082345 0.415588
-1.074469 0.720998 4.559929 -0.725329271 -0.267210784 0.634425603 0.062648 0.414289
-1.071626 0.678937 4.547494 -0.871291143 -0.193998028 0.450795418 0.082871 0.499434
-1.070566 0.759308 4.579877 -0.730127694 -0.254309646 0.634224057 0.063396 0.330488
-1.066299 0.755427 4.585947 -0.883408869 -0.145001456 0.445604474 0.082157 0.332337
-0.704121 0.515772 4.671471 -0.10190694 -0.430829338 0.89666106 0.938271 0.675037
-0.712074 0.516157 4.672697 0.182611566 -0.43512756 0.881655841 0.920372 0.673092
-0.711271 0.555137 4.691226 0.195594342 -0.40648824 0.892474181 0.916302 0.589656
-0.703328 0.555156 4.690181 -0.0974964756 -0.41328506 0.905367272 0.934404 0.591035
-0.705506 0.59458 4.707252 -0.0806040767 -0.403220393 0.911546103 0.928053 0.504994
-0.713067 0.594151 4.708321 0.224504196 -0.389107272 0.893416698 0.910582 0.504829
-0.714435 0.632918 4.725538 0.248393659 -0.413689439 0.875877639 0.908229 0.420159
-0.707196 0.63372 4.724464 -0.0647006101 -0.422803987 0.903908524 0.924944 0.41912
-0.704938 0.672254 4.743598 -0.0759005461 -0.4448032 0.892406421 0.930801 0.335619
-0.71235 0.671154 4.744438 0.231093592 -0.443487702 0.865975987 0.914262 0.337197
-0.802938 0.810129 4.752845 -0.399707175 -0.0624011201 0.914516416 0.679834 0.054332
-0.805981 0.801892 4.752814 -0.333493354 0.174396524 0.926481535 0.67753 0.074175
-0.845725 0.813108 4.73583 -0.360189504 0.176794848 0.915973309 0.59296 0.075909
-0.843256 0.821732 4.735721 -0.415127754 -0.0588039315 0.907860697 0.594453 0.055431
-0.881997 0.830288 4.718064 -0.429809886 -0.052001196 0.901420733 0.508578 0.057988
-0.88409 0.821658 4.71838 -0.380592828 0.186296489 0.905782931 0.508312 0.078268
-0.921915 0.828618 4.700494 -0.387714619 0.208307854 0.897933857 0.424295 0.079842
-0.920121 0.837027 4.699908 -0.437114298 -0.0419013706 0.898429388 0.423416 0.060369
-0.958591 0.843181 4.681288 -0.438709367 -0.0331007067 0.898019173 0.340176 0.060939
-0.960042 0.835066 4.682201 -0.38788586 0.231091576 0.892267473 0.341616 0.07922
-0.974349 0.465765 4.507729 -0.572385756 -0.561486028 0.597585129 0.333157 0.94048
-0.974667 0.470405 4.513903 -0.519528372 -0.729839858 0.444324265 0.335057 0.922029
-0.939871 0.458215 4.533234 -0.459107323 -0.714811401 0.527508414 0.417761 0.921435
-0.939686 0.453049 4.527536 -0.487913062 -0.585815682 0.647117324 0.416381 0.94072
-0.899419 0.443039 4.543839 -0.400207508 -0.6130115 0.68121278 0.501037 0.940535
-0.900171 0.448393 4.5495 -0.38541321 -0.733525142 0.559819188 0.50131 0.921035
-0.859023 0.440391 4.565126 -0.363992538 -0.761584388 0.536189008 0.584532 0.921393
-0.857497 0.43511 4.559412 -0.387124446 -0.625139476 0.677742797 0.585366 0.940494
-0.817868 0.428634 4.57703 -0.397512915 -0.633920596 0.663421555 0.667605 0.941166
-0.819882 0.433661 4.582542 -0.358011806 -0.784325864 0.506616706 0.666252 0.92307
-0.831581 0.676224 4.739277 -0.380617583 -0.321514853 0.867040054 0.679301 0.330429
-0.867391 0.719591 4.73537 -0.428522809 -0.196310449 0.881946943 0.592978 0.255178
-0.870582 0.684535 4.723855 -0.418702583 -0.283901752 0.862605322 0.592729 0.329813
-0.829074 0.710712 4.752017 -0.400413596 -0.224807633 0.888330164 0.679047 0.255387
-0.7953 0.703828 4.764715 -0.297805252 -0.258304555 0.919016207 0.753895 0.255564
-0.797188 0.669855 4.750866 -0.291102677 -0.364803354 0.884408132 0.754249 0.331059
-0.798353 0.63113 4.732876 -0.270508368 -0.398812337 0.876227107 0.754205 0.417864
-0.83343 0.63693 4.722513 -0.353589686 -0.367289286 0.860274906 0.679179 0.417176
-0.873114 0.644674 4.708315 -0.403931892 -0.339226783 0.849567076 0.592274 0.416447
-0.908975 0.693351 4.707344 -0.445926252 -0.265615637 0.854750321 0.506511 0.329059
-0.943569 0.737729 4.701259 -0.449402964 -0.191301262 0.872605755 0.420999 0.253424
-0.94676 0.702673 4.689744 -0.474629483 -0.27061681 0.837552026 0.420133 0.328335
-0.905556 0.728597 4.718451 -0.437911625 -0.184304892 0.879923358 0.507137 0.254439
-0.911735 0.6533 4.692213 -0.449727234 -0.321619476 0.833250459 0.505813 0.415746
-0.949292 0.662811 4.674204 -0.495002799 -0.317501795 0.808804574 0.419335 0.415142
-0.983937 0.712499 4.671055 -0.514119213 -0.290210845 0.807130163 0.333081 0.327812
-1.013114 0.755607 4.667352 -0.56434767 -0.212317934 0.797767386 0.258159 0.251662
-1.014925 0.721697 4.653367 -0.59393076 -0.296115336 0.748038742 0.257602 0.327626
-0.98143 0.746987 4.683795 -0.478783353 -0.20909273 0.852670353 0.334037 0.252385
-0.985786 0.673205 4.654291 -0.543025251 -0.322214983 0.775436059 0.332384 0.414705
-1.01609 0.682972 4.635377 -0.615396526 -0.316698212 0.721795925 0.257384 0.414493
-0.834671 0.598142 4.704659 -0.342603467 -0.398004028 0.851008612 0.678442 0.503535
-0.874583 0.605696 4.69087 -0.398425428 -0.387224713 0.831453065 0.591529 0.502797
-0.799365 0.592531 4.714614 -0.261096781 -0.410694936 0.873589229 0.753377 0.504198
-0.800227 0.554058 4.696081 -0.271015419 -0.41992389 0.866149277 0.752195 0.590487
-0.835304 0.559859 4.685717 -0.354923522 -0.423928095 0.833255222 0.677312 0.589881
-0.874988 0.567602 4.67152 -0.406198073 -0.431297953 0.805596177 0.590561 0.589162
-0.91328 0.61426 4.674903 -0.451796636 -0.375397205 0.809293975 0.505078 0.502108
-0.950761 0.623833 4.656759 -0.503503915 -0.362202816 0.784406099 0.41866 0.501451
-0.913609 0.576229 4.655417 -0.452323888 -0.427822594 0.782541327 0.504315 0.588475
-0.951166 0.585739 4.637409 -0.497225101 -0.409620678 0.76483861 0.418084 0.58773
-0.987027 0.634417 4.636437 -0.554523925 -0.347514994 0.756132624 0.331848 0.500815
-1.017103 0.644373 4.617116 -0.623520171 -0.324410495 0.711323012 0.257113 0.500293
-0.98766 0.596134 4.617495 -0.544409974 -0.37880694 0.748413711 0.331379 0.586838
-1.017964 0.6059 4.598582 -0.615933572 -0.337718408 0.711738794 0.256606 0.585928
-0.835329 0.52208 4.665686 -0.384403979 -0.456304723 0.802508306 0.676011 0.676589
-0.87433 0.530392 4.650264 -0.423305617 -0.475606311 0.771110233 0.589435 0.675837
-0.800936 0.515712 4.677275 -0.295906375 -0.443309551 0.84611823 0.751089 0.677161
-0.800732 0.483476 4.65968 -0.32140387 -0.523606304 0.7890095 0.749824 0.752636
-0.834431 0.490422 4.646846 -0.411121531 -0.530327774 0.74143883 0.674568 0.751637
-0.872748 0.499301 4.630199 -0.437029254 -0.545236497 0.715347883 0.588308 0.750508
-0.912723 0.539208 4.633753 -0.451201983 -0.479902109 0.752403307 0.503532 0.675178
-0.950508 0.548529 4.616153 -0.479330359 -0.462229276 0.746047252 0.417587 0.674445
-0.910913 0.508307 4.61328 -0.446823483 -0.55082895 0.704937049 0.502848 0.749785
-0.948926 0.517439 4.596088 -0.457917298 -0.540220407 0.706026671 0.417269 0.749223
-0.987685 0.558355 4.597464 -0.517333682 -0.424727653 0.742948371 0.330882 0.673469
-1.018673 0.567554 4.579776 -0.59579378 -0.371996116 0.711792569 0.255681 0.672298
-0.986787 0.526697 4.578625 -0.486141856 -0.512444121 0.707860946 0.330649 0.748578
-1.01847 0.535318 4.562181 -0.570524105 -0.464319618 0.677428622 0.254962 0.747669
-0.832292 0.470499 4.631478 -0.4111872 -0.654879614 0.634080261 0.673014 0.802999
-0.870381 0.479568 4.614422 -0.430207251 -0.652711002 0.623610511 0.587337 0.80086
-0.798856 0.463335 4.644782 -0.327804055 -0.661908188 0.674108339 0.748162 0.80533
-0.795499 0.449877 4.629792 -0.315325041 -0.777061709 0.54474326 0.745599 0.847299
-0.828877 0.456791 4.616233 -0.384913809 -0.761827331 0.521018692 0.670966 0.843816
-0.867099 0.465522 4.599134 -0.402299722 -0.744499486 0.532799632 0.586338 0.8409
-0.908471 0.488636 4.597367 -0.432927539 -0.649441312 0.625139766 0.502382 0.799862
-0.946559 0.497705 4.580311 -0.437799604 -0.646399415 0.624899434 0.417232 0.799692
-0.905608 0.474434 4.58229 -0.410119139 -0.727133932 0.550525691 0.502021 0.839751
-0.943911 0.483607 4.565355 -0.426735721 -0.724160618 0.541745349 0.417443 0.839978
-0.984649 0.506774 4.563256 -0.45950902 -0.642512613 0.613212037 0.330968 0.800036
-1.016594 0.515177 4.547283 -0.537194292 -0.617093443 0.574993891 0.255075 0.800306
-0.981512 0.493117 4.547982 -0.448825995 -0.742843023 0.496728769 0.332034 0.841192
-1.012952 0.501877 4.531825 -0.497529567 -0.7471444 0.440726191 0.256329 0.842559
-0.824145 0.44378 4.597765 -0.357691542 -0.809380862 0.465788987 0.668042 0.88723
-0.862768 0.451496 4.580534 -0.372327706 -0.785558456 0.494236778 0.585129 0.884636
-0.790851 0.43769 4.611924 -0.306105489 -0.825714805 0.473808495 0.741628 0.890601
-0.902538 0.459939 4.564325 -0.390112293 -0.758423898 0.522116452 0.50165 0.883791
-0.941481 0.469422 4.547752 -0.434501751 -0.748803018 0.500502017 0.417867 0.884207
-0.97762 0.480258 4.529426 -0.470396695 -0.774194561 0.423497025 0.33404 0.885394
-1.007449 0.490166 4.512552 -0.479395369 -0.800992262 0.358596536 0.259034 0.886778
-0.813113 0.781246 4.755719 -0.322114223 0.213809441 0.922240722 0.677336 0.114394
-0.852081 0.791526 4.738735 -0.35141644 0.214810049 0.911242629 0.592747 0.116283
-0.779066 0.772335 4.768804 -0.254417508 0.172611879 0.951565484 0.75225 0.113105
-0.786942 0.748976 4.771035 -0.245009066 0.0972035966 0.964635692 0.75303 0.160223
-0.820888 0.75628 4.758426 -0.349216503 0.128106054 0.928243865 0.678097 0.162035
-0.859197 0.765652 4.741388 -0.377498758 0.130299571 0.916796984 0.59305 0.163579
-0.89026 0.800282 4.721485 -0.364827602 0.222216812 0.904168407 0.508182 0.117558
-0.928131 0.80813 4.703984 -0.367210493 0.244506987 0.897425644 0.423859 0.117529
-0.897308 0.774643 4.724284 -0.382094229 0.133797979 0.914386188 0.50802 0.163636
-0.935343 0.783406 4.707117 -0.381906471 0.146502483 0.912515463 0.422817 0.162245
-0.966174 0.815685 4.686252 -0.369911273 0.269808223 0.889027094 0.339992 0.11551
-0.998546 0.822514 4.670393 -0.398414397 0.274609923 0.875131623 0.265531 0.11255
-0.97342 0.792096 4.689892 -0.392899715 0.161999883 0.905199344 0.337253 0.159446
-1.005495 0.800087 4.673989 -0.452215796 0.169105907 0.87573059 0.261795 0.156237
-0.825859 0.735083 4.757796 -0.387603004 -0.0493003821 0.920507134 0.678656 0.204145
-0.863948 0.744152 4.74074 -0.414021877 -0.0386020398 0.909448057 0.593106 0.204822
-0.792119 0.728171 4.770555 -0.273198 -0.0701994861 0.959392977 0.753534 0.203164
-0.902037 0.753221 4.723685 -0.415720699 -0.0343017079 0.908845253 0.507656 0.204281
-0.940126 0.762289 4.706629 -0.417920048 -0.0341016359 0.90784355 0.421879 0.202802
-0.978215 0.771358 4.689574 -0.438426263 -0.0358021446 0.898053795 0.335348 0.200667
-1.010161 0.779761 4.673601 -0.51881641 -0.0309009774 0.854327023 0.259448 0.19857
-1.057917 0.746757 4.603067 -0.90275288 -0.135007908 0.408423924 0.119523 0.331146
-1.060331 0.708572 4.584008 -0.894122094 -0.160403964 0.418110332 0.120675 0.415525
-1.055286 0.779768 4.618892 -0.901054601 -0.104106309 0.421025513 0.118349 0.255419
-1.044957 0.770321 4.638154 -0.844430088 -0.127304536 0.520318539 0.162852 0.25269
-1.046753 0.736818 4.623316 -0.851723874 -0.186405225 0.489713727 0.164462 0.328982
-1.04806 0.69837 4.604753 -0.846512232 -0.207402997 0.490307085 0.16602 0.414913
-1.06176 0.670154 4.56539 -0.889898314 -0.178699661 0.419699205 0.121312 0.499609
-1.062205 0.631501 4.547213 -0.894793898 -0.188798712 0.404597241 0.120929 0.583281
-1.04912 0.659864 4.5863 -0.843428268 -0.214607193 0.492516507 0.166565 0.499787
-1.049934 0.621298 4.567957 -0.846730678 -0.217307873 0.485617594 0.165734 0.584299
-1.061665 0.592613 4.529476 -0.904273841 -0.19691608 0.378830935 0.119023 0.666424
-1.060642 0.559479 4.513721 -0.904029955 -0.226207496 0.362712019 0.11632 0.740241
-1.050501 0.582675 4.549725 -0.852777389 -0.229920865 0.468942556 0.163163 0.669145
-1.050313 0.550032 4.532983 -0.848398134 -0.29099936 0.442199027 0.160053 0.744005
-1.034144 0.729134 4.638768 -0.730402626 -0.256800923 0.632902275 0.205942 0.327912
-1.035081 0.690598 4.62037 -0.735745772 -0.274717091 0.619038512 0.206759 0.414565
-1.032594 0.762827 4.653223 -0.713835275 -0.178308811 0.677233466 0.205276 0.251601
-1.036018 0.652063 4.601973 -0.737022059 -0.276508276 0.616718459 0.206926 0.499983
-1.036955 0.613527 4.583575 -0.735858584 -0.279522254 0.616749101 0.206176 0.585132
-1.037892 0.574991 4.565177 -0.731482668 -0.301692851 0.611485511 0.204245 0.67098
-1.037951 0.542537 4.548052 -0.718909195 -0.386104938 0.578007393 0.202182 0.746312
-0.772616 0.666866 4.755875 -0.101900242 -0.398700945 0.91140216 0.805594 0.331855
-0.773553 0.62833 4.737477 -0.0951071799 -0.425032087 0.900167956 0.805034 0.418446
-0.770763 0.700811 4.769785 -0.0987991138 -0.284097452 0.953691445 0.806074 0.256202
-0.74996 0.700572 4.769227 0.102097773 -0.311093214 0.944879388 0.847251 0.257933
-0.752151 0.666675 4.755233 0.131702451 -0.413307692 0.901016768 0.844794 0.333263
-0.753251 0.628199 4.736772 0.140405798 -0.427517655 0.893036879 0.842915 0.419071
-0.77449 0.589795 4.719079 -0.0947045374 -0.426020411 0.899743108 0.803897 0.504665
-0.775427 0.551259 4.700682 -0.101500366 -0.427701544 0.898203243 0.802836 0.590834
-0.753858 0.589647 4.718551 0.127602097 -0.421906934 0.897614752 0.842014 0.504903
-0.754405 0.55106 4.700347 0.111497354 -0.425889892 0.897878689 0.842062 0.590719
-0.776364 0.512723 4.682284 -0.113302914 -0.4472115 0.887222815 0.802501 0.677277
-0.776423 0.480269 4.665159 -0.131698713 -0.52509487 0.840791786 0.802272 0.752974
-0.755322 0.512478 4.681939 0.102198148 -0.445391927 0.889483878 0.843033 0.676485
-0.755628 0.47989 4.664948 0.0831005771 -0.506703519 0.85810596 0.844129 0.752123
-0.730075 0.668699 4.749869 0.27199884 -0.423298195 0.864196314 0.883305 0.335728
-0.731666 0.630403 4.731216 0.288817738 -0.412725348 0.863853055 0.8791 0.419893
-0.727386 0.702022 4.765039 0.203303829 -0.363806852 0.909017122 0.889098 0.261388
-0.731284 0.591803 4.713526 0.266101605 -0.397202395 0.878305296 0.879739 0.504878
-0.730658 0.553062 4.695905 0.237609977 -0.410117221 0.880536975 0.882703 0.589939
-0.731517 0.514341 4.677465 0.224299306 -0.435298653 0.871897301 0.885474 0.674332
-0.73247 0.481427 4.660709 0.202701349 -0.473403151 0.857205705 0.887613 0.74956
-1.036254 0.522247 4.533474 -0.679211788 -0.5416094 0.495308596 0.201036 0.799914
-1.048858 0.529409 4.519115 -0.810014904 -0.420807743 0.408407515 0.157609 0.798558
-1.032767 0.508797 4.518536 -0.600019546 -0.692622563 0.40031304 0.200861 0.843249
-1.046266 0.515284 4.505528 -0.717531393 -0.571324996 0.398417431 0.155692 0.843117
-1.059639 0.538086 4.501489 -0.874303873 -0.301601336 0.380301685 0.113549 0.795936
-1.058757 0.522748 4.490211 -0.792189064 -0.4128943 0.449393796 0.110884 0.84202
-1.027457 0.496862 4.500332 -0.510806893 -0.779110514 0.363404904 0.20171 0.887782
-1.042666 0.502136 4.489632 -0.583998102 -0.683897777 0.437298579 0.154167 0.887995
-1.058095 0.507778 4.477317 -0.656214621 -0.52601172 0.541012054 0.108501 0.887004
-1.019401 0.828183 4.658512 -0.465427757 0.227113544 0.855451016 0.209422 0.109704
-1.034424 0.834332 4.648321 -0.552814348 0.0980025437 0.827521479 0.163179 0.106429
-1.025523 0.80675 4.660785 -0.571805498 0.149201435 0.806707757 0.206911 0.153616
-1.038975 0.813456 4.647904 -0.69962406 0.071502459 0.710924449 0.162279 0.151262
-1.049294 0.842596 4.637535 -0.633811244 -0.0812014405 0.769213646 0.118314 0.102184
-1.051326 0.821575 4.632969 -0.782109393 -0.0634007614 0.619907445 0.117579 0.148852
-1.02982 0.786831 4.659792 -0.665130178 -0.0170007713 0.746533871 0.205564 0.197209
-1.042425 0.793993 4.645432 -0.800215948 -0.0219004365 0.599311944 0.162147 0.196733
-1.053206 0.80267 4.627807 -0.8687093 -0.0717007676 0.490105247 0.117646 0.197293
-0.774726 0.459979 4.650581 -0.154900299 -0.659801273 0.735301419 0.80153 0.806905
-0.771524 0.446412 4.636012 -0.186307806 -0.77143232 0.608425491 0.799931 0.850148
-0.754337 0.459285 4.650995 0.0320002221 -0.615604272 0.787405465 0.844557 0.807558
-0.751676 0.444973 4.637506 -0.0658043755 -0.711747326 0.699346501 0.844195 0.852628
-0.767065 0.434127 4.618914 -0.233717414 -0.816360825 0.52813935 0.797129 0.893778
-0.747867 0.431261 4.621901 -0.203704177 -0.750315385 0.628912896 0.842926 0.897175
-0.732125 0.460107 4.648143 0.134997867 -0.537191512 0.832586845 0.888681 0.807123
-0.73068 0.444134 4.636885 -0.00529990171 -0.597588918 0.801785131 0.888627 0.855009
-0.728332 0.42726 4.62405 -0.198010134 -0.626032041 0.754238603 0.8874 0.901204
-0.75565 0.767687 4.774357 -0.182401841 0.0597006027 0.981409907 0.807787 0.113631
-0.76192 0.746187 4.774855 -0.096504186 0.0240010411 0.995043161 0.807721 0.159363
-0.737341 0.765547 4.777266 -0.211612294 -0.0957055602 0.972656508 0.853023 0.114608
-0.741535 0.745561 4.774968 -0.0572998616 -0.0876997882 0.994497598 0.852031 0.159339
-0.767078 0.725573 4.774721 -0.0810973064 -0.0980967418 0.991867056 0.806966 0.202796
-0.746081 0.725385 4.774047 0.0493001925 -0.152300595 0.987103855 0.849886 0.203536
-0.718619 0.764162 4.782418 -0.278311638 -0.246810321 0.928238815 0.897033 0.114675
-0.721502 0.744745 4.776458 -0.104606674 -0.23371491 0.96666167 0.895822 0.160036
-0.724476 0.725701 4.772284 0.0751029884 -0.262010426 0.962138284 0.893224 0.205883
3 0 1 2
3 0 3 1
3 0 4 3
3 0 5 4
3 0 6 5
3 0 7 6
3 0 8 7
3 0 2 8
3 9 10 11
3 9 12 10
3 9 6 12
3 9 5 6
3 9 4 5
3 9 13 4
3 9 14 13
3 9 11 14
3 15 16 17
3 15 18 16
3 15 19 18
3 15 20 19
3 15 4 20
3 15 3 4
3 15 1 3
3 15 17 1
3 21 19 20
3 21 22 19
3 21 23 22
3 21 24 23
3 21 14 24
3 21 13 14
3 21 4 13
3 21 20 4
3 25 26 27
3 25 28 26
3 25 29 28
3 25 30 29
3 25 31 30
3 25 32 31
3 25 33 32
3 25 27 33
3 34 29 30
3 34 35 29
3 34 36 35
3 34 37 36
3 34 38 37
3 34 39 38
3 34 31 39
3 34 30 31
3 40 41 42
3 40 43 41
3 40 44 43
3 40 45 44
3 40 29 45
3 40 28 29
3 40 26 28
3 40 42 26
3 46 44 45
3 46 47 44
3 46 48 47
3 46 49 48
3 46 36 49
3 46 35 36
3 46 29 35
3 46 45 29
3 50 51 52
3 50 53 51
3 50 54 53
3 50 55 54
3 50 56 55
3 50 57 56
3 50 58 57
3 50 52 58
3 59 54 55
3 59 60 54
3 59 61 60
3 59 62 61
3 59 63 62
3 59 64 63
3 59 56 64
3 59 55 56
3 65 66 67
3 65 68 66
3 65 69 68
3 65 70 69
3 65 54 70
3 65 53 54
3 65 51 53
3 65 67 51
3 71 69 70
3 71 72 69
3 71 73 72
3 71 74 73
3 71 61 74
3 71 60 61
3 71 54 60
3 71 70 54
3 75 76 77
3 75 78 76
3 75 79 78
3 75 80 79
3 75 81 80
3 75 82 81
3 75 83 82
3 75 77 83
3 84 79 80
3 84 85 79
3 84 86 85
3 84 87 86
3 84 88 87
3 84 89 88
3 84 81 89
3 84 80 81
3 90 91 92
3 90 93 91
3 90 94 93
3 90 95 94
3 90 79 95
3 90 78 79
3 90 76 78
3 90 92 76
3 96 94 95
3 96 97 94
3 96 98 97
3 96 99 98
3 96 86 99
3 96 85 86
3 96 79 85
3 96 95 79
3 100 36 37
3 100 101 36
3 100 102 101
3 100 103 102
3 100 104 103
3 100 105 104
3 100 38 105
3 100 37 38
3 106 102 103
3 106 107 102
3 106 108 107
3 106 109 108
3 106 110 109
3 106 111 110
3 106 104 111
3 106 103 104
3 112 108 109
3 112 113 108
3 112 1 113
3 112 2 1
3 112 8 2
3 112 114 8
3 112 110 114
3 112 109 110
3 115 48 49
3 115 116 48
3 115 117 116
3 115 118 117
3 115 102 118
3 115 101 102
3 115 36 101
3 115 49 36
3 119 117 118
3 119 120 117
3 119 121 120
3 119 122 121
3 119 108 122
3 119 107 108
3 119 102 107
3 119 118 102
3 123 121 122
3 123 124 121
3 123 16 124
3 123 17 16
3 123 1 17
3 123 113 1
3 123 108 113
3 123 122 108
3 125 94 97
3 125 126 94
3 125 127 126
3 125 128 127
3 125 129 128
3 125 130 129
3 125 98 130
3 125 97 98
3 131 127 128
3 131 132 127
3 131 133 132
3 131 134 133
3 131 135 134
3 131 136 135
3 131 129 136
3 131 128 129
3 137 133 134
3 137 138 133
3 137 56 138
3 137 64 56
3 137 63 64
3 137 139 63
3 137 135 139
3 137 134 135
3 140 91 93
3 140 141 91
3 140 142 141
3 140 143 142
3 140 127 143
3 140 126 127
3 140 94 126
3 140 93 94
3 144 142 143
3 144 145 142
3 144 146 145
3 144 147 146
3 144 133 147
3 144 132 133
3 144 127 132
3 144 143 127
3 148 146 147
3 148 149 146
3 148 58 149
3 148 57 58
3 148 56 57
3 148 138 56
3 148 133 138
3 148 147 133
3 150 61 62
3 150 151 61
3 150 152 151
3 150 153 152
3 150 154 153
3 150 155 154
3 150 63 155
3 150 62 63
3 156 152 153
3 156 157 152
3 156 158 157
3 156 159 158
3 156 160 159
3 156 161 160
3 156 154 161
3 156 153 154
3 162 158 159
3 162 163 158
3 162 19 163
3 162 18 19
3 162 16 18
3 162 164 16
3 162 160 164
3 162 159 160
3 165 73 74
3 165 166 73
3 165 167 166
3 165 168 167
3 165 152 168
3 165 151 152
3 165 61 151
3 165 74 61
3 169 167 168
3 169 170 167
3 169 171 170
3 169 172 171
3 169 158 172
3 169 157 158
3 169 152 157
3 169 168 152
3 173 171 172
3 173 174 171
3 173 23 174
3 173 22 23
3 173 19 22
3 173 163 19
3 173 158 163
3 173 172 158
3 175 86 87
3 175 176 86
3 175 177 176
3 175 178 177
3 175 179 178
3 175 180 179
3 175 88 180
3 175 87 88
3 181 177 178
3 181 182 177
3 181 183 182
3 181 184 183
3 181 185 184
3 181 186 185
3 181 179 186
3 181 178 179
3 187 183 184
3 187 188 183
3 187 44 188
3 187 43 44
3 187 41 43
3 187 189 41
3 187 185 189
3 187 184 185
3 190 98 99
3 190 191 98
3 190 192 191
3 190 193 192
3 190 177 193
3 190 176 177
3 190 86 176
3 190 99 86
3 194 192 193
3 194 195 192
3 194 196 195
3 194 197 196
3 194 183 197
3 194 182 183
3 194 177 182
3 194 193 177
3 198 196 197
3 198 199 196
3 198 48 199
3 198 47 48
3 198 44 47
3 198 188 44
3 198 183 188
3 198 197 183
3 200 129 130
3 200 201 129
3 200 202 201
3 200 203 202
3 200 192 203
3 200 191 192
3 200 98 191
3 200 130 98
3 204 202 203
3 204 205 202
3 204 206 205
3 204 207 206
3 204 196 207
3 204 195 196
3 204 192 195
3 204 203 192
3 208 206 207
3 208 209 206
3 208 117 209
3 208 116 117
3 208 48 116
3 208 199 48
3 208 196 199
3 208 207 196
3 210 135 136
3 210 211 135
3 210 212 211
3 210 213 212
3 210 202 213
3 210 201 202
3 210 129 201
3 210 136 129
3 214 212 213
3 214 215 212
3 214 216 215
3 214 217 216
3 214 206 217
3 214 205 206
3 214 202 205
3 214 213 202
3 218 216 217
3 218 219 216
3 218 121 219
3 218 120 121
3 218 117 120
3 218 209 117
3 218 206 209
3 218 217 206
3 220 63 139
3 220 155 63
3 220 154 155
3 220 221 154
3 220 212 221
3 220 211 212
3 220 135 211
3 220 139 135
3 222 154 221
3 222 161 154
3 222 160 161
3 222 223 160
3 222 216 223
3 222 215 216
3 222 212 215
3 222 221 212
3 224 160 223
3 224 164 160
3 224 16 164
3 224 124 16
3 224 121 124
3 224 219 121
3 224 216 219
3 224 223 216
3 225 185 226
3 225 189 185
3 225 41 189
3 225 227 41
3 225 228 227
3 225 229 228
3 225 230 229
3 225 226 230
3 231 179 232
3 231 186 179
3 231 185 186
3 231 226 185
3 231 230 226
3 231 233 230
3 231 234 233
3 231 232 234
3 235 88 236
3 235 180 88
3 235 179 180
3 235 232 179
3 235 234 232
3 235 237 234
3 235 238 237
3 235 236 238
3 239 167 240
3 239 166 167
3 239 73 166
3 239 241 73
3 239 242 241
3 239 243 242
3 239 244 243
3 239 240 244
3 245 171 246
3 245 170 171
3 245 167 170
3 245 240 167
3 245 244 240
3 245 247 244
3 245 248 247
3 245 246 248
3 249 23 250
3 249 174 23
3 249 171 174
3 249 246 171
3 249 248 246
3 249 251 248
3 249 252 251
3 249 250 252
3 253 110 254
3 253 114 110
3 253 8 114
3 253 255 8
3 253 256 255
3 253 257 256
3 253 258 257
3 253 254 258
3 259 104 260
3 259 111 104
3 259 110 111
3 259 254 110
3 259 258 254
3 259 261 258
3 259 262 261
3 259 260 262
3 263 38 264
3 263 105 38
3 263 104 105
3 263 260 104
3 263 262 260
3 263 265 262
3 263 266 265
3 263 264 266
3 267 58 268
3 267 149 58
3 267 146 149
3 267 269 146
3 267 270 269
3 267 271 270
3 267 272 271
3 267 268 272
3 273 146 269
3 273 145 146
3 273 142 145
3 273 274 142
3 273 275 274
3 273 276 275
3 273 270 276
3 273 269 270
3 277 142 274
3 277 141 142
3 277 91 141
3 277 278 91
3 277 279 278
3 277 280 279
3 277 275 280
3 277 274 275
3 281 81 282
3 281 89 81
3 281 88 89
3 281 236 88
3 281 238 236
3 281 283 238
3 281 284 283
3 281 282 284
3 285 83 286
3 285 82 83
3 285 81 82
3 285 282 81
3 285 284 282
3 285 287 284
3 285 288 287
3 285 286 288
3 289 73 241
3 289 72 73
3 289 69 72
3 289 290 69
3 289 291 290
3 289 292 291
3 289 242 292
3 289 241 242
3 293 69 290
3 293 68 69
3 293 66 68
3 293 294 66
3 293 295 294
3 293 296 295
3 293 291 296
3 293 290 291
3 297 31 298
3 297 39 31
3 297 38 39
3 297 264 38
3 297 266 264
3 297 299 266
3 297 300 299
3 297 298 300
3 301 33 302
3 301 32 33
3 301 31 32
3 301 298 31
3 301 300 298
3 301 303 300
3 301 304 303
3 301 302 304
3 305 91 278
3 305 92 91
3 305 76 92
3 305 306 76
3 305 307 306
3 305 308 307
3 305 279 308
3 305 278 279
3 309 76 306
3 309 77 76
3 309 83 77
3 309 286 83
3 309 288 286
3 309 310 288
3 309 307 310
3 309 306 307
3 311 8 255
3 311 7 8
3 311 6 7
3 311 312 6
3 311 313 312
3 311 314 313
3 311 256 314
3 311 255 256
3 315 6 312
3 315 12 6
3 315 10 12
3 315 316 10
3 315 317 316
3 315 318 317
3 315 313 318
3 315 312 313
3 319 51 320
3 319 52 51
3 319 58 52
3 319 268 58
3 319 272 268
3 319 321 272
3 319 322 321
3 319 320 322
3 323 66 294
3 323 67 66
3 323 51 67
3 323 320 51
3 323 322 320
3 323 324 322
3 323 295 324
3 323 294 295
3 325 41 227
3 325 42 41
3 325 26 42
3 325 326 26
3 325 327 326
3 325 328 327
3 325 228 328
3 325 227 228
3 329 26 326
3 329 27 26
3 329 33 27
3 329 302 33
3 329 304 302
3 329 330 304
3 329 327 330
3 329 326 327
3 331 14 332
3 331 24 14
3 331 23 24
3 331 250 23
3 331 252 250
3 331 333 252
3 331 334 333
3 331 332 334
3 335 10 316
3 335 11 10
3 335 14 11
3 335 332 14
3 335 334 332
3 335 336 334
3 335 317 336
3 335 316 317
3 337 317 338
3 337 336 317
3 337 334 336
3 337 339 334
3 337 340 339
3 337 341 340
3 337 342 341
3 337 338 342
3 343 334 339
3 343 333 334
3 343 252 333
3 343 344 252
3 343 345 344
3 343 346 345
3 343 340 346
3 343 339 340
3 347 327 348
3 347 330 327
3 347 304 330
3 347 349 304
3 347 350 349
3 347 351 350
3 347 352 351
3 347 348 352
3 353 228 354
3 353 328 228
3 353 327 328
3 353 348 327
3 353 352 348
3 353 355 352
3 353 356 355
3 353 354 356
3 357 295 358
3 357 324 295
3 357 322 324
3 357 359 322
3 357 360 359
3 357 361 360
3 357 362 361
3 357 358 362
3 363 322 359
3 363 321 322
3 363 272 321
3 363 364 272
3 363 365 364
3 363 366 365
3 363 360 366
3 363 359 360
3 367 313 368
3 367 318 313
3 367 317 318
3 367 338 317
3 367 342 338
3 367 369 342
3 367 370 369
3 367 368 370
3 371 256 372
3 371 314 256
3 371 313 314
3 371 368 313
3 371 370 368
3 371 373 370
3 371 374 373
3 371 372 374
3 375 307 376
3 375 310 307
3 375 288 310
3 375 377 288
3 375 378 377
3 375 379 378
3 375 380 379
3 375 376 380
3 381 279 382
3 381 308 279
3 381 307 308
3 381 376 307
3 381 380 376
3 381 383 380
3 381 384 383
3 381 382 384
3 385 304 349
3 385 303 304
3 385 300 303
3 385 386 300
3 385 387 386
3 385 388 387
3 385 350 388
3 385 349 350
3 389 300 386
3 389 299 300
3 389 266 299
3 389 390 266
3 389 391 390
3 389 392 391
3 389 387 392
3 389 386 387
3 393 291 394
3 393 296 291
3 393 295 296
3 393 358 295
3 393 362 358
3 393 395 362
3 393 396 395
3 393 394 396
3 397 242 398
3 397 292 242
3 397 291 292
3 397 394 291
3 397 396 394
3 397 399 396
3 397 400 399
3 397 398 400
3 401 288 377
3 401 287 288
3 401 284 287
3 401 402 284
3 401 403 402
3 401 404 403
3 401 378 404
3 401 377 378
3 405 284 402
3 405 283 284
3 405 238 283
3 405 406 238
3 405 407 406
3 405 408 407
3 405 403 408
3 405 402 403
3 409 275 410
3 409 280 275
3 409 279 280
3 409 382 279
3 409 384 382
3 409 411 384
3 409 412 411
3 409 410 412
3 413 270 414
3 413 276 270
3 413 275 276
3 413 410 275
3 413 412 410
3 413 415 412
3 413 416 415
3 413 414 416
3 417 272 364
3 417 271 272
3 417 270 271
3 417 414 270
3 417 416 414
3 417 418 416
3 417 365 418
3 417 364 365
3 419 266 390
3 419 265 266
3 419 262 265
3 419 420 262
3 419 421 420
3 419 422 421
3 419 391 422
3 419 390 391
3 423 262 420
3 423 261 262
3 423 258 261
3 423 424 258
3 423 425 424
3 423 426 425
3 423 421 426
3 423 420 421
3 427 258 424
3 427 257 258
3 427 256 257
3 427 372 256
3 427 374 372
3 427 428 374
3 427 425 428
3 427 424 425
3 429 252 344
3 429 251 252
3 429 248 251
3 429 430 248
3 429 431 430
3 429 432 431
3 429 345 432
3 429 344 345
3 433 248 430
3 433 247 248
3 433 244 247
3 433 434 244
3 433 435 434
3 433 436 435
3 433 431 436
3 433 430 431
3 437 244 434
3 437 243 244
3 437 242 243
3 437 398 242
3 437 400 398
3 437 438 400
3 437 435 438
3 437 434 435
3 439 238 406
3 439 237 238
3 439 234 237
3 439 440 234
3 439 441 440
3 439 442 441
3 439 407 442
3 439 406 407
3 443 234 440
3 443 233 234
3 443 230 233
3 443 444 230
3 443 445 444
3 443 446 445
3 443 441 446
3 443 440 441
3 447 230 444
3 447 229 230
3 447 228 229
3 447 354 228
3 447 356 354
3 447 448 356
3 447 445 448
3 447 444 445
3 449 450 451
3 449 452 450
3 449 453 452
3 449 454 453
3 449 455 454
3 449 456 455
3 449 457 456
3 449 451 457
3 458 459 460
3 458 461 459
3 458 450 461
3 458 451 450
3 458 457 451
3 458 462 457
3 458 463 462
3 458 460 463
3 464 465 466
3 464 467 465
3 464 459 467
3 464 460 459
3 464 463 460
3 464 468 463
3 464 469 468
3 464 466 469
3 470 471 472
3 470 473 471
3 470 474 473
3 470 475 474
3 470 476 475
3 470 477 476
3 470 478 477
3 470 472 478
3 479 480 481
3 479 482 480
3 479 471 482
3 479 472 471
3 479 478 472
3 479 483 478
3 479 484 483
3 479 481 484
3 485 486 487
3 485 488 486
3 485 480 488
3 485 481 480
3 485 484 481
3 485 489 484
3 485 490 489
3 485 487 490
3 491 492 493
3 491 494 492
3 491 495 494
3 491 496 495
3 491 497 496
3 491 498 497
3 491 499 498
3 491 493 499
3 500 501 502
3 500 503 501
3 500 492 503
3 500 493 492
3 500 499 493
3 500 504 499
3 500 505 504
3 500 502 505
3 506 507 508
3 506 509 507
3 506 501 509
3 506 502 501
3 506 505 502
3 506 510 505
3 506 511 510
3 506 508 511
3 512 513 514
3 512 515 513
3 512 516 515
3 512 517 516
3 512 518 517
3 512 519 518
3 512 520 519
3 512 514 520
3 521 516 517
3 521 522 516
3 521 523 522
3 521 524 523
3 521 525 524
3 521 526 525
3 521 518 526
3 521 517 518
3 527 523 524
3 527 528 523
3 527 529 528
3 527 530 529
3 527 531 530
3 527 532 531
3 527 525 532
3 527 524 525
3 533 534 535
3 533 536 534
3 533 465 536
3 533 466 465
3 533 469 466
3 533 537 469
3 533 538 537
3 533 535 538
3 539 540 541
3 539 542 540
3 539 534 542
3 539 535 534
3 539 538 535
3 539 543 538
3 539 544 543
3 539 541 544
3 545 474 475
3 545 546 474
3 545 547 546
3 545 548 547
3 545 549 548
3 545 550 549
3 545 476 550
3 545 475 476
3 551 547 548
3 551 552 547
3 551 553 552
3 551 554 553
3 551 555 554
3 551 556 555
3 551 549 556
3 551 548 549
3 557 558 559
3 557 560 558
3 557 507 560
3 557 508 507
3 557 511 508
3 557 561 511
3 557 562 561
3 557 559 562
3 563 564 565
3 563 566 564
3 563 558 566
3 563 559 558
3 563 562 559
3 563 567 562
3 563 568 567
3 563 565 568
3 569 529 530
3 569 570 529
3 569 571 570
3 569 572 571
3 569 573 572
3 569 574 573
3 569 531 574
3 569 530 531
3 575 571 572
3 575 576 571
3 575 540 576
3 575 541 540
3 575 544 541
3 575 577 544
3 575 573 577
3 575 572 573
3 578 495 496
3 578 579 495
3 578 580 579
3 578 581 580
3 578 582 581
3 578 583 582
3 578 497 583
3 578 496 497
3 584 580 581
3 584 585 580
3 584 586 585
3 584 587 586
3 584 588 587
3 584 589 588
3 584 582 589
3 584 581 582
3 590 591 592
3 590 593 591
3 590 513 593
3 590 514 513
3 590 520 514
3 590 594 520
3 590 595 594
3 590 592 595
3 596 553 554
3 596 597 553
3 596 591 597
3 596 592 591
3 596 595 592
3 596 598 595
3 596 555 598
3 596 554 555
3 599 453 454
3 599 600 453
3 599 601 600
3 599 602 601
3 599 603 602
3 599 604 603
3 599 455 604
3 599 454 455
3 605 601 602
3 605 606 601
3 605 564 606
3 605 565 564
3 605 568 565
3 605 607 568
3 605 603 607
3 605 602 603
3 608 609 610
3 608 611 609
3 608 486 611
3 608 487 486
3 608 490 487
3 608 612 490
3 608 613 612
3 608 610 613
3 614 586 587
3 614 615 586
3 614 609 615
3 614 610 609
3 614 613 610
3 614 616 613
3 614 588 616
3 614 587 588
3 617 618 619
3 617 620 618
3 617 621 620
3 617 622 621
3 617 609 622
3 617 615 609
3 617 586 615
3 617 619 586
3 623 621 622
3 623 624 621
3 623 625 624
3 623 626 625
3 623 486 626
3 623 611 486
3 623 609 611
3 623 622 609
3 627 628 629
3 627 630 628
3 627 631 630
3 627 632 631
3 627 564 632
3 627 606 564
3 627 601 606
3 627 629 601
3 633 634 635
3 633 636 634
3 633 628 636
3 633 629 628
3 633 601 629
3 633 600 601
3 633 453 600
3 633 635 453
3 637 638 639
3 637 640 638
3 637 641 640
3 637 642 641
3 637 591 642
3 637 597 591
3 637 553 597
3 637 639 553
3 643 641 642
3 643 644 641
3 643 645 644
3 643 646 645
3 643 513 646
3 643 593 513
3 643 591 593
3 643 642 591
3 647 648 649
3 647 650 648
3 647 618 650
3 647 619 618
3 647 586 619
3 647 585 586
3 647 580 585
3 647 649 580
3 651 652 653
3 651 654 652
3 651 648 654
3 651 649 648
3 651 580 649
3 651 579 580
3 651 495 579
3 651 653 495
3 655 656 657
3 655 658 656
3 655 659 658
3 655 660 659
3 655 540 660
3 655 576 540
3 655 571 576
3 655 657 571
3 661 662 663
3 661 664 662
3 661 656 664
3 661 657 656
3 661 571 657
3 661 570 571
3 661 529 570
3 661 663 529
3 665 631 632
3 665 666 631
3 665 667 666
3 665 668 667
3 665 558 668
3 665 566 558
3 665 564 566
3 665 632 564
3 669 667 668
3 669 670 667
3 669 671 670
3 669 672 671
3 669 507 672
3 669 560 507
3 669 558 560
3 669 668 558
3 673 674 675
3 673 676 674
3 673 638 676
3 673 639 638
3 673 553 639
3 673 552 553
3 673 547 552
3 673 675 547
3 677 678 679
3 677 680 678
3 677 674 680
3 677 675 674
3 677 547 675
3 677 546 547
3 677 474 546
3 677 679 474
3 681 659 660
3 681 682 659
3 681 683 682
3 681 684 683
3 681 534 684
3 681 542 534
3 681 540 542
3 681 660 540
3 685 683 684
3 685 686 683
3 685 687 686
3 685 688 687
3 685 465 688
3 685 536 465
3 685 534 536
3 685 684 534
3 689 690 691
3 689 692 690
3 689 662 692
3 689 663 662
3 689 529 663
3 689 528 529
3 689 523 528
3 689 691 523
3 693 694 695
3 693 696 694
3 693 690 696
3 693 691 690
3 693 523 691
3 693 522 523
3 693 516 522
3 693 695 516
3 697 645 646
3 697 698 645
3 697 694 698
3 697 695 694
3 697 516 695
3 697 515 516
3 697 513 515
3 697 646 513
3 699 671 672
3 699 700 671
3 699 701 700
3 699 702 701
3 699 501 702
3 699 509 501
3 699 507 509
3 699 672 507
3 703 701 702
3 703 704 701
3 703 705 704
3 703 706 705
3 703 492 706
3 703 503 492
3 703 501 503
3 703 702 501
3 707 705 706
3 707 708 705
3 707 652 708
3 707 653 652
3 707 495 653
3 707 494 495
3 707 492 494
3 707 706 492
3 709 625 626
3 709 710 625
3 709 711 710
3 709 712 711
3 709 480 712
3 709 488 480
3 709 486 488
3 709 626 486
3 713 711 712
3 713 714 711
3 713 715 714
3 713 716 715
3 713 471 716
3 713 482 471
3 713 480 482
3 713 712 480
3 717 715 716
3 717 718 715
3 717 678 718
3 717 679 678
3 717 474 679
3 717 473 474
3 717 471 473
3 717 716 471
3 719 687 688
3 719 720 687
3 719 721 720
3 719 722 721
3 719 459 722
3 719 467 459
3 719 465 467
3 719 688 465
3 723 721 722
3 723 724 721
3 723 725 724
3 723 726 725
3 723 450 726
3 723 461 450
3 723 459 461
3 723 722 459
3 727 725 726
3 727 728 725
3 727 634 728
3 727 635 634
3 727 453 635
3 727 452 453
3 727 450 452
3 727 726 450
3 729 730 731
3 729 732 730
3 729 733 732
3 729 734 733
3 729 735 734
3 729 736 735
3 729 737 736
3 729 731 737
3 738 739 740
3 738 741 739
3 738 730 741
3 738 731 730
3 738 737 731
3 738 742 737
3 738 743 742
3 738 740 743
3 744 745 746
3 744 747 745
3 744 739 747
3 744 740 739
3 744 743 740
3 744 748 743
3 744 749 748
3 744 746 749
3 750 737 751
3 750 736 737
3 750 735 736
3 750 752 735
3 750 753 752
3 750 754 753
3 750 755 754
3 750 751 755
3 756 743 757
3 756 742 743
3 756 737 742
3 756 751 737
3 756 755 751
3 756 758 755
3 756 759 758
3 756 757 759
3 760 749 761
3 760 748 749
3 760 743 748
3 760 757 743
3 760 759 757
3 760 762 759
3 760 763 762
3 760 761 763
3 764 755 765
3 764 754 755
3 764 753 754
3 764 766 753
3 764 767 766
3 764 768 767
3 764 769 768
3 764 765 769
3 770 759 771
3 770 758 759
3 770 755 758
3 770 765 755
3 770 769 765
3 770 772 769
3 770 773 772
3 770 771 773
3 774 763 775
3 774 762 763
3 774 759 762
3 774 771 759
3 774 773 771
3 774 776 773
3 774 777 776
3 774 775 777
3 778 769 779
3 778 768 769
3 778 767 768
3 778 780 767
3 778 781 780
3 778 782 781
3 778 783 782
3 778 779 783
3 784 773 785
3 784 772 773
3 784 769 772
3 784 779 769
3 784 783 779
3 784 786 783
3 784 787 786
3 784 785 787
3 788 777 789
3 788 776 777
3 788 773 776
3 788 785 773
3 788 787 785
3 788 790 787
3 788 791 790
3 788 789 791
3 792 783 793
3 792 782 783
3 792 781 782
3 792 794 781
3 792 634 794
3 792 728 634
3 792 725 728
3 792 793 725
3 795 787 796
3 795 786 787
3 795 783 786
3 795 793 783
3 795 725 793
3 795 724 725
3 795 721 724
3 795 796 721
3 797 791 798
3 797 790 791
3 797 787 790
3 797 796 787
3 797 721 796
3 797 720 721
3 797 687 720
3 797 798 687
3 799 711 800
3 799 710 711
3 799 625 710
3 799 801 625
3 799 802 801
3 799 803 802
3 799 804 803
3 799 800 804
3 805 715 806
3 805 714 715
3 805 711 714
3 805 800 711
3 805 804 800
3 805 807 804
3 805 808 807
3 805 806 808
3 809 678 810
3 809 718 678
3 809 715 718
3 809 806 715
3 809 808 806
3 809 811 808
3 809 812 811
3 809 810 812
3 813 804 814
3 813 803 804
3 813 802 803
3 813 815 802
3 813 733 815
3 813 732 733
3 813 730 732
3 813 814 730
3 816 808 817
3 816 807 808
3 816 804 807
3 816 814 804
3 816 730 814
3 816 741 730
3 816 739 741
3 816 817 739
3 818 812 819
3 818 811 812
3 818 808 811
3 818 817 808
3 818 739 817
3 818 747 739
3 818 745 747
3 818 819 745
3 820 694 821
3 820 698 694
3 820 645 698
3 820 822 645
3 820 823 822
3 820 824 823
3 820 825 824
3 820 821 825
3 826 690 827
3 826 696 690
3 826 694 696
3 826 821 694
3 826 825 821
3 826 828 825
3 826 829 828
3 826 827 829
3 830 662 831
3 830 692 662
3 830 690 692
3 830 827 690
3 830 829 827
3 830 832 829
3 830 833 832
3 830 831 833
3 834 825 835
3 834 824 825
3 834 823 824
3 834 836 823
3 834 745 836
3 834 746 745
3 834 749 746
3 834 835 749
3 837 829 838
3 837 828 829
3 837 825 828
3 837 835 825
3 837 749 835
3 837 761 749
3 837 763 761
3 837 838 763
3 839 833 840
3 839 832 833
3 839 829 832
3 839 838 829
3 839 763 838
3 839 775 763
3 839 777 775
3 839 840 777
3 841 735 842
3 841 734 735
3 841 733 734
3 841 843 733
3 841 844 843
3 841 845 844
3 841 846 845
3 841 842 846
3 847 753 848
3 847 752 753
3 847 735 752
3 847 842 735
3 847 846 842
3 847 849 846
3 847 850 849
3 847 848 850
3 851 767 852
3 851 766 767
3 851 753 766
3 851 848 753
3 851 850 848
3 851 853 850
3 851 854 853
3 851 852 854
3 855 846 856
3 855 845 846
3 855 844 845
3 855 857 844
3 855 652 857
3 855 708 652
3 855 705 708
3 855 856 705
3 858 850 859
3 858 849 850
3 858 846 849
3 858 856 846
3 858 705 856
3 858 704 705
3 858 701 704
3 858 859 701
3 860 854 861
3 860 853 854
3 860 850 853
3 860 859 850
3 860 701 859
3 860 700 701
3 860 671 700
3 860 861 671
3 862 833 863
3 862 840 833
3 862 777 840
3 862 789 777
3 862 791 789
3 862 864 791
3 862 865 864
3 862 863 865
3 866 662 664
3 866 831 662
3 866 833 831
3 866 863 833
3 866 865 863
3 866 867 865
3 866 656 867
3 866 664 656
3 868 865 869
3 868 864 865
3 868 791 864
3 868 798 791
3 868 687 798
3 868 686 687
3 868 683 686
3 868 869 683
3 870 656 658
3 870 867 656
3 870 865 867
3 870 869 865
3 870 683 869
3 870 682 683
3 870 659 682
3 870 658 659
3 871 674 872
3 871 680 674
3 871 678 680
3 871 810 678
3 871 812 810
3 871 873 812
3 871 874 873
3 871 872 874
3 875 638 640
3 875 676 638
3 875 674 676
3 875 872 674
3 875 874 872
3 875 876 874
3 875 641 876
3 875 640 641
3 877 874 878
3 877 873 874
3 877 812 873
3 877 819 812
3 877 745 819
3 877 836 745
3 877 823 836
3 877 878 823
3 879 641 644
3 879 876 641
3 879 874 876
3 879 878 874
3 879 823 878
3 879 822 823
3 879 645 822
3 879 644 645
3 880 781 881
3 880 780 781
3 880 767 780
3 880 852 767
3 880 854 852
3 880 882 854
3 880 883 882
3 880 881 883
3 884 634 636
3 884 794 634
3 884 781 794
3 884 881 781
3 884 883 881
3 884 885 883
3 884 628 885
3 884 636 628
3 886 883 887
3 886 882 883
3 886 854 882
3 886 861 854
3 886 671 861
3 886 670 671
3 886 667 670
3 886 887 667
3 888 628 630
3 888 885 628
3 888 883 885
3 888 887 883
3 888 667 887
3 888 666 667
3 888 631 666
3 888 630 631
3 889 802 890
3 889 801 802
3 889 625 801
3 889 624 625
3 889 621 624
3 889 891 621
3 889 892 891
3 889 890 892
3 893 733 843
3 893 815 733
3 893 802 815
3 893 890 802
3 893 892 890
3 893 894 892
3 893 844 894
3 893 843 844
3 895 618 620
3 895 650 618
3 895 648 650
3 895 896 648
3 895 892 896
3 895 891 892
3 895 621 891
3 895 620 621
3 897 844 857
3 897 894 844
3 897 892 894
3 897 896 892
3 897 648 896
3 897 654 648
3 897 652 654
3 897 857 652
