ply
format ascii 1.0
element vertex 272
property float x
property float y
property float z
property float nx
property float ny
property float nz
property float u
property float v
element face 512
property list uchar int vertex_indices
end_header
-0.356938 3.139054 2.829269 0.273010607 -0.700727224 -0.659125608 0 0
-0.338051 3.134425 2.847588 0.413299227 -0.811398483 -0.413299227 0 0
-0.358864 3.134425 2.833918 0.223805828 -0.811221124 -0.540214067 0 0
-0.334482 3.139054 2.844019 0.503832387 -0.701645103 -0.503832387 0 0
-0.331558 3.143626 2.841095 0.554832711 -0.619936549 -0.554832711 0 0
-0.355361 3.143626 2.82546 0.300528326 -0.619058349 -0.725568388 0 0
-0.383247 3.143626 2.819685 0 -0.619939315 -0.78464976 0 0
-0.383247 3.139054 2.82382 0 -0.7016355 -0.712536052 0 0
-0.383247 3.134425 2.828868 0 -0.811395858 -0.584497016 0 0
-0.319731 3.139054 2.866475 0.659125608 -0.700727224 -0.273010607 0 0
-0.324381 3.134425 2.868401 0.540214067 -0.811221124 -0.223805828 0 0
-0.319331 3.134425 2.892784 0.584431174 -0.811443284 0 0 0
-0.314283 3.139054 2.892784 0.712536052 -0.7016355 0 0 0
-0.310148 3.143626 2.892784 0.78464976 -0.619939315 0 0 0
-0.315923 3.143626 2.864898 0.725568388 -0.619058349 -0.300528326 0 0
-0.319731 3.139054 2.919093 0.659125608 -0.700727224 0.273010607 0 0
-0.331558 3.143626 2.944473 0.554832711 -0.619936549 0.554832711 0 0
-0.334482 3.139054 2.941549 0.503832387 -0.701645103 0.503832387 0 0
-0.315923 3.143626 2.92067 0.725568388 -0.619058349 0.300528326 0 0
-0.324381 3.134425 2.917167 0.540214067 -0.811221124 0.223805828 0 0
-0.338051 3.134425 2.937979 0.413299227 -0.811398483 0.413299227 0 0
-0.356938 3.139054 2.956299 0.272991476 -0.700778119 0.659079421 0 0
-0.383247 3.143626 2.965883 0 -0.619939315 0.78464976 0 0
-0.383247 3.139054 2.961748 0 -0.7016355 0.712536052 0 0
-0.355361 3.143626 2.960107 0.300528326 -0.619058349 0.725568388 0 0
-0.358864 3.134425 2.95165 0.223805828 -0.811221124 0.540214067 0 0
-0.383247 3.134425 2.9567 0 -0.811395858 0.584497016 0 0
-0.409556 3.139054 2.956299 -0.272991476 -0.700778119 0.659079421 0 0
-0.411133 3.143626 2.960107 -0.300528326 -0.619058349 0.725568388 0 0
-0.40763 3.134425 2.95165 -0.223805828 -0.811221124 0.540214067 0 0
-0.428442 3.134425 2.937979 -0.413299227 -0.811398483 0.413299227 0 0
-0.432012 3.139054 2.941549 -0.503832387 -0.701645103 0.503832387 0 0
-0.434935 3.143626 2.944473 -0.554832711 -0.619936549 0.554832711 0 0
-0.446762 3.139054 2.919093 -0.659125608 -0.700727224 0.273010607 0 0
-0.456346 3.143626 2.892784 -0.78464976 -0.619939315 0 0 0
-0.452211 3.139054 2.892784 -0.712536052 -0.7016355 0 0 0
-0.45057 3.143626 2.92067 -0.725568388 -0.619058349 0.300528326 0 0
-0.442113 3.134425 2.917167 -0.540214067 -0.811221124 0.223805828 0 0
-0.447163 3.134425 2.892784 -0.584431174 -0.811443284 0 0 0
-0.446762 3.139054 2.866475 -0.659125608 -0.700727224 -0.273010607 0 0
-0.45057 3.143626 2.864898 -0.725568388 -0.619058349 -0.300528326 0 0
-0.442113 3.134425 2.868401 -0.540214067 -0.811221124 -0.223805828 0 0
-0.428442 3.134425 2.847588 -0.413299227 -0.811398483 -0.413299227 0 0
-0.432012 3.139054 2.844019 -0.503832387 -0.701645103 -0.503832387 0 0
-0.434935 3.143626 2.841095 -0.554832711 -0.619936549 -0.554832711 0 0
-0.409556 3.139054 2.829269 -0.272991476 -0.700778119 -0.659079421 0 0
-0.411133 3.143626 2.82546 -0.300528326 -0.619058349 -0.725568388 0 0
-0.40763 3.134425 2.833918 -0.223805828 -0.811221124 -0.540214067 0 0
-0.40606 3.132289 2.837709 -0.113400722 -0.955106084 -0.273701743 0 0
-0.425532 3.132289 2.850499 -0.210198831 -0.954794691 -0.210198831 0 0
-0.419302 3.131622 2.856729 -0.0337020294 -0.998860148 -0.0338020355 0 0
-0.402699 3.131622 2.845823 -0.0182012751 -0.998869978 -0.0439030757 0 0
-0.383247 3.131622 2.841794 0 -0.998861567 -0.0477029403 0 0
-0.383247 3.132289 2.832984 0 -0.954785521 -0.297295492 0 0
-0.438322 3.132289 2.869971 -0.273701743 -0.955106084 -0.113400722 0 0
-0.443047 3.132289 2.892784 -0.297295492 -0.954785521 0 0 0
-0.434236 3.131622 2.892784 -0.0477029403 -0.998861567 0 0 0
-0.430208 3.131622 2.873332 -0.0439030757 -0.998869978 -0.0182012751 0 0
-0.438322 3.132289 2.915597 -0.273701743 -0.955106084 0.113400722 0 0
-0.425532 3.132289 2.935069 -0.210198831 -0.954794691 0.210198831 0 0
-0.419302 3.131622 2.928839 -0.0337020294 -0.998860148 0.0338020355 0 0
-0.430208 3.131622 2.912236 -0.0439030757 -0.998869978 0.0182012751 0 0
-0.40606 3.132289 2.947859 -0.113400722 -0.955106084 0.273701743 0 0
-0.383247 3.132289 2.952584 0 -0.954785521 0.297295492 0 0
-0.383247 3.131622 2.943774 0 -0.998861567 0.0477029403 0 0
-0.402699 3.131622 2.939745 -0.0182012751 -0.998869978 0.0439030757 0 0
-0.360434 3.132289 2.947859 0.113400722 -0.955106084 0.273701743 0 0
-0.340962 3.132289 2.935069 0.210198831 -0.954794691 0.210198831 0 0
-0.347192 3.131622 2.928839 0.0337020294 -0.998860148 0.0338020355 0 0
-0.363795 3.131622 2.939745 0.0182012751 -0.998869978 0.0439030757 0 0
-0.328172 3.132289 2.915597 0.273701743 -0.955106084 0.113400722 0 0
-0.323447 3.132289 2.892784 0.297295492 -0.954785521 0 0 0
-0.332257 3.131622 2.892784 0.0477029403 -0.998861567 0 0 0
-0.336286 3.131622 2.912236 0.0439030757 -0.998869978 0.0182012751 0 0
-0.328172 3.132289 2.869971 0.273701743 -0.955106084 -0.113400722 0 0
-0.340962 3.132289 2.850499 0.210198831 -0.954794691 -0.210198831 0 0
-0.347192 3.131622 2.856729 0.0337020294 -0.998860148 -0.0338020355 0 0
-0.336286 3.131622 2.873332 0.0439030757 -0.998869978 -0.0182012751 0 0
-0.360434 3.132289 2.837709 0.113400722 -0.955106084 -0.273701743 0 0
-0.363795 3.131622 2.845823 0.0182012751 -0.998869978 -0.0439030757 0 0
-0.371093 3.131399 2.863441 0.00330020906 -0.999963345 -0.00790050047 0 0
-0.360719 3.131399 2.870256 0.00610038302 -0.999962785 -0.00610038302 0 0
-0.383247 3.131399 2.860924 0 -0.999963015 -0.00860054198 0 0
-0.383247 3.131314 2.879142 0 -0.999781579 -0.0208996149 0 0
-0.378042 3.131314 2.88022 0.00809979828 -0.999775101 -0.0195995119 0 0
-0.3736 3.131314 2.883137 0.0147997179 -0.999780944 -0.0147997179 0 0
-0.353904 3.131399 2.88063 0.00790050047 -0.999963345 -0.00330020906 0 0
-0.370683 3.131314 2.88758 0.0195995119 -0.999775101 -0.00809979828 0 0
-0.369605 3.131314 2.892784 0.0208996149 -0.999781579 0 0 0
-0.351387 3.131399 2.892784 0.00860054198 -0.999963015 0 0 0
-0.353904 3.131399 2.904938 0.00790050047 -0.999963345 0.00330020906 0 0
-0.370683 3.131314 2.897988 0.0195995119 -0.999775101 0.00809979828 0 0
-0.3736 3.131314 2.90243 0.0147997179 -0.999780944 0.0147997179 0 0
-0.360719 3.131399 2.915312 0.00610038302 -0.999962785 0.00610038302 0 0
-0.371093 3.131399 2.922126 0.00330020906 -0.999963345 0.00790050047 0 0
-0.378042 3.131314 2.905348 0.00809979828 -0.999775101 0.0195995119 0 0
-0.383247 3.131314 2.906426 0 -0.999781579 0.0208996149 0 0
-0.383247 3.131399 2.924644 0 -0.999963015 0.00860054198 0 0
-0.395401 3.131399 2.922126 -0.00330020906 -0.999963345 0.00790050047 0 0
-0.405775 3.131399 2.915312 -0.00610038302 -0.999962785 0.00610038302 0 0
-0.388451 3.131314 2.905348 -0.00809979828 -0.999775101 0.0195995119 0 0
-0.392893 3.131314 2.90243 -0.0147997179 -0.999780944 0.0147997179 0 0
-0.412589 3.131399 2.904938 -0.00790050047 -0.999963345 0.00330020906 0 0
-0.395811 3.131314 2.897988 -0.0195995119 -0.999775101 0.00809979828 0 0
-0.396889 3.131314 2.892784 -0.0208996149 -0.999781579 0 0 0
-0.415106 3.131399 2.892784 -0.00860054198 -0.999963015 0 0 0
-0.412589 3.131399 2.88063 -0.00790050047 -0.999963345 -0.00330020906 0 0
-0.405775 3.131399 2.870256 -0.00610038302 -0.999962785 -0.00610038302 0 0
-0.395811 3.131314 2.88758 -0.0195995119 -0.999775101 -0.00809979828 0 0
-0.392893 3.131314 2.883137 -0.0147997179 -0.999780944 -0.0147997179 0 0
-0.395401 3.131399 2.863441 -0.00330020906 -0.999963345 -0.00790050047 0 0
-0.388451 3.131314 2.88022 -0.00809979828 -0.999775101 -0.0195995119 0 0
-0.381155 3.12731 2.887735 0.0568015376 -0.988926771 -0.137103711 0 0
-0.378263 3.127736 2.8878 0.489727947 -0.721341165 -0.489727947 0 0
-0.37937 3.12731 2.888907 0.105598513 -0.988786078 -0.105598513 0 0
-0.380558 3.127736 2.886293 0.264508228 -0.722722481 -0.638519861 0 0
-0.383247 3.127736 2.885736 0 -0.721311379 -0.692610926 0 0
-0.383247 3.12731 2.887302 0 -0.988792124 -0.149298811 0 0
-0.383247 3.12731 2.889389 0 -0.999999995 -9.99999995e-05 0 0
-0.381952 3.12731 2.889657 0 -1 0 0 0
-0.380846 3.12731 2.890383 0 -1 0 0 0
-0.378198 3.12731 2.890692 0.137102932 -0.988921148 -0.0569012168 0 0
-0.376199 3.127736 2.892784 0.692610926 -0.721311379 0 0 0
-0.377765 3.12731 2.892784 0.149298811 -0.988792124 0 0 0
-0.376756 3.127736 2.890095 0.638519861 -0.722722481 -0.264508228 0 0
-0.38012 3.12731 2.891489 0 -1 0 0 0
-0.379852 3.12731 2.892784 0 -1 0 0 0
-0.378198 3.12731 2.894875 0.137102932 -0.988921148 0.0569012168 0 0
-0.378263 3.127736 2.897767 0.489727947 -0.721341165 0.489727947 0 0
-0.37937 3.12731 2.89666 0.105598513 -0.988786078 0.105598513 0 0
-0.376756 3.127736 2.895473 0.638519861 -0.722722481 0.264508228 0 0
-0.38012 3.12731 2.894079 0 -0.999999995 9.99999995e-05 0 0
-0.380846 3.12731 2.895184 0 -1 0 0 0
-0.381155 3.12731 2.897833 0.0568015376 -0.988926771 0.137103711 0 0
-0.383247 3.127736 2.899832 0 -0.721311379 0.692610926 0 0
-0.383247 3.12731 2.898266 0 -0.988792124 0.149298811 0 0
-0.380558 3.127736 2.899275 0.264508228 -0.722722481 0.638519861 0 0
-0.381952 3.12731 2.89591 0 -1 0 0 0
-0.383247 3.12731 2.896178 0 -0.999999995 9.99999995e-05 0 0
-0.385338 3.12731 2.897833 -0.0568007586 -0.988913207 0.137201832 0 0
-0.38823 3.127736 2.897767 -0.489727947 -0.721341165 0.489727947 0 0
-0.387123 3.12731 2.89666 -0.105598513 -0.988786078 0.105598513 0 0
-0.385935 3.127736 2.899275 -0.264505998 -0.72281639 0.638414476 0 0
-0.384542 3.12731 2.89591 0 -0.999999995 9.99999995e-05 0 0
-0.385647 3.12731 2.895184 0 -0.999999995 9.99999995e-05 0 0
-0.388296 3.12731 2.894875 -0.137102932 -0.988921148 0.0569012168 0 0
-0.390294 3.127736 2.892784 -0.692610926 -0.721311379 0 0 0
-0.388729 3.12731 2.892784 -0.149298811 -0.988792124 0 0 0
-0.389738 3.127736 2.895473 -0.638519861 -0.722722481 0.264508228 0 0
-0.386373 3.12731 2.894079 0 -1 0 0 0
-0.386641 3.12731 2.892784 0 -1 0 0 0
-0.388296 3.12731 2.890692 -0.137102932 -0.988921148 -0.0569012168 0 0
-0.38823 3.127736 2.8878 -0.489727947 -0.721341165 -0.489727947 0 0
-0.387123 3.12731 2.888907 -0.105598513 -0.988786078 -0.105598513 0 0
-0.389738 3.127736 2.890095 -0.638519861 -0.722722481 -0.264508228 0 0
-0.386373 3.12731 2.891489 0 -1 0 0 0
-0.385647 3.12731 2.890383 0 -0.999999995 -9.99999995e-05 0 0
-0.385338 3.12731 2.887735 -0.0568007586 -0.988913207 -0.137201832 0 0
-0.385935 3.127736 2.886293 -0.264508228 -0.722722481 -0.638519861 0 0
-0.384542 3.12731 2.889657 0 -0.999999995 -9.99999995e-05 0 0
-0.386134 3.131058 2.885812 -0.259092619 -0.735879035 -0.625582177 0 0
-0.388599 3.131058 2.887431 -0.475782082 -0.739772141 -0.475782082 0 0
-0.388599 3.130377 2.887431 -0.707106781 0 -0.707106781 0 0
-0.386134 3.130377 2.885812 -0.38260498 0 -0.923912025 0 0
-0.383247 3.130377 2.885214 0 0 -1 0 0
-0.383247 3.131058 2.885214 0 -0.739718308 -0.672916655 0 0
-0.386134 3.129014 2.885812 -0.375817512 -0.187908756 -0.907442283 0 0
-0.388599 3.129014 2.887431 -0.694533609 -0.188109103 -0.694433604 0 0
-0.383247 3.129014 2.885214 0 -0.188012747 -0.982166588 0 0
-0.390218 3.131058 2.889896 -0.625582177 -0.735879035 -0.259092619 0 0
-0.390816 3.131058 2.892784 -0.672812151 -0.739813361 0 0 0
-0.390816 3.130377 2.892784 -1 0 0 0 0
-0.390218 3.130377 2.889896 -0.923876672 0 -0.382690337 0 0
-0.390218 3.129014 2.889896 -0.907442283 -0.187908756 -0.375817512 0 0
-0.390816 3.129014 2.892784 -0.982148117 -0.188109216 0 0 0
-0.390218 3.131058 2.895672 -0.625521309 -0.73592507 0.259108827 0 0
-0.388599 3.131058 2.898136 -0.47581728 -0.739726864 0.47581728 0 0
-0.388599 3.130377 2.898136 -0.707106781 0 0.707106781 0 0
-0.390218 3.130377 2.895672 -0.923876672 0 0.382690337 0 0
-0.390218 3.129014 2.895672 -0.907408176 -0.187901693 0.375903387 0 0
-0.388599 3.129014 2.898136 -0.694533609 -0.188109103 0.694433604 0 0
-0.386134 3.131058 2.899755 -0.259092619 -0.735879035 0.625582177 0 0
-0.383247 3.131058 2.900353 0 -0.739718308 0.672916655 0 0
-0.383247 3.130377 2.900353 0 0 1 0 0
-0.386134 3.130377 2.899755 -0.382690337 0 0.923876672 0 0
-0.386134 3.129014 2.899755 -0.375903387 -0.187901693 0.907408176 0 0
-0.383247 3.129014 2.900353 0 -0.188012747 0.982166588 0 0
-0.380359 3.131058 2.899755 0.259092619 -0.735879035 0.625582177 0 0
-0.377894 3.131058 2.898136 0.47581728 -0.739726864 0.47581728 0 0
-0.377894 3.130377 2.898136 0.707106781 0 0.707106781 0 0
-0.380359 3.130377 2.899755 0.382690337 0 0.923876672 0 0
-0.380359 3.129014 2.899755 0.375903387 -0.187901693 0.907408176 0 0
-0.377894 3.129014 2.898136 0.694533609 -0.188109103 0.694433604 0 0
-0.376275 3.131058 2.895672 0.625521309 -0.73592507 0.259108827 0 0
-0.375677 3.131058 2.892784 0.672812151 -0.739813361 0 0 0
-0.375677 3.130377 2.892784 1 0 0 0 0
-0.376275 3.130377 2.895672 0.923876672 0 0.382690337 0 0
-0.376275 3.129014 2.895672 0.907408176 -0.187901693 0.375903387 0 0
-0.375677 3.129014 2.892784 0.982148117 -0.188109216 0 0 0
-0.376275 3.131058 2.889896 0.625582177 -0.735879035 -0.259092619 0 0
-0.377894 3.131058 2.887431 0.475782082 -0.739772141 -0.475782082 0 0
-0.377894 3.130377 2.887431 0.707106781 0 -0.707106781 0 0
-0.376275 3.130377 2.889896 0.923876672 0 -0.382690337 0 0
-0.376275 3.129014 2.889896 0.907442283 -0.187908756 -0.375817512 0 0
-0.377894 3.129014 2.887431 0.694533609 -0.188109103 -0.694433604 0 0
-0.380359 3.131058 2.885812 0.259092619 -0.735879035 -0.625582177 0 0
-0.380359 3.130377 2.885812 0.38260498 0 -0.923912025 0 0
-0.380359 3.129014 2.885812 0.375817512 -0.187908756 -0.907442283 0 0
-0.354852 3.158726 2.824234 0.382688125 0.0033998945 -0.923871333 0 0
-0.383247 3.171208 2.818395 0 0.00339998035 -0.99999422 0 0
-0.354869 3.171208 2.824273 0.382688125 0.0033998945 -0.923871333 0 0
-0.383247 3.158726 2.818353 0 0.00339998035 -0.99999422 0 0
-0.383247 3.149201 2.818321 0 0.00339998035 -0.99999422 0 0
-0.35484 3.149201 2.824204 0.382688125 0.0033998945 -0.923871333 0 0
-0.330593 3.149201 2.84013 0.707102694 0.00340001295 -0.707102694 0 0
-0.330616 3.158726 2.840153 0.707102694 0.00340001295 -0.707102694 0 0
-0.330646 3.171208 2.840183 0.707102694 0.00340001295 -0.707102694 0 0
-0.354835 3.145588 2.824193 0.366315045 -0.289111874 -0.884436325 0 0
-0.383247 3.145588 2.818308 0 -0.288916396 -0.957354331 0 0
-0.330585 3.145588 2.840122 0.676950628 -0.288921608 -0.676950628 0 0
-0.314697 3.158726 2.864389 0.923871333 0.0033998945 -0.382688125 0 0
-0.314736 3.171208 2.864406 0.923871333 0.0033998945 -0.382688125 0 0
-0.314667 3.149201 2.864377 0.923871333 0.0033998945 -0.382688125 0 0
-0.308784 3.149201 2.892784 0.99999422 0.00339998035 0 0 0
-0.308816 3.158726 2.892784 0.99999422 0.00339998035 0 0 0
-0.308858 3.171208 2.892784 0.99999422 0.00339998035 0 0 0
-0.314655 3.145588 2.864372 0.884436325 -0.289111874 -0.366315045 0 0
-0.308771 3.145588 2.892784 0.957354331 -0.288916396 0 0 0
-0.314697 3.158726 2.921178 0.923871333 0.0033998945 0.382688125 0 0
-0.314736 3.171208 2.921162 0.923871333 0.0033998945 0.382688125 0 0
-0.314667 3.149201 2.921191 0.923871333 0.0033998945 0.382688125 0 0
-0.330593 3.149201 2.945437 0.707102694 0.00340001295 0.707102694 0 0
-0.330616 3.158726 2.945415 0.707102694 0.00340001295 0.707102694 0 0
-0.330646 3.171208 2.945385 0.707102694 0.00340001295 0.707102694 0 0
-0.314655 3.145588 2.921195 0.884436325 -0.289111874 0.366315045 0 0
-0.330585 3.145588 2.945446 0.676950628 -0.288921608 0.676950628 0 0
-0.354852 3.158726 2.961334 0.382688125 0.0033998945 0.923871333 0 0
-0.354869 3.171208 2.961295 0.382688125 0.0033998945 0.923871333 0 0
-0.35484 3.149201 2.961364 0.382688125 0.0033998945 0.923871333 0 0
-0.383247 3.149201 2.967247 0 0.00339998035 0.99999422 0 0
-0.383247 3.158726 2.967215 0 0.00339998035 0.99999422 0 0
-0.383247 3.171208 2.967172 0 0.00339998035 0.99999422 0 0
-0.354835 3.145588 2.961375 0.366315045 -0.289111874 0.884436325 0 0
-0.383247 3.145588 2.967259 0 -0.288916396 0.957354331 0 0
-0.411641 3.158726 2.961334 -0.382688125 0.0033998945 0.923871333 0 0
-0.411625 3.171208 2.961295 -0.382688125 0.0033998945 0.923871333 0 0
-0.411654 3.149201 2.961364 -0.382602768 0.0034000246 0.923906684 0 0
-0.4359 3.149201 2.945437 -0.707102694 0.00340001295 0.707102694 0 0
-0.435877 3.158726 2.945415 -0.707102694 0.00340001295 0.707102694 0 0
-0.435847 3.171208 2.945385 -0.707102694 0.00340001295 0.707102694 0 0
-0.411658 3.145588 2.961375 -0.366315045 -0.289111874 0.884436325 0 0
-0.435909 3.145588 2.945446 -0.676931065 -0.289013263 0.676931065 0 0
-0.451797 3.158726 2.921178 -0.923871333 0.0033998945 0.382688125 0 0
-0.451758 3.171208 2.921162 -0.923871333 0.0033998945 0.382688125 0 0
-0.451827 3.149201 2.921191 -0.923871333 0.0033998945 0.382688125 0 0
-0.45771 3.149201 2.892784 -0.99999422 0.00339998035 0 0 0
-0.457678 3.158726 2.892784 -0.99999422 0.00339998035 0 0 0
-0.457635 3.171208 2.892784 -0.99999422 0.00339998035 0 0 0
-0.451838 3.145588 2.921195 -0.884436325 -0.289111874 0.366315045 0 0
-0.457722 3.145588 2.892784 -0.957354331 -0.288916396 0 0 0
-0.451797 3.158726 2.864389 -0.923871333 0.0033998945 -0.382688125 0 0
-0.451758 3.171208 2.864406 -0.923871333 0.0033998945 -0.382688125 0 0
-0.451827 3.149201 2.864377 -0.923871333 0.0033998945 -0.382688125 0 0
-0.4359 3.149201 2.84013 -0.707102694 0.00340001295 -0.707102694 0 0
-0.435877 3.158726 2.840153 -0.707102694 0.00340001295 -0.707102694 0 0
-0.435847 3.171208 2.840183 -0.707102694 0.00340001295 -0.707102694 0 0
-0.451838 3.145588 2.864372 -0.884436325 -0.289111874 -0.366315045 0 0
-0.435909 3.145588 2.840122 -0.676931065 -0.289013263 -0.676931065 0 0
-0.411641 3.158726 2.824234 -0.382688125 0.0033998945 -0.923871333 0 0
-0.411625 3.171208 2.824273 -0.382688125 0.0033998945 -0.923871333 0 0
-0.411654 3.149201 2.824204 -0.382688125 0.0033998945 -0.923871333 0 0
-0.411658 3.145588 2.824193 -0.366315045 -0.289111874 -0.884436325 0 0
3 0 1 2
3 0 3 1
3 0 4 3
3 0 5 4
3 0 6 5
3 0 7 6
3 0 8 7
3 0 2 8
3 9 1 3
3 9 10 1
3 9 11 10
3 9 12 11
3 9 13 12
3 9 14 13
3 9 4 14
3 9 3 4
3 15 16 17
3 15 18 16
3 15 13 18
3 15 12 13
3 15 11 12
3 15 19 11
3 15 20 19
3 15 17 20
3 21 22 23
3 21 24 22
3 21 16 24
3 21 17 16
3 21 20 17
3 21 25 20
3 21 26 25
3 21 23 26
3 27 22 28
3 27 23 22
3 27 26 23
3 27 29 26
3 27 30 29
3 27 31 30
3 27 32 31
3 27 28 32
3 33 34 35
3 33 36 34
3 33 32 36
3 33 31 32
3 33 30 31
3 33 37 30
3 33 38 37
3 33 35 38
3 39 34 40
3 39 35 34
3 39 38 35
3 39 41 38
3 39 42 41
3 39 43 42
3 39 44 43
3 39 40 44
3 45 6 7
3 45 46 6
3 45 44 46
3 45 43 44
3 45 42 43
3 45 47 42
3 45 8 47
3 45 7 8
3 48 42 47
3 48 49 42
3 48 50 49
3 48 51 50
3 48 52 51
3 48 53 52
3 48 8 53
3 48 47 8
3 54 42 49
3 54 41 42
3 54 38 41
3 54 55 38
3 54 56 55
3 54 57 56
3 54 50 57
3 54 49 50
3 58 30 37
3 58 59 30
3 58 60 59
3 58 61 60
3 58 56 61
3 58 55 56
3 58 38 55
3 58 37 38
3 62 30 59
3 62 29 30
3 62 26 29
3 62 63 26
3 62 64 63
3 62 65 64
3 62 60 65
3 62 59 60
3 66 20 25
3 66 67 20
3 66 68 67
3 66 69 68
3 66 64 69
3 66 63 64
3 66 26 63
3 66 25 26
3 70 11 19
3 70 71 11
3 70 72 71
3 70 73 72
3 70 68 73
3 70 67 68
3 70 20 67
3 70 19 20
3 74 1 10
3 74 75 1
3 74 76 75
3 74 77 76
3 74 72 77
3 74 71 72
3 74 11 71
3 74 10 11
3 78 1 75
3 78 2 1
3 78 8 2
3 78 53 8
3 78 52 53
3 78 79 52
3 78 76 79
3 78 75 76
3 80 76 81
3 80 79 76
3 80 52 79
3 80 82 52
3 80 83 82
3 80 84 83
3 80 85 84
3 80 81 85
3 86 76 77
3 86 81 76
3 86 85 81
3 86 87 85
3 86 88 87
3 86 89 88
3 86 72 89
3 86 77 72
3 90 72 73
3 90 89 72
3 90 88 89
3 90 91 88
3 90 92 91
3 90 93 92
3 90 68 93
3 90 73 68
3 94 68 69
3 94 93 68
3 94 92 93
3 94 95 92
3 94 96 95
3 94 97 96
3 94 64 97
3 94 69 64
3 98 60 99
3 98 65 60
3 98 64 65
3 98 97 64
3 98 96 97
3 98 100 96
3 98 101 100
3 98 99 101
3 102 60 61
3 102 99 60
3 102 101 99
3 102 103 101
3 102 104 103
3 102 105 104
3 102 56 105
3 102 61 56
3 106 50 107
3 106 57 50
3 106 56 57
3 106 105 56
3 106 104 105
3 106 108 104
3 106 109 108
3 106 107 109
3 110 50 51
3 110 107 50
3 110 109 107
3 110 111 109
3 110 83 111
3 110 82 83
3 110 52 82
3 110 51 52
3 112 113 114
3 112 115 113
3 112 116 115
3 112 117 116
3 112 118 117
3 112 119 118
3 112 120 119
3 112 114 120
3 121 122 123
3 121 124 122
3 121 113 124
3 121 114 113
3 121 120 114
3 121 125 120
3 121 126 125
3 121 123 126
3 127 128 129
3 127 130 128
3 127 122 130
3 127 123 122
3 127 126 123
3 127 131 126
3 127 132 131
3 127 129 132
3 133 134 135
3 133 136 134
3 133 128 136
3 133 129 128
3 133 132 129
3 133 137 132
3 133 138 137
3 133 135 138
3 139 140 141
3 139 142 140
3 139 134 142
3 139 135 134
3 139 138 135
3 139 143 138
3 139 144 143
3 139 141 144
3 145 146 147
3 145 148 146
3 145 140 148
3 145 141 140
3 145 144 141
3 145 149 144
3 145 150 149
3 145 147 150
3 151 152 153
3 151 154 152
3 151 146 154
3 151 147 146
3 151 150 147
3 151 155 150
3 151 156 155
3 151 153 156
3 157 116 117
3 157 158 116
3 157 152 158
3 157 153 152
3 157 156 153
3 157 159 156
3 157 118 159
3 157 117 118
3 160 109 111
3 160 161 109
3 160 162 161
3 160 163 162
3 160 164 163
3 160 165 164
3 160 83 165
3 160 111 83
3 166 162 163
3 166 167 162
3 166 152 167
3 166 158 152
3 166 116 158
3 166 168 116
3 166 164 168
3 166 163 164
3 169 104 108
3 169 170 104
3 169 171 170
3 169 172 171
3 169 162 172
3 169 161 162
3 169 109 161
3 169 108 109
3 173 171 172
3 173 174 171
3 173 146 174
3 173 154 146
3 173 152 154
3 173 167 152
3 173 162 167
3 173 172 162
3 175 101 103
3 175 176 101
3 175 177 176
3 175 178 177
3 175 171 178
3 175 170 171
3 175 104 170
3 175 103 104
3 179 177 178
3 179 180 177
3 179 140 180
3 179 148 140
3 179 146 148
3 179 174 146
3 179 171 174
3 179 178 171
3 181 96 100
3 181 182 96
3 181 183 182
3 181 184 183
3 181 177 184
3 181 176 177
3 181 101 176
3 181 100 101
3 185 183 184
3 185 186 183
3 185 134 186
3 185 142 134
3 185 140 142
3 185 180 140
3 185 177 180
3 185 184 177
3 187 92 95
3 187 188 92
3 187 189 188
3 187 190 189
3 187 183 190
3 187 182 183
3 187 96 182
3 187 95 96
3 191 189 190
3 191 192 189
3 191 128 192
3 191 136 128
3 191 134 136
3 191 186 134
3 191 183 186
3 191 190 183
3 193 88 91
3 193 194 88
3 193 195 194
3 193 196 195
3 193 189 196
3 193 188 189
3 193 92 188
3 193 91 92
3 197 195 196
3 197 198 195
3 197 122 198
3 197 130 122
3 197 128 130
3 197 192 128
3 197 189 192
3 197 196 189
3 199 85 87
3 199 200 85
3 199 201 200
3 199 202 201
3 199 195 202
3 199 194 195
3 199 88 194
3 199 87 88
3 203 201 202
3 203 204 201
3 203 113 204
3 203 124 113
3 203 122 124
3 203 198 122
3 203 195 198
3 203 202 195
3 205 83 84
3 205 165 83
3 205 164 165
3 205 206 164
3 205 201 206
3 205 200 201
3 205 85 200
3 205 84 85
3 207 164 206
3 207 168 164
3 207 116 168
3 207 115 116
3 207 113 115
3 207 204 113
3 207 201 204
3 207 206 201
3 208 209 210
3 208 211 209
3 208 212 211
3 208 213 212
3 208 214 213
3 208 215 214
3 208 216 215
3 208 210 216
3 217 212 213
3 217 218 212
3 217 6 218
3 217 5 6
3 217 4 5
3 217 219 4
3 217 214 219
3 217 213 214
3 220 216 221
3 220 215 216
3 220 214 215
3 220 222 214
3 220 223 222
3 220 224 223
3 220 225 224
3 220 221 225
3 226 214 222
3 226 219 214
3 226 4 219
3 226 14 4
3 226 13 14
3 226 227 13
3 226 223 227
3 226 222 223
3 228 225 229
3 228 224 225
3 228 223 224
3 228 230 223
3 228 231 230
3 228 232 231
3 228 233 232
3 228 229 233
3 234 223 230
3 234 227 223
3 234 13 227
3 234 18 13
3 234 16 18
3 234 235 16
3 234 231 235
3 234 230 231
3 236 233 237
3 236 232 233
3 236 231 232
3 236 238 231
3 236 239 238
3 236 240 239
3 236 241 240
3 236 237 241
3 242 231 238
3 242 235 231
3 242 16 235
3 242 24 16
3 242 22 24
3 242 243 22
3 242 239 243
3 242 238 239
3 244 241 245
3 244 240 241
3 244 239 240
3 244 246 239
3 244 247 246
3 244 248 247
3 244 249 248
3 244 245 249
3 250 239 246
3 250 243 239
3 250 22 243
3 250 28 22
3 250 32 28
3 250 251 32
3 250 247 251
3 250 246 247
3 252 249 253
3 252 248 249
3 252 247 248
3 252 254 247
3 252 255 254
3 252 256 255
3 252 257 256
3 252 253 257
3 258 247 254
3 258 251 247
3 258 32 251
3 258 36 32
3 258 34 36
3 258 259 34
3 258 255 259
3 258 254 255
3 260 257 261
3 260 256 257
3 260 255 256
3 260 262 255
3 260 263 262
3 260 264 263
3 260 265 264
3 260 261 265
3 266 255 262
3 266 259 255
3 266 34 259
3 266 40 34
3 266 44 40
3 266 267 44
3 266 263 267
3 266 262 263
3 268 265 269
3 268 264 265
3 268 263 264
3 268 270 263
3 268 212 270
3 268 211 212
3 268 209 211
3 268 269 209
3 271 263 270
3 271 267 263
3 271 44 267
3 271 46 44
3 271 6 46
3 271 218 6
3 271 212 218
3 271 270 212
