ply
format ascii 1.0
element vertex 72
property float x
property float y
property float z
property float nx
property float ny
property float nz
property float u
property float v
element face 128
property list uchar int vertex_indices
end_header
-0.383247 2.734009 2.869858 0 0.52481142 -0.851218523 0 0
-0.364289 2.711871 2.873826 0.702954812 0.108208437 -0.702954812 0 0
-0.383247 2.711871 2.865974 0 0.108203135 -0.994128805 0 0
-0.367036 2.734009 2.876573 0.601905339 0.524804655 -0.601905339 0 0
-0.363598 2.690891 2.873136 0.707105636 0.00180001435 -0.707105636 0 0
-0.383247 2.690891 2.864997 0 0.00179999708 -0.99999838 0 0
-0.360321 2.734009 2.892784 0.851218523 0.52481142 0 0 0
-0.356437 2.711871 2.892784 0.994128805 0.108203135 0 0 0
-0.35546 2.690891 2.892784 0.99999838 0.00179999708 0 0 0
-0.367036 2.734009 2.908995 0.601905339 0.524804655 0.601905339 0 0
-0.364289 2.711871 2.911741 0.702954812 0.108208437 0.702954812 0 0
-0.363598 2.690891 2.912432 0.707105636 0.00180001435 0.707105636 0 0
-0.383247 2.734009 2.91571 0 0.52481142 0.851218523 0 0
-0.383247 2.711871 2.919594 0 0.108203135 0.994128805 0 0
-0.383247 2.690891 2.920571 0 0.00179999708 0.99999838 0 0
-0.402204 2.711871 2.911741 -0.702954812 0.108208437 0.702954812 0 0
-0.399458 2.734009 2.908995 -0.601905339 0.524804655 0.601905339 0 0
-0.402895 2.690891 2.912432 -0.707105636 0.00180001435 0.707105636 0 0
-0.406173 2.734009 2.892784 -0.851218523 0.52481142 0 0 0
-0.410057 2.711871 2.892784 -0.994128805 0.108203135 0 0 0
-0.411034 2.690891 2.892784 -0.99999838 0.00179999708 0 0 0
-0.402204 2.711871 2.873826 -0.702954812 0.108208437 -0.702954812 0 0
-0.399458 2.734009 2.876573 -0.601905339 0.524804655 -0.601905339 0 0
-0.402895 2.690891 2.873136 -0.707105636 0.00180001435 -0.707105636 0 0
-0.364218 2.670471 2.873755 0.702374796 -0.115495856 -0.702374796 0 0
-0.383247 2.670471 2.865874 0 -0.115500858 -0.99330738 0 0
-0.367036 2.650052 2.876573 0.64430355 -0.41200227 -0.64430355 0 0
-0.383247 2.650052 2.869858 0 -0.411993935 -0.911186588 0 0
-0.356337 2.670471 2.892784 0.99330738 -0.115500858 0 0 0
-0.360321 2.650052 2.892784 0.911186588 -0.411993935 0 0 0
-0.364218 2.670471 2.911812 0.702374796 -0.115495856 0.702374796 0 0
-0.367036 2.650052 2.908995 0.64430355 -0.41200227 0.64430355 0 0
-0.383247 2.670471 2.919694 0 -0.115500858 0.99330738 0 0
-0.383247 2.650052 2.91571 0 -0.411993935 0.911186588 0 0
-0.402275 2.670471 2.911812 -0.702374796 -0.115495856 0.702374796 0 0
-0.399458 2.650052 2.908995 -0.64430355 -0.41200227 0.64430355 0 0
-0.410157 2.670471 2.892784 -0.99330738 -0.115500858 0 0 0
-0.406173 2.650052 2.892784 -0.911186588 -0.411993935 0 0 0
-0.402275 2.670471 2.873755 -0.702374796 -0.115495856 -0.702374796 0 0
-0.399458 2.650052 2.876573 -0.64430355 -0.41200227 -0.64430355 0 0
-0.369334 2.73594 2.878871 0.229112645 0.946052214 -0.229112645 0 0
-0.383247 2.73594 2.873109 0 0.946051088 -0.324017497 0 0
-0.363571 2.73594 2.892784 0.324017497 0.946051088 0 0 0
-0.369334 2.73594 2.906696 0.229112645 0.946052214 0.229112645 0 0
-0.383247 2.73594 2.912459 0 0.946051088 0.324017497 0 0
-0.397159 2.73594 2.906696 -0.229112645 0.946052214 0.229112645 0 0
-0.402922 2.73594 2.892784 -0.324017497 0.946051088 0 0 0
-0.397159 2.73594 2.878871 -0.229112645 0.946052214 -0.229112645 0 0
-0.38574 2.73594 2.890291 0 1 0 0 0
-0.383247 2.73594 2.889258 0 1 0 0 0
-0.386772 2.73594 2.892784 0 1 0 0 0
-0.38574 2.73594 2.895277 0 1 0 0 0
-0.383247 2.73594 2.896309 0 1 0 0 0
-0.380754 2.73594 2.895277 0 1 0 0 0
-0.379721 2.73594 2.892784 0 1 0 0 0
-0.380754 2.73594 2.890291 0 1 0 0 0
-0.383247 2.646961 2.872496 0 -0.86762707 -0.497215513 0 0
-0.397592 2.646961 2.878438 -0.351604416 -0.867610897 -0.351604416 0 0
-0.403535 2.646961 2.892784 -0.497215513 -0.86762707 0 0 0
-0.397592 2.646961 2.90713 -0.351604416 -0.867610897 0.351604416 0 0
-0.383247 2.646961 2.913072 0 -0.86762707 0.497215513 0 0
-0.368901 2.646961 2.90713 0.351604416 -0.867610897 0.351604416 0 0
-0.362959 2.646961 2.892784 0.497215513 -0.86762707 0 0 0
-0.368901 2.646961 2.878438 0.351604416 -0.867610897 -0.351604416 0 0
-0.383247 2.646961 2.877853 0 -1 0 0 0
-0.372689 2.646961 2.882226 0 -1 0 0 0
-0.368316 2.646961 2.892784 0 -1 0 0 0
-0.372689 2.646961 2.903341 0 -1 0 0 0
-0.383247 2.646961 2.907714 0 -1 0 0 0
-0.393804 2.646961 2.903341 0 -1 0 0 0
-0.398177 2.646961 2.892784 0 -1 0 0 0
-0.393804 2.646961 2.882226 0 -1 0 0 0
3 0 1 2
3 0 3 1
3 2 4 5
3 2 1 4
3 6 1 3
3 6 7 1
3 7 4 1
3 7 8 4
3 9 7 6
3 9 10 7
3 10 8 7
3 10 11 8
3 12 10 9
3 12 13 10
3 13 11 10
3 13 14 11
3 12 15 13
3 12 16 15
3 13 17 14
3 13 15 17
3 18 15 16
3 18 19 15
3 19 17 15
3 19 20 17
3 18 21 19
3 18 22 21
3 19 23 20
3 19 21 23
3 0 21 22
3 0 2 21
3 2 23 21
3 2 5 23
3 5 24 25
3 5 4 24
3 25 26 27
3 25 24 26
3 8 24 4
3 8 28 24
3 28 26 24
3 28 29 26
3 11 28 8
3 11 30 28
3 30 29 28
3 30 31 29
3 14 30 11
3 14 32 30
3 32 31 30
3 32 33 31
3 14 34 32
3 14 17 34
3 32 35 33
3 32 34 35
3 20 34 17
3 20 36 34
3 36 35 34
3 36 37 35
3 20 38 36
3 20 23 38
3 36 39 37
3 36 38 39
3 5 38 23
3 5 25 38
3 25 39 38
3 25 27 39
3 0 40 3
3 0 41 40
3 6 40 42
3 6 3 40
3 9 42 43
3 9 6 42
3 12 43 44
3 12 9 43
3 12 45 16
3 12 44 45
3 18 45 46
3 18 16 45
3 18 47 22
3 18 46 47
3 0 47 41
3 0 22 47
3 41 48 49
3 41 47 48
3 46 48 47
3 46 50 48
3 46 51 50
3 46 45 51
3 44 51 45
3 44 52 51
3 44 53 52
3 44 43 53
3 43 54 53
3 43 42 54
3 42 55 54
3 42 40 55
3 41 55 40
3 41 49 55
3 39 56 57
3 39 27 56
3 39 58 37
3 39 57 58
3 35 58 59
3 35 37 58
3 35 60 33
3 35 59 60
3 31 60 61
3 31 33 60
3 29 61 62
3 29 31 61
3 26 62 63
3 26 29 62
3 26 56 27
3 26 63 56
3 63 64 56
3 63 65 64
3 63 66 65
3 63 62 66
3 62 67 66
3 62 61 67
3 61 68 67
3 61 60 68
3 59 68 60
3 59 69 68
3 59 70 69
3 59 58 70
3 57 70 58
3 57 71 70
3 57 64 71
3 57 56 64
