ply
format ascii 1.0
element vertex 12
property float x
property float y
property float z
property float nx
property float ny
property float nz
property float u
property float v
element face 12
property list uchar int vertex_indices
end_header
-0.383247 3.132836 2.889806 0 0 -1 0 0
-0.380668 2.729498 2.891295 0.866019053 0 -0.500011 0 0
-0.383247 2.729498 2.889806 0 0 -1 0 0
-0.380668 3.132836 2.891295 0.866019053 0 -0.500011 0 0
-0.380668 3.132836 2.894273 0.866019053 0 0.500011 0 0
-0.380668 2.729498 2.894273 0.866019053 0 0.500011 0 0
-0.383247 2.729498 2.895762 0 0 1 0 0
-0.383247 3.132836 2.895762 0 0 1 0 0
-0.385826 2.729498 2.894273 -0.866019053 0 0.500011 0 0
-0.385826 3.132836 2.894273 -0.866019053 0 0.500011 0 0
-0.385826 3.132836 2.891295 -0.866019053 0 -0.500011 0 0
-0.385826 2.729498 2.891295 -0.866019053 0 -0.500011 0 0
3 0 1 2
3 0 3 1
3 1 4 5
3 1 3 4
3 6 4 7
3 6 5 4
3 8 7 9
3 8 6 7
3 8 10 11
3 8 9 10
3 11 0 2
3 11 10 0
