ply
format ascii 1.0
element vertex 192
property float x
property float y
property float z
property float nx
property float ny
property float nz
property float u
property float v
element face 384
property list uchar int vertex_indices
end_header
-0.280622 2.70041 2.891551 0.826916096 0.331106445 -0.454508847 0 0
-0.282621 2.131364 2.890317 0.0908984497 -0.0338994219 -0.995283026 0 0
-0.282621 2.699743 2.890317 0.111000679 0.0530003244 -0.992406074 0 0
-0.280566 2.130847 2.891551 0.848253743 -0.261316556 -0.460629184 0 0
-0.280566 2.130847 2.894017 0.848231572 -0.26140973 0.460617144 0 0
-0.280622 2.70041 2.894017 0.826916096 0.331106445 0.454508847 0 0
-0.282621 2.131364 2.895251 0.0909976204 -0.0338991135 0.995273974 0 0
-0.282621 2.699743 2.895251 0.111000679 0.0530003244 0.992406074 0 0
-0.284677 2.13188 2.894017 -0.799645533 0.255014521 0.543630955 0 0
-0.284621 2.699076 2.894017 -0.758926829 -0.327511578 0.562819896 0 0
-0.284677 2.13188 2.891551 -0.799725056 0.25500799 -0.543517029 0 0
-0.284621 2.699076 2.891551 -0.758901969 -0.32760085 -0.56280146 0 0
-0.286228 2.12616 2.890317 0.0462008621 -0.0618011532 -0.997018605 0 0
-0.28774 2.1275 2.891551 -0.563229624 0.640433684 -0.522127462 0 0
-0.28774 2.1275 2.894017 -0.563229624 0.640433684 0.522127462 0 0
-0.286228 2.12616 2.895251 0.0462008621 -0.0618011532 0.997018605 0 0
-0.284716 2.12482 2.894017 0.599502668 -0.654202911 0.461102052 0 0
-0.284716 2.12482 2.891551 0.599502668 -0.654202911 -0.461102052 0 0
-0.291338 2.123359 2.890317 0.00470008528 -0.0119002159 -0.999918144 0 0
-0.290289 2.121707 2.891551 0.395101655 -0.786903297 -0.474001986 0 0
-0.290289 2.121707 2.894017 0.395101655 -0.786903297 0.474001986 0 0
-0.291338 2.123359 2.895251 0.00480008482 -0.0119002103 0.999917669 0 0
-0.292388 2.12501 2.894017 -0.390711538 0.783423135 0.483314272 0 0
-0.292388 2.12501 2.891551 -0.390711538 0.783423135 -0.483314272 0 0
-0.297199 2.12069 2.890317 -0.0380022251 0.0619036246 -0.997358397 0 0
-0.298569 2.122146 2.891551 -0.537921824 0.705828636 -0.4609187 0 0
-0.298569 2.122146 2.894017 -0.537921824 0.705828636 0.4609187 0 0
-0.297199 2.12069 2.895251 -0.0380022251 0.0619036246 0.997358397 0 0
-0.29583 2.119235 2.894017 0.50651745 -0.689723761 0.517417825 0 0
-0.29583 2.119235 2.891551 0.50651745 -0.689723761 -0.517417825 0 0
-0.301107 2.116154 2.890317 -0.0797040068 0.0416020914 -0.995950068 0 0
-0.299135 2.115423 2.891551 0.762047595 -0.364722779 -0.535033417 0 0
-0.299135 2.115423 2.894017 0.762089521 -0.364694985 0.534992644 0 0
-0.301107 2.116154 2.895251 -0.0797040068 0.0416020914 0.995950068 0 0
-0.303078 2.116884 2.894017 -0.81024657 0.363020865 0.460126447 0 0
-0.303078 2.116884 2.891551 -0.810209285 0.36300416 -0.460205274 0 0
-0.301858 2.111351 2.890317 0.101497778 -0.0791982664 -0.991678292 0 0
-0.303713 2.112291 2.891551 -0.697338864 0.443524718 -0.563031379 0 0
-0.303713 2.112291 2.894017 -0.697307932 0.443605046 0.563006404 0 0
-0.301858 2.111351 2.895251 0.101596744 -0.0791974622 0.991668223 0 0
-0.300003 2.11041 2.894017 0.758056352 -0.469834926 0.452333625 0 0
-0.300003 2.11041 2.891551 0.758020732 -0.469912852 -0.452312371 0 0
-0.306217 2.108282 2.890317 0.027199637 -0.0828988937 -0.996186706 0 0
-0.305403 2.106528 2.891551 0.321006939 -0.833118008 -0.450409736 0 0
-0.305403 2.106528 2.894017 0.321006939 -0.833118008 0.450409736 0 0
-0.306217 2.108282 2.895251 0.027199637 -0.0828988937 0.996186706 0 0
-0.30703 2.110035 2.894017 -0.285913859 0.807639147 0.515724998 0 0
-0.30703 2.110035 2.891551 -0.285990934 0.8075744 -0.51578365 0 0
-0.31298 2.107615 2.890317 0.0013000776 -0.0167009969 -0.999859683 0 0
-0.313216 2.109499 2.891551 -0.0382992367 0.876382534 -0.480090432 0 0
-0.313216 2.109499 2.894017 -0.0382992367 0.876382534 0.480090432 0 0
-0.31298 2.107615 2.895251 0.0013000776 -0.0167009969 0.999859683 0 0
-0.312744 2.10573 2.894017 0.0478014675 -0.882427091 0.468014368 0 0
-0.312744 2.10573 2.891551 0.0478014675 -0.882427091 -0.468014368 0 0
-0.383247 2.107615 2.890317 0 0 -1 0 0
-0.383247 2.10573 2.891551 0 -0.879647713 -0.475625799 0 0
-0.383247 2.10573 2.894017 0 -0.879647713 0.475625799 0 0
-0.383247 2.107615 2.895251 0 0 1 0 0
-0.383247 2.109499 2.894017 0 0.879647713 0.475625799 0 0
-0.383247 2.109499 2.891551 0 0.879647713 -0.475625799 0 0
-0.284054 2.703981 2.891551 0.473419598 0.754631239 -0.454318807 0 0
-0.285251 2.702411 2.890317 0.0387001057 0.0727001985 -0.996602721 0 0
-0.284054 2.703981 2.894017 0.473419598 0.754631239 0.454318807 0 0
-0.285251 2.702411 2.895251 0.0386002546 0.0727004795 0.996606573 0 0
-0.286448 2.70084 2.894017 -0.430902476 -0.740104252 0.516302966 0 0
-0.286448 2.70084 2.891551 -0.430798792 -0.740097924 -0.516398552 0 0
-0.290314 2.701998 2.891551 -0.150507537 -0.857242928 -0.492424659 0 0
-0.289885 2.703856 2.890317 0.00760019844 0.0411010732 -0.999126088 0 0
-0.290314 2.701998 2.894017 -0.150507537 -0.857242928 0.492424659 0 0
-0.289885 2.703856 2.895251 0.0075002015 0.0411011042 0.999126842 0 0
-0.289456 2.705714 2.894017 0.164304047 0.871521466 0.462011379 0 0
-0.289456 2.705714 2.891551 0.164304047 0.871521466 -0.462011379 0 0
-0.295378 2.706081 2.891551 0.0273014762 0.880947634 -0.472425545 0 0
-0.29552 2.704189 2.890317 0.00030001438 0.0102004889 -0.999947929 0 0
-0.295378 2.706081 2.894017 0.0273014762 0.880947634 0.472425545 0 0
-0.29552 2.704189 2.895251 0.00030001438 0.0102004889 0.999947929 0 0
-0.295662 2.702297 2.894017 -0.0244995926 -0.876985416 0.479892019 0 0
-0.295662 2.702297 2.891551 -0.0244995926 -0.876985416 -0.479892019 0 0
-0.364521 2.704189 2.890317 -0.368094388 0.00219996646 -0.929785826 0 0
-0.364551 2.702297 2.891551 -0.282890289 -0.814772029 -0.506082626 0 0
-0.364551 2.702297 2.894017 0.144903428 -0.934822113 0.324207669 0 0
-0.364521 2.704189 2.895251 0.545120227 -0.00670024862 0.838331107 0 0
-0.364491 2.706081 2.894017 0.143800536 0.933703483 0.327901223 0 0
-0.364491 2.706081 2.891551 -0.276301942 0.818005751 -0.504503547 0 0
-0.375237 2.702297 2.904131 -0.226204627 -0.907318559 -0.354407249 0 0
-0.383247 2.704189 2.905654 0 9.99999995e-05 -0.999999995 0 0
-0.375607 2.704189 2.902954 -0.579125282 0.00220009605 -0.81523559 0 0
-0.383247 2.702297 2.906887 0 -0.922154109 -0.386822697 0 0
-0.374472 2.702297 2.906476 0.306313536 -0.840337135 0.447219763 0 0
-0.383247 2.702297 2.909354 0 -0.842737848 0.538324177 0 0
-0.374076 2.704189 2.907645 0.52622678 -0.00130006616 0.850343275 0 0
-0.383247 2.704189 2.910587 0 0 1 0 0
-0.374446 2.706081 2.906468 0.308208032 0.83922187 0.448011675 0 0
-0.383247 2.706081 2.909354 0 0.842737848 0.538324177 0 0
-0.375211 2.706081 2.904123 -0.226103133 0.907812578 -0.353204894 0 0
-0.383247 2.706081 2.906887 0 0.922154109 -0.386822697 0 0
-0.370536 2.704189 2.897198 -0.757319581 0.00600015514 -0.653016884 0 0
-0.370129 2.702297 2.898362 -0.385586017 -0.859868817 -0.334587866 0 0
-0.369275 2.702297 2.900676 0.426594015 -0.843688163 0.325895428 0 0
-0.368827 2.704189 2.901826 0.779315563 -0.00490009786 0.626612514 0 0
-0.369233 2.706081 2.900661 0.430586833 0.840374302 0.329189934 0 0
-0.370088 2.706081 2.898347 -0.38230661 0.862214908 -0.332305746 0 0
-0.485872 2.70041 2.891551 -0.826916096 0.331106445 -0.454508847 0 0
-0.483872 2.131364 2.890317 -0.0908984497 -0.0338994219 -0.995283026 0 0
-0.485928 2.130847 2.891551 -0.848253743 -0.261316556 -0.460629184 0 0
-0.483872 2.699743 2.890317 -0.111000679 0.0530003244 -0.992406074 0 0
-0.485928 2.130847 2.894017 -0.848231572 -0.26140973 0.460617144 0 0
-0.485872 2.70041 2.894017 -0.826916096 0.331106445 0.454508847 0 0
-0.483872 2.131364 2.895251 -0.0908984497 -0.0338994219 0.995283026 0 0
-0.483872 2.699743 2.895251 -0.111000679 0.0530003244 0.992406074 0 0
-0.481817 2.13188 2.894017 0.799645533 0.255014521 0.543630955 0 0
-0.481872 2.699076 2.894017 0.758926829 -0.327511578 0.562819896 0 0
-0.481817 2.13188 2.891551 0.799725056 0.25500799 -0.543517029 0 0
-0.481872 2.699076 2.891551 0.758901969 -0.32760085 -0.56280146 0 0
-0.480265 2.12616 2.890317 -0.0462008621 -0.0618011532 -0.997018605 0 0
-0.478753 2.1275 2.891551 0.563229624 0.640433684 -0.522127462 0 0
-0.478753 2.1275 2.894017 0.563229624 0.640433684 0.522127462 0 0
-0.480265 2.12616 2.895251 -0.0462008621 -0.0618011532 0.997018605 0 0
-0.481777 2.12482 2.894017 -0.599502668 -0.654202911 0.461102052 0 0
-0.481777 2.12482 2.891551 -0.599502668 -0.654202911 -0.461102052 0 0
-0.475155 2.123359 2.890317 -0.00470008528 -0.0119002159 -0.999918144 0 0
-0.476205 2.121707 2.891551 -0.395101655 -0.786903297 -0.474001986 0 0
-0.476205 2.121707 2.894017 -0.395101655 -0.786903297 0.474001986 0 0
-0.475155 2.123359 2.895251 -0.00480008482 -0.0119002103 0.999917669 0 0
-0.474106 2.12501 2.894017 0.390711538 0.783423135 0.483314272 0 0
-0.474106 2.12501 2.891551 0.390711538 0.783423135 -0.483314272 0 0
-0.469294 2.12069 2.890317 0.0380022251 0.0619036246 -0.997358397 0 0
-0.467925 2.122146 2.891551 0.537921824 0.705828636 -0.4609187 0 0
-0.467925 2.122146 2.894017 0.537921824 0.705828636 0.4609187 0 0
-0.469294 2.12069 2.895251 0.0380022251 0.0619036246 0.997358397 0 0
-0.470664 2.119235 2.894017 -0.50651745 -0.689723761 0.517417825 0 0
-0.470664 2.119235 2.891551 -0.50651745 -0.689723761 -0.517417825 0 0
-0.465387 2.116154 2.890317 0.0797040068 0.0416020914 -0.995950068 0 0
-0.467358 2.115423 2.891551 -0.762047595 -0.364722779 -0.535033417 0 0
-0.467358 2.115423 2.894017 -0.762047595 -0.364722779 0.535033417 0 0
-0.465387 2.116154 2.895251 0.0797040068 0.0416020914 0.995950068 0 0
-0.463415 2.116884 2.894017 0.81024657 0.363020865 0.460126447 0 0
-0.463415 2.116884 2.891551 0.81024657 0.363020865 -0.460126447 0 0
-0.464635 2.111351 2.890317 -0.101497778 -0.0791982664 -0.991678292 0 0
-0.46278 2.112291 2.891551 0.697338864 0.443524718 -0.563031379 0 0
-0.46278 2.112291 2.894017 0.697307932 0.443605046 0.563006404 0 0
-0.464635 2.111351 2.895251 -0.101497778 -0.0791982664 0.991678292 0 0
-0.46649 2.11041 2.894017 -0.758056352 -0.469834926 0.452333625 0 0
-0.46649 2.11041 2.891551 -0.758020732 -0.469912852 -0.452312371 0 0
-0.460277 2.108282 2.890317 -0.027199637 -0.0828988937 -0.996186706 0 0
-0.46109 2.106528 2.891551 -0.321006939 -0.833118008 -0.450409736 0 0
-0.46109 2.106528 2.894017 -0.321006939 -0.833118008 0.450409736 0 0
-0.460277 2.108282 2.895251 -0.027199637 -0.0828988937 0.996186706 0 0
-0.459463 2.110035 2.894017 0.285913859 0.807639147 0.515724998 0 0
-0.459463 2.110035 2.891551 0.285990934 0.8075744 -0.51578365 0 0
-0.453514 2.107615 2.890317 -0.0013000776 -0.0167009969 -0.999859683 0 0
-0.453278 2.109499 2.891551 0.0382992367 0.876382534 -0.480090432 0 0
-0.453278 2.109499 2.894017 0.0382992367 0.876382534 0.480090432 0 0
-0.453514 2.107615 2.895251 -0.0013000776 -0.0167009969 0.999859683 0 0
-0.45375 2.10573 2.894017 -0.0478014675 -0.882427091 0.468014368 0 0
-0.45375 2.10573 2.891551 -0.0478014675 -0.882427091 -0.468014368 0 0
-0.48244 2.703981 2.891551 -0.473419598 0.754631239 -0.454318807 0 0
-0.481242 2.702411 2.890317 -0.0387001057 0.0727001985 -0.996602721 0 0
-0.48244 2.703981 2.894017 -0.473419598 0.754631239 0.454318807 0 0
-0.481242 2.702411 2.895251 -0.0387001057 0.0727001985 0.996602721 0 0
-0.480045 2.70084 2.894017 0.430798792 -0.740097924 0.516398552 0 0
-0.480045 2.70084 2.891551 0.430798792 -0.740097924 -0.516398552 0 0
-0.47618 2.701998 2.891551 0.150507537 -0.857242928 -0.492424659 0 0
-0.476609 2.703856 2.890317 -0.00760019844 0.0411010732 -0.999126088 0 0
-0.47618 2.701998 2.894017 0.150507537 -0.857242928 0.492424659 0 0
-0.476609 2.703856 2.895251 -0.00760019844 0.0411010732 0.999126088 0 0
-0.477038 2.705714 2.894017 -0.164304047 0.871521466 0.462011379 0 0
-0.477038 2.705714 2.891551 -0.164304047 0.871521466 -0.462011379 0 0
-0.471115 2.706081 2.891551 -0.0273014762 0.880947634 -0.472425545 0 0
-0.470973 2.704189 2.890317 -0.00030001438 0.0102004889 -0.999947929 0 0
-0.471115 2.706081 2.894017 -0.0273014762 0.880947634 0.472425545 0 0
-0.470973 2.704189 2.895251 -0.00030001438 0.0102004889 0.999947929 0 0
-0.470831 2.702297 2.894017 0.0244995926 -0.876985416 0.479892019 0 0
-0.470831 2.702297 2.891551 0.0244995926 -0.876985416 -0.479892019 0 0
-0.401973 2.704189 2.890317 0.368128616 0.00220017103 -0.929772274 0 0
-0.401942 2.702297 2.891551 0.282890289 -0.814772029 -0.506082626 0 0
-0.401942 2.702297 2.894017 -0.144903428 -0.934822113 0.324207669 0 0
-0.401973 2.704189 2.895251 -0.545120227 -0.00670024862 0.838331107 0 0
-0.402003 2.706081 2.894017 -0.143800536 0.933703483 0.327901223 0 0
-0.402003 2.706081 2.891551 0.276301942 0.818005751 -0.504503547 0 0
-0.391257 2.702297 2.904131 0.226204627 -0.907318559 -0.354407249 0 0
-0.390887 2.704189 2.902954 0.579125282 0.00220009605 -0.81523559 0 0
-0.392022 2.702297 2.906476 -0.306313536 -0.840337135 0.447219763 0 0
-0.392417 2.704189 2.907645 -0.52622678 -0.00130006616 0.850343275 0 0
-0.392048 2.706081 2.906468 -0.308208032 0.83922187 0.448011675 0 0
-0.391282 2.706081 2.904123 0.226103133 0.907812578 -0.353204894 0 0
-0.395958 2.704189 2.897198 0.757319581 0.00600015514 -0.653016884 0 0
-0.396364 2.702297 2.898362 0.385586017 -0.859868817 -0.334587866 0 0
-0.397219 2.702297 2.900676 -0.426594015 -0.843688163 0.325895428 0 0
-0.397667 2.704189 2.901826 -0.779315563 -0.00490009786 0.626612514 0 0
-0.39726 2.706081 2.900661 -0.430586833 0.840374302 0.329189934 0 0
-0.396406 2.706081 2.898347 0.38230661 0.862214908 -0.332305746 0 0
3 0 1 2
3 0 3 1
3 0 4 3
3 0 5 4
3 5 6 4
3 5 7 6
3 7 8 6
3 7 9 8
3 9 10 8
3 9 11 10
3 1 11 2
3 1 10 11
3 10 12 13
3 10 1 12
3 8 13 14
3 8 10 13
3 6 14 15
3 6 8 14
3 4 15 16
3 4 6 15
3 3 16 17
3 3 4 16
3 3 12 1
3 3 17 12
3 17 18 12
3 17 19 18
3 17 20 19
3 17 16 20
3 16 21 20
3 16 15 21
3 15 22 21
3 15 14 22
3 14 23 22
3 14 13 23
3 13 18 23
3 13 12 18
3 23 24 25
3 23 18 24
3 22 25 26
3 22 23 25
3 21 26 27
3 21 22 26
3 20 27 28
3 20 21 27
3 19 28 29
3 19 20 28
3 19 24 18
3 19 29 24
3 29 30 24
3 29 31 30
3 29 32 31
3 29 28 32
3 28 33 32
3 28 27 33
3 27 34 33
3 27 26 34
3 26 35 34
3 26 25 35
3 25 30 35
3 25 24 30
3 35 36 37
3 35 30 36
3 34 37 38
3 34 35 37
3 33 38 39
3 33 34 38
3 32 39 40
3 32 33 39
3 31 40 41
3 31 32 40
3 31 36 30
3 31 41 36
3 41 42 36
3 41 43 42
3 41 44 43
3 41 40 44
3 40 45 44
3 40 39 45
3 39 46 45
3 39 38 46
3 38 47 46
3 38 37 47
3 37 42 47
3 37 36 42
3 47 48 49
3 47 42 48
3 46 49 50
3 46 47 49
3 45 50 51
3 45 46 50
3 44 51 52
3 44 45 51
3 43 52 53
3 43 44 52
3 43 48 42
3 43 53 48
3 53 54 48
3 53 55 54
3 53 56 55
3 53 52 56
3 52 57 56
3 52 51 57
3 51 58 57
3 51 50 58
3 50 59 58
3 50 49 59
3 49 54 59
3 49 48 54
3 2 60 0
3 2 61 60
3 5 60 62
3 5 0 60
3 7 62 63
3 7 5 62
3 9 63 64
3 9 7 63
3 11 64 65
3 11 9 64
3 2 65 61
3 2 11 65
3 61 66 67
3 61 65 66
3 65 68 66
3 65 64 68
3 64 69 68
3 64 63 69
3 63 70 69
3 63 62 70
3 62 71 70
3 62 60 71
3 61 71 60
3 61 67 71
3 67 72 71
3 67 73 72
3 70 72 74
3 70 71 72
3 69 74 75
3 69 70 74
3 68 75 76
3 68 69 75
3 66 76 77
3 66 68 76
3 67 77 73
3 67 66 77
3 77 78 73
3 77 79 78
3 76 79 77
3 76 80 79
3 75 80 76
3 75 81 80
3 74 81 75
3 74 82 81
3 72 82 74
3 72 83 82
3 72 78 83
3 72 73 78
3 84 85 86
3 84 87 85
3 88 87 84
3 88 89 87
3 90 89 88
3 90 91 89
3 92 91 90
3 92 93 91
3 94 93 92
3 94 95 93
3 94 85 95
3 94 86 85
3 79 96 78
3 79 97 96
3 97 86 96
3 97 84 86
3 80 97 79
3 80 98 97
3 98 84 97
3 98 88 84
3 81 98 80
3 81 99 98
3 99 88 98
3 99 90 88
3 82 99 81
3 82 100 99
3 100 90 99
3 100 92 90
3 83 100 82
3 83 101 100
3 101 92 100
3 101 94 92
3 83 96 101
3 83 78 96
3 101 86 94
3 101 96 86
3 102 103 104
3 102 105 103
3 102 106 107
3 102 104 106
3 107 108 109
3 107 106 108
3 109 110 111
3 109 108 110
3 111 112 113
3 111 110 112
3 103 113 112
3 103 105 113
3 112 114 103
3 112 115 114
3 110 115 112
3 110 116 115
3 108 116 110
3 108 117 116
3 106 117 108
3 106 118 117
3 104 118 106
3 104 119 118
3 104 114 119
3 104 103 114
3 119 120 121
3 119 114 120
3 119 122 118
3 119 121 122
3 118 123 117
3 118 122 123
3 117 124 116
3 117 123 124
3 116 125 115
3 116 124 125
3 115 120 114
3 115 125 120
3 125 126 120
3 125 127 126
3 124 127 125
3 124 128 127
3 123 128 124
3 123 129 128
3 122 129 123
3 122 130 129
3 121 130 122
3 121 131 130
3 121 126 131
3 121 120 126
3 131 132 133
3 131 126 132
3 131 134 130
3 131 133 134
3 130 135 129
3 130 134 135
3 129 136 128
3 129 135 136
3 128 137 127
3 128 136 137
3 127 132 126
3 127 137 132
3 137 138 132
3 137 139 138
3 136 139 137
3 136 140 139
3 135 140 136
3 135 141 140
3 134 141 135
3 134 142 141
3 133 142 134
3 133 143 142
3 133 138 143
3 133 132 138
3 143 144 145
3 143 138 144
3 143 146 142
3 143 145 146
3 142 147 141
3 142 146 147
3 141 148 140
3 141 147 148
3 140 149 139
3 140 148 149
3 139 144 138
3 139 149 144
3 149 150 144
3 149 151 150
3 148 151 149
3 148 152 151
3 147 152 148
3 147 153 152
3 146 153 147
3 146 154 153
3 145 154 146
3 145 155 154
3 145 150 155
3 145 144 150
3 155 54 55
3 155 150 54
3 155 56 154
3 155 55 56
3 154 57 153
3 154 56 57
3 153 58 152
3 153 57 58
3 152 59 151
3 152 58 59
3 151 54 150
3 151 59 54
3 105 156 157
3 105 102 156
3 107 156 102
3 107 158 156
3 109 158 107
3 109 159 158
3 111 159 109
3 111 160 159
3 113 160 111
3 113 161 160
3 105 161 113
3 105 157 161
3 157 162 161
3 157 163 162
3 161 164 160
3 161 162 164
3 160 165 159
3 160 164 165
3 159 166 158
3 159 165 166
3 158 167 156
3 158 166 167
3 157 167 163
3 157 156 167
3 163 168 169
3 163 167 168
3 166 168 167
3 166 170 168
3 165 170 166
3 165 171 170
3 164 171 165
3 164 172 171
3 162 172 164
3 162 173 172
3 163 173 162
3 163 169 173
3 173 174 175
3 173 169 174
3 172 175 176
3 172 173 175
3 171 176 177
3 171 172 176
3 170 177 178
3 170 171 177
3 168 178 179
3 168 170 178
3 168 174 169
3 168 179 174
3 180 85 87
3 180 181 85
3 182 87 89
3 182 180 87
3 183 89 91
3 183 182 89
3 184 91 93
3 184 183 91
3 185 93 95
3 185 184 93
3 185 85 181
3 185 95 85
3 175 186 187
3 175 174 186
3 187 181 180
3 187 186 181
3 176 187 188
3 176 175 187
3 188 180 182
3 188 187 180
3 177 188 189
3 177 176 188
3 189 182 183
3 189 188 182
3 178 189 190
3 178 177 189
3 190 183 184
3 190 189 183
3 179 190 191
3 179 178 190
3 191 184 185
3 191 190 184
3 179 186 174
3 179 191 186
3 191 181 186
3 191 185 181
