ply
format ascii 1.0
element vertex 6
property float x
property float y
property float z
property float nx
property float ny
property float nz
property float u
property float v
element face 2
property list uchar int vertex_indices
end_header
2.43444 1.9698 3.754145 -0.999857152 -0.016901934 0 0.983723 0.98908
2.438424 1.734121 3.914942 -0.999857152 -0.016901934 0 0.012671 0.01071
2.43444 1.9698 3.914942 -0.999857152 -0.016901934 0 0.012671 0.98908
2.43444 1.9698 3.754145 -0.999857152 -0.016901934 0 0.983723 0.98908
2.438424 1.734121 3.754145 -0.999857152 -0.016901934 0 0.983723 0.01071
2.438424 1.734121 3.914942 -0.999857152 -0.016901934 0 0.012671 0.01071
3 0 1 2
3 3 4 5
