ply
format ascii 1.0
element vertex 84
property float x
property float y
property float z
property float nx
property float ny
property float nz
property float u
property float v
element face 28
property list uchar int vertex_indices
end_header
2.323389 0.93483 4.164693 0 -0.108205492 0.994128549 0.037201 0.002481
2.186996 1.179206 4.191292 0 -0.108205492 0.994128549 0.036769 0.901213
2.186996 0.93483 4.164693 0 -0.108205492 0.994128549 0.036769 0.002481
2.323389 0.93483 4.164693 0 -0.108205492 0.994128549 0.037201 0.002481
2.323389 1.179206 4.191292 0 -0.108205492 0.994128549 0.037201 0.901213
2.186996 1.179206 4.191292 0 -0.108205492 0.994128549 0.036769 0.901213
2.186996 0.932829 4.183073 0 0.108205492 -0.994128549 0.002379 0.002481
2.323389 1.177205 4.209672 0 0.108205492 -0.994128549 0.000956 0.901213
2.323389 0.932829 4.183073 0 0.108205492 -0.994128549 0.000956 0.002481
2.186996 0.932829 4.183073 0 0.108205492 -0.994128549 0.002379 0.002481
2.186996 1.177205 4.209672 0 0.108205492 -0.994128549 0.002379 0.901213
2.323389 1.177205 4.209672 0 0.108205492 -0.994128549 0.000956 0.901213
2.18617 0.934693 4.165952 0 0.994131548 0.108177936 0.987148 0.008603
2.323389 0.93483 4.164693 0 0.994131548 0.108177936 0.989829 0.127444
2.186996 0.93483 4.164693 0 0.994131548 0.108177936 0.989829 0.008603
2.18617 0.934693 4.165952 -0 0.994131548 0.108177936 0.987148 0.008603
2.323389 0.934693 4.165952 -0 0.994131548 0.108177936 0.987148 0.127444
2.323389 0.93483 4.164693 -0 0.994131548 0.108177936 0.989829 0.127444
2.323389 0.934693 4.165952 0 0.994125127 0.108236924 0.987148 0.127444
2.18617 0.932966 4.181814 0 0.994125127 0.108236924 0.946689 0.008603
2.323389 0.932966 4.181814 0 0.994125127 0.108236924 0.946689 0.127444
2.323389 0.934693 4.165952 0 0.994125127 0.108236924 0.987148 0.127444
2.18617 0.934693 4.165952 0 0.994125127 0.108236924 0.987148 0.008603
2.18617 0.932966 4.181814 0 0.994125127 0.108236924 0.946689 0.008603
2.323389 0.932966 4.181814 0 0.994131548 0.108177936 0.946689 0.127444
2.186996 0.932829 4.183073 0 0.994131548 0.108177936 0.943949 0.008603
2.323389 0.932829 4.183073 0 0.994131548 0.108177936 0.943949 0.127444
2.323389 0.932966 4.181814 0 0.994131548 0.108177936 0.946689 0.127444
2.18617 0.932966 4.181814 0 0.994131548 0.108177936 0.946689 0.008603
2.186996 0.932829 4.183073 0 0.994131548 0.108177936 0.943949 0.008603
2.323389 0.932829 4.183073 -1 0 0 0.943949 0.127444
2.323389 1.177343 4.208413 -1 0 0 0.946689 0.256778
2.323389 0.932966 4.181814 -1 0 0 0.946689 0.127444
2.323389 0.932829 4.183073 -1 0 0 0.943949 0.127444
2.323389 1.177205 4.209672 -1 0 0 0.943949 0.256778
2.323389 1.177343 4.208413 -1 0 0 0.946689 0.256778
2.323389 0.932966 4.181814 -1 0 0 0.946689 0.127444
2.323389 1.179069 4.19255 -1 0 0 0.987148 0.256778
2.323389 0.934693 4.165952 -1 0 0 0.987148 0.127444
2.323389 0.932966 4.181814 -1 0 0 0.946689 0.127444
2.323389 1.177343 4.208413 -1 0 0 0.946689 0.256778
2.323389 1.179069 4.19255 -1 0 0 0.987148 0.256778
2.323389 0.934693 4.165952 -1 0 0 0.987148 0.127444
2.323389 1.179206 4.191292 -1 0 0 0.989829 0.256778
2.323389 0.93483 4.164693 -1 0 0 0.989829 0.127444
2.323389 0.934693 4.165952 -1 0 0 0.987148 0.127444
2.323389 1.179069 4.19255 -1 0 0 0.987148 0.256778
2.323389 1.179206 4.191292 -1 0 0 0.989829 0.256778
2.186996 0.93483 4.164693 0.837590596 -0.0591102958 0.543091121 0.036769 0.002481
2.18617 1.179069 4.19255 0.837590596 -0.0591102958 0.543091121 0.035187 0.901213
2.18617 0.934693 4.165952 0.837590596 -0.0591102958 0.543091121 0.035187 0.002481
2.186996 0.93483 4.164693 0.83739421 -0.0591450602 0.543390099 0.036769 0.002481
2.186996 1.179206 4.191292 0.83739421 -0.0591450602 0.543390099 0.036769 0.901213
2.18617 1.179069 4.19255 0.83739421 -0.0591450602 0.543390099 0.035187 0.901213
2.18617 0.934693 4.165952 1 0 -0 0.035187 0.002481
2.18617 1.177343 4.208413 1 0 -0 0.003763 0.901213
2.18617 0.932966 4.181814 1 0 -0 0.003763 0.002481
2.18617 0.934693 4.165952 1 0 0 0.035187 0.002481
2.18617 1.179069 4.19255 1 0 0 0.035187 0.901213
2.18617 1.177343 4.208413 1 0 0 0.003763 0.901213
2.18617 0.932966 4.181814 0.837590596 0.0591124921 -0.543090882 0.003763 0.002481
2.186996 1.177205 4.209672 0.837590596 0.0591124921 -0.543090882 0.002379 0.901213
2.186996 0.932829 4.183073 0.837590596 0.0591124921 -0.543090882 0.002379 0.002481
2.18617 0.932966 4.181814 0.837611952 0.05910871 -0.543058356 0.003763 0.002481
2.18617 1.177343 4.208413 0.837611952 0.05910871 -0.543058356 0.003763 0.901213
2.186996 1.177205 4.209672 0.837611952 0.05910871 -0.543058356 0.002379 0.901213
2.323389 1.177205 4.209672 0 -0.994046331 -0.108958216 0.943949 0.256778
2.18617 1.177343 4.208413 0 -0.994046331 -0.108958216 0.946689 0.375415
2.323389 1.177343 4.208413 0 -0.994046331 -0.108958216 0.946689 0.256778
2.323389 1.177205 4.209672 -0 -0.994046331 -0.108958216 0.943949 0.256778
2.186996 1.177205 4.209672 -0 -0.994046331 -0.108958216 0.943949 0.375415
2.18617 1.177343 4.208413 -0 -0.994046331 -0.108958216 0.946689 0.375415
2.323389 1.177343 4.208413 0 -0.994132602 -0.108168245 0.946689 0.256778
2.18617 1.179069 4.19255 0 -0.994132602 -0.108168245 0.987148 0.375415
2.323389 1.179069 4.19255 0 -0.994132602 -0.108168245 0.987148 0.256778
2.323389 1.177343 4.208413 -0 -0.994132602 -0.108168245 0.946689 0.256778
2.18617 1.177343 4.208413 -0 -0.994132602 -0.108168245 0.946689 0.375415
2.18617 1.179069 4.19255 -0 -0.994132602 -0.108168245 0.987148 0.375415
2.323389 1.179069 4.19255 0 -0.994122296 -0.108262921 0.987148 0.256778
2.186996 1.179206 4.191292 0 -0.994122296 -0.108262921 0.989829 0.375415
2.323389 1.179206 4.191292 0 -0.994122296 -0.108262921 0.989829 0.256778
2.323389 1.179069 4.19255 -0 -0.994122296 -0.108262921 0.987148 0.256778
2.18617 1.179069 4.19255 -0 -0.994122296 -0.108262921 0.987148 0.375415
2.186996 1.179206 4.191292 -0 -0.994122296 -0.108262921 0.989829 0.375415
3 0 1 2
3 3 4 5
3 6 7 8
3 9 10 11
3 12 13 14
3 15 16 17
3 18 19 20
3 21 22 23
3 24 25 26
3 27 28 29
3 30 31 32
3 33 34 35
3 36 37 38
3 39 40 41
3 42 43 44
3 45 46 47
3 48 49 50
3 51 52 53
3 54 55 56
3 57 58 59
3 60 61 62
3 63 64 65
3 66 67 68
3 69 70 71
3 72 73 74
3 75 76 77
3 78 79 80
3 81 82 83
