ply
format ascii 1.0
element vertex 84
property float x
property float y
property float z
property float nx
property float ny
property float nz
property float u
property float v
element face 28
property list uchar int vertex_indices
end_header
2.410498 0.935024 4.071174 0 -0.130647104 0.991428936 0.085053 0.002481
2.186996 1.112529 4.094565 0 -0.130647104 0.991428936 0.08462 0.760408
2.186996 0.935024 4.071174 0 -0.130647104 0.991428936 0.08462 0.002481
2.410498 0.935024 4.071174 0 -0.130647104 0.991428936 0.085053 0.002481
2.410498 1.112529 4.094565 0 -0.130647104 0.991428936 0.085053 0.760408
2.186996 1.112529 4.094565 0 -0.130647104 0.991428936 0.08462 0.760408
2.186996 0.93273 4.088584 0 0.130652594 -0.991428212 0.04193 0.002481
2.410498 1.110235 4.111976 0 0.130652594 -0.991428212 0.040506 0.760408
2.410498 0.93273 4.088584 0 0.130652594 -0.991428212 0.040506 0.002481
2.186996 0.93273 4.088584 0 0.130652594 -0.991428212 0.04193 0.002481
2.186996 1.110235 4.111976 0 0.130652594 -0.991428212 0.04193 0.760408
2.410498 1.110235 4.111976 0 0.130652594 -0.991428212 0.040506 0.760408
2.18617 0.934859 4.072429 0 0.991467735 0.130352332 0.987148 0.008603
2.410498 0.935024 4.071174 0 0.991467735 0.130352332 0.989829 0.127444
2.186996 0.935024 4.071174 0 0.991467735 0.130352332 0.989829 0.008603
2.18617 0.934859 4.072429 -0 0.991467735 0.130352332 0.987148 0.008603
2.410498 0.934859 4.072429 -0 0.991467735 0.130352332 0.987148 0.127444
2.410498 0.935024 4.071174 -0 0.991467735 0.130352332 0.989829 0.127444
2.410498 0.934859 4.072429 0 0.991424375 0.13068171 0.987148 0.127444
2.18617 0.932895 4.087329 0 0.991424375 0.13068171 0.946689 0.008603
2.410498 0.932895 4.087329 0 0.991424375 0.13068171 0.946689 0.127444
2.410498 0.934859 4.072429 0 0.991424375 0.13068171 0.987148 0.127444
2.18617 0.934859 4.072429 0 0.991424375 0.13068171 0.987148 0.008603
2.18617 0.932895 4.087329 0 0.991424375 0.13068171 0.946689 0.008603
2.410498 0.932895 4.087329 0 0.991467735 0.130352332 0.946689 0.127444
2.186996 0.93273 4.088584 0 0.991467735 0.130352332 0.943949 0.008603
2.410498 0.93273 4.088584 0 0.991467735 0.130352332 0.943949 0.127444
2.410498 0.932895 4.087329 0 0.991467735 0.130352332 0.946689 0.127444
2.18617 0.932895 4.087329 0 0.991467735 0.130352332 0.946689 0.008603
2.186996 0.93273 4.088584 0 0.991467735 0.130352332 0.943949 0.008603
2.410498 0.93273 4.088584 -1 0 0 0.943949 0.127444
2.410498 1.1104 4.110721 -1 0 0 0.946689 0.256778
2.410498 0.932895 4.087329 -1 0 0 0.946689 0.127444
2.410498 0.93273 4.088584 -1 0 0 0.943949 0.127444
2.410498 1.110235 4.111976 -1 0 0 0.943949 0.256778
2.410498 1.1104 4.110721 -1 0 0 0.946689 0.256778
2.410498 0.932895 4.087329 -1 0 0 0.946689 0.127444
2.410498 1.112364 4.09582 -1 0 0 0.987148 0.256778
2.410498 0.934859 4.072429 -1 0 0 0.987148 0.127444
2.410498 0.932895 4.087329 -1 0 0 0.946689 0.127444
2.410498 1.1104 4.110721 -1 0 0 0.946689 0.256778
2.410498 1.112364 4.09582 -1 0 0 0.987148 0.256778
2.410498 0.934859 4.072429 -1 0 0 0.987148 0.127444
2.410498 1.112529 4.094565 -1 0 0 0.989829 0.256778
2.410498 0.935024 4.071174 -1 0 0 0.989829 0.127444
2.410498 0.934859 4.072429 -1 0 0 0.987148 0.127444
2.410498 1.112364 4.09582 -1 0 0 0.987148 0.256778
2.410498 1.112529 4.094565 -1 0 0 0.989829 0.256778
2.186996 0.935024 4.071174 0.837465802 -0.0713973013 0.541805736 0.08462 0.002481
2.18617 1.112364 4.09582 0.837465802 -0.0713973013 0.541805736 0.083038 0.760408
2.18617 0.934859 4.072429 0.837465802 -0.0713973013 0.541805736 0.083038 0.002481
2.186996 0.935024 4.071174 0.837465802 -0.0713973013 0.541805736 0.08462 0.002481
2.186996 1.112529 4.094565 0.837465802 -0.0713973013 0.541805736 0.08462 0.760408
2.18617 1.112364 4.09582 0.837465802 -0.0713973013 0.541805736 0.083038 0.760408
2.18617 0.934859 4.072429 1 0 -0 0.083038 0.002481
2.18617 1.1104 4.110721 1 0 -0 0.043314 0.760408
2.18617 0.932895 4.087329 1 0 -0 0.043314 0.002481
2.18617 0.934859 4.072429 1 0 0 0.083038 0.002481
2.18617 1.112364 4.09582 1 0 0 0.083038 0.760408
2.18617 1.1104 4.110721 1 0 0 0.043314 0.760408
2.18617 0.932895 4.087329 0.837465802 0.0714003016 -0.541805341 0.043314 0.002481
2.186996 1.110235 4.111976 0.837465802 0.0714003016 -0.541805341 0.04193 0.760408
2.186996 0.93273 4.088584 0.837465802 0.0714003016 -0.541805341 0.04193 0.002481
2.18617 0.932895 4.087329 0.837465802 0.0714003016 -0.541805341 0.043314 0.002481
2.18617 1.1104 4.110721 0.837465802 0.0714003016 -0.541805341 0.043314 0.760408
2.186996 1.110235 4.111976 0.837465802 0.0714003016 -0.541805341 0.04193 0.760408
2.410498 1.110235 4.111976 0 -0.991467735 -0.130352332 0.943949 0.256778
2.18617 1.1104 4.110721 0 -0.991467735 -0.130352332 0.946689 0.375415
2.410498 1.1104 4.110721 0 -0.991467735 -0.130352332 0.946689 0.256778
2.410498 1.110235 4.111976 -0 -0.991467735 -0.130352332 0.943949 0.256778
2.186996 1.110235 4.111976 -0 -0.991467735 -0.130352332 0.943949 0.375415
2.18617 1.1104 4.110721 -0 -0.991467735 -0.130352332 0.946689 0.375415
2.410498 1.1104 4.110721 0 -0.991425511 -0.130673089 0.946689 0.256778
2.18617 1.112364 4.09582 0 -0.991425511 -0.130673089 0.987148 0.375415
2.410498 1.112364 4.09582 0 -0.991425511 -0.130673089 0.987148 0.256778
2.410498 1.1104 4.110721 -0 -0.991425511 -0.130673089 0.946689 0.256778
2.18617 1.1104 4.110721 -0 -0.991425511 -0.130673089 0.946689 0.375415
2.18617 1.112364 4.09582 -0 -0.991425511 -0.130673089 0.987148 0.375415
2.410498 1.112364 4.09582 0 -0.991467735 -0.130352332 0.987148 0.256778
2.186996 1.112529 4.094565 0 -0.991467735 -0.130352332 0.989829 0.375415
2.410498 1.112529 4.094565 0 -0.991467735 -0.130352332 0.989829 0.256778
2.410498 1.112364 4.09582 -0 -0.991467735 -0.130352332 0.987148 0.256778
2.18617 1.112364 4.09582 -0 -0.991467735 -0.130352332 0.987148 0.375415
2.186996 1.112529 4.094565 -0 -0.991467735 -0.130352332 0.989829 0.375415
3 0 1 2
3 3 4 5
3 6 7 8
3 9 10 11
3 12 13 14
3 15 16 17
3 18 19 20
3 21 22 23
3 24 25 26
3 27 28 29
3 30 31 32
3 33 34 35
3 36 37 38
3 39 40 41
3 42 43 44
3 45 46 47
3 48 49 50
3 51 52 53
3 54 55 56
3 57 58 59
3 60 61 62
3 63 64 65
3 66 67 68
3 69 70 71
3 72 73 74
3 75 76 77
3 78 79 80
3 81 82 83
