ply
format ascii 1.0
element vertex 84
property float x
property float y
property float z
property float nx
property float ny
property float nz
property float u
property float v
element face 28
property list uchar int vertex_indices
end_header
2.329537 0.935792 4.136231 0 -0.119714112 0.992808406 0.134857 0.002481
2.193145 1.149457 4.161995 0 -0.119714112 0.992808406 0.134425 0.798593
2.193145 0.935792 4.136231 0 -0.119714112 0.992808406 0.134425 0.002481
2.329537 0.935792 4.136231 0 -0.119714112 0.992808406 0.134857 0.002481
2.329537 1.149457 4.161995 0 -0.119714112 0.992808406 0.134857 0.798593
2.193145 1.149457 4.161995 0 -0.119714112 0.992808406 0.134425 0.798593
2.193145 0.932802 4.161033 0 0.119714664 -0.99280834 0.085387 0.002481
2.329537 1.146466 4.186797 0 0.119714664 -0.99280834 0.083963 0.798593
2.329537 0.932802 4.161033 0 0.119714664 -0.99280834 0.083963 0.002481
2.193145 0.932802 4.161033 0 0.119714664 -0.99280834 0.085387 0.002481
2.193145 1.146466 4.186797 0 0.119714664 -0.99280834 0.085387 0.798593
2.329537 1.146466 4.186797 0 0.119714664 -0.99280834 0.083963 0.798593
2.192319 0.935641 4.137488 0 0.992861881 0.119269804 0.987148 0.008603
2.329537 0.935792 4.136231 0 0.992861881 0.119269804 0.989829 0.127444
2.193145 0.935792 4.136231 0 0.992861881 0.119269804 0.989829 0.008603
2.192319 0.935641 4.137488 -0 0.992861881 0.119269804 0.987148 0.008603
2.329537 0.935641 4.137488 -0 0.992861881 0.119269804 0.987148 0.127444
2.329537 0.935792 4.136231 -0 0.992861881 0.119269804 0.989829 0.127444
2.329537 0.935641 4.137488 0 0.992805842 0.119735378 0.987148 0.127444
2.192319 0.932953 4.159776 0 0.992805842 0.119735378 0.946689 0.008603
2.329537 0.932953 4.159776 0 0.992805842 0.119735378 0.946689 0.127444
2.329537 0.935641 4.137488 0 0.992805842 0.119735378 0.987148 0.127444
2.192319 0.935641 4.137488 0 0.992805842 0.119735378 0.987148 0.008603
2.192319 0.932953 4.159776 0 0.992805842 0.119735378 0.946689 0.008603
2.329537 0.932953 4.159776 0 0.992861881 0.119269804 0.946689 0.127444
2.193145 0.932802 4.161033 0 0.992861881 0.119269804 0.943949 0.008603
2.329537 0.932802 4.161033 0 0.992861881 0.119269804 0.943949 0.127444
2.329537 0.932953 4.159776 0 0.992861881 0.119269804 0.946689 0.127444
2.192319 0.932953 4.159776 0 0.992861881 0.119269804 0.946689 0.008603
2.193145 0.932802 4.161033 0 0.992861881 0.119269804 0.943949 0.008603
2.329537 0.932802 4.161033 -1 0 0 0.943949 0.127444
2.329537 1.146618 4.18554 -1 0 0 0.946689 0.256778
2.329537 0.932953 4.159776 -1 0 0 0.946689 0.127444
2.329537 0.932802 4.161033 -1 0 0 0.943949 0.127444
2.329537 1.146466 4.186797 -1 0 0 0.943949 0.256778
2.329537 1.146618 4.18554 -1 0 0 0.946689 0.256778
2.329537 0.932953 4.159776 -1 0 0 0.946689 0.127444
2.329537 1.149305 4.163253 -1 0 0 0.987148 0.256778
2.329537 0.935641 4.137488 -1 0 0 0.987148 0.127444
2.329537 0.932953 4.159776 -1 0 0 0.946689 0.127444
2.329537 1.146618 4.18554 -1 0 0 0.946689 0.256778
2.329537 1.149305 4.163253 -1 0 0 0.987148 0.256778
2.329537 0.935641 4.137488 -1 0 0 0.987148 0.127444
2.329537 1.149457 4.161995 -1 0 0 0.989829 0.256778
2.329537 0.935792 4.136231 -1 0 0 0.989829 0.127444
2.329537 0.935641 4.137488 -1 0 0 0.987148 0.127444
2.329537 1.149305 4.163253 -1 0 0 0.987148 0.256778
2.329537 1.149457 4.161995 -1 0 0 0.989829 0.256778
2.193145 0.935792 4.136231 0.837512604 -0.0654167509 0.542488052 0.134425 0.002481
2.192319 1.149305 4.163253 0.837512604 -0.0654167509 0.542488052 0.132843 0.798593
2.192319 0.935641 4.137488 0.837512604 -0.0654167509 0.542488052 0.132843 0.002481
2.193145 0.935792 4.136231 0.837732139 -0.0653736465 0.542154175 0.134425 0.002481
2.193145 1.149457 4.161995 0.837732139 -0.0653736465 0.542154175 0.134425 0.798593
2.192319 1.149305 4.163253 0.837732139 -0.0653736465 0.542154175 0.132843 0.798593
2.192319 0.935641 4.137488 1 0 -0 0.132843 0.002481
2.192319 1.146618 4.18554 1 0 -0 0.086771 0.798593
2.192319 0.932953 4.159776 1 0 -0 0.086771 0.002481
2.192319 0.935641 4.137488 1 0 0 0.132843 0.002481
2.192319 1.149305 4.163253 1 0 0 0.132843 0.798593
2.192319 1.146618 4.18554 1 0 0 0.086771 0.798593
2.192319 0.932953 4.159776 0.837512605 0.0654142482 -0.542488353 0.086771 0.002481
2.193145 1.146466 4.186797 0.837512605 0.0654142482 -0.542488353 0.085387 0.798593
2.193145 0.932802 4.161033 0.837512605 0.0654142482 -0.542488353 0.085387 0.002481
2.192319 0.932953 4.159776 0.837536247 0.065409608 -0.54245241 0.086771 0.002481
2.192319 1.146618 4.18554 0.837536247 0.065409608 -0.54245241 0.086771 0.798593
2.193145 1.146466 4.186797 0.837536247 0.065409608 -0.54245241 0.085387 0.798593
2.329537 1.146466 4.186797 0 -0.992768049 -0.120048324 0.943949 0.256778
2.192319 1.146618 4.18554 0 -0.992768049 -0.120048324 0.946689 0.375415
2.329537 1.146618 4.18554 0 -0.992768049 -0.120048324 0.946689 0.256778
2.329537 1.146466 4.186797 -0 -0.992768049 -0.120048324 0.943949 0.256778
2.193145 1.146466 4.186797 -0 -0.992768049 -0.120048324 0.943949 0.375415
2.192319 1.146618 4.18554 -0 -0.992768049 -0.120048324 0.946689 0.375415
2.329537 1.146618 4.18554 0 -0.992810498 -0.119696765 0.946689 0.256778
2.192319 1.149305 4.163253 0 -0.992810498 -0.119696765 0.987148 0.375415
2.329537 1.149305 4.163253 0 -0.992810498 -0.119696765 0.987148 0.256778
2.329537 1.146618 4.18554 -0 -0.992810498 -0.119696765 0.946689 0.256778
2.192319 1.146618 4.18554 -0 -0.992810498 -0.119696765 0.946689 0.375415
2.192319 1.149305 4.163253 -0 -0.992810498 -0.119696765 0.987148 0.375415
2.329537 1.149305 4.163253 0 -0.992779418 -0.11995427 0.987148 0.256778
2.193145 1.149457 4.161995 0 -0.992779418 -0.11995427 0.989829 0.375415
2.329537 1.149457 4.161995 0 -0.992779418 -0.11995427 0.989829 0.256778
2.329537 1.149305 4.163253 -0 -0.992779418 -0.11995427 0.987148 0.256778
2.192319 1.149305 4.163253 -0 -0.992779418 -0.11995427 0.987148 0.375415
2.193145 1.149457 4.161995 -0 -0.992779418 -0.11995427 0.989829 0.375415
3 0 1 2
3 3 4 5
3 6 7 8
3 9 10 11
3 12 13 14
3 15 16 17
3 18 19 20
3 21 22 23
3 24 25 26
3 27 28 29
3 30 31 32
3 33 34 35
3 36 37 38
3 39 40 41
3 42 43 44
3 45 46 47
3 48 49 50
3 51 52 53
3 54 55 56
3 57 58 59
3 60 61 62
3 63 64 65
3 66 67 68
3 69 70 71
3 72 73 74
3 75 76 77
3 78 79 80
3 81 82 83
