ply
format ascii 1.0
element vertex 84
property float x
property float y
property float z
property float nx
property float ny
property float nz
property float u
property float v
element face 28
property list uchar int vertex_indices
end_header
2.323389 0.934746 4.117131 0 -0.126503187 0.991966201 0.178224 0.002481
2.186996 1.148229 4.144356 0 -0.126503187 0.991966201 0.177791 0.798593
2.186996 0.934746 4.117131 0 -0.126503187 0.991966201 0.177791 0.002481
2.323389 0.934746 4.117131 0 -0.126503187 0.991966201 0.178224 0.002481
2.323389 1.148229 4.144356 0 -0.126503187 0.991966201 0.178224 0.798593
2.186996 1.148229 4.144356 0 -0.126503187 0.991966201 0.177791 0.798593
2.186996 0.932642 4.133631 0 0.126503187 -0.991966201 0.137492 0.002481
2.323389 1.146125 4.160856 0 0.126503187 -0.991966201 0.136068 0.798593
2.323389 0.932642 4.133631 0 0.126503187 -0.991966201 0.136068 0.002481
2.186996 0.932642 4.133631 0 0.126503187 -0.991966201 0.137492 0.002481
2.186996 1.146125 4.160856 0 0.126503187 -0.991966201 0.137492 0.798593
2.323389 1.146125 4.160856 0 0.126503187 -0.991966201 0.136068 0.798593
2.18617 0.934586 4.118387 0 0.991983517 0.126367327 0.987148 0.008603
2.323389 0.934746 4.117131 0 0.991983517 0.126367327 0.989829 0.127444
2.186996 0.934746 4.117131 0 0.991983517 0.126367327 0.989829 0.008603
2.18617 0.934586 4.118387 -0 0.991983517 0.126367327 0.987148 0.008603
2.323389 0.934586 4.118387 -0 0.991983517 0.126367327 0.987148 0.127444
2.323389 0.934746 4.117131 -0 0.991983517 0.126367327 0.989829 0.127444
2.323389 0.934586 4.118387 0 0.991964935 0.126513114 0.987148 0.127444
2.18617 0.932802 4.132375 0 0.991964935 0.126513114 0.946689 0.008603
2.323389 0.932802 4.132375 0 0.991964935 0.126513114 0.946689 0.127444
2.323389 0.934586 4.118387 0 0.991964935 0.126513114 0.987148 0.127444
2.18617 0.934586 4.118387 0 0.991964935 0.126513114 0.987148 0.008603
2.18617 0.932802 4.132375 0 0.991964935 0.126513114 0.946689 0.008603
2.323389 0.932802 4.132375 0 0.991983517 0.126367327 0.946689 0.127444
2.186996 0.932642 4.133631 0 0.991983517 0.126367327 0.943949 0.008603
2.323389 0.932642 4.133631 0 0.991983517 0.126367327 0.943949 0.127444
2.323389 0.932802 4.132375 0 0.991983517 0.126367327 0.946689 0.127444
2.18617 0.932802 4.132375 0 0.991983517 0.126367327 0.946689 0.008603
2.186996 0.932642 4.133631 0 0.991983517 0.126367327 0.943949 0.008603
2.323389 0.932642 4.133631 -1 0 0 0.943949 0.127444
2.323389 1.146285 4.1596 -1 0 0 0.946689 0.256778
2.323389 0.932802 4.132375 -1 0 0 0.946689 0.127444
2.323389 0.932642 4.133631 -1 0 0 0.943949 0.127444
2.323389 1.146125 4.160856 -1 0 0 0.943949 0.256778
2.323389 1.146285 4.1596 -1 0 0 0.946689 0.256778
2.323389 0.932802 4.132375 -1 0 0 0.946689 0.127444
2.323389 1.148069 4.145612 -1 0 0 0.987148 0.256778
2.323389 0.934586 4.118387 -1 0 0 0.987148 0.127444
2.323389 0.932802 4.132375 -1 0 0 0.946689 0.127444
2.323389 1.146285 4.1596 -1 0 0 0.946689 0.256778
2.323389 1.148069 4.145612 -1 0 0 0.987148 0.256778
2.323389 0.934586 4.118387 -1 0 0 0.987148 0.127444
2.323389 1.148229 4.144356 -1 0 0 0.989829 0.256778
2.323389 0.934746 4.117131 -1 0 0 0.989829 0.127444
2.323389 0.934586 4.118387 -1 0 0 0.987148 0.127444
2.323389 1.148069 4.145612 -1 0 0 0.987148 0.256778
2.323389 1.148229 4.144356 -1 0 0 0.989829 0.256778
2.186996 0.934746 4.117131 0.837534933 -0.0691192894 0.541994243 0.177791 0.002481
2.18617 1.148069 4.145612 0.837534933 -0.0691192894 0.541994243 0.176209 0.798593
2.18617 0.934586 4.118387 0.837534933 -0.0691192894 0.541994243 0.176209 0.002481
2.186996 0.934746 4.117131 0.837534933 -0.0691192894 0.541994243 0.177791 0.002481
2.186996 1.148229 4.144356 0.837534933 -0.0691192894 0.541994243 0.177791 0.798593
2.18617 1.148069 4.145612 0.837534933 -0.0691192894 0.541994243 0.176209 0.798593
2.18617 0.934586 4.118387 1 0 -0 0.176209 0.002481
2.18617 1.146285 4.1596 1 0 -0 0.138875 0.798593
2.18617 0.932802 4.132375 1 0 -0 0.138875 0.002481
2.18617 0.934586 4.118387 1 0 0 0.176209 0.002481
2.18617 1.148069 4.145612 1 0 0 0.176209 0.798593
2.18617 1.146285 4.1596 1 0 0 0.138875 0.798593
2.18617 0.932802 4.132375 0.837534933 0.0691192894 -0.541994243 0.138875 0.002481
2.186996 1.146125 4.160856 0.837534933 0.0691192894 -0.541994243 0.137492 0.798593
2.186996 0.932642 4.133631 0.837534933 0.0691192894 -0.541994243 0.137492 0.002481
2.18617 0.932802 4.132375 0.837534933 0.0691192894 -0.541994243 0.138875 0.002481
2.18617 1.146285 4.1596 0.837534933 0.0691192894 -0.541994243 0.138875 0.798593
2.186996 1.146125 4.160856 0.837534933 0.0691192894 -0.541994243 0.137492 0.798593
2.323389 1.146125 4.160856 0 -0.991983517 -0.126367327 0.943949 0.256778
2.18617 1.146285 4.1596 0 -0.991983517 -0.126367327 0.946689 0.375415
2.323389 1.146285 4.1596 0 -0.991983517 -0.126367327 0.946689 0.256778
2.323389 1.146125 4.160856 -0 -0.991983517 -0.126367327 0.943949 0.256778
2.186996 1.146125 4.160856 -0 -0.991983517 -0.126367327 0.943949 0.375415
2.18617 1.146285 4.1596 -0 -0.991983517 -0.126367327 0.946689 0.375415
2.323389 1.146285 4.1596 0 -0.991964935 -0.126513114 0.946689 0.256778
2.18617 1.148069 4.145612 0 -0.991964935 -0.126513114 0.987148 0.375415
2.323389 1.148069 4.145612 0 -0.991964935 -0.126513114 0.987148 0.256778
2.323389 1.146285 4.1596 -0 -0.991964935 -0.126513114 0.946689 0.256778
2.18617 1.146285 4.1596 -0 -0.991964935 -0.126513114 0.946689 0.375415
2.18617 1.148069 4.145612 -0 -0.991964935 -0.126513114 0.987148 0.375415
2.323389 1.148069 4.145612 0 -0.991983517 -0.126367327 0.987148 0.256778
2.186996 1.148229 4.144356 0 -0.991983517 -0.126367327 0.989829 0.375415
2.323389 1.148229 4.144356 0 -0.991983517 -0.126367327 0.989829 0.256778
2.323389 1.148069 4.145612 -0 -0.991983517 -0.126367327 0.987148 0.256778
2.18617 1.148069 4.145612 -0 -0.991983517 -0.126367327 0.987148 0.375415
2.186996 1.148229 4.144356 -0 -0.991983517 -0.126367327 0.989829 0.375415
3 0 1 2
3 3 4 5
3 6 7 8
3 9 10 11
3 12 13 14
3 15 16 17
3 18 19 20
3 21 22 23
3 24 25 26
3 27 28 29
3 30 31 32
3 33 34 35
3 36 37 38
3 39 40 41
3 42 43 44
3 45 46 47
3 48 49 50
3 51 52 53
3 54 55 56
3 57 58 59
3 60 61 62
3 63 64 65
3 66 67 68
3 69 70 71
3 72 73 74
3 75 76 77
3 78 79 80
3 81 82 83
