ply
format ascii 1.0
element vertex 84
property float x
property float y
property float z
property float nx
property float ny
property float nz
property float u
property float v
element face 28
property list uchar int vertex_indices
end_header
2.28957 0.936513 4.043633 0 -0.21107719 0.977469396 0.216352 0.002481
2.217741 1.039897 4.065958 0 -0.21107719 0.977469396 0.214554 0.564714
2.217741 0.936513 4.043633 0 -0.21107719 0.977469396 0.214554 0.002481
2.28957 0.936513 4.043633 0 -0.21107719 0.977469396 0.216352 0.002481
2.28957 1.039897 4.065958 0 -0.21107719 0.977469396 0.216352 0.564714
2.217741 1.039897 4.065958 0 -0.21107719 0.977469396 0.214554 0.564714
2.217741 0.93261 4.061705 0 0.211086224 -0.977467445 0.182862 0.002481
2.28957 1.035994 4.084031 0 0.211086224 -0.977467445 0.179582 0.564714
2.28957 0.93261 4.061705 0 0.211086224 -0.977467445 0.181439 0.002481
2.217741 0.93261 4.061705 0 0.211086224 -0.977467445 0.182862 0.002481
2.217741 1.035994 4.084031 0 0.211086224 -0.977467445 0.181006 0.564714
2.28957 1.035994 4.084031 0 0.211086224 -0.977467445 0.179582 0.564714
2.216914 0.936246 4.04487 0 0.977489099 0.210985925 0.987148 0.008603
2.28957 0.936513 4.043633 0 0.977489099 0.210985925 0.989829 0.127444
2.217741 0.936513 4.043633 0 0.977489099 0.210985925 0.989829 0.008603
2.216914 0.936246 4.04487 -0 0.977489099 0.210985925 0.987148 0.008603
2.28957 0.936246 4.04487 -0 0.977489099 0.210985925 0.987148 0.127444
2.28957 0.936513 4.043633 -0 0.977489099 0.210985925 0.989829 0.127444
2.28957 0.936246 4.04487 0 0.977457179 0.211133759 0.987148 0.127444
2.216914 0.932877 4.060467 0 0.977457179 0.211133759 0.946689 0.008603
2.28957 0.932877 4.060467 0 0.977457179 0.211133759 0.946689 0.127444
2.28957 0.936246 4.04487 0 0.977457179 0.211133759 0.987148 0.127444
2.216914 0.936246 4.04487 0 0.977457179 0.211133759 0.987148 0.008603
2.216914 0.932877 4.060467 0 0.977457179 0.211133759 0.946689 0.008603
2.28957 0.932877 4.060467 0 0.977524235 0.210823078 0.946689 0.127444
2.217741 0.93261 4.061705 0 0.977524235 0.210823078 0.943949 0.008603
2.28957 0.93261 4.061705 0 0.977524235 0.210823078 0.943949 0.127444
2.28957 0.932877 4.060467 0 0.977524235 0.210823078 0.946689 0.127444
2.216914 0.932877 4.060467 0 0.977524235 0.210823078 0.946689 0.008603
2.217741 0.93261 4.061705 0 0.977524235 0.210823078 0.943949 0.008603
2.28957 0.93261 4.061705 -1 0 0 0.943949 0.127444
2.28957 1.036261 4.082793 -1 0 0 0.946689 0.256778
2.28957 0.932877 4.060467 -1 0 0 0.946689 0.127444
2.28957 0.93261 4.061705 -1 0 0 0.943949 0.127444
2.28957 1.035994 4.084031 -1 0 0 0.943949 0.256778
2.28957 1.036261 4.082793 -1 0 0 0.946689 0.256778
2.28957 0.932877 4.060467 -1 0 0 0.946689 0.127444
2.28957 1.03963 4.067196 -1 0 0 0.987148 0.256778
2.28957 0.936246 4.04487 -1 0 0 0.987148 0.127444
2.28957 0.932877 4.060467 -1 0 0 0.946689 0.127444
2.28957 1.036261 4.082793 -1 0 0 0.946689 0.256778
2.28957 1.03963 4.067196 -1 0 0 0.987148 0.256778
2.28957 0.936246 4.04487 -1 0 0 0.987148 0.127444
2.28957 1.039897 4.065958 -1 0 0 0.989829 0.256778
2.28957 0.936513 4.043633 -1 0 0 0.989829 0.127444
2.28957 0.936246 4.04487 -1 0 0 0.987148 0.127444
2.28957 1.03963 4.067196 -1 0 0 0.987148 0.256778
2.28957 1.039897 4.065958 -1 0 0 0.989829 0.256778
2.217741 0.936513 4.043633 0.837101075 -0.11547435 0.534721857 0.214554 0.002481
2.216914 1.03963 4.067196 0.837101075 -0.11547435 0.534721857 0.211814 0.564714
2.216914 0.936246 4.04487 0.837101075 -0.11547435 0.534721857 0.211814 0.002481
2.217741 0.936513 4.043633 0.837294415 -0.115406936 0.534433626 0.214554 0.002481
2.217741 1.039897 4.065958 0.837294415 -0.115406936 0.534433626 0.214554 0.564714
2.216914 1.03963 4.067196 0.837294415 -0.115406936 0.534433626 0.211814 0.564714
2.216914 0.936246 4.04487 1 0 -0 0.211814 0.002481
2.216914 1.036261 4.082793 1 0 -0 0.183687 0.564714
2.216914 0.932877 4.060467 1 0 -0 0.185543 0.002481
2.216914 0.936246 4.04487 1 0 0 0.211814 0.002481
2.216914 1.03963 4.067196 1 0 0 0.211814 0.564714
2.216914 1.036261 4.082793 1 0 0 0.183687 0.564714
2.216914 0.932877 4.060467 0.837294415 0.115411876 -0.534432561 0.185543 0.002481
2.217741 1.035994 4.084031 0.837294415 0.115411876 -0.534432561 0.181006 0.564714
2.217741 0.93261 4.061705 0.837294415 0.115411876 -0.534432561 0.182862 0.002481
2.216914 0.932877 4.060467 0.837294415 0.115411876 -0.534432561 0.185543 0.002481
2.216914 1.036261 4.082793 0.837294415 0.115411876 -0.534432561 0.183687 0.564714
2.217741 1.035994 4.084031 0.837294415 0.115411876 -0.534432561 0.181006 0.564714
2.28957 1.035994 4.084031 0 -0.977524235 -0.210823078 0.943949 0.256778
2.216914 1.036261 4.082793 0 -0.977524235 -0.210823078 0.946689 0.375415
2.28957 1.036261 4.082793 0 -0.977524235 -0.210823078 0.946689 0.256778
2.28957 1.035994 4.084031 -0 -0.977524235 -0.210823078 0.943949 0.256778
2.217741 1.035994 4.084031 -0 -0.977524235 -0.210823078 0.943949 0.375415
2.216914 1.036261 4.082793 -0 -0.977524235 -0.210823078 0.946689 0.375415
2.28957 1.036261 4.082793 0 -0.977457179 -0.211133759 0.946689 0.256778
2.216914 1.03963 4.067196 0 -0.977457179 -0.211133759 0.987148 0.375415
2.28957 1.03963 4.067196 0 -0.977457179 -0.211133759 0.987148 0.256778
2.28957 1.036261 4.082793 -0 -0.977457179 -0.211133759 0.946689 0.256778
2.216914 1.036261 4.082793 -0 -0.977457179 -0.211133759 0.946689 0.375415
2.216914 1.03963 4.067196 -0 -0.977457179 -0.211133759 0.987148 0.375415
2.28957 1.03963 4.067196 0 -0.977524235 -0.210823078 0.987148 0.256778
2.217741 1.039897 4.065958 0 -0.977524235 -0.210823078 0.989829 0.375415
2.28957 1.039897 4.065958 0 -0.977524235 -0.210823078 0.989829 0.256778
2.28957 1.03963 4.067196 -0 -0.977524235 -0.210823078 0.987148 0.256778
2.216914 1.03963 4.067196 -0 -0.977524235 -0.210823078 0.987148 0.375415
2.217741 1.039897 4.065958 -0 -0.977524235 -0.210823078 0.989829 0.375415
3 0 1 2
3 3 4 5
3 6 7 8
3 9 10 11
3 12 13 14
3 15 16 17
3 18 19 20
3 21 22 23
3 24 25 26
3 27 28 29
3 30 31 32
3 33 34 35
3 36 37 38
3 39 40 41
3 42 43 44
3 45 46 47
3 48 49 50
3 51 52 53
3 54 55 56
3 57 58 59
3 60 61 62
3 63 64 65
3 66 67 68
3 69 70 71
3 72 73 74
3 75 76 77
3 78 79 80
3 81 82 83
