ply
format ascii 1.0
element vertex 84
property float x
property float y
property float z
property float nx
property float ny
property float nz
property float u
property float v
element face 28
property list uchar int vertex_indices
end_header
2.359257 0.662306 3.712356 0 0.0610508585 0.998134657 0.252486 0.002481
2.186996 0.903964 3.697575 0 0.0610508585 0.998134657 0.253222 0.949718
2.186996 0.662306 3.712356 0 0.0610508585 0.998134657 0.250688 0.002481
2.359257 0.662306 3.712356 0 0.0610508585 0.998134657 0.252486 0.002481
2.359257 0.903964 3.697575 0 0.0610508585 0.998134657 0.25502 0.949718
2.186996 0.903964 3.697575 0 0.0610508585 0.998134657 0.253222 0.949718
2.186996 0.663265 3.728033 0 -0.0610508585 -0.998134657 0.223803 0.002481
2.359257 0.904923 3.713252 0 -0.0610508585 -0.998134657 0.225046 0.94874
2.359257 0.663265 3.728033 0 -0.0610508585 -0.998134657 0.222379 0.002481
2.186996 0.663265 3.728033 0 -0.0610508585 -0.998134657 0.223803 0.002481
2.186996 0.904923 3.713252 0 -0.0610508585 -0.998134657 0.226469 0.94874
2.359257 0.904923 3.713252 0 -0.0610508585 -0.998134657 0.225046 0.94874
2.18617 0.662383 3.71362 0 0.998149664 -0.0608050033 0.988615 0.008603
2.359257 0.662306 3.712356 0 0.998149664 -0.0608050033 0.991296 0.127444
2.186996 0.662306 3.712356 0 0.998149664 -0.0608050033 0.991296 0.008603
2.18617 0.662383 3.71362 0 0.998149664 -0.0608050033 0.988615 0.008603
2.359257 0.662383 3.71362 0 0.998149664 -0.0608050033 0.987148 0.127444
2.359257 0.662306 3.712356 0 0.998149664 -0.0608050033 0.991296 0.127444
2.359257 0.662383 3.71362 0 0.99813585 -0.0610313501 0.987148 0.127444
2.18617 0.663187 3.726769 0 0.99813585 -0.0610313501 0.946689 0.008603
2.359257 0.663187 3.726769 0 0.99813585 -0.0610313501 0.946689 0.127444
2.359257 0.662383 3.71362 0 0.99813585 -0.0610313501 0.987148 0.127444
2.18617 0.662383 3.71362 0 0.99813585 -0.0610313501 0.988615 0.008603
2.18617 0.663187 3.726769 0 0.99813585 -0.0610313501 0.946689 0.008603
2.359257 0.663187 3.726769 0 0.998101429 -0.0615917021 0.946689 0.127444
2.186996 0.663265 3.728033 0 0.998101429 -0.0615917021 0.943949 0.008603
2.359257 0.663265 3.728033 0 0.998101429 -0.0615917021 0.943949 0.127444
2.359257 0.663187 3.726769 0 0.998101429 -0.0615917021 0.946689 0.127444
2.18617 0.663187 3.726769 0 0.998101429 -0.0615917021 0.946689 0.008603
2.186996 0.663265 3.728033 0 0.998101429 -0.0615917021 0.943949 0.008603
2.359257 0.663265 3.728033 -1 0 -0 0.943949 0.127444
2.359257 0.904845 3.711988 -1 0 -0 0.946689 0.256778
2.359257 0.663187 3.726769 -1 0 -0 0.946689 0.127444
2.359257 0.663265 3.728033 -1 0 0 0.943949 0.127444
2.359257 0.904923 3.713252 -1 0 0 0.943949 0.256778
2.359257 0.904845 3.711988 -1 0 0 0.946689 0.256778
2.359257 0.663187 3.726769 -1 0 -0 0.946689 0.127444
2.359257 0.904041 3.698838 -1 0 -0 0.987148 0.256778
2.359257 0.662383 3.71362 -1 0 -0 0.987148 0.127444
2.359257 0.663187 3.726769 -1 0 0 0.946689 0.127444
2.359257 0.904845 3.711988 -1 0 0 0.946689 0.256778
2.359257 0.904041 3.698838 -1 0 0 0.987148 0.256778
2.359257 0.662383 3.71362 -1 0 -0 0.987148 0.127444
2.359257 0.903964 3.697575 -1 0 -0 0.989829 0.256778
2.359257 0.662306 3.712356 -1 0 -0 0.991296 0.127444
2.359257 0.662383 3.71362 -1 0 0 0.987148 0.127444
2.359257 0.904041 3.698838 -1 0 0 0.987148 0.256778
2.359257 0.903964 3.697575 -1 0 0 0.989829 0.256778
2.186996 0.662306 3.712356 0.837573052 0.0333558794 0.545306122 0.250688 0.002481
2.18617 0.904041 3.698838 0.837573052 0.0333558794 0.545306122 0.250482 0.949718
2.18617 0.662383 3.71362 0.837573052 0.0333558794 0.545306122 0.247948 0.002481
2.186996 0.662306 3.712356 0.837375845 0.0333720821 0.545607916 0.250688 0.002481
2.186996 0.903964 3.697575 0.837375845 0.0333720821 0.545607916 0.253222 0.949718
2.18617 0.904041 3.698838 0.837375845 0.0333720821 0.545607916 0.250482 0.949718
2.18617 0.662383 3.71362 1 -0 0 0.247948 0.002481
2.18617 0.904845 3.711988 1 -0 0 0.22915 0.94874
2.18617 0.663187 3.726769 1 -0 0 0.226484 0.002481
2.18617 0.662383 3.71362 1 0 0 0.247948 0.002481
2.18617 0.904041 3.698838 1 0 0 0.250482 0.949718
2.18617 0.904845 3.711988 1 0 0 0.22915 0.94874
2.18617 0.663187 3.726769 0.837585104 -0.0333525032 -0.545287817 0.226484 0.002481
2.186996 0.904923 3.713252 0.837585104 -0.0333525032 -0.545287817 0.226469 0.94874
2.186996 0.663265 3.728033 0.837585104 -0.0333525032 -0.545287817 0.223803 0.002481
2.18617 0.663187 3.726769 0.837585104 -0.0333525032 -0.545287817 0.226484 0.002481
2.18617 0.904845 3.711988 0.837585104 -0.0333525032 -0.545287817 0.22915 0.94874
2.186996 0.904923 3.713252 0.837585104 -0.0333525032 -0.545287817 0.226469 0.94874
2.359257 0.904923 3.713252 0 -0.998101429 0.0615917021 0.943949 0.256778
2.18617 0.904845 3.711988 0 -0.998101429 0.0615917021 0.946689 0.375415
2.359257 0.904845 3.711988 0 -0.998101429 0.0615917021 0.946689 0.256778
2.359257 0.904923 3.713252 0 -0.998101429 0.0615917021 0.943949 0.256778
2.186996 0.904923 3.713252 0 -0.998101429 0.0615917021 0.943949 0.375415
2.18617 0.904845 3.711988 0 -0.998101429 0.0615917021 0.946689 0.375415
2.359257 0.904845 3.711988 0 -0.998136132 0.0610267263 0.946689 0.256778
2.18617 0.904041 3.698838 0 -0.998136132 0.0610267263 0.987148 0.375415
2.359257 0.904041 3.698838 0 -0.998136132 0.0610267263 0.987148 0.256778
2.359257 0.904845 3.711988 0 -0.998136132 0.0610267263 0.946689 0.256778
2.18617 0.904845 3.711988 0 -0.998136132 0.0610267263 0.946689 0.375415
2.18617 0.904041 3.698838 0 -0.998136132 0.0610267263 0.987148 0.375415
2.359257 0.904041 3.698838 0 -0.998146741 0.0608529684 0.987148 0.256778
2.186996 0.903964 3.697575 0 -0.998146741 0.0608529684 0.989829 0.375415
2.359257 0.903964 3.697575 0 -0.998146741 0.0608529684 0.989829 0.256778
2.359257 0.904041 3.698838 0 -0.998146741 0.0608529684 0.987148 0.256778
2.18617 0.904041 3.698838 0 -0.998146741 0.0608529684 0.987148 0.375415
2.186996 0.903964 3.697575 0 -0.998146741 0.0608529684 0.989829 0.375415
3 0 1 2
3 3 4 5
3 6 7 8
3 9 10 11
3 12 13 14
3 15 16 17
3 18 19 20
3 21 22 23
3 24 25 26
3 27 28 29
3 30 31 32
3 33 34 35
3 36 37 38
3 39 40 41
3 42 43 44
3 45 46 47
3 48 49 50
3 51 52 53
3 54 55 56
3 57 58 59
3 60 61 62
3 63 64 65
3 66 67 68
3 69 70 71
3 72 73 74
3 75 76 77
3 78 79 80
3 81 82 83
