ply
format ascii 1.0
element vertex 84
property float x
property float y
property float z
property float nx
property float ny
property float nz
property float u
property float v
element face 28
property list uchar int vertex_indices
end_header
2.359257 0.662265 3.682044 0 0.0446485385 0.999002757 0.313402 0.002481
2.186996 0.842964 3.673968 0 0.0446485385 0.999002757 0.311604 0.886297
2.186996 0.662265 3.682044 0 0.0446485385 0.999002757 0.311604 0.002481
2.359257 0.662265 3.682044 0 0.0446485385 0.999002757 0.313402 0.002481
2.359257 0.842964 3.673968 0 0.0446485385 0.999002757 0.313402 0.886297
2.186996 0.842964 3.673968 0 0.0446485385 0.999002757 0.311604 0.886297
2.186996 0.663457 3.708707 0 -0.044643021 -0.999003003 0.258682 0.002481
2.359257 0.844156 3.700632 0 -0.044643021 -0.999003003 0.257259 0.886297
2.359257 0.663457 3.708707 0 -0.044643021 -0.999003003 0.257259 0.002481
2.186996 0.663457 3.708707 0 -0.044643021 -0.999003003 0.258682 0.002481
2.186996 0.844156 3.700632 0 -0.044643021 -0.999003003 0.258682 0.886297
2.359257 0.844156 3.700632 0 -0.044643021 -0.999003003 0.257259 0.886297
2.18617 0.662322 3.683309 0 0.998986374 -0.0450136152 0.987148 0.008603
2.359257 0.662265 3.682044 0 0.998986374 -0.0450136152 0.989829 0.127444
2.186996 0.662265 3.682044 0 0.998986374 -0.0450136152 0.989829 0.008603
2.18617 0.662322 3.683309 0 0.998986374 -0.0450136152 0.987148 0.008603
2.359257 0.662322 3.683309 0 0.998986374 -0.0450136152 0.987148 0.127444
2.359257 0.662265 3.682044 0 0.998986374 -0.0450136152 0.989829 0.127444
2.359257 0.662322 3.683309 0 0.999002061 -0.0446640932 0.987148 0.127444
2.18617 0.663401 3.707443 0 0.999002061 -0.0446640932 0.946689 0.008603
2.359257 0.663401 3.707443 0 0.999002061 -0.0446640932 0.946689 0.127444
2.359257 0.662322 3.683309 0 0.999002061 -0.0446640932 0.987148 0.127444
2.18617 0.662322 3.683309 0 0.999002061 -0.0446640932 0.987148 0.008603
2.18617 0.663401 3.707443 0 0.999002061 -0.0446640932 0.946689 0.008603
2.359257 0.663401 3.707443 0 0.999020029 -0.044260381 0.946689 0.127444
2.186996 0.663457 3.708707 0 0.999020029 -0.044260381 0.943949 0.008603
2.359257 0.663457 3.708707 0 0.999020029 -0.044260381 0.943949 0.127444
2.359257 0.663401 3.707443 0 0.999020029 -0.044260381 0.946689 0.127444
2.18617 0.663401 3.707443 0 0.999020029 -0.044260381 0.946689 0.008603
2.186996 0.663457 3.708707 0 0.999020029 -0.044260381 0.943949 0.008603
2.359257 0.663457 3.708707 -1 0 -0 0.943949 0.127444
2.359257 0.8441 3.699367 -1 0 -0 0.946689 0.256778
2.359257 0.663401 3.707443 -1 0 -0 0.946689 0.127444
2.359257 0.663457 3.708707 -1 0 0 0.943949 0.127444
2.359257 0.844156 3.700632 -1 0 0 0.943949 0.256778
2.359257 0.8441 3.699367 -1 0 0 0.946689 0.256778
2.359257 0.663401 3.707443 -1 0 -0 0.946689 0.127444
2.359257 0.843021 3.675233 -1 0 -0 0.987148 0.256778
2.359257 0.662322 3.683309 -1 0 -0 0.987148 0.127444
2.359257 0.663401 3.707443 -1 0 0 0.946689 0.127444
2.359257 0.8441 3.699367 -1 0 0 0.946689 0.256778
2.359257 0.843021 3.675233 -1 0 0 0.987148 0.256778
2.359257 0.662322 3.683309 -1 0 -0 0.987148 0.127444
2.359257 0.842964 3.673968 -1 0 -0 0.989829 0.256778
2.359257 0.662265 3.682044 -1 0 -0 0.989829 0.127444
2.359257 0.662322 3.683309 -1 0 0 0.987148 0.127444
2.359257 0.843021 3.675233 -1 0 0 0.987148 0.256778
2.359257 0.842964 3.673968 -1 0 0 0.989829 0.256778
2.186996 0.662265 3.682044 0.837561273 0.0243934345 0.545798566 0.311604 0.002481
2.18617 0.843021 3.675233 0.837561273 0.0243934345 0.545798566 0.308864 0.886297
2.18617 0.662322 3.683309 0.837561273 0.0243934345 0.545798566 0.308864 0.002481
2.186996 0.662265 3.682044 0.837561273 0.0243934345 0.545798566 0.311604 0.002481
2.186996 0.842964 3.673968 0.837561273 0.0243934345 0.545798566 0.311604 0.886297
2.18617 0.843021 3.675233 0.837561273 0.0243934345 0.545798566 0.308864 0.886297
2.18617 0.662322 3.683309 1 0 0 0.308864 0.002481
2.18617 0.8441 3.699367 1 0 0 0.261363 0.886297
2.18617 0.663401 3.707443 1 0 0 0.261363 0.002481
2.18617 0.662322 3.683309 1 -0 0 0.308864 0.002481
2.18617 0.843021 3.675233 1 -0 0 0.308864 0.886297
2.18617 0.8441 3.699367 1 -0 0 0.261363 0.886297
2.18617 0.663401 3.707443 0.837355045 -0.0244045283 -0.546114409 0.261363 0.002481
2.186996 0.844156 3.700632 0.837355045 -0.0244045283 -0.546114409 0.258682 0.886297
2.186996 0.663457 3.708707 0.837355045 -0.0244045283 -0.546114409 0.258682 0.002481
2.18617 0.663401 3.707443 0.837552458 -0.0243940379 -0.545812066 0.261363 0.002481
2.18617 0.8441 3.699367 0.837552458 -0.0243940379 -0.545812066 0.261363 0.886297
2.186996 0.844156 3.700632 0.837552458 -0.0243940379 -0.545812066 0.258682 0.886297
2.359257 0.844156 3.700632 0 -0.999021576 0.0442254611 0.943949 0.256778
2.18617 0.8441 3.699367 0 -0.999021576 0.0442254611 0.946689 0.375415
2.359257 0.8441 3.699367 0 -0.999021576 0.0442254611 0.946689 0.256778
2.359257 0.844156 3.700632 0 -0.999021576 0.0442254611 0.943949 0.256778
2.186996 0.844156 3.700632 0 -0.999021576 0.0442254611 0.943949 0.375415
2.18617 0.8441 3.699367 0 -0.999021576 0.0442254611 0.946689 0.375415
2.359257 0.8441 3.699367 0 -0.999002061 0.0446640932 0.946689 0.256778
2.18617 0.843021 3.675233 0 -0.999002061 0.0446640932 0.987148 0.375415
2.359257 0.843021 3.675233 0 -0.999002061 0.0446640932 0.987148 0.256778
2.359257 0.8441 3.699367 0 -0.999002061 0.0446640932 0.946689 0.256778
2.18617 0.8441 3.699367 0 -0.999002061 0.0446640932 0.946689 0.375415
2.18617 0.843021 3.675233 0 -0.999002061 0.0446640932 0.987148 0.375415
2.359257 0.843021 3.675233 0 -0.998986374 0.0450136152 0.987148 0.256778
2.186996 0.842964 3.673968 0 -0.998986374 0.0450136152 0.989829 0.375415
2.359257 0.842964 3.673968 0 -0.998986374 0.0450136152 0.989829 0.256778
2.359257 0.843021 3.675233 0 -0.998986374 0.0450136152 0.987148 0.256778
2.18617 0.843021 3.675233 0 -0.998986374 0.0450136152 0.987148 0.375415
2.186996 0.842964 3.673968 0 -0.998986374 0.0450136152 0.989829 0.375415
3 0 1 2
3 3 4 5
3 6 7 8
3 9 10 11
3 12 13 14
3 15 16 17
3 18 19 20
3 21 22 23
3 24 25 26
3 27 28 29
3 30 31 32
3 33 34 35
3 36 37 38
3 39 40 41
3 42 43 44
3 45 46 47
3 48 49 50
3 51 52 53
3 54 55 56
3 57 58 59
3 60 61 62
3 63 64 65
3 66 67 68
3 69 70 71
3 72 73 74
3 75 76 77
3 78 79 80
3 81 82 83
