ply
format ascii 1.0
element vertex 84
property float x
property float y
property float z
property float nx
property float ny
property float nz
property float u
property float v
element face 28
property list uchar int vertex_indices
end_header
2.359243 0.662246 3.735339 0 0.0899589135 0.995945477 0.359121 0.002481
2.186982 0.901836 3.713698 0 0.0899589135 0.995945477 0.357992 0.996443
2.186982 0.662246 3.735339 0 0.0899589135 0.995945477 0.357992 0.002481
2.359243 0.662246 3.735339 0 0.0899589135 0.995945477 0.359121 0.002481
2.359243 0.901836 3.713698 0 0.0899589135 0.995945477 0.359121 0.996443
2.186982 0.901836 3.713698 0 0.0899589135 0.995945477 0.357992 0.996443
2.186982 0.663674 3.751148 0 -0.0899630367 -0.995945105 0.318071 0.002481
2.359243 0.903264 3.729506 0 -0.0899630367 -0.995945105 0.316876 0.996443
2.359243 0.663674 3.751148 0 -0.0899630367 -0.995945105 0.317302 0.002481
2.186982 0.663674 3.751148 0 -0.0899630367 -0.995945105 0.318071 0.002481
2.186982 0.903264 3.729506 0 -0.0899630367 -0.995945105 0.317644 0.996443
2.359243 0.903264 3.729506 0 -0.0899630367 -0.995945105 0.316876 0.996443
2.186156 0.66236 3.7366 0 0.995938398 -0.0900372541 0.987148 0.008603
2.359243 0.662246 3.735339 0 0.995938398 -0.0900372541 0.989829 0.127444
2.186982 0.662246 3.735339 0 0.995938398 -0.0900372541 0.989829 0.008603
2.186156 0.66236 3.7366 0 0.995938398 -0.0900372541 0.987148 0.008603
2.359243 0.66236 3.7366 0 0.995938398 -0.0900372541 0.987148 0.127444
2.359243 0.662246 3.735339 0 0.995938398 -0.0900372541 0.989829 0.127444
2.359243 0.66236 3.7366 0 0.995946485 -0.0899477521 0.987148 0.127444
2.186156 0.66356 3.749887 0 0.995946485 -0.0899477521 0.946689 0.008603
2.359243 0.66356 3.749887 0 0.995946485 -0.0899477521 0.946689 0.127444
2.359243 0.66236 3.7366 0 0.995946485 -0.0899477521 0.987148 0.127444
2.186156 0.66236 3.7366 0 0.995946485 -0.0899477521 0.987148 0.008603
2.186156 0.66356 3.749887 0 0.995946485 -0.0899477521 0.946689 0.008603
2.359243 0.66356 3.749887 0 0.995938398 -0.0900372541 0.946689 0.127444
2.186982 0.663674 3.751148 0 0.995938398 -0.0900372541 0.943949 0.008603
2.359243 0.663674 3.751148 0 0.995938398 -0.0900372541 0.943949 0.127444
2.359243 0.66356 3.749887 0 0.995938398 -0.0900372541 0.946689 0.127444
2.186156 0.66356 3.749887 0 0.995938398 -0.0900372541 0.946689 0.008603
2.186982 0.663674 3.751148 0 0.995938398 -0.0900372541 0.943949 0.008603
2.359243 0.663674 3.751148 -1 0 -0 0.943949 0.127444
2.359243 0.90315 3.728245 -1 0 -0 0.946689 0.256778
2.359243 0.66356 3.749887 -1 0 -0 0.946689 0.127444
2.359243 0.663674 3.751148 -1 0 0 0.943949 0.127444
2.359243 0.903264 3.729506 -1 0 0 0.943949 0.256778
2.359243 0.90315 3.728245 -1 0 0 0.946689 0.256778
2.359243 0.66356 3.749887 -1 0 -0 0.946689 0.127444
2.359243 0.90195 3.714959 -1 0 -0 0.987148 0.256778
2.359243 0.66236 3.7366 -1 0 -0 0.987148 0.127444
2.359243 0.66356 3.749887 -1 0 0 0.946689 0.127444
2.359243 0.90315 3.728245 -1 0 0 0.946689 0.256778
2.359243 0.90195 3.714959 -1 0 0 0.987148 0.256778
2.359243 0.66236 3.7366 -1 0 -0 0.987148 0.127444
2.359243 0.901836 3.713698 -1 0 -0 0.989829 0.256778
2.359243 0.662246 3.735339 -1 0 -0 0.989829 0.127444
2.359243 0.66236 3.7366 -1 0 0 0.987148 0.127444
2.359243 0.90195 3.714959 -1 0 0 0.987148 0.256778
2.359243 0.901836 3.713698 -1 0 0 0.989829 0.256778
2.186982 0.662246 3.735339 0.837533453 0.0491522953 0.544170714 0.357992 0.002481
2.186156 0.90195 3.714959 0.837533453 0.0491522953 0.544170714 0.355395 0.996443
2.186156 0.66236 3.7366 0.837533453 0.0491522953 0.544170714 0.355395 0.002481
2.186982 0.662246 3.735339 0.837533453 0.0491522953 0.544170714 0.357992 0.002481
2.186982 0.901836 3.713698 0.837533453 0.0491522953 0.544170714 0.357992 0.996443
2.186156 0.90195 3.714959 0.837533453 0.0491522953 0.544170714 0.355395 0.996443
2.186156 0.66236 3.7366 1 -0 0 0.355395 0.002481
2.186156 0.90315 3.728245 1 -0 0 0.323208 0.996443
2.186156 0.66356 3.749887 1 -0 0 0.323208 0.002481
2.186156 0.66236 3.7366 1 0 0 0.355395 0.002481
2.186156 0.90195 3.714959 1 0 0 0.355395 0.996443
2.186156 0.90315 3.728245 1 0 0 0.323208 0.996443
2.186156 0.66356 3.749887 0.837533453 -0.0491545482 -0.544170511 0.323208 0.002481
2.186982 0.903264 3.729506 0.837533453 -0.0491545482 -0.544170511 0.317644 0.996443
2.186982 0.663674 3.751148 0.837533453 -0.0491545482 -0.544170511 0.318071 0.002481
2.186156 0.66356 3.749887 0.837533453 -0.0491545482 -0.544170511 0.323208 0.002481
2.186156 0.90315 3.728245 0.837533453 -0.0491545482 -0.544170511 0.323208 0.996443
2.186982 0.903264 3.729506 0.837533453 -0.0491545482 -0.544170511 0.317644 0.996443
2.359243 0.903264 3.729506 0 -0.995938398 0.0900372541 0.943949 0.256778
2.186156 0.90315 3.728245 0 -0.995938398 0.0900372541 0.946689 0.375415
2.359243 0.90315 3.728245 0 -0.995938398 0.0900372541 0.946689 0.256778
2.359243 0.903264 3.729506 0 -0.995938398 0.0900372541 0.943949 0.256778
2.186982 0.903264 3.729506 0 -0.995938398 0.0900372541 0.943949 0.375415
2.186156 0.90315 3.728245 0 -0.995938398 0.0900372541 0.946689 0.375415
2.359243 0.90315 3.728245 0 -0.995945879 0.0899544675 0.946689 0.256778
2.186156 0.90195 3.714959 0 -0.995945879 0.0899544675 0.987148 0.375415
2.359243 0.90195 3.714959 0 -0.995945879 0.0899544675 0.987148 0.256778
2.359243 0.90315 3.728245 0 -0.995945879 0.0899544675 0.946689 0.256778
2.186156 0.90315 3.728245 0 -0.995945879 0.0899544675 0.946689 0.375415
2.186156 0.90195 3.714959 0 -0.995945879 0.0899544675 0.987148 0.375415
2.359243 0.90195 3.714959 0 -0.995938398 0.0900372541 0.987148 0.256778
2.186982 0.901836 3.713698 0 -0.995938398 0.0900372541 0.989829 0.375415
2.359243 0.901836 3.713698 0 -0.995938398 0.0900372541 0.989829 0.256778
2.359243 0.90195 3.714959 0 -0.995938398 0.0900372541 0.987148 0.256778
2.186156 0.90195 3.714959 0 -0.995938398 0.0900372541 0.987148 0.375415
2.186982 0.901836 3.713698 0 -0.995938398 0.0900372541 0.989829 0.375415
3 0 1 2
3 3 4 5
3 6 7 8
3 9 10 11
3 12 13 14
3 15 16 17
3 18 19 20
3 21 22 23
3 24 25 26
3 27 28 29
3 30 31 32
3 33 34 35
3 36 37 38
3 39 40 41
3 42 43 44
3 45 46 47
3 48 49 50
3 51 52 53
3 54 55 56
3 57 58 59
3 60 61 62
3 63 64 65
3 66 67 68
3 69 70 71
3 72 73 74
3 75 76 77
3 78 79 80
3 81 82 83
