ply
format ascii 1.0
element vertex 84
property float x
property float y
property float z
property float nx
property float ny
property float nz
property float u
property float v
element face 28
property list uchar int vertex_indices
end_header
2.316215 0.661705 3.658978 0 0.016545256 0.999863118 0.398537 0.002481
2.186996 0.852368 3.655823 0 0.016545256 0.999863118 0.396739 0.79382
2.186996 0.661705 3.658978 0 0.016545256 0.999863118 0.396739 0.002481
2.316215 0.661705 3.658978 0 0.016545256 0.999863118 0.398537 0.002481
2.316215 0.852368 3.655823 0 0.016545256 0.999863118 0.398537 0.79382
2.186996 0.852368 3.655823 0 0.016545256 0.999863118 0.396739 0.79382
2.186996 0.662003 3.67695 0 -0.0165453427 -0.999863116 0.367459 0.002481
2.316215 0.852665 3.673795 0 -0.0165453427 -0.999863116 0.364841 0.79382
2.316215 0.662003 3.67695 0 -0.0165453427 -0.999863116 0.364841 0.002481
2.186996 0.662003 3.67695 0 -0.0165453427 -0.999863116 0.367459 0.002481
2.186996 0.852665 3.673795 0 -0.0165453427 -0.999863116 0.367459 0.79382
2.316215 0.852665 3.673795 0 -0.0165453427 -0.999863116 0.364841 0.79382
2.18617 0.661726 3.660244 0 0.999862453 -0.0165853961 0.987148 0.008603
2.316215 0.661705 3.658978 0 0.999862453 -0.0165853961 0.989829 0.127444
2.186996 0.661705 3.658978 0 0.999862453 -0.0165853961 0.989829 0.008603
2.18617 0.661726 3.660244 0 0.999862453 -0.0165853961 0.987148 0.008603
2.316215 0.661726 3.660244 0 0.999862453 -0.0165853961 0.987148 0.127444
2.316215 0.661705 3.658978 0 0.999862453 -0.0165853961 0.989829 0.127444
2.316215 0.661726 3.660244 0 0.999862575 -0.0165780323 0.987148 0.127444
2.18617 0.661982 3.675684 0 0.999862575 -0.0165780323 0.946689 0.008603
2.316215 0.661982 3.675684 0 0.999862575 -0.0165780323 0.946689 0.127444
2.316215 0.661726 3.660244 0 0.999862575 -0.0165780323 0.987148 0.127444
2.18617 0.661726 3.660244 0 0.999862575 -0.0165780323 0.987148 0.008603
2.18617 0.661982 3.675684 0 0.999862575 -0.0165780323 0.946689 0.008603
2.316215 0.661982 3.675684 0 0.999862453 -0.0165853961 0.946689 0.127444
2.186996 0.662003 3.67695 0 0.999862453 -0.0165853961 0.943949 0.008603
2.316215 0.662003 3.67695 0 0.999862453 -0.0165853961 0.943949 0.127444
2.316215 0.661982 3.675684 0 0.999862453 -0.0165853961 0.946689 0.127444
2.18617 0.661982 3.675684 0 0.999862453 -0.0165853961 0.946689 0.008603
2.186996 0.662003 3.67695 0 0.999862453 -0.0165853961 0.943949 0.008603
2.316215 0.662003 3.67695 -1 0 -0 0.943949 0.127444
2.316215 0.852644 3.672529 -1 0 -0 0.946689 0.256778
2.316215 0.661982 3.675684 -1 0 -0 0.946689 0.127444
2.316215 0.662003 3.67695 -1 0 0 0.943949 0.127444
2.316215 0.852665 3.673795 -1 0 0 0.943949 0.256778
2.316215 0.852644 3.672529 -1 0 0 0.946689 0.256778
2.316215 0.661982 3.675684 -1 0 -0 0.946689 0.127444
2.316215 0.852389 3.657089 -1 0 -0 0.987148 0.256778
2.316215 0.661726 3.660244 -1 0 -0 0.987148 0.127444
2.316215 0.661982 3.675684 -1 0 0 0.946689 0.127444
2.316215 0.852644 3.672529 -1 0 0 0.946689 0.256778
2.316215 0.852389 3.657089 -1 0 0 0.987148 0.256778
2.316215 0.661726 3.660244 -1 0 -0 0.987148 0.127444
2.316215 0.852368 3.655823 -1 0 -0 0.989829 0.256778
2.316215 0.661705 3.658978 -1 0 -0 0.989829 0.127444
2.316215 0.661726 3.660244 -1 0 0 0.987148 0.127444
2.316215 0.852389 3.657089 -1 0 0 0.987148 0.256778
2.316215 0.852368 3.655823 -1 0 0 0.989829 0.256778
2.186996 0.661705 3.658978 0.837539692 0.0090399388 0.546301696 0.396739 0.002481
2.18617 0.852389 3.657089 0.837539692 0.0090399388 0.546301696 0.393999 0.79382
2.18617 0.661726 3.660244 0.837539692 0.0090399388 0.546301696 0.393999 0.002481
2.186996 0.661705 3.658978 0.837539692 0.0090399388 0.546301696 0.396739 0.002481
2.186996 0.852368 3.655823 0.837539692 0.0090399388 0.546301696 0.396739 0.79382
2.18617 0.852389 3.657089 0.837539692 0.0090399388 0.546301696 0.393999 0.79382
2.18617 0.661726 3.660244 1 0 0 0.393999 0.002481
2.18617 0.852644 3.672529 1 0 0 0.368945 0.79382
2.18617 0.661982 3.675684 1 0 0 0.368945 0.002481
2.18617 0.661726 3.660244 1 -0 0 0.393999 0.002481
2.18617 0.852389 3.657089 1 -0 0 0.393999 0.79382
2.18617 0.852644 3.672529 1 -0 0 0.368945 0.79382
2.18617 0.661982 3.675684 0.837539692 -0.0090399862 -0.546301695 0.368945 0.002481
2.186996 0.852665 3.673795 0.837539692 -0.0090399862 -0.546301695 0.367459 0.79382
2.186996 0.662003 3.67695 0.837539692 -0.0090399862 -0.546301695 0.367459 0.002481
2.18617 0.661982 3.675684 0.837539692 -0.0090399862 -0.546301695 0.368945 0.002481
2.18617 0.852644 3.672529 0.837539692 -0.0090399862 -0.546301695 0.368945 0.79382
2.186996 0.852665 3.673795 0.837539692 -0.0090399862 -0.546301695 0.367459 0.79382
2.316215 0.852665 3.673795 0 -0.999862453 0.0165853961 0.943949 0.256778
2.18617 0.852644 3.672529 0 -0.999862453 0.0165853961 0.946689 0.375415
2.316215 0.852644 3.672529 0 -0.999862453 0.0165853961 0.946689 0.256778
2.316215 0.852665 3.673795 0 -0.999862453 0.0165853961 0.943949 0.256778
2.186996 0.852665 3.673795 0 -0.999862453 0.0165853961 0.943949 0.375415
2.18617 0.852644 3.672529 0 -0.999862453 0.0165853961 0.946689 0.375415
2.316215 0.852644 3.672529 0 -0.999863646 0.0165132921 0.946689 0.256778
2.18617 0.852389 3.657089 0 -0.999863646 0.0165132921 0.987148 0.375415
2.316215 0.852389 3.657089 0 -0.999863646 0.0165132921 0.987148 0.256778
2.316215 0.852644 3.672529 0 -0.999863646 0.0165132921 0.946689 0.256778
2.18617 0.852644 3.672529 0 -0.999863646 0.0165132921 0.946689 0.375415
2.18617 0.852389 3.657089 0 -0.999863646 0.0165132921 0.987148 0.375415
2.316215 0.852389 3.657089 0 -0.999862453 0.0165853961 0.987148 0.256778
2.186996 0.852368 3.655823 0 -0.999862453 0.0165853961 0.989829 0.375415
2.316215 0.852368 3.655823 0 -0.999862453 0.0165853961 0.989829 0.256778
2.316215 0.852389 3.657089 0 -0.999862453 0.0165853961 0.987148 0.256778
2.18617 0.852389 3.657089 0 -0.999862453 0.0165853961 0.987148 0.375415
2.186996 0.852368 3.655823 0 -0.999862453 0.0165853961 0.989829 0.375415
3 0 1 2
3 3 4 5
3 6 7 8
3 9 10 11
3 12 13 14
3 15 16 17
3 18 19 20
3 21 22 23
3 24 25 26
3 27 28 29
3 30 31 32
3 33 34 35
3 36 37 38
3 39 40 41
3 42 43 44
3 45 46 47
3 48 49 50
3 51 52 53
3 54 55 56
3 57 58 59
3 60 61 62
3 63 64 65
3 66 67 68
3 69 70 71
3 72 73 74
3 75 76 77
3 78 79 80
3 81 82 83
