ply
format ascii 1.0
element vertex 84
property float x
property float y
property float z
property float nx
property float ny
property float nz
property float u
property float v
element face 28
property list uchar int vertex_indices
end_header
2.350034 0.936623 4.090922 0 -0.125610694 0.99207961 0.493207 0.002481
2.177773 1.150131 4.117955 0 -0.125610694 0.99207961 0.491409 0.93701
2.177773 0.936623 4.090922 0 -0.125610694 0.99207961 0.491409 0.002481
2.350034 0.936623 4.090922 0 -0.125610694 0.99207961 0.493207 0.002481
2.350034 1.150131 4.117955 0 -0.125610694 0.99207961 0.493207 0.93701
2.177773 1.150131 4.117955 0 -0.125610694 0.99207961 0.491409 0.93701
2.177773 0.933485 4.115705 0 0.125610694 -0.99207961 0.406466 0.002481
2.350034 1.146993 4.142738 0 0.125610694 -0.99207961 0.405043 0.93701
2.350034 0.933485 4.115705 0 0.125610694 -0.99207961 0.405043 0.002481
2.177773 0.933485 4.115705 0 0.125610694 -0.99207961 0.406466 0.002481
2.177773 1.146993 4.142738 0 0.125610694 -0.99207961 0.406466 0.93701
2.350034 1.146993 4.142738 0 0.125610694 -0.99207961 0.405043 0.93701
2.176946 0.936464 4.092178 0 0.992082227 0.125590027 0.987148 0.008603
2.350034 0.936623 4.090922 0 0.992082227 0.125590027 0.989829 0.127444
2.177773 0.936623 4.090922 0 0.992082227 0.125590027 0.989829 0.008603
2.176946 0.936464 4.092178 -0 0.992082227 0.125590027 0.987148 0.008603
2.350034 0.936464 4.092178 -0 0.992082227 0.125590027 0.987148 0.127444
2.350034 0.936623 4.090922 -0 0.992082227 0.125590027 0.989829 0.127444
2.350034 0.936464 4.092178 0 0.992079257 0.125613484 0.987148 0.127444
2.176946 0.933644 4.11445 0 0.992079257 0.125613484 0.946689 0.008603
2.350034 0.933644 4.11445 0 0.992079257 0.125613484 0.946689 0.127444
2.350034 0.936464 4.092178 0 0.992079257 0.125613484 0.987148 0.127444
2.176946 0.936464 4.092178 0 0.992079257 0.125613484 0.987148 0.008603
2.176946 0.933644 4.11445 0 0.992079257 0.125613484 0.946689 0.008603
2.350034 0.933644 4.11445 0 0.992069754 0.125688519 0.946689 0.127444
2.177773 0.933485 4.115705 0 0.992069754 0.125688519 0.943949 0.008603
2.350034 0.933485 4.115705 0 0.992069754 0.125688519 0.943949 0.127444
2.350034 0.933644 4.11445 0 0.992069754 0.125688519 0.946689 0.127444
2.176946 0.933644 4.11445 0 0.992069754 0.125688519 0.946689 0.008603
2.177773 0.933485 4.115705 0 0.992069754 0.125688519 0.943949 0.008603
2.350034 0.933485 4.115705 -1 0 0 0.943949 0.127444
2.350034 1.147152 4.141482 -1 0 0 0.946689 0.256778
2.350034 0.933644 4.11445 -1 0 0 0.946689 0.127444
2.350034 0.933485 4.115705 -1 0 0 0.943949 0.127444
2.350034 1.146993 4.142738 -1 0 0 0.943949 0.256778
2.350034 1.147152 4.141482 -1 0 0 0.946689 0.256778
2.350034 0.933644 4.11445 -1 0 0 0.946689 0.127444
2.350034 1.149972 4.119211 -1 0 0 0.987148 0.256778
2.350034 0.936464 4.092178 -1 0 0 0.987148 0.127444
2.350034 0.933644 4.11445 -1 0 0 0.946689 0.127444
2.350034 1.147152 4.141482 -1 0 0 0.946689 0.256778
2.350034 1.149972 4.119211 -1 0 0 0.987148 0.256778
2.350034 0.936464 4.092178 -1 0 0 0.987148 0.127444
2.350034 1.150131 4.117955 -1 0 0 0.989829 0.256778
2.350034 0.936623 4.090922 -1 0 0 0.989829 0.127444
2.350034 0.936464 4.092178 -1 0 0 0.987148 0.127444
2.350034 1.149972 4.119211 -1 0 0 0.987148 0.256778
2.350034 1.150131 4.117955 -1 0 0 0.989829 0.256778
2.177773 0.936623 4.090922 0.837207299 -0.068694689 0.542554125 0.491409 0.002481
2.176946 1.149972 4.119211 0.837207299 -0.068694689 0.542554125 0.488669 0.93701
2.176946 0.936464 4.092178 0.837207299 -0.068694689 0.542554125 0.488669 0.002481
2.177773 0.936623 4.090922 0.837207299 -0.068694689 0.542554125 0.491409 0.002481
2.177773 1.150131 4.117955 0.837207299 -0.068694689 0.542554125 0.491409 0.93701
2.176946 1.149972 4.119211 0.837207299 -0.068694689 0.542554125 0.488669 0.93701
2.176946 0.936464 4.092178 1 0 -0 0.488669 0.002481
2.176946 1.147152 4.141482 1 0 -0 0.409147 0.93701
2.176946 0.933644 4.11445 1 0 -0 0.409147 0.002481
2.176946 0.936464 4.092178 1 0 0 0.488669 0.002481
2.176946 1.149972 4.119211 1 0 0 0.488669 0.93701
2.176946 1.147152 4.141482 1 0 0 0.409147 0.93701
2.176946 0.933644 4.11445 0.837010923 0.0687324359 -0.542852252 0.409147 0.002481
2.177773 1.146993 4.142738 0.837010923 0.0687324359 -0.542852252 0.406466 0.93701
2.177773 0.933485 4.115705 0.837010923 0.0687324359 -0.542852252 0.406466 0.002481
2.176946 0.933644 4.11445 0.837207299 0.0686921879 -0.542554441 0.409147 0.002481
2.176946 1.147152 4.141482 0.837207299 0.0686921879 -0.542554441 0.409147 0.93701
2.177773 1.146993 4.142738 0.837207299 0.0686921879 -0.542554441 0.406466 0.93701
2.350034 1.146993 4.142738 0 -0.992082227 -0.125590027 0.943949 0.256778
2.176946 1.147152 4.141482 0 -0.992082227 -0.125590027 0.946689 0.375415
2.350034 1.147152 4.141482 0 -0.992082227 -0.125590027 0.946689 0.256778
2.350034 1.146993 4.142738 -0 -0.992082227 -0.125590027 0.943949 0.256778
2.177773 1.146993 4.142738 -0 -0.992082227 -0.125590027 0.943949 0.375415
2.176946 1.147152 4.141482 -0 -0.992082227 -0.125590027 0.946689 0.375415
2.350034 1.147152 4.141482 0 -0.992078554 -0.125619035 0.946689 0.256778
2.176946 1.149972 4.119211 0 -0.992078554 -0.125619035 0.987148 0.375415
2.350034 1.149972 4.119211 0 -0.992078554 -0.125619035 0.987148 0.256778
2.350034 1.147152 4.141482 -0 -0.992078554 -0.125619035 0.946689 0.256778
2.176946 1.147152 4.141482 -0 -0.992078554 -0.125619035 0.946689 0.375415
2.176946 1.149972 4.119211 -0 -0.992078554 -0.125619035 0.987148 0.375415
2.350034 1.149972 4.119211 0 -0.992082227 -0.125590027 0.987148 0.256778
2.177773 1.150131 4.117955 0 -0.992082227 -0.125590027 0.989829 0.375415
2.350034 1.150131 4.117955 0 -0.992082227 -0.125590027 0.989829 0.256778
2.350034 1.149972 4.119211 -0 -0.992082227 -0.125590027 0.987148 0.256778
2.176946 1.149972 4.119211 -0 -0.992082227 -0.125590027 0.987148 0.375415
2.177773 1.150131 4.117955 -0 -0.992082227 -0.125590027 0.989829 0.375415
3 0 1 2
3 3 4 5
3 6 7 8
3 9 10 11
3 12 13 14
3 15 16 17
3 18 19 20
3 21 22 23
3 24 25 26
3 27 28 29
3 30 31 32
3 33 34 35
3 36 37 38
3 39 40 41
3 42 43 44
3 45 46 47
3 48 49 50
3 51 52 53
3 54 55 56
3 57 58 59
3 60 61 62
3 63 64 65
3 66 67 68
3 69 70 71
3 72 73 74
3 75 76 77
3 78 79 80
3 81 82 83
