ply
format ascii 1.0
element vertex 84
property float x
property float y
property float z
property float nx
property float ny
property float nz
property float u
property float v
element face 28
property list uchar int vertex_indices
end_header
2.292644 0.931875 3.785827 0 0 1 0.666243 0.002481
2.186996 1.093836 3.785827 0 0 1 0.664705 0.784572
2.186996 0.931875 3.785827 0 0 1 0.664705 0.002481
2.292644 0.931875 3.785827 0 -0 1 0.666243 0.002481
2.292644 1.093836 3.785827 0 -0 1 0.666243 0.784572
2.186996 1.093836 3.785827 0 -0 1 0.664705 0.784572
2.186996 0.931875 3.810808 0 0 -1 0.611708 0.002793
2.292644 1.093836 3.810808 0 0 -1 0.611885 0.784572
2.292644 0.931875 3.810808 0 0 -1 0.610285 0.002793
2.186996 0.931875 3.810808 0 0 -1 0.611708 0.002793
2.186996 1.093836 3.810808 0 0 -1 0.613308 0.784572
2.292644 1.093836 3.810808 0 0 -1 0.611885 0.784572
2.18617 0.931875 3.787093 0 1 0 0.987148 0.008603
2.292644 0.931875 3.785827 0 1 0 0.989829 0.127444
2.186996 0.931875 3.785827 0 1 0 0.989829 0.008603
2.18617 0.931875 3.787093 -0 1 0 0.987148 0.008603
2.292644 0.931875 3.787093 -0 1 0 0.987148 0.127444
2.292644 0.931875 3.785827 -0 1 0 0.989829 0.127444
2.292644 0.931875 3.787093 0 1 -0 0.987148 0.127444
2.18617 0.931875 3.809542 0 1 -0 0.946689 0.008603
2.292644 0.931875 3.809542 0 1 -0 0.946689 0.127444
2.292644 0.931875 3.787093 0 1 0 0.987148 0.127444
2.18617 0.931875 3.787093 0 1 0 0.987148 0.008603
2.18617 0.931875 3.809542 0 1 0 0.946689 0.008603
2.292644 0.931875 3.809542 0 1 -0 0.946689 0.127444
2.186996 0.931875 3.810808 0 1 -0 0.943949 0.008603
2.292644 0.931875 3.810808 0 1 -0 0.943949 0.127444
2.292644 0.931875 3.809542 0 1 0 0.946689 0.127444
2.18617 0.931875 3.809542 0 1 0 0.946689 0.008603
2.186996 0.931875 3.810808 0 1 0 0.943949 0.008603
2.292644 0.931875 3.810808 -1 0 0 0.943949 0.127444
2.292644 1.093836 3.809542 -1 0 0 0.946689 0.256778
2.292644 0.931875 3.809542 -1 0 0 0.946689 0.127444
2.292644 0.931875 3.810808 -1 0 0 0.943949 0.127444
2.292644 1.093836 3.810808 -1 0 0 0.943949 0.256778
2.292644 1.093836 3.809542 -1 0 0 0.946689 0.256778
2.292644 0.931875 3.809542 -1 0 0 0.946689 0.127444
2.292644 1.093836 3.787093 -1 0 0 0.987148 0.256778
2.292644 0.931875 3.787093 -1 0 0 0.987148 0.127444
2.292644 0.931875 3.809542 -1 0 0 0.946689 0.127444
2.292644 1.093836 3.809542 -1 0 0 0.946689 0.256778
2.292644 1.093836 3.787093 -1 0 0 0.987148 0.256778
2.292644 0.931875 3.787093 -1 0 0 0.987148 0.127444
2.292644 1.093836 3.785827 -1 0 0 0.989829 0.256778
2.292644 0.931875 3.785827 -1 0 0 0.989829 0.127444
2.292644 0.931875 3.787093 -1 0 0 0.987148 0.127444
2.292644 1.093836 3.787093 -1 0 0 0.987148 0.256778
2.292644 1.093836 3.785827 -1 0 0 0.989829 0.256778
2.186996 0.931875 3.785827 0.837505297 0 0.546429206 0.664705 0.002481
2.18617 1.093836 3.787093 0.837505297 0 0.546429206 0.663464 0.784572
2.18617 0.931875 3.787093 0.837505297 0 0.546429206 0.663464 0.002481
2.186996 0.931875 3.785827 0.837505297 -0 0.546429206 0.664705 0.002481
2.186996 1.093836 3.785827 0.837505297 -0 0.546429206 0.664705 0.784572
2.18617 1.093836 3.787093 0.837505297 -0 0.546429206 0.663464 0.784572
2.18617 0.931875 3.787093 1 0 0 0.663464 0.002481
2.18617 1.093836 3.809542 1 0 0 0.615989 0.784572
2.18617 0.931875 3.809542 1 0 0 0.614389 0.002793
2.18617 0.931875 3.787093 1 0 0 0.663464 0.002481
2.18617 1.093836 3.787093 1 0 0 0.663464 0.784572
2.18617 1.093836 3.809542 1 0 0 0.615989 0.784572
2.18617 0.931875 3.809542 0.837505297 0 -0.546429206 0.614389 0.002793
2.186996 1.093836 3.810808 0.837505297 0 -0.546429206 0.613308 0.784572
2.186996 0.931875 3.810808 0.837505297 0 -0.546429206 0.611708 0.002793
2.18617 0.931875 3.809542 0.837505297 0 -0.546429206 0.614389 0.002793
2.18617 1.093836 3.809542 0.837505297 0 -0.546429206 0.615989 0.784572
2.186996 1.093836 3.810808 0.837505297 0 -0.546429206 0.613308 0.784572
2.292644 1.093836 3.810808 0 -1 -0 0.943949 0.256778
2.18617 1.093836 3.809542 0 -1 -0 0.946689 0.375415
2.292644 1.093836 3.809542 0 -1 -0 0.946689 0.256778
2.292644 1.093836 3.810808 -0 -1 0 0.943949 0.256778
2.186996 1.093836 3.810808 -0 -1 0 0.943949 0.375415
2.18617 1.093836 3.809542 -0 -1 0 0.946689 0.375415
2.292644 1.093836 3.809542 0 -1 -0 0.946689 0.256778
2.18617 1.093836 3.787093 0 -1 -0 0.987148 0.375415
2.292644 1.093836 3.787093 0 -1 -0 0.987148 0.256778
2.292644 1.093836 3.809542 -0 -1 0 0.946689 0.256778
2.18617 1.093836 3.809542 -0 -1 0 0.946689 0.375415
2.18617 1.093836 3.787093 -0 -1 0 0.987148 0.375415
2.292644 1.093836 3.787093 0 -1 -0 0.987148 0.256778
2.186996 1.093836 3.785827 0 -1 -0 0.989829 0.375415
2.292644 1.093836 3.785827 0 -1 -0 0.989829 0.256778
2.292644 1.093836 3.787093 -0 -1 0 0.987148 0.256778
2.18617 1.093836 3.787093 -0 -1 0 0.987148 0.375415
2.186996 1.093836 3.785827 -0 -1 0 0.989829 0.375415
3 0 1 2
3 3 4 5
3 6 7 8
3 9 10 11
3 12 13 14
3 15 16 17
3 18 19 20
3 21 22 23
3 24 25 26
3 27 28 29
3 30 31 32
3 33 34 35
3 36 37 38
3 39 40 41
3 42 43 44
3 45 46 47
3 48 49 50
3 51 52 53
3 54 55 56
3 57 58 59
3 60 61 62
3 63 64 65
3 66 67 68
3 69 70 71
3 72 73 74
3 75 76 77
3 78 79 80
3 81 82 83
