ply
format ascii 1.0
element vertex 84
property float x
property float y
property float z
property float nx
property float ny
property float nz
property float u
property float v
element face 28
property list uchar int vertex_indices
end_header
2.371554 0.931487 3.771324 0 0.113270324 0.993564207 0.702245 0.002481
2.199293 1.166198 3.744566 0 0.113270324 0.993564207 0.701977 0.93701
2.199293 0.931487 3.771324 0 0.113270324 0.993564207 0.701977 0.002481
2.371554 0.931487 3.771324 0 0.113270324 0.993564207 0.702245 0.002481
2.371554 1.166198 3.744566 0 0.113270324 0.993564207 0.702245 0.93701
2.199293 1.166198 3.744566 0 0.113270324 0.993564207 0.701977 0.93701
2.199293 0.933046 3.785006 0 -0.113269848 -0.993564261 0.668597 0.002481
2.371554 1.167758 3.758248 0 -0.113269848 -0.993564261 0.667691 0.93701
2.371554 0.933046 3.785006 0 -0.113269848 -0.993564261 0.667691 0.002481
2.199293 0.933046 3.785006 0 -0.113269848 -0.993564261 0.668597 0.002481
2.199293 1.167758 3.758248 0 -0.113269848 -0.993564261 0.668597 0.93701
2.371554 1.167758 3.758248 0 -0.113269848 -0.993564261 0.667691 0.93701
2.198467 0.93163 3.772582 0 0.993601226 -0.112945131 0.987148 0.008603
2.371554 0.931487 3.771324 0 0.993601226 -0.112945131 0.989829 0.127444
2.199293 0.931487 3.771324 0 0.993601226 -0.112945131 0.989829 0.008603
2.198467 0.93163 3.772582 0 0.993601226 -0.112945131 0.987148 0.008603
2.371554 0.93163 3.772582 0 0.993601226 -0.112945131 0.987148 0.127444
2.371554 0.931487 3.771324 0 0.993601226 -0.112945131 0.989829 0.127444
2.371554 0.93163 3.772582 0 0.993563897 -0.113273047 0.987148 0.127444
2.198467 0.932903 3.783748 0 0.993563897 -0.113273047 0.946689 0.008603
2.371554 0.932903 3.783748 0 0.993563897 -0.113273047 0.946689 0.127444
2.371554 0.93163 3.772582 0 0.993563897 -0.113273047 0.987148 0.127444
2.198467 0.93163 3.772582 0 0.993563897 -0.113273047 0.987148 0.008603
2.198467 0.932903 3.783748 0 0.993563897 -0.113273047 0.946689 0.008603
2.371554 0.932903 3.783748 0 0.993601226 -0.112945131 0.946689 0.127444
2.199293 0.933046 3.785006 0 0.993601226 -0.112945131 0.943949 0.008603
2.371554 0.933046 3.785006 0 0.993601226 -0.112945131 0.943949 0.127444
2.371554 0.932903 3.783748 0 0.993601226 -0.112945131 0.946689 0.127444
2.198467 0.932903 3.783748 0 0.993601226 -0.112945131 0.946689 0.008603
2.199293 0.933046 3.785006 0 0.993601226 -0.112945131 0.943949 0.008603
2.371554 0.933046 3.785006 -1 0 -0 0.943949 0.127444
2.371554 1.167615 3.75699 -1 0 -0 0.946689 0.256778
2.371554 0.932903 3.783748 -1 0 -0 0.946689 0.127444
2.371554 0.933046 3.785006 -1 0 0 0.943949 0.127444
2.371554 1.167758 3.758248 -1 0 0 0.943949 0.256778
2.371554 1.167615 3.75699 -1 0 0 0.946689 0.256778
2.371554 0.932903 3.783748 -1 0 -0 0.946689 0.127444
2.371554 1.166342 3.745824 -1 0 -0 0.987148 0.256778
2.371554 0.93163 3.772582 -1 0 -0 0.987148 0.127444
2.371554 0.932903 3.783748 -1 0 0 0.946689 0.127444
2.371554 1.167615 3.75699 -1 0 0 0.946689 0.256778
2.371554 1.166342 3.745824 -1 0 0 0.987148 0.256778
2.371554 0.93163 3.772582 -1 0 -0 0.987148 0.127444
2.371554 1.166198 3.744566 -1 0 -0 0.989829 0.256778
2.371554 0.931487 3.771324 -1 0 -0 0.989829 0.127444
2.371554 0.93163 3.772582 -1 0 0 0.987148 0.127444
2.371554 1.166342 3.745824 -1 0 0 0.987148 0.256778
2.371554 1.166198 3.744566 -1 0 0 0.989829 0.256778
2.199293 0.931487 3.771324 0.83752533 0.061890475 0.542882023 0.701977 0.002481
2.198467 1.166342 3.745824 0.83752533 0.061890475 0.542882023 0.700982 0.93701
2.198467 0.93163 3.772582 0.83752533 0.061890475 0.542882023 0.700982 0.002481
2.199293 0.931487 3.771324 0.837547698 0.0618868516 0.542847927 0.701977 0.002481
2.199293 1.166198 3.744566 0.837547698 0.0618868516 0.542847927 0.701977 0.93701
2.198467 1.166342 3.745824 0.837547698 0.0618868516 0.542847927 0.700982 0.93701
2.198467 0.93163 3.772582 1 -0 0 0.700982 0.002481
2.198467 1.167615 3.75699 1 -0 0 0.669055 0.93701
2.198467 0.932903 3.783748 1 -0 0 0.669055 0.002481
2.198467 0.93163 3.772582 1 0 0 0.700982 0.002481
2.198467 1.166342 3.745824 1 0 0 0.700982 0.93701
2.198467 1.167615 3.75699 1 0 0 0.669055 0.93701
2.198467 0.932903 3.783748 0.83752533 -0.061890475 -0.542882023 0.669055 0.002481
2.199293 1.167758 3.758248 0.83752533 -0.061890475 -0.542882023 0.668597 0.93701
2.199293 0.933046 3.785006 0.83752533 -0.061890475 -0.542882023 0.668597 0.002481
2.198467 0.932903 3.783748 0.83752533 -0.061890475 -0.542882023 0.669055 0.002481
2.198467 1.167615 3.75699 0.83752533 -0.061890475 -0.542882023 0.669055 0.93701
2.199293 1.167758 3.758248 0.83752533 -0.061890475 -0.542882023 0.668597 0.93701
2.371554 1.167758 3.758248 0 -0.993601226 0.112945131 0.943949 0.256778
2.198467 1.167615 3.75699 0 -0.993601226 0.112945131 0.946689 0.375415
2.371554 1.167615 3.75699 0 -0.993601226 0.112945131 0.946689 0.256778
2.371554 1.167758 3.758248 0 -0.993601226 0.112945131 0.943949 0.256778
2.199293 1.167758 3.758248 0 -0.993601226 0.112945131 0.943949 0.375415
2.198467 1.167615 3.75699 0 -0.993601226 0.112945131 0.946689 0.375415
2.371554 1.167615 3.75699 0 -0.993563897 0.113273047 0.946689 0.256778
2.198467 1.166342 3.745824 0 -0.993563897 0.113273047 0.987148 0.375415
2.371554 1.166342 3.745824 0 -0.993563897 0.113273047 0.987148 0.256778
2.371554 1.167615 3.75699 0 -0.993563897 0.113273047 0.946689 0.256778
2.198467 1.167615 3.75699 0 -0.993563897 0.113273047 0.946689 0.375415
2.198467 1.166342 3.745824 0 -0.993563897 0.113273047 0.987148 0.375415
2.371554 1.166342 3.745824 0 -0.993512292 0.113724777 0.987148 0.256778
2.199293 1.166198 3.744566 0 -0.993512292 0.113724777 0.989829 0.375415
2.371554 1.166198 3.744566 0 -0.993512292 0.113724777 0.989829 0.256778
2.371554 1.166342 3.745824 0 -0.993512292 0.113724777 0.987148 0.256778
2.198467 1.166342 3.745824 0 -0.993512292 0.113724777 0.987148 0.375415
2.199293 1.166198 3.744566 0 -0.993512292 0.113724777 0.989829 0.375415
3 0 1 2
3 3 4 5
3 6 7 8
3 9 10 11
3 12 13 14
3 15 16 17
3 18 19 20
3 21 22 23
3 24 25 26
3 27 28 29
3 30 31 32
3 33 34 35
3 36 37 38
3 39 40 41
3 42 43 44
3 45 46 47
3 48 49 50
3 51 52 53
3 54 55 56
3 57 58 59
3 60 61 62
3 63 64 65
3 66 67 68
3 69 70 71
3 72 73 74
3 75 76 77
3 78 79 80
3 81 82 83
