ply
format ascii 1.0
element vertex 84
property float x
property float y
property float z
property float nx
property float ny
property float nz
property float u
property float v
element face 28
property list uchar int vertex_indices
end_header
2.367865 0.931568 3.751652 0 0.0916135468 0.995794636 0.725814 0.002481
2.195604 1.166806 3.73001 0 0.0916135468 0.995794636 0.72554 0.93701
2.195604 0.931568 3.751652 0 0.0916135468 0.995794636 0.724981 0.002481
2.367865 0.931568 3.751652 0 0.0916135468 0.995794636 0.725814 0.002481
2.367865 1.166806 3.73001 0 0.0916135468 0.995794636 0.725814 0.93701
2.195604 1.166806 3.73001 0 0.0916135468 0.995794636 0.72554 0.93701
2.195604 0.932829 3.765365 0 -0.0916131606 -0.995794672 0.704086 0.002481
2.367865 1.168068 3.743723 0 -0.0916131606 -0.995794672 0.703179 0.93701
2.367865 0.932829 3.765365 0 -0.0916131606 -0.995794672 0.703179 0.002481
2.195604 0.932829 3.765365 0 -0.0916131606 -0.995794672 0.704086 0.002481
2.195604 1.168068 3.743723 0 -0.0916131606 -0.995794672 0.704086 0.93701
2.367865 1.168068 3.743723 0 -0.0916131606 -0.995794672 0.703179 0.93701
2.194778 0.931684 3.752913 0 0.995795541 -0.0916037135 0.987148 0.008603
2.367865 0.931568 3.751652 0 0.995795541 -0.0916037135 0.989829 0.127444
2.195604 0.931568 3.751652 0 0.995795541 -0.0916037135 0.989829 0.008603
2.194778 0.931684 3.752913 0 0.995795541 -0.0916037135 0.987148 0.008603
2.367865 0.931684 3.752913 0 0.995795541 -0.0916037135 0.987148 0.127444
2.367865 0.931568 3.751652 0 0.995795541 -0.0916037135 0.989829 0.127444
2.367865 0.931684 3.752913 0 0.995799319 -0.0915626395 0.987148 0.127444
2.194778 0.932713 3.764104 0 0.995799319 -0.0915626395 0.946689 0.008603
2.367865 0.932713 3.764104 0 0.995799319 -0.0915626395 0.946689 0.127444
2.367865 0.931684 3.752913 0 0.995799319 -0.0915626395 0.987148 0.127444
2.194778 0.931684 3.752913 0 0.995799319 -0.0915626395 0.987148 0.008603
2.194778 0.932713 3.764104 0 0.995799319 -0.0915626395 0.946689 0.008603
2.367865 0.932713 3.764104 0 0.995795541 -0.0916037135 0.946689 0.127444
2.195604 0.932829 3.765365 0 0.995795541 -0.0916037135 0.943949 0.008603
2.367865 0.932829 3.765365 0 0.995795541 -0.0916037135 0.943949 0.127444
2.367865 0.932713 3.764104 0 0.995795541 -0.0916037135 0.946689 0.127444
2.194778 0.932713 3.764104 0 0.995795541 -0.0916037135 0.946689 0.008603
2.195604 0.932829 3.765365 0 0.995795541 -0.0916037135 0.943949 0.008603
2.367865 0.932829 3.765365 -1 0 -0 0.943949 0.127444
2.367865 1.167952 3.742462 -1 0 -0 0.946689 0.256778
2.367865 0.932713 3.764104 -1 0 -0 0.946689 0.127444
2.367865 0.932829 3.765365 -1 0 0 0.943949 0.127444
2.367865 1.168068 3.743723 -1 0 0 0.943949 0.256778
2.367865 1.167952 3.742462 -1 0 0 0.946689 0.256778
2.367865 0.932713 3.764104 -1 0 -0 0.946689 0.127444
2.367865 1.166922 3.731271 -1 0 -0 0.987148 0.256778
2.367865 0.931684 3.752913 -1 0 -0 0.987148 0.127444
2.367865 0.932713 3.764104 -1 0 0 0.946689 0.127444
2.367865 1.167952 3.742462 -1 0 0 0.946689 0.256778
2.367865 1.166922 3.731271 -1 0 0 0.987148 0.256778
2.367865 0.931684 3.752913 -1 0 -0 0.987148 0.127444
2.367865 1.166806 3.73001 -1 0 -0 0.989829 0.256778
2.367865 0.931568 3.751652 -1 0 -0 0.989829 0.127444
2.367865 0.931684 3.752913 -1 0 0 0.987148 0.127444
2.367865 1.166922 3.731271 -1 0 0 0.987148 0.256778
2.367865 1.166806 3.73001 -1 0 0 0.989829 0.256778
2.195604 0.931568 3.751652 0.837569319 0.0500513269 0.544033548 0.724981 0.002481
2.194778 1.166922 3.731271 0.837569319 0.0500513269 0.544033548 0.724199 0.93701
2.194778 0.931684 3.752913 0.837569319 0.0500513269 0.544033548 0.724199 0.002481
2.195604 0.931568 3.751652 0.837569319 0.0500513269 0.544033548 0.724981 0.002481
2.195604 1.166806 3.73001 0.837569319 0.0500513269 0.544033548 0.72554 0.93701
2.194778 1.166922 3.731271 0.837569319 0.0500513269 0.544033548 0.724199 0.93701
2.194778 0.931684 3.752913 1 -0 0 0.724199 0.002481
2.194778 1.167952 3.742462 1 -0 0 0.704544 0.93701
2.194778 0.932713 3.764104 1 -0 0 0.704544 0.002481
2.194778 0.931684 3.752913 1 0 0 0.724199 0.002481
2.194778 1.166922 3.731271 1 0 0 0.724199 0.93701
2.194778 1.167952 3.742462 1 0 0 0.704544 0.93701
2.194778 0.932713 3.764104 0.837569319 -0.0500511159 -0.544033567 0.704544 0.002481
2.195604 1.168068 3.743723 0.837569319 -0.0500511159 -0.544033567 0.704086 0.93701
2.195604 0.932829 3.765365 0.837569319 -0.0500511159 -0.544033567 0.704086 0.002481
2.194778 0.932713 3.764104 0.837569319 -0.0500511159 -0.544033567 0.704544 0.002481
2.194778 1.167952 3.742462 0.837569319 -0.0500511159 -0.544033567 0.704544 0.93701
2.195604 1.168068 3.743723 0.837569319 -0.0500511159 -0.544033567 0.704086 0.93701
2.367865 1.168068 3.743723 0 -0.995795541 0.0916037135 0.943949 0.256778
2.194778 1.167952 3.742462 0 -0.995795541 0.0916037135 0.946689 0.375415
2.367865 1.167952 3.742462 0 -0.995795541 0.0916037135 0.946689 0.256778
2.367865 1.168068 3.743723 0 -0.995795541 0.0916037135 0.943949 0.256778
2.195604 1.168068 3.743723 0 -0.995795541 0.0916037135 0.943949 0.375415
2.194778 1.167952 3.742462 0 -0.995795541 0.0916037135 0.946689 0.375415
2.367865 1.167952 3.742462 0 -0.995791202 0.0916508746 0.946689 0.256778
2.194778 1.166922 3.731271 0 -0.995791202 0.0916508746 0.987148 0.375415
2.367865 1.166922 3.731271 0 -0.995791202 0.0916508746 0.987148 0.256778
2.367865 1.167952 3.742462 0 -0.995791202 0.0916508746 0.946689 0.256778
2.194778 1.167952 3.742462 0 -0.995791202 0.0916508746 0.946689 0.375415
2.194778 1.166922 3.731271 0 -0.995791202 0.0916508746 0.987148 0.375415
2.367865 1.166922 3.731271 0 -0.995795541 0.0916037135 0.987148 0.256778
2.195604 1.166806 3.73001 0 -0.995795541 0.0916037135 0.989829 0.375415
2.367865 1.166806 3.73001 0 -0.995795541 0.0916037135 0.989829 0.256778
2.367865 1.166922 3.731271 0 -0.995795541 0.0916037135 0.987148 0.256778
2.194778 1.166922 3.731271 0 -0.995795541 0.0916037135 0.987148 0.375415
2.195604 1.166806 3.73001 0 -0.995795541 0.0916037135 0.989829 0.375415
3 0 1 2
3 3 4 5
3 6 7 8
3 9 10 11
3 12 13 14
3 15 16 17
3 18 19 20
3 21 22 23
3 24 25 26
3 27 28 29
3 30 31 32
3 33 34 35
3 36 37 38
3 39 40 41
3 42 43 44
3 45 46 47
3 48 49 50
3 51 52 53
3 54 55 56
3 57 58 59
3 60 61 62
3 63 64 65
3 66 67 68
3 69 70 71
3 72 73 74
3 75 76 77
3 78 79 80
3 81 82 83
