ply
format ascii 1.0
element vertex 84
property float x
property float y
property float z
property float nx
property float ny
property float nz
property float u
property float v
element face 28
property list uchar int vertex_indices
end_header
2.292848 0.931486 3.852725 0 0.0310911926 0.999516552 0.776053 0.002481
2.206671 1.056252 3.848844 0 0.0310911926 0.999516552 0.775166 0.600226
2.206671 0.931486 3.852725 0 0.0310911926 0.999516552 0.775166 0.002481
2.292848 0.931486 3.852725 0 0.0310911926 0.999516552 0.776053 0.002481
2.292848 1.056252 3.848844 0 0.0310911926 0.999516552 0.776053 0.600226
2.206671 1.056252 3.848844 0 0.0310911926 0.999516552 0.775166 0.600226
2.206671 0.932023 3.86999 0 -0.0310911926 -0.999516552 0.732067 0.002481
2.292848 1.056789 3.866109 0 -0.0310911926 -0.999516552 0.730996 0.600226
2.292848 0.932023 3.86999 0 -0.0310911926 -0.999516552 0.730996 0.002481
2.206671 0.932023 3.86999 0 -0.0310911926 -0.999516552 0.732067 0.002481
2.206671 1.056789 3.866109 0 -0.0310911926 -0.999516552 0.732067 0.600226
2.292848 1.056789 3.866109 0 -0.0310911926 -0.999516552 0.730996 0.600226
2.205845 0.931526 3.85399 0 0.999500445 -0.0316047572 0.987148 0.008603
2.292848 0.931486 3.852725 0 0.999500445 -0.0316047572 0.989829 0.127444
2.206671 0.931486 3.852725 0 0.999500445 -0.0316047572 0.989829 0.008603
2.205845 0.931526 3.85399 0 0.999500445 -0.0316047572 0.987148 0.008603
2.292848 0.931526 3.85399 0 0.999500445 -0.0316047572 0.987148 0.127444
2.292848 0.931486 3.852725 0 0.999500445 -0.0316047572 0.989829 0.127444
2.292848 0.931526 3.85399 0 0.99951729 -0.0310674529 0.987148 0.127444
2.205845 0.931984 3.868725 0 0.99951729 -0.0310674529 0.946689 0.008603
2.292848 0.931984 3.868725 0 0.99951729 -0.0310674529 0.946689 0.127444
2.292848 0.931526 3.85399 0 0.99951729 -0.0310674529 0.987148 0.127444
2.205845 0.931526 3.85399 0 0.99951729 -0.0310674529 0.987148 0.008603
2.205845 0.931984 3.868725 0 0.99951729 -0.0310674529 0.946689 0.008603
2.292848 0.931984 3.868725 0 0.999525093 -0.0308153981 0.946689 0.127444
2.206671 0.932023 3.86999 0 0.999525093 -0.0308153981 0.943949 0.008603
2.292848 0.932023 3.86999 0 0.999525093 -0.0308153981 0.943949 0.127444
2.292848 0.931984 3.868725 0 0.999525093 -0.0308153981 0.946689 0.127444
2.205845 0.931984 3.868725 0 0.999525093 -0.0308153981 0.946689 0.008603
2.206671 0.932023 3.86999 0 0.999525093 -0.0308153981 0.943949 0.008603
2.292848 0.932023 3.86999 -1 0 -0 0.943949 0.127444
2.292848 1.05675 3.864844 -1 0 -0 0.946689 0.256778
2.292848 0.931984 3.868725 -1 0 -0 0.946689 0.127444
2.292848 0.932023 3.86999 -1 0 0 0.943949 0.127444
2.292848 1.056789 3.866109 -1 0 0 0.943949 0.256778
2.292848 1.05675 3.864844 -1 0 0 0.946689 0.256778
2.292848 0.931984 3.868725 -1 0 -0 0.946689 0.127444
2.292848 1.056291 3.850109 -1 0 -0 0.987148 0.256778
2.292848 0.931526 3.85399 -1 0 -0 0.987148 0.127444
2.292848 0.931984 3.868725 -1 0 0 0.946689 0.127444
2.292848 1.05675 3.864844 -1 0 0 0.946689 0.256778
2.292848 1.056291 3.850109 -1 0 0 0.987148 0.256778
2.292848 0.931526 3.85399 -1 0 -0 0.987148 0.127444
2.292848 1.056252 3.848844 -1 0 -0 0.989829 0.256778
2.292848 0.931486 3.852725 -1 0 -0 0.989829 0.127444
2.292848 0.931526 3.85399 -1 0 0 0.987148 0.127444
2.292848 1.056291 3.850109 -1 0 0 0.987148 0.256778
2.292848 1.056252 3.848844 -1 0 0 0.989829 0.256778
2.206671 0.931486 3.852725 0.837432603 0.0169927354 0.54627638 0.775166 0.002481
2.205845 1.056291 3.850109 0.837432603 0.0169927354 0.54627638 0.774455 0.600226
2.205845 0.931526 3.85399 0.837432603 0.0169927354 0.54627638 0.774455 0.002481
2.206671 0.931486 3.852725 0.837426457 0.0169928921 0.546285795 0.775166 0.002481
2.206671 1.056252 3.848844 0.837426457 0.0169928921 0.546285795 0.775166 0.600226
2.205845 1.056291 3.850109 0.837426457 0.0169928921 0.546285795 0.774455 0.600226
2.205845 0.931526 3.85399 1 0 0 0.774455 0.002481
2.205845 1.05675 3.864844 1 0 0 0.734082 0.600226
2.205845 0.931984 3.868725 1 0 0 0.734082 0.002481
2.205845 0.931526 3.85399 1 -0 0 0.774455 0.002481
2.205845 1.056291 3.850109 1 -0 0 0.774455 0.600226
2.205845 1.05675 3.864844 1 -0 0 0.734082 0.600226
2.205845 0.931984 3.868725 0.837426457 -0.0169928921 -0.546285795 0.734082 0.002481
2.206671 1.056789 3.866109 0.837426457 -0.0169928921 -0.546285795 0.732067 0.600226
2.206671 0.932023 3.86999 0.837426457 -0.0169928921 -0.546285795 0.732067 0.002481
2.205845 0.931984 3.868725 0.837426457 -0.0169928921 -0.546285795 0.734082 0.002481
2.205845 1.05675 3.864844 0.837426457 -0.0169928921 -0.546285795 0.734082 0.600226
2.206671 1.056789 3.866109 0.837426457 -0.0169928921 -0.546285795 0.732067 0.600226
2.292848 1.056789 3.866109 0 -0.999525093 0.0308153981 0.943949 0.256778
2.205845 1.05675 3.864844 0 -0.999525093 0.0308153981 0.946689 0.375415
2.292848 1.05675 3.864844 0 -0.999525093 0.0308153981 0.946689 0.256778
2.292848 1.056789 3.866109 0 -0.999525093 0.0308153981 0.943949 0.256778
2.206671 1.056789 3.866109 0 -0.999525093 0.0308153981 0.943949 0.375415
2.205845 1.05675 3.864844 0 -0.999525093 0.0308153981 0.946689 0.375415
2.292848 1.05675 3.864844 0 -0.999515182 0.0311352201 0.946689 0.256778
2.205845 1.056291 3.850109 0 -0.999515182 0.0311352201 0.987148 0.375415
2.292848 1.056291 3.850109 0 -0.999515182 0.0311352201 0.987148 0.256778
2.292848 1.05675 3.864844 0 -0.999515182 0.0311352201 0.946689 0.256778
2.205845 1.05675 3.864844 0 -0.999515182 0.0311352201 0.946689 0.375415
2.205845 1.056291 3.850109 0 -0.999515182 0.0311352201 0.987148 0.375415
2.292848 1.056291 3.850109 0 -0.999525093 0.0308153981 0.987148 0.256778
2.206671 1.056252 3.848844 0 -0.999525093 0.0308153981 0.989829 0.375415
2.292848 1.056252 3.848844 0 -0.999525093 0.0308153981 0.989829 0.256778
2.292848 1.056291 3.850109 0 -0.999525093 0.0308153981 0.987148 0.256778
2.205845 1.056291 3.850109 0 -0.999525093 0.0308153981 0.987148 0.375415
2.206671 1.056252 3.848844 0 -0.999525093 0.0308153981 0.989829 0.375415
3 0 1 2
3 3 4 5
3 6 7 8
3 9 10 11
3 12 13 14
3 15 16 17
3 18 19 20
3 21 22 23
3 24 25 26
3 27 28 29
3 30 31 32
3 33 34 35
3 36 37 38
3 39 40 41
3 42 43 44
3 45 46 47
3 48 49 50
3 51 52 53
3 54 55 56
3 57 58 59
3 60 61 62
3 63 64 65
3 66 67 68
3 69 70 71
3 72 73 74
3 75 76 77
3 78 79 80
3 81 82 83
