ply
format ascii 1.0
element vertex 84
property float x
property float y
property float z
property float nx
property float ny
property float nz
property float u
property float v
element face 28
property list uchar int vertex_indices
end_header
2.343271 0.93108 3.717909 0 0.0533472834 0.99857602 0.821285 0.002481
2.201752 1.145986 3.706428 0 0.0533472834 0.99857602 0.820412 0.93701
2.201752 0.93108 3.717909 0 0.0533472834 0.99857602 0.820412 0.002481
2.343271 0.93108 3.717909 0 0.0533472834 0.99857602 0.821285 0.002481
2.343271 1.145986 3.706428 0 0.0533472834 0.99857602 0.821285 0.93701
2.201752 1.145986 3.706428 0 0.0533472834 0.99857602 0.820412 0.93701
2.201752 0.932413 3.742854 0 -0.0533475309 -0.998576007 0.7823 0.002481
2.343271 1.147318 3.731373 0 -0.0533475309 -0.998576007 0.78123 0.93701
2.343271 0.932413 3.742854 0 -0.0533475309 -0.998576007 0.78123 0.002481
2.201752 0.932413 3.742854 0 -0.0533475309 -0.998576007 0.7823 0.002481
2.201752 1.147318 3.731373 0 -0.0533475309 -0.998576007 0.7823 0.93701
2.343271 1.147318 3.731373 0 -0.0533475309 -0.998576007 0.78123 0.93701
2.200926 0.931148 3.719173 0 0.99855605 -0.0537197875 0.987148 0.008603
2.343271 0.93108 3.717909 0 0.99855605 -0.0537197875 0.989829 0.127444
2.201752 0.93108 3.717909 0 0.99855605 -0.0537197875 0.989829 0.008603
2.200926 0.931148 3.719173 0 0.99855605 -0.0537197875 0.987148 0.008603
2.343271 0.931148 3.719173 0 0.99855605 -0.0537197875 0.987148 0.127444
2.343271 0.93108 3.717909 0 0.99855605 -0.0537197875 0.989829 0.127444
2.343271 0.931148 3.719173 0 0.998577423 -0.0533210142 0.987148 0.127444
2.200926 0.932345 3.74159 0 0.998577423 -0.0533210142 0.946689 0.008603
2.343271 0.932345 3.74159 0 0.998577423 -0.0533210142 0.946689 0.127444
2.343271 0.931148 3.719173 0 0.998577423 -0.0533210142 0.987148 0.127444
2.200926 0.931148 3.719173 0 0.998577423 -0.0533210142 0.987148 0.008603
2.200926 0.932345 3.74159 0 0.998577423 -0.0533210142 0.946689 0.008603
2.343271 0.932345 3.74159 0 0.99855605 -0.0537197875 0.946689 0.127444
2.201752 0.932413 3.742854 0 0.99855605 -0.0537197875 0.943949 0.008603
2.343271 0.932413 3.742854 0 0.99855605 -0.0537197875 0.943949 0.127444
2.343271 0.932345 3.74159 0 0.99855605 -0.0537197875 0.946689 0.127444
2.200926 0.932345 3.74159 0 0.99855605 -0.0537197875 0.946689 0.008603
2.201752 0.932413 3.742854 0 0.99855605 -0.0537197875 0.943949 0.008603
2.343271 0.932413 3.742854 -1 0 -0 0.943949 0.127444
2.343271 1.147251 3.730109 -1 0 -0 0.946689 0.256778
2.343271 0.932345 3.74159 -1 0 -0 0.946689 0.127444
2.343271 0.932413 3.742854 -1 0 0 0.943949 0.127444
2.343271 1.147318 3.731373 -1 0 0 0.943949 0.256778
2.343271 1.147251 3.730109 -1 0 0 0.946689 0.256778
2.343271 0.932345 3.74159 -1 0 -0 0.946689 0.127444
2.343271 1.146053 3.707692 -1 0 -0 0.987148 0.256778
2.343271 0.931148 3.719173 -1 0 -0 0.987148 0.127444
2.343271 0.932345 3.74159 -1 0 0 0.946689 0.127444
2.343271 1.147251 3.730109 -1 0 0 0.946689 0.256778
2.343271 1.146053 3.707692 -1 0 0 0.987148 0.256778
2.343271 0.931148 3.719173 -1 0 -0 0.987148 0.127444
2.343271 1.145986 3.706428 -1 0 -0 0.989829 0.256778
2.343271 0.93108 3.717909 -1 0 -0 0.989829 0.127444
2.343271 0.931148 3.719173 -1 0 0 0.987148 0.127444
2.343271 1.146053 3.707692 -1 0 0 0.987148 0.256778
2.343271 1.145986 3.706428 -1 0 0 0.989829 0.256778
2.201752 0.93108 3.717909 0.837471259 0.0291534319 0.545703186 0.820412 0.002481
2.200926 1.146053 3.707692 0.837471259 0.0291534319 0.545703186 0.819206 0.93701
2.200926 0.931148 3.719173 0.837471259 0.0291534319 0.545703186 0.819206 0.002481
2.201752 0.93108 3.717909 0.837460719 0.0291541583 0.545719323 0.820412 0.002481
2.201752 1.145986 3.706428 0.837460719 0.0291541583 0.545719323 0.820412 0.93701
2.200926 1.146053 3.707692 0.837460719 0.0291541583 0.545719323 0.819206 0.93701
2.200926 0.931148 3.719173 1 0 0 0.819206 0.002481
2.200926 1.147251 3.730109 1 0 0 0.784315 0.93701
2.200926 0.932345 3.74159 1 0 0 0.784315 0.002481
2.200926 0.931148 3.719173 1 -0 0 0.819206 0.002481
2.200926 1.146053 3.707692 1 -0 0 0.819206 0.93701
2.200926 1.147251 3.730109 1 -0 0 0.784315 0.93701
2.200926 0.932345 3.74159 0.837471259 -0.0291534319 -0.545703186 0.784315 0.002481
2.201752 1.147318 3.731373 0.837471259 -0.0291534319 -0.545703186 0.7823 0.93701
2.201752 0.932413 3.742854 0.837471259 -0.0291534319 -0.545703186 0.7823 0.002481
2.200926 0.932345 3.74159 0.837460719 -0.0291541583 -0.545719323 0.784315 0.002481
2.200926 1.147251 3.730109 0.837460719 -0.0291541583 -0.545719323 0.784315 0.93701
2.201752 1.147318 3.731373 0.837460719 -0.0291541583 -0.545719323 0.7823 0.93701
2.343271 1.147318 3.731373 0 -0.998598118 0.0529320205 0.943949 0.256778
2.200926 1.147251 3.730109 0 -0.998598118 0.0529320205 0.946689 0.375415
2.343271 1.147251 3.730109 0 -0.998598118 0.0529320205 0.946689 0.256778
2.343271 1.147318 3.731373 0 -0.998598118 0.0529320205 0.943949 0.256778
2.201752 1.147318 3.731373 0 -0.998598118 0.0529320205 0.943949 0.375415
2.200926 1.147251 3.730109 0 -0.998598118 0.0529320205 0.946689 0.375415
2.343271 1.147251 3.730109 0 -0.99857505 0.0533654329 0.946689 0.256778
2.200926 1.146053 3.707692 0 -0.99857505 0.0533654329 0.987148 0.375415
2.343271 1.146053 3.707692 0 -0.99857505 0.0533654329 0.987148 0.256778
2.343271 1.147251 3.730109 0 -0.99857505 0.0533654329 0.946689 0.256778
2.200926 1.147251 3.730109 0 -0.99857505 0.0533654329 0.946689 0.375415
2.200926 1.146053 3.707692 0 -0.99857505 0.0533654329 0.987148 0.375415
2.343271 1.146053 3.707692 0 -0.998598118 0.0529320205 0.987148 0.256778
2.201752 1.145986 3.706428 0 -0.998598118 0.0529320205 0.989829 0.375415
2.343271 1.145986 3.706428 0 -0.998598118 0.0529320205 0.989829 0.256778
2.343271 1.146053 3.707692 0 -0.998598118 0.0529320205 0.987148 0.256778
2.200926 1.146053 3.707692 0 -0.998598118 0.0529320205 0.987148 0.375415
2.201752 1.145986 3.706428 0 -0.998598118 0.0529320205 0.989829 0.375415
3 0 1 2
3 3 4 5
3 6 7 8
3 9 10 11
3 12 13 14
3 15 16 17
3 18 19 20
3 21 22 23
3 24 25 26
3 27 28 29
3 30 31 32
3 33 34 35
3 36 37 38
3 39 40 41
3 42 43 44
3 45 46 47
3 48 49 50
3 51 52 53
3 54 55 56
3 57 58 59
3 60 61 62
3 63 64 65
3 66 67 68
3 69 70 71
3 72 73 74
3 75 76 77
3 78 79 80
3 81 82 83
