ply
format ascii 1.0
element vertex 84
property float x
property float y
property float z
property float nx
property float ny
property float nz
property float u
property float v
element face 28
property list uchar int vertex_indices
end_header
2.362946 0.931636 3.689915 0 0.041637889 0.999132767 0.873708 0.002481
2.190685 1.146662 3.680954 0 0.041637889 0.999132767 0.871966 0.93701
2.190685 0.931636 3.689915 0 0.041637889 0.999132767 0.871966 0.002481
2.362946 0.931636 3.689915 0 0.041637889 0.999132767 0.873708 0.002481
2.362946 1.146662 3.680954 0 0.041637889 0.999132767 0.873708 0.93701
2.190685 1.146662 3.680954 0 0.041637889 0.999132767 0.871966 0.93701
2.190685 0.932676 3.714875 0 -0.0416425275 -0.999132574 0.827515 0.002481
2.362946 1.147702 3.705913 0 -0.0416425275 -0.999132574 0.826136 0.93701
2.362946 0.932676 3.714875 0 -0.0416425275 -0.999132574 0.826136 0.002481
2.190685 0.932676 3.714875 0 -0.0416425275 -0.999132574 0.827515 0.002481
2.190685 1.147702 3.705913 0 -0.0416425275 -0.999132574 0.827515 0.93701
2.362946 1.147702 3.705913 0 -0.0416425275 -0.999132574 0.826136 0.93701
2.189859 0.931689 3.69118 0 0.999123465 -0.0418605088 0.987148 0.008603
2.362946 0.931636 3.689915 0 0.999123465 -0.0418605088 0.989829 0.127444
2.190685 0.931636 3.689915 0 0.999123465 -0.0418605088 0.989829 0.008603
2.189859 0.931689 3.69118 0 0.999123465 -0.0418605088 0.987148 0.008603
2.362946 0.931689 3.69118 0 0.999123465 -0.0418605088 0.987148 0.127444
2.362946 0.931636 3.689915 0 0.999123465 -0.0418605088 0.989829 0.127444
2.362946 0.931689 3.69118 0 0.999132301 -0.0416490727 0.987148 0.127444
2.189859 0.932624 3.71361 0 0.999132301 -0.0416490727 0.946689 0.008603
2.362946 0.932624 3.71361 0 0.999132301 -0.0416490727 0.946689 0.127444
2.362946 0.931689 3.69118 0 0.999132301 -0.0416490727 0.987148 0.127444
2.189859 0.931689 3.69118 0 0.999132301 -0.0416490727 0.987148 0.008603
2.189859 0.932624 3.71361 0 0.999132301 -0.0416490727 0.946689 0.008603
2.362946 0.932624 3.71361 0 0.999156188 -0.041072033 0.946689 0.127444
2.190685 0.932676 3.714875 0 0.999156188 -0.041072033 0.943949 0.008603
2.362946 0.932676 3.714875 0 0.999156188 -0.041072033 0.943949 0.127444
2.362946 0.932624 3.71361 0 0.999156188 -0.041072033 0.946689 0.127444
2.189859 0.932624 3.71361 0 0.999156188 -0.041072033 0.946689 0.008603
2.190685 0.932676 3.714875 0 0.999156188 -0.041072033 0.943949 0.008603
2.362946 0.932676 3.714875 -1 0 -0 0.943949 0.127444
2.362946 1.147649 3.704648 -1 0 -0 0.946689 0.256778
2.362946 0.932624 3.71361 -1 0 -0 0.946689 0.127444
2.362946 0.932676 3.714875 -1 0 0 0.943949 0.127444
2.362946 1.147702 3.705913 -1 0 0 0.943949 0.256778
2.362946 1.147649 3.704648 -1 0 0 0.946689 0.256778
2.362946 0.932624 3.71361 -1 0 -0 0.946689 0.127444
2.362946 1.146714 3.682219 -1 0 -0 0.987148 0.256778
2.362946 0.931689 3.69118 -1 0 -0 0.987148 0.127444
2.362946 0.932624 3.71361 -1 0 0 0.946689 0.127444
2.362946 1.147649 3.704648 -1 0 0 0.946689 0.256778
2.362946 1.146714 3.682219 -1 0 0 0.987148 0.256778
2.362946 0.931689 3.69118 -1 0 -0 0.987148 0.127444
2.362946 1.146662 3.680954 -1 0 -0 0.989829 0.256778
2.362946 0.931636 3.689915 -1 0 -0 0.989829 0.127444
2.362946 0.931689 3.69118 -1 0 0 0.987148 0.127444
2.362946 1.146714 3.682219 -1 0 0 0.987148 0.256778
2.362946 1.146662 3.680954 -1 0 0 0.989829 0.256778
2.190685 0.931636 3.689915 0.837526975 0.0227508808 0.545922122 0.871966 0.002481
2.189859 1.146714 3.682219 0.837526975 0.0227508808 0.545922122 0.869311 0.93701
2.189859 0.931689 3.69118 0.837526975 0.0227508808 0.545922122 0.869311 0.002481
2.190685 0.931636 3.689915 0.837518752 0.0227513 0.54593472 0.871966 0.002481
2.190685 1.146662 3.680954 0.837518752 0.0227513 0.54593472 0.871966 0.93701
2.189859 1.146714 3.682219 0.837518752 0.0227513 0.54593472 0.869311 0.93701
2.189859 0.931689 3.69118 1 0 0 0.869311 0.002481
2.189859 1.147649 3.704648 1 0 0 0.830112 0.93701
2.189859 0.932624 3.71361 1 0 0 0.830112 0.002481
2.189859 0.931689 3.69118 1 -0 0 0.869311 0.002481
2.189859 1.146714 3.682219 1 -0 0 0.869311 0.93701
2.189859 1.147649 3.704648 1 -0 0 0.830112 0.93701
2.189859 0.932624 3.71361 0.837518751 -0.0227538345 -0.545934616 0.830112 0.002481
2.190685 1.147702 3.705913 0.837518751 -0.0227538345 -0.545934616 0.827515 0.93701
2.190685 0.932676 3.714875 0.837518751 -0.0227538345 -0.545934616 0.827515 0.002481
2.189859 0.932624 3.71361 0.837526975 -0.0227534152 -0.545922016 0.830112 0.002481
2.189859 1.147649 3.704648 0.837526975 -0.0227534152 -0.545922016 0.830112 0.93701
2.190685 1.147702 3.705913 0.837526975 -0.0227534152 -0.545922016 0.827515 0.93701
2.362946 1.147702 3.705913 0 -0.999123465 0.0418605088 0.943949 0.256778
2.189859 1.147649 3.704648 0 -0.999123465 0.0418605088 0.946689 0.375415
2.362946 1.147649 3.704648 0 -0.999123465 0.0418605088 0.946689 0.256778
2.362946 1.147702 3.705913 0 -0.999123465 0.0418605088 0.943949 0.256778
2.190685 1.147702 3.705913 0 -0.999123465 0.0418605088 0.943949 0.375415
2.189859 1.147649 3.704648 0 -0.999123465 0.0418605088 0.946689 0.375415
2.362946 1.147649 3.704648 0 -0.999132224 0.0416509264 0.946689 0.256778
2.189859 1.146714 3.682219 0 -0.999132224 0.0416509264 0.987148 0.375415
2.362946 1.146714 3.682219 0 -0.999132224 0.0416509264 0.987148 0.256778
2.362946 1.147649 3.704648 0 -0.999132224 0.0416509264 0.946689 0.256778
2.189859 1.147649 3.704648 0 -0.999132224 0.0416509264 0.946689 0.375415
2.189859 1.146714 3.682219 0 -0.999132224 0.0416509264 0.987148 0.375415
2.362946 1.146714 3.682219 0 -0.999156188 0.041072033 0.987148 0.256778
2.190685 1.146662 3.680954 0 -0.999156188 0.041072033 0.989829 0.375415
2.362946 1.146662 3.680954 0 -0.999156188 0.041072033 0.989829 0.256778
2.362946 1.146714 3.682219 0 -0.999156188 0.041072033 0.987148 0.256778
2.189859 1.146714 3.682219 0 -0.999156188 0.041072033 0.987148 0.375415
2.190685 1.146662 3.680954 0 -0.999156188 0.041072033 0.989829 0.375415
3 0 1 2
3 3 4 5
3 6 7 8
3 9 10 11
3 12 13 14
3 15 16 17
3 18 19 20
3 21 22 23
3 24 25 26
3 27 28 29
3 30 31 32
3 33 34 35
3 36 37 38
3 39 40 41
3 42 43 44
3 45 46 47
3 48 49 50
3 51 52 53
3 54 55 56
3 57 58 59
3 60 61 62
3 63 64 65
3 66 67 68
3 69 70 71
3 72 73 74
3 75 76 77
3 78 79 80
3 81 82 83
