ply
format ascii 1.0
element vertex 84
property float x
property float y
property float z
property float nx
property float ny
property float nz
property float u
property float v
element face 28
property list uchar int vertex_indices
end_header
2.359257 0.931656 3.663105 0 0.0350492864 0.999385585 0.932659 0.002481
2.186996 1.146735 3.655562 0 0.0350492864 0.999385585 0.930861 0.93701
2.186996 0.931656 3.663105 0 0.0350492864 0.999385585 0.930861 0.002481
2.359257 0.931656 3.663105 0 0.0350492864 0.999385585 0.932659 0.002481
2.359257 1.146735 3.655562 0 0.0350492864 0.999385585 0.932659 0.93701
2.186996 1.146735 3.655562 0 0.0350492864 0.999385585 0.930861 0.93701
2.186996 0.932531 3.688071 0 -0.0350491236 -0.999385591 0.884981 0.002481
2.359257 1.147611 3.680528 0 -0.0350491236 -0.999385591 0.883558 0.93701
2.359257 0.932531 3.688071 0 -0.0350491236 -0.999385591 0.883558 0.002481
2.186996 0.932531 3.688071 0 -0.0350491236 -0.999385591 0.884981 0.002481
2.186996 1.147611 3.680528 0 -0.0350491236 -0.999385591 0.884981 0.93701
2.359257 1.147611 3.680528 0 -0.0350491236 -0.999385591 0.883558 0.93701
2.18617 0.9317 3.66437 0 0.999395633 -0.0347615872 0.987148 0.008603
2.359257 0.931656 3.663105 0 0.999395633 -0.0347615872 0.989829 0.127444
2.186996 0.931656 3.663105 0 0.999395633 -0.0347615872 0.989829 0.008603
2.18617 0.9317 3.66437 0 0.999395633 -0.0347615872 0.987148 0.008603
2.359257 0.9317 3.66437 0 0.999395633 -0.0347615872 0.987148 0.127444
2.359257 0.931656 3.663105 0 0.999395633 -0.0347615872 0.989829 0.127444
2.359257 0.9317 3.66437 0 0.999385295 -0.0350575541 0.987148 0.127444
2.18617 0.932487 3.686805 0 0.999385295 -0.0350575541 0.946689 0.008603
2.359257 0.932487 3.686805 0 0.999385295 -0.0350575541 0.946689 0.127444
2.359257 0.9317 3.66437 0 0.999385295 -0.0350575541 0.987148 0.127444
2.18617 0.9317 3.66437 0 0.999385295 -0.0350575541 0.987148 0.008603
2.18617 0.932487 3.686805 0 0.999385295 -0.0350575541 0.946689 0.008603
2.359257 0.932487 3.686805 0 0.999396587 -0.0347341626 0.946689 0.127444
2.186996 0.932531 3.688071 0 0.999396587 -0.0347341626 0.943949 0.008603
2.359257 0.932531 3.688071 0 0.999396587 -0.0347341626 0.943949 0.127444
2.359257 0.932487 3.686805 0 0.999396587 -0.0347341626 0.946689 0.127444
2.18617 0.932487 3.686805 0 0.999396587 -0.0347341626 0.946689 0.008603
2.186996 0.932531 3.688071 0 0.999396587 -0.0347341626 0.943949 0.008603
2.359257 0.932531 3.688071 -1 0 -0 0.943949 0.127444
2.359257 1.147566 3.679262 -1 0 -0 0.946689 0.256778
2.359257 0.932487 3.686805 -1 0 -0 0.946689 0.127444
2.359257 0.932531 3.688071 -1 0 0 0.943949 0.127444
2.359257 1.147611 3.680528 -1 0 0 0.943949 0.256778
2.359257 1.147566 3.679262 -1 0 0 0.946689 0.256778
2.359257 0.932487 3.686805 -1 0 -0 0.946689 0.127444
2.359257 1.14678 3.656827 -1 0 -0 0.987148 0.256778
2.359257 0.9317 3.66437 -1 0 -0 0.987148 0.127444
2.359257 0.932487 3.686805 -1 0 0 0.946689 0.127444
2.359257 1.147566 3.679262 -1 0 0 0.946689 0.256778
2.359257 1.14678 3.656827 -1 0 0 0.987148 0.256778
2.359257 0.9317 3.66437 -1 0 -0 0.987148 0.127444
2.359257 1.146735 3.655562 -1 0 -0 0.989829 0.256778
2.359257 0.931656 3.663105 -1 0 -0 0.989829 0.127444
2.359257 0.9317 3.66437 -1 0 0 0.987148 0.127444
2.359257 1.14678 3.656827 -1 0 0 0.987148 0.256778
2.359257 1.146735 3.655562 -1 0 0 0.989829 0.256778
2.186996 0.931656 3.663105 0.837458856 0.0191543593 0.546164604 0.930861 0.002481
2.18617 1.14678 3.656827 0.837458856 0.0191543593 0.546164604 0.928121 0.93701
2.18617 0.9317 3.66437 0.837458856 0.0191543593 0.546164604 0.928121 0.002481
2.186996 0.931656 3.663105 0.837465782 0.0191540763 0.546153994 0.930861 0.002481
2.186996 1.146735 3.655562 0.837465782 0.0191540763 0.546153994 0.930861 0.93701
2.18617 1.14678 3.656827 0.837465782 0.0191540763 0.546153994 0.928121 0.93701
2.18617 0.9317 3.66437 1 0 0 0.928121 0.002481
2.18617 1.147566 3.679263 1 0 0 0.887662 0.93701
2.18617 0.932487 3.686805 1 0 0 0.887662 0.002481
2.18617 0.9317 3.66437 1 -0 0 0.928121 0.002481
2.18617 1.14678 3.656827 1 -0 0 0.928121 0.93701
2.18617 1.147566 3.679263 1 -0 0 0.887662 0.93701
2.18617 0.932487 3.686805 0.837656173 -0.0191437574 -0.545862301 0.887662 0.002481
2.186996 1.147611 3.680528 0.837656173 -0.0191437574 -0.545862301 0.884981 0.93701
2.186996 0.932531 3.688071 0.837656173 -0.0191437574 -0.545862301 0.884981 0.002481
2.18617 0.932487 3.686805 0.837465781 -0.0191515401 -0.546154084 0.887662 0.002481
2.18617 1.147566 3.679263 0.837465781 -0.0191515401 -0.546154084 0.887662 0.93701
2.186996 1.147611 3.680528 0.837465781 -0.0191515401 -0.546154084 0.884981 0.93701
2.359257 1.147611 3.680528 2.05229684e-07 -0.999368874 0.0355225903 0.943949 0.256778
2.18617 1.147566 3.679263 2.05229684e-07 -0.999368874 0.0355225903 0.946689 0.375415
2.359257 1.147566 3.679262 2.05229684e-07 -0.999368874 0.0355225903 0.946689 0.256778
2.359257 1.147611 3.680528 0 -0.999367876 0.0355506359 0.943949 0.256778
2.186996 1.147611 3.680528 0 -0.999367876 0.0355506359 0.943949 0.375415
2.18617 1.147566 3.679263 0 -0.999367876 0.0355506359 0.946689 0.375415
2.359257 1.147566 3.679262 0 -0.999386855 0.035013063 0.946689 0.256778
2.18617 1.14678 3.656827 0 -0.999386855 0.035013063 0.987148 0.375415
2.359257 1.14678 3.656827 0 -0.999386855 0.035013063 0.987148 0.256778
2.359257 1.147566 3.679262 2.02276915e-07 -0.999386909 0.0350115043 0.946689 0.256778
2.18617 1.147566 3.679263 2.02276915e-07 -0.999386909 0.0350115043 0.946689 0.375415
2.18617 1.14678 3.656827 2.02276915e-07 -0.999386909 0.0350115043 0.987148 0.375415
2.359257 1.14678 3.656827 0 -0.999367876 0.0355506359 0.987148 0.256778
2.186996 1.146735 3.655562 0 -0.999367876 0.0355506359 0.989829 0.375415
2.359257 1.146735 3.655562 0 -0.999367876 0.0355506359 0.989829 0.256778
2.359257 1.14678 3.656827 0 -0.999367876 0.0355506359 0.987148 0.256778
2.18617 1.14678 3.656827 0 -0.999367876 0.0355506359 0.987148 0.375415
2.186996 1.146735 3.655562 0 -0.999367876 0.0355506359 0.989829 0.375415
3 0 1 2
3 3 4 5
3 6 7 8
3 9 10 11
3 12 13 14
3 15 16 17
3 18 19 20
3 21 22 23
3 24 25 26
3 27 28 29
3 30 31 32
3 33 34 35
3 36 37 38
3 39 40 41
3 42 43 44
3 45 46 47
3 48 49 50
3 51 52 53
3 54 55 56
3 57 58 59
3 60 61 62
3 63 64 65
3 66 67 68
3 69 70 71
3 72 73 74
3 75 76 77
3 78 79 80
3 81 82 83
