ply
format ascii 1.0
element vertex 132
property float x
property float y
property float z
property float nx
property float ny
property float nz
property float u
property float v
element face 44
property list uchar int vertex_indices
end_header
2.161101 0.028737 1.371015 0 1 -0 0.93818 0.109959
2.145409 0.028737 2.106018 0 1 -0 0.012762 0.010543
2.161101 0.028737 2.106018 0 1 -0 0.012762 0.109959
2.161101 0.028737 1.371015 0 1 0 0.93818 0.109959
2.145409 0.028737 1.371015 0 1 0 0.93818 0.010543
2.145409 0.028737 2.106018 0 1 0 0.012762 0.010543
2.143745 0.076809 1.371015 1 0 0 0.93818 0.611457
2.143745 0.030401 2.106018 1 0 0 0.012762 0.945928
2.143745 0.030401 1.371015 1 0 0 0.93818 0.945928
2.143745 0.076809 1.371015 1 0 -0 0.93818 0.611457
2.143745 0.076809 2.106018 1 0 -0 0.012762 0.611456
2.143745 0.030401 2.106018 1 0 -0 0.012762 0.945928
2.161101 0.078473 2.106018 0 -1 -0 0.012762 0.489504
2.145409 0.078473 1.371015 0 -1 -0 0.93818 0.58892
2.161102 0.078473 1.371015 0 -1 -0 0.93818 0.489504
2.161101 0.078473 2.106018 -0 -1 0 0.012762 0.489504
2.145409 0.078473 2.106018 -0 -1 0 0.012762 0.58892
2.145409 0.078473 1.371015 -0 -1 0 0.93818 0.58892
2.161102 0.076809 1.369351 0 0 1 0.99571 0.013475
2.145409 0.030401 1.369351 0 0 1 0.955283 0.360452
2.161101 0.030401 1.369351 0 0 1 0.995599 0.361356
2.161102 0.076809 1.369351 0 0 1 0.99571 0.013475
2.145409 0.076809 1.369351 0 0 1 0.955292 0.01257
2.145409 0.030401 1.369351 0 0 1 0.955283 0.360452
2.162766 0.030401 2.106018 -1 0 0 0.012762 0.132495
2.162766 0.076809 1.371015 -1 0 0 0.93818 0.466968
2.162766 0.030401 1.371015 -1 0 0 0.93818 0.132496
2.162766 0.030401 2.106018 -1 0 0 0.012762 0.132495
2.162766 0.076809 2.106018 -1 0 0 0.012762 0.466967
2.162766 0.076809 1.371015 -1 0 0 0.93818 0.466968
2.162766 0.030401 2.106018 -0.577119028 0.577465855 -0.577465855 0.012762 0.132495
2.161101 0.028737 2.106018 -0.577119028 0.577465855 -0.577465855 0.012762 0.120502
2.161101 0.030401 2.107682 -0.577119028 0.577465855 -0.577465855 0.010667 0.132495
2.162766 0.076809 1.371015 -0.577350269 -0.577350269 0.577350269 0.93818 0.466968
2.161102 0.078473 1.371015 -0.577350269 -0.577350269 0.577350269 0.93818 0.478961
2.161102 0.076809 1.369351 -0.577350269 -0.577350269 0.577350269 0.940275 0.466968
2.161101 0.078473 2.106018 -0.577119028 -0.577465855 -0.577465855 0.012762 0.489504
2.162766 0.076809 2.106018 -0.577119028 -0.577465855 -0.577465855 0.012762 0.478961
2.161101 0.076809 2.107682 -0.577119028 -0.577465855 -0.577465855 0.010667 0.489504
2.162766 0.030401 1.371015 -0.577119028 0.577465855 0.577465855 0.93818 0.132496
2.161101 0.030401 1.369351 -0.577119028 0.577465855 0.577465855 0.940275 0.132496
2.161101 0.028737 1.371015 -0.577119028 0.577465855 0.577465855 0.93818 0.120502
2.145409 0.030401 1.369351 0.577350269 0.577350269 0.577350269 0.955283 0.360452
2.143745 0.030401 1.371015 0.577350269 0.577350269 0.577350269 0.951006 0.360356
2.145409 0.028737 1.371015 0.577350269 0.577350269 0.577350269 0.955281 0.372926
2.145409 0.078473 2.106018 0.577350269 -0.577350269 -0.577350269 0.012762 0.58892
2.145409 0.076809 2.107682 0.577350269 -0.577350269 -0.577350269 0.010667 0.58892
2.143745 0.076809 2.106018 0.577350269 -0.577350269 -0.577350269 0.012762 0.599463
2.145409 0.078473 1.371015 0.577350269 -0.577350269 0.577350269 0.93818 0.58892
2.143745 0.076809 1.371015 0.577350269 -0.577350269 0.577350269 0.93818 0.599463
2.145409 0.076809 1.369351 0.577350269 -0.577350269 0.577350269 0.940275 0.58892
2.145409 0.028737 2.106018 0.577350269 0.577350269 -0.577350269 0.012762 0.010543
2.143745 0.030401 2.106018 0.577350269 0.577350269 -0.577350269 0.012762 0
2.145409 0.030401 2.107682 0.577350269 0.577350269 -0.577350269 0.010667 0.010543
2.162766 0.030401 2.106018 -0.706894341 0 -0.707319157 0.012762 0.132495
2.161101 0.076809 2.107682 -0.706894341 0 -0.707319157 0.010667 0.466967
2.162766 0.076809 2.106018 -0.706894341 0 -0.707319157 0.012762 0.466967
2.162766 0.030401 2.106018 -0.706894341 0 -0.707319157 0.012762 0.132495
2.161101 0.030401 2.107682 -0.706894341 0 -0.707319157 0.010667 0.132495
2.161101 0.076809 2.107682 -0.706894341 0 -0.707319157 0.010667 0.466967
2.161101 0.028737 2.106018 -0.706894341 0.707319157 0 0.012762 0.109959
2.162766 0.030401 1.371015 -0.706894341 0.707319157 0 0.93818 0.132496
2.161101 0.028737 1.371015 -0.706894341 0.707319157 0 0.93818 0.109959
2.161101 0.028737 2.106018 -0.706894341 0.707319157 0 0.012762 0.109959
2.162766 0.030401 2.106018 -0.706894341 0.707319157 0 0.012762 0.132495
2.162766 0.030401 1.371015 -0.706894341 0.707319157 0 0.93818 0.132496
2.162766 0.076809 1.371015 -0.706894341 0 0.707319157 0.93818 0.466968
2.161101 0.030401 1.369351 -0.706894341 0 0.707319157 0.940275 0.132496
2.162766 0.030401 1.371015 -0.706894341 0 0.707319157 0.93818 0.132496
2.162766 0.076809 1.371015 -0.707106781 1.52367433e-05 0.707106781 0.93818 0.466968
2.161102 0.076809 1.369351 -0.707106781 1.52367433e-05 0.707106781 0.940275 0.466968
2.161101 0.030401 1.369351 -0.707106781 1.52367433e-05 0.707106781 0.940275 0.132496
2.161102 0.078473 1.371015 -0.706894341 -0.707319157 -9.61757083e-07 0.93818 0.489504
2.162766 0.076809 2.106018 -0.706894341 -0.707319157 -9.61757083e-07 0.012762 0.466967
2.161101 0.078473 2.106018 -0.706894341 -0.707319157 -9.61757083e-07 0.012762 0.489504
2.161102 0.078473 1.371015 -0.707106781 -0.707106781 0 0.93818 0.489504
2.162766 0.076809 1.371015 -0.707106781 -0.707106781 0 0.93818 0.466968
2.162766 0.076809 2.106018 -0.707106781 -0.707106781 0 0.012762 0.466967
2.161102 0.076809 1.369351 0 -0.707106781 0.707106781 0.99571 0.013475
2.145409 0.078473 1.371015 0 -0.707106781 0.707106781 0.955293 9.6e-05
2.145409 0.076809 1.369351 0 -0.707106781 0.707106781 0.955292 0.01257
2.161102 0.076809 1.369351 0 -0.707106781 0.707106781 0.99571 0.013475
2.161102 0.078473 1.371015 0 -0.707106781 0.707106781 0.995714 0.001
2.145409 0.078473 1.371015 0 -0.707106781 0.707106781 0.955293 9.6e-05
2.145409 0.078473 2.106018 0.707106781 -0.707106781 0 0.012762 0.58892
2.143745 0.076809 1.371015 0.707106781 -0.707106781 0 0.93818 0.611457
2.145409 0.078473 1.371015 0.707106781 -0.707106781 0 0.93818 0.58892
2.145409 0.078473 2.106018 0.707106781 -0.707106781 0 0.012762 0.58892
2.143745 0.076809 2.106018 0.707106781 -0.707106781 0 0.012762 0.611456
2.143745 0.076809 1.371015 0.707106781 -0.707106781 0 0.93818 0.611457
2.161101 0.078473 2.106018 -0 -0.707106781 -0.707106781 0.012762 0.489504
2.145409 0.076809 2.107682 -0 -0.707106781 -0.707106781 0.010667 0.58892
2.145409 0.078473 2.106018 -0 -0.707106781 -0.707106781 0.012762 0.58892
2.161101 0.078473 2.106018 0 -0.707106781 -0.707106781 0.012762 0.489504
2.161101 0.076809 2.107682 0 -0.707106781 -0.707106781 0.010667 0.489504
2.145409 0.076809 2.107682 0 -0.707106781 -0.707106781 0.010667 0.58892
2.161101 0.028737 1.371015 0 0.707106781 0.707106781 0.93818 0.109959
2.145409 0.030401 1.369351 0 0.707106781 0.707106781 0.940275 0.010543
2.145409 0.028737 1.371015 0 0.707106781 0.707106781 0.93818 0.010543
2.161101 0.028737 1.371015 0 0.707106781 0.707106781 0.93818 0.109959
2.161101 0.030401 1.369351 0 0.707106781 0.707106781 0.940275 0.109959
2.145409 0.030401 1.369351 0 0.707106781 0.707106781 0.940275 0.010543
2.143745 0.030401 1.371015 0.707106781 -0 0.707106781 0.93818 0.945928
2.145409 0.076809 1.369351 0.707106781 -0 0.707106781 0.940275 0.611457
2.143745 0.076809 1.371015 0.707106781 -0 0.707106781 0.93818 0.611457
2.143745 0.030401 1.371015 0.707106781 0 0.707106781 0.93818 0.945928
2.145409 0.030401 1.369351 0.707106781 0 0.707106781 0.940275 0.945928
2.145409 0.076809 1.369351 0.707106781 0 0.707106781 0.940275 0.611457
2.161101 0.030401 2.107682 0 0.707106781 -0.707106781 0.955199 0.732419
2.145409 0.028737 2.106018 0 0.707106781 -0.707106781 0.995348 0.745711
2.145409 0.030401 2.107682 0 0.707106781 -0.707106781 0.995348 0.733304
2.161101 0.030401 2.107682 0 0.707106781 -0.707106781 0.955199 0.732419
2.161101 0.028737 2.106018 0 0.707106781 -0.707106781 0.955199 0.744825
2.145409 0.028737 2.106018 0 0.707106781 -0.707106781 0.995348 0.745711
2.145409 0.028737 1.371015 0.707106781 0.707106781 -0 0.93818 0.010543
2.143745 0.030401 2.106018 0.707106781 0.707106781 -0 0.012762 0
2.145409 0.028737 2.106018 0.707106781 0.707106781 -0 0.012762 0.010543
2.145409 0.028737 1.371015 0.707106781 0.707106781 0 0.93818 0.010543
2.143745 0.030401 1.371015 0.707106781 0.707106781 0 0.93818 0
2.143745 0.030401 2.106018 0.707106781 0.707106781 0 0.012762 0
2.143745 0.076809 2.106018 0.707106781 0 -0.707106781 0.012762 0.611456
2.145409 0.030401 2.107682 0.707106781 0 -0.707106781 0.010667 0.945928
2.143745 0.030401 2.106018 0.707106781 0 -0.707106781 0.012762 0.945928
2.143745 0.076809 2.106018 0.707106781 0 -0.707106781 0.012762 0.611456
2.145409 0.076809 2.107682 0.707106781 0 -0.707106781 0.010667 0.611456
2.145409 0.030401 2.107682 0.707106781 0 -0.707106781 0.010667 0.945928
2.161101 0.030401 2.107682 0 0 -1 0.955199 0.732419
2.145409 0.076809 2.107682 0 0 -1 0.995348 0.387313
2.161101 0.076809 2.107682 0 0 -1 0.955199 0.386427
2.161101 0.030401 2.107682 0 0 -1 0.955199 0.732419
2.145409 0.030401 2.107682 0 0 -1 0.995348 0.733304
2.145409 0.076809 2.107682 0 0 -1 0.995348 0.387313
3 0 1 2
3 3 4 5
3 6 7 8
3 9 10 11
3 12 13 14
3 15 16 17
3 18 19 20
3 21 22 23
3 24 25 26
3 27 28 29
3 30 31 32
3 33 34 35
3 36 37 38
3 39 40 41
3 42 43 44
3 45 46 47
3 48 49 50
3 51 52 53
3 54 55 56
3 57 58 59
3 60 61 62
3 63 64 65
3 66 67 68
3 69 70 71
3 72 73 74
3 75 76 77
3 78 79 80
3 81 82 83
3 84 85 86
3 87 88 89
3 90 91 92
3 93 94 95
3 96 97 98
3 99 100 101
3 102 103 104
3 105 106 107
3 108 109 110
3 111 112 113
3 114 115 116
3 117 118 119
3 120 121 122
3 123 124 125
3 126 127 128
3 129 130 131
