ply
format ascii 1.0
element vertex 264
property float x
property float y
property float z
property float nx
property float ny
property float nz
property float u
property float v
element face 88
property list uchar int vertex_indices
end_header
2.142261 0.03083 2.125644 1 -0 0 0.938926 0.109959
2.142261 1.174573 2.109951 1 -0 0 0.012015 0.010543
2.142261 1.174573 2.125644 1 -0 0 0.012015 0.109959
2.142261 0.03083 2.125644 1 0 0 0.938926 0.109959
2.142261 0.03083 2.109951 1 0 0 0.938926 0.010543
2.142261 1.174573 2.109951 1 0 0 0.012015 0.010543
2.412441 0.030829 2.108288 0 0 1 0.938926 0.601657
2.143925 1.174573 2.108288 0 0 1 0.012015 0.955727
2.143925 0.03083 2.108288 0 0 1 0.938926 0.955728
2.412441 0.030829 2.108288 0 -0 1 0.938926 0.601657
2.412441 1.174573 2.108288 0 -0 1 0.012015 0.601657
2.143925 1.174573 2.108288 0 -0 1 0.012015 0.955727
2.414105 1.174573 2.125644 -1 -0 0 0.012015 0.489504
2.414105 0.030829 2.109952 -1 -0 0 0.938926 0.58892
2.414105 0.030829 2.125644 -1 -0 0 0.938927 0.489504
2.414105 1.174573 2.125644 -1 0 -0 0.012015 0.489504
2.414105 1.174573 2.109952 -1 0 -0 0.012015 0.58892
2.414105 0.030829 2.109952 -1 0 -0 0.938926 0.58892
2.412441 0.029165 2.125644 3.72417286e-06 1 0 0.995713 0.003282
2.143925 0.029166 2.109951 3.72417286e-06 1 0 0.955282 0.370644
2.143925 0.029166 2.125644 3.72417286e-06 1 0 0.995596 0.371548
2.412441 0.029165 2.125644 3.72417286e-06 1 0 0.995713 0.003282
2.412441 0.029165 2.109952 3.72417286e-06 1 0 0.955292 0.002378
2.143925 0.029166 2.109951 3.72417286e-06 1 0 0.955282 0.370644
2.143925 1.174573 2.127308 0 0 -1 0.012015 0.122696
2.412441 0.030829 2.127308 0 0 -1 0.938926 0.476767
2.143925 0.03083 2.127308 0 0 -1 0.938926 0.122696
2.143925 1.174573 2.127308 0 0 -1 0.012015 0.122696
2.412441 1.174573 2.127308 0 0 -1 0.012015 0.476767
2.412441 0.030829 2.127308 0 0 -1 0.938926 0.476767
2.143925 1.174573 2.127308 0.577350269 -0.577350269 -0.577350269 0.012015 0.122696
2.142261 1.174573 2.125644 0.577350269 -0.577350269 -0.577350269 0.012015 0.120502
2.143925 1.176237 2.125644 0.577350269 -0.577350269 -0.577350269 0.010667 0.122696
2.412441 0.030829 2.127308 -0.577350269 0.577350269 -0.577350269 0.938926 0.476767
2.414105 0.030829 2.125644 -0.577350269 0.577350269 -0.577350269 0.938926 0.478961
2.412441 0.029165 2.125644 -0.577350269 0.577350269 -0.577350269 0.940275 0.476767
2.414105 1.174573 2.125644 -0.577350269 -0.577350269 -0.577350269 0.012015 0.489504
2.412441 1.174573 2.127308 -0.577350269 -0.577350269 -0.577350269 0.012015 0.478961
2.412441 1.176237 2.125644 -0.577350269 -0.577350269 -0.577350269 0.010667 0.489504
2.143925 0.03083 2.127308 0.577350269 0.577350269 -0.577350269 0.938926 0.122696
2.143925 0.029166 2.125644 0.577350269 0.577350269 -0.577350269 0.940275 0.122696
2.142261 0.03083 2.125644 0.577350269 0.577350269 -0.577350269 0.938926 0.120502
2.143925 0.029166 2.109951 0.577234545 0.577234545 0.577581649 0.955282 0.370644
2.143925 0.03083 2.108288 0.577234545 0.577234545 0.577581649 0.951006 0.370548
2.142261 0.03083 2.109951 0.577234545 0.577234545 0.577581649 0.955281 0.372926
2.414105 1.174573 2.109952 -0.577350269 -0.577350269 0.577350269 0.012015 0.58892
2.412441 1.176237 2.109952 -0.577350269 -0.577350269 0.577350269 0.010667 0.58892
2.412441 1.174573 2.108288 -0.577350269 -0.577350269 0.577350269 0.012015 0.599463
2.414105 0.030829 2.109952 -0.577350269 0.577350269 0.577350269 0.938926 0.58892
2.412441 0.030829 2.108288 -0.577350269 0.577350269 0.577350269 0.938926 0.599463
2.412441 0.029165 2.109952 -0.577350269 0.577350269 0.577350269 0.940275 0.58892
2.142261 1.174573 2.109951 0.577234545 -0.577234545 0.577581649 0.012015 0.010543
2.143925 1.174573 2.108288 0.577234545 -0.577234545 0.577581649 0.012015 0
2.143925 1.176237 2.109951 0.577234545 -0.577234545 0.577581649 0.010667 0.010543
2.143925 1.174573 2.127308 0 -0.707106781 -0.707106781 0.012015 0.122696
2.412441 1.176237 2.125644 0 -0.707106781 -0.707106781 0.010667 0.476767
2.412441 1.174573 2.127308 0 -0.707106781 -0.707106781 0.012015 0.476767
2.143925 1.174573 2.127308 0 -0.707106781 -0.707106781 0.012015 0.122696
2.143925 1.176237 2.125644 0 -0.707106781 -0.707106781 0.010667 0.122696
2.412441 1.176237 2.125644 0 -0.707106781 -0.707106781 0.010667 0.476767
2.142261 1.174573 2.125644 0.707106781 0 -0.707106781 0.012015 0.109959
2.143925 0.03083 2.127308 0.707106781 0 -0.707106781 0.938926 0.122696
2.142261 0.03083 2.125644 0.707106781 0 -0.707106781 0.938926 0.109959
2.142261 1.174573 2.125644 0.707106781 0 -0.707106781 0.012015 0.109959
2.143925 1.174573 2.127308 0.707106781 0 -0.707106781 0.012015 0.122696
2.143925 0.03083 2.127308 0.707106781 0 -0.707106781 0.938926 0.122696
2.412441 0.030829 2.127308 2.63338788e-06 0.707106781 -0.707106781 0.938926 0.476767
2.143925 0.029166 2.125644 2.63338788e-06 0.707106781 -0.707106781 0.940275 0.122696
2.143925 0.03083 2.127308 2.63338788e-06 0.707106781 -0.707106781 0.938926 0.122696
2.412441 0.030829 2.127308 2.63338788e-06 0.707106781 -0.707106781 0.938926 0.476767
2.412441 0.029165 2.125644 2.63338788e-06 0.707106781 -0.707106781 0.940275 0.476767
2.143925 0.029166 2.125644 2.63338788e-06 0.707106781 -0.707106781 0.940275 0.122696
2.414105 0.030829 2.125644 -0.707106781 0 -0.707106781 0.938927 0.489504
2.412441 1.174573 2.127308 -0.707106781 0 -0.707106781 0.012015 0.476767
2.414105 1.174573 2.125644 -0.707106781 0 -0.707106781 0.012015 0.489504
2.414105 0.030829 2.125644 -0.707106781 0 -0.707106781 0.938927 0.489504
2.412441 0.030829 2.127308 -0.707106781 0 -0.707106781 0.938926 0.476767
2.412441 1.174573 2.127308 -0.707106781 0 -0.707106781 0.012015 0.476767
2.412441 0.029165 2.125644 -0.707106781 0.707106781 0 0.995713 0.003282
2.414105 0.030829 2.109952 -0.707106781 0.707106781 0 0.955293 9.6e-05
2.412441 0.029165 2.109952 -0.707106781 0.707106781 0 0.955292 0.002378
2.412441 0.029165 2.125644 -0.707106781 0.707106781 0 0.995713 0.003282
2.414105 0.030829 2.125644 -0.707106781 0.707106781 0 0.995713 0.001
2.414105 0.030829 2.109952 -0.707106781 0.707106781 0 0.955293 9.6e-05
2.414105 1.174573 2.109952 -0.707106781 0 0.707106781 0.012015 0.58892
2.412441 0.030829 2.108288 -0.707106781 0 0.707106781 0.938926 0.601657
2.414105 0.030829 2.109952 -0.707106781 0 0.707106781 0.938926 0.58892
2.414105 1.174573 2.109952 -0.707106781 0 0.707106781 0.012015 0.58892
2.412441 1.174573 2.108288 -0.707106781 0 0.707106781 0.012015 0.601657
2.412441 0.030829 2.108288 -0.707106781 0 0.707106781 0.938926 0.601657
2.414105 1.174573 2.125644 -0.707106781 -0.707106781 -0 0.012015 0.489504
2.412441 1.176237 2.109952 -0.707106781 -0.707106781 -0 0.010667 0.58892
2.414105 1.174573 2.109952 -0.707106781 -0.707106781 -0 0.012015 0.58892
2.414105 1.174573 2.125644 -0.707106781 -0.707106781 0 0.012015 0.489504
2.412441 1.176237 2.125644 -0.707106781 -0.707106781 0 0.010667 0.489504
2.412441 1.176237 2.109952 -0.707106781 -0.707106781 0 0.010667 0.58892
2.142261 0.03083 2.125644 0.707106781 0.707106781 0 0.938926 0.109959
2.143925 0.029166 2.109951 0.707106781 0.707106781 0 0.940275 0.010543
2.142261 0.03083 2.109951 0.707106781 0.707106781 0 0.938926 0.010543
2.142261 0.03083 2.125644 0.707106781 0.707106781 0 0.938926 0.109959
2.143925 0.029166 2.125644 0.707106781 0.707106781 0 0.940275 0.109959
2.143925 0.029166 2.109951 0.707106781 0.707106781 0 0.940275 0.010543
2.143925 0.03083 2.108288 2.63338788e-06 0.707106781 0.707106781 0.938926 0.955728
2.412441 0.029165 2.109952 2.63338788e-06 0.707106781 0.707106781 0.940275 0.601657
2.412441 0.030829 2.108288 2.63338788e-06 0.707106781 0.707106781 0.938926 0.601657
2.143925 0.03083 2.108288 -1.58303963e-09 0.706894213 0.707319285 0.938926 0.955728
2.143925 0.029166 2.109951 -1.58303963e-09 0.706894213 0.707319285 0.940275 0.955728
2.412441 0.029165 2.109952 -1.58303963e-09 0.706894213 0.707319285 0.940275 0.601657
2.143925 1.176237 2.125644 0.707106781 -0.707106781 0 0.955199 0.742555
2.142261 1.174573 2.109951 0.707106781 -0.707106781 0 0.995348 0.745711
2.143925 1.176237 2.109951 0.707106781 -0.707106781 0 0.995348 0.743441
2.143925 1.176237 2.125644 0.707106781 -0.707106781 0 0.955199 0.742555
2.142261 1.174573 2.125644 0.707106781 -0.707106781 0 0.955199 0.744825
2.142261 1.174573 2.109951 0.707106781 -0.707106781 0 0.995348 0.745711
2.142261 0.03083 2.109951 0.706894213 -0 0.707319285 0.938926 0.010543
2.143925 1.174573 2.108288 0.706894213 -0 0.707319285 0.012015 0
2.142261 1.174573 2.109951 0.706894213 -0 0.707319285 0.012015 0.010543
2.142261 0.03083 2.109951 0.706894213 0 0.707319285 0.938926 0.010543
2.143925 0.03083 2.108288 0.706894213 0 0.707319285 0.938926 0
2.143925 1.174573 2.108288 0.706894213 0 0.707319285 0.012015 0
2.412441 1.174573 2.108288 0 -0.706894213 0.707319285 0.012015 0.601657
2.143925 1.176237 2.109951 0 -0.706894213 0.707319285 0.010667 0.955727
2.143925 1.174573 2.108288 0 -0.706894213 0.707319285 0.012015 0.955727
2.412441 1.174573 2.108288 -2.63338788e-06 -0.707106781 0.707106781 0.012015 0.601657
2.412441 1.176237 2.109952 -2.63338788e-06 -0.707106781 0.707106781 0.010667 0.601657
2.143925 1.176237 2.109951 -2.63338788e-06 -0.707106781 0.707106781 0.010667 0.955727
2.143925 1.176237 2.125644 0 -1 0 0.955199 0.742555
2.412441 1.176237 2.109952 0 -1 0 0.995348 0.377176
2.412441 1.176237 2.125644 0 -1 0 0.955199 0.37629
2.143925 1.176237 2.125644 0 -1 0 0.955199 0.742555
2.143925 1.176237 2.109951 0 -1 0 0.995348 0.743441
2.412441 1.176237 2.109952 0 -1 0 0.995348 0.377176
2.142261 0.03083 1.351336 1 0 0 0.938926 0.109959
2.142261 1.174573 1.367028 1 0 0 0.012015 0.010543
2.142261 0.03083 1.367028 1 0 0 0.938926 0.010543
2.142261 0.03083 1.351336 1 0 0 0.938926 0.109959
2.142261 1.174573 1.351336 1 0 0 0.012015 0.109959
2.142261 1.174573 1.367028 1 0 0 0.012015 0.010543
2.412441 0.030829 1.368692 0 0 -1 0.938926 0.601657
2.143925 1.174573 1.368692 0 0 -1 0.012015 0.955727
2.412441 1.174573 1.368692 0 0 -1 0.012015 0.601657
2.412441 0.030829 1.368692 0 0 -1 0.938926 0.601657
2.143925 0.03083 1.368692 0 0 -1 0.938926 0.955728
2.143925 1.174573 1.368692 0 0 -1 0.012015 0.955727
2.414105 1.174573 1.351336 -1 0 0 0.012015 0.489504
2.414105 0.030829 1.367028 -1 0 0 0.938926 0.58892
2.414105 1.174573 1.367028 -1 0 0 0.012015 0.58892
2.414105 1.174573 1.351336 -1 0 0 0.012015 0.489504
2.414105 0.030829 1.351336 -1 0 0 0.938927 0.489504
2.414105 0.030829 1.367028 -1 0 0 0.938926 0.58892
2.412441 0.029165 1.351336 3.72417286e-06 1 -0 0.995713 0.003282
2.143925 0.029166 1.367028 3.72417286e-06 1 -0 0.955282 0.370644
2.412441 0.029165 1.367028 3.72417286e-06 1 -0 0.955292 0.002378
2.412441 0.029165 1.351336 3.72417286e-06 1 0 0.995713 0.003282
2.143925 0.029166 1.351336 3.72417286e-06 1 0 0.995596 0.371548
2.143925 0.029166 1.367028 3.72417286e-06 1 0 0.955282 0.370644
2.143925 1.174573 1.349672 -0 0 1 0.012015 0.122696
2.412441 0.030829 1.349672 -0 0 1 0.938926 0.476767
2.412441 1.174573 1.349672 -0 0 1 0.012015 0.476767
2.143925 1.174573 1.349672 0 0 1 0.012015 0.122696
2.143925 0.03083 1.349672 0 0 1 0.938926 0.122696
2.412441 0.030829 1.349672 0 0 1 0.938926 0.476767
2.143925 1.174573 1.349672 0.577350269 -0.577350269 0.577350269 0.012015 0.122696
2.143925 1.176237 1.351336 0.577350269 -0.577350269 0.577350269 0.010667 0.122696
2.142261 1.174573 1.351336 0.577350269 -0.577350269 0.577350269 0.012015 0.120502
2.412441 0.030829 1.349672 -0.577350269 0.577350269 0.577350269 0.938926 0.476767
2.412441 0.029165 1.351336 -0.577350269 0.577350269 0.577350269 0.940275 0.476767
2.414105 0.030829 1.351336 -0.577350269 0.577350269 0.577350269 0.938926 0.478961
2.414105 1.174573 1.351336 -0.577350269 -0.577350269 0.577350269 0.012015 0.489504
2.412441 1.176237 1.351336 -0.577350269 -0.577350269 0.577350269 0.010667 0.489504
2.412441 1.174573 1.349672 -0.577350269 -0.577350269 0.577350269 0.012015 0.478961
2.143925 0.03083 1.349672 0.577350269 0.577350269 0.577350269 0.938926 0.122696
2.142261 0.03083 1.351336 0.577350269 0.577350269 0.577350269 0.938926 0.120502
2.143925 0.029166 1.351336 0.577350269 0.577350269 0.577350269 0.940275 0.122696
2.143925 0.029166 1.367028 0.577350269 0.577350269 -0.577350269 0.955282 0.370644
2.142261 0.03083 1.367028 0.577350269 0.577350269 -0.577350269 0.955281 0.372926
2.143925 0.03083 1.368692 0.577350269 0.577350269 -0.577350269 0.951006 0.370548
2.414105 1.174573 1.367028 -0.577350269 -0.577350269 -0.577350269 0.012015 0.58892
2.412441 1.174573 1.368692 -0.577350269 -0.577350269 -0.577350269 0.012015 0.599463
2.412441 1.176237 1.367028 -0.577350269 -0.577350269 -0.577350269 0.010667 0.58892
2.414105 0.030829 1.367028 -0.577350269 0.577350269 -0.577350269 0.938926 0.58892
2.412441 0.029165 1.367028 -0.577350269 0.577350269 -0.577350269 0.940275 0.58892
2.412441 0.030829 1.368692 -0.577350269 0.577350269 -0.577350269 0.938926 0.599463
2.142261 1.174573 1.367028 0.577350269 -0.577350269 -0.577350269 0.012015 0.010543
2.143925 1.176237 1.367028 0.577350269 -0.577350269 -0.577350269 0.010667 0.010543
2.143925 1.174573 1.368692 0.577350269 -0.577350269 -0.577350269 0.012015 0
2.143925 1.174573 1.349672 0 -0.707106781 0.707106781 0.012015 0.122696
2.412441 1.176237 1.351336 0 -0.707106781 0.707106781 0.010667 0.476767
2.143925 1.176237 1.351336 0 -0.707106781 0.707106781 0.010667 0.122696
2.143925 1.174573 1.349672 0 -0.707106781 0.707106781 0.012015 0.122696
2.412441 1.174573 1.349672 0 -0.707106781 0.707106781 0.012015 0.476767
2.412441 1.176237 1.351336 0 -0.707106781 0.707106781 0.010667 0.476767
2.142261 1.174573 1.351336 0.707106781 0 0.707106781 0.012015 0.109959
2.143925 0.03083 1.349672 0.707106781 0 0.707106781 0.938926 0.122696
2.143925 1.174573 1.349672 0.707106781 0 0.707106781 0.012015 0.122696
2.142261 1.174573 1.351336 0.707106781 0 0.707106781 0.012015 0.109959
2.142261 0.03083 1.351336 0.707106781 0 0.707106781 0.938926 0.109959
2.143925 0.03083 1.349672 0.707106781 0 0.707106781 0.938926 0.122696
2.412441 0.030829 1.349672 2.63338788e-06 0.707106781 0.707106781 0.938926 0.476767
2.143925 0.029166 1.351336 2.63338788e-06 0.707106781 0.707106781 0.940275 0.122696
2.412441 0.029165 1.351336 2.63338788e-06 0.707106781 0.707106781 0.940275 0.476767
2.412441 0.030829 1.349672 2.63338788e-06 0.707106781 0.707106781 0.938926 0.476767
2.143925 0.03083 1.349672 2.63338788e-06 0.707106781 0.707106781 0.938926 0.122696
2.143925 0.029166 1.351336 2.63338788e-06 0.707106781 0.707106781 0.940275 0.122696
2.414105 0.030829 1.351336 -0.707106781 0 0.707106781 0.938927 0.489504
2.412441 1.174573 1.349672 -0.707106781 0 0.707106781 0.012015 0.476767
2.412441 0.030829 1.349672 -0.707106781 0 0.707106781 0.938926 0.476767
2.414105 0.030829 1.351336 -0.707106781 0 0.707106781 0.938927 0.489504
2.414105 1.174573 1.351336 -0.707106781 0 0.707106781 0.012015 0.489504
2.412441 1.174573 1.349672 -0.707106781 0 0.707106781 0.012015 0.476767
2.412441 0.029165 1.351336 -0.707106781 0.707106781 0 0.995713 0.003282
2.414105 0.030829 1.367028 -0.707106781 0.707106781 0 0.955293 9.6e-05
2.414105 0.030829 1.351336 -0.707106781 0.707106781 0 0.995713 0.001
2.412441 0.029165 1.351336 -0.707106781 0.707106781 0 0.995713 0.003282
2.412441 0.029165 1.367028 -0.707106781 0.707106781 0 0.955292 0.002378
2.414105 0.030829 1.367028 -0.707106781 0.707106781 0 0.955293 9.6e-05
2.414105 1.174573 1.367028 -0.707106781 0 -0.707106781 0.012015 0.58892
2.412441 0.030829 1.368692 -0.707106781 0 -0.707106781 0.938926 0.601657
2.412441 1.174573 1.368692 -0.707106781 0 -0.707106781 0.012015 0.601657
2.414105 1.174573 1.367028 -0.707106781 -0 -0.707106781 0.012015 0.58892
2.414105 0.030829 1.367028 -0.707106781 -0 -0.707106781 0.938926 0.58892
2.412441 0.030829 1.368692 -0.707106781 -0 -0.707106781 0.938926 0.601657
2.414105 1.174573 1.351336 -0.707106781 -0.707106781 0 0.012015 0.489504
2.412441 1.176237 1.367028 -0.707106781 -0.707106781 0 0.010667 0.58892
2.412441 1.176237 1.351336 -0.707106781 -0.707106781 0 0.010667 0.489504
2.414105 1.174573 1.351336 -0.707106781 -0.707106781 0 0.012015 0.489504
2.414105 1.174573 1.367028 -0.707106781 -0.707106781 0 0.012015 0.58892
2.412441 1.176237 1.367028 -0.707106781 -0.707106781 0 0.010667 0.58892
2.142261 0.03083 1.351336 0.707106781 0.707106781 0 0.938926 0.109959
2.143925 0.029166 1.367028 0.707106781 0.707106781 0 0.940275 0.010543
2.143925 0.029166 1.351336 0.707106781 0.707106781 0 0.940275 0.109959
2.142261 0.03083 1.351336 0.707106781 0.707106781 -0 0.938926 0.109959
2.142261 0.03083 1.367028 0.707106781 0.707106781 -0 0.938926 0.010543
2.143925 0.029166 1.367028 0.707106781 0.707106781 -0 0.940275 0.010543
2.143925 0.03083 1.368692 2.63338788e-06 0.707106781 -0.707106781 0.938926 0.955728
2.412441 0.029165 1.367028 2.63338788e-06 0.707106781 -0.707106781 0.940275 0.601657
2.143925 0.029166 1.367028 2.63338788e-06 0.707106781 -0.707106781 0.940275 0.955728
2.143925 0.03083 1.368692 2.63338788e-06 0.707106781 -0.707106781 0.938926 0.955728
2.412441 0.030829 1.368692 2.63338788e-06 0.707106781 -0.707106781 0.938926 0.601657
2.412441 0.029165 1.367028 2.63338788e-06 0.707106781 -0.707106781 0.940275 0.601657
2.143925 1.176237 1.351336 0.707106781 -0.707106781 0 0.955199 0.742555
2.142261 1.174573 1.367028 0.707106781 -0.707106781 0 0.995348 0.745711
2.142261 1.174573 1.351336 0.707106781 -0.707106781 0 0.955199 0.744825
2.143925 1.176237 1.351336 0.707106781 -0.707106781 0 0.955199 0.742555
2.143925 1.176237 1.367028 0.707106781 -0.707106781 0 0.995348 0.743441
2.142261 1.174573 1.367028 0.707106781 -0.707106781 0 0.995348 0.745711
2.142261 0.03083 1.367028 0.707106781 0 -0.707106781 0.938926 0.010543
2.143925 1.174573 1.368692 0.707106781 0 -0.707106781 0.012015 0
2.143925 0.03083 1.368692 0.707106781 0 -0.707106781 0.938926 0
2.142261 0.03083 1.367028 0.707106781 0 -0.707106781 0.938926 0.010543
2.142261 1.174573 1.367028 0.707106781 0 -0.707106781 0.012015 0.010543
2.143925 1.174573 1.368692 0.707106781 0 -0.707106781 0.012015 0
2.412441 1.174573 1.368692 0 -0.707106781 -0.707106781 0.012015 0.601657
2.143925 1.176237 1.367028 0 -0.707106781 -0.707106781 0.010667 0.955727
2.412441 1.176237 1.367028 0 -0.707106781 -0.707106781 0.010667 0.601657
2.412441 1.174573 1.368692 -0 -0.707106781 -0.707106781 0.012015 0.601657
2.143925 1.174573 1.368692 -0 -0.707106781 -0.707106781 0.012015 0.955727
2.143925 1.176237 1.367028 -0 -0.707106781 -0.707106781 0.010667 0.955727
2.143925 1.176237 1.351336 0 -1 0 0.955199 0.742555
2.412441 1.176237 1.367028 0 -1 0 0.995348 0.377176
2.143925 1.176237 1.367028 0 -1 0 0.995348 0.743441
2.143925 1.176237 1.351336 0 -1 0 0.955199 0.742555
2.412441 1.176237 1.351336 0 -1 0 0.955199 0.37629
2.412441 1.176237 1.367028 0 -1 0 0.995348 0.377176
3 0 1 2
3 3 4 5
3 6 7 8
3 9 10 11
3 12 13 14
3 15 16 17
3 18 19 20
3 21 22 23
3 24 25 26
3 27 28 29
3 30 31 32
3 33 34 35
3 36 37 38
3 39 40 41
3 42 43 44
3 45 46 47
3 48 49 50
3 51 52 53
3 54 55 56
3 57 58 59
3 60 61 62
3 63 64 65
3 66 67 68
3 69 70 71
3 72 73 74
3 75 76 77
3 78 79 80
3 81 82 83
3 84 85 86
3 87 88 89
3 90 91 92
3 93 94 95
3 96 97 98
3 99 100 101
3 102 103 104
3 105 106 107
3 108 109 110
3 111 112 113
3 114 115 116
3 117 118 119
3 120 121 122
3 123 124 125
3 126 127 128
3 129 130 131
3 132 133 134
3 135 136 137
3 138 139 140
3 141 142 143
3 144 145 146
3 147 148 149
3 150 151 152
3 153 154 155
3 156 157 158
3 159 160 161
3 162 163 164
3 165 166 167
3 168 169 170
3 171 172 173
3 174 175 176
3 177 178 179
3 180 181 182
3 183 184 185
3 186 187 188
3 189 190 191
3 192 193 194
3 195 196 197
3 198 199 200
3 201 202 203
3 204 205 206
3 207 208 209
3 210 211 212
3 213 214 215
3 216 217 218
3 219 220 221
3 222 223 224
3 225 226 227
3 228 229 230
3 231 232 233
3 234 235 236
3 237 238 239
3 240 241 242
3 243 244 245
3 246 247 248
3 249 250 251
3 252 253 254
3 255 256 257
3 258 259 260
3 261 262 263
