ply
format ascii 1.0
element vertex 132
property float x
property float y
property float z
property float nx
property float ny
property float nz
property float u
property float v
element face 44
property list uchar int vertex_indices
end_header
2.109456 1.177766 1.344082 1 0 0 0.938322 0.113704
2.109456 1.203938 2.132951 1 0 0 0.012619 0.006798
2.109456 1.177766 2.132951 1 0 0 0.012619 0.113704
2.109456 1.177766 1.344082 1 0 0 0.938322 0.113704
2.109456 1.203938 1.344082 1 0 0 0.938322 0.006798
2.109456 1.203938 2.132951 1 0 0 0.012619 0.006798
2.416684 1.205602 1.344082 0 -1 0 0.938322 0.601394
2.11112 1.205602 2.132951 0 -1 0 0.012619 0.955991
2.11112 1.205602 1.344082 0 -1 0 0.938322 0.955991
2.416684 1.205602 1.344082 0 -1 0 0.938322 0.601394
2.416684 1.205602 2.132951 0 -1 0 0.012619 0.601394
2.11112 1.205602 2.132951 0 -1 0 0.012619 0.955991
2.418348 1.177766 2.132951 -1 0 0 0.012619 0.485758
2.418348 1.203937 1.344082 -1 0 0 0.938322 0.592665
2.418348 1.177766 1.344082 -1 0 0 0.938322 0.485759
2.418348 1.177766 2.132951 -1 0 0 0.012619 0.485758
2.418348 1.203937 2.132951 -1 0 0 0.012619 0.592665
2.418348 1.203937 1.344082 -1 0 0 0.938322 0.592665
2.416684 1.177766 1.342418 0 0 1 0.997236 0.003043
2.11112 1.203938 1.342418 0 0 1 0.953763 0.370884
2.11112 1.177766 1.342418 0 0 1 0.997115 0.371856
2.416684 1.177766 1.342418 0 -0 1 0.997236 0.003043
2.416684 1.203937 1.342418 0 -0 1 0.95377 0.00207
2.11112 1.203938 1.342418 0 -0 1 0.953763 0.370884
2.11112 1.176102 2.132951 0 1 0 0.012619 0.122433
2.416684 1.176102 1.344082 0 1 0 0.938322 0.47703
2.11112 1.176102 1.344082 0 1 0 0.938322 0.122433
2.11112 1.176102 2.132951 -0 1 0 0.012619 0.122433
2.416684 1.176102 2.132951 -0 1 0 0.012619 0.47703
2.416684 1.176102 1.344082 -0 1 0 0.938322 0.47703
2.11112 1.176102 2.132951 0.577350269 0.577350269 -0.577350269 0.012619 0.122433
2.109456 1.177766 2.132951 0.577350269 0.577350269 -0.577350269 0.012619 0.120502
2.11112 1.177766 2.134615 0.577350269 0.577350269 -0.577350269 0.010667 0.122433
2.416684 1.176102 1.344082 -0.577350269 0.577350269 0.577350269 0.938322 0.47703
2.418348 1.177766 1.344082 -0.577350269 0.577350269 0.577350269 0.938322 0.478961
2.416684 1.177766 1.342418 -0.577350269 0.577350269 0.577350269 0.940275 0.47703
2.418348 1.177766 2.132951 -0.577350269 0.577350269 -0.577350269 0.012619 0.485758
2.416684 1.176102 2.132951 -0.577350269 0.577350269 -0.577350269 0.012619 0.478961
2.416684 1.177766 2.134615 -0.577350269 0.577350269 -0.577350269 0.010667 0.485758
2.11112 1.176102 1.344082 0.577350269 0.577350269 0.577350269 0.938322 0.122433
2.11112 1.177766 1.342418 0.577350269 0.577350269 0.577350269 0.940275 0.122433
2.109456 1.177766 1.344082 0.577350269 0.577350269 0.577350269 0.938322 0.120502
2.11112 1.203938 1.342418 0.577350269 -0.577350269 0.577350269 0.953763 0.370884
2.11112 1.205602 1.344082 0.577350269 -0.577350269 0.577350269 0.951006 0.370822
2.109456 1.203938 1.344082 0.577350269 -0.577350269 0.577350269 0.953763 0.372892
2.418348 1.203937 2.132951 -0.577465855 -0.577119028 -0.577465855 0.012619 0.592665
2.416684 1.203937 2.134615 -0.577465855 -0.577119028 -0.577465855 0.010667 0.592665
2.416684 1.205602 2.132951 -0.577465855 -0.577119028 -0.577465855 0.012619 0.599463
2.418348 1.203937 1.344082 -0.577465855 -0.577119028 0.577465855 0.938322 0.592665
2.416684 1.205602 1.344082 -0.577465855 -0.577119028 0.577465855 0.938322 0.599463
2.416684 1.203937 1.342418 -0.577465855 -0.577119028 0.577465855 0.940275 0.592665
2.109456 1.203938 2.132951 0.577350269 -0.577350269 -0.577350269 0.012619 0.006798
2.11112 1.205602 2.132951 0.577350269 -0.577350269 -0.577350269 0.012619 0
2.11112 1.203938 2.134615 0.577350269 -0.577350269 -0.577350269 0.010667 0.006798
2.11112 1.176102 2.132951 0 0.707106781 -0.707106781 0.012619 0.122433
2.416684 1.177766 2.134615 0 0.707106781 -0.707106781 0.010667 0.47703
2.416684 1.176102 2.132951 0 0.707106781 -0.707106781 0.012619 0.47703
2.11112 1.176102 2.132951 0 0.707106781 -0.707106781 0.012619 0.122433
2.11112 1.177766 2.134615 0 0.707106781 -0.707106781 0.010667 0.122433
2.416684 1.177766 2.134615 0 0.707106781 -0.707106781 0.010667 0.47703
2.109456 1.177766 2.132951 0.707106781 0.707106781 0 0.012619 0.113704
2.11112 1.176102 1.344082 0.707106781 0.707106781 0 0.938322 0.122433
2.109456 1.177766 1.344082 0.707106781 0.707106781 0 0.938322 0.113704
2.109456 1.177766 2.132951 0.707106781 0.707106781 0 0.012619 0.113704
2.11112 1.176102 2.132951 0.707106781 0.707106781 0 0.012619 0.122433
2.11112 1.176102 1.344082 0.707106781 0.707106781 0 0.938322 0.122433
2.416684 1.176102 1.344082 0 0.707106781 0.707106781 0.938322 0.47703
2.11112 1.177766 1.342418 0 0.707106781 0.707106781 0.940275 0.122433
2.11112 1.176102 1.344082 0 0.707106781 0.707106781 0.938322 0.122433
2.416684 1.176102 1.344082 0 0.707106781 0.707106781 0.938322 0.47703
2.416684 1.177766 1.342418 0 0.707106781 0.707106781 0.940275 0.47703
2.11112 1.177766 1.342418 0 0.707106781 0.707106781 0.940275 0.122433
2.418348 1.177766 1.344082 -0.707106781 0.707106781 0 0.938322 0.485759
2.416684 1.176102 2.132951 -0.707106781 0.707106781 0 0.012619 0.47703
2.418348 1.177766 2.132951 -0.707106781 0.707106781 0 0.012619 0.485758
2.418348 1.177766 1.344082 -0.707106781 0.707106781 0 0.938322 0.485759
2.416684 1.176102 1.344082 -0.707106781 0.707106781 0 0.938322 0.47703
2.416684 1.176102 2.132951 -0.707106781 0.707106781 0 0.012619 0.47703
2.416684 1.177766 1.342418 -0.707106781 0 0.707106781 0.997236 0.003043
2.418348 1.203937 1.344082 -0.707106781 0 0.707106781 0.95377 6.2e-05
2.416684 1.203937 1.342418 -0.707106781 0 0.707106781 0.95377 0.00207
2.416684 1.177766 1.342418 -0.707106781 0 0.707106781 0.997236 0.003043
2.418348 1.177766 1.344082 -0.707106781 0 0.707106781 0.997236 0.001034
2.418348 1.203937 1.344082 -0.707106781 0 0.707106781 0.95377 6.2e-05
2.418348 1.203937 2.132951 -0.707319157 -0.706894341 -0 0.012619 0.592665
2.416684 1.205602 1.344082 -0.707319157 -0.706894341 -0 0.938322 0.601394
2.418348 1.203937 1.344082 -0.707319157 -0.706894341 -0 0.938322 0.592665
2.418348 1.203937 2.132951 -0.707319157 -0.706894341 0 0.012619 0.592665
2.416684 1.205602 2.132951 -0.707319157 -0.706894341 0 0.012619 0.601394
2.416684 1.205602 1.344082 -0.707319157 -0.706894341 0 0.938322 0.601394
2.418348 1.177766 2.132951 -0.707106781 0 -0.707106781 0.012619 0.485758
2.416684 1.203937 2.134615 -0.707106781 0 -0.707106781 0.010667 0.592665
2.418348 1.203937 2.132951 -0.707106781 0 -0.707106781 0.012619 0.592665
2.418348 1.177766 2.132951 -0.707106781 0 -0.707106781 0.012619 0.485758
2.416684 1.177766 2.134615 -0.707106781 0 -0.707106781 0.010667 0.485758
2.416684 1.203937 2.134615 -0.707106781 0 -0.707106781 0.010667 0.592665
2.109456 1.177766 1.344082 0.707106781 -0 0.707106781 0.938322 0.113704
2.11112 1.203938 1.342418 0.707106781 -0 0.707106781 0.940275 0.006798
2.109456 1.203938 1.344082 0.707106781 -0 0.707106781 0.938322 0.006798
2.109456 1.177766 1.344082 0.707106781 0 0.707106781 0.938322 0.113704
2.11112 1.177766 1.342418 0.707106781 0 0.707106781 0.940275 0.113704
2.11112 1.203938 1.342418 0.707106781 0 0.707106781 0.940275 0.006798
2.11112 1.205602 1.344082 0 -0.706894341 0.707319157 0.938322 0.955991
2.416684 1.203937 1.342418 0 -0.706894341 0.707319157 0.940275 0.601394
2.416684 1.205602 1.344082 0 -0.706894341 0.707319157 0.938322 0.601394
2.11112 1.205602 1.344082 -2.31410369e-06 -0.707106781 0.707106781 0.938322 0.955991
2.11112 1.203938 1.342418 -2.31410369e-06 -0.707106781 0.707106781 0.940275 0.955991
2.416684 1.203937 1.342418 -2.31410369e-06 -0.707106781 0.707106781 0.940275 0.601394
2.11112 1.177766 2.134615 0.707106781 0 -0.707106781 0.953687 0.742794
2.109456 1.203938 2.132951 0.707106781 0 -0.707106781 0.996861 0.745744
2.11112 1.203938 2.134615 0.707106781 0 -0.707106781 0.996861 0.743747
2.11112 1.177766 2.134615 0.707106781 0 -0.707106781 0.953687 0.742794
2.109456 1.177766 2.132951 0.707106781 0 -0.707106781 0.953687 0.744792
2.109456 1.203938 2.132951 0.707106781 0 -0.707106781 0.996861 0.745744
2.109456 1.203938 1.344082 0.707106781 -0.707106781 0 0.938322 0.006798
2.11112 1.205602 2.132951 0.707106781 -0.707106781 0 0.012619 0
2.109456 1.203938 2.132951 0.707106781 -0.707106781 0 0.012619 0.006798
2.109456 1.203938 1.344082 0.707106781 -0.707106781 0 0.938322 0.006798
2.11112 1.205602 1.344082 0.707106781 -0.707106781 0 0.938322 0
2.11112 1.205602 2.132951 0.707106781 -0.707106781 0 0.012619 0
2.416684 1.205602 2.132951 -0 -0.707106781 -0.707106781 0.012619 0.601394
2.11112 1.203938 2.134615 -0 -0.707106781 -0.707106781 0.010667 0.95599
2.11112 1.205602 2.132951 -0 -0.707106781 -0.707106781 0.012619 0.955991
2.416684 1.205602 2.132951 -2.31340845e-06 -0.706894341 -0.707319157 0.012619 0.601394
2.416684 1.203937 2.134615 -2.31340845e-06 -0.706894341 -0.707319157 0.010667 0.601394
2.11112 1.203938 2.134615 -2.31340845e-06 -0.706894341 -0.707319157 0.010667 0.95599
2.11112 1.177766 2.134615 0 0 -1 0.953687 0.742794
2.416684 1.203937 2.134615 0 0 -1 0.996861 0.376937
2.416684 1.177766 2.134615 0 0 -1 0.953687 0.375985
2.11112 1.177766 2.134615 0 0 -1 0.953687 0.742794
2.11112 1.203938 2.134615 0 0 -1 0.996861 0.743747
2.416684 1.203937 2.134615 0 0 -1 0.996861 0.376937
3 0 1 2
3 3 4 5
3 6 7 8
3 9 10 11
3 12 13 14
3 15 16 17
3 18 19 20
3 21 22 23
3 24 25 26
3 27 28 29
3 30 31 32
3 33 34 35
3 36 37 38
3 39 40 41
3 42 43 44
3 45 46 47
3 48 49 50
3 51 52 53
3 54 55 56
3 57 58 59
3 60 61 62
3 63 64 65
3 66 67 68
3 69 70 71
3 72 73 74
3 75 76 77
3 78 79 80
3 81 82 83
3 84 85 86
3 87 88 89
3 90 91 92
3 93 94 95
3 96 97 98
3 99 100 101
3 102 103 104
3 105 106 107
3 108 109 110
3 111 112 113
3 114 115 116
3 117 118 119
3 120 121 122
3 123 124 125
3 126 127 128
3 129 130 131
