ply
format ascii 1.0
element vertex 264
property float x
property float y
property float z
property float nx
property float ny
property float nz
property float u
property float v
element face 88
property list uchar int vertex_indices
end_header
2.123082 1.172897 1.74111 0 -1 0 0.936289 0.109658
2.138246 1.172897 2.125925 0 -1 0 0.014652 0.010844
2.123082 1.172897 2.125925 0 -1 0 0.014652 0.109658
2.123082 1.172897 1.74111 0 -1 0 0.936289 0.109658
2.138246 1.172897 1.74111 0 -1 0 0.936289 0.010844
2.138246 1.172897 2.125925 0 -1 0 0.014652 0.010844
2.13991 0.958068 1.74111 -1 0 0 0.936289 0.602218
2.13991 1.171233 2.125925 -1 0 0 0.014652 0.955166
2.13991 1.171233 1.74111 -1 0 0 0.936289 0.955167
2.13991 0.958068 1.74111 -1 0 0 0.936289 0.602218
2.13991 0.958068 2.125925 -1 0 0 0.014652 0.602218
2.13991 1.171233 2.125925 -1 0 0 0.014652 0.955166
2.123082 0.956404 2.125925 0 1 0 0.014652 0.489805
2.138246 0.956404 1.74111 0 1 0 0.936289 0.588619
2.123082 0.956404 1.74111 0 1 0 0.936289 0.489805
2.123082 0.956404 2.125925 -0 1 0 0.014652 0.489805
2.138246 0.956404 2.125925 -0 1 0 0.014652 0.588619
2.138246 0.956404 1.74111 -0 1 0 0.936289 0.588619
2.123082 0.958068 1.739446 0 0 1 0.99559 0.003863
2.138246 1.171233 1.739446 0 0 1 0.955404 0.370063
2.123082 1.171233 1.739446 0 0 1 0.995475 0.370962
2.123082 0.958068 1.739446 0 0 1 0.99559 0.003863
2.138246 0.958068 1.739446 0 0 1 0.955415 0.002964
2.138246 1.171233 1.739446 0 0 1 0.955404 0.370063
2.121418 1.171233 2.125925 1 0 0 0.014652 0.123257
2.121418 0.958068 1.74111 1 0 0 0.936289 0.476206
2.121418 1.171233 1.74111 1 0 0 0.936289 0.123257
2.121418 1.171233 2.125925 1 0 0 0.014652 0.123257
2.121418 0.958068 2.125925 1 0 0 0.014652 0.476206
2.121418 0.958068 1.74111 1 0 0 0.936289 0.476206
2.121418 1.171233 2.125925 0.577350269 -0.577350269 -0.577350269 0.014652 0.123257
2.123082 1.172897 2.125925 0.577350269 -0.577350269 -0.577350269 0.014652 0.120502
2.123082 1.171233 2.127589 0.577350269 -0.577350269 -0.577350269 0.010667 0.123257
2.121418 0.958068 1.74111 0.577350269 0.577350269 0.577350269 0.936289 0.476206
2.123082 0.956404 1.74111 0.577350269 0.577350269 0.577350269 0.936289 0.478961
2.123082 0.958068 1.739446 0.577350269 0.577350269 0.577350269 0.940275 0.476206
2.123082 0.956404 2.125925 0.577350269 0.577350269 -0.577350269 0.014652 0.489805
2.121418 0.958068 2.125925 0.577350269 0.577350269 -0.577350269 0.014652 0.478961
2.123082 0.958068 2.127589 0.577350269 0.577350269 -0.577350269 0.010667 0.489805
2.121418 1.171233 1.74111 0.577350269 -0.577350269 0.577350269 0.936289 0.123257
2.123082 1.171233 1.739446 0.577350269 -0.577350269 0.577350269 0.940275 0.123257
2.123082 1.172897 1.74111 0.577350269 -0.577350269 0.577350269 0.936289 0.120502
2.138246 1.171233 1.739446 -0.577350269 -0.577350269 0.577350269 0.955404 0.370063
2.13991 1.171233 1.74111 -0.577350269 -0.577350269 0.577350269 0.951006 0.369965
2.138246 1.172897 1.74111 -0.577350269 -0.577350269 0.577350269 0.955404 0.372929
2.138246 0.956404 2.125925 -0.577350269 0.577350269 -0.577350269 0.014652 0.588619
2.138246 0.958068 2.127589 -0.577350269 0.577350269 -0.577350269 0.010667 0.588619
2.13991 0.958068 2.125925 -0.577350269 0.577350269 -0.577350269 0.014652 0.599463
2.138246 0.956404 1.74111 -0.577350269 0.577350269 0.577350269 0.936289 0.588619
2.13991 0.958068 1.74111 -0.577350269 0.577350269 0.577350269 0.936289 0.599463
2.138246 0.958068 1.739446 -0.577350269 0.577350269 0.577350269 0.940275 0.588619
2.138246 1.172897 2.125925 -0.577350269 -0.577350269 -0.577350269 0.014652 0.010844
2.13991 1.171233 2.125925 -0.577350269 -0.577350269 -0.577350269 0.014652 0
2.138246 1.171233 2.127589 -0.577350269 -0.577350269 -0.577350269 0.010667 0.010844
2.121418 1.171233 2.125925 0.707106781 0 -0.707106781 0.014652 0.123257
2.123082 0.958068 2.127589 0.707106781 0 -0.707106781 0.010667 0.476206
2.121418 0.958068 2.125925 0.707106781 0 -0.707106781 0.014652 0.476206
2.121418 1.171233 2.125925 0.707106781 0 -0.707106781 0.014652 0.123257
2.123082 1.171233 2.127589 0.707106781 0 -0.707106781 0.010667 0.123257
2.123082 0.958068 2.127589 0.707106781 0 -0.707106781 0.010667 0.476206
2.123082 1.172897 2.125925 0.707106781 -0.707106781 0 0.014652 0.109658
2.121418 1.171233 1.74111 0.707106781 -0.707106781 0 0.936289 0.123257
2.123082 1.172897 1.74111 0.707106781 -0.707106781 0 0.936289 0.109658
2.123082 1.172897 2.125925 0.707106781 -0.707106781 0 0.014652 0.109658
2.121418 1.171233 2.125925 0.707106781 -0.707106781 0 0.014652 0.123257
2.121418 1.171233 1.74111 0.707106781 -0.707106781 0 0.936289 0.123257
2.121418 0.958068 1.74111 0.707106781 -0 0.707106781 0.936289 0.476206
2.123082 1.171233 1.739446 0.707106781 -0 0.707106781 0.940275 0.123257
2.121418 1.171233 1.74111 0.707106781 -0 0.707106781 0.936289 0.123257
2.121418 0.958068 1.74111 0.707106781 0 0.707106781 0.936289 0.476206
2.123082 0.958068 1.739446 0.707106781 0 0.707106781 0.940275 0.476206
2.123082 1.171233 1.739446 0.707106781 0 0.707106781 0.940275 0.123257
2.123082 0.956404 1.74111 0.707106781 0.707106781 -0 0.936289 0.489805
2.121418 0.958068 2.125925 0.707106781 0.707106781 -0 0.014652 0.476206
2.123082 0.956404 2.125925 0.707106781 0.707106781 -0 0.014652 0.489805
2.123082 0.956404 1.74111 0.707106781 0.707106781 0 0.936289 0.489805
2.121418 0.958068 1.74111 0.707106781 0.707106781 0 0.936289 0.476206
2.121418 0.958068 2.125925 0.707106781 0.707106781 0 0.014652 0.476206
2.123082 0.958068 1.739446 -0 0.707106781 0.707106781 0.99559 0.003863
2.138246 0.956404 1.74111 -0 0.707106781 0.707106781 0.955415 9.9e-05
2.138246 0.958068 1.739446 -0 0.707106781 0.707106781 0.955415 0.002964
2.123082 0.958068 1.739446 0 0.707106781 0.707106781 0.99559 0.003863
2.123082 0.956404 1.74111 0 0.707106781 0.707106781 0.995591 0.000997
2.138246 0.956404 1.74111 0 0.707106781 0.707106781 0.955415 9.9e-05
2.138246 0.956404 2.125925 -0.707106781 0.707106781 0 0.014652 0.588619
2.13991 0.958068 1.74111 -0.707106781 0.707106781 0 0.936289 0.602218
2.138246 0.956404 1.74111 -0.707106781 0.707106781 0 0.936289 0.588619
2.138246 0.956404 2.125925 -0.707106781 0.707106781 0 0.014652 0.588619
2.13991 0.958068 2.125925 -0.707106781 0.707106781 0 0.014652 0.602218
2.13991 0.958068 1.74111 -0.707106781 0.707106781 0 0.936289 0.602218
2.123082 0.956404 2.125925 0 0.707106781 -0.707106781 0.014652 0.489805
2.138246 0.958068 2.127589 0 0.707106781 -0.707106781 0.010667 0.588619
2.138246 0.956404 2.125925 0 0.707106781 -0.707106781 0.014652 0.588619
2.123082 0.956404 2.125925 0 0.707106781 -0.707106781 0.014652 0.489805
2.123082 0.958068 2.127589 0 0.707106781 -0.707106781 0.010667 0.489805
2.138246 0.958068 2.127589 0 0.707106781 -0.707106781 0.010667 0.588619
2.123082 1.172897 1.74111 0 -0.707106781 0.707106781 0.936289 0.109658
2.138246 1.171233 1.739446 0 -0.707106781 0.707106781 0.940275 0.010844
2.138246 1.172897 1.74111 0 -0.707106781 0.707106781 0.936289 0.010844
2.123082 1.172897 1.74111 0 -0.707106781 0.707106781 0.936289 0.109658
2.123082 1.171233 1.739446 0 -0.707106781 0.707106781 0.940275 0.109658
2.138246 1.171233 1.739446 0 -0.707106781 0.707106781 0.940275 0.010844
2.13991 1.171233 1.74111 -0.707106781 0 0.707106781 0.936289 0.955167
2.138246 0.958068 1.739446 -0.707106781 0 0.707106781 0.940275 0.602218
2.13991 0.958068 1.74111 -0.707106781 0 0.707106781 0.936289 0.602218
2.13991 1.171233 1.74111 -0.707106781 0 0.707106781 0.936289 0.955167
2.138246 1.171233 1.739446 -0.707106781 0 0.707106781 0.940275 0.955167
2.138246 0.958068 1.739446 -0.707106781 0 0.707106781 0.940275 0.602218
2.123082 1.171233 2.127589 0 -0.707106781 -0.707106781 0.955321 0.741978
2.138246 1.172897 2.125925 0 -0.707106781 -0.707106781 0.995226 0.745708
2.138246 1.171233 2.127589 0 -0.707106781 -0.707106781 0.995226 0.742858
2.123082 1.171233 2.127589 0 -0.707106781 -0.707106781 0.955321 0.741978
2.123082 1.172897 2.125925 0 -0.707106781 -0.707106781 0.955321 0.744828
2.138246 1.172897 2.125925 0 -0.707106781 -0.707106781 0.995226 0.745708
2.138246 1.172897 1.74111 -0.707106781 -0.707106781 0 0.936289 0.010844
2.13991 1.171233 2.125925 -0.707106781 -0.707106781 0 0.014652 0
2.138246 1.172897 2.125925 -0.707106781 -0.707106781 0 0.014652 0.010844
2.138246 1.172897 1.74111 -0.707106781 -0.707106781 0 0.936289 0.010844
2.13991 1.171233 1.74111 -0.707106781 -0.707106781 0 0.936289 0
2.13991 1.171233 2.125925 -0.707106781 -0.707106781 0 0.014652 0
2.13991 0.958068 2.125925 -0.707106781 0 -0.707106781 0.014652 0.602218
2.138246 1.171233 2.127589 -0.707106781 0 -0.707106781 0.010667 0.955166
2.13991 1.171233 2.125925 -0.707106781 0 -0.707106781 0.014652 0.955166
2.13991 0.958068 2.125925 -0.707106781 0 -0.707106781 0.014652 0.602218
2.138246 0.958068 2.127589 -0.707106781 0 -0.707106781 0.010667 0.602218
2.138246 1.171233 2.127589 -0.707106781 0 -0.707106781 0.010667 0.955166
2.123082 1.171233 2.127589 0 0 -1 0.955321 0.741978
2.138246 0.958068 2.127589 0 0 -1 0.995227 0.377754
2.123082 0.958068 2.127589 0 0 -1 0.955321 0.376873
2.123082 1.171233 2.127589 0 0 -1 0.955321 0.741978
2.138246 1.171233 2.127589 0 0 -1 0.995226 0.742858
2.138246 0.958068 2.127589 0 0 -1 0.995227 0.377754
2.123082 1.172897 1.735923 0 -1 0 0.936289 0.109658
2.138246 1.172897 1.351108 0 -1 0 0.014652 0.010844
2.138246 1.172897 1.735923 0 -1 0 0.936289 0.010844
2.123082 1.172897 1.735923 0 -1 0 0.936289 0.109658
2.123082 1.172897 1.351108 0 -1 0 0.014652 0.109658
2.138246 1.172897 1.351108 0 -1 0 0.014652 0.010844
2.13991 0.958068 1.735923 -1 0 0 0.936289 0.602218
2.13991 1.171233 1.351108 -1 0 0 0.014652 0.955166
2.13991 0.958068 1.351108 -1 0 0 0.014652 0.602218
2.13991 0.958068 1.735923 -1 0 0 0.936289 0.602218
2.13991 1.171233 1.735923 -1 0 0 0.936289 0.955167
2.13991 1.171233 1.351108 -1 0 0 0.014652 0.955166
2.123082 0.956404 1.351108 0 1 0 0.014652 0.489805
2.138246 0.956404 1.735923 0 1 0 0.936289 0.588619
2.138246 0.956404 1.351108 0 1 0 0.014652 0.588619
2.123082 0.956404 1.351108 0 1 0 0.014652 0.489805
2.123082 0.956404 1.735923 0 1 0 0.936289 0.489805
2.138246 0.956404 1.735923 0 1 0 0.936289 0.588619
2.123082 0.958068 1.737587 0 0 -1 0.99559 0.003863
2.138246 1.171233 1.737587 0 0 -1 0.955404 0.370063
2.138246 0.958068 1.737587 0 0 -1 0.955415 0.002964
2.123082 0.958068 1.737587 0 0 -1 0.99559 0.003863
2.123082 1.171233 1.737587 0 0 -1 0.995475 0.370962
2.138246 1.171233 1.737587 0 0 -1 0.955404 0.370063
2.121418 1.171233 1.351108 1 0 0 0.014652 0.123257
2.121418 0.958068 1.735923 1 0 0 0.936289 0.476206
2.121418 0.958068 1.351108 1 0 0 0.014652 0.476206
2.121418 1.171233 1.351108 1 0 -0 0.014652 0.123257
2.121418 1.171233 1.735923 1 0 -0 0.936289 0.123257
2.121418 0.958068 1.735923 1 0 -0 0.936289 0.476206
2.121418 1.171233 1.351108 0.577350269 -0.577350269 0.577350269 0.014652 0.123257
2.123082 1.171233 1.349444 0.577350269 -0.577350269 0.577350269 0.010667 0.123257
2.123082 1.172897 1.351108 0.577350269 -0.577350269 0.577350269 0.014652 0.120502
2.121418 0.958068 1.735923 0.577350269 0.577350269 -0.577350269 0.936289 0.476206
2.123082 0.958068 1.737587 0.577350269 0.577350269 -0.577350269 0.940275 0.476206
2.123082 0.956404 1.735923 0.577350269 0.577350269 -0.577350269 0.936289 0.478961
2.123082 0.956404 1.351108 0.577350269 0.577350269 0.577350269 0.014652 0.489805
2.123082 0.958068 1.349444 0.577350269 0.577350269 0.577350269 0.010667 0.489805
2.121418 0.958068 1.351108 0.577350269 0.577350269 0.577350269 0.014652 0.478961
2.121418 1.171233 1.735923 0.577350269 -0.577350269 -0.577350269 0.936289 0.123257
2.123082 1.172897 1.735923 0.577350269 -0.577350269 -0.577350269 0.936289 0.120502
2.123082 1.171233 1.737587 0.577350269 -0.577350269 -0.577350269 0.940275 0.123257
2.138246 1.171233 1.737587 -0.577350269 -0.577350269 -0.577350269 0.955404 0.370063
2.138246 1.172897 1.735923 -0.577350269 -0.577350269 -0.577350269 0.955404 0.372929
2.13991 1.171233 1.735923 -0.577350269 -0.577350269 -0.577350269 0.951006 0.369965
2.138246 0.956404 1.351108 -0.577350269 0.577350269 0.577350269 0.014652 0.588619
2.13991 0.958068 1.351108 -0.577350269 0.577350269 0.577350269 0.014652 0.599463
2.138246 0.958068 1.349444 -0.577350269 0.577350269 0.577350269 0.010667 0.588619
2.138246 0.956404 1.735923 -0.577350269 0.577350269 -0.577350269 0.936289 0.588619
2.138246 0.958068 1.737587 -0.577350269 0.577350269 -0.577350269 0.940275 0.588619
2.13991 0.958068 1.735923 -0.577350269 0.577350269 -0.577350269 0.936289 0.599463
2.138246 1.172897 1.351108 -0.577350269 -0.577350269 0.577350269 0.014652 0.010844
2.138246 1.171233 1.349444 -0.577350269 -0.577350269 0.577350269 0.010667 0.010844
2.13991 1.171233 1.351108 -0.577350269 -0.577350269 0.577350269 0.014652 0
2.121418 1.171233 1.351108 0.707106781 0 0.707106781 0.014652 0.123257
2.123082 0.958068 1.349444 0.707106781 0 0.707106781 0.010667 0.476206
2.123082 1.171233 1.349444 0.707106781 0 0.707106781 0.010667 0.123257
2.121418 1.171233 1.351108 0.707106781 0 0.707106781 0.014652 0.123257
2.121418 0.958068 1.351108 0.707106781 0 0.707106781 0.014652 0.476206
2.123082 0.958068 1.349444 0.707106781 0 0.707106781 0.010667 0.476206
2.123082 1.172897 1.351108 0.707106781 -0.707106781 0 0.014652 0.109658
2.121418 1.171233 1.735923 0.707106781 -0.707106781 0 0.936289 0.123257
2.121418 1.171233 1.351108 0.707106781 -0.707106781 0 0.014652 0.123257
2.123082 1.172897 1.351108 0.707106781 -0.707106781 0 0.014652 0.109658
2.123082 1.172897 1.735923 0.707106781 -0.707106781 0 0.936289 0.109658
2.121418 1.171233 1.735923 0.707106781 -0.707106781 0 0.936289 0.123257
2.121418 0.958068 1.735923 0.707106781 0 -0.707106781 0.936289 0.476206
2.123082 1.171233 1.737587 0.707106781 0 -0.707106781 0.940275 0.123257
2.123082 0.958068 1.737587 0.707106781 0 -0.707106781 0.940275 0.476206
2.121418 0.958068 1.735923 0.707106781 0 -0.707106781 0.936289 0.476206
2.121418 1.171233 1.735923 0.707106781 0 -0.707106781 0.936289 0.123257
2.123082 1.171233 1.737587 0.707106781 0 -0.707106781 0.940275 0.123257
2.123082 0.956404 1.735923 0.707106781 0.707106781 0 0.936289 0.489805
2.121418 0.958068 1.351108 0.707106781 0.707106781 0 0.014652 0.476206
2.121418 0.958068 1.735923 0.707106781 0.707106781 0 0.936289 0.476206
2.123082 0.956404 1.735923 0.707106781 0.707106781 0 0.936289 0.489805
2.123082 0.956404 1.351108 0.707106781 0.707106781 0 0.014652 0.489805
2.121418 0.958068 1.351108 0.707106781 0.707106781 0 0.014652 0.476206
2.123082 0.958068 1.737587 0 0.707106781 -0.707106781 0.99559 0.003863
2.138246 0.956404 1.735923 0 0.707106781 -0.707106781 0.955415 9.9e-05
2.123082 0.956404 1.735923 0 0.707106781 -0.707106781 0.995591 0.000997
2.123082 0.958068 1.737587 0 0.707106781 -0.707106781 0.99559 0.003863
2.138246 0.958068 1.737587 0 0.707106781 -0.707106781 0.955415 0.002964
2.138246 0.956404 1.735923 0 0.707106781 -0.707106781 0.955415 9.9e-05
2.138246 0.956404 1.351108 -0.707106781 0.707106781 0 0.014652 0.588619
2.13991 0.958068 1.735923 -0.707106781 0.707106781 0 0.936289 0.602218
2.13991 0.958068 1.351108 -0.707106781 0.707106781 0 0.014652 0.602218
2.138246 0.956404 1.351108 -0.707106781 0.707106781 0 0.014652 0.588619
2.138246 0.956404 1.735923 -0.707106781 0.707106781 0 0.936289 0.588619
2.13991 0.958068 1.735923 -0.707106781 0.707106781 0 0.936289 0.602218
2.123082 0.956404 1.351108 0 0.707106781 0.707106781 0.014652 0.489805
2.138246 0.958068 1.349444 0 0.707106781 0.707106781 0.010667 0.588619
2.123082 0.958068 1.349444 0 0.707106781 0.707106781 0.010667 0.489805
2.123082 0.956404 1.351108 -0 0.707106781 0.707106781 0.014652 0.489805
2.138246 0.956404 1.351108 -0 0.707106781 0.707106781 0.014652 0.588619
2.138246 0.958068 1.349444 -0 0.707106781 0.707106781 0.010667 0.588619
2.123082 1.172897 1.735923 0 -0.707106781 -0.707106781 0.936289 0.109658
2.138246 1.171233 1.737587 0 -0.707106781 -0.707106781 0.940275 0.010844
2.123082 1.171233 1.737587 0 -0.707106781 -0.707106781 0.940275 0.109658
2.123082 1.172897 1.735923 0 -0.707106781 -0.707106781 0.936289 0.109658
2.138246 1.172897 1.735923 0 -0.707106781 -0.707106781 0.936289 0.010844
2.138246 1.171233 1.737587 0 -0.707106781 -0.707106781 0.940275 0.010844
2.13991 1.171233 1.735923 -0.707106781 0 -0.707106781 0.936289 0.955167
2.138246 0.958068 1.737587 -0.707106781 0 -0.707106781 0.940275 0.602218
2.138246 1.171233 1.737587 -0.707106781 0 -0.707106781 0.940275 0.955167
2.13991 1.171233 1.735923 -0.707106781 -0 -0.707106781 0.936289 0.955167
2.13991 0.958068 1.735923 -0.707106781 -0 -0.707106781 0.936289 0.602218
2.138246 0.958068 1.737587 -0.707106781 -0 -0.707106781 0.940275 0.602218
2.123082 1.171233 1.349444 0 -0.707106781 0.707106781 0.955321 0.741978
2.138246 1.172897 1.351108 0 -0.707106781 0.707106781 0.995226 0.745708
2.123082 1.172897 1.351108 0 -0.707106781 0.707106781 0.955321 0.744828
2.123082 1.171233 1.349444 0 -0.707106781 0.707106781 0.955321 0.741978
2.138246 1.171233 1.349444 0 -0.707106781 0.707106781 0.995226 0.742858
2.138246 1.172897 1.351108 0 -0.707106781 0.707106781 0.995226 0.745708
2.138246 1.172897 1.735923 -0.707106781 -0.707106781 0 0.936289 0.010844
2.13991 1.171233 1.351108 -0.707106781 -0.707106781 0 0.014652 0
2.13991 1.171233 1.735923 -0.707106781 -0.707106781 0 0.936289 0
2.138246 1.172897 1.735923 -0.707106781 -0.707106781 -0 0.936289 0.010844
2.138246 1.172897 1.351108 -0.707106781 -0.707106781 -0 0.014652 0.010844
2.13991 1.171233 1.351108 -0.707106781 -0.707106781 -0 0.014652 0
2.13991 0.958068 1.351108 -0.707106781 0 0.707106781 0.014652 0.602218
2.138246 1.171233 1.349444 -0.707106781 0 0.707106781 0.010667 0.955166
2.138246 0.958068 1.349444 -0.707106781 0 0.707106781 0.010667 0.602218
2.13991 0.958068 1.351108 -0.707106781 0 0.707106781 0.014652 0.602218
2.13991 1.171233 1.351108 -0.707106781 0 0.707106781 0.014652 0.955166
2.138246 1.171233 1.349444 -0.707106781 0 0.707106781 0.010667 0.955166
2.123082 1.171233 1.349444 -0 0 1 0.955321 0.741978
2.138246 0.958068 1.349444 -0 0 1 0.995227 0.377754
2.138246 1.171233 1.349444 -0 0 1 0.995226 0.742858
2.123082 1.171233 1.349444 0 0 1 0.955321 0.741978
2.123082 0.958068 1.349444 0 0 1 0.955321 0.376873
2.138246 0.958068 1.349444 0 0 1 0.995227 0.377754
3 0 1 2
3 3 4 5
3 6 7 8
3 9 10 11
3 12 13 14
3 15 16 17
3 18 19 20
3 21 22 23
3 24 25 26
3 27 28 29
3 30 31 32
3 33 34 35
3 36 37 38
3 39 40 41
3 42 43 44
3 45 46 47
3 48 49 50
3 51 52 53
3 54 55 56
3 57 58 59
3 60 61 62
3 63 64 65
3 66 67 68
3 69 70 71
3 72 73 74
3 75 76 77
3 78 79 80
3 81 82 83
3 84 85 86
3 87 88 89
3 90 91 92
3 93 94 95
3 96 97 98
3 99 100 101
3 102 103 104
3 105 106 107
3 108 109 110
3 111 112 113
3 114 115 116
3 117 118 119
3 120 121 122
3 123 124 125
3 126 127 128
3 129 130 131
3 132 133 134
3 135 136 137
3 138 139 140
3 141 142 143
3 144 145 146
3 147 148 149
3 150 151 152
3 153 154 155
3 156 157 158
3 159 160 161
3 162 163 164
3 165 166 167
3 168 169 170
3 171 172 173
3 174 175 176
3 177 178 179
3 180 181 182
3 183 184 185
3 186 187 188
3 189 190 191
3 192 193 194
3 195 196 197
3 198 199 200
3 201 202 203
3 204 205 206
3 207 208 209
3 210 211 212
3 213 214 215
3 216 217 218
3 219 220 221
3 222 223 224
3 225 226 227
3 228 229 230
3 231 232 233
3 234 235 236
3 237 238 239
3 240 241 242
3 243 244 245
3 246 247 248
3 249 250 251
3 252 253 254
3 255 256 257
3 258 259 260
3 261 262 263
