ply
format ascii 1.0
element vertex 126
property float x
property float y
property float z
property float nx
property float ny
property float nz
property float u
property float v
element face 42
property list uchar int vertex_indices
end_header
1.881303 1.499191 3.430796 -0.994494651 -1.43136211e-06 0.104787354 0 0
1.881518 2.196238 3.432846 -0.994494651 -1.43136211e-06 0.104787354 0 0
1.881302 2.19398 3.430796 -0.994494651 -1.43136211e-06 0.104787354 0 0
1.881303 1.499191 3.430796 -0.994550513 1.490847e-07 0.104255825 0 0
1.881518 1.496932 3.432847 -0.994550513 1.490847e-07 0.104255825 0 0
1.881518 2.196238 3.432846 -0.994550513 1.490847e-07 0.104255825 0 0
1.881302 2.19398 3.430796 -0.995455758 0.0952251744 0 0 0
1.881518 2.196238 2.323535 -0.995455758 0.0952251744 0 0 0
1.881302 2.19398 2.325585 -0.995455758 0.0952251744 0 0 0
1.881302 2.19398 3.430796 -0.995455758 0.0952251744 0 0 0
1.881518 2.196238 3.432846 -0.995455758 0.0952251744 0 0 0
1.881518 2.196238 2.323535 -0.995455758 0.0952251744 0 0 0
1.881302 2.19398 2.325585 -0.994545419 -1.43143518e-06 -0.104304406 0 0
1.881518 1.496932 2.323535 -0.994545419 -1.43143518e-06 -0.104304406 0 0
1.881303 1.499191 2.325585 -0.994545419 -1.43143518e-06 -0.104304406 0 0
1.881302 2.19398 2.325585 -0.994494815 0 -0.104785795 0 0
1.881518 2.196238 2.323535 -0.994494815 0 -0.104785795 0 0
1.881518 1.496932 2.323535 -0.994494815 0 -0.104785795 0 0
1.881303 1.499191 2.325585 -0.995501412 -0.0947467037 0 0 0
1.881518 1.496932 3.432847 -0.995501412 -0.0947467037 0 0 0
1.881303 1.499191 3.430796 -0.995501412 -0.0947467037 0 0 0
1.881303 1.499191 2.325585 -0.995501412 -0.0947467037 0 0 0
1.881518 1.496932 2.323535 -0.995501412 -0.0947467037 0 0 0
1.881518 1.496932 3.432847 -0.995501412 -0.0947467037 0 0 0
1.881518 1.496932 2.323535 -1 0 0 0 0
1.881518 1.470182 3.438177 -1 0 0 0 0
1.881518 1.496932 3.432847 -1 0 0 0 0
1.881518 1.496932 2.323535 -1 -0 0 0 0
1.881518 1.470182 2.318205 -1 -0 0 0 0
1.881518 1.470182 3.438177 -1 -0 0 0 0
1.881518 2.196238 2.323535 -1 -0 0 0 0
1.881518 1.470182 2.318205 -1 -0 0 0 0
1.881518 1.496932 2.323535 -1 -0 0 0 0
1.881518 2.196238 2.323535 -1 0 -0 0 0
1.881518 2.201122 2.318205 -1 0 -0 0 0
1.881518 1.470182 2.318205 -1 0 -0 0 0
1.881518 2.196238 3.432846 -1 0 0 0 0
1.881518 2.201122 2.318205 -1 0 0 0 0
1.881518 2.196238 2.323535 -1 0 0 0 0
1.881518 2.196238 3.432846 -1 0 0 0 0
1.881518 2.201122 3.438176 -1 0 0 0 0
1.881518 2.201122 2.318205 -1 0 0 0 0
1.881518 1.496932 3.432847 -1 0 0 0 0
1.881518 2.201122 3.438176 -1 0 0 0 0
1.881518 2.196238 3.432846 -1 0 0 0 0
1.881518 1.496932 3.432847 -1 0 0 0 0
1.881518 1.470182 3.438177 -1 0 0 0 0
1.881518 2.201122 3.438176 -1 0 0 0 0
1.881518 1.470182 3.438177 -0.978745658 -2.80567324e-07 -0.20507788 0 0
1.881263 2.202417 3.439393 -0.978745658 -2.80567324e-07 -0.20507788 0 0
1.881518 2.201122 3.438176 -0.978745658 -2.80567324e-07 -0.20507788 0 0
1.881518 1.470182 3.438177 -0.978711735 0 -0.205239714 0 0
1.881263 1.468888 3.439393 -0.978711735 0 -0.205239714 0 0
1.881263 2.202417 3.439393 -0.978711735 0 -0.205239714 0 0
1.881518 2.201122 3.438176 -0.981159155 -0.193201224 -0 0 0
1.881263 2.202417 2.316988 -0.981159155 -0.193201224 -0 0 0
1.881518 2.201122 2.318205 -0.981159155 -0.193201224 -0 0 0
1.881518 2.201122 3.438176 -0.981159155 -0.193201224 0 0 0
1.881263 2.202417 3.439393 -0.981159155 -0.193201224 0 0 0
1.881263 2.202417 2.316988 -0.981159155 -0.193201224 0 0 0
1.881518 2.201122 2.318205 -0.978745598 0 0.205078166 0 0
1.881263 1.468888 2.316988 -0.978745598 0 0.205078166 0 0
1.881518 1.470182 2.318205 -0.978745598 0 0.205078166 0 0
1.881518 2.201122 2.318205 -0.978745598 0 0.205078166 0 0
1.881263 2.202417 2.316988 -0.978745598 0 0.205078166 0 0
1.881263 1.468888 2.316988 -0.978745598 0 0.205078166 0 0
1.881518 1.470182 2.318205 -0.981130843 0.19334495 0 0 0
1.881263 1.468888 3.439393 -0.981130843 0.19334495 0 0 0
1.881518 1.470182 3.438177 -0.981130843 0.19334495 0 0 0
1.881518 1.470182 2.318205 -0.981130843 0.19334495 0 0 0
1.881263 1.468888 2.316988 -0.981130843 0.19334495 0 0 0
1.881263 1.468888 3.439393 -0.981130843 0.19334495 0 0 0
1.881263 1.468888 2.316988 0 -1 0 0 0
1.896741 1.468888 3.439393 0 -1 0 0 0
1.881263 1.468888 3.439393 0 -1 0 0 0
1.881263 1.468888 2.316988 0 -1 0 0 0
1.896741 1.468888 2.316988 0 -1 0 0 0
1.896741 1.468888 3.439393 0 -1 0 0 0
1.881263 2.202417 2.316988 0 0 -1 0 0
1.896741 1.468888 2.316988 0 0 -1 0 0
1.881263 1.468888 2.316988 0 0 -1 0 0
1.881263 2.202417 2.316988 0 0 -1 0 0
1.89674 2.202417 2.316988 0 0 -1 0 0
1.896741 1.468888 2.316988 0 0 -1 0 0
1.881263 2.202417 3.439393 0 1 0 0 0
1.89674 2.202417 2.316988 0 1 0 0 0
1.881263 2.202417 2.316988 0 1 0 0 0
1.881263 2.202417 3.439393 -0 1 0 0 0
1.89674 2.202417 3.439393 -0 1 0 0 0
1.89674 2.202417 2.316988 -0 1 0 0 0
1.881263 1.468888 3.439393 0 0 1 0 0
1.89674 2.202417 3.439393 0 0 1 0 0
1.881263 2.202417 3.439393 0 0 1 0 0
1.881263 1.468888 3.439393 0 0 1 0 0
1.896741 1.468888 3.439393 0 0 1 0 0
1.89674 2.202417 3.439393 0 0 1 0 0
1.896741 1.468888 3.439393 1 1.36327262e-06 -1.45630434e-06 0 0
1.89674 2.200382 3.437488 1 1.36327262e-06 -1.45630434e-06 0 0
1.89674 2.202417 3.439393 1 1.36327262e-06 -1.45630434e-06 0 0
1.896741 1.468888 3.439393 1 1.37087709e-06 1.46370813e-06 0 0
1.896741 1.470922 3.437488 1 1.37087709e-06 1.46370813e-06 0 0
1.89674 2.200382 3.437488 1 1.37087709e-06 1.46370813e-06 0 0
1.89674 2.202417 3.439393 1 0 0 0 0
1.89674 2.200382 2.318894 1 0 0 0 0
1.89674 2.202417 2.316988 1 0 0 0 0
1.89674 2.202417 3.439393 1 0 0 0 0
1.89674 2.200382 3.437488 1 0 0 0 0
1.89674 2.200382 2.318894 1 0 0 0 0
1.89674 2.202417 2.316988 1 1.36327262e-06 -1.45482503e-06 0 0
1.896741 1.470922 2.318894 1 1.36327262e-06 -1.45482503e-06 0 0
1.896741 1.468888 2.316988 1 1.36327262e-06 -1.45482503e-06 0 0
1.89674 2.202417 2.316988 1 1.37087709e-06 1.46365943e-06 0 0
1.89674 2.200382 2.318894 1 1.37087709e-06 1.46365943e-06 0 0
1.896741 1.470922 2.318894 1 1.37087709e-06 1.46365943e-06 0 0
1.896741 1.468888 2.316988 1 0 0 0 0
1.896741 1.470922 3.437488 1 0 0 0 0
1.896741 1.468888 3.439393 1 0 0 0 0
1.896741 1.468888 2.316988 1 0 0 0 0
1.896741 1.470922 2.318894 1 0 0 0 0
1.896741 1.470922 3.437488 1 0 0 0 0
1.896741 1.470922 3.437488 1 1.37087709e-06 0 0 0
1.89674 2.200382 2.318894 1 1.37087709e-06 0 0 0
1.89674 2.200382 3.437488 1 1.37087709e-06 0 0 0
1.896741 1.470922 3.437488 1 1.37087709e-06 0 0 0
1.896741 1.470922 2.318894 1 1.37087709e-06 0 0 0
1.89674 2.200382 2.318894 1 1.37087709e-06 0 0 0
3 0 1 2
3 3 4 5
3 6 7 8
3 9 10 11
3 12 13 14
3 15 16 17
3 18 19 20
3 21 22 23
3 24 25 26
3 27 28 29
3 30 31 32
3 33 34 35
3 36 37 38
3 39 40 41
3 42 43 44
3 45 46 47
3 48 49 50
3 51 52 53
3 54 55 56
3 57 58 59
3 60 61 62
3 63 64 65
3 66 67 68
3 69 70 71
3 72 73 74
3 75 76 77
3 78 79 80
3 81 82 83
3 84 85 86
3 87 88 89
3 90 91 92
3 93 94 95
3 96 97 98
3 99 100 101
3 102 103 104
3 105 106 107
3 108 109 110
3 111 112 113
3 114 115 116
3 117 118 119
3 120 121 122
3 123 124 125
