ply
format ascii 1.0
element vertex 898
property float x
property float y
property float z
property float nx
property float ny
property float nz
property float u
property float v
element face 1680
property list uchar int vertex_indices
end_header
-2.233415 0.54567 3.137394 0.85563373 0.459818126 0.237609367 0.81152 0.888979
-2.238256 0.567964 3.114331 0.841128182 0.477315993 0.254308521 0.758079 0.842995
-2.244868 0.567255 3.133888 0.816349787 0.500330514 0.288517596 0.754334 0.885916
-2.228029 0.545766 3.118172 0.895567039 0.391985573 0.210492253 0.813868 0.844984
-2.222108 0.527826 3.121494 0.940429869 0.316410049 0.124403951 0.859292 0.846148
-2.2254 0.528341 3.140616 0.895140421 0.423819138 0.138206241 0.859325 0.890953
-2.227826 0.528117 3.155752 0.860952171 0.498230191 0.102606218 0.860491 0.925861
-2.237615 0.545087 3.152563 0.838885651 0.508791297 0.193396692 0.810467 0.923835
-2.250092 0.566264 3.149338 0.819596537 0.518997807 0.242698975 0.751892 0.920388
-2.217076 0.509566 3.144486 0.918625915 0.394911141 0.0131003696 0.90657 0.891463
-2.210837 0.49772 3.159128 0.886891991 0.455395888 -0.0776992984 0.936574 0.917753
-2.210362 0.494526 3.148277 0.917426656 0.386811239 -0.0933027109 0.943102 0.89275
-2.216787 0.50903 3.159954 0.878052219 0.478528459 -0.0059003509 0.909547 0.925684
-2.216868 0.509081 3.125111 0.961182252 0.275694909 0.0109997969 0.904523 0.846431
-2.212843 0.494293 3.128522 0.955691423 0.281497474 -0.0860992273 0.939907 0.847861
-2.223794 0.545192 3.09915 0.938715348 0.320005232 0.128102094 0.814773 0.801101
-2.229272 0.566085 3.070174 0.916380558 0.397134912 0.0503044222 0.760694 0.746795
-2.232966 0.567971 3.095085 0.880039981 0.446520286 0.161707347 0.759979 0.800633
-2.221207 0.54266 3.074432 0.968295304 0.248398795 0.0264998715 0.814556 0.746082
-2.2181 0.523149 3.078183 0.990629293 0.136504036 0.00450013307 0.857468 0.744233
-2.219498 0.526507 3.102667 0.974314137 0.213203094 0.072501052 0.858725 0.80056
-2.216352 0.507151 3.106385 0.986106696 0.166101128 0.00200001358 0.902957 0.798835
-2.216107 0.502726 3.082181 0.994786421 0.0998986364 -0.0204997202 0.901419 0.740891
-2.214685 0.486612 3.08573 0.988607958 0.141501139 -0.051300413 0.936833 0.738942
-2.214075 0.491944 3.109781 0.979538658 0.191107542 -0.0631024904 0.93802 0.798493
-2.407266 0.825413 3.092086 0.69800942 0.712609617 0.0705009514 0.104497 0.885446
-2.41799 0.831915 3.07287 0.572194896 0.810992766 -0.121998912 0.069891 0.840009
-2.419245 0.837164 3.091827 0.703926373 0.703126343 -0.100503765 0.068643 0.88637
-2.403244 0.823042 3.072873 0.569491045 0.821787077 0.0185997075 0.106255 0.839229
-2.386603 0.810777 3.073974 0.677627417 0.712628834 0.181607348 0.152386 0.839932
-2.393338 0.810312 3.093488 0.737825219 0.629421514 0.243808334 0.151202 0.885586
-2.399374 0.810272 3.108863 0.797317298 0.560612163 0.223604851 0.14899 0.92166
-2.411271 0.82815 3.10742 0.798732345 0.596424153 0.0794032155 0.101499 0.921647
-2.418341 0.837459 3.103403 0.787412122 0.614609462 -0.0473007282 0.075455 0.913203
-2.382722 0.794635 3.095759 0.778689309 0.535092653 0.327595502 0.199305 0.884718
-2.375216 0.795968 3.076167 0.778406831 0.561004923 0.281702472 0.198071 0.840108
-2.363212 0.774708 3.078942 0.806772776 0.502583041 0.310689516 0.254158 0.838197
-2.370532 0.773464 3.098388 0.79740738 0.500704634 0.336803117 0.257343 0.881142
-2.376549 0.772774 3.113681 0.811041117 0.510525882 0.28561448 0.259267 0.915897
-2.389115 0.793813 3.1111 0.800524072 0.527515863 0.284408552 0.199382 0.920282
-2.401165 0.821617 3.054709 0.469612781 0.881023977 -0.057101554 0.106968 0.7935
-2.420547 0.826745 3.031752 0.454702594 0.877105004 -0.154700883 0.068495 0.737487
-2.418414 0.829327 3.055447 0.476927477 0.869950119 -0.125407225 0.069125 0.793613
-2.401742 0.818791 3.0307 0.436725519 0.886051773 -0.155509087 0.107984 0.738004
-2.380555 0.807709 3.030528 0.591890074 0.795186665 -0.131697791 0.155676 0.740044
-2.381878 0.81059 3.054987 0.631804382 0.774005368 0.0417002892 0.153724 0.795017
-2.369216 0.796422 3.056837 0.785676281 0.602981796 0.138295825 0.198038 0.796327
-2.366332 0.794064 3.032068 0.760207093 0.646706034 -0.0621005794 0.199146 0.742013
-2.352597 0.773904 3.035198 0.819668546 0.572078047 0.029498868 0.252574 0.743587
-2.356869 0.775419 3.059894 0.827959673 0.52363774 0.200714466 0.252644 0.796486
-2.253347 0.473108 2.801817 0.676677379 0.321089266 -0.66257785 0.816055 0.098143
-2.255171 0.446877 2.784537 0.676449491 0.433431711 -0.595443564 0.865894 0.060984
-2.262618 0.464795 2.789206 0.692103042 0.354401558 -0.628802764 0.815975 0.061986
-2.247368 0.454199 2.797226 0.700378565 0.361288943 -0.61558116 0.864115 0.09715
-2.238574 0.462459 2.812075 0.807280492 0.269993476 -0.524787319 0.863485 0.143134
-2.243117 0.482349 2.816334 0.746953196 0.298621267 -0.594042306 0.817541 0.143426
-2.252158 0.507277 2.8181 0.745147251 0.293918638 -0.598637961 0.761142 0.144343
-2.263029 0.497606 2.802411 0.730698414 0.261099433 -0.630798631 0.757923 0.099315
-2.272833 0.488864 2.788648 0.775628846 0.250109302 -0.579521553 0.756106 0.062774
-2.237679 0.489252 2.827716 0.864092163 0.277697481 -0.419796192 0.818228 0.187558
-2.23361 0.469194 2.824227 0.918392244 0.193198368 -0.345297084 0.862496 0.188633
-2.230488 0.475719 2.842519 0.975155459 0.131307468 -0.178410146 0.860623 0.244365
-2.234076 0.495815 2.844416 0.938999282 0.232199822 -0.253699806 0.817849 0.242279
-2.241644 0.520598 2.845856 0.894982503 0.300294129 -0.329893551 0.763745 0.2413
-2.246118 0.514158 2.829957 0.82339865 0.312599487 -0.473599223 0.762996 0.187496
-2.242012 0.437427 2.793247 0.771520542 0.361509625 -0.523513939 0.9103 0.096451
-2.2428 0.424326 2.781538 0.745836681 0.470023116 -0.472023215 0.93753 0.067943
-2.248038 0.431678 2.780759 0.720111165 0.456307075 -0.522708105 0.911867 0.060097
-2.237936 0.425008 2.790024 0.804028089 0.402314055 -0.437815295 0.945595 0.094812
-2.23274 0.429732 2.806052 0.910948122 0.272714407 -0.309516351 0.945416 0.142698
-2.235166 0.443844 2.808683 0.884194942 0.233798663 -0.404397687 0.909415 0.143485
-2.231389 0.449375 2.82311 0.964793198 0.11909916 -0.234498347 0.907321 0.19105
-2.230118 0.433985 2.822805 0.974252104 0.153208194 -0.165408846 0.942943 0.192162
-2.228104 0.438428 2.846238 0.98881768 0.102201827 -0.108601942 0.939575 0.25068
-2.228876 0.454907 2.844067 0.990553719 0.0620033625 -0.122306633 0.904352 0.248179
-2.431373 0.751807 2.730845 0.775725642 0.56721875 -0.276609143 0.109905 0.089123
-2.422821 0.731771 2.720215 0.802270065 0.47954188 -0.35553105 0.156492 0.055132
-2.43527 0.750509 2.71567 0.824193798 0.505396197 -0.255498077 0.10671 0.054599
-2.418355 0.735498 2.734234 0.741438289 0.542428012 -0.395020399 0.157665 0.09023
-2.412753 0.741133 2.75189 0.660447313 0.626144855 -0.414429689 0.157592 0.135352
-2.426887 0.754758 2.749739 0.693633292 0.654831429 -0.300114404 0.112039 0.13459
-2.437803 0.765595 2.747444 0.726593635 0.65639425 -0.202998222 0.076459 0.132716
-2.441695 0.765014 2.727346 0.79480984 0.576807141 -0.188602335 0.072998 0.087221
-2.441981 0.761586 2.716366 0.826738746 0.526324667 -0.198709313 0.079378 0.062081
-2.422942 0.7592 2.7678 0.597219909 0.739324646 -0.311010368 0.113385 0.182764
-2.407057 0.747274 2.769298 0.592813015 0.70371545 -0.391608598 0.157934 0.181459
-2.401515 0.754679 2.792573 0.560231987 0.763643602 -0.320918323 0.158982 0.238448
-2.419388 0.765841 2.791342 0.523006953 0.802910675 -0.286003802 0.114618 0.241421
-2.433817 0.774369 2.790059 0.563625584 0.789935856 -0.241510962 0.078826 0.24309
-2.435377 0.768483 2.766174 0.639012844 0.73381475 -0.230604635 0.078094 0.182755
-2.405879 0.720681 2.73679 0.727055167 0.465435316 -0.504738298 0.206089 0.092514
-2.398381 0.695505 2.729929 0.789683468 0.328293127 -0.51828915 0.266465 0.059979
-2.411837 0.71534 2.723392 0.78363883 0.421520887 -0.456322611 0.207211 0.057326
-2.3908 0.701948 2.743437 0.753454899 0.330424076 -0.568441418 0.263941 0.095462
-2.381415 0.710502 2.760304 0.718799234 0.377499598 -0.583799378 0.259982 0.139509
-2.398525 0.728014 2.753793 0.669336584 0.540429538 -0.509827865 0.203541 0.136969
-2.391631 0.73508 2.770876 0.633710966 0.626110835 -0.454307862 0.202278 0.181391
-2.372865 0.718461 2.77666 0.693926862 0.489118934 -0.528420456 0.257601 0.182582
-2.365909 0.726408 2.798813 0.680923894 0.633522231 -0.367412893 0.256349 0.236895
-2.385458 0.742721 2.794068 0.627413361 0.70111493 -0.338807215 0.202151 0.237001
-2.351884 0.74188 3.100867 0.795579975 0.508287207 0.329691702 0.333856 0.873158
-2.344716 0.743092 3.081789 0.801718752 0.509311913 0.312807317 0.331494 0.832639
-2.322854 0.706667 3.086281 0.790445669 0.532330756 0.303017507 0.419428 0.828582
-2.329943 0.705565 3.105239 0.781820824 0.535714269 0.319008497 0.420025 0.867395
-2.335749 0.704819 3.120672 0.797958185 0.540039378 0.267619514 0.420138 0.900442
-2.357731 0.74116 3.116156 0.811311517 0.514607305 0.277403938 0.335235 0.90689
-2.307872 0.670204 3.113547 0.772234087 0.557224596 0.305213472 0.507033 0.870485
-2.300752 0.670981 3.093995 0.784300616 0.551300433 0.284500223 0.507308 0.831177
-2.278555 0.635448 3.102448 0.791421875 0.547415131 0.272007518 0.594847 0.836402
-2.285712 0.63491 3.122589 0.779745874 0.54953233 0.300017651 0.593725 0.877156
-2.291522 0.634368 3.138687 0.795792882 0.550095079 0.253197735 0.593208 0.910958
-2.313694 0.669602 3.129375 0.788326622 0.559418892 0.256108649 0.506828 0.903734
-2.263506 0.598798 3.129161 0.793811665 0.528107761 0.301604432 0.678948 0.882137
-2.256411 0.599484 3.109159 0.806841517 0.526627098 0.267713776 0.681755 0.840238
-2.269191 0.597973 3.145026 0.807729281 0.53101925 0.256109284 0.677184 0.916302
-2.338529 0.743883 3.06379 0.819950289 0.521832005 0.235314432 0.330279 0.794553
-2.332874 0.743279 3.039802 0.819435827 0.560424502 0.120205255 0.33014 0.744442
-2.310493 0.707307 3.045478 0.821126461 0.541517451 0.18030581 0.419347 0.744981
-2.31698 0.707355 3.068979 0.809975239 0.531683747 0.247492434 0.419146 0.793072
-2.295008 0.671377 3.075914 0.808437444 0.540925054 0.232010746 0.507452 0.79459
-2.288783 0.671107 3.051826 0.833530416 0.522119052 0.18060659 0.507697 0.745609
-2.267435 0.634736 3.058375 0.848541452 0.510624945 0.138706776 0.595706 0.746226
-2.272851 0.635583 3.08327 0.817131959 0.538421058 0.205908053 0.595406 0.797284
-2.250744 0.599608 3.089726 0.835722385 0.517513862 0.183704921 0.683219 0.799329
-2.246139 0.598253 3.064657 0.869793407 0.485396321 0.0885993284 0.683892 0.746732
-2.346956 0.69326 2.790776 0.702886072 0.343093202 -0.623087654 0.335089 0.185058
-2.358635 0.683696 2.776278 0.721392916 0.243797606 -0.648193635 0.337014 0.14304
-2.334033 0.650968 2.793058 0.688061017 0.231720549 -0.687660981 0.42398 0.146138
-2.320191 0.66162 2.806138 0.682223411 0.248208517 -0.6877236 0.423099 0.187509
-2.308865 0.671215 2.822115 0.779507055 0.427103865 -0.458204147 0.422315 0.239286
-2.337559 0.70218 2.809796 0.721942675 0.548432419 -0.421924941 0.333803 0.237944
-2.298854 0.625686 2.815665 0.69551438 0.233204822 -0.679614051 0.509989 0.188629
-2.311458 0.615692 2.80199 0.694106764 0.288102808 -0.659706429 0.510226 0.147381
-2.290078 0.578746 2.807498 0.736519588 0.308408202 -0.602016011 0.596574 0.14716
-2.280191 0.587352 2.821886 0.743241021 0.266314698 -0.613733873 0.596976 0.188729
-2.271747 0.595233 2.837374 0.847167886 0.303324306 -0.436234957 0.597172 0.24049
-2.288281 0.634691 2.83087 0.826148868 0.323219119 -0.4615273 0.509687 0.240059
-2.261451 0.548517 2.827332 0.788705951 0.299102257 -0.537104052 0.685279 0.188119
-2.269062 0.541008 2.814012 0.756560595 0.292923461 -0.584646826 0.68385 0.145868
-2.255201 0.55547 2.842939 0.864606618 0.315302414 -0.391202995 0.686022 0.240803
-2.36997 0.673895 2.759097 0.762483431 0.261094326 -0.591987136 0.339983 0.098561
-2.378513 0.666556 2.744556 0.788817338 0.300406603 -0.536211786 0.34185 0.061892
-2.355068 0.632416 2.758052 0.761211129 0.385605638 -0.521407623 0.425836 0.062994
-2.346326 0.640363 2.774574 0.741945386 0.322619735 -0.587735953 0.425194 0.100951
-2.322805 0.605194 2.780669 0.742827987 0.393514826 -0.541620406 0.510553 0.101772
-2.330879 0.597009 2.7612 0.756513371 0.447807915 -0.476608424 0.510892 0.063217
-2.307946 0.560366 2.764074 0.810724253 0.374211195 -0.450213468 0.596036 0.06306
-2.300247 0.568688 2.784804 0.782508569 0.357603916 -0.509705581 0.596011 0.101485
-2.279492 0.531146 2.794395 0.788797235 0.272599045 -0.550898069 0.681522 0.100547
-2.28827 0.52252 2.776747 0.834815674 0.255004788 -0.487909161 0.680284 0.063023
-2.229349 0.504032 2.874886 0.971225578 0.164204324 -0.172504543 0.816137 0.319331
-2.22722 0.48335 2.875786 0.990357609 0.0792966058 -0.113595138 0.857341 0.321049
-2.224186 0.491579 2.916809 0.995568468 0.0486033426 -0.0805055366 0.854287 0.407873
-2.225051 0.512866 2.913374 0.987208835 0.115501034 -0.109900984 0.814149 0.407061
-2.22997 0.537966 2.909474 0.952939591 0.258910757 -0.157706552 0.762973 0.406394
-2.235472 0.528946 2.87367 0.93217067 0.273491395 -0.237192537 0.76365 0.31828
-2.222734 0.521278 2.954129 0.991527753 0.112403146 -0.0651018222 0.81294 0.493814
-2.221765 0.499896 2.958365 0.996929081 0.0502014644 -0.0601017532 0.853098 0.494025
-2.219878 0.508233 3.000208 0.996427118 0.0685018643 -0.0494013445 0.853537 0.580229
-2.22158 0.529279 2.996071 0.988830709 0.141304388 -0.0474014721 0.812681 0.580662
-2.22702 0.554185 2.991369 0.957115989 0.285304766 -0.0503008403 0.761125 0.580935
-2.227506 0.546424 2.949346 0.961039115 0.261210631 -0.0904036795 0.761976 0.493598
-2.22077 0.536881 3.038122 0.981880804 0.186996344 -0.0306993998 0.813539 0.668676
-2.218441 0.516521 3.042089 0.995047664 0.0928044454 -0.0356017054 0.855366 0.667211
-2.227449 0.561114 3.033623 0.941858286 0.335585137 -0.0168992515 0.760887 0.669448
-2.22582 0.461326 2.879093 0.994353348 0.0511027417 -0.0930049899 0.900844 0.323904
-2.224735 0.443724 2.882305 0.989694883 0.10049948 -0.101999473 0.936717 0.325728
-2.221103 0.450126 2.924576 0.988929243 0.11530341 -0.093402762 0.934835 0.409598
-2.222731 0.468576 2.92109 0.995015239 0.0594009097 -0.0801012268 0.898037 0.409014
-2.220118 0.476603 2.962957 0.995289878 0.0686993013 -0.0683993044 0.89717 0.494297
-2.218304 0.457888 2.966621 0.988839426 0.125104988 -0.0809032257 0.9344 0.494582
-2.216362 0.466994 3.008444 0.989748073 0.126606149 -0.0661032107 0.934879 0.579584
-2.218079 0.485349 3.004712 0.99582864 0.0728020938 -0.0550015819 0.897792 0.579611
-2.216712 0.494758 3.046371 0.996273642 0.0763056403 -0.0402029717 0.899453 0.664813
-2.215302 0.477432 3.050049 0.990513659 0.126401743 -0.0539007433 0.935738 0.663505
-2.416072 0.77539 2.826679 0.484107373 0.836812745 -0.255703894 0.116414 0.318338
-2.396379 0.764103 2.827832 0.552609392 0.791813457 -0.260104421 0.161024 0.316213
-2.392483 0.773876 2.869251 0.55769437 0.801691907 -0.215097829 0.162766 0.404026
-2.413478 0.785815 2.86797 0.480516576 0.847629239 -0.225007762 0.11743 0.404444
-2.431377 0.794958 2.866941 0.510119982 0.829932509 -0.225808845 0.079229 0.404377
-2.432523 0.783943 2.825622 0.51879794 0.820896741 -0.238699052 0.079581 0.319474
-2.412092 0.795084 2.909375 0.495328002 0.844747755 -0.202611454 0.116319 0.490669
-2.390664 0.782325 2.911008 0.561912963 0.804818567 -0.191104409 0.162912 0.491162
-2.388613 0.79066 2.952869 0.561210155 0.800614487 -0.209903798 0.161532 0.577824
-2.410099 0.803714 2.95125 0.493490895 0.844784414 -0.206896183 0.113815 0.576765
-2.428254 0.814151 2.950104 0.523486887 0.829279227 -0.1955951 0.073166 0.576382
-2.430264 0.805163 2.908097 0.524316671 0.825626251 -0.208406626 0.076642 0.490272
-2.405684 0.81222 2.993953 0.460094822 0.863090286 -0.208297656 0.110652 0.662484
-2.384021 0.800094 2.994599 0.564809257 0.795713042 -0.218703585 0.1587 0.664215
-2.424421 0.821516 2.99398 0.487294557 0.853890462 -0.182797958 0.070146 0.661932
-2.380269 0.751781 2.829397 0.638114048 0.728016027 -0.250605517 0.203008 0.315021
-2.36131 0.734929 2.833069 0.676406406 0.696706598 -0.238902262 0.255779 0.314661
-2.358002 0.743702 2.8737 0.679377618 0.704776782 -0.20429327 0.255598 0.403605
-2.376347 0.761099 2.87093 0.647806614 0.733507489 -0.2057021 0.203984 0.40374
-2.373976 0.769512 2.912733 0.643289035 0.742787339 -0.185596837 0.204213 0.491448
-2.354923 0.752408 2.914977 0.673820063 0.71402126 -0.19010566 0.255513 0.491456
-2.352581 0.76076 2.956735 0.692289882 0.704489704 -0.156297716 0.255046 0.579012
-2.371727 0.777853 2.954558 0.650734298 0.734338704 -0.193110178 0.203422 0.578638
-2.368174 0.786955 2.996155 0.697295893 0.693995912 -0.179298944 0.201337 0.665805
-2.351486 0.768472 2.998811 0.757008872 0.646607578 -0.0940011017 0.25372 0.667076
-2.333069 0.71005 2.840543 0.716740959 0.656937542 -0.233913367 0.332751 0.31503
-2.304118 0.678646 2.84929 0.810135136 0.539023378 -0.230509997 0.421392 0.315693
-2.30162 0.685855 2.884029 0.804822374 0.559015541 -0.199405544 0.420769 0.403888
-2.330384 0.717903 2.878253 0.711894458 0.671394773 -0.205998396 0.332121 0.403644
-2.326402 0.726774 2.918164 0.708712736 0.678612195 -0.192903467 0.332099 0.491115
-2.297039 0.694781 2.922701 0.805012333 0.565608665 -0.179002742 0.420884 0.491029
-2.295359 0.702529 2.964325 0.815240987 0.577129016 -0.0480024134 0.420954 0.578685
-2.324312 0.734849 2.959816 0.729720308 0.676018814 -0.102502853 0.331967 0.578749
-2.327302 0.740309 3.002753 0.778497591 0.627498058 0.0136999576 0.331008 0.667849
-2.301565 0.706202 3.007922 0.819247841 0.56493299 0.0984057466 0.420195 0.668428
-2.283028 0.642221 2.856781 0.883187529 0.406594259 -0.233796699 0.509167 0.316214
-2.265905 0.603114 2.863371 0.900336924 0.355014559 -0.251710323 0.59712 0.316742
-2.261631 0.611291 2.897182 0.905493105 0.380297104 -0.188298566 0.596922 0.405
-2.279839 0.649712 2.890465 0.882661755 0.430381352 -0.188891815 0.508755 0.404369
-2.275458 0.658598 2.928994 0.886194266 0.437497169 -0.152499013 0.508779 0.491798
-2.25789 0.620063 2.93611 0.91191336 0.388505692 -0.132201937 0.596681 0.492776
-2.256966 0.627663 2.978097 0.910602837 0.412501285 -0.0254000791 0.596392 0.580763
-2.274159 0.666211 2.970784 0.886982611 0.461390955 -0.0194996177 0.508775 0.579661
-2.280217 0.669883 3.014256 0.861681862 0.493989602 0.116097556 0.508276 0.669115
-2.261144 0.632325 3.021085 0.883731134 0.461716267 0.0764026917 0.596051 0.669649
-2.248855 0.563664 2.869416 0.904047409 0.336617653 -0.263413814 0.686296 0.317424
-2.243586 0.572409 2.903797 0.916491307 0.354396639 -0.18559824 0.686112 0.405691
-2.240566 0.581012 2.943117 0.924820633 0.362508088 -0.115302572 0.685485 0.493314
-2.240035 0.58865 2.985168 0.922946305 0.382519191 -0.0430021575 0.684769 0.581078
-2.242231 0.594499 3.027742 0.902002075 0.431200992 0.0214000492 0.684323 0.669766
-2.43149 0.826162 2.994445 0.659546665 0.732851851 -0.167111824 0.050134 0.663877
-2.435149 0.819108 2.949833 0.67262702 0.71792884 -0.179307203 0.052478 0.577594
-2.427621 0.831004 3.032854 0.649715951 0.744018266 -0.155903827 0.049632 0.740088
-2.42878 0.832665 3.033743 0.469302389 0.869804427 -0.152300775 0.041245 0.743147
-2.432667 0.827756 2.995001 0.459910252 0.87211944 -0.167003723 0.040447 0.66615
-2.436348 0.820624 2.950001 0.449704726 0.872009165 -0.193302032 0.041736 0.578911
-2.437183 0.809931 2.907436 0.671942377 0.715145102 -0.192512141 0.056086 0.490273
-2.438226 0.799345 2.866019 0.667101251 0.717001344 -0.202200379 0.059416 0.403208
-2.438405 0.811369 2.907216 0.449028065 0.865854118 -0.220613789 0.04502 0.490171
-2.43947 0.800704 2.865411 0.454218367 0.859334748 -0.235009503 0.048741 0.401645
-2.438908 0.788064 2.824345 0.672894933 0.710794648 -0.204898457 0.060926 0.317696
-2.439545 0.778421 2.788411 0.692827485 0.693127497 -0.198907891 0.061375 0.240625
-2.440174 0.789346 2.823348 0.460010774 0.855420034 -0.238005574 0.051342 0.315042
-2.44083 0.779636 2.787081 0.464001547 0.855802854 -0.228700763 0.053066 0.237065
-2.22355 0.436309 2.88292 0.957768523 0.259191482 -0.124495909 0.955029 0.324349
-2.219718 0.442498 2.925628 0.95720905 0.264202498 -0.118101117 0.954122 0.40874
-2.227041 0.431328 2.84621 0.957073171 0.26212004 -0.123709458 0.956831 0.248823
-2.226385 0.429373 2.845408 0.996378772 -0.013799706 -0.0838982126 0.965082 0.245924
-2.222875 0.434421 2.882451 0.995853797 -0.0206011129 -0.0886047866 0.964573 0.322247
-2.219021 0.440688 2.925548 0.996940168 -0.0266010718 -0.0735029615 0.964718 0.407696
-2.216837 0.450241 2.968077 0.957226027 0.268307295 -0.108302945 0.954035 0.494837
-2.214908 0.459537 3.010268 0.957586685 0.270896233 -0.0981986346 0.954228 0.58093
-2.216119 0.448509 2.968385 0.998352185 -0.0251013121 -0.0516026973 0.964951 0.49519
-2.214167 0.457884 3.010964 0.999358637 -0.0180992509 -0.0308987211 0.964765 0.582655
-2.21393 0.470387 3.0522 0.957648358 0.273013786 -0.0915046206 0.954158 0.665312
-2.213293 0.48003 3.088134 0.955307752 0.280202274 -0.0942007644 0.954133 0.741272
-2.213167 0.468812 3.053284 0.999791292 -0.00669994164 -0.0192998319 0.96365 0.668016
-2.212511 0.478522 3.089551 0.999654038 -0.00230012434 -0.0262014164 0.962384 0.744765
-2.270628 0.597431 3.152047 0.842073248 0.529183188 0.104296687 0.678852 0.934007
-2.293183 0.634218 3.145735 0.834590636 0.541193928 0.102798847 0.594463 0.929217
-2.251219 0.565411 3.156262 0.845629762 0.524918475 0.0968034071 0.7539 0.937404
-2.25078 0.564677 3.158302 0.763522318 0.517715133 0.386011283 0.756903 0.945682
-2.270365 0.596985 3.154039 0.757629226 0.522220145 0.391515103 0.681161 0.943485
-2.293125 0.634106 3.147671 0.738911727 0.54630867 0.394406259 0.595812 0.93975
-2.315542 0.669731 3.136284 0.82971189 0.548207856 0.105101506 0.506895 0.922143
-2.337774 0.705197 3.1274 0.836495111 0.536196866 0.11299934 0.418968 0.918652
-2.315689 0.669954 3.138165 0.735110137 0.560007723 0.382105269 0.506812 0.933201
-2.338126 0.705755 3.129225 0.75430479 0.536503407 0.378402403 0.417437 0.929515
-2.359951 0.741844 3.122787 0.845739658 0.520224394 0.118705566 0.333503 0.924614
-2.378983 0.773724 3.12027 0.845848481 0.519329766 0.121806982 0.256997 0.933036
-2.360508 0.742737 3.124556 0.768002346 0.503501538 0.395801209 0.330962 0.934368
-2.379716 0.774904 3.121992 0.765402935 0.499401915 0.405901557 0.2537 0.941414
-2.290924 0.51872 2.76933 0.889868277 0.309488967 -0.335188051 0.682127 0.044159
-2.275673 0.484771 2.782569 0.869501839 0.311400659 -0.383400811 0.758458 0.045085
-2.310422 0.556966 2.755581 0.842580886 0.411890656 -0.346992129 0.5974 0.043243
-2.310573 0.556114 2.753843 0.720812106 0.277604662 -0.635110667 0.599139 0.032675
-2.29087 0.517534 2.767649 0.809044774 0.17960994 -0.559630971 0.684864 0.034619
-2.275443 0.483297 2.780935 0.807012166 0.231403488 -0.54330819 0.761956 0.036801
-2.333663 0.593952 2.753078 0.786406567 0.489704089 -0.376503144 0.511168 0.04313
-2.358258 0.629736 2.750863 0.795412357 0.453907052 -0.401606239 0.425001 0.043318
-2.358819 0.629554 2.749014 0.697124755 0.345112255 -0.628422316 0.423948 0.032705
-2.334019 0.593435 2.751285 0.655534239 0.387720251 -0.648033848 0.511526 0.032195
-2.381819 0.664376 2.737977 0.828626956 0.385712547 -0.405713198 0.340468 0.043305
-2.401521 0.693879 2.723652 0.833334759 0.390516289 -0.391216318 0.264541 0.042599
-2.402463 0.69432 2.7217 0.72633711 0.20571051 -0.655833507 0.261539 0.034264
-2.382585 0.66453 2.736072 0.736531487 0.226009662 -0.637527255 0.338327 0.033726
-2.440452 0.772747 2.764213 0.722479576 0.667281136 -0.180994883 0.061526 0.178885
-2.44238 0.770347 2.745111 0.754919696 0.63701662 -0.155904068 0.060428 0.127763
-2.441749 0.773917 2.76266 0.460628325 0.866553286 -0.192111813 0.05416 0.174418
-2.443687 0.771483 2.74339 0.43278743 0.893474049 -0.119996515 0.05388 0.122621
-2.446083 0.770526 2.724462 0.777011247 0.610908843 -0.151802197 0.057133 0.082548
-2.446218 0.766386 2.709826 0.80990503 0.545103385 -0.216601345 0.066199 0.050594
-2.447399 0.771628 2.722573 0.400396202 0.905891408 -0.137998691 0.051487 0.077196
-2.447519 0.767426 2.707818 0.493907789 0.69501096 -0.52250824 0.0613 0.045102
-2.228899 0.427207 2.821753 0.942512795 0.295204007 -0.156602126 0.9596 0.189322
-2.231145 0.423351 2.804076 0.883513664 0.379105863 -0.275104255 0.961572 0.138996
-2.230511 0.421317 2.802882 0.976004758 0.0423002062 -0.213601041 0.967931 0.135021
-2.228256 0.425207 2.820728 0.994397842 0.000699998481 -0.105699771 0.966808 0.185805
-2.2358 0.419162 2.787701 0.791011596 0.468206864 -0.393805773 0.960983 0.090993
-2.242119 0.419232 2.776709 0.742911894 0.511408188 -0.431906915 0.948804 0.055966
-2.241524 0.417175 2.775215 0.729924811 0.170105782 -0.662022503 0.953942 0.051274
-2.235176 0.417094 2.78634 0.926034148 0.0745027473 -0.370013645 0.96663 0.086703
-2.391779 0.794889 3.117676 0.841698363 0.526398976 0.120199766 0.195945 0.936925
-2.401998 0.811739 3.115429 0.844018493 0.528311575 0.0923020224 0.144563 0.937835
-2.39263 0.796262 3.119366 0.760936385 0.511624464 0.39901908 0.191962 0.944307
-2.402938 0.813257 3.117094 0.764924076 0.505015896 0.399812584 0.140071 0.944386
-2.413296 0.83067 3.113952 0.842986765 0.53759156 0.0191996986 0.097066 0.937324
-2.421896 0.843686 3.108166 0.808431028 0.582822369 -0.082203155 0.063296 0.924988
-2.414325 0.832333 3.115593 0.737120411 0.543915061 0.401011104 0.092349 0.942989
-2.422993 0.845449 3.109746 0.545526835 0.820440358 0.171108417 0.058317 0.929991
-2.414541 0.714253 2.717123 0.827500885 0.434500465 -0.35560038 0.204193 0.040703
-2.425107 0.73135 2.713717 0.83292373 0.459413089 -0.30850879 0.152411 0.039095
-2.426255 0.732129 2.711708 0.705017072 0.29610717 -0.644415605 0.148146 0.032471
-2.415601 0.714886 2.715138 0.705911881 0.268804524 -0.655311029 0.200462 0.03332
-2.437446 0.751028 2.708765 0.83764337 0.476224657 -0.267513851 0.102186 0.039251
-2.438683 0.751951 2.706732 0.678108131 0.330403962 -0.656507872 0.097639 0.033296
-2.238297 0.544199 3.159422 0.848117213 0.524810651 0.0726014735 0.813445 0.9403
-2.227837 0.52722 3.162621 0.851197915 0.523898716 0.0314999228 0.864456 0.94176
-2.227191 0.526149 3.164718 0.744839612 0.54022873 0.391620827 0.868598 0.948281
-2.23774 0.543273 3.161494 0.756731413 0.527221885 0.386516045 0.817084 0.947615
-2.215814 0.5079 3.166956 0.860119929 0.509811812 -0.0169003916 0.913904 0.940848
-2.207253 0.492781 3.165482 0.892646325 0.444423064 -0.075303908 0.949454 0.92885
-2.206454 0.491447 3.167579 0.951177415 0.151112299 0.269121903 0.954257 0.93419
-2.21508 0.506684 3.169076 0.76834115 0.498026673 0.402021531 0.918339 0.946677
-2.265175 0.460673 2.783539 0.808233393 0.406216783 -0.426317614 0.819502 0.045229
-2.257159 0.442957 2.778866 0.771000335 0.472200205 -0.427300186 0.870328 0.04494
-2.264827 0.459007 2.781937 0.680291803 0.361495644 -0.637592317 0.823666 0.037995
-2.256723 0.441146 2.777288 0.520596614 0.448697081 -0.726395275 0.874985 0.038635
-2.249356 0.428153 2.775177 0.752811021 0.502807361 -0.424806219 0.916008 0.044567
-2.248831 0.426197 2.773623 0.500394653 0.406395658 -0.764491831 0.920902 0.039157
-2.424958 0.833544 3.056643 0.657878494 0.736875912 -0.155594914 0.051553 0.797196
-2.423693 0.83655 3.073969 0.692208237 0.70000833 -0.17560209 0.053505 0.844281
-2.424829 0.838291 3.075249 0.456237495 0.861870831 -0.221418197 0.047073 0.848949
-2.426104 0.835251 3.057755 0.475892455 0.864286297 -0.162897417 0.044221 0.801161
-2.424016 0.842789 3.09299 0.749101067 0.641500914 -0.165300236 0.053097 0.890426
-2.425143 0.844563 3.094439 0.422329214 0.880960938 -0.213414762 0.047499 0.895268
-2.212386 0.485705 3.112332 0.948256252 0.297617655 -0.110606561 0.954463 0.802099
-2.210563 0.488224 3.131228 0.934601308 0.329000461 -0.135200189 0.955793 0.852468
-2.211592 0.484241 3.113972 0.998073276 -0.0154011307 -0.0601044127 0.96174 0.806395
-2.209759 0.486795 3.133037 0.990910078 -0.0594006041 -0.120701228 0.962215 0.857382
-2.207177 0.488402 3.151259 0.919331745 0.368712732 -0.137404745 0.95877 0.897055
-2.206363 0.487007 3.153236 0.99196753 -0.0868059095 -0.0920062635 0.964302 0.902202
-2.206763 0.486151 3.154011 0.743985805 -0.664987312 0.0653987522 0.970424 0.90602
-2.206858 0.490611 3.168395 0.68450128 -0.297600557 0.665501244 0.959144 0.939553
-2.210162 0.485927 3.133756 0.712777302 -0.699277732 -0.0543982677 0.969208 0.859731
-2.211167 0.485341 3.133932 0.503419823 -0.864034022 -0.0037001457 0.976485 0.860798
-2.207768 0.485564 3.154186 0.513715941 -0.852926467 0.0928028797 0.976842 0.909171
-2.207864 0.490025 3.16857 0.422195793 -0.497495042 0.757792449 0.964071 0.944928
-2.211998 0.483363 3.114636 0.747693547 -0.660894297 0.0645994425 0.969307 0.808121
-2.212921 0.477629 3.090141 0.758888488 -0.636690341 0.136797925 0.970648 0.746305
-2.213927 0.477042 3.090316 0.519314808 -0.832223731 0.194205538 0.978919 0.746868
-2.213003 0.482776 3.114811 0.51590761 -0.848012508 0.121301789 0.977019 0.808563
-2.426189 0.844763 3.095039 -0.229502619 0.961710973 -0.149801709 0.041487 0.898549
-2.425878 0.83848 3.075793 -0.248502492 0.938809416 -0.238502392 0.040571 0.850914
-2.42403 0.845646 3.11039 -0.0276020049 0.872163352 0.488435479 0.05306 0.934802
-2.425035 0.84506 3.110566 -0.337092606 0.748483582 0.571087473 0.047664 0.939518
-2.427195 0.844176 3.095214 -0.516167046 0.846945928 -0.127491861 0.03527 0.901048
-2.426884 0.837893 3.075968 -0.519226281 0.83274215 -0.192209729 0.034033 0.851529
-2.427157 0.835428 3.058243 -0.217702259 0.968610049 -0.120001245 0.0371 0.802423
-2.429837 0.832828 3.034157 -0.214502696 0.972512225 -0.0906011389 0.03318 0.744003
-2.428162 0.834842 3.058418 -0.511901541 0.855902576 -0.0734002209 0.030084 0.802334
-2.430842 0.832241 3.034332 -0.509302042 0.859303446 -0.0470001885 0.025276 0.743758
-2.249326 0.425154 2.773222 0.0748992769 0.0676993464 -0.994890394 0.92473 0.03316
-2.241996 0.416099 2.774834 0.476819538 -0.426617481 -0.768531491 0.959213 0.04657
-2.257247 0.440151 2.77688 -0.052903469 0.219114368 -0.974263885 0.877431 0.031684
-2.258253 0.439564 2.777055 -0.240310648 0.124005495 -0.96274266 0.878772 0.02441
-2.250332 0.424567 2.773397 -0.146601788 -0.0441005378 -0.988212051 0.928024 0.02687
-2.243002 0.415512 2.775009 0.197592594 -0.57577842 -0.793370265 0.964551 0.041859
-2.265381 0.45806 2.78152 0.0317012029 0.144905499 -0.988937526 0.825498 0.030405
-2.276036 0.482415 2.780507 0.248711254 -0.0766034664 -0.965543692 0.763574 0.02848
-2.277042 0.481828 2.780682 -0.0470987241 -0.210894287 -0.97637355 0.764254 0.020139
-2.266387 0.457474 2.781695 -0.188008075 0.0289012413 -0.981742167 0.826162 0.022637
-2.215505 0.505887 3.1699 0.375503609 0.259302492 0.889808551 0.921552 0.952897
-2.227647 0.525401 3.165534 0.289512047 0.363815139 0.88533684 0.870295 0.955052
-2.216511 0.505301 3.170075 0.102305024 0.119505868 0.987548495 0.924154 0.959312
-2.228652 0.524814 3.165709 0.0387002007 0.224501164 0.973705049 0.870769 0.961949
-2.238225 0.542573 3.162302 0.310093063 0.341692356 0.887180154 0.818016 0.955017
-2.251304 0.564041 3.159099 0.325002592 0.323102577 0.888807088 0.757447 0.953941
-2.239231 0.541986 3.162477 0.0546985697 0.198494809 0.978574411 0.817594 0.962464
-2.25231 0.563455 3.159274 0.0669029394 0.178607847 0.981643129 0.756762 0.96219
-2.439766 0.751868 2.706171 0.17499792 0.036599565 -0.983888307 0.094378 0.026953
-2.427308 0.731997 2.711155 0.222807137 -0.0829026554 -0.971331112 0.146416 0.025611
-2.448624 0.767382 2.707265 -0.109297494 0.633985466 -0.765582449 0.056323 0.039593
-2.44963 0.766795 2.70744 -0.422404891 0.498205769 -0.757208769 0.051307 0.034077
-2.440772 0.751281 2.706347 -0.090398842 -0.139498213 -0.986087368 0.091761 0.020415
-2.428314 0.731411 2.711331 -0.0308014363 -0.237311066 -0.970945276 0.145956 0.018633
-2.416625 0.714706 2.714593 0.22930406 -0.0989017511 -0.968317144 0.199449 0.025848
-2.403448 0.694076 2.721166 0.268704078 -0.191402905 -0.944014325 0.26083 0.025919
-2.41763 0.714119 2.714769 -0.0167995148 -0.259592503 -0.965572115 0.199794 0.018332
-2.404454 0.693489 2.721341 0.0393986368 -0.347187988 -0.936967581 0.261268 0.017568
-2.415339 0.832496 3.116257 0.278122603 0.413533607 0.866970457 0.0885 0.949152
-2.403921 0.813372 3.117766 0.330010341 0.290309097 0.898228146 0.137661 0.951585
-2.404927 0.812785 3.117941 0.0817014943 0.153802813 0.984718011 0.136293 0.95911
-2.416344 0.83191 3.116432 0.018400171 0.25710239 0.966208981 0.085085 0.955564
-2.393584 0.796329 3.120046 0.323101123 0.311001081 0.893803106 0.190399 0.952092
-2.380631 0.774907 3.122682 0.331598864 0.292298999 0.896996928 0.252541 0.949888
-2.381637 0.77432 3.122858 0.0838965863 0.150393881 0.985059919 0.252452 0.958409
-2.39459 0.795742 3.120221 0.0720019495 0.1699046 0.98282661 0.190047 0.960078
-2.235638 0.416014 2.786003 0.748436671 -0.615730168 -0.246412073 0.972701 0.083652
-2.230971 0.420248 2.802602 0.771583944 -0.635886767 -0.0174996358 0.974542 0.133419
-2.236644 0.415428 2.786178 0.484021489 -0.866438466 -0.122505439 0.978985 0.081219
-2.231976 0.419662 2.802777 0.513805076 -0.852608424 0.0952009406 0.98128 0.133003
-2.228712 0.42415 2.820503 0.759655073 -0.648647025 0.0467033859 0.974083 0.184885
-2.226837 0.42833 2.845257 0.753210779 -0.656709398 0.0375005366 0.973293 0.245296
-2.229717 0.423563 2.820679 0.515112399 -0.849720453 0.112402706 0.981392 0.185263
-2.227843 0.427744 2.845433 0.513077638 -0.853962781 0.0865962258 0.981483 0.245805
-2.448509 0.771604 2.72206 -0.243597204 0.960988968 -0.130998496 0.045238 0.073255
-2.444793 0.77147 2.742933 -0.256005683 0.966621459 -0.0102002264 0.046747 0.120182
-2.445799 0.770884 2.743108 -0.50141409 0.865024308 0.0178005002 0.039322 0.119095
-2.449514 0.771018 2.722235 -0.511707013 0.856311736 -0.069900958 0.038688 0.070019
-2.442852 0.773916 2.762259 -0.23601052 0.960242804 -0.149106647 0.046473 0.17262
-2.441929 0.77965 2.786755 -0.228111116 0.946246112 -0.229311175 0.044703 0.235448
-2.442934 0.779063 2.78693 -0.519208635 0.832313841 -0.194103228 0.036311 0.234802
-2.443858 0.773329 2.762435 -0.515484417 0.848874339 -0.116996463 0.038626 0.172157
-2.38351 0.66419 2.735554 0.28420872 -0.212006504 -0.935028687 0.337917 0.02408
-2.359676 0.629103 2.748514 0.220598952 -0.0634996984 -0.973295377 0.423936 0.021938
-2.384516 0.663603 2.735729 0.0491992773 -0.362494675 -0.930686328 0.338373 0.0144
-2.360682 0.628516 2.748689 -0.0329016617 -0.233711804 -0.971749079 0.424443 0.011094
-2.334808 0.592872 2.750804 0.162100877 0.041400224 -0.985905334 0.512113 0.021097
-2.311294 0.555439 2.753381 0.24220898 -0.0735027252 -0.967435868 0.600291 0.021993
-2.335814 0.592286 2.750979 -0.0968033257 -0.128804425 -0.986933907 0.512814 0.009916
-2.3123 0.554853 2.753556 -0.034800082 -0.230700543 -0.97240229 0.601148 0.011256
-2.291522 0.516748 2.767205 0.329311841 -0.188406774 -0.925233267 0.686308 0.025065
-2.292528 0.516161 2.76738 0.0322001293 -0.33630135 -0.941203779 0.687105 0.015505
-2.361365 0.742643 3.125262 0.33470212 0.291801849 0.896005676 0.329913 0.944188
-2.338914 0.70555 3.12995 0.306402644 0.35230304 0.884307632 0.416467 0.940516
-2.33992 0.704963 3.130125 0.0466982528 0.211492087 0.976263474 0.415778 0.951586
-2.36237 0.742057 3.125438 0.0831034829 0.151606354 0.98494128 0.329609 0.95404
-2.316408 0.669637 3.138909 0.275010389 0.397915032 0.875233062 0.506157 0.944397
-2.293776 0.633678 3.148434 0.289207738 0.370109902 0.88282362 0.595576 0.95037
-2.294782 0.633091 3.148609 0.0336996217 0.232597389 0.971989089 0.594548 0.961033
-2.317414 0.669051 3.139084 0.0170999854 0.259099778 0.965699174 0.505215 0.955663
-2.270948 0.596445 3.15482 0.319409509 0.328309774 0.888926464 0.68132 0.952971
-2.271954 0.595858 3.154995 0.0620982544 0.186594755 0.980472439 0.680405 0.962461
-2.213583 0.467896 3.053762 0.758186755 -0.634288919 0.15109736 0.973153 0.669397
-2.214591 0.456942 3.011313 0.754387538 -0.643789365 0.128197882 0.975414 0.583764
-2.215596 0.456355 3.011488 0.518909896 -0.83531593 0.181603463 0.98612 0.584567
-2.214589 0.46731 3.053937 0.519623807 -0.828937979 0.207009484 0.982661 0.670118
-2.216549 0.447541 2.968605 0.751229806 -0.654025949 0.0889035273 0.976023 0.495773
-2.219459 0.439694 2.925637 0.74992417 -0.659721263 0.0488015729 0.975444 0.40772
-2.220465 0.439107 2.925813 0.514078622 -0.851964572 0.0993958667 0.986236 0.408277
-2.217555 0.446954 2.96878 0.516908961 -0.844414638 0.140602437 0.987174 0.496471
-2.22332 0.433401 2.882412 0.750944867 -0.659939429 0.0237014161 0.97414 0.321901
-2.224326 0.432814 2.882587 0.511894016 -0.855889995 0.0735991396 0.983718 0.322432
-2.441266 0.789382 2.823133 -0.22939922 0.940996801 -0.248799154 0.041722 0.313545
-2.440555 0.800767 2.865325 -0.233401898 0.941707656 -0.24230197 0.037951 0.400392
-2.44156 0.80018 2.8655 -0.51959137 0.829086229 -0.20649657 0.027104 0.399294
-2.442272 0.788796 2.823308 -0.519708414 0.827313394 -0.213203452 0.032084 0.312628
-2.439483 0.811457 2.90726 -0.23609582 0.94778322 -0.214396204 0.033811 0.489468
-2.437419 0.820739 2.950174 -0.232796068 0.958683808 -0.163497239 0.030924 0.578843
-2.438425 0.820152 2.950349 -0.516112506 0.847320531 -0.125203034 0.020078 0.578082
-2.440489 0.810871 2.907435 -0.518718534 0.836229879 -0.177906357 0.022529 0.488464
-2.43373 0.827897 2.995303 -0.223400772 0.967703343 -0.116800404 0.030918 0.666582
-2.434736 0.82731 2.995479 -0.512100507 0.855600847 -0.0755000747 0.021467 0.666094
-2.21576 0.466627 3.054142 0.230008407 -0.942334443 0.243108886 0.670997 0.971921
-2.217853 0.455734 3.011606 -0.451396375 -0.86429306 0.221898218 0.585657 0.962848
-2.216768 0.455672 3.011692 0.234093733 -0.947274642 0.218794143 0.58566 0.973541
-2.216853 0.466663 3.053926 -0.458398512 -0.857197219 0.234699238 0.670608 0.962423
-2.216197 0.476373 3.090194 -0.463923071 -0.855842562 0.228711374 0.746378 0.962506
-2.215098 0.476359 3.09052 0.228111116 -0.946246112 0.229311175 0.74704 0.970615
-2.214092 0.476946 3.090345 0.519208635 -0.832313841 0.194103228 0.746537 0.978717
-2.214755 0.467213 3.053967 0.519591487 -0.828986417 0.20689661 0.67052 0.981449
-2.215762 0.456259 3.011517 0.518793474 -0.835389491 0.181597716 0.585136 0.984304
-2.218726 0.446271 2.968984 0.234210926 -0.955544577 0.179108356 0.497658 0.974342
-2.222707 0.438539 2.92619 -0.453918681 -0.872835922 0.179207375 0.410486 0.963111
-2.221636 0.438424 2.926017 0.229611164 -0.963246834 0.139406778 0.409368 0.973822
-2.219804 0.44636 2.969028 -0.450231398 -0.870060676 0.200713997 0.49823 0.96326
-2.217721 0.446858 2.968809 0.516982237 -0.844370988 0.140595169 0.496975 0.985505
-2.22063 0.439011 2.925842 0.514195987 -0.851893351 0.0993992242 0.408562 0.984595
-2.225497 0.432131 2.882791 0.222794393 -0.967975641 0.115697089 0.323168 0.971475
-2.23007 0.427223 2.84605 -0.467215463 -0.867428708 0.171105663 0.24728 0.960205
-2.229014 0.427061 2.845637 0.222410654 -0.966246284 0.130006227 0.245646 0.968623
-2.226561 0.432272 2.883094 -0.462316933 -0.871131906 0.165506062 0.324583 0.961855
-2.224492 0.432718 2.882616 0.511894016 -0.855889995 0.0735991396 0.322423 0.981121
-2.228008 0.427647 2.845461 0.513121454 -0.853935704 0.086603621 0.244948 0.977089
-2.443443 0.788113 2.823512 -0.758729883 0.632324905 -0.156506164 0.331789 0.035992
-2.443155 0.798555 2.866053 -0.999767563 0.0113996301 0.0182994063 0.418308 0.043865
-2.442731 0.799497 2.865704 -0.755882804 0.636985509 -0.151296558 0.418144 0.033003
-2.443859 0.787197 2.82399 -0.999859128 0.00400023656 0.016300964 0.332306 0.045604
-2.444515 0.777487 2.787723 -0.999654478 0.00210011445 0.0262014279 0.25551 0.046158
-2.444105 0.77838 2.787134 -0.758936806 0.636630874 -0.136806635 0.254767 0.037964
-2.4431 0.778967 2.786958 -0.519208635 0.832313841 -0.194103228 0.255199 0.029763
-2.442437 0.788699 2.823337 -0.519719492 0.82733103 -0.213107993 0.332111 0.02633
-2.441726 0.800084 2.865529 -0.51959137 0.829086229 -0.20649657 0.418449 0.022044
-2.44166 0.810187 2.907639 -0.752793917 0.646394777 -0.124398995 0.50708 0.029673
-2.440034 0.818475 2.950643 -0.997879589 0.0276994334 0.0588987952 0.595669 0.038693
-2.439596 0.819469 2.950553 -0.750594937 0.656695571 -0.0731995063 0.596711 0.027757
-2.442091 0.809219 2.907858 -0.999274724 0.0210994663 0.0316991982 0.506646 0.041003
-2.440654 0.810774 2.907464 -0.518800851 0.836201371 -0.177800292 0.507545 0.018229
-2.43859 0.820056 2.950378 -0.516112506 0.847320531 -0.125203034 0.597375 0.016755
-2.435907 0.826627 2.995682 -0.750687036 0.660188599 -0.02489957 0.685152 0.029009
-2.432465 0.830516 3.034385 -0.99457523 0.015899604 0.10279744 0.761871 0.041067
-2.432014 0.831558 3.034536 -0.752164333 0.658968752 0.00299985775 0.763607 0.032921
-2.436353 0.825607 2.995643 -0.99597781 0.0229994876 0.0865980706 0.683723 0.03861
-2.434901 0.827214 2.995507 -0.512100507 0.855600847 -0.0755000747 0.685917 0.01949
-2.431008 0.832145 3.034361 -0.509227975 0.85934721 -0.0470025822 0.764443 0.02493
-2.363542 0.741374 3.125642 -0.174410593 -0.00510030978 0.984659805 0.956035 0.332925
-2.341812 0.703605 3.129867 -0.706900011 -0.315600005 0.633000009 0.941776 0.419331
-2.341091 0.70428 3.130329 -0.21581408 0.0478031188 0.975263628 0.952713 0.419351
-2.364194 0.740587 3.125198 -0.680699517 -0.341299758 0.64819954 0.946488 0.333125
-2.383402 0.772755 3.122634 -0.673503169 -0.339701598 0.656503089 0.953556 0.256869
-2.382808 0.773637 3.123061 -0.173100413 -0.00190000453 0.984902349 0.961545 0.256455
-2.381802 0.774224 3.122886 0.0838965863 0.150393881 0.985059919 0.969509 0.2573
-2.362536 0.74196 3.125466 0.0832027952 0.151605093 0.984933089 0.965593 0.333713
-2.340085 0.704867 3.130154 0.0467980303 0.211491099 0.97625891 0.963722 0.419952
-2.318585 0.668368 3.139288 -0.242398866 0.0961995498 0.965395482 0.956586 0.508772
-2.296811 0.631957 3.148314 -0.704043747 -0.29531835 0.645840131 0.951298 0.597604
-2.295953 0.632409 3.148813 -0.22340657 0.0711020911 0.972128591 0.96217 0.598403
-2.319374 0.667804 3.138807 -0.717091732 -0.286896692 0.635192676 0.945264 0.508385
-2.317579 0.668954 3.139113 0.0170999854 0.259099778 0.965699174 0.968015 0.509197
-2.294947 0.632995 3.148638 0.0336996217 0.232597389 0.971989089 0.973146 0.598717
-2.273125 0.595175 3.1552 -0.200109559 0.0253012087 0.979446789 0.963979 0.685457
-2.254465 0.562528 3.158944 -0.693190334 -0.331895372 0.639791078 0.954905 0.762176
-2.253481 0.562772 3.159478 -0.198103208 0.0180002915 0.980015872 0.963478 0.763688
-2.274051 0.594835 3.154681 -0.692917153 -0.323808016 0.644215948 0.954224 0.684309
-2.272119 0.595762 3.155024 0.0621978651 0.186593595 0.980466346 0.973791 0.685785
-2.252475 0.563359 3.159303 0.0672016008 0.178604254 0.981623383 0.972118 0.76418
-2.385687 0.66292 2.735933 -0.187308082 -0.492121233 -0.85013668 0.032744 0.325848
-2.406149 0.692171 2.722342 -0.675427349 -0.611924777 -0.411516663 0.044861 0.248944
-2.405625 0.692806 2.721545 -0.20051864 -0.46504323 -0.862280157 0.036233 0.247241
-2.38627 0.66238 2.736714 -0.683421966 -0.619619915 -0.386012407 0.042491 0.327294
-2.362504 0.627405 2.749656 -0.732123641 -0.575118571 -0.365011786 0.040755 0.41383
-2.361853 0.627833 2.748893 -0.285197487 -0.388296579 -0.87629228 0.029971 0.412716
-2.360847 0.62842 2.748718 -0.0362986152 -0.228091298 -0.972962882 0.019123 0.411905
-2.384681 0.663507 2.735758 0.0489995147 -0.361996414 -0.93089078 0.022963 0.325067
-2.404619 0.693393 2.72137 0.0392987949 -0.347189354 -0.936971268 0.027535 0.246491
-2.336985 0.591602 2.751183 -0.341193279 -0.282994425 -0.896382341 0.029621 0.501376
-2.337704 0.591286 2.751927 -0.756278865 -0.522654503 -0.393541039 0.040752 0.501899
-2.314259 0.553965 2.754486 -0.74751381 -0.511809456 -0.423407823 0.041859 0.589519
-2.313471 0.55417 2.75376 -0.285613561 -0.355816895 -0.889842251 0.031131 0.589607
-2.312465 0.554756 2.753585 -0.0375992005 -0.226095192 -0.973379301 0.020325 0.589185
-2.335979 0.592189 2.751008 -0.096704258 -0.128805671 -0.986943456 0.018406 0.500745
-2.293699 0.515478 2.767584 -0.249516002 -0.441528316 -0.861855273 0.033935 0.675189
-2.294555 0.515384 2.768291 -0.754858126 -0.513039506 -0.408631466 0.043449 0.674707
-2.279128 0.481148 2.781577 -0.793002105 -0.441301172 -0.420001115 0.044505 0.750567
-2.278213 0.481145 2.780886 -0.323904527 -0.313004374 -0.892812477 0.036405 0.751314
-2.277207 0.481732 2.780711 -0.0336988377 -0.232691975 -0.971966477 0.028309 0.750937
-2.292693 0.516064 2.767409 0.0312002376 -0.334702549 -0.941807172 0.024392 0.674823
-2.230889 0.42288 2.820883 0.238502707 -0.957210864 0.16390186 0.183392 0.966585
-2.234197 0.419168 2.803525 -0.370491942 -0.881280832 0.293393619 0.13338 0.956995
-2.233147 0.418979 2.802981 0.256917858 -0.950766085 0.173312046 0.130755 0.964031
-2.231941 0.423058 2.821371 -0.437996538 -0.872493103 0.216598288 0.185338 0.958879
-2.229883 0.423467 2.820708 0.51520321 -0.849705294 0.112100698 0.182529 0.974511
-2.232142 0.419565 2.802806 0.514211297 -0.851918717 0.0991021773 0.129085 0.971419
-2.237815 0.414745 2.786382 0.221712389 -0.975054483 0.0106005923 0.082085 0.95963
-2.245209 0.415026 2.775857 -0.551120913 -0.819731105 -0.155905916 0.052462 0.939653
-2.244173 0.414829 2.775213 -0.0515007383 -0.808811594 -0.585808398 0.047199 0.944212
-2.238861 0.414945 2.786982 -0.350111417 -0.897129256 0.269408786 0.086028 0.953672
-2.236809 0.415331 2.786207 0.493808775 -0.866915405 -0.0679012066 0.078538 0.965848
-2.243167 0.415416 2.775038 0.27729099 -0.678677947 -0.680077901 0.041786 0.948678
-2.445029 0.772646 2.762639 -0.746719915 0.662417667 -0.0601016029 0.193829 0.038243
-2.445435 0.771767 2.763302 -0.997950872 0.0158008055 0.0620031607 0.194792 0.045465
-2.447373 0.769333 2.744032 -0.989738531 0.0639024878 0.127804976 0.144422 0.043251
-2.44697 0.770201 2.743312 -0.707692293 0.703192342 0.068499254 0.142832 0.036653
-2.445965 0.770787 2.743137 -0.50141409 0.865024308 0.0178005002 0.142774 0.029989
-2.444023 0.773233 2.762464 -0.515484417 0.848874339 -0.116996463 0.194379 0.031019
-2.450685 0.770335 2.722439 -0.73934847 0.671844044 -0.044602924 0.09563 0.033021
-2.451085 0.769478 2.723215 -0.989998272 0.0949998342 0.104299818 0.09867 0.039241
-2.451205 0.765277 2.70846 -0.951245295 -0.147807038 -0.27071289 0.06524 0.047437
-2.450801 0.766112 2.707644 -0.68399053 0.298795863 -0.665490786 0.060454 0.041841
-2.449795 0.766699 2.707469 -0.422393947 0.498092862 -0.757289148 0.055826 0.036057
-2.44968 0.770921 2.722264 -0.511633191 0.856355554 -0.0699045349 0.093509 0.026561
-2.240402 0.541303 3.162681 -0.207601598 0.0397003055 0.977407521 0.962132 0.82685
-2.230877 0.523999 3.16536 -0.702396527 -0.303798498 0.643696817 0.95207 0.877944
-2.229823 0.524131 3.165913 -0.217612586 0.0681039389 0.973656313 0.959362 0.880711
-2.241426 0.541123 3.162137 -0.698031688 -0.321114577 0.640029055 0.954207 0.824881
-2.239396 0.54189 3.162506 0.0548979628 0.198492634 0.978563686 0.970298 0.827682
-2.228818 0.524718 3.165738 0.0387002007 0.224501164 0.973705049 0.967025 0.882491
-2.217682 0.504618 3.17028 -0.167000342 -0.0571001171 0.984302018 0.954591 0.931036
-2.210139 0.489298 3.168221 -0.497096791 -0.693495524 0.521496634 0.934418 0.960972
-2.209035 0.489342 3.168774 0.108100494 -0.633802896 0.7659035 0.939075 0.966456
-2.218765 0.504534 3.169719 -0.6745738 -0.343586655 0.653374623 0.948437 0.92688
-2.216676 0.505204 3.170104 0.102403981 0.119504645 0.987538386 0.960995 0.934808
-2.208029 0.489928 3.168599 0.422195793 -0.497495042 0.757792449 0.943576 0.972127
-2.267558 0.456791 2.781899 -0.400905703 -0.057500818 -0.914313006 0.036908 0.811177
-2.268512 0.456857 2.782579 -0.814422372 -0.318708755 -0.484913321 0.044009 0.810205
-2.260408 0.438996 2.777931 -0.812198339 -0.274999438 -0.514498948 0.042835 0.859836
-2.259424 0.438881 2.777259 -0.41459228 0.0201996239 -0.90978306 0.036419 0.861399
-2.258419 0.439468 2.777084 -0.240504309 0.124602232 -0.962617245 0.029887 0.861668
-2.266552 0.457377 2.781724 -0.180491909 0.0153993097 -0.983455913 0.029777 0.810801
-2.251503 0.423884 2.773601 -0.363923112 -0.242315389 -0.899357115 0.035913 0.908606
-2.252516 0.424048 2.774265 -0.775633252 -0.459319691 -0.43291856 0.041859 0.90568
-2.250497 0.424471 2.773426 -0.139401588 -0.0567006461 -0.988611265 0.02973 0.910789
-2.395761 0.795059 3.120425 -0.185797257 0.0141997903 0.982485494 0.964234 0.196901
-2.396316 0.794113 3.120008 -0.683442822 -0.330820728 0.650740773 0.957138 0.197666
-2.406623 0.811107 3.117736 -0.679420991 -0.337310421 0.651620132 0.958247 0.148005
-2.406098 0.812102 3.118145 -0.170395606 -0.00149996132 0.985374592 0.964808 0.146475
-2.405092 0.812689 3.11797 0.0816009033 0.153901704 0.984710901 0.971481 0.146187
-2.394756 0.795646 3.12025 0.0720019495 0.1699046 0.98282661 0.971351 0.197531
-2.417515 0.831227 3.116636 -0.259301446 0.100000558 0.960605355 0.963974 0.097392
-2.41801 0.830184 3.116235 -0.699479642 -0.293991444 0.651381042 0.957895 0.100374
-2.426679 0.8433 3.110389 -0.905331637 -0.0259009051 0.423914814 0.946363 0.065332
-2.426207 0.844377 3.11077 -0.605400663 0.535100586 0.589200645 0.95171 0.060727
-2.425201 0.844963 3.110594 -0.336890099 0.748578 0.571083216 0.957125 0.056121
-2.41651 0.831814 3.116461 0.018400171 0.25710239 0.966208981 0.970262 0.095048
-2.418802 0.713436 2.714973 -0.267306311 -0.388509173 -0.88182082 0.038733 0.183365
-2.429941 0.729979 2.71235 -0.739654381 -0.546440176 -0.392828882 0.048867 0.131491
-2.429485 0.730727 2.711535 -0.278716994 -0.37542289 -0.883953896 0.041436 0.128671
-2.419286 0.712736 2.71578 -0.719632193 -0.56262517 -0.406918204 0.046765 0.185435
-2.417796 0.714023 2.714797 -0.0167995148 -0.259592503 -0.965572115 0.030448 0.182441
-2.42848 0.731314 2.71136 -0.0308014363 -0.237311066 -0.970945276 0.03362 0.126886
-2.441943 0.750598 2.70655 -0.361606567 -0.27640502 -0.89041617 0.045532 0.077611
-2.442369 0.749801 2.707374 -0.759602366 -0.508101583 -0.406001265 0.051832 0.08184
-2.440937 0.751185 2.706375 -0.090398842 -0.139498213 -0.986087368 0.038972 0.073795
-2.214174 0.482093 3.115015 0.235411799 -0.959648099 0.153807709 0.807162 0.970754
-2.215277 0.482092 3.114614 -0.460618985 -0.866135699 0.194007996 0.80626 0.96362
-2.213445 0.484645 3.133679 -0.435287732 -0.891174883 0.127796398 0.855945 0.965906
-2.212338 0.484658 3.134136 0.253898595 -0.966894648 0.0254998589 0.857469 0.972397
-2.211333 0.485244 3.13396 0.503301663 -0.864102856 -0.00370001223 0.857526 0.97896
-2.213168 0.48268 3.11484 0.515717073 -0.848128078 0.121304016 0.806599 0.977886
-2.20894 0.484881 3.154391 0.240805441 -0.958421656 0.153103459 0.904071 0.975604
-2.210049 0.484857 3.153878 -0.405238246 -0.901585091 0.15141429 0.901126 0.969502
-2.207934 0.485468 3.154216 0.513598511 -0.852997526 0.0927997309 0.906135 0.981942
-2.429333 0.834159 3.058622 -0.754904129 0.655303585 -0.0264001444 0.823277 0.038987
-2.428514 0.836141 3.075891 -0.99939948 0.0127999933 0.0321999833 0.869304 0.051512
-2.428055 0.83721 3.076172 -0.74553166 0.648927557 -0.151906451 0.872096 0.0447
-2.42979 0.833101 3.058397 -0.995610494 0.00600006324 0.0934009845 0.821174 0.046378
-2.428328 0.834745 3.058447 -0.511975331 0.855858761 -0.0733964635 0.824226 0.031571
-2.427049 0.837797 3.075997 -0.51929932 0.832698909 -0.192199748 0.873751 0.037652
-2.428366 0.843493 3.095418 -0.751220505 0.657417944 -0.0589016077 0.917995 0.047554
-2.428829 0.842413 3.095081 -0.998038395 0.0525020198 0.0341013119 0.913934 0.053437
-2.427361 0.84408 3.095243 -0.516217343 0.846928453 -0.12740428 0.921503 0.041412
-2.428205 0.840346 3.09372 -0.918388713 -0.374095402 0.128898416 0.908765 0.058802
-2.423373 0.834524 3.10428 -0.880344322 -0.429121605 0.202110175 0.929642 0.081839
-2.426084 0.841243 3.108895 -0.883891364 -0.421195885 0.203298014 0.941154 0.069937
-2.425331 0.833615 3.092888 -0.915875006 -0.360390165 0.176895173 0.904341 0.074136
-2.425973 0.82726 3.074261 -0.959489897 -0.215997726 0.180898095 0.859489 0.07391
-2.427881 0.834108 3.074698 -0.939724757 -0.317908375 0.125903317 0.864243 0.057855
-2.429147 0.831101 3.057372 -0.95850542 -0.249001408 0.138800785 0.816762 0.053723
-2.428293 0.823565 3.057168 -0.982648539 -0.0591029195 0.175808684 0.812659 0.071168
-2.43171 0.820234 3.033697 -0.991477538 0.0334992411 0.125897148 0.755237 0.068531
-2.43181 0.828561 3.033584 -0.970152457 -0.20361101 0.131707122 0.758332 0.049524
-2.211365 0.48596 3.151989 -0.745412296 -0.645910654 0.164802718 0.896422 0.963871
-2.220623 0.489756 3.129878 -0.559522185 -0.796231571 0.230109124 0.847485 0.943558
-2.214751 0.485781 3.131958 -0.68698953 -0.708789198 0.160197559 0.851488 0.959558
-2.216447 0.490977 3.149338 -0.697658717 -0.674456765 0.241620336 0.892697 0.948261
-2.215869 0.494785 3.160005 -0.776022067 -0.566716115 0.276807871 0.918547 0.94288
-2.211441 0.490338 3.166212 -0.798443656 -0.554730331 0.234012795 0.929449 0.95586
-2.216575 0.483262 3.113062 -0.641250337 -0.74345836 0.189914908 0.802431 0.956485
-2.224593 0.480834 3.087457 -0.389715392 -0.887635058 0.245409693 0.741459 0.937074
-2.217481 0.477588 3.088864 -0.621525654 -0.754831156 0.209608652 0.743386 0.954383
-2.223143 0.486655 3.111361 -0.441997909 -0.863895914 0.241498858 0.799329 0.939957
-2.441634 0.748585 2.709495 -0.858872611 -0.511583686 -0.024899206 0.057611 0.086894
-2.446936 0.758696 2.71723 -0.90753274 -0.419415131 0.0218007865 0.081614 0.065945
-2.450406 0.763943 2.710556 -0.898082622 -0.435291577 0.062998781 0.070345 0.052655
-2.441183 0.747061 2.7167 -0.881425183 -0.460113146 -0.106703049 0.073015 0.092201
-2.430358 0.727375 2.721528 -0.827333156 -0.486019478 -0.281611286 0.071648 0.141446
-2.429295 0.728908 2.714447 -0.839747384 -0.531529992 -0.110906258 0.055531 0.136381
-2.41873 0.71181 2.717853 -0.818062727 -0.549642145 -0.169312983 0.054291 0.189796
-2.420797 0.710114 2.724953 -0.750158117 -0.527140839 -0.39923093 0.071231 0.193651
-2.408383 0.689671 2.731672 -0.667330094 -0.602627176 -0.437619735 0.071279 0.255069
-2.40571 0.691436 2.724382 -0.78374683 -0.588535166 -0.198411855 0.053351 0.252553
-2.417485 0.828228 3.114682 -0.84355266 -0.458328612 0.279917474 0.952234 0.104634
-2.407154 0.805735 3.110218 -0.831445727 -0.358319706 0.424623353 0.936138 0.155694
-2.406186 0.809296 3.116159 -0.827124041 -0.44451292 0.343909996 0.951909 0.152021
-2.417356 0.824601 3.108481 -0.863840995 -0.416819781 0.282913426 0.937078 0.108407
-2.395968 0.792447 3.118406 -0.806440283 -0.419520956 0.416720816 0.950083 0.201224
-2.386425 0.767033 3.115516 -0.662481176 -0.283691939 0.693280301 0.928707 0.261839
-2.383172 0.771281 3.121 -0.776276937 -0.410187814 0.478685778 0.945514 0.259799
-2.398183 0.788524 3.11268 -0.75962424 -0.297909506 0.578118448 0.933703 0.204136
-2.253545 0.425711 2.775906 -0.845169112 -0.531943499 0.0522042689 0.047327 0.901267
-2.26325 0.442301 2.784205 -0.87218738 -0.453693435 -0.182897353 0.064952 0.852003
-2.261348 0.440514 2.779596 -0.898931602 -0.419214738 -0.127204472 0.04902 0.855684
-2.254362 0.428119 2.78054 -0.793913933 -0.601510557 0.0888015585 0.062656 0.897806
-2.247938 0.421387 2.781846 -0.701923494 -0.653221864 0.283909503 0.06942 0.923968
-2.246307 0.416789 2.777438 -0.716624108 -0.647021766 0.26040876 0.057425 0.934909
-2.269363 0.45823 2.784269 -0.903373746 -0.378930933 -0.200816393 0.051051 0.806537
-2.282494 0.482912 2.791454 -0.842045046 -0.446523887 -0.302616189 0.070057 0.745626
-2.279861 0.482328 2.783298 -0.88175953 -0.434029302 -0.18471247 0.052614 0.747571
-2.271693 0.459398 2.790434 -0.883320586 -0.359108369 -0.301307022 0.067627 0.803606
-2.220002 0.505458 3.167686 -0.821389429 -0.473293909 0.318295904 0.942783 0.921957
-2.222872 0.505481 3.161014 -0.764893017 -0.506495376 0.397996366 0.927558 0.91687
-2.235605 0.52358 3.157107 -0.718435312 -0.421520718 0.553327197 0.929539 0.868315
-2.232025 0.524778 3.163351 -0.808055398 -0.434029756 0.398327308 0.945523 0.873204
-2.242485 0.541756 3.160152 -0.787363346 -0.415933463 0.455036609 0.946765 0.820638
-2.246683 0.539798 3.154143 -0.666782224 -0.352190611 0.65678249 0.929972 0.816851
-2.259974 0.5605 3.151059 -0.64160983 -0.308604728 0.702210758 0.928889 0.756064
-2.255407 0.562969 3.156992 -0.775199934 -0.406799965 0.483299959 0.946465 0.758622
-2.450271 0.768083 2.725192 -0.934047801 -0.331816981 0.132106761 0.103549 0.044984
-2.44534 0.761199 2.748757 -0.992904314 -0.109700477 0.0459001994 0.153389 0.065865
-2.446569 0.767904 2.74584 -0.959386271 -0.250096421 0.130498133 0.149076 0.049715
-2.447608 0.761565 2.728376 -0.955019062 -0.291805825 0.0528010539 0.107609 0.060787
-2.44464 0.770304 2.764943 -0.975616683 -0.1988034 0.0930015903 0.198779 0.052685
-2.443879 0.7685 2.791812 -0.996867577 0.0789974307 -0.00379987641 0.260678 0.07178
-2.443733 0.775979 2.78914 -0.981201177 -0.180000216 0.0696000835 0.258605 0.054337
-2.444337 0.763257 2.767735 -0.999662331 0.0233014529 0.0115007171 0.202116 0.069338
-2.239988 0.416719 2.788431 -0.634643141 -0.689246853 0.34952376 0.090763 0.948236
-2.24426 0.42145 2.789805 -0.624892717 -0.725291547 0.288896633 0.095183 0.933023
-2.240902 0.425166 2.805493 -0.526324819 -0.818638604 0.229810837 0.142372 0.934696
-2.235333 0.420908 2.804806 -0.638702647 -0.717902976 0.276901148 0.137915 0.950665
-2.233087 0.424764 2.822483 -0.637399057 -0.745398897 0.195199711 0.189451 0.951613
-2.239523 0.428629 2.823123 -0.440212696 -0.881225415 0.172204966 0.193 0.934819
-2.238219 0.432561 2.84767 -0.393706703 -0.90511541 0.160502733 0.253243 0.934153
-2.231229 0.428885 2.846939 -0.623728415 -0.763634788 0.166807599 0.250786 0.951885
-2.295112 0.516277 2.77006 -0.85925157 -0.482228942 -0.170710245 0.052904 0.672531
-2.318509 0.554147 2.766157 -0.769537227 -0.526625476 -0.361217474 0.072287 0.587481
-2.314611 0.554523 2.756311 -0.840672809 -0.517183272 -0.160594806 0.052433 0.588411
-2.298459 0.516344 2.779491 -0.791205879 -0.519103857 -0.323302402 0.071619 0.671071
-2.337852 0.591509 2.753808 -0.816274819 -0.549550371 -0.178016317 0.051715 0.502206
-2.365705 0.626212 2.759906 -0.699035201 -0.582329324 -0.415020899 0.0715 0.416873
-2.362446 0.627293 2.751592 -0.785310794 -0.58490804 -0.202902789 0.051408 0.415548
-2.341567 0.590775 2.763063 -0.750849914 -0.530435262 -0.393526161 0.072037 0.502399
-2.386007 0.661933 2.738706 -0.765334705 -0.609127622 -0.207909428 0.052172 0.330067
-2.388998 0.660441 2.746383 -0.645789458 -0.630989699 -0.429892982 0.071308 0.331953
-2.274817 0.594989 3.152777 -0.774986081 -0.398392845 0.490591189 0.944579 0.68152
-2.279345 0.592051 3.146796 -0.640192225 -0.283496557 0.713991329 0.926321 0.679536
-2.301669 0.628468 3.140568 -0.64891684 -0.251706532 0.718018633 0.92217 0.594429
-2.297371 0.631775 3.146465 -0.783655469 -0.380226913 0.491234771 0.940634 0.595835
-2.31973 0.667288 3.137014 -0.783602993 -0.36380139 0.503601924 0.934156 0.50807
-2.323822 0.663771 3.131595 -0.640207766 -0.223702714 0.734908914 0.916335 0.507902
-2.345865 0.699033 3.123117 -0.610494466 -0.236797853 0.755793149 0.913935 0.421536
-2.341963 0.702754 3.128129 -0.766884992 -0.375192658 0.52068981 0.930985 0.420475
-2.36414 0.739401 3.123516 -0.757907386 -0.400303901 0.51510502 0.93696 0.335301
-2.367859 0.735328 3.118376 -0.604320248 -0.27130909 0.7491251 0.920089 0.33691
-2.435678 0.823719 2.995174 -0.975239381 -0.188407608 0.115804676 0.680963 0.048377
-2.435643 0.814971 2.995935 -0.995151545 0.0546028282 0.0818042372 0.678613 0.068618
-2.439123 0.807812 2.951998 -0.997474849 0.0452988578 0.0546986208 0.592348 0.070386
-2.439337 0.816665 2.950563 -0.976408021 -0.191901576 0.0990008133 0.593871 0.049498
-2.441372 0.807488 2.908166 -0.977970026 -0.192094112 0.081697496 0.506275 0.052107
-2.441182 0.798795 2.909999 -0.998540811 0.0449018352 0.0300012262 0.506003 0.072793
-2.442372 0.788545 2.868857 -0.998032392 0.0615019961 0.012200396 0.420303 0.074398
-2.442414 0.796902 2.866749 -0.980016538 -0.186003139 0.0705011897 0.419407 0.054535
-2.443096 0.785621 2.825074 -0.981713774 -0.178702507 0.0656009204 0.334499 0.055116
-2.443248 0.777688 2.827491 -0.996640101 0.0819032954 0.000600024142 0.335967 0.073764
-2.227738 0.433866 2.88365 -0.622411228 -0.765013801 0.165402984 0.327339 0.952283
-2.235086 0.437687 2.884109 -0.391094677 -0.904887685 0.167997714 0.329277 0.933462
-2.231454 0.444089 2.92638 -0.405194374 -0.895687563 0.183197456 0.413638 0.932857
-2.223906 0.440055 2.926358 -0.626805654 -0.75940685 0.174401573 0.41223 0.952528
-2.221026 0.447798 2.968807 -0.627910113 -0.755312164 0.187703023 0.498583 0.952339
-2.228655 0.451851 2.968425 -0.411407623 -0.888716468 0.202303749 0.498861 0.932449
-2.226689 0.460972 3.010244 -0.403014851 -0.887932721 0.22170817 0.583751 0.932813
-2.219096 0.457094 3.010998 -0.625214693 -0.75401772 0.201404733 0.584602 0.952298
-2.218118 0.467945 3.05293 -0.619789659 -0.75578739 0.211296475 0.668489 0.952983
-2.225554 0.471453 3.051836 -0.387209725 -0.890822373 0.23770597 0.667108 0.934524
-2.41463 0.689727 3.018368 -0.884004133 -0.41720195 0.210900986 0.680419 0.330007
-2.433168 0.71389 2.970926 -0.937315175 -0.323205233 0.13030211 0.592366 0.253248
-2.41873 0.680306 2.976866 -0.902125828 -0.39921143 0.163704687 0.592112 0.329379
-2.430362 0.722557 3.012653 -0.926609822 -0.337003572 0.166801768 0.68016 0.253462
-2.426275 0.730974 3.048174 -0.905176568 -0.323127333 0.276123357 0.756508 0.253642
-2.409372 0.698827 3.053686 -0.854707804 -0.418303819 0.307402807 0.756869 0.330649
-2.387722 0.66251 3.059767 -0.833344027 -0.440723284 0.333617625 0.756824 0.419195
-2.394273 0.652655 3.024675 -0.859236011 -0.447718764 0.247510373 0.680294 0.418492
-2.399665 0.642481 2.983398 -0.875531791 -0.443716112 0.191206943 0.591649 0.417749
-2.421679 0.671555 2.935164 -0.909532225 -0.394513978 0.130804634 0.504166 0.328609
-2.437901 0.697125 2.887646 -0.938430772 -0.328510772 0.106903505 0.416941 0.251459
-2.423407 0.663737 2.894562 -0.904984986 -0.413693137 0.0992983527 0.416058 0.327871
-2.435687 0.705391 2.929148 -0.941403737 -0.316301256 0.117100465 0.504805 0.252495
-2.403046 0.633479 2.941771 -0.883153605 -0.447827182 0.139608474 0.503454 0.417034
-2.404287 0.626108 2.902068 -0.880518271 -0.46650968 0.0840017431 0.415244 0.416418
-2.423837 0.657112 2.856358 -0.887412828 -0.457706616 0.0548007922 0.327261 0.327338
-2.439858 0.68328 2.811698 -0.905489546 -0.423995105 -0.0177997945 0.250838 0.249662
-2.422392 0.652704 2.824577 -0.85032969 -0.524218303 -0.0462016132 0.25027 0.327148
-2.43979 0.689157 2.846743 -0.928452663 -0.36282058 0.0796045153 0.328236 0.250399
-2.403258 0.620825 2.866564 -0.86588041 -0.499988688 0.0161996335 0.32655 0.415972
-2.400322 0.617875 2.83805 -0.833369648 -0.544645518 -0.0941078649 0.250047 0.415756
-2.372767 0.616255 3.030781 -0.841564092 -0.471235888 0.264020107 0.679543 0.506582
-2.37859 0.605829 2.989579 -0.849441076 -0.485723488 0.206209972 0.590889 0.50583
-2.365785 0.62636 3.065797 -0.825073594 -0.447785669 0.344588972 0.75598 0.507258
-2.343561 0.590378 3.071778 -0.82122821 -0.460515819 0.336911573 0.754774 0.595276
-2.350111 0.580524 3.036686 -0.826804787 -0.500702899 0.256301484 0.67839 0.594658
-2.355504 0.570349 2.995409 -0.82275778 -0.529937216 0.205514433 0.5899 0.593924
-2.382114 0.596743 2.947977 -0.854023926 -0.498913977 0.14740413 0.502705 0.505126
-2.383193 0.589521 2.908574 -0.85394307 -0.514425946 0.0784039544 0.414555 0.504457
-2.358885 0.561347 2.953782 -0.821409064 -0.549406063 0.153101689 0.501926 0.593224
-2.359878 0.554064 2.914608 -0.821207436 -0.564605113 0.0827007489 0.413968 0.592464
-2.381678 0.584686 2.873969 -0.846100753 -0.533000474 -0.00490000436 0.326003 0.503807
-2.378244 0.582222 2.846545 -0.824236296 -0.55272434 -0.123005417 0.249771 0.503276
-2.358109 0.549046 2.880692 -0.815020535 -0.579414599 -0.00450011338 0.325525 0.591554
-2.354517 0.546339 2.853951 -0.798514353 -0.59081062 -0.115402074 0.249254 0.590626
-2.326307 0.545464 3.042392 -0.806810828 -0.543607295 0.231403105 0.677063 0.683104
-2.330406 0.536043 3.00089 -0.792316045 -0.578611717 0.193503918 0.588752 0.682337
-2.321049 0.554564 3.077709 -0.810215378 -0.493009357 0.317006017 0.753646 0.683687
-2.300194 0.524722 3.082531 -0.757404151 -0.578803172 0.302201656 0.752356 0.760675
-2.304137 0.516388 3.046985 -0.752020888 -0.624317341 0.211405872 0.675591 0.759655
-2.306943 0.507721 3.005258 -0.737419907 -0.649717539 0.184604983 0.587603 0.758504
-2.333356 0.527292 2.959187 -0.785702636 -0.598402008 0.156800526 0.501128 0.681665
-2.334096 0.519826 2.920701 -0.786604889 -0.610503794 0.0924005743 0.41346 0.680916
-2.309463 0.499222 2.96348 -0.732414224 -0.660612829 0.164803201 0.50043 0.757766
-2.310195 0.491484 2.925153 -0.743220662 -0.659018321 0.115403208 0.413136 0.757193
-2.331564 0.514257 2.888848 -0.785635743 -0.618628145 0.00870039583 0.325018 0.679921
-2.327495 0.510823 2.864157 -0.78031293 -0.619910272 -0.0826013687 0.24831 0.678727
-2.307642 0.485101 2.893775 -0.766019572 -0.641316386 0.0439011217 0.32478 0.756536
-2.303778 0.480667 2.869284 -0.795271236 -0.605178111 -0.0360986943 0.247577 0.755608
-2.286386 0.498612 3.049555 -0.621716354 -0.753919832 0.212305585 0.674006 0.812047
-2.288761 0.490197 3.007753 -0.617307226 -0.763108932 0.191302239 0.586612 0.809865
-2.282938 0.506657 3.085188 -0.62433965 -0.721945849 0.298318945 0.75066 0.814425
-2.265269 0.495639 3.086401 -0.451940615 -0.844575901 0.287125804 0.748045 0.857235
-2.268308 0.487438 3.050777 -0.450789217 -0.864379324 0.222794671 0.671917 0.853682
-2.270505 0.478731 3.009023 -0.459714725 -0.864127678 0.20480656 0.585593 0.850707
-2.291137 0.481781 2.96595 -0.619289692 -0.76358729 0.182796957 0.499955 0.808847
-2.292525 0.473718 2.926265 -0.638315467 -0.753718263 0.15640379 0.413099 0.808674
-2.272821 0.470219 2.967237 -0.466630236 -0.861955852 0.198212844 0.499586 0.849535
-2.275009 0.461988 2.925948 -0.47402113 -0.86033835 0.187408354 0.413314 0.849767
-2.291939 0.466359 2.890812 -0.68343705 -0.722139148 0.106905796 0.325106 0.809025
-2.289963 0.460866 2.861454 -0.746822969 -0.664420435 0.0283008704 0.247692 0.8093
-2.276823 0.454128 2.885684 -0.498026536 -0.852045398 0.161208589 0.326193 0.851005
-2.277233 0.44803 2.850837 -0.560202532 -0.823603723 0.0886004005 0.248971 0.8524
-2.245157 0.478168 3.051328 -0.348199789 -0.907899451 0.233399859 0.668935 0.897966
-2.246819 0.468587 3.00972 -0.365812582 -0.905131133 0.21660745 0.584361 0.89532
-2.243171 0.486941 3.086897 -0.348701859 -0.89860479 0.266301419 0.743995 0.901405
-2.248957 0.459783 2.967982 -0.37519913 -0.904397902 0.203199529 0.499209 0.894458
-2.25157 0.451756 2.926115 -0.36931428 -0.909735176 0.189707335 0.413746 0.894882
-2.254659 0.444506 2.884118 -0.357408678 -0.917822285 0.172804196 0.328239 0.896093
-2.256769 0.438769 2.847606 -0.368615644 -0.919039005 0.139605925 0.25173 0.897505
-2.438006 0.793369 2.999584 -0.992744684 0.0950042762 0.0737033175 0.678415 0.109643
-2.441009 0.785686 2.956636 -0.995525122 0.0832020996 0.0448011306 0.59213 0.11157
-2.43383 0.800077 3.03629 -0.983709163 0.0872008123 0.157201464 0.75483 0.108328
-2.435479 0.775675 3.040098 -0.979500735 0.0232000174 0.20010015 0.755626 0.156391
-2.439784 0.767571 3.004315 -0.996093012 0.00609995721 0.088099382 0.679191 0.158239
-2.442316 0.759339 2.962226 -0.998225335 -0.0042001066 0.0594015076 0.59244 0.159813
-2.443199 0.776942 2.914795 -0.996075288 0.083997916 0.0278993078 0.505871 0.11287
-2.444893 0.767493 2.873444 -0.994578791 0.102997804 0.0142996951 0.419858 0.112841
-2.444645 0.750841 2.920414 -0.998574112 -0.00299992223 0.0532986183 0.505706 0.159871
-2.446851 0.742168 2.878724 -0.99883024 0.00850025735 0.0476014412 0.418796 0.158453
-2.446408 0.757698 2.831964 -0.992230536 0.124403829 -0.00150004616 0.334311 0.110781
-2.447072 0.749695 2.796165 -0.992679283 0.116297573 -0.0325993197 0.258357 0.107762
-2.449011 0.733407 2.837003 -0.999412753 0.0176002246 0.0294003752 0.331517 0.155598
-2.449693 0.726581 2.800968 -0.999409764 -0.00190001856 -0.0343003351 0.254547 0.152324
-2.437991 0.746236 3.00832 -0.977515005 -0.171202628 0.12310189 0.679761 0.201192
-2.440367 0.737821 2.966517 -0.980547783 -0.173008431 0.0927045176 0.592497 0.201883
-2.433969 0.754616 3.043852 -0.960388053 -0.140598251 0.240597007 0.75614 0.200192
-2.442742 0.729406 2.924715 -0.981397875 -0.169899632 0.0893998064 0.505334 0.201331
-2.445117 0.72099 2.882913 -0.981480126 -0.170613929 0.0871071113 0.417839 0.199823
-2.447493 0.712575 2.84111 -0.980974 -0.182395166 0.0664982375 0.329573 0.197644
-2.448123 0.706174 2.804986 -0.975189093 -0.220297536 -0.0217997562 0.252152 0.195506
-2.399344 0.656763 2.764215 -0.616215834 -0.638116397 -0.461611861 0.109424 0.330738
-2.376309 0.622876 2.779798 -0.669245453 -0.590340094 -0.451230646 0.110599 0.416808
-2.418243 0.685942 2.748219 -0.656512218 -0.586210909 -0.474708834 0.108226 0.253494
-2.429562 0.682422 2.768693 -0.731521855 -0.558416683 -0.391211688 0.15362 0.25071
-2.411143 0.653071 2.785427 -0.664919462 -0.635218593 -0.392911501 0.155263 0.328531
-2.38833 0.6193 2.802519 -0.689923123 -0.598620063 -0.407013641 0.156852 0.416184
-2.352991 0.587589 2.785929 -0.723721285 -0.535715756 -0.435012794 0.111248 0.502577
-2.329935 0.55114 2.790945 -0.737394499 -0.543995942 -0.400397013 0.110857 0.587926
-2.365775 0.584012 2.811454 -0.727206076 -0.55170461 -0.408403412 0.157409 0.502759
-2.342556 0.547692 2.818414 -0.732108646 -0.568606715 -0.37510443 0.156561 0.588965
-2.307683 0.513771 2.803181 -0.757961052 -0.547544104 -0.354528557 0.108913 0.672736
-2.289109 0.481127 2.811445 -0.82865575 -0.45573066 -0.325021867 0.106156 0.748032
-2.31775 0.510822 2.829585 -0.750499317 -0.580099472 -0.316599712 0.153937 0.675511
-2.296279 0.479054 2.834442 -0.827620852 -0.494412457 -0.265706695 0.150766 0.751871
-2.418493 0.651538 2.80324 -0.768506186 -0.597304808 -0.229401847 0.197575 0.32744
-2.39584 0.6175 2.819319 -0.764581245 -0.586062275 -0.268228502 0.198408 0.415829
-2.436607 0.681284 2.787767 -0.838770904 -0.50264249 -0.209317694 0.196895 0.2496
-2.373568 0.58211 2.828683 -0.774300163 -0.562200118 -0.290500061 0.198578 0.502959
-2.350041 0.545989 2.836304 -0.762449309 -0.589338114 -0.267117275 0.197813 0.589814
-2.323622 0.509759 2.847157 -0.76591335 -0.608810612 -0.206703603 0.195843 0.677383
-2.30058 0.478776 2.851614 -0.81898661 -0.554690931 -0.146897598 0.193739 0.754224
-2.402946 0.706616 3.076833 -0.79313783 -0.368617582 0.484823124 0.809243 0.331462
-2.380865 0.67055 3.082839 -0.776127017 -0.39011358 0.495417246 0.808671 0.419788
-2.419913 0.738726 3.071333 -0.847622356 -0.261806905 0.461512173 0.809732 0.254292
-2.410553 0.74721 3.087873 -0.750292595 -0.202298003 0.629393788 0.851735 0.256058
-2.393662 0.714999 3.093045 -0.682531131 -0.284212963 0.673330711 0.849229 0.332898
-2.371604 0.678917 3.098868 -0.669518235 -0.293808002 0.68221858 0.847312 0.420426
-2.358784 0.634484 3.088845 -0.775443965 -0.390822158 0.495928117 0.807512 0.507734
-2.336703 0.598419 3.094851 -0.776615571 -0.395307926 0.490509835 0.80643 0.595631
-2.349538 0.642982 3.105224 -0.679815344 -0.293906634 0.671915165 0.846393 0.507977
-2.327457 0.607041 3.111651 -0.686247596 -0.304321107 0.660645821 0.846442 0.595514
-2.314622 0.562353 3.100856 -0.768729235 -0.418415913 0.483718396 0.806088 0.683806
-2.294263 0.532222 3.105765 -0.722916909 -0.49851166 0.47841119 0.805854 0.761019
-2.305351 0.570941 3.117686 -0.67963004 -0.326214419 0.657029041 0.847432 0.682998
-2.285193 0.54059 3.122509 -0.650128873 -0.39111737 0.651428931 0.84855 0.760152
-2.379834 0.725882 3.107556 -0.588539289 -0.236015756 0.77325162 0.888511 0.335412
-2.357841 0.689749 3.112828 -0.582816914 -0.219406367 0.782422706 0.884222 0.421264
-2.397472 0.757828 3.103537 -0.667054431 -0.209117064 0.715058347 0.894421 0.259583
-2.335821 0.654206 3.120236 -0.607716099 -0.214205674 0.764720258 0.884874 0.507952
-2.313738 0.618641 3.127927 -0.619829219 -0.237811211 0.747835254 0.887897 0.594717
-2.291557 0.582438 3.134049 -0.613792754 -0.266596853 0.743091228 0.890724 0.680802
-2.271833 0.551528 3.138587 -0.603840782 -0.310720985 0.734049576 0.892906 0.757537
-2.287183 0.458399 2.84005 -0.815213333 -0.570409329 -0.10030164 0.19257 0.8089
-2.283066 0.458035 2.822459 -0.86051564 -0.45280823 -0.233404242 0.148272 0.807517
-2.275211 0.445083 2.825798 -0.654812988 -0.75521498 -0.0295005851 0.192391 0.853104
-2.271569 0.443932 2.807707 -0.747952714 -0.649245757 -0.138009727 0.146317 0.852969
-2.277081 0.458851 2.804543 -0.87453196 -0.370513541 -0.312911436 0.103329 0.804843
-2.26712 0.443222 2.79371 -0.819027188 -0.539417906 -0.19550649 0.100611 0.85185
-2.256444 0.43528 2.822191 -0.428525339 -0.898253115 0.0975057657 0.193258 0.898529
-2.255248 0.432908 2.804256 -0.541534695 -0.83615357 0.0871055806 0.144762 0.898747
-2.254741 0.43052 2.790181 -0.682047295 -0.726650388 0.0824057142 0.098181 0.897736
-2.446216 0.745626 2.771855 -0.996069825 0.044298658 -0.0766976765 0.201124 0.104859
-2.444469 0.744504 2.752803 -0.987903072 -0.110400343 -0.108900339 0.153954 0.101518
-2.447463 0.723708 2.776338 -0.985446337 -0.0728034233 -0.153607223 0.198562 0.149651
-2.442739 0.723645 2.757115 -0.942016316 -0.200603474 -0.269004659 0.153036 0.147249
-2.44246 0.745341 2.732777 -0.941995959 -0.309298673 -0.130299441 0.10819 0.097188
-2.435938 0.725244 2.737298 -0.87452945 -0.361212164 -0.323610898 0.107441 0.144791
-2.445262 0.703801 2.780221 -0.936905069 -0.289401566 -0.196101061 0.197189 0.194117
-2.438931 0.704449 2.760834 -0.852840255 -0.372417579 -0.366017276 0.152901 0.193632
-2.429153 0.707107 2.740846 -0.769721191 -0.457412593 -0.44531226 0.107509 0.194203
-2.277346 0.513959 3.10848 -0.611301745 -0.642401834 0.46220132 0.805098 0.816031
-2.260427 0.502636 3.109798 -0.475141194 -0.779267562 0.408635428 0.803466 0.860141
-2.268958 0.521896 3.125303 -0.589982271 -0.518084432 0.619281391 0.848987 0.816697
-2.253436 0.509555 3.126953 -0.53291283 -0.661215919 0.528012712 0.848618 0.862671
-2.24006 0.493324 3.110516 -0.399625607 -0.858555014 0.321220583 0.800608 0.904646
-2.235421 0.498261 3.128344 -0.517011814 -0.769117575 0.375708585 0.847323 0.90811
-2.257122 0.531843 3.141525 -0.600491203 -0.398794158 0.693089846 0.893995 0.816254
-2.243952 0.517521 3.143848 -0.622823092 -0.51651915 0.587621786 0.89394 0.8651
-2.228852 0.502698 3.146538 -0.657233227 -0.628731786 0.415621012 0.892688 0.91222
-2.428117 0.805898 3.059405 -0.961993281 0.0160998875 0.272598096 0.81148 0.108864
-2.427832 0.783788 3.062994 -0.932063858 0.0203013909 0.361724783 0.811413 0.155513
-2.422607 0.811749 3.076247 -0.942057109 -0.13740833 0.306018551 0.857623 0.109861
-2.419188 0.791773 3.079651 -0.897366093 -0.0646047583 0.436532152 0.856611 0.155488
-2.426653 0.762924 3.066845 -0.903464844 -0.0841060365 0.420330168 0.810643 0.199816
-2.417116 0.771531 3.083467 -0.835308211 -0.0788007746 0.544105349 0.854422 0.200571
-2.419042 0.818545 3.094137 -0.906936636 -0.304212289 0.291411772 0.902515 0.109929
-2.411891 0.799491 3.096721 -0.869571405 -0.217992831 0.443085429 0.901279 0.156199
-2.406429 0.780808 3.09989 -0.784899898 -0.168399978 0.596299922 0.898629 0.202965
3 0 1 2
3 0 3 1
3 0 4 3
3 0 5 4
3 0 6 5
3 0 7 6
3 0 8 7
3 0 2 8
3 9 10 11
3 9 12 10
3 9 6 12
3 9 5 6
3 9 4 5
3 9 13 4
3 9 14 13
3 9 11 14
3 15 16 17
3 15 18 16
3 15 19 18
3 15 20 19
3 15 4 20
3 15 3 4
3 15 1 3
3 15 17 1
3 21 19 20
3 21 22 19
3 21 23 22
3 21 24 23
3 21 14 24
3 21 13 14
3 21 4 13
3 21 20 4
3 25 26 27
3 25 28 26
3 25 29 28
3 25 30 29
3 25 31 30
3 25 32 31
3 25 33 32
3 25 27 33
3 34 29 30
3 34 35 29
3 34 36 35
3 34 37 36
3 34 38 37
3 34 39 38
3 34 31 39
3 34 30 31
3 40 41 42
3 40 43 41
3 40 44 43
3 40 45 44
3 40 29 45
3 40 28 29
3 40 26 28
3 40 42 26
3 46 44 45
3 46 47 44
3 46 48 47
3 46 49 48
3 46 36 49
3 46 35 36
3 46 29 35
3 46 45 29
3 50 51 52
3 50 53 51
3 50 54 53
3 50 55 54
3 50 56 55
3 50 57 56
3 50 58 57
3 50 52 58
3 59 54 55
3 59 60 54
3 59 61 60
3 59 62 61
3 59 63 62
3 59 64 63
3 59 56 64
3 59 55 56
3 65 66 67
3 65 68 66
3 65 69 68
3 65 70 69
3 65 54 70
3 65 53 54
3 65 51 53
3 65 67 51
3 71 69 70
3 71 72 69
3 71 73 72
3 71 74 73
3 71 61 74
3 71 60 61
3 71 54 60
3 71 70 54
3 75 76 77
3 75 78 76
3 75 79 78
3 75 80 79
3 75 81 80
3 75 82 81
3 75 83 82
3 75 77 83
3 84 79 80
3 84 85 79
3 84 86 85
3 84 87 86
3 84 88 87
3 84 89 88
3 84 81 89
3 84 80 81
3 90 91 92
3 90 93 91
3 90 94 93
3 90 95 94
3 90 79 95
3 90 78 79
3 90 76 78
3 90 92 76
3 96 94 95
3 96 97 94
3 96 98 97
3 96 99 98
3 96 86 99
3 96 85 86
3 96 79 85
3 96 95 79
3 100 36 37
3 100 101 36
3 100 102 101
3 100 103 102
3 100 104 103
3 100 105 104
3 100 38 105
3 100 37 38
3 106 102 103
3 106 107 102
3 106 108 107
3 106 109 108
3 106 110 109
3 106 111 110
3 106 104 111
3 106 103 104
3 112 108 109
3 112 113 108
3 112 1 113
3 112 2 1
3 112 8 2
3 112 114 8
3 112 110 114
3 112 109 110
3 115 48 49
3 115 116 48
3 115 117 116
3 115 118 117
3 115 102 118
3 115 101 102
3 115 36 101
3 115 49 36
3 119 117 118
3 119 120 117
3 119 121 120
3 119 122 121
3 119 108 122
3 119 107 108
3 119 102 107
3 119 118 102
3 123 121 122
3 123 124 121
3 123 16 124
3 123 17 16
3 123 1 17
3 123 113 1
3 123 108 113
3 123 122 108
3 125 94 97
3 125 126 94
3 125 127 126
3 125 128 127
3 125 129 128
3 125 130 129
3 125 98 130
3 125 97 98
3 131 127 128
3 131 132 127
3 131 133 132
3 131 134 133
3 131 135 134
3 131 136 135
3 131 129 136
3 131 128 129
3 137 133 134
3 137 138 133
3 137 56 138
3 137 64 56
3 137 63 64
3 137 139 63
3 137 135 139
3 137 134 135
3 140 91 93
3 140 141 91
3 140 142 141
3 140 143 142
3 140 127 143
3 140 126 127
3 140 94 126
3 140 93 94
3 144 142 143
3 144 145 142
3 144 146 145
3 144 147 146
3 144 133 147
3 144 132 133
3 144 127 132
3 144 143 127
3 148 146 147
3 148 149 146
3 148 58 149
3 148 57 58
3 148 56 57
3 148 138 56
3 148 133 138
3 148 147 133
3 150 61 62
3 150 151 61
3 150 152 151
3 150 153 152
3 150 154 153
3 150 155 154
3 150 63 155
3 150 62 63
3 156 152 153
3 156 157 152
3 156 158 157
3 156 159 158
3 156 160 159
3 156 161 160
3 156 154 161
3 156 153 154
3 162 158 159
3 162 163 158
3 162 19 163
3 162 18 19
3 162 16 18
3 162 164 16
3 162 160 164
3 162 159 160
3 165 73 74
3 165 166 73
3 165 167 166
3 165 168 167
3 165 152 168
3 165 151 152
3 165 61 151
3 165 74 61
3 169 167 168
3 169 170 167
3 169 171 170
3 169 172 171
3 169 158 172
3 169 157 158
3 169 152 157
3 169 168 152
3 173 171 172
3 173 174 171
3 173 23 174
3 173 22 23
3 173 19 22
3 173 163 19
3 173 158 163
3 173 172 158
3 175 86 87
3 175 176 86
3 175 177 176
3 175 178 177
3 175 179 178
3 175 180 179
3 175 88 180
3 175 87 88
3 181 177 178
3 181 182 177
3 181 183 182
3 181 184 183
3 181 185 184
3 181 186 185
3 181 179 186
3 181 178 179
3 187 183 184
3 187 188 183
3 187 44 188
3 187 43 44
3 187 41 43
3 187 189 41
3 187 185 189
3 187 184 185
3 190 98 99
3 190 191 98
3 190 192 191
3 190 193 192
3 190 177 193
3 190 176 177
3 190 86 176
3 190 99 86
3 194 192 193
3 194 195 192
3 194 196 195
3 194 197 196
3 194 183 197
3 194 182 183
3 194 177 182
3 194 193 177
3 198 196 197
3 198 199 196
3 198 48 199
3 198 47 48
3 198 44 47
3 198 188 44
3 198 183 188
3 198 197 183
3 200 129 130
3 200 201 129
3 200 202 201
3 200 203 202
3 200 192 203
3 200 191 192
3 200 98 191
3 200 130 98
3 204 202 203
3 204 205 202
3 204 206 205
3 204 207 206
3 204 196 207
3 204 195 196
3 204 192 195
3 204 203 192
3 208 206 207
3 208 209 206
3 208 117 209
3 208 116 117
3 208 48 116
3 208 199 48
3 208 196 199
3 208 207 196
3 210 135 136
3 210 211 135
3 210 212 211
3 210 213 212
3 210 202 213
3 210 201 202
3 210 129 201
3 210 136 129
3 214 212 213
3 214 215 212
3 214 216 215
3 214 217 216
3 214 206 217
3 214 205 206
3 214 202 205
3 214 213 202
3 218 216 217
3 218 219 216
3 218 121 219
3 218 120 121
3 218 117 120
3 218 209 117
3 218 206 209
3 218 217 206
3 220 63 139
3 220 155 63
3 220 154 155
3 220 221 154
3 220 212 221
3 220 211 212
3 220 135 211
3 220 139 135
3 222 154 221
3 222 161 154
3 222 160 161
3 222 223 160
3 222 216 223
3 222 215 216
3 222 212 215
3 222 221 212
3 224 160 223
3 224 164 160
3 224 16 164
3 224 124 16
3 224 121 124
3 224 219 121
3 224 216 219
3 224 223 216
3 225 185 226
3 225 189 185
3 225 41 189
3 225 227 41
3 225 228 227
3 225 229 228
3 225 230 229
3 225 226 230
3 231 179 232
3 231 186 179
3 231 185 186
3 231 226 185
3 231 230 226
3 231 233 230
3 231 234 233
3 231 232 234
3 235 88 236
3 235 180 88
3 235 179 180
3 235 232 179
3 235 234 232
3 235 237 234
3 235 238 237
3 235 236 238
3 239 167 240
3 239 166 167
3 239 73 166
3 239 241 73
3 239 242 241
3 239 243 242
3 239 244 243
3 239 240 244
3 245 171 246
3 245 170 171
3 245 167 170
3 245 240 167
3 245 244 240
3 245 247 244
3 245 248 247
3 245 246 248
3 249 23 250
3 249 174 23
3 249 171 174
3 249 246 171
3 249 248 246
3 249 251 248
3 249 252 251
3 249 250 252
3 253 110 254
3 253 114 110
3 253 8 114
3 253 255 8
3 253 256 255
3 253 257 256
3 253 258 257
3 253 254 258
3 259 104 260
3 259 111 104
3 259 110 111
3 259 254 110
3 259 258 254
3 259 261 258
3 259 262 261
3 259 260 262
3 263 38 264
3 263 105 38
3 263 104 105
3 263 260 104
3 263 262 260
3 263 265 262
3 263 266 265
3 263 264 266
3 267 58 268
3 267 149 58
3 267 146 149
3 267 269 146
3 267 270 269
3 267 271 270
3 267 272 271
3 267 268 272
3 273 146 269
3 273 145 146
3 273 142 145
3 273 274 142
3 273 275 274
3 273 276 275
3 273 270 276
3 273 269 270
3 277 142 274
3 277 141 142
3 277 91 141
3 277 278 91
3 277 279 278
3 277 280 279
3 277 275 280
3 277 274 275
3 281 81 282
3 281 89 81
3 281 88 89
3 281 236 88
3 281 238 236
3 281 283 238
3 281 284 283
3 281 282 284
3 285 83 286
3 285 82 83
3 285 81 82
3 285 282 81
3 285 284 282
3 285 287 284
3 285 288 287
3 285 286 288
3 289 73 241
3 289 72 73
3 289 69 72
3 289 290 69
3 289 291 290
3 289 292 291
3 289 242 292
3 289 241 242
3 293 69 290
3 293 68 69
3 293 66 68
3 293 294 66
3 293 295 294
3 293 296 295
3 293 291 296
3 293 290 291
3 297 31 298
3 297 39 31
3 297 38 39
3 297 264 38
3 297 266 264
3 297 299 266
3 297 300 299
3 297 298 300
3 301 33 302
3 301 32 33
3 301 31 32
3 301 298 31
3 301 300 298
3 301 303 300
3 301 304 303
3 301 302 304
3 305 91 278
3 305 92 91
3 305 76 92
3 305 306 76
3 305 307 306
3 305 308 307
3 305 279 308
3 305 278 279
3 309 76 306
3 309 77 76
3 309 83 77
3 309 286 83
3 309 288 286
3 309 310 288
3 309 307 310
3 309 306 307
3 311 8 255
3 311 7 8
3 311 6 7
3 311 312 6
3 311 313 312
3 311 314 313
3 311 256 314
3 311 255 256
3 315 6 312
3 315 12 6
3 315 10 12
3 315 316 10
3 315 317 316
3 315 318 317
3 315 313 318
3 315 312 313
3 319 51 320
3 319 52 51
3 319 58 52
3 319 268 58
3 319 272 268
3 319 321 272
3 319 322 321
3 319 320 322
3 323 66 294
3 323 67 66
3 323 51 67
3 323 320 51
3 323 322 320
3 323 324 322
3 323 295 324
3 323 294 295
3 325 41 227
3 325 42 41
3 325 26 42
3 325 326 26
3 325 327 326
3 325 328 327
3 325 228 328
3 325 227 228
3 329 26 326
3 329 27 26
3 329 33 27
3 329 302 33
3 329 304 302
3 329 330 304
3 329 327 330
3 329 326 327
3 331 14 332
3 331 24 14
3 331 23 24
3 331 250 23
3 331 252 250
3 331 333 252
3 331 334 333
3 331 332 334
3 335 10 316
3 335 11 10
3 335 14 11
3 335 332 14
3 335 334 332
3 335 336 334
3 335 317 336
3 335 316 317
3 337 317 338
3 337 336 317
3 337 334 336
3 337 339 334
3 337 340 339
3 337 341 340
3 337 342 341
3 337 338 342
3 343 334 339
3 343 333 334
3 343 252 333
3 343 344 252
3 343 345 344
3 343 346 345
3 343 340 346
3 343 339 340
3 347 327 348
3 347 330 327
3 347 304 330
3 347 349 304
3 347 350 349
3 347 351 350
3 347 352 351
3 347 348 352
3 353 228 354
3 353 328 228
3 353 327 328
3 353 348 327
3 353 352 348
3 353 355 352
3 353 356 355
3 353 354 356
3 357 295 358
3 357 324 295
3 357 322 324
3 357 359 322
3 357 360 359
3 357 361 360
3 357 362 361
3 357 358 362
3 363 322 359
3 363 321 322
3 363 272 321
3 363 364 272
3 363 365 364
3 363 366 365
3 363 360 366
3 363 359 360
3 367 313 368
3 367 318 313
3 367 317 318
3 367 338 317
3 367 342 338
3 367 369 342
3 367 370 369
3 367 368 370
3 371 256 372
3 371 314 256
3 371 313 314
3 371 368 313
3 371 370 368
3 371 373 370
3 371 374 373
3 371 372 374
3 375 307 376
3 375 310 307
3 375 288 310
3 375 377 288
3 375 378 377
3 375 379 378
3 375 380 379
3 375 376 380
3 381 279 382
3 381 308 279
3 381 307 308
3 381 376 307
3 381 380 376
3 381 383 380
3 381 384 383
3 381 382 384
3 385 304 349
3 385 303 304
3 385 300 303
3 385 386 300
3 385 387 386
3 385 388 387
3 385 350 388
3 385 349 350
3 389 300 386
3 389 299 300
3 389 266 299
3 389 390 266
3 389 391 390
3 389 392 391
3 389 387 392
3 389 386 387
3 393 291 394
3 393 296 291
3 393 295 296
3 393 358 295
3 393 362 358
3 393 395 362
3 393 396 395
3 393 394 396
3 397 242 398
3 397 292 242
3 397 291 292
3 397 394 291
3 397 396 394
3 397 399 396
3 397 400 399
3 397 398 400
3 401 288 377
3 401 287 288
3 401 284 287
3 401 402 284
3 401 403 402
3 401 404 403
3 401 378 404
3 401 377 378
3 405 284 402
3 405 283 284
3 405 238 283
3 405 406 238
3 405 407 406
3 405 408 407
3 405 403 408
3 405 402 403
3 409 275 410
3 409 280 275
3 409 279 280
3 409 382 279
3 409 384 382
3 409 411 384
3 409 412 411
3 409 410 412
3 413 270 414
3 413 276 270
3 413 275 276
3 413 410 275
3 413 412 410
3 413 415 412
3 413 416 415
3 413 414 416
3 417 272 364
3 417 271 272
3 417 270 271
3 417 414 270
3 417 416 414
3 417 418 416
3 417 365 418
3 417 364 365
3 419 266 390
3 419 265 266
3 419 262 265
3 419 420 262
3 419 421 420
3 419 422 421
3 419 391 422
3 419 390 391
3 423 262 420
3 423 261 262
3 423 258 261
3 423 424 258
3 423 425 424
3 423 426 425
3 423 421 426
3 423 420 421
3 427 258 424
3 427 257 258
3 427 256 257
3 427 372 256
3 427 374 372
3 427 428 374
3 427 425 428
3 427 424 425
3 429 252 344
3 429 251 252
3 429 248 251
3 429 430 248
3 429 431 430
3 429 432 431
3 429 345 432
3 429 344 345
3 433 248 430
3 433 247 248
3 433 244 247
3 433 434 244
3 433 435 434
3 433 436 435
3 433 431 436
3 433 430 431
3 437 244 434
3 437 243 244
3 437 242 243
3 437 398 242
3 437 400 398
3 437 438 400
3 437 435 438
3 437 434 435
3 439 238 406
3 439 237 238
3 439 234 237
3 439 440 234
3 439 441 440
3 439 442 441
3 439 407 442
3 439 406 407
3 443 234 440
3 443 233 234
3 443 230 233
3 443 444 230
3 443 445 444
3 443 446 445
3 443 441 446
3 443 440 441
3 447 230 444
3 447 229 230
3 447 228 229
3 447 354 228
3 447 356 354
3 447 448 356
3 447 445 448
3 447 444 445
3 449 450 451
3 449 452 450
3 449 453 452
3 449 454 453
3 449 455 454
3 449 456 455
3 449 457 456
3 449 451 457
3 458 459 460
3 458 461 459
3 458 450 461
3 458 451 450
3 458 457 451
3 458 462 457
3 458 463 462
3 458 460 463
3 464 465 466
3 464 467 465
3 464 459 467
3 464 460 459
3 464 463 460
3 464 468 463
3 464 469 468
3 464 466 469
3 470 471 472
3 470 473 471
3 470 474 473
3 470 475 474
3 470 476 475
3 470 477 476
3 470 478 477
3 470 472 478
3 479 480 481
3 479 482 480
3 479 471 482
3 479 472 471
3 479 478 472
3 479 483 478
3 479 484 483
3 479 481 484
3 485 486 487
3 485 488 486
3 485 480 488
3 485 481 480
3 485 484 481
3 485 489 484
3 485 490 489
3 485 487 490
3 491 492 493
3 491 494 492
3 491 495 494
3 491 496 495
3 491 497 496
3 491 498 497
3 491 499 498
3 491 493 499
3 500 501 502
3 500 503 501
3 500 492 503
3 500 493 492
3 500 499 493
3 500 504 499
3 500 505 504
3 500 502 505
3 506 507 508
3 506 509 507
3 506 501 509
3 506 502 501
3 506 505 502
3 506 510 505
3 506 511 510
3 506 508 511
3 512 513 514
3 512 515 513
3 512 516 515
3 512 517 516
3 512 518 517
3 512 519 518
3 512 520 519
3 512 514 520
3 521 516 517
3 521 522 516
3 521 523 522
3 521 524 523
3 521 525 524
3 521 526 525
3 521 518 526
3 521 517 518
3 527 523 524
3 527 528 523
3 527 529 528
3 527 530 529
3 527 531 530
3 527 532 531
3 527 525 532
3 527 524 525
3 533 534 535
3 533 536 534
3 533 465 536
3 533 466 465
3 533 469 466
3 533 537 469
3 533 538 537
3 533 535 538
3 539 540 541
3 539 542 540
3 539 534 542
3 539 535 534
3 539 538 535
3 539 543 538
3 539 544 543
3 539 541 544
3 545 474 475
3 545 546 474
3 545 547 546
3 545 548 547
3 545 549 548
3 545 550 549
3 545 476 550
3 545 475 476
3 551 547 548
3 551 552 547
3 551 553 552
3 551 554 553
3 551 555 554
3 551 556 555
3 551 549 556
3 551 548 549
3 557 558 559
3 557 560 558
3 557 507 560
3 557 508 507
3 557 511 508
3 557 561 511
3 557 562 561
3 557 559 562
3 563 564 565
3 563 566 564
3 563 558 566
3 563 559 558
3 563 562 559
3 563 567 562
3 563 568 567
3 563 565 568
3 569 529 530
3 569 570 529
3 569 571 570
3 569 572 571
3 569 573 572
3 569 574 573
3 569 531 574
3 569 530 531
3 575 571 572
3 575 576 571
3 575 540 576
3 575 541 540
3 575 544 541
3 575 577 544
3 575 573 577
3 575 572 573
3 578 495 496
3 578 579 495
3 578 580 579
3 578 581 580
3 578 582 581
3 578 583 582
3 578 497 583
3 578 496 497
3 584 580 581
3 584 585 580
3 584 586 585
3 584 587 586
3 584 588 587
3 584 589 588
3 584 582 589
3 584 581 582
3 590 591 592
3 590 593 591
3 590 513 593
3 590 514 513
3 590 520 514
3 590 594 520
3 590 595 594
3 590 592 595
3 596 553 554
3 596 597 553
3 596 591 597
3 596 592 591
3 596 595 592
3 596 598 595
3 596 555 598
3 596 554 555
3 599 453 454
3 599 600 453
3 599 601 600
3 599 602 601
3 599 603 602
3 599 604 603
3 599 455 604
3 599 454 455
3 605 601 602
3 605 606 601
3 605 564 606
3 605 565 564
3 605 568 565
3 605 607 568
3 605 603 607
3 605 602 603
3 608 609 610
3 608 611 609
3 608 486 611
3 608 487 486
3 608 490 487
3 608 612 490
3 608 613 612
3 608 610 613
3 614 586 587
3 614 615 586
3 614 609 615
3 614 610 609
3 614 613 610
3 614 616 613
3 614 588 616
3 614 587 588
3 617 618 619
3 617 620 618
3 617 621 620
3 617 622 621
3 617 609 622
3 617 615 609
3 617 586 615
3 617 619 586
3 623 621 622
3 623 624 621
3 623 625 624
3 623 626 625
3 623 486 626
3 623 611 486
3 623 609 611
3 623 622 609
3 627 628 629
3 627 630 628
3 627 631 630
3 627 632 631
3 627 564 632
3 627 606 564
3 627 601 606
3 627 629 601
3 633 634 635
3 633 636 634
3 633 628 636
3 633 629 628
3 633 601 629
3 633 600 601
3 633 453 600
3 633 635 453
3 637 638 639
3 637 640 638
3 637 641 640
3 637 642 641
3 637 591 642
3 637 597 591
3 637 553 597
3 637 639 553
3 643 641 642
3 643 644 641
3 643 645 644
3 643 646 645
3 643 513 646
3 643 593 513
3 643 591 593
3 643 642 591
3 647 648 649
3 647 650 648
3 647 618 650
3 647 619 618
3 647 586 619
3 647 585 586
3 647 580 585
3 647 649 580
3 651 652 653
3 651 654 652
3 651 648 654
3 651 649 648
3 651 580 649
3 651 579 580
3 651 495 579
3 651 653 495
3 655 656 657
3 655 658 656
3 655 659 658
3 655 660 659
3 655 540 660
3 655 576 540
3 655 571 576
3 655 657 571
3 661 662 663
3 661 664 662
3 661 656 664
3 661 657 656
3 661 571 657
3 661 570 571
3 661 529 570
3 661 663 529
3 665 631 632
3 665 666 631
3 665 667 666
3 665 668 667
3 665 558 668
3 665 566 558
3 665 564 566
3 665 632 564
3 669 667 668
3 669 670 667
3 669 671 670
3 669 672 671
3 669 507 672
3 669 560 507
3 669 558 560
3 669 668 558
3 673 674 675
3 673 676 674
3 673 638 676
3 673 639 638
3 673 553 639
3 673 552 553
3 673 547 552
3 673 675 547
3 677 678 679
3 677 680 678
3 677 674 680
3 677 675 674
3 677 547 675
3 677 546 547
3 677 474 546
3 677 679 474
3 681 659 660
3 681 682 659
3 681 683 682
3 681 684 683
3 681 534 684
3 681 542 534
3 681 540 542
3 681 660 540
3 685 683 684
3 685 686 683
3 685 687 686
3 685 688 687
3 685 465 688
3 685 536 465
3 685 534 536
3 685 684 534
3 689 690 691
3 689 692 690
3 689 662 692
3 689 663 662
3 689 529 663
3 689 528 529
3 689 523 528
3 689 691 523
3 693 694 695
3 693 696 694
3 693 690 696
3 693 691 690
3 693 523 691
3 693 522 523
3 693 516 522
3 693 695 516
3 697 645 646
3 697 698 645
3 697 694 698
3 697 695 694
3 697 516 695
3 697 515 516
3 697 513 515
3 697 646 513
3 699 671 672
3 699 700 671
3 699 701 700
3 699 702 701
3 699 501 702
3 699 509 501
3 699 507 509
3 699 672 507
3 703 701 702
3 703 704 701
3 703 705 704
3 703 706 705
3 703 492 706
3 703 503 492
3 703 501 503
3 703 702 501
3 707 705 706
3 707 708 705
3 707 652 708
3 707 653 652
3 707 495 653
3 707 494 495
3 707 492 494
3 707 706 492
3 709 625 626
3 709 710 625
3 709 711 710
3 709 712 711
3 709 480 712
3 709 488 480
3 709 486 488
3 709 626 486
3 713 711 712
3 713 714 711
3 713 715 714
3 713 716 715
3 713 471 716
3 713 482 471
3 713 480 482
3 713 712 480
3 717 715 716
3 717 718 715
3 717 678 718
3 717 679 678
3 717 474 679
3 717 473 474
3 717 471 473
3 717 716 471
3 719 687 688
3 719 720 687
3 719 721 720
3 719 722 721
3 719 459 722
3 719 467 459
3 719 465 467
3 719 688 465
3 723 721 722
3 723 724 721
3 723 725 724
3 723 726 725
3 723 450 726
3 723 461 450
3 723 459 461
3 723 722 459
3 727 725 726
3 727 728 725
3 727 634 728
3 727 635 634
3 727 453 635
3 727 452 453
3 727 450 452
3 727 726 450
3 729 730 731
3 729 732 730
3 729 733 732
3 729 734 733
3 729 735 734
3 729 736 735
3 729 737 736
3 729 731 737
3 738 739 740
3 738 741 739
3 738 730 741
3 738 731 730
3 738 737 731
3 738 742 737
3 738 743 742
3 738 740 743
3 744 745 746
3 744 747 745
3 744 739 747
3 744 740 739
3 744 743 740
3 744 748 743
3 744 749 748
3 744 746 749
3 750 737 751
3 750 736 737
3 750 735 736
3 750 752 735
3 750 753 752
3 750 754 753
3 750 755 754
3 750 751 755
3 756 743 757
3 756 742 743
3 756 737 742
3 756 751 737
3 756 755 751
3 756 758 755
3 756 759 758
3 756 757 759
3 760 749 761
3 760 748 749
3 760 743 748
3 760 757 743
3 760 759 757
3 760 762 759
3 760 763 762
3 760 761 763
3 764 755 765
3 764 754 755
3 764 753 754
3 764 766 753
3 764 767 766
3 764 768 767
3 764 769 768
3 764 765 769
3 770 759 771
3 770 758 759
3 770 755 758
3 770 765 755
3 770 769 765
3 770 772 769
3 770 773 772
3 770 771 773
3 774 763 775
3 774 762 763
3 774 759 762
3 774 771 759
3 774 773 771
3 774 776 773
3 774 777 776
3 774 775 777
3 778 769 779
3 778 768 769
3 778 767 768
3 778 780 767
3 778 781 780
3 778 782 781
3 778 783 782
3 778 779 783
3 784 773 785
3 784 772 773
3 784 769 772
3 784 779 769
3 784 783 779
3 784 786 783
3 784 787 786
3 784 785 787
3 788 777 789
3 788 776 777
3 788 773 776
3 788 785 773
3 788 787 785
3 788 790 787
3 788 791 790
3 788 789 791
3 792 783 793
3 792 782 783
3 792 781 782
3 792 794 781
3 792 634 794
3 792 728 634
3 792 725 728
3 792 793 725
3 795 787 796
3 795 786 787
3 795 783 786
3 795 793 783
3 795 725 793
3 795 724 725
3 795 721 724
3 795 796 721
3 797 791 798
3 797 790 791
3 797 787 790
3 797 796 787
3 797 721 796
3 797 720 721
3 797 687 720
3 797 798 687
3 799 711 800
3 799 710 711
3 799 625 710
3 799 801 625
3 799 802 801
3 799 803 802
3 799 804 803
3 799 800 804
3 805 715 806
3 805 714 715
3 805 711 714
3 805 800 711
3 805 804 800
3 805 807 804
3 805 808 807
3 805 806 808
3 809 678 810
3 809 718 678
3 809 715 718
3 809 806 715
3 809 808 806
3 809 811 808
3 809 812 811
3 809 810 812
3 813 804 814
3 813 803 804
3 813 802 803
3 813 815 802
3 813 733 815
3 813 732 733
3 813 730 732
3 813 814 730
3 816 808 817
3 816 807 808
3 816 804 807
3 816 814 804
3 816 730 814
3 816 741 730
3 816 739 741
3 816 817 739
3 818 812 819
3 818 811 812
3 818 808 811
3 818 817 808
3 818 739 817
3 818 747 739
3 818 745 747
3 818 819 745
3 820 694 821
3 820 698 694
3 820 645 698
3 820 822 645
3 820 823 822
3 820 824 823
3 820 825 824
3 820 821 825
3 826 690 827
3 826 696 690
3 826 694 696
3 826 821 694
3 826 825 821
3 826 828 825
3 826 829 828
3 826 827 829
3 830 662 831
3 830 692 662
3 830 690 692
3 830 827 690
3 830 829 827
3 830 832 829
3 830 833 832
3 830 831 833
3 834 825 835
3 834 824 825
3 834 823 824
3 834 836 823
3 834 745 836
3 834 746 745
3 834 749 746
3 834 835 749
3 837 829 838
3 837 828 829
3 837 825 828
3 837 835 825
3 837 749 835
3 837 761 749
3 837 763 761
3 837 838 763
3 839 833 840
3 839 832 833
3 839 829 832
3 839 838 829
3 839 763 838
3 839 775 763
3 839 777 775
3 839 840 777
3 841 735 842
3 841 734 735
3 841 733 734
3 841 843 733
3 841 844 843
3 841 845 844
3 841 846 845
3 841 842 846
3 847 753 848
3 847 752 753
3 847 735 752
3 847 842 735
3 847 846 842
3 847 849 846
3 847 850 849
3 847 848 850
3 851 767 852
3 851 766 767
3 851 753 766
3 851 848 753
3 851 850 848
3 851 853 850
3 851 854 853
3 851 852 854
3 855 846 856
3 855 845 846
3 855 844 845
3 855 857 844
3 855 652 857
3 855 708 652
3 855 705 708
3 855 856 705
3 858 850 859
3 858 849 850
3 858 846 849
3 858 856 846
3 858 705 856
3 858 704 705
3 858 701 704
3 858 859 701
3 860 854 861
3 860 853 854
3 860 850 853
3 860 859 850
3 860 701 859
3 860 700 701
3 860 671 700
3 860 861 671
3 862 833 863
3 862 840 833
3 862 777 840
3 862 789 777
3 862 791 789
3 862 864 791
3 862 865 864
3 862 863 865
3 866 662 664
3 866 831 662
3 866 833 831
3 866 863 833
3 866 865 863
3 866 867 865
3 866 656 867
3 866 664 656
3 868 865 869
3 868 864 865
3 868 791 864
3 868 798 791
3 868 687 798
3 868 686 687
3 868 683 686
3 868 869 683
3 870 656 658
3 870 867 656
3 870 865 867
3 870 869 865
3 870 683 869
3 870 682 683
3 870 659 682
3 870 658 659
3 871 674 872
3 871 680 674
3 871 678 680
3 871 810 678
3 871 812 810
3 871 873 812
3 871 874 873
3 871 872 874
3 875 638 640
3 875 676 638
3 875 674 676
3 875 872 674
3 875 874 872
3 875 876 874
3 875 641 876
3 875 640 641
3 877 874 878
3 877 873 874
3 877 812 873
3 877 819 812
3 877 745 819
3 877 836 745
3 877 823 836
3 877 878 823
3 879 641 644
3 879 876 641
3 879 874 876
3 879 878 874
3 879 823 878
3 879 822 823
3 879 645 822
3 879 644 645
3 880 781 881
3 880 780 781
3 880 767 780
3 880 852 767
3 880 854 852
3 880 882 854
3 880 883 882
3 880 881 883
3 884 634 636
3 884 794 634
3 884 781 794
3 884 881 781
3 884 883 881
3 884 885 883
3 884 628 885
3 884 636 628
3 886 883 887
3 886 882 883
3 886 854 882
3 886 861 854
3 886 671 861
3 886 670 671
3 886 667 670
3 886 887 667
3 888 628 630
3 888 885 628
3 888 883 885
3 888 887 883
3 888 667 887
3 888 666 667
3 888 631 666
3 888 630 631
3 889 802 890
3 889 801 802
3 889 625 801
3 889 624 625
3 889 621 624
3 889 891 621
3 889 892 891
3 889 890 892
3 893 733 843
3 893 815 733
3 893 802 815
3 893 890 802
3 893 892 890
3 893 894 892
3 893 844 894
3 893 843 844
3 895 618 620
3 895 650 618
3 895 648 650
3 895 896 648
3 895 892 896
3 895 891 892
3 895 621 891
3 895 620 621
3 897 844 857
3 897 894 844
3 897 892 894
3 897 896 892
3 897 648 896
3 897 654 648
3 897 652 654
3 897 857 652
