ply
format ascii 1.0
element vertex 898
property float x
property float y
property float z
property float nx
property float ny
property float nz
property float u
property float v
element face 1680
property list uchar int vertex_indices
end_header
-0.699982 0.810864 1.472239 0.0150001125 0.849606372 0.527203954 0.813689 0.910171
-0.675992 0.797398 1.49167 0.0351013756 0.746529257 0.664426039 0.759088 0.863189
-0.675357 0.80914 1.472481 0.0723972225 0.874066467 0.480381571 0.755262 0.907041
-0.700661 0.79852 1.490152 -0.0814980041 0.710282605 0.699182877 0.816087 0.865221
-0.719597 0.798126 1.486227 -0.211701758 0.635505278 0.742506167 0.862497 0.866411
-0.719271 0.811752 1.470405 -0.0587981864 0.783675828 0.618380926 0.862531 0.912187
-0.719658 0.821185 1.45632 0.0579021161 0.791728934 0.608122224 0.863722 0.947852
-0.699922 0.819116 1.456347 0.0782982532 0.849781042 0.52128837 0.812612 0.945782
-0.675242 0.816926 1.455554 0.091604234 0.872240316 0.480422206 0.752767 0.942261
-0.740045 0.812476 1.4669 -0.124008467 0.66844564 0.733350071 0.9108 0.912708
-0.754581 0.822631 1.456883 -0.0106994602 0.604069522 0.796859795 0.941455 0.939568
-0.756763 0.813511 1.463376 -0.134100341 0.544301385 0.828102108 0.948125 0.914023
-0.741919 0.82392 1.455676 0.0233999554 0.691498683 0.721998625 0.913842 0.947672
-0.738982 0.796905 1.479651 -0.294808609 0.531615523 0.794023186 0.908709 0.866699
-0.754274 0.796183 1.473486 -0.29360347 0.44160522 0.847810021 0.944861 0.868161
-0.701459 0.781937 1.502328 -0.165096405 0.551487991 0.817682195 0.817012 0.820387
-0.677965 0.760236 1.519101 -0.0524997556 0.596497223 0.800896272 0.76176 0.764902
-0.676709 0.7814 1.504918 -0.00960002299 0.593601422 0.804701927 0.761029 0.819908
-0.702829 0.760113 1.515401 -0.220718777 0.553647101 0.802968311 0.816791 0.764173
-0.721985 0.758443 1.508927 -0.361017847 0.50832513 0.781838651 0.860633 0.762285
-0.720372 0.780827 1.496941 -0.315009304 0.490814496 0.812323992 0.861917 0.819834
-0.739404 0.77912 1.488776 -0.393414578 0.436316168 0.809229987 0.90711 0.818071
-0.741496 0.756488 1.49992 -0.421117681 0.479120116 0.770132335 0.905538 0.75887
-0.756857 0.755305 1.492044 -0.384729575 0.472436318 0.792960957 0.94172 0.756879
-0.754311 0.778069 1.4814 -0.373292697 0.407992018 0.833183699 0.942933 0.817722
-0.369814 0.77355 1.452662 0.327601774 0.661503582 0.674603653 0.091328 0.906561
-0.357748 0.754944 1.458819 0.477229742 0.477629767 0.737645972 0.055971 0.860138
-0.354048 0.770807 1.447609 0.330698886 0.531998207 0.779497373 0.054697 0.907505
-0.372115 0.759653 1.466814 0.47638275 0.576479126 0.663875961 0.093124 0.859341
-0.390438 0.765107 1.474498 0.320798662 0.710697036 0.626097389 0.140255 0.860059
-0.389527 0.777119 1.457425 0.222091737 0.786570736 0.576178564 0.139046 0.906704
-0.388199 0.78579 1.44343 0.138008056 0.787445969 0.600735069 0.136786 0.94356
-0.366876 0.784201 1.440974 0.181203721 0.688214133 0.702514426 0.088264 0.943547
-0.355125 0.780369 1.441105 0.212896652 0.589790726 0.778987751 0.061655 0.93492
-0.408387 0.779392 1.459084 0.113897047 0.841078191 0.528786289 0.188193 0.905817
-0.408849 0.767928 1.476995 0.137496148 0.785278001 0.603683088 0.186932 0.860239
-0.433361 0.769448 1.477704 0.0719003304 0.800203677 0.595402736 0.244236 0.858287
-0.432888 0.780969 1.460044 0.0746985755 0.846083865 0.527789935 0.24749 0.902164
-0.432145 0.789371 1.445923 0.0819065647 0.826366232 0.557144654 0.249455 0.937673
-0.407603 0.787585 1.444622 0.101907043 0.825357038 0.555338378 0.188271 0.942153
-0.372809 0.745098 1.479019 0.566500496 0.486400426 0.665200582 0.093853 0.81262
-0.357905 0.719501 1.481083 0.57262225 0.424716503 0.701227247 0.054545 0.755392
-0.358458 0.740067 1.468596 0.559113156 0.447710535 0.69781642 0.055189 0.812736
-0.373125 0.724489 1.492633 0.588908769 0.416506202 0.692610313 0.094891 0.75592
-0.392259 0.730405 1.504438 0.445291956 0.479791333 0.755986343 0.143617 0.758005
-0.391104 0.750914 1.489308 0.397236649 0.593154724 0.700264606 0.141623 0.81417
-0.409465 0.75409 1.493068 0.176898858 0.680895605 0.710695412 0.186898 0.815508
-0.410805 0.734166 1.509633 0.238514013 0.567533344 0.788046299 0.18803 0.760016
-0.435129 0.736945 1.511515 0.126903324 0.634516618 0.762419968 0.242617 0.761625
-0.43392 0.755974 1.493924 0.0823981502 0.717483893 0.691684472 0.242689 0.815671
-0.726081 0.498425 1.661547 -0.0571975794 0.00319986458 0.99835775 0.818322 0.102179
-0.747347 0.481867 1.660804 0.00709985978 0.122197587 0.992480399 0.869242 0.064213
-0.728475 0.480908 1.660301 0.00530002136 0.0128000516 0.99990403 0.81824 0.065237
-0.744929 0.498533 1.65997 -0.123804729 0.128604912 0.983937582 0.867425 0.101164
-0.742727 0.518677 1.657111 -0.256414204 0.283515706 0.924051189 0.866781 0.148146
-0.723817 0.519589 1.661062 -0.12879628 0.182294734 0.974771844 0.81984 0.148444
-0.699212 0.518153 1.662407 -0.012700452 0.100703584 0.994835407 0.762218 0.149381
-0.701632 0.495902 1.661869 -0.00260011277 -0.0413017913 0.999143334 0.758929 0.103376
-0.704056 0.477589 1.660101 0.00420014251 -0.0107003631 0.999933928 0.757073 0.066043
-0.722086 0.537669 1.655379 -0.198407019 0.38501362 0.901331885 0.820542 0.193533
-0.741098 0.535948 1.649848 -0.338218959 0.444924941 0.829246485 0.86577 0.194632
-0.739444 0.556795 1.637179 -0.399024132 0.498730162 0.769446534 0.863856 0.251572
-0.720264 0.559423 1.64404 -0.268509287 0.467316162 0.842329132 0.820155 0.249441
-0.69533 0.56021 1.648849 -0.106998675 0.416994838 0.902588826 0.764877 0.248441
-0.697291 0.537392 1.658407 -0.0520008523 0.298104886 0.953115622 0.764112 0.19347
-0.764375 0.496933 1.657261 -0.17850836 0.299514027 0.937243892 0.914612 0.10045
-0.778088 0.483835 1.660435 -0.0450995161 0.408395618 0.911690218 0.942433 0.071323
-0.767018 0.48128 1.661756 -0.0115006608 0.289016606 0.957255001 0.916212 0.063307
-0.779846 0.494674 1.65512 -0.163804392 0.443211885 0.881323633 0.950672 0.098775
-0.777275 0.513031 1.645211 -0.299901888 0.477603007 0.825805198 0.950489 0.1477
-0.762012 0.516033 1.650679 -0.32931064 0.39151265 0.859227762 0.913707 0.148504
-0.760346 0.532854 1.642003 -0.405704631 0.484205527 0.775208849 0.911568 0.197101
-0.775526 0.529698 1.635509 -0.370203276 0.519504598 0.770106815 0.947962 0.198238
-0.774548 0.54925 1.621624 -0.411117347 0.559823622 0.719430357 0.944522 0.258025
-0.759043 0.552901 1.628546 -0.450318867 0.524421971 0.722630275 0.908534 0.25547
-0.395757 0.456003 1.639704 0.194296843 0.389993663 0.900085374 0.096853 0.092963
-0.416573 0.445716 1.646665 0.110496948 0.313991326 0.942973951 0.14445 0.058234
-0.393984 0.441708 1.646002 0.116100275 0.411900976 0.903802142 0.093589 0.05769
-0.416319 0.460224 1.642213 0.196608236 0.271511374 0.942139467 0.145649 0.094094
-0.415147 0.478796 1.636866 0.308498041 0.240598472 0.920294156 0.145575 0.140194
-0.396608 0.474047 1.631989 0.310423449 0.356626939 0.881166561 0.099034 0.139416
-0.381957 0.469991 1.62871 0.289523242 0.450236144 0.844667808 0.062682 0.137501
-0.37914 0.452118 1.638303 0.187305925 0.471714921 0.861627254 0.059145 0.09102
-0.38119 0.442312 1.643962 0.129009735 0.464235032 0.876266126 0.065664 0.065335
-0.395819 0.491647 1.624841 0.429016011 0.324412107 0.843031463 0.100408 0.188635
-0.413541 0.497393 1.631891 0.405607252 0.247804431 0.879815731 0.145924 0.187302
-0.411216 0.520877 1.623502 0.467713222 0.30490862 0.829623454 0.146994 0.245528
-0.393336 0.514018 1.614626 0.516220595 0.324912963 0.792431615 0.101668 0.248565
-0.379311 0.508096 1.607498 0.483290018 0.377092211 0.790083681 0.0651 0.25027
-0.381955 0.48678 1.619591 0.399310195 0.407410401 0.821320969 0.064352 0.188626
-0.435241 0.464002 1.645288 0.178698975 0.150699136 0.972294424 0.195124 0.096427
-0.460822 0.450778 1.649786 0.0982033272 0.125404249 0.987233448 0.25681 0.063187
-0.436344 0.448639 1.6478 0.108599096 0.203698304 0.9729919 0.19627 0.060476
-0.459445 0.467462 1.648702 0.129204816 0.0701026128 0.989136866 0.254231 0.09944
-0.457237 0.48848 1.647161 0.175600954 0.0836004544 0.980905331 0.250186 0.144442
-0.433253 0.483571 1.642114 0.264209546 0.146105279 0.953334445 0.19252 0.141847
-0.431311 0.502866 1.638479 0.333401407 0.206000869 0.920003882 0.19123 0.187233
-0.455168 0.508577 1.644608 0.229611423 0.179708941 0.956547589 0.247753 0.18845
-0.452867 0.532594 1.637101 0.267514367 0.334717977 0.903548526 0.246474 0.243941
-0.429041 0.526703 1.630669 0.370024563 0.317021045 0.873257969 0.1911 0.244049
-0.469523 0.782449 1.462715 0.0876000613 0.84220059 0.532000372 0.325662 0.894006
-0.469989 0.770998 1.480026 0.0864009608 0.794408834 0.601206685 0.323249 0.852608
-0.512527 0.774307 1.483139 0.130906505 0.779138716 0.613030462 0.413091 0.848464
-0.511987 0.785778 1.465727 0.133700592 0.84190373 0.522802316 0.413701 0.888119
-0.511398 0.79425 1.451255 0.124902095 0.828613896 0.545709152 0.413816 0.921882
-0.468881 0.79093 1.44871 0.0880004206 0.823803938 0.560002677 0.327072 0.92847
-0.553975 0.792901 1.467714 0.169503948 0.848619765 0.501111671 0.502596 0.891275
-0.554771 0.781103 1.486223 0.163807722 0.762235933 0.626229521 0.502878 0.851114
-0.59698 0.788615 1.488958 0.146003019 0.756815647 0.637113172 0.592315 0.856452
-0.596002 0.800662 1.469325 0.150798406 0.864490862 0.479494932 0.591169 0.898091
-0.595282 0.808918 1.4521 0.139909424 0.860857985 0.489232953 0.59064 0.932626
-0.553281 0.80132 1.451828 0.155104199 0.841622783 0.517314004 0.502386 0.925246
-0.63858 0.805908 1.471212 0.109997571 0.876380645 0.468889645 0.67824 0.90318
-0.639409 0.794072 1.491023 0.101801451 0.756510784 0.646009209 0.681108 0.860372
-0.638149 0.813823 1.45374 0.108202148 0.874117351 0.473509399 0.676439 0.938086
-0.470494 0.757912 1.495499 0.0846022788 0.724919526 0.683618414 0.322007 0.813696
-0.4716 0.739913 1.513381 0.107107066 0.68074491 0.724647807 0.321866 0.762498
-0.514091 0.74352 1.515241 0.112099961 0.702999754 0.702299754 0.413008 0.763049
-0.513045 0.761101 1.497654 0.114503123 0.709619355 0.695218962 0.412803 0.812183
-0.555431 0.766736 1.500248 0.136901938 0.675209558 0.72481026 0.503024 0.813734
-0.556478 0.748216 1.517106 0.114504221 0.695925656 0.708926135 0.503274 0.76369
-0.598859 0.753169 1.51871 0.0952008811 0.668706189 0.737406825 0.593193 0.76432
-0.597766 0.773024 1.502766 0.122301777 0.640909312 0.757811011 0.592887 0.816486
-0.640168 0.778171 1.504694 0.0800998294 0.617098686 0.782798333 0.682604 0.818576
-0.641331 0.757549 1.51979 0.0507024221 0.63343026 0.772136886 0.683291 0.764838
-0.49115 0.515039 1.650279 0.149510237 0.141609696 0.978567005 0.326922 0.190979
-0.493414 0.493632 1.651434 0.107297559 0.0385991219 0.993477399 0.328889 0.14805
-0.535733 0.498708 1.654717 0.067500838 0.0146001813 0.997612385 0.417742 0.151215
-0.533309 0.521219 1.654612 0.0911994651 0.109499358 0.989794195 0.416841 0.193483
-0.5308 0.546436 1.649127 0.131409811 0.324624237 0.936669934 0.41604 0.246383
-0.488746 0.53965 1.643773 0.195200686 0.335201178 0.92170324 0.325608 0.245012
-0.575695 0.526083 1.656728 0.0494001047 0.105400223 0.993202106 0.505616 0.194628
-0.578139 0.50339 1.656795 0.0446006106 0.0135001848 0.998913675 0.505858 0.152485
-0.620541 0.508223 1.658589 0.0438001984 0.0259001173 0.998704524 0.59408 0.152259
-0.618194 0.53029 1.657736 0.0363007022 0.136902648 0.98991915 0.59449 0.19473
-0.615727 0.555394 1.652056 0.0332016633 0.322616162 0.945947388 0.594691 0.247613
-0.573149 0.551515 1.651605 0.0725984588 0.315093311 0.946279911 0.505308 0.247173
-0.660693 0.534496 1.658744 0.0220002111 0.205501972 0.978409388 0.684708 0.194106
-0.662843 0.513754 1.661021 0.0395020789 0.0503026472 0.997952519 0.683249 0.150939
-0.658469 0.55858 1.65133 -0.00829994219 0.359797494 0.932993502 0.685468 0.247933
-0.495854 0.47073 1.652228 0.0899988615 0.0360995433 0.99528741 0.331923 0.102606
-0.497531 0.45243 1.653 0.0860995394 0.0944994944 0.991794694 0.33383 0.065141
-0.540292 0.454635 1.65628 0.0692993659 0.0914991628 0.993390911 0.419638 0.066267
-0.538347 0.474254 1.655322 0.0650004365 0.0309002075 0.997406698 0.418982 0.105047
-0.580801 0.478479 1.657441 0.0468027886 0.0298017756 0.99845949 0.506192 0.105887
-0.582924 0.45843 1.658465 0.050102637 0.089204695 0.994752355 0.506539 0.066495
-0.625413 0.463892 1.659682 0.0319999744 0.0675999459 0.997199202 0.59353 0.066334
-0.623165 0.483712 1.6591 0.0382997331 0.0120999157 0.999193036 0.593505 0.105593
-0.665384 0.490259 1.660815 0.0268989749 -0.0234991045 0.999361915 0.68087 0.104635
-0.667746 0.471098 1.660061 0.0144004239 0.02310068 0.999629425 0.679605 0.066296
-0.717727 0.591613 1.626587 -0.32981519 0.480122113 0.812837436 0.818406 0.328165
-0.73717 0.587665 1.618103 -0.461818286 0.490619426 0.738929258 0.860503 0.32992
-0.734443 0.623811 1.595919 -0.496688611 0.478089038 0.72438339 0.857384 0.418628
-0.71472 0.628649 1.605493 -0.361812213 0.49651676 0.789026634 0.816374 0.417798
-0.689792 0.630686 1.612357 -0.171110738 0.502031503 0.847753198 0.764088 0.417117
-0.692788 0.5932 1.632713 -0.14890158 0.464604929 0.872909262 0.76478 0.327091
-0.711486 0.664943 1.583229 -0.354498848 0.524798294 0.773897485 0.81514 0.506433
-0.731431 0.660485 1.573926 -0.483735292 0.485435416 0.728253132 0.856169 0.506649
-0.728202 0.696223 1.551638 -0.440534938 0.521741378 0.730557939 0.856617 0.594723
-0.708248 0.69968 1.559999 -0.317328391 0.565350581 0.761368119 0.814875 0.595165
-0.68316 0.701358 1.56631 -0.152907593 0.599229755 0.785839022 0.7622 0.595444
-0.686466 0.666997 1.590143 -0.175203923 0.54531221 0.819718354 0.76307 0.506213
-0.705227 0.732049 1.536007 -0.268007535 0.589616577 0.761921422 0.815752 0.685089
-0.724824 0.729559 1.528565 -0.394789432 0.54688536 0.738280237 0.858486 0.683591
-0.680221 0.732997 1.541097 -0.10411016 0.631961673 0.767974946 0.761957 0.685877
-0.757767 0.581675 1.607618 -0.505708734 0.511908841 0.694411993 0.90495 0.332837
-0.774289 0.576259 1.599163 -0.461010958 0.5511131 0.695516533 0.941601 0.3347
-0.773588 0.609499 1.574109 -0.49132583 0.490925809 0.719437822 0.939679 0.42039
-0.756048 0.616243 1.583923 -0.539095186 0.472395782 0.697293773 0.902082 0.419793
-0.753414 0.65367 1.562164 -0.525316816 0.455814591 0.718523 0.901196 0.506926
-0.771288 0.64774 1.552443 -0.47923268 0.450330709 0.753351373 0.939235 0.507218
-0.767391 0.687182 1.531932 -0.439930589 0.477833225 0.760352869 0.939724 0.594064
-0.749877 0.691274 1.54091 -0.483530335 0.489230693 0.725845537 0.901833 0.594091
-0.745446 0.726376 1.51873 -0.442398671 0.518698441 0.731597802 0.903529 0.681141
-0.761899 0.724023 1.510344 -0.400181264 0.510376105 0.761164363 0.940601 0.679805
-0.389108 0.546373 1.59771 0.561004339 0.338802621 0.755305842 0.103504 0.32715
-0.407884 0.554109 1.607915 0.491329476 0.35722143 0.794347654 0.149082 0.324979
-0.404205 0.591568 1.587678 0.494234061 0.398227445 0.772753256 0.150861 0.414697
-0.384268 0.58325 1.576803 0.569830418 0.364219443 0.736639323 0.104541 0.415124
-0.368204 0.575864 1.567188 0.541126573 0.373718352 0.753336994 0.065511 0.415056
-0.3742 0.539549 1.588987 0.53031054 0.365407263 0.765015205 0.065871 0.328311
-0.379949 0.619182 1.554613 0.557727647 0.391419403 0.731936283 0.103407 0.50322
-0.40084 0.627734 1.56534 0.49253323 0.424128615 0.759951272 0.15101 0.503723
-0.397685 0.663422 1.542929 0.48642574 0.420022226 0.766140541 0.1496 0.592265
-0.376507 0.655225 1.532298 0.552322651 0.39551622 0.733830095 0.100848 0.591183
-0.359161 0.648316 1.523013 0.523810474 0.4101082 0.746614929 0.059317 0.590792
-0.362908 0.611767 1.545231 0.528334213 0.394825568 0.751648675 0.062869 0.502814
-0.374295 0.692429 1.511016 0.571018187 0.390112425 0.722323006 0.097616 0.678762
-0.394639 0.699443 1.52247 0.472410195 0.42120909 0.774216708 0.146706 0.680531
-0.357817 0.686572 1.500426 0.547814446 0.41411092 0.726919169 0.056232 0.678198
-0.426065 0.559896 1.614969 0.369712818 0.397913796 0.83962911 0.191976 0.323761
-0.449963 0.56537 1.620697 0.268401133 0.43360183 0.86020363 0.245892 0.323393
-0.446788 0.602421 1.599723 0.262917871 0.46063131 0.847757624 0.245706 0.414267
-0.422816 0.597307 1.594546 0.364114066 0.439316971 0.821231725 0.192973 0.414405
-0.419726 0.633794 1.572569 0.373503954 0.459704866 0.805708528 0.193207 0.504015
-0.443676 0.639261 1.578502 0.275414245 0.473824507 0.836443262 0.245619 0.504024
-0.440606 0.675003 1.556527 0.268318711 0.511435664 0.816356926 0.245143 0.59348
-0.416648 0.669469 1.550303 0.366607492 0.467109545 0.804616443 0.192399 0.593098
-0.413437 0.704443 1.529018 0.313897509 0.492896089 0.811493561 0.190268 0.682155
-0.437558 0.70876 1.53329 0.206399937 0.568599827 0.796299757 0.243788 0.683454
-0.485888 0.572163 1.626926 0.210313735 0.454129658 0.86575654 0.324534 0.32377
-0.527931 0.579009 1.632381 0.158691975 0.45917678 0.8740558 0.415097 0.324448
-0.524894 0.615643 1.610974 0.169315349 0.465542203 0.868678749 0.414461 0.414556
-0.482813 0.608863 1.605522 0.211710202 0.465522432 0.859341408 0.32389 0.414307
-0.47976 0.646034 1.585344 0.221400508 0.473701087 0.852401956 0.323867 0.503676
-0.521879 0.653044 1.591508 0.173014741 0.478140737 0.861073362 0.414578 0.503587
-0.518961 0.688407 1.56985 0.165808018 0.582228154 0.795938489 0.414649 0.593146
-0.476767 0.681659 1.563704 0.214612972 0.54863316 0.80804884 0.323733 0.59321
-0.473869 0.713724 1.537916 0.165008012 0.635530859 0.754236623 0.322753 0.684244
-0.516214 0.718927 1.541867 0.138012194 0.684360466 0.715963258 0.413875 0.684835
-0.570185 0.584639 1.635788 0.101400342 0.449901516 0.88730299 0.504776 0.324981
-0.612743 0.589016 1.637064 0.0428030366 0.440231231 0.896863626 0.594637 0.32552
-0.609506 0.626691 1.61713 0.0480003252 0.474203213 0.879105956 0.594435 0.415692
-0.567035 0.621771 1.615112 0.116609795 0.466739205 0.876673639 0.504355 0.415048
-0.563934 0.659223 1.595408 0.113501992 0.494708682 0.861615121 0.50438 0.504374
-0.606277 0.66395 1.596625 0.0394004072 0.518105355 0.85440883 0.594189 0.505373
-0.603284 0.698572 1.573261 0.0403990102 0.620984786 0.782780822 0.593894 0.595268
-0.561022 0.694214 1.572976 0.10770097 0.608505483 0.786207084 0.504376 0.594142
-0.558439 0.72396 1.544111 0.106702566 0.705116958 0.70101686 0.503866 0.685537
-0.600755 0.728331 1.544749 0.0643998197 0.697998046 0.713198003 0.593546 0.686082
-0.655702 0.592102 1.636122 -0.0256003633 0.445506322 0.894912699 0.685748 0.326217
-0.652573 0.629848 1.616224 -0.0356011597 0.488515914 0.8718284 0.68556 0.416398
-0.649259 0.666604 1.594739 -0.0463017322 0.538220135 0.841531482 0.684919 0.505923
-0.646085 0.700971 1.570885 -0.0362988831 0.616681025 0.786375804 0.684188 0.59559
-0.643373 0.73155 1.543878 0.00539992999 0.669391321 0.742890368 0.683732 0.686202
-0.350615 0.685044 1.496469 0.373026223 0.470533077 0.799656214 0.035785 0.680185
-0.351697 0.646136 1.519672 0.36178665 0.461582968 0.809970113 0.03818 0.59203
-0.351101 0.71852 1.476651 0.382099217 0.477499021 0.791198378 0.035273 0.75805
-0.34918 0.719138 1.475744 0.58861642 0.422011772 0.689519234 0.026703 0.761175
-0.348719 0.685371 1.495737 0.596002846 0.40630194 0.692603307 0.025888 0.682508
-0.349829 0.646124 1.519144 0.60240819 0.380405172 0.70170954 0.027205 0.593376
-0.35557 0.609116 1.542041 0.364417928 0.44882208 0.815940141 0.041867 0.502815
-0.361218 0.572922 1.564101 0.369700684 0.439000812 0.818901515 0.045269 0.413862
-0.353731 0.608765 1.541717 0.599390943 0.356894607 0.716489174 0.030561 0.502712
-0.359408 0.572232 1.563981 0.592516226 0.346309484 0.727319918 0.034363 0.412264
-0.367624 0.536492 1.586378 0.361919466 0.437923554 0.822944263 0.046811 0.326495
-0.373052 0.505082 1.605577 0.336899255 0.447499011 0.828398169 0.04727 0.247752
-0.365843 0.535464 1.586462 0.586811863 0.345706989 0.732214802 0.03702 0.323782
-0.371295 0.503763 1.605836 0.584615036 0.355209136 0.729418761 0.038782 0.244114
-0.781504 0.57403 1.596772 -0.260409868 0.608723068 0.7494284 0.960311 0.333292
-0.781118 0.607128 1.571083 -0.258693115 0.53768569 0.802478642 0.959384 0.419514
-0.781447 0.547351 1.619899 -0.245306845 0.606716931 0.7561211 0.962152 0.256128
-0.78342 0.546433 1.620302 -0.468012971 0.550115247 0.691619168 0.970582 0.253165
-0.783452 0.573404 1.596999 -0.477088481 0.560186474 0.67718365 0.970062 0.331145
-0.783037 0.606841 1.571107 -0.467086896 0.502885892 0.727279596 0.97021 0.418447
-0.778903 0.645943 1.549267 -0.251512825 0.472924115 0.844443059 0.959296 0.507478
-0.774861 0.686298 1.528822 -0.233899816 0.48439962 0.842999338 0.959492 0.595439
-0.780794 0.645994 1.549086 -0.458811085 0.446810795 0.768018556 0.970448 0.507839
-0.776722 0.686688 1.528438 -0.454501423 0.467501463 0.758202373 0.970258 0.597201
-0.76899 0.724019 1.50725 -0.212294263 0.512586148 0.831977516 0.959421 0.681652
-0.763562 0.75595 1.488964 -0.219315744 0.476534209 0.851361117 0.959396 0.759259
-0.770823 0.724749 1.506661 -0.448428014 0.497531082 0.742546388 0.969119 0.684414
-0.765371 0.75697 1.488201 -0.473207569 0.452907244 0.755612086 0.967825 0.762828
-0.638585 0.817962 1.447085 0.102299686 0.747797708 0.655997989 0.678143 0.956175
-0.595272 0.813133 1.445513 0.119395867 0.739774389 0.662177076 0.591923 0.951282
-0.676084 0.821054 1.449091 0.0970036367 0.745927965 0.658924704 0.754818 0.959646
-0.6771 0.82263 1.447917 0.100906144 0.881053649 0.46212814 0.757887 0.968103
-0.639263 0.819501 1.445897 0.107002589 0.883621384 0.455811031 0.680501 0.965859
-0.595556 0.814629 1.444311 0.136402479 0.883816063 0.447508134 0.593301 0.962043
-0.55293 0.805552 1.445675 0.128105236 0.729729825 0.67162745 0.502455 0.944054
-0.51073 0.798462 1.445559 0.110604176 0.722727287 0.682225758 0.412621 0.940488
-0.552819 0.807006 1.444457 0.151497618 0.876786213 0.456392823 0.50237 0.955351
-0.510226 0.799873 1.444326 0.122305459 0.876439116 0.465720786 0.411056 0.951585
-0.467846 0.795106 1.443157 0.0896043275 0.71993477 0.688233239 0.325302 0.946579
-0.430775 0.793489 1.440319 0.0882002289 0.720901871 0.687401784 0.247136 0.955183
-0.466948 0.796475 1.441909 0.0854026962 0.886327982 0.455114368 0.322706 0.956544
-0.429539 0.794821 1.439058 0.0820013756 0.891414954 0.445707477 0.243767 0.963743
-0.669354 0.463361 1.660696 0.0397011253 0.231906573 0.97192755 0.681489 0.047023
-0.705985 0.470168 1.660409 0.0395002082 0.21640114 0.975505141 0.759476 0.047969
-0.626633 0.455898 1.660748 0.0513044262 0.249621536 0.966983425 0.594924 0.046088
-0.627189 0.454187 1.661477 0.0103001283 -0.0164002043 0.999812453 0.5967 0.03529
-0.670304 0.461693 1.661439 -0.00449991844 -0.0039999275 0.999981875 0.684285 0.037276
-0.707273 0.468536 1.661166 0.00329997476 0.00209998394 0.99999235 0.763049 0.039506
-0.583752 0.450322 1.659664 0.0652018537 0.257307315 0.964127411 0.506821 0.045972
-0.540711 0.446632 1.657445 0.0786035557 0.259111721 0.962643546 0.418785 0.046164
-0.540479 0.444836 1.658143 0.0623010672 -0.0219003752 0.997817093 0.417709 0.035321
-0.583914 0.448568 1.660378 0.0359998637 -0.0225999145 0.999096218 0.507187 0.0348
-0.497511 0.444829 1.654089 0.0878993856 0.262598164 0.960893283 0.332418 0.046152
-0.460401 0.443683 1.650967 0.087801227 0.278503892 0.956413366 0.254844 0.045429
-0.459436 0.441808 1.651637 0.0731007288 -0.00540005384 0.997309943 0.251777 0.036914
-0.496884 0.442991 1.654772 0.079503866 -0.013100637 0.996748468 0.33023 0.036365
-0.375764 0.483945 1.618399 0.299301887 0.468702955 0.83110524 0.047425 0.184672
-0.375514 0.467296 1.628255 0.255899466 0.495598967 0.829998269 0.046303 0.132441
-0.374024 0.482431 1.618776 0.592712361 0.385408038 0.707214749 0.039899 0.180108
-0.373786 0.465635 1.62872 0.623106312 0.43530441 0.649806583 0.039613 0.127188
-0.372053 0.449349 1.638552 0.222616824 0.501937933 0.835763161 0.042936 0.086246
-0.374508 0.436552 1.646399 0.154609322 0.44762699 0.880753107 0.052199 0.053598
-0.370337 0.447541 1.639106 0.64978332 0.408089524 0.641283538 0.037168 0.080778
-0.372845 0.434639 1.64702 0.451504165 0.0901008312 0.887708189 0.047194 0.047987
-0.782331 0.527791 1.634031 -0.209616475 0.552443421 0.80676341 0.96498 0.195336
-0.784119 0.511044 1.644153 -0.156299279 0.518297611 0.840796124 0.966995 0.143917
-0.78612 0.509786 1.644762 -0.45230088 0.502100977 0.737101434 0.973492 0.139857
-0.78432 0.526679 1.634551 -0.449401508 0.510201712 0.73330246 0.972345 0.191742
-0.78677 0.492804 1.655251 -0.0852994515 0.502096772 0.860594466 0.966394 0.094873
-0.784001 0.47881 1.663273 0.000700025247 0.439315844 0.898332399 0.953951 0.059087
-0.785982 0.47729 1.664034 -0.308610348 0.143304805 0.94033153 0.9592 0.054293
-0.788784 0.491399 1.655947 -0.459900952 0.456400945 0.761701577 0.972163 0.090491
-0.406018 0.791612 1.438896 0.0964039864 0.719729761 0.68752843 0.18476 0.959156
-0.386281 0.78996 1.437855 0.0993993937 0.69999573 0.707195686 0.132263 0.960087
-0.404555 0.79292 1.437626 0.0954014291 0.8878133 0.450206744 0.18069 0.966699
-0.384648 0.791249 1.436579 0.0878036782 0.888337213 0.450718881 0.127674 0.966779
-0.36427 0.789014 1.436161 0.114208901 0.645750325 0.754958836 0.083735 0.959564
-0.348385 0.784216 1.437381 0.178102838 0.563608981 0.806612853 0.049233 0.946961
-0.362466 0.790285 1.434878 0.134600896 0.887205904 0.441302937 0.078916 0.965352
-0.346456 0.785437 1.436115 0.484620294 0.69752921 0.527822103 0.044146 0.952072
-0.43563 0.441964 1.649449 0.0810989595 0.314195969 0.945887864 0.193186 0.043493
-0.415424 0.439309 1.648955 0.0752994646 0.360297438 0.929793389 0.140281 0.04185
-0.414063 0.437391 1.64961 0.0120007334 -0.0231014119 0.999661096 0.135923 0.035082
-0.434439 0.440064 1.650111 0.0443986521 -0.00939971463 0.998969672 0.189375 0.035949
-0.392008 0.435355 1.648902 0.0850016465 0.40010775 0.912517676 0.088966 0.042009
-0.390475 0.433419 1.649551 0.0554016244 -0.0356010438 0.997829257 0.084321 0.035925
-0.700984 0.823422 1.450237 0.0988069083 0.730851099 0.675347219 0.815655 0.962605
-0.72102 0.8259 1.450819 0.0992049758 0.696734946 0.710435633 0.867773 0.964097
-0.722433 0.827519 1.44966 0.128802694 0.882818464 0.451709448 0.872005 0.970758
-0.702227 0.825022 1.449071 0.112304482 0.880935154 0.459718345 0.819373 0.970078
-0.743928 0.829323 1.451135 0.0806992015 0.642893639 0.761692463 0.918293 0.963164
-0.761089 0.827772 1.453814 0.00699974504 0.576778991 0.816870246 0.954614 0.950907
-0.762804 0.829385 1.452688 -0.299799351 0.769798333 0.56349878 0.959522 0.956362
-0.745512 0.830959 1.449982 0.0797046876 0.889552316 0.449826455 0.922825 0.969121
-0.730596 0.473774 1.66079 0.0550019251 0.22400784 0.973034057 0.821844 0.048117
-0.749628 0.475033 1.661993 0.0749010475 0.270103777 0.959913425 0.873773 0.047822
-0.73211 0.472166 1.661556 0.0352015528 -0.00850037496 0.999344082 0.826098 0.040726
-0.751313 0.473444 1.662765 0.0806044829 -0.0371020635 0.996055397 0.878531 0.04138
-0.769525 0.474799 1.66417 0.0662027362 0.349114429 0.934738634 0.920443 0.047441
-0.771381 0.473228 1.664949 0.0386996805 -0.0520995699 0.997891762 0.925444 0.041913
-0.351929 0.739245 1.464435 0.375307531 0.477709585 0.794315938 0.037235 0.816396
-0.351202 0.754361 1.455389 0.336411107 0.467415432 0.817526991 0.03923 0.864503
-0.349252 0.75532 1.454276 0.592802881 0.358801744 0.721003504 0.032658 0.869272
-0.349992 0.740058 1.46341 0.581713804 0.415409858 0.699316595 0.029744 0.820448
-0.347025 0.771008 1.445081 0.262605179 0.486609596 0.833216431 0.038813 0.911649
-0.345063 0.772114 1.44388 0.623976711 0.353186818 0.697073982 0.033093 0.916596
-0.76085 0.778932 1.478382 -0.247298103 0.405096893 0.880193249 0.959733 0.821406
-0.76093 0.797285 1.470793 -0.218806454 0.404611934 0.88792619 0.961092 0.872868
-0.762641 0.780147 1.477501 -0.510516515 0.367611892 0.777325147 0.967168 0.825795
-0.76271 0.798647 1.469824 -0.512207094 0.339504702 0.788910926 0.967653 0.877888
-0.763883 0.815329 1.461485 -0.111005902 0.485525816 0.867146107 0.964133 0.918421
-0.76565 0.816837 1.460427 -0.506716666 0.418313759 0.753824794 0.969784 0.923681
-0.766308 0.816941 1.459402 -0.92481009 0.226702473 0.305503333 0.97604 0.927581
-0.763445 0.829524 1.45164 -0.618909961 0.785412641 -0.00880014164 0.964514 0.961841
-0.763372 0.798702 1.468828 -0.931490191 0.0815991408 0.354496267 0.974797 0.880288
-0.763475 0.798103 1.467819 -0.993147916 -0.0218988515 0.11479398 0.982232 0.881378
-0.766412 0.816342 1.458393 -0.995944206 0.0621027565 0.0651028897 0.982597 0.930801
-0.763548 0.828926 1.450632 -0.691728382 0.649926667 -0.314812917 0.969549 0.967333
-0.763308 0.780153 1.476535 -0.931755395 0.181410785 0.314518699 0.974899 0.827559
-0.766042 0.756911 1.487274 -0.921523563 0.27060692 0.278507122 0.976268 0.764401
-0.766146 0.756312 1.486265 -0.988767544 0.148895113 0.0129995733 0.984719 0.764977
-0.763411 0.779554 1.475527 -0.995105941 0.0839005009 0.0522003116 0.982778 0.82801
-0.344478 0.772084 1.442807 0.974545176 0.0790036623 0.209809726 0.026951 0.919948
-0.348671 0.755241 1.453233 0.969541182 -0.00760032283 0.244810399 0.026015 0.87128
-0.345882 0.785445 1.435021 0.754163643 0.652955102 -0.0699058993 0.038775 0.956988
-0.345985 0.784846 1.434012 0.771057666 0.509772012 -0.38157905 0.033262 0.961806
-0.344581 0.771485 1.441798 0.994388137 -0.0956988583 -0.045099462 0.020599 0.922501
-0.348775 0.754642 1.452224 0.98828985 -0.152198437 -0.0108998881 0.019336 0.871908
-0.349415 0.739929 1.462397 0.97319256 0.110699154 0.201598459 0.022468 0.821737
-0.348609 0.718945 1.474769 0.972919979 0.136402801 0.186603832 0.018464 0.76205
-0.349518 0.739331 1.461388 0.99612971 -0.0485014466 -0.0733021863 0.0153 0.821646
-0.348712 0.718346 1.47376 0.995888159 -0.0255996956 -0.0868989668 0.010389 0.761799
-0.772068 0.472306 1.664536 -0.085800846 -0.651006419 0.754207437 0.929354 0.035786
-0.786711 0.476384 1.663616 -0.66382667 -0.34001366 0.666126762 0.964586 0.049487
-0.751944 0.472515 1.66235 0.0498010309 -0.68161411 0.730015111 0.88103 0.034278
-0.752047 0.471917 1.661341 0.0194011043 -0.86064899 0.508828963 0.882399 0.026846
-0.772172 0.471707 1.663527 -0.0994960774 -0.851166443 0.515379682 0.93272 0.02936
-0.786814 0.475785 1.662607 -0.736284148 -0.546088243 0.399591397 0.97004 0.044674
-0.732684 0.471232 1.661138 -0.0355005861 -0.66081091 0.749712378 0.827969 0.032971
-0.707772 0.467593 1.660746 -0.101605291 -0.644833581 0.75753945 0.764703 0.031004
-0.707875 0.466994 1.659737 -0.137602971 -0.845518255 0.515911139 0.765397 0.022483
-0.732787 0.470633 1.66013 -0.0704992365 -0.854590745 0.514494428 0.828648 0.025035
-0.746109 0.831106 1.448925 -0.00350022799 0.977863695 -0.209213628 0.926108 0.975475
-0.722973 0.827659 1.448601 0.127900879 0.962806619 -0.238001636 0.873738 0.977677
-0.746212 0.830507 1.447917 -0.0182005205 0.86062461 -0.508914553 0.928766 0.982029
-0.723077 0.82706 1.447592 0.104697247 0.850477637 -0.515486445 0.874222 0.984723
-0.70271 0.825156 1.44801 0.0990049479 0.967948374 -0.230811535 0.820325 0.977641
-0.677508 0.822756 1.446853 0.0758042114 0.971053948 -0.226512584 0.758443 0.976542
-0.702813 0.824558 1.447002 0.0741014224 0.854216397 -0.514609878 0.819894 0.985249
-0.677611 0.822157 1.445844 0.0508010706 0.856518051 -0.513610824 0.757743 0.98497
-0.390034 0.432375 1.649094 0.0374021131 -0.657137126 0.752842533 0.08099 0.029444
-0.413678 0.436353 1.649156 -0.0916065845 -0.661247529 0.744553517 0.134157 0.028074
-0.372359 0.433603 1.646555 0.678882981 -0.442688902 0.585785315 0.042109 0.042359
-0.372462 0.433004 1.645546 0.692405027 -0.649404715 0.314402283 0.036984 0.036723
-0.390137 0.431776 1.648086 -0.00500019106 -0.859732851 0.510719515 0.078316 0.022765
-0.413781 0.435754 1.648147 -0.119903874 -0.848327406 0.51571666 0.133686 0.020944
-0.434111 0.439032 1.649659 -0.0379003402 -0.659205916 0.75100674 0.188339 0.028315
-0.459183 0.440784 1.651188 0.0192008747 -0.657929973 0.752834296 0.251053 0.028387
-0.434214 0.438434 1.64865 -0.0638992671 -0.85529019 0.514194102 0.188692 0.020636
-0.459286 0.440186 1.650179 -0.00680007749 -0.859609795 0.510905822 0.2515 0.019856
-0.361934 0.79031 1.433778 0.178905508 0.958929521 -0.220106776 0.074984 0.971648
-0.384172 0.79128 1.435481 0.0434009008 0.970220137 -0.238304946 0.125212 0.974135
-0.384275 0.790681 1.434472 0.0217013218 0.858752304 -0.51193118 0.123813 0.981822
-0.362037 0.789711 1.43277 0.143400014 0.84450008 -0.516000049 0.071494 0.9782
-0.404137 0.792957 1.436531 0.0653012946 0.969919229 -0.234504649 0.179094 0.974653
-0.429196 0.794866 1.437965 0.0446023091 0.970750257 -0.235912213 0.242583 0.972401
-0.429299 0.794268 1.436956 0.0177006297 0.859030561 -0.511618201 0.242492 0.981107
-0.40424 0.792358 1.435522 0.0405011338 0.857424004 -0.513014362 0.178734 0.982812
-0.789524 0.490531 1.655507 -0.915646626 0.171808749 0.363418506 0.978367 0.087373
-0.786856 0.508967 1.644292 -0.919670817 0.283021794 0.272220962 0.980247 0.13822
-0.789628 0.489933 1.654499 -0.99585573 0.0240989287 0.0876961016 0.984787 0.084888
-0.786959 0.508368 1.643284 -0.990402372 0.136700327 0.0204000489 0.987131 0.137795
-0.785052 0.525909 1.634052 -0.917494174 0.265798312 0.295898121 0.979778 0.190802
-0.784146 0.545729 1.619763 -0.919089035 0.256896935 0.298796435 0.978971 0.252524
-0.785156 0.525311 1.633043 -0.993881723 0.102598113 0.0408992479 0.987245 0.191189
-0.784249 0.54513 1.618755 -0.995727194 0.0695018981 0.0608016605 0.987339 0.253044
-0.369834 0.44654 1.638618 0.978491365 0.0857992428 0.187598344 0.030783 0.076751
-0.373279 0.464683 1.628203 0.979037605 0.174706711 0.104704022 0.032325 0.124696
-0.373382 0.464084 1.627194 0.992293004 0.0308997822 -0.119999154 0.024739 0.123585
-0.369938 0.445941 1.637609 0.996137122 -0.0455016957 -0.0751027988 0.024091 0.073445
-0.373513 0.481527 1.618229 0.976005368 0.0756004158 0.204201123 0.032045 0.178272
-0.370778 0.502924 1.60525 0.966591315 0.0128998841 0.2559977 0.030236 0.242462
-0.370882 0.502325 1.604241 0.988035955 -0.153905601 -0.00990036028 0.021663 0.241803
-0.373616 0.480929 1.617221 0.994966366 -0.086497076 -0.0505982896 0.024028 0.177798
-0.496744 0.441979 1.654327 0.0361005904 -0.660210798 0.75021227 0.329812 0.026509
-0.54047 0.443839 1.657703 0.00619997086 -0.662996884 0.748596482 0.417696 0.02432
-0.496848 0.44138 1.653318 0.00900003969 -0.860303794 0.509702248 0.330277 0.016619
-0.540574 0.44324 1.656695 -0.0222011085 -0.858742878 0.511925561 0.418214 0.013241
-0.584037 0.447585 1.659943 -0.0424012642 -0.660619697 0.749522347 0.507787 0.023461
-0.627443 0.453218 1.661047 -0.0903001743 -0.65260126 0.752301452 0.597877 0.024377
-0.58414 0.446986 1.658935 -0.0724017605 -0.854420775 0.514512511 0.508503 0.012038
-0.627546 0.452619 1.660039 -0.122293217 -0.84795297 0.515771394 0.598753 0.013407
-0.67069 0.460738 1.661015 -0.118797379 -0.643485802 0.756183315 0.68576 0.027516
-0.670793 0.460139 1.660006 -0.153204988 -0.842827439 0.515916796 0.686575 0.017748
-0.466717 0.796533 1.44082 0.0428014319 0.971532503 -0.233007795 0.321633 0.966577
-0.510127 0.799945 1.443243 0.110294853 0.967254859 -0.228589332 0.410065 0.962825
-0.51023 0.799346 1.442234 0.0893965753 0.852467343 -0.515080268 0.409361 0.974136
-0.46682 0.795934 1.439812 0.0191008509 0.858938262 -0.511722795 0.321323 0.976643
-0.552852 0.807091 1.443379 0.165704114 0.958423798 -0.232305768 0.501701 0.966791
-0.595719 0.814729 1.443238 0.133909941 0.962771469 -0.234817431 0.59306 0.972893
-0.595823 0.81413 1.442229 0.114301041 0.849107731 -0.515704696 0.59201 0.983788
-0.552955 0.806492 1.44237 0.145806178 0.844135767 -0.51592186 0.500739 0.978301
-0.639558 0.819615 1.444829 0.0828991951 0.969890582 -0.228997776 0.680664 0.975551
-0.639661 0.819016 1.44382 0.0599994453 0.855692089 -0.513995248 0.679729 0.985247
-0.771503 0.724593 1.505792 -0.913108191 0.303902726 0.271802438 0.978828 0.685825
-0.777412 0.686419 1.527637 -0.917049939 0.274014922 0.289715777 0.981138 0.598335
-0.777515 0.685821 1.526629 -0.990479225 0.136097145 0.0206995658 0.992077 0.599154
-0.771606 0.723994 1.504784 -0.986729 0.16230477 0.00480014108 0.988542 0.686561
-0.781493 0.645612 1.548354 -0.923444668 0.235311382 0.303114662 0.981761 0.508435
-0.783746 0.606346 1.570442 -0.927230965 0.229907678 0.295609872 0.981169 0.418471
-0.783849 0.605747 1.569434 -0.995542461 0.0746031819 0.0577024611 0.992195 0.419041
-0.781596 0.645013 1.547345 -0.994046995 0.100404747 0.0423019999 0.993153 0.509148
-0.78417 0.572796 1.596403 -0.92458302 0.244595508 0.292094636 0.979836 0.330791
-0.784274 0.572197 1.595394 -0.995970774 0.0604982247 0.0661980574 0.989622 0.331333
-0.365318 0.534722 1.585818 0.964067236 -0.00460032084 0.265618525 0.027191 0.322253
-0.358874 0.571603 1.563269 0.965902767 -0.0015000043 0.258900742 0.023339 0.410984
-0.358977 0.571005 1.56226 0.986337151 -0.164706204 -0.0033001243 0.012256 0.409863
-0.365421 0.534123 1.58481 0.985358862 -0.170492882 0.000299987476 0.017344 0.321316
-0.353187 0.608249 1.540936 0.970226017 0.0208005578 0.241306471 0.019108 0.501993
-0.349276 0.645721 1.518296 0.974386977 0.0655991233 0.215097125 0.016159 0.593306
-0.349379 0.645122 1.517287 0.994523058 -0.0937021725 -0.0463010735 0.005078 0.592529
-0.35329 0.607651 1.539928 0.990032612 -0.139604599 -0.0186006127 0.007582 0.500967
-0.348156 0.685081 1.494821 0.974563178 0.109907125 0.195312662 0.016153 0.682949
-0.348259 0.684482 1.493812 0.996123021 -0.0504011648 -0.0721016663 0.006497 0.68245
-0.771726 0.723297 1.503609 -0.963908453 0.00410003596 -0.266202335 0.67609 0.98038
-0.777101 0.684495 1.524742 -0.592542718 -0.324123367 -0.737453165 0.588899 0.971111
-0.777636 0.685124 1.525454 -0.969140458 -0.0099004133 -0.246310282 0.588902 0.982035
-0.771201 0.722555 1.502965 -0.580910285 -0.331705873 -0.74331316 0.675693 0.970676
-0.765749 0.754776 1.484505 -0.547603381 -0.31420194 -0.775504789 0.753107 0.970761
-0.766266 0.755615 1.485091 -0.960537029 -0.00480018505 -0.278110721 0.753783 0.979046
-0.766163 0.756214 1.486099 -0.98902205 0.14710328 0.0140003121 0.753269 0.987324
-0.771623 0.723896 1.504618 -0.986697879 0.162499651 0.00459999011 0.675603 0.990115
-0.777532 0.685722 1.526463 -0.990315419 0.137402139 0.0199003099 0.588367 0.993032
-0.781717 0.644316 1.546171 -0.971781089 -0.0467990893 -0.231195501 0.498991 0.982854
-0.783416 0.604647 1.567411 -0.583746719 -0.436134905 -0.684854811 0.409929 0.97138
-0.783969 0.60505 1.568259 -0.971630291 -0.107803361 -0.210506563 0.408786 0.982322
-0.781173 0.6438 1.54539 -0.593812708 -0.342607332 -0.72801558 0.499576 0.971532
-0.781613 0.644915 1.547179 -0.993971747 0.101397118 0.0416988147 0.498294 0.994259
-0.783866 0.605649 1.569268 -0.995572035 0.0738979242 0.058098368 0.407963 0.99333
-0.784394 0.571501 1.59422 -0.970712241 -0.150201894 -0.187502364 0.320716 0.979925
-0.783798 0.54424 1.616606 -0.560081803 -0.503883629 -0.657578636 0.243182 0.968411
-0.78437 0.544433 1.61758 -0.974042484 -0.122105326 -0.190608314 0.241512 0.977011
-0.783831 0.57121 1.593303 -0.559202122 -0.52440199 -0.642102437 0.322162 0.970096
-0.784291 0.572099 1.595228 -0.995980952 0.0599988525 0.0664987282 0.319955 0.98978
-0.784266 0.545032 1.618589 -0.995657536 0.0715969465 0.0594974625 0.240799 0.985661
-0.365542 0.533426 1.583635 0.909710798 -0.319603794 -0.265103147 0.329524 0.024148
-0.359787 0.570039 1.560285 0.443208933 -0.519110463 -0.73081473 0.41792 0.032192
-0.359097 0.570308 1.561086 0.91220452 -0.312501548 -0.265001313 0.417753 0.021094
-0.366222 0.53327 1.582767 0.436808935 -0.5231107 -0.731814969 0.330052 0.033969
-0.371674 0.501569 1.60214 0.434218018 -0.515921409 -0.738430642 0.25159 0.034535
-0.371002 0.501628 1.603067 0.912048025 -0.303015956 -0.27631455 0.250831 0.026163
-0.370899 0.502227 1.604076 0.988035955 -0.153905601 -0.00990036028 0.251272 0.017784
-0.365438 0.534025 1.584644 0.985358862 -0.170492882 0.000299987476 0.329853 0.014276
-0.358994 0.570906 1.562094 0.986337151 -0.164706204 -0.0033001243 0.418064 0.009897
-0.353411 0.606953 1.538753 0.917125272 -0.286807903 -0.276807628 0.508618 0.017692
-0.350208 0.64393 1.515448 0.453689307 -0.481188659 -0.750082321 0.599128 0.026908
-0.349499 0.644425 1.516113 0.921171126 -0.242592396 -0.304290462 0.600193 0.015734
-0.35411 0.606571 1.538021 0.450608246 -0.505209245 -0.736013469 0.508175 0.029268
-0.353307 0.607552 1.539762 0.990020622 -0.13970291 -0.0185003854 0.509092 0.006
-0.349396 0.645024 1.517121 0.994523058 -0.0937021725 -0.0463010735 0.600872 0.004494
-0.34838 0.683785 1.492638 0.920411777 -0.20400261 -0.333504267 0.690553 0.017013
-0.349559 0.716944 1.472048 0.43823021 -0.449230969 -0.778553671 0.768935 0.029334
-0.348833 0.717649 1.472586 0.917685638 -0.183497128 -0.352394485 0.77071 0.02101
-0.349098 0.683177 1.492041 0.446408982 -0.46020926 -0.767415441 0.689092 0.026823
-0.348276 0.684384 1.493647 0.996115833 -0.0504008011 -0.0722011476 0.691334 0.007288
-0.348729 0.718247 1.473594 0.995890703 -0.025499762 -0.0868991888 0.771563 0.012846
-0.466941 0.795237 1.438637 -0.00950036359 0.668525585 -0.743628459 0.967312 0.327523
-0.510605 0.79768 1.44063 -0.0276998291 0.00669995866 -0.999593833 0.952744 0.415803
-0.510351 0.798649 1.44106 0.0566996604 0.656496068 -0.752195494 0.963918 0.415823
-0.467326 0.794282 1.438213 -0.0633998206 0.0240999318 -0.997697177 0.957557 0.327727
-0.429917 0.792627 1.435362 -0.0658012344 0.0350006566 -0.997218708 0.964779 0.249816
-0.429419 0.793571 1.435782 -0.00720034703 0.670432312 -0.741935758 0.972942 0.249394
-0.429316 0.794169 1.436791 0.0177006297 0.859030561 -0.511618201 0.981079 0.250256
-0.466837 0.795836 1.439646 0.0191008509 0.858938262 -0.511722795 0.977078 0.328328
-0.510247 0.799248 1.442068 0.0893965753 0.852467343 -0.515080268 0.975166 0.416438
-0.553075 0.805795 1.441196 0.112502379 0.650513755 -0.751115883 0.967875 0.507185
-0.595934 0.812435 1.440615 -0.0118002395 0.0249005054 -0.999620287 0.962472 0.597943
-0.595943 0.813433 1.441055 0.081199434 0.657695416 -0.74889478 0.97358 0.59876
-0.553198 0.804812 1.440761 0.00230004708 0.0124002538 -0.999920469 0.956308 0.506788
-0.552972 0.806394 1.442204 0.145806178 0.844135767 -0.51592186 0.979551 0.507618
-0.59584 0.814032 1.442063 0.114301041 0.849107731 -0.515704696 0.984794 0.599081
-0.639782 0.818319 1.442646 0.0295012889 0.660628864 -0.750132774 0.975428 0.687702
-0.677479 0.820436 1.444221 -0.0488005092 0.0140001461 -0.998710422 0.966158 0.766085
-0.677732 0.82146 1.44467 0.0219999137 0.659597411 -0.751297051 0.974917 0.76763
-0.639642 0.817308 1.442201 -0.0420005618 0.0202002702 -0.998913361 0.965461 0.686529
-0.639678 0.818918 1.443655 0.0600990835 0.855686951 -0.513992162 0.985453 0.688038
-0.677628 0.822059 1.445679 0.0508010706 0.856518051 -0.513610824 0.983744 0.768133
-0.496968 0.440683 1.652144 -0.0182999662 -0.9755982 0.218799596 0.023992 0.320292
-0.459815 0.439615 1.647941 -0.0775042687 -0.877848349 -0.472626031 0.036372 0.24172
-0.459407 0.439488 1.649005 -0.0356026701 -0.975273143 0.218116358 0.027556 0.23998
-0.497263 0.440797 1.651076 -0.0704005769 -0.881607225 -0.466703825 0.03395 0.321769
-0.540858 0.442643 1.654447 -0.0867026349 -0.885326905 -0.456813883 0.032176 0.410182
-0.540694 0.442543 1.65552 -0.0473028529 -0.972858675 0.226513661 0.021159 0.409045
-0.540591 0.443141 1.656529 -0.0222011085 -0.858742878 0.511925561 0.010075 0.408216
-0.496865 0.441282 1.653153 0.00900003969 -0.860303794 0.509702248 0.013999 0.319494
-0.459304 0.440087 1.650013 -0.00680007749 -0.859609795 0.510905822 0.01867 0.239214
-0.58426 0.446289 1.65776 -0.0955007196 -0.968207295 0.231201742 0.020801 0.499628
-0.584293 0.446375 1.656682 -0.112799684 -0.884397519 -0.45289873 0.032174 0.500162
-0.627568 0.451994 1.657781 -0.138703272 -0.879720753 -0.454810729 0.033304 0.589683
-0.627667 0.451922 1.658864 -0.143808324 -0.962455709 0.230213325 0.022343 0.589773
-0.627563 0.452521 1.659873 -0.122293217 -0.84795297 0.515771394 0.011303 0.589342
-0.584157 0.446888 1.658769 -0.0724017605 -0.854420775 0.514512511 0.009343 0.498983
-0.670913 0.459442 1.658832 -0.173295049 -0.958872605 0.224793578 0.025209 0.677211
-0.670683 0.459499 1.657743 -0.154496866 -0.8725823 -0.4633906 0.034929 0.676719
-0.707652 0.466342 1.65747 -0.147298573 -0.870291567 -0.469995446 0.036008 0.754225
-0.707995 0.466297 1.658563 -0.156405502 -0.962233852 0.222807839 0.027732 0.754988
-0.707892 0.466896 1.659571 -0.137701078 -0.845506616 0.515904037 0.019461 0.754602
-0.67081 0.460041 1.65984 -0.153204988 -0.842827439 0.515916796 0.015459 0.676838
-0.785276 0.524614 1.631869 -0.974874522 -0.0600984293 -0.214494394 0.177907 0.974929
-0.786499 0.507592 1.641066 -0.601015083 -0.359109012 -0.714017919 0.12681 0.965131
-0.78708 0.507671 1.642109 -0.971701929 -0.0183000363 -0.235500467 0.124129 0.972319
-0.784699 0.524485 1.630855 -0.587920101 -0.41151407 -0.696423811 0.179896 0.967056
-0.785173 0.525212 1.632878 -0.99379594 0.103699576 0.0401998358 0.177026 0.983026
-0.786977 0.50827 1.643118 -0.990404387 0.136700606 0.0203000899 0.122423 0.979868
-0.789748 0.489236 1.653324 -0.97152764 -0.151804319 -0.181905175 0.074403 0.967822
-0.78636 0.475096 1.660338 -0.457997131 -0.722295475 -0.518196754 0.044138 0.947412
-0.786934 0.475088 1.661433 -0.723419225 -0.68521821 0.0845022457 0.038761 0.95207
-0.789163 0.489205 1.652251 -0.6080797 -0.40198658 -0.684577146 0.078432 0.961735
-0.789645 0.489834 1.654333 -0.995853325 0.0241988658 0.0876958898 0.070779 0.974176
-0.786831 0.475687 1.662441 -0.736284148 -0.546088243 0.399591397 0.03323 0.956633
-0.373737 0.480232 1.616046 0.923525665 -0.228406348 -0.308108562 0.188571 0.026448
-0.374403 0.480237 1.61508 0.442832908 -0.482735873 -0.755556147 0.189555 0.033827
-0.374165 0.463442 1.625024 0.476912767 -0.411411014 -0.776720793 0.138092 0.031564
-0.373503 0.463387 1.62602 0.932632974 -0.0942033306 -0.348312315 0.136468 0.024823
-0.373399 0.463986 1.627028 0.992293004 0.0308997822 -0.119999154 0.136409 0.018014
-0.373633 0.48083 1.617055 0.994957755 -0.0865963232 -0.0505978517 0.189133 0.019068
-0.370058 0.445244 1.636435 0.927539468 -0.209308906 -0.309613174 0.088242 0.021112
-0.370716 0.445348 1.63541 0.506916004 -0.419513244 -0.753023773 0.091348 0.027468
-0.373223 0.432446 1.643324 0.303001326 -0.770003369 -0.561502457 0.057193 0.035841
-0.372583 0.432307 1.644372 0.61980053 -0.784700671 0.00960000821 0.052302 0.030124
-0.372479 0.432905 1.64538 0.692383255 -0.649384295 0.314492394 0.047575 0.024214
-0.369955 0.445843 1.637443 0.996137122 -0.0455016957 -0.0751027988 0.086075 0.014512
-0.702933 0.823861 1.445827 0.0458011052 0.659715919 -0.750118101 0.973541 0.832163
-0.722812 0.825325 1.445964 -0.019901408 0.0215015212 -0.999570717 0.963261 0.884364
-0.723197 0.826363 1.446418 0.0758026952 0.661023503 -0.746526543 0.970711 0.887192
-0.702605 0.822829 1.445375 -0.037099962 0.0149999846 -0.999198976 0.965444 0.830151
-0.70283 0.824459 1.446836 0.0741014224 0.854216397 -0.514609878 0.981884 0.833012
-0.723094 0.826962 1.447427 0.104697247 0.850477637 -0.515486445 0.978541 0.88901
-0.746333 0.82981 1.446743 -0.0593038137 0.654942117 -0.753348446 0.965836 0.938608
-0.763183 0.827192 1.448992 -0.44862557 -0.0922052554 -0.888950667 0.945226 0.969194
-0.763668 0.828229 1.449457 -0.678217739 0.442211566 -0.586915351 0.949984 0.974797
-0.745891 0.828766 1.446286 -0.0684985417 0.0306993464 -0.99717877 0.959549 0.934362
-0.746229 0.830409 1.447751 -0.0182005205 0.86062461 -0.508914553 0.972379 0.942462
-0.763565 0.828827 1.450466 -0.691706602 0.649906203 -0.314903006 0.954582 0.980591
-0.732908 0.469936 1.658955 -0.0887038654 -0.969042227 0.23041004 0.028246 0.816149
-0.732489 0.469973 1.65786 -0.114808362 -0.87776393 -0.465133877 0.035501 0.815156
-0.751692 0.47125 1.659069 -0.0671038267 -0.892750911 -0.445525407 0.034302 0.865864
-0.752168 0.47122 1.660167 0.000100004687 -0.969545439 0.244911478 0.027746 0.867461
-0.752064 0.471818 1.661175 0.0193994346 -0.860674916 0.508785172 0.021073 0.867736
-0.732804 0.470535 1.659964 -0.0705028635 -0.854634712 0.514420894 0.02096 0.815765
-0.772292 0.47101 1.662353 -0.139808279 -0.963757071 0.227213455 0.02723 0.915692
-0.77176 0.471035 1.661253 -0.107301473 -0.897812327 -0.427105864 0.033304 0.912702
-0.772189 0.471609 1.663362 -0.0994960774 -0.851166443 0.515379682 0.020912 0.917923
-0.40436 0.791661 1.434348 0.0129994605 0.666972321 -0.744969084 0.975689 0.188547
-0.404934 0.790727 1.433931 -0.052999951 0.028099974 -0.998199077 0.968439 0.18933
-0.385026 0.789056 1.432883 -0.0606029896 0.0287014159 -0.99774922 0.969572 0.138591
-0.384396 0.789984 1.433298 -0.00800026493 0.672422268 -0.74012451 0.976276 0.137028
-0.384292 0.790583 1.434306 0.0216994582 0.858778557 -0.511887218 0.983093 0.136733
-0.404257 0.79226 1.435356 0.0405011338 0.857424004 -0.513014362 0.98296 0.189191
-0.362157 0.789014 1.431595 0.123699547 0.638997658 -0.759197218 0.975423 0.08688
-0.362845 0.788091 1.431182 -0.0130000015 0.0321000037 -0.999400115 0.969212 0.089927
-0.346835 0.783243 1.432419 0.335614027 -0.166106943 -0.927238755 0.95743 0.054125
-0.346106 0.784149 1.432838 0.694817927 0.309007973 -0.649416755 0.962893 0.049419
-0.346002 0.784748 1.433847 0.771017117 0.509811318 -0.381608472 0.968426 0.044713
-0.362054 0.789613 1.432604 0.143395302 0.844572328 -0.515883097 0.981847 0.084485
-0.434335 0.437737 1.647476 -0.0913997125 -0.969196952 0.228699281 0.030111 0.174718
-0.414441 0.435197 1.645914 -0.136401039 -0.883006724 -0.44910342 0.040465 0.121719
-0.413901 0.435057 1.646973 -0.143207097 -0.959747561 0.241611973 0.032872 0.118838
-0.434818 0.437871 1.646415 -0.105597444 -0.878678732 -0.465588731 0.038317 0.176833
-0.434231 0.438335 1.648484 -0.0638992671 -0.85529019 0.514194102 0.021646 0.173774
-0.413798 0.435656 1.647981 -0.11989769 -0.848283654 0.515790061 0.024887 0.117013
-0.390257 0.431079 1.646911 -0.0177003396 -0.976518735 0.214704119 0.037058 0.066669
-0.390854 0.431226 1.645854 -0.0922967244 -0.891268369 -0.443984243 0.043494 0.07099
-0.390154 0.431678 1.64792 -0.00500019106 -0.859732851 0.510719515 0.030355 0.062771
-0.763531 0.778857 1.474352 -0.969841563 -0.0543023272 -0.237610183 0.815209 0.979188
-0.76302 0.777953 1.473805 -0.526327536 -0.307216072 -0.792841479 0.814288 0.9719
-0.763089 0.796453 1.466128 -0.586208591 -0.380005569 -0.715510486 0.865051 0.974234
-0.763596 0.797406 1.466645 -0.98060757 -0.15160117 -0.124200959 0.866608 0.980867
-0.763492 0.798005 1.467654 -0.992517915 -0.0286005162 0.118702143 0.866666 0.987572
-0.763428 0.779456 1.475361 -0.995475576 0.076098133 0.056898604 0.814635 0.986475
-0.766532 0.815645 1.457219 -0.977077825 -0.0662984954 -0.202295409 0.91422 0.984143
-0.766029 0.814644 1.456731 -0.641026744 -0.38901623 -0.661627604 0.911212 0.977908
-0.766429 0.816244 1.458228 -0.995827206 0.0664018141 0.0626017103 0.91633 0.990619
-0.349638 0.738634 1.460214 0.918011934 -0.209002717 -0.337004381 0.831674 0.027207
-0.349631 0.753126 1.45058 0.443300423 -0.507600485 -0.738800706 0.8787 0.040005
-0.348895 0.753945 1.45105 0.918496891 -0.303398973 -0.253599142 0.881552 0.033044
-0.35037 0.737864 1.459715 0.43049929 -0.460299241 -0.776398719 0.829525 0.03476
-0.349535 0.739232 1.461222 0.99612971 -0.0485014466 -0.0733021863 0.832644 0.019631
-0.348792 0.754544 1.452059 0.98828985 -0.152198437 -0.0108998881 0.883243 0.025844
-0.344701 0.770788 1.440624 0.920975682 -0.231493887 -0.313391725 0.928447 0.035961
-0.345441 0.769921 1.440184 0.478010982 -0.492311311 -0.727416713 0.924297 0.041972
-0.344598 0.771387 1.441633 0.994397648 -0.0955997739 -0.0450998933 0.932031 0.029686
-0.347455 0.768515 1.440881 0.0531007145 -0.517206959 -0.854211493 0.919016 0.047452
-0.355642 0.777374 1.43606 -0.01880084 -0.458220474 -0.888639705 0.940347 0.07099
-0.348815 0.781723 1.433181 -0.0103001143 -0.456605066 -0.88960987 0.952108 0.058829
-0.354673 0.767185 1.441506 0.0603001972 -0.47410155 -0.878402872 0.914497 0.063119
-0.358568 0.750286 1.450835 0.208404571 -0.446609796 -0.870119086 0.868672 0.062889
-0.351633 0.751868 1.451189 0.112899331 -0.512396961 -0.851294952 0.873528 0.046485
-0.352359 0.736752 1.460235 0.181900819 -0.489702206 -0.852703841 0.825018 0.042263
-0.359473 0.734556 1.458771 0.359604594 -0.411005251 -0.837710702 0.820825 0.060088
-0.359052 0.713411 1.470011 0.45072157 -0.423820282 -0.785637598 0.762158 0.057393
-0.351532 0.716027 1.47245 0.228201853 -0.48640395 -0.843406848 0.765321 0.037974
-0.764314 0.812836 1.457285 -0.244499435 -0.464598927 -0.851098034 0.906406 0.972156
-0.755074 0.79142 1.464906 -0.450911945 -0.331008769 -0.828921958 0.856407 0.951402
-0.761361 0.794793 1.466593 -0.27771093 -0.405615963 -0.870834272 0.860497 0.967749
-0.757388 0.809711 1.456741 -0.311516269 -0.393920573 -0.864745162 0.9026 0.956207
-0.755098 0.819558 1.4516 -0.19369963 -0.389799255 -0.900298281 0.92901 0.950709
-0.761519 0.825279 1.449613 -0.169700361 -0.431100918 -0.886201888 0.940149 0.96397
-0.76128 0.776439 1.474182 -0.321405699 -0.360306388 -0.875715527 0.810375 0.96461
-0.757875 0.750164 1.482099 -0.572209367 -0.30790504 -0.760112443 0.748081 0.944777
-0.763992 0.753457 1.484764 -0.364102618 -0.388402793 -0.846506086 0.75005 0.962462
-0.755242 0.773029 1.471856 -0.537911312 -0.281205914 -0.794716713 0.807206 0.947723
-0.392438 0.432862 1.644702 -0.0834036444 -0.650128408 -0.755233001 0.049398 0.076155
-0.381699 0.439363 1.638993 0.0165001876 -0.60950693 -0.792609012 0.073922 0.054751
-0.374938 0.434059 1.642198 -0.0052001384 -0.577715376 -0.816221724 0.062409 0.041173
-0.394592 0.438189 1.640072 -0.0208015223 -0.708651861 -0.705251612 0.065136 0.081577
-0.417348 0.44123 1.639106 -0.0533020836 -0.823832204 -0.56432206 0.06374 0.13189
-0.415855 0.436816 1.644755 -0.102600792 -0.713205506 -0.693405353 0.047273 0.126715
-0.436061 0.439471 1.645249 -0.0945989533 -0.756091634 -0.647592834 0.046006 0.181288
-0.437265 0.443307 1.638815 -0.0623997947 -0.890897069 -0.44989852 0.063314 0.185227
-0.46185 0.444824 1.639755 -0.0649015947 -0.91412246 -0.400209833 0.063363 0.247978
-0.460831 0.44119 1.646766 -0.081899475 -0.773895039 -0.627995975 0.045045 0.245407
-0.3647 0.786521 1.431961 -0.0674047104 -0.387827102 -0.91926424 0.963428 0.094279
-0.388998 0.78116 1.435629 0.00520032051 -0.23591454 -0.971759891 0.946984 0.146447
-0.386711 0.787467 1.433655 -0.067400795 -0.32470383 -0.943411128 0.963097 0.142694
-0.367501 0.780579 1.434871 -0.0216012283 -0.382621756 -0.92365252 0.947944 0.098134
-0.406448 0.789119 1.434696 -0.0598985592 -0.248894013 -0.966676747 0.961231 0.192964
-0.433152 0.783587 1.435953 -0.0233011123 0.088004201 -0.995847538 0.939391 0.254895
-0.431205 0.790996 1.436119 -0.0696999491 -0.181599867 -0.980899284 0.956563 0.25281
-0.408535 0.782188 1.435528 0.0155996452 -0.058298674 -0.998177297 0.944495 0.19594
-0.769956 0.472306 1.65997 -0.10679781 -0.652086629 -0.750584609 0.038891 0.908193
-0.74825 0.476638 1.651994 -0.161708711 -0.81274378 -0.559730151 0.056899 0.857861
-0.750059 0.47254 1.657792 -0.0960967145 -0.716075518 -0.691376362 0.040621 0.861622
-0.767702 0.477316 1.655077 -0.183113336 -0.694550582 -0.69575067 0.054552 0.904657
-0.778631 0.480688 1.655133 -0.217997174 -0.592792314 -0.775289948 0.061464 0.931387
-0.784431 0.476317 1.659073 -0.173597617 -0.57029217 -0.802888976 0.049208 0.942566
-0.731026 0.471281 1.65659 -0.115500475 -0.754803102 -0.645702654 0.042696 0.811409
-0.705182 0.471066 1.649111 -0.161794727 -0.90367055 -0.396487079 0.062114 0.749176
-0.706416 0.467675 1.656209 -0.132606808 -0.768439453 -0.626032141 0.044293 0.751164
-0.729525 0.474825 1.650051 -0.160809906 -0.880454238 -0.446027476 0.059632 0.808414
-0.744358 0.82683 1.446935 -0.0935050485 -0.351118957 -0.931650301 0.953772 0.929333
-0.742544 0.820121 1.449042 -0.154501822 -0.269903182 -0.950411205 0.938217 0.924135
-0.720457 0.816244 1.447587 -0.111103571 -0.0963030957 -0.989131796 0.940241 0.874526
-0.72145 0.823408 1.446619 -0.0707047391 -0.268918025 -0.960564384 0.956571 0.879522
-0.701414 0.820929 1.446037 -0.0681012755 -0.20770389 -0.975818277 0.957841 0.825815
-0.700853 0.813364 1.446188 -0.0798008124 0.0346003522 -0.996210141 0.940684 0.821947
-0.676257 0.810689 1.444579 -0.0553979589 0.0977963968 -0.993663389 0.939577 0.759841
-0.676514 0.818561 1.444891 -0.0675012846 -0.176303355 -0.982018688 0.957535 0.762455
-0.372483 0.446856 1.634352 0.0975056033 -0.509129258 -0.855149143 0.096333 0.033335
-0.382731 0.465505 1.621152 0.329313295 -0.534121563 -0.778631434 0.147254 0.054669
-0.375944 0.464803 1.624055 0.182007685 -0.497020985 -0.848435822 0.142848 0.038169
-0.379747 0.448598 1.632373 0.149004478 -0.56871709 -0.808924309 0.10048 0.049481
-0.376195 0.481452 1.614199 0.238119644 -0.517842721 -0.821667786 0.193629 0.041203
-0.380345 0.502106 1.597407 0.504426319 -0.512326731 -0.695036264 0.25687 0.060712
-0.373482 0.502589 1.601376 0.259300371 -0.532700762 -0.805601152 0.254752 0.042891
-0.382876 0.481447 1.610605 0.454394429 -0.52039362 -0.722991136 0.197038 0.058218
-0.787201 0.490312 1.65105 -0.260792436 -0.49958551 -0.82607604 0.08327 0.956181
-0.78053 0.49071 1.648442 -0.34071252 -0.542119921 -0.768128225 0.087785 0.940639
-0.778165 0.507873 1.63652 -0.501117036 -0.470615999 -0.726224688 0.135998 0.942348
-0.784549 0.508551 1.639953 -0.343202559 -0.467403485 -0.814706073 0.131444 0.958663
-0.782762 0.525298 1.629831 -0.379408943 -0.501511821 -0.777518326 0.184098 0.959632
-0.776527 0.5239 1.62574 -0.600343866 -0.443732422 -0.665348615 0.187724 0.942473
-0.775596 0.54318 1.611396 -0.612606824 -0.478605332 -0.629007007 0.249274 0.941793
-0.781877 0.544858 1.615698 -0.371010119 -0.574715676 -0.729419895 0.246764 0.959909
-0.669785 0.460868 1.656495 -0.134800253 -0.76800144 -0.626101174 0.044589 0.674496
-0.626519 0.457485 1.648886 -0.136400758 -0.898704992 -0.416802315 0.064392 0.587601
-0.627064 0.453405 1.656548 -0.123110895 -0.764667668 -0.632555977 0.044107 0.588551
-0.668876 0.464552 1.649031 -0.154796444 -0.904279229 -0.397890861 0.06371 0.673003
-0.584183 0.447829 1.655464 -0.106902526 -0.764818073 -0.635315013 0.043374 0.500476
-0.541385 0.448304 1.645613 -0.0900992044 -0.90369202 -0.418596304 0.063589 0.413291
-0.541142 0.444139 1.653244 -0.0907964445 -0.768169919 -0.633775182 0.043061 0.411938
-0.584022 0.452069 1.647747 -0.113206696 -0.897553092 -0.426125206 0.064137 0.500673
-0.497941 0.442336 1.649888 -0.0797036449 -0.773935393 -0.62822873 0.043841 0.324602
-0.498609 0.446189 1.642485 -0.0719005371 -0.913206822 -0.401102996 0.063393 0.32653
-0.639015 0.815469 1.442884 -0.0607050551 -0.167613958 -0.98398194 0.955608 0.68368
-0.639192 0.807424 1.442493 -0.0345017077 0.116005742 -0.992649132 0.936953 0.681653
-0.596317 0.802662 1.440927 -0.00250010167 0.125105088 -0.992140346 0.932712 0.594699
-0.595702 0.81064 1.441313 -0.0407007688 -0.165803132 -0.985318613 0.951577 0.596136
-0.55336 0.803059 1.441475 -0.0270002871 -0.150701603 -0.98821051 0.944958 0.506467
-0.554291 0.795492 1.440876 0.0173002341 0.152102058 -0.988213371 0.926751 0.506295
-0.512391 0.788752 1.440584 -0.00890039082 0.1799079 -0.983643193 0.924299 0.418055
-0.51116 0.795969 1.441359 -0.0458023144 -0.132306686 -0.990150034 0.941719 0.416972
-0.468276 0.792614 1.438957 -0.071802172 -0.140104238 -0.987529873 0.947823 0.32995
-0.469891 0.785279 1.43829 -0.042101053 0.166604167 -0.985124638 0.930586 0.331594
-0.351046 0.682551 1.492269 0.245417563 -0.496435526 -0.832659587 0.686272 0.036801
-0.35897 0.680263 1.489254 0.474820349 -0.453019415 -0.754532336 0.683872 0.057482
-0.360278 0.641939 1.512133 0.469610632 -0.478410831 -0.742016799 0.595735 0.059288
-0.352127 0.643643 1.515472 0.244113884 -0.511229077 -0.824046869 0.597291 0.037947
-0.356 0.606623 1.53784 0.245997697 -0.52559508 -0.814392378 0.507795 0.040612
-0.36403 0.605268 1.534282 0.471821412 -0.49822261 -0.727433012 0.507518 0.061747
-0.369334 0.569319 1.556162 0.487912671 -0.506213147 -0.711118468 0.419958 0.063387
-0.361648 0.570429 1.5599 0.253309442 -0.533419884 -0.807030083 0.419042 0.043093
-0.368055 0.533999 1.582178 0.261012465 -0.535725584 -0.80303835 0.332292 0.043687
-0.375302 0.533165 1.578231 0.506542607 -0.507742708 -0.696858615 0.333793 0.062739
-0.781935 0.571537 1.592571 -0.354707708 -0.586912754 -0.727815816 0.324977 0.960316
-0.775352 0.570098 1.588783 -0.561022155 -0.502119829 -0.65812599 0.326958 0.941087
-0.774652 0.603338 1.563729 -0.507603061 -0.453302733 -0.732704418 0.413148 0.940468
-0.781548 0.604635 1.566883 -0.347224539 -0.506935826 -0.788955758 0.41171 0.960567
-0.779334 0.64345 1.545066 -0.347823128 -0.421728042 -0.837355677 0.499937 0.960374
-0.772352 0.641579 1.542063 -0.502940322 -0.382530669 -0.775062139 0.500221 0.940052
-0.768452 0.681169 1.521597 -0.535015671 -0.356110431 -0.76612244 0.586952 0.940424
-0.775291 0.683805 1.524622 -0.358701616 -0.407301835 -0.839903784 0.587821 0.960331
-0.76942 0.721527 1.503049 -0.373506809 -0.415207569 -0.829515122 0.673528 0.961032
-0.762952 0.718454 1.500144 -0.566414656 -0.344808922 -0.748519368 0.672118 0.942172
-0.482269 0.667474 1.453694 -0.00720001048 -0.449400654 -0.8933013 0.685717 0.324541
-0.448654 0.628716 1.477063 0.106801552 -0.509507406 -0.85381241 0.595754 0.246116
-0.485537 0.629958 1.473939 0.0206006322 -0.489915036 -0.871526748 0.595494 0.3239
-0.445519 0.665462 1.455522 0.0868014214 -0.479907859 -0.873014296 0.685452 0.246335
-0.442656 0.698 1.438716 0.080900936 -0.379104386 -0.921810665 0.763457 0.246519
-0.479286 0.700709 1.438062 -0.0289013893 -0.359117263 -0.932844843 0.763825 0.325197
-0.521766 0.705029 1.439262 -0.0605025599 -0.334814166 -0.940339787 0.76378 0.415664
-0.524882 0.671025 1.453596 -0.0484001256 -0.417901084 -0.907202354 0.68559 0.414946
-0.528282 0.632739 1.472545 -0.0331009007 -0.468912759 -0.882624017 0.595021 0.414187
-0.488686 0.593126 1.495336 0.0309006633 -0.517511108 -0.855118355 0.505641 0.323113
-0.454834 0.555736 1.52101 0.105196606 -0.529482917 -0.841772841 0.416523 0.244289
-0.491718 0.556978 1.517886 0.0160002876 -0.543409768 -0.839315087 0.415621 0.322359
-0.451759 0.592141 1.498893 0.115901204 -0.519605399 -0.846508795 0.506294 0.245347
-0.531476 0.595651 1.49351 -0.0291004073 -0.513807191 -0.857412 0.504913 0.413456
-0.534463 0.559759 1.516492 -0.0405009423 -0.556112938 -0.830119313 0.414789 0.412826
-0.494631 0.521514 1.541588 -0.0186013813 -0.577242865 -0.816360621 0.324898 0.321814
-0.460337 0.489318 1.564186 0.0426008032 -0.63271193 -0.773214579 0.246817 0.242453
-0.496953 0.492112 1.563676 -0.0568015587 -0.648817804 -0.758820822 0.246236 0.32162
-0.45788 0.519503 1.543416 0.0775021352 -0.554715283 -0.828422823 0.325894 0.243206
-0.537243 0.525065 1.541491 -0.0638001528 -0.599401436 -0.797901911 0.324171 0.41237
-0.539432 0.496432 1.564875 -0.0885066834 -0.665250235 -0.741355982 0.246009 0.41215
-0.567376 0.675259 1.454652 -0.0784996063 -0.403297977 -0.911695428 0.684822 0.504946
-0.570821 0.636717 1.473168 -0.0833040033 -0.457221972 -0.885442551 0.594244 0.504178
-0.564216 0.709519 1.440749 -0.0712003571 -0.324201626 -0.943304731 0.762917 0.505637
-0.606637 0.714181 1.442525 -0.0837041292 -0.332316394 -0.939446344 0.761685 0.595565
-0.609753 0.680177 1.45686 -0.110704387 -0.411116293 -0.904835859 0.683644 0.594933
-0.613153 0.641892 1.475808 -0.134502156 -0.458007342 -0.878714086 0.593235 0.594184
-0.574029 0.599543 1.493989 -0.087703271 -0.508418962 -0.856631949 0.504147 0.503459
-0.577002 0.563737 1.517115 -0.091905446 -0.557833055 -0.824848878 0.414085 0.502775
-0.616347 0.604804 1.496773 -0.146101091 -0.501203744 -0.852906371 0.503352 0.593468
-0.619334 0.568912 1.519755 -0.141901058 -0.545204065 -0.826206159 0.413486 0.592692
-0.579738 0.529299 1.542546 -0.0957042809 -0.606327122 -0.789435312 0.323613 0.502112
-0.581882 0.500923 1.566363 -0.100602618 -0.671417471 -0.734219105 0.245726 0.501568
-0.622114 0.534218 1.544754 -0.126000659 -0.5927031 -0.79550416 0.323124 0.591762
-0.624303 0.505585 1.568138 -0.111708918 -0.66275291 -0.740459113 0.245198 0.590814
-0.652011 0.68578 1.46022 -0.15590972 -0.433927054 -0.887355324 0.682288 0.685298
-0.655279 0.648264 1.480465 -0.190506456 -0.467115831 -0.863429262 0.592061 0.684514
-0.649028 0.719014 1.444589 -0.116104748 -0.352614419 -0.928537969 0.760533 0.685894
-0.685252 0.724076 1.447899 -0.214714672 -0.364124882 -0.906261927 0.759214 0.764552
-0.6881 0.691623 1.464848 -0.250395041 -0.446791151 -0.85888299 0.680784 0.76351
-0.691235 0.654877 1.48639 -0.277401474 -0.468102488 -0.839004459 0.590887 0.762334
-0.658428 0.611432 1.501862 -0.2051057 -0.492113676 -0.846023511 0.502537 0.683827
-0.661459 0.575284 1.524412 -0.195011633 -0.520731063 -0.831149579 0.412967 0.683063
-0.69434 0.618302 1.508219 -0.287804916 -0.47600813 -0.831014194 0.501824 0.76158
-0.697416 0.581897 1.530337 -0.279090592 -0.488083547 -0.826972123 0.412636 0.760994
-0.664373 0.53982 1.548114 -0.166693243 -0.561277249 -0.81066714 0.322607 0.682046
-0.666694 0.510418 1.570202 -0.140400873 -0.63980398 -0.7556047 0.244234 0.680826
-0.700462 0.545664 1.552743 -0.25649419 -0.518688252 -0.815581527 0.322363 0.760322
-0.702918 0.515479 1.573513 -0.234919787 -0.602750769 -0.76256423 0.243485 0.759375
-0.711969 0.697266 1.470861 -0.405690925 -0.423490527 -0.809981881 0.679165 0.817038
-0.715059 0.660776 1.492835 -0.410205468 -0.441305883 -0.798110639 0.589875 0.814809
-0.709171 0.729423 1.453415 -0.386222286 -0.345019908 -0.855449361 0.757482 0.819468
-0.726831 0.735664 1.461555 -0.539720831 -0.307611873 -0.783630245 0.75481 0.863207
-0.729948 0.703616 1.479132 -0.543717581 -0.375012126 -0.750824278 0.677031 0.859577
-0.733381 0.667028 1.501021 -0.525535259 -0.39512651 -0.753450551 0.588834 0.856537
-0.718149 0.624286 1.514809 -0.406895406 -0.444394983 -0.79809099 0.501338 0.813769
-0.72124 0.587796 1.536782 -0.404798587 -0.449498431 -0.796297221 0.412597 0.813592
-0.736585 0.630112 1.52277 -0.503893699 -0.406394918 -0.762190469 0.500961 0.855339
-0.739562 0.593388 1.54469 -0.506617529 -0.422014602 -0.751826014 0.412817 0.855577
-0.72433 0.551306 1.558756 -0.408503164 -0.469903639 -0.782506061 0.322696 0.81395
-0.726838 0.520826 1.579028 -0.409818424 -0.544624484 -0.731732896 0.243602 0.814231
-0.742309 0.557378 1.567094 -0.543798964 -0.437099167 -0.716398635 0.323807 0.856841
-0.744498 0.52739 1.587639 -0.575517833 -0.478314821 -0.663320553 0.244909 0.858266
-0.748369 0.711581 1.490532 -0.605025272 -0.337514098 -0.721130122 0.673983 0.904821
-0.75283 0.674702 1.512169 -0.574147754 -0.35732972 -0.736661271 0.587575 0.902117
-0.744277 0.743405 1.47274 -0.610426212 -0.286012282 -0.738631718 0.750673 0.908334
-0.756378 0.636505 1.533242 -0.540828421 -0.380519997 -0.750139421 0.500575 0.901237
-0.759011 0.599078 1.555001 -0.545989427 -0.422791813 -0.723285994 0.413259 0.90167
-0.76073 0.56451 1.578696 -0.603417065 -0.447212647 -0.660218671 0.325897 0.902908
-0.761943 0.536099 1.600236 -0.654094149 -0.446196009 -0.610794536 0.247728 0.90435
-0.377616 0.674669 1.47893 0.510595083 -0.444695718 -0.735892913 0.68367 0.099397
-0.379682 0.637196 1.501382 0.503615711 -0.472414737 -0.723322564 0.595513 0.101365
-0.376422 0.707608 1.460947 0.492816556 -0.377612686 -0.783926336 0.761742 0.098054
-0.397902 0.701594 1.450219 0.430099462 -0.363199546 -0.826498967 0.762555 0.147158
-0.400368 0.66884 1.467123 0.431227509 -0.464729646 -0.773349334 0.684462 0.149047
-0.403203 0.632105 1.489217 0.425218368 -0.491621236 -0.759932826 0.595829 0.150656
-0.383145 0.600667 1.523417 0.506018419 -0.485617677 -0.712825947 0.507383 0.102693
-0.387495 0.564551 1.545298 0.523485251 -0.48908622 -0.697680343 0.419504 0.102664
-0.406386 0.595605 1.511206 0.426922452 -0.496126092 -0.756039761 0.507213 0.150715
-0.409791 0.559208 1.533156 0.437815418 -0.496817496 -0.749326388 0.418418 0.149265
-0.392224 0.528318 1.567288 0.54299293 -0.492993581 -0.679791149 0.332101 0.100559
-0.39618 0.49754 1.586863 0.538442119 -0.520040679 -0.663051866 0.254499 0.097475
-0.413291 0.522783 1.555134 0.447822517 -0.508225554 -0.735636989 0.329246 0.146348
-0.416166 0.492203 1.575188 0.435425207 -0.564132659 -0.701540613 0.250606 0.143004
-0.42061 0.665845 1.459659 0.261208415 -0.486315667 -0.833826862 0.685045 0.192932
-0.423701 0.629355 1.481633 0.263408927 -0.512117356 -0.817527706 0.595887 0.193637
-0.417754 0.698344 1.442789 0.271508975 -0.375812423 -0.886029288 0.76308 0.19191
-0.426791 0.592865 1.503607 0.266910352 -0.514119941 -0.815131615 0.506834 0.193073
-0.429882 0.556375 1.52558 0.266410101 -0.516119569 -0.814030865 0.41744 0.191533
-0.432972 0.519885 1.547554 0.258513973 -0.535128925 -0.80424347 0.32726 0.189307
-0.43548 0.489405 1.567826 0.235993042 -0.610082012 -0.756377699 0.24816 0.187122
-0.498872 0.453246 1.62277 -0.0795027819 -0.928932504 -0.361612653 0.102335 0.325288
-0.541427 0.456408 1.625253 -0.098007543 -0.91927075 -0.381229341 0.103536 0.413225
-0.462264 0.451127 1.62118 -0.0461992236 -0.931384348 -0.361093932 0.101111 0.246369
-0.462166 0.459929 1.599056 -0.0219996029 -0.884884028 -0.465291602 0.14749 0.243524
-0.498737 0.462801 1.599487 -0.0887019843 -0.883419762 -0.460110293 0.149169 0.323033
-0.541202 0.467024 1.601332 -0.10709684 -0.876474136 -0.469386149 0.150792 0.412587
-0.583903 0.460512 1.627169 -0.113500796 -0.913706405 -0.390202735 0.104199 0.500855
-0.626298 0.46556 1.628516 -0.129202232 -0.915915823 -0.380006565 0.1038 0.588056
-0.583647 0.471482 1.603034 -0.112404889 -0.873037974 -0.47452064 0.151361 0.50104
-0.626073 0.476177 1.604595 -0.117904851 -0.875336016 -0.468919294 0.150494 0.589117
-0.668614 0.471552 1.629296 -0.147710448 -0.921565185 -0.359025395 0.101813 0.674705
-0.704846 0.477288 1.630507 -0.180601194 -0.916906061 -0.355902353 0.098997 0.751634
-0.668478 0.481107 1.606013 -0.136604529 -0.878229118 -0.458315196 0.147814 0.67754
-0.704747 0.48609 1.608383 -0.202216088 -0.865468855 -0.458336464 0.144574 0.755556
-0.498209 0.474149 1.581383 -0.0825999017 -0.773899079 -0.627899253 0.192398 0.321918
-0.540644 0.478725 1.583014 -0.104903167 -0.776023429 -0.621918776 0.19325 0.412225
-0.461644 0.47106 1.581395 0.00840049119 -0.769544997 -0.638537336 0.191704 0.242389
-0.58308 0.483302 1.584646 -0.107605802 -0.776841888 -0.620433455 0.193423 0.501245
-0.625515 0.487878 1.586277 -0.110198653 -0.775390525 -0.621792402 0.192641 0.589984
-0.667951 0.492454 1.587909 -0.132007112 -0.768541406 -0.626033728 0.190629 0.679452
-0.704226 0.497221 1.590722 -0.220419256 -0.744865071 -0.629755015 0.188479 0.757961
-0.47699 0.724696 1.430507 -0.0256011795 -0.172107929 -0.984745368 0.817336 0.326027
-0.519425 0.729273 1.432138 -0.05310054 -0.161701645 -0.985410022 0.816752 0.416269
-0.440366 0.721949 1.431095 0.0958043649 -0.184008384 -0.97824457 0.817835 0.247184
-0.43818 0.742617 1.429999 0.0930991109 0.0181998262 -0.995490493 0.860749 0.248988
-0.474834 0.745036 1.42953 -0.0135002126 0.0615009686 -0.998015719 0.858189 0.327495
-0.51726 0.749452 1.431255 -0.0284995142 0.0721987694 -0.996983007 0.85623 0.416921
-0.561861 0.733849 1.43377 -0.0541011453 -0.161303415 -0.985420862 0.815567 0.506124
-0.604296 0.738426 1.435401 -0.0571996785 -0.167599058 -0.984194469 0.814461 0.595927
-0.5596 0.754336 1.432695 -0.0232002761 0.0586006974 -0.998011876 0.855291 0.506372
-0.601958 0.759281 1.4341 -0.0287988462 0.0429982773 -0.998659989 0.855342 0.595807
-0.646732 0.743002 1.437033 -0.0808011583 -0.176302527 -0.981014063 0.814112 0.686015
-0.683007 0.747768 1.439846 -0.172110697 -0.182311331 -0.968060167 0.813873 0.764904
-0.644438 0.763882 1.435721 -0.0510016002 0.0365011452 -0.998031314 0.856353 0.68519
-0.680815 0.7684 1.438377 -0.121602739 0.0266005991 -0.992222345 0.857496 0.764017
-0.472272 0.767325 1.433636 -0.0191994131 0.205493718 -0.978470089 0.898323 0.330063
-0.51467 0.771262 1.435643 -0.00759999149 0.221199752 -0.975198908 0.893941 0.417777
-0.435626 0.765312 1.432765 0.0438015276 0.127004429 -0.990934559 0.904361 0.252589
-0.556724 0.777067 1.436507 0.00930017977 0.195703783 -0.980618956 0.894607 0.506346
-0.59885 0.783117 1.437232 -0.00520011331 0.168303667 -0.985721479 0.897696 0.594994
-0.641462 0.787792 1.438823 -0.0332005471 0.15840261 -0.986816263 0.900584 0.682946
-0.678128 0.791671 1.441181 -0.0763999626 0.14209993 -0.986899516 0.902814 0.761346
-0.72818 0.502366 1.595898 -0.38943279 -0.682357454 -0.61865209 0.187285 0.813823
-0.728762 0.490942 1.612795 -0.329009092 -0.812222446 -0.481713312 0.142026 0.81241
-0.745797 0.508728 1.603985 -0.554110489 -0.579810976 -0.597311307 0.187102 0.858985
-0.746587 0.496321 1.619443 -0.458820278 -0.706431221 -0.538923818 0.140029 0.858848
-0.72899 0.48157 1.63315 -0.239017998 -0.882966485 -0.404030423 0.096108 0.809678
-0.747249 0.485095 1.637328 -0.303816144 -0.800042511 -0.517327489 0.093331 0.857705
-0.763059 0.517141 1.615529 -0.636225395 -0.479719148 -0.604224118 0.187987 0.905397
-0.764283 0.50288 1.628518 -0.529842792 -0.569045958 -0.628850788 0.138439 0.905619
-0.765821 0.488556 1.643147 -0.354704861 -0.666309132 -0.655908989 0.090848 0.904586
-0.39821 0.477795 1.601501 0.478998561 -0.579898257 -0.65899802 0.196024 0.094509
-0.398415 0.463582 1.614357 0.339201565 -0.651803008 -0.67830313 0.147831 0.091096
-0.417693 0.473344 1.59137 0.375488867 -0.672680055 -0.637581096 0.193407 0.140273
-0.418228 0.460949 1.606795 0.251516674 -0.781151784 -0.571437882 0.146893 0.137819
-0.396896 0.449404 1.628586 0.142700603 -0.709502998 -0.690102916 0.101074 0.086671
-0.418126 0.449759 1.62458 0.0826015579 -0.84041585 -0.535610102 0.100309 0.135308
-0.436822 0.470945 1.584696 0.188612819 -0.743450527 -0.641643608 0.192004 0.185703
-0.437404 0.459521 1.601593 0.110305111 -0.859539823 -0.49902312 0.146756 0.185207
-0.437632 0.450149 1.621948 0.0141007524 -0.910248568 -0.41382208 0.100378 0.185791
-0.706961 0.752914 1.445022 -0.338814041 -0.181207509 -0.92323826 0.8131 0.821109
-0.724577 0.758962 1.452746 -0.493780721 -0.187792668 -0.849066849 0.811433 0.866175
-0.704866 0.773098 1.442885 -0.254818049 -0.00630044628 -0.966968493 0.857941 0.821789
-0.722816 0.778551 1.449365 -0.388986946 -0.0843971677 -0.917369214 0.857565 0.86876
-0.74184 0.766435 1.4632 -0.571811579 -0.221504486 -0.789915996 0.808514 0.911646
-0.740888 0.785332 1.457934 -0.468741769 -0.209318652 -0.858176471 0.856241 0.915185
-0.702417 0.795335 1.444206 -0.152705831 0.0835031886 -0.984737603 0.903926 0.821337
-0.721177 0.799468 1.448074 -0.237495096 -0.0463990419 -0.970279964 0.90387 0.871242
-0.741255 0.804758 1.452962 -0.306106119 -0.22910458 -0.924018471 0.902591 0.919384
-0.375578 0.730535 1.45232 0.41022677 -0.299919572 -0.861256203 0.819621 0.098601
-0.395825 0.72615 1.443799 0.393709044 -0.213404902 -0.894120538 0.819552 0.146262
-0.374105 0.748497 1.447478 0.261110949 -0.314213175 -0.912738272 0.866765 0.09962
-0.393786 0.746359 1.441965 0.296319377 -0.164810777 -0.940761518 0.865731 0.146237
-0.415366 0.722861 1.436125 0.282814319 -0.187109474 -0.940747631 0.818766 0.191526
-0.413154 0.743729 1.435141 0.247817104 -0.0528036444 -0.967366765 0.863495 0.192297
-0.371024 0.766541 1.440853 0.0974013256 -0.361904926 -0.927112618 0.912631 0.099689
-0.391433 0.766077 1.43882 0.14610565 -0.195607564 -0.969737501 0.911368 0.146963
-0.410823 0.765281 1.435309 0.141209848 -0.0148010323 -0.989869036 0.90866 0.194743
3 0 1 2
3 0 3 1
3 0 4 3
3 0 5 4
3 0 6 5
3 0 7 6
3 0 8 7
3 0 2 8
3 9 10 11
3 9 12 10
3 9 6 12
3 9 5 6
3 9 4 5
3 9 13 4
3 9 14 13
3 9 11 14
3 15 16 17
3 15 18 16
3 15 19 18
3 15 20 19
3 15 4 20
3 15 3 4
3 15 1 3
3 15 17 1
3 21 19 20
3 21 22 19
3 21 23 22
3 21 24 23
3 21 14 24
3 21 13 14
3 21 4 13
3 21 20 4
3 25 26 27
3 25 28 26
3 25 29 28
3 25 30 29
3 25 31 30
3 25 32 31
3 25 33 32
3 25 27 33
3 34 29 30
3 34 35 29
3 34 36 35
3 34 37 36
3 34 38 37
3 34 39 38
3 34 31 39
3 34 30 31
3 40 41 42
3 40 43 41
3 40 44 43
3 40 45 44
3 40 29 45
3 40 28 29
3 40 26 28
3 40 42 26
3 46 44 45
3 46 47 44
3 46 48 47
3 46 49 48
3 46 36 49
3 46 35 36
3 46 29 35
3 46 45 29
3 50 51 52
3 50 53 51
3 50 54 53
3 50 55 54
3 50 56 55
3 50 57 56
3 50 58 57
3 50 52 58
3 59 54 55
3 59 60 54
3 59 61 60
3 59 62 61
3 59 63 62
3 59 64 63
3 59 56 64
3 59 55 56
3 65 66 67
3 65 68 66
3 65 69 68
3 65 70 69
3 65 54 70
3 65 53 54
3 65 51 53
3 65 67 51
3 71 69 70
3 71 72 69
3 71 73 72
3 71 74 73
3 71 61 74
3 71 60 61
3 71 54 60
3 71 70 54
3 75 76 77
3 75 78 76
3 75 79 78
3 75 80 79
3 75 81 80
3 75 82 81
3 75 83 82
3 75 77 83
3 84 79 80
3 84 85 79
3 84 86 85
3 84 87 86
3 84 88 87
3 84 89 88
3 84 81 89
3 84 80 81
3 90 91 92
3 90 93 91
3 90 94 93
3 90 95 94
3 90 79 95
3 90 78 79
3 90 76 78
3 90 92 76
3 96 94 95
3 96 97 94
3 96 98 97
3 96 99 98
3 96 86 99
3 96 85 86
3 96 79 85
3 96 95 79
3 100 36 37
3 100 101 36
3 100 102 101
3 100 103 102
3 100 104 103
3 100 105 104
3 100 38 105
3 100 37 38
3 106 102 103
3 106 107 102
3 106 108 107
3 106 109 108
3 106 110 109
3 106 111 110
3 106 104 111
3 106 103 104
3 112 108 109
3 112 113 108
3 112 1 113
3 112 2 1
3 112 8 2
3 112 114 8
3 112 110 114
3 112 109 110
3 115 48 49
3 115 116 48
3 115 117 116
3 115 118 117
3 115 102 118
3 115 101 102
3 115 36 101
3 115 49 36
3 119 117 118
3 119 120 117
3 119 121 120
3 119 122 121
3 119 108 122
3 119 107 108
3 119 102 107
3 119 118 102
3 123 121 122
3 123 124 121
3 123 16 124
3 123 17 16
3 123 1 17
3 123 113 1
3 123 108 113
3 123 122 108
3 125 94 97
3 125 126 94
3 125 127 126
3 125 128 127
3 125 129 128
3 125 130 129
3 125 98 130
3 125 97 98
3 131 127 128
3 131 132 127
3 131 133 132
3 131 134 133
3 131 135 134
3 131 136 135
3 131 129 136
3 131 128 129
3 137 133 134
3 137 138 133
3 137 56 138
3 137 64 56
3 137 63 64
3 137 139 63
3 137 135 139
3 137 134 135
3 140 91 93
3 140 141 91
3 140 142 141
3 140 143 142
3 140 127 143
3 140 126 127
3 140 94 126
3 140 93 94
3 144 142 143
3 144 145 142
3 144 146 145
3 144 147 146
3 144 133 147
3 144 132 133
3 144 127 132
3 144 143 127
3 148 146 147
3 148 149 146
3 148 58 149
3 148 57 58
3 148 56 57
3 148 138 56
3 148 133 138
3 148 147 133
3 150 61 62
3 150 151 61
3 150 152 151
3 150 153 152
3 150 154 153
3 150 155 154
3 150 63 155
3 150 62 63
3 156 152 153
3 156 157 152
3 156 158 157
3 156 159 158
3 156 160 159
3 156 161 160
3 156 154 161
3 156 153 154
3 162 158 159
3 162 163 158
3 162 19 163
3 162 18 19
3 162 16 18
3 162 164 16
3 162 160 164
3 162 159 160
3 165 73 74
3 165 166 73
3 165 167 166
3 165 168 167
3 165 152 168
3 165 151 152
3 165 61 151
3 165 74 61
3 169 167 168
3 169 170 167
3 169 171 170
3 169 172 171
3 169 158 172
3 169 157 158
3 169 152 157
3 169 168 152
3 173 171 172
3 173 174 171
3 173 23 174
3 173 22 23
3 173 19 22
3 173 163 19
3 173 158 163
3 173 172 158
3 175 86 87
3 175 176 86
3 175 177 176
3 175 178 177
3 175 179 178
3 175 180 179
3 175 88 180
3 175 87 88
3 181 177 178
3 181 182 177
3 181 183 182
3 181 184 183
3 181 185 184
3 181 186 185
3 181 179 186
3 181 178 179
3 187 183 184
3 187 188 183
3 187 44 188
3 187 43 44
3 187 41 43
3 187 189 41
3 187 185 189
3 187 184 185
3 190 98 99
3 190 191 98
3 190 192 191
3 190 193 192
3 190 177 193
3 190 176 177
3 190 86 176
3 190 99 86
3 194 192 193
3 194 195 192
3 194 196 195
3 194 197 196
3 194 183 197
3 194 182 183
3 194 177 182
3 194 193 177
3 198 196 197
3 198 199 196
3 198 48 199
3 198 47 48
3 198 44 47
3 198 188 44
3 198 183 188
3 198 197 183
3 200 129 130
3 200 201 129
3 200 202 201
3 200 203 202
3 200 192 203
3 200 191 192
3 200 98 191
3 200 130 98
3 204 202 203
3 204 205 202
3 204 206 205
3 204 207 206
3 204 196 207
3 204 195 196
3 204 192 195
3 204 203 192
3 208 206 207
3 208 209 206
3 208 117 209
3 208 116 117
3 208 48 116
3 208 199 48
3 208 196 199
3 208 207 196
3 210 135 136
3 210 211 135
3 210 212 211
3 210 213 212
3 210 202 213
3 210 201 202
3 210 129 201
3 210 136 129
3 214 212 213
3 214 215 212
3 214 216 215
3 214 217 216
3 214 206 217
3 214 205 206
3 214 202 205
3 214 213 202
3 218 216 217
3 218 219 216
3 218 121 219
3 218 120 121
3 218 117 120
3 218 209 117
3 218 206 209
3 218 217 206
3 220 63 139
3 220 155 63
3 220 154 155
3 220 221 154
3 220 212 221
3 220 211 212
3 220 135 211
3 220 139 135
3 222 154 221
3 222 161 154
3 222 160 161
3 222 223 160
3 222 216 223
3 222 215 216
3 222 212 215
3 222 221 212
3 224 160 223
3 224 164 160
3 224 16 164
3 224 124 16
3 224 121 124
3 224 219 121
3 224 216 219
3 224 223 216
3 225 185 226
3 225 189 185
3 225 41 189
3 225 227 41
3 225 228 227
3 225 229 228
3 225 230 229
3 225 226 230
3 231 179 232
3 231 186 179
3 231 185 186
3 231 226 185
3 231 230 226
3 231 233 230
3 231 234 233
3 231 232 234
3 235 88 236
3 235 180 88
3 235 179 180
3 235 232 179
3 235 234 232
3 235 237 234
3 235 238 237
3 235 236 238
3 239 167 240
3 239 166 167
3 239 73 166
3 239 241 73
3 239 242 241
3 239 243 242
3 239 244 243
3 239 240 244
3 245 171 246
3 245 170 171
3 245 167 170
3 245 240 167
3 245 244 240
3 245 247 244
3 245 248 247
3 245 246 248
3 249 23 250
3 249 174 23
3 249 171 174
3 249 246 171
3 249 248 246
3 249 251 248
3 249 252 251
3 249 250 252
3 253 110 254
3 253 114 110
3 253 8 114
3 253 255 8
3 253 256 255
3 253 257 256
3 253 258 257
3 253 254 258
3 259 104 260
3 259 111 104
3 259 110 111
3 259 254 110
3 259 258 254
3 259 261 258
3 259 262 261
3 259 260 262
3 263 38 264
3 263 105 38
3 263 104 105
3 263 260 104
3 263 262 260
3 263 265 262
3 263 266 265
3 263 264 266
3 267 58 268
3 267 149 58
3 267 146 149
3 267 269 146
3 267 270 269
3 267 271 270
3 267 272 271
3 267 268 272
3 273 146 269
3 273 145 146
3 273 142 145
3 273 274 142
3 273 275 274
3 273 276 275
3 273 270 276
3 273 269 270
3 277 142 274
3 277 141 142
3 277 91 141
3 277 278 91
3 277 279 278
3 277 280 279
3 277 275 280
3 277 274 275
3 281 81 282
3 281 89 81
3 281 88 89
3 281 236 88
3 281 238 236
3 281 283 238
3 281 284 283
3 281 282 284
3 285 83 286
3 285 82 83
3 285 81 82
3 285 282 81
3 285 284 282
3 285 287 284
3 285 288 287
3 285 286 288
3 289 73 241
3 289 72 73
3 289 69 72
3 289 290 69
3 289 291 290
3 289 292 291
3 289 242 292
3 289 241 242
3 293 69 290
3 293 68 69
3 293 66 68
3 293 294 66
3 293 295 294
3 293 296 295
3 293 291 296
3 293 290 291
3 297 31 298
3 297 39 31
3 297 38 39
3 297 264 38
3 297 266 264
3 297 299 266
3 297 300 299
3 297 298 300
3 301 33 302
3 301 32 33
3 301 31 32
3 301 298 31
3 301 300 298
3 301 303 300
3 301 304 303
3 301 302 304
3 305 91 278
3 305 92 91
3 305 76 92
3 305 306 76
3 305 307 306
3 305 308 307
3 305 279 308
3 305 278 279
3 309 76 306
3 309 77 76
3 309 83 77
3 309 286 83
3 309 288 286
3 309 310 288
3 309 307 310
3 309 306 307
3 311 8 255
3 311 7 8
3 311 6 7
3 311 312 6
3 311 313 312
3 311 314 313
3 311 256 314
3 311 255 256
3 315 6 312
3 315 12 6
3 315 10 12
3 315 316 10
3 315 317 316
3 315 318 317
3 315 313 318
3 315 312 313
3 319 51 320
3 319 52 51
3 319 58 52
3 319 268 58
3 319 272 268
3 319 321 272
3 319 322 321
3 319 320 322
3 323 66 294
3 323 67 66
3 323 51 67
3 323 320 51
3 323 322 320
3 323 324 322
3 323 295 324
3 323 294 295
3 325 41 227
3 325 42 41
3 325 26 42
3 325 326 26
3 325 327 326
3 325 328 327
3 325 228 328
3 325 227 228
3 329 26 326
3 329 27 26
3 329 33 27
3 329 302 33
3 329 304 302
3 329 330 304
3 329 327 330
3 329 326 327
3 331 14 332
3 331 24 14
3 331 23 24
3 331 250 23
3 331 252 250
3 331 333 252
3 331 334 333
3 331 332 334
3 335 10 316
3 335 11 10
3 335 14 11
3 335 332 14
3 335 334 332
3 335 336 334
3 335 317 336
3 335 316 317
3 337 317 338
3 337 336 317
3 337 334 336
3 337 339 334
3 337 340 339
3 337 341 340
3 337 342 341
3 337 338 342
3 343 334 339
3 343 333 334
3 343 252 333
3 343 344 252
3 343 345 344
3 343 346 345
3 343 340 346
3 343 339 340
3 347 327 348
3 347 330 327
3 347 304 330
3 347 349 304
3 347 350 349
3 347 351 350
3 347 352 351
3 347 348 352
3 353 228 354
3 353 328 228
3 353 327 328
3 353 348 327
3 353 352 348
3 353 355 352
3 353 356 355
3 353 354 356
3 357 295 358
3 357 324 295
3 357 322 324
3 357 359 322
3 357 360 359
3 357 361 360
3 357 362 361
3 357 358 362
3 363 322 359
3 363 321 322
3 363 272 321
3 363 364 272
3 363 365 364
3 363 366 365
3 363 360 366
3 363 359 360
3 367 313 368
3 367 318 313
3 367 317 318
3 367 338 317
3 367 342 338
3 367 369 342
3 367 370 369
3 367 368 370
3 371 256 372
3 371 314 256
3 371 313 314
3 371 368 313
3 371 370 368
3 371 373 370
3 371 374 373
3 371 372 374
3 375 307 376
3 375 310 307
3 375 288 310
3 375 377 288
3 375 378 377
3 375 379 378
3 375 380 379
3 375 376 380
3 381 279 382
3 381 308 279
3 381 307 308
3 381 376 307
3 381 380 376
3 381 383 380
3 381 384 383
3 381 382 384
3 385 304 349
3 385 303 304
3 385 300 303
3 385 386 300
3 385 387 386
3 385 388 387
3 385 350 388
3 385 349 350
3 389 300 386
3 389 299 300
3 389 266 299
3 389 390 266
3 389 391 390
3 389 392 391
3 389 387 392
3 389 386 387
3 393 291 394
3 393 296 291
3 393 295 296
3 393 358 295
3 393 362 358
3 393 395 362
3 393 396 395
3 393 394 396
3 397 242 398
3 397 292 242
3 397 291 292
3 397 394 291
3 397 396 394
3 397 399 396
3 397 400 399
3 397 398 400
3 401 288 377
3 401 287 288
3 401 284 287
3 401 402 284
3 401 403 402
3 401 404 403
3 401 378 404
3 401 377 378
3 405 284 402
3 405 283 284
3 405 238 283
3 405 406 238
3 405 407 406
3 405 408 407
3 405 403 408
3 405 402 403
3 409 275 410
3 409 280 275
3 409 279 280
3 409 382 279
3 409 384 382
3 409 411 384
3 409 412 411
3 409 410 412
3 413 270 414
3 413 276 270
3 413 275 276
3 413 410 275
3 413 412 410
3 413 415 412
3 413 416 415
3 413 414 416
3 417 272 364
3 417 271 272
3 417 270 271
3 417 414 270
3 417 416 414
3 417 418 416
3 417 365 418
3 417 364 365
3 419 266 390
3 419 265 266
3 419 262 265
3 419 420 262
3 419 421 420
3 419 422 421
3 419 391 422
3 419 390 391
3 423 262 420
3 423 261 262
3 423 258 261
3 423 424 258
3 423 425 424
3 423 426 425
3 423 421 426
3 423 420 421
3 427 258 424
3 427 257 258
3 427 256 257
3 427 372 256
3 427 374 372
3 427 428 374
3 427 425 428
3 427 424 425
3 429 252 344
3 429 251 252
3 429 248 251
3 429 430 248
3 429 431 430
3 429 432 431
3 429 345 432
3 429 344 345
3 433 248 430
3 433 247 248
3 433 244 247
3 433 434 244
3 433 435 434
3 433 436 435
3 433 431 436
3 433 430 431
3 437 244 434
3 437 243 244
3 437 242 243
3 437 398 242
3 437 400 398
3 437 438 400
3 437 435 438
3 437 434 435
3 439 238 406
3 439 237 238
3 439 234 237
3 439 440 234
3 439 441 440
3 439 442 441
3 439 407 442
3 439 406 407
3 443 234 440
3 443 233 234
3 443 230 233
3 443 444 230
3 443 445 444
3 443 446 445
3 443 441 446
3 443 440 441
3 447 230 444
3 447 229 230
3 447 228 229
3 447 354 228
3 447 356 354
3 447 448 356
3 447 445 448
3 447 444 445
3 449 450 451
3 449 452 450
3 449 453 452
3 449 454 453
3 449 455 454
3 449 456 455
3 449 457 456
3 449 451 457
3 458 459 460
3 458 461 459
3 458 450 461
3 458 451 450
3 458 457 451
3 458 462 457
3 458 463 462
3 458 460 463
3 464 465 466
3 464 467 465
3 464 459 467
3 464 460 459
3 464 463 460
3 464 468 463
3 464 469 468
3 464 466 469
3 470 471 472
3 470 473 471
3 470 474 473
3 470 475 474
3 470 476 475
3 470 477 476
3 470 478 477
3 470 472 478
3 479 480 481
3 479 482 480
3 479 471 482
3 479 472 471
3 479 478 472
3 479 483 478
3 479 484 483
3 479 481 484
3 485 486 487
3 485 488 486
3 485 480 488
3 485 481 480
3 485 484 481
3 485 489 484
3 485 490 489
3 485 487 490
3 491 492 493
3 491 494 492
3 491 495 494
3 491 496 495
3 491 497 496
3 491 498 497
3 491 499 498
3 491 493 499
3 500 501 502
3 500 503 501
3 500 492 503
3 500 493 492
3 500 499 493
3 500 504 499
3 500 505 504
3 500 502 505
3 506 507 508
3 506 509 507
3 506 501 509
3 506 502 501
3 506 505 502
3 506 510 505
3 506 511 510
3 506 508 511
3 512 513 514
3 512 515 513
3 512 516 515
3 512 517 516
3 512 518 517
3 512 519 518
3 512 520 519
3 512 514 520
3 521 516 517
3 521 522 516
3 521 523 522
3 521 524 523
3 521 525 524
3 521 526 525
3 521 518 526
3 521 517 518
3 527 523 524
3 527 528 523
3 527 529 528
3 527 530 529
3 527 531 530
3 527 532 531
3 527 525 532
3 527 524 525
3 533 534 535
3 533 536 534
3 533 465 536
3 533 466 465
3 533 469 466
3 533 537 469
3 533 538 537
3 533 535 538
3 539 540 541
3 539 542 540
3 539 534 542
3 539 535 534
3 539 538 535
3 539 543 538
3 539 544 543
3 539 541 544
3 545 474 475
3 545 546 474
3 545 547 546
3 545 548 547
3 545 549 548
3 545 550 549
3 545 476 550
3 545 475 476
3 551 547 548
3 551 552 547
3 551 553 552
3 551 554 553
3 551 555 554
3 551 556 555
3 551 549 556
3 551 548 549
3 557 558 559
3 557 560 558
3 557 507 560
3 557 508 507
3 557 511 508
3 557 561 511
3 557 562 561
3 557 559 562
3 563 564 565
3 563 566 564
3 563 558 566
3 563 559 558
3 563 562 559
3 563 567 562
3 563 568 567
3 563 565 568
3 569 529 530
3 569 570 529
3 569 571 570
3 569 572 571
3 569 573 572
3 569 574 573
3 569 531 574
3 569 530 531
3 575 571 572
3 575 576 571
3 575 540 576
3 575 541 540
3 575 544 541
3 575 577 544
3 575 573 577
3 575 572 573
3 578 495 496
3 578 579 495
3 578 580 579
3 578 581 580
3 578 582 581
3 578 583 582
3 578 497 583
3 578 496 497
3 584 580 581
3 584 585 580
3 584 586 585
3 584 587 586
3 584 588 587
3 584 589 588
3 584 582 589
3 584 581 582
3 590 591 592
3 590 593 591
3 590 513 593
3 590 514 513
3 590 520 514
3 590 594 520
3 590 595 594
3 590 592 595
3 596 553 554
3 596 597 553
3 596 591 597
3 596 592 591
3 596 595 592
3 596 598 595
3 596 555 598
3 596 554 555
3 599 453 454
3 599 600 453
3 599 601 600
3 599 602 601
3 599 603 602
3 599 604 603
3 599 455 604
3 599 454 455
3 605 601 602
3 605 606 601
3 605 564 606
3 605 565 564
3 605 568 565
3 605 607 568
3 605 603 607
3 605 602 603
3 608 609 610
3 608 611 609
3 608 486 611
3 608 487 486
3 608 490 487
3 608 612 490
3 608 613 612
3 608 610 613
3 614 586 587
3 614 615 586
3 614 609 615
3 614 610 609
3 614 613 610
3 614 616 613
3 614 588 616
3 614 587 588
3 617 618 619
3 617 620 618
3 617 621 620
3 617 622 621
3 617 609 622
3 617 615 609
3 617 586 615
3 617 619 586
3 623 621 622
3 623 624 621
3 623 625 624
3 623 626 625
3 623 486 626
3 623 611 486
3 623 609 611
3 623 622 609
3 627 628 629
3 627 630 628
3 627 631 630
3 627 632 631
3 627 564 632
3 627 606 564
3 627 601 606
3 627 629 601
3 633 634 635
3 633 636 634
3 633 628 636
3 633 629 628
3 633 601 629
3 633 600 601
3 633 453 600
3 633 635 453
3 637 638 639
3 637 640 638
3 637 641 640
3 637 642 641
3 637 591 642
3 637 597 591
3 637 553 597
3 637 639 553
3 643 641 642
3 643 644 641
3 643 645 644
3 643 646 645
3 643 513 646
3 643 593 513
3 643 591 593
3 643 642 591
3 647 648 649
3 647 650 648
3 647 618 650
3 647 619 618
3 647 586 619
3 647 585 586
3 647 580 585
3 647 649 580
3 651 652 653
3 651 654 652
3 651 648 654
3 651 649 648
3 651 580 649
3 651 579 580
3 651 495 579
3 651 653 495
3 655 656 657
3 655 658 656
3 655 659 658
3 655 660 659
3 655 540 660
3 655 576 540
3 655 571 576
3 655 657 571
3 661 662 663
3 661 664 662
3 661 656 664
3 661 657 656
3 661 571 657
3 661 570 571
3 661 529 570
3 661 663 529
3 665 631 632
3 665 666 631
3 665 667 666
3 665 668 667
3 665 558 668
3 665 566 558
3 665 564 566
3 665 632 564
3 669 667 668
3 669 670 667
3 669 671 670
3 669 672 671
3 669 507 672
3 669 560 507
3 669 558 560
3 669 668 558
3 673 674 675
3 673 676 674
3 673 638 676
3 673 639 638
3 673 553 639
3 673 552 553
3 673 547 552
3 673 675 547
3 677 678 679
3 677 680 678
3 677 674 680
3 677 675 674
3 677 547 675
3 677 546 547
3 677 474 546
3 677 679 474
3 681 659 660
3 681 682 659
3 681 683 682
3 681 684 683
3 681 534 684
3 681 542 534
3 681 540 542
3 681 660 540
3 685 683 684
3 685 686 683
3 685 687 686
3 685 688 687
3 685 465 688
3 685 536 465
3 685 534 536
3 685 684 534
3 689 690 691
3 689 692 690
3 689 662 692
3 689 663 662
3 689 529 663
3 689 528 529
3 689 523 528
3 689 691 523
3 693 694 695
3 693 696 694
3 693 690 696
3 693 691 690
3 693 523 691
3 693 522 523
3 693 516 522
3 693 695 516
3 697 645 646
3 697 698 645
3 697 694 698
3 697 695 694
3 697 516 695
3 697 515 516
3 697 513 515
3 697 646 513
3 699 671 672
3 699 700 671
3 699 701 700
3 699 702 701
3 699 501 702
3 699 509 501
3 699 507 509
3 699 672 507
3 703 701 702
3 703 704 701
3 703 705 704
3 703 706 705
3 703 492 706
3 703 503 492
3 703 501 503
3 703 702 501
3 707 705 706
3 707 708 705
3 707 652 708
3 707 653 652
3 707 495 653
3 707 494 495
3 707 492 494
3 707 706 492
3 709 625 626
3 709 710 625
3 709 711 710
3 709 712 711
3 709 480 712
3 709 488 480
3 709 486 488
3 709 626 486
3 713 711 712
3 713 714 711
3 713 715 714
3 713 716 715
3 713 471 716
3 713 482 471
3 713 480 482
3 713 712 480
3 717 715 716
3 717 718 715
3 717 678 718
3 717 679 678
3 717 474 679
3 717 473 474
3 717 471 473
3 717 716 471
3 719 687 688
3 719 720 687
3 719 721 720
3 719 722 721
3 719 459 722
3 719 467 459
3 719 465 467
3 719 688 465
3 723 721 722
3 723 724 721
3 723 725 724
3 723 726 725
3 723 450 726
3 723 461 450
3 723 459 461
3 723 722 459
3 727 725 726
3 727 728 725
3 727 634 728
3 727 635 634
3 727 453 635
3 727 452 453
3 727 450 452
3 727 726 450
3 729 730 731
3 729 732 730
3 729 733 732
3 729 734 733
3 729 735 734
3 729 736 735
3 729 737 736
3 729 731 737
3 738 739 740
3 738 741 739
3 738 730 741
3 738 731 730
3 738 737 731
3 738 742 737
3 738 743 742
3 738 740 743
3 744 745 746
3 744 747 745
3 744 739 747
3 744 740 739
3 744 743 740
3 744 748 743
3 744 749 748
3 744 746 749
3 750 737 751
3 750 736 737
3 750 735 736
3 750 752 735
3 750 753 752
3 750 754 753
3 750 755 754
3 750 751 755
3 756 743 757
3 756 742 743
3 756 737 742
3 756 751 737
3 756 755 751
3 756 758 755
3 756 759 758
3 756 757 759
3 760 749 761
3 760 748 749
3 760 743 748
3 760 757 743
3 760 759 757
3 760 762 759
3 760 763 762
3 760 761 763
3 764 755 765
3 764 754 755
3 764 753 754
3 764 766 753
3 764 767 766
3 764 768 767
3 764 769 768
3 764 765 769
3 770 759 771
3 770 758 759
3 770 755 758
3 770 765 755
3 770 769 765
3 770 772 769
3 770 773 772
3 770 771 773
3 774 763 775
3 774 762 763
3 774 759 762
3 774 771 759
3 774 773 771
3 774 776 773
3 774 777 776
3 774 775 777
3 778 769 779
3 778 768 769
3 778 767 768
3 778 780 767
3 778 781 780
3 778 782 781
3 778 783 782
3 778 779 783
3 784 773 785
3 784 772 773
3 784 769 772
3 784 779 769
3 784 783 779
3 784 786 783
3 784 787 786
3 784 785 787
3 788 777 789
3 788 776 777
3 788 773 776
3 788 785 773
3 788 787 785
3 788 790 787
3 788 791 790
3 788 789 791
3 792 783 793
3 792 782 783
3 792 781 782
3 792 794 781
3 792 634 794
3 792 728 634
3 792 725 728
3 792 793 725
3 795 787 796
3 795 786 787
3 795 783 786
3 795 793 783
3 795 725 793
3 795 724 725
3 795 721 724
3 795 796 721
3 797 791 798
3 797 790 791
3 797 787 790
3 797 796 787
3 797 721 796
3 797 720 721
3 797 687 720
3 797 798 687
3 799 711 800
3 799 710 711
3 799 625 710
3 799 801 625
3 799 802 801
3 799 803 802
3 799 804 803
3 799 800 804
3 805 715 806
3 805 714 715
3 805 711 714
3 805 800 711
3 805 804 800
3 805 807 804
3 805 808 807
3 805 806 808
3 809 678 810
3 809 718 678
3 809 715 718
3 809 806 715
3 809 808 806
3 809 811 808
3 809 812 811
3 809 810 812
3 813 804 814
3 813 803 804
3 813 802 803
3 813 815 802
3 813 733 815
3 813 732 733
3 813 730 732
3 813 814 730
3 816 808 817
3 816 807 808
3 816 804 807
3 816 814 804
3 816 730 814
3 816 741 730
3 816 739 741
3 816 817 739
3 818 812 819
3 818 811 812
3 818 808 811
3 818 817 808
3 818 739 817
3 818 747 739
3 818 745 747
3 818 819 745
3 820 694 821
3 820 698 694
3 820 645 698
3 820 822 645
3 820 823 822
3 820 824 823
3 820 825 824
3 820 821 825
3 826 690 827
3 826 696 690
3 826 694 696
3 826 821 694
3 826 825 821
3 826 828 825
3 826 829 828
3 826 827 829
3 830 662 831
3 830 692 662
3 830 690 692
3 830 827 690
3 830 829 827
3 830 832 829
3 830 833 832
3 830 831 833
3 834 825 835
3 834 824 825
3 834 823 824
3 834 836 823
3 834 745 836
3 834 746 745
3 834 749 746
3 834 835 749
3 837 829 838
3 837 828 829
3 837 825 828
3 837 835 825
3 837 749 835
3 837 761 749
3 837 763 761
3 837 838 763
3 839 833 840
3 839 832 833
3 839 829 832
3 839 838 829
3 839 763 838
3 839 775 763
3 839 777 775
3 839 840 777
3 841 735 842
3 841 734 735
3 841 733 734
3 841 843 733
3 841 844 843
3 841 845 844
3 841 846 845
3 841 842 846
3 847 753 848
3 847 752 753
3 847 735 752
3 847 842 735
3 847 846 842
3 847 849 846
3 847 850 849
3 847 848 850
3 851 767 852
3 851 766 767
3 851 753 766
3 851 848 753
3 851 850 848
3 851 853 850
3 851 854 853
3 851 852 854
3 855 846 856
3 855 845 846
3 855 844 845
3 855 857 844
3 855 652 857
3 855 708 652
3 855 705 708
3 855 856 705
3 858 850 859
3 858 849 850
3 858 846 849
3 858 856 846
3 858 705 856
3 858 704 705
3 858 701 704
3 858 859 701
3 860 854 861
3 860 853 854
3 860 850 853
3 860 859 850
3 860 701 859
3 860 700 701
3 860 671 700
3 860 861 671
3 862 833 863
3 862 840 833
3 862 777 840
3 862 789 777
3 862 791 789
3 862 864 791
3 862 865 864
3 862 863 865
3 866 662 664
3 866 831 662
3 866 833 831
3 866 863 833
3 866 865 863
3 866 867 865
3 866 656 867
3 866 664 656
3 868 865 869
3 868 864 865
3 868 791 864
3 868 798 791
3 868 687 798
3 868 686 687
3 868 683 686
3 868 869 683
3 870 656 658
3 870 867 656
3 870 865 867
3 870 869 865
3 870 683 869
3 870 682 683
3 870 659 682
3 870 658 659
3 871 674 872
3 871 680 674
3 871 678 680
3 871 810 678
3 871 812 810
3 871 873 812
3 871 874 873
3 871 872 874
3 875 638 640
3 875 676 638
3 875 674 676
3 875 872 674
3 875 874 872
3 875 876 874
3 875 641 876
3 875 640 641
3 877 874 878
3 877 873 874
3 877 812 873
3 877 819 812
3 877 745 819
3 877 836 745
3 877 823 836
3 877 878 823
3 879 641 644
3 879 876 641
3 879 874 876
3 879 878 874
3 879 823 878
3 879 822 823
3 879 645 822
3 879 644 645
3 880 781 881
3 880 780 781
3 880 767 780
3 880 852 767
3 880 854 852
3 880 882 854
3 880 883 882
3 880 881 883
3 884 634 636
3 884 794 634
3 884 781 794
3 884 881 781
3 884 883 881
3 884 885 883
3 884 628 885
3 884 636 628
3 886 883 887
3 886 882 883
3 886 854 882
3 886 861 854
3 886 671 861
3 886 670 671
3 886 667 670
3 886 887 667
3 888 628 630
3 888 885 628
3 888 883 885
3 888 887 883
3 888 667 887
3 888 666 667
3 888 631 666
3 888 630 631
3 889 802 890
3 889 801 802
3 889 625 801
3 889 624 625
3 889 621 624
3 889 891 621
3 889 892 891
3 889 890 892
3 893 733 843
3 893 815 733
3 893 802 815
3 893 890 802
3 893 892 890
3 893 894 892
3 893 844 894
3 893 843 844
3 895 618 620
3 895 650 618
3 895 648 650
3 895 896 648
3 895 892 896
3 895 891 892
3 895 621 891
3 895 620 621
3 897 844 857
3 897 894 844
3 897 892 894
3 897 896 892
3 897 648 896
3 897 654 648
3 897 652 654
3 897 857 652
