ply
format ascii 1.0
element vertex 324
property float x
property float y
property float z
property float nx
property float ny
property float nz
property float u
property float v
element face 108
property list uchar int vertex_indices
end_header
2.14424 0.030628 3.636161 0 0 1 0 0
2.421739 1.222569 3.636161 0 0 1 0 0
2.14424 1.222569 3.636161 0 0 1 0 0
2.14424 0.030628 3.636161 0 0 1 0 0
2.421739 0.030628 3.636161 0 0 1 0 0
2.421739 1.222569 3.636161 0 0 1 0 0
2.142576 1.201354 3.653693 1 0 0 0 0
2.142576 0.030628 3.637825 1 0 0 0 0
2.142576 1.219755 3.637825 1 0 0 0 0
2.142576 1.201354 3.653693 1 0 0 0 0
2.142576 0.030628 3.653693 1 0 0 0 0
2.142576 0.030628 3.637825 1 0 0 0 0
2.142576 0.030628 4.227436 1 -0 0 0 0
2.142576 1.201354 4.211568 1 -0 0 0 0
2.142576 1.219755 4.227436 1 -0 0 0 0
2.142576 0.030628 4.227436 1 0 0 0 0
2.142576 0.030628 4.211568 1 0 0 0 0
2.142576 1.201354 4.211568 1 0 0 0 0
2.423404 1.203637 3.656119 -1 0 0 0 0
2.423404 1.222569 4.225468 -1 0 0 0 0
2.423404 1.222569 3.639793 -1 0 0 0 0
2.423404 1.203637 3.656119 -1 0 0 0 0
2.423404 1.203637 4.209142 -1 0 0 0 0
2.423404 1.222569 4.225468 -1 0 0 0 0
2.421739 0.028964 3.637825 0 1 -0 0 0
2.14424 0.028964 3.653693 0 1 -0 0 0
2.421739 0.028964 3.653693 0 1 -0 0 0
2.421739 0.028964 3.637825 0 1 0 0 0
2.14424 0.028964 3.637825 0 1 0 0 0
2.14424 0.028964 3.653693 0 1 0 0 0
2.423404 1.201354 4.211568 -1 0 0 0 0
2.423404 0.030628 4.227436 -1 0 0 0 0
2.423404 1.219755 4.227436 -1 0 0 0 0
2.423404 1.201354 4.211568 -1 0 0 0 0
2.423404 0.030628 4.211568 -1 0 0 0 0
2.423404 0.030628 4.227436 -1 0 0 0 0
2.421739 0.030628 3.655357 0 0 -1 0 0
2.14424 1.200309 3.655357 0 0 -1 0 0
2.421739 1.200309 3.655357 0 0 -1 0 0
2.421739 0.030628 3.655357 0 0 -1 0 0
2.14424 0.030628 3.655357 0 0 -1 0 0
2.14424 1.200309 3.655357 0 0 -1 0 0
2.421739 1.224233 3.637825 0 -1 0 0 0
2.14424 1.224233 4.227436 0 -1 0 0 0
2.14424 1.224233 3.637825 0 -1 0 0 0
2.421739 1.224233 3.637825 0 -1 0 0 0
2.421739 1.224233 4.227436 0 -1 0 0 0
2.14424 1.224233 4.227436 0 -1 0 0 0
2.423404 0.030628 3.637825 -1 0 0 0 0
2.423404 1.201354 3.653693 -1 0 0 0 0
2.423404 1.219755 3.637825 -1 0 0 0 0
2.423404 0.030628 3.637825 -1 0 0 0 0
2.423404 0.030628 3.653693 -1 0 0 0 0
2.423404 1.201354 3.653693 -1 0 0 0 0
2.14424 1.200309 4.209904 -0 0 1 0 0
2.421739 0.030628 4.209904 -0 0 1 0 0
2.421739 1.200309 4.209904 -0 0 1 0 0
2.14424 1.200309 4.209904 0 0 1 0 0
2.14424 0.030628 4.209904 0 0 1 0 0
2.421739 0.030628 4.209904 0 0 1 0 0
2.14424 1.201973 3.657021 0 1 0 0 0
2.421739 1.201973 4.20824 0 1 0 0 0
2.421739 1.201973 3.657021 0 1 0 0 0
2.14424 1.201973 3.657021 0 1 0 0 0
2.14424 1.201973 4.20824 0 1 0 0 0
2.421739 1.201973 4.20824 0 1 0 0 0
2.14424 0.030628 4.2291 0 0 -1 0 0
2.421739 1.222569 4.2291 0 0 -1 0 0
2.421739 0.030628 4.2291 0 0 -1 0 0
2.14424 0.030628 4.2291 0 0 -1 0 0
2.14424 1.222569 4.2291 0 0 -1 0 0
2.421739 1.222569 4.2291 0 0 -1 0 0
2.421739 0.028964 4.227436 0 1 0 0 0
2.14424 0.028964 4.211568 0 1 0 0 0
2.14424 0.028964 4.227436 0 1 0 0 0
2.421739 0.028964 4.227436 0 1 0 0 0
2.421739 0.028964 4.211568 0 1 0 0 0
2.14424 0.028964 4.211568 0 1 0 0 0
2.14424 1.222569 3.636161 0.87284997 -0.279671418 0.399896021 0 0
2.142576 1.222569 3.639793 0.87284997 -0.279671418 0.399896021 0 0
2.142576 1.219755 3.637825 0.87284997 -0.279671418 0.399896021 0 0
2.14424 1.222569 3.636161 0.83923974 -0.384497502 0.384497502 0 0
2.14424 1.224233 3.637825 0.83923974 -0.384497502 0.384497502 0 0
2.142576 1.222569 3.639793 0.83923974 -0.384497502 0.384497502 0 0
2.421739 1.224233 3.637825 -0.838914214 -0.311923217 0.446012161 0 0
2.423404 1.219755 3.637825 -0.838914214 -0.311923217 0.446012161 0 0
2.423404 1.222569 3.639793 -0.838914214 -0.311923217 0.446012161 0 0
2.421739 1.224233 3.637825 -0.885095464 -0.329094227 0.329094227 0 0
2.421739 1.222569 3.636161 -0.885095464 -0.329094227 0.329094227 0 0
2.423404 1.219755 3.637825 -0.885095464 -0.329094227 0.329094227 0 0
2.421739 0.030628 3.636161 -0.577119028 0.577465855 0.577465855 0 0
2.421739 0.028964 3.637825 -0.577119028 0.577465855 0.577465855 0 0
2.423404 0.030628 3.637825 -0.577119028 0.577465855 0.577465855 0 0
2.14424 0.030628 4.2291 0.577350269 0.577350269 -0.577350269 0 0
2.14424 0.028964 4.227436 0.577350269 0.577350269 -0.577350269 0 0
2.142576 0.030628 4.227436 0.577350269 0.577350269 -0.577350269 0 0
2.421739 0.028964 4.227436 -0.577119028 0.577465855 -0.577465855 0 0
2.421739 0.030628 4.2291 -0.577119028 0.577465855 -0.577465855 0 0
2.423404 0.030628 4.227436 -0.577119028 0.577465855 -0.577465855 0 0
2.14424 0.028964 3.637825 0.577350269 0.577350269 0.577350269 0 0
2.14424 0.030628 3.636161 0.577350269 0.577350269 0.577350269 0 0
2.142576 0.030628 3.637825 0.577350269 0.577350269 0.577350269 0 0
2.423404 1.219755 4.227436 -0.838914214 -0.311923217 -0.446012161 0 0
2.421739 1.224233 4.227436 -0.838914214 -0.311923217 -0.446012161 0 0
2.423404 1.222569 4.225468 -0.838914214 -0.311923217 -0.446012161 0 0
2.423404 1.219755 4.227436 -0.885095464 -0.329094227 -0.329094227 0 0
2.421739 1.222569 4.2291 -0.885095464 -0.329094227 -0.329094227 0 0
2.421739 1.224233 4.227436 -0.885095464 -0.329094227 -0.329094227 0 0
2.142576 1.219755 4.227436 0.885210597 -0.328939355 -0.328939355 0 0
2.14424 1.224233 4.227436 0.885210597 -0.328939355 -0.328939355 0 0
2.14424 1.222569 4.2291 0.885210597 -0.328939355 -0.328939355 0 0
2.142576 1.219755 4.227436 0.839063462 -0.311791336 -0.445823586 0 0
2.142576 1.222569 4.225468 0.839063462 -0.311791336 -0.445823586 0 0
2.14424 1.224233 4.227436 0.839063462 -0.311791336 -0.445823586 0 0
2.421739 1.200309 3.655357 -0.752323884 0.479762393 -0.451482912 0 0
2.423404 1.203637 3.656119 -0.752323884 0.479762393 -0.451482912 0 0
2.423404 1.201354 3.653693 -0.752323884 0.479762393 -0.451482912 0 0
2.421739 1.200309 3.655357 -0.736796624 0.478085105 -0.478085105 0 0
2.421739 1.201973 3.657021 -0.736796624 0.478085105 -0.478085105 0 0
2.423404 1.203637 3.656119 -0.736796624 0.478085105 -0.478085105 0 0
2.14424 0.030628 3.655357 0.577350269 0.577350269 -0.577350269 0 0
2.14424 0.028964 3.653693 0.577350269 0.577350269 -0.577350269 0 0
2.142576 0.030628 3.653693 0.577350269 0.577350269 -0.577350269 0 0
2.423404 1.203637 4.209142 -0.752323884 0.479762393 0.451482912 0 0
2.421739 1.200309 4.209904 -0.752323884 0.479762393 0.451482912 0 0
2.423404 1.201354 4.211568 -0.752323884 0.479762393 0.451482912 0 0
2.423404 1.203637 4.209142 -0.736796624 0.478085105 0.478085105 0 0
2.421739 1.201973 4.20824 -0.736796624 0.478085105 0.478085105 0 0
2.421739 1.200309 4.209904 -0.736796624 0.478085105 0.478085105 0 0
2.423404 0.030628 3.653693 -0.577119028 0.577465855 -0.577465855 0 0
2.421739 0.028964 3.653693 -0.577119028 0.577465855 -0.577465855 0 0
2.421739 0.030628 3.655357 -0.577119028 0.577465855 -0.577465855 0 0
2.14424 1.201973 4.20824 0.75493671 0.463718969 0.463718969 0 0
2.142576 1.201354 4.211568 0.75493671 0.463718969 0.463718969 0 0
2.14424 1.200309 4.209904 0.75493671 0.463718969 0.463718969 0 0
2.14424 1.201973 4.20824 0.739858628 0.489935198 0.461056083 0 0
2.142576 1.203637 4.209142 0.739858628 0.489935198 0.461056083 0 0
2.142576 1.201354 4.211568 0.739858628 0.489935198 0.461056083 0 0
2.421739 0.030628 4.209904 -0.577119028 0.577465855 0.577465855 0 0
2.421739 0.028964 4.211568 -0.577119028 0.577465855 0.577465855 0 0
2.423404 0.030628 4.211568 -0.577119028 0.577465855 0.577465855 0 0
2.14424 1.201973 3.657021 0.739858628 0.489935198 -0.461056083 0 0
2.142576 1.201354 3.653693 0.739858628 0.489935198 -0.461056083 0 0
2.142576 1.203637 3.656119 0.739858628 0.489935198 -0.461056083 0 0
2.14424 1.201973 3.657021 0.75493671 0.463718969 -0.463718969 0 0
2.14424 1.200309 3.655357 0.75493671 0.463718969 -0.463718969 0 0
2.142576 1.201354 3.653693 0.75493671 0.463718969 -0.463718969 0 0
2.142576 0.030628 4.211568 0.577350269 0.577350269 0.577350269 0 0
2.14424 0.028964 4.211568 0.577350269 0.577350269 0.577350269 0 0
2.14424 0.030628 4.209904 0.577350269 0.577350269 0.577350269 0 0
2.421739 1.224233 3.637825 -0.706894341 -0.707319157 0 0 0
2.423404 1.222569 4.225468 -0.706894341 -0.707319157 0 0 0
2.421739 1.224233 4.227436 -0.706894341 -0.707319157 0 0 0
2.421739 1.224233 3.637825 -0.706894341 -0.707319157 0 0 0
2.423404 1.222569 3.639793 -0.706894341 -0.707319157 0 0 0
2.423404 1.222569 4.225468 -0.706894341 -0.707319157 0 0 0
2.421739 1.224233 4.227436 -0 -0.707106781 -0.707106781 0 0
2.14424 1.222569 4.2291 -0 -0.707106781 -0.707106781 0 0
2.14424 1.224233 4.227436 -0 -0.707106781 -0.707106781 0 0
2.421739 1.224233 4.227436 0 -0.707106781 -0.707106781 0 0
2.421739 1.222569 4.2291 0 -0.707106781 -0.707106781 0 0
2.14424 1.222569 4.2291 0 -0.707106781 -0.707106781 0 0
2.421739 1.200309 3.655357 -0.706894341 -0 -0.707319157 0 0
2.423404 0.030628 3.653693 -0.706894341 -0 -0.707319157 0 0
2.421739 0.030628 3.655357 -0.706894341 -0 -0.707319157 0 0
2.421739 1.200309 3.655357 -0.706894341 0 -0.707319157 0 0
2.423404 1.201354 3.653693 -0.706894341 0 -0.707319157 0 0
2.423404 0.030628 3.653693 -0.706894341 0 -0.707319157 0 0
2.423404 0.030628 3.637825 -0.706894341 0.707319157 0 0 0
2.421739 0.028964 3.653693 -0.706894341 0.707319157 0 0 0
2.423404 0.030628 3.653693 -0.706894341 0.707319157 0 0 0
2.423404 0.030628 3.637825 -0.706894341 0.707319157 0 0 0
2.421739 0.028964 3.637825 -0.706894341 0.707319157 0 0 0
2.421739 0.028964 3.653693 -0.706894341 0.707319157 0 0 0
2.421739 0.028964 4.227436 -0.706894341 0.707319157 0 0 0
2.423404 0.030628 4.211568 -0.706894341 0.707319157 0 0 0
2.421739 0.028964 4.211568 -0.706894341 0.707319157 0 0 0
2.421739 0.028964 4.227436 -0.706894341 0.707319157 0 0 0
2.423404 0.030628 4.227436 -0.706894341 0.707319157 0 0 0
2.423404 0.030628 4.211568 -0.706894341 0.707319157 0 0 0
2.14424 0.028964 3.637825 0.707106781 0.707106781 -0 0 0
2.142576 0.030628 3.653693 0.707106781 0.707106781 -0 0 0
2.14424 0.028964 3.653693 0.707106781 0.707106781 -0 0 0
2.14424 0.028964 3.637825 0.707106781 0.707106781 0 0 0
2.142576 0.030628 3.637825 0.707106781 0.707106781 0 0 0
2.142576 0.030628 3.653693 0.707106781 0.707106781 0 0 0
2.423404 1.219755 4.227436 -1 0 0 0 0
2.423404 1.203637 4.209142 -1 0 0 0 0
2.423404 1.201354 4.211568 -1 0 0 0 0
2.423404 1.219755 4.227436 -1 0 -0 0 0
2.423404 1.222569 4.225468 -1 0 -0 0 0
2.423404 1.203637 4.209142 -1 0 -0 0 0
2.421739 0.028964 4.211568 0 0.707106781 0.707106781 0 0
2.14424 0.030628 4.209904 0 0.707106781 0.707106781 0 0
2.14424 0.028964 4.211568 0 0.707106781 0.707106781 0 0
2.421739 0.028964 4.211568 0 0.707106781 0.707106781 0 0
2.421739 0.030628 4.209904 0 0.707106781 0.707106781 0 0
2.14424 0.030628 4.209904 0 0.707106781 0.707106781 0 0
2.142576 0.030628 4.227436 0.707106781 0.707106781 0 0 0
2.14424 0.028964 4.211568 0.707106781 0.707106781 0 0 0
2.142576 0.030628 4.211568 0.707106781 0.707106781 0 0 0
2.142576 0.030628 4.227436 0.707106781 0.707106781 0 0 0
2.14424 0.028964 4.227436 0.707106781 0.707106781 0 0 0
2.14424 0.028964 4.211568 0.707106781 0.707106781 0 0 0
2.142576 1.219755 3.637825 1 0 0 0 0
2.142576 1.203637 3.656119 1 0 0 0 0
2.142576 1.201354 3.653693 1 0 0 0 0
2.142576 1.219755 3.637825 1 0 -0 0 0
2.142576 1.222569 3.639793 1 0 -0 0 0
2.142576 1.203637 3.656119 1 0 -0 0 0
2.142576 1.222569 3.639793 0.707106781 -0.707106781 0 0 0
2.14424 1.224233 4.227436 0.707106781 -0.707106781 0 0 0
2.142576 1.222569 4.225468 0.707106781 -0.707106781 0 0 0
2.142576 1.222569 3.639793 0.707106781 -0.707106781 0 0 0
2.14424 1.224233 3.637825 0.707106781 -0.707106781 0 0 0
2.14424 1.224233 4.227436 0.707106781 -0.707106781 0 0 0
2.14424 0.028964 4.227436 0 0.707106781 -0.707106781 0 0
2.421739 0.030628 4.2291 0 0.707106781 -0.707106781 0 0
2.421739 0.028964 4.227436 0 0.707106781 -0.707106781 0 0
2.14424 0.028964 4.227436 0 0.707106781 -0.707106781 0 0
2.14424 0.030628 4.2291 0 0.707106781 -0.707106781 0 0
2.421739 0.030628 4.2291 0 0.707106781 -0.707106781 0 0
2.14424 1.224233 3.637825 0 -0.707106781 0.707106781 0 0
2.421739 1.222569 3.636161 0 -0.707106781 0.707106781 0 0
2.421739 1.224233 3.637825 0 -0.707106781 0.707106781 0 0
2.14424 1.224233 3.637825 0 -0.707106781 0.707106781 0 0
2.14424 1.222569 3.636161 0 -0.707106781 0.707106781 0 0
2.421739 1.222569 3.636161 0 -0.707106781 0.707106781 0 0
2.421739 0.028964 3.637825 0 0.707106781 0.707106781 0 0
2.14424 0.030628 3.636161 0 0.707106781 0.707106781 0 0
2.14424 0.028964 3.637825 0 0.707106781 0.707106781 0 0
2.421739 0.028964 3.637825 0 0.707106781 0.707106781 0 0
2.421739 0.030628 3.636161 0 0.707106781 0.707106781 0 0
2.14424 0.030628 3.636161 0 0.707106781 0.707106781 0 0
2.14424 0.028964 3.653693 0 0.707106781 -0.707106781 0 0
2.421739 0.030628 3.655357 0 0.707106781 -0.707106781 0 0
2.421739 0.028964 3.653693 0 0.707106781 -0.707106781 0 0
2.14424 0.028964 3.653693 0 0.707106781 -0.707106781 0 0
2.14424 0.030628 3.655357 0 0.707106781 -0.707106781 0 0
2.421739 0.030628 3.655357 0 0.707106781 -0.707106781 0 0
2.14424 1.222569 3.636161 0.707106781 0 0.707106781 0 0
2.142576 0.030628 3.637825 0.707106781 0 0.707106781 0 0
2.14424 0.030628 3.636161 0.707106781 0 0.707106781 0 0
2.14424 1.222569 3.636161 0.707106781 0 0.707106781 0 0
2.142576 1.219755 3.637825 0.707106781 0 0.707106781 0 0
2.142576 0.030628 3.637825 0.707106781 0 0.707106781 0 0
2.14424 0.030628 3.655357 0.707106781 0 -0.707106781 0 0
2.142576 1.201354 3.653693 0.707106781 0 -0.707106781 0 0
2.14424 1.200309 3.655357 0.707106781 0 -0.707106781 0 0
2.14424 0.030628 3.655357 0.707106781 0 -0.707106781 0 0
2.142576 0.030628 3.653693 0.707106781 0 -0.707106781 0 0
2.142576 1.201354 3.653693 0.707106781 0 -0.707106781 0 0
2.421739 1.201973 3.657021 0 0.707106781 -0.707106781 0 0
2.14424 1.200309 3.655357 0 0.707106781 -0.707106781 0 0
2.14424 1.201973 3.657021 0 0.707106781 -0.707106781 0 0
2.421739 1.201973 3.657021 0 0.707106781 -0.707106781 0 0
2.421739 1.200309 3.655357 0 0.707106781 -0.707106781 0 0
2.14424 1.200309 3.655357 0 0.707106781 -0.707106781 0 0
2.423404 1.203637 3.656119 -0.706894341 0.707319157 0 0 0
2.421739 1.201973 4.20824 -0.706894341 0.707319157 0 0 0
2.423404 1.203637 4.209142 -0.706894341 0.707319157 0 0 0
2.423404 1.203637 3.656119 -0.706894341 0.707319157 0 0 0
2.421739 1.201973 3.657021 -0.706894341 0.707319157 0 0 0
2.421739 1.201973 4.20824 -0.706894341 0.707319157 0 0 0
2.423404 1.222569 3.639793 -1 0 0 0 0
2.423404 1.201354 3.653693 -1 0 0 0 0
2.423404 1.203637 3.656119 -1 0 0 0 0
2.423404 1.222569 3.639793 -1 -0 0 0 0
2.423404 1.219755 3.637825 -1 -0 0 0 0
2.423404 1.201354 3.653693 -1 -0 0 0 0
2.423404 1.219755 3.637825 -0.706894341 0 0.707319157 0 0
2.421739 0.030628 3.636161 -0.706894341 0 0.707319157 0 0
2.423404 0.030628 3.637825 -0.706894341 0 0.707319157 0 0
2.423404 1.219755 3.637825 -0.706894341 0 0.707319157 0 0
2.421739 1.222569 3.636161 -0.706894341 0 0.707319157 0 0
2.421739 0.030628 3.636161 -0.706894341 0 0.707319157 0 0
2.14424 1.200309 4.209904 0.707106781 0 0.707106781 0 0
2.142576 0.030628 4.211568 0.707106781 0 0.707106781 0 0
2.14424 0.030628 4.209904 0.707106781 0 0.707106781 0 0
2.14424 1.200309 4.209904 0.707106781 0 0.707106781 0 0
2.142576 1.201354 4.211568 0.707106781 0 0.707106781 0 0
2.142576 0.030628 4.211568 0.707106781 0 0.707106781 0 0
2.14424 0.030628 4.2291 0.707106781 0 -0.707106781 0 0
2.142576 1.219755 4.227436 0.707106781 0 -0.707106781 0 0
2.14424 1.222569 4.2291 0.707106781 0 -0.707106781 0 0
2.14424 0.030628 4.2291 0.707106781 0 -0.707106781 0 0
2.142576 0.030628 4.227436 0.707106781 0 -0.707106781 0 0
2.142576 1.219755 4.227436 0.707106781 0 -0.707106781 0 0
2.423404 1.201354 4.211568 -0.706894341 0 0.707319157 0 0
2.421739 0.030628 4.209904 -0.706894341 0 0.707319157 0 0
2.423404 0.030628 4.211568 -0.706894341 0 0.707319157 0 0
2.423404 1.201354 4.211568 -0.706894341 0 0.707319157 0 0
2.421739 1.200309 4.209904 -0.706894341 0 0.707319157 0 0
2.421739 0.030628 4.209904 -0.706894341 0 0.707319157 0 0
2.142576 1.222569 4.225468 1 0 0 0 0
2.142576 1.201354 4.211568 1 0 0 0 0
2.142576 1.203637 4.209142 1 0 0 0 0
2.142576 1.222569 4.225468 1 0 0 0 0
2.142576 1.219755 4.227436 1 0 0 0 0
2.142576 1.201354 4.211568 1 0 0 0 0
2.421739 1.200309 4.209904 0 0.707106781 0.707106781 0 0
2.14424 1.201973 4.20824 0 0.707106781 0.707106781 0 0
2.14424 1.200309 4.209904 0 0.707106781 0.707106781 0 0
2.421739 1.200309 4.209904 0 0.707106781 0.707106781 0 0
2.421739 1.201973 4.20824 0 0.707106781 0.707106781 0 0
2.14424 1.201973 4.20824 0 0.707106781 0.707106781 0 0
2.142576 1.203637 4.209142 0.707106781 0.707106781 0 0 0
2.14424 1.201973 3.657021 0.707106781 0.707106781 0 0 0
2.142576 1.203637 3.656119 0.707106781 0.707106781 0 0 0
2.142576 1.203637 4.209142 0.707106781 0.707106781 0 0 0
2.14424 1.201973 4.20824 0.707106781 0.707106781 0 0 0
2.14424 1.201973 3.657021 0.707106781 0.707106781 0 0 0
2.423404 0.030628 4.227436 -0.706894341 0 -0.707319157 0 0
2.421739 1.222569 4.2291 -0.706894341 0 -0.707319157 0 0
2.423404 1.219755 4.227436 -0.706894341 0 -0.707319157 0 0
2.423404 0.030628 4.227436 -0.706894341 0 -0.707319157 0 0
2.421739 0.030628 4.2291 -0.706894341 0 -0.707319157 0 0
2.421739 1.222569 4.2291 -0.706894341 0 -0.707319157 0 0
2.142576 1.222569 4.225468 1 0 0 0 0
2.142576 1.203637 3.656119 1 0 0 0 0
2.142576 1.222569 3.639793 1 0 0 0 0
2.142576 1.222569 4.225468 1 0 0 0 0
2.142576 1.203637 4.209142 1 0 0 0 0
2.142576 1.203637 3.656119 1 0 0 0 0
3 0 1 2
3 3 4 5
3 6 7 8
3 9 10 11
3 12 13 14
3 15 16 17
3 18 19 20
3 21 22 23
3 24 25 26
3 27 28 29
3 30 31 32
3 33 34 35
3 36 37 38
3 39 40 41
3 42 43 44
3 45 46 47
3 48 49 50
3 51 52 53
3 54 55 56
3 57 58 59
3 60 61 62
3 63 64 65
3 66 67 68
3 69 70 71
3 72 73 74
3 75 76 77
3 78 79 80
3 81 82 83
3 84 85 86
3 87 88 89
3 90 91 92
3 93 94 95
3 96 97 98
3 99 100 101
3 102 103 104
3 105 106 107
3 108 109 110
3 111 112 113
3 114 115 116
3 117 118 119
3 120 121 122
3 123 124 125
3 126 127 128
3 129 130 131
3 132 133 134
3 135 136 137
3 138 139 140
3 141 142 143
3 144 145 146
3 147 148 149
3 150 151 152
3 153 154 155
3 156 157 158
3 159 160 161
3 162 163 164
3 165 166 167
3 168 169 170
3 171 172 173
3 174 175 176
3 177 178 179
3 180 181 182
3 183 184 185
3 186 187 188
3 189 190 191
3 192 193 194
3 195 196 197
3 198 199 200
3 201 202 203
3 204 205 206
3 207 208 209
3 210 211 212
3 213 214 215
3 216 217 218
3 219 220 221
3 222 223 224
3 225 226 227
3 228 229 230
3 231 232 233
3 234 235 236
3 237 238 239
3 240 241 242
3 243 244 245
3 246 247 248
3 249 250 251
3 252 253 254
3 255 256 257
3 258 259 260
3 261 262 263
3 264 265 266
3 267 268 269
3 270 271 272
3 273 274 275
3 276 277 278
3 279 280 281
3 282 283 284
3 285 286 287
3 288 289 290
3 291 292 293
3 294 295 296
3 297 298 299
3 300 301 302
3 303 304 305
3 306 307 308
3 309 310 311
3 312 313 314
3 315 316 317
3 318 319 320
3 321 322 323
