ply
format ascii 1.0
element vertex 208
property float x
property float y
property float z
property float nx
property float ny
property float nz
property float u
property float v
element face 360
property list uchar int vertex_indices
end_header
-3.005064 0.345777 1.728716 0.234899382 0.938597532 0.252699335 0 0
-3.00447 0.345279 1.726468 0.6660529 0.655452058 -0.356028277 0 0
-3.005064 0.345578 1.726306 0.242602425 0.852508521 -0.463004628 0 0
-3.00447 0.345458 1.728633 0.653708374 0.731509371 0.193802483 0 0
-3.005064 0.343673 1.724833 0.23469289 0.302290842 -0.923872012 0 0
-3.00447 0.343568 1.725146 0.65341284 0.238304683 -0.718514119 0 0
-3.00447 0.341785 1.725171 0.565916236 -0.756621708 -0.327509396 0 0
-3.005064 0.341633 1.72489 0.472897479 -0.39959787 -0.785295814 0 0
-3.00447 0.344458 1.730104 0.56491249 -0.140403104 0.813117978 0 0
-3.005064 0.34461 1.730384 0.483013184 0.452512351 0.749620461 0 0
-3.003976 0.3441 1.729443 0.731297375 -0.340998776 0.590697879 0 0
-3.003976 0.344702 1.728436 0.894109759 0.435604755 0.104001135 0 0
-3.003976 0.342144 1.725833 0.732095809 -0.680196106 -0.0369997882 0 0
-3.003976 0.34332 1.725885 0.894015592 0.151602644 -0.421607353 0 0
-3.003976 0.344571 1.726852 0.901724081 0.379910146 -0.206305509 0 0
-3.003679 0.343663 1.727346 0.984526971 0.154004219 -0.0836022903 0 0
-3.003679 0.343733 1.728184 0.98632997 0.162504938 0.0273008295 0 0
-3.003679 0.343001 1.726834 0.986374626 0.0659983022 -0.150696123 0 0
-3.003679 0.342605 1.726684 0.767549144 -0.621739808 0.155909982 0 0
-3.003679 0.34364 1.728594 0.767135036 -0.470521489 0.436019913 0 0
-3.003679 0.343123 1.72764 0.707142932 -0.621637741 0.336920455 0 0
-3.005064 0.339543 1.727097 0.234899382 -0.938597532 -0.252699335 0 0
-3.00447 0.340041 1.729345 0.6660529 -0.655452058 0.356028277 0 0
-3.005064 0.339742 1.729507 0.242611873 -0.852441715 0.463122663 0 0
-3.00447 0.339862 1.72718 0.653708374 -0.731509371 -0.193802483 0 0
-3.005064 0.341647 1.73098 0.23469289 -0.302290842 0.923872012 0 0
-3.00447 0.341752 1.730667 0.65341284 -0.238304683 0.718514119 0 0
-3.00447 0.343535 1.730642 0.565805437 0.756707272 0.327503147 0 0
-3.005064 0.343687 1.730923 0.472916375 0.399513833 0.785327192 0 0
-3.00447 0.340862 1.725709 0.565026512 0.140406588 -0.813038149 0 0
-3.005064 0.34071 1.725429 0.483005666 -0.45270531 -0.749508792 0 0
-3.003976 0.34122 1.72637 0.731340572 0.341018919 -0.590632766 0 0
-3.003976 0.340618 1.727377 0.894109759 -0.435604755 -0.104001135 0 0
-3.003976 0.343176 1.72998 0.732043968 0.680240856 0.0372022344 0 0
-3.003976 0.342 1.729928 0.894015592 -0.151602644 0.421607353 0 0
-3.003976 0.340748 1.728961 0.901724081 -0.379910146 0.206305509 0 0
-3.003679 0.341657 1.728467 0.984511804 -0.154101848 0.0836010024 0 0
-3.003679 0.341587 1.727629 0.986313937 -0.162602298 -0.0273003858 0 0
-3.003679 0.342319 1.728979 0.986374626 -0.0659983022 0.150696123 0 0
-3.003679 0.342715 1.729129 0.767549144 0.621739808 -0.155909982 0 0
-3.003679 0.34168 1.727219 0.767135036 0.470521489 -0.436019913 0 0
-3.003679 0.342197 1.728173 0.707142932 0.621637741 -0.336920455 0 0
-3.005082 0.342197 1.728173 0.707098971 0.621699095 -0.33689951 0 0
-3.005082 0.342605 1.726684 0.707098971 -0.621699095 0.33689951 0 0
-3.005082 0.343123 1.72764 0.707098971 -0.621699095 0.33689951 0 0
-3.005082 0.34168 1.727219 0.707098971 0.621699095 -0.33689951 0 0
-3.005082 0.342144 1.725833 0.707122791 -0.621720038 0.336810856 0 0
-3.005082 0.34122 1.72637 0.707098971 0.621699095 -0.33689951 0 0
-3.005082 0.341882 1.725349 0.711127304 -0.612023499 0.346013285 0 0
-3.005082 0.340957 1.725885 0.710692758 0.624193639 -0.324496693 0 0
-3.005082 0.34364 1.728594 0.707078827 -0.621781381 0.336789915 0 0
-3.005082 0.342715 1.729129 0.707142932 0.621637741 -0.336920455 0 0
-3.005082 0.3441 1.729443 0.707028819 -0.621825346 0.336813729 0 0
-3.005082 0.343176 1.72998 0.707192925 0.621593781 -0.336896629 0 0
-3.005082 0.344363 1.729928 0.710621955 -0.624319289 0.324410023 0 0
-3.005082 0.343438 1.730464 0.711220252 0.611917425 -0.346009853 0 0
-3.00438 0.34364 1.728594 0 -0.879222157 0.476412006 0 0
-3.00438 0.343123 1.72764 0 -0.879222157 0.476412006 0 0
-3.00438 0.342605 1.726684 0 -0.879222157 0.476412006 0 0
-3.004529 0.3441 1.729443 0 -0.879222157 0.476412006 0 0
-3.004529 0.342144 1.725833 0 -0.879222157 0.476412006 0 0
-3.004776 0.341882 1.725349 0 -0.879264044 0.476334695 0 0
-3.004776 0.344363 1.729928 0 -0.87915756 0.4765312 0 0
-3.004381 0.34168 1.727219 0 0.879222157 -0.476412006 0 0
-3.004381 0.342197 1.728173 0 0.879222157 -0.476412006 0 0
-3.004381 0.342715 1.729129 0 0.879222157 -0.476412006 0 0
-3.004529 0.34122 1.72637 0 0.879222157 -0.476412006 0 0
-3.004529 0.343176 1.72998 0 0.879222157 -0.476412006 0 0
-3.004776 0.343438 1.730464 0 0.879222157 -0.476412006 0 0
-3.004776 0.340957 1.725885 0.000100006547 0.879157556 -0.476531197 0 0
-3.005446 0.341633 1.72489 0 -0.27461546 -0.961554132 0 0
-3.005446 0.34071 1.725429 0 -0.677407411 -0.735608048 0 0
-3.005446 0.343687 1.730923 0 0.274496595 0.961588072 0 0
-3.005446 0.34461 1.730384 0 0.677303461 0.735703759 0 0
-3.005446 0.339543 1.727097 0 -0.965285748 -0.261196143 0 0
-3.005446 0.339742 1.729507 0 -0.878731204 0.47731695 0 0
-3.005446 0.341647 1.73098 0 -0.309890913 0.950772119 0 0
-3.005446 0.345777 1.728716 0 0.965285748 0.261196143 0 0
-3.005446 0.345578 1.726306 0 0.878731204 -0.47731695 0 0
-3.005446 0.343673 1.724833 0 0.309890913 -0.950772119 0 0
-3.005064 0.343795 1.623278 0.234808575 0.33461222 0.91263333 0 0
-3.00447 0.345344 1.621575 0.665939821 0.668839994 0.330419758 0 0
-3.005064 0.345649 1.621726 0.242604493 0.869816109 0.429607956 0 0
-3.00447 0.343678 1.622969 0.653583004 0.263293153 0.709581548 0 0
-3.005064 0.345754 1.619321 0.234714287 0.92915656 -0.285617386 0 0
-3.00447 0.345438 1.619415 0.65339606 0.724495631 -0.219498676 0 0
-3.00447 0.34439 1.617972 0.565809616 -0.168602865 -0.807113717 0 0
-3.005064 0.344532 1.617687 0.472910702 0.411309308 -0.779217634 0 0
-3.00447 0.3419 1.623 0.564795905 -0.745494595 0.353897434 0 0
-3.005064 0.341759 1.623286 0.482989072 -0.351492048 0.801981855 0 0
-3.003976 0.342234 1.622326 0.731279864 -0.679281296 0.0616983012 0 0
-3.003976 0.343404 1.622239 0.894162392 0.166011584 0.415829015 0 0
-3.003976 0.344056 1.618648 0.732142169 -0.361620828 -0.577233247 0 0
-3.003976 0.344691 1.619638 0.894018587 0.431908979 -0.119102476 0 0
-3.003976 0.344622 1.621219 0.901748971 0.387521045 0.1915104 0 0
-3.003679 0.343696 1.620761 0.984585404 0.156797675 0.0774988511 0 0
-3.003679 0.343051 1.6213 0.986376677 0.0711983165 0.148296494 0 0
-3.003679 0.343732 1.619925 0.986405736 0.161000936 -0.0329001913 0 0
-3.003679 0.343627 1.619514 0.767546415 -0.485929385 -0.418025279 0 0
-3.003679 0.342662 1.621461 0.767002681 -0.627602193 -0.133500467 0 0
-3.003679 0.343144 1.620489 0.707131889 -0.633628574 -0.313814152 0 0
-3.005064 0.341524 1.61725 0.234808575 -0.33461222 -0.91263333 0 0
-3.00447 0.339974 1.618953 0.666040014 -0.668740176 -0.330419851 0 0
-3.005064 0.339669 1.618802 0.242604493 -0.869816109 -0.429607956 0 0
-3.00447 0.34164 1.61756 0.653703863 -0.263201556 -0.709504193 0 0
-3.005064 0.339564 1.621208 0.234699181 -0.929196757 0.285499004 0 0
-3.00447 0.33988 1.621113 0.653410399 -0.724511531 0.219403492 0 0
-3.00447 0.340928 1.622556 0.566000778 0.168500232 0.80700111 0 0
-3.005064 0.340786 1.622842 0.472813608 -0.411411841 0.779222426 0 0
-3.00447 0.343418 1.617528 0.564858003 0.745476549 -0.353836334 0 0
-3.005064 0.343559 1.617243 0.482912397 0.351509023 -0.802020588 0 0
-3.003976 0.343084 1.618202 0.731284373 0.679285484 -0.0615986837 0 0
-3.003976 0.341915 1.61829 0.894182438 -0.16599674 -0.415791834 0 0
-3.003976 0.341262 1.621881 0.732204342 0.361702145 0.577103422 0 0
-3.003976 0.340627 1.62089 0.894018587 -0.431908979 0.119102476 0 0
-3.003976 0.340696 1.61931 0.901784918 -0.387493519 -0.191396799 0 0
-3.003679 0.341622 1.619768 0.984551444 -0.157008204 -0.0775040497 0 0
-3.003679 0.342267 1.619228 0.986359336 -0.0712042834 -0.148408928 0 0
-3.003679 0.341586 1.620604 0.986373955 -0.161195744 0.0328991313 0 0
-3.003679 0.341692 1.621014 0.767624795 0.485815692 0.418013502 0 0
-3.003679 0.342656 1.619067 0.767023145 0.627618939 0.133304023 0 0
-3.003679 0.342174 1.62004 0.707087082 0.633688423 0.313794267 0 0
-3.005082 0.342174 1.62004 0.707109695 0.633608687 0.313904304 0 0
-3.005082 0.343627 1.619514 0.707087082 -0.633688423 -0.313794267 0 0
-3.005082 0.343144 1.620489 0.707087082 -0.633688423 -0.313794267 0 0
-3.005082 0.342656 1.619067 0.707131889 0.633628574 0.313814152 0 0
-3.005082 0.344056 1.618648 0.707087082 -0.633688423 -0.313794267 0 0
-3.005082 0.343084 1.618202 0.707131889 0.633628574 0.313814152 0 0
-3.005082 0.3443 1.618154 0.711119929 -0.635517811 -0.300708427 0 0
-3.005082 0.343329 1.617708 0.71068277 0.624984847 0.322992169 0 0
-3.005082 0.342662 1.621461 0.707131889 -0.633628574 -0.313814152 0 0
-3.005082 0.341692 1.621014 0.707087082 0.633688423 0.313794267 0 0
-3.005082 0.342234 1.622326 0.707131889 -0.633628574 -0.313814152 0 0
-3.005082 0.341262 1.621881 0.707131889 0.633628574 0.313814152 0 0
-3.005082 0.341989 1.622821 0.710659813 -0.624964659 -0.32308173 0 0
-3.005082 0.341018 1.622375 0.711074736 0.635577418 0.300689317 0 0
-3.00438 0.342662 1.621461 0 -0.896120768 -0.443810285 0 0
-3.00438 0.343144 1.620489 0 -0.896120768 -0.443810285 0 0
-3.00438 0.343627 1.619514 0 -0.896120768 -0.443810285 0 0
-3.004529 0.342234 1.622326 0 -0.896120768 -0.443810285 0 0
-3.004529 0.344056 1.618648 0 -0.896120768 -0.443810285 0 0
-3.004776 0.3443 1.618154 0 -0.896120768 -0.443810285 0 0
-3.004776 0.341989 1.622821 -0.000100002317 -0.896120763 -0.443810283 0 0
-3.00438 0.342656 1.619067 0 0.896120768 0.443810285 0 0
-3.00438 0.342174 1.62004 0 0.896120768 0.443810285 0 0
-3.00438 0.341692 1.621014 0 0.896120768 0.443810285 0 0
-3.004529 0.343084 1.618202 0 0.896120768 0.443810285 0 0
-3.004529 0.341262 1.621881 0 0.896120768 0.443810285 0 0
-3.004776 0.341018 1.622375 0 0.896120768 0.443810285 0 0
-3.004776 0.343329 1.617708 -0.000100002317 0.896120763 0.443810283 0 0
-3.005446 0.344532 1.617687 0 0.627398604 -0.778698267 0 0
-3.005446 0.343559 1.617243 0 0.210498736 -0.97759413 0 0
-3.005446 0.340786 1.622842 0 -0.627398604 0.778698267 0 0
-3.005446 0.341759 1.623286 0 -0.210498736 0.97759413 0 0
-3.005446 0.341524 1.61725 0 -0.343187863 -0.939266783 0 0
-3.005446 0.339669 1.618802 0 -0.896616408 -0.442808103 0 0
-3.005446 0.339564 1.621208 0 -0.955525675 0.294907924 0 0
-3.005446 0.343795 1.623278 0 0.343187863 0.939266783 0 0
-3.005446 0.345649 1.621726 0 0.896616408 0.442808103 0 0
-3.005446 0.345754 1.619321 0 0.955553852 -0.294816615 0 0
-3.003394 0.342613 1.724118 0.355787341 0.000599978653 0.934566749 0 0
-3.004304 0.34019 1.725465 0.189608046 0.69492949 0.693629435 0 0
-3.003394 0.339944 1.72522 0.356410976 0.661220363 0.660120329 0 0
-3.004304 0.342614 1.724464 0.189207151 0.000400015119 0.981937113 0 0
-3.004304 0.34019 1.622768 0.189704452 0.69491631 -0.693616279 0 0
-3.003394 0.342613 1.624115 0.355907953 0.000500011173 -0.934520882 0 0
-3.003394 0.339944 1.623013 0.356498271 0.661196793 -0.660096799 0 0
-3.004304 0.342614 1.623768 0.189303572 0.000400007548 -0.981918529 0 0
-3.003394 0.34529 1.72522 0.35601122 -0.657620725 0.663920924 0 0
-3.004304 0.345045 1.725465 0.189303276 -0.690711953 0.697912077 0 0
-3.003394 0.34529 1.623013 0.355987808 -0.657677475 -0.663877263 0 0
-3.004304 0.345045 1.622768 0.189303276 -0.690711953 -0.697912077 0 0
-3.003394 0.342613 1.731682 0.356706262 0.000600010533 -0.9342164 0 0
-3.004304 0.345045 1.730321 0.189111501 -0.691642063 -0.697042392 0 0
-3.003394 0.34529 1.730566 0.355791246 -0.658583796 -0.663083685 0 0
-3.004304 0.342614 1.731335 0.189804229 0.000400008912 -0.981821875 0 0
-3.004304 0.345045 1.617912 0.189015069 -0.691655141 0.697055571 0 0
-3.003394 0.342613 1.616551 0.356498378 0.00059999727 0.934295749 0 0
-3.003394 0.34529 1.617667 0.355703902 -0.658607225 0.663107274 0 0
-3.004304 0.342614 1.616898 0.189707827 0.000400016503 0.981840507 0 0
-3.003394 0.339944 1.730566 0.356101328 0.66220247 -0.659302459 0 0
-3.004304 0.34019 1.730321 0.189414782 0.695954311 -0.692654053 0 0
-3.003394 0.339944 1.617667 0.356101328 0.66220247 0.659302459 0 0
-3.004304 0.34019 1.617912 0.189401661 0.695906103 0.692706075 0 0
-3.003394 0.338844 1.7279 0.355787261 0.934566538 -0.000899967777 0 0
-3.004304 0.33919 1.727899 0.18920709 0.981936794 -0.000900033725 0 0
-3.003394 0.338844 1.620333 0.355787261 0.934566538 0.000899967777 0 0
-3.004304 0.33919 1.620333 0.18920709 0.981936794 0.000900033725 0 0
-3.004304 0.346076 1.727899 0.190805342 -0.981627481 -0.000900025197 0 0
-3.003394 0.346425 1.7279 0.358094251 -0.93368501 -0.000899985551 0 0
-3.004304 0.346076 1.620333 0.190708977 -0.981646207 0.000900042366 0 0
-3.003394 0.346425 1.620333 0.358094251 -0.93368501 0.000899985551 0 0
-3.007336 0.345045 1.725465 0 -0.703598128 0.71059811 0 0
-3.007336 0.346076 1.727899 0 -0.9999995 -0.0009999995 0 0
-3.007336 0.345045 1.622768 0 -0.703497629 -0.710697605 0 0
-3.007336 0.346076 1.620333 0 -0.9999995 0.0009999995 0 0
-3.007336 0.345045 1.730321 0 -0.704501994 -0.709702008 0 0
-3.007336 0.345045 1.617912 0 -0.704501994 0.709702008 0 0
-3.007336 0.33919 1.727899 0 0.9999995 -0.0009999995 0 0
-3.007336 0.34019 1.725465 0 0.707806441 0.706406428 0 0
-3.007336 0.33919 1.620333 0 0.999999595 0.000899999636 0 0
-3.007336 0.34019 1.622768 0 0.707806441 -0.706406428 0 0
-3.007336 0.34019 1.730321 0 0.708704982 -0.70550496 0 0
-3.007336 0.34019 1.617912 0 0.708704982 0.70550496 0 0
-3.007336 0.342614 1.731335 0 0.000499999938 -0.999999875 0 0
-3.007336 0.342614 1.616898 0 0.000499999938 0.999999875 0 0
-3.007336 0.342614 1.724464 0 0.000499999938 0.999999875 0 0
-3.007336 0.342614 1.623768 0 0.000499999938 -0.999999875 0 0
3 0 1 2
3 0 3 1
3 4 1 5
3 4 2 1
3 4 6 7
3 4 5 6
3 8 0 9
3 8 3 0
3 3 10 11
3 3 8 10
3 5 12 6
3 5 13 12
3 5 14 13
3 5 1 14
3 3 14 1
3 3 11 14
3 11 15 14
3 11 16 15
3 13 15 17
3 13 14 15
3 13 18 12
3 13 17 18
3 11 19 16
3 11 10 19
3 16 19 20
3 17 20 18
3 17 15 20
3 16 20 15
3 21 22 23
3 21 24 22
3 25 22 26
3 25 23 22
3 25 27 28
3 25 26 27
3 21 29 24
3 21 30 29
3 24 31 32
3 24 29 31
3 26 33 27
3 26 34 33
3 26 35 34
3 26 22 35
3 24 35 22
3 24 32 35
3 32 36 35
3 32 37 36
3 34 36 38
3 34 35 36
3 34 39 33
3 34 38 39
3 32 40 37
3 32 31 40
3 37 40 41
3 38 41 39
3 38 36 41
3 37 41 36
3 42 43 44
3 42 45 43
3 45 46 43
3 45 47 46
3 47 48 46
3 47 49 48
3 42 50 51
3 42 44 50
3 51 52 53
3 51 50 52
3 53 54 55
3 53 52 54
3 20 56 57
3 20 19 56
3 57 50 44
3 57 56 50
3 18 57 58
3 18 20 57
3 58 44 43
3 58 57 44
3 19 59 56
3 19 10 59
3 56 52 50
3 56 59 52
3 12 58 60
3 12 18 58
3 60 43 46
3 60 58 43
3 6 60 61
3 6 12 60
3 61 46 48
3 61 60 46
3 10 62 59
3 10 8 62
3 59 54 52
3 59 62 54
3 41 63 64
3 41 40 63
3 64 45 42
3 64 63 45
3 39 64 65
3 39 41 64
3 65 42 51
3 65 64 42
3 40 66 63
3 40 31 66
3 63 47 45
3 63 66 47
3 33 65 67
3 33 39 65
3 67 51 53
3 67 65 51
3 27 67 68
3 27 33 67
3 68 53 55
3 68 67 53
3 31 69 66
3 31 29 69
3 66 49 47
3 66 69 49
3 9 62 8
3 9 54 62
3 28 68 55
3 28 27 68
3 30 69 29
3 30 49 69
3 9 55 54
3 9 28 55
3 7 49 30
3 7 48 49
3 7 61 48
3 7 6 61
3 30 70 7
3 30 71 70
3 9 72 28
3 9 73 72
3 23 74 21
3 23 75 74
3 25 75 23
3 25 76 75
3 28 76 25
3 28 72 76
3 21 71 30
3 21 74 71
3 2 77 0
3 2 78 77
3 4 78 2
3 4 79 78
3 7 79 4
3 7 70 79
3 0 73 9
3 0 77 73
3 80 81 82
3 80 83 81
3 84 81 85
3 84 82 81
3 84 86 87
3 84 85 86
3 88 80 89
3 88 83 80
3 83 90 91
3 83 88 90
3 85 92 86
3 85 93 92
3 85 94 93
3 85 81 94
3 83 94 81
3 83 91 94
3 91 95 94
3 91 96 95
3 93 95 97
3 93 94 95
3 93 98 92
3 93 97 98
3 91 99 96
3 91 90 99
3 96 99 100
3 97 100 98
3 97 95 100
3 96 100 95
3 101 102 103
3 101 104 102
3 105 102 106
3 105 103 102
3 105 107 108
3 105 106 107
3 101 109 104
3 101 110 109
3 104 111 112
3 104 109 111
3 106 113 107
3 106 114 113
3 106 115 114
3 106 102 115
3 104 115 102
3 104 112 115
3 112 116 115
3 112 117 116
3 114 116 118
3 114 115 116
3 114 119 113
3 114 118 119
3 112 120 117
3 112 111 120
3 117 120 121
3 118 121 119
3 118 116 121
3 117 121 116
3 122 123 124
3 122 125 123
3 125 126 123
3 125 127 126
3 127 128 126
3 127 129 128
3 122 130 131
3 122 124 130
3 131 132 133
3 131 130 132
3 133 134 135
3 133 132 134
3 100 136 137
3 100 99 136
3 137 130 124
3 137 136 130
3 98 137 138
3 98 100 137
3 138 124 123
3 138 137 124
3 99 139 136
3 99 90 139
3 136 132 130
3 136 139 132
3 92 138 140
3 92 98 138
3 140 123 126
3 140 138 123
3 86 140 141
3 86 92 140
3 141 126 128
3 141 140 126
3 90 142 139
3 90 88 142
3 139 134 132
3 139 142 134
3 121 143 144
3 121 120 143
3 144 125 122
3 144 143 125
3 119 144 145
3 119 121 144
3 145 122 131
3 145 144 122
3 120 146 143
3 120 111 146
3 143 127 125
3 143 146 127
3 113 145 147
3 113 119 145
3 147 131 133
3 147 145 131
3 107 147 148
3 107 113 147
3 148 133 135
3 148 147 133
3 111 149 146
3 111 109 149
3 146 129 127
3 146 149 129
3 89 142 88
3 89 134 142
3 108 148 135
3 108 107 148
3 110 149 109
3 110 129 149
3 89 135 134
3 89 108 135
3 87 129 110
3 87 128 129
3 87 141 128
3 87 86 141
3 110 150 87
3 110 151 150
3 89 152 108
3 89 153 152
3 103 154 101
3 103 155 154
3 105 155 103
3 105 156 155
3 108 156 105
3 108 152 156
3 101 151 110
3 101 154 151
3 82 157 80
3 82 158 157
3 84 158 82
3 84 159 158
3 87 159 84
3 87 150 159
3 80 153 89
3 80 157 153
3 160 161 162
3 160 163 161
3 164 165 166
3 164 167 165
3 168 163 160
3 168 169 163
3 167 170 165
3 167 171 170
3 172 173 174
3 172 175 173
3 176 177 178
3 176 179 177
3 180 175 172
3 180 181 175
3 179 182 177
3 179 183 182
3 184 181 180
3 184 185 181
3 183 186 182
3 183 187 186
3 162 185 184
3 162 161 185
3 187 166 186
3 187 164 166
3 174 188 189
3 174 173 188
3 190 178 191
3 190 176 178
3 189 169 168
3 189 188 169
3 171 191 170
3 171 190 191
3 188 192 169
3 188 193 192
3 194 190 171
3 194 195 190
3 173 193 188
3 173 196 193
3 195 176 190
3 195 197 176
3 161 198 185
3 161 199 198
3 200 164 187
3 200 201 164
3 185 202 181
3 185 198 202
3 203 187 183
3 203 200 187
3 181 204 175
3 181 202 204
3 205 183 179
3 205 203 183
3 175 196 173
3 175 204 196
3 197 179 176
3 197 205 179
3 169 206 163
3 169 192 206
3 207 171 167
3 207 194 171
3 163 199 161
3 163 206 199
3 201 167 164
3 201 207 167
