ply
format ascii 1.0
element vertex 384
property float x
property float y
property float z
property float nx
property float ny
property float nz
property float u
property float v
element face 128
property list uchar int vertex_indices
end_header
-2.955639 2.278591 2.28174 0 0 1 0 0
-3.003833 1.231487 2.28174 0 0 1 0 0
-2.987318 1.230988 2.28174 0 0 1 0 0
-2.955639 2.278591 2.28174 0 0 1 0 0
-2.972154 2.279091 2.28174 0 0 1 0 0
-3.003833 1.231487 2.28174 0 0 1 0 0
-2.987318 1.230988 3.529064 0 0 -1 0 0
-2.972154 2.27909 3.529064 0 0 -1 0 0
-2.955639 2.278591 3.529064 0 0 -1 0 0
-2.987318 1.230988 3.529064 0 0 -1 0 0
-3.003833 1.231487 3.529064 0 0 -1 0 0
-2.972154 2.27909 3.529064 0 0 -1 0 0
-2.955608 2.279591 3.528064 -0.0302011733 -0.999543841 2.42516592e-08 0 0
-2.972124 2.28009 2.28274 -0.0302011733 -0.999543841 2.42516592e-08 0 0
-2.955609 2.279591 2.28274 -0.0302011733 -0.999543841 2.42516592e-08 0 0
-2.955608 2.279591 3.528064 -0.0301993463 -0.999543896 0 0 0
-2.972124 2.28009 3.528064 -0.0301993463 -0.999543896 0 0 0
-2.972124 2.28009 2.28274 -0.0301993463 -0.999543896 0 0 0
-2.987348 1.229988 2.28274 0.0302616413 0.999542012 -0 0 0
-3.003863 1.230488 3.528064 0.0302616413 0.999542012 -0 0 0
-2.987348 1.229988 3.528064 0.0302616413 0.999542012 -0 0 0
-2.987348 1.229988 2.28274 0.0302616413 0.999542012 0 0 0
-3.003863 1.230488 2.28274 0.0302616413 0.999542012 0 0 0
-3.003863 1.230488 3.528064 0.0302616413 0.999542012 0 0 0
-2.95646 2.251422 3.499407 0 0 1 0 0
-3.003011 1.258655 3.499407 0 0 1 0 0
-2.986496 1.258156 3.499407 0 0 1 0 0
-2.95646 2.251422 3.499407 0 0 1 0 0
-2.972976 2.251922 3.499407 0 0 1 0 0
-3.003011 1.258655 3.499407 0 0 1 0 0
-3.004028 1.258126 3.500407 0.999543101 -0.0302256536 -5.32030616e-06 0 0
-2.973192 2.277848 3.528064 0.999543101 -0.0302256536 -5.32030616e-06 0 0
-3.004794 1.23279 3.528064 0.999543101 -0.0302256536 -5.32030616e-06 0 0
-3.004028 1.258126 3.500407 0.999543092 -0.0302259492 5.59141869e-06 0 0
-2.973958 2.252512 3.500407 0.999543092 -0.0302259492 5.59141869e-06 0 0
-2.973192 2.277848 3.528064 0.999543092 -0.0302259492 5.59141869e-06 0 0
-2.986496 1.258156 2.311396 3.03901651e-08 1.00585965e-06 -1 0 0
-2.972976 2.251922 2.311397 3.03901651e-08 1.00585965e-06 -1 0 0
-2.95646 2.251423 2.311397 3.03901651e-08 1.00585965e-06 -1 0 0
-2.986496 1.258156 2.311396 3.04528853e-08 1.0058588e-06 -1 0 0
-3.003011 1.258656 2.311396 3.04528853e-08 1.0058588e-06 -1 0 0
-2.972976 2.251922 2.311397 3.04528853e-08 1.0058588e-06 -1 0 0
-2.986526 1.257156 3.498407 -0.0301993463 -0.999543896 -8.42778641e-07 0 0
-3.003042 1.257656 2.312397 -0.0301993463 -0.999543896 -8.42778641e-07 0 0
-2.986526 1.257157 2.312397 -0.0301993463 -0.999543896 -8.42778641e-07 0 0
-2.986526 1.257156 3.498407 -0.0302598107 -0.999542067 0 0 0
-3.003042 1.257656 3.498407 -0.0302598107 -0.999542067 0 0 0
-3.003042 1.257656 2.312397 -0.0302598107 -0.999542067 0 0 0
-2.95643 2.252422 2.312397 0.0302616413 0.999542012 -0 0 0
-2.972945 2.252922 3.498407 0.0302616413 0.999542012 -0 0 0
-2.95643 2.252422 3.498407 0.0302616413 0.999542012 -0 0 0
-2.95643 2.252422 2.312397 0.0302616413 0.999542012 0 0 0
-2.972945 2.252922 2.312397 0.0302616413 0.999542012 0 0 0
-2.972945 2.252922 3.498407 0.0302616413 0.999542012 0 0 0
-2.954639 2.278561 2.284311 -0.999543253 0.0302205966 0 0 0
-2.9554 2.253391 3.499018 -0.999543253 0.0302205966 0 0 0
-2.954639 2.278561 3.526493 -0.999543253 0.0302205966 0 0 0
-2.954639 2.278561 2.284311 -0.999543216 0.030221824 2.5455702e-08 0 0
-2.9554 2.253392 2.311786 -0.999543216 0.030221824 2.5455702e-08 0 0
-2.9554 2.253391 3.499018 -0.999543216 0.030221824 2.5455702e-08 0 0
-2.986318 1.230958 3.526493 -0.999543217 0.0302217962 0 0 0
-2.985557 1.256127 2.311785 -0.999543217 0.0302217962 0 0 0
-2.986318 1.230958 2.284311 -0.999543217 0.0302217962 0 0 0
-2.986318 1.230958 3.526493 -0.999543217 0.0302217962 0 0 0
-2.985557 1.256127 3.499018 -0.999543217 0.0302217962 0 0 0
-2.985557 1.256127 2.311785 -0.999543217 0.0302217962 0 0 0
-2.98628 1.23223 2.28274 -0.999543101 0.0302256247 6.38668523e-06 0 0
-2.955444 2.251952 2.310397 -0.999543101 0.0302256247 6.38668523e-06 0 0
-2.954678 2.277289 2.28274 -0.999543101 0.0302256247 6.38668523e-06 0 0
-2.98628 1.23223 2.28274 -0.999543121 0.0302249449 3.14712703e-05 0 0
-2.985513 1.257566 2.310396 -0.999543121 0.0302249449 3.14712703e-05 0 0
-2.955444 2.251952 2.310397 -0.999543121 0.0302249449 3.14712703e-05 0 0
-3.004071 1.256687 2.311785 0.999542053 -0.0302602719 0 0 0
-3.004833 1.231517 3.526493 0.999542053 -0.0302602719 0 0 0
-3.004833 1.231517 2.284311 0.999542053 -0.0302602719 0 0 0
-3.004071 1.256687 2.311785 0.999542053 -0.0302602719 0 0 0
-3.004071 1.256687 3.499018 0.999542053 -0.0302602719 0 0 0
-3.004833 1.231517 3.526493 0.999542053 -0.0302602719 0 0 0
-2.973915 2.253951 3.499018 0.999543253 -0.0302205966 0 0 0
-2.973154 2.279121 2.284311 0.999543253 -0.0302205966 0 0 0
-2.973154 2.279121 3.526493 0.999543253 -0.0302205966 0 0 0
-2.973915 2.253951 3.499018 0.999543216 -0.030221824 -2.5455702e-08 0 0
-2.973915 2.253952 2.311786 0.999543216 -0.030221824 -2.5455702e-08 0 0
-2.973154 2.279121 2.284311 0.999543216 -0.030221824 -2.5455702e-08 0 0
-2.973958 2.252512 2.310397 0.999543101 -0.0302256536 -5.32030616e-06 0 0
-3.004794 1.23279 2.28274 0.999543101 -0.0302256536 -5.32030616e-06 0 0
-2.973192 2.277848 2.28274 0.999543101 -0.0302256536 -5.32030616e-06 0 0
-2.973958 2.252512 2.310397 0.999543092 -0.0302259492 5.59162602e-06 0 0
-3.004028 1.258126 2.310396 0.999543092 -0.0302259492 5.59162602e-06 0 0
-3.004794 1.23279 2.28274 0.999543092 -0.0302259492 5.59162602e-06 0 0
-2.955608 2.279591 3.528064 -0.859981343 -0.347278614 -0.373938036 0 0
-2.954678 2.277288 3.528064 -0.859981343 -0.347278614 -0.373938036 0 0
-2.955639 2.278591 3.529064 -0.859981343 -0.347278614 -0.373938036 0 0
-2.955608 2.279591 3.528064 -0.881473781 -0.355957714 -0.310319318 0 0
-2.954639 2.278561 3.526493 -0.881473781 -0.355957714 -0.310319318 0 0
-2.954678 2.277288 3.528064 -0.881473781 -0.355957714 -0.310319318 0 0
-2.987318 1.230988 3.529064 -0.865533763 0.366899796 -0.340933783 0 0
-2.986318 1.230958 3.526493 -0.865533763 0.366899796 -0.340933783 0 0
-2.987348 1.229988 3.528064 -0.865533763 0.366899796 -0.340933783 0 0
-2.987318 1.230988 3.529064 -0.837741247 0.434381607 -0.3309112 0 0
-2.986279 1.23223 3.528064 -0.837741247 0.434381607 -0.3309112 0 0
-2.986318 1.230958 3.526493 -0.837741247 0.434381607 -0.3309112 0 0
-2.986318 1.230958 2.284311 -0.865533763 0.366899796 0.340933783 0 0
-2.987318 1.230988 2.28174 -0.865533763 0.366899796 0.340933783 0 0
-2.987348 1.229988 2.28274 -0.865533763 0.366899796 0.340933783 0 0
-2.986318 1.230958 2.284311 -0.837986498 0.433840346 0.331000276 0 0
-2.98628 1.23223 2.28274 -0.837986498 0.433840346 0.331000276 0 0
-2.987318 1.230988 2.28174 -0.837986498 0.433840346 0.331000276 0 0
-2.955639 2.278591 2.28174 -0.885971396 -0.314354641 0.340933783 0 0
-2.954639 2.278561 2.284311 -0.885971396 -0.314354641 0.340933783 0 0
-2.955609 2.279591 2.28274 -0.885971396 -0.314354641 0.340933783 0 0
-2.955639 2.278591 2.28174 -0.862635998 -0.382434871 0.331062992 0 0
-2.954678 2.277289 2.28274 -0.862635998 -0.382434871 0.331062992 0 0
-2.954639 2.278561 2.284311 -0.862635998 -0.382434871 0.331062992 0 0
-2.955444 2.251952 2.310397 -0.735883797 0.4815934 -0.475965161 0 0
-2.95643 2.252422 2.312397 -0.735883797 0.4815934 -0.475965161 0 0
-2.9554 2.253392 2.311786 -0.735883797 0.4815934 -0.475965161 0 0
-2.955444 2.251952 2.310397 -0.726210086 0.497130726 -0.474847293 0 0
-2.95646 2.251423 2.311397 -0.726210086 0.497130726 -0.474847293 0 0
-2.95643 2.252422 2.312397 -0.726210086 0.497130726 -0.474847293 0 0
-2.985513 1.257566 2.310396 -0.754699361 -0.452928341 -0.474641751 0 0
-2.986526 1.257157 2.312397 -0.754699361 -0.452928341 -0.474641751 0 0
-2.986496 1.258156 2.311396 -0.754699361 -0.452928341 -0.474641751 0 0
-2.985513 1.257566 2.310396 -0.763902495 -0.435936813 -0.475827778 0 0
-2.985557 1.256127 2.311785 -0.763902495 -0.435936813 -0.475827778 0 0
-2.986526 1.257157 2.312397 -0.763902495 -0.435936813 -0.475827778 0 0
-2.985513 1.257566 3.500407 -0.763513279 -0.436263016 0.476153394 0 0
-2.986526 1.257156 3.498407 -0.763513279 -0.436263016 0.476153394 0 0
-2.985557 1.256127 3.499018 -0.763513279 -0.436263016 0.476153394 0 0
-2.985513 1.257566 3.500407 -0.754775319 -0.45239049 0.475033749 0 0
-2.986496 1.258156 3.499407 -0.754775319 -0.45239049 0.475033749 0 0
-2.986526 1.257156 3.498407 -0.754775319 -0.45239049 0.475033749 0 0
-2.9554 2.253391 3.499018 -0.728345261 0.48727479 0.481743147 0 0
-2.95646 2.251422 3.499407 -0.728345261 0.48727479 0.481743147 0 0
-2.955444 2.251952 3.500407 -0.728345261 0.48727479 0.481743147 0 0
-2.9554 2.253391 3.499018 -0.736898567 0.488932199 0.466825242 0 0
-2.95643 2.252422 3.498407 -0.736898567 0.488932199 0.466825242 0 0
-2.95646 2.251422 3.499407 -0.736898567 0.488932199 0.466825242 0 0
-2.972976 2.251922 3.499407 0.756413151 0.442424545 0.481767233 0 0
-2.973915 2.253951 3.499018 0.756413151 0.442424545 0.481767233 0 0
-2.973958 2.252512 3.500407 0.756413151 0.442424545 0.481767233 0 0
-2.972976 2.251922 3.499407 0.76482731 0.443534083 0.46724373 0 0
-2.972945 2.252922 3.498407 0.76482731 0.443534083 0.46724373 0 0
-2.973915 2.253951 3.499018 0.76482731 0.443534083 0.46724373 0 0
-3.003042 1.257656 3.498407 0.73598361 -0.481430132 0.475976001 0 0
-3.004028 1.258126 3.500407 0.73598361 -0.481430132 0.475976001 0 0
-3.004071 1.256687 3.499018 0.73598361 -0.481430132 0.475976001 0 0
-3.003042 1.257656 3.498407 0.725789912 -0.497793081 0.474795801 0 0
-3.003011 1.258655 3.499407 0.725789912 -0.497793081 0.474795801 0 0
-3.004028 1.258126 3.500407 0.725789912 -0.497793081 0.474795801 0 0
-3.003042 1.257656 2.312397 0.726022334 -0.497611788 -0.474630466 0 0
-3.004028 1.258126 2.310396 0.726022334 -0.497611788 -0.474630466 0 0
-3.003011 1.258656 2.311396 0.726022334 -0.497611788 -0.474630466 0 0
-3.003042 1.257656 2.312397 0.736196602 -0.481272448 -0.475806047 0 0
-3.004071 1.256687 2.311785 0.736196602 -0.481272448 -0.475806047 0 0
-3.004028 1.258126 2.310396 0.736196602 -0.481272448 -0.475806047 0 0
-2.972945 2.252922 2.312397 0.763397806 0.436480264 -0.476139443 0 0
-2.973958 2.252512 2.310397 0.763397806 0.436480264 -0.476139443 0 0
-2.973915 2.253952 2.311786 0.763397806 0.436480264 -0.476139443 0 0
-2.972945 2.252922 2.312397 0.755169232 0.451676691 -0.475086938 0 0
-2.972976 2.251922 2.311397 0.755169232 0.451676691 -0.475086938 0 0
-2.973958 2.252512 2.310397 0.755169232 0.451676691 -0.475086938 0 0
-2.972154 2.279091 2.28174 0.838113306 -0.433560163 0.331046329 0 0
-2.973154 2.279121 2.284311 0.838113306 -0.433560163 0.331046329 0 0
-2.973192 2.277848 2.28274 0.838113306 -0.433560163 0.331046329 0 0
-2.972154 2.279091 2.28174 0.865414439 -0.367220771 0.340891117 0 0
-2.972124 2.28009 2.28274 0.865414439 -0.367220771 0.340891117 0 0
-2.973154 2.279121 2.284311 0.865414439 -0.367220771 0.340891117 0 0
-3.003833 1.231487 2.28174 0.885885835 0.31463529 0.340897229 0 0
-3.004833 1.231517 2.284311 0.885885835 0.31463529 0.340897229 0 0
-3.003863 1.230488 2.28274 0.885885835 0.31463529 0.340897229 0 0
-3.003833 1.231487 2.28174 0.862732692 0.38218155 0.331103557 0 0
-3.004794 1.23279 2.28274 0.862732692 0.38218155 0.331103557 0 0
-3.004833 1.231517 2.284311 0.862732692 0.38218155 0.331103557 0 0
-3.003833 1.231487 3.529064 0.862732692 0.38218155 -0.331103557 0 0
-3.004833 1.231517 3.526493 0.862732692 0.38218155 -0.331103557 0 0
-3.004794 1.23279 3.528064 0.862732692 0.38218155 -0.331103557 0 0
-3.003833 1.231487 3.529064 0.885885835 0.31463529 -0.340897229 0 0
-3.003863 1.230488 3.528064 0.885885835 0.31463529 -0.340897229 0 0
-3.004833 1.231517 3.526493 0.885885835 0.31463529 -0.340897229 0 0
-2.972124 2.28009 3.528064 0.858178731 -0.408802357 -0.310499433 0 0
-2.973192 2.277848 3.528064 0.858178731 -0.408802357 -0.310499433 0 0
-2.973154 2.279121 3.526493 0.858178731 -0.408802357 -0.310499433 0 0
-2.972124 2.28009 3.528064 0.837367995 -0.398888947 -0.373767907 0 0
-2.972154 2.27909 3.529064 0.837367995 -0.398888947 -0.373767907 0 0
-2.973192 2.277848 3.528064 0.837367995 -0.398888947 -0.373767907 0 0
-2.987348 1.229988 3.528064 -0.685585134 0.727992462 0 0 0
-2.986318 1.230958 2.284311 -0.685585134 0.727992462 0 0 0
-2.987348 1.229988 2.28274 -0.685585134 0.727992462 0 0 0
-2.987348 1.229988 3.528064 -0.685585134 0.727992462 0 0 0
-2.986318 1.230958 3.526493 -0.685585134 0.727992462 0 0 0
-2.986318 1.230958 2.284311 -0.685585134 0.727992462 0 0 0
-2.955639 2.278591 3.529064 -0.706435709 0.0213622687 -0.707454764 0 0
-2.986279 1.23223 3.528064 -0.706435709 0.0213622687 -0.707454764 0 0
-2.987318 1.230988 3.529064 -0.706435709 0.0213622687 -0.707454764 0 0
-2.955639 2.278591 3.529064 -0.706803611 0.0213726902 -0.707086886 0 0
-2.954678 2.277288 3.528064 -0.706803611 0.0213726902 -0.707086886 0 0
-2.986279 1.23223 3.528064 -0.706803611 0.0213726902 -0.707086886 0 0
-2.954639 2.278561 3.526493 -0.727992462 -0.685585134 -0 0 0
-2.955609 2.279591 2.28274 -0.727992462 -0.685585134 -0 0 0
-2.954639 2.278561 2.284311 -0.727992462 -0.685585134 -0 0 0
-2.954639 2.278561 3.526493 -0.72834485 -0.685210756 5.84863738e-07 0 0
-2.955608 2.279591 3.528064 -0.72834485 -0.685210756 5.84863738e-07 0 0
-2.955609 2.279591 2.28274 -0.72834485 -0.685210756 5.84863738e-07 0 0
-2.987318 1.230988 2.28174 -0.706813824 0.0213737028 0.707076646 0 0
-2.954678 2.277289 2.28274 -0.706813824 0.0213737028 0.707076646 0 0
-2.955639 2.278591 2.28174 -0.706813824 0.0213737028 0.707076646 0 0
-2.987318 1.230988 2.28174 -0.706788825 0.021372899 0.707101659 0 0
-2.98628 1.23223 2.28274 -0.706788825 0.021372899 0.707101659 0 0
-2.954678 2.277289 2.28274 -0.706788825 0.021372899 0.707101659 0 0
-2.954639 2.278561 2.284311 -0.999538062 0.0303914196 0.000155529543 0 0
-2.955444 2.251952 2.310397 -0.999538062 0.0303914196 0.000155529543 0 0
-2.9554 2.253392 2.311786 -0.999538062 0.0303914196 0.000155529543 0 0
-2.954639 2.278561 2.284311 -0.999537214 0.0304191419 0.0001838338 0 0
-2.954678 2.277289 2.28274 -0.999537214 0.0304191419 0.0001838338 0 0
-2.955444 2.251952 2.310397 -0.999537214 0.0304191419 0.0001838338 0 0
-2.95646 2.251423 2.311397 -0.706647764 0.0213694601 -0.707242733 0 0
-2.985513 1.257566 2.310396 -0.706647764 0.0213694601 -0.707242733 0 0
-2.986496 1.258156 2.311396 -0.706647764 0.0213694601 -0.707242733 0 0
-2.95646 2.251423 2.311397 -0.706944067 0.0213778232 -0.706946303 0 0
-2.955444 2.251952 2.310397 -0.706944067 0.0213778232 -0.706946303 0 0
-2.985513 1.257566 2.310396 -0.706944067 0.0213778232 -0.706946303 0 0
-2.98628 1.23223 2.28274 -0.999537188 0.0304201983 -0.000147567273 0 0
-2.985557 1.256127 2.311785 -0.999537188 0.0304201983 -0.000147567273 0 0
-2.985513 1.257566 2.310396 -0.999537188 0.0304201983 -0.000147567273 0 0
-2.98628 1.23223 2.28274 -0.99954831 0.0300524734 0.000155258067 0 0
-2.986318 1.230958 2.284311 -0.99954831 0.0300524734 0.000155258067 0 0
-2.985557 1.256127 2.311785 -0.99954831 0.0300524734 0.000155258067 0 0
-2.954678 2.277288 3.528064 -0.999537747 0.0304017042 -0.000166744847 0 0
-2.9554 2.253391 3.499018 -0.999537747 0.0304017042 -0.000166744847 0 0
-2.955444 2.251952 3.500407 -0.999537747 0.0304017042 -0.000166744847 0 0
-2.954678 2.277288 3.528064 -0.999537526 0.0304089656 -0.00017272456 0 0
-2.954639 2.278561 3.526493 -0.999537526 0.0304089656 -0.00017272456 0 0
-2.9554 2.253391 3.499018 -0.999537526 0.0304089656 -0.00017272456 0 0
-2.9554 2.253392 2.311786 -0.685210475 0.728345113 6.13481706e-07 0 0
-2.95643 2.252422 3.498407 -0.685210475 0.728345113 6.13481706e-07 0 0
-2.9554 2.253391 3.499018 -0.685210475 0.728345113 6.13481706e-07 0 0
-2.9554 2.253392 2.311786 -0.685585134 0.727992462 0 0 0
-2.95643 2.252422 2.312397 -0.685585134 0.727992462 0 0 0
-2.95643 2.252422 3.498407 -0.685585134 0.727992462 0 0 0
-2.986318 1.230958 3.526493 -0.99953772 0.0304026178 0.000165797405 0 0
-2.985513 1.257566 3.500407 -0.99953772 0.0304026178 0.000165797405 0 0
-2.985557 1.256127 3.499018 -0.99953772 0.0304026178 0.000165797405 0 0
-2.986318 1.230958 3.526493 -0.999537195 0.0304197786 0.000183317767 0 0
-2.986279 1.23223 3.528064 -0.999537195 0.0304197786 0.000183317767 0 0
-2.985513 1.257566 3.500407 -0.999537195 0.0304197786 0.000183317767 0 0
-2.986496 1.258156 3.499407 -0.706954727 0.021378052 0.706935635 0 0
-2.955444 2.251952 3.500407 -0.706954727 0.021378052 0.706935635 0 0
-2.95646 2.251422 3.499407 -0.706954727 0.021378052 0.706935635 0 0
-2.986496 1.258156 3.499407 -0.706648169 0.0213681647 0.707242368 0 0
-2.985513 1.257566 3.500407 -0.706648169 0.0213681647 0.707242368 0 0
-2.955444 2.251952 3.500407 -0.706648169 0.0213681647 0.707242368 0 0
-2.986526 1.257157 2.312397 -0.72801286 -0.685563473 -5.780419e-07 0 0
-2.985557 1.256127 3.499018 -0.72801286 -0.685563473 -5.780419e-07 0 0
-2.986526 1.257156 3.498407 -0.72801286 -0.685563473 -5.780419e-07 0 0
-2.986526 1.257157 2.312397 -0.728345295 -0.685210282 0 0 0
-2.985557 1.256127 2.311785 -0.728345295 -0.685210282 0 0 0
-2.985557 1.256127 3.499018 -0.728345295 -0.685210282 0 0 0
-2.986496 1.258156 2.311396 -0.0214037692 -0.706966495 -0.706923089 0 0
-3.003042 1.257656 2.312397 -0.0214037692 -0.706966495 -0.706923089 0 0
-3.003011 1.258656 2.311396 -0.0214037692 -0.706966495 -0.706923089 0 0
-2.986496 1.258156 2.311396 -0.0213706984 -0.707331572 -0.706558802 0 0
-2.986526 1.257157 2.312397 -0.0213706984 -0.707331572 -0.706558802 0 0
-3.003042 1.257656 2.312397 -0.0213706984 -0.707331572 -0.706558802 0 0
-3.003042 1.257656 3.498407 0.685563292 -0.728013031 0 0 0
-3.004071 1.256687 2.311785 0.685563292 -0.728013031 0 0 0
-3.003042 1.257656 2.312397 0.685563292 -0.728013031 0 0 0
-3.003042 1.257656 3.498407 0.685563292 -0.728013031 0 0 0
-3.004071 1.256687 3.499018 0.685563292 -0.728013031 0 0 0
-3.004071 1.256687 2.311785 0.685563292 -0.728013031 0 0 0
-2.986526 1.257156 3.498407 -0.0214024751 -0.706966556 0.706923067 0 0
-3.003011 1.258655 3.499407 -0.0214024751 -0.706966556 0.706923067 0 0
-3.003042 1.257656 3.498407 -0.0214024751 -0.706966556 0.706923067 0 0
-2.986526 1.257156 3.498407 -0.0213506513 -0.706625263 0.707265783 0 0
-2.986496 1.258156 3.499407 -0.0213506513 -0.706625263 0.707265783 0 0
-3.003011 1.258655 3.499407 -0.0213506513 -0.706625263 0.707265783 0 0
-2.972976 2.251922 3.499407 0.706590638 -0.0213663092 0.707299902 0 0
-3.004028 1.258126 3.500407 0.706590638 -0.0213663092 0.707299902 0 0
-3.003011 1.258655 3.499407 0.706590638 -0.0213663092 0.707299902 0 0
-2.972976 2.251922 3.499407 0.7070012 -0.0213795509 0.706889113 0 0
-2.973958 2.252512 3.500407 0.7070012 -0.0213795509 0.706889113 0 0
-3.004028 1.258126 3.500407 0.7070012 -0.0213795509 0.706889113 0 0
-2.95646 2.251422 3.499407 0.0213917814 0.706613323 0.707276469 0 0
-2.972945 2.252922 3.498407 0.0213917814 0.706613323 0.707276469 0 0
-2.972976 2.251922 3.499407 0.0213917814 0.706613323 0.707276469 0 0
-2.95646 2.251422 3.499407 0.0213933992 0.706623975 0.707265777 0 0
-2.95643 2.252422 3.498407 0.0213933992 0.706623975 0.707265777 0 0
-2.972945 2.252922 3.498407 0.0213933992 0.706623975 0.707265777 0 0
-2.973915 2.253951 3.499018 0.727992291 0.685585315 5.77465327e-07 0 0
-2.972945 2.252922 2.312397 0.727992291 0.685585315 5.77465327e-07 0 0
-2.973915 2.253952 2.311786 0.727992291 0.685585315 5.77465327e-07 0 0
-2.973915 2.253951 3.499018 0.727659995 0.685937994 0 0 0
-2.972945 2.252922 3.498407 0.727659995 0.685937994 0 0 0
-2.972945 2.252922 2.312397 0.727659995 0.685937994 0 0 0
-2.95643 2.252422 2.312397 0.0213930755 0.706613284 -0.707276469 0 0
-2.972976 2.251922 2.311397 0.0213930755 0.706613284 -0.707276469 0 0
-2.972945 2.252922 2.312397 0.0213930755 0.706613284 -0.707276469 0 0
-2.95643 2.252422 2.312397 0.0213600322 0.706978542 -0.706912364 0 0
-2.95646 2.251423 2.311397 0.0213600322 0.706978542 -0.706912364 0 0
-2.972976 2.251922 2.311397 0.0213600322 0.706978542 -0.706912364 0 0
-3.003011 1.258656 2.311396 0.70700167 -0.021378048 -0.706888688 0 0
-2.973958 2.252512 2.310397 0.70700167 -0.021378048 -0.706888688 0 0
-2.972976 2.251922 2.311397 0.70700167 -0.021378048 -0.706888688 0 0
-3.003011 1.258656 2.311396 0.706601345 -0.0213667481 -0.707289192 0 0
-3.004028 1.258126 2.310396 0.706601345 -0.0213667481 -0.707289192 0 0
-2.973958 2.252512 2.310397 0.706601345 -0.0213667481 -0.707289192 0 0
-2.987348 1.229988 2.28274 0.0214040937 0.706977214 0.706912359 0 0
-3.003833 1.231487 2.28174 0.0214040937 0.706977214 0.706912359 0 0
-3.003863 1.230488 2.28274 0.0214040937 0.706977214 0.706912359 0 0
-2.987348 1.229988 2.28274 0.0213506513 0.706625263 0.707265783 0 0
-2.987318 1.230988 2.28174 0.0213506513 0.706625263 0.707265783 0 0
-3.003833 1.231487 2.28174 0.0213506513 0.706625263 0.707265783 0 0
-2.972154 2.279091 2.28174 0.706803156 -0.0213733598 0.70708732 0 0
-3.004794 1.23279 2.28274 0.706803156 -0.0213733598 0.70708732 0 0
-3.003833 1.231487 2.28174 0.706803156 -0.0213733598 0.70708732 0 0
-2.972154 2.279091 2.28174 0.706799519 -0.0213732428 0.707090959 0 0
-2.973192 2.277848 2.28274 0.706799519 -0.0213732428 0.707090959 0 0
-3.004794 1.23279 2.28274 0.706799519 -0.0213732428 0.707090959 0 0
-2.955639 2.278591 2.28174 -0.0214040937 -0.706977214 0.706912359 0 0
-2.972124 2.28009 2.28274 -0.0214040937 -0.706977214 0.706912359 0 0
-2.972154 2.279091 2.28174 -0.0214040937 -0.706977214 0.706912359 0 0
-2.955639 2.278591 2.28174 -0.0213506513 -0.706625263 0.707265783 0 0
-2.955609 2.279591 2.28274 -0.0213506513 -0.706625263 0.707265783 0 0
-2.972124 2.28009 2.28274 -0.0213506513 -0.706625263 0.707265783 0 0
-2.973154 2.279121 2.284311 0.685210282 -0.728345295 0 0 0
-2.972124 2.28009 3.528064 0.685210282 -0.728345295 0 0 0
-2.973154 2.279121 3.526493 0.685210282 -0.728345295 0 0 0
-2.973154 2.279121 2.284311 0.685210282 -0.728345295 0 0 0
-2.972124 2.28009 2.28274 0.685210282 -0.728345295 0 0 0
-2.972124 2.28009 3.528064 0.685210282 -0.728345295 0 0 0
-2.955608 2.279591 3.528064 -0.0213493598 -0.706625302 -0.707265783 0 0
-2.972154 2.27909 3.529064 -0.0213493598 -0.706625302 -0.707265783 0 0
-2.972124 2.28009 3.528064 -0.0213493598 -0.706625302 -0.707265783 0 0
-2.955608 2.279591 3.528064 -0.0213503289 -0.706614593 -0.707276453 0 0
-2.955639 2.278591 3.529064 -0.0213503289 -0.706614593 -0.707276453 0 0
-2.972154 2.27909 3.529064 -0.0213503289 -0.706614593 -0.707276453 0 0
-3.003833 1.231487 3.529064 0.706788854 -0.0213729477 -0.707101629 0 0
-2.973192 2.277848 3.528064 0.706788854 -0.0213729477 -0.707101629 0 0
-2.972154 2.27909 3.529064 0.706788854 -0.0213729477 -0.707101629 0 0
-3.003833 1.231487 3.529064 0.70680316 -0.0213733529 -0.707087316 0 0
-3.004794 1.23279 3.528064 0.70680316 -0.0213733529 -0.707087316 0 0
-2.973192 2.277848 3.528064 0.70680316 -0.0213733529 -0.707087316 0 0
-2.987318 1.230988 3.529064 0.0213613244 0.706978503 -0.706912364 0 0
-3.003863 1.230488 3.528064 0.0213613244 0.706978503 -0.706912364 0 0
-3.003833 1.231487 3.529064 0.0213613244 0.706978503 -0.706912364 0 0
-2.987318 1.230988 3.529064 0.0213933992 0.706623975 -0.707265777 0 0
-2.987348 1.229988 3.528064 0.0213933992 0.706623975 -0.707265777 0 0
-3.003863 1.230488 3.528064 0.0213933992 0.706623975 -0.707265777 0 0
-3.003863 1.230488 2.28274 0.727659995 0.685937994 -0 0 0
-3.004833 1.231517 3.526493 0.727659995 0.685937994 -0 0 0
-3.003863 1.230488 3.528064 0.727659995 0.685937994 -0 0 0
-3.003863 1.230488 2.28274 0.727659995 0.685937994 0 0 0
-3.004833 1.231517 2.284311 0.727659995 0.685937994 0 0 0
-3.004833 1.231517 3.526493 0.727659995 0.685937994 0 0 0
-2.973915 2.253952 2.311786 0.999548642 -0.0300413994 0.000165406161 0 0
-2.973192 2.277848 2.28274 0.999548642 -0.0300413994 0.000165406161 0 0
-2.973154 2.279121 2.284311 0.999548642 -0.0300413994 0.000165406161 0 0
-2.973915 2.253952 2.311786 0.999549212 -0.0300223381 0.000181102029 0 0
-2.973958 2.252512 2.310397 0.999549212 -0.0300223381 0.000181102029 0 0
-2.973192 2.277848 2.28274 0.999549212 -0.0300223381 0.000181102029 0 0
-3.004028 1.258126 2.310396 0.999537538 -0.0304085693 0.000173045957 0 0
-3.004833 1.231517 2.284311 0.999537538 -0.0304085693 0.000173045957 0 0
-3.004794 1.23279 2.28274 0.999537538 -0.0304085693 0.000173045957 0 0
-3.004028 1.258126 2.310396 0.999548307 -0.0300523761 -0.000190634949 0 0
-3.004071 1.256687 2.311785 0.999548307 -0.0300523761 -0.000190634949 0 0
-3.004833 1.231517 2.284311 0.999548307 -0.0300523761 -0.000190634949 0 0
-2.973958 2.252512 3.500407 0.999548673 -0.0300403684 -0.000164569929 0 0
-2.973154 2.279121 3.526493 0.999548673 -0.0300403684 -0.000164569929 0 0
-2.973192 2.277848 3.528064 0.999548673 -0.0300403684 -0.000164569929 0 0
-2.973958 2.252512 3.500407 0.99954887 -0.030033753 -0.000171324044 0 0
-2.973915 2.253951 3.499018 0.99954887 -0.030033753 -0.000171324044 0 0
-2.973154 2.279121 3.526493 0.99954887 -0.030033753 -0.000171324044 0 0
-3.004071 1.256687 3.499018 0.999536888 -0.0304300187 -0.000155649182 0 0
-3.004794 1.23279 3.528064 0.999536888 -0.0304300187 -0.000155649182 0 0
-3.004833 1.231517 3.526493 0.999536888 -0.0304300187 -0.000155649182 0 0
-3.004071 1.256687 3.499018 0.999548881 -0.0300334006 0.000170958691 0 0
-3.004028 1.258126 3.500407 0.999548881 -0.0300334006 0.000170958691 0 0
-3.004794 1.23279 3.528064 0.999548881 -0.0300334006 0.000170958691 0 0
-2.954678 2.277288 3.528064 -0.999543129 0.030224698 4.44412472e-06 0 0
-2.985513 1.257566 3.500407 -0.999543129 0.030224698 4.44412472e-06 0 0
-2.986279 1.23223 3.528064 -0.999543129 0.030224698 4.44412472e-06 0 0
-2.954678 2.277288 3.528064 -0.999543122 0.030224945 -4.67058875e-06 0 0
-2.955444 2.251952 3.500407 -0.999543122 0.030224945 -4.67058875e-06 0 0
-2.985513 1.257566 3.500407 -0.999543122 0.030224945 -4.67058875e-06 0 0
3 0 1 2
3 3 4 5
3 6 7 8
3 9 10 11
3 12 13 14
3 15 16 17
3 18 19 20
3 21 22 23
3 24 25 26
3 27 28 29
3 30 31 32
3 33 34 35
3 36 37 38
3 39 40 41
3 42 43 44
3 45 46 47
3 48 49 50
3 51 52 53
3 54 55 56
3 57 58 59
3 60 61 62
3 63 64 65
3 66 67 68
3 69 70 71
3 72 73 74
3 75 76 77
3 78 79 80
3 81 82 83
3 84 85 86
3 87 88 89
3 90 91 92
3 93 94 95
3 96 97 98
3 99 100 101
3 102 103 104
3 105 106 107
3 108 109 110
3 111 112 113
3 114 115 116
3 117 118 119
3 120 121 122
3 123 124 125
3 126 127 128
3 129 130 131
3 132 133 134
3 135 136 137
3 138 139 140
3 141 142 143
3 144 145 146
3 147 148 149
3 150 151 152
3 153 154 155
3 156 157 158
3 159 160 161
3 162 163 164
3 165 166 167
3 168 169 170
3 171 172 173
3 174 175 176
3 177 178 179
3 180 181 182
3 183 184 185
3 186 187 188
3 189 190 191
3 192 193 194
3 195 196 197
3 198 199 200
3 201 202 203
3 204 205 206
3 207 208 209
3 210 211 212
3 213 214 215
3 216 217 218
3 219 220 221
3 222 223 224
3 225 226 227
3 228 229 230
3 231 232 233
3 234 235 236
3 237 238 239
3 240 241 242
3 243 244 245
3 246 247 248
3 249 250 251
3 252 253 254
3 255 256 257
3 258 259 260
3 261 262 263
3 264 265 266
3 267 268 269
3 270 271 272
3 273 274 275
3 276 277 278
3 279 280 281
3 282 283 284
3 285 286 287
3 288 289 290
3 291 292 293
3 294 295 296
3 297 298 299
3 300 301 302
3 303 304 305
3 306 307 308
3 309 310 311
3 312 313 314
3 315 316 317
3 318 319 320
3 321 322 323
3 324 325 326
3 327 328 329
3 330 331 332
3 333 334 335
3 336 337 338
3 339 340 341
3 342 343 344
3 345 346 347
3 348 349 350
3 351 352 353
3 354 355 356
3 357 358 359
3 360 361 362
3 363 364 365
3 366 367 368
3 369 370 371
3 372 373 374
3 375 376 377
3 378 379 380
3 381 382 383
