ply
format ascii 1.0
element vertex 208
property float x
property float y
property float z
property float nx
property float ny
property float nz
property float u
property float v
element face 360
property list uchar int vertex_indices
end_header
2.438749 0.345777 3.771635 -0.234804897 0.938619575 -0.25270527 0 0
2.438155 0.345279 3.773882 -0.666009241 0.655509095 0.35600494 0 0
2.438749 0.345578 3.774045 -0.242602425 0.852508521 0.463004628 0 0
2.438155 0.345458 3.771718 -0.653590611 0.731589491 -0.193897215 0 0
2.438749 0.343673 3.775517 -0.234809067 0.302311674 0.923835675 0 0
2.438155 0.343568 3.775204 -0.65351709 0.238306232 0.718418787 0 0
2.438155 0.341785 3.77518 -0.565953298 -0.756671259 0.327330826 0 0
2.438749 0.341633 3.77546 -0.472897479 -0.39959787 0.785295814 0 0
2.438155 0.344458 3.770247 -0.564836461 -0.14050907 -0.813152491 0 0
2.438749 0.34461 3.769967 -0.483005666 0.45270531 -0.749508792 0 0
2.437661 0.3441 3.770908 -0.731244154 -0.341220604 -0.590635664 0 0
2.437661 0.344702 3.771915 -0.894178048 0.435489309 -0.103897449 0 0
2.437661 0.342144 3.774518 -0.732142894 -0.680139847 0.0371021737 0 0
2.437661 0.34332 3.774466 -0.894015592 0.151602644 0.421607353 0 0
2.437661 0.344571 3.773498 -0.901758337 0.379824572 0.206313347 0 0
2.437364 0.343663 3.773005 -0.984550356 0.153907872 0.0835042709 0 0
2.437364 0.343733 3.772167 -0.98636201 0.162310204 -0.0273017164 0 0
2.437364 0.343001 3.773517 -0.986374626 0.0659983022 0.150696123 0 0
2.437364 0.342605 3.773667 -0.767590229 -0.621692086 -0.155898015 0 0
2.437364 0.34364 3.771757 -0.767096276 -0.470697715 -0.435897884 0 0
2.437364 0.343123 3.772711 -0.707142932 -0.621637741 -0.336920455 0 0
2.438749 0.339543 3.773254 -0.234710405 -0.938641611 0.252711203 0 0
2.438155 0.340041 3.771006 -0.665953591 -0.655552754 -0.356028651 0 0
2.438749 0.339742 3.770844 -0.242508306 -0.8525292 -0.463015859 0 0
2.438155 0.339862 3.77317 -0.653590611 -0.731589491 0.193897215 0 0
2.438749 0.341647 3.769371 -0.234598398 -0.302297935 -0.92389369 0 0
2.438155 0.341752 3.769684 -0.653308578 -0.238303129 -0.718609435 0 0
2.438155 0.343535 3.769708 -0.565829718 0.75663974 -0.327617207 0 0
2.438749 0.343687 3.769428 -0.472800941 0.399700795 -0.785301563 0 0
2.438155 0.340862 3.774642 -0.564836461 0.14050907 0.813152491 0 0
2.438749 0.34071 3.774921 -0.482928989 -0.452727176 0.749544993 0 0
2.437661 0.34122 3.77398 -0.731272435 0.341087143 0.590677735 0 0
2.437661 0.340618 3.772974 -0.894168754 -0.435484782 0.103996366 0 0
2.437661 0.343176 3.770371 -0.732140174 0.68013732 -0.0372020413 0 0
2.437661 0.342 3.770423 -0.894015592 -0.151602644 -0.421607353 0 0
2.437661 0.340748 3.77139 -0.901758337 -0.379824572 -0.206313347 0 0
2.437364 0.341657 3.771883 -0.984542129 -0.153906586 -0.0836035775 0 0
2.437364 0.341587 3.772721 -0.986345994 -0.162407573 0.0273012731 0 0
2.437364 0.342319 3.771371 -0.986368111 -0.0660978631 -0.150695128 0 0
2.437364 0.342715 3.771221 -0.767549144 0.621739808 0.155909982 0 0
2.437364 0.34168 3.773131 -0.767098938 0.470599348 0.435999396 0 0
2.437364 0.342197 3.772177 -0.707192925 0.621593781 0.336896629 0 0
2.438767 0.342197 3.772177 -0.707098971 0.621699095 0.33689951 0 0
2.438767 0.342605 3.773667 -0.707098971 -0.621699095 -0.33689951 0 0
2.438767 0.343123 3.772711 -0.707098971 -0.621699095 -0.33689951 0 0
2.438767 0.34168 3.773131 -0.707098971 0.621699095 0.33689951 0 0
2.438767 0.342144 3.774518 -0.707098971 -0.621699095 -0.33689951 0 0
2.438767 0.34122 3.77398 -0.707122791 0.621720038 0.336810856 0 0
2.438767 0.341882 3.775002 -0.71103434 -0.612129564 -0.346016711 0 0
2.438767 0.340957 3.774465 -0.710715817 0.624213892 0.32440722 0 0
2.438767 0.34364 3.771757 -0.707119103 -0.621616793 -0.337009104 0 0
2.438767 0.342715 3.771221 -0.707098971 0.621699095 0.33689951 0 0
2.438767 0.3441 3.770908 -0.707142932 -0.621637741 -0.336920455 0 0
2.438767 0.343176 3.770371 -0.707048965 0.621743057 0.336923333 0 0
2.438767 0.344363 3.770423 -0.710760183 -0.624152849 -0.32442747 0 0
2.438767 0.343438 3.769887 -0.711127304 0.612023499 0.346013285 0 0
2.438066 0.34364 3.771757 0 -0.879180267 -0.476489305 0 0
2.438066 0.343123 3.772711 0 -0.879222157 -0.476412006 0 0
2.438066 0.342605 3.773667 0 -0.879222157 -0.476412006 0 0
2.438214 0.3441 3.770908 0.00010000252 -0.879222152 -0.476412003 0 0
2.438214 0.342144 3.774518 0 -0.879222157 -0.476412006 0 0
2.438461 0.341882 3.775002 0.00010000252 -0.879222152 -0.476412003 0 0
2.438461 0.344363 3.770423 0 -0.879222157 -0.476412006 0 0
2.438066 0.34168 3.773131 0 0.879222157 0.476412006 0 0
2.438066 0.342197 3.772177 0 0.879222157 0.476412006 0 0
2.438066 0.342715 3.771221 0 0.879222157 0.476412006 0 0
2.438214 0.34122 3.77398 0 0.879222157 0.476412006 0 0
2.438214 0.343176 3.770371 0 0.879222157 0.476412006 0 0
2.438461 0.343438 3.769887 -9.99977551e-05 0.879180263 0.476489303 0 0
2.438461 0.340957 3.774465 0 0.879222157 0.476412006 0 0
2.439131 0.341633 3.77546 0 -0.27470792 0.961527721 0 0
2.439131 0.34071 3.774921 0 -0.677407411 0.735608048 0 0
2.439131 0.343687 3.769428 0 0.27470792 -0.961527721 0 0
2.439131 0.34461 3.769967 0 0.677407411 -0.735608048 0 0
2.439131 0.339543 3.773254 0 -0.965285748 0.261196143 0 0
2.439131 0.339742 3.770844 0 -0.878731204 -0.47731695 0 0
2.439131 0.341647 3.769371 0 -0.309890913 -0.950772119 0 0
2.439131 0.345777 3.771635 0 0.965285748 -0.261196143 0 0
2.439131 0.345578 3.774045 0 0.878731204 0.47731695 0 0
2.439131 0.343673 3.775517 0 0.309890913 0.950772119 0 0
2.438749 0.343795 3.877072 -0.23509988 0.334499829 -0.912599535 0 0
2.438155 0.345344 3.878776 -0.666017473 0.668817547 -0.330308666 0 0
2.438749 0.345649 3.878624 -0.242615171 0.869754387 -0.429726872 0 0
2.438155 0.343678 3.877382 -0.653807506 0.263203022 -0.709408144 0 0
2.438749 0.345754 3.88103 -0.234692479 0.929170225 0.285590848 0 0
2.438155 0.345438 3.880935 -0.653338747 0.72454297 0.219513019 0 0
2.438155 0.34439 3.882378 -0.565923268 -0.168606932 0.807033182 0 0
2.438749 0.344532 3.882664 -0.472930153 0.411226219 0.779249683 0 0
2.438155 0.3419 3.87735 -0.56512436 -0.745332128 -0.353715247 0 0
2.438749 0.341759 3.877065 -0.483181132 -0.351486275 -0.801868688 0 0
2.437661 0.342234 3.878024 -0.731228822 -0.679326776 -0.061802436 0 0
2.437661 0.343404 3.878112 -0.894147543 0.166108832 -0.41582211 0 0
2.437661 0.344056 3.881703 -0.732115689 -0.361707751 0.57721237 0 0
2.437661 0.344691 3.880713 -0.894007934 0.431903833 0.119201058 0 0
2.437661 0.344622 3.879132 -0.901714022 0.387606027 -0.191502978 0 0
2.437364 0.343696 3.87959 -0.984569961 0.156895213 -0.0774976356 0 0
2.437364 0.343051 3.87905 -0.986390057 0.0707992863 -0.148398504 0 0
2.437364 0.343732 3.880426 -0.986405736 0.161000936 0.0329001913 0 0
2.437364 0.343627 3.880836 -0.7675785 -0.485949698 0.417942743 0 0
2.437364 0.342662 3.87889 -0.767012917 -0.627610569 0.133402247 0 0
2.437364 0.343144 3.879862 -0.707131889 -0.633628574 0.313814152 0 0
2.438749 0.341524 3.8831 -0.234910921 -0.334515552 0.91264243 0 0
2.438155 0.339974 3.881397 -0.666117656 -0.668717725 0.330308755 0 0
2.438749 0.339669 3.881548 -0.242719717 -0.869770654 0.429634901 0 0
2.438155 0.34164 3.882791 -0.653703863 -0.263201556 0.709504193 0 0
2.438749 0.339564 3.879143 -0.234699181 -0.929196757 -0.285499004 0 0
2.438155 0.33988 3.879237 -0.653500699 -0.724400775 -0.219500235 0 0
2.438155 0.340928 3.877795 -0.566104874 0.168601452 -0.806906947 0 0
2.438749 0.340786 3.877509 -0.472910702 -0.411309308 -0.779217634 0 0
2.438155 0.343418 3.882822 -0.564727799 0.7455367 0.353917422 0 0
2.438749 0.343559 3.883108 -0.483006047 0.3514044 0.802010041 0 0
2.437661 0.343084 3.882149 -0.731279864 0.679281296 0.0616983012 0 0
2.437661 0.341915 3.882061 -0.894182438 -0.16599674 0.415791834 0 0
2.437661 0.341262 3.87847 -0.732204342 0.361702145 -0.577103422 0 0
2.437661 0.340627 3.87946 -0.894007934 -0.431903833 -0.119201058 0 0
2.437661 0.340696 3.881041 -0.901766237 -0.387528465 0.19141406 0 0
2.437364 0.341622 3.880583 -0.984569961 -0.156895213 0.0774976356 0 0
2.437364 0.342267 3.881123 -0.986352308 -0.0713037813 0.14840787 0 0
2.437364 0.341586 3.879747 -0.986370705 -0.161195213 -0.0329990199 0 0
2.437364 0.341692 3.879337 -0.767629992 0.485718977 -0.418116336 0 0
2.437364 0.342656 3.881283 -0.767112447 0.627510181 -0.133302163 0 0
2.437364 0.342174 3.880311 -0.707087082 0.633688423 -0.313794267 0 0
2.438767 0.342174 3.880311 -0.707087082 0.633688423 -0.313794267 0 0
2.438767 0.343627 3.880836 -0.707109695 -0.633608687 0.313904304 0 0
2.438767 0.343144 3.879862 -0.707109695 -0.633608687 0.313904304 0 0
2.438767 0.342656 3.881283 -0.707131889 0.633628574 -0.313814152 0 0
2.438767 0.344056 3.881703 -0.707109695 -0.633608687 0.313904304 0 0
2.438767 0.343084 3.882149 -0.707131889 0.633628574 -0.313814152 0 0
2.438767 0.3443 3.882197 -0.711141311 -0.635536919 0.300617463 0 0
2.438767 0.343329 3.882643 -0.710631762 0.624927932 -0.323214446 0 0
2.438767 0.342662 3.87889 -0.707109695 -0.633608687 0.313904304 0 0
2.438767 0.341692 3.879337 -0.707064892 0.633668536 -0.313884414 0 0
2.438767 0.342234 3.878024 -0.707109695 -0.633608687 0.313904304 0 0
2.438767 0.341262 3.87847 -0.707109695 0.633608687 -0.313904304 0 0
2.438767 0.341989 3.87753 -0.710727186 -0.624923904 0.323012355 0 0
2.438767 0.341018 3.877976 -0.711119929 0.635517811 -0.300708427 0 0
2.438066 0.342662 3.87889 0 -0.896120768 0.443810285 0 0
2.438066 0.343144 3.879862 0 -0.896120768 0.443810285 0 0
2.438066 0.343627 3.880836 0 -0.896120768 0.443810285 0 0
2.438214 0.342234 3.878024 0 -0.896120768 0.443810285 0 0
2.438214 0.344056 3.881703 0 -0.896120768 0.443810285 0 0
2.438461 0.3443 3.882197 -0.000200004631 -0.89612075 0.443810277 0 0
2.438461 0.341989 3.87753 0 -0.896160538 0.443729975 0 0
2.438066 0.342656 3.881283 0 0.896120768 -0.443810285 0 0
2.438066 0.342174 3.880311 0 0.896120768 -0.443810285 0 0
2.438066 0.341692 3.879337 0 0.896120768 -0.443810285 0 0
2.438214 0.343084 3.882149 0 0.896120768 -0.443810285 0 0
2.438214 0.341262 3.87847 0 0.896120768 -0.443810285 0 0
2.438461 0.341018 3.877976 -0.000200013507 0.89616052 -0.443729966 0 0
2.438461 0.343329 3.882643 0.000199995754 0.896080976 -0.443890576 0 0
2.439131 0.344532 3.882664 0 0.627398604 0.778698267 0 0
2.439131 0.343559 3.883108 0 0.210498736 0.97759413 0 0
2.439131 0.340786 3.877509 0 -0.627398604 -0.778698267 0 0
2.439131 0.341759 3.877065 0 -0.210498736 -0.97759413 0 0
2.439131 0.341524 3.8831 0 -0.34309964 0.939299014 0 0
2.439131 0.339669 3.881548 0 -0.896576703 0.442888492 0 0
2.439131 0.339564 3.879143 0 -0.955525675 -0.294907924 0 0
2.439131 0.343795 3.877072 0 0.34309964 -0.939299014 0 0
2.439131 0.345649 3.878624 0 0.896576703 -0.442888492 0 0
2.439131 0.345754 3.88103 0 0.955525675 0.294907924 0 0
2.437079 0.342613 3.776233 -0.356290485 0.000599983978 -0.934375048 0 0
2.437989 0.34019 3.774886 -0.189814018 0.694951324 -0.693551221 0 0
2.437079 0.339944 3.775131 -0.356609094 0.661216861 -0.660016831 0 0
2.437989 0.342614 3.775886 -0.189496398 0.000399992396 -0.981881335 0 0
2.437989 0.34019 3.877583 -0.18969127 0.694968015 0.693568079 0 0
2.437079 0.342613 3.876236 -0.355907933 0.000600013374 0.934520831 0 0
2.437079 0.339944 3.877337 -0.356498271 0.661196793 0.660096799 0 0
2.437989 0.342614 3.876582 -0.189303572 0.000400007548 0.981918529 0 0
2.437079 0.34529 3.775131 -0.356384113 -0.657570686 -0.66377041 0 0
2.437989 0.345045 3.774886 -0.189496101 -0.690685789 -0.697885641 0 0
2.437079 0.34529 3.877337 -0.356185858 -0.657573892 0.663873641 0 0
2.437989 0.345045 3.877583 -0.189399691 -0.690698874 0.697898862 0 0
2.437079 0.342613 3.768669 -0.356793535 0.000599989128 0.934183073 0 0
2.437989 0.345045 3.77003 -0.189111501 -0.691642063 0.697042392 0 0
2.437079 0.34529 3.769785 -0.355791246 -0.658583796 0.663083685 0 0
2.437989 0.342614 3.769016 -0.189900626 0.000400001318 0.981803235 0 0
2.437989 0.345045 3.882439 -0.189111501 -0.691642063 -0.697042392 0 0
2.437079 0.342613 3.8838 -0.35661898 0.000600031935 -0.934249722 0 0
2.437079 0.34529 3.882684 -0.355703902 -0.658607225 -0.663107274 0 0
2.437989 0.342614 3.883452 -0.189804229 0.000400008912 -0.981821875 0 0
2.437079 0.339944 3.769785 -0.356188643 0.662178887 0.659278979 0 0
2.437989 0.34019 3.77003 -0.189414782 0.695954311 0.692654053 0 0
2.437079 0.339944 3.882684 -0.356101328 0.66220247 -0.659302459 0 0
2.437989 0.34019 3.882439 -0.189401661 0.695906103 -0.692706075 0 0
2.437079 0.338844 3.772451 -0.355787261 0.934566538 0.000899967777 0 0
2.437989 0.33919 3.772451 -0.18920709 0.981936794 0.000900033725 0 0
2.437079 0.338844 3.880018 -0.355820514 0.934553879 -0.000900051889 0 0
2.437989 0.33919 3.880018 -0.18920709 0.981936794 -0.000900033725 0 0
2.437989 0.346076 3.772451 -0.190708959 -0.981646114 0.00100004698 0 0
2.437079 0.346425 3.772451 -0.358094251 -0.93368501 0.000899985551 0 0
2.437989 0.346076 3.880018 -0.190708959 -0.981646114 -0.00100004698 0 0
2.437079 0.346425 3.880018 -0.358094251 -0.93368501 -0.000899985551 0 0
2.441021 0.345045 3.774886 0 -0.703497629 -0.710697605 0 0
2.441021 0.346076 3.772451 0 -0.9999995 0.0009999995 0 0
2.441021 0.345045 3.877583 0 -0.703497629 0.710697605 0 0
2.441021 0.346076 3.880018 0 -0.9999995 -0.0009999995 0 0
2.441021 0.345045 3.77003 0 -0.704501994 0.709702008 0 0
2.441021 0.345045 3.882439 0 -0.704501994 -0.709702008 0 0
2.441021 0.33919 3.772451 0 0.9999995 0.0009999995 0 0
2.441021 0.34019 3.774886 0 0.707806441 -0.706406428 0 0
2.441021 0.33919 3.880018 0 0.9999995 -0.0009999995 0 0
2.441021 0.34019 3.877583 0 0.707806441 0.706406428 0 0
2.441021 0.34019 3.77003 0 0.708704982 0.70550496 0 0
2.441021 0.34019 3.882439 0 0.708704982 -0.70550496 0 0
2.441021 0.342614 3.769016 0 0.000499999938 0.999999875 0 0
2.441021 0.342614 3.883452 0 0.000499999938 -0.999999875 0 0
2.441021 0.342614 3.775886 0 0.000499999938 -0.999999875 0 0
2.441021 0.342614 3.876582 0 0.000499999938 0.999999875 0 0
3 0 1 2
3 0 3 1
3 4 1 5
3 4 2 1
3 4 6 7
3 4 5 6
3 8 0 9
3 8 3 0
3 3 10 11
3 3 8 10
3 5 12 6
3 5 13 12
3 5 14 13
3 5 1 14
3 3 14 1
3 3 11 14
3 11 15 14
3 11 16 15
3 13 15 17
3 13 14 15
3 13 18 12
3 13 17 18
3 11 19 16
3 11 10 19
3 16 19 20
3 17 20 18
3 17 15 20
3 16 20 15
3 21 22 23
3 21 24 22
3 25 22 26
3 25 23 22
3 25 27 28
3 25 26 27
3 21 29 24
3 21 30 29
3 24 31 32
3 24 29 31
3 26 33 27
3 26 34 33
3 26 35 34
3 26 22 35
3 24 35 22
3 24 32 35
3 32 36 35
3 32 37 36
3 34 36 38
3 34 35 36
3 34 39 33
3 34 38 39
3 32 40 37
3 32 31 40
3 37 40 41
3 38 41 39
3 38 36 41
3 37 41 36
3 42 43 44
3 42 45 43
3 45 46 43
3 45 47 46
3 47 48 46
3 47 49 48
3 42 50 51
3 42 44 50
3 51 52 53
3 51 50 52
3 53 54 55
3 53 52 54
3 20 56 57
3 20 19 56
3 57 50 44
3 57 56 50
3 18 57 58
3 18 20 57
3 58 44 43
3 58 57 44
3 19 59 56
3 19 10 59
3 56 52 50
3 56 59 52
3 12 58 60
3 12 18 58
3 60 43 46
3 60 58 43
3 6 60 61
3 6 12 60
3 61 46 48
3 61 60 46
3 10 62 59
3 10 8 62
3 59 54 52
3 59 62 54
3 41 63 64
3 41 40 63
3 64 45 42
3 64 63 45
3 39 64 65
3 39 41 64
3 65 42 51
3 65 64 42
3 40 66 63
3 40 31 66
3 63 47 45
3 63 66 47
3 33 65 67
3 33 39 65
3 67 51 53
3 67 65 51
3 27 67 68
3 27 33 67
3 68 53 55
3 68 67 53
3 31 69 66
3 31 29 69
3 66 49 47
3 66 69 49
3 9 62 8
3 9 54 62
3 28 68 55
3 28 27 68
3 30 69 29
3 30 49 69
3 9 55 54
3 9 28 55
3 7 49 30
3 7 48 49
3 7 61 48
3 7 6 61
3 30 70 7
3 30 71 70
3 9 72 28
3 9 73 72
3 23 74 21
3 23 75 74
3 25 75 23
3 25 76 75
3 28 76 25
3 28 72 76
3 21 71 30
3 21 74 71
3 2 77 0
3 2 78 77
3 4 78 2
3 4 79 78
3 7 79 4
3 7 70 79
3 0 73 9
3 0 77 73
3 80 81 82
3 80 83 81
3 84 81 85
3 84 82 81
3 84 86 87
3 84 85 86
3 88 80 89
3 88 83 80
3 83 90 91
3 83 88 90
3 85 92 86
3 85 93 92
3 85 94 93
3 85 81 94
3 83 94 81
3 83 91 94
3 91 95 94
3 91 96 95
3 93 95 97
3 93 94 95
3 93 98 92
3 93 97 98
3 91 99 96
3 91 90 99
3 96 99 100
3 97 100 98
3 97 95 100
3 96 100 95
3 101 102 103
3 101 104 102
3 105 102 106
3 105 103 102
3 105 107 108
3 105 106 107
3 101 109 104
3 101 110 109
3 104 111 112
3 104 109 111
3 106 113 107
3 106 114 113
3 106 115 114
3 106 102 115
3 104 115 102
3 104 112 115
3 112 116 115
3 112 117 116
3 114 116 118
3 114 115 116
3 114 119 113
3 114 118 119
3 112 120 117
3 112 111 120
3 117 120 121
3 118 121 119
3 118 116 121
3 117 121 116
3 122 123 124
3 122 125 123
3 125 126 123
3 125 127 126
3 127 128 126
3 127 129 128
3 122 130 131
3 122 124 130
3 131 132 133
3 131 130 132
3 133 134 135
3 133 132 134
3 100 136 137
3 100 99 136
3 137 130 124
3 137 136 130
3 98 137 138
3 98 100 137
3 138 124 123
3 138 137 124
3 99 139 136
3 99 90 139
3 136 132 130
3 136 139 132
3 92 138 140
3 92 98 138
3 140 123 126
3 140 138 123
3 86 140 141
3 86 92 140
3 141 126 128
3 141 140 126
3 90 142 139
3 90 88 142
3 139 134 132
3 139 142 134
3 121 143 144
3 121 120 143
3 144 125 122
3 144 143 125
3 119 144 145
3 119 121 144
3 145 122 131
3 145 144 122
3 120 146 143
3 120 111 146
3 143 127 125
3 143 146 127
3 113 145 147
3 113 119 145
3 147 131 133
3 147 145 131
3 107 147 148
3 107 113 147
3 148 133 135
3 148 147 133
3 111 149 146
3 111 109 149
3 146 129 127
3 146 149 129
3 89 142 88
3 89 134 142
3 108 148 135
3 108 107 148
3 110 149 109
3 110 129 149
3 89 135 134
3 89 108 135
3 87 129 110
3 87 128 129
3 87 141 128
3 87 86 141
3 110 150 87
3 110 151 150
3 89 152 108
3 89 153 152
3 103 154 101
3 103 155 154
3 105 155 103
3 105 156 155
3 108 156 105
3 108 152 156
3 101 151 110
3 101 154 151
3 82 157 80
3 82 158 157
3 84 158 82
3 84 159 158
3 87 159 84
3 87 150 159
3 80 153 89
3 80 157 153
3 160 161 162
3 160 163 161
3 164 165 166
3 164 167 165
3 168 163 160
3 168 169 163
3 167 170 165
3 167 171 170
3 172 173 174
3 172 175 173
3 176 177 178
3 176 179 177
3 180 175 172
3 180 181 175
3 179 182 177
3 179 183 182
3 184 181 180
3 184 185 181
3 183 186 182
3 183 187 186
3 162 185 184
3 162 161 185
3 187 166 186
3 187 164 166
3 174 188 189
3 174 173 188
3 190 178 191
3 190 176 178
3 189 169 168
3 189 188 169
3 171 191 170
3 171 190 191
3 188 192 169
3 188 193 192
3 194 190 171
3 194 195 190
3 173 193 188
3 173 196 193
3 195 176 190
3 195 197 176
3 161 198 185
3 161 199 198
3 200 164 187
3 200 201 164
3 185 202 181
3 185 198 202
3 203 187 183
3 203 200 187
3 181 204 175
3 181 202 204
3 205 183 179
3 205 203 183
3 175 196 173
3 175 204 196
3 197 179 176
3 197 205 179
3 169 206 163
3 169 192 206
3 207 171 167
3 207 194 171
3 163 199 161
3 163 206 199
3 201 167 164
3 201 207 167
