ply
format ascii 1.0
element vertex 6
property float x
property float y
property float z
property float nx
property float ny
property float nz
property float u
property float v
element face 2
property list uchar int vertex_indices
end_header
2.422371 2.11979 1.549476 -0.999768217 -0.0215293123 0 0.983316 0.996099
2.434514 1.555899 1.934237 -0.999768217 -0.0215293123 0 0.012264 0.017729
2.422371 2.11979 1.934237 -0.999768217 -0.0215293123 0 0.012264 0.996099
2.422371 2.11979 1.549476 -0.999768217 -0.0215293123 0 0.983316 0.996099
2.434514 1.555899 1.549476 -0.999768217 -0.0215293123 0 0.983316 0.017729
2.434514 1.555899 1.934237 -0.999768217 -0.0215293123 0 0.012264 0.017729
3 0 1 2
3 3 4 5
