ply
format ascii 1.0
element vertex 384
property float x
property float y
property float z
property float nx
property float ny
property float nz
property float u
property float v
element face 128
property list uchar int vertex_indices
end_header
2.416366 2.153147 1.964873 0 0 -1 0 0
2.439088 1.523165 1.964873 0 0 -1 0 0
2.429936 1.522967 1.964873 0 0 -1 0 0
2.416366 2.153147 1.964873 0 0 -1 0 0
2.425517 2.153344 1.964873 0 0 -1 0 0
2.439088 1.523165 1.964873 0 0 -1 0 0
2.429936 1.522967 1.518841 -3.4141636e-08 1.58611296e-06 1 0 0
2.425517 2.153344 1.51884 -3.4141636e-08 1.58611296e-06 1 0 0
2.416365 2.153147 1.51884 -3.4141636e-08 1.58611296e-06 1 0 0
2.429936 1.522967 1.518841 -3.4141636e-08 1.58611296e-06 1 0 0
2.439088 1.523164 1.518841 -3.4141636e-08 1.58611296e-06 1 0 0
2.425517 2.153344 1.51884 -3.4141636e-08 1.58611296e-06 1 0 0
2.416344 2.154147 1.51984 0.0215203646 -0.99976841 0 0 0
2.425496 2.154344 1.963873 0.0215203646 -0.99976841 0 0 0
2.416344 2.154147 1.963873 0.0215203646 -0.99976841 0 0 0
2.416344 2.154147 1.51984 0.0215203646 -0.99976841 0 0 0
2.425496 2.154344 1.51984 0.0215203646 -0.99976841 0 0 0
2.425496 2.154344 1.963873 0.0215203646 -0.99976841 0 0 0
2.429957 1.521968 1.963873 -0.0215203646 0.99976841 0 0 0
2.439109 1.522165 1.51984 -0.0215203646 0.99976841 0 0 0
2.429957 1.521968 1.51984 -0.0215203646 0.99976841 0 0 0
2.429957 1.521968 1.963873 -0.0215203646 0.99976841 0 0 0
2.439109 1.522165 1.963873 -0.0215203646 0.99976841 0 0 0
2.439109 1.522165 1.51984 -0.0215203646 0.99976841 0 0 0
2.41748 2.119283 1.550878 0 0 -1 0 0
2.437973 1.557028 1.550878 0 0 -1 0 0
2.429592 1.556848 1.550878 0 0 -1 0 0
2.41748 2.119283 1.550878 0 0 -1 0 0
2.425861 2.119464 1.550878 0 0 -1 0 0
2.437973 1.557028 1.550878 0 0 -1 0 0
2.438998 1.556448 1.549878 -0.999695949 -0.0215272043 -0.0120245533 0 0
2.426538 2.151853 1.51984 -0.999695949 -0.0215272043 -0.0120245533 0 0
2.440043 1.524698 1.51984 -0.999695949 -0.0215272043 -0.0120245533 0 0
2.438998 1.556448 1.549878 -0.999695608 -0.0215285055 -0.0120504867 0 0
2.42686 2.120087 1.549878 -0.999695608 -0.0215285055 -0.0120504867 0 0
2.426538 2.151853 1.51984 -0.999695608 -0.0215285055 -0.0120504867 0 0
2.429592 1.556848 1.932836 -3.83803085e-08 1.77715672e-06 1 0 0
2.425861 2.119464 1.932835 -3.83803085e-08 1.77715672e-06 1 0 0
2.41748 2.119283 1.932835 -3.83803085e-08 1.77715672e-06 1 0 0
2.429592 1.556848 1.932836 -3.81682928e-08 1.77715812e-06 1 0 0
2.437973 1.557028 1.932836 -3.81682928e-08 1.77715812e-06 1 0 0
2.425861 2.119464 1.932835 -3.81682928e-08 1.77715812e-06 1 0 0
2.429613 1.555848 1.551878 0.0215914336 -0.999766878 0 0 0
2.437994 1.556029 1.931836 0.0215914336 -0.999766878 0 0 0
2.429613 1.555848 1.931836 0.0215914336 -0.999766878 0 0 0
2.429613 1.555848 1.551878 0.0215914336 -0.999766878 0 0 0
2.437994 1.556029 1.551878 0.0215914336 -0.999766878 0 0 0
2.437994 1.556029 1.931836 0.0215914336 -0.999766878 0 0 0
2.417459 2.120283 1.931835 -0.021472199 0.999769446 0 0 0
2.42584 2.120463 1.551877 -0.021472199 0.999769446 0 0 0
2.417459 2.120283 1.551877 -0.021472199 0.999769446 0 0 0
2.417459 2.120283 1.931835 -0.0215914336 0.999766878 -2.63125629e-06 0 0
2.42584 2.120464 1.931835 -0.0215914336 0.999766878 -2.63125629e-06 0 0
2.42584 2.120463 1.551877 -0.0215914336 0.999766878 -2.63125629e-06 0 0
2.415377 2.153126 1.962551 0.999458572 0.0329023079 0 0 0
2.416426 2.121261 1.551308 0.999458572 0.0329023079 0 0 0
2.415377 2.153126 1.521162 0.999458572 0.0329023079 0 0 0
2.415377 2.153126 1.962551 0.999458572 0.0329023079 0 0 0
2.416426 2.121261 1.932405 0.999458572 0.0329023079 0 0 0
2.416426 2.121261 1.551308 0.999458572 0.0329023079 0 0 0
2.428947 1.522946 1.521162 0.999948681 0.0101309063 -0 0 0
2.428624 1.554827 1.932405 0.999948681 0.0101309063 -0 0 0
2.428947 1.522946 1.962551 0.999948681 0.0101309063 -0 0 0
2.428947 1.522946 1.521162 0.999948681 0.0101309063 0 0 0
2.428624 1.554827 1.551308 0.999948681 0.0101309063 0 0 0
2.428624 1.554827 1.932405 0.999948681 0.0101309063 0 0 0
2.428916 1.524459 1.963873 0.999695525 0.0215288235 0.0120568248 0 0
2.416456 2.119864 1.933835 0.999695525 0.0215288235 0.0120568248 0 0
2.41541 2.151613 1.963873 0.999695525 0.0215288235 0.0120568248 0 0
2.428916 1.524459 1.963873 0.999696074 0.021526725 0.0120150011 0 0
2.428593 1.556224 1.933836 0.999696074 0.021526725 0.0120150011 0 0
2.416456 2.119864 1.933835 0.999696074 0.021526725 0.0120150011 0 0
2.439027 1.555051 1.932405 -0.999458572 -0.0329023079 0 0 0
2.440076 1.523186 1.521162 -0.999458572 -0.0329023079 0 0 0
2.440076 1.523186 1.962551 -0.999458572 -0.0329023079 0 0 0
2.439027 1.555051 1.932405 -0.999458572 -0.0329023079 -0 0 0
2.439027 1.555051 1.551308 -0.999458572 -0.0329023079 -0 0 0
2.440076 1.523186 1.521162 -0.999458572 -0.0329023079 -0 0 0
2.426829 2.121485 1.551308 -0.999948681 -0.0101309063 0 0 0
2.426506 2.153366 1.962551 -0.999948681 -0.0101309063 0 0 0
2.426506 2.153366 1.521162 -0.999948681 -0.0101309063 0 0 0
2.426829 2.121485 1.551308 -0.999948338 -0.0101647489 2.6238683e-06 0 0
2.42683 2.121485 1.932405 -0.999948338 -0.0101647489 2.6238683e-06 0 0
2.426506 2.153366 1.962551 -0.999948338 -0.0101647489 2.6238683e-06 0 0
2.42686 2.120088 1.933835 -0.999695662 -0.0215271981 0.0120483868 0 0
2.440043 1.524698 1.963873 -0.999695662 -0.0215271981 0.0120483868 0 0
2.426538 2.151853 1.963873 -0.999695662 -0.0215271981 0.0120483868 0 0
2.42686 2.120088 1.933835 -0.999695933 -0.0215284529 0.0120236332 0 0
2.438998 1.556448 1.933836 -0.999695933 -0.0215284529 0.0120236332 0 0
2.440043 1.524698 1.963873 -0.999695933 -0.0215284529 0.0120236332 0 0
2.416344 2.154147 1.51984 0.88125919 -0.324820869 0.343327312 0 0
2.41541 2.151613 1.51984 0.88125919 -0.324820869 0.343327312 0 0
2.416365 2.153147 1.51884 0.88125919 -0.324820869 0.343327312 0 0
2.416344 2.154147 1.51984 0.865326274 -0.318948201 0.386629648 0 0
2.415377 2.153126 1.521162 0.865326274 -0.318948201 0.386629648 0 0
2.41541 2.151613 1.51984 0.865326274 -0.318948201 0.386629648 0 0
2.429936 1.522967 1.518841 0.848598607 0.382898683 0.365060273 0 0
2.428947 1.522946 1.521162 0.848598607 0.382898683 0.365060273 0 0
2.429957 1.521968 1.51984 0.848598607 0.382898683 0.365060273 0 0
2.429936 1.522967 1.518841 0.863417153 0.34185873 0.371003273 0 0
2.428916 1.524459 1.51984 0.863417153 0.34185873 0.371003273 0 0
2.428947 1.522946 1.521162 0.863417153 0.34185873 0.371003273 0 0
2.428947 1.522946 1.962551 0.848578476 0.383099545 -0.364896298 0 0
2.429936 1.522967 1.964873 0.848578476 0.383099545 -0.364896298 0 0
2.429957 1.521968 1.963873 0.848578476 0.383099545 -0.364896298 0 0
2.428947 1.522946 1.962551 0.863510273 0.341754866 -0.370882219 0 0
2.428916 1.524459 1.963873 0.863510273 0.341754866 -0.370882219 0 0
2.429936 1.522967 1.964873 0.863510273 0.341754866 -0.370882219 0 0
2.416366 2.153147 1.964873 0.864324387 -0.345993885 -0.365009021 0 0
2.415377 2.153126 1.962551 0.864324387 -0.345993885 -0.365009021 0 0
2.416344 2.154147 1.963873 0.864324387 -0.345993885 -0.365009021 0 0
2.416366 2.153147 1.964873 0.877203006 -0.304915387 -0.37086587 0 0
2.41541 2.151613 1.963873 0.877203006 -0.304915387 -0.37086587 0 0
2.415377 2.153126 1.962551 0.877203006 -0.304915387 -0.37086587 0 0
2.416456 2.119864 1.933835 0.729630462 0.496748952 0.469978582 0 0
2.417459 2.120283 1.931835 0.729630462 0.496748952 0.469978582 0 0
2.416426 2.121261 1.932405 0.729630462 0.496748952 0.469978582 0 0
2.416456 2.119864 1.933835 0.735920345 0.486424264 0.470969936 0 0
2.41748 2.119283 1.932835 0.735920345 0.486424264 0.470969936 0 0
2.417459 2.120283 1.931835 0.735920345 0.486424264 0.470969936 0 0
2.428593 1.556224 1.933836 0.755699221 -0.455094728 0.470964411 0 0
2.429613 1.555848 1.931836 0.755699221 -0.455094728 0.470964411 0 0
2.429592 1.556848 1.932836 0.755699221 -0.455094728 0.470964411 0 0
2.428593 1.556224 1.933836 0.750315952 -0.464841583 0.470051353 0 0
2.428624 1.554827 1.932405 0.750315952 -0.464841583 0.470051353 0 0
2.429613 1.555848 1.931836 0.750315952 -0.464841583 0.470051353 0 0
2.428593 1.556224 1.549878 0.75048889 -0.464531974 -0.470081345 0 0
2.429613 1.555848 1.551878 0.75048889 -0.464531974 -0.470081345 0 0
2.428624 1.554827 1.551308 0.75048889 -0.464531974 -0.470081345 0 0
2.428593 1.556224 1.549878 0.755699221 -0.455094728 -0.470964411 0 0
2.429592 1.556848 1.550878 0.755699221 -0.455094728 -0.470964411 0 0
2.429613 1.555848 1.551878 0.755699221 -0.455094728 -0.470964411 0 0
2.416426 2.121261 1.551308 0.734586464 0.492819989 -0.466380945 0 0
2.41748 2.119283 1.550878 0.734586464 0.492819989 -0.466380945 0 0
2.416456 2.119863 1.549878 0.734586464 0.492819989 -0.466380945 0 0
2.416426 2.121261 1.551308 0.728395272 0.49183225 -0.477012962 0 0
2.417459 2.120283 1.551877 0.728395272 0.49183225 -0.477012962 0 0
2.41748 2.119283 1.550878 0.728395272 0.49183225 -0.477012962 0 0
2.425861 2.119464 1.550878 -0.754746332 0.46083946 -0.466888602 0 0
2.426829 2.121485 1.551308 -0.754746332 0.46083946 -0.466888602 0 0
2.42686 2.120087 1.549878 -0.754746332 0.46083946 -0.466888602 0 0
2.425861 2.119464 1.550878 -0.749424999 0.460224689 -0.475978368 0 0
2.42584 2.120463 1.551877 -0.749424999 0.460224689 -0.475978368 0 0
2.426829 2.121485 1.551308 -0.749424999 0.460224689 -0.475978368 0 0
2.437994 1.556029 1.551878 -0.729587605 -0.4965303 -0.470276076 0 0
2.438998 1.556448 1.549878 -0.729587605 -0.4965303 -0.470276076 0 0
2.439027 1.555051 1.551308 -0.729587605 -0.4965303 -0.470276076 0 0
2.437994 1.556029 1.551878 -0.735327001 -0.48711339 -0.471184409 0 0
2.437973 1.557028 1.550878 -0.735327001 -0.48711339 -0.471184409 0 0
2.438998 1.556448 1.549878 -0.735327001 -0.48711339 -0.471184409 0 0
2.437994 1.556029 1.931836 -0.735327001 -0.48711339 0.471184409 0 0
2.438998 1.556448 1.933836 -0.735327001 -0.48711339 0.471184409 0 0
2.437973 1.557028 1.932836 -0.735327001 -0.48711339 0.471184409 0 0
2.437994 1.556029 1.931836 -0.729401527 -0.496832165 0.470245905 0 0
2.439027 1.555051 1.932405 -0.729401527 -0.496832165 0.470245905 0 0
2.438998 1.556448 1.933836 -0.729401527 -0.496832165 0.470245905 0 0
2.42584 2.120464 1.931835 -0.750212832 0.46502609 0.470033449 0 0
2.42686 2.120088 1.933835 -0.750212832 0.46502609 0.470033449 0 0
2.42683 2.121485 1.932405 -0.750212832 0.46502609 0.470033449 0 0
2.42584 2.120464 1.931835 -0.755699221 0.455094728 0.470964411 0 0
2.425861 2.119464 1.932835 -0.755699221 0.455094728 0.470964411 0 0
2.42686 2.120088 1.933835 -0.755699221 0.455094728 0.470964411 0 0
2.425517 2.153344 1.964873 -0.863252786 -0.342357915 -0.370925444 0 0
2.426506 2.153366 1.962551 -0.863252786 -0.342357915 -0.370925444 0 0
2.426538 2.151853 1.963873 -0.863252786 -0.342357915 -0.370925444 0 0
2.425517 2.153344 1.964873 -0.848599589 -0.382888872 -0.365068281 0 0
2.425496 2.154344 1.963873 -0.848599589 -0.382888872 -0.365068281 0 0
2.426506 2.153366 1.962551 -0.848599589 -0.382888872 -0.365068281 0 0
2.439088 1.523165 1.964873 -0.864297209 0.346470671 -0.364620912 0 0
2.440076 1.523186 1.962551 -0.864297209 0.346470671 -0.364620912 0 0
2.439109 1.522165 1.963873 -0.864297209 0.346470671 -0.364620912 0 0
2.439088 1.523165 1.964873 -0.877359642 0.304842177 -0.370555401 0 0
2.440043 1.524698 1.963873 -0.877359642 0.304842177 -0.370555401 0 0
2.440076 1.523186 1.962551 -0.877359642 0.304842177 -0.370555401 0 0
2.439088 1.523164 1.518841 -0.877343947 0.304861274 0.370576851 0 0
2.440076 1.523186 1.521162 -0.877343947 0.304861274 0.370576851 0 0
2.440043 1.524698 1.51984 -0.877343947 0.304861274 0.370576851 0 0
2.439088 1.523164 1.518841 -0.864297783 0.34646065 0.364629072 0 0
2.439109 1.522165 1.51984 -0.864297783 0.34646065 0.364629072 0 0
2.440076 1.523186 1.521162 -0.864297783 0.34646065 0.364629072 0 0
2.425496 2.154344 1.51984 -0.850768722 -0.355881577 0.386705164 0 0
2.426538 2.151853 1.51984 -0.850768722 -0.355881577 0.386705164 0 0
2.426506 2.153366 1.521162 -0.850768722 -0.355881577 0.386705164 0 0
2.425496 2.154344 1.51984 -0.866188325 -0.362331688 0.344141733 0 0
2.425517 2.153344 1.51884 -0.866188325 -0.362331688 0.344141733 0 0
2.426538 2.151853 1.51984 -0.866188325 -0.362331688 0.344141733 0 0
2.429957 1.521968 1.51984 0.695634667 0.71839572 -0 0 0
2.428947 1.522946 1.962551 0.695634667 0.71839572 -0 0 0
2.429957 1.521968 1.963873 0.695634667 0.71839572 -0 0 0
2.429957 1.521968 1.51984 0.695634667 0.71839572 0 0 0
2.428947 1.522946 1.521162 0.695634667 0.71839572 0 0 0
2.428947 1.522946 1.962551 0.695634667 0.71839572 0 0 0
2.416365 2.153147 1.51884 0.71097429 0.0153120301 0.703051278 0 0
2.428916 1.524459 1.51984 0.71097429 0.0153120301 0.703051278 0 0
2.429936 1.522967 1.518841 0.71097429 0.0153120301 0.703051278 0 0
2.416365 2.153147 1.51884 0.711266073 0.0153173855 0.702755969 0 0
2.41541 2.151613 1.51984 0.711266073 0.0153173855 0.702755969 0 0
2.428916 1.524459 1.51984 0.711266073 0.0153173855 0.702755969 0 0
2.415377 2.153126 1.521162 0.726046108 -0.68764602 0 0 0
2.416344 2.154147 1.963873 0.726046108 -0.68764602 0 0 0
2.415377 2.153126 1.962551 0.726046108 -0.68764602 0 0 0
2.415377 2.153126 1.521162 0.726046108 -0.68764602 0 0 0
2.416344 2.154147 1.51984 0.726046108 -0.68764602 0 0 0
2.416344 2.154147 1.963873 0.726046108 -0.68764602 0 0 0
2.429936 1.522967 1.964873 0.710911658 0.0153084376 -0.703114689 0 0
2.41541 2.151613 1.963873 0.710911658 0.0153084376 -0.703114689 0 0
2.416366 2.153147 1.964873 0.710911658 0.0153084376 -0.703114689 0 0
2.429936 1.522967 1.964873 0.711325114 0.015318657 -0.70269618 0 0
2.428916 1.524459 1.963873 0.711325114 0.015318657 -0.70269618 0 0
2.41541 2.151613 1.963873 0.711325114 0.015318657 -0.70269618 0 0
2.415377 2.153126 1.962551 0.999607345 0.0274119626 0.00580859539 0 0
2.416456 2.119864 1.933835 0.999607345 0.0274119626 0.00580859539 0 0
2.416426 2.121261 1.932405 0.999607345 0.0274119626 0.00580859539 0 0
2.415377 2.153126 1.962551 0.999612752 0.0271465975 0.00611617335 0 0
2.41541 2.151613 1.963873 0.999612752 0.0271465975 0.00611617335 0 0
2.416456 2.119864 1.933835 0.999612752 0.0271465975 0.00611617335 0 0
2.41748 2.119283 1.932835 0.702642253 0.0151326186 0.711382364 0 0
2.428593 1.556224 1.933836 0.702642253 0.0151326186 0.711382364 0 0
2.429592 1.556848 1.932836 0.702642253 0.0151326186 0.711382364 0 0
2.41748 2.119283 1.932835 0.702976274 0.0151386241 0.711052164 0 0
2.416456 2.119864 1.933835 0.702976274 0.0151386241 0.711052164 0 0
2.428593 1.556224 1.933836 0.702976274 0.0151386241 0.711052164 0 0
2.428916 1.524459 1.963873 0.999854382 0.0159368391 0.00610183202 0 0
2.428624 1.554827 1.932405 0.999854382 0.0159368391 0.00610183202 0 0
2.428593 1.556224 1.933836 0.999854382 0.0159368391 0.00610183202 0 0
2.428916 1.524459 1.963873 0.999863469 0.0155125758 0.00569231499 0 0
2.428947 1.522946 1.962551 0.999863469 0.0155125758 0.00569231499 0 0
2.428624 1.554827 1.932405 0.999863469 0.0155125758 0.00569231499 0 0
2.41541 2.151613 1.51984 0.999607123 0.0274153121 -0.00583104376 0 0
2.416426 2.121261 1.551308 0.999607123 0.0274153121 -0.00583104376 0 0
2.416456 2.119863 1.549878 0.999607123 0.0274153121 -0.00583104376 0 0
2.41541 2.151613 1.51984 0.999613169 0.0271343931 -0.00610219528 0 0
2.415377 2.153126 1.521162 0.999613169 0.0271343931 -0.00610219528 0 0
2.416426 2.121261 1.551308 0.999613169 0.0271343931 -0.00610219528 0 0
2.416426 2.121261 1.932405 0.687510629 0.726174315 0 0 0
2.417459 2.120283 1.551877 0.687510629 0.726174315 0 0 0
2.416426 2.121261 1.551308 0.687510629 0.726174315 0 0 0
2.416426 2.121261 1.932405 0.687510629 0.726174315 0 0 0
2.417459 2.120283 1.931835 0.687510629 0.726174315 0 0 0
2.417459 2.120283 1.551877 0.687510629 0.726174315 0 0 0
2.428947 1.522946 1.521162 0.999854527 0.0159196407 -0.00612290366 0 0
2.428593 1.556224 1.549878 0.999854527 0.0159196407 -0.00612290366 0 0
2.428624 1.554827 1.551308 0.999854527 0.0159196407 -0.00612290366 0 0
2.428947 1.522946 1.521162 0.999863308 0.0155304843 -0.00567181524 0 0
2.428916 1.524459 1.51984 0.999863308 0.0155304843 -0.00567181524 0 0
2.428593 1.556224 1.549878 0.999863308 0.0155304843 -0.00567181524 0 0
2.429592 1.556848 1.550878 0.702968686 0.0151383835 -0.711059672 0 0
2.416456 2.119863 1.549878 0.702968686 0.0151383835 -0.711059672 0 0
2.41748 2.119283 1.550878 0.702968686 0.0151383835 -0.711059672 0 0
2.429592 1.556848 1.550878 0.702643034 0.0151302137 -0.711381644 0 0
2.428593 1.556224 1.549878 0.702643034 0.0151302137 -0.711381644 0 0
2.416456 2.119863 1.549878 0.702643034 0.0151302137 -0.711381644 0 0
2.429613 1.555848 1.931836 0.718273182 -0.695761192 0 0 0
2.428624 1.554827 1.551308 0.718273182 -0.695761192 0 0 0
2.429613 1.555848 1.551878 0.718273182 -0.695761192 0 0 0
2.429613 1.555848 1.931836 0.718273182 -0.695761192 0 0 0
2.428624 1.554827 1.932405 0.718273182 -0.695761192 0 0 0
2.428624 1.554827 1.551308 0.718273182 -0.695761192 0 0 0
2.429592 1.556848 1.932836 0.0151890556 -0.707219307 0.706831058 0 0
2.437994 1.556029 1.931836 0.0151890556 -0.707219307 0.706831058 0 0
2.437973 1.557028 1.932836 0.0151890556 -0.707219307 0.706831058 0 0
2.429592 1.556848 1.932836 0.0152657675 -0.706864074 0.707184655 0 0
2.429613 1.555848 1.931836 0.0152657675 -0.706864074 0.707184655 0 0
2.437994 1.556029 1.931836 0.0152657675 -0.706864074 0.707184655 0 0
2.437994 1.556029 1.551878 -0.687510629 -0.726174315 0 0 0
2.439027 1.555051 1.932405 -0.687510629 -0.726174315 0 0 0
2.437994 1.556029 1.931836 -0.687510629 -0.726174315 0 0 0
2.437994 1.556029 1.551878 -0.687510629 -0.726174315 0 0 0
2.439027 1.555051 1.551308 -0.687510629 -0.726174315 0 0 0
2.439027 1.555051 1.932405 -0.687510629 -0.726174315 0 0 0
2.429613 1.555848 1.551878 0.0152734005 -0.707217512 -0.706831036 0 0
2.437973 1.557028 1.550878 0.0152734005 -0.707217512 -0.706831036 0 0
2.437994 1.556029 1.551878 0.0152734005 -0.707217512 -0.706831036 0 0
2.429613 1.555848 1.551878 0.0151814648 -0.706865867 -0.707184678 0 0
2.429592 1.556848 1.550878 0.0151814648 -0.706865867 -0.707184678 0 0
2.437973 1.557028 1.550878 0.0151814648 -0.706865867 -0.707184678 0 0
2.425861 2.119464 1.550878 -0.702617387 -0.0151307914 -0.711406963 0 0
2.438998 1.556448 1.549878 -0.702617387 -0.0151307914 -0.711406963 0 0
2.437973 1.557028 1.550878 -0.702617387 -0.0151307914 -0.711406963 0 0
2.425861 2.119464 1.550878 -0.702650195 -0.0151316145 -0.711374541 0 0
2.42686 2.120087 1.549878 -0.702650195 -0.0151316145 -0.711374541 0 0
2.438998 1.556448 1.549878 -0.702650195 -0.0151316145 -0.711374541 0 0
2.41748 2.119283 1.550878 -0.015265764 0.706863914 -0.707184816 0 0
2.42584 2.120463 1.551877 -0.015265764 0.706863914 -0.707184816 0 0
2.425861 2.119464 1.550878 -0.015265764 0.706863914 -0.707184816 0 0
2.41748 2.119283 1.550878 -0.0151738667 0.706512091 -0.707538281 0 0
2.417459 2.120283 1.551877 -0.0151738667 0.706512091 -0.707538281 0 0
2.42584 2.120463 1.551877 -0.0151738667 0.706512091 -0.707538281 0 0
2.426829 2.121485 1.551308 -0.717922216 0.69612333 1.88383067e-06 0 0
2.42584 2.120464 1.931835 -0.717922216 0.69612333 1.88383067e-06 0 0
2.42683 2.121485 1.932405 -0.717922216 0.69612333 1.88383067e-06 0 0
2.426829 2.121485 1.551308 -0.718613986 0.695409188 -1.83022647e-06 0 0
2.42584 2.120463 1.551877 -0.718613986 0.695409188 -1.83022647e-06 0 0
2.42584 2.120464 1.931835 -0.718613986 0.695409188 -1.83022647e-06 0 0
2.417459 2.120283 1.931835 -0.0152657675 0.706864074 0.707184655 0 0
2.425861 2.119464 1.932835 -0.0152657675 0.706864074 0.707184655 0 0
2.42584 2.120464 1.931835 -0.0152657675 0.706864074 0.707184655 0 0
2.417459 2.120283 1.931835 -0.0152657675 0.706864074 0.707184655 0 0
2.41748 2.119283 1.932835 -0.0152657675 0.706864074 0.707184655 0 0
2.425861 2.119464 1.932835 -0.0152657675 0.706864074 0.707184655 0 0
2.437973 1.557028 1.932836 -0.702643077 -0.0151300798 0.711381604 0 0
2.42686 2.120088 1.933835 -0.702643077 -0.0151300798 0.711381604 0 0
2.425861 2.119464 1.932835 -0.702643077 -0.0151300798 0.711381604 0 0
2.437973 1.557028 1.932836 -0.70261706 -0.0151296119 0.711407311 0 0
2.438998 1.556448 1.933836 -0.70261706 -0.0151296119 0.711407311 0 0
2.42686 2.120088 1.933835 -0.70261706 -0.0151296119 0.711407311 0 0
2.429957 1.521968 1.963873 -0.0152155194 0.706865144 -0.707184669 0 0
2.439088 1.523165 1.964873 -0.0152155194 0.706865144 -0.707184669 0 0
2.439109 1.522165 1.963873 -0.0152155194 0.706865144 -0.707184669 0 0
2.429957 1.521968 1.963873 -0.0153003664 0.707216937 -0.706831028 0 0
2.429936 1.522967 1.964873 -0.0153003664 0.707216937 -0.706831028 0 0
2.439088 1.523165 1.964873 -0.0153003664 0.707216937 -0.706831028 0 0
2.425517 2.153344 1.964873 -0.711273856 -0.01531739 -0.702748091 0 0
2.440043 1.524698 1.963873 -0.711273856 -0.01531739 -0.702748091 0 0
2.439088 1.523165 1.964873 -0.711273856 -0.01531739 -0.702748091 0 0
2.425517 2.153344 1.964873 -0.710961144 -0.0153096607 -0.703064624 0 0
2.426538 2.151853 1.963873 -0.710961144 -0.0153096607 -0.703064624 0 0
2.440043 1.524698 1.963873 -0.710961144 -0.0153096607 -0.703064624 0 0
2.416366 2.153147 1.964873 0.0152171813 -0.706865108 -0.707184669 0 0
2.425496 2.154344 1.963873 0.0152171813 -0.706865108 -0.707184669 0 0
2.425517 2.153344 1.964873 0.0152171813 -0.706865108 -0.707184669 0 0
2.416366 2.153147 1.964873 0.0152153557 -0.706857538 -0.707192275 0 0
2.416344 2.154147 1.963873 0.0152153557 -0.706857538 -0.707192275 0 0
2.425496 2.154344 1.963873 0.0152153557 -0.706857538 -0.707192275 0 0
2.426506 2.153366 1.962551 -0.695634667 -0.71839572 -0 0 0
2.425496 2.154344 1.51984 -0.695634667 -0.71839572 -0 0 0
2.426506 2.153366 1.521162 -0.695634667 -0.71839572 -0 0 0
2.426506 2.153366 1.962551 -0.695634667 -0.71839572 0 0 0
2.425496 2.154344 1.963873 -0.695634667 -0.71839572 0 0 0
2.425496 2.154344 1.51984 -0.695634667 -0.71839572 0 0 0
2.416344 2.154147 1.51984 0.0152155194 -0.706865144 0.707184669 0 0
2.425517 2.153344 1.51884 0.0152155194 -0.706865144 0.707184669 0 0
2.425496 2.154344 1.51984 0.0152155194 -0.706865144 0.707184669 0 0
2.416344 2.154147 1.51984 0.0152155194 -0.706865144 0.707184669 0 0
2.416365 2.153147 1.51884 0.0152155194 -0.706865144 0.707184669 0 0
2.425517 2.153344 1.51884 0.0152155194 -0.706865144 0.707184669 0 0
2.439088 1.523164 1.518841 -0.710961038 -0.0153095134 0.703064735 0 0
2.426538 2.151853 1.51984 -0.710961038 -0.0153095134 0.703064735 0 0
2.425517 2.153344 1.51884 -0.710961038 -0.0153095134 0.703064735 0 0
2.439088 1.523164 1.518841 -0.710915437 -0.0153086764 0.703110863 0 0
2.440043 1.524698 1.51984 -0.710915437 -0.0153086764 0.703110863 0 0
2.426538 2.151853 1.51984 -0.710915437 -0.0153086764 0.703110863 0 0
2.429936 1.522967 1.518841 -0.0152155159 0.706864984 0.707184829 0 0
2.439109 1.522165 1.51984 -0.0152155159 0.706864984 0.707184829 0 0
2.439088 1.523164 1.518841 -0.0152155159 0.706864984 0.707184829 0 0
2.429936 1.522967 1.518841 -0.0152155159 0.706864984 0.707184829 0 0
2.429957 1.521968 1.51984 -0.0152155159 0.706864984 0.707184829 0 0
2.439109 1.522165 1.51984 -0.0152155159 0.706864984 0.707184829 0 0
2.439109 1.522165 1.963873 -0.726046108 0.68764602 0 0 0
2.440076 1.523186 1.521162 -0.726046108 0.68764602 0 0 0
2.439109 1.522165 1.51984 -0.726046108 0.68764602 0 0 0
2.439109 1.522165 1.963873 -0.726046108 0.68764602 0 0 0
2.440076 1.523186 1.962551 -0.726046108 0.68764602 0 0 0
2.440076 1.523186 1.521162 -0.726046108 0.68764602 0 0 0
2.42683 2.121485 1.932405 -0.999855815 -0.015870984 0.0060382657 0 0
2.426538 2.151853 1.963873 -0.999855815 -0.015870984 0.0060382657 0 0
2.426506 2.153366 1.962551 -0.999855815 -0.015870984 0.0060382657 0 0
2.42683 2.121485 1.932405 -0.999862067 -0.0155791094 0.00575653583 0 0
2.42686 2.120088 1.933835 -0.999862067 -0.0155791094 0.00575653583 0 0
2.426538 2.151853 1.963873 -0.999862067 -0.0155791094 0.00575653583 0 0
2.438998 1.556448 1.933836 -0.999613086 -0.0271404973 0.00608865356 0 0
2.440076 1.523186 1.962551 -0.999613086 -0.0271404973 0.00608865356 0 0
2.440043 1.524698 1.963873 -0.999613086 -0.0271404973 0.00608865356 0 0
2.438998 1.556448 1.933836 -0.999614485 -0.0270705973 0.00616967462 0 0
2.439027 1.555051 1.932405 -0.999614485 -0.0270705973 0.00616967462 0 0
2.440076 1.523186 1.962551 -0.999614485 -0.0270705973 0.00616967462 0 0
2.42686 2.120087 1.549878 -0.999855927 -0.0158584876 -0.00605257033 0 0
2.426506 2.153366 1.521162 -0.999855927 -0.0158584876 -0.00605257033 0 0
2.426538 2.151853 1.51984 -0.999855927 -0.0158584876 -0.00605257033 0 0
2.42686 2.120087 1.549878 -0.999854649 -0.0159141726 -0.00611711949 0 0
2.426829 2.121485 1.551308 -0.999854649 -0.0159141726 -0.00611711949 0 0
2.426506 2.153366 1.521162 -0.999854649 -0.0159141726 -0.00611711949 0 0
2.439027 1.555051 1.551308 -0.999612976 -0.0271437144 -0.00609233577 0 0
2.440043 1.524698 1.51984 -0.999612976 -0.0271437144 -0.00609233577 0 0
2.440076 1.523186 1.521162 -0.999612976 -0.0271437144 -0.00609233577 0 0
2.439027 1.555051 1.551308 -0.999614647 -0.0270648956 -0.00616841568 0 0
2.438998 1.556448 1.549878 -0.999614647 -0.0270648956 -0.00616841568 0 0
2.440043 1.524698 1.51984 -0.999614647 -0.0270648956 -0.00616841568 0 0
2.41541 2.151613 1.51984 0.999696006 0.0215288338 -0.0120168319 0 0
2.428593 1.556224 1.549878 0.999696006 0.0215288338 -0.0120168319 0 0
2.428916 1.524459 1.51984 0.999696006 0.0215288338 -0.0120168319 0 0
2.41541 2.151613 1.51984 0.999695552 0.0215267306 -0.0120583211 0 0
2.416456 2.119863 1.549878 0.999695552 0.0215267306 -0.0120583211 0 0
2.428593 1.556224 1.549878 0.999695552 0.0215267306 -0.0120583211 0 0
3 0 1 2
3 3 4 5
3 6 7 8
3 9 10 11
3 12 13 14
3 15 16 17
3 18 19 20
3 21 22 23
3 24 25 26
3 27 28 29
3 30 31 32
3 33 34 35
3 36 37 38
3 39 40 41
3 42 43 44
3 45 46 47
3 48 49 50
3 51 52 53
3 54 55 56
3 57 58 59
3 60 61 62
3 63 64 65
3 66 67 68
3 69 70 71
3 72 73 74
3 75 76 77
3 78 79 80
3 81 82 83
3 84 85 86
3 87 88 89
3 90 91 92
3 93 94 95
3 96 97 98
3 99 100 101
3 102 103 104
3 105 106 107
3 108 109 110
3 111 112 113
3 114 115 116
3 117 118 119
3 120 121 122
3 123 124 125
3 126 127 128
3 129 130 131
3 132 133 134
3 135 136 137
3 138 139 140
3 141 142 143
3 144 145 146
3 147 148 149
3 150 151 152
3 153 154 155
3 156 157 158
3 159 160 161
3 162 163 164
3 165 166 167
3 168 169 170
3 171 172 173
3 174 175 176
3 177 178 179
3 180 181 182
3 183 184 185
3 186 187 188
3 189 190 191
3 192 193 194
3 195 196 197
3 198 199 200
3 201 202 203
3 204 205 206
3 207 208 209
3 210 211 212
3 213 214 215
3 216 217 218
3 219 220 221
3 222 223 224
3 225 226 227
3 228 229 230
3 231 232 233
3 234 235 236
3 237 238 239
3 240 241 242
3 243 244 245
3 246 247 248
3 249 250 251
3 252 253 254
3 255 256 257
3 258 259 260
3 261 262 263
3 264 265 266
3 267 268 269
3 270 271 272
3 273 274 275
3 276 277 278
3 279 280 281
3 282 283 284
3 285 286 287
3 288 289 290
3 291 292 293
3 294 295 296
3 297 298 299
3 300 301 302
3 303 304 305
3 306 307 308
3 309 310 311
3 312 313 314
3 315 316 317
3 318 319 320
3 321 322 323
3 324 325 326
3 327 328 329
3 330 331 332
3 333 334 335
3 336 337 338
3 339 340 341
3 342 343 344
3 345 346 347
3 348 349 350
3 351 352 353
3 354 355 356
3 357 358 359
3 360 361 362
3 363 364 365
3 366 367 368
3 369 370 371
3 372 373 374
3 375 376 377
3 378 379 380
3 381 382 383
