ply
format ascii 1.0
element vertex 252
property float x
property float y
property float z
property float nx
property float ny
property float nz
property float u
property float v
element face 480
property list uchar int vertex_indices
end_header
-1.413908 2.080798 0.73845 -0.0358007574 0.999121137 -0.0218004612 0 0
-1.413296 2.080798 0.739865 0 0.999999995 -9.99999995e-05 0 0
-1.413021 2.080798 0.73899 0 1 0 0 0
-1.414346 2.080798 0.73984 -0.0424000091 0.999100215 -0.00100000022 0 0
-1.415143 2.080741 0.739821 -0.332490646 0.943073467 -0.00789977774 0 0
-1.414582 2.080741 0.738039 -0.282120583 0.943868862 -0.171812535 0 0
-1.413256 2.080741 0.736724 -0.159400541 0.943103202 -0.291800991 0 0
-1.412873 2.080798 0.737424 -0.0203001085 0.99910534 -0.0371001983 0 0
-1.41237 2.080798 0.738345 0 1 0 0 0
-1.413975 2.080798 0.741249 -0.0368007533 0.999120452 0.0201004115 0 0
-1.413063 2.080798 0.740751 0 0.999999995 -9.99999995e-05 0 0
-1.412443 2.080798 0.741426 0 1 0 0 0
-1.41299 2.080798 0.742323 -0.0220000523 0.999102373 0.036200086 0 0
-1.413405 2.080741 0.743004 -0.173099963 0.943099797 0.283899939 0 0
-1.414668 2.080741 0.741627 -0.290007395 0.943824068 0.158404039 0 0
-1.411584 2.080798 0.742706 -0.00100002548 0.999125453 0.0418010649 0 0
-1.411559 2.080798 0.741667 0 0.999999995 -9.99999995e-05 0 0
-1.410665 2.080798 0.741468 0 1 0 0 0
-1.410161 2.080798 0.74239 0.0203001085 0.99910534 0.0371001983 0 0
-1.409779 2.080741 0.74309 0.159400541 0.943103202 0.291800991 0 0
-1.411603 2.080741 0.743495 -0.00780032228 0.943838996 0.330313647 0 0
-1.409126 2.080798 0.741364 0.0358007574 0.999121137 0.0218004612 0 0
-1.409739 2.080798 0.739949 0 0.999999995 9.99999995e-05 0 0
-1.410014 2.080798 0.740823 0 1 0 0 0
-1.408689 2.080798 0.739974 0.0424000091 0.999100215 0.00100000022 0 0
-1.407892 2.080741 0.739993 0.332401699 0.943104819 0.00790004037 0 0
-1.408452 2.080741 0.741775 0.282212626 0.943842228 0.171807687 0 0
-1.40906 2.080798 0.738565 0.0368007533 0.999120452 -0.0201004115 0 0
-1.409972 2.080798 0.739063 0 0.999999995 9.99999995e-05 0 0
-1.410591 2.080798 0.738387 0 1 0 0 0
-1.410045 2.080798 0.737491 0.0220000523 0.999102373 -0.036200086 0 0
-1.40963 2.080741 0.73681 0.173002957 0.943116118 -0.283904852 0 0
-1.408367 2.080741 0.738186 0.290011988 0.943839014 -0.158306544 0 0
-1.411451 2.080798 0.737108 0.00100002548 0.999125453 -0.0418010649 0 0
-1.411476 2.080798 0.738146 0 0.999999995 9.99999995e-05 0 0
-1.411432 2.080741 0.736318 0.00780032228 0.943838996 -0.330313647 0 0
-1.411314 2.044618 0.731337 0 -0.99999992 -0.000399999968 0 0
-1.406479 2.044644 0.73164 0.0742056781 -0.989775736 -0.121809321 0 0
-1.40701 2.044618 0.732511 0.000499999735 -0.99999947 -0.000899999523 0 0
-1.41129 2.044644 0.730327 0.00340010911 -0.989931767 -0.141504541 0 0
-1.416158 2.044644 0.73141 -0.0683002073 -0.989803004 -0.125000379 0 0
-1.415669 2.044618 0.732305 -0.000499999688 -0.999999375 -0.000999999375 0 0
-1.41518 2.044652 0.733201 0.0679999534 -0.989899322 0.124399915 0 0
-1.411338 2.044652 0.732346 -0.00340011579 -0.989233689 0.146304983 0 0
-1.407541 2.044652 0.733382 -0.0738003893 -0.989905222 0.121000638 0 0
-1.403994 2.044618 0.735798 0.000299999981 -0.999999935 -0.000199999987 0 0
-1.401839 2.044644 0.740137 0.142596409 -0.989775078 0.00339991439 0 0
-1.402859 2.044618 0.740112 0.00109999933 -0.999999395 0 0 0
-1.403108 2.044644 0.735314 0.124303149 -0.989925075 -0.0678017174 0 0
-1.40488 2.044652 0.736282 -0.128503669 -0.989228243 0.0701020014 0 0
-1.403879 2.044652 0.740088 -0.141798525 -0.9898897 -0.00339996462 0 0
-1.404197 2.044618 0.744368 0.000299999981 -0.999999935 0.000199999987 0 0
-1.403335 2.044644 0.744893 0.120902992 -0.989924496 0.0737018238 0 0
-1.40506 2.044652 0.743842 -0.125003245 -0.989225681 -0.0762019782 0 0
-1.407855 2.044652 0.746613 -0.0679999534 -0.989899322 -0.124399915 0 0
-1.407366 2.044618 0.747508 0.000499999688 -0.999999375 0.000999999375 0 0
-1.406877 2.044644 0.748404 0.0683002073 -0.989803004 0.125000379 0 0
-1.411721 2.044618 0.748477 0 -0.99999992 0.000399999968 0 0
-1.416556 2.044644 0.748174 -0.0742056781 -0.989775736 0.121809321 0 0
-1.416025 2.044618 0.747303 -0.000499999735 -0.99999947 0.000899999523 0 0
-1.411745 2.044644 0.749486 -0.00340010911 -0.989931767 0.141504541 0 0
-1.411697 2.044652 0.747467 0.00340011579 -0.989233689 -0.146304983 0 0
-1.415494 2.044652 0.746431 0.0738003893 -0.989905222 -0.121000638 0 0
-1.419041 2.044618 0.744016 -0.000299999981 -0.999999935 0.000199999987 0 0
-1.421196 2.044644 0.739677 -0.142596409 -0.989775078 -0.00339991439 0 0
-1.420176 2.044618 0.739701 -0.00109999933 -0.999999395 0 0 0
-1.419927 2.044644 0.744499 -0.124303149 -0.989925075 0.0678017174 0 0
-1.418155 2.044652 0.743532 0.128503669 -0.989228243 -0.0701020014 0 0
-1.419156 2.044652 0.739725 0.141798525 -0.9898897 0.00339996462 0 0
-1.418837 2.044618 0.735446 -0.000299999981 -0.999999935 -0.000199999987 0 0
-1.4197 2.044644 0.73492 -0.120902992 -0.989924496 -0.0737018238 0 0
-1.417975 2.044652 0.735971 0.125004197 -0.989233214 0.0761025552 0 0
-1.411368 2.05252 0.733605 -0.0234002537 -0.152601654 0.98801071 0 0
-1.407839 2.047928 0.733871 -0.516118862 -0.129104718 0.846730944 0 0
-1.408203 2.05252 0.734468 -0.51420562 -0.154101684 0.843709222 0 0
-1.411351 2.047928 0.732913 -0.0235005013 -0.127802726 0.991521149 0 0
-1.414905 2.047928 0.733704 0.47530024 -0.129100065 0.87030044 0 0
-1.41457 2.05252 0.734317 0.473581149 -0.154093866 0.867165483 0 0
-1.414124 2.058342 0.735135 0.47330652 -0.158002176 0.866611938 0 0
-1.41139 2.058342 0.734527 -0.0234003828 -0.156402559 0.987416154 0 0
-1.408688 2.058342 0.735264 -0.513888836 -0.157996568 0.843181682 0 0
-1.405985 2.05252 0.736885 -0.867373454 -0.15259533 0.473685503 0 0
-1.404451 2.047928 0.740075 -0.991352171 -0.129106794 -0.0235012368 0 0
-1.40515 2.05252 0.740058 -0.987778659 -0.154096671 -0.0233994945 0 0
-1.405378 2.047928 0.736554 -0.870470036 -0.127810283 0.475338245 0 0
-1.406794 2.058342 0.737327 -0.866825117 -0.156504535 0.473413717 0 0
-1.406082 2.058342 0.740036 -0.98716047 -0.157993673 -0.023499059 0 0
-1.406134 2.05252 0.743187 -0.843917528 -0.15260317 -0.514310682 0 0
-1.405544 2.047928 0.743547 -0.846918112 -0.127902735 -0.516111037 0 0
-1.406922 2.058342 0.742707 -0.84339502 -0.156499076 -0.513996965 0 0
-1.408911 2.058342 0.744679 -0.47330652 -0.158002176 -0.866611938 0 0
-1.408465 2.05252 0.745497 -0.473581149 -0.154093866 -0.867165483 0 0
-1.40813 2.047928 0.74611 -0.47530024 -0.129100065 -0.87030044 0 0
-1.411667 2.05252 0.746209 0.0234002537 -0.152601654 -0.98801071 0 0
-1.415196 2.047928 0.745942 0.516118862 -0.129104718 -0.846730944 0 0
-1.414832 2.05252 0.745345 0.51420562 -0.154101684 -0.843709222 0 0
-1.411683 2.047928 0.7469 0.0235005013 -0.127802726 -0.991521149 0 0
-1.411645 2.058342 0.745287 0.0234003828 -0.156402559 -0.987416154 0 0
-1.414347 2.058342 0.74455 0.513888836 -0.157996568 -0.843181682 0 0
-1.41705 2.05252 0.742928 0.867373454 -0.15259533 -0.473685503 0 0
-1.418583 2.047928 0.739739 0.991352171 -0.129106794 0.0235012368 0 0
-1.417885 2.05252 0.739756 0.987778659 -0.154096671 0.0233994945 0 0
-1.417657 2.047928 0.74326 0.870470036 -0.127810283 -0.475338245 0 0
-1.416241 2.058342 0.742486 0.866838679 -0.156406979 -0.473421125 0 0
-1.416953 2.058342 0.739778 0.98716047 -0.157993673 0.023499059 0 0
-1.4169 2.05252 0.736626 0.843917528 -0.15260317 0.514310682 0 0
-1.417491 2.047928 0.736266 0.84692894 -0.127804367 0.516117636 0 0
-1.416113 2.058342 0.737106 0.843408215 -0.156401523 0.514005006 0 0
-1.411425 2.080569 0.736028 0.0200005702 0.541715445 -0.840323958 0 0
-1.413396 2.080569 0.736466 -0.403406146 0.540108229 -0.738611253 0 0
-1.41377 2.076235 0.735781 -0.471720315 0.177307636 -0.863737198 0 0
-1.411407 2.076235 0.735256 0.0233000841 0.175500634 -0.984203553 0 0
-1.409071 2.076235 0.735893 0.512185585 0.17729501 -0.840376348 0 0
-1.409477 2.080569 0.73656 0.437989926 0.540187576 -0.718583473 0 0
-1.408112 2.080569 0.738047 0.737701339 0.541800983 -0.402800731 0 0
-1.407434 2.076235 0.737677 0.86404688 0.175509523 -0.4718256 0 0
-1.406818 2.076235 0.740018 0.983881607 0.177296685 0.0232995644 0 0
-1.407598 2.080569 0.74 0.841344719 0.540128709 0.0200010631 0 0
-1.408204 2.080569 0.741926 0.717746002 0.541834727 0.437328029 0 0
-1.409639 2.080569 0.743347 0.403406146 0.540108229 0.738611253 0 0
-1.407545 2.076235 0.742328 0.84065889 0.175512295 0.51233589 0 0
-1.409264 2.076235 0.744032 0.471720315 0.177307636 0.863737198 0 0
-1.41161 2.080569 0.743785 -0.0200005702 0.541715445 0.840323958 0 0
-1.411628 2.076235 0.744558 -0.0233000841 0.175500634 0.984203553 0 0
-1.413964 2.076235 0.743921 -0.512185585 0.17729501 0.840376348 0 0
-1.413557 2.080569 0.743254 -0.438013585 0.540116752 0.718622288 0 0
-1.414922 2.080569 0.741766 -0.737741307 0.541730332 0.402822555 0 0
-1.415601 2.076235 0.742137 -0.86404688 0.175509523 0.4718256 0 0
-1.416217 2.076235 0.739795 -0.983881607 0.177296685 -0.0232995644 0 0
-1.415436 2.080569 0.739814 -0.841344719 0.540128709 -0.0200010631 0 0
-1.41483 2.080569 0.737888 -0.717746002 0.541834727 -0.437328029 0 0
-1.41549 2.076235 0.737486 -0.84065889 0.175512295 -0.51233589 0 0
-1.411354 2.063691 0.73302 0.0233000841 0.175500634 -0.984203553 0 0
-1.414853 2.063691 0.733798 -0.471720315 0.177307636 -0.863737198 0 0
-1.415935 2.051162 0.731817 -0.471720315 0.177307636 -0.863737198 0 0
-1.411301 2.051162 0.730787 0.0234000298 0.175500224 -0.984201255 0 0
-1.406721 2.051162 0.732036 0.512185585 0.17729501 -0.840376348 0 0
-1.407895 2.063691 0.733963 0.512185585 0.17729501 -0.840376348 0 0
-1.411283 2.04687 0.730022 0.0235012139 0.118706131 -0.992651272 0 0
-1.416306 2.04687 0.731139 -0.475823466 0.119805908 -0.871342971 0 0
-1.416317 2.046507 0.731118 -0.478933994 0.0372026406 -0.877062252 0 0
-1.411282 2.046507 0.729999 0.0237009844 0.0368015286 -0.999041496 0 0
-1.406306 2.046507 0.731356 0.520024772 0.0372017721 -0.85334065 0 0
-1.406318 2.04687 0.731376 0.516719062 0.11980442 -0.847731273 0 0
-1.405471 2.063691 0.736605 0.86404688 0.175509523 -0.4718256 0 0
-1.403511 2.051162 0.735534 0.86404688 0.175509523 -0.4718256 0 0
-1.402303 2.051162 0.740126 0.983881607 0.177296685 0.0232995644 0 0
-1.404559 2.063691 0.740072 0.983881607 0.177296685 0.0232995644 0 0
-1.402839 2.04687 0.735168 0.87147101 0.118809681 -0.475838773 0 0
-1.402819 2.046507 0.735156 0.877095075 0.0368997928 -0.478897311 0 0
-1.401507 2.046507 0.740144 0.999026709 0.0372009946 0.0237006336 0 0
-1.40153 2.04687 0.740144 0.992517245 0.119802082 0.0236004101 0 0
-1.405635 2.063691 0.743492 0.84065889 0.175512295 0.51233589 0 0
-1.408181 2.063691 0.746015 0.471720315 0.177307636 0.863737198 0 0
-1.403728 2.051162 0.744654 0.84065889 0.175512295 0.51233589 0 0
-1.4071 2.051162 0.747996 0.471720315 0.177307636 0.863737198 0 0
-1.403074 2.04687 0.745053 0.847908793 0.11860123 0.516705358 0 0
-1.406729 2.04687 0.748675 0.475829164 0.119707337 0.871353407 0 0
-1.403054 2.046507 0.745065 0.853356417 0.0367024265 0.520034381 0 0
-1.406718 2.046507 0.748695 0.478933994 0.0372026406 0.877062252 0 0
-1.411681 2.063691 0.746794 -0.0233000841 0.175500634 0.984203553 0 0
-1.411734 2.051162 0.749027 -0.0234000298 0.175500224 0.984201255 0 0
-1.416314 2.051162 0.747777 -0.512185585 0.17729501 0.840376348 0 0
-1.41514 2.063691 0.74585 -0.512185585 0.17729501 0.840376348 0 0
-1.411752 2.04687 0.749792 -0.0235012139 0.118706131 0.992651272 0 0
-1.411753 2.046507 0.749815 -0.0237009844 0.0368015286 0.999041496 0 0
-1.416729 2.046507 0.748457 -0.520024772 0.0372017721 0.85334065 0 0
-1.416716 2.04687 0.748438 -0.516719062 0.11980442 0.847731273 0 0
-1.417563 2.063691 0.743209 -0.86404688 0.175509523 0.4718256 0 0
-1.419524 2.051162 0.744279 -0.86404688 0.175509523 0.4718256 0 0
-1.420732 2.051162 0.739688 -0.983881607 0.177296685 -0.0232995644 0 0
-1.418476 2.063691 0.739742 -0.983881607 0.177296685 -0.0232995644 0 0
-1.420195 2.04687 0.744646 -0.87147101 0.118809681 0.475838773 0 0
-1.420216 2.046507 0.744657 -0.877095075 0.0368997928 0.478897311 0 0
-1.421528 2.046507 0.739669 -0.999030421 0.0371011297 -0.0237007217 0 0
-1.421505 2.04687 0.73967 -0.992529131 0.119703513 -0.0236006927 0 0
-1.4174 2.063691 0.736322 -0.84065889 0.175512295 -0.51233589 0 0
-1.419307 2.051162 0.735159 -0.84065889 0.175512295 -0.51233589 0 0
-1.419961 2.04687 0.734761 -0.847898732 0.118699823 -0.516699228 0 0
-1.41998 2.046507 0.734749 -0.853353281 0.0368022978 -0.520032469 0 0
-1.419987 2.045762 0.734745 -0.853904948 0.00520003013 -0.520403016 0 0
-1.416321 2.045762 0.731112 -0.479315029 0.00520016305 -0.877627518 0 0
-1.421536 2.045762 0.739669 -0.999705588 0.00520002907 -0.0237001325 0 0
-1.421536 2.045034 0.739669 -0.999719105 0 -0.0237004529 0 0
-1.419987 2.045034 0.734745 -0.853916494 0 -0.520410052 0 0
-1.416321 2.045034 0.731112 -0.479279444 0 -0.877662358 0 0
-1.419987 2.044722 0.734745 -0.69591466 -0.579512208 -0.424108934 0 0
-1.416321 2.044722 0.731112 -0.392397708 -0.574396646 -0.718395805 0 0
-1.421536 2.044722 0.739669 -0.818455473 -0.57423892 -0.0195013217 0 0
-1.420222 2.045762 0.744661 -0.87762797 0.00510016254 0.479315276 0 0
-1.416733 2.045762 0.748464 -0.520403016 0.00520003013 0.853904948 0 0
-1.416733 2.045034 0.748464 -0.520410052 0 0.853916494 0 0
-1.420222 2.045034 0.744661 -0.877639385 0 0.47932151 0 0
-1.420222 2.044722 0.744661 -0.715235888 -0.579529079 0.3906196 0 0
-1.416733 2.044722 0.748464 -0.426016519 -0.574222266 0.699127109 0 0
-1.411753 2.045762 0.749823 -0.0237001325 0.00520002907 0.999705588 0 0
-1.406714 2.045762 0.748702 0.479315029 0.00520016305 0.877627518 0 0
-1.406714 2.045034 0.748702 0.47932151 0 0.877639385 0 0
-1.411753 2.045034 0.749823 -0.0238003983 0 0.99971673 0 0
-1.411753 2.044722 0.749823 -0.0194006528 -0.579519501 0.814727416 0 0
-1.406714 2.044722 0.748702 0.392397708 -0.574396646 0.718395805 0 0
-1.403048 2.045762 0.745069 0.853904948 0.00520003013 0.520403016 0 0
-1.401499 2.045762 0.740145 0.999705588 0.00520002907 0.0237001325 0 0
-1.401499 2.045034 0.740145 0.999719105 0 0.0237004529 0 0
-1.403048 2.045034 0.745069 0.853916494 0 0.520410052 0 0
-1.403048 2.044722 0.745069 0.69591466 -0.579512208 0.424108934 0 0
-1.401499 2.044722 0.740145 0.818408471 -0.574305944 0.0195002018 0 0
-1.402812 2.045762 0.735153 0.87762797 0.00510016254 -0.479315276 0 0
-1.406302 2.045762 0.731349 0.520403016 0.00520003013 -0.853904948 0 0
-1.406302 2.045034 0.731349 0.520410052 0 -0.853916494 0 0
-1.402812 2.045034 0.735153 0.877639385 0 -0.47932151 0 0
-1.402812 2.044722 0.735153 0.715235888 -0.579529079 -0.3906196 0 0
-1.406302 2.044722 0.731349 0.426016519 -0.574222266 -0.699127109 0 0
-1.411282 2.045762 0.729991 0.0237001325 0.00520002907 -0.999705588 0 0
-1.411282 2.045034 0.729991 0.0238003983 0 -0.99971673 0 0
-1.411282 2.044722 0.729991 0.0194006528 -0.579519501 -0.814727416 0 0
-1.417688 2.044756 0.736146 0.655416215 -0.641015859 0.399409882 0 0
-1.415017 2.044756 0.733499 0.364023935 -0.650542775 0.666543827 0 0
-1.418816 2.044756 0.739733 0.759295923 -0.650496507 0.0179999033 0 0
-1.418816 2.045086 0.739733 0.999719105 0 0.0237004529 0 0
-1.417688 2.045086 0.736146 0.853916494 0 0.520410052 0 0
-1.415017 2.045086 0.733499 0.479202413 0 0.877704419 0 0
-1.417688 2.045796 0.736146 0.852684251 -0.0533990137 0.519690401 0 0
-1.415017 2.045796 0.733499 0.478590397 -0.0538989185 0.876382416 0 0
-1.418816 2.045796 0.739733 0.998265166 -0.0538981193 0.023699173 0 0
-1.417859 2.044756 0.74337 0.673653834 -0.64095122 -0.367929402 0 0
-1.415317 2.044756 0.746141 0.395222619 -0.650537231 -0.648537117 0 0
-1.415317 2.045086 0.746141 0.520410052 0 -0.853916494 0 0
-1.417859 2.045086 0.74337 0.877639385 0 -0.47932151 0 0
-1.417859 2.045796 0.74337 0.876405925 -0.053400361 -0.478603235 0 0
-1.415317 2.045796 0.746141 0.519676462 -0.0538975588 -0.85266138 0 0
-1.411689 2.044756 0.747131 0.0182003501 -0.64101233 -0.767314759 0 0
-1.408018 2.044756 0.746314 -0.364023935 -0.650542775 -0.666543827 0 0
-1.408018 2.045086 0.746314 -0.479202413 0 -0.877704419 0 0
-1.411689 2.045086 0.747131 0.0237004529 0 -0.999719105 0 0
-1.411689 2.045796 0.747131 0.0236998087 -0.0533995691 -0.998291944 0 0
-1.408018 2.045796 0.746314 -0.478590397 -0.0538989185 -0.876382416 0 0
-1.405347 2.044756 0.743667 -0.65545823 -0.640956942 -0.399435485 0 0
-1.404219 2.044756 0.74008 -0.759294552 -0.650495333 -0.0180998701 0 0
-1.404219 2.045086 0.74008 -0.999719105 0 -0.0237004529 0 0
-1.405347 2.045086 0.743667 -0.853916494 0 -0.520410052 0 0
-1.405347 2.045796 0.743667 -0.852684251 -0.0533990137 -0.519690401 0 0
-1.404219 2.045796 0.74008 -0.998265166 -0.0538981193 -0.023699173 0 0
-1.405176 2.044756 0.736443 -0.673610653 -0.641010138 0.367905818 0 0
-1.407718 2.044756 0.733672 -0.395222619 -0.650537231 0.648537117 0 0
-1.407718 2.045086 0.733672 -0.520410052 0 0.853916494 0 0
-1.405176 2.045086 0.736443 -0.877639385 0 0.47932151 0 0
-1.405176 2.045796 0.736443 -0.876405925 -0.053400361 0.478603235 0 0
-1.407718 2.045796 0.733672 -0.519676462 -0.0538975588 0.85266138 0 0
-1.411346 2.044756 0.732683 -0.0182003501 -0.64101233 0.767314759 0 0
-1.411346 2.045086 0.732683 -0.0237004529 0 0.999719105 0 0
-1.411346 2.045796 0.732683 -0.0236998087 -0.0533995691 0.998291944 0 0
3 0 1 2
3 0 3 1
3 0 4 3
3 0 5 4
3 0 6 5
3 0 7 6
3 0 8 7
3 0 2 8
3 9 1 3
3 9 10 1
3 9 11 10
3 9 12 11
3 9 13 12
3 9 14 13
3 9 4 14
3 9 3 4
3 15 11 12
3 15 16 11
3 15 17 16
3 15 18 17
3 15 19 18
3 15 20 19
3 15 13 20
3 15 12 13
3 21 22 23
3 21 24 22
3 21 25 24
3 21 26 25
3 21 19 26
3 21 18 19
3 21 17 18
3 21 23 17
3 27 22 24
3 27 28 22
3 27 29 28
3 27 30 29
3 27 31 30
3 27 32 31
3 27 25 32
3 27 24 25
3 33 29 30
3 33 34 29
3 33 8 34
3 33 7 8
3 33 6 7
3 33 35 6
3 33 31 35
3 33 30 31
3 36 37 38
3 36 39 37
3 36 40 39
3 36 41 40
3 36 42 41
3 36 43 42
3 36 44 43
3 36 38 44
3 45 46 47
3 45 48 46
3 45 37 48
3 45 38 37
3 45 44 38
3 45 49 44
3 45 50 49
3 45 47 50
3 51 46 52
3 51 47 46
3 51 50 47
3 51 53 50
3 51 54 53
3 51 55 54
3 51 56 55
3 51 52 56
3 57 58 59
3 57 60 58
3 57 56 60
3 57 55 56
3 57 54 55
3 57 61 54
3 57 62 61
3 57 59 62
3 63 64 65
3 63 66 64
3 63 58 66
3 63 59 58
3 63 62 59
3 63 67 62
3 63 68 67
3 63 65 68
3 69 64 70
3 69 65 64
3 69 68 65
3 69 71 68
3 69 42 71
3 69 41 42
3 69 40 41
3 69 70 40
3 72 73 74
3 72 75 73
3 72 76 75
3 72 77 76
3 72 78 77
3 72 79 78
3 72 80 79
3 72 74 80
3 81 82 83
3 81 84 82
3 81 73 84
3 81 74 73
3 81 80 74
3 81 85 80
3 81 86 85
3 81 83 86
3 87 82 88
3 87 83 82
3 87 86 83
3 87 89 86
3 87 90 89
3 87 91 90
3 87 92 91
3 87 88 92
3 93 94 95
3 93 96 94
3 93 92 96
3 93 91 92
3 93 90 91
3 93 97 90
3 93 98 97
3 93 95 98
3 99 100 101
3 99 102 100
3 99 94 102
3 99 95 94
3 99 98 95
3 99 103 98
3 99 104 103
3 99 101 104
3 105 100 106
3 105 101 100
3 105 104 101
3 105 107 104
3 105 78 107
3 105 77 78
3 105 76 77
3 105 106 76
3 108 6 35
3 108 109 6
3 108 110 109
3 108 111 110
3 108 112 111
3 108 113 112
3 108 31 113
3 108 35 31
3 114 31 32
3 114 113 31
3 114 112 113
3 114 115 112
3 114 116 115
3 114 117 116
3 114 25 117
3 114 32 25
3 118 19 119
3 118 26 19
3 118 25 26
3 118 117 25
3 118 116 117
3 118 120 116
3 118 121 120
3 118 119 121
3 122 19 20
3 122 119 19
3 122 121 119
3 122 123 121
3 122 124 123
3 122 125 124
3 122 13 125
3 122 20 13
3 126 13 14
3 126 125 13
3 126 124 125
3 126 127 124
3 126 128 127
3 126 129 128
3 126 4 129
3 126 14 4
3 130 6 109
3 130 5 6
3 130 4 5
3 130 129 4
3 130 128 129
3 130 131 128
3 130 110 131
3 130 109 110
3 132 110 111
3 132 133 110
3 132 134 133
3 132 135 134
3 132 136 135
3 132 137 136
3 132 112 137
3 132 111 112
3 138 134 135
3 138 139 134
3 138 140 139
3 138 141 140
3 138 142 141
3 138 143 142
3 138 136 143
3 138 135 136
3 144 112 115
3 144 137 112
3 144 136 137
3 144 145 136
3 144 146 145
3 144 147 146
3 144 116 147
3 144 115 116
3 148 136 145
3 148 143 136
3 148 142 143
3 148 149 142
3 148 150 149
3 148 151 150
3 148 146 151
3 148 145 146
3 152 121 153
3 152 120 121
3 152 116 120
3 152 147 116
3 152 146 147
3 152 154 146
3 152 155 154
3 152 153 155
3 156 155 157
3 156 154 155
3 156 146 154
3 156 151 146
3 156 150 151
3 156 158 150
3 156 159 158
3 156 157 159
3 160 121 123
3 160 153 121
3 160 155 153
3 160 161 155
3 160 162 161
3 160 163 162
3 160 124 163
3 160 123 124
3 164 155 161
3 164 157 155
3 164 159 157
3 164 165 159
3 164 166 165
3 164 167 166
3 164 162 167
3 164 161 162
3 168 124 127
3 168 163 124
3 168 162 163
3 168 169 162
3 168 170 169
3 168 171 170
3 168 128 171
3 168 127 128
3 172 162 169
3 172 167 162
3 172 166 167
3 172 173 166
3 172 174 173
3 172 175 174
3 172 170 175
3 172 169 170
3 176 110 133
3 176 131 110
3 176 128 131
3 176 171 128
3 176 170 171
3 176 177 170
3 176 134 177
3 176 133 134
3 178 134 139
3 178 177 134
3 178 170 177
3 178 175 170
3 178 174 175
3 178 179 174
3 178 140 179
3 178 139 140
3 180 140 181
3 180 179 140
3 180 174 179
3 180 182 174
3 180 183 182
3 180 184 183
3 180 185 184
3 180 181 185
3 186 185 187
3 186 184 185
3 186 183 184
3 186 188 183
3 186 64 188
3 186 70 64
3 186 40 70
3 186 187 40
3 189 166 173
3 189 190 166
3 189 191 190
3 189 192 191
3 189 183 192
3 189 182 183
3 189 174 182
3 189 173 174
3 193 191 192
3 193 194 191
3 193 58 194
3 193 66 58
3 193 64 66
3 193 188 64
3 193 183 188
3 193 192 183
3 195 159 165
3 195 196 159
3 195 197 196
3 195 198 197
3 195 191 198
3 195 190 191
3 195 166 190
3 195 165 166
3 199 197 198
3 199 200 197
3 199 56 200
3 199 60 56
3 199 58 60
3 199 194 58
3 199 191 194
3 199 198 191
3 201 159 196
3 201 158 159
3 201 150 158
3 201 202 150
3 201 203 202
3 201 204 203
3 201 197 204
3 201 196 197
3 205 197 200
3 205 204 197
3 205 203 204
3 205 206 203
3 205 46 206
3 205 52 46
3 205 56 52
3 205 200 56
3 207 142 149
3 207 208 142
3 207 209 208
3 207 210 209
3 207 203 210
3 207 202 203
3 207 150 202
3 207 149 150
3 211 209 210
3 211 212 209
3 211 37 212
3 211 48 37
3 211 46 48
3 211 206 46
3 211 203 206
3 211 210 203
3 213 140 141
3 213 181 140
3 213 185 181
3 213 214 185
3 213 209 214
3 213 208 209
3 213 142 208
3 213 141 142
3 215 185 214
3 215 187 185
3 215 40 187
3 215 39 40
3 215 37 39
3 215 212 37
3 215 209 212
3 215 214 209
3 216 42 217
3 216 71 42
3 216 68 71
3 216 218 68
3 216 219 218
3 216 220 219
3 216 221 220
3 216 217 221
3 222 221 223
3 222 220 221
3 222 219 220
3 222 224 219
3 222 100 224
3 222 106 100
3 222 76 106
3 222 223 76
3 225 62 67
3 225 226 62
3 225 227 226
3 225 228 227
3 225 219 228
3 225 218 219
3 225 68 218
3 225 67 68
3 229 227 228
3 229 230 227
3 229 94 230
3 229 102 94
3 229 100 102
3 229 224 100
3 229 219 224
3 229 228 219
3 231 54 61
3 231 232 54
3 231 233 232
3 231 234 233
3 231 227 234
3 231 226 227
3 231 62 226
3 231 61 62
3 235 233 234
3 235 236 233
3 235 92 236
3 235 96 92
3 235 94 96
3 235 230 94
3 235 227 230
3 235 234 227
3 237 54 232
3 237 53 54
3 237 50 53
3 237 238 50
3 237 239 238
3 237 240 239
3 237 233 240
3 237 232 233
3 241 233 236
3 241 240 233
3 241 239 240
3 241 242 239
3 241 82 242
3 241 88 82
3 241 92 88
3 241 236 92
3 243 44 49
3 243 244 44
3 243 245 244
3 243 246 245
3 243 239 246
3 243 238 239
3 243 50 238
3 243 49 50
3 247 245 246
3 247 248 245
3 247 73 248
3 247 84 73
3 247 82 84
3 247 242 82
3 247 239 242
3 247 246 239
3 249 42 43
3 249 217 42
3 249 221 217
3 249 250 221
3 249 245 250
3 249 244 245
3 249 44 244
3 249 43 44
3 251 221 250
3 251 223 221
3 251 76 223
3 251 75 76
3 251 73 75
3 251 248 73
3 251 245 248
3 251 250 245
