ply
format ascii 1.0
element vertex 84
property float x
property float y
property float z
property float nx
property float ny
property float nz
property float u
property float v
element face 28
property list uchar int vertex_indices
end_header
-1.394273 2.422768 0.733352 0 1 0 0 0
-1.426742 2.422768 0.750159 0 1 0 0 0
-1.426353 2.422768 0.750871 0 1 0 0 0
-1.394273 2.422768 0.733352 0 1 0 0 0
-1.394662 2.422768 0.732639 0 1 0 0 0
-1.426742 2.422768 0.750159 0 1 0 0 0
-1.426447 2.399934 0.750699 0.256791612 -0.844361503 0.47022518 0 0
-1.394662 2.399543 0.732639 0.256791612 -0.844361503 0.47022518 0 0
-1.394367 2.399934 0.73318 0.256791612 -0.844361503 0.47022518 0 0
-1.426447 2.399934 0.750699 0.257063884 -0.844015761 0.470696883 0 0
-1.426742 2.399543 0.750159 0.257063884 -0.844015761 0.470696883 0 0
-1.394662 2.399543 0.732639 0.257063884 -0.844015761 0.470696883 0 0
-1.426353 2.400951 0.750871 0.479291024 -0 0.877656034 0 0
-1.394273 2.422768 0.733352 0.479291024 -0 0.877656034 0 0
-1.426353 2.422768 0.750871 0.479291024 -0 0.877656034 0 0
-1.426353 2.400951 0.750871 0.479291024 0 0.877656034 0 0
-1.394273 2.400951 0.733352 0.479291024 0 0.877656034 0 0
-1.394273 2.422768 0.733352 0.479291024 0 0.877656034 0 0
-1.394273 2.400951 0.733352 0.470629653 -0.189250788 0.861795723 0 0
-1.426447 2.399934 0.750699 0.470629653 -0.189250788 0.861795723 0 0
-1.394367 2.399934 0.73318 0.470629653 -0.189250788 0.861795723 0 0
-1.394273 2.400951 0.733352 0.470629653 -0.189250788 0.861795723 0 0
-1.426353 2.400951 0.750871 0.470629653 -0.189250788 0.861795723 0 0
-1.426447 2.399934 0.750699 0.470629653 -0.189250788 0.861795723 0 0
-1.394367 2.399934 0.73318 0.877848508 -0.000138011077 -0.478938387 0 0
-1.394662 2.400951 0.732639 0.877848508 -0.000138011077 -0.478938387 0 0
-1.394273 2.400951 0.733352 0.877848508 -0.000138011077 -0.478938387 0 0
-1.394367 2.399934 0.73318 0.877957585 0 -0.478738424 0 0
-1.394662 2.399543 0.732639 0.877957585 0 -0.478738424 0 0
-1.394662 2.400951 0.732639 0.877957585 0 -0.478738424 0 0
-1.394273 2.400951 0.733352 0.877848516 0 -0.478938391 0 0
-1.394662 2.422768 0.732639 0.877848516 0 -0.478938391 0 0
-1.394273 2.422768 0.733352 0.877848516 0 -0.478938391 0 0
-1.394273 2.400951 0.733352 0.877848516 0 -0.478938391 0 0
-1.394662 2.400951 0.732639 0.877848516 0 -0.478938391 0 0
-1.394662 2.422768 0.732639 0.877848516 0 -0.478938391 0 0
-1.426353 2.422768 0.750871 -0.877565642 0 0.479456509 0 0
-1.426742 2.400951 0.750159 -0.877565642 0 0.479456509 0 0
-1.426353 2.400951 0.750871 -0.877565642 0 0.479456509 0 0
-1.426353 2.422768 0.750871 -0.877565642 0 0.479456509 0 0
-1.426742 2.422768 0.750159 -0.877565642 0 0.479456509 0 0
-1.426742 2.400951 0.750159 -0.877565642 0 0.479456509 0 0
-1.426353 2.400951 0.750871 -0.877595943 3.64202099e-05 0.479401042 0 0
-1.426742 2.399543 0.750159 -0.877595943 3.64202099e-05 0.479401042 0 0
-1.426447 2.399934 0.750699 -0.877595943 3.64202099e-05 0.479401042 0 0
-1.426353 2.400951 0.750871 -0.877565642 0 0.479456509 0 0
-1.426742 2.400951 0.750159 -0.877565642 0 0.479456509 0 0
-1.426742 2.399543 0.750159 -0.877565642 0 0.479456509 0 0
-1.394662 2.400951 0.732639 -0.479312097 0 -0.877644526 0 0
-1.426742 2.422768 0.750159 -0.479312097 0 -0.877644526 0 0
-1.394662 2.422768 0.732639 -0.479312097 0 -0.877644526 0 0
-1.394662 2.400951 0.732639 -0.479312097 0 -0.877644526 0 0
-1.426742 2.400951 0.750159 -0.479312097 0 -0.877644526 0 0
-1.426742 2.422768 0.750159 -0.479312097 0 -0.877644526 0 0
-1.394662 2.400951 0.732639 0 1 0 0 0
-1.428493 2.400951 0.746953 0 1 0 0 0
-1.426742 2.400951 0.750159 0 1 0 0 0
-1.394662 2.400951 0.732639 0 1 0 0 0
-1.396413 2.400951 0.729434 0 1 0 0 0
-1.428493 2.400951 0.746953 0 1 0 0 0
-1.426742 2.400951 0.750159 -0.8776339 0 0.479331553 0 0
-1.428493 2.399543 0.746953 -0.8776339 0 0.479331553 0 0
-1.426742 2.399543 0.750159 -0.8776339 0 0.479331553 0 0
-1.426742 2.400951 0.750159 -0.8776339 0 0.479331553 0 0
-1.428493 2.400951 0.746953 -0.8776339 0 0.479331553 0 0
-1.428493 2.399543 0.746953 -0.8776339 0 0.479331553 0 0
-1.394662 2.399543 0.732639 0.877570981 0 -0.479446736 0 0
-1.396413 2.400951 0.729434 0.877570981 0 -0.479446736 0 0
-1.394662 2.400951 0.732639 0.877570981 0 -0.479446736 0 0
-1.394662 2.399543 0.732639 0.877570981 0 -0.479446736 0 0
-1.396413 2.399543 0.729434 0.877570981 0 -0.479446736 0 0
-1.396413 2.400951 0.729434 0.877570981 0 -0.479446736 0 0
-1.426742 2.399543 0.750159 0 -1 0 0 0
-1.396413 2.399543 0.729434 0 -1 0 0 0
-1.394662 2.399543 0.732639 0 -1 0 0 0
-1.426742 2.399543 0.750159 0 -1 -0 0 0
-1.428493 2.399543 0.746953 0 -1 -0 0 0
-1.396413 2.399543 0.729434 0 -1 -0 0 0
-1.396413 2.399543 0.729434 -0.479291024 0 -0.877656034 0 0
-1.428493 2.400951 0.746953 -0.479291024 0 -0.877656034 0 0
-1.396413 2.400951 0.729434 -0.479291024 0 -0.877656034 0 0
-1.396413 2.399543 0.729434 -0.479291024 0 -0.877656034 0 0
-1.428493 2.399543 0.746953 -0.479291024 0 -0.877656034 0 0
-1.428493 2.400951 0.746953 -0.479291024 0 -0.877656034 0 0
3 0 1 2
3 3 4 5
3 6 7 8
3 9 10 11
3 12 13 14
3 15 16 17
3 18 19 20
3 21 22 23
3 24 25 26
3 27 28 29
3 30 31 32
3 33 34 35
3 36 37 38
3 39 40 41
3 42 43 44
3 45 46 47
3 48 49 50
3 51 52 53
3 54 55 56
3 57 58 59
3 60 61 62
3 63 64 65
3 66 67 68
3 69 70 71
3 72 73 74
3 75 76 77
3 78 79 80
3 81 82 83
