ply
format ascii 1.0
element vertex 168
property float x
property float y
property float z
property float nx
property float ny
property float nz
property float u
property float v
element face 56
property list uchar int vertex_indices
end_header
-1.67023 2.790362 0.894083 -0.479302073 0 -0.87765 0 0
-1.676789 2.738335 0.897665 -0.479302073 0 -0.87765 0 0
-1.676789 2.790362 0.897665 -0.479302073 0 -0.87765 0 0
-1.67023 2.790362 0.894083 -0.479302073 -0 -0.87765 0 0
-1.67023 2.738335 0.894083 -0.479302073 -0 -0.87765 0 0
-1.676789 2.738335 0.897665 -0.479302073 -0 -0.87765 0 0
-1.66275 2.790362 0.923373 0.479302073 0 0.87765 0 0
-1.656191 2.738335 0.919791 0.479302073 0 0.87765 0 0
-1.656191 2.790362 0.919791 0.479302073 0 0.87765 0 0
-1.66275 2.790362 0.923373 0.479302073 0 0.87765 0 0
-1.66275 2.738335 0.923373 0.479302073 0 0.87765 0 0
-1.656191 2.738335 0.919791 0.479302073 0 0.87765 0 0
-1.67211 2.790362 0.906234 0 1 0 0 0
-1.67023 2.790362 0.894083 0 1 0 0 0
-1.676789 2.790362 0.897665 0 1 0 0 0
-1.67211 2.790362 0.906234 0 1 0 0 0
-1.66555 2.790362 0.902652 0 1 0 0 0
-1.67023 2.790362 0.894083 0 1 0 0 0
-1.66555 2.790362 0.902652 0 1 -0 0 0
-1.66743 2.790362 0.914804 0 1 -0 0 0
-1.660871 2.790362 0.911221 0 1 -0 0 0
-1.66555 2.790362 0.902652 0 1 0 0 0
-1.67211 2.790362 0.906234 0 1 0 0 0
-1.66743 2.790362 0.914804 0 1 0 0 0
-1.660871 2.790362 0.911221 0 1 -0 0 0
-1.66275 2.790362 0.923373 0 1 -0 0 0
-1.656191 2.790362 0.919791 0 1 -0 0 0
-1.660871 2.790362 0.911221 0 1 0 0 0
-1.66743 2.790362 0.914804 0 1 0 0 0
-1.66275 2.790362 0.923373 0 1 0 0 0
-1.656191 2.790362 0.919791 0.87766064 0 -0.47928259 0 0
-1.660871 2.731864 0.911221 0.87766064 0 -0.47928259 0 0
-1.660871 2.790362 0.911221 0.87766064 0 -0.47928259 0 0
-1.656191 2.790362 0.919791 0.87766064 0 -0.47928259 0 0
-1.656191 2.738335 0.919791 0.87766064 0 -0.47928259 0 0
-1.660871 2.731864 0.911221 0.87766064 0 -0.47928259 0 0
-1.660871 2.790362 0.911221 0.877680196 0 -0.479246778 0 0
-1.66555 2.731864 0.902652 0.877680196 0 -0.479246778 0 0
-1.66555 2.790362 0.902652 0.877680196 0 -0.479246778 0 0
-1.660871 2.790362 0.911221 0.877680196 0 -0.479246778 0 0
-1.660871 2.731864 0.911221 0.877680196 0 -0.479246778 0 0
-1.66555 2.731864 0.902652 0.877680196 0 -0.479246778 0 0
-1.66555 2.790362 0.902652 0.877637112 0 -0.479325672 0 0
-1.67023 2.738335 0.894083 0.877637112 0 -0.479325672 0 0
-1.67023 2.790362 0.894083 0.877637112 0 -0.479325672 0 0
-1.66555 2.790362 0.902652 0.877637112 0 -0.479325672 0 0
-1.66555 2.731864 0.902652 0.877637112 0 -0.479325672 0 0
-1.67023 2.738335 0.894083 0.877637112 0 -0.479325672 0 0
-1.676789 2.790362 0.897665 -0.877680196 0 0.479246778 0 0
-1.67211 2.731864 0.906234 -0.877680196 0 0.479246778 0 0
-1.67211 2.790362 0.906234 -0.877680196 0 0.479246778 0 0
-1.676789 2.790362 0.897665 -0.877680196 0 0.479246778 0 0
-1.676789 2.738335 0.897665 -0.877680196 0 0.479246778 0 0
-1.67211 2.731864 0.906234 -0.877680196 0 0.479246778 0 0
-1.67211 2.790362 0.906234 -0.87766064 0 0.47928259 0 0
-1.66743 2.731864 0.914804 -0.87766064 0 0.47928259 0 0
-1.66743 2.790362 0.914804 -0.87766064 0 0.47928259 0 0
-1.67211 2.790362 0.906234 -0.87766064 0 0.47928259 0 0
-1.67211 2.731864 0.906234 -0.87766064 0 0.47928259 0 0
-1.66743 2.731864 0.914804 -0.87766064 0 0.47928259 0 0
-1.66743 2.790362 0.914804 -0.877637112 0 0.479325672 0 0
-1.66275 2.738335 0.923373 -0.877637112 0 0.479325672 0 0
-1.66275 2.790362 0.923373 -0.877637112 0 0.479325672 0 0
-1.66743 2.790362 0.914804 -0.877637112 0 0.479325672 0 0
-1.66743 2.731864 0.914804 -0.877637112 0 0.479325672 0 0
-1.66275 2.738335 0.923373 -0.877637112 0 0.479325672 0 0
-1.656191 2.738335 0.919791 0.264827797 -0.833573089 0.484790824 0 0
-1.66743 2.731864 0.914804 0.264827797 -0.833573089 0.484790824 0 0
-1.660871 2.731864 0.911221 0.264827797 -0.833573089 0.484790824 0 0
-1.656191 2.738335 0.919791 0.264787402 -0.833550226 0.484852197 0 0
-1.66275 2.738335 0.923373 0.264787402 -0.833550226 0.484852197 0 0
-1.66743 2.731864 0.914804 0.264787402 -0.833550226 0.484852197 0 0
-1.660871 2.731864 0.911221 0 -1 0 0 0
-1.67211 2.731864 0.906234 0 -1 0 0 0
-1.66555 2.731864 0.902652 0 -1 0 0 0
-1.660871 2.731864 0.911221 -0 -1 0 0 0
-1.66743 2.731864 0.914804 -0 -1 0 0 0
-1.67211 2.731864 0.906234 -0 -1 0 0 0
-1.66555 2.731864 0.902652 -0.264787402 -0.833550226 -0.484852197 0 0
-1.676789 2.738335 0.897665 -0.264787402 -0.833550226 -0.484852197 0 0
-1.67023 2.738335 0.894083 -0.264787402 -0.833550226 -0.484852197 0 0
-1.66555 2.731864 0.902652 -0.264765339 -0.833537738 -0.484885713 0 0
-1.67211 2.731864 0.906234 -0.264765339 -0.833537738 -0.484885713 0 0
-1.676789 2.738335 0.897665 -0.264765339 -0.833537738 -0.484885713 0 0
-1.140887 2.790362 0.604999 -0.479302073 -0 -0.87765 0 0
-1.134328 2.738335 0.601417 -0.479302073 -0 -0.87765 0 0
-1.140887 2.738335 0.604999 -0.479302073 -0 -0.87765 0 0
-1.140887 2.790362 0.604999 -0.479302073 0 -0.87765 0 0
-1.134328 2.790362 0.601417 -0.479302073 0 -0.87765 0 0
-1.134328 2.738335 0.601417 -0.479302073 0 -0.87765 0 0
-1.120288 2.790362 0.627124 0.479348845 0 0.877624455 0 0
-1.126848 2.738335 0.630707 0.479348845 0 0.877624455 0 0
-1.120288 2.738335 0.627124 0.479348845 0 0.877624455 0 0
-1.120288 2.790362 0.627124 0.479348845 0 0.877624455 0 0
-1.126848 2.790362 0.630707 0.479348845 0 0.877624455 0 0
-1.126848 2.738335 0.630707 0.479348845 0 0.877624455 0 0
-1.129648 2.790362 0.609986 0 1 0 0 0
-1.140887 2.790362 0.604999 0 1 0 0 0
-1.136207 2.790362 0.613568 0 1 0 0 0
-1.129648 2.790362 0.609986 0 1 0 0 0
-1.134328 2.790362 0.601417 0 1 0 0 0
-1.140887 2.790362 0.604999 0 1 0 0 0
-1.136207 2.790362 0.613568 -0 1 0 0 0
-1.124968 2.790362 0.618555 -0 1 0 0 0
-1.129648 2.790362 0.609986 -0 1 0 0 0
-1.136207 2.790362 0.613568 0 1 0 0 0
-1.131527 2.790362 0.622137 0 1 0 0 0
-1.124968 2.790362 0.618555 0 1 0 0 0
-1.131527 2.790362 0.622137 -0 1 0 0 0
-1.120288 2.790362 0.627124 -0 1 0 0 0
-1.124968 2.790362 0.618555 -0 1 0 0 0
-1.131527 2.790362 0.622137 0 1 0 0 0
-1.126848 2.790362 0.630707 0 1 0 0 0
-1.120288 2.790362 0.627124 0 1 0 0 0
-1.126848 2.790362 0.630707 -0.877703717 0 0.479203698 0 0
-1.131527 2.731864 0.622137 -0.877703717 0 0.479203698 0 0
-1.126848 2.738335 0.630707 -0.877703717 0 0.479203698 0 0
-1.126848 2.790362 0.630707 -0.877703717 0 0.479203698 0 0
-1.131527 2.790362 0.622137 -0.877703717 0 0.479203698 0 0
-1.131527 2.731864 0.622137 -0.877703717 0 0.479203698 0 0
-1.131527 2.790362 0.622137 -0.877637112 0 0.479325672 0 0
-1.136207 2.731864 0.613568 -0.877637112 0 0.479325672 0 0
-1.131527 2.731864 0.622137 -0.877637112 0 0.479325672 0 0
-1.131527 2.790362 0.622137 -0.877637112 0 0.479325672 0 0
-1.136207 2.790362 0.613568 -0.877637112 0 0.479325672 0 0
-1.136207 2.731864 0.613568 -0.877637112 0 0.479325672 0 0
-1.136207 2.790362 0.613568 -0.877637112 0 0.479325672 0 0
-1.140887 2.738335 0.604999 -0.877637112 0 0.479325672 0 0
-1.136207 2.731864 0.613568 -0.877637112 0 0.479325672 0 0
-1.136207 2.790362 0.613568 -0.877637112 0 0.479325672 0 0
-1.140887 2.790362 0.604999 -0.877637112 0 0.479325672 0 0
-1.140887 2.738335 0.604999 -0.877637112 0 0.479325672 0 0
-1.134328 2.790362 0.601417 0.877637112 0 -0.479325672 0 0
-1.129648 2.731864 0.609986 0.877637112 0 -0.479325672 0 0
-1.134328 2.738335 0.601417 0.877637112 0 -0.479325672 0 0
-1.134328 2.790362 0.601417 0.877637112 0 -0.479325672 0 0
-1.129648 2.790362 0.609986 0.877637112 0 -0.479325672 0 0
-1.129648 2.731864 0.609986 0.877637112 0 -0.479325672 0 0
-1.129648 2.790362 0.609986 0.877637112 0 -0.479325672 0 0
-1.124968 2.731864 0.618555 0.877637112 0 -0.479325672 0 0
-1.129648 2.731864 0.609986 0.877637112 0 -0.479325672 0 0
-1.129648 2.790362 0.609986 0.877637112 0 -0.479325672 0 0
-1.124968 2.790362 0.618555 0.877637112 0 -0.479325672 0 0
-1.124968 2.731864 0.618555 0.877637112 0 -0.479325672 0 0
-1.124968 2.790362 0.618555 0.877637112 0 -0.479325672 0 0
-1.120288 2.738335 0.627124 0.877637112 0 -0.479325672 0 0
-1.124968 2.731864 0.618555 0.877637112 0 -0.479325672 0 0
-1.124968 2.790362 0.618555 0.877637112 0 -0.479325672 0 0
-1.120288 2.790362 0.627124 0.877637112 0 -0.479325672 0 0
-1.120288 2.738335 0.627124 0.877637112 0 -0.479325672 0 0
-1.126848 2.738335 0.630707 0.26481324 -0.833550226 0.484838085 0 0
-1.124968 2.731864 0.618555 0.26481324 -0.833550226 0.484838085 0 0
-1.120288 2.738335 0.627124 0.26481324 -0.833550226 0.484838085 0 0
-1.126848 2.738335 0.630707 0.264779896 -0.833560605 0.484838453 0 0
-1.131527 2.731864 0.622137 0.264779896 -0.833560605 0.484838453 0 0
-1.124968 2.731864 0.618555 0.264779896 -0.833560605 0.484838453 0 0
-1.131527 2.731864 0.622137 0 -1 0 0 0
-1.129648 2.731864 0.609986 0 -1 0 0 0
-1.124968 2.731864 0.618555 0 -1 0 0 0
-1.131527 2.731864 0.622137 0 -1 -0 0 0
-1.136207 2.731864 0.613568 0 -1 -0 0 0
-1.129648 2.731864 0.609986 0 -1 -0 0 0
-1.136207 2.731864 0.613568 -0.264787402 -0.833550226 -0.484852197 0 0
-1.134328 2.738335 0.601417 -0.264787402 -0.833550226 -0.484852197 0 0
-1.129648 2.731864 0.609986 -0.264787402 -0.833550226 -0.484852197 0 0
-1.136207 2.731864 0.613568 -0.264787402 -0.833550226 -0.484852197 0 0
-1.140887 2.738335 0.604999 -0.264787402 -0.833550226 -0.484852197 0 0
-1.134328 2.738335 0.601417 -0.264787402 -0.833550226 -0.484852197 0 0
3 0 1 2
3 3 4 5
3 6 7 8
3 9 10 11
3 12 13 14
3 15 16 17
3 18 19 20
3 21 22 23
3 24 25 26
3 27 28 29
3 30 31 32
3 33 34 35
3 36 37 38
3 39 40 41
3 42 43 44
3 45 46 47
3 48 49 50
3 51 52 53
3 54 55 56
3 57 58 59
3 60 61 62
3 63 64 65
3 66 67 68
3 69 70 71
3 72 73 74
3 75 76 77
3 78 79 80
3 81 82 83
3 84 85 86
3 87 88 89
3 90 91 92
3 93 94 95
3 96 97 98
3 99 100 101
3 102 103 104
3 105 106 107
3 108 109 110
3 111 112 113
3 114 115 116
3 117 118 119
3 120 121 122
3 123 124 125
3 126 127 128
3 129 130 131
3 132 133 134
3 135 136 137
3 138 139 140
3 141 142 143
3 144 145 146
3 147 148 149
3 150 151 152
3 153 154 155
3 156 157 158
3 159 160 161
3 162 163 164
3 165 166 167
