ply
format ascii 1.0
element vertex 1152
property float x
property float y
property float z
property float nx
property float ny
property float nz
property float u
property float v
element face 384
property list uchar int vertex_indices
end_header
-1.657614 2.771852 0.912356 -0.522940351 0.520326416 0.675125033 0 0
-1.652944 2.768523 0.918539 -0.522940351 0.520326416 0.675125033 0 0
-1.656352 2.773193 0.9123 -0.522940351 0.520326416 0.675125033 0 0
-1.657614 2.771852 0.912356 -0.522668225 0.52064433 0.675090666 0 0
-1.654434 2.767494 0.918179 -0.522668225 0.52064433 0.675090666 0 0
-1.652944 2.768523 0.918539 -0.522668225 0.52064433 0.675090666 0 0
-1.657614 2.771852 0.912356 -0.586201792 0.46174211 0.665703901 0 0
-1.656198 2.766121 0.917578 -0.586201792 0.46174211 0.665703901 0 0
-1.654434 2.767494 0.918179 -0.586201792 0.46174211 0.665703901 0 0
-1.657614 2.771852 0.912356 -0.586039287 0.461846588 0.665774498 0 0
-1.659075 2.770063 0.912311 -0.586039287 0.461846588 0.665774498 0 0
-1.656198 2.766121 0.917578 -0.586039287 0.461846588 0.665774498 0 0
-1.657614 2.771852 0.912356 -0.677794512 0.541001648 0.497907437 0 0
-1.662446 2.77152 0.906139 -0.677794512 0.541001648 0.497907437 0 0
-1.659075 2.770063 0.912311 -0.677794512 0.541001648 0.497907437 0 0
-1.657614 2.771852 0.912356 -0.677718671 0.541158597 0.49784011 0 0
-1.661339 2.773462 0.905535 -0.677718671 0.541158597 0.49784011 0 0
-1.662446 2.77152 0.906139 -0.677718671 0.541158597 0.49784011 0 0
-1.657614 2.771852 0.912356 -0.626331701 0.609576953 0.485926474 0 0
-1.660344 2.774918 0.904991 -0.626331701 0.609576953 0.485926474 0 0
-1.661339 2.773462 0.905535 -0.626331701 0.609576953 0.485926474 0 0
-1.657614 2.771852 0.912356 -0.626254606 0.609653527 0.485929774 0 0
-1.656352 2.773193 0.9123 -0.626254606 0.609653527 0.485929774 0 0
-1.660344 2.774918 0.904991 -0.626254606 0.609653527 0.485929774 0 0
-1.652345 2.760859 0.922004 0.437241699 -0.341902865 -0.831818566 0 0
-1.652944 2.768523 0.918539 0.437241699 -0.341902865 -0.831818566 0 0
-1.650706 2.761415 0.922637 0.437241699 -0.341902865 -0.831818566 0 0
-1.652345 2.760859 0.922004 0.437128104 -0.341933114 -0.831865835 0 0
-1.654434 2.767494 0.918179 0.437128104 -0.341933114 -0.831865835 0 0
-1.652944 2.768523 0.918539 0.437128104 -0.341933114 -0.831865835 0 0
-1.652345 2.760859 0.922004 0.510252619 -0.30329059 -0.804771447 0 0
-1.656198 2.766121 0.917578 0.510252619 -0.30329059 -0.804771447 0 0
-1.654434 2.767494 0.918179 0.510252619 -0.30329059 -0.804771447 0 0
-1.652345 2.760859 0.922004 0.510156232 -0.303383204 -0.804797646 0 0
-1.654308 2.760118 0.921039 0.510156232 -0.303383204 -0.804797646 0 0
-1.656198 2.766121 0.917578 0.510156232 -0.303383204 -0.804797646 0 0
-1.652345 2.760859 0.922004 0.472134231 -0.112045515 -0.874376961 0 0
-1.65361 2.753086 0.922317 0.472134231 -0.112045515 -0.874376961 0 0
-1.654308 2.760118 0.921039 0.472134231 -0.112045515 -0.874376961 0 0
-1.652345 2.760859 0.922004 0.472163366 -0.112049602 -0.874360705 0 0
-1.651573 2.753086 0.923417 0.472163366 -0.112049602 -0.874360705 0 0
-1.65361 2.753086 0.922317 0.472163366 -0.112049602 -0.874360705 0 0
-1.652345 2.760859 0.922004 0.394591501 -0.126258129 -0.910140886 0 0
-1.64988 2.753086 0.924151 0.394591501 -0.126258129 -0.910140886 0 0
-1.651573 2.753086 0.923417 0.394591501 -0.126258129 -0.910140886 0 0
-1.652345 2.760859 0.922004 0.39439401 -0.126341216 -0.910214954 0 0
-1.650706 2.761415 0.922637 0.39439401 -0.126341216 -0.910214954 0 0
-1.64988 2.753086 0.924151 0.39439401 -0.126341216 -0.910214954 0 0
-1.652345 2.745313 0.922004 -0.43707493 -0.34194727 0.831887955 0 0
-1.652944 2.737649 0.918539 -0.43707493 -0.34194727 0.831887955 0 0
-1.650706 2.744758 0.922637 -0.43707493 -0.34194727 0.831887955 0 0
-1.652345 2.745313 0.922004 -0.437306742 -0.341885541 0.831791494 0 0
-1.654434 2.738679 0.918179 -0.437306742 -0.341885541 0.831791494 0 0
-1.652944 2.737649 0.918539 -0.437306742 -0.341885541 0.831791494 0 0
-1.652345 2.745313 0.922004 -0.510268075 -0.303319507 0.804750749 0 0
-1.656198 2.740052 0.917578 -0.510268075 -0.303319507 0.804750749 0 0
-1.654434 2.738679 0.918179 -0.510268075 -0.303319507 0.804750749 0 0
-1.652345 2.745313 0.922004 -0.510161854 -0.303421582 0.804779613 0 0
-1.654308 2.746054 0.921039 -0.510161854 -0.303421582 0.804779613 0 0
-1.656198 2.740052 0.917578 -0.510161854 -0.303421582 0.804779613 0 0
-1.652345 2.745313 0.922004 -0.472134231 -0.112045515 0.874376961 0 0
-1.65361 2.753086 0.922317 -0.472134231 -0.112045515 0.874376961 0 0
-1.654308 2.746054 0.921039 -0.472134231 -0.112045515 0.874376961 0 0
-1.652345 2.745313 0.922004 -0.472163366 -0.112049602 0.874360705 0 0
-1.651573 2.753086 0.923417 -0.472163366 -0.112049602 0.874360705 0 0
-1.65361 2.753086 0.922317 -0.472163366 -0.112049602 0.874360705 0 0
-1.652345 2.745313 0.922004 -0.394591501 -0.126258129 0.910140886 0 0
-1.64988 2.753086 0.924151 -0.394591501 -0.126258129 0.910140886 0 0
-1.651573 2.753086 0.923417 -0.394591501 -0.126258129 0.910140886 0 0
-1.652345 2.745313 0.922004 -0.394334125 -0.126366407 0.910237402 0 0
-1.650706 2.744758 0.922637 -0.394334125 -0.126366407 0.910237402 0 0
-1.64988 2.753086 0.924151 -0.394334125 -0.126366407 0.910237402 0 0
-1.657614 2.734321 0.912356 -0.626254606 -0.609653527 0.485929774 0 0
-1.660344 2.731255 0.904991 -0.626254606 -0.609653527 0.485929774 0 0
-1.656352 2.73298 0.9123 -0.626254606 -0.609653527 0.485929774 0 0
-1.657614 2.734321 0.912356 -0.626331701 -0.609576953 0.485926474 0 0
-1.661339 2.732711 0.905535 -0.626331701 -0.609576953 0.485926474 0 0
-1.660344 2.731255 0.904991 -0.626331701 -0.609576953 0.485926474 0 0
-1.657614 2.734321 0.912356 -0.677718671 -0.541158597 0.49784011 0 0
-1.662446 2.734653 0.906139 -0.677718671 -0.541158597 0.49784011 0 0
-1.661339 2.732711 0.905535 -0.677718671 -0.541158597 0.49784011 0 0
-1.657614 2.734321 0.912356 -0.677688867 -0.541220257 0.497813653 0 0
-1.659075 2.736109 0.912311 -0.677688867 -0.541220257 0.497813653 0 0
-1.662446 2.734653 0.906139 -0.677688867 -0.541220257 0.497813653 0 0
-1.657614 2.734321 0.912356 -0.58586366 -0.461959465 0.665850753 0 0
-1.656198 2.740052 0.917578 -0.58586366 -0.461959465 0.665850753 0 0
-1.659075 2.736109 0.912311 -0.58586366 -0.461959465 0.665850753 0 0
-1.657614 2.734321 0.912356 -0.586201792 -0.46174211 0.665703901 0 0
-1.654434 2.738679 0.918179 -0.586201792 -0.46174211 0.665703901 0 0
-1.656198 2.740052 0.917578 -0.586201792 -0.46174211 0.665703901 0 0
-1.657614 2.734321 0.912356 -0.522883133 -0.520457569 0.675068255 0 0
-1.652944 2.737649 0.918539 -0.522883133 -0.520457569 0.675068255 0 0
-1.654434 2.738679 0.918179 -0.522883133 -0.520457569 0.675068255 0 0
-1.657614 2.734321 0.912356 -0.522971724 -0.520354037 0.675079441 0 0
-1.656352 2.73298 0.9123 -0.522971724 -0.520354037 0.675079441 0 0
-1.652944 2.737649 0.918539 -0.522971724 -0.520354037 0.675079441 0 0
-1.665065 2.734321 0.898713 -0.850478132 -0.520645034 0.0749379403 0 0
-1.667743 2.737649 0.891442 -0.850478132 -0.520645034 0.0749379403 0 0
-1.664335 2.73298 0.897681 -0.850478132 -0.520645034 0.0749379403 0 0
-1.665065 2.734321 0.898713 -0.850677039 -0.520285684 0.0751756777 0 0
-1.668245 2.738679 0.89289 -0.850677039 -0.520285684 0.0751756777 0 0
-1.667743 2.737649 0.891442 -0.850677039 -0.520285684 0.0751756777 0 0
-1.665065 2.734321 0.898713 -0.87692564 -0.461769863 0.13330422 0 0
-1.668693 2.740052 0.894699 -0.87692564 -0.461769863 0.13330422 0 0
-1.668245 2.738679 0.89289 -0.87692564 -0.461769863 0.13330422 0 0
-1.665065 2.734321 0.898713 -0.876919644 -0.461791893 0.133267346 0 0
-1.665816 2.736109 0.899967 -0.876919644 -0.461791893 0.133267346 0 0
-1.668693 2.740052 0.894699 -0.876919644 -0.461791893 0.133267346 0 0
-1.665065 2.734321 0.898713 -0.785251429 -0.54101839 0.30113003 0 0
-1.662446 2.734653 0.906139 -0.785251429 -0.54101839 0.30113003 0 0
-1.665816 2.736109 0.899967 -0.785251429 -0.54101839 0.30113003 0 0
-1.665065 2.734321 0.898713 -0.785138163 -0.541200449 0.301098222 0 0
-1.661339 2.732711 0.905535 -0.785138163 -0.541200449 0.301098222 0 0
-1.662446 2.734653 0.906139 -0.785138163 -0.541200449 0.301098222 0 0
-1.665065 2.734321 0.898713 -0.747392565 -0.609523667 0.264358193 0 0
-1.660344 2.731255 0.904991 -0.747392565 -0.609523667 0.264358193 0 0
-1.661339 2.732711 0.905535 -0.747392565 -0.609523667 0.264358193 0 0
-1.665065 2.734321 0.898713 -0.74718952 -0.60992323 0.26401037 0 0
-1.664335 2.73298 0.897681 -0.74718952 -0.60992323 0.26401037 0 0
-1.660344 2.731255 0.904991 -0.74718952 -0.60992323 0.26401037 0 0
-1.670334 2.745313 0.889065 0.936184786 0.341863252 0.0817775274 0 0
-1.667743 2.737649 0.891442 0.936184786 0.341863252 0.0817775274 0 0
-1.669981 2.744758 0.887344 0.936184786 0.341863252 0.0817775274 0 0
-1.670334 2.745313 0.889065 0.936241266 0.341784155 0.0814609362 0 0
-1.668245 2.738679 0.89289 0.936241266 0.341784155 0.0814609362 0 0
-1.667743 2.737649 0.891442 0.936241266 0.341784155 0.0814609362 0 0
-1.670334 2.745313 0.889065 0.95286019 0.303355519 0.00573479128 0 0
-1.668693 2.740052 0.894699 0.95286019 0.303355519 0.00573479128 0 0
-1.668245 2.738679 0.89289 0.95286019 0.303355519 0.00573479128 0 0
-1.670334 2.745313 0.889065 0.952859307 0.303358237 0.00573758675 0 0
-1.670583 2.746054 0.891239 0.952859307 0.303358237 0.00573758675 0 0
-1.668693 2.740052 0.894699 0.952859307 0.303358237 0.00573758675 0 0
-1.670334 2.745313 0.889065 0.990846947 0.112036994 0.0752996674 0 0
-1.671281 2.753086 0.889961 0.990846947 0.112036994 0.0752996674 0 0
-1.670583 2.746054 0.891239 0.990846947 0.112036994 0.0752996674 0 0
-1.670334 2.745313 0.889065 0.990832944 0.112009345 0.0755247285 0 0
-1.671105 2.753086 0.887652 0.990832944 0.112009345 0.0755247285 0 0
-1.671281 2.753086 0.889961 0.990832944 0.112009345 0.0755247285 0 0
-1.670334 2.745313 0.889065 0.97899512 0.126213338 0.160121046 0 0
-1.670807 2.753086 0.88583 0.97899512 0.126213338 0.160121046 0 0
-1.671105 2.753086 0.887652 0.97899512 0.126213338 0.160121046 0 0
-1.670334 2.745313 0.889065 0.978998473 0.126207066 0.160105485 0 0
-1.669981 2.744758 0.887344 0.978998473 0.126207066 0.160105485 0 0
-1.670807 2.753086 0.88583 0.978998473 0.126207066 0.160105485 0 0
-1.670334 2.760859 0.889065 -0.936216515 0.341818838 -0.0815997419 0 0
-1.667743 2.768523 0.891442 -0.936216515 0.341818838 -0.0815997419 0 0
-1.669981 2.761415 0.887344 -0.936216515 0.341818838 -0.0815997419 0 0
-1.670334 2.760859 0.889065 -0.936207302 0.341831741 -0.0816513843 0 0
-1.668245 2.767494 0.89289 -0.936207302 0.341831741 -0.0816513843 0 0
-1.667743 2.768523 0.891442 -0.936207302 0.341831741 -0.0816513843 0 0
-1.670334 2.760859 0.889065 -0.952869251 0.303326599 -0.00575898517 0 0
-1.668693 2.766121 0.894699 -0.952869251 0.303326599 -0.00575898517 0 0
-1.668245 2.767494 0.89289 -0.952869251 0.303326599 -0.00575898517 0 0
-1.670334 2.760859 0.889065 -0.952871437 0.303319862 -0.00575205622 0 0
-1.670583 2.760118 0.891239 -0.952871437 0.303319862 -0.00575205622 0 0
-1.668693 2.766121 0.894699 -0.952871437 0.303319862 -0.00575205622 0 0
-1.670334 2.760859 0.889065 -0.990846947 0.112036994 -0.0752996674 0 0
-1.671281 2.753086 0.889961 -0.990846947 0.112036994 -0.0752996674 0 0
-1.670583 2.760118 0.891239 -0.990846947 0.112036994 -0.0752996674 0 0
-1.670334 2.760859 0.889065 -0.990832944 0.112009345 -0.0755247285 0 0
-1.671105 2.753086 0.887652 -0.990832944 0.112009345 -0.0755247285 0 0
-1.671281 2.753086 0.889961 -0.990832944 0.112009345 -0.0755247285 0 0
-1.670334 2.760859 0.889065 -0.97899512 0.126213338 -0.160121046 0 0
-1.670807 2.753086 0.88583 -0.97899512 0.126213338 -0.160121046 0 0
-1.671105 2.753086 0.887652 -0.97899512 0.126213338 -0.160121046 0 0
-1.670334 2.760859 0.889065 -0.979011927 0.126181897 -0.160043042 0 0
-1.669981 2.761415 0.887344 -0.979011927 0.126181897 -0.160043042 0 0
-1.670807 2.753086 0.88583 -0.979011927 0.126181897 -0.160043042 0 0
-1.665065 2.771852 0.898713 0.850499549 -0.520617396 -0.0748868769 0 0
-1.667743 2.768523 0.891442 0.850499549 -0.520617396 -0.0748868769 0 0
-1.664335 2.773193 0.897681 0.850499549 -0.520617396 -0.0748868769 0 0
-1.665065 2.771852 0.898713 0.850579806 -0.520472453 -0.074982798 0 0
-1.668245 2.767494 0.89289 0.850579806 -0.520472453 -0.074982798 0 0
-1.667743 2.768523 0.891442 0.850579806 -0.520472453 -0.074982798 0 0
-1.665065 2.771852 0.898713 0.87692564 -0.461769863 -0.13330422 0 0
-1.668693 2.766121 0.894699 0.87692564 -0.461769863 -0.13330422 0 0
-1.668245 2.767494 0.89289 0.87692564 -0.461769863 -0.13330422 0 0
-1.665065 2.771852 0.898713 0.876950342 -0.461679041 -0.133456218 0 0
-1.665816 2.770063 0.899967 0.876950342 -0.461679041 -0.133456218 0 0
-1.668693 2.766121 0.894699 0.876950342 -0.461679041 -0.133456218 0 0
-1.665065 2.771852 0.898713 0.785387359 -0.54079979 -0.301168196 0 0
-1.662446 2.77152 0.906139 0.785387359 -0.54079979 -0.301168196 0 0
-1.665816 2.770063 0.899967 0.785387359 -0.54079979 -0.301168196 0 0
-1.665065 2.771852 0.898713 0.785138163 -0.541200449 -0.301098222 0 0
-1.661339 2.773462 0.905535 0.785138163 -0.541200449 -0.301098222 0 0
-1.662446 2.77152 0.906139 0.785138163 -0.541200449 -0.301098222 0 0
-1.665065 2.771852 0.898713 0.747392565 -0.609523667 -0.264358193 0 0
-1.660344 2.774918 0.904991 0.747392565 -0.609523667 -0.264358193 0 0
-1.661339 2.773462 0.905535 0.747392565 -0.609523667 -0.264358193 0 0
-1.665065 2.771852 0.898713 0.74718952 -0.60992323 -0.26401037 0 0
-1.664335 2.773193 0.897681 0.74718952 -0.60992323 -0.26401037 0 0
-1.660344 2.774918 0.904991 0.74718952 -0.60992323 -0.26401037 0 0
-1.651946 2.77364 0.910105 0.263089982 0.835837271 0.481829553 0 0
-1.645584 2.768867 0.914911 0.263089982 0.835837271 0.481829553 0 0
-1.649067 2.77364 0.908533 0.263089982 0.835837271 0.481829553 0 0
-1.651946 2.77364 0.910105 0.263089982 0.835837271 0.481829553 0 0
-1.648463 2.768867 0.916483 0.263089982 0.835837271 0.481829553 0 0
-1.645584 2.768867 0.914911 0.263089982 0.835837271 0.481829553 0 0
-1.651946 2.77364 0.910105 0.263169266 0.83583727 0.481786255 0 0
-1.650788 2.768867 0.917753 0.263169266 0.83583727 0.481786255 0 0
-1.648463 2.768867 0.916483 0.263169266 0.83583727 0.481786255 0 0
-1.651946 2.77364 0.910105 0.263169266 0.83583727 0.481786255 0 0
-1.654271 2.77364 0.911375 0.263169266 0.83583727 0.481786255 0 0
-1.650788 2.768867 0.917753 0.263169266 0.83583727 0.481786255 0 0
-1.651946 2.77364 0.910105 0.0972055006 0.979225779 0.177954952 0 0
-1.658352 2.775403 0.903903 0.0972055006 0.979225779 0.177954952 0 0
-1.654271 2.77364 0.911375 0.0972055006 0.979225779 0.177954952 0 0
-1.651946 2.77364 0.910105 0.0971785545 0.979223512 0.17798214 0 0
-1.656026 2.775403 0.902633 0.0971785545 0.979223512 0.17798214 0 0
-1.658352 2.775403 0.903903 0.0971785545 0.979223512 0.17798214 0 0
-1.651946 2.77364 0.910105 0.0972074713 0.979223512 0.17796635 0 0
-1.653148 2.775403 0.901061 0.0972074713 0.979223512 0.17796635 0 0
-1.656026 2.775403 0.902633 0.0972074713 0.979223512 0.17796635 0 0
-1.651946 2.77364 0.910105 0.0971762164 0.979225779 0.177970946 0 0
-1.649067 2.77364 0.908533 0.0971762164 0.979225779 0.177970946 0 0
-1.653148 2.775403 0.901061 0.0971762164 0.979225779 0.177970946 0 0
-1.655488 2.77364 0.91204 0.263239424 0.835837263 0.481747937 0 0
-1.650788 2.768867 0.917753 0.263239424 0.835837263 0.481747937 0 0
-1.654271 2.77364 0.911375 0.263239424 0.835837263 0.481747937 0 0
-1.655488 2.77364 0.91204 0.26308506 0.835820658 0.481861057 0 0
-1.652006 2.768867 0.918418 0.26308506 0.835820658 0.481861057 0 0
-1.650788 2.768867 0.917753 0.26308506 0.835820658 0.481861057 0 0
-1.655488 2.77364 0.91204 -0.185636421 0.73541306 0.651695289 0 0
-1.652944 2.768523 0.918539 -0.185636421 0.73541306 0.651695289 0 0
-1.652006 2.768867 0.918418 -0.185636421 0.73541306 0.651695289 0 0
-1.655488 2.77364 0.91204 -0.184589032 0.735782297 0.651576013 0 0
-1.656352 2.773193 0.9123 -0.184589032 0.735782297 0.651576013 0 0
-1.652944 2.768523 0.918539 -0.184589032 0.735782297 0.651576013 0 0
-1.655488 2.77364 0.91204 -0.330497133 0.862162497 0.383988899 0 0
-1.660344 2.774918 0.904991 -0.330497133 0.862162497 0.383988899 0 0
-1.656352 2.773193 0.9123 -0.330497133 0.862162497 0.383988899 0 0
-1.655488 2.77364 0.91204 -0.330185329 0.86236152 0.383810183 0 0
-1.659569 2.775403 0.904568 -0.330185329 0.86236152 0.383810183 0 0
-1.660344 2.774918 0.904991 -0.330185329 0.86236152 0.383810183 0 0
-1.655488 2.77364 0.91204 0.0972314141 0.979225778 0.177940798 0 0
-1.658352 2.775403 0.903903 0.0972314141 0.979225778 0.177940798 0 0
-1.659569 2.775403 0.904568 0.0972314141 0.979225778 0.177940798 0 0
-1.655488 2.77364 0.91204 0.0972314141 0.979225778 0.177940798 0 0
-1.654271 2.77364 0.911375 0.0972314141 0.979225778 0.177940798 0 0
-1.658352 2.775403 0.903903 0.0972314141 0.979225778 0.177940798 0 0
-1.646175 2.7616 0.920672 -0.400559755 -0.548990051 -0.733595125 0 0
-1.645584 2.768867 0.914911 -0.400559755 -0.548990051 -0.733595125 0 0
-1.643296 2.7616 0.9191 -0.400559755 -0.548990051 -0.733595125 0 0
-1.646175 2.7616 0.920672 -0.400559755 -0.548990051 -0.733595125 0 0
-1.648463 2.768867 0.916483 -0.400559755 -0.548990051 -0.733595125 0 0
-1.645584 2.768867 0.914911 -0.400559755 -0.548990051 -0.733595125 0 0
-1.646175 2.7616 0.920672 -0.400680466 -0.548990054 -0.733529199 0 0
-1.650788 2.768867 0.917753 -0.400680466 -0.548990054 -0.733529199 0 0
-1.648463 2.768867 0.916483 -0.400680466 -0.548990054 -0.733529199 0 0
-1.646175 2.7616 0.920672 -0.400680466 -0.548990054 -0.733529199 0 0
-1.6485 2.7616 0.921942 -0.400680466 -0.548990054 -0.733529199 0 0
-1.650788 2.768867 0.917753 -0.400680466 -0.548990054 -0.733529199 0 0
-1.646175 2.7616 0.920672 -0.469415884 -0.202836677 -0.859363724 0 0
-1.647655 2.753086 0.92349 -0.469415884 -0.202836677 -0.859363724 0 0
-1.6485 2.7616 0.921942 -0.469415884 -0.202836677 -0.859363724 0 0
-1.646175 2.7616 0.920672 -0.469415884 -0.202836677 -0.859363724 0 0
-1.64533 2.753086 0.92222 -0.469415884 -0.202836677 -0.859363724 0 0
-1.647655 2.753086 0.92349 -0.469415884 -0.202836677 -0.859363724 0 0
-1.646175 2.7616 0.920672 -0.469274464 -0.202836683 -0.859440956 0 0
-1.642451 2.753086 0.920648 -0.469274464 -0.202836683 -0.859440956 0 0
-1.64533 2.753086 0.92222 -0.469274464 -0.202836683 -0.859440956 0 0
-1.646175 2.7616 0.920672 -0.469274464 -0.202836683 -0.859440956 0 0
-1.643296 2.7616 0.9191 -0.469274464 -0.202836683 -0.859440956 0 0
-1.642451 2.753086 0.920648 -0.469274464 -0.202836683 -0.859440956 0 0
-1.649718 2.7616 0.922607 -0.400533809 -0.548990049 -0.733609293 0 0
-1.650788 2.768867 0.917753 -0.400533809 -0.548990049 -0.733609293 0 0
-1.6485 2.7616 0.921942 -0.400533809 -0.548990049 -0.733609293 0 0
-1.649718 2.7616 0.922607 -0.400533809 -0.548990049 -0.733609293 0 0
-1.652006 2.768867 0.918418 -0.400533809 -0.548990049 -0.733609293 0 0
-1.650788 2.768867 0.917753 -0.400533809 -0.548990049 -0.733609293 0 0
-1.649718 2.7616 0.922607 0.0645086521 -0.483046874 -0.873214951 0 0
-1.652944 2.768523 0.918539 0.0645086521 -0.483046874 -0.873214951 0 0
-1.652006 2.768867 0.918418 0.0645086521 -0.483046874 -0.873214951 0 0
-1.649718 2.7616 0.922607 0.0639750819 -0.483251911 -0.873140756 0 0
-1.650706 2.761415 0.922637 0.0639750819 -0.483251911 -0.873140756 0 0
-1.652944 2.768523 0.918539 0.0639750819 -0.483251911 -0.873140756 0 0
-1.649718 2.7616 0.922607 0.00354747656 -0.178502165 -0.983933124 0 0
-1.64988 2.753086 0.924151 0.00354747656 -0.178502165 -0.983933124 0 0
-1.650706 2.761415 0.922637 0.00354747656 -0.178502165 -0.983933124 0 0
-1.649718 2.7616 0.922607 0.00293129239 -0.17849117 -0.983937147 0 0
-1.648873 2.753086 0.924154 0.00293129239 -0.17849117 -0.983937147 0 0
-1.64988 2.753086 0.924151 0.00293129239 -0.17849117 -0.983937147 0 0
-1.649718 2.7616 0.922607 -0.468709795 -0.202739826 -0.859771883 0 0
-1.647655 2.753086 0.92349 -0.468709795 -0.202739826 -0.859771883 0 0
-1.648873 2.753086 0.924154 -0.468709795 -0.202739826 -0.859771883 0 0
-1.649718 2.7616 0.922607 -0.469244066 -0.202836684 -0.859457553 0 0
-1.6485 2.7616 0.921942 -0.469244066 -0.202836684 -0.859457553 0 0
-1.647655 2.753086 0.92349 -0.469244066 -0.202836684 -0.859457553 0 0
-1.646175 2.744573 0.920672 0.400559755 -0.548990051 0.733595125 0 0
-1.645584 2.737306 0.914911 0.400559755 -0.548990051 0.733595125 0 0
-1.643296 2.744573 0.9191 0.400559755 -0.548990051 0.733595125 0 0
-1.646175 2.744573 0.920672 0.400559755 -0.548990051 0.733595125 0 0
-1.648463 2.737306 0.916483 0.400559755 -0.548990051 0.733595125 0 0
-1.645584 2.737306 0.914911 0.400559755 -0.548990051 0.733595125 0 0
-1.646175 2.744573 0.920672 0.400680466 -0.548990054 0.733529199 0 0
-1.650788 2.737306 0.917753 0.400680466 -0.548990054 0.733529199 0 0
-1.648463 2.737306 0.916483 0.400680466 -0.548990054 0.733529199 0 0
-1.646175 2.744573 0.920672 0.400680466 -0.548990054 0.733529199 0 0
-1.6485 2.744573 0.921942 0.400680466 -0.548990054 0.733529199 0 0
-1.650788 2.737306 0.917753 0.400680466 -0.548990054 0.733529199 0 0
-1.646175 2.744573 0.920672 0.469413615 -0.202859523 0.859359571 0 0
-1.647655 2.753086 0.92349 0.469413615 -0.202859523 0.859359571 0 0
-1.6485 2.744573 0.921942 0.469413615 -0.202859523 0.859359571 0 0
-1.646175 2.744573 0.920672 0.469413615 -0.202859523 0.859359571 0 0
-1.64533 2.753086 0.92222 0.469413615 -0.202859523 0.859359571 0 0
-1.647655 2.753086 0.92349 0.469413615 -0.202859523 0.859359571 0 0
-1.646175 2.744573 0.920672 0.469272196 -0.20285953 0.859436802 0 0
-1.642451 2.753086 0.920648 0.469272196 -0.20285953 0.859436802 0 0
-1.64533 2.753086 0.92222 0.469272196 -0.20285953 0.859436802 0 0
-1.646175 2.744573 0.920672 0.469272196 -0.20285953 0.859436802 0 0
-1.643296 2.744573 0.9191 0.469272196 -0.20285953 0.859436802 0 0
-1.642451 2.753086 0.920648 0.469272196 -0.20285953 0.859436802 0 0
-1.649718 2.744573 0.922607 0.400533809 -0.548990049 0.733609293 0 0
-1.650788 2.737306 0.917753 0.400533809 -0.548990049 0.733609293 0 0
-1.6485 2.744573 0.921942 0.400533809 -0.548990049 0.733609293 0 0
-1.649718 2.744573 0.922607 0.400533809 -0.548990049 0.733609293 0 0
-1.652006 2.737306 0.918418 0.400533809 -0.548990049 0.733609293 0 0
-1.650788 2.737306 0.917753 0.400533809 -0.548990049 0.733609293 0 0
-1.649718 2.744573 0.922607 -0.0640442473 -0.483172676 0.873179535 0 0
-1.652944 2.737649 0.918539 -0.0640442473 -0.483172676 0.873179535 0 0
-1.652006 2.737306 0.918418 -0.0640442473 -0.483172676 0.873179535 0 0
-1.649718 2.744573 0.922607 -0.0639650952 -0.483203078 0.873168513 0 0
-1.650706 2.744758 0.922637 -0.0639650952 -0.483203078 0.873168513 0 0
-1.652944 2.737649 0.918539 -0.0639650952 -0.483203078 0.873168513 0 0
-1.649718 2.744573 0.922607 -0.00355140344 -0.178522535 0.983929414 0 0
-1.64988 2.753086 0.924151 -0.00355140344 -0.178522535 0.983929414 0 0
-1.650706 2.744758 0.922637 -0.00355140344 -0.178522535 0.983929414 0 0
-1.649718 2.744573 0.922607 -0.00293128142 -0.178511469 0.983933465 0 0
-1.648873 2.753086 0.924154 -0.00293128142 -0.178511469 0.983933465 0 0
-1.64988 2.753086 0.924151 -0.00293128142 -0.178511469 0.983933465 0 0
-1.649718 2.744573 0.922607 0.468707532 -0.202762662 0.859767732 0 0
-1.647655 2.753086 0.92349 0.468707532 -0.202762662 0.859767732 0 0
-1.648873 2.753086 0.924154 0.468707532 -0.202762662 0.859767732 0 0
-1.649718 2.744573 0.922607 0.469241798 -0.20285953 0.859453399 0 0
-1.6485 2.744573 0.921942 0.469241798 -0.20285953 0.859453399 0 0
-1.647655 2.753086 0.92349 0.469241798 -0.20285953 0.859453399 0 0
-1.651946 2.732533 0.910105 0.097229068 -0.979202935 0.17806774 0 0
-1.653148 2.730769 0.901061 0.097229068 -0.979202935 0.17806774 0 0
-1.649067 2.732533 0.908533 0.097229068 -0.979202935 0.17806774 0 0
-1.651946 2.732533 0.910105 0.0972603397 -0.979200666 0.178063141 0 0
-1.656026 2.730769 0.902633 0.0972603397 -0.979200666 0.178063141 0 0
-1.653148 2.730769 0.901061 0.0972603397 -0.979200666 0.178063141 0 0
-1.651946 2.732533 0.910105 0.0972314071 -0.979200666 0.178078939 0 0
-1.658352 2.730769 0.903903 0.0972314071 -0.979200666 0.178078939 0 0
-1.656026 2.730769 0.902633 0.0972314071 -0.979200666 0.178078939 0 0
-1.651946 2.732533 0.910105 0.0972583681 -0.979202935 0.178051737 0 0
-1.654271 2.732533 0.911375 0.0972583681 -0.979202935 0.178051737 0 0
-1.658352 2.730769 0.903903 0.0972583681 -0.979202935 0.178051737 0 0
-1.651946 2.732533 0.910105 0.263169266 -0.83583727 0.481786255 0 0
-1.650788 2.737306 0.917753 0.263169266 -0.83583727 0.481786255 0 0
-1.654271 2.732533 0.911375 0.263169266 -0.83583727 0.481786255 0 0
-1.651946 2.732533 0.910105 0.263169266 -0.83583727 0.481786255 0 0
-1.648463 2.737306 0.916483 0.263169266 -0.83583727 0.481786255 0 0
-1.650788 2.737306 0.917753 0.263169266 -0.83583727 0.481786255 0 0
-1.651946 2.732533 0.910105 0.263089982 -0.835837271 0.481829553 0 0
-1.645584 2.737306 0.914911 0.263089982 -0.835837271 0.481829553 0 0
-1.648463 2.737306 0.916483 0.263089982 -0.835837271 0.481829553 0 0
-1.651946 2.732533 0.910105 0.263089982 -0.835837271 0.481829553 0 0
-1.649067 2.732533 0.908533 0.263089982 -0.835837271 0.481829553 0 0
-1.645584 2.737306 0.914911 0.263089982 -0.835837271 0.481829553 0 0
-1.655488 2.732533 0.91204 0.0972842957 -0.979202935 0.178037576 0 0
-1.658352 2.730769 0.903903 0.0972842957 -0.979202935 0.178037576 0 0
-1.654271 2.732533 0.911375 0.0972842957 -0.979202935 0.178037576 0 0
-1.655488 2.732533 0.91204 0.0972842957 -0.979202935 0.178037576 0 0
-1.659569 2.730769 0.904568 0.0972842957 -0.979202935 0.178037576 0 0
-1.658352 2.730769 0.903903 0.0972842957 -0.979202935 0.178037576 0 0
-1.655488 2.732533 0.91204 -0.3308348 -0.86194676 0.384182401 0 0
-1.660344 2.731255 0.904991 -0.3308348 -0.86194676 0.384182401 0 0
-1.659569 2.730769 0.904568 -0.3308348 -0.86194676 0.384182401 0 0
-1.655488 2.732533 0.91204 -0.330497133 -0.862162497 0.383988899 0 0
-1.656352 2.73298 0.9123 -0.330497133 -0.862162497 0.383988899 0 0
-1.660344 2.731255 0.904991 -0.330497133 -0.862162497 0.383988899 0 0
-1.655488 2.732533 0.91204 -0.184630656 -0.735826715 0.651514057 0 0
-1.652944 2.737649 0.918539 -0.184630656 -0.735826715 0.651514057 0 0
-1.656352 2.73298 0.9123 -0.184630656 -0.735826715 0.651514057 0 0
-1.655488 2.732533 0.91204 -0.184977285 -0.735704613 0.651553625 0 0
-1.652006 2.737306 0.918418 -0.184977285 -0.735704613 0.651553625 0 0
-1.652944 2.737649 0.918539 -0.184977285 -0.735704613 0.651553625 0 0
-1.655488 2.732533 0.91204 0.26308506 -0.835820658 0.481861057 0 0
-1.650788 2.737306 0.917753 0.26308506 -0.835820658 0.481861057 0 0
-1.652006 2.737306 0.918418 0.26308506 -0.835820658 0.481861057 0 0
-1.655488 2.732533 0.91204 0.263239424 -0.835837263 0.481747937 0 0
-1.654271 2.732533 0.911375 0.263239424 -0.835837263 0.481747937 0 0
-1.650788 2.737306 0.917753 0.263239424 -0.835837263 0.481747937 0 0
-1.660107 2.732533 0.895161 -0.263089982 -0.835837271 -0.481829553 0 0
-1.660711 2.737306 0.887211 -0.263089982 -0.835837271 -0.481829553 0 0
-1.657228 2.732533 0.893589 -0.263089982 -0.835837271 -0.481829553 0 0
-1.660107 2.732533 0.895161 -0.263241088 -0.835806843 -0.481799804 0 0
-1.66359 2.737306 0.888784 -0.263241088 -0.835806843 -0.481799804 0 0
-1.660711 2.737306 0.887211 -0.263241088 -0.835806843 -0.481799804 0 0
-1.660107 2.732533 0.895161 -0.263031822 -0.835806835 -0.481914095 0 0
-1.665915 2.737306 0.890053 -0.263031822 -0.835806835 -0.481914095 0 0
-1.66359 2.737306 0.888784 -0.263031822 -0.835806835 -0.481914095 0 0
-1.660107 2.732533 0.895161 -0.263169266 -0.83583727 -0.481786255 0 0
-1.662432 2.732533 0.896431 -0.263169266 -0.83583727 -0.481786255 0 0
-1.665915 2.737306 0.890053 -0.263169266 -0.83583727 -0.481786255 0 0
-1.660107 2.732533 0.895161 -0.0972636192 -0.979200666 -0.17806135 0 0
-1.658352 2.730769 0.903903 -0.0972636192 -0.979200666 -0.17806135 0 0
-1.662432 2.732533 0.896431 -0.0972636192 -0.979200666 -0.17806135 0 0
-1.660107 2.732533 0.895161 -0.0972261595 -0.979202935 -0.178069328 0 0
-1.656026 2.730769 0.902633 -0.0972261595 -0.979202935 -0.178069328 0 0
-1.658352 2.730769 0.903903 -0.0972261595 -0.979202935 -0.178069328 0 0
-1.660107 2.732533 0.895161 -0.0972550889 -0.979202935 -0.178053528 0 0
-1.653148 2.730769 0.901061 -0.0972550889 -0.979202935 -0.178053528 0 0
-1.656026 2.730769 0.902633 -0.0972550889 -0.979202935 -0.178053528 0 0
-1.660107 2.732533 0.895161 -0.097234316 -0.979200666 -0.178077351 0 0
-1.657228 2.732533 0.893589 -0.097234316 -0.979200666 -0.178077351 0 0
-1.653148 2.730769 0.901061 -0.097234316 -0.979200666 -0.178077351 0 0
-1.66365 2.732533 0.897096 -0.26307294 -0.83583727 -0.481838859 0 0
-1.665915 2.737306 0.890053 -0.26307294 -0.83583727 -0.481838859 0 0
-1.662432 2.732533 0.896431 -0.26307294 -0.83583727 -0.481838859 0 0
-1.66365 2.732533 0.897096 -0.26307294 -0.83583727 -0.481838859 0 0
-1.667133 2.737306 0.890718 -0.26307294 -0.83583727 -0.481838859 0 0
-1.665915 2.737306 0.890053 -0.26307294 -0.83583727 -0.481838859 0 0
-1.66365 2.732533 0.897096 -0.647707772 -0.73596548 -0.197051908 0 0
-1.667743 2.737649 0.891442 -0.647707772 -0.73596548 -0.197051908 0 0
-1.667133 2.737306 0.890718 -0.647707772 -0.73596548 -0.197051908 0 0
-1.66365 2.732533 0.897096 -0.648054852 -0.735773561 -0.196626995 0 0
-1.664335 2.73298 0.897681 -0.648054852 -0.735773561 -0.196626995 0 0
-1.667743 2.737649 0.891442 -0.648054852 -0.735773561 -0.196626995 0 0
-1.66365 2.732533 0.897096 -0.502067553 -0.861932555 0.0707138093 0 0
-1.660344 2.731255 0.904991 -0.502067553 -0.861932555 0.0707138093 0 0
-1.664335 2.73298 0.897681 -0.502067553 -0.861932555 0.0707138093 0 0
-1.66365 2.732533 0.897096 -0.501978947 -0.861987939 0.0706677407 0 0
-1.659569 2.730769 0.904568 -0.501978947 -0.861987939 0.0706677407 0 0
-1.660344 2.731255 0.904991 -0.501978947 -0.861987939 0.0706677407 0 0
-1.66365 2.732533 0.897096 -0.0972842957 -0.979202935 -0.178037576 0 0
-1.658352 2.730769 0.903903 -0.0972842957 -0.979202935 -0.178037576 0 0
-1.659569 2.730769 0.904568 -0.0972842957 -0.979202935 -0.178037576 0 0
-1.66365 2.732533 0.897096 -0.0972280176 -0.979200666 -0.17808079 0 0
-1.662432 2.732533 0.896431 -0.0972280176 -0.979200666 -0.17808079 0 0
-1.658352 2.730769 0.903903 -0.0972280176 -0.979200666 -0.17808079 0 0
-1.665878 2.744573 0.884594 0.400559755 0.548990051 0.733595125 0 0
-1.660711 2.737306 0.887211 0.400559755 0.548990051 0.733595125 0 0
-1.662999 2.744573 0.883022 0.400559755 0.548990051 0.733595125 0 0
-1.665878 2.744573 0.884594 0.400733793 0.549060558 0.733447292 0 0
-1.66359 2.737306 0.888784 0.400733793 0.549060558 0.733447292 0 0
-1.660711 2.737306 0.887211 0.400733793 0.549060558 0.733447292 0 0
-1.665878 2.744573 0.884594 0.400415217 0.549060561 0.733621261 0 0
-1.665915 2.737306 0.890053 0.400415217 0.549060561 0.733621261 0 0
-1.66359 2.737306 0.888784 0.400415217 0.549060561 0.733621261 0 0
-1.665878 2.744573 0.884594 0.400680466 0.548990054 0.733529199 0 0
-1.668203 2.744573 0.885864 0.400680466 0.548990054 0.733529199 0 0
-1.665915 2.737306 0.890053 0.400680466 0.548990054 0.733529199 0 0
-1.665878 2.744573 0.884594 0.469423226 0.202762728 0.859377165 0 0
-1.669048 2.753086 0.884317 0.469423226 0.202762728 0.859377165 0 0
-1.668203 2.744573 0.885864 0.469423226 0.202762728 0.859377165 0 0
-1.665878 2.744573 0.884594 0.469423226 0.202762728 0.859377165 0 0
-1.666723 2.753086 0.883047 0.469423226 0.202762728 0.859377165 0 0
-1.669048 2.753086 0.884317 0.469423226 0.202762728 0.859377165 0 0
-1.665878 2.744573 0.884594 0.469281805 0.202762725 0.8594544 0 0
-1.663844 2.753086 0.881475 0.469281805 0.202762725 0.8594544 0 0
-1.666723 2.753086 0.883047 0.469281805 0.202762725 0.8594544 0 0
-1.665878 2.744573 0.884594 0.469281805 0.202762725 0.8594544 0 0
-1.662999 2.744573 0.883022 0.469281805 0.202762725 0.8594544 0 0
-1.663844 2.753086 0.881475 0.469281805 0.202762725 0.8594544 0 0
-1.66942 2.744573 0.886529 0.400787276 0.548990048 0.733470849 0 0
-1.665915 2.737306 0.890053 0.400787276 0.548990048 0.733470849 0 0
-1.668203 2.744573 0.885864 0.400787276 0.548990048 0.733470849 0 0
-1.66942 2.744573 0.886529 0.400545929 0.548951542 0.733631491 0 0
-1.667133 2.737306 0.890718 0.400545929 0.548951542 0.733631491 0 0
-1.665915 2.737306 0.890053 0.400545929 0.548951542 0.733631491 0 0
-1.66942 2.744573 0.886529 0.768788041 0.483332511 0.418753666 0 0
-1.667743 2.737649 0.891442 0.768788041 0.483332511 0.418753666 0 0
-1.667133 2.737306 0.890718 0.768788041 0.483332511 0.418753666 0 0
-1.66942 2.744573 0.886529 0.768423368 0.48354495 0.419177538 0 0
-1.669981 2.744758 0.887344 0.768423368 0.48354495 0.419177538 0 0
-1.667743 2.737649 0.891442 0.768423368 0.48354495 0.419177538 0 0
-1.66942 2.744573 0.886529 0.828942148 0.178580398 0.530060333 0 0
-1.670807 2.753086 0.88583 0.828942148 0.178580398 0.530060333 0 0
-1.669981 2.744758 0.887344 0.828942148 0.178580398 0.530060333 0 0
-1.66942 2.744573 0.886529 0.829773547 0.178608143 0.528748515 0 0
-1.670266 2.753086 0.884981 0.829773547 0.178608143 0.528748515 0 0
-1.670807 2.753086 0.88583 0.829773547 0.178608143 0.528748515 0 0
-1.66942 2.744573 0.886529 0.468692696 0.202912292 0.859740518 0 0
-1.669048 2.753086 0.884317 0.468692696 0.202912292 0.859740518 0 0
-1.670266 2.753086 0.884981 0.468692696 0.202912292 0.859740518 0 0
-1.66942 2.744573 0.886529 0.469548359 0.202762725 0.859308801 0 0
-1.668203 2.744573 0.885864 0.469548359 0.202762725 0.859308801 0 0
-1.669048 2.753086 0.884317 0.469548359 0.202762725 0.859308801 0 0
-1.665878 2.7616 0.884594 -0.400559755 0.548990051 -0.733595125 0 0
-1.660711 2.768867 0.887211 -0.400559755 0.548990051 -0.733595125 0 0
-1.662999 2.7616 0.883022 -0.400559755 0.548990051 -0.733595125 0 0
-1.665878 2.7616 0.884594 -0.400733793 0.549060558 -0.733447292 0 0
-1.66359 2.768867 0.888784 -0.400733793 0.549060558 -0.733447292 0 0
-1.660711 2.768867 0.887211 -0.400733793 0.549060558 -0.733447292 0 0
-1.665878 2.7616 0.884594 -0.400415217 0.549060561 -0.733621261 0 0
-1.665915 2.768867 0.890053 -0.400415217 0.549060561 -0.733621261 0 0
-1.66359 2.768867 0.888784 -0.400415217 0.549060561 -0.733621261 0 0
-1.665878 2.7616 0.884594 -0.400680466 0.548990054 -0.733529199 0 0
-1.668203 2.7616 0.885864 -0.400680466 0.548990054 -0.733529199 0 0
-1.665915 2.768867 0.890053 -0.400680466 0.548990054 -0.733529199 0 0
-1.665878 2.7616 0.884594 -0.469425492 0.202739891 -0.859381315 0 0
-1.669048 2.753086 0.884317 -0.469425492 0.202739891 -0.859381315 0 0
-1.668203 2.7616 0.885864 -0.469425492 0.202739891 -0.859381315 0 0
-1.665878 2.7616 0.884594 -0.469425492 0.202739891 -0.859381315 0 0
-1.666723 2.753086 0.883047 -0.469425492 0.202739891 -0.859381315 0 0
-1.669048 2.753086 0.884317 -0.469425492 0.202739891 -0.859381315 0 0
-1.665878 2.7616 0.884594 -0.469284071 0.202739889 -0.859458549 0 0
-1.663844 2.753086 0.881475 -0.469284071 0.202739889 -0.859458549 0 0
-1.666723 2.753086 0.883047 -0.469284071 0.202739889 -0.859458549 0 0
-1.665878 2.7616 0.884594 -0.469284071 0.202739889 -0.859458549 0 0
-1.662999 2.7616 0.883022 -0.469284071 0.202739889 -0.859458549 0 0
-1.663844 2.753086 0.881475 -0.469284071 0.202739889 -0.859458549 0 0
-1.66942 2.7616 0.886529 -0.400787276 0.548990048 -0.733470849 0 0
-1.665915 2.768867 0.890053 -0.400787276 0.548990048 -0.733470849 0 0
-1.668203 2.7616 0.885864 -0.400787276 0.548990048 -0.733470849 0 0
-1.66942 2.7616 0.886529 -0.400545929 0.548951542 -0.733631491 0 0
-1.667133 2.768867 0.890718 -0.400545929 0.548951542 -0.733631491 0 0
-1.665915 2.768867 0.890053 -0.400545929 0.548951542 -0.733631491 0 0
-1.66942 2.7616 0.886529 -0.769069014 0.48320696 -0.418382464 0 0
-1.667743 2.768523 0.891442 -0.769069014 0.48320696 -0.418382464 0 0
-1.667133 2.768867 0.890718 -0.769069014 0.48320696 -0.418382464 0 0
-1.66942 2.7616 0.886529 -0.768405414 0.483593806 -0.41915409 0 0
-1.669981 2.761415 0.887344 -0.768405414 0.483593806 -0.41915409 0 0
-1.667743 2.768523 0.891442 -0.768405414 0.483593806 -0.41915409 0 0
-1.66942 2.7616 0.886529 -0.828943142 0.178560021 -0.530065643 0 0
-1.670807 2.753086 0.88583 -0.828943142 0.178560021 -0.530065643 0 0
-1.669981 2.761415 0.887344 -0.828943142 0.178560021 -0.530065643 0 0
-1.66942 2.7616 0.886529 -0.829776656 0.178587834 -0.528750496 0 0
-1.670266 2.753086 0.884981 -0.829776656 0.178587834 -0.528750496 0 0
-1.670807 2.753086 0.88583 -0.829776656 0.178587834 -0.528750496 0 0
-1.66942 2.7616 0.886529 -0.468694963 0.20288944 -0.859744675 0 0
-1.669048 2.753086 0.884317 -0.468694963 0.20288944 -0.859744675 0 0
-1.670266 2.753086 0.884981 -0.468694963 0.20288944 -0.859744675 0 0
-1.66942 2.7616 0.886529 -0.469550626 0.202739889 -0.859312951 0 0
-1.668203 2.7616 0.885864 -0.469550626 0.202739889 -0.859312951 0 0
-1.669048 2.753086 0.884317 -0.469550626 0.202739889 -0.859312951 0 0
-1.660107 2.77364 0.895161 0.263089982 -0.835837271 0.481829553 0 0
-1.660711 2.768867 0.887211 0.263089982 -0.835837271 0.481829553 0 0
-1.657228 2.77364 0.893589 0.263089982 -0.835837271 0.481829553 0 0
-1.660107 2.77364 0.895161 0.263241088 -0.835806843 0.481799804 0 0
-1.66359 2.768867 0.888784 0.263241088 -0.835806843 0.481799804 0 0
-1.660711 2.768867 0.887211 0.263241088 -0.835806843 0.481799804 0 0
-1.660107 2.77364 0.895161 0.263031822 -0.835806835 0.481914095 0 0
-1.665915 2.768867 0.890053 0.263031822 -0.835806835 0.481914095 0 0
-1.66359 2.768867 0.888784 0.263031822 -0.835806835 0.481914095 0 0
-1.660107 2.77364 0.895161 0.263169266 -0.83583727 0.481786255 0 0
-1.662432 2.77364 0.896431 0.263169266 -0.83583727 0.481786255 0 0
-1.665915 2.768867 0.890053 0.263169266 -0.83583727 0.481786255 0 0
-1.660107 2.77364 0.895161 0.0972107491 -0.979223512 0.17796456 0 0
-1.658352 2.775403 0.903903 0.0972107491 -0.979223512 0.17796456 0 0
-1.662432 2.77364 0.896431 0.0972107491 -0.979223512 0.17796456 0 0
-1.660107 2.77364 0.895161 0.0971733094 -0.979225778 0.177972534 0 0
-1.656026 2.775403 0.902633 0.0971733094 -0.979225778 0.177972534 0 0
-1.658352 2.775403 0.903903 0.0971733094 -0.979225778 0.177972534 0 0
-1.660107 2.77364 0.895161 0.0972022232 -0.979225779 0.177956742 0 0
-1.653148 2.775403 0.901061 0.0972022232 -0.979225779 0.177956742 0 0
-1.656026 2.775403 0.902633 0.0972022232 -0.979225779 0.177956742 0 0
-1.660107 2.77364 0.895161 0.0971814618 -0.979223512 0.177980552 0 0
-1.657228 2.77364 0.893589 0.0971814618 -0.979223512 0.177980552 0 0
-1.653148 2.775403 0.901061 0.0971814618 -0.979223512 0.177980552 0 0
-1.66365 2.77364 0.897096 0.26307294 -0.83583727 0.481838859 0 0
-1.665915 2.768867 0.890053 0.26307294 -0.83583727 0.481838859 0 0
-1.662432 2.77364 0.896431 0.26307294 -0.83583727 0.481838859 0 0
-1.66365 2.77364 0.897096 0.26307294 -0.83583727 0.481838859 0 0
-1.667133 2.768867 0.890718 0.26307294 -0.83583727 0.481838859 0 0
-1.665915 2.768867 0.890053 0.26307294 -0.83583727 0.481838859 0 0
-1.66365 2.77364 0.897096 0.648183357 -0.735674419 0.196574376 0 0
-1.667743 2.768523 0.891442 0.648183357 -0.735674419 0.196574376 0 0
-1.667133 2.768867 0.890718 0.648183357 -0.735674419 0.196574376 0 0
-1.66365 2.77364 0.897096 0.648084435 -0.73572918 0.196695547 0 0
-1.664335 2.773193 0.897681 0.648084435 -0.73572918 0.196695547 0 0
-1.667743 2.768523 0.891442 0.648084435 -0.73572918 0.196695547 0 0
-1.66365 2.77364 0.897096 0.502067553 -0.861932555 -0.0707138093 0 0
-1.660344 2.774918 0.904991 0.502067553 -0.861932555 -0.0707138093 0 0
-1.664335 2.773193 0.897681 0.502067553 -0.861932555 -0.0707138093 0 0
-1.66365 2.77364 0.897096 0.501314693 -0.86240265 -0.0703224555 0 0
-1.659569 2.775403 0.904568 0.501314693 -0.86240265 -0.0703224555 0 0
-1.660344 2.774918 0.904991 0.501314693 -0.86240265 -0.0703224555 0 0
-1.66365 2.77364 0.897096 0.0972314141 -0.979225778 0.177940798 0 0
-1.658352 2.775403 0.903903 0.0972314141 -0.979225778 0.177940798 0 0
-1.659569 2.775403 0.904568 0.0972314141 -0.979225778 0.177940798 0 0
-1.66365 2.77364 0.897096 0.0971751668 -0.979223512 0.17798399 0 0
-1.662432 2.77364 0.896431 0.0971751668 -0.979223512 0.17798399 0 0
-1.658352 2.775403 0.903903 0.0971751668 -0.979223512 0.17798399 0 0
-1.133407 2.771852 0.626078 0.850593828 0.520445529 -0.0750106062 0 0
-1.130729 2.768523 0.633348 0.850593828 0.520445529 -0.0750106062 0 0
-1.130227 2.767494 0.631901 0.850593828 0.520445529 -0.0750106062 0 0
-1.133407 2.771852 0.626078 0.850513554 0.520590522 -0.0749146421 0 0
-1.134137 2.773193 0.627109 0.850513554 0.520590522 -0.0749146421 0 0
-1.130729 2.768523 0.633348 0.850513554 0.520590522 -0.0749146421 0 0
-1.133407 2.771852 0.626078 0.747193563 0.609849922 -0.264168229 0 0
-1.138129 2.774918 0.6198 0.747193563 0.609849922 -0.264168229 0 0
-1.134137 2.773193 0.627109 0.747193563 0.609849922 -0.264168229 0 0
-1.133407 2.771852 0.626078 0.747199652 0.609837942 -0.26417866 0 0
-1.137133 2.773462 0.619256 0.747199652 0.609837942 -0.26417866 0 0
-1.138129 2.774918 0.6198 0.747199652 0.609837942 -0.26417866 0 0
-1.133407 2.771852 0.626078 0.785138163 0.541200449 -0.301098222 0 0
-1.136026 2.77152 0.618652 0.785138163 0.541200449 -0.301098222 0 0
-1.137133 2.773462 0.619256 0.785138163 0.541200449 -0.301098222 0 0
-1.133407 2.771852 0.626078 0.785387359 0.54079979 -0.301168196 0 0
-1.132656 2.770063 0.624824 0.785387359 0.54079979 -0.301168196 0 0
-1.136026 2.77152 0.618652 0.785387359 0.54079979 -0.301168196 0 0
-1.133407 2.771852 0.626078 0.876950342 0.461679041 -0.133456218 0 0
-1.129779 2.766121 0.630092 0.876950342 0.461679041 -0.133456218 0 0
-1.132656 2.770063 0.624824 0.876950342 0.461679041 -0.133456218 0 0
-1.133407 2.771852 0.626078 0.87692564 0.461769863 -0.13330422 0 0
-1.130227 2.767494 0.631901 0.87692564 0.461769863 -0.13330422 0 0
-1.129779 2.766121 0.630092 0.87692564 0.461769863 -0.13330422 0 0
-1.128139 2.760859 0.635726 -0.936223438 -0.341760627 -0.0817639806 0 0
-1.130729 2.768523 0.633348 -0.936223438 -0.341760627 -0.0817639806 0 0
-1.130227 2.767494 0.631901 -0.936223438 -0.341760627 -0.0817639806 0 0
-1.128139 2.760859 0.635726 -0.936325692 -0.34161721 -0.0811903925 0 0
-1.128491 2.761415 0.637446 -0.936325692 -0.34161721 -0.0811903925 0 0
-1.130729 2.768523 0.633348 -0.936325692 -0.34161721 -0.0811903925 0 0
-1.128139 2.760859 0.635726 -0.979092397 -0.126110514 -0.159606441 0 0
-1.127665 2.753086 0.63896 -0.979092397 -0.126110514 -0.159606441 0 0
-1.128491 2.761415 0.637446 -0.979092397 -0.126110514 -0.159606441 0 0
-1.128139 2.760859 0.635726 -0.978982097 -0.126317006 -0.160118916 0 0
-1.127367 2.753086 0.637138 -0.978982097 -0.126317006 -0.160118916 0 0
-1.127665 2.753086 0.63896 -0.978982097 -0.126317006 -0.160118916 0 0
-1.128139 2.760859 0.635726 -0.990816759 -0.112131213 -0.0755562173 0 0
-1.127191 2.753086 0.63483 -0.990816759 -0.112131213 -0.0755562173 0 0
-1.127367 2.753086 0.637138 -0.990816759 -0.112131213 -0.0755562173 0 0
-1.128139 2.760859 0.635726 -0.990806174 -0.112110381 -0.0757257365 0 0
-1.127889 2.760118 0.633552 -0.990806174 -0.112110381 -0.0757257365 0 0
-1.127191 2.753086 0.63483 -0.990806174 -0.112110381 -0.0757257365 0 0
-1.128139 2.760859 0.635726 -0.952808323 -0.303510905 -0.00611798549 0 0
-1.129779 2.766121 0.630092 -0.952808323 -0.303510905 -0.00611798549 0 0
-1.127889 2.760118 0.633552 -0.952808323 -0.303510905 -0.00611798549 0 0
-1.128139 2.760859 0.635726 -0.952897703 -0.303235752 -0.00583498275 0 0
-1.130227 2.767494 0.631901 -0.952897703 -0.303235752 -0.00583498275 0 0
-1.129779 2.766121 0.630092 -0.952897703 -0.303235752 -0.00583498275 0 0
-1.128139 2.745313 0.635726 0.936257436 -0.34171301 0.081573485 0 0
-1.130729 2.737649 0.633348 0.936257436 -0.34171301 0.081573485 0 0
-1.130227 2.738679 0.631901 0.936257436 -0.34171301 0.081573485 0 0
-1.128139 2.745313 0.635726 0.936294034 -0.341661676 0.0813681803 0 0
-1.128491 2.744758 0.637446 0.936294034 -0.341661676 0.0813681803 0 0
-1.130729 2.737649 0.633348 0.936294034 -0.341661676 0.0813681803 0 0
-1.128139 2.745313 0.635726 0.979078973 -0.126135679 0.159668893 0 0
-1.127665 2.753086 0.63896 0.979078973 -0.126135679 0.159668893 0 0
-1.128491 2.744758 0.637446 0.979078973 -0.126135679 0.159668893 0 0
-1.128139 2.745313 0.635726 0.978982097 -0.126317006 0.160118916 0 0
-1.127367 2.753086 0.637138 0.978982097 -0.126317006 0.160118916 0 0
-1.127665 2.753086 0.63896 0.978982097 -0.126317006 0.160118916 0 0
-1.128139 2.745313 0.635726 0.990816759 -0.112131213 0.0755562173 0 0
-1.127191 2.753086 0.63483 0.990816759 -0.112131213 0.0755562173 0 0
-1.127367 2.753086 0.637138 0.990816759 -0.112131213 0.0755562173 0 0
-1.128139 2.745313 0.635726 0.990806174 -0.112110381 0.0757257365 0 0
-1.127889 2.746054 0.633552 0.990806174 -0.112110381 0.0757257365 0 0
-1.127191 2.753086 0.63483 0.990806174 -0.112110381 0.0757257365 0 0
-1.128139 2.745313 0.635726 0.952796184 -0.303549301 0.00610350223 0 0
-1.129779 2.740052 0.630092 0.952796184 -0.303549301 0.00610350223 0 0
-1.127889 2.746054 0.633552 0.952796184 -0.303549301 0.00610350223 0 0
-1.128139 2.745313 0.635726 0.952888649 -0.303264666 0.00581079541 0 0
-1.130227 2.738679 0.631901 0.952888649 -0.303264666 0.00581079541 0 0
-1.129779 2.740052 0.630092 0.952888649 -0.303264666 0.00581079541 0 0
-1.133407 2.734321 0.626078 0.747199652 -0.609837942 -0.26417866 0 0
-1.138129 2.731255 0.6198 0.747199652 -0.609837942 -0.26417866 0 0
-1.137133 2.732711 0.619256 0.747199652 -0.609837942 -0.26417866 0 0
-1.133407 2.734321 0.626078 0.747193563 -0.609849922 -0.264168229 0 0
-1.134137 2.73298 0.627109 0.747193563 -0.609849922 -0.264168229 0 0
-1.138129 2.731255 0.6198 0.747193563 -0.609849922 -0.264168229 0 0
-1.133407 2.734321 0.626078 0.850492147 -0.520618141 -0.0749657218 0 0
-1.130729 2.737649 0.633348 0.850492147 -0.520618141 -0.0749657218 0 0
-1.134137 2.73298 0.627109 0.850492147 -0.520618141 -0.0749657218 0 0
-1.133407 2.734321 0.626078 0.850691082 -0.520258694 -0.0752035466 0 0
-1.130227 2.738679 0.631901 0.850691082 -0.520258694 -0.0752035466 0 0
-1.130729 2.737649 0.633348 0.850691082 -0.520258694 -0.0752035466 0 0
-1.133407 2.734321 0.626078 0.87692564 -0.461769863 -0.13330422 0 0
-1.129779 2.740052 0.630092 0.87692564 -0.461769863 -0.13330422 0 0
-1.130227 2.738679 0.631901 0.87692564 -0.461769863 -0.13330422 0 0
-1.133407 2.734321 0.626078 0.876919644 -0.461791893 -0.133267346 0 0
-1.132656 2.736109 0.624824 0.876919644 -0.461791893 -0.133267346 0 0
-1.129779 2.740052 0.630092 0.876919644 -0.461791893 -0.133267346 0 0
-1.133407 2.734321 0.626078 0.785251429 -0.54101839 -0.30113003 0 0
-1.136026 2.734653 0.618652 0.785251429 -0.54101839 -0.30113003 0 0
-1.132656 2.736109 0.624824 0.785251429 -0.54101839 -0.30113003 0 0
-1.133407 2.734321 0.626078 0.785138163 -0.541200449 -0.301098222 0 0
-1.137133 2.732711 0.619256 0.785138163 -0.541200449 -0.301098222 0 0
-1.136026 2.734653 0.618652 0.785138163 -0.541200449 -0.301098222 0 0
-1.140858 2.734321 0.612434 0.522883133 -0.520457569 -0.675068255 0 0
-1.145528 2.737649 0.606251 0.522883133 -0.520457569 -0.675068255 0 0
-1.144038 2.738679 0.606611 0.522883133 -0.520457569 -0.675068255 0 0
-1.140858 2.734321 0.612434 0.522971724 -0.520354037 -0.675079441 0 0
-1.14212 2.73298 0.61249 0.522971724 -0.520354037 -0.675079441 0 0
-1.145528 2.737649 0.606251 0.522971724 -0.520354037 -0.675079441 0 0
-1.140858 2.734321 0.612434 0.626303815 -0.609695015 -0.485814286 0 0
-1.138129 2.731255 0.6198 0.626303815 -0.609695015 -0.485814286 0 0
-1.14212 2.73298 0.61249 0.626303815 -0.609695015 -0.485814286 0 0
-1.140858 2.734321 0.612434 0.626152627 -0.609845129 -0.485820755 0 0
-1.137133 2.732711 0.619256 0.626152627 -0.609845129 -0.485820755 0 0
-1.138129 2.731255 0.6198 0.626152627 -0.609845129 -0.485820755 0 0
-1.140858 2.734321 0.612434 0.677754227 -0.541162493 -0.497787469 0 0
-1.136026 2.734653 0.618652 0.677754227 -0.541162493 -0.497787469 0 0
-1.137133 2.732711 0.619256 0.677754227 -0.541162493 -0.497787469 0 0
-1.140858 2.734321 0.612434 0.6778124 -0.541042124 -0.497839101 0 0
-1.139397 2.736109 0.61248 0.6778124 -0.541042124 -0.497839101 0 0
-1.136026 2.734653 0.618652 0.6778124 -0.541042124 -0.497839101 0 0
-1.140858 2.734321 0.612434 0.586116814 -0.461796749 -0.665740823 0 0
-1.142274 2.740052 0.607212 0.586116814 -0.461796749 -0.665740823 0 0
-1.139397 2.736109 0.61248 0.586116814 -0.461796749 -0.665740823 0 0
-1.140858 2.734321 0.612434 0.586201792 -0.46174211 -0.665703901 0 0
-1.144038 2.738679 0.606611 0.586201792 -0.46174211 -0.665703901 0 0
-1.142274 2.740052 0.607212 0.586201792 -0.46174211 -0.665703901 0 0
-1.146127 2.745313 0.602787 -0.437264564 0.341805243 0.831846667 0 0
-1.145528 2.737649 0.606251 -0.437264564 0.341805243 0.831846667 0 0
-1.144038 2.738679 0.606611 -0.437264564 0.341805243 0.831846667 0 0
-1.146127 2.745313 0.602787 -0.437467449 0.341751205 0.831762193 0 0
-1.147766 2.744758 0.602153 -0.437467449 0.341751205 0.831762193 0 0
-1.145528 2.737649 0.606251 -0.437467449 0.341751205 0.831762193 0 0
-1.146127 2.745313 0.602787 -0.394790401 0.126287191 0.910050594 0 0
-1.148592 2.753086 0.600639 -0.394790401 0.126287191 0.910050594 0 0
-1.147766 2.744758 0.602153 -0.394790401 0.126287191 0.910050594 0 0
-1.146127 2.745313 0.602787 -0.395047904 0.126178805 0.909953879 0 0
-1.146899 2.753086 0.601374 -0.395047904 0.126178805 0.909953879 0 0
-1.148592 2.753086 0.600639 -0.395047904 0.126178805 0.909953879 0 0
-1.146127 2.745313 0.602787 -0.472163366 0.112049602 0.874360705 0 0
-1.144862 2.753086 0.602474 -0.472163366 0.112049602 0.874360705 0 0
-1.146899 2.753086 0.601374 -0.472163366 0.112049602 0.874360705 0 0
-1.146127 2.745313 0.602787 -0.47193737 0.112017899 0.874486769 0 0
-1.144163 2.746054 0.603752 -0.47193737 0.112017899 0.874486769 0 0
-1.144862 2.753086 0.602474 -0.47193737 0.112017899 0.874486769 0 0
-1.146127 2.745313 0.602787 -0.509973298 0.303486597 0.8048746 0 0
-1.142274 2.740052 0.607212 -0.509973298 0.303486597 0.8048746 0 0
-1.144163 2.746054 0.603752 -0.509973298 0.303486597 0.8048746 0 0
-1.146127 2.745313 0.602787 -0.510227061 0.303242773 0.804805671 0 0
-1.144038 2.738679 0.606611 -0.510227061 0.303242773 0.804805671 0 0
-1.142274 2.740052 0.607212 -0.510227061 0.303242773 0.804805671 0 0
-1.146127 2.760859 0.602787 0.43708596 0.341852794 -0.831920988 0 0
-1.145528 2.768523 0.606251 0.43708596 0.341852794 -0.831920988 0 0
-1.144038 2.767494 0.606611 0.43708596 0.341852794 -0.831920988 0 0
-1.146127 2.760859 0.602787 0.437634054 0.341706812 -0.831692786 0 0
-1.147766 2.761415 0.602153 0.437634054 0.341706812 -0.831692786 0 0
-1.145528 2.768523 0.606251 0.437634054 0.341706812 -0.831692786 0 0
-1.146127 2.760859 0.602787 0.394850224 0.126262013 -0.910028134 0 0
-1.148592 2.753086 0.600639 0.394850224 0.126262013 -0.910028134 0 0
-1.147766 2.761415 0.602153 0.394850224 0.126262013 -0.910028134 0 0
-1.146127 2.760859 0.602787 0.395047904 0.126178805 -0.909953879 0 0
-1.146899 2.753086 0.601374 0.395047904 0.126178805 -0.909953879 0 0
-1.148592 2.753086 0.600639 0.395047904 0.126178805 -0.909953879 0 0
-1.146127 2.760859 0.602787 0.472163366 0.112049602 -0.874360705 0 0
-1.144862 2.753086 0.602474 0.472163366 0.112049602 -0.874360705 0 0
-1.146899 2.753086 0.601374 0.472163366 0.112049602 -0.874360705 0 0
-1.146127 2.760859 0.602787 0.47193737 0.112017899 -0.874486769 0 0
-1.144163 2.760118 0.603752 0.47193737 0.112017899 -0.874486769 0 0
-1.144862 2.753086 0.602474 0.47193737 0.112017899 -0.874486769 0 0
-1.146127 2.760859 0.602787 0.509967676 0.303448206 -0.804892636 0 0
-1.142274 2.766121 0.607212 0.509967676 0.303448206 -0.804892636 0 0
-1.144163 2.760118 0.603752 0.509967676 0.303448206 -0.804892636 0 0
-1.146127 2.760859 0.602787 0.510211606 0.30321386 -0.804826361 0 0
-1.144038 2.767494 0.606611 0.510211606 0.30321386 -0.804826361 0 0
-1.142274 2.766121 0.607212 0.510211606 0.30321386 -0.804826361 0 0
-1.140858 2.771852 0.612434 -0.522668225 -0.52064433 0.675090666 0 0
-1.145528 2.768523 0.606251 -0.522668225 -0.52064433 0.675090666 0 0
-1.144038 2.767494 0.606611 -0.522668225 -0.52064433 0.675090666 0 0
-1.140858 2.771852 0.612434 -0.522940351 -0.520326416 0.675125033 0 0
-1.14212 2.773193 0.61249 -0.522940351 -0.520326416 0.675125033 0 0
-1.145528 2.768523 0.606251 -0.522940351 -0.520326416 0.675125033 0 0
-1.140858 2.771852 0.612434 -0.626303815 -0.609695015 0.485814286 0 0
-1.138129 2.774918 0.6198 -0.626303815 -0.609695015 0.485814286 0 0
-1.14212 2.773193 0.61249 -0.626303815 -0.609695015 0.485814286 0 0
-1.140858 2.771852 0.612434 -0.626152627 -0.609845129 0.485820755 0 0
-1.137133 2.773462 0.619256 -0.626152627 -0.609845129 0.485820755 0 0
-1.138129 2.774918 0.6198 -0.626152627 -0.609845129 0.485820755 0 0
-1.140858 2.771852 0.612434 -0.677754227 -0.541162493 0.497787469 0 0
-1.136026 2.77152 0.618652 -0.677754227 -0.541162493 0.497787469 0 0
-1.137133 2.773462 0.619256 -0.677754227 -0.541162493 0.497787469 0 0
-1.140858 2.771852 0.612434 -0.677917997 -0.540823523 0.497932832 0 0
-1.139397 2.770063 0.61248 -0.677917997 -0.540823523 0.497932832 0 0
-1.136026 2.77152 0.618652 -0.677917997 -0.540823523 0.497932832 0 0
-1.140858 2.771852 0.612434 -0.586292309 -0.461683898 0.66566456 0 0
-1.142274 2.766121 0.607212 -0.586292309 -0.461683898 0.66566456 0 0
-1.139397 2.770063 0.61248 -0.586292309 -0.461683898 0.66566456 0 0
-1.140858 2.771852 0.612434 -0.586201792 -0.46174211 0.665703901 0 0
-1.144038 2.767494 0.606611 -0.586201792 -0.46174211 0.665703901 0 0
-1.142274 2.766121 0.607212 -0.586201792 -0.46174211 0.665703901 0 0
-1.138365 2.77364 0.629629 0.263089982 0.835837271 0.481829553 0 0
-1.137761 2.768867 0.637579 0.263089982 0.835837271 0.481829553 0 0
-1.134882 2.768867 0.636007 0.263089982 0.835837271 0.481829553 0 0
-1.138365 2.77364 0.629629 0.263241088 0.835806843 0.481799804 0 0
-1.141244 2.77364 0.631202 0.263241088 0.835806843 0.481799804 0 0
-1.137761 2.768867 0.637579 0.263241088 0.835806843 0.481799804 0 0
-1.138365 2.77364 0.629629 0.0972290765 0.979223511 0.177954553 0 0
-1.145324 2.775403 0.62373 0.0972290765 0.979223511 0.177954553 0 0
-1.141244 2.77364 0.631202 0.0972290765 0.979223511 0.177954553 0 0
-1.138365 2.77364 0.629629 0.0972118318 0.979221628 0.177974333 0 0
-1.142446 2.775403 0.622158 0.0972118318 0.979221628 0.177974333 0 0
-1.145324 2.775403 0.62373 0.0972118318 0.979221628 0.177974333 0 0
-1.138365 2.77364 0.629629 0.0972151095 0.979221628 0.177972543 0 0
-1.140121 2.775403 0.620888 0.0972151095 0.979221628 0.177972543 0 0
-1.142446 2.775403 0.622158 0.0972151095 0.979221628 0.177972543 0 0
-1.138365 2.77364 0.629629 0.0971465377 0.979225777 0.177987155 0 0
-1.13604 2.77364 0.62836 0.0971465377 0.979225777 0.177987155 0 0
-1.140121 2.775403 0.620888 0.0971465377 0.979225777 0.177987155 0 0
-1.138365 2.77364 0.629629 0.263031822 0.835806835 0.481914095 0 0
-1.132557 2.768867 0.634737 0.263031822 0.835806835 0.481914095 0 0
-1.13604 2.77364 0.62836 0.263031822 0.835806835 0.481914095 0 0
-1.138365 2.77364 0.629629 0.263169266 0.83583727 0.481786255 0 0
-1.134882 2.768867 0.636007 0.263169266 0.83583727 0.481786255 0 0
-1.132557 2.768867 0.634737 0.263169266 0.83583727 0.481786255 0 0
-1.134822 2.77364 0.627695 0.262768076 0.835837205 0.482005295 0 0
-1.132557 2.768867 0.634737 0.262768076 0.835837205 0.482005295 0 0
-1.131339 2.768867 0.634073 0.262768076 0.835837205 0.482005295 0 0
-1.134822 2.77364 0.627695 0.263095139 0.835806842 0.481879518 0 0
-1.13604 2.77364 0.62836 0.263095139 0.835806842 0.481879518 0 0
-1.132557 2.768867 0.634737 0.263095139 0.835806842 0.481879518 0 0
-1.134822 2.77364 0.627695 0.0971699221 0.979225778 0.177974384 0 0
-1.140121 2.775403 0.620888 0.0971699221 0.979225778 0.177974384 0 0
-1.13604 2.77364 0.62836 0.0971699221 0.979225778 0.177974384 0 0
-1.134822 2.77364 0.627695 0.0971699221 0.979225778 0.177974384 0 0
-1.138903 2.775403 0.620223 0.0971699221 0.979225778 0.177974384 0 0
-1.140121 2.775403 0.620888 0.0971699221 0.979225778 0.177974384 0 0
-1.134822 2.77364 0.627695 0.501678375 0.862170432 -0.0705758801 0 0
-1.138129 2.774918 0.6198 0.501678375 0.862170432 -0.0705758801 0 0
-1.138903 2.775403 0.620223 0.501678375 0.862170432 -0.0705758801 0 0
-1.134822 2.77364 0.627695 0.501980217 0.86198186 -0.0707328383 0 0
-1.134137 2.773193 0.627109 0.501980217 0.86198186 -0.0707328383 0 0
-1.138129 2.774918 0.6198 0.501980217 0.86198186 -0.0707328383 0 0
-1.134822 2.77364 0.627695 0.648211539 0.735651332 0.196567847 0 0
-1.130729 2.768523 0.633348 0.648211539 0.735651332 0.196567847 0 0
-1.134137 2.773193 0.627109 0.648211539 0.735651332 0.196567847 0 0
-1.134822 2.77364 0.627695 0.648310243 0.73559666 0.196446893 0 0
-1.131339 2.768867 0.634073 0.648310243 0.73559666 0.196446893 0 0
-1.130729 2.768523 0.633348 0.648310243 0.73559666 0.196446893 0 0
-1.132594 2.7616 0.640196 -0.400559755 -0.548990051 -0.733595125 0 0
-1.137761 2.768867 0.637579 -0.400559755 -0.548990051 -0.733595125 0 0
-1.134882 2.768867 0.636007 -0.400559755 -0.548990051 -0.733595125 0 0
-1.132594 2.7616 0.640196 -0.400733793 -0.549060558 -0.733447292 0 0
-1.135473 2.7616 0.641769 -0.400733793 -0.549060558 -0.733447292 0 0
-1.137761 2.768867 0.637579 -0.400733793 -0.549060558 -0.733447292 0 0
-1.132594 2.7616 0.640196 -0.469513985 -0.20273989 -0.859332971 0 0
-1.134628 2.753086 0.643316 -0.469513985 -0.20273989 -0.859332971 0 0
-1.135473 2.7616 0.641769 -0.469513985 -0.20273989 -0.859332971 0 0
-1.132594 2.7616 0.640196 -0.469274464 -0.202836683 -0.859440956 0 0
-1.131749 2.753086 0.641744 -0.469274464 -0.202836683 -0.859440956 0 0
-1.134628 2.753086 0.643316 -0.469274464 -0.202836683 -0.859440956 0 0
-1.132594 2.7616 0.640196 -0.469415884 -0.202836677 -0.859363724 0 0
-1.129424 2.753086 0.640474 -0.469415884 -0.202836677 -0.859363724 0 0
-1.131749 2.753086 0.641744 -0.469415884 -0.202836677 -0.859363724 0 0
-1.132594 2.7616 0.640196 -0.469140732 -0.202739882 -0.859536802 0 0
-1.130269 2.7616 0.638927 -0.469140732 -0.202739882 -0.859536802 0 0
-1.129424 2.753086 0.640474 -0.469140732 -0.202739882 -0.859536802 0 0
-1.132594 2.7616 0.640196 -0.400415217 -0.549060561 -0.733621261 0 0
-1.132557 2.768867 0.634737 -0.400415217 -0.549060561 -0.733621261 0 0
-1.130269 2.7616 0.638927 -0.400415217 -0.549060561 -0.733621261 0 0
-1.132594 2.7616 0.640196 -0.400680466 -0.548990054 -0.733529199 0 0
-1.134882 2.768867 0.636007 -0.400680466 -0.548990054 -0.733529199 0 0
-1.132557 2.768867 0.634737 -0.400680466 -0.548990054 -0.733529199 0 0
-1.129051 2.7616 0.638262 -0.400069612 -0.548989931 -0.733862631 0 0
-1.132557 2.768867 0.634737 -0.400069612 -0.548989931 -0.733862631 0 0
-1.131339 2.768867 0.634073 -0.400069612 -0.548989931 -0.733862631 0 0
-1.129051 2.7616 0.638262 -0.400511611 -0.549060568 -0.733568635 0 0
-1.130269 2.7616 0.638927 -0.400511611 -0.549060568 -0.733568635 0 0
-1.132557 2.768867 0.634737 -0.400511611 -0.549060568 -0.733568635 0 0
-1.129051 2.7616 0.638262 -0.469253672 -0.202739888 -0.859475147 0 0
-1.129424 2.753086 0.640474 -0.469253672 -0.202739888 -0.859475147 0 0
-1.130269 2.7616 0.638927 -0.469253672 -0.202739888 -0.859475147 0 0
-1.129051 2.7616 0.638262 -0.469253672 -0.202739888 -0.859475147 0 0
-1.128206 2.753086 0.639809 -0.469253672 -0.202739888 -0.859475147 0 0
-1.129424 2.753086 0.640474 -0.469253672 -0.202739888 -0.859475147 0 0
-1.129051 2.7616 0.638262 -0.829800292 -0.178433353 -0.528765557 0 0
-1.127665 2.753086 0.63896 -0.829800292 -0.178433353 -0.528765557 0 0
-1.128206 2.753086 0.639809 -0.829800292 -0.178433353 -0.528765557 0 0
-1.129051 2.7616 0.638262 -0.829688914 -0.17842965 -0.528941552 0 0
-1.128491 2.761415 0.637446 -0.829688914 -0.17842965 -0.528941552 0 0
-1.127665 2.753086 0.63896 -0.829688914 -0.17842965 -0.528941552 0 0
-1.129051 2.7616 0.638262 -0.769095793 -0.483285568 -0.418242419 0 0
-1.130729 2.768523 0.633348 -0.769095793 -0.483285568 -0.418242419 0 0
-1.128491 2.761415 0.637446 -0.769095793 -0.483285568 -0.418242419 0 0
-1.129051 2.7616 0.638262 -0.769293687 -0.483169962 -0.418011975 0 0
-1.131339 2.768867 0.634073 -0.769293687 -0.483169962 -0.418011975 0 0
-1.130729 2.768523 0.633348 -0.769293687 -0.483169962 -0.418011975 0 0
-1.132594 2.744573 0.640196 0.400559755 -0.548990051 0.733595125 0 0
-1.137761 2.737306 0.637579 0.400559755 -0.548990051 0.733595125 0 0
-1.134882 2.737306 0.636007 0.400559755 -0.548990051 0.733595125 0 0
-1.132594 2.744573 0.640196 0.400733793 -0.549060558 0.733447292 0 0
-1.135473 2.744573 0.641769 0.400733793 -0.549060558 0.733447292 0 0
-1.137761 2.737306 0.637579 0.400733793 -0.549060558 0.733447292 0 0
-1.132594 2.744573 0.640196 0.469511718 -0.202762726 0.859328822 0 0
-1.134628 2.753086 0.643316 0.469511718 -0.202762726 0.859328822 0 0
-1.135473 2.744573 0.641769 0.469511718 -0.202762726 0.859328822 0 0
-1.132594 2.744573 0.640196 0.469272196 -0.20285953 0.859436802 0 0
-1.131749 2.753086 0.641744 0.469272196 -0.20285953 0.859436802 0 0
-1.134628 2.753086 0.643316 0.469272196 -0.20285953 0.859436802 0 0
-1.132594 2.744573 0.640196 0.469413615 -0.202859523 0.859359571 0 0
-1.129424 2.753086 0.640474 0.469413615 -0.202859523 0.859359571 0 0
-1.131749 2.753086 0.641744 0.469413615 -0.202859523 0.859359571 0 0
-1.132594 2.744573 0.640196 0.469138467 -0.202762718 0.859532652 0 0
-1.130269 2.744573 0.638927 0.469138467 -0.202762718 0.859532652 0 0
-1.129424 2.753086 0.640474 0.469138467 -0.202762718 0.859532652 0 0
-1.132594 2.744573 0.640196 0.400415217 -0.549060561 0.733621261 0 0
-1.132557 2.737306 0.634737 0.400415217 -0.549060561 0.733621261 0 0
-1.130269 2.744573 0.638927 0.400415217 -0.549060561 0.733621261 0 0
-1.132594 2.744573 0.640196 0.400680466 -0.548990054 0.733529199 0 0
-1.134882 2.737306 0.636007 0.400680466 -0.548990054 0.733529199 0 0
-1.132557 2.737306 0.634737 0.400680466 -0.548990054 0.733529199 0 0
-1.129051 2.744573 0.638262 0.400069612 -0.548989931 0.733862631 0 0
-1.132557 2.737306 0.634737 0.400069612 -0.548989931 0.733862631 0 0
-1.131339 2.737306 0.634073 0.400069612 -0.548989931 0.733862631 0 0
-1.129051 2.744573 0.638262 0.400511611 -0.549060568 0.733568635 0 0
-1.130269 2.744573 0.638927 0.400511611 -0.549060568 0.733568635 0 0
-1.132557 2.737306 0.634737 0.400511611 -0.549060568 0.733568635 0 0
-1.129051 2.744573 0.638262 0.469251407 -0.202762724 0.859470997 0 0
-1.129424 2.753086 0.640474 0.469251407 -0.202762724 0.859470997 0 0
-1.130269 2.744573 0.638927 0.469251407 -0.202762724 0.859470997 0 0
-1.129051 2.744573 0.638262 0.469251407 -0.202762724 0.859470997 0 0
-1.128206 2.753086 0.639809 0.469251407 -0.202762724 0.859470997 0 0
-1.129424 2.753086 0.640474 0.469251407 -0.202762724 0.859470997 0 0
-1.129051 2.744573 0.638262 0.829797188 -0.178453645 0.528763579 0 0
-1.127665 2.753086 0.63896 0.829797188 -0.178453645 0.528763579 0 0
-1.128206 2.753086 0.639809 0.829797188 -0.178453645 0.528763579 0 0
-1.129051 2.744573 0.638262 0.829687915 -0.178450012 0.52893625 0 0
-1.128491 2.744758 0.637446 0.829687915 -0.178450012 0.52893625 0 0
-1.127665 2.753086 0.63896 0.829687915 -0.178450012 0.52893625 0 0
-1.129051 2.744573 0.638262 0.769113755 -0.483236729 0.418265819 0 0
-1.130729 2.737649 0.633348 0.769113755 -0.483236729 0.418265819 0 0
-1.128491 2.744758 0.637446 0.769113755 -0.483236729 0.418265819 0 0
-1.129051 2.744573 0.638262 0.769013116 -0.48329548 0.418382967 0 0
-1.131339 2.737306 0.634073 0.769013116 -0.48329548 0.418382967 0 0
-1.130729 2.737649 0.633348 0.769013116 -0.48329548 0.418382967 0 0
-1.138365 2.732533 0.629629 0.0972647023 -0.97919878 0.178071128 0 0
-1.145324 2.730769 0.62373 0.0972647023 -0.97919878 0.178071128 0 0
-1.142446 2.730769 0.622158 0.0972647023 -0.97919878 0.178071128 0 0
-1.138365 2.732533 0.629629 0.0972819566 -0.979200665 0.178051337 0 0
-1.141244 2.732533 0.631202 0.0972819566 -0.979200665 0.178051337 0 0
-1.145324 2.730769 0.62373 0.0972819566 -0.979200665 0.178051337 0 0
-1.138365 2.732533 0.629629 0.263241088 -0.835806843 0.481799804 0 0
-1.137761 2.737306 0.637579 0.263241088 -0.835806843 0.481799804 0 0
-1.141244 2.732533 0.631202 0.263241088 -0.835806843 0.481799804 0 0
-1.138365 2.732533 0.629629 0.263089982 -0.835837271 0.481829553 0 0
-1.134882 2.737306 0.636007 0.263089982 -0.835837271 0.481829553 0 0
-1.137761 2.737306 0.637579 0.263089982 -0.835837271 0.481829553 0 0
-1.138365 2.732533 0.629629 0.263169266 -0.83583727 0.481786255 0 0
-1.132557 2.737306 0.634737 0.263169266 -0.83583727 0.481786255 0 0
-1.134882 2.737306 0.636007 0.263169266 -0.83583727 0.481786255 0 0
-1.138365 2.732533 0.629629 0.263031822 -0.835806835 0.481914095 0 0
-1.13604 2.732533 0.62836 0.263031822 -0.835806835 0.481914095 0 0
-1.132557 2.737306 0.634737 0.263031822 -0.835806835 0.481914095 0 0
-1.138365 2.732533 0.629629 0.0971993732 -0.979202934 0.178083958 0 0
-1.140121 2.730769 0.620888 0.0971993732 -0.979202934 0.178083958 0 0
-1.13604 2.732533 0.62836 0.0971993732 -0.979202934 0.178083958 0 0
-1.138365 2.732533 0.629629 0.0972679818 -0.97919878 0.178069337 0 0
-1.142446 2.730769 0.622158 0.0972679818 -0.97919878 0.178069337 0 0
-1.140121 2.730769 0.620888 0.0972679818 -0.97919878 0.178069337 0 0
-1.134822 2.732533 0.627695 0.0972227703 -0.979202935 0.178071179 0 0
-1.140121 2.730769 0.620888 0.0972227703 -0.979202935 0.178071179 0 0
-1.138903 2.730769 0.620223 0.0972227703 -0.979202935 0.178071179 0 0
-1.134822 2.732533 0.627695 0.0972227703 -0.979202935 0.178071179 0 0
-1.13604 2.732533 0.62836 0.0972227703 -0.979202935 0.178071179 0 0
-1.140121 2.730769 0.620888 0.0972227703 -0.979202935 0.178071179 0 0
-1.134822 2.732533 0.627695 0.263095139 -0.835806842 0.481879518 0 0
-1.132557 2.737306 0.634737 0.263095139 -0.835806842 0.481879518 0 0
-1.13604 2.732533 0.62836 0.263095139 -0.835806842 0.481879518 0 0
-1.134822 2.732533 0.627695 0.262768076 -0.835837205 0.482005295 0 0
-1.131339 2.737306 0.634073 0.262768076 -0.835837205 0.482005295 0 0
-1.132557 2.737306 0.634737 0.262768076 -0.835837205 0.482005295 0 0
-1.134822 2.732533 0.627695 0.64783511 -0.735887608 0.196924093 0 0
-1.130729 2.737649 0.633348 0.64783511 -0.735887608 0.196924093 0 0
-1.131339 2.737306 0.634073 0.64783511 -0.735887608 0.196924093 0 0
-1.134822 2.732533 0.627695 0.648181913 -0.735695735 0.196499347 0 0
-1.134137 2.73298 0.627109 0.648181913 -0.735695735 0.196499347 0 0
-1.130729 2.737649 0.633348 0.648181913 -0.735695735 0.196499347 0 0
-1.134822 2.732533 0.627695 0.501980217 -0.86198186 -0.0707328383 0 0
-1.138129 2.731255 0.6198 0.501980217 -0.86198186 -0.0707328383 0 0
-1.134137 2.73298 0.627109 0.501980217 -0.86198186 -0.0707328383 0 0
-1.134822 2.732533 0.627695 0.502342718 -0.861755158 -0.0709213778 0 0
-1.138903 2.730769 0.620223 0.502342718 -0.861755158 -0.0709213778 0 0
-1.138129 2.731255 0.6198 0.502342718 -0.861755158 -0.0709213778 0 0
-1.146526 2.732533 0.614685 -0.263112182 -0.835806844 -0.481870211 0 0
-1.152888 2.737306 0.60988 -0.263112182 -0.835806844 -0.481870211 0 0
-1.150009 2.737306 0.608308 -0.263112182 -0.835806844 -0.481870211 0 0
-1.146526 2.732533 0.614685 -0.26321888 -0.835837266 -0.481759158 0 0
-1.149405 2.732533 0.616258 -0.26321888 -0.835837266 -0.481759158 0 0
-1.152888 2.737306 0.60988 -0.26321888 -0.835837266 -0.481759158 0 0
-1.146526 2.732533 0.614685 -0.0972767035 -0.979202935 -0.178041722 0 0
-1.145324 2.730769 0.62373 -0.0972767035 -0.979202935 -0.178041722 0 0
-1.149405 2.732533 0.616258 -0.0972767035 -0.979202935 -0.178041722 0 0
-1.146526 2.732533 0.614685 -0.0972507271 -0.979204821 -0.178045542 0 0
-1.142446 2.730769 0.622158 -0.0972507271 -0.979204821 -0.178045542 0 0
-1.145324 2.730769 0.62373 -0.0972507271 -0.979204821 -0.178045542 0 0
-1.146526 2.732533 0.614685 -0.0972540064 -0.979204821 -0.178043752 0 0
-1.140121 2.730769 0.620888 -0.0972540064 -0.979204821 -0.178043752 0 0
-1.142446 2.730769 0.622158 -0.0972540064 -0.979204821 -0.178043752 0 0
-1.146526 2.732533 0.614685 -0.0972046179 -0.979200666 -0.178093567 0 0
-1.144201 2.732533 0.613416 -0.0972046179 -0.979200666 -0.178093567 0 0
-1.140121 2.730769 0.620888 -0.0972046179 -0.979200666 -0.178093567 0 0
-1.146526 2.732533 0.614685 -0.263009627 -0.835837265 -0.48187343 0 0
-1.147684 2.737306 0.607038 -0.263009627 -0.835837265 -0.48187343 0 0
-1.144201 2.732533 0.613416 -0.263009627 -0.835837265 -0.48187343 0 0
-1.146526 2.732533 0.614685 -0.263191471 -0.835806845 -0.481826906 0 0
-1.150009 2.737306 0.608308 -0.263191471 -0.835806845 -0.481826906 0 0
-1.147684 2.737306 0.607038 -0.263191471 -0.835806845 -0.481826906 0 0
-1.142983 2.732533 0.612751 -0.26307294 -0.83583727 -0.481838859 0 0
-1.147684 2.737306 0.607038 -0.26307294 -0.83583727 -0.481838859 0 0
-1.146466 2.737306 0.606373 -0.26307294 -0.83583727 -0.481838859 0 0
-1.142983 2.732533 0.612751 -0.26307294 -0.83583727 -0.481838859 0 0
-1.144201 2.732533 0.613416 -0.26307294 -0.83583727 -0.481838859 0 0
-1.147684 2.737306 0.607038 -0.26307294 -0.83583727 -0.481838859 0 0
-1.142983 2.732533 0.612751 -0.0972280176 -0.979200666 -0.17808079 0 0
-1.140121 2.730769 0.620888 -0.0972280176 -0.979200666 -0.17808079 0 0
-1.144201 2.732533 0.613416 -0.0972280176 -0.979200666 -0.17808079 0 0
-1.142983 2.732533 0.612751 -0.0972280176 -0.979200666 -0.17808079 0 0
-1.138903 2.730769 0.620223 -0.0972280176 -0.979200666 -0.17808079 0 0
-1.140121 2.730769 0.620888 -0.0972280176 -0.979200666 -0.17808079 0 0
-1.142983 2.732533 0.612751 0.331125981 -0.861799316 -0.384262312 0 0
-1.138129 2.731255 0.6198 0.331125981 -0.861799316 -0.384262312 0 0
-1.138903 2.730769 0.620223 0.331125981 -0.861799316 -0.384262312 0 0
-1.142983 2.732533 0.612751 0.330486674 -0.862207812 -0.383896141 0 0
-1.14212 2.73298 0.61249 0.330486674 -0.862207812 -0.383896141 0 0
-1.138129 2.731255 0.6198 0.330486674 -0.862207812 -0.383896141 0 0
-1.142983 2.732533 0.612751 0.184212568 -0.736011344 -0.651423849 0 0
-1.145528 2.737649 0.606251 0.184212568 -0.736011344 -0.651423849 0 0
-1.14212 2.73298 0.61249 0.184212568 -0.736011344 -0.651423849 0 0
-1.142983 2.732533 0.612751 0.184386706 -0.735950073 -0.651443806 0 0
-1.146466 2.737306 0.606373 0.184386706 -0.735950073 -0.651443806 0 0
-1.145528 2.737649 0.606251 0.184386706 -0.735950073 -0.651443806 0 0
-1.152297 2.744573 0.604118 0.400537556 0.549060569 0.733554468 0 0
-1.152888 2.737306 0.60988 0.400537556 0.549060569 0.733554468 0 0
-1.150009 2.737306 0.608308 0.400537556 0.549060569 0.733554468 0 0
-1.152297 2.744573 0.604118 0.400756 0.54899005 0.733487937 0 0
-1.155176 2.744573 0.605691 0.400756 0.54899005 0.733487937 0 0
-1.152888 2.737306 0.60988 0.400756 0.54899005 0.733487937 0 0
-1.152297 2.744573 0.604118 0.469502106 0.202859516 0.859311229 0 0
-1.156021 2.753086 0.604143 0.469502106 0.202859516 0.859311229 0 0
-1.155176 2.744573 0.605691 0.469502106 0.202859516 0.859311229 0 0
-1.152297 2.744573 0.604118 0.469281805 0.202762725 0.8594544 0 0
-1.153142 2.753086 0.602571 0.469281805 0.202762725 0.8594544 0 0
-1.156021 2.753086 0.604143 0.469281805 0.202762725 0.8594544 0 0
-1.152297 2.744573 0.604118 0.469423226 0.202762728 0.859377165 0 0
-1.150817 2.753086 0.601301 0.469423226 0.202762728 0.859377165 0 0
-1.153142 2.753086 0.602571 0.469423226 0.202762728 0.859377165 0 0
-1.152297 2.744573 0.604118 0.46912886 0.202859531 0.859515051 0 0
-1.149972 2.744573 0.602849 0.46912886 0.202859531 0.859515051 0 0
-1.150817 2.753086 0.601301 0.46912886 0.202859531 0.859515051 0 0
-1.152297 2.744573 0.604118 0.400437411 0.548990037 0.733661924 0 0
-1.147684 2.737306 0.607038 0.400437411 0.548990037 0.733661924 0 0
-1.149972 2.744573 0.602849 0.400437411 0.548990037 0.733661924 0 0
-1.152297 2.744573 0.604118 0.400658262 0.549060565 0.73348855 0 0
-1.150009 2.737306 0.608308 0.400658262 0.549060565 0.73348855 0 0
-1.147684 2.737306 0.607038 0.400658262 0.549060565 0.73348855 0 0
-1.148754 2.744573 0.602184 0.400533809 0.548990049 0.733609293 0 0
-1.147684 2.737306 0.607038 0.400533809 0.548990049 0.733609293 0 0
-1.146466 2.737306 0.606373 0.400533809 0.548990049 0.733609293 0 0
-1.148754 2.744573 0.602184 0.400533809 0.548990049 0.733609293 0 0
-1.149972 2.744573 0.602849 0.400533809 0.548990049 0.733609293 0 0
-1.147684 2.737306 0.607038 0.400533809 0.548990049 0.733609293 0 0
-1.148754 2.744573 0.602184 0.469241798 0.20285953 0.859453399 0 0
-1.150817 2.753086 0.601301 0.469241798 0.20285953 0.859453399 0 0
-1.149972 2.744573 0.602849 0.469241798 0.20285953 0.859453399 0 0
-1.148754 2.744573 0.602184 0.469241798 0.20285953 0.859453399 0 0
-1.149599 2.753086 0.600636 0.469241798 0.20285953 0.859453399 0 0
-1.150817 2.753086 0.601301 0.469241798 0.20285953 0.859453399 0 0
-1.148754 2.744573 0.602184 -0.00293122093 0.178623363 0.983913158 0 0
-1.148592 2.753086 0.600639 -0.00293122093 0.178623363 0.983913158 0 0
-1.149599 2.753086 0.600636 -0.00293122093 0.178623363 0.983913158 0 0
-1.148754 2.744573 0.602184 -0.00257364467 0.178616951 0.983915322 0 0
-1.147766 2.744758 0.602153 -0.00257364467 0.178616951 0.983915322 0 0
-1.148592 2.753086 0.600639 -0.00257364467 0.178616951 0.983915322 0 0
-1.148754 2.744573 0.602184 -0.0631258496 0.483430063 0.873103946 0 0
-1.145528 2.737649 0.606251 -0.0631258496 0.483430063 0.873103946 0 0
-1.147766 2.744758 0.602153 -0.0631258496 0.483430063 0.873103946 0 0
-1.148754 2.744573 0.602184 -0.0632047905 0.483399778 0.873115003 0 0
-1.146466 2.737306 0.606373 -0.0632047905 0.483399778 0.873115003 0 0
-1.145528 2.737649 0.606251 -0.0632047905 0.483399778 0.873115003 0 0
-1.152297 2.7616 0.604118 -0.400537556 0.549060569 -0.733554468 0 0
-1.152888 2.768867 0.60988 -0.400537556 0.549060569 -0.733554468 0 0
-1.150009 2.768867 0.608308 -0.400537556 0.549060569 -0.733554468 0 0
-1.152297 2.7616 0.604118 -0.400756 0.54899005 -0.733487937 0 0
-1.155176 2.7616 0.605691 -0.400756 0.54899005 -0.733487937 0 0
-1.152888 2.768867 0.60988 -0.400756 0.54899005 -0.733487937 0 0
-1.152297 2.7616 0.604118 -0.469504375 0.20283667 -0.859315383 0 0
-1.156021 2.753086 0.604143 -0.469504375 0.20283667 -0.859315383 0 0
-1.155176 2.7616 0.605691 -0.469504375 0.20283667 -0.859315383 0 0
-1.152297 2.7616 0.604118 -0.469284071 0.202739889 -0.859458549 0 0
-1.153142 2.753086 0.602571 -0.469284071 0.202739889 -0.859458549 0 0
-1.156021 2.753086 0.604143 -0.469284071 0.202739889 -0.859458549 0 0
-1.152297 2.7616 0.604118 -0.469425492 0.202739891 -0.859381315 0 0
-1.150817 2.753086 0.601301 -0.469425492 0.202739891 -0.859381315 0 0
-1.153142 2.753086 0.602571 -0.469425492 0.202739891 -0.859381315 0 0
-1.152297 2.7616 0.604118 -0.469131128 0.202836685 -0.859519205 0 0
-1.149972 2.7616 0.602849 -0.469131128 0.202836685 -0.859519205 0 0
-1.150817 2.753086 0.601301 -0.469131128 0.202836685 -0.859519205 0 0
-1.152297 2.7616 0.604118 -0.400437411 0.548990037 -0.733661924 0 0
-1.147684 2.768867 0.607038 -0.400437411 0.548990037 -0.733661924 0 0
-1.149972 2.7616 0.602849 -0.400437411 0.548990037 -0.733661924 0 0
-1.152297 2.7616 0.604118 -0.400658262 0.549060565 -0.73348855 0 0
-1.150009 2.768867 0.608308 -0.400658262 0.549060565 -0.73348855 0 0
-1.147684 2.768867 0.607038 -0.400658262 0.549060565 -0.73348855 0 0
-1.148754 2.7616 0.602184 -0.400533809 0.548990049 -0.733609293 0 0
-1.147684 2.768867 0.607038 -0.400533809 0.548990049 -0.733609293 0 0
-1.146466 2.768867 0.606373 -0.400533809 0.548990049 -0.733609293 0 0
-1.148754 2.7616 0.602184 -0.400533809 0.548990049 -0.733609293 0 0
-1.149972 2.7616 0.602849 -0.400533809 0.548990049 -0.733609293 0 0
-1.147684 2.768867 0.607038 -0.400533809 0.548990049 -0.733609293 0 0
-1.148754 2.7616 0.602184 -0.469244066 0.202836684 -0.859457553 0 0
-1.150817 2.753086 0.601301 -0.469244066 0.202836684 -0.859457553 0 0
-1.149972 2.7616 0.602849 -0.469244066 0.202836684 -0.859457553 0 0
-1.148754 2.7616 0.602184 -0.469244066 0.202836684 -0.859457553 0 0
-1.149599 2.753086 0.600636 -0.469244066 0.202836684 -0.859457553 0 0
-1.150817 2.753086 0.601301 -0.469244066 0.202836684 -0.859457553 0 0
-1.148754 2.7616 0.602184 0.00293123191 0.178603052 -0.983916845 0 0
-1.148592 2.753086 0.600639 0.00293123191 0.178603052 -0.983916845 0 0
-1.149599 2.753086 0.600636 0.00293123191 0.178603052 -0.983916845 0 0
-1.148754 2.7616 0.602184 0.00256971202 0.17859657 -0.983919032 0 0
-1.147766 2.761415 0.602153 0.00256971202 0.17859657 -0.983919032 0 0
-1.148592 2.753086 0.600639 0.00256971202 0.17859657 -0.983919032 0 0
-1.148754 2.7616 0.602184 0.0631358673 0.48347891 -0.873076174 0 0
-1.145528 2.768523 0.606251 0.0631358673 0.48347891 -0.873076174 0 0
-1.147766 2.761415 0.602153 0.0631358673 0.48347891 -0.873076174 0 0
-1.148754 2.7616 0.602184 0.0636694063 0.48327413 -0.873150801 0 0
-1.146466 2.768867 0.606373 0.0636694063 0.48327413 -0.873150801 0 0
-1.145528 2.768523 0.606251 0.0636694063 0.48327413 -0.873150801 0 0
-1.146526 2.77364 0.614685 0.263112182 -0.835806844 0.481870211 0 0
-1.152888 2.768867 0.60988 0.263112182 -0.835806844 0.481870211 0 0
-1.150009 2.768867 0.608308 0.263112182 -0.835806844 0.481870211 0 0
-1.146526 2.77364 0.614685 0.26321888 -0.835837266 0.481759158 0 0
-1.149405 2.77364 0.616258 0.26321888 -0.835837266 0.481759158 0 0
-1.152888 2.768867 0.60988 0.26321888 -0.835837266 0.481759158 0 0
-1.146526 2.77364 0.614685 0.097223826 -0.979225778 0.177944943 0 0
-1.145324 2.775403 0.62373 0.097223826 -0.979225778 0.177944943 0 0
-1.149405 2.77364 0.616258 0.097223826 -0.979225778 0.177944943 0 0
-1.146526 2.77364 0.614685 0.0971978635 -0.979227662 0.17794876 0 0
-1.142446 2.775403 0.622158 0.0971978635 -0.979227662 0.17794876 0 0
-1.145324 2.775403 0.62373 0.0971978635 -0.979227662 0.17794876 0 0
-1.146526 2.77364 0.614685 0.097201141 -0.979227662 0.177946971 0 0
-1.140121 2.775403 0.620888 0.097201141 -0.979227662 0.177946971 0 0
-1.142446 2.775403 0.622158 0.097201141 -0.979227662 0.177946971 0 0
-1.146526 2.77364 0.614685 0.0971517798 -0.979223511 0.17799676 0 0
-1.144201 2.77364 0.613416 0.0971517798 -0.979223511 0.17799676 0 0
-1.140121 2.775403 0.620888 0.0971517798 -0.979223511 0.17799676 0 0
-1.146526 2.77364 0.614685 0.263009627 -0.835837265 0.48187343 0 0
-1.147684 2.768867 0.607038 0.263009627 -0.835837265 0.48187343 0 0
-1.144201 2.77364 0.613416 0.263009627 -0.835837265 0.48187343 0 0
-1.146526 2.77364 0.614685 0.263191471 -0.835806845 0.481826906 0 0
-1.150009 2.768867 0.608308 0.263191471 -0.835806845 0.481826906 0 0
-1.147684 2.768867 0.607038 0.263191471 -0.835806845 0.481826906 0 0
-1.142983 2.77364 0.612751 0.26307294 -0.83583727 0.481838859 0 0
-1.147684 2.768867 0.607038 0.26307294 -0.83583727 0.481838859 0 0
-1.146466 2.768867 0.606373 0.26307294 -0.83583727 0.481838859 0 0
-1.142983 2.77364 0.612751 0.26307294 -0.83583727 0.481838859 0 0
-1.144201 2.77364 0.613416 0.26307294 -0.83583727 0.481838859 0 0
-1.147684 2.768867 0.607038 0.26307294 -0.83583727 0.481838859 0 0
-1.142983 2.77364 0.612751 0.0971751668 -0.979223512 0.17798399 0 0
-1.140121 2.775403 0.620888 0.0971751668 -0.979223512 0.17798399 0 0
-1.144201 2.77364 0.613416 0.0971751668 -0.979223512 0.17798399 0 0
-1.142983 2.77364 0.612751 0.0971751668 -0.979223512 0.17798399 0 0
-1.138903 2.775403 0.620223 0.0971751668 -0.979223512 0.17798399 0 0
-1.140121 2.775403 0.620888 0.0971751668 -0.979223512 0.17798399 0 0
-1.142983 2.77364 0.612751 -0.330476142 -0.862214535 0.383890108 0 0
-1.138129 2.774918 0.6198 -0.330476142 -0.862214535 0.383890108 0 0
-1.138903 2.775403 0.620223 -0.330476142 -0.862214535 0.383890108 0 0
-1.142983 2.77364 0.612751 -0.330486674 -0.862207812 0.383896141 0 0
-1.14212 2.773193 0.61249 -0.330486674 -0.862207812 0.383896141 0 0
-1.138129 2.774918 0.6198 -0.330486674 -0.862207812 0.383896141 0 0
-1.142983 2.77364 0.612751 -0.18417084 -0.735966953 0.651485798 0 0
-1.145528 2.768523 0.606251 -0.18417084 -0.735966953 0.651485798 0 0
-1.14212 2.773193 0.61249 -0.18417084 -0.735966953 0.651485798 0 0
-1.142983 2.77364 0.612751 -0.185046 -0.735658785 0.651585857 0 0
-1.146466 2.768867 0.606373 -0.185046 -0.735658785 0.651585857 0 0
-1.145528 2.768523 0.606251 -0.185046 -0.735658785 0.651585857 0 0
3 0 1 2
3 3 4 5
3 6 7 8
3 9 10 11
3 12 13 14
3 15 16 17
3 18 19 20
3 21 22 23
3 24 25 26
3 27 28 29
3 30 31 32
3 33 34 35
3 36 37 38
3 39 40 41
3 42 43 44
3 45 46 47
3 48 49 50
3 51 52 53
3 54 55 56
3 57 58 59
3 60 61 62
3 63 64 65
3 66 67 68
3 69 70 71
3 72 73 74
3 75 76 77
3 78 79 80
3 81 82 83
3 84 85 86
3 87 88 89
3 90 91 92
3 93 94 95
3 96 97 98
3 99 100 101
3 102 103 104
3 105 106 107
3 108 109 110
3 111 112 113
3 114 115 116
3 117 118 119
3 120 121 122
3 123 124 125
3 126 127 128
3 129 130 131
3 132 133 134
3 135 136 137
3 138 139 140
3 141 142 143
3 144 145 146
3 147 148 149
3 150 151 152
3 153 154 155
3 156 157 158
3 159 160 161
3 162 163 164
3 165 166 167
3 168 169 170
3 171 172 173
3 174 175 176
3 177 178 179
3 180 181 182
3 183 184 185
3 186 187 188
3 189 190 191
3 192 193 194
3 195 196 197
3 198 199 200
3 201 202 203
3 204 205 206
3 207 208 209
3 210 211 212
3 213 214 215
3 216 217 218
3 219 220 221
3 222 223 224
3 225 226 227
3 228 229 230
3 231 232 233
3 234 235 236
3 237 238 239
3 240 241 242
3 243 244 245
3 246 247 248
3 249 250 251
3 252 253 254
3 255 256 257
3 258 259 260
3 261 262 263
3 264 265 266
3 267 268 269
3 270 271 272
3 273 274 275
3 276 277 278
3 279 280 281
3 282 283 284
3 285 286 287
3 288 289 290
3 291 292 293
3 294 295 296
3 297 298 299
3 300 301 302
3 303 304 305
3 306 307 308
3 309 310 311
3 312 313 314
3 315 316 317
3 318 319 320
3 321 322 323
3 324 325 326
3 327 328 329
3 330 331 332
3 333 334 335
3 336 337 338
3 339 340 341
3 342 343 344
3 345 346 347
3 348 349 350
3 351 352 353
3 354 355 356
3 357 358 359
3 360 361 362
3 363 364 365
3 366 367 368
3 369 370 371
3 372 373 374
3 375 376 377
3 378 379 380
3 381 382 383
3 384 385 386
3 387 388 389
3 390 391 392
3 393 394 395
3 396 397 398
3 399 400 401
3 402 403 404
3 405 406 407
3 408 409 410
3 411 412 413
3 414 415 416
3 417 418 419
3 420 421 422
3 423 424 425
3 426 427 428
3 429 430 431
3 432 433 434
3 435 436 437
3 438 439 440
3 441 442 443
3 444 445 446
3 447 448 449
3 450 451 452
3 453 454 455
3 456 457 458
3 459 460 461
3 462 463 464
3 465 466 467
3 468 469 470
3 471 472 473
3 474 475 476
3 477 478 479
3 480 481 482
3 483 484 485
3 486 487 488
3 489 490 491
3 492 493 494
3 495 496 497
3 498 499 500
3 501 502 503
3 504 505 506
3 507 508 509
3 510 511 512
3 513 514 515
3 516 517 518
3 519 520 521
3 522 523 524
3 525 526 527
3 528 529 530
3 531 532 533
3 534 535 536
3 537 538 539
3 540 541 542
3 543 544 545
3 546 547 548
3 549 550 551
3 552 553 554
3 555 556 557
3 558 559 560
3 561 562 563
3 564 565 566
3 567 568 569
3 570 571 572
3 573 574 575
3 576 577 578
3 579 580 581
3 582 583 584
3 585 586 587
3 588 589 590
3 591 592 593
3 594 595 596
3 597 598 599
3 600 601 602
3 603 604 605
3 606 607 608
3 609 610 611
3 612 613 614
3 615 616 617
3 618 619 620
3 621 622 623
3 624 625 626
3 627 628 629
3 630 631 632
3 633 634 635
3 636 637 638
3 639 640 641
3 642 643 644
3 645 646 647
3 648 649 650
3 651 652 653
3 654 655 656
3 657 658 659
3 660 661 662
3 663 664 665
3 666 667 668
3 669 670 671
3 672 673 674
3 675 676 677
3 678 679 680
3 681 682 683
3 684 685 686
3 687 688 689
3 690 691 692
3 693 694 695
3 696 697 698
3 699 700 701
3 702 703 704
3 705 706 707
3 708 709 710
3 711 712 713
3 714 715 716
3 717 718 719
3 720 721 722
3 723 724 725
3 726 727 728
3 729 730 731
3 732 733 734
3 735 736 737
3 738 739 740
3 741 742 743
3 744 745 746
3 747 748 749
3 750 751 752
3 753 754 755
3 756 757 758
3 759 760 761
3 762 763 764
3 765 766 767
3 768 769 770
3 771 772 773
3 774 775 776
3 777 778 779
3 780 781 782
3 783 784 785
3 786 787 788
3 789 790 791
3 792 793 794
3 795 796 797
3 798 799 800
3 801 802 803
3 804 805 806
3 807 808 809
3 810 811 812
3 813 814 815
3 816 817 818
3 819 820 821
3 822 823 824
3 825 826 827
3 828 829 830
3 831 832 833
3 834 835 836
3 837 838 839
3 840 841 842
3 843 844 845
3 846 847 848
3 849 850 851
3 852 853 854
3 855 856 857
3 858 859 860
3 861 862 863
3 864 865 866
3 867 868 869
3 870 871 872
3 873 874 875
3 876 877 878
3 879 880 881
3 882 883 884
3 885 886 887
3 888 889 890
3 891 892 893
3 894 895 896
3 897 898 899
3 900 901 902
3 903 904 905
3 906 907 908
3 909 910 911
3 912 913 914
3 915 916 917
3 918 919 920
3 921 922 923
3 924 925 926
3 927 928 929
3 930 931 932
3 933 934 935
3 936 937 938
3 939 940 941
3 942 943 944
3 945 946 947
3 948 949 950
3 951 952 953
3 954 955 956
3 957 958 959
3 960 961 962
3 963 964 965
3 966 967 968
3 969 970 971
3 972 973 974
3 975 976 977
3 978 979 980
3 981 982 983
3 984 985 986
3 987 988 989
3 990 991 992
3 993 994 995
3 996 997 998
3 999 1000 1001
3 1002 1003 1004
3 1005 1006 1007
3 1008 1009 1010
3 1011 1012 1013
3 1014 1015 1016
3 1017 1018 1019
3 1020 1021 1022
3 1023 1024 1025
3 1026 1027 1028
3 1029 1030 1031
3 1032 1033 1034
3 1035 1036 1037
3 1038 1039 1040
3 1041 1042 1043
3 1044 1045 1046
3 1047 1048 1049
3 1050 1051 1052
3 1053 1054 1055
3 1056 1057 1058
3 1059 1060 1061
3 1062 1063 1064
3 1065 1066 1067
3 1068 1069 1070
3 1071 1072 1073
3 1074 1075 1076
3 1077 1078 1079
3 1080 1081 1082
3 1083 1084 1085
3 1086 1087 1088
3 1089 1090 1091
3 1092 1093 1094
3 1095 1096 1097
3 1098 1099 1100
3 1101 1102 1103
3 1104 1105 1106
3 1107 1108 1109
3 1110 1111 1112
3 1113 1114 1115
3 1116 1117 1118
3 1119 1120 1121
3 1122 1123 1124
3 1125 1126 1127
3 1128 1129 1130
3 1131 1132 1133
3 1134 1135 1136
3 1137 1138 1139
3 1140 1141 1142
3 1143 1144 1145
3 1146 1147 1148
3 1149 1150 1151
