ply
format ascii 1.0
element vertex 200
property float x
property float y
property float z
property float nx
property float ny
property float nz
property float u
property float v
element face 256
property list uchar int vertex_indices
end_header
-1.496413 2.780501 0.802849 0.183394904 -0.923874326 0.335890666 0 0
-1.611377 2.782852 0.878571 0.0972017263 -0.979217391 0.178003161 0 0
-1.616819 2.780501 0.868605 0.183394904 -0.923874326 0.335890666 0 0
-1.490971 2.782852 0.812815 0.0972017263 -0.979217391 0.178003161 0 0
-1.330702 2.782852 0.725289 0.0972017263 -0.979217391 0.178003161 0 0
-1.336145 2.780501 0.715323 0.183394904 -0.923874326 0.335890666 0 0
-1.34079 2.774134 0.706817 0.26311125 -0.835835737 0.481820601 0 0
-1.501059 2.774134 0.794342 0.26311125 -0.835835737 0.481820601 0 0
-1.621465 2.774134 0.860098 0.26311125 -0.835835737 0.481820601 0 0
-1.6575 2.780501 0.890821 0.183401063 -0.923905354 0.335801946 0 0
-1.662145 2.774134 0.882315 0.26311125 -0.835835737 0.481820601 0 0
-1.662963 2.774134 0.882761 0.26311125 -0.835835737 0.481820601 0 0
-1.658318 2.780501 0.891268 0.183401063 -0.923905354 0.335801946 0 0
-1.652875 2.782852 0.901234 0.0972034561 -0.979234817 0.177906326 0 0
-1.652057 2.782852 0.900787 0.0972034561 -0.979234817 0.177906326 0 0
-1.50411 2.764442 0.788755 -0.442815993 0.382713822 -0.810829284 0 0
-1.34079 2.774134 0.706817 -0.400589921 0.548986188 -0.733581543 0 0
-1.343842 2.764442 0.701229 -0.442815993 0.382713822 -0.810829284 0 0
-1.501059 2.774134 0.794342 -0.400589921 0.548986188 -0.733581543 0 0
-1.621465 2.774134 0.860098 -0.400589921 0.548986188 -0.733581543 0 0
-1.624516 2.764442 0.854511 -0.442815993 0.382713822 -0.810829284 0 0
-1.625644 2.753086 0.852446 -0.479279444 0 -0.877662358 0 0
-1.505238 2.753086 0.786691 -0.47932151 0 -0.877639385 0 0
-1.344969 2.753086 0.699165 -0.479279444 0 -0.877662358 0 0
-1.665197 2.764442 0.876727 -0.442815993 0.382713822 -0.810829284 0 0
-1.662145 2.774134 0.882315 -0.400589921 0.548986188 -0.733581543 0 0
-1.662963 2.774134 0.882761 -0.400589921 0.548986188 -0.733581543 0 0
-1.666015 2.764442 0.877174 -0.442780089 0.382682791 -0.810863536 0 0
-1.667142 2.753086 0.87511 -0.479279444 0 -0.877662358 0 0
-1.666324 2.753086 0.874663 -0.479279444 0 -0.877662358 0 0
-1.50411 2.741731 0.788755 -0.442815993 -0.382713822 -0.810829284 0 0
-1.343842 2.741731 0.701229 -0.442815993 -0.382713822 -0.810829284 0 0
-1.624516 2.741731 0.854511 -0.442815993 -0.382713822 -0.810829284 0 0
-1.621465 2.732038 0.860098 -0.400589921 -0.548986188 -0.733581543 0 0
-1.501059 2.732038 0.794342 -0.400589921 -0.548986188 -0.733581543 0 0
-1.34079 2.732038 0.706817 -0.400589921 -0.548986188 -0.733581543 0 0
-1.665197 2.741731 0.876727 -0.442815993 -0.382713822 -0.810829284 0 0
-1.666015 2.741731 0.877174 -0.442780089 -0.382682791 -0.810863536 0 0
-1.662963 2.732038 0.882761 -0.400589921 -0.548986188 -0.733581543 0 0
-1.662145 2.732038 0.882315 -0.400589921 -0.548986188 -0.733581543 0 0
-1.496413 2.725672 0.802849 0.183394904 0.923874326 0.335890666 0 0
-1.330702 2.72332 0.725289 0.0972017263 0.979217391 0.178003161 0 0
-1.336145 2.725672 0.715323 0.183394904 0.923874326 0.335890666 0 0
-1.490971 2.72332 0.812815 0.0972017263 0.979217391 0.178003161 0 0
-1.611377 2.72332 0.878571 0.0972017263 0.979217391 0.178003161 0 0
-1.616819 2.725672 0.868605 0.183394904 0.923874326 0.335890666 0 0
-1.621465 2.732038 0.860098 0.26311125 0.835835737 0.481820601 0 0
-1.501059 2.732038 0.794342 0.26311125 0.835835737 0.481820601 0 0
-1.34079 2.732038 0.706817 0.26311125 0.835835737 0.481820601 0 0
-1.6575 2.725672 0.890821 0.183394904 0.923874326 0.335890666 0 0
-1.652057 2.72332 0.900787 0.0972017263 0.979217391 0.178003161 0 0
-1.652875 2.72332 0.901234 0.0971999956 0.979199956 0.178099992 0 0
-1.658318 2.725672 0.891268 0.183394904 0.923874326 0.335890666 0 0
-1.662963 2.732038 0.882761 0.26311125 0.835835737 0.481820601 0 0
-1.662145 2.732038 0.882315 0.26311125 0.835835737 0.481820601 0 0
-1.485528 2.725672 0.822781 0.183394904 -0.923874326 0.335890666 0 0
-1.330702 2.72332 0.725289 0.0972017263 -0.979217391 0.178003161 0 0
-1.32526 2.725672 0.735255 0.183394904 -0.923874326 0.335890666 0 0
-1.490971 2.72332 0.812815 0.0972017263 -0.979217391 0.178003161 0 0
-1.611377 2.72332 0.878571 0.0972017263 -0.979217391 0.178003161 0 0
-1.605934 2.725672 0.888537 0.183394904 -0.923874326 0.335890666 0 0
-1.601289 2.732038 0.897043 0.338902037 -0.70710425 0.62060373 0 0
-1.480883 2.732038 0.831287 0.338902037 -0.70710425 0.62060373 0 0
-1.320614 2.732038 0.743762 0.338902037 -0.70710425 0.62060373 0 0
-1.646615 2.725672 0.910753 0.183401063 -0.923905354 0.335801946 0 0
-1.652057 2.72332 0.900787 0.0972017263 -0.979217391 0.178003161 0 0
-1.652875 2.72332 0.901234 0.0972034561 -0.979234817 0.177906326 0 0
-1.647433 2.725672 0.9112 0.183401063 -0.923905354 0.335801946 0 0
-1.642787 2.732038 0.919706 0.338902037 -0.70710425 0.62060373 0 0
-1.641969 2.732038 0.91926 0.338902037 -0.70710425 0.62060373 0 0
-1.477831 2.741731 0.836875 0.442815993 -0.382713822 0.810829284 0 0
-1.317562 2.741731 0.749349 0.442815993 -0.382713822 0.810829284 0 0
-1.598237 2.741731 0.902631 0.442815993 -0.382713822 0.810829284 0 0
-1.59711 2.753086 0.904695 0.47932151 0 0.877639385 0 0
-1.476704 2.753086 0.838939 0.47932151 0 0.877639385 0 0
-1.316435 2.753086 0.751413 0.479279444 0 0.877662358 0 0
-1.638918 2.741731 0.924847 0.442815993 -0.382713822 0.810829284 0 0
-1.639736 2.741731 0.925294 0.442780089 -0.382682791 0.810863536 0 0
-1.638608 2.753086 0.927358 0.479279444 0 0.877662358 0 0
-1.63779 2.753086 0.926911 0.479279444 0 0.877662358 0 0
-1.477831 2.764442 0.836875 0.442815993 0.382713822 0.810829284 0 0
-1.317562 2.764442 0.749349 0.442815993 0.382713822 0.810829284 0 0
-1.598237 2.764442 0.902631 0.442815993 0.382713822 0.810829284 0 0
-1.601289 2.774134 0.897043 0.338902037 0.70710425 0.62060373 0 0
-1.480883 2.774134 0.831287 0.338902037 0.70710425 0.62060373 0 0
-1.320614 2.774134 0.743762 0.338902037 0.70710425 0.62060373 0 0
-1.638918 2.764442 0.924847 0.442815993 0.382713822 0.810829284 0 0
-1.639736 2.764442 0.925294 0.442780089 0.382682791 0.810863536 0 0
-1.642787 2.774134 0.919706 0.338902037 0.70710425 0.62060373 0 0
-1.641969 2.774134 0.91926 0.338902037 0.70710425 0.62060373 0 0
-1.485528 2.780501 0.822781 0.183394904 0.923874326 0.335890666 0 0
-1.611377 2.782852 0.878571 0.0972017263 0.979217391 0.178003161 0 0
-1.605934 2.780501 0.888537 0.183394904 0.923874326 0.335890666 0 0
-1.490971 2.782852 0.812815 0.0972017263 0.979217391 0.178003161 0 0
-1.330702 2.782852 0.725289 0.0972017263 0.979217391 0.178003161 0 0
-1.32526 2.780501 0.735255 0.183394904 0.923874326 0.335890666 0 0
-1.646615 2.780501 0.910753 0.183401063 0.923905354 0.335801946 0 0
-1.647433 2.780501 0.9112 0.183401063 0.923905354 0.335801946 0 0
-1.652875 2.782852 0.901234 0.0972017263 0.979217391 0.178003161 0 0
-1.652057 2.782852 0.900787 0.0972017263 0.979217391 0.178003161 0 0
-1.312673 2.780501 0.702505 0.183394904 -0.923874326 0.335890666 0 0
-1.186825 2.782852 0.646715 0.0972017263 -0.979217391 0.178003161 0 0
-1.307231 2.782852 0.712471 0.0972017263 -0.979217391 0.178003161 0 0
-1.192267 2.7805 0.636749 0.183394904 -0.923874326 0.335890666 0 0
-1.196913 2.774134 0.628243 0.26311125 -0.835835737 0.481820601 0 0
-1.317319 2.774134 0.693999 0.26311125 -0.835835737 0.481820601 0 0
-1.477588 2.774134 0.781524 0.26311125 -0.835835737 0.481820601 0 0
-1.472942 2.780501 0.790031 0.183394904 -0.923874326 0.335890666 0 0
-1.467499 2.782852 0.799997 0.0972017263 -0.979217391 0.178003161 0 0
-1.151587 2.7805 0.614533 0.183401063 -0.923905354 0.335801946 0 0
-1.156232 2.774134 0.606026 0.26311125 -0.835835737 0.481820601 0 0
-1.146144 2.782852 0.624499 0.0972017263 -0.979217391 0.178003161 0 0
-1.145326 2.782852 0.624052 0.0972017263 -0.979217391 0.178003161 0 0
-1.150769 2.7805 0.614086 0.183401063 -0.923905354 0.335801946 0 0
-1.155415 2.774134 0.60558 0.26311125 -0.835835737 0.481820601 0 0
-1.32037 2.764442 0.688411 -0.442815993 0.382713822 -0.810829284 0 0
-1.477588 2.774134 0.781524 -0.400589921 0.548986188 -0.733581543 0 0
-1.317319 2.774134 0.693999 -0.400589921 0.548986188 -0.733581543 0 0
-1.480639 2.764442 0.775937 -0.442815993 0.382713822 -0.810829284 0 0
-1.481766 2.753086 0.773873 -0.479279444 0 -0.877662358 0 0
-1.321498 2.753086 0.686347 -0.47932151 0 -0.877639385 0 0
-1.201092 2.753086 0.620591 -0.47932151 0 -0.877639385 0 0
-1.199965 2.764442 0.622655 -0.442815993 0.382713822 -0.810829284 0 0
-1.196913 2.774134 0.628243 -0.400589921 0.548986188 -0.733581543 0 0
-1.159284 2.764442 0.600439 -0.442815993 0.382713822 -0.810829284 0 0
-1.156232 2.774134 0.606026 -0.400619308 0.549026461 -0.733535354 0 0
-1.160411 2.753086 0.598375 -0.479279444 0 -0.877662358 0 0
-1.159593 2.753086 0.597928 -0.479279444 0 -0.877662358 0 0
-1.158466 2.764442 0.599992 -0.442815993 0.382713822 -0.810829284 0 0
-1.155415 2.774134 0.60558 -0.400597312 0.549096316 -0.733495078 0 0
-1.32037 2.741731 0.688411 -0.442815993 -0.382713822 -0.810829284 0 0
-1.480639 2.741731 0.775937 -0.442815993 -0.382713822 -0.810829284 0 0
-1.477588 2.732038 0.781524 -0.400589921 -0.548986188 -0.733581543 0 0
-1.317319 2.732038 0.693999 -0.400589921 -0.548986188 -0.733581543 0 0
-1.196913 2.732038 0.628243 -0.400589921 -0.548986188 -0.733581543 0 0
-1.199965 2.741731 0.622655 -0.442815993 -0.382713822 -0.810829284 0 0
-1.159284 2.741731 0.600439 -0.442815993 -0.382713822 -0.810829284 0 0
-1.156232 2.732038 0.606026 -0.400619308 -0.549026461 -0.733535354 0 0
-1.155415 2.732038 0.60558 -0.400619308 -0.549026461 -0.733535354 0 0
-1.158466 2.741731 0.599992 -0.442815993 -0.382713822 -0.810829284 0 0
-1.312673 2.725672 0.702505 0.183394904 0.923874326 0.335890666 0 0
-1.467499 2.72332 0.799997 0.0972017263 0.979217391 0.178003161 0 0
-1.307231 2.72332 0.712471 0.0972017263 0.979217391 0.178003161 0 0
-1.472942 2.725672 0.790031 0.183394904 0.923874326 0.335890666 0 0
-1.477588 2.732038 0.781524 0.26311125 0.835835737 0.481820601 0 0
-1.317319 2.732038 0.693999 0.26311125 0.835835737 0.481820601 0 0
-1.196913 2.732038 0.628243 0.26311125 0.835835737 0.481820601 0 0
-1.192267 2.725672 0.636749 0.183394904 0.923874326 0.335890666 0 0
-1.186825 2.72332 0.646715 0.0972017263 0.979217391 0.178003161 0 0
-1.151587 2.725672 0.614533 0.183394904 0.923874326 0.335890666 0 0
-1.146144 2.72332 0.624499 0.0972017263 0.979217391 0.178003161 0 0
-1.156232 2.732038 0.606026 0.26311125 0.835835737 0.481820601 0 0
-1.155415 2.732038 0.60558 0.26311125 0.835835737 0.481820601 0 0
-1.150769 2.725672 0.614086 0.183394904 0.923874326 0.335890666 0 0
-1.145326 2.72332 0.624052 0.0972017263 0.979217391 0.178003161 0 0
-1.301788 2.725672 0.722437 0.183394904 -0.923874326 0.335890666 0 0
-1.467499 2.72332 0.799997 0.0972017263 -0.979217391 0.178003161 0 0
-1.307231 2.72332 0.712471 0.0972017263 -0.979217391 0.178003161 0 0
-1.462057 2.725672 0.809963 0.183394904 -0.923874326 0.335890666 0 0
-1.457411 2.732038 0.818469 0.338902037 -0.70710425 0.62060373 0 0
-1.297143 2.732038 0.730944 0.338902037 -0.70710425 0.62060373 0 0
-1.176737 2.732038 0.665188 0.338902037 -0.70710425 0.62060373 0 0
-1.181382 2.725672 0.656681 0.183394904 -0.923874326 0.335890666 0 0
-1.186825 2.72332 0.646715 0.0972017263 -0.979217391 0.178003161 0 0
-1.140702 2.725672 0.634465 0.183394904 -0.923874326 0.335890666 0 0
-1.146144 2.72332 0.624499 0.0972017263 -0.979217391 0.178003161 0 0
-1.136056 2.732038 0.642971 0.338902037 -0.70710425 0.62060373 0 0
-1.135238 2.732038 0.642525 0.338902037 -0.70710425 0.62060373 0 0
-1.139884 2.725672 0.634018 0.183394904 -0.923874326 0.335890666 0 0
-1.145326 2.72332 0.624052 0.0971999956 -0.979199956 0.178099992 0 0
-1.294091 2.741731 0.736531 0.442815993 -0.382713822 0.810829284 0 0
-1.45436 2.741731 0.824057 0.442815993 -0.382713822 0.810829284 0 0
-1.453233 2.753086 0.826121 0.479279444 0 0.877662358 0 0
-1.292964 2.753086 0.738595 0.47932151 0 0.877639385 0 0
-1.172558 2.753086 0.672839 0.47932151 0 0.877639385 0 0
-1.173685 2.741731 0.670775 0.442815993 -0.382713822 0.810829284 0 0
-1.133005 2.741731 0.648559 0.442815993 -0.382713822 0.810829284 0 0
-1.131877 2.753086 0.650623 0.479279444 0 0.877662358 0 0
-1.131059 2.753086 0.650176 0.479279444 0 0.877662358 0 0
-1.132187 2.741731 0.648112 0.442815993 -0.382713822 0.810829284 0 0
-1.294091 2.764442 0.736531 0.442815993 0.382713822 0.810829284 0 0
-1.45436 2.764442 0.824057 0.442815993 0.382713822 0.810829284 0 0
-1.457411 2.774134 0.818469 0.338902037 0.70710425 0.62060373 0 0
-1.297143 2.774134 0.730944 0.338902037 0.70710425 0.62060373 0 0
-1.176737 2.774134 0.665188 0.338902037 0.70710425 0.62060373 0 0
-1.173685 2.764442 0.670775 0.442815993 0.382713822 0.810829284 0 0
-1.133005 2.764442 0.648559 0.442815993 0.382713822 0.810829284 0 0
-1.136056 2.774134 0.642971 0.338902037 0.70710425 0.62060373 0 0
-1.135238 2.774134 0.642525 0.338902037 0.70710425 0.62060373 0 0
-1.132187 2.764442 0.648112 0.442815993 0.382713822 0.810829284 0 0
-1.301788 2.780501 0.722437 0.183394904 0.923874326 0.335890666 0 0
-1.186825 2.782852 0.646715 0.0972017263 0.979217391 0.178003161 0 0
-1.307231 2.782852 0.712471 0.0972017263 0.979217391 0.178003161 0 0
-1.181382 2.7805 0.656681 0.183394904 0.923874326 0.335890666 0 0
-1.462057 2.780501 0.809963 0.183394904 0.923874326 0.335890666 0 0
-1.467499 2.782852 0.799997 0.0972017263 0.979217391 0.178003161 0 0
-1.140702 2.7805 0.634465 0.183394904 0.923874326 0.335890666 0 0
-1.146144 2.782852 0.624499 0.0972017263 0.979217391 0.178003161 0 0
-1.145326 2.782852 0.624052 0.0971999956 0.979199956 0.178099992 0 0
-1.139884 2.7805 0.634018 0.183394904 0.923874326 0.335890666 0 0
3 0 1 2
3 0 3 1
3 0 4 3
3 0 5 4
3 0 6 5
3 0 7 6
3 0 8 7
3 0 2 8
3 9 8 2
3 9 10 8
3 9 11 10
3 9 12 11
3 9 13 12
3 9 14 13
3 9 1 14
3 9 2 1
3 15 16 17
3 15 18 16
3 15 19 18
3 15 20 19
3 15 21 20
3 15 22 21
3 15 23 22
3 15 17 23
3 24 19 20
3 24 25 19
3 24 26 25
3 24 27 26
3 24 28 27
3 24 29 28
3 24 21 29
3 24 20 21
3 30 23 31
3 30 22 23
3 30 21 22
3 30 32 21
3 30 33 32
3 30 34 33
3 30 35 34
3 30 31 35
3 36 21 32
3 36 29 21
3 36 28 29
3 36 37 28
3 36 38 37
3 36 39 38
3 36 33 39
3 36 32 33
3 40 41 42
3 40 43 41
3 40 44 43
3 40 45 44
3 40 46 45
3 40 47 46
3 40 48 47
3 40 42 48
3 49 44 45
3 49 50 44
3 49 51 50
3 49 52 51
3 49 53 52
3 49 54 53
3 49 46 54
3 49 45 46
3 55 56 57
3 55 58 56
3 55 59 58
3 55 60 59
3 55 61 60
3 55 62 61
3 55 63 62
3 55 57 63
3 64 59 60
3 64 65 59
3 64 66 65
3 64 67 66
3 64 68 67
3 64 69 68
3 64 61 69
3 64 60 61
3 70 63 71
3 70 62 63
3 70 61 62
3 70 72 61
3 70 73 72
3 70 74 73
3 70 75 74
3 70 71 75
3 76 61 72
3 76 69 61
3 76 68 69
3 76 77 68
3 76 78 77
3 76 79 78
3 76 73 79
3 76 72 73
3 80 75 81
3 80 74 75
3 80 73 74
3 80 82 73
3 80 83 82
3 80 84 83
3 80 85 84
3 80 81 85
3 86 73 82
3 86 79 73
3 86 78 79
3 86 87 78
3 86 88 87
3 86 89 88
3 86 83 89
3 86 82 83
3 90 91 92
3 90 93 91
3 90 94 93
3 90 95 94
3 90 85 95
3 90 84 85
3 90 83 84
3 90 92 83
3 96 83 92
3 96 89 83
3 96 88 89
3 96 97 88
3 96 98 97
3 96 99 98
3 96 91 99
3 96 92 91
3 100 101 102
3 100 103 101
3 100 104 103
3 100 105 104
3 100 106 105
3 100 107 106
3 100 108 107
3 100 102 108
3 109 104 110
3 109 103 104
3 109 101 103
3 109 111 101
3 109 112 111
3 109 113 112
3 109 114 113
3 109 110 114
3 115 116 117
3 115 118 116
3 115 119 118
3 115 120 119
3 115 121 120
3 115 122 121
3 115 123 122
3 115 117 123
3 124 123 125
3 124 122 123
3 124 121 122
3 124 126 121
3 124 127 126
3 124 128 127
3 124 129 128
3 124 125 129
3 130 119 120
3 130 131 119
3 130 132 131
3 130 133 132
3 130 134 133
3 130 135 134
3 130 121 135
3 130 120 121
3 136 121 126
3 136 135 121
3 136 134 135
3 136 137 134
3 136 138 137
3 136 139 138
3 136 127 139
3 136 126 127
3 140 141 142
3 140 143 141
3 140 144 143
3 140 145 144
3 140 146 145
3 140 147 146
3 140 148 147
3 140 142 148
3 149 148 150
3 149 147 148
3 149 146 147
3 149 151 146
3 149 152 151
3 149 153 152
3 149 154 153
3 149 150 154
3 155 156 157
3 155 158 156
3 155 159 158
3 155 160 159
3 155 161 160
3 155 162 161
3 155 163 162
3 155 157 163
3 164 163 165
3 164 162 163
3 164 161 162
3 164 166 161
3 164 167 166
3 164 168 167
3 164 169 168
3 164 165 169
3 170 159 160
3 170 171 159
3 170 172 171
3 170 173 172
3 170 174 173
3 170 175 174
3 170 161 175
3 170 160 161
3 176 161 166
3 176 175 161
3 176 174 175
3 176 177 174
3 176 178 177
3 176 179 178
3 176 167 179
3 176 166 167
3 180 172 173
3 180 181 172
3 180 182 181
3 180 183 182
3 180 184 183
3 180 185 184
3 180 174 185
3 180 173 174
3 186 174 177
3 186 185 174
3 186 184 185
3 186 187 184
3 186 188 187
3 186 189 188
3 186 178 189
3 186 177 178
3 190 191 192
3 190 193 191
3 190 184 193
3 190 183 184
3 190 182 183
3 190 194 182
3 190 195 194
3 190 192 195
3 196 184 187
3 196 193 184
3 196 191 193
3 196 197 191
3 196 198 197
3 196 199 198
3 196 188 199
3 196 187 188
