ply
format ascii 1.0
element vertex 200
property float x
property float y
property float z
property float nx
property float ny
property float nz
property float u
property float v
element face 256
property list uchar int vertex_indices
end_header
0.884019 2.780501 0.708358 -0.182693771 -0.923868501 0.336288534 0 0
0.75805 2.782852 0.652841 -0.0968020271 -0.979220505 0.178203732 0 0
0.763471 2.780501 0.642863 -0.182693771 -0.923868501 0.336288534 0 0
0.878598 2.782852 0.718335 -0.0968020271 -0.979220505 0.178203732 0 0
1.039056 2.782852 0.805513 -0.0968020271 -0.979220505 0.178203732 0 0
1.044477 2.780501 0.795535 -0.182693771 -0.923868501 0.336288534 0 0
1.049104 2.774134 0.787019 -0.262104219 -0.835813453 0.482407764 0 0
0.888646 2.774134 0.699841 -0.262104219 -0.835813453 0.482407764 0 0
0.768098 2.774134 0.634347 -0.262104219 -0.835813453 0.482407764 0 0
0.722742 2.780501 0.620735 -0.182693771 -0.923868501 0.336288534 0 0
0.727369 2.774134 0.612218 -0.262104219 -0.835813453 0.482407764 0 0
0.72655 2.774134 0.611774 -0.262104219 -0.835813453 0.482407764 0 0
0.721923 2.780501 0.62029 -0.182693771 -0.923868501 0.336288534 0 0
0.716502 2.782852 0.630268 -0.0968020271 -0.979220505 0.178203732 0 0
0.717321 2.782852 0.630713 -0.0968020271 -0.979220505 0.178203732 0 0
0.891686 2.764442 0.694247 0.441089471 0.382690865 -0.811780623 0 0
1.049104 2.774134 0.787019 0.399010901 0.549014999 -0.734420065 0 0
1.052144 2.764442 0.781424 0.441089471 0.382690865 -0.811780623 0 0
0.888646 2.774134 0.699841 0.399010901 0.549014999 -0.734420065 0 0
0.768098 2.774134 0.634347 0.399010901 0.549014999 -0.734420065 0 0
0.771137 2.764442 0.628752 0.441089471 0.382690865 -0.811780623 0 0
0.77226 2.753086 0.626686 0.477394164 0 -0.878689258 0 0
0.892808 2.753086 0.69218 0.477394164 0 -0.878689258 0 0
1.053267 2.753086 0.779358 0.477394164 0 -0.878689258 0 0
0.730409 2.764442 0.606624 0.441089471 0.382690865 -0.811780623 0 0
0.727369 2.774134 0.612218 0.399010901 0.549014999 -0.734420065 0 0
0.72655 2.774134 0.611774 0.399010901 0.549014999 -0.734420065 0 0
0.72959 2.764442 0.606179 0.441089471 0.382690865 -0.811780623 0 0
0.730712 2.753086 0.604113 0.477394164 0 -0.878689258 0 0
0.731531 2.753086 0.604558 0.477394164 0 -0.878689258 0 0
0.891686 2.741731 0.694247 0.441089471 -0.382690865 -0.811780623 0 0
1.052144 2.741731 0.781424 0.441089471 -0.382690865 -0.811780623 0 0
0.771137 2.741731 0.628752 0.441089471 -0.382690865 -0.811780623 0 0
0.768098 2.732038 0.634347 0.399010901 -0.549014999 -0.734420065 0 0
0.888646 2.732038 0.699841 0.399010901 -0.549014999 -0.734420065 0 0
1.049104 2.732038 0.787019 0.399010901 -0.549014999 -0.734420065 0 0
0.730409 2.741731 0.606624 0.441089471 -0.382690865 -0.811780623 0 0
0.72959 2.741731 0.606179 0.441089471 -0.382690865 -0.811780623 0 0
0.72655 2.732038 0.611774 0.399010901 -0.549014999 -0.734420065 0 0
0.727369 2.732038 0.612218 0.399010901 -0.549014999 -0.734420065 0 0
0.884019 2.725672 0.708358 -0.182693771 0.923868501 0.336288534 0 0
1.039056 2.72332 0.805513 -0.0968020271 0.979220505 0.178203732 0 0
1.044477 2.725672 0.795535 -0.182693771 0.923868501 0.336288534 0 0
0.878598 2.72332 0.718335 -0.0968020271 0.979220505 0.178203732 0 0
0.75805 2.72332 0.652841 -0.0968020271 0.979220505 0.178203732 0 0
0.763471 2.725672 0.642863 -0.182693771 0.923868501 0.336288534 0 0
0.768098 2.732038 0.634347 -0.262104219 0.835813453 0.482407764 0 0
0.888646 2.732038 0.699841 -0.262104219 0.835813453 0.482407764 0 0
1.049104 2.732038 0.787019 -0.262104219 0.835813453 0.482407764 0 0
0.722742 2.725672 0.620735 -0.182693771 0.923868501 0.336288534 0 0
0.717321 2.72332 0.630713 -0.0968020271 0.979220505 0.178203732 0 0
0.716502 2.72332 0.630268 -0.0968003015 0.97920305 0.178300555 0 0
0.721923 2.725672 0.62029 -0.182693771 0.923868501 0.336288534 0 0
0.72655 2.732038 0.611774 -0.262091574 0.83577313 0.482484488 0 0
0.727369 2.732038 0.612218 -0.262104219 0.835813453 0.482407764 0 0
0.873177 2.725672 0.728313 -0.182693771 -0.923868501 0.336288534 0 0
1.039056 2.72332 0.805513 -0.0968020271 -0.979220505 0.178203732 0 0
1.033635 2.725672 0.815491 -0.182693771 -0.923868501 0.336288534 0 0
0.878598 2.72332 0.718335 -0.0968020271 -0.979220505 0.178203732 0 0
0.75805 2.72332 0.652841 -0.0968020271 -0.979220505 0.178203732 0 0
0.752629 2.725672 0.662819 -0.182693771 -0.923868501 0.336288534 0 0
0.748002 2.732038 0.671335 -0.337603737 -0.707107828 0.621306878 0 0
0.86855 2.732038 0.73683 -0.337603737 -0.707107828 0.621306878 0 0
1.029008 2.732038 0.824007 -0.337603737 -0.707107828 0.621306878 0 0
0.7119 2.725672 0.640691 -0.182693771 -0.923868501 0.336288534 0 0
0.717321 2.72332 0.630713 -0.0968003015 -0.97920305 0.178300555 0 0
0.716502 2.72332 0.630268 -0.0968003015 -0.97920305 0.178300555 0 0
0.711081 2.725672 0.640246 -0.182693771 -0.923868501 0.336288534 0 0
0.706454 2.732038 0.648762 -0.337582762 -0.707063895 0.621368271 0 0
0.707273 2.732038 0.649207 -0.337515129 -0.707131698 0.621327852 0 0
0.865511 2.741731 0.742424 -0.441089471 -0.382690865 0.811780623 0 0
1.025969 2.741731 0.829602 -0.441089471 -0.382690865 0.811780623 0 0
0.744963 2.741731 0.67693 -0.441089471 -0.382690865 0.811780623 0 0
0.74384 2.753086 0.678996 -0.477394164 0 0.878689258 0 0
0.864388 2.753086 0.74449 -0.477394164 0 0.878689258 0 0
1.024846 2.753086 0.831668 -0.477394164 0 0.878689258 0 0
0.704234 2.741731 0.654801 -0.441008924 -0.382707744 0.811816427 0 0
0.703415 2.741731 0.654357 -0.441008924 -0.382707744 0.811816427 0 0
0.702292 2.753086 0.656423 -0.477394164 0 0.878689258 0 0
0.703111 2.753086 0.656868 -0.477394164 0 0.878689258 0 0
0.865511 2.764442 0.742424 -0.441089471 0.382690865 0.811780623 0 0
1.025969 2.764442 0.829602 -0.441089471 0.382690865 0.811780623 0 0
0.744963 2.764442 0.67693 -0.441089471 0.382690865 0.811780623 0 0
0.748002 2.774134 0.671335 -0.337603737 0.707107828 0.621306878 0 0
0.86855 2.774134 0.73683 -0.337603737 0.707107828 0.621306878 0 0
1.029008 2.774134 0.824007 -0.337603737 0.707107828 0.621306878 0 0
0.704234 2.764442 0.654801 -0.441089471 0.382690865 0.811780623 0 0
0.703415 2.764442 0.654357 -0.441089471 0.382690865 0.811780623 0 0
0.706454 2.774134 0.648762 -0.337603737 0.707107828 0.621306878 0 0
0.707273 2.774134 0.649207 -0.337603737 0.707107828 0.621306878 0 0
0.873177 2.780501 0.728313 -0.182693771 0.923868501 0.336288534 0 0
0.75805 2.782852 0.652841 -0.0968020271 0.979220505 0.178203732 0 0
0.752629 2.780501 0.662819 -0.182693771 0.923868501 0.336288534 0 0
0.878598 2.782852 0.718335 -0.0968020271 0.979220505 0.178203732 0 0
1.039056 2.782852 0.805513 -0.0968020271 0.979220505 0.178203732 0 0
1.033635 2.780501 0.815491 -0.182693771 0.923868501 0.336288534 0 0
0.7119 2.780501 0.640691 -0.182693771 0.923868501 0.336288534 0 0
0.711081 2.780501 0.640246 -0.182693771 0.923868501 0.336288534 0 0
0.716502 2.782852 0.630268 -0.0968020271 0.979220505 0.178203732 0 0
0.717321 2.782852 0.630713 -0.0968020271 0.979220505 0.178203732 0 0
1.067976 2.780501 0.808302 -0.182693771 -0.923868501 0.336288534 0 0
1.183104 2.782852 0.883775 -0.0968020271 -0.979220505 0.178203732 0 0
1.062556 2.782852 0.81828 -0.0968020271 -0.979220505 0.178203732 0 0
1.188525 2.7805 0.873797 -0.182693771 -0.923868501 0.336288534 0 0
1.193152 2.774134 0.86528 -0.262104219 -0.835813453 0.482407764 0 0
1.072604 2.774134 0.799786 -0.262104219 -0.835813453 0.482407764 0 0
0.912145 2.774134 0.712608 -0.262104219 -0.835813453 0.482407764 0 0
0.907518 2.780501 0.721125 -0.182693771 -0.923868501 0.336288534 0 0
0.902097 2.782852 0.731103 -0.0968020271 -0.979220505 0.178203732 0 0
1.229254 2.7805 0.895925 -0.182693771 -0.923868501 0.336288534 0 0
1.233881 2.774134 0.887408 -0.262104219 -0.835813453 0.482407764 0 0
1.223833 2.782852 0.905903 -0.0968020271 -0.979220505 0.178203732 0 0
1.224651 2.782852 0.906348 -0.0968020271 -0.979220505 0.178203732 0 0
1.230072 2.7805 0.89637 -0.182693771 -0.923868501 0.336288534 0 0
1.234699 2.774134 0.887853 -0.262197347 -0.835791542 0.482395118 0 0
1.075643 2.764442 0.794192 0.441089471 0.382690865 -0.811780623 0 0
0.912145 2.774134 0.712608 0.399010901 0.549014999 -0.734420065 0 0
1.072604 2.774134 0.799786 0.399010901 0.549014999 -0.734420065 0 0
0.915185 2.764442 0.707014 0.441089471 0.382690865 -0.811780623 0 0
0.916308 2.753086 0.704948 0.477394164 0 -0.878689258 0 0
1.076766 2.753086 0.792125 0.477394164 0 -0.878689258 0 0
1.197314 2.753086 0.85762 0.477394164 0 -0.878689258 0 0
1.196191 2.764442 0.859686 0.441089471 0.382690865 -0.811780623 0 0
1.193152 2.774134 0.86528 0.399010901 0.549014999 -0.734420065 0 0
1.23692 2.764442 0.881814 0.441089471 0.382690865 -0.811780623 0 0
1.233881 2.774134 0.887408 0.399010901 0.549014999 -0.734420065 0 0
1.238043 2.753086 0.879748 0.477394164 0 -0.878689258 0 0
1.238862 2.753086 0.880193 0.477394164 0 -0.878689258 0 0
1.237739 2.764442 0.882259 0.441089471 0.382690865 -0.811780623 0 0
1.234699 2.774134 0.887853 0.398988994 0.549084854 -0.734379742 0 0
1.075643 2.741731 0.794192 0.441089471 -0.382690865 -0.811780623 0 0
0.915185 2.741731 0.707014 0.441089471 -0.382690865 -0.811780623 0 0
0.912145 2.732038 0.712608 0.399010901 -0.549014999 -0.734420065 0 0
1.072604 2.732038 0.799786 0.399010901 -0.549014999 -0.734420065 0 0
1.193152 2.732038 0.86528 0.399010901 -0.549014999 -0.734420065 0 0
1.196191 2.741731 0.859686 0.441089471 -0.382690865 -0.811780623 0 0
1.23692 2.741731 0.881814 0.441089471 -0.382690865 -0.811780623 0 0
1.233881 2.732038 0.887408 0.399010901 -0.549014999 -0.734420065 0 0
1.234699 2.732038 0.887853 0.399094977 -0.548993091 -0.734390758 0 0
1.237739 2.741731 0.882259 0.441089471 -0.382690865 -0.811780623 0 0
1.067976 2.725672 0.808302 -0.182693771 0.923868501 0.336288534 0 0
0.902097 2.72332 0.731103 -0.0968020271 0.979220505 0.178203732 0 0
1.062556 2.72332 0.81828 -0.0968020271 0.979220505 0.178203732 0 0
0.907518 2.725672 0.721125 -0.182693771 0.923868501 0.336288534 0 0
0.912145 2.732038 0.712608 -0.262104219 0.835813453 0.482407764 0 0
1.072604 2.732038 0.799786 -0.262104219 0.835813453 0.482407764 0 0
1.193152 2.732038 0.86528 -0.262104219 0.835813453 0.482407764 0 0
1.188525 2.725672 0.873797 -0.182693771 0.923868501 0.336288534 0 0
1.183104 2.72332 0.883775 -0.0968020271 0.979220505 0.178203732 0 0
1.229254 2.725672 0.895925 -0.182693771 0.923868501 0.336288534 0 0
1.223833 2.72332 0.905903 -0.0968020271 0.979220505 0.178203732 0 0
1.233881 2.732038 0.887408 -0.262091574 0.83577313 0.482484488 0 0
1.234699 2.732038 0.887853 -0.262091574 0.83577313 0.482484488 0 0
1.230072 2.725672 0.89637 -0.182693771 0.923868501 0.336288534 0 0
1.224651 2.72332 0.906348 -0.0968037517 0.979237951 0.178106903 0 0
1.057135 2.725672 0.828258 -0.182693771 -0.923868501 0.336288534 0 0
0.902097 2.72332 0.731103 -0.0968020271 -0.979220505 0.178203732 0 0
1.062556 2.72332 0.81828 -0.0968020271 -0.979220505 0.178203732 0 0
0.896676 2.725672 0.74108 -0.182693771 -0.923868501 0.336288534 0 0
0.892049 2.732038 0.749597 -0.337603737 -0.707107828 0.621306878 0 0
1.052507 2.732038 0.836775 -0.337603737 -0.707107828 0.621306878 0 0
1.173056 2.732038 0.902269 -0.337603737 -0.707107828 0.621306878 0 0
1.177683 2.725672 0.893752 -0.182693771 -0.923868501 0.336288534 0 0
1.183104 2.72332 0.883775 -0.0968020271 -0.979220505 0.178203732 0 0
1.218412 2.725672 0.915881 -0.182699914 -0.923899566 0.336199842 0 0
1.223833 2.72332 0.905903 -0.0968020271 -0.979220505 0.178203732 0 0
1.213784 2.732038 0.924397 -0.337603737 -0.707107828 0.621306878 0 0
1.214603 2.732038 0.924842 -0.337603737 -0.707107828 0.621306878 0 0
1.21923 2.725672 0.916325 -0.182699914 -0.923899566 0.336199842 0 0
1.224651 2.72332 0.906348 -0.0968020271 -0.979220505 0.178203732 0 0
1.049468 2.741731 0.842369 -0.441089471 -0.382690865 0.811780623 0 0
0.88901 2.741731 0.755191 -0.441089471 -0.382690865 0.811780623 0 0
0.887887 2.753086 0.757258 -0.477394164 0 0.878689258 0 0
1.048345 2.753086 0.844435 -0.477394164 0 0.878689258 0 0
1.168894 2.753086 0.90993 -0.477394164 0 0.878689258 0 0
1.170016 2.741731 0.907863 -0.441089471 -0.382690865 0.811780623 0 0
1.210745 2.741731 0.929991 -0.441008924 -0.382707744 0.811816427 0 0
1.209622 2.753086 0.932058 -0.47731695 0 0.878731204 0 0
1.210441 2.753086 0.932503 -0.47731695 0 0.878731204 0 0
1.211564 2.741731 0.930436 -0.441008924 -0.382707744 0.811816427 0 0
1.049468 2.764442 0.842369 -0.441089471 0.382690865 0.811780623 0 0
0.88901 2.764442 0.755191 -0.441089471 0.382690865 0.811780623 0 0
0.892049 2.774134 0.749597 -0.337603737 0.707107828 0.621306878 0 0
1.052507 2.774134 0.836775 -0.337603737 0.707107828 0.621306878 0 0
1.173056 2.774134 0.902269 -0.337603737 0.707107828 0.621306878 0 0
1.170016 2.764442 0.907863 -0.441089471 0.382690865 0.811780623 0 0
1.210745 2.764442 0.929991 -0.441008924 0.382707744 0.811816427 0 0
1.213784 2.774134 0.924397 -0.337515129 0.707131698 0.621327852 0 0
1.214603 2.774134 0.924842 -0.337582762 0.707063895 0.621368271 0 0
1.211564 2.764442 0.930436 -0.441008924 0.382707744 0.811816427 0 0
1.057135 2.780501 0.828258 -0.182693771 0.923868501 0.336288534 0 0
1.183104 2.782852 0.883775 -0.0968020271 0.979220505 0.178203732 0 0
1.062556 2.782852 0.81828 -0.0968020271 0.979220505 0.178203732 0 0
1.177683 2.7805 0.893752 -0.182693771 0.923868501 0.336288534 0 0
0.896676 2.780501 0.74108 -0.182693771 0.923868501 0.336288534 0 0
0.902097 2.782852 0.731103 -0.0968020271 0.979220505 0.178203732 0 0
1.218412 2.7805 0.915881 -0.182693771 0.923868501 0.336288534 0 0
1.223833 2.782852 0.905903 -0.0968020271 0.979220505 0.178203732 0 0
1.224651 2.782852 0.906348 -0.0968020271 0.979220505 0.178203732 0 0
1.21923 2.7805 0.916325 -0.182693771 0.923868501 0.336288534 0 0
3 0 1 2
3 0 3 1
3 0 4 3
3 0 5 4
3 0 6 5
3 0 7 6
3 0 8 7
3 0 2 8
3 9 8 2
3 9 10 8
3 9 11 10
3 9 12 11
3 9 13 12
3 9 14 13
3 9 1 14
3 9 2 1
3 15 16 17
3 15 18 16
3 15 19 18
3 15 20 19
3 15 21 20
3 15 22 21
3 15 23 22
3 15 17 23
3 24 19 20
3 24 25 19
3 24 26 25
3 24 27 26
3 24 28 27
3 24 29 28
3 24 21 29
3 24 20 21
3 30 23 31
3 30 22 23
3 30 21 22
3 30 32 21
3 30 33 32
3 30 34 33
3 30 35 34
3 30 31 35
3 36 21 32
3 36 29 21
3 36 28 29
3 36 37 28
3 36 38 37
3 36 39 38
3 36 33 39
3 36 32 33
3 40 41 42
3 40 43 41
3 40 44 43
3 40 45 44
3 40 46 45
3 40 47 46
3 40 48 47
3 40 42 48
3 49 44 45
3 49 50 44
3 49 51 50
3 49 52 51
3 49 53 52
3 49 54 53
3 49 46 54
3 49 45 46
3 55 56 57
3 55 58 56
3 55 59 58
3 55 60 59
3 55 61 60
3 55 62 61
3 55 63 62
3 55 57 63
3 64 59 60
3 64 65 59
3 64 66 65
3 64 67 66
3 64 68 67
3 64 69 68
3 64 61 69
3 64 60 61
3 70 63 71
3 70 62 63
3 70 61 62
3 70 72 61
3 70 73 72
3 70 74 73
3 70 75 74
3 70 71 75
3 76 61 72
3 76 69 61
3 76 68 69
3 76 77 68
3 76 78 77
3 76 79 78
3 76 73 79
3 76 72 73
3 80 75 81
3 80 74 75
3 80 73 74
3 80 82 73
3 80 83 82
3 80 84 83
3 80 85 84
3 80 81 85
3 86 73 82
3 86 79 73
3 86 78 79
3 86 87 78
3 86 88 87
3 86 89 88
3 86 83 89
3 86 82 83
3 90 91 92
3 90 93 91
3 90 94 93
3 90 95 94
3 90 85 95
3 90 84 85
3 90 83 84
3 90 92 83
3 96 83 92
3 96 89 83
3 96 88 89
3 96 97 88
3 96 98 97
3 96 99 98
3 96 91 99
3 96 92 91
3 100 101 102
3 100 103 101
3 100 104 103
3 100 105 104
3 100 106 105
3 100 107 106
3 100 108 107
3 100 102 108
3 109 104 110
3 109 103 104
3 109 101 103
3 109 111 101
3 109 112 111
3 109 113 112
3 109 114 113
3 109 110 114
3 115 116 117
3 115 118 116
3 115 119 118
3 115 120 119
3 115 121 120
3 115 122 121
3 115 123 122
3 115 117 123
3 124 123 125
3 124 122 123
3 124 121 122
3 124 126 121
3 124 127 126
3 124 128 127
3 124 129 128
3 124 125 129
3 130 119 120
3 130 131 119
3 130 132 131
3 130 133 132
3 130 134 133
3 130 135 134
3 130 121 135
3 130 120 121
3 136 121 126
3 136 135 121
3 136 134 135
3 136 137 134
3 136 138 137
3 136 139 138
3 136 127 139
3 136 126 127
3 140 141 142
3 140 143 141
3 140 144 143
3 140 145 144
3 140 146 145
3 140 147 146
3 140 148 147
3 140 142 148
3 149 148 150
3 149 147 148
3 149 146 147
3 149 151 146
3 149 152 151
3 149 153 152
3 149 154 153
3 149 150 154
3 155 156 157
3 155 158 156
3 155 159 158
3 155 160 159
3 155 161 160
3 155 162 161
3 155 163 162
3 155 157 163
3 164 163 165
3 164 162 163
3 164 161 162
3 164 166 161
3 164 167 166
3 164 168 167
3 164 169 168
3 164 165 169
3 170 159 160
3 170 171 159
3 170 172 171
3 170 173 172
3 170 174 173
3 170 175 174
3 170 161 175
3 170 160 161
3 176 161 166
3 176 175 161
3 176 174 175
3 176 177 174
3 176 178 177
3 176 179 178
3 176 167 179
3 176 166 167
3 180 172 173
3 180 181 172
3 180 182 181
3 180 183 182
3 180 184 183
3 180 185 184
3 180 174 185
3 180 173 174
3 186 174 177
3 186 185 174
3 186 184 185
3 186 187 184
3 186 188 187
3 186 189 188
3 186 178 189
3 186 177 178
3 190 191 192
3 190 193 191
3 190 184 193
3 190 183 184
3 190 182 183
3 190 194 182
3 190 195 194
3 190 192 195
3 196 184 187
3 196 193 184
3 196 191 193
3 196 197 191
3 196 198 197
3 196 199 198
3 196 188 199
3 196 187 188
