ply
format ascii 1.0
element vertex 1152
property float x
property float y
property float z
property float nx
property float ny
property float nz
property float u
property float v
element face 384
property list uchar int vertex_indices
end_header
0.704588 2.771852 0.63232 -0.850929553 0.520134234 -0.0733435413 0 0
0.701926 2.768523 0.639596 -0.850929553 0.520134234 -0.0733435413 0 0
0.705319 2.773193 0.633349 -0.850929553 0.520134234 -0.0733435413 0 0
0.704588 2.771852 0.63232 -0.85056694 0.520787605 -0.0729119376 0 0
0.70142 2.767494 0.638149 -0.85056694 0.520787605 -0.0729119376 0 0
0.701926 2.768523 0.639596 -0.85056694 0.520787605 -0.0729119376 0 0
0.704588 2.771852 0.63232 -0.877167269 0.461846558 -0.131435685 0 0
0.700968 2.766121 0.636341 -0.877167269 0.461846558 -0.131435685 0 0
0.70142 2.767494 0.638149 -0.877167269 0.461846558 -0.131435685 0 0
0.704588 2.771852 0.63232 -0.877178748 0.461804919 -0.131505366 0 0
0.703834 2.770063 0.631067 -0.877178748 0.461804919 -0.131505366 0 0
0.700968 2.766121 0.636341 -0.877178748 0.461804919 -0.131505366 0 0
0.704588 2.771852 0.63232 -0.785936381 0.54096519 -0.299433913 0 0
0.707191 2.77152 0.624888 -0.785936381 0.54096519 -0.299433913 0 0
0.703834 2.770063 0.631067 -0.785936381 0.54096519 -0.299433913 0 0
0.704588 2.771852 0.63232 -0.78599635 0.540868809 -0.299450611 0 0
0.708298 2.773462 0.62549 -0.78599635 0.540868809 -0.299450611 0 0
0.707191 2.77152 0.624888 -0.78599635 0.540868809 -0.299450611 0 0
0.704588 2.771852 0.63232 -0.747905353 0.609680865 -0.26253919 0 0
0.709295 2.774918 0.626031 -0.747905353 0.609680865 -0.26253919 0 0
0.708298 2.773462 0.62549 -0.747905353 0.609680865 -0.26253919 0 0
0.704588 2.771852 0.63232 -0.748044213 0.609408459 -0.262775922 0 0
0.705319 2.773193 0.633349 -0.748044213 0.609408459 -0.262775922 0 0
0.709295 2.774918 0.626031 -0.748044213 0.609408459 -0.262775922 0 0
0.69934 2.760859 0.641979 0.936093387 -0.341751698 -0.0832763382 0 0
0.701926 2.768523 0.639596 0.936093387 -0.341751698 -0.0832763382 0 0
0.699696 2.761415 0.643699 0.936093387 -0.341751698 -0.0832763382 0 0
0.69934 2.760859 0.641979 0.935942443 -0.341960488 -0.0841116337 0 0
0.70142 2.767494 0.638149 0.935942443 -0.341960488 -0.0841116337 0 0
0.701926 2.768523 0.639596 0.935942443 -0.341960488 -0.0841116337 0 0
0.69934 2.760859 0.641979 0.952869218 -0.303278311 -0.0079069501 0 0
0.700968 2.766121 0.636341 0.952869218 -0.303278311 -0.0079069501 0 0
0.70142 2.767494 0.638149 0.952869218 -0.303278311 -0.0079069501 0 0
0.69934 2.760859 0.641979 0.952857478 -0.303314228 -0.00794386214 0 0
0.699086 2.760118 0.639805 0.952857478 -0.303314228 -0.00794386214 0 0
0.700968 2.766121 0.636341 0.952857478 -0.303314228 -0.00794386214 0 0
0.69934 2.760859 0.641979 0.990673314 -0.112030079 -0.0775605949 0 0
0.698391 2.753086 0.641085 0.990673314 -0.112030079 -0.0775605949 0 0
0.699086 2.760118 0.639805 0.990673314 -0.112030079 -0.0775605949 0 0
0.69934 2.760859 0.641979 0.990692388 -0.112066554 -0.0772637044 0 0
0.698571 2.753086 0.643393 0.990692388 -0.112066554 -0.0772637044 0 0
0.698391 2.753086 0.641085 0.990692388 -0.112066554 -0.0772637044 0 0
0.69934 2.760859 0.641979 0.978620249 -0.126340834 -0.162297263 0 0
0.698873 2.753086 0.645214 0.978620249 -0.126340834 -0.162297263 0 0
0.698571 2.753086 0.643393 0.978620249 -0.126340834 -0.162297263 0 0
0.69934 2.760859 0.641979 0.978728736 -0.126139837 -0.161798651 0 0
0.699696 2.761415 0.643699 0.978728736 -0.126139837 -0.161798651 0 0
0.698873 2.753086 0.645214 0.978728736 -0.126139837 -0.161798651 0 0
0.69934 2.745313 0.641979 -0.936061333 -0.341796141 0.083454056 0 0
0.701926 2.737649 0.639596 -0.936061333 -0.341796141 0.083454056 0 0
0.699696 2.744758 0.643699 -0.936061333 -0.341796141 0.083454056 0 0
0.69934 2.745313 0.641979 -0.935976915 -0.341912916 0.0839212272 0 0
0.70142 2.738679 0.638149 -0.935976915 -0.341912916 0.0839212272 0 0
0.701926 2.737649 0.639596 -0.935976915 -0.341912916 0.0839212272 0 0
0.69934 2.745313 0.641979 -0.952860215 -0.303307227 0.00788274042 0 0
0.700968 2.740052 0.636341 -0.952860215 -0.303307227 0.00788274042 0 0
0.70142 2.738679 0.638149 -0.952860215 -0.303307227 0.00788274042 0 0
0.69934 2.745313 0.641979 -0.952845382 -0.303352606 0.00792936805 0 0
0.699086 2.746054 0.639805 -0.952845382 -0.303352606 0.00792936805 0 0
0.700968 2.740052 0.636341 -0.952845382 -0.303352606 0.00792936805 0 0
0.69934 2.745313 0.641979 -0.990673314 -0.112030079 0.0775605949 0 0
0.698391 2.753086 0.641085 -0.990673314 -0.112030079 0.0775605949 0 0
0.699086 2.746054 0.639805 -0.990673314 -0.112030079 0.0775605949 0 0
0.69934 2.745313 0.641979 -0.990692388 -0.112066554 0.0772637044 0 0
0.698571 2.753086 0.643393 -0.990692388 -0.112066554 0.0772637044 0 0
0.698391 2.753086 0.641085 -0.990692388 -0.112066554 0.0772637044 0 0
0.69934 2.745313 0.641979 -0.978620249 -0.126340834 0.162297263 0 0
0.698873 2.753086 0.645214 -0.978620249 -0.126340834 0.162297263 0 0
0.698571 2.753086 0.643393 -0.978620249 -0.126340834 0.162297263 0 0
0.69934 2.745313 0.641979 -0.978715173 -0.126164997 0.161861063 0 0
0.699696 2.744758 0.643699 -0.978715173 -0.126164997 0.161861063 0 0
0.698873 2.753086 0.645214 -0.978715173 -0.126164997 0.161861063 0 0
0.704588 2.734321 0.63232 -0.748044213 -0.609408459 -0.262775922 0 0
0.709295 2.731255 0.626031 -0.748044213 -0.609408459 -0.262775922 0 0
0.705319 2.73298 0.633349 -0.748044213 -0.609408459 -0.262775922 0 0
0.704588 2.734321 0.63232 -0.747905353 -0.609680865 -0.26253919 0 0
0.708298 2.732711 0.62549 -0.747905353 -0.609680865 -0.26253919 0 0
0.709295 2.731255 0.626031 -0.747905353 -0.609680865 -0.26253919 0 0
0.704588 2.734321 0.63232 -0.78599635 -0.540868809 -0.299450611 0 0
0.707191 2.734653 0.624888 -0.78599635 -0.540868809 -0.299450611 0 0
0.708298 2.732711 0.62549 -0.78599635 -0.540868809 -0.299450611 0 0
0.704588 2.734321 0.63232 -0.785800303 -0.541183803 -0.299396019 0 0
0.703834 2.736109 0.631067 -0.785800303 -0.541183803 -0.299396019 0 0
0.707191 2.734653 0.624888 -0.785800303 -0.541183803 -0.299396019 0 0
0.704588 2.734321 0.63232 -0.877147628 -0.461917748 -0.131316538 0 0
0.700968 2.740052 0.636341 -0.877147628 -0.461917748 -0.131316538 0 0
0.703834 2.736109 0.631067 -0.877147628 -0.461917748 -0.131316538 0 0
0.704588 2.734321 0.63232 -0.877167269 -0.461846558 -0.131435685 0 0
0.70142 2.738679 0.638149 -0.877167269 -0.461846558 -0.131435685 0 0
0.700968 2.740052 0.636341 -0.877167269 -0.461846558 -0.131435685 0 0
0.704588 2.734321 0.63232 -0.85066472 -0.520600841 -0.073104712 0 0
0.701926 2.737649 0.639596 -0.85066472 -0.520600841 -0.073104712 0 0
0.70142 2.738679 0.638149 -0.85066472 -0.520600841 -0.073104712 0 0
0.704588 2.734321 0.63232 -0.850908278 -0.520161832 -0.0733946208 0 0
0.705319 2.73298 0.633349 -0.850908278 -0.520161832 -0.0733946208 0 0
0.701926 2.737649 0.639596 -0.850908278 -0.520161832 -0.0733946208 0 0
0.712009 2.734321 0.61866 -0.524532644 -0.520267492 -0.673934152 0 0
0.716665 2.737649 0.612467 -0.524532644 -0.520267492 -0.673934152 0 0
0.713271 2.73298 0.618713 -0.524532644 -0.520267492 -0.673934152 0 0
0.712009 2.734321 0.61866 -0.524337927 -0.520494989 -0.673910013 0 0
0.715176 2.738679 0.61283 -0.524337927 -0.520494989 -0.673910013 0 0
0.716665 2.737649 0.612467 -0.524337927 -0.520494989 -0.673910013 0 0
0.712009 2.734321 0.61866 -0.587634611 -0.461786236 -0.664408787 0 0
0.713413 2.740052 0.613435 -0.587634611 -0.461786236 -0.664408787 0 0
0.715176 2.738679 0.61283 -0.587634611 -0.461786236 -0.664408787 0 0
0.712009 2.734321 0.61866 -0.587519019 -0.461860616 -0.664459309 0 0
0.710548 2.736109 0.618709 -0.587519019 -0.461860616 -0.664459309 0 0
0.713413 2.740052 0.613435 -0.587519019 -0.461860616 -0.664459309 0 0
0.712009 2.734321 0.61866 -0.678866261 -0.541109366 -0.496327768 0 0
0.707191 2.734653 0.624888 -0.678866261 -0.541109366 -0.496327768 0 0
0.710548 2.736109 0.618709 -0.678866261 -0.541109366 -0.496327768 0 0
0.712009 2.734321 0.61866 -0.678961848 -0.540911913 -0.49641224 0 0
0.708298 2.732711 0.62549 -0.678961848 -0.540911913 -0.49641224 0 0
0.707191 2.734653 0.624888 -0.678961848 -0.540911913 -0.49641224 0 0
0.712009 2.734321 0.61866 -0.627343462 -0.609622152 -0.484562702 0 0
0.709295 2.731255 0.626031 -0.627343462 -0.609622152 -0.484562702 0 0
0.708298 2.732711 0.62549 -0.627343462 -0.609622152 -0.484562702 0 0
0.712009 2.734321 0.61866 -0.627387461 -0.609578445 -0.484560722 0 0
0.713271 2.73298 0.618713 -0.627387461 -0.609578445 -0.484560722 0 0
0.709295 2.731255 0.626031 -0.627387461 -0.609578445 -0.484560722 0 0
0.717257 2.745313 0.609001 0.439185043 0.341813916 0.830830756 0 0
0.716665 2.737649 0.612467 0.439185043 0.341813916 0.830830756 0 0
0.718894 2.744758 0.608364 0.439185043 0.341813916 0.830830756 0 0
0.717257 2.745313 0.609001 0.439035418 0.341853813 0.830893418 0 0
0.715176 2.738679 0.61283 0.439035418 0.341853813 0.830893418 0 0
0.716665 2.737649 0.612467 0.439035418 0.341853813 0.830893418 0 0
0.717257 2.745313 0.609001 0.511977246 0.303268138 0.803683853 0 0
0.713413 2.740052 0.613435 0.511977246 0.303268138 0.803683853 0 0
0.715176 2.738679 0.61283 0.511977246 0.303268138 0.803683853 0 0
0.717257 2.745313 0.609001 0.511634356 0.303597804 0.803777743 0 0
0.715295 2.746054 0.60997 0.511634356 0.303597804 0.803777743 0 0
0.713413 2.740052 0.613435 0.511634356 0.303597804 0.803777743 0 0
0.717257 2.745313 0.609001 0.473717719 0.111992789 0.873526839 0 0
0.715991 2.753086 0.608691 0.473717719 0.111992789 0.873526839 0 0
0.715295 2.746054 0.60997 0.473717719 0.111992789 0.873526839 0 0
0.717257 2.745313 0.609001 0.474360339 0.112083081 0.873166451 0 0
0.718025 2.753086 0.607586 0.474360339 0.112083081 0.873166451 0 0
0.715991 2.753086 0.608691 0.474360339 0.112083081 0.873166451 0 0
0.717257 2.745313 0.609001 0.396393494 0.126371841 0.909341715 0 0
0.719718 2.753086 0.606848 0.396393494 0.126371841 0.909341715 0 0
0.718025 2.753086 0.607586 0.396393494 0.126371841 0.909341715 0 0
0.717257 2.745313 0.609001 0.396626007 0.126273911 0.90925393 0 0
0.718894 2.744758 0.608364 0.396626007 0.126273911 0.90925393 0 0
0.719718 2.753086 0.606848 0.396626007 0.126273911 0.90925393 0 0
0.717257 2.760859 0.609001 -0.439351602 0.341769489 -0.830760968 0 0
0.716665 2.768523 0.612467 -0.439351602 0.341769489 -0.830760968 0 0
0.718894 2.761415 0.608364 -0.439351602 0.341769489 -0.830760968 0 0
0.717257 2.760859 0.609001 -0.438856926 0.34190139 -0.830968133 0 0
0.715176 2.767494 0.61283 -0.438856926 0.34190139 -0.830968133 0 0
0.716665 2.768523 0.612467 -0.438856926 0.34190139 -0.830968133 0 0
0.717257 2.760859 0.609001 -0.511961839 0.303239223 -0.803704578 0 0
0.713413 2.766121 0.613435 -0.511961839 0.303239223 -0.803704578 0 0
0.715176 2.767494 0.61283 -0.511961839 0.303239223 -0.803704578 0 0
0.717257 2.760859 0.609001 -0.511628771 0.303559404 -0.8037958 0 0
0.715295 2.760118 0.60997 -0.511628771 0.303559404 -0.8037958 0 0
0.713413 2.766121 0.613435 -0.511628771 0.303559404 -0.8037958 0 0
0.717257 2.760859 0.609001 -0.473717719 0.111992789 -0.873526839 0 0
0.715991 2.753086 0.608691 -0.473717719 0.111992789 -0.873526839 0 0
0.715295 2.760118 0.60997 -0.473717719 0.111992789 -0.873526839 0 0
0.717257 2.760859 0.609001 -0.474360339 0.112083081 -0.873166451 0 0
0.718025 2.753086 0.607586 -0.474360339 0.112083081 -0.873166451 0 0
0.715991 2.753086 0.608691 -0.474360339 0.112083081 -0.873166451 0 0
0.717257 2.760859 0.609001 -0.396393494 0.126371841 -0.909341715 0 0
0.719718 2.753086 0.606848 -0.396393494 0.126371841 -0.909341715 0 0
0.718025 2.753086 0.607586 -0.396393494 0.126371841 -0.909341715 0 0
0.717257 2.760859 0.609001 -0.396685801 0.126248723 -0.909231343 0 0
0.718894 2.761415 0.608364 -0.396685801 0.126248723 -0.909231343 0 0
0.719718 2.753086 0.606848 -0.396685801 0.126248723 -0.909231343 0 0
0.712009 2.771852 0.61866 0.524501377 -0.520239872 0.673979807 0 0
0.716665 2.768523 0.612467 0.524501377 -0.520239872 0.673979807 0 0
0.713271 2.773193 0.618713 0.524501377 -0.520239872 0.673979807 0 0
0.712009 2.771852 0.61866 0.524123025 -0.520681772 0.673932895 0 0
0.715176 2.767494 0.61283 0.524123025 -0.520681772 0.673932895 0 0
0.716665 2.768523 0.612467 0.524123025 -0.520681772 0.673932895 0 0
0.712009 2.771852 0.61866 0.587634611 -0.461786236 0.664408787 0 0
0.713413 2.766121 0.613435 0.587634611 -0.461786236 0.664408787 0 0
0.715176 2.767494 0.61283 0.587634611 -0.461786236 0.664408787 0 0
0.712009 2.771852 0.61866 0.587694388 -0.461747764 0.664382652 0 0
0.710548 2.770063 0.618709 0.587694388 -0.461747764 0.664382652 0 0
0.713413 2.766121 0.613435 0.587694388 -0.461747764 0.664382652 0 0
0.712009 2.771852 0.61866 0.678972084 -0.540890761 0.496421286 0 0
0.707191 2.77152 0.624888 0.678972084 -0.540890761 0.496421286 0 0
0.710548 2.770063 0.618709 0.678972084 -0.540890761 0.496421286 0 0
0.712009 2.771852 0.61866 0.678961848 -0.540911913 0.49641224 0 0
0.708298 2.773462 0.62549 0.678961848 -0.540911913 0.49641224 0 0
0.707191 2.77152 0.624888 0.678961848 -0.540911913 0.49641224 0 0
0.712009 2.771852 0.61866 0.627343462 -0.609622152 0.484562702 0 0
0.709295 2.774918 0.626031 0.627343462 -0.609622152 0.484562702 0 0
0.708298 2.773462 0.62549 0.627343462 -0.609622152 0.484562702 0 0
0.712009 2.771852 0.61866 0.627387461 -0.609578445 0.484560722 0 0
0.713271 2.773193 0.618713 0.627387461 -0.609578445 0.484560722 0 0
0.709295 2.774918 0.626031 0.627387461 -0.609578445 0.484560722 0 0
0.709553 2.77364 0.63586 -0.262096347 0.835848678 0.482351004 0 0
0.708966 2.768867 0.643812 -0.262096347 0.835848678 0.482351004 0 0
0.712435 2.77364 0.637426 -0.262096347 0.835848678 0.482351004 0 0
0.709553 2.77364 0.63586 -0.262096347 0.835848678 0.482351004 0 0
0.706084 2.768867 0.642246 -0.262096347 0.835848678 0.482351004 0 0
0.708966 2.768867 0.643812 -0.262096347 0.835848678 0.482351004 0 0
0.709553 2.77364 0.63586 -0.262100899 0.835848678 0.482348532 0 0
0.703756 2.768867 0.640981 -0.262100899 0.835848678 0.482348532 0 0
0.706084 2.768867 0.642246 -0.262100899 0.835848678 0.482348532 0 0
0.709553 2.77364 0.63586 -0.261963027 0.835818211 0.482476207 0 0
0.707225 2.77364 0.634596 -0.261963027 0.835818211 0.482476207 0 0
0.703756 2.768867 0.640981 -0.261963027 0.835818211 0.482476207 0 0
0.709553 2.77364 0.63586 -0.0967521347 0.979226954 0.178195387 0 0
0.71129 2.775403 0.627115 -0.0967521347 0.979226954 0.178195387 0 0
0.707225 2.77364 0.634596 -0.0967521347 0.979226954 0.178195387 0 0
0.709553 2.77364 0.63586 -0.096858141 0.979220541 0.178173039 0 0
0.713617 2.775403 0.62838 -0.096858141 0.979220541 0.178173039 0 0
0.71129 2.775403 0.627115 -0.096858141 0.979220541 0.178173039 0 0
0.709553 2.77364 0.63586 -0.0967506713 0.97922054 0.178231428 0 0
0.7165 2.775403 0.629945 -0.0967506713 0.97922054 0.178231428 0 0
0.713617 2.775403 0.62838 -0.0967506713 0.97922054 0.178231428 0 0
0.709553 2.77364 0.63586 -0.0968095495 0.979226957 0.17816419 0 0
0.712435 2.77364 0.637426 -0.0968095495 0.979226957 0.17816419 0 0
0.7165 2.775403 0.629945 -0.0968095495 0.979226957 0.17816419 0 0
0.706006 2.77364 0.633933 -0.262310534 0.835818195 0.482287392 0 0
0.703756 2.768867 0.640981 -0.262310534 0.835818195 0.482287392 0 0
0.707225 2.77364 0.634596 -0.262310534 0.835818195 0.482287392 0 0
0.706006 2.77364 0.633933 -0.261982904 0.835848679 0.482412629 0 0
0.702537 2.768867 0.640319 -0.261982904 0.835848679 0.482412629 0 0
0.703756 2.768867 0.640981 -0.261982904 0.835848679 0.482412629 0 0
0.706006 2.77364 0.633933 -0.648036249 0.735502266 0.197700371 0 0
0.701926 2.768523 0.639596 -0.648036249 0.735502266 0.197700371 0 0
0.702537 2.768867 0.640319 -0.648036249 0.735502266 0.197700371 0 0
0.706006 2.77364 0.633933 -0.647444271 0.735829147 0.198422235 0 0
0.705319 2.773193 0.633349 -0.647444271 0.735829147 0.198422235 0 0
0.701926 2.768523 0.639596 -0.647444271 0.735829147 0.198422235 0 0
0.706006 2.77364 0.633933 -0.501897963 0.862132599 -0.0694681015 0 0
0.709295 2.774918 0.626031 -0.501897963 0.862132599 -0.0694681015 0 0
0.705319 2.773193 0.633349 -0.501897963 0.862132599 -0.0694681015 0 0
0.706006 2.77364 0.633933 -0.501393494 0.862447052 -0.0692072727 0 0
0.710071 2.775403 0.626453 -0.501393494 0.862447052 -0.0692072727 0 0
0.709295 2.774918 0.626031 -0.501393494 0.862447052 -0.0692072727 0 0
0.706006 2.77364 0.633933 -0.0967772282 0.979222799 0.178204594 0 0
0.71129 2.775403 0.627115 -0.0967772282 0.979222799 0.178204594 0 0
0.710071 2.775403 0.626453 -0.0967772282 0.979222799 0.178204594 0 0
0.706006 2.77364 0.633933 -0.0968804794 0.979226953 0.178125648 0 0
0.707225 2.77364 0.634596 -0.0968804794 0.979226953 0.178125648 0 0
0.71129 2.775403 0.627115 -0.0968804794 0.979226953 0.178125648 0 0
0.703805 2.7616 0.64644 0.399057409 -0.548996888 -0.734408334 0 0
0.708966 2.768867 0.643812 0.399057409 -0.548996888 -0.734408334 0 0
0.706687 2.7616 0.648006 0.399057409 -0.548996888 -0.734408334 0 0
0.703805 2.7616 0.64644 0.399057409 -0.548996888 -0.734408334 0 0
0.706084 2.768867 0.642246 0.399057409 -0.548996888 -0.734408334 0 0
0.708966 2.768867 0.643812 0.399057409 -0.548996888 -0.734408334 0 0
0.703805 2.7616 0.64644 0.399064338 -0.548996888 -0.734404569 0 0
0.703756 2.768867 0.640981 0.399064338 -0.548996888 -0.734404569 0 0
0.706084 2.768867 0.642246 0.399064338 -0.548996888 -0.734404569 0 0
0.703805 2.7616 0.64644 0.399064338 -0.548996888 -0.734404569 0 0
0.701477 2.7616 0.645175 0.399064338 -0.548996888 -0.734404569 0 0
0.703756 2.768867 0.640981 0.399064338 -0.548996888 -0.734404569 0 0
0.703805 2.7616 0.64644 0.467536304 -0.20272261 -0.860414637 0 0
0.700636 2.753086 0.646724 0.467536304 -0.20272261 -0.860414637 0 0
0.701477 2.7616 0.645175 0.467536304 -0.20272261 -0.860414637 0 0
0.703805 2.7616 0.64644 0.467686191 -0.202775269 -0.860320764 0 0
0.702963 2.753086 0.647989 0.467686191 -0.202775269 -0.860320764 0 0
0.700636 2.753086 0.646724 0.467686191 -0.202775269 -0.860320764 0 0
0.703805 2.7616 0.64644 0.467397766 -0.20277526 -0.860477497 0 0
0.705846 2.753086 0.649555 0.467397766 -0.20277526 -0.860477497 0 0
0.702963 2.753086 0.647989 0.467397766 -0.20277526 -0.860477497 0 0
0.703805 2.7616 0.64644 0.467528185 -0.202722611 -0.860419048 0 0
0.706687 2.7616 0.648006 0.467528185 -0.202722611 -0.860419048 0 0
0.705846 2.753086 0.649555 0.467528185 -0.202722611 -0.860419048 0 0
0.700258 2.7616 0.644513 0.398884689 -0.548996876 -0.734502168 0 0
0.703756 2.768867 0.640981 0.398884689 -0.548996876 -0.734502168 0 0
0.701477 2.7616 0.645175 0.398884689 -0.548996876 -0.734502168 0 0
0.700258 2.7616 0.644513 0.398884689 -0.548996876 -0.734502168 0 0
0.702537 2.768867 0.640319 0.398884689 -0.548996876 -0.734502168 0 0
0.703756 2.768867 0.640981 0.398884689 -0.548996876 -0.734502168 0 0
0.700258 2.7616 0.644513 0.768473633 -0.483137916 -0.41955456 0 0
0.701926 2.768523 0.639596 0.768473633 -0.483137916 -0.41955456 0 0
0.702537 2.768867 0.640319 0.768473633 -0.483137916 -0.41955456 0 0
0.700258 2.7616 0.644513 0.767863528 -0.483493193 -0.420261747 0 0
0.699696 2.761415 0.643699 0.767863528 -0.483493193 -0.420261747 0 0
0.701926 2.768523 0.639596 0.767863528 -0.483493193 -0.420261747 0 0
0.700258 2.7616 0.644513 0.828206223 -0.178467243 -0.53124749 0 0
0.698873 2.753086 0.645214 0.828206223 -0.178467243 -0.53124749 0 0
0.699696 2.761415 0.643699 0.828206223 -0.178467243 -0.53124749 0 0
0.700258 2.7616 0.644513 0.828181528 -0.178466419 -0.531286263 0 0
0.699417 2.753086 0.646062 0.828181528 -0.178466419 -0.531286263 0 0
0.698873 2.753086 0.645214 0.828181528 -0.178466419 -0.531286263 0 0
0.700258 2.7616 0.644513 0.467325824 -0.202722621 -0.860528973 0 0
0.700636 2.753086 0.646724 0.467325824 -0.202722621 -0.860528973 0 0
0.699417 2.753086 0.646062 0.467325824 -0.202722621 -0.860528973 0 0
0.700258 2.7616 0.644513 0.467325824 -0.202722621 -0.860528973 0 0
0.701477 2.7616 0.645175 0.467325824 -0.202722621 -0.860528973 0 0
0.700636 2.753086 0.646724 0.467325824 -0.202722621 -0.860528973 0 0
0.703805 2.744573 0.64644 -0.399057409 -0.548996888 0.734408334 0 0
0.708966 2.737306 0.643812 -0.399057409 -0.548996888 0.734408334 0 0
0.706687 2.744573 0.648006 -0.399057409 -0.548996888 0.734408334 0 0
0.703805 2.744573 0.64644 -0.399057409 -0.548996888 0.734408334 0 0
0.706084 2.737306 0.642246 -0.399057409 -0.548996888 0.734408334 0 0
0.708966 2.737306 0.643812 -0.399057409 -0.548996888 0.734408334 0 0
0.703805 2.744573 0.64644 -0.399064338 -0.548996888 0.734404569 0 0
0.703756 2.737306 0.640981 -0.399064338 -0.548996888 0.734404569 0 0
0.706084 2.737306 0.642246 -0.399064338 -0.548996888 0.734404569 0 0
0.703805 2.744573 0.64644 -0.399064338 -0.548996888 0.734404569 0 0
0.701477 2.744573 0.645175 -0.399064338 -0.548996888 0.734404569 0 0
0.703756 2.737306 0.640981 -0.399064338 -0.548996888 0.734404569 0 0
0.703805 2.744573 0.64644 -0.467534047 -0.202745445 0.860410483 0 0
0.700636 2.753086 0.646724 -0.467534047 -0.202745445 0.860410483 0 0
0.701477 2.744573 0.645175 -0.467534047 -0.202745445 0.860410483 0 0
0.703805 2.744573 0.64644 -0.467683932 -0.202798108 0.860316609 0 0
0.702963 2.753086 0.647989 -0.467683932 -0.202798108 0.860316609 0 0
0.700636 2.753086 0.646724 -0.467683932 -0.202798108 0.860316609 0 0
0.703805 2.744573 0.64644 -0.467395508 -0.2027981 0.86047334 0 0
0.705846 2.753086 0.649555 -0.467395508 -0.2027981 0.86047334 0 0
0.702963 2.753086 0.647989 -0.467395508 -0.2027981 0.86047334 0 0
0.703805 2.744573 0.64644 -0.467525928 -0.202745445 0.860414895 0 0
0.706687 2.744573 0.648006 -0.467525928 -0.202745445 0.860414895 0 0
0.705846 2.753086 0.649555 -0.467525928 -0.202745445 0.860414895 0 0
0.700258 2.744573 0.644513 -0.398884689 -0.548996876 0.734502168 0 0
0.703756 2.737306 0.640981 -0.398884689 -0.548996876 0.734502168 0 0
0.701477 2.744573 0.645175 -0.398884689 -0.548996876 0.734502168 0 0
0.700258 2.744573 0.644513 -0.398884689 -0.548996876 0.734502168 0 0
0.702537 2.737306 0.640319 -0.398884689 -0.548996876 0.734502168 0 0
0.703756 2.737306 0.640981 -0.398884689 -0.548996876 0.734502168 0 0
0.700258 2.744573 0.644513 -0.768192096 -0.483263568 0.419925265 0 0
0.701926 2.737649 0.639596 -0.768192096 -0.483263568 0.419925265 0 0
0.702537 2.737306 0.640319 -0.768192096 -0.483263568 0.419925265 0 0
0.700258 2.744573 0.644513 -0.767881439 -0.483444344 0.420285215 0 0
0.699696 2.744758 0.643699 -0.767881439 -0.483444344 0.420285215 0 0
0.701926 2.737649 0.639596 -0.767881439 -0.483444344 0.420285215 0 0
0.700258 2.744573 0.644513 -0.828205238 -0.17848761 0.531242182 0 0
0.698873 2.753086 0.645214 -0.828205238 -0.17848761 0.531242182 0 0
0.699696 2.744758 0.643699 -0.828205238 -0.17848761 0.531242182 0 0
0.700258 2.744573 0.644513 -0.82817843 -0.178486715 0.531284276 0 0
0.699417 2.753086 0.646062 -0.82817843 -0.178486715 0.531284276 0 0
0.698873 2.753086 0.645214 -0.82817843 -0.178486715 0.531284276 0 0
0.700258 2.744573 0.644513 -0.467323568 -0.202745456 0.860524818 0 0
0.700636 2.753086 0.646724 -0.467323568 -0.202745456 0.860524818 0 0
0.699417 2.753086 0.646062 -0.467323568 -0.202745456 0.860524818 0 0
0.700258 2.744573 0.644513 -0.467323568 -0.202745456 0.860524818 0 0
0.701477 2.744573 0.645175 -0.467323568 -0.202745456 0.860524818 0 0
0.700636 2.753086 0.646724 -0.467323568 -0.202745456 0.860524818 0 0
0.709553 2.732533 0.63586 -0.0968622018 -0.979204115 0.178261089 0 0
0.7165 2.730769 0.629945 -0.0968622018 -0.979204115 0.178261089 0 0
0.712435 2.732533 0.637426 -0.0968622018 -0.979204115 0.178261089 0 0
0.709553 2.732533 0.63586 -0.0968032909 -0.979197691 0.178328363 0 0
0.713617 2.730769 0.62838 -0.0968032909 -0.979197691 0.178328363 0 0
0.7165 2.730769 0.629945 -0.0968032909 -0.979197691 0.178328363 0 0
0.709553 2.732533 0.63586 -0.096910819 -0.979197693 0.178269941 0 0
0.71129 2.730769 0.627115 -0.096910819 -0.979197693 0.178269941 0 0
0.713617 2.730769 0.62838 -0.096910819 -0.979197693 0.178269941 0 0
0.709553 2.732533 0.63586 -0.0968047558 -0.979204112 0.178292303 0 0
0.707225 2.732533 0.634596 -0.0968047558 -0.979204112 0.178292303 0 0
0.71129 2.730769 0.627115 -0.0968047558 -0.979204112 0.178292303 0 0
0.709553 2.732533 0.63586 -0.261963027 -0.835818211 0.482476207 0 0
0.703756 2.737306 0.640981 -0.261963027 -0.835818211 0.482476207 0 0
0.707225 2.732533 0.634596 -0.261963027 -0.835818211 0.482476207 0 0
0.709553 2.732533 0.63586 -0.262100899 -0.835848678 0.482348532 0 0
0.706084 2.737306 0.642246 -0.262100899 -0.835848678 0.482348532 0 0
0.703756 2.737306 0.640981 -0.262100899 -0.835848678 0.482348532 0 0
0.709553 2.732533 0.63586 -0.262096347 -0.835848678 0.482351004 0 0
0.708966 2.737306 0.643812 -0.262096347 -0.835848678 0.482351004 0 0
0.706084 2.737306 0.642246 -0.262096347 -0.835848678 0.482351004 0 0
0.709553 2.732533 0.63586 -0.262096347 -0.835848678 0.482351004 0 0
0.712435 2.732533 0.637426 -0.262096347 -0.835848678 0.482351004 0 0
0.708966 2.737306 0.643812 -0.262096347 -0.835848678 0.482351004 0 0
0.706006 2.732533 0.633933 -0.0969331703 -0.979204111 0.178222526 0 0
0.71129 2.730769 0.627115 -0.0969331703 -0.979204111 0.178222526 0 0
0.707225 2.732533 0.634596 -0.0969331703 -0.979204111 0.178222526 0 0
0.706006 2.732533 0.633933 -0.0968298625 -0.979199953 0.178301514 0 0
0.710071 2.730769 0.626453 -0.0968298625 -0.979199953 0.178301514 0 0
0.71129 2.730769 0.627115 -0.0968298625 -0.979199953 0.178301514 0 0
0.706006 2.732533 0.633933 -0.502058338 -0.862032527 -0.0695510381 0 0
0.709295 2.731255 0.626031 -0.502058338 -0.862032527 -0.0695510381 0 0
0.710071 2.730769 0.626453 -0.502058338 -0.862032527 -0.0695510381 0 0
0.706006 2.732533 0.633933 -0.501897963 -0.862132599 -0.0694681015 0 0
0.705319 2.73298 0.633349 -0.501897963 -0.862132599 -0.0694681015 0 0
0.709295 2.731255 0.626031 -0.501897963 -0.862132599 -0.0694681015 0 0
0.706006 2.732533 0.633933 -0.647414832 -0.735873547 0.19835362 0 0
0.701926 2.737649 0.639596 -0.647414832 -0.735873547 0.19835362 0 0
0.705319 2.73298 0.633349 -0.647414832 -0.735873547 0.19835362 0 0
0.706006 2.732533 0.633933 -0.647559854 -0.735793559 0.198176875 0 0
0.702537 2.737306 0.640319 -0.647559854 -0.735793559 0.198176875 0 0
0.701926 2.737649 0.639596 -0.647559854 -0.735793559 0.198176875 0 0
0.706006 2.732533 0.633933 -0.261982904 -0.835848679 0.482412629 0 0
0.703756 2.737306 0.640981 -0.261982904 -0.835848679 0.482412629 0 0
0.702537 2.737306 0.640319 -0.261982904 -0.835848679 0.482412629 0 0
0.706006 2.732533 0.633933 -0.262310534 -0.835818195 0.482287392 0 0
0.707225 2.732533 0.634596 -0.262310534 -0.835818195 0.482287392 0 0
0.703756 2.737306 0.640981 -0.262310534 -0.835818195 0.482287392 0 0
0.717682 2.732533 0.620899 0.262096347 -0.835848678 -0.482351004 0 0
0.724033 2.737306 0.616079 0.262096347 -0.835848678 -0.482351004 0 0
0.720564 2.732533 0.622465 0.262096347 -0.835848678 -0.482351004 0 0
0.717682 2.732533 0.620899 0.262096347 -0.835848678 -0.482351004 0 0
0.721151 2.737306 0.614513 0.262096347 -0.835848678 -0.482351004 0 0
0.724033 2.737306 0.616079 0.262096347 -0.835848678 -0.482351004 0 0
0.717682 2.732533 0.620899 0.261940895 -0.835848675 -0.482435446 0 0
0.718823 2.737306 0.613249 0.261940895 -0.835848675 -0.482435446 0 0
0.721151 2.737306 0.614513 0.261940895 -0.835848675 -0.482435446 0 0
0.717682 2.732533 0.620899 0.26212304 -0.83581822 -0.482389278 0 0
0.715354 2.732533 0.619634 0.26212304 -0.83581822 -0.482389278 0 0
0.718823 2.737306 0.613249 0.26212304 -0.83581822 -0.482389278 0 0
0.717682 2.732533 0.620899 0.0968690924 -0.979201854 -0.178269761 0 0
0.71129 2.730769 0.627115 0.0968690924 -0.979201854 -0.178269761 0 0
0.715354 2.732533 0.619634 0.0968690924 -0.979201854 -0.178269761 0 0
0.717682 2.732533 0.620899 0.0968960178 -0.979204114 -0.178242714 0 0
0.713617 2.730769 0.62838 0.0968960178 -0.979204114 -0.178242714 0 0
0.71129 2.730769 0.627115 0.0968960178 -0.979204114 -0.178242714 0 0
0.717682 2.732533 0.620899 0.0967885087 -0.979204111 -0.178301131 0 0
0.7165 2.730769 0.629945 0.0967885087 -0.979204111 -0.178301131 0 0
0.713617 2.730769 0.62838 0.0967885087 -0.979204111 -0.178301131 0 0
0.717682 2.732533 0.620899 0.096876997 -0.979197694 -0.178288318 0 0
0.720564 2.732533 0.622465 0.096876997 -0.979197694 -0.178288318 0 0
0.7165 2.730769 0.629945 0.096876997 -0.979197694 -0.178288318 0 0
0.714135 2.732533 0.618972 0.262005038 -0.835818216 -0.482453386 0 0
0.718823 2.737306 0.613249 0.262005038 -0.835818216 -0.482453386 0 0
0.715354 2.732533 0.619634 0.262005038 -0.835818216 -0.482453386 0 0
0.714135 2.732533 0.618972 0.262288382 -0.835848647 -0.482246663 0 0
0.717604 2.737306 0.612586 0.262288382 -0.835848647 -0.482246663 0 0
0.718823 2.737306 0.613249 0.262288382 -0.835848647 -0.482246663 0 0
0.714135 2.732533 0.618972 -0.186251342 -0.73577793 -0.65110773 0 0
0.716665 2.737649 0.612467 -0.186251342 -0.73577793 -0.65110773 0 0
0.717604 2.737306 0.612586 -0.186251342 -0.73577793 -0.65110773 0 0
0.714135 2.732533 0.618972 -0.18561791 -0.736000838 -0.651036679 0 0
0.713271 2.73298 0.618713 -0.18561791 -0.736000838 -0.651036679 0 0
0.716665 2.737649 0.612467 -0.18561791 -0.736000838 -0.651036679 0 0
0.714135 2.732533 0.618972 -0.331215857 -0.862236765 -0.383202059 0 0
0.709295 2.731255 0.626031 -0.331215857 -0.862236765 -0.383202059 0 0
0.713271 2.73298 0.618713 -0.331215857 -0.862236765 -0.383202059 0 0
0.714135 2.732533 0.618972 -0.33145127 -0.862086623 -0.383336287 0 0
0.710071 2.730769 0.626453 -0.33145127 -0.862086623 -0.383336287 0 0
0.709295 2.731255 0.626031 -0.33145127 -0.862086623 -0.383336287 0 0
0.714135 2.732533 0.618972 0.0968254835 -0.979201854 -0.178293451 0 0
0.71129 2.730769 0.627115 0.0968254835 -0.979201854 -0.178293451 0 0
0.710071 2.730769 0.626453 0.0968254835 -0.979201854 -0.178293451 0 0
0.714135 2.732533 0.618972 0.0968254835 -0.979201854 -0.178293451 0 0
0.715354 2.732533 0.619634 0.0968254835 -0.979201854 -0.178293451 0 0
0.71129 2.730769 0.627115 0.0968254835 -0.979201854 -0.178293451 0 0
0.72343 2.744573 0.610319 -0.399057409 0.548996888 0.734408334 0 0
0.724033 2.737306 0.616079 -0.399057409 0.548996888 0.734408334 0 0
0.726312 2.744573 0.611885 -0.399057409 0.548996888 0.734408334 0 0
0.72343 2.744573 0.610319 -0.399057409 0.548996888 0.734408334 0 0
0.721151 2.737306 0.614513 -0.399057409 0.548996888 0.734408334 0 0
0.724033 2.737306 0.616079 -0.399057409 0.548996888 0.734408334 0 0
0.72343 2.744573 0.610319 -0.398820727 0.548996866 0.734536908 0 0
0.718823 2.737306 0.613249 -0.398820727 0.548996866 0.734536908 0 0
0.721151 2.737306 0.614513 -0.398820727 0.548996866 0.734536908 0 0
0.72343 2.744573 0.610319 -0.398820727 0.548996866 0.734536908 0 0
0.721102 2.744573 0.609055 -0.398820727 0.548996866 0.734536908 0 0
0.718823 2.737306 0.613249 -0.398820727 0.548996866 0.734536908 0 0
0.72343 2.744573 0.610319 -0.467233847 0.202895013 0.860538288 0 0
0.721944 2.753086 0.607505 -0.467233847 0.202895013 0.860538288 0 0
0.721102 2.744573 0.609055 -0.467233847 0.202895013 0.860538288 0 0
0.72343 2.744573 0.610319 -0.467689142 0.202745429 0.860326192 0 0
0.724271 2.753086 0.60877 -0.467689142 0.202745429 0.860326192 0 0
0.721944 2.753086 0.607505 -0.467689142 0.202745429 0.860326192 0 0
0.72343 2.744573 0.610319 -0.467400712 0.202745453 0.86048292 0 0
0.727154 2.753086 0.610336 -0.467400712 0.202745453 0.86048292 0 0
0.724271 2.753086 0.60877 -0.467400712 0.202745453 0.86048292 0 0
0.72343 2.744573 0.610319 -0.467520722 0.202798106 0.860405313 0 0
0.726312 2.744573 0.611885 -0.467520722 0.202798106 0.860405313 0 0
0.727154 2.753086 0.610336 -0.467520722 0.202798106 0.860405313 0 0
0.719883 2.744573 0.608392 -0.399349767 0.548996861 0.73424942 0 0
0.718823 2.737306 0.613249 -0.399349767 0.548996861 0.73424942 0 0
0.721102 2.744573 0.609055 -0.399349767 0.548996861 0.73424942 0 0
0.719883 2.744573 0.608392 -0.399349767 0.548996861 0.73424942 0 0
0.717604 2.737306 0.612586 -0.399349767 0.548996861 0.73424942 0 0
0.718823 2.737306 0.613249 -0.399349767 0.548996861 0.73424942 0 0
0.719883 2.744573 0.608392 0.0658633944 0.483196546 0.873030991 0 0
0.716665 2.737649 0.612467 0.0658633944 0.483196546 0.873030991 0 0
0.717604 2.737306 0.612586 0.0658633944 0.483196546 0.873030991 0 0
0.719883 2.744573 0.608392 0.0656825439 0.483265994 0.873006176 0 0
0.718894 2.744758 0.608364 0.0656825439 0.483265994 0.873006176 0 0
0.716665 2.737649 0.612467 0.0656825439 0.483265994 0.873006176 0 0
0.719883 2.744573 0.608392 0.00554493092 0.178559536 0.983913485 0 0
0.719718 2.753086 0.606848 0.00554493092 0.178559536 0.983913485 0 0
0.718894 2.744758 0.608364 0.00554493092 0.178559536 0.983913485 0 0
0.719883 2.744573 0.608392 0.00488539779 0.178547775 0.983919115 0 0
0.720725 2.753086 0.606843 0.00488539779 0.178547775 0.983919115 0 0
0.719718 2.753086 0.606848 0.00488539779 0.178547775 0.983919115 0 0
0.719883 2.744573 0.608392 -0.467318366 0.202798094 0.86051524 0 0
0.721944 2.753086 0.607505 -0.467318366 0.202798094 0.86051524 0 0
0.720725 2.753086 0.606843 -0.467318366 0.202798094 0.86051524 0 0
0.719883 2.744573 0.608392 -0.467853638 0.202894992 0.860201485 0 0
0.721102 2.744573 0.609055 -0.467853638 0.202894992 0.860201485 0 0
0.721944 2.753086 0.607505 -0.467853638 0.202894992 0.860201485 0 0
0.72343 2.7616 0.610319 0.399057409 0.548996888 -0.734408334 0 0
0.724033 2.768867 0.616079 0.399057409 0.548996888 -0.734408334 0 0
0.726312 2.7616 0.611885 0.399057409 0.548996888 -0.734408334 0 0
0.72343 2.7616 0.610319 0.399057409 0.548996888 -0.734408334 0 0
0.721151 2.768867 0.614513 0.399057409 0.548996888 -0.734408334 0 0
0.724033 2.768867 0.616079 0.399057409 0.548996888 -0.734408334 0 0
0.72343 2.7616 0.610319 0.398820727 0.548996866 -0.734536908 0 0
0.718823 2.768867 0.613249 0.398820727 0.548996866 -0.734536908 0 0
0.721151 2.768867 0.614513 0.398820727 0.548996866 -0.734536908 0 0
0.72343 2.7616 0.610319 0.398820727 0.548996866 -0.734536908 0 0
0.721102 2.7616 0.609055 0.398820727 0.548996866 -0.734536908 0 0
0.718823 2.768867 0.613249 0.398820727 0.548996866 -0.734536908 0 0
0.72343 2.7616 0.610319 0.467236106 0.202872163 -0.860542449 0 0
0.721944 2.753086 0.607505 0.467236106 0.202872163 -0.860542449 0 0
0.721102 2.7616 0.609055 0.467236106 0.202872163 -0.860542449 0 0
0.72343 2.7616 0.610319 0.4676914 0.202722595 -0.860330346 0 0
0.724271 2.753086 0.60877 0.4676914 0.202722595 -0.860330346 0 0
0.721944 2.753086 0.607505 0.4676914 0.202722595 -0.860330346 0 0
0.72343 2.7616 0.610319 0.467402969 0.202722619 -0.860487074 0 0
0.727154 2.753086 0.610336 0.467402969 0.202722619 -0.860487074 0 0
0.724271 2.753086 0.60877 0.467402969 0.202722619 -0.860487074 0 0
0.72343 2.7616 0.610319 0.46752298 0.202775266 -0.860409469 0 0
0.726312 2.7616 0.611885 0.46752298 0.202775266 -0.860409469 0 0
0.727154 2.753086 0.610336 0.46752298 0.202775266 -0.860409469 0 0
0.719883 2.7616 0.608392 0.399349767 0.548996861 -0.73424942 0 0
0.718823 2.768867 0.613249 0.399349767 0.548996861 -0.73424942 0 0
0.721102 2.7616 0.609055 0.399349767 0.548996861 -0.73424942 0 0
0.719883 2.7616 0.608392 0.399349767 0.548996861 -0.73424942 0 0
0.717604 2.768867 0.612586 0.399349767 0.548996861 -0.73424942 0 0
0.718823 2.768867 0.613249 0.399349767 0.548996861 -0.73424942 0 0
0.719883 2.7616 0.608392 -0.0663275674 0.483070843 -0.873065413 0 0
0.716665 2.768523 0.612467 -0.0663275674 0.483070843 -0.873065413 0 0
0.717604 2.768867 0.612586 -0.0663275674 0.483070843 -0.873065413 0 0
0.719883 2.7616 0.608392 -0.0656924663 0.483314833 -0.872978392 0 0
0.718894 2.761415 0.608364 -0.0656924663 0.483314833 -0.872978392 0 0
0.716665 2.768523 0.612467 -0.0656924663 0.483314833 -0.872978392 0 0
0.719883 2.7616 0.608392 -0.00554101453 0.178539163 -0.983917204 0 0
0.719718 2.753086 0.606848 -0.00554101453 0.178539163 -0.983917204 0 0
0.718894 2.761415 0.608364 -0.00554101453 0.178539163 -0.983917204 0 0
0.719883 2.7616 0.608392 -0.00488541608 0.178527472 -0.983922799 0 0
0.720725 2.753086 0.606843 -0.00488541608 0.178527472 -0.983922799 0 0
0.719718 2.753086 0.606848 -0.00488541608 0.178527472 -0.983922799 0 0
0.719883 2.7616 0.608392 0.467320624 0.202775254 -0.860519396 0 0
0.721944 2.753086 0.607505 0.467320624 0.202775254 -0.860519396 0 0
0.720725 2.753086 0.606843 0.467320624 0.202775254 -0.860519396 0 0
0.719883 2.7616 0.608392 0.4678559 0.202872142 -0.860205644 0 0
0.721102 2.7616 0.609055 0.4678559 0.202872142 -0.860205644 0 0
0.721944 2.753086 0.607505 0.4678559 0.202872142 -0.860205644 0 0
0.717682 2.77364 0.620899 -0.262096347 -0.835848678 0.482351004 0 0
0.724033 2.768867 0.616079 -0.262096347 -0.835848678 0.482351004 0 0
0.720564 2.77364 0.622465 -0.262096347 -0.835848678 0.482351004 0 0
0.717682 2.77364 0.620899 -0.262096347 -0.835848678 0.482351004 0 0
0.721151 2.768867 0.614513 -0.262096347 -0.835848678 0.482351004 0 0
0.724033 2.768867 0.616079 -0.262096347 -0.835848678 0.482351004 0 0
0.717682 2.77364 0.620899 -0.261940895 -0.835848675 0.482435446 0 0
0.718823 2.768867 0.613249 -0.261940895 -0.835848675 0.482435446 0 0
0.721151 2.768867 0.614513 -0.261940895 -0.835848675 0.482435446 0 0
0.717682 2.77364 0.620899 -0.26212304 -0.83581822 0.482389278 0 0
0.715354 2.77364 0.619634 -0.26212304 -0.83581822 0.482389278 0 0
0.718823 2.768867 0.613249 -0.26212304 -0.83581822 0.482389278 0 0
0.717682 2.77364 0.620899 -0.0968164366 -0.979224699 0.178172857 0 0
0.71129 2.775403 0.627115 -0.0968164366 -0.979224699 0.178172857 0 0
0.715354 2.77364 0.619634 -0.0968164366 -0.979224699 0.178172857 0 0
0.717682 2.77364 0.620899 -0.0968433471 -0.979226956 0.178145825 0 0
0.713617 2.775403 0.62838 -0.0968433471 -0.979226956 0.178145825 0 0
0.71129 2.775403 0.627115 -0.0968433471 -0.979226956 0.178145825 0 0
0.717682 2.77364 0.620899 -0.0967358965 -0.979226953 0.178204211 0 0
0.7165 2.775403 0.629945 -0.0967358965 -0.979226953 0.178204211 0 0
0.713617 2.775403 0.62838 -0.0967358965 -0.979226953 0.178204211 0 0
0.717682 2.77364 0.620899 -0.0968243373 -0.979220543 0.178191405 0 0
0.720564 2.77364 0.622465 -0.0968243373 -0.979220543 0.178191405 0 0
0.7165 2.775403 0.629945 -0.0968243373 -0.979220543 0.178191405 0 0
0.714135 2.77364 0.618972 -0.262005038 -0.835818216 0.482453386 0 0
0.718823 2.768867 0.613249 -0.262005038 -0.835818216 0.482453386 0 0
0.715354 2.77364 0.619634 -0.262005038 -0.835818216 0.482453386 0 0
0.714135 2.77364 0.618972 -0.262288382 -0.835848647 0.482246663 0 0
0.717604 2.768867 0.612586 -0.262288382 -0.835848647 0.482246663 0 0
0.718823 2.768867 0.613249 -0.262288382 -0.835848647 0.482246663 0 0
0.714135 2.77364 0.618972 0.186910412 -0.735486598 0.651248004 0 0
0.716665 2.768523 0.612467 0.186910412 -0.735486598 0.651248004 0 0
0.717604 2.768867 0.612586 0.186910412 -0.735486598 0.651248004 0 0
0.714135 2.77364 0.618972 0.185576338 -0.735956434 0.651098725 0 0
0.713271 2.773193 0.618713 0.185576338 -0.735956434 0.651098725 0 0
0.716665 2.768523 0.612467 0.185576338 -0.735956434 0.651098725 0 0
0.714135 2.77364 0.618972 0.331215857 -0.862236765 0.383202059 0 0
0.709295 2.774918 0.626031 0.331215857 -0.862236765 0.383202059 0 0
0.713271 2.773193 0.618713 0.331215857 -0.862236765 0.383202059 0 0
0.714135 2.77364 0.618972 0.330801022 -0.862501086 0.382965482 0 0
0.710071 2.775403 0.626453 0.330801022 -0.862501086 0.382965482 0 0
0.709295 2.774918 0.626031 0.330801022 -0.862501086 0.382965482 0 0
0.714135 2.77364 0.618972 -0.0967728514 -0.979224699 0.178196535 0 0
0.71129 2.775403 0.627115 -0.0967728514 -0.979224699 0.178196535 0 0
0.710071 2.775403 0.626453 -0.0967728514 -0.979224699 0.178196535 0 0
0.714135 2.77364 0.618972 -0.0967728514 -0.979224699 0.178196535 0 0
0.715354 2.77364 0.619634 -0.0967728514 -0.979224699 0.178196535 0 0
0.71129 2.775403 0.627115 -0.0967728514 -0.979224699 0.178196535 0 0
1.229414 2.771852 0.91746 0.524123025 0.520681772 0.673932895 0 0
1.224758 2.768523 0.923653 0.524123025 0.520681772 0.673932895 0 0
1.226247 2.767494 0.92329 0.524123025 0.520681772 0.673932895 0 0
1.229414 2.771852 0.91746 0.524501377 0.520239872 0.673979807 0 0
1.228152 2.773193 0.917407 0.524501377 0.520239872 0.673979807 0 0
1.224758 2.768523 0.923653 0.524501377 0.520239872 0.673979807 0 0
1.229414 2.771852 0.91746 0.627387461 0.609578445 0.484560722 0 0
1.232128 2.774918 0.910089 0.627387461 0.609578445 0.484560722 0 0
1.228152 2.773193 0.917407 0.627387461 0.609578445 0.484560722 0 0
1.229414 2.771852 0.91746 0.627343462 0.609622152 0.484562702 0 0
1.233125 2.773462 0.91063 0.627343462 0.609622152 0.484562702 0 0
1.232128 2.774918 0.910089 0.627343462 0.609622152 0.484562702 0 0
1.229414 2.771852 0.91746 0.678961848 0.540911913 0.49641224 0 0
1.234232 2.77152 0.911232 0.678961848 0.540911913 0.49641224 0 0
1.233125 2.773462 0.91063 0.678961848 0.540911913 0.49641224 0 0
1.229414 2.771852 0.91746 0.678972084 0.540890761 0.496421286 0 0
1.230875 2.770063 0.917411 0.678972084 0.540890761 0.496421286 0 0
1.234232 2.77152 0.911232 0.678972084 0.540890761 0.496421286 0 0
1.229414 2.771852 0.91746 0.587694388 0.461747764 0.664382652 0 0
1.22801 2.766121 0.922685 0.587694388 0.461747764 0.664382652 0 0
1.230875 2.770063 0.917411 0.587694388 0.461747764 0.664382652 0 0
1.229414 2.771852 0.91746 0.587634611 0.461786236 0.664408787 0 0
1.226247 2.767494 0.92329 0.587634611 0.461786236 0.664408787 0 0
1.22801 2.766121 0.922685 0.587634611 0.461786236 0.664408787 0 0
1.224166 2.760859 0.927119 -0.438856926 -0.34190139 -0.830968133 0 0
1.224758 2.768523 0.923653 -0.438856926 -0.34190139 -0.830968133 0 0
1.226247 2.767494 0.92329 -0.438856926 -0.34190139 -0.830968133 0 0
1.224166 2.760859 0.927119 -0.439351602 -0.341769489 -0.830760968 0 0
1.222529 2.761415 0.927756 -0.439351602 -0.341769489 -0.830760968 0 0
1.224758 2.768523 0.923653 -0.439351602 -0.341769489 -0.830760968 0 0
1.224166 2.760859 0.927119 -0.396696681 -0.126293285 -0.909220408 0 0
1.221706 2.753086 0.929272 -0.396696681 -0.126293285 -0.909220408 0 0
1.222529 2.761415 0.927756 -0.396696681 -0.126293285 -0.909220408 0 0
1.224166 2.760859 0.927119 -0.396592091 -0.126337328 -0.909259915 0 0
1.223398 2.753086 0.928534 -0.396592091 -0.126337328 -0.909259915 0 0
1.221706 2.753086 0.929272 -0.396592091 -0.126337328 -0.909259915 0 0
1.224166 2.760859 0.927119 -0.474360339 -0.112083081 -0.873166451 0 0
1.225432 2.753086 0.927429 -0.474360339 -0.112083081 -0.873166451 0 0
1.223398 2.753086 0.928534 -0.474360339 -0.112083081 -0.873166451 0 0
1.224166 2.760859 0.927119 -0.474081437 -0.112043897 -0.873322939 0 0
1.226128 2.760118 0.926149 -0.474081437 -0.112043897 -0.873322939 0 0
1.225432 2.753086 0.927429 -0.474081437 -0.112043897 -0.873322939 0 0
1.224166 2.760859 0.927119 -0.51190218 -0.303296587 -0.803720933 0 0
1.22801 2.766121 0.922685 -0.51190218 -0.303296587 -0.803720933 0 0
1.226128 2.760118 0.926149 -0.51190218 -0.303296587 -0.803720933 0 0
1.224166 2.760859 0.927119 -0.511961839 -0.303239223 -0.803704578 0 0
1.226247 2.767494 0.92329 -0.511961839 -0.303239223 -0.803704578 0 0
1.22801 2.766121 0.922685 -0.511961839 -0.303239223 -0.803704578 0 0
1.224166 2.745313 0.927119 0.439035418 -0.341853813 0.830893418 0 0
1.224758 2.737649 0.923653 0.439035418 -0.341853813 0.830893418 0 0
1.226247 2.738679 0.92329 0.439035418 -0.341853813 0.830893418 0 0
1.224166 2.745313 0.927119 0.439185043 -0.341813916 0.830830756 0 0
1.222529 2.744758 0.927756 0.439185043 -0.341813916 0.830830756 0 0
1.224758 2.737649 0.923653 0.439185043 -0.341813916 0.830830756 0 0
1.224166 2.745313 0.927119 0.396636864 -0.126318474 0.909243004 0 0
1.221706 2.753086 0.929272 0.396636864 -0.126318474 0.909243004 0 0
1.222529 2.744758 0.927756 0.396636864 -0.126318474 0.909243004 0 0
1.224166 2.745313 0.927119 0.396592091 -0.126337328 0.909259915 0 0
1.223398 2.753086 0.928534 0.396592091 -0.126337328 0.909259915 0 0
1.221706 2.753086 0.929272 0.396592091 -0.126337328 0.909259915 0 0
1.224166 2.745313 0.927119 0.474360339 -0.112083081 0.873166451 0 0
1.225432 2.753086 0.927429 0.474360339 -0.112083081 0.873166451 0 0
1.223398 2.753086 0.928534 0.474360339 -0.112083081 0.873166451 0 0
1.224166 2.745313 0.927119 0.474081437 -0.112043897 0.873322939 0 0
1.226128 2.746054 0.926149 0.474081437 -0.112043897 0.873322939 0 0
1.225432 2.753086 0.927429 0.474081437 -0.112043897 0.873322939 0 0
1.224166 2.745313 0.927119 0.511907757 -0.303334962 0.803702899 0 0
1.22801 2.740052 0.922685 0.511907757 -0.303334962 0.803702899 0 0
1.226128 2.746054 0.926149 0.511907757 -0.303334962 0.803702899 0 0
1.224166 2.745313 0.927119 0.511977246 -0.303268138 0.803683853 0 0
1.226247 2.738679 0.92329 0.511977246 -0.303268138 0.803683853 0 0
1.22801 2.740052 0.922685 0.511977246 -0.303268138 0.803683853 0 0
1.229414 2.734321 0.91746 0.627343462 -0.609622152 0.484562702 0 0
1.232128 2.731255 0.910089 0.627343462 -0.609622152 0.484562702 0 0
1.233125 2.732711 0.91063 0.627343462 -0.609622152 0.484562702 0 0
1.229414 2.734321 0.91746 0.627387461 -0.609578445 0.484560722 0 0
1.228152 2.73298 0.917407 0.627387461 -0.609578445 0.484560722 0 0
1.232128 2.731255 0.910089 0.627387461 -0.609578445 0.484560722 0 0
1.229414 2.734321 0.91746 0.524532644 -0.520267492 0.673934152 0 0
1.224758 2.737649 0.923653 0.524532644 -0.520267492 0.673934152 0 0
1.228152 2.73298 0.917407 0.524532644 -0.520267492 0.673934152 0 0
1.229414 2.734321 0.91746 0.524337927 -0.520494989 0.673910013 0 0
1.226247 2.738679 0.92329 0.524337927 -0.520494989 0.673910013 0 0
1.224758 2.737649 0.923653 0.524337927 -0.520494989 0.673910013 0 0
1.229414 2.734321 0.91746 0.587634611 -0.461786236 0.664408787 0 0
1.22801 2.740052 0.922685 0.587634611 -0.461786236 0.664408787 0 0
1.226247 2.738679 0.92329 0.587634611 -0.461786236 0.664408787 0 0
1.229414 2.734321 0.91746 0.587519019 -0.461860616 0.664459309 0 0
1.230875 2.736109 0.917411 0.587519019 -0.461860616 0.664459309 0 0
1.22801 2.740052 0.922685 0.587519019 -0.461860616 0.664459309 0 0
1.229414 2.734321 0.91746 0.678866261 -0.541109366 0.496327768 0 0
1.234232 2.734653 0.911232 0.678866261 -0.541109366 0.496327768 0 0
1.230875 2.736109 0.917411 0.678866261 -0.541109366 0.496327768 0 0
1.229414 2.734321 0.91746 0.678961848 -0.540911913 0.49641224 0 0
1.233125 2.732711 0.91063 0.678961848 -0.540911913 0.49641224 0 0
1.234232 2.734653 0.911232 0.678961848 -0.540911913 0.49641224 0 0
1.236835 2.734321 0.9038 0.85084229 -0.520263212 0.0734410457 0 0
1.239498 2.737649 0.896524 0.85084229 -0.520263212 0.0734410457 0 0
1.240003 2.738679 0.89797 0.85084229 -0.520263212 0.0734410457 0 0
1.236835 2.734321 0.9038 0.85085668 -0.520237258 0.0734581839 0 0
1.236104 2.73298 0.90277 0.85085668 -0.520237258 0.0734581839 0 0
1.239498 2.737649 0.896524 0.85085668 -0.520237258 0.0734581839 0 0
1.236835 2.734321 0.9038 0.747992879 -0.609509199 0.262688389 0 0
1.232128 2.731255 0.910089 0.747992879 -0.609509199 0.262688389 0 0
1.236104 2.73298 0.90277 0.747992879 -0.609509199 0.262688389 0 0
1.236835 2.734321 0.9038 0.747905353 -0.609680865 0.26253919 0 0
1.233125 2.732711 0.91063 0.747905353 -0.609680865 0.26253919 0 0
1.232128 2.731255 0.910089 0.747905353 -0.609680865 0.26253919 0 0
1.236835 2.734321 0.9038 0.78599635 -0.540868809 0.299450611 0 0
1.234232 2.734653 0.911232 0.78599635 -0.540868809 0.299450611 0 0
1.233125 2.732711 0.91063 0.78599635 -0.540868809 0.299450611 0 0
1.236835 2.734321 0.9038 0.785800303 -0.541183803 0.299396019 0 0
1.237589 2.736109 0.905053 0.785800303 -0.541183803 0.299396019 0 0
1.234232 2.734653 0.911232 0.785800303 -0.541183803 0.299396019 0 0
1.236835 2.734321 0.9038 0.877147628 -0.461917748 0.131316538 0 0
1.240455 2.740052 0.899779 0.877147628 -0.461917748 0.131316538 0 0
1.237589 2.736109 0.905053 0.877147628 -0.461917748 0.131316538 0 0
1.236835 2.734321 0.9038 0.877159258 -0.461875603 0.131387075 0 0
1.240003 2.738679 0.89797 0.877159258 -0.461875603 0.131387075 0 0
1.240455 2.740052 0.899779 0.877159258 -0.461875603 0.131387075 0 0
1.242083 2.745313 0.894141 -0.936089124 0.341703897 0.0835200509 0 0
1.239498 2.737649 0.896524 -0.936089124 0.341703897 0.0835200509 0 0
1.240003 2.738679 0.89797 -0.936089124 0.341703897 0.0835200509 0 0
1.242083 2.745313 0.894141 -0.936094044 0.34169708 0.0834927907 0 0
1.241727 2.744758 0.892421 -0.936094044 0.34169708 0.0834927907 0 0
1.239498 2.737649 0.896524 -0.936094044 0.34169708 0.0834927907 0 0
1.242083 2.745313 0.894141 -0.978713844 0.126183183 0.16185492 0 0
1.24255 2.753086 0.890905 -0.978713844 0.126183183 0.16185492 0 0
1.241727 2.744758 0.892421 -0.978713844 0.126183183 0.16185492 0 0
1.242083 2.745313 0.894141 -0.978636397 0.126326714 0.162210863 0 0
1.242852 2.753086 0.892727 -0.978636397 0.126326714 0.162210863 0 0
1.24255 2.753086 0.890905 -0.978636397 0.126326714 0.162210863 0 0
1.242083 2.745313 0.894141 -0.990692388 0.112066554 0.0772637044 0 0
1.243032 2.753086 0.895035 -0.990692388 0.112066554 0.0772637044 0 0
1.242852 2.753086 0.892727 -0.990692388 0.112066554 0.0772637044 0 0
1.242083 2.745313 0.894141 -0.990670933 0.112025537 0.0775975583 0 0
1.242337 2.746054 0.896314 -0.990670933 0.112025537 0.0775975583 0 0
1.243032 2.753086 0.895035 -0.990670933 0.112025537 0.0775975583 0 0
1.242083 2.745313 0.894141 -0.952844534 0.3033552 0.00793203342 0 0
1.240455 2.740052 0.899779 -0.952844534 0.3033552 0.00793203342 0 0
1.242337 2.746054 0.896314 -0.952844534 0.3033552 0.00793203342 0 0
1.242083 2.745313 0.894141 -0.952860977 0.303304894 0.00788034374 0 0
1.240003 2.738679 0.89797 -0.952860977 0.303304894 0.00788034374 0 0
1.240455 2.740052 0.899779 -0.952860977 0.303304894 0.00788034374 0 0
1.242083 2.760859 0.894141 0.936054734 0.341751506 -0.0837104711 0 0
1.239498 2.768523 0.896524 0.936054734 0.341751506 -0.0837104711 0 0
1.240003 2.767494 0.89797 0.936054734 0.341751506 -0.0837104711 0 0
1.242083 2.760859 0.894141 0.936126091 0.341652647 -0.0833151258 0 0
1.241727 2.761415 0.892421 0.936126091 0.341652647 -0.0833151258 0 0
1.239498 2.768523 0.896524 0.936126091 0.341652647 -0.0833151258 0 0
1.242083 2.760859 0.894141 0.97872741 0.126158013 -0.161792501 0 0
1.24255 2.753086 0.890905 0.97872741 0.126158013 -0.161792501 0 0
1.241727 2.761415 0.892421 0.97872741 0.126158013 -0.161792501 0 0
1.242083 2.760859 0.894141 0.978636397 0.126326714 -0.162210863 0 0
1.242852 2.753086 0.892727 0.978636397 0.126326714 -0.162210863 0 0
1.24255 2.753086 0.890905 0.978636397 0.126326714 -0.162210863 0 0
1.242083 2.760859 0.894141 0.990692388 0.112066554 -0.0772637044 0 0
1.243032 2.753086 0.895035 0.990692388 0.112066554 -0.0772637044 0 0
1.242852 2.753086 0.892727 0.990692388 0.112066554 -0.0772637044 0 0
1.242083 2.760859 0.894141 0.990670933 0.112025537 -0.0775975583 0 0
1.242337 2.760118 0.896314 0.990670933 0.112025537 -0.0775975583 0 0
1.243032 2.753086 0.895035 0.990670933 0.112025537 -0.0775975583 0 0
1.242083 2.760859 0.894141 0.952856629 0.303316827 -0.00794653251 0 0
1.240455 2.766121 0.899779 0.952856629 0.303316827 -0.00794653251 0 0
1.242337 2.760118 0.896314 0.952856629 0.303316827 -0.00794653251 0 0
1.242083 2.760859 0.894141 0.952869982 0.303275971 -0.00790454586 0 0
1.240003 2.767494 0.89797 0.952869982 0.303275971 -0.00790454586 0 0
1.240455 2.766121 0.899779 0.952869982 0.303275971 -0.00790454586 0 0
1.236835 2.771852 0.9038 -0.850744632 -0.520450051 -0.0732483146 0 0
1.239498 2.768523 0.896524 -0.850744632 -0.520450051 -0.0732483146 0 0
1.240003 2.767494 0.89797 -0.850744632 -0.520450051 -0.0732483146 0 0
1.236835 2.771852 0.9038 -0.850877974 -0.520209639 -0.0734071134 0 0
1.236104 2.773193 0.90277 -0.850877974 -0.520209639 -0.0734071134 0 0
1.239498 2.768523 0.896524 -0.850877974 -0.520209639 -0.0734071134 0 0
1.236835 2.771852 0.9038 -0.747992879 -0.609509199 -0.262688389 0 0
1.232128 2.774918 0.910089 -0.747992879 -0.609509199 -0.262688389 0 0
1.236104 2.773193 0.90277 -0.747992879 -0.609509199 -0.262688389 0 0
1.236835 2.771852 0.9038 -0.747905353 -0.609680865 -0.26253919 0 0
1.233125 2.773462 0.91063 -0.747905353 -0.609680865 -0.26253919 0 0
1.232128 2.774918 0.910089 -0.747905353 -0.609680865 -0.26253919 0 0
1.236835 2.771852 0.9038 -0.78599635 -0.540868809 -0.299450611 0 0
1.234232 2.77152 0.911232 -0.78599635 -0.540868809 -0.299450611 0 0
1.233125 2.773462 0.91063 -0.78599635 -0.540868809 -0.299450611 0 0
1.236835 2.771852 0.9038 -0.785936381 -0.54096519 -0.299433913 0 0
1.237589 2.770063 0.905053 -0.785936381 -0.54096519 -0.299433913 0 0
1.234232 2.77152 0.911232 -0.785936381 -0.54096519 -0.299433913 0 0
1.236835 2.771852 0.9038 -0.877178748 -0.461804919 -0.131505366 0 0
1.240455 2.766121 0.899779 -0.877178748 -0.461804919 -0.131505366 0 0
1.237589 2.770063 0.905053 -0.877178748 -0.461804919 -0.131505366 0 0
1.236835 2.771852 0.9038 -0.877159258 -0.461875603 -0.131387075 0 0
1.240003 2.767494 0.89797 -0.877159258 -0.461875603 -0.131387075 0 0
1.240455 2.766121 0.899779 -0.877159258 -0.461875603 -0.131387075 0 0
1.223741 2.77364 0.915221 -0.262118488 0.83581822 0.482391751 0 0
1.21739 2.768867 0.92004 -0.262118488 0.83581822 0.482391751 0 0
1.220272 2.768867 0.921606 -0.262118488 0.83581822 0.482391751 0 0
1.223741 2.77364 0.915221 -0.262118488 0.83581822 0.482391751 0 0
1.220859 2.77364 0.913655 -0.262118488 0.83581822 0.482391751 0 0
1.21739 2.768867 0.92004 -0.262118488 0.83581822 0.482391751 0 0
1.223741 2.77364 0.915221 -0.0968147553 0.979224699 0.178173771 0 0
1.224923 2.775403 0.906174 -0.0968147553 0.979224699 0.178173771 0 0
1.220859 2.77364 0.913655 -0.0968147553 0.979224699 0.178173771 0 0
1.223741 2.77364 0.915221 -0.0967836224 0.979226956 0.178178278 0 0
1.227806 2.775403 0.90774 -0.0967836224 0.979226956 0.178178278 0 0
1.224923 2.775403 0.906174 -0.0967836224 0.979226956 0.178178278 0 0
1.223741 2.77364 0.915221 -0.0968112306 0.979226957 0.178163277 0 0
1.230134 2.775403 0.909005 -0.0968112306 0.979226957 0.178163277 0 0
1.227806 2.775403 0.90774 -0.0968112306 0.979226957 0.178163277 0 0
1.223741 2.77364 0.915221 -0.0968112306 0.979226957 0.178163277 0 0
1.226069 2.77364 0.916486 -0.0968112306 0.979226957 0.178163277 0 0
1.230134 2.775403 0.909005 -0.0968112306 0.979226957 0.178163277 0 0
1.223741 2.77364 0.915221 -0.26212304 0.83581822 0.482389278 0 0
1.2226 2.768867 0.922871 -0.26212304 0.83581822 0.482389278 0 0
1.226069 2.77364 0.916486 -0.26212304 0.83581822 0.482389278 0 0
1.223741 2.77364 0.915221 -0.26212304 0.83581822 0.482389278 0 0
1.220272 2.768867 0.921606 -0.26212304 0.83581822 0.482389278 0 0
1.2226 2.768867 0.922871 -0.26212304 0.83581822 0.482389278 0 0
1.227288 2.77364 0.917148 -0.262005038 0.835818216 0.482453386 0 0
1.2226 2.768867 0.922871 -0.262005038 0.835818216 0.482453386 0 0
1.223819 2.768867 0.923533 -0.262005038 0.835818216 0.482453386 0 0
1.227288 2.77364 0.917148 -0.262005038 0.835818216 0.482453386 0 0
1.226069 2.77364 0.916486 -0.262005038 0.835818216 0.482453386 0 0
1.2226 2.768867 0.922871 -0.262005038 0.835818216 0.482453386 0 0
1.227288 2.77364 0.917148 -0.0967676501 0.979226955 0.178186957 0 0
1.230134 2.775403 0.909005 -0.0967676501 0.979226955 0.178186957 0 0
1.226069 2.77364 0.916486 -0.0967676501 0.979226955 0.178186957 0 0
1.227288 2.77364 0.917148 -0.0967676501 0.979226955 0.178186957 0 0
1.231353 2.775403 0.909667 -0.0967676501 0.979226955 0.178186957 0 0
1.230134 2.775403 0.909005 -0.0967676501 0.979226955 0.178186957 0 0
1.227288 2.77364 0.917148 0.331050753 0.862342002 0.383107908 0 0
1.232128 2.774918 0.910089 0.331050753 0.862342002 0.383107908 0 0
1.231353 2.775403 0.909667 0.331050753 0.862342002 0.383107908 0 0
1.227288 2.77364 0.917148 0.331215857 0.862236765 0.383202059 0 0
1.228152 2.773193 0.917407 0.331215857 0.862236765 0.383202059 0 0
1.232128 2.774918 0.910089 0.331215857 0.862236765 0.383202059 0 0
1.227288 2.77364 0.917148 0.185576338 0.735956434 0.651098725 0 0
1.224758 2.768523 0.923653 0.185576338 0.735956434 0.651098725 0 0
1.228152 2.773193 0.917407 0.185576338 0.735956434 0.651098725 0 0
1.227288 2.77364 0.917148 0.186303845 0.735700421 0.651180289 0 0
1.223819 2.768867 0.923533 0.186303845 0.735700421 0.651180289 0 0
1.224758 2.768523 0.923653 0.186303845 0.735700421 0.651180289 0 0
1.217993 2.7616 0.925801 0.399035268 -0.549067484 -0.734367587 0 0
1.21739 2.768867 0.92004 0.399035268 -0.549067484 -0.734367587 0 0
1.220272 2.768867 0.921606 0.399035268 -0.549067484 -0.734367587 0 0
1.217993 2.7616 0.925801 0.399035268 -0.549067484 -0.734367587 0 0
1.215111 2.7616 0.924235 0.399035268 -0.549067484 -0.734367587 0 0
1.21739 2.768867 0.92004 0.399035268 -0.549067484 -0.734367587 0 0
1.217993 2.7616 0.925801 0.467528185 -0.202722611 -0.860419048 0 0
1.21427 2.753086 0.925784 0.467528185 -0.202722611 -0.860419048 0 0
1.215111 2.7616 0.924235 0.467528185 -0.202722611 -0.860419048 0 0
1.217993 2.7616 0.925801 0.467528185 -0.202722611 -0.860419048 0 0
1.217152 2.753086 0.92735 0.467528185 -0.202722611 -0.860419048 0 0
1.21427 2.753086 0.925784 0.467528185 -0.202722611 -0.860419048 0 0
1.217993 2.7616 0.925801 0.467536304 -0.20272261 -0.860414637 0 0
1.21948 2.753086 0.928615 0.467536304 -0.20272261 -0.860414637 0 0
1.217152 2.753086 0.92735 0.467536304 -0.20272261 -0.860414637 0 0
1.217993 2.7616 0.925801 0.467241308 -0.202819542 -0.860552028 0 0
1.220321 2.7616 0.927065 0.467241308 -0.202819542 -0.860552028 0 0
1.21948 2.753086 0.928615 0.467241308 -0.202819542 -0.860552028 0 0
1.217993 2.7616 0.925801 0.398820727 -0.548996866 -0.734536908 0 0
1.2226 2.768867 0.922871 0.398820727 -0.548996866 -0.734536908 0 0
1.220321 2.7616 0.927065 0.398820727 -0.548996866 -0.734536908 0 0
1.217993 2.7616 0.925801 0.399042197 -0.549067483 -0.734363822 0 0
1.220272 2.768867 0.921606 0.399042197 -0.549067483 -0.734363822 0 0
1.2226 2.768867 0.922871 0.399042197 -0.549067483 -0.734363822 0 0
1.22154 2.7616 0.927728 0.398862555 -0.549067481 -0.734461411 0 0
1.2226 2.768867 0.922871 0.398862555 -0.549067481 -0.734461411 0 0
1.223819 2.768867 0.923533 0.398862555 -0.549067481 -0.734461411 0 0
1.22154 2.7616 0.927728 0.399349767 -0.548996861 -0.73424942 0 0
1.220321 2.7616 0.927065 0.399349767 -0.548996861 -0.73424942 0 0
1.2226 2.768867 0.922871 0.399349767 -0.548996861 -0.73424942 0 0
1.22154 2.7616 0.927728 0.467861115 -0.202819451 -0.860215233 0 0
1.21948 2.753086 0.928615 0.467861115 -0.202819451 -0.860215233 0 0
1.220321 2.7616 0.927065 0.467861115 -0.202819451 -0.860215233 0 0
1.22154 2.7616 0.927728 0.467325824 -0.202722621 -0.860528973 0 0
1.220699 2.753086 0.929277 0.467325824 -0.202722621 -0.860528973 0 0
1.21948 2.753086 0.928615 0.467325824 -0.202722621 -0.860528973 0 0
1.22154 2.7616 0.927728 -0.00488541558 -0.178528027 -0.983922698 0 0
1.221706 2.753086 0.929272 -0.00488541558 -0.178528027 -0.983922698 0 0
1.220699 2.753086 0.929277 -0.00488541558 -0.178528027 -0.983922698 0 0
1.22154 2.7616 0.927728 -0.00554113606 -0.178539795 -0.983917089 0 0
1.222529 2.761415 0.927756 -0.00554113606 -0.178539795 -0.983917089 0 0
1.221706 2.753086 0.929272 -0.00554113606 -0.178539795 -0.983917089 0 0
1.22154 2.7616 0.927728 -0.0656924663 -0.483314833 -0.872978392 0 0
1.224758 2.768523 0.923653 -0.0656924663 -0.483314833 -0.872978392 0 0
1.222529 2.761415 0.927756 -0.0656924663 -0.483314833 -0.872978392 0 0
1.22154 2.7616 0.927728 -0.0655248163 -0.4833792 -0.872955352 0 0
1.223819 2.768867 0.923533 -0.0655248163 -0.4833792 -0.872955352 0 0
1.224758 2.768523 0.923653 -0.0655248163 -0.4833792 -0.872955352 0 0
1.217993 2.744573 0.925801 -0.399035268 -0.549067484 0.734367587 0 0
1.21739 2.737306 0.92004 -0.399035268 -0.549067484 0.734367587 0 0
1.220272 2.737306 0.921606 -0.399035268 -0.549067484 0.734367587 0 0
1.217993 2.744573 0.925801 -0.399035268 -0.549067484 0.734367587 0 0
1.215111 2.744573 0.924235 -0.399035268 -0.549067484 0.734367587 0 0
1.21739 2.737306 0.92004 -0.399035268 -0.549067484 0.734367587 0 0
1.217993 2.744573 0.925801 -0.467525928 -0.202745445 0.860414895 0 0
1.21427 2.753086 0.925784 -0.467525928 -0.202745445 0.860414895 0 0
1.215111 2.744573 0.924235 -0.467525928 -0.202745445 0.860414895 0 0
1.217993 2.744573 0.925801 -0.467525928 -0.202745445 0.860414895 0 0
1.217152 2.753086 0.92735 -0.467525928 -0.202745445 0.860414895 0 0
1.21427 2.753086 0.925784 -0.467525928 -0.202745445 0.860414895 0 0
1.217993 2.744573 0.925801 -0.467534047 -0.202745445 0.860410483 0 0
1.21948 2.753086 0.928615 -0.467534047 -0.202745445 0.860410483 0 0
1.217152 2.753086 0.92735 -0.467534047 -0.202745445 0.860410483 0 0
1.217993 2.744573 0.925801 -0.46723905 -0.202842387 0.86054787 0 0
1.220321 2.744573 0.927065 -0.46723905 -0.202842387 0.86054787 0 0
1.21948 2.753086 0.928615 -0.46723905 -0.202842387 0.86054787 0 0
1.217993 2.744573 0.925801 -0.398820727 -0.548996866 0.734536908 0 0
1.2226 2.737306 0.922871 -0.398820727 -0.548996866 0.734536908 0 0
1.220321 2.744573 0.927065 -0.398820727 -0.548996866 0.734536908 0 0
1.217993 2.744573 0.925801 -0.399042197 -0.549067483 0.734363822 0 0
1.220272 2.737306 0.921606 -0.399042197 -0.549067483 0.734363822 0 0
1.2226 2.737306 0.922871 -0.399042197 -0.549067483 0.734363822 0 0
1.22154 2.744573 0.927728 -0.398862555 -0.549067481 0.734461411 0 0
1.2226 2.737306 0.922871 -0.398862555 -0.549067481 0.734461411 0 0
1.223819 2.737306 0.923533 -0.398862555 -0.549067481 0.734461411 0 0
1.22154 2.744573 0.927728 -0.399349767 -0.548996861 0.73424942 0 0
1.220321 2.744573 0.927065 -0.399349767 -0.548996861 0.73424942 0 0
1.2226 2.737306 0.922871 -0.399349767 -0.548996861 0.73424942 0 0
1.22154 2.744573 0.927728 -0.467858854 -0.202842296 0.860211076 0 0
1.21948 2.753086 0.928615 -0.467858854 -0.202842296 0.860211076 0 0
1.220321 2.744573 0.927065 -0.467858854 -0.202842296 0.860211076 0 0
1.22154 2.744573 0.927728 -0.467323568 -0.202745456 0.860524818 0 0
1.220699 2.753086 0.929277 -0.467323568 -0.202745456 0.860524818 0 0
1.21948 2.753086 0.928615 -0.467323568 -0.202745456 0.860524818 0 0
1.22154 2.744573 0.927728 0.00488539729 -0.17854833 0.983919014 0 0
1.221706 2.753086 0.929272 0.00488539729 -0.17854833 0.983919014 0 0
1.220699 2.753086 0.929277 0.00488539729 -0.17854833 0.983919014 0 0
1.22154 2.744573 0.927728 0.00554505255 -0.178560169 0.983913369 0 0
1.222529 2.744758 0.927756 0.00554505255 -0.178560169 0.983913369 0 0
1.221706 2.753086 0.929272 0.00554505255 -0.178560169 0.983913369 0 0
1.22154 2.744573 0.927728 0.0656825439 -0.483265994 0.873006176 0 0
1.224758 2.737649 0.923653 0.0656825439 -0.483265994 0.873006176 0 0
1.222529 2.744758 0.927756 0.0656825439 -0.483265994 0.873006176 0 0
1.22154 2.744573 0.927728 0.0650603517 -0.483504771 0.87292055 0 0
1.223819 2.737306 0.923533 0.0650603517 -0.483504771 0.87292055 0 0
1.224758 2.737649 0.923653 0.0650603517 -0.483504771 0.87292055 0 0
1.223741 2.732533 0.915221 -0.0968362606 -0.979204114 0.178275185 0 0
1.224923 2.730769 0.906174 -0.0968362606 -0.979204114 0.178275185 0 0
1.227806 2.730769 0.90774 -0.0968362606 -0.979204114 0.178275185 0 0
1.223741 2.732533 0.915221 -0.0968674102 -0.979201854 0.178270674 0 0
1.220859 2.732533 0.913655 -0.0968674102 -0.979201854 0.178270674 0 0
1.224923 2.730769 0.906174 -0.0968674102 -0.979201854 0.178270674 0 0
1.223741 2.732533 0.915221 -0.262118488 -0.83581822 0.482391751 0 0
1.21739 2.737306 0.92004 -0.262118488 -0.83581822 0.482391751 0 0
1.220859 2.732533 0.913655 -0.262118488 -0.83581822 0.482391751 0 0
1.223741 2.732533 0.915221 -0.262118488 -0.83581822 0.482391751 0 0
1.220272 2.737306 0.921606 -0.262118488 -0.83581822 0.482391751 0 0
1.21739 2.737306 0.92004 -0.262118488 -0.83581822 0.482391751 0 0
1.223741 2.732533 0.915221 -0.26212304 -0.83581822 0.482389278 0 0
1.2226 2.737306 0.922871 -0.26212304 -0.83581822 0.482389278 0 0
1.220272 2.737306 0.921606 -0.26212304 -0.83581822 0.482389278 0 0
1.223741 2.732533 0.915221 -0.26212304 -0.83581822 0.482389278 0 0
1.226069 2.732533 0.916486 -0.26212304 -0.83581822 0.482389278 0 0
1.2226 2.737306 0.922871 -0.26212304 -0.83581822 0.482389278 0 0
1.223741 2.732533 0.915221 -0.0968638838 -0.979204115 0.178260175 0 0
1.230134 2.730769 0.909005 -0.0968638838 -0.979204115 0.178260175 0 0
1.226069 2.732533 0.916486 -0.0968638838 -0.979204115 0.178260175 0 0
1.223741 2.732533 0.915221 -0.0968638838 -0.979204115 0.178260175 0 0
1.227806 2.730769 0.90774 -0.0968638838 -0.979204115 0.178260175 0 0
1.230134 2.730769 0.909005 -0.0968638838 -0.979204115 0.178260175 0 0
1.227288 2.732533 0.917148 -0.0968202796 -0.979204113 0.178283868 0 0
1.230134 2.730769 0.909005 -0.0968202796 -0.979204113 0.178283868 0 0
1.231353 2.730769 0.909667 -0.0968202796 -0.979204113 0.178283868 0 0
1.227288 2.732533 0.917148 -0.0968202796 -0.979204113 0.178283868 0 0
1.226069 2.732533 0.916486 -0.0968202796 -0.979204113 0.178283868 0 0
1.230134 2.730769 0.909005 -0.0968202796 -0.979204113 0.178283868 0 0
1.227288 2.732533 0.917148 -0.262005038 -0.835818216 0.482453386 0 0
1.2226 2.737306 0.922871 -0.262005038 -0.835818216 0.482453386 0 0
1.226069 2.732533 0.916486 -0.262005038 -0.835818216 0.482453386 0 0
1.227288 2.732533 0.917148 -0.262005038 -0.835818216 0.482453386 0 0
1.223819 2.737306 0.923533 -0.262005038 -0.835818216 0.482453386 0 0
1.2226 2.737306 0.922871 -0.262005038 -0.835818216 0.482453386 0 0
1.227288 2.732533 0.917148 0.185644626 -0.735991444 0.651039682 0 0
1.224758 2.737649 0.923653 0.185644626 -0.735991444 0.651039682 0 0
1.223819 2.737306 0.923533 0.185644626 -0.735991444 0.651039682 0 0
1.227288 2.732533 0.917148 0.18561791 -0.736000838 0.651036679 0 0
1.228152 2.73298 0.917407 0.18561791 -0.736000838 0.651036679 0 0
1.224758 2.737649 0.923653 0.18561791 -0.736000838 0.651036679 0 0
1.227288 2.732533 0.917148 0.331215857 -0.862236765 0.383202059 0 0
1.232128 2.731255 0.910089 0.331215857 -0.862236765 0.383202059 0 0
1.228152 2.73298 0.917407 0.331215857 -0.862236765 0.383202059 0 0
1.227288 2.732533 0.917148 0.331701278 -0.861927061 0.383478817 0 0
1.231353 2.730769 0.909667 0.331701278 -0.861927061 0.383478817 0 0
1.232128 2.731255 0.910089 0.331701278 -0.861927061 0.383478817 0 0
1.23187 2.732533 0.900259 0.262118488 -0.83581822 -0.482391751 0 0
1.232457 2.737306 0.892308 0.262118488 -0.83581822 -0.482391751 0 0
1.235339 2.737306 0.893874 0.262118488 -0.83581822 -0.482391751 0 0
1.23187 2.732533 0.900259 0.261967104 -0.835848677 -0.482421211 0 0
1.228988 2.732533 0.898694 0.261967104 -0.835848677 -0.482421211 0 0
1.232457 2.737306 0.892308 0.261967104 -0.835848677 -0.482421211 0 0
1.23187 2.732533 0.900259 0.0968240235 -0.979199952 -0.178304687 0 0
1.224923 2.730769 0.906174 0.0968240235 -0.979199952 -0.178304687 0 0
1.228988 2.732533 0.898694 0.0968240235 -0.979199952 -0.178304687 0 0
1.23187 2.732533 0.900259 0.0968414663 -0.979201854 -0.178284768 0 0
1.227806 2.730769 0.90774 0.0968414663 -0.979201854 -0.178284768 0 0
1.224923 2.730769 0.906174 0.0968414663 -0.979201854 -0.178284768 0 0
1.23187 2.732533 0.900259 0.0968690924 -0.979201854 -0.178269761 0 0
1.230134 2.730769 0.909005 0.0968690924 -0.979201854 -0.178269761 0 0
1.227806 2.730769 0.90774 0.0968690924 -0.979201854 -0.178269761 0 0
1.23187 2.732533 0.900259 0.0968690924 -0.979201854 -0.178269761 0 0
1.234198 2.732533 0.901524 0.0968690924 -0.979201854 -0.178269761 0 0
1.230134 2.730769 0.909005 0.0968690924 -0.979201854 -0.178269761 0 0
1.23187 2.732533 0.900259 0.26212304 -0.83581822 -0.482389278 0 0
1.237667 2.737306 0.895139 0.26212304 -0.83581822 -0.482389278 0 0
1.234198 2.732533 0.901524 0.26212304 -0.83581822 -0.482389278 0 0
1.23187 2.732533 0.900259 0.26212304 -0.83581822 -0.482389278 0 0
1.235339 2.737306 0.893874 0.26212304 -0.83581822 -0.482389278 0 0
1.237667 2.737306 0.895139 0.26212304 -0.83581822 -0.482389278 0 0
1.235417 2.732533 0.902186 0.262005038 -0.835818216 -0.482453386 0 0
1.237667 2.737306 0.895139 0.262005038 -0.835818216 -0.482453386 0 0
1.238886 2.737306 0.895801 0.262005038 -0.835818216 -0.482453386 0 0
1.235417 2.732533 0.902186 0.262005038 -0.835818216 -0.482453386 0 0
1.234198 2.732533 0.901524 0.262005038 -0.835818216 -0.482453386 0 0
1.237667 2.737306 0.895139 0.262005038 -0.835818216 -0.482453386 0 0
1.235417 2.732533 0.902186 0.0968254835 -0.979201854 -0.178293451 0 0
1.230134 2.730769 0.909005 0.0968254835 -0.979201854 -0.178293451 0 0
1.234198 2.732533 0.901524 0.0968254835 -0.979201854 -0.178293451 0 0
1.235417 2.732533 0.902186 0.0968254835 -0.979201854 -0.178293451 0 0
1.231353 2.730769 0.909667 0.0968254835 -0.979201854 -0.178293451 0 0
1.230134 2.730769 0.909005 0.0968254835 -0.979201854 -0.178293451 0 0
1.235417 2.732533 0.902186 0.502448675 -0.861789478 0.0697439883 0 0
1.232128 2.731255 0.910089 0.502448675 -0.861789478 0.0697439883 0 0
1.231353 2.730769 0.909667 0.502448675 -0.861789478 0.0697439883 0 0
1.235417 2.732533 0.902186 0.501902318 -0.862130599 0.0694614474 0 0
1.236104 2.73298 0.90277 0.501902318 -0.862130599 0.0694614474 0 0
1.232128 2.731255 0.910089 0.501902318 -0.862130599 0.0694614474 0 0
1.235417 2.732533 0.902186 0.647396863 -0.735900642 -0.198311743 0 0
1.239498 2.737649 0.896524 0.647396863 -0.735900642 -0.198311743 0 0
1.236104 2.73298 0.90277 0.647396863 -0.735900642 -0.198311743 0 0
1.235417 2.732533 0.902186 0.647150977 -0.736036099 -0.198611364 0 0
1.238886 2.737306 0.895801 0.647150977 -0.736036099 -0.198611364 0 0
1.239498 2.737649 0.896524 0.647150977 -0.736036099 -0.198611364 0 0
1.237618 2.744573 0.88968 -0.399057409 0.548996888 0.734408334 0 0
1.232457 2.737306 0.892308 -0.399057409 0.548996888 0.734408334 0 0
1.235339 2.737306 0.893874 -0.399057409 0.548996888 0.734408334 0 0
1.237618 2.744573 0.88968 -0.399057409 0.548996888 0.734408334 0 0
1.234736 2.744573 0.888114 -0.399057409 0.548996888 0.734408334 0 0
1.232457 2.737306 0.892308 -0.399057409 0.548996888 0.734408334 0 0
1.237618 2.744573 0.88968 -0.467520722 0.202798106 0.860405313 0 0
1.235578 2.753086 0.886565 -0.467520722 0.202798106 0.860405313 0 0
1.234736 2.744573 0.888114 -0.467520722 0.202798106 0.860405313 0 0
1.237618 2.744573 0.88968 -0.467520722 0.202798106 0.860405313 0 0
1.23846 2.753086 0.888131 -0.467520722 0.202798106 0.860405313 0 0
1.235578 2.753086 0.886565 -0.467520722 0.202798106 0.860405313 0 0
1.237618 2.744573 0.88968 -0.467243428 0.202798086 0.860555934 0 0
1.240788 2.753086 0.889395 -0.467243428 0.202798086 0.860555934 0 0
1.23846 2.753086 0.888131 -0.467243428 0.202798086 0.860555934 0 0
1.237618 2.744573 0.88968 -0.467519256 0.202895016 0.860383262 0 0
1.239946 2.744573 0.890945 -0.467519256 0.202895016 0.860383262 0 0
1.240788 2.753086 0.889395 -0.467519256 0.202895016 0.860383262 0 0
1.237618 2.744573 0.88968 -0.399064338 0.548996888 0.734404569 0 0
1.237667 2.737306 0.895139 -0.399064338 0.548996888 0.734404569 0 0
1.239946 2.744573 0.890945 -0.399064338 0.548996888 0.734404569 0 0
1.237618 2.744573 0.88968 -0.399064338 0.548996888 0.734404569 0 0
1.235339 2.737306 0.893874 -0.399064338 0.548996888 0.734404569 0 0
1.237667 2.737306 0.895139 -0.399064338 0.548996888 0.734404569 0 0
1.241165 2.744573 0.891607 -0.398884689 0.548996876 0.734502168 0 0
1.237667 2.737306 0.895139 -0.398884689 0.548996876 0.734502168 0 0
1.238886 2.737306 0.895801 -0.398884689 0.548996876 0.734502168 0 0
1.241165 2.744573 0.891607 -0.398884689 0.548996876 0.734502168 0 0
1.239946 2.744573 0.890945 -0.398884689 0.548996876 0.734502168 0 0
1.237667 2.737306 0.895139 -0.398884689 0.548996876 0.734502168 0 0
1.241165 2.744573 0.891607 -0.467308785 0.202895016 0.860497596 0 0
1.240788 2.753086 0.889395 -0.467308785 0.202895016 0.860497596 0 0
1.239946 2.744573 0.890945 -0.467308785 0.202895016 0.860497596 0 0
1.241165 2.744573 0.891607 -0.467863228 0.202798103 0.860219117 0 0
1.242007 2.753086 0.890058 -0.467863228 0.202798103 0.860219117 0 0
1.240788 2.753086 0.889395 -0.467863228 0.202798103 0.860219117 0 0
1.241165 2.744573 0.891607 -0.828327696 0.178552394 0.531029444 0 0
1.24255 2.753086 0.890905 -0.828327696 0.178552394 0.531029444 0 0
1.242007 2.753086 0.890058 -0.828327696 0.178552394 0.531029444 0 0
1.241165 2.744573 0.891607 -0.828202307 0.178548234 0.53122638 0 0
1.241727 2.744758 0.892421 -0.828202307 0.178548234 0.53122638 0 0
1.24255 2.753086 0.890905 -0.828202307 0.178548234 0.53122638 0 0
1.241165 2.744573 0.891607 -0.767909881 0.483366758 0.420322485 0 0
1.239498 2.737649 0.896524 -0.767909881 0.483366758 0.420322485 0 0
1.241727 2.744758 0.892421 -0.767909881 0.483366758 0.420322485 0 0
1.241165 2.744573 0.891607 -0.767744342 0.483463007 0.420514144 0 0
1.238886 2.737306 0.895801 -0.767744342 0.483463007 0.420514144 0 0
1.239498 2.737649 0.896524 -0.767744342 0.483463007 0.420514144 0 0
1.237618 2.7616 0.88968 0.399057409 0.548996888 -0.734408334 0 0
1.232457 2.768867 0.892308 0.399057409 0.548996888 -0.734408334 0 0
1.235339 2.768867 0.893874 0.399057409 0.548996888 -0.734408334 0 0
1.237618 2.7616 0.88968 0.399057409 0.548996888 -0.734408334 0 0
1.234736 2.7616 0.888114 0.399057409 0.548996888 -0.734408334 0 0
1.232457 2.768867 0.892308 0.399057409 0.548996888 -0.734408334 0 0
1.237618 2.7616 0.88968 0.46752298 0.202775266 -0.860409469 0 0
1.235578 2.753086 0.886565 0.46752298 0.202775266 -0.860409469 0 0
1.234736 2.7616 0.888114 0.46752298 0.202775266 -0.860409469 0 0
1.237618 2.7616 0.88968 0.46752298 0.202775266 -0.860409469 0 0
1.23846 2.753086 0.888131 0.46752298 0.202775266 -0.860409469 0 0
1.235578 2.753086 0.886565 0.46752298 0.202775266 -0.860409469 0 0
1.237618 2.7616 0.88968 0.467245685 0.202775246 -0.860560091 0 0
1.240788 2.753086 0.889395 0.467245685 0.202775246 -0.860560091 0 0
1.23846 2.753086 0.888131 0.467245685 0.202775246 -0.860560091 0 0
1.237618 2.7616 0.88968 0.467521516 0.202872166 -0.860387422 0 0
1.239946 2.7616 0.890945 0.467521516 0.202872166 -0.860387422 0 0
1.240788 2.753086 0.889395 0.467521516 0.202872166 -0.860387422 0 0
1.237618 2.7616 0.88968 0.399064338 0.548996888 -0.734404569 0 0
1.237667 2.768867 0.895139 0.399064338 0.548996888 -0.734404569 0 0
1.239946 2.7616 0.890945 0.399064338 0.548996888 -0.734404569 0 0
1.237618 2.7616 0.88968 0.399064338 0.548996888 -0.734404569 0 0
1.235339 2.768867 0.893874 0.399064338 0.548996888 -0.734404569 0 0
1.237667 2.768867 0.895139 0.399064338 0.548996888 -0.734404569 0 0
1.241165 2.7616 0.891607 0.398884689 0.548996876 -0.734502168 0 0
1.237667 2.768867 0.895139 0.398884689 0.548996876 -0.734502168 0 0
1.238886 2.768867 0.895801 0.398884689 0.548996876 -0.734502168 0 0
1.241165 2.7616 0.891607 0.398884689 0.548996876 -0.734502168 0 0
1.239946 2.7616 0.890945 0.398884689 0.548996876 -0.734502168 0 0
1.237667 2.768867 0.895139 0.398884689 0.548996876 -0.734502168 0 0
1.241165 2.7616 0.891607 0.467311044 0.202872166 -0.860501756 0 0
1.240788 2.753086 0.889395 0.467311044 0.202872166 -0.860501756 0 0
1.239946 2.7616 0.890945 0.467311044 0.202872166 -0.860501756 0 0
1.241165 2.7616 0.891607 0.467865488 0.202775263 -0.860223272 0 0
1.242007 2.753086 0.890058 0.467865488 0.202775263 -0.860223272 0 0
1.240788 2.753086 0.889395 0.467865488 0.202775263 -0.860223272 0 0
1.241165 2.7616 0.891607 0.828330798 0.178532091 -0.531031432 0 0
1.24255 2.753086 0.890905 0.828330798 0.178532091 -0.531031432 0 0
1.242007 2.753086 0.890058 0.828330798 0.178532091 -0.531031432 0 0
1.241165 2.7616 0.891607 0.828203293 0.178527861 -0.531231691 0 0
1.241727 2.761415 0.892421 0.828203293 0.178527861 -0.531231691 0 0
1.24255 2.753086 0.890905 0.828203293 0.178527861 -0.531231691 0 0
1.241165 2.7616 0.891607 0.767891976 0.483415603 -0.420299022 0 0
1.239498 2.768523 0.896524 0.767891976 0.483415603 -0.420299022 0 0
1.241727 2.761415 0.892421 0.767891976 0.483415603 -0.420299022 0 0
1.241165 2.7616 0.891607 0.768026116 0.483337555 -0.420143657 0 0
1.238886 2.768867 0.895801 0.768026116 0.483337555 -0.420143657 0 0
1.239498 2.768523 0.896524 0.768026116 0.483337555 -0.420143657 0 0
1.23187 2.77364 0.900259 -0.262118488 -0.83581822 0.482391751 0 0
1.232457 2.768867 0.892308 -0.262118488 -0.83581822 0.482391751 0 0
1.235339 2.768867 0.893874 -0.262118488 -0.83581822 0.482391751 0 0
1.23187 2.77364 0.900259 -0.261967104 -0.835848677 0.482421211 0 0
1.228988 2.77364 0.898694 -0.261967104 -0.835848677 0.482421211 0 0
1.232457 2.768867 0.892308 -0.261967104 -0.835848677 0.482421211 0 0
1.23187 2.77364 0.900259 -0.0967713923 -0.979222799 0.178207765 0 0
1.224923 2.775403 0.906174 -0.0967713923 -0.979222799 0.178207765 0 0
1.228988 2.77364 0.898694 -0.0967713923 -0.979222799 0.178207765 0 0
1.23187 2.77364 0.900259 -0.0967888255 -0.979224699 0.178187857 0 0
1.227806 2.775403 0.90774 -0.0967888255 -0.979224699 0.178187857 0 0
1.224923 2.775403 0.906174 -0.0967888255 -0.979224699 0.178187857 0 0
1.23187 2.77364 0.900259 -0.0968164366 -0.979224699 0.178172857 0 0
1.230134 2.775403 0.909005 -0.0968164366 -0.979224699 0.178172857 0 0
1.227806 2.775403 0.90774 -0.0968164366 -0.979224699 0.178172857 0 0
1.23187 2.77364 0.900259 -0.0968164366 -0.979224699 0.178172857 0 0
1.234198 2.77364 0.901524 -0.0968164366 -0.979224699 0.178172857 0 0
1.230134 2.775403 0.909005 -0.0968164366 -0.979224699 0.178172857 0 0
1.23187 2.77364 0.900259 -0.26212304 -0.83581822 0.482389278 0 0
1.237667 2.768867 0.895139 -0.26212304 -0.83581822 0.482389278 0 0
1.234198 2.77364 0.901524 -0.26212304 -0.83581822 0.482389278 0 0
1.23187 2.77364 0.900259 -0.26212304 -0.83581822 0.482389278 0 0
1.235339 2.768867 0.893874 -0.26212304 -0.83581822 0.482389278 0 0
1.237667 2.768867 0.895139 -0.26212304 -0.83581822 0.482389278 0 0
1.235417 2.77364 0.902186 -0.262005038 -0.835818216 0.482453386 0 0
1.237667 2.768867 0.895139 -0.262005038 -0.835818216 0.482453386 0 0
1.238886 2.768867 0.895801 -0.262005038 -0.835818216 0.482453386 0 0
1.235417 2.77364 0.902186 -0.262005038 -0.835818216 0.482453386 0 0
1.234198 2.77364 0.901524 -0.262005038 -0.835818216 0.482453386 0 0
1.237667 2.768867 0.895139 -0.262005038 -0.835818216 0.482453386 0 0
1.235417 2.77364 0.902186 -0.0967728514 -0.979224699 0.178196535 0 0
1.230134 2.775403 0.909005 -0.0967728514 -0.979224699 0.178196535 0 0
1.234198 2.77364 0.901524 -0.0967728514 -0.979224699 0.178196535 0 0
1.235417 2.77364 0.902186 -0.0967728514 -0.979224699 0.178196535 0 0
1.231353 2.775403 0.909667 -0.0967728514 -0.979224699 0.178196535 0 0
1.230134 2.775403 0.909005 -0.0967728514 -0.979224699 0.178196535 0 0
1.235417 2.77364 0.902186 -0.501783704 -0.86220458 -0.0694001201 0 0
1.232128 2.774918 0.910089 -0.501783704 -0.86220458 -0.0694001201 0 0
1.231353 2.775403 0.909667 -0.501783704 -0.86220458 -0.0694001201 0 0
1.235417 2.77364 0.902186 -0.501902318 -0.862130599 -0.0694614474 0 0
1.236104 2.773193 0.90277 -0.501902318 -0.862130599 -0.0694614474 0 0
1.232128 2.774918 0.910089 -0.501902318 -0.862130599 -0.0694614474 0 0
1.235417 2.77364 0.902186 -0.647426307 -0.735856241 0.198380365 0 0
1.239498 2.768523 0.896524 -0.647426307 -0.735856241 0.198380365 0 0
1.236104 2.773193 0.90277 -0.647426307 -0.735856241 0.198380365 0 0
1.235417 2.77364 0.902186 -0.647627501 -0.735745278 0.198135069 0 0
1.238886 2.768867 0.895801 -0.647627501 -0.735745278 0.198135069 0 0
1.239498 2.768523 0.896524 -0.647627501 -0.735745278 0.198135069 0 0
3 0 1 2
3 3 4 5
3 6 7 8
3 9 10 11
3 12 13 14
3 15 16 17
3 18 19 20
3 21 22 23
3 24 25 26
3 27 28 29
3 30 31 32
3 33 34 35
3 36 37 38
3 39 40 41
3 42 43 44
3 45 46 47
3 48 49 50
3 51 52 53
3 54 55 56
3 57 58 59
3 60 61 62
3 63 64 65
3 66 67 68
3 69 70 71
3 72 73 74
3 75 76 77
3 78 79 80
3 81 82 83
3 84 85 86
3 87 88 89
3 90 91 92
3 93 94 95
3 96 97 98
3 99 100 101
3 102 103 104
3 105 106 107
3 108 109 110
3 111 112 113
3 114 115 116
3 117 118 119
3 120 121 122
3 123 124 125
3 126 127 128
3 129 130 131
3 132 133 134
3 135 136 137
3 138 139 140
3 141 142 143
3 144 145 146
3 147 148 149
3 150 151 152
3 153 154 155
3 156 157 158
3 159 160 161
3 162 163 164
3 165 166 167
3 168 169 170
3 171 172 173
3 174 175 176
3 177 178 179
3 180 181 182
3 183 184 185
3 186 187 188
3 189 190 191
3 192 193 194
3 195 196 197
3 198 199 200
3 201 202 203
3 204 205 206
3 207 208 209
3 210 211 212
3 213 214 215
3 216 217 218
3 219 220 221
3 222 223 224
3 225 226 227
3 228 229 230
3 231 232 233
3 234 235 236
3 237 238 239
3 240 241 242
3 243 244 245
3 246 247 248
3 249 250 251
3 252 253 254
3 255 256 257
3 258 259 260
3 261 262 263
3 264 265 266
3 267 268 269
3 270 271 272
3 273 274 275
3 276 277 278
3 279 280 281
3 282 283 284
3 285 286 287
3 288 289 290
3 291 292 293
3 294 295 296
3 297 298 299
3 300 301 302
3 303 304 305
3 306 307 308
3 309 310 311
3 312 313 314
3 315 316 317
3 318 319 320
3 321 322 323
3 324 325 326
3 327 328 329
3 330 331 332
3 333 334 335
3 336 337 338
3 339 340 341
3 342 343 344
3 345 346 347
3 348 349 350
3 351 352 353
3 354 355 356
3 357 358 359
3 360 361 362
3 363 364 365
3 366 367 368
3 369 370 371
3 372 373 374
3 375 376 377
3 378 379 380
3 381 382 383
3 384 385 386
3 387 388 389
3 390 391 392
3 393 394 395
3 396 397 398
3 399 400 401
3 402 403 404
3 405 406 407
3 408 409 410
3 411 412 413
3 414 415 416
3 417 418 419
3 420 421 422
3 423 424 425
3 426 427 428
3 429 430 431
3 432 433 434
3 435 436 437
3 438 439 440
3 441 442 443
3 444 445 446
3 447 448 449
3 450 451 452
3 453 454 455
3 456 457 458
3 459 460 461
3 462 463 464
3 465 466 467
3 468 469 470
3 471 472 473
3 474 475 476
3 477 478 479
3 480 481 482
3 483 484 485
3 486 487 488
3 489 490 491
3 492 493 494
3 495 496 497
3 498 499 500
3 501 502 503
3 504 505 506
3 507 508 509
3 510 511 512
3 513 514 515
3 516 517 518
3 519 520 521
3 522 523 524
3 525 526 527
3 528 529 530
3 531 532 533
3 534 535 536
3 537 538 539
3 540 541 542
3 543 544 545
3 546 547 548
3 549 550 551
3 552 553 554
3 555 556 557
3 558 559 560
3 561 562 563
3 564 565 566
3 567 568 569
3 570 571 572
3 573 574 575
3 576 577 578
3 579 580 581
3 582 583 584
3 585 586 587
3 588 589 590
3 591 592 593
3 594 595 596
3 597 598 599
3 600 601 602
3 603 604 605
3 606 607 608
3 609 610 611
3 612 613 614
3 615 616 617
3 618 619 620
3 621 622 623
3 624 625 626
3 627 628 629
3 630 631 632
3 633 634 635
3 636 637 638
3 639 640 641
3 642 643 644
3 645 646 647
3 648 649 650
3 651 652 653
3 654 655 656
3 657 658 659
3 660 661 662
3 663 664 665
3 666 667 668
3 669 670 671
3 672 673 674
3 675 676 677
3 678 679 680
3 681 682 683
3 684 685 686
3 687 688 689
3 690 691 692
3 693 694 695
3 696 697 698
3 699 700 701
3 702 703 704
3 705 706 707
3 708 709 710
3 711 712 713
3 714 715 716
3 717 718 719
3 720 721 722
3 723 724 725
3 726 727 728
3 729 730 731
3 732 733 734
3 735 736 737
3 738 739 740
3 741 742 743
3 744 745 746
3 747 748 749
3 750 751 752
3 753 754 755
3 756 757 758
3 759 760 761
3 762 763 764
3 765 766 767
3 768 769 770
3 771 772 773
3 774 775 776
3 777 778 779
3 780 781 782
3 783 784 785
3 786 787 788
3 789 790 791
3 792 793 794
3 795 796 797
3 798 799 800
3 801 802 803
3 804 805 806
3 807 808 809
3 810 811 812
3 813 814 815
3 816 817 818
3 819 820 821
3 822 823 824
3 825 826 827
3 828 829 830
3 831 832 833
3 834 835 836
3 837 838 839
3 840 841 842
3 843 844 845
3 846 847 848
3 849 850 851
3 852 853 854
3 855 856 857
3 858 859 860
3 861 862 863
3 864 865 866
3 867 868 869
3 870 871 872
3 873 874 875
3 876 877 878
3 879 880 881
3 882 883 884
3 885 886 887
3 888 889 890
3 891 892 893
3 894 895 896
3 897 898 899
3 900 901 902
3 903 904 905
3 906 907 908
3 909 910 911
3 912 913 914
3 915 916 917
3 918 919 920
3 921 922 923
3 924 925 926
3 927 928 929
3 930 931 932
3 933 934 935
3 936 937 938
3 939 940 941
3 942 943 944
3 945 946 947
3 948 949 950
3 951 952 953
3 954 955 956
3 957 958 959
3 960 961 962
3 963 964 965
3 966 967 968
3 969 970 971
3 972 973 974
3 975 976 977
3 978 979 980
3 981 982 983
3 984 985 986
3 987 988 989
3 990 991 992
3 993 994 995
3 996 997 998
3 999 1000 1001
3 1002 1003 1004
3 1005 1006 1007
3 1008 1009 1010
3 1011 1012 1013
3 1014 1015 1016
3 1017 1018 1019
3 1020 1021 1022
3 1023 1024 1025
3 1026 1027 1028
3 1029 1030 1031
3 1032 1033 1034
3 1035 1036 1037
3 1038 1039 1040
3 1041 1042 1043
3 1044 1045 1046
3 1047 1048 1049
3 1050 1051 1052
3 1053 1054 1055
3 1056 1057 1058
3 1059 1060 1061
3 1062 1063 1064
3 1065 1066 1067
3 1068 1069 1070
3 1071 1072 1073
3 1074 1075 1076
3 1077 1078 1079
3 1080 1081 1082
3 1083 1084 1085
3 1086 1087 1088
3 1089 1090 1091
3 1092 1093 1094
3 1095 1096 1097
3 1098 1099 1100
3 1101 1102 1103
3 1104 1105 1106
3 1107 1108 1109
3 1110 1111 1112
3 1113 1114 1115
3 1116 1117 1118
3 1119 1120 1121
3 1122 1123 1124
3 1125 1126 1127
3 1128 1129 1130
3 1131 1132 1133
3 1134 1135 1136
3 1137 1138 1139
3 1140 1141 1142
3 1143 1144 1145
3 1146 1147 1148
3 1149 1150 1151
