ply
format ascii 1.0
element vertex 168
property float x
property float y
property float z
property float nx
property float ny
property float nz
property float u
property float v
element face 56
property list uchar int vertex_indices
end_header
0.713097 2.790362 0.611809 0.477407778 0 -0.878681861 0 0
0.70653 2.738335 0.608241 0.477407778 0 -0.878681861 0 0
0.70653 2.790362 0.608241 0.477407778 0 -0.878681861 0 0
0.713097 2.790362 0.611809 0.477407778 0 -0.878681861 0 0
0.713097 2.738335 0.611809 0.477407778 0 -0.878681861 0 0
0.70653 2.738335 0.608241 0.477407778 0 -0.878681861 0 0
0.692547 2.790362 0.633979 -0.477407778 0 0.878681861 0 0
0.699114 2.738335 0.637547 -0.477407778 0 0.878681861 0 0
0.699114 2.790362 0.637547 -0.477407778 0 0.878681861 0 0
0.692547 2.790362 0.633979 -0.477407778 0 0.878681861 0 0
0.692547 2.738335 0.633979 -0.477407778 0 0.878681861 0 0
0.699114 2.738335 0.637547 -0.477407778 0 0.878681861 0 0
0.701869 2.790362 0.61682 0 1 0 0 0
0.713097 2.790362 0.611809 0 1 0 0 0
0.70653 2.790362 0.608241 0 1 0 0 0
0.701869 2.790362 0.61682 -0 1 0 0 0
0.708436 2.790362 0.620388 -0 1 0 0 0
0.713097 2.790362 0.611809 -0 1 0 0 0
0.708436 2.790362 0.620388 0 1 0 0 0
0.697208 2.790362 0.6254 0 1 0 0 0
0.703775 2.790362 0.628967 0 1 0 0 0
0.708436 2.790362 0.620388 0 1 0 0 0
0.701869 2.790362 0.61682 0 1 0 0 0
0.697208 2.790362 0.6254 0 1 0 0 0
0.703775 2.790362 0.628967 0 1 0 0 0
0.692547 2.790362 0.633979 0 1 0 0 0
0.699114 2.790362 0.637547 0 1 0 0 0
0.703775 2.790362 0.628967 0 1 0 0 0
0.697208 2.790362 0.6254 0 1 0 0 0
0.692547 2.790362 0.633979 0 1 0 0 0
0.699114 2.790362 0.637547 0.8787123 0 0.477351752 0 0
0.703775 2.731864 0.628967 0.8787123 0 0.477351752 0 0
0.703775 2.790362 0.628967 0.8787123 0 0.477351752 0 0
0.699114 2.790362 0.637547 0.8787123 0 0.477351752 0 0
0.699114 2.738335 0.637547 0.8787123 0 0.477351752 0 0
0.703775 2.731864 0.628967 0.8787123 0 0.477351752 0 0
0.703775 2.790362 0.628967 0.87868896 0 0.477394713 0 0
0.708436 2.731864 0.620388 0.87868896 0 0.477394713 0 0
0.708436 2.790362 0.620388 0.87868896 0 0.477394713 0 0
0.703775 2.790362 0.628967 0.87868896 0 0.477394713 0 0
0.703775 2.731864 0.628967 0.87868896 0 0.477394713 0 0
0.708436 2.731864 0.620388 0.87868896 0 0.477394713 0 0
0.708436 2.790362 0.620388 0.87868896 0 0.477394713 0 0
0.713097 2.738335 0.611809 0.87868896 0 0.477394713 0 0
0.713097 2.790362 0.611809 0.87868896 0 0.477394713 0 0
0.708436 2.790362 0.620388 0.87868896 0 0.477394713 0 0
0.708436 2.731864 0.620388 0.87868896 0 0.477394713 0 0
0.713097 2.738335 0.611809 0.87868896 0 0.477394713 0 0
0.70653 2.790362 0.608241 -0.87868896 0 -0.477394713 0 0
0.701869 2.731864 0.61682 -0.87868896 0 -0.477394713 0 0
0.701869 2.790362 0.61682 -0.87868896 0 -0.477394713 0 0
0.70653 2.790362 0.608241 -0.87868896 -0 -0.477394713 0 0
0.70653 2.738335 0.608241 -0.87868896 -0 -0.477394713 0 0
0.701869 2.731864 0.61682 -0.87868896 -0 -0.477394713 0 0
0.701869 2.790362 0.61682 -0.8787123 0 -0.477351752 0 0
0.697208 2.731864 0.6254 -0.8787123 0 -0.477351752 0 0
0.697208 2.790362 0.6254 -0.8787123 0 -0.477351752 0 0
0.701869 2.790362 0.61682 -0.8787123 -0 -0.477351752 0 0
0.701869 2.731864 0.61682 -0.8787123 -0 -0.477351752 0 0
0.697208 2.731864 0.6254 -0.8787123 -0 -0.477351752 0 0
0.697208 2.790362 0.6254 -0.87868896 0 -0.477394713 0 0
0.692547 2.738335 0.633979 -0.87868896 0 -0.477394713 0 0
0.692547 2.790362 0.633979 -0.87868896 0 -0.477394713 0 0
0.697208 2.790362 0.6254 -0.87868896 -0 -0.477394713 0 0
0.697208 2.731864 0.6254 -0.87868896 -0 -0.477394713 0 0
0.692547 2.738335 0.633979 -0.87868896 -0 -0.477394713 0 0
0.699114 2.738335 0.637547 -0.263673111 -0.833565115 0.485433507 0 0
0.697208 2.731864 0.6254 -0.263673111 -0.833565115 0.485433507 0 0
0.703775 2.731864 0.628967 -0.263673111 -0.833565115 0.485433507 0 0
0.699114 2.738335 0.637547 -0.263746676 -0.833542221 0.485432854 0 0
0.692547 2.738335 0.633979 -0.263746676 -0.833542221 0.485432854 0 0
0.697208 2.731864 0.6254 -0.263746676 -0.833542221 0.485432854 0 0
0.703775 2.731864 0.628967 0 -1 -0 0 0
0.701869 2.731864 0.61682 0 -1 -0 0 0
0.708436 2.731864 0.620388 0 -1 -0 0 0
0.703775 2.731864 0.628967 0 -1 0 0 0
0.697208 2.731864 0.6254 0 -1 0 0 0
0.701869 2.731864 0.61682 0 -1 0 0 0
0.708436 2.731864 0.620388 0.263746676 -0.833542221 -0.485432854 0 0
0.70653 2.738335 0.608241 0.263746676 -0.833542221 -0.485432854 0 0
0.713097 2.738335 0.611809 0.263746676 -0.833542221 -0.485432854 0 0
0.708436 2.731864 0.620388 0.263746676 -0.833542221 -0.485432854 0 0
0.701869 2.731864 0.61682 0.263746676 -0.833542221 -0.485432854 0 0
0.70653 2.738335 0.608241 0.263746676 -0.833542221 -0.485432854 0 0
1.243067 2.790362 0.899744 0.477304462 0 -0.878737987 0 0
1.249634 2.738335 0.903311 0.477304462 0 -0.878737987 0 0
1.243067 2.738335 0.899744 0.477304462 0 -0.878737987 0 0
1.243067 2.790362 0.899744 0.477304462 0 -0.878737987 0 0
1.249634 2.790362 0.903311 0.477304462 0 -0.878737987 0 0
1.249634 2.738335 0.903311 0.477304462 0 -0.878737987 0 0
1.23565 2.790362 0.929049 -0.477407778 0 0.878681861 0 0
1.229083 2.738335 0.925481 -0.477407778 0 0.878681861 0 0
1.23565 2.738335 0.929049 -0.477407778 0 0.878681861 0 0
1.23565 2.790362 0.929049 -0.477407778 0 0.878681861 0 0
1.229083 2.790362 0.925481 -0.477407778 0 0.878681861 0 0
1.229083 2.738335 0.925481 -0.477407778 0 0.878681861 0 0
1.244972 2.790362 0.911891 0 1 0 0 0
1.243067 2.790362 0.899744 0 1 0 0 0
1.238405 2.790362 0.908323 0 1 0 0 0
1.244972 2.790362 0.911891 0 1 0 0 0
1.249634 2.790362 0.903311 0 1 0 0 0
1.243067 2.790362 0.899744 0 1 0 0 0
1.238405 2.790362 0.908323 0 1 0 0 0
1.240311 2.790362 0.92047 0 1 0 0 0
1.244972 2.790362 0.911891 0 1 0 0 0
1.238405 2.790362 0.908323 0 1 -0 0 0
1.233744 2.790362 0.916902 0 1 -0 0 0
1.240311 2.790362 0.92047 0 1 -0 0 0
1.233744 2.790362 0.916902 0 1 0 0 0
1.23565 2.790362 0.929049 0 1 0 0 0
1.240311 2.790362 0.92047 0 1 0 0 0
1.233744 2.790362 0.916902 0 1 -0 0 0
1.229083 2.790362 0.925481 0 1 -0 0 0
1.23565 2.790362 0.929049 0 1 -0 0 0
1.229083 2.790362 0.925481 -0.87868896 -0 -0.477394713 0 0
1.233744 2.731864 0.916902 -0.87868896 -0 -0.477394713 0 0
1.229083 2.738335 0.925481 -0.87868896 -0 -0.477394713 0 0
1.229083 2.790362 0.925481 -0.87868896 0 -0.477394713 0 0
1.233744 2.790362 0.916902 -0.87868896 0 -0.477394713 0 0
1.233744 2.731864 0.916902 -0.87868896 0 -0.477394713 0 0
1.233744 2.790362 0.916902 -0.87868896 -0 -0.477394713 0 0
1.238405 2.731864 0.908323 -0.87868896 -0 -0.477394713 0 0
1.233744 2.731864 0.916902 -0.87868896 -0 -0.477394713 0 0
1.233744 2.790362 0.916902 -0.87868896 0 -0.477394713 0 0
1.238405 2.790362 0.908323 -0.87868896 0 -0.477394713 0 0
1.238405 2.731864 0.908323 -0.87868896 0 -0.477394713 0 0
1.238405 2.790362 0.908323 -0.878645994 -0 -0.477473787 0 0
1.243067 2.738335 0.899744 -0.878645994 -0 -0.477473787 0 0
1.238405 2.731864 0.908323 -0.878645994 -0 -0.477473787 0 0
1.238405 2.790362 0.908323 -0.878645994 0 -0.477473787 0 0
1.243067 2.790362 0.899744 -0.878645994 0 -0.477473787 0 0
1.243067 2.738335 0.899744 -0.878645994 0 -0.477473787 0 0
1.249634 2.790362 0.903311 0.87866934 0 0.477430823 0 0
1.244972 2.731864 0.911891 0.87866934 0 0.477430823 0 0
1.249634 2.738335 0.903311 0.87866934 0 0.477430823 0 0
1.249634 2.790362 0.903311 0.87866934 0 0.477430823 0 0
1.244972 2.790362 0.911891 0.87866934 0 0.477430823 0 0
1.244972 2.731864 0.911891 0.87866934 0 0.477430823 0 0
1.244972 2.790362 0.911891 0.87868896 0 0.477394713 0 0
1.240311 2.731864 0.92047 0.87868896 0 0.477394713 0 0
1.244972 2.731864 0.911891 0.87868896 0 0.477394713 0 0
1.244972 2.790362 0.911891 0.87868896 0 0.477394713 0 0
1.240311 2.790362 0.92047 0.87868896 0 0.477394713 0 0
1.240311 2.731864 0.92047 0.87868896 0 0.477394713 0 0
1.240311 2.790362 0.92047 0.87868896 0 0.477394713 0 0
1.23565 2.738335 0.929049 0.87868896 0 0.477394713 0 0
1.240311 2.731864 0.92047 0.87868896 0 0.477394713 0 0
1.240311 2.790362 0.92047 0.87868896 0 0.477394713 0 0
1.23565 2.790362 0.929049 0.87868896 0 0.477394713 0 0
1.23565 2.738335 0.929049 0.87868896 0 0.477394713 0 0
1.229083 2.738335 0.925481 -0.263746676 -0.833542221 0.485432854 0 0
1.240311 2.731864 0.92047 -0.263746676 -0.833542221 0.485432854 0 0
1.23565 2.738335 0.929049 -0.263746676 -0.833542221 0.485432854 0 0
1.229083 2.738335 0.925481 -0.263746676 -0.833542221 0.485432854 0 0
1.233744 2.731864 0.916902 -0.263746676 -0.833542221 0.485432854 0 0
1.240311 2.731864 0.92047 -0.263746676 -0.833542221 0.485432854 0 0
1.233744 2.731864 0.916902 0 -1 0 0 0
1.244972 2.731864 0.911891 0 -1 0 0 0
1.240311 2.731864 0.92047 0 -1 0 0 0
1.233744 2.731864 0.916902 0 -1 0 0 0
1.238405 2.731864 0.908323 0 -1 0 0 0
1.244972 2.731864 0.911891 0 -1 0 0 0
1.238405 2.731864 0.908323 0.263721226 -0.833577552 -0.485386012 0 0
1.249634 2.738335 0.903311 0.263721226 -0.833577552 -0.485386012 0 0
1.244972 2.731864 0.911891 0.263721226 -0.833577552 -0.485386012 0 0
1.238405 2.731864 0.908323 0.263680643 -0.833554656 -0.485447374 0 0
1.243067 2.738335 0.899744 0.263680643 -0.833554656 -0.485447374 0 0
1.249634 2.738335 0.903311 0.263680643 -0.833554656 -0.485447374 0 0
3 0 1 2
3 3 4 5
3 6 7 8
3 9 10 11
3 12 13 14
3 15 16 17
3 18 19 20
3 21 22 23
3 24 25 26
3 27 28 29
3 30 31 32
3 33 34 35
3 36 37 38
3 39 40 41
3 42 43 44
3 45 46 47
3 48 49 50
3 51 52 53
3 54 55 56
3 57 58 59
3 60 61 62
3 63 64 65
3 66 67 68
3 69 70 71
3 72 73 74
3 75 76 77
3 78 79 80
3 81 82 83
3 84 85 86
3 87 88 89
3 90 91 92
3 93 94 95
3 96 97 98
3 99 100 101
3 102 103 104
3 105 106 107
3 108 109 110
3 111 112 113
3 114 115 116
3 117 118 119
3 120 121 122
3 123 124 125
3 126 127 128
3 129 130 131
3 132 133 134
3 135 136 137
3 138 139 140
3 141 142 143
3 144 145 146
3 147 148 149
3 150 151 152
3 153 154 155
3 156 157 158
3 159 160 161
3 162 163 164
3 165 166 167
