ply
format ascii 1.0
element vertex 84
property float x
property float y
property float z
property float nx
property float ny
property float nz
property float u
property float v
element face 28
property list uchar int vertex_indices
end_header
0.997804 2.401414 0.756477 0 1 0 0 0
0.966074 2.401414 0.738314 0 1 0 0 0
0.965686 2.401414 0.739027 0 1 0 0 0
0.997804 2.401414 0.756477 0 1 0 0 0
0.998192 2.401414 0.755764 0 1 0 0 0
0.966074 2.401414 0.738314 0 1 0 0 0
0.96578 2.37858 0.738855 -0.255919183 -0.844173333 0.471037955 0 0
0.998192 2.378189 0.755764 -0.255919183 -0.844173333 0.471037955 0 0
0.997898 2.37858 0.756305 -0.255919183 -0.844173333 0.471037955 0 0
0.96578 2.37858 0.738855 -0.255919183 -0.844173333 0.471037955 0 0
0.966074 2.378189 0.738314 -0.255919183 -0.844173333 0.471037955 0 0
0.998192 2.378189 0.755764 -0.255919183 -0.844173333 0.471037955 0 0
0.965686 2.379598 0.739027 -0.477398534 0 0.878686884 0 0
0.997804 2.401414 0.756477 -0.477398534 0 0.878686884 0 0
0.965686 2.401414 0.739027 -0.477398534 0 0.878686884 0 0
0.965686 2.379598 0.739027 -0.477398534 0 0.878686884 0 0
0.997804 2.379598 0.756477 -0.477398534 0 0.878686884 0 0
0.997804 2.401414 0.756477 -0.477398534 0 0.878686884 0 0
0.997804 2.379598 0.756477 -0.468787898 -0.189070986 0.862838379 0 0
0.96578 2.37858 0.738855 -0.468787898 -0.189070986 0.862838379 0 0
0.997898 2.37858 0.756305 -0.468787898 -0.189070986 0.862838379 0 0
0.997804 2.379598 0.756477 -0.468787898 -0.189070986 0.862838379 0 0
0.965686 2.379598 0.739027 -0.468787898 -0.189070986 0.862838379 0 0
0.96578 2.37858 0.738855 -0.468787898 -0.189070986 0.862838379 0 0
0.997898 2.37858 0.756305 0.878365897 0.000346102065 0.477988735 0 0
0.998192 2.379598 0.755764 0.878365897 0.000346102065 0.477988735 0 0
0.997804 2.379598 0.756477 0.878365897 0.000346102065 0.477988735 0 0
0.997898 2.37858 0.756305 0.878639322 0 0.477486064 0 0
0.998192 2.378189 0.755764 0.878639322 0 0.477486064 0 0
0.998192 2.379598 0.755764 0.878639322 0 0.477486064 0 0
0.997804 2.379598 0.756477 0.87836595 -0 0.477988764 0 0
0.998192 2.401414 0.755764 0.87836595 -0 0.477988764 0 0
0.997804 2.401414 0.756477 0.87836595 -0 0.477988764 0 0
0.997804 2.379598 0.756477 0.87836595 0 0.477988764 0 0
0.998192 2.379598 0.755764 0.87836595 0 0.477988764 0 0
0.998192 2.401414 0.755764 0.87836595 0 0.477988764 0 0
0.965686 2.401414 0.739027 -0.87836595 -0 -0.477988764 0 0
0.966074 2.379598 0.738314 -0.87836595 -0 -0.477988764 0 0
0.965686 2.379598 0.739027 -0.87836595 -0 -0.477988764 0 0
0.965686 2.401414 0.739027 -0.87836595 0 -0.477988764 0 0
0.966074 2.401414 0.738314 -0.87836595 0 -0.477988764 0 0
0.966074 2.379598 0.738314 -0.87836595 0 -0.477988764 0 0
0.965686 2.379598 0.739027 -0.878796779 -0.000519841069 -0.477195925 0 0
0.966074 2.378189 0.738314 -0.878796779 -0.000519841069 -0.477195925 0 0
0.96578 2.37858 0.738855 -0.878796779 -0.000519841069 -0.477195925 0 0
0.965686 2.379598 0.739027 -0.87836595 0 -0.477988764 0 0
0.966074 2.379598 0.738314 -0.87836595 0 -0.477988764 0 0
0.966074 2.378189 0.738314 -0.87836595 0 -0.477988764 0 0
0.998192 2.379598 0.755764 0.477398534 0 -0.878686884 0 0
0.966074 2.401414 0.738314 0.477398534 0 -0.878686884 0 0
0.998192 2.401414 0.755764 0.477398534 0 -0.878686884 0 0
0.998192 2.379598 0.755764 0.477398534 0 -0.878686884 0 0
0.966074 2.379598 0.738314 0.477398534 0 -0.878686884 0 0
0.966074 2.401414 0.738314 0.477398534 0 -0.878686884 0 0
0.998192 2.379598 0.755764 0 1 0 0 0
0.967817 2.379598 0.735104 0 1 0 0 0
0.966074 2.379598 0.738314 0 1 0 0 0
0.998192 2.379598 0.755764 0 1 0 0 0
0.999935 2.379598 0.752554 0 1 0 0 0
0.967817 2.379598 0.735104 0 1 0 0 0
0.966074 2.379598 0.738314 -0.878804231 -0 -0.477182484 0 0
0.967817 2.378189 0.735104 -0.878804231 -0 -0.477182484 0 0
0.966074 2.378189 0.738314 -0.878804231 -0 -0.477182484 0 0
0.966074 2.379598 0.738314 -0.878804231 0 -0.477182484 0 0
0.967817 2.379598 0.735104 -0.878804231 0 -0.477182484 0 0
0.967817 2.378189 0.735104 -0.878804231 0 -0.477182484 0 0
0.998192 2.378189 0.755764 0.878804231 -0 0.477182484 0 0
0.999935 2.379598 0.752554 0.878804231 -0 0.477182484 0 0
0.998192 2.379598 0.755764 0.878804231 -0 0.477182484 0 0
0.998192 2.378189 0.755764 0.878804231 0 0.477182484 0 0
0.999935 2.378189 0.752554 0.878804231 0 0.477182484 0 0
0.999935 2.379598 0.752554 0.878804231 0 0.477182484 0 0
0.966074 2.378189 0.738314 0 -1 0 0 0
0.999935 2.378189 0.752554 0 -1 0 0 0
0.998192 2.378189 0.755764 0 -1 0 0 0
0.966074 2.378189 0.738314 0 -1 0 0 0
0.967817 2.378189 0.735104 0 -1 0 0 0
0.999935 2.378189 0.752554 0 -1 0 0 0
0.999935 2.378189 0.752554 0.477398534 0 -0.878686884 0 0
0.967817 2.379598 0.735104 0.477398534 0 -0.878686884 0 0
0.999935 2.379598 0.752554 0.477398534 0 -0.878686884 0 0
0.999935 2.378189 0.752554 0.477398534 0 -0.878686884 0 0
0.967817 2.378189 0.735104 0.477398534 0 -0.878686884 0 0
0.967817 2.379598 0.735104 0.477398534 0 -0.878686884 0 0
3 0 1 2
3 3 4 5
3 6 7 8
3 9 10 11
3 12 13 14
3 15 16 17
3 18 19 20
3 21 22 23
3 24 25 26
3 27 28 29
3 30 31 32
3 33 34 35
3 36 37 38
3 39 40 41
3 42 43 44
3 45 46 47
3 48 49 50
3 51 52 53
3 54 55 56
3 57 58 59
3 60 61 62
3 63 64 65
3 66 67 68
3 69 70 71
3 72 73 74
3 75 76 77
3 78 79 80
3 81 82 83
