ply
format ascii 1.0
element vertex 16
property float x
property float y
property float z
property float nx
property float ny
property float nz
property float u
property float v
element face 12
property list uchar int vertex_indices
end_header
0.983803 2.377358 0.745522 0.85277223 0 -0.522282992 0 0
0.983354 2.059414 0.74479 0.85277223 0 -0.522282992 0 0
0.983354 2.377358 0.74479 0.85277223 0 -0.522282992 0 0
0.983803 2.059414 0.745522 0.85277223 0 -0.522282992 0 0
0.983803 2.377358 0.745522 -0.878689258 0 -0.477394164 0 0
0.983393 2.059414 0.746277 -0.522210267 0 -0.852816767 0 0
0.983393 2.377358 0.746277 -0.522210267 0 -0.852816767 0 0
0.983803 2.059414 0.745522 -0.878689258 0 -0.477394164 0 0
0.982534 2.059414 0.746299 0.477394164 0 -0.878689258 0 0
0.982534 2.377358 0.746299 0.477394164 0 -0.878689258 0 0
0.982086 2.059414 0.745567 0.999664563 0 -0.0258990819 0 0
0.982086 2.377358 0.745567 0.999664563 0 -0.0258990819 0 0
0.982496 2.059414 0.744812 0.522210267 0 0.852816767 0 0
0.982496 2.377358 0.744812 0.522210267 0 0.852816767 0 0
0.983354 2.059414 0.74479 0.0258990819 0 0.999664563 0 0
0.983354 2.377358 0.74479 0.0258990819 0 0.999664563 0 0
3 0 1 2
3 0 3 1
3 4 5 6
3 4 7 5
3 6 8 9
3 6 5 8
3 9 10 11
3 9 8 10
3 11 12 13
3 11 10 12
3 13 14 15
3 13 12 14
