ply
format ascii 1.0
element vertex 252
property float x
property float y
property float z
property float nx
property float ny
property float nz
property float u
property float v
element face 480
property list uchar int vertex_indices
end_header
0.982872 2.059445 0.742745 -0.00110002791 0.999125348 -0.0418010605 0 0
0.982015 2.059445 0.744027 0 1 0 0 0
0.982899 2.059445 0.743784 0 0.999999995 9.99999995e-05 0 0
0.981467 2.059445 0.743132 -0.0221000836 0.999103782 -0.0361001366 0 0
0.98105 2.059387 0.742452 -0.173701602 0.9431087 -0.283502615 0 0
0.982851 2.059387 0.741956 -0.0085003027 0.94383361 -0.330311763 0 0
0.984676 2.059387 0.742358 0.158704308 0.943125602 -0.292107929 0 0
0.984295 2.059445 0.743059 0.0202000738 0.999103652 -0.037200136 0 0
0.983794 2.059445 0.743981 0 0.999999995 9.99999995e-05 0 0
0.980484 2.059445 0.744208 -0.0368008271 0.999122456 -0.0200004495 0 0
0.981397 2.059445 0.744704 0 1 0 0 0
0.981166 2.059445 0.745591 0 1 0 0 0
0.980116 2.059445 0.745618 -0.0424000047 0.99910011 0.00110000012 0 0
0.979319 2.059387 0.745638 -0.332399491 0.943098557 0.00869998669 0 0
0.97979 2.059387 0.743831 -0.290323404 0.943876089 -0.157512698 0 0
0.980557 2.059445 0.747007 -0.0357008049 0.999122525 0.0219004938 0 0
0.981443 2.059445 0.746464 0 1 0 0 0
0.982095 2.059445 0.747108 0 0.999999995 -9.99999995e-05 0 0
0.981594 2.059445 0.74803 -0.0202000738 0.999103652 0.037200136 0 0
0.981213 2.059387 0.748731 -0.158704308 0.943125602 0.292107929 0 0
0.979883 2.059387 0.747419 -0.28171351 0.943845263 0.172608278 0 0
0.983017 2.059445 0.748343 0.00110002791 0.999125348 0.0418010605 0 0
0.983874 2.059445 0.747062 0 1 0 0 0
0.98299 2.059445 0.747305 0 0.999999995 -9.99999995e-05 0 0
0.984422 2.059445 0.747957 0.0221000836 0.999103782 0.0361001366 0 0
0.984838 2.059387 0.748637 0.173701602 0.9431087 0.283502615 0 0
0.983037 2.059387 0.749133 0.0085003027 0.94383361 0.330311763 0 0
0.985405 2.059445 0.746881 0.0368008271 0.999122456 0.0200004495 0 0
0.984492 2.059445 0.746385 0 1 0 0 0
0.984723 2.059445 0.745498 0 1 0 0 0
0.985772 2.059445 0.745471 0.0424000047 0.99910011 -0.00110000012 0 0
0.98657 2.059387 0.74545 0.332399491 0.943098557 -0.00869998669 0 0
0.986098 2.059387 0.747258 0.290318829 0.943861216 0.157610222 0 0
0.985332 2.059445 0.744082 0.0357008049 0.999122525 -0.0219004938 0 0
0.984446 2.059445 0.744625 0 1 0 0 0
0.986005 2.059387 0.74367 0.28171351 0.943845263 -0.172608278 0 0
0.990255 2.023264 0.741067 0.000299999981 -0.999999935 -0.000199999987 0 0
0.992622 2.02329 0.745294 0.142498291 -0.989788133 -0.00369995564 0 0
0.991603 2.023264 0.74532 0.00109999933 -0.999999395 0 0 0
0.991116 2.02329 0.74054 0.120703229 -0.989926481 -0.0740019796 0 0
0.987566 2.02329 0.737038 0.0680985788 -0.989779344 -0.125297385 0 0
0.987079 2.023264 0.737934 0.000499999688 -0.999999375 -0.000999999375 0 0
0.986592 2.023299 0.73883 -0.0677004891 -0.989907152 0.1245009 0 0
0.989394 2.023299 0.741595 -0.124902897 -0.989222945 0.0764017722 0 0
0.990583 2.023299 0.745346 -0.141798374 -0.989888646 0.00369995756 0 0
0.990477 2.023264 0.749637 0.000299999981 -0.999999935 0.000199999987 0 0
0.988001 2.02329 0.7538 0.0743990343 -0.989787153 0.121598422 0 0
0.987468 2.023264 0.75293 0.000499999688 -0.999999375 0.000999999375 0 0
0.991364 2.02329 0.750119 0.124403289 -0.989926169 0.0676017871 0 0
0.98959 2.023299 0.749155 -0.128603819 -0.989229376 -0.0699020758 0 0
0.986935 2.023299 0.75206 -0.0740001917 -0.989902564 -0.120900313 0 0
0.983166 2.023264 0.754114 0 -0.99999992 0.000399999968 0 0
0.983193 2.02329 0.755123 0.0037001148 -0.989930713 0.14150439 0 0
0.98314 2.023299 0.753104 -0.00380012394 -0.989232264 -0.146304772 0 0
0.979297 2.023299 0.752258 0.0677004891 -0.989907152 -0.1245009 0 0
0.97881 2.023264 0.753155 -0.000499999688 -0.999999375 0.000999999375 0 0
0.978323 2.02329 0.754051 -0.0680985788 -0.989779344 0.125297385 0 0
0.975634 2.023264 0.750021 -0.000299999981 -0.999999935 0.000199999987 0 0
0.973266 2.02329 0.745795 -0.142498291 -0.989788133 0.00369995564 0 0
0.974286 2.023264 0.745769 -0.00109999933 -0.999999395 0 0 0
0.974773 2.02329 0.750549 -0.120703229 -0.989926481 0.0740019796 0 0
0.976495 2.023299 0.749494 0.124902897 -0.989222945 -0.0764017722 0 0
0.975306 2.023299 0.745742 0.141798374 -0.989888646 -0.00369995756 0 0
0.975412 2.023264 0.741452 -0.000299999981 -0.999999935 -0.000199999987 0 0
0.977888 2.02329 0.737288 -0.0743990343 -0.989787153 -0.121598422 0 0
0.978421 2.023264 0.738158 -0.000499999688 -0.999999375 -0.000999999375 0 0
0.974525 2.02329 0.74097 -0.124403289 -0.989926169 -0.0676017871 0 0
0.976299 2.023299 0.741934 0.128603819 -0.989229376 0.0699020758 0 0
0.978954 2.023299 0.739028 0.0740001917 -0.989902564 0.120900313 0 0
0.982722 2.023264 0.736975 0 -0.99999992 -0.000399999968 0 0
0.982696 2.02329 0.735966 -0.0037001148 -0.989930713 -0.14150439 0 0
0.982748 2.023299 0.737984 0.00380012394 -0.989232264 0.146304772 0 0
0.98832 2.031166 0.742252 -0.84281778 -0.152603219 0.516110887 0 0
0.99001 2.026574 0.745361 -0.991298518 -0.129099807 0.0256999616 0 0
0.989311 2.031166 0.745379 -0.987722985 -0.154103586 0.0256005957 0 0
0.98891 2.026574 0.741891 -0.845774606 -0.12789616 0.517984448 0 0
0.986319 2.026574 0.739334 -0.473414662 -0.129103998 0.871326985 0 0
0.985985 2.031166 0.739948 -0.471695533 -0.154098541 0.868191778 0 0
0.98554 2.036988 0.740767 -0.471420809 -0.158006975 0.867638298 0 0
0.987534 2.036988 0.742734 -0.842308469 -0.156401573 0.515805186 0 0
0.98838 2.036988 0.745404 -0.987107023 -0.158001124 0.0256001821 0 0
0.988483 2.031166 0.748554 -0.868399757 -0.152599957 -0.471799868 0 0
0.986636 2.026574 0.751572 -0.517919013 -0.12910474 -0.845631044 0 0
0.986271 2.031166 0.750976 -0.516005787 -0.154101728 -0.84260945 0 0
0.989091 2.026574 0.748884 -0.871479372 -0.127796975 -0.473488793 0 0
0.987673 2.036988 0.748114 -0.86788975 -0.156398153 -0.471494432 0 0
0.985784 2.036988 0.750181 -0.515688939 -0.157996611 -0.842081937 0 0
0.983108 2.031166 0.751846 -0.0256014269 -0.152608506 -0.987955065 0 0
0.983126 2.026574 0.752537 -0.0256991573 -0.12779581 -0.99146749 0 0
0.983084 2.036988 0.750924 -0.025599039 -0.156394129 -0.987362935 0 0
0.980349 2.036988 0.750322 0.471379908 -0.157993266 -0.867663017 0 0
0.979904 2.031166 0.751141 0.471695533 -0.154098541 -0.868191778 0 0
0.97957 2.026574 0.751755 0.473414662 -0.129103998 -0.871326985 0 0
0.977569 2.031166 0.748837 0.84281778 -0.152603219 -0.516110887 0 0
0.975879 2.026574 0.745728 0.991298518 -0.129099807 -0.0256999616 0 0
0.976577 2.031166 0.745709 0.987722985 -0.154103586 -0.0256005957 0 0
0.976979 2.026574 0.749198 0.845785419 -0.127797797 -0.51799107 0 0
0.978355 2.036988 0.748355 0.842308469 -0.156401573 -0.515805186 0 0
0.977509 2.036988 0.745685 0.987107023 -0.158001124 -0.0256001821 0 0
0.977405 2.031166 0.742535 0.868399757 -0.152599957 0.471799868 0 0
0.979253 2.026574 0.739517 0.517919013 -0.12910474 0.845631044 0 0
0.979618 2.031166 0.740113 0.516005787 -0.154101728 0.84260945 0 0
0.976798 2.026574 0.742205 0.871479372 -0.127796975 0.473488793 0 0
0.978216 2.036988 0.742975 0.86788975 -0.156398153 0.471494432 0 0
0.980105 2.036988 0.740908 0.515688939 -0.157996611 0.842081937 0 0
0.982781 2.031166 0.739243 0.0256014269 -0.152608506 0.987955065 0 0
0.982763 2.026574 0.738551 0.0256991573 -0.12779581 0.99146749 0 0
0.982805 2.036988 0.740165 0.025599039 -0.156394129 0.987362935 0 0
0.986253 2.059215 0.743518 0.716726114 0.541819742 -0.439015996 0 0
0.984816 2.059215 0.7421 0.401713829 0.540118594 -0.739525459 0 0
0.985188 2.054881 0.741414 0.469793806 0.177297662 -0.864788598 0 0
0.986912 2.054881 0.743115 0.839559061 0.175512347 -0.514136168 0 0
0.987643 2.054881 0.745423 0.98382559 0.177304612 -0.0255006633 0 0
0.986863 2.059215 0.745443 0.841311227 0.540107208 -0.0219002923 0 0
0.986353 2.059215 0.747397 0.73861536 0.541811267 0.401108341 0 0
0.987032 2.054881 0.747765 0.865032331 0.17550656 0.470017567 0 0
0.985399 2.054881 0.749553 0.513985665 0.177295055 0.839276593 0 0
0.984992 2.059215 0.748887 0.439620678 0.540125405 0.717633755 0 0
0.983045 2.059215 0.749423 0.0218016333 0.541740586 0.840262951 0 0
0.981073 2.059215 0.748989 -0.401743539 0.54015854 0.739480142 0 0
0.983065 2.054881 0.750195 0.0255012329 0.175508485 0.98414758 0 0
0.9807 2.054881 0.749675 -0.469793806 0.177297662 0.864788598 0 0
0.979636 2.059215 0.747571 -0.716726114 0.541819742 0.439015996 0 0
0.978977 2.054881 0.747974 -0.839559061 0.175512347 0.514136168 0 0
0.978245 2.054881 0.745666 -0.98382559 0.177304612 0.0255006633 0 0
0.979026 2.059215 0.745646 -0.841311227 0.540107208 0.0219002923 0 0
0.979535 2.059215 0.743692 -0.738529885 0.541921929 -0.401116231 0 0
0.978856 2.054881 0.743323 -0.865032331 0.17550656 -0.470017567 0 0
0.980489 2.054881 0.741536 -0.513985665 0.177295055 -0.839276593 0 0
0.980897 2.059215 0.742202 -0.439620678 0.540125405 -0.717633755 0 0
0.982844 2.059215 0.741666 -0.0218016333 0.541740586 -0.840262951 0 0
0.982824 2.054881 0.740894 -0.0255012329 0.175508485 -0.98414758 0 0
0.988819 2.042338 0.741947 0.839559061 0.175512347 -0.514136168 0 0
0.986267 2.042338 0.739429 0.469834435 0.177312996 -0.864763381 0 0
0.987345 2.029809 0.737445 0.469834435 0.177312996 -0.864763381 0 0
0.990724 2.029809 0.74078 0.839559061 0.175512347 -0.514136168 0 0
0.992158 2.029809 0.745306 0.98382559 0.177304612 -0.0255006633 0 0
0.989902 2.042338 0.745364 0.98382559 0.177304612 -0.0255006633 0 0
0.991376 2.025517 0.74038 0.84677078 0.118709923 -0.518543344 0 0
0.987714 2.025517 0.736766 0.474021004 0.119705304 -0.872338654 0 0
0.987725 2.025153 0.736746 0.477008343 0.0371006489 -0.878115358 0 0
0.991396 2.025153 0.740368 0.852212212 0.0367005259 -0.521907479 0 0
0.992955 2.025153 0.745285 0.998979616 0.036999245 -0.0258994715 0 0
0.992931 2.025517 0.745286 0.992489629 0.11959875 -0.0256997314 0 0
0.988997 2.042338 0.748833 0.865032331 0.17550656 0.470017567 0 0
0.99096 2.029809 0.7499 0.865032331 0.17550656 0.470017567 0 0
0.987758 2.029809 0.753405 0.513985665 0.177295055 0.839276593 0 0
0.986579 2.042338 0.75148 0.513985665 0.177295055 0.839276593 0 0
0.991633 2.025517 0.750265 0.87246655 0.118709055 0.474036158 0 0
0.991653 2.025153 0.750276 0.878086429 0.0366994328 0.477092627 0 0
0.988174 2.025153 0.754084 0.521897837 0.0371998458 0.852196468 0 0
0.988162 2.025517 0.754064 0.518408414 0.119701943 0.846713742 0 0
0.983123 2.042338 0.752431 0.0255012329 0.175508485 0.98414758 0 0
0.979622 2.042338 0.75166 -0.469834435 0.177312996 0.864763381 0 0
0.983181 2.029809 0.754664 0.0255012329 0.175508485 0.98414758 0 0
0.978544 2.029809 0.753643 -0.469834435 0.177312996 0.864763381 0 0
0.983201 2.025517 0.755429 0.0256999365 0.118699707 0.992597548 0 0
0.978175 2.025517 0.754323 -0.474021004 0.119705304 0.872338654 0 0
0.983201 2.025153 0.755452 0.0258996627 0.0367995207 0.998986988 0 0
0.978164 2.025153 0.754343 -0.477008343 0.0371006489 0.878115358 0 0
0.97707 2.042338 0.749142 -0.839559061 0.175512347 0.514136168 0 0
0.975165 2.029809 0.750309 -0.839559061 0.175512347 0.514136168 0 0
0.97373 2.029809 0.745783 -0.98382559 0.177304612 0.0255006633 0 0
0.975987 2.042338 0.745725 -0.98382559 0.177304612 0.0255006633 0 0
0.974512 2.025517 0.750709 -0.84677078 0.118709923 0.518543344 0 0
0.974493 2.025153 0.750721 -0.85220908 0.0368003921 0.521905561 0 0
0.972934 2.025153 0.745804 -0.998972204 0.037198965 0.0258992794 0 0
0.972957 2.025517 0.745803 -0.99246587 0.11979588 0.0256991162 0 0
0.976891 2.042338 0.742256 -0.865032331 0.17550656 -0.470017567 0 0
0.974928 2.029809 0.741189 -0.865032331 0.17550656 -0.470017567 0 0
0.978131 2.029809 0.737684 -0.513985665 0.177295055 -0.839276593 0 0
0.979309 2.042338 0.739609 -0.513985665 0.177295055 -0.839276593 0 0
0.974256 2.025517 0.740824 -0.87246655 0.118709055 -0.474036158 0 0
0.974236 2.025153 0.740813 -0.878083202 0.036799296 -0.477090873 0 0
0.977715 2.025153 0.737005 -0.521899776 0.037099984 -0.852199633 0 0
0.977727 2.025517 0.737025 -0.518408414 0.119701943 -0.846713742 0 0
0.982766 2.042338 0.738658 -0.0255012329 0.175508485 -0.98414758 0 0
0.982708 2.029809 0.736425 -0.0255012329 0.175508485 -0.98414758 0 0
0.982688 2.025517 0.73566 -0.0256999365 0.118699707 -0.992597548 0 0
0.982688 2.025153 0.735637 -0.0258996627 0.0367995207 -0.998986988 0 0
0.982687 2.024408 0.735629 -0.0259013209 0.00520026519 -0.999650979 0 0
0.987729 2.024408 0.736739 0.47738771 0.00519986613 -0.878677379 0 0
0.97771 2.024408 0.736998 -0.52232047 0.0052002038 -0.852733419 0 0
0.97771 2.02368 0.736998 -0.522327533 0 -0.852744949 0 0
0.982687 2.02368 0.735629 -0.0258990819 0 -0.999664563 0 0
0.987729 2.02368 0.736739 0.477394164 0 -0.878689258 0 0
0.982687 2.023368 0.735629 -0.0211017028 -0.579546766 -0.814665738 0 0
0.987729 2.023368 0.736739 0.39081219 -0.574317913 -0.719322436 0 0
0.97771 2.023368 0.736998 -0.427598747 -0.574298317 -0.698097955 0 0
0.974229 2.024408 0.740809 -0.878719776 0.00510011478 -0.477310742 0 0
0.972926 2.024408 0.745804 -0.999650979 0.00520026519 0.0259013209 0 0
0.972926 2.02368 0.745804 -0.999667146 0 0.0257991521 0 0
0.974229 2.02368 0.740809 -0.878689258 0 -0.477394164 0 0
0.974229 2.023368 0.740809 -0.716093459 -0.579494706 -0.389096446 0 0
0.972926 2.023368 0.745804 -0.818381889 -0.574287291 0.0210995331 0 0
0.974486 2.024408 0.750725 -0.852733858 0.00510020251 0.522320739 0 0
0.97816 2.024408 0.75435 -0.47738771 0.00519986613 0.878677379 0 0
0.97816 2.02368 0.75435 -0.477394164 0 0.878689258 0 0
0.974486 2.02368 0.750725 -0.852816767 0 0.522210267 0 0
0.974486 2.023368 0.750725 -0.695006738 -0.579505618 0.425604126 0 0
0.97816 2.023368 0.75435 -0.39081219 -0.574317913 0.719322436 0 0
0.983201 2.024408 0.75546 0.0259013209 0.00520026519 0.999650979 0 0
0.988178 2.024408 0.75409 0.52232047 0.0052002038 0.852733419 0 0
0.988178 2.02368 0.75409 0.522327533 0 0.852744949 0 0
0.983201 2.02368 0.75546 0.0258990819 0 0.999664563 0 0
0.983201 2.023368 0.75546 0.0211004797 -0.579613178 0.814618521 0 0
0.988178 2.023368 0.75409 0.427598747 -0.574298317 0.698097955 0 0
0.99166 2.024408 0.75028 0.878719323 0.00520011435 0.477310496 0 0
0.992962 2.024408 0.745285 0.999650979 0.00520026519 -0.0259013209 0 0
0.992962 2.02368 0.745285 0.999667146 0 -0.0257991521 0 0
0.99166 2.02368 0.75028 0.878689258 0 0.477394164 0 0
0.99166 2.023368 0.75028 0.716093459 -0.579494706 0.389096446 0 0
0.992962 2.023368 0.745285 0.818381889 -0.574287291 -0.0210995331 0 0
0.991403 2.024408 0.740364 0.852733419 0.0052002038 -0.52232047 0 0
0.991403 2.02368 0.740364 0.852816767 0 -0.522210267 0 0
0.991403 2.023368 0.740364 0.695006738 -0.579505618 -0.425604126 0 0
0.982757 2.023403 0.738321 0.0199010139 -0.640932653 0.767339093 0 0
0.98643 2.023403 0.739129 -0.362591224 -0.650584253 0.667283849 0 0
0.979131 2.023403 0.739318 0.396634308 -0.650456264 0.64775603 0 0
0.979131 2.023732 0.739318 0.522210267 0 0.852816767 0 0
0.982757 2.023732 0.738321 0.0259016711 0 0.999664495 0 0
0.98643 2.023732 0.739129 -0.477394164 0 0.878689258 0 0
0.982757 2.024442 0.738321 0.0259009634 -0.0534019863 0.99823713 0 0
0.98643 2.024442 0.739129 -0.476705039 -0.0539005697 0.877409274 0 0
0.979131 2.024442 0.739318 0.521520937 -0.0539021639 0.851534186 0 0
0.976595 2.023403 0.742095 0.674516182 -0.640915376 0.36640879 0 0
0.975646 2.023403 0.745734 0.75932098 -0.650417971 -0.0197005443 0 0
0.975646 2.023732 0.745734 0.999664495 0 -0.0259016711 0 0
0.976595 2.023732 0.742095 0.878689258 0 0.477394164 0 0
0.976595 2.024442 0.742095 0.877432812 -0.053401997 0.476717827 0 0
0.975646 2.024442 0.745734 0.998212932 -0.0539006983 -0.0258003342 0 0
0.976782 2.023403 0.749318 0.654634497 -0.640933775 -0.400821122 0 0
0.979459 2.023403 0.75196 0.362591224 -0.650584253 -0.667283849 0 0
0.979459 2.023732 0.75196 0.477394164 0 -0.878689258 0 0
0.976782 2.023732 0.749318 0.852744949 0 -0.522327533 0 0
0.976782 2.024442 0.749318 0.851584514 -0.0533990289 -0.521490517 0 0
0.979459 2.024442 0.75196 0.476705039 -0.0539005697 -0.877409274 0 0
0.983132 2.023403 0.752768 -0.0199010139 -0.640932653 -0.767339093 0 0
0.986757 2.023403 0.75177 -0.396634308 -0.650456264 -0.64775603 0 0
0.986757 2.023732 0.75177 -0.522210267 0 -0.852816767 0 0
0.983132 2.023732 0.752768 -0.0259016711 0 -0.999664495 0 0
0.983132 2.024442 0.752768 -0.0259009634 -0.0534019863 -0.99823713 0 0
0.986757 2.024442 0.75177 -0.521520937 -0.0539021639 -0.851534186 0 0
0.989294 2.023403 0.748994 -0.674472951 -0.640974294 -0.366385306 0 0
0.990243 2.023403 0.745355 -0.75932098 -0.650417971 0.0197005443 0 0
0.990243 2.023732 0.745355 -0.999664495 0 0.0259016711 0 0
0.989294 2.023732 0.748994 -0.878689258 0 -0.477394164 0 0
0.989294 2.024442 0.748994 -0.877432812 -0.053401997 -0.476717827 0 0
0.990243 2.024442 0.745355 -0.998212932 -0.0539006983 0.0258003342 0 0
0.989107 2.023403 0.741771 -0.654634497 -0.640933775 0.400821122 0 0
0.989107 2.023732 0.741771 -0.852744949 0 0.522327533 0 0
0.989107 2.024442 0.741771 -0.851584514 -0.0533990289 0.521490517 0 0
3 0 1 2
3 0 3 1
3 0 4 3
3 0 5 4
3 0 6 5
3 0 7 6
3 0 8 7
3 0 2 8
3 9 1 3
3 9 10 1
3 9 11 10
3 9 12 11
3 9 13 12
3 9 14 13
3 9 4 14
3 9 3 4
3 15 11 12
3 15 16 11
3 15 17 16
3 15 18 17
3 15 19 18
3 15 20 19
3 15 13 20
3 15 12 13
3 21 22 23
3 21 24 22
3 21 25 24
3 21 26 25
3 21 19 26
3 21 18 19
3 21 17 18
3 21 23 17
3 27 22 24
3 27 28 22
3 27 29 28
3 27 30 29
3 27 31 30
3 27 32 31
3 27 25 32
3 27 24 25
3 33 29 30
3 33 34 29
3 33 8 34
3 33 7 8
3 33 6 7
3 33 35 6
3 33 31 35
3 33 30 31
3 36 37 38
3 36 39 37
3 36 40 39
3 36 41 40
3 36 42 41
3 36 43 42
3 36 44 43
3 36 38 44
3 45 46 47
3 45 48 46
3 45 37 48
3 45 38 37
3 45 44 38
3 45 49 44
3 45 50 49
3 45 47 50
3 51 46 52
3 51 47 46
3 51 50 47
3 51 53 50
3 51 54 53
3 51 55 54
3 51 56 55
3 51 52 56
3 57 58 59
3 57 60 58
3 57 56 60
3 57 55 56
3 57 54 55
3 57 61 54
3 57 62 61
3 57 59 62
3 63 64 65
3 63 66 64
3 63 58 66
3 63 59 58
3 63 62 59
3 63 67 62
3 63 68 67
3 63 65 68
3 69 64 70
3 69 65 64
3 69 68 65
3 69 71 68
3 69 42 71
3 69 41 42
3 69 40 41
3 69 70 40
3 72 73 74
3 72 75 73
3 72 76 75
3 72 77 76
3 72 78 77
3 72 79 78
3 72 80 79
3 72 74 80
3 81 82 83
3 81 84 82
3 81 73 84
3 81 74 73
3 81 80 74
3 81 85 80
3 81 86 85
3 81 83 86
3 87 82 88
3 87 83 82
3 87 86 83
3 87 89 86
3 87 90 89
3 87 91 90
3 87 92 91
3 87 88 92
3 93 94 95
3 93 96 94
3 93 92 96
3 93 91 92
3 93 90 91
3 93 97 90
3 93 98 97
3 93 95 98
3 99 100 101
3 99 102 100
3 99 94 102
3 99 95 94
3 99 98 95
3 99 103 98
3 99 104 103
3 99 101 104
3 105 100 106
3 105 101 100
3 105 104 101
3 105 107 104
3 105 78 107
3 105 77 78
3 105 76 77
3 105 106 76
3 108 6 35
3 108 109 6
3 108 110 109
3 108 111 110
3 108 112 111
3 108 113 112
3 108 31 113
3 108 35 31
3 114 31 32
3 114 113 31
3 114 112 113
3 114 115 112
3 114 116 115
3 114 117 116
3 114 25 117
3 114 32 25
3 118 19 119
3 118 26 19
3 118 25 26
3 118 117 25
3 118 116 117
3 118 120 116
3 118 121 120
3 118 119 121
3 122 19 20
3 122 119 19
3 122 121 119
3 122 123 121
3 122 124 123
3 122 125 124
3 122 13 125
3 122 20 13
3 126 13 14
3 126 125 13
3 126 124 125
3 126 127 124
3 126 128 127
3 126 129 128
3 126 4 129
3 126 14 4
3 130 6 109
3 130 5 6
3 130 4 5
3 130 129 4
3 130 128 129
3 130 131 128
3 130 110 131
3 130 109 110
3 132 110 111
3 132 133 110
3 132 134 133
3 132 135 134
3 132 136 135
3 132 137 136
3 132 112 137
3 132 111 112
3 138 134 135
3 138 139 134
3 138 140 139
3 138 141 140
3 138 142 141
3 138 143 142
3 138 136 143
3 138 135 136
3 144 112 115
3 144 137 112
3 144 136 137
3 144 145 136
3 144 146 145
3 144 147 146
3 144 116 147
3 144 115 116
3 148 136 145
3 148 143 136
3 148 142 143
3 148 149 142
3 148 150 149
3 148 151 150
3 148 146 151
3 148 145 146
3 152 121 153
3 152 120 121
3 152 116 120
3 152 147 116
3 152 146 147
3 152 154 146
3 152 155 154
3 152 153 155
3 156 155 157
3 156 154 155
3 156 146 154
3 156 151 146
3 156 150 151
3 156 158 150
3 156 159 158
3 156 157 159
3 160 121 123
3 160 153 121
3 160 155 153
3 160 161 155
3 160 162 161
3 160 163 162
3 160 124 163
3 160 123 124
3 164 155 161
3 164 157 155
3 164 159 157
3 164 165 159
3 164 166 165
3 164 167 166
3 164 162 167
3 164 161 162
3 168 124 127
3 168 163 124
3 168 162 163
3 168 169 162
3 168 170 169
3 168 171 170
3 168 128 171
3 168 127 128
3 172 162 169
3 172 167 162
3 172 166 167
3 172 173 166
3 172 174 173
3 172 175 174
3 172 170 175
3 172 169 170
3 176 110 133
3 176 131 110
3 176 128 131
3 176 171 128
3 176 170 171
3 176 177 170
3 176 134 177
3 176 133 134
3 178 134 139
3 178 177 134
3 178 170 177
3 178 175 170
3 178 174 175
3 178 179 174
3 178 140 179
3 178 139 140
3 180 140 181
3 180 179 140
3 180 174 179
3 180 182 174
3 180 183 182
3 180 184 183
3 180 185 184
3 180 181 185
3 186 185 187
3 186 184 185
3 186 183 184
3 186 188 183
3 186 64 188
3 186 70 64
3 186 40 70
3 186 187 40
3 189 166 173
3 189 190 166
3 189 191 190
3 189 192 191
3 189 183 192
3 189 182 183
3 189 174 182
3 189 173 174
3 193 191 192
3 193 194 191
3 193 58 194
3 193 66 58
3 193 64 66
3 193 188 64
3 193 183 188
3 193 192 183
3 195 159 165
3 195 196 159
3 195 197 196
3 195 198 197
3 195 191 198
3 195 190 191
3 195 166 190
3 195 165 166
3 199 197 198
3 199 200 197
3 199 56 200
3 199 60 56
3 199 58 60
3 199 194 58
3 199 191 194
3 199 198 191
3 201 159 196
3 201 158 159
3 201 150 158
3 201 202 150
3 201 203 202
3 201 204 203
3 201 197 204
3 201 196 197
3 205 197 200
3 205 204 197
3 205 203 204
3 205 206 203
3 205 46 206
3 205 52 46
3 205 56 52
3 205 200 56
3 207 142 149
3 207 208 142
3 207 209 208
3 207 210 209
3 207 203 210
3 207 202 203
3 207 150 202
3 207 149 150
3 211 209 210
3 211 212 209
3 211 37 212
3 211 48 37
3 211 46 48
3 211 206 46
3 211 203 206
3 211 210 203
3 213 140 141
3 213 181 140
3 213 185 181
3 213 214 185
3 213 209 214
3 213 208 209
3 213 142 208
3 213 141 142
3 215 185 214
3 215 187 185
3 215 40 187
3 215 39 40
3 215 37 39
3 215 212 37
3 215 209 212
3 215 214 209
3 216 42 217
3 216 71 42
3 216 68 71
3 216 218 68
3 216 219 218
3 216 220 219
3 216 221 220
3 216 217 221
3 222 221 223
3 222 220 221
3 222 219 220
3 222 224 219
3 222 100 224
3 222 106 100
3 222 76 106
3 222 223 76
3 225 62 67
3 225 226 62
3 225 227 226
3 225 228 227
3 225 219 228
3 225 218 219
3 225 68 218
3 225 67 68
3 229 227 228
3 229 230 227
3 229 94 230
3 229 102 94
3 229 100 102
3 229 224 100
3 229 219 224
3 229 228 219
3 231 54 61
3 231 232 54
3 231 233 232
3 231 234 233
3 231 227 234
3 231 226 227
3 231 62 226
3 231 61 62
3 235 233 234
3 235 236 233
3 235 92 236
3 235 96 92
3 235 94 96
3 235 230 94
3 235 227 230
3 235 234 227
3 237 54 232
3 237 53 54
3 237 50 53
3 237 238 50
3 237 239 238
3 237 240 239
3 237 233 240
3 237 232 233
3 241 233 236
3 241 240 233
3 241 239 240
3 241 242 239
3 241 82 242
3 241 88 82
3 241 92 88
3 241 236 92
3 243 44 49
3 243 244 44
3 243 245 244
3 243 246 245
3 243 239 246
3 243 238 239
3 243 50 238
3 243 49 50
3 247 245 246
3 247 248 245
3 247 73 248
3 247 84 73
3 247 82 84
3 247 242 82
3 247 239 242
3 247 246 239
3 249 42 43
3 249 217 42
3 249 221 217
3 249 250 221
3 249 245 250
3 249 244 245
3 249 44 244
3 249 43 44
3 251 221 250
3 251 223 221
3 251 76 223
3 251 75 76
3 251 73 75
3 251 248 73
3 251 245 248
3 251 250 245
