ply
format ascii 1.0
element vertex 252
property float x
property float y
property float z
property float nx
property float ny
property float nz
property float u
property float v
element face 480
property list uchar int vertex_indices
end_header
-0.216896 2.151434 0.466548 -0.0209005428 0.999125948 -0.0362009402 0 0
-0.217037 2.151434 0.468083 0 0.999999995 9.99999995e-05 0 0
-0.216377 2.151434 0.467447 0 0.999999995 9.99999995e-05 0 0
-0.217946 2.151434 0.467558 -0.0367001301 0.999103542 -0.0211000748 0 0
-0.218637 2.151376 0.467159 -0.287902921 0.943109568 -0.166301687 0 0
-0.217291 2.151376 0.465864 -0.165208038 0.943845924 -0.286113921 0 0
-0.215496 2.151376 0.465346 0 0.943134251 -0.332412072 0 0
-0.215496 2.151434 0.466143 0 0.999104946 -0.0423002094 0 0
-0.215496 2.151434 0.467193 0 1 0 0 0
-0.218296 2.151434 0.468972 -0.041900913 0.999121771 0 0 0
-0.217257 2.151434 0.468972 0 1 0 0 0
-0.217037 2.151434 0.469862 0 1 0 0 0
-0.217946 2.151434 0.470387 -0.0367001301 0.999103542 0.0211000748 0 0
-0.218637 2.151376 0.470786 -0.287898132 0.943093879 0.16639892 0 0
-0.219086 2.151376 0.468972 -0.330412787 0.943836527 0 0 0
-0.216896 2.151434 0.471397 -0.0209005428 0.999125948 0.0362009402 0 0
-0.216377 2.151434 0.470498 0 1 0 0 0
-0.215496 2.151434 0.470752 0 1 0 0 0
-0.215496 2.151434 0.471801 0 0.999104946 0.0423002094 0 0
-0.215496 2.151376 0.472599 0 0.943134251 0.332412072 0 0
-0.217291 2.151376 0.472081 -0.165208038 0.943845924 0.286113921 0 0
-0.214096 2.151434 0.471397 0.0209005428 0.999125948 0.0362009402 0 0
-0.213955 2.151434 0.469862 0 0.999999995 -9.99999995e-05 0 0
-0.214616 2.151434 0.470498 0 0.999999995 -9.99999995e-05 0 0
-0.213046 2.151434 0.470387 0.0367001301 0.999103542 0.0211000748 0 0
-0.212356 2.151376 0.470786 0.287902921 0.943109568 0.166301687 0 0
-0.213702 2.151376 0.472081 0.165208038 0.943845924 0.286113921 0 0
-0.212696 2.151434 0.468972 0.041900913 0.999121771 0 0 0
-0.213735 2.151434 0.468972 0 1 0 0 0
-0.213955 2.151434 0.468083 0 1 0 0 0
-0.213046 2.151434 0.467558 0.0367001301 0.999103542 -0.0211000748 0 0
-0.212356 2.151376 0.467159 0.287898132 0.943093879 -0.16639892 0 0
-0.211907 2.151376 0.468972 0.330412787 0.943836527 0 0 0
-0.214096 2.151434 0.466548 0.0209005428 0.999125948 -0.0362009402 0 0
-0.214616 2.151434 0.467447 0 1 0 0 0
-0.213702 2.151376 0.465864 0.165208038 0.943845924 -0.286113921 0 0
-0.21121 2.115253 0.461549 0.000199999987 -0.999999935 -0.000299999981 0 0
-0.207112 2.115279 0.464132 0.123399936 -0.989799485 -0.071199963 0 0
-0.207995 2.115253 0.464642 0.000899999523 -0.99999947 -0.000499999735 0 0
-0.210705 2.115279 0.460674 0.0708010641 -0.989914879 -0.122701844 0 0
-0.215496 2.115279 0.459291 0 -0.989736373 -0.142905252 0 0
-0.215496 2.115253 0.460311 0 -0.999999395 -0.00109999933 0 0
-0.215496 2.115288 0.461332 0 -0.989881381 0.141897331 0 0
-0.211715 2.115288 0.462423 -0.0732026438 -0.989235727 0.126704576 0 0
-0.208879 2.115288 0.465152 -0.122800338 -0.989902727 0.0708001951 0 0
-0.206924 2.115253 0.468972 0.000399999968 -0.99999992 0 0 0
-0.207112 2.115279 0.473813 0.123399936 -0.989799485 0.071199963 0 0
-0.207995 2.115253 0.473303 0.000899999523 -0.99999947 0.000499999735 0 0
-0.205914 2.115279 0.468972 0.141603358 -0.989923476 0 0 0
-0.207934 2.115288 0.468972 -0.146403689 -0.989224929 0 0 0
-0.208879 2.115288 0.472793 -0.122800338 -0.989902727 -0.0708001951 0 0
-0.21121 2.115253 0.476396 0.000199999987 -0.999999935 0.000299999981 0 0
-0.210705 2.115279 0.477271 0.0708010641 -0.989914879 0.122701844 0 0
-0.211715 2.115288 0.475522 -0.0732017159 -0.989223188 -0.126802972 0 0
-0.215496 2.115288 0.476613 0 -0.989881381 -0.141897331 0 0
-0.215496 2.115253 0.477634 0 -0.999999395 0.00109999933 0 0
-0.215496 2.115279 0.478654 0 -0.989736373 0.142905252 0 0
-0.219782 2.115253 0.476396 -0.000199999987 -0.999999935 0.000299999981 0 0
-0.22388 2.115279 0.473813 -0.123399936 -0.989799485 0.071199963 0 0
-0.222997 2.115253 0.473303 -0.000899999523 -0.99999947 0.000499999735 0 0
-0.220287 2.115279 0.477271 -0.0708010641 -0.989914879 0.122701844 0 0
-0.219277 2.115288 0.475522 0.0732026438 -0.989235727 -0.126704576 0 0
-0.222113 2.115288 0.472793 0.122800338 -0.989902727 -0.0708001951 0 0
-0.224068 2.115253 0.468972 -0.000399999968 -0.99999992 0 0 0
-0.22388 2.115279 0.464132 -0.123399936 -0.989799485 -0.071199963 0 0
-0.222997 2.115253 0.464642 -0.000899999523 -0.99999947 -0.000499999735 0 0
-0.225078 2.115279 0.468972 -0.141603358 -0.989923476 0 0 0
-0.223059 2.115288 0.468972 0.146403689 -0.989224929 0 0 0
-0.222113 2.115288 0.465152 0.122800338 -0.989902727 0.0708001951 0 0
-0.219782 2.115253 0.461549 -0.000199999987 -0.999999935 -0.000299999981 0 0
-0.220287 2.115279 0.460674 -0.0708010641 -0.989914879 -0.122701844 0 0
-0.219277 2.115288 0.462423 0.0732017159 -0.989223188 0.126802972 0 0
-0.212344 2.123155 0.463513 -0.494103365 -0.152601039 0.855905829 0 0
-0.209375 2.118563 0.465439 -0.858790601 -0.129098587 0.495794574 0 0
-0.20998 2.123155 0.465788 -0.855670951 -0.154112779 0.494040965 0 0
-0.211999 2.118563 0.462914 -0.495910201 -0.127802629 0.858917668 0 0
-0.215496 2.118563 0.461905 0 -0.129104043 0.991631053 0 0
-0.215496 2.123155 0.462603 0 -0.154108414 0.988053944 0 0
-0.215496 2.128977 0.463535 0 -0.158006102 0.987438136 0 0
-0.212805 2.128977 0.464312 -0.493797887 -0.156399331 0.855396339 0 0
-0.210787 2.128977 0.466254 -0.855142886 -0.158007924 0.493724761 0 0
-0.209192 2.123155 0.468972 -0.988288314 -0.152598196 0 0 0
-0.209375 2.118563 0.472506 -0.858790601 -0.129098587 -0.495794574 0 0
-0.20998 2.123155 0.472157 -0.855697732 -0.154099592 -0.493998691 0 0
-0.208501 2.118563 0.468972 -0.99179996 -0.127799995 0 0 0
-0.210115 2.128977 0.468972 -0.98769395 -0.156399042 0 0 0
-0.210787 2.128977 0.471691 -0.855142886 -0.158007924 -0.493724761 0 0
-0.212344 2.123155 0.474432 -0.494103365 -0.152601039 -0.855905829 0 0
-0.211999 2.118563 0.475031 -0.495910201 -0.127802629 -0.858917668 0 0
-0.212805 2.128977 0.473633 -0.493797887 -0.156399331 -0.855396339 0 0
-0.215496 2.128977 0.47441 0 -0.158006102 -0.987438136 0 0
-0.215496 2.123155 0.475342 0 -0.154108414 -0.988053944 0 0
-0.215496 2.118563 0.47604 0 -0.129104043 -0.991631053 0 0
-0.218648 2.123155 0.474432 0.494103365 -0.152601039 -0.855905829 0 0
-0.221617 2.118563 0.472506 0.858790601 -0.129098587 -0.495794574 0 0
-0.221012 2.123155 0.472157 0.855697732 -0.154099592 -0.493998691 0 0
-0.218994 2.118563 0.475031 0.495910201 -0.127802629 -0.858917668 0 0
-0.218187 2.128977 0.473633 0.493797887 -0.156399331 -0.855396339 0 0
-0.220205 2.128977 0.471691 0.855142886 -0.158007924 -0.493724761 0 0
-0.2218 2.123155 0.468972 0.988288314 -0.152598196 0 0 0
-0.221617 2.118563 0.465439 0.858790601 -0.129098587 0.495794574 0 0
-0.221012 2.123155 0.465788 0.855697732 -0.154099592 0.493998691 0 0
-0.222492 2.118563 0.468972 0.99179996 -0.127799995 0 0 0
-0.220878 2.128977 0.468972 0.98769395 -0.156399042 0 0 0
-0.220205 2.128977 0.466254 0.855142886 -0.158007924 0.493724761 0 0
-0.218648 2.123155 0.463513 0.494103365 -0.152601039 0.855905829 0 0
-0.218994 2.118563 0.462914 0.495910201 -0.127802629 0.858917668 0 0
-0.218187 2.128977 0.464312 0.493797887 -0.156399331 0.855396339 0 0
-0.213556 2.151204 0.465613 0.42020973 0.541812546 -0.727916855 0 0
-0.215496 2.151204 0.465053 0 0.540216669 -0.841525966 0 0
-0.215496 2.14687 0.464272 0 0.177309921 -0.984155065 0 0
-0.21317 2.14687 0.464943 0.49220299 0.175501066 -0.85260518 0 0
-0.211425 2.14687 0.466622 0.852294464 0.177298848 -0.492096804 0 0
-0.212101 2.151204 0.467012 0.728794804 0.540096149 -0.420896999 0 0
-0.211616 2.151204 0.468972 0.840505257 0.541803389 0 0 0
-0.210844 2.14687 0.468972 0.984480065 0.175496446 0 0 0
-0.211425 2.14687 0.471323 0.852294464 0.177298848 0.492096804 0 0
-0.212101 2.151204 0.470932 0.728794804 0.540096149 0.420896999 0 0
-0.213556 2.151204 0.472332 0.42020973 0.541812546 0.727916855 0 0
-0.215496 2.151204 0.472892 0 0.540216669 0.841525966 0 0
-0.21317 2.14687 0.473002 0.49220299 0.175501066 0.85260518 0 0
-0.215496 2.14687 0.473673 0 0.177309921 0.984155065 0 0
-0.217436 2.151204 0.472332 -0.42020973 0.541812546 0.727916855 0 0
-0.217822 2.14687 0.473002 -0.49220299 0.175501066 0.85260518 0 0
-0.219567 2.14687 0.471323 -0.852294464 0.177298848 0.492096804 0 0
-0.218891 2.151204 0.470932 -0.728794804 0.540096149 0.420896999 0 0
-0.219376 2.151204 0.468972 -0.840505257 0.541803389 0 0 0
-0.220149 2.14687 0.468972 -0.984480065 0.175496446 0 0 0
-0.219567 2.14687 0.466622 -0.852294464 0.177298848 -0.492096804 0 0
-0.218891 2.151204 0.467012 -0.728825477 0.54011888 -0.42081471 0 0
-0.217436 2.151204 0.465613 -0.42020973 0.541812546 -0.727916855 0 0
-0.217822 2.14687 0.464943 -0.49220299 0.175501066 -0.85260518 0 0
-0.212052 2.134327 0.463007 0.49220299 0.175501066 -0.85260518 0 0
-0.215496 2.134327 0.462012 0 0.177309921 -0.984155065 0 0
-0.215496 2.121798 0.459755 0 0.177292471 -0.984158209 0 0
-0.210935 2.121798 0.461072 0.49220299 0.175501066 -0.85260518 0 0
-0.207514 2.121798 0.464364 0.852336404 0.177307573 -0.492021015 0 0
-0.209469 2.134327 0.465492 0.852294464 0.177298848 -0.492096804 0 0
-0.210552 2.117506 0.460409 0.496417211 0.118704116 -0.859929814 0 0
-0.215496 2.117506 0.458982 0 0.119701201 -0.992809963 0 0
-0.215496 2.117142 0.458959 0 0.0371004285 -0.999311542 0 0
-0.210541 2.117142 0.460389 0.499632087 0.0368023635 -0.865455581 0 0
-0.206824 2.117142 0.463966 0.865445987 0.0371019715 -0.499626548 0 0
-0.206844 2.117506 0.463977 0.859801251 0.119700174 -0.496400722 0 0
-0.208607 2.134327 0.468972 0.984480065 0.175496446 0 0 0
-0.206374 2.121798 0.468972 0.984480065 0.175496446 0 0 0
-0.207514 2.121798 0.473581 0.852336404 0.177307573 0.492021015 0 0
-0.209469 2.134327 0.472453 0.852294464 0.177298848 0.492096804 0 0
-0.205608 2.117506 0.468972 0.992929739 0.118703555 0 0 0
-0.205585 2.117142 0.468972 0.99932262 0.036800833 0 0 0
-0.206824 2.117142 0.473979 0.865445987 0.0371019715 0.499626548 0 0
-0.206844 2.117506 0.473968 0.859801251 0.119700174 0.496400722 0 0
-0.212052 2.134327 0.474938 0.49220299 0.175501066 0.85260518 0 0
-0.215496 2.134327 0.475933 0 0.177309921 0.984155065 0 0
-0.210935 2.121798 0.476873 0.49220299 0.175501066 0.85260518 0 0
-0.215496 2.121798 0.47819 0 0.177292471 0.984158209 0 0
-0.210552 2.117506 0.477536 0.496417211 0.118704116 0.859929814 0 0
-0.215496 2.117506 0.478963 0 0.119701201 0.992809963 0 0
-0.210541 2.117142 0.477556 0.499632087 0.0368023635 0.865455581 0 0
-0.215496 2.117142 0.478986 0 0.0371004285 0.999311542 0 0
-0.218941 2.134327 0.474938 -0.49220299 0.175501066 0.85260518 0 0
-0.220058 2.121798 0.476873 -0.49220299 0.175501066 0.85260518 0 0
-0.223478 2.121798 0.473581 -0.852294464 0.177298848 0.492096804 0 0
-0.221524 2.134327 0.472453 -0.852336404 0.177307573 0.492021015 0 0
-0.22044 2.117506 0.477536 -0.496417211 0.118704116 0.859929814 0 0
-0.220452 2.117142 0.477556 -0.499632087 0.0368023635 0.865455581 0 0
-0.224168 2.117142 0.473979 -0.865445987 0.0371019715 0.499626548 0 0
-0.224148 2.117506 0.473968 -0.859801251 0.119700174 0.496400722 0 0
-0.222385 2.134327 0.468972 -0.984480065 0.175496446 0 0 0
-0.224619 2.121798 0.468972 -0.984480065 0.175496446 0 0 0
-0.223478 2.121798 0.464364 -0.852336404 0.177307573 -0.492021015 0 0
-0.221524 2.134327 0.465492 -0.852336404 0.177307573 -0.492021015 0 0
-0.225384 2.117506 0.468972 -0.992929739 0.118703555 0 0 0
-0.225407 2.117142 0.468972 -0.99932262 0.036800833 0 0 0
-0.224168 2.117142 0.463966 -0.865445987 0.0371019715 -0.499626548 0 0
-0.224148 2.117506 0.463977 -0.859801251 0.119700174 -0.496400722 0 0
-0.218941 2.134327 0.463007 -0.49220299 0.175501066 -0.85260518 0 0
-0.220058 2.121798 0.461072 -0.49220299 0.175501066 -0.85260518 0 0
-0.22044 2.117506 0.460409 -0.496417211 0.118704116 -0.859929814 0 0
-0.220452 2.117142 0.460389 -0.499632087 0.0368023635 -0.865455581 0 0
-0.220456 2.116397 0.460383 -0.50000424 0.0052000441 -0.866007344 0 0
-0.215496 2.116397 0.458951 0 0.0051999297 -0.99998648 0 0
-0.224175 2.116397 0.463962 -0.866007344 0.0052000441 -0.50000424 0 0
-0.224175 2.115669 0.463962 -0.866019053 0 -0.500011 0 0
-0.220456 2.115669 0.460383 -0.500011 0 -0.866019053 0 0
-0.215496 2.115669 0.458951 0 0 -1 0 0
-0.220456 2.115357 0.460383 -0.407493859 -0.579491267 -0.705789364 0 0
-0.215496 2.115357 0.458951 0 -0.574093039 -0.818790072 0 0
-0.224175 2.115357 0.463962 -0.708990081 -0.574291966 -0.409294274 0 0
-0.225415 2.116397 0.468972 -0.99998648 0.0051999297 0 0 0
-0.224175 2.116397 0.473983 -0.866007344 0.0052000441 0.50000424 0 0
-0.224175 2.115669 0.473983 -0.866019053 0 0.500011 0 0
-0.225415 2.115669 0.468972 -1 0 0 0 0
-0.225415 2.115357 0.468972 -0.814947977 -0.579534118 0 0 0
-0.224175 2.115357 0.473983 -0.709019098 -0.574315469 0.409211022 0 0
-0.220456 2.116397 0.477562 -0.50000424 0.0052000441 0.866007344 0 0
-0.215496 2.116397 0.478994 0 0.0051999297 0.99998648 0 0
-0.215496 2.115669 0.478994 0 0 1 0 0
-0.220456 2.115669 0.477562 -0.500011 0 0.866019053 0 0
-0.220456 2.115357 0.477562 -0.40752262 -0.579532168 0.705739173 0 0
-0.215496 2.115357 0.478994 0 -0.574093039 0.818790072 0 0
-0.210537 2.116397 0.477562 0.50000424 0.0052000441 0.866007344 0 0
-0.206817 2.116397 0.473983 0.866007344 0.0052000441 0.50000424 0 0
-0.206817 2.115669 0.473983 0.866019053 0 0.500011 0 0
-0.210537 2.115669 0.477562 0.500011 0 0.866019053 0 0
-0.210537 2.115357 0.477562 0.407493859 -0.579491267 0.705789364 0 0
-0.206817 2.115357 0.473983 0.708990081 -0.574291966 0.409294274 0 0
-0.205578 2.116397 0.468972 0.99998648 0.0051999297 0 0 0
-0.206817 2.116397 0.463962 0.866007344 0.0052000441 -0.50000424 0 0
-0.206817 2.115669 0.463962 0.866019053 0 -0.500011 0 0
-0.205578 2.115669 0.468972 1 0 0 0 0
-0.205578 2.115357 0.468972 0.814947977 -0.579534118 0 0 0
-0.206817 2.115357 0.463962 0.709019098 -0.574315469 -0.409211022 0 0
-0.210537 2.116397 0.460383 0.50000424 0.0052000441 -0.866007344 0 0
-0.210537 2.115669 0.460383 0.500011 0 -0.866019053 0 0
-0.210537 2.115357 0.460383 0.40752262 -0.579532168 -0.705739173 0 0
-0.219109 2.115392 0.462715 0.383822773 -0.640938028 0.66473944 0 0
-0.215496 2.115392 0.461672 0 -0.65033829 0.759644725 0 0
-0.221819 2.115392 0.465322 0.657792376 -0.650492461 0.379695599 0 0
-0.221819 2.115721 0.465322 0.866019053 0 0.500011 0 0
-0.219109 2.115721 0.462715 0.500011 0 0.866019053 0 0
-0.215496 2.115721 0.461672 0 0 1 0 0
-0.219109 2.116431 0.462715 0.499292239 -0.0533991699 0.864786557 0 0
-0.215496 2.116431 0.461672 0 -0.0539024941 0.998546204 0 0
-0.221819 2.116431 0.465322 0.86473814 -0.0539023774 0.499322023 0 0
-0.222722 2.115392 0.468972 0.767614366 -0.640911995 0 0 0
-0.221819 2.115392 0.472623 0.657792376 -0.650492461 -0.379695599 0 0
-0.221819 2.115721 0.472623 0.866019053 0 -0.500011 0 0
-0.222722 2.115721 0.468972 1 0 0 0 0
-0.222722 2.116431 0.468972 0.998573279 -0.0533985711 0 0 0
-0.221819 2.116431 0.472623 0.86473814 -0.0539023774 -0.499322023 0 0
-0.219109 2.115392 0.47523 0.383798171 -0.640996946 -0.664696833 0 0
-0.215496 2.115392 0.476273 0 -0.65033829 -0.759644725 0 0
-0.215496 2.115721 0.476273 0 0 -1 0 0
-0.219109 2.115721 0.47523 0.500011 0 -0.866019053 0 0
-0.219109 2.116431 0.47523 0.499292239 -0.0533991699 -0.864786557 0 0
-0.215496 2.116431 0.476273 0 -0.0539024941 -0.998546204 0 0
-0.211883 2.115392 0.47523 -0.383822773 -0.640938028 -0.66473944 0 0
-0.209174 2.115392 0.472623 -0.657792376 -0.650492461 -0.379695599 0 0
-0.209174 2.115721 0.472623 -0.866019053 0 -0.500011 0 0
-0.211883 2.115721 0.47523 -0.500011 0 -0.866019053 0 0
-0.211883 2.116431 0.47523 -0.499292239 -0.0533991699 -0.864786557 0 0
-0.209174 2.116431 0.472623 -0.86473814 -0.0539023774 -0.499322023 0 0
-0.20827 2.115392 0.468972 -0.767614366 -0.640911995 0 0 0
-0.209174 2.115392 0.465322 -0.657792376 -0.650492461 0.379695599 0 0
-0.209174 2.115721 0.465322 -0.866019053 0 0.500011 0 0
-0.20827 2.115721 0.468972 -1 0 0 0 0
-0.20827 2.116431 0.468972 -0.998573279 -0.0533985711 0 0 0
-0.209174 2.116431 0.465322 -0.86473814 -0.0539023774 0.499322023 0 0
-0.211883 2.115392 0.462715 -0.383798171 -0.640996946 0.664696833 0 0
-0.211883 2.115721 0.462715 -0.500011 0 0.866019053 0 0
-0.211883 2.116431 0.462715 -0.499292239 -0.0533991699 0.864786557 0 0
3 0 1 2
3 0 3 1
3 0 4 3
3 0 5 4
3 0 6 5
3 0 7 6
3 0 8 7
3 0 2 8
3 9 1 3
3 9 10 1
3 9 11 10
3 9 12 11
3 9 13 12
3 9 14 13
3 9 4 14
3 9 3 4
3 15 11 12
3 15 16 11
3 15 17 16
3 15 18 17
3 15 19 18
3 15 20 19
3 15 13 20
3 15 12 13
3 21 22 23
3 21 24 22
3 21 25 24
3 21 26 25
3 21 19 26
3 21 18 19
3 21 17 18
3 21 23 17
3 27 22 24
3 27 28 22
3 27 29 28
3 27 30 29
3 27 31 30
3 27 32 31
3 27 25 32
3 27 24 25
3 33 29 30
3 33 34 29
3 33 8 34
3 33 7 8
3 33 6 7
3 33 35 6
3 33 31 35
3 33 30 31
3 36 37 38
3 36 39 37
3 36 40 39
3 36 41 40
3 36 42 41
3 36 43 42
3 36 44 43
3 36 38 44
3 45 46 47
3 45 48 46
3 45 37 48
3 45 38 37
3 45 44 38
3 45 49 44
3 45 50 49
3 45 47 50
3 51 46 52
3 51 47 46
3 51 50 47
3 51 53 50
3 51 54 53
3 51 55 54
3 51 56 55
3 51 52 56
3 57 58 59
3 57 60 58
3 57 56 60
3 57 55 56
3 57 54 55
3 57 61 54
3 57 62 61
3 57 59 62
3 63 64 65
3 63 66 64
3 63 58 66
3 63 59 58
3 63 62 59
3 63 67 62
3 63 68 67
3 63 65 68
3 69 64 70
3 69 65 64
3 69 68 65
3 69 71 68
3 69 42 71
3 69 41 42
3 69 40 41
3 69 70 40
3 72 73 74
3 72 75 73
3 72 76 75
3 72 77 76
3 72 78 77
3 72 79 78
3 72 80 79
3 72 74 80
3 81 82 83
3 81 84 82
3 81 73 84
3 81 74 73
3 81 80 74
3 81 85 80
3 81 86 85
3 81 83 86
3 87 82 88
3 87 83 82
3 87 86 83
3 87 89 86
3 87 90 89
3 87 91 90
3 87 92 91
3 87 88 92
3 93 94 95
3 93 96 94
3 93 92 96
3 93 91 92
3 93 90 91
3 93 97 90
3 93 98 97
3 93 95 98
3 99 100 101
3 99 102 100
3 99 94 102
3 99 95 94
3 99 98 95
3 99 103 98
3 99 104 103
3 99 101 104
3 105 100 106
3 105 101 100
3 105 104 101
3 105 107 104
3 105 78 107
3 105 77 78
3 105 76 77
3 105 106 76
3 108 6 35
3 108 109 6
3 108 110 109
3 108 111 110
3 108 112 111
3 108 113 112
3 108 31 113
3 108 35 31
3 114 31 32
3 114 113 31
3 114 112 113
3 114 115 112
3 114 116 115
3 114 117 116
3 114 25 117
3 114 32 25
3 118 19 119
3 118 26 19
3 118 25 26
3 118 117 25
3 118 116 117
3 118 120 116
3 118 121 120
3 118 119 121
3 122 19 20
3 122 119 19
3 122 121 119
3 122 123 121
3 122 124 123
3 122 125 124
3 122 13 125
3 122 20 13
3 126 13 14
3 126 125 13
3 126 124 125
3 126 127 124
3 126 128 127
3 126 129 128
3 126 4 129
3 126 14 4
3 130 6 109
3 130 5 6
3 130 4 5
3 130 129 4
3 130 128 129
3 130 131 128
3 130 110 131
3 130 109 110
3 132 110 111
3 132 133 110
3 132 134 133
3 132 135 134
3 132 136 135
3 132 137 136
3 132 112 137
3 132 111 112
3 138 134 135
3 138 139 134
3 138 140 139
3 138 141 140
3 138 142 141
3 138 143 142
3 138 136 143
3 138 135 136
3 144 112 115
3 144 137 112
3 144 136 137
3 144 145 136
3 144 146 145
3 144 147 146
3 144 116 147
3 144 115 116
3 148 136 145
3 148 143 136
3 148 142 143
3 148 149 142
3 148 150 149
3 148 151 150
3 148 146 151
3 148 145 146
3 152 121 153
3 152 120 121
3 152 116 120
3 152 147 116
3 152 146 147
3 152 154 146
3 152 155 154
3 152 153 155
3 156 155 157
3 156 154 155
3 156 146 154
3 156 151 146
3 156 150 151
3 156 158 150
3 156 159 158
3 156 157 159
3 160 121 123
3 160 153 121
3 160 155 153
3 160 161 155
3 160 162 161
3 160 163 162
3 160 124 163
3 160 123 124
3 164 155 161
3 164 157 155
3 164 159 157
3 164 165 159
3 164 166 165
3 164 167 166
3 164 162 167
3 164 161 162
3 168 124 127
3 168 163 124
3 168 162 163
3 168 169 162
3 168 170 169
3 168 171 170
3 168 128 171
3 168 127 128
3 172 162 169
3 172 167 162
3 172 166 167
3 172 173 166
3 172 174 173
3 172 175 174
3 172 170 175
3 172 169 170
3 176 110 133
3 176 131 110
3 176 128 131
3 176 171 128
3 176 170 171
3 176 177 170
3 176 134 177
3 176 133 134
3 178 134 139
3 178 177 134
3 178 170 177
3 178 175 170
3 178 174 175
3 178 179 174
3 178 140 179
3 178 139 140
3 180 140 181
3 180 179 140
3 180 174 179
3 180 182 174
3 180 183 182
3 180 184 183
3 180 185 184
3 180 181 185
3 186 185 187
3 186 184 185
3 186 183 184
3 186 188 183
3 186 64 188
3 186 70 64
3 186 40 70
3 186 187 40
3 189 166 173
3 189 190 166
3 189 191 190
3 189 192 191
3 189 183 192
3 189 182 183
3 189 174 182
3 189 173 174
3 193 191 192
3 193 194 191
3 193 58 194
3 193 66 58
3 193 64 66
3 193 188 64
3 193 183 188
3 193 192 183
3 195 159 165
3 195 196 159
3 195 197 196
3 195 198 197
3 195 191 198
3 195 190 191
3 195 166 190
3 195 165 166
3 199 197 198
3 199 200 197
3 199 56 200
3 199 60 56
3 199 58 60
3 199 194 58
3 199 191 194
3 199 198 191
3 201 159 196
3 201 158 159
3 201 150 158
3 201 202 150
3 201 203 202
3 201 204 203
3 201 197 204
3 201 196 197
3 205 197 200
3 205 204 197
3 205 203 204
3 205 206 203
3 205 46 206
3 205 52 46
3 205 56 52
3 205 200 56
3 207 142 149
3 207 208 142
3 207 209 208
3 207 210 209
3 207 203 210
3 207 202 203
3 207 150 202
3 207 149 150
3 211 209 210
3 211 212 209
3 211 37 212
3 211 48 37
3 211 46 48
3 211 206 46
3 211 203 206
3 211 210 203
3 213 140 141
3 213 181 140
3 213 185 181
3 213 214 185
3 213 209 214
3 213 208 209
3 213 142 208
3 213 141 142
3 215 185 214
3 215 187 185
3 215 40 187
3 215 39 40
3 215 37 39
3 215 212 37
3 215 209 212
3 215 214 209
3 216 42 217
3 216 71 42
3 216 68 71
3 216 218 68
3 216 219 218
3 216 220 219
3 216 221 220
3 216 217 221
3 222 221 223
3 222 220 221
3 222 219 220
3 222 224 219
3 222 100 224
3 222 106 100
3 222 76 106
3 222 223 76
3 225 62 67
3 225 226 62
3 225 227 226
3 225 228 227
3 225 219 228
3 225 218 219
3 225 68 218
3 225 67 68
3 229 227 228
3 229 230 227
3 229 94 230
3 229 102 94
3 229 100 102
3 229 224 100
3 229 219 224
3 229 228 219
3 231 54 61
3 231 232 54
3 231 233 232
3 231 234 233
3 231 227 234
3 231 226 227
3 231 62 226
3 231 61 62
3 235 233 234
3 235 236 233
3 235 92 236
3 235 96 92
3 235 94 96
3 235 230 94
3 235 227 230
3 235 234 227
3 237 54 232
3 237 53 54
3 237 50 53
3 237 238 50
3 237 239 238
3 237 240 239
3 237 233 240
3 237 232 233
3 241 233 236
3 241 240 233
3 241 239 240
3 241 242 239
3 241 82 242
3 241 88 82
3 241 92 88
3 241 236 92
3 243 44 49
3 243 244 44
3 243 245 244
3 243 246 245
3 243 239 246
3 243 238 239
3 243 50 238
3 243 49 50
3 247 245 246
3 247 248 245
3 247 73 248
3 247 84 73
3 247 82 84
3 247 242 82
3 247 239 242
3 247 246 239
3 249 42 43
3 249 217 42
3 249 221 217
3 249 250 221
3 249 245 250
3 249 244 245
3 249 44 244
3 249 43 44
3 251 221 250
3 251 223 221
3 251 76 223
3 251 75 76
3 251 73 75
3 251 248 73
3 251 245 248
3 251 250 245
