ply
format ascii 1.0
element vertex 16
property float x
property float y
property float z
property float nx
property float ny
property float nz
property float u
property float v
element face 12
property list uchar int vertex_indices
end_header
-0.214752 2.469347 0.468543 0.500011 0 -0.866019053 0 0
-0.215496 2.151403 0.468114 0.500011 0 -0.866019053 0 0
-0.215496 2.469347 0.468114 0.500011 0 -0.866019053 0 0
-0.214752 2.151403 0.468543 0.500011 0 -0.866019053 0 0
-0.214752 2.469347 0.468543 -1 0 0 0 0
-0.214752 2.151403 0.469402 -0.866019053 0 -0.500011 0 0
-0.214752 2.469347 0.469402 -0.866019053 0 -0.500011 0 0
-0.214752 2.151403 0.468543 -1 0 0 0 0
-0.215496 2.151403 0.469831 0 0 -1 0 0
-0.215496 2.469347 0.469831 0 0 -1 0 0
-0.21624 2.151403 0.469402 0.866019053 0 -0.500011 0 0
-0.21624 2.469347 0.469402 0.866019053 0 -0.500011 0 0
-0.21624 2.151403 0.468543 0.866019053 0 0.500011 0 0
-0.21624 2.469347 0.468543 0.866019053 0 0.500011 0 0
-0.215496 2.151403 0.468114 0.500011 0 0.866019053 0 0
-0.215496 2.469347 0.468114 0.500011 0 0.866019053 0 0
3 0 1 2
3 0 3 1
3 4 5 6
3 4 7 5
3 6 8 9
3 6 5 8
3 9 10 11
3 9 8 10
3 11 12 13
3 11 10 12
3 13 14 15
3 13 12 14
