ply
format ascii 1.0
element vertex 84
property float x
property float y
property float z
property float nx
property float ny
property float nz
property float u
property float v
element face 28
property list uchar int vertex_indices
end_header
-0.19722 2.492671 0.471484 0 1 0 0 0
-0.233772 2.492671 0.470673 0 1 0 0 0
-0.233772 2.492671 0.471484 0 1 0 0 0
-0.19722 2.492671 0.471484 0 1 0 0 0
-0.19722 2.492671 0.470673 0 1 0 0 0
-0.233772 2.492671 0.470673 0 1 0 0 0
-0.233772 2.469838 0.471289 0 -0.843661488 0.536875492 0 0
-0.19722 2.469446 0.470673 0 -0.843661488 0.536875492 0 0
-0.19722 2.469838 0.471289 0 -0.843661488 0.536875492 0 0
-0.233772 2.469838 0.471289 0 -0.843661488 0.536875492 0 0
-0.233772 2.469446 0.470673 0 -0.843661488 0.536875492 0 0
-0.19722 2.469446 0.470673 0 -0.843661488 0.536875492 0 0
-0.233772 2.470855 0.471484 0 0 1 0 0
-0.19722 2.492671 0.471484 0 0 1 0 0
-0.233772 2.492671 0.471484 0 0 1 0 0
-0.233772 2.470855 0.471484 0 0 1 0 0
-0.19722 2.470855 0.471484 0 0 1 0 0
-0.19722 2.492671 0.471484 0 0 1 0 0
-0.19722 2.470855 0.471484 0 -0.188310104 0.98210962 0 0
-0.233772 2.469838 0.471289 0 -0.188310104 0.98210962 0 0
-0.19722 2.469838 0.471289 0 -0.188310104 0.98210962 0 0
-0.19722 2.470855 0.471484 0 -0.188310104 0.98210962 0 0
-0.233772 2.470855 0.471484 0 -0.188310104 0.98210962 0 0
-0.233772 2.469838 0.471289 0 -0.188310104 0.98210962 0 0
-0.19722 2.469838 0.471289 1 -0 0 0 0
-0.19722 2.470855 0.470673 1 -0 0 0 0
-0.19722 2.470855 0.471484 1 -0 0 0 0
-0.19722 2.469838 0.471289 1 0 0 0 0
-0.19722 2.469446 0.470673 1 0 0 0 0
-0.19722 2.470855 0.470673 1 0 0 0 0
-0.19722 2.470855 0.471484 1 -0 0 0 0
-0.19722 2.492671 0.470673 1 -0 0 0 0
-0.19722 2.492671 0.471484 1 -0 0 0 0
-0.19722 2.470855 0.471484 1 0 0 0 0
-0.19722 2.470855 0.470673 1 0 0 0 0
-0.19722 2.492671 0.470673 1 0 0 0 0
-0.233772 2.492671 0.471484 -1 -0 0 0 0
-0.233772 2.470855 0.470673 -1 -0 0 0 0
-0.233772 2.470855 0.471484 -1 -0 0 0 0
-0.233772 2.492671 0.471484 -1 0 -0 0 0
-0.233772 2.492671 0.470673 -1 0 -0 0 0
-0.233772 2.470855 0.470673 -1 0 -0 0 0
-0.233772 2.470855 0.471484 -1 0 0 0 0
-0.233772 2.469446 0.470673 -1 0 0 0 0
-0.233772 2.469838 0.471289 -1 0 0 0 0
-0.233772 2.470855 0.471484 -1 0 -0 0 0
-0.233772 2.470855 0.470673 -1 0 -0 0 0
-0.233772 2.469446 0.470673 -1 0 -0 0 0
-0.19722 2.470855 0.470673 0 0 -1 0 0
-0.233772 2.492671 0.470673 0 0 -1 0 0
-0.19722 2.492671 0.470673 0 0 -1 0 0
-0.19722 2.470855 0.470673 0 0 -1 0 0
-0.233772 2.470855 0.470673 0 0 -1 0 0
-0.233772 2.492671 0.470673 0 0 -1 0 0
-0.19722 2.470855 0.470673 0 1 0 0 0
-0.233772 2.470855 0.46702 0 1 0 0 0
-0.233772 2.470855 0.470673 0 1 0 0 0
-0.19722 2.470855 0.470673 0 1 0 0 0
-0.19722 2.470855 0.46702 0 1 0 0 0
-0.233772 2.470855 0.46702 0 1 0 0 0
-0.233772 2.470855 0.470673 -1 -0 0 0 0
-0.233772 2.469446 0.46702 -1 -0 0 0 0
-0.233772 2.469446 0.470673 -1 -0 0 0 0
-0.233772 2.470855 0.470673 -1 0 -0 0 0
-0.233772 2.470855 0.46702 -1 0 -0 0 0
-0.233772 2.469446 0.46702 -1 0 -0 0 0
-0.19722 2.469446 0.470673 1 -0 0 0 0
-0.19722 2.470855 0.46702 1 -0 0 0 0
-0.19722 2.470855 0.470673 1 -0 0 0 0
-0.19722 2.469446 0.470673 1 0 0 0 0
-0.19722 2.469446 0.46702 1 0 0 0 0
-0.19722 2.470855 0.46702 1 0 0 0 0
-0.233772 2.469446 0.470673 0 -1 0 0 0
-0.19722 2.469446 0.46702 0 -1 0 0 0
-0.19722 2.469446 0.470673 0 -1 0 0 0
-0.233772 2.469446 0.470673 0 -1 0 0 0
-0.233772 2.469446 0.46702 0 -1 0 0 0
-0.19722 2.469446 0.46702 0 -1 0 0 0
-0.19722 2.469446 0.46702 0 0 -1 0 0
-0.233772 2.470855 0.46702 0 0 -1 0 0
-0.19722 2.470855 0.46702 0 0 -1 0 0
-0.19722 2.469446 0.46702 0 0 -1 0 0
-0.233772 2.469446 0.46702 0 0 -1 0 0
-0.233772 2.470855 0.46702 0 0 -1 0 0
3 0 1 2
3 3 4 5
3 6 7 8
3 9 10 11
3 12 13 14
3 15 16 17
3 18 19 20
3 21 22 23
3 24 25 26
3 27 28 29
3 30 31 32
3 33 34 35
3 36 37 38
3 39 40 41
3 42 43 44
3 45 46 47
3 48 49 50
3 51 52 53
3 54 55 56
3 57 58 59
3 60 61 62
3 63 64 65
3 66 67 68
3 69 70 71
3 72 73 74
3 75 76 77
3 78 79 80
3 81 82 83
