ply
format ascii 1.0
element vertex 288
property float x
property float y
property float z
property float nx
property float ny
property float nz
property float u
property float v
element face 512
property list uchar int vertex_indices
end_header
-0.381961 2.780501 0.483523 0 0.923876672 -0.382690337 0 0
-0.137562 2.774134 0.473831 0 0.707106781 -0.707106781 0 0
-0.381961 2.774134 0.473831 0 0.707106781 -0.707106781 0 0
-0.137562 2.780501 0.483523 0 0.923876672 -0.382690337 0 0
-0.137562 2.782852 0.494879 0 1 0 0 0
-0.381961 2.782852 0.494879 0 1 0 0 0
-0.565492 2.782852 0.494879 0 1 0 0 0
-0.565492 2.780501 0.483523 0 0.923876672 -0.382690337 0 0
-0.565492 2.774134 0.473831 0 0.707106781 -0.707106781 0 0
-0.627291 2.780501 0.483523 -0.27330298 0.888709691 -0.368104014 0 0
-0.627291 2.774134 0.473831 -0.273294948 0.680187427 -0.680187427 0 0
-0.627291 2.782852 0.494879 -0.273307584 0.961926694 0 0 0
-0.62799 2.782401 0.494879 -0.810600113 0.585600082 0 0 0
-0.62799 2.780085 0.483695 -0.811787117 0.539491438 -0.223496453 0 0
-0.62799 2.773815 0.47415 -0.810587849 0.414093793 -0.414093793 0 0
-0.381961 2.764442 0.467464 0 0.382690337 -0.923876672 0 0
-0.137562 2.764442 0.467464 0 0.382690337 -0.923876672 0 0
-0.565492 2.764442 0.467464 0 0.382690337 -0.923876672 0 0
-0.565492 2.753086 0.465113 0 0 -1 0 0
-0.381961 2.753086 0.465113 0 0 -1 0 0
-0.137562 2.753086 0.465113 0 0 -1 0 0
-0.627291 2.764442 0.467464 -0.27330298 0.368104014 -0.888709691 0 0
-0.62799 2.76427 0.46788 -0.811787117 0.223496453 -0.539491438 0 0
-0.62799 2.753086 0.465564 -0.810518342 0 -0.585713255 0 0
-0.627291 2.753086 0.465113 -0.273307584 0 -0.961926694 0 0
-0.381961 2.741731 0.467464 0 -0.382690337 -0.923876672 0 0
-0.137562 2.741731 0.467464 0 -0.382690337 -0.923876672 0 0
-0.565492 2.741731 0.467464 0 -0.382690337 -0.923876672 0 0
-0.565492 2.732038 0.473831 0 -0.707106781 -0.707106781 0 0
-0.381961 2.732038 0.473831 0 -0.707106781 -0.707106781 0 0
-0.137562 2.732038 0.473831 0 -0.707106781 -0.707106781 0 0
-0.627291 2.741731 0.467464 -0.27330298 -0.368104014 -0.888709691 0 0
-0.62799 2.741903 0.46788 -0.811787117 -0.223496453 -0.539491438 0 0
-0.62799 2.732358 0.47415 -0.810553551 -0.41412736 -0.41412736 0 0
-0.627291 2.732038 0.473831 -0.273294948 -0.680187427 -0.680187427 0 0
-0.381961 2.725672 0.483523 0 -0.923876672 -0.382690337 0 0
-0.137562 2.72332 0.494879 0 -1 0 0 0
-0.381961 2.72332 0.494879 0 -1 0 0 0
-0.137562 2.725672 0.483523 0 -0.923876672 -0.382690337 0 0
-0.565492 2.725672 0.483523 0 -0.923876672 -0.382690337 0 0
-0.565492 2.72332 0.494879 0 -1 0 0 0
-0.627291 2.725672 0.483523 -0.27330298 -0.888709691 -0.368104014 0 0
-0.627291 2.72332 0.494879 -0.273307584 -0.961926694 0 0 0
-0.62799 2.726088 0.483695 -0.811787117 -0.539491438 -0.223496453 0 0
-0.62799 2.723772 0.494879 -0.810600113 -0.585600082 0 0 0
-0.381961 2.725672 0.506234 0 -0.923876672 0.382690337 0 0
-0.137562 2.725672 0.506234 0 -0.923876672 0.382690337 0 0
-0.565492 2.725672 0.506234 0 -0.923876672 0.382690337 0 0
-0.565492 2.732038 0.515926 0 -0.707106781 0.707106781 0 0
-0.381961 2.732038 0.515926 0 -0.707106781 0.707106781 0 0
-0.137562 2.732038 0.515926 0 -0.707106781 0.707106781 0 0
-0.627291 2.725672 0.506234 -0.27330298 -0.888709691 0.368104014 0 0
-0.62799 2.726088 0.506062 -0.811787117 -0.539491438 0.223496453 0 0
-0.62799 2.732358 0.515607 -0.810587849 -0.414093793 0.414093793 0 0
-0.627291 2.732038 0.515926 -0.273294948 -0.680187427 0.680187427 0 0
-0.381961 2.741731 0.522293 0 -0.382690337 0.923876672 0 0
-0.137562 2.741731 0.522293 0 -0.382690337 0.923876672 0 0
-0.565492 2.741731 0.522293 0 -0.382690337 0.923876672 0 0
-0.565492 2.753086 0.524645 0 0 1 0 0
-0.381961 2.753086 0.524645 0 0 1 0 0
-0.137562 2.753086 0.524645 0 0 1 0 0
-0.627291 2.741731 0.522293 -0.27330298 -0.368104014 0.888709691 0 0
-0.62799 2.741903 0.521877 -0.811787117 -0.223496453 0.539491438 0 0
-0.62799 2.753086 0.524193 -0.810518342 0 0.585713255 0 0
-0.627291 2.753086 0.524645 -0.273215048 0 0.961952981 0 0
-0.381961 2.764442 0.522293 0 0.382690337 0.923876672 0 0
-0.137562 2.764442 0.522293 0 0.382690337 0.923876672 0 0
-0.565492 2.764442 0.522293 0 0.382690337 0.923876672 0 0
-0.565492 2.774134 0.515926 0 0.707106781 0.707106781 0 0
-0.381961 2.774134 0.515926 0 0.707106781 0.707106781 0 0
-0.137562 2.774134 0.515926 0 0.707106781 0.707106781 0 0
-0.627291 2.764442 0.522293 -0.27330298 0.368104014 0.888709691 0 0
-0.62799 2.76427 0.521877 -0.811787117 0.223496453 0.539491438 0 0
-0.62799 2.773815 0.515607 -0.810587849 0.414093793 0.414093793 0 0
-0.627291 2.774134 0.515926 -0.273294948 0.680187427 0.680187427 0 0
-0.381961 2.780501 0.506234 0 0.923876672 0.382690337 0 0
-0.565492 2.780501 0.506234 0 0.923876672 0.382690337 0 0
-0.137562 2.780501 0.506234 0 0.923876672 0.382690337 0 0
-0.627291 2.780501 0.506234 -0.27330298 0.888709691 0.368104014 0 0
-0.62799 2.780085 0.506062 -0.811787117 0.539491438 0.223496453 0 0
-0.628223 2.778838 0.505545 -0.995433522 0.0882029703 0.0365012292 0 0
-0.628223 2.781048 0.494879 -0.995371946 0.0960972915 0 0 0
-0.628223 2.772858 0.51465 -0.995379107 0.0678985748 0.0678985748 0 0
-0.628223 2.770752 0.512544 -1 0 0 0 0
-0.628223 2.776095 0.504409 -1 0 0 0 0
-0.628223 2.778069 0.494879 -1 0 0 0 0
-0.628223 2.763753 0.520631 -0.995433522 0.0365012292 0.0882029703 0 0
-0.628223 2.753086 0.52284 -0.995371946 0 0.0960972915 0 0
-0.628223 2.753086 0.519862 -1 0 0 0 0
-0.628223 2.762617 0.517888 -1 0 0 0 0
-0.628223 2.742419 0.520631 -0.995424737 -0.0365009071 0.0883021943 0 0
-0.628223 2.733315 0.51465 -0.995379107 -0.0678985748 0.0678985748 0 0
-0.628223 2.735421 0.512544 -1 0 0 0 0
-0.628223 2.743556 0.517888 -1 0 0 0 0
-0.628223 2.727334 0.505545 -0.995433522 -0.0882029703 0.0365012292 0 0
-0.628223 2.725125 0.494879 -0.995371946 -0.0960972915 0 0 0
-0.628223 2.728103 0.494879 -1 0 0 0 0
-0.628223 2.730077 0.504409 -1 0 0 0 0
-0.628223 2.727334 0.484212 -0.995433522 -0.0882029703 -0.0365012292 0 0
-0.628223 2.733315 0.475107 -0.995379107 -0.0678985748 -0.0678985748 0 0
-0.628223 2.735421 0.477213 -1 0 0 0 0
-0.628223 2.730077 0.485348 -1 0 0 0 0
-0.628223 2.742419 0.469126 -0.995424737 -0.0365009071 -0.0883021943 0 0
-0.628223 2.753086 0.466917 -0.995371946 0 -0.0960972915 0 0
-0.628223 2.753086 0.469896 -1 0 0 0 0
-0.628223 2.743556 0.471869 -1 0 0 0 0
-0.628223 2.763753 0.469126 -0.995424737 0.0365009071 -0.0883021943 0 0
-0.628223 2.772858 0.475107 -0.995379107 0.0678985748 -0.0678985748 0 0
-0.628223 2.770752 0.477213 -1 0 0 0 0
-0.628223 2.762617 0.471869 -1 0 0 0 0
-0.628223 2.778838 0.484212 -0.995424737 0.0883021943 -0.0365009071 0 0
-0.628223 2.776095 0.485348 -1 0 0 0 0
-0.628223 2.771191 0.487379 -1 0 0 0 0
-0.628223 2.766986 0.480979 -1 0 0 0 0
-0.628223 2.772744 0.494879 -1 0 0 0 0
-0.628223 2.766245 0.494879 -1 0 0 0 0
-0.628223 2.765205 0.489859 -1 0 0 0 0
-0.628223 2.762391 0.485574 -1 0 0 0 0
-0.628223 2.760585 0.476774 -1 0 0 0 0
-0.628223 2.753086 0.475221 -1 0 0 0 0
-0.628223 2.758106 0.48276 -1 0 0 0 0
-0.628223 2.753086 0.48172 -1 0 0 0 0
-0.628223 2.745587 0.476774 -1 0 0 0 0
-0.628223 2.739187 0.480979 -1 0 0 0 0
-0.628223 2.748067 0.48276 -1 0 0 0 0
-0.628223 2.743782 0.485574 -1 0 0 0 0
-0.628223 2.734982 0.487379 -1 0 0 0 0
-0.628223 2.733429 0.494879 -1 0 0 0 0
-0.628223 2.740968 0.489859 -1 0 0 0 0
-0.628223 2.739928 0.494879 -1 0 0 0 0
-0.628223 2.734982 0.502378 -1 0 0 0 0
-0.628223 2.739187 0.508778 -1 0 0 0 0
-0.628223 2.740968 0.499898 -1 0 0 0 0
-0.628223 2.743782 0.504183 -1 0 0 0 0
-0.628223 2.745587 0.512983 -1 0 0 0 0
-0.628223 2.753086 0.514536 -1 0 0 0 0
-0.628223 2.748067 0.506997 -1 0 0 0 0
-0.628223 2.753086 0.508037 -1 0 0 0 0
-0.628223 2.760585 0.512983 -1 0 0 0 0
-0.628223 2.766986 0.508778 -1 0 0 0 0
-0.628223 2.758106 0.506997 -1 0 0 0 0
-0.628223 2.762391 0.504183 -1 0 0 0 0
-0.628223 2.771191 0.502378 -1 0 0 0 0
-0.628223 2.765205 0.499898 -1 0 0 0 0
-0.049032 2.7805 0.483523 0 0.923876672 -0.382690337 0 0
-0.29343 2.774134 0.473831 0 0.707106781 -0.707106781 0 0
-0.29343 2.780501 0.483523 0 0.923876672 -0.382690337 0 0
-0.049032 2.774134 0.473831 0 0.707106781 -0.707106781 0 0
0.1345 2.774134 0.473831 0 0.707106781 -0.707106781 0 0
0.1345 2.7805 0.483523 0 0.923876672 -0.382690337 0 0
0.1345 2.782852 0.494879 0 1 0 0 0
-0.049032 2.782852 0.494879 0 1 0 0 0
-0.29343 2.782852 0.494879 0 1 0 0 0
0.196299 2.7805 0.483523 0.273210445 0.888733977 -0.368114073 0 0
0.196299 2.774134 0.473831 0.273202415 0.680206013 -0.680206013 0 0
0.196998 2.773815 0.47415 0.810553551 0.41412736 -0.41412736 0 0
0.196998 2.780085 0.483695 0.811709213 0.539606125 -0.223502537 0 0
0.196998 2.782401 0.494879 0.810518342 0.585713255 0 0 0
0.196299 2.782852 0.494879 0.273215048 0.961952981 0 0 0
-0.049032 2.764442 0.467464 0 0.382690337 -0.923876672 0 0
-0.29343 2.764442 0.467464 0 0.382690337 -0.923876672 0 0
-0.29343 2.753086 0.465113 0 0 -1 0 0
-0.049032 2.753086 0.465113 0 0 -1 0 0
0.1345 2.753086 0.465113 0 0 -1 0 0
0.1345 2.764442 0.467464 0 0.382690337 -0.923876672 0 0
0.196299 2.764442 0.467464 0.27330298 0.368104014 -0.888709691 0 0
0.196299 2.753086 0.465113 0.273307584 0 -0.961926694 0 0
0.196998 2.753086 0.465564 0.810518342 0 -0.585713255 0 0
0.196998 2.76427 0.46788 0.811787117 0.223496453 -0.539491438 0 0
-0.049032 2.741731 0.467464 0 -0.382690337 -0.923876672 0 0
-0.29343 2.741731 0.467464 0 -0.382690337 -0.923876672 0 0
-0.29343 2.732038 0.473831 0 -0.707106781 -0.707106781 0 0
-0.049032 2.732038 0.473831 0 -0.707106781 -0.707106781 0 0
0.1345 2.732038 0.473831 0 -0.707106781 -0.707106781 0 0
0.1345 2.741731 0.467464 0 -0.382690337 -0.923876672 0 0
0.196299 2.741731 0.467464 0.27330298 -0.368104014 -0.888709691 0 0
0.196299 2.732038 0.473831 0.273202415 -0.680206013 -0.680206013 0 0
0.196998 2.732358 0.47415 0.810553551 -0.41412736 -0.41412736 0 0
0.196998 2.741903 0.46788 0.811787117 -0.223496453 -0.539491438 0 0
-0.049032 2.725672 0.483523 0 -0.923876672 -0.382690337 0 0
-0.29343 2.72332 0.494879 0 -1 0 0 0
-0.29343 2.725672 0.483523 0 -0.923876672 -0.382690337 0 0
-0.049032 2.72332 0.494879 0 -1 0 0 0
0.1345 2.72332 0.494879 0 -1 0 0 0
0.1345 2.725672 0.483523 0 -0.923876672 -0.382690337 0 0
0.196299 2.725672 0.483523 0.27330298 -0.888709691 -0.368104014 0 0
0.196299 2.72332 0.494879 0.273307584 -0.961926694 0 0 0
0.196998 2.723772 0.494879 0.810600113 -0.585600082 0 0 0
0.196998 2.726088 0.483695 0.811787117 -0.539491438 -0.223496453 0 0
-0.049032 2.725672 0.506234 0 -0.923876672 0.382690337 0 0
-0.29343 2.725672 0.506234 0 -0.923876672 0.382690337 0 0
-0.29343 2.732038 0.515926 0 -0.707106781 0.707106781 0 0
-0.049032 2.732038 0.515926 0 -0.707106781 0.707106781 0 0
0.1345 2.732038 0.515926 0 -0.707106781 0.707106781 0 0
0.1345 2.725672 0.506234 0 -0.923876672 0.382690337 0 0
0.196299 2.725672 0.506234 0.27330298 -0.888709691 0.368104014 0 0
0.196299 2.732038 0.515926 0.273202415 -0.680206013 0.680206013 0 0
0.196998 2.732358 0.515607 0.810553551 -0.41412736 0.41412736 0 0
0.196998 2.726088 0.506062 0.811787117 -0.539491438 0.223496453 0 0
-0.049032 2.741731 0.522293 0 -0.382690337 0.923876672 0 0
-0.29343 2.741731 0.522293 0 -0.382690337 0.923876672 0 0
-0.29343 2.753086 0.524645 0 0 1 0 0
-0.049032 2.753086 0.524645 0 0 1 0 0
0.1345 2.753086 0.524644 0 0 1 0 0
0.1345 2.741731 0.522293 0 -0.382690337 0.923876672 0 0
0.196299 2.741731 0.522293 0.27330298 -0.368104014 0.888709691 0 0
0.196299 2.753086 0.524644 0.273215048 0 0.961952981 0 0
0.196998 2.753086 0.524193 0.810518342 0 0.585713255 0 0
0.196998 2.741903 0.521877 0.811787117 -0.223496453 0.539491438 0 0
-0.049032 2.764442 0.522293 0 0.382690337 0.923876672 0 0
-0.29343 2.764442 0.522293 0 0.382690337 0.923876672 0 0
-0.29343 2.774134 0.515926 0 0.707106781 0.707106781 0 0
-0.049032 2.774134 0.515926 0 0.707106781 0.707106781 0 0
0.1345 2.774134 0.515926 0 0.707106781 0.707106781 0 0
0.1345 2.764442 0.522293 0 0.382690337 0.923876672 0 0
0.196299 2.764442 0.522293 0.27330298 0.368104014 0.888709691 0 0
0.196299 2.774134 0.515926 0.273202415 0.680206013 0.680206013 0 0
0.196998 2.773815 0.515607 0.810553551 0.41412736 0.41412736 0 0
0.196998 2.76427 0.521877 0.811787117 0.223496453 0.539491438 0 0
-0.049032 2.7805 0.506234 0 0.923876672 0.382690337 0 0
0.1345 2.7805 0.506234 0 0.923876672 0.382690337 0 0
-0.29343 2.780501 0.506234 0 0.923876672 0.382690337 0 0
0.196299 2.7805 0.506234 0.273210445 0.888733977 0.368114073 0 0
0.196998 2.780085 0.506062 0.811709213 0.539606125 0.223502537 0 0
0.197231 2.778838 0.505545 0.995421098 0.0883018716 0.0366007758 0 0
0.197231 2.781048 0.494879 0.995371946 0.0960972915 0 0 0
0.197231 2.778069 0.494879 1 0 0 0 0
0.197231 2.776095 0.504409 1 0 0 0 0
0.197231 2.770752 0.512544 1 0 0 0 0
0.197231 2.772858 0.51465 0.995379107 0.0678985748 0.0678985748 0 0
0.197231 2.763753 0.520631 0.995421098 0.0366007758 0.0883018716 0 0
0.197231 2.762617 0.517888 1 0 0 0 0
0.197231 2.753086 0.519861 1 0 0 0 0
0.197231 2.753086 0.52284 0.995371946 0 0.0960972915 0 0
0.197231 2.742419 0.520631 0.995424737 -0.0365009071 0.0883021943 0 0
0.197231 2.743556 0.517888 1 0 0 0 0
0.197231 2.735421 0.512544 1 0 0 0 0
0.197231 2.733315 0.51465 0.995379107 -0.0678985748 0.0678985748 0 0
0.197231 2.727334 0.505545 0.995433522 -0.0882029703 0.0365012292 0 0
0.197231 2.730077 0.504409 1 0 0 0 0
0.197231 2.728103 0.494879 1 0 0 0 0
0.197231 2.725125 0.494879 0.995371946 -0.0960972915 0 0 0
0.197231 2.727334 0.484212 0.995433522 -0.0882029703 -0.0365012292 0 0
0.197231 2.730077 0.485348 1 0 0 0 0
0.197231 2.735421 0.477213 1 0 0 0 0
0.197231 2.733315 0.475107 0.995379107 -0.0678985748 -0.0678985748 0 0
0.197231 2.742419 0.469126 0.995424737 -0.0365009071 -0.0883021943 0 0
0.197231 2.743556 0.471869 1 0 0 0 0
0.197231 2.753086 0.469896 1 0 0 0 0
0.197231 2.753086 0.466917 0.995371946 0 -0.0960972915 0 0
0.197231 2.763753 0.469126 0.995421098 0.0366007758 -0.0883018716 0 0
0.197231 2.762617 0.471869 1 0 0 0 0
0.197231 2.770752 0.477213 1 0 0 0 0
0.197231 2.772858 0.475107 0.995379107 0.0678985748 -0.0678985748 0 0
0.197231 2.778838 0.484212 0.995421098 0.0883018716 -0.0366007758 0 0
0.197231 2.776095 0.485348 1 0 0 0 0
0.197231 2.771191 0.487379 1 0 0 0 0
0.197231 2.766986 0.480979 1 0 0 0 0
0.197231 2.762391 0.485574 1 0 0 0 0
0.197231 2.765205 0.489859 1 0 0 0 0
0.197231 2.766245 0.494879 1 0 0 0 0
0.197231 2.772744 0.494879 1 0 0 0 0
0.197231 2.760585 0.476774 1 0 0 0 0
0.197231 2.753086 0.475221 1 0 0 0 0
0.197231 2.753086 0.48172 1 0 0 0 0
0.197231 2.758106 0.48276 1 0 0 0 0
0.197231 2.745587 0.476774 1 0 0 0 0
0.197231 2.739186 0.480979 1 0 0 0 0
0.197231 2.743782 0.485574 1 0 0 0 0
0.197231 2.748066 0.48276 1 0 0 0 0
0.197231 2.734982 0.487379 1 0 0 0 0
0.197231 2.733429 0.494879 1 0 0 0 0
0.197231 2.739928 0.494879 1 0 0 0 0
0.197231 2.740968 0.489859 1 0 0 0 0
0.197231 2.734982 0.502378 1 0 0 0 0
0.197231 2.739186 0.508778 1 0 0 0 0
0.197231 2.743782 0.504183 1 0 0 0 0
0.197231 2.740968 0.499898 1 0 0 0 0
0.197231 2.745587 0.512983 1 0 0 0 0
0.197231 2.753086 0.514536 1 0 0 0 0
0.197231 2.753086 0.508037 1 0 0 0 0
0.197231 2.748066 0.506997 1 0 0 0 0
0.197231 2.760585 0.512983 1 0 0 0 0
0.197231 2.766986 0.508778 1 0 0 0 0
0.197231 2.762391 0.504183 1 0 0 0 0
0.197231 2.758106 0.506997 1 0 0 0 0
0.197231 2.771191 0.502378 1 0 0 0 0
0.197231 2.765205 0.499898 1 0 0 0 0
3 0 1 2
3 0 3 1
3 0 4 3
3 0 5 4
3 0 6 5
3 0 7 6
3 0 8 7
3 0 2 8
3 9 8 10
3 9 7 8
3 9 6 7
3 9 11 6
3 9 12 11
3 9 13 12
3 9 14 13
3 9 10 14
3 15 1 16
3 15 2 1
3 15 8 2
3 15 17 8
3 15 18 17
3 15 19 18
3 15 20 19
3 15 16 20
3 21 8 17
3 21 10 8
3 21 14 10
3 21 22 14
3 21 23 22
3 21 24 23
3 21 18 24
3 21 17 18
3 25 20 26
3 25 19 20
3 25 18 19
3 25 27 18
3 25 28 27
3 25 29 28
3 25 30 29
3 25 26 30
3 31 18 27
3 31 24 18
3 31 23 24
3 31 32 23
3 31 33 32
3 31 34 33
3 31 28 34
3 31 27 28
3 35 36 37
3 35 38 36
3 35 30 38
3 35 29 30
3 35 28 29
3 35 39 28
3 35 40 39
3 35 37 40
3 41 40 42
3 41 39 40
3 41 28 39
3 41 34 28
3 41 33 34
3 41 43 33
3 41 44 43
3 41 42 44
3 45 36 46
3 45 37 36
3 45 40 37
3 45 47 40
3 45 48 47
3 45 49 48
3 45 50 49
3 45 46 50
3 51 40 47
3 51 42 40
3 51 44 42
3 51 52 44
3 51 53 52
3 51 54 53
3 51 48 54
3 51 47 48
3 55 50 56
3 55 49 50
3 55 48 49
3 55 57 48
3 55 58 57
3 55 59 58
3 55 60 59
3 55 56 60
3 61 48 57
3 61 54 48
3 61 53 54
3 61 62 53
3 61 63 62
3 61 64 63
3 61 58 64
3 61 57 58
3 65 60 66
3 65 59 60
3 65 58 59
3 65 67 58
3 65 68 67
3 65 69 68
3 65 70 69
3 65 66 70
3 71 58 67
3 71 64 58
3 71 63 64
3 71 72 63
3 71 73 72
3 71 74 73
3 71 68 74
3 71 67 68
3 75 6 76
3 75 5 6
3 75 4 5
3 75 77 4
3 75 70 77
3 75 69 70
3 75 68 69
3 75 76 68
3 78 68 76
3 78 74 68
3 78 73 74
3 78 79 73
3 78 12 79
3 78 11 12
3 78 6 11
3 78 76 6
3 80 12 81
3 80 79 12
3 80 73 79
3 80 82 73
3 80 83 82
3 80 84 83
3 80 85 84
3 80 81 85
3 86 73 82
3 86 72 73
3 86 63 72
3 86 87 63
3 86 88 87
3 86 89 88
3 86 83 89
3 86 82 83
3 90 63 87
3 90 62 63
3 90 53 62
3 90 91 53
3 90 92 91
3 90 93 92
3 90 88 93
3 90 87 88
3 94 53 91
3 94 52 53
3 94 44 52
3 94 95 44
3 94 96 95
3 94 97 96
3 94 92 97
3 94 91 92
3 98 44 95
3 98 43 44
3 98 33 43
3 98 99 33
3 98 100 99
3 98 101 100
3 98 96 101
3 98 95 96
3 102 33 99
3 102 32 33
3 102 23 32
3 102 103 23
3 102 104 103
3 102 105 104
3 102 100 105
3 102 99 100
3 106 23 103
3 106 22 23
3 106 14 22
3 106 107 14
3 106 108 107
3 106 109 108
3 106 104 109
3 106 103 104
3 110 14 107
3 110 13 14
3 110 12 13
3 110 81 12
3 110 85 81
3 110 111 85
3 110 108 111
3 110 107 108
3 112 108 113
3 112 111 108
3 112 85 111
3 112 114 85
3 112 115 114
3 112 116 115
3 112 117 116
3 112 113 117
3 118 104 119
3 118 109 104
3 118 108 109
3 118 113 108
3 118 117 113
3 118 120 117
3 118 121 120
3 118 119 121
3 122 100 123
3 122 105 100
3 122 104 105
3 122 119 104
3 122 121 119
3 122 124 121
3 122 125 124
3 122 123 125
3 126 96 127
3 126 101 96
3 126 100 101
3 126 123 100
3 126 125 123
3 126 128 125
3 126 129 128
3 126 127 129
3 130 92 131
3 130 97 92
3 130 96 97
3 130 127 96
3 130 129 127
3 130 132 129
3 130 133 132
3 130 131 133
3 134 88 135
3 134 93 88
3 134 92 93
3 134 131 92
3 134 133 131
3 134 136 133
3 134 137 136
3 134 135 137
3 138 83 139
3 138 89 83
3 138 88 89
3 138 135 88
3 138 137 135
3 138 140 137
3 138 141 140
3 138 139 141
3 142 85 114
3 142 84 85
3 142 83 84
3 142 139 83
3 142 141 139
3 142 143 141
3 142 115 143
3 142 114 115
3 144 145 146
3 144 147 145
3 144 148 147
3 144 149 148
3 144 150 149
3 144 151 150
3 144 152 151
3 144 146 152
3 153 148 149
3 153 154 148
3 153 155 154
3 153 156 155
3 153 157 156
3 153 158 157
3 153 150 158
3 153 149 150
3 159 145 147
3 159 160 145
3 159 161 160
3 159 162 161
3 159 163 162
3 159 164 163
3 159 148 164
3 159 147 148
3 165 148 154
3 165 164 148
3 165 163 164
3 165 166 163
3 165 167 166
3 165 168 167
3 165 155 168
3 165 154 155
3 169 161 162
3 169 170 161
3 169 171 170
3 169 172 171
3 169 173 172
3 169 174 173
3 169 163 174
3 169 162 163
3 175 163 166
3 175 174 163
3 175 173 174
3 175 176 173
3 175 177 176
3 175 178 177
3 175 167 178
3 175 166 167
3 179 180 181
3 179 182 180
3 179 183 182
3 179 184 183
3 179 173 184
3 179 172 173
3 179 171 172
3 179 181 171
3 185 183 184
3 185 186 183
3 185 187 186
3 185 188 187
3 185 177 188
3 185 176 177
3 185 173 176
3 185 184 173
3 189 180 182
3 189 190 180
3 189 191 190
3 189 192 191
3 189 193 192
3 189 194 193
3 189 183 194
3 189 182 183
3 195 183 186
3 195 194 183
3 195 193 194
3 195 196 193
3 195 197 196
3 195 198 197
3 195 187 198
3 195 186 187
3 199 191 192
3 199 200 191
3 199 201 200
3 199 202 201
3 199 203 202
3 199 204 203
3 199 193 204
3 199 192 193
3 205 193 196
3 205 204 193
3 205 203 204
3 205 206 203
3 205 207 206
3 205 208 207
3 205 197 208
3 205 196 197
3 209 201 202
3 209 210 201
3 209 211 210
3 209 212 211
3 209 213 212
3 209 214 213
3 209 203 214
3 209 202 203
3 215 203 206
3 215 214 203
3 215 213 214
3 215 216 213
3 215 217 216
3 215 218 217
3 215 207 218
3 215 206 207
3 219 150 151
3 219 220 150
3 219 213 220
3 219 212 213
3 219 211 212
3 219 221 211
3 219 152 221
3 219 151 152
3 222 213 216
3 222 220 213
3 222 150 220
3 222 158 150
3 222 157 158
3 222 223 157
3 222 217 223
3 222 216 217
3 224 157 223
3 224 225 157
3 224 226 225
3 224 227 226
3 224 228 227
3 224 229 228
3 224 217 229
3 224 223 217
3 230 217 218
3 230 229 217
3 230 228 229
3 230 231 228
3 230 232 231
3 230 233 232
3 230 207 233
3 230 218 207
3 234 207 208
3 234 233 207
3 234 232 233
3 234 235 232
3 234 236 235
3 234 237 236
3 234 197 237
3 234 208 197
3 238 197 198
3 238 237 197
3 238 236 237
3 238 239 236
3 238 240 239
3 238 241 240
3 238 187 241
3 238 198 187
3 242 187 188
3 242 241 187
3 242 240 241
3 242 243 240
3 242 244 243
3 242 245 244
3 242 177 245
3 242 188 177
3 246 177 178
3 246 245 177
3 246 244 245
3 246 247 244
3 246 248 247
3 246 249 248
3 246 167 249
3 246 178 167
3 250 167 168
3 250 249 167
3 250 248 249
3 250 251 248
3 250 252 251
3 250 253 252
3 250 155 253
3 250 168 155
3 254 155 156
3 254 253 155
3 254 252 253
3 254 255 252
3 254 226 255
3 254 225 226
3 254 157 225
3 254 156 157
3 256 252 255
3 256 257 252
3 256 258 257
3 256 259 258
3 256 260 259
3 256 261 260
3 256 226 261
3 256 255 226
3 262 248 251
3 262 263 248
3 262 264 263
3 262 265 264
3 262 258 265
3 262 257 258
3 262 252 257
3 262 251 252
3 266 244 247
3 266 267 244
3 266 268 267
3 266 269 268
3 266 264 269
3 266 263 264
3 266 248 263
3 266 247 248
3 270 240 243
3 270 271 240
3 270 272 271
3 270 273 272
3 270 268 273
3 270 267 268
3 270 244 267
3 270 243 244
3 274 236 239
3 274 275 236
3 274 276 275
3 274 277 276
3 274 272 277
3 274 271 272
3 274 240 271
3 274 239 240
3 278 232 235
3 278 279 232
3 278 280 279
3 278 281 280
3 278 276 281
3 278 275 276
3 278 236 275
3 278 235 236
3 282 228 231
3 282 283 228
3 282 284 283
3 282 285 284
3 282 280 285
3 282 279 280
3 282 232 279
3 282 231 232
3 286 226 227
3 286 261 226
3 286 260 261
3 286 287 260
3 286 284 287
3 286 283 284
3 286 228 283
3 286 227 228
