ply
format ascii 1.0
element vertex 300
property float x
property float y
property float z
property float nx
property float ny
property float nz
property float u
property float v
element face 576
property list uchar int vertex_indices
end_header
1.842412 0.151156 2.877107 -0.004000056 0.866012124 -0.500007 0 0
1.843106 0.150237 2.876024 -0.2797986 0.480097597 -0.831395839 0 0
1.842412 0.150191 2.876104 -0.00410005574 0.500006798 -0.866011773 0 0
1.843106 0.151235 2.877062 -0.276215195 0.832345789 -0.480526434 0 0
1.843106 0.151634 2.878445 -0.279788802 0.960061574 0 0 0
1.842412 0.151542 2.878445 -0.00409996554 0.999991595 0 0 0
1.84133 0.151676 2.878445 0.173505787 0.98483285 0 0 0
1.84133 0.151271 2.877041 0.171610217 0.853150794 -0.49262933 0 0
1.84133 0.150258 2.875988 0.173500137 0.492400389 -0.852900674 0 0
1.842412 0.148839 2.875769 -0.00409996554 0 -0.999991595 0 0
1.843106 0.147441 2.876024 -0.2797986 -0.480097597 -0.831395839 0 0
1.842412 0.147487 2.876104 -0.00410005574 -0.500006798 -0.866011773 0 0
1.843106 0.148839 2.875679 -0.276292416 0 -0.961073619 0 0
1.84133 0.148839 2.875637 0.171497317 0 -0.985184587 0 0
1.84133 0.14742 2.875988 0.173500137 -0.492400389 -0.852900674 0 0
1.842412 0.146522 2.877107 -0.004000056 -0.866012124 -0.500007 0 0
1.843106 0.146044 2.878445 -0.279788802 -0.960061574 0 0 0
1.842412 0.146136 2.878445 -0.00409996554 -0.999991595 0 0 0
1.843106 0.146443 2.877062 -0.276192205 -0.832376507 -0.480486438 0 0
1.84133 0.146407 2.877041 0.171610217 -0.853150794 -0.49262933 0 0
1.84133 0.146002 2.878445 0.173505787 -0.98483285 0 0 0
1.842412 0.146522 2.879783 -0.004000056 -0.866012124 0.500007 0 0
1.843106 0.146443 2.879828 -0.276215195 -0.832345789 0.480526434 0 0
1.84133 0.146407 2.879849 0.171610217 -0.853150794 0.49262933 0 0
1.84133 0.14742 2.880902 0.173500137 -0.492400389 0.852900674 0 0
1.842412 0.147487 2.880786 -0.00410005574 -0.500006798 0.866011773 0 0
1.843106 0.147441 2.880866 -0.279890767 -0.480084162 0.831372573 0 0
1.842412 0.148839 2.881121 -0.003999968 0 0.999992 0 0
1.843106 0.150237 2.880866 -0.279890767 0.480084162 0.831372573 0 0
1.842412 0.150191 2.880786 -0.00410005574 0.500006798 0.866011773 0 0
1.843106 0.148839 2.881211 -0.276411339 0 0.961039423 0 0
1.84133 0.148839 2.881253 0.171497317 0 0.985184587 0 0
1.84133 0.150258 2.880902 0.173500137 0.492400389 0.852900674 0 0
1.842412 0.151156 2.879783 -0.004000056 0.866012124 0.500007 0 0
1.84133 0.151271 2.879849 0.171610217 0.853150794 0.49262933 0 0
1.843106 0.151235 2.879828 -0.276215195 0.832345789 0.480526434 0 0
1.833946 0.154373 2.87525 0.416505269 0.78730996 -0.454605751 0 0
1.835141 0.151707 2.873478 0.567613248 0.411609607 -0.713016642 0 0
1.833946 0.152067 2.872853 0.419011588 0.454012556 -0.786321746 0 0
1.835141 0.153755 2.875607 0.564413924 0.714917637 -0.412710182 0 0
1.835141 0.154574 2.878445 0.567534297 0.823349757 0 0 0
1.833946 0.155296 2.878445 0.418994763 0.90798865 0 0 0
1.832621 0.155759 2.878445 0.212300942 0.977204334 0 0 0
1.832621 0.154771 2.87502 0.210913842 0.846555557 -0.488732074 0 0
1.832621 0.152299 2.872452 0.212410816 0.488624881 -0.846243092 0 0
1.831081 0.154903 2.874944 0 0.866019053 -0.500011 0 0
1.831081 0.152376 2.872318 0 0.500011 -0.866019053 0 0
1.831081 0.155914 2.878445 0 1 0 0 0
1.829541 0.155759 2.878445 -0.212300942 0.977204334 0 0 0
1.829541 0.154771 2.87502 -0.210913842 0.846555557 -0.488732074 0 0
1.829541 0.152299 2.872452 -0.212410816 0.488624881 -0.846243092 0 0
1.828217 0.154373 2.87525 -0.448806084 0.77391049 -0.446806056 0 0
1.828217 0.152067 2.872853 -0.450929557 0.446329256 -0.772950665 0 0
1.828217 0.155296 2.878445 -0.450929974 0.89255933 0 0 0
1.827052 0.154462 2.878445 -0.668401003 0.743801116 0 0 0
1.827052 0.153659 2.875662 -0.666221822 0.645821154 -0.372912215 0 0
1.827052 0.15165 2.873575 -0.668422399 0.371912463 -0.644121585 0 0
1.833946 0.148839 2.872054 0.416513524 0 -0.90912952 0 0
1.835141 0.145971 2.873478 0.567613248 -0.411609607 -0.713016642 0 0
1.833946 0.145611 2.872853 0.419011588 -0.454012556 -0.786321746 0 0
1.835141 0.148839 2.872769 0.564515409 0 -0.82542253 0 0
1.832621 0.148839 2.871596 0.210901575 0 -0.977507302 0 0
1.832621 0.145379 2.872452 0.212410816 -0.488624881 -0.846243092 0 0
1.831081 0.148839 2.871443 0 0 -1 0 0
1.831081 0.145302 2.872318 0 -0.500011 -0.866019053 0 0
1.829541 0.148839 2.871596 -0.210901575 0 -0.977507302 0 0
1.829541 0.145379 2.872452 -0.212410816 -0.488624881 -0.846243092 0 0
1.828217 0.148839 2.872054 -0.448733062 0 -0.893665843 0 0
1.828217 0.145611 2.872853 -0.450929557 -0.446329256 -0.772950665 0 0
1.827052 0.148839 2.87288 -0.666291945 0 -0.745690985 0 0
1.827052 0.146028 2.873575 -0.668422399 -0.371912463 -0.644121585 0 0
1.833946 0.143305 2.87525 0.416524203 -0.78734575 -0.454526411 0 0
1.835141 0.143104 2.878445 0.567534297 -0.823349757 0 0 0
1.833946 0.142382 2.878445 0.418994763 -0.90798865 0 0 0
1.835141 0.143923 2.875607 0.564413924 -0.714917637 -0.412710182 0 0
1.832621 0.142907 2.87502 0.210913842 -0.846555557 -0.488732074 0 0
1.832621 0.141919 2.878445 0.212396432 -0.977183583 0 0 0
1.831081 0.142775 2.874944 0 -0.866019053 -0.500011 0 0
1.831081 0.141764 2.878445 0 -1 0 0 0
1.829541 0.142907 2.87502 -0.210913842 -0.846555557 -0.488732074 0 0
1.829541 0.141919 2.878445 -0.212396432 -0.977183583 0 0 0
1.828217 0.143305 2.87525 -0.44872622 -0.773945223 -0.446826109 0 0
1.828217 0.142382 2.878445 -0.450929974 -0.89255933 0 0 0
1.827052 0.144019 2.875662 -0.666221822 -0.645821154 -0.372912215 0 0
1.827052 0.143216 2.878445 -0.668401003 -0.743801116 0 0 0
1.833946 0.143305 2.88164 0.416505269 -0.78730996 0.454605751 0 0
1.835141 0.143923 2.881283 0.564322477 -0.714928476 0.412816443 0 0
1.832621 0.142907 2.88187 0.211009396 -0.846537697 0.488721763 0 0
1.832621 0.145379 2.884438 0.212410816 -0.488624881 0.846243092 0 0
1.833946 0.145611 2.884037 0.419011588 -0.454012556 0.786321746 0 0
1.835141 0.145971 2.883412 0.567589883 -0.411692662 0.712987291 0 0
1.831081 0.142775 2.881946 0 -0.866019053 0.500011 0 0
1.829541 0.142907 2.88187 -0.211009396 -0.846537697 0.488721763 0 0
1.829541 0.145379 2.884438 -0.212410816 -0.488624881 0.846243092 0 0
1.831081 0.145302 2.884572 0 -0.500011 0.866019053 0 0
1.828217 0.143305 2.88164 -0.448806084 -0.77391049 0.446806056 0 0
1.827052 0.144019 2.881227 -0.666221822 -0.645821154 0.372912215 0 0
1.827052 0.146028 2.883315 -0.668422399 -0.371912463 0.644121585 0 0
1.828217 0.145611 2.884037 -0.451029352 -0.446229039 0.772950301 0 0
1.833946 0.148839 2.884835 0.416513524 0 0.90912952 0 0
1.835141 0.151707 2.883412 0.567589883 0.411692662 0.712987291 0 0
1.833946 0.152067 2.884037 0.419011588 0.454012556 0.786321746 0 0
1.835141 0.148839 2.884121 0.564447269 0 0.825469128 0 0
1.832621 0.148839 2.885294 0.210901575 0 0.977507302 0 0
1.832621 0.152299 2.884438 0.212410816 0.488624881 0.846243092 0 0
1.831081 0.148839 2.885447 0 0 1 0 0
1.831081 0.152376 2.884572 0 0.500011 0.866019053 0 0
1.829541 0.148839 2.885294 -0.210901575 0 0.977507302 0 0
1.829541 0.152299 2.884438 -0.212410816 0.488624881 0.846243092 0 0
1.828217 0.148839 2.884835 -0.448733062 0 0.893665843 0 0
1.828217 0.152067 2.884037 -0.450949684 0.446249166 0.772985164 0 0
1.827052 0.148839 2.88401 -0.66618665 0 0.745785055 0 0
1.827052 0.15165 2.883315 -0.668379344 0.371888507 0.644180092 0 0
1.833946 0.154373 2.88164 0.416505269 0.78730996 0.454605751 0 0
1.835141 0.153755 2.881283 0.564322477 0.714928476 0.412816443 0 0
1.832621 0.154771 2.88187 0.210913842 0.846555557 0.488732074 0 0
1.831081 0.154903 2.881946 0 0.866019053 0.500011 0 0
1.829541 0.154771 2.88187 -0.210913842 0.846555557 0.488732074 0 0
1.828217 0.154373 2.88164 -0.448806084 0.77391049 0.446806056 0 0
1.827052 0.153659 2.881227 -0.666221822 0.645821154 0.372912215 0 0
1.82599 0.152575 2.880602 -0.790223909 0.530716057 0.306409271 0 0
1.82599 0.153197 2.878445 -0.792705767 0.609604435 0 0 0
1.82599 0.151018 2.882219 -0.79263892 0.304814967 0.528025927 0 0
1.82498 0.150278 2.880938 -0.825965785 0.281888323 0.488179778 0 0
1.82498 0.151306 2.879869 -0.823285226 0.491591178 0.283794907 0 0
1.82498 0.151717 2.878445 -0.825986086 0.563690505 0 0 0
1.82599 0.148839 2.882759 -0.790175327 0 0.612880863 0 0
1.82599 0.14666 2.882219 -0.79263892 -0.304814967 0.528025927 0 0
1.82498 0.1474 2.880938 -0.825965785 -0.281888323 0.488179778 0 0
1.82498 0.148839 2.881294 -0.823224067 0 0.567716597 0 0
1.82599 0.145103 2.880602 -0.790223909 -0.530716057 0.306409271 0 0
1.82599 0.144481 2.878445 -0.792705767 -0.609604435 0 0 0
1.82498 0.145961 2.878445 -0.825986086 -0.563690505 0 0 0
1.82498 0.146372 2.879869 -0.823285226 -0.491591178 0.283794907 0 0
1.82599 0.145103 2.876288 -0.790223909 -0.530716057 -0.306409271 0 0
1.82599 0.14666 2.874671 -0.79263892 -0.304814967 -0.528025927 0 0
1.82498 0.1474 2.875952 -0.825965785 -0.281888323 -0.488179778 0 0
1.82498 0.146372 2.877021 -0.823229633 -0.491617696 -0.28391022 0 0
1.82599 0.148839 2.874131 -0.790223754 0 -0.612818422 0 0
1.82599 0.151018 2.874671 -0.79263892 0.304814967 -0.528025927 0 0
1.82498 0.150278 2.875952 -0.825965785 0.281888323 -0.488179778 0 0
1.82498 0.148839 2.875596 -0.823256294 0 -0.567669863 0 0
1.82599 0.152575 2.876288 -0.790223909 0.530716057 -0.306409271 0 0
1.82498 0.151306 2.877021 -0.823229633 0.491617696 -0.28391022 0 0
1.839553 0.151616 2.876842 0.276307567 0.832322793 -0.480513159 0 0
1.839553 0.150459 2.875639 0.27931442 0.480124787 -0.83154293 0 0
1.839553 0.152078 2.878445 0.279301043 0.960203586 0 0 0
1.837676 0.152738 2.878445 0.452485636 0.891771691 0 0 0
1.837676 0.152181 2.876515 0.447613534 0.774423415 -0.447113519 0 0
1.837676 0.150789 2.875068 0.452493133 0.445893234 -0.772288281 0 0
1.836295 0.152959 2.876066 0.588200621 0.700400739 -0.404300427 0 0
1.836295 0.151242 2.874282 0.59270983 0.402706679 -0.697511568 0 0
1.836295 0.153646 2.878445 0.592711128 0.805415122 0 0 0
1.839553 0.148839 2.875239 0.276292416 0 -0.961073619 0 0
1.839553 0.147219 2.875639 0.27931442 -0.480124787 -0.83154293 0 0
1.837676 0.148839 2.874586 0.447613563 0 -0.894227095 0 0
1.837676 0.146889 2.875068 0.452413604 -0.445913409 -0.772323224 0 0
1.836295 0.148839 2.873687 0.588207373 0 -0.808710137 0 0
1.836295 0.146436 2.874282 0.59270983 -0.402706679 -0.697511568 0 0
1.839553 0.146062 2.876842 0.276307567 -0.832322793 -0.480513159 0 0
1.839553 0.1456 2.878445 0.279301043 -0.960203586 0 0 0
1.837676 0.145497 2.876515 0.447613534 -0.774423415 -0.447113519 0 0
1.837676 0.14494 2.878445 0.452485636 -0.891771691 0 0 0
1.836295 0.144719 2.876066 0.588200621 -0.700400739 -0.404300427 0 0
1.836295 0.144032 2.878445 0.592711128 -0.805415122 0 0 0
1.839553 0.146062 2.880048 0.276307567 -0.832322793 0.480513159 0 0
1.837676 0.145497 2.880374 0.447613534 -0.774423415 0.447113519 0 0
1.837676 0.146889 2.881822 0.452493133 -0.445893234 0.772288281 0 0
1.839553 0.147219 2.88125 0.279291194 -0.480084863 0.831573781 0 0
1.836295 0.144719 2.880824 0.588200621 -0.700400739 0.404300427 0 0
1.836295 0.146436 2.882608 0.592751174 -0.40273477 0.697460214 0 0
1.839553 0.148839 2.881651 0.276292416 0 0.961073619 0 0
1.839553 0.150459 2.88125 0.279198993 0.480098269 0.831597002 0 0
1.837676 0.148839 2.882304 0.447613563 0 0.894227095 0 0
1.837676 0.150789 2.881822 0.452493133 0.445893234 0.772288281 0 0
1.836295 0.148839 2.883203 0.588254946 0 0.808675534 0 0
1.836295 0.151242 2.882608 0.592751174 0.40273477 0.697460214 0 0
1.839553 0.151616 2.880048 0.276307567 0.832322793 0.480513159 0 0
1.837676 0.152181 2.880374 0.447613534 0.774423415 0.447113519 0 0
1.836295 0.152959 2.880824 0.588200621 0.700400739 0.404300427 0 0
1.843719 0.15147 2.876926 -0.635079852 0.668978777 -0.386187748 0 0
1.843719 0.151909 2.878445 -0.641678219 0.766973966 0 0 0
1.843719 0.150374 2.875787 -0.6416959 0.383497549 -0.664195756 0 0
1.844292 0.150747 2.875141 -0.883971202 0.233718826 -0.404932617 0 0
1.844292 0.152109 2.876557 -0.880517831 0.410508313 -0.237004799 0 0
1.844292 0.152654 2.878445 -0.883931393 0.467616608 0 0 0
1.844865 0.153399 2.875812 -0.944981674 0.283324487 -0.163514132 0 0
1.844865 0.154159 2.878445 -0.946225222 0.323508623 0 0 0
1.844865 0.151499 2.873838 -0.946222061 0.16170377 -0.280206533 0 0
1.845309 0.152205 2.872615 -0.939805799 0.170901054 -0.295901826 0 0
1.845309 0.15461 2.875113 -0.93893699 0.29801174 -0.172006776 0 0
1.845309 0.155571 2.878445 -0.939775904 0.341791237 0 0 0
1.843719 0.148839 2.875407 -0.635114681 0 -0.772417855 0 0
1.843719 0.147304 2.875787 -0.6416959 -0.383497549 -0.664195756 0 0
1.844292 0.146931 2.875141 -0.883971202 -0.233718826 -0.404932617 0 0
1.844292 0.148839 2.874669 -0.880519262 0 -0.474010369 0 0
1.844865 0.148839 2.87318 -0.94494921 0 -0.32721704 0 0
1.844865 0.146179 2.873838 -0.946222061 -0.16170377 -0.280206533 0 0
1.845309 0.145473 2.872615 -0.939805799 -0.170901054 -0.295901826 0 0
1.845309 0.148839 2.871782 -0.93897324 0 -0.343990196 0 0
1.843719 0.146208 2.876926 -0.635020181 -0.669021262 -0.386212274 0 0
1.843719 0.145769 2.878445 -0.641678219 -0.766973966 0 0 0
1.844292 0.145024 2.878445 -0.883931393 -0.467616608 0 0 0
1.844292 0.145569 2.876557 -0.880517831 -0.410508313 -0.237004799 0 0
1.844865 0.144279 2.875812 -0.944981674 -0.283324487 -0.163514132 0 0
1.844865 0.143519 2.878445 -0.946225222 -0.323508623 0 0 0
1.845309 0.142107 2.878445 -0.939775904 -0.341791237 0 0 0
1.845309 0.143068 2.875113 -0.93893699 -0.29801174 -0.172006776 0 0
1.843719 0.146208 2.879964 -0.635020181 -0.669021262 0.386212274 0 0
1.843719 0.147304 2.881103 -0.641738522 -0.383523022 0.664139866 0 0
1.844292 0.146931 2.881749 -0.883971202 -0.233718826 0.404932617 0 0
1.844292 0.145569 2.880333 -0.880517831 -0.410508313 0.237004799 0 0
1.844865 0.144279 2.881078 -0.944992374 -0.283297714 0.163498681 0 0
1.844865 0.146179 2.883052 -0.946248572 -0.161708301 0.280114379 0 0
1.845309 0.145473 2.884275 -0.939805799 -0.170901054 0.295901826 0 0
1.845309 0.143068 2.881777 -0.93893699 -0.29801174 0.172006776 0 0
1.843719 0.148839 2.881483 -0.635114681 0 0.772417855 0 0
1.843719 0.150374 2.881103 -0.641738522 0.383523022 0.664139866 0 0
1.844292 0.150747 2.881749 -0.883971202 0.233718826 0.404932617 0 0
1.844292 0.148839 2.882221 -0.880477522 0 0.474087897 0 0
1.844865 0.148839 2.88371 -0.944980128 0 0.327127738 0 0
1.844865 0.151499 2.883052 -0.946248572 0.161708301 0.280114379 0 0
1.845309 0.152205 2.884275 -0.939805799 0.170901054 0.295901826 0 0
1.845309 0.148839 2.885108 -0.938961405 0 0.344022498 0 0
1.843719 0.15147 2.879964 -0.635122338 0.668923526 0.386213583 0 0
1.844292 0.152109 2.880333 -0.880517831 0.410508313 0.237004799 0 0
1.844865 0.153399 2.881078 -0.944981674 0.283324487 0.163514132 0 0
1.845309 0.15461 2.881777 -0.93893699 0.29801174 0.172006776 0 0
1.845497 0.155013 2.88201 -0.522802413 0.738203407 0.426301967 0 0
1.845497 0.156042 2.878445 -0.518988572 0.854781178 0 0 0
1.845703 0.156042 2.878445 0 1 0 0 0
1.845703 0.155013 2.88201 0 0.866019053 0.500011 0 0
1.845703 0.152441 2.884683 0 0.500011 0.866019053 0 0
1.845497 0.152441 2.884683 -0.519002496 0.427302055 0.740303561 0 0
1.846201 0.155013 2.88201 0 0.866019053 0.500011 0 0
1.846201 0.156042 2.878445 0 1 0 0 0
1.846699 0.156042 2.878445 0 1 0 0 0
1.846699 0.155013 2.88201 0 0.866019053 0.500011 0 0
1.846699 0.152441 2.884683 0 0.499935994 0.866062354 0 0
1.846201 0.152441 2.884683 0 0.500011 0.866019053 0 0
1.846905 0.155013 2.88201 0 0.866087347 0.499892697 0 0
1.846905 0.156042 2.878445 0 1 0 0 0
1.846965 0.156042 2.878445 0 1 0 0 0
1.846965 0.155013 2.88201 0 0.866155619 0.499774392 0 0
1.846965 0.152441 2.884683 0 0.500472502 0.865752433 0 0
1.846905 0.152441 2.884683 0 0.500204289 0.865907425 0 0
1.845497 0.148839 2.885574 -0.522897341 0 0.852395666 0 0
1.845497 0.145237 2.884683 -0.519002496 -0.427302055 0.740303561 0 0
1.845703 0.148839 2.885574 0 0 1 0 0
1.845703 0.145237 2.884683 0 -0.500011 0.866019053 0 0
1.846201 0.148839 2.885574 0 0 1 0 0
1.846201 0.145237 2.884683 0 -0.500011 0.866019053 0 0
1.846699 0.148839 2.885574 0 0 1 0 0
1.846699 0.145237 2.884683 0 -0.499892697 0.866087347 0 0
1.846905 0.148839 2.885574 0 0 1 0 0
1.846905 0.145237 2.884683 0 -0.500204289 0.865907425 0 0
1.846965 0.148839 2.885574 0 0 1 0 0
1.846965 0.145237 2.884683 0 -0.500472502 0.865752433 0 0
1.845497 0.142665 2.88201 -0.522802413 -0.738203407 0.426301967 0 0
1.845703 0.142665 2.88201 0 -0.866019053 0.500011 0 0
1.845703 0.141636 2.878445 0 -1 0 0 0
1.845497 0.141636 2.878445 -0.518988572 -0.854781178 0 0 0
1.846201 0.142665 2.88201 0 -0.866019053 0.500011 0 0
1.846699 0.142665 2.88201 0 -0.866019053 0.500011 0 0
1.846699 0.141636 2.878445 0 -1 0 0 0
1.846201 0.141636 2.878445 0 -1 0 0 0
1.846905 0.142665 2.88201 0 -0.866087347 0.499892697 0 0
1.846965 0.142665 2.88201 0 -0.866155619 0.499774392 0 0
1.846965 0.141636 2.878445 0 -1 0 0 0
1.846905 0.141636 2.878445 0 -1 0 0 0
1.845497 0.142665 2.87488 -0.522802413 -0.738203407 -0.426301967 0 0
1.845497 0.145237 2.872207 -0.519002496 -0.427302055 -0.740303561 0 0
1.845703 0.142665 2.87488 0 -0.866019053 -0.500011 0 0
1.845703 0.145237 2.872207 0 -0.500011 -0.866019053 0 0
1.846201 0.142665 2.87488 0 -0.866019053 -0.500011 0 0
1.846201 0.145237 2.872207 0 -0.500011 -0.866019053 0 0
1.846699 0.142665 2.87488 0 -0.866019053 -0.500011 0 0
1.846699 0.145237 2.872207 0 -0.499892697 -0.866087347 0 0
1.846905 0.142665 2.87488 0 -0.866087347 -0.499892697 0 0
1.846905 0.145237 2.872207 0 -0.500204289 -0.865907425 0 0
1.846965 0.142665 2.87488 0 -0.866155619 -0.499774392 0 0
1.846965 0.145237 2.872207 0 -0.500472502 -0.865752433 0 0
1.845497 0.148839 2.871315 -0.522897341 0 -0.852395666 0 0
1.845497 0.152441 2.872207 -0.519002496 0.427302055 -0.740303561 0 0
1.845703 0.148839 2.871315 0 0 -1 0 0
1.845703 0.152441 2.872207 0 0.500011 -0.866019053 0 0
1.846201 0.148839 2.871315 0 0 -1 0 0
1.846201 0.152441 2.872207 0 0.500011 -0.866019053 0 0
1.846699 0.148839 2.871315 0 0 -1 0 0
1.846699 0.152441 2.872207 0 0.499935994 -0.866062354 0 0
1.846905 0.148839 2.871315 0 0 -1 0 0
1.846905 0.152441 2.872207 0 0.500204289 -0.865907425 0 0
1.846965 0.148839 2.871315 0 0 -1 0 0
1.846965 0.152441 2.872207 0 0.500472502 -0.865752433 0 0
1.845497 0.155013 2.87488 -0.522802413 0.738203407 -0.426301967 0 0
1.845703 0.155013 2.87488 0 0.866019053 -0.500011 0 0
1.846201 0.155013 2.87488 0 0.866019053 -0.500011 0 0
1.846699 0.155013 2.87488 0 0.866019053 -0.500011 0 0
1.846905 0.155013 2.87488 0 0.866087347 -0.499892697 0 0
1.846965 0.155013 2.87488 0 0.866155619 -0.499774392 0 0
3 0 1 2
3 0 3 1
3 0 4 3
3 0 5 4
3 0 6 5
3 0 7 6
3 0 8 7
3 0 2 8
3 9 10 11
3 9 12 10
3 9 1 12
3 9 2 1
3 9 8 2
3 9 13 8
3 9 14 13
3 9 11 14
3 15 16 17
3 15 18 16
3 15 10 18
3 15 11 10
3 15 14 11
3 15 19 14
3 15 20 19
3 15 17 20
3 21 16 22
3 21 17 16
3 21 20 17
3 21 23 20
3 21 24 23
3 21 25 24
3 21 26 25
3 21 22 26
3 27 28 29
3 27 30 28
3 27 26 30
3 27 25 26
3 27 24 25
3 27 31 24
3 27 32 31
3 27 29 32
3 33 6 34
3 33 5 6
3 33 4 5
3 33 35 4
3 33 28 35
3 33 29 28
3 33 32 29
3 33 34 32
3 36 37 38
3 36 39 37
3 36 40 39
3 36 41 40
3 36 42 41
3 36 43 42
3 36 44 43
3 36 38 44
3 45 44 46
3 45 43 44
3 45 42 43
3 45 47 42
3 45 48 47
3 45 49 48
3 45 50 49
3 45 46 50
3 51 50 52
3 51 49 50
3 51 48 49
3 51 53 48
3 51 54 53
3 51 55 54
3 51 56 55
3 51 52 56
3 57 58 59
3 57 60 58
3 57 37 60
3 57 38 37
3 57 44 38
3 57 61 44
3 57 62 61
3 57 59 62
3 63 62 64
3 63 61 62
3 63 44 61
3 63 46 44
3 63 50 46
3 63 65 50
3 63 66 65
3 63 64 66
3 67 66 68
3 67 65 66
3 67 50 65
3 67 52 50
3 67 56 52
3 67 69 56
3 67 70 69
3 67 68 70
3 71 72 73
3 71 74 72
3 71 58 74
3 71 59 58
3 71 62 59
3 71 75 62
3 71 76 75
3 71 73 76
3 77 76 78
3 77 75 76
3 77 62 75
3 77 64 62
3 77 66 64
3 77 79 66
3 77 80 79
3 77 78 80
3 81 80 82
3 81 79 80
3 81 66 79
3 81 68 66
3 81 70 68
3 81 83 70
3 81 84 83
3 81 82 84
3 85 72 86
3 85 73 72
3 85 76 73
3 85 87 76
3 85 88 87
3 85 89 88
3 85 90 89
3 85 86 90
3 91 76 87
3 91 78 76
3 91 80 78
3 91 92 80
3 91 93 92
3 91 94 93
3 91 88 94
3 91 87 88
3 95 80 92
3 95 82 80
3 95 84 82
3 95 96 84
3 95 97 96
3 95 98 97
3 95 93 98
3 95 92 93
3 99 100 101
3 99 102 100
3 99 90 102
3 99 89 90
3 99 88 89
3 99 103 88
3 99 104 103
3 99 101 104
3 105 104 106
3 105 103 104
3 105 88 103
3 105 94 88
3 105 93 94
3 105 107 93
3 105 108 107
3 105 106 108
3 109 108 110
3 109 107 108
3 109 93 107
3 109 98 93
3 109 97 98
3 109 111 97
3 109 112 111
3 109 110 112
3 113 100 114
3 113 101 100
3 113 104 101
3 113 115 104
3 113 42 115
3 113 41 42
3 113 40 41
3 113 114 40
3 116 104 115
3 116 106 104
3 116 108 106
3 116 117 108
3 116 48 117
3 116 47 48
3 116 42 47
3 116 115 42
3 118 108 117
3 118 110 108
3 118 112 110
3 118 119 112
3 118 54 119
3 118 53 54
3 118 48 53
3 118 117 48
3 120 54 121
3 120 119 54
3 120 112 119
3 120 122 112
3 120 123 122
3 120 124 123
3 120 125 124
3 120 121 125
3 126 97 111
3 126 127 97
3 126 128 127
3 126 129 128
3 126 123 129
3 126 122 123
3 126 112 122
3 126 111 112
3 130 97 127
3 130 96 97
3 130 84 96
3 130 131 84
3 130 132 131
3 130 133 132
3 130 128 133
3 130 127 128
3 134 70 83
3 134 135 70
3 134 136 135
3 134 137 136
3 134 132 137
3 134 131 132
3 134 84 131
3 134 83 84
3 138 56 69
3 138 139 56
3 138 140 139
3 138 141 140
3 138 136 141
3 138 135 136
3 138 70 135
3 138 69 70
3 142 54 55
3 142 121 54
3 142 125 121
3 142 143 125
3 142 140 143
3 142 139 140
3 142 56 139
3 142 55 56
3 144 8 145
3 144 7 8
3 144 6 7
3 144 146 6
3 144 147 146
3 144 148 147
3 144 149 148
3 144 145 149
3 150 149 151
3 150 148 149
3 150 147 148
3 150 152 147
3 150 40 152
3 150 39 40
3 150 37 39
3 150 151 37
3 153 14 154
3 153 13 14
3 153 8 13
3 153 145 8
3 153 149 145
3 153 155 149
3 153 156 155
3 153 154 156
3 157 156 158
3 157 155 156
3 157 149 155
3 157 151 149
3 157 37 151
3 157 60 37
3 157 58 60
3 157 158 58
3 159 20 160
3 159 19 20
3 159 14 19
3 159 154 14
3 159 156 154
3 159 161 156
3 159 162 161
3 159 160 162
3 163 162 164
3 163 161 162
3 163 156 161
3 163 158 156
3 163 58 158
3 163 74 58
3 163 72 74
3 163 164 72
3 165 20 23
3 165 160 20
3 165 162 160
3 165 166 162
3 165 167 166
3 165 168 167
3 165 24 168
3 165 23 24
3 169 162 166
3 169 164 162
3 169 72 164
3 169 86 72
3 169 90 86
3 169 170 90
3 169 167 170
3 169 166 167
3 171 32 172
3 171 31 32
3 171 24 31
3 171 168 24
3 171 167 168
3 171 173 167
3 171 174 173
3 171 172 174
3 175 174 176
3 175 173 174
3 175 167 173
3 175 170 167
3 175 90 170
3 175 102 90
3 175 100 102
3 175 176 100
3 177 32 34
3 177 172 32
3 177 174 172
3 177 178 174
3 177 147 178
3 177 146 147
3 177 6 146
3 177 34 6
3 179 174 178
3 179 176 174
3 179 100 176
3 179 114 100
3 179 40 114
3 179 152 40
3 179 147 152
3 179 178 147
3 180 4 181
3 180 3 4
3 180 1 3
3 180 182 1
3 180 183 182
3 180 184 183
3 180 185 184
3 180 181 185
3 186 185 187
3 186 184 185
3 186 183 184
3 186 188 183
3 186 189 188
3 186 190 189
3 186 191 190
3 186 187 191
3 192 1 182
3 192 12 1
3 192 10 12
3 192 193 10
3 192 194 193
3 192 195 194
3 192 183 195
3 192 182 183
3 196 183 188
3 196 195 183
3 196 194 195
3 196 197 194
3 196 198 197
3 196 199 198
3 196 189 199
3 196 188 189
3 200 10 193
3 200 18 10
3 200 16 18
3 200 201 16
3 200 202 201
3 200 203 202
3 200 194 203
3 200 193 194
3 204 194 197
3 204 203 194
3 204 202 203
3 204 205 202
3 204 206 205
3 204 207 206
3 204 198 207
3 204 197 198
3 208 26 22
3 208 209 26
3 208 210 209
3 208 211 210
3 208 202 211
3 208 201 202
3 208 16 201
3 208 22 16
3 212 210 211
3 212 213 210
3 212 214 213
3 212 215 214
3 212 206 215
3 212 205 206
3 212 202 205
3 212 211 202
3 216 26 209
3 216 30 26
3 216 28 30
3 216 217 28
3 216 218 217
3 216 219 218
3 216 210 219
3 216 209 210
3 220 210 213
3 220 219 210
3 220 218 219
3 220 221 218
3 220 222 221
3 220 223 222
3 220 214 223
3 220 213 214
3 224 4 35
3 224 181 4
3 224 185 181
3 224 225 185
3 224 218 225
3 224 217 218
3 224 28 217
3 224 35 28
3 226 185 225
3 226 187 185
3 226 191 187
3 226 227 191
3 226 222 227
3 226 221 222
3 226 218 221
3 226 225 218
3 228 191 227
3 228 229 191
3 228 230 229
3 228 231 230
3 228 232 231
3 228 233 232
3 228 222 233
3 228 227 222
3 234 230 231
3 234 235 230
3 234 236 235
3 234 237 236
3 234 238 237
3 234 239 238
3 234 232 239
3 234 231 232
3 240 236 237
3 240 241 236
3 240 242 241
3 240 243 242
3 240 244 243
3 240 245 244
3 240 238 245
3 240 237 238
3 246 214 247
3 246 223 214
3 246 222 223
3 246 233 222
3 246 232 233
3 246 248 232
3 246 249 248
3 246 247 249
3 250 249 251
3 250 248 249
3 250 232 248
3 250 239 232
3 250 238 239
3 250 252 238
3 250 253 252
3 250 251 253
3 254 253 255
3 254 252 253
3 254 238 252
3 254 245 238
3 254 244 245
3 254 256 244
3 254 257 256
3 254 255 257
3 258 214 215
3 258 247 214
3 258 249 247
3 258 259 249
3 258 260 259
3 258 261 260
3 258 206 261
3 258 215 206
3 262 249 259
3 262 251 249
3 262 253 251
3 262 263 253
3 262 264 263
3 262 265 264
3 262 260 265
3 262 259 260
3 266 253 263
3 266 255 253
3 266 257 255
3 266 267 257
3 266 268 267
3 266 269 268
3 266 264 269
3 266 263 264
3 270 198 271
3 270 207 198
3 270 206 207
3 270 261 206
3 270 260 261
3 270 272 260
3 270 273 272
3 270 271 273
3 274 273 275
3 274 272 273
3 274 260 272
3 274 265 260
3 274 264 265
3 274 276 264
3 274 277 276
3 274 275 277
3 278 277 279
3 278 276 277
3 278 264 276
3 278 269 264
3 278 268 269
3 278 280 268
3 278 281 280
3 278 279 281
3 282 189 283
3 282 199 189
3 282 198 199
3 282 271 198
3 282 273 271
3 282 284 273
3 282 285 284
3 282 283 285
3 286 285 287
3 286 284 285
3 286 273 284
3 286 275 273
3 286 277 275
3 286 288 277
3 286 289 288
3 286 287 289
3 290 289 291
3 290 288 289
3 290 277 288
3 290 279 277
3 290 281 279
3 290 292 281
3 290 293 292
3 290 291 293
3 294 191 229
3 294 190 191
3 294 189 190
3 294 283 189
3 294 285 283
3 294 295 285
3 294 230 295
3 294 229 230
3 296 230 235
3 296 295 230
3 296 285 295
3 296 287 285
3 296 289 287
3 296 297 289
3 296 236 297
3 296 235 236
3 298 236 241
3 298 297 236
3 298 289 297
3 298 291 289
3 298 293 291
3 298 299 293
3 298 242 299
3 298 241 242
