ply
format ascii 1.0
element vertex 116
property float x
property float y
property float z
property float nx
property float ny
property float nz
property float u
property float v
element face 224
property list uchar int vertex_indices
end_header
1.891614 0.305209 3.054747 0 1 0 0 0
1.891237 0.304963 3.059058 -0.0152997752 0.984485538 0.174797432 0 0
1.894269 0.30507 3.057912 0.104898239 0.986583435 0.1250979 0 0
1.88845 0.30507 3.057402 -0.1250979 0.986583435 0.104898239 0 0
1.887304 0.304963 3.05437 -0.174797432 0.984485538 -0.0152997752 0 0
1.888959 0.30507 3.051583 -0.104898239 0.986583435 -0.1250979 0 0
1.891992 0.304963 3.050437 0.0152997752 0.984485538 -0.174797432 0 0
1.894779 0.30507 3.052092 0.1250979 0.986583435 -0.104898239 0 0
1.895925 0.304963 3.055125 0.174797432 0.984485538 0.0152997752 0 0
1.891614 0.191499 3.054747 0 -1 0 0 0
1.895925 0.191745 3.055125 0.174797432 -0.984485538 0.0152997752 0 0
1.894269 0.191637 3.057912 0.104898239 -0.986583435 0.1250979 0 0
1.894779 0.191637 3.052092 0.124999464 -0.986595772 -0.104899551 0 0
1.891992 0.191745 3.050437 0.0152997752 -0.984485538 -0.174797432 0 0
1.888959 0.191637 3.051583 -0.104898239 -0.986583435 -0.1250979 0 0
1.887304 0.191745 3.05437 -0.174797432 -0.984485538 -0.0152997752 0 0
1.88845 0.191637 3.057402 -0.1250979 -0.986583435 0.104898239 0 0
1.891237 0.191745 3.059058 -0.0152997752 -0.984485538 0.174797432 0 0
1.888075 0.304656 3.050528 -0.531692937 0.561792537 -0.63379158 0 0
1.885795 0.304656 3.054238 -0.837228324 0.541918333 -0.0733024799 0 0
1.885795 0.290305 3.054238 -0.996190895 0 -0.087199203 0 0
1.888075 0.290305 3.050528 -0.642708837 0 -0.766110534 0 0
1.892124 0.290305 3.048928 0.087199203 0 -0.996190895 0 0
1.892124 0.304656 3.048928 0.0733024799 0.541918333 -0.837228324 0 0
1.888075 0.248354 3.050528 -0.642708837 0 -0.766110534 0 0
1.885795 0.248354 3.054238 -0.996190895 0 -0.087199203 0 0
1.885795 0.206403 3.054238 -0.996190895 0 -0.087199203 0 0
1.888075 0.206403 3.050528 -0.642708837 0 -0.766110534 0 0
1.892124 0.206403 3.048928 0.087199203 0 -0.996190895 0 0
1.892124 0.248354 3.048928 0.087199203 0 -0.996190895 0 0
1.888075 0.192051 3.050528 -0.531692937 -0.561792537 -0.63379158 0 0
1.885795 0.192051 3.054238 -0.837228324 -0.541918333 -0.0733024799 0 0
1.892124 0.192051 3.048928 0.0733024799 -0.541918333 -0.837228324 0 0
1.895154 0.304656 3.058966 0.531726635 0.561828143 0.633731744 0 0
1.897434 0.304656 3.055257 0.837228324 0.541918333 0.0733024799 0 0
1.897434 0.290305 3.055257 0.996190895 0 0.087199203 0 0
1.895154 0.290305 3.058966 0.642708837 0 0.766110534 0 0
1.891105 0.290305 3.060566 -0.087199203 0 0.996190895 0 0
1.891105 0.304656 3.060566 -0.0733024799 0.541918333 0.837228324 0 0
1.895154 0.248354 3.058966 0.642708837 0 0.766110534 0 0
1.897434 0.248354 3.055257 0.996190895 0 0.087199203 0 0
1.897434 0.206403 3.055257 0.996190895 0 0.087199203 0 0
1.895154 0.206403 3.058966 0.642708837 0 0.766110534 0 0
1.891105 0.206403 3.060566 -0.087199203 0 0.996190895 0 0
1.891105 0.248354 3.060566 -0.087199203 0 0.996190895 0 0
1.895154 0.192051 3.058966 0.531726635 -0.561828143 0.633731744 0 0
1.897434 0.192051 3.055257 0.837228324 -0.541918333 0.0733024799 0 0
1.891105 0.192051 3.060566 -0.0733024799 -0.541918333 0.837228324 0 0
1.895833 0.304656 3.051208 0.633731744 0.561828143 -0.531726635 0 0
1.895833 0.290305 3.051208 0.766110534 0 -0.642708837 0 0
1.895833 0.248354 3.051208 0.766110534 0 -0.642708837 0 0
1.895833 0.206403 3.051208 0.766110534 0 -0.642708837 0 0
1.895833 0.192051 3.051208 0.633731744 -0.561828143 -0.531726635 0 0
1.887395 0.304656 3.058287 -0.63379158 0.561792537 0.531692937 0 0
1.887395 0.290305 3.058287 -0.766110534 0 0.642708837 0 0
1.887395 0.248354 3.058287 -0.766110534 0 0.642708837 0 0
1.887395 0.206403 3.058287 -0.766110534 0 0.642708837 0 0
1.887395 0.192051 3.058287 -0.633731744 -0.561828143 0.531726635 0 0
1.891614 0.305209 2.702143 0 1 0 0 0
1.891237 0.304963 2.697832 -0.0152997752 0.984485538 -0.174797432 0 0
1.88845 0.30507 2.699488 -0.1250979 0.986583435 -0.104898239 0 0
1.894269 0.30507 2.698978 0.104898239 0.986583435 -0.1250979 0 0
1.895925 0.304963 2.701765 0.174797432 0.984485538 -0.0152997752 0 0
1.894779 0.30507 2.704798 0.1250979 0.986583435 0.104898239 0 0
1.891992 0.304963 2.706453 0.0152997752 0.984485538 0.174797432 0 0
1.888959 0.30507 2.705307 -0.104898239 0.986583435 0.1250979 0 0
1.887304 0.304963 2.70252 -0.174797432 0.984485538 0.0152997752 0 0
1.891614 0.191499 2.702143 0 -1 0 0 0
1.895925 0.191745 2.701765 0.174797432 -0.984485538 -0.0152997752 0 0
1.894779 0.191637 2.704798 0.124999464 -0.986595772 0.104899551 0 0
1.894269 0.191637 2.698978 0.104898239 -0.986583435 -0.1250979 0 0
1.891237 0.191745 2.697832 -0.0152997752 -0.984485538 -0.174797432 0 0
1.88845 0.191637 2.699488 -0.1250979 -0.986583435 -0.104898239 0 0
1.887304 0.191745 2.70252 -0.174797432 -0.984485538 0.0152997752 0 0
1.888959 0.191637 2.705307 -0.104898239 -0.986583435 0.1250979 0 0
1.891992 0.191745 2.706453 0.0152997752 -0.984485538 0.174797432 0 0
1.888075 0.304656 2.706362 -0.531692937 0.561792537 0.63379158 0 0
1.885795 0.304656 2.702652 -0.837228324 0.541918333 0.0733024799 0 0
1.892124 0.304656 2.707962 0.0733024799 0.541918333 0.837228324 0 0
1.892124 0.290305 2.707962 0.087199203 0 0.996190895 0 0
1.888075 0.290305 2.706362 -0.642708837 0 0.766110534 0 0
1.885795 0.290305 2.702652 -0.996190895 0 0.087199203 0 0
1.888075 0.248354 2.706362 -0.642708837 0 0.766110534 0 0
1.885795 0.248354 2.702652 -0.996190895 0 0.087199203 0 0
1.892124 0.248354 2.707962 0.087199203 0 0.996190895 0 0
1.892124 0.206403 2.707962 0.087199203 0 0.996190895 0 0
1.888075 0.206403 2.706362 -0.642708837 0 0.766110534 0 0
1.885795 0.206403 2.702652 -0.996190895 0 0.087199203 0 0
1.888075 0.192051 2.706362 -0.531692937 -0.561792537 0.63379158 0 0
1.885795 0.192051 2.702652 -0.837228324 -0.541918333 0.0733024799 0 0
1.892124 0.192051 2.707962 0.0733024799 -0.541918333 0.837228324 0 0
1.895154 0.304656 2.697923 0.531726635 0.561828143 -0.633731744 0 0
1.897434 0.304656 2.701633 0.837228324 0.541918333 -0.0733024799 0 0
1.891105 0.304656 2.696323 -0.0733024799 0.541918333 -0.837228324 0 0
1.891105 0.290305 2.696323 -0.087199203 0 -0.996190895 0 0
1.895154 0.290305 2.697923 0.642708837 0 -0.766110534 0 0
1.897434 0.290305 2.701633 0.996190895 0 -0.087199203 0 0
1.895154 0.248354 2.697923 0.642708837 0 -0.766110534 0 0
1.897434 0.248354 2.701633 0.996190895 0 -0.087199203 0 0
1.891105 0.248354 2.696323 -0.087199203 0 -0.996190895 0 0
1.891105 0.206403 2.696323 -0.087199203 0 -0.996190895 0 0
1.895154 0.206403 2.697923 0.642708837 0 -0.766110534 0 0
1.897434 0.206403 2.701633 0.996190895 0 -0.087199203 0 0
1.895154 0.192051 2.697923 0.531726635 -0.561828143 -0.633731744 0 0
1.897434 0.192051 2.701633 0.837228324 -0.541918333 -0.0733024799 0 0
1.891105 0.192051 2.696323 -0.0733024799 -0.541918333 -0.837228324 0 0
1.895833 0.304656 2.705682 0.633731744 0.561828143 0.531726635 0 0
1.895833 0.290305 2.705682 0.766110534 0 0.642708837 0 0
1.895833 0.248354 2.705682 0.766110534 0 0.642708837 0 0
1.895833 0.206403 2.705682 0.766110534 0 0.642708837 0 0
1.895833 0.192051 2.705682 0.633731744 -0.561828143 0.531726635 0 0
1.887395 0.304656 2.698603 -0.63379158 0.561792537 -0.531692937 0 0
1.887395 0.290305 2.698603 -0.766110534 0 -0.642708837 0 0
1.887395 0.248354 2.698603 -0.766110534 0 -0.642708837 0 0
1.887395 0.206403 2.698603 -0.766110534 0 -0.642708837 0 0
1.887395 0.192051 2.698603 -0.63379158 -0.561792537 -0.531692937 0 0
3 0 1 2
3 0 3 1
3 0 4 3
3 0 5 4
3 0 6 5
3 0 7 6
3 0 8 7
3 0 2 8
3 9 10 11
3 9 12 10
3 9 13 12
3 9 14 13
3 9 15 14
3 9 16 15
3 9 17 16
3 9 11 17
3 18 4 5
3 18 19 4
3 18 20 19
3 18 21 20
3 18 22 21
3 18 23 22
3 18 6 23
3 18 5 6
3 24 20 21
3 24 25 20
3 24 26 25
3 24 27 26
3 24 28 27
3 24 29 28
3 24 22 29
3 24 21 22
3 30 26 27
3 30 31 26
3 30 15 31
3 30 14 15
3 30 13 14
3 30 32 13
3 30 28 32
3 30 27 28
3 33 8 2
3 33 34 8
3 33 35 34
3 33 36 35
3 33 37 36
3 33 38 37
3 33 1 38
3 33 2 1
3 39 35 36
3 39 40 35
3 39 41 40
3 39 42 41
3 39 43 42
3 39 44 43
3 39 37 44
3 39 36 37
3 45 41 42
3 45 46 41
3 45 10 46
3 45 11 10
3 45 17 11
3 45 47 17
3 45 43 47
3 45 42 43
3 48 6 7
3 48 23 6
3 48 22 23
3 48 49 22
3 48 35 49
3 48 34 35
3 48 8 34
3 48 7 8
3 50 22 49
3 50 29 22
3 50 28 29
3 50 51 28
3 50 41 51
3 50 40 41
3 50 35 40
3 50 49 35
3 52 28 51
3 52 32 28
3 52 13 32
3 52 12 13
3 52 10 12
3 52 46 10
3 52 41 46
3 52 51 41
3 53 20 54
3 53 19 20
3 53 4 19
3 53 3 4
3 53 1 3
3 53 38 1
3 53 37 38
3 53 54 37
3 55 37 54
3 55 44 37
3 55 43 44
3 55 56 43
3 55 26 56
3 55 25 26
3 55 20 25
3 55 54 20
3 57 43 56
3 57 47 43
3 57 17 47
3 57 16 17
3 57 15 16
3 57 31 15
3 57 26 31
3 57 56 26
3 58 59 60
3 58 61 59
3 58 62 61
3 58 63 62
3 58 64 63
3 58 65 64
3 58 66 65
3 58 60 66
3 67 68 69
3 67 70 68
3 67 71 70
3 67 72 71
3 67 73 72
3 67 74 73
3 67 75 74
3 67 69 75
3 76 66 77
3 76 65 66
3 76 64 65
3 76 78 64
3 76 79 78
3 76 80 79
3 76 81 80
3 76 77 81
3 82 81 83
3 82 80 81
3 82 79 80
3 82 84 79
3 82 85 84
3 82 86 85
3 82 87 86
3 82 83 87
3 88 87 89
3 88 86 87
3 88 85 86
3 88 90 85
3 88 75 90
3 88 74 75
3 88 73 74
3 88 89 73
3 91 62 92
3 91 61 62
3 91 59 61
3 91 93 59
3 91 94 93
3 91 95 94
3 91 96 95
3 91 92 96
3 97 96 98
3 97 95 96
3 97 94 95
3 97 99 94
3 97 100 99
3 97 101 100
3 97 102 101
3 97 98 102
3 103 102 104
3 103 101 102
3 103 100 101
3 103 105 100
3 103 71 105
3 103 70 71
3 103 68 70
3 103 104 68
3 106 64 78
3 106 63 64
3 106 62 63
3 106 92 62
3 106 96 92
3 106 107 96
3 106 79 107
3 106 78 79
3 108 79 84
3 108 107 79
3 108 96 107
3 108 98 96
3 108 102 98
3 108 109 102
3 108 85 109
3 108 84 85
3 110 85 90
3 110 109 85
3 110 102 109
3 110 104 102
3 110 68 104
3 110 69 68
3 110 75 69
3 110 90 75
3 111 81 77
3 111 112 81
3 111 94 112
3 111 93 94
3 111 59 93
3 111 60 59
3 111 66 60
3 111 77 66
3 113 94 99
3 113 112 94
3 113 81 112
3 113 83 81
3 113 87 83
3 113 114 87
3 113 100 114
3 113 99 100
3 115 100 105
3 115 114 100
3 115 87 114
3 115 89 87
3 115 73 89
3 115 72 73
3 115 71 72
3 115 105 71
