ply
format ascii 1.0
element vertex 1152
property float x
property float y
property float z
property float nx
property float ny
property float nz
property float u
property float v
element face 384
property list uchar int vertex_indices
end_header
1.885276 0.599652 2.601362 -1 0 0 0 0
1.885276 0.635337 2.610929 -1 0 0 0 0
1.885276 0.64195 2.603205 -1 0 0 0 0
1.885276 0.599652 2.601362 -1 0 0 0 0
1.885276 0.596261 2.608186 -1 0 0 0 0
1.885276 0.635337 2.610929 -1 0 0 0 0
1.885276 0.596261 2.608186 -1 0 0 0 0
1.885276 0.628724 2.618653 -1 0 0 0 0
1.885276 0.635337 2.610929 -1 0 0 0 0
1.885276 0.596261 2.608186 -1 0 0 0 0
1.885276 0.59287 2.61501 -1 0 0 0 0
1.885276 0.628724 2.618653 -1 0 0 0 0
1.885276 0.64195 2.603205 -1 0 0 0 0
1.885276 0.675153 2.616398 -1 0 0 0 0
1.885276 0.687288 2.606876 -1 0 0 0 0
1.885276 0.64195 2.603205 -1 0 0 0 0
1.885276 0.635337 2.610929 -1 0 0 0 0
1.885276 0.675153 2.616398 -1 0 0 0 0
1.885276 0.635337 2.610929 -1 0 0 0 0
1.885276 0.663018 2.625921 -1 0 0 0 0
1.885276 0.675153 2.616398 -1 0 0 0 0
1.885276 0.635337 2.610929 -1 0 0 0 0
1.885276 0.628724 2.618653 -1 0 0 0 0
1.885276 0.663018 2.625921 -1 0 0 0 0
1.885276 0.599652 2.601362 -1 0 0 0 0
1.885276 0.55043 2.607253 -1 0 0 0 0
1.885276 0.596261 2.608186 -1 0 0 0 0
1.885276 0.599652 2.601362 -1 -0 0 0 0
1.885276 0.551958 2.600728 -1 -0 0 0 0
1.885276 0.55043 2.607253 -1 -0 0 0 0
1.885276 0.551958 2.600728 -1 0 0 0 0
1.885276 0.490351 2.60721 -1 0 0 0 0
1.885276 0.55043 2.607253 -1 0 0 0 0
1.885276 0.551958 2.600728 -1 -0 0 0 0
1.885276 0.490433 2.600684 -1 -0 0 0 0
1.885276 0.490351 2.60721 -1 -0 0 0 0
1.885276 0.596261 2.608186 -1 0 0 0 0
1.885276 0.548903 2.613777 -1 0 0 0 0
1.885276 0.59287 2.61501 -1 0 0 0 0
1.885276 0.596261 2.608186 -1 -0 0 0 0
1.885276 0.55043 2.607253 -1 -0 0 0 0
1.885276 0.548903 2.613777 -1 -0 0 0 0
1.885276 0.55043 2.607253 -1 0 0 0 0
1.885276 0.490268 2.613736 -1 0 0 0 0
1.885276 0.548903 2.613777 -1 0 0 0 0
1.885276 0.55043 2.607253 -1 -0 0 0 0
1.885276 0.490351 2.60721 -1 -0 0 0 0
1.885276 0.490268 2.613736 -1 -0 0 0 0
1.885276 0.599652 2.601362 -1 0 0 0 0
1.885276 0.553486 2.594203 -1 0 0 0 0
1.885276 0.551958 2.600728 -1 0 0 0 0
1.885276 0.599652 2.601362 -1 0 -0 0 0
1.885276 0.603043 2.594538 -1 0 -0 0 0
1.885276 0.553486 2.594203 -1 0 -0 0 0
1.885276 0.603043 2.594538 -1 0 0 0 0
1.885276 0.555014 2.587677 -1 0 0 0 0
1.885276 0.553486 2.594203 -1 0 0 0 0
1.885276 0.603043 2.594538 -1 0 -0 0 0
1.885276 0.606434 2.587713 -1 0 -0 0 0
1.885276 0.555014 2.587677 -1 0 -0 0 0
1.885276 0.551958 2.600728 -1 0 0 0 0
1.885276 0.490515 2.594158 -1 0 0 0 0
1.885276 0.490433 2.600684 -1 0 0 0 0
1.885276 0.551958 2.600728 -1 0 -0 0 0
1.885276 0.553486 2.594203 -1 0 -0 0 0
1.885276 0.490515 2.594158 -1 0 -0 0 0
1.885276 0.553486 2.594203 -1 0 0 0 0
1.885276 0.490597 2.587632 -1 0 0 0 0
1.885276 0.490515 2.594158 -1 0 0 0 0
1.885276 0.553486 2.594203 -1 0 -0 0 0
1.885276 0.555014 2.587677 -1 0 -0 0 0
1.885276 0.490597 2.587632 -1 0 -0 0 0
1.885276 0.599652 2.601362 -1 0 0 0 0
1.885276 0.648563 2.595482 -1 0 0 0 0
1.885276 0.603043 2.594538 -1 0 0 0 0
1.885276 0.599652 2.601362 -1 0 0 0 0
1.885276 0.64195 2.603205 -1 0 0 0 0
1.885276 0.648563 2.595482 -1 0 0 0 0
1.885276 0.64195 2.603205 -1 0 0 0 0
1.885276 0.699423 2.597353 -1 0 0 0 0
1.885276 0.648563 2.595482 -1 0 0 0 0
1.885276 0.64195 2.603205 -1 0 0 0 0
1.885276 0.687288 2.606876 -1 0 0 0 0
1.885276 0.699423 2.597353 -1 0 0 0 0
1.885276 0.603043 2.594538 -1 0 0 0 0
1.885276 0.655177 2.587758 -1 0 0 0 0
1.885276 0.606434 2.587713 -1 0 0 0 0
1.885276 0.603043 2.594538 -1 0 0 0 0
1.885276 0.648563 2.595482 -1 0 0 0 0
1.885276 0.655177 2.587758 -1 0 0 0 0
1.885276 0.648563 2.595482 -1 0 0 0 0
1.885276 0.711558 2.58783 -1 0 0 0 0
1.885276 0.655177 2.587758 -1 0 0 0 0
1.885276 0.648563 2.595482 -1 0 0 0 0
1.885276 0.699423 2.597353 -1 0 0 0 0
1.885276 0.711558 2.58783 -1 0 0 0 0
1.885276 0.313404 2.600531 1 0 0 0 0
1.885276 0.229737 2.606979 1 0 0 0 0
1.885276 0.223549 2.600448 1 0 0 0 0
1.885276 0.313404 2.600531 1 0 -0 0 0
1.885276 0.317481 2.60706 1 0 -0 0 0
1.885276 0.229737 2.606979 1 0 -0 0 0
1.885276 0.317481 2.60706 1 0 0 0 0
1.885276 0.235925 2.613511 1 0 0 0 0
1.885276 0.229737 2.606979 1 0 0 0 0
1.885276 0.317481 2.60706 1 0 -0 0 0
1.885276 0.321558 2.61359 1 0 -0 0 0
1.885276 0.235925 2.613511 1 0 -0 0 0
1.885276 0.223549 2.600448 1 0 0 0 0
1.885276 0.157817 2.606912 1 0 0 0 0
1.885276 0.149899 2.600379 1 0 0 0 0
1.885276 0.223549 2.600448 1 0 -0 0 0
1.885276 0.229737 2.606979 1 0 -0 0 0
1.885276 0.157817 2.606912 1 0 -0 0 0
1.885276 0.229737 2.606979 1 0 0 0 0
1.885276 0.165736 2.613445 1 0 0 0 0
1.885276 0.157817 2.606912 1 0 0 0 0
1.885276 0.229737 2.606979 1 0 -0 0 0
1.885276 0.235925 2.613511 1 0 -0 0 0
1.885276 0.165736 2.613445 1 0 -0 0 0
1.885276 0.313404 2.600531 1 0 0 0 0
1.885276 0.408526 2.607142 1 0 0 0 0
1.885276 0.317481 2.60706 1 0 0 0 0
1.885276 0.313404 2.600531 1 0 0 0 0
1.885276 0.40664 2.600614 1 0 0 0 0
1.885276 0.408526 2.607142 1 0 0 0 0
1.885276 0.40664 2.600614 1 0 0 0 0
1.885276 0.490351 2.60721 1 0 0 0 0
1.885276 0.408526 2.607142 1 0 0 0 0
1.885276 0.40664 2.600614 1 0 0 0 0
1.885276 0.490433 2.600684 1 0 0 0 0
1.885276 0.490351 2.60721 1 0 0 0 0
1.885276 0.317481 2.60706 1 0 0 0 0
1.885276 0.410413 2.613669 1 0 0 0 0
1.885276 0.321558 2.61359 1 0 0 0 0
1.885276 0.317481 2.60706 1 0 0 0 0
1.885276 0.408526 2.607142 1 0 0 0 0
1.885276 0.410413 2.613669 1 0 0 0 0
1.885276 0.408526 2.607142 1 0 0 0 0
1.885276 0.490268 2.613736 1 0 0 0 0
1.885276 0.410413 2.613669 1 0 0 0 0
1.885276 0.408526 2.607142 1 0 0 0 0
1.885276 0.490351 2.60721 1 0 0 0 0
1.885276 0.490268 2.613736 1 0 0 0 0
1.885276 0.313404 2.600531 1 -0 0 0 0
1.885276 0.404753 2.594086 1 -0 0 0 0
1.885276 0.40664 2.600614 1 -0 0 0 0
1.885276 0.313404 2.600531 1 0 0 0 0
1.885276 0.309327 2.594001 1 0 0 0 0
1.885276 0.404753 2.594086 1 0 0 0 0
1.885276 0.309327 2.594001 1 -0 0 0 0
1.885276 0.402867 2.587559 1 -0 0 0 0
1.885276 0.404753 2.594086 1 -0 0 0 0
1.885276 0.309327 2.594001 1 0 0 0 0
1.885276 0.30525 2.587472 1 0 0 0 0
1.885276 0.402867 2.587559 1 0 0 0 0
1.885276 0.40664 2.600614 1 -0 0 0 0
1.885276 0.490515 2.594158 1 -0 0 0 0
1.885276 0.490433 2.600684 1 -0 0 0 0
1.885276 0.40664 2.600614 1 0 0 0 0
1.885276 0.404753 2.594086 1 0 0 0 0
1.885276 0.490515 2.594158 1 0 0 0 0
1.885276 0.404753 2.594086 1 -0 0 0 0
1.885276 0.490597 2.587632 1 -0 0 0 0
1.885276 0.490515 2.594158 1 -0 0 0 0
1.885276 0.404753 2.594086 1 0 0 0 0
1.885276 0.402867 2.587559 1 0 0 0 0
1.885276 0.490597 2.587632 1 0 0 0 0
1.885276 0.313404 2.600531 1 0 0 0 0
1.885276 0.21736 2.593916 1 0 0 0 0
1.885276 0.309327 2.594001 1 0 0 0 0
1.885276 0.313404 2.600531 1 0 0 0 0
1.885276 0.223549 2.600448 1 0 0 0 0
1.885276 0.21736 2.593916 1 0 0 0 0
1.885276 0.223549 2.600448 1 0 0 0 0
1.885276 0.14198 2.593846 1 0 0 0 0
1.885276 0.21736 2.593916 1 0 0 0 0
1.885276 0.223549 2.600448 1 0 0 0 0
1.885276 0.149899 2.600379 1 0 0 0 0
1.885276 0.14198 2.593846 1 0 0 0 0
1.885276 0.309327 2.594001 1 0 0 0 0
1.885276 0.211172 2.587385 1 0 0 0 0
1.885276 0.30525 2.587472 1 0 0 0 0
1.885276 0.309327 2.594001 1 0 0 0 0
1.885276 0.21736 2.593916 1 0 0 0 0
1.885276 0.211172 2.587385 1 0 0 0 0
1.885276 0.21736 2.593916 1 0 0 0 0
1.885276 0.134062 2.587313 1 0 0 0 0
1.885276 0.211172 2.587385 1 0 0 0 0
1.885276 0.21736 2.593916 1 0 0 0 0
1.885276 0.14198 2.593846 1 0 0 0 0
1.885276 0.134062 2.587313 1 0 0 0 0
1.885276 0.313404 3.156359 -1 -0 0 0 0
1.885276 0.229737 3.14991 -1 -0 0 0 0
1.885276 0.223549 3.156442 -1 -0 0 0 0
1.885276 0.313404 3.156359 -1 0 -0 0 0
1.885276 0.317481 3.149829 -1 0 -0 0 0
1.885276 0.229737 3.14991 -1 0 -0 0 0
1.885276 0.317481 3.149829 -1 -0 0 0 0
1.885276 0.235925 3.143379 -1 -0 0 0 0
1.885276 0.229737 3.14991 -1 -0 0 0 0
1.885276 0.317481 3.149829 -1 0 -0 0 0
1.885276 0.321558 3.1433 -1 0 -0 0 0
1.885276 0.235925 3.143379 -1 0 -0 0 0
1.885276 0.223549 3.156442 -1 -0 0 0 0
1.885276 0.157817 3.149977 -1 -0 0 0 0
1.885276 0.149899 3.156511 -1 -0 0 0 0
1.885276 0.223549 3.156442 -1 0 -0 0 0
1.885276 0.229737 3.14991 -1 0 -0 0 0
1.885276 0.157817 3.149977 -1 0 -0 0 0
1.885276 0.229737 3.14991 -1 -0 0 0 0
1.885276 0.165736 3.143444 -1 -0 0 0 0
1.885276 0.157817 3.149977 -1 -0 0 0 0
1.885276 0.229737 3.14991 -1 0 -0 0 0
1.885276 0.235925 3.143379 -1 0 -0 0 0
1.885276 0.165736 3.143444 -1 0 -0 0 0
1.885276 0.313404 3.156359 -1 0 0 0 0
1.885276 0.408526 3.149748 -1 0 0 0 0
1.885276 0.317481 3.149829 -1 0 0 0 0
1.885276 0.313404 3.156359 -1 0 0 0 0
1.885276 0.40664 3.156276 -1 0 0 0 0
1.885276 0.408526 3.149748 -1 0 0 0 0
1.885276 0.40664 3.156276 -1 0 0 0 0
1.885276 0.490351 3.14968 -1 0 0 0 0
1.885276 0.408526 3.149748 -1 0 0 0 0
1.885276 0.40664 3.156276 -1 0 0 0 0
1.885276 0.490433 3.156206 -1 0 0 0 0
1.885276 0.490351 3.14968 -1 0 0 0 0
1.885276 0.317481 3.149829 -1 0 0 0 0
1.885276 0.410413 3.14322 -1 0 0 0 0
1.885276 0.321558 3.1433 -1 0 0 0 0
1.885276 0.317481 3.149829 -1 0 0 0 0
1.885276 0.408526 3.149748 -1 0 0 0 0
1.885276 0.410413 3.14322 -1 0 0 0 0
1.885276 0.408526 3.149748 -1 0 0 0 0
1.885276 0.490268 3.143154 -1 0 0 0 0
1.885276 0.410413 3.14322 -1 0 0 0 0
1.885276 0.408526 3.149748 -1 0 0 0 0
1.885276 0.490351 3.14968 -1 0 0 0 0
1.885276 0.490268 3.143154 -1 0 0 0 0
1.885276 0.313404 3.156359 -1 0 0 0 0
1.885276 0.404753 3.162803 -1 0 0 0 0
1.885276 0.40664 3.156276 -1 0 0 0 0
1.885276 0.313404 3.156359 -1 0 0 0 0
1.885276 0.309327 3.162889 -1 0 0 0 0
1.885276 0.404753 3.162803 -1 0 0 0 0
1.885276 0.309327 3.162889 -1 0 0 0 0
1.885276 0.402867 3.169331 -1 0 0 0 0
1.885276 0.404753 3.162803 -1 0 0 0 0
1.885276 0.309327 3.162889 -1 0 0 0 0
1.885276 0.30525 3.169418 -1 0 0 0 0
1.885276 0.402867 3.169331 -1 0 0 0 0
1.885276 0.40664 3.156276 -1 0 0 0 0
1.885276 0.490515 3.162732 -1 0 0 0 0
1.885276 0.490433 3.156206 -1 0 0 0 0
1.885276 0.40664 3.156276 -1 0 0 0 0
1.885276 0.404753 3.162803 -1 0 0 0 0
1.885276 0.490515 3.162732 -1 0 0 0 0
1.885276 0.404753 3.162803 -1 0 0 0 0
1.885276 0.490597 3.169258 -1 0 0 0 0
1.885276 0.490515 3.162732 -1 0 0 0 0
1.885276 0.404753 3.162803 -1 0 0 0 0
1.885276 0.402867 3.169331 -1 0 0 0 0
1.885276 0.490597 3.169258 -1 0 0 0 0
1.885276 0.313404 3.156359 -1 0 0 0 0
1.885276 0.21736 3.162973 -1 0 0 0 0
1.885276 0.309327 3.162889 -1 0 0 0 0
1.885276 0.313404 3.156359 -1 0 0 0 0
1.885276 0.223549 3.156442 -1 0 0 0 0
1.885276 0.21736 3.162973 -1 0 0 0 0
1.885276 0.223549 3.156442 -1 0 0 0 0
1.885276 0.14198 3.163044 -1 0 0 0 0
1.885276 0.21736 3.162973 -1 0 0 0 0
1.885276 0.223549 3.156442 -1 0 0 0 0
1.885276 0.149899 3.156511 -1 0 0 0 0
1.885276 0.14198 3.163044 -1 0 0 0 0
1.885276 0.309327 3.162889 -1 0 0 0 0
1.885276 0.211172 3.169505 -1 0 0 0 0
1.885276 0.30525 3.169418 -1 0 0 0 0
1.885276 0.309327 3.162889 -1 0 0 0 0
1.885276 0.21736 3.162973 -1 0 0 0 0
1.885276 0.211172 3.169505 -1 0 0 0 0
1.885276 0.21736 3.162973 -1 0 0 0 0
1.885276 0.134062 3.169577 -1 0 0 0 0
1.885276 0.211172 3.169505 -1 0 0 0 0
1.885276 0.21736 3.162973 -1 0 0 0 0
1.885276 0.14198 3.163044 -1 0 0 0 0
1.885276 0.134062 3.169577 -1 0 0 0 0
1.885276 0.599652 3.155528 1 0 0 0 0
1.885276 0.635337 3.145961 1 0 0 0 0
1.885276 0.64195 3.153684 1 0 0 0 0
1.885276 0.599652 3.155528 1 0 0 0 0
1.885276 0.596261 3.148704 1 0 0 0 0
1.885276 0.635337 3.145961 1 0 0 0 0
1.885276 0.596261 3.148704 1 0 0 0 0
1.885276 0.628724 3.138237 1 0 0 0 0
1.885276 0.635337 3.145961 1 0 0 0 0
1.885276 0.596261 3.148704 1 0 0 0 0
1.885276 0.59287 3.141879 1 0 0 0 0
1.885276 0.628724 3.138237 1 0 0 0 0
1.885276 0.64195 3.153684 1 0 0 0 0
1.885276 0.675153 3.140491 1 0 0 0 0
1.885276 0.687288 3.150014 1 0 0 0 0
1.885276 0.64195 3.153684 1 0 0 0 0
1.885276 0.635337 3.145961 1 0 0 0 0
1.885276 0.675153 3.140491 1 0 0 0 0
1.885276 0.635337 3.145961 1 0 0 0 0
1.885276 0.663018 3.130969 1 0 0 0 0
1.885276 0.675153 3.140491 1 0 0 0 0
1.885276 0.635337 3.145961 1 0 0 0 0
1.885276 0.628724 3.138237 1 0 0 0 0
1.885276 0.663018 3.130969 1 0 0 0 0
1.885276 0.599652 3.155528 1 0 0 0 0
1.885276 0.55043 3.149637 1 0 0 0 0
1.885276 0.596261 3.148704 1 0 0 0 0
1.885276 0.599652 3.155528 1 0 0 0 0
1.885276 0.551958 3.156162 1 0 0 0 0
1.885276 0.55043 3.149637 1 0 0 0 0
1.885276 0.551958 3.156162 1 0 0 0 0
1.885276 0.490351 3.14968 1 0 0 0 0
1.885276 0.55043 3.149637 1 0 0 0 0
1.885276 0.551958 3.156162 1 0 0 0 0
1.885276 0.490433 3.156206 1 0 0 0 0
1.885276 0.490351 3.14968 1 0 0 0 0
1.885276 0.596261 3.148704 1 0 0 0 0
1.885276 0.548903 3.143112 1 0 0 0 0
1.885276 0.59287 3.141879 1 0 0 0 0
1.885276 0.596261 3.148704 1 0 0 0 0
1.885276 0.55043 3.149637 1 0 0 0 0
1.885276 0.548903 3.143112 1 0 0 0 0
1.885276 0.55043 3.149637 1 0 0 0 0
1.885276 0.490268 3.143154 1 0 0 0 0
1.885276 0.548903 3.143112 1 0 0 0 0
1.885276 0.55043 3.149637 1 0 0 0 0
1.885276 0.490351 3.14968 1 0 0 0 0
1.885276 0.490268 3.143154 1 0 0 0 0
1.885276 0.599652 3.155528 1 0 0 0 0
1.885276 0.553486 3.162687 1 0 0 0 0
1.885276 0.551958 3.156162 1 0 0 0 0
1.885276 0.599652 3.155528 1 0 -0 0 0
1.885276 0.603043 3.162352 1 0 -0 0 0
1.885276 0.553486 3.162687 1 0 -0 0 0
1.885276 0.603043 3.162352 1 0 0 0 0
1.885276 0.555014 3.169212 1 0 0 0 0
1.885276 0.553486 3.162687 1 0 0 0 0
1.885276 0.603043 3.162352 1 0 -0 0 0
1.885276 0.606434 3.169177 1 0 -0 0 0
1.885276 0.555014 3.169212 1 0 -0 0 0
1.885276 0.551958 3.156162 1 0 0 0 0
1.885276 0.490515 3.162732 1 0 0 0 0
1.885276 0.490433 3.156206 1 0 0 0 0
1.885276 0.551958 3.156162 1 0 -0 0 0
1.885276 0.553486 3.162687 1 0 -0 0 0
1.885276 0.490515 3.162732 1 0 -0 0 0
1.885276 0.553486 3.162687 1 0 0 0 0
1.885276 0.490597 3.169258 1 0 0 0 0
1.885276 0.490515 3.162732 1 0 0 0 0
1.885276 0.553486 3.162687 1 0 -0 0 0
1.885276 0.555014 3.169212 1 0 -0 0 0
1.885276 0.490597 3.169258 1 0 -0 0 0
1.885276 0.599652 3.155528 1 0 0 0 0
1.885276 0.648563 3.161408 1 0 0 0 0
1.885276 0.603043 3.162352 1 0 0 0 0
1.885276 0.599652 3.155528 1 -0 0 0 0
1.885276 0.64195 3.153684 1 -0 0 0 0
1.885276 0.648563 3.161408 1 -0 0 0 0
1.885276 0.64195 3.153684 1 0 0 0 0
1.885276 0.699423 3.159537 1 0 0 0 0
1.885276 0.648563 3.161408 1 0 0 0 0
1.885276 0.64195 3.153684 1 -0 0 0 0
1.885276 0.687288 3.150014 1 -0 0 0 0
1.885276 0.699423 3.159537 1 -0 0 0 0
1.885276 0.603043 3.162352 1 0 0 0 0
1.885276 0.655176 3.169132 1 0 0 0 0
1.885276 0.606434 3.169177 1 0 0 0 0
1.885276 0.603043 3.162352 1 -0 0 0 0
1.885276 0.648563 3.161408 1 -0 0 0 0
1.885276 0.655176 3.169132 1 -0 0 0 0
1.885276 0.648563 3.161408 1 0 0 0 0
1.885276 0.711558 3.16906 1 0 0 0 0
1.885276 0.655176 3.169132 1 0 0 0 0
1.885276 0.648563 3.161408 1 -0 0 0 0
1.885276 0.699423 3.159537 1 -0 0 0 0
1.885276 0.711558 3.16906 1 -0 0 0 0
1.885276 0.082447 2.600317 -1 0 0 0 0
1.885276 0.114245 2.606872 -1 0 0 0 0
1.885276 0.105278 2.600338 -1 0 0 0 0
1.885276 0.082447 2.600317 -1 0 0 0 0
1.885276 0.091662 2.606647 -1 0 0 0 0
1.885276 0.114245 2.606872 -1 0 0 0 0
1.885276 0.091662 2.606647 -1 0 0 0 0
1.885276 0.123212 2.613406 -1 0 0 0 0
1.885276 0.114245 2.606872 -1 0 0 0 0
1.885276 0.091662 2.606647 -1 0 0 0 0
1.885276 0.100894 2.612978 -1 0 0 0 0
1.885276 0.123212 2.613406 -1 0 0 0 0
1.885276 0.105278 2.600338 -1 0 0 0 0
1.885276 0.157817 2.606912 -1 0 0 0 0
1.885276 0.149899 2.600379 -1 0 0 0 0
1.885276 0.105278 2.600338 -1 0 0 0 0
1.885276 0.114245 2.606872 -1 0 0 0 0
1.885276 0.157817 2.606912 -1 0 0 0 0
1.885276 0.114245 2.606872 -1 0 0 0 0
1.885276 0.165736 2.613445 -1 0 0 0 0
1.885276 0.157817 2.606912 -1 0 0 0 0
1.885276 0.114245 2.606872 -1 0 0 0 0
1.885276 0.123212 2.613406 -1 0 0 0 0
1.885276 0.165736 2.613445 -1 0 0 0 0
1.885276 0.082447 2.600317 -1 0 0 0 0
1.885276 0.082709 2.606028 -1 0 0 0 0
1.885276 0.091662 2.606647 -1 0 0 0 0
1.885276 0.082447 2.600317 -1 -0 0 0 0
1.885276 0.074164 2.60031 -1 -0 0 0 0
1.885276 0.082709 2.606028 -1 -0 0 0 0
1.885276 0.074164 2.60031 -1 0 0 0 0
1.885276 0.080571 2.605211 -1 0 0 0 0
1.885276 0.082709 2.606028 -1 0 0 0 0
1.885276 0.074164 2.60031 -1 0 0 0 0
1.885276 0.073155 2.60031 -1 0 0 0 0
1.885276 0.080571 2.605211 -1 0 0 0 0
1.885276 0.091662 2.606647 -1 0 0 0 0
1.885276 0.091321 2.611746 -1 0 0 0 0
1.885276 0.100894 2.612978 -1 0 0 0 0
1.885276 0.091662 2.606647 -1 -0 0 0 0
1.885276 0.082709 2.606028 -1 -0 0 0 0
1.885276 0.091321 2.611746 -1 -0 0 0 0
1.885276 0.082709 2.606028 -1 0 0 0 0
1.885276 0.087033 2.609296 -1 0 0 0 0
1.885276 0.091321 2.611746 -1 0 0 0 0
1.885276 0.082709 2.606028 -1 -0 0 0 0
1.885276 0.080571 2.605211 -1 -0 0 0 0
1.885276 0.087033 2.609296 -1 -0 0 0 0
1.885276 0.082447 2.600317 -1 0 0 0 0
1.885276 0.065753 2.594592 -1 0 0 0 0
1.885276 0.074164 2.60031 -1 0 0 0 0
1.885276 0.082447 2.600317 -1 0 0 0 0
1.885276 0.073265 2.593987 -1 0 0 0 0
1.885276 0.065753 2.594592 -1 0 0 0 0
1.885276 0.073265 2.593987 -1 -0 0 0 0
1.885276 0.05741 2.588874 -1 -0 0 0 0
1.885276 0.065753 2.594592 -1 -0 0 0 0
1.885276 0.073265 2.593987 -1 0 0 0 0
1.885276 0.064101 2.587656 -1 0 0 0 0
1.885276 0.05741 2.588874 -1 0 0 0 0
1.885276 0.074164 2.60031 -1 -0 0 0 0
1.885276 0.066009 2.595409 -1 -0 0 0 0
1.885276 0.073155 2.60031 -1 -0 0 0 0
1.885276 0.074164 2.60031 -1 0 0 0 0
1.885276 0.065753 2.594592 -1 0 0 0 0
1.885276 0.066009 2.595409 -1 0 0 0 0
1.885276 0.065753 2.594592 -1 -0 0 0 0
1.885276 0.060353 2.591325 -1 -0 0 0 0
1.885276 0.066009 2.595409 -1 -0 0 0 0
1.885276 0.065753 2.594592 -1 0 0 0 0
1.885276 0.05741 2.588874 -1 0 0 0 0
1.885276 0.060353 2.591325 -1 0 0 0 0
1.885276 0.082447 2.600317 -1 0 -0 0 0
1.885276 0.096311 2.593804 -1 0 -0 0 0
1.885276 0.073265 2.593987 -1 0 -0 0 0
1.885276 0.082447 2.600317 -1 0 0 0 0
1.885276 0.105278 2.600338 -1 0 0 0 0
1.885276 0.096311 2.593804 -1 0 0 0 0
1.885276 0.105278 2.600338 -1 0 -0 0 0
1.885276 0.14198 2.593846 -1 0 -0 0 0
1.885276 0.096311 2.593804 -1 0 -0 0 0
1.885276 0.105278 2.600338 -1 0 0 0 0
1.885276 0.149899 2.600379 -1 0 0 0 0
1.885276 0.14198 2.593846 -1 0 0 0 0
1.885276 0.073265 2.593987 -1 0 -0 0 0
1.885276 0.087344 2.58727 -1 0 -0 0 0
1.885276 0.064101 2.587656 -1 0 -0 0 0
1.885276 0.073265 2.593987 -1 0 0 0 0
1.885276 0.096311 2.593804 -1 0 0 0 0
1.885276 0.087344 2.58727 -1 0 0 0 0
1.885276 0.096311 2.593804 -1 0 -0 0 0
1.885276 0.134062 2.587313 -1 0 -0 0 0
1.885276 0.087344 2.58727 -1 0 -0 0 0
1.885276 0.096311 2.593804 -1 0 0 0 0
1.885276 0.14198 2.593846 -1 0 0 0 0
1.885276 0.134062 2.587313 -1 0 0 0 0
1.885276 0.082447 3.156573 1 0 0 0 0
1.885276 0.114245 3.150018 1 0 0 0 0
1.885276 0.105278 3.156552 1 0 0 0 0
1.885276 0.082447 3.156573 1 0 0 0 0
1.885276 0.091662 3.150242 1 0 0 0 0
1.885276 0.114245 3.150018 1 0 0 0 0
1.885276 0.091662 3.150242 1 0 0 0 0
1.885276 0.123212 3.143484 1 0 0 0 0
1.885276 0.114245 3.150018 1 0 0 0 0
1.885276 0.091662 3.150242 1 0 0 0 0
1.885276 0.100894 3.143912 1 0 0 0 0
1.885276 0.123212 3.143484 1 0 0 0 0
1.885276 0.105278 3.156552 1 0 0 0 0
1.885276 0.157817 3.149977 1 0 0 0 0
1.885276 0.149899 3.156511 1 0 0 0 0
1.885276 0.105278 3.156552 1 0 0 0 0
1.885276 0.114245 3.150018 1 0 0 0 0
1.885276 0.157817 3.149977 1 0 0 0 0
1.885276 0.114245 3.150018 1 0 0 0 0
1.885276 0.165736 3.143444 1 0 0 0 0
1.885276 0.157817 3.149977 1 0 0 0 0
1.885276 0.114245 3.150018 1 0 0 0 0
1.885276 0.123212 3.143484 1 0 0 0 0
1.885276 0.165736 3.143444 1 0 0 0 0
1.885276 0.082447 3.156573 1 0 0 0 0
1.885276 0.082709 3.150862 1 0 0 0 0
1.885276 0.091662 3.150242 1 0 0 0 0
1.885276 0.082447 3.156573 1 0 0 0 0
1.885276 0.074164 3.156579 1 0 0 0 0
1.885276 0.082709 3.150862 1 0 0 0 0
1.885276 0.074164 3.156579 1 0 0 0 0
1.885276 0.080571 3.151679 1 0 0 0 0
1.885276 0.082709 3.150862 1 0 0 0 0
1.885276 0.074164 3.156579 1 0 0 0 0
1.885276 0.073155 3.156579 1 0 0 0 0
1.885276 0.080571 3.151679 1 0 0 0 0
1.885276 0.091662 3.150242 1 0 0 0 0
1.885276 0.091321 3.145144 1 0 0 0 0
1.885276 0.100894 3.143912 1 0 0 0 0
1.885276 0.091662 3.150242 1 0 0 0 0
1.885276 0.082709 3.150862 1 0 0 0 0
1.885276 0.091321 3.145144 1 0 0 0 0
1.885276 0.082709 3.150862 1 0 0 0 0
1.885276 0.087033 3.147594 1 0 0 0 0
1.885276 0.091321 3.145144 1 0 0 0 0
1.885276 0.082709 3.150862 1 0 0 0 0
1.885276 0.080571 3.151679 1 0 0 0 0
1.885276 0.087033 3.147594 1 0 0 0 0
1.885276 0.082447 3.156573 1 0 0 0 0
1.885276 0.065753 3.162297 1 0 0 0 0
1.885276 0.074164 3.156579 1 0 0 0 0
1.885276 0.082447 3.156573 1 0 0 0 0
1.885276 0.073265 3.162903 1 0 0 0 0
1.885276 0.065753 3.162297 1 0 0 0 0
1.885276 0.073265 3.162903 1 0 0 0 0
1.885276 0.05741 3.168015 1 0 0 0 0
1.885276 0.065753 3.162297 1 0 0 0 0
1.885276 0.073265 3.162903 1 0 0 0 0
1.885276 0.064101 3.169233 1 0 0 0 0
1.885276 0.05741 3.168015 1 0 0 0 0
1.885276 0.074164 3.156579 1 0 0 0 0
1.885276 0.066009 3.161481 1 0 0 0 0
1.885276 0.073155 3.156579 1 0 0 0 0
1.885276 0.074164 3.156579 1 0 0 0 0
1.885276 0.065753 3.162297 1 0 0 0 0
1.885276 0.066009 3.161481 1 0 0 0 0
1.885276 0.065753 3.162297 1 0 0 0 0
1.885276 0.060353 3.165565 1 0 0 0 0
1.885276 0.066009 3.161481 1 0 0 0 0
1.885276 0.065753 3.162297 1 0 0 0 0
1.885276 0.05741 3.168015 1 0 0 0 0
1.885276 0.060353 3.165565 1 0 0 0 0
1.885276 0.082447 3.156573 1 0 -0 0 0
1.885276 0.096311 3.163086 1 0 -0 0 0
1.885276 0.073265 3.162903 1 0 -0 0 0
1.885276 0.082447 3.156573 1 -0 0 0 0
1.885276 0.105278 3.156552 1 -0 0 0 0
1.885276 0.096311 3.163086 1 -0 0 0 0
1.885276 0.105278 3.156552 1 0 -0 0 0
1.885276 0.14198 3.163044 1 0 -0 0 0
1.885276 0.096311 3.163086 1 0 -0 0 0
1.885276 0.105278 3.156552 1 -0 0 0 0
1.885276 0.149899 3.156511 1 -0 0 0 0
1.885276 0.14198 3.163044 1 -0 0 0 0
1.885276 0.073265 3.162903 1 0 -0 0 0
1.885276 0.087344 3.16962 1 0 -0 0 0
1.885276 0.064101 3.169233 1 0 -0 0 0
1.885276 0.073265 3.162903 1 0 0 0 0
1.885276 0.096311 3.163086 1 0 0 0 0
1.885276 0.087344 3.16962 1 0 0 0 0
1.885276 0.096311 3.163086 1 0 -0 0 0
1.885276 0.134062 3.169577 1 0 -0 0 0
1.885276 0.087344 3.16962 1 0 -0 0 0
1.885276 0.096311 3.163086 1 -0 0 0 0
1.885276 0.14198 3.163044 1 -0 0 0 0
1.885276 0.134062 3.169577 1 -0 0 0 0
1.885276 0.966426 2.762321 -1 0 0 0 0
1.885276 0.932516 2.825235 -1 0 0 0 0
1.885276 0.976235 2.819208 -1 0 0 0 0
1.885276 0.966426 2.762321 -1 0 0 0 0
1.885276 0.920565 2.77444 -1 0 0 0 0
1.885276 0.932516 2.825235 -1 0 0 0 0
1.885276 0.920565 2.77444 -1 0 0 0 0
1.885276 0.886099 2.831664 -1 0 0 0 0
1.885276 0.932516 2.825235 -1 0 0 0 0
1.885276 0.920565 2.77444 -1 0 0 0 0
1.885276 0.872275 2.786596 -1 0 0 0 0
1.885276 0.886099 2.831664 -1 0 0 0 0
1.885276 0.976235 2.819208 -1 0 0 0 0
1.885276 0.936149 2.878445 -1 0 0 0 0
1.885276 0.978733 2.878445 -1 0 0 0 0
1.885276 0.976235 2.819208 -1 0 0 0 0
1.885276 0.932516 2.825235 -1 0 0 0 0
1.885276 0.936149 2.878445 -1 0 0 0 0
1.885276 0.932516 2.825235 -1 0 0 0 0
1.885276 0.890943 2.878445 -1 0 0 0 0
1.885276 0.936149 2.878445 -1 0 0 0 0
1.885276 0.932516 2.825235 -1 0 0 0 0
1.885276 0.886099 2.831664 -1 0 0 0 0
1.885276 0.890943 2.878445 -1 0 0 0 0
1.885276 0.966426 2.762321 -1 -0 0 0 0
1.885276 0.899248 2.728474 -1 -0 0 0 0
1.885276 0.920565 2.77444 -1 -0 0 0 0
1.885276 0.966426 2.762321 -1 0 0 0 0
1.885276 0.946992 2.71013 -1 0 0 0 0
1.885276 0.899248 2.728474 -1 0 0 0 0
1.885276 0.946992 2.71013 -1 -0 0 0 0
1.885276 0.867513 2.68975 -1 -0 0 0 0
1.885276 0.899248 2.728474 -1 -0 0 0 0
1.885276 0.946992 2.71013 -1 0 0 0 0
1.885276 0.914295 2.667754 -1 0 0 0 0
1.885276 0.867513 2.68975 -1 0 0 0 0
1.885276 0.920565 2.77444 -1 -0 0 0 0
1.885276 0.850182 2.744953 -1 -0 0 0 0
1.885276 0.872275 2.786596 -1 -0 0 0 0
1.885276 0.920565 2.77444 -1 0 0 0 0
1.885276 0.899248 2.728474 -1 0 0 0 0
1.885276 0.850182 2.744953 -1 0 0 0 0
1.885276 0.899248 2.728474 -1 -0 0 0 0
1.885276 0.820528 2.708449 -1 -0 0 0 0
1.885276 0.850182 2.744953 -1 -0 0 0 0
1.885276 0.899248 2.728474 -1 0 0 0 0
1.885276 0.867513 2.68975 -1 0 0 0 0
1.885276 0.820528 2.708449 -1 0 0 0 0
1.885276 0.966426 2.762321 -1 0 -0 0 0
1.885276 0.992091 2.68806 -1 0 -0 0 0
1.885276 0.946992 2.71013 -1 0 -0 0 0
1.885276 0.966426 2.762321 -1 0 0 0 0
1.885276 1.007429 2.750274 -1 0 0 0 0
1.885276 0.992091 2.68806 -1 0 0 0 0
1.885276 1.007429 2.750274 -1 0 -0 0 0
1.885276 1.030225 2.669713 -1 0 -0 0 0
1.885276 0.992091 2.68806 -1 0 -0 0 0
1.885276 1.007429 2.750274 -1 0 0 0 0
1.885276 1.040393 2.740665 -1 0 0 0 0
1.885276 1.030225 2.669713 -1 0 0 0 0
1.885276 0.946992 2.71013 -1 0 -0 0 0
1.885276 0.96067 2.639163 -1 0 -0 0 0
1.885276 0.914295 2.667754 -1 0 -0 0 0
1.885276 0.946992 2.71013 -1 0 0 0 0
1.885276 0.992091 2.68806 -1 0 0 0 0
1.885276 0.96067 2.639163 -1 0 0 0 0
1.885276 0.992091 2.68806 -1 0 -0 0 0
1.885276 1.010505 2.588346 -1 0 -0 0 0
1.885276 0.96067 2.639163 -1 0 -0 0 0
1.885276 0.992091 2.68806 -1 0 0 0 0
1.885276 1.030225 2.669713 -1 0 0 0 0
1.885276 1.010505 2.588346 -1 0 0 0 0
1.885276 0.966426 2.762321 -1 0 0 0 0
1.885276 1.01456 2.813985 -1 0 0 0 0
1.885276 1.007429 2.750274 -1 0 0 0 0
1.885276 0.966426 2.762321 -1 0 0 0 0
1.885276 0.976235 2.819208 -1 0 0 0 0
1.885276 1.01456 2.813985 -1 0 0 0 0
1.885276 0.976235 2.819208 -1 0 0 0 0
1.885276 1.016073 2.878445 -1 0 0 0 0
1.885276 1.01456 2.813985 -1 0 0 0 0
1.885276 0.976235 2.819208 -1 0 0 0 0
1.885276 0.978733 2.878445 -1 0 0 0 0
1.885276 1.016073 2.878445 -1 0 0 0 0
1.885276 1.007429 2.750274 -1 0 0 0 0
1.885276 1.044792 2.809967 -1 0 0 0 0
1.885276 1.040393 2.740665 -1 0 0 0 0
1.885276 1.007429 2.750274 -1 0 0 0 0
1.885276 1.01456 2.813985 -1 0 0 0 0
1.885276 1.044792 2.809967 -1 0 0 0 0
1.885276 1.01456 2.813985 -1 0 0 0 0
1.885276 1.045549 2.878445 -1 0 0 0 0
1.885276 1.044792 2.809967 -1 0 0 0 0
1.885276 1.01456 2.813985 -1 0 0 0 0
1.885276 1.016073 2.878445 -1 0 0 0 0
1.885276 1.045549 2.878445 -1 0 0 0 0
1.885276 0.805528 2.623489 1 0 0 0 0
1.885276 0.723205 2.625512 1 0 0 0 0
1.885276 0.744102 2.612991 1 0 0 0 0
1.885276 0.805528 2.623489 1 0 0 0 0
1.885276 0.774566 2.639773 1 0 0 0 0
1.885276 0.723205 2.625512 1 0 0 0 0
1.885276 0.774566 2.639773 1 0 0 0 0
1.885276 0.702307 2.638033 1 0 0 0 0
1.885276 0.723205 2.625512 1 0 0 0 0
1.885276 0.774566 2.639773 1 0 0 0 0
1.885276 0.74363 2.65549 1 0 0 0 0
1.885276 0.702307 2.638033 1 0 0 0 0
1.885276 0.744102 2.612991 1 0 0 0 0
1.885276 0.675153 2.616398 1 0 0 0 0
1.885276 0.687288 2.606876 1 0 0 0 0
1.885276 0.744102 2.612991 1 0 0 0 0
1.885276 0.723205 2.625512 1 0 0 0 0
1.885276 0.675153 2.616398 1 0 0 0 0
1.885276 0.723205 2.625512 1 0 0 0 0
1.885276 0.663018 2.625921 1 0 0 0 0
1.885276 0.675153 2.616398 1 0 0 0 0
1.885276 0.723205 2.625512 1 0 0 0 0
1.885276 0.702307 2.638033 1 0 0 0 0
1.885276 0.663018 2.625921 1 0 0 0 0
1.885276 0.805528 2.623489 1 0 -0 0 0
1.885276 0.824311 2.660685 1 0 -0 0 0
1.885276 0.774566 2.639773 1 0 -0 0 0
1.885276 0.805528 2.623489 1 0 0 0 0
1.885276 0.8647 2.640309 1 0 0 0 0
1.885276 0.824311 2.660685 1 0 0 0 0
1.885276 0.8647 2.640309 1 0 -0 0 0
1.885276 0.867513 2.68975 1 0 -0 0 0
1.885276 0.824311 2.660685 1 0 -0 0 0
1.885276 0.8647 2.640309 1 0 0 0 0
1.885276 0.914295 2.667754 1 0 0 0 0
1.885276 0.867513 2.68975 1 0 0 0 0
1.885276 0.774566 2.639773 1 0 -0 0 0
1.885276 0.784024 2.678795 1 0 -0 0 0
1.885276 0.74363 2.65549 1 0 -0 0 0
1.885276 0.774566 2.639773 1 0 0 0 0
1.885276 0.824311 2.660685 1 0 0 0 0
1.885276 0.784024 2.678795 1 0 0 0 0
1.885276 0.824311 2.660685 1 0 0 0 0
1.885276 0.820528 2.708449 1 0 0 0 0
1.885276 0.784024 2.678795 1 0 0 0 0
1.885276 0.824311 2.660685 1 0 -0 0 0
1.885276 0.867513 2.68975 1 0 -0 0 0
1.885276 0.820528 2.708449 1 0 -0 0 0
1.885276 0.805528 2.623489 1 -0 0 0 0
1.885276 0.905292 2.615402 1 -0 0 0 0
1.885276 0.8647 2.640309 1 -0 0 0 0
1.885276 0.805528 2.623489 1 0 0 0 0
1.885276 0.836541 2.606072 1 0 0 0 0
1.885276 0.905292 2.615402 1 0 0 0 0
1.885276 0.836541 2.606072 1 -0 0 0 0
1.885276 0.945987 2.588229 1 -0 0 0 0
1.885276 0.905292 2.615402 1 -0 0 0 0
1.885276 0.836541 2.606072 1 0 0 0 0
1.885276 0.867579 2.588089 1 0 0 0 0
1.885276 0.945987 2.588229 1 0 0 0 0
1.885276 0.8647 2.640309 1 -0 0 0 0
1.885276 0.96067 2.639163 1 -0 0 0 0
1.885276 0.914295 2.667754 1 -0 0 0 0
1.885276 0.8647 2.640309 1 0 0 0 0
1.885276 0.905292 2.615402 1 0 0 0 0
1.885276 0.96067 2.639163 1 0 0 0 0
1.885276 0.905292 2.615402 1 -0 0 0 0
1.885276 1.010505 2.588346 1 -0 0 0 0
1.885276 0.96067 2.639163 1 -0 0 0 0
1.885276 0.905292 2.615402 1 0 0 0 0
1.885276 0.945987 2.588229 1 0 0 0 0
1.885276 1.010505 2.588346 1 0 0 0 0
1.885276 0.805528 2.623489 1 0 0 0 0
1.885276 0.765 2.60047 1 0 0 0 0
1.885276 0.836541 2.606072 1 0 0 0 0
1.885276 0.805528 2.623489 1 0 0 0 0
1.885276 0.744102 2.612991 1 0 0 0 0
1.885276 0.765 2.60047 1 0 0 0 0
1.885276 0.744102 2.612991 1 0 0 0 0
1.885276 0.699423 2.597353 1 0 0 0 0
1.885276 0.765 2.60047 1 0 0 0 0
1.885276 0.744102 2.612991 1 0 0 0 0
1.885276 0.687288 2.606876 1 0 0 0 0
1.885276 0.699423 2.597353 1 0 0 0 0
1.885276 0.836541 2.606072 1 0 0 0 0
1.885276 0.785898 2.587948 1 0 0 0 0
1.885276 0.867579 2.588089 1 0 0 0 0
1.885276 0.836541 2.606072 1 0 0 0 0
1.885276 0.765 2.60047 1 0 0 0 0
1.885276 0.785898 2.587948 1 0 0 0 0
1.885276 0.765 2.60047 1 0 0 0 0
1.885276 0.711558 2.58783 1 0 0 0 0
1.885276 0.785898 2.587948 1 0 0 0 0
1.885276 0.765 2.60047 1 0 0 0 0
1.885276 0.699423 2.597353 1 0 0 0 0
1.885276 0.711558 2.58783 1 0 0 0 0
1.885276 0.805528 3.133401 1 0 0 0 0
1.885276 0.824311 3.096205 1 0 0 0 0
1.885276 0.8647 3.116581 1 0 0 0 0
1.885276 0.805528 3.133401 1 0 0 0 0
1.885276 0.774566 3.117117 1 0 0 0 0
1.885276 0.824311 3.096205 1 0 0 0 0
1.885276 0.774566 3.117117 1 0 0 0 0
1.885276 0.784024 3.078095 1 0 0 0 0
1.885276 0.824311 3.096205 1 0 0 0 0
1.885276 0.774566 3.117117 1 0 0 0 0
1.885276 0.74363 3.101399 1 0 0 0 0
1.885276 0.784024 3.078095 1 0 0 0 0
1.885276 0.8647 3.116581 1 0 0 0 0
1.885276 0.867513 3.067139 1 0 0 0 0
1.885276 0.914295 3.089135 1 0 0 0 0
1.885276 0.8647 3.116581 1 0 0 0 0
1.885276 0.824311 3.096205 1 0 0 0 0
1.885276 0.867513 3.067139 1 0 0 0 0
1.885276 0.824311 3.096205 1 0 0 0 0
1.885276 0.820528 3.048441 1 0 0 0 0
1.885276 0.867513 3.067139 1 0 0 0 0
1.885276 0.824311 3.096205 1 0 0 0 0
1.885276 0.784024 3.078095 1 0 0 0 0
1.885276 0.820528 3.048441 1 0 0 0 0
1.885276 0.805528 3.133401 1 0 0 0 0
1.885276 0.723205 3.131378 1 0 0 0 0
1.885276 0.774566 3.117117 1 0 0 0 0
1.885276 0.805528 3.133401 1 0 0 0 0
1.885276 0.744102 3.143899 1 0 0 0 0
1.885276 0.723205 3.131378 1 0 0 0 0
1.885276 0.744102 3.143899 1 0 0 0 0
1.885276 0.675153 3.140491 1 0 0 0 0
1.885276 0.723205 3.131378 1 0 0 0 0
1.885276 0.744102 3.143899 1 0 0 0 0
1.885276 0.687288 3.150014 1 0 0 0 0
1.885276 0.675153 3.140491 1 0 0 0 0
1.885276 0.774566 3.117117 1 0 0 0 0
1.885276 0.702307 3.118857 1 0 0 0 0
1.885276 0.74363 3.101399 1 0 0 0 0
1.885276 0.774566 3.117117 1 0 0 0 0
1.885276 0.723205 3.131378 1 0 0 0 0
1.885276 0.702307 3.118857 1 0 0 0 0
1.885276 0.723205 3.131378 1 0 0 0 0
1.885276 0.663018 3.130969 1 0 0 0 0
1.885276 0.702307 3.118857 1 0 0 0 0
1.885276 0.723205 3.131378 1 0 0 0 0
1.885276 0.675153 3.140491 1 0 0 0 0
1.885276 0.663018 3.130969 1 0 0 0 0
1.885276 0.805528 3.133401 1 0 0 0 0
1.885276 0.765 3.15642 1 0 0 0 0
1.885276 0.744102 3.143899 1 0 0 0 0
1.885276 0.805528 3.133401 1 0 -0 0 0
1.885276 0.836541 3.150818 1 0 -0 0 0
1.885276 0.765 3.15642 1 0 -0 0 0
1.885276 0.836541 3.150818 1 0 0 0 0
1.885276 0.785898 3.168941 1 0 0 0 0
1.885276 0.765 3.15642 1 0 0 0 0
1.885276 0.836541 3.150818 1 0 -0 0 0
1.885276 0.867579 3.168801 1 0 -0 0 0
1.885276 0.785898 3.168941 1 0 -0 0 0
1.885276 0.744102 3.143899 1 0 0 0 0
1.885276 0.699423 3.159537 1 0 0 0 0
1.885276 0.687288 3.150014 1 0 0 0 0
1.885276 0.744102 3.143899 1 0 -0 0 0
1.885276 0.765 3.15642 1 0 -0 0 0
1.885276 0.699423 3.159537 1 0 -0 0 0
1.885276 0.765 3.15642 1 0 0 0 0
1.885276 0.711558 3.16906 1 0 0 0 0
1.885276 0.699423 3.159537 1 0 0 0 0
1.885276 0.765 3.15642 1 0 -0 0 0
1.885276 0.785898 3.168941 1 0 -0 0 0
1.885276 0.711558 3.16906 1 0 -0 0 0
1.885276 0.805528 3.133401 1 0 0 0 0
1.885276 0.905292 3.141488 1 0 0 0 0
1.885276 0.836541 3.150818 1 0 0 0 0
1.885276 0.805528 3.133401 1 -0 0 0 0
1.885276 0.8647 3.116581 1 -0 0 0 0
1.885276 0.905292 3.141488 1 -0 0 0 0
1.885276 0.8647 3.116581 1 0 0 0 0
1.885276 0.96067 3.117727 1 0 0 0 0
1.885276 0.905292 3.141488 1 0 0 0 0
1.885276 0.8647 3.116581 1 -0 0 0 0
1.885276 0.914295 3.089135 1 -0 0 0 0
1.885276 0.96067 3.117727 1 -0 0 0 0
1.885276 0.836541 3.150818 1 0 0 0 0
1.885276 0.945987 3.168661 1 0 0 0 0
1.885276 0.867579 3.168801 1 0 0 0 0
1.885276 0.836541 3.150818 1 -0 0 0 0
1.885276 0.905292 3.141488 1 -0 0 0 0
1.885276 0.945987 3.168661 1 -0 0 0 0
1.885276 0.905292 3.141488 1 0 0 0 0
1.885276 1.010505 3.168544 1 0 0 0 0
1.885276 0.945987 3.168661 1 0 0 0 0
1.885276 0.905292 3.141488 1 -0 0 0 0
1.885276 0.96067 3.117727 1 -0 0 0 0
1.885276 1.010505 3.168544 1 -0 0 0 0
1.885276 0.966426 2.994569 1 0 0 0 0
1.885276 0.932516 2.931654 1 0 0 0 0
1.885276 0.976235 2.937681 1 0 0 0 0
1.885276 0.966426 2.994569 1 0 0 0 0
1.885276 0.920565 2.98245 1 0 0 0 0
1.885276 0.932516 2.931654 1 0 0 0 0
1.885276 0.920565 2.98245 1 0 0 0 0
1.885276 0.886099 2.925226 1 0 0 0 0
1.885276 0.932516 2.931654 1 0 0 0 0
1.885276 0.920565 2.98245 1 0 0 0 0
1.885276 0.872275 2.970294 1 0 0 0 0
1.885276 0.886099 2.925226 1 0 0 0 0
1.885276 0.976235 2.937681 1 0 0 0 0
1.885276 0.936149 2.878445 1 0 0 0 0
1.885276 0.978733 2.878445 1 0 0 0 0
1.885276 0.976235 2.937681 1 0 0 0 0
1.885276 0.932516 2.931654 1 0 0 0 0
1.885276 0.936149 2.878445 1 0 0 0 0
1.885276 0.932516 2.931654 1 0 0 0 0
1.885276 0.890943 2.878445 1 0 0 0 0
1.885276 0.936149 2.878445 1 0 0 0 0
1.885276 0.932516 2.931654 1 0 0 0 0
1.885276 0.886099 2.925226 1 0 0 0 0
1.885276 0.890943 2.878445 1 0 0 0 0
1.885276 0.966426 2.994569 1 0 0 0 0
1.885276 0.899248 3.028416 1 0 0 0 0
1.885276 0.920565 2.98245 1 0 0 0 0
1.885276 0.966426 2.994569 1 0 0 0 0
1.885276 0.946992 3.046759 1 0 0 0 0
1.885276 0.899248 3.028416 1 0 0 0 0
1.885276 0.946992 3.046759 1 0 0 0 0
1.885276 0.867513 3.067139 1 0 0 0 0
1.885276 0.899248 3.028416 1 0 0 0 0
1.885276 0.946992 3.046759 1 0 0 0 0
1.885276 0.914295 3.089135 1 0 0 0 0
1.885276 0.867513 3.067139 1 0 0 0 0
1.885276 0.920565 2.98245 1 0 0 0 0
1.885276 0.850182 3.011937 1 0 0 0 0
1.885276 0.872275 2.970294 1 0 0 0 0
1.885276 0.920565 2.98245 1 0 0 0 0
1.885276 0.899248 3.028416 1 0 0 0 0
1.885276 0.850182 3.011937 1 0 0 0 0
1.885276 0.899248 3.028416 1 0 0 0 0
1.885276 0.820528 3.048441 1 0 0 0 0
1.885276 0.850182 3.011937 1 0 0 0 0
1.885276 0.899248 3.028416 1 0 0 0 0
1.885276 0.867513 3.067139 1 0 0 0 0
1.885276 0.820528 3.048441 1 0 0 0 0
1.885276 0.966426 2.994569 1 0 -0 0 0
1.885276 0.992091 3.06883 1 0 -0 0 0
1.885276 0.946992 3.046759 1 0 -0 0 0
1.885276 0.966426 2.994569 1 0 0 0 0
1.885276 1.007429 3.006616 1 0 0 0 0
1.885276 0.992091 3.06883 1 0 0 0 0
1.885276 1.007429 3.006616 1 0 -0 0 0
1.885276 1.030225 3.087176 1 0 -0 0 0
1.885276 0.992091 3.06883 1 0 -0 0 0
1.885276 1.007429 3.006616 1 0 0 0 0
1.885276 1.040393 3.016225 1 0 0 0 0
1.885276 1.030225 3.087176 1 0 0 0 0
1.885276 0.946992 3.046759 1 0 -0 0 0
1.885276 0.96067 3.117727 1 0 -0 0 0
1.885276 0.914295 3.089135 1 0 -0 0 0
1.885276 0.946992 3.046759 1 0 0 0 0
1.885276 0.992091 3.06883 1 0 0 0 0
1.885276 0.96067 3.117727 1 0 0 0 0
1.885276 0.992091 3.06883 1 0 -0 0 0
1.885276 1.010505 3.168544 1 0 -0 0 0
1.885276 0.96067 3.117727 1 0 -0 0 0
1.885276 0.992091 3.06883 1 0 0 0 0
1.885276 1.030225 3.087176 1 0 0 0 0
1.885276 1.010505 3.168544 1 0 0 0 0
1.885276 0.966426 2.994569 1 -0 0 0 0
1.885276 1.01456 2.942905 1 -0 0 0 0
1.885276 1.007429 3.006616 1 -0 0 0 0
1.885276 0.966426 2.994569 1 0 0 0 0
1.885276 0.976235 2.937681 1 0 0 0 0
1.885276 1.01456 2.942905 1 0 0 0 0
1.885276 0.976235 2.937681 1 -0 0 0 0
1.885276 1.016073 2.878445 1 -0 0 0 0
1.885276 1.01456 2.942905 1 -0 0 0 0
1.885276 0.976235 2.937681 1 0 0 0 0
1.885276 0.978733 2.878445 1 0 0 0 0
1.885276 1.016073 2.878445 1 0 0 0 0
1.885276 1.007429 3.006616 1 -0 0 0 0
1.885276 1.044792 2.946923 1 -0 0 0 0
1.885276 1.040393 3.016225 1 -0 0 0 0
1.885276 1.007429 3.006616 1 0 0 0 0
1.885276 1.01456 2.942905 1 0 0 0 0
1.885276 1.044792 2.946923 1 0 0 0 0
1.885276 1.01456 2.942905 1 -0 0 0 0
1.885276 1.045549 2.878445 1 -0 0 0 0
1.885276 1.044792 2.946923 1 -0 0 0 0
1.885276 1.01456 2.942905 1 0 0 0 0
1.885276 1.016073 2.878445 1 0 0 0 0
1.885276 1.045549 2.878445 1 0 0 0 0
1.885276 1.075036 3.022269 1 0 0 0 0
1.885276 1.064234 2.949333 1 0 0 0 0
1.885276 1.075584 2.950539 1 0 0 0 0
1.885276 1.075036 3.022269 1 0 0 0 0
1.885276 1.062142 3.021031 1 0 0 0 0
1.885276 1.064234 2.949333 1 0 0 0 0
1.885276 1.062142 3.021031 1 0 0 0 0
1.885276 1.044792 2.946923 1 0 0 0 0
1.885276 1.064234 2.949333 1 0 0 0 0
1.885276 1.062142 3.021031 1 0 0 0 0
1.885276 1.040393 3.016225 1 0 0 0 0
1.885276 1.044792 2.946923 1 0 0 0 0
1.885276 1.075584 2.950539 1 0 0 0 0
1.885276 1.064537 2.878445 1 0 0 0 0
1.885276 1.07566 2.878445 1 0 0 0 0
1.885276 1.075584 2.950539 1 0 0 0 0
1.885276 1.064234 2.949333 1 0 0 0 0
1.885276 1.064537 2.878445 1 0 0 0 0
1.885276 1.064234 2.949333 1 0 0 0 0
1.885276 1.045549 2.878445 1 0 0 0 0
1.885276 1.064537 2.878445 1 0 0 0 0
1.885276 1.064234 2.949333 1 0 0 0 0
1.885276 1.044792 2.946923 1 0 0 0 0
1.885276 1.045549 2.878445 1 0 0 0 0
1.885276 1.075036 3.022269 1 0 0 0 0
1.885276 1.057074 3.094348 1 0 0 0 0
1.885276 1.062142 3.021031 1 0 0 0 0
1.885276 1.075036 3.022269 1 0 0 0 0
1.885276 1.073693 3.09327 1 0 0 0 0
1.885276 1.057074 3.094348 1 0 0 0 0
1.885276 1.073693 3.09327 1 0 0 0 0
1.885276 1.05052 3.168474 1 0 0 0 0
1.885276 1.057074 3.094348 1 0 0 0 0
1.885276 1.073693 3.09327 1 0 0 0 0
1.885276 1.071952 3.163908 1 0 0 0 0
1.885276 1.05052 3.168474 1 0 0 0 0
1.885276 1.062142 3.021031 1 0 0 0 0
1.885276 1.030225 3.087176 1 0 0 0 0
1.885276 1.040393 3.016225 1 0 0 0 0
1.885276 1.062142 3.021031 1 0 0 0 0
1.885276 1.057074 3.094348 1 0 0 0 0
1.885276 1.030225 3.087176 1 0 0 0 0
1.885276 1.057074 3.094348 1 0 0 0 0
1.885276 1.010505 3.168544 1 0 0 0 0
1.885276 1.030225 3.087176 1 0 0 0 0
1.885276 1.057074 3.094348 1 0 0 0 0
1.885276 1.05052 3.168474 1 0 0 0 0
1.885276 1.010505 3.168544 1 0 0 0 0
1.885276 1.075036 3.022269 1 0 -0 0 0
1.885276 1.081132 3.08687 1 0 -0 0 0
1.885276 1.073693 3.09327 1 0 -0 0 0
1.885276 1.075036 3.022269 1 -0 0 0 0
1.885276 1.081438 3.021171 1 -0 0 0 0
1.885276 1.081132 3.08687 1 -0 0 0 0
1.885276 1.081438 3.021171 1 0 -0 0 0
1.885276 1.083983 3.077808 1 0 -0 0 0
1.885276 1.081132 3.08687 1 0 -0 0 0
1.885276 1.081438 3.021171 1 -0 0 0 0
1.885276 1.084594 3.018905 1 -0 0 0 0
1.885276 1.083983 3.077808 1 -0 0 0 0
1.885276 1.073693 3.09327 1 0 -0 0 0
1.885276 1.080725 3.150303 1 0 -0 0 0
1.885276 1.071952 3.163908 1 0 -0 0 0
1.885276 1.073693 3.09327 1 -0 0 0 0
1.885276 1.081132 3.08687 1 -0 0 0 0
1.885276 1.080725 3.150303 1 -0 0 0 0
1.885276 1.081132 3.08687 1 0 -0 0 0
1.885276 1.082761 3.123117 1 0 -0 0 0
1.885276 1.080725 3.150303 1 0 -0 0 0
1.885276 1.081132 3.08687 1 -0 0 0 0
1.885276 1.083983 3.077808 1 -0 0 0 0
1.885276 1.082761 3.123117 1 -0 0 0 0
1.885276 1.075036 3.022269 1 0 0 0 0
1.885276 1.08154 2.950941 1 0 0 0 0
1.885276 1.081438 3.021171 1 0 0 0 0
1.885276 1.075036 3.022269 1 0 0 0 0
1.885276 1.075584 2.950539 1 0 0 0 0
1.885276 1.08154 2.950941 1 0 0 0 0
1.885276 1.075584 2.950539 1 -0 0 0 0
1.885276 1.08154 2.878445 1 -0 0 0 0
1.885276 1.08154 2.950941 1 -0 0 0 0
1.885276 1.075584 2.950539 1 0 0 0 0
1.885276 1.07566 2.878445 1 0 0 0 0
1.885276 1.08154 2.878445 1 0 0 0 0
1.885276 1.081438 3.021171 1 0 0 0 0
1.885276 1.084797 2.950941 1 0 0 0 0
1.885276 1.084594 3.018905 1 0 0 0 0
1.885276 1.081438 3.021171 1 0 0 0 0
1.885276 1.08154 2.950941 1 0 0 0 0
1.885276 1.084797 2.950941 1 0 0 0 0
1.885276 1.08154 2.950941 1 -0 0 0 0
1.885276 1.084797 2.878445 1 -0 0 0 0
1.885276 1.084797 2.950941 1 -0 0 0 0
1.885276 1.08154 2.950941 1 0 0 0 0
1.885276 1.08154 2.878445 1 0 0 0 0
1.885276 1.084797 2.878445 1 0 0 0 0
1.885276 1.075036 2.734621 -1 0 0 0 0
1.885276 1.064234 2.807556 -1 0 0 0 0
1.885276 1.075584 2.806351 -1 0 0 0 0
1.885276 1.075036 2.734621 -1 0 0 0 0
1.885276 1.062142 2.735859 -1 0 0 0 0
1.885276 1.064234 2.807556 -1 0 0 0 0
1.885276 1.062142 2.735859 -1 0 0 0 0
1.885276 1.044792 2.809967 -1 0 0 0 0
1.885276 1.064234 2.807556 -1 0 0 0 0
1.885276 1.062142 2.735859 -1 0 0 0 0
1.885276 1.040393 2.740665 -1 0 0 0 0
1.885276 1.044792 2.809967 -1 0 0 0 0
1.885276 1.075584 2.806351 -1 0 0 0 0
1.885276 1.064537 2.878445 -1 0 0 0 0
1.885276 1.07566 2.878445 -1 0 0 0 0
1.885276 1.075584 2.806351 -1 0 0 0 0
1.885276 1.064234 2.807556 -1 0 0 0 0
1.885276 1.064537 2.878445 -1 0 0 0 0
1.885276 1.064234 2.807556 -1 0 0 0 0
1.885276 1.045549 2.878445 -1 0 0 0 0
1.885276 1.064537 2.878445 -1 0 0 0 0
1.885276 1.064234 2.807556 -1 0 0 0 0
1.885276 1.044792 2.809967 -1 0 0 0 0
1.885276 1.045549 2.878445 -1 0 0 0 0
1.885276 1.075036 2.734621 -1 -0 0 0 0
1.885276 1.057074 2.662542 -1 -0 0 0 0
1.885276 1.062142 2.735859 -1 -0 0 0 0
1.885276 1.075036 2.734621 -1 0 0 0 0
1.885276 1.073693 2.66362 -1 0 0 0 0
1.885276 1.057074 2.662542 -1 0 0 0 0
1.885276 1.073693 2.66362 -1 0 0 0 0
1.885276 1.05052 2.588416 -1 0 0 0 0
1.885276 1.057074 2.662542 -1 0 0 0 0
1.885276 1.073693 2.66362 -1 0 0 0 0
1.885276 1.071952 2.592982 -1 0 0 0 0
1.885276 1.05052 2.588416 -1 0 0 0 0
1.885276 1.062142 2.735859 -1 -0 0 0 0
1.885276 1.030225 2.669713 -1 -0 0 0 0
1.885276 1.040393 2.740665 -1 -0 0 0 0
1.885276 1.062142 2.735859 -1 0 0 0 0
1.885276 1.057074 2.662542 -1 0 0 0 0
1.885276 1.030225 2.669713 -1 0 0 0 0
1.885276 1.057074 2.662542 -1 -0 0 0 0
1.885276 1.010505 2.588346 -1 -0 0 0 0
1.885276 1.030225 2.669713 -1 -0 0 0 0
1.885276 1.057074 2.662542 -1 0 0 0 0
1.885276 1.05052 2.588416 -1 0 0 0 0
1.885276 1.010505 2.588346 -1 0 0 0 0
1.885276 1.075036 2.734621 -1 0 -0 0 0
1.885276 1.081132 2.67002 -1 0 -0 0 0
1.885276 1.073693 2.66362 -1 0 -0 0 0
1.885276 1.075036 2.734621 -1 0 0 0 0
1.885276 1.081438 2.735719 -1 0 0 0 0
1.885276 1.081132 2.67002 -1 0 0 0 0
1.885276 1.081438 2.735719 -1 0 -0 0 0
1.885276 1.083983 2.679082 -1 0 -0 0 0
1.885276 1.081132 2.67002 -1 0 -0 0 0
1.885276 1.081438 2.735719 -1 0 0 0 0
1.885276 1.084594 2.737985 -1 0 0 0 0
1.885276 1.083983 2.679082 -1 0 0 0 0
1.885276 1.073693 2.66362 -1 0 -0 0 0
1.885276 1.080725 2.606586 -1 0 -0 0 0
1.885276 1.071952 2.592982 -1 0 -0 0 0
1.885276 1.073693 2.66362 -1 0 0 0 0
1.885276 1.081132 2.67002 -1 0 0 0 0
1.885276 1.080725 2.606586 -1 0 0 0 0
1.885276 1.081132 2.67002 -1 0 -0 0 0
1.885276 1.082761 2.633772 -1 0 -0 0 0
1.885276 1.080725 2.606586 -1 0 -0 0 0
1.885276 1.081132 2.67002 -1 0 0 0 0
1.885276 1.083983 2.679082 -1 0 0 0 0
1.885276 1.082761 2.633772 -1 0 0 0 0
1.885276 1.075036 2.734621 -1 0 0 0 0
1.885276 1.08154 2.805949 -1 0 0 0 0
1.885276 1.081438 2.735719 -1 0 0 0 0
1.885276 1.075036 2.734621 -1 0 0 0 0
1.885276 1.075584 2.806351 -1 0 0 0 0
1.885276 1.08154 2.805949 -1 0 0 0 0
1.885276 1.075584 2.806351 -1 0 0 0 0
1.885276 1.08154 2.878445 -1 0 0 0 0
1.885276 1.08154 2.805949 -1 0 0 0 0
1.885276 1.075584 2.806351 -1 0 0 0 0
1.885276 1.07566 2.878445 -1 0 0 0 0
1.885276 1.08154 2.878445 -1 0 0 0 0
1.885276 1.081438 2.735719 -1 0 0 0 0
1.885276 1.084797 2.805949 -1 0 0 0 0
1.885276 1.084594 2.737985 -1 0 0 0 0
1.885276 1.081438 2.735719 -1 0 0 0 0
1.885276 1.08154 2.805949 -1 0 0 0 0
1.885276 1.084797 2.805949 -1 0 0 0 0
1.885276 1.08154 2.805949 -1 0 0 0 0
1.885276 1.084797 2.878445 -1 0 0 0 0
1.885276 1.084797 2.805949 -1 0 0 0 0
1.885276 1.08154 2.805949 -1 0 0 0 0
1.885276 1.08154 2.878445 -1 0 0 0 0
1.885276 1.084797 2.878445 -1 0 0 0 0
3 0 1 2
3 3 4 5
3 6 7 8
3 9 10 11
3 12 13 14
3 15 16 17
3 18 19 20
3 21 22 23
3 24 25 26
3 27 28 29
3 30 31 32
3 33 34 35
3 36 37 38
3 39 40 41
3 42 43 44
3 45 46 47
3 48 49 50
3 51 52 53
3 54 55 56
3 57 58 59
3 60 61 62
3 63 64 65
3 66 67 68
3 69 70 71
3 72 73 74
3 75 76 77
3 78 79 80
3 81 82 83
3 84 85 86
3 87 88 89
3 90 91 92
3 93 94 95
3 96 97 98
3 99 100 101
3 102 103 104
3 105 106 107
3 108 109 110
3 111 112 113
3 114 115 116
3 117 118 119
3 120 121 122
3 123 124 125
3 126 127 128
3 129 130 131
3 132 133 134
3 135 136 137
3 138 139 140
3 141 142 143
3 144 145 146
3 147 148 149
3 150 151 152
3 153 154 155
3 156 157 158
3 159 160 161
3 162 163 164
3 165 166 167
3 168 169 170
3 171 172 173
3 174 175 176
3 177 178 179
3 180 181 182
3 183 184 185
3 186 187 188
3 189 190 191
3 192 193 194
3 195 196 197
3 198 199 200
3 201 202 203
3 204 205 206
3 207 208 209
3 210 211 212
3 213 214 215
3 216 217 218
3 219 220 221
3 222 223 224
3 225 226 227
3 228 229 230
3 231 232 233
3 234 235 236
3 237 238 239
3 240 241 242
3 243 244 245
3 246 247 248
3 249 250 251
3 252 253 254
3 255 256 257
3 258 259 260
3 261 262 263
3 264 265 266
3 267 268 269
3 270 271 272
3 273 274 275
3 276 277 278
3 279 280 281
3 282 283 284
3 285 286 287
3 288 289 290
3 291 292 293
3 294 295 296
3 297 298 299
3 300 301 302
3 303 304 305
3 306 307 308
3 309 310 311
3 312 313 314
3 315 316 317
3 318 319 320
3 321 322 323
3 324 325 326
3 327 328 329
3 330 331 332
3 333 334 335
3 336 337 338
3 339 340 341
3 342 343 344
3 345 346 347
3 348 349 350
3 351 352 353
3 354 355 356
3 357 358 359
3 360 361 362
3 363 364 365
3 366 367 368
3 369 370 371
3 372 373 374
3 375 376 377
3 378 379 380
3 381 382 383
3 384 385 386
3 387 388 389
3 390 391 392
3 393 394 395
3 396 397 398
3 399 400 401
3 402 403 404
3 405 406 407
3 408 409 410
3 411 412 413
3 414 415 416
3 417 418 419
3 420 421 422
3 423 424 425
3 426 427 428
3 429 430 431
3 432 433 434
3 435 436 437
3 438 439 440
3 441 442 443
3 444 445 446
3 447 448 449
3 450 451 452
3 453 454 455
3 456 457 458
3 459 460 461
3 462 463 464
3 465 466 467
3 468 469 470
3 471 472 473
3 474 475 476
3 477 478 479
3 480 481 482
3 483 484 485
3 486 487 488
3 489 490 491
3 492 493 494
3 495 496 497
3 498 499 500
3 501 502 503
3 504 505 506
3 507 508 509
3 510 511 512
3 513 514 515
3 516 517 518
3 519 520 521
3 522 523 524
3 525 526 527
3 528 529 530
3 531 532 533
3 534 535 536
3 537 538 539
3 540 541 542
3 543 544 545
3 546 547 548
3 549 550 551
3 552 553 554
3 555 556 557
3 558 559 560
3 561 562 563
3 564 565 566
3 567 568 569
3 570 571 572
3 573 574 575
3 576 577 578
3 579 580 581
3 582 583 584
3 585 586 587
3 588 589 590
3 591 592 593
3 594 595 596
3 597 598 599
3 600 601 602
3 603 604 605
3 606 607 608
3 609 610 611
3 612 613 614
3 615 616 617
3 618 619 620
3 621 622 623
3 624 625 626
3 627 628 629
3 630 631 632
3 633 634 635
3 636 637 638
3 639 640 641
3 642 643 644
3 645 646 647
3 648 649 650
3 651 652 653
3 654 655 656
3 657 658 659
3 660 661 662
3 663 664 665
3 666 667 668
3 669 670 671
3 672 673 674
3 675 676 677
3 678 679 680
3 681 682 683
3 684 685 686
3 687 688 689
3 690 691 692
3 693 694 695
3 696 697 698
3 699 700 701
3 702 703 704
3 705 706 707
3 708 709 710
3 711 712 713
3 714 715 716
3 717 718 719
3 720 721 722
3 723 724 725
3 726 727 728
3 729 730 731
3 732 733 734
3 735 736 737
3 738 739 740
3 741 742 743
3 744 745 746
3 747 748 749
3 750 751 752
3 753 754 755
3 756 757 758
3 759 760 761
3 762 763 764
3 765 766 767
3 768 769 770
3 771 772 773
3 774 775 776
3 777 778 779
3 780 781 782
3 783 784 785
3 786 787 788
3 789 790 791
3 792 793 794
3 795 796 797
3 798 799 800
3 801 802 803
3 804 805 806
3 807 808 809
3 810 811 812
3 813 814 815
3 816 817 818
3 819 820 821
3 822 823 824
3 825 826 827
3 828 829 830
3 831 832 833
3 834 835 836
3 837 838 839
3 840 841 842
3 843 844 845
3 846 847 848
3 849 850 851
3 852 853 854
3 855 856 857
3 858 859 860
3 861 862 863
3 864 865 866
3 867 868 869
3 870 871 872
3 873 874 875
3 876 877 878
3 879 880 881
3 882 883 884
3 885 886 887
3 888 889 890
3 891 892 893
3 894 895 896
3 897 898 899
3 900 901 902
3 903 904 905
3 906 907 908
3 909 910 911
3 912 913 914
3 915 916 917
3 918 919 920
3 921 922 923
3 924 925 926
3 927 928 929
3 930 931 932
3 933 934 935
3 936 937 938
3 939 940 941
3 942 943 944
3 945 946 947
3 948 949 950
3 951 952 953
3 954 955 956
3 957 958 959
3 960 961 962
3 963 964 965
3 966 967 968
3 969 970 971
3 972 973 974
3 975 976 977
3 978 979 980
3 981 982 983
3 984 985 986
3 987 988 989
3 990 991 992
3 993 994 995
3 996 997 998
3 999 1000 1001
3 1002 1003 1004
3 1005 1006 1007
3 1008 1009 1010
3 1011 1012 1013
3 1014 1015 1016
3 1017 1018 1019
3 1020 1021 1022
3 1023 1024 1025
3 1026 1027 1028
3 1029 1030 1031
3 1032 1033 1034
3 1035 1036 1037
3 1038 1039 1040
3 1041 1042 1043
3 1044 1045 1046
3 1047 1048 1049
3 1050 1051 1052
3 1053 1054 1055
3 1056 1057 1058
3 1059 1060 1061
3 1062 1063 1064
3 1065 1066 1067
3 1068 1069 1070
3 1071 1072 1073
3 1074 1075 1076
3 1077 1078 1079
3 1080 1081 1082
3 1083 1084 1085
3 1086 1087 1088
3 1089 1090 1091
3 1092 1093 1094
3 1095 1096 1097
3 1098 1099 1100
3 1101 1102 1103
3 1104 1105 1106
3 1107 1108 1109
3 1110 1111 1112
3 1113 1114 1115
3 1116 1117 1118
3 1119 1120 1121
3 1122 1123 1124
3 1125 1126 1127
3 1128 1129 1130
3 1131 1132 1133
3 1134 1135 1136
3 1137 1138 1139
3 1140 1141 1142
3 1143 1144 1145
3 1146 1147 1148
3 1149 1150 1151
