ply
format ascii 1.0
element vertex 12
property float x
property float y
property float z
property float nx
property float ny
property float nz
property float u
property float v
element face 20
property list uchar int vertex_indices
end_header
1.494313 0.038503 2.878445 -0.707106781 0.707106781 0 0 0
1.911372 0.038503 2.356013 0.577350269 0.577350269 -0.577350269 0 0
1.494313 0.038503 2.356013 -0.577350269 0.577350269 -0.577350269 0 0
1.911372 0.038503 2.878445 0.707106781 0.707106781 0 0 0
1.494313 0.028538 2.878445 -0.707106781 -0.707106781 0 0 0
1.494313 0.028538 2.356013 -0.577350269 -0.577350269 -0.577350269 0 0
1.911372 0.028538 2.356013 0.577350269 -0.577350269 -0.577350269 0 0
1.911372 0.028538 2.878445 0.707106781 -0.707106781 0 0 0
1.911372 0.038503 3.400877 0.577350269 0.577350269 0.577350269 0 0
1.494313 0.038503 3.400877 -0.577350269 0.577350269 0.577350269 0 0
1.494313 0.028538 3.400877 -0.577350269 -0.577350269 0.577350269 0 0
1.911372 0.028538 3.400877 0.577350269 -0.577350269 0.577350269 0 0
3 0 1 2
3 0 3 1
3 2 4 0
3 2 5 4
3 6 3 7
3 6 1 3
3 5 1 6
3 5 2 1
3 6 4 5
3 6 7 4
3 0 8 3
3 0 9 8
3 9 4 10
3 9 0 4
3 11 3 8
3 11 7 3
3 10 8 9
3 10 11 8
3 11 4 7
3 11 10 4
