ply
format ascii 1.0
element vertex 516
property float x
property float y
property float z
property float nx
property float ny
property float nz
property float u
property float v
element face 172
property list uchar int vertex_indices
end_header
1.685929 1.297228 2.878291 0 1 0 0 0
1.69468 1.297228 2.387083 0 1 0 0 0
1.685929 1.297228 2.377282 0 1 0 0 0
1.685929 1.297228 2.878291 -0 1 0 0 0
1.69468 1.297228 2.878291 -0 1 0 0 0
1.69468 1.297228 2.387083 -0 1 0 0 0
1.686118 1.297228 2.377033 0 1 0 0 0
1.911521 1.297228 2.386871 0 1 0 0 0
1.911223 1.297228 2.377033 0 1 0 0 0
1.686118 1.297228 2.377033 0 1 0 0 0
1.694902 1.297228 2.386871 0 1 0 0 0
1.911521 1.297228 2.386871 0 1 0 0 0
1.911372 1.273322 2.377033 1 0 0 0 0
1.911372 1.297075 2.878291 1 0 0 0 0
1.911372 1.273322 2.878291 1 0 0 0 0
1.911372 1.273322 2.377033 1 0 0 0 0
1.911372 1.297075 2.377033 1 0 0 0 0
1.911372 1.297075 2.878291 1 0 0 0 0
1.695068 1.297322 2.387147 0 0.794785714 -0.606890162 0 0
1.911526 1.302674 2.394156 0 0.794785714 -0.606890162 0 0
1.911526 1.297322 2.387147 0 0.794785714 -0.606890162 0 0
1.695068 1.297322 2.387147 0 0.794785714 -0.606890162 0 0
1.698912 1.302674 2.394156 0 0.794785714 -0.606890162 0 0
1.911526 1.302674 2.394156 0 0.794785714 -0.606890162 0 0
1.685775 1.297075 2.377033 -1 0 0 0 0
1.685775 1.273322 2.878291 -1 0 0 0 0
1.685775 1.297075 2.878291 -1 0 0 0 0
1.685775 1.297075 2.377033 -1 0 0 0 0
1.685775 1.273322 2.377033 -1 0 0 0 0
1.685775 1.273322 2.878291 -1 0 0 0 0
1.685929 1.273322 2.376879 0 0 -1 0 0
1.911218 1.297075 2.376879 0 0 -1 0 0
1.911218 1.273322 2.376879 0 0 -1 0 0
1.685929 1.273322 2.376879 0 0 -1 0 0
1.685929 1.297075 2.376879 0 0 -1 0 0
1.911218 1.297075 2.376879 0 0 -1 0 0
1.911218 1.273168 2.377033 0 -1 0 0 0
1.685929 1.273168 2.878291 0 -1 0 0 0
1.685929 1.273168 2.377033 0 -1 0 0 0
1.911218 1.273168 2.377033 0 -1 0 0 0
1.911218 1.273168 2.878291 0 -1 0 0 0
1.685929 1.273168 2.878291 0 -1 0 0 0
1.911679 1.297382 2.387479 1 0 0 0 0
1.911679 1.302614 2.878291 1 0 0 0 0
1.911679 1.297382 2.878291 1 0 0 0 0
1.911679 1.297382 2.387479 1 0 0 0 0
1.911679 1.302614 2.39433 1 0 0 0 0
1.911679 1.302614 2.878291 1 0 0 0 0
1.698965 1.302768 2.878291 0 1 0 0 0
1.911526 1.302768 2.394432 0 1 0 0 0
1.698965 1.302768 2.394431 0 1 0 0 0
1.698965 1.302768 2.878291 -0 1 0 0 0
1.911526 1.302768 2.878291 -0 1 0 0 0
1.911526 1.302768 2.394432 -0 1 0 0 0
1.694923 1.297353 2.878291 -0.812247254 0.583313293 0 0 0
1.698722 1.302643 2.394339 -0.812247254 0.583313293 0 0 0
1.694923 1.297353 2.387413 -0.812247254 0.583313293 0 0 0
1.694923 1.297353 2.878291 -0.812247254 0.583313293 0 0 0
1.698722 1.302643 2.878291 -0.812247254 0.583313293 0 0 0
1.698722 1.302643 2.394339 -0.812247254 0.583313293 0 0 0
1.685929 1.297228 2.878599 0 1 0 0 0
1.69468 1.297228 3.369807 0 1 0 0 0
1.69468 1.297228 2.878599 0 1 0 0 0
1.685929 1.297228 2.878599 0 1 0 0 0
1.685929 1.297228 3.379608 0 1 0 0 0
1.69468 1.297228 3.369807 0 1 0 0 0
1.911372 1.273322 3.379857 1 -0 0 0 0
1.911372 1.297075 2.878599 1 -0 0 0 0
1.911372 1.297075 3.379857 1 -0 0 0 0
1.911372 1.273322 3.379857 1 0 0 0 0
1.911372 1.273322 2.878599 1 0 0 0 0
1.911372 1.297075 2.878599 1 0 0 0 0
1.911526 1.297228 3.369863 0 1 0 0 0
1.911526 1.297228 2.878599 0 1 0 0 0
1.911526 1.297228 3.369863 0 1 0 0 0
1.911526 1.297228 3.369863 0 1 0 0 0
1.911526 1.297228 2.878599 0 1 0 0 0
1.911526 1.297228 2.878599 0 1 0 0 0
1.911218 1.273168 3.379857 0 -1 -0 0 0
1.685929 1.273168 2.878599 0 -1 -0 0 0
1.911218 1.273168 2.878599 0 -1 -0 0 0
1.911218 1.273168 3.379857 -0 -1 0 0 0
1.685929 1.273168 3.379857 -0 -1 0 0 0
1.685929 1.273168 2.878599 -0 -1 0 0 0
1.694923 1.297353 2.878599 -0.812247254 0.583313293 0 0 0
1.698722 1.302643 3.362551 -0.812247254 0.583313293 0 0 0
1.698722 1.302643 2.878599 -0.812247254 0.583313293 0 0 0
1.694923 1.297353 2.878599 -0.812247254 0.583313293 0 0 0
1.694923 1.297353 3.369477 -0.812247254 0.583313293 0 0 0
1.698722 1.302643 3.362551 -0.812247254 0.583313293 0 0 0
1.685929 1.273322 3.380011 0 0 1 0 0
1.911218 1.297075 3.380011 0 0 1 0 0
1.685929 1.297075 3.380011 0 0 1 0 0
1.685929 1.273322 3.380011 0 0 1 0 0
1.911218 1.273322 3.380011 0 0 1 0 0
1.911218 1.297075 3.380011 0 0 1 0 0
1.686118 1.297228 3.379857 0 1 0 0 0
1.911521 1.297228 3.370019 0 1 0 0 0
1.694902 1.297228 3.370019 0 1 0 0 0
1.686118 1.297228 3.379857 -0 1 0 0 0
1.911223 1.297228 3.379857 -0 1 0 0 0
1.911521 1.297228 3.370019 -0 1 0 0 0
1.685775 1.297075 3.379857 -1 -0 0 0 0
1.685775 1.273322 2.878599 -1 -0 0 0 0
1.685775 1.273322 3.379857 -1 -0 0 0 0
1.685775 1.297075 3.379857 -1 0 -0 0 0
1.685775 1.297075 2.878599 -1 0 -0 0 0
1.685775 1.273322 2.878599 -1 0 -0 0 0
1.695068 1.297322 3.369743 0 0.794785714 0.606890162 0 0
1.911526 1.302674 3.362734 0 0.794785714 0.606890162 0 0
1.698912 1.302674 3.362734 0 0.794785714 0.606890162 0 0
1.695068 1.297322 3.369743 -0 0.794785714 0.606890162 0 0
1.911526 1.297322 3.369743 -0 0.794785714 0.606890162 0 0
1.911526 1.302674 3.362734 -0 0.794785714 0.606890162 0 0
1.698965 1.302768 2.878599 0 1 0 0 0
1.911526 1.302768 3.362458 0 1 0 0 0
1.911526 1.302768 2.878599 0 1 0 0 0
1.698965 1.302768 2.878599 0 1 0 0 0
1.698965 1.302768 3.362458 0 1 0 0 0
1.911526 1.302768 3.362458 0 1 0 0 0
1.911679 1.297382 3.369411 1 0 0 0 0
1.911679 1.302614 2.878599 1 0 0 0 0
1.911679 1.302614 3.36256 1 0 0 0 0
1.911679 1.297382 3.369411 1 0 0 0 0
1.911679 1.297382 2.878599 1 0 0 0 0
1.911679 1.302614 2.878599 1 0 0 0 0
1.911372 1.297075 2.377033 0.716240666 0.69751542 -0.0217151213 0 0
1.911223 1.297228 2.377033 0.716240666 0.69751542 -0.0217151213 0 0
1.911526 1.297228 2.387027 0.716240666 0.69751542 -0.0217151213 0 0
1.911372 1.297075 2.377033 0.582380868 0.567155225 -0.582380868 0 0
1.911218 1.297075 2.376879 0.582380868 0.567155225 -0.582380868 0 0
1.911223 1.297228 2.377033 0.582380868 0.567155225 -0.582380868 0 0
1.686118 1.297228 2.377033 -0.389192338 0.872503085 -0.295411052 0 0
1.685775 1.297075 2.377033 -0.389192338 0.872503085 -0.295411052 0 0
1.685929 1.297228 2.377282 -0.389192338 0.872503085 -0.295411052 0 0
1.686118 1.297228 2.377033 -0.377269803 0.845774788 -0.377269803 0 0
1.685929 1.297075 2.376879 -0.377269803 0.845774788 -0.377269803 0 0
1.685775 1.297075 2.377033 -0.377269803 0.845774788 -0.377269803 0 0
1.685929 1.273322 2.376879 -0.577350269 -0.577350269 -0.577350269 0 0
1.685929 1.273168 2.377033 -0.577350269 -0.577350269 -0.577350269 0 0
1.685775 1.273322 2.377033 -0.577350269 -0.577350269 -0.577350269 0 0
1.911218 1.273168 2.377033 0.577350269 -0.577350269 -0.577350269 0 0
1.911218 1.273322 2.376879 0.577350269 -0.577350269 -0.577350269 0 0
1.911372 1.273322 2.377033 0.577350269 -0.577350269 -0.577350269 0 0
1.694902 1.297228 2.386871 -0.187336871 0.958734705 -0.213851963 0 0
1.694923 1.297353 2.387413 -0.187336871 0.958734705 -0.213851963 0 0
1.695068 1.297322 2.387147 -0.187336871 0.958734705 -0.213851963 0 0
1.694902 1.297228 2.386871 -0.202998914 0.955826131 -0.212574334 0 0
1.69468 1.297228 2.387083 -0.202998914 0.955826131 -0.212574334 0 0
1.694923 1.297353 2.387413 -0.202998914 0.955826131 -0.212574334 0 0
1.911521 1.297228 2.386871 0.743292375 -0.66854236 -0.0238234736 0 0
1.911679 1.297382 2.387479 0.743292375 -0.66854236 -0.0238234736 0 0
1.911526 1.297228 2.387027 0.743292375 -0.66854236 -0.0238234736 0 0
1.911521 1.297228 2.386871 0.322841429 0.894117361 -0.310366808 0 0
1.911526 1.297322 2.387147 0.322841429 0.894117361 -0.310366808 0 0
1.911679 1.297382 2.387479 0.322841429 0.894117361 -0.310366808 0 0
1.698722 1.302643 2.394339 -0.372794463 0.897665651 -0.234990781 0 0
1.698965 1.302768 2.394431 -0.372794463 0.897665651 -0.234990781 0 0
1.698912 1.302674 2.394156 -0.372794463 0.897665651 -0.234990781 0 0
1.911679 1.302614 2.39433 0.593731118 0.761698799 -0.259419156 0 0
1.911526 1.302674 2.394156 0.593731118 0.761698799 -0.259419156 0 0
1.911526 1.302768 2.394432 0.593731118 0.761698799 -0.259419156 0 0
1.685929 1.297228 2.878599 -0.704799763 0.709406297 0 0 0
1.685775 1.297075 2.878291 -0.704799763 0.709406297 0 0 0
1.685775 1.297075 2.878599 -0.704799763 0.709406297 0 0 0
1.685929 1.297228 2.878599 -0.704799763 0.709406297 0 0 0
1.685929 1.297228 2.878291 -0.704799763 0.709406297 0 0 0
1.685775 1.297075 2.878291 -0.704799763 0.709406297 0 0 0
1.911526 1.297228 2.878599 0.704799763 -0.709406297 0 0 0
1.911372 1.297075 2.878291 0.704799763 -0.709406297 0 0 0
1.911526 1.297228 2.878291 0.704799763 -0.709406297 0 0 0
1.911526 1.297228 2.878599 0.704799763 -0.709406297 0 0 0
1.911372 1.297075 2.878599 0.704799763 -0.709406297 0 0 0
1.911372 1.297075 2.878291 0.704799763 -0.709406297 0 0 0
1.911223 1.297228 3.379857 0.716240666 0.69751542 0.0217151213 0 0
1.911372 1.297075 3.379857 0.716240666 0.69751542 0.0217151213 0 0
1.911526 1.297228 3.369863 0.716240666 0.69751542 0.0217151213 0 0
1.911223 1.297228 3.379857 0.582380868 0.567155225 0.582380868 0 0
1.911218 1.297075 3.380011 0.582380868 0.567155225 0.582380868 0 0
1.911372 1.297075 3.379857 0.582380868 0.567155225 0.582380868 0 0
1.685775 1.297075 3.379857 -0.389192338 0.872503085 0.295411052 0 0
1.686118 1.297228 3.379857 -0.389192338 0.872503085 0.295411052 0 0
1.685929 1.297228 3.379608 -0.389192338 0.872503085 0.295411052 0 0
1.685775 1.297075 3.379857 -0.377269803 0.845774788 0.377269803 0 0
1.685929 1.297075 3.380011 -0.377269803 0.845774788 0.377269803 0 0
1.686118 1.297228 3.379857 -0.377269803 0.845774788 0.377269803 0 0
1.685929 1.273168 3.379857 -0.577350269 -0.577350269 0.577350269 0 0
1.685929 1.273322 3.380011 -0.577350269 -0.577350269 0.577350269 0 0
1.685775 1.273322 3.379857 -0.577350269 -0.577350269 0.577350269 0 0
1.911218 1.273322 3.380011 0.577350269 -0.577350269 0.577350269 0 0
1.911218 1.273168 3.379857 0.577350269 -0.577350269 0.577350269 0 0
1.911372 1.273322 3.379857 0.577350269 -0.577350269 0.577350269 0 0
1.911218 1.273168 2.878599 0.707106781 -0.707106781 0 0 0
1.911372 1.273322 2.878291 0.707106781 -0.707106781 0 0 0
1.911372 1.273322 2.878599 0.707106781 -0.707106781 0 0 0
1.911218 1.273168 2.878599 0.707106781 -0.707106781 0 0 0
1.911218 1.273168 2.878291 0.707106781 -0.707106781 0 0 0
1.911372 1.273322 2.878291 0.707106781 -0.707106781 0 0 0
1.685775 1.273322 2.878291 -0.707106781 -0.707106781 0 0 0
1.685929 1.273168 2.878599 -0.707106781 -0.707106781 0 0 0
1.685775 1.273322 2.878599 -0.707106781 -0.707106781 0 0 0
1.685775 1.273322 2.878291 -0.707106781 -0.707106781 0 0 0
1.685929 1.273168 2.878291 -0.707106781 -0.707106781 0 0 0
1.685929 1.273168 2.878599 -0.707106781 -0.707106781 0 0 0
1.694923 1.297353 3.369477 -0.187336871 0.958734705 0.213851963 0 0
1.694902 1.297228 3.370019 -0.187336871 0.958734705 0.213851963 0 0
1.695068 1.297322 3.369743 -0.187336871 0.958734705 0.213851963 0 0
1.694923 1.297353 3.369477 -0.202998914 0.955826131 0.212574334 0 0
1.69468 1.297228 3.369807 -0.202998914 0.955826131 0.212574334 0 0
1.694902 1.297228 3.370019 -0.202998914 0.955826131 0.212574334 0 0
1.911679 1.297382 3.369411 0.743292375 -0.66854236 0.0238234736 0 0
1.911521 1.297228 3.370019 0.743292375 -0.66854236 0.0238234736 0 0
1.911526 1.297228 3.369863 0.743292375 -0.66854236 0.0238234736 0 0
1.911679 1.297382 3.369411 0.322841429 0.894117361 0.310366808 0 0
1.911526 1.297322 3.369743 0.322841429 0.894117361 0.310366808 0 0
1.911521 1.297228 3.370019 0.322841429 0.894117361 0.310366808 0 0
1.911526 1.297228 2.878291 0.709406297 -0.704799763 0 0 0
1.911679 1.297382 2.878599 0.709406297 -0.704799763 0 0 0
1.911526 1.297228 2.878599 0.709406297 -0.704799763 0 0 0
1.911526 1.297228 2.878291 0.709406297 -0.704799763 0 0 0
1.911679 1.297382 2.878291 0.709406297 -0.704799763 0 0 0
1.911679 1.297382 2.878599 0.709406297 -0.704799763 0 0 0
1.69468 1.297228 2.878291 -0.457430697 0.889245274 0 0 0
1.694923 1.297353 2.878599 -0.457430697 0.889245274 0 0 0
1.694923 1.297353 2.878291 -0.457430697 0.889245274 0 0 0
1.69468 1.297228 2.878291 -0.457430697 0.889245274 0 0 0
1.69468 1.297228 2.878599 -0.457430697 0.889245274 0 0 0
1.694923 1.297353 2.878599 -0.457430697 0.889245274 0 0 0
1.698965 1.302768 3.362458 -0.372261157 0.898048608 0.234372202 0 0
1.698722 1.302643 3.362551 -0.372261157 0.898048608 0.234372202 0 0
1.698912 1.302674 3.362734 -0.372261157 0.898048608 0.234372202 0 0
1.698722 1.302643 2.878291 -0.457430697 0.889245274 0 0 0
1.698965 1.302768 2.878599 -0.457430697 0.889245274 0 0 0
1.698965 1.302768 2.878291 -0.457430697 0.889245274 0 0 0
1.698722 1.302643 2.878291 -0.457430697 0.889245274 0 0 0
1.698722 1.302643 2.878599 -0.457430697 0.889245274 0 0 0
1.698965 1.302768 2.878599 -0.457430697 0.889245274 0 0 0
1.911679 1.302614 2.878291 0.709406297 0.704799763 -0 0 0
1.911526 1.302768 2.878599 0.709406297 0.704799763 -0 0 0
1.911679 1.302614 2.878599 0.709406297 0.704799763 -0 0 0
1.911679 1.302614 2.878291 0.709406297 0.704799763 0 0 0
1.911526 1.302768 2.878291 0.709406297 0.704799763 0 0 0
1.911526 1.302768 2.878599 0.709406297 0.704799763 0 0 0
1.911526 1.302674 3.362734 0.593731118 0.761698799 0.259419156 0 0
1.911679 1.302614 3.36256 0.593731118 0.761698799 0.259419156 0 0
1.911526 1.302768 3.362458 0.593731118 0.761698799 0.259419156 0 0
1.685775 1.297075 2.878599 -1 -0 0 0 0
1.685775 1.273322 2.878291 -1 -0 0 0 0
1.685775 1.273322 2.878599 -1 -0 0 0 0
1.685775 1.297075 2.878599 -1 0 -0 0 0
1.685775 1.297075 2.878291 -1 0 -0 0 0
1.685775 1.273322 2.878291 -1 0 -0 0 0
1.685775 1.297075 2.878291 -0.704799763 0.709406297 0 0 0
1.685929 1.297228 2.377282 -0.704799763 0.709406297 0 0 0
1.685775 1.297075 2.377033 -0.704799763 0.709406297 0 0 0
1.685775 1.297075 2.878291 -0.704799763 0.709406297 0 0 0
1.685929 1.297228 2.878291 -0.704799763 0.709406297 0 0 0
1.685929 1.297228 2.377282 -0.704799763 0.709406297 0 0 0
1.911526 1.297228 2.878291 0.704799763 -0.709406297 0 0 0
1.911372 1.297075 2.377033 0.704799763 -0.709406297 0 0 0
1.911526 1.297228 2.387027 0.704799763 -0.709406297 0 0 0
1.911526 1.297228 2.878291 0.704799763 -0.709406297 0 0 0
1.911372 1.297075 2.878291 0.704799763 -0.709406297 0 0 0
1.911372 1.297075 2.377033 0.704799763 -0.709406297 0 0 0
1.911372 1.297075 2.878291 1 0 0 0 0
1.911372 1.273322 2.878599 1 0 0 0 0
1.911372 1.273322 2.878291 1 0 0 0 0
1.911372 1.297075 2.878291 1 0 -0 0 0
1.911372 1.297075 2.878599 1 0 -0 0 0
1.911372 1.273322 2.878599 1 0 -0 0 0
1.685775 1.297075 2.377033 -0.707106781 -0 -0.707106781 0 0
1.685929 1.273322 2.376879 -0.707106781 -0 -0.707106781 0 0
1.685775 1.273322 2.377033 -0.707106781 -0 -0.707106781 0 0
1.685775 1.297075 2.377033 -0.707106781 0 -0.707106781 0 0
1.685929 1.297075 2.376879 -0.707106781 0 -0.707106781 0 0
1.685929 1.273322 2.376879 -0.707106781 0 -0.707106781 0 0
1.911223 1.297228 2.377033 0 0.709406297 -0.704799763 0 0
1.685929 1.297075 2.376879 0 0.709406297 -0.704799763 0 0
1.686118 1.297228 2.377033 0 0.709406297 -0.704799763 0 0
1.911223 1.297228 2.377033 0 0.709406297 -0.704799763 0 0
1.911218 1.297075 2.376879 0 0.709406297 -0.704799763 0 0
1.685929 1.297075 2.376879 0 0.709406297 -0.704799763 0 0
1.911218 1.297075 2.376879 0.707106781 0 -0.707106781 0 0
1.911372 1.273322 2.377033 0.707106781 0 -0.707106781 0 0
1.911218 1.273322 2.376879 0.707106781 0 -0.707106781 0 0
1.911218 1.297075 2.376879 0.707106781 0 -0.707106781 0 0
1.911372 1.297075 2.377033 0.707106781 0 -0.707106781 0 0
1.911372 1.273322 2.377033 0.707106781 0 -0.707106781 0 0
1.685929 1.273168 2.377033 0 -0.707106781 -0.707106781 0 0
1.911218 1.273322 2.376879 0 -0.707106781 -0.707106781 0 0
1.911218 1.273168 2.377033 0 -0.707106781 -0.707106781 0 0
1.685929 1.273168 2.377033 0 -0.707106781 -0.707106781 0 0
1.685929 1.273322 2.376879 0 -0.707106781 -0.707106781 0 0
1.911218 1.273322 2.376879 0 -0.707106781 -0.707106781 0 0
1.911218 1.273168 2.377033 0.707106781 -0.707106781 0 0 0
1.911372 1.273322 2.878291 0.707106781 -0.707106781 0 0 0
1.911218 1.273168 2.878291 0.707106781 -0.707106781 0 0 0
1.911218 1.273168 2.377033 0.707106781 -0.707106781 0 0 0
1.911372 1.273322 2.377033 0.707106781 -0.707106781 0 0 0
1.911372 1.273322 2.878291 0.707106781 -0.707106781 0 0 0
1.685775 1.273322 2.377033 -0.707106781 -0.707106781 0 0 0
1.685929 1.273168 2.878291 -0.707106781 -0.707106781 0 0 0
1.685775 1.273322 2.878291 -0.707106781 -0.707106781 0 0 0
1.685775 1.273322 2.377033 -0.707106781 -0.707106781 0 0 0
1.685929 1.273168 2.377033 -0.707106781 -0.707106781 0 0 0
1.685929 1.273168 2.878291 -0.707106781 -0.707106781 0 0 0
1.911218 1.273168 2.878291 0 -1 0 0 0
1.685929 1.273168 2.878599 0 -1 0 0 0
1.685929 1.273168 2.878291 0 -1 0 0 0
1.911218 1.273168 2.878291 0 -1 0 0 0
1.911218 1.273168 2.878599 0 -1 0 0 0
1.685929 1.273168 2.878599 0 -1 0 0 0
1.911526 1.297228 2.387027 0 1 0 0 0
1.911521 1.297228 2.386871 0 1 0 0 0
1.911526 1.297228 2.387027 0 1 0 0 0
1.911526 1.297228 2.387027 0 1 0 0 0
1.911223 1.297228 2.377033 0 1 0 0 0
1.911521 1.297228 2.386871 0 1 0 0 0
1.694902 1.297228 2.386871 0 0.946605373 -0.322394584 0 0
1.911526 1.297322 2.387147 0 0.946605373 -0.322394584 0 0
1.911521 1.297228 2.386871 0 0.946605373 -0.322394584 0 0
1.694902 1.297228 2.386871 0 0.946605373 -0.322394584 0 0
1.695068 1.297322 2.387147 0 0.946605373 -0.322394584 0 0
1.911526 1.297322 2.387147 0 0.946605373 -0.322394584 0 0
1.686118 1.297228 2.377033 0 1 0 0 0
1.69468 1.297228 2.387083 0 1 0 0 0
1.694902 1.297228 2.386871 0 1 0 0 0
1.686118 1.297228 2.377033 0 1 -0 0 0
1.685929 1.297228 2.377282 0 1 -0 0 0
1.69468 1.297228 2.387083 0 1 -0 0 0
1.911526 1.297228 2.878599 0 1 0 0 0
1.911526 1.297228 2.878291 0 1 0 0 0
1.911526 1.297228 2.878599 0 1 0 0 0
1.911526 1.297228 2.878599 0 1 0 0 0
1.911526 1.297228 2.878291 0 1 0 0 0
1.911526 1.297228 2.878291 0 1 0 0 0
1.911526 1.297228 2.387027 0.709406297 -0.704799763 0 0 0
1.911679 1.297382 2.878291 0.709406297 -0.704799763 0 0 0
1.911526 1.297228 2.878291 0.709406297 -0.704799763 0 0 0
1.911526 1.297228 2.387027 0.709406297 -0.704799763 0 0 0
1.911679 1.297382 2.387479 0.709406297 -0.704799763 0 0 0
1.911679 1.297382 2.878291 0.709406297 -0.704799763 0 0 0
1.694923 1.297353 2.387413 -0.457430697 0.889245274 0 0 0
1.69468 1.297228 2.878291 -0.457430697 0.889245274 0 0 0
1.694923 1.297353 2.878291 -0.457430697 0.889245274 0 0 0
1.694923 1.297353 2.387413 -0.457430697 0.889245274 0 0 0
1.69468 1.297228 2.387083 -0.457430697 0.889245274 0 0 0
1.69468 1.297228 2.878291 -0.457430697 0.889245274 0 0 0
1.685929 1.297228 2.878291 0 1 0 0 0
1.69468 1.297228 2.878599 0 1 0 0 0
1.69468 1.297228 2.878291 0 1 0 0 0
1.685929 1.297228 2.878291 0 1 0 0 0
1.685929 1.297228 2.878599 0 1 0 0 0
1.69468 1.297228 2.878599 0 1 0 0 0
1.695068 1.297322 2.387147 -0.473781386 0.805737362 -0.355413142 0 0
1.698722 1.302643 2.394339 -0.473781386 0.805737362 -0.355413142 0 0
1.698912 1.302674 2.394156 -0.473781386 0.805737362 -0.355413142 0 0
1.695068 1.297322 2.387147 -0.476431209 0.805005146 -0.353525131 0 0
1.694923 1.297353 2.387413 -0.476431209 0.805005146 -0.353525131 0 0
1.698722 1.302643 2.394339 -0.476431209 0.805005146 -0.353525131 0 0
1.698965 1.302768 2.394431 -0.457430697 0.889245274 0 0 0
1.698722 1.302643 2.878291 -0.457430697 0.889245274 0 0 0
1.698965 1.302768 2.878291 -0.457430697 0.889245274 0 0 0
1.698965 1.302768 2.394431 -0.457430697 0.889245274 0 0 0
1.698722 1.302643 2.394339 -0.457430697 0.889245274 0 0 0
1.698722 1.302643 2.878291 -0.457430697 0.889245274 0 0 0
1.694923 1.297353 2.878291 -0.812247254 0.583313293 0 0 0
1.698722 1.302643 2.878599 -0.812247254 0.583313293 0 0 0
1.698722 1.302643 2.878291 -0.812247254 0.583313293 0 0 0
1.694923 1.297353 2.878291 -0.812247254 0.583313293 0 0 0
1.694923 1.297353 2.878599 -0.812247254 0.583313293 0 0 0
1.698722 1.302643 2.878599 -0.812247254 0.583313293 0 0 0
1.911679 1.297382 2.878599 1 -0 0 0 0
1.911679 1.302614 2.878291 1 -0 0 0 0
1.911679 1.302614 2.878599 1 -0 0 0 0
1.911679 1.297382 2.878599 1 0 0 0 0
1.911679 1.297382 2.878291 1 0 0 0 0
1.911679 1.302614 2.878291 1 0 0 0 0
1.911526 1.302768 2.878291 0.709406297 0.704799763 0 0 0
1.911679 1.302614 2.39433 0.709406297 0.704799763 0 0 0
1.911526 1.302768 2.394432 0.709406297 0.704799763 0 0 0
1.911526 1.302768 2.878291 0.709406297 0.704799763 0 0 0
1.911679 1.302614 2.878291 0.709406297 0.704799763 0 0 0
1.911679 1.302614 2.39433 0.709406297 0.704799763 0 0 0
1.911679 1.297382 2.387479 0.707780824 0.561436555 -0.428760189 0 0
1.911526 1.302674 2.394156 0.707780824 0.561436555 -0.428760189 0 0
1.911679 1.302614 2.39433 0.707780824 0.561436555 -0.428760189 0 0
1.911679 1.297382 2.387479 0.708949092 0.560530301 -0.428015148 0 0
1.911526 1.297322 2.387147 0.708949092 0.560530301 -0.428015148 0 0
1.911526 1.302674 2.394156 0.708949092 0.560530301 -0.428015148 0 0
1.698912 1.302674 2.394156 0 0.946605373 -0.322394584 0 0
1.911526 1.302768 2.394432 0 0.946605373 -0.322394584 0 0
1.911526 1.302674 2.394156 0 0.946605373 -0.322394584 0 0
1.698912 1.302674 2.394156 1.5216561e-06 0.94624706 -0.323444743 0 0
1.698965 1.302768 2.394431 1.5216561e-06 0.94624706 -0.323444743 0 0
1.911526 1.302768 2.394432 1.5216561e-06 0.94624706 -0.323444743 0 0
1.698965 1.302768 2.878291 0 1 0 0 0
1.911526 1.302768 2.878599 0 1 0 0 0
1.911526 1.302768 2.878291 0 1 0 0 0
1.698965 1.302768 2.878291 0 1 0 0 0
1.698965 1.302768 2.878599 0 1 0 0 0
1.911526 1.302768 2.878599 0 1 0 0 0
1.685929 1.297228 2.878599 -0.704799763 0.709406297 0 0 0
1.685775 1.297075 3.379857 -0.704799763 0.709406297 0 0 0
1.685929 1.297228 3.379608 -0.704799763 0.709406297 0 0 0
1.685929 1.297228 2.878599 -0.704799763 0.709406297 0 0 0
1.685775 1.297075 2.878599 -0.704799763 0.709406297 0 0 0
1.685775 1.297075 3.379857 -0.704799763 0.709406297 0 0 0
1.911372 1.297075 2.878599 0.704799763 -0.709406297 0 0 0
1.911526 1.297228 3.369863 0.704799763 -0.709406297 0 0 0
1.911372 1.297075 3.379857 0.704799763 -0.709406297 0 0 0
1.911372 1.297075 2.878599 0.704799763 -0.709406297 0 0 0
1.911526 1.297228 2.878599 0.704799763 -0.709406297 0 0 0
1.911526 1.297228 3.369863 0.704799763 -0.709406297 0 0 0
1.685929 1.297075 3.380011 -0.707106781 0 0.707106781 0 0
1.685775 1.273322 3.379857 -0.707106781 0 0.707106781 0 0
1.685929 1.273322 3.380011 -0.707106781 0 0.707106781 0 0
1.685929 1.297075 3.380011 -0.707106781 0 0.707106781 0 0
1.685775 1.297075 3.379857 -0.707106781 0 0.707106781 0 0
1.685775 1.273322 3.379857 -0.707106781 0 0.707106781 0 0
1.911218 1.297075 3.380011 0 0.709406297 0.704799763 0 0
1.686118 1.297228 3.379857 0 0.709406297 0.704799763 0 0
1.685929 1.297075 3.380011 0 0.709406297 0.704799763 0 0
1.911218 1.297075 3.380011 0 0.709406297 0.704799763 0 0
1.911223 1.297228 3.379857 0 0.709406297 0.704799763 0 0
1.686118 1.297228 3.379857 0 0.709406297 0.704799763 0 0
1.911372 1.297075 3.379857 0.707106781 0 0.707106781 0 0
1.911218 1.273322 3.380011 0.707106781 0 0.707106781 0 0
1.911372 1.273322 3.379857 0.707106781 0 0.707106781 0 0
1.911372 1.297075 3.379857 0.707106781 0 0.707106781 0 0
1.911218 1.297075 3.380011 0.707106781 0 0.707106781 0 0
1.911218 1.273322 3.380011 0.707106781 0 0.707106781 0 0
1.685929 1.273322 3.380011 0 -0.707106781 0.707106781 0 0
1.911218 1.273168 3.379857 0 -0.707106781 0.707106781 0 0
1.911218 1.273322 3.380011 0 -0.707106781 0.707106781 0 0
1.685929 1.273322 3.380011 0 -0.707106781 0.707106781 0 0
1.685929 1.273168 3.379857 0 -0.707106781 0.707106781 0 0
1.911218 1.273168 3.379857 0 -0.707106781 0.707106781 0 0
1.911372 1.273322 3.379857 0.707106781 -0.707106781 0 0 0
1.911218 1.273168 2.878599 0.707106781 -0.707106781 0 0 0
1.911372 1.273322 2.878599 0.707106781 -0.707106781 0 0 0
1.911372 1.273322 3.379857 0.707106781 -0.707106781 0 0 0
1.911218 1.273168 3.379857 0.707106781 -0.707106781 0 0 0
1.911218 1.273168 2.878599 0.707106781 -0.707106781 0 0 0
1.685929 1.273168 3.379857 -0.707106781 -0.707106781 -0 0 0
1.685775 1.273322 2.878599 -0.707106781 -0.707106781 -0 0 0
1.685929 1.273168 2.878599 -0.707106781 -0.707106781 -0 0 0
1.685929 1.273168 3.379857 -0.707106781 -0.707106781 0 0 0
1.685775 1.273322 3.379857 -0.707106781 -0.707106781 0 0 0
1.685775 1.273322 2.878599 -0.707106781 -0.707106781 0 0 0
1.911223 1.297228 3.379857 0 1 0 0 0
1.911526 1.297228 3.369863 0 1 0 0 0
1.911521 1.297228 3.370019 0 1 0 0 0
1.911223 1.297228 3.379857 0 1 0 0 0
1.911526 1.297228 3.369863 0 1 0 0 0
1.911526 1.297228 3.369863 0 1 0 0 0
1.695068 1.297322 3.369743 -0 0.946605373 0.322394584 0 0
1.911521 1.297228 3.370019 -0 0.946605373 0.322394584 0 0
1.911526 1.297322 3.369743 -0 0.946605373 0.322394584 0 0
1.695068 1.297322 3.369743 0 0.946605373 0.322394584 0 0
1.694902 1.297228 3.370019 0 0.946605373 0.322394584 0 0
1.911521 1.297228 3.370019 0 0.946605373 0.322394584 0 0
1.685929 1.297228 3.379608 0 1 0 0 0
1.694902 1.297228 3.370019 0 1 0 0 0
1.69468 1.297228 3.369807 0 1 0 0 0
1.685929 1.297228 3.379608 -0 1 0 0 0
1.686118 1.297228 3.379857 -0 1 0 0 0
1.694902 1.297228 3.370019 -0 1 0 0 0
1.911679 1.297382 3.369411 0.709406297 -0.704799763 0 0 0
1.911526 1.297228 2.878599 0.709406297 -0.704799763 0 0 0
1.911679 1.297382 2.878599 0.709406297 -0.704799763 0 0 0
1.911679 1.297382 3.369411 0.709406297 -0.704799763 0 0 0
1.911526 1.297228 3.369863 0.709406297 -0.704799763 0 0 0
1.911526 1.297228 2.878599 0.709406297 -0.704799763 0 0 0
1.69468 1.297228 3.369807 -0.457430697 0.889245274 0 0 0
1.694923 1.297353 2.878599 -0.457430697 0.889245274 0 0 0
1.69468 1.297228 2.878599 -0.457430697 0.889245274 0 0 0
1.69468 1.297228 3.369807 -0.457430697 0.889245274 0 0 0
1.694923 1.297353 3.369477 -0.457430697 0.889245274 0 0 0
1.694923 1.297353 2.878599 -0.457430697 0.889245274 0 0 0
1.694923 1.297353 3.369477 -0.473828592 0.805683992 0.355471195 0 0
1.698912 1.302674 3.362734 -0.473828592 0.805683992 0.355471195 0 0
1.698722 1.302643 3.362551 -0.473828592 0.805683992 0.355471195 0 0
1.694923 1.297353 3.369477 -0.476353731 0.805066406 0.353490036 0 0
1.695068 1.297322 3.369743 -0.476353731 0.805066406 0.353490036 0 0
1.698912 1.302674 3.362734 -0.476353731 0.805066406 0.353490036 0 0
1.698722 1.302643 3.362551 -0.457430697 0.889245274 0 0 0
1.698965 1.302768 2.878599 -0.457430697 0.889245274 0 0 0
1.698722 1.302643 2.878599 -0.457430697 0.889245274 0 0 0
1.698722 1.302643 3.362551 -0.457430697 0.889245274 0 0 0
1.698965 1.302768 3.362458 -0.457430697 0.889245274 0 0 0
1.698965 1.302768 2.878599 -0.457430697 0.889245274 0 0 0
1.911679 1.302614 2.878599 0.709406297 0.704799763 -0 0 0
1.911526 1.302768 3.362458 0.709406297 0.704799763 -0 0 0
1.911679 1.302614 3.36256 0.709406297 0.704799763 -0 0 0
1.911679 1.302614 2.878599 0.709406297 0.704799763 0 0 0
1.911526 1.302768 2.878599 0.709406297 0.704799763 0 0 0
1.911526 1.302768 3.362458 0.709406297 0.704799763 0 0 0
1.911526 1.297322 3.369743 0.707766818 0.561473291 0.428735205 0 0
1.911679 1.302614 3.36256 0.707766818 0.561473291 0.428735205 0 0
1.911526 1.302674 3.362734 0.707766818 0.561473291 0.428735205 0 0
1.911526 1.297322 3.369743 0.708990167 0.560471944 0.428023531 0 0
1.911679 1.297382 3.369411 0.708990167 0.560471944 0.428023531 0 0
1.911679 1.302614 3.36256 0.708990167 0.560471944 0.428023531 0 0
1.698965 1.302768 3.362458 -0 0.946605373 0.322394584 0 0
1.911526 1.302674 3.362734 -0 0.946605373 0.322394584 0 0
1.911526 1.302768 3.362458 -0 0.946605373 0.322394584 0 0
1.698965 1.302768 3.362458 0 0.946605373 0.322394584 0 0
1.698912 1.302674 3.362734 0 0.946605373 0.322394584 0 0
1.911526 1.302674 3.362734 0 0.946605373 0.322394584 0 0
1.911526 1.297228 2.387027 0 1 0 0 0
1.911526 1.297228 2.878291 0 1 0 0 0
1.911526 1.297228 2.878291 0 1 0 0 0
1.911526 1.297228 2.387027 0 1 0 0 0
1.911526 1.297228 2.387027 0 1 0 0 0
1.911526 1.297228 2.878291 0 1 0 0 0
3 0 1 2
3 3 4 5
3 6 7 8
3 9 10 11
3 12 13 14
3 15 16 17
3 18 19 20
3 21 22 23
3 24 25 26
3 27 28 29
3 30 31 32
3 33 34 35
3 36 37 38
3 39 40 41
3 42 43 44
3 45 46 47
3 48 49 50
3 51 52 53
3 54 55 56
3 57 58 59
3 60 61 62
3 63 64 65
3 66 67 68
3 69 70 71
3 72 73 74
3 75 76 77
3 78 79 80
3 81 82 83
3 84 85 86
3 87 88 89
3 90 91 92
3 93 94 95
3 96 97 98
3 99 100 101
3 102 103 104
3 105 106 107
3 108 109 110
3 111 112 113
3 114 115 116
3 117 118 119
3 120 121 122
3 123 124 125
3 126 127 128
3 129 130 131
3 132 133 134
3 135 136 137
3 138 139 140
3 141 142 143
3 144 145 146
3 147 148 149
3 150 151 152
3 153 154 155
3 156 157 158
3 159 160 161
3 162 163 164
3 165 166 167
3 168 169 170
3 171 172 173
3 174 175 176
3 177 178 179
3 180 181 182
3 183 184 185
3 186 187 188
3 189 190 191
3 192 193 194
3 195 196 197
3 198 199 200
3 201 202 203
3 204 205 206
3 207 208 209
3 210 211 212
3 213 214 215
3 216 217 218
3 219 220 221
3 222 223 224
3 225 226 227
3 228 229 230
3 231 232 233
3 234 235 236
3 237 238 239
3 240 241 242
3 243 244 245
3 246 247 248
3 249 250 251
3 252 253 254
3 255 256 257
3 258 259 260
3 261 262 263
3 264 265 266
3 267 268 269
3 270 271 272
3 273 274 275
3 276 277 278
3 279 280 281
3 282 283 284
3 285 286 287
3 288 289 290
3 291 292 293
3 294 295 296
3 297 298 299
3 300 301 302
3 303 304 305
3 306 307 308
3 309 310 311
3 312 313 314
3 315 316 317
3 318 319 320
3 321 322 323
3 324 325 326
3 327 328 329
3 330 331 332
3 333 334 335
3 336 337 338
3 339 340 341
3 342 343 344
3 345 346 347
3 348 349 350
3 351 352 353
3 354 355 356
3 357 358 359
3 360 361 362
3 363 364 365
3 366 367 368
3 369 370 371
3 372 373 374
3 375 376 377
3 378 379 380
3 381 382 383
3 384 385 386
3 387 388 389
3 390 391 392
3 393 394 395
3 396 397 398
3 399 400 401
3 402 403 404
3 405 406 407
3 408 409 410
3 411 412 413
3 414 415 416
3 417 418 419
3 420 421 422
3 423 424 425
3 426 427 428
3 429 430 431
3 432 433 434
3 435 436 437
3 438 439 440
3 441 442 443
3 444 445 446
3 447 448 449
3 450 451 452
3 453 454 455
3 456 457 458
3 459 460 461
3 462 463 464
3 465 466 467
3 468 469 470
3 471 472 473
3 474 475 476
3 477 478 479
3 480 481 482
3 483 484 485
3 486 487 488
3 489 490 491
3 492 493 494
3 495 496 497
3 498 499 500
3 501 502 503
3 504 505 506
3 507 508 509
3 510 511 512
3 513 514 515
