ply
format ascii 1.0
element vertex 936
property float x
property float y
property float z
property float nx
property float ny
property float nz
property float u
property float v
element face 312
property list uchar int vertex_indices
end_header
1.908893 2.617084 3.533576 -0.887225389 -0.461336221 3.47829138e-07 0 0
1.911509 2.612052 2.204629 -0.887225389 -0.461336221 3.47829138e-07 0 0
1.911509 2.612053 3.530959 -0.887225389 -0.461336221 3.47829138e-07 0 0
1.908893 2.617084 3.533576 -0.887262987 -0.461263906 -0 0 0
1.908893 2.617084 2.202013 -0.887262987 -0.461263906 -0 0 0
1.911509 2.612052 2.204629 -0.887262987 -0.461263906 -0 0 0
1.906715 2.623764 3.535753 -0.950740782 -0.30998704 0 0 0
1.908893 2.617084 2.202013 -0.950740782 -0.30998704 0 0 0
1.908893 2.617084 3.533576 -0.950740782 -0.30998704 0 0 0
1.906715 2.623764 3.535753 -0.950727126 -0.310028923 2.32071821e-07 0 0
1.906715 2.623763 2.199835 -0.950727126 -0.310028923 2.32071821e-07 0 0
1.908893 2.617084 2.202013 -0.950727126 -0.310028923 2.32071821e-07 0 0
1.906715 2.623764 3.535753 0.994760221 0.102235526 6.67321155e-07 0 0
1.905938 2.631333 2.199057 0.994760221 0.102235526 6.67321155e-07 0 0
1.905937 2.631334 3.536531 0.994760221 0.102235526 6.67321155e-07 0 0
1.906715 2.623764 3.535753 0.994773571 0.102105549 -7.64310002e-08 0 0
1.906715 2.623763 2.199835 0.994773571 0.102105549 -7.64310002e-08 0 0
1.905938 2.631333 2.199057 0.994773571 0.102105549 -7.64310002e-08 0 0
1.906248 2.638458 3.53622 -0.999048471 0.0436136766 -7.79575638e-07 0 0
1.905938 2.631333 2.199057 -0.999048471 0.0436136766 -7.79575638e-07 0 0
1.905937 2.631334 3.536531 -0.999048471 0.0436136766 -7.79575638e-07 0 0
1.906248 2.638458 3.53622 -0.999048735 0.0436076335 -7.47314388e-07 0 0
1.906249 2.638458 2.199368 -0.999048735 0.0436076335 -7.47314388e-07 0 0
1.905938 2.631333 2.199057 -0.999048735 0.0436076335 -7.47314388e-07 0 0
1.906248 2.638458 3.53622 0.999042618 -0.043747549 3.27395596e-08 0 0
1.90656 2.645582 2.19968 0.999042618 -0.043747549 3.27395596e-08 0 0
1.90656 2.645583 3.535909 0.999042618 -0.043747549 3.27395596e-08 0 0
1.906248 2.638458 3.53622 0.999048468 -0.0436137432 7.47314189e-07 0 0
1.906249 2.638458 2.199368 0.999048468 -0.0436137432 7.47314189e-07 0 0
1.90656 2.645582 2.19968 0.999048468 -0.0436137432 7.47314189e-07 0 0
1.903915 2.651817 3.538553 -0.920567257 -0.390584082 2.92303252e-07 0 0
1.90656 2.645582 2.19968 -0.920567257 -0.390584082 2.92303252e-07 0 0
1.90656 2.645583 3.535909 -0.920567257 -0.390584082 2.92303252e-07 0 0
1.903915 2.651817 3.538553 -0.920620332 -0.390458967 -3.95195118e-07 0 0
1.903916 2.651816 2.197035 -0.920620332 -0.390458967 -3.95195118e-07 0 0
1.90656 2.645582 2.19968 -0.920620332 -0.390458967 -3.95195118e-07 0 0
1.903915 2.651817 3.538553 0.990383644 0.138348247 0 0 0
1.902982 2.658496 2.196102 0.990383644 0.138348247 0 0 0
1.902982 2.658496 3.539486 0.990383644 0.138348247 0 0 0
1.903915 2.651817 3.538553 0.990366148 0.138473439 6.35021452e-07 0 0
1.903916 2.651816 2.197035 0.990366148 0.138473439 6.35021452e-07 0 0
1.902982 2.658496 2.196102 0.990366148 0.138473439 6.35021452e-07 0 0
1.904226 2.664285 3.538242 -0.977681147 0.210094204 0 0 0
1.902982 2.658496 2.196102 -0.977681147 0.210094204 0 0 0
1.902982 2.658496 3.539486 -0.977681147 0.210094204 0 0 0
1.904226 2.664285 3.538242 -0.977638938 0.210290529 -8.8592215e-07 0 0
1.904227 2.664284 2.197346 -0.977638938 0.210290529 -8.8592215e-07 0 0
1.902982 2.658496 2.196102 -0.977638938 0.210290529 -8.8592215e-07 0 0
1.906093 2.665621 3.536376 -0.58193913 0.813232346 -1.04047702e-06 0 0
1.904227 2.664284 2.197346 -0.58193913 0.813232346 -1.04047702e-06 0 0
1.904226 2.664285 3.538242 -0.58193913 0.813232346 -1.04047702e-06 0 0
1.906093 2.665621 3.536376 -0.582144235 0.813085537 -6.0806763e-07 0 0
1.906093 2.66562 2.199213 -0.582144235 0.813085537 -6.0806763e-07 0 0
1.904227 2.664284 2.197346 -0.582144235 0.813085537 -6.0806763e-07 0 0
1.906093 2.665621 3.536376 -0.615438415 -0.788184976 0 0 0
1.909515 2.662949 2.202635 -0.615438415 -0.788184976 0 0 0
1.909515 2.662949 3.532954 -0.615438415 -0.788184976 0 0 0
1.906093 2.665621 3.536376 -0.615295663 -0.788296421 5.89529041e-07 0 0
1.906093 2.66562 2.199213 -0.615295663 -0.788296421 5.89529041e-07 0 0
1.909515 2.662949 2.202635 -0.615295663 -0.788296421 5.89529041e-07 0 0
1.911509 2.658496 3.530959 -1 -0 0 0 0
1.911509 2.612052 2.204629 -1 -0 0 0 0
1.911509 2.612053 3.530959 -1 -0 0 0 0
1.911509 2.658496 3.530959 -1 0 -0 0 0
1.911509 2.658496 2.204629 -1 0 -0 0 0
1.911509 2.612052 2.204629 -1 0 -0 0 0
1.911509 2.658496 3.530959 0.912675447 0.408685121 0 0 0
1.909515 2.662949 2.202635 0.912675447 0.408685121 0 0 0
1.909515 2.662949 3.532954 0.912675447 0.408685121 0 0 0
1.911509 2.658496 3.530959 0.912675447 0.408685121 0 0 0
1.911509 2.658496 2.204629 0.912675447 0.408685121 0 0 0
1.909515 2.662949 2.202635 0.912675447 0.408685121 0 0 0
1.911509 2.658496 2.204629 0 0.408685121 0.912675447 0 0
2.442185 2.662949 2.202635 0 0.408685121 0.912675447 0 0
1.909515 2.662949 2.202635 0 0.408685121 0.912675447 0 0
1.911509 2.658496 2.204629 -0 0.408685121 0.912675447 0 0
2.444179 2.658496 2.204629 -0 0.408685121 0.912675447 0 0
2.442185 2.662949 2.202635 -0 0.408685121 0.912675447 0 0
1.911509 2.658496 2.204629 0 0 -1 0 0
2.444179 2.612052 2.204629 0 0 -1 0 0
1.911509 2.612052 2.204629 0 0 -1 0 0
1.911509 2.658496 2.204629 0 0 -1 0 0
2.444179 2.658496 2.204629 0 0 -1 0 0
2.444179 2.612052 2.204629 0 0 -1 0 0
1.906093 2.66562 2.199213 0 -0.788296707 -0.615295296 0 0
2.442185 2.662949 2.202635 0 -0.788296707 -0.615295296 0 0
1.909515 2.662949 2.202635 0 -0.788296707 -0.615295296 0 0
1.906093 2.66562 2.199213 0 -0.788296707 -0.615295296 0 0
2.438763 2.66562 2.199213 0 -0.788296707 -0.615295296 0 0
2.442185 2.662949 2.202635 0 -0.788296707 -0.615295296 0 0
1.906093 2.66562 2.199213 0 0.813232838 -0.581938442 0 0
2.436897 2.664284 2.197346 0 0.813232838 -0.581938442 0 0
1.904227 2.664284 2.197346 0 0.813232838 -0.581938442 0 0
1.906093 2.66562 2.199213 0 0.813232838 -0.581938442 0 0
2.438763 2.66562 2.199213 0 0.813232838 -0.581938442 0 0
2.436897 2.664284 2.197346 0 0.813232838 -0.581938442 0 0
1.904227 2.664284 2.197346 0 0.2101289 -0.977673691 0 0
2.435652 2.658496 2.196102 0 0.2101289 -0.977673691 0 0
1.902982 2.658496 2.196102 0 0.2101289 -0.977673691 0 0
1.904227 2.664284 2.197346 0 0.2101289 -0.977673691 0 0
2.436897 2.664284 2.197346 0 0.2101289 -0.977673691 0 0
2.435652 2.658496 2.196102 0 0.2101289 -0.977673691 0 0
1.903916 2.651816 2.197035 0 0.138327932 0.990386482 0 0
2.435652 2.658496 2.196102 0 0.138327932 0.990386482 0 0
1.902982 2.658496 2.196102 0 0.138327932 0.990386482 0 0
1.903916 2.651816 2.197035 -0 0.138327932 0.990386482 0 0
2.436586 2.651816 2.197035 -0 0.138327932 0.990386482 0 0
2.435652 2.658496 2.196102 -0 0.138327932 0.990386482 0 0
1.903916 2.651816 2.197035 0 -0.390583977 -0.920567302 0 0
2.43923 2.645582 2.19968 0 -0.390583977 -0.920567302 0 0
1.90656 2.645582 2.19968 0 -0.390583977 -0.920567302 0 0
1.903916 2.651816 2.197035 0 -0.390583977 -0.920567302 0 0
2.436586 2.651816 2.197035 0 -0.390583977 -0.920567302 0 0
2.43923 2.645582 2.19968 0 -0.390583977 -0.920567302 0 0
1.906249 2.638458 2.199368 0 -0.0437536795 0.999042349 0 0
2.43923 2.645582 2.19968 0 -0.0437536795 0.999042349 0 0
1.90656 2.645582 2.19968 0 -0.0437536795 0.999042349 0 0
1.906249 2.638458 2.199368 0 -0.0437536795 0.999042349 0 0
2.438919 2.638458 2.199368 0 -0.0437536795 0.999042349 0 0
2.43923 2.645582 2.19968 0 -0.0437536795 0.999042349 0 0
1.906249 2.638458 2.199368 0 0.043607601 -0.999048736 0 0
2.438608 2.631333 2.199057 0 0.043607601 -0.999048736 0 0
1.905938 2.631333 2.199057 0 0.043607601 -0.999048736 0 0
1.906249 2.638458 2.199368 0 0.043607601 -0.999048736 0 0
2.438919 2.638458 2.199368 0 0.043607601 -0.999048736 0 0
2.438608 2.631333 2.199057 0 0.043607601 -0.999048736 0 0
1.906715 2.623763 2.199835 0 0.102235594 0.994760214 0 0
2.438608 2.631333 2.199057 0 0.102235594 0.994760214 0 0
1.905938 2.631333 2.199057 0 0.102235594 0.994760214 0 0
1.906715 2.623763 2.199835 -0 0.102235594 0.994760214 0 0
2.439385 2.623763 2.199835 -0 0.102235594 0.994760214 0 0
2.438608 2.631333 2.199057 -0 0.102235594 0.994760214 0 0
1.906715 2.623763 2.199835 0 -0.310028991 -0.950727103 0 0
2.441563 2.617084 2.202013 0 -0.310028991 -0.950727103 0 0
1.908893 2.617084 2.202013 0 -0.310028991 -0.950727103 0 0
1.906715 2.623763 2.199835 0 -0.310028991 -0.950727103 0 0
2.439385 2.623763 2.199835 0 -0.310028991 -0.950727103 0 0
2.441563 2.617084 2.202013 0 -0.310028991 -0.950727103 0 0
1.908893 2.617084 2.202013 0 -0.461263906 -0.887262987 0 0
2.444179 2.612052 2.204629 0 -0.461263906 -0.887262987 0 0
1.911509 2.612052 2.204629 0 -0.461263906 -0.887262987 0 0
1.908893 2.617084 2.202013 0 -0.461263906 -0.887262987 0 0
2.441563 2.617084 2.202013 0 -0.461263906 -0.887262987 0 0
2.444179 2.612052 2.204629 0 -0.461263906 -0.887262987 0 0
2.441563 2.617084 2.202013 -0.887262987 -0.461263906 0 0 0
2.444179 2.612052 1.298696 -0.887262987 -0.461263906 0 0 0
2.444179 2.612052 2.204629 -0.887262987 -0.461263906 0 0 0
2.441563 2.617084 2.202013 -0.887262987 -0.461263906 -0 0 0
2.441563 2.617084 1.301313 -0.887262987 -0.461263906 -0 0 0
2.444179 2.612052 1.298696 -0.887262987 -0.461263906 -0 0 0
2.439385 2.623763 2.199835 -0.950727103 -0.310028991 0 0 0
2.441563 2.617084 1.301313 -0.950727103 -0.310028991 0 0 0
2.441563 2.617084 2.202013 -0.950727103 -0.310028991 0 0 0
2.439385 2.623763 2.199835 -0.950727103 -0.310028991 -0 0 0
2.439385 2.623763 1.30349 -0.950727103 -0.310028991 -0 0 0
2.441563 2.617084 1.301313 -0.950727103 -0.310028991 -0 0 0
2.439385 2.623763 2.199835 0.99477357 0.102105557 0 0 0
2.438608 2.631333 1.304268 0.99477357 0.102105557 0 0 0
2.438608 2.631333 2.199057 0.99477357 0.102105557 0 0 0
2.439385 2.623763 2.199835 0.99477357 0.102105557 0 0 0
2.439385 2.623763 1.30349 0.99477357 0.102105557 0 0 0
2.438608 2.631333 1.304268 0.99477357 0.102105557 0 0 0
2.438919 2.638458 2.199368 -0.999048736 0.043607601 0 0 0
2.438608 2.631333 1.304268 -0.999048736 0.043607601 0 0 0
2.438608 2.631333 2.199057 -0.999048736 0.043607601 0 0 0
2.438919 2.638458 2.199368 -0.999048736 0.043607601 0 0 0
2.438919 2.638458 1.303957 -0.999048736 0.043607601 0 0 0
2.438608 2.631333 1.304268 -0.999048736 0.043607601 0 0 0
2.438919 2.638458 2.199368 0.999048469 -0.0436137106 0 0 0
2.43923 2.645582 1.303646 0.999048469 -0.0436137106 0 0 0
2.43923 2.645582 2.19968 0.999048469 -0.0436137106 0 0 0
2.438919 2.638458 2.199368 0.999048469 -0.0436137106 0 0 0
2.438919 2.638458 1.303957 0.999048469 -0.0436137106 0 0 0
2.43923 2.645582 1.303646 0.999048469 -0.0436137106 0 0 0
2.436586 2.651816 2.197035 -0.920620392 -0.390458825 0 0 0
2.43923 2.645582 1.303646 -0.920620392 -0.390458825 0 0 0
2.43923 2.645582 2.19968 -0.920620392 -0.390458825 0 0 0
2.436586 2.651816 2.197035 -0.920620392 -0.390458825 -0 0 0
2.436586 2.651816 1.30629 -0.920620392 -0.390458825 -0 0 0
2.43923 2.645582 1.303646 -0.920620392 -0.390458825 -0 0 0
2.436586 2.651816 2.197035 0.990366163 0.138473331 -1.5578423e-07 0 0
2.435652 2.658495 1.307223 0.990366163 0.138473331 -1.5578423e-07 0 0
2.435652 2.658496 2.196102 0.990366163 0.138473331 -1.5578423e-07 0 0
2.436586 2.651816 2.197035 0.990363316 0.138493687 0 0 0
2.436586 2.651816 1.30629 0.990363316 0.138493687 0 0 0
2.435652 2.658495 1.307223 0.990363316 0.138493687 0 0 0
2.436897 2.664284 2.197346 -0.977638967 0.210290395 -2.36579327e-07 0 0
2.435652 2.658495 1.307223 -0.977638967 0.210290395 -2.36579327e-07 0 0
2.435652 2.658496 2.196102 -0.977638967 0.210290395 -2.36579327e-07 0 0
2.436897 2.664284 2.197346 -0.977646445 0.210255627 0 0 0
2.436897 2.664284 1.305979 -0.977646445 0.210255627 0 0 0
2.435652 2.658495 1.307223 -0.977646445 0.210255627 0 0 0
2.438763 2.66562 2.199213 -0.582144637 0.813085249 0 0 0
2.436897 2.664284 1.305979 -0.582144637 0.813085249 0 0 0
2.436897 2.664284 2.197346 -0.582144637 0.813085249 0 0 0
2.438763 2.66562 2.199213 -0.582144637 0.813085249 0 0 0
2.438763 2.66562 1.304112 -0.582144637 0.813085249 0 0 0
2.436897 2.664284 1.305979 -0.582144637 0.813085249 0 0 0
2.438763 2.66562 2.199213 -0.61529584 -0.788296283 8.73995956e-07 0 0
2.442185 2.662948 1.30069 -0.61529584 -0.788296283 8.73995956e-07 0 0
2.442185 2.662949 2.202635 -0.61529584 -0.788296283 8.73995956e-07 0 0
2.438763 2.66562 2.199213 -0.615438415 -0.788184976 -0 0 0
2.438763 2.66562 1.304112 -0.615438415 -0.788184976 -0 0 0
2.442185 2.662948 1.30069 -0.615438415 -0.788184976 -0 0 0
2.444179 2.658496 2.204629 -1 -0 0 0 0
2.444179 2.612052 1.298696 -1 -0 0 0 0
2.444179 2.612052 2.204629 -1 -0 0 0 0
2.444179 2.658496 2.204629 -1 0 0 0 0
2.444179 2.658495 1.298696 -1 0 0 0 0
2.444179 2.612052 1.298696 -1 0 0 0 0
2.444179 2.658496 2.204629 0.912675523 0.408684952 -4.53115158e-07 0 0
2.442185 2.662948 1.30069 0.912675523 0.408684952 -4.53115158e-07 0 0
2.442185 2.662949 2.202635 0.912675523 0.408684952 -4.53115158e-07 0 0
2.444179 2.658496 2.204629 0.912675372 0.408685289 -4.51120876e-07 0 0
2.444179 2.658495 1.298696 0.912675372 0.408685289 -4.51120876e-07 0 0
2.442185 2.662948 1.30069 0.912675372 0.408685289 -4.51120876e-07 0 0
2.444179 2.658495 1.298696 0 0.408685121 -0.912675447 0 0
1.438161 2.662948 1.30069 0 0.408685121 -0.912675447 0 0
2.442185 2.662948 1.30069 0 0.408685121 -0.912675447 0 0
2.444179 2.658495 1.298696 0 0.408685121 -0.912675447 0 0
1.440155 2.658495 1.298696 0 0.408685121 -0.912675447 0 0
1.438161 2.662948 1.30069 0 0.408685121 -0.912675447 0 0
2.444179 2.658495 1.298696 0 0 1 0 0
1.440155 2.612052 1.298696 0 0 1 0 0
2.444179 2.612052 1.298696 0 0 1 0 0
2.444179 2.658495 1.298696 0 0 1 0 0
1.440155 2.658495 1.298696 0 0 1 0 0
1.440155 2.612052 1.298696 0 0 1 0 0
2.438763 2.66562 1.304112 0 -0.788184976 0.615438415 0 0
1.438161 2.662948 1.30069 0 -0.788184976 0.615438415 0 0
2.442185 2.662948 1.30069 0 -0.788184976 0.615438415 0 0
2.438763 2.66562 1.304112 0 -0.788184976 0.615438415 0 0
1.434739 2.66562 1.304112 0 -0.788184976 0.615438415 0 0
1.438161 2.662948 1.30069 0 -0.788184976 0.615438415 0 0
2.438763 2.66562 1.304112 0 0.813232838 0.581938442 0 0
1.432873 2.664284 1.305979 0 0.813232838 0.581938442 0 0
2.436897 2.664284 1.305979 0 0.813232838 0.581938442 0 0
2.438763 2.66562 1.304112 0 0.813232838 0.581938442 0 0
1.434739 2.66562 1.304112 0 0.813232838 0.581938442 0 0
1.432873 2.664284 1.305979 0 0.813232838 0.581938442 0 0
2.436897 2.664284 1.305979 0 0.210094204 0.977681147 0 0
1.431628 2.658495 1.307223 0 0.210094204 0.977681147 0 0
2.435652 2.658495 1.307223 0 0.210094204 0.977681147 0 0
2.436897 2.664284 1.305979 0 0.210094204 0.977681147 0 0
1.432873 2.664284 1.305979 0 0.210094204 0.977681147 0 0
1.431628 2.658495 1.307223 0 0.210094204 0.977681147 0 0
2.436586 2.651816 1.30629 0 0.138348247 -0.990383644 0 0
1.431628 2.658495 1.307223 0 0.138348247 -0.990383644 0 0
2.435652 2.658495 1.307223 0 0.138348247 -0.990383644 0 0
2.436586 2.651816 1.30629 0 0.138348247 -0.990383644 0 0
1.432562 2.651816 1.30629 0 0.138348247 -0.990383644 0 0
1.431628 2.658495 1.307223 0 0.138348247 -0.990383644 0 0
2.436586 2.651816 1.30629 0 -0.390458825 0.920620392 0 0
1.435206 2.645582 1.303646 0 -0.390458825 0.920620392 0 0
2.43923 2.645582 1.303646 0 -0.390458825 0.920620392 0 0
2.436586 2.651816 1.30629 0 -0.390458825 0.920620392 0 0
1.432562 2.651816 1.30629 0 -0.390458825 0.920620392 0 0
1.435206 2.645582 1.303646 0 -0.390458825 0.920620392 0 0
2.438919 2.638458 1.303957 0 -0.0436137106 -0.999048469 0 0
1.435206 2.645582 1.303646 0 -0.0436137106 -0.999048469 0 0
2.43923 2.645582 1.303646 0 -0.0436137106 -0.999048469 0 0
2.438919 2.638458 1.303957 -0 -0.0436137106 -0.999048469 0 0
1.434895 2.638458 1.303957 -0 -0.0436137106 -0.999048469 0 0
1.435206 2.645582 1.303646 -0 -0.0436137106 -0.999048469 0 0
2.438919 2.638458 1.303957 0 0.043607601 0.999048736 0 0
1.434584 2.631333 1.304268 0 0.043607601 0.999048736 0 0
2.438608 2.631333 1.304268 0 0.043607601 0.999048736 0 0
2.438919 2.638458 1.303957 0 0.043607601 0.999048736 0 0
1.434895 2.638458 1.303957 0 0.043607601 0.999048736 0 0
1.434584 2.631333 1.304268 0 0.043607601 0.999048736 0 0
2.439385 2.623763 1.30349 0 0.102235594 -0.994760214 0 0
1.434584 2.631333 1.304268 0 0.102235594 -0.994760214 0 0
2.438608 2.631333 1.304268 0 0.102235594 -0.994760214 0 0
2.439385 2.623763 1.30349 0 0.102235594 -0.994760214 0 0
1.435361 2.623763 1.30349 0 0.102235594 -0.994760214 0 0
1.434584 2.631333 1.304268 0 0.102235594 -0.994760214 0 0
2.439385 2.623763 1.30349 0 -0.309900319 0.950769053 0 0
1.437539 2.617084 1.301313 0 -0.309900319 0.950769053 0 0
2.441563 2.617084 1.301313 0 -0.309900319 0.950769053 0 0
2.439385 2.623763 1.30349 0 -0.309900319 0.950769053 0 0
1.435361 2.623763 1.30349 0 -0.309900319 0.950769053 0 0
1.437539 2.617084 1.301313 0 -0.309900319 0.950769053 0 0
2.441563 2.617084 1.301313 0 -0.461402698 0.88719082 0 0
1.440155 2.612052 1.298696 0 -0.461402698 0.88719082 0 0
2.444179 2.612052 1.298696 0 -0.461402698 0.88719082 0 0
2.441563 2.617084 1.301313 0 -0.461402698 0.88719082 0 0
1.437539 2.617084 1.301313 0 -0.461402698 0.88719082 0 0
1.440155 2.612052 1.298696 0 -0.461402698 0.88719082 0 0
1.437539 2.617084 1.301313 -0.887262987 -0.461263906 0 0 0
1.440155 2.612052 1.059151 -0.887262987 -0.461263906 0 0 0
1.440155 2.612052 1.298696 -0.887262987 -0.461263906 0 0 0
1.437539 2.617084 1.301313 -0.887262987 -0.461263906 -0 0 0
1.437539 2.617084 1.061773 -0.887262987 -0.461263906 -0 0 0
1.440155 2.612052 1.059151 -0.887262987 -0.461263906 -0 0 0
1.435361 2.623763 1.30349 -0.950727103 -0.310028991 0 0 0
1.437539 2.617084 1.061773 -0.950727103 -0.310028991 0 0 0
1.437539 2.617084 1.301313 -0.950727103 -0.310028991 0 0 0
1.435361 2.623763 1.30349 -0.950727103 -0.310028991 -0 0 0
1.435361 2.623763 1.063956 -0.950727103 -0.310028991 -0 0 0
1.437539 2.617084 1.061773 -0.950727103 -0.310028991 -0 0 0
1.435361 2.623763 1.30349 0.99477357 0.102105557 0 0 0
1.434584 2.631333 1.064735 0.99477357 0.102105557 0 0 0
1.434584 2.631333 1.304268 0.99477357 0.102105557 0 0 0
1.435361 2.623763 1.30349 0.99477357 0.102105557 0 0 0
1.435361 2.623763 1.063956 0.99477357 0.102105557 0 0 0
1.434584 2.631333 1.064735 0.99477357 0.102105557 0 0 0
1.434895 2.638458 1.303957 -0.999048736 0.043607601 0 0 0
1.434584 2.631333 1.064735 -0.999048736 0.043607601 0 0 0
1.434584 2.631333 1.304268 -0.999048736 0.043607601 0 0 0
1.434895 2.638458 1.303957 -0.99904847 0.0436137026 -1.82078054e-07 0 0
1.434895 2.638457 1.064424 -0.99904847 0.0436137026 -1.82078054e-07 0 0
1.434584 2.631333 1.064735 -0.99904847 0.0436137026 -1.82078054e-07 0 0
1.434895 2.638458 1.303957 0.999048469 -0.0436137106 0 0 0
1.435206 2.645582 1.064112 0.999048469 -0.0436137106 0 0 0
1.435206 2.645582 1.303646 0.999048469 -0.0436137106 0 0 0
1.434895 2.638458 1.303957 0.999048736 -0.043607593 1.82052548e-07 0 0
1.434895 2.638457 1.064424 0.999048736 -0.043607593 1.82052548e-07 0 0
1.435206 2.645582 1.064112 0.999048736 -0.043607593 1.82052548e-07 0 0
1.432562 2.651816 1.30629 -0.920620392 -0.390458825 0 0 0
1.435206 2.645582 1.064112 -0.920620392 -0.390458825 0 0 0
1.435206 2.645582 1.303646 -0.920620392 -0.390458825 0 0 0
1.432562 2.651816 1.30629 -0.920620392 -0.390458825 -0 0 0
1.432562 2.651816 1.066762 -0.920620392 -0.390458825 -0 0 0
1.435206 2.645582 1.064112 -0.920620392 -0.390458825 -0 0 0
1.432562 2.651816 1.30629 0.990363316 0.138493687 0 0 0
1.431628 2.658495 1.067698 0.990363316 0.138493687 0 0 0
1.431628 2.658495 1.307223 0.990363316 0.138493687 0 0 0
1.432562 2.651816 1.30629 0.990363316 0.138493687 0 0 0
1.432562 2.651816 1.066762 0.990363316 0.138493687 0 0 0
1.431628 2.658495 1.067698 0.990363316 0.138493687 0 0 0
1.432873 2.664284 1.305979 -0.977646445 0.210255627 0 0 0
1.431628 2.658495 1.067698 -0.977646445 0.210255627 0 0 0
1.431628 2.658495 1.307223 -0.977646445 0.210255627 0 0 0
1.432873 2.664284 1.305979 -0.977646445 0.210255627 0 0 0
1.432873 2.664284 1.06645 -0.977646445 0.210255627 0 0 0
1.431628 2.658495 1.067698 -0.977646445 0.210255627 0 0 0
1.434739 2.66562 1.304112 -0.582144637 0.813085249 0 0 0
1.432873 2.664284 1.06645 -0.582144637 0.813085249 0 0 0
1.432873 2.664284 1.305979 -0.582144637 0.813085249 0 0 0
1.434739 2.66562 1.304112 -0.582144637 0.813085249 0 0 0
1.434739 2.66562 1.064579 -0.582144637 0.813085249 0 0 0
1.432873 2.664284 1.06645 -0.582144637 0.813085249 0 0 0
1.434739 2.66562 1.304112 -0.615438415 -0.788184976 0 0 0
1.438161 2.662948 1.06115 -0.615438415 -0.788184976 0 0 0
1.438161 2.662948 1.30069 -0.615438415 -0.788184976 0 0 0
1.434739 2.66562 1.304112 -0.615438415 -0.788184976 -0 0 0
1.434739 2.66562 1.064579 -0.615438415 -0.788184976 -0 0 0
1.438161 2.662948 1.06115 -0.615438415 -0.788184976 -0 0 0
1.440155 2.658495 1.298696 -1 -0 0 0 0
1.440155 2.612052 1.059151 -1 -0 0 0 0
1.440155 2.612052 1.298696 -1 -0 0 0 0
1.440155 2.658495 1.298696 -1 0 -0 0 0
1.440155 2.658495 1.059151 -1 0 -0 0 0
1.440155 2.612052 1.059151 -1 0 -0 0 0
1.440155 2.658495 1.298696 0.912675447 0.408685121 0 0 0
1.438161 2.662948 1.06115 0.912675447 0.408685121 0 0 0
1.438161 2.662948 1.30069 0.912675447 0.408685121 0 0 0
1.440155 2.658495 1.298696 0.912675447 0.408685121 0 0 0
1.440155 2.658495 1.059151 0.912675447 0.408685121 0 0 0
1.438161 2.662948 1.06115 0.912675447 0.408685121 0 0 0
1.911509 2.612053 3.530959 0 -0.46147488 0.887153276 0 0
2.441719 2.617084 3.533576 0 -0.46147488 0.887153276 0 0
1.908893 2.617084 3.533576 0 -0.46147488 0.887153276 0 0
1.911509 2.612053 3.530959 0 -0.46147488 0.887153276 0 0
2.444336 2.612053 3.530959 0 -0.46147488 0.887153276 0 0
2.441719 2.617084 3.533576 0 -0.46147488 0.887153276 0 0
1.908893 2.617084 3.533576 0 -0.309858381 0.950782722 0 0
2.439542 2.623764 3.535753 0 -0.309858381 0.950782722 0 0
1.906715 2.623764 3.535753 0 -0.309858381 0.950782722 0 0
1.908893 2.617084 3.533576 0 -0.309858381 0.950782722 0 0
2.441719 2.617084 3.533576 0 -0.309858381 0.950782722 0 0
2.439542 2.623764 3.535753 0 -0.309858381 0.950782722 0 0
1.905937 2.631334 3.536531 0 0.102235594 -0.994760214 0 0
2.439542 2.623764 3.535753 0 0.102235594 -0.994760214 0 0
1.906715 2.623764 3.535753 0 0.102235594 -0.994760214 0 0
1.905937 2.631334 3.536531 0 0.102235594 -0.994760214 0 0
2.438764 2.631334 3.536531 0 0.102235594 -0.994760214 0 0
2.439542 2.623764 3.535753 0 0.102235594 -0.994760214 0 0
1.905937 2.631334 3.536531 0 0.0436137106 0.999048469 0 0
2.439075 2.638458 3.53622 0 0.0436137106 0.999048469 0 0
1.906248 2.638458 3.53622 0 0.0436137106 0.999048469 0 0
1.905937 2.631334 3.536531 -0 0.0436137106 0.999048469 0 0
2.438764 2.631334 3.536531 -0 0.0436137106 0.999048469 0 0
2.439075 2.638458 3.53622 -0 0.0436137106 0.999048469 0 0
1.90656 2.645583 3.535909 0 -0.043607601 -0.999048736 0 0
2.439075 2.638458 3.53622 0 -0.043607601 -0.999048736 0 0
1.906248 2.638458 3.53622 0 -0.043607601 -0.999048736 0 0
1.90656 2.645583 3.535909 0 -0.043607601 -0.999048736 0 0
2.439386 2.645583 3.535909 0 -0.043607601 -0.999048736 0 0
2.439075 2.638458 3.53622 0 -0.043607601 -0.999048736 0 0
1.90656 2.645583 3.535909 0 -0.390458825 0.920620392 0 0
2.436742 2.651817 3.538553 0 -0.390458825 0.920620392 0 0
1.903915 2.651817 3.538553 0 -0.390458825 0.920620392 0 0
1.90656 2.645583 3.535909 0 -0.390458825 0.920620392 0 0
2.439386 2.645583 3.535909 0 -0.390458825 0.920620392 0 0
2.436742 2.651817 3.538553 0 -0.390458825 0.920620392 0 0
1.902982 2.658496 3.539486 0 0.138348247 -0.990383644 0 0
2.436742 2.651817 3.538553 0 0.138348247 -0.990383644 0 0
1.903915 2.651817 3.538553 0 0.138348247 -0.990383644 0 0
1.902982 2.658496 3.539486 0 0.138348247 -0.990383644 0 0
2.435809 2.658496 3.539486 0 0.138348247 -0.990383644 0 0
2.436742 2.651817 3.538553 0 0.138348247 -0.990383644 0 0
1.902982 2.658496 3.539486 0 0.210094204 0.977681147 0 0
2.437053 2.664285 3.538242 0 0.210094204 0.977681147 0 0
1.904226 2.664285 3.538242 0 0.210094204 0.977681147 0 0
1.902982 2.658496 3.539486 -0 0.210094204 0.977681147 0 0
2.435809 2.658496 3.539486 -0 0.210094204 0.977681147 0 0
2.437053 2.664285 3.538242 -0 0.210094204 0.977681147 0 0
1.904226 2.664285 3.538242 0 0.813085249 0.582144637 0 0
2.43892 2.665621 3.536376 0 0.813085249 0.582144637 0 0
1.906093 2.665621 3.536376 0 0.813085249 0.582144637 0 0
1.904226 2.664285 3.538242 -0 0.813085249 0.582144637 0 0
2.437053 2.664285 3.538242 -0 0.813085249 0.582144637 0 0
2.43892 2.665621 3.536376 -0 0.813085249 0.582144637 0 0
1.909515 2.662949 3.532954 0 -0.788184976 0.615438415 0 0
2.43892 2.665621 3.536376 0 -0.788184976 0.615438415 0 0
1.906093 2.665621 3.536376 0 -0.788184976 0.615438415 0 0
1.909515 2.662949 3.532954 0 -0.788184976 0.615438415 0 0
2.442342 2.662949 3.532954 0 -0.788184976 0.615438415 0 0
2.43892 2.665621 3.536376 0 -0.788184976 0.615438415 0 0
1.911509 2.612053 3.530959 0 0 1 0 0
2.444336 2.658496 3.530959 0 0 1 0 0
1.911509 2.658496 3.530959 0 0 1 0 0
1.911509 2.612053 3.530959 0 0 1 0 0
2.444336 2.612053 3.530959 0 0 1 0 0
2.444336 2.658496 3.530959 0 0 1 0 0
1.909515 2.662949 3.532954 0 0.408855824 -0.912598989 0 0
2.444336 2.658496 3.530959 0 0.408855824 -0.912598989 0 0
1.911509 2.658496 3.530959 0 0.408855824 -0.912598989 0 0
1.909515 2.662949 3.532954 0 0.408855824 -0.912598989 0 0
2.442342 2.662949 3.532954 0 0.408855824 -0.912598989 0 0
2.444336 2.658496 3.530959 0 0.408855824 -0.912598989 0 0
2.442342 2.662949 3.532954 0.912675451 0.408685113 2.11117333e-08 0 0
2.444335 2.658498 8.045284 0.912675451 0.408685113 2.11117333e-08 0 0
2.444336 2.658496 3.530959 0.912675451 0.408685113 2.11117333e-08 0 0
2.442342 2.662949 3.532954 0.912641186 0.408761624 1.1171666e-07 0 0
2.442341 2.66295 8.043289 0.912641186 0.408761624 1.1171666e-07 0 0
2.444335 2.658498 8.045284 0.912641186 0.408761624 1.1171666e-07 0 0
2.444336 2.612053 3.530959 -1 0 -2.2151706e-07 0 0
2.444335 2.658498 8.045284 -1 0 -2.2151706e-07 0 0
2.444336 2.658496 3.530959 -1 0 -2.2151706e-07 0 0
2.444336 2.612053 3.530959 -1 0 -2.2151706e-07 0 0
2.444335 2.612054 8.045284 -1 0 -2.2151706e-07 0 0
2.444335 2.658498 8.045284 -1 0 -2.2151706e-07 0 0
2.442342 2.662949 3.532954 -0.615438307 -0.788185061 1.75016462e-07 0 0
2.43892 2.665622 8.039867 -0.615438307 -0.788185061 1.75016462e-07 0 0
2.43892 2.665621 3.536376 -0.615438307 -0.788185061 1.75016462e-07 0 0
2.442342 2.662949 3.532954 -0.615550181 -0.788097694 3.82560304e-08 0 0
2.442341 2.66295 8.043289 -0.615550181 -0.788097694 3.82560304e-08 0 0
2.43892 2.665622 8.039867 -0.615550181 -0.788097694 3.82560304e-08 0 0
2.437053 2.664285 3.538242 -0.581938562 0.813232753 -1.80578301e-07 0 0
2.43892 2.665622 8.039867 -0.581938562 0.813232753 -1.80578301e-07 0 0
2.43892 2.665621 3.536376 -0.581938562 0.813232753 -1.80578301e-07 0 0
2.437053 2.664285 3.538242 -0.581938323 0.813232924 -1.80728066e-07 0 0
2.437053 2.664286 8.038002 -0.581938323 0.813232924 -1.80728066e-07 0 0
2.43892 2.665622 8.039867 -0.581938323 0.813232924 -1.80728066e-07 0 0
2.435809 2.658496 3.539486 -0.977681149 0.210094194 -4.66900889e-08 0 0
2.437053 2.664286 8.038002 -0.977681149 0.210094194 -4.66900889e-08 0 0
2.437053 2.664285 3.538242 -0.977681149 0.210094194 -4.66900889e-08 0 0
2.435809 2.658496 3.539486 -0.977673687 0.210128919 -9.34473012e-08 0 0
2.435809 2.658498 8.036757 -0.977673687 0.210128919 -9.34473012e-08 0 0
2.437053 2.664286 8.038002 -0.977673687 0.210128919 -9.34473012e-08 0 0
2.435809 2.658496 3.539486 0.990383644 0.138348251 -3.07499529e-08 0 0
2.436742 2.651818 8.03769 0.990383644 0.138348251 -3.07499529e-08 0 0
2.436742 2.651817 3.538553 0.990383644 0.138348251 -3.07499529e-08 0 0
2.435809 2.658496 3.539486 0.990386483 0.138327924 -6.15163835e-08 0 0
2.435809 2.658498 8.036757 0.990386483 0.138327924 -6.15163835e-08 0 0
2.436742 2.651818 8.03769 0.990386483 0.138327924 -6.15163835e-08 0 0
2.439386 2.645583 3.535909 -0.920620379 -0.390458856 8.67852782e-08 0 0
2.436742 2.651818 8.03769 -0.920620379 -0.390458856 8.67852782e-08 0 0
2.436742 2.651817 3.538553 -0.920620379 -0.390458856 8.67852782e-08 0 0
2.439386 2.645583 3.535909 -0.920620405 -0.390458794 8.6683363e-08 0 0
2.439386 2.645584 8.040335 -0.920620405 -0.390458794 8.6683363e-08 0 0
2.436742 2.651818 8.03769 -0.920620405 -0.390458794 8.6683363e-08 0 0
2.439386 2.645583 3.535909 0.999048736 -0.0436076006 9.68239305e-09 0 0
2.439075 2.638459 8.040024 0.999048736 -0.0436076006 9.68239305e-09 0 0
2.439075 2.638458 3.53622 0.999048736 -0.0436076006 9.68239305e-09 0 0
2.439386 2.645583 3.535909 0.999048736 -0.0436076014 9.68105623e-09 0 0
2.439386 2.645584 8.040335 0.999048736 -0.0436076014 9.68105623e-09 0 0
2.439075 2.638459 8.040024 0.999048736 -0.0436076014 9.68105623e-09 0 0
2.438764 2.631334 3.536531 -0.999048469 0.0436137101 -9.68374959e-09 0 0
2.439075 2.638459 8.040024 -0.999048469 0.0436137101 -9.68374959e-09 0 0
2.439075 2.638458 3.53622 -0.999048469 0.0436137101 -9.68374959e-09 0 0
2.438764 2.631334 3.536531 -0.999048469 0.043613711 -9.68508949e-09 0 0
2.438764 2.631335 8.039712 -0.999048469 0.043613711 -9.68508949e-09 0 0
2.439075 2.638459 8.040024 -0.999048469 0.043613711 -9.68508949e-09 0 0
2.438764 2.631334 3.536531 0.994760214 0.102235596 -2.2695131e-08 0 0
2.439542 2.623765 8.04049 0.994760214 0.102235596 -2.2695131e-08 0 0
2.439542 2.623764 3.535753 0.994760214 0.102235596 -2.2695131e-08 0 0
2.438764 2.631334 3.536531 0.994760214 0.102235592 -2.27029719e-08 0 0
2.438764 2.631335 8.039712 0.994760214 0.102235592 -2.27029719e-08 0 0
2.439542 2.623765 8.04049 0.994760214 0.102235592 -2.27029719e-08 0 0
2.441719 2.617084 3.533576 -0.950782715 -0.309858401 6.87850148e-08 0 0
2.439542 2.623765 8.04049 -0.950782715 -0.309858401 6.87850148e-08 0 0
2.439542 2.623764 3.535753 -0.950782715 -0.309858401 6.87850148e-08 0 0
2.441719 2.617084 3.533576 -0.950769066 -0.309900278 1.37455766e-07 0 0
2.441719 2.617086 8.042667 -0.950769066 -0.309900278 1.37455766e-07 0 0
2.439542 2.623765 8.04049 -0.950769066 -0.309900278 1.37455766e-07 0 0
2.444336 2.612053 3.530959 -0.887153232 -0.461474964 2.04686472e-07 0 0
2.441719 2.617086 8.042667 -0.887153232 -0.461474964 2.04686472e-07 0 0
2.441719 2.617084 3.533576 -0.887153232 -0.461474964 2.04686472e-07 0 0
2.444336 2.612053 3.530959 -0.887262967 -0.461263945 -9.43660508e-08 0 0
2.444335 2.612054 8.045284 -0.887262967 -0.461263945 -9.43660508e-08 0 0
2.441719 2.617086 8.042667 -0.887262967 -0.461263945 -9.43660508e-08 0 0
2.444335 2.612054 8.045284 0 -0.461402698 -0.88719082 0 0
1.698986 2.617086 8.042667 0 -0.461402698 -0.88719082 0 0
2.441719 2.617086 8.042667 0 -0.461402698 -0.88719082 0 0
2.444335 2.612054 8.045284 -0 -0.461402698 -0.88719082 0 0
1.698986 2.612054 8.045284 -0 -0.461402698 -0.88719082 0 0
1.698986 2.617086 8.042667 -0 -0.461402698 -0.88719082 0 0
2.441719 2.617086 8.042667 0 -0.309900319 -0.950769053 0 0
1.698986 2.623765 8.04049 0 -0.309900319 -0.950769053 0 0
2.439542 2.623765 8.04049 0 -0.309900319 -0.950769053 0 0
2.441719 2.617086 8.042667 -0 -0.309900319 -0.950769053 0 0
1.698986 2.617086 8.042667 -0 -0.309900319 -0.950769053 0 0
1.698986 2.623765 8.04049 -0 -0.309900319 -0.950769053 0 0
2.438764 2.631335 8.039712 0 0.102235594 0.994760214 0 0
1.698986 2.623765 8.04049 0 0.102235594 0.994760214 0 0
2.439542 2.623765 8.04049 0 0.102235594 0.994760214 0 0
2.438764 2.631335 8.039712 0 0.102235594 0.994760214 0 0
1.698986 2.631335 8.039712 0 0.102235594 0.994760214 0 0
1.698986 2.623765 8.04049 0 0.102235594 0.994760214 0 0
2.438764 2.631335 8.039712 0 0.0437536795 -0.999042349 0 0
1.698986 2.638459 8.040024 0 0.0437536795 -0.999042349 0 0
2.439075 2.638459 8.040024 0 0.0437536795 -0.999042349 0 0
2.438764 2.631335 8.039712 0 0.0437536795 -0.999042349 0 0
1.698986 2.631335 8.039712 0 0.0437536795 -0.999042349 0 0
1.698986 2.638459 8.040024 0 0.0437536795 -0.999042349 0 0
2.439386 2.645584 8.040335 0 -0.043607601 0.999048736 0 0
1.698986 2.638459 8.040024 0 -0.043607601 0.999048736 0 0
2.439075 2.638459 8.040024 0 -0.043607601 0.999048736 0 0
2.439386 2.645584 8.040335 0 -0.043607601 0.999048736 0 0
1.698986 2.645584 8.040335 0 -0.043607601 0.999048736 0 0
1.698986 2.638459 8.040024 0 -0.043607601 0.999048736 0 0
2.439386 2.645584 8.040335 0 -0.390583977 -0.920567302 0 0
1.698986 2.651818 8.03769 0 -0.390583977 -0.920567302 0 0
2.436742 2.651818 8.03769 0 -0.390583977 -0.920567302 0 0
2.439386 2.645584 8.040335 -0 -0.390583977 -0.920567302 0 0
1.698986 2.645584 8.040335 -0 -0.390583977 -0.920567302 0 0
1.698986 2.651818 8.03769 -0 -0.390583977 -0.920567302 0 0
2.435809 2.658498 8.036757 0 0.138327932 0.990386482 0 0
1.698986 2.651818 8.03769 0 0.138327932 0.990386482 0 0
2.436742 2.651818 8.03769 0 0.138327932 0.990386482 0 0
2.435809 2.658498 8.036757 0 0.138327932 0.990386482 0 0
1.698986 2.658498 8.036757 0 0.138327932 0.990386482 0 0
1.698986 2.651818 8.03769 0 0.138327932 0.990386482 0 0
2.435809 2.658498 8.036757 0 0.210290347 -0.977638977 0 0
1.698986 2.664286 8.038002 0 0.210290347 -0.977638977 0 0
2.437053 2.664286 8.038002 0 0.210290347 -0.977638977 0 0
2.435809 2.658498 8.036757 0 0.210290347 -0.977638977 0 0
1.698986 2.658498 8.036757 0 0.210290347 -0.977638977 0 0
1.698986 2.664286 8.038002 0 0.210290347 -0.977638977 0 0
2.437053 2.664286 8.038002 0 0.812937502 -0.58235094 0 0
1.698986 2.665622 8.039867 0 0.812937502 -0.58235094 0 0
2.43892 2.665622 8.039867 0 0.812937502 -0.58235094 0 0
2.437053 2.664286 8.038002 0 0.812937502 -0.58235094 0 0
1.698986 2.664286 8.038002 0 0.812937502 -0.58235094 0 0
1.698986 2.665622 8.039867 0 0.812937502 -0.58235094 0 0
2.442341 2.66295 8.043289 0 -0.788184976 -0.615438415 0 0
1.698986 2.665622 8.039867 0 -0.788184976 -0.615438415 0 0
2.43892 2.665622 8.039867 0 -0.788184976 -0.615438415 0 0
2.442341 2.66295 8.043289 -0 -0.788184976 -0.615438415 0 0
1.698986 2.66295 8.043289 -0 -0.788184976 -0.615438415 0 0
1.698986 2.665622 8.039867 -0 -0.788184976 -0.615438415 0 0
2.444335 2.612054 8.045284 0 0 -1 0 0
1.698986 2.658498 8.045284 0 0 -1 0 0
2.444335 2.658498 8.045284 0 0 -1 0 0
2.444335 2.612054 8.045284 0 0 -1 0 0
1.698986 2.612054 8.045284 0 0 -1 0 0
1.698986 2.658498 8.045284 0 0 -1 0 0
2.442341 2.66295 8.043289 0 0.408932304 0.912564721 0 0
1.698986 2.658498 8.045284 0 0.408932304 0.912564721 0 0
2.444335 2.658498 8.045284 0 0.408932304 0.912564721 0 0
2.442341 2.66295 8.043289 0 0.408932304 0.912564721 0 0
1.698986 2.66295 8.043289 0 0.408932304 0.912564721 0 0
1.698986 2.658498 8.045284 0 0.408932304 0.912564721 0 0
-1.412342 2.617086 8.042667 0 0.461402698 0.88719082 0 0
-3.010392 2.612054 8.045284 0 0.461402698 0.88719082 0 0
-1.412342 2.612054 8.045284 0 0.461402698 0.88719082 0 0
-1.412342 2.617086 8.042667 0 0.461402698 0.88719082 0 0
-3.007777 2.617086 8.042667 0 0.461402698 0.88719082 0 0
-3.010392 2.612054 8.045284 0 0.461402698 0.88719082 0 0
-1.412342 2.617086 8.042667 0 -0.309900319 -0.950769053 0 0
-3.005599 2.623765 8.04049 0 -0.309900319 -0.950769053 0 0
-1.412342 2.623765 8.04049 0 -0.309900319 -0.950769053 0 0
-1.412342 2.617086 8.042667 -0 -0.309900319 -0.950769053 0 0
-3.007777 2.617086 8.042667 -0 -0.309900319 -0.950769053 0 0
-3.005599 2.623765 8.04049 -0 -0.309900319 -0.950769053 0 0
-1.412342 2.631335 8.039712 0 0.102235594 0.994760214 0 0
-3.005599 2.623765 8.04049 0 0.102235594 0.994760214 0 0
-1.412342 2.623765 8.04049 0 0.102235594 0.994760214 0 0
-1.412342 2.631335 8.039712 0 0.102235594 0.994760214 0 0
-3.004821 2.631335 8.039712 0 0.102235594 0.994760214 0 0
-3.005599 2.623765 8.04049 0 0.102235594 0.994760214 0 0
-1.412342 2.638459 8.040024 0 -0.0437536795 0.999042349 0 0
-3.004821 2.631335 8.039712 0 -0.0437536795 0.999042349 0 0
-1.412342 2.631335 8.039712 0 -0.0437536795 0.999042349 0 0
-1.412342 2.638459 8.040024 0 -0.0437536795 0.999042349 0 0
-3.005132 2.638459 8.040024 0 -0.0437536795 0.999042349 0 0
-3.004821 2.631335 8.039712 0 -0.0437536795 0.999042349 0 0
-1.412342 2.645584 8.040335 0 -0.043607601 0.999048736 0 0
-3.005132 2.638459 8.040024 0 -0.043607601 0.999048736 0 0
-1.412342 2.638459 8.040024 0 -0.043607601 0.999048736 0 0
-1.412342 2.645584 8.040335 0 -0.043607601 0.999048736 0 0
-3.005443 2.645584 8.040335 0 -0.043607601 0.999048736 0 0
-3.005132 2.638459 8.040024 0 -0.043607601 0.999048736 0 0
-1.412342 2.651818 8.03769 0 0.390583977 0.920567302 0 0
-3.005443 2.645584 8.040335 0 0.390583977 0.920567302 0 0
-1.412342 2.645584 8.040335 0 0.390583977 0.920567302 0 0
-1.412342 2.651818 8.03769 0 0.390583977 0.920567302 0 0
-3.002799 2.651818 8.03769 0 0.390583977 0.920567302 0 0
-3.005443 2.645584 8.040335 0 0.390583977 0.920567302 0 0
-1.412342 2.658498 8.036757 0 0.138327932 0.990386482 0 0
-3.002799 2.651818 8.03769 0 0.138327932 0.990386482 0 0
-1.412342 2.651818 8.03769 0 0.138327932 0.990386482 0 0
-1.412342 2.658498 8.036757 0 0.138327932 0.990386482 0 0
-3.001866 2.658498 8.036757 0 0.138327932 0.990386482 0 0
-3.002799 2.651818 8.03769 0 0.138327932 0.990386482 0 0
-1.412342 2.664286 8.038002 0 -0.210290347 0.977638977 0 0
-3.001866 2.658498 8.036757 0 -0.210290347 0.977638977 0 0
-1.412342 2.658498 8.036757 0 -0.210290347 0.977638977 0 0
-1.412342 2.664286 8.038002 0 -0.210290347 0.977638977 0 0
-3.00311 2.664286 8.038002 0 -0.210290347 0.977638977 0 0
-3.001866 2.658498 8.036757 0 -0.210290347 0.977638977 0 0
-1.412342 2.665622 8.039867 0 -0.812937502 0.58235094 0 0
-3.00311 2.664286 8.038002 0 -0.812937502 0.58235094 0 0
-1.412342 2.664286 8.038002 0 -0.812937502 0.58235094 0 0
-1.412342 2.665622 8.039867 0 -0.812937502 0.58235094 0 0
-3.004977 2.665622 8.039867 0 -0.812937502 0.58235094 0 0
-3.00311 2.664286 8.038002 0 -0.812937502 0.58235094 0 0
-1.412342 2.66295 8.043289 0 -0.788184976 -0.615438415 0 0
-3.004977 2.665622 8.039867 0 -0.788184976 -0.615438415 0 0
-1.412342 2.665622 8.039867 0 -0.788184976 -0.615438415 0 0
-1.412342 2.66295 8.043289 -0 -0.788184976 -0.615438415 0 0
-3.008398 2.66295 8.043289 -0 -0.788184976 -0.615438415 0 0
-3.004977 2.665622 8.039867 -0 -0.788184976 -0.615438415 0 0
-1.412342 2.612054 8.045284 0 0 -1 0 0
-3.010392 2.658498 8.045284 0 0 -1 0 0
-1.412342 2.658498 8.045284 0 0 -1 0 0
-1.412342 2.612054 8.045284 0 0 -1 0 0
-3.010392 2.612054 8.045284 0 0 -1 0 0
-3.010392 2.658498 8.045284 0 0 -1 0 0
-1.412342 2.66295 8.043289 0 0.408932304 0.912564721 0 0
-3.010392 2.658498 8.045284 0 0.408932304 0.912564721 0 0
-1.412342 2.658498 8.045284 0 0.408932304 0.912564721 0 0
-1.412342 2.66295 8.043289 0 0.408932304 0.912564721 0 0
-3.008398 2.66295 8.043289 0 0.408932304 0.912564721 0 0
-3.010392 2.658498 8.045284 0 0.408932304 0.912564721 0 0
-3.008398 2.66295 8.043289 -0.912641246 0.40876149 -2.46862289e-07 0 0
-3.010392 2.658497 6.389456 -0.912641246 0.40876149 -2.46862289e-07 0 0
-3.010392 2.658498 8.045284 -0.912641246 0.40876149 -2.46862289e-07 0 0
-3.008398 2.66295 8.043289 -0.912675447 0.408685121 0 0 0
-3.008398 2.66295 6.389456 -0.912675447 0.408685121 0 0 0
-3.010392 2.658497 6.389456 -0.912675447 0.408685121 0 0 0
-3.010392 2.612054 8.045284 1 -0 0 0 0
-3.010392 2.658497 6.389456 1 -0 0 0 0
-3.010392 2.658498 8.045284 1 -0 0 0 0
-3.010392 2.612054 8.045284 1 0 0 0 0
-3.010392 2.612054 6.389456 1 0 0 0 0
-3.010392 2.658497 6.389456 1 0 0 0 0
-3.008398 2.66295 8.043289 0.615550157 -0.788097712 0 0 0
-3.004977 2.665622 6.389456 0.615550157 -0.788097712 0 0 0
-3.004977 2.665622 8.039867 0.615550157 -0.788097712 0 0 0
-3.008398 2.66295 8.043289 0.615550157 -0.788097712 0 0 0
-3.008398 2.66295 6.389456 0.615550157 -0.788097712 0 0 0
-3.004977 2.665622 6.389456 0.615550157 -0.788097712 0 0 0
-3.004977 2.665622 8.039867 -0.581938442 -0.813232838 0 0 0
-3.00311 2.664286 6.389456 -0.581938442 -0.813232838 0 0 0
-3.00311 2.664286 8.038002 -0.581938442 -0.813232838 0 0 0
-3.004977 2.665622 8.039867 -0.581938442 -0.813232838 -0 0 0
-3.004977 2.665622 6.389456 -0.581938442 -0.813232838 -0 0 0
-3.00311 2.664286 6.389456 -0.581938442 -0.813232838 -0 0 0
-3.00311 2.664286 8.038002 -0.977673685 -0.210128926 1.27559521e-07 0 0
-3.001866 2.658497 6.389456 -0.977673685 -0.210128926 1.27559521e-07 0 0
-3.001866 2.658498 8.036757 -0.977673685 -0.210128926 1.27559521e-07 0 0
-3.00311 2.664286 8.038002 -0.977681147 -0.210094204 -0 0 0
-3.00311 2.664286 6.389456 -0.977681147 -0.210094204 -0 0 0
-3.001866 2.658497 6.389456 -0.977681147 -0.210094204 -0 0 0
-3.001866 2.658498 8.036757 -0.990386482 0.138327932 0 0 0
-3.002799 2.651818 6.389456 -0.990386482 0.138327932 0 0 0
-3.002799 2.651818 8.03769 -0.990386482 0.138327932 0 0 0
-3.001866 2.658498 8.036757 -0.990383644 0.138348247 -8.3984801e-08 0 0
-3.001866 2.658497 6.389456 -0.990383644 0.138348247 -8.3984801e-08 0 0
-3.002799 2.651818 6.389456 -0.990383644 0.138348247 -8.3984801e-08 0 0
-3.002799 2.651818 8.03769 -0.920620392 0.390458825 0 0 0
-3.005443 2.645584 6.389456 -0.920620392 0.390458825 0 0 0
-3.005443 2.645584 8.040335 -0.920620392 0.390458825 0 0 0
-3.002799 2.651818 8.03769 -0.920620392 0.390458825 0 0 0
-3.002799 2.651818 6.389456 -0.920620392 0.390458825 0 0 0
-3.005443 2.645584 6.389456 -0.920620392 0.390458825 0 0 0
-3.005443 2.645584 8.040335 -0.999048736 -0.043607601 0 0 0
-3.005132 2.638459 6.389456 -0.999048736 -0.043607601 0 0 0
-3.005132 2.638459 8.040024 -0.999048736 -0.043607601 0 0 0
-3.005443 2.645584 8.040335 -0.999048736 -0.043607601 -0 0 0
-3.005443 2.645584 6.389456 -0.999048736 -0.043607601 -0 0 0
-3.005132 2.638459 6.389456 -0.999048736 -0.043607601 -0 0 0
-3.005132 2.638459 8.040024 -0.999048469 -0.0436137117 2.64284521e-08 0 0
-3.004821 2.631334 6.389456 -0.999048469 -0.0436137117 2.64284521e-08 0 0
-3.004821 2.631335 8.039712 -0.999048469 -0.0436137117 2.64284521e-08 0 0
-3.005132 2.638459 8.040024 -0.999048736 -0.043607601 -0 0 0
-3.005132 2.638459 6.389456 -0.999048736 -0.043607601 -0 0 0
-3.004821 2.631334 6.389456 -0.999048736 -0.043607601 -0 0 0
-3.004821 2.631335 8.039712 -0.994760214 0.102235594 0 0 0
-3.005599 2.623765 6.389456 -0.994760214 0.102235594 0 0 0
-3.005599 2.623765 8.04049 -0.994760214 0.102235594 0 0 0
-3.004821 2.631335 8.039712 -0.99475884 0.10224896 -6.19594535e-08 0 0
-3.004821 2.631334 6.389456 -0.99475884 0.10224896 -6.19594535e-08 0 0
-3.005599 2.623765 6.389456 -0.99475884 0.10224896 -6.19594535e-08 0 0
-3.007777 2.617086 8.042667 0.950727103 -0.310028991 0 0 0
-3.005599 2.623765 6.389456 0.950727103 -0.310028991 0 0 0
-3.005599 2.623765 8.04049 0.950727103 -0.310028991 0 0 0
-3.007777 2.617086 8.042667 0.950740782 -0.30998704 1.87506035e-07 0 0
-3.007777 2.617085 6.389456 0.950740782 -0.30998704 1.87506035e-07 0 0
-3.005599 2.623765 6.389456 0.950740782 -0.30998704 1.87506035e-07 0 0
-3.007777 2.617086 8.042667 -0.887335145 0.46112508 0 0 0
-3.010392 2.612054 6.389456 -0.887335145 0.46112508 0 0 0
-3.010392 2.612054 8.045284 -0.887335145 0.46112508 0 0 0
-3.007777 2.617086 8.042667 -0.887297641 0.461197243 -2.78970587e-07 0 0
-3.007777 2.617085 6.389456 -0.887297641 0.461197243 -2.78970587e-07 0 0
-3.010392 2.612054 6.389456 -0.887297641 0.461197243 -2.78970587e-07 0 0
-3.010392 2.658497 5.361914 0.912675447 -0.408685121 2.01260705e-07 0 0
-3.008398 2.662948 1.300663 0.912675447 -0.408685121 2.01260705e-07 0 0
-3.008398 2.66295 5.361914 0.912675447 -0.408685121 2.01260705e-07 0 0
-3.010392 2.658497 5.361914 0.912675414 -0.408685196 2.01161976e-07 0 0
-3.010392 2.658495 1.298669 0.912675414 -0.408685196 2.01161976e-07 0 0
-3.008398 2.662948 1.300663 0.912675414 -0.408685196 2.01161976e-07 0 0
-3.010392 2.658497 5.361914 -1 -0 0 0 0
-3.010392 2.612052 1.298669 -1 -0 0 0 0
-3.010392 2.612053 5.361914 -1 -0 0 0 0
-3.010392 2.658497 5.361914 -1 0 0 0 0
-3.010392 2.658495 1.298669 -1 0 0 0 0
-3.010392 2.612052 1.298669 -1 0 0 0 0
-3.004977 2.665621 5.361914 -0.615407044 0.788209471 -3.88160924e-07 0 0
-3.008398 2.662948 1.300663 -0.615407044 0.788209471 -3.88160924e-07 0 0
-3.008398 2.66295 5.361914 -0.615407044 0.788209471 -3.88160924e-07 0 0
-3.004977 2.665621 5.361914 -0.615550036 0.788097807 -1.94216566e-07 0 0
-3.004977 2.66562 1.304084 -0.615550036 0.788097807 -1.94216566e-07 0 0
-3.008398 2.662948 1.300663 -0.615550036 0.788097807 -1.94216566e-07 0 0
-3.004977 2.665621 5.361914 -0.581938442 -0.813232838 2.00503022e-07 0 0
-3.00311 2.664284 1.305951 -0.581938442 -0.813232838 2.00503022e-07 0 0
-3.00311 2.664285 5.361914 -0.581938442 -0.813232838 2.00503022e-07 0 0
-3.004977 2.665621 5.361914 -0.581938575 -0.813232743 2.00410747e-07 0 0
-3.004977 2.66562 1.304084 -0.581938575 -0.813232743 2.00410747e-07 0 0
-3.00311 2.664284 1.305951 -0.581938575 -0.813232743 2.00410747e-07 0 0
-3.001866 2.658497 5.361914 0.977673691 0.2101289 -5.18074005e-08 0 0
-3.00311 2.664284 1.305951 0.977673691 0.2101289 -5.18074005e-08 0 0
-3.00311 2.664285 5.361914 0.977673691 0.2101289 -5.18074005e-08 0 0
-3.001866 2.658497 5.361914 0.977681152 0.210094183 -1.03629492e-07 0 0
-3.001866 2.658495 1.307196 0.977681152 0.210094183 -1.03629492e-07 0 0
-3.00311 2.664284 1.305951 0.977681152 0.210094183 -1.03629492e-07 0 0
-3.001866 2.658497 5.361914 -0.990386482 0.138327932 -3.41074462e-08 0 0
-3.002799 2.651816 1.306262 -0.990386482 0.138327932 -3.41074462e-08 0 0
-3.002799 2.651817 5.361914 -0.990386482 0.138327932 -3.41074462e-08 0 0
-3.001866 2.658497 5.361914 -0.990383643 0.138348256 -6.82406304e-08 0 0
-3.001866 2.658495 1.307196 -0.990383643 0.138348256 -6.82406304e-08 0 0
-3.002799 2.651816 1.306262 -0.990383643 0.138348256 -6.82406304e-08 0 0
-3.005443 2.645583 5.361914 0.920620392 -0.390458825 9.6275229e-08 0 0
-3.002799 2.651816 1.306262 0.920620392 -0.390458825 9.6275229e-08 0 0
-3.002799 2.651817 5.361914 0.920620392 -0.390458825 9.6275229e-08 0 0
-3.005443 2.645583 5.361914 0.920620377 -0.39045886 9.62125137e-08 0 0
-3.005443 2.645582 1.303618 0.920620377 -0.39045886 9.62125137e-08 0 0
-3.002799 2.651816 1.306262 0.920620377 -0.39045886 9.62125137e-08 0 0
-3.005132 2.638459 5.361914 0.999048469 0.0436137106 -1.07468037e-08 0 0
-3.005443 2.645582 1.303618 0.999048469 0.0436137106 -1.07468037e-08 0 0
-3.005443 2.645583 5.361914 0.999048469 0.0436137106 -1.07468037e-08 0 0
-3.005132 2.638459 5.361914 0.999048469 0.0436137101 -1.07476272e-08 0 0
-3.005132 2.638458 1.303929 0.999048469 0.0436137101 -1.07476272e-08 0 0
-3.005443 2.645582 1.303618 0.999048469 0.0436137101 -1.07476272e-08 0 0
-3.004821 2.631334 5.361914 0.999048736 0.043607601 -1.07461218e-08 0 0
-3.005132 2.638458 1.303929 0.999048736 0.043607601 -1.07461218e-08 0 0
-3.005132 2.638459 5.361914 0.999048736 0.043607601 -1.07461218e-08 0 0
-3.004821 2.631334 5.361914 0.999048736 0.0436076005 -1.07469453e-08 0 0
-3.004821 2.631333 1.30424 0.999048736 0.0436076005 -1.07469453e-08 0 0
-3.005132 2.638458 1.303929 0.999048736 0.0436076005 -1.07469453e-08 0 0
-3.005599 2.623764 5.361914 0.994760214 -0.102235594 2.51956155e-08 0 0
-3.004821 2.631333 1.30424 0.994760214 -0.102235594 2.51956155e-08 0 0
-3.004821 2.631334 5.361914 0.994760214 -0.102235594 2.51956155e-08 0 0
-3.005599 2.623764 5.361914 0.994760214 -0.102235597 2.51907924e-08 0 0
-3.005599 2.623763 1.303463 0.994760214 -0.102235597 2.51907924e-08 0 0
-3.004821 2.631333 1.30424 0.994760214 -0.102235597 2.51907924e-08 0 0
-3.007777 2.617085 5.361914 0.950727103 -0.310028991 7.63909657e-08 0 0
-3.005599 2.623763 1.303463 0.950727103 -0.310028991 7.63909657e-08 0 0
-3.005599 2.623764 5.361914 0.950727103 -0.310028991 7.63909657e-08 0 0
-3.007777 2.617085 5.361914 0.950727096 -0.310029013 7.63499974e-08 0 0
-3.007777 2.617084 1.301285 0.950727096 -0.310029013 7.63499974e-08 0 0
-3.005599 2.623763 1.303463 0.950727096 -0.310029013 7.63499974e-08 0 0
-3.007777 2.617085 5.361914 -0.887335145 0.46112508 -1.134869e-07 0 0
-3.010392 2.612052 1.298669 -0.887335145 0.46112508 -1.134869e-07 0 0
-3.010392 2.612053 5.361914 -0.887335145 0.46112508 -1.134869e-07 0 0
-3.007777 2.617085 5.361914 -0.887335121 0.461125127 -1.13560024e-07 0 0
-3.007777 2.617084 1.301285 -0.887335121 0.461125127 -1.13560024e-07 0 0
-3.010392 2.612052 1.298669 -0.887335121 0.461125127 -1.13560024e-07 0 0
-3.007777 2.617084 1.301285 0 0.461263906 -0.887262987 0 0
-1.86071 2.612052 1.298669 0 0.461263906 -0.887262987 0 0
-3.010392 2.612052 1.298669 0 0.461263906 -0.887262987 0 0
-3.007777 2.617084 1.301285 0 0.461263906 -0.887262987 0 0
-1.858094 2.617084 1.301285 0 0.461263906 -0.887262987 0 0
-1.86071 2.612052 1.298669 0 0.461263906 -0.887262987 0 0
-3.007777 2.617084 1.301285 0 -0.310028991 0.950727103 0 0
-1.855916 2.623763 1.303463 0 -0.310028991 0.950727103 0 0
-3.005599 2.623763 1.303463 0 -0.310028991 0.950727103 0 0
-3.007777 2.617084 1.301285 0 -0.310028991 0.950727103 0 0
-1.858094 2.617084 1.301285 0 -0.310028991 0.950727103 0 0
-1.855916 2.623763 1.303463 0 -0.310028991 0.950727103 0 0
-3.005599 2.623763 1.303463 0 -0.102105557 0.99477357 0 0
-1.855138 2.631333 1.30424 0 -0.102105557 0.99477357 0 0
-3.004821 2.631333 1.30424 0 -0.102105557 0.99477357 0 0
-3.005599 2.623763 1.303463 0 -0.102105557 0.99477357 0 0
-1.855916 2.623763 1.303463 0 -0.102105557 0.99477357 0 0
-1.855138 2.631333 1.30424 0 -0.102105557 0.99477357 0 0
-3.004821 2.631333 1.30424 0 0.043607601 0.999048736 0 0
-1.85545 2.638458 1.303929 0 0.043607601 0.999048736 0 0
-3.005132 2.638458 1.303929 0 0.043607601 0.999048736 0 0
-3.004821 2.631333 1.30424 -0 0.043607601 0.999048736 0 0
-1.855138 2.631333 1.30424 -0 0.043607601 0.999048736 0 0
-1.85545 2.638458 1.303929 -0 0.043607601 0.999048736 0 0
-3.005132 2.638458 1.303929 0 0.0436137106 0.999048469 0 0
-1.85576 2.645582 1.303618 0 0.0436137106 0.999048469 0 0
-3.005443 2.645582 1.303618 0 0.0436137106 0.999048469 0 0
-3.005132 2.638458 1.303929 -0 0.0436137106 0.999048469 0 0
-1.85545 2.638458 1.303929 -0 0.0436137106 0.999048469 0 0
-1.85576 2.645582 1.303618 -0 0.0436137106 0.999048469 0 0
-3.005443 2.645582 1.303618 0 -0.390458825 0.920620392 0 0
-1.853116 2.651816 1.306262 0 -0.390458825 0.920620392 0 0
-3.002799 2.651816 1.306262 0 -0.390458825 0.920620392 0 0
-3.005443 2.645582 1.303618 0 -0.390458825 0.920620392 0 0
-1.85576 2.645582 1.303618 0 -0.390458825 0.920620392 0 0
-1.853116 2.651816 1.306262 0 -0.390458825 0.920620392 0 0
-3.001866 2.658495 1.307196 0 0.138493687 -0.990363316 0 0
-1.853116 2.651816 1.306262 0 0.138493687 -0.990363316 0 0
-3.002799 2.651816 1.306262 0 0.138493687 -0.990363316 0 0
-3.001866 2.658495 1.307196 0 0.138493687 -0.990363316 0 0
-1.852183 2.658495 1.307196 0 0.138493687 -0.990363316 0 0
-1.853116 2.651816 1.306262 0 0.138493687 -0.990363316 0 0
-3.001866 2.658495 1.307196 0 0.210255627 0.977646445 0 0
-1.853427 2.664284 1.305951 0 0.210255627 0.977646445 0 0
-3.00311 2.664284 1.305951 0 0.210255627 0.977646445 0 0
-3.001866 2.658495 1.307196 -0 0.210255627 0.977646445 0 0
-1.852183 2.658495 1.307196 -0 0.210255627 0.977646445 0 0
-1.853427 2.664284 1.305951 -0 0.210255627 0.977646445 0 0
-3.004977 2.66562 1.304084 0 -0.813232838 -0.581938442 0 0
-1.853427 2.664284 1.305951 0 -0.813232838 -0.581938442 0 0
-3.00311 2.664284 1.305951 0 -0.813232838 -0.581938442 0 0
-3.004977 2.66562 1.304084 0 -0.813232838 -0.581938442 0 0
-1.855294 2.66562 1.304084 0 -0.813232838 -0.581938442 0 0
-1.853427 2.664284 1.305951 0 -0.813232838 -0.581938442 0 0
-3.004977 2.66562 1.304084 0 0.788097712 -0.615550157 0 0
-1.858715 2.662948 1.300663 0 0.788097712 -0.615550157 0 0
-3.008398 2.662948 1.300663 0 0.788097712 -0.615550157 0 0
-3.004977 2.66562 1.304084 0 0.788097712 -0.615550157 0 0
-1.855294 2.66562 1.304084 0 0.788097712 -0.615550157 0 0
-1.858715 2.662948 1.300663 0 0.788097712 -0.615550157 0 0
-3.010392 2.658495 1.298669 0 0 -1 0 0
-1.86071 2.612052 1.298669 0 0 -1 0 0
-3.010392 2.612052 1.298669 0 0 -1 0 0
-3.010392 2.658495 1.298669 0 0 -1 0 0
-1.86071 2.658495 1.298669 0 0 -1 0 0
-1.86071 2.612052 1.298669 0 0 -1 0 0
-3.010392 2.658495 1.298669 0 -0.408685121 0.912675447 0 0
-1.858715 2.662948 1.300663 0 -0.408685121 0.912675447 0 0
-3.008398 2.662948 1.300663 0 -0.408685121 0.912675447 0 0
-3.010392 2.658495 1.298669 0 -0.408685121 0.912675447 0 0
-1.86071 2.658495 1.298669 0 -0.408685121 0.912675447 0 0
-1.858715 2.662948 1.300663 0 -0.408685121 0.912675447 0 0
-1.86071 2.658495 1.298669 0.912598989 -0.408855824 0 0 0
-1.858715 2.662948 1.072543 0.912598989 -0.408855824 0 0 0
-1.858715 2.662948 1.300663 0.912598989 -0.408855824 0 0 0
-1.86071 2.658495 1.298669 0.912598989 -0.408855824 0 0 0
-1.86071 2.658495 1.070549 0.912598989 -0.408855824 0 0 0
-1.858715 2.662948 1.072543 0.912598989 -0.408855824 0 0 0
-1.86071 2.658495 1.298669 -1 -0 0 0 0
-1.86071 2.612052 1.070549 -1 -0 0 0 0
-1.86071 2.612052 1.298669 -1 -0 0 0 0
-1.86071 2.658495 1.298669 -1 0 -0 0 0
-1.86071 2.658495 1.070549 -1 0 -0 0 0
-1.86071 2.612052 1.070549 -1 0 -0 0 0
-1.855294 2.66562 1.304084 -0.615550157 0.788097712 0 0 0
-1.858715 2.662948 1.072543 -0.615550157 0.788097712 0 0 0
-1.858715 2.662948 1.300663 -0.615550157 0.788097712 0 0 0
-1.855294 2.66562 1.304084 -0.615550157 0.788097712 0 0 0
-1.855294 2.66562 1.075964 -0.615550157 0.788097712 0 0 0
-1.858715 2.662948 1.072543 -0.615550157 0.788097712 0 0 0
-1.855294 2.66562 1.304084 -0.581938442 -0.813232838 0 0 0
-1.853427 2.664284 1.077831 -0.581938442 -0.813232838 0 0 0
-1.853427 2.664284 1.305951 -0.581938442 -0.813232838 0 0 0
-1.855294 2.66562 1.304084 -0.581938442 -0.813232838 -0 0 0
-1.855294 2.66562 1.075964 -0.581938442 -0.813232838 -0 0 0
-1.853427 2.664284 1.077831 -0.581938442 -0.813232838 -0 0 0
-1.852183 2.658495 1.307196 0.977681147 0.210094204 0 0 0
-1.853427 2.664284 1.077831 0.977681147 0.210094204 0 0 0
-1.853427 2.664284 1.305951 0.977681147 0.210094204 0 0 0
-1.852183 2.658495 1.307196 0.977681147 0.210094204 0 0 0
-1.852183 2.658495 1.079075 0.977681147 0.210094204 0 0 0
-1.853427 2.664284 1.077831 0.977681147 0.210094204 0 0 0
-1.852183 2.658495 1.307196 -0.990383644 0.138348247 0 0 0
-1.853116 2.651816 1.078142 -0.990383644 0.138348247 0 0 0
-1.853116 2.651816 1.306262 -0.990383644 0.138348247 0 0 0
-1.852183 2.658495 1.307196 -0.990383644 0.138348247 0 0 0
-1.852183 2.658495 1.079075 -0.990383644 0.138348247 0 0 0
-1.853116 2.651816 1.078142 -0.990383644 0.138348247 0 0 0
-1.85576 2.645582 1.303618 0.920620392 -0.390458825 0 0 0
-1.853116 2.651816 1.078142 0.920620392 -0.390458825 0 0 0
-1.853116 2.651816 1.306262 0.920620392 -0.390458825 0 0 0
-1.85576 2.645582 1.303618 0.920620392 -0.390458825 0 0 0
-1.85576 2.645582 1.075498 0.920620392 -0.390458825 0 0 0
-1.853116 2.651816 1.078142 0.920620392 -0.390458825 0 0 0
-1.85545 2.638458 1.303929 0.99905457 0.043473739 0 0 0
-1.85576 2.645582 1.075498 0.99905457 0.043473739 0 0 0
-1.85576 2.645582 1.303618 0.99905457 0.043473739 0 0 0
-1.85545 2.638458 1.303929 0.999054835 0.0434676407 -1.90547259e-07 0 0
-1.85545 2.638457 1.075809 0.999054835 0.0434676407 -1.90547259e-07 0 0
-1.85576 2.645582 1.075498 0.999054835 0.0434676407 -1.90547259e-07 0 0
-1.855138 2.631333 1.30424 0.999042618 0.0437475421 -1.91774251e-07 0 0
-1.85545 2.638457 1.075809 0.999042618 0.0437475421 -1.91774251e-07 0 0
-1.85545 2.638458 1.303929 0.999042618 0.0437475421 -1.91774251e-07 0 0
-1.855138 2.631333 1.30424 0.999042349 0.0437536795 0 0 0
-1.855138 2.631333 1.07612 0.999042349 0.0437536795 0 0 0
-1.85545 2.638457 1.075809 0.999042349 0.0437536795 0 0 0
-1.855916 2.623763 1.303463 0.994760214 -0.102235594 0 0 0
-1.855138 2.631333 1.07612 0.994760214 -0.102235594 0 0 0
-1.855138 2.631333 1.30424 0.994760214 -0.102235594 0 0 0
-1.855916 2.623763 1.303463 0.994760214 -0.102235594 0 0 0
-1.855916 2.623763 1.075342 0.994760214 -0.102235594 0 0 0
-1.855138 2.631333 1.07612 0.994760214 -0.102235594 0 0 0
-1.858094 2.617084 1.301285 0.950727103 -0.310028991 0 0 0
-1.855916 2.623763 1.075342 0.950727103 -0.310028991 0 0 0
-1.855916 2.623763 1.303463 0.950727103 -0.310028991 0 0 0
-1.858094 2.617084 1.301285 0.950727103 -0.310028991 0 0 0
-1.858094 2.617084 1.073165 0.950727103 -0.310028991 0 0 0
-1.855916 2.623763 1.075342 0.950727103 -0.310028991 0 0 0
-1.858094 2.617084 1.301285 -0.887262987 0.461263906 0 0 0
-1.86071 2.612052 1.070549 -0.887262987 0.461263906 0 0 0
-1.86071 2.612052 1.298669 -0.887262987 0.461263906 0 0 0
-1.858094 2.617084 1.301285 -0.887262987 0.461263906 0 0 0
-1.858094 2.617084 1.073165 -0.887262987 0.461263906 0 0 0
-1.86071 2.612052 1.070549 -0.887262987 0.461263906 0 0 0
3 0 1 2
3 3 4 5
3 6 7 8
3 9 10 11
3 12 13 14
3 15 16 17
3 18 19 20
3 21 22 23
3 24 25 26
3 27 28 29
3 30 31 32
3 33 34 35
3 36 37 38
3 39 40 41
3 42 43 44
3 45 46 47
3 48 49 50
3 51 52 53
3 54 55 56
3 57 58 59
3 60 61 62
3 63 64 65
3 66 67 68
3 69 70 71
3 72 73 74
3 75 76 77
3 78 79 80
3 81 82 83
3 84 85 86
3 87 88 89
3 90 91 92
3 93 94 95
3 96 97 98
3 99 100 101
3 102 103 104
3 105 106 107
3 108 109 110
3 111 112 113
3 114 115 116
3 117 118 119
3 120 121 122
3 123 124 125
3 126 127 128
3 129 130 131
3 132 133 134
3 135 136 137
3 138 139 140
3 141 142 143
3 144 145 146
3 147 148 149
3 150 151 152
3 153 154 155
3 156 157 158
3 159 160 161
3 162 163 164
3 165 166 167
3 168 169 170
3 171 172 173
3 174 175 176
3 177 178 179
3 180 181 182
3 183 184 185
3 186 187 188
3 189 190 191
3 192 193 194
3 195 196 197
3 198 199 200
3 201 202 203
3 204 205 206
3 207 208 209
3 210 211 212
3 213 214 215
3 216 217 218
3 219 220 221
3 222 223 224
3 225 226 227
3 228 229 230
3 231 232 233
3 234 235 236
3 237 238 239
3 240 241 242
3 243 244 245
3 246 247 248
3 249 250 251
3 252 253 254
3 255 256 257
3 258 259 260
3 261 262 263
3 264 265 266
3 267 268 269
3 270 271 272
3 273 274 275
3 276 277 278
3 279 280 281
3 282 283 284
3 285 286 287
3 288 289 290
3 291 292 293
3 294 295 296
3 297 298 299
3 300 301 302
3 303 304 305
3 306 307 308
3 309 310 311
3 312 313 314
3 315 316 317
3 318 319 320
3 321 322 323
3 324 325 326
3 327 328 329
3 330 331 332
3 333 334 335
3 336 337 338
3 339 340 341
3 342 343 344
3 345 346 347
3 348 349 350
3 351 352 353
3 354 355 356
3 357 358 359
3 360 361 362
3 363 364 365
3 366 367 368
3 369 370 371
3 372 373 374
3 375 376 377
3 378 379 380
3 381 382 383
3 384 385 386
3 387 388 389
3 390 391 392
3 393 394 395
3 396 397 398
3 399 400 401
3 402 403 404
3 405 406 407
3 408 409 410
3 411 412 413
3 414 415 416
3 417 418 419
3 420 421 422
3 423 424 425
3 426 427 428
3 429 430 431
3 432 433 434
3 435 436 437
3 438 439 440
3 441 442 443
3 444 445 446
3 447 448 449
3 450 451 452
3 453 454 455
3 456 457 458
3 459 460 461
3 462 463 464
3 465 466 467
3 468 469 470
3 471 472 473
3 474 475 476
3 477 478 479
3 480 481 482
3 483 484 485
3 486 487 488
3 489 490 491
3 492 493 494
3 495 496 497
3 498 499 500
3 501 502 503
3 504 505 506
3 507 508 509
3 510 511 512
3 513 514 515
3 516 517 518
3 519 520 521
3 522 523 524
3 525 526 527
3 528 529 530
3 531 532 533
3 534 535 536
3 537 538 539
3 540 541 542
3 543 544 545
3 546 547 548
3 549 550 551
3 552 553 554
3 555 556 557
3 558 559 560
3 561 562 563
3 564 565 566
3 567 568 569
3 570 571 572
3 573 574 575
3 576 577 578
3 579 580 581
3 582 583 584
3 585 586 587
3 588 589 590
3 591 592 593
3 594 595 596
3 597 598 599
3 600 601 602
3 603 604 605
3 606 607 608
3 609 610 611
3 612 613 614
3 615 616 617
3 618 619 620
3 621 622 623
3 624 625 626
3 627 628 629
3 630 631 632
3 633 634 635
3 636 637 638
3 639 640 641
3 642 643 644
3 645 646 647
3 648 649 650
3 651 652 653
3 654 655 656
3 657 658 659
3 660 661 662
3 663 664 665
3 666 667 668
3 669 670 671
3 672 673 674
3 675 676 677
3 678 679 680
3 681 682 683
3 684 685 686
3 687 688 689
3 690 691 692
3 693 694 695
3 696 697 698
3 699 700 701
3 702 703 704
3 705 706 707
3 708 709 710
3 711 712 713
3 714 715 716
3 717 718 719
3 720 721 722
3 723 724 725
3 726 727 728
3 729 730 731
3 732 733 734
3 735 736 737
3 738 739 740
3 741 742 743
3 744 745 746
3 747 748 749
3 750 751 752
3 753 754 755
3 756 757 758
3 759 760 761
3 762 763 764
3 765 766 767
3 768 769 770
3 771 772 773
3 774 775 776
3 777 778 779
3 780 781 782
3 783 784 785
3 786 787 788
3 789 790 791
3 792 793 794
3 795 796 797
3 798 799 800
3 801 802 803
3 804 805 806
3 807 808 809
3 810 811 812
3 813 814 815
3 816 817 818
3 819 820 821
3 822 823 824
3 825 826 827
3 828 829 830
3 831 832 833
3 834 835 836
3 837 838 839
3 840 841 842
3 843 844 845
3 846 847 848
3 849 850 851
3 852 853 854
3 855 856 857
3 858 859 860
3 861 862 863
3 864 865 866
3 867 868 869
3 870 871 872
3 873 874 875
3 876 877 878
3 879 880 881
3 882 883 884
3 885 886 887
3 888 889 890
3 891 892 893
3 894 895 896
3 897 898 899
3 900 901 902
3 903 904 905
3 906 907 908
3 909 910 911
3 912 913 914
3 915 916 917
3 918 919 920
3 921 922 923
3 924 925 926
3 927 928 929
3 930 931 932
3 933 934 935
