ply
format ascii 1.0
element vertex 904
property float x
property float y
property float z
property float nx
property float ny
property float nz
property float u
property float v
element face 572
property list uchar int vertex_indices
end_header
2.426275 0.032275 3.548925 0 -1 0 0 0
2.444282 0.032275 7.002099 0 -1 0 0 0
2.426275 0.032275 7.002099 0 -1 0 0 0
2.444282 0.032275 3.530919 0 -1 0 0 0
2.426786 0.131267 3.548414 -0.836484839 0.547990068 0 0 0
2.426275 0.130486 7.002099 -0.836484839 0.547990068 0 0 0
2.426786 0.131267 7.002099 -0.836484839 0.547990068 0 0 0
2.426275 0.130486 3.548925 -0.836484839 0.547990068 0 0 0
2.426786 0.131267 3.548414 -0.0242003432 0.999414172 0.0242003432 0 0
2.427966 0.131324 7.002099 -0.0484013553 0.998827968 0 0 0
2.427966 0.131324 3.547235 -0.0242003432 0.999414172 0.0242003432 0 0
2.426786 0.131267 7.002099 -0.0484013553 0.998827968 0 0 0
2.426275 0.032275 3.548925 -1 0 0 0 0
2.426275 0.130486 7.002099 -1 0 0 0 0
2.426275 0.130486 3.548925 -1 0 0 0 0
2.426275 0.032275 7.002099 -1 0 0 0 0
2.427966 0.131324 3.547235 -1 0 0 0 0
2.427966 0.132086 7.002099 -1 0 0 0 0
2.427966 0.132086 3.547235 -1 0 0 0 0
2.427966 0.131324 7.002099 -1 0 0 0 0
2.427966 0.132086 3.547235 -0.815190348 -0.579193142 0 0 0
2.42634 0.134374 7.002099 -0.815190348 -0.579193142 0 0 0
2.42634 0.134374 3.54886 -0.815190348 -0.579193142 0 0 0
2.427966 0.132086 7.002099 -0.815190348 -0.579193142 0 0 0
2.42634 0.134374 3.54886 -1 0 0 0 0
2.42634 0.137424 7.002099 -1 0 0 0 0
2.42634 0.137424 3.54886 -1 0 0 0 0
2.42634 0.134374 7.002099 -1 0 0 0 0
2.42634 0.137424 3.54886 -0.961900399 0.273400113 0 0 0
2.427315 0.140855 7.002099 -0.951222026 0.308507144 0 0 0
2.427315 0.140855 3.547885 -0.949092497 0.31499751 0 0 0
2.42634 0.137424 7.002099 -0.961900399 0.273400113 0 0 0
2.431216 0.15153 7.002099 -0.941897918 0.335899258 0 0 0
2.431216 0.15153 3.543984 -0.942427745 0.334409845 0 0 0
2.433829 0.159038 7.002099 -0.972669784 0.232192787 0 0 0
2.433829 0.159038 3.541372 -0.976125843 0.217205751 0 0 0
2.435004 0.167771 7.002099 -0.996320833 0.085701792 0 0 0
2.435004 0.167771 3.540196 -0.996540929 0.0831034131 0 0 0
2.435266 0.174665 7.002099 -0.999684955 0.0250996223 0 0 0
2.435266 0.174665 3.539935 -0.999689953 0.0248997498 0 0 0
2.435281 0.175937 7.002099 -0.999924348 0.0123002995 0 0 0
2.435281 0.175937 3.539919 -0.999924348 0.0123002995 0 0 0
2.435281 0.175937 3.539919 -0.0230992208 -0.999466284 0.0230992208 0 0
2.434473 0.175974 7.002099 -0.0463012756 -0.998927521 0 0 0
2.434473 0.175974 3.540728 -0.0231991637 -0.99946397 0.0230991673 0 0
2.435281 0.175937 7.002099 -0.0463012756 -0.998927521 0 0 0
2.434473 0.175974 3.540728 -0.814192672 -0.580594775 0 0 0
2.43392 0.176749 7.002099 -0.814192672 -0.580594775 0 0 0
2.43392 0.176749 3.54128 -0.814192672 -0.580594775 0 0 0
2.434473 0.175974 7.002099 -0.814192672 -0.580594775 0 0 0
2.43392 0.176749 3.54128 -0.999992395 0.00389997034 0 0 0
2.433933 0.180166 7.002099 -0.999992395 0.00389997034 0 0 0
2.433933 0.180166 3.541267 -0.999992395 0.00389997034 0 0 0
2.43392 0.176749 7.002099 -0.999992395 0.00389997034 0 0 0
2.433933 0.180166 3.541267 -0.61591181 0.787815106 0 0 0
2.434717 0.180779 7.002099 -0.61591181 0.787815106 0 0 0
2.434717 0.180779 3.540483 -0.61591181 0.787815106 0 0 0
2.433933 0.180166 7.002099 -0.61591181 0.787815106 0 0 0
2.434717 0.180779 3.540483 0 1 0 0 0
2.436285 0.180779 7.002099 0 1 0 0 0
2.436285 0.180779 3.538916 0 1 0 0 0
2.434717 0.180779 7.002099 0 1 0 0 0
2.436285 0.180779 3.538916 -1 0 0 0 0
2.436285 0.181698 7.002099 -1 0 0 0 0
2.436285 0.181698 3.538916 -1 0 0 0 0
2.436285 0.180779 7.002099 -1 0 0 0 0
2.436285 0.181698 3.538916 -0.760976243 -0.648779745 0 0 0
2.434978 0.18323 7.002099 -0.803585536 -0.595189287 0 0 0
2.434978 0.18323 3.540222 -0.789831227 -0.613324248 0 0 0
2.436285 0.181698 7.002099 -0.760976243 -0.648779745 0 0 0
2.433411 0.185682 7.002099 -0.842423925 -0.538815303 0 0 0
2.433411 0.185682 3.54179 -0.842423925 -0.538815303 0 0 0
2.433411 0.185682 3.54179 -0.996818775 -0.0797015012 0 0 0
2.43315 0.188945 7.002099 -0.999945914 0.0104004775 0 0 0
2.43315 0.188945 3.542051 -0.999940588 0.0109004425 0 0 0
2.433411 0.185682 7.002099 -0.996818775 -0.0797015012 0 0 0
2.433488 0.192294 7.002099 -0.994946679 0.100404711 0 0 0
2.433488 0.192294 3.541713 -0.994946679 0.100404711 0 0 0
2.433488 0.192294 3.541713 -0.882546648 0.470224854 0 0 0
2.435113 0.195344 7.002099 -0.882546648 0.470224854 0 0 0
2.435113 0.195344 3.540088 -0.882546648 0.470224854 0 0 0
2.433488 0.192294 7.002099 -0.882546648 0.470224854 0 0 0
2.444282 0.195344 3.530919 1 0 0 0 0
2.444282 0.032275 7.002099 1 0 0 0 0
2.444282 0.032275 3.530919 1 0 0 0 0
2.444282 0.195344 7.002099 1 0 0 0 0
2.435113 0.195344 7.002099 0 1 0 0 0
2.444282 0.195344 3.530919 0 1 0 0 0
2.435113 0.195344 3.540088 0 1 0 0 0
2.444282 0.195344 7.002099 0 1 0 0 0
1.893363 0.032275 3.548925 0 -1 0 0 0
1.91137 0.032275 3.530919 0 -1 0 0 0
2.426275 0.130486 3.548925 0 0.547804273 0.836606526 0 0
1.893874 0.131267 3.548414 0 0.547804273 0.836606526 0 0
1.893363 0.130486 3.548925 0 0.547804273 0.836606526 0 0
2.426786 0.131267 3.548414 0 0.547804273 0.836606526 0 0
1.893874 0.131267 3.548414 -0.0242003432 0.999414172 0.0242003432 0 0
1.895054 0.131324 3.547235 -0.0242003432 0.999414172 0.0242003432 0 0
2.426275 0.130486 3.548925 0 0 1 0 0
1.893363 0.032275 3.548925 0 0 1 0 0
2.426275 0.032275 3.548925 0 0 1 0 0
1.893363 0.130486 3.548925 0 0 1 0 0
2.427966 0.132086 3.547235 0 0 1 0 0
1.895054 0.131324 3.547235 0 0 1 0 0
2.427966 0.131324 3.547235 0 0 1 0 0
1.895054 0.132086 3.547235 0 0 1 0 0
2.42634 0.134374 3.54886 0 -0.579193142 0.815190348 0 0
1.895054 0.132086 3.547235 0 -0.579193142 0.815190348 0 0
2.427966 0.132086 3.547235 0 -0.579193142 0.815190348 0 0
1.893428 0.134374 3.54886 0 -0.579193142 0.815190348 0 0
2.42634 0.137424 3.54886 0 0 1 0 0
1.893428 0.134374 3.54886 0 0 1 0 0
2.42634 0.134374 3.54886 0 0 1 0 0
1.893428 0.137424 3.54886 0 0 1 0 0
2.427315 0.140855 3.547885 0 0.31499751 0.949092497 0 0
1.893428 0.137424 3.54886 0 0.273400113 0.961900399 0 0
2.42634 0.137424 3.54886 0 0.273400113 0.961900399 0 0
1.894403 0.140855 3.547885 0 0.301700837 0.953402646 0 0
2.431216 0.15153 3.543984 0 0.334409845 0.942427745 0 0
1.898304 0.15153 3.543984 0 0.337419495 0.941354388 0 0
2.433829 0.159038 3.541372 0 0.217301032 0.976104637 0 0
1.900917 0.159038 3.541372 0 0.245499189 0.969396796 0 0
2.435004 0.167771 3.540196 0 0.0831034131 0.996540929 0 0
1.902093 0.167771 3.540196 0 0.0882994658 0.996093974 0 0
2.435266 0.174665 3.539935 0 0.0248997498 0.999689953 0 0
1.902354 0.174665 3.539935 0 0.0252994917 0.999679917 0 0
2.435281 0.175937 3.539919 0 0.0124002866 0.999923113 0 0
1.902369 0.175937 3.539919 0 0.0124002866 0.999923113 0 0
1.902369 0.175937 3.539919 -0.0230992208 -0.999466284 0.0230992208 0 0
1.901561 0.175974 3.540728 -0.0230992208 -0.999466284 0.0230992208 0 0
2.43392 0.176749 3.54128 0 -0.580528479 0.814239943 0 0
1.901561 0.175974 3.540728 0 -0.580528479 0.814239943 0 0
2.434473 0.175974 3.540728 0 -0.580528479 0.814239943 0 0
1.901008 0.176749 3.54128 0 -0.580528479 0.814239943 0 0
2.433933 0.180166 3.541267 0 0.00379997256 0.99999278 0 0
1.901008 0.176749 3.54128 0 0.00379997256 0.99999278 0 0
2.43392 0.176749 3.54128 0 0.00379997256 0.99999278 0 0
1.901021 0.180166 3.541267 0 0.00379997256 0.99999278 0 0
2.434717 0.180779 3.540483 0 0.787728638 0.616022396 0 0
1.901021 0.180166 3.541267 0 0.787728638 0.616022396 0 0
2.433933 0.180166 3.541267 0 0.787728638 0.616022396 0 0
1.901805 0.180779 3.540483 0 0.787728638 0.616022396 0 0
1.901805 0.180779 3.540483 0 1 0 0 0
1.903373 0.180779 3.538916 0 1 0 0 0
2.436285 0.181698 3.538916 0 0 1 0 0
1.903373 0.180779 3.538916 0 0 1 0 0
2.436285 0.180779 3.538916 0 0 1 0 0
1.903373 0.181698 3.538916 0 0 1 0 0
2.434978 0.18323 3.540222 0 -0.613324248 0.789831227 0 0
1.903373 0.181698 3.538916 0 -0.648779745 0.760976243 0 0
2.436285 0.181698 3.538916 0 -0.648779745 0.760976243 0 0
1.902066 0.18323 3.540222 0 -0.575681642 0.817673925 0 0
2.433411 0.185682 3.54179 0 -0.538698939 0.84249834 0 0
1.900499 0.185682 3.54179 0 -0.538698939 0.84249834 0 0
2.43315 0.188945 3.542051 0 0.0109004425 0.999940588 0 0
1.900499 0.185682 3.54179 0 -0.0798008666 0.996810825 0 0
2.433411 0.185682 3.54179 0 -0.0798008666 0.996810825 0 0
1.900238 0.188945 3.542051 0 0.0096995437 0.999952958 0 0
2.433488 0.192294 3.541713 0 0.100404711 0.994946679 0 0
1.900576 0.192294 3.541713 0 0.100404711 0.994946679 0 0
2.435113 0.195344 3.540088 0 0.470302742 0.882505145 0 0
1.900576 0.192294 3.541713 0 0.470302742 0.882505145 0 0
2.433488 0.192294 3.541713 0 0.470302742 0.882505145 0 0
1.902201 0.195344 3.540088 0 0.470302742 0.882505145 0 0
2.444282 0.032275 3.530919 0 0 -1 0 0
1.91137 0.195344 3.530919 0 0 -1 0 0
2.444282 0.195344 3.530919 0 0 -1 0 0
1.91137 0.032275 3.530919 0 0 -1 0 0
1.91137 0.195344 3.530919 0 1 0 0 0
1.902201 0.195344 3.540088 0 1 0 0 0
1.91137 0.195344 3.340431 0 1 0 0 0
1.902201 0.195344 3.340431 0 1 0 0 0
1.91137 0.032275 3.530919 1 0 0 0 0
1.91137 0.195344 3.340431 1 0 0 0 0
1.91137 0.195344 3.530919 1 0 0 0 0
1.91137 0.032275 3.340431 1 0 0 0 0
1.902201 0.195344 3.540088 -0.882505145 0.470302742 0 0 0
1.900576 0.192294 3.340431 -0.882505145 0.470302742 0 0 0
1.900576 0.192294 3.541713 -0.882505145 0.470302742 0 0 0
1.902201 0.195344 3.340431 -0.882505145 0.470302742 0 0 0
1.900576 0.192294 3.541713 -0.994936684 0.100503706 0 0 0
1.900238 0.188945 3.340431 -0.999945914 0.0104004775 0 0 0
1.900238 0.188945 3.542051 -0.999951983 0.00979952944 0 0 0
1.900576 0.192294 3.340431 -0.994936684 0.100503706 0 0 0
1.900499 0.185682 3.340431 -0.996810825 -0.0798008666 0 0 0
1.900499 0.185682 3.54179 -0.996810825 -0.0798008666 0 0 0
1.900499 0.185682 3.54179 -0.84249834 -0.538698939 0 0 0
1.902066 0.18323 3.340431 -0.803585536 -0.595189287 0 0 0
1.902066 0.18323 3.540222 -0.817673925 -0.575681642 0 0 0
1.900499 0.185682 3.340431 -0.84249834 -0.538698939 0 0 0
1.903373 0.181698 3.340431 -0.760976243 -0.648779745 0 0 0
1.903373 0.181698 3.538916 -0.760976243 -0.648779745 0 0 0
1.903373 0.181698 3.538916 -1 0 0 0 0
1.903373 0.180779 3.340431 -1 0 0 0 0
1.903373 0.180779 3.538916 -1 0 0 0 0
1.903373 0.181698 3.340431 -1 0 0 0 0
1.901805 0.180779 3.340431 0 1 0 0 0
1.903373 0.180779 3.340431 0 1 0 0 0
1.901805 0.180779 3.540483 -0.616022396 0.787728638 0 0 0
1.901021 0.180166 3.340431 -0.616022396 0.787728638 0 0 0
1.901021 0.180166 3.541267 -0.616022396 0.787728638 0 0 0
1.901805 0.180779 3.340431 -0.616022396 0.787728638 0 0 0
1.901021 0.180166 3.541267 -0.99999278 0.00379997256 0 0 0
1.901008 0.176749 3.340431 -0.99999278 0.00379997256 0 0 0
1.901008 0.176749 3.54128 -0.99999278 0.00379997256 0 0 0
1.901021 0.180166 3.340431 -0.99999278 0.00379997256 0 0 0
1.901008 0.176749 3.54128 -0.814192672 -0.580594775 0 0 0
1.901561 0.175974 3.340431 -0.814192672 -0.580594775 0 0 0
1.901561 0.175974 3.540728 -0.814192672 -0.580594775 0 0 0
1.901008 0.176749 3.340431 -0.814192672 -0.580594775 0 0 0
1.902369 0.175937 3.340431 -0.0463012756 -0.998927521 0 0 0
1.901561 0.175974 3.340431 -0.0463012756 -0.998927521 0 0 0
1.902369 0.175937 3.539919 -0.999925573 0.012200312 0 0 0
1.902354 0.174665 3.340431 -0.999687459 0.0249996864 0 0 0
1.902354 0.174665 3.539935 -0.999682441 0.0251995574 0 0 0
1.902369 0.175937 3.340431 -0.999925573 0.012200312 0 0 0
1.902093 0.167771 3.340431 -0.996320833 0.085701792 0 0 0
1.902093 0.167771 3.540196 -0.996093974 0.0882994658 0 0 0
1.900917 0.159038 3.340431 -0.972669784 0.232192787 0 0 0
1.900917 0.159038 3.541372 -0.969396796 0.245499189 0 0 0
1.898304 0.15153 3.340431 -0.941866277 0.33598797 0 0 0
1.898304 0.15153 3.543984 -0.941354388 0.337419495 0 0 0
1.894403 0.140855 3.340431 -0.951222026 0.308507144 0 0 0
1.894403 0.140855 3.547885 -0.953402646 0.301700837 0 0 0
1.893428 0.137424 3.340431 -0.961926694 0.273307584 0 0 0
1.893428 0.137424 3.54886 -0.961926694 0.273307584 0 0 0
1.893428 0.137424 3.54886 -1 0 0 0 0
1.893428 0.134374 3.340431 -1 0 0 0 0
1.893428 0.134374 3.54886 -1 0 0 0 0
1.893428 0.137424 3.340431 -1 0 0 0 0
1.893428 0.134374 3.54886 -0.815190348 -0.579193142 0 0 0
1.895054 0.132086 3.340431 -0.815190348 -0.579193142 0 0 0
1.895054 0.132086 3.547235 -0.815190348 -0.579193142 0 0 0
1.893428 0.134374 3.340431 -0.815190348 -0.579193142 0 0 0
1.895054 0.132086 3.547235 -1 0 0 0 0
1.895054 0.131324 3.340431 -1 0 0 0 0
1.895054 0.131324 3.547235 -1 0 0 0 0
1.895054 0.132086 3.340431 -1 0 0 0 0
1.893363 0.130486 3.548925 -1 0 0 0 0
1.893363 0.032275 3.340431 -1 0 0 0 0
1.893363 0.032275 3.548925 -1 0 0 0 0
1.893363 0.130486 3.340431 -1 0 0 0 0
1.893874 0.131267 3.340431 -0.0484013553 0.998827968 0 0 0
1.895054 0.131324 3.340431 -0.0484013553 0.998827968 0 0 0
1.893363 0.130486 3.548925 -0.836606526 0.547804273 0 0 0
1.893874 0.131267 3.340431 -0.836606526 0.547804273 0 0 0
1.893363 0.130486 3.340431 -0.836606526 0.547804273 0 0 0
1.893874 0.131267 3.548414 -0.836606526 0.547804273 0 0 0
1.893363 0.032275 3.340431 0 -1 0 0 0
1.91137 0.032275 3.340431 0 -1 0 0 0
1.902201 0.195344 2.375181 0 -1 0 0 0
1.91137 0.195344 2.204638 0 -1 0 0 0
1.91137 0.195344 2.375181 0 -1 0 0 0
1.902201 0.195344 2.195469 0 -1 0 0 0
1.91137 0.195344 2.375181 -1 0 0 0 0
1.91137 0.032275 2.204638 -1 0 0 0 0
1.91137 0.032275 2.375181 -1 0 0 0 0
1.91137 0.195344 2.204638 -1 0 0 0 0
1.902201 0.195344 2.375181 0.882505145 -0.470302742 0 0 0
1.900576 0.192294 2.193843 0.882505145 -0.470302742 0 0 0
1.902201 0.195344 2.195469 0.882505145 -0.470302742 0 0 0
1.900576 0.192294 2.375181 0.882505145 -0.470302742 0 0 0
1.900238 0.188945 2.375181 0.999945914 -0.0104004775 0 0 0
1.900576 0.192294 2.193843 0.994946679 -0.100404711 0 0 0
1.900576 0.192294 2.375181 0.994946679 -0.100404711 0 0 0
1.900238 0.188945 2.193505 0.999952958 -0.0096995437 0 0 0
1.900499 0.185682 2.193767 0.996810825 0.0798008666 0 0 0
1.900499 0.185682 2.375181 0.996810825 0.0798008666 0 0 0
1.902066 0.18323 2.375181 0.803585536 0.595189287 0 0 0
1.900499 0.185682 2.193767 0.842452955 0.538769913 0 0 0
1.900499 0.185682 2.375181 0.842452955 0.538769913 0 0 0
1.902066 0.18323 2.195334 0.817640781 0.575728715 0 0 0
1.903373 0.181698 2.19664 0.760976243 0.648779745 0 0 0
1.903373 0.181698 2.375181 0.760976243 0.648779745 0 0 0
1.903373 0.181698 2.375181 1 0 0 0 0
1.903373 0.180779 2.19664 1 0 0 0 0
1.903373 0.181698 2.19664 1 0 0 0 0
1.903373 0.180779 2.375181 1 0 0 0 0
1.903373 0.180779 2.375181 0 -1 0 0 0
1.901805 0.180779 2.195073 0 -1 0 0 0
1.903373 0.180779 2.19664 0 -1 0 0 0
1.901805 0.180779 2.375181 0 -1 0 0 0
1.901021 0.180166 2.375181 0.616022396 -0.787728638 0 0 0
1.901805 0.180779 2.195073 0.616022396 -0.787728638 0 0 0
1.901805 0.180779 2.375181 0.616022396 -0.787728638 0 0 0
1.901021 0.180166 2.194289 0.616022396 -0.787728638 0 0 0
1.901008 0.176749 2.375181 0.99999278 -0.00379997256 0 0 0
1.901021 0.180166 2.194289 0.99999278 -0.00379997256 0 0 0
1.901021 0.180166 2.375181 0.99999278 -0.00379997256 0 0 0
1.901008 0.176749 2.194276 0.99999278 -0.00379997256 0 0 0
1.901561 0.175974 2.375181 0.814192672 0.580594775 0 0 0
1.901008 0.176749 2.194276 0.814192672 0.580594775 0 0 0
1.901008 0.176749 2.375181 0.814192672 0.580594775 0 0 0
1.901561 0.175974 2.194829 0.814192672 0.580594775 0 0 0
1.901561 0.175974 2.375181 0.0463012756 0.998927521 0 0 0
1.902369 0.175937 2.195637 0.0230992208 0.999466284 0.0230992208 0 0
1.901561 0.175974 2.194829 0.0230992208 0.999466284 0.0230992208 0 0
1.902369 0.175937 2.375181 0.0463012756 0.998927521 0 0 0
1.902354 0.174665 2.375181 0.999687459 -0.0249996864 0 0 0
1.902369 0.175937 2.195637 0.999925573 -0.012200312 0 0 0
1.902369 0.175937 2.375181 0.999925573 -0.012200312 0 0 0
1.902354 0.174665 2.195621 0.999682441 -0.0251995574 0 0 0
1.902093 0.167771 2.195361 0.996093974 -0.0882994658 0 0 0
1.902093 0.167771 2.375181 0.996320833 -0.085701792 0 0 0
1.900917 0.159038 2.375181 0.972669784 -0.232192787 0 0 0
1.900917 0.159038 2.194185 0.969396796 -0.245499189 0 0 0
1.898304 0.15153 2.375181 0.941866277 -0.33598797 0 0 0
1.898304 0.15153 2.191572 0.94132262 -0.33750811 0 0 0
1.894403 0.140855 2.187671 0.953402646 -0.301700837 0 0 0
1.894403 0.140855 2.375181 0.951222026 -0.308507144 0 0 0
1.893428 0.137424 2.375181 0.961900399 -0.273400113 0 0 0
1.893428 0.137424 2.186696 0.961900399 -0.273400113 0 0 0
1.893428 0.134374 2.375181 1 0 0 0 0
1.893428 0.137424 2.186696 1 0 0 0 0
1.893428 0.137424 2.375181 1 0 0 0 0
1.893428 0.134374 2.186696 1 0 0 0 0
1.895054 0.132086 2.375181 0.815190348 0.579193142 0 0 0
1.893428 0.134374 2.186696 0.815190348 0.579193142 0 0 0
1.893428 0.134374 2.375181 0.815190348 0.579193142 0 0 0
1.895054 0.132086 2.188321 0.815190348 0.579193142 0 0 0
1.895054 0.132086 2.375181 1 0 0 0 0
1.895054 0.131324 2.188321 1 0 0 0 0
1.895054 0.132086 2.188321 1 0 0 0 0
1.895054 0.131324 2.375181 1 0 0 0 0
1.893363 0.032275 2.375181 1 0 0 0 0
1.893363 0.130486 2.186631 1 0 0 0 0
1.893363 0.130486 2.375181 1 0 0 0 0
1.893363 0.032275 2.186631 1 0 0 0 0
1.893874 0.131267 2.375181 0.0484013553 -0.998827968 0 0 0
1.895054 0.131324 2.188321 0.0242003432 -0.999414172 0.0242003432 0 0
1.895054 0.131324 2.375181 0.0484013553 -0.998827968 0 0 0
1.893874 0.131267 2.187142 0.0242003432 -0.999414172 0.0242003432 0 0
1.893874 0.131267 2.375181 0.836606526 -0.547804273 0 0 0
1.893363 0.130486 2.186631 0.836606526 -0.547804273 0 0 0
1.893874 0.131267 2.187142 0.836606526 -0.547804273 0 0 0
1.893363 0.130486 2.375181 0.836606526 -0.547804273 0 0 0
1.893363 0.032275 2.375181 0 1 0 0 0
1.91137 0.032275 2.204638 0 1 0 0 0
1.893363 0.032275 2.186631 0 1 0 0 0
1.91137 0.032275 2.375181 0 1 0 0 0
2.444292 0.032275 2.204638 0 1 0 0 0
2.426286 0.032275 2.186631 0 1 0 0 0
1.893874 0.131267 2.187142 0 -0.547804273 0.836606526 0 0
2.426286 0.130486 2.186631 0 -0.547804273 0.836606526 0 0
2.426796 0.131267 2.187142 0 -0.547804273 0.836606526 0 0
1.893363 0.130486 2.186631 0 -0.547804273 0.836606526 0 0
2.427976 0.131324 2.188321 0.0242003432 -0.999414172 0.0242003432 0 0
2.426796 0.131267 2.187142 0.0242003432 -0.999414172 0.0242003432 0 0
1.893363 0.032275 2.186631 0 0 1 0 0
2.426286 0.130486 2.186631 0 0 1 0 0
1.893363 0.130486 2.186631 0 0 1 0 0
2.426286 0.032275 2.186631 0 0 1 0 0
1.895054 0.132086 2.188321 0 0 1 0 0
2.427976 0.131324 2.188321 0 0 1 0 0
2.427976 0.132086 2.188321 0 0 1 0 0
1.895054 0.131324 2.188321 0 0 1 0 0
1.895054 0.132086 2.188321 0 0.579193142 0.815190348 0 0
2.426351 0.134374 2.186696 0 0.579193142 0.815190348 0 0
1.893428 0.134374 2.186696 0 0.579193142 0.815190348 0 0
2.427976 0.132086 2.188321 0 0.579193142 0.815190348 0 0
1.893428 0.134374 2.186696 0 0 1 0 0
2.426351 0.137424 2.186696 0 0 1 0 0
1.893428 0.137424 2.186696 0 0 1 0 0
2.426351 0.134374 2.186696 0 0 1 0 0
1.893428 0.137424 2.186696 0 -0.273400113 0.961900399 0 0
2.427326 0.140855 2.187671 0 -0.31499751 0.949092497 0 0
1.894403 0.140855 2.187671 0 -0.301700837 0.953402646 0 0
2.426351 0.137424 2.186696 0 -0.273400113 0.961900399 0 0
1.898304 0.15153 2.191572 0 -0.33750811 0.94132262 0 0
2.431226 0.15153 2.191572 0 -0.33449866 0.942396226 0 0
2.433839 0.159038 2.194185 0 -0.217301032 0.976104637 0 0
1.900917 0.159038 2.194185 0 -0.245499189 0.969396796 0 0
2.435015 0.167771 2.195361 0 -0.0830040984 0.996549206 0 0
1.902093 0.167771 2.195361 0 -0.0882002448 0.996102764 0 0
1.902354 0.174665 2.195621 0 -0.0252994917 0.999679917 0 0
2.435276 0.174665 2.195621 0 -0.0248997498 0.999689953 0 0
2.435292 0.175937 2.195637 0 -0.0124002866 0.999923113 0 0
1.902369 0.175937 2.195637 0 -0.0124002866 0.999923113 0 0
2.435292 0.175937 2.195637 0.0230992208 0.999466284 0.0230992208 0 0
2.434483 0.175974 2.194829 0.0230992208 0.999466284 0.0230992208 0 0
1.901561 0.175974 2.194829 0 0.580708333 0.814111683 0 0
2.43393 0.176749 2.194276 0 0.580708333 0.814111683 0 0
1.901008 0.176749 2.194276 0 0.580708333 0.814111683 0 0
2.434483 0.175974 2.194829 0 0.580708333 0.814111683 0 0
1.901008 0.176749 2.194276 0 -0.00389997034 0.999992395 0 0
2.433944 0.180166 2.194289 0 -0.00389997034 0.999992395 0 0
1.901021 0.180166 2.194289 0 -0.00389997034 0.999992395 0 0
2.43393 0.176749 2.194276 0 -0.00389997034 0.999992395 0 0
1.901021 0.180166 2.194289 0 -0.787815106 0.61591181 0 0
2.434727 0.180779 2.195073 0 -0.787815106 0.61591181 0 0
1.901805 0.180779 2.195073 0 -0.787815106 0.61591181 0 0
2.433944 0.180166 2.194289 0 -0.787815106 0.61591181 0 0
2.434727 0.180779 2.195073 0 -1 0 0 0
2.436295 0.180779 2.19664 0 -1 0 0 0
1.903373 0.181698 2.19664 0 0 1 0 0
2.436295 0.180779 2.19664 0 0 1 0 0
2.436295 0.181698 2.19664 0 0 1 0 0
1.903373 0.180779 2.19664 0 0 1 0 0
1.902066 0.18323 2.195334 0 0.575728715 0.817640781 0 0
2.436295 0.181698 2.19664 0 0.648721833 0.761025613 0 0
2.434989 0.18323 2.195334 0 0.613275807 0.78986884 0 0
1.903373 0.181698 2.19664 0 0.648721833 0.761025613 0 0
2.433421 0.185682 2.193767 0 0.538815303 0.842423925 0 0
1.900499 0.185682 2.193767 0 0.538815303 0.842423925 0 0
1.900238 0.188945 2.193505 0 -0.0096995437 0.999952958 0 0
2.433421 0.185682 2.193767 0 0.0798008666 0.996810825 0 0
2.43316 0.188945 2.193505 0 -0.0109004425 0.999940588 0 0
1.900499 0.185682 2.193767 0 0.0798008666 0.996810825 0 0
2.433498 0.192294 2.193843 0 -0.100404711 0.994946679 0 0
1.900576 0.192294 2.193843 0 -0.100404711 0.994946679 0 0
1.902201 0.195344 2.195469 0 -0.470302742 0.882505145 0 0
2.433498 0.192294 2.193843 0 -0.470302742 0.882505145 0 0
2.435123 0.195344 2.195469 0 -0.470302742 0.882505145 0 0
1.900576 0.192294 2.193843 0 -0.470302742 0.882505145 0 0
1.91137 0.195344 2.204638 0 0 -1 0 0
2.444292 0.032275 2.204638 0 0 -1 0 0
1.91137 0.032275 2.204638 0 0 -1 0 0
2.444292 0.195344 2.204638 0 0 -1 0 0
2.444292 0.195344 2.204638 0 -1 0 0 0
2.435123 0.195344 2.195469 0 -1 0 0 0
2.444292 0.195344 1.298681 0 -1 0 0 0
2.435123 0.195344 1.307851 0 -1 0 0 0
2.444292 0.195344 2.204638 -1 0 0 0 0
2.444292 0.032275 1.298681 -1 0 0 0 0
2.444292 0.032275 2.204638 -1 0 0 0 0
2.444292 0.195344 1.298681 -1 0 0 0 0
2.435123 0.195344 2.195469 0.882505145 -0.470302742 0 0 0
2.433498 0.192294 1.309476 0.882505145 -0.470302742 0 0 0
2.435123 0.195344 1.307851 0.882505145 -0.470302742 0 0 0
2.433498 0.192294 2.193843 0.882505145 -0.470302742 0 0 0
2.43316 0.188945 2.193505 0.999940588 -0.0109004425 0 0 0
2.433498 0.192294 1.309476 0.994946679 -0.100404711 0 0 0
2.433498 0.192294 2.193843 0.994946679 -0.100404711 0 0 0
2.43316 0.188945 1.309814 0.999940588 -0.0109004425 0 0 0
2.433421 0.185682 1.309553 0.996818775 0.0797015012 0 0 0
2.433421 0.185682 2.193767 0.996818775 0.0797015012 0 0 0
2.434989 0.18323 2.195334 0.789831227 0.613324248 0 0 0
2.433421 0.185682 1.309553 0.842423925 0.538815303 0 0 0
2.433421 0.185682 2.193767 0.842423925 0.538815303 0 0 0
2.434989 0.18323 1.307985 0.789831227 0.613324248 0 0 0
2.436295 0.181698 1.306679 0.760976243 0.648779745 0 0 0
2.436295 0.181698 2.19664 0.760976243 0.648779745 0 0 0
2.436295 0.181698 2.19664 1 0 0 0 0
2.436295 0.180779 1.306679 1 0 0 0 0
2.436295 0.181698 1.306679 1 0 0 0 0
2.436295 0.180779 2.19664 1 0 0 0 0
2.434727 0.180779 1.308246 0 -1 0 0 0
2.436295 0.180779 1.306679 0 -1 0 0 0
2.433944 0.180166 2.194289 0.616022396 -0.787728638 0 0 0
2.434727 0.180779 1.308246 0.616022396 -0.787728638 0 0 0
2.434727 0.180779 2.195073 0.616022396 -0.787728638 0 0 0
2.433944 0.180166 1.30903 0.616022396 -0.787728638 0 0 0
2.43393 0.176749 2.194276 0.999992395 -0.00389997034 0 0 0
2.433944 0.180166 1.30903 0.999992395 -0.00389997034 0 0 0
2.433944 0.180166 2.194289 0.999992395 -0.00389997034 0 0 0
2.433931 0.176749 1.309043 0.999992395 -0.00389997034 0 0 0
2.434483 0.175974 2.194829 0.814064406 0.580774606 0 0 0
2.433931 0.176749 1.309043 0.814064406 0.580774606 0 0 0
2.43393 0.176749 2.194276 0.814064406 0.580774606 0 0 0
2.434483 0.175974 1.308491 0.814064406 0.580774606 0 0 0
2.435292 0.175937 1.307682 0.0230992208 0.999466284 -0.0230992208 0 0
2.434483 0.175974 1.308491 0.0230992208 0.999466284 -0.0230992208 0 0
2.435276 0.174665 2.195621 0.999689953 -0.0248997498 0 0 0
2.435292 0.175937 1.307682 0.999923113 -0.0124002866 0 0 0
2.435292 0.175937 2.195637 0.999923113 -0.0124002866 0 0 0
2.435276 0.174665 1.307698 0.999689953 -0.0248997498 0 0 0
2.435015 0.167771 1.307959 0.996540929 -0.0831034131 0 0 0
2.435015 0.167771 2.195361 0.996540929 -0.0831034131 0 0 0
2.433839 0.159038 2.194185 0.976104637 -0.217301032 0 0 0
2.433839 0.159038 1.309135 0.976104637 -0.217301032 0 0 0
2.431226 0.15153 2.191572 0.942396226 -0.33449866 0 0 0
2.431226 0.15153 1.311747 0.942396226 -0.33449866 0 0 0
2.427326 0.140855 1.315648 0.949092497 -0.31499751 0 0 0
2.427326 0.140855 2.187671 0.949092497 -0.31499751 0 0 0
2.426351 0.137424 2.186696 0.961926694 -0.273307584 0 0 0
2.426351 0.137424 1.316623 0.961926694 -0.273307584 0 0 0
2.426351 0.134374 2.186696 1 0 0 0 0
2.426351 0.137424 1.316623 1 0 0 0 0
2.426351 0.137424 2.186696 1 0 0 0 0
2.426351 0.134374 1.316623 1 0 0 0 0
2.427976 0.132086 2.188321 0.815190348 0.579193142 0 0 0
2.426351 0.134374 1.316623 0.815190348 0.579193142 0 0 0
2.426351 0.134374 2.186696 0.815190348 0.579193142 0 0 0
2.427976 0.132086 1.314998 0.815190348 0.579193142 0 0 0
2.427976 0.132086 2.188321 1 0 0 0 0
2.427976 0.131324 1.314998 1 0 0 0 0
2.427976 0.132086 1.314998 1 0 0 0 0
2.427976 0.131324 2.188321 1 0 0 0 0
2.426286 0.032275 2.186631 1 0 0 0 0
2.426286 0.130486 1.316688 1 0 0 0 0
2.426286 0.130486 2.186631 1 0 0 0 0
2.426286 0.032275 1.316688 1 0 0 0 0
2.427976 0.131324 1.314998 0.0242003432 -0.999414172 -0.0242003432 0 0
2.426796 0.131267 1.316177 0.0242003432 -0.999414172 -0.0242003432 0 0
2.426796 0.131267 2.187142 0.836803979 -0.547502603 0 0 0
2.426286 0.130486 1.316688 0.836803979 -0.547502603 0 0 0
2.426796 0.131267 1.316177 0.836803979 -0.547502603 0 0 0
2.426286 0.130486 2.186631 0.836803979 -0.547502603 0 0 0
2.444292 0.032275 1.298681 0 1 0 0 0
2.426286 0.032275 1.316688 0 1 0 0 0
1.440095 0.032275 1.298681 0 1 0 0 0
1.422088 0.032275 1.316688 0 1 0 0 0
2.426796 0.131267 1.316177 0 -0.547618441 -0.836728177 0 0
1.422088 0.130486 1.316688 0 -0.547618441 -0.836728177 0 0
1.422599 0.131267 1.316177 0 -0.547618441 -0.836728177 0 0
2.426286 0.130486 1.316688 0 -0.547618441 -0.836728177 0 0
1.423779 0.131324 1.314998 0.0242003432 -0.999414172 -0.0242003432 0 0
1.422599 0.131267 1.316177 0.0242003432 -0.999414172 -0.0242003432 0 0
2.426286 0.032275 1.316688 0 0 -1 0 0
1.422088 0.130486 1.316688 0 0 -1 0 0
2.426286 0.130486 1.316688 0 0 -1 0 0
1.422088 0.032275 1.316688 0 0 -1 0 0
2.427976 0.132086 1.314998 0 0 -1 0 0
1.423779 0.131324 1.314998 0 0 -1 0 0
1.423779 0.132086 1.314998 0 0 -1 0 0
2.427976 0.131324 1.314998 0 0 -1 0 0
2.427976 0.132086 1.314998 0 0.579193142 -0.815190348 0 0
1.422153 0.134374 1.316623 0 0.579193142 -0.815190348 0 0
2.426351 0.134374 1.316623 0 0.579193142 -0.815190348 0 0
1.423779 0.132086 1.314998 0 0.579193142 -0.815190348 0 0
2.426351 0.134374 1.316623 0 0 -1 0 0
1.422153 0.137424 1.316623 0 0 -1 0 0
2.426351 0.137424 1.316623 0 0 -1 0 0
1.422153 0.134374 1.316623 0 0 -1 0 0
2.426351 0.137424 1.316623 0 -0.273400113 -0.961900399 0 0
1.423128 0.140855 1.315648 0 -0.301700837 -0.953402646 0 0
2.427326 0.140855 1.315648 0 -0.31499751 -0.949092497 0 0
1.422153 0.137424 1.316623 0 -0.273400113 -0.961900399 0 0
2.431226 0.15153 1.311747 0 -0.334409845 -0.942427745 0 0
1.427029 0.15153 1.311747 0 -0.337419495 -0.941354388 0 0
1.429642 0.159038 1.309135 0 -0.245499189 -0.969396796 0 0
2.433839 0.159038 1.309135 0 -0.217205751 -0.976125843 0 0
1.430817 0.167771 1.307959 0 -0.0882994658 -0.996093974 0 0
2.435015 0.167771 1.307959 0 -0.0831034131 -0.996540929 0 0
2.435276 0.174665 1.307698 0 -0.0247998124 -0.999692437 0 0
1.431079 0.174665 1.307698 0 -0.0252994917 -0.999679917 0 0
1.431094 0.175937 1.307682 0 -0.012200312 -0.999925573 0 0
2.435292 0.175937 1.307682 0 -0.012200312 -0.999925573 0 0
1.431094 0.175937 1.307682 0.0230992208 0.999466284 -0.0230992208 0 0
1.430285 0.175974 1.308491 0.0230992208 0.999466284 -0.0230992208 0 0
2.434483 0.175974 1.308491 0 0.580708333 -0.814111683 0 0
1.429733 0.176749 1.309043 0 0.580708333 -0.814111683 0 0
2.433931 0.176749 1.309043 0 0.580708333 -0.814111683 0 0
1.430285 0.175974 1.308491 0 0.580708333 -0.814111683 0 0
2.433931 0.176749 1.309043 0 -0.00389997034 -0.999992395 0 0
1.429746 0.180166 1.30903 0 -0.00389997034 -0.999992395 0 0
2.433944 0.180166 1.30903 0 -0.00389997034 -0.999992395 0 0
1.429733 0.176749 1.309043 0 -0.00389997034 -0.999992395 0 0
2.433944 0.180166 1.30903 0 -0.787728638 -0.616022396 0 0
1.43053 0.180779 1.308246 0 -0.787728638 -0.616022396 0 0
2.434727 0.180779 1.308246 0 -0.787728638 -0.616022396 0 0
1.429746 0.180166 1.30903 0 -0.787728638 -0.616022396 0 0
1.43053 0.180779 1.308246 0 -1 0 0 0
1.432098 0.180779 1.306679 0 -1 0 0 0
2.436295 0.181698 1.306679 0 0 -1 0 0
1.432098 0.180779 1.306679 0 0 -1 0 0
1.432098 0.181698 1.306679 0 0 -1 0 0
2.436295 0.180779 1.306679 0 0 -1 0 0
2.434989 0.18323 1.307985 0 0.613324248 -0.789831227 0 0
1.432098 0.181698 1.306679 0 0.648779745 -0.760976243 0 0
1.430791 0.18323 1.307985 0 0.575681642 -0.817673925 0 0
2.436295 0.181698 1.306679 0 0.648779745 -0.760976243 0 0
1.429224 0.185682 1.309553 0 0.538698939 -0.84249834 0 0
2.433421 0.185682 1.309553 0 0.538698939 -0.84249834 0 0
2.43316 0.188945 1.309814 0 -0.0109004425 -0.999940588 0 0
1.429224 0.185682 1.309553 0 0.0798008666 -0.996810825 0 0
1.428962 0.188945 1.309814 0 -0.0096995437 -0.999952958 0 0
2.433421 0.185682 1.309553 0 0.0798008666 -0.996810825 0 0
1.4293 0.192294 1.309476 0 -0.100404711 -0.994946679 0 0
2.433498 0.192294 1.309476 0 -0.100404711 -0.994946679 0 0
2.435123 0.195344 1.307851 0 -0.470302742 -0.882505145 0 0
1.4293 0.192294 1.309476 0 -0.470302742 -0.882505145 0 0
1.430926 0.195344 1.307851 0 -0.470302742 -0.882505145 0 0
2.433498 0.192294 1.309476 0 -0.470302742 -0.882505145 0 0
2.444292 0.195344 1.298681 0 0 1 0 0
1.440095 0.032275 1.298681 0 0 1 0 0
2.444292 0.032275 1.298681 0 0 1 0 0
1.440095 0.195344 1.298681 0 0 1 0 0
1.440095 0.195344 1.298681 0 -1 0 0 0
1.430926 0.195344 1.307851 0 -1 0 0 0
1.440095 0.195344 1.049554 0 -1 0 0 0
1.430926 0.195344 1.058722 0 -1 0 0 0
1.440095 0.195344 1.298681 -1 0 0 0 0
1.440095 0.032275 1.049554 -1 0 0 0 0
1.440095 0.032275 1.298681 -1 0 0 0 0
1.440095 0.195344 1.049554 -1 0 0 0 0
1.430926 0.195344 1.307851 0.882505145 -0.470302742 0 0 0
1.4293 0.192294 1.060348 0.882505145 -0.470302742 0 0 0
1.430926 0.195344 1.058722 0.882505145 -0.470302742 0 0 0
1.4293 0.192294 1.309476 0.882505145 -0.470302742 0 0 0
1.428962 0.188945 1.309814 0.999952958 -0.0096995437 0 0 0
1.4293 0.192294 1.060348 0.994936684 -0.100503706 0 0 0
1.4293 0.192294 1.309476 0.994936684 -0.100503706 0 0 0
1.428962 0.188945 1.060686 0.999940588 -0.0109004425 0 0 0
1.429224 0.185682 1.060425 0.996810825 0.0798008666 0 0 0
1.429224 0.185682 1.309553 0.996810825 0.0798008666 0 0 0
1.430791 0.18323 1.307985 0.817640781 0.575728715 0 0 0
1.429224 0.185682 1.060425 0.84249834 0.538698939 0 0 0
1.429224 0.185682 1.309553 0.84249834 0.538698939 0 0 0
1.430791 0.18323 1.058857 0.789831227 0.613324248 0 0 0
1.432098 0.181698 1.057551 0.760976243 0.648779745 0 0 0
1.432098 0.181698 1.306679 0.760976243 0.648779745 0 0 0
1.432098 0.181698 1.306679 1 0 0 0 0
1.432098 0.180779 1.057551 1 0 0 0 0
1.432098 0.181698 1.057551 1 0 0 0 0
1.432098 0.180779 1.306679 1 0 0 0 0
1.43053 0.180779 1.059118 0 -1 0 0 0
1.432098 0.180779 1.057551 0 -1 0 0 0
1.429746 0.180166 1.30903 0.616022396 -0.787728638 0 0 0
1.43053 0.180779 1.059118 0.616022396 -0.787728638 0 0 0
1.43053 0.180779 1.308246 0.616022396 -0.787728638 0 0 0
1.429746 0.180166 1.059902 0.616022396 -0.787728638 0 0 0
1.429733 0.176749 1.309043 0.99999278 -0.00379997256 0 0 0
1.429746 0.180166 1.059902 0.99999278 -0.00379997256 0 0 0
1.429746 0.180166 1.30903 0.99999278 -0.00379997256 0 0 0
1.429733 0.176749 1.059915 0.99999278 -0.00379997256 0 0 0
1.430285 0.175974 1.308491 0.814273642 0.58048121 0 0 0
1.429733 0.176749 1.059915 0.814273642 0.58048121 0 0 0
1.429733 0.176749 1.309043 0.814273642 0.58048121 0 0 0
1.430285 0.175974 1.059363 0.814273642 0.58048121 0 0 0
1.431094 0.175937 1.058554 0.0462014866 0.998932141 0 0 0
1.430285 0.175974 1.059363 0.0462014866 0.998932141 0 0 0
1.431079 0.174665 1.307698 0.999679917 -0.0252994917 0 0 0
1.431094 0.175937 1.058554 0.999924348 -0.0123002995 0 0 0
1.431094 0.175937 1.307682 0.999924348 -0.0123002995 0 0 0
1.431079 0.174665 1.058569 0.999689953 -0.0248997498 0 0 0
1.430817 0.167771 1.058831 0.996540929 -0.0831034131 0 0 0
1.430817 0.167771 1.307959 0.996093974 -0.0882994658 0 0 0
1.429642 0.159038 1.309135 0.969396796 -0.245499189 0 0 0
1.429642 0.159038 1.060007 0.976104637 -0.217301032 0 0 0
1.427029 0.15153 1.311747 0.941354388 -0.337419495 0 0 0
1.427029 0.15153 1.062619 0.942427745 -0.334409845 0 0 0
1.423128 0.140855 1.06652 0.949092497 -0.31499751 0 0 0
1.423128 0.140855 1.315648 0.953402646 -0.301700837 0 0 0
1.422153 0.137424 1.316623 0.961900399 -0.273400113 0 0 0
1.422153 0.137424 1.067495 0.961900399 -0.273400113 0 0 0
1.422153 0.134374 1.316623 1 0 0 0 0
1.422153 0.137424 1.067495 1 0 0 0 0
1.422153 0.137424 1.316623 1 0 0 0 0
1.422153 0.134374 1.067495 1 0 0 0 0
1.423779 0.132086 1.314998 0.815109578 0.579306807 0 0 0
1.422153 0.134374 1.067495 0.815109578 0.579306807 0 0 0
1.422153 0.134374 1.316623 0.815109578 0.579306807 0 0 0
1.423779 0.132086 1.06587 0.815109578 0.579306807 0 0 0
1.423779 0.132086 1.314998 1 0 0 0 0
1.423779 0.131324 1.06587 1 0 0 0 0
1.423779 0.132086 1.06587 1 0 0 0 0
1.423779 0.131324 1.314998 1 0 0 0 0
1.422088 0.032275 1.316688 1 0 0 0 0
1.422088 0.130486 1.06756 1 0 0 0 0
1.422088 0.130486 1.316688 1 0 0 0 0
1.422088 0.032275 1.06756 1 0 0 0 0
1.423779 0.131324 1.06587 0.0484013553 -0.998827968 0 0 0
1.422599 0.131267 1.067049 0.0484013553 -0.998827968 0 0 0
1.422599 0.131267 1.316177 0.836606526 -0.547804273 0 0 0
1.422088 0.130486 1.06756 0.836606526 -0.547804273 0 0 0
1.422599 0.131267 1.067049 0.836606526 -0.547804273 0 0 0
1.422088 0.130486 1.316688 0.836606526 -0.547804273 0 0 0
1.440095 0.032275 1.049554 0 1 0 0 0
1.422088 0.032275 1.06756 0 1 0 0 0
-1.853366 0.195344 1.058833 0 1 0 0 0
-1.8607 0.195344 1.298709 0 1 0 0 0
-1.853367 0.195344 1.306042 0 1 0 0 0
-1.8607 0.195344 1.049664 0 1 0 0 0
-1.8607 0.195344 1.049664 -1 0 0 0 0
-1.8607 0.032275 1.298708 -1 0 0 0 0
-1.8607 0.195344 1.298709 -1 0 0 0 0
-1.8607 0.032275 1.049664 -1 0 0 0 0
-1.853366 0.195344 1.058833 0.919919125 0.392108152 0 0 0
-1.852067 0.192294 1.307342 0.919919125 0.392108152 0 0 0
-1.852067 0.192294 1.060458 0.919919125 0.392108152 0 0 0
-1.853367 0.195344 1.306042 0.919919125 0.392108152 0 0 0
-1.851796 0.188945 1.060796 0.999961282 0.00879965928 0 0 0
-1.852067 0.192294 1.307342 0.996746875 0.0805957044 0 0 0
-1.851796 0.188945 1.307612 0.999968002 0.00799974401 0 0 0
-1.852067 0.192294 1.060458 0.996746875 0.0805957044 0 0 0
-1.852005 0.185682 1.307403 0.997956485 -0.0638972138 0 0 0
-1.852005 0.185682 1.060535 0.997956485 -0.0638972138 0 0 0
-1.853259 0.18323 1.058968 0.848497925 -0.529198706 0 0 0
-1.852005 0.185682 1.307403 0.89028965 -0.455394706 0 0 0
-1.85326 0.18323 1.306149 0.869624415 -0.493713861 0 0 0
-1.852005 0.185682 1.060535 0.89028965 -0.455394706 0 0 0
-1.854304 0.181698 1.305104 0.82618926 -0.563392676 0 0 0
-1.854304 0.181698 1.057661 0.82618926 -0.563392676 0 0 0
-1.854304 0.181698 1.057661 1 0 0 0 0
-1.854304 0.180779 1.305104 1 0 0 0 0
-1.854304 0.180779 1.057661 1 0 0 0 0
-1.854304 0.181698 1.305104 1 0 0 0 0
-1.854304 0.180779 1.057661 0 1 0 0 0
-1.85305 0.180779 1.306359 0 1 0 0 0
-1.85305 0.180779 1.059229 0 1 0 0 0
-1.854304 0.180779 1.305104 0 1 0 0 0
-1.852424 0.180166 1.060013 0.69941523 0.714715563 0 0 0
-1.85305 0.180779 1.306359 0.69941523 0.714715563 0 0 0
-1.852424 0.180166 1.306985 0.69941523 0.714715563 0 0 0
-1.85305 0.180779 1.059229 0.69941523 0.714715563 0 0 0
-1.852413 0.176749 1.060025 0.999994555 0.00329998203 0 0 0
-1.852424 0.180166 1.306985 0.999994555 0.00329998203 0 0 0
-1.852413 0.176749 1.306996 0.999994555 0.00329998203 0 0 0
-1.852424 0.180166 1.060013 0.999994555 0.00329998203 0 0 0
-1.852854 0.175974 1.059473 0.868716601 -0.495309465 0 0 0
-1.852413 0.176749 1.306996 0.868716601 -0.495309465 0 0 0
-1.852855 0.175974 1.306554 0.868716601 -0.495309465 0 0 0
-1.852413 0.176749 1.060025 0.868716601 -0.495309465 0 0 0
-1.852854 0.175974 1.059473 0.0578016263 -0.998328088 0 0 0
-1.853501 0.175937 1.305907 0.0288989732 -0.9991645 0.0288989732 0 0
-1.853501 0.175937 1.058665 0.0578016263 -0.998328088 0 0 0
-1.852855 0.175974 1.306554 0.0288989732 -0.9991645 0.0288989732 0 0
-1.853489 0.174665 1.05868 0.999807899 0.0196001548 0 0 0
-1.853501 0.175937 1.305907 0.999958598 0.00909962324 0 0 0
-1.853489 0.174665 1.305919 0.999801975 0.0199000393 0 0 0
-1.853501 0.175937 1.058665 0.999958598 0.00909962324 0 0 0
-1.853281 0.167771 1.306128 0.997525766 0.0703018159 0 0 0
-1.85328 0.167771 1.058941 0.997779845 0.0665986547 0 0 0
-1.85234 0.159038 1.060117 0.984442406 0.175707569 0 0 0
-1.852341 0.159038 1.307068 0.980364708 0.197192901 0 0 0
-1.85025 0.15153 1.062729 0.96198672 0.27309623 0 0 0
-1.850251 0.15153 1.309158 0.96132747 0.27540787 0 0 0
-1.84713 0.140855 1.312279 0.969140191 0.246510223 0 0 0
-1.84713 0.140855 1.06663 0.966466904 0.256791206 0 0 0
-1.84635 0.137424 1.067605 0.99273704 0.120304489 0 0 0
-1.846351 0.137424 1.313058 0.994661045 0.103195958 0 0 0
-1.84635 0.134374 1.067605 1 0 0 0 0
-1.846351 0.134374 1.313058 1 0 0 0 0
-1.84765 0.132086 1.06598 0.869403839 -0.494102181 0 0 0
-1.846351 0.134374 1.313058 0.869403839 -0.494102181 0 0 0
-1.847651 0.132086 1.311759 0.869403839 -0.494102181 0 0 0
-1.84635 0.134374 1.067605 0.869403839 -0.494102181 0 0 0
-1.84765 0.132086 1.06598 1 0 0 0 0
-1.847651 0.131324 1.311759 1 0 0 0 0
-1.84765 0.131324 1.06598 1 0 0 0 0
-1.847651 0.132086 1.311759 1 0 0 0 0
-1.846298 0.032275 1.067671 1 0 0 0 0
-1.846299 0.130486 1.31311 1 0 0 0 0
-1.846299 0.032275 1.31311 1 0 0 0 0
-1.846298 0.130486 1.067671 1 0 0 0 0
-1.846707 0.131267 1.06716 0.0605977094 0.99816227 0 0 0
-1.847651 0.131324 1.311759 0.0302994396 0.999081522 0.0302994396 0 0
-1.846708 0.131267 1.312701 0.0302994396 0.999081522 0.0302994396 0 0
-1.84765 0.131324 1.06598 0.0605977094 0.99816227 0 0 0
-1.846707 0.131267 1.06716 0.885620051 0.464410514 0 0 0
-1.846299 0.130486 1.31311 0.885620051 0.464410514 0 0 0
-1.846298 0.130486 1.067671 0.885620051 0.464410514 0 0 0
-1.846708 0.131267 1.312701 0.885620051 0.464410514 0 0 0
-1.846298 0.032275 1.067671 0 -1 0 0 0
-1.8607 0.032275 1.298708 0 -1 0 0 0
-1.8607 0.032275 1.049664 0 -1 0 0 0
-1.846299 0.032275 1.31311 0 -1 0 0 0
-3.010376 0.032275 1.298708 0 -1 0 0 0
-2.995974 0.032275 1.31311 0 -1 0 0 0
-1.846708 0.131267 1.312701 0 0.464410514 0.885620051 0 0
-2.995974 0.130486 1.31311 0 0.464410514 0.885620051 0 0
-1.846299 0.130486 1.31311 0 0.464410514 0.885620051 0 0
-2.996383 0.131267 1.312701 0 0.464410514 0.885620051 0 0
-2.997326 0.131324 1.311759 0.0302994396 0.999081522 0.0302994396 0 0
-2.996383 0.131267 1.312701 0.0302994396 0.999081522 0.0302994396 0 0
-1.846299 0.032275 1.31311 0 0 1 0 0
-2.995974 0.130486 1.31311 0 0 1 0 0
-2.995974 0.032275 1.31311 0 0 1 0 0
-1.846299 0.130486 1.31311 0 0 1 0 0
-1.847651 0.132086 1.311759 0 0 1 0 0
-2.997326 0.131324 1.311759 0 0 1 0 0
-1.847651 0.131324 1.311759 0 0 1 0 0
-2.997326 0.132086 1.311759 0 0 1 0 0
-1.847651 0.132086 1.311759 0 -0.493908036 0.869514147 0 0
-2.996027 0.134374 1.313058 0 -0.493908036 0.869514147 0 0
-2.997326 0.132086 1.311759 0 -0.493908036 0.869514147 0 0
-1.846351 0.134374 1.313058 0 -0.493908036 0.869514147 0 0
-1.846351 0.134374 1.313058 0 0 1 0 0
-2.996027 0.137424 1.313058 0 0.11860496 0.992941521 0 0
-2.996027 0.134374 1.313058 0 0 1 0 0
-1.846351 0.137424 1.313058 0 0.103097026 0.994671304 0 0
-2.996806 0.140855 1.312279 0 0.255689168 0.966759044 0 0
-1.84713 0.140855 1.312279 0 0.246392411 0.96917015 0 0
-1.850251 0.15153 1.309158 0 0.27540787 0.96132747 0 0
-2.999926 0.15153 1.309158 0 0.273307584 0.961926694 0 0
-3.002016 0.159038 1.307068 0 0.178198999 0.98399447 0 0
-1.852341 0.159038 1.307068 0 0.197289006 0.980345372 0 0
-3.002956 0.167771 1.306128 0 0.0669968566 0.997753187 0 0
-1.853281 0.167771 1.306128 0 0.0703018159 0.997525766 0 0
-1.853489 0.174665 1.305919 0 0.0199999996 0.99979998 0 0
-3.003165 0.174665 1.305919 0 0.0197001169 0.999805934 0 0
-3.003177 0.175937 1.305907 0 0.00939958474 0.999955823 0 0
-1.853501 0.175937 1.305907 0 0.00939958474 0.999955823 0 0
-3.003177 0.175937 1.305907 0.0288989732 -0.9991645 0.0288989732 0 0
-3.002531 0.175974 1.306554 0.0288989732 -0.9991645 0.0288989732 0 0
-1.852855 0.175974 1.306554 0 -0.495115485 0.868827173 0 0
-3.002089 0.176749 1.306996 0 -0.495115485 0.868827173 0 0
-3.002531 0.175974 1.306554 0 -0.495115485 0.868827173 0 0
-1.852413 0.176749 1.306996 0 -0.495115485 0.868827173 0 0
-1.852413 0.176749 1.306996 0 0.00319998362 0.99999488 0 0
-3.0021 0.180166 1.306985 0 0.00319998362 0.99999488 0 0
-3.002089 0.176749 1.306996 0 0.00319998362 0.99999488 0 0
-1.852424 0.180166 1.306985 0 0.00319998362 0.99999488 0 0
-1.852424 0.180166 1.306985 0 0.714764477 0.699365242 0 0
-3.002726 0.180779 1.306359 0 0.714764477 0.699365242 0 0
-3.0021 0.180166 1.306985 0 0.714764477 0.699365242 0 0
-1.85305 0.180779 1.306359 0 0.714764477 0.699365242 0 0
-3.002726 0.180779 1.306359 0 1 0 0 0
-3.00398 0.180779 1.305104 0 1 0 0 0
-1.854304 0.181698 1.305104 0 0 1 0 0
-3.00398 0.180779 1.305104 0 0 1 0 0
-1.854304 0.180779 1.305104 0 0 1 0 0
-3.00398 0.181698 1.305104 0 0 1 0 0
-1.85326 0.18323 1.306149 0 -0.493595299 0.869691716 0 0
-3.00398 0.181698 1.305104 0 -0.563507478 0.826110963 0 0
-1.854304 0.181698 1.305104 0 -0.563507478 0.826110963 0 0
-3.002935 0.18323 1.306149 0 -0.526110162 0.850416426 0 0
-3.001681 0.185682 1.307403 0 -0.45531544 0.890330192 0 0
-1.852005 0.185682 1.307403 0 -0.45531544 0.890330192 0 0
-1.851796 0.188945 1.307612 0 0.00789975349 0.999968796 0 0
-3.001681 0.185682 1.307403 0 -0.0638972138 0.997956485 0 0
-1.852005 0.185682 1.307403 0 -0.0638972138 0.997956485 0 0
-3.001472 0.188945 1.307612 0 0.00869967077 0.999962157 0 0
-3.001743 0.192294 1.307342 0 0.080496358 0.996754903 0 0
-1.852067 0.192294 1.307342 0 0.080496358 0.996754903 0 0
-1.853367 0.195344 1.306042 0 0.39190282 0.920006619 0 0
-3.001743 0.192294 1.307342 0 0.39190282 0.920006619 0 0
-1.852067 0.192294 1.307342 0 0.39190282 0.920006619 0 0
-3.003043 0.195344 1.306042 0 0.39190282 0.920006619 0 0
-1.8607 0.195344 1.298709 0 0 -1 0 0
-3.010376 0.032275 1.298708 0 0 -1 0 0
-3.010376 0.195344 1.298709 0 0 -1 0 0
-1.8607 0.032275 1.298708 0 0 -1 0 0
-3.010376 0.195344 1.298709 0 1 0 0 0
-3.003043 0.195344 1.306042 0 1 0 0 0
-3.010376 0.195344 5.362571 0 1 0 0 0
-3.003043 0.195344 5.362571 0 1 0 0 0
-3.010376 0.195344 1.298709 -1 0 0 0 0
-3.010376 0.032275 5.362571 -1 0 0 0 0
-3.010376 0.195344 5.362571 -1 0 0 0 0
-3.010376 0.032275 1.298708 -1 0 0 0 0
-3.003043 0.195344 1.306042 0.919919125 0.392108152 0 0 0
-3.001743 0.192294 5.362571 0.919919125 0.392108152 0 0 0
-3.001743 0.192294 1.307342 0.919919125 0.392108152 0 0 0
-3.003043 0.195344 5.362571 0.919919125 0.392108152 0 0 0
-3.001472 0.188945 1.307612 0.999962157 0.00869967077 0 0 0
-3.001743 0.192294 5.362571 0.996754903 0.080496358 0 0 0
-3.001472 0.188945 5.362571 0.999964722 0.00839970366 0 0 0
-3.001743 0.192294 1.307342 0.996754903 0.080496358 0 0 0
-3.001681 0.185682 5.362571 0.997962857 -0.0637976255 0 0 0
-3.001681 0.185682 1.307403 0.997962857 -0.0637976255 0 0 0
-3.002935 0.18323 1.306149 0.850416426 -0.526110162 0 0 0
-3.001681 0.185682 5.362571 0.89028965 -0.455394706 0 0 0
-3.002935 0.18323 5.362571 0.859927445 -0.51041629 0 0 0
-3.001681 0.185682 1.307403 0.89028965 -0.455394706 0 0 0
-3.00398 0.181698 5.362571 0.82618926 -0.563392676 0 0 0
-3.00398 0.181698 1.305104 0.82618926 -0.563392676 0 0 0
-3.00398 0.181698 1.305104 1 0 0 0 0
-3.00398 0.180779 5.362571 1 0 0 0 0
-3.00398 0.180779 1.305104 1 0 0 0 0
-3.00398 0.181698 5.362571 1 0 0 0 0
-3.002726 0.180779 5.362571 0 1 0 0 0
-3.00398 0.180779 5.362571 0 1 0 0 0
-3.0021 0.180166 1.306985 0.699314151 0.714814464 0 0 0
-3.002726 0.180779 5.362571 0.699314151 0.714814464 0 0 0
-3.0021 0.180166 5.362571 0.699314151 0.714814464 0 0 0
-3.002726 0.180779 1.306359 0.699314151 0.714814464 0 0 0
-3.002089 0.176749 1.306996 0.9999955 0.0029999865 0 0 0
-3.0021 0.180166 5.362571 0.9999955 0.0029999865 0 0 0
-3.002089 0.176749 5.362571 0.9999955 0.0029999865 0 0 0
-3.0021 0.180166 1.306985 0.9999955 0.0029999865 0 0 0
-3.002531 0.175974 1.306554 0.868784154 -0.495190968 0 0 0
-3.002089 0.176749 5.362571 0.868784154 -0.495190968 0 0 0
-3.002531 0.175974 5.362571 0.868784154 -0.495190968 0 0 0
-3.002089 0.176749 1.306996 0.868784154 -0.495190968 0 0 0
-3.003177 0.175937 5.362571 0.0578016263 -0.998328088 0 0 0
-3.002531 0.175974 5.362571 0.0578016263 -0.998328088 0 0 0
-3.003165 0.174665 1.305919 0.999805934 0.0197001169 0 0 0
-3.003177 0.175937 5.362571 0.999957683 0.00919961068 0 0 0
-3.003165 0.174665 5.362571 0.999803959 0.0198000784 0 0 0
-3.003177 0.175937 1.305907 0.999957683 0.00919961068 0 0 0
-3.002956 0.167771 5.362571 0.997637188 0.0687025609 0 0 0
-3.002956 0.167771 1.306128 0.997753187 0.0669968566 0 0 0
-3.002016 0.159038 1.307068 0.98399447 0.178198999 0 0 0
-3.002016 0.159038 5.362571 0.982129636 0.188205679 0 0 0
-2.999926 0.15153 1.309158 0.961926694 0.273307584 0 0 0
-2.999926 0.15153 5.362571 0.961614463 0.274404127 0 0 0
-2.996806 0.140855 5.362571 0.9679636 0.251090558 0 0 0
-2.996806 0.140855 1.312279 0.966759044 0.255689168 0 0 0
-2.996027 0.137424 1.313058 0.992941521 0.11860496 0 0 0
-2.996027 0.137424 5.362571 0.993775951 0.111397304 0 0 0
-2.996027 0.134374 1.313058 1 0 0 0 0
-2.996027 0.134374 5.362571 1 0 0 0 0
-2.997326 0.132086 1.311759 0.869446795 -0.494026589 0 0 0
-2.996027 0.134374 5.362571 0.869446795 -0.494026589 0 0 0
-2.997326 0.132086 5.362571 0.869446795 -0.494026589 0 0 0
-2.996027 0.134374 1.313058 0.869446795 -0.494026589 0 0 0
-2.997326 0.132086 1.311759 1 0 0 0 0
-2.997326 0.131324 5.362571 1 0 0 0 0
-2.997326 0.131324 1.311759 1 0 0 0 0
-2.997326 0.132086 5.362571 1 0 0 0 0
-2.995974 0.032275 1.31311 1 0 0 0 0
-2.995974 0.130486 5.362571 1 0 0 0 0
-2.995974 0.032275 5.362571 1 0 0 0 0
-2.995974 0.130486 1.31311 1 0 0 0 0
-2.997326 0.131324 5.362571 0.0604980795 0.998168314 0 0 0
-2.996383 0.131267 5.362571 0.0604980795 0.998168314 0 0 0
-2.996383 0.131267 1.312701 0.885578919 0.464488943 0 0 0
-2.995974 0.130486 5.362571 0.885578919 0.464488943 0 0 0
-2.995974 0.130486 1.31311 0.885578919 0.464488943 0 0 0
-2.996383 0.131267 5.362571 0.885578919 0.464488943 0 0 0
-3.010376 0.032275 5.362571 0 -1 0 0 0
-2.995974 0.032275 5.362571 0 -1 0 0 0
3 0 1 2
3 0 3 1
3 4 5 6
3 4 7 5
3 8 9 10
3 8 11 9
3 12 13 14
3 12 15 13
3 16 17 18
3 16 19 17
3 20 21 22
3 20 23 21
3 24 25 26
3 24 27 25
3 28 29 30
3 28 31 29
3 30 32 33
3 30 29 32
3 33 34 35
3 33 32 34
3 35 36 37
3 35 34 36
3 37 38 39
3 37 36 38
3 39 40 41
3 39 38 40
3 42 43 44
3 42 45 43
3 46 47 48
3 46 49 47
3 50 51 52
3 50 53 51
3 54 55 56
3 54 57 55
3 58 59 60
3 58 61 59
3 62 63 64
3 62 65 63
3 66 67 68
3 66 69 67
3 68 70 71
3 68 67 70
3 72 73 74
3 72 75 73
3 74 76 77
3 74 73 76
3 78 79 80
3 78 81 79
3 82 83 84
3 82 85 83
3 86 87 88
3 86 89 87
3 3 90 91
3 3 0 90
3 92 93 94
3 92 95 93
3 10 96 8
3 10 97 96
3 98 99 100
3 98 101 99
3 102 103 104
3 102 105 103
3 106 107 108
3 106 109 107
3 110 111 112
3 110 113 111
3 114 115 116
3 114 117 115
3 118 117 114
3 118 119 117
3 120 119 118
3 120 121 119
3 122 121 120
3 122 123 121
3 124 123 122
3 124 125 123
3 126 125 124
3 126 127 125
3 44 128 42
3 44 129 128
3 130 131 132
3 130 133 131
3 134 135 136
3 134 137 135
3 138 139 140
3 138 141 139
3 60 142 58
3 60 143 142
3 144 145 146
3 144 147 145
3 148 149 150
3 148 151 149
3 152 151 148
3 152 153 151
3 154 155 156
3 154 157 155
3 158 157 154
3 158 159 157
3 160 161 162
3 160 163 161
3 164 165 166
3 164 167 165
3 88 168 169
3 88 87 168
3 169 170 171
3 169 168 170
3 172 173 174
3 172 175 173
3 176 177 178
3 176 179 177
3 180 181 182
3 180 183 181
3 182 184 185
3 182 181 184
3 186 187 188
3 186 189 187
3 188 190 191
3 188 187 190
3 192 193 194
3 192 195 193
3 143 196 142
3 143 197 196
3 198 199 200
3 198 201 199
3 202 203 204
3 202 205 203
3 206 207 208
3 206 209 207
3 129 210 128
3 129 211 210
3 212 213 214
3 212 215 213
3 214 216 217
3 214 213 216
3 217 218 219
3 217 216 218
3 219 220 221
3 219 218 220
3 221 222 223
3 221 220 222
3 223 224 225
3 223 222 224
3 226 227 228
3 226 229 227
3 230 231 232
3 230 233 231
3 234 235 236
3 234 237 235
3 238 239 240
3 238 241 239
3 97 242 96
3 97 243 242
3 244 245 246
3 244 247 245
3 91 248 249
3 91 90 248
3 250 251 252
3 250 253 251
3 254 255 256
3 254 257 255
3 258 259 260
3 258 261 259
3 262 263 264
3 262 265 263
3 262 266 265
3 262 267 266
3 268 269 270
3 268 271 269
3 268 272 271
3 268 273 272
3 274 275 276
3 274 277 275
3 278 279 280
3 278 281 279
3 282 283 284
3 282 285 283
3 286 287 288
3 286 289 287
3 290 291 292
3 290 293 291
3 294 295 296
3 294 297 295
3 298 299 300
3 298 301 299
3 298 302 301
3 298 303 302
3 304 302 303
3 304 305 302
3 306 305 304
3 306 307 305
3 306 308 307
3 306 309 308
3 310 308 309
3 310 311 308
3 312 313 314
3 312 315 313
3 316 317 318
3 316 319 317
3 320 321 322
3 320 323 321
3 324 325 326
3 324 327 325
3 328 329 330
3 328 331 329
3 332 333 334
3 332 335 333
3 336 337 338
3 336 339 337
3 338 340 341
3 338 337 340
3 342 343 344
3 342 345 343
3 331 346 329
3 331 347 346
3 348 349 350
3 348 351 349
3 352 353 354
3 352 355 353
3 356 357 358
3 356 359 357
3 360 361 362
3 360 363 361
3 364 365 366
3 364 367 365
3 368 365 369
3 368 366 365
3 368 370 371
3 368 369 370
3 371 372 373
3 371 370 372
3 374 372 375
3 374 373 372
3 374 376 377
3 374 375 376
3 296 378 379
3 296 295 378
3 380 381 382
3 380 383 381
3 384 385 386
3 384 387 385
3 388 389 390
3 388 391 389
3 280 392 393
3 280 279 392
3 394 395 396
3 394 397 395
3 398 399 400
3 398 401 399
3 398 402 403
3 398 400 402
3 404 405 406
3 404 407 405
3 404 408 409
3 404 406 408
3 410 411 412
3 410 413 411
3 414 415 416
3 414 417 415
3 253 418 251
3 253 419 418
3 419 420 418
3 419 421 420
3 422 423 424
3 422 425 423
3 426 427 428
3 426 429 427
3 430 431 432
3 430 433 431
3 430 434 433
3 430 435 434
3 436 437 438
3 436 439 437
3 436 440 439
3 436 441 440
3 442 443 444
3 442 445 443
3 393 446 447
3 393 392 446
3 448 449 450
3 448 451 449
3 452 453 454
3 452 455 453
3 456 457 458
3 456 459 457
3 379 460 461
3 379 378 460
3 462 463 464
3 462 465 463
3 462 466 465
3 462 467 466
3 468 466 467
3 468 469 466
3 470 469 468
3 470 471 469
3 470 472 471
3 470 473 472
3 474 472 473
3 474 475 472
3 476 477 478
3 476 479 477
3 480 481 482
3 480 483 481
3 484 485 486
3 484 487 485
3 488 489 490
3 488 491 489
3 347 492 346
3 347 493 492
3 494 495 496
3 494 497 495
3 341 498 499
3 341 340 498
3 499 500 501
3 499 498 500
3 502 503 504
3 502 505 503
3 493 506 492
3 493 507 506
3 508 509 510
3 508 511 509
3 512 513 514
3 512 515 513
3 516 517 518
3 516 519 517
3 520 521 522
3 520 523 521
3 524 525 526
3 524 527 525
3 528 525 529
3 528 526 525
3 528 530 531
3 528 529 530
3 531 532 533
3 531 530 532
3 534 532 535
3 534 533 532
3 534 536 537
3 534 535 536
3 461 538 539
3 461 460 538
3 540 541 542
3 540 543 541
3 544 545 546
3 544 547 545
3 548 549 550
3 548 551 549
3 447 552 553
3 447 446 552
3 554 555 556
3 554 557 555
3 558 559 560
3 558 561 559
3 558 562 563
3 558 560 562
3 564 565 566
3 564 567 565
3 564 568 569
3 564 566 568
3 570 571 572
3 570 573 571
3 574 575 576
3 574 577 575
3 421 578 420
3 421 579 578
3 579 580 578
3 579 581 580
3 582 583 584
3 582 585 583
3 586 587 588
3 586 589 587
3 590 591 592
3 590 593 591
3 590 594 593
3 590 595 594
3 596 597 598
3 596 599 597
3 596 600 599
3 596 601 600
3 602 603 604
3 602 605 603
3 553 606 607
3 553 552 606
3 608 609 610
3 608 611 609
3 612 613 614
3 612 615 613
3 616 617 618
3 616 619 617
3 539 620 621
3 539 538 620
3 622 623 624
3 622 625 623
3 622 626 625
3 622 627 626
3 628 626 627
3 628 629 626
3 630 629 628
3 630 631 629
3 630 632 631
3 630 633 632
3 634 632 633
3 634 635 632
3 636 637 638
3 636 639 637
3 640 641 642
3 640 643 641
3 644 645 646
3 644 647 645
3 648 649 650
3 648 651 649
3 507 652 506
3 507 653 652
3 654 655 656
3 654 657 655
3 501 658 659
3 501 500 658
3 660 661 662
3 660 663 661
3 664 665 666
3 664 667 665
3 668 669 670
3 668 671 669
3 672 673 674
3 672 675 673
3 672 676 677
3 672 674 676
3 678 679 680
3 678 681 679
3 678 682 683
3 678 680 682
3 684 685 686
3 684 687 685
3 688 689 690
3 688 691 689
3 692 693 694
3 692 695 693
3 696 697 698
3 696 699 697
3 700 701 702
3 700 703 701
3 704 705 706
3 704 707 705
3 708 709 710
3 708 711 709
3 708 712 713
3 708 710 712
3 714 712 715
3 714 713 712
3 716 715 717
3 716 714 715
3 716 718 719
3 716 717 718
3 720 718 721
3 720 719 718
3 722 721 723
3 722 720 721
3 724 725 726
3 724 727 725
3 728 729 730
3 728 731 729
3 732 733 734
3 732 735 733
3 736 737 738
3 736 739 737
3 740 741 742
3 740 743 741
3 744 745 746
3 744 747 745
3 747 748 745
3 747 749 748
3 750 751 752
3 750 753 751
3 738 754 755
3 738 737 754
3 756 757 758
3 756 759 757
3 760 761 762
3 760 763 761
3 764 765 766
3 764 767 765
3 768 769 770
3 768 771 769
3 771 772 769
3 771 773 772
3 774 772 773
3 774 775 772
3 774 776 775
3 774 777 776
3 777 778 776
3 777 779 778
3 780 778 779
3 780 781 778
3 780 782 781
3 780 783 782
3 707 784 705
3 707 785 784
3 786 787 788
3 786 789 787
3 790 791 792
3 790 793 791
3 794 795 796
3 794 797 795
3 691 798 689
3 691 799 798
3 800 801 802
3 800 803 801
3 804 805 806
3 804 807 805
3 804 808 807
3 804 809 808
3 810 811 812
3 810 813 811
3 810 814 813
3 810 815 814
3 816 817 818
3 816 819 817
3 820 821 822
3 820 823 821
3 662 824 825
3 662 661 824
3 825 826 827
3 825 824 826
3 828 829 830
3 828 831 829
3 832 833 834
3 832 835 833
3 836 837 838
3 836 839 837
3 836 840 841
3 836 838 840
3 842 843 844
3 842 845 843
3 842 846 847
3 842 844 846
3 848 849 850
3 848 851 849
3 799 852 798
3 799 853 852
3 854 855 856
3 854 857 855
3 858 859 860
3 858 861 859
3 862 863 864
3 862 865 863
3 785 866 784
3 785 867 866
3 868 869 870
3 868 871 869
3 868 872 873
3 868 870 872
3 874 872 875
3 874 873 872
3 876 875 877
3 876 874 875
3 876 878 879
3 876 877 878
3 880 878 881
3 880 879 878
3 882 881 883
3 882 880 881
3 884 885 886
3 884 887 885
3 888 889 890
3 888 891 889
3 892 893 894
3 892 895 893
3 755 896 897
3 755 754 896
3 898 899 900
3 898 901 899
3 749 902 748
3 749 903 902
