ply
format ascii 1.0
element vertex 208
property float x
property float y
property float z
property float nx
property float ny
property float nz
property float u
property float v
element face 360
property list uchar int vertex_indices
end_header
1.613375 0.290612 1.304019 -0.252699335 0.938597532 0.234899382 0 0
1.615623 0.290113 1.304612 0.35600494 0.655509095 0.666009241 0 0
1.615785 0.290412 1.304019 0.463004628 0.852508521 0.242602425 0 0
1.613458 0.290292 1.304612 -0.1939114 0.731543009 0.653638429 0 0
1.617258 0.288508 1.304019 0.923857364 0.302318772 0.234714574 0 0
1.616945 0.288402 1.304612 0.718514119 0.238304683 0.65341284 0 0
1.61692 0.286619 1.304612 0.327509396 -0.756621708 0.565916236 0 0
1.617201 0.286467 1.304019 0.785332949 -0.399616766 0.472819838 0 0
1.611987 0.289292 1.304612 -0.813061238 -0.14061059 0.56494255 0 0
1.611707 0.289444 1.304019 -0.749464963 0.452739243 0.483041869 0 0
1.612648 0.288934 1.305107 -0.590677735 -0.341087143 0.731272435 0 0
1.613655 0.289536 1.305107 -0.104005665 0.435523724 0.894148706 0 0
1.616258 0.286978 1.305107 0.0372020413 -0.68013732 0.732140174 0 0
1.616206 0.288154 1.305107 0.421607353 0.151602644 0.894015592 0 0
1.615239 0.289406 1.305107 0.206305509 0.379910146 0.901724081 0 0
1.614745 0.288497 1.305403 0.0834986181 0.153697456 0.984583705 0 0
1.613907 0.288567 1.305403 -0.0271991012 0.162294637 0.986367406 0 0
1.615257 0.287835 1.305403 0.150500661 0.0660002901 0.986404335 0 0
1.615407 0.287439 1.305403 -0.156105124 -0.621720408 0.767525194 0 0
1.613497 0.288474 1.305403 -0.43581688 -0.470718231 0.767129712 0 0
1.614452 0.287957 1.305403 -0.33689951 -0.621699095 0.707098971 0 0
1.614994 0.284377 1.304019 0.252699335 -0.938597532 0.234899382 0 0
1.612746 0.284875 1.304612 -0.35600494 -0.655509095 0.666009241 0 0
1.612584 0.284576 1.304019 -0.463111425 -0.852421029 0.242705988 0 0
1.614911 0.284697 1.304612 0.193897215 -0.731589491 0.653590611 0 0
1.611111 0.286481 1.304019 -0.923878248 -0.302192885 0.234794472 0 0
1.611424 0.286586 1.304612 -0.718514119 -0.238304683 0.65341284 0 0
1.611449 0.288369 1.304612 -0.327527931 0.756664527 0.565848255 0 0
1.611168 0.288521 1.304019 -0.785332949 0.399616766 0.472819838 0 0
1.616382 0.285696 1.304612 0.813106558 0.140501133 0.564904556 0 0
1.616662 0.285544 1.304019 0.749431027 -0.452818747 0.483019997 0 0
1.615721 0.286054 1.305107 0.590741079 0.341023714 0.731250849 0 0
1.614714 0.285452 1.305107 0.104005665 -0.435523724 0.894148706 0 0
1.612111 0.28801 1.305107 -0.0372991768 0.680084991 0.732183841 0 0
1.612163 0.286834 1.305107 -0.421607353 -0.151602644 0.894015592 0 0
1.61313 0.285583 1.305107 -0.206401253 -0.379902306 0.901705473 0 0
1.613624 0.286491 1.305403 -0.0834986181 -0.153697456 0.984583705 0 0
1.614462 0.286422 1.305403 0.0272990235 -0.162294195 0.986364718 0 0
1.613112 0.287153 1.305403 -0.150598395 -0.0659992965 0.986389485 0 0
1.612962 0.287549 1.305403 0.156102847 0.621611335 0.767613998 0 0
1.614872 0.286514 1.305403 0.435796363 0.470796071 0.767093599 0 0
1.613918 0.287031 1.305403 0.33689951 0.621699095 0.707098971 0 0
1.613918 0.287031 1.304001 0.33689951 0.621699095 0.707098971 0 0
1.615407 0.287439 1.304001 -0.33689951 -0.621699095 0.707098971 0 0
1.614452 0.287957 1.304001 -0.33689951 -0.621699095 0.707098971 0 0
1.614872 0.286514 1.304001 0.33689951 0.621699095 0.707098971 0 0
1.616258 0.286978 1.304001 -0.336810856 -0.621720038 0.707122791 0 0
1.615721 0.286054 1.304001 0.33689951 0.621699095 0.707098971 0 0
1.616742 0.286716 1.304001 -0.345907498 -0.61221327 0.711015411 0 0
1.616206 0.285791 1.304001 0.32440722 0.624213892 0.710715817 0 0
1.613497 0.288474 1.304001 -0.33689951 -0.621699095 0.707098971 0 0
1.612962 0.287549 1.304001 0.33689951 0.621699095 0.707098971 0 0
1.612648 0.288934 1.304001 -0.336810856 -0.621720038 0.707122791 0 0
1.612111 0.28801 1.304001 0.33689951 0.621699095 0.707098971 0 0
1.612163 0.289197 1.304001 -0.324496693 -0.624193639 0.710692758 0 0
1.611627 0.288272 1.304001 0.345907498 0.61221327 0.711015411 0 0
1.613497 0.288474 1.304702 -0.476412006 -0.879222157 0 0 0
1.614452 0.287957 1.304702 -0.476412006 -0.879222157 0 0 0
1.615407 0.287439 1.304702 -0.476412006 -0.879222157 0 0 0
1.612648 0.288934 1.304554 -0.476412006 -0.879222157 0 0 0
1.616258 0.286978 1.304554 -0.476412006 -0.879222157 0 0 0
1.616742 0.286716 1.304307 -0.476412006 -0.879222157 0 0 0
1.612163 0.289197 1.304307 -0.476412003 -0.879222152 0.00010000252 0 0
1.614872 0.286514 1.304702 0.476412006 0.879222157 0 0 0
1.613918 0.287031 1.304702 0.476489305 0.879180267 0 0 0
1.612962 0.287549 1.304702 0.476489305 0.879180267 0 0 0
1.615721 0.286054 1.304554 0.476489305 0.879180267 0 0 0
1.612111 0.28801 1.304554 0.476412006 0.879222157 0 0 0
1.611627 0.288272 1.304307 0.476412006 0.879222157 0 0 0
1.616206 0.285791 1.304307 0.476412006 0.879222157 0 0 0
1.617201 0.286467 1.303636 0.961554132 -0.27461546 0 0 0
1.616662 0.285544 1.303636 0.73551232 -0.677511348 0 0 0
1.611168 0.288521 1.303636 -0.961561673 0.274589055 0 0 0
1.611707 0.289444 1.303636 -0.735558218 0.677461518 0 0 0
1.614994 0.284377 1.303636 0.261009776 -0.965336157 0 0 0
1.612584 0.284576 1.303636 -0.477394164 -0.878689258 0 0 0
1.611111 0.286481 1.303636 -0.950801578 -0.309800514 0 0 0
1.613375 0.290612 1.303636 -0.261009776 0.965336157 0 0 0
1.615785 0.290412 1.303636 0.47731695 0.878731204 0 0 0
1.617258 0.288508 1.303636 0.950772119 0.309890913 0 0 0
1.718813 0.288629 1.304019 -0.91264243 0.334515552 0.234910921 0 0
1.720516 0.290178 1.304612 -0.330397753 0.668795452 0.665995471 0 0
1.720365 0.290483 1.304019 -0.429689496 0.869778739 0.24259407 0 0
1.719122 0.288512 1.304612 -0.709600227 0.263200084 0.653600209 0 0
1.72277 0.290589 1.304019 0.285499004 0.929196757 0.234699181 0 0
1.722676 0.290272 1.304612 0.219403492 0.724511531 0.653410399 0 0
1.724119 0.289224 1.304612 0.807033182 -0.168606932 0.565923268 0 0
1.724405 0.289366 1.304019 0.779185581 0.411392387 0.472891249 0 0
1.719091 0.286734 1.304612 -0.353897434 -0.745494595 0.564795905 0 0
1.718805 0.286593 1.304019 -0.801981855 -0.351492048 0.482989072 0 0
1.719765 0.287068 1.305107 -0.0617979168 -0.679277102 0.731275349 0 0
1.719853 0.288238 1.305107 -0.41582211 0.166108832 0.894147543 0 0
1.723444 0.28889 1.305107 0.577233247 -0.361620828 0.732142169 0 0
1.722453 0.289526 1.305107 0.119201058 0.431903833 0.894007934 0 0
1.720872 0.289456 1.305107 -0.191502978 0.387606027 0.901714022 0 0
1.72133 0.28853 1.305403 -0.0774988511 0.156797675 0.984585404 0 0
1.720791 0.287885 1.305403 -0.148296494 0.0711983165 0.986376677 0 0
1.722167 0.288566 1.305403 0.0329995517 0.161097812 0.9863866 0 0
1.722577 0.288461 1.305403 0.418107804 -0.48590907 0.767514326 0 0
1.72063 0.287497 1.305403 0.133498604 -0.62749344 0.76709198 0 0
1.721602 0.287978 1.305403 0.313794267 -0.633688423 0.707087082 0 0
1.724841 0.286358 1.304019 0.91264243 -0.334515552 0.234910921 0 0
1.723138 0.284809 1.304612 0.330397753 -0.668795452 0.665995471 0 0
1.723289 0.284503 1.304019 0.429726872 -0.869754387 0.242615171 0 0
1.724531 0.286474 1.304612 0.709550575 -0.263218762 0.65364659 0 0
1.720883 0.284398 1.304019 -0.285499004 -0.929196757 0.234699181 0 0
1.720978 0.284714 1.304612 -0.219498676 -0.724495631 0.65339606 0 0
1.719535 0.285762 1.304612 -0.807113717 0.168602865 0.565809616 0 0
1.719249 0.28562 1.304019 -0.779222426 -0.411411841 0.472813608 0 0
1.724563 0.288252 1.304612 0.353903826 0.745408058 0.564906107 0 0
1.724848 0.288393 1.304019 0.801981855 0.351492048 0.482989072 0 0
1.723889 0.287918 1.305107 0.0617028131 0.679330971 0.731233338 0 0
1.723801 0.286749 1.305107 0.415829015 -0.166011584 0.894162392 0 0
1.72021 0.286096 1.305107 -0.577233247 0.361620828 0.732142169 0 0
1.721201 0.285461 1.305107 -0.119201058 -0.431903833 0.894007934 0 0
1.722781 0.28553 1.305107 0.191406641 -0.387613448 0.901731286 0 0
1.722323 0.286457 1.305403 0.0774988511 -0.156797675 0.984585404 0 0
1.722863 0.287101 1.305403 0.14839429 -0.0711972604 0.986362046 0 0
1.721487 0.28642 1.305403 -0.0328996615 -0.161098342 0.98638985 0 0
1.721077 0.286526 1.305403 -0.417993193 0.485892087 0.7675875 0 0
1.723024 0.28749 1.305403 -0.133498604 0.62749344 0.76709198 0 0
1.722051 0.287008 1.305403 -0.313794267 0.633688423 0.707087082 0 0
1.722051 0.287008 1.304001 -0.313814152 0.633628574 0.707131889 0 0
1.722577 0.288461 1.304001 0.313814152 -0.633628574 0.707131889 0 0
1.721602 0.287978 1.304001 0.313814152 -0.633628574 0.707131889 0 0
1.723024 0.28749 1.304001 -0.313814152 0.633628574 0.707131889 0 0
1.723444 0.28889 1.304001 0.313794267 -0.633688423 0.707087082 0 0
1.723889 0.287918 1.304001 -0.313704111 0.633708305 0.707109267 0 0
1.723937 0.289134 1.304001 0.300799383 -0.635498697 0.711098542 0 0
1.724383 0.288163 1.304001 -0.322902599 0.625005031 0.710705721 0 0
1.72063 0.287497 1.304001 0.313814152 -0.633628574 0.707131889 0 0
1.721077 0.286526 1.304001 -0.313814152 0.633628574 0.707131889 0 0
1.719765 0.287068 1.304001 0.313814152 -0.633628574 0.707131889 0 0
1.72021 0.286096 1.304001 -0.313814152 0.633628574 0.707131889 0 0
1.71927 0.286823 1.304001 0.322902599 -0.625005031 0.710705721 0 0
1.719717 0.285852 1.304001 -0.300801654 0.635603496 0.711003911 0 0
1.72063 0.287497 1.304702 0.443810285 -0.896120768 0 0 0
1.721602 0.287978 1.304702 0.443810285 -0.896120768 0 0 0
1.722577 0.288461 1.304702 0.443810285 -0.896120768 0 0 0
1.719765 0.287068 1.304554 0.443810285 -0.896120768 0 0 0
1.723444 0.28889 1.304554 0.443810285 -0.896120768 0 0 0
1.723937 0.289134 1.304307 0.443810285 -0.896120768 0 0 0
1.71927 0.286823 1.304307 0.443810285 -0.896120768 0 0 0
1.723024 0.28749 1.304702 -0.443810285 0.896120768 0 0 0
1.722051 0.287008 1.304702 -0.443810285 0.896120768 0 0 0
1.721077 0.286526 1.304702 -0.443810285 0.896120768 0 0 0
1.723889 0.287918 1.304554 -0.443810285 0.896120768 0 0 0
1.72021 0.286096 1.304554 -0.443810285 0.896120768 0 0 0
1.719717 0.285852 1.304307 -0.443810285 0.896120768 0 0 0
1.724383 0.288163 1.304307 -0.443729975 0.896160538 0 0 0
1.724405 0.289366 1.303636 0.778698267 0.627398604 0 0 0
1.724848 0.288393 1.303636 0.977573547 0.210594301 0 0 0
1.719249 0.28562 1.303636 -0.778698267 -0.627398604 0 0 0
1.718805 0.286593 1.303636 -0.977573547 -0.210594301 0 0 0
1.724841 0.286358 1.303636 0.939299014 -0.34309964 0 0 0
1.723289 0.284503 1.303636 0.442888492 -0.896576703 0 0 0
1.720883 0.284398 1.303636 -0.294907924 -0.955525675 0 0 0
1.718813 0.288629 1.303636 -0.939299014 0.34309964 0 0 0
1.720365 0.290483 1.303636 -0.442888492 0.896576703 0 0 0
1.72277 0.290589 1.303636 0.294816615 0.955553852 0 0 0
1.617973 0.287447 1.305688 -0.934487567 0.000599992017 0.355995264 0 0
1.616626 0.285024 1.304779 -0.693616279 0.69491631 0.189704452 0 0
1.616871 0.284778 1.305688 -0.660096799 0.661196793 0.356498271 0 0
1.617627 0.287448 1.304779 -0.981918529 0.000400007548 0.189303572 0 0
1.719323 0.285024 1.304779 0.693616279 0.69491631 0.189704452 0 0
1.717976 0.287447 1.305688 0.934487567 0.000599992017 0.355995264 0 0
1.719078 0.284778 1.305688 0.660016831 0.661216861 0.356609094 0 0
1.718323 0.287448 1.304779 0.981918529 0.000400007548 0.189303572 0 0
1.616871 0.290124 1.305688 -0.663873641 -0.657573892 0.356185858 0 0
1.616626 0.289879 1.304779 -0.697898862 -0.690698874 0.189399691 0 0
1.719078 0.290124 1.305688 0.663873641 -0.657573892 0.356185858 0 0
1.719323 0.289879 1.304779 0.697898862 -0.690698874 0.189399691 0 0
1.610409 0.287447 1.305688 0.934249722 0.000600031935 0.35661898 0 0
1.61177 0.289879 1.304779 0.697042392 -0.691642063 0.189111501 0 0
1.611526 0.290124 1.305688 0.663083685 -0.658583796 0.355791246 0 0
1.610757 0.287448 1.304779 0.981821875 0.000400008912 0.189804229 0 0
1.724179 0.289879 1.304779 -0.697042392 -0.691642063 0.189111501 0 0
1.72554 0.287447 1.305688 -0.934262439 0.000599975878 0.356585664 0 0
1.724424 0.290124 1.305688 -0.663107274 -0.658607225 0.355703902 0 0
1.725193 0.287448 1.304779 -0.981840507 0.000400016503 0.189707827 0 0
1.611526 0.284778 1.305688 0.659278979 0.662178887 0.356188643 0 0
1.61177 0.285024 1.304779 0.692654053 0.695954311 0.189414782 0 0
1.724424 0.284778 1.305688 -0.659302459 0.66220247 0.356101328 0 0
1.724179 0.285024 1.304779 -0.692706075 0.695906103 0.189401661 0 0
1.614191 0.283678 1.305688 0.000899967777 0.934566538 0.355787261 0 0
1.614192 0.284024 1.304779 0.000900033725 0.981936794 0.18920709 0 0
1.721758 0.283678 1.305688 -0.000899967777 0.934566538 0.355787261 0 0
1.721758 0.284024 1.304779 -0.000900033725 0.981936794 0.18920709 0 0
1.614192 0.29091 1.304779 0.000900025197 -0.981627481 0.190805342 0 0
1.614191 0.291259 1.305688 0.000899953321 -0.933651573 0.358181422 0 0
1.721758 0.29091 1.304779 -0.000900025197 -0.981627481 0.190805342 0 0
1.721758 0.291259 1.305688 -0.000899953321 -0.933651573 0.358181422 0 0
1.616626 0.289879 1.301747 -0.710697605 -0.703497629 0 0 0
1.614192 0.29091 1.301747 0.0009999995 -0.9999995 0 0 0
1.719323 0.289879 1.301747 0.710697605 -0.703497629 0 0 0
1.721758 0.29091 1.301747 -0.0009999995 -0.9999995 0 0 0
1.61177 0.289879 1.301747 0.709702008 -0.704501994 0 0 0
1.724179 0.289879 1.301747 -0.709702008 -0.704501994 0 0 0
1.614192 0.284024 1.301747 0.000899999636 0.999999595 0 0 0
1.616626 0.285024 1.301747 -0.706406428 0.707806441 0 0 0
1.721758 0.284024 1.301747 -0.000899999636 0.999999595 0 0 0
1.719323 0.285024 1.301747 0.706406428 0.707806441 0 0 0
1.61177 0.285024 1.301747 0.70550496 0.708704982 0 0 0
1.724179 0.285024 1.301747 -0.70550496 0.708704982 0 0 0
1.610757 0.287448 1.301747 0.999999875 0.000499999938 0 0 0
1.725193 0.287448 1.301747 -0.999999875 0.000499999938 0 0 0
1.617627 0.287448 1.301747 -0.999999875 0.000499999938 0 0 0
1.718323 0.287448 1.301747 0.999999875 0.000499999938 0 0 0
3 0 1 2
3 0 3 1
3 4 1 5
3 4 2 1
3 4 6 7
3 4 5 6
3 8 0 9
3 8 3 0
3 3 10 11
3 3 8 10
3 5 12 6
3 5 13 12
3 5 14 13
3 5 1 14
3 3 14 1
3 3 11 14
3 11 15 14
3 11 16 15
3 13 15 17
3 13 14 15
3 13 18 12
3 13 17 18
3 11 19 16
3 11 10 19
3 16 19 20
3 17 20 18
3 17 15 20
3 16 20 15
3 21 22 23
3 21 24 22
3 25 22 26
3 25 23 22
3 25 27 28
3 25 26 27
3 21 29 24
3 21 30 29
3 24 31 32
3 24 29 31
3 26 33 27
3 26 34 33
3 26 35 34
3 26 22 35
3 24 35 22
3 24 32 35
3 32 36 35
3 32 37 36
3 34 36 38
3 34 35 36
3 34 39 33
3 34 38 39
3 32 40 37
3 32 31 40
3 37 40 41
3 38 41 39
3 38 36 41
3 37 41 36
3 42 43 44
3 42 45 43
3 45 46 43
3 45 47 46
3 47 48 46
3 47 49 48
3 42 50 51
3 42 44 50
3 51 52 53
3 51 50 52
3 53 54 55
3 53 52 54
3 20 56 57
3 20 19 56
3 57 50 44
3 57 56 50
3 18 57 58
3 18 20 57
3 58 44 43
3 58 57 44
3 19 59 56
3 19 10 59
3 56 52 50
3 56 59 52
3 12 58 60
3 12 18 58
3 60 43 46
3 60 58 43
3 6 60 61
3 6 12 60
3 61 46 48
3 61 60 46
3 10 62 59
3 10 8 62
3 59 54 52
3 59 62 54
3 41 63 64
3 41 40 63
3 64 45 42
3 64 63 45
3 39 64 65
3 39 41 64
3 65 42 51
3 65 64 42
3 40 66 63
3 40 31 66
3 63 47 45
3 63 66 47
3 33 65 67
3 33 39 65
3 67 51 53
3 67 65 51
3 27 67 68
3 27 33 67
3 68 53 55
3 68 67 53
3 31 69 66
3 31 29 69
3 66 49 47
3 66 69 49
3 9 62 8
3 9 54 62
3 28 68 55
3 28 27 68
3 30 69 29
3 30 49 69
3 9 55 54
3 9 28 55
3 7 49 30
3 7 48 49
3 7 61 48
3 7 6 61
3 30 70 7
3 30 71 70
3 9 72 28
3 9 73 72
3 23 74 21
3 23 75 74
3 25 75 23
3 25 76 75
3 28 76 25
3 28 72 76
3 21 71 30
3 21 74 71
3 2 77 0
3 2 78 77
3 4 78 2
3 4 79 78
3 7 79 4
3 7 70 79
3 0 73 9
3 0 77 73
3 80 81 82
3 80 83 81
3 84 81 85
3 84 82 81
3 84 86 87
3 84 85 86
3 88 80 89
3 88 83 80
3 83 90 91
3 83 88 90
3 85 92 86
3 85 93 92
3 85 94 93
3 85 81 94
3 83 94 81
3 83 91 94
3 91 95 94
3 91 96 95
3 93 95 97
3 93 94 95
3 93 98 92
3 93 97 98
3 91 99 96
3 91 90 99
3 96 99 100
3 97 100 98
3 97 95 100
3 96 100 95
3 101 102 103
3 101 104 102
3 105 102 106
3 105 103 102
3 105 107 108
3 105 106 107
3 101 109 104
3 101 110 109
3 104 111 112
3 104 109 111
3 106 113 107
3 106 114 113
3 106 115 114
3 106 102 115
3 104 115 102
3 104 112 115
3 112 116 115
3 112 117 116
3 114 116 118
3 114 115 116
3 114 119 113
3 114 118 119
3 112 120 117
3 112 111 120
3 117 120 121
3 118 121 119
3 118 116 121
3 117 121 116
3 122 123 124
3 122 125 123
3 125 126 123
3 125 127 126
3 127 128 126
3 127 129 128
3 122 130 131
3 122 124 130
3 131 132 133
3 131 130 132
3 133 134 135
3 133 132 134
3 100 136 137
3 100 99 136
3 137 130 124
3 137 136 130
3 98 137 138
3 98 100 137
3 138 124 123
3 138 137 124
3 99 139 136
3 99 90 139
3 136 132 130
3 136 139 132
3 92 138 140
3 92 98 138
3 140 123 126
3 140 138 123
3 86 140 141
3 86 92 140
3 141 126 128
3 141 140 126
3 90 142 139
3 90 88 142
3 139 134 132
3 139 142 134
3 121 143 144
3 121 120 143
3 144 125 122
3 144 143 125
3 119 144 145
3 119 121 144
3 145 122 131
3 145 144 122
3 120 146 143
3 120 111 146
3 143 127 125
3 143 146 127
3 113 145 147
3 113 119 145
3 147 131 133
3 147 145 131
3 107 147 148
3 107 113 147
3 148 133 135
3 148 147 133
3 111 149 146
3 111 109 149
3 146 129 127
3 146 149 129
3 89 142 88
3 89 134 142
3 108 148 135
3 108 107 148
3 110 149 109
3 110 129 149
3 89 135 134
3 89 108 135
3 87 129 110
3 87 128 129
3 87 141 128
3 87 86 141
3 110 150 87
3 110 151 150
3 89 152 108
3 89 153 152
3 103 154 101
3 103 155 154
3 105 155 103
3 105 156 155
3 108 156 105
3 108 152 156
3 101 151 110
3 101 154 151
3 82 157 80
3 82 158 157
3 84 158 82
3 84 159 158
3 87 159 84
3 87 150 159
3 80 153 89
3 80 157 153
3 160 161 162
3 160 163 161
3 164 165 166
3 164 167 165
3 168 163 160
3 168 169 163
3 167 170 165
3 167 171 170
3 172 173 174
3 172 175 173
3 176 177 178
3 176 179 177
3 180 175 172
3 180 181 175
3 179 182 177
3 179 183 182
3 184 181 180
3 184 185 181
3 183 186 182
3 183 187 186
3 162 185 184
3 162 161 185
3 187 166 186
3 187 164 166
3 174 188 189
3 174 173 188
3 190 178 191
3 190 176 178
3 189 169 168
3 189 188 169
3 171 191 170
3 171 190 191
3 188 192 169
3 188 193 192
3 194 190 171
3 194 195 190
3 173 193 188
3 173 196 193
3 195 176 190
3 195 197 176
3 161 198 185
3 161 199 198
3 200 164 187
3 200 201 164
3 185 202 181
3 185 198 202
3 203 187 183
3 203 200 187
3 181 204 175
3 181 202 204
3 205 183 179
3 205 203 183
3 175 196 173
3 175 204 196
3 197 179 176
3 197 205 179
3 169 206 163
3 169 192 206
3 207 171 167
3 207 194 171
3 163 199 161
3 163 206 199
3 201 167 164
3 201 207 167
