ply
format ascii 1.0
element vertex 898
property float x
property float y
property float z
property float nx
property float ny
property float nz
property float u
property float v
element face 1680
property list uchar int vertex_indices
end_header
0.420712 0.822538 4.584324 -0.281287238 0.796263874 -0.535575701 0.803677 0.901322
0.391521 0.80943 4.578995 -0.293018735 0.807251613 -0.512332757 0.750458 0.855529
0.398422 0.820814 4.59479 -0.304702349 0.828006384 -0.470703629 0.746729 0.898271
0.414405 0.810552 4.569659 -0.224105372 0.774218558 -0.591914188 0.806014 0.85751
0.432792 0.810369 4.564198 -0.179702283 0.706508976 -0.684508697 0.851249 0.858669
0.438657 0.823604 4.577127 -0.278828374 0.72847413 -0.625763678 0.851282 0.903287
0.443903 0.833968 4.587132 -0.363419585 0.707138109 -0.606532687 0.852443 0.93805
0.426168 0.831855 4.595791 -0.343612492 0.769227966 -0.538719586 0.802628 0.936032
0.404276 0.829664 4.607213 -0.337716128 0.800438226 -0.49522365 0.744297 0.932599
0.458202 0.82486 4.569834 -0.293208703 0.63441883 -0.715221228 0.89833 0.903795
0.474823 0.835646 4.570848 -0.383606604 0.566909759 -0.72901255 0.928209 0.929975
0.4741 0.826426 4.564317 -0.322406177 0.548610511 -0.771414781 0.93471 0.905077
0.464066 0.836836 4.577694 -0.381106658 0.62561093 -0.680711892 0.901295 0.937874
0.45198 0.809781 4.559364 -0.179107625 0.616226233 -0.766932649 0.896291 0.85895
0.467303 0.809692 4.555937 -0.218507353 0.539818165 -0.812927355 0.931529 0.860375
0.408703 0.797881 4.555982 -0.181805828 0.709622747 -0.680721821 0.806916 0.81381
0.378731 0.779381 4.547889 -0.282604216 0.662809889 -0.693410346 0.753062 0.75973
0.385281 0.797345 4.564386 -0.293200544 0.746101384 -0.597801109 0.75235 0.813344
0.402738 0.779258 4.540436 -0.147607944 0.623033529 -0.768141339 0.8067 0.75902
0.422523 0.777376 4.537369 -0.048900189 0.580902245 -0.81250314 0.849433 0.757179
0.427729 0.796729 4.551896 -0.0984047486 0.650231378 -0.753336353 0.850684 0.813271
0.44736 0.794893 4.548798 -0.0777985417 0.586389008 -0.806284886 0.894733 0.811554
0.44316 0.774784 4.535254 -0.022999839 0.551596139 -0.833794163 0.893201 0.753851
0.459567 0.772964 4.533919 -0.0729969221 0.538177308 -0.839664596 0.928468 0.75191
0.462932 0.793714 4.546778 -0.124202714 0.54051181 -0.832118182 0.92965 0.811213
0.129886 0.786644 4.741374 -0.587710632 0.665712043 -0.459808318 0.0996 0.897804
0.116333 0.76813 4.741044 -0.756012607 0.481308026 -0.443607397 0.065138 0.852555
0.117873 0.7839 4.752768 -0.637416344 0.533013667 -0.556414267 0.063896 0.898723
0.125783 0.773116 4.727551 -0.717789384 0.592491237 -0.365694591 0.101351 0.851779
0.138931 0.778847 4.712623 -0.550933162 0.740944599 -0.384023115 0.147289 0.852478
0.14558 0.790212 4.72853 -0.446921082 0.793937451 -0.412219445 0.146111 0.897942
0.150455 0.798883 4.741715 -0.385024363 0.787449827 -0.481330457 0.143908 0.933866
0.132309 0.797294 4.75318 -0.468103431 0.688205045 -0.554304063 0.096615 0.933853
0.121665 0.793462 4.75816 -0.529821077 0.589823464 -0.609424243 0.070679 0.925444
0.161853 0.792485 4.718853 -0.326501904 0.849704954 -0.414002414 0.194013 0.897078
0.154426 0.781761 4.702367 -0.366711143 0.822524993 -0.434713209 0.192785 0.852654
0.176204 0.783321 4.691093 -0.299820233 0.840856743 -0.45063041 0.248638 0.850751
0.183511 0.794062 4.707357 -0.289813645 0.855440275 -0.429220208 0.25181 0.893517
0.188968 0.802464 4.720403 -0.315615148 0.826339661 -0.466422386 0.253725 0.928127
0.167421 0.800678 4.732223 -0.332727187 0.825367439 -0.45613727 0.19409 0.932494
0.121006 0.75967 4.716032 -0.807076672 0.499785554 -0.314390913 0.102061 0.80624
0.106771 0.733148 4.720824 -0.838313333 0.414706596 -0.353905629 0.063748 0.750461
0.112705 0.75353 4.731872 -0.819712091 0.447106595 -0.358005281 0.064376 0.806353
0.115313 0.7398 4.703481 -0.848342732 0.407420522 -0.338117031 0.103073 0.750975
0.12727 0.747379 4.68421 -0.743016681 0.479110756 -0.467310491 0.150566 0.753007
0.132918 0.766595 4.698602 -0.660215552 0.628114795 -0.4118097 0.148622 0.807751
0.147794 0.77014 4.687174 -0.454411276 0.728518078 -0.512612721 0.192751 0.809055
0.141672 0.751694 4.671372 -0.562717464 0.573017784 -0.595818492 0.193855 0.754968
0.162771 0.75472 4.659123 -0.449619595 0.641227945 -0.6218271 0.24706 0.756536
0.169456 0.772188 4.675793 -0.355121924 0.770447565 -0.529432686 0.24713 0.809214
0.360246 0.511518 4.398602 -0.381607768 0.00320006514 -0.924318815 0.808193 0.113782
0.379729 0.494961 4.390044 -0.437008511 0.12220238 -0.891117355 0.857824 0.076777
0.362943 0.494001 4.398686 -0.438596544 0.0127998991 -0.898592919 0.808113 0.077775
0.377911 0.511626 4.391845 -0.315311337 0.128604624 -0.940233807 0.856052 0.112792
0.377168 0.53177 4.395376 -0.16990028 0.283500468 -0.943801557 0.855425 0.158585
0.358417 0.532682 4.400021 -0.306905569 0.182303308 -0.93411695 0.809672 0.158876
0.335665 0.531247 4.409485 -0.420210133 0.100702428 -0.901821748 0.753509 0.159789
0.338078 0.508995 4.408918 -0.431122723 -0.0413021769 -0.901347507 0.750303 0.114949
0.341029 0.490683 4.40946 -0.437602394 -0.0107000585 -0.899104918 0.748494 0.07856
0.359322 0.550762 4.405892 -0.214006586 0.383911815 -0.898227643 0.810356 0.202824
0.378851 0.549041 4.402627 -0.0619029002 0.439020569 -0.896341995 0.85444 0.203894
0.382783 0.57011 4.414604 -0.0107005576 0.484825265 -0.874545574 0.852574 0.259394
0.3626 0.572517 4.416899 -0.132800714 0.464602497 -0.875504706 0.80998 0.257317
0.338049 0.573303 4.423384 -0.295208236 0.417011635 -0.859623984 0.756101 0.256341
0.335669 0.550485 4.413922 -0.366609374 0.298107623 -0.881322536 0.755355 0.202762
0.396607 0.510026 4.385849 -0.245820511 0.299524992 -0.92187692 0.902045 0.112097
0.407585 0.496928 4.37704 -0.354808054 0.408409271 -0.841019091 0.929162 0.083707
0.397038 0.494373 4.380652 -0.404895696 0.288996928 -0.867490779 0.903605 0.075894
0.411475 0.507767 4.381065 -0.234710757 0.443220313 -0.86513965 0.937192 0.110464
0.413458 0.526124 4.391109 -0.0881037806 0.477620495 -0.87413751 0.937015 0.158151
0.397334 0.529126 4.392804 -0.076101809 0.391509306 -0.917021798 0.901164 0.158934
0.399598 0.545948 4.401343 0.0162008859 0.468625625 -0.883248297 0.899078 0.206301
0.416092 0.542791 4.400609 -0.0207008842 0.492021015 -0.870337173 0.934551 0.207409
0.420711 0.563895 4.412456 -0.0248002464 0.488504853 -0.872208665 0.931198 0.265683
0.403963 0.566881 4.413413 0.0274012357 0.4856219 -0.873739402 0.896122 0.263193
0.072108 0.469096 4.561598 -0.56561388 0.390009571 -0.726617831 0.104986 0.104799
0.087843 0.458809 4.546295 -0.508716724 0.314010323 -0.801626354 0.151378 0.07095
0.067778 0.454801 4.556693 -0.496720935 0.411917361 -0.763932197 0.101805 0.070419
0.089546 0.473318 4.550416 -0.585922468 0.271510411 -0.763529278 0.152547 0.105901
0.09081 0.491889 4.555742 -0.677223605 0.240608387 -0.695324236 0.152474 0.150835
0.076222 0.48714 4.56818 -0.662015822 0.356608523 -0.659215755 0.107111 0.150076
0.064444 0.483085 4.57749 -0.627325567 0.450218349 -0.635425897 0.071679 0.14821
0.057744 0.465211 4.57007 -0.542616102 0.471713998 -0.695020625 0.068233 0.102905
0.057136 0.455405 4.564082 -0.496420639 0.4642193 -0.733530497 0.074586 0.07787
0.078612 0.504741 4.574962 -0.752308196 0.324403534 -0.573406247 0.108451 0.198049
0.091522 0.510487 4.560921 -0.747188206 0.247796089 -0.616690266 0.152815 0.196751
0.093065 0.533971 4.569489 -0.781306696 0.304902613 -0.544604667 0.153858 0.253502
0.080807 0.527111 4.585243 -0.808908405 0.324903376 -0.490005091 0.109679 0.256463
0.071264 0.521189 4.59775 -0.778198253 0.377099153 -0.502198873 0.074036 0.258125
0.0684 0.499874 4.585708 -0.716127622 0.407415714 -0.566721859 0.073307 0.198041
0.10526 0.477095 4.539436 -0.582921726 0.150705617 -0.798429758 0.200769 0.108176
0.126356 0.463871 4.524285 -0.516831621 0.125407673 -0.846851812 0.260894 0.075777
0.105164 0.461733 4.536694 -0.51993641 0.203714266 -0.829558092 0.201886 0.073134
0.125585 0.480555 4.525859 -0.54553375 0.0701043371 -0.835151668 0.25838 0.111112
0.124265 0.501573 4.528205 -0.583791488 0.0835987811 -0.807588225 0.254438 0.154975
0.104845 0.496664 4.543159 -0.651629239 0.146106556 -0.744333399 0.198231 0.152446
0.104673 0.515959 4.547276 -0.69954691 0.206013815 -0.684245884 0.196974 0.196683
0.123509 0.52167 4.531403 -0.621899832 0.179699951 -0.762199794 0.252066 0.197869
0.124692 0.545687 4.539165 -0.633026243 0.334713876 -0.698028937 0.25082 0.251955
0.106017 0.539796 4.555297 -0.712304726 0.317002103 -0.626204155 0.196847 0.252061
0.21536 0.795542 4.689057 -0.29951311 0.851437268 -0.430518844 0.328003 0.885566
0.208197 0.784995 4.67311 -0.30581833 0.84205047 -0.444326632 0.325651 0.845216
0.245519 0.788161 4.652568 -0.331600265 0.836000669 -0.43720035 0.413218 0.841176
0.252543 0.798693 4.668398 -0.329925362 0.844864947 -0.421132374 0.413813 0.879828
0.258117 0.807299 4.681334 -0.350405981 0.815113914 -0.461307875 0.413926 0.912737
0.220857 0.804023 4.701953 -0.322219165 0.821448857 -0.470527985 0.329377 0.919158
0.290204 0.805284 4.64983 -0.355602159 0.836105075 -0.417702535 0.500458 0.882904
0.283281 0.794199 4.633619 -0.356199314 0.824598413 -0.439499154 0.500733 0.84376
0.321162 0.800913 4.615 -0.356297828 0.817495017 -0.452497242 0.587907 0.848963
0.328062 0.812514 4.631583 -0.349505854 0.833613963 -0.427707164 0.586789 0.889548
0.333675 0.8217 4.644897 -0.365001487 0.806103285 -0.465801898 0.586274 0.923208
0.295778 0.814236 4.663005 -0.373316073 0.807434765 -0.456819669 0.500254 0.916015
0.365836 0.817582 4.611889 -0.327812355 0.835331484 -0.441316634 0.671657 0.894508
0.358841 0.806104 4.59545 -0.337107952 0.815519238 -0.470411097 0.674452 0.852783
0.371643 0.826561 4.624941 -0.345214415 0.808433757 -0.476719906 0.669901 0.928531
0.201725 0.774619 4.658505 -0.344925013 0.787057076 -0.511437088 0.324441 0.807289
0.194821 0.758427 4.641618 -0.414508943 0.689614879 -0.593812812 0.324303 0.757387
0.232355 0.762729 4.621627 -0.397295246 0.720791376 -0.567993204 0.413138 0.757924
0.239359 0.778123 4.638582 -0.354995307 0.791189541 -0.497993417 0.412938 0.805814
0.277114 0.78339 4.619294 -0.369690704 0.784180282 -0.498387468 0.500876 0.807326
0.269909 0.767538 4.601916 -0.388695532 0.72989161 -0.562293536 0.50112 0.758549
0.30757 0.772358 4.582443 -0.380539055 0.719173809 -0.581359665 0.588762 0.759163
0.314858 0.789146 4.600095 -0.372400579 0.773201202 -0.513300798 0.588464 0.810009
0.352456 0.794115 4.580442 -0.356205783 0.762212375 -0.540508775 0.67591 0.812045
0.345426 0.776693 4.563162 -0.359514327 0.69432767 -0.623424844 0.67658 0.759667
0.153467 0.528132 4.510683 -0.559291809 0.141597926 -0.816788038 0.329231 0.200334
0.155006 0.506725 4.508659 -0.52772388 0.0386017468 -0.848538397 0.331148 0.158491
0.191709 0.511802 4.487341 -0.493704172 0.0146001234 -0.869507347 0.417752 0.161577
0.189571 0.534312 4.488487 -0.511607764 0.109501662 -0.852212932 0.416874 0.202775
0.189691 0.559529 4.494518 -0.524802149 0.324601329 -0.786903222 0.416093 0.254336
0.154124 0.552743 4.517587 -0.575807725 0.335204497 -0.745710004 0.327951 0.253
0.226842 0.539177 4.468191 -0.475413816 0.105403063 -0.873425382 0.503402 0.203891
0.229016 0.516483 4.46707 -0.473615258 0.0135004349 -0.88062837 0.503638 0.162814
0.26644 0.521316 4.447056 -0.472717789 0.0259009747 -0.880833146 0.589627 0.162595
0.264695 0.543383 4.448843 -0.462218105 0.136905363 -0.876134319 0.590027 0.20399
0.264937 0.568487 4.455031 -0.440415027 0.322611008 -0.837828587 0.590222 0.255535
0.226771 0.564608 4.473911 -0.475983526 0.315089095 -0.821071583 0.503102 0.255106
0.302549 0.547589 4.429496 -0.444335026 0.2055162 -0.871968736 0.677961 0.203382
0.303498 0.526848 4.426512 -0.468590617 0.0502989928 -0.881982338 0.676539 0.161308
0.303762 0.571673 4.437142 -0.397304575 0.359804143 -0.844209721 0.678702 0.255847
0.156859 0.483823 4.506886 -0.512895151 0.0360996587 -0.857691891 0.334105 0.114198
0.158036 0.465523 4.505462 -0.507907339 0.0945013656 -0.856212372 0.335964 0.077682
0.19514 0.467728 4.483954 -0.493512777 0.0914023664 -0.864922393 0.4196 0.078779
0.193802 0.487347 4.485662 -0.491318017 0.0309011332 -0.870431919 0.418961 0.116577
0.231133 0.491572 4.465333 -0.475427138 0.0298017011 -0.879250189 0.503964 0.117396
0.232602 0.471523 4.46349 -0.47671197 0.0892022399 -0.87452196 0.504302 0.079001
0.270355 0.476986 4.443958 -0.461524863 0.0676036419 -0.884547652 0.589091 0.078845
0.268582 0.496805 4.445458 -0.468096962 0.0120999215 -0.883594265 0.589066 0.117109
0.305877 0.503352 4.425595 -0.457818135 -0.0235009309 -0.888735203 0.67422 0.116176
0.308332 0.484191 4.42525 -0.446694224 0.0230997013 -0.894388436 0.672987 0.078807
0.367887 0.604706 4.433724 -0.0776985634 0.478791147 -0.874483831 0.808275 0.334048
0.388786 0.601645 4.432311 0.0116000173 0.483800723 -0.875101308 0.849306 0.335759
0.395762 0.638308 4.453082 0.0198012739 0.492731698 -0.869955966 0.846266 0.422221
0.37433 0.641743 4.454035 -0.0472000113 0.49920012 -0.865200208 0.806294 0.421412
0.348892 0.64378 4.458665 -0.213709009 0.502021163 -0.838035328 0.755332 0.420748
0.34276 0.606293 4.439025 -0.244520246 0.464638471 -0.851070467 0.756006 0.333001
0.381076 0.678036 4.475497 -0.0468003309 0.522903697 -0.851106017 0.805091 0.507803
0.402611 0.674761 4.474248 0.0123999149 0.506596522 -0.862094082 0.845082 0.508014
0.40941 0.710994 4.495808 -0.00340000836 0.519601278 -0.854402102 0.845518 0.593859
0.388165 0.713841 4.497684 -0.0714034189 0.541225915 -0.837840117 0.804833 0.594289
0.362824 0.715519 4.502882 -0.209512309 0.569633467 -0.794746693 0.753492 0.594561
0.355534 0.68009 4.480123 -0.199104637 0.538112533 -0.819019075 0.754339 0.507589
0.395639 0.749413 4.520166 -0.109003972 0.565620612 -0.817429788 0.805687 0.681937
0.416232 0.746998 4.51776 -0.0215004685 0.537611715 -0.842918367 0.84734 0.680477
0.370901 0.750361 4.52643 -0.24629462 0.603986806 -0.757983442 0.753255 0.682706
0.410995 0.598317 4.430957 0.0119999613 0.48379844 -0.875097178 0.892628 0.338602
0.428651 0.595562 4.429541 -0.0472028736 0.487129655 -0.872053088 0.928351 0.340418
0.437543 0.632423 4.449621 -0.0630009809 0.496907737 -0.865513476 0.926478 0.423938
0.418957 0.634955 4.451453 -0.0023001057 0.492622639 -0.870239993 0.889833 0.423357
0.42611 0.671494 4.472378 -0.00970047907 0.504524917 -0.863342637 0.888969 0.508284
0.44502 0.669113 4.47045 -0.0678009953 0.509807484 -0.85761259 0.926045 0.508569
0.451096 0.705615 4.49205 -0.0640993379 0.522394604 -0.850291217 0.926521 0.593216
0.432507 0.707876 4.493815 -0.00939996705 0.51639819 -0.856296999 0.889589 0.593242
0.4382 0.744042 4.51585 -0.00760040678 0.529228325 -0.84844541 0.891243 0.678089
0.455783 0.741915 4.514442 -0.0596040884 0.5321365 -0.84455793 0.927377 0.676787
0.084337 0.559467 4.602318 -0.833142716 0.338817372 -0.437122412 0.111468 0.333059
0.096826 0.567202 4.584978 -0.787323864 0.357210827 -0.502515231 0.155892 0.330942
0.102292 0.604661 4.604807 -0.780548891 0.398224944 -0.48183018 0.157627 0.41839
0.089047 0.596343 4.623256 -0.833033489 0.364214642 -0.41641674 0.112479 0.418806
0.078746 0.588957 4.638887 -0.814385728 0.373693451 -0.443992219 0.074437 0.418739
0.07469 0.552642 4.616646 -0.809701664 0.365400751 -0.459200944 0.074788 0.33419
0.094784 0.632276 4.645122 -0.821396546 0.388698366 -0.417398245 0.111373 0.504671
0.108951 0.640828 4.626393 -0.77492834 0.420115364 -0.472217269 0.157772 0.505162
0.11577 0.677162 4.647824 -0.777507347 0.403803816 -0.482104556 0.156398 0.591463
0.101328 0.668687 4.666646 -0.823073423 0.384387588 -0.4180865 0.10888 0.590409
0.089756 0.661502 4.682593 -0.802313403 0.404106751 -0.439307339 0.0684 0.590027
0.0835 0.62486 4.660968 -0.803247538 0.393423283 -0.447226468 0.071862 0.504276
0.108462 0.707001 4.686559 -0.843260527 0.37142666 -0.388527888 0.10573 0.675771
0.121715 0.715123 4.667191 -0.775711446 0.397205861 -0.490407236 0.153577 0.677494
0.098317 0.700035 4.703472 -0.823793933 0.402697034 -0.398997061 0.065392 0.67522
0.110147 0.57299 4.570734 -0.697390801 0.397894752 -0.596092138 0.197701 0.329755
0.129193 0.578463 4.555204 -0.615003715 0.433602619 -0.658603978 0.250252 0.329397
0.135433 0.615514 4.575479 -0.604659377 0.460645235 -0.649763807 0.250071 0.417971
0.11608 0.6104 4.590544 -0.684308561 0.439305496 -0.582007281 0.198673 0.418104
0.122831 0.646888 4.611686 -0.687426817 0.454917747 -0.566122085 0.198901 0.505447
0.141836 0.652354 4.595949 -0.612286178 0.468489424 -0.636885622 0.249986 0.505455
0.148533 0.688877 4.616932 -0.602184027 0.48898703 -0.631083261 0.249522 0.592647
0.129648 0.683302 4.632934 -0.685033646 0.447421976 -0.574928238 0.198113 0.592274
0.135775 0.720493 4.653061 -0.645131293 0.46572259 -0.605729382 0.196036 0.679078
0.155654 0.724974 4.638746 -0.543364919 0.537865274 -0.644558385 0.248202 0.680343
0.158858 0.585256 4.534006 -0.565141678 0.454133491 -0.688750794 0.326903 0.329764
0.194372 0.592102 4.51085 -0.522214768 0.459212987 -0.718620323 0.415174 0.330424
0.200922 0.628736 4.531455 -0.529493344 0.465494149 -0.709191086 0.414554 0.418252
0.165374 0.621956 4.554625 -0.563598599 0.465498843 -0.682398304 0.326276 0.418009
0.171378 0.659127 4.574129 -0.570719465 0.467715952 -0.674923019 0.326254 0.505116
0.206652 0.666137 4.550301 -0.530811006 0.471509777 -0.704214602 0.414669 0.50503
0.213349 0.702527 4.570933 -0.503027192 0.554029949 -0.663335858 0.414738 0.592321
0.177998 0.695656 4.594777 -0.552082397 0.522983325 -0.649379295 0.326122 0.592384
0.186362 0.730431 4.618824 -0.49199739 0.601496809 -0.629396661 0.325168 0.681113
0.222801 0.736127 4.596893 -0.449595673 0.649693747 -0.6129941 0.413983 0.68169
0.230963 0.597732 4.489448 -0.476400922 0.449900871 -0.755401462 0.502583 0.330944
0.268754 0.60211 4.469834 -0.427697096 0.440197011 -0.789494639 0.59017 0.33147
0.274485 0.639784 4.489199 -0.424621181 0.474223655 -0.77123847 0.589972 0.419359
0.237096 0.634864 4.509443 -0.485439155 0.466737646 -0.739259627 0.502173 0.418731
0.242851 0.672316 4.528541 -0.477393908 0.487593778 -0.730990673 0.502198 0.505796
0.280473 0.677044 4.509074 -0.407526388 0.510833078 -0.756949014 0.589733 0.50677
0.287842 0.712732 4.531274 -0.383521975 0.591033864 -0.70964066 0.589446 0.594389
0.249888 0.708375 4.549868 -0.445897643 0.57899694 -0.682596392 0.502193 0.593292
0.25987 0.741324 4.57655 -0.410915629 0.672425576 -0.615623416 0.501696 0.682374
0.297719 0.745695 4.557617 -0.376023117 0.667741051 -0.642439495 0.589106 0.682905
0.307867 0.605195 4.452044 -0.365202913 0.445503553 -0.817406519 0.678974 0.332149
0.313681 0.642941 4.47133 -0.34621255 0.488517709 -0.800929034 0.678792 0.420048
0.320017 0.679697 4.492125 -0.324805012 0.530908192 -0.782712077 0.678166 0.507306
0.327435 0.715132 4.514846 -0.315617558 0.586732641 -0.745741487 0.677454 0.594704
0.336495 0.748915 4.539911 -0.33512262 0.640643242 -0.69084663 0.67701 0.683022
0.093581 0.698137 4.710235 -0.691745508 0.467330744 -0.550536218 0.045464 0.677157
0.084489 0.659229 4.68886 -0.68093512 0.460023726 -0.56982939 0.047798 0.591234
0.102618 0.731613 4.72788 -0.699008301 0.474505635 -0.535006353 0.044964 0.753051
0.101281 0.732231 4.729531 -0.829514977 0.422007619 -0.365806605 0.036612 0.756098
0.092191 0.698464 4.711717 -0.837498702 0.40629937 -0.365399434 0.035817 0.679421
0.083035 0.659217 4.690146 -0.847223451 0.38041053 -0.370810264 0.037101 0.592545
0.078273 0.622209 4.667026 -0.682909486 0.44850623 -0.576608009 0.051392 0.504277
0.073791 0.586015 4.6447 -0.688397825 0.438998613 -0.577398175 0.054708 0.417575
0.076757 0.621858 4.668116 -0.850955225 0.356823157 -0.385425013 0.040371 0.504176
0.072212 0.585326 4.645593 -0.849447715 0.346319453 -0.398122363 0.044077 0.416018
0.069898 0.549586 4.621849 -0.683092394 0.437895124 -0.584493492 0.056211 0.33242
0.066458 0.518175 4.602197 -0.662922308 0.447515059 -0.600220198 0.056658 0.25567
0.068256 0.548557 4.622546 -0.846368478 0.345727972 -0.405132779 0.046667 0.329776
0.064763 0.516856 4.602725 -0.843214533 0.355206122 -0.403506955 0.048384 0.252125
0.43589 0.59422 4.427944 -0.20851044 0.504025237 -0.838141967 0.946588 0.339045
0.445148 0.631457 4.448059 -0.213403862 0.510109231 -0.833215077 0.945684 0.423084
0.427601 0.562218 4.410861 -0.198493531 0.506183504 -0.839272649 0.948382 0.263834
0.429203 0.561301 4.409642 0.0616026564 0.465620078 -0.882838069 0.956598 0.260946
0.437546 0.593594 4.426893 0.0664025961 0.459417961 -0.885734628 0.956092 0.336952
0.446867 0.63117 4.447205 0.0772992386 0.469595375 -0.879491337 0.956236 0.422044
0.452789 0.668498 4.469031 -0.213705295 0.519012859 -0.827620504 0.945598 0.508822
0.458814 0.705341 4.49086 -0.21249873 0.527896846 -0.822295087 0.94579 0.594556
0.454571 0.668549 4.468374 0.0834997549 0.487898568 -0.86889745 0.956468 0.509174
0.460658 0.705731 4.490398 0.0841987513 0.506892483 -0.857887278 0.956282 0.596274
0.463221 0.741987 4.513545 -0.212197846 0.533894581 -0.818491692 0.94572 0.678587
0.466661 0.773397 4.533197 -0.21999617 0.532890722 -0.817085775 0.945696 0.75423
0.465128 0.742716 4.51328 0.0775002809 0.519901885 -0.850703084 0.955173 0.681279
0.468621 0.774417 4.533101 0.0707015912 0.515911611 -0.853719213 0.953911 0.757708
0.374462 0.831056 4.629789 -0.393205015 0.708509037 -0.586007475 0.671561 0.946162
0.336119 0.826226 4.649997 -0.405618282 0.70733188 -0.578926093 0.587524 0.941392
0.407377 0.834148 4.611712 -0.391499072 0.703198333 -0.593498593 0.746297 0.949544
0.408802 0.835723 4.612329 -0.291413738 0.881041533 -0.372617566 0.749287 0.957788
0.375588 0.832594 4.630565 -0.294106138 0.883618441 -0.364307603 0.67386 0.9556
0.336897 0.827722 4.650957 -0.317112358 0.883834444 -0.343913403 0.588867 0.95188
0.2979 0.818645 4.668222 -0.411695597 0.708892418 -0.572693875 0.500321 0.934347
0.259929 0.811555 4.686635 -0.397313719 0.714624676 -0.57571988 0.412761 0.930871
0.298329 0.820099 4.669367 -0.334505076 0.876813306 -0.345405242 0.500239 0.945359
0.26001 0.812967 4.687965 -0.312310853 0.876430456 -0.366512737 0.411236 0.941688
0.222334 0.8082 4.707406 -0.379612888 0.718724401 -0.582519777 0.327652 0.936808
0.190165 0.806582 4.726046 -0.377716034 0.720930604 -0.581024665 0.251465 0.945195
0.222066 0.809569 4.70892 -0.274416814 0.886354309 -0.37292285 0.325121 0.946521
0.189598 0.807914 4.727719 -0.267309883 0.891432957 -0.365913528 0.248181 0.953538
0.309506 0.476454 4.423981 -0.457435926 0.231918214 -0.858467422 0.674823 0.060022
0.342634 0.483261 4.408346 -0.458804044 0.216301907 -0.861807597 0.750836 0.060944
0.270992 0.468991 4.442469 -0.465733117 0.249717757 -0.848960367 0.590449 0.059111
0.271177 0.467281 4.441571 -0.443109529 -0.0163003505 -0.896319276 0.592181 0.048586
0.310039 0.474786 4.422898 -0.429685586 -0.00399986583 -0.90296971 0.677549 0.050522
0.343466 0.481629 4.407105 -0.436822082 0.00210010616 -0.899545473 0.754319 0.052696
0.232828 0.463415 4.462049 -0.476998939 0.257299428 -0.84039813 0.504577 0.058998
0.195012 0.459725 4.482723 -0.488426959 0.259114302 -0.833245992 0.418769 0.059185
0.1945 0.457929 4.482195 -0.489122493 -0.0219010071 -0.871940097 0.41772 0.048616
0.232664 0.461662 4.461337 -0.465920077 -0.0226009739 -0.884538116 0.504933 0.048109
0.157545 0.457922 4.50449 -0.496114085 0.262507453 -0.827623497 0.334588 0.059173
0.125464 0.456776 4.523404 -0.494020944 0.278511808 -0.823634919 0.258977 0.058469
0.124304 0.454901 4.523219 -0.498606641 -0.00540007193 -0.866811546 0.255988 0.050169
0.156684 0.456084 4.504147 -0.504120654 -0.0130005326 -0.86353538 0.332456 0.049633
0.063339 0.497038 4.589467 -0.630241301 0.468730717 -0.618940561 0.056808 0.194187
0.058837 0.48039 4.580696 -0.590682253 0.49558511 -0.636780868 0.055715 0.143278
0.061607 0.495524 4.589882 -0.840851378 0.38542355 -0.38002322 0.049473 0.189739
0.057079 0.478729 4.581027 -0.843303365 0.435301737 -0.315201258 0.049195 0.138158
0.051251 0.462442 4.57292 -0.563115044 0.502013411 -0.656417536 0.052434 0.098252
0.050059 0.449646 4.564785 -0.521436325 0.447631183 -0.726450606 0.061462 0.06643
0.049465 0.460635 4.573166 -0.863700648 0.408000306 -0.295900222 0.046811 0.092922
0.04829 0.447733 4.564947 -0.792010106 0.090201151 -0.603807705 0.056583 0.060961
0.422864 0.540884 4.398988 -0.19459654 0.514390854 -0.835185151 0.951139 0.204581
0.420083 0.524138 4.389092 -0.223912742 0.518329496 -0.825346968 0.953103 0.154464
0.421622 0.522879 4.387676 0.0877038683 0.502122147 -0.860337946 0.959435 0.150506
0.424431 0.539772 4.397656 0.0709982588 0.484188125 -0.872078613 0.958317 0.201078
0.417657 0.505898 4.377944 -0.296498455 0.502097384 -0.812395767 0.952516 0.106661
0.411682 0.491903 4.371917 -0.390423885 0.439326877 -0.809049495 0.940389 0.07178
0.413136 0.490383 4.370372 -0.129902201 0.143302428 -0.981116625 0.945505 0.067108
0.41917 0.504492 4.376442 0.0838014649 0.456407978 -0.885815484 0.95814 0.10239
0.168477 0.804705 4.738069 -0.385205992 0.719711195 -0.577608985 0.190668 0.949067
0.151146 0.803053 4.747571 -0.39632186 0.700038612 -0.594032765 0.1395 0.949974
0.16771 0.806013 4.739848 -0.281295356 0.887785343 -0.364293986 0.186701 0.956419
0.150228 0.804342 4.749429 -0.2746129 0.888341731 -0.368017288 0.135026 0.956497
0.13205 0.802107 4.758646 -0.430409004 0.645813511 -0.630613193 0.0922 0.949465
0.117208 0.797309 4.76444 -0.510473083 0.563570284 -0.649465755 0.058571 0.937181
0.130981 0.803378 4.760585 -0.312705977 0.887216959 -0.339206484 0.087503 0.955106
0.116019 0.79853 4.766417 -0.665628722 0.697530099 -0.265311448 0.053613 0.942162
0.103805 0.455057 4.535518 -0.483427508 0.31421788 -0.817046491 0.19888 0.056581
0.085815 0.452402 4.54473 -0.471230506 0.360323326 -0.805052117 0.147315 0.05498
0.084304 0.450484 4.544731 -0.444532225 -0.0231016747 -0.895464915 0.143067 0.048384
0.102445 0.453158 4.535439 -0.473398921 -0.00939997857 -0.880797992 0.195166 0.049228
0.06474 0.448448 4.554937 -0.472492357 0.400093529 -0.785287298 0.097299 0.055135
0.063078 0.446512 4.555018 -0.482804565 -0.0355003357 -0.875008273 0.092771 0.049205
0.429314 0.836515 4.599876 -0.399621272 0.685736503 -0.608332382 0.805593 0.952429
0.447114 0.838994 4.590659 -0.412690886 0.65518553 -0.632786025 0.856392 0.953883
0.44889 0.840612 4.59109 -0.312007636 0.882821608 -0.351108593 0.860517 0.960376
0.430939 0.838115 4.600387 -0.300711659 0.880934154 -0.365414167 0.809217 0.959713
0.467616 0.842416 4.580435 -0.41560905 0.617813453 -0.667514535 0.905634 0.952974
0.481916 0.840865 4.570576 -0.372115097 0.568223053 -0.733929776 0.941035 0.941026
0.483949 0.842479 4.570846 0.0258010454 0.76983119 -0.637725838 0.945819 0.946344
0.469544 0.844053 4.580786 -0.267010982 0.889536587 -0.370715248 0.910051 0.958779
0.364642 0.486867 4.397325 -0.471790781 0.223995623 -0.852783337 0.811625 0.061088
0.381268 0.488126 4.387984 -0.484016142 0.270109008 -0.832327759 0.86224 0.060801
0.365674 0.48526 4.395978 -0.465305037 -0.00850009201 -0.885109581 0.815772 0.053885
0.382451 0.486537 4.386557 -0.504818729 -0.0370013728 -0.862431997 0.866877 0.054522
0.39825 0.487892 4.377389 -0.465222934 0.34911721 -0.8134401 0.907729 0.060429
0.399584 0.486321 4.375883 -0.467801373 -0.0520001526 -0.88230259 0.912603 0.055041
0.108663 0.752338 4.738527 -0.691648521 0.476733444 -0.54253806 0.046877 0.809921
0.111933 0.767454 4.746992 -0.661434736 0.467424547 -0.586530802 0.048821 0.85681
0.110659 0.768413 4.748841 -0.846982758 0.358735052 -0.392338335 0.042416 0.861458
0.107362 0.753151 4.740291 -0.827543377 0.415421775 -0.377619793 0.039575 0.81387
0.112642 0.784101 4.758092 -0.598708475 0.486606888 -0.636209006 0.048415 0.902763
0.111395 0.785207 4.760026 -0.86467882 0.353091351 -0.357291248 0.04284 0.907584
0.46978 0.794534 4.545927 -0.242610562 0.522122731 -0.817635597 0.946024 0.814804
0.474091 0.811006 4.554693 -0.281716888 0.506130341 -0.815148866 0.947348 0.864963
0.471777 0.795749 4.545943 0.0711993129 0.484495325 -0.871891586 0.953271 0.819081
0.476115 0.812367 4.554794 0.0911003749 0.419001724 -0.903403718 0.953743 0.869856
0.481105 0.828422 4.562452 -0.320709766 0.509415512 -0.798524315 0.950313 0.909363
0.483156 0.82993 4.562638 0.126704753 0.432816235 -0.89253348 0.955821 0.91449
0.484194 0.830034 4.563276 0.702511995 0.230203931 -0.673411499 0.961918 0.918291
0.484981 0.842618 4.571512 0.561515843 0.785422161 -0.260407347 0.950685 0.951684
0.477143 0.812422 4.555404 0.690893126 0.108998915 -0.714692889 0.960707 0.872195
0.477674 0.811823 4.556268 0.846098227 -0.0186999608 -0.532698884 0.967954 0.873258
0.484724 0.829436 4.56414 0.869821659 0.0654016285 -0.489012177 0.96831 0.92143
0.485512 0.842019 4.572376 0.759916335 0.649813968 -0.0164003525 0.955592 0.957037
0.472796 0.795754 4.546525 0.698720592 0.232906864 -0.676419934 0.960806 0.8208
0.469629 0.774358 4.533644 0.70171441 0.303006222 -0.644813241 0.962141 0.759242
0.47016 0.773759 4.534508 0.885939749 0.153906905 -0.43751963 0.970378 0.759803
0.473327 0.795156 4.547389 0.875297313 0.0901997231 -0.475098541 0.968486 0.82124
0.111334 0.785177 4.761246 -0.969079427 0.078898325 0.233795037 0.036853 0.910851
0.110589 0.768334 4.750033 -0.979744158 -0.00760034256 0.200109019 0.035941 0.863415
0.115977 0.798538 4.767652 -0.649226924 0.652927077 0.390116178 0.048378 0.946954
0.116508 0.797939 4.768516 -0.529288496 0.509688922 0.678285258 0.043004 0.95165
0.111864 0.784578 4.76211 -0.876391477 -0.0956990693 0.47199541 0.030662 0.91334
0.111119 0.767735 4.750896 -0.885639903 -0.152206858 0.438719767 0.02943 0.864027
0.107282 0.753023 4.741454 -0.964314836 0.110701703 0.2405037 0.032484 0.815126
0.101189 0.732038 4.730657 -0.957546102 0.136506572 0.253912225 0.02858 0.75695
0.107813 0.752424 4.742318 -0.865703471 -0.0485001945 0.498201998 0.025497 0.815037
0.101719 0.731439 4.731521 -0.859613539 -0.0255004016 0.510308037 0.02071 0.756705
0.400383 0.485399 4.375957 -0.249893347 -0.650982668 -0.716780916 0.916414 0.049069
0.413974 0.489477 4.370433 0.309211402 -0.340012538 -0.888132751 0.950754 0.062424
0.3832 0.485608 4.386657 -0.361607896 -0.681614883 -0.63611389 0.869313 0.0476
0.38373 0.48501 4.387521 -0.238194792 -0.860681181 -0.449990161 0.870648 0.040356
0.400913 0.4848 4.37682 -0.1339028 -0.851117797 -0.507610614 0.919695 0.042806
0.414505 0.488878 4.371296 0.489912868 -0.546114344 -0.679517848 0.95607 0.057732
0.366372 0.484325 4.396105 -0.293316695 -0.660837613 -0.69083932 0.817596 0.046326
0.344097 0.480686 4.407268 -0.237108179 -0.644822244 -0.726625065 0.755931 0.044409
0.344628 0.480087 4.408132 -0.0998034662 -0.845529366 -0.524518217 0.756607 0.036103
0.366903 0.483726 4.396969 -0.159701592 -0.85460852 -0.494104926 0.818258 0.03859
0.47054 0.844199 4.58148 0.0940048019 0.97784995 0.187009553 0.91325 0.964973
0.449836 0.840752 4.591809 -0.0120001569 0.962812589 0.269903529 0.862206 0.967119
0.47107 0.843601 4.582343 0.237196835 0.860588515 0.450693986 0.915841 0.971361
0.450367 0.840154 4.592673 0.129295685 0.850471616 0.509882983 0.862678 0.973987
0.431835 0.83825 4.601133 0.0110005378 0.967947324 0.250912267 0.810145 0.967084
0.409631 0.835849 4.613111 0.0300013501 0.971043698 0.237010666 0.749829 0.966013
0.432366 0.837651 4.601997 0.1565103 0.85425622 0.495732625 0.809725 0.9745
0.410162 0.83525 4.613974 0.177101089 0.856505267 0.484802982 0.749147 0.974228
0.062877 0.445468 4.555621 -0.36030488 -0.657108901 -0.662108968 0.089524 0.042888
0.084154 0.449446 4.545307 -0.24050264 -0.661207257 -0.710607799 0.141345 0.041552
0.048055 0.446696 4.565577 -0.86582888 -0.442614764 -0.233307782 0.051627 0.055476
0.048586 0.446097 4.566441 -0.760323194 -0.649319808 0.0171005217 0.046632 0.049983
0.063408 0.444869 4.556485 -0.217011461 -0.859745404 -0.462324416 0.086918 0.036378
0.084684 0.448847 4.546171 -0.115701257 -0.848309217 -0.516705614 0.140886 0.034603
0.102345 0.452126 4.535988 -0.291625635 -0.659257951 -0.693060923 0.194156 0.041788
0.124271 0.453877 4.523733 -0.343923107 -0.657944205 -0.669945012 0.255282 0.041858
0.102876 0.451527 4.536852 -0.165507353 -0.855337999 -0.49092181 0.1945 0.034303
0.124802 0.453279 4.524597 -0.215491534 -0.859666224 -0.463181802 0.255718 0.033543
0.130978 0.803403 4.761807 -0.0657006012 0.958908774 0.276002525 0.08367 0.961243
0.150276 0.804373 4.750625 0.0643002736 0.970204128 0.233600994 0.132626 0.963667
0.150807 0.803775 4.751489 0.202602944 0.858712477 0.470706839 0.131263 0.97116
0.131509 0.802804 4.762671 0.0946017115 0.844515278 0.527109535 0.080269 0.967629
0.167808 0.80605 4.741017 0.0428999462 0.969898783 0.239699699 0.185145 0.964172
0.189763 0.807959 4.728852 0.0621033378 0.970752175 0.231912464 0.247027 0.961976
0.190294 0.807361 4.729716 0.206105754 0.85902398 0.468613082 0.246938 0.970462
0.168339 0.805452 4.74188 0.186102232 0.857410285 0.479805755 0.184794 0.972124
0.420027 0.503625 4.376517 0.667350157 0.171812913 -0.724654463 0.964186 0.099351
0.422489 0.52206 4.38778 0.710492277 0.282996924 -0.644292997 0.966019 0.14891
0.420558 0.503026 4.377381 0.859187688 0.0240996547 -0.511092676 0.970444 0.096928
0.42302 0.521462 4.388644 0.883516283 0.136702519 -0.448008257 0.972729 0.148496
0.425307 0.539002 4.397789 0.698382579 0.252293707 -0.669783292 0.965562 0.200162
0.430091 0.560596 4.409812 0.685849942 0.216315752 -0.694850597 0.964775 0.260322
0.425838 0.538404 4.398652 0.877095321 0.0994994692 -0.469897493 0.97284 0.200539
0.430622 0.559997 4.410676 0.868586289 0.0599990529 -0.491892236 0.972931 0.260828
0.049224 0.459633 4.573823 -0.963019357 0.0858017246 0.255405134 0.040588 0.088997
0.056846 0.477776 4.581713 -0.927558239 0.17471097 0.33032074 0.042091 0.135729
0.057377 0.477177 4.582577 -0.842041657 0.0309015287 0.538526642 0.034697 0.134646
0.049754 0.459034 4.574687 -0.865002015 -0.045500106 0.499701164 0.034065 0.085775
0.061384 0.494621 4.590597 -0.967974969 0.0755980451 0.239393809 0.041818 0.187948
0.064551 0.516017 4.603477 -0.981948259 0.012900634 0.188709274 0.040055 0.250514
0.065082 0.515418 4.604342 -0.885939749 -0.153906905 0.43751963 0.031698 0.249871
0.061915 0.494022 4.591461 -0.87452084 -0.0865020614 0.477211372 0.034004 0.187487
0.156751 0.455072 4.504608 -0.358019319 -0.660235627 -0.660235627 0.332048 0.040027
0.194683 0.456932 4.482595 -0.330392005 -0.662983956 -0.671783743 0.417708 0.037894
0.157282 0.454474 4.505472 -0.229206095 -0.860322876 -0.455312107 0.332501 0.030388
0.195213 0.456333 4.483459 -0.202104354 -0.858718501 -0.470910146 0.418213 0.027095
0.232963 0.460678 4.461675 -0.28702168 -0.660549893 -0.693752401 0.505518 0.037056
0.271592 0.466311 4.441848 -0.244999907 -0.652599752 -0.716999728 0.593327 0.037949
0.233494 0.460079 4.462539 -0.15800092 -0.854404973 -0.495002881 0.506216 0.025922
0.272123 0.465713 4.442711 -0.113602487 -0.847918565 -0.517811338 0.594181 0.027257
0.31057 0.473831 4.423113 -0.221007836 -0.643522817 -0.732825983 0.678987 0.041008
0.311101 0.473232 4.423977 -0.0858020091 -0.842819735 -0.531312441 0.67978 0.031488
0.22233 0.809626 4.710001 0.0625007356 0.971511435 0.228602691 0.324076 0.9563
0.260391 0.813038 4.688984 -0.000299987428 0.967259463 0.253789364 0.41027 0.952643
0.260922 0.812439 4.689848 0.142901107 0.852506607 0.502803897 0.409584 0.963668
0.222861 0.809027 4.710865 0.204793188 0.858971427 0.46928439 0.323774 0.966111
0.298826 0.820184 4.670325 -0.0485024247 0.958447914 0.281114053 0.499586 0.956508
0.33751 0.827822 4.651853 -0.0186993304 0.962765524 0.269690343 0.588633 0.962456
0.338041 0.827223 4.652717 0.120693316 0.849152971 0.514171523 0.587609 0.973075
0.299357 0.819586 4.671189 0.0923953337 0.844157367 0.52807333 0.498648 0.967727
0.376317 0.832708 4.631399 0.0246996864 0.969887687 0.242296924 0.674019 0.965047
0.376848 0.83211 4.632263 0.168894398 0.855671618 0.489183774 0.673108 0.974497
0.466118 0.74256 4.513768 0.704411517 0.314505142 -0.636310404 0.964636 0.682655
0.461626 0.705462 4.490821 0.705110147 0.291504195 -0.646409302 0.966888 0.597379
0.462157 0.704863 4.491684 0.884332345 0.143005231 -0.444416255 0.977549 0.598178
0.466648 0.741961 4.514631 0.887198439 0.165199709 -0.430799242 0.974104 0.683372
0.455518 0.668167 4.46873 0.700916367 0.256005978 -0.665715545 0.967494 0.509754
0.447794 0.630675 4.447496 0.692489744 0.222096711 -0.686389835 0.966918 0.422068
0.448324 0.630076 4.44836 0.871107204 0.0712005888 -0.485904018 0.977664 0.422623
0.456049 0.667568 4.469594 0.878597571 0.107099704 -0.465398713 0.978599 0.510449
0.438452 0.592986 4.427119 0.684004583 0.203201361 -0.700604694 0.965619 0.336607
0.438983 0.592387 4.427983 0.865763232 0.0486979318 -0.498078847 0.975157 0.337136
0.068063 0.547815 4.623354 -0.983854699 -0.00460025576 0.178909947 0.037087 0.328286
0.07204 0.584697 4.646467 -0.982586907 -0.00149998001 0.185797524 0.033332 0.41477
0.072571 0.584098 4.647331 -0.887195151 -0.1646991 0.430997645 0.02253 0.413678
0.068593 0.547217 4.624218 -0.887890256 -0.170498129 0.42729531 0.027489 0.327372
0.076606 0.621342 4.669055 -0.978855904 0.020799063 0.203490833 0.029209 0.503476
0.082904 0.658814 4.691151 -0.971206347 0.0657004294 0.229001497 0.026334 0.592478
0.083435 0.658216 4.692015 -0.87596762 -0.0936965366 0.473182509 0.015533 0.591721
0.077136 0.620744 4.669919 -0.883909286 -0.139701468 0.446304688 0.017974 0.502476
0.092081 0.698174 4.712787 -0.962789669 0.109898821 0.246897351 0.026328 0.679851
0.092611 0.697575 4.713651 -0.86622558 -0.0503014854 0.49711468 0.016917 0.679365
0.467266 0.741264 4.515637 0.983205654 0.000100000575 -0.182501049 0.676253 0.954109
0.462603 0.703538 4.493564 0.849729512 -0.356612385 0.388313486 0.591269 0.945074
0.462775 0.704166 4.492691 0.979747181 -0.0182008765 -0.199409603 0.591272 0.955722
0.467073 0.740522 4.516446 0.847052565 -0.348021597 0.40172493 0.675867 0.94465
0.470566 0.772224 4.536266 0.843214533 -0.355206122 0.403506955 0.751321 0.944733
0.470778 0.773063 4.535514 0.981948259 -0.012900634 -0.188709274 0.75198 0.952808
0.470247 0.773661 4.53465 0.885900983 0.153900171 -0.437600486 0.751479 0.960877
0.466736 0.741863 4.514773 0.887272588 0.165094899 -0.430686694 0.675778 0.963597
0.462244 0.704765 4.491827 0.884445369 0.142907331 -0.444222787 0.590751 0.966441
0.456667 0.666872 4.4706 0.973784454 -0.051799173 -0.221496464 0.503637 0.95652
0.448812 0.628976 4.450371 0.842826153 -0.393912223 0.366711379 0.416829 0.945336
0.448942 0.629379 4.449367 0.966942493 -0.0875038454 -0.239510526 0.415715 0.956002
0.456515 0.666356 4.471539 0.847916933 -0.374307475 0.375407497 0.504207 0.945485
0.456136 0.66747 4.469736 0.878556679 0.107094719 -0.465477048 0.502957 0.967636
0.448412 0.629978 4.448503 0.871179837 0.0710983544 -0.485788757 0.414913 0.966731
0.439601 0.59169 4.428989 0.962612899 -0.11120149 -0.24700331 0.329874 0.953665
0.431148 0.559107 4.412808 0.833868343 -0.405584602 0.374385787 0.254303 0.942442
0.43124 0.5593 4.411682 0.965944236 -0.0996045615 -0.238810937 0.252676 0.950825
0.439491 0.5914 4.430059 0.835809975 -0.408504876 0.366804378 0.331283 0.944085
0.43907 0.592289 4.428125 0.865806351 0.0487003572 -0.498003653 0.329132 0.96327
0.430709 0.559899 4.410818 0.868586289 0.0599990529 -0.491892236 0.25198 0.959256
0.069211 0.546519 4.625224 -0.704412982 -0.319705892 0.633711679 0.33846 0.022081
0.074157 0.583132 4.648759 -0.0822036113 -0.519122806 0.850737374 0.424618 0.029922
0.073188 0.583401 4.648337 -0.706821329 -0.31250943 0.63461915 0.424455 0.019104
0.070201 0.546363 4.625711 -0.0759054707 -0.523137704 0.84886118 0.338974 0.031653
0.066708 0.514662 4.605891 -0.0708010925 -0.515907961 0.853713173 0.262499 0.032205
0.0657 0.514721 4.605347 -0.70171441 -0.303006222 0.644813241 0.261758 0.024045
0.065169 0.51532 4.604483 -0.885900983 -0.153900171 0.437600486 0.262188 0.015879
0.068681 0.547118 4.62436 -0.887928192 -0.170505414 0.427213564 0.33878 0.012459
0.072658 0.583999 4.647473 -0.887254667 -0.164691585 0.430877985 0.424758 0.008191
0.077754 0.620047 4.670925 -0.706114754 -0.286805993 0.647413528 0.51302 0.015788
0.08498 0.657024 4.693312 -0.0833032035 -0.481218506 0.872633558 0.601239 0.024771
0.084053 0.657519 4.69302 -0.69792596 -0.242609024 0.673825063 0.602277 0.01388
0.078702 0.619665 4.671281 -0.08660344 -0.505220068 0.858634106 0.512588 0.027071
0.077223 0.620645 4.670061 -0.883982939 -0.139597306 0.446191389 0.513483 0.004392
0.083522 0.658117 4.692156 -0.876009067 -0.0937009698 0.473104897 0.602939 0.002924
0.093229 0.696878 4.714656 -0.684494435 -0.203998342 0.69989431 0.69035 0.015127
0.103225 0.730037 4.732696 -0.0570005643 -0.449204447 0.891608827 0.766748 0.027135
0.102337 0.730742 4.732527 -0.673831947 -0.1835087 0.715733934 0.768478 0.019023
0.094135 0.69627 4.714882 -0.0693003971 -0.460202637 0.885105072 0.688926 0.024688
0.092699 0.697477 4.713793 -0.866178155 -0.050398729 0.497187461 0.691111 0.005648
0.101807 0.731341 4.731663 -0.859611343 -0.0256003378 0.510306734 0.76931 0.011065
0.223479 0.80833 4.711871 0.331198592 0.668497159 0.66589717 0.960104 0.317777
0.261955 0.810773 4.691131 0.45872718 0.00660039108 0.888552648 0.945904 0.403823
0.261539 0.811742 4.690854 0.27529895 0.656497495 0.702297321 0.956795 0.403842
0.224011 0.807375 4.712086 0.48999658 0.0239998325 0.871393918 0.950596 0.317976
0.191543 0.805721 4.730885 0.491920509 0.0350014592 0.869936268 0.957635 0.242037
0.190912 0.806664 4.730722 0.328415303 0.670431239 0.665331002 0.965591 0.241625
0.190381 0.807262 4.729858 0.206096095 0.858983722 0.468691118 0.973522 0.242466
0.222948 0.808929 4.711007 0.204810779 0.858945208 0.469324701 0.969622 0.318562
0.261009 0.812341 4.68999 0.142901107 0.852506607 0.502803897 0.967759 0.404441
0.299975 0.818889 4.672194 0.224496536 0.650589961 0.725488806 0.960652 0.492891
0.338841 0.825529 4.654123 0.44431161 0.0250006533 0.8955234 0.955386 0.581353
0.338658 0.826526 4.653723 0.251697209 0.657692706 0.709992126 0.966213 0.582148
0.300274 0.817905 4.672533 0.431793823 0.0123998226 0.901887099 0.949378 0.492505
0.299444 0.819487 4.67133 0.0923953337 0.844157367 0.52807333 0.972033 0.493314
0.338128 0.827125 4.652859 0.120703564 0.849125075 0.514215185 0.977143 0.582461
0.377466 0.831413 4.633269 0.298893834 0.660586372 0.688685793 0.968015 0.668839
0.410747 0.833529 4.615494 0.477312778 0.0139003721 0.878623521 0.958979 0.745238
0.41078 0.834553 4.61498 0.306112289 0.659526477 0.686527561 0.967516 0.746744
0.377532 0.830401 4.63373 0.471317293 0.0202007412 0.881732351 0.9583 0.667696
0.376935 0.832011 4.632405 0.168894398 0.855671618 0.489183774 0.977785 0.669166
0.410249 0.835152 4.614116 0.177094505 0.856573421 0.48468496 0.97612 0.747234
0.1579 0.453776 4.506478 -0.0783996891 -0.975596132 -0.205099187 0.040661 0.310729
0.126249 0.452708 4.526384 0.27481804 -0.877857624 0.392225747 0.052728 0.234146
0.12542 0.452582 4.525603 -0.0626038252 -0.97525959 -0.212012954 0.044135 0.23245
0.158629 0.45389 4.507312 0.265907528 -0.881624959 0.389911039 0.050367 0.312169
0.196444 0.455736 4.485361 0.276303622 -0.885311607 0.374004903 0.048638 0.398344
0.195831 0.455636 4.484465 -0.0556034375 -0.972860144 -0.224613886 0.0379 0.397235
0.195301 0.456235 4.483601 -0.202104354 -0.858718501 -0.470910146 0.027097 0.396427
0.157369 0.454375 4.505614 -0.229206095 -0.860322876 -0.455312107 0.030921 0.309951
0.124889 0.45318 4.524739 -0.215595428 -0.859581773 -0.463290176 0.035474 0.231703
0.234112 0.459382 4.463544 -0.0142998872 -0.968192366 -0.24979803 0.037551 0.485525
0.234609 0.459468 4.464502 0.298118672 -0.884355389 0.359222499 0.048636 0.486046
0.273122 0.465087 4.444736 0.322304909 -0.879713398 0.349605325 0.049738 0.573301
0.272741 0.465016 4.443717 0.029701665 -0.962453952 -0.269815125 0.039054 0.573389
0.27221 0.465614 4.442853 -0.113598736 -0.847990566 -0.517694241 0.028294 0.572968
0.233581 0.459981 4.462681 -0.158098421 -0.854391469 -0.494995057 0.026383 0.484897
0.311719 0.472535 4.424984 0.0584991591 -0.958886216 -0.277696008 0.041847 0.658614
0.311984 0.472593 4.426064 0.340315214 -0.872539008 0.35051567 0.051321 0.658134
0.345411 0.479436 4.410271 0.336606412 -0.87031658 0.359506849 0.052373 0.733678
0.345246 0.47939 4.409137 0.0442015816 -0.962234429 -0.268609611 0.044306 0.734422
0.344715 0.479989 4.408274 -0.0998972319 -0.845476572 -0.524585464 0.036244 0.734046
0.311188 0.473134 4.424119 -0.0858020091 -0.842819735 -0.531312441 0.032344 0.65825
0.426455 0.537707 4.399658 0.973265785 -0.0577039003 -0.222315027 0.190681 0.948796
0.423567 0.520685 4.390841 0.851279884 -0.359091515 0.382590959 0.140877 0.939245
0.423638 0.520765 4.389649 0.977681097 -0.0182996462 -0.209295953 0.138263 0.946252
0.426376 0.537579 4.400822 0.840916961 -0.38420775 0.381107687 0.192619 0.941122
0.425925 0.538306 4.398794 0.877104043 0.0994004583 -0.469902166 0.189821 0.956688
0.423107 0.521363 4.388785 0.883516283 0.136702519 -0.448008257 0.1366 0.953609
0.421176 0.502329 4.378387 0.954281878 -0.151797117 -0.25749511 0.089796 0.941869
0.415081 0.488189 4.373538 0.63748254 -0.722280217 0.268192654 0.060297 0.921975
0.415123 0.488181 4.372303 0.615178445 -0.685175992 -0.389986335 0.055056 0.926515
0.421114 0.502299 4.379608 0.844842226 -0.402020093 0.353017644 0.093723 0.935936
0.420645 0.502928 4.377523 0.859187688 0.0240996547 -0.511092676 0.086264 0.948062
0.414592 0.48878 4.371439 0.489995394 -0.546194866 -0.679393614 0.049666 0.930963
0.062533 0.493325 4.592467 -0.698325828 -0.228508452 0.678325088 0.201075 0.024323
0.063552 0.493331 4.593048 -0.0711991762 -0.482694415 0.872889901 0.202033 0.031515
0.059023 0.476535 4.584192 -0.0927024038 -0.411410668 0.906723512 0.151873 0.02931
0.057995 0.47648 4.583582 -0.689217227 -0.0941023521 0.718417957 0.15029 0.022739
0.057464 0.477079 4.582718 -0.841996308 0.0308998645 0.538597638 0.150233 0.016103
0.062002 0.493923 4.591603 -0.874544359 -0.086494497 0.477169641 0.201622 0.017129
0.050372 0.458337 4.575694 -0.701323095 -0.209306893 0.68142244 0.103285 0.019122
0.05141 0.458441 4.576332 -0.130098125 -0.419493955 0.898387054 0.106312 0.025317
0.050235 0.445539 4.568113 -0.0292994543 -0.769985659 0.637388129 0.073022 0.033479
0.049204 0.4454 4.567447 -0.562577213 -0.784668218 0.260389453 0.068255 0.027906
0.048673 0.445999 4.566583 -0.760273824 -0.649377642 0.0170994113 0.063647 0.022146
0.049842 0.458936 4.57483 -0.864933603 -0.0455017678 0.499819418 0.101172 0.01269
0.432984 0.836954 4.603004 0.284203948 0.659709163 0.695709663 0.966175 0.809643
0.450835 0.838418 4.594255 0.451625714 0.0214012185 0.891950785 0.956155 0.860524
0.450984 0.839457 4.593679 0.255619118 0.660949434 0.70555277 0.963417 0.863279
0.432884 0.835922 4.603553 0.466934223 0.0150010995 0.884164803 0.958283 0.807683
0.432453 0.837553 4.602139 0.15649693 0.854283243 0.495690277 0.974307 0.810472
0.450454 0.840055 4.592815 0.129295685 0.850471616 0.509882983 0.971048 0.865052
0.471688 0.842904 4.583349 0.380313102 0.654922562 0.653022497 0.958665 0.913394
0.485894 0.840285 4.574012 0.789883199 -0.092198039 0.606287104 0.938577 0.943206
0.48613 0.841322 4.573382 0.86563038 0.442315523 0.234608234 0.943214 0.948667
0.471488 0.841859 4.583952 0.494396653 0.0306997922 0.868694119 0.952537 0.909256
0.471158 0.843502 4.582485 0.237207524 0.8606273 0.450614294 0.965043 0.917151
0.485599 0.841921 4.572518 0.759824691 0.64992112 -0.0164005329 0.947696 0.954314
0.367521 0.483029 4.397975 -0.020101196 -0.969057656 -0.246014637 0.044807 0.794035
0.367619 0.483066 4.399144 0.305228545 -0.87778209 0.369234531 0.051879 0.793067
0.384396 0.484344 4.389723 0.253714682 -0.892751661 0.372321545 0.05071 0.842492
0.384348 0.484313 4.388527 -0.106404492 -0.96954093 -0.220609313 0.044321 0.844048
0.383818 0.484911 4.387663 -0.238194792 -0.860681181 -0.449990161 0.037816 0.844316
0.36699 0.483628 4.397111 -0.159701592 -0.85460852 -0.494104926 0.037706 0.793661
0.401531 0.484103 4.377826 0.0274012932 -0.963745485 -0.265412526 0.043817 0.891058
0.401529 0.484128 4.379048 0.282007321 -0.897823308 0.33820878 0.049738 0.888144
0.401001 0.484702 4.376962 -0.133898199 -0.851188552 -0.507493174 0.037659 0.893232
0.168957 0.804755 4.742887 0.311523973 0.666951324 0.676852086 0.968269 0.182319
0.169655 0.80382 4.743013 0.480791536 0.0280995053 0.876384571 0.961202 0.183082
0.152173 0.802149 4.752595 0.487523165 0.028601359 0.872641465 0.962307 0.133628
0.151425 0.803078 4.752495 0.328410935 0.672322385 0.663422089 0.968841 0.132104
0.150894 0.803676 4.751631 0.202499185 0.858796543 0.470598106 0.975485 0.131817
0.168426 0.805353 4.742023 0.186102232 0.857410285 0.479805755 0.975356 0.182947
0.132127 0.802107 4.763677 0.218008884 0.638926037 0.737730063 0.96801 0.083225
0.132925 0.801185 4.763751 0.445383922 0.0319988449 0.894767699 0.961956 0.086195
0.117964 0.796337 4.769582 0.100101491 -0.166102473 0.981014607 0.950472 0.051299
0.117126 0.797242 4.769522 -0.344208191 0.308907351 0.886621097 0.955797 0.046713
0.116595 0.797841 4.768658 -0.52918953 0.509789914 0.67828658 0.96119 0.042126
0.131596 0.802706 4.762813 0.0945987078 0.844588463 0.526992801 0.974271 0.080891
0.103494 0.45083 4.537858 -0.0167995924 -0.969176488 -0.245794037 0.046625 0.16884
0.086248 0.448291 4.547896 0.317791088 -0.882975237 0.345490311 0.056717 0.117183
0.085302 0.44815 4.547177 0.0241012902 -0.959751377 -0.279814979 0.049316 0.114374
0.10439 0.450964 4.538604 0.297197252 -0.878691877 0.373596546 0.054624 0.170901
0.102963 0.451428 4.536994 -0.165499227 -0.855296006 -0.490997707 0.038374 0.16792
0.084772 0.448749 4.546313 -0.115695279 -0.848265383 -0.516778911 0.041534 0.112596
0.064026 0.444172 4.55749 -0.0772018027 -0.976522802 -0.201104696 0.053396 0.063526
0.065022 0.444319 4.558184 0.275706315 -0.891320416 0.359908244 0.05967 0.067738
0.063496 0.444771 4.556627 -0.217096715 -0.859686993 -0.462393004 0.046863 0.059726
0.473945 0.794459 4.548395 0.968962575 -0.0719972192 -0.236490866 0.811851 0.952947
0.473722 0.793555 4.549109 0.841104685 -0.383802138 0.381102123 0.810953 0.945843
0.47806 0.810174 4.55796 0.843670362 -0.429884898 0.321588703 0.860431 0.948119
0.478292 0.811127 4.557273 0.932878124 -0.163996154 -0.32069248 0.861949 0.954583
0.477761 0.811725 4.55641 0.846026312 -0.0186005785 -0.532816571 0.862005 0.961119
0.473414 0.795058 4.547531 0.875289413 0.0902989078 -0.475094254 0.811291 0.960049
0.485342 0.828739 4.565146 0.967998098 -0.0692998638 -0.241199526 0.908356 0.957777
0.485101 0.827737 4.565804 0.863907598 -0.398803507 0.307602705 0.905424 0.9517
0.484811 0.829337 4.564282 0.869779121 0.0653984301 -0.48908826 0.910412 0.964089
0.108431 0.751727 4.743324 -0.680794741 -0.209098385 0.701994577 0.827899 0.025063
0.112604 0.76622 4.752007 -0.0789049167 -0.507631632 0.857953461 0.873734 0.037537
0.111737 0.767038 4.751903 -0.717504732 -0.303402001 0.627004135 0.876514 0.030752
0.109307 0.750957 4.743456 -0.0508977946 -0.460380052 0.886261599 0.825805 0.032424
0.1079 0.752326 4.74246 -0.865703471 -0.0485001945 0.498201998 0.828844 0.017678
0.111206 0.767637 4.751039 -0.885700314 -0.152200054 0.438600156 0.878163 0.023735
0.112482 0.783881 4.763116 -0.69372222 -0.231507415 0.682021846 0.922222 0.033595
0.11334 0.783014 4.763191 -0.115098208 -0.492292335 0.862786567 0.918178 0.039454
0.111951 0.78448 4.762252 -0.87639986 -0.0955999847 0.471999924 0.925716 0.027479
0.114852 0.781608 4.76169 0.322593009 -0.51728879 0.792682823 0.913031 0.044796
0.12432 0.790468 4.762481 0.402529939 -0.458234082 0.792458941 0.933821 0.067737
0.119418 0.794816 4.768037 0.395224584 -0.456628403 0.797049578 0.945284 0.055885
0.121084 0.780278 4.757995 0.326704335 -0.474106291 0.81761085 0.908625 0.060066
0.120545 0.763379 4.7479 0.189698766 -0.446597095 0.874394312 0.86396 0.059841
0.114143 0.764961 4.75059 0.267504546 -0.512408708 0.816013868 0.868694 0.043853
0.110873 0.749845 4.742125 0.206001037 -0.489702466 0.847204266 0.821411 0.039738
0.117918 0.74765 4.740357 0.039399409 -0.410993835 0.910786338 0.817325 0.057111
0.112662 0.726504 4.730412 -0.0651007809 -0.423805084 0.903410836 0.760143 0.054485
0.104828 0.72912 4.731478 0.160203347 -0.486410164 0.858917947 0.763225 0.035557
0.483315 0.825929 4.56605 0.602844196 -0.486535669 0.632346359 0.900739 0.946093
0.471408 0.805062 4.562619 0.780534988 -0.38571729 0.491922051 0.852006 0.925864
0.476301 0.808513 4.55829 0.664619138 -0.479513808 0.5730165 0.855993 0.941797
0.477311 0.822805 4.569544 0.659831947 -0.410719885 0.629230465 0.89703 0.930548
0.477478 0.832651 4.57517 0.565112303 -0.389808486 0.727115829 0.922771 0.925189
0.484126 0.838372 4.574174 0.537405103 -0.431104093 0.724806882 0.933628 0.938115
0.47199 0.792041 4.549525 0.710935366 -0.443322054 0.545927158 0.80714 0.938738
0.464795 0.767067 4.542429 0.884547117 -0.312916668 0.345918426 0.746422 0.919408
0.468871 0.770904 4.536795 0.729925424 -0.421214671 0.53831875 0.748341 0.936645
0.467717 0.788317 4.554567 0.856885994 -0.336194505 0.390793613 0.80405 0.922278
0.06695 0.445955 4.558535 0.402825884 -0.650141776 0.644241397 0.065424 0.072771
0.059751 0.452456 4.568338 0.328999187 -0.609498495 0.721298218 0.089327 0.05191
0.052269 0.447153 4.568383 0.358816086 -0.5777259 0.733132867 0.078105 0.038675
0.070898 0.451282 4.561771 0.324799607 -0.708699142 0.626299242 0.080764 0.078056
0.09182 0.454323 4.552769 0.292906892 -0.823819385 0.48531142 0.079403 0.127096
0.088025 0.449909 4.548327 0.39330567 -0.713210281 0.580208364 0.063353 0.122052
0.106015 0.452564 4.539115 0.366202305 -0.75610476 0.542403414 0.062118 0.175244
0.109892 0.4564 4.54439 0.251491707 -0.890870624 0.378287526 0.078988 0.179083
0.131634 0.457918 4.532876 0.232107082 -0.91412789 0.332410142 0.079036 0.240245
0.127674 0.454283 4.527001 0.346289094 -0.773875627 0.530283299 0.061182 0.23774
0.13426 0.799614 4.762244 0.459594944 -0.387795734 0.798991211 0.956318 0.090437
0.15456 0.794253 4.748397 0.416902656 -0.235901503 0.877805592 0.94029 0.141284
0.153356 0.80056 4.751168 0.470028536 -0.324719714 0.820749829 0.955995 0.137626
0.13552 0.793672 4.758407 0.420210371 -0.382609443 0.822820307 0.941226 0.094194
0.170687 0.802212 4.741667 0.473431955 -0.248816794 0.844957032 0.954177 0.186625
0.194201 0.79668 4.728949 0.453022785 0.0880044263 0.88714462 0.93289 0.246987
0.192375 0.804089 4.729644 0.488406015 -0.181602236 0.853510511 0.949627 0.244955
0.172206 0.795281 4.740013 0.419004798 -0.0583006675 0.906110375 0.937864 0.189524
0.40046 0.485399 4.380987 0.421925818 -0.6520399 0.629938547 0.055183 0.88375
0.384365 0.489731 4.397591 0.388612813 -0.812726796 0.434114313 0.072735 0.834691
0.383478 0.485633 4.391582 0.386510061 -0.716018638 0.581315132 0.056869 0.838357
0.400553 0.490409 4.386373 0.466828186 -0.694541934 0.547433052 0.070448 0.880303
0.410375 0.493782 4.381581 0.53273294 -0.592836656 0.603937343 0.077184 0.906356
0.413892 0.48941 4.375515 0.504733268 -0.570337592 0.648042714 0.065239 0.917252
0.366852 0.484374 4.400922 0.384192783 -0.754785821 0.531690012 0.058892 0.789415
0.346812 0.484159 4.418874 0.317793719 -0.903682139 0.286994328 0.077818 0.728758
0.344844 0.480768 4.411943 0.39111173 -0.768423045 0.506515191 0.060449 0.730695
0.368336 0.487918 4.407465 0.338503923 -0.880410204 0.332103849 0.075399 0.786496
0.469826 0.839923 4.584033 0.488503688 -0.351102651 0.798806031 0.946907 0.904354
0.467277 0.833214 4.582922 0.551501999 -0.269900978 0.789302861 0.931745 0.899288
0.448008 0.829337 4.593815 0.529206528 -0.0963011879 0.843010399 0.933718 0.850935
0.449324 0.836501 4.594256 0.480481141 -0.268889446 0.834767236 0.949635 0.855803
0.431524 0.834023 4.603474 0.484725803 -0.207711057 0.849645228 0.950872 0.803456
0.430953 0.826458 4.60358 0.50412259 0.0346015505 0.862938669 0.934149 0.799686
0.409491 0.823782 4.615702 0.481097236 0.0977994381 0.871194995 0.933071 0.739152
0.409587 0.831655 4.615309 0.486891832 -0.176297043 0.855485649 0.950574 0.7417
0.053461 0.459949 4.576518 0.283218928 -0.509134027 0.812754318 0.111171 0.031036
0.068421 0.478599 4.583964 0.0411007526 -0.53410978 0.844415461 0.160803 0.05183
0.061047 0.477897 4.584293 0.204005247 -0.497012783 0.843421693 0.156508 0.035747
0.060864 0.461692 4.575149 0.216697743 -0.568694077 0.793491736 0.115213 0.046773
0.065549 0.494545 4.593065 0.141796188 -0.51778608 0.843677318 0.206004 0.038705
0.076574 0.5152 4.606393 -0.152911109 -0.512337223 0.845061396 0.267645 0.05772
0.068668 0.515682 4.605794 0.115804295 -0.532719759 0.838331094 0.26558 0.04035
0.073128 0.494541 4.593404 -0.095703498 -0.520419022 0.848531014 0.209327 0.055288
0.419868 0.503405 4.381541 0.593294515 -0.499595381 0.631194165 0.098439 0.930523
0.41499 0.503803 4.386786 0.640237746 -0.542131962 0.544232086 0.10284 0.915373
0.418031 0.520966 4.398552 0.766625238 -0.470615493 0.43681438 0.149832 0.917039
0.422293 0.521645 4.39269 0.662707933 -0.467405595 0.585107004 0.145394 0.932941
0.425075 0.538391 4.402586 0.705711849 -0.457707685 0.54080908 0.196714 0.933886
0.421232 0.536994 4.408976 0.842020099 -0.415109909 0.344508224 0.200249 0.917161
0.426093 0.557825 4.421216 0.870742654 -0.387518983 0.302714829 0.260241 0.916499
0.429811 0.559725 4.414459 0.722911209 -0.458707112 0.516708012 0.257794 0.934156
0.311716 0.473962 4.427578 0.393103347 -0.76800654 0.505604305 0.060737 0.655967
0.276036 0.470578 4.453206 0.303699341 -0.89869805 0.316399313 0.080039 0.571272
0.273202 0.466498 4.446066 0.385415693 -0.764631132 0.516521031 0.060267 0.572198
0.314136 0.477645 4.434697 0.312096787 -0.90429069 0.291297001 0.079374 0.654513
0.235038 0.460922 4.465647 0.372003899 -0.764808015 0.526005513 0.059552 0.486352
0.200753 0.461397 4.493091 0.262793543 -0.903677797 0.338091693 0.079256 0.401375
0.197222 0.457232 4.486321 0.356793571 -0.768186157 0.531590421 0.059247 0.400055
0.238242 0.465162 4.47267 0.286821293 -0.897566633 0.334824857 0.07979 0.486544
0.159755 0.455429 4.508088 0.34441403 -0.773931527 0.531421648 0.060008 0.31493
0.163569 0.459283 4.514468 0.238808873 -0.913233932 0.330112266 0.079065 0.316809
0.376672 0.828563 4.633387 0.481606656 -0.167602316 0.860211888 0.948696 0.664919
0.377001 0.820518 4.633663 0.461786239 0.115996543 0.879373795 0.930514 0.662943
0.339051 0.815755 4.653676 0.432787516 0.125096392 0.892774248 0.926379 0.57819
0.338329 0.823733 4.653594 0.464111032 -0.165803941 0.870120683 0.944767 0.579591
0.30011 0.816152 4.67182 0.453025461 -0.150808476 0.878649381 0.938316 0.492192
0.301209 0.808585 4.671955 0.413097846 0.152099207 0.897895317 0.920569 0.492024
0.263584 0.801845 4.690397 0.434790259 0.179895969 0.88238023 0.918179 0.406018
0.262139 0.809062 4.690233 0.470897784 -0.132399377 0.872195896 0.935158 0.404962
0.224544 0.805707 4.711003 0.49314293 -0.140212206 0.858574742 0.941108 0.320142
0.226288 0.798372 4.710903 0.465313462 0.16660482 0.86932515 0.924307 0.321745
0.095791 0.695644 4.713832 0.140003651 -0.496412944 0.856722339 0.686178 0.034414
0.104239 0.693356 4.71311 -0.100304477 -0.453020221 0.88583954 0.683838 0.054571
0.095491 0.655033 4.691929 -0.101199226 -0.478396343 0.872293331 0.597932 0.056332
0.086699 0.656736 4.692458 0.137510686 -0.51123973 0.848365929 0.599449 0.035531
0.080483 0.619716 4.670624 0.131599068 -0.525596276 0.840494045 0.512218 0.038129
0.089261 0.618361 4.670346 -0.109403085 -0.498214047 0.860124252 0.511948 0.058728
0.084548 0.582413 4.648332 -0.131099252 -0.506197112 0.852395137 0.426604 0.060327
0.076001 0.583522 4.648298 0.121804884 -0.533421391 0.837033566 0.425712 0.040547
0.072108 0.547093 4.625447 0.1131987 -0.535693848 0.836790389 0.341158 0.041126
0.08035 0.546258 4.625858 -0.154097426 -0.507791517 0.847585841 0.34262 0.059695
0.4381 0.591727 4.431541 0.724071248 -0.459381758 0.51447957 0.334028 0.934553
0.434113 0.589401 4.438432 0.873766081 -0.379528703 0.304123 0.335958 0.91581
0.443005 0.626263 4.458512 0.869341147 -0.372217617 0.325115388 0.419967 0.915208
0.447358 0.628965 4.451657 0.72160652 -0.452904092 0.523604731 0.418566 0.934797
0.454999 0.666005 4.472629 0.722287382 -0.441792282 0.532090704 0.504559 0.934609
0.450482 0.662952 4.479342 0.8689874 -0.358394803 0.341195053 0.504835 0.914802
0.456545 0.699468 4.50092 0.8755737 -0.338528495 0.344629009 0.589371 0.915164
0.461024 0.702848 4.494458 0.726015127 -0.429308945 0.537211193 0.590218 0.934568
0.465431 0.739494 4.517143 0.73152981 -0.419317088 0.537621909 0.673756 0.93525
0.461193 0.735812 4.523249 0.885033933 -0.318612216 0.339413013 0.672381 0.916868
0.230758 0.680567 4.691654 0.394100382 -0.449400436 0.801700778 0.685636 0.314871
0.190331 0.641809 4.685184 0.274110359 -0.509519255 0.815630823 0.59795 0.238431
0.224918 0.643051 4.671997 0.359587808 -0.489883391 0.794173074 0.597697 0.314245
0.196853 0.678556 4.705952 0.300513538 -0.479921621 0.824237133 0.685378 0.238644
0.201565 0.711093 4.722335 0.326986545 -0.379084401 0.865664379 0.761409 0.238824
0.234852 0.713802 4.707032 0.430808646 -0.359107207 0.827916617 0.761767 0.31551
0.272604 0.718122 4.687521 0.462491146 -0.33479359 0.820984282 0.761723 0.403687
0.269193 0.684118 4.673254 0.437191866 -0.417892225 0.796385183 0.685512 0.402987
0.264035 0.645832 4.654706 0.412816577 -0.46891883 0.780831355 0.597236 0.402247
0.218472 0.60622 4.651351 0.343211167 -0.517516838 0.783825502 0.510119 0.313479
0.176833 0.56883 4.642907 0.270413195 -0.529525839 0.804039234 0.423257 0.23665
0.211419 0.570072 4.629719 0.349718315 -0.54342846 0.763139967 0.422377 0.312744
0.183658 0.605234 4.664168 0.262890856 -0.519581927 0.812971721 0.510755 0.237681
0.257816 0.608744 4.634431 0.398229924 -0.513838611 0.759857098 0.509409 0.401535
0.250537 0.572853 4.612429 0.396624421 -0.556134242 0.730344969 0.421566 0.400921
0.203761 0.534608 4.6071 0.371016399 -0.577225514 0.727432153 0.333951 0.312213
0.163058 0.502411 4.601619 0.297108065 -0.632717175 0.715119412 0.257846 0.234861
0.196269 0.505205 4.586192 0.380413961 -0.648823812 0.659024187 0.25728 0.312024
0.169856 0.532596 4.621398 0.289605756 -0.554711025 0.780015503 0.334921 0.235594
0.242196 0.538158 4.588699 0.403613973 -0.599420752 0.691223931 0.333242 0.400477
0.234022 0.509525 4.566681 0.401339538 -0.665265539 0.629562021 0.257058 0.400262
0.307021 0.688352 4.653866 0.466316818 -0.403314546 0.787328396 0.684764 0.490709
0.302091 0.64981 4.635689 0.459215834 -0.457215765 0.761626261 0.596479 0.489961
0.310206 0.722613 4.667763 0.473406107 -0.324204182 0.819010565 0.760882 0.491383
0.347655 0.727275 4.647758 0.483006207 -0.33230427 0.81011041 0.759681 0.579034
0.344244 0.693271 4.633491 0.492310255 -0.411108563 0.767215981 0.683616 0.578419
0.339086 0.654985 4.614944 0.502425461 -0.458023211 0.733337163 0.595495 0.577688
0.295948 0.612637 4.615537 0.450718764 -0.508421166 0.733730546 0.508663 0.48926
0.288593 0.576831 4.593411 0.440622012 -0.557827867 0.703335136 0.42088 0.488593
0.332867 0.617897 4.594669 0.501717729 -0.501217711 0.705024912 0.507888 0.57699
0.325588 0.582005 4.572667 0.486312992 -0.545214566 0.682818242 0.420296 0.576234
0.280024 0.542393 4.569312 0.428807028 -0.606309938 0.669710977 0.332698 0.487947
0.271623 0.514016 4.546923 0.409220576 -0.671433761 0.617831065 0.256783 0.487417
0.317247 0.547311 4.548937 0.458713078 -0.592716899 0.662018874 0.332221 0.575328
0.309073 0.518678 4.526918 0.421934419 -0.662754063 0.618650465 0.256268 0.574404
0.38086 0.698873 4.612129 0.525440563 -0.433933499 0.731856498 0.682294 0.666496
0.37502 0.661357 4.592472 0.546211214 -0.46710959 0.695314275 0.594351 0.665732
0.384954 0.732107 4.627507 0.507427412 -0.352619049 0.786242474 0.758558 0.667077
0.416154 0.737169 4.608808 0.58660706 -0.364104382 0.723408706 0.757273 0.743744
0.411367 0.704717 4.592301 0.598210612 -0.446807926 0.665211801 0.680829 0.742728
0.404845 0.66797 4.571533 0.613906698 -0.468105107 0.635606935 0.593207 0.741582
0.368574 0.624525 4.571826 0.551912622 -0.492111255 0.673215397 0.507093 0.665063
0.361521 0.588377 4.550194 0.53632472 -0.520724001 0.664230615 0.41979 0.664318
0.398171 0.631395 4.550518 0.619806431 -0.476004939 0.623906473 0.506398 0.740847
0.391346 0.59499 4.529256 0.610211701 -0.48810936 0.624011966 0.419467 0.740276
0.353863 0.552913 4.527575 0.501885719 -0.561284029 0.658081275 0.331717 0.663326
0.346371 0.523511 4.506667 0.454326222 -0.639836929 0.619835775 0.255328 0.662137
0.38437 0.558757 4.507747 0.584889864 -0.518691011 0.623589193 0.33148 0.739621
0.377572 0.528572 4.487968 0.542528334 -0.602731478 0.585130559 0.254598 0.738698
0.430263 0.710359 4.576528 0.729931019 -0.419017807 0.540022949 0.67925 0.794901
0.423514 0.673869 4.555389 0.731594378 -0.435996649 0.524095972 0.59222 0.792729
0.435312 0.742516 4.593461 0.729501185 -0.343100558 0.591700962 0.755585 0.79727
0.447412 0.749301 4.577885 0.853829932 -0.299710507 0.42561492 0.752981 0.839902
0.442545 0.717318 4.560594 0.850203979 -0.355601664 0.388201817 0.67717 0.836363
0.436099 0.680865 4.539295 0.843073738 -0.374232732 0.386233781 0.591206 0.833401
0.416764 0.637379 4.534251 0.732565765 -0.43753928 0.521446812 0.505925 0.791715
0.410015 0.600889 4.513113 0.730800259 -0.440300156 0.521600185 0.41943 0.791542
0.42945 0.644387 4.518103 0.839715745 -0.380007125 0.387907273 0.505557 0.832233
0.4226 0.607885 4.497017 0.841638072 -0.382117285 0.381617263 0.419644 0.832465
0.403266 0.564399 4.491974 0.72218938 -0.46109322 0.515592418 0.331804 0.791892
0.39673 0.53392 4.472621 0.69315247 -0.53964085 0.477836171 0.254713 0.792166
0.415548 0.571358 4.476039 0.84302903 -0.394313578 0.365812597 0.332887 0.833697
0.40883 0.540704 4.457045 0.825517939 -0.452709837 0.337007323 0.255986 0.835086
0.45321 0.727111 4.540283 0.902546943 -0.306715953 0.302215719 0.6742 0.880462
0.447673 0.690769 4.518502 0.892779922 -0.328292617 0.308493062 0.589978 0.877827
0.457441 0.758676 4.5585 0.905225736 -0.278307912 0.321109129 0.748948 0.883887
0.441328 0.654329 4.497149 0.886907765 -0.343203005 0.309202707 0.505181 0.876969
0.434174 0.61779 4.476225 0.888594202 -0.35099771 0.295298073 0.420075 0.877392
0.426213 0.581152 4.455729 0.893011082 -0.358304447 0.272303379 0.334925 0.878598
0.418858 0.550079 4.437661 0.884922225 -0.388009745 0.25760647 0.258734 0.880003
0.125518 0.687763 4.714322 -0.140805423 -0.444717126 0.884534064 0.683641 0.095425
0.117638 0.65029 4.693197 -0.140011498 -0.472438796 0.870171457 0.597716 0.097344
0.132244 0.720702 4.731042 -0.103902027 -0.377607367 0.920117952 0.759737 0.094116
0.156252 0.714688 4.731389 -0.0289016924 -0.363221269 0.931254531 0.76053 0.141978
0.15114 0.681934 4.715089 -0.0529040489 -0.464735568 0.883867645 0.684413 0.143818
0.144108 0.645198 4.693954 -0.0533991787 -0.491592439 0.869186632 0.598024 0.145387
0.111198 0.613761 4.671841 -0.146600135 -0.485600447 0.861800793 0.511816 0.098639
0.105624 0.577645 4.65024 -0.168902659 -0.489107701 0.855713473 0.426161 0.09861
0.137436 0.608698 4.67276 -0.0566009133 -0.496108005 0.86641398 0.511651 0.145444
0.13098 0.572302 4.651506 -0.0694051501 -0.496836867 0.86506419 0.425103 0.144031
0.100344 0.541411 4.628376 -0.194212951 -0.493032877 0.84805655 0.340971 0.096558
0.095415 0.510634 4.609023 -0.19740713 -0.520018783 0.831030017 0.265334 0.093552
0.124599 0.535876 4.630187 -0.0842009561 -0.508205771 0.857109733 0.338189 0.141188
0.118487 0.505296 4.61087 -0.0879010451 -0.564106707 0.821009762 0.261539 0.137929
0.172616 0.678938 4.713031 0.126400138 -0.486300532 0.864600947 0.684981 0.186592
0.165867 0.642448 4.691893 0.117396479 -0.512084643 0.850874483 0.598081 0.18728
0.177362 0.711437 4.72947 0.139701331 -0.375803581 0.916108731 0.761041 0.185597
0.159117 0.605958 4.670754 0.113202655 -0.514112059 0.850219942 0.511282 0.186731
0.152368 0.569468 4.649615 0.113102725 -0.516112433 0.849020453 0.42415 0.185229
0.145619 0.532978 4.628477 0.116008417 -0.535138826 0.836760709 0.336253 0.18306
0.139083 0.502498 4.609124 0.11549645 -0.610081249 0.783875908 0.259155 0.18093
0.17236 0.46634 4.532117 0.228603559 -0.928914463 0.291304536 0.117021 0.315599
0.209624 0.469501 4.511416 0.253713532 -0.919249029 0.301016055 0.118191 0.40131
0.140067 0.46422 4.549432 0.198302391 -0.931411228 0.305203679 0.115828 0.238677
0.149577 0.473022 4.569408 0.221703208 -0.884912805 0.409605927 0.161033 0.235905
0.182339 0.475895 4.553153 0.279504609 -0.883414568 0.376106202 0.16267 0.313401
0.219799 0.480117 4.533067 0.300101618 -0.876504724 0.376402029 0.164252 0.400688
0.247062 0.473606 4.491262 0.271600062 -0.91370021 0.30230007 0.118838 0.486722
0.284675 0.478654 4.471654 0.281304193 -0.915913652 0.286304267 0.118449 0.571715
0.257303 0.484576 4.513117 0.307122559 -0.873064129 0.378727819 0.164806 0.486902
0.29485 0.48927 4.493304 0.30971117 -0.875331569 0.371313392 0.163961 0.572749
0.322462 0.484645 4.452592 0.28891245 -0.92153971 0.259411178 0.116512 0.656171
0.354581 0.490381 4.435781 0.317195125 -0.916885908 0.242296276 0.113767 0.731153
0.332441 0.4942 4.473628 0.321918059 -0.878249267 0.353619837 0.161349 0.658935
0.364091 0.499183 4.455758 0.381117263 -0.865439201 0.325214731 0.158191 0.734976
0.189719 0.487242 4.569694 0.346802521 -0.773905626 0.529903852 0.204804 0.312314
0.227244 0.491818 4.549813 0.364403207 -0.776006829 0.51480453 0.205634 0.400335
0.15677 0.484153 4.585546 0.269515402 -0.769543977 0.578933084 0.204128 0.234798
0.26477 0.496395 4.529932 0.366205132 -0.776810887 0.51230718 0.205803 0.487101
0.302295 0.500971 4.51005 0.369007395 -0.775415539 0.512410269 0.205042 0.573595
0.339821 0.505548 4.490169 0.390513914 -0.768527383 0.506818058 0.20308 0.660798
0.371283 0.510314 4.471896 0.47184172 -0.74486586 0.471741711 0.200985 0.73732
0.236061 0.73779 4.714836 0.450313575 -0.172105188 0.876126411 0.813924 0.316319
0.273586 0.742366 4.694955 0.475433724 -0.161711471 0.86476134 0.813354 0.404277
0.202808 0.735043 4.730195 0.338114874 -0.184008095 0.922940601 0.814411 0.239472
0.201314 0.755711 4.732132 0.348005824 0.0182003046 0.937315686 0.856238 0.24123
0.234542 0.758129 4.716651 0.445126452 0.061503655 0.893353089 0.853743 0.31775
0.272018 0.762546 4.69669 0.458204836 0.0722007621 0.885909351 0.851834 0.404913
0.311112 0.746942 4.675074 0.476325277 -0.16130856 0.864345868 0.8122 0.491857
0.348637 0.751519 4.655192 0.478518275 -0.167606401 0.861932918 0.811122 0.579387
0.309541 0.767429 4.677022 0.453909537 0.0586012312 0.889118681 0.850918 0.492099
0.347095 0.772374 4.657379 0.459196572 0.042999679 0.887293376 0.850968 0.579271
0.386163 0.756095 4.635311 0.498413535 -0.176304788 0.84882305 0.810781 0.667195
0.417625 0.760861 4.617038 0.57510588 -0.182301864 0.797508155 0.810549 0.744087
0.384665 0.776975 4.637488 0.478981402 0.0364985828 0.877065944 0.851953 0.66639
0.416288 0.781494 4.619312 0.540020251 0.0266009976 0.841231547 0.853067 0.743223
0.230452 0.780418 4.714063 0.441823035 0.205510715 0.873245528 0.892861 0.320253
0.267781 0.784356 4.69386 0.429922885 0.221211775 0.875346596 0.88859 0.405747
0.197813 0.778405 4.730747 0.390500295 0.127000096 0.911800688 0.898746 0.24474
0.305296 0.79016 4.674836 0.417032584 0.195715292 0.887569349 0.889239 0.492074
0.342936 0.796211 4.655906 0.432332465 0.168312639 0.885866522 0.89225 0.578478
0.380638 0.800885 4.635984 0.458089405 0.158396336 0.874679769 0.895065 0.664204
0.41265 0.804764 4.617952 0.497015554 0.142104447 0.85602679 0.897238 0.740619
0.39062 0.51546 4.456839 0.620845671 -0.6810501 0.388228559 0.199821 0.791768
0.383813 0.504036 4.441362 0.505426424 -0.812242465 0.291215225 0.155708 0.79039
0.402983 0.521821 4.44191 0.763475092 -0.572981307 0.297990278 0.199643 0.835787
0.396988 0.509414 4.427639 0.647157723 -0.706463012 0.286525556 0.153761 0.835653
0.375188 0.494664 4.422925 0.390716608 -0.88293753 0.260311065 0.110952 0.787727
0.389825 0.498188 4.411238 0.498134846 -0.800055966 0.334323387 0.108245 0.834538
0.413528 0.530235 4.42402 0.843530287 -0.463516643 0.271309742 0.200505 0.881023
0.408995 0.515973 4.411786 0.750227035 -0.569020505 0.336712134 0.152212 0.88124
0.404034 0.501649 4.397938 0.604115432 -0.666317021 0.437111166 0.105825 0.880233
0.090893 0.490888 4.594954 -0.145596656 -0.579886683 0.801581592 0.208339 0.090661
0.0855 0.476675 4.583282 -0.0113000575 -0.651803318 0.75830386 0.161366 0.087334
0.112843 0.486437 4.595629 -0.0616971947 -0.672669414 0.737366473 0.205788 0.135266
0.106632 0.474042 4.581499 0.0213005655 -0.781120739 0.624016568 0.160452 0.132875
0.077959 0.462498 4.571121 0.170810945 -0.709545466 0.683643806 0.115792 0.083022
0.098824 0.462853 4.565519 0.15790449 -0.840423898 0.518414741 0.115046 0.130427
0.132973 0.484038 4.593342 0.108407473 -0.743451252 0.659945495 0.20442 0.179547
0.126166 0.472615 4.577866 0.117102406 -0.859517659 0.497510221 0.160317 0.179064
0.117541 0.463243 4.559428 0.166812387 -0.910267594 0.378928138 0.115114 0.179633
0.436962 0.766007 4.601981 0.712790577 -0.182597586 0.677191048 0.809795 0.798869
0.449325 0.772369 4.587052 0.832874035 -0.196293881 0.517483868 0.808171 0.842795
0.436001 0.786192 4.604815 0.65241559 -0.00810019356 0.757818108 0.853501 0.799533
0.449323 0.791722 4.591108 0.759191812 -0.0956989679 0.643793057 0.853134 0.845315
0.45987 0.780782 4.569162 0.882751316 -0.249814522 0.397923132 0.805325 0.887114
0.46177 0.798739 4.575301 0.808736823 -0.241010973 0.536524429 0.851844 0.890564
0.433222 0.808428 4.604688 0.565482015 0.0829973603 0.820573902 0.898323 0.799091
0.448446 0.812561 4.593063 0.637414004 -0.0497010919 0.768916893 0.898267 0.847733
0.464415 0.817851 4.579949 0.68030282 -0.23890099 0.692902872 0.897021 0.894657
0.135227 0.743629 4.739182 0.00400023758 -0.299917813 0.953956657 0.816151 0.09465
0.157166 0.739243 4.738075 0.0332000206 -0.213400132 0.976400605 0.816084 0.141104
0.136 0.761591 4.744184 0.160708559 -0.314216734 0.935649829 0.862101 0.095643
0.156125 0.759453 4.740612 0.141195558 -0.164794816 0.97616929 0.861094 0.141079
0.178102 0.735954 4.73651 0.153398461 -0.187098123 0.970290268 0.815317 0.185222
0.176535 0.756822 4.738357 0.196400235 -0.0528000631 0.97910117 0.858914 0.185974
0.136099 0.779635 4.751489 0.314399885 -0.361899868 0.87759968 0.906806 0.09571
0.155369 0.77917 4.744466 0.289100783 -0.19560053 0.93710254 0.905576 0.141787
0.174363 0.778375 4.739217 0.302208539 -0.0148004182 0.953126931 0.902937 0.188358
3 0 1 2
3 0 3 1
3 0 4 3
3 0 5 4
3 0 6 5
3 0 7 6
3 0 8 7
3 0 2 8
3 9 10 11
3 9 12 10
3 9 6 12
3 9 5 6
3 9 4 5
3 9 13 4
3 9 14 13
3 9 11 14
3 15 16 17
3 15 18 16
3 15 19 18
3 15 20 19
3 15 4 20
3 15 3 4
3 15 1 3
3 15 17 1
3 21 19 20
3 21 22 19
3 21 23 22
3 21 24 23
3 21 14 24
3 21 13 14
3 21 4 13
3 21 20 4
3 25 26 27
3 25 28 26
3 25 29 28
3 25 30 29
3 25 31 30
3 25 32 31
3 25 33 32
3 25 27 33
3 34 29 30
3 34 35 29
3 34 36 35
3 34 37 36
3 34 38 37
3 34 39 38
3 34 31 39
3 34 30 31
3 40 41 42
3 40 43 41
3 40 44 43
3 40 45 44
3 40 29 45
3 40 28 29
3 40 26 28
3 40 42 26
3 46 44 45
3 46 47 44
3 46 48 47
3 46 49 48
3 46 36 49
3 46 35 36
3 46 29 35
3 46 45 29
3 50 51 52
3 50 53 51
3 50 54 53
3 50 55 54
3 50 56 55
3 50 57 56
3 50 58 57
3 50 52 58
3 59 54 55
3 59 60 54
3 59 61 60
3 59 62 61
3 59 63 62
3 59 64 63
3 59 56 64
3 59 55 56
3 65 66 67
3 65 68 66
3 65 69 68
3 65 70 69
3 65 54 70
3 65 53 54
3 65 51 53
3 65 67 51
3 71 69 70
3 71 72 69
3 71 73 72
3 71 74 73
3 71 61 74
3 71 60 61
3 71 54 60
3 71 70 54
3 75 76 77
3 75 78 76
3 75 79 78
3 75 80 79
3 75 81 80
3 75 82 81
3 75 83 82
3 75 77 83
3 84 79 80
3 84 85 79
3 84 86 85
3 84 87 86
3 84 88 87
3 84 89 88
3 84 81 89
3 84 80 81
3 90 91 92
3 90 93 91
3 90 94 93
3 90 95 94
3 90 79 95
3 90 78 79
3 90 76 78
3 90 92 76
3 96 94 95
3 96 97 94
3 96 98 97
3 96 99 98
3 96 86 99
3 96 85 86
3 96 79 85
3 96 95 79
3 100 36 37
3 100 101 36
3 100 102 101
3 100 103 102
3 100 104 103
3 100 105 104
3 100 38 105
3 100 37 38
3 106 102 103
3 106 107 102
3 106 108 107
3 106 109 108
3 106 110 109
3 106 111 110
3 106 104 111
3 106 103 104
3 112 108 109
3 112 113 108
3 112 1 113
3 112 2 1
3 112 8 2
3 112 114 8
3 112 110 114
3 112 109 110
3 115 48 49
3 115 116 48
3 115 117 116
3 115 118 117
3 115 102 118
3 115 101 102
3 115 36 101
3 115 49 36
3 119 117 118
3 119 120 117
3 119 121 120
3 119 122 121
3 119 108 122
3 119 107 108
3 119 102 107
3 119 118 102
3 123 121 122
3 123 124 121
3 123 16 124
3 123 17 16
3 123 1 17
3 123 113 1
3 123 108 113
3 123 122 108
3 125 94 97
3 125 126 94
3 125 127 126
3 125 128 127
3 125 129 128
3 125 130 129
3 125 98 130
3 125 97 98
3 131 127 128
3 131 132 127
3 131 133 132
3 131 134 133
3 131 135 134
3 131 136 135
3 131 129 136
3 131 128 129
3 137 133 134
3 137 138 133
3 137 56 138
3 137 64 56
3 137 63 64
3 137 139 63
3 137 135 139
3 137 134 135
3 140 91 93
3 140 141 91
3 140 142 141
3 140 143 142
3 140 127 143
3 140 126 127
3 140 94 126
3 140 93 94
3 144 142 143
3 144 145 142
3 144 146 145
3 144 147 146
3 144 133 147
3 144 132 133
3 144 127 132
3 144 143 127
3 148 146 147
3 148 149 146
3 148 58 149
3 148 57 58
3 148 56 57
3 148 138 56
3 148 133 138
3 148 147 133
3 150 61 62
3 150 151 61
3 150 152 151
3 150 153 152
3 150 154 153
3 150 155 154
3 150 63 155
3 150 62 63
3 156 152 153
3 156 157 152
3 156 158 157
3 156 159 158
3 156 160 159
3 156 161 160
3 156 154 161
3 156 153 154
3 162 158 159
3 162 163 158
3 162 19 163
3 162 18 19
3 162 16 18
3 162 164 16
3 162 160 164
3 162 159 160
3 165 73 74
3 165 166 73
3 165 167 166
3 165 168 167
3 165 152 168
3 165 151 152
3 165 61 151
3 165 74 61
3 169 167 168
3 169 170 167
3 169 171 170
3 169 172 171
3 169 158 172
3 169 157 158
3 169 152 157
3 169 168 152
3 173 171 172
3 173 174 171
3 173 23 174
3 173 22 23
3 173 19 22
3 173 163 19
3 173 158 163
3 173 172 158
3 175 86 87
3 175 176 86
3 175 177 176
3 175 178 177
3 175 179 178
3 175 180 179
3 175 88 180
3 175 87 88
3 181 177 178
3 181 182 177
3 181 183 182
3 181 184 183
3 181 185 184
3 181 186 185
3 181 179 186
3 181 178 179
3 187 183 184
3 187 188 183
3 187 44 188
3 187 43 44
3 187 41 43
3 187 189 41
3 187 185 189
3 187 184 185
3 190 98 99
3 190 191 98
3 190 192 191
3 190 193 192
3 190 177 193
3 190 176 177
3 190 86 176
3 190 99 86
3 194 192 193
3 194 195 192
3 194 196 195
3 194 197 196
3 194 183 197
3 194 182 183
3 194 177 182
3 194 193 177
3 198 196 197
3 198 199 196
3 198 48 199
3 198 47 48
3 198 44 47
3 198 188 44
3 198 183 188
3 198 197 183
3 200 129 130
3 200 201 129
3 200 202 201
3 200 203 202
3 200 192 203
3 200 191 192
3 200 98 191
3 200 130 98
3 204 202 203
3 204 205 202
3 204 206 205
3 204 207 206
3 204 196 207
3 204 195 196
3 204 192 195
3 204 203 192
3 208 206 207
3 208 209 206
3 208 117 209
3 208 116 117
3 208 48 116
3 208 199 48
3 208 196 199
3 208 207 196
3 210 135 136
3 210 211 135
3 210 212 211
3 210 213 212
3 210 202 213
3 210 201 202
3 210 129 201
3 210 136 129
3 214 212 213
3 214 215 212
3 214 216 215
3 214 217 216
3 214 206 217
3 214 205 206
3 214 202 205
3 214 213 202
3 218 216 217
3 218 219 216
3 218 121 219
3 218 120 121
3 218 117 120
3 218 209 117
3 218 206 209
3 218 217 206
3 220 63 139
3 220 155 63
3 220 154 155
3 220 221 154
3 220 212 221
3 220 211 212
3 220 135 211
3 220 139 135
3 222 154 221
3 222 161 154
3 222 160 161
3 222 223 160
3 222 216 223
3 222 215 216
3 222 212 215
3 222 221 212
3 224 160 223
3 224 164 160
3 224 16 164
3 224 124 16
3 224 121 124
3 224 219 121
3 224 216 219
3 224 223 216
3 225 185 226
3 225 189 185
3 225 41 189
3 225 227 41
3 225 228 227
3 225 229 228
3 225 230 229
3 225 226 230
3 231 179 232
3 231 186 179
3 231 185 186
3 231 226 185
3 231 230 226
3 231 233 230
3 231 234 233
3 231 232 234
3 235 88 236
3 235 180 88
3 235 179 180
3 235 232 179
3 235 234 232
3 235 237 234
3 235 238 237
3 235 236 238
3 239 167 240
3 239 166 167
3 239 73 166
3 239 241 73
3 239 242 241
3 239 243 242
3 239 244 243
3 239 240 244
3 245 171 246
3 245 170 171
3 245 167 170
3 245 240 167
3 245 244 240
3 245 247 244
3 245 248 247
3 245 246 248
3 249 23 250
3 249 174 23
3 249 171 174
3 249 246 171
3 249 248 246
3 249 251 248
3 249 252 251
3 249 250 252
3 253 110 254
3 253 114 110
3 253 8 114
3 253 255 8
3 253 256 255
3 253 257 256
3 253 258 257
3 253 254 258
3 259 104 260
3 259 111 104
3 259 110 111
3 259 254 110
3 259 258 254
3 259 261 258
3 259 262 261
3 259 260 262
3 263 38 264
3 263 105 38
3 263 104 105
3 263 260 104
3 263 262 260
3 263 265 262
3 263 266 265
3 263 264 266
3 267 58 268
3 267 149 58
3 267 146 149
3 267 269 146
3 267 270 269
3 267 271 270
3 267 272 271
3 267 268 272
3 273 146 269
3 273 145 146
3 273 142 145
3 273 274 142
3 273 275 274
3 273 276 275
3 273 270 276
3 273 269 270
3 277 142 274
3 277 141 142
3 277 91 141
3 277 278 91
3 277 279 278
3 277 280 279
3 277 275 280
3 277 274 275
3 281 81 282
3 281 89 81
3 281 88 89
3 281 236 88
3 281 238 236
3 281 283 238
3 281 284 283
3 281 282 284
3 285 83 286
3 285 82 83
3 285 81 82
3 285 282 81
3 285 284 282
3 285 287 284
3 285 288 287
3 285 286 288
3 289 73 241
3 289 72 73
3 289 69 72
3 289 290 69
3 289 291 290
3 289 292 291
3 289 242 292
3 289 241 242
3 293 69 290
3 293 68 69
3 293 66 68
3 293 294 66
3 293 295 294
3 293 296 295
3 293 291 296
3 293 290 291
3 297 31 298
3 297 39 31
3 297 38 39
3 297 264 38
3 297 266 264
3 297 299 266
3 297 300 299
3 297 298 300
3 301 33 302
3 301 32 33
3 301 31 32
3 301 298 31
3 301 300 298
3 301 303 300
3 301 304 303
3 301 302 304
3 305 91 278
3 305 92 91
3 305 76 92
3 305 306 76
3 305 307 306
3 305 308 307
3 305 279 308
3 305 278 279
3 309 76 306
3 309 77 76
3 309 83 77
3 309 286 83
3 309 288 286
3 309 310 288
3 309 307 310
3 309 306 307
3 311 8 255
3 311 7 8
3 311 6 7
3 311 312 6
3 311 313 312
3 311 314 313
3 311 256 314
3 311 255 256
3 315 6 312
3 315 12 6
3 315 10 12
3 315 316 10
3 315 317 316
3 315 318 317
3 315 313 318
3 315 312 313
3 319 51 320
3 319 52 51
3 319 58 52
3 319 268 58
3 319 272 268
3 319 321 272
3 319 322 321
3 319 320 322
3 323 66 294
3 323 67 66
3 323 51 67
3 323 320 51
3 323 322 320
3 323 324 322
3 323 295 324
3 323 294 295
3 325 41 227
3 325 42 41
3 325 26 42
3 325 326 26
3 325 327 326
3 325 328 327
3 325 228 328
3 325 227 228
3 329 26 326
3 329 27 26
3 329 33 27
3 329 302 33
3 329 304 302
3 329 330 304
3 329 327 330
3 329 326 327
3 331 14 332
3 331 24 14
3 331 23 24
3 331 250 23
3 331 252 250
3 331 333 252
3 331 334 333
3 331 332 334
3 335 10 316
3 335 11 10
3 335 14 11
3 335 332 14
3 335 334 332
3 335 336 334
3 335 317 336
3 335 316 317
3 337 317 338
3 337 336 317
3 337 334 336
3 337 339 334
3 337 340 339
3 337 341 340
3 337 342 341
3 337 338 342
3 343 334 339
3 343 333 334
3 343 252 333
3 343 344 252
3 343 345 344
3 343 346 345
3 343 340 346
3 343 339 340
3 347 327 348
3 347 330 327
3 347 304 330
3 347 349 304
3 347 350 349
3 347 351 350
3 347 352 351
3 347 348 352
3 353 228 354
3 353 328 228
3 353 327 328
3 353 348 327
3 353 352 348
3 353 355 352
3 353 356 355
3 353 354 356
3 357 295 358
3 357 324 295
3 357 322 324
3 357 359 322
3 357 360 359
3 357 361 360
3 357 362 361
3 357 358 362
3 363 322 359
3 363 321 322
3 363 272 321
3 363 364 272
3 363 365 364
3 363 366 365
3 363 360 366
3 363 359 360
3 367 313 368
3 367 318 313
3 367 317 318
3 367 338 317
3 367 342 338
3 367 369 342
3 367 370 369
3 367 368 370
3 371 256 372
3 371 314 256
3 371 313 314
3 371 368 313
3 371 370 368
3 371 373 370
3 371 374 373
3 371 372 374
3 375 307 376
3 375 310 307
3 375 288 310
3 375 377 288
3 375 378 377
3 375 379 378
3 375 380 379
3 375 376 380
3 381 279 382
3 381 308 279
3 381 307 308
3 381 376 307
3 381 380 376
3 381 383 380
3 381 384 383
3 381 382 384
3 385 304 349
3 385 303 304
3 385 300 303
3 385 386 300
3 385 387 386
3 385 388 387
3 385 350 388
3 385 349 350
3 389 300 386
3 389 299 300
3 389 266 299
3 389 390 266
3 389 391 390
3 389 392 391
3 389 387 392
3 389 386 387
3 393 291 394
3 393 296 291
3 393 295 296
3 393 358 295
3 393 362 358
3 393 395 362
3 393 396 395
3 393 394 396
3 397 242 398
3 397 292 242
3 397 291 292
3 397 394 291
3 397 396 394
3 397 399 396
3 397 400 399
3 397 398 400
3 401 288 377
3 401 287 288
3 401 284 287
3 401 402 284
3 401 403 402
3 401 404 403
3 401 378 404
3 401 377 378
3 405 284 402
3 405 283 284
3 405 238 283
3 405 406 238
3 405 407 406
3 405 408 407
3 405 403 408
3 405 402 403
3 409 275 410
3 409 280 275
3 409 279 280
3 409 382 279
3 409 384 382
3 409 411 384
3 409 412 411
3 409 410 412
3 413 270 414
3 413 276 270
3 413 275 276
3 413 410 275
3 413 412 410
3 413 415 412
3 413 416 415
3 413 414 416
3 417 272 364
3 417 271 272
3 417 270 271
3 417 414 270
3 417 416 414
3 417 418 416
3 417 365 418
3 417 364 365
3 419 266 390
3 419 265 266
3 419 262 265
3 419 420 262
3 419 421 420
3 419 422 421
3 419 391 422
3 419 390 391
3 423 262 420
3 423 261 262
3 423 258 261
3 423 424 258
3 423 425 424
3 423 426 425
3 423 421 426
3 423 420 421
3 427 258 424
3 427 257 258
3 427 256 257
3 427 372 256
3 427 374 372
3 427 428 374
3 427 425 428
3 427 424 425
3 429 252 344
3 429 251 252
3 429 248 251
3 429 430 248
3 429 431 430
3 429 432 431
3 429 345 432
3 429 344 345
3 433 248 430
3 433 247 248
3 433 244 247
3 433 434 244
3 433 435 434
3 433 436 435
3 433 431 436
3 433 430 431
3 437 244 434
3 437 243 244
3 437 242 243
3 437 398 242
3 437 400 398
3 437 438 400
3 437 435 438
3 437 434 435
3 439 238 406
3 439 237 238
3 439 234 237
3 439 440 234
3 439 441 440
3 439 442 441
3 439 407 442
3 439 406 407
3 443 234 440
3 443 233 234
3 443 230 233
3 443 444 230
3 443 445 444
3 443 446 445
3 443 441 446
3 443 440 441
3 447 230 444
3 447 229 230
3 447 228 229
3 447 354 228
3 447 356 354
3 447 448 356
3 447 445 448
3 447 444 445
3 449 450 451
3 449 452 450
3 449 453 452
3 449 454 453
3 449 455 454
3 449 456 455
3 449 457 456
3 449 451 457
3 458 459 460
3 458 461 459
3 458 450 461
3 458 451 450
3 458 457 451
3 458 462 457
3 458 463 462
3 458 460 463
3 464 465 466
3 464 467 465
3 464 459 467
3 464 460 459
3 464 463 460
3 464 468 463
3 464 469 468
3 464 466 469
3 470 471 472
3 470 473 471
3 470 474 473
3 470 475 474
3 470 476 475
3 470 477 476
3 470 478 477
3 470 472 478
3 479 480 481
3 479 482 480
3 479 471 482
3 479 472 471
3 479 478 472
3 479 483 478
3 479 484 483
3 479 481 484
3 485 486 487
3 485 488 486
3 485 480 488
3 485 481 480
3 485 484 481
3 485 489 484
3 485 490 489
3 485 487 490
3 491 492 493
3 491 494 492
3 491 495 494
3 491 496 495
3 491 497 496
3 491 498 497
3 491 499 498
3 491 493 499
3 500 501 502
3 500 503 501
3 500 492 503
3 500 493 492
3 500 499 493
3 500 504 499
3 500 505 504
3 500 502 505
3 506 507 508
3 506 509 507
3 506 501 509
3 506 502 501
3 506 505 502
3 506 510 505
3 506 511 510
3 506 508 511
3 512 513 514
3 512 515 513
3 512 516 515
3 512 517 516
3 512 518 517
3 512 519 518
3 512 520 519
3 512 514 520
3 521 516 517
3 521 522 516
3 521 523 522
3 521 524 523
3 521 525 524
3 521 526 525
3 521 518 526
3 521 517 518
3 527 523 524
3 527 528 523
3 527 529 528
3 527 530 529
3 527 531 530
3 527 532 531
3 527 525 532
3 527 524 525
3 533 534 535
3 533 536 534
3 533 465 536
3 533 466 465
3 533 469 466
3 533 537 469
3 533 538 537
3 533 535 538
3 539 540 541
3 539 542 540
3 539 534 542
3 539 535 534
3 539 538 535
3 539 543 538
3 539 544 543
3 539 541 544
3 545 474 475
3 545 546 474
3 545 547 546
3 545 548 547
3 545 549 548
3 545 550 549
3 545 476 550
3 545 475 476
3 551 547 548
3 551 552 547
3 551 553 552
3 551 554 553
3 551 555 554
3 551 556 555
3 551 549 556
3 551 548 549
3 557 558 559
3 557 560 558
3 557 507 560
3 557 508 507
3 557 511 508
3 557 561 511
3 557 562 561
3 557 559 562
3 563 564 565
3 563 566 564
3 563 558 566
3 563 559 558
3 563 562 559
3 563 567 562
3 563 568 567
3 563 565 568
3 569 529 530
3 569 570 529
3 569 571 570
3 569 572 571
3 569 573 572
3 569 574 573
3 569 531 574
3 569 530 531
3 575 571 572
3 575 576 571
3 575 540 576
3 575 541 540
3 575 544 541
3 575 577 544
3 575 573 577
3 575 572 573
3 578 495 496
3 578 579 495
3 578 580 579
3 578 581 580
3 578 582 581
3 578 583 582
3 578 497 583
3 578 496 497
3 584 580 581
3 584 585 580
3 584 586 585
3 584 587 586
3 584 588 587
3 584 589 588
3 584 582 589
3 584 581 582
3 590 591 592
3 590 593 591
3 590 513 593
3 590 514 513
3 590 520 514
3 590 594 520
3 590 595 594
3 590 592 595
3 596 553 554
3 596 597 553
3 596 591 597
3 596 592 591
3 596 595 592
3 596 598 595
3 596 555 598
3 596 554 555
3 599 453 454
3 599 600 453
3 599 601 600
3 599 602 601
3 599 603 602
3 599 604 603
3 599 455 604
3 599 454 455
3 605 601 602
3 605 606 601
3 605 564 606
3 605 565 564
3 605 568 565
3 605 607 568
3 605 603 607
3 605 602 603
3 608 609 610
3 608 611 609
3 608 486 611
3 608 487 486
3 608 490 487
3 608 612 490
3 608 613 612
3 608 610 613
3 614 586 587
3 614 615 586
3 614 609 615
3 614 610 609
3 614 613 610
3 614 616 613
3 614 588 616
3 614 587 588
3 617 618 619
3 617 620 618
3 617 621 620
3 617 622 621
3 617 609 622
3 617 615 609
3 617 586 615
3 617 619 586
3 623 621 622
3 623 624 621
3 623 625 624
3 623 626 625
3 623 486 626
3 623 611 486
3 623 609 611
3 623 622 609
3 627 628 629
3 627 630 628
3 627 631 630
3 627 632 631
3 627 564 632
3 627 606 564
3 627 601 606
3 627 629 601
3 633 634 635
3 633 636 634
3 633 628 636
3 633 629 628
3 633 601 629
3 633 600 601
3 633 453 600
3 633 635 453
3 637 638 639
3 637 640 638
3 637 641 640
3 637 642 641
3 637 591 642
3 637 597 591
3 637 553 597
3 637 639 553
3 643 641 642
3 643 644 641
3 643 645 644
3 643 646 645
3 643 513 646
3 643 593 513
3 643 591 593
3 643 642 591
3 647 648 649
3 647 650 648
3 647 618 650
3 647 619 618
3 647 586 619
3 647 585 586
3 647 580 585
3 647 649 580
3 651 652 653
3 651 654 652
3 651 648 654
3 651 649 648
3 651 580 649
3 651 579 580
3 651 495 579
3 651 653 495
3 655 656 657
3 655 658 656
3 655 659 658
3 655 660 659
3 655 540 660
3 655 576 540
3 655 571 576
3 655 657 571
3 661 662 663
3 661 664 662
3 661 656 664
3 661 657 656
3 661 571 657
3 661 570 571
3 661 529 570
3 661 663 529
3 665 631 632
3 665 666 631
3 665 667 666
3 665 668 667
3 665 558 668
3 665 566 558
3 665 564 566
3 665 632 564
3 669 667 668
3 669 670 667
3 669 671 670
3 669 672 671
3 669 507 672
3 669 560 507
3 669 558 560
3 669 668 558
3 673 674 675
3 673 676 674
3 673 638 676
3 673 639 638
3 673 553 639
3 673 552 553
3 673 547 552
3 673 675 547
3 677 678 679
3 677 680 678
3 677 674 680
3 677 675 674
3 677 547 675
3 677 546 547
3 677 474 546
3 677 679 474
3 681 659 660
3 681 682 659
3 681 683 682
3 681 684 683
3 681 534 684
3 681 542 534
3 681 540 542
3 681 660 540
3 685 683 684
3 685 686 683
3 685 687 686
3 685 688 687
3 685 465 688
3 685 536 465
3 685 534 536
3 685 684 534
3 689 690 691
3 689 692 690
3 689 662 692
3 689 663 662
3 689 529 663
3 689 528 529
3 689 523 528
3 689 691 523
3 693 694 695
3 693 696 694
3 693 690 696
3 693 691 690
3 693 523 691
3 693 522 523
3 693 516 522
3 693 695 516
3 697 645 646
3 697 698 645
3 697 694 698
3 697 695 694
3 697 516 695
3 697 515 516
3 697 513 515
3 697 646 513
3 699 671 672
3 699 700 671
3 699 701 700
3 699 702 701
3 699 501 702
3 699 509 501
3 699 507 509
3 699 672 507
3 703 701 702
3 703 704 701
3 703 705 704
3 703 706 705
3 703 492 706
3 703 503 492
3 703 501 503
3 703 702 501
3 707 705 706
3 707 708 705
3 707 652 708
3 707 653 652
3 707 495 653
3 707 494 495
3 707 492 494
3 707 706 492
3 709 625 626
3 709 710 625
3 709 711 710
3 709 712 711
3 709 480 712
3 709 488 480
3 709 486 488
3 709 626 486
3 713 711 712
3 713 714 711
3 713 715 714
3 713 716 715
3 713 471 716
3 713 482 471
3 713 480 482
3 713 712 480
3 717 715 716
3 717 718 715
3 717 678 718
3 717 679 678
3 717 474 679
3 717 473 474
3 717 471 473
3 717 716 471
3 719 687 688
3 719 720 687
3 719 721 720
3 719 722 721
3 719 459 722
3 719 467 459
3 719 465 467
3 719 688 465
3 723 721 722
3 723 724 721
3 723 725 724
3 723 726 725
3 723 450 726
3 723 461 450
3 723 459 461
3 723 722 459
3 727 725 726
3 727 728 725
3 727 634 728
3 727 635 634
3 727 453 635
3 727 452 453
3 727 450 452
3 727 726 450
3 729 730 731
3 729 732 730
3 729 733 732
3 729 734 733
3 729 735 734
3 729 736 735
3 729 737 736
3 729 731 737
3 738 739 740
3 738 741 739
3 738 730 741
3 738 731 730
3 738 737 731
3 738 742 737
3 738 743 742
3 738 740 743
3 744 745 746
3 744 747 745
3 744 739 747
3 744 740 739
3 744 743 740
3 744 748 743
3 744 749 748
3 744 746 749
3 750 737 751
3 750 736 737
3 750 735 736
3 750 752 735
3 750 753 752
3 750 754 753
3 750 755 754
3 750 751 755
3 756 743 757
3 756 742 743
3 756 737 742
3 756 751 737
3 756 755 751
3 756 758 755
3 756 759 758
3 756 757 759
3 760 749 761
3 760 748 749
3 760 743 748
3 760 757 743
3 760 759 757
3 760 762 759
3 760 763 762
3 760 761 763
3 764 755 765
3 764 754 755
3 764 753 754
3 764 766 753
3 764 767 766
3 764 768 767
3 764 769 768
3 764 765 769
3 770 759 771
3 770 758 759
3 770 755 758
3 770 765 755
3 770 769 765
3 770 772 769
3 770 773 772
3 770 771 773
3 774 763 775
3 774 762 763
3 774 759 762
3 774 771 759
3 774 773 771
3 774 776 773
3 774 777 776
3 774 775 777
3 778 769 779
3 778 768 769
3 778 767 768
3 778 780 767
3 778 781 780
3 778 782 781
3 778 783 782
3 778 779 783
3 784 773 785
3 784 772 773
3 784 769 772
3 784 779 769
3 784 783 779
3 784 786 783
3 784 787 786
3 784 785 787
3 788 777 789
3 788 776 777
3 788 773 776
3 788 785 773
3 788 787 785
3 788 790 787
3 788 791 790
3 788 789 791
3 792 783 793
3 792 782 783
3 792 781 782
3 792 794 781
3 792 634 794
3 792 728 634
3 792 725 728
3 792 793 725
3 795 787 796
3 795 786 787
3 795 783 786
3 795 793 783
3 795 725 793
3 795 724 725
3 795 721 724
3 795 796 721
3 797 791 798
3 797 790 791
3 797 787 790
3 797 796 787
3 797 721 796
3 797 720 721
3 797 687 720
3 797 798 687
3 799 711 800
3 799 710 711
3 799 625 710
3 799 801 625
3 799 802 801
3 799 803 802
3 799 804 803
3 799 800 804
3 805 715 806
3 805 714 715
3 805 711 714
3 805 800 711
3 805 804 800
3 805 807 804
3 805 808 807
3 805 806 808
3 809 678 810
3 809 718 678
3 809 715 718
3 809 806 715
3 809 808 806
3 809 811 808
3 809 812 811
3 809 810 812
3 813 804 814
3 813 803 804
3 813 802 803
3 813 815 802
3 813 733 815
3 813 732 733
3 813 730 732
3 813 814 730
3 816 808 817
3 816 807 808
3 816 804 807
3 816 814 804
3 816 730 814
3 816 741 730
3 816 739 741
3 816 817 739
3 818 812 819
3 818 811 812
3 818 808 811
3 818 817 808
3 818 739 817
3 818 747 739
3 818 745 747
3 818 819 745
3 820 694 821
3 820 698 694
3 820 645 698
3 820 822 645
3 820 823 822
3 820 824 823
3 820 825 824
3 820 821 825
3 826 690 827
3 826 696 690
3 826 694 696
3 826 821 694
3 826 825 821
3 826 828 825
3 826 829 828
3 826 827 829
3 830 662 831
3 830 692 662
3 830 690 692
3 830 827 690
3 830 829 827
3 830 832 829
3 830 833 832
3 830 831 833
3 834 825 835
3 834 824 825
3 834 823 824
3 834 836 823
3 834 745 836
3 834 746 745
3 834 749 746
3 834 835 749
3 837 829 838
3 837 828 829
3 837 825 828
3 837 835 825
3 837 749 835
3 837 761 749
3 837 763 761
3 837 838 763
3 839 833 840
3 839 832 833
3 839 829 832
3 839 838 829
3 839 763 838
3 839 775 763
3 839 777 775
3 839 840 777
3 841 735 842
3 841 734 735
3 841 733 734
3 841 843 733
3 841 844 843
3 841 845 844
3 841 846 845
3 841 842 846
3 847 753 848
3 847 752 753
3 847 735 752
3 847 842 735
3 847 846 842
3 847 849 846
3 847 850 849
3 847 848 850
3 851 767 852
3 851 766 767
3 851 753 766
3 851 848 753
3 851 850 848
3 851 853 850
3 851 854 853
3 851 852 854
3 855 846 856
3 855 845 846
3 855 844 845
3 855 857 844
3 855 652 857
3 855 708 652
3 855 705 708
3 855 856 705
3 858 850 859
3 858 849 850
3 858 846 849
3 858 856 846
3 858 705 856
3 858 704 705
3 858 701 704
3 858 859 701
3 860 854 861
3 860 853 854
3 860 850 853
3 860 859 850
3 860 701 859
3 860 700 701
3 860 671 700
3 860 861 671
3 862 833 863
3 862 840 833
3 862 777 840
3 862 789 777
3 862 791 789
3 862 864 791
3 862 865 864
3 862 863 865
3 866 662 664
3 866 831 662
3 866 833 831
3 866 863 833
3 866 865 863
3 866 867 865
3 866 656 867
3 866 664 656
3 868 865 869
3 868 864 865
3 868 791 864
3 868 798 791
3 868 687 798
3 868 686 687
3 868 683 686
3 868 869 683
3 870 656 658
3 870 867 656
3 870 865 867
3 870 869 865
3 870 683 869
3 870 682 683
3 870 659 682
3 870 658 659
3 871 674 872
3 871 680 674
3 871 678 680
3 871 810 678
3 871 812 810
3 871 873 812
3 871 874 873
3 871 872 874
3 875 638 640
3 875 676 638
3 875 674 676
3 875 872 674
3 875 874 872
3 875 876 874
3 875 641 876
3 875 640 641
3 877 874 878
3 877 873 874
3 877 812 873
3 877 819 812
3 877 745 819
3 877 836 745
3 877 823 836
3 877 878 823
3 879 641 644
3 879 876 641
3 879 874 876
3 879 878 874
3 879 823 878
3 879 822 823
3 879 645 822
3 879 644 645
3 880 781 881
3 880 780 781
3 880 767 780
3 880 852 767
3 880 854 852
3 880 882 854
3 880 883 882
3 880 881 883
3 884 634 636
3 884 794 634
3 884 781 794
3 884 881 781
3 884 883 881
3 884 885 883
3 884 628 885
3 884 636 628
3 886 883 887
3 886 882 883
3 886 854 882
3 886 861 854
3 886 671 861
3 886 670 671
3 886 667 670
3 886 887 667
3 888 628 630
3 888 885 628
3 888 883 885
3 888 887 883
3 888 667 887
3 888 666 667
3 888 631 666
3 888 630 631
3 889 802 890
3 889 801 802
3 889 625 801
3 889 624 625
3 889 621 624
3 889 891 621
3 889 892 891
3 889 890 892
3 893 733 843
3 893 815 733
3 893 802 815
3 893 890 802
3 893 892 890
3 893 894 892
3 893 844 894
3 893 843 844
3 895 618 620
3 895 650 618
3 895 648 650
3 895 896 648
3 895 892 896
3 895 891 892
3 895 621 891
3 895 620 621
3 897 844 857
3 897 894 844
3 897 892 894
3 897 896 892
3 897 648 896
3 897 654 648
3 897 652 654
3 897 857 652
