ply
format ascii 1.0
element vertex 375
property float x
property float y
property float z
property float nx
property float ny
property float nz
property float u
property float v
element face 688
property list uchar int vertex_indices
end_header
-1.335317 0.041877 2.430487 -0.0520016274 0.997131206 -0.0550017213 0.976183 0.952692
-1.360885 0.040325 2.474537 -0.328510176 0.943829236 -0.0356011028 0.991408 0.91419
-1.339241 0.041877 2.474069 -0.0392010028 0.999225561 -0.00340008698 0.97852 0.914599
-1.354778 0.040325 2.432361 -0.35469344 0.920682972 -0.162896987 0.987771 0.951054
-1.346714 0.039117 2.418527 -0.306892159 0.891777215 -0.332491505 0.982969 0.963145
-1.332406 0.040325 2.411718 -0.133700464 0.917903185 -0.373601296 0.97445 0.969097
-1.282935 0.040519 2.408686 -0.0163999067 0.935894675 -0.351897998 0.944991 0.971748
-1.283662 0.0421 2.428754 -0.00630027309 0.999143309 -0.0409017729 0.945425 0.954206
-1.285276 0.0421 2.473635 -0.00519992959 0.99998646 -0.000199997292 0.946386 0.914978
-1.335317 0.041877 3.473028 -0.0518981395 0.997164252 0.0544980463 0.976183 0.041451
-1.285232 0.042044 3.429295 -0.00489993704 0.99998715 -0.0012999833 0.945786 0.079677
-1.338847 0.041845 3.429447 -0.0389016127 0.999241424 0.00180007462 0.97763 0.079544
-1.283662 0.0421 3.474192 -0.00569988275 0.999179447 0.0400991752 0.945425 0.040434
-1.282934 0.040519 3.494367 -0.0124003514 0.93662654 0.350109921 0.944991 0.0228
-1.332406 0.040325 3.491797 -0.132207057 0.917948997 0.374019964 0.97445 0.025046
-1.346714 0.039117 3.484988 -0.306892159 0.891777215 0.332491505 0.982969 0.030998
-1.354778 0.040325 3.471154 -0.356895398 0.920288133 0.160297933 0.987771 0.043089
-1.36013 0.040317 3.428978 -0.334110528 0.942129687 0.0276008697 0.990303 0.079953
0.261921 0.043658 2.430487 0.0569015839 0.996427736 -0.062401737 0.025095 0.952692
0.273317 0.040502 2.418527 0.336100339 0.868600877 -0.364100368 0.018309 0.963146
0.25901 0.041883 2.411718 0.141696777 0.901379498 -0.409190693 0.026829 0.969097
0.281382 0.041883 2.432361 0.390289419 0.903675502 -0.176195223 0.013508 0.951054
0.287175 0.041883 2.474537 0.369219309 0.928648565 -0.0359018775 0.010896 0.91419
0.265835 0.043658 2.474068 0.042699253 0.999082521 -0.00329994227 0.023603 0.914599
0.212124 0.043621 2.473699 -0.00129999702 0.99999771 0.00169999611 0.055481 0.914922
0.210266 0.043658 2.42901 0.000499986666 0.998973358 -0.0452987919 0.055854 0.953983
0.209538 0.041883 2.409132 0.00890033212 0.923034444 -0.384614352 0.056287 0.971357
0.261921 0.043658 3.473028 0.0546000106 0.996600194 0.061700012 0.025095 0.041452
0.287495 0.041883 3.428978 0.355813171 0.933734563 0.0392014511 0.009867 0.079954
0.265415 0.043658 3.429446 0.0391011259 0.999228773 0.00360010367 0.023015 0.079544
0.281382 0.041883 3.471154 0.387407615 0.904717782 0.177203483 0.013507 0.043089
0.273318 0.040502 3.484988 0.336100339 0.868600877 0.364100368 0.018309 0.030998
0.259011 0.041883 3.491797 0.144503808 0.9032238 0.404110648 0.026829 0.025046
0.209539 0.041618 3.495937 0.0175997269 0.929185579 0.36919427 0.056287 0.021428
0.210266 0.043356 3.475763 -0.00450011597 0.999025745 0.0439011313 0.055854 0.039061
0.21114 0.043393 3.430669 -0.00579989592 0.999982055 0.00149997308 0.055334 0.078476
0.107195 0.043658 2.429574 -0.000500015688 0.999031345 -0.0440013806 0.117228 0.953491
0.107899 0.043511 2.47384 -0.00119998855 0.99999046 0.00419995993 0.117228 0.914799
-0.021408 0.043437 2.474038 0 0.999984875 0.00549991681 0.19391 0.914626
-0.021584 0.043658 2.430366 0 0.999035861 -0.0439015759 0.19391 0.952798
-0.021584 0.041883 2.411505 0 0.924203119 -0.381901289 0.19391 0.969283
0.107195 0.041883 2.410119 -0.0039999839 0.924896277 -0.38019847 0.117228 0.970495
-0.150362 0.043658 2.429574 0.000700037194 0.999053081 -0.0435023113 0.270593 0.953491
-0.150362 0.043511 2.47384 0.000999991095 0.999991095 0.00409996349 0.270593 0.914799
-0.279141 0.043621 2.473473 0.00079999872 0.9999984 0.00159999744 0.347275 0.91512
-0.279141 0.043658 2.428104 0.000799993516 0.999091902 -0.0425996547 0.347275 0.954775
-0.279141 0.041883 2.407547 0.00700004207 0.930705594 -0.365702198 0.347275 0.972743
-0.150362 0.041883 2.410119 0.00600029516 0.926145558 -0.377118551 0.270593 0.970495
-0.40792 0.043658 2.426863 0.000400017015 0.999142499 -0.0414017611 0.423957 0.955859
-0.407919 0.043658 2.473163 9.9999987e-05 0.99999987 0.000499999935 0.423957 0.915391
-0.536698 0.043632 2.473022 -0.000599999529 0.999999215 0.00109999914 0.500639 0.915514
-0.536698 0.043658 2.426301 -9.99979551e-05 0.999179567 -0.0404991718 0.500639 0.956351
-0.536698 0.041883 2.404391 0 0.936111187 -0.351704203 0.500639 0.975501
-0.40792 0.041883 2.405376 0.00450001463 0.934703038 -0.355401155 0.423957 0.97464
-0.665477 0.043658 2.426863 -0.000499993755 0.99918752 -0.0402994967 0.577321 0.955859
-0.665477 0.043554 2.473163 -0.000699997085 0.999995835 0.00279998834 0.577321 0.915391
-0.794255 0.043503 2.473409 0 0.99999278 0.00379997256 0.654004 0.915176
-0.794255 0.043658 2.427848 -0.000400021966 0.999154865 -0.041102257 0.654004 0.954998
-0.794255 0.041883 2.4071 -0.00430000385 0.932400835 -0.361400323 0.654004 0.973133
-0.665477 0.041883 2.405376 -0.00390017461 0.935041863 -0.354515872 0.577322 0.97464
-0.923034 0.043658 2.428552 -0.000900004091 0.999104541 -0.0423001923 0.730686 0.954383
-0.923034 0.043554 2.473585 -9.99996075e-05 0.999996075 0.00279998901 0.730686 0.915022
-1.051939 0.043409 2.473655 -0.00279998733 0.999995475 0.00109999502 0.807443 0.914961
-1.051813 0.043435 2.428833 -0.00319997232 0.999091358 -0.0424996324 0.807368 0.954137
-1.051813 0.041688 2.408824 -0.00269997557 0.931591569 -0.36349671 0.807368 0.971627
-0.923034 0.041883 2.408331 -0.00319992007 0.930376759 -0.366590843 0.730686 0.972057
-1.180591 0.042767 2.428552 -0.005600174 0.999131043 -0.0413012833 0.88405 0.954383
-1.181098 0.042767 2.473585 -0.00559991217 0.999984315 9.99984315e-05 0.884352 0.915022
-1.180591 0.041104 2.408331 -0.00440019991 0.935342494 -0.35371607 0.88405 0.972057
0.107195 0.042449 3.478971 -0.0052001513 0.99912907 0.0414012046 0.117228 0.036257
0.107196 0.040826 3.499614 0.00460000704 0.938701436 0.344700527 0.117228 0.018214
-0.021583 0.040297 3.502197 0.00450012488 0.942026141 0.335509311 0.19391 0.015956
-0.021583 0.041845 3.481555 0.000499989715 0.999179447 0.0404991669 0.19391 0.033999
-0.021583 0.042072 3.435346 0 0.99998542 0.00539992127 0.19391 0.074388
0.107195 0.0426 3.433085 -0.00539987589 0.999977016 0.00409990576 0.117228 0.076364
-0.150362 0.042449 3.482416 0.00550021927 0.999139832 0.0411016385 0.270592 0.033246
-0.150362 0.040826 3.503058 0.00449998999 0.93939791 0.342799237 0.270592 0.015203
-0.27914 0.041618 3.502197 -0.00119998339 0.934487062 0.355995071 0.347275 0.015956
-0.27914 0.043356 3.481555 0.0037000553 0.999114932 0.0419006262 0.347275 0.033999
-0.279141 0.04337 3.435346 0.00319998304 0.9999947 0.00059999682 0.347275 0.074388
-0.150362 0.0426 3.436099 0.00459991635 0.999981815 0.00389992908 0.270593 0.073729
-0.407919 0.043658 3.478971 0.000100002597 0.999125948 0.0418010856 0.423957 0.036257
-0.407919 0.041883 3.499614 -0.00629987734 0.932081853 0.362192948 0.423957 0.018214
-0.536698 0.041883 3.49703 -0.00480014542 0.931928233 0.362610985 0.500639 0.020472
-0.536698 0.043658 3.476388 -0.000500021246 0.999142454 0.0414017592 0.500639 0.038515
-0.536698 0.043515 3.430825 0 0.999993875 -0.00349997856 0.500639 0.07834
-0.407919 0.043562 3.433085 0.000299999193 0.99999731 -0.00229999381 0.423957 0.076364
-0.665477 0.043658 3.475526 -0.000100002597 0.999125948 0.0418010856 0.577321 0.039268
-0.665476 0.041883 3.496169 -0.00220018775 0.931579495 0.363531021 0.577321 0.021225
-0.794255 0.041883 3.49546 -0.00399998062 0.931195488 0.364498234 0.654004 0.021845
-0.794255 0.043658 3.474817 -0.000399998556 0.999096393 0.0424998466 0.654004 0.039888
-0.794255 0.043626 3.429451 0.000399999576 0.99999894 -0.00139999852 0.654004 0.079541
-0.665477 0.043562 3.430071 0.000599997705 0.999996175 -0.00269998967 0.577321 0.078998
-0.923034 0.043658 3.472689 -0.00140001147 0.999108188 0.0422003458 0.730686 0.041747
-0.923034 0.041883 3.493332 -0.0056001171 0.932119491 0.362107572 0.730686 0.023705
-1.051812 0.041688 3.491914 -0.00270018267 0.934663232 0.355524052 0.807368 0.024944
-1.051813 0.043435 3.471271 -0.00340018129 0.999153271 0.0410021861 0.807368 0.042987
-1.05195 0.04338 3.426348 -0.00359997262 0.999992395 -0.00149998859 0.807368 0.082253
-0.923034 0.043626 3.427589 -0.000999998895 0.999998895 -0.00109999878 0.730686 0.081168
-1.180591 0.042767 3.472689 -0.00519996953 0.999194145 0.0397997668 0.88405 0.041747
-1.180591 0.041104 3.493332 -0.000900048072 0.93745007 0.348118594 0.88405 0.023705
-1.181141 0.042704 3.427589 -0.00579989502 0.9999819 -0.00159997104 0.88405 0.081168
-1.343251 0.041877 2.554762 -0.037100381 0.999310263 -0.00160001643 0.980907 0.844069
-1.288179 0.0421 2.554762 -0.00519992967 0.999986475 -9.99986475e-05 0.948114 0.844069
-1.290838 0.0421 2.654011 -0.00509993365 0.99998699 -9.9998699e-05 0.949698 0.757319
-1.346291 0.041877 2.654011 -0.036800824 0.999322375 -0.000700015674 0.982717 0.757319
-1.368662 0.040325 2.654011 -0.310004622 0.950714175 -0.00630009394 0.996039 0.757319
-1.365623 0.040325 2.554762 -0.312713155 0.949739952 -0.0143006016 0.994229 0.844069
-1.347304 0.041877 2.75326 -0.0367009649 0.999326273 -0.000200005258 0.983321 0.67057
-1.291725 0.0421 2.75326 -0.00509993368 0.999986995 0 0.950225 0.67057
-1.2918 0.0421 2.852509 -0.00509993368 0.999986995 0 0.949698 0.583821
-1.347391 0.041877 2.852509 -0.036601097 0.99932995 -0.000100002997 0.982717 0.583821
-1.369762 0.040325 2.852509 -0.308507105 0.951221907 -0.000500011515 0.996039 0.583821
-1.369675 0.040325 2.75326 -0.309289116 0.950966536 -0.00169994018 0.996642 0.67057
-1.347651 0.041877 2.951758 -0.0366010964 0.999329935 0.000200005991 0.980908 0.497072
-1.292028 0.0421 2.951758 -0.0049999374 0.99998748 0.000199997496 0.948114 0.497072
-1.292136 0.042044 3.051007 -0.00469994574 0.999988455 0.000999988455 0.946459 0.410322
-1.34743 0.041845 3.051007 -0.0365012093 0.999333108 0.00100003313 0.978811 0.410322
-1.369441 0.040317 3.051007 -0.31472282 0.949168822 0.00530038432 0.991917 0.410322
-1.370023 0.040325 2.951758 -0.310010719 0.950732872 0.000600020746 0.994229 0.497072
-1.346074 0.04175 3.150256 -0.0360018172 0.999350443 0.00160008077 0.977348 0.323573
-1.291851 0.041877 3.150256 -0.00419995941 0.999990335 0.00129998744 0.945716 0.323573
-1.290648 0.041766 3.249416 -0.00389997032 0.99999239 9.9999239e-05 0.945573 0.236901
-1.344011 0.041686 3.249505 -0.0357985208 0.999358707 0.000799966946 0.976775 0.236824
-1.364217 0.040277 3.249505 -0.32421899 0.945955406 0.00710041588 0.988807 0.236824
-1.367001 0.040293 3.150256 -0.321100769 0.947002268 0.00900002156 0.98981 0.323573
-1.341674 0.04175 3.348754 -0.0364013567 0.999337246 0.000100003727 0.977348 0.150074
-1.288001 0.041877 3.348399 -0.00429995661 0.99998991 -0.00129998688 0.945716 0.150384
-1.362601 0.040293 3.348754 -0.32409883 0.945996585 0.00709997437 0.98981 0.150074
0.269813 0.043658 2.554761 0.0410023936 0.999158328 -0.00120007006 0.023749 0.844069
0.290969 0.041883 2.554761 0.360614584 0.932637717 -0.0120004853 0.011152 0.844069
0.292939 0.041883 2.65401 0.362317586 0.932045238 -0.00420020386 0.011997 0.75732
0.272391 0.043658 2.654011 0.0406030604 0.999175311 -0.000300022614 0.024232 0.75732
0.218521 0.0434 2.654011 -0.00559990881 0.999983715 0.00109998209 0.055638 0.75732
0.215759 0.043511 2.554762 -0.00339997421 0.999992415 0.00189998559 0.055517 0.844069
0.272101 0.043658 2.753259 0.0391013791 0.999235244 0.000100003527 0.023749 0.67057
0.293257 0.041883 2.753259 0.355109224 0.934824282 -0.00100002598 0.011152 0.670571
0.293324 0.041883 2.852508 0.339621198 0.940558707 -0.00260016229 0.009278 0.583821
0.27082 0.043658 2.852508 0.0370005637 0.999315225 -0.000200003047 0.022679 0.583821
0.215516 0.0434 2.852509 -0.00549991285 0.999984155 -0.00119998099 0.05525 0.583821
0.217761 0.043363 2.75326 -0.0063998689 0.999979516 -9.99979516e-05 0.055517 0.67057
0.270421 0.043658 2.951757 0.0354989198 0.99936959 -0.000499984786 0.021397 0.497072
0.29454 0.041883 2.951757 0.324193062 0.945979756 -0.00459990156 0.007035 0.497072
0.295882 0.041883 3.051006 0.312894359 0.949782875 -0.00309994411 0.005214 0.410323
0.270452 0.043658 3.051006 0.0346000413 0.999401194 -0.000300000359 0.020356 0.410323
0.212756 0.043621 3.051007 -0.00129999812 0.99999855 -0.00109999841 0.054669 0.410323
0.213821 0.043511 2.951757 -0.00339997544 0.999992775 -0.00169998772 0.054929 0.497072
0.270463 0.043658 3.150255 0.0344002798 0.99940813 0.000100000814 0.020009 0.323573
0.29633 0.041883 3.150255 0.309018107 0.951055729 0.00090005274 0.004606 0.323573
0.29531 0.041883 3.249504 0.313699556 0.949498656 0.00669999052 0.005213 0.236824
0.26988 0.043658 3.249504 0.0347997931 0.999394059 0.000699995839 0.020356 0.236824
0.212256 0.04362 3.249612 -0.00129999812 0.99999855 0.00109999841 0.054669 0.23673
0.212402 0.043658 3.150255 -0.000399999968 0.99999992 0 0.054582 0.323573
0.268133 0.043658 3.348753 0.0359019413 0.999354037 0.00160008652 0.021397 0.150075
0.292252 0.041883 3.348753 0.327596708 0.944690506 0.0154998442 0.007035 0.150075
0.211819 0.043507 3.349184 -0.00349997289 0.999992255 0.00179998606 0.054929 0.149698
0.107195 0.043054 3.350476 -0.00329994712 0.999983975 0.00459992629 0.117228 0.148569
-0.021583 0.042752 3.351768 0 0.999980781 0.00619988084 0.19391 0.14744
-0.021583 0.043431 3.250258 0 0.999993155 0.00369997467 0.19391 0.236165
0.107195 0.043507 3.249935 -0.00119999443 0.99999536 0.00279998701 0.117228 0.236447
0.107195 0.043658 3.150255 -0.000399999968 0.99999992 0 0.117228 0.323573
-0.021583 0.043658 3.150256 0 1 0 0.19391 0.323573
-0.021512 0.043437 3.051007 0 0.999993155 -0.00369997467 0.19391 0.410322
0.107481 0.043511 3.051007 -0.00119999443 0.99999536 -0.00279998701 0.117228 0.410322
0.108339 0.043069 2.951758 -0.00319995539 0.99998606 -0.00419994145 0.117228 0.497072
-0.021297 0.042774 2.951758 0 0.99998432 -0.00559991219 0.19391 0.497072
-0.020978 0.042112 2.852509 0 0.999993155 -0.00369997467 0.19391 0.583821
0.109615 0.042627 2.852509 -0.00519990931 0.99998256 -0.00279995117 0.117228 0.583821
0.111155 0.04248 2.75326 -0.005999892 0.999982 0 0.117228 0.67057
-0.020593 0.041891 2.75326 0 1 0 0.19391 0.67057
-0.020456 0.042112 2.654011 0 0.999993155 0.00369997467 0.19391 0.75732
0.111705 0.042627 2.654011 -0.00519990931 0.99998256 0.00279995117 0.117228 0.75732
0.110011 0.043069 2.554762 -0.00319994827 0.999983835 0.00469992403 0.117228 0.844069
-0.02088 0.042774 2.554762 0 0.999980781 0.00619988084 0.19391 0.844069
-0.150362 0.043054 3.352198 0.00259996489 0.999986495 0.00449993923 0.270593 0.147064
-0.279141 0.043411 3.351768 0.000899999348 0.999999275 0.00079999942 0.347275 0.14744
-0.279141 0.043477 3.250258 -0.000899999091 0.99999899 0.00109999889 0.347275 0.236165
-0.150362 0.043507 3.250366 0.00059999754 0.9999959 0.00279998852 0.270593 0.236071
-0.150362 0.043658 3.150256 0 0.99999998 0.000199999996 0.270593 0.323573
-0.279141 0.043562 3.150256 -0.00109999889 0.99999899 0.000899999091 0.347275 0.323573
-0.279141 0.043597 3.051007 0.000299999963 0.999999875 -0.00039999995 0.347275 0.410322
-0.150362 0.043511 3.051007 0.000899996355 0.99999595 -0.00269998907 0.270593 0.410322
-0.150362 0.043069 2.951758 0.00279996549 0.999987675 -0.00409994947 0.270593 0.497072
-0.279141 0.043511 2.951758 0.0021999922 0.999996455 -0.00149999468 0.347275 0.497072
-0.279141 0.0434 2.852509 0.00369997244 0.99999255 -0.00109999181 0.347275 0.583821
-0.150362 0.042627 2.852509 0.0045999333 0.9999855 -0.0027999594 0.270593 0.583821
-0.150362 0.04248 2.75326 0.00529992556 0.999985955 0 0.270593 0.67057
-0.279141 0.043363 2.75326 0.00429996025 0.999990755 0 0.347275 0.67057
-0.279141 0.0434 2.654011 0.00369997244 0.99999255 0.00109999181 0.347275 0.75732
-0.150362 0.042627 2.654011 0.0045999333 0.9999855 0.0027999594 0.270593 0.75732
-0.150362 0.043069 2.554762 0.0027999594 0.9999855 0.0045999333 0.270593 0.844069
-0.279141 0.043511 2.554762 0.00229999019 0.999995735 0.00179999232 0.347275 0.844069
-0.407919 0.043276 3.350476 -0.00109999667 0.999996975 -0.00219999335 0.423957 0.148569
-0.536698 0.043085 3.349184 0 0.99999422 -0.00339998035 0.500639 0.149698
-0.536698 0.042799 3.249612 0 1 0 0.500639 0.23673
-0.407919 0.043085 3.249935 -0.00209999533 0.999997775 0.000199999555 0.423957 0.236447
-0.407919 0.043276 3.150256 -0.00159999408 0.9999963 0.00219999186 0.423957 0.323573
-0.536698 0.043085 3.150256 0 0.9999955 0.0029999865 0.500639 0.323573
-0.536698 0.043515 3.051007 0 0.99999712 0.00239999309 0.500639 0.410322
-0.407919 0.043562 3.051007 -0.000499999298 0.999998595 0.00159999775 0.423957 0.410322
-0.407919 0.043658 2.951758 0.000399999966 0.999999915 9.99999915e-05 0.423957 0.497072
-0.536698 0.043658 2.951758 -9.99999915e-05 0.999999915 0.000399999966 0.500639 0.497072
-0.536698 0.043632 2.852509 -0.0005999997 0.9999995 -0.0007999996 0.500639 0.583821
-0.407919 0.043658 2.852509 0.000799999708 0.999999635 -0.000299999891 0.423957 0.583821
-0.407919 0.043658 2.75326 0.000699999815 0.999999735 -0.000199999947 0.423957 0.67057
-0.536698 0.043554 2.75326 -0.00149999771 0.99999847 -0.000899998623 0.500639 0.67057
-0.536698 0.043503 2.654011 -0.001999996 0.999998 0 0.500639 0.75732
-0.407919 0.043658 2.654011 0.00039999996 0.9999999 0.00019999998 0.423957 0.75732
-0.407919 0.043658 2.554762 0.000199999971 0.999999855 0.000499999928 0.423957 0.844069
-0.536698 0.043554 2.554762 -0.00149999741 0.99999827 0.0010999981 0.500639 0.844069
-0.665477 0.043276 3.348754 0.00159999254 0.99999534 -0.00259998788 0.577321 0.150074
-0.794255 0.043531 3.348399 0.000899998875 0.99999875 -0.00129999838 0.654004 0.150384
-0.794255 0.043467 3.249416 0.00119999914 0.99999928 0 0.654004 0.236901
-0.665477 0.043085 3.249505 0.00209999537 0.999997795 0 0.577321 0.236824
-0.665477 0.043276 3.150256 0.00159999372 0.999996075 0.00229999097 0.577321 0.323573
-0.794255 0.043531 3.150256 0.000899998988 0.999998875 0.00119999865 0.654004 0.323573
-0.794255 0.043626 3.051007 0.000399999806 0.999999515 0.000899999564 0.654004 0.410322
-0.665477 0.043562 3.051007 0.00059999892 0.9999982 0.00179999676 0.577321 0.410322
-0.665477 0.043658 2.951758 0 1 0 0.577321 0.497072
-0.794255 0.043658 2.951758 9.99999915e-05 0.999999915 -0.000399999966 0.654004 0.497072
-0.794255 0.043503 2.852509 0 0.99999662 -0.00259999121 0.654004 0.583821
-0.665477 0.043554 2.852509 -0.000699998565 0.99999795 -0.00189999611 0.577321 0.583821
-0.665477 0.043244 2.75326 -0.0018999911 0.999995315 -0.00239998876 0.577321 0.67057
-0.794255 0.043038 2.75326 0 0.99999488 -0.00319998362 0.654004 0.67057
-0.794255 0.042728 2.654011 0 1 0 0.654004 0.75732
-0.665477 0.043038 2.654011 -0.00249999219 0.999996875 0 0.577321 0.75732
-0.665477 0.043244 2.554762 -0.00189998965 0.99999455 0.00269998529 0.577321 0.844069
-0.794255 0.043038 2.554762 0 0.999993155 0.00369997467 0.654004 0.844069
-0.923034 0.043531 3.347335 -0.00119999841 0.999998675 -0.00109999854 0.730686 0.151314
-1.052363 0.043213 3.346626 -0.00389996652 0.999991415 -0.00139998798 0.807368 0.151934
-1.052775 0.043101 3.248973 -0.003999968 0.999992 0 0.807368 0.237289
-0.923034 0.043467 3.24915 -0.0012999989 0.999999155 0 0.730686 0.237134
-0.923034 0.043531 3.150256 -0.00119999865 0.999998875 0.000899998988 0.730686 0.323573
-1.052913 0.043213 3.150256 -0.00379996935 0.999991935 0.00129998952 0.807368 0.323573
-1.052902 0.04338 3.051007 -0.00349997681 0.999993375 0.000999993375 0.807443 0.410322
-0.923034 0.043626 3.051007 -0.000999999255 0.999999255 0.000699999479 0.730686 0.410322
-0.923034 0.043658 2.951758 -0.000699999797 0.99999971 -0.000299999913 0.730686 0.497072
-1.052869 0.043435 2.951758 -0.00329998202 0.99999455 9.9999455e-05 0.80767 0.497072
-1.052837 0.043409 2.852509 -0.00279998813 0.99999576 -0.000799996608 0.807896 0.583821
-0.923034 0.043554 2.852509 -9.9999819e-05 0.99999819 -0.00189999656 0.730686 0.583821
-0.923034 0.043244 2.75326 0.00099999662 0.99999662 -0.00239999189 0.730686 0.67057
-1.052826 0.043332 2.75326 -0.00189999562 0.999997695 -0.000999997695 0.807971 0.67057
-1.052699 0.04328 2.654011 -0.00139999863 0.99999902 0 0.807896 0.757319
-0.923034 0.043038 2.654011 0.00159999795 0.99999872 0 0.730686 0.75732
-0.923034 0.043244 2.554762 0.000999995855 0.999995855 0.00269998881 0.730686 0.844069
-1.052319 0.043332 2.554762 -0.00189999542 0.99999759 0.00109999735 0.80767 0.844069
-1.182791 0.042513 3.347335 -0.00569990011 0.999982475 -0.00159997196 0.88405 0.151314
-1.184441 0.042386 3.24915 -0.00559991219 0.99998432 0 0.88405 0.237134
-1.184991 0.042513 3.150256 -0.00559990589 0.999983195 0.00149997479 0.88405 0.323573
-1.184948 0.042704 3.051007 -0.00559990816 0.9999836 0.00119998032 0.884352 0.410322
-1.184818 0.042767 2.951758 -0.00559991208 0.9999843 0.00019999686 0.885257 0.497072
-1.184687 0.042767 2.852509 -0.00549991679 0.99998487 -9.9998487e-05 0.886162 0.583821
-1.184644 0.042767 2.75326 -0.00529992546 0.999985935 -0.000199997187 0.886463 0.67057
-1.184137 0.042767 2.654011 -0.0051999297 0.99998648 0 0.886162 0.75732
-1.182618 0.042767 2.554762 -0.00529992554 0.99998595 9.9998595e-05 0.885257 0.844069
0.298021 0.036558 2.554761 0.896141201 0.442820359 -0.0290013334 0.006953 0.844069
0.299788 0.036558 2.65401 0.897004171 0.441902055 -0.0103000479 0.007918 0.75732
0.294288 0.036558 2.474693 0.896214026 0.434906806 -0.0875013694 0.006661 0.914054
0.294288 0.029458 2.474693 0.99503719 0 -0.099503719 0.006661 0.914054
0.298021 0.029458 2.554761 0.999481465 0 -0.0321994029 0.006953 0.844069
0.299788 0.029458 2.65401 0.999933868 0 -0.0115003895 0.007918 0.75732
0.300309 0.036558 2.753259 0.894259604 0.447529829 -0.00410027329 0.006953 0.670571
0.300826 0.036558 2.852508 0.887814498 0.460107514 -0.00930015187 0.004811 0.583821
0.300309 0.029458 2.753259 0.99998648 0 -0.0051999297 0.006953 0.670571
0.300826 0.029458 2.852508 0.999935013 0 -0.0114003992 0.004811 0.583821
0.30258 0.036558 2.951757 0.881245293 0.472424281 -0.0149007658 0.002247 0.497072
0.304359 0.036558 3.051006 0.876541334 0.481222693 -0.0100004716 0.000166 0.410323
0.30258 0.029458 2.951757 0.999841554 0 -0.0178007398 0.002247 0.497072
0.304359 0.029458 3.051006 0.999927993 0 -0.012000336 0.000166 0.410323
0.304952 0.036558 3.150255 0.874898797 0.484299334 0.00249999656 -0.000528 0.323573
0.303787 0.036558 3.249504 0.876772601 0.480484985 0.0200993719 0.000166 0.236824
0.304952 0.029458 3.150255 0.999995795 0 0.00289998781 -0.000528 0.323573
0.303787 0.029458 3.249504 0.999723824 0 0.02350056 0.000166 0.236824
0.300292 0.036558 3.348753 0.881916995 0.469309044 0.0444008556 0.002247 0.150075
0.294856 0.036558 3.428822 0.889216091 0.446108072 0.101401835 0.005484 0.08009
0.300292 0.029458 3.348753 0.998673066 0 0.0514986111 0.002247 0.150075
0.294856 0.029458 3.428822 0.993179243 0 0.116597563 0.005484 0.08009
-1.369577 0.035668 3.348754 -0.881980905 0.470889805 0.0192995822 0.993963 0.150074
-1.370952 0.035668 3.249505 -0.882058813 0.470731387 0.019601307 0.992817 0.236824
-1.367224 0.035668 3.428822 -0.883727352 0.462114303 0.0740022904 0.994527 0.08009
-1.367224 0.029458 3.428822 -0.996337891 0 0.0855032518 0.994527 0.08009
-1.369577 0.029458 3.348754 -0.999766708 0 0.0215992808 0.993963 0.150074
-1.370952 0.029458 3.249505 -0.999753573 0 0.0221989691 0.992817 0.236824
-1.373977 0.035668 3.150256 -0.88042132 0.473511466 0.0254006151 0.993963 0.323573
-1.376778 0.035668 3.051007 -0.877581391 0.479189839 0.0150996798 0.996286 0.410322
-1.373977 0.029458 3.150256 -0.999570688 0 0.0292991408 0.993963 0.323573
-1.376778 0.029458 3.051007 -0.999845094 0 0.0176007938 0.996286 0.410322
-1.37748 0.035668 2.951758 -0.875290083 0.483594521 0.00189997847 0.998669 0.497072
-1.377219 0.035668 2.852509 -0.874509838 0.485005456 -0.00150001688 1.000479 0.583821
-1.37748 0.029458 2.951758 -0.99999758 0 0.00219999468 0.998669 0.497072
-1.377219 0.029458 2.852509 -0.99999838 0 -0.00179999708 1.000479 0.583821
-1.377132 0.035668 2.75326 -0.874891452 0.484295268 -0.0047999531 1.001083 0.67057
-1.376119 0.035668 2.654011 -0.875148528 0.483526812 -0.0178009871 1.000479 0.757319
-1.377132 0.029458 2.75326 -0.999984875 0 -0.00549991681 1.001083 0.67057
-1.376119 0.029458 2.654011 -0.999791902 0 -0.0203998348 1.000479 0.757319
-1.37308 0.035668 2.554762 -0.875795301 0.480997419 -0.0402997838 0.998669 0.844069
-1.3681 0.035668 2.474693 -0.878941707 0.467022161 -0.0967045887 0.995704 0.914053
-1.37308 0.029458 2.554762 -0.998927521 0 -0.0463012756 0.998669 0.844069
-1.3681 0.029458 2.474693 -0.993708104 0 -0.112000913 0.995704 0.914053
0.107195 0.036558 2.403634 -0.0103003742 0.42691551 -0.904232851 0.117228 0.976163
0.209295 0.036558 2.402507 0.0214998864 0.423597761 -0.905595214 0.056432 0.977149
-0.021584 0.036558 2.405219 0 0.425320184 -0.90504295 0.19391 0.974778
-0.021584 0.029458 2.405219 0 0 -1 0.19391 0.974778
0.107195 0.029458 2.403634 -0.0117003692 0 -0.999931548 0.117228 0.976163
0.209295 0.029458 2.402507 0.0247998124 0 -0.999692437 0.056432 0.977149
-0.150362 0.036558 2.403634 0.015399765 0.429393448 -0.90298622 0.270593 0.976163
-0.279141 0.036558 2.400695 0.0183999396 0.438798561 -0.898397053 0.347275 0.978732
-0.279141 0.029458 2.400695 0.0209995691 0 -0.999779485 0.347275 0.978732
-0.150362 0.029458 2.403634 0.0176007938 0 -0.999845094 0.270593 0.976163
-0.40792 0.036558 2.398214 0.0122005541 0.447220311 -0.894340617 0.423957 0.980901
-0.536698 0.036558 2.397088 0 0.450131416 -0.892962322 0.500639 0.981885
-0.536698 0.029458 2.397088 0 0 -1 0.500639 0.981885
-0.40792 0.029458 2.398214 0.0140000279 0 -0.999901995 0.423957 0.980901
-0.665477 0.036558 2.398214 -0.0105002065 0.44790881 -0.894017586 0.577322 0.980901
-0.794256 0.036558 2.400184 -0.0114999323 0.442297395 -0.896794718 0.654004 0.979179
-0.794256 0.029458 2.400184 -0.0131001859 0 -0.999914189 0.654004 0.979179
-0.665477 0.029458 2.398214 -0.012000336 0 -0.999927993 0.577322 0.980901
-0.923034 0.036558 2.401591 -0.00699999363 0.438099601 -0.898899182 0.730686 0.977949
-1.051813 0.036447 2.402154 -0.00100004838 0.44072132 -0.897643425 0.807368 0.977457
-1.051813 0.029458 2.402154 0 0 -1 0.807368 0.977457
-0.923034 0.029458 2.401591 -0.00759978052 0 -0.999971121 0.730686 0.977949
-1.180591 0.036113 2.401591 -0.00160004463 0.448612514 -0.893724931 0.88405 0.977949
-1.282692 0.035779 2.401996 -0.033901115 0.449514785 -0.892629359 0.944847 0.977595
-1.282692 0.029458 2.401996 -0.0374998736 0 -0.999296632 0.944847 0.977595
-1.180592 0.029458 2.401591 0.000199999996 0 -0.99999998 0.88405 0.977949
0.107196 0.035954 3.506495 0.0233994707 0.45578969 0.889779873 0.117228 0.0122
-0.021583 0.035652 3.509078 0.0118003343 0.462913115 0.88632511 0.19391 0.009942
0.209296 0.036407 3.502662 0.0558009015 0.436207047 0.898114509 0.056431 0.01555
0.209296 0.029458 3.502662 0.0658021557 0 0.99783269 0.056431 0.01555
0.107196 0.029458 3.506495 0.0287995738 0 0.999585206 0.117228 0.0122
-0.021583 0.029458 3.509078 0.0134001369 0 0.999910214 0.19391 0.009942
-0.150362 0.035954 3.509939 0.00180001708 0.45730434 0.88930844 0.270592 0.009189
-0.27914 0.036407 3.509078 -0.0104997401 0.446988937 0.894477862 0.347275 0.009942
-0.150362 0.029458 3.509939 0 0 1 0.270592 0.009189
-0.27914 0.029458 3.509078 -0.0134001369 0 0.999910214 0.347275 0.009942
-0.407919 0.036558 3.506495 -0.0175998447 0.441696102 0.896992084 0.423957 0.0122
-0.536698 0.036558 3.503911 -0.0120008371 0.44113077 0.897362593 0.500639 0.014458
-0.407919 0.029458 3.506495 -0.0200999593 0 0.999797975 0.423957 0.0122
-0.536698 0.029458 3.503911 -0.0134001369 0 0.999910214 0.500639 0.014458
-0.665476 0.036558 3.50305 -0.00550017659 0.440514143 0.897728822 0.577321 0.015211
-0.794255 0.036558 3.502341 -0.00990036607 0.439816263 0.898033205 0.654004 0.015831
-0.665476 0.029458 3.50305 -0.00609988651 0 0.999981396 0.577321 0.015211
-0.794255 0.029458 3.502341 -0.0110004345 0 0.999939493 0.654004 0.015831
-0.923034 0.036558 3.500213 -0.0125997098 0.441689828 0.897079341 0.730686 0.01769
-1.051812 0.036447 3.498795 -0.00110003275 0.447013308 0.89452663 0.807368 0.01893
-0.923034 0.029458 3.500213 -0.0138000659 0 0.999904775 0.730686 0.01769
-1.051812 0.029458 3.498795 0 0 1 0.807368 0.01893
-1.180591 0.036113 3.500213 0.00700020101 0.453113011 0.891425598 0.88405 0.01769
-1.282692 0.035779 3.501091 -0.0244008665 0.451116019 0.89213168 0.944847 0.016922
-1.180591 0.029458 3.500213 0.00979952944 0 0.999951983 0.88405 0.01769
-1.282692 0.029458 3.501091 -0.0268010935 0 0.999640786 0.944847 0.016922
0.287868 0.036558 2.432985 0.860998795 0.405199433 -0.30739957 0.009645 0.950508
0.27653 0.036558 2.414841 0.62440227 0.377901374 -0.683602485 0.016397 0.966368
0.27653 0.029458 2.414841 0.674904583 0 -0.73790501 0.016397 0.966368
0.287868 0.029458 2.432985 0.937417811 0 -0.348206616 0.009645 0.950508
0.287869 0.036558 3.47053 0.857903007 0.407701429 0.312701096 0.009645 0.043635
0.27653 0.036558 3.488674 0.624444955 0.377927208 0.68354921 0.016396 0.027776
0.287869 0.029458 3.47053 0.935094684 0 0.354397985 0.009645 0.043635
0.27653 0.029458 3.488674 0.674904583 0 0.73790501 0.016396 0.027776
-1.361265 0.035668 3.47053 -0.851030957 0.432015715 0.298510859 0.991634 0.043635
-1.349926 0.035668 3.488674 -0.616717904 0.404811752 0.675119599 0.984882 0.027776
-1.349926 0.029458 3.488674 -0.674904583 0 0.73790501 0.984882 0.027776
-1.361265 0.029458 3.47053 -0.939299014 0 0.34309964 0.991634 0.043635
-1.361265 0.035668 2.432986 -0.847320603 0.433210534 -0.30720747 0.991634 0.950508
-1.349926 0.035668 2.414841 -0.616717904 0.404811752 -0.675119599 0.984882 0.966368
-1.361265 0.029458 2.432986 -0.935731918 0 -0.352712031 0.991634 0.950508
-1.349926 0.029458 2.414841 -0.674904583 0 -0.73790501 0.984882 0.966368
0.25804 0.036558 2.405462 0.23030898 0.399715585 -0.887234594 0.027407 0.974566
0.25804 0.029458 2.405462 0.26189874 0 -0.965095358 0.027407 0.974566
-1.331436 0.035668 2.405462 -0.232308713 0.426115982 -0.874332792 0.973872 0.974565
-1.331436 0.029458 2.405462 -0.266906232 0 -0.963722503 0.973872 0.974565
0.25804 0.036558 3.498053 0.244505857 0.402809649 0.882021129 0.027406 0.019578
0.25804 0.029458 3.498053 0.278113926 0 0.960548096 0.027406 0.019578
-1.331436 0.035668 3.498054 -0.228414472 0.426327011 0.875255454 0.973872 0.019578
-1.331436 0.029458 3.498054 -0.262694313 0 0.964879111 0.973872 0.019578
3 0 1 2
3 0 3 1
3 0 4 3
3 0 5 4
3 0 6 5
3 0 7 6
3 0 8 7
3 0 2 8
3 9 10 11
3 9 12 10
3 9 13 12
3 9 14 13
3 9 15 14
3 9 16 15
3 9 17 16
3 9 11 17
3 18 19 20
3 18 21 19
3 18 22 21
3 18 23 22
3 18 24 23
3 18 25 24
3 18 26 25
3 18 20 26
3 27 28 29
3 27 30 28
3 27 31 30
3 27 32 31
3 27 33 32
3 27 34 33
3 27 35 34
3 27 29 35
3 36 24 25
3 36 37 24
3 36 38 37
3 36 39 38
3 36 40 39
3 36 41 40
3 36 26 41
3 36 25 26
3 42 38 39
3 42 43 38
3 42 44 43
3 42 45 44
3 42 46 45
3 42 47 46
3 42 40 47
3 42 39 40
3 48 44 45
3 48 49 44
3 48 50 49
3 48 51 50
3 48 52 51
3 48 53 52
3 48 46 53
3 48 45 46
3 54 50 51
3 54 55 50
3 54 56 55
3 54 57 56
3 54 58 57
3 54 59 58
3 54 52 59
3 54 51 52
3 60 56 57
3 60 61 56
3 60 62 61
3 60 63 62
3 60 64 63
3 60 65 64
3 60 58 65
3 60 57 58
3 66 62 63
3 66 67 62
3 66 8 67
3 66 7 8
3 66 6 7
3 66 68 6
3 66 64 68
3 66 63 64
3 69 33 34
3 69 70 33
3 69 71 70
3 69 72 71
3 69 73 72
3 69 74 73
3 69 35 74
3 69 34 35
3 75 71 72
3 75 76 71
3 75 77 76
3 75 78 77
3 75 79 78
3 75 80 79
3 75 73 80
3 75 72 73
3 81 77 78
3 81 82 77
3 81 83 82
3 81 84 83
3 81 85 84
3 81 86 85
3 81 79 86
3 81 78 79
3 87 83 84
3 87 88 83
3 87 89 88
3 87 90 89
3 87 91 90
3 87 92 91
3 87 85 92
3 87 84 85
3 93 89 90
3 93 94 89
3 93 95 94
3 93 96 95
3 93 97 96
3 93 98 97
3 93 91 98
3 93 90 91
3 99 95 96
3 99 100 95
3 99 13 100
3 99 12 13
3 99 10 12
3 99 101 10
3 99 97 101
3 99 96 97
3 102 8 2
3 102 103 8
3 102 104 103
3 102 105 104
3 102 106 105
3 102 107 106
3 102 1 107
3 102 2 1
3 108 104 105
3 108 109 104
3 108 110 109
3 108 111 110
3 108 112 111
3 108 113 112
3 108 106 113
3 108 105 106
3 114 110 111
3 114 115 110
3 114 116 115
3 114 117 116
3 114 118 117
3 114 119 118
3 114 112 119
3 114 111 112
3 120 116 117
3 120 121 116
3 120 122 121
3 120 123 122
3 120 124 123
3 120 125 124
3 120 118 125
3 120 117 118
3 126 122 123
3 126 127 122
3 126 10 127
3 126 11 10
3 126 17 11
3 126 128 17
3 126 124 128
3 126 123 124
3 129 22 23
3 129 130 22
3 129 131 130
3 129 132 131
3 129 133 132
3 129 134 133
3 129 24 134
3 129 23 24
3 135 131 132
3 135 136 131
3 135 137 136
3 135 138 137
3 135 139 138
3 135 140 139
3 135 133 140
3 135 132 133
3 141 137 138
3 141 142 137
3 141 143 142
3 141 144 143
3 141 145 144
3 141 146 145
3 141 139 146
3 141 138 139
3 147 143 144
3 147 148 143
3 147 149 148
3 147 150 149
3 147 151 150
3 147 152 151
3 147 145 152
3 147 144 145
3 153 149 150
3 153 154 149
3 153 28 154
3 153 29 28
3 153 35 29
3 153 155 35
3 153 151 155
3 153 150 151
3 156 73 74
3 156 157 73
3 156 158 157
3 156 159 158
3 156 151 159
3 156 155 151
3 156 35 155
3 156 74 35
3 160 158 159
3 160 161 158
3 160 162 161
3 160 163 162
3 160 145 163
3 160 152 145
3 160 151 152
3 160 159 151
3 164 162 163
3 164 165 162
3 164 166 165
3 164 167 166
3 164 139 167
3 164 146 139
3 164 145 146
3 164 163 145
3 168 166 167
3 168 169 166
3 168 170 169
3 168 171 170
3 168 133 171
3 168 140 133
3 168 139 140
3 168 167 139
3 172 170 171
3 172 173 170
3 172 38 173
3 172 37 38
3 172 24 37
3 172 134 24
3 172 133 134
3 172 171 133
3 174 79 80
3 174 175 79
3 174 176 175
3 174 177 176
3 174 158 177
3 174 157 158
3 174 73 157
3 174 80 73
3 178 176 177
3 178 179 176
3 178 180 179
3 178 181 180
3 178 162 181
3 178 161 162
3 178 158 161
3 178 177 158
3 182 180 181
3 182 183 180
3 182 184 183
3 182 185 184
3 182 166 185
3 182 165 166
3 182 162 165
3 182 181 162
3 186 184 185
3 186 187 184
3 186 188 187
3 186 189 188
3 186 170 189
3 186 169 170
3 186 166 169
3 186 185 166
3 190 188 189
3 190 191 188
3 190 44 191
3 190 43 44
3 190 38 43
3 190 173 38
3 190 170 173
3 190 189 170
3 192 85 86
3 192 193 85
3 192 194 193
3 192 195 194
3 192 176 195
3 192 175 176
3 192 79 175
3 192 86 79
3 196 194 195
3 196 197 194
3 196 198 197
3 196 199 198
3 196 180 199
3 196 179 180
3 196 176 179
3 196 195 176
3 200 198 199
3 200 201 198
3 200 202 201
3 200 203 202
3 200 184 203
3 200 183 184
3 200 180 183
3 200 199 180
3 204 202 203
3 204 205 202
3 204 206 205
3 204 207 206
3 204 188 207
3 204 187 188
3 204 184 187
3 204 203 184
3 208 206 207
3 208 209 206
3 208 50 209
3 208 49 50
3 208 44 49
3 208 191 44
3 208 188 191
3 208 207 188
3 210 91 92
3 210 211 91
3 210 212 211
3 210 213 212
3 210 194 213
3 210 193 194
3 210 85 193
3 210 92 85
3 214 212 213
3 214 215 212
3 214 216 215
3 214 217 216
3 214 198 217
3 214 197 198
3 214 194 197
3 214 213 194
3 218 216 217
3 218 219 216
3 218 220 219
3 218 221 220
3 218 202 221
3 218 201 202
3 218 198 201
3 218 217 198
3 222 220 221
3 222 223 220
3 222 224 223
3 222 225 224
3 222 206 225
3 222 205 206
3 222 202 205
3 222 221 202
3 226 224 225
3 226 227 224
3 226 56 227
3 226 55 56
3 226 50 55
3 226 209 50
3 226 206 209
3 226 225 206
3 228 97 98
3 228 229 97
3 228 230 229
3 228 231 230
3 228 212 231
3 228 211 212
3 228 91 211
3 228 98 91
3 232 230 231
3 232 233 230
3 232 234 233
3 232 235 234
3 232 216 235
3 232 215 216
3 232 212 215
3 232 231 212
3 236 234 235
3 236 237 234
3 236 238 237
3 236 239 238
3 236 220 239
3 236 219 220
3 236 216 219
3 236 235 216
3 240 238 239
3 240 241 238
3 240 242 241
3 240 243 242
3 240 224 243
3 240 223 224
3 240 220 223
3 240 239 220
3 244 242 243
3 244 245 242
3 244 62 245
3 244 61 62
3 244 56 61
3 244 227 56
3 244 224 227
3 244 243 224
3 246 10 101
3 246 127 10
3 246 122 127
3 246 247 122
3 246 230 247
3 246 229 230
3 246 97 229
3 246 101 97
3 248 122 247
3 248 121 122
3 248 116 121
3 248 249 116
3 248 234 249
3 248 233 234
3 248 230 233
3 248 247 230
3 250 116 249
3 250 115 116
3 250 110 115
3 250 251 110
3 250 238 251
3 250 237 238
3 250 234 237
3 250 249 234
3 252 110 251
3 252 109 110
3 252 104 109
3 252 253 104
3 252 242 253
3 252 241 242
3 252 238 241
3 252 251 238
3 254 104 253
3 254 103 104
3 254 8 103
3 254 67 8
3 254 62 67
3 254 245 62
3 254 242 245
3 254 253 242
3 255 131 256
3 255 130 131
3 255 22 130
3 255 257 22
3 255 258 257
3 255 259 258
3 255 260 259
3 255 256 260
3 261 137 262
3 261 136 137
3 261 131 136
3 261 256 131
3 261 260 256
3 261 263 260
3 261 264 263
3 261 262 264
3 265 143 266
3 265 142 143
3 265 137 142
3 265 262 137
3 265 264 262
3 265 267 264
3 265 268 267
3 265 266 268
3 269 149 270
3 269 148 149
3 269 143 148
3 269 266 143
3 269 268 266
3 269 271 268
3 269 272 271
3 269 270 272
3 273 28 274
3 273 154 28
3 273 149 154
3 273 270 149
3 273 272 270
3 273 275 272
3 273 276 275
3 273 274 276
3 277 124 278
3 277 128 124
3 277 17 128
3 277 279 17
3 277 280 279
3 277 281 280
3 277 282 281
3 277 278 282
3 283 118 284
3 283 125 118
3 283 124 125
3 283 278 124
3 283 282 278
3 283 285 282
3 283 286 285
3 283 284 286
3 287 112 288
3 287 119 112
3 287 118 119
3 287 284 118
3 287 286 284
3 287 289 286
3 287 290 289
3 287 288 290
3 291 106 292
3 291 113 106
3 291 112 113
3 291 288 112
3 291 290 288
3 291 293 290
3 291 294 293
3 291 292 294
3 295 1 296
3 295 107 1
3 295 106 107
3 295 292 106
3 295 294 292
3 295 297 294
3 295 298 297
3 295 296 298
3 299 26 300
3 299 41 26
3 299 40 41
3 299 301 40
3 299 302 301
3 299 303 302
3 299 304 303
3 299 300 304
3 305 40 301
3 305 47 40
3 305 46 47
3 305 306 46
3 305 307 306
3 305 308 307
3 305 302 308
3 305 301 302
3 309 46 306
3 309 53 46
3 309 52 53
3 309 310 52
3 309 311 310
3 309 312 311
3 309 307 312
3 309 306 307
3 313 52 310
3 313 59 52
3 313 58 59
3 313 314 58
3 313 315 314
3 313 316 315
3 313 311 316
3 313 310 311
3 317 58 314
3 317 65 58
3 317 64 65
3 317 318 64
3 317 319 318
3 317 320 319
3 317 315 320
3 317 314 315
3 321 64 318
3 321 68 64
3 321 6 68
3 321 322 6
3 321 323 322
3 321 324 323
3 321 319 324
3 321 318 319
3 325 71 326
3 325 70 71
3 325 33 70
3 325 327 33
3 325 328 327
3 325 329 328
3 325 330 329
3 325 326 330
3 331 77 332
3 331 76 77
3 331 71 76
3 331 326 71
3 331 330 326
3 331 333 330
3 331 334 333
3 331 332 334
3 335 83 336
3 335 82 83
3 335 77 82
3 335 332 77
3 335 334 332
3 335 337 334
3 335 338 337
3 335 336 338
3 339 89 340
3 339 88 89
3 339 83 88
3 339 336 83
3 339 338 336
3 339 341 338
3 339 342 341
3 339 340 342
3 343 95 344
3 343 94 95
3 343 89 94
3 343 340 89
3 343 342 340
3 343 345 342
3 343 346 345
3 343 344 346
3 347 13 348
3 347 100 13
3 347 95 100
3 347 344 95
3 347 346 344
3 347 349 346
3 347 350 349
3 347 348 350
3 351 22 257
3 351 21 22
3 351 19 21
3 351 352 19
3 351 353 352
3 351 354 353
3 351 258 354
3 351 257 258
3 355 31 356
3 355 30 31
3 355 28 30
3 355 274 28
3 355 276 274
3 355 357 276
3 355 358 357
3 355 356 358
3 359 17 279
3 359 16 17
3 359 15 16
3 359 360 15
3 359 361 360
3 359 362 361
3 359 280 362
3 359 279 280
3 363 4 364
3 363 3 4
3 363 1 3
3 363 296 1
3 363 298 296
3 363 365 298
3 363 366 365
3 363 364 366
3 367 19 352
3 367 20 19
3 367 26 20
3 367 300 26
3 367 304 300
3 367 368 304
3 367 353 368
3 367 352 353
3 369 6 322
3 369 5 6
3 369 4 5
3 369 364 4
3 369 366 364
3 369 370 366
3 369 323 370
3 369 322 323
3 371 33 327
3 371 32 33
3 371 31 32
3 371 356 31
3 371 358 356
3 371 372 358
3 371 328 372
3 371 327 328
3 373 15 360
3 373 14 15
3 373 13 14
3 373 348 13
3 373 350 348
3 373 374 350
3 373 361 374
3 373 360 361
