ply
format ascii 1.0
element vertex 132
property float x
property float y
property float z
property float nx
property float ny
property float nz
property float u
property float v
element face 44
property list uchar int vertex_indices
end_header
-0.75097 0.447458 3.20357 0 -1 0 0.936751 0.109658
-0.315318 0.447458 3.188406 0 -1 0 0.014191 0.010844
-0.315318 0.447458 3.20357 0 -1 0 0.014191 0.109658
-0.75097 0.447458 3.20357 0 -1 0 0.936751 0.109658
-0.75097 0.447458 3.188406 0 -1 0 0.936751 0.010844
-0.315318 0.447458 3.188406 0 -1 0 0.014191 0.010844
-0.75097 0.271808 3.186742 0 0 1 0.936751 0.602827
-0.315318 0.445794 3.186742 0 0 1 0.014191 0.954558
-0.75097 0.445794 3.186742 0 0 1 0.936751 0.954558
-0.75097 0.271808 3.186742 0 0 1 0.936751 0.602827
-0.315318 0.271808 3.186742 0 0 1 0.014191 0.602827
-0.315318 0.445794 3.186742 0 0 1 0.014191 0.954558
-0.315318 0.270144 3.20357 0 1 0 0.014191 0.489805
-0.75097 0.270144 3.188406 0 1 0 0.936751 0.588619
-0.75097 0.270144 3.20357 0 1 0 0.936751 0.489805
-0.315318 0.270144 3.20357 0 1 0 0.014191 0.489805
-0.315318 0.270144 3.188406 0 1 0 0.014191 0.588619
-0.75097 0.270144 3.188406 0 1 0 0.936751 0.588619
-0.752634 0.271808 3.20357 1 -0 0 0.99559 0.004496
-0.752634 0.445794 3.188406 1 -0 0 0.955404 0.36943
-0.752634 0.445794 3.20357 1 -0 0 0.995475 0.370329
-0.752634 0.271808 3.20357 1 0 0 0.99559 0.004496
-0.752634 0.271808 3.188406 1 0 0 0.955415 0.003598
-0.752634 0.445794 3.188406 1 0 0 0.955404 0.36943
-0.315318 0.445794 3.205234 -0 0 -1 0.014191 0.123866
-0.75097 0.271808 3.205234 -0 0 -1 0.936751 0.475597
-0.75097 0.445794 3.205234 -0 0 -1 0.936751 0.123866
-0.315318 0.445794 3.205234 0 -0 -1 0.014191 0.123866
-0.315318 0.271808 3.205234 0 -0 -1 0.014191 0.475597
-0.75097 0.271808 3.205234 0 -0 -1 0.936751 0.475597
-0.315318 0.445794 3.205234 -0.577350269 -0.577350269 -0.577350269 0.014191 0.123866
-0.315318 0.447458 3.20357 -0.577350269 -0.577350269 -0.577350269 0.014191 0.120502
-0.313654 0.445794 3.20357 -0.577350269 -0.577350269 -0.577350269 0.010667 0.123866
-0.75097 0.271808 3.205234 0.577350269 0.577350269 -0.577350269 0.936751 0.475597
-0.75097 0.270144 3.20357 0.577350269 0.577350269 -0.577350269 0.936751 0.478961
-0.752634 0.271808 3.20357 0.577350269 0.577350269 -0.577350269 0.940275 0.475597
-0.315318 0.270144 3.20357 -0.577350269 0.577350269 -0.577350269 0.014191 0.489805
-0.315318 0.271808 3.205234 -0.577350269 0.577350269 -0.577350269 0.014191 0.478961
-0.313654 0.271808 3.20357 -0.577350269 0.577350269 -0.577350269 0.010667 0.489805
-0.75097 0.445794 3.205234 0.577350269 -0.577350269 -0.577350269 0.936751 0.123866
-0.752634 0.445794 3.20357 0.577350269 -0.577350269 -0.577350269 0.940275 0.123866
-0.75097 0.447458 3.20357 0.577350269 -0.577350269 -0.577350269 0.936751 0.120502
-0.752634 0.445794 3.188406 0.577350269 -0.577350269 0.577350269 0.955404 0.36943
-0.75097 0.445794 3.186742 0.577350269 -0.577350269 0.577350269 0.951006 0.369332
-0.75097 0.447458 3.188406 0.577350269 -0.577350269 0.577350269 0.955404 0.372929
-0.315318 0.270144 3.188406 -0.577350269 0.577350269 0.577350269 0.014191 0.588619
-0.313654 0.271808 3.188406 -0.577350269 0.577350269 0.577350269 0.010667 0.588619
-0.315318 0.271808 3.186742 -0.577350269 0.577350269 0.577350269 0.014191 0.599463
-0.75097 0.270144 3.188406 0.577350269 0.577350269 0.577350269 0.936751 0.588619
-0.75097 0.271808 3.186742 0.577350269 0.577350269 0.577350269 0.936751 0.599463
-0.752634 0.271808 3.188406 0.577350269 0.577350269 0.577350269 0.940275 0.588619
-0.315318 0.447458 3.188406 -0.577350269 -0.577350269 0.577350269 0.014191 0.010844
-0.315318 0.445794 3.186742 -0.577350269 -0.577350269 0.577350269 0.014191 0
-0.313654 0.445794 3.188406 -0.577350269 -0.577350269 0.577350269 0.010667 0.010844
-0.315318 0.445794 3.205234 -0.707106781 -0 -0.707106781 0.014191 0.123866
-0.313654 0.271808 3.20357 -0.707106781 -0 -0.707106781 0.010667 0.475597
-0.315318 0.271808 3.205234 -0.707106781 -0 -0.707106781 0.014191 0.475597
-0.315318 0.445794 3.205234 -0.707106781 0 -0.707106781 0.014191 0.123866
-0.313654 0.445794 3.20357 -0.707106781 0 -0.707106781 0.010667 0.123866
-0.313654 0.271808 3.20357 -0.707106781 0 -0.707106781 0.010667 0.475597
-0.315318 0.447458 3.20357 -0 -0.707106781 -0.707106781 0.014191 0.109658
-0.75097 0.445794 3.205234 -0 -0.707106781 -0.707106781 0.936751 0.123866
-0.75097 0.447458 3.20357 -0 -0.707106781 -0.707106781 0.936751 0.109658
-0.315318 0.447458 3.20357 0 -0.707106781 -0.707106781 0.014191 0.109658
-0.315318 0.445794 3.205234 0 -0.707106781 -0.707106781 0.014191 0.123866
-0.75097 0.445794 3.205234 0 -0.707106781 -0.707106781 0.936751 0.123866
-0.75097 0.271808 3.205234 0.707106781 0 -0.707106781 0.936751 0.475597
-0.752634 0.445794 3.20357 0.707106781 0 -0.707106781 0.940275 0.123866
-0.75097 0.445794 3.205234 0.707106781 0 -0.707106781 0.936751 0.123866
-0.75097 0.271808 3.205234 0.707106781 0 -0.707106781 0.936751 0.475597
-0.752634 0.271808 3.20357 0.707106781 0 -0.707106781 0.940275 0.475597
-0.752634 0.445794 3.20357 0.707106781 0 -0.707106781 0.940275 0.123866
-0.75097 0.270144 3.20357 0 0.707106781 -0.707106781 0.936751 0.489805
-0.315318 0.271808 3.205234 0 0.707106781 -0.707106781 0.014191 0.475597
-0.315318 0.270144 3.20357 0 0.707106781 -0.707106781 0.014191 0.489805
-0.75097 0.270144 3.20357 0 0.707106781 -0.707106781 0.936751 0.489805
-0.75097 0.271808 3.205234 0 0.707106781 -0.707106781 0.936751 0.475597
-0.315318 0.271808 3.205234 0 0.707106781 -0.707106781 0.014191 0.475597
-0.752634 0.271808 3.20357 0.707106781 0.707106781 0 0.99559 0.004496
-0.75097 0.270144 3.188406 0.707106781 0.707106781 0 0.955415 9.9e-05
-0.752634 0.271808 3.188406 0.707106781 0.707106781 0 0.955415 0.003598
-0.752634 0.271808 3.20357 0.707106781 0.707106781 0 0.99559 0.004496
-0.75097 0.270144 3.20357 0.707106781 0.707106781 0 0.995591 0.000997
-0.75097 0.270144 3.188406 0.707106781 0.707106781 0 0.955415 9.9e-05
-0.315318 0.270144 3.188406 0 0.707106781 0.707106781 0.014191 0.588619
-0.75097 0.271808 3.186742 0 0.707106781 0.707106781 0.936751 0.602827
-0.75097 0.270144 3.188406 0 0.707106781 0.707106781 0.936751 0.588619
-0.315318 0.270144 3.188406 0 0.707106781 0.707106781 0.014191 0.588619
-0.315318 0.271808 3.186742 0 0.707106781 0.707106781 0.014191 0.602827
-0.75097 0.271808 3.186742 0 0.707106781 0.707106781 0.936751 0.602827
-0.315318 0.270144 3.20357 -0.707106781 0.707106781 0 0.014191 0.489805
-0.313654 0.271808 3.188406 -0.707106781 0.707106781 0 0.010667 0.588619
-0.315318 0.270144 3.188406 -0.707106781 0.707106781 0 0.014191 0.588619
-0.315318 0.270144 3.20357 -0.707106781 0.707106781 0 0.014191 0.489805
-0.313654 0.271808 3.20357 -0.707106781 0.707106781 0 0.010667 0.489805
-0.313654 0.271808 3.188406 -0.707106781 0.707106781 0 0.010667 0.588619
-0.75097 0.447458 3.20357 0.707106781 -0.707106781 0 0.936751 0.109658
-0.752634 0.445794 3.188406 0.707106781 -0.707106781 0 0.940275 0.010844
-0.75097 0.447458 3.188406 0.707106781 -0.707106781 0 0.936751 0.010844
-0.75097 0.447458 3.20357 0.707106781 -0.707106781 0 0.936751 0.109658
-0.752634 0.445794 3.20357 0.707106781 -0.707106781 0 0.940275 0.109658
-0.752634 0.445794 3.188406 0.707106781 -0.707106781 0 0.940275 0.010844
-0.75097 0.445794 3.186742 0.707106781 0 0.707106781 0.936751 0.954558
-0.752634 0.271808 3.188406 0.707106781 0 0.707106781 0.940275 0.602827
-0.75097 0.271808 3.186742 0.707106781 0 0.707106781 0.936751 0.602827
-0.75097 0.445794 3.186742 0.707106781 0 0.707106781 0.936751 0.954558
-0.752634 0.445794 3.188406 0.707106781 0 0.707106781 0.940275 0.954558
-0.752634 0.271808 3.188406 0.707106781 0 0.707106781 0.940275 0.602827
-0.313654 0.445794 3.20357 -0.707106781 -0.707106781 -0 0.955321 0.741348
-0.315318 0.447458 3.188406 -0.707106781 -0.707106781 -0 0.995226 0.745708
-0.313654 0.445794 3.188406 -0.707106781 -0.707106781 -0 0.995226 0.742228
-0.313654 0.445794 3.20357 -0.707106781 -0.707106781 0 0.955321 0.741348
-0.315318 0.447458 3.20357 -0.707106781 -0.707106781 0 0.955321 0.744828
-0.315318 0.447458 3.188406 -0.707106781 -0.707106781 0 0.995226 0.745708
-0.75097 0.447458 3.188406 0 -0.707106781 0.707106781 0.936751 0.010844
-0.315318 0.445794 3.186742 0 -0.707106781 0.707106781 0.014191 0
-0.315318 0.447458 3.188406 0 -0.707106781 0.707106781 0.014191 0.010844
-0.75097 0.447458 3.188406 0 -0.707106781 0.707106781 0.936751 0.010844
-0.75097 0.445794 3.186742 0 -0.707106781 0.707106781 0.936751 0
-0.315318 0.445794 3.186742 0 -0.707106781 0.707106781 0.014191 0
-0.315318 0.271808 3.186742 -0.707106781 0 0.707106781 0.014191 0.602827
-0.313654 0.445794 3.188406 -0.707106781 0 0.707106781 0.010667 0.954557
-0.315318 0.445794 3.186742 -0.707106781 0 0.707106781 0.014191 0.954558
-0.315318 0.271808 3.186742 -0.707106781 0 0.707106781 0.014191 0.602827
-0.313654 0.271808 3.188406 -0.707106781 0 0.707106781 0.010667 0.602827
-0.313654 0.445794 3.188406 -0.707106781 0 0.707106781 0.010667 0.954557
-0.313654 0.445794 3.20357 -1 -0 0 0.955321 0.741348
-0.313654 0.271808 3.188406 -1 -0 0 0.995226 0.378383
-0.313654 0.271808 3.20357 -1 -0 0 0.955321 0.377503
-0.313654 0.445794 3.20357 -1 0 -0 0.955321 0.741348
-0.313654 0.445794 3.188406 -1 0 -0 0.995226 0.742228
-0.313654 0.271808 3.188406 -1 0 -0 0.995226 0.378383
3 0 1 2
3 3 4 5
3 6 7 8
3 9 10 11
3 12 13 14
3 15 16 17
3 18 19 20
3 21 22 23
3 24 25 26
3 27 28 29
3 30 31 32
3 33 34 35
3 36 37 38
3 39 40 41
3 42 43 44
3 45 46 47
3 48 49 50
3 51 52 53
3 54 55 56
3 57 58 59
3 60 61 62
3 63 64 65
3 66 67 68
3 69 70 71
3 72 73 74
3 75 76 77
3 78 79 80
3 81 82 83
3 84 85 86
3 87 88 89
3 90 91 92
3 93 94 95
3 96 97 98
3 99 100 101
3 102 103 104
3 105 106 107
3 108 109 110
3 111 112 113
3 114 115 116
3 117 118 119
3 120 121 122
3 123 124 125
3 126 127 128
3 129 130 131
