ply
format ascii 1.0
element vertex 516
property float x
property float y
property float z
property float nx
property float ny
property float nz
property float u
property float v
element face 172
property list uchar int vertex_indices
end_header
-0.495743 0.372753 3.21882 0 -1 -0 0 0
-0.570545 0.372753 3.216434 0 -1 -0 0 0
-0.495743 0.372753 3.216434 0 -1 -0 0 0
-0.495743 0.372753 3.21882 -0 -1 0 0 0
-0.570545 0.372753 3.21882 -0 -1 0 0 0
-0.570545 0.372753 3.216434 -0 -1 0 0 0
-0.495743 0.372753 3.208416 0 -1 -0 0 0
-0.570545 0.372753 3.205976 0 -1 -0 0 0
-0.495743 0.372753 3.205976 0 -1 -0 0 0
-0.495743 0.372753 3.208416 -0 -1 0 0 0
-0.570545 0.372753 3.208416 -0 -1 0 0 0
-0.570545 0.372753 3.205976 -0 -1 0 0 0
-0.570545 0.369022 3.216689 -0 0.173396205 0.984852149 0 0
-0.495743 0.360792 3.218138 -0 0.173396205 0.984852149 0 0
-0.495743 0.369022 3.216689 -0 0.173396205 0.984852149 0 0
-0.570545 0.369022 3.216689 0 0.173396205 0.984852149 0 0
-0.570545 0.360792 3.218138 0 0.173396205 0.984852149 0 0
-0.495743 0.360792 3.218138 0 0.173396205 0.984852149 0 0
-0.570961 0.369016 3.219491 1 0 0 0 0
-0.570961 0.360866 3.218547 1 0 0 0 0
-0.570961 0.369016 3.217113 1 0 0 0 0
-0.570961 0.369016 3.219491 1 0 0 0 0
-0.570961 0.361302 3.220942 1 0 0 0 0
-0.570961 0.360866 3.218547 1 0 0 0 0
-0.495743 0.369016 3.208832 -0 0 -1 0 0
-0.570545 0.360977 3.208832 -0 0 -1 0 0
-0.570545 0.369016 3.208832 -0 0 -1 0 0
-0.495743 0.369016 3.208832 0 -0 -1 0 0
-0.495743 0.360977 3.208832 0 -0 -1 0 0
-0.570545 0.360977 3.208832 0 -0 -1 0 0
-0.570545 0.369848 3.20556 0 0 1 0 0
-0.495743 0.372337 3.20556 0 0 1 0 0
-0.570545 0.372337 3.20556 0 0 1 0 0
-0.570545 0.369848 3.20556 0 0 1 0 0
-0.495743 0.369848 3.20556 0 0 1 0 0
-0.495743 0.372337 3.20556 0 0 1 0 0
-0.570961 0.372337 3.218889 1 0 0 0 0
-0.570961 0.369848 3.216965 1 0 0 0 0
-0.570961 0.372337 3.216516 1 0 0 0 0
-0.570961 0.372337 3.218889 1 0 0 0 0
-0.570961 0.369848 3.219338 1 0 0 0 0
-0.570961 0.369848 3.216965 1 0 0 0 0
-0.570545 0.360561 3.208416 0 1 0 0 0
-0.495743 0.360561 3.205976 0 1 0 0 0
-0.570545 0.360561 3.205976 0 1 0 0 0
-0.570545 0.360561 3.208416 -0 1 0 0 0
-0.495743 0.360561 3.208416 -0 1 0 0 0
-0.495743 0.360561 3.205976 -0 1 0 0 0
-0.495327 0.369848 3.208416 -1 0 0 0 0
-0.495327 0.372337 3.205976 -1 0 0 0 0
-0.495327 0.369848 3.205976 -1 0 0 0 0
-0.495327 0.369848 3.208416 -1 0 0 0 0
-0.495327 0.372337 3.208416 -1 0 0 0 0
-0.495327 0.372337 3.205976 -1 0 0 0 0
-0.495743 0.372343 3.21931 -0 -0.177846589 -0.984058225 0 0
-0.570545 0.369842 3.219762 -0 -0.177846589 -0.984058225 0 0
-0.570545 0.372343 3.21931 -0 -0.177846589 -0.984058225 0 0
-0.495743 0.372343 3.21931 0 -0.177846589 -0.984058225 0 0
-0.495743 0.369842 3.219762 0 -0.177846589 -0.984058225 0 0
-0.570545 0.369842 3.219762 0 -0.177846589 -0.984058225 0 0
-0.495743 0.372753 3.215601 0 -1 -0 0 0
-0.570545 0.372753 3.209248 0 -1 -0 0 0
-0.495743 0.372753 3.209248 0 -1 -0 0 0
-0.495743 0.372753 3.215601 -0 -1 0 0 0
-0.570545 0.372753 3.215601 -0 -1 0 0 0
-0.570545 0.372753 3.209248 -0 -1 0 0 0
-0.495327 0.369016 3.205976 -1 0 0 0 0
-0.495327 0.360977 3.208416 -1 0 0 0 0
-0.495327 0.369016 3.208416 -1 0 0 0 0
-0.495327 0.369016 3.205976 -1 0 0 0 0
-0.495327 0.360977 3.205976 -1 0 0 0 0
-0.495327 0.360977 3.208416 -1 0 0 0 0
-0.495327 0.369848 3.21612 -1 0 0 0 0
-0.495327 0.372337 3.209248 -1 0 0 0 0
-0.495327 0.369848 3.209248 -1 0 0 0 0
-0.495327 0.369848 3.21612 -1 0 0 0 0
-0.495327 0.372337 3.21567 -1 0 0 0 0
-0.495327 0.372337 3.209248 -1 0 0 0 0
-0.570961 0.372337 3.21567 1 0 0 0 0
-0.570961 0.369848 3.209248 1 0 0 0 0
-0.570961 0.372337 3.209248 1 0 0 0 0
-0.570961 0.372337 3.21567 1 0 0 0 0
-0.570961 0.369848 3.21612 1 0 0 0 0
-0.570961 0.369848 3.209248 1 0 0 0 0
-0.570545 0.369016 3.20556 -0 0 1 0 0
-0.495743 0.360977 3.20556 -0 0 1 0 0
-0.495743 0.369016 3.20556 -0 0 1 0 0
-0.570545 0.369016 3.20556 0 0 1 0 0
-0.570545 0.360977 3.20556 0 0 1 0 0
-0.495743 0.360977 3.20556 0 0 1 0 0
-0.570961 0.372337 3.208416 1 0 0 0 0
-0.570961 0.369848 3.205976 1 0 0 0 0
-0.570961 0.372337 3.205976 1 0 0 0 0
-0.570961 0.372337 3.208416 1 0 0 0 0
-0.570961 0.369848 3.208416 1 0 0 0 0
-0.570961 0.369848 3.205976 1 0 0 0 0
-0.570545 0.369432 3.216201 0 1 0 0 0
-0.495743 0.369432 3.209248 0 1 0 0 0
-0.570545 0.369432 3.209248 0 1 0 0 0
-0.570545 0.369432 3.216201 -0 1 0 0 0
-0.495743 0.369432 3.216201 -0 1 0 0 0
-0.495743 0.369432 3.209248 -0 1 0 0 0
-0.495743 0.369023 3.219913 -0 -0.184831745 -0.98277018 0 0
-0.570545 0.361377 3.221351 -0 -0.184831745 -0.98277018 0 0
-0.570545 0.369023 3.219913 -0 -0.184831745 -0.98277018 0 0
-0.495743 0.369023 3.219913 0 -0.184831745 -0.98277018 0 0
-0.495743 0.361377 3.221351 0 -0.184831745 -0.98277018 0 0
-0.570545 0.361377 3.221351 0 -0.184831745 -0.98277018 0 0
-0.570961 0.369016 3.208416 1 0 0 0 0
-0.570961 0.360977 3.205976 1 0 0 0 0
-0.570961 0.369016 3.205976 1 0 0 0 0
-0.570961 0.369016 3.208416 1 0 0 0 0
-0.570961 0.360977 3.208416 1 0 0 0 0
-0.570961 0.360977 3.205976 1 0 0 0 0
-0.495327 0.369016 3.217113 -1 0 0 0 0
-0.495327 0.361302 3.220942 -1 0 0 0 0
-0.495327 0.369016 3.219491 -1 0 0 0 0
-0.495327 0.369016 3.217113 -1 0 0 0 0
-0.495327 0.360866 3.218547 -1 0 0 0 0
-0.495327 0.361302 3.220942 -1 0 0 0 0
-0.570545 0.360893 3.221019 0 0.983823966 -0.179137947 0 0
-0.495743 0.360456 3.218619 0 0.983823966 -0.179137947 0 0
-0.570545 0.360456 3.218619 0 0.983823966 -0.179137947 0 0
-0.570545 0.360893 3.221019 0 0.983823966 -0.179137947 0 0
-0.495743 0.360893 3.221019 0 0.983823966 -0.179137947 0 0
-0.495743 0.360456 3.218619 0 0.983823966 -0.179137947 0 0
-0.495743 0.372343 3.21931 -0.551131184 -0.639946343 -0.535465308 0 0
-0.495743 0.372753 3.21882 -0.551131184 -0.639946343 -0.535465308 0 0
-0.495327 0.372337 3.218889 -0.551131184 -0.639946343 -0.535465308 0 0
-0.570545 0.369842 3.219762 0.707040874 -0.127900348 -0.695510391 0 0
-0.570961 0.369016 3.219491 0.707040874 -0.127900348 -0.695510391 0 0
-0.570961 0.369848 3.219338 0.707040874 -0.127900348 -0.695510391 0 0
-0.570545 0.369842 3.219762 0.707340018 -0.12816693 -0.695157059 0 0
-0.570545 0.369023 3.219913 0.707340018 -0.12816693 -0.695157059 0 0
-0.570961 0.369016 3.219491 0.707340018 -0.12816693 -0.695157059 0 0
-0.495327 0.369016 3.219491 -0.707040874 -0.127900348 -0.695510391 0 0
-0.495743 0.369842 3.219762 -0.707040874 -0.127900348 -0.695510391 0 0
-0.495327 0.369848 3.219338 -0.707040874 -0.127900348 -0.695510391 0 0
-0.495327 0.369016 3.219491 -0.707340018 -0.12816693 -0.695157059 0 0
-0.495743 0.369023 3.219913 -0.707340018 -0.12816693 -0.695157059 0 0
-0.495743 0.369842 3.219762 -0.707340018 -0.12816693 -0.695157059 0 0
-0.570545 0.372343 3.21931 0.551131184 -0.639946343 -0.535465308 0 0
-0.570961 0.372337 3.218889 0.551131184 -0.639946343 -0.535465308 0 0
-0.570545 0.372753 3.21882 0.551131184 -0.639946343 -0.535465308 0 0
-0.570545 0.372337 3.20556 0.577350269 -0.577350269 0.577350269 0 0
-0.570545 0.372753 3.205976 0.577350269 -0.577350269 0.577350269 0 0
-0.570961 0.372337 3.205976 0.577350269 -0.577350269 0.577350269 0 0
-0.495327 0.369016 3.205976 -0.707106781 0 0.707106781 0 0
-0.495743 0.369848 3.20556 -0.707106781 0 0.707106781 0 0
-0.495743 0.369016 3.20556 -0.707106781 0 0.707106781 0 0
-0.495327 0.369016 3.205976 -0.707106781 0 0.707106781 0 0
-0.495327 0.369848 3.205976 -0.707106781 0 0.707106781 0 0
-0.495743 0.369848 3.20556 -0.707106781 0 0.707106781 0 0
-0.570545 0.369848 3.20556 0.707106781 0 0.707106781 0 0
-0.570961 0.369016 3.205976 0.707106781 0 0.707106781 0 0
-0.570545 0.369016 3.20556 0.707106781 0 0.707106781 0 0
-0.570545 0.369848 3.20556 0.707106781 0 0.707106781 0 0
-0.570961 0.369848 3.205976 0.707106781 0 0.707106781 0 0
-0.570961 0.369016 3.205976 0.707106781 0 0.707106781 0 0
-0.495743 0.372337 3.20556 -0.577350269 -0.577350269 0.577350269 0 0
-0.495327 0.372337 3.205976 -0.577350269 -0.577350269 0.577350269 0 0
-0.495743 0.372753 3.205976 -0.577350269 -0.577350269 0.577350269 0 0
-0.570545 0.369022 3.216689 0.7074431 0.123780427 0.695846726 0 0
-0.570961 0.369848 3.216965 0.7074431 0.123780427 0.695846726 0 0
-0.570961 0.369016 3.217113 0.7074431 0.123780427 0.695846726 0 0
-0.570545 0.369022 3.216689 0.893125907 0.449806752 0 0 0
-0.570961 0.369848 3.21612 0.893125907 0.449806752 0 0 0
-0.570961 0.369848 3.216965 0.893125907 0.449806752 0 0 0
-0.570545 0.369022 3.216689 0.539287742 0.64476452 0.541707896 0 0
-0.570545 0.369432 3.216201 0.539287742 0.64476452 0.541707896 0 0
-0.570961 0.369848 3.21612 0.539287742 0.64476452 0.541707896 0 0
-0.570545 0.369432 3.209248 0.707106781 0.707106781 0 0 0
-0.570961 0.369848 3.208416 0.707106781 0.707106781 0 0 0
-0.570961 0.369848 3.209248 0.707106781 0.707106781 0 0 0
-0.570545 0.369432 3.209248 0.894427191 0 -0.447213596 0 0
-0.570961 0.369016 3.208416 0.894427191 0 -0.447213596 0 0
-0.570961 0.369848 3.208416 0.894427191 0 -0.447213596 0 0
-0.570545 0.369432 3.209248 0.577350269 0.577350269 -0.577350269 0 0
-0.570545 0.369016 3.208832 0.577350269 0.577350269 -0.577350269 0 0
-0.570961 0.369016 3.208416 0.577350269 0.577350269 -0.577350269 0 0
-0.495327 0.369848 3.216965 -0.7074431 0.123780427 0.695846726 0 0
-0.495743 0.369022 3.216689 -0.7074431 0.123780427 0.695846726 0 0
-0.495327 0.369016 3.217113 -0.7074431 0.123780427 0.695846726 0 0
-0.495327 0.369848 3.216965 -0.889534295 0.349798117 0.293887762 0 0
-0.495743 0.369432 3.216201 -0.889534295 0.349798117 0.293887762 0 0
-0.495743 0.369022 3.216689 -0.889534295 0.349798117 0.293887762 0 0
-0.495327 0.369848 3.216965 -0.707106781 0.707106781 0 0 0
-0.495327 0.369848 3.21612 -0.707106781 0.707106781 0 0 0
-0.495743 0.369432 3.216201 -0.707106781 0.707106781 0 0 0
-0.495327 0.369848 3.208416 -0.707106781 0.707106781 0 0 0
-0.495743 0.369432 3.209248 -0.707106781 0.707106781 0 0 0
-0.495327 0.369848 3.209248 -0.707106781 0.707106781 0 0 0
-0.495327 0.369848 3.208416 -0.904534034 0.301511345 -0.301511345 0 0
-0.495743 0.369016 3.208832 -0.904534034 0.301511345 -0.301511345 0 0
-0.495743 0.369432 3.209248 -0.904534034 0.301511345 -0.301511345 0 0
-0.495327 0.369848 3.208416 -0.707106781 -0 -0.707106781 0 0
-0.495327 0.369016 3.208416 -0.707106781 -0 -0.707106781 0 0
-0.495743 0.369016 3.208832 -0.707106781 -0 -0.707106781 0 0
-0.570961 0.372337 3.216516 0.707106781 -0.707106781 0 0 0
-0.570545 0.372753 3.215601 0.707106781 -0.707106781 0 0 0
-0.570545 0.372753 3.216434 0.707106781 -0.707106781 0 0 0
-0.570961 0.372337 3.216516 0.707106781 -0.707106781 0 0 0
-0.570961 0.372337 3.21567 0.707106781 -0.707106781 0 0 0
-0.570545 0.372753 3.215601 0.707106781 -0.707106781 0 0 0
-0.570961 0.372337 3.209248 0.707106781 -0.707106781 0 0 0
-0.570545 0.372753 3.208416 0.707106781 -0.707106781 0 0 0
-0.570545 0.372753 3.209248 0.707106781 -0.707106781 0 0 0
-0.570961 0.372337 3.209248 0.707106781 -0.707106781 0 0 0
-0.570961 0.372337 3.208416 0.707106781 -0.707106781 0 0 0
-0.570545 0.372753 3.208416 0.707106781 -0.707106781 0 0 0
-0.495743 0.372753 3.216434 -0.707106781 -0.707106781 0 0 0
-0.495327 0.372337 3.21567 -0.707106781 -0.707106781 0 0 0
-0.495327 0.372337 3.216516 -0.707106781 -0.707106781 0 0 0
-0.495743 0.372753 3.216434 -0.707106781 -0.707106781 -0 0 0
-0.495743 0.372753 3.215601 -0.707106781 -0.707106781 -0 0 0
-0.495327 0.372337 3.21567 -0.707106781 -0.707106781 -0 0 0
-0.495743 0.372753 3.209248 -0.707106781 -0.707106781 0 0 0
-0.495327 0.372337 3.208416 -0.707106781 -0.707106781 0 0 0
-0.495327 0.372337 3.209248 -0.707106781 -0.707106781 0 0 0
-0.495743 0.372753 3.209248 -0.707106781 -0.707106781 -0 0 0
-0.495743 0.372753 3.208416 -0.707106781 -0.707106781 -0 0 0
-0.495327 0.372337 3.208416 -0.707106781 -0.707106781 -0 0 0
-0.495743 0.360977 3.208832 -0.577350269 0.577350269 -0.577350269 0 0
-0.495327 0.360977 3.208416 -0.577350269 0.577350269 -0.577350269 0 0
-0.495743 0.360561 3.208416 -0.577350269 0.577350269 -0.577350269 0 0
-0.570545 0.360977 3.208832 0.577350269 0.577350269 -0.577350269 0 0
-0.570545 0.360561 3.208416 0.577350269 0.577350269 -0.577350269 0 0
-0.570961 0.360977 3.208416 0.577350269 0.577350269 -0.577350269 0 0
-0.570545 0.360792 3.218138 0.578299959 0.668806185 0.467191015 0 0
-0.570961 0.360866 3.218547 0.578299959 0.668806185 0.467191015 0 0
-0.570545 0.360456 3.218619 0.578299959 0.668806185 0.467191015 0 0
-0.495743 0.360792 3.218138 -0.578299959 0.668806185 0.467191015 0 0
-0.495743 0.360456 3.218619 -0.578299959 0.668806185 0.467191015 0 0
-0.495327 0.360866 3.218547 -0.578299959 0.668806185 0.467191015 0 0
-0.495327 0.360977 3.205976 -0.577350269 0.577350269 0.577350269 0 0
-0.495743 0.360977 3.20556 -0.577350269 0.577350269 0.577350269 0 0
-0.495743 0.360561 3.205976 -0.577350269 0.577350269 0.577350269 0 0
-0.495327 0.361302 3.220942 -0.578259862 0.461495851 -0.672783109 0 0
-0.495743 0.360893 3.221019 -0.578259862 0.461495851 -0.672783109 0 0
-0.495743 0.361377 3.221351 -0.578259862 0.461495851 -0.672783109 0 0
-0.570961 0.360977 3.205976 0.577350269 0.577350269 0.577350269 0 0
-0.570545 0.360561 3.205976 0.577350269 0.577350269 0.577350269 0 0
-0.570545 0.360977 3.20556 0.577350269 0.577350269 0.577350269 0 0
-0.570961 0.361302 3.220942 0.578259862 0.461495851 -0.672783109 0 0
-0.570545 0.361377 3.221351 0.578259862 0.461495851 -0.672783109 0 0
-0.570545 0.360893 3.221019 0.578259862 0.461495851 -0.672783109 0 0
-0.495743 0.372343 3.21931 -0.707254282 -0.125730291 -0.695689064 0 0
-0.495327 0.369848 3.219338 -0.707254282 -0.125730291 -0.695689064 0 0
-0.495743 0.369842 3.219762 -0.707254282 -0.125730291 -0.695689064 0 0
-0.495743 0.372343 3.21931 -0.706577453 -0.125625368 -0.696395412 0 0
-0.495327 0.372337 3.218889 -0.706577453 -0.125625368 -0.696395412 0 0
-0.495327 0.369848 3.219338 -0.706577453 -0.125625368 -0.696395412 0 0
-0.495743 0.372753 3.21882 -0 -0.766936805 -0.641722633 0 0
-0.570545 0.372343 3.21931 -0 -0.766936805 -0.641722633 0 0
-0.570545 0.372753 3.21882 -0 -0.766936805 -0.641722633 0 0
-0.495743 0.372753 3.21882 0 -0.766936805 -0.641722633 0 0
-0.495743 0.372343 3.21931 0 -0.766936805 -0.641722633 0 0
-0.570545 0.372343 3.21931 0 -0.766936805 -0.641722633 0 0
-0.570545 0.369842 3.219762 0.70655847 -0.125853968 -0.696373396 0 0
-0.570961 0.372337 3.218889 0.70655847 -0.125853968 -0.696373396 0 0
-0.570545 0.372343 3.21931 0.70655847 -0.125853968 -0.696373396 0 0
-0.570545 0.369842 3.219762 0.7072766 -0.125501312 -0.69570772 0 0
-0.570961 0.369848 3.219338 0.7072766 -0.125501312 -0.69570772 0 0
-0.570961 0.372337 3.218889 0.7072766 -0.125501312 -0.69570772 0 0
-0.570545 0.369023 3.219913 0 -0.181315237 -0.983425028 0 0
-0.495743 0.369842 3.219762 0 -0.181315237 -0.983425028 0 0
-0.495743 0.369023 3.219913 0 -0.181315237 -0.983425028 0 0
-0.570545 0.369023 3.219913 0 -0.181315237 -0.983425028 0 0
-0.570545 0.369842 3.219762 0 -0.181315237 -0.983425028 0 0
-0.495743 0.369842 3.219762 0 -0.181315237 -0.983425028 0 0
-0.495743 0.369016 3.20556 0 0 1 0 0
-0.570545 0.369848 3.20556 0 0 1 0 0
-0.570545 0.369016 3.20556 0 0 1 0 0
-0.495743 0.369016 3.20556 0 -0 1 0 0
-0.495743 0.369848 3.20556 0 -0 1 0 0
-0.570545 0.369848 3.20556 0 -0 1 0 0
-0.570545 0.372337 3.20556 0.707106781 0 0.707106781 0 0
-0.570961 0.369848 3.205976 0.707106781 0 0.707106781 0 0
-0.570545 0.369848 3.20556 0.707106781 0 0.707106781 0 0
-0.570545 0.372337 3.20556 0.707106781 0 0.707106781 0 0
-0.570961 0.372337 3.205976 0.707106781 0 0.707106781 0 0
-0.570961 0.369848 3.205976 0.707106781 0 0.707106781 0 0
-0.570545 0.372753 3.205976 0 -0.707106781 0.707106781 0 0
-0.495743 0.372337 3.20556 0 -0.707106781 0.707106781 0 0
-0.495743 0.372753 3.205976 0 -0.707106781 0.707106781 0 0
-0.570545 0.372753 3.205976 0 -0.707106781 0.707106781 0 0
-0.570545 0.372337 3.20556 0 -0.707106781 0.707106781 0 0
-0.495743 0.372337 3.20556 0 -0.707106781 0.707106781 0 0
-0.495743 0.369848 3.20556 -0.707106781 0 0.707106781 0 0
-0.495327 0.372337 3.205976 -0.707106781 0 0.707106781 0 0
-0.495743 0.372337 3.20556 -0.707106781 0 0.707106781 0 0
-0.495743 0.369848 3.20556 -0.707106781 0 0.707106781 0 0
-0.495327 0.369848 3.205976 -0.707106781 0 0.707106781 0 0
-0.495327 0.372337 3.205976 -0.707106781 0 0.707106781 0 0
-0.570961 0.369848 3.219338 1 0 0 0 0
-0.570961 0.369016 3.217113 1 0 0 0 0
-0.570961 0.369848 3.216965 1 0 0 0 0
-0.570961 0.369848 3.219338 1 0 0 0 0
-0.570961 0.369016 3.219491 1 0 0 0 0
-0.570961 0.369016 3.217113 1 0 0 0 0
-0.570961 0.369848 3.21612 0.707106781 0.707106781 0 0 0
-0.570545 0.369432 3.209248 0.707106781 0.707106781 0 0 0
-0.570961 0.369848 3.209248 0.707106781 0.707106781 0 0 0
-0.570961 0.369848 3.21612 0.707106781 0.707106781 0 0 0
-0.570545 0.369432 3.216201 0.707106781 0.707106781 0 0 0
-0.570545 0.369432 3.209248 0.707106781 0.707106781 0 0 0
-0.570961 0.369016 3.205976 1 0 0 0 0
-0.570961 0.369848 3.208416 1 0 0 0 0
-0.570961 0.369016 3.208416 1 0 0 0 0
-0.570961 0.369016 3.205976 1 0 0 0 0
-0.570961 0.369848 3.205976 1 0 0 0 0
-0.570961 0.369848 3.208416 1 0 0 0 0
-0.495327 0.369016 3.219491 -1 0 0 0 0
-0.495327 0.369848 3.216965 -1 0 0 0 0
-0.495327 0.369016 3.217113 -1 0 0 0 0
-0.495327 0.369016 3.219491 -1 0 0 0 0
-0.495327 0.369848 3.219338 -1 0 0 0 0
-0.495327 0.369848 3.216965 -1 0 0 0 0
-0.495743 0.369432 3.216201 -0.707106781 0.707106781 0 0 0
-0.495327 0.369848 3.209248 -0.707106781 0.707106781 0 0 0
-0.495743 0.369432 3.209248 -0.707106781 0.707106781 0 0 0
-0.495743 0.369432 3.216201 -0.707106781 0.707106781 0 0 0
-0.495327 0.369848 3.21612 -0.707106781 0.707106781 0 0 0
-0.495327 0.369848 3.209248 -0.707106781 0.707106781 0 0 0
-0.495327 0.369848 3.205976 -1 0 0 0 0
-0.495327 0.369016 3.208416 -1 0 0 0 0
-0.495327 0.369848 3.208416 -1 0 0 0 0
-0.495327 0.369848 3.205976 -1 0 0 0 0
-0.495327 0.369016 3.205976 -1 0 0 0 0
-0.495327 0.369016 3.208416 -1 0 0 0 0
-0.570545 0.372753 3.21882 0.707106781 -0.707106781 0 0 0
-0.570961 0.372337 3.216516 0.707106781 -0.707106781 0 0 0
-0.570545 0.372753 3.216434 0.707106781 -0.707106781 0 0 0
-0.570545 0.372753 3.21882 0.707106781 -0.707106781 0 0 0
-0.570961 0.372337 3.218889 0.707106781 -0.707106781 0 0 0
-0.570961 0.372337 3.216516 0.707106781 -0.707106781 0 0 0
-0.570545 0.372753 3.215601 0.707106781 -0.707106781 0 0 0
-0.570961 0.372337 3.209248 0.707106781 -0.707106781 0 0 0
-0.570545 0.372753 3.209248 0.707106781 -0.707106781 0 0 0
-0.570545 0.372753 3.215601 0.707106781 -0.707106781 0 0 0
-0.570961 0.372337 3.21567 0.707106781 -0.707106781 0 0 0
-0.570961 0.372337 3.209248 0.707106781 -0.707106781 0 0 0
-0.570961 0.372337 3.205976 0.707106781 -0.707106781 0 0 0
-0.570545 0.372753 3.208416 0.707106781 -0.707106781 0 0 0
-0.570961 0.372337 3.208416 0.707106781 -0.707106781 0 0 0
-0.570961 0.372337 3.205976 0.707106781 -0.707106781 0 0 0
-0.570545 0.372753 3.205976 0.707106781 -0.707106781 0 0 0
-0.570545 0.372753 3.208416 0.707106781 -0.707106781 0 0 0
-0.495327 0.372337 3.218889 -0.707106781 -0.707106781 -0 0 0
-0.495743 0.372753 3.216434 -0.707106781 -0.707106781 -0 0 0
-0.495327 0.372337 3.216516 -0.707106781 -0.707106781 -0 0 0
-0.495327 0.372337 3.218889 -0.707106781 -0.707106781 0 0 0
-0.495743 0.372753 3.21882 -0.707106781 -0.707106781 0 0 0
-0.495743 0.372753 3.216434 -0.707106781 -0.707106781 0 0 0
-0.495327 0.372337 3.21567 -0.707106781 -0.707106781 -0 0 0
-0.495743 0.372753 3.209248 -0.707106781 -0.707106781 -0 0 0
-0.495327 0.372337 3.209248 -0.707106781 -0.707106781 -0 0 0
-0.495327 0.372337 3.21567 -0.707106781 -0.707106781 0 0 0
-0.495743 0.372753 3.215601 -0.707106781 -0.707106781 0 0 0
-0.495743 0.372753 3.209248 -0.707106781 -0.707106781 0 0 0
-0.495743 0.372753 3.205976 -0.707106781 -0.707106781 0 0 0
-0.495327 0.372337 3.208416 -0.707106781 -0.707106781 0 0 0
-0.495743 0.372753 3.208416 -0.707106781 -0.707106781 0 0 0
-0.495743 0.372753 3.205976 -0.707106781 -0.707106781 0 0 0
-0.495327 0.372337 3.205976 -0.707106781 -0.707106781 0 0 0
-0.495327 0.372337 3.208416 -0.707106781 -0.707106781 0 0 0
-0.570545 0.369432 3.216201 -0 0.765643046 0.643265674 0 0
-0.495743 0.369022 3.216689 -0 0.765643046 0.643265674 0 0
-0.495743 0.369432 3.216201 -0 0.765643046 0.643265674 0 0
-0.570545 0.369432 3.216201 0 0.765643046 0.643265674 0 0
-0.570545 0.369022 3.216689 0 0.765643046 0.643265674 0 0
-0.495743 0.369022 3.216689 0 0.765643046 0.643265674 0 0
-0.570545 0.369016 3.208832 0 0.707106781 -0.707106781 0 0
-0.495743 0.369432 3.209248 0 0.707106781 -0.707106781 0 0
-0.495743 0.369016 3.208832 0 0.707106781 -0.707106781 0 0
-0.570545 0.369016 3.208832 0 0.707106781 -0.707106781 0 0
-0.570545 0.369432 3.209248 0 0.707106781 -0.707106781 0 0
-0.495743 0.369432 3.209248 0 0.707106781 -0.707106781 0 0
-0.570961 0.369848 3.216965 1 0 0 0 0
-0.570961 0.372337 3.21567 1 0 0 0 0
-0.570961 0.372337 3.216516 1 0 0 0 0
-0.570961 0.369848 3.216965 1 0 0 0 0
-0.570961 0.369848 3.21612 1 0 0 0 0
-0.570961 0.372337 3.21567 1 0 0 0 0
-0.570961 0.369848 3.209248 1 -0 0 0 0
-0.570961 0.372337 3.208416 1 -0 0 0 0
-0.570961 0.372337 3.209248 1 -0 0 0 0
-0.570961 0.369848 3.209248 1 0 0 0 0
-0.570961 0.369848 3.208416 1 0 0 0 0
-0.570961 0.372337 3.208416 1 0 0 0 0
-0.570545 0.372753 3.216434 0 -1 0 0 0
-0.495743 0.372753 3.215601 0 -1 0 0 0
-0.495743 0.372753 3.216434 0 -1 0 0 0
-0.570545 0.372753 3.216434 0 -1 0 0 0
-0.570545 0.372753 3.215601 0 -1 0 0 0
-0.495743 0.372753 3.215601 0 -1 0 0 0
-0.570545 0.372753 3.209248 0 -1 0 0 0
-0.495743 0.372753 3.208416 0 -1 0 0 0
-0.495743 0.372753 3.209248 0 -1 0 0 0
-0.570545 0.372753 3.209248 0 -1 0 0 0
-0.570545 0.372753 3.208416 0 -1 0 0 0
-0.495743 0.372753 3.208416 0 -1 0 0 0
-0.495327 0.369848 3.21612 -1 0 0 0 0
-0.495327 0.372337 3.216516 -1 0 0 0 0
-0.495327 0.372337 3.21567 -1 0 0 0 0
-0.495327 0.369848 3.21612 -1 0 0 0 0
-0.495327 0.369848 3.216965 -1 0 0 0 0
-0.495327 0.372337 3.216516 -1 0 0 0 0
-0.495327 0.369848 3.208416 -1 0 0 0 0
-0.495327 0.372337 3.209248 -1 0 0 0 0
-0.495327 0.372337 3.208416 -1 0 0 0 0
-0.495327 0.369848 3.208416 -1 0 0 0 0
-0.495327 0.369848 3.209248 -1 0 0 0 0
-0.495327 0.372337 3.209248 -1 0 0 0 0
-0.570961 0.369016 3.208416 0.707106781 0 -0.707106781 0 0
-0.570545 0.360977 3.208832 0.707106781 0 -0.707106781 0 0
-0.570961 0.360977 3.208416 0.707106781 0 -0.707106781 0 0
-0.570961 0.369016 3.208416 0.707106781 0 -0.707106781 0 0
-0.570545 0.369016 3.208832 0.707106781 0 -0.707106781 0 0
-0.570545 0.360977 3.208832 0.707106781 0 -0.707106781 0 0
-0.495743 0.360977 3.208832 0 0.707106781 -0.707106781 0 0
-0.570545 0.360561 3.208416 0 0.707106781 -0.707106781 0 0
-0.570545 0.360977 3.208832 0 0.707106781 -0.707106781 0 0
-0.495743 0.360977 3.208832 0 0.707106781 -0.707106781 0 0
-0.495743 0.360561 3.208416 0 0.707106781 -0.707106781 0 0
-0.570545 0.360561 3.208416 0 0.707106781 -0.707106781 0 0
-0.495743 0.369016 3.208832 -0.707106781 -0 -0.707106781 0 0
-0.495327 0.360977 3.208416 -0.707106781 -0 -0.707106781 0 0
-0.495743 0.360977 3.208832 -0.707106781 -0 -0.707106781 0 0
-0.495743 0.369016 3.208832 -0.707106781 0 -0.707106781 0 0
-0.495327 0.369016 3.208416 -0.707106781 0 -0.707106781 0 0
-0.495327 0.360977 3.208416 -0.707106781 0 -0.707106781 0 0
-0.495327 0.369016 3.217113 -0.706796906 0.122587475 0.696714034 0 0
-0.495743 0.360792 3.218138 -0.706796906 0.122587475 0.696714034 0 0
-0.495327 0.360866 3.218547 -0.706796906 0.122587475 0.696714034 0 0
-0.495327 0.369016 3.217113 -0.707562674 0.122530531 0.695946357 0 0
-0.495743 0.369022 3.216689 -0.707562674 0.122530531 0.695946357 0 0
-0.495743 0.360792 3.218138 -0.707562674 0.122530531 0.695946357 0 0
-0.570545 0.360792 3.218138 -0 0.81979202 0.572661369 0 0
-0.495743 0.360456 3.218619 -0 0.81979202 0.572661369 0 0
-0.495743 0.360792 3.218138 -0 0.81979202 0.572661369 0 0
-0.570545 0.360792 3.218138 0 0.81979202 0.572661369 0 0
-0.570545 0.360456 3.218619 0 0.81979202 0.572661369 0 0
-0.495743 0.360456 3.218619 0 0.81979202 0.572661369 0 0
-0.570545 0.369022 3.216689 0.70679709 0.122663308 0.6967005 0 0
-0.570961 0.360866 3.218547 0.70679709 0.122663308 0.6967005 0 0
-0.570545 0.360792 3.218138 0.70679709 0.122663308 0.6967005 0 0
-0.570545 0.369022 3.216689 0.707570008 0.122453476 0.695952463 0 0
-0.570961 0.369016 3.217113 0.707570008 0.122453476 0.695952463 0 0
-0.570961 0.360866 3.218547 0.707570008 0.122453476 0.695952463 0 0
-0.495743 0.360561 3.208416 -0.707106781 0.707106781 0 0 0
-0.495327 0.360977 3.205976 -0.707106781 0.707106781 0 0 0
-0.495743 0.360561 3.205976 -0.707106781 0.707106781 0 0 0
-0.495743 0.360561 3.208416 -0.707106781 0.707106781 0 0 0
-0.495327 0.360977 3.208416 -0.707106781 0.707106781 0 0 0
-0.495327 0.360977 3.205976 -0.707106781 0.707106781 0 0 0
-0.495327 0.369016 3.205976 -0.707106781 0 0.707106781 0 0
-0.495743 0.360977 3.20556 -0.707106781 0 0.707106781 0 0
-0.495327 0.360977 3.205976 -0.707106781 0 0.707106781 0 0
-0.495327 0.369016 3.205976 -0.707106781 0 0.707106781 0 0
-0.495743 0.369016 3.20556 -0.707106781 0 0.707106781 0 0
-0.495743 0.360977 3.20556 -0.707106781 0 0.707106781 0 0
-0.495743 0.369023 3.219913 -0.706949826 -0.130724784 -0.695077675 0 0
-0.495327 0.361302 3.220942 -0.706949826 -0.130724784 -0.695077675 0 0
-0.495743 0.361377 3.221351 -0.706949826 -0.130724784 -0.695077675 0 0
-0.495743 0.369023 3.219913 -0.707124593 -0.130710854 -0.694902499 0 0
-0.495327 0.369016 3.219491 -0.707124593 -0.130710854 -0.694902499 0 0
-0.495327 0.361302 3.220942 -0.707124593 -0.130710854 -0.694902499 0 0
-0.495327 0.360866 3.218547 -0.707257617 0.695524755 -0.12661745 0 0
-0.495743 0.360893 3.221019 -0.707257617 0.695524755 -0.12661745 0 0
-0.495327 0.361302 3.220942 -0.707257617 0.695524755 -0.12661745 0 0
-0.495327 0.360866 3.218547 -0.707332538 0.695446422 -0.126629203 0 0
-0.495743 0.360456 3.218619 -0.707332538 0.695446422 -0.126629203 0 0
-0.495743 0.360893 3.221019 -0.707332538 0.695446422 -0.126629203 0 0
-0.570545 0.369016 3.20556 0.707106781 0 0.707106781 0 0
-0.570961 0.360977 3.205976 0.707106781 0 0.707106781 0 0
-0.570545 0.360977 3.20556 0.707106781 0 0.707106781 0 0
-0.570545 0.369016 3.20556 0.707106781 0 0.707106781 0 0
-0.570961 0.369016 3.205976 0.707106781 0 0.707106781 0 0
-0.570961 0.360977 3.205976 0.707106781 0 0.707106781 0 0
-0.570961 0.360977 3.208416 0.707106781 0.707106781 0 0 0
-0.570545 0.360561 3.205976 0.707106781 0.707106781 0 0 0
-0.570961 0.360977 3.205976 0.707106781 0.707106781 0 0 0
-0.570961 0.360977 3.208416 0.707106781 0.707106781 0 0 0
-0.570545 0.360561 3.208416 0.707106781 0.707106781 0 0 0
-0.570545 0.360561 3.205976 0.707106781 0.707106781 0 0 0
-0.570545 0.360456 3.218619 0.707257693 0.695520095 -0.126642617 0 0
-0.570961 0.361302 3.220942 0.707257693 0.695520095 -0.126642617 0 0
-0.570545 0.360893 3.221019 0.707257693 0.695520095 -0.126642617 0 0
-0.570545 0.360456 3.218619 0.707332618 0.695450927 -0.12660401 0 0
-0.570961 0.360866 3.218547 0.707332618 0.695450927 -0.12660401 0 0
-0.570961 0.361302 3.220942 0.707332618 0.695450927 -0.12660401 0 0
-0.570961 0.369016 3.219491 0.706949784 -0.130743162 -0.695074261 0 0
-0.570545 0.361377 3.221351 0.706949784 -0.130743162 -0.695074261 0 0
-0.570961 0.361302 3.220942 0.706949784 -0.130743162 -0.695074261 0 0
-0.570961 0.369016 3.219491 0.70712619 -0.130692192 -0.694904383 0 0
-0.570545 0.369023 3.219913 0.70712619 -0.130692192 -0.694904383 0 0
-0.570545 0.361377 3.221351 0.70712619 -0.130692192 -0.694904383 0 0
-0.495743 0.360561 3.205976 0 0.707106781 0.707106781 0 0
-0.570545 0.360977 3.20556 0 0.707106781 0.707106781 0 0
-0.570545 0.360561 3.205976 0 0.707106781 0.707106781 0 0
-0.495743 0.360561 3.205976 0 0.707106781 0.707106781 0 0
-0.495743 0.360977 3.20556 0 0.707106781 0.707106781 0 0
-0.570545 0.360977 3.20556 0 0.707106781 0.707106781 0 0
-0.495743 0.361377 3.221351 0 0.565660792 -0.824638022 0 0
-0.570545 0.360893 3.221019 0 0.565660792 -0.824638022 0 0
-0.570545 0.361377 3.221351 0 0.565660792 -0.824638022 0 0
-0.495743 0.361377 3.221351 0 0.565660792 -0.824638022 0 0
-0.495743 0.360893 3.221019 0 0.565660792 -0.824638022 0 0
-0.570545 0.360893 3.221019 0 0.565660792 -0.824638022 0 0
-0.495327 0.372337 3.216516 -1 0 0 0 0
-0.495327 0.369848 3.219338 -1 0 0 0 0
-0.495327 0.372337 3.218889 -1 0 0 0 0
-0.495327 0.372337 3.216516 -1 0 0 0 0
-0.495327 0.369848 3.216965 -1 0 0 0 0
-0.495327 0.369848 3.219338 -1 0 0 0 0
3 0 1 2
3 3 4 5
3 6 7 8
3 9 10 11
3 12 13 14
3 15 16 17
3 18 19 20
3 21 22 23
3 24 25 26
3 27 28 29
3 30 31 32
3 33 34 35
3 36 37 38
3 39 40 41
3 42 43 44
3 45 46 47
3 48 49 50
3 51 52 53
3 54 55 56
3 57 58 59
3 60 61 62
3 63 64 65
3 66 67 68
3 69 70 71
3 72 73 74
3 75 76 77
3 78 79 80
3 81 82 83
3 84 85 86
3 87 88 89
3 90 91 92
3 93 94 95
3 96 97 98
3 99 100 101
3 102 103 104
3 105 106 107
3 108 109 110
3 111 112 113
3 114 115 116
3 117 118 119
3 120 121 122
3 123 124 125
3 126 127 128
3 129 130 131
3 132 133 134
3 135 136 137
3 138 139 140
3 141 142 143
3 144 145 146
3 147 148 149
3 150 151 152
3 153 154 155
3 156 157 158
3 159 160 161
3 162 163 164
3 165 166 167
3 168 169 170
3 171 172 173
3 174 175 176
3 177 178 179
3 180 181 182
3 183 184 185
3 186 187 188
3 189 190 191
3 192 193 194
3 195 196 197
3 198 199 200
3 201 202 203
3 204 205 206
3 207 208 209
3 210 211 212
3 213 214 215
3 216 217 218
3 219 220 221
3 222 223 224
3 225 226 227
3 228 229 230
3 231 232 233
3 234 235 236
3 237 238 239
3 240 241 242
3 243 244 245
3 246 247 248
3 249 250 251
3 252 253 254
3 255 256 257
3 258 259 260
3 261 262 263
3 264 265 266
3 267 268 269
3 270 271 272
3 273 274 275
3 276 277 278
3 279 280 281
3 282 283 284
3 285 286 287
3 288 289 290
3 291 292 293
3 294 295 296
3 297 298 299
3 300 301 302
3 303 304 305
3 306 307 308
3 309 310 311
3 312 313 314
3 315 316 317
3 318 319 320
3 321 322 323
3 324 325 326
3 327 328 329
3 330 331 332
3 333 334 335
3 336 337 338
3 339 340 341
3 342 343 344
3 345 346 347
3 348 349 350
3 351 352 353
3 354 355 356
3 357 358 359
3 360 361 362
3 363 364 365
3 366 367 368
3 369 370 371
3 372 373 374
3 375 376 377
3 378 379 380
3 381 382 383
3 384 385 386
3 387 388 389
3 390 391 392
3 393 394 395
3 396 397 398
3 399 400 401
3 402 403 404
3 405 406 407
3 408 409 410
3 411 412 413
3 414 415 416
3 417 418 419
3 420 421 422
3 423 424 425
3 426 427 428
3 429 430 431
3 432 433 434
3 435 436 437
3 438 439 440
3 441 442 443
3 444 445 446
3 447 448 449
3 450 451 452
3 453 454 455
3 456 457 458
3 459 460 461
3 462 463 464
3 465 466 467
3 468 469 470
3 471 472 473
3 474 475 476
3 477 478 479
3 480 481 482
3 483 484 485
3 486 487 488
3 489 490 491
3 492 493 494
3 495 496 497
3 498 499 500
3 501 502 503
3 504 505 506
3 507 508 509
3 510 511 512
3 513 514 515
