ply
format ascii 1.0
element vertex 72
property float x
property float y
property float z
property float nx
property float ny
property float nz
property float u
property float v
element face 24
property list uchar int vertex_indices
end_header
-0.772672 0.450365 2.707645 0 1 0 0.91309 0.038669
-0.755869 0.450365 3.205229 0 1 0 0.009628 0.156662
-0.755869 0.450365 2.707645 0 1 0 0.91309 0.156662
-0.772672 0.450365 2.707645 0 1 0 0.91309 0.038669
-0.772672 0.450365 3.205229 0 1 0 0.009628 0.038669
-0.755869 0.450365 3.205229 0 1 0 0.009628 0.156662
-0.755869 0.450365 3.205229 1 0 0 0.009628 0.156662
-0.755869 0.268823 2.707645 1 0 0 0.91309 0.467615
-0.755869 0.450365 2.707645 1 0 0 0.91309 0.156662
-0.755869 0.450365 3.205229 1 0 0 0.009628 0.156662
-0.755869 0.268823 3.205229 1 0 0 0.009628 0.467615
-0.755869 0.268823 2.707645 1 0 0 0.91309 0.467615
-0.755869 0.450365 2.707645 -0 0 -1 0.991833 0.672599
-0.772672 0.268823 2.707645 -0 0 -1 0.949186 0.348046
-0.772672 0.450365 2.707645 -0 0 -1 0.949186 0.672599
-0.755869 0.450365 2.707645 0 -0 -1 0.991833 0.672599
-0.755869 0.268823 2.707645 0 -0 -1 0.991833 0.346812
-0.772672 0.268823 2.707645 0 -0 -1 0.949186 0.348046
-0.772672 0.450365 2.707645 -1 0 0 0.91309 0.895465
-0.772672 0.268823 3.205229 -1 0 0 0.009628 0.584511
-0.772672 0.450365 3.205229 -1 0 0 0.009628 0.895465
-0.772672 0.450365 2.707645 -1 0 0 0.91309 0.895465
-0.772672 0.268823 2.707645 -1 0 0 0.91309 0.584512
-0.772672 0.268823 3.205229 -1 0 0 0.009628 0.584511
-0.772672 0.450365 3.205229 -0 0 1 0.991833 0.345578
-0.755869 0.268823 3.205229 -0 0 1 0.949186 0.021024
-0.755869 0.450365 3.205229 -0 0 1 0.949186 0.346812
-0.772672 0.450365 3.205229 0 0 1 0.991833 0.345578
-0.772672 0.268823 3.205229 0 0 1 0.991833 0.021024
-0.755869 0.268823 3.205229 0 0 1 0.949186 0.021024
-0.755869 0.268823 3.205229 0 -1 -0 0.009628 0.467615
-0.772672 0.268823 2.707645 0 -1 -0 0.91309 0.584512
-0.755869 0.268823 2.707645 0 -1 -0 0.91309 0.467615
-0.755869 0.268823 3.205229 -0 -1 0 0.009628 0.467615
-0.772672 0.268823 3.205229 -0 -1 0 0.009628 0.584511
-0.772672 0.268823 2.707645 -0 -1 0 0.91309 0.584512
-0.293617 0.450365 2.707645 0 1 -0 0.91309 0.038669
-0.31042 0.450365 3.205229 0 1 -0 0.009628 0.156662
-0.293617 0.450365 3.205229 0 1 -0 0.009628 0.038669
-0.293617 0.450365 2.707645 0 1 0 0.91309 0.038669
-0.31042 0.450365 2.707645 0 1 0 0.91309 0.156662
-0.31042 0.450365 3.205229 0 1 0 0.009628 0.156662
-0.31042 0.450365 3.205229 -1 -0 0 0.009628 0.156662
-0.31042 0.268823 2.707645 -1 -0 0 0.91309 0.467615
-0.31042 0.268823 3.205229 -1 -0 0 0.009628 0.467615
-0.31042 0.450365 3.205229 -1 0 -0 0.009628 0.156662
-0.31042 0.450365 2.707645 -1 0 -0 0.91309 0.156662
-0.31042 0.268823 2.707645 -1 0 -0 0.91309 0.467615
-0.31042 0.450365 2.707645 0 0 -1 0.991833 0.672599
-0.293617 0.268823 2.707645 0 0 -1 0.949186 0.348046
-0.31042 0.268823 2.707645 0 0 -1 0.991833 0.346812
-0.31042 0.450365 2.707645 0 0 -1 0.991833 0.672599
-0.293617 0.450365 2.707645 0 0 -1 0.949186 0.672599
-0.293617 0.268823 2.707645 0 0 -1 0.949186 0.348046
-0.293617 0.450365 2.707645 1 0 0 0.91309 0.895465
-0.293617 0.268823 3.205229 1 0 0 0.009628 0.584511
-0.293617 0.268823 2.707645 1 0 0 0.91309 0.584512
-0.293617 0.450365 2.707645 1 0 -0 0.91309 0.895465
-0.293617 0.450365 3.205229 1 0 -0 0.009628 0.895465
-0.293617 0.268823 3.205229 1 0 -0 0.009628 0.584511
-0.293617 0.450365 3.205229 0 0 1 0.991833 0.345578
-0.31042 0.268823 3.205229 0 0 1 0.949186 0.021024
-0.293617 0.268823 3.205229 0 0 1 0.991833 0.021024
-0.293617 0.450365 3.205229 0 0 1 0.991833 0.345578
-0.31042 0.450365 3.205229 0 0 1 0.949186 0.346812
-0.31042 0.268823 3.205229 0 0 1 0.949186 0.021024
-0.31042 0.268823 3.205229 0 -1 0 0.009628 0.467615
-0.293617 0.268823 2.707645 0 -1 0 0.91309 0.584512
-0.293617 0.268823 3.205229 0 -1 0 0.009628 0.584511
-0.31042 0.268823 3.205229 0 -1 0 0.009628 0.467615
-0.31042 0.268823 2.707645 0 -1 0 0.91309 0.467615
-0.293617 0.268823 2.707645 0 -1 0 0.91309 0.584512
3 0 1 2
3 3 4 5
3 6 7 8
3 9 10 11
3 12 13 14
3 15 16 17
3 18 19 20
3 21 22 23
3 24 25 26
3 27 28 29
3 30 31 32
3 33 34 35
3 36 37 38
3 39 40 41
3 42 43 44
3 45 46 47
3 48 49 50
3 51 52 53
3 54 55 56
3 57 58 59
3 60 61 62
3 63 64 65
3 66 67 68
3 69 70 71
