ply
format ascii 1.0
element vertex 672
property float x
property float y
property float z
property float nx
property float ny
property float nz
property float u
property float v
element face 1280
property list uchar int vertex_indices
end_header
-2.929731 0.038375 3.143738 0 1 0 0 0
-2.928223 0.038375 3.144926 0 1 0 0 0
-2.928032 0.038375 3.14464 0 1 0 0 0
-2.929863 0.038375 3.144056 0 1 0 0 0
-2.928424 0.038375 3.145226 0 1 0 0 0
-2.930001 0.038375 3.144389 0 1 0 0 0
-2.926786 0.038375 3.146094 0 1 0 0 0
-2.926542 0.038375 3.14585 0 1 0 0 0
-2.927041 0.038375 3.146349 0 1 0 0 0
-2.931638 0.038375 3.143512 0 1 0 0 0
-2.931571 0.038375 3.143174 0 1 0 0 0
-2.933481 0.038375 3.143321 0 1 0 0 0
-2.933481 0.038375 3.142976 0 1 0 0 0
-2.931708 0.038375 3.143865 0 1 0 0 0
-2.933481 0.038375 3.143682 0 1 0 0 0
-2.93151 0.038375 3.142867 0 1 0 0 0
-2.929612 0.038375 3.143449 0 1 0 0 0
-2.931458 0.038375 3.142606 0 1 0 0 0
-2.92951 0.038375 3.143204 0 1 0 0 0
-2.933481 0.038375 3.142663 0 1 0 0 0
-2.933481 0.038375 3.142397 0 1 0 0 0
-2.927858 0.038375 3.14438 0 1 0 0 0
-2.92632 0.038375 3.145628 0 1 0 0 0
-2.92771 0.038375 3.144159 0 1 0 0 0
-2.926132 0.038375 3.145441 0 1 0 0 0
-2.924429 0.038375 3.14904 0 1 0 0 0
-2.925618 0.038375 3.147532 0 1 0 0 0
-2.924748 0.038375 3.149172 0 1 0 0 0
-2.925331 0.038375 3.14734 0 1 0 0 0
-2.925917 0.038375 3.147732 0 1 0 0 0
-2.925081 0.038375 3.14931 0 1 0 0 0
-2.925071 0.038375 3.147166 0 1 0 0 0
-2.92414 0.038375 3.14892 0 1 0 0 0
-2.92485 0.038375 3.147018 0 1 0 0 0
-2.923895 0.038375 3.148818 0 1 0 0 0
-2.923558 0.038375 3.150819 0 1 0 0 0
-2.923865 0.038375 3.150879 0 1 0 0 0
-2.923354 0.038375 3.152789 0 1 0 0 0
-2.923667 0.038375 3.152789 0 1 0 0 0
-2.923298 0.038375 3.150767 0 1 0 0 0
-2.923088 0.038375 3.152789 0 1 0 0 0
-2.924203 0.038375 3.150947 0 1 0 0 0
-2.924557 0.038375 3.151017 0 1 0 0 0
-2.924012 0.038375 3.152789 0 1 0 0 0
-2.924373 0.038375 3.152789 0 1 0 0 0
-2.924429 0.038375 3.156538 0 1 0 0 0
-2.924203 0.038375 3.154631 0 1 0 0 0
-2.924748 0.038375 3.156406 0 1 0 0 0
-2.923865 0.038375 3.154698 0 1 0 0 0
-2.924557 0.038375 3.154561 0 1 0 0 0
-2.925081 0.038375 3.156268 0 1 0 0 0
-2.923558 0.038375 3.154759 0 1 0 0 0
-2.92414 0.038375 3.156658 0 1 0 0 0
-2.923298 0.038375 3.154811 0 1 0 0 0
-2.923895 0.038375 3.156759 0 1 0 0 0
-2.925071 0.038375 3.158412 0 1 0 0 0
-2.925331 0.038375 3.158238 0 1 0 0 0
-2.92632 0.038375 3.159949 0 1 0 0 0
-2.926542 0.038375 3.159728 0 1 0 0 0
-2.92485 0.038375 3.158559 0 1 0 0 0
-2.926132 0.038375 3.160137 0 1 0 0 0
-2.925618 0.038375 3.158046 0 1 0 0 0
-2.925917 0.038375 3.157846 0 1 0 0 0
-2.926786 0.038375 3.159484 0 1 0 0 0
-2.927041 0.038375 3.159229 0 1 0 0 0
-2.929731 0.038375 3.16184 0 1 0 0 0
-2.928223 0.038375 3.160652 0 1 0 0 0
-2.929863 0.038375 3.161522 0 1 0 0 0
-2.928032 0.038375 3.160938 0 1 0 0 0
-2.928424 0.038375 3.160352 0 1 0 0 0
-2.930001 0.038375 3.161189 0 1 0 0 0
-2.927858 0.038375 3.161198 0 1 0 0 0
-2.929612 0.038375 3.162129 0 1 0 0 0
-2.92771 0.038375 3.161419 0 1 0 0 0
-2.92951 0.038375 3.162374 0 1 0 0 0
-2.93151 0.038375 3.162711 0 1 0 0 0
-2.931571 0.038375 3.162404 0 1 0 0 0
-2.933481 0.038375 3.162915 0 1 0 0 0
-2.933481 0.038375 3.162602 0 1 0 0 0
-2.931458 0.038375 3.162972 0 1 0 0 0
-2.933481 0.038375 3.163181 0 1 0 0 0
-2.931638 0.038375 3.162066 0 1 0 0 0
-2.931708 0.038375 3.161713 0 1 0 0 0
-2.933481 0.038375 3.162257 0 1 0 0 0
-2.933481 0.038375 3.161896 0 1 0 0 0
-2.93723 0.038375 3.16184 0 1 0 0 0
-2.935323 0.038375 3.162066 0 1 0 0 0
-2.937098 0.038375 3.161522 0 1 0 0 0
-2.93539 0.038375 3.162404 0 1 0 0 0
-2.935253 0.038375 3.161713 0 1 0 0 0
-2.93696 0.038375 3.161189 0 1 0 0 0
-2.935451 0.038375 3.162711 0 1 0 0 0
-2.937349 0.038375 3.162129 0 1 0 0 0
-2.935503 0.038375 3.162972 0 1 0 0 0
-2.937451 0.038375 3.162374 0 1 0 0 0
-2.939103 0.038375 3.161198 0 1 0 0 0
-2.938929 0.038375 3.160938 0 1 0 0 0
-2.940641 0.038375 3.159949 0 1 0 0 0
-2.940419 0.038375 3.159728 0 1 0 0 0
-2.939251 0.038375 3.161419 0 1 0 0 0
-2.940829 0.038375 3.160137 0 1 0 0 0
-2.938738 0.038375 3.160652 0 1 0 0 0
-2.938537 0.038375 3.160352 0 1 0 0 0
-2.940175 0.038375 3.159484 0 1 0 0 0
-2.93992 0.038375 3.159229 0 1 0 0 0
-2.942532 0.038375 3.156538 0 1 0 0 0
-2.941343 0.038375 3.158046 0 1 0 0 0
-2.942213 0.038375 3.156406 0 1 0 0 0
-2.94163 0.038375 3.158238 0 1 0 0 0
-2.941044 0.038375 3.157846 0 1 0 0 0
-2.94188 0.038375 3.156268 0 1 0 0 0
-2.94189 0.038375 3.158412 0 1 0 0 0
-2.942821 0.038375 3.156658 0 1 0 0 0
-2.942111 0.038375 3.158559 0 1 0 0 0
-2.943066 0.038375 3.156759 0 1 0 0 0
-2.943403 0.038375 3.154759 0 1 0 0 0
-2.943096 0.038375 3.154698 0 1 0 0 0
-2.943607 0.038375 3.152789 0 1 0 0 0
-2.943294 0.038375 3.152789 0 1 0 0 0
-2.943663 0.038375 3.154811 0 1 0 0 0
-2.943873 0.038375 3.152789 0 1 0 0 0
-2.942758 0.038375 3.154631 0 1 0 0 0
-2.942404 0.038375 3.154561 0 1 0 0 0
-2.942949 0.038375 3.152789 0 1 0 0 0
-2.942588 0.038375 3.152789 0 1 0 0 0
-2.942532 0.038375 3.14904 0 1 0 0 0
-2.942758 0.038375 3.150947 0 1 0 0 0
-2.942213 0.038375 3.149172 0 1 0 0 0
-2.943096 0.038375 3.150879 0 1 0 0 0
-2.942404 0.038375 3.151017 0 1 0 0 0
-2.94188 0.038375 3.14931 0 1 0 0 0
-2.943403 0.038375 3.150819 0 1 0 0 0
-2.942821 0.038375 3.14892 0 1 0 0 0
-2.943663 0.038375 3.150767 0 1 0 0 0
-2.943066 0.038375 3.148818 0 1 0 0 0
-2.94189 0.038375 3.147166 0 1 0 0 0
-2.94163 0.038375 3.14734 0 1 0 0 0
-2.940641 0.038375 3.145628 0 1 0 0 0
-2.940419 0.038375 3.14585 0 1 0 0 0
-2.942111 0.038375 3.147018 0 1 0 0 0
-2.940829 0.038375 3.145441 0 1 0 0 0
-2.941343 0.038375 3.147532 0 1 0 0 0
-2.941044 0.038375 3.147732 0 1 0 0 0
-2.940175 0.038375 3.146094 0 1 0 0 0
-2.93992 0.038375 3.146349 0 1 0 0 0
-2.93723 0.038375 3.143738 0 1 0 0 0
-2.935451 0.038375 3.142867 0 1 0 0 0
-2.937349 0.038375 3.143449 0 1 0 0 0
-2.93539 0.038375 3.143174 0 1 0 0 0
-2.935503 0.038375 3.142606 0 1 0 0 0
-2.937451 0.038375 3.143204 0 1 0 0 0
-2.935323 0.038375 3.143512 0 1 0 0 0
-2.937098 0.038375 3.144056 0 1 0 0 0
-2.935253 0.038375 3.143865 0 1 0 0 0
-2.93696 0.038375 3.144389 0 1 0 0 0
-2.938738 0.038375 3.144926 0 1 0 0 0
-2.938929 0.038375 3.14464 0 1 0 0 0
-2.938537 0.038375 3.145226 0 1 0 0 0
-2.939103 0.038375 3.144379 0 1 0 0 0
-2.939251 0.038375 3.144159 0 1 0 0 0
-2.937665 0.03832 3.14269 -0.073000565 0.981607598 -0.176401365 0 0
-2.939363 0.038375 3.143991 -0.0451023271 0.996651424 -0.0682035191 0 0
-2.937528 0.038375 3.143017 -0.0313016982 0.99665407 -0.0755040962 0 0
-2.939562 0.03832 3.143697 -0.105205965 0.981655661 -0.159009016 0 0
-2.940972 0.038375 3.145297 -0.057902421 0.99664167 -0.057902421 0 0
-2.941225 0.03832 3.145048 -0.13450388 0.981728323 -0.134603883 0 0
-2.939968 0.038155 3.1431 -0.129794338 0.971957599 -0.196091446 0 0
-2.937944 0.038155 3.142026 -0.0900974151 0.971872117 -0.217593757 0 0
-2.940703 0.037824 3.142021 -0.137899297 0.968295067 -0.208298939 0 0
-2.93845 0.037824 3.140826 -0.0956988913 0.968188784 -0.231197322 0 0
-2.941742 0.038155 3.144541 -0.165803508 0.972120565 -0.165803508 0 0
-2.942678 0.037824 3.143625 -0.176095606 0.968475837 -0.176195604 0 0
-2.935754 0.038155 3.141354 -0.0469021186 0.971843899 -0.23091043 0 0
-2.935612 0.03832 3.142061 -0.0380002096 0.981605414 -0.187101032 0 0
-2.933481 0.038155 3.141119 0 0.971875771 -0.235494129 0 0
-2.933481 0.03832 3.14184 0 0.9815904 -0.190998132 0 0
-2.936012 0.037824 3.140078 -0.0498032438 0.968163059 -0.245315978 0 0
-2.933481 0.037824 3.139816 0 0.968194539 -0.250198589 0 0
-2.935542 0.038375 3.142408 -0.0163007393 0.996645204 -0.0802036377 0 0
-2.933481 0.038375 3.142194 0 0.996623934 -0.0821019717 0 0
-2.943583 0.03832 3.148608 -0.17520902 0.981850547 -0.0726037377 0 0
-2.943862 0.038375 3.150727 -0.0796988575 0.996685713 -0.0162997663 0 0
-2.943253 0.038375 3.148741 -0.0751985197 0.996680381 -0.0311993858 0 0
-2.944212 0.03832 3.150661 -0.185406525 0.98193456 -0.0378013304 0 0
-2.944075 0.038375 3.152789 -0.0813985002 0.996681636 0 0 0
-2.944433 0.03832 3.152792 -0.188706444 0.982033537 -0.000100003415 0 0
-2.944929 0.038155 3.150529 -0.228318767 0.972479936 -0.0464038143 0 0
-2.944257 0.038155 3.148339 -0.215901042 0.972304691 -0.0895004318 0 0
-2.946226 0.037824 3.150292 -0.242499521 0.968898086 -0.0492999026 0 0
-2.945478 0.037824 3.147853 -0.229301928 0.968708147 -0.095000799 0 0
-2.945164 0.038155 3.152802 -0.232192787 0.972669784 0 0 0
-2.946488 0.037824 3.152823 -0.246510223 0.969140191 0 0 0
-2.943183 0.038155 3.146315 -0.195200549 0.972202737 -0.129300364 0 0
-2.942576 0.03832 3.146711 -0.158300464 0.981802877 -0.104900307 0 0
-2.944282 0.037824 3.1456 -0.207411847 0.968555321 -0.137407848 0 0
-2.942279 0.038375 3.146906 -0.0680047415 0.99666949 -0.0450031377 0 0
-2.943583 0.03832 3.156977 -0.173712012 0.982167914 0.071904972 0 0
-2.942279 0.038375 3.158672 -0.0673026777 0.996739656 0.0445017705 0 0
-2.943253 0.038375 3.156837 -0.0747020248 0.996727017 0.0309008376 0 0
-2.942576 0.03832 3.158874 -0.156408599 0.982254001 0.10350569 0 0
-2.940972 0.038375 3.16028 -0.0572016263 0.996728337 0.0571016234 0 0
-2.941225 0.03832 3.160537 -0.132403552 0.982326356 0.13230355 0 0
-2.943183 0.038155 3.15929 -0.19230831 0.973042046 0.127305501 0 0
-2.944257 0.038155 3.157266 -0.21369822 0.972891896 0.0883992636 0 0
-2.944282 0.037824 3.160045 -0.204096634 0.969584012 0.135097772 0 0
-2.945478 0.037824 3.157792 -0.226800929 0.96940397 0.0939003845 0 0
-2.941742 0.038155 3.161064 -0.162602988 0.973217883 0.162502986 0 0
-2.942678 0.037824 3.16202 -0.172497883 0.969788101 0.172497883 0 0
-2.944929 0.038155 3.155076 -0.227095519 0.972780807 0.0460990905 0 0
-2.944212 0.03832 3.154923 -0.184600339 0.982101802 0.0374000686 0 0
-2.946226 0.037824 3.155354 -0.241092417 0.969269512 0.0488984619 0 0
-2.943862 0.038375 3.15485 -0.079401014 0.996712728 0.0161002056 0 0
-2.937665 0.03832 3.162894 -0.0714995435 0.982393727 0.172598898 0 0
-2.935542 0.038375 3.16317 -0.0160009895 0.996761637 0.078804873 0 0
-2.937528 0.038375 3.162561 -0.0307990064 0.996767845 0.0741976064 0 0
-2.935612 0.03832 3.163524 -0.0372010043 0.982426521 0.182904938 0 0
-2.933481 0.038375 3.163384 0 0.996746225 0.0806037381 0 0
-2.933481 0.03832 3.163745 0 0.982453049 0.186510071 0 0
-2.935754 0.038155 3.164251 -0.0456990584 0.973379944 0.224595372 0 0
-2.937944 0.038155 3.163579 -0.0878988701 0.973287488 0.212097274 0 0
-2.936012 0.037824 3.165568 -0.0484039824 0.969979804 0.238319607 0 0
-2.93845 0.037824 3.16482 -0.0931991962 0.969891635 0.224998059 0 0
-2.933481 0.038155 3.164486 0 0.973425037 0.22900589 0 0
-2.933481 0.037824 3.16583 0 0.970048305 0.242912096 0 0
-2.939968 0.038155 3.162505 -0.126808323 0.973263882 0.19151257 0 0
-2.939562 0.03832 3.161888 -0.103198264 0.982383476 0.15579738 0 0
-2.940703 0.037824 3.163625 -0.134605422 0.969839066 0.203208185 0 0
-2.939363 0.038375 3.161587 -0.0445023687 0.996753054 0.0671035717 0 0
-2.929296 0.03832 3.162894 0.0714995435 0.982393727 0.172598898 0 0
-2.927598 0.038375 3.161587 0.0445023687 0.996753054 0.0671035717 0 0
-2.929433 0.038375 3.162561 0.0308020766 0.996767199 0.0742050027 0 0
-2.927399 0.03832 3.161888 0.103196656 0.982368167 0.155894948 0 0
-2.925989 0.038375 3.160281 0.0572016263 0.996728337 0.0571016234 0 0
-2.925736 0.03832 3.160537 0.132403552 0.982326356 0.13230355 0 0
-2.926993 0.038155 3.162505 0.12690672 0.973251535 0.191510141 0 0
-2.929017 0.038155 3.163579 0.0878988701 0.973287488 0.212097274 0 0
-2.926258 0.037824 3.163625 0.134605422 0.969839066 0.203208185 0 0
-2.928511 0.037824 3.16482 0.0931991962 0.969891635 0.224998059 0 0
-2.925219 0.038155 3.161064 0.162602988 0.973217883 0.162502986 0 0
-2.924283 0.037824 3.16202 0.172497883 0.969788101 0.172497883 0 0
-2.931207 0.038155 3.164251 0.0456980318 0.973358078 0.224690323 0 0
-2.931349 0.03832 3.163524 0.0372010043 0.982426521 0.182904938 0 0
-2.930949 0.037824 3.165568 0.0484039824 0.969979804 0.238319607 0 0
-2.931419 0.038375 3.16317 0.0160009895 0.996761637 0.078804873 0 0
-2.923378 0.03832 3.156977 0.173712012 0.982167914 0.071904972 0 0
-2.923099 0.038375 3.15485 0.079401014 0.996712728 0.0161002056 0 0
-2.923708 0.038375 3.156837 0.0747020248 0.996727017 0.0309008376 0 0
-2.922749 0.03832 3.154923 0.184600339 0.982101802 0.0374000686 0 0
-2.922886 0.038375 3.152789 0.0813985002 0.996681636 0 0 0
-2.922528 0.03832 3.152792 0.188706444 0.982033537 -0.000100003415 0 0
-2.922032 0.038155 3.155076 0.227095519 0.972780807 0.0460990905 0 0
-2.922704 0.038155 3.157266 0.21369822 0.972891896 0.0883992636 0 0
-2.920735 0.037824 3.155354 0.241092417 0.969269512 0.0488984619 0 0
-2.921483 0.037824 3.157792 0.226800929 0.96940397 0.0939003845 0 0
-2.921797 0.038155 3.152802 0.232192787 0.972669784 0 0 0
-2.920473 0.037824 3.152823 0.246510223 0.969140191 0 0 0
-2.923778 0.038155 3.15929 0.19230831 0.973042046 0.127305501 0 0
-2.924385 0.03832 3.158874 0.156408599 0.982254001 0.10350569 0 0
-2.922679 0.037824 3.160045 0.204096634 0.969584012 0.135097772 0 0
-2.924682 0.038375 3.158672 0.0673026777 0.996739656 0.0445017705 0 0
-2.923378 0.03832 3.148608 0.175304679 0.981826205 -0.0727019404 0 0
-2.924682 0.038375 3.146906 0.0680047415 0.99666949 -0.0450031377 0 0
-2.923708 0.038375 3.148741 0.0751985197 0.996680381 -0.0311993858 0 0
-2.924385 0.03832 3.146711 0.158397956 0.98178733 -0.104898646 0 0
-2.925989 0.038375 3.145297 0.057902421 0.99664167 -0.057902421 0 0
-2.925736 0.03832 3.145048 0.13450388 0.981728323 -0.134603883 0 0
-2.923778 0.038155 3.146315 0.195200549 0.972202737 -0.129300364 0 0
-2.922704 0.038155 3.148339 0.215901042 0.972304691 -0.0895004318 0 0
-2.922679 0.037824 3.1456 0.207411847 0.968555321 -0.137407848 0 0
-2.921483 0.037824 3.147853 0.229301928 0.968708147 -0.095000799 0 0
-2.925219 0.038155 3.144541 0.165803508 0.972120565 -0.165803508 0 0
-2.924283 0.037824 3.143625 0.176095606 0.968475837 -0.176195604 0 0
-2.922032 0.038155 3.150529 0.228318767 0.972479936 -0.0464038143 0 0
-2.922749 0.03832 3.150661 0.185503089 0.981916349 -0.0378006294 0 0
-2.920735 0.037824 3.150292 0.242499521 0.968898086 -0.0492999026 0 0
-2.923099 0.038375 3.150727 0.0796988575 0.996685713 -0.0162997663 0 0
-2.929296 0.03832 3.14269 0.073000565 0.981607598 -0.176401365 0 0
-2.927598 0.038375 3.143991 0.0451023271 0.996651424 -0.0682035191 0 0
-2.927399 0.03832 3.143697 0.105205965 0.981655661 -0.159009016 0 0
-2.929433 0.038375 3.143017 0.0313016982 0.99665407 -0.0755040962 0 0
-2.931419 0.038375 3.142408 0.0163007393 0.996645204 -0.0802036377 0 0
-2.931349 0.03832 3.142061 0.0379994984 0.981587043 -0.187197529 0 0
-2.931207 0.038155 3.141354 0.0469021186 0.971843899 -0.23091043 0 0
-2.929017 0.038155 3.142026 0.090106172 0.97186657 -0.217614906 0 0
-2.930949 0.037824 3.140078 0.0498032438 0.968163059 -0.245315978 0 0
-2.928511 0.037824 3.140826 0.0956988913 0.968188784 -0.231197322 0 0
-2.926993 0.038155 3.1431 0.129796882 0.971976653 -0.195995292 0 0
-2.926258 0.037824 3.142021 0.137899297 0.968295067 -0.208298939 0 0
-2.926728 0.036605 3.136596 0.100302712 0.96502609 -0.242206548 0 0
-2.925073 0.037273 3.140283 0.141407652 0.966652312 -0.213511554 0 0
-2.923667 0.036605 3.138221 0.144411771 0.965178675 -0.21811778 0 0
-2.927696 0.037273 3.138891 0.0982008887 0.966508747 -0.237102146 0 0
-2.922774 0.037273 3.14215 0.180509129 0.9668489 -0.180609135 0 0
-2.920984 0.036605 3.1404 0.184396241 0.965380321 -0.184496239 0 0
-2.930534 0.037273 3.138021 0.0511003651 0.966506906 -0.251501797 0 0
-2.930042 0.036605 3.13558 0.0522013716 0.965025356 -0.25690675 0 0
-2.933481 0.037273 3.137716 0 0.966541321 -0.256510966 0 0
-2.933481 0.036605 3.135224 0 0.965070078 -0.261991877 0 0
-2.929551 0.035925 3.133153 0.0538024015 0.962742973 -0.265011829 0 0
-2.925766 0.035925 3.134314 0.103406055 0.962756376 -0.249814628 0 0
-2.929144 0.035335 3.131135 0.0578023665 0.956839174 -0.28481166 0 0
-2.924966 0.035335 3.132417 0.111108444 0.95687272 -0.268420399 0 0
-2.933481 0.035925 3.132746 0 0.96277789 -0.270293793 0 0
-2.933481 0.035335 3.130686 0 0.956868663 -0.290520847 0 0
-2.922268 0.035925 3.136169 0.14899982 0.96289884 -0.224999729 0 0
-2.919202 0.035925 3.13866 0.190300971 0.963104917 -0.190300971 0 0
-2.921106 0.035335 3.134465 0.160104143 0.957024763 -0.241806257 0 0
-2.917722 0.035335 3.137214 0.204508871 0.957241521 -0.204608875 0 0
-2.917179 0.036605 3.146145 0.240202444 0.965609825 -0.0995010124 0 0
-2.920907 0.037273 3.144449 0.21260861 0.966939157 -0.140805702 0 0
-2.919515 0.037273 3.147072 0.235117897 0.967073612 -0.0974074144 0 0
-2.918803 0.036605 3.143084 0.217099881 0.965499469 -0.143799921 0 0
-2.916712 0.035925 3.141726 0.224005287 0.963222732 -0.148403502 0 0
-2.914856 0.035925 3.145224 0.247721188 0.963382402 -0.102608777 0 0
-2.914973 0.035335 3.140598 0.240795226 0.95738102 -0.159496838 0 0
-2.912925 0.035335 3.144458 0.266221994 0.957579109 -0.110309113 0 0
-2.913695 0.035925 3.149009 0.261905571 0.963620496 -0.0533011337 0 0
-2.916163 0.036605 3.149458 0.253913025 0.965849545 -0.051602647 0 0
-2.913288 0.035925 3.152938 0.266204572 0.963916555 0 0 0
-2.915807 0.036605 3.152898 0.25810454 0.966116994 0 0 0
-2.911644 0.035335 3.148636 0.28151479 0.957850322 -0.0572030052 0 0
-2.911195 0.035335 3.152972 0.286191746 0.958172367 0 0 0
-2.918644 0.037273 3.14991 0.248597328 0.967289602 -0.0504994571 0 0
-2.918339 0.037273 3.152857 0.252710925 0.967541828 0 0 0
-2.917179 0.036605 3.15965 0.237405863 0.966423866 0.0983024276 0 0
-2.918644 0.037273 3.155803 0.247098553 0.967694334 0.0500997067 0 0
-2.919515 0.037273 3.158641 0.232503862 0.967816076 0.0963015996 0 0
-2.916163 0.036605 3.156337 0.252416453 0.966262983 0.0512033375 0 0
-2.913695 0.035925 3.156867 0.260414063 0.96405206 0.0528028514 0 0
-2.914856 0.035925 3.160653 0.244907395 0.964229115 0.101403062 0 0
-2.911644 0.035335 3.157309 0.279912717 0.958343538 0.0568025806 0 0
-2.912925 0.035335 3.161486 0.263309198 0.958533482 0.109003808 0 0
-2.916712 0.035925 3.16415 0.22031253 0.96445485 0.145908298 0 0
-2.918803 0.036605 3.162711 0.213606998 0.966631667 0.141404632 0 0
-2.919202 0.035925 3.167216 0.186297744 0.964688318 0.186197745 0 0
-2.920984 0.036605 3.165395 0.180609135 0.9668489 0.180509129 0 0
-2.914973 0.035335 3.165347 0.236899373 0.958797464 0.156799585 0 0
-2.917722 0.035335 3.168731 0.200311906 0.959057003 0.2002119 0 0
-2.920907 0.037273 3.161264 0.209107417 0.968034337 0.138504913 0 0
-2.922774 0.037273 3.163563 0.17680639 0.968234993 0.17680639 0 0
-2.926728 0.036605 3.169199 0.0976057775 0.966957236 0.23551394 0 0
-2.925073 0.037273 3.165431 0.137899297 0.968295067 0.208298939 0 0
-2.927696 0.037273 3.166822 0.0955047037 0.968347692 0.230611358 0 0
-2.923667 0.036605 3.167574 0.140900725 0.966904975 0.212701094 0 0
-2.922268 0.035925 3.169707 0.145307662 0.964750873 0.21941157 0 0
-2.925766 0.035925 3.171563 0.100602022 0.964819388 0.242904881 0 0
-2.921106 0.035335 3.171479 0.156209928 0.959160961 0.235814988 0 0
-2.924966 0.035335 3.173527 0.108202971 0.959226336 0.261107169 0 0
-2.929551 0.035925 3.172724 0.0523007691 0.964914189 0.257303784 0 0
-2.930042 0.036605 3.170215 0.0507035532 0.96706777 0.249417479 0 0
-2.933481 0.035925 3.173131 0 0.964987315 0.262296552 0 0
-2.933481 0.036605 3.170571 0 0.967148334 0.254212705 0 0
-2.929144 0.035335 3.174809 0.0562021782 0.95933718 0.27661072 0 0
-2.933481 0.035335 3.175258 0 0.959413259 0.282003897 0 0
-2.930534 0.037273 3.167693 0.0496026697 0.968452123 0.244213144 0 0
-2.933481 0.037273 3.167998 0 0.968527381 0.248907037 0 0
-2.940233 0.036605 3.169199 -0.0976057775 0.966957236 0.23551394 0 0
-2.936427 0.037273 3.167693 -0.0496014581 0.968428467 0.244307182 0 0
-2.939265 0.037273 3.166822 -0.0955047037 0.968347692 0.230611358 0 0
-2.936919 0.036605 3.170215 -0.0507022882 0.967043644 0.249511261 0 0
-2.93741 0.035925 3.172724 -0.0523007691 0.964914189 0.257303784 0 0
-2.941195 0.035925 3.171563 -0.10070101 0.964809677 0.242902436 0 0
-2.937817 0.035335 3.174809 -0.0562006233 0.959310639 0.276703069 0 0
-2.941995 0.035335 3.173527 -0.108202971 0.959226336 0.261107169 0 0
-2.944693 0.035925 3.169707 -0.145307662 0.964750873 0.21941157 0 0
-2.943294 0.036605 3.167574 -0.140900725 0.966904975 0.212701094 0 0
-2.947759 0.035925 3.167216 -0.186297744 0.964688318 0.186197745 0 0
-2.945977 0.036605 3.165395 -0.180609135 0.9668489 0.180509129 0 0
-2.945855 0.035335 3.171479 -0.156209928 0.959160961 0.235814988 0 0
-2.949239 0.035335 3.168731 -0.200311906 0.959057003 0.2002119 0 0
-2.941888 0.037273 3.165431 -0.137902169 0.968315232 0.208203275 0 0
-2.944187 0.037273 3.163563 -0.17680639 0.968234993 0.17680639 0 0
-2.949782 0.036605 3.15965 -0.237405863 0.966423866 0.0983024276 0 0
-2.946054 0.037273 3.161264 -0.209107417 0.968034337 0.138504913 0 0
-2.947446 0.037273 3.158641 -0.232503862 0.967816076 0.0963015996 0 0
-2.948158 0.036605 3.162711 -0.213606998 0.966631667 0.141404632 0 0
-2.950249 0.035925 3.16415 -0.22031253 0.96445485 0.145908298 0 0
-2.952105 0.035925 3.160653 -0.244907395 0.964229115 0.101403062 0 0
-2.951988 0.035335 3.165347 -0.236899373 0.958797464 0.156799585 0 0
-2.954036 0.035335 3.161486 -0.263309198 0.958533482 0.109003808 0 0
-2.953266 0.035925 3.156867 -0.260414063 0.96405206 0.0528028514 0 0
-2.950798 0.036605 3.156337 -0.252416453 0.966262983 0.0512033375 0 0
-2.953673 0.035925 3.152938 -0.266204572 0.963916555 0 0 0
-2.951154 0.036605 3.152898 -0.25810454 0.966116994 0 0 0
-2.955317 0.035335 3.157309 -0.279912717 0.958343538 0.0568025806 0 0
-2.955766 0.035335 3.152972 -0.286191746 0.958172367 0 0 0
-2.948317 0.037273 3.155803 -0.247098553 0.967694334 0.0500997067 0 0
-2.948622 0.037273 3.152857 -0.252710925 0.967541828 0 0 0
-2.949782 0.036605 3.146145 -0.240202444 0.965609825 -0.0995010124 0 0
-2.948317 0.037273 3.14991 -0.248597328 0.967289602 -0.0504994571 0 0
-2.947446 0.037273 3.147072 -0.235117897 0.967073612 -0.0974074144 0 0
-2.950798 0.036605 3.149458 -0.253913025 0.965849545 -0.051602647 0 0
-2.953266 0.035925 3.149009 -0.261906966 0.963625628 -0.0532014149 0 0
-2.952105 0.035925 3.145224 -0.247721188 0.963382402 -0.102608777 0 0
-2.955317 0.035335 3.148636 -0.28151479 0.957850322 -0.0572030052 0 0
-2.954036 0.035335 3.144458 -0.266221994 0.957579109 -0.110309113 0 0
-2.950249 0.035925 3.141726 -0.224005287 0.963222732 -0.148403502 0 0
-2.948158 0.036605 3.143084 -0.217099881 0.965499469 -0.143799921 0 0
-2.947759 0.035925 3.13866 -0.190300971 0.963104917 -0.190300971 0 0
-2.945977 0.036605 3.1404 -0.184396241 0.965380321 -0.184496239 0 0
-2.951988 0.035335 3.140598 -0.240795226 0.95738102 -0.159496838 0 0
-2.949239 0.035335 3.137213 -0.204508871 0.957241521 -0.204608875 0 0
-2.946054 0.037273 3.144449 -0.21260861 0.966939157 -0.140805702 0 0
-2.944187 0.037273 3.14215 -0.180509129 0.9668489 -0.180609135 0 0
-2.940233 0.036605 3.136596 -0.100302712 0.96502609 -0.242206548 0 0
-2.941888 0.037273 3.140283 -0.141407652 0.966652312 -0.213511554 0 0
-2.939265 0.037273 3.138891 -0.0982008887 0.966508747 -0.237102146 0 0
-2.943294 0.036605 3.138221 -0.144411771 0.965178675 -0.21811778 0 0
-2.944693 0.035925 3.136169 -0.14899982 0.96289884 -0.224999729 0 0
-2.941195 0.035925 3.134314 -0.103406055 0.962756376 -0.249814628 0 0
-2.945855 0.035335 3.134465 -0.160104143 0.957024763 -0.241806257 0 0
-2.941995 0.035335 3.132417 -0.111207215 0.956862083 -0.268417415 0 0
-2.93741 0.035925 3.133153 -0.0538024015 0.962742973 -0.265011829 0 0
-2.936919 0.036605 3.13558 -0.0522013716 0.965025356 -0.25690675 0 0
-2.937817 0.035335 3.131135 -0.0579020356 0.956833638 -0.284810013 0 0
-2.936427 0.037273 3.138021 -0.0511003651 0.966506906 -0.251501797 0 0
-2.942715 0.034658 3.130709 -0.238297401 0.782391468 -0.575393725 0 0
-2.938061 0.034941 3.129925 -0.0725006695 0.9312086 -0.357203299 0 0
-2.938184 0.034658 3.12932 -0.124004769 0.782230081 -0.610523478 0 0
-2.942475 0.034941 3.131279 -0.139396403 0.931275969 -0.336591314 0 0
-2.933481 0.034941 3.12945 0 0.931202938 -0.36450115 0 0
-2.933481 0.034658 3.128833 0 0.782038227 -0.623230464 0 0
-2.946553 0.034941 3.133442 -0.20079962 0.931498239 -0.303299427 0 0
-2.946901 0.034658 3.132931 -0.343610745 0.782724476 -0.518916227 0 0
-2.950127 0.034941 3.136346 -0.256601323 0.931804803 -0.256701323 0 0
-2.950571 0.034658 3.135912 -0.43960297 0.783205291 -0.43970297 0 0
-2.947017 0.034402 3.13276 -0.522105986 0.326503743 -0.787909033 0 0
-2.942795 0.034402 3.13052 -0.361807495 0.326206757 -0.873318091 0 0
-2.947017 0.03409 3.13276 -0.552205376 0 -0.833708116 0 0
-2.942795 0.03409 3.13052 -0.382690337 0 -0.923876672 0 0
-2.950719 0.034402 3.135767 -0.668406758 0.326903305 -0.668106755 0 0
-2.950719 0.03409 3.135767 -0.707106781 0 -0.707106781 0 0
-2.938224 0.034402 3.129118 -0.188099529 0.326199183 -0.926397679 0 0
-2.933481 0.034402 3.128627 0 0.326021503 -0.945362354 0 0
-2.938224 0.03409 3.129118 -0.199095937 0 -0.979980004 0 0
-2.933481 0.03409 3.128627 0 0 -1 0 0
-2.942795 0.03308 3.13052 -0.382690337 0 -0.923876672 0 0
-2.938224 0.033638 3.129118 -0.199095937 0 -0.979980004 0 0
-2.938224 0.03308 3.129118 -0.198999901 0 -0.97999951 0 0
-2.942795 0.033638 3.13052 -0.382690337 0 -0.923876672 0 0
-2.933481 0.033638 3.128627 0 0 -1 0 0
-2.933481 0.03308 3.128627 0 0 -1 0 0
-2.947017 0.033638 3.13276 -0.552205376 0 -0.833708116 0 0
-2.947017 0.03308 3.13276 -0.552205376 0 -0.833708116 0 0
-2.950719 0.033638 3.135767 -0.707106781 0 -0.707106781 0 0
-2.950719 0.03308 3.135767 -0.707106781 0 -0.707106781 0 0
-2.947017 0.032453 3.13276 -0.552205376 0 -0.833708116 0 0
-2.942795 0.032453 3.13052 -0.382690337 0 -0.923876672 0 0
-2.947017 0.031791 3.13276 -0.552205376 0 -0.833708116 0 0
-2.942795 0.031791 3.13052 -0.382690337 0 -0.923876672 0 0
-2.950719 0.032453 3.135767 -0.707106781 0 -0.707106781 0 0
-2.950719 0.031791 3.135767 -0.707106781 0 -0.707106781 0 0
-2.938224 0.032453 3.129118 -0.198999901 0 -0.97999951 0 0
-2.933481 0.032453 3.128627 0 0 -1 0 0
-2.938224 0.031791 3.129118 -0.199095937 0 -0.979980004 0 0
-2.933481 0.031791 3.128627 0 0 -1 0 0
-2.955774 0.034658 3.143769 -0.572519715 0.784827026 -0.237208168 0 0
-2.953031 0.034941 3.13992 -0.302019932 0.932061513 -0.200113207 0 0
-2.953552 0.034658 3.139582 -0.517392909 0.784089254 -0.342795302 0 0
-2.955194 0.034941 3.143998 -0.334017728 0.932349486 -0.138407346 0 0
-2.956548 0.034941 3.148412 -0.353229183 0.932777065 -0.0718059325 0 0
-2.957164 0.034658 3.148299 -0.606205707 0.785707398 -0.12320116 0 0
-2.957022 0.034941 3.152992 -0.3593945 0.933185718 -9.99984695e-05 0 0
-2.957651 0.034658 3.153003 -0.617596288 0.786495273 -9.9999399e-05 0 0
-2.957369 0.034402 3.148262 -0.925444765 0.32911592 -0.18770908 0 0
-2.955967 0.034402 3.143692 -0.872736093 0.328413582 -0.361214938 0 0
-2.957369 0.03409 3.148262 -0.97999951 0 -0.198999901 0 0
-2.955967 0.03409 3.143692 -0.923912025 0 -0.38260498 0 0
-2.95786 0.034402 3.153006 -0.944087283 0.329695559 0.000199997306 0 0
-2.95786 0.03409 3.153006 -1 0 0 0 0
-2.953727 0.034402 3.139469 -0.787755298 0.327622998 -0.521636618 0 0
-2.953727 0.03409 3.139469 -0.833708116 0 -0.552205376 0 0
-2.955967 0.03308 3.143692 -0.923912025 0 -0.38260498 0 0
-2.953727 0.033638 3.139469 -0.833708116 0 -0.552205376 0 0
-2.953727 0.03308 3.139469 -0.833708116 0 -0.552205376 0 0
-2.955967 0.033638 3.143692 -0.923876672 0 -0.382690337 0 0
-2.957369 0.033638 3.148262 -0.97999951 0 -0.198999901 0 0
-2.957369 0.03308 3.148262 -0.97999951 0 -0.198999901 0 0
-2.95786 0.033638 3.153006 -1 0 0 0 0
-2.95786 0.03308 3.153006 -1 0 0 0 0
-2.957369 0.032453 3.148262 -0.97999951 0 -0.198999901 0 0
-2.955967 0.032453 3.143692 -0.923912025 0 -0.38260498 0 0
-2.957369 0.031791 3.148262 -0.979980004 0 -0.199095937 0 0
-2.955967 0.031791 3.143692 -0.923876672 0 -0.382690337 0 0
-2.95786 0.032453 3.153006 -1 0 0 0 0
-2.95786 0.031791 3.153006 -1 0 0 0 0
-2.953727 0.032453 3.139469 -0.833708116 0 -0.552205376 0 0
-2.953727 0.031791 3.139469 -0.833708116 0 -0.552205376 0 0
-2.955774 0.034658 3.162237 -0.568718637 0.788125827 0.235407714 0 0
-2.956548 0.034941 3.157573 -0.351314469 0.933538449 0.0713029367 0 0
-2.957164 0.034658 3.157706 -0.60411017 0.787413256 0.122602064 0 0
-2.955194 0.034941 3.161987 -0.330512075 0.933834118 0.136804998 0 0
-2.953031 0.034941 3.166065 -0.297408029 0.93422522 0.196905316 0 0
-2.953552 0.034658 3.166423 -0.512406761 0.78891041 0.339204476 0 0
-2.950127 0.034941 3.169639 -0.251706834 0.934525373 0.251606831 0 0
-2.950571 0.034658 3.170094 -0.434207178 0.789313047 0.434107176 0 0
-2.953727 0.034402 3.166543 -0.786363781 0.331726906 0.521142269 0 0
-2.955967 0.034402 3.16232 -0.871635873 0.331213631 0.36131487 0 0
-2.953727 0.03409 3.166543 -0.833708116 0 0.552205376 0 0
-2.955967 0.03409 3.16232 -0.923912025 0 0.38260498 0 0
-2.950719 0.034402 3.170245 -0.666899326 0.331999665 0.667099326 0 0
-2.950719 0.03409 3.170245 -0.707106781 0 0.707106781 0 0
-2.957369 0.034402 3.15775 -0.924878946 0.330528213 0.188016049 0 0
-2.957369 0.03409 3.15775 -0.97999951 0 0.198999901 0 0
-2.955967 0.03308 3.16232 -0.923912025 0 0.38260498 0 0
-2.957369 0.033638 3.15775 -0.97999951 0 0.198999901 0 0
-2.957369 0.03308 3.15775 -0.97999951 0 0.198999901 0 0
-2.955967 0.033638 3.16232 -0.923912025 0 0.38260498 0 0
-2.953727 0.033638 3.166543 -0.833708116 0 0.552205376 0 0
-2.953727 0.03308 3.166543 -0.833708116 0 0.552205376 0 0
-2.950719 0.033638 3.170245 -0.707106781 0 0.707106781 0 0
-2.950719 0.03308 3.170245 -0.707106781 0 0.707106781 0 0
-2.953727 0.032453 3.166543 -0.833708116 0 0.552205376 0 0
-2.955967 0.032453 3.16232 -0.923912025 0 0.38260498 0 0
-2.953727 0.031791 3.166543 -0.833708116 0 0.552205376 0 0
-2.955967 0.031791 3.16232 -0.923876672 0 0.382690337 0 0
-2.950719 0.032453 3.170245 -0.707106781 0 0.707106781 0 0
-2.950719 0.031791 3.170245 -0.707106781 0 0.707106781 0 0
-2.957369 0.032453 3.15775 -0.97999951 0 0.198999901 0 0
-2.957369 0.031791 3.15775 -0.979980004 0 0.199095937 0 0
-2.942715 0.034658 3.175296 -0.234509341 0.79033148 0.566022545 0 0
-2.946553 0.034941 3.172543 -0.1962105 0.934750025 0.296215852 0 0
-2.946901 0.034658 3.173075 -0.338613983 0.789932621 0.511221111 0 0
-2.942475 0.034941 3.174706 -0.135906534 0.934844944 0.32801577 0 0
-2.938061 0.034941 3.17606 -0.070601214 0.935016078 0.347505975 0 0
-2.938184 0.034658 3.176686 -0.12190561 0.790636382 0.600027611 0 0
-2.933481 0.034941 3.176534 0 0.935094684 0.354397985 0 0
-2.933481 0.034658 3.177173 0 0.790615951 0.612312354 0 0
-2.938224 0.034402 3.176894 -0.18760075 0.333201333 0.924003696 0 0
-2.942795 0.034402 3.175492 -0.360715089 0.332913926 0.871236445 0 0
-2.938224 0.03409 3.176894 -0.198999901 0 0.97999951 0 0
-2.942795 0.03409 3.175492 -0.382690337 0 0.923876672 0 0
-2.933481 0.034402 3.177385 0 0.333097332 0.942892447 0 0
-2.933481 0.03409 3.177385 0 0 1 0 0
-2.947017 0.034402 3.173252 -0.520639492 0.332525223 0.786359648 0 0
-2.947017 0.03409 3.173252 -0.552135862 0 0.833754154 0 0
-2.942795 0.03308 3.175492 -0.382690337 0 0.923876672 0 0
-2.947017 0.033638 3.173252 -0.552205376 0 0.833708116 0 0
-2.947017 0.03308 3.173252 -0.552205376 0 0.833708116 0 0
-2.942795 0.033638 3.175492 -0.382690337 0 0.923876672 0 0
-2.938224 0.033638 3.176894 -0.198999901 0 0.97999951 0 0
-2.938224 0.03308 3.176894 -0.198999901 0 0.97999951 0 0
-2.933481 0.033638 3.177385 0 0 1 0 0
-2.933481 0.03308 3.177385 0 0 1 0 0
-2.938224 0.032453 3.176894 -0.198999901 0 0.97999951 0 0
-2.942795 0.032453 3.175492 -0.382690337 0 0.923876672 0 0
-2.938224 0.031791 3.176894 -0.198999901 0 0.97999951 0 0
-2.942795 0.031791 3.175492 -0.382690337 0 0.923876672 0 0
-2.933481 0.032453 3.177385 0 0 1 0 0
-2.933481 0.031791 3.177385 0 0 1 0 0
-2.947017 0.032453 3.173252 -0.552205376 0 0.833708116 0 0
-2.947017 0.031791 3.173252 -0.552205376 0 0.833708116 0 0
-2.924246 0.034658 3.175296 0.234509341 0.79033148 0.566022545 0 0
-2.9289 0.034941 3.17606 0.070601214 0.935016078 0.347505975 0 0
-2.928777 0.034658 3.176686 0.122004126 0.790626739 0.600020293 0 0
-2.924486 0.034941 3.174706 0.135906534 0.934844944 0.32801577 0 0
-2.920408 0.034941 3.172543 0.1962105 0.934750025 0.296215852 0 0
-2.92006 0.034658 3.173075 0.338516002 0.790037346 0.511124161 0 0
-2.916834 0.034941 3.169639 0.251706834 0.934525373 0.251606831 0 0
-2.91639 0.034658 3.170094 0.434226026 0.789347311 0.434026014 0 0
-2.919944 0.034402 3.173252 0.520645795 0.332729266 0.78626916 0 0
-2.924166 0.034402 3.175492 0.360715089 0.332913926 0.871236445 0 0
-2.919944 0.03409 3.173252 0.552205376 0 0.833708116 0 0
-2.924166 0.03409 3.175492 0.382690337 0 0.923876672 0 0
-2.916242 0.034402 3.170245 0.666877183 0.332088638 0.667077176 0 0
-2.916242 0.03409 3.170245 0.707106781 0 0.707106781 0 0
-2.928737 0.034402 3.176894 0.187607001 0.33311243 0.924034481 0 0
-2.928737 0.03409 3.176894 0.199095937 0 0.979980004 0 0
-2.924166 0.03308 3.175492 0.382690337 0 0.923876672 0 0
-2.928737 0.033638 3.176894 0.198999901 0 0.97999951 0 0
-2.928737 0.03308 3.176894 0.198999901 0 0.97999951 0 0
-2.924166 0.033638 3.175492 0.382690337 0 0.923876672 0 0
-2.919944 0.033638 3.173252 0.552205376 0 0.833708116 0 0
-2.919944 0.03308 3.173252 0.552205376 0 0.833708116 0 0
-2.916242 0.033638 3.170245 0.707106781 0 0.707106781 0 0
-2.916242 0.03308 3.170245 0.707106781 0 0.707106781 0 0
-2.919944 0.032453 3.173252 0.552205376 0 0.833708116 0 0
-2.924166 0.032453 3.175492 0.382690337 0 0.923876672 0 0
-2.919944 0.031791 3.173252 0.552205376 0 0.833708116 0 0
-2.924166 0.031791 3.175492 0.382690337 0 0.923876672 0 0
-2.916242 0.032453 3.170245 0.707106781 0 0.707106781 0 0
-2.916242 0.031791 3.170245 0.707106781 0 0.707106781 0 0
-2.928737 0.032453 3.176894 0.198999901 0 0.97999951 0 0
-2.928737 0.031791 3.176894 0.198999901 0 0.97999951 0 0
-2.911187 0.034658 3.162237 0.568705246 0.78810727 0.235502173 0 0
-2.91393 0.034941 3.166065 0.297408029 0.93422522 0.196905316 0 0
-2.913409 0.034658 3.166423 0.512503541 0.788805451 0.339302345 0 0
-2.911767 0.034941 3.161987 0.330512075 0.933834118 0.136804998 0 0
-2.910413 0.034941 3.157573 0.351314469 0.933538449 0.0713029367 0 0
-2.909797 0.034658 3.157706 0.60411017 0.787413256 0.122602064 0 0
-2.909939 0.034941 3.152992 0.359307413 0.933219252 -0.000100002063 0 0
-2.90931 0.034658 3.153003 0.617706715 0.786408548 -0.000100001087 0 0
-2.909592 0.034402 3.15775 0.924893405 0.330497644 0.18799866 0 0
-2.910994 0.034402 3.16232 0.87168876 0.331095731 0.361295341 0 0
-2.909592 0.03409 3.15775 0.97999951 0 0.198999901 0 0
-2.910994 0.03409 3.16232 0.923876672 0 0.382690337 0 0
-2.909101 0.034402 3.153006 0.944118406 0.329606426 0.000200003899 0 0
-2.909101 0.03409 3.153006 1 0 0 0 0
-2.913234 0.034402 3.166543 0.78638704 0.331594535 0.521191411 0 0
-2.913234 0.03409 3.166543 0.833708116 0 0.552205376 0 0
-2.910994 0.03308 3.16232 0.923912025 0 0.38260498 0 0
-2.913234 0.033638 3.166543 0.833708116 0 0.552205376 0 0
-2.913234 0.03308 3.166543 0.833708116 0 0.552205376 0 0
-2.910994 0.033638 3.16232 0.923912025 0 0.38260498 0 0
-2.909592 0.033638 3.15775 0.97999951 0 0.198999901 0 0
-2.909592 0.03308 3.15775 0.97999951 0 0.198999901 0 0
-2.909101 0.033638 3.153006 1 0 0 0 0
-2.909101 0.03308 3.153006 1 0 0 0 0
-2.909592 0.032453 3.15775 0.97999951 0 0.198999901 0 0
-2.910994 0.032453 3.16232 0.923912025 0 0.38260498 0 0
-2.909592 0.031791 3.15775 0.979980004 0 0.199095937 0 0
-2.910994 0.031791 3.16232 0.923876672 0 0.382690337 0 0
-2.909101 0.032453 3.153006 1 0 0 0 0
-2.909101 0.031791 3.153006 1 0 0 0 0
-2.913234 0.032453 3.166543 0.833708116 0 0.552205376 0 0
-2.913234 0.031791 3.166543 0.833708116 0 0.552205376 0 0
-2.911187 0.034658 3.143769 0.572519715 0.784827026 -0.237208168 0 0
-2.910413 0.034941 3.148412 0.353196235 0.932790057 -0.0717992346 0 0
-2.909797 0.034658 3.148299 0.606309113 0.785611808 -0.123301853 0 0
-2.911767 0.034941 3.143998 0.334017728 0.932349486 -0.138407346 0 0
-2.91393 0.034941 3.13992 0.302019932 0.932061513 -0.200113207 0 0
-2.913409 0.034658 3.139582 0.517319674 0.784129821 -0.342813037 0 0
-2.916834 0.034941 3.136346 0.256601323 0.931804803 -0.256701323 0 0
-2.91639 0.034658 3.135912 0.439522289 0.783239719 -0.439722299 0 0
-2.913234 0.034402 3.139469 0.787729485 0.327712266 -0.521619525 0 0
-2.910994 0.034402 3.143692 0.872736093 0.328413582 -0.361214938 0 0
-2.913234 0.03409 3.139469 0.833708116 0 -0.552205376 0 0
-2.910994 0.03409 3.143692 0.923912025 0 -0.38260498 0 0
-2.916242 0.034402 3.135767 0.668384905 0.326992615 -0.668084911 0 0
-2.916242 0.03409 3.135767 0.707106781 0 -0.707106781 0 0
-2.909592 0.034402 3.148262 0.92548957 0.328996292 -0.187697885 0 0
-2.909592 0.03409 3.148262 0.97999951 0 -0.198999901 0 0
-2.910994 0.03308 3.143692 0.923912025 0 -0.38260498 0 0
-2.909592 0.033638 3.148262 0.97999951 0 -0.198999901 0 0
-2.909592 0.03308 3.148262 0.97999951 0 -0.198999901 0 0
-2.910994 0.033638 3.143692 0.923912025 0 -0.38260498 0 0
-2.913234 0.033638 3.139469 0.833708116 0 -0.552205376 0 0
-2.913234 0.03308 3.139469 0.833708116 0 -0.552205376 0 0
-2.916242 0.033638 3.135767 0.707106781 0 -0.707106781 0 0
-2.916242 0.03308 3.135767 0.707106781 0 -0.707106781 0 0
-2.913234 0.032453 3.139469 0.833708116 0 -0.552205376 0 0
-2.910994 0.032453 3.143692 0.923912025 0 -0.38260498 0 0
-2.913234 0.031791 3.139469 0.833708116 0 -0.552205376 0 0
-2.910994 0.031791 3.143692 0.923876672 0 -0.382690337 0 0
-2.916242 0.032453 3.135767 0.707106781 0 -0.707106781 0 0
-2.916242 0.031791 3.135767 0.707106781 0 -0.707106781 0 0
-2.909592 0.032453 3.148262 0.97999951 0 -0.198999901 0 0
-2.909592 0.031791 3.148262 0.979980004 0 -0.199095937 0 0
-2.924246 0.034658 3.130709 0.238297401 0.782391468 -0.575393725 0 0
-2.9289 0.034941 3.129925 0.0725006695 0.9312086 -0.357203299 0 0
-2.924486 0.034941 3.131279 0.139396403 0.931275969 -0.336591314 0 0
-2.928777 0.034658 3.12932 0.124004769 0.782230081 -0.610523478 0 0
-2.928737 0.034402 3.129118 0.188099529 0.326199183 -0.926397679 0 0
-2.924166 0.034402 3.13052 0.361795691 0.326296114 -0.873289599 0 0
-2.928737 0.03409 3.129118 0.198999901 0 -0.97999951 0 0
-2.924166 0.03409 3.13052 0.382690337 0 -0.923876672 0 0
-2.919944 0.034402 3.13276 0.522016191 0.32661013 -0.787924438 0 0
-2.92006 0.034658 3.132931 0.343513478 0.782830715 -0.518820356 0 0
-2.919944 0.03409 3.13276 0.552205376 0 -0.833708116 0 0
-2.920408 0.034941 3.133442 0.20079962 0.931498239 -0.303299427 0 0
-2.924166 0.03308 3.13052 0.382690337 0 -0.923876672 0 0
-2.928737 0.033638 3.129118 0.199095937 0 -0.979980004 0 0
-2.924166 0.033638 3.13052 0.382690337 0 -0.923876672 0 0
-2.928737 0.03308 3.129118 0.198999901 0 -0.97999951 0 0
-2.928737 0.032453 3.129118 0.198999901 0 -0.97999951 0 0
-2.924166 0.032453 3.13052 0.382690337 0 -0.923876672 0 0
-2.928737 0.031791 3.129118 0.199095937 0 -0.979980004 0 0
-2.924166 0.031791 3.13052 0.382690337 0 -0.923876672 0 0
-2.919944 0.032453 3.13276 0.552205376 0 -0.833708116 0 0
-2.919944 0.03308 3.13276 0.552205376 0 -0.833708116 0 0
-2.919944 0.031791 3.13276 0.552205376 0 -0.833708116 0 0
-2.919944 0.033638 3.13276 0.552205376 0 -0.833708116 0 0
3 0 1 2
3 0 3 1
3 3 4 1
3 3 5 4
3 2 6 7
3 2 1 6
3 1 8 6
3 1 4 8
3 0 9 3
3 0 10 9
3 10 11 9
3 10 12 11
3 3 13 5
3 3 9 13
3 9 14 13
3 9 11 14
3 0 15 10
3 0 16 15
3 16 17 15
3 16 18 17
3 10 19 12
3 10 15 19
3 15 20 19
3 15 17 20
3 0 21 16
3 0 2 21
3 2 22 21
3 2 7 22
3 16 23 18
3 16 21 23
3 21 24 23
3 21 22 24
3 25 26 27
3 25 28 26
3 28 6 26
3 28 7 6
3 27 29 30
3 27 26 29
3 26 8 29
3 26 6 8
3 25 31 28
3 25 32 31
3 32 33 31
3 32 34 33
3 28 22 7
3 28 31 22
3 31 24 22
3 31 33 24
3 25 35 32
3 25 36 35
3 36 37 35
3 36 38 37
3 32 39 34
3 32 35 39
3 35 40 39
3 35 37 40
3 25 41 36
3 25 27 41
3 27 42 41
3 27 30 42
3 36 43 38
3 36 41 43
3 41 44 43
3 41 42 44
3 45 46 47
3 45 48 46
3 48 43 46
3 48 38 43
3 47 49 50
3 47 46 49
3 46 44 49
3 46 43 44
3 45 51 48
3 45 52 51
3 52 53 51
3 52 54 53
3 48 37 38
3 48 51 37
3 51 40 37
3 51 53 40
3 45 55 52
3 45 56 55
3 56 57 55
3 56 58 57
3 52 59 54
3 52 55 59
3 55 60 59
3 55 57 60
3 45 61 56
3 45 47 61
3 47 62 61
3 47 50 62
3 56 63 58
3 56 61 63
3 61 64 63
3 61 62 64
3 65 66 67
3 65 68 66
3 68 63 66
3 68 58 63
3 67 69 70
3 67 66 69
3 66 64 69
3 66 63 64
3 65 71 68
3 65 72 71
3 72 73 71
3 72 74 73
3 68 57 58
3 68 71 57
3 71 60 57
3 71 73 60
3 65 75 72
3 65 76 75
3 76 77 75
3 76 78 77
3 72 79 74
3 72 75 79
3 75 80 79
3 75 77 80
3 65 81 76
3 65 67 81
3 67 82 81
3 67 70 82
3 76 83 78
3 76 81 83
3 81 84 83
3 81 82 84
3 85 86 87
3 85 88 86
3 88 83 86
3 88 78 83
3 87 89 90
3 87 86 89
3 86 84 89
3 86 83 84
3 85 91 88
3 85 92 91
3 92 93 91
3 92 94 93
3 88 77 78
3 88 91 77
3 91 80 77
3 91 93 80
3 85 95 92
3 85 96 95
3 96 97 95
3 96 98 97
3 92 99 94
3 92 95 99
3 95 100 99
3 95 97 100
3 85 101 96
3 85 87 101
3 87 102 101
3 87 90 102
3 96 103 98
3 96 101 103
3 101 104 103
3 101 102 104
3 105 106 107
3 105 108 106
3 108 103 106
3 108 98 103
3 107 109 110
3 107 106 109
3 106 104 109
3 106 103 104
3 105 111 108
3 105 112 111
3 112 113 111
3 112 114 113
3 108 97 98
3 108 111 97
3 111 100 97
3 111 113 100
3 105 115 112
3 105 116 115
3 116 117 115
3 116 118 117
3 112 119 114
3 112 115 119
3 115 120 119
3 115 117 120
3 105 121 116
3 105 107 121
3 107 122 121
3 107 110 122
3 116 123 118
3 116 121 123
3 121 124 123
3 121 122 124
3 125 126 127
3 125 128 126
3 128 123 126
3 128 118 123
3 127 129 130
3 127 126 129
3 126 124 129
3 126 123 124
3 125 131 128
3 125 132 131
3 132 133 131
3 132 134 133
3 128 117 118
3 128 131 117
3 131 120 117
3 131 133 120
3 125 135 132
3 125 136 135
3 136 137 135
3 136 138 137
3 132 139 134
3 132 135 139
3 135 140 139
3 135 137 140
3 125 141 136
3 125 127 141
3 127 142 141
3 127 130 142
3 136 143 138
3 136 141 143
3 141 144 143
3 141 142 144
3 145 146 147
3 145 148 146
3 148 19 146
3 148 12 19
3 147 149 150
3 147 146 149
3 146 20 149
3 146 19 20
3 145 151 148
3 145 152 151
3 152 153 151
3 152 154 153
3 148 11 12
3 148 151 11
3 151 14 11
3 151 153 14
3 145 155 152
3 145 156 155
3 156 143 155
3 156 138 143
3 152 157 154
3 152 155 157
3 155 144 157
3 155 143 144
3 145 158 156
3 145 147 158
3 147 159 158
3 147 150 159
3 156 137 138
3 156 158 137
3 158 140 137
3 158 159 140
3 160 161 162
3 160 163 161
3 163 164 161
3 163 165 164
3 162 159 150
3 162 161 159
3 161 140 159
3 161 164 140
3 160 166 163
3 160 167 166
3 167 168 166
3 167 169 168
3 163 170 165
3 163 166 170
3 166 171 170
3 166 168 171
3 160 172 167
3 160 173 172
3 173 174 172
3 173 175 174
3 167 176 169
3 167 172 176
3 172 177 176
3 172 174 177
3 160 178 173
3 160 162 178
3 162 149 178
3 162 150 149
3 173 179 175
3 173 178 179
3 178 20 179
3 178 149 20
3 180 181 182
3 180 183 181
3 183 184 181
3 183 185 184
3 182 133 134
3 182 181 133
3 181 120 133
3 181 184 120
3 180 186 183
3 180 187 186
3 187 188 186
3 187 189 188
3 183 190 185
3 183 186 190
3 186 191 190
3 186 188 191
3 180 192 187
3 180 193 192
3 193 170 192
3 193 165 170
3 187 194 189
3 187 192 194
3 192 171 194
3 192 170 171
3 180 195 193
3 180 182 195
3 182 139 195
3 182 134 139
3 193 164 165
3 193 195 164
3 195 140 164
3 195 139 140
3 196 197 198
3 196 199 197
3 199 200 197
3 199 201 200
3 198 113 114
3 198 197 113
3 197 100 113
3 197 200 100
3 196 202 199
3 196 203 202
3 203 204 202
3 203 205 204
3 199 206 201
3 199 202 206
3 202 207 206
3 202 204 207
3 196 208 203
3 196 209 208
3 209 190 208
3 209 185 190
3 203 210 205
3 203 208 210
3 208 191 210
3 208 190 191
3 196 211 209
3 196 198 211
3 198 119 211
3 198 114 119
3 209 184 185
3 209 211 184
3 211 120 184
3 211 119 120
3 212 213 214
3 212 215 213
3 215 216 213
3 215 217 216
3 214 93 94
3 214 213 93
3 213 80 93
3 213 216 80
3 212 218 215
3 212 219 218
3 219 220 218
3 219 221 220
3 215 222 217
3 215 218 222
3 218 223 222
3 218 220 223
3 212 224 219
3 212 225 224
3 225 206 224
3 225 201 206
3 219 226 221
3 219 224 226
3 224 207 226
3 224 206 207
3 212 227 225
3 212 214 227
3 214 99 227
3 214 94 99
3 225 200 201
3 225 227 200
3 227 100 200
3 227 99 100
3 228 229 230
3 228 231 229
3 231 232 229
3 231 233 232
3 230 73 74
3 230 229 73
3 229 60 73
3 229 232 60
3 228 234 231
3 228 235 234
3 235 236 234
3 235 237 236
3 231 238 233
3 231 234 238
3 234 239 238
3 234 236 239
3 228 240 235
3 228 241 240
3 241 222 240
3 241 217 222
3 235 242 237
3 235 240 242
3 240 223 242
3 240 222 223
3 228 243 241
3 228 230 243
3 230 79 243
3 230 74 79
3 241 216 217
3 241 243 216
3 243 80 216
3 243 79 80
3 244 245 246
3 244 247 245
3 247 248 245
3 247 249 248
3 246 53 54
3 246 245 53
3 245 40 53
3 245 248 40
3 244 250 247
3 244 251 250
3 251 252 250
3 251 253 252
3 247 254 249
3 247 250 254
3 250 255 254
3 250 252 255
3 244 256 251
3 244 257 256
3 257 238 256
3 257 233 238
3 251 258 253
3 251 256 258
3 256 239 258
3 256 238 239
3 244 259 257
3 244 246 259
3 246 59 259
3 246 54 59
3 257 232 233
3 257 259 232
3 259 60 232
3 259 59 60
3 260 261 262
3 260 263 261
3 263 264 261
3 263 265 264
3 262 33 34
3 262 261 33
3 261 24 33
3 261 264 24
3 260 266 263
3 260 267 266
3 267 268 266
3 267 269 268
3 263 270 265
3 263 266 270
3 266 271 270
3 266 268 271
3 260 272 267
3 260 273 272
3 273 254 272
3 273 249 254
3 267 274 269
3 267 272 274
3 272 255 274
3 272 254 255
3 260 275 273
3 260 262 275
3 262 39 275
3 262 34 39
3 273 248 249
3 273 275 248
3 275 40 248
3 275 39 40
3 276 277 278
3 276 279 277
3 279 23 277
3 279 18 23
3 278 264 265
3 278 277 264
3 277 24 264
3 277 23 24
3 276 280 279
3 276 281 280
3 281 179 280
3 281 175 179
3 279 17 18
3 279 280 17
3 280 20 17
3 280 179 20
3 276 282 281
3 276 283 282
3 283 284 282
3 283 285 284
3 281 174 175
3 281 282 174
3 282 177 174
3 282 284 177
3 276 286 283
3 276 278 286
3 278 270 286
3 278 265 270
3 283 287 285
3 283 286 287
3 286 271 287
3 286 270 271
3 288 289 290
3 288 291 289
3 291 287 289
3 291 285 287
3 290 292 293
3 290 289 292
3 289 271 292
3 289 287 271
3 288 294 291
3 288 295 294
3 295 296 294
3 295 297 296
3 291 284 285
3 291 294 284
3 294 177 284
3 294 296 177
3 288 298 295
3 288 299 298
3 299 300 298
3 299 301 300
3 295 302 297
3 295 298 302
3 298 303 302
3 298 300 303
3 288 304 299
3 288 290 304
3 290 305 304
3 290 293 305
3 299 306 301
3 299 304 306
3 304 307 306
3 304 305 307
3 308 309 310
3 308 311 309
3 311 292 309
3 311 293 292
3 310 268 269
3 310 309 268
3 309 271 268
3 309 292 271
3 308 312 311
3 308 313 312
3 313 314 312
3 313 315 314
3 311 305 293
3 311 312 305
3 312 307 305
3 312 314 307
3 308 316 313
3 308 317 316
3 317 318 316
3 317 319 318
3 313 320 315
3 313 316 320
3 316 321 320
3 316 318 321
3 308 322 317
3 308 310 322
3 310 274 322
3 310 269 274
3 317 323 319
3 317 322 323
3 322 255 323
3 322 274 255
3 324 325 326
3 324 327 325
3 327 323 325
3 327 319 323
3 326 252 253
3 326 325 252
3 325 255 252
3 325 323 255
3 324 328 327
3 324 329 328
3 329 330 328
3 329 331 330
3 327 318 319
3 327 328 318
3 328 321 318
3 328 330 321
3 324 332 329
3 324 333 332
3 333 334 332
3 333 335 334
3 329 336 331
3 329 332 336
3 332 337 336
3 332 334 337
3 324 338 333
3 324 326 338
3 326 258 338
3 326 253 258
3 333 339 335
3 333 338 339
3 338 239 339
3 338 258 239
3 340 341 342
3 340 343 341
3 343 339 341
3 343 335 339
3 342 236 237
3 342 341 236
3 341 239 236
3 341 339 239
3 340 344 343
3 340 345 344
3 345 346 344
3 345 347 346
3 343 334 335
3 343 344 334
3 344 337 334
3 344 346 337
3 340 348 345
3 340 349 348
3 349 350 348
3 349 351 350
3 345 352 347
3 345 348 352
3 348 353 352
3 348 350 353
3 340 354 349
3 340 342 354
3 342 242 354
3 342 237 242
3 349 355 351
3 349 354 355
3 354 223 355
3 354 242 223
3 356 357 358
3 356 359 357
3 359 355 357
3 359 351 355
3 358 220 221
3 358 357 220
3 357 223 220
3 357 355 223
3 356 360 359
3 356 361 360
3 361 362 360
3 361 363 362
3 359 350 351
3 359 360 350
3 360 353 350
3 360 362 353
3 356 364 361
3 356 365 364
3 365 366 364
3 365 367 366
3 361 368 363
3 361 364 368
3 364 369 368
3 364 366 369
3 356 370 365
3 356 358 370
3 358 226 370
3 358 221 226
3 365 371 367
3 365 370 371
3 370 207 371
3 370 226 207
3 372 373 374
3 372 375 373
3 375 371 373
3 375 367 371
3 374 204 205
3 374 373 204
3 373 207 204
3 373 371 207
3 372 376 375
3 372 377 376
3 377 378 376
3 377 379 378
3 375 366 367
3 375 376 366
3 376 369 366
3 376 378 369
3 372 380 377
3 372 381 380
3 381 382 380
3 381 383 382
3 377 384 379
3 377 380 384
3 380 385 384
3 380 382 385
3 372 386 381
3 372 374 386
3 374 210 386
3 374 205 210
3 381 387 383
3 381 386 387
3 386 191 387
3 386 210 191
3 388 389 390
3 388 391 389
3 391 387 389
3 391 383 387
3 390 188 189
3 390 389 188
3 389 191 188
3 389 387 191
3 388 392 391
3 388 393 392
3 393 394 392
3 393 395 394
3 391 382 383
3 391 392 382
3 392 385 382
3 392 394 385
3 388 396 393
3 388 397 396
3 397 398 396
3 397 399 398
3 393 400 395
3 393 396 400
3 396 401 400
3 396 398 401
3 388 402 397
3 388 390 402
3 390 194 402
3 390 189 194
3 397 403 399
3 397 402 403
3 402 171 403
3 402 194 171
3 404 405 406
3 404 407 405
3 407 403 405
3 407 399 403
3 406 168 169
3 406 405 168
3 405 171 168
3 405 403 171
3 404 408 407
3 404 409 408
3 409 410 408
3 409 411 410
3 407 398 399
3 407 408 398
3 408 401 398
3 408 410 401
3 404 412 409
3 404 413 412
3 413 302 412
3 413 297 302
3 409 414 411
3 409 412 414
3 412 303 414
3 412 302 303
3 404 415 413
3 404 406 415
3 406 176 415
3 406 169 176
3 413 296 297
3 413 415 296
3 415 177 296
3 415 176 177
3 416 417 418
3 416 419 417
3 419 414 417
3 419 411 414
3 418 420 421
3 418 417 420
3 417 303 420
3 417 414 303
3 416 422 419
3 416 423 422
3 423 424 422
3 423 425 424
3 419 410 411
3 419 422 410
3 422 401 410
3 422 424 401
3 416 426 423
3 416 427 426
3 427 428 426
3 427 429 428
3 423 430 425
3 423 426 430
3 426 431 430
3 426 428 431
3 416 432 427
3 416 418 432
3 418 433 432
3 418 421 433
3 427 434 429
3 427 432 434
3 432 435 434
3 432 433 435
3 436 437 438
3 436 439 437
3 439 434 437
3 439 429 434
3 438 440 441
3 438 437 440
3 437 435 440
3 437 434 435
3 436 442 439
3 436 443 442
3 443 444 442
3 443 445 444
3 439 428 429
3 439 442 428
3 442 431 428
3 442 444 431
3 436 446 443
3 436 447 446
3 447 448 446
3 447 449 448
3 443 450 445
3 443 446 450
3 446 451 450
3 446 448 451
3 436 452 447
3 436 438 452
3 438 453 452
3 438 441 453
3 447 454 449
3 447 452 454
3 452 455 454
3 452 453 455
3 456 457 458
3 456 459 457
3 459 400 457
3 459 395 400
3 458 424 425
3 458 457 424
3 457 401 424
3 457 400 401
3 456 460 459
3 456 461 460
3 461 462 460
3 461 463 462
3 459 394 395
3 459 460 394
3 460 385 394
3 460 462 385
3 456 464 461
3 456 465 464
3 465 466 464
3 465 467 466
3 461 468 463
3 461 464 468
3 464 469 468
3 464 466 469
3 456 470 465
3 456 458 470
3 458 430 470
3 458 425 430
3 465 471 467
3 465 470 471
3 470 431 471
3 470 430 431
3 472 473 474
3 472 475 473
3 475 471 473
3 475 467 471
3 474 444 445
3 474 473 444
3 473 431 444
3 473 471 431
3 472 476 475
3 472 477 476
3 477 478 476
3 477 479 478
3 475 466 467
3 475 476 466
3 476 469 466
3 476 478 469
3 472 480 477
3 472 481 480
3 481 482 480
3 481 483 482
3 477 484 479
3 477 480 484
3 480 485 484
3 480 482 485
3 472 486 481
3 472 474 486
3 474 450 486
3 474 445 450
3 481 487 483
3 481 486 487
3 486 451 487
3 486 450 451
3 488 489 490
3 488 491 489
3 491 384 489
3 491 379 384
3 490 462 463
3 490 489 462
3 489 385 462
3 489 384 385
3 488 492 491
3 488 493 492
3 493 494 492
3 493 495 494
3 491 378 379
3 491 492 378
3 492 369 378
3 492 494 369
3 488 496 493
3 488 497 496
3 497 498 496
3 497 499 498
3 493 500 495
3 493 496 500
3 496 501 500
3 496 498 501
3 488 502 497
3 488 490 502
3 490 468 502
3 490 463 468
3 497 503 499
3 497 502 503
3 502 469 503
3 502 468 469
3 504 505 506
3 504 507 505
3 507 503 505
3 507 499 503
3 506 478 479
3 506 505 478
3 505 469 478
3 505 503 469
3 504 508 507
3 504 509 508
3 509 510 508
3 509 511 510
3 507 498 499
3 507 508 498
3 508 501 498
3 508 510 501
3 504 512 509
3 504 513 512
3 513 514 512
3 513 515 514
3 509 516 511
3 509 512 516
3 512 517 516
3 512 514 517
3 504 518 513
3 504 506 518
3 506 484 518
3 506 479 484
3 513 519 515
3 513 518 519
3 518 485 519
3 518 484 485
3 520 521 522
3 520 523 521
3 523 368 521
3 523 363 368
3 522 494 495
3 522 521 494
3 521 369 494
3 521 368 369
3 520 524 523
3 520 525 524
3 525 526 524
3 525 527 526
3 523 362 363
3 523 524 362
3 524 353 362
3 524 526 353
3 520 528 525
3 520 529 528
3 529 530 528
3 529 531 530
3 525 532 527
3 525 528 532
3 528 533 532
3 528 530 533
3 520 534 529
3 520 522 534
3 522 500 534
3 522 495 500
3 529 535 531
3 529 534 535
3 534 501 535
3 534 500 501
3 536 537 538
3 536 539 537
3 539 535 537
3 539 531 535
3 538 510 511
3 538 537 510
3 537 501 510
3 537 535 501
3 536 540 539
3 536 541 540
3 541 542 540
3 541 543 542
3 539 530 531
3 539 540 530
3 540 533 530
3 540 542 533
3 536 544 541
3 536 545 544
3 545 546 544
3 545 547 546
3 541 548 543
3 541 544 548
3 544 549 548
3 544 546 549
3 536 550 545
3 536 538 550
3 538 516 550
3 538 511 516
3 545 551 547
3 545 550 551
3 550 517 551
3 550 516 517
3 552 553 554
3 552 555 553
3 555 352 553
3 555 347 352
3 554 526 527
3 554 553 526
3 553 353 526
3 553 352 353
3 552 556 555
3 552 557 556
3 557 558 556
3 557 559 558
3 555 346 347
3 555 556 346
3 556 337 346
3 556 558 337
3 552 560 557
3 552 561 560
3 561 562 560
3 561 563 562
3 557 564 559
3 557 560 564
3 560 565 564
3 560 562 565
3 552 566 561
3 552 554 566
3 554 532 566
3 554 527 532
3 561 567 563
3 561 566 567
3 566 533 567
3 566 532 533
3 568 569 570
3 568 571 569
3 571 567 569
3 571 563 567
3 570 542 543
3 570 569 542
3 569 533 542
3 569 567 533
3 568 572 571
3 568 573 572
3 573 574 572
3 573 575 574
3 571 562 563
3 571 572 562
3 572 565 562
3 572 574 565
3 568 576 573
3 568 577 576
3 577 578 576
3 577 579 578
3 573 580 575
3 573 576 580
3 576 581 580
3 576 578 581
3 568 582 577
3 568 570 582
3 570 548 582
3 570 543 548
3 577 583 579
3 577 582 583
3 582 549 583
3 582 548 549
3 584 585 586
3 584 587 585
3 587 336 585
3 587 331 336
3 586 558 559
3 586 585 558
3 585 337 558
3 585 336 337
3 584 588 587
3 584 589 588
3 589 590 588
3 589 591 590
3 587 330 331
3 587 588 330
3 588 321 330
3 588 590 321
3 584 592 589
3 584 593 592
3 593 594 592
3 593 595 594
3 589 596 591
3 589 592 596
3 592 597 596
3 592 594 597
3 584 598 593
3 584 586 598
3 586 564 598
3 586 559 564
3 593 599 595
3 593 598 599
3 598 565 599
3 598 564 565
3 600 601 602
3 600 603 601
3 603 599 601
3 603 595 599
3 602 574 575
3 602 601 574
3 601 565 574
3 601 599 565
3 600 604 603
3 600 605 604
3 605 606 604
3 605 607 606
3 603 594 595
3 603 604 594
3 604 597 594
3 604 606 597
3 600 608 605
3 600 609 608
3 609 610 608
3 609 611 610
3 605 612 607
3 605 608 612
3 608 613 612
3 608 610 613
3 600 614 609
3 600 602 614
3 602 580 614
3 602 575 580
3 609 615 611
3 609 614 615
3 614 581 615
3 614 580 581
3 616 617 618
3 616 619 617
3 619 320 617
3 619 315 320
3 618 590 591
3 618 617 590
3 617 321 590
3 617 320 321
3 616 620 619
3 616 621 620
3 621 622 620
3 621 623 622
3 619 314 315
3 619 620 314
3 620 307 314
3 620 622 307
3 616 624 621
3 616 625 624
3 625 626 624
3 625 627 626
3 621 628 623
3 621 624 628
3 624 629 628
3 624 626 629
3 616 630 625
3 616 618 630
3 618 596 630
3 618 591 596
3 625 631 627
3 625 630 631
3 630 597 631
3 630 596 597
3 632 633 634
3 632 635 633
3 635 631 633
3 635 627 631
3 634 606 607
3 634 633 606
3 633 597 606
3 633 631 597
3 632 636 635
3 632 637 636
3 637 638 636
3 637 639 638
3 635 626 627
3 635 636 626
3 636 629 626
3 636 638 629
3 632 640 637
3 632 641 640
3 641 642 640
3 641 643 642
3 637 644 639
3 637 640 644
3 640 645 644
3 640 642 645
3 632 646 641
3 632 634 646
3 634 612 646
3 634 607 612
3 641 647 643
3 641 646 647
3 646 613 647
3 646 612 613
3 648 649 650
3 648 651 649
3 651 420 649
3 651 421 420
3 650 300 301
3 650 649 300
3 649 303 300
3 649 420 303
3 648 652 651
3 648 653 652
3 653 654 652
3 653 655 654
3 651 433 421
3 651 652 433
3 652 435 433
3 652 654 435
3 648 656 653
3 648 657 656
3 657 628 656
3 657 623 628
3 653 658 655
3 653 656 658
3 656 629 658
3 656 628 629
3 648 659 657
3 648 650 659
3 650 306 659
3 650 301 306
3 657 622 623
3 657 659 622
3 659 307 622
3 659 306 307
3 660 661 662
3 660 663 661
3 663 440 661
3 663 441 440
3 662 654 655
3 662 661 654
3 661 435 654
3 661 440 435
3 660 664 663
3 660 665 664
3 665 666 664
3 665 667 666
3 663 453 441
3 663 664 453
3 664 455 453
3 664 666 455
3 660 668 665
3 660 669 668
3 669 644 668
3 669 639 644
3 665 670 667
3 665 668 670
3 668 645 670
3 668 644 645
3 660 671 669
3 660 662 671
3 662 658 671
3 662 655 658
3 669 638 639
3 669 671 638
3 671 629 638
3 671 658 629
