ply
format ascii 1.0
element vertex 672
property float x
property float y
property float z
property float nx
property float ny
property float nz
property float u
property float v
element face 1280
property list uchar int vertex_indices
end_header
-2.929641 0.038375 2.058124 0 1 0 0 0
-2.928133 0.038375 2.059312 0 1 0 0 0
-2.927941 0.038375 2.059025 0 1 0 0 0
-2.929772 0.038375 2.058442 0 1 0 0 0
-2.928333 0.038375 2.059611 0 1 0 0 0
-2.92991 0.038375 2.058774 0 1 0 0 0
-2.926695 0.038375 2.06048 0 1 0 0 0
-2.926451 0.038375 2.060236 0 1 0 0 0
-2.92695 0.038375 2.060735 0 1 0 0 0
-2.931547 0.038375 2.057897 0 1 0 0 0
-2.93148 0.038375 2.057559 0 1 0 0 0
-2.93339 0.038375 2.057707 0 1 0 0 0
-2.93339 0.038375 2.057362 0 1 0 0 0
-2.931617 0.038375 2.058251 0 1 0 0 0
-2.93339 0.038375 2.058067 0 1 0 0 0
-2.931419 0.038375 2.057252 0 1 0 0 0
-2.929521 0.038375 2.057834 0 1 0 0 0
-2.931367 0.038375 2.056992 0 1 0 0 0
-2.929419 0.038375 2.057589 0 1 0 0 0
-2.93339 0.038375 2.057048 0 1 0 0 0
-2.93339 0.038375 2.056782 0 1 0 0 0
-2.927767 0.038375 2.058765 0 1 0 0 0
-2.926229 0.038375 2.060014 0 1 0 0 0
-2.927619 0.038375 2.058544 0 1 0 0 0
-2.926041 0.038375 2.059826 0 1 0 0 0
-2.924339 0.038375 2.063426 0 1 0 0 0
-2.925527 0.038375 2.061917 0 1 0 0 0
-2.924657 0.038375 2.063557 0 1 0 0 0
-2.925241 0.038375 2.061726 0 1 0 0 0
-2.925827 0.038375 2.062118 0 1 0 0 0
-2.92499 0.038375 2.063695 0 1 0 0 0
-2.92498 0.038375 2.061552 0 1 0 0 0
-2.92405 0.038375 2.063306 0 1 0 0 0
-2.924759 0.038375 2.061404 0 1 0 0 0
-2.923804 0.038375 2.063204 0 1 0 0 0
-2.923467 0.038375 2.065204 0 1 0 0 0
-2.923774 0.038375 2.065265 0 1 0 0 0
-2.923263 0.038375 2.067174 0 1 0 0 0
-2.923577 0.038375 2.067174 0 1 0 0 0
-2.923207 0.038375 2.065152 0 1 0 0 0
-2.922997 0.038375 2.067174 0 1 0 0 0
-2.924113 0.038375 2.065332 0 1 0 0 0
-2.924466 0.038375 2.065402 0 1 0 0 0
-2.923922 0.038375 2.067174 0 1 0 0 0
-2.924283 0.038375 2.067174 0 1 0 0 0
-2.924339 0.038375 2.070924 0 1 0 0 0
-2.924113 0.038375 2.069017 0 1 0 0 0
-2.924657 0.038375 2.070792 0 1 0 0 0
-2.923774 0.038375 2.069084 0 1 0 0 0
-2.924466 0.038375 2.068947 0 1 0 0 0
-2.92499 0.038375 2.070654 0 1 0 0 0
-2.923467 0.038375 2.069145 0 1 0 0 0
-2.92405 0.038375 2.071043 0 1 0 0 0
-2.923207 0.038375 2.069197 0 1 0 0 0
-2.923804 0.038375 2.071145 0 1 0 0 0
-2.92498 0.038375 2.072797 0 1 0 0 0
-2.925241 0.038375 2.072623 0 1 0 0 0
-2.926229 0.038375 2.074335 0 1 0 0 0
-2.926451 0.038375 2.074113 0 1 0 0 0
-2.924759 0.038375 2.072945 0 1 0 0 0
-2.926041 0.038375 2.074523 0 1 0 0 0
-2.925527 0.038375 2.072432 0 1 0 0 0
-2.925827 0.038375 2.072231 0 1 0 0 0
-2.926695 0.038375 2.073869 0 1 0 0 0
-2.92695 0.038375 2.073614 0 1 0 0 0
-2.929641 0.038375 2.076226 0 1 0 0 0
-2.928133 0.038375 2.075037 0 1 0 0 0
-2.929772 0.038375 2.075907 0 1 0 0 0
-2.927941 0.038375 2.075324 0 1 0 0 0
-2.928333 0.038375 2.074738 0 1 0 0 0
-2.92991 0.038375 2.075574 0 1 0 0 0
-2.927767 0.038375 2.075584 0 1 0 0 0
-2.929521 0.038375 2.076514 0 1 0 0 0
-2.927619 0.038375 2.075805 0 1 0 0 0
-2.929419 0.038375 2.07676 0 1 0 0 0
-2.931419 0.038375 2.077097 0 1 0 0 0
-2.93148 0.038375 2.07679 0 1 0 0 0
-2.93339 0.038375 2.077301 0 1 0 0 0
-2.93339 0.038375 2.076988 0 1 0 0 0
-2.931367 0.038375 2.077357 0 1 0 0 0
-2.93339 0.038375 2.077567 0 1 0 0 0
-2.931547 0.038375 2.076452 0 1 0 0 0
-2.931617 0.038375 2.076098 0 1 0 0 0
-2.93339 0.038375 2.076643 0 1 0 0 0
-2.93339 0.038375 2.076282 0 1 0 0 0
-2.937139 0.038375 2.076226 0 1 0 0 0
-2.935232 0.038375 2.076452 0 1 0 0 0
-2.937007 0.038375 2.075907 0 1 0 0 0
-2.935299 0.038375 2.07679 0 1 0 0 0
-2.935162 0.038375 2.076098 0 1 0 0 0
-2.936869 0.038375 2.075574 0 1 0 0 0
-2.93536 0.038375 2.077097 0 1 0 0 0
-2.937258 0.038375 2.076514 0 1 0 0 0
-2.935412 0.038375 2.077357 0 1 0 0 0
-2.93736 0.038375 2.07676 0 1 0 0 0
-2.939013 0.038375 2.075584 0 1 0 0 0
-2.938838 0.038375 2.075324 0 1 0 0 0
-2.94055 0.038375 2.074335 0 1 0 0 0
-2.940329 0.038375 2.074113 0 1 0 0 0
-2.93916 0.038375 2.075805 0 1 0 0 0
-2.940738 0.038375 2.074523 0 1 0 0 0
-2.938647 0.038375 2.075037 0 1 0 0 0
-2.938447 0.038375 2.074738 0 1 0 0 0
-2.940084 0.038375 2.073869 0 1 0 0 0
-2.939829 0.038375 2.073614 0 1 0 0 0
-2.942441 0.038375 2.070924 0 1 0 0 0
-2.941252 0.038375 2.072432 0 1 0 0 0
-2.942122 0.038375 2.070792 0 1 0 0 0
-2.941539 0.038375 2.072623 0 1 0 0 0
-2.940953 0.038375 2.072231 0 1 0 0 0
-2.94179 0.038375 2.070654 0 1 0 0 0
-2.941799 0.038375 2.072797 0 1 0 0 0
-2.94273 0.038375 2.071043 0 1 0 0 0
-2.94202 0.038375 2.072945 0 1 0 0 0
-2.942975 0.038375 2.071145 0 1 0 0 0
-2.943312 0.038375 2.069145 0 1 0 0 0
-2.943005 0.038375 2.069084 0 1 0 0 0
-2.943516 0.038375 2.067174 0 1 0 0 0
-2.943203 0.038375 2.067174 0 1 0 0 0
-2.943573 0.038375 2.069197 0 1 0 0 0
-2.943782 0.038375 2.067174 0 1 0 0 0
-2.942667 0.038375 2.069017 0 1 0 0 0
-2.942313 0.038375 2.068947 0 1 0 0 0
-2.942858 0.038375 2.067174 0 1 0 0 0
-2.942497 0.038375 2.067174 0 1 0 0 0
-2.942441 0.038375 2.063426 0 1 0 0 0
-2.942667 0.038375 2.065332 0 1 0 0 0
-2.942122 0.038375 2.063557 0 1 0 0 0
-2.943005 0.038375 2.065265 0 1 0 0 0
-2.942313 0.038375 2.065402 0 1 0 0 0
-2.94179 0.038375 2.063695 0 1 0 0 0
-2.943312 0.038375 2.065204 0 1 0 0 0
-2.94273 0.038375 2.063306 0 1 0 0 0
-2.943573 0.038375 2.065152 0 1 0 0 0
-2.942975 0.038375 2.063204 0 1 0 0 0
-2.941799 0.038375 2.061552 0 1 0 0 0
-2.941539 0.038375 2.061726 0 1 0 0 0
-2.94055 0.038375 2.060014 0 1 0 0 0
-2.940329 0.038375 2.060236 0 1 0 0 0
-2.94202 0.038375 2.061404 0 1 0 0 0
-2.940738 0.038375 2.059826 0 1 0 0 0
-2.941252 0.038375 2.061917 0 1 0 0 0
-2.940953 0.038375 2.062118 0 1 0 0 0
-2.940084 0.038375 2.06048 0 1 0 0 0
-2.939829 0.038375 2.060735 0 1 0 0 0
-2.937139 0.038375 2.058124 0 1 0 0 0
-2.93536 0.038375 2.057252 0 1 0 0 0
-2.937258 0.038375 2.057834 0 1 0 0 0
-2.935299 0.038375 2.057559 0 1 0 0 0
-2.935412 0.038375 2.056992 0 1 0 0 0
-2.93736 0.038375 2.057589 0 1 0 0 0
-2.935232 0.038375 2.057897 0 1 0 0 0
-2.937007 0.038375 2.058442 0 1 0 0 0
-2.935162 0.038375 2.058251 0 1 0 0 0
-2.936869 0.038375 2.058774 0 1 0 0 0
-2.938647 0.038375 2.059312 0 1 0 0 0
-2.938838 0.038375 2.059025 0 1 0 0 0
-2.938447 0.038375 2.059611 0 1 0 0 0
-2.939013 0.038375 2.058765 0 1 0 0 0
-2.93916 0.038375 2.058544 0 1 0 0 0
-2.937574 0.03832 2.057076 -0.073000565 0.981607598 -0.176401365 0 0
-2.939273 0.038375 2.058376 -0.0451023271 0.996651424 -0.0682035191 0 0
-2.937437 0.038375 2.057402 -0.0313016982 0.99665407 -0.0755040962 0 0
-2.939471 0.03832 2.058082 -0.10519731 0.981674899 -0.158895937 0 0
-2.940881 0.038375 2.059683 -0.0578027512 0.996647437 -0.0579027559 0 0
-2.941134 0.03832 2.059433 -0.13450388 0.981728323 -0.134603883 0 0
-2.939877 0.038155 2.057485 -0.129796882 0.971976653 -0.195995292 0 0
-2.937854 0.038155 2.056412 -0.0900974151 0.971872117 -0.217593757 0 0
-2.940612 0.037824 2.056406 -0.137899297 0.968295067 -0.208298939 0 0
-2.938359 0.037824 2.055211 -0.0956988913 0.968188784 -0.231197322 0 0
-2.941651 0.038155 2.058926 -0.165803508 0.972120565 -0.165803508 0 0
-2.942587 0.037824 2.058011 -0.176095606 0.968475837 -0.176195604 0 0
-2.935663 0.038155 2.05574 -0.0469021186 0.971843899 -0.23091043 0 0
-2.935521 0.03832 2.056446 -0.0380002096 0.981605414 -0.187101032 0 0
-2.93339 0.038155 2.055504 0 0.971875771 -0.235494129 0 0
-2.93339 0.03832 2.056225 0 0.9815904 -0.190998132 0 0
-2.935921 0.037824 2.054463 -0.0498032438 0.968163059 -0.245315978 0 0
-2.93339 0.037824 2.054201 0 0.968194539 -0.250198589 0 0
-2.935451 0.038375 2.056793 -0.0163007393 0.996645204 -0.0802036377 0 0
-2.93339 0.038375 2.05658 0 0.996623934 -0.0821019717 0 0
-2.943492 0.03832 2.062994 -0.17520902 0.981850547 -0.0726037377 0 0
-2.943771 0.038375 2.065113 -0.079698987 0.996687332 -0.0161997941 0 0
-2.943162 0.038375 2.063127 -0.075099086 0.99668787 -0.0311996203 0 0
-2.944121 0.03832 2.065047 -0.185407225 0.981938267 -0.0377014693 0 0
-2.943985 0.038375 2.067174 -0.081299163 0.996689739 -9.99989705e-05 0 0
-2.944342 0.03832 2.067178 -0.188706444 0.982033537 -0.000100003415 0 0
-2.944838 0.038155 2.064914 -0.228318767 0.972479936 -0.0464038143 0 0
-2.944166 0.038155 2.062724 -0.215901042 0.972304691 -0.0895004318 0 0
-2.946135 0.037824 2.064677 -0.242499521 0.968898086 -0.0492999026 0 0
-2.945387 0.037824 2.062239 -0.229301928 0.968708147 -0.095000799 0 0
-2.945074 0.038155 2.067188 -0.232192787 0.972669784 0 0 0
-2.946397 0.037824 2.067209 -0.246510223 0.969140191 0 0 0
-2.943093 0.038155 2.0607 -0.195200549 0.972202737 -0.129300364 0 0
-2.942485 0.03832 2.061096 -0.158397956 0.98178733 -0.104898646 0 0
-2.944191 0.037824 2.059986 -0.207391758 0.96856151 -0.13739454 0 0
-2.942188 0.038375 2.061292 -0.067905196 0.996676264 -0.0450034436 0 0
-2.943492 0.03832 2.071362 -0.173712012 0.982167914 0.071904972 0 0
-2.942188 0.038375 2.073057 -0.0673026777 0.996739656 0.0445017705 0 0
-2.943162 0.038375 2.071222 -0.0746025791 0.996734458 0.0309010683 0 0
-2.942485 0.03832 2.073259 -0.156408599 0.982254001 0.10350569 0 0
-2.940881 0.038375 2.074666 -0.0571019498 0.996734034 0.0571019498 0 0
-2.941134 0.03832 2.074923 -0.132403552 0.982326356 0.13230355 0 0
-2.943093 0.038155 2.073676 -0.19230831 0.973042046 0.127305501 0 0
-2.944166 0.038155 2.071652 -0.21369822 0.972891896 0.0883992636 0 0
-2.944191 0.037824 2.074431 -0.204000799 0.969603796 0.135100529 0 0
-2.945387 0.037824 2.072178 -0.226800929 0.96940397 0.0939003845 0 0
-2.941651 0.038155 2.07545 -0.162602988 0.973217883 0.162502986 0 0
-2.942587 0.037824 2.076406 -0.172497883 0.969788101 0.172497883 0 0
-2.944838 0.038155 2.069462 -0.227117613 0.972775437 0.0461035752 0 0
-2.944122 0.03832 2.069309 -0.184503744 0.982119927 0.0374007589 0 0
-2.946135 0.037824 2.069739 -0.241115786 0.96926346 0.0489032018 0 0
-2.943771 0.038375 2.069236 -0.079301642 0.996720637 0.0161003334 0 0
-2.937574 0.03832 2.07728 -0.0714995435 0.982393727 0.172598898 0 0
-2.935451 0.038375 2.077556 -0.0160009895 0.996761637 0.078804873 0 0
-2.937437 0.038375 2.076946 -0.0307990064 0.996767845 0.0741976064 0 0
-2.935521 0.03832 2.07791 -0.0372010043 0.982426521 0.182904938 0 0
-2.93339 0.038375 2.077769 0 0.996746225 0.0806037381 0 0
-2.93339 0.03832 2.07813 0 0.982453049 0.186510071 0 0
-2.935663 0.038155 2.078636 -0.0456990584 0.973379944 0.224595372 0 0
-2.937854 0.038155 2.077965 -0.0878988701 0.973287488 0.212097274 0 0
-2.935921 0.037824 2.079953 -0.0483992873 0.969985717 0.238296491 0 0
-2.938359 0.037824 2.079206 -0.0931991962 0.969891635 0.224998059 0 0
-2.93339 0.038155 2.078872 0 0.973425037 0.22900589 0 0
-2.93339 0.037824 2.080216 0 0.970048305 0.242912096 0 0
-2.939877 0.038155 2.076891 -0.12690672 0.973251535 0.191510141 0 0
-2.939471 0.03832 2.076273 -0.103198264 0.982383476 0.15579738 0 0
-2.940612 0.037824 2.07801 -0.134605422 0.969839066 0.203208185 0 0
-2.939273 0.038375 2.075973 -0.0444025608 0.996757485 0.06710387 0 0
-2.929205 0.03832 2.07728 0.0714995435 0.982393727 0.172598898 0 0
-2.927507 0.038375 2.075973 0.0444025608 0.996757485 0.06710387 0 0
-2.929342 0.038375 2.076946 0.0307990064 0.996767845 0.0741976064 0 0
-2.927308 0.03832 2.076273 0.103198264 0.982383476 0.15579738 0 0
-2.925898 0.038375 2.074666 0.0571019498 0.996734034 0.0571019498 0 0
-2.925645 0.03832 2.074923 0.132403552 0.982326356 0.13230355 0 0
-2.926902 0.038155 2.076891 0.12690672 0.973251535 0.191510141 0 0
-2.928926 0.038155 2.077965 0.0878988701 0.973287488 0.212097274 0 0
-2.926167 0.037824 2.07801 0.134605422 0.969839066 0.203208185 0 0
-2.92842 0.037824 2.079206 0.0931991962 0.969891635 0.224998059 0 0
-2.925128 0.038155 2.07545 0.162602988 0.973217883 0.162502986 0 0
-2.924192 0.037824 2.076406 0.172497883 0.969788101 0.172497883 0 0
-2.931116 0.038155 2.078636 0.0456990584 0.973379944 0.224595372 0 0
-2.931258 0.03832 2.07791 0.0372010043 0.982426521 0.182904938 0 0
-2.930859 0.037824 2.079953 0.0483992873 0.969985717 0.238296491 0 0
-2.931328 0.038375 2.077556 0.0160009895 0.996761637 0.078804873 0 0
-2.923288 0.03832 2.071362 0.173712012 0.982167914 0.071904972 0 0
-2.923008 0.038375 2.069236 0.079401014 0.996712728 0.0161002056 0 0
-2.923618 0.038375 2.071222 0.0746025791 0.996734458 0.0309010683 0 0
-2.922658 0.03832 2.069309 0.184600339 0.982101802 0.0374000686 0 0
-2.922795 0.038375 2.067174 0.0812991634 0.996689744 0 0 0
-2.922437 0.03832 2.067178 0.188706444 0.982033537 -0.000100003415 0 0
-2.921941 0.038155 2.069462 0.227117613 0.972775437 0.0461035752 0 0
-2.922613 0.038155 2.071652 0.21369822 0.972891896 0.0883992636 0 0
-2.920645 0.037824 2.069739 0.241115786 0.96926346 0.0489032018 0 0
-2.921392 0.037824 2.072178 0.226800929 0.96940397 0.0939003845 0 0
-2.921706 0.038155 2.067188 0.232192787 0.972669784 0 0 0
-2.920382 0.037824 2.067209 0.246510223 0.969140191 0 0 0
-2.923687 0.038155 2.073676 0.19230831 0.973042046 0.127305501 0 0
-2.924294 0.03832 2.073259 0.156408599 0.982254001 0.10350569 0 0
-2.922588 0.037824 2.074431 0.204000799 0.969603796 0.135100529 0 0
-2.924591 0.038375 2.073057 0.0673026777 0.996739656 0.0445017705 0 0
-2.923288 0.03832 2.062994 0.17520902 0.981850547 -0.0726037377 0 0
-2.924591 0.038375 2.061292 0.067905196 0.996676264 -0.0450034436 0 0
-2.923618 0.038375 2.063127 0.075099086 0.99668787 -0.0311996203 0 0
-2.924294 0.03832 2.061096 0.158397956 0.98178733 -0.104898646 0 0
-2.925898 0.038375 2.059683 0.0578027512 0.996647437 -0.0579027559 0 0
-2.925645 0.03832 2.059433 0.13450388 0.981728323 -0.134603883 0 0
-2.923687 0.038155 2.0607 0.195200549 0.972202737 -0.129300364 0 0
-2.922613 0.038155 2.062724 0.215901042 0.972304691 -0.0895004318 0 0
-2.922588 0.037824 2.059986 0.20729606 0.968581592 -0.137397389 0 0
-2.921392 0.037824 2.062239 0.229301928 0.968708147 -0.095000799 0 0
-2.925128 0.038155 2.058926 0.165803508 0.972120565 -0.165803508 0 0
-2.924192 0.037824 2.058011 0.176095606 0.968475837 -0.176195604 0 0
-2.921941 0.038155 2.064914 0.228318767 0.972479936 -0.0464038143 0 0
-2.922658 0.03832 2.065047 0.185407225 0.981938267 -0.0377014693 0 0
-2.920645 0.037824 2.064677 0.242499521 0.968898086 -0.0492999026 0 0
-2.923008 0.038375 2.065113 0.0795996223 0.996695271 -0.0161999231 0 0
-2.929205 0.03832 2.057076 0.073000565 0.981607598 -0.176401365 0 0
-2.927507 0.038375 2.058376 0.0451026345 0.996658217 -0.0681039781 0 0
-2.927308 0.03832 2.058082 0.10519731 0.981674899 -0.158895937 0 0
-2.929342 0.038375 2.057402 0.0313016982 0.99665407 -0.0755040962 0 0
-2.931328 0.038375 2.056793 0.0163007393 0.996645204 -0.0802036377 0 0
-2.931258 0.03832 2.056446 0.0380002096 0.981605414 -0.187101032 0 0
-2.931116 0.038155 2.05574 0.0469021186 0.971843899 -0.23091043 0 0
-2.928926 0.038155 2.056412 0.090106172 0.97186657 -0.217614906 0 0
-2.930859 0.037824 2.054463 0.0498032438 0.968163059 -0.245315978 0 0
-2.92842 0.037824 2.055211 0.0957979729 0.968179514 -0.231195108 0 0
-2.926902 0.038155 2.057485 0.129794338 0.971957599 -0.196091446 0 0
-2.926167 0.037824 2.056406 0.137899297 0.968295067 -0.208298939 0 0
-2.926637 0.036605 2.050982 0.100302712 0.96502609 -0.242206548 0 0
-2.924982 0.037273 2.054668 0.141407652 0.966652312 -0.213511554 0 0
-2.923576 0.036605 2.052606 0.144411771 0.965178675 -0.21811778 0 0
-2.927605 0.037273 2.053277 0.0982008887 0.966508747 -0.237102146 0 0
-2.922683 0.037273 2.056536 0.180509129 0.9668489 -0.180609135 0 0
-2.920893 0.036605 2.054786 0.184396241 0.965380321 -0.184496239 0 0
-2.930443 0.037273 2.052406 0.0510990797 0.966482594 -0.251595469 0 0
-2.929951 0.036605 2.049966 0.0522013716 0.965025356 -0.25690675 0 0
-2.93339 0.037273 2.052101 0 0.966541321 -0.256510966 0 0
-2.93339 0.036605 2.04961 0 0.965070078 -0.261991877 0 0
-2.929461 0.035925 2.047538 0.0538024015 0.962742973 -0.265011829 0 0
-2.925675 0.035925 2.048699 0.103406055 0.962756376 -0.249814628 0 0
-2.929053 0.035335 2.045521 0.0579020356 0.956833638 -0.284810013 0 0
-2.924875 0.035335 2.046802 0.111108444 0.95687272 -0.268420399 0 0
-2.93339 0.035925 2.047131 0 0.96277789 -0.270293793 0 0
-2.93339 0.035335 2.045072 0 0.956868663 -0.290520847 0 0
-2.922178 0.035925 2.050555 0.14899982 0.96289884 -0.224999729 0 0
-2.919111 0.035925 2.053046 0.19020459 0.96312324 -0.190304592 0 0
-2.921015 0.035335 2.04885 0.160104143 0.957024763 -0.241806257 0 0
-2.917631 0.035335 2.051599 0.204508871 0.957241521 -0.204608875 0 0
-2.917089 0.036605 2.060531 0.240202444 0.965609825 -0.0995010124 0 0
-2.920816 0.037273 2.058835 0.21260861 0.966939157 -0.140805702 0 0
-2.919424 0.037273 2.061458 0.235117897 0.967073612 -0.0974074144 0 0
-2.918713 0.036605 2.05747 0.217099881 0.965499469 -0.143799921 0 0
-2.916621 0.035925 2.056112 0.224005287 0.963222732 -0.148403502 0 0
-2.914765 0.035925 2.059609 0.247721188 0.963382402 -0.102608777 0 0
-2.914882 0.035335 2.054983 0.240795226 0.95738102 -0.159496838 0 0
-2.912834 0.035335 2.058843 0.266221994 0.957579109 -0.110309113 0 0
-2.913604 0.035925 2.063395 0.261905571 0.963620496 -0.0533011337 0 0
-2.916072 0.036605 2.063844 0.253913025 0.965849545 -0.051602647 0 0
-2.913197 0.035925 2.067324 0.266204572 0.963916555 0 0 0
-2.915716 0.036605 2.067283 0.25810454 0.966116994 0 0 0
-2.911553 0.035335 2.063021 0.28151479 0.957850322 -0.0572030052 0 0
-2.911104 0.035335 2.067358 0.286191746 0.958172367 0 0 0
-2.918554 0.037273 2.064296 0.248597328 0.967289602 -0.0504994571 0 0
-2.918249 0.037273 2.067242 0.252710925 0.967541828 0 0 0
-2.917089 0.036605 2.074035 0.237405863 0.966423866 0.0983024276 0 0
-2.918554 0.037273 2.070189 0.247098553 0.967694334 0.0500997067 0 0
-2.919424 0.037273 2.073027 0.232503862 0.967816076 0.0963015996 0 0
-2.916072 0.036605 2.070722 0.252416453 0.966262983 0.0512033375 0 0
-2.913604 0.035925 2.071253 0.260414063 0.96405206 0.0528028514 0 0
-2.914765 0.035925 2.075038 0.244907395 0.964229115 0.101403062 0 0
-2.911553 0.035335 2.071694 0.279912717 0.958343538 0.0568025806 0 0
-2.912834 0.035335 2.075872 0.263309198 0.958533482 0.109003808 0 0
-2.916621 0.035925 2.078536 0.22031253 0.96445485 0.145908298 0 0
-2.918713 0.036605 2.077096 0.213606998 0.966631667 0.141404632 0 0
-2.919111 0.035925 2.081602 0.186297744 0.964688318 0.186197745 0 0
-2.920893 0.036605 2.07978 0.180609135 0.9668489 0.180509129 0 0
-2.914882 0.035335 2.079732 0.236899373 0.958797464 0.156799585 0 0
-2.917631 0.035335 2.083116 0.200311906 0.959057003 0.2002119 0 0
-2.920816 0.037273 2.07565 0.209107417 0.968034337 0.138504913 0 0
-2.922683 0.037273 2.077949 0.17680639 0.968234993 0.17680639 0 0
-2.926637 0.036605 2.083584 0.0975067228 0.96696667 0.235516238 0 0
-2.924982 0.037273 2.079816 0.137899297 0.968295067 0.208298939 0 0
-2.927605 0.037273 2.081208 0.0955047037 0.968347692 0.230611358 0 0
-2.923576 0.036605 2.08196 0.140900725 0.966904975 0.212701094 0 0
-2.922178 0.035925 2.084093 0.145293644 0.964757798 0.219390403 0 0
-2.925675 0.035925 2.085948 0.100602022 0.964819388 0.242904881 0 0
-2.921015 0.035335 2.085865 0.156209928 0.959160961 0.235814988 0 0
-2.924875 0.035335 2.087913 0.108202971 0.959226336 0.261107169 0 0
-2.929461 0.035925 2.087109 0.0523007691 0.964914189 0.257303784 0 0
-2.929951 0.036605 2.0846 0.0507022882 0.967043644 0.249511261 0 0
-2.93339 0.035925 2.087516 0 0.964987315 0.262296552 0 0
-2.93339 0.036605 2.084956 0 0.967148334 0.254212705 0 0
-2.929053 0.035335 2.089195 0.0562006233 0.959310639 0.276703069 0 0
-2.93339 0.035335 2.089643 0 0.959413259 0.282003897 0 0
-2.930444 0.037273 2.082078 0.0496014581 0.968428467 0.244307182 0 0
-2.93339 0.037273 2.082383 0 0.968527381 0.248907037 0 0
-2.940142 0.036605 2.083584 -0.0975067228 0.96696667 0.235516238 0 0
-2.936336 0.037273 2.082078 -0.0496026697 0.968452123 0.244213144 0 0
-2.939174 0.037273 2.081208 -0.0955047037 0.968347692 0.230611358 0 0
-2.936829 0.036605 2.0846 -0.0507035532 0.96706777 0.249417479 0 0
-2.937319 0.035925 2.087109 -0.0523007691 0.964914189 0.257303784 0 0
-2.941104 0.035925 2.085948 -0.100602022 0.964819388 0.242904881 0 0
-2.937726 0.035335 2.089195 -0.0562021782 0.95933718 0.27661072 0 0
-2.941904 0.035335 2.087913 -0.108202971 0.959226336 0.261107169 0 0
-2.944602 0.035925 2.084093 -0.145293644 0.964757798 0.219390403 0 0
-2.943203 0.036605 2.08196 -0.140900725 0.966904975 0.212701094 0 0
-2.947668 0.035925 2.081602 -0.186297744 0.964688318 0.186197745 0 0
-2.945887 0.036605 2.07978 -0.180609135 0.9668489 0.180509129 0 0
-2.945764 0.035335 2.085865 -0.156209928 0.959160961 0.235814988 0 0
-2.949148 0.035335 2.083116 -0.200311906 0.959057003 0.2002119 0 0
-2.941797 0.037273 2.079816 -0.137902169 0.968315232 0.208203275 0 0
-2.944096 0.037273 2.077949 -0.17680639 0.968234993 0.17680639 0 0
-2.949691 0.036605 2.074035 -0.237405863 0.966423866 0.0983024276 0 0
-2.945964 0.037273 2.07565 -0.209107417 0.968034337 0.138504913 0 0
-2.947355 0.037273 2.073027 -0.232503862 0.967816076 0.0963015996 0 0
-2.948067 0.036605 2.077096 -0.213606998 0.966631667 0.141404632 0 0
-2.950159 0.035925 2.078536 -0.22031253 0.96445485 0.145908298 0 0
-2.952014 0.035925 2.075038 -0.244907395 0.964229115 0.101403062 0 0
-2.951897 0.035335 2.079732 -0.236899373 0.958797464 0.156799585 0 0
-2.953945 0.035335 2.075872 -0.263309198 0.958533482 0.109003808 0 0
-2.953175 0.035925 2.071253 -0.260414063 0.96405206 0.0528028514 0 0
-2.950707 0.036605 2.070722 -0.252416453 0.966262983 0.0512033375 0 0
-2.953582 0.035925 2.067324 -0.266204572 0.963916555 0 0 0
-2.951063 0.036605 2.067283 -0.25810454 0.966116994 0 0 0
-2.955226 0.035335 2.071694 -0.279912717 0.958343538 0.0568025806 0 0
-2.955676 0.035335 2.067358 -0.286191746 0.958172367 0 0 0
-2.948226 0.037273 2.070189 -0.247098553 0.967694334 0.0500997067 0 0
-2.948531 0.037273 2.067242 -0.252710925 0.967541828 0 0 0
-2.949691 0.036605 2.060531 -0.240202444 0.965609825 -0.0995010124 0 0
-2.948226 0.037273 2.064296 -0.248597328 0.967289602 -0.0504994571 0 0
-2.947355 0.037273 2.061458 -0.235117897 0.967073612 -0.0974074144 0 0
-2.950707 0.036605 2.063844 -0.253913025 0.965849545 -0.051602647 0 0
-2.953175 0.035925 2.063395 -0.261905571 0.963620496 -0.0533011337 0 0
-2.952014 0.035925 2.059609 -0.247721188 0.963382402 -0.102608777 0 0
-2.955226 0.035335 2.063021 -0.28151479 0.957850322 -0.0572030052 0 0
-2.953945 0.035335 2.058843 -0.266221994 0.957579109 -0.110309113 0 0
-2.950159 0.035925 2.056112 -0.224005287 0.963222732 -0.148403502 0 0
-2.948067 0.036605 2.05747 -0.217099881 0.965499469 -0.143799921 0 0
-2.947668 0.035925 2.053046 -0.19020459 0.96312324 -0.190304592 0 0
-2.945887 0.036605 2.054786 -0.184396241 0.965380321 -0.184496239 0 0
-2.951897 0.035335 2.054983 -0.240795226 0.95738102 -0.159496838 0 0
-2.949148 0.035335 2.051599 -0.204508871 0.957241521 -0.204608875 0 0
-2.945964 0.037273 2.058835 -0.21260861 0.966939157 -0.140805702 0 0
-2.944096 0.037273 2.056536 -0.180509129 0.9668489 -0.180609135 0 0
-2.940142 0.036605 2.050982 -0.100302712 0.96502609 -0.242206548 0 0
-2.941797 0.037273 2.054668 -0.141407652 0.966652312 -0.213511554 0 0
-2.939174 0.037273 2.053277 -0.0982008887 0.966508747 -0.237102146 0 0
-2.943203 0.036605 2.052606 -0.144411771 0.965178675 -0.21811778 0 0
-2.944602 0.035925 2.050555 -0.14899982 0.96289884 -0.224999729 0 0
-2.941104 0.035925 2.048699 -0.103406055 0.962756376 -0.249814628 0 0
-2.945764 0.035335 2.04885 -0.160104143 0.957024763 -0.241806257 0 0
-2.941904 0.035335 2.046802 -0.111207215 0.956862083 -0.268417415 0 0
-2.937319 0.035925 2.047538 -0.0538024015 0.962742973 -0.265011829 0 0
-2.936829 0.036605 2.049966 -0.0522013716 0.965025356 -0.25690675 0 0
-2.937726 0.035335 2.045521 -0.0579020356 0.956833638 -0.284810013 0 0
-2.936336 0.037273 2.052406 -0.0511003651 0.966506906 -0.251501797 0 0
-2.942624 0.034658 2.045095 -0.238198144 0.782493905 -0.575295518 0 0
-2.937971 0.034941 2.04431 -0.0725006695 0.9312086 -0.357203299 0 0
-2.938093 0.034658 2.043705 -0.124004769 0.782230081 -0.610523478 0 0
-2.942384 0.034941 2.045664 -0.139396403 0.931275969 -0.336591314 0 0
-2.93339 0.034941 2.043836 0 0.931202938 -0.36450115 0 0
-2.93339 0.034658 2.043218 0 0.781989486 -0.62329162 0 0
-2.946462 0.034941 2.047827 -0.20079962 0.931498239 -0.303299427 0 0
-2.94681 0.034658 2.047316 -0.343513478 0.782830715 -0.518820356 0 0
-2.950036 0.034941 2.050731 -0.256507903 0.93182871 -0.256707909 0 0
-2.95048 0.034658 2.050297 -0.439507186 0.783312807 -0.439607188 0 0
-2.946927 0.034402 2.047146 -0.522016191 0.32661013 -0.787924438 0 0
-2.942704 0.034402 2.044905 -0.361815479 0.326413964 -0.873237358 0 0
-2.946927 0.03409 2.047146 -0.552205376 0 -0.833708116 0 0
-2.942704 0.03409 2.044905 -0.382690337 0 -0.923876672 0 0
-2.950629 0.034402 2.050153 -0.668329574 0.327014471 -0.668129565 0 0
-2.950629 0.03409 2.050153 -0.707106781 0 -0.707106781 0 0
-2.938133 0.034402 2.043503 -0.188099529 0.326199183 -0.926397679 0 0
-2.93339 0.034402 2.043012 0 0.325901308 -0.945403796 0 0
-2.938133 0.03409 2.043503 -0.198999901 0 -0.97999951 0 0
-2.93339 0.03409 2.043012 0 0 -1 0 0
-2.942704 0.03308 2.044905 -0.382690337 0 -0.923876672 0 0
-2.938133 0.033638 2.043503 -0.198999901 0 -0.97999951 0 0
-2.938133 0.03308 2.043503 -0.198999901 0 -0.97999951 0 0
-2.942704 0.033638 2.044905 -0.382690337 0 -0.923876672 0 0
-2.93339 0.033638 2.043012 0 0 -1 0 0
-2.93339 0.03308 2.043012 0 0 -1 0 0
-2.946927 0.033638 2.047146 -0.552205376 0 -0.833708116 0 0
-2.946927 0.03308 2.047146 -0.552205376 0 -0.833708116 0 0
-2.950629 0.033638 2.050153 -0.707106781 0 -0.707106781 0 0
-2.950629 0.03308 2.050153 -0.707106781 0 -0.707106781 0 0
-2.946927 0.032453 2.047146 -0.552205376 0 -0.833708116 0 0
-2.942704 0.032453 2.044905 -0.382690337 0 -0.923876672 0 0
-2.946927 0.031791 2.047146 -0.552205376 0 -0.833708116 0 0
-2.942704 0.031791 2.044905 -0.382690337 0 -0.923876672 0 0
-2.950629 0.032453 2.050153 -0.707106781 0 -0.707106781 0 0
-2.950629 0.031791 2.050153 -0.707106781 0 -0.707106781 0 0
-2.938133 0.032453 2.043503 -0.198999901 0 -0.97999951 0 0
-2.93339 0.032453 2.043012 0 0 -1 0 0
-2.938133 0.031791 2.043503 -0.199095937 0 -0.979980004 0 0
-2.93339 0.031791 2.043012 0 0 -1 0 0
-2.955683 0.034658 2.058154 -0.572618284 0.784725057 -0.237307577 0 0
-2.95294 0.034941 2.054306 -0.301997824 0.932093284 -0.199998559 0 0
-2.953462 0.034658 2.053967 -0.517337407 0.784156701 -0.342724782 0 0
-2.955104 0.034941 2.058384 -0.333897741 0.932393692 -0.138399064 0 0
-2.956457 0.034941 2.062797 -0.353196235 0.932790057 -0.0717992346 0 0
-2.957073 0.034658 2.062685 -0.606530843 0.785439941 -0.12330627 0 0
-2.956932 0.034941 2.067378 -0.359307413 0.933219252 -0.000100002063 0 0
-2.95756 0.034658 2.067388 -0.617989355 0.786186458 -9.99982775e-05 0 0
-2.957278 0.034402 2.062648 -0.925595215 0.328698301 -0.18769903 0 0
-2.955876 0.034402 2.058077 -0.8727857 0.328194623 -0.36129408 0 0
-2.957278 0.03409 2.062648 -0.97999951 0 -0.198999901 0 0
-2.955876 0.03409 2.058077 -0.923912025 0 -0.38260498 0 0
-2.957769 0.034402 2.067392 -0.944253673 0.329218713 0.000200011369 0 0
-2.957769 0.03409 2.067392 -1 0 0 0 0
-2.953636 0.034402 2.053854 -0.787703667 0.327801526 -0.521602428 0 0
-2.953636 0.03409 2.053854 -0.833708116 0 -0.552205376 0 0
-2.955876 0.03308 2.058077 -0.923912025 0 -0.38260498 0 0
-2.953636 0.033638 2.053854 -0.833708116 0 -0.552205376 0 0
-2.953636 0.03308 2.053854 -0.833708116 0 -0.552205376 0 0
-2.955876 0.033638 2.058077 -0.923912025 0 -0.38260498 0 0
-2.957278 0.033638 2.062648 -0.97999951 0 -0.198999901 0 0
-2.957278 0.03308 2.062648 -0.97999951 0 -0.198999901 0 0
-2.957769 0.033638 2.067392 -1 0 0 0 0
-2.957769 0.03308 2.067392 -1 0 0 0 0
-2.957278 0.032453 2.062648 -0.97999951 0 -0.198999901 0 0
-2.955876 0.032453 2.058077 -0.923912025 0 -0.38260498 0 0
-2.957278 0.031791 2.062648 -0.979980004 0 -0.199095937 0 0
-2.955876 0.031791 2.058077 -0.923876672 0 -0.382690337 0 0
-2.957769 0.032453 2.067392 -1 0 0 0 0
-2.957769 0.031791 2.067392 -1 0 0 0 0
-2.953636 0.032453 2.053854 -0.833708116 0 -0.552205376 0 0
-2.953636 0.031791 2.053854 -0.833708116 0 -0.552205376 0 0
-2.955683 0.034658 2.076622 -0.568817722 0.788024551 0.235507337 0 0
-2.956457 0.034941 2.071959 -0.351226803 0.933571244 0.0713054415 0 0
-2.957073 0.034658 2.072091 -0.604435947 0.787146813 0.122707298 0 0
-2.955104 0.034941 2.076372 -0.330512075 0.933834118 0.136804998 0 0
-2.95294 0.034941 2.08045 -0.297499182 0.934197431 0.196899459 0 0
-2.953462 0.034658 2.080809 -0.512333011 0.788950834 0.339221857 0 0
-2.950036 0.034941 2.084025 -0.251713166 0.934548883 0.251513156 0 0
-2.95048 0.034658 2.084479 -0.434110599 0.789419274 0.434010596 0 0
-2.953636 0.034402 2.080929 -0.78633769 0.331815904 0.521124978 0 0
-2.955876 0.034402 2.076706 -0.87174647 0.33091764 0.361319261 0 0
-2.953636 0.03409 2.080929 -0.833708116 0 0.552205376 0 0
-2.955876 0.03409 2.076706 -0.923912025 0 0.38260498 0 0
-2.950629 0.034402 2.08463 -0.666799503 0.332199753 0.667099503 0 0
-2.950629 0.03409 2.08463 -0.707106781 0 0.707106781 0 0
-2.957278 0.034402 2.072135 -0.925012664 0.330104519 0.188102575 0 0
-2.957278 0.03409 2.072135 -0.97999951 0 0.198999901 0 0
-2.955876 0.03308 2.076706 -0.923912025 0 0.38260498 0 0
-2.957278 0.033638 2.072135 -0.97999951 0 0.198999901 0 0
-2.957278 0.03308 2.072135 -0.97999951 0 0.198999901 0 0
-2.955876 0.033638 2.076706 -0.923912025 0 0.38260498 0 0
-2.953636 0.033638 2.080929 -0.833708116 0 0.552205376 0 0
-2.953636 0.03308 2.080929 -0.833708116 0 0.552205376 0 0
-2.950629 0.033638 2.08463 -0.707106781 0 0.707106781 0 0
-2.950629 0.03308 2.08463 -0.707106781 0 0.707106781 0 0
-2.953636 0.032453 2.080929 -0.833708116 0 0.552205376 0 0
-2.955876 0.032453 2.076706 -0.923876672 0 0.382690337 0 0
-2.953636 0.031791 2.080929 -0.833708116 0 0.552205376 0 0
-2.955876 0.031791 2.076706 -0.923876672 0 0.382690337 0 0
-2.950629 0.032453 2.08463 -0.707106781 0 0.707106781 0 0
-2.950629 0.031791 2.08463 -0.707106781 0 0.707106781 0 0
-2.957278 0.032453 2.072135 -0.97999951 0 0.198999901 0 0
-2.957278 0.031791 2.072135 -0.979980004 0 0.199095937 0 0
-2.942624 0.034658 2.089681 -0.234509341 0.79033148 0.566022545 0 0
-2.946462 0.034941 2.086929 -0.19619216 0.934762648 0.296188165 0 0
-2.94681 0.034658 2.08746 -0.338516002 0.790037346 0.511124161 0 0
-2.942384 0.034941 2.089092 -0.135906534 0.934844944 0.32801577 0 0
-2.937971 0.034941 2.090446 -0.070601214 0.935016078 0.347505975 0 0
-2.938093 0.034658 2.091071 -0.122004126 0.790626739 0.600020293 0 0
-2.93339 0.034941 2.09092 0 0.935094684 0.354397985 0 0
-2.93339 0.034658 2.091558 0 0.790530037 0.612423269 0 0
-2.938133 0.034402 2.09128 -0.187510514 0.333118678 0.924051813 0 0
-2.942704 0.034402 2.089878 -0.360802076 0.332901916 0.871205014 0 0
-2.938133 0.03409 2.09128 -0.198999901 0 0.97999951 0 0
-2.942704 0.03409 2.089878 -0.382690337 0 0.923876672 0 0
-2.93339 0.034402 2.091771 0 0.333008424 0.942923851 0 0
-2.93339 0.03409 2.091771 0 0 1 0 0
-2.946927 0.034402 2.087637 -0.520695069 0.33259685 0.786292554 0 0
-2.946927 0.03409 2.087637 -0.552205376 0 0.833708116 0 0
-2.942704 0.03308 2.089878 -0.382690337 0 0.923876672 0 0
-2.946927 0.033638 2.087637 -0.552205376 0 0.833708116 0 0
-2.946927 0.03308 2.087637 -0.552205376 0 0.833708116 0 0
-2.942704 0.033638 2.089878 -0.382690337 0 0.923876672 0 0
-2.938133 0.033638 2.09128 -0.198999901 0 0.97999951 0 0
-2.938133 0.03308 2.09128 -0.198999901 0 0.97999951 0 0
-2.93339 0.033638 2.091771 0 0 1 0 0
-2.93339 0.03308 2.091771 0 0 1 0 0
-2.938133 0.032453 2.09128 -0.198999901 0 0.97999951 0 0
-2.942704 0.032453 2.089878 -0.382690337 0 0.923876672 0 0
-2.938133 0.031791 2.09128 -0.199095937 0 0.979980004 0 0
-2.942704 0.031791 2.089878 -0.382690337 0 0.923876672 0 0
-2.93339 0.032453 2.091771 0 0 1 0 0
-2.93339 0.031791 2.091771 0 0 1 0 0
-2.946927 0.032453 2.087637 -0.552205376 0 0.833708116 0 0
-2.946927 0.031791 2.087637 -0.552205376 0 0.833708116 0 0
-2.924155 0.034658 2.089681 0.234509341 0.79033148 0.566022545 0 0
-2.928809 0.034941 2.090446 0.070601214 0.935016078 0.347505975 0 0
-2.928686 0.034658 2.091071 0.12190561 0.790636382 0.600027611 0 0
-2.924395 0.034941 2.089092 0.135906534 0.934844944 0.32801577 0 0
-2.920318 0.034941 2.086929 0.1962105 0.934750025 0.296215852 0 0
-2.919969 0.034658 2.08746 0.338702517 0.789905869 0.511203798 0 0
-2.916743 0.034941 2.084025 0.251619494 0.934572404 0.251519486 0 0
-2.916299 0.034658 2.084479 0.434207178 0.789313047 0.434107176 0 0
-2.919853 0.034402 2.087637 0.520729698 0.332418958 0.786344847 0 0
-2.924076 0.034402 2.089878 0.360802076 0.332901916 0.871205014 0 0
-2.919853 0.03409 2.087637 0.552205376 0 0.833708116 0 0
-2.924076 0.03409 2.089878 0.382690337 0 0.923876672 0 0
-2.916151 0.034402 2.08463 0.666843796 0.332021806 0.667143816 0 0
-2.916151 0.03409 2.08463 0.707106781 0 0.707106781 0 0
-2.928646 0.034402 2.09128 0.187504267 0.333207582 0.924021026 0 0
-2.928646 0.03409 2.09128 0.198999901 0 0.97999951 0 0
-2.924076 0.03308 2.089878 0.382690337 0 0.923876672 0 0
-2.928646 0.033638 2.09128 0.198999901 0 0.97999951 0 0
-2.928646 0.03308 2.09128 0.198999901 0 0.97999951 0 0
-2.924076 0.033638 2.089878 0.382690337 0 0.923876672 0 0
-2.919853 0.033638 2.087637 0.552205376 0 0.833708116 0 0
-2.919853 0.03308 2.087637 0.552205376 0 0.833708116 0 0
-2.916151 0.033638 2.08463 0.707106781 0 0.707106781 0 0
-2.916151 0.03308 2.08463 0.707106781 0 0.707106781 0 0
-2.919853 0.032453 2.087637 0.552205376 0 0.833708116 0 0
-2.924076 0.032453 2.089878 0.382690337 0 0.923876672 0 0
-2.919853 0.031791 2.087637 0.552205376 0 0.833708116 0 0
-2.924076 0.031791 2.089878 0.382690337 0 0.923876672 0 0
-2.916151 0.032453 2.08463 0.707106781 0 0.707106781 0 0
-2.916151 0.031791 2.08463 0.707106781 0 0.707106781 0 0
-2.928646 0.032453 2.09128 0.198999901 0 0.97999951 0 0
-2.928646 0.031791 2.09128 0.199095937 0 0.979980004 0 0
-2.911096 0.034658 2.076622 0.568930191 0.787941813 0.235512498 0 0
-2.913839 0.034941 2.08045 0.297499182 0.934197431 0.196899459 0 0
-2.913318 0.034658 2.080809 0.512333011 0.788950834 0.339221857 0 0
-2.911676 0.034941 2.076372 0.330512075 0.933834118 0.136804998 0 0
-2.910322 0.034941 2.071959 0.351194014 0.933584087 0.0712987847 0 0
-2.909707 0.034658 2.072091 0.604435947 0.787146813 0.122707298 0 0
-2.909848 0.034941 2.067378 0.359307413 0.933219252 -0.000100002063 0 0
-2.90922 0.034658 2.067388 0.617927542 0.786235043 -0.000100004457 0 0
-2.909502 0.034402 2.072135 0.925012664 0.330104519 0.188102575 0 0
-2.910903 0.034402 2.076706 0.871799316 0.33079974 0.361299716 0 0
-2.909502 0.03409 2.072135 0.97999951 0 0.198999901 0 0
-2.910903 0.03409 2.076706 0.923912025 0 0.38260498 0 0
-2.90901 0.034402 2.067392 0.944191483 0.329397029 0.000199998196 0 0
-2.90901 0.03409 2.067392 1 0 0 0 0
-2.913144 0.034402 2.080929 0.78633769 0.331815904 0.521124978 0 0
-2.913144 0.03409 2.080929 0.833708116 0 0.552205376 0 0
-2.910903 0.03308 2.076706 0.923912025 0 0.38260498 0 0
-2.913144 0.033638 2.080929 0.833708116 0 0.552205376 0 0
-2.913144 0.03308 2.080929 0.833708116 0 0.552205376 0 0
-2.910903 0.033638 2.076706 0.923912025 0 0.38260498 0 0
-2.909502 0.033638 2.072135 0.97999951 0 0.198999901 0 0
-2.909502 0.03308 2.072135 0.97999951 0 0.198999901 0 0
-2.90901 0.033638 2.067392 1 0 0 0 0
-2.90901 0.03308 2.067392 1 0 0 0 0
-2.909502 0.032453 2.072135 0.97999951 0 0.198999901 0 0
-2.910903 0.032453 2.076706 0.923876672 0 0.382690337 0 0
-2.909502 0.031791 2.072135 0.979980004 0 0.199095937 0 0
-2.910903 0.031791 2.076706 0.923876672 0 0.382690337 0 0
-2.90901 0.032453 2.067392 1 0 0 0 0
-2.90901 0.031791 2.067392 1 0 0 0 0
-2.913144 0.032453 2.080929 0.833708116 0 0.552205376 0 0
-2.913144 0.031791 2.080929 0.833708116 0 0.552205376 0 0
-2.911096 0.034658 2.058154 0.572618284 0.784725057 -0.237307577 0 0
-2.910322 0.034941 2.062797 0.353196235 0.932790057 -0.0717992346 0 0
-2.909707 0.034658 2.062685 0.606483204 0.785478246 -0.123296585 0 0
-2.911676 0.034941 2.058384 0.333928876 0.932380626 -0.138411969 0 0
-2.913839 0.034941 2.054306 0.301991783 0.932074639 -0.200094556 0 0
-2.913318 0.034658 2.053967 0.517433479 0.78405073 -0.342822181 0 0
-2.916743 0.034941 2.050731 0.256601323 0.931804803 -0.256701323 0 0
-2.916299 0.034658 2.050297 0.43960297 0.783205291 -0.43970297 0 0
-2.913144 0.034402 2.053854 0.787755298 0.327622998 -0.521636618 0 0
-2.910903 0.034402 2.058077 0.87281434 0.328105391 -0.361305936 0 0
-2.913144 0.03409 2.053854 0.833708116 0 -0.552205376 0 0
-2.910903 0.03409 2.058077 0.923912025 0 -0.38260498 0 0
-2.916151 0.034402 2.050153 0.668406758 0.326903305 -0.668106755 0 0
-2.916151 0.03409 2.050153 0.707106781 0 -0.707106781 0 0
-2.909502 0.034402 2.062648 0.925595215 0.328698301 -0.18769903 0 0
-2.909502 0.03409 2.062648 0.97999951 0 -0.198999901 0 0
-2.910903 0.03308 2.058077 0.923912025 0 -0.38260498 0 0
-2.909502 0.033638 2.062648 0.97999951 0 -0.198999901 0 0
-2.909502 0.03308 2.062648 0.97999951 0 -0.198999901 0 0
-2.910903 0.033638 2.058077 0.923912025 0 -0.38260498 0 0
-2.913144 0.033638 2.053854 0.833708116 0 -0.552205376 0 0
-2.913144 0.03308 2.053854 0.833708116 0 -0.552205376 0 0
-2.916151 0.033638 2.050153 0.707106781 0 -0.707106781 0 0
-2.916151 0.03308 2.050153 0.707106781 0 -0.707106781 0 0
-2.913144 0.032453 2.053854 0.833708116 0 -0.552205376 0 0
-2.910903 0.032453 2.058077 0.923912025 0 -0.38260498 0 0
-2.913144 0.031791 2.053854 0.833708116 0 -0.552205376 0 0
-2.910903 0.031791 2.058077 0.923876672 0 -0.382690337 0 0
-2.916151 0.032453 2.050153 0.707106781 0 -0.707106781 0 0
-2.916151 0.031791 2.050153 0.707106781 0 -0.707106781 0 0
-2.909502 0.032453 2.062648 0.97999951 0 -0.198999901 0 0
-2.909502 0.031791 2.062648 0.979980004 0 -0.199095937 0 0
-2.924155 0.034658 2.045095 0.238311113 0.782436486 -0.575326828 0 0
-2.928809 0.034941 2.04431 0.0725006695 0.9312086 -0.357203299 0 0
-2.924395 0.034941 2.045664 0.139396403 0.931275969 -0.336591314 0 0
-2.928686 0.034658 2.043705 0.124004769 0.782230081 -0.610523478 0 0
-2.928646 0.034402 2.043503 0.188099529 0.326199183 -0.926397679 0 0
-2.924076 0.034402 2.044905 0.361783885 0.326385461 -0.873261101 0 0
-2.928646 0.03409 2.043503 0.198999901 0 -0.97999951 0 0
-2.924076 0.03409 2.044905 0.382690337 0 -0.923876672 0 0
-2.919853 0.034402 2.047146 0.522105986 0.326503743 -0.787909033 0 0
-2.919969 0.034658 2.047316 0.343513478 0.782830715 -0.518820356 0 0
-2.919853 0.03409 2.047146 0.552205376 0 -0.833708116 0 0
-2.920318 0.034941 2.047827 0.200709737 0.93154519 -0.303214709 0 0
-2.924076 0.03308 2.044905 0.382690337 0 -0.923876672 0 0
-2.928646 0.033638 2.043503 0.198999901 0 -0.97999951 0 0
-2.924076 0.033638 2.044905 0.382690337 0 -0.923876672 0 0
-2.928646 0.03308 2.043503 0.198999901 0 -0.97999951 0 0
-2.928646 0.032453 2.043503 0.198999901 0 -0.97999951 0 0
-2.924076 0.032453 2.044905 0.382690337 0 -0.923876672 0 0
-2.928646 0.031791 2.043503 0.199095937 0 -0.979980004 0 0
-2.924076 0.031791 2.044905 0.382690337 0 -0.923876672 0 0
-2.919853 0.032453 2.047146 0.552205376 0 -0.833708116 0 0
-2.919853 0.03308 2.047146 0.552205376 0 -0.833708116 0 0
-2.919853 0.031791 2.047146 0.552205376 0 -0.833708116 0 0
-2.919853 0.033638 2.047146 0.552205376 0 -0.833708116 0 0
3 0 1 2
3 0 3 1
3 3 4 1
3 3 5 4
3 2 6 7
3 2 1 6
3 1 8 6
3 1 4 8
3 0 9 3
3 0 10 9
3 10 11 9
3 10 12 11
3 3 13 5
3 3 9 13
3 9 14 13
3 9 11 14
3 0 15 10
3 0 16 15
3 16 17 15
3 16 18 17
3 10 19 12
3 10 15 19
3 15 20 19
3 15 17 20
3 0 21 16
3 0 2 21
3 2 22 21
3 2 7 22
3 16 23 18
3 16 21 23
3 21 24 23
3 21 22 24
3 25 26 27
3 25 28 26
3 28 6 26
3 28 7 6
3 27 29 30
3 27 26 29
3 26 8 29
3 26 6 8
3 25 31 28
3 25 32 31
3 32 33 31
3 32 34 33
3 28 22 7
3 28 31 22
3 31 24 22
3 31 33 24
3 25 35 32
3 25 36 35
3 36 37 35
3 36 38 37
3 32 39 34
3 32 35 39
3 35 40 39
3 35 37 40
3 25 41 36
3 25 27 41
3 27 42 41
3 27 30 42
3 36 43 38
3 36 41 43
3 41 44 43
3 41 42 44
3 45 46 47
3 45 48 46
3 48 43 46
3 48 38 43
3 47 49 50
3 47 46 49
3 46 44 49
3 46 43 44
3 45 51 48
3 45 52 51
3 52 53 51
3 52 54 53
3 48 37 38
3 48 51 37
3 51 40 37
3 51 53 40
3 45 55 52
3 45 56 55
3 56 57 55
3 56 58 57
3 52 59 54
3 52 55 59
3 55 60 59
3 55 57 60
3 45 61 56
3 45 47 61
3 47 62 61
3 47 50 62
3 56 63 58
3 56 61 63
3 61 64 63
3 61 62 64
3 65 66 67
3 65 68 66
3 68 63 66
3 68 58 63
3 67 69 70
3 67 66 69
3 66 64 69
3 66 63 64
3 65 71 68
3 65 72 71
3 72 73 71
3 72 74 73
3 68 57 58
3 68 71 57
3 71 60 57
3 71 73 60
3 65 75 72
3 65 76 75
3 76 77 75
3 76 78 77
3 72 79 74
3 72 75 79
3 75 80 79
3 75 77 80
3 65 81 76
3 65 67 81
3 67 82 81
3 67 70 82
3 76 83 78
3 76 81 83
3 81 84 83
3 81 82 84
3 85 86 87
3 85 88 86
3 88 83 86
3 88 78 83
3 87 89 90
3 87 86 89
3 86 84 89
3 86 83 84
3 85 91 88
3 85 92 91
3 92 93 91
3 92 94 93
3 88 77 78
3 88 91 77
3 91 80 77
3 91 93 80
3 85 95 92
3 85 96 95
3 96 97 95
3 96 98 97
3 92 99 94
3 92 95 99
3 95 100 99
3 95 97 100
3 85 101 96
3 85 87 101
3 87 102 101
3 87 90 102
3 96 103 98
3 96 101 103
3 101 104 103
3 101 102 104
3 105 106 107
3 105 108 106
3 108 103 106
3 108 98 103
3 107 109 110
3 107 106 109
3 106 104 109
3 106 103 104
3 105 111 108
3 105 112 111
3 112 113 111
3 112 114 113
3 108 97 98
3 108 111 97
3 111 100 97
3 111 113 100
3 105 115 112
3 105 116 115
3 116 117 115
3 116 118 117
3 112 119 114
3 112 115 119
3 115 120 119
3 115 117 120
3 105 121 116
3 105 107 121
3 107 122 121
3 107 110 122
3 116 123 118
3 116 121 123
3 121 124 123
3 121 122 124
3 125 126 127
3 125 128 126
3 128 123 126
3 128 118 123
3 127 129 130
3 127 126 129
3 126 124 129
3 126 123 124
3 125 131 128
3 125 132 131
3 132 133 131
3 132 134 133
3 128 117 118
3 128 131 117
3 131 120 117
3 131 133 120
3 125 135 132
3 125 136 135
3 136 137 135
3 136 138 137
3 132 139 134
3 132 135 139
3 135 140 139
3 135 137 140
3 125 141 136
3 125 127 141
3 127 142 141
3 127 130 142
3 136 143 138
3 136 141 143
3 141 144 143
3 141 142 144
3 145 146 147
3 145 148 146
3 148 19 146
3 148 12 19
3 147 149 150
3 147 146 149
3 146 20 149
3 146 19 20
3 145 151 148
3 145 152 151
3 152 153 151
3 152 154 153
3 148 11 12
3 148 151 11
3 151 14 11
3 151 153 14
3 145 155 152
3 145 156 155
3 156 143 155
3 156 138 143
3 152 157 154
3 152 155 157
3 155 144 157
3 155 143 144
3 145 158 156
3 145 147 158
3 147 159 158
3 147 150 159
3 156 137 138
3 156 158 137
3 158 140 137
3 158 159 140
3 160 161 162
3 160 163 161
3 163 164 161
3 163 165 164
3 162 159 150
3 162 161 159
3 161 140 159
3 161 164 140
3 160 166 163
3 160 167 166
3 167 168 166
3 167 169 168
3 163 170 165
3 163 166 170
3 166 171 170
3 166 168 171
3 160 172 167
3 160 173 172
3 173 174 172
3 173 175 174
3 167 176 169
3 167 172 176
3 172 177 176
3 172 174 177
3 160 178 173
3 160 162 178
3 162 149 178
3 162 150 149
3 173 179 175
3 173 178 179
3 178 20 179
3 178 149 20
3 180 181 182
3 180 183 181
3 183 184 181
3 183 185 184
3 182 133 134
3 182 181 133
3 181 120 133
3 181 184 120
3 180 186 183
3 180 187 186
3 187 188 186
3 187 189 188
3 183 190 185
3 183 186 190
3 186 191 190
3 186 188 191
3 180 192 187
3 180 193 192
3 193 170 192
3 193 165 170
3 187 194 189
3 187 192 194
3 192 171 194
3 192 170 171
3 180 195 193
3 180 182 195
3 182 139 195
3 182 134 139
3 193 164 165
3 193 195 164
3 195 140 164
3 195 139 140
3 196 197 198
3 196 199 197
3 199 200 197
3 199 201 200
3 198 113 114
3 198 197 113
3 197 100 113
3 197 200 100
3 196 202 199
3 196 203 202
3 203 204 202
3 203 205 204
3 199 206 201
3 199 202 206
3 202 207 206
3 202 204 207
3 196 208 203
3 196 209 208
3 209 190 208
3 209 185 190
3 203 210 205
3 203 208 210
3 208 191 210
3 208 190 191
3 196 211 209
3 196 198 211
3 198 119 211
3 198 114 119
3 209 184 185
3 209 211 184
3 211 120 184
3 211 119 120
3 212 213 214
3 212 215 213
3 215 216 213
3 215 217 216
3 214 93 94
3 214 213 93
3 213 80 93
3 213 216 80
3 212 218 215
3 212 219 218
3 219 220 218
3 219 221 220
3 215 222 217
3 215 218 222
3 218 223 222
3 218 220 223
3 212 224 219
3 212 225 224
3 225 206 224
3 225 201 206
3 219 226 221
3 219 224 226
3 224 207 226
3 224 206 207
3 212 227 225
3 212 214 227
3 214 99 227
3 214 94 99
3 225 200 201
3 225 227 200
3 227 100 200
3 227 99 100
3 228 229 230
3 228 231 229
3 231 232 229
3 231 233 232
3 230 73 74
3 230 229 73
3 229 60 73
3 229 232 60
3 228 234 231
3 228 235 234
3 235 236 234
3 235 237 236
3 231 238 233
3 231 234 238
3 234 239 238
3 234 236 239
3 228 240 235
3 228 241 240
3 241 222 240
3 241 217 222
3 235 242 237
3 235 240 242
3 240 223 242
3 240 222 223
3 228 243 241
3 228 230 243
3 230 79 243
3 230 74 79
3 241 216 217
3 241 243 216
3 243 80 216
3 243 79 80
3 244 245 246
3 244 247 245
3 247 248 245
3 247 249 248
3 246 53 54
3 246 245 53
3 245 40 53
3 245 248 40
3 244 250 247
3 244 251 250
3 251 252 250
3 251 253 252
3 247 254 249
3 247 250 254
3 250 255 254
3 250 252 255
3 244 256 251
3 244 257 256
3 257 238 256
3 257 233 238
3 251 258 253
3 251 256 258
3 256 239 258
3 256 238 239
3 244 259 257
3 244 246 259
3 246 59 259
3 246 54 59
3 257 232 233
3 257 259 232
3 259 60 232
3 259 59 60
3 260 261 262
3 260 263 261
3 263 264 261
3 263 265 264
3 262 33 34
3 262 261 33
3 261 24 33
3 261 264 24
3 260 266 263
3 260 267 266
3 267 268 266
3 267 269 268
3 263 270 265
3 263 266 270
3 266 271 270
3 266 268 271
3 260 272 267
3 260 273 272
3 273 254 272
3 273 249 254
3 267 274 269
3 267 272 274
3 272 255 274
3 272 254 255
3 260 275 273
3 260 262 275
3 262 39 275
3 262 34 39
3 273 248 249
3 273 275 248
3 275 40 248
3 275 39 40
3 276 277 278
3 276 279 277
3 279 23 277
3 279 18 23
3 278 264 265
3 278 277 264
3 277 24 264
3 277 23 24
3 276 280 279
3 276 281 280
3 281 179 280
3 281 175 179
3 279 17 18
3 279 280 17
3 280 20 17
3 280 179 20
3 276 282 281
3 276 283 282
3 283 284 282
3 283 285 284
3 281 174 175
3 281 282 174
3 282 177 174
3 282 284 177
3 276 286 283
3 276 278 286
3 278 270 286
3 278 265 270
3 283 287 285
3 283 286 287
3 286 271 287
3 286 270 271
3 288 289 290
3 288 291 289
3 291 287 289
3 291 285 287
3 290 292 293
3 290 289 292
3 289 271 292
3 289 287 271
3 288 294 291
3 288 295 294
3 295 296 294
3 295 297 296
3 291 284 285
3 291 294 284
3 294 177 284
3 294 296 177
3 288 298 295
3 288 299 298
3 299 300 298
3 299 301 300
3 295 302 297
3 295 298 302
3 298 303 302
3 298 300 303
3 288 304 299
3 288 290 304
3 290 305 304
3 290 293 305
3 299 306 301
3 299 304 306
3 304 307 306
3 304 305 307
3 308 309 310
3 308 311 309
3 311 292 309
3 311 293 292
3 310 268 269
3 310 309 268
3 309 271 268
3 309 292 271
3 308 312 311
3 308 313 312
3 313 314 312
3 313 315 314
3 311 305 293
3 311 312 305
3 312 307 305
3 312 314 307
3 308 316 313
3 308 317 316
3 317 318 316
3 317 319 318
3 313 320 315
3 313 316 320
3 316 321 320
3 316 318 321
3 308 322 317
3 308 310 322
3 310 274 322
3 310 269 274
3 317 323 319
3 317 322 323
3 322 255 323
3 322 274 255
3 324 325 326
3 324 327 325
3 327 323 325
3 327 319 323
3 326 252 253
3 326 325 252
3 325 255 252
3 325 323 255
3 324 328 327
3 324 329 328
3 329 330 328
3 329 331 330
3 327 318 319
3 327 328 318
3 328 321 318
3 328 330 321
3 324 332 329
3 324 333 332
3 333 334 332
3 333 335 334
3 329 336 331
3 329 332 336
3 332 337 336
3 332 334 337
3 324 338 333
3 324 326 338
3 326 258 338
3 326 253 258
3 333 339 335
3 333 338 339
3 338 239 339
3 338 258 239
3 340 341 342
3 340 343 341
3 343 339 341
3 343 335 339
3 342 236 237
3 342 341 236
3 341 239 236
3 341 339 239
3 340 344 343
3 340 345 344
3 345 346 344
3 345 347 346
3 343 334 335
3 343 344 334
3 344 337 334
3 344 346 337
3 340 348 345
3 340 349 348
3 349 350 348
3 349 351 350
3 345 352 347
3 345 348 352
3 348 353 352
3 348 350 353
3 340 354 349
3 340 342 354
3 342 242 354
3 342 237 242
3 349 355 351
3 349 354 355
3 354 223 355
3 354 242 223
3 356 357 358
3 356 359 357
3 359 355 357
3 359 351 355
3 358 220 221
3 358 357 220
3 357 223 220
3 357 355 223
3 356 360 359
3 356 361 360
3 361 362 360
3 361 363 362
3 359 350 351
3 359 360 350
3 360 353 350
3 360 362 353
3 356 364 361
3 356 365 364
3 365 366 364
3 365 367 366
3 361 368 363
3 361 364 368
3 364 369 368
3 364 366 369
3 356 370 365
3 356 358 370
3 358 226 370
3 358 221 226
3 365 371 367
3 365 370 371
3 370 207 371
3 370 226 207
3 372 373 374
3 372 375 373
3 375 371 373
3 375 367 371
3 374 204 205
3 374 373 204
3 373 207 204
3 373 371 207
3 372 376 375
3 372 377 376
3 377 378 376
3 377 379 378
3 375 366 367
3 375 376 366
3 376 369 366
3 376 378 369
3 372 380 377
3 372 381 380
3 381 382 380
3 381 383 382
3 377 384 379
3 377 380 384
3 380 385 384
3 380 382 385
3 372 386 381
3 372 374 386
3 374 210 386
3 374 205 210
3 381 387 383
3 381 386 387
3 386 191 387
3 386 210 191
3 388 389 390
3 388 391 389
3 391 387 389
3 391 383 387
3 390 188 189
3 390 389 188
3 389 191 188
3 389 387 191
3 388 392 391
3 388 393 392
3 393 394 392
3 393 395 394
3 391 382 383
3 391 392 382
3 392 385 382
3 392 394 385
3 388 396 393
3 388 397 396
3 397 398 396
3 397 399 398
3 393 400 395
3 393 396 400
3 396 401 400
3 396 398 401
3 388 402 397
3 388 390 402
3 390 194 402
3 390 189 194
3 397 403 399
3 397 402 403
3 402 171 403
3 402 194 171
3 404 405 406
3 404 407 405
3 407 403 405
3 407 399 403
3 406 168 169
3 406 405 168
3 405 171 168
3 405 403 171
3 404 408 407
3 404 409 408
3 409 410 408
3 409 411 410
3 407 398 399
3 407 408 398
3 408 401 398
3 408 410 401
3 404 412 409
3 404 413 412
3 413 302 412
3 413 297 302
3 409 414 411
3 409 412 414
3 412 303 414
3 412 302 303
3 404 415 413
3 404 406 415
3 406 176 415
3 406 169 176
3 413 296 297
3 413 415 296
3 415 177 296
3 415 176 177
3 416 417 418
3 416 419 417
3 419 414 417
3 419 411 414
3 418 420 421
3 418 417 420
3 417 303 420
3 417 414 303
3 416 422 419
3 416 423 422
3 423 424 422
3 423 425 424
3 419 410 411
3 419 422 410
3 422 401 410
3 422 424 401
3 416 426 423
3 416 427 426
3 427 428 426
3 427 429 428
3 423 430 425
3 423 426 430
3 426 431 430
3 426 428 431
3 416 432 427
3 416 418 432
3 418 433 432
3 418 421 433
3 427 434 429
3 427 432 434
3 432 435 434
3 432 433 435
3 436 437 438
3 436 439 437
3 439 434 437
3 439 429 434
3 438 440 441
3 438 437 440
3 437 435 440
3 437 434 435
3 436 442 439
3 436 443 442
3 443 444 442
3 443 445 444
3 439 428 429
3 439 442 428
3 442 431 428
3 442 444 431
3 436 446 443
3 436 447 446
3 447 448 446
3 447 449 448
3 443 450 445
3 443 446 450
3 446 451 450
3 446 448 451
3 436 452 447
3 436 438 452
3 438 453 452
3 438 441 453
3 447 454 449
3 447 452 454
3 452 455 454
3 452 453 455
3 456 457 458
3 456 459 457
3 459 400 457
3 459 395 400
3 458 424 425
3 458 457 424
3 457 401 424
3 457 400 401
3 456 460 459
3 456 461 460
3 461 462 460
3 461 463 462
3 459 394 395
3 459 460 394
3 460 385 394
3 460 462 385
3 456 464 461
3 456 465 464
3 465 466 464
3 465 467 466
3 461 468 463
3 461 464 468
3 464 469 468
3 464 466 469
3 456 470 465
3 456 458 470
3 458 430 470
3 458 425 430
3 465 471 467
3 465 470 471
3 470 431 471
3 470 430 431
3 472 473 474
3 472 475 473
3 475 471 473
3 475 467 471
3 474 444 445
3 474 473 444
3 473 431 444
3 473 471 431
3 472 476 475
3 472 477 476
3 477 478 476
3 477 479 478
3 475 466 467
3 475 476 466
3 476 469 466
3 476 478 469
3 472 480 477
3 472 481 480
3 481 482 480
3 481 483 482
3 477 484 479
3 477 480 484
3 480 485 484
3 480 482 485
3 472 486 481
3 472 474 486
3 474 450 486
3 474 445 450
3 481 487 483
3 481 486 487
3 486 451 487
3 486 450 451
3 488 489 490
3 488 491 489
3 491 384 489
3 491 379 384
3 490 462 463
3 490 489 462
3 489 385 462
3 489 384 385
3 488 492 491
3 488 493 492
3 493 494 492
3 493 495 494
3 491 378 379
3 491 492 378
3 492 369 378
3 492 494 369
3 488 496 493
3 488 497 496
3 497 498 496
3 497 499 498
3 493 500 495
3 493 496 500
3 496 501 500
3 496 498 501
3 488 502 497
3 488 490 502
3 490 468 502
3 490 463 468
3 497 503 499
3 497 502 503
3 502 469 503
3 502 468 469
3 504 505 506
3 504 507 505
3 507 503 505
3 507 499 503
3 506 478 479
3 506 505 478
3 505 469 478
3 505 503 469
3 504 508 507
3 504 509 508
3 509 510 508
3 509 511 510
3 507 498 499
3 507 508 498
3 508 501 498
3 508 510 501
3 504 512 509
3 504 513 512
3 513 514 512
3 513 515 514
3 509 516 511
3 509 512 516
3 512 517 516
3 512 514 517
3 504 518 513
3 504 506 518
3 506 484 518
3 506 479 484
3 513 519 515
3 513 518 519
3 518 485 519
3 518 484 485
3 520 521 522
3 520 523 521
3 523 368 521
3 523 363 368
3 522 494 495
3 522 521 494
3 521 369 494
3 521 368 369
3 520 524 523
3 520 525 524
3 525 526 524
3 525 527 526
3 523 362 363
3 523 524 362
3 524 353 362
3 524 526 353
3 520 528 525
3 520 529 528
3 529 530 528
3 529 531 530
3 525 532 527
3 525 528 532
3 528 533 532
3 528 530 533
3 520 534 529
3 520 522 534
3 522 500 534
3 522 495 500
3 529 535 531
3 529 534 535
3 534 501 535
3 534 500 501
3 536 537 538
3 536 539 537
3 539 535 537
3 539 531 535
3 538 510 511
3 538 537 510
3 537 501 510
3 537 535 501
3 536 540 539
3 536 541 540
3 541 542 540
3 541 543 542
3 539 530 531
3 539 540 530
3 540 533 530
3 540 542 533
3 536 544 541
3 536 545 544
3 545 546 544
3 545 547 546
3 541 548 543
3 541 544 548
3 544 549 548
3 544 546 549
3 536 550 545
3 536 538 550
3 538 516 550
3 538 511 516
3 545 551 547
3 545 550 551
3 550 517 551
3 550 516 517
3 552 553 554
3 552 555 553
3 555 352 553
3 555 347 352
3 554 526 527
3 554 553 526
3 553 353 526
3 553 352 353
3 552 556 555
3 552 557 556
3 557 558 556
3 557 559 558
3 555 346 347
3 555 556 346
3 556 337 346
3 556 558 337
3 552 560 557
3 552 561 560
3 561 562 560
3 561 563 562
3 557 564 559
3 557 560 564
3 560 565 564
3 560 562 565
3 552 566 561
3 552 554 566
3 554 532 566
3 554 527 532
3 561 567 563
3 561 566 567
3 566 533 567
3 566 532 533
3 568 569 570
3 568 571 569
3 571 567 569
3 571 563 567
3 570 542 543
3 570 569 542
3 569 533 542
3 569 567 533
3 568 572 571
3 568 573 572
3 573 574 572
3 573 575 574
3 571 562 563
3 571 572 562
3 572 565 562
3 572 574 565
3 568 576 573
3 568 577 576
3 577 578 576
3 577 579 578
3 573 580 575
3 573 576 580
3 576 581 580
3 576 578 581
3 568 582 577
3 568 570 582
3 570 548 582
3 570 543 548
3 577 583 579
3 577 582 583
3 582 549 583
3 582 548 549
3 584 585 586
3 584 587 585
3 587 336 585
3 587 331 336
3 586 558 559
3 586 585 558
3 585 337 558
3 585 336 337
3 584 588 587
3 584 589 588
3 589 590 588
3 589 591 590
3 587 330 331
3 587 588 330
3 588 321 330
3 588 590 321
3 584 592 589
3 584 593 592
3 593 594 592
3 593 595 594
3 589 596 591
3 589 592 596
3 592 597 596
3 592 594 597
3 584 598 593
3 584 586 598
3 586 564 598
3 586 559 564
3 593 599 595
3 593 598 599
3 598 565 599
3 598 564 565
3 600 601 602
3 600 603 601
3 603 599 601
3 603 595 599
3 602 574 575
3 602 601 574
3 601 565 574
3 601 599 565
3 600 604 603
3 600 605 604
3 605 606 604
3 605 607 606
3 603 594 595
3 603 604 594
3 604 597 594
3 604 606 597
3 600 608 605
3 600 609 608
3 609 610 608
3 609 611 610
3 605 612 607
3 605 608 612
3 608 613 612
3 608 610 613
3 600 614 609
3 600 602 614
3 602 580 614
3 602 575 580
3 609 615 611
3 609 614 615
3 614 581 615
3 614 580 581
3 616 617 618
3 616 619 617
3 619 320 617
3 619 315 320
3 618 590 591
3 618 617 590
3 617 321 590
3 617 320 321
3 616 620 619
3 616 621 620
3 621 622 620
3 621 623 622
3 619 314 315
3 619 620 314
3 620 307 314
3 620 622 307
3 616 624 621
3 616 625 624
3 625 626 624
3 625 627 626
3 621 628 623
3 621 624 628
3 624 629 628
3 624 626 629
3 616 630 625
3 616 618 630
3 618 596 630
3 618 591 596
3 625 631 627
3 625 630 631
3 630 597 631
3 630 596 597
3 632 633 634
3 632 635 633
3 635 631 633
3 635 627 631
3 634 606 607
3 634 633 606
3 633 597 606
3 633 631 597
3 632 636 635
3 632 637 636
3 637 638 636
3 637 639 638
3 635 626 627
3 635 636 626
3 636 629 626
3 636 638 629
3 632 640 637
3 632 641 640
3 641 642 640
3 641 643 642
3 637 644 639
3 637 640 644
3 640 645 644
3 640 642 645
3 632 646 641
3 632 634 646
3 634 612 646
3 634 607 612
3 641 647 643
3 641 646 647
3 646 613 647
3 646 612 613
3 648 649 650
3 648 651 649
3 651 420 649
3 651 421 420
3 650 300 301
3 650 649 300
3 649 303 300
3 649 420 303
3 648 652 651
3 648 653 652
3 653 654 652
3 653 655 654
3 651 433 421
3 651 652 433
3 652 435 433
3 652 654 435
3 648 656 653
3 648 657 656
3 657 628 656
3 657 623 628
3 653 658 655
3 653 656 658
3 656 629 658
3 656 628 629
3 648 659 657
3 648 650 659
3 650 306 659
3 650 301 306
3 657 622 623
3 657 659 622
3 659 307 622
3 659 306 307
3 660 661 662
3 660 663 661
3 663 440 661
3 663 441 440
3 662 654 655
3 662 661 654
3 661 435 654
3 661 440 435
3 660 664 663
3 660 665 664
3 665 666 664
3 665 667 666
3 663 453 441
3 663 664 453
3 664 455 453
3 664 666 455
3 660 668 665
3 660 669 668
3 669 644 668
3 669 639 644
3 665 670 667
3 665 668 670
3 668 645 670
3 668 644 645
3 660 671 669
3 660 662 671
3 662 658 671
3 662 655 658
3 669 638 639
3 669 671 638
3 671 629 638
3 671 658 629
