ply
format ascii 1.0
element vertex 226
property float x
property float y
property float z
property float nx
property float ny
property float nz
property float u
property float v
element face 384
property list uchar int vertex_indices
end_header
-2.937595 0.248553 3.142512 0.000499999635 0.99999927 0.0010999992 0 0
-2.935968 0.248557 3.140382 0.000399996096 0.99999024 0.00439995706 0 0
-2.938283 0.248557 3.140852 0.00179997966 0.9999887 0.00439995028 0 0
-2.935832 0.248552 3.14288 -0.000199999947 0.999999735 0.000699999815 0 0
-2.933481 0.248557 3.140356 0 0.99999118 0.00419996296 0 0
-2.933481 0.248553 3.143179 0 0.999999875 0.000499999938 0 0
-2.936296 0.24857 3.138502 0.00239996666 0.999886112 0.014899793 0 0
-2.938967 0.24857 3.139202 0.00600045245 0.999875393 0.014601101 0 0
-2.933481 0.24857 3.138327 0 0.999894871 0.0144999256 0 0
-2.936208 0.248553 3.145862 -0.000199999971 0.999999855 -0.000499999928 0 0
-2.938582 0.248552 3.144019 0.000599999844 0.99999974 0.000399999896 0 0
-2.937488 0.248555 3.148439 -0.000399999936 0.99999984 -0.000399999936 0 0
-2.940033 0.248553 3.145894 0.000399999936 0.99999984 0.000399999936 0 0
-2.933481 0.248555 3.146779 0 0.99999982 -0.000599999892 0 0
-2.933481 0.248559 3.152446 0 1 0 0 0
-2.940252 0.248557 3.142157 0.00289997104 0.999990015 0.00339996605 0 0
-2.94135 0.24857 3.140596 0.00879987355 0.999885632 0.0122998233 0 0
-2.942029 0.248557 3.143897 0.00289997561 0.99999159 0.00289997561 0 0
-2.943464 0.24857 3.142462 0.0101999587 0.999895955 0.0101999587 0 0
-2.943415 0.248553 3.148331 0.0010999992 0.99999927 0.000499999635 0 0
-2.945544 0.248557 3.149958 0.00449995408 0.999989795 0.000399995918 0 0
-2.943047 0.248552 3.150095 0.000699999815 0.999999735 -0.000199999947 0 0
-2.945075 0.248557 3.147644 0.00439995028 0.9999887 0.00179997966 0 0
-2.947424 0.24857 3.149631 0.014899793 0.999886112 0.00239996666 0 0
-2.946725 0.24857 3.14696 0.014601101 0.999875393 0.00600045245 0 0
-2.94557 0.248557 3.152446 0.00419996296 0.99999118 0 0 0
-2.942747 0.248553 3.152446 0.000499999938 0.999999875 0 0 0
-2.9476 0.24857 3.152446 0.0144999256 0.999894871 0 0 0
-2.94377 0.248557 3.145675 0.00339996605 0.999990015 0.00289997104 0 0
-2.941907 0.248552 3.147344 0.000399999896 0.99999974 0.000599999844 0 0
-2.945331 0.24857 3.144577 0.0122998233 0.999885632 0.00879987355 0 0
-2.940064 0.248553 3.149719 -0.000499999928 0.999999855 -0.000199999971 0 0
-2.939148 0.248555 3.152446 -0.000599999892 0.99999982 0 0 0
-2.943415 0.248553 3.156561 0.00109999925 0.999999315 -0.000399999726 0 0
-2.945544 0.248557 3.154934 0.00449995408 0.999989795 -0.000399995918 0 0
-2.945075 0.248557 3.157248 0.00439995028 0.9999887 -0.00179997966 0 0
-2.943047 0.248552 3.154797 0.000699999815 0.999999735 0.000199999947 0 0
-2.947424 0.24857 3.155261 0.014899793 0.999886112 -0.00239996666 0 0
-2.946725 0.24857 3.157932 0.014601101 0.999875393 -0.00600045245 0 0
-2.940064 0.248553 3.155173 -0.000499999928 0.999999855 0.000199999971 0 0
-2.941907 0.248552 3.157548 0.000399999896 0.99999974 -0.000599999844 0 0
-2.937488 0.248555 3.156453 -0.000399999936 0.99999984 0.000399999936 0 0
-2.940033 0.248553 3.158998 0.000399999936 0.99999984 -0.000399999936 0 0
-2.94377 0.248557 3.159217 0.00339996605 0.999990015 -0.00289997104 0 0
-2.945331 0.24857 3.160315 0.0122998233 0.999885632 -0.00879987355 0 0
-2.942029 0.248557 3.160995 0.00289997561 0.99999159 -0.00289997561 0 0
-2.943464 0.24857 3.16243 0.0101999587 0.999895955 -0.0101999587 0 0
-2.937595 0.248553 3.16238 0.000499999635 0.99999927 -0.0010999992 0 0
-2.940252 0.248557 3.162735 0.00289997104 0.999990015 -0.00339996605 0 0
-2.938283 0.248557 3.16404 0.00179997966 0.9999887 -0.00439995028 0 0
-2.938582 0.248552 3.160873 0.000599999844 0.99999974 -0.000399999896 0 0
-2.94135 0.24857 3.164296 0.00879987355 0.999885632 -0.0122998233 0 0
-2.938967 0.24857 3.16569 0.00600045245 0.999875393 -0.014601101 0 0
-2.936208 0.248553 3.15903 -0.000199999971 0.999999855 0.000499999928 0 0
-2.935832 0.248552 3.162012 -0.000199999947 0.999999735 -0.000699999815 0 0
-2.933481 0.248555 3.158113 0 0.99999982 0.000599999892 0 0
-2.933481 0.248553 3.161713 0 0.999999875 -0.000499999938 0 0
-2.935968 0.248557 3.16451 0.000399995918 0.999989795 -0.00449995408 0 0
-2.936296 0.24857 3.166389 0.00239996666 0.999886112 -0.014899793 0 0
-2.933481 0.248557 3.164536 0 0.99999118 -0.00419996296 0 0
-2.933481 0.24857 3.166565 0 0.999894871 -0.0144999256 0 0
-2.929366 0.248553 3.16238 -0.000499999635 0.99999927 -0.0010999992 0 0
-2.926709 0.248557 3.162735 -0.00289997104 0.999990015 -0.00339996605 0 0
-2.928379 0.248552 3.160873 -0.000599999844 0.99999974 -0.000399999896 0 0
-2.928678 0.248557 3.16404 -0.00179997966 0.9999887 -0.00439995028 0 0
-2.925611 0.24857 3.164296 -0.00879987355 0.999885632 -0.0122998233 0 0
-2.927994 0.24857 3.16569 -0.00600045245 0.999875393 -0.014601101 0 0
-2.924932 0.248557 3.160995 -0.00289997561 0.99999159 -0.00289997561 0 0
-2.926928 0.248553 3.158998 -0.000399999936 0.99999984 -0.000399999936 0 0
-2.923497 0.24857 3.16243 -0.0101999587 0.999895955 -0.0101999587 0 0
-2.930993 0.248557 3.16451 -0.000399996096 0.99999024 -0.00439995706 0 0
-2.931129 0.248552 3.162012 0.000199999947 0.999999735 -0.000699999815 0 0
-2.930665 0.24857 3.16639 -0.00239996666 0.999886112 -0.014899793 0 0
-2.930753 0.248553 3.15903 0.000199999971 0.999999855 0.000499999928 0 0
-2.929473 0.248555 3.156453 0.000399999936 0.99999984 0.000399999936 0 0
-2.923546 0.248553 3.156561 -0.0010999992 0.99999927 -0.000499999635 0 0
-2.923191 0.248557 3.159217 -0.00339996605 0.999990015 -0.00289997104 0 0
-2.921886 0.248557 3.157248 -0.00439995028 0.9999887 -0.00179997966 0 0
-2.925054 0.248552 3.157548 -0.000399999896 0.99999974 -0.000599999844 0 0
-2.92163 0.24857 3.160315 -0.0122998233 0.999885632 -0.00879987355 0 0
-2.920236 0.24857 3.157932 -0.014601101 0.999875393 -0.00600045245 0 0
-2.926897 0.248553 3.155173 0.000499999928 0.999999855 0.000199999971 0 0
-2.923914 0.248552 3.154797 -0.000699999815 0.999999735 0.000199999947 0 0
-2.927813 0.248555 3.152446 0.000599999892 0.99999982 0 0 0
-2.924214 0.248553 3.152446 -0.000499999938 0.999999875 0 0 0
-2.921417 0.248557 3.154934 -0.00449995408 0.999989795 -0.000399995918 0 0
-2.919537 0.24857 3.155261 -0.014899793 0.999886112 -0.00239996666 0 0
-2.921391 0.248557 3.152446 -0.00419996296 0.99999118 0 0 0
-2.919361 0.24857 3.152446 -0.0144999256 0.999894871 0 0 0
-2.923546 0.248553 3.148331 -0.00109999925 0.999999315 0.000399999726 0 0
-2.921417 0.248557 3.149958 -0.00449995408 0.999989795 0.000399995918 0 0
-2.921886 0.248557 3.147644 -0.00439995028 0.9999887 0.00179997966 0 0
-2.923914 0.248552 3.150095 -0.000699999815 0.999999735 -0.000199999947 0 0
-2.919537 0.24857 3.149631 -0.014899793 0.999886112 0.00239996666 0 0
-2.920236 0.24857 3.14696 -0.014601101 0.999875393 0.00600045245 0 0
-2.926897 0.248553 3.149719 0.000499999928 0.999999855 -0.000199999971 0 0
-2.925054 0.248552 3.147344 -0.000399999896 0.99999974 0.000599999844 0 0
-2.929473 0.248555 3.148439 0.000399999936 0.99999984 -0.000399999936 0 0
-2.926928 0.248553 3.145894 -0.000399999936 0.99999984 0.000399999936 0 0
-2.923191 0.248557 3.145675 -0.00339996605 0.999990015 0.00289997104 0 0
-2.92163 0.24857 3.144577 -0.0122998233 0.999885632 0.00879987355 0 0
-2.924932 0.248557 3.143897 -0.00289997561 0.99999159 0.00289997561 0 0
-2.923497 0.24857 3.142462 -0.0101999587 0.999895955 0.0101999587 0 0
-2.929366 0.248553 3.142512 -0.000499999635 0.99999927 0.0010999992 0 0
-2.930993 0.248557 3.140382 -0.000399995918 0.999989795 0.00449995408 0 0
-2.931129 0.248552 3.14288 0.000199999947 0.999999735 0.000699999815 0 0
-2.928678 0.248557 3.140852 -0.00179997966 0.9999887 0.00439995028 0 0
-2.930665 0.24857 3.138503 -0.00239996666 0.999886112 0.014899793 0 0
-2.927994 0.24857 3.139202 -0.00600045245 0.999875393 0.014601101 0 0
-2.926709 0.248557 3.142157 -0.00289997104 0.999990015 0.00339996605 0 0
-2.928379 0.248552 3.144019 -0.000599999844 0.99999974 0.000399999896 0 0
-2.925611 0.24857 3.140596 -0.00879987355 0.999885632 0.0122998233 0 0
-2.930753 0.248553 3.145862 0.000199999971 0.999999855 -0.000499999928 0 0
-2.929366 0.243079 3.142512 -0.000499999635 -0.99999927 0.0010999992 0 0
-2.926709 0.243075 3.142157 -0.00289997104 -0.999990015 0.00339996605 0 0
-2.928379 0.24308 3.144019 -0.000599999844 -0.99999974 0.000399999896 0 0
-2.928678 0.243076 3.140852 -0.00179997966 -0.9999887 0.00439995028 0 0
-2.925611 0.243062 3.140596 -0.00879987355 -0.999885632 0.0122998233 0 0
-2.927994 0.243062 3.139202 -0.00600045245 -0.999875393 0.014601101 0 0
-2.924932 0.243075 3.143897 -0.00289997561 -0.99999159 0.00289997561 0 0
-2.926928 0.243079 3.145894 -0.000399999936 -0.99999984 0.000399999936 0 0
-2.923497 0.243062 3.142462 -0.0101999587 -0.999895955 0.0101999587 0 0
-2.930993 0.243075 3.140382 -0.000399995918 -0.999989795 0.00449995408 0 0
-2.931129 0.24308 3.14288 0.000199999947 -0.999999735 0.000699999815 0 0
-2.933481 0.243075 3.140356 0 -0.99999118 0.00419996296 0 0
-2.933481 0.243079 3.143179 0 -0.999999875 0.000499999938 0 0
-2.930665 0.243062 3.138503 -0.00239996666 -0.999886112 0.014899793 0 0
-2.933481 0.243062 3.138327 0 -0.999894871 0.0144999256 0 0
-2.930753 0.243079 3.145862 0.000199999971 -0.999999855 -0.000499999928 0 0
-2.929473 0.243077 3.148439 0.000399999936 -0.99999984 -0.000399999936 0 0
-2.933481 0.243077 3.146779 0 -0.99999982 -0.000599999892 0 0
-2.933481 0.243073 3.152446 0 -1 0 0 0
-2.923546 0.243079 3.148331 -0.0010999992 -0.99999927 0.000499999635 0 0
-2.923191 0.243075 3.145675 -0.00339996605 -0.999990015 0.00289997104 0 0
-2.921886 0.243076 3.147644 -0.00439995028 -0.9999887 0.00179997966 0 0
-2.925054 0.24308 3.147344 -0.000399999896 -0.99999974 0.000599999844 0 0
-2.92163 0.243062 3.144577 -0.0122998233 -0.999885632 0.00879987355 0 0
-2.920236 0.243062 3.14696 -0.014601101 -0.999875393 0.00600045245 0 0
-2.926897 0.243079 3.149719 0.000499999928 -0.999999855 -0.000199999971 0 0
-2.923914 0.24308 3.150095 -0.000699999815 -0.999999735 -0.000199999947 0 0
-2.927813 0.243077 3.152446 0.000599999892 -0.99999982 0 0 0
-2.924214 0.243079 3.152446 -0.000499999938 -0.999999875 0 0 0
-2.921417 0.243075 3.149958 -0.00439995706 -0.99999024 0.000399996096 0 0
-2.919537 0.243062 3.149631 -0.014899793 -0.999886112 0.00239996666 0 0
-2.921391 0.243075 3.152446 -0.00419996296 -0.99999118 0 0 0
-2.919361 0.243062 3.152446 -0.0144999256 -0.999894871 0 0 0
-2.923546 0.243079 3.156561 -0.0010999992 -0.99999927 -0.000499999635 0 0
-2.921417 0.243075 3.154934 -0.00449995408 -0.999989795 -0.000399995918 0 0
-2.921886 0.243076 3.157248 -0.00439995028 -0.9999887 -0.00179997966 0 0
-2.923914 0.24308 3.154797 -0.000699999815 -0.999999735 0.000199999947 0 0
-2.919537 0.243062 3.155261 -0.0149997692 -0.999884617 -0.00239996308 0 0
-2.920236 0.243062 3.157932 -0.014601101 -0.999875393 -0.00600045245 0 0
-2.926897 0.243079 3.155173 0.000499999928 -0.999999855 0.000199999971 0 0
-2.925054 0.24308 3.157548 -0.000399999896 -0.99999974 -0.000599999844 0 0
-2.929473 0.243077 3.156453 0.000399999936 -0.99999984 0.000399999936 0 0
-2.926928 0.243079 3.158998 -0.000399999936 -0.99999984 -0.000399999936 0 0
-2.923191 0.243075 3.159217 -0.00339996605 -0.999990015 -0.00289997104 0 0
-2.92163 0.243062 3.160315 -0.0122998233 -0.999885632 -0.00879987355 0 0
-2.924932 0.243075 3.160995 -0.00289997561 -0.99999159 -0.00289997561 0 0
-2.923497 0.243062 3.16243 -0.0101999587 -0.999895955 -0.0101999587 0 0
-2.929366 0.243079 3.16238 -0.000499999635 -0.99999927 -0.0010999992 0 0
-2.930993 0.243075 3.16451 -0.000399995918 -0.999989795 -0.00449995408 0 0
-2.931129 0.24308 3.162012 0.000199999947 -0.999999735 -0.000699999815 0 0
-2.928678 0.243076 3.16404 -0.00179997966 -0.9999887 -0.00439995028 0 0
-2.930665 0.243062 3.16639 -0.00239996666 -0.999886112 -0.014899793 0 0
-2.927994 0.243062 3.16569 -0.00600045245 -0.999875393 -0.014601101 0 0
-2.933481 0.243075 3.164536 0 -0.99999118 -0.00419996296 0 0
-2.933481 0.243079 3.161713 0 -0.999999875 -0.000499999938 0 0
-2.933481 0.243062 3.166565 0 -0.999894871 -0.0144999256 0 0
-2.926709 0.243075 3.162735 -0.00289997104 -0.999990015 -0.00339996605 0 0
-2.928379 0.24308 3.160873 -0.000599999844 -0.99999974 -0.000399999896 0 0
-2.925611 0.243062 3.164296 -0.00879987355 -0.999885632 -0.0122998233 0 0
-2.930753 0.243079 3.15903 0.000199999971 -0.999999855 0.000499999928 0 0
-2.933481 0.243077 3.158113 0 -0.99999982 0.000599999892 0 0
-2.937595 0.243079 3.16238 0.000499999635 -0.99999927 -0.0010999992 0 0
-2.935968 0.243075 3.16451 0.000399995918 -0.999989795 -0.00449995408 0 0
-2.938283 0.243076 3.16404 0.00179997966 -0.9999887 -0.00439995028 0 0
-2.935832 0.24308 3.162012 -0.000199999947 -0.999999735 -0.000699999815 0 0
-2.936296 0.243062 3.166389 0.00239996666 -0.999886112 -0.014899793 0 0
-2.938967 0.243062 3.16569 0.00600045245 -0.999875393 -0.014601101 0 0
-2.936208 0.243079 3.15903 -0.000199999971 -0.999999855 0.000499999928 0 0
-2.938582 0.24308 3.160873 0.000599999844 -0.99999974 -0.000399999896 0 0
-2.937488 0.243077 3.156453 -0.000399999936 -0.99999984 0.000399999936 0 0
-2.940033 0.243079 3.158998 0.000399999936 -0.99999984 -0.000399999936 0 0
-2.940252 0.243075 3.162735 0.00289997104 -0.999990015 -0.00339996605 0 0
-2.94135 0.243062 3.164296 0.00879987355 -0.999885632 -0.0122998233 0 0
-2.942029 0.243075 3.160995 0.00289997561 -0.99999159 -0.00289997561 0 0
-2.943464 0.243062 3.16243 0.0101999587 -0.999895955 -0.0101999587 0 0
-2.943415 0.243079 3.156561 0.0010999992 -0.99999927 -0.000499999635 0 0
-2.94377 0.243075 3.159217 0.00339996605 -0.999990015 -0.00289997104 0 0
-2.945075 0.243076 3.157248 0.00439995028 -0.9999887 -0.00179997966 0 0
-2.941907 0.24308 3.157548 0.000399999896 -0.99999974 -0.000599999844 0 0
-2.945331 0.243062 3.160315 0.0122998233 -0.999885632 -0.00879987355 0 0
-2.946725 0.243062 3.157932 0.014601101 -0.999875393 -0.00600045245 0 0
-2.940064 0.243079 3.155173 -0.000499999928 -0.999999855 0.000199999971 0 0
-2.943047 0.24308 3.154797 0.000699999815 -0.999999735 0.000199999947 0 0
-2.939148 0.243077 3.152446 -0.000599999892 -0.99999982 0 0 0
-2.942747 0.243079 3.152446 0.000499999938 -0.999999875 0 0 0
-2.945544 0.243075 3.154934 0.00449995408 -0.999989795 -0.000399995918 0 0
-2.947424 0.243062 3.155261 0.014899793 -0.999886112 -0.00239996666 0 0
-2.94557 0.243075 3.152446 0.00419996296 -0.99999118 0 0 0
-2.9476 0.243062 3.152446 0.0144999256 -0.999894871 0 0 0
-2.943415 0.243079 3.148331 0.0010999992 -0.99999927 0.000499999635 0 0
-2.94377 0.243075 3.145675 0.00339996605 -0.999990015 0.00289997104 0 0
-2.941907 0.24308 3.147344 0.000399999896 -0.99999974 0.000599999844 0 0
-2.945075 0.243076 3.147644 0.00439995028 -0.9999887 0.00179997966 0 0
-2.945331 0.243062 3.144577 0.0122998233 -0.999885632 0.00879987355 0 0
-2.946725 0.243062 3.14696 0.014601101 -0.999875393 0.00600045245 0 0
-2.942029 0.243075 3.143897 0.00289997561 -0.99999159 0.00289997561 0 0
-2.940033 0.243079 3.145894 0.000399999936 -0.99999984 0.000399999936 0 0
-2.943464 0.243062 3.142462 0.0101999587 -0.999895955 0.0101999587 0 0
-2.945544 0.243075 3.149958 0.00449995408 -0.999989795 0.000399995918 0 0
-2.943047 0.24308 3.150095 0.000699999815 -0.999999735 -0.000199999947 0 0
-2.947424 0.243062 3.149631 0.014899793 -0.999886112 0.00239996666 0 0
-2.940064 0.243079 3.149719 -0.000499999928 -0.999999855 -0.000199999971 0 0
-2.937488 0.243077 3.148439 -0.000399999936 -0.99999984 -0.000399999936 0 0
-2.937595 0.243079 3.142512 0.000499999635 -0.99999927 0.0010999992 0 0
-2.940252 0.243075 3.142157 0.00289997104 -0.999990015 0.00339996605 0 0
-2.938283 0.243076 3.140852 0.00179997966 -0.9999887 0.00439995028 0 0
-2.938582 0.24308 3.144019 0.000599999844 -0.99999974 0.000399999896 0 0
-2.94135 0.243062 3.140596 0.00879987355 -0.999885632 0.0122998233 0 0
-2.938967 0.243062 3.139202 0.00600045245 -0.999875393 0.014601101 0 0
-2.936208 0.243079 3.145862 -0.000199999971 -0.999999855 -0.000499999928 0 0
-2.935832 0.24308 3.14288 -0.000199999947 -0.999999735 0.000699999815 0 0
-2.935968 0.243075 3.140382 0.000399996096 -0.99999024 0.00439995706 0 0
-2.936296 0.243062 3.138502 0.00239996666 -0.999886112 0.014899793 0 0
3 0 1 2
3 0 3 1
3 3 4 1
3 3 5 4
3 2 6 7
3 2 1 6
3 1 8 6
3 1 4 8
3 0 9 3
3 0 10 9
3 10 11 9
3 10 12 11
3 3 13 5
3 3 9 13
3 9 14 13
3 9 11 14
3 0 15 10
3 0 2 15
3 2 16 15
3 2 7 16
3 10 17 12
3 10 15 17
3 15 18 17
3 15 16 18
3 19 20 21
3 19 22 20
3 22 23 20
3 22 24 23
3 21 25 26
3 21 20 25
3 20 27 25
3 20 23 27
3 19 28 22
3 19 29 28
3 29 17 28
3 29 12 17
3 22 30 24
3 22 28 30
3 28 18 30
3 28 17 18
3 19 31 29
3 19 21 31
3 21 32 31
3 21 26 32
3 29 11 12
3 29 31 11
3 31 14 11
3 31 32 14
3 33 34 35
3 33 36 34
3 36 25 34
3 36 26 25
3 35 37 38
3 35 34 37
3 34 27 37
3 34 25 27
3 33 39 36
3 33 40 39
3 40 41 39
3 40 42 41
3 36 32 26
3 36 39 32
3 39 14 32
3 39 41 14
3 33 43 40
3 33 35 43
3 35 44 43
3 35 38 44
3 40 45 42
3 40 43 45
3 43 46 45
3 43 44 46
3 47 48 49
3 47 50 48
3 50 45 48
3 50 42 45
3 49 51 52
3 49 48 51
3 48 46 51
3 48 45 46
3 47 53 50
3 47 54 53
3 54 55 53
3 54 56 55
3 50 41 42
3 50 53 41
3 53 14 41
3 53 55 14
3 47 57 54
3 47 49 57
3 49 58 57
3 49 52 58
3 54 59 56
3 54 57 59
3 57 60 59
3 57 58 60
3 61 62 63
3 61 64 62
3 64 65 62
3 64 66 65
3 63 67 68
3 63 62 67
3 62 69 67
3 62 65 69
3 61 70 64
3 61 71 70
3 71 59 70
3 71 56 59
3 64 72 66
3 64 70 72
3 70 60 72
3 70 59 60
3 61 73 71
3 61 63 73
3 63 74 73
3 63 68 74
3 71 55 56
3 71 73 55
3 73 14 55
3 73 74 14
3 75 76 77
3 75 78 76
3 78 67 76
3 78 68 67
3 77 79 80
3 77 76 79
3 76 69 79
3 76 67 69
3 75 81 78
3 75 82 81
3 82 83 81
3 82 84 83
3 78 74 68
3 78 81 74
3 81 14 74
3 81 83 14
3 75 85 82
3 75 77 85
3 77 86 85
3 77 80 86
3 82 87 84
3 82 85 87
3 85 88 87
3 85 86 88
3 89 90 91
3 89 92 90
3 92 87 90
3 92 84 87
3 91 93 94
3 91 90 93
3 90 88 93
3 90 87 88
3 89 95 92
3 89 96 95
3 96 97 95
3 96 98 97
3 92 83 84
3 92 95 83
3 95 14 83
3 95 97 14
3 89 99 96
3 89 91 99
3 91 100 99
3 91 94 100
3 96 101 98
3 96 99 101
3 99 102 101
3 99 100 102
3 103 104 105
3 103 106 104
3 106 107 104
3 106 108 107
3 105 4 5
3 105 104 4
3 104 8 4
3 104 107 8
3 103 109 106
3 103 110 109
3 110 101 109
3 110 98 101
3 106 111 108
3 106 109 111
3 109 102 111
3 109 101 102
3 103 112 110
3 103 105 112
3 105 13 112
3 105 5 13
3 110 97 98
3 110 112 97
3 112 14 97
3 112 13 14
3 113 114 115
3 113 116 114
3 116 117 114
3 116 118 117
3 115 119 120
3 115 114 119
3 114 121 119
3 114 117 121
3 113 122 116
3 113 123 122
3 123 124 122
3 123 125 124
3 116 126 118
3 116 122 126
3 122 127 126
3 122 124 127
3 113 128 123
3 113 115 128
3 115 129 128
3 115 120 129
3 123 130 125
3 123 128 130
3 128 131 130
3 128 129 131
3 132 133 134
3 132 135 133
3 135 119 133
3 135 120 119
3 134 136 137
3 134 133 136
3 133 121 136
3 133 119 121
3 132 138 135
3 132 139 138
3 139 140 138
3 139 141 140
3 135 129 120
3 135 138 129
3 138 131 129
3 138 140 131
3 132 142 139
3 132 134 142
3 134 143 142
3 134 137 143
3 139 144 141
3 139 142 144
3 142 145 144
3 142 143 145
3 146 147 148
3 146 149 147
3 149 144 147
3 149 141 144
3 148 150 151
3 148 147 150
3 147 145 150
3 147 144 145
3 146 152 149
3 146 153 152
3 153 154 152
3 153 155 154
3 149 140 141
3 149 152 140
3 152 131 140
3 152 154 131
3 146 156 153
3 146 148 156
3 148 157 156
3 148 151 157
3 153 158 155
3 153 156 158
3 156 159 158
3 156 157 159
3 160 161 162
3 160 163 161
3 163 164 161
3 163 165 164
3 162 166 167
3 162 161 166
3 161 168 166
3 161 164 168
3 160 169 163
3 160 170 169
3 170 158 169
3 170 155 158
3 163 171 165
3 163 169 171
3 169 159 171
3 169 158 159
3 160 172 170
3 160 162 172
3 162 173 172
3 162 167 173
3 170 154 155
3 170 172 154
3 172 131 154
3 172 173 131
3 174 175 176
3 174 177 175
3 177 166 175
3 177 167 166
3 176 178 179
3 176 175 178
3 175 168 178
3 175 166 168
3 174 180 177
3 174 181 180
3 181 182 180
3 181 183 182
3 177 173 167
3 177 180 173
3 180 131 173
3 180 182 131
3 174 184 181
3 174 176 184
3 176 185 184
3 176 179 185
3 181 186 183
3 181 184 186
3 184 187 186
3 184 185 187
3 188 189 190
3 188 191 189
3 191 186 189
3 191 183 186
3 190 192 193
3 190 189 192
3 189 187 192
3 189 186 187
3 188 194 191
3 188 195 194
3 195 196 194
3 195 197 196
3 191 182 183
3 191 194 182
3 194 131 182
3 194 196 131
3 188 198 195
3 188 190 198
3 190 199 198
3 190 193 199
3 195 200 197
3 195 198 200
3 198 201 200
3 198 199 201
3 202 203 204
3 202 205 203
3 205 206 203
3 205 207 206
3 204 208 209
3 204 203 208
3 203 210 208
3 203 206 210
3 202 211 205
3 202 212 211
3 212 200 211
3 212 197 200
3 205 213 207
3 205 211 213
3 211 201 213
3 211 200 201
3 202 214 212
3 202 204 214
3 204 215 214
3 204 209 215
3 212 196 197
3 212 214 196
3 214 131 196
3 214 215 131
3 216 217 218
3 216 219 217
3 219 208 217
3 219 209 208
3 218 220 221
3 218 217 220
3 217 210 220
3 217 208 210
3 216 222 219
3 216 223 222
3 223 130 222
3 223 125 130
3 219 215 209
3 219 222 215
3 222 131 215
3 222 130 131
3 216 224 223
3 216 218 224
3 218 225 224
3 218 221 225
3 223 124 125
3 223 224 124
3 224 127 124
3 224 225 127
