ply
format ascii 1.0
element vertex 387
property float x
property float y
property float z
property float nx
property float ny
property float nz
property float u
property float v
element face 720
property list uchar int vertex_indices
end_header
-2.916588 0.148777 3.165014 0.728839384 -0.415722464 0.544029397 0 0
-2.912067 0.153136 3.159692 0.915796383 -0.255498991 0.309898776 0 0
-2.91537 0.153136 3.165919 0.774849216 -0.255216211 0.578336734 0 0
-2.913506 0.148777 3.159205 0.861383543 -0.415992053 0.291494431 0 0
-2.915764 0.144719 3.158441 0.754300173 -0.604900139 0.255200059 0 0
-2.918498 0.144719 3.163593 0.638323934 -0.604622671 0.476417864 0 0
-2.922662 0.144719 3.167681 0.459536567 -0.604548106 0.650651774 0 0
-2.921283 0.148777 3.169622 0.52467373 -0.415779182 0.742862806 0 0
-2.920404 0.153136 3.17086 0.557815335 -0.255307018 0.78972171 0 0
-2.914723 0.157452 3.166401 0.795805201 -0.117700769 0.594003882 0 0
-2.911086 0.161748 3.160024 0.947243531 0 0.32051473 0 0
-2.914541 0.161748 3.166536 0.801365863 0 0.598174518 0 0
-2.911301 0.157452 3.159951 0.940626498 -0.117903321 0.318308967 0 0
-2.919936 0.157452 3.171519 0.572914062 -0.117702889 0.811119909 0 0
-2.919805 0.161748 3.171703 0.576906966 0 0.816809863 0 0
-2.914723 0.166043 3.166401 0.795805201 0.117700769 0.594003882 0 0
-2.912067 0.170359 3.159692 0.915796383 0.255498991 0.309898776 0 0
-2.91537 0.170359 3.165919 0.774849216 0.255216211 0.578336734 0 0
-2.911301 0.166043 3.159951 0.940626498 0.117903321 0.318308967 0 0
-2.919936 0.166043 3.171519 0.572914062 0.117702889 0.811119909 0 0
-2.920404 0.170359 3.17086 0.557815335 0.255307018 0.78972171 0 0
-2.916588 0.174718 3.165014 0.739623239 0.385012097 0.552017345 0 0
-2.915067 0.178038 3.158677 0.77491594 0.57511183 0.262205394 0 0
-2.917908 0.178038 3.164032 0.655711521 0.574910101 0.489408599 0 0
-2.913506 0.174718 3.159205 0.874098016 0.385299125 0.295799329 0 0
-2.921283 0.174718 3.169622 0.532408995 0.385106506 0.753812736 0 0
-2.922236 0.178038 3.16828 0.472092444 0.574790801 0.668389303 0 0
-2.927201 0.174718 3.172509 0.273494887 0.384492812 0.881683517 0 0
-2.927691 0.178038 3.170941 0.242505717 0.574413542 0.781818432 0 0
-2.926748 0.170359 3.173954 0.286493948 0.254794618 0.923580489 0 0
-2.933736 0.170359 3.174995 -0.0124998383 0.254896703 0.966887493 0 0
-2.933718 0.174718 3.173479 -0.0119000728 0.384602352 0.923005644 0 0
-2.9337 0.178038 3.171836 -0.0105004103 0.574222438 0.818631989 0 0
-2.926507 0.166043 3.174724 0.294198214 0.117499287 0.948494243 0 0
-2.92644 0.161748 3.174939 0.296298563 0 0.955095368 0 0
-2.933747 0.161748 3.176027 -0.0129002166 0 0.999916789 0 0
-2.933745 0.166043 3.175801 -0.0127997274 0.117597495 0.99297885 0 0
-2.926507 0.157452 3.174724 0.294198214 -0.117499287 0.948494243 0 0
-2.926748 0.153136 3.173954 0.286493948 -0.254794618 0.923580489 0 0
-2.933736 0.153136 3.174995 -0.0124998383 -0.254896703 0.966887493 0 0
-2.933745 0.157452 3.175801 -0.0127997274 -0.117597495 0.99297885 0 0
-2.927201 0.148777 3.172509 0.269498855 -0.415198235 0.868896307 0 0
-2.927911 0.144719 3.170241 0.236105521 -0.604114127 0.761117799 0 0
-2.933692 0.144719 3.171101 -0.0103001457 -0.604008547 0.796911276 0 0
-2.933718 0.148777 3.173479 -0.0117000986 -0.415303501 0.909607668 0 0
-2.940212 0.148777 3.17234 -0.291618692 -0.414926596 0.861855242 0 0
-2.940697 0.153136 3.173774 -0.309913145 -0.2546108 0.916038855 0 0
-2.939451 0.144719 3.170091 -0.255511505 -0.603727183 0.755134001 0 0
-2.944641 0.144719 3.167396 -0.475714545 -0.604018468 0.639419551 0 0
-2.946063 0.148777 3.169302 -0.543041251 -0.415231542 0.729855442 0 0
-2.94697 0.153136 3.170517 -0.577200147 -0.254900065 0.775800198 0 0
-2.940955 0.157452 3.174537 -0.31829775 -0.11739917 0.940693349 0 0
-2.941028 0.161748 3.174751 -0.32051473 0 0.947243531 0 0
-2.947453 0.157452 3.171163 -0.592808154 -0.117601618 0.796710959 0 0
-2.947588 0.161748 3.171344 -0.596907491 0 0.802310069 0 0
-2.940955 0.166043 3.174537 -0.31829775 0.11739917 0.940693349 0 0
-2.940697 0.170359 3.173774 -0.309913145 0.2546108 0.916038855 0 0
-2.947453 0.166043 3.171163 -0.592808154 0.117601618 0.796710959 0 0
-2.94697 0.170359 3.170517 -0.577200147 0.254900065 0.775800198 0 0
-2.940212 0.174718 3.17234 -0.295912325 0.384216003 0.874536425 0 0
-2.939686 0.178038 3.170786 -0.262400009 0.57410002 0.775600027 0 0
-2.946063 0.174718 3.169302 -0.550998204 0.384598746 0.740597586 0 0
-2.94508 0.178038 3.167985 -0.48869159 0.574290117 0.656788697 0 0
-2.950653 0.174718 3.164573 -0.752707188 0.384503672 0.534405104 0 0
-2.949311 0.178038 3.163626 -0.667420247 0.574417425 0.473914376 0 0
-2.95189 0.170359 3.165447 -0.788449816 0.2548161 0.559835372 0 0
-2.955052 0.170359 3.159136 -0.922769201 0.25521914 0.288721652 0 0
-2.953602 0.174718 3.158686 -0.880748504 0.385121209 0.275615179 0 0
-2.95203 0.178038 3.158199 -0.78092686 0.574819771 0.244408407 0 0
-2.952549 0.166043 3.165912 -0.809728199 0.117504092 0.574920022 0 0
-2.952733 0.161748 3.166042 -0.815399034 0 0.578899314 0 0
-2.95604 0.161748 3.159442 -0.954371366 0 0.29862233 0 0
-2.955824 0.166043 3.159375 -0.947746995 0.117705837 0.296514703 0 0
-2.952549 0.157452 3.165912 -0.809728199 -0.117504092 0.574920022 0 0
-2.95189 0.153136 3.165447 -0.788449816 -0.2548161 0.559835372 0 0
-2.955052 0.153136 3.159136 -0.922769201 -0.25521914 0.288721652 0 0
-2.955824 0.157452 3.159375 -0.947746995 -0.117705837 0.296514703 0 0
-2.950653 0.148777 3.164573 -0.741728624 -0.415216023 0.526720327 0 0
-2.948711 0.144719 3.163202 -0.649750491 -0.604146947 0.461335849 0 0
-2.951327 0.144719 3.157981 -0.760230144 -0.60452397 0.237909433 0 0
-2.953602 0.148777 3.158686 -0.867940529 -0.415819417 0.271612683 0 0
-2.954534 0.148777 3.152174 -0.909122828 -0.416410456 -0.0099002486 0 0
-2.956051 0.153136 3.152154 -0.96590169 -0.258800453 -0.00750001313 0 0
-2.952154 0.144719 3.152205 -0.796485576 -0.604589051 -0.0090998352 0 0
-2.951197 0.144719 3.146457 -0.754588904 -0.603991118 -0.256496228 0 0
-2.953455 0.148776 3.145709 -0.860276872 -0.417788768 -0.292192145 0 0
-2.954934 0.153135 3.145268 -0.914103848 -0.269901136 -0.302601274 0 0
-2.956858 0.157452 3.152144 -0.992451966 -0.12260642 -0.00260013615 0 0
-2.957084 0.161748 3.152141 -0.99999998 0 0.000199999996 0 0
-2.95582 0.157452 3.145101 -0.945309387 -0.138301373 -0.295402933 0 0
-2.956115 0.161747 3.145088 -0.957354212 0.000500028315 -0.28891636 0 0
-2.956858 0.166043 3.152144 -0.992451966 0.12260642 -0.00260013615 0 0
-2.956051 0.170359 3.152154 -0.965900222 0.25880006 -0.00770000177 0 0
-2.95582 0.166043 3.145108 -0.945017956 0.139002641 -0.296005624 0 0
-2.954934 0.170359 3.145279 -0.913777425 0.269893332 -0.3035925 0 0
-2.954534 0.174718 3.152174 -0.922609166 0.385603831 -0.0101001003 0 0
-2.952889 0.178038 3.152195 -0.81822674 0.574818785 -0.00940030721 0 0
-2.953455 0.174718 3.145717 -0.873143305 0.386219155 -0.297414751 0 0
-2.951894 0.178038 3.146223 -0.775845897 0.572933893 -0.26421563 0 0
-2.950373 0.174718 3.139997 -0.741615556 0.391808218 -0.544511421 0 0
-2.949053 0.178038 3.14089 -0.658528416 0.570124601 -0.491221197 0 0
-2.951751 0.170359 3.139288 -0.785003116 0.299101187 -0.542502154 0 0
-2.946686 0.170676 3.1338 -0.626104452 0.393602799 -0.673104786 0 0
-2.945678 0.175044 3.135543 -0.55018394 0.422487668 -0.720278975 0 0
-2.944725 0.178119 3.13668 -0.478509393 0.584011464 -0.655712872 0 0
-2.952878 0.166043 3.139161 -0.835196977 0.168199391 -0.523598105 0 0
-2.95338 0.161747 3.139235 -0.860039872 0.00180008345 -0.510223655 0 0
-2.950033 0.161713 3.134561 -0.791920757 0.00310008125 -0.610616004 0 0
-2.949311 0.166008 3.134402 -0.753912869 0.207903549 -0.623210638 0 0
-2.952878 0.15745 3.139131 -0.836885769 -0.165397187 -0.521791127 0 0
-2.951751 0.153132 3.139244 -0.787138016 -0.299414461 -0.539226043 0 0
-2.946686 0.152719 3.133723 -0.635506752 -0.396504213 -0.662507039 0 0
-2.949311 0.157417 3.134357 -0.758418672 -0.203405008 -0.619215245 0 0
-2.950373 0.148774 3.139967 -0.731625541 -0.426114876 -0.532118577 0 0
-2.948463 0.144718 3.141321 -0.640625401 -0.60352393 -0.474718823 0 0
-2.944299 0.144623 3.137269 -0.470208262 -0.616110825 -0.631911103 0 0
-2.945678 0.148395 3.135499 -0.547410341 -0.463908763 -0.696513157 0 0
-2.93976 0.147266 3.132857 -0.307496001 -0.533993055 -0.787589757 0 0
-2.939859 0.149545 3.131444 -0.35989508 -0.590691925 -0.722190128 0 0
-2.93905 0.144341 3.13477 -0.251505294 -0.650213687 -0.716915091 0 0
-2.93327 0.144153 3.13394 0.00729987977 -0.673788903 -0.738887831 0 0
-2.933243 0.146514 3.132012 0.00620047172 -0.582144288 -0.813061856 0 0
-2.933259 0.148306 3.130729 0.00540048266 -0.662359198 -0.749166956 0 0
-2.93976 0.176019 3.132886 -0.303499109 0.4768986 -0.824897579 0 0
-2.93927 0.178363 3.134077 -0.249790703 0.628776597 -0.736372593 0 0
-2.939859 0.17357 3.131488 -0.34590362 0.574906016 -0.74150776 0 0
-2.933259 0.174656 3.13074 0.00280003044 0.637906934 -0.770108371 0 0
-2.933243 0.17667 3.132019 0.00449988978 0.517487324 -0.85567904 0 0
-2.933261 0.178526 3.133208 0.0063002759 0.662729022 -0.748832792 0 0
-2.926749 0.176019 3.132936 0.314003999 0.49230627 -0.811810338 0 0
-2.927275 0.178363 3.134202 0.261793887 0.641485021 -0.721083163 0 0
-2.926681 0.17357 3.131467 0.351215122 0.569824534 -0.742931988 0 0
-2.919944 0.170676 3.133798 0.640490297 0.376594295 -0.66928986 0 0
-2.920898 0.175044 3.135686 0.565087424 0.437490264 -0.699484433 0 0
-2.921881 0.178119 3.136931 0.489211289 0.59891382 -0.63401463 0 0
-2.926749 0.147269 3.132936 0.320719985 -0.542033775 -0.776748401 0 0
-2.926681 0.149549 3.131467 0.368504022 -0.58360637 -0.723607898 0 0
-2.92751 0.144342 3.134897 0.265925537 -0.655562953 -0.706767871 0 0
-2.92232 0.144624 3.13752 0.483501716 -0.622302209 -0.615602185 0 0
-2.920898 0.1484 3.135686 0.563343464 -0.47153638 -0.678452345 0 0
-2.919944 0.152727 3.133798 0.649714196 -0.378908279 -0.6590144 0 0
-2.916308 0.148777 3.140319 0.745394372 -0.428696763 -0.510496146 0 0
-2.914968 0.153136 3.139561 0.803289501 -0.285696266 -0.52259317 0 0
-2.91825 0.144719 3.14169 0.6511551 -0.606651334 -0.456038589 0 0
-2.915634 0.144719 3.146911 0.760184185 -0.604587422 -0.237895051 0 0
-2.913359 0.148777 3.146206 0.86739061 -0.417495481 -0.270797069 0 0
-2.911883 0.153136 3.145785 0.922137357 -0.263110659 -0.283611489 0 0
-2.914003 0.157452 3.139444 0.846467132 -0.142994448 -0.512880085 0 0
-2.917084 0.161715 3.134645 0.798244428 0.000400022264 -0.602333524 0 0
-2.913614 0.161748 3.139546 0.863408712 0.000100001009 -0.50450509 0 0
-2.917637 0.157421 3.134449 0.770130259 -0.17460686 -0.613524106 0 0
-2.911035 0.157452 3.145633 0.950614611 -0.128101969 -0.282704345 0 0
-2.910768 0.161748 3.145624 0.96011528 0 -0.27960445 0 0
-2.914003 0.166043 3.139444 0.845956402 0.143309555 -0.513634245 0 0
-2.914968 0.170359 3.139561 0.802303775 0.285701344 -0.524102466 0 0
-2.917637 0.166008 3.134449 0.766799229 0.174899824 -0.617599379 0 0
-2.911035 0.166043 3.145633 0.950614611 0.128101969 -0.282704345 0 0
-2.911883 0.170359 3.145785 0.922137357 0.263110659 -0.283611489 0 0
-2.916308 0.174718 3.140319 0.755426845 0.398114147 -0.520418493 0 0
-2.91765 0.178038 3.141266 0.66735831 0.578150515 -0.469441017 0 0
-2.913359 0.174718 3.146206 0.880252236 0.386822955 -0.274816308 0 0
-2.914931 0.178038 3.146693 0.78092686 0.574819771 -0.244408407 0 0
-2.912427 0.174718 3.152718 0.922636989 0.385515456 0.010900437 0 0
-2.91091 0.170359 3.152738 0.966187642 0.257496707 0.0132998299 0 0
-2.914072 0.178038 3.152697 0.818100368 0.575000259 0.00930000419 0 0
-2.910103 0.166043 3.152748 0.992546164 0.120705614 0.0168007814 0 0
-2.909877 0.161748 3.152751 0.999825131 0 0.01870047 0 0
-2.910103 0.157452 3.152748 0.992546164 -0.120705614 0.0168007814 0 0
-2.91091 0.153136 3.152738 0.966187642 -0.257496707 0.0132998299 0 0
-2.912427 0.148777 3.152718 0.909208378 -0.416203835 0.0107000986 0 0
-2.914807 0.144719 3.152688 0.796449732 -0.604637755 0.00900056201 0 0
-2.918204 0.141306 3.152644 0.655316075 -0.755318528 0.00740018153 0 0
-2.918986 0.141306 3.157351 0.620435512 -0.75564325 0.209912015 0 0
-2.91888 0.141306 3.147918 0.625430728 -0.755337111 -0.195709615 0 0
-2.921967 0.138951 3.148875 0.492636121 -0.856462798 -0.154211307 0 0
-2.921433 0.138951 3.152602 0.516030475 -0.856550585 0.00580034255 0 0
-2.922051 0.138951 3.156314 0.488602702 -0.856704738 0.165300914 0 0
-2.92102 0.141306 3.143646 0.534826223 -0.755737055 -0.37791853 0 0
-2.92435 0.141306 3.140215 0.392392001 -0.760484498 -0.517389453 0 0
-2.92628 0.138951 3.142801 0.308504223 -0.85611172 -0.414605676 0 0
-2.923654 0.138951 3.145507 0.421210806 -0.856221967 -0.299107674 0 0
-2.928596 0.141306 3.13801 0.211706277 -0.769122805 -0.60301788 0 0
-2.933308 0.141306 3.137184 0.00779985504 -0.77428561 -0.63278824 0 0
-2.933344 0.138951 3.14041 0.0067002312 -0.856129541 -0.51671783 0 0
-2.929628 0.138951 3.141062 0.165700118 -0.856000608 -0.489700348 0 0
-2.938037 0.141306 3.137888 -0.196900069 -0.768500269 -0.608800213 0 0
-2.942332 0.141306 3.139982 -0.379817882 -0.759835774 -0.527624841 0 0
-2.94046 0.138951 3.142617 -0.297809427 -0.856427111 -0.42171335 0 0
-2.937074 0.138951 3.140966 -0.153005279 -0.85622954 -0.493417023 0 0
-2.945739 0.141306 3.143327 -0.525621916 -0.755531503 -0.391016304 0 0
-2.947975 0.141306 3.147542 -0.62061317 -0.75541603 -0.210204461 0 0
-2.94491 0.138951 3.148578 -0.488678824 -0.856662877 -0.165292837 0 0
-2.943147 0.138951 3.145255 -0.413609741 -0.856520171 -0.30870727 0 0
-2.948757 0.141306 3.152248 -0.655316075 -0.755318528 -0.00740018153 0 0
-2.948081 0.141306 3.156974 -0.625430728 -0.755337111 0.195709615 0 0
-2.944994 0.138951 3.156017 -0.492636121 -0.856462798 0.154211307 0 0
-2.945528 0.138951 3.15229 -0.516030475 -0.856550585 -0.00580034255 0 0
-2.945941 0.141306 3.161246 -0.534825092 -0.754835414 0.379717815 0 0
-2.942611 0.141306 3.164677 -0.391523153 -0.754844639 0.52623112 0 0
-2.940681 0.138951 3.162091 -0.308504223 -0.85611172 0.414605676 0 0
-2.943307 0.138951 3.159385 -0.421210806 -0.856221967 0.299107674 0 0
-2.938365 0.141306 3.166882 -0.210312314 -0.75454418 0.621636398 0 0
-2.933653 0.141306 3.167708 -0.0085005571 -0.754849471 0.655842982 0 0
-2.933617 0.138951 3.164482 -0.0067002312 -0.856129541 0.51671783 0 0
-2.937333 0.138951 3.16383 -0.165700118 -0.856000608 0.489700348 0 0
-2.928924 0.141306 3.167004 0.194302159 -0.754808386 0.626506961 0 0
-2.924629 0.141306 3.16491 0.378103065 -0.755306122 0.535304339 0 0
-2.926501 0.138951 3.162275 0.297809427 -0.856427111 0.42171335 0 0
-2.929887 0.138951 3.163926 0.153005279 -0.85622954 0.493417023 0 0
-2.921222 0.141306 3.161566 0.525206006 -0.755308637 0.392004483 0 0
-2.923814 0.138951 3.159637 0.413609741 -0.856520171 0.30870727 0 0
-2.93904 0.172379 3.129856 -0.362500975 0.800902154 -0.476601282 0 0
-2.943727 0.169666 3.130543 -0.620920103 0.574018584 -0.533817283 0 0
-2.941993 0.169479 3.12717 -0.673470062 0.703468728 -0.227089905 0 0
-2.938081 0.171958 3.126998 -0.362823575 0.919059718 -0.153910001 0 0
-2.933448 0.172896 3.126892 -0.00199996104 0.991380688 -0.130997448 0 0
-2.933351 0.173472 3.129431 -0.00159996139 0.888078571 -0.459688908 0 0
-2.927675 0.172379 3.129829 0.362013422 0.788429232 -0.497318438 0 0
-2.928819 0.171958 3.126992 0.361503951 0.917510028 -0.165801812 0 0
-2.924926 0.169479 3.127161 0.676114151 0.695814564 -0.242305071 0 0
-2.923064 0.169666 3.130505 0.626008939 0.54900784 -0.553807908 0 0
-2.920568 0.165903 3.130913 0.787014855 0.254904811 -0.561810604 0 0
-2.922502 0.165799 3.127263 0.887219759 0.357907971 -0.291106483 0 0
-2.921657 0.161516 3.127297 0.955497014 -0.000999996875 -0.294999078 0 0
-2.919849 0.161615 3.13105 0.837122833 0.000200005455 -0.54701492 0 0
-2.920568 0.157328 3.130913 0.793506074 -0.256201961 -0.552004226 0 0
-2.922502 0.157234 3.127263 0.889505631 -0.360302281 -0.281001779 0 0
-2.924926 0.15354 3.127161 0.681699342 -0.695199329 -0.22799978 0 0
-2.923064 0.153513 3.130505 0.639720922 -0.552118057 -0.534717488 0 0
-2.927675 0.150645 3.129829 0.377916547 -0.791134641 -0.480921058 0 0
-2.933351 0.149447 3.129423 -0.000400007288 -0.892216256 -0.451608228 0 0
-2.928819 0.151023 3.126992 0.369395787 -0.915289561 -0.160598168 0 0
-2.933448 0.150059 3.12689 -0.00180010955 -0.991260325 -0.131908028 0 0
-2.93904 0.150642 3.129826 -0.376310685 -0.803422814 -0.461413102 0 0
-2.943727 0.153509 3.130498 -0.633833797 -0.575630693 -0.516627547 0 0
-2.938081 0.151022 3.126991 -0.370116576 -0.916941066 -0.149106678 0 0
-2.941993 0.153539 3.127159 -0.678688578 -0.702588176 -0.2138964 0 0
-2.946399 0.157325 3.130902 -0.785907682 -0.281002747 -0.550805384 0 0
-2.947231 0.161615 3.131044 -0.830429489 0.00210007457 -0.557119784 0 0
-2.944461 0.157233 3.12726 -0.885844041 -0.371318461 -0.278213832 0 0
-2.945334 0.161516 3.127295 -0.953431287 -0.000500016408 -0.301609897 0 0
-2.946399 0.165903 3.130932 -0.7791994 0.282899782 -0.559299569 0 0
-2.944461 0.165799 3.127267 -0.883541267 0.369717268 -0.287513429 0 0
-2.937761 0.171817 3.121925 -0.377894018 0.925685347 0.0173997246 0 0
-2.933481 0.172704 3.121925 -0.000400013229 0.999733062 0.023100764 0 0
-2.941415 0.169417 3.121925 -0.701887064 0.712286873 0.0013999742 0 0
-2.941698 0.169701 3.117288 -0.654612461 0.654612461 0.378107197 0 0
-2.937914 0.172186 3.117288 -0.354511931 0.85602881 0.376212662 0 0
-2.933481 0.173104 3.117288 0 0.925755501 0.378122669 0 0
-2.943815 0.165764 3.121925 -0.922702205 0.385300921 -0.0128000306 0 0
-2.944701 0.161483 3.121925 -0.999863768 -0.000400025512 -0.0165010524 0 0
-2.945102 0.161483 3.117288 -0.925755501 0 0.378122669 0 0
-2.944184 0.165917 3.117288 -0.855998459 0.354599362 0.376199323 0 0
-2.943815 0.157203 3.121925 -0.922553925 -0.385722546 -0.0106006196 0 0
-2.941415 0.153549 3.121925 -0.702334057 -0.711834518 0.00430020852 0 0
-2.941698 0.153266 3.117288 -0.654612461 -0.654612461 0.378107197 0 0
-2.944184 0.15705 3.117288 -0.855998459 -0.354599362 0.376199323 0 0
-2.937761 0.151149 3.121925 -0.379295361 -0.925088686 0.0185997725 0 0
-2.933481 0.150262 3.121925 -0.000400012303 -0.999730747 0.0232007135 0 0
-2.933481 0.149862 3.117288 0 -0.925755501 0.378122669 0 0
-2.937914 0.15078 3.117288 -0.354511931 -0.85602881 0.376212662 0 0
-2.9292 0.151149 3.121925 0.379016122 -0.925239356 0.0167007104 0 0
-2.925546 0.153549 3.121925 0.703043516 -0.711144018 0.0020001238 0 0
-2.925263 0.153266 3.117288 0.654612461 -0.654612461 0.378107197 0 0
-2.929047 0.15078 3.117288 0.354511931 -0.85602881 0.376212662 0 0
-2.923146 0.157203 3.121925 0.923259608 -0.384024793 -0.0108006973 0 0
-2.92226 0.161483 3.121925 0.999885912 -0.000399994364 -0.0150997872 0 0
-2.921859 0.161483 3.117288 0.925755501 0 0.378122669 0 0
-2.922777 0.15705 3.117288 0.855998459 -0.354599362 0.376199323 0 0
-2.923146 0.165764 3.121925 0.923442105 0.383517487 -0.0130005928 0 0
-2.925546 0.169417 3.121925 0.702592226 0.711592126 -0.000899990042 0 0
-2.925263 0.169701 3.117288 0.654612461 0.654612461 0.378107197 0 0
-2.922777 0.165917 3.117288 0.855998459 0.354599362 0.376199323 0 0
-2.9292 0.171817 3.121925 0.377614244 0.925834923 0.0154005809 0 0
-2.929047 0.172186 3.117288 0.354511931 0.85602881 0.376212662 0 0
-2.928588 0.173294 3.115743 0.151296134 0.365390664 0.918476533 0 0
-2.924413 0.170551 3.115743 0.276494379 0.276494379 0.920381289 0 0
-2.933481 0.174307 3.115743 0 0.390996645 0.920392103 0 0
-2.933481 0.17591 3.115743 0 0 1 0 0
-2.927977 0.17477 3.115743 0 0 1 0 0
-2.92328 0.171684 3.115743 0 0 1 0 0
-2.92167 0.166375 3.115743 0.365505342 0.151402213 0.918413423 0 0
-2.920657 0.161483 3.115743 0.391117346 0 0.920340818 0 0
-2.920194 0.166987 3.115743 9.99999995e-05 0 0.999999995 0 0
-2.919054 0.161483 3.115743 0.000199999996 0 0.99999998 0 0
-2.92167 0.156591 3.115743 0.365505342 -0.151402213 0.918413423 0 0
-2.924413 0.152415 3.115743 0.276494379 -0.276494379 0.920381289 0 0
-2.920194 0.15598 3.115743 9.99999995e-05 0 0.999999995 0 0
-2.92328 0.151282 3.115743 0 0 1 0 0
-2.928588 0.149673 3.115743 0.151296134 -0.365390664 0.918476533 0 0
-2.933481 0.14866 3.115743 0 -0.390996645 0.920392103 0 0
-2.927977 0.148196 3.115743 0 0 1 0 0
-2.933481 0.147057 3.115743 0 0 1 0 0
-2.938373 0.149673 3.115743 -0.151296134 -0.365390664 0.918476533 0 0
-2.942548 0.152415 3.115743 -0.276494379 -0.276494379 0.920381289 0 0
-2.938984 0.148196 3.115743 0 0 1 0 0
-2.943681 0.151282 3.115743 0 0 1 0 0
-2.945291 0.156591 3.115743 -0.365510874 -0.151304501 0.918427324 0 0
-2.946304 0.161483 3.115743 -0.391117346 0 0.920340818 0 0
-2.946767 0.15598 3.115743 -9.99999995e-05 0 0.999999995 0 0
-2.947907 0.161483 3.115743 -0.000199999996 0 0.99999998 0 0
-2.945291 0.166375 3.115743 -0.365510874 0.151304501 0.918427324 0 0
-2.942548 0.170551 3.115743 -0.276494379 0.276494379 0.920381289 0 0
-2.946767 0.166987 3.115743 -9.99999995e-05 0 0.999999995 0 0
-2.943681 0.171684 3.115743 0 0 1 0 0
-2.938373 0.173294 3.115743 -0.151296134 0.365390664 0.918476533 0 0
-2.938984 0.17477 3.115743 0 0 1 0 0
-2.925324 0.138068 3.158514 0.232793029 -0.956871347 0.173794796 0 0
-2.927591 0.138068 3.16074 0.167902805 -0.956715982 0.237703971 0 0
-2.923836 0.138068 3.15571 0.275492737 -0.956774775 0.0931975429 0 0
-2.924981 0.137921 3.155322 0.114397807 -0.99268097 0.0386992581 0 0
-2.926292 0.137921 3.157794 0.0968965995 -0.992665163 0.0722974628 0 0
-2.92829 0.137921 3.159755 0.0696981506 -0.99267366 0.0986973811 0 0
-2.930448 0.138068 3.162133 0.0861001403 -0.95680156 0.277700453 0 0
-2.933595 0.138068 3.162602 -0.00379997728 -0.95659428 0.291398257 0 0
-2.930808 0.137921 3.160983 0.0358013803 -0.992638272 0.115704461 0 0
-2.933582 0.137921 3.161396 -0.00160008135 -0.992650468 0.121006152 0 0
-2.936731 0.138068 3.162052 -0.0933004539 -0.956704654 0.275701341 0 0
-2.939556 0.138068 3.160585 -0.173901112 -0.956606118 0.233801495 0 0
-2.936345 0.137921 3.160911 -0.0389010307 -0.9926263 0.114803042 0 0
-2.938835 0.137921 3.159618 -0.0722037543 -0.992651614 0.0971050491 0 0
-2.941772 0.138068 3.158302 -0.237095115 -0.956780286 0.16839653 0 0
-2.943196 0.138068 3.155459 -0.27770539 -0.95671857 0.0870016887 0 0
-2.940788 0.137921 3.157606 -0.0987044191 -0.992644442 0.0701031386 0 0
-2.942043 0.137921 3.155101 -0.115297084 -0.992674891 0.0360990869 0 0
-2.943646 0.138068 3.152315 -0.290399999 -0.956899995 -0.00319999998 0 0
-2.943125 0.138068 3.149183 -0.275492737 -0.956774775 -0.0931975429 0 0
-2.942439 0.137921 3.15233 -0.120895644 -0.992664235 -0.00139994956 0 0
-2.94198 0.137921 3.14957 -0.114397807 -0.99268097 -0.0386992581 0 0
-2.941637 0.138068 3.146378 -0.232793029 -0.956871347 -0.173794796 0 0
-2.93937 0.138068 3.144152 -0.167902805 -0.956715982 -0.237703971 0 0
-2.940669 0.137921 3.147098 -0.0968965995 -0.992665163 -0.0722974628 0 0
-2.938671 0.137921 3.145137 -0.0696981506 -0.99267366 -0.0986973811 0 0
-2.936513 0.138068 3.142759 -0.086097749 -0.956774985 -0.277792737 0 0
-2.933366 0.138068 3.14229 0.00379997728 -0.95659428 -0.291398257 0 0
-2.936153 0.137921 3.143909 -0.0358013803 -0.992638272 -0.115704461 0 0
-2.933379 0.137921 3.143496 0.00160008135 -0.992650468 -0.121006152 0 0
-2.93023 0.138068 3.14284 0.0933004539 -0.956704654 -0.275701341 0 0
-2.927405 0.138068 3.144307 0.173901112 -0.956606118 -0.233801495 0 0
-2.930616 0.137921 3.143981 0.0389010307 -0.9926263 -0.114803042 0 0
-2.928126 0.137921 3.145274 0.0722037543 -0.992651614 -0.0971050491 0 0
-2.925189 0.138068 3.14659 0.237095115 -0.956780286 -0.16839653 0 0
-2.923765 0.138068 3.149433 0.27770539 -0.95671857 -0.0870016887 0 0
-2.926173 0.137921 3.147286 0.0987044191 -0.992644442 -0.0701031386 0 0
-2.924918 0.137921 3.149791 0.115297084 -0.992674891 -0.0360990869 0 0
-2.923315 0.138068 3.152577 0.290399999 -0.956899995 0.00319999998 0 0
-2.924522 0.137921 3.152562 0.120895644 -0.992664235 0.00139994956 0 0
-2.915263 0.179235 3.152682 0.471520846 0.881838987 0.00530023433 0 0
-2.916069 0.179235 3.147046 0.450993657 0.881287605 -0.141198014 0 0
-2.916196 0.179235 3.158295 0.447410138 0.881419973 0.151403431 0 0
-2.91711 0.17937 3.157985 0.131698147 0.990286067 0.0445993725 0 0
-2.916226 0.17937 3.152669 0.13930675 0.990247984 0.00160007753 0 0
-2.91699 0.17937 3.147332 0.132894215 0.990256895 -0.0415981893 0 0
-2.918621 0.179235 3.141952 0.383101429 0.883303295 -0.270201008 0 0
-2.922592 0.179235 3.13786 0.275302196 0.891407109 -0.360002871 0 0
-2.919407 0.17937 3.142507 0.113702708 0.990223582 -0.0808019243 0 0
-2.923168 0.17937 3.138632 0.0832025007 0.990229762 -0.111903363 0 0
-2.927655 0.179235 3.135231 0.141497339 0.907982925 -0.394392584 0 0
-2.933275 0.179235 3.134246 0.0045001977 0.915840234 -0.401517639 0 0
-2.927963 0.17937 3.136142 0.0447998573 0.990196846 -0.132299579 0 0
-2.933285 0.17937 3.135208 0.00180006153 0.990233847 -0.139404765 0 0
-2.938915 0.179235 3.135086 -0.133405792 0.905639319 -0.402517476 0 0
-2.944036 0.179235 3.137583 -0.269102828 0.888409337 -0.371903909 0 0
-2.938627 0.17937 3.136004 -0.0413006067 0.990214546 -0.133301958 0 0
-2.943477 0.17937 3.138369 -0.0802962816 0.990254142 -0.11379473 0 0
-2.948098 0.179235 3.141571 -0.378413411 0.881631246 -0.282009995 0 0
-2.950765 0.179235 3.146597 -0.448119532 0.880938396 -0.15210663 0 0
-2.947325 0.17937 3.142146 -0.111605237 0.990246463 -0.0834039134 0 0
-2.949851 0.17937 3.146907 -0.131698147 0.990286067 -0.0445993725 0 0
-2.951698 0.179235 3.15221 -0.471520846 0.881838987 -0.00530023433 0 0
-2.950892 0.179235 3.157846 -0.450993657 0.881287605 0.141198014 0 0
-2.950735 0.17937 3.152223 -0.139292956 0.990249924 -0.00159991909 0 0
-2.949971 0.17937 3.15756 -0.132795984 0.99027005 0.0415987419 0 0
-2.94834 0.179235 3.16294 -0.384718171 0.881641641 0.273312909 0 0
-2.944369 0.179235 3.167032 -0.282292837 0.881077643 0.379490371 0 0
-2.947554 0.17937 3.162385 -0.113702708 0.990223582 0.0808019243 0 0
-2.943793 0.17937 3.16626 -0.0832025007 0.990229762 0.111903363 0 0
-2.939306 0.179235 3.169661 -0.151305918 0.881534477 0.447217491 0 0
-2.933686 0.179235 3.170646 -0.00609997307 0.88109611 0.472897912 0 0
-2.938998 0.17937 3.168751 -0.0447998573 0.990196846 0.132299579 0 0
-2.933676 0.17937 3.169684 -0.00180006153 0.990233847 0.139404765 0 0
-2.928046 0.179235 3.169806 0.139703123 0.881619709 0.450810078 0 0
-2.922925 0.179235 3.167309 0.272600484 0.881301564 0.386000685 0 0
-2.928334 0.17937 3.168888 0.0413006067 0.990214546 0.133301958 0 0
-2.923484 0.17937 3.166523 0.0802971949 0.990265406 0.113696028 0 0
-2.918863 0.179235 3.163321 0.377907547 0.88181761 0.282105634 0 0
-2.919636 0.17937 3.162746 0.111606167 0.990254718 0.0833046031 0 0
3 0 1 2
3 0 3 1
3 0 4 3
3 0 5 4
3 0 6 5
3 0 7 6
3 0 8 7
3 0 2 8
3 9 10 11
3 9 12 10
3 9 1 12
3 9 2 1
3 9 8 2
3 9 13 8
3 9 14 13
3 9 11 14
3 15 16 17
3 15 18 16
3 15 10 18
3 15 11 10
3 15 14 11
3 15 19 14
3 15 20 19
3 15 17 20
3 21 22 23
3 21 24 22
3 21 16 24
3 21 17 16
3 21 20 17
3 21 25 20
3 21 26 25
3 21 23 26
3 27 26 28
3 27 25 26
3 27 20 25
3 27 29 20
3 27 30 29
3 27 31 30
3 27 32 31
3 27 28 32
3 33 20 29
3 33 19 20
3 33 14 19
3 33 34 14
3 33 35 34
3 33 36 35
3 33 30 36
3 33 29 30
3 37 14 34
3 37 13 14
3 37 8 13
3 37 38 8
3 37 39 38
3 37 40 39
3 37 35 40
3 37 34 35
3 41 8 38
3 41 7 8
3 41 6 7
3 41 42 6
3 41 43 42
3 41 44 43
3 41 39 44
3 41 38 39
3 45 39 46
3 45 44 39
3 45 43 44
3 45 47 43
3 45 48 47
3 45 49 48
3 45 50 49
3 45 46 50
3 51 35 52
3 51 40 35
3 51 39 40
3 51 46 39
3 51 50 46
3 51 53 50
3 51 54 53
3 51 52 54
3 55 30 56
3 55 36 30
3 55 35 36
3 55 52 35
3 55 54 52
3 55 57 54
3 55 58 57
3 55 56 58
3 59 32 60
3 59 31 32
3 59 30 31
3 59 56 30
3 59 58 56
3 59 61 58
3 59 62 61
3 59 60 62
3 63 62 64
3 63 61 62
3 63 58 61
3 63 65 58
3 63 66 65
3 63 67 66
3 63 68 67
3 63 64 68
3 69 58 65
3 69 57 58
3 69 54 57
3 69 70 54
3 69 71 70
3 69 72 71
3 69 66 72
3 69 65 66
3 73 54 70
3 73 53 54
3 73 50 53
3 73 74 50
3 73 75 74
3 73 76 75
3 73 71 76
3 73 70 71
3 77 50 74
3 77 49 50
3 77 48 49
3 77 78 48
3 77 79 78
3 77 80 79
3 77 75 80
3 77 74 75
3 81 75 82
3 81 80 75
3 81 79 80
3 81 83 79
3 81 84 83
3 81 85 84
3 81 86 85
3 81 82 86
3 87 71 88
3 87 76 71
3 87 75 76
3 87 82 75
3 87 86 82
3 87 89 86
3 87 90 89
3 87 88 90
3 91 66 92
3 91 72 66
3 91 71 72
3 91 88 71
3 91 90 88
3 91 93 90
3 91 94 93
3 91 92 94
3 95 68 96
3 95 67 68
3 95 66 67
3 95 92 66
3 95 94 92
3 95 97 94
3 95 98 97
3 95 96 98
3 99 98 100
3 99 97 98
3 99 94 97
3 99 101 94
3 99 102 101
3 99 103 102
3 99 104 103
3 99 100 104
3 105 94 101
3 105 93 94
3 105 90 93
3 105 106 90
3 105 107 106
3 105 108 107
3 105 102 108
3 105 101 102
3 109 90 106
3 109 89 90
3 109 86 89
3 109 110 86
3 109 111 110
3 109 112 111
3 109 107 112
3 109 106 107
3 113 86 110
3 113 85 86
3 113 84 85
3 113 114 84
3 113 115 114
3 113 116 115
3 113 111 116
3 113 110 111
3 117 111 118
3 117 116 111
3 117 115 116
3 117 119 115
3 117 120 119
3 117 121 120
3 117 122 121
3 117 118 122
3 123 104 124
3 123 103 104
3 123 102 103
3 123 125 102
3 123 126 125
3 123 127 126
3 123 128 127
3 123 124 128
3 129 128 130
3 129 127 128
3 129 126 127
3 129 131 126
3 129 132 131
3 129 133 132
3 129 134 133
3 129 130 134
3 135 122 136
3 135 121 122
3 135 120 121
3 135 137 120
3 135 138 137
3 135 139 138
3 135 140 139
3 135 136 140
3 141 140 142
3 141 139 140
3 141 138 139
3 141 143 138
3 141 144 143
3 141 145 144
3 141 146 145
3 141 142 146
3 147 148 149
3 147 150 148
3 147 140 150
3 147 142 140
3 147 146 142
3 147 151 146
3 147 152 151
3 147 149 152
3 153 132 154
3 153 155 132
3 153 148 155
3 153 149 148
3 153 152 149
3 153 156 152
3 153 157 156
3 153 154 157
3 158 134 159
3 158 133 134
3 158 132 133
3 158 154 132
3 158 157 154
3 158 160 157
3 158 161 160
3 158 159 161
3 162 16 163
3 162 24 16
3 162 22 24
3 162 164 22
3 162 161 164
3 162 160 161
3 162 157 160
3 162 163 157
3 165 157 163
3 165 156 157
3 165 152 156
3 165 166 152
3 165 10 166
3 165 18 10
3 165 16 18
3 165 163 16
3 167 152 166
3 167 151 152
3 167 146 151
3 167 168 146
3 167 1 168
3 167 12 1
3 167 10 12
3 167 166 10
3 169 146 168
3 169 145 146
3 169 144 145
3 169 170 144
3 169 4 170
3 169 3 4
3 169 1 3
3 169 168 1
3 171 4 172
3 171 170 4
3 171 144 170
3 171 173 144
3 171 174 173
3 171 175 174
3 171 176 175
3 171 172 176
3 177 144 173
3 177 143 144
3 177 138 143
3 177 178 138
3 177 179 178
3 177 180 179
3 177 174 180
3 177 173 174
3 181 138 178
3 181 137 138
3 181 120 137
3 181 182 120
3 181 183 182
3 181 184 183
3 181 179 184
3 181 178 179
3 185 120 182
3 185 119 120
3 185 115 119
3 185 186 115
3 185 187 186
3 185 188 187
3 185 183 188
3 185 182 183
3 189 115 186
3 189 114 115
3 189 84 114
3 189 190 84
3 189 191 190
3 189 192 191
3 189 187 192
3 189 186 187
3 193 84 190
3 193 83 84
3 193 79 83
3 193 194 79
3 193 195 194
3 193 196 195
3 193 191 196
3 193 190 191
3 197 79 194
3 197 78 79
3 197 48 78
3 197 198 48
3 197 199 198
3 197 200 199
3 197 195 200
3 197 194 195
3 201 48 198
3 201 47 48
3 201 43 47
3 201 202 43
3 201 203 202
3 201 204 203
3 201 199 204
3 201 198 199
3 205 43 202
3 205 42 43
3 205 6 42
3 205 206 6
3 205 207 206
3 205 208 207
3 205 203 208
3 205 202 203
3 209 6 206
3 209 5 6
3 209 4 5
3 209 172 4
3 209 176 172
3 209 210 176
3 209 207 210
3 209 206 207
3 211 102 125
3 211 212 102
3 211 213 212
3 211 214 213
3 211 215 214
3 211 216 215
3 211 126 216
3 211 125 126
3 217 126 131
3 217 216 126
3 217 215 216
3 217 218 215
3 217 219 218
3 217 220 219
3 217 132 220
3 217 131 132
3 221 132 155
3 221 220 132
3 221 219 220
3 221 222 219
3 221 223 222
3 221 224 223
3 221 148 224
3 221 155 148
3 225 148 150
3 225 224 148
3 225 223 224
3 225 226 223
3 225 227 226
3 225 228 227
3 225 140 228
3 225 150 140
3 229 122 230
3 229 136 122
3 229 140 136
3 229 228 140
3 229 227 228
3 229 231 227
3 229 232 231
3 229 230 232
3 233 111 234
3 233 118 111
3 233 122 118
3 233 230 122
3 233 232 230
3 233 235 232
3 233 236 235
3 233 234 236
3 237 107 238
3 237 112 107
3 237 111 112
3 237 234 111
3 237 236 234
3 237 239 236
3 237 240 239
3 237 238 240
3 241 102 212
3 241 108 102
3 241 107 108
3 241 238 107
3 241 240 238
3 241 242 240
3 241 213 242
3 241 212 213
3 243 215 244
3 243 214 215
3 243 213 214
3 243 245 213
3 243 246 245
3 243 247 246
3 243 248 247
3 243 244 248
3 249 213 245
3 249 242 213
3 249 240 242
3 249 250 240
3 249 251 250
3 249 252 251
3 249 246 252
3 249 245 246
3 253 240 250
3 253 239 240
3 253 236 239
3 253 254 236
3 253 255 254
3 253 256 255
3 253 251 256
3 253 250 251
3 257 236 254
3 257 235 236
3 257 232 235
3 257 258 232
3 257 259 258
3 257 260 259
3 257 255 260
3 257 254 255
3 261 232 258
3 261 231 232
3 261 227 231
3 261 262 227
3 261 263 262
3 261 264 263
3 261 259 264
3 261 258 259
3 265 227 262
3 265 226 227
3 265 223 226
3 265 266 223
3 265 267 266
3 265 268 267
3 265 263 268
3 265 262 263
3 269 223 266
3 269 222 223
3 269 219 222
3 269 270 219
3 269 271 270
3 269 272 271
3 269 267 272
3 269 266 267
3 273 219 270
3 273 218 219
3 273 215 218
3 273 244 215
3 273 248 244
3 273 274 248
3 273 271 274
3 273 270 271
3 275 271 276
3 275 274 271
3 275 248 274
3 275 277 248
3 275 278 277
3 275 279 278
3 275 280 279
3 275 276 280
3 281 267 282
3 281 272 267
3 281 271 272
3 281 276 271
3 281 280 276
3 281 283 280
3 281 284 283
3 281 282 284
3 285 263 286
3 285 268 263
3 285 267 268
3 285 282 267
3 285 284 282
3 285 287 284
3 285 288 287
3 285 286 288
3 289 259 290
3 289 264 259
3 289 263 264
3 289 286 263
3 289 288 286
3 289 291 288
3 289 292 291
3 289 290 292
3 293 255 294
3 293 260 255
3 293 259 260
3 293 290 259
3 293 292 290
3 293 295 292
3 293 296 295
3 293 294 296
3 297 251 298
3 297 256 251
3 297 255 256
3 297 294 255
3 297 296 294
3 297 299 296
3 297 300 299
3 297 298 300
3 301 246 302
3 301 252 246
3 301 251 252
3 301 298 251
3 301 300 298
3 301 303 300
3 301 304 303
3 301 302 304
3 305 248 277
3 305 247 248
3 305 246 247
3 305 302 246
3 305 304 302
3 305 306 304
3 305 278 306
3 305 277 278
3 307 207 308
3 307 210 207
3 307 176 210
3 307 309 176
3 307 310 309
3 307 311 310
3 307 312 311
3 307 308 312
3 313 203 314
3 313 208 203
3 313 207 208
3 313 308 207
3 313 312 308
3 313 315 312
3 313 316 315
3 313 314 316
3 317 199 318
3 317 204 199
3 317 203 204
3 317 314 203
3 317 316 314
3 317 319 316
3 317 320 319
3 317 318 320
3 321 195 322
3 321 200 195
3 321 199 200
3 321 318 199
3 321 320 318
3 321 323 320
3 321 324 323
3 321 322 324
3 325 191 326
3 325 196 191
3 325 195 196
3 325 322 195
3 325 324 322
3 325 327 324
3 325 328 327
3 325 326 328
3 329 187 330
3 329 192 187
3 329 191 192
3 329 326 191
3 329 328 326
3 329 331 328
3 329 332 331
3 329 330 332
3 333 183 334
3 333 188 183
3 333 187 188
3 333 330 187
3 333 332 330
3 333 335 332
3 333 336 335
3 333 334 336
3 337 179 338
3 337 184 179
3 337 183 184
3 337 334 183
3 337 336 334
3 337 339 336
3 337 340 339
3 337 338 340
3 341 174 342
3 341 180 174
3 341 179 180
3 341 338 179
3 341 340 338
3 341 343 340
3 341 344 343
3 341 342 344
3 345 176 309
3 345 175 176
3 345 174 175
3 345 342 174
3 345 344 342
3 345 346 344
3 345 310 346
3 345 309 310
3 347 161 348
3 347 164 161
3 347 22 164
3 347 349 22
3 347 350 349
3 347 351 350
3 347 352 351
3 347 348 352
3 353 134 354
3 353 159 134
3 353 161 159
3 353 348 161
3 353 352 348
3 353 355 352
3 353 356 355
3 353 354 356
3 357 128 358
3 357 130 128
3 357 134 130
3 357 354 134
3 357 356 354
3 357 359 356
3 357 360 359
3 357 358 360
3 361 104 362
3 361 124 104
3 361 128 124
3 361 358 128
3 361 360 358
3 361 363 360
3 361 364 363
3 361 362 364
3 365 98 366
3 365 100 98
3 365 104 100
3 365 362 104
3 365 364 362
3 365 367 364
3 365 368 367
3 365 366 368
3 369 68 370
3 369 96 68
3 369 98 96
3 369 366 98
3 369 368 366
3 369 371 368
3 369 372 371
3 369 370 372
3 373 62 374
3 373 64 62
3 373 68 64
3 373 370 68
3 373 372 370
3 373 375 372
3 373 376 375
3 373 374 376
3 377 32 378
3 377 60 32
3 377 62 60
3 377 374 62
3 377 376 374
3 377 379 376
3 377 380 379
3 377 378 380
3 381 26 382
3 381 28 26
3 381 32 28
3 381 378 32
3 381 380 378
3 381 383 380
3 381 384 383
3 381 382 384
3 385 22 349
3 385 23 22
3 385 26 23
3 385 382 26
3 385 384 382
3 385 386 384
3 385 350 386
3 385 349 350
