ply
format ascii 1.0
element vertex 650
property float x
property float y
property float z
property float nx
property float ny
property float nz
property float u
property float v
element face 1296
property list uchar int vertex_indices
end_header
2.283083 1.419178 1.567309 0.121604956 0.992540447 -0.00870035455 0 0
2.2779 1.419948 1.564208 0.469738299 0.805965713 -0.360229371 0 0
2.28182 1.419513 1.56847 0.471416047 0.811027608 -0.346411792 0 0
2.279163 1.419605 1.563047 0.115699841 0.99309864 -0.0191999737 0 0
2.28249 1.419605 1.559988 0.0435014367 0.997932957 0.0473015622 0 0
2.286409 1.419178 1.56425 0.0512017322 0.997133734 0.0557018844 0 0
2.289534 1.418818 1.567649 0.0443024241 0.997854599 0.0482026375 0 0
2.286208 1.418818 1.570707 0.111301459 0.993713023 -0.0121001586 0 0
2.284945 1.419136 1.571869 0.45579255 0.823086547 -0.338794462 0 0
2.29302 1.419178 1.558172 0.0512017322 0.997133734 0.0557018844 0 0
2.2891 1.419605 1.553909 0.0435014367 0.997932957 0.0473015622 0 0
2.295711 1.419605 1.547831 0.0435014367 0.997932957 0.0473015622 0 0
2.29963 1.419178 1.552093 0.0512017322 0.997133734 0.0557018844 0 0
2.302755 1.418818 1.555491 0.0443024241 0.997854599 0.0482026375 0 0
2.296144 1.418818 1.56157 0.0443024241 0.997854599 0.0482026375 0 0
2.302956 1.419178 1.549034 -0.0188006586 0.992534769 0.120504221 0 0
2.299037 1.419605 1.544772 -0.0287999317 0.993097646 0.113699731 0 0
2.3003 1.419948 1.543611 -0.39820883 0.806017874 0.437909711 0 0
2.304219 1.419513 1.547873 -0.384596758 0.811093163 0.440696285 0 0
2.307344 1.419136 1.551271 -0.375693442 0.823085633 0.425892566 0 0
2.306081 1.418818 1.552433 -0.0214000251 0.993701168 0.110000129 0 0
2.289228 1.41858 1.573992 0.0711055984 0.995878409 -0.056304433 0 0
2.287965 1.418867 1.575153 0.385908859 0.839819278 -0.381808765 0 0
2.292554 1.41858 1.570933 0.00610036365 0.999959609 0.00660039346 0 0
2.29478 1.418696 1.573354 -0.201108654 0.954841088 -0.218709411 0 0
2.291454 1.418696 1.576412 -0.0929022771 0.938122994 -0.333608177 0 0
2.289941 1.41894 1.576645 0.231502489 0.858009224 -0.458504929 0 0
2.299165 1.41858 1.564854 0.00610036365 0.999959609 0.00660039346 0 0
2.305775 1.41858 1.558776 0.00610036365 0.999959609 0.00660039346 0 0
2.308001 1.418696 1.561196 -0.201108654 0.954841088 -0.218709411 0 0
2.30139 1.418696 1.567275 -0.201108654 0.954841088 -0.218709411 0 0
2.309101 1.41858 1.555717 -0.0620048341 0.995877642 0.0662051616 0 0
2.310364 1.418867 1.554556 -0.412801106 0.839802251 0.352600945 0 0
2.311686 1.41894 1.55665 -0.476298814 0.857997864 0.192299521 0 0
2.311327 1.418696 1.558137 -0.324613468 0.938138924 -0.120505 0 0
2.283083 1.427227 1.567309 -0.0221998658 -0.986194038 -0.164099008 0 0
2.284945 1.426125 1.571869 0.308514669 -0.813538681 -0.492923437 0 0
2.28182 1.426891 1.56847 0.350112095 -0.809727973 -0.470916268 0 0
2.286208 1.426443 1.570707 -0.063198512 -0.977776978 -0.199895294 0 0
2.289534 1.426443 1.567649 -0.130106639 -0.981350075 -0.141507221 0 0
2.286409 1.427227 1.56425 -0.0929027003 -0.99052879 -0.101102939 0 0
2.28249 1.42785 1.559988 -0.0577032655 -0.996356385 -0.0628035542 0 0
2.279163 1.42785 1.563047 0.0147000081 -0.991600545 -0.128500071 0 0
2.2779 1.427506 1.564208 0.384719779 -0.807841532 -0.446522956 0 0
2.29302 1.427227 1.558172 -0.0929027003 -0.99052879 -0.101102939 0 0
2.296144 1.426443 1.56157 -0.130106639 -0.981350075 -0.141507221 0 0
2.302755 1.426443 1.555491 -0.130106639 -0.981350075 -0.141507221 0 0
2.29963 1.427227 1.552093 -0.0929036391 -0.9905388 -0.101003956 0 0
2.295711 1.42785 1.547831 -0.0577032655 -0.996356385 -0.0628035542 0 0
2.2891 1.42785 1.553909 -0.0577032655 -0.996356385 -0.0628035542 0 0
2.302956 1.427227 1.549034 -0.161697887 -0.986187111 -0.0358995308 0 0
2.306081 1.426443 1.552433 -0.19399215 -0.977760436 -0.0796967751 0 0
2.307344 1.426125 1.551271 -0.516988841 -0.813582439 0.266094256 0 0
2.304219 1.426891 1.547873 -0.498498342 -0.809797308 0.309398971 0 0
2.3003 1.427506 1.543611 -0.477089786 -0.807882703 0.345992592 0 0
2.299037 1.42785 1.544772 -0.129201395 -0.991610704 0.0039000421 0 0
2.289228 1.425451 1.573992 -0.114298972 -0.960691363 -0.252997726 0 0
2.289941 1.424385 1.576645 0.0725033885 -0.796837241 -0.599828034 0 0
2.287965 1.425165 1.575153 0.228213112 -0.810846589 -0.538930965 0 0
2.291454 1.424382 1.576412 -0.244097826 -0.845792468 -0.474395776 0 0
2.29478 1.424382 1.573354 -0.343000959 -0.862102409 -0.373001043 0 0
2.292554 1.425451 1.570933 -0.178296952 -0.964683509 -0.193896685 0 0
2.299165 1.425451 1.564854 -0.178296952 -0.964683509 -0.193896685 0 0
2.301391 1.424382 1.567275 -0.343000959 -0.862102409 -0.373001043 0 0
2.308001 1.424382 1.561196 -0.343000959 -0.862102409 -0.373001043 0 0
2.305775 1.425451 1.558776 -0.178296952 -0.964683509 -0.193896685 0 0
2.309101 1.425451 1.555717 -0.242502942 -0.960711653 -0.135001638 0 0
2.311327 1.424382 1.558137 -0.452303315 -0.8458062 -0.282902074 0 0
2.311686 1.424385 1.55665 -0.603814163 -0.79681869 0.0221005184 0 0
2.310364 1.425165 1.554556 -0.556134164 -0.810849812 0.1823112 0 0
2.236889 1.422082 1.517074 0.0763021865 0.995028513 -0.064001834 0 0
2.229481 1.422429 1.511553 0.43582704 0.805849996 -0.400824868 0 0
2.235626 1.422429 1.518236 0.438733036 0.805460649 -0.398430001 0 0
2.230744 1.422082 1.510392 0.0732032016 0.995043519 -0.0673029436 0 0
2.23407 1.422082 1.507333 0 1 0 0 0
2.240215 1.422082 1.514016 0.00309996719 0.999989415 0.00339996401 0 0
2.24636 1.421999 1.520699 0.0124004132 0.999833315 0.0134004465 0 0
2.243034 1.421999 1.523757 0.0856055474 0.994864469 -0.0540034995 0 0
2.241771 1.422346 1.524919 0.446608472 0.804915269 -0.390707412 0 0
2.246825 1.422082 1.507937 0.00309996823 0.99998975 0.00329996618 0 0
2.24068 1.422082 1.501254 0 1 0 0 0
2.247291 1.422082 1.495176 0 1 0 0 0
2.253436 1.422082 1.501858 0.00309996823 0.99998975 0.00329996618 0 0
2.259581 1.421999 1.508541 0.0124004132 0.999833315 0.0134004465 0 0
2.252971 1.421999 1.51462 0.0124004132 0.999833315 0.0134004465 0 0
2.256762 1.422082 1.4988 -0.0702017014 0.995024115 0.0707017135 0 0
2.250617 1.422082 1.492117 -0.0732032016 0.995043519 0.0673029436 0 0
2.25188 1.422429 1.490956 -0.43582704 0.805849996 0.400824868 0 0
2.258025 1.422429 1.497638 -0.433802861 0.805405312 0.403902664 0 0
2.26417 1.422346 1.504321 -0.426697726 0.80489571 0.412397802 0 0
2.262907 1.421999 1.505482 -0.0609041267 0.99486741 0.0808054752 0 0
2.249179 1.42175 1.53044 0.0960066189 0.994468561 -0.0426029371 0 0
2.247916 1.422097 1.531601 0.454795341 0.804891754 -0.381196095 0 0
2.252505 1.42175 1.527381 0.0229006323 0.999427595 0.0249006875 0 0
2.258651 1.421385 1.534064 0.0297010933 0.999036775 0.032301189 0 0
2.255324 1.421385 1.537123 0.102698914 0.994089493 -0.0351996279 0 0
2.254061 1.421732 1.538284 0.460016552 0.804828958 -0.375013493 0 0
2.259116 1.42175 1.521303 0.0229006323 0.999427595 0.0249006875 0 0
2.265726 1.42175 1.515224 0.0229006323 0.999427595 0.0249006875 0 0
2.271872 1.421385 1.521906 0.0297010933 0.999036775 0.032301189 0 0
2.265261 1.421385 1.527985 0.0297010933 0.999036775 0.032301189 0 0
2.269053 1.42175 1.512165 -0.0504036814 0.994472634 0.0921067273 0 0
2.270315 1.422097 1.511004 -0.417900395 0.804900761 0.421300398 0 0
2.276461 1.421732 1.517687 -0.412113594 0.804926551 0.426914082 0 0
2.275198 1.421385 1.518848 -0.0436994568 0.994087644 0.0993987645 0 0
2.26147 1.420954 1.543805 0.106205493 0.993851398 -0.0313016188 0 0
2.260207 1.421301 1.544967 0.462515922 0.80492771 -0.371712796 0 0
2.264796 1.420954 1.540747 0.0331998856 0.998796559 0.0360998756 0 0
2.270941 1.420494 1.54743 0.0338017177 0.998750753 0.0368018701 0 0
2.267615 1.420494 1.550488 0.106801012 0.993809421 -0.0306002901 0 0
2.266352 1.420841 1.55165 0.462910402 0.805118091 -0.370808332 0 0
2.271406 1.420954 1.534668 0.0331998856 0.998796559 0.0360998756 0 0
2.278017 1.420954 1.528589 0.0331998856 0.998796559 0.0360998756 0 0
2.284162 1.420494 1.535272 0.0338017177 0.998750753 0.0368018701 0 0
2.277552 1.420494 1.541351 0.0338017177 0.998750753 0.0368018701 0 0
2.281343 1.420954 1.525531 -0.0402019153 0.993847348 0.103204917 0 0
2.282606 1.421301 1.524369 -0.408993039 0.804986299 0.429792685 0 0
2.288751 1.420841 1.531052 -0.408223414 0.805146181 0.430224676 0 0
2.287488 1.420494 1.532213 -0.0394002756 0.993806952 0.103900727 0 0
2.27376 1.420044 1.557171 0.108201278 0.993711741 -0.0288003403 0 0
2.272497 1.42039 1.558332 0.464048577 0.805184287 -0.369238652 0 0
2.277086 1.420044 1.554112 0.035301366 0.998638643 0.038401486 0 0
2.283697 1.420044 1.548033 0.035301366 0.998638643 0.038401486 0 0
2.290307 1.420044 1.541955 0.035301366 0.998638643 0.038401486 0 0
2.293633 1.420044 1.538896 -0.0378004217 0.993711085 0.105401176 0 0
2.294896 1.42039 1.537735 -0.406794807 0.805189722 0.431494492 0 0
2.236889 1.430403 1.517074 0.0701021907 -0.995031095 -0.0707022095 0 0
2.241771 1.429973 1.524919 0.425003145 -0.806605969 -0.41080304 0 0
2.235626 1.430056 1.518236 0.432897465 -0.806295279 -0.40309764 0 0
2.243034 1.43032 1.523757 0.0608985595 -0.994876466 -0.0806980911 0 0
2.24636 1.43032 1.520699 -0.0124004132 -0.999833315 -0.0134004465 0 0
2.240215 1.430403 1.514016 -0.00309996719 -0.999989415 -0.00339996401 0 0
2.23407 1.430403 1.507333 0 -1 0 0 0
2.230744 1.430403 1.510392 0.0732027086 -0.995036817 -0.0674024939 0 0
2.229481 1.430056 1.511553 0.43582704 -0.805849996 -0.400824868 0 0
2.246825 1.430403 1.507937 -0.00309996719 -0.999989415 -0.00339996401 0 0
2.252971 1.43032 1.51462 -0.0124004132 -0.999833315 -0.0134004465 0 0
2.259581 1.43032 1.508541 -0.0124004132 -0.999833315 -0.0134004465 0 0
2.253436 1.430403 1.501858 -0.00309996719 -0.999989415 -0.00339996401 0 0
2.247291 1.430403 1.495176 0 -1 0 0 0
2.24068 1.430403 1.501254 0 -1 0 0 0
2.256762 1.430403 1.4988 -0.0763021865 -0.995028513 0.064001834 0 0
2.262907 1.43032 1.505482 -0.0854982272 -0.994879371 0.0538988824 0 0
2.26417 1.429973 1.504321 -0.444913708 -0.806624852 0.389111989 0 0
2.258025 1.430056 1.497638 -0.437926246 -0.80624832 0.397723836 0 0
2.25188 1.430056 1.490956 -0.435908045 -0.805814871 0.400807397 0 0
2.250617 1.430403 1.492117 -0.0732027086 -0.995036817 0.0674024939 0 0
2.249179 1.430071 1.53044 0.0504041454 -0.99448179 -0.092007567 0 0
2.254061 1.429359 1.538284 0.411521772 -0.805542618 -0.426322555 0 0
2.247916 1.429724 1.531601 0.416699137 -0.806098331 -0.42019913 0 0
2.255325 1.429706 1.537123 0.0435996484 -0.994091983 -0.0993991983 0 0
2.258651 1.429706 1.534064 -0.0297010933 -0.999036775 -0.032301189 0 0
2.252505 1.430071 1.527381 -0.0229006323 -0.999427595 -0.0249006875 0 0
2.259116 1.430071 1.521303 -0.0229006323 -0.999427595 -0.0249006875 0 0
2.265261 1.429706 1.527985 -0.0297010933 -0.999036775 -0.032301189 0 0
2.271872 1.429706 1.521906 -0.0297010933 -0.999036775 -0.032301189 0 0
2.265726 1.430071 1.515224 -0.0229006323 -0.999427595 -0.0249006875 0 0
2.269053 1.430071 1.512165 -0.0959075324 -0.994478104 0.042603346 0 0
2.275198 1.429706 1.518848 -0.102698914 -0.994089493 0.0351996279 0 0
2.276461 1.429359 1.517687 -0.45920999 -0.805617526 0.374308143 0 0
2.270315 1.429724 1.511004 -0.453594062 -0.806089448 0.380095025 0 0
2.26147 1.429274 1.543805 0.0401020715 -0.993851339 -0.103205331 0 0
2.266352 1.428466 1.55165 0.408203574 -0.805007048 -0.430503769 0 0
2.260207 1.428928 1.544967 0.408712488 -0.805224604 -0.429613127 0 0
2.267615 1.428813 1.550488 0.039199767 -0.993794092 -0.104099381 0 0
2.270941 1.428813 1.54743 -0.0341011339 -0.998733208 -0.0370012303 0 0
2.264796 1.429274 1.540747 -0.0331998856 -0.998796559 -0.0360998756 0 0
2.271406 1.429274 1.534668 -0.0331998856 -0.998796559 -0.0360998756 0 0
2.277552 1.428813 1.541351 -0.0341011339 -0.998733208 -0.0370012303 0 0
2.284162 1.428813 1.535272 -0.0341011339 -0.998733208 -0.0370012303 0 0
2.278017 1.429274 1.528589 -0.0331998856 -0.998796559 -0.0360998756 0 0
2.281343 1.429274 1.525531 -0.106205493 -0.993851398 0.0313016188 0 0
2.287488 1.428813 1.532213 -0.107098232 -0.993783598 0.0303994983 0 0
2.288751 1.428466 1.531052 -0.463121976 -0.8050382 0.370717591 0 0
2.282606 1.428928 1.524369 -0.462199857 -0.80529975 0.371299885 0 0
2.27376 1.428358 1.557171 0.0346993008 -0.993479982 -0.108597812 0 0
2.272497 1.428012 1.558332 0.403611426 -0.805922816 -0.433112262 0 0
2.277086 1.428358 1.554112 -0.0383995323 -0.99838784 -0.0417994909 0 0
2.283697 1.428358 1.548033 -0.0383995323 -0.99838784 -0.0417994909 0 0
2.290307 1.428358 1.541955 -0.0383995323 -0.99838784 -0.0417994909 0 0
2.293633 1.428358 1.538896 -0.111098016 -0.993482262 0.0254995447 0 0
2.294896 1.428012 1.537735 -0.465332177 -0.80595573 0.365925303 0 0
2.272076 1.426973 1.558719 0.703029704 -0.250110567 -0.665728128 0 0
2.265931 1.427426 1.552037 0.704421006 -0.248607414 -0.664819825 0 0
2.265931 1.42604 1.552037 0.736136274 0 -0.676833352 0 0
2.272076 1.425587 1.558719 0.736086449 0 -0.676887539 0 0
2.27748 1.425102 1.564595 0.736086449 0 -0.676887539 0 0
2.27748 1.426476 1.564595 0.697197361 -0.254199038 -0.670297463 0 0
2.272076 1.424201 1.558719 0.736086449 0 -0.676887539 0 0
2.265931 1.424654 1.552037 0.736086449 0 -0.676887539 0 0
2.265931 1.423267 1.552037 0.736086449 0 -0.676887539 0 0
2.272076 1.422815 1.558719 0.736086449 0 -0.676887539 0 0
2.27748 1.422353 1.564595 0.736086449 0 -0.676887539 0 0
2.27748 1.423727 1.564595 0.736086449 0 -0.676887539 0 0
2.272076 1.42143 1.558719 0.721805771 0.248601988 -0.645905164 0 0
2.265931 1.42188 1.552037 0.721297082 0.248798994 -0.646397385 0 0
2.27748 1.420979 1.564595 0.723904452 0.249501534 -0.643203956 0 0
2.259786 1.427888 1.545354 0.704609646 -0.248903408 -0.664509097 0 0
2.253641 1.428319 1.538671 0.705427495 -0.249209713 -0.663525861 0 0
2.253641 1.426932 1.538671 0.736086449 0 -0.676887539 0 0
2.259786 1.426501 1.545354 0.736086449 0 -0.676887539 0 0
2.259786 1.425114 1.545354 0.736086449 0 -0.676887539 0 0
2.253641 1.425546 1.538671 0.736086449 0 -0.676887539 0 0
2.253641 1.424159 1.538671 0.736086449 0 -0.676887539 0 0
2.259786 1.423727 1.545354 0.736086449 0 -0.676887539 0 0
2.259786 1.422341 1.545354 0.721180929 0.248393431 -0.646682899 0 0
2.253641 1.422772 1.538671 0.72038377 0.24809441 -0.647685408 0 0
2.247495 1.428684 1.531989 0.70704818 -0.249617009 -0.661645086 0 0
2.24135 1.428933 1.525306 0.709611404 -0.250104019 -0.658710586 0 0
2.24135 1.427546 1.525306 0.736086449 0 -0.676887539 0 0
2.247495 1.427297 1.531988 0.736086449 0 -0.676887539 0 0
2.247495 1.425911 1.531988 0.736086449 0 -0.676887539 0 0
2.24135 1.42616 1.525306 0.736086449 0 -0.676887539 0 0
2.24135 1.424773 1.525306 0.736086449 0 -0.676887539 0 0
2.247495 1.424524 1.531988 0.736086449 0 -0.676887539 0 0
2.247495 1.423137 1.531988 0.718748467 0.247716704 -0.649643807 0 0
2.24135 1.423386 1.525306 0.716233861 0.247411697 -0.652530849 0 0
2.235205 1.429016 1.518623 0.712044842 -0.249415707 -0.656341334 0 0
2.22906 1.429016 1.51194 0.712939405 -0.248713747 -0.655636238 0 0
2.22906 1.427629 1.51194 0.736086449 0 -0.676887539 0 0
2.235205 1.427629 1.518623 0.736086449 0 -0.676887539 0 0
2.235205 1.426243 1.518623 0.736086449 0 -0.676887539 0 0
2.22906 1.426243 1.51194 0.736086449 0 -0.676887539 0 0
2.22906 1.424856 1.51194 0.736086449 0 -0.676887539 0 0
2.235205 1.424856 1.518623 0.736086449 0 -0.676887539 0 0
2.235205 1.423469 1.518623 0.713814969 0.248105203 -0.654913734 0 0
2.22906 1.423469 1.51194 0.712939405 0.248713747 -0.655636238 0 0
2.287544 1.424306 1.57554 0.593841695 -0.29952103 -0.746752431 0 0
2.290191 1.422569 1.577574 0.237708917 0 -0.971336435 0 0
2.287544 1.423161 1.57554 0.675167481 0 -0.737664471 0 0
2.290191 1.423599 1.577574 0.166813449 -0.347628027 -0.922674389 0 0
2.284524 1.425172 1.572256 0.673144715 -0.272318089 -0.687545672 0 0
2.284524 1.423901 1.572256 0.736086449 0 -0.676887539 0 0
2.287544 1.422016 1.57554 0.675113064 0 -0.737714275 0 0
2.284524 1.42263 1.572256 0.736040627 0 -0.676937365 0 0
2.284524 1.421359 1.572256 0.736086449 0 -0.676887539 0 0
2.287544 1.420871 1.57554 0.675167481 0 -0.737664471 0 0
2.290191 1.420509 1.577574 0.237708917 0 -0.971336435 0 0
2.290191 1.421539 1.577574 0.237708917 0 -0.971336435 0 0
2.287544 1.419725 1.57554 0.655815107 0.301006934 -0.692315948 0 0
2.284524 1.420089 1.572256 0.723114007 0.269905228 -0.635812316 0 0
2.290191 1.419478 1.577574 0.214515108 0.39572787 -0.892962889 0 0
2.281399 1.425885 1.568857 0.686377072 -0.260791288 -0.678877322 0 0
2.281399 1.424544 1.568857 0.736086449 0 -0.676887539 0 0
2.281399 1.423202 1.568857 0.736086449 0 -0.676887539 0 0
2.281399 1.421861 1.568857 0.736136274 0 -0.676833352 0 0
2.281399 1.420519 1.568857 0.725714271 0.255705028 -0.63871256 0 0
2.295317 1.42143 1.537348 -0.704014527 0.248705132 0.665213727 0 0
2.289172 1.42188 1.530665 -0.704432796 0.248811584 0.664730947 0 0
2.289172 1.423267 1.530665 -0.736086449 0 0.676887539 0 0
2.295317 1.422815 1.537348 -0.736086449 0 0.676887539 0 0
2.300721 1.422353 1.543224 -0.736086449 0 0.676887539 0 0
2.300721 1.420979 1.543224 -0.701532008 0.249511384 0.667530457 0 0
2.295317 1.424201 1.537348 -0.736086449 0 0.676887539 0 0
2.289172 1.424654 1.530665 -0.736086449 0 0.676887539 0 0
2.289172 1.42604 1.530665 -0.736086449 0 0.676887539 0 0
2.295317 1.425587 1.537348 -0.736086449 0 0.676887539 0 0
2.300721 1.425102 1.543224 -0.736086449 0 0.676887539 0 0
2.300721 1.423727 1.543224 -0.736086449 0 0.676887539 0 0
2.295317 1.426973 1.537348 -0.722175125 -0.250191382 0.644877788 0 0
2.289172 1.427426 1.530665 -0.721409616 -0.248703315 0.646308615 0 0
2.300721 1.426476 1.543224 -0.726256327 -0.254319725 0.638649532 0 0
2.283027 1.422341 1.523982 -0.704683264 0.248494098 0.664584216 0 0
2.276882 1.422772 1.517299 -0.705627287 0.248109595 0.663725667 0 0
2.276882 1.424159 1.517299 -0.736086449 0 0.676887539 0 0
2.283027 1.423727 1.523982 -0.736086449 0 0.676887539 0 0
2.283027 1.425114 1.523982 -0.736086449 0 0.676887539 0 0
2.276882 1.425546 1.517299 -0.736086449 0 0.676887539 0 0
2.276882 1.426932 1.517299 -0.736086449 0 0.676887539 0 0
2.283027 1.426501 1.523982 -0.736086449 0 0.676887539 0 0
2.283027 1.427888 1.523982 -0.721166578 -0.248988461 0.64647004 0 0
2.276882 1.428319 1.517299 -0.720212499 -0.249304327 0.647411236 0 0
2.270736 1.423137 1.510617 -0.707441861 0.247714658 0.661939168 0 0
2.264591 1.423386 1.503934 -0.710149151 0.247417124 0.659145621 0 0
2.264591 1.424773 1.503934 -0.736086449 0 0.676887539 0 0
2.270736 1.424524 1.510617 -0.736086449 0 0.676887539 0 0
2.270736 1.425911 1.510617 -0.736086449 0 0.676887539 0 0
2.264591 1.42616 1.503934 -0.736086449 0 0.676887539 0 0
2.264591 1.427546 1.503934 -0.736086449 0 0.676887539 0 0
2.270736 1.427297 1.510617 -0.736086449 0 0.676887539 0 0
2.270736 1.428684 1.510617 -0.718480968 -0.249693386 0.649182803 0 0
2.264591 1.428933 1.503934 -0.715791536 -0.250097043 0.65199229 0 0
2.258446 1.423469 1.497251 -0.71234718 0.248016427 0.656543484 0 0
2.252301 1.423469 1.490569 -0.712939405 0.248713747 0.655636238 0 0
2.252301 1.424856 1.490569 -0.736086449 0 0.676887539 0 0
2.258446 1.424856 1.497251 -0.736086449 0 0.676887539 0 0
2.258446 1.426243 1.497251 -0.736086449 0 0.676887539 0 0
2.252301 1.426243 1.490569 -0.736086449 0 0.676887539 0 0
2.252301 1.427629 1.490569 -0.736086449 0 0.676887539 0 0
2.258446 1.427629 1.497251 -0.736086449 0 0.676887539 0 0
2.258446 1.429016 1.497251 -0.713626233 -0.249409168 0.654624064 0 0
2.252301 1.429016 1.490569 -0.712988574 -0.248696015 0.655589494 0 0
2.310785 1.419725 1.554168 -0.744841675 0.300916837 0.595533321 0 0
2.307765 1.420089 1.550884 -0.694131198 0.269912131 0.667329994 0 0
2.307765 1.421359 1.550884 -0.736086449 0 0.676887539 0 0
2.310785 1.420871 1.554168 -0.791619173 0 0.611014799 0 0
2.31259 1.420509 1.556976 -0.987819658 0 0.155603097 0 0
2.31259 1.419478 1.556976 -0.907733705 0.395814697 0.139105165 0 0
2.310785 1.422016 1.554168 -0.791570803 0 0.611077461 0 0
2.307765 1.42263 1.550884 -0.736040627 0 0.676937365 0 0
2.307765 1.423901 1.550884 -0.736040627 0 0.676937365 0 0
2.310785 1.423161 1.554168 -0.791570803 0 0.611077461 0 0
2.31259 1.422569 1.556976 -0.987819658 0 0.155603097 0 0
2.31259 1.421539 1.556976 -0.987819658 0 0.155603097 0 0
2.310785 1.424306 1.554168 -0.793809058 -0.299503417 0.529306039 0 0
2.307765 1.425172 1.550884 -0.741415518 -0.272305699 0.613312837 0 0
2.31259 1.423599 1.556976 -0.933399939 -0.347599977 0.0890999942 0 0
2.30464 1.420519 1.547486 -0.697211009 0.255704038 0.669710575 0 0
2.30464 1.421861 1.547486 -0.736086449 0 0.676887539 0 0
2.30464 1.423202 1.547486 -0.736086449 0 0.676887539 0 0
2.30464 1.424544 1.547486 -0.736086449 0 0.676887539 0 0
2.30464 1.425885 1.547486 -0.733878769 -0.260892452 0.627181856 0 0
2.292196 1.423364 1.577219 -0.429606115 -0.369605261 -0.823911729 0 0
2.292196 1.422372 1.577219 -0.443289394 0 -0.896378554 0 0
2.295522 1.422372 1.574161 -0.676887539 0 -0.736086449 0 0
2.295522 1.423364 1.574161 -0.620438363 -0.399724716 -0.674741721 0 0
2.292196 1.42138 1.577219 -0.443289394 0 -0.896378554 0 0
2.292196 1.420388 1.577219 -0.443289394 0 -0.896378554 0 0
2.295522 1.420388 1.574161 -0.676887539 0 -0.736086449 0 0
2.295522 1.42138 1.574161 -0.676887539 0 -0.736086449 0 0
2.292196 1.419396 1.577219 -0.391201858 0.456502168 -0.799103796 0 0
2.295522 1.419396 1.574161 -0.59362628 0.480521273 -0.645528578 0 0
2.302132 1.419396 1.568082 -0.59362628 0.480521273 -0.645528578 0 0
2.308743 1.419396 1.562003 -0.59362628 0.480521273 -0.645528578 0 0
2.308743 1.420388 1.562003 -0.676833352 0 -0.736136274 0 0
2.302132 1.420388 1.568082 -0.676887539 0 -0.736086449 0 0
2.302132 1.42138 1.568082 -0.676887539 0 -0.736086449 0 0
2.308743 1.42138 1.562003 -0.676887539 0 -0.736086449 0 0
2.308743 1.422372 1.562003 -0.676887539 0 -0.736086449 0 0
2.302132 1.422372 1.568082 -0.676887539 0 -0.736086449 0 0
2.302132 1.423364 1.568082 -0.620438363 -0.399724716 -0.674741721 0 0
2.308743 1.423364 1.562003 -0.620438363 -0.399724716 -0.674741721 0 0
2.312069 1.419396 1.558944 -0.763538411 0.456522966 -0.456722976 0 0
2.312069 1.420388 1.558944 -0.856148759 0 -0.516729429 0 0
2.312069 1.42138 1.558944 -0.856148759 0 -0.516729429 0 0
2.312069 1.422372 1.558944 -0.856148759 0 -0.516729429 0 0
2.312069 1.423364 1.558944 -0.785101896 -0.369600893 -0.4970012 0 0
2.178404 1.419178 1.453475 0.0188006586 0.992534769 -0.120504221 0 0
2.181061 1.419948 1.458898 0.39820883 0.806017874 -0.437909711 0 0
2.182324 1.419605 1.457737 0.0287999317 0.993097646 -0.113699731 0 0
2.177141 1.419513 1.454636 0.384596758 0.811093163 -0.440696285 0 0
2.174016 1.419136 1.451238 0.375724367 0.823053377 -0.425927622 0 0
2.175279 1.418818 1.450076 0.0214000251 0.993701168 -0.110000129 0 0
2.178606 1.418818 1.447018 -0.0443024241 0.997854599 -0.0482026375 0 0
2.181731 1.419178 1.450416 -0.0512017322 0.997133734 -0.0557018844 0 0
2.18565 1.419605 1.454678 -0.0435014367 0.997932957 -0.0473015622 0 0
2.188341 1.419178 1.444337 -0.0512017322 0.997133734 -0.0557018844 0 0
2.192261 1.419605 1.448599 -0.0435014367 0.997932957 -0.0473015622 0 0
2.185216 1.418818 1.440939 -0.0443024241 0.997854599 -0.0482026375 0 0
2.191827 1.418818 1.43486 -0.0443024241 0.997854599 -0.0482026375 0 0
2.194952 1.419178 1.438258 -0.0512017322 0.997133734 -0.0557018844 0 0
2.198871 1.419605 1.44252 -0.0435014367 0.997932957 -0.0473015622 0 0
2.198278 1.419178 1.4352 -0.121604956 0.992540447 0.00870035455 0 0
2.202197 1.419605 1.439462 -0.115699841 0.99309864 0.0191999737 0 0
2.195153 1.418818 1.431801 -0.111301459 0.993713023 0.0121001586 0 0
2.196415 1.419136 1.43064 -0.45579255 0.823086547 0.338794462 0 0
2.199541 1.419513 1.434038 -0.471416047 0.811027608 0.346411792 0 0
2.20346 1.419948 1.438301 -0.469700439 0.806000754 0.360200337 0 0
2.172259 1.41858 1.446792 0.0620048341 0.995877642 -0.0662051616 0 0
2.170996 1.418867 1.447953 0.412801106 0.839802251 -0.352600945 0 0
2.169675 1.41894 1.445859 0.476298814 0.857997864 -0.192299521 0 0
2.170033 1.418696 1.444371 0.324613468 0.938138924 0.120505 0 0
2.173359 1.418696 1.441313 0.201108654 0.954841088 0.218709411 0 0
2.175585 1.41858 1.443733 -0.00610036365 0.999959609 -0.00660039346 0 0
2.182196 1.41858 1.437654 -0.00610036365 0.999959609 -0.00660039346 0 0
2.17997 1.418696 1.435234 0.201108654 0.954841088 0.218709411 0 0
2.18658 1.418696 1.429155 0.201108654 0.954841088 0.218709411 0 0
2.188806 1.41858 1.431576 -0.00610036365 0.999959609 -0.00660039346 0 0
2.192132 1.41858 1.428517 -0.0711055984 0.995878409 0.056304433 0 0
2.189907 1.418696 1.426096 0.0929022771 0.938122994 0.333608177 0 0
2.191419 1.41894 1.425864 -0.231397233 0.857989739 0.458594515 0 0
2.193395 1.418867 1.427356 -0.385823744 0.839851686 0.381823498 0 0
2.178404 1.427227 1.453475 0.161697887 -0.986187111 0.0358995308 0 0
2.174016 1.426125 1.451238 0.517017142 -0.813526973 -0.266208826 0 0
2.175279 1.426443 1.450076 0.19399215 -0.977760436 0.0796967751 0 0
2.177141 1.426891 1.454636 0.498538713 -0.809762881 -0.309424028 0 0
2.181061 1.427506 1.458898 0.477089786 -0.807882703 -0.345992592 0 0
2.182324 1.42785 1.457737 0.129201395 -0.991610704 -0.0039000421 0 0
2.18565 1.42785 1.454678 0.0577032655 -0.996356385 0.0628035542 0 0
2.181731 1.427227 1.450416 0.0929036391 -0.9905388 0.101003956 0 0
2.178606 1.426443 1.447018 0.130106639 -0.981350075 0.141507221 0 0
2.188341 1.427227 1.444337 0.0929036391 -0.9905388 0.101003956 0 0
2.185216 1.426443 1.440939 0.130106639 -0.981350075 0.141507221 0 0
2.19226 1.42785 1.448599 0.0577032655 -0.996356385 0.0628035542 0 0
2.198871 1.42785 1.44252 0.0577032655 -0.996356385 0.0628035542 0 0
2.194952 1.427227 1.438258 0.0929036391 -0.9905388 0.101003956 0 0
2.191827 1.426443 1.43486 0.130106639 -0.981350075 0.141507221 0 0
2.198278 1.427227 1.4352 0.0221998658 -0.986194038 0.164099008 0 0
2.195153 1.426443 1.431801 0.0631972485 -0.977757429 0.199991293 0 0
2.202197 1.42785 1.439462 -0.0147000081 -0.991600545 0.128500071 0 0
2.20346 1.427506 1.438301 -0.384719779 -0.807841532 0.446522956 0 0
2.199541 1.426891 1.434038 -0.350112095 -0.809727973 0.470916268 0 0
2.196415 1.426125 1.43064 -0.308504774 -0.813612591 0.492807626 0 0
2.172259 1.425451 1.446792 0.242502942 -0.960711653 0.135001638 0 0
2.169675 1.424385 1.445859 0.603814163 -0.79681869 -0.0221005184 0 0
2.170033 1.424382 1.444371 0.452290518 -0.845782268 0.282994067 0 0
2.170996 1.425165 1.447953 0.556134164 -0.810849812 -0.1823112 0 0
2.175585 1.425451 1.443733 0.178296952 -0.964683509 0.193896685 0 0
2.173359 1.424382 1.441313 0.343000959 -0.862102409 0.373001043 0 0
2.182196 1.425451 1.437654 0.178296952 -0.964683509 0.193896685 0 0
2.17997 1.424382 1.435234 0.343000959 -0.862102409 0.373001043 0 0
2.188806 1.425451 1.431576 0.178296952 -0.964683509 0.193896685 0 0
2.18658 1.424382 1.429155 0.343000959 -0.862102409 0.373001043 0 0
2.192132 1.425451 1.428517 0.114200278 -0.960702339 0.253000616 0 0
2.189907 1.424382 1.426096 0.244097826 -0.845792468 0.474395776 0 0
2.193395 1.425165 1.427356 -0.228194608 -0.810880839 0.538887266 0 0
2.191419 1.424385 1.425864 -0.0725033885 -0.796837241 0.599828034 0 0
2.224598 1.422082 1.503709 0.0702017014 0.995024115 -0.0707017135 0 0
2.223336 1.422429 1.50487 0.433802861 0.805405312 -0.403902664 0 0
2.21719 1.422346 1.498188 0.426697726 0.80489571 -0.412397802 0 0
2.218453 1.421999 1.497026 0.0609041267 0.99486741 -0.0808054752 0 0
2.221779 1.421999 1.493968 -0.0124004132 0.999833315 -0.0134004465 0 0
2.227925 1.422082 1.500651 -0.00309996823 0.99998975 -0.00329996618 0 0
2.234535 1.422082 1.494572 -0.00309996823 0.99998975 -0.00329996618 0 0
2.22839 1.421999 1.487889 -0.0124004132 0.999833315 -0.0134004465 0 0
2.235 1.421999 1.48181 -0.0124004132 0.999833315 -0.0134004465 0 0
2.241146 1.422082 1.488493 -0.00309996719 0.999989415 -0.00339996401 0 0
2.244472 1.422082 1.485434 -0.0763021865 0.995028513 0.064001834 0 0
2.238326 1.421999 1.478752 -0.0856055474 0.994864469 0.0540034995 0 0
2.239589 1.422346 1.47759 -0.446724477 0.804844099 0.390721408 0 0
2.245734 1.422429 1.484273 -0.438733036 0.805460649 0.398430001 0 0
2.212308 1.42175 1.490344 0.0504036814 0.994472634 -0.0921067273 0 0
2.211045 1.422097 1.491505 0.417900395 0.804900761 -0.421300398 0 0
2.2049 1.421732 1.484822 0.412113594 0.804926551 -0.426914082 0 0
2.206163 1.421385 1.483661 0.0436994568 0.994087644 -0.0993987645 0 0
2.209489 1.421385 1.480602 -0.0297010933 0.999036775 -0.032301189 0 0
2.215634 1.42175 1.487285 -0.0229006323 0.999427595 -0.0249006875 0 0
2.222245 1.42175 1.481206 -0.0229006323 0.999427595 -0.0249006875 0 0
2.216099 1.421385 1.474523 -0.0297010933 0.999036775 -0.032301189 0 0
2.22271 1.421385 1.468445 -0.0297010933 0.999036775 -0.032301189 0 0
2.228855 1.42175 1.475127 -0.0229006323 0.999427595 -0.0249006875 0 0
2.232181 1.42175 1.472069 -0.0960066189 0.994468561 0.0426029371 0 0
2.226036 1.421385 1.465386 -0.102698914 0.994089493 0.0351996279 0 0
2.227299 1.421732 1.464225 -0.459979529 0.80486418 0.374983312 0 0
2.233444 1.422097 1.470907 -0.454831949 0.804856535 0.381226778 0 0
2.200017 1.420954 1.476978 0.0402019153 0.993847348 -0.103204917 0 0
2.198755 1.421301 1.47814 0.408993039 0.804986299 -0.429792685 0 0
2.192609 1.420841 1.471457 0.408223414 0.805146181 -0.430224676 0 0
2.193872 1.420494 1.470295 0.0394002756 0.993806952 -0.103900727 0 0
2.197198 1.420494 1.467237 -0.0338017177 0.998750753 -0.0368018701 0 0
2.203344 1.420954 1.47392 -0.0331998856 0.998796559 -0.0360998756 0 0
2.209954 1.420954 1.467841 -0.0331998856 0.998796559 -0.0360998756 0 0
2.203809 1.420494 1.461158 -0.0338017177 0.998750753 -0.0368018701 0 0
2.210419 1.420494 1.455079 -0.0338017177 0.998750753 -0.0368018701 0 0
2.216565 1.420954 1.461762 -0.0331998856 0.998796559 -0.0360998756 0 0
2.219891 1.420954 1.458703 -0.106205493 0.993851398 0.0313016188 0 0
2.213746 1.420494 1.452021 -0.106801012 0.993809421 0.0306002901 0 0
2.215008 1.420841 1.450859 -0.462831823 0.80515536 0.370825497 0 0
2.221154 1.421301 1.457542 -0.462533114 0.804957629 0.371626606 0 0
2.187727 1.420044 1.463613 0.0378004217 0.993711085 -0.105401176 0 0
2.186464 1.42039 1.464774 0.406711351 0.805222474 -0.431512044 0 0
2.191053 1.420044 1.460554 -0.035301366 0.998638643 -0.038401486 0 0
2.197664 1.420044 1.454475 -0.035301366 0.998638643 -0.038401486 0 0
2.204274 1.420044 1.448396 -0.035301366 0.998638643 -0.038401486 0 0
2.2076 1.420044 1.445338 -0.108201278 0.993711741 0.0288003403 0 0
2.208863 1.42039 1.444177 -0.464011211 0.805219454 0.36920892 0 0
2.224598 1.430403 1.503709 0.0763021865 -0.995028513 -0.064001834 0 0
2.21719 1.429973 1.498188 0.444913708 -0.806624852 -0.389111989 0 0
2.218453 1.43032 1.497026 0.0854982272 -0.994879371 -0.0538988824 0 0
2.223336 1.430056 1.50487 0.437926246 -0.80624832 -0.397723836 0 0
2.227925 1.430403 1.50065 0.00309996719 -0.999989415 0.00339996401 0 0
2.221779 1.43032 1.493968 0.0124004132 -0.999833315 0.0134004465 0 0
2.234535 1.430403 1.494572 0.00309996719 -0.999989415 0.00339996401 0 0
2.22839 1.43032 1.487889 0.0124004132 -0.999833315 0.0134004465 0 0
2.241146 1.430403 1.488493 0.00309996719 -0.999989415 0.00339996401 0 0
2.235 1.43032 1.48181 0.0124004132 -0.999833315 0.0134004465 0 0
2.244472 1.430403 1.485434 -0.0701021907 -0.995031095 0.0707022095 0 0
2.238326 1.43032 1.478752 -0.0608985595 -0.994876466 0.0806980911 0 0
2.245734 1.430056 1.484273 -0.432932372 -0.806260286 0.403130143 0 0
2.239589 1.429973 1.47759 -0.425003145 -0.806605969 0.41080304 0 0
2.212308 1.430071 1.490344 0.0958979948 -0.994479206 -0.0425991093 0 0
2.2049 1.429359 1.484822 0.45920999 -0.805617526 -0.374308143 0 0
2.206163 1.429706 1.483661 0.102698914 -0.994089493 -0.0351996279 0 0
2.211045 1.429724 1.491505 0.453594062 -0.806089448 -0.380095025 0 0
2.215634 1.430071 1.487285 0.0229006323 -0.999427595 0.0249006875 0 0
2.209489 1.429706 1.480602 0.0297010933 -0.999036775 0.032301189 0 0
2.222245 1.430071 1.481206 0.0229006323 -0.999427595 0.0249006875 0 0
2.216099 1.429706 1.474523 0.0297010933 -0.999036775 0.032301189 0 0
2.228855 1.430071 1.475127 0.0229006323 -0.999427595 0.0249006875 0 0
2.22271 1.429706 1.468445 0.0297010933 -0.999036775 0.032301189 0 0
2.232181 1.430071 1.472069 -0.0503991329 -0.99448289 0.0919984172 0 0
2.226036 1.429706 1.465386 -0.0435996484 -0.994091983 0.0993991983 0 0
2.233444 1.429724 1.470907 -0.416699137 -0.806098331 0.42019913 0 0
2.227299 1.429359 1.464225 -0.411521772 -0.805542618 0.426322555 0 0
2.200017 1.429274 1.476978 0.106205493 -0.993851398 -0.0313016188 0 0
2.192609 1.428466 1.471457 0.463121976 -0.8050382 -0.370717591 0 0
2.193872 1.428813 1.470295 0.107098232 -0.993783598 -0.0303994983 0 0
2.198755 1.428928 1.478139 0.46223708 -0.805264597 -0.371329787 0 0
2.203344 1.429274 1.47392 0.0331998856 -0.998796559 0.0360998756 0 0
2.197198 1.428813 1.467237 0.0341011339 -0.998733208 0.0370012303 0 0
2.209954 1.429274 1.467841 0.0331998856 -0.998796559 0.0360998756 0 0
2.203809 1.428813 1.461158 0.0341011339 -0.998733208 0.0370012303 0 0
2.216565 1.429274 1.461762 0.0331998856 -0.998796559 0.0360998756 0 0
2.210419 1.428813 1.455079 0.0341011339 -0.998733208 0.0370012303 0 0
2.219891 1.429274 1.458703 -0.0401020715 -0.993851339 0.103205331 0 0
2.213746 1.428813 1.452021 -0.0391993587 -0.993783742 0.104198295 0 0
2.221154 1.428928 1.457542 -0.408712488 -0.805224604 0.429613127 0 0
2.215008 1.428466 1.450859 -0.408120231 -0.805039907 0.430521341 0 0
2.187727 1.428358 1.463613 0.111098016 -0.993482262 -0.0254995447 0 0
2.186464 1.428012 1.464774 0.465332177 -0.80595573 -0.365925303 0 0
2.191053 1.428358 1.460554 0.0383995323 -0.99838784 0.0417994909 0 0
2.197664 1.428358 1.454475 0.0383995323 -0.99838784 0.0417994909 0 0
2.204274 1.428358 1.448396 0.0383995323 -0.99838784 0.0417994909 0 0
2.2076 1.428358 1.445338 -0.0346993008 -0.993479982 0.108597812 0 0
2.208863 1.428012 1.444176 -0.403611426 -0.805922816 0.433112262 0 0
2.186043 1.426973 1.465161 0.722175125 -0.250191382 -0.644877788 0 0
2.192188 1.427426 1.471844 0.721409616 -0.248703315 -0.646308615 0 0
2.18064 1.426476 1.459285 0.726274796 -0.254226182 -0.638665773 0 0
2.18064 1.425102 1.459285 0.736086449 0 -0.676887539 0 0
2.186043 1.425587 1.465161 0.736086449 0 -0.676887539 0 0
2.192188 1.42604 1.471844 0.736086449 0 -0.676887539 0 0
2.186043 1.424201 1.465161 0.736086449 0 -0.676887539 0 0
2.192188 1.424654 1.471844 0.736086449 0 -0.676887539 0 0
2.18064 1.423727 1.459285 0.736086449 0 -0.676887539 0 0
2.18064 1.422353 1.459285 0.736086449 0 -0.676887539 0 0
2.186043 1.422815 1.465161 0.736086449 0 -0.676887539 0 0
2.192188 1.423267 1.471844 0.736086449 0 -0.676887539 0 0
2.186043 1.42143 1.465161 0.704014527 0.248705132 -0.665213727 0 0
2.192188 1.42188 1.471844 0.704432796 0.248811584 -0.664730947 0 0
2.18064 1.420979 1.459285 0.701532008 0.249511384 -0.667530457 0 0
2.198334 1.427888 1.478527 0.721166578 -0.248988461 -0.64647004 0 0
2.204479 1.428319 1.485209 0.720212499 -0.249304327 -0.647411236 0 0
2.198334 1.426501 1.478527 0.736086449 0 -0.676887539 0 0
2.204479 1.426932 1.485209 0.736086449 0 -0.676887539 0 0
2.198334 1.425114 1.478527 0.736086449 0 -0.676887539 0 0
2.204479 1.425546 1.485209 0.736086449 0 -0.676887539 0 0
2.198334 1.423727 1.478527 0.736086449 0 -0.676887539 0 0
2.204479 1.424159 1.485209 0.736086449 0 -0.676887539 0 0
2.198334 1.422341 1.478527 0.704632918 0.248511609 -0.664631049 0 0
2.204479 1.422772 1.485209 0.705609776 0.248203439 -0.663709196 0 0
2.210624 1.428684 1.491892 0.718480968 -0.249693386 -0.649182803 0 0
2.216769 1.428933 1.498575 0.715791536 -0.250097043 -0.65199229 0 0
2.210624 1.427297 1.491892 0.736086449 0 -0.676887539 0 0
2.216769 1.427546 1.498575 0.736086449 0 -0.676887539 0 0
2.210624 1.425911 1.491892 0.736086449 0 -0.676887539 0 0
2.216769 1.42616 1.498575 0.736086449 0 -0.676887539 0 0
2.210624 1.424524 1.491892 0.736086449 0 -0.676887539 0 0
2.216769 1.424773 1.498575 0.736086449 0 -0.676887539 0 0
2.210624 1.423137 1.491892 0.707424332 0.247808524 -0.661922767 0 0
2.216769 1.423386 1.498575 0.710149151 0.247417124 -0.659145621 0 0
2.222914 1.429016 1.505257 0.713626233 -0.249409168 -0.654624064 0 0
2.222914 1.427629 1.505257 0.736086449 0 -0.676887539 0 0
2.222914 1.426243 1.505257 0.736086449 0 -0.676887539 0 0
2.222914 1.424856 1.505257 0.736086449 0 -0.676887539 0 0
2.222914 1.423469 1.505257 0.71234718 0.248016427 -0.656543484 0 0
2.170575 1.424306 1.44834 0.793809058 -0.299503417 -0.529306039 0 0
2.16877 1.422569 1.445533 0.987819658 0 -0.155603097 0 0
2.16877 1.423599 1.445533 0.933399939 -0.347599977 -0.0890999942 0 0
2.170575 1.423161 1.44834 0.791570803 0 -0.611077461 0 0
2.173595 1.423901 1.451625 0.736086449 0 -0.676887539 0 0
2.173595 1.425172 1.451625 0.741415518 -0.272305699 -0.613312837 0 0
2.170575 1.422016 1.44834 0.791570803 0 -0.611077461 0 0
2.173595 1.42263 1.451625 0.736086449 0 -0.676887539 0 0
2.16877 1.421539 1.445533 0.987819658 0 -0.155603097 0 0
2.16877 1.420509 1.445533 0.987819658 0 -0.155603097 0 0
2.170575 1.420871 1.44834 0.791570803 0 -0.611077461 0 0
2.173595 1.421359 1.451625 0.736086449 0 -0.676887539 0 0
2.170575 1.419725 1.44834 0.744841675 0.300916837 -0.595533321 0 0
2.173595 1.420089 1.451625 0.694131198 0.269912131 -0.667329994 0 0
2.16877 1.419478 1.445533 0.907733705 0.395814697 -0.139105165 0 0
2.17672 1.425885 1.455023 0.733878769 -0.260892452 -0.627181856 0 0
2.17672 1.424544 1.455023 0.736086449 0 -0.676887539 0 0
2.17672 1.423202 1.455023 0.736086449 0 -0.676887539 0 0
2.17672 1.421861 1.455023 0.736136274 0 -0.676833352 0 0
2.17672 1.420519 1.455023 0.697211009 0.255704038 -0.669710575 0 0
2.209284 1.42143 1.443789 -0.721787824 0.248695805 0.645889104 0 0
2.21543 1.42188 1.450472 -0.721297082 0.248798994 0.646397385 0 0
2.203881 1.420979 1.437914 -0.723904452 0.249501534 0.643203956 0 0
2.203881 1.422353 1.437914 -0.736086449 0 0.676887539 0 0
2.209284 1.422815 1.443789 -0.736086449 0 0.676887539 0 0
2.215429 1.423267 1.450472 -0.736086449 0 0.676887539 0 0
2.209284 1.424201 1.443789 -0.736086449 0 0.676887539 0 0
2.215429 1.424654 1.450472 -0.736136274 0 0.676833352 0 0
2.203881 1.423727 1.437914 -0.736040627 0 0.676937365 0 0
2.203881 1.425102 1.437914 -0.736086449 0 0.676887539 0 0
2.209284 1.425587 1.443789 -0.736136274 0 0.676833352 0 0
2.215429 1.42604 1.450472 -0.736136274 0 0.676833352 0 0
2.209284 1.426973 1.443789 -0.703029704 -0.250110567 0.665728128 0 0
2.215429 1.427426 1.450472 -0.70440349 -0.248701232 0.664803294 0 0
2.203881 1.426476 1.437914 -0.697197361 -0.254199038 0.670297463 0 0
2.221575 1.422341 1.457155 -0.721180929 0.248393431 0.646682899 0 0
2.22772 1.422772 1.463838 -0.72038377 0.24809441 0.647685408 0 0
2.221575 1.423727 1.457155 -0.736086449 0 0.676887539 0 0
2.22772 1.424159 1.463838 -0.736086449 0 0.676887539 0 0
2.221575 1.425114 1.457155 -0.736086449 0 0.676887539 0 0
2.22772 1.425546 1.463838 -0.736086449 0 0.676887539 0 0
2.221575 1.426501 1.457155 -0.736136274 0 0.676833352 0 0
2.22772 1.426932 1.463838 -0.736086449 0 0.676887539 0 0
2.221575 1.427888 1.457155 -0.704609646 -0.248903408 0.664509097 0 0
2.22772 1.428319 1.463838 -0.705427495 -0.249209713 0.663525861 0 0
2.233865 1.423137 1.47052 -0.718748467 0.247716704 0.649643807 0 0
2.24001 1.423386 1.477203 -0.716233861 0.247411697 0.652530849 0 0
2.233865 1.424524 1.47052 -0.736086449 0 0.676887539 0 0
2.24001 1.424773 1.477203 -0.736086449 0 0.676887539 0 0
2.233865 1.425911 1.47052 -0.736086449 0 0.676887539 0 0
2.24001 1.42616 1.477203 -0.736086449 0 0.676887539 0 0
2.233865 1.427297 1.47052 -0.736086449 0 0.676887539 0 0
2.24001 1.427546 1.477203 -0.736086449 0 0.676887539 0 0
2.233865 1.428684 1.47052 -0.70704818 -0.249617009 0.661645086 0 0
2.24001 1.428933 1.477203 -0.709611404 -0.250104019 0.658710586 0 0
2.246156 1.423469 1.483886 -0.713814969 0.248105203 0.654913734 0 0
2.246156 1.424856 1.483886 -0.736086449 0 0.676887539 0 0
2.246156 1.426243 1.483886 -0.736086449 0 0.676887539 0 0
2.246156 1.427629 1.483886 -0.736086449 0 0.676887539 0 0
2.246156 1.429016 1.483886 -0.712044842 -0.249415707 0.656341334 0 0
2.193816 1.419725 1.426969 -0.655815107 0.301006934 0.692315948 0 0
2.196836 1.420089 1.430253 -0.723114007 0.269905228 0.635812316 0 0
2.19117 1.419478 1.424935 -0.214515108 0.39572787 0.892962889 0 0
2.19117 1.420509 1.424935 -0.237708917 0 0.971336435 0 0
2.193816 1.420871 1.426969 -0.675217286 0 0.737618883 0 0
2.196836 1.421359 1.430253 -0.736136274 0 0.676833352 0 0
2.193816 1.422016 1.426969 -0.675217286 0 0.737618883 0 0
2.196836 1.42263 1.430253 -0.736086449 0 0.676887539 0 0
2.19117 1.421539 1.424935 -0.237708917 0 0.971336435 0 0
2.19117 1.422569 1.424935 -0.237708917 0 0.971336435 0 0
2.193816 1.423161 1.426969 -0.675113064 0 0.737714275 0 0
2.196836 1.423901 1.430253 -0.736040627 0 0.676937365 0 0
2.193816 1.424306 1.426969 -0.593823905 -0.299612061 0.74673006 0 0
2.196836 1.425172 1.430253 -0.673144715 -0.272318089 0.687545672 0 0
2.19117 1.423599 1.424935 -0.166813449 -0.347628027 0.922674389 0 0
2.199961 1.420519 1.433651 -0.725714271 0.255705028 0.63871256 0 0
2.199961 1.421861 1.433651 -0.736086449 0 0.676887539 0 0
2.199961 1.423202 1.433651 -0.736040627 0 0.676937365 0 0
2.199961 1.424544 1.433651 -0.736086449 0 0.676887539 0 0
2.199961 1.425885 1.433651 -0.686377072 -0.260791288 0.678877322 0 0
2.169291 1.423364 1.443564 0.785101896 -0.369600893 0.4970012 0 0
2.172617 1.423364 1.440506 0.620438363 -0.399724716 0.674741721 0 0
2.172617 1.422372 1.440506 0.676887539 0 0.736086449 0 0
2.169291 1.422372 1.443564 0.856148759 0 0.516729429 0 0
2.169291 1.42138 1.443564 0.856148759 0 0.516729429 0 0
2.172617 1.42138 1.440506 0.676887539 0 0.736086449 0 0
2.172617 1.420388 1.440506 0.676833352 0 0.736136274 0 0
2.169291 1.420388 1.443564 0.856148759 0 0.516729429 0 0
2.169291 1.419396 1.443564 0.763580109 0.456488109 0.456688103 0 0
2.172617 1.419396 1.440506 0.59362628 0.480521273 0.645528578 0 0
2.179228 1.419396 1.434427 0.59362628 0.480521273 0.645528578 0 0
2.185838 1.419396 1.428348 0.593587959 0.480490253 0.645586904 0 0
2.179228 1.420388 1.434427 0.676887539 0 0.736086449 0 0
2.185838 1.420388 1.428348 0.676887539 0 0.736086449 0 0
2.179228 1.42138 1.434427 0.676887539 0 0.736086449 0 0
2.185838 1.42138 1.428348 0.676887539 0 0.736086449 0 0
2.179228 1.422372 1.434427 0.676887539 0 0.736086449 0 0
2.185838 1.422372 1.428348 0.676887539 0 0.736086449 0 0
2.179228 1.423364 1.434427 0.620438363 -0.399724716 0.674741721 0 0
2.185838 1.423364 1.428348 0.620438363 -0.399724716 0.674741721 0 0
2.189165 1.419396 1.42529 0.391201858 0.456502168 0.799103796 0 0
2.189165 1.420388 1.42529 0.443289394 0 0.896378554 0 0
2.189165 1.42138 1.42529 0.443289394 0 0.896378554 0 0
2.189165 1.422372 1.42529 0.443289394 0 0.896378554 0 0
2.189165 1.423364 1.42529 0.429606115 -0.369605261 0.823911729 0 0
3 0 1 2
3 0 3 1
3 0 4 3
3 0 5 4
3 0 6 5
3 0 7 6
3 0 8 7
3 0 2 8
3 9 4 5
3 9 10 4
3 9 11 10
3 9 12 11
3 9 13 12
3 9 14 13
3 9 6 14
3 9 5 6
3 15 11 12
3 15 16 11
3 15 17 16
3 15 18 17
3 15 19 18
3 15 20 19
3 15 13 20
3 15 12 13
3 21 8 22
3 21 7 8
3 21 6 7
3 21 23 6
3 21 24 23
3 21 25 24
3 21 26 25
3 21 22 26
3 27 6 23
3 27 14 6
3 27 13 14
3 27 28 13
3 27 29 28
3 27 30 29
3 27 24 30
3 27 23 24
3 31 13 28
3 31 20 13
3 31 19 20
3 31 32 19
3 31 33 32
3 31 34 33
3 31 29 34
3 31 28 29
3 35 36 37
3 35 38 36
3 35 39 38
3 35 40 39
3 35 41 40
3 35 42 41
3 35 43 42
3 35 37 43
3 44 39 40
3 44 45 39
3 44 46 45
3 44 47 46
3 44 48 47
3 44 49 48
3 44 41 49
3 44 40 41
3 50 46 47
3 50 51 46
3 50 52 51
3 50 53 52
3 50 54 53
3 50 55 54
3 50 48 55
3 50 47 48
3 56 57 58
3 56 59 57
3 56 60 59
3 56 61 60
3 56 39 61
3 56 38 39
3 56 36 38
3 56 58 36
3 62 60 61
3 62 63 60
3 62 64 63
3 62 65 64
3 62 46 65
3 62 45 46
3 62 39 45
3 62 61 39
3 66 64 65
3 66 67 64
3 66 68 67
3 66 69 68
3 66 52 69
3 66 51 52
3 66 46 51
3 66 65 46
3 70 71 72
3 70 73 71
3 70 74 73
3 70 75 74
3 70 76 75
3 70 77 76
3 70 78 77
3 70 72 78
3 79 74 75
3 79 80 74
3 79 81 80
3 79 82 81
3 79 83 82
3 79 84 83
3 79 76 84
3 79 75 76
3 85 81 82
3 85 86 81
3 85 87 86
3 85 88 87
3 85 89 88
3 85 90 89
3 85 83 90
3 85 82 83
3 91 78 92
3 91 77 78
3 91 76 77
3 91 93 76
3 91 94 93
3 91 95 94
3 91 96 95
3 91 92 96
3 97 76 93
3 97 84 76
3 97 83 84
3 97 98 83
3 97 99 98
3 97 100 99
3 97 94 100
3 97 93 94
3 101 83 98
3 101 90 83
3 101 89 90
3 101 102 89
3 101 103 102
3 101 104 103
3 101 99 104
3 101 98 99
3 105 96 106
3 105 95 96
3 105 94 95
3 105 107 94
3 105 108 107
3 105 109 108
3 105 110 109
3 105 106 110
3 111 94 107
3 111 100 94
3 111 99 100
3 111 112 99
3 111 113 112
3 111 114 113
3 111 108 114
3 111 107 108
3 115 99 112
3 115 104 99
3 115 103 104
3 115 116 103
3 115 117 116
3 115 118 117
3 115 113 118
3 115 112 113
3 119 110 120
3 119 109 110
3 119 108 109
3 119 121 108
3 119 4 121
3 119 3 4
3 119 1 3
3 119 120 1
3 122 108 121
3 122 114 108
3 122 113 114
3 122 123 113
3 122 11 123
3 122 10 11
3 122 4 10
3 122 121 4
3 124 113 123
3 124 118 113
3 124 117 118
3 124 125 117
3 124 17 125
3 124 16 17
3 124 11 16
3 124 123 11
3 126 127 128
3 126 129 127
3 126 130 129
3 126 131 130
3 126 132 131
3 126 133 132
3 126 134 133
3 126 128 134
3 135 130 131
3 135 136 130
3 135 137 136
3 135 138 137
3 135 139 138
3 135 140 139
3 135 132 140
3 135 131 132
3 141 137 138
3 141 142 137
3 141 143 142
3 141 144 143
3 141 145 144
3 141 146 145
3 141 139 146
3 141 138 139
3 147 148 149
3 147 150 148
3 147 151 150
3 147 152 151
3 147 130 152
3 147 129 130
3 147 127 129
3 147 149 127
3 153 151 152
3 153 154 151
3 153 155 154
3 153 156 155
3 153 137 156
3 153 136 137
3 153 130 136
3 153 152 130
3 157 155 156
3 157 158 155
3 157 159 158
3 157 160 159
3 157 143 160
3 157 142 143
3 157 137 142
3 157 156 137
3 161 162 163
3 161 164 162
3 161 165 164
3 161 166 165
3 161 151 166
3 161 150 151
3 161 148 150
3 161 163 148
3 167 165 166
3 167 168 165
3 167 169 168
3 167 170 169
3 167 155 170
3 167 154 155
3 167 151 154
3 167 166 151
3 171 169 170
3 171 172 169
3 171 173 172
3 171 174 173
3 171 159 174
3 171 158 159
3 171 155 158
3 171 170 155
3 175 43 176
3 175 42 43
3 175 41 42
3 175 177 41
3 175 165 177
3 175 164 165
3 175 162 164
3 175 176 162
3 178 41 177
3 178 49 41
3 178 48 49
3 178 179 48
3 178 169 179
3 178 168 169
3 178 165 168
3 178 177 165
3 180 48 179
3 180 55 48
3 180 54 55
3 180 181 54
3 180 173 181
3 180 172 173
3 180 169 172
3 180 179 169
3 182 162 176
3 182 183 162
3 182 184 183
3 182 185 184
3 182 186 185
3 182 187 186
3 182 43 187
3 182 176 43
3 188 184 185
3 188 189 184
3 188 190 189
3 188 191 190
3 188 192 191
3 188 193 192
3 188 186 193
3 188 185 186
3 194 190 191
3 194 195 190
3 194 110 195
3 194 120 110
3 194 1 120
3 194 196 1
3 194 192 196
3 194 191 192
3 197 148 163
3 197 198 148
3 197 199 198
3 197 200 199
3 197 184 200
3 197 183 184
3 197 162 183
3 197 163 162
3 201 199 200
3 201 202 199
3 201 203 202
3 201 204 203
3 201 190 204
3 201 189 190
3 201 184 189
3 201 200 184
3 205 203 204
3 205 206 203
3 205 96 206
3 205 106 96
3 205 110 106
3 205 195 110
3 205 190 195
3 205 204 190
3 207 127 149
3 207 208 127
3 207 209 208
3 207 210 209
3 207 199 210
3 207 198 199
3 207 148 198
3 207 149 148
3 211 209 210
3 211 212 209
3 211 213 212
3 211 214 213
3 211 203 214
3 211 202 203
3 211 199 202
3 211 210 199
3 215 213 214
3 215 216 213
3 215 78 216
3 215 92 78
3 215 96 92
3 215 206 96
3 215 203 206
3 215 214 203
3 217 134 128
3 217 218 134
3 217 219 218
3 217 220 219
3 217 209 220
3 217 208 209
3 217 127 208
3 217 128 127
3 221 219 220
3 221 222 219
3 221 223 222
3 221 224 223
3 221 213 224
3 221 212 213
3 221 209 212
3 221 220 209
3 225 223 224
3 225 226 223
3 225 71 226
3 225 72 71
3 225 78 72
3 225 216 78
3 225 213 216
3 225 224 213
3 227 228 229
3 227 230 228
3 227 57 230
3 227 58 57
3 227 36 58
3 227 231 36
3 227 232 231
3 227 229 232
3 233 232 229
3 233 234 232
3 233 235 234
3 233 236 235
3 233 237 236
3 233 238 237
3 233 228 238
3 233 229 228
3 239 235 236
3 239 240 235
3 239 8 240
3 239 22 8
3 239 26 22
3 239 241 26
3 239 237 241
3 239 236 237
3 242 43 37
3 242 187 43
3 242 186 187
3 242 243 186
3 242 232 243
3 242 231 232
3 242 36 231
3 242 37 36
3 244 186 243
3 244 193 186
3 244 192 193
3 244 245 192
3 244 235 245
3 244 234 235
3 244 232 234
3 244 243 232
3 246 192 245
3 246 196 192
3 246 1 196
3 246 2 1
3 246 8 2
3 246 240 8
3 246 235 240
3 246 245 235
3 247 117 125
3 247 248 117
3 247 249 248
3 247 250 249
3 247 251 250
3 247 252 251
3 247 17 252
3 247 125 17
3 253 249 250
3 253 254 249
3 253 255 254
3 253 256 255
3 253 257 256
3 253 258 257
3 253 251 258
3 253 250 251
3 259 255 256
3 259 260 255
3 259 173 260
3 259 181 173
3 259 54 181
3 259 261 54
3 259 257 261
3 259 256 257
3 262 103 116
3 262 263 103
3 262 264 263
3 262 265 264
3 262 249 265
3 262 248 249
3 262 117 248
3 262 116 117
3 266 264 265
3 266 267 264
3 266 268 267
3 266 269 268
3 266 255 269
3 266 254 255
3 266 249 254
3 266 265 249
3 270 268 269
3 270 271 268
3 270 159 271
3 270 174 159
3 270 173 174
3 270 260 173
3 270 255 260
3 270 269 255
3 272 89 102
3 272 273 89
3 272 274 273
3 272 275 274
3 272 264 275
3 272 263 264
3 272 103 263
3 272 102 103
3 276 274 275
3 276 277 274
3 276 278 277
3 276 279 278
3 276 268 279
3 276 267 268
3 276 264 267
3 276 275 264
3 280 278 279
3 280 281 278
3 280 143 281
3 280 160 143
3 280 159 160
3 280 271 159
3 280 268 271
3 280 279 268
3 282 87 88
3 282 283 87
3 282 284 283
3 282 285 284
3 282 274 285
3 282 273 274
3 282 89 273
3 282 88 89
3 286 284 285
3 286 287 284
3 286 288 287
3 286 289 288
3 286 278 289
3 286 277 278
3 286 274 277
3 286 285 274
3 290 288 289
3 290 291 288
3 290 145 291
3 290 144 145
3 290 143 144
3 290 281 143
3 290 278 281
3 290 289 278
3 292 19 32
3 292 293 19
3 292 294 293
3 292 295 294
3 292 296 295
3 292 297 296
3 292 33 297
3 292 32 33
3 298 294 295
3 298 299 294
3 298 300 299
3 298 301 300
3 298 302 301
3 298 303 302
3 298 296 303
3 298 295 296
3 304 300 301
3 304 305 300
3 304 52 305
3 304 69 52
3 304 68 69
3 304 306 68
3 304 302 306
3 304 301 302
3 307 17 18
3 307 252 17
3 307 251 252
3 307 308 251
3 307 294 308
3 307 293 294
3 307 19 293
3 307 18 19
3 309 251 308
3 309 258 251
3 309 257 258
3 309 310 257
3 309 300 310
3 309 299 300
3 309 294 299
3 309 308 294
3 311 257 310
3 311 261 257
3 311 54 261
3 311 53 54
3 311 52 53
3 311 305 52
3 311 300 305
3 311 310 300
3 312 57 59
3 312 230 57
3 312 228 230
3 312 313 228
3 312 314 313
3 312 315 314
3 312 60 315
3 312 59 60
3 316 228 313
3 316 238 228
3 316 237 238
3 316 317 237
3 316 318 317
3 316 319 318
3 316 314 319
3 316 313 314
3 320 237 317
3 320 241 237
3 320 26 241
3 320 25 26
3 320 24 25
3 320 321 24
3 320 318 321
3 320 317 318
3 322 29 30
3 322 323 29
3 322 324 323
3 322 325 324
3 322 318 325
3 322 321 318
3 322 24 321
3 322 30 24
3 326 324 325
3 326 327 324
3 326 328 327
3 326 329 328
3 326 314 329
3 326 319 314
3 326 318 319
3 326 325 318
3 330 328 329
3 330 331 328
3 330 64 331
3 330 63 64
3 330 60 63
3 330 315 60
3 330 314 315
3 330 329 314
3 332 33 34
3 332 297 33
3 332 296 297
3 332 333 296
3 332 324 333
3 332 323 324
3 332 29 323
3 332 34 29
3 334 296 333
3 334 303 296
3 334 302 303
3 334 335 302
3 334 328 335
3 334 327 328
3 334 324 327
3 334 333 324
3 336 302 335
3 336 306 302
3 336 68 306
3 336 67 68
3 336 64 67
3 336 331 64
3 336 328 331
3 336 335 328
3 337 338 339
3 337 340 338
3 337 341 340
3 337 342 341
3 337 343 342
3 337 344 343
3 337 345 344
3 337 339 345
3 346 345 347
3 346 344 345
3 346 343 344
3 346 348 343
3 346 349 348
3 346 350 349
3 346 351 350
3 346 347 351
3 352 351 353
3 352 350 351
3 352 349 350
3 352 354 349
3 352 355 354
3 352 356 355
3 352 357 356
3 352 353 357
3 358 341 342
3 358 359 341
3 358 360 359
3 358 361 360
3 358 362 361
3 358 363 362
3 358 343 363
3 358 342 343
3 364 343 348
3 364 363 343
3 364 362 363
3 364 365 362
3 364 366 365
3 364 367 366
3 364 349 367
3 364 348 349
3 368 349 354
3 368 367 349
3 368 366 367
3 368 369 366
3 368 370 369
3 368 371 370
3 368 355 371
3 368 354 355
3 372 373 374
3 372 375 373
3 372 376 375
3 372 377 376
3 372 378 377
3 372 379 378
3 372 380 379
3 372 374 380
3 381 380 382
3 381 379 380
3 381 378 379
3 381 383 378
3 381 384 383
3 381 385 384
3 381 386 385
3 381 382 386
3 387 386 388
3 387 385 386
3 387 384 385
3 387 389 384
3 387 390 389
3 387 391 390
3 387 392 391
3 387 388 392
3 393 394 395
3 393 396 394
3 393 373 396
3 393 374 373
3 393 380 374
3 393 397 380
3 393 398 397
3 393 395 398
3 399 398 400
3 399 397 398
3 399 380 397
3 399 382 380
3 399 386 382
3 399 401 386
3 399 402 401
3 399 400 402
3 403 402 404
3 403 401 402
3 403 386 401
3 403 388 386
3 403 392 388
3 403 405 392
3 403 406 405
3 403 404 406
3 407 71 73
3 407 408 71
3 407 409 408
3 407 410 409
3 407 411 410
3 407 412 411
3 407 74 412
3 407 73 74
3 413 74 80
3 413 412 74
3 413 411 412
3 413 414 411
3 413 415 414
3 413 416 415
3 413 81 416
3 413 80 81
3 417 81 86
3 417 416 81
3 417 415 416
3 417 418 415
3 417 419 418
3 417 420 419
3 417 87 420
3 417 86 87
3 421 409 410
3 421 422 409
3 421 423 422
3 421 424 423
3 421 425 424
3 421 426 425
3 421 411 426
3 421 410 411
3 427 411 414
3 427 426 411
3 427 425 426
3 427 428 425
3 427 429 428
3 427 430 429
3 427 415 430
3 427 414 415
3 431 415 418
3 431 430 415
3 431 429 430
3 431 432 429
3 431 433 432
3 431 434 433
3 431 419 434
3 431 418 419
3 435 423 424
3 435 436 423
3 435 437 436
3 435 438 437
3 435 439 438
3 435 440 439
3 435 425 440
3 435 424 425
3 441 425 428
3 441 440 425
3 441 439 440
3 441 442 439
3 441 443 442
3 441 444 443
3 441 429 444
3 441 428 429
3 445 429 432
3 445 444 429
3 445 443 444
3 445 446 443
3 445 447 446
3 445 448 447
3 445 433 448
3 445 432 433
3 449 437 438
3 449 450 437
3 449 338 450
3 449 339 338
3 449 345 339
3 449 451 345
3 449 439 451
3 449 438 439
3 452 439 442
3 452 451 439
3 452 345 451
3 452 347 345
3 452 351 347
3 452 453 351
3 452 443 453
3 452 442 443
3 454 443 446
3 454 453 443
3 454 351 453
3 454 353 351
3 454 357 353
3 454 455 357
3 454 447 455
3 454 446 447
3 456 457 458
3 456 459 457
3 456 134 459
3 456 133 134
3 456 132 133
3 456 460 132
3 456 461 460
3 456 458 461
3 462 461 463
3 462 460 461
3 462 132 460
3 462 140 132
3 462 139 140
3 462 464 139
3 462 465 464
3 462 463 465
3 466 465 467
3 466 464 465
3 466 139 464
3 466 146 139
3 466 145 146
3 466 468 145
3 466 469 468
3 466 467 469
3 470 471 472
3 470 473 471
3 470 457 473
3 470 458 457
3 470 461 458
3 470 474 461
3 470 475 474
3 470 472 475
3 476 475 477
3 476 474 475
3 476 461 474
3 476 463 461
3 476 465 463
3 476 478 465
3 476 479 478
3 476 477 479
3 480 479 481
3 480 478 479
3 480 465 478
3 480 467 465
3 480 469 467
3 480 482 469
3 480 483 482
3 480 481 483
3 484 485 486
3 484 487 485
3 484 471 487
3 484 472 471
3 484 475 472
3 484 488 475
3 484 489 488
3 484 486 489
3 490 489 491
3 490 488 489
3 490 475 488
3 490 477 475
3 490 479 477
3 490 492 479
3 490 493 492
3 490 491 493
3 494 493 495
3 494 492 493
3 494 479 492
3 494 481 479
3 494 483 481
3 494 496 483
3 494 497 496
3 494 495 497
3 498 376 377
3 498 499 376
3 498 485 499
3 498 486 485
3 498 489 486
3 498 500 489
3 498 378 500
3 498 377 378
3 501 378 383
3 501 500 378
3 501 489 500
3 501 491 489
3 501 493 491
3 501 502 493
3 501 384 502
3 501 383 384
3 503 384 389
3 503 502 384
3 503 493 502
3 503 495 493
3 503 497 495
3 503 504 497
3 503 390 504
3 503 389 390
3 505 485 506
3 505 499 485
3 505 376 499
3 505 507 376
3 505 508 507
3 505 509 508
3 505 510 509
3 505 506 510
3 511 510 512
3 511 509 510
3 511 508 509
3 511 513 508
3 511 514 513
3 511 515 514
3 511 516 515
3 511 512 516
3 517 516 518
3 517 515 516
3 517 514 515
3 517 519 514
3 517 338 519
3 517 450 338
3 517 437 450
3 517 518 437
3 520 471 521
3 520 487 471
3 520 485 487
3 520 506 485
3 520 510 506
3 520 522 510
3 520 523 522
3 520 521 523
3 524 523 525
3 524 522 523
3 524 510 522
3 524 512 510
3 524 516 512
3 524 526 516
3 524 527 526
3 524 525 527
3 528 527 529
3 528 526 527
3 528 516 526
3 528 518 516
3 528 437 518
3 528 436 437
3 528 423 436
3 528 529 423
3 530 457 531
3 530 473 457
3 530 471 473
3 530 521 471
3 530 523 521
3 530 532 523
3 530 533 532
3 530 531 533
3 534 533 535
3 534 532 533
3 534 523 532
3 534 525 523
3 534 527 525
3 534 536 527
3 534 537 536
3 534 535 537
3 538 537 539
3 538 536 537
3 538 527 536
3 538 529 527
3 538 423 529
3 538 422 423
3 538 409 422
3 538 539 409
3 540 134 218
3 540 459 134
3 540 457 459
3 540 531 457
3 540 533 531
3 540 541 533
3 540 219 541
3 540 218 219
3 542 219 222
3 542 541 219
3 542 533 541
3 542 535 533
3 542 537 535
3 542 543 537
3 542 223 543
3 542 222 223
3 544 223 226
3 544 543 223
3 544 537 543
3 544 539 537
3 544 409 539
3 544 408 409
3 544 71 408
3 544 226 71
3 545 546 547
3 545 548 546
3 545 549 548
3 545 550 549
3 545 373 550
3 545 396 373
3 545 394 396
3 545 547 394
3 551 549 552
3 551 548 549
3 551 546 548
3 551 553 546
3 551 554 553
3 551 555 554
3 551 556 555
3 551 552 556
3 557 556 558
3 557 555 556
3 557 554 555
3 557 559 554
3 557 360 559
3 557 359 360
3 557 341 359
3 557 558 341
3 560 376 507
3 560 375 376
3 560 373 375
3 560 550 373
3 560 549 550
3 560 561 549
3 560 508 561
3 560 507 508
3 562 508 513
3 562 561 508
3 562 549 561
3 562 552 549
3 562 556 552
3 562 563 556
3 562 514 563
3 562 513 514
3 564 514 519
3 564 563 514
3 564 556 563
3 564 558 556
3 564 341 558
3 564 340 341
3 564 338 340
3 564 519 338
3 565 447 566
3 565 455 447
3 565 357 455
3 565 567 357
3 565 568 567
3 565 569 568
3 565 570 569
3 565 566 570
3 571 570 572
3 571 569 570
3 571 568 569
3 571 573 568
3 571 574 573
3 571 575 574
3 571 576 575
3 571 572 576
3 577 576 578
3 577 575 576
3 577 574 575
3 577 579 574
3 577 390 579
3 577 504 390
3 577 497 504
3 577 578 497
3 580 433 581
3 580 448 433
3 580 447 448
3 580 566 447
3 580 570 566
3 580 582 570
3 580 583 582
3 580 581 583
3 584 583 585
3 584 582 583
3 584 570 582
3 584 572 570
3 584 576 572
3 584 586 576
3 584 587 586
3 584 585 587
3 588 587 589
3 588 586 587
3 588 576 586
3 588 578 576
3 588 497 578
3 588 496 497
3 588 483 496
3 588 589 483
3 590 419 591
3 590 434 419
3 590 433 434
3 590 581 433
3 590 583 581
3 590 592 583
3 590 593 592
3 590 591 593
3 594 593 595
3 594 592 593
3 594 583 592
3 594 585 583
3 594 587 585
3 594 596 587
3 594 597 596
3 594 595 597
3 598 597 599
3 598 596 597
3 598 587 596
3 598 589 587
3 598 483 589
3 598 482 483
3 598 469 482
3 598 599 469
3 600 87 283
3 600 420 87
3 600 419 420
3 600 591 419
3 600 593 591
3 600 601 593
3 600 284 601
3 600 283 284
3 602 284 287
3 602 601 284
3 602 593 601
3 602 595 593
3 602 597 595
3 602 603 597
3 602 288 603
3 602 287 288
3 604 288 291
3 604 603 288
3 604 597 603
3 604 599 597
3 604 469 599
3 604 468 469
3 604 145 468
3 604 291 145
3 605 355 606
3 605 371 355
3 605 370 371
3 605 607 370
3 605 608 607
3 605 609 608
3 605 610 609
3 605 606 610
3 611 610 612
3 611 609 610
3 611 608 609
3 611 613 608
3 611 614 613
3 611 615 614
3 611 616 615
3 611 612 616
3 617 616 618
3 617 615 616
3 617 614 615
3 617 619 614
3 617 406 619
3 617 405 406
3 617 392 405
3 617 618 392
3 620 357 567
3 620 356 357
3 620 355 356
3 620 606 355
3 620 610 606
3 620 621 610
3 620 568 621
3 620 567 568
3 622 568 573
3 622 621 568
3 622 610 621
3 622 612 610
3 622 616 612
3 622 623 616
3 622 574 623
3 622 573 574
3 624 574 579
3 624 623 574
3 624 616 623
3 624 618 616
3 624 392 618
3 624 391 392
3 624 390 391
3 624 579 390
3 625 394 547
3 625 395 394
3 625 398 395
3 625 626 398
3 625 627 626
3 625 628 627
3 625 546 628
3 625 547 546
3 629 546 553
3 629 628 546
3 629 627 628
3 629 630 627
3 629 631 630
3 629 632 631
3 629 554 632
3 629 553 554
3 633 554 559
3 633 632 554
3 633 631 632
3 633 634 631
3 633 362 634
3 633 361 362
3 633 360 361
3 633 559 360
3 635 366 636
3 635 365 366
3 635 362 365
3 635 634 362
3 635 631 634
3 635 637 631
3 635 638 637
3 635 636 638
3 639 638 640
3 639 637 638
3 639 631 637
3 639 630 631
3 639 627 630
3 639 641 627
3 639 642 641
3 639 640 642
3 643 642 644
3 643 641 642
3 643 627 641
3 643 626 627
3 643 398 626
3 643 400 398
3 643 402 400
3 643 644 402
3 645 370 607
3 645 369 370
3 645 366 369
3 645 636 366
3 645 638 636
3 645 646 638
3 645 608 646
3 645 607 608
3 647 608 613
3 647 646 608
3 647 638 646
3 647 640 638
3 647 642 640
3 647 648 642
3 647 614 648
3 647 613 614
3 649 614 619
3 649 648 614
3 649 642 648
3 649 644 642
3 649 402 644
3 649 404 402
3 649 406 404
3 649 619 406
