ply
format ascii 1.0
element vertex 448
property float x
property float y
property float z
property float nx
property float ny
property float nz
property float u
property float v
element face 768
property list uchar int vertex_indices
end_header
2.201351 1.351422 1.495972 -0.738363288 -0.132511358 0.661256679 0.600241 0.937161
2.203837 1.352881 1.499357 -0.737089438 -0.333995214 0.587491581 0.556824 0.952309
2.201148 1.35347 1.496433 -0.714698878 -0.338799468 0.611899039 0.601249 0.945302
2.203905 1.350863 1.498749 -0.747127024 -0.130604724 0.651723573 0.556535 0.943989
2.203351 1.34553 1.497818 -0.740518421 -0.0370009204 0.671016692 0.550059 0.887561
2.201154 1.346011 1.49543 -0.738074334 -0.037498696 0.673676573 0.588361 0.881697
2.198936 1.346173 1.493018 -0.735583225 -0.0376991403 0.676384575 0.625915 0.872234
2.198773 1.35161 1.493168 -0.729551618 -0.133109418 0.670847464 0.643043 0.926203
2.198433 1.353668 1.493481 -0.692118127 -0.340508918 0.636416668 0.644726 0.934081
2.206409 1.349936 1.501473 -0.755703397 -0.127400573 0.642402888 0.51247 0.946562
2.209033 1.350553 1.505008 -0.780307218 -0.31460291 0.540505 0.466795 0.953317
2.206474 1.351905 1.502225 -0.759005947 -0.325802553 0.563704417 0.511916 0.955004
2.20884 1.348651 1.504116 -0.763992146 -0.122998736 0.633393489 0.468201 0.944808
2.207595 1.343628 1.502434 -0.745310147 -0.0348004738 0.665809065 0.472935 0.888135
2.205504 1.344733 1.500161 -0.743008507 -0.0361004134 0.668307652 0.511572 0.889736
2.211174 1.34702 1.506654 -0.771993496 -0.117399011 0.624694737 0.423882 0.938657
2.213822 1.346771 1.510216 -0.820207357 -0.283102539 0.497104459 0.377234 0.936662
2.21149 1.348835 1.50768 -0.800725836 -0.30030969 0.518316724 0.421728 0.947183
2.213388 1.34506 1.509062 -0.779607948 -0.110701129 0.616406284 0.380087 0.92819
2.211507 1.340539 1.506688 -0.749718451 -0.0313007703 0.661016268 0.395852 0.873436
2.209602 1.342225 1.504617 -0.747609386 -0.0332004168 0.663308328 0.434178 0.882672
2.215461 1.342788 1.511316 -0.786699611 -0.102899949 0.608699699 0.337389 0.913493
2.218019 1.341682 1.51478 -0.855101223 -0.240700344 0.459200657 0.291987 0.902768
2.216005 1.344378 1.51259 -0.83832855 -0.263208964 0.477416259 0.333832 0.921812
2.217374 1.340227 1.513397 -0.793222365 -0.0941026533 0.601616963 0.296258 0.894703
2.214935 1.336382 1.510417 -0.753597453 -0.0265999101 0.65679778 0.322552 0.844046
2.21329 1.338585 1.508627 -0.751731145 -0.0291012057 0.658827296 0.358505 0.86052
2.219108 1.3374 1.515282 -0.799204791 -0.084400506 0.595103568 0.257159 0.871955
2.221464 1.335481 1.518526 -0.883741391 -0.189208862 0.428020047 0.214752 0.852712
2.219845 1.338706 1.516765 -0.870249027 -0.216012169 0.442724942 0.252165 0.879664
2.220646 1.334337 1.516954 -0.804435022 -0.0739032174 0.589425661 0.220442 0.84545
2.217749 1.331317 1.513476 -0.756804492 -0.0210001246 0.653303877 0.256362 0.800962
2.216426 1.333951 1.512038 -0.75532141 -0.0239006775 0.654918564 0.288411 0.824137
2.221973 1.331066 1.518397 -0.809026031 -0.0627020175 0.584418804 0.186454 0.815388
2.224024 1.328406 1.52131 -0.905023938 -0.130303447 0.40491071 0.148688 0.788232
2.222861 1.332036 1.520046 -0.895373779 -0.1604953 0.415387836 0.180136 0.822124
2.223077 1.327618 1.519598 -0.812807015 -0.0509004393 0.580305008 0.155566 0.782101
2.21984 1.325538 1.51575 -0.759156688 -0.0144010754 0.650748593 0.199708 0.745609
2.21889 1.328503 1.514718 -0.758097703 -0.0177999461 0.651898025 0.226686 0.774687
2.223946 1.324027 1.520543 -0.815820967 -0.0386009921 0.577014829 0.128145 0.745922
2.2256 1.320729 1.523024 -0.918152827 -0.0664038207 0.390622475 0.09669 0.711922
2.224939 1.324625 1.522305 -0.9126661 -0.0987963303 0.396585269 0.120777 0.751366
2.224574 1.320328 1.521226 -0.817934149 -0.0260010856 0.574723995 0.104467 0.707234
2.221128 1.319267 1.51715 -0.760590002 -0.00729990404 0.649191466 0.155068 0.680266
2.220588 1.322449 1.516563 -0.760015637 -0.0109002243 0.64981337 0.175756 0.714025
2.224952 1.316555 1.521637 -0.819181487 -0.0129997062 0.573387042 0.084811 0.666422
2.226132 1.312746 1.523603 -0.922585054 0 0.38579375 0.061034 0.626943
2.225998 1.316757 1.523457 -0.921463344 -0.0334022962 0.387026605 0.076713 0.670297
2.225079 1.312746 1.521775 -0.819616979 0 0.572911868 0.069358 0.623927
2.221562 1.312746 1.517623 -0.761117061 0 0.648614539 0.124356 0.607603
2.221453 1.316022 1.517504 -0.760928939 -0.00370014072 0.648824675 0.137882 0.644665
2.224952 1.308937 1.521637 -0.819228456 0.0130004516 0.573319915 0.058292 0.580186
2.2256 1.304762 1.523024 -0.918152827 0.0664038207 0.390622475 0.043221 0.536892
2.225998 1.308735 1.523457 -0.921478433 0.0333992183 0.386990943 0.049843 0.582314
2.224574 1.305164 1.521226 -0.817934149 0.0260010856 0.574723995 0.051692 0.535667
2.221128 1.306225 1.51715 -0.760590002 0.00729990404 0.649191466 0.108828 0.530637
2.221453 1.30947 1.517504 -0.760928939 0.00370014072 0.648824675 0.114648 0.569459
2.223946 1.301464 1.520543 -0.815773892 0.0385987647 0.577081531 0.049639 0.490839
2.224024 1.297086 1.52131 -0.905060582 0.130308723 0.404827098 0.043894 0.445598
2.224939 1.300867 1.522305 -0.9126661 0.0987963303 0.396585269 0.041248 0.491158
2.223077 1.297873 1.519598 -0.812807015 0.0509004393 0.580305008 0.052105 0.44617
2.21984 1.299954 1.51575 -0.759156688 0.0144010754 0.650748593 0.109039 0.452578
2.220588 1.303043 1.516563 -0.760014805 0.0110002143 0.649812658 0.106966 0.491541
2.221972 1.294426 1.518397 -0.809026031 0.0627020175 0.584418804 0.059065 0.402131
2.221464 1.290011 1.518526 -0.883741391 0.189208862 0.428020047 0.062817 0.356901
2.222861 1.293456 1.520046 -0.895373779 0.1604953 0.415387836 0.051129 0.400694
2.220646 1.291154 1.516954 -0.80451177 0.0740010826 0.589308622 0.070391 0.359164
2.217749 1.294175 1.513476 -0.756806077 0.0209001678 0.653305246 0.124825 0.376653
2.21889 1.296989 1.514717 -0.758056515 0.0177013197 0.651948605 0.115028 0.414154
2.219107 1.288091 1.515282 -0.799198042 0.084499793 0.595098542 0.085956 0.317712
2.218019 1.28381 1.51478 -0.855080637 0.240794547 0.459189602 0.098913 0.274414
2.219844 1.286786 1.516765 -0.870273292 0.215993371 0.442686414 0.07882 0.314675
2.217374 1.285265 1.513397 -0.793222365 0.0941026533 0.601616963 0.105545 0.27817
2.214935 1.28911 1.510416 -0.753597453 0.0265999101 0.65679778 0.155343 0.30592
2.216426 1.291541 1.512038 -0.75532141 0.0239006775 0.654918564 0.138323 0.340461
2.215461 1.282704 1.511316 -0.786699611 0.102899949 0.608699699 0.128945 0.240928
2.213822 1.278721 1.510216 -0.820207357 0.283102539 0.497104459 0.150381 0.201315
2.216005 1.281114 1.51259 -0.83832855 0.263208964 0.477416259 0.122866 0.23652
2.213388 1.280432 1.509062 -0.779616575 0.110602351 0.616413105 0.155875 0.206309
2.211506 1.284953 1.506688 -0.749718451 0.0313007703 0.661016268 0.199168 0.243103
2.21329 1.286907 1.508627 -0.751731145 0.0291012057 0.658827296 0.175704 0.273373
2.211173 1.278472 1.506653 -0.771993496 0.117399011 0.624694737 0.186054 0.174635
2.209033 1.274939 1.505008 -0.780307218 0.31460291 0.540505 0.214853 0.140186
2.21149 1.276657 1.50768 -0.800725836 0.30030969 0.518316724 0.18116 0.169124
2.20884 1.276841 1.504116 -0.763992146 0.122998736 0.633393489 0.219155 0.146141
2.207595 1.281864 1.502434 -0.74530755 0.0349003535 0.665806745 0.254431 0.190447
2.209602 1.283267 1.504617 -0.747609386 0.0332004168 0.663308328 0.225502 0.215393
2.206409 1.275556 1.501472 -0.755703397 0.127400573 0.642402888 0.25485 0.121062
2.203837 1.272611 1.499357 -0.737089438 0.333995214 0.587491581 0.289519 0.092887
2.206474 1.273587 1.502225 -0.759005947 0.325802553 0.563704417 0.251107 0.114739
2.203905 1.274629 1.498749 -0.747127024 0.130604724 0.651723573 0.292709 0.099489
2.20335 1.279962 1.497818 -0.740518421 0.0370009204 0.671016692 0.318864 0.149525
2.205504 1.280759 1.50016 -0.743008507 0.0361004134 0.668307652 0.285686 0.168467
2.201351 1.27407 1.495972 -0.738408769 0.132501573 0.661207852 0.332302 0.081512
2.198433 1.271824 1.493481 -0.692118127 0.340508918 0.636416668 0.371261 0.060439
2.201148 1.272022 1.496433 -0.714698878 0.338799468 0.611899039 0.329682 0.074731
2.198773 1.273882 1.493168 -0.729502674 0.133100488 0.670902459 0.373286 0.067337
2.198936 1.279319 1.493018 -0.735583225 0.0376991403 0.676384575 0.389485 0.121191
2.201154 1.279481 1.49543 -0.738074334 0.037498696 0.673676573 0.353566 0.133695
2.196194 1.27407 1.490364 -0.72073283 0.132506036 0.680430994 0.415319 0.057171
2.193029 1.272611 1.487604 -0.647144101 0.333922756 0.685346705 0.457301 0.04399
2.195718 1.272022 1.490528 -0.669498507 0.338899244 0.660998526 0.41392 0.050178
2.193641 1.274629 1.487587 -0.711914961 0.130602745 0.690014501 0.458069 0.051042
2.194522 1.279962 1.488218 -0.730601242 0.0370000629 0.681801159 0.46379 0.106823
2.196718 1.279481 1.490606 -0.733093157 0.0374996499 0.679093661 0.426317 0.112226
2.191137 1.275556 1.484864 -0.703391978 0.127398547 0.699292025 0.501204 0.048978
2.187833 1.274939 1.481954 -0.603920636 0.31461075 0.732325024 0.544713 0.043981
2.190392 1.273587 1.484737 -0.625204589 0.325802391 0.709205206 0.501048 0.041918
2.188706 1.276841 1.482221 -0.695054602 0.123009663 0.708355647 0.544187 0.050988
2.190278 1.281864 1.483602 -0.725812455 0.0348005972 0.687011789 0.539297 0.106772
2.192368 1.280759 1.485876 -0.728159646 0.0361029573 0.684456066 0.501634 0.105
2.186372 1.278472 1.479683 -0.687054705 0.117409349 0.717057094 0.586482 0.057078
2.183044 1.278721 1.476746 -0.564013508 0.28310678 0.775718579 0.630283 0.060573
2.185376 1.276657 1.479282 -0.583412599 0.300306485 0.754616296 0.587848 0.050195
2.184158 1.280432 1.477275 -0.679488167 0.110698072 0.725287369 0.628076 0.067321
2.186366 1.284953 1.479348 -0.72140545 0.0313002365 0.691805227 0.612521 0.12119
2.188271 1.283267 1.481419 -0.72351035 0.0333004764 0.689509864 0.576226 0.112151
2.182085 1.282704 1.47502 -0.672400279 0.102900043 0.733000304 0.668958 0.081786
2.178847 1.28381 1.472181 -0.529089646 0.240795288 0.813684076 0.712053 0.093688
2.180861 1.281114 1.474372 -0.545915774 0.263207605 0.795422984 0.671846 0.075127
2.180171 1.285265 1.47294 -0.665835803 0.0941050602 0.740139798 0.708549 0.100234
2.182937 1.28911 1.47562 -0.71752327 0.0267008659 0.696022572 0.682928 0.150178
2.184582 1.286907 1.477409 -0.719393105 0.0290997211 0.693993348 0.648278 0.133944
2.178438 1.288091 1.471055 -0.659899033 0.0843998764 0.746598906 0.746272 0.122424
2.175402 1.290011 1.468435 -0.500429066 0.18921099 0.84484907 0.786604 0.142158
2.177022 1.286786 1.470196 -0.513904818 0.216002025 0.830207783 0.750423 0.116091
2.1769 1.291155 1.469382 -0.654626952 0.0739030427 0.752330974 0.781817 0.148198
2.180123 1.294175 1.47256 -0.714313733 0.0209004018 0.699513448 0.746955 0.192259
2.181446 1.291541 1.473998 -0.715848074 0.0239016052 0.697846865 0.715901 0.169657
2.175573 1.294426 1.467939 -0.650079006 0.0626979752 0.757275544 0.814875 0.177398
2.172842 1.297086 1.465652 -0.479114637 0.130303981 0.868026519 0.850993 0.20446
2.174005 1.293456 1.466916 -0.488843888 0.160514411 0.857476983 0.820247 0.171712
2.174469 1.297873 1.466739 -0.646288803 0.0509991164 0.761386809 0.845084 0.20972
2.178032 1.299954 1.470286 -0.712015892 0.0144003214 0.702015669 0.802252 0.246178
2.178982 1.296989 1.471319 -0.71301902 0.0178004748 0.700918697 0.775847 0.217859
2.1736 1.301465 1.465793 -0.64331994 0.0386011965 0.7646237 0.872083 0.244856
2.171266 1.304762 1.463938 -0.465995748 0.0663993941 0.882291949 0.902425 0.278309
2.171927 1.300867 1.464656 -0.471505804 0.0988012164 0.876310787 0.87848 0.24011
2.172972 1.305164 1.465111 -0.641168824 0.0258987407 0.766962707 0.895595 0.282467
2.176745 1.306225 1.468886 -0.710529665 0.00730030479 0.703629377 0.846392 0.309843
2.177285 1.303043 1.469473 -0.711103193 0.0109000489 0.703003156 0.825846 0.276938
2.172594 1.308937 1.464699 -0.639874543 0.0129994828 0.768369431 0.915346 0.322211
2.170734 1.312746 1.463359 -0.46159516 0 0.887090699 0.938628 0.360888
2.170867 1.308735 1.463504 -0.462695607 0.0332996838 0.885891588 0.92254 0.318704
2.172467 1.312746 1.464561 -0.63938735 0 0.768884788 0.931144 0.363691
2.17631 1.312746 1.468413 -0.710000838 0 0.704200831 0.877461 0.380864
2.176419 1.30947 1.468532 -0.710145557 0.00370023738 0.704045166 0.863653 0.344599
2.172594 1.316555 1.464699 -0.63992371 -0.0130004817 0.768328467 0.942795 0.406512
2.171266 1.320729 1.463938 -0.466036865 -0.0664052529 0.88226979 0.958025 0.448954
2.170867 1.316757 1.463504 -0.462695607 -0.0332996838 0.885891588 0.950491 0.404452
2.172972 1.320328 1.465111 -0.641217999 -0.025900727 0.766921528 0.9502 0.450243
2.176745 1.319267 1.468886 -0.710529665 -0.00730030479 0.703629377 0.894136 0.456516
2.176419 1.316022 1.468532 -0.710145557 -0.00370023738 0.704045166 0.887651 0.418294
2.173599 1.324027 1.465793 -0.64331994 -0.0386011965 0.7646237 0.953261 0.494455
2.172842 1.328406 1.465652 -0.479114637 -0.130303981 0.868026519 0.9598 0.539
2.171927 1.324625 1.464656 -0.471547126 -0.0988098751 0.876287576 0.961129 0.493954
2.174469 1.327618 1.466739 -0.646292096 -0.0508993775 0.761390688 0.951974 0.53871
2.178032 1.325538 1.470286 -0.712015892 -0.0144003214 0.702015669 0.895727 0.533842
2.177285 1.322449 1.469473 -0.711103193 -0.0109000489 0.703003156 0.896829 0.495159
2.175573 1.331066 1.467939 -0.650079006 -0.0626979752 0.757275544 0.946335 0.582568
2.175402 1.335481 1.468435 -0.500504022 -0.18920152 0.844806788 0.943925 0.62745
2.174005 1.332036 1.466916 -0.488843888 -0.160514411 0.857476983 0.954035 0.583645
2.1769 1.334337 1.469382 -0.654626952 -0.0739030427 0.752330974 0.936434 0.625601
2.180123 1.331317 1.47256 -0.714312236 -0.0210003597 0.699511983 0.882205 0.609806
2.178982 1.328503 1.471318 -0.71301902 -0.0178004748 0.700918697 0.890827 0.572181
2.178438 1.337401 1.471055 -0.659899033 -0.0843998764 0.746598906 0.922362 0.667382
2.178847 1.341682 1.472181 -0.529102384 -0.240701084 0.813703666 0.911118 0.710825
2.177022 1.338706 1.470196 -0.513978403 -0.215990924 0.830165117 0.929561 0.669979
2.180171 1.340227 1.47294 -0.665835803 -0.0941050602 0.740139798 0.904294 0.70751
2.182937 1.336382 1.47562 -0.71752327 -0.0267008659 0.696022572 0.854192 0.681441
2.181446 1.333951 1.473998 -0.715798117 -0.0238999371 0.697898165 0.869942 0.646343
2.182085 1.342788 1.47502 -0.672400279 -0.102900043 0.733000304 0.882408 0.745585
2.183044 1.346771 1.476746 -0.564013508 -0.28310678 0.775718579 0.862762 0.785884
2.180861 1.344378 1.474372 -0.545915774 -0.263207605 0.795422984 0.888772 0.749582
2.184158 1.34506 1.477275 -0.679488167 -0.110698072 0.725287369 0.856974 0.781251
2.186366 1.340539 1.479348 -0.72140545 -0.0313002365 0.691805227 0.812966 0.745963
2.184582 1.338585 1.477409 -0.719393105 -0.0290997211 0.693993348 0.835112 0.714751
2.186372 1.34702 1.479683 -0.6871075 -0.117401281 0.717007826 0.828259 0.814155
2.187833 1.350553 1.481954 -0.603920636 -0.31461075 0.732325024 0.80071 0.849661
2.185376 1.348835 1.479281 -0.583412599 -0.300306485 0.754616296 0.833325 0.819366
2.188706 1.348651 1.482221 -0.695054602 -0.123009663 0.708355647 0.796384 0.84387
2.190278 1.343628 1.483602 -0.725812455 -0.0348005972 0.687011789 0.760266 0.800742
2.18827 1.342225 1.481419 -0.723512756 -0.0332005853 0.689512156 0.788019 0.774769
2.191137 1.349936 1.484864 -0.703391978 -0.127398547 0.699292025 0.761468 0.869973
2.193029 1.352881 1.487604 -0.647122488 -0.334011607 0.685323815 0.727064 0.899468
2.190392 1.351905 1.484737 -0.625204589 -0.325802391 0.709205206 0.765163 0.8764
2.193641 1.350863 1.487587 -0.711914961 -0.130602745 0.690014501 0.723983 0.892439
2.194522 1.34553 1.488218 -0.730601242 -0.0370000629 0.681801159 0.696832 0.842944
2.192368 1.344733 1.485876 -0.728159646 -0.0361029573 0.684456066 0.729703 0.823452
2.196194 1.351422 1.490364 -0.72073283 -0.132506036 0.680430994 0.684399 0.911238
2.195718 1.35347 1.490528 -0.669521194 -0.338810725 0.661020925 0.686791 0.918749
2.196718 1.346011 1.490606 -0.733093157 -0.0374996499 0.679093661 0.662154 0.85926
2.193295 1.361014 1.491747 -0.731242424 -0.0557032317 0.679839442 0.693093 0.937358
2.196533 1.364172 1.495228 -0.736008107 0.00940010354 0.676907456 0.651458 0.960858
2.193121 1.363923 1.491518 -0.736677966 0.00929972185 0.676179776 0.695812 0.944408
2.196513 1.361248 1.495246 -0.734933639 -0.0559025587 0.675830933 0.649385 0.953514
2.196772 1.35846 1.495008 -0.710185775 -0.262894734 0.653086919 0.647527 0.946586
2.193739 1.358239 1.49171 -0.692751317 -0.26161938 0.672049784 0.690636 0.930712
2.190735 1.357581 1.488444 -0.675494157 -0.257897769 0.690794025 0.731952 0.910789
2.190108 1.360316 1.488281 -0.727557578 -0.0548043371 0.683854119 0.735 0.917102
2.189742 1.363183 1.487843 -0.737301408 0.00920001757 0.67550129 0.738353 0.923803
2.194723 1.355733 1.49114 -0.637522473 -0.424214954 0.64312267 0.688703 0.924875
2.197589 1.355942 1.494257 -0.665822432 -0.426314363 0.612320629 0.646098 0.940492
2.191885 1.355112 1.488054 -0.609530444 -0.418120884 0.67353364 0.729513 0.905248
2.186983 1.359159 1.484883 -0.723913646 -0.0535010085 0.687812965 0.774732 0.892858
2.186429 1.361957 1.48424 -0.737924924 0.00900030399 0.674822793 0.778716 0.899161
2.18779 1.356491 1.485241 -0.658489695 -0.251596063 0.7092889 0.771091 0.886929
2.18493 1.35498 1.482131 -0.642126116 -0.242809875 0.727129573 0.807693 0.859319
2.183949 1.357556 1.481584 -0.72051619 -0.0516011595 0.691515539 0.811916 0.864814
2.183212 1.360257 1.480742 -0.738499317 0.00859999205 0.674199376 0.816515 0.870668
2.189101 1.354081 1.485027 -0.582035514 -0.40792489 0.703442922 0.768136 0.881747
2.1864 1.352654 1.482089 -0.555389967 -0.393892884 0.73238677 0.804218 0.854539
2.181037 1.35552 1.478417 -0.717112213 -0.0493008396 0.69521184 0.84618 0.833163
2.180124 1.358099 1.477384 -0.739073021 0.00819970068 0.673575412 0.851366 0.838511
2.182185 1.353061 1.479146 -0.626310829 -0.231804008 0.744312869 0.841394 0.828144
2.179581 1.350755 1.476314 -0.611304276 -0.218601529 0.76060532 0.871871 0.793733
2.178273 1.353074 1.475412 -0.713904333 -0.0464002817 0.698704241 0.877183 0.798226
2.177194 1.355505 1.474197 -0.73960074 0.0078000078 0.673000673 0.882914 0.803015
2.183806 1.350841 1.479269 -0.529808456 -0.376006001 0.760212133 0.837406 0.823787
2.181345 1.348662 1.476592 -0.505515151 -0.354510625 0.786623575 0.867396 0.789832
2.175686 1.350238 1.472598 -0.710932469 -0.0432019731 0.701932058 0.904585 0.760328
2.17445 1.352498 1.471214 -0.740078705 0.00729978995 0.67248065 0.910805 0.764504
2.177142 1.348083 1.473662 -0.597322947 -0.203207806 0.775829804 0.898799 0.75641
2.174892 1.34507 1.471215 -0.584327081 -0.185908616 0.78993661 0.921934 0.716555
2.173298 1.347042 1.470001 -0.70820301 -0.0395001679 0.704902996 0.928132 0.719854
2.171919 1.349109 1.468461 -0.740557079 0.0065996175 0.671961054 0.934778 0.723371
2.17904 1.346136 1.474086 -0.482814559 -0.32960994 0.811324466 0.893882 0.753009
2.176914 1.34329 1.471774 -0.461788195 -0.301492292 0.834178674 0.91663 0.713693
2.171135 1.343515 1.467649 -0.705660206 -0.0355030291 0.707660377 0.947572 0.677188
2.169625 1.34537 1.465967 -0.740989163 0.00599991225 0.67149018 0.954574 0.680008
2.172853 1.341746 1.468997 -0.572640155 -0.166811697 0.802656284 0.941029 0.674544
2.171044 1.338143 1.46703 -0.562197175 -0.146099266 0.81399591 0.955909 0.630796
2.169215 1.339692 1.465562 -0.703507225 -0.0311003194 0.710007292 0.962725 0.632755
2.16759 1.341316 1.463753 -0.74132671 0.00520018737 0.671124181 0.97001 0.634848
2.174987 1.340149 1.469679 -0.442778725 -0.270487003 0.854858925 0.935404 0.672254
2.173278 1.336744 1.467819 -0.425912077 -0.236806715 0.873224761 0.950029 0.629105
2.167559 1.335609 1.463761 -0.701541971 -0.0263015735 0.712142605 0.973413 0.58698
2.165834 1.336987 1.461844 -0.741708626 0.00440005117 0.6707078 0.980905 0.58832
2.169483 1.334295 1.465333 -0.553192286 -0.123898272 0.823788512 0.966397 0.585729
2.168184 1.33024 1.46392 -0.54582477 -0.100604566 0.83183775 0.972399 0.539795
2.166182 1.331307 1.462262 -0.699960056 -0.0214018362 0.713861248 0.979539 0.54032
2.164373 1.332426 1.460255 -0.741900438 0.00360000212 0.670500396 0.987158 0.540889
2.171803 1.333108 1.466216 -0.411322687 -0.201011087 0.889049037 0.96033 0.584658
2.170576 1.329276 1.464881 -0.399214554 -0.163105946 0.902232891 0.966214 0.539359
2.165097 1.326825 1.461082 -0.698715662 -0.0162003631 0.715216032 0.981005 0.493233
2.163223 1.327674 1.459004 -0.742141658 0.00270015156 0.670237621 0.988668 0.49302
2.167162 1.326016 1.462808 -0.539883644 -0.0762976886 0.838274605 0.97382 0.493444
2.166424 1.321664 1.462006 -0.535676808 -0.0512977791 0.842863509 0.970662 0.447145
2.164313 1.322208 1.460231 -0.697804853 -0.0109000758 0.716204981 0.97781 0.446199
2.162393 1.322779 1.458101 -0.742282727 0.00179995812 0.670084407 0.98543 0.445203
2.16961 1.325285 1.46383 -0.389693903 -0.123798063 0.912585723 0.967588 0.49365
2.168912 1.321173 1.463072 -0.382791944 -0.0831982491 0.920080637 0.964456 0.447992
2.163841 1.3175 1.459717 -0.697279159 -0.00549983561 0.716778576 0.969952 0.399694
2.161892 1.317786 1.457557 -0.74237826 0.000899973645 0.66998038 0.977441 0.397926
2.165978 1.317227 1.461522 -0.533126494 -0.0258012822 0.845642025 0.962924 0.401366
2.165829 1.312746 1.461359 -0.532208409 0 0.846613377 0.950712 0.356571
2.163683 1.312746 1.459545 -0.697086961 0 0.716986589 0.957537 0.354197
2.161724 1.312746 1.457374 -0.74237856 0 0.669980651 0.964808 0.351678
2.168491 1.31698 1.462614 -0.378607192 -0.0417007921 0.924617563 0.956819 0.402844
2.16835 1.312746 1.462461 -0.377296887 0 0.92609236 0.94478 0.358658
2.163841 1.307992 1.459717 -0.697279159 0.00549983561 0.716778576 0.940671 0.310182
2.161892 1.307705 1.457557 -0.74237826 -0.000899973645 0.66998038 0.947637 0.306947
2.165978 1.308265 1.461522 -0.533126494 0.0258012822 0.845642025 0.934132 0.313225
2.166424 1.303828 1.462006 -0.535676808 0.0512977791 0.842863509 0.913392 0.271759
2.164314 1.303284 1.460231 -0.697804853 0.0109000758 0.716204981 0.919571 0.268092
2.162393 1.302713 1.458101 -0.742282727 -0.00179995812 0.670084407 0.926152 0.264188
2.168491 1.308512 1.462614 -0.378607192 0.0417007921 0.924617563 0.928445 0.315888
2.168912 1.304319 1.463072 -0.382791944 0.0831982491 0.920080637 0.908017 0.274952
2.165097 1.298667 1.461082 -0.698715662 0.0162003631 0.715216032 0.894454 0.22837
2.163223 1.297818 1.459004 -0.742091915 -0.00269997058 0.670292697 0.900575 0.223857
2.167162 1.299476 1.462808 -0.539883644 0.0762976886 0.838274605 0.888705 0.232602
2.168184 1.295252 1.46392 -0.54582477 0.100604566 0.83183775 0.860375 0.196123
2.166182 1.294185 1.462262 -0.699910086 0.0214003084 0.713910288 0.865634 0.191393
2.164373 1.293066 1.460256 -0.741900438 -0.00360000212 0.670500396 0.871231 0.18634
2.16961 1.300207 1.46383 -0.389693903 0.123798063 0.912585723 0.883701 0.23627
2.170576 1.296216 1.464881 -0.399298614 0.163099434 0.902196869 0.855792 0.200203
2.16756 1.289883 1.463761 -0.701541971 0.0263015735 0.712142605 0.833426 0.157538
2.165834 1.288504 1.461844 -0.741613883 -0.00440008237 0.670812558 0.838447 0.152022
2.169483 1.291197 1.465333 -0.553237859 0.123908479 0.823756372 0.828705 0.162689
2.171044 1.287349 1.46703 -0.562197175 0.146099266 0.81399591 0.794071 0.132585
2.169215 1.2858 1.465562 -0.703507225 0.0311003194 0.710007292 0.798217 0.127087
2.16759 1.284175 1.463754 -0.74132671 -0.00520018737 0.671124181 0.802623 0.121187
2.171803 1.292384 1.466216 -0.411322687 0.201011087 0.889049037 0.824585 0.167111
2.173278 1.288748 1.46782 -0.425901989 0.236901106 0.873204078 0.790444 0.137281
2.171135 1.281977 1.467649 -0.705660206 0.0355030291 0.707660377 0.760394 0.100323
2.169626 1.280122 1.465967 -0.740989163 -0.00599991225 0.67149018 0.764158 0.09412
2.172853 1.283746 1.468997 -0.572594191 0.166798308 0.802691857 0.756847 0.106093
2.174892 1.280422 1.471215 -0.584392935 0.185897753 0.78989045 0.717422 0.08339
2.173298 1.27845 1.470001 -0.70820301 0.0395001679 0.704902996 0.720361 0.077419
2.171919 1.276383 1.468461 -0.740511919 -0.00660010623 0.672010816 0.723474 0.070989
2.174987 1.285343 1.469679 -0.442698329 0.270498979 0.854896773 0.753735 0.110998
2.176914 1.282202 1.471774 -0.461802115 0.30140138 0.834203821 0.714832 0.088444
2.175686 1.275254 1.472598 -0.710932469 0.0432019731 0.701932058 0.678527 0.05855
2.174451 1.272994 1.471214 -0.740079241 -0.00719979805 0.672481137 0.680991 0.051963
2.177142 1.277409 1.473662 -0.597322947 0.203207806 0.775829804 0.67619 0.064655
2.179581 1.274737 1.476314 -0.611304276 0.218601529 0.76060532 0.633564 0.049987
2.178273 1.272418 1.475412 -0.713901017 0.0465000663 0.698700996 0.635298 0.043794
2.177194 1.269987 1.474197 -0.73960074 -0.0078000078 0.673000673 0.637118 0.037105
2.17904 1.279356 1.474086 -0.482830472 0.329520797 0.811351206 0.67411 0.069799
2.181345 1.27683 1.476592 -0.505533071 0.354423185 0.78665146 0.632002 0.055188
2.181037 1.269972 1.478417 -0.717112213 0.0493008396 0.69521184 0.591082 0.033234
2.180124 1.267393 1.477384 -0.739073021 -0.00819970068 0.673575412 0.592266 0.02648
2.182186 1.272431 1.479146 -0.626310829 0.231804008 0.744312869 0.589955 0.039485
2.18493 1.270512 1.482131 -0.642110521 0.24290398 0.727111914 0.545663 0.033168
2.183949 1.267936 1.481584 -0.720512469 0.0517008947 0.691511967 0.546196 0.026884
2.183212 1.265235 1.480742 -0.738499317 -0.00859999205 0.674199376 0.546757 0.0201
2.183806 1.274651 1.479269 -0.529808456 0.376006001 0.760212133 0.588942 0.044735
2.1864 1.272838 1.482089 -0.555389967 0.393892884 0.73238677 0.545187 0.038454
2.186983 1.266333 1.484883 -0.723913646 0.0535010085 0.687812965 0.500955 0.02476
2.186429 1.263535 1.48424 -0.737875127 -0.00899969663 0.67487725 0.500913 0.017973
2.18779 1.269001 1.485241 -0.658536402 0.251613908 0.709239204 0.500987 0.031054
2.190735 1.267911 1.488444 -0.675494157 0.257897769 0.690794025 0.456296 0.033122
2.190108 1.265176 1.488281 -0.727557578 0.0548043371 0.683854119 0.455717 0.026846
2.189742 1.262308 1.487843 -0.737301408 -0.00920001757 0.67550129 0.455084 0.020083
2.189101 1.271411 1.485027 -0.582011768 0.40800825 0.703414223 0.500997 0.036358
2.191885 1.27038 1.488054 -0.609530444 0.418120884 0.67353364 0.456767 0.038427
2.193295 1.264478 1.491747 -0.731242424 0.0557032317 0.679839442 0.410838 0.033121
2.193121 1.261569 1.491518 -0.736677966 -0.00929972185 0.676179776 0.40962 0.026416
2.193739 1.267253 1.49171 -0.69273319 0.261712539 0.672032198 0.411961 0.039352
2.196772 1.267033 1.495008 -0.710185775 0.262894734 0.653086919 0.368333 0.049692
2.196513 1.264244 1.495246 -0.734933639 0.0559025587 0.675830933 0.366665 0.043535
2.196533 1.26132 1.495228 -0.73610375 -0.0094000479 0.676803448 0.364865 0.036926
2.194723 1.269759 1.49114 -0.637595776 0.424297189 0.64299574 0.412894 0.044638
2.197589 1.26955 1.494257 -0.665822432 0.426314363 0.612320629 0.369737 0.054942
2.199731 1.264478 1.498746 -0.738623429 0.0556017637 0.671821311 0.323543 0.05804
2.199945 1.261569 1.498938 -0.735479826 -0.00939974217 0.677481417 0.321165 0.051569
2.199805 1.267253 1.498307 -0.727629422 0.261610578 0.634125641 0.32576 0.064087
2.202808 1.267911 1.501573 -0.744906514 0.257902255 0.615305381 0.284605 0.082456
2.202918 1.265176 1.502211 -0.742311443 0.0548008448 0.667810294 0.281834 0.076559
2.203324 1.262308 1.502613 -0.734810684 -0.00920013377 0.678209861 0.27887 0.070263
2.200455 1.269759 1.497373 -0.694118203 0.424311128 0.58151525 0.327653 0.069287
2.203293 1.27038 1.50046 -0.722158851 0.418134075 0.551044906 0.286992 0.087554
2.206043 1.266333 1.50561 -0.745902883 0.0535002068 0.663902566 0.2419 0.099017
2.206637 1.263535 1.506216 -0.734187497 -0.00889984844 0.678888439 0.238333 0.092922
2.205754 1.269001 1.504776 -0.761826127 0.251608629 0.596920472 0.245234 0.104716
2.208613 1.270512 1.507885 -0.778321898 0.242806831 0.579016291 0.208013 0.130715
2.209076 1.267936 1.508909 -0.749398029 0.051699864 0.660098264 0.204108 0.125275
2.209854 1.265235 1.509714 -0.73361351 -0.00860015837 0.679512513 0.199926 0.119438
2.206076 1.271411 1.503487 -0.749594903 0.407997226 0.521196456 0.248102 0.109624
2.208778 1.272838 1.506425 -0.776276813 0.393888235 0.492185299 0.211367 0.135365
2.211989 1.269972 1.512076 -0.752800267 0.0493000175 0.656400233 0.168825 0.155192
2.212942 1.267393 1.513072 -0.733085756 -0.00819984068 0.680086786 0.164021 0.149701
2.211358 1.272431 1.51087 -0.794121723 0.231806341 0.561815369 0.173313 0.1603
2.213963 1.274737 1.513703 -0.809065857 0.218617795 0.545544406 0.141512 0.193252
2.214752 1.272418 1.515081 -0.755965972 0.0465040584 0.652956983 0.136445 0.188552
2.215872 1.269987 1.516258 -0.732511142 -0.00780011864 0.680710354 0.131027 0.183493
2.211372 1.274651 1.509245 -0.801902366 0.376001109 0.46430137 0.177169 0.164645
2.213833 1.27683 1.511922 -0.826215611 0.354406697 0.437908274 0.145875 0.197235
2.21734 1.275254 1.517895 -0.758935845 0.0432020405 0.649730688 0.10736 0.225139
2.218615 1.272994 1.519242 -0.732033206 -0.00720032661 0.681230901 0.101351 0.220597
2.216401 1.277409 1.516355 -0.823099202 0.203199803 0.530299486 0.112987 0.229351
2.218652 1.280422 1.518802 -0.836034592 0.185907692 0.516221359 0.08807 0.268271
2.219727 1.27845 1.520491 -0.761712176 0.0395006314 0.646710338 0.081917 0.264624
2.221147 1.276383 1.521995 -0.731600607 -0.00670000556 0.681700566 0.075357 0.260681
2.216137 1.279356 1.514428 -0.848927293 0.329510594 0.413213285 0.117851 0.232903
2.218264 1.282202 1.51674 -0.869908643 0.301402994 0.390403879 0.093412 0.271325
2.22189 1.281977 1.522844 -0.764203515 0.0354001628 0.644002962 0.060463 0.306679
2.22344 1.280122 1.524489 -0.731168458 -0.00599974118 0.682170572 0.053409 0.303411
2.22069 1.283746 1.521019 -0.847729764 0.166805857 0.503517679 0.067093 0.309687
2.2225 1.287349 1.522987 -0.858179806 0.146013578 0.492145767 0.05031 0.353186
2.22381 1.2858 1.524931 -0.766407465 0.0310003019 0.641606249 0.043269 0.350881
2.225476 1.284175 1.526702 -0.730785954 -0.00519990006 0.682586881 0.035789 0.348355
2.22019 1.285343 1.518835 -0.888927797 0.270408456 0.369711561 0.072872 0.312176
2.2219 1.288748 1.520694 -0.905786486 0.236796467 0.351394757 0.056475 0.355051
2.225466 1.289883 1.526732 -0.768322243 0.0264007643 0.639518514 0.030601 0.396806
2.227232 1.288504 1.528612 -0.730499262 -0.00439999556 0.68289931 0.022778 0.395079
2.224061 1.291197 1.524684 -0.867133221 0.123904747 0.482418482 0.037978 0.398353
2.225359 1.295252 1.526096 -0.874597372 0.100599698 0.474298575 0.030249 0.44471
2.226844 1.294185 1.528231 -0.769902768 0.0214000769 0.637802293 0.022624 0.443963
2.228693 1.293066 1.5302 -0.730211961 -0.00360005897 0.683211191 0.014548 0.443079
2.223375 1.292384 1.522298 -0.920308996 0.201001965 0.335603281 0.04446 0.399542
2.224602 1.296216 1.523633 -0.932440501 0.163107085 0.322414004 0.036974 0.445183
2.227929 1.298667 1.52941 -0.771193507 0.0161998636 0.636394642 0.0195 0.491863
2.229843 1.297818 1.531451 -0.72997097 -0.00269989263 0.683472819 0.011271 0.491852
2.226382 1.299476 1.527208 -0.880526953 0.0763023357 0.46781432 0.02728 0.491779
2.22712 1.303828 1.528011 -0.88471209 0.051300701 0.463306331 0.029108 0.539049
2.228712 1.303284 1.530262 -0.772103714 0.0109000524 0.635403056 0.021271 0.539978
2.230673 1.302713 1.532354 -0.729829106 -0.00180007179 0.683627264 0.012992 0.540856
2.225568 1.300207 1.524683 -0.941995436 0.123699401 0.311998488 0.034162 0.491508
2.226266 1.304319 1.525442 -0.948882413 0.0830984598 0.304494356 0.036058 0.53802
2.229185 1.307992 1.530776 -0.772633977 0.00550024188 0.634827917 0.02798 0.587784
2.231174 1.307705 1.532899 -0.729733353 -0.000900041137 0.683731251 0.019757 0.589551
2.227565 1.308265 1.528495 -0.887287942 0.0257996494 0.460493742 0.035771 0.58601
2.227715 1.312746 1.528658 -0.888161347 0 0.459531741 0.047186 0.632149
2.229343 1.312746 1.530948 -0.772775299 0 0.634679713 0.039541 0.634755
2.231342 1.312746 1.533082 -0.729683754 0 0.683784776 0.031479 0.637397
2.226686 1.308512 1.5259 -0.953020852 0.0418009146 0.300006564 0.042697 0.584221
2.226827 1.312746 1.526053 -0.954408776 0 0.298502745 0.053997 0.629615
2.229185 1.3175 1.530776 -0.772633977 -0.00550024188 0.634827917 0.05587 0.680366
2.231174 1.317786 1.532899 -0.729780099 0.000899975458 0.683681356 0.048072 0.683852
2.227565 1.317227 1.528495 -0.887287942 -0.0257996494 0.460493742 0.06327 0.676958
2.22712 1.321664 1.528011 -0.88471209 -0.051300701 0.463306331 0.083822 0.719957
2.228712 1.322208 1.530262 -0.772103714 -0.0109000524 0.635403056 0.07676 0.724125
2.230673 1.322778 1.532354 -0.729875703 0.00189993675 0.683577244 0.069323 0.728412
2.226686 1.31698 1.5259 -0.953020852 -0.0418009146 0.300006564 0.069875 0.673705
2.226266 1.321173 1.525442 -0.948874523 -0.0831977662 0.304491825 0.090137 0.716026
2.227929 1.326825 1.529411 -0.771152976 -0.016201113 0.636443722 0.102005 0.765541
2.229843 1.327674 1.531451 -0.730020861 0.00270007716 0.683419529 0.09502 0.770571
2.226382 1.326016 1.527208 -0.880526953 -0.0763023357 0.46781432 0.108643 0.760669
2.225359 1.33024 1.526096 -0.874597372 -0.100599698 0.474298575 0.137428 0.798676
2.226844 1.331307 1.528231 -0.769902768 -0.0214000769 0.637802293 0.131292 0.804186
2.228693 1.332426 1.5302 -0.73021222 0.00350005857 0.683211434 0.12484 0.809892
2.225568 1.325285 1.524684 -0.941995436 -0.123699401 0.311998488 0.114589 0.756113
2.224602 1.329276 1.523633 -0.932440501 -0.163107085 0.322414004 0.142934 0.793558
2.225466 1.335609 1.526732 -0.768322243 -0.0264007643 0.639518514 0.164306 0.839634
2.227232 1.336987 1.528612 -0.730402732 0.00440001646 0.683002554 0.158458 0.845937
2.224061 1.334295 1.524684 -0.867133221 -0.123904747 0.482418482 0.169873 0.833562
2.2225 1.338143 1.522987 -0.858137566 -0.146006392 0.492221547 0.20559 0.864993
2.22381 1.339692 1.524932 -0.766407465 -0.0310003019 0.641606249 0.200648 0.871544
2.225476 1.341316 1.526702 -0.730785954 0.00519990006 0.682586881 0.195464 0.87836
2.223375 1.333108 1.522298 -0.920358376 -0.200912743 0.335521281 0.174879 0.827954
2.2219 1.336744 1.520694 -0.905786486 -0.236796467 0.351394757 0.210047 0.858971
2.221891 1.343515 1.522844 -0.764200806 -0.0355000375 0.644000679 0.23992 0.899578
2.223441 1.34537 1.524489 -0.731121916 0.00600017986 0.68222045 0.235444 0.906816
2.220691 1.341746 1.521019 -0.847729764 -0.166805857 0.503517679 0.244193 0.892633
2.218652 1.34507 1.518802 -0.836034592 -0.185907692 0.516221359 0.285247 0.91626
2.219728 1.347042 1.520492 -0.761709163 -0.0396004764 0.64670778 0.281672 0.923508
2.221147 1.349109 1.521995 -0.731601094 0.00660000987 0.681701019 0.277935 0.931076
2.220191 1.340149 1.518835 -0.888903756 -0.270501143 0.369701562 0.248058 0.886276
2.218264 1.34329 1.51674 -0.869908643 -0.301402994 0.390403879 0.288501 0.90965
2.21734 1.350238 1.517895 -0.758935845 -0.0432020405 0.649730688 0.325454 0.943107
2.218616 1.352498 1.519242 -0.732033206 0.00720032661 0.681230901 0.322473 0.950908
2.216402 1.348083 1.516355 -0.823099202 -0.203199803 0.530299486 0.328321 0.935648
2.213963 1.350755 1.513703 -0.809083542 -0.218522564 0.545556332 0.372941 0.950674
2.214752 1.353074 1.515082 -0.755965972 -0.0465040584 0.652956983 0.370784 0.958254
2.215872 1.355505 1.516259 -0.732511709 0.00770012309 0.680710881 0.368564 0.966196
2.216138 1.346136 1.514428 -0.848927293 -0.329510594 0.413213285 0.330962 0.928873
2.213833 1.348662 1.511922 -0.826215611 -0.354406697 0.437908274 0.374972 0.943816
2.211989 1.35552 1.512076 -0.752800267 -0.0493000175 0.656400233 0.417178 0.96883
2.212942 1.358099 1.513072 -0.733085152 0.00829983189 0.680086225 0.415713 0.976824
2.211358 1.353061 1.510871 -0.794121723 -0.231806341 0.561815369 0.418632 0.961213
2.208613 1.35498 1.507886 -0.778302996 -0.242900935 0.579002229 0.464918 0.967237
2.209077 1.357556 1.508909 -0.7494019 -0.0516001308 0.660101673 0.46416 0.974819
2.209854 1.360257 1.509714 -0.733612875 0.00870015269 0.679511926 0.463438 0.98279
2.211372 1.350841 1.509246 -0.801902366 -0.376001109 0.46430137 0.420063 0.95435
2.208778 1.352654 1.506425 -0.776276813 -0.393888235 0.492185299 0.465748 0.960432
2.206076 1.354081 1.503487 -0.749625484 -0.407913867 0.521217719 0.511538 0.96202
2.203293 1.355112 1.50046 -0.722119053 -0.418111032 0.551114541 0.557096 0.959176
2.202809 1.357581 1.501573 -0.744925723 -0.257808902 0.615321247 0.557474 0.965718
2.205754 1.356491 1.504776 -0.761826127 -0.251608629 0.596920472 0.511321 0.968718
2.206043 1.359159 1.50561 -0.745902883 -0.0535002068 0.663902566 0.511253 0.976209
2.202918 1.360316 1.502212 -0.742307371 -0.0549005452 0.667806631 0.558077 0.973066
2.203324 1.363183 1.502613 -0.734811357 0.00910014064 0.678210482 0.558793 0.980816
2.206638 1.361957 1.506216 -0.734187497 0.00889984844 0.678888439 0.51126 0.984095
2.199731 1.361014 1.498746 -0.738619319 -0.0557014569 0.671817572 0.60425 0.965459
2.199945 1.363923 1.498938 -0.735434603 0.0093004376 0.677531879 0.605655 0.973032
2.199805 1.358239 1.498307 -0.727629422 -0.261610578 0.634125641 0.603008 0.958298
2.200455 1.355733 1.497374 -0.694147655 -0.424229124 0.581539924 0.602089 0.951963
3 0 1 2
3 0 3 1
3 0 4 3
3 0 5 4
3 0 6 5
3 0 7 6
3 0 8 7
3 0 2 8
3 9 10 11
3 9 12 10
3 9 13 12
3 9 14 13
3 9 4 14
3 9 3 4
3 9 1 3
3 9 11 1
3 15 16 17
3 15 18 16
3 15 19 18
3 15 20 19
3 15 13 20
3 15 12 13
3 15 10 12
3 15 17 10
3 21 22 23
3 21 24 22
3 21 25 24
3 21 26 25
3 21 19 26
3 21 18 19
3 21 16 18
3 21 23 16
3 27 28 29
3 27 30 28
3 27 31 30
3 27 32 31
3 27 25 32
3 27 24 25
3 27 22 24
3 27 29 22
3 33 34 35
3 33 36 34
3 33 37 36
3 33 38 37
3 33 31 38
3 33 30 31
3 33 28 30
3 33 35 28
3 39 40 41
3 39 42 40
3 39 43 42
3 39 44 43
3 39 37 44
3 39 36 37
3 39 34 36
3 39 41 34
3 45 46 47
3 45 48 46
3 45 49 48
3 45 50 49
3 45 43 50
3 45 42 43
3 45 40 42
3 45 47 40
3 51 52 53
3 51 54 52
3 51 55 54
3 51 56 55
3 51 49 56
3 51 48 49
3 51 46 48
3 51 53 46
3 57 58 59
3 57 60 58
3 57 61 60
3 57 62 61
3 57 55 62
3 57 54 55
3 57 52 54
3 57 59 52
3 63 64 65
3 63 66 64
3 63 67 66
3 63 68 67
3 63 61 68
3 63 60 61
3 63 58 60
3 63 65 58
3 69 70 71
3 69 72 70
3 69 73 72
3 69 74 73
3 69 67 74
3 69 66 67
3 69 64 66
3 69 71 64
3 75 76 77
3 75 78 76
3 75 79 78
3 75 80 79
3 75 73 80
3 75 72 73
3 75 70 72
3 75 77 70
3 81 82 83
3 81 84 82
3 81 85 84
3 81 86 85
3 81 79 86
3 81 78 79
3 81 76 78
3 81 83 76
3 87 88 89
3 87 90 88
3 87 91 90
3 87 92 91
3 87 85 92
3 87 84 85
3 87 82 84
3 87 89 82
3 93 94 95
3 93 96 94
3 93 97 96
3 93 98 97
3 93 91 98
3 93 90 91
3 93 88 90
3 93 95 88
3 99 100 101
3 99 102 100
3 99 103 102
3 99 104 103
3 99 97 104
3 99 96 97
3 99 94 96
3 99 101 94
3 105 106 107
3 105 108 106
3 105 109 108
3 105 110 109
3 105 103 110
3 105 102 103
3 105 100 102
3 105 107 100
3 111 112 113
3 111 114 112
3 111 115 114
3 111 116 115
3 111 109 116
3 111 108 109
3 111 106 108
3 111 113 106
3 117 118 119
3 117 120 118
3 117 121 120
3 117 122 121
3 117 115 122
3 117 114 115
3 117 112 114
3 117 119 112
3 123 124 125
3 123 126 124
3 123 127 126
3 123 128 127
3 123 121 128
3 123 120 121
3 123 118 120
3 123 125 118
3 129 130 131
3 129 132 130
3 129 133 132
3 129 134 133
3 129 127 134
3 129 126 127
3 129 124 126
3 129 131 124
3 135 136 137
3 135 138 136
3 135 139 138
3 135 140 139
3 135 133 140
3 135 132 133
3 135 130 132
3 135 137 130
3 141 142 143
3 141 144 142
3 141 145 144
3 141 146 145
3 141 139 146
3 141 138 139
3 141 136 138
3 141 143 136
3 147 148 149
3 147 150 148
3 147 151 150
3 147 152 151
3 147 145 152
3 147 144 145
3 147 142 144
3 147 149 142
3 153 154 155
3 153 156 154
3 153 157 156
3 153 158 157
3 153 151 158
3 153 150 151
3 153 148 150
3 153 155 148
3 159 160 161
3 159 162 160
3 159 163 162
3 159 164 163
3 159 157 164
3 159 156 157
3 159 154 156
3 159 161 154
3 165 166 167
3 165 168 166
3 165 169 168
3 165 170 169
3 165 163 170
3 165 162 163
3 165 160 162
3 165 167 160
3 171 172 173
3 171 174 172
3 171 175 174
3 171 176 175
3 171 169 176
3 171 168 169
3 171 166 168
3 171 173 166
3 177 178 179
3 177 180 178
3 177 181 180
3 177 182 181
3 177 175 182
3 177 174 175
3 177 172 174
3 177 179 172
3 183 184 185
3 183 186 184
3 183 187 186
3 183 188 187
3 183 181 188
3 183 180 181
3 183 178 180
3 183 185 178
3 189 8 190
3 189 7 8
3 189 6 7
3 189 191 6
3 189 187 191
3 189 186 187
3 189 184 186
3 189 190 184
3 192 193 194
3 192 195 193
3 192 196 195
3 192 197 196
3 192 198 197
3 192 199 198
3 192 200 199
3 192 194 200
3 201 196 197
3 201 202 196
3 201 8 202
3 201 190 8
3 201 184 190
3 201 203 184
3 201 198 203
3 201 197 198
3 204 200 205
3 204 199 200
3 204 198 199
3 204 206 198
3 204 207 206
3 204 208 207
3 204 209 208
3 204 205 209
3 210 198 206
3 210 203 198
3 210 184 203
3 210 185 184
3 210 178 185
3 210 211 178
3 210 207 211
3 210 206 207
3 212 209 213
3 212 208 209
3 212 207 208
3 212 214 207
3 212 215 214
3 212 216 215
3 212 217 216
3 212 213 217
3 218 207 214
3 218 211 207
3 218 178 211
3 218 179 178
3 218 172 179
3 218 219 172
3 218 215 219
3 218 214 215
3 220 217 221
3 220 216 217
3 220 215 216
3 220 222 215
3 220 223 222
3 220 224 223
3 220 225 224
3 220 221 225
3 226 215 222
3 226 219 215
3 226 172 219
3 226 173 172
3 226 166 173
3 226 227 166
3 226 223 227
3 226 222 223
3 228 225 229
3 228 224 225
3 228 223 224
3 228 230 223
3 228 231 230
3 228 232 231
3 228 233 232
3 228 229 233
3 234 223 230
3 234 227 223
3 234 166 227
3 234 167 166
3 234 160 167
3 234 235 160
3 234 231 235
3 234 230 231
3 236 233 237
3 236 232 233
3 236 231 232
3 236 238 231
3 236 239 238
3 236 240 239
3 236 241 240
3 236 237 241
3 242 231 238
3 242 235 231
3 242 160 235
3 242 161 160
3 242 154 161
3 242 243 154
3 242 239 243
3 242 238 239
3 244 241 245
3 244 240 241
3 244 239 240
3 244 246 239
3 244 247 246
3 244 248 247
3 244 249 248
3 244 245 249
3 250 239 246
3 250 243 239
3 250 154 243
3 250 155 154
3 250 148 155
3 250 251 148
3 250 247 251
3 250 246 247
3 252 249 253
3 252 248 249
3 252 247 248
3 252 254 247
3 252 255 254
3 252 256 255
3 252 257 256
3 252 253 257
3 258 247 254
3 258 251 247
3 258 148 251
3 258 149 148
3 258 142 149
3 258 259 142
3 258 255 259
3 258 254 255
3 260 257 261
3 260 256 257
3 260 255 256
3 260 262 255
3 260 263 262
3 260 264 263
3 260 265 264
3 260 261 265
3 266 255 262
3 266 259 255
3 266 142 259
3 266 143 142
3 266 136 143
3 266 267 136
3 266 263 267
3 266 262 263
3 268 265 269
3 268 264 265
3 268 263 264
3 268 270 263
3 268 271 270
3 268 272 271
3 268 273 272
3 268 269 273
3 274 263 270
3 274 267 263
3 274 136 267
3 274 137 136
3 274 130 137
3 274 275 130
3 274 271 275
3 274 270 271
3 276 273 277
3 276 272 273
3 276 271 272
3 276 278 271
3 276 279 278
3 276 280 279
3 276 281 280
3 276 277 281
3 282 271 278
3 282 275 271
3 282 130 275
3 282 131 130
3 282 124 131
3 282 283 124
3 282 279 283
3 282 278 279
3 284 281 285
3 284 280 281
3 284 279 280
3 284 286 279
3 284 287 286
3 284 288 287
3 284 289 288
3 284 285 289
3 290 279 286
3 290 283 279
3 290 124 283
3 290 125 124
3 290 118 125
3 290 291 118
3 290 287 291
3 290 286 287
3 292 289 293
3 292 288 289
3 292 287 288
3 292 294 287
3 292 295 294
3 292 296 295
3 292 297 296
3 292 293 297
3 298 287 294
3 298 291 287
3 298 118 291
3 298 119 118
3 298 112 119
3 298 299 112
3 298 295 299
3 298 294 295
3 300 297 301
3 300 296 297
3 300 295 296
3 300 302 295
3 300 303 302
3 300 304 303
3 300 305 304
3 300 301 305
3 306 295 302
3 306 299 295
3 306 112 299
3 306 113 112
3 306 106 113
3 306 307 106
3 306 303 307
3 306 302 303
3 308 305 309
3 308 304 305
3 308 303 304
3 308 310 303
3 308 311 310
3 308 312 311
3 308 313 312
3 308 309 313
3 314 303 310
3 314 307 303
3 314 106 307
3 314 107 106
3 314 100 107
3 314 315 100
3 314 311 315
3 314 310 311
3 316 313 317
3 316 312 313
3 316 311 312
3 316 318 311
3 316 319 318
3 316 320 319
3 316 321 320
3 316 317 321
3 322 311 318
3 322 315 311
3 322 100 315
3 322 101 100
3 322 94 101
3 322 323 94
3 322 319 323
3 322 318 319
3 324 321 325
3 324 320 321
3 324 319 320
3 324 326 319
3 324 327 326
3 324 328 327
3 324 329 328
3 324 325 329
3 330 319 326
3 330 323 319
3 330 94 323
3 330 95 94
3 330 88 95
3 330 331 88
3 330 327 331
3 330 326 327
3 332 329 333
3 332 328 329
3 332 327 328
3 332 334 327
3 332 335 334
3 332 336 335
3 332 337 336
3 332 333 337
3 338 327 334
3 338 331 327
3 338 88 331
3 338 89 88
3 338 82 89
3 338 339 82
3 338 335 339
3 338 334 335
3 340 337 341
3 340 336 337
3 340 335 336
3 340 342 335
3 340 343 342
3 340 344 343
3 340 345 344
3 340 341 345
3 346 335 342
3 346 339 335
3 346 82 339
3 346 83 82
3 346 76 83
3 346 347 76
3 346 343 347
3 346 342 343
3 348 345 349
3 348 344 345
3 348 343 344
3 348 350 343
3 348 351 350
3 348 352 351
3 348 353 352
3 348 349 353
3 354 343 350
3 354 347 343
3 354 76 347
3 354 77 76
3 354 70 77
3 354 355 70
3 354 351 355
3 354 350 351
3 356 353 357
3 356 352 353
3 356 351 352
3 356 358 351
3 356 359 358
3 356 360 359
3 356 361 360
3 356 357 361
3 362 351 358
3 362 355 351
3 362 70 355
3 362 71 70
3 362 64 71
3 362 363 64
3 362 359 363
3 362 358 359
3 364 361 365
3 364 360 361
3 364 359 360
3 364 366 359
3 364 367 366
3 364 368 367
3 364 369 368
3 364 365 369
3 370 359 366
3 370 363 359
3 370 64 363
3 370 65 64
3 370 58 65
3 370 371 58
3 370 367 371
3 370 366 367
3 372 369 373
3 372 368 369
3 372 367 368
3 372 374 367
3 372 375 374
3 372 376 375
3 372 377 376
3 372 373 377
3 378 367 374
3 378 371 367
3 378 58 371
3 378 59 58
3 378 52 59
3 378 379 52
3 378 375 379
3 378 374 375
3 380 377 381
3 380 376 377
3 380 375 376
3 380 382 375
3 380 383 382
3 380 384 383
3 380 385 384
3 380 381 385
3 386 375 382
3 386 379 375
3 386 52 379
3 386 53 52
3 386 46 53
3 386 387 46
3 386 383 387
3 386 382 383
3 388 385 389
3 388 384 385
3 388 383 384
3 388 390 383
3 388 391 390
3 388 392 391
3 388 393 392
3 388 389 393
3 394 383 390
3 394 387 383
3 394 46 387
3 394 47 46
3 394 40 47
3 394 395 40
3 394 391 395
3 394 390 391
3 396 393 397
3 396 392 393
3 396 391 392
3 396 398 391
3 396 399 398
3 396 400 399
3 396 401 400
3 396 397 401
3 402 391 398
3 402 395 391
3 402 40 395
3 402 41 40
3 402 34 41
3 402 403 34
3 402 399 403
3 402 398 399
3 404 401 405
3 404 400 401
3 404 399 400
3 404 406 399
3 404 407 406
3 404 408 407
3 404 409 408
3 404 405 409
3 410 399 406
3 410 403 399
3 410 34 403
3 410 35 34
3 410 28 35
3 410 411 28
3 410 407 411
3 410 406 407
3 412 409 413
3 412 408 409
3 412 407 408
3 412 414 407
3 412 415 414
3 412 416 415
3 412 417 416
3 412 413 417
3 418 407 414
3 418 411 407
3 418 28 411
3 418 29 28
3 418 22 29
3 418 419 22
3 418 415 419
3 418 414 415
3 420 417 421
3 420 416 417
3 420 415 416
3 420 422 415
3 420 423 422
3 420 424 423
3 420 425 424
3 420 421 425
3 426 415 422
3 426 419 415
3 426 22 419
3 426 23 22
3 426 16 23
3 426 427 16
3 426 423 427
3 426 422 423
3 428 425 429
3 428 424 425
3 428 423 424
3 428 430 423
3 428 431 430
3 428 432 431
3 428 433 432
3 428 429 433
3 434 423 430
3 434 427 423
3 434 16 427
3 434 17 16
3 434 10 17
3 434 435 10
3 434 431 435
3 434 430 431
3 436 1 11
3 436 437 1
3 436 438 437
3 436 439 438
3 436 431 439
3 436 435 431
3 436 10 435
3 436 11 10
3 440 438 439
3 440 441 438
3 440 442 441
3 440 443 442
3 440 433 443
3 440 432 433
3 440 431 432
3 440 439 431
3 444 442 445
3 444 441 442
3 444 438 441
3 444 446 438
3 444 196 446
3 444 195 196
3 444 193 195
3 444 445 193
3 447 438 446
3 447 437 438
3 447 1 437
3 447 2 1
3 447 8 2
3 447 202 8
3 447 196 202
3 447 446 196
