ply
format ascii 1.0
element vertex 192
property float x
property float y
property float z
property float nx
property float ny
property float nz
property float u
property float v
element face 256
property list uchar int vertex_indices
end_header
2.200645 1.33366 1.494245 -0.737931418 -0.0338014391 0.674028697 0.554907 0.733066
2.203351 1.34553 1.497818 -0.740518421 -0.0370009204 0.671016692 0.550059 0.887561
2.201154 1.346011 1.49543 -0.738074334 -0.037498696 0.673676573 0.588361 0.881697
2.202026 1.333358 1.495746 -0.740183405 -0.0331992557 0.671584943 0.531221 0.73637
2.200317 1.317765 1.493104 -0.74010067 -0.0327000296 0.671700608 0.506203 0.537799
2.199981 1.317838 1.492739 -0.73789651 -0.033199843 0.674096812 0.510666 0.537851
2.199642 1.317863 1.492369 -0.735691797 -0.0333996276 0.676492457 0.515215 0.537518
2.199251 1.333761 1.492728 -0.735633538 -0.0339015456 0.676530844 0.57821 0.727554
2.198936 1.346173 1.493018 -0.735583225 -0.0376991403 0.676384575 0.625915 0.872234
2.20338 1.332856 1.497219 -0.742341687 -0.0324018196 0.669237582 0.507594 0.737567
2.207595 1.343628 1.502434 -0.745310147 -0.0348004738 0.665809065 0.472935 0.888135
2.205504 1.344733 1.500161 -0.743008507 -0.0361004134 0.668307652 0.511572 0.889736
2.204695 1.332162 1.498648 -0.744449634 -0.031302087 0.666944467 0.483965 0.736529
2.200967 1.317474 1.493811 -0.744317291 -0.0308007155 0.667115497 0.498143 0.537456
2.200647 1.317643 1.493463 -0.742303938 -0.0319001692 0.669303551 0.502076 0.537726
2.205957 1.33128 1.500021 -0.746506588 -0.0299002639 0.664705866 0.460271 0.733132
2.211507 1.340539 1.506688 -0.749718451 -0.0313007703 0.661016268 0.395852 0.873436
2.209602 1.342225 1.504617 -0.747609386 -0.0332004168 0.663308328 0.434178 0.882672
2.207154 1.33022 1.501323 -0.74842374 -0.0282008945 0.662621019 0.436853 0.727434
2.201566 1.317001 1.494462 -0.748244926 -0.0278016693 0.662839798 0.490472 0.535808
2.201274 1.317259 1.494145 -0.746280205 -0.0293992202 0.664982362 0.494263 0.536814
2.208275 1.328991 1.502542 -0.750245451 -0.0262015873 0.660640023 0.414049 0.719495
2.214935 1.336382 1.510417 -0.753597453 -0.0265999101 0.65679778 0.322552 0.844046
2.21329 1.338585 1.508627 -0.751731145 -0.0291012057 0.658827296 0.358505 0.86052
2.20931 1.327606 1.503667 -0.751919907 -0.0240006354 0.658817442 0.392111 0.709391
2.202091 1.316364 1.495033 -0.751598437 -0.0235999509 0.659198629 0.483302 0.532737
2.201839 1.316702 1.494759 -0.750017082 -0.0258005876 0.660915053 0.486807 0.534444
2.210247 1.326078 1.504686 -0.753405406 -0.0215001543 0.657204715 0.371293 0.697199
2.217749 1.331317 1.513476 -0.756804492 -0.0210001246 0.653303877 0.256362 0.800962
2.216426 1.333951 1.512038 -0.75532141 -0.0239006775 0.654918564 0.288411 0.824137
2.211079 1.324422 1.505591 -0.754792841 -0.0187998217 0.655693781 0.351761 0.683021
2.202522 1.315589 1.495501 -0.754469931 -0.0184992627 0.656073853 0.476898 0.528354
2.202319 1.315992 1.495281 -0.753083967 -0.0210995508 0.657586 0.479988 0.5307
2.211796 1.322652 1.506371 -0.755897026 -0.0158999374 0.654497425 0.333682 0.666961
2.21984 1.325538 1.51575 -0.759156688 -0.0144010754 0.650748593 0.199708 0.745609
2.21889 1.328503 1.514718 -0.758097703 -0.0177999461 0.651898025 0.226686 0.774687
2.212393 1.320788 1.50702 -0.756857978 -0.0130009959 0.653450056 0.317255 0.649201
2.202842 1.314704 1.495849 -0.756484379 -0.0127997357 0.653886497 0.471503 0.522834
2.202696 1.315158 1.495691 -0.755622333 -0.015700464 0.654819353 0.474061 0.525723
2.212863 1.318846 1.507532 -0.757622517 -0.00980029127 0.652619396 0.302676 0.62992
2.221128 1.319267 1.51715 -0.760590002 -0.00729990404 0.649191466 0.155068 0.680266
2.220588 1.322449 1.516563 -0.760015637 -0.0109002243 0.64981337 0.175756 0.714025
2.213203 1.316846 1.507901 -0.758194389 -0.00659995116 0.651995175 0.29009 0.609322
2.203039 1.313744 1.496064 -0.75782696 -0.00650023125 0.65242321 0.467323 0.516391
2.202956 1.314231 1.495974 -0.757297584 -0.00969996906 0.652997917 0.469251 0.519712
2.213408 1.314806 1.508123 -0.758531973 -0.0033001391 0.651627467 0.279638 0.587609
2.221562 1.312746 1.517623 -0.761117061 0 0.648614539 0.124356 0.607603
2.221453 1.316022 1.517504 -0.760928939 -0.00370014072 0.648824675 0.137882 0.644665
2.213476 1.312746 1.508198 -0.75862799 0 0.651524038 0.271415 0.56501
2.203105 1.312746 1.496136 -0.758210903 0 0.652009376 0.464506 0.509282
2.203089 1.313247 1.496118 -0.758115064 -0.00320006359 0.652112958 0.465737 0.512903
2.213408 1.310686 1.508123 -0.758531973 0.0033001391 0.651627467 0.265517 0.541755
2.221128 1.306225 1.51715 -0.760590002 0.00729990404 0.649191466 0.108828 0.530637
2.221453 1.30947 1.517504 -0.760928939 0.00370014072 0.648824675 0.114648 0.569459
2.213203 1.308646 1.507901 -0.758194389 0.00659995116 0.651995175 0.261984 0.518089
2.203039 1.311748 1.496064 -0.75782696 0.00650023125 0.65242321 0.463151 0.501783
2.203089 1.312244 1.496118 -0.758114817 0.0033000645 0.652112746 0.463642 0.505563
2.212863 1.306646 1.507532 -0.757622517 0.00980029127 0.652619396 0.260858 0.494255
2.21984 1.299954 1.51575 -0.759156688 0.0144010754 0.650748593 0.109039 0.452578
2.220588 1.303043 1.516563 -0.760014805 0.0110002143 0.649812658 0.106966 0.491541
2.212393 1.304704 1.50702 -0.756900693 0.0130000119 0.653400598 0.262127 0.470499
2.202842 1.310788 1.495849 -0.756533844 0.0128005726 0.65382925 0.463292 0.494176
2.202956 1.311261 1.495974 -0.757297584 0.00969996906 0.652997917 0.463035 0.497975
2.211796 1.302839 1.506371 -0.75589582 0.0159999115 0.654496381 0.265777 0.447064
2.217749 1.294175 1.513476 -0.756806077 0.0209001678 0.653305246 0.124825 0.376653
2.21889 1.296989 1.514717 -0.758056515 0.0177013197 0.651948605 0.115028 0.414154
2.211079 1.30107 1.505591 -0.754792841 0.0187998217 0.655693781 0.271745 0.424184
2.202522 1.309903 1.495501 -0.754468532 0.0185992242 0.656072636 0.464909 0.486737
2.202696 1.310334 1.495691 -0.755571663 0.0157994075 0.654875439 0.463919 0.490418
2.210247 1.299414 1.504686 -0.753405406 0.0215001543 0.657204715 0.279969 0.402092
2.214935 1.28911 1.510416 -0.753597453 0.0265999101 0.65679778 0.155343 0.30592
2.216426 1.291541 1.512038 -0.75532141 0.0239006775 0.654918564 0.138323 0.340461
2.20931 1.297886 1.503667 -0.751919907 0.0240006354 0.658817442 0.290342 0.380996
2.202091 1.309128 1.495033 -0.751598437 0.0235999509 0.659198629 0.467941 0.479734
2.202319 1.3095 1.495281 -0.753133489 0.0211009383 0.657529238 0.466254 0.483166
2.208275 1.296501 1.502542 -0.750245451 0.0262015873 0.660640023 0.302756 0.361101
2.211506 1.284953 1.506688 -0.749718451 0.0313007703 0.661016268 0.199168 0.243103
2.21329 1.286907 1.508627 -0.751731145 0.0291012057 0.658827296 0.175704 0.273373
2.207154 1.295272 1.501323 -0.74842374 0.0282008945 0.662621019 0.317073 0.342583
2.201566 1.308491 1.494462 -0.748195328 0.0277998264 0.66289586 0.472283 0.473406
2.201839 1.30879 1.494759 -0.750017082 0.0258005876 0.660915053 0.469956 0.476471
2.205956 1.294212 1.500021 -0.746506588 0.0299002639 0.664705866 0.333154 0.325614
2.207595 1.281864 1.502434 -0.74530755 0.0349003535 0.665806745 0.254431 0.190447
2.209602 1.283267 1.504617 -0.747609386 0.0332004168 0.663308328 0.225502 0.215393
2.204695 1.29333 1.498648 -0.744449634 0.031302087 0.666944467 0.350839 0.31032
2.200967 1.308018 1.493811 -0.744317291 0.0308007155 0.667115497 0.477812 0.467977
2.201274 1.308233 1.494145 -0.746329831 0.0294011752 0.664926578 0.474908 0.470566
2.20338 1.292636 1.497219 -0.742341687 0.0324018196 0.669237582 0.369968 0.296827
2.20335 1.279962 1.497818 -0.740518421 0.0370009204 0.671016692 0.318864 0.149525
2.205504 1.280759 1.50016 -0.743008507 0.0361004134 0.668307652 0.285686 0.168467
2.202026 1.292134 1.495746 -0.740138188 0.0332017131 0.671634654 0.390283 0.285161
2.200317 1.307727 1.493104 -0.740050958 0.0326978332 0.671755484 0.484335 0.463596
2.200647 1.307849 1.493463 -0.742209348 0.0319004018 0.669408431 0.480974 0.465666
2.200645 1.291832 1.494245 -0.737931418 0.0338014391 0.674028697 0.411525 0.275347
2.198936 1.279319 1.493018 -0.735583225 0.0376991403 0.676384575 0.389485 0.121191
2.201154 1.279481 1.49543 -0.738074334 0.037498696 0.673676573 0.353566 0.133695
2.199251 1.291731 1.492728 -0.735633538 0.0339015456 0.676530844 0.433531 0.267554
2.199642 1.307629 1.492369 -0.735691797 0.0333996276 0.676492457 0.491501 0.460173
2.199981 1.307654 1.492739 -0.73789651 0.033199843 0.674096812 0.487832 0.461733
2.197857 1.291832 1.491212 -0.733430636 0.0337014077 0.678928359 0.456139 0.261952
2.194522 1.279962 1.488218 -0.730601242 0.0370000629 0.681801159 0.46379 0.106823
2.196718 1.279481 1.490606 -0.733093157 0.0374996499 0.679093661 0.426317 0.112226
2.196476 1.292134 1.489711 -0.731177465 0.0331989768 0.681379 0.479186 0.258573
2.198966 1.307727 1.491634 -0.731239334 0.0327017591 0.68133665 0.499419 0.458307
2.199302 1.307654 1.492 -0.733442904 0.0332019422 0.678939716 0.495374 0.459013
2.195122 1.292636 1.488238 -0.729023165 0.0324010296 0.683721726 0.502508 0.257448
2.190278 1.281864 1.483602 -0.725812455 0.0348005972 0.687011789 0.539297 0.106772
2.192368 1.280759 1.485876 -0.728159646 0.0361029573 0.684456066 0.501634 0.105
2.193807 1.29333 1.486809 -0.726864926 0.0312984897 0.686066895 0.525727 0.258633
2.198316 1.308018 1.490928 -0.727023102 0.0308009787 0.685921796 0.507818 0.458531
2.198636 1.307849 1.491276 -0.729178413 0.0318990556 0.683579763 0.503604 0.458109
2.192545 1.294212 1.485436 -0.724805095 0.0299002102 0.688304839 0.548466 0.262179
2.186366 1.284953 1.479348 -0.72140545 0.0313002365 0.691805227 0.612521 0.12119
2.188271 1.283267 1.481419 -0.72351035 0.0333004764 0.689509864 0.576226 0.112151
2.191348 1.295272 1.484134 -0.722888503 0.0281995515 0.690389019 0.570758 0.267939
2.197717 1.308491 1.490277 -0.723093875 0.0276997654 0.690194154 0.515892 0.461128
2.198009 1.308233 1.490594 -0.725010524 0.0294004268 0.688109988 0.511953 0.459685
2.190227 1.296501 1.482915 -0.721117689 0.0262006427 0.692316983 0.592638 0.275765
2.182937 1.28911 1.47562 -0.71752327 0.0267008659 0.696022572 0.682928 0.150178
2.184582 1.286907 1.477409 -0.719393105 0.0290997211 0.693993348 0.648278 0.133944
2.189192 1.297886 1.48179 -0.719440588 0.0240013541 0.694139161 0.613796 0.285616
2.197192 1.309128 1.489706 -0.719693685 0.0234997938 0.693893911 0.52291 0.4638
2.197444 1.30879 1.48998 -0.721368978 0.0257988905 0.692070238 0.519517 0.462418
2.188255 1.299414 1.480771 -0.717907071 0.0215002118 0.695806854 0.633927 0.29745
2.180123 1.294175 1.47256 -0.714313733 0.0209004018 0.699513448 0.746955 0.192259
2.181446 1.291541 1.473998 -0.715848074 0.0239016052 0.697846865 0.715901 0.169657
2.187423 1.30107 1.479866 -0.716615465 0.0188004057 0.697215046 0.652889 0.311195
2.196762 1.309903 1.489238 -0.716915245 0.0185003934 0.69691482 0.52922 0.467571
2.196964 1.3095 1.489458 -0.718208367 0.0211002458 0.695508103 0.526151 0.465522
2.186706 1.302839 1.479086 -0.71541595 0.0160003567 0.698515574 0.67054 0.32678
2.178032 1.299954 1.470286 -0.712015892 0.0144003214 0.702015669 0.802252 0.246178
2.178982 1.296989 1.471319 -0.71301902 0.0178004748 0.700918697 0.775847 0.217859
2.186109 1.304704 1.478437 -0.71445837 0.0130010622 0.699557153 0.686681 0.344033
2.196442 1.310788 1.488889 -0.71480589 0.0128001055 0.699205761 0.53474 0.472586
2.196587 1.310334 1.489048 -0.715814409 0.0157003161 0.698114053 0.532095 0.469933
2.185639 1.306646 1.477926 -0.713691475 0.00979988294 0.700391634 0.701108 0.362783
2.176745 1.306225 1.468886 -0.710529665 0.00730030479 0.703629377 0.846392 0.309843
2.177285 1.303043 1.469473 -0.711103193 0.0109000489 0.703003156 0.825846 0.276938
2.185299 1.308646 1.477556 -0.713115628 0.00660014464 0.701015363 0.713679 0.382851
2.196244 1.311748 1.488675 -0.713512537 0.00650011421 0.70061231 0.539211 0.478676
2.196327 1.311261 1.488765 -0.714088253 0.00969984044 0.699988485 0.53712 0.47551
2.185095 1.310686 1.477334 -0.71282979 0.00330013792 0.701329309 0.724249 0.40406
2.17631 1.312746 1.468413 -0.710000838 0 0.704200831 0.877461 0.380864
2.176419 1.30947 1.468532 -0.710145557 0.00370023738 0.704045166 0.863653 0.344599
2.185026 1.312746 1.477259 -0.712734479 0 0.701433933 0.732716 0.426201
2.196178 1.312746 1.488603 -0.713081168 0 0.701081485 0.54244 0.48562
2.196195 1.312244 1.488621 -0.713176651 0.00319989524 0.70097705 0.540991 0.482057
2.185095 1.314806 1.477334 -0.71282979 -0.00330013792 0.701329309 0.738979 0.449066
2.176745 1.319267 1.468886 -0.710529665 -0.00730030479 0.703629377 0.894136 0.456516
2.176419 1.316022 1.468532 -0.710145557 -0.00370023738 0.704045166 0.887651 0.418294
2.185299 1.316846 1.477556 -0.71321476 -0.00660013659 0.700914506 0.742983 0.472431
2.196244 1.313744 1.488675 -0.713561622 -0.00649965043 0.700562321 0.544287 0.493166
2.196195 1.313248 1.488621 -0.713226643 -0.00320011954 0.700926184 0.543542 0.489334
2.185639 1.318846 1.477926 -0.713740759 -0.00990056539 0.700339994 0.744676 0.496069
2.178032 1.325538 1.470286 -0.712015892 -0.0144003214 0.702015669 0.895727 0.533842
2.177285 1.322449 1.469473 -0.711103193 -0.0109000489 0.703003156 0.896829 0.495159
2.186109 1.320788 1.478437 -0.71445837 -0.0130010622 0.699557153 0.744053 0.519748
2.196442 1.314704 1.488889 -0.71480589 -0.0128001055 0.699205761 0.544665 0.501043
2.196327 1.314231 1.488765 -0.714088253 -0.00969984044 0.699988485 0.544663 0.49708
2.186706 1.322652 1.479086 -0.71541595 -0.0160003567 0.698515574 0.741108 0.543239
2.180123 1.331317 1.47256 -0.714312236 -0.0210003597 0.699511983 0.882205 0.609806
2.178982 1.328503 1.471318 -0.71301902 -0.0178004748 0.700918697 0.890827 0.572181
2.187423 1.324422 1.479866 -0.716615465 -0.0188004057 0.697215046 0.735888 0.566312
2.196762 1.315589 1.489237 -0.716915245 -0.0185003934 0.69691482 0.543527 0.508968
2.196587 1.315158 1.489048 -0.715764438 -0.01569922 0.698165313 0.544286 0.505017
2.188255 1.326078 1.480771 -0.717907071 -0.0215002118 0.695806854 0.728437 0.588742
2.182937 1.336382 1.47562 -0.71752327 -0.0267008659 0.696022572 0.854192 0.681441
2.181446 1.333951 1.473998 -0.715798117 -0.0238999371 0.697898165 0.869942 0.646343
2.189192 1.327606 1.48179 -0.719440588 -0.0240013541 0.694139161 0.718845 0.610314
2.197192 1.316364 1.489706 -0.71974193 -0.0236013749 0.693840421 0.540876 0.516656
2.196964 1.315992 1.489458 -0.718208367 -0.0211002458 0.695508103 0.542389 0.51286
2.190227 1.328991 1.482915 -0.721117689 -0.0262006427 0.692316983 0.707205 0.630812
2.186366 1.340539 1.479348 -0.72140545 -0.0313002365 0.691805227 0.812966 0.745963
2.184582 1.338585 1.477409 -0.719393105 -0.0290997211 0.693993348 0.835112 0.714751
2.191348 1.33022 1.484134 -0.722938411 -0.0282014984 0.690336679 0.693675 0.650046
2.197717 1.317001 1.490277 -0.723191488 -0.027699674 0.690091878 0.536742 0.523816
2.197444 1.316702 1.48998 -0.721368978 -0.0257988905 0.692070238 0.538992 0.520321
2.192545 1.33128 1.485436 -0.724805095 -0.0299002102 0.688304839 0.678417 0.667826
2.190278 1.343628 1.483602 -0.725812455 -0.0348005972 0.687011789 0.760266 0.800742
2.18827 1.342225 1.481419 -0.723512756 -0.0332005853 0.689512156 0.788019 0.774769
2.193807 1.332162 1.486809 -0.726914793 -0.031300637 0.686013961 0.661382 0.683851
2.198316 1.317474 1.490928 -0.727023102 -0.0308009787 0.685921796 0.531115 0.53008
2.198009 1.317259 1.490594 -0.725010524 -0.0294004268 0.688109988 0.534135 0.527105
2.195122 1.332856 1.488238 -0.729023165 -0.0324010296 0.683721726 0.642519 0.69782
2.194522 1.34553 1.488218 -0.730601242 -0.0370000629 0.681801159 0.696832 0.842944
2.192368 1.344733 1.485876 -0.728159646 -0.0361029573 0.684456066 0.729703 0.823452
2.196476 1.333358 1.489711 -0.731175034 -0.033298863 0.681376735 0.622173 0.709769
2.198966 1.317765 1.491634 -0.731239334 -0.0327017591 0.68133665 0.523759 0.534754
2.198636 1.317643 1.491276 -0.729178413 -0.0318990556 0.683579763 0.527627 0.532633
2.197857 1.33366 1.491212 -0.733430636 -0.0337014077 0.678928359 0.600684 0.719734
2.196718 1.346011 1.490606 -0.733093157 -0.0374996499 0.679093661 0.662154 0.85926
2.199302 1.317838 1.492 -0.733393106 -0.0331996879 0.678993617 0.519601 0.536434
3 0 1 2
3 0 3 1
3 0 4 3
3 0 5 4
3 0 6 5
3 0 7 6
3 0 8 7
3 0 2 8
3 9 10 11
3 9 12 10
3 9 13 12
3 9 14 13
3 9 4 14
3 9 3 4
3 9 1 3
3 9 11 1
3 15 16 17
3 15 18 16
3 15 19 18
3 15 20 19
3 15 13 20
3 15 12 13
3 15 10 12
3 15 17 10
3 21 22 23
3 21 24 22
3 21 25 24
3 21 26 25
3 21 19 26
3 21 18 19
3 21 16 18
3 21 23 16
3 27 28 29
3 27 30 28
3 27 31 30
3 27 32 31
3 27 25 32
3 27 24 25
3 27 22 24
3 27 29 22
3 33 34 35
3 33 36 34
3 33 37 36
3 33 38 37
3 33 31 38
3 33 30 31
3 33 28 30
3 33 35 28
3 39 40 41
3 39 42 40
3 39 43 42
3 39 44 43
3 39 37 44
3 39 36 37
3 39 34 36
3 39 41 34
3 45 46 47
3 45 48 46
3 45 49 48
3 45 50 49
3 45 43 50
3 45 42 43
3 45 40 42
3 45 47 40
3 51 52 53
3 51 54 52
3 51 55 54
3 51 56 55
3 51 49 56
3 51 48 49
3 51 46 48
3 51 53 46
3 57 58 59
3 57 60 58
3 57 61 60
3 57 62 61
3 57 55 62
3 57 54 55
3 57 52 54
3 57 59 52
3 63 64 65
3 63 66 64
3 63 67 66
3 63 68 67
3 63 61 68
3 63 60 61
3 63 58 60
3 63 65 58
3 69 70 71
3 69 72 70
3 69 73 72
3 69 74 73
3 69 67 74
3 69 66 67
3 69 64 66
3 69 71 64
3 75 76 77
3 75 78 76
3 75 79 78
3 75 80 79
3 75 73 80
3 75 72 73
3 75 70 72
3 75 77 70
3 81 82 83
3 81 84 82
3 81 85 84
3 81 86 85
3 81 79 86
3 81 78 79
3 81 76 78
3 81 83 76
3 87 88 89
3 87 90 88
3 87 91 90
3 87 92 91
3 87 85 92
3 87 84 85
3 87 82 84
3 87 89 82
3 93 94 95
3 93 96 94
3 93 97 96
3 93 98 97
3 93 91 98
3 93 90 91
3 93 88 90
3 93 95 88
3 99 100 101
3 99 102 100
3 99 103 102
3 99 104 103
3 99 97 104
3 99 96 97
3 99 94 96
3 99 101 94
3 105 106 107
3 105 108 106
3 105 109 108
3 105 110 109
3 105 103 110
3 105 102 103
3 105 100 102
3 105 107 100
3 111 112 113
3 111 114 112
3 111 115 114
3 111 116 115
3 111 109 116
3 111 108 109
3 111 106 108
3 111 113 106
3 117 118 119
3 117 120 118
3 117 121 120
3 117 122 121
3 117 115 122
3 117 114 115
3 117 112 114
3 117 119 112
3 123 124 125
3 123 126 124
3 123 127 126
3 123 128 127
3 123 121 128
3 123 120 121
3 123 118 120
3 123 125 118
3 129 130 131
3 129 132 130
3 129 133 132
3 129 134 133
3 129 127 134
3 129 126 127
3 129 124 126
3 129 131 124
3 135 136 137
3 135 138 136
3 135 139 138
3 135 140 139
3 135 133 140
3 135 132 133
3 135 130 132
3 135 137 130
3 141 142 143
3 141 144 142
3 141 145 144
3 141 146 145
3 141 139 146
3 141 138 139
3 141 136 138
3 141 143 136
3 147 148 149
3 147 150 148
3 147 151 150
3 147 152 151
3 147 145 152
3 147 144 145
3 147 142 144
3 147 149 142
3 153 154 155
3 153 156 154
3 153 157 156
3 153 158 157
3 153 151 158
3 153 150 151
3 153 148 150
3 153 155 148
3 159 160 161
3 159 162 160
3 159 163 162
3 159 164 163
3 159 157 164
3 159 156 157
3 159 154 156
3 159 161 154
3 165 166 167
3 165 168 166
3 165 169 168
3 165 170 169
3 165 163 170
3 165 162 163
3 165 160 162
3 165 167 160
3 171 172 173
3 171 174 172
3 171 175 174
3 171 176 175
3 171 169 176
3 171 168 169
3 171 166 168
3 171 173 166
3 177 178 179
3 177 180 178
3 177 181 180
3 177 182 181
3 177 175 182
3 177 174 175
3 177 172 174
3 177 179 172
3 183 184 185
3 183 186 184
3 183 187 186
3 183 188 187
3 183 181 188
3 183 180 181
3 183 178 180
3 183 185 178
3 189 8 190
3 189 7 8
3 189 6 7
3 189 191 6
3 189 187 191
3 189 186 187
3 189 184 186
3 189 190 184
