ply
format ascii 1.0
element vertex 448
property float x
property float y
property float z
property float nx
property float ny
property float nz
property float u
property float v
element face 768
property list uchar int vertex_indices
end_header
2.197811 1.366416 1.501234 -0.12269849 0.962588155 0.241597027 0 0
2.193249 1.366182 1.498248 -0.488429556 0.748145272 0.449127178 0 0
2.196795 1.365924 1.502103 -0.438814196 0.744524086 0.503116276 0 0
2.194233 1.366676 1.497343 -0.186810712 0.967255464 0.171809852 0 0
2.195545 1.366965 1.496137 -0.117898975 0.987091422 0.108399058 0 0
2.199142 1.366703 1.500049 -0.0524022216 0.982341647 0.179607615 0 0
2.202705 1.365923 1.503923 0.0124001773 0.968113839 0.250203577 0 0
2.201355 1.36564 1.505088 -0.0591038637 0.948662016 0.310720312 0 0
2.200306 1.365155 1.505921 -0.389611133 0.733820969 0.556515903 0 0
2.20483 1.364353 1.508866 0.00319998744 0.925596367 0.378498514 0 0
2.206198 1.36463 1.507722 0.0760970806 0.944563763 0.319387747 0 0
2.209589 1.362838 1.51141 0.137804637 0.911930687 0.386513006 0 0
2.208203 1.362571 1.512534 0.0637006007 0.893608427 0.44430419 0 0
2.207091 1.362114 1.5133 -0.294597848 0.691194951 0.659895179 0 0
2.203749 1.363881 1.509666 -0.341408916 0.715918696 0.609015905 0 0
2.211441 1.360307 1.516056 0.121806151 0.85304308 0.507425626 0 0
2.212845 1.360562 1.51495 0.197106951 0.8705307 0.450915902 0 0
2.215935 1.357827 1.51831 0.253305599 0.820718142 0.51211132 0 0
2.214514 1.357587 1.519398 0.176912337 0.804256083 0.567339562 0 0
2.213344 1.357176 1.5201 -0.206996541 0.622089605 0.755087383 0 0
2.2103 1.359872 1.516789 -0.249707264 0.659819194 0.708720617 0 0
2.217391 1.354434 1.522526 0.228497739 0.747692602 0.623493831 0 0
2.218827 1.354657 1.521455 0.305906092 0.763015196 0.56941134 0 0
2.221496 1.351084 1.524357 0.354498743 0.697997526 0.622197794 0 0
2.220046 1.35088 1.525413 0.276083808 0.683959887 0.675260397 0 0
2.218826 1.350531 1.526061 -0.130197201 0.528988627 0.838581971 0 0
2.216195 1.354052 1.523201 -0.167103714 0.578312853 0.798517747 0 0
2.222451 1.346958 1.528029 0.319295164 0.613590707 0.722189063 0 0
2.223914 1.347142 1.526987 0.398591548 0.626186722 0.670085791 0 0
2.22606 1.342868 1.529321 0.437592325 0.548390381 0.712587501 0 0
2.224585 1.342708 1.53035 0.357588028 0.537382009 0.763774429 0 0
2.223324 1.342433 1.530952 -0.0673005122 0.415703164 0.907006902 0 0
2.221209 1.346645 1.528653 -0.09690437 0.474621404 0.874839452 0 0
2.226427 1.338168 1.532352 0.390613035 0.455915214 0.799726687 0 0
2.227911 1.338304 1.531334 0.471316869 0.465316654 0.749226815 0 0
2.229451 1.333495 1.533009 0.499402562 0.377701938 0.779704 0 0
2.227959 1.333384 1.534018 0.418096283 0.37009671 0.829592625 0 0
2.226666 1.333195 1.534587 -0.0206003661 0.286305088 0.957917022 0 0
2.225148 1.337935 1.532937 -0.0418015668 0.352613216 0.934835038 0 0
2.229165 1.328401 1.53533 0.439720186 0.280712886 0.853139164 0 0
2.230664 1.328485 1.534328 0.521432877 0.286518066 0.803750678 0 0
2.23154 1.323323 1.53528 0.537302348 0.192600842 0.821103588 0 0
2.230036 1.323267 1.536277 0.455225325 0.188710498 0.870148408 0 0
2.228724 1.323171 1.536826 0.00820053022 0.145909434 0.989263963 0 0
2.227861 1.328257 1.535887 -0.00390015829 0.217108812 0.976139617 0 0
2.230561 1.318032 1.536848 0.464691336 0.0947982325 0.880383585 0 0
2.232068 1.31806 1.535854 0.547007798 0.0968013799 0.831511853 0 0
2.232245 1.312746 1.536047 0.550099444 0 0.835099157 0 0
2.230737 1.312746 1.53704 0.467814203 0 0.883826833 0 0
2.229419 1.312746 1.537581 0.0180006837 0 0.999837975 0 0
2.229245 1.317983 1.537391 0.0154998374 0.0732992311 0.99718954 0 0
2.230561 1.30746 1.536848 0.464691336 -0.0947982325 0.880383585 0 0
2.232068 1.307431 1.535854 0.547007798 -0.0968013799 0.831511853 0 0
2.23154 1.302168 1.53528 0.537417595 -0.192606306 0.821026881 0 0
2.230036 1.302225 1.536277 0.455304601 -0.188701907 0.870108792 0 0
2.228724 1.302321 1.536826 0.00820053022 -0.145909434 0.989263963 0 0
2.229245 1.307508 1.537391 0.0154998374 -0.0732992311 0.99718954 0 0
2.229165 1.297091 1.53533 0.439720186 -0.280712886 0.853139164 0 0
2.230664 1.297007 1.534328 0.521505687 -0.286503124 0.803708764 0 0
2.229451 1.291997 1.533009 0.499383698 -0.377787667 0.779674548 0 0
2.227959 1.292108 1.534018 0.417998286 -0.370198482 0.829596599 0 0
2.226666 1.292297 1.534587 -0.0205004064 -0.286305676 0.957918991 0 0
2.227861 1.297234 1.535887 -0.00380007317 -0.217204182 0.976118795 0 0
2.226427 1.287324 1.532352 0.390528285 -0.455933022 0.799757925 0 0
2.227911 1.287187 1.531334 0.471394652 -0.465294721 0.7491915 0 0
2.22606 1.282623 1.529321 0.437623508 -0.54842946 0.712538275 0 0
2.224585 1.282784 1.53035 0.357500813 -0.537401223 0.763801738 0 0
2.223324 1.283058 1.530952 -0.0673033097 -0.415620439 0.907044605 0 0
2.225148 1.287557 1.532936 -0.0418015668 -0.352613216 0.934835038 0 0
2.222451 1.278534 1.528029 0.319205356 -0.613610296 0.722212119 0 0
2.223914 1.27835 1.526987 0.398482477 -0.62627246 0.670070534 0 0
2.221496 1.274407 1.524357 0.354498743 -0.697997526 0.622197794 0 0
2.220046 1.274612 1.525413 0.276083808 -0.683959887 0.675260397 0 0
2.218825 1.274961 1.526061 -0.130208119 -0.529032989 0.83855229 0 0
2.221209 1.278847 1.528653 -0.09690437 -0.474621404 0.874839452 0 0
2.217391 1.271058 1.522526 0.228497739 -0.747692602 0.623493831 0 0
2.218827 1.270835 1.521455 0.305906092 -0.763015196 0.56941134 0 0
2.215934 1.267664 1.518309 0.253305599 -0.820718142 0.51211132 0 0
2.214514 1.267905 1.519397 0.176912337 -0.804256083 0.567339562 0 0
2.213344 1.268316 1.5201 -0.206996541 -0.622089605 0.755087383 0 0
2.216195 1.27144 1.5232 -0.167103714 -0.578312853 0.798517747 0 0
2.211441 1.265185 1.516056 0.121806151 -0.85304308 0.507425626 0 0
2.212845 1.26493 1.51495 0.197001945 -0.870508596 0.451004454 0 0
2.209589 1.262654 1.511409 0.137804637 -0.911930687 0.386513006 0 0
2.208203 1.262921 1.512534 0.0637006007 -0.893608427 0.44430419 0 0
2.207091 1.263378 1.5133 -0.294617289 -0.691240563 0.65983872 0 0
2.210299 1.26562 1.516789 -0.249707264 -0.659819194 0.708720617 0 0
2.204829 1.261139 1.508866 0.00319998744 -0.925596367 0.378498514 0 0
2.206198 1.260862 1.507722 0.0759976623 -0.944570945 0.319390176 0 0
2.202705 1.259569 1.503923 0.0124001773 -0.968113839 0.250203577 0 0
2.201355 1.259852 1.505087 -0.0591038637 -0.948662016 0.310720312 0 0
2.200306 1.260337 1.505921 -0.389611133 -0.733820969 0.556515903 0 0
2.203749 1.261611 1.509665 -0.341408916 -0.715918696 0.609015905 0 0
2.197811 1.259076 1.501234 -0.12269849 -0.962588155 0.241597027 0 0
2.199142 1.258789 1.500048 -0.0525010072 -0.982318846 0.179703448 0 0
2.195545 1.258527 1.496137 -0.117898975 -0.987091422 0.108399058 0 0
2.194233 1.258816 1.497343 -0.186810712 -0.967255464 0.171809852 0 0
2.193249 1.25931 1.498248 -0.488393014 -0.748189297 0.449093576 0 0
2.196795 1.259568 1.502103 -0.438781525 -0.744568651 0.503078818 0 0
2.190655 1.259076 1.493452 -0.250999528 -0.96259819 0.101999808 0 0
2.191948 1.258789 1.492225 -0.183406173 -0.982333061 0.037201252 0 0
2.188385 1.259569 1.488351 -0.248301731 -0.968106748 -0.0334002328 0 0
2.187111 1.259852 1.489598 -0.314496171 -0.94868845 0.0328995994 0 0
2.186193 1.260337 1.490574 -0.587235699 -0.733744606 0.341720774 0 0
2.189704 1.259568 1.494392 -0.538095991 -0.744494454 0.395197056 0 0
2.183637 1.261139 1.485819 -0.376898685 -0.92559677 -0.0348998782 0 0
2.184891 1.260862 1.484551 -0.311891108 -0.944573071 -0.102497078 0 0
2.1815 1.262654 1.480864 -0.373584101 -0.911961188 -0.169592782 0 0
2.180264 1.262921 1.482151 -0.437404328 -0.893608842 -0.100700996 0 0
2.179408 1.263378 1.483195 -0.682220068 -0.691220333 0.23830701 0 0
2.18275 1.261611 1.48683 -0.635418917 -0.715921313 0.289308613 0 0
2.177025 1.265185 1.47863 -0.495434533 -0.85305946 -0.163811418 0 0
2.178245 1.26493 1.477323 -0.43290531 -0.870510677 -0.234102871 0 0
2.175155 1.267665 1.473964 -0.489121928 -0.820736794 -0.295213235 0 0
2.173952 1.267905 1.475288 -0.550616604 -0.804224252 -0.223706746 0 0
2.173154 1.268316 1.476395 -0.769729208 -0.622123607 0.14310543 0 0
2.176199 1.26562 1.479706 -0.727128831 -0.659826163 0.189507514 0 0
2.171075 1.271058 1.47216 -0.60218671 -0.747683499 -0.279893823 0 0
2.172263 1.270835 1.470818 -0.541807453 -0.763010495 -0.352504849 0 0
2.169594 1.274407 1.467916 -0.590363009 -0.697956267 -0.4053746 0 0
2.168421 1.274612 1.469273 -0.649782261 -0.683981328 -0.331590948 0 0
2.167673 1.274961 1.470434 -0.846513824 -0.529008639 0.0597009749 0 0
2.170304 1.27144 1.473295 -0.809624771 -0.578417697 0.0997030505 0 0
2.166015 1.278534 1.466657 -0.692916169 -0.613614319 -0.378608835 0 0
2.167176 1.27835 1.465286 -0.634377578 -0.626177868 -0.453283979 0 0
2.16503 1.282624 1.462952 -0.673424038 -0.548419576 -0.495717695 0 0
2.163881 1.282784 1.464336 -0.7311926 -0.537394562 -0.420195748 0 0
2.163175 1.283059 1.465543 -0.909504866 -0.415602223 -0.00870004655 0 0
2.16529 1.278847 1.467842 -0.87989264 -0.47459603 0.0233998043 0 0
2.16204 1.287324 1.462333 -0.764248279 -0.455928802 -0.456128815 0 0
2.163179 1.287188 1.460939 -0.707119708 -0.465312968 -0.532414839 0 0
2.161638 1.291997 1.459264 -0.735187965 -0.377693817 -0.562890786 0 0
2.160507 1.292108 1.460667 -0.79171627 -0.370107606 -0.486009988 0 0
2.159832 1.292297 1.461908 -0.956280172 -0.286294064 -0.0596987622 0 0
2.16135 1.287557 1.463559 -0.935021253 -0.352708017 -0.0365008297 0 0
2.159301 1.297091 1.459355 -0.813342384 -0.280814634 -0.509526552 0 0
2.160426 1.297007 1.457945 -0.757285934 -0.286494678 -0.586889099 0 0
2.15955 1.302168 1.456993 -0.773203619 -0.192600901 -0.604202828 0 0
2.15843 1.302225 1.458408 -0.828947604 -0.188710837 -0.526530237 0 0
2.157774 1.302321 1.45967 -0.985105014 -0.145900743 -0.0910004632 0 0
2.158637 1.297234 1.460608 -0.973020589 -0.217204596 -0.0778016463 0 0
2.157905 1.30746 1.457837 -0.838376593 -0.0947973533 -0.536785013 0 0
2.159022 1.307432 1.456419 -0.782885983 -0.0967982668 -0.614588996 0 0
2.158845 1.312746 1.456226 -0.786099678 0 -0.618099747 0 0
2.157729 1.312746 1.457646 -0.841571427 0 -0.540145844 0 0
2.157079 1.312746 1.458914 -0.99482507 0 -0.10160256 0 0
2.157254 1.307508 1.459104 -0.992394115 -0.0732995653 -0.0988994135 0 0
2.157905 1.318032 1.457837 -0.838421594 0.0948024417 -0.536713823 0 0
2.159022 1.31806 1.456419 -0.782893557 0.0966992042 -0.614594942 0 0
2.15955 1.323324 1.456993 -0.77324383 0.19258601 -0.604156113 0 0
2.15843 1.323267 1.458408 -0.829022529 0.188705128 -0.526414306 0 0
2.157774 1.323171 1.45967 -0.985113974 0.14590207 -0.0909012894 0 0
2.157254 1.317984 1.459104 -0.992394115 0.0732995653 -0.0988994135 0 0
2.159301 1.328401 1.459355 -0.813342384 0.280814634 -0.509526552 0 0
2.160425 1.328485 1.457945 -0.757330377 0.286511492 -0.586823538 0 0
2.161638 1.333495 1.459264 -0.735229347 0.377715077 -0.562822466 0 0
2.160507 1.333384 1.460667 -0.791754748 0.370125593 -0.485933601 0 0
2.159832 1.333195 1.461908 -0.956285876 0.286295771 -0.0595991197 0 0
2.158637 1.328257 1.460608 -0.973020589 0.217204596 -0.0778016463 0 0
2.16204 1.338168 1.462333 -0.764248279 0.455928802 -0.456128815 0 0
2.163179 1.338304 1.460939 -0.707169702 0.465280066 -0.532377191 0 0
2.16503 1.342868 1.462952 -0.673478685 0.548382644 -0.495684312 0 0
2.163881 1.342708 1.464336 -0.7311926 0.537394562 -0.420195748 0 0
2.163175 1.342433 1.465543 -0.90950407 0.41560186 -0.00880003938 0 0
2.16135 1.337935 1.463559 -0.93505423 0.352620451 -0.036502117 0 0
2.166015 1.346958 1.466657 -0.692916169 0.613614319 -0.378608835 0 0
2.167176 1.347142 1.465286 -0.634406331 0.62620625 -0.453204523 0 0
2.169594 1.351085 1.467916 -0.590321789 0.698025765 -0.40531496 0 0
2.168421 1.35088 1.469273 -0.649782261 0.683981328 -0.331590948 0 0
2.167673 1.350531 1.470434 -0.846513824 0.529008639 0.0597009749 0 0
2.16529 1.346645 1.467842 -0.87989264 0.47459603 0.0233998043 0 0
2.171075 1.354434 1.472159 -0.602122968 0.747728523 -0.279910677 0 0
2.172263 1.354657 1.470818 -0.541807453 0.763010495 -0.352504849 0 0
2.175155 1.357828 1.473964 -0.489107486 0.820712561 -0.29530452 0 0
2.173952 1.357587 1.475288 -0.550490317 0.804285853 -0.223796063 0 0
2.173154 1.357177 1.476395 -0.769718189 0.622114701 0.143203384 0 0
2.170303 1.354052 1.473295 -0.809706044 0.578304317 0.0997007443 0 0
2.177025 1.360307 1.47863 -0.495434533 0.85305946 -0.163811418 0 0
2.178245 1.360562 1.477323 -0.43290531 0.870510677 -0.234102871 0 0
2.1815 1.362838 1.480864 -0.373611832 0.911928881 -0.169705375 0 0
2.180264 1.362571 1.482151 -0.437404328 0.893608842 -0.100700996 0 0
2.179408 1.362115 1.483195 -0.682220068 0.691220333 0.23830701 0 0
2.176199 1.359872 1.479706 -0.727128831 0.659826163 0.189507514 0 0
2.183636 1.364353 1.485819 -0.376812885 0.925631653 -0.0349011935 0 0
2.184891 1.36463 1.484551 -0.311800834 0.944602527 -0.102500274 0 0
2.188385 1.365923 1.48835 -0.24820872 0.968134011 -0.0333011699 0 0
2.187111 1.36564 1.489598 -0.314496171 0.94868845 0.0328995994 0 0
2.186193 1.365155 1.490574 -0.587235699 0.733744606 0.341720774 0 0
2.18275 1.363881 1.48683 -0.635418917 0.715921313 0.289308613 0 0
2.190655 1.366416 1.493452 -0.250999528 0.96259819 0.101999808 0 0
2.191948 1.366703 1.492225 -0.183406173 0.982333061 0.037201252 0 0
2.189704 1.365924 1.494392 -0.538095991 0.744494454 0.395197056 0 0
2.189436 1.365026 1.494759 -0.729331409 -0.0723031138 0.680329299 0 0
2.185984 1.36427 1.491005 -0.724590997 -0.0711991154 0.685491483 0 0
2.192921 1.365279 1.498549 -0.734175809 -0.0724976112 0.675077757 0 0
2.193373 1.364449 1.498134 -0.383689322 -0.853376251 0.352890179 0 0
2.189943 1.364199 1.494404 -0.327094724 -0.849286301 0.414393316 0 0
2.186545 1.363455 1.490709 -0.270997946 -0.836993655 0.475396397 0 0
2.182599 1.363016 1.487324 -0.719899737 -0.0693999747 0.690599748 0 0
2.179313 1.36128 1.483751 -0.715402497 -0.0669002335 0.695502427 0 0
2.183214 1.362222 1.487086 -0.216007496 -0.816628337 0.535218572 0 0
2.17998 1.360513 1.48357 -0.162608166 -0.788439596 0.593229793 0 0
2.176159 1.359076 1.480321 -0.710986815 -0.0639988132 0.700287013 0 0
2.173166 1.356426 1.477066 -0.706815041 -0.0604012854 0.704814999 0 0
2.176876 1.358343 1.480194 -0.111406243 -0.752642175 0.648936364 0 0
2.17393 1.355735 1.47699 -0.0627004173 -0.709604722 0.701804671 0 0
2.170363 1.353354 1.474018 -0.702982974 -0.0561986389 0.708982829 0 0
2.167777 1.349892 1.471206 -0.699498066 -0.0511998584 0.712798029 0 0
2.171171 1.352712 1.473991 -0.0172004161 -0.659715959 0.751318175 0 0
2.168626 1.349305 1.471223 0.0248010466 -0.603425465 0.797033636 0 0
2.165434 1.346072 1.468658 -0.696134748 -0.0460022963 0.716435762 0 0
2.163355 1.341932 1.466397 -0.693310667 -0.04030062 0.71951107 0 0
2.16632 1.345545 1.468715 0.062900474 -0.541404079 0.838406318 0 0
2.164274 1.34147 1.46649 0.0966047154 -0.474123143 0.875142717 0 0
2.161561 1.33751 1.464446 -0.690818265 -0.0342009043 0.722219096 0 0
2.160069 1.33285 1.462824 -0.68881099 -0.027700442 0.724411558 0 0
2.162509 1.337118 1.46457 0.125704273 -0.402313675 0.906830824 0 0
2.16104 1.332532 1.462973 0.149900014 -0.326600031 0.933200089 0 0
2.158894 1.327995 1.461545 -0.687128152 -0.0211008645 0.726229754 0 0
2.158046 1.322995 1.460623 -0.686032392 -0.0141006658 0.727434347 0 0
2.159883 1.327754 1.461715 0.169013395 -0.247719633 0.953975605 0 0
2.159049 1.322833 1.460808 0.182808656 -0.166507884 0.968945881 0 0
2.157534 1.317895 1.460067 -0.685210162 -0.0071001053 0.728310801 0 0
2.157362 1.312746 1.45988 -0.685021493 0 0.728522858 0 0
2.158545 1.317814 1.46026 0.191195495 -0.0836980277 0.977976954 0 0
2.158376 1.312746 1.460076 0.194000291 0 0.981001472 0 0
2.157534 1.307597 1.460067 -0.685210162 0.0071001053 0.728310801 0 0
2.158046 1.302497 1.460623 -0.686032392 0.0141006658 0.727434347 0 0
2.158545 1.307678 1.46026 0.191195495 0.0836980277 0.977976954 0 0
2.159049 1.302659 1.460808 0.182808656 0.166507884 0.968945881 0 0
2.158894 1.297497 1.461545 -0.687128152 0.0211008645 0.726229754 0 0
2.160069 1.292642 1.462824 -0.68881099 0.027700442 0.724411558 0 0
2.159883 1.297738 1.461715 0.169110544 0.247715444 0.953959476 0 0
2.16104 1.29296 1.462973 0.149900014 0.326600031 0.933200089 0 0
2.161561 1.287982 1.464446 -0.690818265 0.0342009043 0.722219096 0 0
2.163355 1.28356 1.466397 -0.693365385 0.0401979932 0.719464082 0 0
2.162509 1.288374 1.464571 0.125802694 0.402308616 0.90681942 0 0
2.164274 1.284022 1.46649 0.0966047154 0.474123143 0.875142717 0 0
2.165434 1.27942 1.468658 -0.696183079 0.0460988796 0.716382589 0 0
2.167777 1.275599 1.471206 -0.699494481 0.0512995952 0.712794376 0 0
2.16632 1.279947 1.468715 0.062804268 0.541336788 0.838456979 0 0
2.168627 1.276187 1.471223 0.0248010466 0.603425465 0.797033636 0 0
2.170363 1.272138 1.474018 -0.702986921 0.0560989563 0.708986809 0 0
2.173166 1.269066 1.477066 -0.706923421 0.0602019945 0.704723348 0 0
2.171171 1.27278 1.473991 -0.0172004161 0.659715959 0.751318175 0 0
2.17393 1.269757 1.47699 -0.0627004173 0.709604722 0.701804671 0 0
2.176159 1.266416 1.480321 -0.710986815 0.0639988132 0.700287013 0 0
2.179313 1.264212 1.483751 -0.715402497 0.0669002335 0.695502427 0 0
2.176876 1.267149 1.480194 -0.111406243 0.752642175 0.648936364 0 0
2.17998 1.264979 1.48357 -0.162705525 0.788426771 0.593220143 0 0
2.182599 1.262475 1.487324 -0.719899737 0.0693999747 0.690599748 0 0
2.185984 1.261222 1.491005 -0.724596152 0.0710996225 0.68549636 0 0
2.183214 1.26327 1.487087 -0.216007496 0.816628337 0.535218572 0 0
2.186545 1.262037 1.490709 -0.27102063 0.836963708 0.475436189 0 0
2.189436 1.260466 1.494759 -0.729336679 0.0722036312 0.680334215 0 0
2.192921 1.260213 1.498549 -0.734230691 0.0724030265 0.675028217 0 0
2.189943 1.261293 1.494404 -0.327094724 0.849286301 0.414393316 0 0
2.193373 1.261044 1.498134 -0.383702861 0.853406362 0.35280263 0 0
2.196407 1.260466 1.502339 -0.739012608 0.0722012318 0.669811427 0 0
2.199858 1.261222 1.506093 -0.743716072 0.0710015344 0.664714365 0 0
2.196803 1.261293 1.501864 -0.44030616 0.849311882 0.291204074 0 0
2.2002 1.262037 1.505559 -0.496395024 0.836991609 0.230297691 0 0
2.203243 1.262475 1.509774 -0.748403338 0.0694003095 0.659602942 0 0
2.206529 1.264212 1.513347 -0.752907717 0.0670006868 0.654706711 0 0
2.203532 1.26327 1.509181 -0.5514144 0.816621326 0.170504453 0 0
2.206765 1.264979 1.512698 -0.604732384 0.788442222 0.112506025 0 0
2.209683 1.266416 1.516777 -0.757311625 0.0640009824 0.649909976 0 0
2.212677 1.269066 1.520032 -0.761439916 0.0602031559 0.645433835 0 0
2.20987 1.267149 1.516074 -0.656013891 0.752615937 0.0567012007 0 0
2.212816 1.269757 1.519278 -0.704646994 0.709547321 0.00390026012 0 0
2.215479 1.272138 1.52308 -0.765316252 0.0560011892 0.641213616 0 0
2.218065 1.275599 1.525892 -0.768817821 0.0512011869 0.637414775 0 0
2.215574 1.27278 1.522277 -0.750124957 0.659721949 -0.0456015172 0 0
2.218119 1.276187 1.525045 -0.792196796 0.603397559 -0.0912996307 0 0
2.220408 1.27942 1.52844 -0.772116659 0.0460009925 0.633813675 0 0
2.222487 1.28356 1.530701 -0.774902057 0.0402001067 0.630801675 0 0
2.220425 1.279947 1.527553 -0.830294574 0.541296463 -0.132699133 0 0
2.222471 1.284021 1.529778 -0.864015911 0.474108731 -0.16940312 0 0
2.224281 1.287982 1.532652 -0.777476719 0.0341989759 0.627981195 0 0
2.225773 1.292642 1.534275 -0.779494863 0.0276998175 0.625795876 0 0
2.224237 1.288374 1.531697 -0.893138357 0.402317278 -0.201108637 0 0
2.225705 1.29296 1.533295 -0.917378639 0.326592395 -0.227494703 0 0
2.226948 1.297496 1.535553 -0.781213417 0.0210003607 0.623910716 0 0
2.227797 1.302497 1.536475 -0.782320579 0.0141003709 0.622716381 0 0
2.226862 1.297738 1.534552 -0.936468767 0.247718191 -0.248318235 0 0
2.227697 1.302659 1.53546 -0.950249467 0.166408663 -0.263313707 0 0
2.228308 1.307597 1.537032 -0.783039537 0.00710035851 0.621931402 0 0
2.22848 1.312746 1.537218 -0.783272672 0 0.62167831 0 0
2.2282 1.307678 1.536008 -0.958567821 0.0836059153 -0.272319267 0 0
2.228369 1.312746 1.536192 -0.961353943 0 -0.275315448 0 0
2.228308 1.317895 1.537032 -0.783039537 -0.00710035851 0.621931402 0 0
2.227797 1.322994 1.536475 -0.782271862 -0.0140994929 0.622777599 0 0
2.2282 1.317814 1.536008 -0.958567917 -0.0836971987 -0.272290887 0 0
2.227697 1.322832 1.53546 -0.950284183 -0.16639723 -0.263195619 0 0
2.226949 1.327995 1.535553 -0.781213417 -0.0210003607 0.623910716 0 0
2.225774 1.332849 1.534275 -0.779494863 -0.0276998175 0.625795876 0 0
2.226862 1.327754 1.534553 -0.936481069 -0.247694993 -0.248294981 0 0
2.225705 1.332531 1.533295 -0.917408596 -0.326503059 -0.227502132 0 0
2.224281 1.33751 1.532652 -0.777525542 -0.0342011235 0.627920628 0 0
2.222487 1.341932 1.530701 -0.774987763 -0.0402993637 0.630690041 0 0
2.224237 1.337118 1.531698 -0.89312039 -0.402309185 -0.201204594 0 0
2.222471 1.34147 1.529778 -0.86400127 -0.474100697 -0.169500249 0 0
2.220408 1.346072 1.52844 -0.772116659 -0.0460009925 0.633813675 0 0
2.218065 1.349892 1.525892 -0.768817821 -0.0512011869 0.637414775 0 0
2.220425 1.345545 1.527553 -0.830207538 -0.541404916 -0.132801206 0 0
2.218119 1.349305 1.525045 -0.792196796 -0.603397559 -0.0912996307 0 0
2.21548 1.353354 1.52308 -0.765316252 -0.0560011892 0.641213616 0 0
2.212677 1.356426 1.520033 -0.761390768 -0.0601992701 0.645492173 0 0
2.215574 1.352712 1.522277 -0.750214746 -0.659612965 -0.0457008983 0 0
2.212816 1.355735 1.519278 -0.704597266 -0.709597247 0.00379998526 0 0
2.209684 1.359075 1.516778 -0.757311625 -0.0640009824 0.649909976 0 0
2.206529 1.36128 1.513347 -0.752907717 -0.0670006868 0.654706711 0 0
2.20987 1.358343 1.516074 -0.656017608 -0.752620201 0.0566015192 0 0
2.206766 1.360513 1.512698 -0.604802613 -0.788403406 0.112400486 0 0
2.203243 1.363016 1.509774 -0.748403338 -0.0694003095 0.659602942 0 0
2.199859 1.36427 1.506093 -0.743710788 -0.0711010313 0.664709642 0 0
2.203532 1.362222 1.509182 -0.551354198 -0.81668028 0.170416752 0 0
2.200201 1.363455 1.505559 -0.496395024 -0.836991609 0.230297691 0 0
2.196407 1.365026 1.502339 -0.738917712 -0.0722017307 0.669916058 0 0
2.196803 1.364199 1.501864 -0.44030616 -0.849311882 0.291204074 0 0
2.198139 1.363923 1.500599 -0.121199946 -0.992399558 -0.0212999905 0 0
2.201518 1.363183 1.504274 -0.186707875 -0.97804125 -0.0926039057 0 0
2.203324 1.363183 1.502613 -0.132097357 -0.98078038 -0.143597127 0 0
2.199945 1.363923 1.498938 -0.0662994318 -0.995191471 -0.0720993821 0 0
2.196533 1.364172 1.495228 0 -1 0 0 0
2.194727 1.364172 1.496889 -0.055099884 -0.997197901 0.0505998935 0 0
2.204832 1.361957 1.507877 -0.250987985 -0.954254321 -0.162492222 0 0
2.208048 1.360257 1.511375 -0.313301775 -0.921305219 -0.230301305 0 0
2.209854 1.360257 1.509714 -0.258996491 -0.923887481 -0.281696183 0 0
2.206638 1.361957 1.506216 -0.196506136 -0.956929881 -0.213706673 0 0
2.211136 1.358099 1.514733 -0.373221692 -0.879451115 -0.29541717 0 0
2.214066 1.355505 1.517919 -0.430103299 -0.829106359 -0.35720274 0 0
2.215872 1.355505 1.516259 -0.376076597 -0.831448261 -0.40897455 0 0
2.212942 1.358099 1.513072 -0.319102964 -0.881908193 -0.347003224 0 0
2.21681 1.352498 1.520903 -0.483295278 -0.770792469 -0.415095945 0 0
2.219341 1.349109 1.523655 -0.532324525 -0.705132486 -0.468421581 0 0
2.221147 1.349109 1.521995 -0.478607509 -0.707111095 -0.520508167 0 0
2.218616 1.352498 1.519242 -0.429399493 -0.772999088 -0.466999449 0 0
2.221635 1.34537 1.52615 -0.576810602 -0.632611628 -0.516809499 0 0
2.22367 1.341316 1.528363 -0.616298219 -0.553998399 -0.559698382 0 0
2.225476 1.341316 1.526702 -0.562805853 -0.555605778 -0.612006365 0 0
2.223441 1.34537 1.524489 -0.523209784 -0.634411864 -0.569010641 0 0
2.225426 1.336987 1.530272 -0.650351712 -0.470037374 -0.596747449 0 0
2.226887 1.332426 1.531861 -0.678643173 -0.381624278 -0.627539922 0 0
2.228693 1.332426 1.5302 -0.625362336 -0.382676952 -0.680059041 0 0
2.227232 1.336987 1.528612 -0.596973853 -0.471379354 -0.649171567 0 0
2.228037 1.327674 1.533112 -0.700950327 -0.28942078 -0.651846801 0 0
2.228868 1.322778 1.534015 -0.717090983 -0.194497554 -0.669291584 0 0
2.230673 1.322778 1.532354 -0.663911011 -0.195103236 -0.721911973 0 0
2.229843 1.327674 1.531451 -0.647768166 -0.290285734 -0.704365385 0 0
2.229368 1.317786 1.53456 -0.726782725 -0.0976976778 -0.679883839 0 0
2.229536 1.312746 1.534742 -0.730023522 0 -0.68342202 0 0
2.231342 1.312746 1.533082 -0.676887539 0 -0.736086449 0 0
2.231174 1.317786 1.532899 -0.673634622 -0.0980050371 -0.73253765 0 0
2.229368 1.307705 1.53456 -0.726782725 0.0976976778 -0.679883839 0 0
2.228868 1.302713 1.534015 -0.7170424 0.194511502 -0.669339579 0 0
2.230673 1.302713 1.532354 -0.663911011 0.195103236 -0.721911973 0 0
2.231174 1.307705 1.532899 -0.673585276 0.0979978578 -0.732583986 0 0
2.228037 1.297818 1.533112 -0.700930035 0.289512406 -0.651827931 0 0
2.226887 1.293066 1.531861 -0.678643173 0.381624278 -0.627539922 0 0
2.228693 1.293066 1.5302 -0.625362336 0.382676952 -0.680059041 0 0
2.229843 1.297818 1.531451 -0.647710124 0.290304537 -0.70441101 0 0
2.225426 1.288504 1.530272 -0.650321139 0.470115281 -0.596719397 0 0
2.22367 1.284175 1.528363 -0.616332713 0.554029406 -0.559629703 0 0
2.225476 1.284175 1.526702 -0.562805853 0.555605778 -0.612006365 0 0
2.227232 1.288504 1.528612 -0.596973853 0.471379354 -0.649171567 0 0
2.221635 1.280122 1.52615 -0.576840412 0.632644321 -0.516736201 0 0
2.219341 1.276383 1.523655 -0.532324525 0.705132486 -0.468421581 0 0
2.221147 1.276383 1.521995 -0.478607509 0.707111095 -0.520508167 0 0
2.22344 1.280122 1.524489 -0.523209784 0.634411864 -0.569010641 0 0
2.21681 1.272994 1.520902 -0.48323869 0.770861718 -0.415033229 0 0
2.214066 1.269987 1.517919 -0.430021792 0.829142018 -0.357218102 0 0
2.215872 1.269987 1.516258 -0.376076597 0.831448261 -0.40897455 0 0
2.218615 1.272994 1.519242 -0.429399493 0.772999088 -0.466999449 0 0
2.211136 1.267393 1.514732 -0.37318887 0.87947377 -0.29539119 0 0
2.208048 1.265235 1.511374 -0.313301775 0.921305219 -0.230301305 0 0
2.209854 1.265235 1.509714 -0.258996491 0.923887481 -0.281696183 0 0
2.212942 1.267393 1.513072 -0.319102964 0.881908193 -0.347003224 0 0
2.204832 1.263535 1.507877 -0.250992063 0.954269822 -0.162394864 0 0
2.201518 1.262308 1.504273 -0.186707875 0.97804125 -0.0926039057 0 0
2.203324 1.262308 1.502613 -0.132097357 0.98078038 -0.143597127 0 0
2.206637 1.263535 1.506216 -0.196506136 0.956929881 -0.213706673 0 0
2.198139 1.261569 1.500599 -0.121199946 0.992399558 -0.0212999905 0 0
2.194727 1.26132 1.496889 -0.055000187 0.99720339 0.050600172 0 0
2.196533 1.26132 1.495228 0 1 0 0 0
2.199945 1.261569 1.498938 -0.0662989535 0.995184291 -0.0721988603 0 0
2.191315 1.261569 1.493178 0.0111000709 0.992406341 0.122500783 0 0
2.187936 1.262308 1.489504 0.0766034472 0.978044013 0.193808722 0 0
2.189742 1.262308 1.487843 0.132097357 0.98078038 0.143597127 0 0
2.193121 1.261569 1.491518 0.0662989535 0.995184291 0.0721988603 0 0
2.184623 1.263535 1.4859 0.140907881 0.954253373 0.26371475 0 0
2.181406 1.265235 1.482402 0.20320242 0.921310973 0.331503948 0 0
2.183212 1.265235 1.480742 0.258996491 0.923887481 0.281696183 0 0
2.186429 1.263535 1.48424 0.196506136 0.956929881 0.213706673 0 0
2.178319 1.267393 1.479045 0.263118744 0.879462651 0.396628255 0 0
2.175388 1.269987 1.475858 0.319920255 0.829152495 0.458429024 0 0
2.177194 1.269987 1.474197 0.375990741 0.831479525 0.408989929 0 0
2.180124 1.267393 1.477384 0.319102964 0.881908193 0.347003224 0 0
2.172645 1.272994 1.472875 0.373118294 0.770837795 0.516325316 0 0
2.170113 1.276383 1.470122 0.422311094 0.705118524 0.569614964 0 0
2.171919 1.276383 1.468461 0.478607509 0.707111095 0.520508167 0 0
2.174451 1.272994 1.471214 0.429399493 0.772999088 0.466999449 0 0
2.167819 1.280122 1.467627 0.466719684 0.632626682 0.618026066 0 0
2.165784 1.284175 1.465414 0.506214364 0.55401572 0.660918754 0 0
2.16759 1.284175 1.463754 0.562805853 0.555605778 0.612006365 0 0
2.169626 1.280122 1.465967 0.523209784 0.634411864 0.569010641 0 0
2.164029 1.288504 1.463505 0.540233912 0.470129511 0.697943811 0 0
2.162568 1.293066 1.461916 0.568578974 0.381585889 0.72877305 0 0
2.164373 1.293066 1.460256 0.625404863 0.382702976 0.680005287 0 0
2.165834 1.288504 1.461844 0.596973853 0.471379354 0.649171567 0 0
2.161417 1.297818 1.460665 0.5909053 0.289502597 0.753006755 0 0
2.160587 1.302713 1.459762 0.607015327 0.194504911 0.770519456 0 0
2.162393 1.302713 1.458101 0.663911011 0.195103236 0.721911973 0 0
2.163223 1.297818 1.459004 0.647710124 0.290304537 0.70441101 0 0
2.160086 1.307705 1.459217 0.616705738 0.0977009091 0.781107268 0 0
2.159918 1.312746 1.459035 0.619939315 0 0.78464976 0 0
2.161724 1.312746 1.457374 0.676833352 0 0.736136274 0 0
2.161892 1.307705 1.457557 0.673585276 0.0979978578 0.732583986 0 0
2.160086 1.317786 1.459217 0.616705738 -0.0977009091 0.781107268 0 0
2.160587 1.322779 1.459762 0.607015327 -0.194504911 0.770519456 0 0
2.162393 1.322779 1.458101 0.663911011 -0.195103236 0.721911973 0 0
2.161892 1.317786 1.457557 0.673634622 -0.0980050371 0.73253765 0 0
2.161417 1.327674 1.460665 0.590922405 -0.289410973 0.753028552 0 0
2.162568 1.332426 1.461916 0.568578974 -0.381585889 0.72877305 0 0
2.164373 1.332426 1.460255 0.625404863 -0.382702976 0.680005287 0 0
2.163223 1.327674 1.459004 0.647768166 -0.290285734 0.704365385 0 0
2.164028 1.336987 1.463505 0.540196205 -0.470096698 0.697995097 0 0
2.165784 1.341316 1.465414 0.506139982 -0.554043766 0.660952211 0 0
2.16759 1.341316 1.463753 0.562805853 -0.555605778 0.612006365 0 0
2.165834 1.336987 1.461844 0.596973853 -0.471379354 0.649171567 0 0
2.167819 1.34537 1.467627 0.466719684 -0.632626682 0.618026066 0 0
2.170113 1.349109 1.470122 0.422228922 -0.705148301 0.569639019 0 0
2.171919 1.349109 1.468461 0.478607509 -0.707111095 0.520508167 0 0
2.169625 1.34537 1.465967 0.523209784 -0.634411864 0.569010641 0 0
2.172645 1.352498 1.472875 0.373118294 -0.770837795 0.516325316 0 0
2.175388 1.355505 1.475858 0.320010021 -0.829125965 0.458414355 0 0
2.177194 1.355505 1.474197 0.375990741 -0.831479525 0.408989929 0 0
2.17445 1.352498 1.471214 0.429399493 -0.772999088 0.466999449 0 0
2.178318 1.358099 1.479044 0.263118744 -0.879462651 0.396628255 0 0
2.181406 1.360257 1.482402 0.203298289 -0.921292247 0.33149721 0 0
2.183212 1.360257 1.480742 0.258996491 -0.923887481 0.281696183 0 0
2.180124 1.358099 1.477384 0.319102964 -0.881908193 0.347003224 0 0
2.184623 1.361957 1.4859 0.140894435 -0.954262312 0.263689586 0 0
2.187936 1.363183 1.489504 0.0766034472 -0.978044013 0.193808722 0 0
2.189742 1.363183 1.487843 0.131999102 -0.980793331 0.143599024 0 0
2.186429 1.361957 1.48424 0.196506136 -0.956929881 0.213706673 0 0
2.191315 1.363923 1.493178 0.0110999349 -0.99239418 0.122599281 0 0
2.193121 1.363923 1.491518 0.0662989535 -0.995184291 0.0721988603 0 0
3 0 1 2
3 0 3 1
3 0 4 3
3 0 5 4
3 0 6 5
3 0 7 6
3 0 8 7
3 0 2 8
3 9 6 7
3 9 10 6
3 9 11 10
3 9 12 11
3 9 13 12
3 9 14 13
3 9 8 14
3 9 7 8
3 15 11 12
3 15 16 11
3 15 17 16
3 15 18 17
3 15 19 18
3 15 20 19
3 15 13 20
3 15 12 13
3 21 17 18
3 21 22 17
3 21 23 22
3 21 24 23
3 21 25 24
3 21 26 25
3 21 19 26
3 21 18 19
3 27 23 24
3 27 28 23
3 27 29 28
3 27 30 29
3 27 31 30
3 27 32 31
3 27 25 32
3 27 24 25
3 33 29 30
3 33 34 29
3 33 35 34
3 33 36 35
3 33 37 36
3 33 38 37
3 33 31 38
3 33 30 31
3 39 35 36
3 39 40 35
3 39 41 40
3 39 42 41
3 39 43 42
3 39 44 43
3 39 37 44
3 39 36 37
3 45 41 42
3 45 46 41
3 45 47 46
3 45 48 47
3 45 49 48
3 45 50 49
3 45 43 50
3 45 42 43
3 51 47 48
3 51 52 47
3 51 53 52
3 51 54 53
3 51 55 54
3 51 56 55
3 51 49 56
3 51 48 49
3 57 53 54
3 57 58 53
3 57 59 58
3 57 60 59
3 57 61 60
3 57 62 61
3 57 55 62
3 57 54 55
3 63 59 60
3 63 64 59
3 63 65 64
3 63 66 65
3 63 67 66
3 63 68 67
3 63 61 68
3 63 60 61
3 69 65 66
3 69 70 65
3 69 71 70
3 69 72 71
3 69 73 72
3 69 74 73
3 69 67 74
3 69 66 67
3 75 71 72
3 75 76 71
3 75 77 76
3 75 78 77
3 75 79 78
3 75 80 79
3 75 73 80
3 75 72 73
3 81 77 78
3 81 82 77
3 81 83 82
3 81 84 83
3 81 85 84
3 81 86 85
3 81 79 86
3 81 78 79
3 87 83 84
3 87 88 83
3 87 89 88
3 87 90 89
3 87 91 90
3 87 92 91
3 87 85 92
3 87 84 85
3 93 89 90
3 93 94 89
3 93 95 94
3 93 96 95
3 93 97 96
3 93 98 97
3 93 91 98
3 93 90 91
3 99 95 96
3 99 100 95
3 99 101 100
3 99 102 101
3 99 103 102
3 99 104 103
3 99 97 104
3 99 96 97
3 105 101 102
3 105 106 101
3 105 107 106
3 105 108 107
3 105 109 108
3 105 110 109
3 105 103 110
3 105 102 103
3 111 107 108
3 111 112 107
3 111 113 112
3 111 114 113
3 111 115 114
3 111 116 115
3 111 109 116
3 111 108 109
3 117 113 114
3 117 118 113
3 117 119 118
3 117 120 119
3 117 121 120
3 117 122 121
3 117 115 122
3 117 114 115
3 123 119 120
3 123 124 119
3 123 125 124
3 123 126 125
3 123 127 126
3 123 128 127
3 123 121 128
3 123 120 121
3 129 125 126
3 129 130 125
3 129 131 130
3 129 132 131
3 129 133 132
3 129 134 133
3 129 127 134
3 129 126 127
3 135 131 132
3 135 136 131
3 135 137 136
3 135 138 137
3 135 139 138
3 135 140 139
3 135 133 140
3 135 132 133
3 141 137 138
3 141 142 137
3 141 143 142
3 141 144 143
3 141 145 144
3 141 146 145
3 141 139 146
3 141 138 139
3 147 143 144
3 147 148 143
3 147 149 148
3 147 150 149
3 147 151 150
3 147 152 151
3 147 145 152
3 147 144 145
3 153 149 150
3 153 154 149
3 153 155 154
3 153 156 155
3 153 157 156
3 153 158 157
3 153 151 158
3 153 150 151
3 159 155 156
3 159 160 155
3 159 161 160
3 159 162 161
3 159 163 162
3 159 164 163
3 159 157 164
3 159 156 157
3 165 161 162
3 165 166 161
3 165 167 166
3 165 168 167
3 165 169 168
3 165 170 169
3 165 163 170
3 165 162 163
3 171 167 168
3 171 172 167
3 171 173 172
3 171 174 173
3 171 175 174
3 171 176 175
3 171 169 176
3 171 168 169
3 177 173 174
3 177 178 173
3 177 179 178
3 177 180 179
3 177 181 180
3 177 182 181
3 177 175 182
3 177 174 175
3 183 179 180
3 183 184 179
3 183 185 184
3 183 186 185
3 183 187 186
3 183 188 187
3 183 181 188
3 183 180 181
3 189 185 186
3 189 190 185
3 189 4 190
3 189 3 4
3 189 1 3
3 189 191 1
3 189 187 191
3 189 186 187
3 192 187 193
3 192 191 187
3 192 1 191
3 192 194 1
3 192 195 194
3 192 196 195
3 192 197 196
3 192 193 197
3 198 181 199
3 198 188 181
3 198 187 188
3 198 193 187
3 198 197 193
3 198 200 197
3 198 201 200
3 198 199 201
3 202 175 203
3 202 182 175
3 202 181 182
3 202 199 181
3 202 201 199
3 202 204 201
3 202 205 204
3 202 203 205
3 206 169 207
3 206 176 169
3 206 175 176
3 206 203 175
3 206 205 203
3 206 208 205
3 206 209 208
3 206 207 209
3 210 163 211
3 210 170 163
3 210 169 170
3 210 207 169
3 210 209 207
3 210 212 209
3 210 213 212
3 210 211 213
3 214 157 215
3 214 164 157
3 214 163 164
3 214 211 163
3 214 213 211
3 214 216 213
3 214 217 216
3 214 215 217
3 218 151 219
3 218 158 151
3 218 157 158
3 218 215 157
3 218 217 215
3 218 220 217
3 218 221 220
3 218 219 221
3 222 145 223
3 222 152 145
3 222 151 152
3 222 219 151
3 222 221 219
3 222 224 221
3 222 225 224
3 222 223 225
3 226 139 227
3 226 146 139
3 226 145 146
3 226 223 145
3 226 225 223
3 226 228 225
3 226 229 228
3 226 227 229
3 230 133 231
3 230 140 133
3 230 139 140
3 230 227 139
3 230 229 227
3 230 232 229
3 230 233 232
3 230 231 233
3 234 127 235
3 234 134 127
3 234 133 134
3 234 231 133
3 234 233 231
3 234 236 233
3 234 237 236
3 234 235 237
3 238 121 239
3 238 128 121
3 238 127 128
3 238 235 127
3 238 237 235
3 238 240 237
3 238 241 240
3 238 239 241
3 242 115 243
3 242 122 115
3 242 121 122
3 242 239 121
3 242 241 239
3 242 244 241
3 242 245 244
3 242 243 245
3 246 109 247
3 246 116 109
3 246 115 116
3 246 243 115
3 246 245 243
3 246 248 245
3 246 249 248
3 246 247 249
3 250 103 251
3 250 110 103
3 250 109 110
3 250 247 109
3 250 249 247
3 250 252 249
3 250 253 252
3 250 251 253
3 254 97 255
3 254 104 97
3 254 103 104
3 254 251 103
3 254 253 251
3 254 256 253
3 254 257 256
3 254 255 257
3 258 91 259
3 258 98 91
3 258 97 98
3 258 255 97
3 258 257 255
3 258 260 257
3 258 261 260
3 258 259 261
3 262 85 263
3 262 92 85
3 262 91 92
3 262 259 91
3 262 261 259
3 262 264 261
3 262 265 264
3 262 263 265
3 266 79 267
3 266 86 79
3 266 85 86
3 266 263 85
3 266 265 263
3 266 268 265
3 266 269 268
3 266 267 269
3 270 73 271
3 270 80 73
3 270 79 80
3 270 267 79
3 270 269 267
3 270 272 269
3 270 273 272
3 270 271 273
3 274 67 275
3 274 74 67
3 274 73 74
3 274 271 73
3 274 273 271
3 274 276 273
3 274 277 276
3 274 275 277
3 278 61 279
3 278 68 61
3 278 67 68
3 278 275 67
3 278 277 275
3 278 280 277
3 278 281 280
3 278 279 281
3 282 55 283
3 282 62 55
3 282 61 62
3 282 279 61
3 282 281 279
3 282 284 281
3 282 285 284
3 282 283 285
3 286 49 287
3 286 56 49
3 286 55 56
3 286 283 55
3 286 285 283
3 286 288 285
3 286 289 288
3 286 287 289
3 290 43 291
3 290 50 43
3 290 49 50
3 290 287 49
3 290 289 287
3 290 292 289
3 290 293 292
3 290 291 293
3 294 37 295
3 294 44 37
3 294 43 44
3 294 291 43
3 294 293 291
3 294 296 293
3 294 297 296
3 294 295 297
3 298 31 299
3 298 38 31
3 298 37 38
3 298 295 37
3 298 297 295
3 298 300 297
3 298 301 300
3 298 299 301
3 302 25 303
3 302 32 25
3 302 31 32
3 302 299 31
3 302 301 299
3 302 304 301
3 302 305 304
3 302 303 305
3 306 19 307
3 306 26 19
3 306 25 26
3 306 303 25
3 306 305 303
3 306 308 305
3 306 309 308
3 306 307 309
3 310 13 311
3 310 20 13
3 310 19 20
3 310 307 19
3 310 309 307
3 310 312 309
3 310 313 312
3 310 311 313
3 314 8 315
3 314 14 8
3 314 13 14
3 314 311 13
3 314 313 311
3 314 316 313
3 314 317 316
3 314 315 317
3 318 8 2
3 318 315 8
3 318 317 315
3 318 319 317
3 318 195 319
3 318 194 195
3 318 1 194
3 318 2 1
3 320 317 319
3 320 321 317
3 320 322 321
3 320 323 322
3 320 324 323
3 320 325 324
3 320 195 325
3 320 319 195
3 326 317 321
3 326 316 317
3 326 313 316
3 326 327 313
3 326 328 327
3 326 329 328
3 326 322 329
3 326 321 322
3 330 313 327
3 330 312 313
3 330 309 312
3 330 331 309
3 330 332 331
3 330 333 332
3 330 328 333
3 330 327 328
3 334 309 331
3 334 308 309
3 334 305 308
3 334 335 305
3 334 336 335
3 334 337 336
3 334 332 337
3 334 331 332
3 338 305 335
3 338 304 305
3 338 301 304
3 338 339 301
3 338 340 339
3 338 341 340
3 338 336 341
3 338 335 336
3 342 301 339
3 342 300 301
3 342 297 300
3 342 343 297
3 342 344 343
3 342 345 344
3 342 340 345
3 342 339 340
3 346 297 343
3 346 296 297
3 346 293 296
3 346 347 293
3 346 348 347
3 346 349 348
3 346 344 349
3 346 343 344
3 350 293 347
3 350 292 293
3 350 289 292
3 350 351 289
3 350 352 351
3 350 353 352
3 350 348 353
3 350 347 348
3 354 289 351
3 354 288 289
3 354 285 288
3 354 355 285
3 354 356 355
3 354 357 356
3 354 352 357
3 354 351 352
3 358 285 355
3 358 284 285
3 358 281 284
3 358 359 281
3 358 360 359
3 358 361 360
3 358 356 361
3 358 355 356
3 362 281 359
3 362 280 281
3 362 277 280
3 362 363 277
3 362 364 363
3 362 365 364
3 362 360 365
3 362 359 360
3 366 277 363
3 366 276 277
3 366 273 276
3 366 367 273
3 366 368 367
3 366 369 368
3 366 364 369
3 366 363 364
3 370 273 367
3 370 272 273
3 370 269 272
3 370 371 269
3 370 372 371
3 370 373 372
3 370 368 373
3 370 367 368
3 374 269 371
3 374 268 269
3 374 265 268
3 374 375 265
3 374 376 375
3 374 377 376
3 374 372 377
3 374 371 372
3 378 265 375
3 378 264 265
3 378 261 264
3 378 379 261
3 378 380 379
3 378 381 380
3 378 376 381
3 378 375 376
3 382 261 379
3 382 260 261
3 382 257 260
3 382 383 257
3 382 384 383
3 382 385 384
3 382 380 385
3 382 379 380
3 386 257 383
3 386 256 257
3 386 253 256
3 386 387 253
3 386 388 387
3 386 389 388
3 386 384 389
3 386 383 384
3 390 253 387
3 390 252 253
3 390 249 252
3 390 391 249
3 390 392 391
3 390 393 392
3 390 388 393
3 390 387 388
3 394 249 391
3 394 248 249
3 394 245 248
3 394 395 245
3 394 396 395
3 394 397 396
3 394 392 397
3 394 391 392
3 398 245 395
3 398 244 245
3 398 241 244
3 398 399 241
3 398 400 399
3 398 401 400
3 398 396 401
3 398 395 396
3 402 241 399
3 402 240 241
3 402 237 240
3 402 403 237
3 402 404 403
3 402 405 404
3 402 400 405
3 402 399 400
3 406 237 403
3 406 236 237
3 406 233 236
3 406 407 233
3 406 408 407
3 406 409 408
3 406 404 409
3 406 403 404
3 410 233 407
3 410 232 233
3 410 229 232
3 410 411 229
3 410 412 411
3 410 413 412
3 410 408 413
3 410 407 408
3 414 229 411
3 414 228 229
3 414 225 228
3 414 415 225
3 414 416 415
3 414 417 416
3 414 412 417
3 414 411 412
3 418 225 415
3 418 224 225
3 418 221 224
3 418 419 221
3 418 420 419
3 418 421 420
3 418 416 421
3 418 415 416
3 422 221 419
3 422 220 221
3 422 217 220
3 422 423 217
3 422 424 423
3 422 425 424
3 422 420 425
3 422 419 420
3 426 217 423
3 426 216 217
3 426 213 216
3 426 427 213
3 426 428 427
3 426 429 428
3 426 424 429
3 426 423 424
3 430 213 427
3 430 212 213
3 430 209 212
3 430 431 209
3 430 432 431
3 430 433 432
3 430 428 433
3 430 427 428
3 434 209 431
3 434 208 209
3 434 205 208
3 434 435 205
3 434 436 435
3 434 437 436
3 434 432 437
3 434 431 432
3 438 205 435
3 438 204 205
3 438 201 204
3 438 439 201
3 438 440 439
3 438 441 440
3 438 436 441
3 438 435 436
3 442 201 439
3 442 200 201
3 442 197 200
3 442 443 197
3 442 444 443
3 442 445 444
3 442 440 445
3 442 439 440
3 446 197 443
3 446 196 197
3 446 195 196
3 446 325 195
3 446 324 325
3 446 447 324
3 446 444 447
3 446 443 444
