ply
format ascii 1.0
element vertex 513
property float x
property float y
property float z
property float nx
property float ny
property float nz
property float u
property float v
element face 960
property list uchar int vertex_indices
end_header
2.163279 1.317703 1.460291 -0.875629474 0.0234007877 0.482416238 0 0
2.160997 1.323534 1.455596 -0.878586971 0.0486992778 0.475092954 0 0
2.16047 1.318273 1.455022 -0.880992291 0.0244997856 0.472495866 0 0
2.163751 1.322401 1.460803 -0.873320759 0.0466011077 0.484911526 0 0
2.166711 1.321228 1.466093 -0.857430932 0.0403014539 0.513018507 0 0
2.166298 1.317114 1.465644 -0.859444224 0.0203010446 0.510826285 0 0
2.166159 1.31296 1.465494 -0.860111173 0 0.510106626 0 0
2.163121 1.31296 1.460119 -0.876393199 0 0.481596263 0 0
2.160292 1.31296 1.45483 -0.881809788 0 0.471605235 0 0
2.169734 1.316485 1.471167 -0.838087684 0.0162997605 0.545291987 0 0
2.173456 1.31296 1.476702 -0.81780119 0 0.575500837 0 0
2.173552 1.315821 1.476805 -0.81741332 0.0128002086 0.575909385 0 0
2.169616 1.31296 1.471039 -0.838621783 0 0.544714149 0 0
2.170084 1.319975 1.471548 -0.836425252 0.0325009812 0.547116518 0 0
2.173836 1.318655 1.477114 -0.816126692 0.0253008275 0.577318882 0 0
2.177717 1.31513 1.482505 -0.798038941 0.00960046847 0.602529401 0 0
2.181936 1.31296 1.487925 -0.778384666 0 0.627787633 0 0
2.181782 1.31448 1.487743 -0.780246001 0.00670039503 0.625436874 0 0
2.177644 1.31296 1.482427 -0.798497505 0 0.601998119 0 0
2.177932 1.31728 1.48274 -0.797207813 0.0190001862 0.603405913 0 0
2.182134 1.315924 1.488139 -0.777567261 0.0125994695 0.62867353 0 0
2.1853 1.313937 1.491992 -0.766011873 0.0046000713 0.642809964 0 0
2.191806 1.31296 1.499488 -0.736086449 0 0.676887539 0 0
2.1862 1.314661 1.493028 -0.757734936 0.0065002997 0.652530086 0 0
2.186086 1.31296 1.492905 -0.758210903 0 0.652009376 0 0
2.185558 1.315854 1.492273 -0.764817033 0.0131002917 0.644114345 0 0
2.186536 1.316296 1.493393 -0.756442566 0.0127007147 0.653936798 0 0
2.182183 1.317461 1.488179 -0.778517272 0.0197004371 0.627313917 0 0
2.182719 1.318774 1.488776 -0.775036428 0.0248011657 0.631429678 0 0
2.17829 1.319388 1.483129 -0.795498576 0.0281999495 0.605298917 0 0
2.174307 1.321434 1.477627 -0.814018947 0.0377008775 0.579613491 0 0
2.17496 1.324132 1.478337 -0.811096293 0.0496997729 0.582797337 0 0
2.178785 1.321434 1.483667 -0.79343029 0.0372014202 0.607523193 0 0
2.170664 1.323399 1.472179 -0.833742418 0.0484024625 0.550027983 0 0
2.167395 1.325263 1.466837 -0.85411607 0.0600011289 0.51660972 0 0
2.168343 1.329179 1.467868 -0.849466893 0.0790969173 0.521679668 0 0
2.171469 1.326722 1.473054 -0.830047131 0.0638036229 0.554031459 0 0
2.164532 1.327008 1.461653 -0.869453186 0.0693042395 0.489129921 0 0
2.161873 1.328694 1.456548 -0.87453203 0.0725026555 0.479517563 0 0
2.163085 1.333703 1.457867 -0.868928705 0.0956031582 0.485616043 0 0
2.165615 1.33148 1.462831 -0.864130025 0.0913031724 0.494917196 0 0
2.16699 1.335773 1.464326 -0.857332223 0.112504229 0.50231888 0 0
2.169547 1.332939 1.469178 -0.843628802 0.0974033254 0.528018027 0 0
2.164625 1.338511 1.459541 -0.861869926 0.117695893 0.493282787 0 0
2.166476 1.343074 1.461554 -0.853302948 0.13880048 0.502601736 0 0
2.168642 1.339847 1.466123 -0.849151371 0.132608022 0.511230928 0 0
2.170994 1.336507 1.470751 -0.836547777 0.114806557 0.535730596 0 0
2.17249 1.329912 1.474165 -0.825305373 0.078500511 0.55920364 0 0
2.17579 1.326722 1.479239 -0.807410319 0.0612007822 0.586807499 0 0
2.173718 1.332939 1.4755 -0.819601606 0.0926001815 0.565401108 0 0
2.176786 1.329179 1.480323 -0.802995021 0.0721995524 0.591596332 0 0
2.179415 1.323399 1.484352 -0.790608554 0.0458004956 0.610606607 0 0
2.182971 1.320269 1.489035 -0.775022236 0.032100921 0.631118107 0 0
2.180171 1.325263 1.485174 -0.787344522 0.0541030593 0.614134727 0 0
2.183669 1.321401 1.489809 -0.771008234 0.0360003845 0.63580679 0 0
2.186064 1.317659 1.492824 -0.762515228 0.0215004294 0.646612913 0 0
2.187081 1.317803 1.493986 -0.754428243 0.0184006888 0.656124562 0 0
2.186799 1.319285 1.493623 -0.7591159 0.0289006053 0.650313621 0 0
2.187815 1.319124 1.494784 -0.751556692 0.0235017728 0.659249729 0 0
2.184114 1.322797 1.490278 -0.769990067 0.0431994427 0.636591788 0 0
2.184948 1.323703 1.4912 -0.765592386 0.0457995445 0.641693618 0 0
2.181047 1.327008 1.486127 -0.783427938 0.0616021968 0.618422053 0 0
2.177942 1.33148 1.48158 -0.79783094 0.0824031957 0.597223161 0 0
2.179244 1.333603 1.482996 -0.792030945 0.0919035907 0.60352358 0 0
2.182035 1.328619 1.487201 -0.779194125 0.0687994813 0.622995303 0 0
2.175142 1.335773 1.477048 -0.81299502 0.105699353 0.572596493 0 0
2.172672 1.339847 1.472575 -0.828359122 0.131109358 0.544638872 0 0
2.174562 1.342929 1.474631 -0.819148982 0.146208743 0.554633165 0 0
2.176745 1.338388 1.478792 -0.805614276 0.117802087 0.580610289 0 0
2.170557 1.343661 1.468205 -0.839752062 0.151409387 0.521432327 0 0
2.168621 1.347346 1.463887 -0.843432599 0.158506126 0.51331984 0 0
2.171039 1.351288 1.466516 -0.832274574 0.176594605 0.525483947 0 0
2.172716 1.347181 1.470553 -0.829104456 0.168800907 0.533002865 0 0
2.175098 1.35037 1.473143 -0.817333846 0.184507641 0.545822603 0 0
2.176648 1.345722 1.4769 -0.808986437 0.159797321 0.565690516 0 0
2.173707 1.35486 1.469417 -0.82000285 0.193100671 0.538801872 0 0
2.176599 1.358029 1.472562 -0.806698572 0.207599633 0.553299021 0 0
2.17768 1.353199 1.475951 -0.804625921 0.198506395 0.559618028 0 0
2.178909 1.3482 1.479359 -0.797927405 0.171905904 0.577719842 0 0
2.178516 1.340758 1.480717 -0.797374341 0.128795855 0.589581028 0 0
2.180681 1.335527 1.484558 -0.785664553 0.10040825 0.610450157 0 0
2.180434 1.342861 1.482804 -0.788468931 0.138612118 0.599252389 0 0
2.182238 1.337234 1.486252 -0.778714916 0.108002069 0.618011838 0 0
2.183125 1.330078 1.488387 -0.774328504 0.0750027609 0.628323129 0 0
2.185569 1.324946 1.491861 -0.763621393 0.0526014737 0.643518028 0 0
2.184306 1.331373 1.489671 -0.769183593 0.0808982745 0.633886479 0 0
2.186507 1.325592 1.492895 -0.758935811 0.0539025435 0.648930621 0 0
2.187735 1.320667 1.49464 -0.754897335 0.0351998757 0.654897688 0 0
2.188709 1.320208 1.495757 -0.748155448 0.0276020457 0.662949133 0 0
2.188835 1.321752 1.495836 -0.749914196 0.040200761 0.6603125 0 0
2.189729 1.321014 1.496866 -0.74431958 0.0307008076 0.667117549 0 0
2.187279 1.326635 1.493721 -0.756095422 0.0600996361 0.651696054 0 0
2.188284 1.326996 1.494828 -0.751318205 0.0599014514 0.657215925 0 0
2.185568 1.33249 1.491043 -0.763595296 0.0855994727 0.639996058 0 0
2.183902 1.338706 1.488061 -0.771333612 0.114604994 0.62602728 0 0
2.185655 1.339932 1.489967 -0.763529587 0.12000465 0.634524588 0 0
2.186898 1.333419 1.492489 -0.757782367 0.0898979081 0.646284961 0 0
2.182483 1.344675 1.485032 -0.778987236 0.146897593 0.609590012 0 0
2.181324 1.350338 1.481985 -0.786148448 0.182311235 0.590536393 0 0
2.183869 1.352117 1.484753 -0.773735326 0.191008721 0.604027578 0 0
2.184643 1.346184 1.48738 -0.768921738 0.154004354 0.620517542 0 0
2.180438 1.355641 1.47895 -0.791029027 0.210507725 0.574421079 0 0
2.179687 1.360763 1.475921 -0.792451749 0.220286587 0.568765369 0 0
2.182942 1.363038 1.47946 -0.777454559 0.230786511 0.585065804 0 0
2.183343 1.357672 1.48211 -0.776649738 0.220614129 0.590037787 0 0
2.18637 1.359271 1.485402 -0.761700446 0.228500134 0.606300355 0 0
2.18652 1.353518 1.487635 -0.76080415 0.197801079 0.618103372 0 0
2.186332 1.364829 1.483147 -0.761805847 0.239001834 0.602104621 0 0
2.189824 1.366122 1.486945 -0.745763529 0.244888024 0.619569701 0 0
2.189489 1.360426 1.488793 -0.746338997 0.234112233 0.623032554 0 0
2.189251 1.354529 1.490605 -0.747490171 0.202697335 0.632591681 0 0
2.186892 1.347372 1.489826 -0.75852513 0.159505284 0.631820933 0 0
2.187481 1.340896 1.491953 -0.75538368 0.124297315 0.6433861 0 0
2.189209 1.34823 1.492346 -0.74778903 0.163497602 0.64349056 0 0
2.189362 1.341593 1.493999 -0.74700149 0.127400254 0.652501302 0 0
2.188283 1.334151 1.493996 -0.751714392 0.0929017786 0.6529125 0 0
2.18918 1.327798 1.495788 -0.747713844 0.0652012072 0.660812235 0 0
2.189709 1.334679 1.495547 -0.745427429 0.0954035104 0.659724275 0 0
2.190214 1.327861 1.496926 -0.743080569 0.0634983395 0.66618258 0 0
2.190057 1.3225 1.497165 -0.744310268 0.0436006015 0.666409193 0 0
2.190836 1.32151 1.49807 -0.740103086 0.0326001359 0.671702801 0 0
2.191354 1.322882 1.498576 -0.738419757 0.0453012121 0.672818001 0 0
2.191987 1.321677 1.499322 -0.735696697 0.0331998509 0.676496963 0 0
2.191198 1.328391 1.497983 -0.738897706 0.0677997895 0.670397918 0 0
2.19222 1.328153 1.499108 -0.734503841 0.0648003389 0.675503533 0 0
2.191165 1.334998 1.49713 -0.739021635 0.0966028281 0.666719518 0 0
2.19128 1.342013 1.496085 -0.738425 0.129304378 0.661822406 0 0
2.193217 1.342154 1.498191 -0.729852091 0.129909272 0.671147902 0 0
2.192634 1.335105 1.498727 -0.732634065 0.0973045243 0.673631321 0 0
2.191572 1.348748 1.494915 -0.736819817 0.165904462 0.655417628 0 0
2.192036 1.355138 1.493634 -0.733929729 0.205708332 0.64732622 0 0
2.194848 1.355343 1.496691 -0.720180476 0.206694397 0.662282046 0 0
2.193958 1.348921 1.49751 -0.725800983 0.166700226 0.667400904 0 0
2.192669 1.361122 1.492251 -0.730615296 0.237604974 0.640113401 0 0
2.193386 1.366902 1.490818 -0.729333003 0.248511245 0.637428844 0 0
2.196982 1.367164 1.494729 -0.712806027 0.249702111 0.655405541 0 0
2.19588 1.361356 1.495743 -0.714814289 0.238704772 0.65731314 0 0
2.19909 1.361122 1.499234 -0.698947104 0.237616013 0.674545459 0 0
2.19766 1.355138 1.499749 -0.706430628 0.205708919 0.677229362 0 0
2.200578 1.366902 1.498639 -0.696182965 0.248493919 0.67348352 0 0
2.20414 1.366122 1.502513 -0.679800088 0.244900032 0.69130009 0 0
2.202271 1.360426 1.502692 -0.683295811 0.234098565 0.691595761 0 0
2.200445 1.354529 1.502778 -0.692912521 0.202803665 0.691912503 0 0
2.196344 1.348748 1.500105 -0.714734573 0.165908025 0.679432865 0 0
2.195154 1.342013 1.500297 -0.7212259 0.129304643 0.680524438 0 0
2.198707 1.34823 1.502674 -0.703813239 0.163503076 0.691313004 0 0
2.197072 1.341593 1.502383 -0.712701393 0.127400249 0.689801349 0 0
2.194103 1.334998 1.500325 -0.726181668 0.0965975614 0.680682816 0 0
2.193256 1.328391 1.50022 -0.729891646 0.067799224 0.680192215 0 0
2.195558 1.334679 1.501907 -0.719749301 0.0954065351 0.687647102 0 0
2.194226 1.327861 1.50129 -0.726028192 0.0635024658 0.684726588 0 0
2.192677 1.322882 1.500015 -0.732283634 0.0453989853 0.679484814 0 0
2.193139 1.32151 1.500574 -0.731288248 0.0325994761 0.681289052 0 0
2.193975 1.3225 1.501426 -0.726346684 0.0436028024 0.685944087 0 0
2.194246 1.321014 1.501778 -0.727025337 0.03070107 0.685923905 0 0
2.195274 1.327798 1.502415 -0.720980516 0.065198238 0.689881356 0 0
2.196156 1.326996 1.503388 -0.717735532 0.0599029656 0.693734344 0 0
2.196985 1.334151 1.503459 -0.713534243 0.0929044586 0.694433327 0 0
2.198953 1.340896 1.504429 -0.704317541 0.124303096 0.698917407 0 0
2.200779 1.339932 1.506415 -0.69622307 0.120003976 0.707723451 0 0
2.19837 1.333419 1.504965 -0.707386567 0.0898982928 0.701086686 0 0
2.201024 1.347372 1.505194 -0.693035259 0.159508115 0.703035768 0 0
2.203176 1.353518 1.505748 -0.67960613 0.197801784 0.706406372 0 0
2.205827 1.352117 1.50863 -0.666614396 0.191004125 0.72051556 0 0
2.203273 1.346184 1.50764 -0.68263985 0.154008991 0.714341701 0 0
2.205389 1.359271 1.506084 -0.667918081 0.228406183 0.708319174 0 0
2.207633 1.364829 1.506311 -0.663694647 0.238998072 0.708794284 0 0
2.211023 1.363038 1.509997 -0.648086475 0.230695185 0.725784853 0 0
2.208416 1.357672 1.509375 -0.652951252 0.220617317 0.724556873 0 0
2.211322 1.355641 1.512535 -0.638642082 0.210513871 0.74014877 0 0
2.208371 1.350338 1.511398 -0.654210817 0.182303014 0.734012137 0 0
2.214278 1.360763 1.513537 -0.633094916 0.220198232 0.742094041 0 0
2.217366 1.358029 1.516895 -0.618858457 0.207686059 0.757549147 0 0
2.214079 1.353199 1.515534 -0.625030859 0.198509801 0.754937272 0 0
2.210786 1.3482 1.514024 -0.642420041 0.171905363 0.746823297 0 0
2.205432 1.344675 1.509988 -0.672628655 0.147006263 0.725230895 0 0
2.202532 1.338706 1.508321 -0.688410271 0.11460171 0.716210686 0 0
2.207481 1.342861 1.512216 -0.663093724 0.138598688 0.735593038 0 0
2.204196 1.337234 1.51013 -0.680987916 0.107998084 0.724287148 0 0
2.1997 1.33249 1.506411 -0.701605374 0.0856006557 0.707405419 0 0
2.197175 1.326635 1.504482 -0.712645618 0.0601038474 0.698944741 0 0
2.200962 1.331373 1.507784 -0.696034674 0.0809040303 0.713435541 0 0
2.197933 1.325592 1.505321 -0.71021674 0.0539012705 0.701916544 0 0
2.195197 1.321752 1.502755 -0.720788222 0.0401993431 0.691988693 0 0
2.195266 1.320208 1.502887 -0.723193488 0.0275997515 0.690093786 0 0
2.196297 1.320667 1.503951 -0.71580879 0.0352004323 0.697408564 0 0
2.19616 1.319124 1.503859 -0.71979182 0.0234997329 0.693792115 0 0
2.198885 1.324946 1.506342 -0.705127084 0.0526020205 0.707127161 0 0
2.199492 1.323703 1.507016 -0.703508959 0.0458005833 0.709209032 0 0
2.202143 1.330078 1.509068 -0.690924594 0.0750026698 0.719025594 0 0
2.205753 1.335527 1.511824 -0.674037949 0.100405653 0.731841204 0 0
2.20719 1.333603 1.513386 -0.667613082 0.0919018008 0.738814477 0 0
2.203233 1.328619 1.510254 -0.686020605 0.0688020665 0.724321755 0 0
2.2094 1.340758 1.514303 -0.654235945 0.128807077 0.745240945 0 0
2.213048 1.345722 1.516483 -0.631406491 0.159801643 0.758807801 0 0
2.215134 1.342929 1.518752 -0.621196928 0.146199277 0.769896193 0 0
2.21117 1.338388 1.516228 -0.646037723 0.117906885 0.754144036 0 0
2.216661 1.35037 1.518342 -0.612298475 0.184499541 0.768798086 0 0
2.220258 1.35486 1.52004 -0.605482965 0.193094567 0.772078278 0 0
2.222926 1.351288 1.522942 -0.593221665 0.17660645 0.785428684 0 0
2.219043 1.347181 1.520932 -0.600502327 0.168800654 0.781603029 0 0
2.221202 1.343661 1.52328 -0.589926081 0.151406694 0.793135065 0 0
2.217024 1.339847 1.520808 -0.612007583 0.131101624 0.779909663 0 0
2.225343 1.347346 1.525571 -0.582118273 0.158404972 0.797525035 0 0
2.227489 1.343074 1.527904 -0.572200166 0.13870004 0.808300234 0 0
2.223117 1.339847 1.525363 -0.580429463 0.132606731 0.803440784 0 0
2.218702 1.336507 1.522632 -0.603812402 0.114802358 0.788816202 0 0
2.212774 1.335773 1.517972 -0.63862194 0.105703632 0.762226187 0 0
2.208492 1.33148 1.514802 -0.661875054 0.0823968945 0.745071919 0 0
2.214197 1.332939 1.51952 -0.631947799 0.0926070046 0.7694582 0 0
2.209648 1.329179 1.516059 -0.656694018 0.0721993423 0.750693161 0 0
2.204221 1.327008 1.511328 -0.681820111 0.061601817 0.7289215 0 0
2.20034 1.322797 1.507924 -0.698704632 0.0432002864 0.714104735 0 0
2.205097 1.325263 1.512281 -0.677830137 0.054002401 0.7332326 0 0
2.200771 1.321401 1.508407 -0.698046069 0.0360023761 0.715147198 0 0
2.197232 1.319285 1.504969 -0.711446395 0.0289018848 0.702145788 0 0
2.196894 1.317803 1.504657 -0.716915245 0.0185003934 0.69691482 0 0
2.197967 1.317659 1.505768 -0.708142366 0.0215012864 0.705742222 0 0
2.197439 1.316296 1.50525 -0.71490568 0.0127001009 0.699105554 0 0
2.201483 1.320269 1.509168 -0.693724159 0.0321011179 0.719525058 0 0
2.201721 1.318774 1.50944 -0.694023844 0.024800852 0.71952472 0 0
2.205853 1.323399 1.513103 -0.674630464 0.0458020682 0.736733268 0 0
2.210644 1.326722 1.517143 -0.652231706 0.06130298 0.755536728 0 0
2.211474 1.324132 1.518045 -0.648602497 0.0497001913 0.759502924 0 0
2.206482 1.321434 1.513787 -0.671744078 0.0372024411 0.739848547 0 0
2.215425 1.329912 1.520855 -0.626304694 0.0786005891 0.775605813 0 0
2.220149 1.332939 1.524205 -0.59682687 0.0974043852 0.796435856 0 0
2.221353 1.329179 1.525514 -0.590879902 0.0790973096 0.802872691 0 0
2.216446 1.326722 1.521966 -0.621505802 0.0638005956 0.780807289 0 0
2.22477 1.335773 1.52716 -0.572295756 0.112499166 0.812293977 0 0
2.229339 1.338511 1.529916 -0.56372333 0.117704871 0.817533834 0 0
2.230879 1.333703 1.531591 -0.556582465 0.0955969883 0.825274 0 0
2.226145 1.33148 1.528655 -0.565490378 0.0912984466 0.819686053 0 0
2.227227 1.327008 1.529832 -0.560109872 0.0693012214 0.82551455 0 0
2.222301 1.325263 1.526546 -0.586285314 0.0599984971 0.807879763 0 0
2.232092 1.328694 1.532909 -0.551022884 0.0725030111 0.831334526 0 0
2.232967 1.323534 1.533861 -0.547006788 0.0487006044 0.835710371 0 0
2.228009 1.322401 1.530682 -0.556334102 0.0466028566 0.829650855 0 0
2.222985 1.321228 1.52729 -0.582920767 0.0403014358 0.811528911 0 0
2.217251 1.323399 1.522841 -0.617821488 0.0484016834 0.784827297 0 0
2.212127 1.321434 1.518755 -0.645680284 0.0376988489 0.762676712 0 0
2.217832 1.319975 1.523472 -0.615138278 0.0325020225 0.787749019 0 0
2.212598 1.318655 1.519268 -0.643621542 0.0253008468 0.764925602 0 0
2.206978 1.319388 1.514326 -0.669698078 0.0281999191 0.74209787 0 0
2.202271 1.317461 1.510024 -0.690276179 0.0197993167 0.72327504 0 0
2.207335 1.31728 1.514715 -0.668009282 0.019000264 0.743910337 0 0
2.202306 1.315924 1.510077 -0.691532371 0.0127005945 0.722233809 0 0
2.198473 1.315854 1.506318 -0.705793147 0.0132998709 0.708293123 0 0
2.197775 1.314661 1.505616 -0.713611611 0.00650010576 0.700511397 0 0
2.198732 1.313937 1.506599 -0.704595219 0.00449996947 0.709595185 0 0
2.197888 1.31296 1.505739 -0.713230295 0 0.700929773 0 0
2.202672 1.31448 1.51046 -0.688502692 0.0067000262 0.725202836 0 0
2.202504 1.31296 1.510291 -0.690720687 0 0.723121658 0 0
2.207551 1.31513 1.514949 -0.667208964 0.00950012764 0.744810007 0 0
2.212883 1.315821 1.519577 -0.64232368 0.0127004682 0.766328251 0 0
2.212978 1.31296 1.519681 -0.641894271 0 0.766793156 0 0
2.207623 1.31296 1.515028 -0.666713008 0 0.745314541 0 0
2.218182 1.316485 1.523853 -0.613512826 0.0163003408 0.789516505 0 0
2.223398 1.317114 1.527739 -0.580911461 0.0202003986 0.813716055 0 0
2.223536 1.31296 1.527889 -0.580234989 0 0.814449113 0 0
2.218299 1.31296 1.523981 -0.612991722 0 0.79008933 0 0
2.22848 1.317703 1.531194 -0.553994349 0.0233997613 0.832191512 0 0
2.233495 1.318273 1.534435 -0.544501345 0.0245000605 0.838402071 0 0
2.233672 1.31296 1.534628 -0.543690708 0 0.839285657 0 0
2.228638 1.31296 1.531366 -0.55322234 0 0.833033639 0 0
2.22848 1.308216 1.531194 -0.553994349 -0.0233997613 0.832191512 0 0
2.223398 1.308806 1.527739 -0.580910285 -0.0203003594 0.813714407 0 0
2.233495 1.307647 1.534435 -0.544501345 -0.0245000605 0.838402071 0 0
2.232967 1.302385 1.533861 -0.547006788 -0.0487006044 0.835710371 0 0
2.228009 1.303518 1.530682 -0.556334102 -0.0466028566 0.829650855 0 0
2.222985 1.304691 1.52729 -0.582920767 -0.0403014358 0.811528911 0 0
2.218182 1.309435 1.523853 -0.613512826 -0.0163003408 0.789516505 0 0
2.212883 1.310098 1.519577 -0.64232368 -0.0127004682 0.766328251 0 0
2.217832 1.305944 1.523472 -0.615138278 -0.0325020225 0.787749019 0 0
2.212598 1.307264 1.519268 -0.643621542 -0.0253008468 0.764925602 0 0
2.207551 1.310789 1.514949 -0.667208964 -0.00950012764 0.744810007 0 0
2.202672 1.31144 1.51046 -0.688502692 -0.0067000262 0.725202836 0 0
2.207335 1.30864 1.514715 -0.668009282 -0.019000264 0.743910337 0 0
2.202306 1.309996 1.510077 -0.691533246 -0.0126006058 0.722234722 0 0
2.198732 1.311983 1.506599 -0.704595219 -0.00449996947 0.709595185 0 0
2.197775 1.311259 1.505616 -0.713611611 -0.00650010576 0.700511397 0 0
2.198473 1.310066 1.506318 -0.705743892 -0.013200821 0.708344053 0 0
2.197439 1.309624 1.50525 -0.71490568 -0.0127001009 0.699105554 0 0
2.202271 1.308459 1.510024 -0.690223823 -0.0198006834 0.723324966 0 0
2.201721 1.307146 1.50944 -0.694023844 -0.024800852 0.71952472 0 0
2.206978 1.306532 1.514326 -0.669698078 -0.0281999191 0.74209787 0 0
2.212127 1.304485 1.518755 -0.645680284 -0.0376988489 0.762676712 0 0
2.211474 1.301788 1.518045 -0.648602497 -0.0497001913 0.759502924 0 0
2.206482 1.304485 1.513787 -0.671744078 -0.0372024411 0.739848547 0 0
2.217251 1.302521 1.522841 -0.617821488 -0.0484016834 0.784827297 0 0
2.222301 1.300657 1.526546 -0.586285314 -0.0599984971 0.807879763 0 0
2.221353 1.29674 1.525514 -0.590879902 -0.0790973096 0.802872691 0 0
2.216446 1.299198 1.521966 -0.621505802 -0.0638005956 0.780807289 0 0
2.227227 1.298911 1.529832 -0.560109872 -0.0693012214 0.82551455 0 0
2.232092 1.297225 1.532909 -0.551022884 -0.0725030111 0.831334526 0 0
2.230879 1.292217 1.531591 -0.556582465 -0.0955969883 0.825274 0 0
2.226145 1.294439 1.528655 -0.565490378 -0.0912984466 0.819686053 0 0
2.22477 1.290146 1.52716 -0.572295756 -0.112499166 0.812293977 0 0
2.220149 1.292981 1.524205 -0.59682687 -0.0974043852 0.796435856 0 0
2.229339 1.287408 1.529916 -0.56372333 -0.117704871 0.817533834 0 0
2.227489 1.282846 1.527904 -0.572200166 -0.13870004 0.808300234 0 0
2.223117 1.286072 1.525363 -0.580429463 -0.132606731 0.803440784 0 0
2.218701 1.289413 1.522632 -0.603812402 -0.114802358 0.788816202 0 0
2.215425 1.296008 1.520855 -0.626304694 -0.0786005891 0.775605813 0 0
2.210644 1.299198 1.517143 -0.652231706 -0.06130298 0.755536728 0 0
2.214197 1.292981 1.51952 -0.632007862 -0.092601152 0.769409572 0 0
2.209648 1.29674 1.516059 -0.656694018 -0.0721993423 0.750693161 0 0
2.205853 1.302521 1.513103 -0.674630464 -0.0458020682 0.736733268 0 0
2.201483 1.30565 1.509167 -0.693724159 -0.0321011179 0.719525058 0 0
2.205097 1.300657 1.512281 -0.677830137 -0.054002401 0.7332326 0 0
2.200771 1.304519 1.508407 -0.698046069 -0.0360023761 0.715147198 0 0
2.197967 1.30826 1.505768 -0.708142366 -0.0215012864 0.705742222 0 0
2.196894 1.308117 1.504657 -0.716915245 -0.0185003934 0.69691482 0 0
2.197232 1.306635 1.504969 -0.711446395 -0.0289018848 0.702145788 0 0
2.19616 1.306795 1.503859 -0.71979182 -0.0234997329 0.693792115 0 0
2.20034 1.303123 1.507924 -0.698704632 -0.0432002864 0.714104735 0 0
2.199492 1.302217 1.507016 -0.703508959 -0.0458005833 0.709209032 0 0
2.204221 1.298911 1.511328 -0.681820111 -0.061601817 0.7289215 0 0
2.208492 1.294439 1.514802 -0.661875054 -0.0823968945 0.745071919 0 0
2.20719 1.292316 1.513386 -0.667613082 -0.0919018008 0.738814477 0 0
2.203233 1.297301 1.510254 -0.686020605 -0.0688020665 0.724321755 0 0
2.212774 1.290146 1.517972 -0.63862194 -0.105703632 0.762226187 0 0
2.217024 1.286072 1.520807 -0.612007583 -0.131101624 0.779909663 0 0
2.215134 1.28299 1.518752 -0.621196928 -0.146199277 0.769896193 0 0
2.21117 1.287531 1.516228 -0.646045338 -0.117808267 0.754152925 0 0
2.221202 1.282258 1.52328 -0.589926081 -0.151406694 0.793135065 0 0
2.225343 1.278574 1.525571 -0.582118273 -0.158404972 0.797525035 0 0
2.222926 1.274632 1.522942 -0.593221665 -0.17660645 0.785428684 0 0
2.219043 1.278739 1.520932 -0.600549265 -0.168813848 0.781564114 0 0
2.216661 1.27555 1.518342 -0.612298475 -0.184499541 0.768798086 0 0
2.213048 1.280198 1.516483 -0.631406491 -0.159801643 0.758807801 0 0
2.220258 1.27106 1.52004 -0.605482965 -0.193094567 0.772078278 0 0
2.217366 1.267891 1.516895 -0.618858457 -0.207686059 0.757549147 0 0
2.214079 1.27272 1.515534 -0.625030859 -0.198509801 0.754937272 0 0
2.210786 1.277719 1.514024 -0.642420041 -0.171905363 0.746823297 0 0
2.2094 1.285162 1.514303 -0.654235945 -0.128807077 0.745240945 0 0
2.205753 1.290393 1.511824 -0.674037949 -0.100405653 0.731841204 0 0
2.207481 1.283059 1.512216 -0.663093724 -0.138598688 0.735593038 0 0
2.204196 1.288686 1.51013 -0.680987916 -0.107998084 0.724287148 0 0
2.202143 1.295842 1.509068 -0.690924594 -0.0750026698 0.719025594 0 0
2.198885 1.300974 1.506342 -0.705127084 -0.0526020205 0.707127161 0 0
2.200962 1.294547 1.507784 -0.696034674 -0.0809040303 0.713435541 0 0
2.197933 1.300327 1.505321 -0.710166889 -0.0538974871 0.701967272 0 0
2.196297 1.305253 1.503951 -0.71580879 -0.0352004323 0.697408564 0 0
2.195266 1.305711 1.502887 -0.723193488 -0.0275997515 0.690093786 0 0
2.195197 1.304167 1.502755 -0.720788222 -0.0401993431 0.691988693 0 0
2.194246 1.304906 1.501778 -0.727025337 -0.03070107 0.685923905 0 0
2.197175 1.299285 1.504482 -0.712694829 -0.060099564 0.69889493 0 0
2.196156 1.298923 1.503388 -0.717788311 -0.0597990262 0.693688703 0 0
2.1997 1.29343 1.506411 -0.701605374 -0.0856006557 0.707405419 0 0
2.202532 1.287213 1.508321 -0.688410271 -0.11460171 0.716210686 0 0
2.200779 1.285988 1.506415 -0.69622307 -0.120003976 0.707723451 0 0
2.19837 1.292501 1.504965 -0.707386567 -0.0898982928 0.701086686 0 0
2.205432 1.281245 1.509988 -0.672628655 -0.147006263 0.725230895 0 0
2.208371 1.275582 1.511398 -0.654210817 -0.182303014 0.734012137 0 0
2.205827 1.273803 1.50863 -0.666614396 -0.191004125 0.72051556 0 0
2.203273 1.279736 1.50764 -0.68263985 -0.154008991 0.714341701 0 0
2.211322 1.270279 1.512535 -0.638642082 -0.210513871 0.74014877 0 0
2.214278 1.265157 1.513537 -0.633094916 -0.220198232 0.742094041 0 0
2.211023 1.262882 1.509997 -0.648086475 -0.230695185 0.725784853 0 0
2.208416 1.268248 1.509375 -0.652951252 -0.220617317 0.724556873 0 0
2.205389 1.266648 1.506084 -0.667902822 -0.228500965 0.708302993 0 0
2.203176 1.272402 1.505748 -0.67960613 -0.197801784 0.706406372 0 0
2.207633 1.26109 1.506311 -0.663694647 -0.238998072 0.708794284 0 0
2.20414 1.259797 1.502513 -0.679800088 -0.244900032 0.69130009 0 0
2.202271 1.265494 1.502692 -0.683295811 -0.234098565 0.691595761 0 0
2.200445 1.271391 1.502778 -0.692912521 -0.202803665 0.691912503 0 0
2.201024 1.278547 1.505194 -0.693035259 -0.159508115 0.703035768 0 0
2.198953 1.285023 1.504429 -0.704317541 -0.124303096 0.698917407 0 0
2.198707 1.277689 1.502674 -0.703813239 -0.163503076 0.691313004 0 0
2.197072 1.284327 1.502383 -0.712701393 -0.127400249 0.689801349 0 0
2.196985 1.291769 1.503459 -0.713534243 -0.0929044586 0.694433327 0 0
2.195274 1.298122 1.502415 -0.720980516 -0.065198238 0.689881356 0 0
2.195558 1.29124 1.501907 -0.719749301 -0.0954065351 0.687647102 0 0
2.194226 1.298059 1.50129 -0.726028192 -0.0635024658 0.684726588 0 0
2.193975 1.303419 1.501426 -0.726346684 -0.0436028024 0.685944087 0 0
2.193139 1.30441 1.500574 -0.731288248 -0.0325994761 0.681289052 0 0
2.192677 1.303038 1.500015 -0.732283634 -0.0453989853 0.679484814 0 0
2.191987 1.304242 1.499322 -0.735650817 -0.0332022935 0.676546734 0 0
2.193256 1.297529 1.50022 -0.729891646 -0.067799224 0.680192215 0 0
2.19222 1.297767 1.499108 -0.734503841 -0.0648003389 0.675503533 0 0
2.194103 1.290922 1.500325 -0.726181668 -0.0965975614 0.680682816 0 0
2.195154 1.283907 1.500297 -0.7212259 -0.129304643 0.680524438 0 0
2.193217 1.283766 1.498191 -0.729852091 -0.129909272 0.671147902 0 0
2.192634 1.290815 1.498727 -0.732634065 -0.0973045243 0.673631321 0 0
2.196344 1.277172 1.500105 -0.714734573 -0.165908025 0.679432865 0 0
2.19766 1.270781 1.499749 -0.706528562 -0.205708316 0.677127373 0 0
2.194848 1.270577 1.496691 -0.720180476 -0.206694397 0.662282046 0 0
2.193958 1.276998 1.49751 -0.725800983 -0.166700226 0.667400904 0 0
2.19909 1.264797 1.499234 -0.698947104 -0.237616013 0.674545459 0 0
2.200578 1.259017 1.498639 -0.696182965 -0.248493919 0.67348352 0 0
2.196982 1.258756 1.494729 -0.712806027 -0.249702111 0.655405541 0 0
2.19588 1.264564 1.495743 -0.714814289 -0.238704772 0.65731314 0 0
2.192669 1.264797 1.492251 -0.730615296 -0.237604974 0.640113401 0 0
2.192036 1.270781 1.493634 -0.733929729 -0.205708332 0.64732622 0 0
2.193386 1.259017 1.490818 -0.729333003 -0.248511245 0.637428844 0 0
2.189824 1.259797 1.486945 -0.745719143 -0.244906287 0.619615906 0 0
2.189489 1.265494 1.488793 -0.746338997 -0.234112233 0.623032554 0 0
2.189251 1.271391 1.490605 -0.747475016 -0.202793222 0.632578856 0 0
2.191572 1.277172 1.494915 -0.736819817 -0.165904462 0.655417628 0 0
2.19128 1.283907 1.496085 -0.738425 -0.129304378 0.661822406 0 0
2.189209 1.277689 1.492346 -0.74778903 -0.163497602 0.64349056 0 0
2.189362 1.284327 1.493999 -0.74700149 -0.127400254 0.652501302 0 0
2.191165 1.290922 1.49713 -0.739021635 -0.0966028281 0.666719518 0 0
2.191198 1.297529 1.497983 -0.738897706 -0.0677997895 0.670397918 0 0
2.189709 1.29124 1.495547 -0.745427429 -0.0954035104 0.659724275 0 0
2.190214 1.298059 1.496926 -0.743080569 -0.0634983395 0.66618258 0 0
2.191354 1.303038 1.498576 -0.738419757 -0.0453012121 0.672818001 0 0
2.190836 1.30441 1.49807 -0.740103086 -0.0326001359 0.671702801 0 0
2.190057 1.303419 1.497165 -0.744310268 -0.0436006015 0.666409193 0 0
2.189729 1.304906 1.496866 -0.74431958 -0.0307008076 0.667117549 0 0
2.18918 1.298122 1.495788 -0.747713844 -0.0652012072 0.660812235 0 0
2.188284 1.298923 1.494828 -0.751318205 -0.0599014514 0.657215925 0 0
2.188283 1.291769 1.493996 -0.751714392 -0.0929017786 0.6529125 0 0
2.187481 1.285023 1.491953 -0.75538368 -0.124297315 0.6433861 0 0
2.185655 1.285988 1.489967 -0.763529587 -0.12000465 0.634524588 0 0
2.186898 1.292501 1.492489 -0.757782367 -0.0898979081 0.646284961 0 0
2.186892 1.278547 1.489826 -0.75852513 -0.159505284 0.631820933 0 0
2.18652 1.272402 1.487635 -0.76080415 -0.197801079 0.618103372 0 0
2.183869 1.273803 1.484753 -0.773735326 -0.191008721 0.604027578 0 0
2.184643 1.279736 1.48738 -0.768921738 -0.154004354 0.620517542 0 0
2.18637 1.266648 1.485402 -0.761700446 -0.228500134 0.606300355 0 0
2.186332 1.26109 1.483147 -0.761805847 -0.239001834 0.602104621 0 0
2.182942 1.262882 1.47946 -0.777454559 -0.230786511 0.585065804 0 0
2.183343 1.268248 1.48211 -0.776649738 -0.220614129 0.590037787 0 0
2.180438 1.270279 1.47895 -0.791029027 -0.210507725 0.574421079 0 0
2.181324 1.275582 1.481985 -0.786148448 -0.182311235 0.590536393 0 0
2.179687 1.265157 1.475921 -0.792414545 -0.220304044 0.568810441 0 0
2.176599 1.267891 1.472562 -0.806681822 -0.20769532 0.553287532 0 0
2.17768 1.27272 1.475951 -0.804625921 -0.198506395 0.559618028 0 0
2.178909 1.277719 1.479359 -0.797927405 -0.171905904 0.577719842 0 0
2.182483 1.281245 1.485032 -0.778987236 -0.146897593 0.609590012 0 0
2.183902 1.287213 1.488061 -0.771333612 -0.114604994 0.62602728 0 0
2.180434 1.283059 1.482804 -0.788421678 -0.138603811 0.599316478 0 0
2.182238 1.288686 1.486252 -0.778714916 -0.108002069 0.618011838 0 0
2.185568 1.29343 1.491043 -0.763595296 -0.0855994727 0.639996058 0 0
2.187279 1.299285 1.493721 -0.756095422 -0.0600996361 0.651696054 0 0
2.184306 1.294547 1.489671 -0.769183593 -0.0808982745 0.633886479 0 0
2.186507 1.300327 1.492895 -0.758935811 -0.0539025435 0.648930621 0 0
2.188835 1.304167 1.495836 -0.749914196 -0.040200761 0.6603125 0 0
2.188709 1.305711 1.495757 -0.748199473 -0.0275999805 0.662899533 0 0
2.187735 1.305253 1.49464 -0.754897335 -0.0351998757 0.654897688 0 0
2.187815 1.306795 1.494784 -0.751556692 -0.0235017728 0.659249729 0 0
2.185569 1.300974 1.491861 -0.763621393 -0.0526014737 0.643518028 0 0
2.184948 1.302217 1.4912 -0.765592386 -0.0457995445 0.641693618 0 0
2.183125 1.295842 1.488387 -0.774328504 -0.0750027609 0.628323129 0 0
2.180681 1.290393 1.484558 -0.785664553 -0.10040825 0.610450157 0 0
2.179244 1.292316 1.482996 -0.792030945 -0.0919035907 0.60352358 0 0
2.182035 1.297301 1.487201 -0.779194125 -0.0687994813 0.622995303 0 0
2.178516 1.285162 1.480717 -0.797374341 -0.128795855 0.589581028 0 0
2.176648 1.280198 1.4769 -0.808986437 -0.159797321 0.565690516 0 0
2.174562 1.28299 1.474631 -0.819148982 -0.146208743 0.554633165 0 0
2.176745 1.287531 1.478792 -0.805614276 -0.117802087 0.580610289 0 0
2.175098 1.27555 1.473143 -0.817333846 -0.184507641 0.545822603 0 0
2.173707 1.27106 1.469417 -0.82001868 -0.193004397 0.538812274 0 0
2.171039 1.274632 1.466516 -0.832274574 -0.176594605 0.525483947 0 0
2.172716 1.278739 1.470553 -0.829104456 -0.168800907 0.533002865 0 0
2.170557 1.282258 1.468205 -0.839752062 -0.151409387 0.521432327 0 0
2.172672 1.286072 1.472575 -0.828390503 -0.131098497 0.544593756 0 0
2.168621 1.278574 1.463887 -0.843432599 -0.158506126 0.51331984 0 0
2.166476 1.282846 1.461554 -0.853302948 -0.13880048 0.502601736 0 0
2.168642 1.286072 1.466123 -0.849151371 -0.132608022 0.511230928 0 0
2.170994 1.289413 1.470751 -0.836547777 -0.114806557 0.535730596 0 0
2.175142 1.290146 1.477048 -0.81299502 -0.105699353 0.572596493 0 0
2.177942 1.294439 1.48158 -0.79783094 -0.0824031957 0.597223161 0 0
2.173718 1.292981 1.4755 -0.819601606 -0.0926001815 0.565401108 0 0
2.176786 1.29674 1.480323 -0.802995021 -0.0721995524 0.591596332 0 0
2.181047 1.298911 1.486127 -0.783427938 -0.0616021968 0.618422053 0 0
2.184114 1.303123 1.490278 -0.769990067 -0.0431994427 0.636591788 0 0
2.180171 1.300657 1.485174 -0.787348778 -0.0540033456 0.614138047 0 0
2.183669 1.304519 1.489809 -0.771008234 -0.0360003845 0.63580679 0 0
2.186799 1.306635 1.493623 -0.759165268 -0.0289024849 0.650255905 0 0
2.187081 1.308117 1.493986 -0.754426851 -0.0185006585 0.656123352 0 0
2.186064 1.30826 1.492824 -0.762513584 -0.0216003848 0.646611519 0 0
2.186536 1.309624 1.493393 -0.756442566 -0.0127007147 0.653936798 0 0
2.182971 1.30565 1.489035 -0.775019744 -0.0322008203 0.631116078 0 0
2.182719 1.307146 1.488776 -0.775036428 -0.0248011657 0.631429678 0 0
2.179415 1.302521 1.484352 -0.790608554 -0.0458004956 0.610606607 0 0
2.17579 1.299198 1.479239 -0.807410319 -0.0612007822 0.586807499 0 0
2.17496 1.301788 1.478337 -0.811096293 -0.0496997729 0.582797337 0 0
2.178785 1.304485 1.483667 -0.79343029 -0.0372014202 0.607523193 0 0
2.172491 1.296008 1.474165 -0.825305373 -0.078500511 0.55920364 0 0
2.169547 1.292981 1.469178 -0.843628802 -0.0974033254 0.528018027 0 0
2.168343 1.29674 1.467868 -0.849466893 -0.0790969173 0.521679668 0 0
2.171469 1.299198 1.473054 -0.830001141 -0.0638000877 0.554100762 0 0
2.16699 1.290146 1.464326 -0.857332223 -0.112504229 0.50231888 0 0
2.164625 1.287408 1.459541 -0.861869926 -0.117695893 0.493282787 0 0
2.163085 1.292217 1.457867 -0.868928705 -0.0956031582 0.485616043 0 0
2.165615 1.29444 1.462831 -0.864130025 -0.0913031724 0.494917196 0 0
2.164532 1.298911 1.461653 -0.869453186 -0.0693042395 0.489129921 0 0
2.167395 1.300657 1.466837 -0.85411607 -0.0600011289 0.51660972 0 0
2.161873 1.297225 1.456548 -0.87453203 -0.0725026555 0.479517563 0 0
2.160997 1.302385 1.455596 -0.878586971 -0.0486992778 0.475092954 0 0
2.163751 1.303518 1.460803 -0.873320759 -0.0466011077 0.484911526 0 0
2.166711 1.304691 1.466093 -0.857430932 -0.0403014539 0.513018507 0 0
2.170664 1.302521 1.472179 -0.833742418 -0.0484024625 0.550027983 0 0
2.174307 1.304485 1.477627 -0.814018947 -0.0377008775 0.579613491 0 0
2.170084 1.305944 1.471548 -0.836425252 -0.0325009812 0.547116518 0 0
2.173836 1.307264 1.477115 -0.816126692 -0.0253008275 0.577318882 0 0
2.17829 1.306532 1.483129 -0.795498576 -0.0281999495 0.605298917 0 0
2.182183 1.308459 1.488179 -0.778517272 -0.0197004371 0.627313917 0 0
2.177932 1.30864 1.48274 -0.797207813 -0.0190001862 0.603405913 0 0
2.182134 1.309996 1.488139 -0.777566278 -0.0126994492 0.628672735 0 0
2.185558 1.310066 1.492273 -0.764817033 -0.0131002917 0.644114345 0 0
2.1862 1.311259 1.493028 -0.757734936 -0.0065002997 0.652530086 0 0
2.1853 1.311983 1.491992 -0.766011873 -0.0046000713 0.642809964 0 0
2.181782 1.31144 1.487743 -0.780246001 -0.00670039503 0.625436874 0 0
2.177717 1.310789 1.482505 -0.798038941 -0.00960046847 0.602529401 0 0
2.173552 1.310098 1.476805 -0.817414362 -0.0127002231 0.575910119 0 0
2.169734 1.309435 1.471167 -0.838087684 -0.0162997605 0.545291987 0 0
2.166298 1.308806 1.465644 -0.859445964 -0.0202010804 0.51082732 0 0
2.163279 1.308216 1.460291 -0.875629474 -0.0234007877 0.482416238 0 0
2.16047 1.307647 1.455022 -0.880992291 -0.0244997856 0.472495866 0 0
3 0 1 2
3 0 3 1
3 0 4 3
3 0 5 4
3 0 6 5
3 0 7 6
3 0 8 7
3 0 2 8
3 9 10 11
3 9 12 10
3 9 6 12
3 9 5 6
3 9 4 5
3 9 13 4
3 9 14 13
3 9 11 14
3 15 16 17
3 15 18 16
3 15 10 18
3 15 11 10
3 15 14 11
3 15 19 14
3 15 20 19
3 15 17 20
3 21 22 23
3 21 24 22
3 21 16 24
3 21 17 16
3 21 20 17
3 21 23 20
3 25 22 26
3 25 23 22
3 25 20 23
3 25 27 20
3 25 28 27
3 25 26 28
3 29 20 27
3 29 19 20
3 29 14 19
3 29 30 14
3 29 31 30
3 29 32 31
3 29 28 32
3 29 27 28
3 33 14 30
3 33 13 14
3 33 4 13
3 33 34 4
3 33 35 34
3 33 36 35
3 33 31 36
3 33 30 31
3 37 4 34
3 37 3 4
3 37 1 3
3 37 38 1
3 37 39 38
3 37 40 39
3 37 35 40
3 37 34 35
3 41 35 42
3 41 40 35
3 41 39 40
3 41 43 39
3 41 44 43
3 41 45 44
3 41 46 45
3 41 42 46
3 47 31 48
3 47 36 31
3 47 35 36
3 47 42 35
3 47 46 42
3 47 49 46
3 47 50 49
3 47 48 50
3 51 28 52
3 51 32 28
3 51 31 32
3 51 48 31
3 51 50 48
3 51 53 50
3 51 54 53
3 51 52 54
3 55 22 56
3 55 26 22
3 55 28 26
3 55 52 28
3 55 54 52
3 55 56 54
3 57 22 58
3 57 56 22
3 57 54 56
3 57 59 54
3 57 60 59
3 57 58 60
3 61 54 59
3 61 53 54
3 61 50 53
3 61 62 50
3 61 63 62
3 61 64 63
3 61 60 64
3 61 59 60
3 65 50 62
3 65 49 50
3 65 46 49
3 65 66 46
3 65 67 66
3 65 68 67
3 65 63 68
3 65 62 63
3 69 46 66
3 69 45 46
3 69 44 45
3 69 70 44
3 69 71 70
3 69 72 71
3 69 67 72
3 69 66 67
3 73 67 74
3 73 72 67
3 73 71 72
3 73 75 71
3 73 76 75
3 73 77 76
3 73 78 77
3 73 74 78
3 79 63 80
3 79 68 63
3 79 67 68
3 79 74 67
3 79 78 74
3 79 81 78
3 79 82 81
3 79 80 82
3 83 60 84
3 83 64 60
3 83 63 64
3 83 80 63
3 83 82 80
3 83 85 82
3 83 86 85
3 83 84 86
3 87 22 88
3 87 58 22
3 87 60 58
3 87 84 60
3 87 86 84
3 87 88 86
3 89 22 90
3 89 88 22
3 89 86 88
3 89 91 86
3 89 92 91
3 89 90 92
3 93 86 91
3 93 85 86
3 93 82 85
3 93 94 82
3 93 95 94
3 93 96 95
3 93 92 96
3 93 91 92
3 97 82 94
3 97 81 82
3 97 78 81
3 97 98 78
3 97 99 98
3 97 100 99
3 97 95 100
3 97 94 95
3 101 78 98
3 101 77 78
3 101 76 77
3 101 102 76
3 101 103 102
3 101 104 103
3 101 99 104
3 101 98 99
3 105 99 106
3 105 104 99
3 105 103 104
3 105 107 103
3 105 108 107
3 105 109 108
3 105 110 109
3 105 106 110
3 111 95 112
3 111 100 95
3 111 99 100
3 111 106 99
3 111 110 106
3 111 113 110
3 111 114 113
3 111 112 114
3 115 92 116
3 115 96 92
3 115 95 96
3 115 112 95
3 115 114 112
3 115 117 114
3 115 118 117
3 115 116 118
3 119 22 120
3 119 90 22
3 119 92 90
3 119 116 92
3 119 118 116
3 119 120 118
3 121 22 122
3 121 120 22
3 121 118 120
3 121 123 118
3 121 124 123
3 121 122 124
3 125 118 123
3 125 117 118
3 125 114 117
3 125 126 114
3 125 127 126
3 125 128 127
3 125 124 128
3 125 123 124
3 129 114 126
3 129 113 114
3 129 110 113
3 129 130 110
3 129 131 130
3 129 132 131
3 129 127 132
3 129 126 127
3 133 110 130
3 133 109 110
3 133 108 109
3 133 134 108
3 133 135 134
3 133 136 135
3 133 131 136
3 133 130 131
3 137 131 138
3 137 136 131
3 137 135 136
3 137 139 135
3 137 140 139
3 137 141 140
3 137 142 141
3 137 138 142
3 143 127 144
3 143 132 127
3 143 131 132
3 143 138 131
3 143 142 138
3 143 145 142
3 143 146 145
3 143 144 146
3 147 124 148
3 147 128 124
3 147 127 128
3 147 144 127
3 147 146 144
3 147 149 146
3 147 150 149
3 147 148 150
3 151 22 152
3 151 122 22
3 151 124 122
3 151 148 124
3 151 150 148
3 151 152 150
3 153 22 154
3 153 152 22
3 153 150 152
3 153 155 150
3 153 156 155
3 153 154 156
3 157 150 155
3 157 149 150
3 157 146 149
3 157 158 146
3 157 159 158
3 157 160 159
3 157 156 160
3 157 155 156
3 161 146 158
3 161 145 146
3 161 142 145
3 161 162 142
3 161 163 162
3 161 164 163
3 161 159 164
3 161 158 159
3 165 142 162
3 165 141 142
3 165 140 141
3 165 166 140
3 165 167 166
3 165 168 167
3 165 163 168
3 165 162 163
3 169 163 170
3 169 168 163
3 169 167 168
3 169 171 167
3 169 172 171
3 169 173 172
3 169 174 173
3 169 170 174
3 175 159 176
3 175 164 159
3 175 163 164
3 175 170 163
3 175 174 170
3 175 177 174
3 175 178 177
3 175 176 178
3 179 156 180
3 179 160 156
3 179 159 160
3 179 176 159
3 179 178 176
3 179 181 178
3 179 182 181
3 179 180 182
3 183 22 184
3 183 154 22
3 183 156 154
3 183 180 156
3 183 182 180
3 183 184 182
3 185 22 186
3 185 184 22
3 185 182 184
3 185 187 182
3 185 188 187
3 185 186 188
3 189 182 187
3 189 181 182
3 189 178 181
3 189 190 178
3 189 191 190
3 189 192 191
3 189 188 192
3 189 187 188
3 193 178 190
3 193 177 178
3 193 174 177
3 193 194 174
3 193 195 194
3 193 196 195
3 193 191 196
3 193 190 191
3 197 174 194
3 197 173 174
3 197 172 173
3 197 198 172
3 197 199 198
3 197 200 199
3 197 195 200
3 197 194 195
3 201 195 202
3 201 200 195
3 201 199 200
3 201 203 199
3 201 204 203
3 201 205 204
3 201 206 205
3 201 202 206
3 207 191 208
3 207 196 191
3 207 195 196
3 207 202 195
3 207 206 202
3 207 209 206
3 207 210 209
3 207 208 210
3 211 188 212
3 211 192 188
3 211 191 192
3 211 208 191
3 211 210 208
3 211 213 210
3 211 214 213
3 211 212 214
3 215 22 216
3 215 186 22
3 215 188 186
3 215 212 188
3 215 214 212
3 215 216 214
3 217 22 218
3 217 216 22
3 217 214 216
3 217 219 214
3 217 220 219
3 217 218 220
3 221 214 219
3 221 213 214
3 221 210 213
3 221 222 210
3 221 223 222
3 221 224 223
3 221 220 224
3 221 219 220
3 225 210 222
3 225 209 210
3 225 206 209
3 225 226 206
3 225 227 226
3 225 228 227
3 225 223 228
3 225 222 223
3 229 206 226
3 229 205 206
3 229 204 205
3 229 230 204
3 229 231 230
3 229 232 231
3 229 227 232
3 229 226 227
3 233 227 234
3 233 232 227
3 233 231 232
3 233 235 231
3 233 236 235
3 233 237 236
3 233 238 237
3 233 234 238
3 239 223 240
3 239 228 223
3 239 227 228
3 239 234 227
3 239 238 234
3 239 241 238
3 239 242 241
3 239 240 242
3 243 220 244
3 243 224 220
3 243 223 224
3 243 240 223
3 243 242 240
3 243 245 242
3 243 246 245
3 243 244 246
3 247 22 248
3 247 218 22
3 247 220 218
3 247 244 220
3 247 246 244
3 247 248 246
3 249 22 250
3 249 248 22
3 249 246 248
3 249 251 246
3 249 252 251
3 249 250 252
3 253 246 251
3 253 245 246
3 253 242 245
3 253 254 242
3 253 255 254
3 253 256 255
3 253 252 256
3 253 251 252
3 257 242 254
3 257 241 242
3 257 238 241
3 257 258 238
3 257 259 258
3 257 260 259
3 257 255 260
3 257 254 255
3 261 238 258
3 261 237 238
3 261 236 237
3 261 262 236
3 261 263 262
3 261 264 263
3 261 259 264
3 261 258 259
3 265 259 266
3 265 264 259
3 265 263 264
3 265 267 263
3 265 268 267
3 265 269 268
3 265 270 269
3 265 266 270
3 271 255 272
3 271 260 255
3 271 259 260
3 271 266 259
3 271 270 266
3 271 273 270
3 271 274 273
3 271 272 274
3 275 252 276
3 275 256 252
3 275 255 256
3 275 272 255
3 275 274 272
3 275 277 274
3 275 278 277
3 275 276 278
3 279 22 280
3 279 250 22
3 279 252 250
3 279 276 252
3 279 278 276
3 279 280 278
3 281 22 282
3 281 280 22
3 281 278 280
3 281 283 278
3 281 284 283
3 281 282 284
3 285 278 283
3 285 277 278
3 285 274 277
3 285 286 274
3 285 287 286
3 285 288 287
3 285 284 288
3 285 283 284
3 289 274 286
3 289 273 274
3 289 270 273
3 289 290 270
3 289 291 290
3 289 292 291
3 289 287 292
3 289 286 287
3 293 270 290
3 293 269 270
3 293 268 269
3 293 294 268
3 293 295 294
3 293 296 295
3 293 291 296
3 293 290 291
3 297 291 298
3 297 296 291
3 297 295 296
3 297 299 295
3 297 300 299
3 297 301 300
3 297 302 301
3 297 298 302
3 303 287 304
3 303 292 287
3 303 291 292
3 303 298 291
3 303 302 298
3 303 305 302
3 303 306 305
3 303 304 306
3 307 284 308
3 307 288 284
3 307 287 288
3 307 304 287
3 307 306 304
3 307 309 306
3 307 310 309
3 307 308 310
3 311 22 312
3 311 282 22
3 311 284 282
3 311 308 284
3 311 310 308
3 311 312 310
3 313 22 314
3 313 312 22
3 313 310 312
3 313 315 310
3 313 316 315
3 313 314 316
3 317 310 315
3 317 309 310
3 317 306 309
3 317 318 306
3 317 319 318
3 317 320 319
3 317 316 320
3 317 315 316
3 321 306 318
3 321 305 306
3 321 302 305
3 321 322 302
3 321 323 322
3 321 324 323
3 321 319 324
3 321 318 319
3 325 302 322
3 325 301 302
3 325 300 301
3 325 326 300
3 325 327 326
3 325 328 327
3 325 323 328
3 325 322 323
3 329 323 330
3 329 328 323
3 329 327 328
3 329 331 327
3 329 332 331
3 329 333 332
3 329 334 333
3 329 330 334
3 335 319 336
3 335 324 319
3 335 323 324
3 335 330 323
3 335 334 330
3 335 337 334
3 335 338 337
3 335 336 338
3 339 316 340
3 339 320 316
3 339 319 320
3 339 336 319
3 339 338 336
3 339 341 338
3 339 342 341
3 339 340 342
3 343 22 344
3 343 314 22
3 343 316 314
3 343 340 316
3 343 342 340
3 343 344 342
3 345 22 346
3 345 344 22
3 345 342 344
3 345 347 342
3 345 348 347
3 345 346 348
3 349 342 347
3 349 341 342
3 349 338 341
3 349 350 338
3 349 351 350
3 349 352 351
3 349 348 352
3 349 347 348
3 353 338 350
3 353 337 338
3 353 334 337
3 353 354 334
3 353 355 354
3 353 356 355
3 353 351 356
3 353 350 351
3 357 334 354
3 357 333 334
3 357 332 333
3 357 358 332
3 357 359 358
3 357 360 359
3 357 355 360
3 357 354 355
3 361 355 362
3 361 360 355
3 361 359 360
3 361 363 359
3 361 364 363
3 361 365 364
3 361 366 365
3 361 362 366
3 367 351 368
3 367 356 351
3 367 355 356
3 367 362 355
3 367 366 362
3 367 369 366
3 367 370 369
3 367 368 370
3 371 348 372
3 371 352 348
3 371 351 352
3 371 368 351
3 371 370 368
3 371 373 370
3 371 374 373
3 371 372 374
3 375 22 376
3 375 346 22
3 375 348 346
3 375 372 348
3 375 374 372
3 375 376 374
3 377 22 378
3 377 376 22
3 377 374 376
3 377 379 374
3 377 380 379
3 377 378 380
3 381 374 379
3 381 373 374
3 381 370 373
3 381 382 370
3 381 383 382
3 381 384 383
3 381 380 384
3 381 379 380
3 385 370 382
3 385 369 370
3 385 366 369
3 385 386 366
3 385 387 386
3 385 388 387
3 385 383 388
3 385 382 383
3 389 366 386
3 389 365 366
3 389 364 365
3 389 390 364
3 389 391 390
3 389 392 391
3 389 387 392
3 389 386 387
3 393 387 394
3 393 392 387
3 393 391 392
3 393 395 391
3 393 396 395
3 393 397 396
3 393 398 397
3 393 394 398
3 399 383 400
3 399 388 383
3 399 387 388
3 399 394 387
3 399 398 394
3 399 401 398
3 399 402 401
3 399 400 402
3 403 380 404
3 403 384 380
3 403 383 384
3 403 400 383
3 403 402 400
3 403 405 402
3 403 406 405
3 403 404 406
3 407 22 408
3 407 378 22
3 407 380 378
3 407 404 380
3 407 406 404
3 407 408 406
3 409 22 410
3 409 408 22
3 409 406 408
3 409 411 406
3 409 412 411
3 409 410 412
3 413 406 411
3 413 405 406
3 413 402 405
3 413 414 402
3 413 415 414
3 413 416 415
3 413 412 416
3 413 411 412
3 417 402 414
3 417 401 402
3 417 398 401
3 417 418 398
3 417 419 418
3 417 420 419
3 417 415 420
3 417 414 415
3 421 398 418
3 421 397 398
3 421 396 397
3 421 422 396
3 421 423 422
3 421 424 423
3 421 419 424
3 421 418 419
3 425 419 426
3 425 424 419
3 425 423 424
3 425 427 423
3 425 428 427
3 425 429 428
3 425 430 429
3 425 426 430
3 431 415 432
3 431 420 415
3 431 419 420
3 431 426 419
3 431 430 426
3 431 433 430
3 431 434 433
3 431 432 434
3 435 412 436
3 435 416 412
3 435 415 416
3 435 432 415
3 435 434 432
3 435 437 434
3 435 438 437
3 435 436 438
3 439 22 440
3 439 410 22
3 439 412 410
3 439 436 412
3 439 438 436
3 439 440 438
3 441 22 442
3 441 440 22
3 441 438 440
3 441 443 438
3 441 444 443
3 441 442 444
3 445 438 443
3 445 437 438
3 445 434 437
3 445 446 434
3 445 447 446
3 445 448 447
3 445 444 448
3 445 443 444
3 449 434 446
3 449 433 434
3 449 430 433
3 449 450 430
3 449 451 450
3 449 452 451
3 449 447 452
3 449 446 447
3 453 430 450
3 453 429 430
3 453 428 429
3 453 454 428
3 453 455 454
3 453 456 455
3 453 451 456
3 453 450 451
3 457 451 458
3 457 456 451
3 457 455 456
3 457 459 455
3 457 460 459
3 457 461 460
3 457 462 461
3 457 458 462
3 463 447 464
3 463 452 447
3 463 451 452
3 463 458 451
3 463 462 458
3 463 465 462
3 463 466 465
3 463 464 466
3 467 444 468
3 467 448 444
3 467 447 448
3 467 464 447
3 467 466 464
3 467 469 466
3 467 470 469
3 467 468 470
3 471 22 472
3 471 442 22
3 471 444 442
3 471 468 444
3 471 470 468
3 471 472 470
3 473 22 474
3 473 472 22
3 473 470 472
3 473 475 470
3 473 476 475
3 473 474 476
3 477 470 475
3 477 469 470
3 477 466 469
3 477 478 466
3 477 479 478
3 477 480 479
3 477 476 480
3 477 475 476
3 481 466 478
3 481 465 466
3 481 462 465
3 481 482 462
3 481 483 482
3 481 484 483
3 481 479 484
3 481 478 479
3 485 462 482
3 485 461 462
3 485 460 461
3 485 486 460
3 485 487 486
3 485 488 487
3 485 483 488
3 485 482 483
3 489 483 490
3 489 488 483
3 489 487 488
3 489 491 487
3 489 492 491
3 489 493 492
3 489 494 493
3 489 490 494
3 495 479 496
3 495 484 479
3 495 483 484
3 495 490 483
3 495 494 490
3 495 497 494
3 495 498 497
3 495 496 498
3 499 476 500
3 499 480 476
3 499 479 480
3 499 496 479
3 499 498 496
3 499 501 498
3 499 502 501
3 499 500 502
3 503 22 504
3 503 474 22
3 503 476 474
3 503 500 476
3 503 502 500
3 503 504 502
3 505 22 24
3 505 504 22
3 505 502 504
3 505 506 502
3 505 16 506
3 505 24 16
3 507 502 506
3 507 501 502
3 507 498 501
3 507 508 498
3 507 10 508
3 507 18 10
3 507 16 18
3 507 506 16
3 509 498 508
3 509 497 498
3 509 494 497
3 509 510 494
3 509 6 510
3 509 12 6
3 509 10 12
3 509 508 10
3 511 494 510
3 511 493 494
3 511 492 493
3 511 512 492
3 511 8 512
3 511 7 8
3 511 6 7
3 511 510 6
