ply
format ascii 1.0
element vertex 772
property float x
property float y
property float z
property float nx
property float ny
property float nz
property float u
property float v
element face 1536
property list uchar int vertex_indices
end_header
2.173873 1.205825 1.462368 -0.160197481 -0.987084478 0.000999984275 0 0
2.175969 1.20586 1.460204 -0.401728088 -0.804856273 -0.436830542 0 0
2.176087 1.205825 1.460332 -0.0679039773 -0.994958276 -0.0738043228 0 0
2.173755 1.20586 1.46224 -0.516718724 -0.790828656 -0.328011886 0 0
2.173699 1.205888 1.462352 -0.697336336 -0.716737347 0.00310016154 0 0
2.173756 1.20586 1.462475 -0.546702725 -0.776503871 0.313301562 0 0
2.174086 1.20586 1.462833 -0.454895601 -0.786192398 0.418295955 0 0
2.174202 1.205825 1.462726 -0.0811002226 -0.993902728 0.0747002051 0 0
2.176416 1.205825 1.46069 0 -1 0 0 0
2.182418 1.205825 1.45451 -0.0679034757 -0.994950928 -0.0739037829 0 0
2.190833 1.20586 1.446535 -0.40211062 -0.80462125 -0.436911539 0 0
2.190951 1.205825 1.446663 -0.0678039307 -0.994957679 -0.0739042844 0 0
2.1823 1.20586 1.454382 -0.402023989 -0.804548009 -0.437126084 0 0
2.182747 1.205825 1.454868 0 -1 0 0 0
2.191281 1.205825 1.447021 0 -1 0 0 0
2.174875 1.205825 1.463458 -0.0810020875 -0.993925614 0.0745019199 0 0
2.177089 1.205825 1.461422 0 -1 0 0 0
2.174759 1.20586 1.463565 -0.455089963 -0.786082663 0.418290775 0 0
2.175604 1.20586 1.464484 -0.454624157 -0.786441789 0.418122218 0 0
2.175721 1.205825 1.464377 -0.0810026905 -0.993933014 0.0744024713 0 0
2.177935 1.205825 1.462341 0 -1 0 0 0
2.183421 1.205825 1.4556 0 -1 0 0 0
2.191954 1.205825 1.447754 0 -1 0 0 0
2.184266 1.205825 1.456519 0 -1 0 0 0
2.192799 1.205825 1.448673 0 -1 0 0 0
2.199771 1.205825 1.438552 -0.0679039773 -0.994958276 -0.0738043228 0 0
2.206415 1.20586 1.432206 -0.40181195 -0.804823936 -0.436812991 0 0
2.206533 1.205825 1.432335 -0.0678044315 -0.994965028 -0.0738048237 0 0
2.199653 1.20586 1.438424 -0.401782362 -0.804964663 -0.436580835 0 0
2.200101 1.205825 1.438911 0 -1 0 0 0
2.206862 1.205825 1.432693 0 -1 0 0 0
2.20889 1.205825 1.430167 0.0143006039 -0.987141688 -0.159206723 0 0
2.208889 1.205888 1.429992 0.062104377 -0.717050536 -0.694248929 0 0
2.209007 1.20586 1.43006 0.357892504 -0.77678373 -0.518189147 0 0
2.208772 1.20586 1.430039 -0.283794713 -0.791085262 -0.541889905 0 0
2.20922 1.205825 1.430525 0.0810014836 -0.993918204 -0.0746013663 0 0
2.209336 1.20586 1.430418 0.454619583 -0.786233868 -0.418518028 0 0
2.200774 1.205825 1.439643 0 -1 0 0 0
2.207536 1.205825 1.433425 0 -1 0 0 0
2.201619 1.205825 1.440562 0 -1 0 0 0
2.208381 1.205825 1.434344 0 -1 0 0 0
2.209893 1.205825 1.431257 0.0811002226 -0.993902728 -0.0747002051 0 0
2.21001 1.20586 1.43115 0.455104374 -0.785907553 -0.418604023 0 0
2.210738 1.205825 1.432176 0.0810996164 -0.993895299 -0.0747996462 0 0
2.210855 1.20586 1.432069 0.454492317 -0.786586703 -0.417992934 0 0
2.176566 1.205825 1.465296 -0.081100828 -0.993910148 0.0746007617 0 0
2.17878 1.205825 1.463261 0 -1 0 0 0
2.176449 1.20586 1.465403 -0.454511313 -0.786619579 0.417910402 0 0
2.177123 1.20586 1.466136 -0.454914628 -0.786225281 0.418213448 0 0
2.177239 1.205825 1.466028 -0.081100828 -0.993910148 0.0746007617 0 0
2.179453 1.205825 1.463993 0 -1 0 0 0
2.185111 1.205825 1.457439 0 -1 0 0 0
2.193644 1.205825 1.449592 0 -1 0 0 0
2.185784 1.205825 1.458171 0 -1 0 0 0
2.194317 1.205825 1.450324 0 -1 0 0 0
2.177568 1.205825 1.466387 -0.0142994199 -0.987159952 0.159093546 0 0
2.179782 1.205825 1.464351 0.0679039773 -0.994958276 0.0738043228 0 0
2.177452 1.20586 1.466494 -0.358324449 -0.776152959 0.518835401 0 0
2.17757 1.205888 1.466561 -0.0613987303 -0.716785177 0.694585636 0 0
2.177686 1.20586 1.466515 0.283992727 -0.790879746 0.542086117 0 0
2.1799 1.20586 1.464479 0.401928148 -0.804756359 0.436830592 0 0
2.186114 1.205825 1.458529 0.0678044315 -0.994965028 0.0738048237 0 0
2.194647 1.205825 1.450682 0.0678044315 -0.994965028 0.0738048237 0 0
2.186232 1.20586 1.458657 0.401910588 -0.804721201 0.436911511 0 0
2.194765 1.20586 1.45081 0.401910588 -0.804721201 0.436911511 0 0
2.202464 1.205825 1.441481 0 -1 0 0 0
2.209226 1.205825 1.435263 0 -1 0 0 0
2.203138 1.205825 1.442213 0 -1 0 0 0
2.209899 1.205825 1.435995 0 -1 0 0 0
2.211583 1.205825 1.433095 0.081100828 -0.993910148 -0.0746007617 0 0
2.2117 1.20586 1.432988 0.454107818 -0.787013549 -0.417607189 0 0
2.212256 1.205825 1.433828 0.081100828 -0.993910148 -0.0746007617 0 0
2.212373 1.20586 1.43372 0.454605146 -0.786408902 -0.418204734 0 0
2.203467 1.205825 1.442571 0.0678044315 -0.994965028 0.0738048237 0 0
2.210228 1.205825 1.436354 0.0678044315 -0.994965028 0.0738048237 0 0
2.203585 1.20586 1.4427 0.401713299 -0.804926648 0.436714458 0 0
2.210347 1.20586 1.436482 0.402122598 -0.804445207 0.437224571 0 0
2.212586 1.205825 1.434186 0.160408183 -0.987050356 -0.000900045917 0 0
2.212702 1.20586 1.434079 0.546493937 -0.776491385 -0.31369652 0 0
2.212704 1.20586 1.434314 0.516698654 -0.79059794 0.328599144 0 0
2.21276 1.205888 1.434202 0.6970322 -0.717033124 -0.00310014321 0 0
2.212586 1.21175 1.434186 0.160310717 0.987065988 -0.00110007354 0 0
2.212373 1.211714 1.43372 0.454624157 0.786441789 -0.418122218 0 0
2.212256 1.21175 1.433828 0.0811002226 0.993902728 -0.0747002051 0 0
2.212702 1.211714 1.434079 0.546493937 0.776491385 -0.31369652 0 0
2.21276 1.211687 1.434202 0.697133146 0.716934087 -0.00330015691 0 0
2.212704 1.211714 1.434314 0.516698654 0.79059794 0.328599144 0 0
2.210347 1.211714 1.436482 0.402105014 0.804410031 0.437305453 0 0
2.210228 1.21175 1.436354 0.0678044315 0.994965028 0.0738048237 0 0
2.209899 1.21175 1.435995 0 1 0 0 0
2.211583 1.21175 1.433095 0.0811014327 0.993917558 -0.0745013161 0 0
2.210855 1.211714 1.432069 0.454530307 0.786652452 -0.41782786 0 0
2.210738 1.21175 1.432176 0.0811002226 0.993902728 -0.0747002051 0 0
2.2117 1.211714 1.432988 0.454107818 0.787013549 -0.417607189 0 0
2.209226 1.21175 1.435263 0 1 0 0 0
2.208381 1.21175 1.434344 0 1 0 0 0
2.203467 1.21175 1.442571 0.0678039307 0.994957679 0.0739042844 0 0
2.203138 1.21175 1.442213 0 1 0 0 0
2.203585 1.211714 1.4427 0.401695754 0.804891492 0.436795383 0 0
2.194765 1.211714 1.45081 0.401794397 0.804788777 0.436893908 0 0
2.194647 1.21175 1.450682 0.0678039307 0.994957679 0.0739042844 0 0
2.194317 1.21175 1.450324 0 1 0 0 0
2.202464 1.21175 1.441481 0 1 0 0 0
2.201619 1.21175 1.440562 0 1 0 0 0
2.193644 1.21175 1.449592 0 1 0 0 0
2.192799 1.21175 1.448673 0 1 0 0 0
2.209893 1.21175 1.431257 0.081100828 0.993910148 -0.0746007617 0 0
2.209336 1.211714 1.430418 0.454720231 0.786334985 -0.418218607 0 0
2.20922 1.21175 1.430525 0.0810026905 0.993933014 -0.0744024713 0 0
2.21001 1.211714 1.43115 0.455106697 0.786011566 -0.418406157 0 0
2.207536 1.21175 1.433425 0 1 0 0 0
2.206862 1.21175 1.432693 0 1 0 0 0
2.20889 1.21175 1.430167 0.0142999203 0.987094497 -0.159499111 0 0
2.208889 1.211687 1.429992 0.0622000967 0.716701114 -0.69460108 0 0
2.208772 1.211714 1.430039 -0.283594178 0.790883763 -0.542288867 0 0
2.209007 1.211714 1.43006 0.357988942 0.776676009 -0.51828399 0 0
2.206533 1.21175 1.432335 -0.0678039307 0.994957679 -0.0739042844 0 0
2.206415 1.211714 1.432206 -0.401725314 0.804750709 -0.437027538 0 0
2.200774 1.21175 1.439643 0 1 0 0 0
2.200101 1.21175 1.438911 0 1 0 0 0
2.191954 1.21175 1.447754 0 1 0 0 0
2.191281 1.21175 1.447021 0 1 0 0 0
2.199771 1.21175 1.438552 -0.0678039307 0.994957679 -0.0739042844 0 0
2.199653 1.211714 1.438424 -0.401710537 0.804821111 -0.43691146 0 0
2.190951 1.21175 1.446663 -0.0678039307 0.994957679 -0.0739042844 0 0
2.190833 1.211714 1.446535 -0.402023989 0.804548009 -0.437126084 0 0
2.186114 1.21175 1.458529 0.0678039307 0.994957679 0.0739042844 0 0
2.185784 1.21175 1.458171 0 1 0 0 0
2.186232 1.211714 1.458657 0.401893027 0.804686039 0.436992418 0 0
2.1799 1.211714 1.464479 0.401809175 0.804718376 0.437009979 0 0
2.179782 1.21175 1.464351 0.0679034757 0.994950928 0.0739037829 0 0
2.179453 1.21175 1.463993 0 1 0 0 0
2.185111 1.21175 1.457439 0 1 0 0 0
2.184266 1.21175 1.456519 0 1 0 0 0
2.17878 1.21175 1.463261 0 1 0 0 0
2.177935 1.21175 1.462341 0 1 0 0 0
2.177568 1.21175 1.466387 -0.0142999203 0.987094497 0.159499111 0 0
2.177239 1.21175 1.466028 -0.0811014327 0.993917558 0.0745013161 0 0
2.177686 1.211714 1.466515 0.283921958 0.790661148 0.542441951 0 0
2.17757 1.211687 1.466561 -0.0613993964 0.716292959 0.695093167 0 0
2.177452 1.211714 1.466494 -0.358200099 0.776100213 0.519000143 0 0
2.177123 1.211714 1.466136 -0.454914628 0.786225281 0.418213448 0 0
2.176566 1.21175 1.465296 -0.0811014327 0.993917558 0.0745013161 0 0
2.175721 1.21175 1.464377 -0.0810020875 0.993925614 0.0745019199 0 0
2.176449 1.211714 1.465403 -0.454396215 0.786693447 0.417896519 0 0
2.175604 1.211714 1.464484 -0.454509065 0.786515687 0.418108339 0 0
2.183421 1.21175 1.4556 0 1 0 0 0
2.182747 1.21175 1.454868 0 1 0 0 0
2.177089 1.21175 1.461422 0 1 0 0 0
2.176416 1.21175 1.46069 0 1 0 0 0
2.182418 1.21175 1.45451 -0.0679029735 0.99494357 -0.0740032407 0 0
2.1823 1.211714 1.454382 -0.402105014 0.804410031 -0.437305453 0 0
2.176087 1.21175 1.460332 -0.0679034757 0.994950928 -0.0739037829 0 0
2.175969 1.211714 1.460204 -0.402023989 0.804548009 -0.437126084 0 0
2.174875 1.21175 1.463458 -0.0810020875 0.993925614 0.0745019199 0 0
2.174202 1.21175 1.462726 -0.0811014327 0.993917558 0.0745013161 0 0
2.174759 1.211714 1.463565 -0.455008361 0.786014443 0.41850769 0 0
2.174086 1.211714 1.462833 -0.454835315 0.786261048 0.418232473 0 0
2.173873 1.21175 1.462368 -0.16019751 0.987084656 0.000799987564 0 0
2.173755 1.211714 1.46224 -0.517027276 0.790541706 -0.328217316 0 0
2.173756 1.211714 1.462475 -0.546685595 0.77647954 0.313391742 0 0
2.173699 1.211687 1.462352 -0.697538345 0.716539389 0.00340018691 0 0
2.208733 1.211608 1.429996 -0.513136011 0.254017826 -0.819857536 0 0
2.208889 1.211166 1.429931 0.0714034017 0 -0.99744752 0 0
2.208733 1.211166 1.429996 -0.537224874 0 -0.843439052 0 0
2.208889 1.211608 1.429931 0.0664991854 0.257496846 -0.963988191 0 0
2.206375 1.211608 1.432163 -0.655715731 0.247705943 -0.71321711 0 0
2.206375 1.211166 1.432163 -0.676833352 0 -0.736136274 0 0
2.208733 1.210126 1.429996 -0.537224874 0 -0.843439052 0 0
2.208889 1.208787 1.429931 0.0715028956 0 -0.997440392 0 0
2.208733 1.208787 1.429996 -0.537224874 0 -0.843439052 0 0
2.208889 1.210126 1.429931 0.0714034017 0 -0.99744752 0 0
2.206375 1.210126 1.432163 -0.676887539 0 -0.736086449 0 0
2.206375 1.208787 1.432163 -0.676887539 0 -0.736086449 0 0
2.199614 1.211608 1.438381 -0.655786996 0.247895084 -0.71308586 0 0
2.199614 1.211166 1.438381 -0.676887539 0 -0.736086449 0 0
2.190794 1.211608 1.446492 -0.655925195 0.247409503 -0.713127392 0 0
2.190794 1.211166 1.446492 -0.676887539 0 -0.736086449 0 0
2.199614 1.210126 1.438381 -0.676887539 0 -0.736086449 0 0
2.199614 1.208787 1.438381 -0.676887539 0 -0.736086449 0 0
2.190794 1.210126 1.446492 -0.676887539 0 -0.736086449 0 0
2.190794 1.208787 1.446492 -0.676887539 0 -0.736086449 0 0
2.208733 1.207448 1.429996 -0.537224874 0 -0.843439052 0 0
2.208889 1.206408 1.429931 0.0714034017 0 -0.99744752 0 0
2.208733 1.206408 1.429996 -0.537224874 0 -0.843439052 0 0
2.208889 1.207448 1.429931 0.0714034017 0 -0.99744752 0 0
2.206375 1.207448 1.432163 -0.676887539 0 -0.736086449 0 0
2.206375 1.206408 1.432163 -0.676833352 0 -0.736136274 0 0
2.208733 1.205967 1.429996 -0.513312374 -0.254106125 -0.81971976 0 0
2.208889 1.205967 1.429931 0.0663979178 -0.257591922 -0.96396977 0 0
2.206375 1.205967 1.432163 -0.655866269 -0.24772503 -0.713072049 0 0
2.199614 1.207448 1.438381 -0.676887539 0 -0.736086449 0 0
2.199614 1.206408 1.438381 -0.676833352 0 -0.736136274 0 0
2.190794 1.207448 1.446492 -0.676887539 0 -0.736086449 0 0
2.190794 1.206408 1.446492 -0.676833352 0 -0.736136274 0 0
2.199614 1.205967 1.438381 -0.655864261 -0.248024301 -0.712969857 0 0
2.190794 1.205967 1.446492 -0.655908963 -0.247503382 -0.713109745 0 0
2.182261 1.211608 1.454339 -0.655894641 0.24729798 -0.713194173 0 0
2.182261 1.211166 1.454339 -0.676887539 0 -0.736086449 0 0
2.175929 1.211608 1.460161 -0.655821433 0.247408085 -0.713223309 0 0
2.175929 1.211166 1.460161 -0.676887539 0 -0.736086449 0 0
2.182261 1.210126 1.454339 -0.676887539 0 -0.736086449 0 0
2.182261 1.208787 1.454339 -0.676887539 0 -0.736086449 0 0
2.175929 1.210126 1.460161 -0.676887539 0 -0.736086449 0 0
2.175929 1.208787 1.460161 -0.676937365 0 -0.736040627 0 0
2.173715 1.211608 1.462197 -0.773951775 0.253616966 -0.580238816 0 0
2.173715 1.211166 1.462197 -0.795440903 0 -0.606031163 0 0
2.173638 1.211608 1.462347 -0.966214141 0.257303766 -0.0150002195 0 0
2.173638 1.211166 1.462347 -0.999918074 0 -0.0128002314 0 0
2.173715 1.210126 1.462197 -0.795477628 0 -0.605982957 0 0
2.173715 1.208787 1.462197 -0.795525831 0 -0.605919675 0 0
2.173638 1.210126 1.462347 -0.999919349 0 -0.0127002458 0 0
2.173638 1.208787 1.462347 -0.999920614 0 -0.0126002598 0 0
2.182261 1.207448 1.454339 -0.676887539 0 -0.736086449 0 0
2.182261 1.206408 1.454339 -0.676833352 0 -0.736136274 0 0
2.175929 1.207448 1.460161 -0.676887539 0 -0.736086449 0 0
2.175929 1.206408 1.460161 -0.676887539 0 -0.736086449 0 0
2.182261 1.205967 1.454339 -0.655925195 -0.247409503 -0.713127392 0 0
2.175929 1.205967 1.460161 -0.65580325 -0.247801228 -0.713103533 0 0
2.173715 1.207448 1.462197 -0.795477628 0 -0.605982957 0 0
2.173715 1.206408 1.462197 -0.795440903 0 -0.606031163 0 0
2.173638 1.207448 1.462347 -0.999919349 0 -0.0127002458 0 0
2.173638 1.206408 1.462347 -0.999918074 0 -0.0128002314 0 0
2.173715 1.205967 1.462197 -0.773898441 -0.254099488 -0.580098831 0 0
2.173638 1.205967 1.462347 -0.966154831 -0.257514614 -0.0152008627 0 0
2.173717 1.211608 1.462511 -0.80791371 0.237304027 0.539409154 0 0
2.173717 1.211166 1.462511 -0.827281581 0 0.561787492 0 0
2.174047 1.211608 1.462869 -0.716698104 0.227599398 0.659198256 0 0
2.174047 1.211166 1.462869 -0.736040627 0 0.676937365 0 0
2.173717 1.210126 1.462511 -0.827281581 0 0.561787492 0 0
2.173717 1.208787 1.462511 -0.827281581 0 0.561787492 0 0
2.174047 1.210126 1.462869 -0.736040627 0 0.676937365 0 0
2.174047 1.208787 1.462869 -0.736040627 0 0.676937365 0 0
2.17472 1.211608 1.463601 -0.716795638 0.227298617 0.659195989 0 0
2.17472 1.211166 1.463601 -0.736136274 0 0.676833352 0 0
2.175565 1.211608 1.46452 -0.7166314 0.22800999 0.65912888 0 0
2.175565 1.211166 1.46452 -0.736136274 0 0.676833352 0 0
2.17472 1.210126 1.463601 -0.736136274 0 0.676833352 0 0
2.17472 1.208787 1.463601 -0.736136274 0 0.676833352 0 0
2.175565 1.210126 1.46452 -0.736136274 0 0.676833352 0 0
2.175565 1.208787 1.46452 -0.736136274 0 0.676833352 0 0
2.173717 1.207448 1.462511 -0.827281581 0 0.561787492 0 0
2.173717 1.206408 1.462511 -0.827281581 0 0.561787492 0 0
2.174047 1.207448 1.462869 -0.736040627 0 0.676937365 0 0
2.174047 1.206408 1.462869 -0.736040627 0 0.676937365 0 0
2.173717 1.205967 1.462511 -0.807938111 -0.237411199 0.539325441 0 0
2.174047 1.205967 1.462869 -0.716729032 -0.227709224 0.659126698 0 0
2.17472 1.207448 1.463601 -0.736136274 0 0.676833352 0 0
2.17472 1.206408 1.463601 -0.736086449 0 0.676887539 0 0
2.175565 1.207448 1.46452 -0.736136274 0 0.676833352 0 0
2.175565 1.206408 1.46452 -0.736136274 0 0.676833352 0 0
2.17472 1.205967 1.463601 -0.716891501 -0.227297305 0.659092187 0 0
2.175565 1.205967 1.46452 -0.716696377 -0.227898848 0.659096668 0 0
2.17641 1.211608 1.465439 -0.716533696 0.228310737 0.659130996 0 0
2.17641 1.211166 1.465439 -0.736040627 0 0.676937365 0 0
2.177084 1.211608 1.466171 -0.716810286 0.227503265 0.659109458 0 0
2.177084 1.211166 1.466171 -0.736136274 0 0.676833352 0 0
2.17641 1.210126 1.465439 -0.736040627 0 0.676937365 0 0
2.17641 1.208787 1.465439 -0.736086449 0 0.676887539 0 0
2.177084 1.210126 1.466171 -0.736136274 0 0.676833352 0 0
2.177084 1.208787 1.466171 -0.736136274 0 0.676833352 0 0
2.177413 1.211608 1.466529 -0.605200421 0.236600164 0.760100528 0 0
2.177413 1.211166 1.466529 -0.629111922 0 0.77731473 0 0
2.17757 1.211608 1.466622 -0.0655039477 0.257115496 0.964158107 0 0
2.17757 1.211166 1.466622 -0.0707993313 0 0.997490579 0 0
2.177413 1.210126 1.466529 -0.62894215 0 0.777452103 0 0
2.177413 1.208787 1.466529 -0.628893252 0 0.777491658 0 0
2.17757 1.210126 1.466622 -0.0707993313 0 0.997490579 0 0
2.17757 1.208787 1.466622 -0.0708988281 0 0.997483512 0 0
2.17641 1.207448 1.465439 -0.736040627 0 0.676937365 0 0
2.17641 1.206408 1.465439 -0.736040627 0 0.676937365 0 0
2.177084 1.207448 1.466171 -0.736136274 0 0.676833352 0 0
2.177084 1.206408 1.466171 -0.736136274 0 0.676833352 0 0
2.17641 1.205967 1.465439 -0.716629579 -0.228309424 0.659027202 0 0
2.177084 1.205967 1.466171 -0.716857534 -0.22751826 0.659052894 0 0
2.177413 1.207448 1.466529 -0.629002591 0 0.777403203 0 0
2.177413 1.206408 1.466529 -0.629111922 0 0.77731473 0 0
2.17757 1.207448 1.466622 -0.0707993313 0 0.997490579 0 0
2.17757 1.206408 1.466622 -0.0706998324 0 0.997497636 0 0
2.177413 1.205967 1.466529 -0.605214737 -0.236505759 0.760118509 0 0
2.17757 1.205967 1.466622 -0.065500578 -0.257302271 0.964108508 0 0
2.177726 1.211608 1.466558 0.513701146 0.253700566 0.819601828 0 0
2.177726 1.211166 1.466558 0.5376 0 0.8432 0 0
2.17994 1.211608 1.464522 0.655819498 0.247707364 0.713121201 0 0
2.17994 1.211166 1.464522 0.676833352 0 0.736136274 0 0
2.177726 1.210126 1.466558 0.537412455 0 0.843319544 0 0
2.177726 1.208787 1.466558 0.537224874 0 0.843439052 0 0
2.17994 1.210126 1.464522 0.676887539 0 0.736086449 0 0
2.17994 1.208787 1.464522 0.676887539 0 0.736086449 0 0
2.186271 1.211608 1.4587 0.655876484 0.247691119 0.713074433 0 0
2.186271 1.211166 1.4587 0.676887539 0 0.736086449 0 0
2.194804 1.211608 1.450853 0.655850017 0.247818899 0.71305438 0 0
2.194804 1.211166 1.450853 0.676887539 0 0.736086449 0 0
2.186271 1.210126 1.4587 0.676887539 0 0.736086449 0 0
2.186271 1.208787 1.4587 0.676887539 0 0.736086449 0 0
2.194804 1.210126 1.450853 0.676887539 0 0.736086449 0 0
2.194804 1.208787 1.450853 0.676887539 0 0.736086449 0 0
2.177726 1.207448 1.466558 0.537412455 0 0.843319544 0 0
2.177726 1.206408 1.466558 0.5376 0 0.8432 0 0
2.17994 1.207448 1.464522 0.676887539 0 0.736086449 0 0
2.17994 1.206408 1.464522 0.676833352 0 0.736136274 0 0
2.177726 1.205967 1.466558 0.513816859 -0.253708324 0.819526889 0 0
2.17994 1.205967 1.464522 0.655819498 -0.247707364 0.713121201 0 0
2.186271 1.207448 1.4587 0.676887539 0 0.736086449 0 0
2.186271 1.206408 1.4587 0.676887539 0 0.736086449 0 0
2.194804 1.207448 1.450853 0.676887539 0 0.736086449 0 0
2.194804 1.206408 1.450853 0.676833352 0 0.736136274 0 0
2.186271 1.205967 1.4587 0.655835741 -0.247613494 0.713138864 0 0
2.194804 1.205967 1.450853 0.655835741 -0.247613494 0.713138864 0 0
2.203624 1.211608 1.442742 0.655817497 0.248006617 0.713019024 0 0
2.203624 1.211166 1.442742 0.676887539 0 0.736086449 0 0
2.210386 1.211608 1.436525 0.655910859 0.247204092 0.713211807 0 0
2.210386 1.211166 1.436525 0.676887539 0 0.736086449 0 0
2.203624 1.210126 1.442742 0.676833352 0 0.736136274 0 0
2.203624 1.208787 1.442742 0.676887539 0 0.736086449 0 0
2.210386 1.210126 1.436525 0.676887539 0 0.736086449 0 0
2.210386 1.208787 1.436525 0.676887539 0 0.736086449 0 0
2.212743 1.211608 1.434357 0.773632103 0.253710528 0.580624093 0 0
2.212743 1.211166 1.434357 0.79525953 0 0.606269148 0 0
2.212821 1.211608 1.434207 0.966055791 0.257914895 0.014700849 0 0
2.212821 1.211166 1.434207 0.999921869 0 0.0125002734 0 0
2.212743 1.210126 1.434357 0.795222772 0 0.606317362 0 0
2.212743 1.208787 1.434357 0.795222772 0 0.606317362 0 0
2.212821 1.210126 1.434207 0.999920614 0 0.0126002598 0 0
2.212821 1.208787 1.434207 0.999919349 0 0.0127002458 0 0
2.203624 1.207448 1.442742 0.676887539 0 0.736086449 0 0
2.203624 1.206408 1.442742 0.676833352 0 0.736136274 0 0
2.210386 1.207448 1.436525 0.676887539 0 0.736086449 0 0
2.210386 1.206408 1.436525 0.676887539 0 0.736086449 0 0
2.203624 1.205967 1.442742 0.655786996 -0.247895084 0.71308586 0 0
2.210386 1.205967 1.436525 0.655927071 -0.247110198 0.713229436 0 0
2.212743 1.207448 1.434357 0.795222772 0 0.606317362 0 0
2.212743 1.206408 1.434357 0.79525953 0 0.606269148 0 0
2.212821 1.207448 1.434207 0.999921869 0 0.0125002734 0 0
2.212821 1.206408 1.434207 0.999921869 0 0.0125002734 0 0
2.212743 1.205967 1.434357 0.773632103 -0.253710528 0.580624093 0 0
2.212821 1.205967 1.434207 0.966003082 -0.258100823 0.0149000475 0 0
2.209046 1.205967 1.430024 0.60519203 -0.237296875 -0.759889992 0 0
2.209046 1.206408 1.430024 0.629111922 0 -0.77731473 0 0
2.209375 1.205967 1.430382 0.716633149 -0.227710533 -0.659230493 0 0
2.209375 1.206408 1.430382 0.736086449 0 -0.676887539 0 0
2.209046 1.207448 1.430024 0.629221243 0 -0.77722624 0 0
2.209046 1.208787 1.430024 0.629221243 0 -0.77722624 0 0
2.209375 1.207448 1.430382 0.736086449 0 -0.676887539 0 0
2.209375 1.208787 1.430382 0.736086449 0 -0.676887539 0 0
2.210048 1.205967 1.431114 0.716859183 -0.227218759 -0.659154419 0 0
2.210048 1.206408 1.431114 0.736136274 0 -0.676833352 0 0
2.210893 1.205967 1.432034 0.716725448 -0.228308106 -0.658923395 0 0
2.210893 1.206408 1.432034 0.736040627 0 -0.676937365 0 0
2.210048 1.207448 1.431114 0.736136274 0 -0.676833352 0 0
2.210048 1.208787 1.431114 0.736136274 0 -0.676833352 0 0
2.210893 1.207448 1.432034 0.736086449 0 -0.676887539 0 0
2.210893 1.208787 1.432034 0.736086449 0 -0.676887539 0 0
2.209046 1.210126 1.430024 0.629221243 0 -0.77722624 0 0
2.209046 1.211166 1.430024 0.629111922 0 -0.77731473 0 0
2.209375 1.210126 1.430382 0.736086449 0 -0.676887539 0 0
2.209375 1.211166 1.430382 0.736086449 0 -0.676887539 0 0
2.209046 1.211608 1.430024 0.605238019 0.237314907 -0.759847731 0 0
2.209375 1.211608 1.430382 0.716633149 0.227710533 -0.659230493 0 0
2.210048 1.210126 1.431114 0.736136274 0 -0.676833352 0 0
2.210048 1.211166 1.431114 0.736136274 0 -0.676833352 0 0
2.210893 1.210126 1.432034 0.736040627 0 -0.676937365 0 0
2.210893 1.211166 1.432034 0.736040627 0 -0.676937365 0 0
2.210048 1.211608 1.431114 0.716826591 0.227408436 -0.659124451 0 0
2.210893 1.211608 1.432034 0.716709081 0.228402894 -0.658908348 0 0
2.211739 1.205967 1.432953 0.716513449 -0.229004298 -0.658912368 0 0
2.211739 1.206408 1.432953 0.736040627 0 -0.676937365 0 0
2.212412 1.205967 1.433685 0.7166314 -0.22800999 -0.65912888 0 0
2.212412 1.206408 1.433685 0.736136274 0 -0.676833352 0 0
2.211739 1.207448 1.432953 0.736040627 0 -0.676937365 0 0
2.211739 1.208787 1.432953 0.736040627 0 -0.676937365 0 0
2.212412 1.207448 1.433685 0.736136274 0 -0.676833352 0 0
2.212412 1.208787 1.433685 0.736136274 0 -0.676833352 0 0
2.212741 1.205967 1.434043 0.807635096 -0.237310313 -0.539823459 0 0
2.212741 1.206408 1.434043 0.827078984 0 -0.562085718 0 0
2.212741 1.207448 1.434043 0.827125472 0 -0.562017308 0 0
2.212741 1.208787 1.434043 0.827125472 0 -0.562017308 0 0
2.211739 1.210126 1.432953 0.736040627 0 -0.676937365 0 0
2.211739 1.211166 1.432953 0.736040627 0 -0.676937365 0 0
2.212412 1.210126 1.433685 0.736136274 0 -0.676833352 0 0
2.212412 1.211166 1.433685 0.736136274 0 -0.676833352 0 0
2.211739 1.211608 1.432953 0.716529855 0.228909538 -0.658927455 0 0
2.212412 1.211608 1.433685 0.71671093 0.228103479 -0.65901005 0 0
2.212741 1.210126 1.434043 0.827125472 0 -0.562017308 0 0
2.212741 1.211166 1.434043 0.827078984 0 -0.562085718 0 0
2.212741 1.211608 1.434043 0.807635096 0.237310313 -0.539823459 0 0
2.276448 1.205825 1.573916 -0.160197496 -0.987084572 0.000899985933 0 0
2.278544 1.20586 1.571751 -0.401826734 -0.804753542 -0.43692907 0 0
2.278662 1.205825 1.57188 -0.0679034757 -0.994950928 -0.0739037829 0 0
2.27633 1.20586 1.573787 -0.5165845 -0.790676276 -0.328590141 0 0
2.276275 1.205888 1.5739 -0.69784251 -0.716243631 0.00330020104 0 0
2.276332 1.20586 1.574023 -0.546606502 -0.776409235 0.313703732 0 0
2.276661 1.20586 1.574381 -0.454509065 -0.786515687 0.418108339 0 0
2.276778 1.205825 1.574274 -0.081100828 -0.993910148 0.0746007617 0 0
2.278992 1.205825 1.572238 0 -1 0 0 0
2.284994 1.205825 1.566058 -0.0679034757 -0.994950928 -0.0739037829 0 0
2.293409 1.20586 1.558082 -0.402105014 -0.804410031 -0.437305453 0 0
2.293527 1.205825 1.558211 -0.0678044315 -0.994965028 -0.0738048237 0 0
2.284876 1.20586 1.565929 -0.401991645 -0.804583277 -0.437090915 0 0
2.285323 1.205825 1.566416 0 -1 0 0 0
2.293856 1.205825 1.558569 0 -1 0 0 0
2.277451 1.205825 1.575006 -0.081100828 -0.993910148 0.0746007617 0 0
2.279665 1.205825 1.57297 0 -1 0 0 0
2.277335 1.20586 1.575113 -0.455008361 -0.786014443 0.41850769 0 0
2.27818 1.20586 1.576032 -0.454797262 -0.786195267 0.418397481 0 0
2.278296 1.205825 1.575925 -0.081100828 -0.993910148 0.0746007617 0 0
2.28051 1.205825 1.573889 0 -1 0 0 0
2.285996 1.205825 1.567148 0 -1 0 0 0
2.294529 1.205825 1.559301 0 -1 0 0 0
2.286841 1.205825 1.568067 0 -1 0 0 0
2.295375 1.205825 1.56022 0 -1 0 0 0
2.302347 1.205825 1.5501 -0.0679039773 -0.994958276 -0.0738043228 0 0
2.30899 1.20586 1.543754 -0.402107827 -0.80451566 -0.437108508 0 0
2.309109 1.205825 1.543882 -0.0677981854 -0.99497337 -0.0736980275 0 0
2.302229 1.20586 1.549972 -0.401991645 -0.804583277 -0.437090915 0 0
2.302676 1.205825 1.550458 0 -1 0 0 0
2.309438 1.205825 1.544241 0 -1 0 0 0
2.311466 1.205825 1.541715 0.0142996473 -0.987175652 -0.158996078 0 0
2.311465 1.205888 1.54154 0.0614024374 -0.717228471 -0.694127554 0 0
2.311583 1.20586 1.541608 0.357796054 -0.776891431 -0.518094285 0 0
2.311348 1.20586 1.541586 -0.283892457 -0.790778989 -0.542285592 0 0
2.311795 1.205825 1.542073 0.0810020875 -0.993925614 -0.0745019199 0 0
2.311912 1.20586 1.541966 0.454933653 -0.786258162 -0.41813093 0 0
2.30335 1.205825 1.551191 0 -1 0 0 0
2.310111 1.205825 1.544973 0 -1 0 0 0
2.304195 1.205825 1.55211 0 -1 0 0 0
2.310956 1.205825 1.545892 0 -1 0 0 0
2.312469 1.205825 1.542805 0.0810020875 -0.993925614 -0.0745019199 0 0
2.312585 1.20586 1.542698 0.45501067 -0.786118435 -0.418309809 0 0
2.313314 1.205825 1.543724 0.0811014327 -0.993917558 -0.0745013161 0 0
2.31343 1.20586 1.543617 0.454396215 -0.786693447 -0.417896519 0 0
2.279141 1.205825 1.576844 -0.081100828 -0.993910148 0.0746007617 0 0
2.281355 1.205825 1.574808 0 -1 0 0 0
2.279025 1.20586 1.576951 -0.454203965 -0.78690687 0.417703647 0 0
2.279698 1.20586 1.577683 -0.454333611 -0.786658195 0.418030925 0 0
2.279815 1.205825 1.577576 -0.081199564 -0.993894663 0.0746995989 0 0
2.282029 1.205825 1.57554 0 -1 0 0 0
2.287687 1.205825 1.568986 0 -1 0 0 0
2.29622 1.205825 1.561139 0 -1 0 0 0
2.28836 1.205825 1.569718 0 -1 0 0 0
2.296893 1.205825 1.561872 0 -1 0 0 0
2.280144 1.205825 1.577935 -0.0144003581 -0.98712455 0.159303962 0 0
2.282358 1.205825 1.575899 0.0677981854 -0.99497337 0.0736980275 0 0
2.280028 1.20586 1.578042 -0.357901756 -0.77670381 0.518302542 0 0
2.280145 1.205888 1.578109 -0.0611042389 -0.716749723 0.694648189 0 0
2.280262 1.20586 1.578063 0.284015188 -0.790842291 0.542128991 0 0
2.282476 1.20586 1.576027 0.401713299 -0.804926648 0.436714458 0 0
2.288689 1.205825 1.570077 0.0678044315 -0.994965028 0.0738048237 0 0
2.297222 1.205825 1.56223 0.0678039307 -0.994957679 0.0739042844 0 0
2.288807 1.20586 1.570205 0.402009214 -0.804618442 0.437010016 0 0
2.297341 1.20586 1.562358 0.402023989 -0.804548009 0.437126084 0 0
2.30504 1.205825 1.553029 0 -1 0 0 0
2.311801 1.205825 1.546811 0 -1 0 0 0
2.305713 1.205825 1.553761 0 -1 0 0 0
2.312475 1.205825 1.547543 0 -1 0 0 0
2.314159 1.205825 1.544643 0.081100828 -0.993910148 -0.0746007617 0 0
2.314276 1.20586 1.544536 0.454011655 -0.787120206 -0.417510718 0 0
2.314832 1.205825 1.545375 0.081100828 -0.993910148 -0.0746007617 0 0
2.314949 1.20586 1.545268 0.454220731 -0.786835912 -0.41781907 0 0
2.306043 1.205825 1.554119 0.0678044315 -0.994965028 0.0738048237 0 0
2.312804 1.205825 1.547901 0.0677981854 -0.99497337 0.0736980275 0 0
2.306161 1.20586 1.554247 0.401925368 -0.804650787 0.437027584 0 0
2.312922 1.20586 1.54803 0.402122598 -0.804445207 0.437224571 0 0
2.315161 1.205825 1.545734 0.160100046 -0.987100286 -0.00100000029 0 0
2.315278 1.20586 1.545626 0.546086771 -0.776981178 -0.313192413 0 0
2.31528 1.20586 1.545862 0.51711436 -0.790321948 0.328609126 0 0
2.315335 1.205888 1.545749 0.697235183 -0.716836172 -0.00300015139 0 0
2.315161 1.21175 1.545734 0.160100075 0.987100464 -0.000800000376 0 0
2.314949 1.211714 1.545268 0.454222937 0.786939738 -0.417621088 0 0
2.314832 1.21175 1.545375 0.0811020365 0.993924958 -0.0744018683 0 0
2.315278 1.211714 1.545626 0.546241811 0.776859463 -0.313223975 0 0
2.315335 1.211687 1.545749 0.697488596 0.716588284 -0.00329994605 0 0
2.31528 1.211714 1.545862 0.517301736 0.790202651 0.328601102 0 0
2.312922 1.211714 1.54803 0.402122598 0.804445207 0.437224571 0 0
2.312804 1.21175 1.547901 0.0678044315 0.994965028 0.0738048237 0 0
2.312475 1.21175 1.547543 0 1 0 0 0
2.314159 1.21175 1.544643 0.081100828 0.993910148 -0.0746007617 0 0
2.31343 1.211714 1.543617 0.454722498 0.78643891 -0.418020682 0 0
2.313314 1.21175 1.543724 0.0810020875 0.993925614 -0.0745019199 0 0
2.314276 1.211714 1.544536 0.454091039 0.787084467 -0.417491761 0 0
2.311801 1.21175 1.546811 0 1 0 0 0
2.310956 1.21175 1.545892 0 1 0 0 0
2.306043 1.21175 1.554119 0.0678044315 0.994965028 0.0738048237 0 0
2.305713 1.21175 1.553761 0 1 0 0 0
2.306161 1.211714 1.554247 0.402023989 0.804548009 0.437126084 0 0
2.297341 1.211714 1.562358 0.402122598 0.804445207 0.437224571 0 0
2.297222 1.21175 1.56223 0.0678039307 0.994957679 0.0739042844 0 0
2.296893 1.21175 1.561872 0 1 0 0 0
2.30504 1.21175 1.553029 0 1 0 0 0
2.304195 1.21175 1.55211 0 1 0 0 0
2.29622 1.21175 1.561139 0 1 0 0 0
2.295375 1.21175 1.56022 0 1 0 0 0
2.312469 1.21175 1.542805 0.0811020365 0.993924958 -0.0744018683 0 0
2.311912 1.211714 1.541966 0.454398435 0.786797289 -0.417698561 0 0
2.311795 1.21175 1.542073 0.081100828 0.993910148 -0.0746007617 0 0
2.312585 1.211714 1.542698 0.454931366 0.786154203 -0.418328843 0 0
2.310111 1.21175 1.544973 0 1 0 0 0
2.309438 1.21175 1.544241 0 1 0 0 0
2.311466 1.21175 1.541715 0.0143998991 0.987093081 -0.159498882 0 0
2.311465 1.211687 1.54154 0.061398866 0.716686763 -0.694687169 0 0
2.311348 1.211714 1.541586 -0.283714295 0.790539832 -0.542727346 0 0
2.311583 1.211714 1.541608 0.357593855 0.776986648 -0.518091097 0 0
2.309109 1.21175 1.543882 -0.0678039307 0.994957679 -0.0739042844 0 0
2.30899 1.211714 1.543754 -0.401988837 0.80447766 -0.437287857 0 0
2.30335 1.21175 1.551191 0 1 0 0 0
2.302676 1.21175 1.550458 0 1 0 0 0
2.294529 1.21175 1.559301 0 1 0 0 0
2.293856 1.21175 1.558569 0 1 0 0 0
2.302347 1.21175 1.5501 -0.0678039307 0.994957679 -0.0739042844 0 0
2.302229 1.211714 1.549972 -0.401907801 0.804615618 -0.437108484 0 0
2.293527 1.21175 1.558211 -0.0678039307 0.994957679 -0.0739042844 0 0
2.293409 1.211714 1.558083 -0.401907801 0.804615618 -0.437108484 0 0
2.288689 1.21175 1.570077 0.0678039307 0.994957679 0.0739042844 0 0
2.28836 1.21175 1.569718 0 1 0 0 0
2.288807 1.211714 1.570205 0.401893027 0.804686039 0.436992418 0 0
2.282476 1.211714 1.576027 0.401725314 0.804750709 0.437027538 0 0
2.282358 1.21175 1.575899 0.0678039307 0.994957679 0.0739042844 0 0
2.282029 1.21175 1.57554 0 1 0 0 0
2.287687 1.21175 1.568986 0 1 0 0 0
2.286841 1.21175 1.568067 0 1 0 0 0
2.281355 1.21175 1.574808 0 1 0 0 0
2.28051 1.21175 1.573889 0 1 0 0 0
2.280144 1.21175 1.577935 -0.0143998991 0.987093081 0.159498882 0 0
2.279815 1.21175 1.577576 -0.081100828 0.993910148 0.0746007617 0 0
2.280262 1.211714 1.578063 0.283998493 0.790595806 0.542497122 0 0
2.280145 1.211687 1.578109 -0.061199754 0.716597119 0.694797207 0 0
2.280028 1.211714 1.578042 -0.357998189 0.77659607 0.518397377 0 0
2.279698 1.211714 1.577683 -0.454415203 0.78672632 0.417813978 0 0
2.279141 1.21175 1.576844 -0.081100828 0.993910148 0.0746007617 0 0
2.278296 1.21175 1.575925 -0.081100828 0.993910148 0.0746007617 0 0
2.279025 1.211714 1.576951 -0.454107818 0.787013549 0.417607189 0 0
2.27818 1.211714 1.576032 -0.454703488 0.786406032 0.418103207 0 0
2.285996 1.21175 1.567148 0 1 0 0 0
2.285323 1.21175 1.566416 0 1 0 0 0
2.279665 1.21175 1.57297 0 1 0 0 0
2.278992 1.21175 1.572238 0 1 0 0 0
2.284994 1.21175 1.566058 -0.0679034757 0.994950928 -0.0739037829 0 0
2.284876 1.211714 1.565929 -0.401710537 0.804821111 -0.43691146 0 0
2.278662 1.21175 1.57188 -0.0679034757 0.994950928 -0.0739037829 0 0
2.278544 1.211714 1.571751 -0.401728088 0.804856273 -0.436830542 0 0
2.277451 1.21175 1.575006 -0.0811014327 0.993917558 0.0745013161 0 0
2.276778 1.21175 1.574274 -0.0811002226 0.993902728 0.0747002051 0 0
2.277335 1.211714 1.575113 -0.454991635 0.786085548 0.418392308 0 0
2.276661 1.211714 1.574381 -0.454701212 0.786302095 0.418301115 0 0
2.276448 1.21175 1.573916 -0.160100046 0.987100286 0.00100000029 0 0
2.27633 1.211714 1.573787 -0.516521235 0.790832512 -0.328313497 0 0
2.276332 1.211714 1.574023 -0.546701908 0.776302709 0.313801095 0 0
2.276275 1.211687 1.5739 -0.697791804 0.716291587 0.00359995772 0 0
2.311309 1.211608 1.541543 -0.51343513 0.253417339 -0.819856097 0 0
2.311464 1.211166 1.541479 0.0708988281 0 -0.997483512 0 0
2.311309 1.211166 1.541543 -0.537412455 0 -0.843319544 0 0
2.311464 1.211608 1.541479 0.0656030962 0.257512154 -0.964045499 0 0
2.308951 1.211608 1.543711 -0.655790878 0.24729656 -0.713290078 0 0
2.308951 1.211166 1.543711 -0.676833352 0 -0.736136274 0 0
2.311309 1.210126 1.541543 -0.537412455 0 -0.843319544 0 0
2.311464 1.208787 1.541479 0.0708988281 0 -0.997483512 0 0
2.311309 1.208787 1.541543 -0.537224874 0 -0.843439052 0 0
2.311464 1.210126 1.541479 0.0709983227 0 -0.997476435 0 0
2.308951 1.210126 1.543711 -0.676887539 0 -0.736086449 0 0
2.308951 1.208787 1.543711 -0.676887539 0 -0.736086449 0 0
2.30219 1.211608 1.549929 -0.655851978 0.247519617 -0.71315652 0 0
2.30219 1.211166 1.549929 -0.676887539 0 -0.736086449 0 0
2.29337 1.211608 1.55804 -0.655908963 0.247503382 -0.713109745 0 0
2.29337 1.211166 1.55804 -0.676887539 0 -0.736086449 0 0
2.30219 1.210126 1.549929 -0.676887539 0 -0.736086449 0 0
2.30219 1.208787 1.549929 -0.676887539 0 -0.736086449 0 0
2.29337 1.210126 1.55804 -0.676887539 0 -0.736086449 0 0
2.29337 1.208787 1.55804 -0.676887539 0 -0.736086449 0 0
2.311309 1.207448 1.541543 -0.537412455 0 -0.843319544 0 0
2.311464 1.206408 1.541479 0.0708988281 0 -0.997483512 0 0
2.311309 1.206408 1.541543 -0.537412455 0 -0.843319544 0 0
2.311464 1.207448 1.541479 0.0709983227 0 -0.997476435 0 0
2.308951 1.207448 1.543711 -0.676887539 0 -0.736086449 0 0
2.308951 1.206408 1.543711 -0.676833352 0 -0.736136274 0 0
2.311309 1.205967 1.541543 -0.513495753 -0.253497904 -0.81979322 0 0
2.311464 1.205967 1.541479 0.0655018337 -0.257607212 -0.964026988 0 0
2.308951 1.205967 1.543711 -0.655853874 -0.247220308 -0.713258589 0 0
2.30219 1.207448 1.549929 -0.676887539 0 -0.736086449 0 0
2.30219 1.206408 1.549929 -0.676833352 0 -0.736136274 0 0
2.29337 1.207448 1.55804 -0.676887539 0 -0.736086449 0 0
2.29337 1.206408 1.55804 -0.676833352 0 -0.736136274 0 0
2.30219 1.205967 1.549929 -0.655821433 -0.247408085 -0.713223309 0 0
2.29337 1.205967 1.55804 -0.655927071 -0.247110198 -0.713229436 0 0
2.284836 1.211608 1.565887 -0.65580325 0.247801228 -0.713103533 0 0
2.284836 1.211166 1.565887 -0.676887539 0 -0.736086449 0 0
2.278505 1.211608 1.571709 -0.655786996 0.247895084 -0.71308586 0 0
2.278505 1.211166 1.571709 -0.676887539 0 -0.736086449 0 0
2.284836 1.210126 1.565887 -0.676887539 0 -0.736086449 0 0
2.284836 1.208787 1.565887 -0.676887539 0 -0.736086449 0 0
2.278505 1.210126 1.571709 -0.676887539 0 -0.736086449 0 0
2.278505 1.208787 1.571709 -0.676887539 0 -0.736086449 0 0
2.276291 1.211608 1.573744 -0.773637747 0.253912389 -0.580528325 0 0
2.276291 1.211166 1.573744 -0.795222772 0 -0.606317362 0 0
2.276214 1.211608 1.573894 -0.966276201 0.257093668 -0.0145996404 0 0
2.276214 1.211166 1.573894 -0.999921869 0 -0.0125002734 0 0
2.276291 1.210126 1.573744 -0.795174555 0 -0.606380596 0 0
2.276291 1.208787 1.573744 -0.795137782 0 -0.606428815 0 0
2.276214 1.210126 1.573894 -0.999920614 0 -0.0126002598 0 0
2.276214 1.208787 1.573894 -0.999919349 0 -0.0127002458 0 0
2.284836 1.207448 1.565887 -0.676887539 0 -0.736086449 0 0
2.284836 1.206408 1.565887 -0.676887539 0 -0.736086449 0 0
2.278505 1.207448 1.571709 -0.676887539 0 -0.736086449 0 0
2.278505 1.206408 1.571709 -0.676887539 0 -0.736086449 0 0
2.284836 1.205967 1.565887 -0.655908963 -0.247503382 -0.713109745 0 0
2.278505 1.205967 1.571709 -0.655819498 -0.247707364 -0.713121201 0 0
2.276291 1.207448 1.573744 -0.795174555 0 -0.606380596 0 0
2.276291 1.206408 1.573744 -0.795222772 0 -0.606317362 0 0
2.276214 1.207448 1.573894 -0.999920614 0 -0.0126002598 0 0
2.276214 1.206408 1.573894 -0.999921869 0 -0.0125002734 0 0
2.276291 1.205967 1.573744 -0.773587182 -0.253695796 -0.580690378 0 0
2.276214 1.205967 1.573894 -0.966298198 -0.256999521 -0.0147999724 0 0
2.276293 1.211608 1.574059 -0.807824825 0.23690728 0.539716586 0 0
2.276293 1.211166 1.574059 -0.827078984 0 0.562085718 0 0
2.276623 1.211608 1.574417 -0.716792241 0.227897533 0.658992866 0 0
2.276623 1.211166 1.574417 -0.736136274 0 0.676833352 0 0
2.276293 1.210126 1.574059 -0.827078984 0 0.562085718 0 0
2.276293 1.208787 1.574059 -0.827125472 0 0.562017308 0 0
2.276623 1.210126 1.574417 -0.736182082 0 0.676783527 0 0
2.276623 1.208787 1.574417 -0.736231905 0 0.676729327 0 0
2.277296 1.211608 1.575149 -0.716730716 0.227409746 0.659228252 0 0
2.277296 1.211166 1.575149 -0.736040627 0 0.676937365 0 0
2.278141 1.211608 1.576068 -0.716743615 0.227913869 0.659040104 0 0
2.278141 1.211166 1.576068 -0.736040627 0 0.676937365 0 0
2.277296 1.210126 1.575149 -0.736040627 0 0.676937365 0 0
2.277296 1.208787 1.575149 -0.736040627 0 0.676937365 0 0
2.278141 1.210126 1.576068 -0.736040627 0 0.676937365 0 0
2.278141 1.208787 1.576068 -0.736086449 0 0.676887539 0 0
2.276293 1.207448 1.574059 -0.827078984 0 0.562085718 0 0
2.276293 1.206408 1.574059 -0.827078984 0 0.562085718 0 0
2.276623 1.207448 1.574417 -0.736182082 0 0.676783527 0 0
2.276623 1.206408 1.574417 -0.736136274 0 0.676833352 0 0
2.276293 1.205967 1.574059 -0.80772733 -0.237008019 0.539818265 0 0
2.276623 1.205967 1.574417 -0.716598707 -0.228199588 0.65909881 0 0
2.277296 1.207448 1.575149 -0.736040627 0 0.676937365 0 0
2.277296 1.206408 1.575149 -0.736040627 0 0.676937365 0 0
2.278141 1.207448 1.576068 -0.736086449 0 0.676887539 0 0
2.278141 1.206408 1.576068 -0.736040627 0 0.676937365 0 0
2.277296 1.205967 1.575149 -0.716795638 -0.227298617 0.659195989 0 0
2.278141 1.205967 1.576068 -0.716714413 -0.227504575 0.659213257 0 0
2.278986 1.211608 1.576987 -0.716529855 0.228909538 0.658927455 0 0
2.278986 1.211166 1.576987 -0.736136274 0 0.676833352 0 0
2.279659 1.211608 1.577719 -0.716531811 0.228610149 0.659029258 0 0
2.279659 1.211166 1.577719 -0.736040627 0 0.676937365 0 0
2.278986 1.210126 1.576987 -0.736136274 0 0.676833352 0 0
2.278986 1.208787 1.576987 -0.736136274 0 0.676833352 0 0
2.279659 1.210126 1.577719 -0.736086449 0 0.676887539 0 0
2.279659 1.208787 1.577719 -0.736086449 0 0.676887539 0 0
2.279989 1.211608 1.578077 -0.605301386 0.237300543 0.75980174 0 0
2.279989 1.211166 1.578077 -0.629330555 0 0.777137731 0 0
2.280146 1.211608 1.57817 -0.0663034817 0.257313512 0.964050624 0 0
2.280146 1.211166 1.57817 -0.0712044077 0 0.997461745 0 0
2.279989 1.210126 1.578077 -0.629221243 0 0.77722624 0 0
2.279989 1.208787 1.578077 -0.629111922 0 0.77731473 0 0
2.280146 1.210126 1.57817 -0.0709983227 0 0.997476435 0 0
2.280146 1.208787 1.57817 -0.0709983227 0 0.997476435 0 0
2.278986 1.207448 1.576987 -0.736136274 0 0.676833352 0 0
2.278986 1.206408 1.576987 -0.736136274 0 0.676833352 0 0
2.279659 1.207448 1.577719 -0.736086449 0 0.676887539 0 0
2.279659 1.206408 1.577719 -0.736040627 0 0.676937365 0 0
2.278986 1.205967 1.576987 -0.716611301 -0.228703607 0.658910391 0 0
2.279659 1.205967 1.577719 -0.716531811 -0.228610149 0.659029258 0 0
2.279989 1.207448 1.578077 -0.629221243 0 0.77722624 0 0
2.279989 1.206408 1.578077 -0.629330555 0 0.777137731 0 0
2.280146 1.207448 1.57817 -0.0709983227 0 0.997476435 0 0
2.280146 1.206408 1.57817 -0.0712044077 0 0.997461745 0 0
2.279989 1.205967 1.578077 -0.605238019 -0.237314907 0.759847731 0 0
2.280146 1.205967 1.57817 -0.0663051876 -0.257220124 0.964075427 0 0
2.280302 1.211608 1.578106 0.513598457 0.253599238 0.819697537 0 0
2.280302 1.211166 1.578106 0.5376 0 0.8432 0 0
2.282516 1.211608 1.57607 0.655819498 0.247707364 0.713121201 0 0
2.282516 1.211166 1.57607 0.676833352 0 0.736136274 0 0
2.280302 1.210126 1.578106 0.5376 0 0.8432 0 0
2.280302 1.208787 1.578106 0.537412455 0 0.843319544 0 0
2.282516 1.210126 1.57607 0.676887539 0 0.736086449 0 0
2.282516 1.208787 1.57607 0.676887539 0 0.736086449 0 0
2.288847 1.211608 1.570248 0.655892726 0.247597254 0.713092092 0 0
2.288847 1.211166 1.570248 0.676833352 0 0.736136274 0 0
2.29738 1.211608 1.562401 0.655910859 0.247204092 0.713211807 0 0
2.29738 1.211166 1.562401 0.676887539 0 0.736086449 0 0
2.288847 1.210126 1.570248 0.676887539 0 0.736086449 0 0
2.288847 1.208787 1.570248 0.676887539 0 0.736086449 0 0
2.29738 1.210126 1.562401 0.676887539 0 0.736086449 0 0
2.29738 1.208787 1.562401 0.676887539 0 0.736086449 0 0
2.280302 1.207448 1.578106 0.5376 0 0.8432 0 0
2.280302 1.206408 1.578106 0.5376 0 0.8432 0 0
2.282516 1.207448 1.57607 0.676887539 0 0.736086449 0 0
2.282516 1.206408 1.57607 0.676833352 0 0.736136274 0 0
2.280302 1.205967 1.578106 0.513640559 -0.253620027 0.819664723 0 0
2.282516 1.205967 1.57607 0.65580325 -0.247801228 0.713103533 0 0
2.288847 1.207448 1.570248 0.676887539 0 0.736086449 0 0
2.288847 1.206408 1.570248 0.676833352 0 0.736136274 0 0
2.29738 1.207448 1.562401 0.676887539 0 0.736086449 0 0
2.29738 1.206408 1.562401 0.676833352 0 0.736136274 0 0
2.288847 1.205967 1.570248 0.655908963 -0.247503382 0.713109745 0 0
2.29738 1.205967 1.562401 0.655878419 -0.24739186 0.713176533 0 0
2.3062 1.211608 1.55429 0.655878419 0.24739186 0.713176533 0 0
2.3062 1.211166 1.55429 0.676887539 0 0.736086449 0 0
2.312962 1.211608 1.548073 0.655927071 0.247110198 0.713229436 0 0
2.312962 1.211166 1.548073 0.676833352 0 0.736136274 0 0
2.3062 1.210126 1.55429 0.676887539 0 0.736086449 0 0
2.3062 1.208787 1.55429 0.676887539 0 0.736086449 0 0
2.312962 1.210126 1.548073 0.676887539 0 0.736086449 0 0
2.312962 1.208787 1.548073 0.676887539 0 0.736086449 0 0
2.315319 1.211608 1.545905 0.773830021 0.25310982 0.580622526 0 0
2.315319 1.211166 1.545905 0.795052773 0 0.60654026 0 0
2.315396 1.211608 1.545755 0.966211223 0.257302989 0.0152001766 0 0
2.315396 1.211166 1.545755 0.999916789 0 0.0129002166 0 0
2.315319 1.210126 1.545905 0.795089561 0 0.606492037 0 0
2.315319 1.208787 1.545905 0.795137782 0 0.606428815 0 0
2.315396 1.210126 1.545755 0.999918074 0 0.0128002314 0 0
2.315396 1.208787 1.545755 0.999919349 0 0.0127002458 0 0
2.3062 1.207448 1.55429 0.676887539 0 0.736086449 0 0
2.3062 1.206408 1.55429 0.676833352 0 0.736136274 0 0
2.312962 1.207448 1.548073 0.676887539 0 0.736086449 0 0
2.312962 1.206408 1.548073 0.676833352 0 0.736136274 0 0
2.3062 1.205967 1.55429 0.655805204 -0.247501964 0.713205659 0 0
2.312962 1.205967 1.548073 0.655823302 -0.24710878 0.713325345 0 0
2.315319 1.207448 1.545905 0.795089561 0 0.606492037 0 0
2.315319 1.206408 1.545905 0.795004547 0 0.60660347 0 0
2.315396 1.207448 1.545755 0.999918074 0 0.0128002314 0 0
2.315396 1.206408 1.545755 0.999916789 0 0.0129002166 0 0
2.315319 1.205967 1.545905 0.773725371 -0.253208303 0.580719042 0 0
2.315396 1.205967 1.545755 0.966151874 -0.257513826 0.0154008269 0 0
2.311621 1.205967 1.541572 0.605036527 -0.237514339 -0.759945879 0 0
2.311621 1.206408 1.541572 0.629111922 0 -0.77731473 0 0
2.311951 1.205967 1.54193 0.716937074 -0.22761177 -0.658934074 0 0
2.311951 1.206408 1.54193 0.736136274 0 -0.676833352 0 0
2.311621 1.207448 1.541572 0.629002591 0 -0.777403203 0 0
2.311621 1.208787 1.541572 0.628893252 0 -0.777491658 0 0
2.311951 1.207448 1.54193 0.736136274 0 -0.676833352 0 0
2.311951 1.208787 1.54193 0.736136274 0 -0.676833352 0 0
2.312624 1.205967 1.542662 0.71684289 -0.227313601 -0.659139437 0 0
2.312624 1.206408 1.542662 0.736040627 0 -0.676937365 0 0
2.313469 1.205967 1.543581 0.716533696 -0.228310737 -0.659130996 0 0
2.313469 1.206408 1.543581 0.736040627 0 -0.676937365 0 0
2.312624 1.207448 1.542662 0.736040627 0 -0.676937365 0 0
2.312624 1.208787 1.542662 0.736086449 0 -0.676887539 0 0
2.313469 1.207448 1.543581 0.736040627 0 -0.676937365 0 0
2.313469 1.208787 1.543581 0.736040627 0 -0.676937365 0 0
2.311621 1.210126 1.541572 0.629002591 0 -0.777403203 0 0
2.311621 1.211166 1.541572 0.629111922 0 -0.77731473 0 0
2.311951 1.210126 1.54193 0.736136274 0 -0.676833352 0 0
2.311951 1.211166 1.54193 0.736136274 0 -0.676833352 0 0
2.311621 1.211608 1.541572 0.604901204 0.238000474 -0.759901512 0 0
2.311951 1.211608 1.54193 0.716627687 0.228608832 -0.658925458 0 0
2.312624 1.210126 1.542662 0.736040627 0 -0.676937365 0 0
2.312624 1.211166 1.542662 0.736040627 0 -0.676937365 0 0
2.313469 1.210126 1.543581 0.736040627 0 -0.676937365 0 0
2.313469 1.211166 1.543581 0.736040627 0 -0.676937365 0 0
2.312624 1.211608 1.542662 0.716730716 0.227409746 -0.659228252 0 0
2.313469 1.211608 1.543581 0.716696377 0.227898848 -0.659096668 0 0
2.314314 1.205967 1.5445 0.716497037 -0.229099053 -0.658897275 0 0
2.314314 1.206408 1.5445 0.736136274 0 -0.676833352 0 0
2.314987 1.205967 1.545233 0.716531811 -0.228610149 -0.659029258 0 0
2.314987 1.206408 1.545233 0.736040627 0 -0.676937365 0 0
2.314314 1.207448 1.5445 0.736136274 0 -0.676833352 0 0
2.314314 1.208787 1.5445 0.736136274 0 -0.676833352 0 0
2.314987 1.207448 1.545233 0.736086449 0 -0.676887539 0 0
2.314987 1.208787 1.545233 0.736086449 0 -0.676887539 0 0
2.315317 1.205967 1.545591 0.807587919 -0.23799644 -0.539591928 0 0
2.315317 1.206408 1.545591 0.827000893 0 -0.562200607 0 0
2.315317 1.207448 1.545591 0.827000893 0 -0.562200607 0 0
2.315317 1.208787 1.545591 0.826922782 0 -0.562315492 0 0
2.314314 1.210126 1.5445 0.736136274 0 -0.676833352 0 0
2.314314 1.211166 1.5445 0.736136274 0 -0.676833352 0 0
2.314987 1.210126 1.545233 0.736086449 0 -0.676887539 0 0
2.314987 1.211166 1.545233 0.736040627 0 -0.676937365 0 0
2.314314 1.211608 1.5445 0.716544248 0.229114148 -0.658840685 0 0
2.314987 1.211608 1.545233 0.716580466 0.228593769 -0.658982036 0 0
2.315317 1.210126 1.545591 0.827000893 0 -0.562200607 0 0
2.315317 1.211166 1.545591 0.827000893 0 -0.562200607 0 0
2.315317 1.211608 1.545591 0.807601962 0.237700578 -0.539701311 0 0
3 0 1 2
3 0 3 1
3 0 4 3
3 0 5 4
3 0 6 5
3 0 7 6
3 0 8 7
3 0 2 8
3 9 10 11
3 9 12 10
3 9 1 12
3 9 2 1
3 9 8 2
3 9 13 8
3 9 14 13
3 9 11 14
3 15 8 16
3 15 7 8
3 15 6 7
3 15 17 6
3 15 18 17
3 15 19 18
3 15 20 19
3 15 16 20
3 21 14 22
3 21 13 14
3 21 8 13
3 21 16 8
3 21 20 16
3 21 23 20
3 21 24 23
3 21 22 24
3 25 26 27
3 25 28 26
3 25 10 28
3 25 11 10
3 25 14 11
3 25 29 14
3 25 30 29
3 25 27 30
3 31 32 33
3 31 34 32
3 31 26 34
3 31 27 26
3 31 30 27
3 31 35 30
3 31 36 35
3 31 33 36
3 37 30 38
3 37 29 30
3 37 14 29
3 37 22 14
3 37 24 22
3 37 39 24
3 37 40 39
3 37 38 40
3 41 36 42
3 41 35 36
3 41 30 35
3 41 38 30
3 41 40 38
3 41 43 40
3 41 44 43
3 41 42 44
3 45 20 46
3 45 19 20
3 45 18 19
3 45 47 18
3 45 48 47
3 45 49 48
3 45 50 49
3 45 46 50
3 51 24 52
3 51 23 24
3 51 20 23
3 51 46 20
3 51 50 46
3 51 53 50
3 51 54 53
3 51 52 54
3 55 50 56
3 55 49 50
3 55 48 49
3 55 57 48
3 55 58 57
3 55 59 58
3 55 60 59
3 55 56 60
3 61 54 62
3 61 53 54
3 61 50 53
3 61 56 50
3 61 60 56
3 61 63 60
3 61 64 63
3 61 62 64
3 65 40 66
3 65 39 40
3 65 24 39
3 65 52 24
3 65 54 52
3 65 67 54
3 65 68 67
3 65 66 68
3 69 44 70
3 69 43 44
3 69 40 43
3 69 66 40
3 69 68 66
3 69 71 68
3 69 72 71
3 69 70 72
3 73 68 74
3 73 67 68
3 73 54 67
3 73 62 54
3 73 64 62
3 73 75 64
3 73 76 75
3 73 74 76
3 77 72 78
3 77 71 72
3 77 68 71
3 77 74 68
3 77 76 74
3 77 79 76
3 77 80 79
3 77 78 80
3 81 82 83
3 81 84 82
3 81 85 84
3 81 86 85
3 81 87 86
3 81 88 87
3 81 89 88
3 81 83 89
3 90 91 92
3 90 93 91
3 90 82 93
3 90 83 82
3 90 89 83
3 90 94 89
3 90 95 94
3 90 92 95
3 96 89 97
3 96 88 89
3 96 87 88
3 96 98 87
3 96 99 98
3 96 100 99
3 96 101 100
3 96 97 101
3 102 95 103
3 102 94 95
3 102 89 94
3 102 97 89
3 102 101 97
3 102 104 101
3 102 105 104
3 102 103 105
3 106 107 108
3 106 109 107
3 106 91 109
3 106 92 91
3 106 95 92
3 106 110 95
3 106 111 110
3 106 108 111
3 112 113 114
3 112 115 113
3 112 107 115
3 112 108 107
3 112 111 108
3 112 116 111
3 112 117 116
3 112 114 117
3 118 111 119
3 118 110 111
3 118 95 110
3 118 103 95
3 118 105 103
3 118 120 105
3 118 121 120
3 118 119 121
3 122 117 123
3 122 116 117
3 122 111 116
3 122 119 111
3 122 121 119
3 122 124 121
3 122 125 124
3 122 123 125
3 126 101 127
3 126 100 101
3 126 99 100
3 126 128 99
3 126 129 128
3 126 130 129
3 126 131 130
3 126 127 131
3 132 105 133
3 132 104 105
3 132 101 104
3 132 127 101
3 132 131 127
3 132 134 131
3 132 135 134
3 132 133 135
3 136 131 137
3 136 130 131
3 136 129 130
3 136 138 129
3 136 139 138
3 136 140 139
3 136 141 140
3 136 137 141
3 142 135 143
3 142 134 135
3 142 131 134
3 142 137 131
3 142 141 137
3 142 144 141
3 142 145 144
3 142 143 145
3 146 121 147
3 146 120 121
3 146 105 120
3 146 133 105
3 146 135 133
3 146 148 135
3 146 149 148
3 146 147 149
3 150 125 151
3 150 124 125
3 150 121 124
3 150 147 121
3 150 149 147
3 150 152 149
3 150 153 152
3 150 151 153
3 154 149 155
3 154 148 149
3 154 135 148
3 154 143 135
3 154 145 143
3 154 156 145
3 154 157 156
3 154 155 157
3 158 153 159
3 158 152 153
3 158 149 152
3 158 155 149
3 158 157 155
3 158 160 157
3 158 161 160
3 158 159 161
3 162 163 164
3 162 165 163
3 162 113 165
3 162 114 113
3 162 117 114
3 162 166 117
3 162 167 166
3 162 164 167
3 168 169 170
3 168 171 169
3 168 163 171
3 168 164 163
3 168 167 164
3 168 172 167
3 168 173 172
3 168 170 173
3 174 167 175
3 174 166 167
3 174 117 166
3 174 123 117
3 174 125 123
3 174 176 125
3 174 177 176
3 174 175 177
3 178 173 179
3 178 172 173
3 178 167 172
3 178 175 167
3 178 177 175
3 178 180 177
3 178 181 180
3 178 179 181
3 182 183 184
3 182 185 183
3 182 169 185
3 182 170 169
3 182 173 170
3 182 186 173
3 182 187 186
3 182 184 187
3 188 32 34
3 188 189 32
3 188 183 189
3 188 184 183
3 188 187 184
3 188 190 187
3 188 26 190
3 188 34 26
3 191 187 192
3 191 186 187
3 191 173 186
3 191 179 173
3 191 181 179
3 191 193 181
3 191 194 193
3 191 192 194
3 195 26 28
3 195 190 26
3 195 187 190
3 195 192 187
3 195 194 192
3 195 196 194
3 195 10 196
3 195 28 10
3 197 177 198
3 197 176 177
3 197 125 176
3 197 151 125
3 197 153 151
3 197 199 153
3 197 200 199
3 197 198 200
3 201 181 202
3 201 180 181
3 201 177 180
3 201 198 177
3 201 200 198
3 201 203 200
3 201 204 203
3 201 202 204
3 205 200 206
3 205 199 200
3 205 153 199
3 205 159 153
3 205 161 159
3 205 207 161
3 205 208 207
3 205 206 208
3 209 204 210
3 209 203 204
3 209 200 203
3 209 206 200
3 209 208 206
3 209 211 208
3 209 212 211
3 209 210 212
3 213 194 214
3 213 193 194
3 213 181 193
3 213 202 181
3 213 204 202
3 213 215 204
3 213 216 215
3 213 214 216
3 217 10 12
3 217 196 10
3 217 194 196
3 217 214 194
3 217 216 214
3 217 218 216
3 217 1 218
3 217 12 1
3 219 216 220
3 219 215 216
3 219 204 215
3 219 210 204
3 219 212 210
3 219 221 212
3 219 222 221
3 219 220 222
3 223 1 3
3 223 218 1
3 223 216 218
3 223 220 216
3 223 222 220
3 223 224 222
3 223 4 224
3 223 3 4
3 225 208 226
3 225 207 208
3 225 161 207
3 225 160 161
3 225 157 160
3 225 227 157
3 225 228 227
3 225 226 228
3 229 212 230
3 229 211 212
3 229 208 211
3 229 226 208
3 229 228 226
3 229 231 228
3 229 232 231
3 229 230 232
3 233 228 234
3 233 227 228
3 233 157 227
3 233 156 157
3 233 145 156
3 233 235 145
3 233 236 235
3 233 234 236
3 237 232 238
3 237 231 232
3 237 228 231
3 237 234 228
3 237 236 234
3 237 239 236
3 237 240 239
3 237 238 240
3 241 222 242
3 241 221 222
3 241 212 221
3 241 230 212
3 241 232 230
3 241 243 232
3 241 244 243
3 241 242 244
3 245 4 5
3 245 224 4
3 245 222 224
3 245 242 222
3 245 244 242
3 245 246 244
3 245 6 246
3 245 5 6
3 247 244 248
3 247 243 244
3 247 232 243
3 247 238 232
3 247 240 238
3 247 249 240
3 247 250 249
3 247 248 250
3 251 6 17
3 251 246 6
3 251 244 246
3 251 248 244
3 251 250 248
3 251 252 250
3 251 18 252
3 251 17 18
3 253 236 254
3 253 235 236
3 253 145 235
3 253 144 145
3 253 141 144
3 253 255 141
3 253 256 255
3 253 254 256
3 257 240 258
3 257 239 240
3 257 236 239
3 257 254 236
3 257 256 254
3 257 259 256
3 257 260 259
3 257 258 260
3 261 256 262
3 261 255 256
3 261 141 255
3 261 140 141
3 261 139 140
3 261 263 139
3 261 264 263
3 261 262 264
3 265 260 266
3 265 259 260
3 265 256 259
3 265 262 256
3 265 264 262
3 265 267 264
3 265 268 267
3 265 266 268
3 269 250 270
3 269 249 250
3 269 240 249
3 269 258 240
3 269 260 258
3 269 271 260
3 269 272 271
3 269 270 272
3 273 18 47
3 273 252 18
3 273 250 252
3 273 270 250
3 273 272 270
3 273 274 272
3 273 48 274
3 273 47 48
3 275 272 276
3 275 271 272
3 275 260 271
3 275 266 260
3 275 268 266
3 275 277 268
3 275 278 277
3 275 276 278
3 279 48 57
3 279 274 48
3 279 272 274
3 279 276 272
3 279 278 276
3 279 280 278
3 279 58 280
3 279 57 58
3 281 264 282
3 281 263 264
3 281 139 263
3 281 138 139
3 281 129 138
3 281 283 129
3 281 284 283
3 281 282 284
3 285 268 286
3 285 267 268
3 285 264 267
3 285 282 264
3 285 284 282
3 285 287 284
3 285 288 287
3 285 286 288
3 289 284 290
3 289 283 284
3 289 129 283
3 289 128 129
3 289 99 128
3 289 291 99
3 289 292 291
3 289 290 292
3 293 288 294
3 293 287 288
3 293 284 287
3 293 290 284
3 293 292 290
3 293 295 292
3 293 296 295
3 293 294 296
3 297 278 298
3 297 277 278
3 297 268 277
3 297 286 268
3 297 288 286
3 297 299 288
3 297 300 299
3 297 298 300
3 301 58 59
3 301 280 58
3 301 278 280
3 301 298 278
3 301 300 298
3 301 302 300
3 301 60 302
3 301 59 60
3 303 300 304
3 303 299 300
3 303 288 299
3 303 294 288
3 303 296 294
3 303 305 296
3 303 306 305
3 303 304 306
3 307 60 63
3 307 302 60
3 307 300 302
3 307 304 300
3 307 306 304
3 307 308 306
3 307 64 308
3 307 63 64
3 309 292 310
3 309 291 292
3 309 99 291
3 309 98 99
3 309 87 98
3 309 311 87
3 309 312 311
3 309 310 312
3 313 296 314
3 313 295 296
3 313 292 295
3 313 310 292
3 313 312 310
3 313 315 312
3 313 316 315
3 313 314 316
3 317 312 318
3 317 311 312
3 317 87 311
3 317 86 87
3 317 85 86
3 317 319 85
3 317 320 319
3 317 318 320
3 321 316 322
3 321 315 316
3 321 312 315
3 321 318 312
3 321 320 318
3 321 323 320
3 321 324 323
3 321 322 324
3 325 306 326
3 325 305 306
3 325 296 305
3 325 314 296
3 325 316 314
3 325 327 316
3 325 328 327
3 325 326 328
3 329 64 75
3 329 308 64
3 329 306 308
3 329 326 306
3 329 328 326
3 329 330 328
3 329 76 330
3 329 75 76
3 331 328 332
3 331 327 328
3 331 316 327
3 331 322 316
3 331 324 322
3 331 333 324
3 331 334 333
3 331 332 334
3 335 76 79
3 335 330 76
3 335 328 330
3 335 332 328
3 335 334 332
3 335 336 334
3 335 80 336
3 335 79 80
3 337 183 338
3 337 189 183
3 337 32 189
3 337 33 32
3 337 36 33
3 337 339 36
3 337 340 339
3 337 338 340
3 341 169 342
3 341 185 169
3 341 183 185
3 341 338 183
3 341 340 338
3 341 343 340
3 341 344 343
3 341 342 344
3 345 340 346
3 345 339 340
3 345 36 339
3 345 42 36
3 345 44 42
3 345 347 44
3 345 348 347
3 345 346 348
3 349 344 350
3 349 343 344
3 349 340 343
3 349 346 340
3 349 348 346
3 349 351 348
3 349 352 351
3 349 350 352
3 353 163 354
3 353 171 163
3 353 169 171
3 353 342 169
3 353 344 342
3 353 355 344
3 353 356 355
3 353 354 356
3 357 113 115
3 357 165 113
3 357 163 165
3 357 354 163
3 357 356 354
3 357 358 356
3 357 107 358
3 357 115 107
3 359 356 360
3 359 355 356
3 359 344 355
3 359 350 344
3 359 352 350
3 359 361 352
3 359 362 361
3 359 360 362
3 363 107 109
3 363 358 107
3 363 356 358
3 363 360 356
3 363 362 360
3 363 364 362
3 363 91 364
3 363 109 91
3 365 348 366
3 365 347 348
3 365 44 347
3 365 70 44
3 365 72 70
3 365 367 72
3 365 368 367
3 365 366 368
3 369 352 370
3 369 351 352
3 369 348 351
3 369 366 348
3 369 368 366
3 369 371 368
3 369 372 371
3 369 370 372
3 373 368 374
3 373 367 368
3 373 72 367
3 373 78 72
3 373 80 78
3 373 336 80
3 373 334 336
3 373 374 334
3 375 372 376
3 375 371 372
3 375 368 371
3 375 374 368
3 375 334 374
3 375 333 334
3 375 324 333
3 375 376 324
3 377 362 378
3 377 361 362
3 377 352 361
3 377 370 352
3 377 372 370
3 377 379 372
3 377 380 379
3 377 378 380
3 381 91 93
3 381 364 91
3 381 362 364
3 381 378 362
3 381 380 378
3 381 382 380
3 381 82 382
3 381 93 82
3 383 380 384
3 383 379 380
3 383 372 379
3 383 376 372
3 383 324 376
3 383 323 324
3 383 320 323
3 383 384 320
3 385 82 84
3 385 382 82
3 385 380 382
3 385 384 380
3 385 320 384
3 385 319 320
3 385 85 319
3 385 84 85
3 386 387 388
3 386 389 387
3 386 390 389
3 386 391 390
3 386 392 391
3 386 393 392
3 386 394 393
3 386 388 394
3 395 396 397
3 395 398 396
3 395 387 398
3 395 388 387
3 395 394 388
3 395 399 394
3 395 400 399
3 395 397 400
3 401 394 402
3 401 393 394
3 401 392 393
3 401 403 392
3 401 404 403
3 401 405 404
3 401 406 405
3 401 402 406
3 407 400 408
3 407 399 400
3 407 394 399
3 407 402 394
3 407 406 402
3 407 409 406
3 407 410 409
3 407 408 410
3 411 412 413
3 411 414 412
3 411 396 414
3 411 397 396
3 411 400 397
3 411 415 400
3 411 416 415
3 411 413 416
3 417 418 419
3 417 420 418
3 417 412 420
3 417 413 412
3 417 416 413
3 417 421 416
3 417 422 421
3 417 419 422
3 423 416 424
3 423 415 416
3 423 400 415
3 423 408 400
3 423 410 408
3 423 425 410
3 423 426 425
3 423 424 426
3 427 422 428
3 427 421 422
3 427 416 421
3 427 424 416
3 427 426 424
3 427 429 426
3 427 430 429
3 427 428 430
3 431 406 432
3 431 405 406
3 431 404 405
3 431 433 404
3 431 434 433
3 431 435 434
3 431 436 435
3 431 432 436
3 437 410 438
3 437 409 410
3 437 406 409
3 437 432 406
3 437 436 432
3 437 439 436
3 437 440 439
3 437 438 440
3 441 436 442
3 441 435 436
3 441 434 435
3 441 443 434
3 441 444 443
3 441 445 444
3 441 446 445
3 441 442 446
3 447 440 448
3 447 439 440
3 447 436 439
3 447 442 436
3 447 446 442
3 447 449 446
3 447 450 449
3 447 448 450
3 451 426 452
3 451 425 426
3 451 410 425
3 451 438 410
3 451 440 438
3 451 453 440
3 451 454 453
3 451 452 454
3 455 430 456
3 455 429 430
3 455 426 429
3 455 452 426
3 455 454 452
3 455 457 454
3 455 458 457
3 455 456 458
3 459 454 460
3 459 453 454
3 459 440 453
3 459 448 440
3 459 450 448
3 459 461 450
3 459 462 461
3 459 460 462
3 463 458 464
3 463 457 458
3 463 454 457
3 463 460 454
3 463 462 460
3 463 465 462
3 463 466 465
3 463 464 466
3 467 468 469
3 467 470 468
3 467 471 470
3 467 472 471
3 467 473 472
3 467 474 473
3 467 475 474
3 467 469 475
3 476 477 478
3 476 479 477
3 476 468 479
3 476 469 468
3 476 475 469
3 476 480 475
3 476 481 480
3 476 478 481
3 482 475 483
3 482 474 475
3 482 473 474
3 482 484 473
3 482 485 484
3 482 486 485
3 482 487 486
3 482 483 487
3 488 481 489
3 488 480 481
3 488 475 480
3 488 483 475
3 488 487 483
3 488 490 487
3 488 491 490
3 488 489 491
3 492 493 494
3 492 495 493
3 492 477 495
3 492 478 477
3 492 481 478
3 492 496 481
3 492 497 496
3 492 494 497
3 498 499 500
3 498 501 499
3 498 493 501
3 498 494 493
3 498 497 494
3 498 502 497
3 498 503 502
3 498 500 503
3 504 497 505
3 504 496 497
3 504 481 496
3 504 489 481
3 504 491 489
3 504 506 491
3 504 507 506
3 504 505 507
3 508 503 509
3 508 502 503
3 508 497 502
3 508 505 497
3 508 507 505
3 508 510 507
3 508 511 510
3 508 509 511
3 512 487 513
3 512 486 487
3 512 485 486
3 512 514 485
3 512 515 514
3 512 516 515
3 512 517 516
3 512 513 517
3 518 491 519
3 518 490 491
3 518 487 490
3 518 513 487
3 518 517 513
3 518 520 517
3 518 521 520
3 518 519 521
3 522 517 523
3 522 516 517
3 522 515 516
3 522 524 515
3 522 525 524
3 522 526 525
3 522 527 526
3 522 523 527
3 528 521 529
3 528 520 521
3 528 517 520
3 528 523 517
3 528 527 523
3 528 530 527
3 528 531 530
3 528 529 531
3 532 507 533
3 532 506 507
3 532 491 506
3 532 519 491
3 532 521 519
3 532 534 521
3 532 535 534
3 532 533 535
3 536 511 537
3 536 510 511
3 536 507 510
3 536 533 507
3 536 535 533
3 536 538 535
3 536 539 538
3 536 537 539
3 540 535 541
3 540 534 535
3 540 521 534
3 540 529 521
3 540 531 529
3 540 542 531
3 540 543 542
3 540 541 543
3 544 539 545
3 544 538 539
3 544 535 538
3 544 541 535
3 544 543 541
3 544 546 543
3 544 547 546
3 544 545 547
3 548 549 550
3 548 551 549
3 548 499 551
3 548 500 499
3 548 503 500
3 548 552 503
3 548 553 552
3 548 550 553
3 554 555 556
3 554 557 555
3 554 549 557
3 554 550 549
3 554 553 550
3 554 558 553
3 554 559 558
3 554 556 559
3 560 553 561
3 560 552 553
3 560 503 552
3 560 509 503
3 560 511 509
3 560 562 511
3 560 563 562
3 560 561 563
3 564 559 565
3 564 558 559
3 564 553 558
3 564 561 553
3 564 563 561
3 564 566 563
3 564 567 566
3 564 565 567
3 568 569 570
3 568 571 569
3 568 555 571
3 568 556 555
3 568 559 556
3 568 572 559
3 568 573 572
3 568 570 573
3 574 418 420
3 574 575 418
3 574 569 575
3 574 570 569
3 574 573 570
3 574 576 573
3 574 412 576
3 574 420 412
3 577 573 578
3 577 572 573
3 577 559 572
3 577 565 559
3 577 567 565
3 577 579 567
3 577 580 579
3 577 578 580
3 581 412 414
3 581 576 412
3 581 573 576
3 581 578 573
3 581 580 578
3 581 582 580
3 581 396 582
3 581 414 396
3 583 563 584
3 583 562 563
3 583 511 562
3 583 537 511
3 583 539 537
3 583 585 539
3 583 586 585
3 583 584 586
3 587 567 588
3 587 566 567
3 587 563 566
3 587 584 563
3 587 586 584
3 587 589 586
3 587 590 589
3 587 588 590
3 591 586 592
3 591 585 586
3 591 539 585
3 591 545 539
3 591 547 545
3 591 593 547
3 591 594 593
3 591 592 594
3 595 590 596
3 595 589 590
3 595 586 589
3 595 592 586
3 595 594 592
3 595 597 594
3 595 598 597
3 595 596 598
3 599 580 600
3 599 579 580
3 599 567 579
3 599 588 567
3 599 590 588
3 599 601 590
3 599 602 601
3 599 600 602
3 603 396 398
3 603 582 396
3 603 580 582
3 603 600 580
3 603 602 600
3 603 604 602
3 603 387 604
3 603 398 387
3 605 602 606
3 605 601 602
3 605 590 601
3 605 596 590
3 605 598 596
3 605 607 598
3 605 608 607
3 605 606 608
3 609 387 389
3 609 604 387
3 609 602 604
3 609 606 602
3 609 608 606
3 609 610 608
3 609 390 610
3 609 389 390
3 611 594 612
3 611 593 594
3 611 547 593
3 611 546 547
3 611 543 546
3 611 613 543
3 611 614 613
3 611 612 614
3 615 598 616
3 615 597 598
3 615 594 597
3 615 612 594
3 615 614 612
3 615 617 614
3 615 618 617
3 615 616 618
3 619 614 620
3 619 613 614
3 619 543 613
3 619 542 543
3 619 531 542
3 619 621 531
3 619 622 621
3 619 620 622
3 623 618 624
3 623 617 618
3 623 614 617
3 623 620 614
3 623 622 620
3 623 625 622
3 623 626 625
3 623 624 626
3 627 608 628
3 627 607 608
3 627 598 607
3 627 616 598
3 627 618 616
3 627 629 618
3 627 630 629
3 627 628 630
3 631 390 391
3 631 610 390
3 631 608 610
3 631 628 608
3 631 630 628
3 631 632 630
3 631 392 632
3 631 391 392
3 633 630 634
3 633 629 630
3 633 618 629
3 633 624 618
3 633 626 624
3 633 635 626
3 633 636 635
3 633 634 636
3 637 392 403
3 637 632 392
3 637 630 632
3 637 634 630
3 637 636 634
3 637 638 636
3 637 404 638
3 637 403 404
3 639 622 640
3 639 621 622
3 639 531 621
3 639 530 531
3 639 527 530
3 639 641 527
3 639 642 641
3 639 640 642
3 643 626 644
3 643 625 626
3 643 622 625
3 643 640 622
3 643 642 640
3 643 645 642
3 643 646 645
3 643 644 646
3 647 642 648
3 647 641 642
3 647 527 641
3 647 526 527
3 647 525 526
3 647 649 525
3 647 650 649
3 647 648 650
3 651 646 652
3 651 645 646
3 651 642 645
3 651 648 642
3 651 650 648
3 651 653 650
3 651 654 653
3 651 652 654
3 655 636 656
3 655 635 636
3 655 626 635
3 655 644 626
3 655 646 644
3 655 657 646
3 655 658 657
3 655 656 658
3 659 404 433
3 659 638 404
3 659 636 638
3 659 656 636
3 659 658 656
3 659 660 658
3 659 434 660
3 659 433 434
3 661 658 662
3 661 657 658
3 661 646 657
3 661 652 646
3 661 654 652
3 661 663 654
3 661 664 663
3 661 662 664
3 665 434 443
3 665 660 434
3 665 658 660
3 665 662 658
3 665 664 662
3 665 666 664
3 665 444 666
3 665 443 444
3 667 650 668
3 667 649 650
3 667 525 649
3 667 524 525
3 667 515 524
3 667 669 515
3 667 670 669
3 667 668 670
3 671 654 672
3 671 653 654
3 671 650 653
3 671 668 650
3 671 670 668
3 671 673 670
3 671 674 673
3 671 672 674
3 675 670 676
3 675 669 670
3 675 515 669
3 675 514 515
3 675 485 514
3 675 677 485
3 675 678 677
3 675 676 678
3 679 674 680
3 679 673 674
3 679 670 673
3 679 676 670
3 679 678 676
3 679 681 678
3 679 682 681
3 679 680 682
3 683 664 684
3 683 663 664
3 683 654 663
3 683 672 654
3 683 674 672
3 683 685 674
3 683 686 685
3 683 684 686
3 687 444 445
3 687 666 444
3 687 664 666
3 687 684 664
3 687 686 684
3 687 688 686
3 687 446 688
3 687 445 446
3 689 686 690
3 689 685 686
3 689 674 685
3 689 680 674
3 689 682 680
3 689 691 682
3 689 692 691
3 689 690 692
3 693 446 449
3 693 688 446
3 693 686 688
3 693 690 686
3 693 692 690
3 693 694 692
3 693 450 694
3 693 449 450
3 695 678 696
3 695 677 678
3 695 485 677
3 695 484 485
3 695 473 484
3 695 697 473
3 695 698 697
3 695 696 698
3 699 682 700
3 699 681 682
3 699 678 681
3 699 696 678
3 699 698 696
3 699 701 698
3 699 702 701
3 699 700 702
3 703 698 704
3 703 697 698
3 703 473 697
3 703 472 473
3 703 471 472
3 703 705 471
3 703 706 705
3 703 704 706
3 707 702 708
3 707 701 702
3 707 698 701
3 707 704 698
3 707 706 704
3 707 709 706
3 707 710 709
3 707 708 710
3 711 692 712
3 711 691 692
3 711 682 691
3 711 700 682
3 711 702 700
3 711 713 702
3 711 714 713
3 711 712 714
3 715 450 461
3 715 694 450
3 715 692 694
3 715 712 692
3 715 714 712
3 715 716 714
3 715 462 716
3 715 461 462
3 717 714 718
3 717 713 714
3 717 702 713
3 717 708 702
3 717 710 708
3 717 719 710
3 717 720 719
3 717 718 720
3 721 462 465
3 721 716 462
3 721 714 716
3 721 718 714
3 721 720 718
3 721 722 720
3 721 466 722
3 721 465 466
3 723 569 724
3 723 575 569
3 723 418 575
3 723 419 418
3 723 422 419
3 723 725 422
3 723 726 725
3 723 724 726
3 727 555 728
3 727 571 555
3 727 569 571
3 727 724 569
3 727 726 724
3 727 729 726
3 727 730 729
3 727 728 730
3 731 726 732
3 731 725 726
3 731 422 725
3 731 428 422
3 731 430 428
3 731 733 430
3 731 734 733
3 731 732 734
3 735 730 736
3 735 729 730
3 735 726 729
3 735 732 726
3 735 734 732
3 735 737 734
3 735 738 737
3 735 736 738
3 739 549 740
3 739 557 549
3 739 555 557
3 739 728 555
3 739 730 728
3 739 741 730
3 739 742 741
3 739 740 742
3 743 499 501
3 743 551 499
3 743 549 551
3 743 740 549
3 743 742 740
3 743 744 742
3 743 493 744
3 743 501 493
3 745 742 746
3 745 741 742
3 745 730 741
3 745 736 730
3 745 738 736
3 745 747 738
3 745 748 747
3 745 746 748
3 749 493 495
3 749 744 493
3 749 742 744
3 749 746 742
3 749 748 746
3 749 750 748
3 749 477 750
3 749 495 477
3 751 734 752
3 751 733 734
3 751 430 733
3 751 456 430
3 751 458 456
3 751 753 458
3 751 754 753
3 751 752 754
3 755 738 756
3 755 737 738
3 755 734 737
3 755 752 734
3 755 754 752
3 755 757 754
3 755 758 757
3 755 756 758
3 759 754 760
3 759 753 754
3 759 458 753
3 759 464 458
3 759 466 464
3 759 722 466
3 759 720 722
3 759 760 720
3 761 758 762
3 761 757 758
3 761 754 757
3 761 760 754
3 761 720 760
3 761 719 720
3 761 710 719
3 761 762 710
3 763 748 764
3 763 747 748
3 763 738 747
3 763 756 738
3 763 758 756
3 763 765 758
3 763 766 765
3 763 764 766
3 767 477 479
3 767 750 477
3 767 748 750
3 767 764 748
3 767 766 764
3 767 768 766
3 767 468 768
3 767 479 468
3 769 766 770
3 769 765 766
3 769 758 765
3 769 762 758
3 769 710 762
3 769 709 710
3 769 706 709
3 769 770 706
3 771 468 470
3 771 768 468
3 771 766 768
3 771 770 766
3 771 706 770
3 771 705 706
3 771 471 705
3 771 470 471
