ply
format ascii 1.0
element vertex 424
property float x
property float y
property float z
property float nx
property float ny
property float nz
property float u
property float v
element face 832
property list uchar int vertex_indices
end_header
2.177169 1.415674 1.416799 0.721916824 0.0303007062 -0.691316111 0 0
2.180195 1.419042 1.420738 0.273808086 0.73652175 -0.618518265 0 0
2.180812 1.418201 1.420761 0.732190375 0.0235996898 -0.680691052 0 0
2.176496 1.416477 1.416715 0.163503385 0.65971366 -0.733515188 0 0
2.174009 1.413288 1.41401 0.0505035995 0.526037492 -0.848960508 0 0
2.174734 1.412566 1.414151 0.71462791 0.0197007694 -0.699227309 0 0
2.174813 1.411844 1.414885 0.861814108 -0.506908298 -0.017900293 0 0
2.177196 1.414872 1.417476 0.759839858 -0.634833301 -0.14010735 0 0
2.180784 1.41736 1.421378 0.651401365 -0.718801506 -0.242900509 0 0
2.172934 1.408663 1.412194 0.702003366 0.010000048 -0.712103415 0 0
2.172137 1.409227 1.411975 -0.0530026195 0.338016705 -0.939646438 0 0
2.170422 1.399987 1.41011 -0.0836038555 0.169107799 -0.982045288 0 0
2.171289 1.399619 1.410405 0.725997223 0.000599997705 -0.68769737 0 0
2.17151 1.399251 1.411293 0.975791974 -0.159998684 0.149098774 0 0
2.173085 1.408099 1.413006 0.945444678 -0.315214896 0.0823038894 0 0
2.165792 1.356833 1.407019 0.0129002422 -0.999818772 0.0140002629 0 0
2.166993 1.357068 1.406885 0.465708245 -0.877315533 0.115902052 0 0
2.166427 1.356979 1.407709 0.311412672 -0.887936131 0.338513774 0 0
2.166773 1.356956 1.406142 0.298892404 -0.914076769 -0.274093034 0 0
2.166071 1.357035 1.405882 -0.0781018702 -0.854520462 -0.513512296 0 0
2.165182 1.356932 1.406355 -0.344113135 -0.86113287 -0.374214284 0 0
2.164636 1.357035 1.407201 -0.505097088 -0.854595073 -0.120599305 0 0
2.164836 1.356956 1.407923 -0.298208314 -0.914025483 0.275007667 0 0
2.165558 1.357068 1.408204 0.0764013493 -0.877415495 0.473608364 0 0
2.172275 1.407911 1.414069 0.617720574 -0.408913619 0.671722372 0 0
2.173979 1.411603 1.415921 0.505912815 -0.664316827 0.550213937 0 0
2.170723 1.399129 1.412381 0.662920809 -0.202006341 0.72092263 0 0
2.169573 1.399251 1.413074 0.0669020519 -0.16010491 0.984830205 0 0
2.171149 1.408099 1.414787 0.00290005735 -0.315206233 0.949018767 0 0
2.172876 1.411844 1.416666 -0.0899003187 -0.506901797 0.857303039 0 0
2.176344 1.414604 1.418494 0.36780789 -0.839518008 0.399908578 0 0
2.179914 1.417079 1.422376 0.231502173 -0.939708819 0.251702362 0 0
2.175259 1.414872 1.419257 -0.203116066 -0.634850215 0.745458964 0 0
2.178848 1.41736 1.423159 -0.296503687 -0.718808938 0.628807819 0 0
2.191659 1.422452 1.435148 0.665887701 0.179296688 0.724186624 0 0
2.192206 1.423095 1.434303 0.727419288 0.457512131 0.51141356 0 0
2.191499 1.423342 1.434974 0.581318786 0.512216553 0.632220431 0 0
2.192579 1.422437 1.434204 0.84244717 0.175109805 0.509528529 0 0
2.192372 1.421754 1.434484 0.797155699 -0.109607659 0.593741486 0 0
2.191721 1.421531 1.435216 0.668044627 -0.161210769 0.726448528 0 0
2.190937 1.421754 1.435803 0.524928846 -0.109706029 0.844046382 0 0
2.190642 1.422437 1.435985 0.437140037 0.175116039 0.882180798 0 0
2.190772 1.423095 1.435623 0.448599325 0.457599311 0.767698845 0 0
2.175411 1.416745 1.417478 -0.369198184 0.838195876 -0.401398025 0 0
2.172906 1.413529 1.414755 -0.504621422 0.666528295 -0.548723294 0 0
2.179128 1.419322 1.421521 -0.233615511 0.938562318 -0.254016866 0 0
2.178258 1.419042 1.422519 -0.639292984 0.736491917 0.221097573 0 0
2.174559 1.416477 1.418496 -0.744616452 0.659714577 0.101602245 0 0
2.172072 1.413288 1.415791 -0.850178856 0.526086916 -0.0206994852 0 0
2.171011 1.409415 1.412694 -0.612831267 0.424621665 -0.666434002 0 0
2.169273 1.400109 1.410804 -0.661326655 0.213308598 -0.719128985 0 0
2.1702 1.409227 1.413756 -0.931924431 0.338008861 -0.131403445 0 0
2.168486 1.399987 1.411891 -0.971603712 0.169200646 -0.165400632 0 0
2.174586 1.415674 1.419173 -0.749318422 0.030300745 0.661516264 0 0
2.172151 1.412566 1.416525 -0.756547929 0.0197012481 0.653641409 0 0
2.17823 1.418201 1.423136 -0.739519512 0.0237006253 0.67271775 0 0
2.170352 1.408663 1.414568 -0.768354978 0.0100007156 0.63994579 0 0
2.168707 1.399619 1.41278 -0.746022691 0.00060001825 0.665920254 0 0
2.192753 1.422391 1.433746 0.968036433 0.0933035115 -0.232808762 0 0
2.192317 1.423295 1.43392 0.633191408 0.760689678 -0.142898061 0 0
2.190564 1.422748 1.432013 0.352414292 0.762330917 -0.542822015 0 0
2.191026 1.421852 1.431868 0.736086449 0 -0.676887539 0 0
2.190842 1.420955 1.432316 0.570382202 -0.76237621 -0.305690461 0 0
2.192544 1.421486 1.434166 0.812908507 -0.579506065 0.0579006059 0 0
2.186239 1.420357 1.426662 0.735395893 0.00749995811 -0.677596216 0 0
2.185704 1.421231 1.426728 0.335804606 0.759810421 -0.556707635 0 0
2.186128 1.419483 1.427189 0.587083066 -0.754178246 -0.294191514 0 0
2.191613 1.421184 1.435098 0.426730869 -0.776256153 0.464033567 0 0
2.18992 1.420656 1.433257 0.13990189 -0.978413218 0.152102055 0 0
2.188905 1.420955 1.434097 -0.352414292 -0.762330917 0.542822015 0 0
2.190607 1.421486 1.435947 -0.0103006569 -0.579436952 0.814951971 0 0
2.18523 1.419192 1.428157 0.157699724 -0.972498298 0.1713997 0 0
2.184191 1.419483 1.42897 -0.342293995 -0.754186768 0.560390168 0 0
2.184664 1.421523 1.427542 -0.158201698 0.972310438 -0.172001846 0 0
2.189549 1.423047 1.432853 -0.13990189 0.978413218 -0.152102055 0 0
2.188627 1.422748 1.433794 -0.570408245 0.762311019 0.30580442 0 0
2.183767 1.421231 1.428509 -0.582830343 0.759839558 0.288014994 0 0
2.191311 1.423597 1.43477 0.188011683 0.960659697 0.204412703 0 0
2.190381 1.423295 1.435701 -0.195495529 0.760682603 0.618985844 0 0
2.183656 1.420357 1.429037 -0.736738363 0.00760039576 0.676135207 0 0
2.188443 1.421852 1.434243 -0.736136274 0 0.676833352 0 0
2.190171 1.422391 1.436121 -0.313011697 0.0935034943 0.94513532 0 0
2.169318 1.381088 1.408261 0.734216443 0.000600013437 -0.678915204 0 0
2.168406 1.381263 1.407917 -0.0753054094 0.115308283 -0.990471148 0 0
2.166768 1.36354 1.406136 -0.0679016008 0.106202504 -0.992023387 0 0
2.167704 1.36351 1.406506 0.736136259 0.000200009852 -0.676833338 0 0
2.167995 1.363479 1.40747 0.982960724 -0.104806475 0.151009329 0 0
2.169584 1.380913 1.409198 0.981531243 -0.112803591 0.154504918 0 0
2.167133 1.357324 1.405886 0.662343441 -0.416527319 -0.622740844 0 0
2.166188 1.357303 1.405506 -0.0570016303 -0.320809175 -0.94542704 0 0
2.167433 1.357344 1.406859 0.888867064 -0.442683597 0.118095624 0 0
2.168812 1.380855 1.410302 0.669914782 -0.143103158 0.728516075 0 0
2.167231 1.363469 1.408583 0.670802734 -0.133600544 0.729502973 0 0
2.166058 1.363479 1.409251 0.068202808 -0.104904319 0.992140847 0 0
2.167647 1.380913 1.410979 0.0718014332 -0.112802252 0.991019781 0 0
2.166672 1.357351 1.407975 0.604234424 -0.45092569 0.656937427 0 0
2.165496 1.357344 1.40864 0.0433009193 -0.442709399 0.895619014 0 0
2.165013 1.357296 1.406171 -0.651508489 -0.271203534 -0.708509232 0 0
2.165595 1.363551 1.406804 -0.670640696 0.135808241 -0.729244252 0 0
2.164831 1.36354 1.407917 -0.982856629 0.106206119 -0.150708683 0 0
2.164252 1.357303 1.407287 -0.937323555 -0.320908065 -0.135803413 0 0
2.167241 1.381322 1.408594 -0.669614725 0.146503222 -0.728116011 0 0
2.166469 1.381263 1.409698 -0.980715976 0.115301878 -0.157802571 0 0
2.164551 1.357324 1.40826 -0.676003157 -0.416501945 0.607902839 0 0
2.165122 1.36351 1.408881 -0.736136259 0.000200009852 0.676833338 0 0
2.166735 1.381088 1.410636 -0.738000221 0.00060000018 0.674800202 0 0
2.153536 1.381088 1.422773 -0.737904878 0.000600003966 0.674904461 0 0
2.151632 1.36354 1.420055 -0.982871438 0.106207719 -0.150610947 0 0
2.151923 1.36351 1.421018 -0.736136259 0.000200009852 0.676833338 0 0
2.15327 1.381263 1.421836 -0.980715976 0.115301878 -0.157802571 0 0
2.155287 1.399987 1.424029 -0.971603712 0.169200646 -0.165400632 0 0
2.155508 1.399619 1.424917 -0.746022691 0.00060001825 0.665920254 0 0
2.156374 1.399251 1.425211 0.0669020519 -0.16010491 0.984830205 0 0
2.154448 1.380913 1.423116 0.0718014332 -0.112802252 0.991019781 0 0
2.152859 1.363479 1.421389 0.0682035231 -0.104805414 0.992151251 0 0
2.151352 1.357324 1.420398 -0.676003157 -0.416501945 0.607902839 0 0
2.151437 1.357035 1.419339 -0.505010403 -0.854617605 -0.120802489 0 0
2.151638 1.356956 1.42006 -0.297998836 -0.914096431 0.274998926 0 0
2.151053 1.357303 1.419424 -0.937280739 -0.320993404 -0.135897207 0 0
2.152297 1.357344 1.420777 0.0432030165 -0.442630906 0.895662537 0 0
2.152359 1.357068 1.420341 0.0765038547 -0.877344206 0.473723869 0 0
2.154042 1.381322 1.420732 -0.669559557 0.146513032 -0.728164769 0 0
2.153569 1.36354 1.418274 -0.0679016008 0.106202504 -0.992023387 0 0
2.152396 1.363551 1.418942 -0.670591789 0.135798337 -0.72929107 0 0
2.155207 1.381263 1.420055 -0.0752059682 0.115309151 -0.990478603 0 0
2.157223 1.399987 1.422248 -0.083503136 0.169206355 -0.982036881 0 0
2.156074 1.400109 1.422941 -0.661326655 0.213308598 -0.719128985 0 0
2.151814 1.357296 1.418308 -0.651508489 -0.271203534 -0.708509232 0 0
2.152872 1.357035 1.418019 -0.0782012614 -0.854513783 -0.513508283 0 0
2.151983 1.356932 1.418493 -0.344113135 -0.86113287 -0.374214284 0 0
2.15299 1.357303 1.417643 -0.0569998014 -0.320898882 -0.945396705 0 0
2.153473 1.357351 1.420112 0.604131228 -0.450923309 0.657033963 0 0
2.154796 1.363479 1.419608 0.982950417 -0.104905381 0.151007745 0 0
2.154032 1.363469 1.42072 0.670802734 -0.133600544 0.729502973 0 0
2.154234 1.357344 1.418996 0.888856564 -0.442728174 0.11800751 0 0
2.153794 1.357068 1.419022 0.465635322 -0.877366555 0.115808785 0 0
2.153229 1.356979 1.419847 0.311402128 -0.887906069 0.338602314 0 0
2.155612 1.380855 1.422439 0.669914782 -0.143103158 0.728516075 0 0
2.158311 1.399251 1.42343 0.975776357 -0.160096121 0.149096387 0 0
2.157524 1.399129 1.424518 0.662920809 -0.202006341 0.72092263 0 0
2.156385 1.380913 1.421335 0.981531243 -0.112803591 0.154504918 0 0
2.153934 1.357324 1.418023 0.662302192 -0.416501379 -0.622802061 0 0
2.154505 1.36351 1.418644 0.735990785 0.000199997496 -0.676991524 0 0
2.153574 1.356956 1.418279 0.299002595 -0.914007934 -0.27420238 0 0
2.156119 1.381088 1.420398 0.734216443 0.000600013437 -0.678915204 0 0
2.15809 1.399619 1.422542 0.725949925 0.000600041266 -0.687747298 0 0
2.176972 1.422391 1.448258 -0.313014623 0.0934043635 0.945144153 0 0
2.175428 1.422748 1.445932 -0.570425687 0.762334329 0.305713767 0 0
2.175245 1.421852 1.44638 -0.736136274 0 0.676833352 0 0
2.177181 1.423295 1.447839 -0.1955104 0.760640463 0.61903293 0 0
2.177572 1.423095 1.44776 0.448679195 0.457578783 0.767664404 0 0
2.177443 1.422437 1.448123 0.43713238 0.175212979 0.882165344 0 0
2.177738 1.421754 1.44794 0.524896045 -0.109499175 0.84409364 0 0
2.177408 1.421486 1.448085 -0.0104004074 -0.579322695 0.81503193 0 0
2.175707 1.420955 1.446235 -0.352414292 -0.762330917 0.542822015 0 0
2.170457 1.420357 1.441174 -0.736738363 0.00760039576 0.676135207 0 0
2.165059 1.419042 1.434656 -0.639292984 0.736491917 0.221097573 0 0
2.165031 1.418201 1.435273 -0.739523003 0.023500731 0.672720925 0 0
2.170568 1.421231 1.440646 -0.582830343 0.759839558 0.288014994 0 0
2.170992 1.419483 1.441108 -0.342408093 -0.754117824 0.560413246 0 0
2.165648 1.41736 1.435297 -0.296503687 -0.718808938 0.628807819 0 0
2.178112 1.423597 1.446907 0.187897157 0.960685465 0.204396907 0 0
2.177365 1.422748 1.44415 0.352395162 0.762289534 -0.542892546 0 0
2.17635 1.423047 1.444991 -0.13990189 0.978413218 -0.152102055 0 0
2.179118 1.423295 1.446058 0.633290422 0.760588496 -0.142997837 0 0
2.179007 1.423095 1.446441 0.727456489 0.457535529 0.511339707 0 0
2.1783 1.423342 1.447111 0.581289008 0.512290313 0.632188045 0 0
2.171466 1.421523 1.439679 -0.158198976 0.972293709 -0.172098887 0 0
2.166996 1.419042 1.432875 0.273808086 0.73652175 -0.618518265 0 0
2.16593 1.419322 1.433659 -0.233609576 0.938538471 -0.254110416 0 0
2.172505 1.421231 1.438865 0.335804606 0.759810421 -0.556707635 0 0
2.172031 1.419192 1.440294 0.157602209 -0.97251363 0.171402402 0 0
2.177644 1.420955 1.444454 0.570425687 -0.762334329 -0.305713767 0 0
2.176722 1.420656 1.445395 0.13990189 -0.978413218 0.152102055 0 0
2.172929 1.419483 1.439327 0.587017529 -0.754222521 -0.294208785 0 0
2.167585 1.41736 1.433516 0.651417185 -0.718818963 -0.242806405 0 0
2.166715 1.417079 1.434513 0.231496345 -0.939685162 0.251796024 0 0
2.178414 1.421184 1.447235 0.426730869 -0.776256153 0.464033567 0 0
2.179173 1.421754 1.446621 0.79720961 -0.109401319 0.593707157 0 0
2.178522 1.421531 1.447353 0.66800686 -0.161101655 0.726507461 0 0
2.179345 1.421486 1.446303 0.813036628 -0.579326099 0.0579026086 0 0
2.17304 1.420357 1.438799 0.735395893 0.00749995811 -0.677596216 0 0
2.177827 1.421852 1.444005 0.736086445 -9.99981586e-05 -0.676887535 0 0
2.167614 1.418201 1.432899 0.732240216 0.0236012962 -0.680637382 0 0
2.179554 1.422391 1.445884 0.968027395 0.0934026433 -0.232806589 0 0
2.179379 1.422437 1.446342 0.84250436 0.175200907 0.509402636 0 0
2.157153 1.408663 1.426706 -0.768354978 0.0100007156 0.63994579 0 0
2.15795 1.408099 1.426924 0.00280005617 -0.315206323 0.949019038 0 0
2.157001 1.409227 1.425893 -0.931924431 0.338008861 -0.131403445 0 0
2.158873 1.413288 1.427929 -0.850151134 0.526131645 -0.0207012451 0 0
2.158952 1.412566 1.428663 -0.756547929 0.0197012481 0.653641409 0 0
2.159677 1.411844 1.428803 -0.0900026623 -0.507014998 0.857225357 0 0
2.161387 1.415674 1.431311 -0.749224991 0.0303010107 0.661622069 0 0
2.16206 1.414872 1.431394 -0.202994401 -0.634982487 0.745379443 0 0
2.16136 1.416477 1.430633 -0.744624015 0.659721276 0.101503274 0 0
2.157812 1.409415 1.424831 -0.612831267 0.424621665 -0.666434002 0 0
2.158938 1.409227 1.424112 -0.0530008276 0.33810528 -0.939614672 0 0
2.16081 1.413288 1.426148 0.0505009426 0.52610982 -0.848915845 0 0
2.159708 1.413529 1.426893 -0.50459373 0.666491719 -0.548793181 0 0
2.162212 1.416745 1.429616 -0.369183363 0.838162229 -0.401481908 0 0
2.163297 1.416477 1.428852 0.163503385 0.65971366 -0.733515188 0 0
2.178461 1.422452 1.447286 0.66592398 0.179406461 0.724126076 0 0
2.163145 1.414604 1.430631 0.36780789 -0.839518008 0.399908578 0 0
2.163997 1.414872 1.429613 0.759850501 -0.634842193 -0.140009305 0 0
2.161614 1.411844 1.427022 0.861814108 -0.506908298 -0.017900293 0 0
2.160779 1.411603 1.428058 0.505912815 -0.664316827 0.550213937 0 0
2.159076 1.407911 1.426206 0.61767908 -0.408886151 0.671777247 0 0
2.159887 1.408099 1.425143 0.945452455 -0.315217489 0.0822045608 0 0
2.152594 1.356833 1.419156 0.0129002602 -0.999820167 0.0139002804 0 0
2.159735 1.408663 1.424331 0.701951936 0.0101007473 -0.712152691 0 0
2.161535 1.412566 1.426288 0.71462791 0.0197007694 -0.699227309 0 0
2.16397 1.415674 1.428936 0.722016794 0.0302007025 -0.691216078 0 0
2.308532 1.415674 1.591645 -0.721964543 0.030402718 0.691261798 0 0
2.305506 1.419042 1.587706 -0.273808086 0.73652175 0.618518265 0 0
2.304888 1.418201 1.587683 -0.732240216 0.0236012962 0.680637382 0 0
2.309205 1.416477 1.591729 -0.163503385 0.65971366 0.733515188 0 0
2.311692 1.413288 1.594434 -0.0505035995 0.526037492 0.848960508 0 0
2.310967 1.412566 1.594293 -0.71462791 0.0197007694 0.699227309 0 0
2.310888 1.411844 1.593559 -0.861814108 -0.506908298 0.017900293 0 0
2.308505 1.414872 1.590968 -0.75979162 -0.634892997 0.140098455 0 0
2.304917 1.41736 1.587066 -0.651401365 -0.718801506 0.242900509 0 0
2.312767 1.408663 1.59625 -0.70190265 0.0100000378 0.712202689 0 0
2.313564 1.409227 1.596469 0.0530026195 0.338016705 0.939646438 0 0
2.315279 1.399987 1.598334 0.0836038555 0.169107799 0.982045288 0 0
2.314412 1.399619 1.598039 -0.725949925 0.000600041266 0.687747298 0 0
2.314191 1.399251 1.597151 -0.975791974 -0.159998684 -0.149098774 0 0
2.312616 1.408099 1.595438 -0.945492862 -0.315097621 -0.0821993794 0 0
2.319909 1.356833 1.601425 -0.0129002422 -0.999818772 -0.0140002629 0 0
2.318708 1.357068 1.601559 -0.465635322 -0.877366555 -0.115808785 0 0
2.319274 1.356979 1.600735 -0.311311821 -0.887933715 -0.338612857 0 0
2.318928 1.356956 1.602302 -0.298892404 -0.914076769 0.274093034 0 0
2.31963 1.357035 1.602562 0.0782012614 -0.854513783 0.513508283 0 0
2.320519 1.356932 1.602089 0.344201292 -0.861103234 0.374201405 0 0
2.321065 1.357035 1.601243 0.505097088 -0.854595073 0.120599305 0 0
2.320864 1.356956 1.600521 0.298208314 -0.914025483 -0.275007667 0 0
2.320143 1.357068 1.60024 -0.0765038547 -0.877344206 -0.473723869 0 0
2.313426 1.407911 1.594375 -0.617782412 -0.408888359 -0.671680878 0 0
2.311723 1.411603 1.592523 -0.505987216 -0.664283217 -0.5501861 0 0
2.314978 1.399129 1.596063 -0.662920809 -0.202006341 -0.72092263 0 0
2.316128 1.399251 1.59537 -0.0670016064 -0.160103839 -0.984823611 0 0
2.314552 1.408099 1.593657 -0.00290005735 -0.315206233 -0.949018767 0 0
2.312825 1.411844 1.591778 0.0899003187 -0.506901797 -0.857303039 0 0
2.309357 1.414604 1.58995 -0.367721411 -0.839548884 -0.399923286 0 0
2.305787 1.417079 1.586068 -0.231496345 -0.939685162 -0.251796024 0 0
2.310442 1.414872 1.589187 0.20310317 -0.634909911 -0.745411636 0 0
2.306854 1.41736 1.585285 0.296522332 -0.718854139 -0.628747353 0 0
2.294042 1.422452 1.573296 -0.665899637 0.179199902 -0.724199605 0 0
2.293495 1.423095 1.574141 -0.72741536 0.457409658 -0.511510801 0 0
2.294202 1.423342 1.57347 -0.581325756 0.512322699 -0.632128007 0 0
2.293123 1.422437 1.57424 -0.842404242 0.175100882 -0.509602566 0 0
2.293329 1.421754 1.573961 -0.797125823 -0.109403544 -0.593819237 0 0
2.29398 1.421531 1.573228 -0.668039118 -0.160809416 -0.726542544 0 0
2.294764 1.421754 1.572641 -0.525018544 -0.109403864 -0.844029812 0 0
2.295059 1.422437 1.572459 -0.43722093 0.175108383 -0.882142229 0 0
2.29493 1.423095 1.572821 -0.448713639 0.457613909 -0.767623332 0 0
2.31029 1.416745 1.590966 0.369214307 0.838132478 0.401515559 0 0
2.312795 1.413529 1.593689 0.504695955 0.666494658 0.548695602 0 0
2.306573 1.419322 1.586923 0.233609576 0.938538471 0.254110416 0 0
2.307443 1.419042 1.585925 0.639292984 0.736491917 -0.221097573 0 0
2.311142 1.416477 1.589948 0.744624015 0.659721276 -0.101503274 0 0
2.313629 1.413288 1.592653 0.850225337 0.526015676 0.0206006139 0 0
2.31469 1.409415 1.59575 0.612831267 0.424621665 0.666434002 0 0
2.316428 1.400109 1.597641 0.661326655 0.213308598 0.719128985 0 0
2.315501 1.409227 1.594688 0.931924431 0.338008861 0.131403445 0 0
2.317215 1.399987 1.596553 0.971603712 0.169200646 0.165400632 0 0
2.311115 1.415674 1.589271 0.749224991 0.0303010107 -0.661622069 0 0
2.31355 1.412566 1.591919 0.756547929 0.0197012481 -0.653641409 0 0
2.307471 1.418201 1.585308 0.739523003 0.023500731 -0.672720925 0 0
2.315349 1.408663 1.593876 0.768395167 0.0100999365 -0.639895975 0 0
2.316994 1.399619 1.595665 0.746022691 0.00060001825 -0.665920254 0 0
2.292948 1.422391 1.574698 -0.968049929 0.0934048176 0.232712002 0 0
2.293384 1.423296 1.574524 -0.633122445 0.760726968 0.14300507 0 0
2.295137 1.422748 1.576431 -0.352326704 0.762357781 0.542841143 0 0
2.294675 1.421852 1.576576 -0.736086449 0 0.676887539 0 0
2.294859 1.420955 1.576128 -0.570382202 -0.76237621 0.305690461 0 0
2.293158 1.421486 1.574278 -0.813031916 -0.579322742 -0.0580022769 0 0
2.299463 1.420357 1.581782 -0.735395893 0.00749995811 0.677596216 0 0
2.299997 1.421231 1.581716 -0.335804606 0.759810421 0.556707635 0 0
2.299573 1.419483 1.581255 -0.587083066 -0.754178246 0.294191514 0 0
2.294088 1.421184 1.573346 -0.426887949 -0.776078092 -0.464186896 0 0
2.295781 1.420656 1.575187 -0.13990189 -0.978413218 -0.152102055 0 0
2.296795 1.420955 1.574347 0.352414292 -0.762330917 -0.542822015 0 0
2.295094 1.421486 1.572497 0.0102004206 -0.579323889 -0.815033609 0 0
2.300471 1.419192 1.580287 -0.157599507 -0.972496956 -0.171499463 0 0
2.30151 1.419483 1.579474 0.342293995 -0.754186768 -0.560390168 0 0
2.301037 1.421523 1.580902 0.158201698 0.972310438 0.172001846 0 0
2.296152 1.423047 1.575591 0.13990189 0.978413218 0.152102055 0 0
2.297074 1.422748 1.57465 0.570408245 0.762311019 -0.30580442 0 0
2.301934 1.421231 1.579935 0.582813553 0.75981767 -0.2881067 0 0
2.29439 1.423597 1.573674 -0.187997464 0.96068704 -0.204297244 0 0
2.295321 1.423296 1.572743 0.195411446 0.760744558 -0.618936252 0 0
2.302045 1.420357 1.579407 0.736739468 0.00740039645 -0.676136222 0 0
2.297258 1.421852 1.574201 0.736136274 0 -0.676833352 0 0
2.29553 1.422391 1.572323 0.313017545 0.0933052299 -0.945152977 0 0
2.316383 1.381088 1.600183 -0.734216443 0.000600013437 0.678915204 0 0
2.317295 1.381263 1.600527 0.0753054094 0.115308283 0.990471148 0 0
2.318933 1.363541 1.602308 0.0679016008 0.106202504 0.992023387 0 0
2.317997 1.36351 1.601938 -0.736136259 0.000200009852 0.676833338 0 0
2.317706 1.363479 1.600974 -0.982960724 -0.104806475 -0.151009329 0 0
2.316117 1.380913 1.599246 -0.981531243 -0.112803591 -0.154504918 0 0
2.318568 1.357324 1.602558 -0.662343441 -0.416527319 0.622740844 0 0
2.319513 1.357303 1.602938 0.0570994753 -0.320897051 0.945391312 0 0
2.318269 1.357344 1.601585 -0.88884607 -0.442722947 -0.118106122 0 0
2.31689 1.380855 1.598142 -0.669914782 -0.143103158 -0.728516075 0 0
2.31847 1.363469 1.599861 -0.670802734 -0.133600544 -0.729502973 0 0
2.319643 1.363479 1.599193 -0.068202808 -0.104904319 -0.992140847 0 0
2.318054 1.380913 1.597465 -0.0719009185 -0.112801441 -0.99101266 0 0
2.31903 1.357351 1.600469 -0.604234424 -0.45092569 -0.656937427 0 0
2.320205 1.357344 1.599804 -0.0433009193 -0.442709399 -0.895619014 0 0
2.320688 1.357296 1.602273 0.651612198 -0.271205077 0.708413262 0 0
2.320106 1.363551 1.60164 0.670640696 0.135808241 0.729244252 0 0
2.32087 1.363541 1.600527 0.982856629 0.106206119 0.150708683 0 0
2.321449 1.357303 1.601157 0.937323555 -0.320908065 0.135803413 0 0
2.31846 1.381322 1.599849 0.669614725 0.146503222 0.728116011 0 0
2.319232 1.381263 1.598746 0.980700495 0.115300058 0.15790008 0 0
2.32115 1.357324 1.600184 0.676003157 -0.416501945 -0.607902839 0 0
2.320579 1.36351 1.599563 0.736182067 0.000199995128 -0.676783514 0 0
2.318966 1.381088 1.597808 0.738000221 0.00060000018 -0.674800202 0 0
2.332165 1.381088 1.585671 0.737904878 0.000600003966 -0.674904461 0 0
2.334069 1.363541 1.588389 0.982856629 0.106206119 0.150708683 0 0
2.333778 1.36351 1.587426 0.736040612 0.000200011036 -0.676937351 0 0
2.332431 1.381263 1.586608 0.980715976 0.115301878 0.157802571 0 0
2.330415 1.399987 1.584416 0.971603712 0.169200646 0.165400632 0 0
2.330193 1.399619 1.583527 0.746022691 0.00060001825 -0.665920254 0 0
2.329327 1.399251 1.583233 -0.0669020519 -0.16010491 -0.984830205 0 0
2.331253 1.380913 1.585328 -0.0718014332 -0.112802252 -0.991019781 0 0
2.332842 1.363479 1.587055 -0.068202808 -0.104904319 -0.992140847 0 0
2.334349 1.357324 1.588046 0.675907753 -0.416504777 -0.608006974 0 0
2.334264 1.357035 1.589105 0.505128061 -0.854547471 0.120806711 0 0
2.334064 1.356956 1.588384 0.29800703 -0.914121564 -0.274906485 0 0
2.334648 1.357303 1.58902 0.937267998 -0.32098904 0.135995357 0 0
2.333404 1.357344 1.587667 -0.0433009193 -0.442709399 -0.895619014 0 0
2.333342 1.357068 1.588103 -0.0765038547 -0.877344206 -0.473723869 0 0
2.331659 1.381322 1.587712 0.669559557 0.146513032 0.728164769 0 0
2.332132 1.363541 1.590171 0.0679016008 0.106202504 0.992023387 0 0
2.333305 1.363551 1.589502 0.670591789 0.135798337 0.72929107 0 0
2.330494 1.381263 1.588389 0.0752059682 0.115309151 0.990478603 0 0
2.328478 1.399987 1.586197 0.0835045486 0.169109212 0.982053494 0 0
2.329627 1.400109 1.585503 0.661279097 0.213293258 0.719177267 0 0
2.333887 1.357296 1.590136 0.651543818 -0.271018227 0.708547651 0 0
2.332829 1.357035 1.590425 0.0782012614 -0.854513783 0.513508283 0 0
2.333718 1.356932 1.589951 0.34421805 -0.86104515 0.374319628 0 0
2.332711 1.357303 1.590801 0.0570016303 -0.320809175 0.94542704 0 0
2.332228 1.357351 1.588332 -0.604131228 -0.450923309 -0.657033963 0 0
2.330905 1.363479 1.588836 -0.982950417 -0.104905381 -0.151007745 0 0
2.331669 1.363469 1.587724 -0.670802734 -0.133600544 -0.729502973 0 0
2.331467 1.357344 1.589448 -0.88884607 -0.442722947 -0.118106122 0 0
2.331907 1.357068 1.589422 -0.465635322 -0.877366555 -0.115808785 0 0
2.332473 1.356979 1.588597 -0.311402128 -0.887906069 -0.338602314 0 0
2.330088 1.380855 1.586005 -0.669914782 -0.143103158 -0.728516075 0 0
2.32739 1.399251 1.585014 -0.975776357 -0.160096121 -0.149096387 0 0
2.328177 1.399129 1.583926 -0.662920809 -0.202006341 -0.72092263 0 0
2.329316 1.380913 1.587109 -0.981531243 -0.112803591 -0.154504918 0 0
2.331767 1.357324 1.590421 -0.662343441 -0.416527319 0.622740844 0 0
2.331196 1.36351 1.5898 -0.736136259 0.000200009852 0.676833338 0 0
2.332127 1.356956 1.590165 -0.299010793 -0.914032993 0.274109894 0 0
2.329582 1.381088 1.588046 -0.734216443 0.000600013437 0.678915204 0 0
2.327611 1.399619 1.585902 -0.725997223 0.000599997705 0.68769737 0 0
2.308729 1.422391 1.560186 0.313104825 0.0934014393 -0.945114564 0 0
2.310273 1.422748 1.562513 0.570425687 0.762334329 -0.305713767 0 0
2.310457 1.421852 1.562064 0.736136274 0 -0.676833352 0 0
2.308519 1.423296 1.560606 0.195414215 0.760655332 -0.619045031 0 0
2.308129 1.423095 1.560684 -0.448720251 0.457420644 -0.767734649 0 0
2.308258 1.422437 1.560321 -0.437093817 0.175197522 -0.882187522 0 0
2.307963 1.421754 1.560504 -0.524890295 -0.109597974 -0.844084393 0 0
2.308293 1.421486 1.560359 0.0105004004 -0.57932209 -0.815031078 0 0
2.309994 1.420955 1.562209 0.352414292 -0.762330917 -0.542822015 0 0
2.315244 1.420357 1.56727 0.736738919 0.00750039622 -0.676135718 0 0
2.320642 1.419042 1.573788 0.639233848 0.736539001 -0.221111708 0 0
2.32067 1.418201 1.573171 0.739523003 0.023500731 -0.672720925 0 0
2.315133 1.421231 1.567798 0.582830343 0.759839558 -0.288014994 0 0
2.314709 1.419483 1.567336 0.342293995 -0.754186768 -0.560390168 0 0
2.320052 1.41736 1.573147 0.296522332 -0.718854139 -0.628747353 0 0
2.307589 1.423597 1.561537 -0.187897157 0.960685465 -0.204396907 0 0
2.308336 1.422748 1.564294 -0.352395162 0.762289534 0.542892546 0 0
2.309351 1.423047 1.563454 0.13990189 0.978413218 0.152102055 0 0
2.306583 1.423296 1.562387 -0.633230522 0.760636664 0.143006893 0 0
2.306694 1.423095 1.562003 -0.727389911 0.457693652 -0.511292908 0 0
2.307401 1.423342 1.561333 -0.581289008 0.512290313 -0.632188045 0 0
2.314235 1.421523 1.568765 0.158201698 0.972310438 0.172001846 0 0
2.318705 1.419042 1.575569 -0.273808086 0.73652175 0.618518265 0 0
2.319772 1.419322 1.574785 0.233609576 0.938538471 0.254110416 0 0
2.313196 1.421231 1.569579 -0.335804606 0.759810421 0.556707635 0 0
2.31367 1.419192 1.56815 -0.157602209 -0.97251363 -0.171402402 0 0
2.308058 1.420955 1.56399 -0.570493146 -0.762290841 0.305696327 0 0
2.30898 1.420656 1.563049 -0.13990189 -0.978413218 -0.152102055 0 0
2.312772 1.419483 1.569117 -0.587017529 -0.754222521 0.294208785 0 0
2.318116 1.41736 1.574928 -0.651417185 -0.718818963 0.242806405 0 0
2.318986 1.417079 1.573931 -0.231496345 -0.939685162 -0.251796024 0 0
2.307287 1.421184 1.561209 -0.426711065 -0.776220128 -0.464112035 0 0
2.306528 1.421754 1.561823 -0.797155699 -0.109607659 -0.593741486 0 0
2.307179 1.421531 1.561091 -0.667996096 -0.161199058 -0.726495754 0 0
2.306356 1.421486 1.56214 -0.813036628 -0.579326099 -0.0579026086 0 0
2.312661 1.420357 1.569645 -0.735395893 0.00749995811 0.677596216 0 0
2.307874 1.421852 1.564439 -0.73613627 -0.000100004927 0.676833348 0 0
2.318088 1.418201 1.575546 -0.732240216 0.0236012962 0.680637382 0 0
2.306147 1.422391 1.56256 -0.968036433 0.0933035115 0.232808762 0 0
2.306321 1.422437 1.562102 -0.84250436 0.175200907 -0.509402636 0 0
2.328548 1.408663 1.581738 0.768395939 0.00999994715 -0.639896618 0 0
2.327751 1.408099 1.581519 -0.00280005617 -0.315206323 -0.949019038 0 0
2.3287 1.409227 1.582551 0.931924431 0.338008861 0.131403445 0 0
2.326828 1.413288 1.580515 0.850225337 0.526015676 0.0206006139 0 0
2.326749 1.412566 1.579781 0.756547929 0.0197012481 -0.653641409 0 0
2.326024 1.411844 1.579641 0.0899080264 -0.506945257 -0.857276532 0 0
2.324314 1.415674 1.577133 0.749224991 0.0303010107 -0.661622069 0 0
2.323641 1.414872 1.577049 0.20310317 -0.634909911 -0.745411636 0 0
2.324341 1.416477 1.577811 0.744616452 0.659714577 -0.101602245 0 0
2.327889 1.409415 1.583613 0.612831267 0.424621665 0.666434002 0 0
2.326763 1.409227 1.584332 0.0530026195 0.338016705 0.939646438 0 0
2.324891 1.413288 1.582296 -0.0505009426 0.52610982 0.848915845 0 0
2.325994 1.413529 1.581552 0.50459373 0.666491719 0.548793181 0 0
2.323489 1.416745 1.578828 0.369183363 0.838162229 0.401481908 0 0
2.322404 1.416477 1.579592 -0.163503385 0.65971366 0.733515188 0 0
2.30724 1.422452 1.561158 -0.665875759 0.179393469 -0.724173637 0 0
2.322556 1.414604 1.577813 -0.36780789 -0.839518008 -0.399908578 0 0
2.321704 1.414872 1.578831 -0.759861137 -0.634851079 0.139911257 0 0
2.324087 1.411844 1.581422 -0.861814108 -0.506908298 0.017900293 0 0
2.324922 1.411603 1.580386 -0.505912815 -0.664316827 -0.550213937 0 0
2.326625 1.407911 1.582238 -0.617704333 -0.408802868 -0.671804713 0 0
2.325814 1.408099 1.5833 -0.945444678 -0.315214896 -0.0823038894 0 0
2.333107 1.356833 1.589288 -0.0129002422 -0.999818772 -0.0140002629 0 0
2.325966 1.408663 1.584113 -0.701952641 0.01000075 0.712153406 0 0
2.324166 1.412566 1.582156 -0.71462791 0.0197007694 0.699227309 0 0
2.321731 1.415674 1.579508 -0.721968919 0.0302028832 0.691265988 0 0
3 0 1 2
3 0 3 1
3 0 4 3
3 0 5 4
3 0 6 5
3 0 7 6
3 0 8 7
3 0 2 8
3 9 4 5
3 9 10 4
3 9 11 10
3 9 12 11
3 9 13 12
3 9 14 13
3 9 6 14
3 9 5 6
3 15 16 17
3 15 18 16
3 15 19 18
3 15 20 19
3 15 21 20
3 15 22 21
3 15 23 22
3 15 17 23
3 24 6 25
3 24 14 6
3 24 13 14
3 24 26 13
3 24 27 26
3 24 28 27
3 24 29 28
3 24 25 29
3 30 8 31
3 30 7 8
3 30 6 7
3 30 25 6
3 30 29 25
3 30 32 29
3 30 33 32
3 30 31 33
3 34 35 36
3 34 37 35
3 34 38 37
3 34 39 38
3 34 40 39
3 34 41 40
3 34 42 41
3 34 36 42
3 43 4 44
3 43 3 4
3 43 1 3
3 43 45 1
3 43 46 45
3 43 47 46
3 43 48 47
3 43 44 48
3 49 11 50
3 49 10 11
3 49 4 10
3 49 44 4
3 49 48 44
3 49 51 48
3 49 52 51
3 49 50 52
3 53 29 32
3 53 54 29
3 53 48 54
3 53 47 48
3 53 46 47
3 53 55 46
3 53 33 55
3 53 32 33
3 56 27 28
3 56 57 27
3 56 52 57
3 56 51 52
3 56 48 51
3 56 54 48
3 56 29 54
3 56 28 29
3 58 35 37
3 58 59 35
3 58 60 59
3 58 61 60
3 58 62 61
3 58 63 62
3 58 38 63
3 58 37 38
3 64 60 61
3 64 65 60
3 64 1 65
3 64 2 1
3 64 8 2
3 64 66 8
3 64 62 66
3 64 61 62
3 67 38 39
3 67 63 38
3 67 62 63
3 67 68 62
3 67 69 68
3 67 70 69
3 67 40 70
3 67 39 40
3 71 62 68
3 71 66 62
3 71 8 66
3 71 31 8
3 71 33 31
3 71 72 33
3 71 69 72
3 71 68 69
3 73 1 45
3 73 65 1
3 73 60 65
3 73 74 60
3 73 75 74
3 73 76 75
3 73 46 76
3 73 45 46
3 77 60 74
3 77 59 60
3 77 35 59
3 77 36 35
3 77 42 36
3 77 78 42
3 77 75 78
3 77 74 75
3 79 46 55
3 79 76 46
3 79 75 76
3 79 80 75
3 79 69 80
3 79 72 69
3 79 33 72
3 79 55 33
3 81 75 80
3 81 78 75
3 81 42 78
3 81 41 42
3 81 40 41
3 81 70 40
3 81 69 70
3 81 80 69
3 82 11 12
3 82 83 11
3 82 84 83
3 82 85 84
3 82 86 85
3 82 87 86
3 82 13 87
3 82 12 13
3 88 84 85
3 88 89 84
3 88 19 89
3 88 18 19
3 88 16 18
3 88 90 16
3 88 86 90
3 88 85 86
3 91 13 26
3 91 87 13
3 91 86 87
3 91 92 86
3 91 93 92
3 91 94 93
3 91 27 94
3 91 26 27
3 95 86 92
3 95 90 86
3 95 16 90
3 95 17 16
3 95 23 17
3 95 96 23
3 95 93 96
3 95 92 93
3 97 19 20
3 97 89 19
3 97 84 89
3 97 98 84
3 97 99 98
3 97 100 99
3 97 21 100
3 97 20 21
3 101 84 98
3 101 83 84
3 101 11 83
3 101 50 11
3 101 52 50
3 101 102 52
3 101 99 102
3 101 98 99
3 103 21 22
3 103 100 21
3 103 99 100
3 103 104 99
3 103 93 104
3 103 96 93
3 103 23 96
3 103 22 23
3 105 99 104
3 105 102 99
3 105 52 102
3 105 57 52
3 105 27 57
3 105 94 27
3 105 93 94
3 105 104 93
3 106 107 108
3 106 109 107
3 106 110 109
3 106 111 110
3 106 112 111
3 106 113 112
3 106 114 113
3 106 108 114
3 115 116 117
3 115 118 116
3 115 107 118
3 115 108 107
3 115 114 108
3 115 119 114
3 115 120 119
3 115 117 120
3 121 122 123
3 121 124 122
3 121 125 124
3 121 126 125
3 121 110 126
3 121 109 110
3 121 107 109
3 121 123 107
3 127 128 129
3 127 130 128
3 127 122 130
3 127 123 122
3 127 107 123
3 127 118 107
3 127 116 118
3 127 129 116
3 131 132 133
3 131 134 132
3 131 135 134
3 131 136 135
3 131 120 136
3 131 119 120
3 131 114 119
3 131 133 114
3 137 138 139
3 137 140 138
3 137 132 140
3 137 133 132
3 137 114 133
3 137 113 114
3 137 112 113
3 137 139 112
3 141 122 142
3 141 130 122
3 141 128 130
3 141 143 128
3 141 135 143
3 141 134 135
3 141 132 134
3 141 142 132
3 144 125 145
3 144 124 125
3 144 122 124
3 144 142 122
3 144 132 142
3 144 140 132
3 144 138 140
3 144 145 138
3 146 147 148
3 146 149 147
3 146 150 149
3 146 151 150
3 146 152 151
3 146 153 152
3 146 154 153
3 146 148 154
3 155 156 157
3 155 158 156
3 155 147 158
3 155 148 147
3 155 154 148
3 155 159 154
3 155 160 159
3 155 157 160
3 161 162 163
3 161 164 162
3 161 165 164
3 161 166 165
3 161 150 166
3 161 149 150
3 161 147 149
3 161 163 147
3 167 168 169
3 167 170 168
3 167 162 170
3 167 163 162
3 167 147 163
3 167 158 147
3 167 156 158
3 167 169 156
3 171 172 173
3 171 174 172
3 171 175 174
3 171 176 175
3 171 160 176
3 171 159 160
3 171 154 159
3 171 173 154
3 177 178 179
3 177 180 178
3 177 172 180
3 177 173 172
3 177 154 173
3 177 153 154
3 177 152 153
3 177 179 152
3 181 162 182
3 181 170 162
3 181 168 170
3 181 183 168
3 181 175 183
3 181 174 175
3 181 172 174
3 181 182 172
3 184 165 185
3 184 164 165
3 184 162 164
3 184 182 162
3 184 172 182
3 184 180 172
3 184 178 180
3 184 185 178
3 186 112 187
3 186 111 112
3 186 110 111
3 186 188 110
3 186 189 188
3 186 190 189
3 186 191 190
3 186 187 191
3 192 191 193
3 192 190 191
3 192 189 190
3 192 194 189
3 192 156 194
3 192 157 156
3 192 160 157
3 192 193 160
3 195 125 126
3 195 196 125
3 195 197 196
3 195 198 197
3 195 189 198
3 195 188 189
3 195 110 188
3 195 126 110
3 199 197 198
3 199 200 197
3 199 168 200
3 199 169 168
3 199 156 169
3 199 194 156
3 199 189 194
3 199 198 189
3 201 165 166
3 201 185 165
3 201 178 185
3 201 179 178
3 201 152 179
3 201 151 152
3 201 150 151
3 201 166 150
3 202 175 176
3 202 203 175
3 202 204 203
3 202 205 204
3 202 191 205
3 202 193 191
3 202 160 193
3 202 176 160
3 206 204 205
3 206 207 204
3 206 138 207
3 206 139 138
3 206 112 139
3 206 187 112
3 206 191 187
3 206 205 191
3 208 135 136
3 208 143 135
3 208 128 143
3 208 129 128
3 208 116 129
3 208 117 116
3 208 120 117
3 208 136 120
3 209 197 210
3 209 196 197
3 209 125 196
3 209 145 125
3 209 138 145
3 209 207 138
3 209 204 207
3 209 210 204
3 211 168 183
3 211 200 168
3 211 197 200
3 211 210 197
3 211 204 210
3 211 203 204
3 211 175 203
3 211 183 175
3 212 213 214
3 212 215 213
3 212 216 215
3 212 217 216
3 212 218 217
3 212 219 218
3 212 220 219
3 212 214 220
3 221 216 217
3 221 222 216
3 221 223 222
3 221 224 223
3 221 225 224
3 221 226 225
3 221 218 226
3 221 217 218
3 227 228 229
3 227 230 228
3 227 231 230
3 227 232 231
3 227 233 232
3 227 234 233
3 227 235 234
3 227 229 235
3 236 218 237
3 236 226 218
3 236 225 226
3 236 238 225
3 236 239 238
3 236 240 239
3 236 241 240
3 236 237 241
3 242 220 243
3 242 219 220
3 242 218 219
3 242 237 218
3 242 241 237
3 242 244 241
3 242 245 244
3 242 243 245
3 246 247 248
3 246 249 247
3 246 250 249
3 246 251 250
3 246 252 251
3 246 253 252
3 246 254 253
3 246 248 254
3 255 216 256
3 255 215 216
3 255 213 215
3 255 257 213
3 255 258 257
3 255 259 258
3 255 260 259
3 255 256 260
3 261 223 262
3 261 222 223
3 261 216 222
3 261 256 216
3 261 260 256
3 261 263 260
3 261 264 263
3 261 262 264
3 265 241 244
3 265 266 241
3 265 260 266
3 265 259 260
3 265 258 259
3 265 267 258
3 265 245 267
3 265 244 245
3 268 239 240
3 268 269 239
3 268 264 269
3 268 263 264
3 268 260 263
3 268 266 260
3 268 241 266
3 268 240 241
3 270 247 249
3 270 271 247
3 270 272 271
3 270 273 272
3 270 274 273
3 270 275 274
3 270 250 275
3 270 249 250
3 276 272 273
3 276 277 272
3 276 213 277
3 276 214 213
3 276 220 214
3 276 278 220
3 276 274 278
3 276 273 274
3 279 250 251
3 279 275 250
3 279 274 275
3 279 280 274
3 279 281 280
3 279 282 281
3 279 252 282
3 279 251 252
3 283 274 280
3 283 278 274
3 283 220 278
3 283 243 220
3 283 245 243
3 283 284 245
3 283 281 284
3 283 280 281
3 285 213 257
3 285 277 213
3 285 272 277
3 285 286 272
3 285 287 286
3 285 288 287
3 285 258 288
3 285 257 258
3 289 272 286
3 289 271 272
3 289 247 271
3 289 248 247
3 289 254 248
3 289 290 254
3 289 287 290
3 289 286 287
3 291 258 267
3 291 288 258
3 291 287 288
3 291 292 287
3 291 281 292
3 291 284 281
3 291 245 284
3 291 267 245
3 293 287 292
3 293 290 287
3 293 254 290
3 293 253 254
3 293 252 253
3 293 282 252
3 293 281 282
3 293 292 281
3 294 223 224
3 294 295 223
3 294 296 295
3 294 297 296
3 294 298 297
3 294 299 298
3 294 225 299
3 294 224 225
3 300 296 297
3 300 301 296
3 300 231 301
3 300 230 231
3 300 228 230
3 300 302 228
3 300 298 302
3 300 297 298
3 303 225 238
3 303 299 225
3 303 298 299
3 303 304 298
3 303 305 304
3 303 306 305
3 303 239 306
3 303 238 239
3 307 298 304
3 307 302 298
3 307 228 302
3 307 229 228
3 307 235 229
3 307 308 235
3 307 305 308
3 307 304 305
3 309 231 232
3 309 301 231
3 309 296 301
3 309 310 296
3 309 311 310
3 309 312 311
3 309 233 312
3 309 232 233
3 313 296 310
3 313 295 296
3 313 223 295
3 313 262 223
3 313 264 262
3 313 314 264
3 313 311 314
3 313 310 311
3 315 233 234
3 315 312 233
3 315 311 312
3 315 316 311
3 315 305 316
3 315 308 305
3 315 235 308
3 315 234 235
3 317 311 316
3 317 314 311
3 317 264 314
3 317 269 264
3 317 239 269
3 317 306 239
3 317 305 306
3 317 316 305
3 318 319 320
3 318 321 319
3 318 322 321
3 318 323 322
3 318 324 323
3 318 325 324
3 318 326 325
3 318 320 326
3 327 328 329
3 327 330 328
3 327 319 330
3 327 320 319
3 327 326 320
3 327 331 326
3 327 332 331
3 327 329 332
3 333 334 335
3 333 336 334
3 333 337 336
3 333 338 337
3 333 322 338
3 333 321 322
3 333 319 321
3 333 335 319
3 339 340 341
3 339 342 340
3 339 334 342
3 339 335 334
3 339 319 335
3 339 330 319
3 339 328 330
3 339 341 328
3 343 344 345
3 343 346 344
3 343 347 346
3 343 348 347
3 343 332 348
3 343 331 332
3 343 326 331
3 343 345 326
3 349 350 351
3 349 352 350
3 349 344 352
3 349 345 344
3 349 326 345
3 349 325 326
3 349 324 325
3 349 351 324
3 353 334 354
3 353 342 334
3 353 340 342
3 353 355 340
3 353 347 355
3 353 346 347
3 353 344 346
3 353 354 344
3 356 337 357
3 356 336 337
3 356 334 336
3 356 354 334
3 356 344 354
3 356 352 344
3 356 350 352
3 356 357 350
3 358 359 360
3 358 361 359
3 358 362 361
3 358 363 362
3 358 364 363
3 358 365 364
3 358 366 365
3 358 360 366
3 367 368 369
3 367 370 368
3 367 359 370
3 367 360 359
3 367 366 360
3 367 371 366
3 367 372 371
3 367 369 372
3 373 374 375
3 373 376 374
3 373 377 376
3 373 378 377
3 373 362 378
3 373 361 362
3 373 359 361
3 373 375 359
3 379 380 381
3 379 382 380
3 379 374 382
3 379 375 374
3 379 359 375
3 379 370 359
3 379 368 370
3 379 381 368
3 383 384 385
3 383 386 384
3 383 387 386
3 383 388 387
3 383 372 388
3 383 371 372
3 383 366 371
3 383 385 366
3 389 390 391
3 389 392 390
3 389 384 392
3 389 385 384
3 389 366 385
3 389 365 366
3 389 364 365
3 389 391 364
3 393 374 394
3 393 382 374
3 393 380 382
3 393 395 380
3 393 387 395
3 393 386 387
3 393 384 386
3 393 394 384
3 396 377 397
3 396 376 377
3 396 374 376
3 396 394 374
3 396 384 394
3 396 392 384
3 396 390 392
3 396 397 390
3 398 324 399
3 398 323 324
3 398 322 323
3 398 400 322
3 398 401 400
3 398 402 401
3 398 403 402
3 398 399 403
3 404 403 405
3 404 402 403
3 404 401 402
3 404 406 401
3 404 368 406
3 404 369 368
3 404 372 369
3 404 405 372
3 407 337 338
3 407 408 337
3 407 409 408
3 407 410 409
3 407 401 410
3 407 400 401
3 407 322 400
3 407 338 322
3 411 409 410
3 411 412 409
3 411 380 412
3 411 381 380
3 411 368 381
3 411 406 368
3 411 401 406
3 411 410 401
3 413 377 378
3 413 397 377
3 413 390 397
3 413 391 390
3 413 364 391
3 413 363 364
3 413 362 363
3 413 378 362
3 414 387 388
3 414 415 387
3 414 416 415
3 414 417 416
3 414 403 417
3 414 405 403
3 414 372 405
3 414 388 372
3 418 416 417
3 418 419 416
3 418 350 419
3 418 351 350
3 418 324 351
3 418 399 324
3 418 403 399
3 418 417 403
3 420 347 348
3 420 355 347
3 420 340 355
3 420 341 340
3 420 328 341
3 420 329 328
3 420 332 329
3 420 348 332
3 421 409 422
3 421 408 409
3 421 337 408
3 421 357 337
3 421 350 357
3 421 419 350
3 421 416 419
3 421 422 416
3 423 380 395
3 423 412 380
3 423 409 412
3 423 422 409
3 423 416 422
3 423 415 416
3 423 387 415
3 423 395 387
