ply
format ascii 1.0
element vertex 353
property float x
property float y
property float z
property float nx
property float ny
property float nz
property float u
property float v
element face 688
property list uchar int vertex_indices
end_header
2.187639 1.320888 1.498859 0.722713865 0.0445008538 -0.689713232 0 0
2.18984 1.322392 1.501296 0.723292369 0.186098037 -0.664992984 0 0
2.189862 1.321568 1.501277 0.735227697 0.0479018045 -0.67612547 0 0
2.187405 1.321647 1.498648 0.675413623 0.171103451 -0.717314468 0 0
2.185326 1.319629 1.496387 0.634394912 0.131198948 -0.76179389 0 0
2.185741 1.319047 1.496796 0.712228753 0.0339013686 -0.701128305 0 0
2.186175 1.318464 1.497189 0.583117581 0.187205644 -0.790523835 0 0
2.187891 1.320129 1.499055 0.639936621 0.247314153 -0.727541635 0 0
2.189901 1.320745 1.501241 0.709885309 0.264694522 -0.652686493 0 0
2.184495 1.316244 1.495441 0.705032975 0.0185008653 -0.708933158 0 0
2.183456 1.31296 1.494353 0.597308574 0 -0.802011513 0 0
2.18396 1.316558 1.494902 0.607639072 0.0708045529 -0.791050866 0 0
2.184035 1.31296 1.49494 0.702793745 0 -0.711393669 0 0
2.184632 1.31296 1.49551 0.530726871 0 -0.847542912 0 0
2.185048 1.31593 1.495963 0.541891598 0.102398412 -0.834187066 0 0
2.184495 1.309676 1.495441 0.705032975 -0.0185008653 -0.708933158 0 0
2.18396 1.309361 1.494902 0.607639072 -0.0708045529 -0.791050866 0 0
2.185326 1.30629 1.496387 0.634394912 -0.131198948 -0.76179389 0 0
2.185741 1.306873 1.496796 0.712226335 -0.0340012572 -0.701125925 0 0
2.186175 1.307455 1.497189 0.583106662 -0.18730214 -0.790509032 0 0
2.185048 1.30999 1.495963 0.541936804 -0.102406955 -0.83415665 0 0
2.187639 1.305031 1.498859 0.722713865 -0.0445008538 -0.689713232 0 0
2.187405 1.304273 1.498648 0.675413623 -0.171103451 -0.717314468 0 0
2.18984 1.303527 1.501296 0.723305826 -0.186001498 -0.665005357 0 0
2.189862 1.304351 1.501277 0.735227697 -0.0479018045 -0.67612547 0 0
2.189901 1.305175 1.501241 0.709904096 -0.264601527 -0.652703766 0 0
2.187891 1.30579 1.499055 0.639995667 -0.247298326 -0.727495075 0 0
2.192084 1.305031 1.503694 0.747721763 -0.0445012952 -0.662519283 0 0
2.194355 1.30629 1.506206 0.812335016 -0.131705677 -0.56812449 0 0
2.192276 1.304273 1.503945 0.771441952 -0.171209311 -0.612833327 0 0
2.193982 1.306873 1.505757 0.758130519 -0.0338013607 -0.651226216 0 0
2.193627 1.307455 1.505293 0.836530848 -0.187006896 -0.515018992 0 0
2.191911 1.30579 1.503427 0.778629121 -0.247009238 -0.576821574 0 0
2.195228 1.309676 1.507113 0.765354518 -0.0184013108 -0.643345827 0 0
2.196225 1.31296 1.508239 0.849187156 0 -0.528092013 0 0
2.19572 1.309361 1.507691 0.839230863 -0.0710026112 -0.539119826 0 0
2.195688 1.31296 1.507613 0.767704633 0 -0.640803867 0 0
2.19517 1.31296 1.506971 0.889002929 0 -0.457901509 0 0
2.194754 1.30999 1.506518 0.876567156 -0.102296167 -0.470282379 0 0
2.195228 1.316244 1.507113 0.765394527 0.0184998677 -0.6432954 0 0
2.19572 1.316558 1.507691 0.839236818 0.0709031106 -0.539123652 0 0
2.194355 1.319629 1.506206 0.812335016 0.131705677 -0.56812449 0 0
2.193982 1.319047 1.505757 0.75822241 0.033800999 -0.651119244 0 0
2.193627 1.318464 1.505293 0.836530848 0.187006896 -0.515018992 0 0
2.194754 1.31593 1.506518 0.87654399 0.102305134 -0.470323604 0 0
2.192084 1.320888 1.503694 0.747721763 0.0445012952 -0.662519283 0 0
2.192276 1.321647 1.503945 0.771381464 0.171295884 -0.612885273 0 0
2.191911 1.320129 1.503427 0.778609885 0.247103137 -0.576807323 0 0
2.191868 1.318833 1.496127 0.359208741 0.632515392 -0.686216699 0 0
2.193097 1.320187 1.498301 0.383213035 0.853829043 -0.352311984 0 0
2.193515 1.319337 1.497918 0.537934765 0.682544111 -0.494731973 0 0
2.191231 1.319616 1.496272 0.162806055 0.788329319 -0.593322066 0 0
2.189638 1.31807 1.49454 -0.0254001386 0.603703293 -0.796804347 0 0
2.190462 1.317469 1.494599 0.21129467 0.482587827 -0.84997856 0 0
2.191741 1.316868 1.494239 -0.185594802 0.660881492 -0.727179636 0 0
2.192959 1.31805 1.495564 0.0181008613 0.864141121 -0.502923932 0 0
2.194386 1.318487 1.497116 0.261713015 0.934646481 -0.240711971 0 0
2.189539 1.315392 1.493595 0.108497566 0.261894126 -0.95897849 0 0
2.188205 1.31296 1.492982 -0.194712001 0 -0.980860457 0 0
2.188592 1.315717 1.493402 -0.149807151 0.326515587 -0.933244549 0 0
2.189198 1.31296 1.493224 0.0760005924 0 -0.997107772 0 0
2.190645 1.31296 1.493048 -0.370925081 0 -0.928662794 0 0
2.190941 1.315068 1.493369 -0.324517377 0.357919165 -0.875546882 0 0
2.189539 1.310527 1.493595 0.108497566 -0.261894126 -0.95897849 0 0
2.188592 1.310203 1.493402 -0.149807151 -0.326515587 -0.933244549 0 0
2.189638 1.30785 1.49454 -0.0253002021 -0.603704824 -0.796806367 0 0
2.190462 1.308451 1.494599 0.211408168 -0.482618646 -0.849932838 0 0
2.191741 1.309052 1.494239 -0.185594802 -0.660881492 -0.727179636 0 0
2.190941 1.310851 1.493369 -0.324517377 -0.357919165 -0.875546882 0 0
2.191868 1.307087 1.496127 0.359295836 -0.632492669 -0.686192047 0 0
2.191231 1.306304 1.496272 0.162806055 -0.788329319 -0.593322066 0 0
2.193097 1.305733 1.498301 0.383114212 -0.853831673 -0.352413073 0 0
2.193515 1.306583 1.497918 0.537934765 -0.682544111 -0.494731973 0 0
2.194386 1.307433 1.497116 0.261713015 -0.934646481 -0.240711971 0 0
2.192959 1.30787 1.495564 0.0182008331 -0.864139553 -0.502923019 0 0
2.195161 1.307087 1.499708 0.713875079 -0.632477921 -0.300589507 0 0
2.196556 1.30785 1.502063 0.791898056 -0.603698518 0.0918997744 0 0
2.194963 1.306304 1.500331 0.604836687 -0.788347819 -0.11260683 0 0
2.196567 1.308451 1.501237 0.864670126 -0.482583327 -0.139495181 0 0
2.197031 1.309052 1.499993 0.709089626 -0.660890331 0.245796404 0 0
2.195813 1.30787 1.498668 0.50271204 -0.864120696 0.0240005748 0 0
2.19749 1.310527 1.502241 0.96469223 -0.26189789 -0.0278997753 0 0
2.197989 1.31296 1.503621 0.961153245 0 0.27601529 0 0
2.197603 1.310203 1.503201 0.917471176 -0.326525331 0.227217627 0 0
2.197831 1.31296 1.502612 0.999971121 0 0.00759978052 0 0
2.198127 1.31296 1.501184 0.894427191 0 0.447213595 0 0
2.197832 1.310851 1.500863 0.845364018 -0.357884767 0.39658312 0 0
2.19749 1.315392 1.502241 0.96469223 0.26189789 -0.0278997753 0 0
2.197603 1.315717 1.503201 0.917471176 0.326525331 0.227217627 0 0
2.196556 1.31807 1.502063 0.791890775 0.603692967 0.0919989282 0 0
2.196567 1.317469 1.501237 0.864670126 0.482583327 -0.139495181 0 0
2.197031 1.316868 1.499993 0.709107052 0.660906573 0.245702444 0 0
2.197832 1.315068 1.500863 0.845335479 0.357915022 0.396616646 0 0
2.195161 1.318833 1.499708 0.713920229 0.63241792 -0.300608518 0 0
2.194963 1.319616 1.500331 0.604900103 0.788300134 -0.112600019 0 0
2.195813 1.31805 1.498668 0.50271204 0.864120696 0.0240005748 0 0
2.198355 1.317789 1.496184 0.2882082 0.923126263 0.254507241 0 0
2.197001 1.318203 1.494711 0.0294000882 0.999202998 -0.027000081 0 0
2.200488 1.318203 1.491505 0 1 0 0 0
2.201842 1.317789 1.492977 0.258996491 0.923887481 0.281696183 0 0
2.202998 1.316668 1.494234 0.478607509 0.707111095 0.520508167 0 0
2.199511 1.316668 1.49744 0.507712556 0.706517472 0.493012192 0 0
2.20027 1.31496 1.498266 0.65421189 0.38240695 0.65251186 0 0
2.200551 1.31296 1.498571 0.705805576 0 0.708405596 0 0
2.203757 1.31496 1.49506 0.625301441 0.382700882 0.680101568 0 0
2.204038 1.31296 1.495365 0.676887539 0 0.736086449 0 0
2.20027 1.310959 1.498266 0.65421189 -0.38240695 0.65251186 0 0
2.203757 1.310959 1.49506 0.625301441 -0.382700882 0.680101568 0 0
2.202998 1.309252 1.494234 0.478607509 -0.707111095 0.520508167 0 0
2.199511 1.309252 1.49744 0.507712556 -0.706517472 0.493012192 0 0
2.198355 1.308131 1.496184 0.2882082 -0.923126263 0.254507241 0 0
2.201842 1.308131 1.492977 0.258996491 -0.923887481 0.281696183 0 0
2.200488 1.307716 1.491505 0 -1 0 0 0
2.197001 1.307716 1.494711 0.0294000882 -0.999202998 -0.027000081 0 0
2.195647 1.308131 1.493239 -0.229512116 -0.923148734 -0.308416282 0 0
2.194492 1.309252 1.491982 -0.448826459 -0.706541652 -0.547132254 0 0
2.199134 1.308131 1.490032 -0.258996491 -0.923887481 -0.281696183 0 0
2.197978 1.309252 1.488775 -0.478607509 -0.707111095 -0.520508167 0 0
2.193733 1.310959 1.491156 -0.595502305 -0.38240148 -0.706502734 0 0
2.193452 1.31296 1.490851 -0.646936922 0 -0.76254352 0 0
2.197219 1.310959 1.48795 -0.625362336 -0.382676952 -0.680059041 0 0
2.196939 1.31296 1.487645 -0.676887539 0 -0.736086449 0 0
2.193733 1.31496 1.491156 -0.595502305 0.38240148 -0.706502734 0 0
2.197219 1.31496 1.48795 -0.625362336 0.382676952 -0.680059041 0 0
2.197978 1.316668 1.488775 -0.478607509 0.707111095 -0.520508167 0 0
2.194492 1.316668 1.491982 -0.448826459 0.706541652 -0.547132254 0 0
2.195647 1.317789 1.493239 -0.229512116 0.923148734 -0.308416282 0 0
2.199134 1.317789 1.490032 -0.258996491 0.923887481 -0.281696183 0 0
2.185694 1.31835 1.502076 -0.752800926 0.0663000815 0.654900806 0 0
2.183565 1.318521 1.499512 -0.780825811 0.0717023702 0.620620515 0 0
2.18474 1.31654 1.501122 -0.765069103 0.0449981828 0.642374058 0 0
2.185257 1.320385 1.501333 -0.758808362 0.0946010425 0.644407101 0 0
2.187329 1.320824 1.503606 -0.732287881 0.10149832 0.673388856 0 0
2.187163 1.318023 1.503758 -0.7346018 0.0637001561 0.675501655 0 0
2.186976 1.31296 1.50393 -0.736086449 0 0.676887539 0 0
2.183556 1.315193 1.499752 -0.779060983 0.027402145 0.626349029 0 0
2.182313 1.316035 1.498131 -0.79626655 0.0391983533 0.60367464 0 0
2.183736 1.31296 1.500031 -0.777717402 0 0.628614065 0 0
2.182006 1.31296 1.497817 -0.800947057 0 0.598735177 0 0
2.183556 1.310727 1.499752 -0.779060983 -0.027402145 0.626349029 0 0
2.183565 1.307399 1.499512 -0.780825811 -0.0717023702 0.620620515 0 0
2.18474 1.309379 1.501122 -0.765118248 -0.0450010733 0.642315319 0 0
2.182313 1.309884 1.498131 -0.796229951 -0.0392014746 0.603722709 0 0
2.185694 1.307569 1.502076 -0.752800926 -0.0663000815 0.654900806 0 0
2.187329 1.305095 1.503606 -0.732287881 -0.10149832 0.673388856 0 0
2.187163 1.307896 1.503758 -0.7346018 -0.0637001561 0.675501655 0 0
2.185257 1.305535 1.501333 -0.758808362 -0.0946010425 0.644407101 0 0
2.188716 1.307569 1.505363 -0.715628218 -0.0663026144 0.695327417 0 0
2.189421 1.305535 1.50586 -0.705633391 -0.0946044769 0.70223323 0 0
2.189587 1.309379 1.506394 -0.704083627 -0.0450989512 0.70868352 0 0
2.191093 1.307399 1.507699 -0.683716061 -0.0717016843 0.726217059 0 0
2.190854 1.310727 1.507688 -0.689326902 -0.0275010733 0.723928252 0 0
2.192365 1.309884 1.509062 -0.66822396 -0.0392014056 0.742926638 0 0
2.190591 1.31296 1.507485 -0.691488241 0 0.722387716 0 0
2.192652 1.31296 1.509395 -0.663699439 0 0.747999368 0 0
2.190854 1.315193 1.507688 -0.689326902 0.0275010733 0.723928252 0 0
2.191093 1.318521 1.507699 -0.683716061 0.0717016843 0.726217059 0 0
2.189587 1.31654 1.506394 -0.704086798 0.0449991563 0.708686712 0 0
2.192365 1.316035 1.509062 -0.66822396 0.0392014056 0.742926638 0 0
2.188716 1.31835 1.505363 -0.715628218 0.0663026144 0.695327417 0 0
2.189421 1.320385 1.50586 -0.705633391 0.0946044769 0.70223323 0 0
2.190626 1.3219 1.505604 0.0739008476 0.896710285 0.436405006 0 0
2.187983 1.322565 1.503004 -0.426612191 0.814823284 0.392511216 0 0
2.190463 1.321806 1.505701 -0.215199156 0.753197047 0.621597563 0 0
2.18812 1.322667 1.502878 -0.177402195 0.97051201 0.16320202 0 0
2.188369 1.322667 1.502649 -9.99999995e-05 0.999999995 0 0 0
2.190876 1.3219 1.505375 0.259089778 0.92386355 0.281688886 0 0
2.193015 1.319824 1.507701 0.478607509 0.707111095 0.520508167 0 0
2.192766 1.319824 1.507931 0.287110718 0.686325621 0.668224945 0 0
2.19258 1.319751 1.508003 -0.0367004121 0.576306472 0.816409168 0 0
2.191455 1.3219 1.504842 0.258996491 0.923887481 0.281696183 0 0
2.188948 1.322667 1.502117 0 1 0 0 0
2.189527 1.322667 1.501584 0 1 0 0 0
2.192034 1.3219 1.50431 0.258996491 0.923887481 0.281696183 0 0
2.194173 1.319824 1.506637 0.478607509 0.707111095 0.520508167 0 0
2.193594 1.319824 1.507169 0.478607509 0.707111095 0.520508167 0 0
2.192283 1.3219 1.504081 0.626537036 0.765745265 -0.145208584 0 0
2.189777 1.322667 1.501355 0.410396821 0.83019357 -0.377297078 0 0
2.194423 1.319824 1.506407 0.807590051 0.587192766 0.0547993249 0 0
2.194171 1.316663 1.509459 0.429205689 0.371404923 0.823310913 0 0
2.193971 1.316624 1.509516 0.0833018389 0.312006888 0.946420892 0 0
2.194421 1.316663 1.50923 0.62532537 0.382615523 0.680127593 0 0
2.19494 1.31296 1.509794 0.676833352 0 0.736136274 0 0
2.19469 1.31296 1.510024 0.479006265 0 0.877811482 0 0
2.194484 1.31296 1.510074 0.124305511 0 0.992243992 0 0
2.195 1.316663 1.508697 0.625428795 0.382617616 0.680031309 0 0
2.195579 1.316663 1.508165 0.625343969 0.38272691 0.680047816 0 0
2.196098 1.31296 1.508729 0.676833352 0 0.736136274 0 0
2.195519 1.31296 1.509262 0.676937365 0 0.736040627 0 0
2.195828 1.316663 1.507936 0.930121714 0.317307408 0.184904317 0 0
2.196347 1.31296 1.5085 0.972308274 0 0.233701989 0 0
2.194171 1.309257 1.509459 0.429205689 -0.371404923 0.823310913 0 0
2.193971 1.309296 1.509516 0.0833018389 -0.312006888 0.946420892 0 0
2.194421 1.309257 1.50923 0.62532537 -0.382615523 0.680127593 0 0
2.193015 1.306096 1.507701 0.478693526 -0.706990438 0.520592959 0 0
2.192766 1.306096 1.507931 0.287091532 -0.686279758 0.668280289 0 0
2.19258 1.306168 1.508003 -0.036800278 -0.576304354 0.816406168 0 0
2.195 1.309257 1.508697 0.625404863 -0.382702976 0.680005287 0 0
2.195579 1.309257 1.508165 0.625343969 -0.38272691 0.680047816 0 0
2.194173 1.306096 1.506637 0.478632421 -0.7071479 0.520435253 0 0
2.193594 1.306096 1.507169 0.478607509 -0.707111095 0.520508167 0 0
2.195828 1.309257 1.507936 0.930121714 -0.317307408 0.184904317 0 0
2.194423 1.306096 1.506407 0.807637471 -0.58712724 0.0548025426 0 0
2.190626 1.30402 1.505604 0.0739008476 -0.896710285 0.436405006 0 0
2.190463 1.304114 1.505701 -0.215199156 -0.753197047 0.621597563 0 0
2.190876 1.30402 1.505375 0.259113715 -0.923848901 0.281714912 0 0
2.188369 1.303253 1.502649 -9.9999999e-05 -0.99999999 -9.9999999e-05 0 0
2.18812 1.303253 1.502878 -0.177402195 -0.97051201 0.16320202 0 0
2.187983 1.303355 1.503004 -0.426710734 -0.814820497 0.392409871 0 0
2.191455 1.30402 1.504842 0.258996491 -0.923887481 0.281696183 0 0
2.192034 1.30402 1.50431 0.258996491 -0.923887481 0.281696183 0 0
2.189527 1.303253 1.501584 0 -1 0 0 0
2.188948 1.303253 1.502117 0 -1 0 0 0
2.192283 1.30402 1.504081 0.626597779 -0.765697286 -0.145199485 0 0
2.189777 1.303253 1.501355 0.410412304 -0.830224891 -0.377211309 0 0
2.185613 1.30402 1.500153 -0.428734013 -0.896671136 -0.110308751 0 0
2.185503 1.304114 1.500307 -0.637432561 -0.753238476 0.162208286 0 0
2.185863 1.30402 1.499923 -0.259113715 -0.923848901 -0.281714912 0 0
2.183723 1.306096 1.497597 -0.478684599 -0.70707725 -0.520483254 0 0
2.183474 1.306096 1.497826 -0.642044556 -0.686147617 -0.342023736 0 0
2.183386 1.306168 1.498005 -0.816773582 -0.576081367 -0.0317989715 0 0
2.186442 1.30402 1.499391 -0.258996491 -0.923887481 -0.281696183 0 0
2.187021 1.30402 1.498858 -0.258996491 -0.923887481 -0.281696183 0 0
2.184881 1.306096 1.496532 -0.478632421 -0.7071479 -0.520435253 0 0
2.184302 1.306096 1.497064 -0.478607509 -0.707111095 -0.520508167 0 0
2.18727 1.30402 1.498629 0.197409973 -0.765638681 -0.612230931 0 0
2.185131 1.306096 1.496302 0.0133002441 -0.586810771 -0.809614861 0 0
2.182069 1.309257 1.496298 -0.784494183 -0.371297247 -0.496696317 0 0
2.181995 1.309296 1.496493 -0.936171499 -0.311890505 -0.162195062 0 0
2.182318 1.309257 1.496068 -0.625428795 -0.382617616 -0.680031309 0 0
2.181799 1.31296 1.495504 -0.676937365 0 -0.736040627 0 0
2.181549 1.31296 1.495733 -0.834625957 0 -0.550817131 0 0
2.181482 1.31296 1.495934 -0.978318931 0 -0.207104008 0 0
2.182897 1.309257 1.495536 -0.625301441 -0.382700882 -0.680101568 0 0
2.183476 1.309257 1.495004 -0.625404863 -0.382702976 -0.680005287 0 0
2.182957 1.31296 1.494439 -0.676887539 0 -0.736086449 0 0
2.182378 1.31296 1.494971 -0.676833352 0 -0.736136274 0 0
2.183725 1.309257 1.494774 -0.106103853 -0.317111515 -0.94243422 0 0
2.183206 1.31296 1.49421 -0.151508575 0 -0.988455943 0 0
2.182069 1.316663 1.496298 -0.784494183 0.371297247 -0.496696317 0 0
2.181995 1.316624 1.496493 -0.936200693 0.311800231 -0.16220012 0 0
2.182318 1.316663 1.496068 -0.625428795 0.382617616 -0.680031309 0 0
2.183723 1.319824 1.497597 -0.478684599 0.70707725 -0.520483254 0 0
2.183474 1.319824 1.497826 -0.642103333 0.686103561 -0.342001775 0 0
2.183386 1.319751 1.498005 -0.816776175 0.576083196 -0.0316990754 0 0
2.182897 1.316663 1.495536 -0.625301441 0.382700882 -0.680101568 0 0
2.183476 1.316663 1.495004 -0.625404863 0.382702976 -0.680005287 0 0
2.184881 1.319824 1.496532 -0.478623479 0.707234694 -0.520325525 0 0
2.184302 1.319824 1.497064 -0.478607509 0.707111095 -0.520508167 0 0
2.183725 1.316663 1.494774 -0.106202729 0.317108148 -0.942424216 0 0
2.185131 1.319824 1.496302 0.0133005403 0.586923844 -0.809532888 0 0
2.185613 1.3219 1.500153 -0.428695569 0.896690733 -0.11029886 0 0
2.185863 1.3219 1.499923 -0.259113715 0.923848901 -0.281714912 0 0
2.185503 1.321806 1.500307 -0.637432561 0.753238476 0.162208286 0 0
2.186442 1.3219 1.499391 -0.258996491 0.923887481 -0.281696183 0 0
2.187021 1.3219 1.498858 -0.259003785 0.923913503 -0.281604116 0 0
2.18727 1.3219 1.498629 0.197310834 0.765742044 -0.61213361 0 0
2.189692 1.321096 1.506012 -0.533604984 0.426003979 0.730606824 0 0
2.18741 1.321794 1.503531 -0.652401709 0.463001213 0.600001572 0 0
2.187513 1.321938 1.503437 -0.527634656 0.697245797 0.485231871 0 0
2.189831 1.321228 1.505958 -0.345906349 0.645211843 0.681212504 0 0
2.19181 1.319308 1.508109 -0.193907774 0.493019766 0.848134002 0 0
2.191639 1.319207 1.508129 -0.430719646 0.327314929 0.841038361 0 0
2.190143 1.321523 1.505837 -0.32820403 0.661608125 0.674208279 0 0
2.187742 1.322258 1.503226 -0.514525246 0.715135089 0.473123214 0 0
2.192193 1.319535 1.508065 -0.172201261 0.505603701 0.845406188 0 0
2.193539 1.316507 1.509529 -0.0659025709 0.274110693 0.959437428 0 0
2.194036 1.31296 1.51007 -0.0303012372 0 0.999540812 0 0
2.19359 1.31296 1.510045 -0.0554035537 0 0.998464044 0 0
2.19311 1.316385 1.509523 -0.0899009143 0.267302718 0.959409757 0 0
2.192918 1.31633 1.50952 -0.364421119 0.176510229 0.914352988 0 0
2.19339 1.31296 1.510034 -0.338698222 0 0.94089506 0 0
2.193539 1.309413 1.509529 -0.0659043772 -0.2740182 0.959463725 0 0
2.192193 1.306385 1.508065 -0.172307004 -0.50552055 0.845434368 0 0
2.19181 1.306612 1.508109 -0.193510533 -0.493326853 0.84804616 0 0
2.19311 1.309535 1.509523 -0.0896033239 -0.267309916 0.959435591 0 0
2.192918 1.30959 1.50952 -0.364114736 -0.176707151 0.914437008 0 0
2.191639 1.306713 1.508129 -0.430404734 -0.327803606 0.841009251 0 0
2.190143 1.304396 1.505837 -0.328314975 -0.661530173 0.674230752 0 0
2.187742 1.303662 1.503226 -0.51463557 -0.715049422 0.473132702 0 0
2.187513 1.303982 1.503437 -0.527634656 -0.697245797 0.485231871 0 0
2.189831 1.304691 1.505958 -0.345885269 -0.645372514 0.681070994 0 0
2.189692 1.304823 1.506012 -0.533504217 -0.42630337 0.730505775 0 0
2.18741 1.304125 1.503531 -0.652344266 -0.46303142 0.600040717 0 0
2.185341 1.304396 1.500615 -0.699225229 -0.661623872 0.270809771 0 0
2.183292 1.306385 1.498386 -0.856756385 -0.505733283 0.101006647 0 0
2.183216 1.306612 1.498764 -0.861356292 -0.493132227 0.122007973 0 0
2.185194 1.304691 1.500916 -0.707712336 -0.645311248 0.287605013 0 0
2.185129 1.304823 1.50105 -0.77255478 -0.42633023 0.470533364 0 0
2.183182 1.306713 1.498933 -0.874143263 -0.327516209 0.358617748 0 0
2.181946 1.309413 1.496922 -0.961618843 -0.274005369 -0.0145002841 0 0
2.181448 1.31296 1.496381 -0.998578606 0 -0.0532988581 0 0
2.181436 1.31296 1.496828 -0.999605113 0 -0.0281001437 0 0
2.181916 1.309535 1.49735 -0.963596488 -0.267199026 0.0092999661 0 0
2.181903 1.30959 1.497542 -0.941645968 -0.176508616 0.286613991 0 0
2.18143 1.31296 1.497028 -0.965903854 0 0.258901033 0 0
2.181946 1.316507 1.496922 -0.96159249 0.274097859 -0.0144998868 0 0
2.183292 1.319535 1.498386 -0.856756385 0.505733283 0.101006647 0 0
2.183216 1.319308 1.498764 -0.861403532 0.493002021 0.122200501 0 0
2.181916 1.316385 1.49735 -0.963595587 0.267198776 0.00939995695 0 0
2.181903 1.31633 1.497542 -0.94163559 0.176406667 0.286710836 0 0
2.183182 1.319207 1.498933 -0.8741664 0.327224855 0.358827256 0 0
2.185341 1.321523 1.500615 -0.699225229 0.661623872 0.270809771 0 0
2.185194 1.321228 1.500916 -0.707787554 0.645188654 0.287694941 0 0
2.185129 1.321096 1.50105 -0.772624597 0.426113566 0.470614982 0 0
2.191958 1.319877 1.503241 0.606822668 0.786429378 -0.115304307 0 0
2.190019 1.32047 1.501132 0.388499136 0.84939811 -0.357199205 0 0
2.190554 1.32047 1.50064 0 1 0 0 0
2.192494 1.319877 1.502749 0.258996491 0.923887481 0.281696183 0 0
2.194149 1.31827 1.504549 0.478607509 0.707111095 0.520508167 0 0
2.193614 1.31827 1.505041 0.79510982 0.600507416 0.0848010473 0 0
2.193785 1.319877 1.501561 0.31810706 0.920820438 0.225605007 0 0
2.191845 1.32047 1.499452 0.0600042424 0.996670467 -0.0552039031 0 0
2.19544 1.31827 1.503361 0.53712397 0.704731449 0.463520685 0 0
2.194701 1.315825 1.506223 0.918603266 0.325701158 0.223800796 0 0
2.195236 1.315825 1.505731 0.625301441 0.382700882 0.680101568 0 0
2.195638 1.31296 1.506168 0.676833352 0 0.736136274 0 0
2.195102 1.31296 1.50666 0.963391729 0 0.268097698 0 0
2.196527 1.315825 1.504544 0.68320564 0.381403148 0.62270514 0 0
2.196929 1.31296 1.504981 0.734696088 0 0.678396388 0 0
2.194701 1.310095 1.506223 0.918603266 -0.325701158 0.223800796 0 0
2.195236 1.310095 1.505731 0.625343969 -0.38272691 0.680047816 0 0
2.194149 1.307649 1.504549 0.478607509 -0.707111095 0.520508167 0 0
2.193614 1.307649 1.505041 0.795187591 -0.600390631 0.0848986752 0 0
2.196527 1.310095 1.504544 0.68320564 -0.381403148 0.62270514 0 0
2.19544 1.307649 1.503361 0.53712397 -0.704731449 0.463520685 0 0
2.191958 1.306043 1.503241 0.606933567 -0.78634349 -0.115306377 0 0
2.192494 1.306043 1.502749 0.258996491 -0.923887481 0.281696183 0 0
2.190554 1.30545 1.50064 0 -1 0 0 0
2.190019 1.30545 1.501132 0.388617043 -0.849337249 -0.357215666 0 0
2.193785 1.306043 1.501561 0.31810706 -0.920820438 0.225605007 0 0
2.191845 1.30545 1.499452 0.0600042424 -0.996670467 -0.0552039031 0 0
2.18808 1.306043 1.499023 0.165701401 -0.786606651 -0.594805029 0 0
2.188615 1.306043 1.498531 -0.258996491 -0.923887481 -0.281696183 0 0
2.18696 1.307649 1.496731 -0.478607509 -0.707111095 -0.520508167 0 0
2.186424 1.307649 1.497223 -0.018101007 -0.60073342 -0.799244463 0 0
2.189906 1.306043 1.497344 -0.198201517 -0.920807049 -0.335902571 0 0
2.188251 1.307649 1.495543 -0.417006862 -0.704711596 -0.574009445 0 0
2.185337 1.310095 1.496041 -0.146209059 -0.325820188 -0.934057876 0 0
2.185873 1.310095 1.495548 -0.625404863 -0.382702976 -0.680005287 0 0
2.185471 1.31296 1.495112 -0.676887539 0 -0.736086449 0 0
2.184936 1.31296 1.495604 -0.186491748 0 -0.982456527 0 0
2.187164 1.310095 1.494361 -0.563323869 -0.381416161 -0.732931055 0 0
2.186762 1.31296 1.493924 -0.614618869 0 -0.788824217 0 0
2.185337 1.315825 1.496041 -0.146209059 0.325820188 -0.934057876 0 0
2.185873 1.315825 1.495548 -0.625343969 0.38272691 -0.680047816 0 0
2.18696 1.31827 1.496731 -0.478607509 0.707111095 -0.520508167 0 0
2.186424 1.31827 1.497223 -0.018101007 0.60073342 -0.799244463 0 0
2.187164 1.315825 1.494361 -0.563323869 0.381416161 -0.732931055 0 0
2.188251 1.31827 1.495543 -0.417006862 0.704711596 -0.574009445 0 0
2.18808 1.319877 1.499023 0.165701401 0.786606651 -0.594805029 0 0
2.188615 1.319877 1.498531 -0.258996491 0.923887481 -0.281696183 0 0
2.189906 1.319877 1.497344 -0.198201517 0.920807049 -0.335902571 0 0
3 0 1 2
3 0 3 1
3 0 4 3
3 0 5 4
3 0 6 5
3 0 7 6
3 0 8 7
3 0 2 8
3 9 10 11
3 9 12 10
3 9 13 12
3 9 14 13
3 9 6 14
3 9 5 6
3 9 4 5
3 9 11 4
3 15 10 12
3 15 16 10
3 15 17 16
3 15 18 17
3 15 19 18
3 15 20 19
3 15 13 20
3 15 12 13
3 21 17 18
3 21 22 17
3 21 23 22
3 21 24 23
3 21 25 24
3 21 26 25
3 21 19 26
3 21 18 19
3 27 28 29
3 27 30 28
3 27 31 30
3 27 32 31
3 27 25 32
3 27 24 25
3 27 23 24
3 27 29 23
3 33 34 35
3 33 36 34
3 33 37 36
3 33 38 37
3 33 31 38
3 33 30 31
3 33 28 30
3 33 35 28
3 39 34 36
3 39 40 34
3 39 41 40
3 39 42 41
3 39 43 42
3 39 44 43
3 39 37 44
3 39 36 37
3 45 1 46
3 45 2 1
3 45 8 2
3 45 47 8
3 45 43 47
3 45 42 43
3 45 41 42
3 45 46 41
3 48 49 50
3 48 51 49
3 48 52 51
3 48 53 52
3 48 54 53
3 48 55 54
3 48 56 55
3 48 50 56
3 57 58 59
3 57 60 58
3 57 61 60
3 57 62 61
3 57 54 62
3 57 53 54
3 57 52 53
3 57 59 52
3 63 58 60
3 63 64 58
3 63 65 64
3 63 66 65
3 63 67 66
3 63 68 67
3 63 61 68
3 63 60 61
3 69 65 66
3 69 70 65
3 69 71 70
3 69 72 71
3 69 73 72
3 69 74 73
3 69 67 74
3 69 66 67
3 75 76 77
3 75 78 76
3 75 79 78
3 75 80 79
3 75 73 80
3 75 72 73
3 75 71 72
3 75 77 71
3 81 82 83
3 81 84 82
3 81 85 84
3 81 86 85
3 81 79 86
3 81 78 79
3 81 76 78
3 81 83 76
3 87 82 84
3 87 88 82
3 87 89 88
3 87 90 89
3 87 91 90
3 87 92 91
3 87 85 92
3 87 84 85
3 93 49 94
3 93 50 49
3 93 56 50
3 93 95 56
3 93 91 95
3 93 90 91
3 93 89 90
3 93 94 89
3 96 56 95
3 96 97 56
3 96 98 97
3 96 99 98
3 96 100 99
3 96 101 100
3 96 91 101
3 96 95 91
3 102 85 103
3 102 92 85
3 102 91 92
3 102 101 91
3 102 100 101
3 102 104 100
3 102 105 104
3 102 103 105
3 106 85 86
3 106 103 85
3 106 105 103
3 106 107 105
3 106 108 107
3 106 109 108
3 106 79 109
3 106 86 79
3 110 79 80
3 110 109 79
3 110 108 109
3 110 111 108
3 110 112 111
3 110 113 112
3 110 73 113
3 110 80 73
3 114 67 115
3 114 74 67
3 114 73 74
3 114 113 73
3 114 112 113
3 114 116 112
3 114 117 116
3 114 115 117
3 118 61 119
3 118 68 61
3 118 67 68
3 118 115 67
3 118 117 115
3 118 120 117
3 118 121 120
3 118 119 121
3 122 61 62
3 122 119 61
3 122 121 119
3 122 123 121
3 122 124 123
3 122 125 124
3 122 54 125
3 122 62 54
3 126 56 97
3 126 55 56
3 126 54 55
3 126 125 54
3 126 124 125
3 126 127 124
3 126 98 127
3 126 97 98
3 128 129 130
3 128 131 129
3 128 132 131
3 128 133 132
3 128 134 133
3 128 130 134
3 135 129 136
3 135 130 129
3 135 134 130
3 135 137 134
3 135 138 137
3 135 136 138
3 139 140 141
3 139 142 140
3 139 138 142
3 139 137 138
3 139 134 137
3 139 141 134
3 143 144 145
3 143 146 144
3 143 140 146
3 143 141 140
3 143 134 141
3 143 145 134
3 147 144 148
3 147 145 144
3 147 134 145
3 147 149 134
3 147 150 149
3 147 148 150
3 151 150 152
3 151 149 150
3 151 134 149
3 151 153 134
3 151 154 153
3 151 152 154
3 155 156 157
3 155 158 156
3 155 154 158
3 155 153 154
3 155 134 153
3 155 157 134
3 159 156 160
3 159 157 156
3 159 134 157
3 159 133 134
3 159 132 133
3 159 160 132
3 161 162 163
3 161 164 162
3 161 165 164
3 161 166 165
3 161 167 166
3 161 168 167
3 161 169 168
3 161 163 169
3 170 165 166
3 170 171 165
3 170 172 171
3 170 173 172
3 170 174 173
3 170 175 174
3 170 167 175
3 170 166 167
3 176 172 173
3 176 177 172
3 176 1 177
3 176 46 1
3 176 41 46
3 176 178 41
3 176 174 178
3 176 173 174
3 179 169 180
3 179 168 169
3 179 167 168
3 179 181 167
3 179 182 181
3 179 183 182
3 179 184 183
3 179 180 184
3 185 167 181
3 185 175 167
3 185 174 175
3 185 186 174
3 185 187 186
3 185 188 187
3 185 182 188
3 185 181 182
3 189 174 186
3 189 178 174
3 189 41 178
3 189 40 41
3 189 34 40
3 189 190 34
3 189 187 190
3 189 186 187
3 191 184 192
3 191 183 184
3 191 182 183
3 191 193 182
3 191 194 193
3 191 195 194
3 191 196 195
3 191 192 196
3 197 182 193
3 197 188 182
3 197 187 188
3 197 198 187
3 197 199 198
3 197 200 199
3 197 194 200
3 197 193 194
3 201 187 198
3 201 190 187
3 201 34 190
3 201 35 34
3 201 28 35
3 201 202 28
3 201 199 202
3 201 198 199
3 203 196 204
3 203 195 196
3 203 194 195
3 203 205 194
3 203 206 205
3 203 207 206
3 203 208 207
3 203 204 208
3 209 194 205
3 209 200 194
3 209 199 200
3 209 210 199
3 209 211 210
3 209 212 211
3 209 206 212
3 209 205 206
3 213 199 210
3 213 202 199
3 213 28 202
3 213 29 28
3 213 23 29
3 213 214 23
3 213 211 214
3 213 210 211
3 215 208 216
3 215 207 208
3 215 206 207
3 215 217 206
3 215 218 217
3 215 219 218
3 215 220 219
3 215 216 220
3 221 206 217
3 221 212 206
3 221 211 212
3 221 222 211
3 221 223 222
3 221 224 223
3 221 218 224
3 221 217 218
3 225 211 222
3 225 214 211
3 225 23 214
3 225 22 23
3 225 17 22
3 225 226 17
3 225 223 226
3 225 222 223
3 227 220 228
3 227 219 220
3 227 218 219
3 227 229 218
3 227 230 229
3 227 231 230
3 227 232 231
3 227 228 232
3 233 218 229
3 233 224 218
3 233 223 224
3 233 234 223
3 233 235 234
3 233 236 235
3 233 230 236
3 233 229 230
3 237 223 234
3 237 226 223
3 237 17 226
3 237 16 17
3 237 10 16
3 237 238 10
3 237 235 238
3 237 234 235
3 239 232 240
3 239 231 232
3 239 230 231
3 239 241 230
3 239 242 241
3 239 243 242
3 239 244 243
3 239 240 244
3 245 230 241
3 245 236 230
3 245 235 236
3 245 246 235
3 245 247 246
3 245 248 247
3 245 242 248
3 245 241 242
3 249 235 246
3 249 238 235
3 249 10 238
3 249 11 10
3 249 4 11
3 249 250 4
3 249 247 250
3 249 246 247
3 251 165 252
3 251 164 165
3 251 162 164
3 251 253 162
3 251 244 253
3 251 243 244
3 251 242 243
3 251 252 242
3 254 242 252
3 254 248 242
3 254 247 248
3 254 255 247
3 254 172 255
3 254 171 172
3 254 165 171
3 254 252 165
3 256 247 255
3 256 250 247
3 256 4 250
3 256 3 4
3 256 1 3
3 256 177 1
3 256 172 177
3 256 255 172
3 257 132 160
3 257 258 132
3 257 259 258
3 257 260 259
3 257 261 260
3 257 262 261
3 257 156 262
3 257 160 156
3 263 259 260
3 263 264 259
3 263 162 264
3 263 163 162
3 263 169 163
3 263 265 169
3 263 261 265
3 263 260 261
3 266 184 180
3 266 267 184
3 266 268 267
3 266 269 268
3 266 261 269
3 266 265 261
3 266 169 265
3 266 180 169
3 270 268 269
3 270 271 268
3 270 154 271
3 270 158 154
3 270 156 158
3 270 262 156
3 270 261 262
3 270 269 261
3 272 196 192
3 272 273 196
3 272 274 273
3 272 275 274
3 272 268 275
3 272 267 268
3 272 184 267
3 272 192 184
3 276 274 275
3 276 277 274
3 276 150 277
3 276 152 150
3 276 154 152
3 276 271 154
3 276 268 271
3 276 275 268
3 278 208 204
3 278 279 208
3 278 280 279
3 278 281 280
3 278 274 281
3 278 273 274
3 278 196 273
3 278 204 196
3 282 280 281
3 282 283 280
3 282 144 283
3 282 148 144
3 282 150 148
3 282 277 150
3 282 274 277
3 282 281 274
3 284 220 216
3 284 285 220
3 284 286 285
3 284 287 286
3 284 280 287
3 284 279 280
3 284 208 279
3 284 216 208
3 288 286 287
3 288 289 286
3 288 140 289
3 288 146 140
3 288 144 146
3 288 283 144
3 288 280 283
3 288 287 280
3 290 232 228
3 290 291 232
3 290 292 291
3 290 293 292
3 290 286 293
3 290 285 286
3 290 220 285
3 290 228 220
3 294 292 293
3 294 295 292
3 294 138 295
3 294 142 138
3 294 140 142
3 294 289 140
3 294 286 289
3 294 293 286
3 296 244 240
3 296 297 244
3 296 298 297
3 296 299 298
3 296 292 299
3 296 291 292
3 296 232 291
3 296 240 232
3 300 298 299
3 300 301 298
3 300 129 301
3 300 136 129
3 300 138 136
3 300 295 138
3 300 292 295
3 300 299 292
3 302 162 253
3 302 264 162
3 302 259 264
3 302 303 259
3 302 298 303
3 302 297 298
3 302 244 297
3 302 253 244
3 304 259 303
3 304 258 259
3 304 132 258
3 304 131 132
3 304 129 131
3 304 301 129
3 304 298 301
3 304 303 298
3 305 8 47
3 305 306 8
3 305 307 306
3 305 308 307
3 305 309 308
3 305 310 309
3 305 43 310
3 305 47 43
3 311 307 308
3 311 312 307
3 311 49 312
3 311 94 49
3 311 89 94
3 311 313 89
3 311 309 313
3 311 308 309
3 314 43 44
3 314 310 43
3 314 309 310
3 314 315 309
3 314 316 315
3 314 317 316
3 314 37 317
3 314 44 37
3 318 309 315
3 318 313 309
3 318 89 313
3 318 88 89
3 318 82 88
3 318 319 82
3 318 316 319
3 318 315 316
3 320 37 38
3 320 317 37
3 320 316 317
3 320 321 316
3 320 322 321
3 320 323 322
3 320 31 323
3 320 38 31
3 324 316 321
3 324 319 316
3 324 82 319
3 324 83 82
3 324 76 83
3 324 325 76
3 324 322 325
3 324 321 322
3 326 31 32
3 326 323 31
3 326 322 323
3 326 327 322
3 326 328 327
3 326 329 328
3 326 25 329
3 326 32 25
3 330 322 327
3 330 325 322
3 330 76 325
3 330 77 76
3 330 71 77
3 330 331 71
3 330 328 331
3 330 327 328
3 332 25 26
3 332 329 25
3 332 328 329
3 332 333 328
3 332 334 333
3 332 335 334
3 332 19 335
3 332 26 19
3 336 328 333
3 336 331 328
3 336 71 331
3 336 70 71
3 336 65 70
3 336 337 65
3 336 334 337
3 336 333 334
3 338 19 20
3 338 335 19
3 338 334 335
3 338 339 334
3 338 340 339
3 338 341 340
3 338 13 341
3 338 20 13
3 342 334 339
3 342 337 334
3 342 65 337
3 342 64 65
3 342 58 64
3 342 343 58
3 342 340 343
3 342 339 340
3 344 13 14
3 344 341 13
3 344 340 341
3 344 345 340
3 344 346 345
3 344 347 346
3 344 6 347
3 344 14 6
3 348 340 345
3 348 343 340
3 348 58 343
3 348 59 58
3 348 52 59
3 348 349 52
3 348 346 349
3 348 345 346
3 350 6 7
3 350 347 6
3 350 346 347
3 350 351 346
3 350 307 351
3 350 306 307
3 350 8 306
3 350 7 8
3 352 346 351
3 352 349 346
3 352 52 349
3 352 51 52
3 352 49 51
3 352 312 49
3 352 307 312
3 352 351 307
