ply
format ascii 1.0
element vertex 640
property float x
property float y
property float z
property float nx
property float ny
property float nz
property float u
property float v
element face 1280
property list uchar int vertex_indices
end_header
2.150968 1.212549 1.443388 -0.733396109 -0.0166999114 0.679596395 0 0
2.147476 1.212973 1.439108 -0.701802172 -0.660402044 0.267100827 0 0
2.150657 1.211779 1.442568 -0.60041556 -0.714018504 0.360109332 0 0
2.147811 1.213731 1.439955 -0.736588605 -0.0376994168 0.675289553 0 0
2.148626 1.21449 1.440359 -0.36611479 0.621025087 0.693027995 0 0
2.151759 1.213319 1.443766 -0.420320577 0.702234379 0.574628132 0 0
2.155593 1.212506 1.447936 -0.457589805 0.730183732 0.507388696 0 0
2.154831 1.211728 1.447589 -0.731097233 -0.0193999266 0.681997419 0 0
2.15455 1.21095 1.446801 -0.536526755 -0.740936948 0.403920142 0 0
2.296276 1.212549 1.601406 -0.738617206 -0.0168003914 0.673915699 0 0
2.300248 1.212973 1.605243 -0.324807763 -0.660415784 0.677016181 0 0
2.299433 1.213731 1.604839 -0.73452742 -0.0378014112 0.677525292 0 0
2.297067 1.211779 1.601784 -0.409014676 -0.71402562 0.568220388 0 0
2.293175 1.21095 1.597551 -0.447399915 -0.740899859 0.500899905 0 0
2.292412 1.211728 1.597205 -0.7407263 -0.0195006924 0.671523843 0 0
2.292131 1.212506 1.596416 -0.543899592 0.730199452 0.41349969 0 0
2.295965 1.213319 1.600586 -0.607757585 0.70216653 0.370935146 0 0
2.299098 1.21449 1.603993 -0.721259918 0.620951585 0.306925497 0 0
2.146444 1.21499 1.438468 -0.75658999 -0.0322995727 0.65309136 0 0
2.146099 1.214243 1.437611 -0.867915128 -0.487208492 0.0967016855 0 0
2.145578 1.215658 1.437044 -0.943255743 -0.326619302 0.0599035401 0 0
2.145927 1.216392 1.437906 -0.735608014 0.000300003269 0.67740738 0 0
2.146756 1.217125 1.438326 -0.137309833 0.328223505 0.934566927 0 0
2.147269 1.215736 1.438884 -0.261599601 0.433199339 0.862498685 0 0
2.3008 1.21499 1.606326 -0.714146703 -0.032402119 0.699245729 0 0
2.301625 1.214243 1.606741 -0.169011854 -0.487234173 0.856760091 0 0
2.300455 1.215736 1.605468 -0.881411538 0.433105669 0.188502468 0 0
2.300968 1.217125 1.606026 -0.942790082 0.328196547 0.0585993835 0 0
2.301317 1.216392 1.606888 -0.736614239 0.000300005799 0.676313073 0 0
2.302146 1.215658 1.607308 -0.138605854 -0.326613795 0.934939488 0 0
2.145319 1.218006 1.437245 -0.748045647 -0.00300018308 0.663640497 0 0
2.144965 1.217288 1.436378 -0.95950356 -0.281201043 0.016700062 0 0
2.144309 1.220145 1.435665 -0.983666488 -0.178512066 -0.0231015615 0 0
2.144668 1.220836 1.436537 -0.747248554 0.00140009097 0.66454318 0 0
2.145507 1.221526 1.436967 -0.0864982311 0.174896423 0.980779943 0 0
2.146153 1.218724 1.43767 -0.132503984 0.272008179 0.953128661 0 0
2.301925 1.218006 1.607549 -0.723851594 -0.00300021385 0.689949178 0 0
2.302759 1.217288 1.607974 -0.0969068365 -0.281119832 0.954767356 0 0
2.301571 1.218724 1.606682 -0.960848096 0.272113621 0.0522026131 0 0
2.302217 1.221526 1.607385 -0.984578349 0.174896154 0.00409990984 0 0
2.302576 1.220836 1.608257 -0.724731508 0.00140006087 0.689029956 0 0
2.303415 1.220145 1.608687 -0.0592033362 -0.178510059 0.982155346 0 0
2.142912 1.237205 1.434628 -0.739002332 0.00100000316 0.673702126 0 0
2.143053 1.23121 1.434299 -0.994077927 -0.101197753 -0.0395991207 0 0
2.143421 1.231795 1.435181 -0.737046166 0.000300018792 0.675842333 0 0
2.14254 1.236672 1.433741 -0.995221014 -0.0857018096 -0.0468009882 0 0
2.142001 1.244361 1.433154 -0.996529069 -0.0654019078 -0.0515015023 0 0
2.142377 1.244821 1.434045 -0.738000173 0.000700000165 0.674800159 0 0
2.143233 1.245281 1.434494 -0.0362999512 0.065399912 0.997198659 0 0
2.143765 1.237739 1.435073 -0.0430998679 0.0855997376 0.995396949 0 0
2.14427 1.232381 1.435622 -0.0456997969 0.101399549 0.993795583 0 0
2.304331 1.237205 1.610166 -0.733159898 0.00100008171 0.680055559 0 0
2.304671 1.23121 1.610053 -0.0437002548 -0.10120059 0.993905794 0 0
2.305184 1.236672 1.61061 -0.0366017677 -0.0857041392 0.995648086 0 0
2.303822 1.231795 1.609612 -0.735129218 0.000300011924 0.677926945 0 0
2.303454 1.232381 1.60873 -0.994138265 0.101403903 -0.0375014435 0 0
2.30396 1.237739 1.609279 -0.995518094 0.0856015558 -0.0402007307 0 0
2.304491 1.245281 1.609857 -0.996746619 0.065403059 -0.047102203 0 0
2.304867 1.244821 1.610749 -0.734120446 0.000700019496 0.679018911 0 0
2.305723 1.244361 1.611197 -0.0320014649 -0.0654029939 0.997345655 0 0
2.144021 1.225886 1.435833 -0.739432684 0.0010000442 0.673229757 0 0
2.143657 1.225243 1.434956 -0.992359896 -0.118007123 -0.036002173 0 0
2.144865 1.226528 1.436269 -0.0543034204 0.117707414 0.991562456 0 0
2.303223 1.225886 1.60896 -0.732725448 0.00100003473 0.680523635 0 0
2.304067 1.225243 1.609396 -0.0470998111 -0.117999527 0.991896022 0 0
2.302859 1.226528 1.608083 -0.992631025 0.117703679 -0.0288009002 0 0
2.149994 1.383711 1.44233 -0.740917408 0.022600531 0.67121577 0 0
2.147686 1.382291 1.439337 -0.863292494 0.483695794 0.144098747 0 0
2.14802 1.381439 1.440182 -0.745293259 0.0137998752 0.666593971 0 0
2.149676 1.384585 1.441501 -0.769642066 0.593332429 0.235812889 0 0
2.152561 1.386394 1.444638 -0.662656457 0.670257105 0.334128467 0 0
2.152858 1.385504 1.445443 -0.734875437 0.0239991978 0.677777346 0 0
2.153635 1.384613 1.445806 -0.414306476 -0.641210022 0.645910096 0 0
2.150793 1.382838 1.442716 -0.33941014 -0.55831668 0.757022616 0 0
2.148833 1.380588 1.440584 -0.258099387 -0.458298912 0.85049798 0 0
2.297249 1.383711 1.602464 -0.730808682 0.0226002685 0.682208105 0 0
2.300038 1.382291 1.605014 -0.215897653 0.483694742 0.84819078 0 0
2.298048 1.384585 1.60285 -0.299407023 0.593313916 0.747217526 0 0
2.299224 1.381439 1.604612 -0.726610035 0.013900192 0.686909486 0 0
2.298891 1.380588 1.603767 -0.869152998 -0.458227941 0.186011342 0 0
2.296931 1.382838 1.601636 -0.78282619 -0.558218676 0.274909197 0 0
2.29409 1.384613 1.598546 -0.678311609 -0.641210974 0.358806141 0 0
2.294386 1.385504 1.599351 -0.736838597 0.0242012677 0.675635391 0 0
2.295163 1.386394 1.599713 -0.388324331 0.670241995 0.632439627 0 0
2.146608 1.378836 1.438647 -0.751915381 0.00780015955 0.659213484 0 0
2.146265 1.379662 1.437791 -0.934225575 0.35250965 0.0544014893 0 0
2.147433 1.378009 1.439061 -0.185202782 -0.333405008 0.924413885 0 0
2.146335 1.374239 1.437868 -0.112303517 -0.220806915 0.968830339 0 0
2.145502 1.375028 1.437444 -0.747199623 -9.99999495e-05 0.664599664 0 0
2.14515 1.375818 1.436579 -0.974172665 0.225793664 0.00219993827 0 0
2.300635 1.378836 1.606147 -0.719818827 0.00780020402 0.694118155 0 0
2.30146 1.379662 1.606561 -0.132399803 0.352499477 0.926398624 0 0
2.302574 1.375818 1.607773 -0.0838069906 0.225718828 0.97058096 0 0
2.301741 1.375028 1.60735 -0.724829624 -0.000100004087 0.688928157 0 0
2.301389 1.374239 1.606484 -0.974809509 -0.220902155 0.0308003005 0 0
2.300292 1.378009 1.60529 -0.936631073 -0.333511064 0.107203557 0 0
2.144442 1.369146 1.436291 -0.743516793 -0.0017000384 0.668715103 0 0
2.144082 1.369879 1.435417 -0.988284044 0.150597569 -0.0247995996 0 0
2.145283 1.368412 1.436723 -0.0744997433 -0.149199486 0.985996603 0 0
2.144231 1.359562 1.435579 -0.0534031082 -0.1048061 0.993057798 0 0
2.143382 1.36021 1.435139 -0.740337429 -0.00140007078 0.672233986 0 0
2.143014 1.360857 1.434256 -0.993700542 0.105100057 -0.0389000212 0 0
2.302802 1.369146 1.608503 -0.728521805 -0.00170005088 0.685020503 0 0
2.303643 1.369879 1.608935 -0.0578998732 0.15059967 0.986897839 0 0
2.304711 1.360857 1.610096 -0.0443032772 0.105107775 0.99347349 0 0
2.303862 1.36021 1.609655 -0.731762532 -0.00140011965 0.681558242 0 0
2.303493 1.359562 1.608773 -0.994056598 -0.104705962 -0.0298016968 0 0
2.302442 1.368412 1.607629 -0.98877364 -0.149196022 -0.0081997814 0 0
2.142277 1.347243 1.433937 -0.739242356 -0.00110006303 0.673438586 0 0
2.141901 1.347766 1.433045 -0.995984398 0.0756988142 -0.0477992512 0 0
2.143134 1.34672 1.434387 -0.0426011809 -0.0756020957 0.996227616 0 0
2.142245 1.331881 1.433419 -0.0362020773 -0.0466026741 0.998257282 0 0
2.14138 1.33226 1.432962 -0.739717776 -0.00120002884 0.67291617 0 0
2.140997 1.33264 1.432063 -0.997328474 0.0469013391 -0.0560015989 0 0
2.304966 1.347243 1.610857 -0.732917697 -0.00110002656 0.680316426 0 0
2.305824 1.347766 1.611307 -0.0356996924 0.0756993479 0.996491415 0 0
2.306727 1.33264 1.612289 -0.0276005021 0.0469008531 0.998518163 0 0
2.305863 1.33226 1.611832 -0.732436681 -0.0012000601 0.680834097 0 0
2.30548 1.331881 1.610932 -0.99779317 -0.046599681 -0.0472996762 0 0
2.30459 1.34672 1.609965 -0.996303143 -0.0756002385 -0.0408001287 0 0
2.140945 1.317278 1.432489 -0.738335954 -0.000600029219 0.674432842 0 0
2.140558 1.317513 1.431586 -0.998041669 0.0199008309 -0.0593024759 0 0
2.141812 1.317043 1.432949 -0.0302013811 -0.0199009101 0.999345701 0 0
2.141685 1.302204 1.432811 -0.0272006398 -0.00360008467 0.999623511 0 0
2.140817 1.302295 1.432349 -0.737141683 -0.000100005655 0.675738211 0 0
2.140429 1.302387 1.431445 -0.998221737 0.00360007839 -0.0595012957 0 0
2.306298 1.317278 1.612305 -0.73383255 -0.000600026615 0.679330132 0 0
2.307166 1.317513 1.612766 -0.024300161 0.0199001318 0.999506622 0 0
2.307295 1.302387 1.612907 -0.0242000159 0.00360000236 0.999700655 0 0
2.306427 1.302295 1.612445 -0.734983603 -9.99977691e-05 0.678084872 0 0
2.306039 1.302204 1.611541 -0.998396121 -0.00359998601 -0.0564997805 0 0
2.305912 1.317043 1.611403 -0.998376958 -0.019799543 -0.0533987676 0 0
2.140842 1.287313 1.432377 -0.737809647 0.000100001308 0.675008826 0 0
2.140455 1.287261 1.431473 -0.998127055 -0.0103002792 -0.0603016345 0 0
2.141711 1.287365 1.432839 -0.0280015354 0.0103005648 0.999554807 0 0
2.141973 1.272527 1.433125 -0.0304994347 0.0300994421 0.999081482 0 0
2.141107 1.27233 1.432665 -0.738431306 0.000400016959 0.674328589 0 0
2.140722 1.272134 1.431763 -0.997777431 -0.0301993169 -0.0593986564 0 0
2.306401 1.287313 1.612417 -0.734408424 0.000100001147 0.678707785 0 0
2.307269 1.287261 1.612878 -0.0233993713 -0.0102997233 0.999673139 0 0
2.307003 1.272134 1.612588 -0.0242012304 -0.0302015355 0.999250803 0 0
2.306136 1.27233 1.612129 -0.733686757 0.00039999278 0.679487735 0 0
2.305751 1.272527 1.611227 -0.99813532 0.0301010651 -0.053101879 0 0
2.306014 1.287365 1.611513 -0.998399995 0.0102999999 -0.0555999997 0 0
2.141697 1.257348 1.433306 -0.737809558 0.000500006478 0.675008745 0 0
2.141316 1.257008 1.432409 -0.997246727 -0.0494023148 -0.0553025913 0 0
2.142559 1.257688 1.433761 -0.0324018876 0.0493028722 0.998258155 0 0
2.305547 1.257348 1.611488 -0.734312417 0.000500008455 0.678811479 0 0
2.306408 1.257008 1.611942 -0.028199462 -0.0493990575 0.998380951 0 0
2.305166 1.257688 1.610591 -0.997476086 0.0492988181 -0.0510987749 0 0
2.213287 1.39219 1.511158 -0.735990178 0.00129998265 0.676990966 0 0
2.203036 1.392947 1.499528 -0.528118223 0.713324614 0.460715897 0 0
2.202953 1.391995 1.49992 -0.735750908 0.00270018683 0.67724686 0 0
2.213449 1.393145 1.510852 -0.518927218 0.713337416 0.471024706 0 0
2.223862 1.393145 1.522176 -0.516400586 0.712600809 0.474900539 0 0
2.223622 1.39219 1.522397 -0.736040627 0 0.676937365 0 0
2.223862 1.391236 1.522176 -0.516400586 -0.712600809 0.474900539 0 0
2.213606 1.391236 1.511023 -0.514131808 -0.711544021 0.47892963 0 0
2.20335 1.391042 1.499869 -0.506086526 -0.709781102 0.489986954 0 0
2.233956 1.39219 1.533635 -0.736231283 0.00130005524 0.676728755 0 0
2.244688 1.392947 1.544823 -0.5033103 0.713314598 0.487709981 0 0
2.234275 1.393145 1.5335 -0.512712556 0.713317469 0.477811702 0 0
2.244291 1.391995 1.544874 -0.736420436 0.00270007493 0.676518774 0 0
2.244375 1.391042 1.544482 -0.53062477 -0.709833136 0.463221624 0 0
2.234118 1.391236 1.533329 -0.520321547 -0.711529465 0.472219555 0 0
2.192618 1.391407 1.488681 -0.735655198 0.0027002026 0.677350824 0 0
2.192623 1.392354 1.488204 -0.541235008 0.711446018 0.448228992 0 0
2.193094 1.39046 1.488716 -0.494622466 -0.70803216 0.504022893 0 0
2.182837 1.389493 1.477563 -0.483695178 -0.705492966 0.517994836 0 0
2.182283 1.390431 1.477443 -0.735604954 0.00290001953 0.677404562 0 0
2.18221 1.391369 1.476881 -0.554401505 0.708901925 0.436001184 0 0
2.254626 1.391407 1.556113 -0.736515817 0.00280006013 0.676414526 0 0
2.255101 1.392354 1.556147 -0.49182392 0.711534606 0.501824407 0 0
2.265514 1.391369 1.567471 -0.480919658 0.708828974 0.516021093 0 0
2.26496 1.390431 1.567351 -0.736611174 0.00290004399 0.67631026 0 0
2.264887 1.389493 1.566789 -0.556641636 -0.705452766 0.438732816 0 0
2.254631 1.39046 1.555636 -0.543603914 -0.708005098 0.450803246 0 0
2.171949 1.389071 1.466204 -0.735752262 0.00190013497 0.677248107 0 0
2.171797 1.389996 1.465557 -0.565434628 0.705643215 0.427026152 0 0
2.172581 1.388147 1.466409 -0.474617191 -0.703625486 0.528819154 0 0
2.163727 1.386783 1.456781 -0.469193645 -0.702290488 0.535392748 0 0
2.163028 1.387694 1.456503 -0.73584884 0.00110007301 0.677144944 0 0
2.162808 1.388606 1.455782 -0.572179502 0.703474798 0.421584897 0 0
2.275295 1.389071 1.57859 -0.736422056 0.00170005092 0.676520262 0 0
2.275927 1.389996 1.578795 -0.472881414 0.705572268 0.527779256 0 0
2.284916 1.388606 1.58857 -0.468020226 0.703430399 0.534923117 0 0
2.284216 1.387694 1.588291 -0.736327153 0.00100003688 0.676624951 0 0
2.283997 1.386783 1.587571 -0.57279988 -0.702299853 0.422699911 0 0
2.275143 1.388147 1.577942 -0.56661191 -0.70361479 0.428809014 0 0
2.156933 1.386668 1.449875 -0.734274312 0.0101996432 0.678776253 0 0
2.156667 1.38757 1.449104 -0.593091308 0.698689761 0.400094137 0 0
2.157679 1.385767 1.450204 -0.456609039 -0.688613631 0.563311151 0 0
2.290311 1.386668 1.594919 -0.737821069 0.0102002913 0.674919273 0 0
2.291057 1.38757 1.595248 -0.44830878 0.698713684 0.557510919 0 0
2.290045 1.385767 1.594148 -0.599497368 -0.688696977 0.40779821 0 0
2.213287 1.211735 1.511158 -0.736136259 0.000200009852 0.676833338 0 0
2.203036 1.210893 1.499528 -0.481037857 -0.754459375 0.446535141 0 0
2.213449 1.210957 1.510852 -0.481621129 -0.754333093 0.446119572 0 0
2.202953 1.211672 1.49992 -0.736086449 0 0.676887539 0 0
2.20335 1.21245 1.499869 -0.485223679 0.754436817 0.442021571 0 0
2.213606 1.212513 1.511023 -0.484605796 0.754609025 0.442405291 0 0
2.223862 1.212544 1.522176 -0.482902581 0.754704034 0.444102374 0 0
2.223622 1.211766 1.522397 -0.736086357 0.000499990733 0.676887454 0 0
2.223862 1.210988 1.522176 -0.483382248 -0.754172304 0.444483677 0 0
2.233956 1.211735 1.533635 -0.736040612 0.000200011036 0.676937351 0 0
2.244688 1.210893 1.544824 -0.485223679 -0.754436817 0.442021571 0 0
2.244291 1.211672 1.544874 -0.736086445 9.99981586e-05 0.676887535 0 0
2.234275 1.210957 1.5335 -0.484840736 -0.754263372 0.442737198 0 0
2.234118 1.212513 1.533329 -0.481478281 0.754565962 0.445879887 0 0
2.244375 1.21245 1.544483 -0.481037857 0.754459375 0.446535141 0 0
2.192618 1.211609 1.488681 -0.736040594 -0.000300016546 0.676937334 0 0
2.192623 1.21083 1.488204 -0.481627759 -0.754443484 0.445925702 0 0
2.18221 1.210801 1.476881 -0.483523323 -0.754236381 0.444221428 0 0
2.182283 1.211581 1.477443 -0.735895003 -0.000599995926 0.677095403 0 0
2.182837 1.21236 1.477563 -0.483497174 0.753795594 0.444997399 0 0
2.193094 1.212388 1.488716 -0.484819267 0.754229974 0.442817598 0 0
2.254626 1.211609 1.556113 -0.736182048 -0.000299992685 0.676783497 0 0
2.255101 1.21083 1.556147 -0.484599474 -0.754499181 0.44259952 0 0
2.254631 1.212388 1.555636 -0.48181106 0.754217313 0.446110241 0 0
2.264887 1.21236 1.566789 -0.483926118 0.75374068 0.444623997 0 0
2.26496 1.211581 1.567351 -0.73632734 -0.000700025992 0.676625124 0 0
2.265514 1.210801 1.567471 -0.483109339 -0.754214579 0.444708596 0 0
2.171949 1.211621 1.466204 -0.73613627 0.000100004927 0.676833348 0 0
2.171797 1.210842 1.465557 -0.484830136 -0.75374685 0.443627575 0 0
2.163157 1.210863 1.456161 -0.480327682 -0.75444348 0.44732578 0 0
2.163373 1.211641 1.456879 -0.73689839 0.00259999432 0.675998523 0 0
2.164071 1.21242 1.457155 -0.484799358 0.755598999 0.440499416 0 0
2.172581 1.2124 1.466409 -0.482536795 0.753857484 0.445934004 0 0
2.275295 1.211621 1.57859 -0.736040612 0.000200011036 0.676937351 0 0
2.275927 1.210842 1.578795 -0.482705073 -0.753707922 0.446004688 0 0
2.275143 1.2124 1.577942 -0.484717089 0.753826577 0.44361564 0 0
2.283653 1.21242 1.587197 -0.479512935 0.755620383 0.446212037 0 0
2.28387 1.211641 1.587915 -0.735222557 0.00260007977 0.677820796 0 0
2.284567 1.210863 1.588191 -0.485930223 -0.754446924 0.441227443 0 0
2.158317 1.211551 1.45138 -0.733176154 -0.00909970404 0.679977884 0 0
2.158062 1.210771 1.45062 -0.489495289 -0.753792745 0.43839578 0 0
2.159053 1.212331 1.451698 -0.481611843 0.749918441 0.453511152 0 0
2.288927 1.211551 1.593414 -0.738877594 -0.00899972709 0.673779568 0 0
2.288672 1.212331 1.592654 -0.492227945 0.749942575 0.441925089 0 0
2.289662 1.210771 1.593731 -0.477708718 -0.753913759 0.451008231 0 0
2.289228 1.212591 1.591811 -0.00509985371 0.999971316 -0.00559983937 0 0
2.284222 1.21268 1.586368 0.00289997387 0.99999099 0.00309997207 0 0
2.285096 1.21242 1.585871 0.484686228 0.755678528 -0.440487484 0 0
2.290114 1.212331 1.591328 0.481611843 0.749918441 -0.453511152 0 0
2.293573 1.212506 1.59509 0.45751074 0.730217142 -0.507411912 0 0
2.292678 1.212765 1.595564 -0.0544034033 0.996762354 -0.0592037036 0 0
2.159939 1.212591 1.451214 0.00509985371 0.999971316 0.00559983937 0 0
2.164944 1.21268 1.456657 -0.00289997296 0.999990675 -0.00319997016 0 0
2.156488 1.212765 1.447462 0.0545031128 0.996756926 0.0592033812 0 0
2.157036 1.212506 1.446609 0.543899592 0.730199452 -0.41349969 0 0
2.160495 1.212331 1.450371 0.492115251 0.750023244 -0.441913695 0 0
2.165513 1.21242 1.455828 0.479399691 0.755699513 -0.446199712 0 0
2.275734 1.21266 1.577137 -0.00149999639 0.999997595 -0.00159999615 0 0
2.265504 1.21262 1.566012 -9.9999999e-05 0.99999999 -9.9999999e-05 0 0
2.266329 1.21236 1.565463 0.483533621 0.75375241 -0.445030944 0 0
2.276586 1.2124 1.576616 0.482536795 0.753857484 -0.445934004 0 0
2.173433 1.21266 1.465888 0.00149999639 0.999997595 0.00159999615 0 0
2.183663 1.21262 1.477013 9.9999999e-05 0.99999999 9.9999999e-05 0 0
2.174023 1.2124 1.465083 0.484717089 0.753826577 -0.44361564 0 0
2.184279 1.21236 1.476236 0.483926118 0.75374068 -0.444623997 0 0
2.255274 1.212648 1.554888 0.00209999029 0.999995375 0.00219998983 0 0
2.245044 1.21271 1.543763 0.00279997642 0.99999158 0.00299997474 0 0
2.245817 1.21245 1.543156 0.485208515 0.754513242 -0.441907756 0 0
2.256073 1.212388 1.55431 0.484819267 0.754229974 -0.442817598 0 0
2.193893 1.212648 1.488138 -0.00209999029 0.999995375 -0.00219998983 0 0
2.204123 1.21271 1.499263 -0.00279997642 0.99999158 -0.00299997474 0 0
2.194536 1.212388 1.48739 0.48181106 0.754217313 -0.446110241 0 0
2.204792 1.21245 1.498543 0.481001563 0.754502452 -0.446501451 0 0
2.234813 1.212772 1.532638 0.00209999029 0.999995375 0.00219998983 0 0
2.224583 1.212803 1.521513 0 1 0 0 0
2.225304 1.212544 1.52085 0.482902581 0.754704034 -0.444102374 0 0
2.235561 1.212513 1.532003 0.484584355 0.754575639 -0.442485715 0 0
2.214353 1.212772 1.510388 -0.00209999029 0.999995375 -0.00219998983 0 0
2.215048 1.212513 1.509696 0.481422926 0.754635937 -0.445821231 0 0
2.290598 1.385466 1.593302 -0.0992000154 -0.989200153 -0.107900017 0 0
2.284565 1.386479 1.586741 -0.0728986682 -0.994181836 -0.0792985512 0 0
2.294632 1.384317 1.597689 -0.189907568 -0.95983825 -0.20650823 0 0
2.295532 1.384613 1.59722 0.414306476 -0.641210022 -0.645910096 0 0
2.291488 1.385767 1.592822 0.456609039 -0.688613631 -0.563311151 0 0
2.285439 1.386783 1.586244 0.469193645 -0.702290488 -0.535392748 0 0
2.158569 1.385466 1.449724 0.0992990299 -0.989190336 0.107898946 0 0
2.164602 1.386479 1.456285 0.0729981338 -0.994174584 0.0792979728 0 0
2.16517 1.386783 1.455455 0.572840109 -0.70224917 -0.422729598 0 0
2.159121 1.385767 1.448877 0.599514203 -0.688616314 -0.407909663 0 0
2.155077 1.384613 1.444479 0.678335946 -0.64123398 -0.358719009 0 0
2.154535 1.384317 1.445337 0.190003963 -0.959820017 0.206504307 0 0
2.275734 1.387838 1.577137 -0.064503373 -0.995452054 -0.0701036658 0 0
2.265504 1.389181 1.566012 -0.0507990978 -0.99718229 -0.0551990197 0 0
2.276586 1.388147 1.576616 0.474694662 -0.703592088 -0.528794054 0 0
2.266329 1.389493 1.565463 0.483729303 -0.705442733 -0.518031381 0 0
2.173433 1.387838 1.465888 0.0645029204 -0.99544507 0.0702031785 0 0
2.183663 1.389181 1.477013 0.0507988172 -0.997176781 0.0552987124 0 0
2.184279 1.389493 1.476236 0.556641636 -0.705452766 -0.438732816 0 0
2.174023 1.388147 1.465083 0.566719671 -0.70352442 -0.428814884 0 0
2.255274 1.390144 1.554888 -0.0340012463 -0.998736609 -0.0370013563 0 0
2.245044 1.390724 1.543763 -0.016899795 -0.999687874 -0.0183997768 0 0
2.256073 1.39046 1.55431 0.494622466 -0.70803216 -0.504022893 0 0
2.245817 1.391042 1.543156 0.506012134 -0.709817022 -0.490011751 0 0
2.193893 1.390144 1.488138 0.0340012463 -0.998736609 0.0370013563 0 0
2.204123 1.390724 1.499263 0.016899795 -0.999687874 0.0183997768 0 0
2.204792 1.391042 1.498543 0.530587104 -0.709882747 -0.463188742 0 0
2.194536 1.39046 1.48739 0.543628419 -0.708037014 -0.450723562 0 0
2.234813 1.390918 1.532638 -0.00419991852 -0.999980601 -0.00459991076 0 0
2.235561 1.391236 1.532003 0.514131808 -0.711544021 -0.47892963 0 0
2.225304 1.391236 1.52085 0.516400586 -0.712600809 -0.474900539 0 0
2.224583 1.390918 1.521513 0 -1 0 0 0
2.214353 1.390918 1.510388 0.00419991852 -0.999980601 0.00459991076 0 0
2.215048 1.391236 1.509696 0.520248612 -0.711566488 -0.472244126 0 0
2.30568 1.257801 1.609703 -0.675327409 0.0685027802 -0.734329803 0 0
2.306263 1.272592 1.610337 -0.676275485 0.0415984921 -0.73547334 0 0
2.305007 1.245435 1.608971 -0.674112599 0.090901699 -0.7330137 0 0
2.305933 1.245281 1.608531 0.0363998187 0.0653996743 -0.997195034 0 0
2.306608 1.257688 1.609265 0.032501788 0.0493027122 -0.998254916 0 0
2.307193 1.272527 1.609901 0.0304994347 0.0300994421 -0.999081482 0 0
2.143487 1.257801 1.433323 0.675327409 0.0685027802 0.734329803 0 0
2.142903 1.272592 1.432688 0.676325224 0.0416015516 0.735427428 0 0
2.143416 1.272527 1.431798 0.998130014 0.0301009051 0.0532015998 0 0
2.144001 1.257688 1.432434 0.997476086 0.0492988181 0.0510987749 0 0
2.144675 1.245281 1.433168 0.996746619 0.065403059 0.047102203 0 0
2.14416 1.245435 1.434055 0.674112599 0.090901699 0.7330137 0 0
2.306525 1.287383 1.610622 -0.676813966 0.0143002951 -0.736015188 0 0
2.306551 1.302173 1.61065 -0.676929237 -0.00490021164 -0.73603179 0 0
2.307456 1.287365 1.610187 0.0280015354 0.0103005648 -0.999554807 0 0
2.307481 1.302204 1.610214 0.0272006398 -0.00360008467 -0.999623511 0 0
2.142641 1.287383 1.432403 0.676813966 0.0143002951 0.736015188 0 0
2.142616 1.302173 1.432376 0.676879413 -0.00489985097 0.736077613 0 0
2.143127 1.302204 1.431485 0.998396121 -0.00359998601 0.0564997805 0 0
2.143153 1.287365 1.431512 0.998399995 0.0102999999 0.0555999997 0 0
2.306424 1.316964 1.610512 -0.676678221 -0.0271991246 -0.735776319 0 0
2.305993 1.331755 1.610043 -0.675534011 -0.0641032274 -0.734536981 0 0
2.307354 1.317043 1.610076 0.0302013811 -0.0199009101 -0.999345701 0 0
2.306922 1.331881 1.609606 0.0363019515 -0.0466025052 -0.998253663 0 0
2.142742 1.316964 1.432513 0.676624007 -0.0272009651 0.735826108 0 0
2.143173 1.331755 1.432982 0.675534011 -0.0641032274 0.734536981 0 0
2.143687 1.331881 1.432093 0.99779317 -0.046599681 0.0472996762 0 0
2.143255 1.317043 1.431623 0.99836964 -0.0198993949 0.0534983731 0 0
2.305105 1.346546 1.609078 -0.673122341 -0.105103488 -0.732024296 0 0
2.304012 1.359347 1.607889 -0.669549743 -0.146610892 -0.728154097 0 0
2.306032 1.34672 1.608639 0.0427010016 -0.0756017733 -0.996223367 0 0
2.304936 1.359562 1.607446 0.0534031082 -0.1048061 -0.993057798 0 0
2.144061 1.346546 1.433947 0.673122341 -0.105103488 0.732024296 0 0
2.145155 1.359347 1.435137 0.669549743 -0.146610892 0.728154097 0 0
2.145673 1.359562 1.434253 0.994046184 -0.104804869 0.0298013846 0 0
2.144577 1.34672 1.433061 0.996303143 -0.0756002385 0.0408001287 0 0
2.302963 1.368168 1.606748 -0.661613887 -0.211104431 -0.719515103 0 0
2.301913 1.373975 1.605606 -0.64101742 -0.320908721 -0.697218947 0 0
2.303884 1.368412 1.606302 0.0745008545 -0.14910171 -0.98601131 0 0
2.302832 1.374239 1.605158 0.112301037 -0.220902039 -0.968808942 0 0
2.146204 1.368168 1.436278 0.661613887 -0.211104431 0.719515103 0 0
2.147254 1.373975 1.437419 0.64101742 -0.320908721 0.697218947 0 0
2.147777 1.374239 1.436541 0.974809509 -0.220902155 -0.0308003005 0 0
2.146725 1.368412 1.435397 0.98877364 -0.149196022 0.0081997814 0 0
2.300818 1.377734 1.604415 -0.582702208 -0.508801928 -0.633702402 0 0
2.299421 1.380304 1.602896 -0.474813765 -0.712720662 -0.516314968 0 0
2.301734 1.378009 1.603964 0.185213727 -0.333524718 -0.924368507 0 0
2.300333 1.380588 1.602441 0.258099387 -0.458298912 -0.85049798 0 0
2.148349 1.377734 1.43861 0.582702208 -0.508801928 0.633702402 0 0
2.149745 1.380304 1.440129 0.474702464 -0.712803699 0.51630268 0 0
2.150275 1.380588 1.439258 0.869113167 -0.458306943 -0.186002818 0 0
2.148875 1.378009 1.437735 0.936631073 -0.333511064 -0.107203557 0 0
2.297466 1.382547 1.60077 -0.33799616 -0.866390158 -0.367595824 0 0
2.298373 1.382838 1.60031 0.33941014 -0.55831668 -0.757022616 0 0
2.1517 1.382547 1.442255 0.338008584 -0.866422003 0.367509333 0 0
2.152236 1.382838 1.441389 0.782743761 -0.558331214 -0.27491537 0 0
2.303379 1.226742 1.607201 -0.667529899 0.165607418 -0.725932515 0 0
2.303973 1.232576 1.607846 -0.669943514 0.142809276 -0.728547321 0 0
2.302739 1.221756 1.606504 -0.655516162 0.248806134 -0.71301758 0 0
2.30366 1.221526 1.606058 0.0864997435 0.174799482 -0.980797092 0 0
2.304302 1.226528 1.606757 0.054403131 0.117706774 -0.991557066 0 0
2.304897 1.232381 1.607404 0.0457995869 0.101399085 -0.993791036 0 0
2.145787 1.226742 1.435825 0.667529899 0.165607418 0.725932515 0 0
2.145194 1.232576 1.435179 0.66999863 0.142799708 0.72849851 0 0
2.145712 1.232381 1.434296 0.994138265 0.101403903 0.0375014435 0 0
2.146307 1.226528 1.434943 0.992631025 0.117703679 0.0288009002 0 0
2.146949 1.221526 1.435641 0.984595963 0.174799283 -0.0039999836 0 0
2.146428 1.221756 1.436521 0.655516162 0.248806134 0.71301758 0 0
2.304477 1.237917 1.608394 -0.6720386 0.119306853 -0.730841977 0 0
2.305402 1.237739 1.607953 0.0432000508 0.0855001005 -0.99540117 0 0
2.14469 1.237917 1.434631 0.6720386 0.119306853 0.730841977 0 0
2.145207 1.237739 1.433746 0.995518094 0.0856015558 0.0402007307 0 0
2.302094 1.218963 1.605804 -0.620003928 0.401302542 -0.674204271 0 0
2.301493 1.217369 1.605149 -0.592504986 0.483404068 -0.644405423 0 0
2.30241 1.217125 1.6047 0.137305325 0.328312734 -0.934536247 0 0
2.303014 1.218724 1.605356 0.132402133 0.272104384 -0.953115355 0 0
2.147072 1.218963 1.437222 0.619900561 0.401300363 0.67430061 0 0
2.147674 1.217369 1.437876 0.592504986 0.483404068 0.644405423 0 0
2.147595 1.218724 1.436344 0.960848096 0.272113621 -0.0522026131 0 0
2.148199 1.217125 1.436999 0.942748015 0.328316722 -0.0586029847 0 0
2.300981 1.215985 1.604593 -0.490618418 0.689025867 -0.533420025 0 0
2.299628 1.214743 1.603121 -0.254802568 0.926409338 -0.277202794 0 0
2.300541 1.21449 1.602667 0.366092052 0.621086516 -0.692984955 0 0
2.301897 1.215736 1.604142 0.261517769 0.43312943 -0.862558609 0 0
2.148186 1.215985 1.438433 0.49054248 0.689059672 0.533446196 0 0
2.149539 1.214743 1.439904 0.254896073 0.926385729 0.27719573 0 0
2.148712 1.215736 1.437557 0.881411538 0.433105669 -0.188502468 0 0
2.150068 1.21449 1.439033 0.721215128 0.621013026 -0.306906437 0 0
2.296503 1.213576 1.599723 -0.126509533 0.982374025 -0.137610369 0 0
2.297407 1.213319 1.599259 0.420402909 0.702204859 -0.574603976 0 0
2.152664 1.213576 1.443303 0.126607938 0.982361591 0.137608628 0 0
2.153201 1.213319 1.44244 0.607714907 0.702217226 -0.370909099 0 0
2.151195 1.211522 1.441705 -0.136398766 -0.979491136 -0.148298658 0 0
2.155097 1.21069 1.445949 -0.0652032622 -0.995349799 -0.0709035474 0 0
2.155992 1.21095 1.445475 0.447399915 -0.740899859 -0.500899905 0 0
2.152099 1.211779 1.441242 0.409097944 -0.713996412 -0.568197145 0 0
2.148918 1.212973 1.437782 0.324808299 -0.660516876 -0.676917295 0 0
2.148005 1.21272 1.438237 -0.274714424 -0.913947988 -0.298715684 0 0
2.297972 1.211522 1.601321 0.136398766 -0.979491136 0.148298658 0 0
2.29407 1.21069 1.597077 0.0652032622 -0.995349799 0.0709035474 0 0
2.301161 1.21272 1.604789 0.274714424 -0.913947988 0.298715684 0 0
2.301691 1.212973 1.603917 0.70170507 -0.660504772 -0.26710193 0 0
2.298509 1.211779 1.600458 0.60037269 -0.714067518 -0.36008362 0 0
2.294617 1.21095 1.596225 0.536637724 -0.74085208 -0.403928395 0 0
2.146625 1.213994 1.436735 -0.493934747 -0.6837481 -0.537137786 0 0
2.146102 1.215414 1.436167 -0.593411856 -0.481209615 -0.645212891 0 0
2.147541 1.214243 1.436284 0.169011854 -0.487234173 -0.856760091 0 0
2.14702 1.215658 1.435718 0.138610381 -0.326524454 -0.934970023 0 0
2.302542 1.213994 1.60629 0.493934747 -0.6837481 0.537137786 0 0
2.303064 1.215414 1.606858 0.593347063 -0.481238171 0.64525118 0 0
2.303589 1.215658 1.605981 0.943261389 -0.326621257 -0.0598038922 0 0
2.303068 1.214243 1.605415 0.867915128 -0.487208492 -0.0967016855 0 0
2.145489 1.217049 1.4355 -0.617544351 -0.409629419 -0.671448222 0 0
2.144831 1.219915 1.434785 -0.653607317 -0.25990291 -0.710807958 0 0
2.146408 1.217288 1.435052 0.0966994614 -0.281098434 -0.954794682 0 0
2.145752 1.220145 1.434339 0.0592043928 -0.178413238 -0.982172875 0 0
2.303678 1.217049 1.607526 0.617502884 -0.409601913 0.671503136 0 0
2.304336 1.219915 1.608241 0.653607317 -0.25990291 0.710807958 0 0
2.304857 1.220145 1.607361 0.983681767 -0.17841483 0.0232019286 0 0
2.304201 1.217288 1.606647 0.959532135 -0.281109415 -0.016600556 0 0
2.143058 1.236494 1.432856 -0.671832756 -0.121705934 -0.730635623 0 0
2.142517 1.244207 1.432268 -0.673917017 -0.0923023307 -0.733018509 0 0
2.143572 1.231015 1.433415 -0.669914782 -0.143103158 -0.728516075 0 0
2.144496 1.23121 1.432973 0.0437006968 -0.101101612 -0.993915848 0 0
2.143983 1.236672 1.432415 0.036701638 -0.085703825 -0.995644437 0 0
2.143443 1.244361 1.431828 0.0320014649 -0.0654029939 -0.997345655 0 0
2.306109 1.236494 1.610169 0.671832756 -0.121705934 0.730635623 0 0
2.30665 1.244207 1.610758 0.673917017 -0.0923023307 0.733018509 0 0
2.307166 1.244361 1.609871 0.996529069 -0.0654019078 0.0515015023 0 0
2.306626 1.236672 1.609284 0.99521248 -0.085801076 0.0468005869 0 0
2.306113 1.23121 1.608727 0.994087982 -0.101098778 0.0395995212 0 0
2.305595 1.231015 1.60961 0.669914782 -0.143103158 0.728516075 0 0
2.144177 1.225029 1.434074 -0.667222669 -0.168605728 -0.72552465 0 0
2.1451 1.225243 1.43363 0.0470998111 -0.117999527 -0.991896022 0 0
2.304989 1.225029 1.608952 0.667222669 -0.168605728 0.72552465 0 0
2.305509 1.225243 1.60807 0.992359896 -0.118007123 0.036002173 0 0
2.150211 1.384876 1.440636 -0.347412709 0.858231395 -0.377813821 0 0
2.153103 1.386691 1.443781 -0.204402295 0.953310706 -0.222302496 0 0
2.148216 1.382574 1.438466 -0.475921043 0.711031439 -0.517622887 0 0
2.149129 1.382291 1.438011 0.215810177 0.483822815 -0.848139995 0 0
2.151119 1.384585 1.440175 0.299407023 0.593313916 -0.747217526 0 0
2.154003 1.386394 1.443312 0.388409252 0.670215965 -0.632415064 0 0
2.298955 1.384876 1.60239 0.34732477 0.858261209 0.377826946 0 0
2.296063 1.386691 1.599245 0.204402295 0.953310706 0.222302496 0 0
2.296605 1.386394 1.598387 0.66261204 0.67031218 -0.334106071 0 0
2.29949 1.384585 1.601524 0.769596398 0.593397223 -0.235798896 0 0
2.30148 1.382291 1.603688 0.863267018 0.483737554 -0.144111188 0 0
2.30095 1.382574 1.604559 0.475896407 0.710994632 0.517696091 0 0
2.146791 1.379937 1.436916 -0.578410435 0.51940937 -0.629011347 0 0
2.145674 1.376081 1.435701 -0.638390316 0.332294959 -0.694289468 0 0
2.146592 1.375818 1.435253 0.0836995589 0.225698811 -0.970594885 0 0
2.147707 1.379662 1.436465 0.132399803 0.352499477 -0.926398624 0 0
2.302375 1.379937 1.606109 0.578307501 0.519406737 0.62910816 0 0
2.303493 1.376081 1.607324 0.638390316 0.332294959 0.694289468 0 0
2.302902 1.379662 1.605234 0.934258505 0.352422069 -0.0544034068 0 0
2.304017 1.375818 1.606447 0.974194657 0.225698762 -0.00219998793 0 0
2.144603 1.370124 1.434536 -0.660418423 0.219106112 -0.718220035 0 0
2.143532 1.361073 1.433372 -0.669144372 0.150910007 -0.727648252 0 0
2.144456 1.360857 1.43293 0.0444030877 0.105107309 -0.993469083 0 0
2.145524 1.369879 1.434091 0.0579007449 0.150501936 -0.986912697 0 0
2.304564 1.370124 1.608489 0.660418423 0.219106112 0.718220035 0 0
2.305634 1.361073 1.609653 0.669144372 0.150910007 0.727648252 0 0
2.305085 1.369879 1.607608 0.988284044 0.150597569 0.0247995996 0 0
2.306153 1.360857 1.60877 0.993700542 0.105100057 0.0389000212 0 0
2.142416 1.34794 1.432158 -0.673021964 0.107803518 -0.73172388 0 0
2.14151 1.332766 1.431174 -0.675409875 0.0668009766 -0.734410737 0 0
2.142439 1.33264 1.430737 0.0276005021 0.0469008531 -0.998518163 0 0
2.143343 1.347766 1.431719 0.0355998202 0.0756996177 -0.996494968 0 0
2.306751 1.34794 1.610867 0.673021964 0.107803518 0.73172388 0 0
2.307656 1.332766 1.611852 0.675409875 0.0668009766 0.734410737 0 0
2.307266 1.347766 1.60998 0.995984398 0.0756988142 0.0477992512 0 0
2.308169 1.33264 1.610963 0.997334055 0.0469016015 0.0559019088 0 0
2.14107 1.317592 1.430695 -0.676651221 0.02840215 -0.735755695 0 0
2.140941 1.302417 1.430555 -0.676928212 0.00520021672 -0.736030675 0 0
2.141871 1.302387 1.430119 0.0242000159 0.00360000236 -0.999700655 0 0
2.142001 1.317513 1.430259 0.0244001022 0.0199000834 -0.999504188 0 0
2.308096 1.317592 1.61233 0.676651221 0.02840215 0.735755695 0 0
2.308226 1.302417 1.612471 0.676928212 0.00520021672 0.736030675 0 0
2.308608 1.317513 1.61144 0.998045592 0.0200009137 0.0592027044 0 0
2.308737 1.302387 1.61158 0.998221737 0.00360007839 0.0595012957 0 0
2.140967 1.287243 1.430583 -0.676812995 -0.0144002765 -0.736014132 0 0
2.141234 1.272069 1.430874 -0.676245361 -0.042502851 -0.735449332 0 0
2.142164 1.272134 1.430437 0.0243011766 -0.0302014622 -0.99924838 0 0
2.141897 1.287261 1.430147 0.0233993713 -0.0102997233 -0.999673139 0 0
2.3082 1.287243 1.612443 0.676813966 -0.0143002951 0.736015188 0 0
2.307932 1.272069 1.612152 0.676299628 -0.0424999766 0.735399596 0 0
2.308712 1.287261 1.611552 0.998127055 -0.0103002792 0.0603016345 0 0
2.308445 1.272134 1.611262 0.997777431 -0.0301993169 0.0593986564 0 0
2.14183 1.256894 1.431521 -0.675231098 -0.0694031964 -0.734333821 0 0
2.142758 1.257008 1.431083 0.0282993801 -0.0493989179 -0.998378131 0 0
2.307337 1.256894 1.611504 0.675231098 -0.0694031964 0.734333821 0 0
2.307851 1.257008 1.610616 0.997246727 -0.0494023148 0.0553025913 0 0
2.214144 1.393463 1.510161 -0.00439990672 0.999978801 -0.00479989824 0 0
2.224583 1.393463 1.521513 0 1 0 0 0
2.203705 1.393265 1.498808 -0.0178009836 0.999655237 -0.0193010665 0 0
2.204479 1.392947 1.498202 0.503199726 0.713399611 -0.487699734 0 0
2.214891 1.393145 1.509526 0.512737054 0.713351552 -0.477734525 0 0
2.225304 1.393145 1.52085 0.516425109 0.712634649 -0.474823086 0 0
2.235022 1.393463 1.532865 0.0044999026 0.999978356 0.00479989611 0 0
2.235717 1.393145 1.532173 0.518914639 0.713420126 -0.470913285 0 0
2.24613 1.392947 1.543497 0.528118223 0.713324614 -0.460715897 0 0
2.245461 1.393265 1.544217 0.0178009836 0.999655237 0.0193010665 0 0
2.193266 1.39267 1.487456 -0.0352016212 0.998645994 -0.038301764 0 0
2.182827 1.391681 1.476104 -0.0523999015 0.996998126 -0.0569998928 0 0
2.183652 1.391369 1.475554 0.480919658 0.708828974 -0.516021093 0 0
2.194066 1.392354 1.486878 0.49183423 0.711449515 -0.501934933 0 0
2.255901 1.39267 1.555569 0.0352016212 0.998645994 0.038301764 0 0
2.26634 1.391681 1.566921 0.0524001999 0.997003804 0.0569002171 0 0
2.256543 1.392354 1.554821 0.541220756 0.711527288 -0.448117186 0 0
2.266956 1.391369 1.566145 0.554485889 0.708781962 -0.436088902 0 0
2.172388 1.390304 1.464752 -0.0658039734 0.995260096 -0.0716043236 0 0
2.163376 1.388909 1.454952 -0.0740002868 0.994003852 -0.0805003119 0 0
2.164251 1.388606 1.454455 0.467987304 0.703480915 -0.534885489 0 0
2.173239 1.389996 1.464231 0.472881414 0.705572268 -0.527779256 0 0
2.276779 1.390304 1.578274 0.0659035454 0.995253541 0.071603852 0 0
2.28579 1.388909 1.588073 0.0740002868 0.994003852 0.0805003119 0 0
2.277369 1.389996 1.577469 0.565434628 0.705643215 -0.427026152 0 0
2.286358 1.388606 1.587244 0.572112238 0.703515048 -0.421609018 0 0
2.15722 1.38787 1.448257 -0.106006156 0.98765736 -0.115306697 0 0
2.15811 1.38757 1.447777 0.44830878 0.698713684 -0.557510919 0 0
2.291947 1.38787 1.594768 0.106006156 0.98765736 0.115306697 0 0
2.292499 1.38757 1.593922 0.593008765 0.698810328 -0.400005912 0 0
2.214144 1.210697 1.510161 0.00209998982 -0.99999515 0.00229998885 0 0
2.224583 1.210729 1.521513 0 -1 0 0 0
2.225304 1.210988 1.52085 0.483418704 -0.754129178 -0.444517199 0 0
2.214891 1.210957 1.509526 0.484825626 -0.754339872 -0.442623395 0 0
2.204479 1.210893 1.498202 0.485223679 -0.754436817 -0.442021571 0 0
2.203705 1.210634 1.498808 0.00279997642 -0.99999158 0.00299997474 0 0
2.235022 1.210697 1.532865 -0.00209998982 -0.99999515 -0.00229998885 0 0
2.245461 1.210634 1.544217 -0.00279997642 -0.99999158 -0.00299997474 0 0
2.24613 1.210893 1.543497 0.481001563 -0.754502452 -0.446501451 0 0
2.235717 1.210957 1.532173 0.481621129 -0.754333093 -0.446119572 0 0
2.193266 1.21057 1.487456 0.00189999238 -0.99999599 0.00209999158 0 0
2.182827 1.210541 1.476104 -0.000399999936 -0.99999984 -0.000399999936 0 0
2.194066 1.21083 1.486878 0.484636039 -0.754456103 -0.442632915 0 0
2.183652 1.210801 1.475554 0.483109339 -0.754214579 -0.444708596 0 0
2.255901 1.21057 1.555569 -0.00199999159 -0.999995795 -0.00209999117 0 0
2.26634 1.210541 1.566922 0.000399999918 -0.999999795 0.000499999898 0 0
2.266956 1.210801 1.566145 0.483636417 -0.754156786 -0.44423345 0 0
2.256543 1.21083 1.554821 0.481591423 -0.754486563 -0.445892059 0 0
2.172388 1.210583 1.464752 -0.00139999705 -0.999997895 -0.00149999684 0 0
2.163726 1.210603 1.455332 0.00419991852 -0.999980601 0.00459991076 0 0
2.173239 1.210842 1.464231 0.482613511 -0.753821104 -0.445912483 0 0
2.164599 1.210863 1.454835 0.485893562 -0.754490003 -0.441194154 0 0
2.276779 1.210583 1.578274 0.00139999705 -0.999997895 0.00149999684 0 0
2.285441 1.210603 1.587693 -0.00419991852 -0.999980601 -0.00459991076 0 0
2.28601 1.210863 1.586865 0.480312925 -0.754520304 -0.447212035 0 0
2.277369 1.210842 1.577469 0.484793591 -0.753790035 -0.443594136 0 0
2.158618 1.210511 1.449778 -0.00979994835 -0.999894731 -0.0106999436 0 0
2.159504 1.210771 1.449294 0.477708718 -0.753913759 -0.451008231 0 0
2.290548 1.210511 1.593248 0.00979994835 -0.999894731 0.0106999436 0 0
2.291105 1.210771 1.592405 0.489327748 -0.753942754 -0.438324856 0 0
2.152891 1.212549 1.44162 0.738619673 -0.0166004422 -0.67391795 0 0
2.156754 1.211728 1.445821 0.7407263 -0.0195006924 -0.671523843 0 0
2.149734 1.213731 1.438186 0.734530193 -0.0377015498 -0.67752785 0 0
2.298199 1.212549 1.599638 0.733398544 -0.0164999672 -0.679598651 0 0
2.294335 1.211728 1.595436 0.731095811 -0.0194998883 -0.681996092 0 0
2.301356 1.213731 1.603071 0.736540076 -0.0378020569 -0.675336746 0 0
2.148367 1.21499 1.4367 0.714149014 -0.032302217 -0.699247991 0 0
2.14785 1.216392 1.436138 0.736564421 0.00029998551 -0.676367329 0 0
2.302723 1.21499 1.604557 0.75658999 -0.0322995727 -0.65309136 0 0
2.30324 1.216392 1.60512 0.735657847 0.000300023592 -0.677353262 0 0
2.147242 1.218006 1.435477 0.72380165 -0.00300000684 -0.690001573 0 0
2.146591 1.220836 1.434769 0.724731508 0.00140006087 -0.689029956 0 0
2.303848 1.218006 1.60578 0.748139551 -0.00290015332 -0.663535079 0 0
2.304499 1.220836 1.606488 0.747248554 0.00140009097 -0.66454318 0 0
2.144835 1.237205 1.43286 0.733159898 0.00100008171 -0.680055559 0 0
2.1443 1.244821 1.432277 0.734120446 0.000700019496 -0.679018911 0 0
2.145344 1.231795 1.433413 0.735129218 0.000300011924 -0.677926945 0 0
2.306254 1.237205 1.608398 0.739002332 0.00100000316 -0.673702126 0 0
2.30679 1.244821 1.60898 0.738049975 0.000700047402 -0.674745689 0 0
2.305745 1.231795 1.607844 0.73709184 0.000299996679 -0.675792519 0 0
2.145944 1.225886 1.434065 0.732725448 0.00100003473 -0.680523635 0 0
2.305146 1.225886 1.607192 0.739432684 0.0010000442 -0.673229757 0 0
2.151917 1.383711 1.440561 0.730808682 0.0226002685 -0.682208105 0 0
2.15478 1.385504 1.443675 0.736840376 0.0241013207 -0.675637023 0 0
2.149942 1.381439 1.438414 0.726610035 0.013900192 -0.686909486 0 0
2.299172 1.383711 1.600696 0.740917408 0.022600531 -0.67121577 0 0
2.296309 1.385504 1.597582 0.734921703 0.0242007147 -0.677720013 0 0
2.301147 1.381439 1.602844 0.745292227 0.013899855 -0.666593047 0 0
2.148531 1.378836 1.436879 0.719818262 0.00790020043 -0.69411761 0 0
2.147425 1.375028 1.435676 0.724779688 -9.99971976e-05 -0.688980692 0 0
2.302558 1.378836 1.604378 0.751865223 0.00789963461 -0.659269506 0 0
2.303664 1.375028 1.605581 0.747199623 -9.99999495e-05 -0.664599664 0 0
2.146365 1.369146 1.434523 0.728521805 -0.00170005088 -0.685020503 0 0
2.145305 1.36021 1.43337 0.731808983 -0.00140001719 -0.681508366 0 0
2.304725 1.369146 1.606734 0.743561507 -0.001699912 -0.668665384 0 0
2.305785 1.36021 1.607887 0.740382616 -0.00139996713 -0.672184217 0 0
2.1442 1.347243 1.432169 0.732917697 -0.00110002656 -0.680316426 0 0
2.143303 1.33226 1.431194 0.732483032 -0.0011999722 -0.68078423 0 0
2.30689 1.347243 1.609088 0.739242356 -0.00110006303 -0.673438586 0 0
2.307786 1.33226 1.610063 0.739717776 -0.00120002884 -0.67291617 0 0
2.142868 1.317278 1.43072 0.73383255 -0.000600026615 -0.679330132 0 0
2.14274 1.302295 1.430581 0.735033441 -0.00010000455 -0.678030848 0 0
2.308222 1.317278 1.610537 0.738381437 -0.000599984917 -0.674383046 0 0
2.30835 1.302295 1.610676 0.737187343 -9.99982829e-05 -0.675688399 0 0
2.142766 1.287313 1.430609 0.734408424 0.000100001147 -0.678707785 0 0
2.14303 1.27233 1.430897 0.733736611 0.000400019959 -0.679433901 0 0
2.308324 1.287313 1.610648 0.737809647 0.000100001308 -0.675008826 0 0
2.308059 1.27233 1.610361 0.738431306 0.000400016959 -0.674328589 0 0
2.14362 1.257348 1.431538 0.734312417 0.000500008455 -0.678811479 0 0
2.30747 1.257348 1.609719 0.737809558 0.000500006478 -0.675008745 0 0
2.21521 1.39219 1.50939 0.736231283 0.00130005524 -0.676728755 0 0
2.225545 1.39219 1.520629 0.736040627 0 -0.676937365 0 0
2.204876 1.391995 1.498151 0.736420436 0.00270007493 -0.676518774 0 0
2.235879 1.39219 1.531867 0.735990178 0.00129998265 -0.676990966 0 0
2.246214 1.391995 1.543106 0.735750908 0.00270018683 -0.67724686 0 0
2.194541 1.391407 1.486913 0.736516019 0.00270005873 -0.676414712 0 0
2.184206 1.390431 1.475674 0.736611174 0.00290004399 -0.67631026 0 0
2.256549 1.391407 1.554344 0.735654996 0.00280020934 -0.677350637 0 0
2.266883 1.390431 1.565583 0.735604954 0.00290001953 -0.677404562 0 0
2.173872 1.389071 1.464436 0.736421791 0.00190005622 -0.676520019 0 0
2.16495 1.387694 1.454734 0.736326991 0.00120004399 -0.676624802 0 0
2.277218 1.389071 1.576821 0.735752398 0.0018001282 -0.677248232 0 0
2.286139 1.387694 1.586523 0.735848755 0.00120007951 -0.677144866 0 0
2.158856 1.386668 1.448106 0.737821069 0.0102002913 -0.674919273 0 0
2.292234 1.386668 1.593151 0.734273559 0.0102996291 -0.678775558 0 0
2.21521 1.211735 1.50939 0.736040594 0.000300016546 -0.676937334 0 0
2.225545 1.211766 1.520629 0.73608639 0.000399992604 -0.676887484 0 0
2.204875 1.211672 1.498151 0.736086449 0 -0.676887539 0 0
2.235879 1.211735 1.531867 0.736136259 0.000200009852 -0.676833338 0 0
2.246214 1.211672 1.543106 0.736086449 0 -0.676887539 0 0
2.194541 1.211609 1.486913 0.736182067 -0.000199995128 -0.676783514 0 0
2.184206 1.211581 1.475674 0.73632734 -0.000700025992 -0.676625124 0 0
2.256549 1.211609 1.554344 0.736040612 -0.000200011036 -0.676937351 0 0
2.266883 1.211581 1.565583 0.735895003 -0.000599995926 -0.677095403 0 0
2.173872 1.211621 1.464436 0.736040612 0.000200011036 -0.676937351 0 0
2.165297 1.211641 1.455111 0.735222557 0.00260007977 -0.677820796 0 0
2.277218 1.211621 1.576821 0.736136241 0.00030001477 -0.676833321 0 0
2.285793 1.211641 1.586147 0.736898578 0.00249999518 -0.675998695 0 0
2.16024 1.211551 1.449612 0.738927378 -0.00900033347 -0.673724962 0 0
2.290849 1.211551 1.591645 0.733176817 -0.00899971543 -0.679978499 0 0
3 0 1 2
3 0 3 1
3 0 4 3
3 0 5 4
3 0 6 5
3 0 7 6
3 0 8 7
3 0 2 8
3 9 10 11
3 9 12 10
3 9 13 12
3 9 14 13
3 9 15 14
3 9 16 15
3 9 17 16
3 9 11 17
3 18 1 3
3 18 19 1
3 18 20 19
3 18 21 20
3 18 22 21
3 18 23 22
3 18 4 23
3 18 3 4
3 24 10 25
3 24 11 10
3 24 17 11
3 24 26 17
3 24 27 26
3 24 28 27
3 24 29 28
3 24 25 29
3 30 20 21
3 30 31 20
3 30 32 31
3 30 33 32
3 30 34 33
3 30 35 34
3 30 22 35
3 30 21 22
3 36 29 37
3 36 28 29
3 36 27 28
3 36 38 27
3 36 39 38
3 36 40 39
3 36 41 40
3 36 37 41
3 42 43 44
3 42 45 43
3 42 46 45
3 42 47 46
3 42 48 47
3 42 49 48
3 42 50 49
3 42 44 50
3 51 52 53
3 51 54 52
3 51 55 54
3 51 56 55
3 51 57 56
3 51 58 57
3 51 59 58
3 51 53 59
3 60 43 61
3 60 44 43
3 60 50 44
3 60 62 50
3 60 34 62
3 60 33 34
3 60 32 33
3 60 61 32
3 63 52 54
3 63 64 52
3 63 41 64
3 63 40 41
3 63 39 40
3 63 65 39
3 63 55 65
3 63 54 55
3 66 67 68
3 66 69 67
3 66 70 69
3 66 71 70
3 66 72 71
3 66 73 72
3 66 74 73
3 66 68 74
3 75 76 77
3 75 78 76
3 75 79 78
3 75 80 79
3 75 81 80
3 75 82 81
3 75 83 82
3 75 77 83
3 84 67 85
3 84 68 67
3 84 74 68
3 84 86 74
3 84 87 86
3 84 88 87
3 84 89 88
3 84 85 89
3 90 76 78
3 90 91 76
3 90 92 91
3 90 93 92
3 90 94 93
3 90 95 94
3 90 79 95
3 90 78 79
3 96 89 97
3 96 88 89
3 96 87 88
3 96 98 87
3 96 99 98
3 96 100 99
3 96 101 100
3 96 97 101
3 102 92 93
3 102 103 92
3 102 104 103
3 102 105 104
3 102 106 105
3 102 107 106
3 102 94 107
3 102 93 94
3 108 101 109
3 108 100 101
3 108 99 100
3 108 110 99
3 108 111 110
3 108 112 111
3 108 113 112
3 108 109 113
3 114 104 105
3 114 115 104
3 114 116 115
3 114 117 116
3 114 118 117
3 114 119 118
3 114 106 119
3 114 105 106
3 120 113 121
3 120 112 113
3 120 111 112
3 120 122 111
3 120 123 122
3 120 124 123
3 120 125 124
3 120 121 125
3 126 116 117
3 126 127 116
3 126 128 127
3 126 129 128
3 126 130 129
3 126 131 130
3 126 118 131
3 126 117 118
3 132 125 133
3 132 124 125
3 132 123 124
3 132 134 123
3 132 135 134
3 132 136 135
3 132 137 136
3 132 133 137
3 138 128 129
3 138 139 128
3 138 140 139
3 138 141 140
3 138 142 141
3 138 143 142
3 138 130 143
3 138 129 130
3 144 137 145
3 144 136 137
3 144 135 136
3 144 146 135
3 144 48 146
3 144 47 48
3 144 46 47
3 144 145 46
3 147 140 141
3 147 148 140
3 147 59 148
3 147 58 59
3 147 57 58
3 147 149 57
3 147 142 149
3 147 141 142
3 150 151 152
3 150 153 151
3 150 154 153
3 150 155 154
3 150 156 155
3 150 157 156
3 150 158 157
3 150 152 158
3 159 160 161
3 159 162 160
3 159 163 162
3 159 164 163
3 159 156 164
3 159 155 156
3 159 154 155
3 159 161 154
3 165 151 166
3 165 152 151
3 165 158 152
3 165 167 158
3 165 168 167
3 165 169 168
3 165 170 169
3 165 166 170
3 171 160 162
3 171 172 160
3 171 173 172
3 171 174 173
3 171 175 174
3 171 176 175
3 171 163 176
3 171 162 163
3 177 170 178
3 177 169 170
3 177 168 169
3 177 179 168
3 177 180 179
3 177 181 180
3 177 182 181
3 177 178 182
3 183 173 174
3 183 184 173
3 183 185 184
3 183 186 185
3 183 187 186
3 183 188 187
3 183 175 188
3 183 174 175
3 189 182 190
3 189 181 182
3 189 180 181
3 189 191 180
3 189 72 191
3 189 71 72
3 189 70 71
3 189 190 70
3 192 185 186
3 192 193 185
3 192 83 193
3 192 82 83
3 192 81 82
3 192 194 81
3 192 187 194
3 192 186 187
3 195 196 197
3 195 198 196
3 195 199 198
3 195 200 199
3 195 201 200
3 195 202 201
3 195 203 202
3 195 197 203
3 204 205 206
3 204 207 205
3 204 203 207
3 204 202 203
3 204 201 202
3 204 208 201
3 204 209 208
3 204 206 209
3 210 196 198
3 210 211 196
3 210 212 211
3 210 213 212
3 210 214 213
3 210 215 214
3 210 199 215
3 210 198 199
3 216 205 217
3 216 206 205
3 216 209 206
3 216 218 209
3 216 219 218
3 216 220 219
3 216 221 220
3 216 217 221
3 222 212 213
3 222 223 212
3 222 224 223
3 222 225 224
3 222 226 225
3 222 227 226
3 222 214 227
3 222 213 214
3 228 221 229
3 228 220 221
3 228 219 220
3 228 230 219
3 228 231 230
3 228 232 231
3 228 233 232
3 228 229 233
3 234 224 225
3 234 235 224
3 234 8 235
3 234 7 8
3 234 6 7
3 234 236 6
3 234 226 236
3 234 225 226
3 237 15 238
3 237 14 15
3 237 13 14
3 237 239 13
3 237 233 239
3 237 232 233
3 237 231 232
3 237 238 231
3 240 231 238
3 240 241 231
3 240 242 241
3 240 243 242
3 240 244 243
3 240 245 244
3 240 15 245
3 240 238 15
3 246 226 247
3 246 236 226
3 246 6 236
3 246 248 6
3 246 249 248
3 246 250 249
3 246 251 250
3 246 247 251
3 252 219 230
3 252 253 219
3 252 254 253
3 252 255 254
3 252 242 255
3 252 241 242
3 252 231 241
3 252 230 231
3 256 214 257
3 256 227 214
3 256 226 227
3 256 247 226
3 256 251 247
3 256 258 251
3 256 259 258
3 256 257 259
3 260 209 218
3 260 261 209
3 260 262 261
3 260 263 262
3 260 254 263
3 260 253 254
3 260 219 253
3 260 218 219
3 264 199 265
3 264 215 199
3 264 214 215
3 264 257 214
3 264 259 257
3 264 266 259
3 264 267 266
3 264 265 267
3 268 209 261
3 268 208 209
3 268 201 208
3 268 269 201
3 268 270 269
3 268 271 270
3 268 262 271
3 268 261 262
3 272 199 200
3 272 265 199
3 272 267 265
3 272 273 267
3 272 270 273
3 272 269 270
3 272 201 269
3 272 200 201
3 274 187 275
3 274 194 187
3 274 81 194
3 274 276 81
3 274 277 276
3 274 278 277
3 274 279 278
3 274 275 279
3 280 180 191
3 280 281 180
3 280 282 281
3 280 283 282
3 280 284 283
3 280 285 284
3 280 72 285
3 280 191 72
3 286 175 287
3 286 188 175
3 286 187 188
3 286 275 187
3 286 279 275
3 286 288 279
3 286 289 288
3 286 287 289
3 290 168 179
3 290 291 168
3 290 292 291
3 290 293 292
3 290 282 293
3 290 281 282
3 290 180 281
3 290 179 180
3 294 163 295
3 294 176 163
3 294 175 176
3 294 287 175
3 294 289 287
3 294 296 289
3 294 297 296
3 294 295 297
3 298 158 167
3 298 299 158
3 298 300 299
3 298 301 300
3 298 292 301
3 298 291 292
3 298 168 291
3 298 167 168
3 302 163 164
3 302 295 163
3 302 297 295
3 302 303 297
3 302 304 303
3 302 305 304
3 302 156 305
3 302 164 156
3 306 158 299
3 306 157 158
3 306 156 157
3 306 305 156
3 306 304 305
3 306 307 304
3 306 300 307
3 306 299 300
3 308 142 309
3 308 149 142
3 308 57 149
3 308 310 57
3 308 311 310
3 308 312 311
3 308 313 312
3 308 309 313
3 314 135 146
3 314 315 135
3 314 316 315
3 314 317 316
3 314 318 317
3 314 319 318
3 314 48 319
3 314 146 48
3 320 130 321
3 320 143 130
3 320 142 143
3 320 309 142
3 320 313 309
3 320 322 313
3 320 323 322
3 320 321 323
3 324 123 134
3 324 325 123
3 324 326 325
3 324 327 326
3 324 316 327
3 324 315 316
3 324 135 315
3 324 134 135
3 328 118 329
3 328 131 118
3 328 130 131
3 328 321 130
3 328 323 321
3 328 330 323
3 328 331 330
3 328 329 331
3 332 111 122
3 332 333 111
3 332 334 333
3 332 335 334
3 332 326 335
3 332 325 326
3 332 123 325
3 332 122 123
3 336 106 337
3 336 119 106
3 336 118 119
3 336 329 118
3 336 331 329
3 336 338 331
3 336 339 338
3 336 337 339
3 340 99 110
3 340 341 99
3 340 342 341
3 340 343 342
3 340 334 343
3 340 333 334
3 340 111 333
3 340 110 111
3 344 94 345
3 344 107 94
3 344 106 107
3 344 337 106
3 344 339 337
3 344 346 339
3 344 347 346
3 344 345 347
3 348 87 98
3 348 349 87
3 348 350 349
3 348 351 350
3 348 342 351
3 348 341 342
3 348 99 341
3 348 98 99
3 352 79 353
3 352 95 79
3 352 94 95
3 352 345 94
3 352 347 345
3 352 354 347
3 352 355 354
3 352 353 355
3 356 74 86
3 356 357 74
3 356 358 357
3 356 359 358
3 356 350 359
3 356 349 350
3 356 87 349
3 356 86 87
3 360 79 80
3 360 353 79
3 360 355 353
3 360 361 355
3 360 277 361
3 360 276 277
3 360 81 276
3 360 80 81
3 362 74 357
3 362 73 74
3 362 72 73
3 362 285 72
3 362 284 285
3 362 363 284
3 362 358 363
3 362 357 358
3 364 55 365
3 364 65 55
3 364 39 65
3 364 366 39
3 364 367 366
3 364 368 367
3 364 369 368
3 364 365 369
3 370 50 62
3 370 371 50
3 370 372 371
3 370 373 372
3 370 374 373
3 370 375 374
3 370 34 375
3 370 62 34
3 376 55 56
3 376 365 55
3 376 369 365
3 376 377 369
3 376 311 377
3 376 310 311
3 376 57 310
3 376 56 57
3 378 50 371
3 378 49 50
3 378 48 49
3 378 319 48
3 378 318 319
3 378 379 318
3 378 372 379
3 378 371 372
3 380 27 38
3 380 381 27
3 380 382 381
3 380 383 382
3 380 367 383
3 380 366 367
3 380 39 366
3 380 38 39
3 384 22 385
3 384 35 22
3 384 34 35
3 384 375 34
3 384 374 375
3 384 386 374
3 384 387 386
3 384 385 387
3 388 17 26
3 388 389 17
3 388 390 389
3 388 391 390
3 388 382 391
3 388 381 382
3 388 27 381
3 388 26 27
3 392 4 393
3 392 23 4
3 392 22 23
3 392 385 22
3 392 387 385
3 392 394 387
3 392 395 394
3 392 393 395
3 396 17 389
3 396 16 17
3 396 15 16
3 396 245 15
3 396 244 245
3 396 397 244
3 396 390 397
3 396 389 390
3 398 4 5
3 398 393 4
3 398 395 393
3 398 399 395
3 398 249 399
3 398 248 249
3 398 6 248
3 398 5 6
3 400 8 2
3 400 401 8
3 400 402 401
3 400 403 402
3 400 404 403
3 400 405 404
3 400 1 405
3 400 2 1
3 406 13 407
3 406 12 13
3 406 10 12
3 406 408 10
3 406 409 408
3 406 410 409
3 406 411 410
3 406 407 411
3 412 20 413
3 412 19 20
3 412 1 19
3 412 405 1
3 412 404 405
3 412 414 404
3 412 415 414
3 412 413 415
3 416 29 25
3 416 417 29
3 416 418 417
3 416 419 418
3 416 409 419
3 416 408 409
3 416 10 408
3 416 25 10
3 420 32 421
3 420 31 32
3 420 20 31
3 420 413 20
3 420 415 413
3 420 422 415
3 420 423 422
3 420 421 423
3 424 41 37
3 424 425 41
3 424 426 425
3 424 427 426
3 424 418 427
3 424 417 418
3 424 29 417
3 424 37 29
3 428 46 429
3 428 45 46
3 428 43 45
3 428 430 43
3 428 431 430
3 428 432 431
3 428 433 432
3 428 429 433
3 434 59 53
3 434 435 59
3 434 436 435
3 434 437 436
3 434 438 437
3 434 439 438
3 434 52 439
3 434 53 52
3 440 32 61
3 440 421 32
3 440 423 421
3 440 441 423
3 440 431 441
3 440 430 431
3 440 43 430
3 440 61 43
3 442 41 425
3 442 64 41
3 442 52 64
3 442 439 52
3 442 438 439
3 442 443 438
3 442 426 443
3 442 425 426
3 444 70 445
3 444 69 70
3 444 67 69
3 444 446 67
3 444 447 446
3 444 448 447
3 444 449 448
3 444 445 449
3 450 83 77
3 450 451 83
3 450 452 451
3 450 453 452
3 450 454 453
3 450 455 454
3 450 76 455
3 450 77 76
3 456 89 85
3 456 457 89
3 456 458 457
3 456 459 458
3 456 447 459
3 456 446 447
3 456 67 446
3 456 85 67
3 460 92 461
3 460 91 92
3 460 76 91
3 460 455 76
3 460 454 455
3 460 462 454
3 460 463 462
3 460 461 463
3 464 101 97
3 464 465 101
3 464 466 465
3 464 467 466
3 464 458 467
3 464 457 458
3 464 89 457
3 464 97 89
3 468 104 469
3 468 103 104
3 468 92 103
3 468 461 92
3 468 463 461
3 468 470 463
3 468 471 470
3 468 469 471
3 472 113 109
3 472 473 113
3 472 474 473
3 472 475 474
3 472 466 475
3 472 465 466
3 472 101 465
3 472 109 101
3 476 116 477
3 476 115 116
3 476 104 115
3 476 469 104
3 476 471 469
3 476 478 471
3 476 479 478
3 476 477 479
3 480 125 121
3 480 481 125
3 480 482 481
3 480 483 482
3 480 474 483
3 480 473 474
3 480 113 473
3 480 121 113
3 484 128 485
3 484 127 128
3 484 116 127
3 484 477 116
3 484 479 477
3 484 486 479
3 484 487 486
3 484 485 487
3 488 137 133
3 488 489 137
3 488 490 489
3 488 491 490
3 488 482 491
3 488 481 482
3 488 125 481
3 488 133 125
3 492 140 493
3 492 139 140
3 492 128 139
3 492 485 128
3 492 487 485
3 492 494 487
3 492 495 494
3 492 493 495
3 496 46 145
3 496 429 46
3 496 433 429
3 496 497 433
3 496 490 497
3 496 489 490
3 496 137 489
3 496 145 137
3 498 59 435
3 498 148 59
3 498 140 148
3 498 493 140
3 498 495 493
3 498 499 495
3 498 436 499
3 498 435 436
3 500 154 501
3 500 153 154
3 500 151 153
3 500 502 151
3 500 503 502
3 500 504 503
3 500 505 504
3 500 501 505
3 506 154 161
3 506 501 154
3 506 505 501
3 506 507 505
3 506 508 507
3 506 509 508
3 506 160 509
3 506 161 160
3 510 170 166
3 510 511 170
3 510 512 511
3 510 513 512
3 510 503 513
3 510 502 503
3 510 151 502
3 510 166 151
3 514 173 515
3 514 172 173
3 514 160 172
3 514 509 160
3 514 508 509
3 514 516 508
3 514 517 516
3 514 515 517
3 518 182 178
3 518 519 182
3 518 520 519
3 518 521 520
3 518 512 521
3 518 511 512
3 518 170 511
3 518 178 170
3 522 185 523
3 522 184 185
3 522 173 184
3 522 515 173
3 522 517 515
3 522 524 517
3 522 525 524
3 522 523 525
3 526 70 190
3 526 445 70
3 526 449 445
3 526 527 449
3 526 520 527
3 526 519 520
3 526 182 519
3 526 190 182
3 528 83 451
3 528 193 83
3 528 185 193
3 528 523 185
3 528 525 523
3 528 529 525
3 528 452 529
3 528 451 452
3 530 203 197
3 530 531 203
3 530 532 531
3 530 533 532
3 530 534 533
3 530 535 534
3 530 196 535
3 530 197 196
3 536 203 531
3 536 207 203
3 536 205 207
3 536 537 205
3 536 538 537
3 536 539 538
3 536 532 539
3 536 531 532
3 540 212 541
3 540 211 212
3 540 196 211
3 540 535 196
3 540 534 535
3 540 542 534
3 540 543 542
3 540 541 543
3 544 221 217
3 544 545 221
3 544 546 545
3 544 547 546
3 544 538 547
3 544 537 538
3 544 205 537
3 544 217 205
3 548 224 549
3 548 223 224
3 548 212 223
3 548 541 212
3 548 543 541
3 548 550 543
3 548 551 550
3 548 549 551
3 552 233 229
3 552 553 233
3 552 554 553
3 552 555 554
3 552 546 555
3 552 545 546
3 552 221 545
3 552 229 221
3 556 8 401
3 556 235 8
3 556 224 235
3 556 549 224
3 556 551 549
3 556 557 551
3 556 402 557
3 556 401 402
3 558 13 239
3 558 407 13
3 558 411 407
3 558 559 411
3 558 554 559
3 558 553 554
3 558 233 553
3 558 239 233
3 560 249 561
3 560 399 249
3 560 395 399
3 560 562 395
3 560 404 562
3 560 403 404
3 560 402 403
3 560 561 402
3 563 244 397
3 563 564 244
3 563 411 564
3 563 410 411
3 563 409 410
3 563 565 409
3 563 390 565
3 563 397 390
3 566 387 394
3 566 567 387
3 566 415 567
3 566 414 415
3 566 404 414
3 566 562 404
3 566 395 562
3 566 394 395
3 568 382 569
3 568 391 382
3 568 390 391
3 568 565 390
3 568 409 565
3 568 419 409
3 568 418 419
3 568 569 418
3 570 374 386
3 570 571 374
3 570 423 571
3 570 422 423
3 570 415 422
3 570 567 415
3 570 387 567
3 570 386 387
3 572 367 573
3 572 383 367
3 572 382 383
3 572 569 382
3 572 418 569
3 572 427 418
3 572 426 427
3 572 573 426
3 574 318 379
3 574 575 318
3 574 433 575
3 574 432 433
3 574 431 432
3 574 576 431
3 574 372 576
3 574 379 372
3 577 311 578
3 577 377 311
3 577 369 377
3 577 579 369
3 577 438 579
3 577 437 438
3 577 436 437
3 577 578 436
3 580 374 571
3 580 373 374
3 580 372 373
3 580 576 372
3 580 431 576
3 580 441 431
3 580 423 441
3 580 571 423
3 581 367 368
3 581 573 367
3 581 426 573
3 581 443 426
3 581 438 443
3 581 579 438
3 581 369 579
3 581 368 369
3 582 284 363
3 582 583 284
3 582 449 583
3 582 448 449
3 582 447 448
3 582 584 447
3 582 358 584
3 582 363 358
3 585 277 586
3 585 361 277
3 585 355 361
3 585 587 355
3 585 454 587
3 585 453 454
3 585 452 453
3 585 586 452
3 588 350 589
3 588 359 350
3 588 358 359
3 588 584 358
3 588 447 584
3 588 459 447
3 588 458 459
3 588 589 458
3 590 347 354
3 590 591 347
3 590 463 591
3 590 462 463
3 590 454 462
3 590 587 454
3 590 355 587
3 590 354 355
3 592 342 593
3 592 351 342
3 592 350 351
3 592 589 350
3 592 458 589
3 592 467 458
3 592 466 467
3 592 593 466
3 594 339 346
3 594 595 339
3 594 471 595
3 594 470 471
3 594 463 470
3 594 591 463
3 594 347 591
3 594 346 347
3 596 334 597
3 596 343 334
3 596 342 343
3 596 593 342
3 596 466 593
3 596 475 466
3 596 474 475
3 596 597 474
3 598 331 338
3 598 599 331
3 598 479 599
3 598 478 479
3 598 471 478
3 598 595 471
3 598 339 595
3 598 338 339
3 600 326 601
3 600 335 326
3 600 334 335
3 600 597 334
3 600 474 597
3 600 483 474
3 600 482 483
3 600 601 482
3 602 323 330
3 602 603 323
3 602 487 603
3 602 486 487
3 602 479 486
3 602 599 479
3 602 331 599
3 602 330 331
3 604 316 605
3 604 327 316
3 604 326 327
3 604 601 326
3 604 482 601
3 604 491 482
3 604 490 491
3 604 605 490
3 606 313 322
3 606 607 313
3 606 495 607
3 606 494 495
3 606 487 494
3 606 603 487
3 606 323 603
3 606 322 323
3 608 318 575
3 608 317 318
3 608 316 317
3 608 605 316
3 608 490 605
3 608 497 490
3 608 433 497
3 608 575 433
3 609 311 312
3 609 578 311
3 609 436 578
3 609 499 436
3 609 495 499
3 609 607 495
3 609 313 607
3 609 312 313
3 610 304 307
3 610 611 304
3 610 505 611
3 610 504 505
3 610 503 504
3 610 612 503
3 610 300 612
3 610 307 300
3 613 304 611
3 613 303 304
3 613 297 303
3 613 614 297
3 613 508 614
3 613 507 508
3 613 505 507
3 613 611 505
3 615 292 616
3 615 301 292
3 615 300 301
3 615 612 300
3 615 503 612
3 615 513 503
3 615 512 513
3 615 616 512
3 617 289 296
3 617 618 289
3 617 517 618
3 617 516 517
3 617 508 516
3 617 614 508
3 617 297 614
3 617 296 297
3 619 282 620
3 619 293 282
3 619 292 293
3 619 616 292
3 619 512 616
3 619 521 512
3 619 520 521
3 619 620 520
3 621 279 288
3 621 622 279
3 621 525 622
3 621 524 525
3 621 517 524
3 621 618 517
3 621 289 618
3 621 288 289
3 623 284 583
3 623 283 284
3 623 282 283
3 623 620 282
3 623 520 620
3 623 527 520
3 623 449 527
3 623 583 449
3 624 277 278
3 624 586 277
3 624 452 586
3 624 529 452
3 624 525 529
3 624 622 525
3 624 279 622
3 624 278 279
3 625 270 626
3 625 273 270
3 625 267 273
3 625 627 267
3 625 534 627
3 625 533 534
3 625 532 533
3 625 626 532
3 628 270 271
3 628 626 270
3 628 532 626
3 628 539 532
3 628 538 539
3 628 629 538
3 628 262 629
3 628 271 262
3 630 259 266
3 630 631 259
3 630 543 631
3 630 542 543
3 630 534 542
3 630 627 534
3 630 267 627
3 630 266 267
3 632 254 633
3 632 263 254
3 632 262 263
3 632 629 262
3 632 538 629
3 632 547 538
3 632 546 547
3 632 633 546
3 634 251 258
3 634 635 251
3 634 551 635
3 634 550 551
3 634 543 550
3 634 631 543
3 634 259 631
3 634 258 259
3 636 242 637
3 636 255 242
3 636 254 255
3 636 633 254
3 636 546 633
3 636 555 546
3 636 554 555
3 636 637 554
3 638 249 250
3 638 561 249
3 638 402 561
3 638 557 402
3 638 551 557
3 638 635 551
3 638 251 635
3 638 250 251
3 639 244 564
3 639 243 244
3 639 242 243
3 639 637 242
3 639 554 637
3 639 559 554
3 639 411 559
3 639 564 411
